<svg viewBox="0 0 1600 1200" fill="none" xmlns="http://www.w3.org/2000/svg"><path d="M833.492 439.157L838.091 295.188H690.237L693.165 440.394L833.492 439.157Z" fill="#006931"/><path d="M821.781 347.069L864.67 405.825C871.045 414.267 882.808 414.142 892.049 408.58C901.746 402.748 904.86 390.471 899.036 381.052L853.707 307.648L821.781 347.069Z" fill="#FFC6AD"/><path d="M869.686 328.068C868.876 308.971 852.254 294.251 832.549 295.187C812.843 296.122 797.519 312.36 798.329 331.457C799.138 350.554 826.496 376.834 826.496 376.834C826.496 376.834 870.496 347.165 869.686 328.068Z" fill="#006931"/><path d="M772.454 972.165L770.015 474.68H785.806C830.491 474.68 863.268 492.124 859.686 540.796L816.693 972.165H772.454Z" fill="#FFD4C2"/><path d="M842.765 1019.97H770.992V1002.73H840.813L842.765 1019.97Z" fill="#00401E"/><path d="M840.813 1002.74H770.992V979.793H816.581L840.813 1002.74Z" fill="#D8CBC5"/><path d="M698.44 977.109L768.708 477.295L752.771 476.921C707.691 475.86 670.74 491.703 673.149 539.929L654.97 976.714L698.44 977.109Z" fill="#FFD4C2"/><path d="M630 1020L697.827 1019.97L699.727 1001.72L630.114 1002.73L630 1020Z" fill="#00401E"/><path d="M630 1002.74H699.676L701.762 979.793H654.232L630 1002.74Z" fill="#D8CBC5"/><path d="M803.851 230.617H725.247V291.765H803.851V230.617Z" fill="#181414"/><path d="M802.853 291.764C811.511 291.764 818.063 284.175 816.536 275.921L802.853 201.914V291.764Z" fill="#181414"/><path d="M726.213 291.764C717.554 291.764 711.003 284.175 712.529 275.921L726.213 201.914V291.764Z" fill="#181414"/><path d="M718.509 242.231C718.509 247.844 723.202 252.387 728.995 252.387C734.788 252.387 739.481 247.834 739.481 242.231C739.481 236.617 734.788 232.074 728.995 232.074C723.202 232.074 718.509 236.617 718.509 242.231Z" fill="#FFD4C2"/><path d="M789.67 242.2C789.67 247.813 794.363 252.356 800.156 252.356C805.949 252.356 810.642 247.803 810.642 242.2C810.642 236.586 805.949 232.043 800.156 232.043C794.363 232.043 789.67 236.596 789.67 242.2Z" fill="#FFD4C2"/><path d="M790.459 293.413V260.854L738.641 259.398V293.413C738.641 307.271 750.238 318.508 764.544 318.508C778.862 318.508 790.459 307.271 790.459 293.413Z" fill="#FFC6AD"/><path d="M798.919 256.138V209.295C798.919 194.491 786.523 182.484 771.24 182.484H757.919C742.637 182.484 730.24 194.491 730.24 209.295V256.138C730.24 270.941 742.637 282.948 757.919 282.948H771.24C786.523 282.948 798.919 270.952 798.919 256.138Z" fill="#FFD4C2"/><path d="M803.863 239.316H798.433V274.994H803.863V239.316Z" fill="#181414"/><path d="M730.677 239.645H725.247V275.323H730.677V239.645Z" fill="#181414"/><path d="M741.11 211.277H787.986C793.323 211.277 797.652 207.088 797.652 201.921C797.652 196.755 793.323 192.555 787.986 192.555H741.11C735.774 192.555 731.444 196.744 731.444 201.921C731.444 207.098 735.774 211.277 741.11 211.277Z" fill="#181414"/><path d="M764.201 252.17C763.463 252.17 762.778 252.014 762.145 251.702C761.719 251.483 761.325 251.182 760.951 250.797C760.276 250.08 758.833 249.165 756.808 251.016L755.957 250.08C758.355 247.897 760.577 248.562 761.875 249.924C762.145 250.205 762.425 250.423 762.716 250.569C763.391 250.901 764.201 250.984 765.093 250.808C765.976 250.631 766.817 250.184 767.627 249.467C768.416 248.76 769.278 248.437 770.181 248.521C771.811 248.666 772.942 250.09 772.984 250.153L771.987 250.932C771.977 250.922 771.136 249.872 770.056 249.779C769.506 249.737 768.987 249.934 768.468 250.402C767.492 251.275 766.443 251.826 765.343 252.045C764.948 252.128 764.564 252.17 764.201 252.17Z" fill="#171110"/><path d="M745.223 216.274H744.828C740.706 216.294 736.834 218.29 734.373 221.659L755.74 221.565C753.227 218.207 749.344 216.253 745.223 216.274Z" fill="#8A4528"/><path d="M753.964 239.627C753.964 239.627 751.555 233.65 747.06 232.132C742.564 230.614 737.29 233.577 737.29 233.577C737.29 233.577 739.47 238.099 743.966 239.617C748.461 241.145 753.964 239.627 753.964 239.627Z" fill="white"/><path d="M715.269 319.438L765.727 365.158C773.181 372.663 773.628 388.777 766.838 397.156C759.716 405.95 747.153 407.333 738.64 400.243L672.38 345.063L715.269 319.438Z" fill="#FFD4C2"/><path d="M749.739 236.192C749.739 238.281 747.995 239.965 745.846 239.965C743.696 239.965 741.952 238.281 741.952 236.192C741.952 234.112 743.696 232.418 745.846 232.418C747.995 232.418 749.739 234.102 749.739 236.192Z" fill="black"/><path d="M754.005 239.656C752.728 229.666 741.443 227.109 736.096 231.548C736.48 232.14 736.916 233.003 737.3 233.596C738.681 232.785 749.541 229.448 753.974 239.636" fill="black"/><path d="M783.96 221.606H784.354C788.476 221.626 792.349 223.622 794.809 226.991L773.442 226.897C775.945 223.539 779.838 221.585 783.96 221.606Z" fill="#8A4528"/><path d="M774.78 239.268C774.78 239.268 777.189 233.29 781.685 231.773C786.18 230.255 791.454 233.218 791.454 233.218C791.454 233.218 789.274 237.74 784.778 239.257C780.283 240.775 774.78 239.268 774.78 239.268Z" fill="white"/><path d="M779.007 235.817C779.007 237.906 780.751 239.59 782.9 239.59C785.049 239.59 786.794 237.906 786.794 235.817C786.794 233.737 785.049 232.043 782.9 232.043C780.751 232.043 779.007 233.727 779.007 235.817Z" fill="black"/><path d="M774.78 239.254C776.057 229.264 787.301 226.717 792.648 231.167C792.264 231.759 791.828 232.622 791.444 233.215C790.073 232.404 779.006 228.828 774.78 239.254Z" fill="black"/><path d="M756.653 261.693C756.965 260.445 758.283 260.154 759.436 260.154C760.464 260.154 761.45 260.529 762.218 261.183L767.659 265.851C767.659 265.851 753.694 277.234 745.274 260.664L752.137 258.896C753.341 258.595 754.639 258.782 755.646 259.489C756.342 259.988 756.892 260.705 756.653 261.693Z" fill="#5C1D13"/><path d="M663.109 582.084C654.595 479.281 692.927 431.004 692.927 431.004H755.906H833.669C833.669 431.004 872 479.281 863.487 582.084H663.109Z" fill="#00401E"/><path d="M770.992 984.282H816.581L834.843 813.148H770.992V984.282Z" fill="#D8CBC5"/><path d="M654.231 979.791L700.941 988.877L722.007 813.481L661.042 813.148L654.231 979.791Z" fill="#D8CBC5"/><path d="M742.887 363.861L823.339 319.43L833.015 344.171L768.614 401.296C758.46 409.903 742.991 407.263 735.63 395.672C728.653 384.663 731.954 370.161 742.887 363.861Z" fill="#FFD4C2"/><path d="M690.549 363.16C671.778 359.698 659.537 341.152 663.202 321.754C666.878 302.345 685.067 289.423 703.838 292.885C722.61 296.347 744.786 327.139 744.786 327.139C744.786 327.139 709.32 366.622 690.549 363.16Z" fill="#006931"/><path d="M775.809 331.039H752.543C734.114 331.039 719.122 316.027 719.122 297.575V239.879H726.442V244.744H723.981V297.565C723.981 313.335 736.793 326.163 752.543 326.163H775.809C791.559 326.163 804.371 313.335 804.371 297.565V244.744H802.866V239.879H809.24V297.565C809.23 316.027 794.238 331.039 775.809 331.039Z" fill="#A8A8A8"/><path d="M956.928 268.137L947.47 272.233L953.118 285.414C954.208 287.951 957.198 289.084 959.814 287.951C962.431 286.818 963.666 283.845 962.576 281.308L956.928 268.137Z" fill="#FFD4C2"/><path d="M911.962 280.961L938.115 288.415L947.189 260.097L940.607 258.216C938.53 257.623 936.111 258.444 933.941 260.471L911.962 280.961Z" fill="#FFD4C2"/><path d="M952.754 282.492L937.991 278.344L931.886 297.659L935.603 298.698C936.776 299.031 938.188 298.397 939.496 296.962L952.754 282.492Z" fill="#FFC6AD"/><path d="M911.96 280.965L887.718 345.938L910.445 353.038L930.732 285.851L911.96 280.965Z" fill="#FFD4C2"/><path d="M952.058 285.338L956.44 271.47C957.872 266.927 955.318 262.197 950.719 260.908L947.054 259.879L940.077 281.97L952.058 285.338Z" fill="#D76B55"/><path d="M925.946 284.945L918.367 308.585L919.769 308.98C927.192 311.09 935.103 306.859 937.46 299.53L940.783 289.166L925.946 284.945Z" fill="#FFD4C2"/><path d="M941.947 237.81L929.467 277.147C929.094 278.332 929.758 279.569 930.962 279.912L954.561 286.566C955.755 286.909 957.043 286.223 957.416 285.027L969.896 245.69C970.27 244.505 969.605 243.268 968.401 242.925L944.802 236.271C943.598 235.939 942.321 236.625 941.947 237.81Z" fill="#FF7800"/><path d="M950.771 243.374L947.241 242.376C946.919 242.282 946.576 242.469 946.473 242.792L944.77 248.166C944.666 248.488 944.853 248.821 945.175 248.915L948.705 249.902C949.027 249.996 949.369 249.809 949.473 249.486L951.176 244.112C951.28 243.8 951.103 243.467 950.771 243.374Z" fill="#F4F4F4"/><path d="M946.307 249.373L946.13 249.321L947.179 246.015L945.497 245.547L945.559 245.371L947.231 245.849L948.269 242.543L948.446 242.595L947.407 245.89L948.622 246.233L949.671 242.938L949.847 242.98L948.799 246.285L950.47 246.753L950.418 246.93L948.747 246.462L947.698 249.758L947.522 249.706L948.57 246.41L947.356 246.067L946.307 249.373Z" fill="#FF7800"/><path d="M949.972 245.963L946.66 245.027L946.224 246.4L949.536 247.335L949.972 245.963Z" fill="#F4F4F4"/><path d="M950.064 245.907L946.607 244.93L946.119 246.447L949.576 247.425L950.064 245.907ZM946.711 245.117L949.867 246.011L949.483 247.238L946.327 246.354L946.711 245.117Z" fill="#FF7800"/><path d="M946.452 252.48C946.307 252.48 946.151 252.459 946.006 252.417C945.58 252.303 945.237 252.022 945.04 251.647C944.999 251.564 945.03 251.47 945.102 251.429C945.185 251.387 945.279 251.418 945.32 251.491C945.487 251.793 945.756 252.001 946.089 252.105C946.421 252.199 946.784 252.157 947.096 251.991C947.179 251.949 947.272 251.98 947.314 252.053C947.355 252.136 947.324 252.23 947.252 252.272C947.002 252.407 946.722 252.48 946.452 252.48Z" fill="#F4F4F4"/><path d="M946.316 253.258C945.599 253.258 944.904 252.884 944.551 252.229C944.509 252.146 944.54 252.052 944.613 252.011C944.696 251.969 944.79 252 944.831 252.073C945.267 252.884 946.316 253.175 947.157 252.718C947.24 252.676 947.333 252.707 947.375 252.78C947.416 252.853 947.385 252.957 947.312 252.998C947.001 253.175 946.658 253.258 946.316 253.258Z" fill="#F4F4F4"/><path d="M946.191 254.047C945.329 254.047 944.499 253.6 944.063 252.799C944.021 252.716 944.052 252.623 944.125 252.581C944.208 252.54 944.301 252.571 944.343 252.643C944.893 253.652 946.191 254.016 947.229 253.454C947.312 253.413 947.406 253.444 947.447 253.517C947.489 253.6 947.458 253.693 947.385 253.735C947.011 253.943 946.596 254.047 946.191 254.047Z" fill="#F4F4F4"/><path d="M946.016 254.795C945.072 254.795 944.168 254.307 943.701 253.444C943.66 253.361 943.691 253.267 943.764 253.226C943.847 253.184 943.94 253.215 943.982 253.288C944.584 254.4 946.006 254.795 947.159 254.172C947.242 254.13 947.335 254.161 947.377 254.234C947.418 254.307 947.387 254.411 947.314 254.452C946.899 254.691 946.453 254.795 946.016 254.795Z" fill="#F4F4F4"/><path d="M957.114 258.611C957.229 258.268 957.623 258.112 958.194 258.268C958.755 258.434 959.004 258.746 958.9 259.078C958.786 259.453 958.391 259.577 957.81 259.411C957.26 259.266 957 258.975 957.114 258.611ZM957.291 258.652C957.218 258.891 957.457 259.078 957.883 259.193C958.319 259.318 958.63 259.286 958.703 259.047C958.765 258.839 958.558 258.631 958.111 258.507C957.654 258.372 957.364 258.444 957.291 258.652Z" fill="#F4F4F4"/><path d="M956.688 259.954C956.802 259.611 957.196 259.455 957.767 259.611C958.328 259.778 958.577 260.09 958.473 260.422C958.359 260.796 957.965 260.921 957.383 260.755C956.833 260.609 956.573 260.318 956.688 259.954ZM956.874 259.996C956.802 260.235 957.041 260.422 957.466 260.537C957.902 260.661 958.214 260.63 958.286 260.391C958.349 260.183 958.141 259.975 957.695 259.85C957.227 259.715 956.937 259.788 956.874 259.996Z" fill="#F4F4F4"/><path d="M956.263 261.298C956.367 260.955 956.761 260.799 957.343 260.955C957.914 261.121 958.152 261.433 958.049 261.766C957.924 262.14 957.54 262.265 956.958 262.099C956.408 261.953 956.149 261.662 956.263 261.298ZM956.45 261.34C956.377 261.579 956.616 261.766 957.041 261.88C957.478 262.005 957.789 261.964 957.862 261.735C957.924 261.527 957.716 261.319 957.27 261.194C956.803 261.059 956.512 261.132 956.45 261.34Z" fill="#F4F4F4"/><path d="M955.838 262.638C955.952 262.295 956.347 262.139 956.918 262.295C957.478 262.461 957.728 262.773 957.624 263.106C957.51 263.48 957.115 263.605 956.534 263.438C955.983 263.293 955.724 263.002 955.838 262.638ZM956.025 262.68C955.952 262.919 956.191 263.106 956.617 263.22C957.053 263.345 957.364 263.314 957.437 263.075C957.499 262.867 957.292 262.659 956.845 262.534C956.378 262.399 956.087 262.472 956.025 262.68Z" fill="#F4F4F4"/><path d="M955.245 264.54C955.349 264.197 955.743 264.041 956.325 264.197C956.885 264.364 957.135 264.676 957.031 265.008C956.916 265.382 956.522 265.507 955.94 265.341C955.38 265.185 955.131 264.894 955.245 264.54ZM955.421 264.572C955.349 264.811 955.588 264.998 956.013 265.112C956.449 265.237 956.761 265.206 956.833 264.967C956.896 264.759 956.688 264.551 956.242 264.426C955.785 264.291 955.484 264.374 955.421 264.572Z" fill="#F4F4F4"/><path d="M954.819 265.88C954.934 265.537 955.328 265.381 955.899 265.537C956.46 265.703 956.709 266.015 956.605 266.348C956.491 266.722 956.096 266.847 955.515 266.681C954.965 266.525 954.705 266.234 954.819 265.88ZM954.996 265.911C954.923 266.15 955.162 266.338 955.588 266.452C956.024 266.577 956.335 266.546 956.408 266.306C956.47 266.099 956.263 265.891 955.816 265.766C955.359 265.631 955.069 265.714 954.996 265.911Z" fill="#F4F4F4"/><path d="M954.394 267.224C954.508 266.881 954.902 266.725 955.473 266.881C956.034 267.047 956.283 267.359 956.179 267.692C956.065 268.066 955.671 268.191 955.089 268.024C954.539 267.868 954.279 267.577 954.394 267.224ZM954.581 267.255C954.508 267.494 954.747 267.681 955.172 267.796C955.608 267.92 955.92 267.879 955.993 267.65C956.055 267.442 955.847 267.234 955.401 267.11C954.934 266.974 954.643 267.058 954.581 267.255Z" fill="#F4F4F4"/><path d="M953.97 268.56C954.084 268.217 954.468 268.061 955.05 268.217C955.621 268.383 955.859 268.695 955.756 269.028C955.641 269.402 955.247 269.527 954.665 269.36C954.115 269.204 953.856 268.913 953.97 268.56ZM954.157 268.591C954.084 268.83 954.323 269.017 954.749 269.132C955.185 269.256 955.496 269.225 955.569 268.986C955.631 268.778 955.423 268.57 954.977 268.446C954.51 268.31 954.219 268.394 954.157 268.591Z" fill="#F4F4F4"/><path d="M953.366 270.451C953.48 270.107 953.875 269.952 954.446 270.107C955.006 270.274 955.255 270.586 955.152 270.918C955.037 271.293 954.643 271.417 954.061 271.251C953.511 271.105 953.262 270.804 953.366 270.451ZM953.553 270.492C953.48 270.731 953.719 270.918 954.145 271.033C954.581 271.157 954.892 271.126 954.965 270.887C955.027 270.679 954.819 270.471 954.373 270.347C953.916 270.211 953.615 270.284 953.553 270.492Z" fill="#F4F4F4"/><path d="M952.95 271.794C953.064 271.451 953.448 271.295 954.03 271.451C954.601 271.618 954.84 271.929 954.736 272.262C954.621 272.636 954.227 272.761 953.646 272.595C953.085 272.449 952.836 272.148 952.95 271.794ZM953.126 271.836C953.054 272.075 953.293 272.262 953.718 272.376C954.154 272.501 954.466 272.47 954.538 272.231C954.601 272.023 954.393 271.815 953.947 271.69C953.49 271.555 953.189 271.628 953.126 271.836Z" fill="#F4F4F4"/><path d="M952.526 273.134C952.64 272.791 953.034 272.635 953.605 272.791C954.166 272.957 954.415 273.269 954.311 273.602C954.197 273.976 953.803 274.101 953.221 273.935C952.671 273.789 952.411 273.488 952.526 273.134ZM952.712 273.176C952.64 273.415 952.878 273.602 953.304 273.716C953.74 273.841 954.052 273.81 954.124 273.571C954.187 273.363 953.979 273.155 953.533 273.03C953.065 272.895 952.775 272.968 952.712 273.176Z" fill="#F4F4F4"/><path d="M952.098 274.478C952.212 274.135 952.606 273.979 953.178 274.135C953.738 274.301 953.987 274.613 953.883 274.946C953.769 275.32 953.375 275.445 952.793 275.278C952.243 275.133 951.984 274.842 952.098 274.478ZM952.285 274.519C952.212 274.759 952.451 274.946 952.876 275.06C953.312 275.185 953.624 275.143 953.697 274.914C953.759 274.707 953.551 274.499 953.105 274.374C952.638 274.239 952.347 274.312 952.285 274.519Z" fill="#F4F4F4"/><path d="M951.497 276.368C951.611 276.025 952.006 275.869 952.577 276.025C953.138 276.192 953.387 276.504 953.283 276.836C953.169 277.211 952.774 277.335 952.193 277.169C951.643 277.023 951.383 276.732 951.497 276.368ZM951.684 276.41C951.611 276.649 951.85 276.836 952.276 276.951C952.712 277.075 953.023 277.044 953.096 276.805C953.158 276.597 952.951 276.389 952.504 276.265C952.037 276.129 951.746 276.213 951.684 276.41Z" fill="#F4F4F4"/><path d="M951.073 277.708C951.188 277.365 951.582 277.209 952.153 277.365C952.714 277.532 952.963 277.843 952.859 278.176C952.745 278.55 952.35 278.675 951.769 278.509C951.219 278.363 950.959 278.072 951.073 277.708ZM951.26 277.75C951.188 277.989 951.426 278.176 951.852 278.29C952.288 278.415 952.6 278.384 952.672 278.145C952.734 277.937 952.527 277.729 952.08 277.604C951.624 277.469 951.323 277.552 951.26 277.75Z" fill="#F4F4F4"/><path d="M950.656 279.052C950.771 278.709 951.165 278.553 951.736 278.709C952.297 278.875 952.546 279.187 952.442 279.52C952.328 279.894 951.933 280.019 951.352 279.853C950.802 279.707 950.542 279.416 950.656 279.052ZM950.833 279.094C950.76 279.333 950.999 279.52 951.425 279.634C951.861 279.759 952.172 279.728 952.245 279.489C952.307 279.281 952.1 279.073 951.653 278.948C951.196 278.813 950.895 278.896 950.833 279.094Z" fill="#F4F4F4"/><path d="M950.231 280.396C950.345 280.053 950.739 279.897 951.31 280.053C951.871 280.219 952.12 280.531 952.016 280.864C951.902 281.238 951.508 281.363 950.926 281.196C950.376 281.051 950.116 280.76 950.231 280.396ZM950.407 280.437C950.334 280.677 950.573 280.864 950.999 280.978C951.435 281.103 951.746 281.072 951.819 280.832C951.881 280.625 951.674 280.417 951.227 280.292C950.77 280.157 950.48 280.24 950.407 280.437Z" fill="#F4F4F4"/><path d="M929.01 293.134L938.79 295.879L946.431 271.719C947.272 269.048 945.767 266.272 943.067 265.513C940.368 264.754 937.492 266.303 936.651 268.975L929.01 293.134Z" fill="#FFD4C2"/><path d="M902.108 400.374L930.732 304.297L906.594 296.656L861.919 386.776C857.568 397.318 863.268 408.202 874.429 412.464C884.552 416.321 899.804 410.884 902.108 400.374Z" fill="#FFD4C2"/><path d="M836.296 330.397L874.783 299.449C876.839 297.807 879.84 298.139 881.47 300.198C883.1 302.246 882.767 305.229 880.722 306.872L842.214 337.841C839.598 339.941 837.874 338.62 836.317 336.655L836.047 336.312C834.49 334.348 835.352 331.052 837.968 328.963L836.296 330.397Z" fill="#FFD4C2"/><path d="M841.04 323.998L879.527 293.05C881.582 291.408 884.583 291.74 886.213 293.809C887.843 295.857 887.5 298.851 885.465 300.483L846.957 331.452C844.331 333.552 842.618 332.231 841.06 330.267L840.79 329.924C839.233 327.959 840.095 324.663 842.711 322.563L841.04 323.998Z" fill="#FFD4C2"/><path d="M844.311 316.338L882.798 285.39C884.854 283.747 887.854 284.08 889.484 286.149C891.114 288.197 890.782 291.191 888.737 292.823L850.229 323.792C847.613 325.892 845.889 324.571 844.332 322.606L844.062 322.263C842.505 320.299 843.366 317.003 845.983 314.903L844.311 316.338Z" fill="#FFD4C2"/><path d="M832.299 290.883C833.119 288.367 835.829 286.808 838.331 287.411L839.006 287.702C841.456 288.294 842.795 290.748 842.027 293.222C842.027 293.222 835.974 307.381 833.545 312.953C831.084 318.587 838.456 322.247 842.515 316.176C844.529 313.171 852.918 300.998 852.918 300.998L863.539 301.518L847.945 333.266L810.621 361.698L790.271 338.849L816.134 322.299L824.221 306.757L832.299 290.883Z" fill="#FFD4C2"/><path d="M786.471 371.668H785.069C770.918 371.668 759.404 360.139 759.404 345.97V328.775H764.263V345.97C764.263 357.457 773.597 366.792 785.069 366.792H786.471C797.943 366.792 807.267 357.446 807.267 345.97C807.267 331.8 818.781 320.272 832.932 320.272C838.424 320.272 843.054 315.978 843.47 310.489L845.328 285.789L850.177 286.153L848.318 310.853C847.716 318.868 840.957 325.137 832.932 325.137C821.459 325.137 812.126 334.482 812.126 345.97C812.136 360.139 800.622 371.668 786.471 371.668Z" fill="#A8A8A8"/><path d="M831.488 281.71C833.025 289.091 840.241 293.821 847.602 292.283C854.973 290.744 859.697 283.519 858.16 276.148L831.488 281.71Z" fill="#797878"/><path d="M852.72 301.649L854.755 281.886C854.993 279.267 857.309 277.343 859.925 277.583C862.541 277.822 864.462 280.14 864.223 282.749L862.51 305.131L852.72 301.649Z" fill="#FFD4C2"/><path d="M833.046 283.058L858.119 276.852C859.915 276.405 861.015 274.586 860.569 272.787C860.123 270.989 858.306 269.887 856.51 270.334L831.436 276.54C829.64 276.987 828.54 278.806 828.986 280.605C829.433 282.403 831.249 283.505 833.046 283.058Z" fill="#A8A8A8"/><path d="M798.494 245.274V225.835C798.494 211.031 786.243 199.024 771.137 199.024H766.579H762.53H757.972C742.866 199.024 730.615 211.031 730.615 225.835V245.274H725.247V209.087C725.247 193.036 738.682 180 755.241 180H773.857C790.427 180 803.851 193.036 803.851 209.087V245.274H798.494Z" fill="#181414"/><path d="M739.035 231.863H751.265C755.729 231.863 759.623 234.254 761.647 237.789H767.233C769.257 234.254 773.151 231.863 777.615 231.863H789.845C796.407 231.863 801.723 237.009 801.723 243.361C801.723 249.713 796.407 254.859 789.845 254.859H777.615C771.054 254.859 765.738 249.713 765.738 243.361C765.738 243.247 765.748 243.132 765.759 243.007H763.121C763.121 243.122 763.142 243.236 763.142 243.361C763.142 249.713 757.827 254.859 751.265 254.859H739.035C732.473 254.859 727.157 249.713 727.157 243.361C727.157 237.02 732.473 231.863 739.035 231.863ZM779.058 252.166H788.413C793.427 252.166 797.497 248.226 797.497 243.371C797.497 238.517 793.427 234.577 788.413 234.577H779.058C774.044 234.577 769.984 238.517 769.984 243.371C769.974 248.226 774.033 252.166 779.058 252.166ZM740.509 252.166H749.863C754.878 252.166 758.948 248.226 758.948 243.371C758.948 238.517 754.878 234.577 749.863 234.577H740.509C735.494 234.577 731.435 238.517 731.435 243.371C731.424 248.226 735.494 252.166 740.509 252.166Z" fill="#006931"/></svg>