<svg viewBox="0 0 1600 1200" fill="none" xmlns="http://www.w3.org/2000/svg"><path d="M494.181 180V651.064H1182.17V180H494.181ZM1173.13 642.025H503.221V189.039H1173.13V642.025Z" fill="#D0DEF2"/><path d="M1173.13 189.039H503.221V642.025H1173.13V189.039Z" fill="#E5F0FF"/><path d="M650.253 431.426H584.582V524.932H650.253V431.426Z" fill="#B0C2E4"/><path d="M715.925 327.426H650.254V524.932H715.925V327.426Z" fill="#8DA8DC"/><path d="M781.596 387.793H715.925V524.936H781.596V387.793Z" fill="#5773A4"/><path d="M859.32 530.34H579.179V271.016H584.478V524.937H859.32V530.34Z" fill="#D0DEF2"/><path d="M1006.67 429.767V335.43C1058.72 335.43 1101.02 377.611 1101.02 429.767C1101.02 481.923 1058.83 524.105 1006.67 524.105C981.831 524.105 961.984 516.52 943.488 499.897L1006.67 429.767Z" fill="#8DA8DC"/><path d="M1006.77 429.971L943.487 500.309C921.355 480.361 910.34 453.14 912.418 423.426L1006.77 429.971Z" fill="#B0C2E4"/><path d="M1006.77 429.973L912.314 423.324C915.743 373.662 956.996 335.324 1006.77 335.324V429.973Z" fill="#5773A4"/><path d="M1236.83 1017.93H1287.95V1005.77C1286.6 994.446 1275.69 985.719 1262.39 985.719C1249.09 985.719 1238.18 994.55 1236.83 1005.77V1017.93Z" fill="#FF6200"/><path d="M1125.43 983.744L1084.6 995.9C1080.23 997.251 1077.22 1001.2 1077.22 1005.77V1017.82H1167.31V983.641H1125.43V983.744Z" fill="#FF6200"/><path d="M1156.61 599.848L1097.38 991.847H1168.45L1219.16 632.264H1227.16V991.847H1298.34L1291.07 567.641H1158.37L1156.61 599.848Z" fill="#463EC5"/><path d="M1168.45 415.958L1206.9 405.672H1249.4L1293.35 415.958V571.697H1168.45V415.958Z" fill="#D8CBC5"/><path d="M1205.86 414.814V380.84L1249.4 381.048V414.814C1249.4 423.645 1242.23 430.814 1233.4 430.814H1221.86C1213.03 430.814 1205.86 423.645 1205.86 414.814Z" fill="#F5B091"/><path d="M1227.16 430.815L1236.72 453.983L1264.57 409.204L1249.4 405.672L1227.16 430.815Z" fill="#E6E3DA"/><path d="M1232.77 443.696C1232.77 440.683 1230.38 438.293 1227.37 438.293C1224.36 438.293 1221.97 440.683 1221.97 443.696C1221.97 445.462 1222.8 447.02 1224.15 448.059V519.124C1224.15 519.747 1224.67 520.163 1225.19 520.163C1225.81 520.163 1226.23 519.643 1226.23 519.124V448.994C1226.54 449.098 1226.95 449.098 1227.37 449.098C1227.79 449.098 1228.1 449.098 1228.51 448.994V519.124C1228.51 519.747 1229.03 520.163 1229.55 520.163C1230.18 520.163 1230.59 519.643 1230.59 519.124V448.059C1231.94 447.02 1232.77 445.462 1232.77 443.696Z" fill="#FF6200"/><path d="M1265.5 365.981C1265.5 361.098 1261.66 357.254 1256.78 357.15V336.995C1256.78 324.008 1246.18 313.41 1233.19 313.41H1222.07C1209.08 313.41 1198.48 324.008 1198.48 336.995V357.15C1193.7 357.15 1189.75 361.098 1189.75 365.981C1189.75 370.865 1193.6 374.709 1198.48 374.813V377.306C1198.48 390.293 1209.08 400.89 1222.07 400.89H1233.19C1246.18 400.89 1256.78 390.293 1256.78 377.306V374.813C1261.56 374.709 1265.5 370.761 1265.5 365.981Z" fill="#FFC6AD"/><path d="M1222.49 350.918C1217.08 344.371 1208.25 343.54 1202.85 350.918H1222.49Z" fill="#797878"/><path d="M1232.98 350.918C1238.38 344.371 1247.22 343.54 1252.62 350.918H1232.98Z" fill="#797878"/><path d="M1259.69 351.851V338.345C1259.69 336.683 1258.33 335.332 1256.67 335.332C1255.01 335.332 1253.66 336.683 1253.66 338.345V351.851C1253.66 353.514 1255.01 354.864 1256.67 354.864C1258.33 354.864 1259.69 353.514 1259.69 351.851Z" fill="#797878"/><path d="M1201.5 351.851V338.345C1201.5 336.683 1200.14 335.332 1198.48 335.332C1196.82 335.332 1195.47 336.683 1195.47 338.345V351.851C1195.47 353.514 1196.82 354.864 1198.48 354.864C1200.14 354.864 1201.5 353.514 1201.5 351.851Z" fill="#797878"/><path d="M1227.79 374.189C1229.14 374.189 1230.18 373.566 1231.22 372.942C1232.77 372.007 1233.71 371.384 1235.58 373.254L1236.83 372.007C1234.02 369.201 1231.94 370.448 1230.28 371.487C1229.45 372.007 1228.72 372.527 1227.79 372.527C1226.85 372.527 1226.12 372.111 1225.4 371.591C1223.84 370.656 1221.97 369.409 1218.75 372.111L1219.89 373.462C1222.18 371.591 1223.11 372.215 1224.57 373.046C1225.4 373.566 1226.44 374.189 1227.79 374.189Z" fill="black"/><path d="M1321.41 439.332C1319.33 427.695 1310.19 418.345 1298.34 416.163L1249.29 405.773L1235.99 661.149H1301.67V579.695L1324.21 548.63C1330.34 540.215 1332.94 529.825 1331.7 519.539L1321.41 439.332Z" fill="#232144"/><path d="M1159.41 415.958C1157.34 416.269 1141.75 419.074 1135.62 439.646L1109.12 516.113C1106.21 523.49 1107.04 531.801 1111.2 538.555L1146.63 601.1L1142.48 661.152H1221.14L1206.07 405.672L1159.41 415.958Z" fill="#232144"/><path d="M1235.99 387.595C1238.7 387.595 1241.19 386.556 1242.85 384.686L1241.61 383.543C1240.15 385.102 1237.97 385.933 1235.47 385.829C1233.4 385.725 1231.53 384.894 1230.7 383.647L1229.24 384.686C1230.49 386.349 1232.77 387.388 1235.37 387.595C1235.58 387.595 1235.79 387.595 1235.99 387.595Z" fill="#010101"/><path d="M1227.89 430.815L1218.33 453.983L1190.48 409.204L1205.86 405.672L1227.89 430.815Z" fill="#E6E3DA"/><path d="M1241.19 382.711V380.321C1241.19 377.931 1239.22 375.957 1236.83 375.957H1218.54C1216.15 375.957 1214.17 377.931 1214.17 380.321V382.711H1241.19Z" fill="#797878"/><path d="M1221.03 661.152L1186.12 475.282L1196.3 456.893H1183.31L1189.86 409.204L1205.86 405.672L1221.03 661.152Z" fill="#463EC5"/><path d="M1235.99 661.152L1268.52 475.282L1258.33 456.893H1271.43L1264.88 408.893L1249.4 405.672L1235.99 661.152Z" fill="#463EC5"/><path d="M1219.68 361.827C1219.99 360.06 1217.5 358.086 1213.97 357.462C1210.43 356.735 1207.32 357.566 1207 359.333C1206.8 360.268 1207.52 361.307 1208.87 362.242H1219.47C1219.58 362.138 1219.68 362.034 1219.68 361.827Z" fill="white"/><path d="M1213.86 360.265C1213.86 358.811 1212.82 357.564 1211.47 357.148C1210.54 357.148 1209.7 357.252 1208.98 357.564C1208.04 358.084 1207.52 359.122 1207.52 360.265C1207.52 360.577 1207.52 360.785 1207.63 360.993C1207.94 361.408 1208.35 361.824 1208.98 362.135H1213.34C1213.65 361.72 1213.86 360.993 1213.86 360.265Z" fill="black"/><path d="M1248.36 359.333C1248.05 357.566 1244.93 356.735 1241.4 357.462C1237.86 358.19 1235.37 360.164 1235.68 361.827C1235.68 361.93 1235.79 362.034 1235.79 362.138H1246.39C1247.84 361.307 1248.57 360.268 1248.36 359.333Z" fill="white"/><path d="M1242.64 360.577C1242.64 359.226 1241.81 358.084 1240.67 357.668C1238.59 358.187 1237.03 359.123 1236.2 360.265C1236.2 360.369 1236.2 360.473 1236.2 360.681C1236.2 361.304 1236.41 361.824 1236.62 362.343H1242.12C1242.44 361.72 1242.64 361.2 1242.64 360.577Z" fill="black"/><path d="M460.617 934.387L462.072 950.491L487.634 989.66C493.453 998.595 504.571 1002.65 514.754 999.53L492.414 948.932L490.543 929.504L460.617 934.387Z" fill="#9E3F39"/><path d="M490.128 1014.91C492.311 1018.13 495.947 1020 499.792 1020H542.291C544.37 1020 546.032 1018.34 546.032 1016.26C546.032 1014.8 545.201 1013.45 543.85 1012.83L514.755 999.531C504.572 1002.65 493.454 998.596 487.635 989.661L462.073 950.492L457.397 956.726C452.097 963.791 452.825 971.791 452.825 981.453V1020H463.424V987.375C463.424 985.817 464.671 984.57 466.229 984.57C467.06 984.57 467.892 984.986 468.411 985.713L490.128 1014.91Z" fill="#463EC5"/><path d="M301.427 660.104C302.778 662.39 305.584 663.117 307.87 661.87C310.156 660.52 310.883 657.715 309.636 655.429L302.259 642.546L299.349 623.117L314.416 574.39L284.698 569.195L277.632 617.819L271.189 639.429L280.853 666.442L296.128 680.779C297.998 682.546 301.012 682.442 302.778 680.572C304.025 679.221 304.337 677.455 303.817 675.896C303.921 675.896 303.921 675.792 304.025 675.792C306.103 674.13 306.415 671.221 304.752 669.143L292.387 653.559C291.14 650.442 289.685 647.221 289.27 646.078C288.542 644.208 290.309 642.65 291.764 643.689L301.427 660.104Z" fill="#9E3F39"/><path d="M565.151 445.764H569.931H575.958H580.945C583.543 445.764 585.725 447.842 585.725 450.543C585.725 453.14 583.647 455.322 580.945 455.322H575.958H569.931H565.151H564.839H552.162L501.766 542.387C496.466 552.465 484.724 557.036 474.749 552.776C462.903 547.685 458.747 532.621 466.125 521.296L542.498 425.192L569.723 399.842C571.593 397.972 574.503 397.972 576.477 399.738C578.347 401.608 578.347 404.517 576.581 406.491L565.151 416.984V417.088H606.091C608.689 417.088 610.871 419.166 610.871 421.868C610.871 424.465 608.793 426.647 606.091 426.647H565.151L567.125 426.751H572.113H578.14H583.127C585.725 426.751 587.907 428.829 587.907 431.53C587.907 434.127 585.829 436.309 583.127 436.309H578.14H572.113H567.125V436.413H572.113H578.14H583.127C585.725 436.413 587.907 438.491 587.907 441.192C587.907 443.79 585.829 445.971 583.127 445.971H578.14H572.113H567.125L565.151 445.764Z" fill="#9E3F39"/><path d="M533.458 460.829C520.054 450.023 500.415 452.725 490.544 466.647L489.401 468.205L480.256 434.855C477.451 421.868 467.579 411.686 453.967 410.647H421.028V394.543H364.501V410.647H332.6C319.092 411.686 309.324 421.556 306.311 434.751L270.15 567.01C266.617 579.789 271.397 593.4 282.1 601.088C298.933 613.348 322.833 606.283 330.418 586.854L351.927 531.27H444.823L451.785 545.088C453.552 549.244 456.253 553.088 459.994 556.309C473.294 567.53 493.245 565.036 503.428 550.906L538.966 501.244C548.006 488.465 545.616 470.803 533.458 460.829Z" fill="#FF6200"/><path d="M583.232 446.283V444.932H567.125C564.839 444.932 563.073 443.062 563.073 440.881C563.073 438.595 564.943 436.829 567.125 436.829H583.232V435.478H567.125C564.839 435.478 563.073 433.608 563.073 431.426C563.073 429.14 564.943 427.374 567.125 427.374H583.232V426.023H567.125C564.112 426.023 561.722 428.413 561.722 431.426C561.722 433.504 562.865 435.27 564.632 436.205C562.969 437.14 561.722 438.907 561.722 440.984C561.722 442.647 562.553 444.205 563.8 445.14C561.41 445.66 559.54 447.842 559.54 450.439C559.54 453.452 561.93 455.842 564.943 455.842H581.049V454.387H564.943C562.657 454.387 560.891 452.517 560.891 450.335C560.891 448.153 562.761 446.283 564.943 446.283H583.232Z" fill="#763427"/><path d="M351.616 955.376L349.434 979.272L359.513 991.947C363.565 997.038 371.359 996.934 375.307 991.843L384.867 979.48L381.854 955.168L351.616 955.376Z" fill="#9E3F39"/><path d="M393.18 345.298C407.412 345.298 418.95 333.762 418.95 319.532C418.95 305.302 407.412 293.766 393.18 293.766C378.948 293.766 367.41 305.302 367.41 319.532C367.41 333.762 378.948 345.298 393.18 345.298Z" fill="#420F0F"/><path d="M421.547 375.741C426.138 375.741 429.86 372.019 429.86 367.429C429.86 362.838 426.138 359.117 421.547 359.117C416.956 359.117 413.234 362.838 413.234 367.429C413.234 372.019 416.956 375.741 421.547 375.741Z" fill="#9E3F39"/><path d="M364.813 375.741C369.404 375.741 373.126 372.019 373.126 367.429C373.126 362.838 369.404 359.117 364.813 359.117C360.222 359.117 356.5 362.838 356.5 367.429C356.5 372.019 360.222 375.741 364.813 375.741Z" fill="#9E3F39"/><path d="M420.819 371.168C416.663 371.168 413.338 374.493 413.338 378.648V386.129C413.338 390.285 416.663 393.609 420.819 393.609C424.976 393.609 428.301 390.285 428.301 386.129V378.648C428.405 374.597 424.976 371.168 420.819 371.168ZM426.223 385.402C426.223 388.726 423.833 391.428 420.923 391.428C418.014 391.428 415.624 388.726 415.624 385.402V379.48C415.624 376.155 418.014 373.454 420.923 373.454C423.833 373.454 426.223 376.155 426.223 379.48V385.402Z" fill="#D8CBC5"/><path d="M366.06 371.168C361.903 371.168 358.578 374.493 358.578 378.648V386.129C358.578 390.285 361.903 393.609 366.06 393.609C370.216 393.609 373.541 390.285 373.541 386.129V378.648C373.645 374.597 370.216 371.168 366.06 371.168ZM371.463 385.402C371.463 388.726 369.073 391.428 366.164 391.428C363.254 391.428 360.864 388.726 360.864 385.402V379.48C360.864 376.155 363.254 373.454 366.164 373.454C369.073 373.454 371.463 376.155 371.463 379.48V385.402Z" fill="#D8CBC5"/><path d="M365.852 380.103V341.557C365.852 329.401 375.723 319.531 387.881 319.531H398.479C410.637 319.531 420.508 329.401 420.508 341.557V380.103C420.508 392.258 410.637 402.128 398.479 402.128H387.881C375.723 402.128 365.852 392.258 365.852 380.103Z" fill="#9E3F39"/><path d="M393.075 376.782C392.764 376.782 392.452 376.782 392.14 376.678C391.205 376.47 390.27 375.95 389.438 375.223C389.023 374.807 388.503 374.599 388.088 374.703C387.152 374.807 386.425 375.742 386.425 375.742L385.594 375.119C385.594 375.015 386.633 373.768 387.984 373.664C388.711 373.56 389.542 373.872 390.166 374.496C390.893 375.119 391.517 375.535 392.348 375.639C393.075 375.742 393.803 375.742 394.322 375.431C394.53 375.327 394.842 375.119 395.05 374.911C395.361 374.599 396.193 373.872 397.336 373.768C398.271 373.768 399.206 374.184 400.141 375.015L399.414 375.846C398.686 375.223 398.063 374.911 397.44 374.911C396.712 374.911 396.089 375.431 395.985 375.639C395.673 375.95 395.361 376.262 394.946 376.47C394.322 376.574 393.699 376.782 393.075 376.782Z" fill="#171111"/><path d="M397.856 384.884C397.336 382.598 393.907 383.741 393.907 383.741L386.01 385.611C386.01 385.196 401.077 399.949 408.766 380.312L400.869 382.183C400.869 382.079 397.336 382.598 397.856 384.884Z" fill="#420F0F"/><path d="M399.414 365.142C400.453 358.285 409.078 355.376 414.377 358.597C414.065 359.116 413.442 360.155 413.13 360.675C411.987 359.948 405.856 357.454 400.349 364.103C399.934 364.519 399.83 364.727 399.414 365.142Z" fill="black"/><path d="M386.01 365.041C384.971 358.184 376.346 355.275 371.047 358.495C371.359 359.015 371.982 360.054 372.294 360.573C373.437 359.846 379.568 357.353 385.075 364.002C385.49 364.521 385.594 364.625 386.01 365.041Z" fill="black"/><path d="M388.815 353.094H370.631V356.523H388.815V353.094Z" fill="#420F0F"/><path d="M415.936 349.766H397.752V353.195H415.936V349.766Z" fill="#420F0F"/><path d="M424.457 368.983H420.196V352.567C419.677 340.931 410.117 331.58 398.479 331.58H394.842V324.723H391.621V331.58H387.984C376.346 331.58 366.787 340.827 366.267 352.567V368.983H362.007V339.892C362.007 326.697 372.71 315.996 385.906 315.996H400.765C413.962 315.996 424.665 326.697 424.665 339.892V368.983H424.457Z" fill="#420F0F"/><path d="M296.439 903.844C294.361 934.805 318.468 961.195 349.434 961.922L387.984 962.857L389.543 622.702C391.621 622.182 392.764 621.975 392.764 621.975C392.764 621.975 393.699 622.182 395.362 622.598L440.771 959.324L478.906 953.506C509.559 948.831 530.029 919.428 523.899 889.091L466.54 585.819L466.332 584.78C458.851 545.923 445.55 531.273 445.55 531.273H339.25C339.25 531.273 323.04 558.806 316.494 615.117L296.439 903.844Z" fill="#D8CBC5"/><path d="M386.01 365.041C386.01 365.041 384.035 360.78 380.191 359.429C376.346 358.079 372.189 360.261 372.189 360.261C372.189 360.261 373.748 363.794 377.593 365.041C381.334 366.391 386.01 365.041 386.01 365.041Z" fill="white"/><path d="M384.97 979.375L375.307 991.946C371.358 997.141 363.565 997.141 359.512 992.05L349.433 979.375L347.043 1003.58L351.095 1020H383.931L387.984 1003.58L384.97 979.375Z" fill="#463EC5"/><path d="M385.074 363.377C384.243 362.13 382.788 360.468 380.814 359.637C379.463 360.052 378.528 361.299 378.528 362.754C378.528 363.896 379.152 364.935 380.087 365.559C381.437 365.663 382.684 365.663 383.723 365.455C384.346 365.039 384.866 364.312 385.074 363.377Z" fill="black"/><path d="M399.414 365.142C399.414 365.142 401.388 360.882 405.233 359.531C409.078 358.18 413.234 360.362 413.234 360.362C413.234 360.362 411.675 363.895 407.831 365.142C404.09 366.493 399.414 365.142 399.414 365.142Z" fill="white"/><path d="M412.298 361.92C412.298 360.985 411.779 360.154 411.156 359.634C410.117 359.322 408.87 359.115 407.519 359.218C406.48 359.738 405.753 360.881 405.753 362.128C405.753 363.582 406.688 364.725 407.935 365.244C410.013 364.413 411.467 362.959 412.298 361.92Z" fill="black"/></svg>