<svg viewBox="0 0 1600 1200" fill="none" xmlns="http://www.w3.org/2000/svg"><path fill-rule="evenodd" clip-rule="evenodd" d="M1072.56 331.179L1068.32 304.577C1067.97 301.878 1069.85 299.398 1072.54 298.999C1075.3 298.592 1077.86 300.53 1078.22 303.301L1081.06 320.959L1074.11 332.865" fill="#FFA28F"/><path fill-rule="evenodd" clip-rule="evenodd" d="M1097.02 332.415L1104.11 314.588L1094.79 310.453L1079.5 314.456L1073.43 318.568L1071.64 331.196L1023.43 391.4L997.586 426.274C997.586 426.274 989.428 432.639 1014.15 440.996C1026.43 445.15 1038.3 446.674 1038.3 446.674L1097.02 332.415Z" fill="#FFC4B8"/><path fill-rule="evenodd" clip-rule="evenodd" d="M1063.51 326.271L1107.03 267.361C1107.95 266.116 1109.71 265.856 1110.95 266.78L1112.66 268.049C1113.91 268.974 1114.16 270.732 1113.24 271.977L1069.72 330.887" fill="#232144"/><path fill-rule="evenodd" clip-rule="evenodd" d="M1103.92 315.089L1108.36 290.392L1108.32 290.372L1110 281.757C1110.42 279.364 1108.83 277.08 1106.43 276.657C1103.4 276.119 1100.5 278.145 1099.96 281.183L1098.46 289.66L1098.11 290.913L1093.52 284.915C1091.96 283.053 1089.19 282.81 1087.32 284.372C1084.96 286.354 1084.65 289.877 1086.64 292.241L1091.21 297.696L1091.14 299.023L1085.58 292.34C1084.02 290.472 1081.25 290.218 1079.38 291.774C1077.01 293.748 1076.69 297.27 1078.66 299.64L1090.34 313.675L1090.27 314.951L1082.19 305.144C1080.62 303.288 1077.84 303.058 1075.99 304.629C1073.64 306.623 1073.34 310.147 1075.34 312.502L1089.19 328.868L1089.72 328.599L1103.92 315.089Z" fill="#FFC4B8"/><path fill-rule="evenodd" clip-rule="evenodd" d="M1041.04 436.932C1041.04 447.306 1032.64 455.716 1022.27 455.716C1011.9 455.716 1003.49 447.306 1003.49 436.932C1003.49 426.558 1011.9 418.148 1022.27 418.148C1032.64 418.148 1041.04 426.558 1041.04 436.932Z" fill="#FFC4B8"/><path fill-rule="evenodd" clip-rule="evenodd" d="M529.536 930.38L519.304 924.764L735.677 530.141L745.909 535.757L529.536 930.38Z" fill="#232144"/><path fill-rule="evenodd" clip-rule="evenodd" d="M523.935 927.308L508.977 919.098L631.281 696.039L646.239 704.249L523.935 927.308Z" fill="#232144"/><path fill-rule="evenodd" clip-rule="evenodd" d="M514.874 922.335L499.916 914.126L622.22 691.066L637.178 699.276L514.874 922.335Z" fill="#D8CBC5"/><path fill-rule="evenodd" clip-rule="evenodd" d="M503.743 916.281L444.952 884.016C437.537 879.946 434.822 870.632 438.891 863.213L547.706 664.754C551.088 658.586 558.827 656.329 564.991 659.713L626.047 693.222L503.743 916.281Z" fill="#232144"/><path fill-rule="evenodd" clip-rule="evenodd" d="M641.479 701.755L603.619 680.976C599.301 678.607 597.722 673.185 600.09 668.867L657.043 564.994C659.012 561.404 663.517 560.09 667.105 562.06L706.285 583.562L641.479 701.755Z" fill="#D8CBC5"/><path fill-rule="evenodd" clip-rule="evenodd" d="M527.52 938.996C527.52 950.118 518.509 959.134 507.392 959.134C496.276 959.134 487.264 950.118 487.264 938.996C487.264 927.875 496.276 918.859 507.392 918.859C518.509 918.859 527.52 927.875 527.52 938.996Z" fill="#232144"/><path fill-rule="evenodd" clip-rule="evenodd" d="M793.584 398.18L786.847 406.853L714.137 501.143L735.249 493.736L745.096 501.143L802.252 449.07L820.985 428.301L793.584 398.18Z" fill="#FFC2B2"/><path fill-rule="evenodd" clip-rule="evenodd" d="M748.854 497.771L739.604 522.425L712.575 502.942L729.293 483.879L748.854 497.771Z" fill="#FFC2B2"/><path fill-rule="evenodd" clip-rule="evenodd" d="M737.549 535.833C734.779 535.871 732.503 533.654 732.466 530.883L732.062 500.772L742.094 500.637L742.497 530.748C742.535 533.519 740.319 535.796 737.549 535.833Z" fill="#FFC2B2"/><path fill-rule="evenodd" clip-rule="evenodd" d="M712.575 502.945L722.476 504.567L717.439 535.348L707.537 533.726L712.575 502.945Z" fill="#FFC2B2"/><path fill-rule="evenodd" clip-rule="evenodd" d="M717.577 503.102L727.553 504.173L724.223 535.186L714.247 534.114L717.577 503.102Z" fill="#FFC2B2"/><path fill-rule="evenodd" clip-rule="evenodd" d="M729.624 525.079C729.624 525.079 730.044 520.463 729.984 518.984C729.858 515.913 726.49 516.064 726.081 518.621C725.818 520.26 725.264 525.712 724.626 529.701C722.442 520.821 716.557 507.27 716.557 507.27L735.896 512.194L729.624 525.079Z" fill="#FFC2B2"/><path fill-rule="evenodd" clip-rule="evenodd" d="M685.332 572.479L735.962 528.106C738.031 526.344 738.279 523.236 736.517 521.167C734.756 519.099 731.65 518.85 729.582 520.612L672.646 568.417" fill="#D8CBC5"/><path fill-rule="evenodd" clip-rule="evenodd" d="M735.272 541.962L735.119 542.251C733.736 544.858 730.504 545.85 727.898 544.467L707.862 533.835L713.022 524.105L733.057 534.737C735.663 536.12 736.654 539.354 735.272 541.962Z" fill="#FFC2B2"/><path fill-rule="evenodd" clip-rule="evenodd" d="M733.959 536.858C732.311 539.087 729.17 539.557 726.943 537.908L709.143 524.734L715.109 516.664L732.909 529.839C735.137 531.487 735.607 534.63 733.959 536.858Z" fill="#FFC2B2"/><path fill-rule="evenodd" clip-rule="evenodd" d="M1141.51 967.658C1092.07 977.105 1080.5 921.25 1080.5 921.25L1029.78 936.399L1044.72 974.223L1057.2 1017L1070.37 1012.91L1065.52 996.517C1065.53 996.496 1065.53 996.478 1065.53 996.456C1065.5 996.377 1065.46 996.305 1065.43 996.223C1064.77 994.125 1065.93 991.884 1068.02 991.216C1070.12 990.55 1072.36 991.71 1073.03 993.808C1073.06 993.909 1073.07 994.011 1073.09 994.113L1078.4 1010.33L1164 983.141C1164 983.141 1163.87 963.387 1141.51 967.658Z" fill="#232144"/><path fill-rule="evenodd" clip-rule="evenodd" d="M1059.31 880.633L1073.71 923.277L1029.78 936.395L1009.58 898.401L1059.31 880.633Z" fill="#FFC4B8"/><path fill-rule="evenodd" clip-rule="evenodd" d="M603.636 870.988L595.009 892.311L635.096 917.693L655.901 889.772L603.636 870.988Z" fill="#FFC2B2"/><path fill-rule="evenodd" clip-rule="evenodd" d="M647.425 992.93C607.238 962.603 640.858 916.536 640.858 916.536L595.589 889.09L577.594 925.559L554.27 963.525L566.145 970.545L575.037 955.95C575.056 955.937 575.072 955.928 575.09 955.917C575.129 955.84 575.152 955.76 575.195 955.685C576.303 953.782 578.742 953.138 580.643 954.246C582.545 955.353 583.189 957.794 582.083 959.697C582.029 959.788 581.959 959.862 581.9 959.947L573.449 974.764L651.05 1020C651.05 1020 665.595 1006.64 647.425 992.93Z" fill="#232144"/><path fill-rule="evenodd" clip-rule="evenodd" d="M961.364 331.046L912.472 308.875L923.569 284.379L972.462 306.551L961.364 331.046Z" fill="#232144"/><path fill-rule="evenodd" clip-rule="evenodd" d="M927.896 326.433L914.588 315.447C906.418 311.443 903.039 301.57 907.042 293.395L926.355 257.43L970.966 279.291L949.939 318.883C945.936 327.057 937.78 326.813 929.61 322.809" fill="#FFC4B8"/><path fill-rule="evenodd" clip-rule="evenodd" d="M955.193 199.242L1020.11 231.059C1020.11 231.059 996.734 278.811 991.38 289.746C988.191 296.259 980.328 298.953 973.818 295.762C955.102 286.59 920.684 269.722 920.684 269.722L938.955 232.403L955.193 199.242Z" fill="#FFC4B8"/><path fill-rule="evenodd" clip-rule="evenodd" d="M994.854 269.489L1008.4 254.008C1008.4 254.008 1008.02 264.195 1007.79 270.565C1007.75 271.672 1007.16 272.685 1006.21 273.259C1005.26 273.833 1004.09 273.892 1003.09 273.415C999.421 271.666 994.854 269.489 994.854 269.489Z" fill="#FFC4B8"/><path fill-rule="evenodd" clip-rule="evenodd" d="M1008.98 246.689C1008.96 247.33 1008.66 247.931 1008.16 248.337C1007.67 248.742 1007.02 248.916 1006.38 248.812C1001.77 248.056 992.368 246.516 992.368 246.516L1001.61 243.253C1006.14 242.443 1009.1 243.82 1008.98 246.689Z" fill="#420F0F"/><path fill-rule="evenodd" clip-rule="evenodd" d="M1002.91 255.012C1002.91 255.012 1003.16 258.937 999.29 261.56C999.29 261.56 993.009 260.051 992.256 251.191C992.256 251.191 998.918 252.319 1002.91 255.012Z" fill="white"/><path d="M1002.91 255.012C1002.91 255.012 1003.16 258.938 999.289 261.561C999.289 261.561 998.382 261.343 997.216 260.586C996.816 259.488 996.898 258.074 997.546 256.752C998.341 255.127 999.766 254.093 1001.14 253.988C1001.76 254.301 1002.36 254.642 1002.91 255.012Z" fill="#1D1D1B"/><path fill-rule="evenodd" clip-rule="evenodd" d="M1003.87 255.605L1004.37 254.578C1004.37 254.578 999.043 249.832 991.655 249.297L992.264 252.031C992.264 252.031 997.733 252.351 1003.87 255.605Z" fill="#1D1D1B"/><path fill-rule="evenodd" clip-rule="evenodd" d="M1022.25 229.361C1026.44 221.074 1023.12 210.959 1014.84 206.767L967.806 182.966C952.065 174.999 933.012 183.785 928.84 200.933L999.668 236.776C1007.95 240.967 1018.06 237.648 1022.25 229.361Z" fill="#420F0F"/><path fill-rule="evenodd" clip-rule="evenodd" d="M990.608 224.745L928.839 200.934L925.085 259.797L926.193 259.756C947.967 264.519 966.829 254.864 982.775 234.667L990.608 224.745Z" fill="#420F0F"/><path fill-rule="evenodd" clip-rule="evenodd" d="M972.267 250.65C974.7 245.838 972.773 239.964 967.963 237.53C963.154 235.096 957.283 237.023 954.851 241.836C952.418 246.647 954.345 252.521 959.154 254.956C963.964 257.389 969.835 255.461 972.267 250.65Z" fill="#FFC4B8"/><path fill-rule="evenodd" clip-rule="evenodd" d="M928.84 225.083C928.84 225.083 906.415 220.48 895.59 221.919C884.765 223.358 875.969 232.027 868.189 245.799C860.409 259.572 854.319 263.632 846.201 261.263C838.082 258.895 820.829 251.25 820.829 251.25C820.829 251.25 807.297 245.612 797.149 261.898C787 278.186 788.692 274.409 788.692 274.409C788.692 274.409 847.554 297.084 874.955 286.958C902.356 276.832 904.047 249.418 908.445 243.665C912.843 237.91 928.066 228.772 928.066 228.772L928.84 225.083Z" fill="#420F0F"/><path fill-rule="evenodd" clip-rule="evenodd" d="M963.776 409.993L950.78 317.945L1021.26 392.284L1008.49 454.814L963.776 409.993Z" fill="#232144"/><path fill-rule="evenodd" clip-rule="evenodd" d="M960.36 328.625L976.453 348.091L986.469 427.496L948.173 543.651L922.979 509.867L953.594 360.951L960.36 328.625Z" fill="#232144"/><path fill-rule="evenodd" clip-rule="evenodd" d="M943.106 315.09L950.211 319.152C950.211 319.152 966.369 355.196 955.172 386.163C943.973 417.131 928.839 500.389 928.839 500.389L874.604 473.99L943.106 315.09Z" fill="#E6E3DA"/><path fill-rule="evenodd" clip-rule="evenodd" d="M828.427 457.241L798.489 550.651L851.769 625.787L877.648 669.446C877.648 669.446 894.901 691.783 885.26 736.966C875.618 782.148 894.901 843.575 952.747 921.249L1061.34 881.143L1027.85 706.505C1027.85 706.505 1025.82 660.308 996.894 623.248L928.839 512.069V500.393L828.934 451.656L828.427 457.241Z" fill="#E73245"/><path fill-rule="evenodd" clip-rule="evenodd" d="M807.115 538.977C807.115 538.977 779.714 630.864 759.925 659.294C744.173 681.922 720.383 690.078 711.331 692.463C707.008 693.603 702.855 695.319 699.014 697.611C679.499 709.247 630.862 749.119 593.994 870.483L689.899 912.112L824.368 762.858C824.368 762.858 853.268 724.275 860.384 698.891L876.633 663.355L807.115 538.977Z" fill="#891229"/><path fill-rule="evenodd" clip-rule="evenodd" d="M796.605 602.442L747.712 580.271L832.984 400.375L881.877 422.546L796.605 602.442Z" fill="#232144"/><path fill-rule="evenodd" clip-rule="evenodd" d="M814.195 609.995L765.303 587.824L906.571 276.004L955.463 298.174L814.195 609.995Z" fill="#232144"/><path fill-rule="evenodd" clip-rule="evenodd" d="M912.539 335.017C902.78 345.846 886.095 346.709 875.273 336.946C864.449 327.183 863.586 310.491 873.344 299.663C883.102 288.835 899.788 287.971 910.611 297.734C921.433 307.497 922.297 324.189 912.539 335.017Z" fill="#232144"/><path fill-rule="evenodd" clip-rule="evenodd" d="M874.023 298.906L913.218 334.261L823.855 433.421L784.66 398.067L874.023 298.906Z" fill="#232144"/><path fill-rule="evenodd" clip-rule="evenodd" d="M996.888 278.494C996.602 278.169 995.405 276.897 993.325 275.862C991.45 274.929 986.424 273.023 986.424 273.023C986.424 273.023 988.07 282.324 993.611 285.082H993.612L996.888 278.494Z" fill="#E73245"/></svg>