<svg viewBox="0 0 1600 1200" fill="none" xmlns="http://www.w3.org/2000/svg"><path d="M1435 959.609H165V1020H1435V959.609Z" fill="#FAC96E"/><path d="M1176.17 418.108C1239.24 418.108 1290.37 366.963 1290.37 303.872C1290.37 240.78 1239.24 189.635 1176.17 189.635C1113.1 189.635 1061.97 240.78 1061.97 303.872C1061.97 366.963 1113.1 418.108 1176.17 418.108Z" fill="#FAC96E"/><path d="M895.793 667.422L924.759 832.659L975.092 820.434L919.986 665.932L895.793 667.422Z" fill="#FFD4A9"/><path d="M949.073 675.852L933.915 691.014C931.665 693.265 928.011 693.265 925.76 691.014C923.51 688.762 923.51 685.108 925.76 682.856L940.918 667.694C943.168 665.443 946.822 665.443 949.073 667.694C951.323 669.946 951.323 673.6 949.073 675.852Z" fill="#FFBD7A"/><path d="M914.17 709.083C926.152 704.634 933.916 695.335 934.362 684.871L936.112 644.182C936.286 640.092 932.209 636.601 926.99 636.351C921.77 636.111 917.378 639.233 917.193 643.323L914.17 709.083Z" fill="#FFD4A9"/><path d="M914.67 709.078V706.446L929.327 704.945V652.705L935.59 652.727V704.945L950.247 706.446V709.078H914.67Z" fill="#E6E3DA"/><path d="M934.872 653.98H930.099C912.973 653.98 899.088 640.091 899.088 622.96C899.088 619.306 899.729 615.673 901.002 612.236L906.319 597.803H958.652L963.969 612.236C965.23 615.673 965.882 619.295 965.882 622.96C965.882 640.091 951.997 653.98 934.872 653.98Z" fill="#E6E3DA"/><path d="M965.85 622.963C965.85 640.094 951.965 653.983 934.84 653.983H930.066C912.941 653.983 899.056 640.094 899.056 622.963H965.85Z" fill="#F59231"/><path d="M956.705 586.838L954.9 586.229L936.72 639.861L938.525 640.47L956.705 586.838Z" fill="#FB6320"/><path d="M941.755 588.35C941.907 588.557 942.69 589.644 942.69 589.644C944.288 591.863 947.017 592.951 949.703 592.45L950.78 592.244C953.715 591.689 956.673 593.06 958.173 595.637C959.598 598.084 962.338 599.455 965.154 599.107L967.296 598.835C968.47 598.694 969.351 598.791 970.417 599.15C970.406 599.15 970.406 599.14 970.395 599.14C970.243 598.661 965.426 567.695 965.426 567.695C965.426 567.695 939.841 586.066 939.493 586.316C939.493 586.327 940.798 586.816 941.755 588.35Z" fill="#FC6320"/><path d="M965.425 567.707L925.716 584.131C925.716 584.131 925.748 584.131 925.803 584.131C925.814 584.131 925.814 584.131 925.825 584.131C926.629 584.152 931.946 584.294 936.209 585.36C937.35 585.621 938.459 585.947 939.481 586.339C939.851 586.078 965.425 567.707 965.425 567.707Z" fill="#F59231"/><path d="M965.426 567.707C965.426 567.707 970.243 598.673 970.395 599.151C970.406 599.151 970.406 599.162 970.417 599.162C974.777 600.978 981.268 607.581 981.268 607.581L965.426 567.707Z" fill="#F59231"/><path d="M949.703 592.451L965.426 567.707L958.173 595.649C958.173 595.649 955.629 591.146 949.703 592.451Z" fill="#F59231"/><path d="M911.765 686.227L903.197 669.434L932.425 662.353C935.665 661.733 938.775 663.822 939.384 666.997C939.993 670.184 937.861 673.262 934.621 673.882L924.824 678.233L911.765 686.227Z" fill="#FFD4A9"/><path d="M908.516 667.41L906.33 655.087L938.961 649.301C942.364 648.703 945.615 650.965 946.213 654.369C946.811 657.774 944.55 661.026 941.146 661.624L908.516 667.41Z" fill="#FFD4A9"/><path d="M917.648 649.554L918.377 653.165C918.42 653.361 918.605 653.481 918.801 653.448L946.43 647.901C949.757 647.238 951.91 643.996 951.236 640.679C950.573 637.351 947.332 635.197 944.016 635.872L924.107 639.874C919.638 640.766 916.746 645.106 917.648 649.554Z" fill="#FFD4A9"/><path d="M895.793 667.424L901.132 679.356L930.174 674.755L935.209 626.67L916.626 630.868C913.332 631.63 909.95 633.272 908.178 637.416C908.091 637.612 908.254 637.22 908.178 637.416L895.793 667.424Z" fill="#FFD4A9"/><path d="M911.538 639.971L912.288 643.234C912.342 643.484 912.592 643.636 912.842 643.582L938.753 637.611C941.831 636.904 943.744 633.836 943.038 630.758C942.331 627.68 939.264 625.766 936.187 626.473L917.246 630.834C913.147 631.792 910.592 635.881 911.538 639.971Z" fill="#FFD4A9"/><path d="M681.677 664.768L605.694 712.189L679.274 779.766L879.397 917.387L979.279 852.247L681.677 664.768Z" fill="#FFD4A9"/><path fill-rule="evenodd" clip-rule="evenodd" d="M1080.28 616.457C1084.62 616.577 1089.9 616.74 1094.86 616.881C1113.41 602.426 1131.5 588.33 1131.5 588.33L1194.79 669.6L1153.3 701.914L1116.81 730.346L1118.42 732.412L1077.62 764.204C1067.39 772.177 1052.64 770.339 1044.68 760.115L1030.03 741.309C1022.07 731.085 1023.9 716.326 1034.12 708.364L1064.74 684.501C1061.18 679.911 1057.79 675.571 1054.83 671.764C1048.48 663.618 1049.94 651.86 1058.09 645.519C1061.73 642.68 1068.66 637.286 1076.84 630.901C1076.04 628.889 1075.2 626.79 1074.42 624.821C1073.66 622.907 1073.91 620.742 1075.08 619.056C1076.28 617.371 1078.22 616.392 1080.28 616.457Z" fill="#FFD4A9"/><path d="M1112.17 738.785L1080.51 707.776L1113.41 682.14L1115.71 680.356C1119.62 666.891 1126.05 654.024 1134.91 643.42L1139.04 638.482L1110.88 602.306L1133.9 584.49C1143.41 578.345 1156.23 580.281 1163.46 589.319L1199.26 624.168C1212.09 640.222 1208.89 663.074 1193.69 675.288L1112.17 738.785Z" fill="#BF852E"/><path d="M1107.57 612.139C1106.79 612.607 1106.25 613.39 1106.07 614.293C1105.91 615.196 1106.13 616.12 1106.69 616.838C1110.79 622.102 1119.12 632.805 1119.12 632.805L1116.89 619.013C1114.81 612.792 1111.08 610.04 1107.57 612.139Z" fill="#BF852E"/><path d="M1118.82 631.934L1106.8 640.657C1101.9 644.224 1095.02 643.137 1091.47 638.231L1086.74 631.727C1083.17 626.822 1084.26 619.948 1089.16 616.391L1092.3 614.118C1097.2 610.55 1104.07 611.638 1107.63 616.543L1118.82 631.934Z" fill="#232144"/><path d="M1137.64 657.564L1109.69 619.094L1104.46 622.898L1132.4 661.368L1137.64 657.564Z" fill="#232144"/><path d="M1060.89 642.929C1060.64 641.558 1061.13 640.101 1062.31 639.187C1063.99 637.882 1066.53 638.099 1067.73 639.861C1069.47 642.417 1067.72 645.854 1070.27 650.607C1068.6 649.813 1067.19 648.367 1065.72 646.844C1064.24 645.321 1062.72 643.755 1060.89 642.929Z" fill="#F26625"/><path d="M1064.5 648.019C1066.47 650.064 1068.68 652.326 1071.7 652.826C1071.71 652.837 1071.71 652.848 1071.72 652.848C1064.23 653.414 1058.67 652.119 1056.15 648.889C1054.85 647.203 1055.14 644.778 1056.83 643.462C1056.9 643.407 1056.99 643.375 1057.07 643.32C1057.66 643.647 1058.39 643.929 1059.33 644.158C1061.22 644.615 1062.82 646.268 1064.5 648.019Z" fill="#F26625"/><path d="M1072.66 651.25L1072.58 652.935C1072.28 652.924 1071.98 652.87 1071.69 652.826C1071.09 652.054 1070.63 651.326 1070.25 650.619C1071.01 650.978 1071.79 651.217 1072.66 651.25Z" fill="#751D16"/><path d="M1060.9 643.051C1060.89 643.018 1060.9 642.975 1060.89 642.942C1062.72 643.758 1064.24 645.324 1065.72 646.858C1067.19 648.38 1068.6 649.827 1070.27 650.621C1070.65 651.328 1071.11 652.067 1071.71 652.829C1068.69 652.328 1066.47 650.066 1064.51 648.021C1062.83 646.27 1061.23 644.617 1059.35 644.16C1058.41 643.932 1057.69 643.649 1057.09 643.323C1058.24 642.55 1059.7 642.463 1060.9 643.051Z" fill="#751D16"/><path d="M425.295 449.914C425.295 449.914 450.293 459.203 434.559 485.622C399.743 544.04 465.265 584.512 465.265 584.512L639.564 702.207L583.23 775.331L381.53 605.493L333.014 569.905L425.295 449.914Z" fill="#FFD4A9"/><path d="M658.462 738.535C680.843 738.535 698.987 720.386 698.987 697.998C698.987 675.61 680.843 657.461 658.462 657.461C636.081 657.461 617.938 675.61 617.938 697.998C617.938 720.386 636.081 738.535 658.462 738.535Z" fill="#FFD4A9"/><path d="M320.368 814.423C320.368 814.423 335.558 792.496 357.239 814.303C405.191 862.53 460.623 809.061 460.623 809.061L634.389 667.328L699.683 722.516L460.188 895.399L413.694 933.598L320.368 814.423Z" fill="#FFD4A9"/><path d="M488.154 877.232C491.294 877.232 493.84 874.686 493.84 871.544C493.84 868.402 491.294 865.855 488.154 865.855C485.013 865.855 482.467 868.402 482.467 871.544C482.467 874.686 485.013 877.232 488.154 877.232Z" fill="#F26625"/><path d="M493.852 886.26C496.992 886.26 499.539 883.713 499.539 880.571C499.539 877.43 496.992 874.883 493.852 874.883C490.711 874.883 488.165 877.43 488.165 880.571C488.165 883.713 490.711 886.26 493.852 886.26Z" fill="#F26625"/><path d="M453.957 822.775C457.044 822.775 459.546 820.272 459.546 817.184C459.546 814.097 457.044 811.594 453.957 811.594C450.87 811.594 448.368 814.097 448.368 817.184C448.368 820.272 450.87 822.775 453.957 822.775Z" fill="#F26625"/><path d="M460.024 831.812C463.111 831.812 465.613 829.309 465.613 826.221C465.613 823.134 463.111 820.631 460.024 820.631C456.938 820.631 454.436 823.134 454.436 826.221C454.436 829.309 456.938 831.812 460.024 831.812Z" fill="#F26625"/><path d="M465.614 840.925C468.701 840.925 471.203 838.422 471.203 835.335C471.203 832.247 468.701 829.744 465.614 829.744C462.528 829.744 460.025 832.247 460.025 835.335C460.025 838.422 462.528 840.925 465.614 840.925Z" fill="#F26625"/><path d="M471.257 849.744C474.344 849.744 476.846 847.241 476.846 844.153C476.846 841.065 474.344 838.562 471.257 838.562C468.17 838.562 465.668 841.065 465.668 844.153C465.668 847.241 468.17 849.744 471.257 849.744Z" fill="#F26625"/><path d="M477.324 858.517C480.411 858.517 482.913 856.014 482.913 852.927C482.913 849.839 480.411 847.336 477.324 847.336C474.238 847.336 471.735 849.839 471.735 852.927C471.735 856.014 474.238 858.517 477.324 858.517Z" fill="#F26625"/><path d="M482.456 867.976C485.543 867.976 488.045 865.473 488.045 862.386C488.045 859.298 485.543 856.795 482.456 856.795C479.369 856.795 476.867 859.298 476.867 862.386C476.867 865.473 479.369 867.976 482.456 867.976Z" fill="#F26625"/><path d="M1407.65 486.637L1091.72 677.162C925.379 766.47 725.735 763.304 562.211 668.765L264.696 496.741V518.668L716.003 884.067C790.92 943.007 882.897 948.576 956.02 891.746L1409.64 499.308L1407.65 486.637Z" fill="#463EC5"/><path d="M269.688 454.244H243.342V982.857H269.688V454.244Z" fill="#232144"/><path d="M1411.59 454.244H1385.24V982.857H1411.59V454.244Z" fill="#232144"/><path d="M361.851 438.305L392.22 462.897L358.796 449.312L361.851 438.305Z" fill="#F26625"/><path d="M398.396 337.983L322.207 197.033L312.856 351.557H312.867L263.089 350.665L325.045 413.727L392.709 363.586C400.701 357.648 403.126 346.749 398.396 337.983Z" fill="#D8CBC5"/><path d="M347.531 243.944L316.227 277.379L321.5 192.727L347.531 243.944Z" fill="#232144"/><path d="M265.411 455.888L265.411 389.062L259.779 389.062L259.779 455.888L265.411 455.888Z" fill="#F26625"/><path d="M368.298 432.1L396.101 459.563L362.677 446.62L368.298 432.1Z" fill="#F26625"/><path d="M293.686 443.628L362.851 454.015C375.062 455.853 381.738 440.267 372.006 432.686L168.426 274.127L227.174 394.781C239.95 421.026 264.828 439.288 293.686 443.628Z" fill="#E6E3DA"/><path d="M193.282 292.727L166.403 271.594L188.454 316.438L193.282 292.727Z" fill="#232144"/><path d="M360.894 441.298C363.668 441.298 365.917 439.048 365.917 436.273C365.917 433.498 363.668 431.248 360.894 431.248C358.119 431.248 355.87 433.498 355.87 436.273C355.87 439.048 358.119 441.298 360.894 441.298Z" fill="#232144"/><path d="M372.288 321.72L291.826 183.207L287.292 337.948L237.503 338.601L301.405 399.695L367.395 347.465C375.202 341.287 377.29 330.324 372.288 321.72Z" fill="#E6E3DA"/><path d="M319.042 229.837L289.456 263.967L290.946 180L319.042 229.837Z" fill="#232144"/><path d="M256.452 455.888L256.452 389.062L250.82 389.062L250.82 455.888L256.452 455.888Z" fill="#F26625"/></svg>