<svg viewBox="0 0 1600 1200" fill="none" xmlns="http://www.w3.org/2000/svg"><path d="M698.972 826.422H591.581V974.574H698.972V826.422Z" fill="#F47B45"/><path d="M1274.04 826.422H1166.65V974.574H1274.04V826.422Z" fill="#F47B45"/><path d="M1166.65 402.965H698.972V728.067H1166.65V402.965Z" fill="#FABFA7"/><path d="M1324 868.838V578.668H1165.2V726.196H699.595V578.668H540.793V868.838H1324Z" fill="#F9AB88"/><path d="M871.794 407.536L843.96 540.509L784.137 532.815L796.288 402.441L871.794 407.536Z" fill="#693725"/><path d="M837.936 559.325L833.263 366.155C833.263 366.155 913.339 342.035 939.407 342.035C963.191 342.035 1059.57 368.027 1059.57 368.027L1040.88 559.221H837.936V559.325Z" fill="#BAC09A"/><path d="M782.683 421.993C782.683 421.993 805.636 365.539 838.04 365.539C860.266 365.539 879.48 380.51 881.142 402.655C882.803 424.8 841.26 468.466 841.26 468.466L782.683 421.993Z" fill="#BAC09A"/><path d="M1044.62 432.18H837.937V641.048H1044.62V432.18Z" fill="#BAC09A"/><path d="M1077.33 438.205L1033.5 503.912L999.23 451.097L1017.93 414.812L1077.33 438.205Z" fill="#693725"/><path d="M1061.65 466.799C1061.65 466.799 1101.22 420.43 1086.27 391.632C1076.09 371.878 1053.97 361.689 1033.51 370.423C1013.04 379.156 999.854 439.04 999.854 439.04L1061.65 466.799Z" fill="#BAC09A"/><path d="M988.949 242.751C991.65 241.192 993.208 238.073 992.688 234.85C992.273 232.354 990.819 230.275 988.742 229.131C990.092 227.468 990.819 225.285 990.403 222.997C989.988 220.502 988.534 218.423 986.457 217.279C986.976 216.032 987.184 214.68 986.976 213.225C986.457 209.794 983.756 207.195 980.433 206.675C980.537 206.051 980.537 205.427 980.433 204.699C979.81 200.437 975.863 197.526 971.605 198.149H971.501C971.501 197.838 971.501 197.422 971.397 197.11C970.774 192.847 966.827 189.936 962.569 190.56C962.153 190.664 961.842 190.664 961.426 190.872C960.388 187.129 956.753 184.634 952.806 185.258C952.183 185.362 951.456 185.57 950.937 185.777C949.379 182.97 946.263 181.411 942.939 181.827C942.212 181.931 941.485 182.139 940.862 182.451C939.2 180.683 936.708 179.747 934.111 180.059C932.242 180.371 930.684 181.203 929.541 182.451C927.88 180.995 925.595 180.163 923.206 180.579C921.129 180.891 919.467 181.931 918.221 183.49C916.663 182.451 914.69 181.827 912.612 182.139C910.224 182.451 908.25 183.906 907.108 185.777C905.654 184.946 903.888 184.53 902.019 184.738C899.422 185.154 897.345 186.817 896.202 189C895.475 188.896 894.748 188.896 894.021 189C890.698 189.52 888.205 192.015 887.582 195.03C886.959 194.926 886.232 194.926 885.609 195.03C881.662 195.654 878.858 199.085 878.962 202.932C878.546 202.932 878.235 202.932 877.819 203.036C873.561 203.66 870.653 207.61 871.276 211.873C871.38 212.185 871.38 212.601 871.484 212.913H871.38C867.122 213.536 864.214 217.487 864.837 221.75C864.941 222.374 865.148 222.997 865.356 223.621C862.344 225.077 860.475 228.3 860.994 231.835C861.202 233.29 861.825 234.538 862.656 235.577C860.994 237.241 860.163 239.632 860.475 242.231C860.786 244.518 862.136 246.39 863.902 247.533C862.24 249.197 861.409 251.588 861.721 254.187C862.24 257.41 864.629 259.905 867.641 260.633C866.914 262.089 866.602 263.752 866.81 265.416C867.329 269.262 870.653 271.966 874.392 272.069C874.288 272.901 874.184 273.733 874.392 274.565C875.015 278.515 878.339 281.322 882.285 281.219C894.333 297.541 914.689 306.898 936.188 303.675C957.687 300.452 974.409 285.585 981.16 266.455C984.899 265.416 987.391 261.777 986.872 257.722C986.768 256.89 986.457 256.059 986.145 255.331C989.676 254.187 991.961 250.548 991.442 246.806C990.923 245.35 990.092 243.895 988.949 242.751Z" fill="#191C15"/><path d="M891.009 308.869C898.351 308.869 904.303 302.911 904.303 295.562C904.303 288.212 898.351 282.254 891.009 282.254C883.667 282.254 877.715 288.212 877.715 295.562C877.715 302.911 883.667 308.869 891.009 308.869Z" fill="#693725"/><path d="M977.628 295.873C984.97 295.873 990.922 289.915 990.922 282.565C990.922 275.216 984.97 269.258 977.628 269.258C970.286 269.258 964.334 275.216 964.334 282.565C964.334 289.915 970.286 295.873 977.628 295.873Z" fill="#693725"/><path d="M972.643 363.876V312.517L906.899 312.309V363.876C906.899 377.288 917.701 388.1 931.099 388.1H948.443C961.841 387.996 972.643 377.184 972.643 363.876Z" fill="#5D2B1A"/><path d="M980.847 303.051L972.123 244.518C969.215 224.764 950.728 211.041 930.994 213.952L915.623 216.239C895.89 219.15 882.18 237.656 885.088 257.41L893.813 315.943C896.721 335.697 915.208 349.42 934.941 346.509L950.312 344.222C970.15 341.311 983.755 322.805 980.847 303.051Z" fill="#693725"/><path d="M936.499 303.881C934.422 304.193 932.76 303.465 931.202 302.738C928.709 301.594 927.152 300.97 924.763 304.193L922.686 302.634C926.321 297.748 929.644 299.203 932.241 300.347C933.591 300.97 934.837 301.49 936.187 301.282C937.538 301.074 938.472 300.243 939.511 299.411C941.588 297.644 944.185 295.461 949.585 298.683L948.235 300.866C944.496 298.579 943.146 299.723 941.173 301.386C939.926 302.426 938.576 303.569 936.499 303.881Z" fill="#1D1D1B"/><path d="M935.46 320.722C931.825 320.722 929.125 320.099 928.917 319.995L929.748 316.46C929.852 316.46 939.615 318.747 946.573 313.965L948.65 316.98C944.392 319.995 939.407 320.722 935.46 320.722Z" fill="black"/><path d="M961.321 344.849L924.763 350.255C919.777 350.983 915 347.552 914.273 342.457L913.546 337.883L968.28 329.773L969.007 334.348C969.838 339.442 966.411 344.121 961.321 344.849Z" fill="#191C15"/><path d="M942.289 322.154L936.433 323.027L938.528 337.115L944.384 336.242L942.289 322.154Z" fill="#191C15"/><path d="M971.395 255.746L942.834 260.008C938.991 260.528 936.394 264.167 936.914 267.91L937.225 270.197L927.774 271.653L927.462 269.365C926.943 265.519 923.308 262.919 919.569 263.439L891.007 267.702C887.165 268.222 884.568 271.861 885.088 275.603L886.542 285.688C887.061 289.535 890.696 292.134 894.435 291.614L922.996 287.352C926.839 286.832 929.436 283.193 928.916 279.45L928.605 277.163L938.056 275.707L938.368 277.995C938.887 281.841 942.522 284.44 946.261 283.921L974.822 279.658C978.665 279.138 981.262 275.499 980.742 271.757L979.288 261.672C978.769 257.825 975.134 255.226 971.395 255.746Z" fill="black"/><path d="M842.61 344.532C836.69 339.75 836.69 329.769 842.714 322.284C848.737 314.798 858.396 312.511 864.42 317.293L862.447 319.788C857.877 316.15 850.088 318.125 845.206 324.259C840.325 330.393 840.013 338.398 844.583 342.141L842.61 344.532Z" fill="#232144"/><path d="M825.473 349.007C821.11 338.61 823.915 324.887 832.535 314.074C841.052 303.366 853.723 297.647 864.836 299.415L864.316 302.534C854.346 300.87 842.817 306.173 835.028 316.049C827.134 325.926 824.538 338.402 828.381 347.863L825.473 349.007Z" fill="#232144"/><path d="M810.309 350.143C807.609 335.899 812.283 319.577 822.876 306.269C833.574 292.857 848.634 284.748 863.174 284.332L863.278 287.451C849.672 287.763 835.547 295.56 825.369 308.244C815.399 320.824 810.933 336.211 813.425 349.519L810.309 350.143Z" fill="#232144"/><path d="M845.726 425.316L886.646 432.178C888.412 432.49 890.074 431.242 890.385 429.475L904.51 344.742C904.822 342.975 903.576 341.311 901.81 340.999L860.889 334.138C859.124 333.826 857.462 335.073 857.15 336.841L843.025 421.573C842.714 423.341 843.96 425.004 845.726 425.316Z" fill="#232144"/><path d="M864.628 347.025C866.004 347.025 867.12 345.908 867.12 344.53C867.12 343.152 866.004 342.035 864.628 342.035C863.251 342.035 862.135 343.152 862.135 344.53C862.135 345.908 863.251 347.025 864.628 347.025Z" fill="#E6E3DA"/><path d="M907.523 371.356C908.146 367.613 905.549 363.871 901.914 362.935L901.499 362.831L898.902 371.876L860.267 362.727L859.124 362.415L855.177 361.479C850.919 360.544 846.765 363.143 845.83 367.405C845.311 369.797 845.934 372.292 847.388 374.059C844.688 374.787 842.507 376.97 841.883 379.881C841.156 383.104 842.61 386.327 845.207 388.095C843.337 389.134 841.883 390.902 841.364 393.189C840.741 395.996 841.676 398.699 843.545 400.571C843.13 401.298 842.818 402.026 842.61 402.858C841.676 406.913 844.168 411.071 848.219 412.111L848.115 412.423L888.62 420.116L985.418 509.943C998.919 522.523 1020.21 520.86 1031.74 506.408C1043.06 492.061 1039.94 471.164 1024.88 460.767L906.277 378.738L907.523 371.356Z" fill="#693725"/><path d="M777.802 614.114C777.386 611.411 777.179 608.604 777.179 605.797C777.179 577.726 799.924 554.957 827.966 554.957C855.489 554.957 877.923 576.79 878.754 604.133L921.855 934.226L839.598 943.375L777.802 614.114Z" fill="#01464D"/><path d="M950.002 927.888L1033.3 937.453L1094.89 606.32H1094.78C1095.09 604.137 1095.3 601.849 1095.3 599.562C1095.3 571.491 1072.56 548.723 1044.51 548.723C1018.34 548.723 996.739 568.58 994.038 593.948L950.002 927.888Z" fill="#01464D"/><path d="M921.751 934.23L929.956 990.684L862.135 996.402L851.957 942.028L921.751 934.23Z" fill="#693725"/><path d="M951.767 927.887L949.689 940.363L1019.69 949.408L1021.66 936.204L951.767 927.887Z" fill="#693725"/><path d="M940.86 1002.74L1078.89 1020L1082.11 1002.32C1082.11 1002.32 1084.6 990.991 1075.36 987.456C1066.22 983.921 1021.04 970.51 1021.04 970.51L1024.26 949.716L949.792 940.359L940.86 1002.74Z" fill="#E6E3DA"/><path d="M1018.55 640.527H861.824V725.78H1018.55V640.527Z" fill="#01464D"/><path d="M929.955 990.681L924.347 949.719L854.449 958.868L856.319 972.072C840.117 982.364 838.247 998.375 838.247 998.375L841.467 1019.17L931.825 1009.29L929.955 990.681Z" fill="#E6E3DA"/><path d="M1018.03 623.059C1021.77 621.811 1023.85 617.756 1022.6 614.014L1012.84 583.863L999.23 588.334L1008.99 618.484C1010.24 622.227 1014.29 624.306 1018.03 623.059Z" fill="#693725"/><path d="M980.432 592.805C980.432 592.805 976.174 587.711 975.032 585.943C972.643 582.2 976.693 579.601 979.29 582.304C980.952 583.968 986.041 589.894 990.091 594.053C985.314 581.888 981.159 561.199 981.159 561.199L962.568 582.824L980.432 592.805Z" fill="#693725"/><path d="M976.195 557.223L965.556 566.836L995.408 599.944L1006.05 590.331L976.195 557.223Z" fill="#693725"/><path d="M981.575 552.57L971.085 562.759L1002.76 594.157L1012.84 583.968L981.575 552.57Z" fill="#693725"/><path d="M1010.65 621.602C1014.19 619.835 1015.64 615.572 1013.87 611.934L999.75 583.551L986.871 589.997L1001 618.379C1002.87 621.914 1007.12 623.37 1010.65 621.602Z" fill="#693725"/><path d="M989.26 617.858C992.479 615.571 993.31 611.1 991.025 607.877L966.203 572.633L954.467 580.95L979.289 616.195C981.574 619.418 986.04 620.145 989.26 617.858Z" fill="#693725"/><path d="M944.496 546.436L786.837 503.914L783.41 538.951C781.956 553.61 792.653 566.71 807.297 568.269L935.045 581.577L944.496 546.436Z" fill="#693725"/><path d="M931.41 581.16L966.93 598.106L981.574 552.569L940.238 545.188L931.41 581.16Z" fill="#693725"/><path d="M984.275 298.266C983.237 298.474 982.094 297.747 981.886 296.707L980.952 292.341C980.744 291.301 981.471 290.158 982.51 289.95C983.548 289.742 984.691 290.469 984.899 291.509L985.833 295.875C986.041 297.019 985.418 298.059 984.275 298.266Z" fill="#F47B45"/><path d="M390.509 951.285L397.571 969.687C398.506 972.078 397.052 974.678 394.559 975.197C393.105 975.509 391.547 974.989 390.613 973.742L378.149 958.667L390.509 951.285Z" fill="#FAAD70"/><path d="M412.319 916.04V911.986C426.029 911.986 437.765 902.629 440.881 889.217L517.114 555.589C520.437 540.514 533.939 529.598 549.414 529.598H562.397V533.652H549.414C535.913 533.652 524.073 543.217 521.164 556.421L444.827 890.153C441.4 905.436 428.002 916.04 412.319 916.04Z" fill="#FFE798"/><path d="M302.124 951.91L310.018 968.649C310.953 970.728 310.122 973.119 308.044 974.159H307.941C306.175 974.991 304.098 974.471 302.955 972.911L292.569 959.292L302.124 951.91Z" fill="#FAAD70"/><path d="M668.749 553.72C684.007 553.72 696.376 541.339 696.376 526.065C696.376 510.792 684.007 498.41 668.749 498.41C653.491 498.41 641.122 510.792 641.122 526.065C641.122 541.339 653.491 553.72 668.749 553.72Z" fill="#FFD77B"/><path d="M668.437 545.508C680.368 545.508 690.04 535.826 690.04 523.883C690.04 511.94 680.368 502.258 668.437 502.258C656.506 502.258 646.834 511.94 646.834 523.883C646.834 535.826 656.506 545.508 668.437 545.508Z" fill="#FFE798"/><path d="M668.437 540.929C677.844 540.929 685.47 533.295 685.47 523.879C685.47 514.462 677.844 506.828 668.437 506.828C659.03 506.828 651.404 514.462 651.404 523.879C651.404 533.295 659.03 540.929 668.437 540.929Z" fill="#FFD77B"/><path d="M668.438 536.149C675.207 536.149 680.694 530.657 680.694 523.881C680.694 517.106 675.207 511.613 668.438 511.613C661.67 511.613 656.183 517.106 656.183 523.881C656.183 530.657 661.67 536.149 668.438 536.149Z" fill="#FFE798"/><path d="M671.865 525.651C675.307 525.651 678.097 522.858 678.097 519.413C678.097 515.968 675.307 513.176 671.865 513.176C668.424 513.176 665.634 515.968 665.634 519.413C665.634 522.858 668.424 525.651 671.865 525.651Z" fill="#E73245"/><path d="M585.973 571.185C601.231 571.185 613.6 558.803 613.6 543.53C613.6 528.257 601.231 515.875 585.973 515.875C570.716 515.875 558.347 528.257 558.347 543.53C558.347 558.803 570.716 571.185 585.973 571.185Z" fill="#FFD77B"/><path d="M585.558 562.867C597.489 562.867 607.161 553.185 607.161 541.242C607.161 529.299 597.489 519.617 585.558 519.617C573.627 519.617 563.955 529.299 563.955 541.242C563.955 553.185 573.627 562.867 585.558 562.867Z" fill="#FFE798"/><path d="M585.557 558.296C594.964 558.296 602.59 550.662 602.59 541.246C602.59 531.829 594.964 524.195 585.557 524.195C576.15 524.195 568.524 531.829 568.524 541.246C568.524 550.662 576.15 558.296 585.557 558.296Z" fill="#FFD77B"/><path d="M585.557 553.509C592.326 553.509 597.813 548.016 597.813 541.241C597.813 534.465 592.326 528.973 585.557 528.973C578.789 528.973 573.302 534.465 573.302 541.241C573.302 548.016 578.789 553.509 585.557 553.509Z" fill="#FFE798"/><path d="M623.363 552.369C638.621 552.369 650.99 539.987 650.99 524.714C650.99 509.44 638.621 497.059 623.363 497.059C608.105 497.059 595.736 509.44 595.736 524.714C595.736 539.987 608.105 552.369 623.363 552.369Z" fill="#FFD77B"/><path d="M623.051 544.156C634.982 544.156 644.654 534.474 644.654 522.531C644.654 510.588 634.982 500.906 623.051 500.906C611.12 500.906 601.448 510.588 601.448 522.531C601.448 534.474 611.12 544.156 623.051 544.156Z" fill="#FFE798"/><path d="M623.051 539.581C632.458 539.581 640.084 531.948 640.084 522.531C640.084 513.114 632.458 505.48 623.051 505.48C613.644 505.48 606.018 513.114 606.018 522.531C606.018 531.948 613.644 539.581 623.051 539.581Z" fill="#FFD77B"/><path d="M623.051 534.798C629.82 534.798 635.307 529.305 635.307 522.53C635.307 515.754 629.82 510.262 623.051 510.262C616.283 510.262 610.796 515.754 610.796 522.53C610.796 529.305 616.283 534.798 623.051 534.798Z" fill="#FFE798"/><path d="M596.982 527.309C600.767 527.309 603.836 524.237 603.836 520.447C603.836 516.658 600.767 513.586 596.982 513.586C593.196 513.586 590.127 516.658 590.127 520.447C590.127 524.237 593.196 527.309 596.982 527.309Z" fill="#E73245"/><path d="M575.9 520.759C572.576 518.992 568.421 520.24 566.655 523.566C564.889 526.893 566.136 531.051 569.46 532.819" fill="#E73245"/><path d="M657.532 513.382C660.974 513.382 663.764 510.589 663.764 507.144C663.764 503.699 660.974 500.906 657.532 500.906C654.091 500.906 651.301 503.699 651.301 507.144C651.301 510.589 654.091 513.382 657.532 513.382Z" fill="#E73245"/><path d="M633.022 509.741C634.268 506.518 632.814 502.983 629.594 501.632C626.375 500.384 622.843 501.84 621.493 505.062" fill="#E73245"/><path d="M623.05 530.013C627.18 530.013 630.528 526.662 630.528 522.528C630.528 518.394 627.18 515.043 623.05 515.043C618.92 515.043 615.572 518.394 615.572 522.528C615.572 526.662 618.92 530.013 623.05 530.013Z" fill="#FFD77B"/><path d="M585.557 548.728C589.687 548.728 593.035 545.377 593.035 541.243C593.035 537.109 589.687 533.758 585.557 533.758C581.427 533.758 578.079 537.109 578.079 541.243C578.079 545.377 581.427 548.728 585.557 548.728Z" fill="#FFD77B"/><path d="M632.917 527.518C636.359 527.518 639.149 524.726 639.149 521.281C639.149 517.836 636.359 515.043 632.917 515.043C629.476 515.043 626.686 517.836 626.686 521.281C626.686 524.726 629.476 527.518 632.917 527.518Z" fill="#E73245"/><path d="M708.112 514.004L539.236 539.164L548.688 551.64C564.059 572.017 589.297 582.31 614.535 578.567L647.666 573.577C672.904 569.834 693.987 552.575 702.816 528.663L708.112 514.004Z" fill="#E6E3DA"/><path d="M415.123 905.75C409.723 904.503 398.298 902.007 393.728 902.215C383.55 902.735 365.686 915.211 355.612 916.459C339.514 918.434 315.73 900.448 293.088 913.028L280.002 914.483C277.301 914.795 276.055 918.018 277.821 919.994L282.287 925.088C278.34 936.316 281.975 950.456 281.975 950.456L282.183 952.847C282.702 959.397 284.26 965.843 286.649 971.873C287.376 973.744 289.349 974.784 291.323 974.368L293.088 974.056C294.958 973.64 296.308 972.081 296.412 970.105L295.996 958.669C295.996 958.669 299.839 960.54 305.967 962.828C305.863 962.1 305.967 960.125 305.967 959.397C306.382 947.233 321.338 937.876 339.306 938.5C356.131 939.123 370.775 949.312 372.125 960.54L375.864 959.397L380.019 971.769C380.642 973.744 382.719 974.888 384.796 974.472L386.666 974.056C388.431 973.64 389.782 972.185 389.886 970.313L391.34 953.055L396.117 932.574C397.052 931.742 397.987 931.118 398.921 930.91C408.996 929.247 414.189 918.122 416.266 913.548C416.785 912.404 416.993 911.78 416.993 911.78L417.408 909.493C417.928 907.83 416.889 906.166 415.123 905.75Z" fill="#FCC393"/><path d="M333.073 968.233C329.127 968.129 325.18 967.714 321.233 967.09C324.972 967.714 328.919 968.129 333.073 968.233Z" fill="#FFE3C7"/><path d="M306.174 962.828C308.043 963.556 310.017 964.18 312.198 964.907C311.263 964.595 310.225 964.284 309.29 963.972C308.147 963.556 307.109 963.14 306.174 962.828Z" fill="#FFE3C7"/><path d="M339.513 938.397C321.545 937.773 306.59 947.13 306.174 959.294C306.174 960.022 306.07 961.997 306.174 962.725C307.109 963.037 308.147 963.453 309.29 963.868C310.225 964.18 311.263 964.492 312.198 964.804H312.302C313.029 965.012 313.86 965.22 314.691 965.428C315.002 965.532 315.418 965.636 315.729 965.74C316.352 965.948 316.976 966.052 317.599 966.156C317.91 966.26 318.222 966.26 318.533 966.364C319.364 966.572 320.195 966.676 321.026 966.883C321.13 966.883 321.234 966.883 321.338 966.987C325.284 967.715 329.231 968.027 333.178 968.131H333.282C333.905 968.131 334.528 968.131 335.151 968.131C335.774 968.131 336.397 968.131 337.02 968.131C337.124 968.131 337.228 968.131 337.436 968.131C338.163 968.131 338.994 968.027 339.721 968.027C352.599 967.299 363.193 963.972 372.437 960.438C370.983 949.313 356.338 939.02 339.513 938.397Z" fill="#FFE3C7"/><path d="M379.291 899.827L390.093 903.777L378.564 914.069L375.656 903.257C375.033 900.97 377.214 898.995 379.291 899.827Z" fill="#FCC393"/><path d="M370.671 906.479L383.757 905.023L377.11 921.345L368.698 911.677C366.932 909.806 368.179 906.791 370.671 906.479Z" fill="#FCC393"/><path d="M401.518 912.199C403.009 912.199 404.219 910.989 404.219 909.496C404.219 908.003 403.009 906.793 401.518 906.793C400.026 906.793 398.817 908.003 398.817 909.496C398.817 910.989 400.026 912.199 401.518 912.199Z" fill="#232144"/><path d="M412.319 905.129L416.059 905.961C417.201 906.272 418.032 907.416 417.824 908.56L417.305 911.782L413.774 909.495C413.15 909.079 412.735 908.456 412.631 907.728L412.319 905.129Z" fill="#232144"/><path d="M402.426 917.243L373.567 918.133L373.593 918.963L402.452 918.073L402.426 917.243Z" fill="#232144"/><path d="M404.679 918.487L372.977 929.781L373.255 930.565L404.957 919.27L404.679 918.487Z" fill="#232144"/><path d="M404.294 920.797L389.573 933.32L390.111 933.954L404.832 921.431L404.294 920.797Z" fill="#232144"/></svg>