<?xml version="1.0" encoding="utf-8"?><!--Generator: Adobe Illustrator 27.8.0, SVG Export Plug-In . SVG Version: 6.00 Build 0)--><svg version="1.1" id="Man" xmlns="http://www.w3.org/2000/svg" xmlns:xlink="http://www.w3.org/1999/xlink" x="0px" y="0px" viewBox="0 0 1200 840" style="enable-background:new 0 0 1200 840;" xml:space="preserve"><style type="text/css">.st0{fill:#FF9160;}
	.st1{fill:#F4B191;}
	.st2{fill:#2D0D29;}
	.st3{fill:#030304;}
	.st4{fill:#E6E3D9;}
	.st5{fill:#FFFFFF;}
	.st6{fill:#00474E;}
	.st7{fill:#B8C196;}
	.st8{fill:#242046;}
	.st9{fill:#1A1A18;}</style><path class="st0" d="M649.31,136.42V92.44l-50.28-0.02v44c0,13.92,11.31,25.19,25.23,25.14h0
	C638.1,161.51,649.31,150.27,649.31,136.42z"/><path class="st1" d="M659.09,65.52c-0.59,0-1.17,0.06-1.73,0.16V42.86c0-14.84-12.03-26.86-26.86-26.86h-12.93
	c-14.84,0-26.86,12.03-26.86,26.86v22.7c-0.22-0.01-0.45-0.03-0.68-0.03c-5.62,0-10.18,4.56-10.18,10.18
	c0,5.62,4.56,10.18,10.18,10.18c0.23,0,0.45-0.02,0.68-0.03v3.95c0,14.84,12.03,26.86,26.86,26.86h12.93
	c14.84,0,26.86-12.03,26.86-26.86v-4.07c0.56,0.1,1.14,0.16,1.73,0.16c5.62,0,10.18-4.56,10.18-10.18
	C669.27,70.08,664.71,65.52,659.09,65.52z"/><path class="st2" d="M650.58,54.86v-2.77c0-1.86-1.51-3.37-3.37-3.37l-14.34,0c-1.84,0-3.34,1.49-3.34,3.34v2.77
	c0,0.02,0.01,0.03,0.03,0.03H650.58z"/><path class="st2" d="M617.71,59.95v-2.77c0-1.86-1.51-3.37-3.37-3.37H600c-1.84,0-3.34,1.49-3.34,3.34v2.77
	c0,0.02,0.01,0.03,0.03,0.03H617.71z"/><path class="st3" d="M625.02,85.53c-1.54,0-2.76-0.76-3.83-1.44c-1.76-1.11-2.83-1.77-4.96,0.35l-1.38-1.38
	c3.23-3.23,5.53-1.79,7.38-0.63c0.93,0.58,1.81,1.14,2.79,1.14c1,0,1.84-0.51,2.71-1.05c1.76-1.08,3.94-2.42,7.56,0.59l-1.25,1.51
	c-2.54-2.11-3.64-1.44-5.29-0.43C627.74,84.82,626.58,85.53,625.02,85.53z"/><rect x="615.44" y="152.84" class="st4" width="17.48" height="154.69"/><polygon class="st5" points="679.67,129.19 650.2,122.58 632.91,151.89 632.91,307.52 679.67,307.52 "/><polygon class="st5" points="568.7,129.19 598.22,122.68 615.47,151.89 615.44,307.52 576.03,307.52 "/><polygon class="st4" points="649.32,122.4 632.91,151.89 659.45,175.78 662.56,125.34 "/><polygon class="st4" points="598.98,122.58 615.47,151.89 588.94,175.78 586.12,125.3 "/><path class="st2" d="M590.09,65.66h4.67V37.08h27.51c8.57,0,15.14-2.35,19.65-4.93c1.48,3.41,4.88,5.8,8.84,5.8h2.76v27.71h4.67
	V26.81c0-5.93-4.77-10.74-10.68-10.81c0,0,0,0,0,0h-0.13H601.3c-6.19,0-11.21,5.02-11.21,11.21V65.66z"/><path class="st6" d="M637.75,824h58.57v-15.17c-1.54-12.95-14.06-23.04-29.28-23.04s-27.75,10.1-29.28,23.04V824z"/><path class="st6" d="M506.73,784.79l-46.79,13.98c-5,1.52-8.42,6.13-8.42,11.36v0V824h103.29v-39.21H506.73z"/><polygon class="st7" points="475.51,794.05 556.96,794.05 615.19,381.67 624.34,381.65 624.34,794.05 706,794.05 697.62,307.52 
	545.4,307.52 "/><path class="st3" d="M625,100.1c3.13,0,5.98-1.18,7.89-3.3l-1.49-1.35c-1.65,1.83-4.2,2.79-6.99,2.63c-2.4-0.13-4.52-1.09-5.52-2.49
	l-1.63,1.17c1.37,1.91,4.01,3.15,7.04,3.32C624.53,100.09,624.77,100.1,625,100.1z"/><path class="st6" d="M544.82,133.6c-2.39,0.34-20.3,3.62-27.34,27.15l-30.4,87.78c-3.3,8.49-2.44,18.03,2.33,25.78
	c10.21,10.56,23.67,12.28,40.53,4.76l-4.76,158.1h90.22l-16.42-314.58L544.82,133.6z"/><polygon class="st7" points="610.47,342.74 575.41,201.64 587.1,180.61 572.12,180.61 579.63,126.4 598.98,122.58 "/><path class="st6" d="M733.08,160.36c-2.4-13.3-12.82-24.05-26.4-26.61l-57.36-11.34l-14.21,314.77h75.33V321.44l25.87-35.64
	c6.98-9.61,10.03-21.52,8.54-33.31L733.08,160.36z"/><polygon class="st7" points="639.32,343.92 672.43,201.64 660.74,180.61 675.72,180.61 668.18,126.11 649.32,122.4 "/><path class="st8" d="M643.8,132.65l-28.11-10.25c-1.96-0.71-4.12,0.29-4.84,2.25l-23.36,64.06c-0.71,1.96,0.29,4.12,2.25,4.84
	l28.11,10.25c1.96,0.71,4.12-0.29,4.84-2.25l23.36-64.06C646.76,135.53,645.75,133.37,643.8,132.65z"/><path class="st1" d="M641.25,149.09c-1.25-2.06-3.93-2.72-6-1.47l-22.14,13.41c-0.17,0.1-0.32,0.23-0.47,0.35l-18.93,11.74
	l8.58-23.51c0.83-2.27-0.34-4.77-2.61-5.6c-2.27-0.83-4.77,0.34-5.6,2.61l-5.94,16.29l-9.01,23.19l-74.22,47.63l24.94,36.37
	l71.75-59.8l-0.05-0.05l17.57-9.54l0,0c0.56-0.08,1.12-0.27,1.63-0.59l7.48-4.53c2.06-1.25,2.72-3.93,1.47-6s-3.93-2.72-6-1.47
	l-5.15,3.12l-0.04-0.66l14.84-8.98c2.06-1.25,2.72-3.93,1.47-6s-3.93-2.72-6-1.47l-10.9,6.6l-0.06-1l18.53-11.22
	c2.06-1.25,2.72-3.93,1.47-6c-1.25-2.06-3.93-2.72-6-1.47l-14.59,8.84l-0.07-1.18c0.14-0.06,0.28-0.12,0.41-0.2l22.14-13.41
	C641.84,153.83,642.5,151.15,641.25,149.09z"/><circle class="st4" cx="616.44" cy="129.19" r="2.69"/><polygon class="st5" points="571.16,188.79 576.53,185.33 595.84,219.15 585.61,228.23 "/><path class="st6" d="M587.63,233.68l-16.93-45.52l-74.17,50.62c-0.3,0.2-0.6,0.4-0.89,0.61l-0.59,0.4l-0.04,0.07
	c-6.44,4.85-10.62,12.53-10.62,21.21c0,14.67,11.9,26.57,26.57,26.57c6.35,0,12.17-2.23,16.73-5.94l0.38,0.02L587.63,233.68z"/><path class="st5" d="M649.34,68.1c-0.22-1-1.2-1.74-2.61-2.14c-1.02-0.29-2.26-0.39-3.62-0.3c-0.66,0.05-1.35,0.13-2.05,0.28
	c-4.12,0.89-7.09,3.3-6.64,5.38c0.45,2.08,4.15,3.05,8.27,2.16c0.54-0.12,1.06-0.26,1.55-0.43c1.58-0.53,2.88-1.28,3.79-2.11
	C649.02,70.04,649.54,69.04,649.34,68.1z"/><path class="st5" d="M612.79,68.84c-1-1.09-2.71-2.05-4.79-2.64c-0.31-0.09-0.61-0.18-0.93-0.25c-4.12-0.89-7.82,0.08-8.27,2.16
	c-0.45,2.08,2.52,4.49,6.64,5.38c1.04,0.22,2.06,0.33,3,0.33c0.63,0,1.22-0.06,1.77-0.16c1.88-0.32,3.24-1.13,3.5-2.33
	C613.9,70.51,613.53,69.64,612.79,68.84z"/><path class="st3" d="M640.91,67.3c-2.18,0-3.94,1.76-3.94,3.94c0,0.91,0.32,1.74,0.84,2.41c1.4,0.25,3.1,0.22,4.89-0.17
	c0.54-0.12,1.06-0.26,1.55-0.43c0.06-0.02,0.12-0.05,0.18-0.07c0.26-0.53,0.42-1.11,0.42-1.74C644.85,69.07,643.09,67.3,640.91,67.3
	z"/><path class="st9" d="M607.33,66.84c-2.18,0-3.94,1.76-3.94,3.94c0,0.9,0.31,1.71,0.81,2.37c0.4,0.12,0.81,0.24,1.24,0.33
	c1.04,0.22,2.06,0.33,3,0.33c0.54,0,1.05-0.05,1.53-0.13c0.79-0.72,1.3-1.75,1.3-2.91C611.28,68.6,609.51,66.84,607.33,66.84z"/></svg>