<?xml version="1.0" encoding="utf-8"?><!--Generator: Adobe Illustrator 27.8.0, SVG Export Plug-In . SVG Version: 6.00 Build 0)--><svg version="1.1" xmlns="http://www.w3.org/2000/svg" xmlns:xlink="http://www.w3.org/1999/xlink" x="0px" y="0px" viewBox="0 0 1200 840" style="enable-background:new 0 0 1200 840;" xml:space="preserve"><style type="text/css">.st0{fill:#D0DEF2;}
	.st1{fill:#B0C2E4;}
	.st2{fill:#5773A4;}
	.st3{fill:#E5F0FF;}
	.st4{fill:#8DA8DC;}
	.st5{fill:#FBB03B;}
	.st6{fill:#F7931E;}
	.st7{fill:#891229;}
	.st8{fill:#232144;}
	.st9{fill:#F7E5CD;}
	.st10{fill:#E73245;}
	.st11{fill:#693725;}
	.st12{fill:#FFCD94;}
	.st13{fill:#5D2B1A;}
	.st14{fill:#FFFFFF;}
	.st15{fill:#F7C7A1;}
	.st16{fill:#FFC6AD;}
	.st17{fill:#F5B091;}
	.st18{fill:#010101;}
	.st19{fill:none;stroke:#000000;stroke-width:1.2182;stroke-miterlimit:10;}
	.st20{fill:#797878;}
	.st21{fill:none;stroke:#010101;stroke-width:1.291;stroke-miterlimit:10;}</style><g id="building"><polygon class="st0" points="370.28,332.94 370.28,823.15 480.11,823.15 480.11,332.94 480.55,332.94 	"/><polygon class="st1" points="480.55,332.94 480.11,332.94 480.11,823.15 711.32,823.15 711.32,332.94 	"/><rect x="382.18" y="381.4" class="st2" width="85.12" height="24.71"/><rect x="382.18" y="445.52" class="st2" width="85.12" height="24.71"/><rect x="382.18" y="509.64" class="st2" width="85.12" height="24.71"/><rect x="382.18" y="573.75" class="st2" width="85.12" height="24.71"/><rect x="382.18" y="637.87" class="st2" width="85.12" height="24.71"/><rect x="382.18" y="701.99" class="st2" width="85.12" height="24.71"/><rect x="382.18" y="766.11" class="st2" width="85.12" height="24.71"/><rect x="520.49" y="350.02" class="st2" width="190.83" height="49.43"/><rect x="520.49" y="429.21" class="st2" width="190.83" height="49.43"/><rect x="520.49" y="508.4" class="st2" width="190.83" height="49.43"/><rect x="520.49" y="587.59" class="st2" width="190.83" height="49.43"/><rect x="520.49" y="666.78" class="st2" width="190.83" height="49.43"/><rect x="520.49" y="745.96" class="st2" width="190.83" height="49.43"/><polygon class="st3" points="513.15,299.3 513.15,234.18 431.88,234.18 431.88,299.3 	"/><polygon class="st0" points="757.58,299.3 757.58,234.18 513.15,234.18 513.15,299.3 	"/><rect x="447.5" y="264.3" class="st4" width="293.32" height="20.26"/><path class="st5" d="M604.37,111.75L312.73,63.73v-47.7h-7.93v46.39l-46.93-7.73V16.03h-7.93v38.69L75.72,112.25v33.44h174.22
		v678.29h7.93v-44.5h46.93v44.5h7.93V145.68h291.63V111.75z M304.8,70.47v67.28h-46.93V62.74L304.8,70.47z M162.62,137.75H83.65
		v-19.77l78.97-26.07V137.75z M170.55,137.75V89.29l79.38-26.21v74.67H170.55z M304.8,771.54h-46.93v-58.85h46.93V771.54z
		 M304.8,704.75h-46.93V645.9h46.93V704.75z M304.8,637.97h-46.93v-58.85h46.93V637.97z M304.8,571.19h-46.93v-58.85h46.93V571.19z
		 M304.8,504.41h-46.93v-58.85h46.93V504.41z M304.8,437.62h-46.93v-58.85h46.93V437.62z M304.8,370.84h-46.93v-58.85h46.93V370.84z
		 M304.8,304.06h-46.93v-58.85h46.93V304.06z M304.8,237.28h-46.93v-91.6h46.93V237.28z M392.39,137.75h-79.65V71.77l79.65,13.11
		V137.75z M488.3,137.75h-87.98V86.19l87.98,14.48V137.75z M596.43,137.75h-100.2v-35.76l100.2,16.5V137.75z"/><polygon class="st6" points="352.56,145.67 210.11,145.67 210.11,169.73 229.71,169.73 229.71,192.8 332.96,192.8 332.96,169.73 
		352.56,169.73 	"/><path class="st7" d="M600.58,307.73c-10.68,0-19.37-8.69-19.37-19.37V133.72c0-10.68,8.69-19.37,19.37-19.37
		c10.68,0,19.37,8.69,19.37,19.37v154.64C619.94,299.04,611.26,307.73,600.58,307.73z M600.58,122.29c-6.3,0-11.43,5.13-11.43,11.43
		v154.64c0,6.3,5.13,11.43,11.43,11.43c6.3,0,11.43-5.13,11.43-11.43V133.72C612.01,127.42,606.88,122.29,600.58,122.29z"/><circle class="st5" cx="600.58" cy="129.2" r="18.29"/><circle class="st6" cx="600.58" cy="129.2" r="13.9"/><polygon class="st0" points="649.44,299.3 649.44,234.18 599.15,234.18 599.15,299.3 	"/><rect x="595.52" y="264.3" class="st4" width="60.65" height="20.26"/></g><g id="woman"><ellipse class="st8" cx="893.95" cy="394.49" rx="21.42" ry="21.41"/><ellipse class="st7" cx="798.37" cy="394.49" rx="21.42" ry="21.41"/><path class="st9" d="M893.2,458.78l32.41-7.81l-10.23-59.94c-1.58-9.54-9.5-17.13-19.57-17.89c-0.25-0.02-0.51-0.03-0.75-0.04
		v-0.03H869.9h-41.26h-30.17l8.65,85.43L893.2,458.78z"/><polygon class="st9" points="934.75,824.03 874.7,824.03 874.7,793.71 899.27,800.42 934.75,813.35 	"/><path class="st10" d="M807.13,458.52c-2.95,5.46-16.46,30.76-18.1,82.02c-0.82,25.57-7.31,265.26-7.31,265.26h53.95l12.07-285.9
		h5.68l15.17,285.9h55.78c0,0-14-234.33-14.05-234.83c-6.64-72.61-13.08-104.87-17.12-112.19L807.13,458.52z"/><polygon class="st7" points="786.55,559.22 794.23,373.09 833.55,373.09 847.82,559.22 	"/><path class="st7" d="M912.81,559.22V450.97l2.57-59.94c-1.58-9.54-9.5-17.13-19.57-17.89c-0.25-0.02-0.51-0.03-0.75-0.04v-0.03
		h-30.51L854.1,559.22H912.81z"/><path class="st10" d="M823,507.33l-25.9,7.06c-2.51,0.68-5.11-0.8-5.79-3.31l-1.24-4.56l35.02-9.54l1.24,4.56
		C827,504.06,825.52,506.65,823,507.33z"/><path class="st11" d="M930.66,523.88l-8.78-72.87l-24.15,5.3l15.9,71.23l-2.31,11.78l-0.53,2.69l-5.96,9.36
		c-1.05,1.65-0.56,3.83,1.09,4.88c1.65,1.04,3.83,0.56,4.88-1.09l1.08-1.69l3.83-6.01l-0.01,0.05c0,0,0.05-0.1,0.13-0.25l2.64-4.15
		c1.15-0.66,2.39,0.51,1.79,1.9c-0.38,0.86-1.56,3.24-2.6,5.49l-5.71,6.55l-4.06,4.65c-1.28,1.47-1.13,3.7,0.34,4.99
		c0.04,0.03,0.08,0.05,0.12,0.09c-0.44,1.16-0.26,2.51,0.6,3.52l0,0c0.77,0.9,1.89,1.31,2.98,1.22c0.72-0.05,1.42-0.32,2.01-0.82
		l11.89-10.11l8.33-20.31L930.66,523.88z"/><polygon class="st7" points="915.38,391.27 938.6,523.45 903.82,538.34 883.48,446.91 893.13,410.59 	"/><path class="st11" d="M794.78,366.55l-0.38-0.23c-1.49-0.89-3.42-0.4-4.31,1.08l-3.4,5.68l-0.21-23.06
		c-0.01-1.65-1.37-2.96-3.01-2.95l-0.42,0.01c-0.95,0.01-1.78,0.46-2.32,1.16l-0.01-1.19c-0.01-1.65-1.36-2.96-3.01-2.95l-0.42,0.01
		c-1.65,0.01-2.97,1.36-2.95,3.01l0.03,2.68c-0.51-0.92-1.49-1.54-2.62-1.53l-0.42,0.01c-1.65,0.01-2.97,1.36-2.95,3.01l0.03,2.61
		c-0.58-0.72-1.48-1.17-2.47-1.11l-0.42,0.02c-1.65,0.09-2.91,1.49-2.82,3.13l0.93,18.35l1.17,18.15l0.2,59.99
		c0.02,8.8,7.75,15.58,16.48,14.46l0,0c8.29-1.07,14-8.85,12.53-17.08l-10.46-58.31l12.34-20.63
		C796.75,369.36,796.27,367.44,794.78,366.55z"/><path class="st7" d="M782.19,475.21L782.19,475.21c-9.4,0.98-17.81-5.83-18.8-15.21l-6.78-64.38l34.02-3.57l6.78,64.38
		C798.39,465.81,791.57,474.22,782.19,475.21z"/><path class="st12" d="M888.4,337.11c0-7.8-5.84-14.22-13.39-15.16c-1.07-9.63-9.24-17.13-19.16-17.13h-11.37
		c-10.25,0-18.62,8.01-19.23,18.11c-6.74,1.59-11.77,7.63-11.77,14.86c0,2.15,0.45,4.2,1.25,6.05c-2.8,2.77-4.53,6.61-4.53,10.86
		c0,8.34,6.68,15.11,14.99,15.27v0.01h0.14h49.81v-17.74C882.62,351.25,888.4,344.86,888.4,337.11z"/><path class="st13" d="M864.49,373.36v-20.11l-31-0.36v20.47c0,8.56,6.94,15.5,15.5,15.5l0,0
		C857.55,388.86,864.49,381.92,864.49,373.36z"/><path class="st11" d="M869.98,350.24v-28.55c0-9.25-7.5-16.75-16.75-16.75h-7.98c-9.25,0-16.75,7.5-16.75,16.75v28.55
		c0,9.25,7.5,16.75,16.75,16.75h7.98C862.48,366.99,869.98,359.49,869.98,350.24z"/><circle class="st11" cx="828.32" cy="342.61" r="6.27"/><path class="st10" d="M857.7,353.85c-3.83,1.19-4.87-1.82-8.07,1.05c-0.33,0.3-0.11,0.38-0.5,0.12c-3.89-2.59-4.97-0.63-8.35-1.15
		c0.43,1.54,3.28,5.88,8.51,5.88C854.59,359.74,857.53,354.13,857.7,353.85z"/><path d="M854.24,341.27c0.92-5.15,8.06-6.96,10.76-4.71c-0.23,0.37-0.68,1.14-0.92,1.51c-0.85-0.51-5.24-2.29-9.23,2.5
		C854.61,340.85,854.58,340.98,854.24,341.27z"/><path class="st14" d="M854.24,341.27c0,0,1.44-3.08,4.19-4.04c2.76-0.96,5.79,0.57,5.79,0.57s-1.44,3.08-4.19,4.04
		C857.27,342.79,854.24,341.27,854.24,341.27z"/><circle cx="859.23" cy="339.54" r="2.44"/><path d="M854.36,341.33c0.79-1.76,2.4-3.09,4.23-3.7s3.61-0.05,5.43,0.58c0.19-0.35,0.61-1.06,0.61-1.06s-1.13-0.64-1.44-0.73
		c-1.82-0.53-4.31-0.25-5.96,0.68c-1.52,0.86-2.99,4.14-2.99,4.14S854.25,341.36,854.36,341.33z"/><path d="M843.81,340.69c-0.92-5.15-8.06-6.96-10.76-4.71c0.23,0.37,0.68,1.14,0.92,1.51c0.85-0.51,5.24-2.29,9.23,2.5
		C843.44,340.28,843.47,340.4,843.81,340.69z"/><path class="st14" d="M843.81,340.7c0,0-1.44-3.08-4.19-4.04s-5.79,0.57-5.79,0.57s1.44,3.08,4.19,4.04
		C840.77,342.22,843.81,340.7,843.81,340.7z"/><circle cx="838.81" cy="338.96" r="2.44"/><path d="M843.69,340.75c-0.79-1.76-2.4-3.09-4.23-3.7c-1.83-0.61-3.61-0.05-5.43,0.58c-0.19-0.35-0.61-1.06-0.61-1.06
		s1.13-0.64,1.44-0.73c1.82-0.53,4.31-0.25,5.96,0.68c1.52,0.86,2.99,4.14,2.99,4.14S843.8,340.78,843.69,340.75z"/><path d="M849.24,349.33c-1.2,0-2.01-0.49-2.66-0.89c-0.95-0.57-1.47-0.89-2.99,0.39l-0.85-1c2.24-1.88,3.45-1.15,4.51-0.5
		c0.59,0.36,1.15,0.7,1.98,0.7s1.31-0.33,1.82-0.67c1.12-0.76,2.15-1.21,4.41,0.39l-0.76,1.07c-1.7-1.2-2.13-0.91-2.92-0.38
		C851.21,348.83,850.48,349.33,849.24,349.33z"/><path class="st12" d="M825.88,322.54v10.59h5.72c9.87,0,17.88-8,17.88-17.88v-10.59h-5.72
		C833.89,304.67,825.88,312.67,825.88,322.54z"/><path class="st12" d="M882.85,340.92c0.33-0.9,0.52-1.86,0.52-2.88c0-4.62-3.74-8.36-8.36-8.36c-0.92,0-1.8,0.15-2.63,0.43v-7.86
		c0-9.72-7.88-17.59-17.59-17.59h-4.62v10.07c0,9.72,7.88,17.59,17.59,17.59h1.17c-1.41,1.5-2.28,3.5-2.28,5.72
		c0,1.46,0.37,2.83,1.03,4.02c-4.04,2.75-6.7,7.39-6.7,12.64c0,8.44,6.84,15.29,15.29,15.29s15.29-6.84,15.29-15.29
		C891.56,348.62,888,343.38,882.85,340.92z"/><polygon class="st10" points="874.69,373.08 885.01,404.35 872.62,405.73 885.01,419.49 857.28,498.63 864.54,373.08 	"/><polygon class="st10" points="823.04,373.08 812.72,404.35 825.11,405.73 812.72,419.49 843.11,498.63 833.55,373.08 	"/><path class="st6" d="M875.58,318.86v-0.45c0-14.14-11.46-25.6-25.61-25.6h0c-14.14,0-25.61,11.46-25.61,25.6v0.45h-0.47
		c-1.45,0-2.62,1.17-2.62,2.62l0,0c0,1.45,1.17,2.62,2.62,2.62h52.16c1.45,0,2.62-1.17,2.62-2.62l0,0c0-1.45-1.17-2.62-2.62-2.62
		H875.58z"/><rect x="831.83" y="329.9" width="14.99" height="2.31"/><rect x="851.67" y="329.9" width="14.99" height="2.31"/><path class="st9" d="M806.91,797.46h-2.45c-10.3,0-18.66,8.35-18.66,18.66v7.92h39.77v-7.92
		C825.57,805.81,817.22,797.46,806.91,797.46z"/></g><g id="man"><polygon class="st5" points="1042.91,498.7 1090.1,507.51 1095.49,804.72 1042.91,804.72 	"/><rect x="1049.97" y="815.04" class="st7" width="37.92" height="8.96"/><path class="st9" d="M1049.97,815.04c0-9.15,8.49-16.56,18.96-16.56c10.47,0,18.96,7.42,18.96,16.56H1049.97z"/><polygon class="st5" points="1037.17,538.17 990.85,515.27 984.97,804.72 1037.41,804.72 	"/><polygon class="st5" points="1088.13,539.06 1088.13,491.48 992.09,491.48 992.61,539.35 	"/><polygon class="st15" points="995.8,379.47 1024.26,371.9 1055.57,371.9 1088.02,379.47 1088.02,494.47 995.8,494.47 995.8,379.47 
			"/><path class="st6" d="M970.93,439.78c0.17-10.43-2.71-26.64-0.62-36.86l0,0c3.13-21.91,19.07-23.45,19.07-23.45l9.61,34.8
		L970.93,439.78z"/><polygon class="st6" points="1034.65,560.56 984.26,560.56 989.2,379.47 1023.49,371.88 	"/><polygon class="st6" points="1045.72,560.56 1095.24,560.56 1092.19,379.67 1055.61,371.9 	"/><circle class="st16" cx="1060.98" cy="342.57" r="6.51"/><circle class="st16" cx="1018.11" cy="342.57" r="6.51"/><path class="st17" d="M1023.47,378.67v-25.09l32.15,0.13v24.97c0,6.53-5.3,11.83-11.83,11.83h-8.49
		C1028.77,390.5,1023.47,385.21,1023.47,378.67z"/><polygon class="st7" points="1042.61,399.31 1051.28,492.24 1040.44,509.43 1029.18,491.82 1036.46,399.31 	"/><polygon class="st7" points="1042.93,400.72 1036.12,400.72 1032.31,391.05 1046.74,391.05 	"/><polygon class="st9" points="1039.19,390.5 1046.23,407.55 1066.78,374.52 1055.62,371.9 	"/><path class="st16" d="M1018.04,350.92v-29.74c0-9.61,7.79-17.4,17.4-17.4h8.22c9.61,0,17.4,7.79,17.4,17.4v29.74
		c0,9.61-7.79,17.4-17.4,17.4h-8.22C1025.83,368.32,1018.04,360.53,1018.04,350.92z"/><path class="st6" d="M1109.08,402.13c0.89-11.74-7.92-21.98-19.66-22.86c-11.74-0.88-21.98,7.92-22.86,19.66
		s13.45,29.84,13.45,29.84S1108.19,413.88,1109.08,402.13z"/><path class="st6" d="M1108.88,396.72l7.51,59.33c0.96,7.59-1.01,15.26-5.5,21.44l-17.03,23.46l-26.14-99.17L1108.88,396.72z"/><path class="st6" d="M972.6,394.07l31.56,18.72l-14.28,48.2l0,0l21.61,49.2l-24,19.92l-33.98-60.02c-3.07-4.99-3.63-11.14-1.5-16.6
		L972.6,394.07z"/><polygon class="st9" points="1039.72,390.5 1032.68,407.55 1012.13,374.52 1023.49,371.88 	"/><polygon class="st5" points="1034.65,560.56 1008.9,423.31 1016.42,409.76 1006.78,409.76 1011.61,374.5 1023.48,371.88 	"/><polygon class="st5" points="1045.72,560.56 1069.75,423.31 1062.22,409.76 1071.87,409.76 1067.01,374.32 1055.61,371.9 	"/><path class="st18" d="M1039.18,347.64c-1.01,0-1.81-0.5-2.52-0.94c-1.16-0.73-1.86-1.16-3.26,0.23l-0.91-0.91
		c2.12-2.12,3.63-1.17,4.85-0.41c0.61,0.38,1.19,0.75,1.83,0.75c0.66,0,1.21-0.33,1.78-0.69c1.15-0.71,2.59-1.59,4.97,0.39
		l-0.82,0.99c-1.67-1.39-2.39-0.95-3.48-0.28C1040.96,347.18,1040.2,347.64,1039.18,347.64z"/><path class="st19" d="M1034.92,353.22c0,0,4.93,2.03,9.11,0"/><path class="st20" d="M1062.77,348.93h-3.14v-32.85h0c1.73,0,3.14,1.4,3.14,3.14V348.93z"/><path class="st20" d="M1020.06,348.93h-3.27v-29.71c0-1.73,1.4-3.14,3.14-3.14h0.13V348.93z"/><path class="st20" d="M1022.25,329.9h10.47c2.47,0,4.47-2,4.47-4.47v0h-10.46C1024.25,325.43,1022.25,327.43,1022.25,329.9
		L1022.25,329.9z"/><path class="st20" d="M1041.07,325.43h10.46c2.47,0,4.47,2,4.47,4.47l0,0h-10.47C1043.07,329.9,1041.07,327.9,1041.07,325.43
		L1041.07,325.43z"/><circle class="st20" cx="1039.21" cy="365.86" r="17.58"/><path class="st14" d="M1046.16,337.55c0.26,1.31,2.63,1.94,5.28,1.41c2.65-0.53,4.59-2.02,4.32-3.33
		c-0.26-1.31-2.63-1.94-5.28-1.41C1047.83,334.75,1045.9,336.24,1046.16,337.55"/><path d="M1048.54,336.59c0,1.34,1.09,2.42,2.43,2.42c1.34,0,2.43-1.08,2.43-2.42s-1.09-2.42-2.43-2.42
		C1049.62,334.17,1048.54,335.25,1048.54,336.59"/><path class="st14" d="M1033.42,337.55c-0.26,1.31-2.63,1.94-5.28,1.41c-2.65-0.53-4.59-2.02-4.32-3.33
		c0.26-1.31,2.63-1.94,5.28-1.41C1031.75,334.75,1033.68,336.24,1033.42,337.55"/><path d="M1031.05,336.59c0,1.34-1.09,2.42-2.43,2.42c-1.34,0-2.43-1.08-2.43-2.42s1.09-2.42,2.43-2.42
		C1029.96,334.17,1031.05,335.25,1031.05,336.59"/><path class="st16" d="M1042.79,361.53h-7.3c-1.3,0-2.35-1.05-2.35-2.35v-4.03c0-1.3,1.05-2.35,2.35-2.35h7.3
		c1.3,0,2.35,1.05,2.35,2.35v4.03C1045.14,360.48,1044.09,361.53,1042.79,361.53z"/><path class="st21" d="M1034.72,356.46c0,0,4.54,3.4,8.97,0"/><path class="st6" d="M1065.21,316.9v-0.45c0-14.14-11.46-25.6-25.61-25.6l0,0c-14.14,0-25.61,11.46-25.61,25.6v0.45h-0.47
		c-1.45,0-2.62,1.17-2.62,2.62l0,0c0,1.45,1.17,2.62,2.62,2.62h52.16c1.45,0,2.62-1.17,2.62-2.62l0,0c0-1.45-1.17-2.62-2.62-2.62
		H1065.21z"/><rect x="991.97" y="815.04" class="st7" width="37.92" height="8.96"/><path class="st9" d="M991.97,815.04c0-9.15,8.49-16.56,18.96-16.56c10.47,0,18.96,7.42,18.96,16.56H991.97z"/></g></svg>