<svg viewBox="0 0 1600 1200" fill="none" xmlns="http://www.w3.org/2000/svg"><path d="M1273 1006.3H328V1020H1273V1006.3Z" fill="#E6E6E6"/><path opacity="0.5" d="M1267.89 180L784.474 1005.84H375.931L1225.56 180H1267.89Z" fill="#E5F0FF"/><path opacity="0.5" d="M332.344 180L815.756 1005.84H1224.3L374.673 180H332.344Z" fill="#E5F0FF"/><path d="M1054.49 664.288C1054.49 664.288 1075.12 733.505 1090.04 754.92C1110.13 783.78 1149.9 791.806 1171.83 821.081C1197.08 854.805 1215.3 893.52 1227.52 933.763L1155.26 965.118L1041.48 832.932C1041.48 832.932 1019.71 803.865 1014.35 784.747L1002.11 757.977L1054.49 664.277V664.288Z" fill="#232144"/><path d="M989.614 562.068C990.633 552.857 984.21 544.415 974.971 543.032C965.732 541.65 957.127 547.856 955.412 556.963H955.381L945.041 620.566L979.315 625.681L989.51 562.962C989.521 562.889 989.542 562.816 989.552 562.733C989.552 562.691 989.552 562.639 989.562 562.598L989.646 562.078H989.614V562.068Z" fill="#D8CBC5"/><path d="M974.452 624.819L981.145 664.875L1046.74 632.876L1035.75 607.645L974.452 624.819Z" fill="#5D2B1A"/><path opacity="0.5" d="M640.495 584.406C637.481 585.04 634.696 586.776 632.805 589.51C628.897 595.176 630.31 602.932 635.974 606.84C639.643 609.377 644.174 609.658 647.988 608.015L713.638 574.02L734.174 560.058L738.643 557.158C739.869 556.336 740.191 554.673 739.36 553.446C738.31 551.897 736.211 551.482 734.652 552.532L733.717 553.166C733.613 552.927 733.478 552.687 733.301 552.48C732.085 551.055 729.944 550.889 728.52 552.116L728.385 552.24C727.169 550.816 725.029 550.65 723.605 551.877L721.672 553.54C720.674 553.322 719.583 553.54 718.741 554.268L712.557 559.57L716.288 555.827C717.39 554.538 717.224 552.594 715.914 551.523C714.636 550.473 712.755 550.639 711.684 551.887L701.375 564.684L640.485 584.437L640.495 584.406Z" fill="#FFD4A9"/><path d="M650.378 843.019L613.454 847.479L604.339 799.771L567.508 719.088L610.076 679.219L644.579 781.329C645.92 785.279 646.731 789.396 647.022 793.554L650.389 843.008L650.378 843.019Z" fill="#FFBD7A"/><path d="M589.374 848.769H550.412L546.671 680.135L599.206 665.633L589.374 848.769Z" fill="#FFD4A9"/><path fill-rule="evenodd" clip-rule="evenodd" d="M616.156 495.814C614.816 494.192 613.173 492.207 611.635 490.346V467.766H561.574V515.827H560.296V540.975C560.296 547.275 565.399 552.389 571.707 552.389H583.295C589.593 552.389 594.706 547.285 594.706 540.975V522.095H602.552C607.572 522.095 611.646 518.02 611.646 512.999V501.438C612.654 501.147 613.714 500.835 614.701 500.555C615.657 500.274 616.416 499.536 616.707 498.579C616.998 497.623 616.79 496.583 616.156 495.814Z" fill="#FFD4A9"/><path d="M636.224 607.166L603.394 588.588L602.989 559.136L605.046 556.059L654.453 596.052L636.224 607.166Z" fill="#FFBD7A"/><path d="M618.432 644.193L617.715 594.344C617.569 584.197 614.909 574.217 609.848 565.422C604.506 556.138 597.834 546.397 594.664 541.833C594.664 541.833 581.497 530.356 581.684 532.186C582.266 537.644 578.483 538.049 578.483 538.049C566.396 535.731 554.86 544.069 553.26 556.274L550.277 643.226C541.662 660.421 539.812 670.827 540.685 703.533L542.015 730.969H633.657L618.422 644.193H618.432Z" fill="#232144"/><path d="M596.347 541.212C596.212 541.098 596.098 540.973 595.952 540.859C588.594 534.86 577.765 535.962 571.769 543.323C565.887 550.548 566.853 561.1 573.837 567.161H573.827L596.004 587.589L618.546 560.975L596.358 541.202H596.347V541.212Z" fill="#232144"/><path d="M549.727 521.47H581.091V501.187V499.774C585.082 494.253 588.096 487.943 589.52 481.373L590.185 478.316H612.467L612.425 464.167C611.937 458.678 607.364 454.343 601.742 454.27L567.675 453.833C557.687 453.709 549.882 461.755 549.737 471.247V521.47H549.727Z" fill="#171111"/><path d="M609.67 482.515C609.722 482.952 609.587 483.399 609.296 483.732C609.005 484.064 608.579 484.252 608.132 484.252H598.301L604.256 480.987C607.259 479.927 609.431 480.54 609.681 482.505L609.67 482.515Z" fill="#171111"/><path d="M552.751 558.156L550.09 619.451C549.799 623.215 550.662 626.968 552.564 630.222L585.747 683.065C586.163 685.092 586.953 687.015 588.096 688.751L588.387 689.188L602.386 709.179C603.29 710.5 605.099 710.832 606.418 709.928C607.738 709.023 608.071 707.215 607.167 705.894L598.603 693.814L598.946 693.575L609.692 708.836C610.596 710.157 612.405 710.489 613.724 709.585C615.044 708.68 615.377 706.872 614.473 705.551L604.444 691.34L604.787 691.101L616.073 707.142C616.977 708.462 618.786 708.795 620.105 707.89C621.425 706.986 621.758 705.177 620.854 703.857L608.85 686.766L609.193 686.527L619.471 701.112C620.376 702.432 622.184 702.765 623.504 701.861C624.824 700.956 625.156 699.147 624.252 697.827L611.241 679.322L619.066 683.2C620.511 683.886 622.246 683.273 622.932 681.827C623.618 680.382 623.005 678.646 621.56 677.96L608.383 671.525C605.961 670.371 603.405 669.498 600.786 668.916L579.294 629.847C577.174 625.907 576.55 621.323 577.558 616.956L585.01 575.861L552.73 558.177L552.751 558.156Z" fill="#FFD4A9"/><path d="M581.092 501.187C584.822 501.187 587.847 498.161 587.847 494.429C587.847 490.697 584.822 487.672 581.092 487.672C577.361 487.672 574.336 490.697 574.336 494.429C574.336 498.161 577.361 501.187 581.092 501.187Z" fill="#FFD4A9"/><path d="M594.664 541.845L607.863 562.055C607.863 562.055 598.301 572.836 591.359 557.366L581.091 528.954L591.359 526.75L594.664 541.835V541.845Z" fill="#FFD4A9"/><path d="M611.812 509.618C612.415 509.307 612.82 508.683 612.82 507.955C612.82 506.915 611.978 506.011 610.939 506.073C609.443 506.167 608.642 507.872 606.065 508.309C606.865 508.704 607.842 508.818 608.861 508.922C609.889 509.026 610.939 509.151 611.802 509.598L611.812 509.618Z" fill="#E73245"/><path d="M608.778 509.753C607.406 509.607 605.878 509.441 604.787 508.422C604.787 508.422 604.787 508.422 604.766 508.422C606.793 511.468 608.944 513.214 610.939 513.214C611.979 513.214 612.82 512.372 612.82 511.333C612.82 511.291 612.8 511.25 612.8 511.198C612.498 511.062 612.176 510.875 611.802 510.574C611.064 509.981 609.952 509.867 608.778 509.742V509.753Z" fill="#E73245"/><path d="M605.109 507.59L604.485 508.12C604.578 508.234 604.693 508.328 604.797 508.422C605.265 508.422 605.691 508.38 606.075 508.318C605.712 508.141 605.389 507.912 605.119 507.59H605.109Z" fill="#751D16"/><path d="M611.77 509.648C611.77 509.648 611.801 509.628 611.811 509.617C610.949 509.16 609.899 509.045 608.87 508.941C607.852 508.838 606.875 508.723 606.075 508.328C605.69 508.391 605.264 508.432 604.796 508.432C605.888 509.441 607.415 509.617 608.787 509.763C609.962 509.888 611.074 510.002 611.811 510.594C612.175 510.886 612.508 511.083 612.809 511.218C612.757 510.532 612.362 509.95 611.77 509.659V509.648Z" fill="#751D16"/><path d="M588.833 546.879C588.854 546.703 588.885 546.536 588.896 546.349C589.54 536.878 582.39 528.676 572.912 528.021C563.621 527.387 555.567 534.269 554.662 543.48H554.642L550.796 573.379L585.528 576.415L588.844 546.869H588.823L588.833 546.879Z" fill="#232144"/><path d="M619.263 519.211C618.11 518.026 618.12 516.144 619.274 514.97C620.469 513.764 622.412 513.774 623.597 514.98L631.412 522.507L632.379 531.853L619.253 519.211H619.263Z" fill="#FFD4A9"/><path d="M630.072 594.939C629.718 597.995 630.488 601.197 632.483 603.848C636.619 609.348 644.424 610.45 649.922 606.312C653.476 603.63 655.191 599.419 654.837 595.282H654.848L654.817 595.053C654.775 594.606 654.702 594.169 654.609 593.733L643.333 522.229L636.609 498.328L635.237 493.172C634.842 491.748 633.366 490.916 631.943 491.321C630.145 491.82 629.085 493.692 629.583 495.501L629.885 496.592C629.625 496.613 629.355 496.665 629.095 496.769C627.359 497.476 626.528 499.451 627.235 501.187L627.307 501.354C625.572 502.061 624.74 504.036 625.447 505.772L626.414 508.132C625.894 509.016 625.759 510.117 626.175 511.136L629.251 518.684L628.274 519.921L628.201 520.139C627.328 522.676 627.578 525.472 628.866 527.822L630.571 530.91L630.072 594.939Z" fill="#FFD4A9"/><path d="M841.499 971.639C873.966 977.845 881.552 941.168 881.552 941.168L914.861 951.117L905.05 975.953L896.861 1004.04L888.214 1001.35L891.394 990.591C891.394 990.591 891.394 990.56 891.394 990.549C891.415 990.497 891.446 990.445 891.456 990.393C891.893 989.021 891.134 987.545 889.752 987.108C888.37 986.671 886.904 987.43 886.468 988.813C886.447 988.875 886.437 988.948 886.426 989.011L882.945 999.656L826.742 981.806C826.742 981.806 826.825 968.842 841.51 971.639H841.499Z" fill="#232144"/><path d="M614.867 991.996C582.047 988.066 585.913 950.827 585.913 950.827L592.326 848.77H547.471L553 976.849L552.304 1006.09L561.356 1006.16L561.584 994.938C561.584 994.938 561.595 994.917 561.605 994.907C561.605 994.855 561.584 994.792 561.584 994.74C561.584 993.295 562.759 992.12 564.203 992.12C565.648 992.12 566.822 993.295 566.822 994.74C566.822 994.813 566.812 994.875 566.801 994.948L566.895 1006.14L625.863 1006.17C625.863 1006.17 629.708 993.784 614.867 992.006V991.996Z" fill="#232144"/><path d="M694.734 982.14C661.686 982.025 661.228 944.589 661.228 944.589L654.92 842.469L608.476 848.083L631.537 974.239L634.218 1003.37L643.218 1002.38L642.148 991.205C642.148 991.205 642.148 991.184 642.158 991.163C642.158 991.111 642.127 991.059 642.127 990.997C641.961 989.562 642.989 988.263 644.424 988.096C645.858 987.93 647.157 988.959 647.323 990.394C647.323 990.467 647.323 990.529 647.323 990.602L648.716 1001.72L707.299 994.927C707.299 994.927 709.689 982.181 694.745 982.129L694.734 982.14Z" fill="#232144"/><path d="M1165.91 988.233C1192.3 968.325 1170.23 938.083 1170.23 938.083L1199.95 920.066L1211.77 944.009L1227.08 968.938L1219.29 973.544L1213.45 963.959C1213.45 963.959 1213.43 963.948 1213.42 963.938C1213.4 963.886 1213.38 963.834 1213.35 963.782C1212.62 962.534 1211.02 962.108 1209.77 962.836C1208.52 963.563 1208.1 965.164 1208.83 966.412C1208.86 966.474 1208.91 966.516 1208.95 966.578L1214.5 976.309L1163.54 1006.01C1163.54 1006.01 1153.99 997.236 1165.92 988.244L1165.91 988.233Z" fill="#232144"/><path fill-rule="evenodd" clip-rule="evenodd" d="M998.874 540.796L995.673 514.183L995.465 514.203L993.959 495.875L991.974 471.715L944.666 475.613C944.666 475.613 945.342 483.785 946.111 493.11C945.508 494.825 943.866 499.535 942.744 502.716C942.505 503.402 942.629 504.161 943.066 504.743C943.502 505.325 944.209 505.637 944.937 505.585C945.643 505.533 946.392 505.481 947.119 505.429C947.587 511.064 947.982 515.96 948.189 518.372C948.584 523.113 952.741 526.647 957.491 526.252C959.517 526.086 961.793 525.899 964.194 525.701L966.553 546.109C967.042 552.066 972.092 553.875 978.037 553.376L988.98 552.471C994.935 551.983 999.363 546.753 998.874 540.796Z" fill="#5D2B1A"/><path d="M947.638 488.954C947.586 489.37 947.722 489.796 947.992 490.108C948.272 490.42 948.667 490.607 949.093 490.607C952.17 490.607 958.416 490.607 958.416 490.607L952.772 487.509C949.925 486.501 947.867 487.083 947.628 488.954H947.638Z" fill="#171111"/><path d="M1059.73 516.669C1054.97 516.731 1050.2 517.043 1045.43 516.866C1043.39 516.793 1041.28 516.43 1039.58 515.276C1033.92 511.429 1034.54 502.707 1033.11 496.771C1031.6 490.554 1028.87 484.067 1023 480.813C1019.32 478.775 1012.69 477.049 1007.84 475.979C1007.5 465.863 998.656 457.733 988.169 458.731L953.718 462.017C947.649 462.599 943.201 467.984 943.783 474.055C944.365 480.127 949.748 484.576 955.817 483.994L965.534 483.069L966.657 486.749C971.572 502.915 980.791 513.331 995.247 515.639L995.912 515.93L1006.23 483.661C1008.53 487.217 1010.24 491.053 1010.1 495.378C1009.64 509.028 1012.77 522.397 1025.74 529.237C1040.35 536.951 1059.32 538.407 1075.64 538.511C1075.42 537.835 1074.89 535.569 1073.63 528.842C1072.27 521.513 1067.44 516.565 1059.75 516.669H1059.73Z" fill="#171111"/><path d="M1075.78 538.512C1075.73 538.512 1075.67 538.512 1075.61 538.512C1075.8 539.074 1075.78 538.512 1075.78 538.512Z" fill="#171111"/><path d="M975.616 504.844C979.157 504.844 982.028 501.973 982.028 498.43C982.028 494.887 979.157 492.016 975.616 492.016C972.074 492.016 969.204 494.887 969.204 498.43C969.204 501.973 972.074 504.844 975.616 504.844Z" fill="#5D2B1A"/><path d="M1007.69 534.737L967.104 545.882C967.104 545.882 956.493 569.543 963.851 589.878C971.199 610.212 975.189 631.857 975.189 631.857L1038.64 612.51L1007.69 534.727V534.737Z" fill="#E6E3DA"/><path d="M947.514 510.157C947.763 510.033 948.802 509.534 950.32 509.398C951.691 509.274 955.215 509.315 955.215 509.315C955.215 509.315 951.972 514.908 947.929 515.262L947.514 510.157Z" fill="#E73245"/><path d="M949.457 494.359C949.457 494.359 948.366 496.698 950.102 499.234C950.102 499.234 954.3 499.817 956.888 494.577C956.888 494.577 952.544 493.673 949.457 494.359Z" fill="white"/><path d="M950.101 499.231C949.02 497.63 948.833 495.987 949.446 494.355L950.132 494.199L950.797 494.168C951.608 494.563 952.232 495.53 952.336 496.715C952.419 497.682 952.148 498.534 951.639 499.116C951.639 499.116 951.12 499.22 950.735 499.252C950.403 499.283 950.091 499.252 950.091 499.252" fill="#1D1D1B"/><path d="M1032.14 596.195L1041.8 613.307L1018.45 623.11L1011.43 590.02L1032.14 596.195Z" fill="#5D2B1A"/><path d="M1006.54 531.271L1006.27 530.668H1006.24C1002.13 522.382 992.17 518.733 983.638 522.569C975.116 526.395 971.219 536.261 974.69 544.858H974.659L1005.38 613.296L1036.99 599.095L1006.54 531.281V531.271Z" fill="#E6E3DA"/><path d="M971.313 573.773L974.41 560.238C974.67 559.094 974.348 557.951 973.641 557.109L974.244 554.458C974.691 552.514 973.475 550.57 971.531 550.122L971.573 549.935C972.02 547.991 970.804 546.047 968.86 545.6C968.569 545.538 968.278 545.527 967.998 545.548L968.133 544.353C968.351 542.367 966.917 540.579 964.932 540.361C963.591 540.215 962.375 541.026 961.939 542.232V542.242C961.866 542.44 961.814 542.648 961.793 542.866L961.752 543.344L952.471 596.582L945.82 633.883C945.799 633.987 945.778 634.091 945.768 634.185V634.216C945.144 638.873 947.015 643.708 951.068 646.691C956.982 651.037 965.296 649.768 969.65 643.853C971.396 641.483 972.217 638.717 972.217 635.983H972.238L972.747 574.896L971.323 573.763L971.313 573.773Z" fill="#5D2B1A"/><path d="M1041.8 613.306C1040.38 610.718 1038.23 608.805 1035.75 607.651L980.615 581.37C981.217 579.976 979.087 575.35 977.029 572.46L976.676 565.401C976.541 563.738 975.169 562.48 973.527 562.449L973.288 561.326C973.049 560.172 972.269 559.278 971.282 558.81L970.721 556.149C970.305 554.194 968.393 552.947 966.439 553.352L966.398 553.165C965.982 551.211 964.07 549.963 962.116 550.369C961.825 550.431 961.565 550.545 961.316 550.68L960.931 549.537C960.297 547.645 958.25 546.616 956.358 547.25C954.862 547.749 954.062 549.36 954.56 550.857L959.351 564.434H959.372L969.713 593.45L1022.69 630.699C1022.78 630.761 1022.87 630.824 1022.95 630.886H1022.97V630.896C1026.93 633.423 1032.11 633.776 1036.52 631.364C1042.95 627.84 1045.32 619.762 1041.8 613.317V613.306Z" fill="#693725"/><path d="M1050.56 720.668L1031.75 747.189C1031.75 747.189 1014.8 775.778 1014.75 775.85C1007.22 788.554 1011.12 812.226 1010.81 826.365C1009.65 881.547 974.618 931.968 942.795 974.685L871.492 948.352C881.843 913.983 892.121 879.582 902.181 845.119C911.431 813.442 915.806 771.973 936.456 745.515L981.144 672.524L979.429 654.622L1046.74 632.863L1058.18 664.53C1064.99 683.357 1062.14 704.326 1050.56 720.658V720.668Z" fill="#463EC5"/><path d="M977.932 650.859C976.124 650.859 974.648 649.383 974.648 647.574C974.648 645.765 976.124 644.289 977.932 644.289C979.741 644.289 981.217 645.765 981.217 647.574C981.217 649.383 979.741 650.859 977.932 650.859ZM977.932 645.36C976.706 645.36 975.719 646.358 975.719 647.574C975.719 648.791 976.717 649.789 977.932 649.789C979.148 649.789 980.146 648.791 980.146 647.574C980.146 646.358 979.148 645.36 977.932 645.36Z" fill="#232144"/><path d="M977.486 643.002L978.308 647.94L979.857 647.586L979.025 642.586L977.486 643.002Z" fill="#5D2B1A"/><path d="M578.059 487.338C577.413 486.645 576.328 486.607 575.635 487.252C574.942 487.898 574.903 488.984 575.549 489.677L576.938 491.168C577.583 491.862 578.668 491.9 579.361 491.254C580.055 490.608 580.093 489.523 579.447 488.83L578.059 487.338Z" fill="#ABB8B9"/><path d="M579.413 500.817C580.059 500.124 580.02 499.038 579.327 498.392C578.634 497.746 577.549 497.785 576.903 498.478L575.515 499.969C574.869 500.662 574.908 501.748 575.601 502.394C576.294 503.04 577.379 503.001 578.025 502.308L579.413 500.817Z" fill="#ABB8B9"/><path d="M573.353 492.648C572.407 492.614 571.612 493.355 571.579 494.301C571.545 495.248 572.285 496.043 573.232 496.076L575.267 496.149C576.214 496.182 577.008 495.442 577.042 494.495C577.075 493.548 576.335 492.754 575.389 492.72L573.353 492.648Z" fill="#ABB8B9"/><path d="M609.629 491.913C609.629 491.913 607.894 488.669 604.859 487.807C601.824 486.944 598.551 488.846 598.551 488.846C598.551 488.846 601.035 491.3 603.456 492.048C605.742 492.765 609.629 491.903 609.629 491.903" fill="white"/><path d="M609.63 491.913C609.63 491.913 606.855 484.522 595.818 487.921L598.863 489.148C601.18 488.597 605.452 488.129 609.619 491.913" fill="#1D1D1B"/><path d="M605.961 488.246C604.828 488.704 604.34 489.774 604.797 490.918C604.942 491.271 605.161 491.562 605.431 491.791H608.278C608.278 491.791 608.517 490.762 608.278 489.878L605.961 488.256V488.246Z" fill="#1D1D1B"/><path d="M610.533 491.777H598.301V496.819H610.533V491.777Z" fill="#FFD4A9"/><path d="M607.894 487.852C607.894 487.852 608.934 491.199 607.894 492.873H610.202V487.852H607.894Z" fill="#FFD4A9"/><path d="M948.729 494.493L948.667 493.745C948.667 493.745 953.063 492.123 957.709 493.568L956.68 495.096C956.68 495.096 953.261 493.984 948.729 494.504" fill="#1D1D1B"/><path d="M802.964 180H800.24V237.667H802.964V180Z" fill="#232144"/><path d="M842.538 245.996C846.175 249.635 849.625 253.564 852.837 257.764H862.71C856.505 253.097 849.74 249.136 842.538 245.996Z" fill="#E6E6E6"/><path d="M877.478 373.242C875.243 382.235 872.011 390.749 867.833 398.671L882.778 398.65C888.567 390.957 893.285 382.401 896.694 373.211L877.478 373.232V373.242Z" fill="#E6E6E6"/><path d="M839.264 260.423C842.632 266.131 845.625 272.139 848.244 278.377L862.72 278.356C859.436 272.015 855.674 265.995 851.486 260.402H839.254L839.264 260.423Z" fill="#C6C6C6"/><path d="M819.529 257.795L834.369 257.774C830.171 251.048 825.453 244.831 820.267 239.238C816.338 238.531 812.337 238.063 808.263 237.824C812.451 243.542 816.224 250.247 819.529 257.785V257.795Z" fill="#E6E6E6"/><path d="M902.95 337.729C902.898 327.208 901.225 317.062 898.18 307.539L876.688 307.56C879.234 317.498 880.7 327.655 881.063 337.75L902.95 337.729Z" fill="#E6E6E6"/><path d="M867.034 280.997C868.499 284.043 869.871 287.162 871.129 290.354C873.01 295.126 874.631 299.991 875.992 304.919L897.287 304.898C894.283 296.332 890.147 288.306 885.065 280.977L867.023 280.997H867.034Z" fill="#E6E6E6"/><path d="M878.247 350.962C878.476 347.459 878.548 343.934 878.486 340.41L860.725 340.431C860.787 350.775 859.904 360.859 858.064 370.621L875.399 370.6C876.854 364.279 877.81 357.72 878.247 350.962Z" fill="#C6C6C6"/><path d="M849.314 281.017C852.359 288.689 854.832 296.694 856.693 304.938L873.207 304.917C870.868 296.642 867.802 288.606 864.061 280.996L849.314 281.017Z" fill="#E6E6E6"/><path d="M784.495 260.487C782.074 266.049 779.922 272.068 778.062 278.462L800.354 278.441L800.333 260.477L784.495 260.497V260.487Z" fill="#C6C6C6"/><path d="M757.09 278.472L775.329 278.451C777.148 272.089 779.257 266.07 781.627 260.477L766.381 260.497C762.899 266.194 759.792 272.214 757.09 278.472Z" fill="#E6E6E6"/><path d="M802.973 257.812H816.639C813.189 250.119 809.24 243.34 804.844 237.685C804.21 237.674 803.576 237.664 802.952 237.664L802.973 257.812Z" fill="#E6E6E6"/><path d="M777.314 281.103C775.246 288.64 773.583 296.666 772.357 305.045L800.375 305.014L800.344 281.082L777.304 281.103H777.314Z" fill="#E6E6E6"/><path d="M769.904 340.523C769.946 350.847 770.632 360.962 771.941 370.713L800.459 370.682L800.427 340.492L769.915 340.523H769.904Z" fill="#E6E6E6"/><path d="M800.49 398.75L800.459 373.332L772.315 373.363C773.604 382.189 775.392 390.704 777.668 398.782L800.5 398.761L800.49 398.75Z" fill="#E6E6E6"/><path d="M771.993 307.684C770.881 315.99 770.195 324.629 769.976 333.455C769.945 334.932 769.924 336.408 769.914 337.874L800.427 337.842L800.396 307.652L772.003 307.684H771.993Z" fill="#E6E6E6"/><path d="M837.664 257.781H849.449C845.302 252.531 840.782 247.697 835.897 243.383C832.228 242.083 828.466 240.992 824.621 240.129C829.391 245.576 833.756 251.481 837.653 257.781H837.664Z" fill="#E6E6E6"/><path d="M820.651 260.443C822.959 266.036 825.016 272.055 826.804 278.397L845.012 278.376C842.372 272.117 839.358 266.109 835.98 260.422L820.651 260.443Z" fill="#E6E6E6"/><path d="M834.837 337.809L857.732 337.788C857.462 327.6 856.235 317.463 854.147 307.598L832.738 307.618C833.798 315.592 834.473 323.847 834.744 332.278C834.806 334.128 834.827 335.968 834.847 337.809H834.837Z" fill="#E6E6E6"/><path d="M802.984 260.467L803.005 278.432L824.071 278.411C822.252 272.038 820.153 266.029 817.793 260.457L802.974 260.478L802.984 260.467Z" fill="#E6E6E6"/><path d="M726.213 305.094C727.543 300.333 729.123 295.613 730.963 290.987C732.293 287.629 733.748 284.344 735.317 281.152L719.635 281.173C714.573 288.513 710.458 296.549 707.465 305.126L726.213 305.105V305.094Z" fill="#E6E6E6"/><path d="M819.269 421.991C816.671 427.875 813.771 433.385 810.591 438.479C814.281 438.178 817.918 437.679 821.493 436.992C826.149 432.283 830.316 427.262 834.027 421.98L819.269 422.001V421.991Z" fill="#E6E6E6"/><path d="M829.692 304.979C828.476 296.62 826.834 288.594 824.797 281.047L802.994 281.068L803.025 304.999L829.692 304.968V304.979Z" fill="#E6E6E6"/><path d="M827.531 281.038C829.537 288.606 831.158 296.621 832.363 304.969L853.554 304.949C851.663 296.715 849.158 288.689 846.092 281.027L827.521 281.048L827.531 281.038Z" fill="#C6C6C6"/><path d="M824.694 398.722C826.928 390.644 828.674 382.13 829.932 373.293L803.108 373.324L803.14 398.742L824.694 398.722Z" fill="#E6E6E6"/><path d="M854.666 373.273L832.592 373.294C831.355 382.12 829.62 390.635 827.427 398.723L846.851 398.702C850.29 390.51 852.868 381.985 854.666 373.273Z" fill="#C6C6C6"/><path d="M857.784 340.434L834.858 340.454C834.858 350.788 834.203 360.893 832.956 370.644L855.196 370.624C857.057 360.695 857.898 350.549 857.794 340.434H857.784Z" fill="#E6E6E6"/><path d="M845.708 401.344L826.689 401.365C824.881 407.644 822.792 413.653 820.412 419.339L835.835 419.318C839.638 413.58 842.923 407.571 845.708 401.344Z" fill="#E6E6E6"/><path d="M878.413 337.76C878.039 327.583 876.501 317.426 873.924 307.57L857.264 307.591C859.301 317.395 860.465 327.52 860.704 337.781L878.423 337.76H878.413Z" fill="#E6E6E6"/><path d="M817.533 419.35C819.955 413.674 822.096 407.665 823.935 401.375L803.14 401.396L803.16 419.36L817.533 419.339V419.35Z" fill="#E6E6E6"/><path d="M830.295 370.655C831.553 360.914 832.208 350.799 832.218 340.465L803.077 340.496L803.108 370.686L830.295 370.655Z" fill="#C6C6C6"/><path d="M748.329 305.064L769.696 305.044C770.902 296.685 772.544 288.659 774.591 281.102L755.968 281.122C752.819 288.805 750.252 296.831 748.329 305.064Z" fill="#E6E6E6"/><path d="M832.197 337.813C832.176 336.004 832.145 334.184 832.093 332.365C831.833 323.892 831.137 315.617 830.066 307.633L803.035 307.664L803.066 337.854L832.197 337.823V337.813Z" fill="#E6E6E6"/><path d="M800.51 422.008L786.054 422.029C788.735 427.944 791.749 433.454 795.033 438.538C796.852 438.673 798.681 438.745 800.531 438.787L800.51 422.018V422.008Z" fill="#C6C6C6"/><path d="M783.165 422.03H769.259C773.032 427.197 777.282 432.093 781.98 436.72C785.16 437.374 788.402 437.884 791.687 438.227C788.569 433.206 785.721 427.789 783.165 422.02V422.03Z" fill="#E6E6E6"/><path d="M816.369 421.988H803.16L803.181 438.788C804.563 438.788 805.935 438.747 807.296 438.674C810.632 433.559 813.667 427.976 816.38 421.988H816.369Z" fill="#E6E6E6"/><path d="M753.047 398.805C752.247 396.934 751.467 395.042 750.74 393.118C748.318 386.725 746.364 380.134 744.889 373.387L727.741 373.407C730.162 382.421 733.633 390.925 738.113 398.815L753.036 398.795L753.047 398.805Z" fill="#C6C6C6"/><path d="M847.62 421.957H837.248C833.87 426.937 830.14 431.605 826.086 435.992C828.705 435.358 831.272 434.63 833.808 433.798C838.786 430.191 843.411 426.251 847.61 421.967L847.62 421.957Z" fill="#E6E6E6"/><path d="M766.038 422.051H756.051C760.208 426.136 764.76 429.889 769.655 433.341C772.107 434.183 774.612 434.942 777.148 435.607C773.126 431.366 769.426 426.843 766.038 422.061V422.051Z" fill="#E6E6E6"/><path d="M764.219 419.411C760.447 413.766 757.111 407.778 754.222 401.457L739.672 401.478C743.59 407.923 748.194 413.922 753.432 419.432H764.209L764.219 419.411Z" fill="#E6E6E6"/><path d="M760.509 429.672C757.63 427.261 754.897 424.724 752.309 422.062H746.874C751.197 424.942 755.749 427.489 760.509 429.672Z" fill="#E6E6E6"/><path d="M851.289 421.957C848.441 425.003 845.417 427.893 842.195 430.627C847.797 428.215 853.128 425.305 858.148 421.957H851.289Z" fill="#E6E6E6"/><path d="M749.826 419.423C744.785 413.892 740.368 407.883 736.606 401.469H724.25C729.726 408.247 736.056 414.287 743.091 419.433H749.826V419.423Z" fill="#E6E6E6"/><path d="M866.399 401.319C862.782 407.744 858.532 413.753 853.689 419.304H861.92C868.935 414.137 875.254 408.076 880.72 401.309L866.399 401.329V401.319Z" fill="#C6C6C6"/><path d="M736.637 278.501C739.921 272.138 743.673 266.119 747.819 260.526H739.484V259.809C732.719 265.246 726.681 271.535 721.516 278.521L736.647 278.501H736.637Z" fill="#E6E6E6"/><path d="M881.136 340.4C881.198 343.986 881.115 347.573 880.887 351.128C880.461 357.823 879.525 364.321 878.112 370.6L897.639 370.579C900.861 361.067 902.711 350.931 902.929 340.379L881.136 340.4Z" fill="#E6E6E6"/><path d="M865.942 260.392H854.812C858.865 265.985 862.512 271.994 865.734 278.356L883.183 278.335C878.205 271.63 872.406 265.559 865.942 260.277V260.392Z" fill="#E6E6E6"/><path d="M874.755 373.254L857.535 373.275C856.069 380.313 854.115 387.174 851.663 393.828C851.06 395.481 850.405 397.092 849.75 398.703L864.83 398.683C869.133 390.782 872.469 382.267 874.765 373.254H874.755Z" fill="#E6E6E6"/><path d="M848.628 401.341C845.853 407.672 842.652 413.671 839.015 419.316H850.124C855.165 413.785 859.582 407.766 863.333 401.32L848.628 401.341Z" fill="#E6E6E6"/><path d="M800.51 419.367L800.489 401.402L778.426 401.423C780.296 407.702 782.448 413.711 784.89 419.387L800.51 419.367Z" fill="#E6E6E6"/><path d="M782.022 419.386C779.631 413.7 777.511 407.691 775.682 401.422L757.059 401.443C759.979 407.659 763.408 413.668 767.389 419.397L782.032 419.376L782.022 419.386Z" fill="#C6C6C6"/><path d="M774.923 398.785C772.689 390.687 770.912 382.183 769.644 373.367L747.56 373.388C749.482 382.089 752.226 390.604 755.843 398.796L774.923 398.775V398.785Z" fill="#E6E6E6"/><path d="M785.679 257.835L800.333 257.814L800.312 237.688C799.522 237.708 798.732 237.729 797.942 237.76C793.359 243.333 789.254 250.111 785.679 257.835Z" fill="#E6E6E6"/><path d="M744.161 337.905L767.264 337.884C767.264 336.387 767.295 334.9 767.326 333.393C767.545 324.588 768.22 315.98 769.322 307.684L747.736 307.704C745.606 317.57 744.39 327.717 744.161 337.905Z" fill="#C6C6C6"/><path d="M723.792 337.93L741.459 337.909C741.646 327.658 742.8 317.543 744.858 307.719L728.302 307.74C725.683 317.605 724.145 327.773 723.792 337.94V337.93Z" fill="#E6E6E6"/><path d="M769.28 370.714C767.992 360.952 767.306 350.836 767.264 340.523L744.12 340.544C744.068 350.66 745.003 360.806 746.988 370.734L769.27 370.714H769.28Z" fill="#E6E6E6"/><path d="M723.989 350.537C724.457 357.503 725.496 364.25 727.076 370.758L744.348 370.737C742.395 360.975 741.428 350.881 741.439 340.547L723.73 340.568C723.688 343.894 723.771 347.221 723.989 350.537Z" fill="#E6E6E6"/><path d="M724.353 370.768C722.825 364.312 721.817 357.617 721.36 350.714C721.131 347.356 721.059 343.967 721.1 340.578L701.916 340.599C702.155 351.14 704.025 361.287 707.268 370.789L724.353 370.768Z" fill="#C6C6C6"/><path d="M721.142 337.939C721.464 327.844 722.929 317.687 725.496 307.738L706.571 307.759C703.547 317.292 701.895 327.428 701.874 337.96L721.142 337.939Z" fill="#E6E6E6"/><path d="M729.03 305.084L745.429 305.063C747.3 296.819 749.805 288.804 752.912 281.121L738.342 281.142C734.528 288.762 731.399 296.809 729.02 305.084H729.03Z" fill="#E6E6E6"/><path d="M768.043 257.856L782.791 257.836C786.189 250.298 790.086 243.603 794.409 237.969C790.242 238.301 786.147 238.884 782.136 239.705C776.96 245.215 772.252 251.307 768.043 257.856Z" fill="#C6C6C6"/><path d="M735.1 398.826C730.745 390.904 727.357 382.411 725.008 373.418L708.214 373.439C711.643 382.618 716.372 391.164 722.182 398.847H735.1V398.826Z" fill="#E6E6E6"/><path d="M753.265 257.88H764.811C768.657 251.788 772.928 246.06 777.615 240.758C773.655 241.766 769.8 243.003 766.048 244.459C761.465 248.524 757.194 253.025 753.265 257.88Z" fill="#E6E6E6"/><path d="M754.024 278.483C756.684 272.235 759.75 266.226 763.18 260.508H751.176C746.905 266.122 743.059 272.151 739.703 278.493L754.013 278.472L754.024 278.483Z" fill="#E6E6E6"/><path d="M749.836 257.877C752.715 254.196 755.801 250.745 759.023 247.48C752.964 250.381 747.248 253.874 741.938 257.877H749.836Z" fill="#E6E6E6"/></svg>