<?xml version="1.0" encoding="UTF-8"?><svg xmlns="http://www.w3.org/2000/svg" version="1.1" viewBox="0 0 1200 840"><defs><style>.cls-1, .cls-2, .cls-3 {
        fill: #e73245;
      }

      .cls-1, .cls-3 {
        stroke: #e73245;
        stroke-miterlimit: 10;
      }

      .cls-4 {
        fill: #171111;
      }

      .cls-5 {
        fill: #9e3f39;
      }

      .cls-6 {
        fill: #891229;
      }

      .cls-7 {
        fill: #232144;
      }

      .cls-8 {
        fill: #f05f5a;
      }

      .cls-9 {
        fill: #1d1c1a;
      }

      .cls-10 {
        fill: #f6a08f;
      }

      .cls-11 {
        fill: #f4826b;
      }

      .cls-12 {
        fill: #4b7cfe;
      }

      .cls-13 {
        fill: #fff;
      }

      .cls-14 {
        fill: #7a2f37;
      }

      .cls-15, .cls-16 {
        fill: #ffcd94;
      }

      .cls-17 {
        fill: #ebb2d3;
      }

      .cls-3, .cls-16 {
        fill-rule: evenodd;
      }

      .cls-18 {
        fill: #83cba8;
      }

      .cls-19 {
        fill: #f3816c;
      }</style></defs><!--Generator: Adobe Illustrator 28.7.1, SVG Export Plug-In . SVG Version: 1.2.0 Build 142)--><g><g id="Ebene_1"><path class="cls-6" d="M368.81,359.12l-104.79,77.59-101.7-134.27,106.49-79.47,100.02,136.15h-.01Z"/><path class="cls-17" d="M813.55,356.12l104.79,77.59,101.7-134.27-105.92-79.08-100.58,135.76h.01Z"/><path class="cls-1" d="M672.93,338.23s64.36-171.59-8.34-188.87c-72.71-17.28-57.61-14.93-78.39-14.35-18.94.51-69.9,16.18-81.59,19.58-11.69,3.4,6.46,188.11,6.46,188.11l161.86-4.47h.01Z"/><path class="cls-17" d="M613.5,223.05l-2.32-83.49-51.13,1.56,2.55,86.68,50.91-4.75Z"/><path class="cls-12" d="M1132.32,811.94c1.92-18.42,2.91-37.12,2.91-56.05,0-295.5-239.63-535.05-535.23-535.05S64.77,460.4,64.77,755.9c0,18.93.99,37.63,2.91,56.05h1064.64Z"/><path class="cls-18" d="M109.93,591.53l243.4,181.67c7.85,5.91,9.58,16.91,3.77,24.86l-10.03,13.88h230.95l-149.48-85c-7.95-4.59-18.14-2.34-23.55,5.1-7.24,9.99-22.02,9.89-29.15-.1l-10.6-14.97c-3.16-4.48-4.89-9.79-4.89-15.28,0,0,13.86-32,0-39.23-9.89-5.2-27.62,7.95-29.15,9.07-5.71,4.28-13.66,4.18-19.26-.31l-11.21-8.97c-16.51-13.24-12.44-39.44,7.34-46.97l42.61-16.2c6.22-2.34,13.05-2.45,19.26,0l10.4,3.87c16.41,6.12,33.94-3.16,39.65-19.66,2.65-7.64,8.56-13.75,16.11-16.71l179.69-68.48c8.46-3.26,14.98-10.4,16.92-19.25,8.15-36.89-2.34-75.4-28.13-103.01l-3.87-4.18c-5.81-6.32-14.27-9.48-22.83-8.56l-38.84,3.87c-14.88,1.53-20.08-19.25-6.22-24.96l11.52-4.69c5.4-2.14,11.31-2.65,16.92-1.22l22.12,5.5c18.04,4.48,35.27-9.89,33.94-28.43v-1.83c-1.02-13.65-12.33-24.35-26.09-24.56-55.76-.61-192.24-2.04-246.15-1.02l-3.06.82c-89.29,49.21-163.09,122.98-212.02,212.45-.51.92-1.02,1.83-1.53,2.75-6.83,12.64-12.95,25.68-18.76,38.93-1.53,3.57-3.16,7.14-4.69,10.7-1.83,4.48-3.26,9.07-4.99,13.65-2.04,9.89,1.63,20.38,9.89,26.49Z"/><path class="cls-7" d="M974.81,230.76c-7.27,9.83-21.14,11.88-30.95,4.61-9.83-7.26-11.88-21.13-4.62-30.94,7.27-9.83,21.14-11.88,30.95-4.61,9.83,7.26,11.88,21.13,4.62,30.94Z"/><path class="cls-7" d="M1026.36,268.92c-7.26,9.83-21.14,11.88-30.95,4.61-9.83-7.26-11.88-21.13-4.62-30.94,7.27-9.82,21.14-11.88,30.96-4.61,9.82,7.26,11.88,21.13,4.61,30.94Z"/><path class="cls-5" d="M963.25,191.72c-3.25,4.39-2.33,10.6,2.07,13.84,4.39,3.25,10.6,2.33,13.85-2.07,3.24-4.39,2.32-10.6-2.07-13.84-4.39-3.24-10.6-2.32-13.84,2.07Z"/><path class="cls-5" d="M1016.77,231.31c-3.25,4.39-2.33,10.6,2.06,13.84,4.39,3.25,10.6,2.33,13.85-2.06s2.33-10.6-2.07-13.84c-4.39-3.25-10.59-2.32-13.84,2.07Z"/><path class="cls-2" d="M1021.13,240.05c-3.96-2.92-9.53-2.09-12.47,1.87l-5.25,7.08c-2.92,3.94-2.09,9.53,1.87,12.46,3.94,2.92,9.53,2.09,12.46-1.87l5.25-7.08c2.93-3.94,2.09-9.53-1.86-12.46Z"/><path class="cls-2" d="M969.51,201.83c-3.96-2.92-9.53-2.09-12.47,1.86l-5.25,7.08c-2.92,3.94-2.09,9.53,1.87,12.46,3.94,2.92,9.53,2.09,12.47-1.87l5.25-7.08c2.92-3.94,2.09-9.53-1.87-12.46Z"/><path class="cls-14" d="M987.37,272.22l18.9-25.49-39.36-29.04-18.85,25.43c-8.04,10.85-5.76,26.18,5.1,34.2,10.86,8.02,26.19,5.76,34.21-5.1Z"/><path class="cls-5" d="M1015.4,247.79l27.17-36.68c8.58-11.59,6.14-27.97-5.45-36.54l-10.11-7.49c-11.6-8.58-27.98-6.14-36.56,5.45l-27.17,36.68c-8.58,11.59-6.14,27.97,5.45,36.54l10.12,7.49c11.59,8.58,27.98,6.14,36.55-5.45Z"/><path class="cls-4" d="M991.14,226.26c.3.22.63.42,1.02.6,1.06.49,2.26.67,3.63.51.69-.08,1.18.05,1.58.39.79.7.81,2.03.81,2.04h1.52s-.03-2.03-1.32-3.17c-.71-.62-1.64-.88-2.76-.77-1.07.11-2.03-.01-2.83-.39-.8-.39-1.39-.9-1.7-1.57-.15-.27-.22-.62-.26-1-.06-.66-.34-1.88-1.43-2.72-.9-.7-2.1-.97-3.61-.8l.17,1.51c1.1-.12,1.91.02,2.49.49.67.53.82,1.38.86,1.7.06.56.2,1.07.41,1.5.32.66.81,1.22,1.42,1.68Z"/><path class="cls-6" d="M985.37,233.76c1.66-2.23,4.84.6,4.84.6l7.71,5.72c.24-.5-23.16,8.49-22.27-16.49l7.72,5.72s3.62,2.23,1.99,4.45h.01Z"/><path class="cls-7" d="M997.46,190.64l-.32-.22c-3.35-2.46-7.74-3.11-11.82-1.78l17.4,12.76c.04-4.32-1.89-8.27-5.26-10.75h0Z"/><path class="cls-13" d="M993.43,210.66s1.1-5.47-1.6-9.45c-2.71-3.98-8.22-4.93-8.22-4.93,0,0-1.01,4.4,1.72,8.38,2.71,3.98,8.11,6.01,8.11,6.01"/><path class="cls-4" d="M991.96,205.44c-1.3,1.74-3.76,2.11-5.5.82-1.74-1.29-2.12-3.76-.82-5.5,1.29-1.74,3.76-2.12,5.5-.82,1.74,1.29,2.11,3.76.82,5.5Z"/><path class="cls-4" d="M993.44,210.65c3.88-7.2-2.3-16.08-9.62-16.78-.06.72-.21,2.18-.27,2.9,1.62.15,9.17,2.1,9.77,12.35.03.62-.04.81.12,1.53Z"/><path class="cls-7" d="M1024.58,210.73l.32.22c3.33,2.5,5.24,6.48,5.14,10.79l-17.28-12.92c4.12-1.29,8.48-.61,11.8,1.89"/><path class="cls-13" d="M1006.18,219.99s4.93-2.66,9.5-1.23c4.59,1.44,7.12,6.42,7.12,6.42,0,0-3.93,2.24-8.51.81-4.59-1.44-8.11-6.01-8.11-6.01h0Z"/><path class="cls-4" d="M1012.28,220.05c-1.29,1.74-.93,4.22.82,5.5,1.74,1.28,4.22.93,5.5-.82,1.28-1.74.93-4.22-.82-5.5-1.74-1.28-4.22-.93-5.5.82Z"/><path class="cls-4" d="M1006.19,219.99c5.76-5.81,16.08-2.5,18.85,4.3-.68.27-2.01.83-2.7,1.11-.61-1.5-4.7-8.16-14.66-5.73-.61.15-.76.29-1.5.34"/><path class="cls-7" d="M1021.8,238.52l10.88-14.69c8.59-11.59,6.27-27.87-5.2-36.37l-2.86-2.11,4.81-6.49-8.47,3.78-3.46-2.58c-11.45-8.48-27.71-5.96-36.31,5.62l-10.89,14.69-4.07-3.01,20.6-27.81c9.3-12.56,27.03-15.21,39.61-5.9l14.12,10.46c12.56,9.3,15.21,27.02,5.9,39.6l-20.61,27.81-4.06-3.01Z"/><path class="cls-14" d="M950.69,273.88l5.84,4.32-7.29,9.84-5.84-4.32,7.29-9.84Z"/><path class="cls-18" d="M936.27,428.5c3.36,9.17.2,19.46-7.75,25.07l-56.06,39.54-2.45,1.94-36.39,31.59c-7.85,6.83-9.68,18.34-4.28,27.31l5.71,9.48c6.42,10.7,20.69,13.66,30.89,6.42,0,0,55.35-58.69,79.81-57.06,11.42.82,26.5,25.17,27.52,36.48.41,4.48-6.63,13.24-4.38,17.52,2.85,5.4,15.99,5.81,19.37,2.34,3.26-3.36,5.2-10.7,6.51-18.85,1.95-13.15,17.85-18.54,27.33-9.28l27.22,26.9c4.98,4.99,11.62,8.05,18.54,8.66l37.32,3.47c-28.64-82.43-76.75-155.59-139.03-214.18-4.59-.2-9.28.92-13.35,3.57l-16.82,11.31c-8.26,5.5-11.62,15.99-8.15,25.27l8.36,22.31.1.2h-.02Z"/><path class="cls-18" d="M868.28,431.97c1.02,6.93-13.96,20.27-9.99,26.08,4.89,7.14,26.6,3.06,34.76,0,5.2-1.94,15.6-9.38,16.82-14.87,3.36-15.7-22.12-48.5-37.82-51.86-7.03-1.43-23.44,7.44-24.77,14.46-1.53,8.26,19.77,17.83,21,26.19Z"/><path class="cls-18" d="M833.21,452.97c8.36-1.22,26.91-13.56,25.69-21.91-1.02-6.93-18.96-13.34-25.69-11.3-7.44,2.14-19.57,18.44-17.33,25.78,1.43,4.48,12.64,8.15,17.33,7.44Z"/><path class="cls-5" d="M855.65,239.75l-72.27,35.71,33.45,29.02,52.56-18.13-13.75-46.57h0Z"/><path class="cls-5" d="M885.15,371.71l30.9,22.39c2.13,1.54,2.6,4.5,1.06,6.64l-.4.55c-1.54,2.13-4.5,2.6-6.64,1.06l-30.9-22.39,5.97-8.25h.01Z"/><path class="cls-5" d="M811.12,278.54l71.77,67.16-15.15,24.91-85.27-55.52c-11.76-7.66-14.13-23.89-5.06-34.6,8.61-10.16,23.99-11.06,33.72-1.95Z"/><path class="cls-5" d="M877.51,343.46l29.19,8.73-18.97,33.75-24.69-18.08,14.47-24.4h.01Z"/><path class="cls-5" d="M900.82,361.56l36.79,24.33c2.19,1.44,2.8,4.4,1.33,6.59l-.36.56c-1.44,2.19-4.4,2.8-6.59,1.33l-36.79-24.33,5.62-8.48Z"/><path class="cls-5" d="M903.27,352.2l35.34,23.37c2.19,1.44,2.8,4.4,1.33,6.59l-.36.56c-1.44,2.19-4.4,2.8-6.59,1.33l-35.35-23.37,5.62-8.48Z"/><path class="cls-5" d="M895.05,369.21l31.84,21.06c2.19,1.44,2.79,4.38,1.33,6.59l-.36.56c-1.44,2.19-4.41,2.8-6.59,1.33l-31.84-21.05,5.62-8.48Z"/><path class="cls-5" d="M877.99,343.5l40.87,1.47c2.76.1,4.93,2.41,4.83,5.17l-.04.71c-.1,2.76-2.41,4.93-5.19,4.81l-40.87-1.47.39-10.72h.01v.02Z"/><path class="cls-17" d="M795.79,267.01s92.29-65.91,116.87-47.72c16.85,12.47,23.05,34.59,11.88,52.3-11.16,17.74-92.17,27.5-92.17,27.5l-36.58-32.09h0Z"/><path class="cls-17" d="M875.54,222.33s35.21-18.04,44.02-10.55c8.81,7.5-1.41,26.09-2.65,29.35-1.24,3.26-41.35-18.8-41.35-18.8h-.01Z"/><path class="cls-5" d="M1018.34,357.91l-13.09,79.53-37.52-23.54,2.02-55.54,48.59-.45Z"/><path class="cls-5" d="M869.48,467.72l-37.25,8.32c-2.56.57-4.18,3.11-3.61,5.68l.14.67c.57,2.56,3.11,4.18,5.69,3.61l37.25-8.32-2.21-9.94v-.02Z"/><path class="cls-5" d="M974.39,411.51l-92.51,33.23,4.04,28.88,100.28-17.2c13.84-2.36,22.46-16.33,18.37-29.75-3.87-12.75-17.66-19.65-30.18-15.14"/><path class="cls-5" d="M887.71,444.79l-30.23-3.54,4.02,38.5,29.85-6.82-3.63-28.14Z"/><path class="cls-5" d="M859.13,452.17l-43.41,7.76c-2.59.46-4.3,2.94-3.84,5.51l.12.66c.46,2.59,2.94,4.3,5.51,3.84l43.41-7.76-1.79-10.02h0Z"/><path class="cls-5" d="M860.59,442.64l-41.71,7.46c-2.59.46-4.3,2.93-3.84,5.51l.12.66c.46,2.59,2.94,4.3,5.51,3.84l41.73-7.46-1.79-10.02h-.02.01Z"/><path class="cls-5" d="M861.41,461.51l-37.56,6.71c-2.59.46-4.3,2.94-3.85,5.51l.12.66c.46,2.59,2.94,4.3,5.52,3.84l37.56-6.72-1.79-10.02h-.02.01Z"/><path class="cls-5" d="M887.26,444.63l-38.11-14.86c-2.56-1.01-5.49.27-6.48,2.86l-.27.66c-1,2.59.27,5.48,2.86,6.48l38.11,14.84,3.89-10v.02Z"/><path class="cls-17" d="M1007.55,434.34s39.16-109.33,17.29-130.86c-14.93-14.7-38.67-15.35-53.94-.98-15.27,14.35-5.77,111.54-5.77,111.54l42.41,20.3h.02Z"/><path class="cls-17" d="M1030.86,336.7s5.7-39.14-4.25-45.05c-9.95-5.89-24.24,9.77-26.92,12.01-2.69,2.24,31.17,33.03,31.17,33.03Z"/><path class="cls-7" d="M1001.11,292.86c-5.29,7.14-15.37,8.64-22.51,3.35-7.14-5.29-8.64-15.36-3.34-22.5,5.28-7.14,15.36-8.64,22.5-3.35,7.14,5.29,8.65,15.36,3.35,22.5Z"/><path class="cls-7" d="M975.84,315.43c-7.27,9.82-20.59,12.3-20.59,12.3,0,0-1.52-13.46,5.76-23.28,7.27-9.82,20.59-12.3,20.59-12.3,0,0,1.52,13.46-5.76,23.28Z"/><path class="cls-10" d="M612.28,262.25l-37.29-8.06c-2.58-.54-5.1,1.08-5.64,3.64l-.13.67c-.54,2.57,1.08,5.1,3.64,5.64l37.29,8.06,2.15-9.96h-.01Z"/><path class="cls-10" d="M731.09,255.19l-97.92-8.6-8.45,27.89,98.28,26.41c13.55,3.64,27.21-5.42,29.14-19.33,1.82-13.19-7.78-25.23-21.06-26.41"/><path class="cls-10" d="M638.43,249.07l-25.97-15.89-12.49,36.66,29.95,6.31,8.51-27.07h0Z"/><path class="cls-10" d="M609.39,243.81l-42.68-11.15c-2.54-.67-5.14.87-5.81,3.39l-.17.65c-.67,2.54.87,5.14,3.41,5.81l42.68,11.15,2.57-9.86h0Z"/><path class="cls-10" d="M614.71,235.75l-41.02-10.7c-2.54-.67-5.14.87-5.81,3.39l-.17.65c-.67,2.54.87,5.14,3.41,5.81l41,10.73,2.57-9.85h.01Z"/><path class="cls-10" d="M607.56,253.23l-36.94-9.65c-2.54-.67-5.13.86-5.81,3.39l-.17.65c-.67,2.54.87,5.14,3.39,5.8l36.91,9.64,2.57-9.85h.04s.01.01.01.01Z"/><path class="cls-10" d="M638.09,248.76l-28.36-29.45c-1.93-2-5.09-2.04-7.08-.14l-.51.48c-2.01,1.93-2.04,5.09-.14,7.08l28.36,29.45,7.74-7.45v.02Z"/><path class="cls-10" d="M566.24,315.41l37.09,8.99c2.56.62,4.12,3.19,3.5,5.73l-.17.65c-.61,2.56-3.17,4.12-5.72,3.5l-37.09-8.99,2.39-9.9h0Z"/><path class="cls-10" d="M462.37,257.34l91.9,34.89-4.56,28.79-99.97-19c-13.79-2.61-22.14-16.72-17.82-30.08,4.11-12.66,17.99-19.33,30.44-14.6"/><path class="cls-10" d="M548.44,292.19l30.3-3.01-4.73,38.44-29.7-7.35,4.13-28.06h0Z"/><path class="cls-10" d="M576.87,300.07l43.27,8.53c2.58.52,4.24,3.01,3.75,5.57l-.13.67c-.52,2.58-3.01,4.24-5.58,3.75l-43.27-8.53,1.96-9.99Z"/><path class="cls-10" d="M575.6,290.5l41.58,8.19c2.58.52,4.24,3.01,3.75,5.57l-.13.67c-.52,2.58-3.01,4.27-5.58,3.75l-41.58-8.19,1.96-9.98Z"/><path class="cls-10" d="M574.44,309.35l37.44,7.38c2.58.52,4.24,3.01,3.75,5.57l-.12.67c-.52,2.58-3.01,4.24-5.58,3.75l-37.44-7.38,1.96-9.98h-.01Z"/><path class="cls-10" d="M548.88,292.02l38.37-14.17c2.59-.95,5.47.37,6.42,2.96l.25.67c.95,2.59-.37,5.47-2.96,6.42l-38.37,14.17-3.72-10.06Z"/><path class="cls-4" d="M118.75,231.39c19.68,26.22,56.86,31.53,83.12,11.88,26.21-19.68,31.53-56.88,11.88-83.15-19.68-26.22-56.86-31.53-83.12-11.88-26.21,19.68-31.53,56.88-11.88,83.15Z"/><path class="cls-11" d="M149.82,246.5c3.25,4.34,9.44,5.22,13.75,1.99,4.34-3.25,5.23-9.43,1.99-13.76-3.25-4.34-9.44-5.22-13.75-1.99-4.34,3.25-5.24,9.42-1.99,13.76Z"/><path class="cls-11" d="M203.19,206.37c3.25,4.34,9.43,5.23,13.75,1.99,4.34-3.25,5.2-9.42,1.99-13.76-3.25-4.34-9.43-5.23-13.75-1.99-4.34,3.25-5.24,9.42-1.99,13.76Z"/><path class="cls-2" d="M212.76,204.7c-3.92,2.92-4.7,8.51-1.75,12.39l5.25,6.99c2.92,3.92,8.5,4.72,12.39,1.77,3.92-2.92,4.7-8.51,1.75-12.4l-5.25-6.99c-2.92-3.92-8.5-4.72-12.39-1.77Z"/><path class="cls-2" d="M161,243.6c-3.92,2.92-4.7,8.51-1.75,12.39l5.26,6.98c2.92,3.92,8.5,4.72,12.39,1.75,3.92-2.92,4.7-8.51,1.75-12.39l-5.25-6.99c-2.92-3.92-8.47-4.75-12.39-1.77v.02s-.02.01-.02.01Z"/><path class="cls-8" d="M233.77,245.94l-18.93-25.23-38.84,29.23,18.86,25.18c8.06,10.74,23.27,12.93,34,4.85,10.73-8.06,12.93-23.28,4.85-34.01"/><path class="cls-11" d="M217.97,211.68l-27.2-36.28c-8.6-11.48-24.88-13.77-36.35-5.18l-10,7.52c-11.48,8.61-13.77,24.88-5.18,36.36l27.2,36.29c8.6,11.48,24.88,13.77,36.35,5.18l10-7.52c11.48-8.61,13.77-24.88,5.18-36.37Z"/><path class="cls-4" d="M196.81,222.27s-1.86-.53-3.29.37c-.8.48-1.27,1.26-1.48,2.31-.17,1.08-.63,1.95-1.22,2.63-.61.65-1.29,1.09-2.02,1.23-.32.02-.66.04-1.06,0-.49-.06-1.8-.25-2.9.56-.91.65-1.5,1.68-1.74,3.13l1.27.21c.2-1.1.58-1.87,1.22-2.28.71-.51,1.64-.41,1.96-.35.56.07,1.04.08,1.51.02,1.04-.21,1.98-.71,2.8-1.63.76-.86,1.25-1.91,1.52-3.25.13-.66.41-1.2.86-1.45.93-.6,2.23-.2,2.25-.22l.34-1.25v-.05s0,.02,0,.02Z"/><path class="cls-5" d="M196.55,236.95c-1.65-2.2,1.95-4.42,1.95-4.42l7.65-5.7c-.39-.36,1.51,24.49-22.02,16.52l7.65-5.7s3.14-2.82,4.79-.62"/><path class="cls-4" d="M158.94,213.16l-.27.29c-3.35,2.46-5.2,6.46-5.09,10.73l17.08-12.93c-4.08-1.28-8.42-.59-11.73,1.93"/><path class="cls-13" d="M168.87,228.73c.48-.17.97-.36,1.41-.58,1.69-.81,3.17-1.95,4.29-2.99,1.42-1.33,2.28-2.46,2.28-2.46,0,0-1.4-.75-3.41-1.22-1.5-.36-3.34-.56-5.18-.16-.3.06-.58.14-.88.23-4.54,1.48-7.01,6.42-7.01,6.42,0,0,3.9,2.2,8.46.78h.03Z"/><path class="cls-4" d="M170.28,228.15c1.69-.81,3.17-1.95,4.29-2.99.26-1.08.05-2.25-.67-3.22-.13-.18-.28-.34-.44-.47-1.34-1.28-3.48-1.43-5.04-.29-.05.04-.1.08-.14.12-1.57,1.35-1.87,3.7-.61,5.36.66.86,1.61,1.38,2.61,1.49h0Z"/><path class="cls-4" d="M176.87,222.7c-5.77-5.73-15.96-2.4-18.69,4.38.67.26,1.99.82,2.68,1.1.62-1.49,4.64-8.11,14.53-5.82.61.14.77.27,1.49.35h-.01Z"/><path class="cls-4" d="M185.77,193.04l.34-.23c3.3-2.45,7.68-3.14,11.76-1.85l-17.21,12.8c-.08-4.31,1.84-8.25,5.12-10.71h-.01Z"/><path class="cls-13" d="M189.38,213.19s4.37-1.68,7.15-4.94c.31-.35.59-.7.85-1.1,1.01-1.49,1.51-3.06,1.71-4.41.34-2.21-.06-3.89-.06-3.89,0,0-2.59.47-5.08,2.04-.45.3-.9.6-1.32.95-.65.55-1.25,1.19-1.75,1.93-2.64,3.95-1.5,9.39-1.5,9.39v.04Z"/><path class="cls-4" d="M196.53,208.26c.31-.35.59-.7.85-1.1,1.01-1.49,1.51-3.06,1.71-4.41-.11-.23-.25-.44-.41-.64-1.11-1.49-3.08-1.97-4.74-1.2-.26.11-.52.25-.74.42-.22.16-.4.34-.58.53-1.21,1.37-1.34,3.41-.17,4.94.97,1.3,2.58,1.84,4.08,1.43v.02Z"/><path class="cls-4" d="M189.35,213.2c-3.9-7.18,2.19-15.98,9.46-16.74.05.72.2,2.16.3,2.88-1.61.14-9.11,2.16-9.62,12.33-.05.58.04.77-.14,1.5h0s0,.02,0,.02Z"/><path class="cls-4" d="M199.77,188.06c-8.76-10.61-24.33-12.64-35.28-4.4l-3.4,2.56-4.81-6.39-3.06,2.31,4.81,6.39-3.4,2.56c-10.99,8.27-13.43,23.76-5.68,35.17l-4.06,3.03-8.98-11.97c-9.32-12.45-6.82-30.07,5.64-39.39l13.94-10.49c12.44-9.33,30.05-6.82,39.38,5.64l8.98,11.97-4.06,3.07v-.05s0,.01,0,.01l-.02-.03Z"/><path class="cls-4" d="M210.99,202.98l-12.16-16.23,1.31-.98,12.16,16.23-1.31.98Z"/><path class="cls-4" d="M159.84,243.14l-12.16-16.23,1.31-.98,12.16,16.23-1.31.98Z"/><path class="cls-6" d="M103.26,195.86c6.37-.61,11.07-6.25,10.47-12.65-.6-6.38-6.25-11.07-12.62-10.47l2.16,23.11Z"/><path class="cls-6" d="M92.29,201.17l-2.03,6.05,5.37-3.46-3.34-2.59Z"/><path class="cls-2" d="M109.26,203.38c-5.79.54-10.92-3.71-11.47-9.51-.54-5.79,3.71-10.93,9.5-11.47,5.79-.54,10.92,3.71,11.47,9.5s-3.71,10.93-9.5,11.47Z"/><path class="cls-4" d="M131.29,211.85c-10.33.97-19.48-6.61-20.45-16.94-.97-10.32,6.62-19.48,16.95-20.45,10.33-.97,19.48,6.61,20.45,16.94.97,10.32-6.62,19.48-16.95,20.45Z"/><path class="cls-2" d="M103.17,199.4c-.9,3.61-4.55,5.8-8.16,4.9-3.61-.9-5.8-4.55-4.9-8.16.9-3.61,4.55-5.8,8.16-4.9,3.61.9,5.8,4.55,4.9,8.16Z"/><path class="cls-6" d="M105.32,196.9c4.81-4.22,5.31-11.56,1.1-16.37-4.22-4.82-11.55-5.31-16.37-1.1l15.27,17.47Z"/><path class="cls-6" d="M134.73,145.78c-5.03-2.92-11.46-1.2-14.38,3.82-2.91,5.03-1.22,11.46,3.82,14.38l10.58-18.2h-.02Z"/><path class="cls-6" d="M109.18,164.32l-3.43,4.67,5.58-1.52-2.16-3.15Z"/><path class="cls-2" d="M134.59,163.67c-1.13,5.15-6.22,8.41-11.38,7.29-5.15-1.13-8.41-6.23-7.28-11.38,1.13-5.15,6.22-8.41,11.38-7.29,5.15,1.13,8.41,6.23,7.28,11.38Z"/><path class="cls-4" d="M148.41,181.8c-10.33.97-19.48-6.61-20.45-16.94-.97-10.32,6.62-19.48,16.95-20.45,10.33-.97,19.48,6.61,20.45,16.94.97,10.32-6.62,19.48-16.95,20.45Z"/><path class="cls-2" d="M119.09,165.79c-1.77,2.87-5.54,3.76-8.4,1.98-2.87-1.77-3.75-5.54-1.98-8.41,1.77-2.87,5.54-3.76,8.4-1.98,2.87,1.77,3.75,5.54,1.98,8.41Z"/><path class="cls-6" d="M120.96,162.69c1.62,5.58,7.46,8.8,13.03,7.19,5.58-1.6,8.81-7.44,7.19-13.04l-20.22,5.84Z"/><path class="cls-10" d="M608.02,90.6c-.16-5.72,4.34-10.47,10.07-10.64,5.73-.16,10.48,4.34,10.64,10.07.16,5.72-4.34,10.47-10.07,10.64-5.73.16-10.48-4.34-10.64-10.06Z"/><path class="cls-10" d="M560.5,91.91c-.16-5.73-4.92-10.2-10.64-10.07-5.73.15-10.23,4.91-10.07,10.64.17,5.73,4.93,10.21,10.64,10.07,5.73-.15,10.21-4.91,10.07-10.64Z"/><path class="cls-19" d="M560.29,149.4l-1.11-39.92,51.13-1.56,1.12,40.06c.28,10.4-7.91,19.04-18.29,19.33l-13.5.37c-10.4.28-19.05-7.9-19.33-18.29"/><path class="cls-10" d="M550.44,106.05l-1.32-47.6c-.42-15.41,11.6-28.27,26.87-28.68l13.16-.36c15.27-.42,27.98,11.75,28.41,27.16l1.32,47.6c.42,15.41-11.6,28.27-26.85,28.68l-13.16.37c-15.27.43-27.98-11.74-28.41-27.16"/><path class="cls-13" d="M575.78,86.63c-.36,2.07-4.03,3.17-8.21,2.45-4.18-.73-7.28-2.98-6.93-5.07.36-2.07,4.03-3.17,8.21-2.45,4.19.73,7.28,2.98,6.93,5.07Z"/><path class="cls-4" d="M572.01,85.24c.07,2.11-1.61,3.85-3.7,3.91-2.1.05-3.85-1.61-3.91-3.7-.05-2.09,1.61-3.85,3.7-3.91,2.1-.05,3.85,1.61,3.91,3.7Z"/><path class="cls-15" d="M550.35,106.9l-.75-26.99,2.07-.05,9.02,26.77-10.34.29h0Z"/><path class="cls-15" d="M618.93,105.7l-.76-27-2.07.07-7.52,27.22,10.37-.3h-.01Z"/><path class="cls-15" d="M617.78,48.96l1.59,56.73-2.78.08-1.59-56.73,2.78-.08Z"/><path class="cls-16" d="M548.01,43.93c-.22-7.93,6.02-14.52,13.94-14.75l35.9-.99.14,5.15c.18,6.1-2.09,12.01-6.28,16.45-4.19,4.44-9.98,7.02-16.08,7.2l-27.23.76-.38-13.82h-.01Z"/><path class="cls-9" d="M585.35,116.26c3.31-.09,6.29-1.43,8.25-3.74l-1.62-1.37c-1.7,1.98-4.36,3.07-7.32,2.98-2.55-.07-4.83-1.01-5.93-2.47l-1.7,1.28c1.52,1.98,4.34,3.23,7.55,3.32.25.01.49,0,.73,0"/><path class="cls-16" d="M588.3,67.49c-.04-1.15.39-2.26,1.17-3.07.79-.83,1.86-1.32,3-1.34l14.37-.4c1.15-.04,2.26.39,3.07,1.17.83.79,1.32,1.86,1.34,3l.1,3.8-22.99.63-.1-3.8h.04s.01.02.01.02Z"/><path class="cls-16" d="M556.14,68.38c-.04-1.15.39-2.26,1.17-3.07.79-.83,1.86-1.32,3-1.34l14.37-.4c1.15-.04,2.26.39,3.07,1.17.83.79,1.32,1.86,1.34,3l.1,3.8-22.99.63-.1-3.8h.04s.01.01.01.01Z"/><path class="cls-9" d="M585.48,101.86c1.6-.05,2.84-.87,3.93-1.6,1.79-1.2,2.89-1.92,5.15.23l1.4-1.48c-3.44-3.25-5.78-1.69-7.66-.45-.94.64-1.86,1.22-2.87,1.26-1.01.03-1.92-.47-2.85-.99-1.85-1.06-4.16-2.38-7.83.83l1.33,1.53c2.58-2.26,3.73-1.6,5.47-.59,1.08.63,2.29,1.33,3.91,1.29"/><path class="cls-15" d="M550.87,51.86l1.53,55.01-2.78.08-1.52-55.01,2.78-.08Z"/><path class="cls-16" d="M617.75,42c-.22-7.93-6.82-14.16-14.75-13.94l-5.48.15.46,16.86c.18,6.24,5.37,11.16,11.6,10.97l8.53-.23-.38-13.82h.01Z"/><path class="cls-13" d="M593.61,86.14c.48,2.05,4.21,2.95,8.34,2,4.13-.94,7.1-3.38,6.63-5.43-.48-2.05-4.21-2.95-8.34-1.99-4.14.94-7.1,3.38-6.63,5.43"/><path class="cls-4" d="M597.29,84.53c.07,2.11,1.81,3.77,3.91,3.7,2.1-.07,3.77-1.81,3.7-3.91-.07-2.1-1.81-3.77-3.91-3.7-2.1.07-3.77,1.81-3.69,3.91h-.01Z"/><path class="cls-3" d="M752.07,258.95c5.58,8.26,7.67,18.51,5.27,28.19-.11.45-.23.9-.36,1.35-3.5,12.09-11.04,17.77-19.71,18.82-8.5,1.03-99.75-22.36-99.35-22.3l7.1-40.57,37.74,3.78-12.43-24.56,1.12-71.44.97.55c1.95,1.1,6.76,1.28,15.41,11.05l64.25,95.13Z"/><path class="cls-1" d="M430.7,267.35c-3.92,7.09-4.61,15.63-1.43,23.08.16.38.34.76.52,1.14,4.25,8.81,11.8,12.38,13.79,13.24l94.95,18.59,8.06-36.13-60.41-23.82,21.68-37.69,5.28-65.3-3.12-7.45c-8.09,2.18-12.5,3.18-17.75,7.61-3.25,2.74-5.91,6.12-7.97,9.84l-53.6,96.91Z"/><path class="cls-18" d="M802.83,778.21c11.25,17.06,28.44,28.96,47.88,33.74h281.53c1.97-18.59,2.98-37.46,2.98-56.57,0-45.75-6.32-89.98-17.12-132.36-1.12-4.38-4.89-7.54-9.38-8.15h0s-139.03-16.7-139.03-16.7c-9.99-1.22-20.08-.51-29.87,2.04l-99.18,25.78c-28.03,7.24-49.95,29.04-57.39,56.96l-3.16,11.82c-5.91,22.21-2.14,45.95,10.6,65.11l12.13,18.34Z"/><path class="cls-7" d="M949.56,254.69c-5.29,7.14-15.36,8.64-22.51,3.35-7.14-5.29-8.65-15.36-3.35-22.5,5.29-7.14,15.36-8.64,22.51-3.35,7.14,5.29,8.65,15.36,3.35,22.5Z"/><path class="cls-7" d="M924.29,277.26c-7.27,9.82-20.59,12.3-20.59,12.3,0,0-1.52-13.46,5.76-23.28,7.27-9.82,20.59-12.3,20.59-12.3,0,0,1.52,13.46-5.76,23.28Z"/><path class="cls-11" d="M326.71,242.75l70.95,35.59-32.14,29.13-52.56-18.13,13.75-46.57h0Z"/><path class="cls-11" d="M431.09,408.64l11.46,36.4c.79,2.51,3.45,3.89,5.97,3.1l.64-.2c2.51-.79,3.89-3.45,3.1-5.97l-11.46-36.4-9.71,3.06h0Z"/><path class="cls-11" d="M366.12,308.95l41.01,89.33,28.42-6.5-25.7-98.45c-3.55-13.58-18.2-20.96-31.22-15.75-12.36,4.95-18.07,19.26-12.51,31.37Z"/><path class="cls-11" d="M406.72,392.46l-.95,30.45,38.02-7.32-9.35-29.15-27.72,6.01h0Z"/><path class="cls-11" d="M416.51,420.3l11.44,42.59c.68,2.53,3.29,4.05,5.83,3.35l.64-.16c2.53-.68,4.05-3.29,3.35-5.83l-11.44-42.59-9.83,2.65Z"/><path class="cls-11" d="M406.86,419.66l10.99,40.92c.68,2.53,3.29,4.05,5.83,3.35l.64-.17c2.53-.68,4.05-3.29,3.35-5.83l-10.99-40.92-9.83,2.65Z"/><path class="cls-11" d="M425.59,417.24l9.91,36.86c.68,2.53,3.27,4.03,5.83,3.35l.65-.16c2.53-.68,4.05-3.29,3.35-5.83l-9.91-36.86-9.82,2.65Z"/><path class="cls-11" d="M406.6,392.93l-11.53,39.24c-.78,2.65.73,5.44,3.38,6.22l.68.19c2.65.78,5.44-.73,6.21-3.4l11.53-39.23-10.29-3.02h0s.02.02.02.02Z"/><path class="cls-6" d="M386.57,270.01s-86.71-67.44-116.87-47.72c-16.85,12.47-23.05,34.59-11.88,52.3,11.16,17.74,92.17,27.5,92.17,27.5l36.58-32.09h0Z"/><path class="cls-11" d="M164.02,360.91l13.09,79.53,37.52-23.54-2.02-55.54-48.59-.45Z"/><path class="cls-11" d="M312.87,470.72l37.25,8.32c2.56.57,4.18,3.11,3.61,5.68l-.14.67c-.57,2.56-3.11,4.18-5.69,3.61l-37.25-8.32,2.21-9.94v-.02Z"/><path class="cls-11" d="M207.97,414.51l92.51,33.23-4.04,28.88-100.28-17.2c-13.84-2.36-22.46-16.33-18.37-29.75,3.87-12.75,17.66-19.65,30.18-15.14"/><path class="cls-11" d="M294.65,447.79l30.23-3.54-4.02,38.5-29.85-6.82,3.63-28.14Z"/><path class="cls-11" d="M323.22,455.17l43.41,7.76c2.59.46,4.3,2.94,3.84,5.51l-.13.66c-.46,2.59-2.94,4.3-5.51,3.84l-43.41-7.76,1.79-10.02h0Z"/><path class="cls-11" d="M321.77,445.64l41.71,7.46c2.59.46,4.3,2.93,3.84,5.51l-.12.66c-.46,2.59-2.94,4.3-5.51,3.84l-41.73-7.46,1.79-10.02h.02-.01Z"/><path class="cls-11" d="M320.95,464.51l37.56,6.71c2.59.46,4.3,2.94,3.85,5.51l-.13.66c-.46,2.59-2.94,4.3-5.52,3.84l-37.56-6.72,1.79-10.02h.02-.01Z"/><path class="cls-11" d="M295.1,447.63l38.11-14.86c2.56-1.01,5.49.27,6.48,2.86l.27.66c1,2.59-.27,5.48-2.86,6.48l-38.11,14.84-3.89-10v.02Z"/><path class="cls-6" d="M174.81,437.34s-41.73-107.93-17.29-130.86c14.93-14.7,38.67-15.35,53.94-.98,15.27,14.35,5.77,111.54,5.77,111.54l-42.41,20.3h-.02Z"/><rect class="cls-6" x="184.66" y="250.3" width="71.13" height="35.18" transform="translate(-116.74 185.92) rotate(-36.91)"/></g></g></svg>