<svg viewBox="0 0 1600 1200" fill="none" xmlns="http://www.w3.org/2000/svg"><path d="M1156.02 424.09H1052.61C1054.75 416.515 1058.87 409.598 1064.55 403.999L1064.63 403.916C1068.01 400.54 1070.07 395.929 1070.07 390.824C1070.07 380.613 1061.67 372.297 1051.38 372.297H685.516C680.33 372.297 675.719 374.355 672.262 377.731C668.886 381.108 666.828 385.719 666.828 390.824C666.828 396.011 669.051 400.787 672.509 404.163C678.354 409.763 682.47 416.597 684.528 424.173H580.961C572.728 424.173 566.06 430.842 566.06 438.994V501.986C566.06 604.256 649.704 687.174 752.778 687.174H772.783C779.946 694.997 787.355 701.996 795.176 708.007C817.816 725.711 831.236 752.472 831.236 780.962C831.236 809.947 815.511 836.708 789.99 850.871L775.253 859.105C772.866 860.423 771.466 862.893 771.466 865.528V898.136H965.676V865.446C965.676 862.811 964.194 860.258 961.889 859.023L947.152 850.789C921.713 836.543 905.906 809.865 905.906 780.88C905.906 752.307 919.49 725.546 942.213 707.678C949.869 701.667 957.196 694.75 964.276 687.092H984.282C1087.36 687.092 1171 604.173 1171 501.904V438.912C1170.92 430.678 1164.25 424.09 1156.02 424.09ZM749.814 657.366C664.605 655.884 595.862 586.634 595.862 501.822V453.651H687.163C693.42 534.923 716.471 606.643 749.814 657.366ZM1141.03 501.822C1141.03 586.634 1072.29 655.802 987.081 657.366L986.999 657.449C1020.42 606.726 1043.48 535.006 1049.73 453.651H1141.03V501.822Z" fill="#FAA332"/><path d="M998.607 895.496H738.288V1020H998.607V895.496Z" fill="#242143"/><path d="M958.266 921.109H778.628V994.394H958.266V921.109Z" fill="#E6E3DA"/><path d="M711.696 488.232L716.471 450.848L657.607 442.367L648.963 509.806L678.518 513.429C694.819 515.405 709.72 504.124 711.696 488.232Z" fill="#FFD4C2"/><path d="M750.637 455.298L754.095 428.29L761.011 374.438C762.41 363.651 754.589 353.852 743.557 352.535L702.394 347.512C691.362 346.195 681.318 353.77 679.918 364.557L670.039 441.3C668.639 452.087 676.461 461.886 687.492 463.203L732.855 468.72C741.664 469.791 749.567 463.78 750.637 455.298Z" fill="#FFD4C2"/><path d="M762.245 376.412C763.81 363.978 754.836 352.697 742.158 351.133L686.34 344.298C667.405 341.993 650.116 355.085 647.728 373.53L646.987 379.294C646.411 383.823 649.704 387.94 654.314 388.516L733.513 398.233C747.591 399.962 760.517 390.163 762.245 376.412Z" fill="#181111"/><path d="M760.269 428.041L754.835 416.184L752.365 435.287L754.176 435.534C759.116 436.11 762.574 431.829 760.269 428.041Z" fill="#FFD4C2"/><path d="M753.107 447.391C756.07 445.167 754.506 440.474 749.566 442.121C747.014 443.026 744.956 445.25 740.593 444.838C743.557 448.461 746.52 451.261 749.072 452.331C752.942 453.896 755.165 449.037 753.107 447.391Z" fill="#C60A26"/><path d="M754.177 409.597C747.838 409.268 741.581 408.527 735.406 407.456C738.864 406.138 742.322 404.821 746.026 404.738C749.731 404.738 753.683 406.138 754.177 409.597Z" fill="#181111"/><path d="M749.65 412.145C749.65 412.145 751.214 416.18 748.003 420.132C748.003 420.132 740.841 420.626 737.054 411.651C737.054 411.651 744.545 410.663 749.65 412.145Z" fill="white"/><mask id="mask0_2742_6028" style="mask-type:luminance" maskUnits="userSpaceOnUse" x="737" y="411" width="14" height="10"><path d="M749.648 412.148C749.648 412.148 751.212 416.182 748.001 420.135C748.001 420.135 740.839 420.629 737.052 411.654C737.052 411.654 739.522 411.324 742.568 411.324C744.873 411.324 747.507 411.489 749.648 412.148Z" fill="white"/></mask><g mask="url(#mask0_2742_6028)"><path d="M747.591 421.042C745.533 420.713 744.133 418.325 744.545 415.69C744.956 413.055 747.014 411.161 749.073 411.49C751.131 411.82 752.53 414.208 752.119 416.843C751.625 419.478 749.649 421.371 747.591 421.042Z" fill="#1D1D1B"/></g><path d="M751.461 412.728C751.461 412.728 744.217 409.516 736.148 411.41L737.713 414.046C737.713 414.046 743.805 411.328 750.556 414.705L751.461 412.728Z" fill="#1D1D1B"/><path d="M733.266 412.231L735.489 394.774L700.747 390.492L696.384 424.417L714.249 426.641C723.634 427.793 732.114 421.371 733.266 412.231Z" fill="#181111"/><path d="M704.534 438.993C716.389 427.219 712.931 373.531 712.931 373.531L652.256 377.237L660.159 452.498C660.242 452.498 683.705 459.744 704.534 438.993Z" fill="#181111"/><path d="M630.522 461.39C661.477 393.787 629.04 375.26 670.45 350.475C687.163 340.512 743.228 412.808 726.845 423.266C700.171 440.311 736.559 448.38 710.215 470.86C709.803 471.271 630.357 461.72 630.522 461.39Z" fill="#181111"/><path d="M715.731 420.303C716.801 414.045 712.52 408.116 706.098 407.046C699.677 405.975 693.585 410.175 692.514 416.433C691.444 422.691 695.725 428.619 702.147 429.69C708.568 430.76 714.66 426.561 715.731 420.303Z" fill="#FFD4C2"/><path d="M734.996 663.129L760.105 571.4C764.304 556.084 760.435 539.78 749.897 527.841L714.908 488.728C714.908 488.728 654.068 476.624 653.245 477.777C597.674 552.297 640.731 567.777 618.338 686.844C613.069 714.676 734.996 663.129 734.996 663.129Z" fill="#232144"/><path d="M705.276 507.832L778.053 561.684C792.46 572.306 791.225 593.88 775.666 602.855C767.68 607.466 757.718 607.466 749.65 602.855L671.11 557.402C650.117 545.298 651.434 515.243 673.333 504.868C683.706 499.845 696.055 500.997 705.276 507.832Z" fill="#FFD4C2"/><path d="M837.41 473.993L857.745 437.927C859.227 435.21 862.685 434.304 865.484 435.786C868.201 437.269 869.271 440.645 867.707 443.28L847.372 479.346L837.41 473.993Z" fill="#FFD4C2"/><path d="M744.874 565.968L809.419 479.426L839.139 492.436L789.331 591.988C782.498 605.739 764.797 610.433 751.707 602.116C739.194 594.211 736.148 577.743 744.874 565.968Z" fill="#FFD4C2"/><path d="M807.195 486.092L812.794 453.402L852.805 469.294L836.175 498.444L807.195 486.092Z" fill="#FFD4C2"/><path d="M823.991 458.429L845.726 415.775C847.125 413.058 850.501 411.905 853.382 413.305C856.181 414.705 857.334 417.998 855.934 420.716L834.2 463.369L823.991 458.429Z" fill="#FFD4C2"/><path d="M813.37 457.114L834.199 416.107C835.598 413.39 838.974 412.237 841.855 413.637C844.654 415.037 845.807 418.331 844.407 421.048L823.496 461.972L813.37 457.114Z" fill="#FFD4C2"/><path d="M807.114 485.517L803.162 441.546C802.833 438.335 805.303 435.535 808.596 435.206C811.889 434.959 814.77 437.264 815.1 440.476L819.051 484.446L807.114 485.517Z" fill="#FFD4C2"/><path d="M833.294 463.696L852.065 426.806C853.464 424.089 856.84 422.936 859.721 424.336C862.52 425.736 863.673 429.03 862.273 431.747L843.502 468.636L833.294 463.696Z" fill="#FFD4C2"/><path d="M695.395 949.926C775.994 948.032 835.681 947.209 835.681 947.209L754.753 711.627C754.753 711.627 736.065 703.146 698.277 704.463C653.491 705.945 622.453 748.763 636.037 790.429C657.936 857.867 694.325 949.597 695.395 949.926Z" fill="#891229"/><path d="M446.932 939.39L530.247 953.306L531.235 888.009L447.179 886.773L446.932 939.39Z" fill="#FFD4C2"/><path d="M431.854 886.613L430 1016.12L449.51 1016.4L451.363 886.893L431.854 886.613Z" fill="#E6E3DA"/><path d="M451.214 886.855L494.106 887.432L494.271 947.212L481.181 947.295L459.611 1007.82C458.541 1012.92 453.93 1016.63 448.579 1016.54L449.485 1016.38L451.214 886.855Z" fill="#232144"/><path d="M507.442 884.219L795.917 916.168C821.192 917.979 840.291 939.306 838.81 964.009C837.245 989.288 814.688 1008.39 788.837 1006.41L502.256 961.95L507.442 884.219Z" fill="#891229"/><path d="M861.203 757.081C862.191 678.444 862.685 618.828 862.685 618.828L619.408 684.455C619.408 684.455 610.105 702.406 610.023 739.295C609.94 783.019 652.668 814.803 695.808 803.11C765.703 784.172 860.791 758.069 861.203 757.081Z" fill="#E73245"/><path d="M823.332 1003.78L836.834 922.428L784.309 916.664L774.183 983.608L823.332 1003.78Z" fill="#FFD4C2"/><path d="M772.7 1020L772.783 1000.16L905.659 1000.98L905.494 1020H772.7Z" fill="#E6E3DA"/><path d="M772.783 1000.49L773.03 958.655L834.282 957.914L834.529 970.677L896.768 991.18C902.037 992.169 905.824 996.615 905.824 1001.88L905.659 1000.98L772.783 1000.49Z" fill="#232144"/><path d="M763.892 937.657L823.497 657.61C827.119 633.154 850.253 616.027 875.445 619.239C901.213 622.532 919.161 645.835 915.291 670.867L843.09 948.279L763.892 937.657Z" fill="#E73245"/><path d="M726.104 519.443L693.667 499.104C677.037 488.729 654.809 493.67 644.518 510.138C635.297 524.795 638.59 543.899 652.339 554.768L685.517 581.2L726.104 519.443Z" fill="#232144"/><path d="M712.849 394.035C712.849 394.035 715.072 410.751 703.793 418.409C698.195 422.196 694.408 424.749 693.338 433.971C692.267 443.194 706.757 439.241 706.757 439.241L717.954 421.62L723.058 406.798L712.849 394.035Z" fill="#181111"/><path d="M782.498 457.525C782.745 457.443 782.909 457.443 783.156 457.443H783.238C788.013 456.866 790.483 454.972 791.8 453.408C789.495 452.42 784.803 451.102 781.674 455.219C781.674 455.219 775.335 453.82 772.865 462.054C772.865 462.054 772.865 462.054 772.948 462.136C774.347 461.642 779.369 460.078 782.498 457.525Z" fill="#C60A26"/><path d="M785.873 459.171C785.708 459.336 785.544 459.583 785.379 459.747C785.297 459.83 785.297 459.83 785.297 459.83C784.72 460.324 783.815 460.736 782.992 460.818C782.992 460.818 777.393 460.653 775.829 463.782C780.028 466.17 787.931 468.558 792.542 456.289C789.248 456.371 786.943 458.183 785.873 459.171Z" fill="#C60A26"/><path d="M769.901 480.665C770.066 480.83 770.231 480.994 770.395 481.159C770.395 481.159 770.395 481.241 770.478 481.241C773.688 484.7 776.734 485.688 778.793 485.77C778.299 483.3 776.652 478.853 771.466 478.689C771.466 478.689 768.913 472.76 760.681 475.56C760.681 475.56 760.681 475.642 760.681 475.724C761.669 476.548 765.95 479.677 769.901 480.665Z" fill="#C60A26"/><path d="M770.231 484.449C769.984 484.449 769.737 484.367 769.49 484.367C769.407 484.367 769.407 484.367 769.407 484.367C768.666 484.202 767.761 483.708 767.267 483.049C767.267 483.049 764.138 478.438 760.681 479.015C761.092 483.791 763.727 491.448 776.57 488.072C774.594 485.52 771.712 484.696 770.231 484.449Z" fill="#C60A26"/><path d="M862.026 270.108L884.831 246.393C892.158 238.818 887.63 225.89 877.01 225.067C876.598 225.067 876.187 224.984 875.775 224.984C869.683 224.984 864.414 228.525 862.026 233.548C859.556 228.443 854.37 224.984 848.278 224.984C847.866 224.984 847.454 224.984 847.043 225.067C836.505 225.89 831.977 238.818 839.222 246.393L862.026 270.108Z" fill="#D32E2C"/><path d="M814.771 333.018L827.778 298.517C831.977 287.483 821.439 276.037 810.078 279.742C809.666 279.907 809.172 280.072 808.761 280.237C802.421 282.871 798.552 288.8 798.305 295.14C793.448 290.941 786.45 289.541 780.111 292.176C779.699 292.341 779.288 292.588 778.876 292.753C768.256 298.187 769.408 313.668 780.358 318.361L814.771 333.018Z" fill="#D32E2C"/><path d="M795.505 214.032L817.075 204.728C823.99 201.763 824.649 192.047 817.98 188.671C817.733 188.506 817.486 188.424 817.157 188.259C813.205 186.612 808.76 187.518 805.796 190.153C805.631 186.201 803.162 182.413 799.21 180.766C798.963 180.684 798.634 180.519 798.387 180.437C791.224 178.131 784.638 185.377 787.272 192.294L795.505 214.032Z" fill="#D32E2C"/><path d="M733.514 414.207L753.437 418.159L751.873 425.982L731.867 422.03L733.514 414.207Z" fill="#FFD4C2"/></svg>