<svg viewBox="0 0 1600 1200" fill="none" xmlns="http://www.w3.org/2000/svg"><path d="M818.676 510.413L875.188 459.623C885.861 450.028 888.22 434.207 880.81 421.91L866.376 397.98L799.263 491.036L818.676 510.413Z" fill="#FFA28F"/><path d="M796.271 494.585L797.684 520.531L828.621 515.063L819.923 488.379L796.271 494.585Z" fill="#FFA28F"/><path d="M799.336 558.066C801.237 559.865 804.23 559.792 806.028 557.89L820.411 542.713L813.542 536.195L799.159 551.372C797.361 553.264 797.434 556.268 799.336 558.066Z" fill="#FFA28F"/><path d="M797.85 553.348C799.99 554.845 802.952 554.325 804.449 552.173L816.42 535.032L808.657 529.605L796.686 546.747C795.179 548.899 795.709 551.851 797.85 553.348Z" fill="#FFA28F"/><path d="M819.5 511.785L811.265 540.059L820.365 542.71L828.599 514.436L819.5 511.785Z" fill="#FFA28F"/><path d="M815.362 509.868L805.582 537.645L814.521 540.794L824.301 513.018L815.362 509.868Z" fill="#FFA28F"/><path d="M805.052 526.715C805.052 526.715 806.631 522.64 807.307 521.414C808.699 518.867 811.484 520.416 810.757 522.744C810.289 524.241 808.471 529.085 807.338 532.724C812.908 526.133 823.571 517.141 823.571 517.141L805.145 513.191L805.052 526.715Z" fill="#FFA28F"/><path d="M710.379 899.426L835.573 726.734L865.721 750.996L732.213 916.994L710.379 899.426Z" fill="#FFA28F"/><path d="M891.992 951.651L902.655 738.605H863.965V951.651H891.992Z" fill="#FFA28F"/><path d="M687.122 931.287L751.075 843.293L775.902 862.68L706.794 948.22L687.122 931.287Z" fill="#BAC09A"/><path d="M751.356 842.941L775.881 862.671L773.169 866.039L748.872 846.496L751.356 842.941Z" fill="#E6E3DA"/><path d="M685.147 929.16L674.204 943.308C668.125 941.322 661.765 941.748 658.782 945.449L690.8 970.803L709.122 948.017L685.147 929.16Z" fill="#3867C3"/><path d="M659.349 944.762L656.34 948.504L688.155 974.104L691.165 970.362L659.349 944.762Z" fill="#3867C3"/><path d="M890.434 987.234L893.053 941.829L864.027 941.621L864.266 987.588L890.434 987.234Z" fill="#BAC09A"/><path d="M893.406 939.562H863.726V943.887H893.135L893.406 939.562Z" fill="#E6E3DA"/><path d="M893.395 986.32L893.063 1004.2C899.038 1006.47 903.736 1010.78 903.736 1015.53L862.905 1015.22V985.977L893.395 986.32Z" fill="#3867C3"/><path d="M903.725 1015.2H862.895V1020H903.725V1015.2Z" fill="#3867C3"/><path d="M886.744 914.192C887.939 915.2 888.095 916.988 887.097 918.184L877.006 930.221C875.998 931.427 874.211 931.583 873.016 930.574C871.821 929.566 871.665 927.778 872.663 926.583L882.753 914.545C883.751 913.34 885.538 913.184 886.744 914.192Z" fill="#E6E3DA"/><path d="M888.054 929.25C887.046 930.445 885.258 930.612 884.063 929.603L872.029 919.51C870.824 918.501 870.678 916.714 871.676 915.518C872.684 914.323 874.471 914.167 875.666 915.165L887.7 925.258C888.906 926.256 889.062 928.055 888.054 929.25Z" fill="#E6E3DA"/><path d="M880.8 567.172L815.329 580.28L823.362 610.062L888.76 603.232L880.8 567.172Z" fill="#FFA28F"/><path d="M840.509 614.978L827.135 575.976L886.651 564.043L888.864 607.349L840.509 614.978Z" fill="#3867C3"/><path d="M997.296 658.939L1026.17 628.316L985.771 601.684L957.369 630.353L997.296 658.939Z" fill="#3867C3"/><path d="M981.967 599.032C981.863 598.98 981.759 598.938 981.655 598.886L981.676 598.845L899.079 564.874V564.884C898.674 564.728 898.259 564.573 897.832 564.437C886.484 560.778 874.159 567.358 870.283 579.126C868.038 585.965 878.794 600.373 884.177 608.741L858.779 670.529L935.13 701.932L960.528 640.144C970.037 637.93 988.14 635.061 991.227 628.866C996.745 617.764 992.598 604.417 981.967 599.032Z" fill="#3867C3"/><path d="M811.412 781.452L887.929 813.313L966.432 630.039L887.067 597.398L811.412 781.452Z" fill="#F7E5CD"/><path d="M911.021 822.816L959.157 640.02L887.929 813.315L911.021 822.816Z" fill="#F7E5CD"/><path d="M900.283 565.357L882.549 608.496L889.643 611.414L907.376 568.274L900.283 565.357Z" fill="#F7E5CD"/><path d="M972.549 595.079L954.815 638.219L961.909 641.136L979.642 597.997L972.549 595.079Z" fill="#F7E5CD"/><path d="M790.43 773.222L884.749 609.418L813.521 782.723L790.43 773.222Z" fill="#F7E5CD"/><path d="M1002.22 526.756C999.135 534.271 990.53 537.868 983.017 534.77C975.503 531.683 971.908 523.076 975.004 515.56C978.091 508.045 986.696 504.448 994.209 507.546C1001.71 510.643 1005.31 519.24 1002.22 526.756Z" fill="#5C1C13"/><path d="M933.447 498.48C930.36 505.995 933.946 514.602 941.459 517.69C948.983 520.777 957.577 517.191 960.664 509.675C963.75 502.159 960.165 493.552 952.652 490.465C945.138 487.367 936.533 490.954 933.447 498.48Z" fill="#5C1C13"/><path d="M981.718 562.481C980.17 566.265 975.846 568.063 972.064 566.514C968.291 564.965 966.483 560.641 968.042 556.857C969.59 553.084 973.914 551.275 977.696 552.824C981.469 554.383 983.277 558.707 981.718 562.481Z" fill="#FFA28F"/><path d="M935.317 543.375C933.769 547.159 929.446 548.957 925.663 547.409C921.891 545.86 920.082 541.535 921.641 537.752C923.19 533.978 927.513 532.17 931.295 533.718C935.068 535.278 936.876 539.602 935.317 543.375Z" fill="#FFA28F"/><path d="M954.2 587.963L963.48 565.385L932.605 552.578L923.283 575.25C919.552 584.314 923.46 594.512 931.992 598.015C940.534 601.528 950.469 597.027 954.2 587.963Z" fill="#F5836D"/><path d="M927.149 546.112L936.18 524.126C941.22 511.871 955.228 506.018 967.481 511.06L967.917 511.237C980.17 516.278 986.01 530.291 980.98 542.546L971.949 564.532C966.909 576.788 952.9 582.629 940.648 577.598L940.212 577.422C927.959 572.38 922.109 558.357 927.149 546.112Z" fill="#FFA28F"/><path d="M944.576 542.777C943.974 544.243 942.3 544.939 940.846 544.336C939.38 543.733 938.684 542.06 939.287 540.604C939.889 539.139 941.563 538.442 943.028 539.045C944.483 539.638 945.179 541.311 944.576 542.777Z" fill="black"/><path d="M948.307 529.418L948.047 529.314C945.293 528.191 942.311 528.108 939.993 529.075L954.262 534.886C953.264 532.557 951.061 530.541 948.307 529.418Z" fill="#5C1C13"/><path d="M967.679 538.98L967.959 539C970.921 539.188 973.654 540.393 975.327 542.275L959.947 541.329C961.859 539.666 964.717 538.803 967.679 538.98Z" fill="#5C1C13"/><path d="M959.884 552.184C958.99 551.664 959.001 550.385 959.884 549.845C961.162 549.076 963.033 548.244 965.07 548.358C967.263 548.483 969.154 549.678 970.328 550.624C971.076 551.227 970.973 552.381 970.141 552.859C969.04 553.483 967.398 554.138 965.392 554.024C963.282 553.909 961.246 552.974 959.884 552.184Z" fill="white"/><path d="M962.482 550.132C961.879 551.597 962.576 553.271 964.041 553.863C965.506 554.466 967.179 553.77 967.782 552.304C968.385 550.839 967.689 549.165 966.223 548.572C964.758 547.97 963.085 548.666 962.482 550.132Z" fill="black"/><path d="M959.427 550.231C963.043 546.582 968.031 547.507 971.43 551.073C970.972 551.405 971.253 551.135 970.796 551.468C970.307 550.802 968.25 549.118 965.371 548.755C962.16 548.349 959.978 550.044 959.427 550.231Z" fill="black"/><path d="M949.347 555.714C948.578 555.402 948.141 554.727 947.757 554.144C947.123 553.178 946.738 552.596 945.2 553.323L944.826 552.284C947.164 551.172 947.996 552.44 948.65 553.458C948.983 553.968 949.305 554.456 949.794 554.654C950.292 554.862 950.822 554.747 951.384 554.633C952.506 554.404 953.899 554.113 955.031 556.504L954.065 557.076C953.265 555.392 952.568 555.537 951.519 555.756C950.864 555.88 950.126 556.036 949.347 555.714Z" fill="#010101"/><path d="M974.392 512.129L962.254 507.14C951.446 502.701 939.09 507.857 934.642 518.657L928.542 533.512L932.044 534.946L933.509 531.37C935.473 526.589 941.355 525.892 946.936 526.464C954.272 527.212 961.235 523.106 964.031 516.287L966.67 517.368C963.864 524.187 965.922 532.005 971.669 536.63C976.044 540.154 979.733 544.78 977.769 549.562L976.304 553.138L979.806 554.572L985.906 539.718C990.354 528.938 985.199 516.578 974.392 512.129Z" fill="#5C1C13"/><path d="M620.82 335.344L605.595 427.381L650.437 446.123L679.743 343.535L620.82 335.344Z" fill="#F5826E"/><path d="M644.369 454.957L636.938 304.656C636.938 304.656 703.604 284.438 724.066 284.438C742.71 284.438 814.665 305.009 814.665 305.009L803.763 454.957H644.369Z" fill="#BAC09A"/><path d="M674.495 1005.16H612.111V1019.91H674.495V1005.16Z" fill="#00401E"/><path d="M684.41 931.462L724.71 494.508L645.824 503.25L615.292 925.599C613.733 945.692 629.56 962.886 649.71 962.979C667.689 963.062 682.757 949.382 684.41 931.462Z" fill="#00401E"/><path d="M762.87 931.359L721.333 499L799.565 505.788L832.082 925.34C833.651 945.528 817.699 962.773 797.466 962.773C779.56 962.794 764.585 949.187 762.87 931.359Z" fill="#00401E"/><path d="M644.368 551.524V473.219H803.752L802.9 552.002L644.368 551.524Z" fill="#00401E"/><path d="M803.752 355.207H644.368V519.115H803.752V355.207Z" fill="#BAC09A"/><path d="M644.369 454.957L636.938 304.656C636.938 304.656 703.604 284.438 724.066 284.438C742.71 284.438 814.665 305.009 814.665 305.009L803.763 454.957H644.369Z" fill="#F7E5CD"/><path d="M781.004 355.655L840.499 350.457L881.912 424.501L842.515 444.625L781.004 355.655Z" fill="#FFA28F"/><path d="M837.829 334.722C837.829 334.722 828.6 298.922 801.269 302.903C782.542 305.637 768.149 320.595 769.459 339.472C770.768 358.36 799.066 388.963 799.066 388.963L837.829 334.722Z" fill="#F7E5CD"/><path d="M806.34 397.233L856.856 350.435L839.564 331.734L789.037 378.543L806.34 397.233Z" fill="#F7E5CD"/><path d="M612.86 340.165C612.86 340.165 616.747 304.438 644.452 303.409C663.366 302.712 679.775 316.132 681.199 335.01C682.622 353.887 657.671 388.253 657.671 388.253L612.86 340.165Z" fill="#F7E5CD"/><path d="M609.569 337.459L595.137 358.453L651.876 397.479L666.308 376.485L609.569 337.459Z" fill="#F7E5CD"/><path d="M700.351 241.518C700.351 235.905 695.799 231.352 690.187 231.352C684.576 231.352 680.024 235.905 680.024 241.518C680.024 247.131 684.576 251.684 690.187 251.684C695.799 251.684 700.351 247.131 700.351 241.518Z" fill="#FFA38F"/><path d="M747.012 241.518C747.012 235.905 751.563 231.352 757.175 231.352C762.787 231.352 767.339 235.905 767.339 241.518C767.339 247.131 762.787 251.684 757.175 251.684C751.563 251.684 747.012 247.131 747.012 241.518Z" fill="#FFA38F"/><path d="M748.799 297.965V258.755L698.574 258.609V297.965C698.574 308.173 706.846 316.447 717.051 316.447H730.311C740.516 316.437 748.799 308.173 748.799 297.965Z" fill="#F5826E"/><path d="M757.29 255.134V208.378C757.29 193.222 745.141 180.945 730.145 180.945H717.217C702.232 180.945 690.073 193.232 690.073 208.378V255.134C690.073 270.29 702.222 282.567 717.217 282.567H730.145C745.141 282.567 757.29 270.28 757.29 255.134Z" fill="#FFA28F"/><path d="M757.383 255.975V229.457H755.346L747.219 255.975H757.383Z" fill="#76341E"/><path d="M690.063 256.654V230.137H692.1L700.226 256.654H690.063Z" fill="#76341E"/><path d="M692.225 200.926H689.491V256.653H692.225V200.926Z" fill="#76341E"/><path d="M757.975 194.085C757.975 186.31 751.667 180 743.883 180H708.612V185.062C708.612 191.06 710.992 196.809 715.232 201.039C719.472 205.281 725.219 207.661 731.215 207.661H757.965V194.085H757.975Z" fill="#76341E"/><path d="M722.798 251.841C721.229 251.841 719.992 251.061 718.901 250.375C717.103 249.252 716.022 248.566 713.85 250.739L712.437 249.325C715.731 246.03 718.07 247.506 719.951 248.68C720.896 249.273 721.8 249.834 722.798 249.834C723.816 249.834 724.669 249.315 725.562 248.764C727.35 247.672 729.574 246.3 733.263 249.367L731.995 250.905C729.407 248.753 728.285 249.439 726.602 250.468C725.562 251.113 724.388 251.841 722.798 251.841Z" fill="#1C1C1C"/><path d="M757.987 201.922H755.253V255.965H757.987V201.922Z" fill="#76341E"/><path d="M689.491 194.085C689.491 186.31 695.799 180 703.583 180H708.966V196.57C708.966 202.692 703.999 207.661 697.867 207.661H689.491V194.085Z" fill="#76341E"/><path d="M719.067 227.56C719.067 226.438 718.62 225.367 717.831 224.577C717.041 223.787 715.96 223.34 714.848 223.34H700.725C699.603 223.34 698.532 223.787 697.742 224.577C696.953 225.367 696.506 226.448 696.506 227.56V231.292H719.078V227.56H719.067Z" fill="#76341E"/><path d="M750.68 219.81C750.68 218.688 750.233 217.617 749.443 216.827C748.653 216.037 747.573 215.59 746.461 215.59H732.338C731.216 215.59 730.145 216.037 729.355 216.827C728.566 217.617 728.119 218.698 728.119 219.81V223.542H750.69V219.81H750.68Z" fill="#76341E"/><path d="M716.532 262.68H708.488V265.071H716.532V262.68Z" fill="black"/><path d="M771.298 293.605V343.2C771.298 353.615 762.849 362.066 752.436 362.066H697.929C687.516 362.066 679.068 353.615 679.068 343.2V292.773C657.13 298.345 636.325 304.655 636.325 304.655L643.755 454.956L644.264 522.721L803.503 523.366L803.763 454.956L814.051 305.008C814.041 305.008 793.36 299.094 771.298 293.605Z" fill="#00401E"/><path d="M627.658 1006.84L605.024 883.762L699.468 885.342L672.604 1006.84H627.658Z" fill="#BAC09A"/><path d="M674.496 1006.95C674.496 991.899 660.529 979.695 643.309 979.695C626.079 979.695 612.122 991.899 612.122 1006.95" fill="#00401E"/><path d="M837.039 1005.16H774.655V1019.91H837.039V1005.16Z" fill="#00401E"/><path d="M821.492 1006.84L844.126 883.762L749.682 885.342L776.546 1006.84H821.492Z" fill="#BAC09A"/><path d="M774.655 1006.95C774.655 991.899 788.622 979.695 805.842 979.695C823.072 979.695 837.028 991.899 837.028 1006.95" fill="#00401E"/><path d="M797.164 531.992C799.513 533.156 802.35 532.19 803.514 529.84L816.109 504.352L807.619 500.152L795.023 525.641C793.859 527.99 794.816 530.828 797.164 531.992Z" fill="#FFA28F"/><path d="M700.777 358.743L651.695 443.306C645.065 455.572 629.622 459.949 617.547 452.963C604.588 445.468 601.2 428.285 610.334 416.425L671.367 337.797L700.777 358.743Z" fill="#FFA28F"/><path d="M1330 964.76C1210.46 964.76 1114.69 932.567 1045.32 869.084C990.531 818.929 964.051 761.008 947.102 716.153C931.046 673.659 922.722 644.49 918.399 625.821C916.57 628.773 914.45 631.798 911.997 634.812C899.308 650.415 875.126 668.555 831.895 666.34C790.233 664.199 764.491 644.282 753.195 605.447C743.769 573.035 745.817 531.985 747.801 492.297C750.244 443.607 752.54 397.619 733.512 376.538C697.504 336.632 653.16 316.258 652.713 316.06L659.157 301.809C661.089 302.682 706.836 323.638 745.12 366.06C768.482 391.944 766.019 441.07 763.41 493.087C761.488 531.486 759.503 571.185 768.191 601.081C777.523 633.17 798.016 648.939 832.674 650.717C901.948 654.293 913.421 599.137 913.868 596.798L929.362 598.004C929.373 598.274 930.973 629.293 961.692 710.623C978.029 753.856 1003.49 809.625 1055.83 857.546C1122.22 918.315 1214.45 949.126 1329.96 949.126V964.76H1330Z" fill="#FF6200"/><path d="M657.224 295.949L646.01 315.97L594.497 281.323L600.773 270.117L657.224 295.949Z" fill="#E6E3DA"/><path d="M669.954 301.902L657.743 323.721C655.852 327.1 651.581 328.306 648.203 326.414C644.826 324.522 643.62 320.25 645.512 316.871L657.723 295.052C659.614 291.674 663.885 290.468 667.263 292.36C670.65 294.252 671.846 298.524 669.954 301.902Z" fill="#D8CBC5"/><path d="M601.044 270.913L595.099 281.537C594.112 283.304 591.847 283.948 590.08 282.951C588.313 281.963 587.669 279.697 588.667 277.93L594.611 267.306C595.598 265.539 597.864 264.894 599.63 265.892C601.407 266.88 602.041 269.146 601.044 270.913Z" fill="#D8CBC5"/><path d="M582.909 296.445C582.909 299.501 585.383 301.985 588.448 301.985C591.503 301.985 593.987 299.511 593.987 296.445C593.987 293.378 588.448 282.359 588.448 282.359C588.448 282.359 582.909 293.388 582.909 296.445Z" fill="#3867C3"/><path d="M470.352 517.099C463.005 515.405 453.943 533.534 451.75 545.186C450.264 553.118 450.846 561.558 454.296 568.866C456.489 573.502 459.835 573.035 464.647 573.43C469.219 573.804 473.865 573.835 478.364 572.816C485.41 571.226 492.227 566.579 494.316 559.667C495.906 554.407 494.545 548.606 491.833 543.835C489.11 539.053 477.699 518.783 470.352 517.099Z" fill="#FCC393"/><path d="M499.876 567.932C495.096 564.688 489.245 563.358 483.477 563.025C475.486 562.557 466.975 563.794 459.617 567.038C450.347 571.133 458.942 580.603 463.41 585.489C467.765 590.25 472.846 594.501 478.811 596.954C484.787 599.408 491.739 599.896 497.652 597.329C503.565 594.751 508.148 588.805 508.169 582.349C508.2 576.58 504.657 571.175 499.876 567.932Z" fill="#FCC393"/><path d="M473.771 598.875L473.595 598.989C470.664 600.902 466.736 600.07 464.824 597.139L443.863 564.946C442.813 563.345 443.27 561.193 444.871 560.143C446.471 559.093 448.622 559.551 449.672 561.151L473.886 598.334C474 598.521 473.958 598.76 473.771 598.875Z" fill="#00401E"/><path d="M574.388 483.451L577.007 486.268C579.428 488.867 583.502 489.012 586.1 486.59L595.796 477.547C597.22 476.216 597.303 473.981 595.973 472.557L593.51 469.917C592.18 468.493 589.945 468.409 588.522 469.74L574.399 482.91C574.253 483.046 574.243 483.295 574.388 483.451Z" fill="#00401E"/><path d="M324.134 487.42C326.639 485.154 334.132 490.278 337.53 494.364C339.837 497.149 341.448 500.58 341.687 504.187C341.843 506.484 340.429 507.025 338.621 508.23C336.917 509.374 335.098 510.393 333.124 510.975C330.016 511.889 326.338 511.546 324.02 509.301C322.253 507.586 321.526 505.018 321.547 502.555C321.568 500.102 321.63 489.686 324.134 487.42Z" fill="#F7E5CD"/><path d="M323.022 513.015C324.186 510.707 326.192 508.909 328.374 507.526C331.398 505.603 335.005 504.231 338.59 503.909C343.11 503.493 341.801 509.075 341.115 511.954C340.45 514.771 339.38 517.537 337.582 519.792C335.774 522.048 333.165 523.763 330.287 524.044C327.408 524.324 324.321 522.994 322.908 520.468C321.651 518.212 321.858 515.322 323.022 513.015Z" fill="#F7E5CD"/><path d="M339.983 519.448L340.076 519.458C341.635 519.572 342.996 518.387 343.111 516.828L344.316 499.656C344.379 498.803 343.734 498.055 342.872 497.992C342.02 497.93 341.271 498.575 341.209 499.437L339.816 519.261C339.816 519.354 339.889 519.437 339.983 519.448Z" fill="#00401E"/><path d="M559.09 477.265C562 475.29 565.575 474.48 569.088 474.272C573.962 473.991 579.147 474.74 583.637 476.725C589.29 479.22 584.052 484.999 581.319 487.983C578.659 490.883 575.562 493.482 571.925 494.979C568.287 496.475 564.037 496.777 560.431 495.207C556.825 493.638 554.029 490.01 554.019 486.07C554.009 482.536 556.181 479.241 559.09 477.265Z" fill="#F7E5CD"/><path d="M567.706 498.733C567.674 495.21 568.984 491.79 570.761 488.754C573.224 484.544 576.726 480.636 580.862 477.995C586.079 474.669 587.97 482.237 588.937 486.155C589.882 489.981 590.319 493.993 589.55 497.85C588.77 501.706 586.671 505.407 583.367 507.538C580.062 509.669 575.489 509.991 572.216 507.819C569.275 505.885 567.737 502.257 567.706 498.733Z" fill="#F7E5CD"/><path d="M559.808 667.557C564.495 667.016 568.859 678.919 569.41 686.32C569.784 691.351 568.828 696.559 566.168 700.862C564.484 703.596 562.437 703.066 559.413 702.973C556.545 702.889 553.656 702.578 550.933 701.632C546.662 700.156 542.754 696.788 541.944 692.339C541.32 688.96 542.578 685.447 544.594 682.671C546.62 679.896 555.131 668.097 559.808 667.557Z" fill="#F9AB88"/><path d="M537.901 697.088C541.102 695.404 544.833 694.988 548.439 695.186C553.438 695.456 558.644 696.818 562.988 699.354C568.465 702.546 562.458 707.826 559.34 710.56C556.295 713.221 552.845 715.498 548.959 716.61C545.072 717.712 540.718 717.535 537.226 715.519C533.724 713.502 531.302 709.489 531.739 705.477C532.123 701.88 534.711 698.772 537.901 697.088Z" fill="#F9AB88"/><path d="M551.961 718.151L552.065 718.235C553.749 719.628 556.253 719.388 557.646 717.694L572.933 699.149C573.691 698.224 573.567 696.862 572.642 696.093C571.717 695.334 570.355 695.459 569.586 696.384L551.941 717.798C551.847 717.923 551.857 718.068 551.961 718.151Z" fill="black"/><path d="M939.058 564.117C937.749 564.117 936.543 563.618 935.359 562.62C933.727 561.144 933.28 558.836 934.164 556.57L935.203 556.976C934.496 558.795 934.839 560.635 936.097 561.778C937.624 563.078 939.079 563.327 940.96 562.61L941.365 563.649C940.555 563.961 939.796 564.117 939.058 564.117Z" fill="black"/><path d="M723.39 337.487L685.739 308.059L667.563 342.809L699.55 360.928L723.39 337.487Z" fill="#FFA28F"/><path d="M680.305 331.642L667.533 323.742L667.304 324.096C665.964 326.164 665.922 328.711 666.982 330.78C668.156 333.046 669.112 335.426 669.445 337.963L670.141 343.285L680.305 331.642Z" fill="#FFA28F"/><path d="M716.562 317.85C713.372 315.625 708.987 316.415 706.763 319.607L704.082 323.463L715.638 331.498L718.319 327.642C720.553 324.461 719.763 320.074 716.562 317.85Z" fill="#FFA28F"/><path d="M723.64 325.956C720.574 323.565 716.147 324.106 713.757 327.172L710.868 330.873L721.967 339.542L724.856 335.842C727.246 332.775 726.706 328.347 723.64 325.956Z" fill="#FFA28F"/><path d="M708.166 310.291C704.975 308.067 700.59 308.857 698.366 312.048L695.009 316.882L706.565 324.917L709.922 320.083C712.146 316.892 711.356 312.505 708.166 310.291Z" fill="#FFA28F"/><path d="M698.418 303.409C695.353 301.018 690.926 301.559 688.535 304.625L685.646 308.326L696.745 316.995L699.634 313.295C702.024 310.228 701.484 305.81 698.418 303.409Z" fill="#FFA28F"/><path d="M871.603 649.242L809.5 611.394C801.176 606.602 798.442 595.885 803.472 587.704C808.866 578.92 820.754 576.893 828.756 583.4L891.276 635.49L871.603 649.242Z" fill="#FFA28F"/><path d="M885.373 664.679L904.671 642.288L883.751 630.012L871.603 649.242L885.373 664.679Z" fill="#FFA28F"/><path d="M889.384 636.038L895.037 630.217C893.801 629.334 892.512 629.406 891.203 630.009C889.769 630.664 888.272 631.194 886.693 631.319L883.377 631.589L889.384 636.038Z" fill="#FFA28F"/><path d="M897.698 661.04C899.163 659.137 898.81 656.393 896.898 654.927L894.591 653.16L889.28 660.062L891.577 661.83C893.5 663.306 896.233 662.952 897.698 661.04Z" fill="#FFA28F"/><path d="M892.481 665.175C894.05 663.356 893.852 660.601 892.023 659.031L889.831 657.129L884.146 663.73L886.349 665.632C888.168 667.191 890.911 666.994 892.481 665.175Z" fill="#FFA28F"/><path d="M902.624 656.069C904.089 654.166 903.735 651.422 901.823 649.956L898.945 647.742L893.634 654.644L896.513 656.859C898.425 658.335 901.158 657.981 902.624 656.069Z" fill="#FFA28F"/><path d="M907.165 650.257C908.734 648.438 908.537 645.683 906.708 644.113L904.505 642.211L898.82 648.812L901.023 650.714C902.842 652.284 905.596 652.076 907.165 650.257Z" fill="#FFA28F"/><path d="M948.796 664.771L1021.51 663.524C1031.11 663.607 1038.89 655.738 1038.69 646.133C1038.48 635.821 1029.24 628.066 1019.06 629.636L938.788 642.962L948.796 664.771Z" fill="#FFA28F"/><path d="M929.113 671.124L923.771 642.039H948.037L948.796 664.773L929.113 671.124Z" fill="#FFA28F"/><path d="M939.599 645.634L937.354 636.612L937.853 636.528C939.37 636.393 940.783 637.09 941.604 638.264C942.509 639.564 943.537 640.77 944.836 641.674L947.559 643.587L939.599 645.634Z" fill="#FFA28F"/><path d="M920.311 661.76C920.01 659.369 921.704 657.197 924.083 656.895L926.962 656.531L928.053 665.18L925.175 665.544C922.795 665.835 920.612 664.151 920.311 661.76Z" fill="#FFA28F"/><path d="M922.722 667.952C922.285 665.582 923.855 663.316 926.224 662.879L929.082 662.359L930.651 670.925L927.793 671.445C925.424 671.892 923.158 670.322 922.722 667.952Z" fill="#FFA28F"/><path d="M918.576 654.978C918.274 652.588 919.968 650.415 922.348 650.114L925.954 649.656L927.045 658.305L923.439 658.762C921.049 659.053 918.877 657.369 918.576 654.978Z" fill="#FFA28F"/><path d="M917.598 647.663C917.162 645.293 918.731 643.027 921.1 642.59L923.958 642.07L925.527 650.646L922.67 651.166C920.3 651.603 918.035 650.033 917.598 647.663Z" fill="#FFA28F"/><path d="M707.708 231.611C703.624 230.79 699.987 231.767 699.581 233.794C699.353 234.927 700.184 236.143 701.681 237.141C701.67 237.048 701.649 236.954 701.649 236.861C701.649 234.792 703.323 233.118 705.391 233.118C707.459 233.118 709.132 234.792 709.132 236.861C709.132 237.755 708.81 238.565 708.28 239.21C711.47 239.397 714.026 238.441 714.369 236.767C714.775 234.73 711.792 232.432 707.708 231.611Z" fill="white"/><path d="M705.391 233.121C703.323 233.121 701.65 234.795 701.65 236.863C701.65 236.957 701.671 237.05 701.681 237.144C702.855 237.934 704.435 238.578 706.243 238.942C706.94 239.088 707.625 239.171 708.29 239.202C708.81 238.558 709.143 237.747 709.143 236.853C709.132 234.795 707.459 233.121 705.391 233.121Z" fill="black"/><path d="M746.689 233.782C746.284 231.755 742.647 230.778 738.563 231.599C734.478 232.421 731.496 234.728 731.901 236.755C732.109 237.774 733.117 238.523 734.593 238.918C734.198 238.325 733.969 237.618 733.969 236.859C733.969 234.791 735.642 233.117 737.71 233.117C739.778 233.117 741.452 234.791 741.452 236.859C741.452 237.545 741.254 238.179 740.932 238.73C744.538 237.764 747.063 235.664 746.689 233.782Z" fill="white"/><path d="M740.028 238.942C740.34 238.88 740.631 238.807 740.932 238.734C741.254 238.183 741.452 237.549 741.452 236.863C741.452 234.795 739.778 233.121 737.71 233.121C735.642 233.121 733.969 234.795 733.969 236.863C733.969 237.622 734.198 238.329 734.593 238.922C736.058 239.317 737.991 239.348 740.028 238.942Z" fill="black"/><path d="M939.277 540.589C939.88 539.123 941.553 538.427 943.018 539.03C943.184 539.092 943.33 539.175 943.475 539.269C941.906 538.136 940.015 537.72 938.664 537.585C937.708 537.491 936.959 538.375 937.219 539.3C937.541 540.454 938.217 541.982 939.578 543.281C939.048 542.523 938.903 541.514 939.277 540.589Z" fill="white"/><path d="M946.624 544.396C946.26 542.951 945.512 541.039 943.984 539.687C943.943 539.656 943.901 539.625 943.87 539.594C944.722 540.384 945.044 541.642 944.577 542.775C943.995 544.199 942.384 544.885 940.95 544.365C942.301 545.217 943.808 545.748 944.982 546.059C945.99 546.319 946.873 545.394 946.624 544.396Z" fill="white"/><path d="M969.329 555.2L934.76 540.352L933.063 544.306L967.631 559.155L969.329 555.2Z" fill="#FFA28F"/><path d="M946.676 544.771C946.666 539.636 942.478 536.985 937.552 537.131C937.645 537.682 937.635 537.307 937.728 537.858C938.539 537.734 941.189 537.983 943.486 539.75C946.063 541.725 946.416 544.272 946.676 544.771Z" fill="black"/><path d="M440.922 917.918C420.626 953.531 422.673 984.758 414.983 1019.91H437.118C499.7 895.038 574.866 914.321 636.803 803.261C561.595 781.639 478.261 852.409 440.922 917.918Z" fill="#569B7B"/><path d="M496.395 931.827C464.501 951.173 445.702 985.071 435.248 1019.91H445.785C466.414 996.744 497.839 983.491 527.769 978.459C559.434 974.229 591.379 970.299 623.221 965.445C606.811 912.534 538.504 902.971 496.395 931.827Z" fill="#006931"/><path d="M406.721 1019.92H431.402C432.556 1002.16 434.676 964.251 435.611 961.059C470.778 842.338 397.264 748.762 289.747 703.513C282.919 700.644 291.067 715.259 292.179 722.099C302.01 782.276 327.606 838.222 360.174 886.247C405.557 949.043 401.608 951.007 406.721 1019.92Z" fill="#00401E"/><path d="M396.537 1019.92H397.908C414.432 974.314 421.893 926.133 423.089 876.549C424.346 824.407 416.832 773.274 400.766 724.574C400.714 724.428 400.621 724.304 400.486 724.22C400.33 724.127 400.132 724.106 399.956 724.168C399.789 724.22 399.654 724.335 399.582 724.491C399.509 724.647 399.488 724.823 399.54 724.979C431.215 821.008 431.174 925.447 396.537 1019.92Z" fill="#00401E"/><path d="M412.011 915.414L412.167 919.707C412.26 922.566 412.427 925.435 412.551 928.283C412.718 931.141 412.863 934 413.06 936.859C413.84 948.293 414.91 959.676 416.583 970.882C418.246 982.077 420.356 993.106 423.078 1003.81C424.367 1009.06 426.051 1014.63 427.963 1019.91H435.871C429.553 990.715 428.908 963.865 429.002 938.366C428.992 935.164 429.064 931.983 429.075 928.823C429.127 925.653 429.168 922.514 429.22 919.405C429.241 917.857 429.272 916.318 429.293 914.78C429.335 913.314 429.387 911.859 429.428 910.403C429.594 907.482 429.74 904.582 430.01 901.682C430.977 890.081 432.743 878.563 434.188 867.15C435.653 855.726 436.838 844.374 436.91 833.169C436.952 831.776 436.921 830.372 436.89 828.979C436.858 827.597 436.848 826.194 436.786 824.832C436.661 822.129 436.536 819.447 436.349 816.776C435.996 811.443 435.539 806.183 434.884 800.996C434.26 795.819 433.502 790.715 432.556 785.705C432.13 783.2 431.569 780.715 431.08 778.252C430.509 775.799 429.989 773.345 429.366 770.934C426.996 761.246 423.972 751.963 420.782 742.867C421.468 753.2 422.122 763.397 422.393 773.584C422.694 783.772 422.621 793.938 422.299 804.281C421.904 814.582 421.488 825.31 420.449 835.497C419.867 840.695 419.192 845.965 418.402 851.329C417.581 856.755 416.75 862.212 415.918 867.69C415.087 873.252 414.266 878.875 413.59 884.624C412.936 890.372 412.375 896.183 412.115 902.087C412.021 903.553 412.021 905.05 411.98 906.526L411.928 908.74L411.949 910.975C411.969 912.462 411.959 913.969 412.011 915.414Z" fill="#006931"/><path d="M400.465 1019.92H413.673C404.518 974.795 355.207 969.338 310.292 968.215C319.541 974.088 328.561 978.589 338.33 982.581C366.306 993.537 388.69 997.134 400.465 1019.92Z" fill="#00401E"/><path d="M422.892 1019.92H432.608C430.821 1002.92 430.551 985.666 423.131 967.849C396.547 903.359 333.488 889.866 271 908.442C283.034 916.592 295.131 924.014 306.385 930.864C336.543 949.845 396.568 984.034 422.892 1019.92Z" fill="#006931"/><path d="M396.267 1019.92H403.375C390.375 989.887 360.695 993.369 337.104 1007.3C348.702 1008.87 360.082 1005.3 371.076 1005.52C378.07 1005.88 391.279 1011.2 396.267 1019.92Z" fill="#00401E"/><path d="M402.409 719.698C405.537 719.698 408.073 717.161 408.073 714.032C408.073 710.904 405.537 708.367 402.409 708.367C399.281 708.367 396.745 710.904 396.745 714.032C396.745 717.161 399.281 719.698 402.409 719.698Z" fill="#FCC393"/><path d="M400.33 732.202C403.458 732.202 405.994 729.665 405.994 726.536C405.994 723.408 403.458 720.871 400.33 720.871C397.202 720.871 394.667 723.408 394.667 726.536C394.667 729.665 397.202 732.202 400.33 732.202Z" fill="#FCC393"/><path d="M389.969 725.448C393.097 725.448 395.633 722.911 395.633 719.782C395.633 716.654 393.097 714.117 389.969 714.117C386.841 714.117 384.305 716.654 384.305 719.782C384.305 722.911 386.841 725.448 389.969 725.448Z" fill="#FCC393"/><path d="M292.948 814.613C292.813 814.613 292.688 814.561 292.584 814.468C288.396 810.403 284.759 808.127 282.389 806.765C279.968 805.455 278.534 805.04 278.513 805.04C278.243 804.967 278.077 804.676 278.149 804.405C278.212 804.187 278.42 804.031 278.648 804.031C278.69 804.031 278.742 804.042 278.783 804.052C278.846 804.073 280.321 804.489 282.888 805.871C285.31 807.264 289.03 809.593 293.301 813.73C293.405 813.823 293.457 813.958 293.457 814.094C293.457 814.229 293.405 814.364 293.312 814.457C293.218 814.561 293.093 814.613 292.948 814.613Z" fill="#00401E"/><path d="M288.23 799.374C290.89 800.59 292.616 802.732 293.343 805.091C294.06 807.472 293.759 810.102 292.501 812.295C291.233 814.488 289.197 816.089 286.889 816.744C284.582 817.378 281.974 817.118 279.501 815.549C278.347 814.811 277.329 813.906 276.477 812.898C275.614 811.91 274.918 810.829 274.45 809.675C273.504 807.389 273.411 804.873 274.554 802.607C276.799 798.054 282.889 797.046 288.23 799.374Z" fill="#F7E5CD"/><path d="M292.605 836.528C292.418 836.528 292.241 836.424 292.158 836.268C292.023 836.019 292.106 835.707 292.356 835.561C292.459 835.499 294.881 834.147 298.809 833.212C300.981 832.682 303.226 832.422 305.47 832.422C308.432 832.422 311.363 832.89 314.179 833.815C314.449 833.908 314.595 834.199 314.512 834.47C314.439 834.688 314.241 834.823 314.023 834.823C313.971 834.823 313.919 834.813 313.867 834.802C311.145 833.919 308.328 833.461 305.47 833.461C303.309 833.461 301.147 833.721 299.048 834.22C295.245 835.125 292.886 836.445 292.865 836.466C292.782 836.507 292.698 836.528 292.605 836.528Z" fill="#00401E"/><path d="M300.752 843.281C306.188 841.556 308.505 835.942 306.655 831.223C305.751 828.853 303.912 827.044 301.698 826.129C300.586 825.672 299.37 825.454 298.102 825.537C296.824 825.62 295.494 826.005 294.174 826.712C291.691 828.052 289.695 830.08 288.531 832.314C287.367 834.56 287.087 836.971 287.949 839.227C288.822 841.472 290.703 842.876 293.021 843.541C295.317 844.227 298.082 844.134 300.752 843.281Z" fill="#F7E5CD"/><path d="M307.923 828.576C307.705 828.576 307.518 828.431 307.455 828.223C306.447 824.481 306.26 820.011 306.905 814.948C307.362 811.279 308.121 808.732 308.152 808.628C308.214 808.431 308.401 808.285 308.609 808.285C308.661 808.285 308.703 808.296 308.744 808.306C308.994 808.379 309.139 808.649 309.067 808.909C309.056 808.93 308.297 811.487 307.85 815.073C307.227 820.011 307.403 824.356 308.381 827.973C308.453 828.233 308.297 828.493 308.038 828.566C308.006 828.576 307.965 828.576 307.923 828.576Z" fill="#00401E"/><path d="M316.102 816.238C314.709 821.134 309.544 823.026 305.346 821.425C303.257 820.604 301.511 819.107 300.576 817.163C299.63 815.219 299.485 812.839 300.503 810.365C302.395 805.739 306.936 802.579 311.332 804.242C313.525 805.074 315.115 806.82 315.904 809.034C316.715 811.228 316.788 813.805 316.102 816.238Z" fill="#F7E5CD"/><path d="M328.26 850.605C328.011 850.605 327.793 850.428 327.751 850.179C327.356 847.965 327.252 845.522 327.418 842.684C327.543 840.574 327.855 838.349 328.333 836.062C329.154 832.185 330.193 829.555 330.235 829.451C330.318 829.254 330.505 829.129 330.713 829.129C330.775 829.129 330.837 829.139 330.9 829.17C331.17 829.274 331.295 829.576 331.191 829.846C331.149 829.961 330.131 832.559 329.341 836.301C328.863 838.526 328.562 840.709 328.447 842.767C328.281 845.522 328.385 847.892 328.759 850.012C328.78 850.148 328.749 850.283 328.676 850.397C328.593 850.511 328.478 850.584 328.343 850.605C328.323 850.605 328.291 850.605 328.26 850.605Z" fill="#00401E"/><path d="M338.31 837.973C337.292 840.645 335.348 842.381 333.135 843.212C330.911 844.044 328.458 843.919 326.265 842.911C324.083 841.892 322.431 840.073 321.651 837.849C320.841 835.655 320.914 833.025 322.254 830.375C324.779 825.385 329.903 822.256 334.475 824.377C336.762 825.427 338.185 827.558 338.84 830.011C339.162 831.248 339.287 832.568 339.193 833.919C339.11 835.281 338.809 836.664 338.31 837.973Z" fill="#F7E5CD"/><path d="M334.974 858.712C334.901 858.712 334.828 858.691 334.755 858.66C331.835 857.319 328.936 856.425 326.151 855.998C324.727 855.791 323.293 855.676 321.9 855.676C321.048 855.676 320.196 855.718 319.375 855.791C315.676 856.144 313.452 857.152 313.431 857.163C313.358 857.194 313.285 857.215 313.213 857.215C313.015 857.215 312.828 857.1 312.745 856.913C312.62 856.653 312.735 856.352 312.994 856.227C313.088 856.186 315.374 855.136 319.271 854.761C320.134 854.678 321.017 854.637 321.9 854.637C323.355 854.637 324.831 854.751 326.307 854.969C329.185 855.416 332.178 856.342 335.182 857.714C335.306 857.776 335.4 857.87 335.452 858.005C335.504 858.14 335.493 858.275 335.441 858.4C335.358 858.587 335.171 858.712 334.974 858.712Z" fill="#00401E"/><path d="M319.033 864.622C324.27 864.102 327.544 859.383 326.796 854.705C326.401 852.398 325.133 850.339 323.294 849.061C321.444 847.782 318.981 847.325 316.289 848.094C311.228 849.56 307.404 853.926 308.163 858.385C308.568 860.599 309.95 862.314 311.925 863.375C313.899 864.435 316.456 864.872 319.033 864.622Z" fill="#F7E5CD"/><path d="M348.608 876.849C348.359 876.828 348.172 876.61 348.182 876.36C348.359 874.011 348.754 871.568 349.356 869.115C349.814 867.223 350.396 865.362 351.102 863.595C352.297 860.57 353.42 858.855 353.472 858.782C353.555 858.657 353.7 858.574 353.856 858.574C353.95 858.574 354.033 858.605 354.106 858.647C354.313 858.782 354.376 859.073 354.23 859.281C354.22 859.302 353.108 861.007 351.954 863.928C351.269 865.653 350.697 867.472 350.25 869.323C349.658 871.724 349.273 874.115 349.097 876.412C349.076 876.651 348.878 876.838 348.639 876.838L348.608 876.849Z" fill="#00401E"/><path d="M359.676 867.618C357.005 872.233 351.477 872.971 347.798 870.425C344.057 867.919 343.277 862.68 346.53 858.179C349.596 853.959 354.272 851.87 358.169 854.52C360.102 855.851 361.152 857.992 361.391 860.352C361.609 862.712 360.975 865.342 359.676 867.618Z" fill="#F7E5CD"/><path d="M354.886 886.041C354.802 886.041 354.73 886.02 354.657 885.989C352.028 884.7 349.295 883.722 346.52 883.068C344.306 882.569 342.041 882.288 339.765 882.205C339.38 882.194 339.017 882.184 338.663 882.184C335.525 882.184 333.571 882.621 333.55 882.621C333.509 882.631 333.478 882.631 333.436 882.631C333.197 882.631 332.989 882.465 332.937 882.226C332.875 881.945 333.052 881.675 333.322 881.612C333.405 881.592 335.39 881.145 338.653 881.145C339.027 881.145 339.412 881.155 339.807 881.165C342.145 881.238 344.493 881.54 346.759 882.049C349.606 882.714 352.423 883.723 355.125 885.053C355.384 885.178 355.488 885.49 355.364 885.75C355.27 885.926 355.093 886.041 354.886 886.041Z" fill="#00401E"/><path d="M337.727 890.77C342.996 890.728 346.685 886.331 346.374 881.622C346.197 879.293 345.127 877.131 343.412 875.686C341.697 874.241 339.286 873.555 336.543 874.075C331.367 875.063 327.148 879.054 327.491 883.566C327.689 885.811 328.894 887.641 330.775 888.878C332.646 890.125 335.14 890.79 337.727 890.77Z" fill="#F7E5CD"/><path d="M363.77 900.225C363.635 900.214 363.51 900.162 363.417 900.058C363.323 899.954 363.271 899.819 363.282 899.684C363.479 895.453 364.497 890.983 366.378 885.994C367.729 882.47 369.018 880.256 369.08 880.162C369.174 880.006 369.34 879.902 369.527 879.902C369.621 879.902 369.704 879.923 369.787 879.975C370.036 880.121 370.12 880.432 369.974 880.682C369.922 880.776 368.654 882.958 367.345 886.358C365.505 891.233 364.508 895.609 364.31 899.726C364.3 900.006 364.071 900.214 363.791 900.214L363.77 900.225Z" fill="#00401E"/><path d="M375.659 888.917C373.03 893.969 367.158 894.988 363.147 892.42C359.063 889.884 357.4 884.447 360.653 879.499C363.739 874.842 369.195 872.306 373.476 874.946C375.576 876.277 376.781 878.522 377.145 881.059C377.509 883.574 376.937 886.433 375.659 888.917Z" fill="#F7E5CD"/><path d="M368.966 909.177C368.821 909.177 368.696 909.125 368.592 909.021C367.096 907.462 365.1 906.048 362.648 904.811C360.788 903.865 358.616 903.075 356.194 902.451C352.173 901.412 348.993 901.256 348.961 901.256C348.681 901.245 348.452 900.996 348.473 900.715C348.483 900.434 348.712 900.227 348.993 900.227C349.148 900.237 352.318 900.393 356.465 901.453C358.959 902.087 361.193 902.908 363.126 903.886C365.682 905.175 367.771 906.651 369.351 908.303C369.548 908.511 369.538 908.834 369.33 909.031C369.226 909.125 369.091 909.177 368.966 909.177Z" fill="#00401E"/><path d="M350.77 909.895C355.883 910.986 360.435 907.493 361.193 902.805C361.89 898.169 358.907 893.387 353.264 893.211C347.995 893.023 343.007 896.381 342.352 900.924C342.186 902.057 342.321 903.117 342.695 904.084C343.049 905.061 343.641 905.944 344.41 906.714C345.938 908.263 348.245 909.344 350.77 909.895Z" fill="#F7E5CD"/><path d="M380.523 931.651C380.492 931.651 380.46 931.651 380.419 931.641C380.138 931.589 379.951 931.319 380.013 931.038C380.595 928.065 381.292 925.259 382.071 922.712C382.435 921.527 382.83 920.331 383.245 919.167C383.661 918.003 384.025 917.005 384.368 916.142C385.802 912.493 386.976 910.342 387.028 910.259C387.122 910.092 387.288 909.988 387.485 909.988C387.569 909.988 387.652 910.009 387.735 910.051C387.984 910.186 388.078 910.508 387.943 910.758C387.891 910.851 386.727 913.003 385.345 916.527C385.002 917.389 384.648 918.367 384.233 919.52C383.817 920.674 383.432 921.859 383.069 923.024C382.289 925.539 381.603 928.304 381.032 931.246C380.98 931.475 380.762 931.651 380.523 931.651Z" fill="#00401E"/><path d="M393.658 919.146C391.985 924.676 386.415 926.682 381.988 924.842C377.602 922.971 375.233 917.929 377.675 912.441C379.909 907.326 385.49 904.312 390.083 906.131C394.614 907.992 395.363 913.667 393.658 919.146Z" fill="#F7E5CD"/><path d="M384.711 940.861C384.565 940.861 384.43 940.799 384.347 940.685C383.1 939.063 381.292 937.441 378.974 935.861C376.979 934.51 374.828 933.304 372.739 932.369C368.759 930.56 365.496 929.656 365.464 929.645C365.215 929.572 365.07 929.323 365.142 929.073C365.194 928.876 365.381 928.73 365.589 928.73C365.631 928.73 365.672 928.741 365.714 928.751C365.849 928.793 369.071 929.676 373.123 931.527C375.254 932.473 377.457 933.71 379.494 935.092C381.894 936.724 383.765 938.419 385.085 940.123C385.241 940.321 385.199 940.622 385.002 940.778C384.919 940.83 384.815 940.861 384.711 940.861Z" fill="#00401E"/><path d="M365.059 937.792C369.174 940.381 374.35 938.717 376.553 934.819C377.104 933.842 377.446 932.792 377.592 931.722C377.717 930.661 377.623 929.591 377.311 928.572C376.688 926.534 375.212 924.705 372.76 923.686C368.135 921.774 362.804 922.844 360.746 926.753C358.72 930.641 360.913 935.266 365.059 937.792Z" fill="#F7E5CD"/><path d="M391.736 958.355C391.455 958.314 391.258 958.054 391.289 957.773C392.099 951.921 394.282 946.515 395.976 943.023C396.817 941.307 397.69 939.634 398.459 938.324C399.114 937.191 399.54 936.557 399.551 936.557C399.644 936.411 399.81 936.328 399.977 936.328C400.081 936.328 400.174 936.359 400.268 936.411C400.507 936.567 400.569 936.889 400.413 937.128C400.413 937.139 399.987 937.763 399.364 938.844C398.615 940.133 397.742 941.775 396.921 943.469C395.259 946.9 393.118 952.191 392.328 957.908C392.297 958.158 392.068 958.355 391.819 958.355C391.788 958.355 391.757 958.355 391.736 958.355Z" fill="#00401E"/><path d="M404.913 945.385C404.092 948.15 402.325 950.093 400.32 951.123C398.304 952.152 396.017 952.276 394.012 951.434C389.959 949.75 387.818 944.844 390.167 939.387C392.411 934.241 397.878 931.434 401.359 933.035C402.991 933.784 404.31 935.499 405.017 937.713C405.692 939.917 405.744 942.651 404.913 945.385Z" fill="#F7E5CD"/><path d="M399.436 980.779C399.364 980.779 399.291 980.758 399.228 980.727C399 980.613 398.917 980.343 399.031 980.114C401.39 975.426 404.674 971.403 407.023 968.856C409.61 966.029 411.647 964.313 411.73 964.241C411.834 964.147 411.948 964.137 412.021 964.137C412.156 964.137 412.281 964.199 412.374 964.303C412.541 964.501 412.51 964.781 412.323 964.947C412.239 965.02 410.213 966.735 407.698 969.48C405.401 971.985 402.169 975.935 399.852 980.54C399.769 980.686 399.613 980.779 399.436 980.779Z" fill="#00401E"/><path d="M414.733 973.409C411.221 977.494 405.952 977.442 403.063 974.532C401.608 973.076 400.85 971.07 400.964 968.949C401.099 966.818 402.003 964.594 404.04 962.66C407.823 959.022 413.58 958.731 416.084 961.465C417.259 962.744 417.747 964.739 417.56 966.891C417.363 969.053 416.479 971.382 414.733 973.409Z" fill="#F7E5CD"/><path d="M395.269 967.87C395.113 967.87 394.967 967.797 394.884 967.662C393.668 965.864 391.995 964.097 389.927 962.402C388.181 961.02 386.176 959.689 383.962 958.431C382.403 957.548 380.73 956.716 378.995 955.978C377.748 955.448 376.958 955.157 376.916 955.147C376.677 955.063 376.552 954.793 376.636 954.554C376.698 954.367 376.875 954.242 377.072 954.242C377.124 954.242 377.176 954.253 377.228 954.273C377.238 954.273 378.049 954.564 379.358 955.126C381.125 955.874 382.829 956.716 384.419 957.621C386.674 958.889 388.722 960.261 390.499 961.675C392.64 963.421 394.375 965.261 395.643 967.132C395.716 967.236 395.736 967.361 395.716 967.475C395.695 967.6 395.622 967.704 395.518 967.776C395.445 967.839 395.362 967.87 395.269 967.87Z" fill="#00401E"/><path d="M611.373 762.317C611.186 762.244 611.041 762.109 610.947 761.943C610.698 761.517 610.843 760.966 611.269 760.716C618.949 756.247 623.678 752.931 626.286 750.935C629.383 748.585 630.848 747.057 630.859 747.037C631.118 746.766 631.513 746.683 631.856 746.829C631.96 746.87 632.043 746.933 632.126 747.005C632.49 747.348 632.501 747.91 632.158 748.274C632.095 748.336 630.62 749.895 627.367 752.369C624.706 754.396 619.916 757.754 612.163 762.276C611.924 762.411 611.633 762.432 611.373 762.317Z" fill="#006931"/><path d="M632.521 762.684C629.788 765.261 626.504 766.228 623.241 765.968C619.978 765.698 616.715 764.191 614.304 761.602C611.893 759.014 610.552 755.677 610.76 752.247C610.968 748.837 612.776 745.334 616.476 742.756C619.947 740.324 624.052 739.066 627.731 739.201C631.42 739.326 634.683 740.823 636.678 743.733C638.684 746.644 638.944 750.147 638.081 753.515C637.198 756.883 635.213 760.137 632.521 762.684Z" fill="#FCC393"/><path d="M579.252 787.17C578.805 786.983 578.587 786.484 578.753 786.027C581.216 779.509 582.162 772.482 581.59 765.153C581.351 762.191 580.914 759.873 580.592 758.449C580.239 756.9 579.927 755.985 579.927 755.975C579.771 755.507 580.021 754.998 580.488 754.842C580.696 754.769 580.925 754.779 581.122 754.862C581.361 754.956 581.538 755.154 581.621 755.393C581.632 755.434 581.964 756.391 582.338 758.054C582.671 759.54 583.118 761.941 583.367 765.008C583.959 772.607 582.972 779.894 580.416 786.661C580.332 786.889 580.166 787.066 579.948 787.16C579.73 787.253 579.491 787.264 579.262 787.18L579.252 787.17Z" fill="#006931"/><path d="M568.142 767.159C568.973 771.13 571.426 773.927 574.481 775.486C576.009 776.266 577.692 776.723 579.407 776.868C581.143 777.024 582.909 776.848 584.614 776.328C588.033 775.299 590.89 773.085 592.636 770.164C594.351 767.211 594.995 763.542 593.759 759.488C592.605 755.694 590.402 752.399 587.534 750.32C584.676 748.251 581.132 747.367 577.464 748.459C575.635 749.01 574.003 749.945 572.652 751.193C571.301 752.451 570.2 753.989 569.389 755.683C567.799 759.135 567.311 763.23 568.142 767.159Z" fill="#FCC393"/><path d="M588.469 779.242C588.189 779.128 588.002 778.878 587.95 778.587C587.877 778.119 588.199 777.693 588.667 777.62C591.847 777.142 595.151 777.142 598.477 777.62C601.262 778.005 604.089 778.681 606.895 779.647C607.986 780.022 609.077 780.427 610.147 780.874C611.031 781.238 611.914 781.633 612.756 782.049C614.159 782.755 614.938 783.244 614.98 783.265C615.375 783.514 615.499 784.034 615.25 784.429C615.032 784.783 614.595 784.918 614.211 784.762C614.169 784.741 614.127 784.72 614.086 784.699C614.076 784.699 613.338 784.232 612.018 783.566C611.207 783.171 610.366 782.797 609.513 782.444C608.485 782.017 607.425 781.612 606.365 781.259C603.663 780.333 600.94 779.679 598.259 779.315C595.089 778.868 591.951 778.857 588.927 779.315C588.771 779.315 588.615 779.304 588.469 779.242Z" fill="#006931"/><path d="M603.86 791.735C600.711 790.259 598.581 787.753 597.635 784.895C597.157 783.471 596.97 781.953 597.095 780.456C597.219 778.97 597.656 777.494 598.394 776.142C599.121 774.77 600.119 773.616 601.293 772.691C602.457 771.776 603.787 771.069 605.211 770.726C608.058 770.02 611.249 770.612 614.148 772.889C616.871 775.02 618.887 777.909 619.905 780.82C620.924 783.741 620.986 786.683 619.729 789.094C619.417 789.708 619.043 790.238 618.606 790.695C618.16 791.173 617.63 791.61 617.068 791.963C615.936 792.681 614.595 793.117 613.161 793.325C610.313 793.762 606.967 793.169 603.86 791.735Z" fill="#FCC393"/><path d="M558.166 807.929C557.917 807.825 557.729 807.617 557.646 807.357C557.501 806.879 557.771 806.38 558.249 806.245C565.472 804.083 572.819 804.8 577.714 805.777C579.927 806.224 582.12 806.796 584.219 807.492C585.57 807.939 586.433 808.293 586.672 808.386L586.734 808.418C587.191 808.615 587.399 809.145 587.202 809.592C587.015 810.039 586.474 810.257 586.038 810.07H586.027C585.747 809.956 584.926 809.623 583.658 809.208C581.621 808.532 579.511 807.981 577.36 807.544C572.673 806.609 565.638 805.923 558.758 807.981C558.571 808.023 558.363 808.012 558.166 807.929Z" fill="#006931"/><path d="M576.695 819.302C572.995 818.127 570.252 815.736 568.745 812.836C567.238 809.946 566.926 806.505 568.111 803.46C569.265 800.383 571.686 797.992 574.679 796.848C577.703 795.746 581.278 795.892 584.894 797.898C588.282 799.769 591.005 802.534 592.626 805.518C593.437 807.004 593.967 808.553 594.154 810.071C594.351 811.599 594.216 813.116 593.665 814.53C593.104 815.944 592.242 817.087 591.13 817.981C590.018 818.875 588.625 819.478 587.118 819.884C585.591 820.268 583.897 820.414 582.13 820.31C580.353 820.227 578.514 819.884 576.695 819.302Z" fill="#FCC393"/><path d="M548.501 818.94C548.096 818.773 547.867 818.326 547.971 817.9C550.351 808.16 549.894 800.405 549.083 795.624C548.616 792.838 547.982 790.707 547.524 789.418C547.036 788.025 546.652 787.287 546.652 787.277C546.423 786.84 546.6 786.299 547.036 786.071C547.275 785.946 547.545 785.936 547.795 786.04C547.992 786.123 548.148 786.258 548.242 786.455C548.262 786.487 548.688 787.318 549.218 788.825C549.696 790.187 550.372 792.422 550.86 795.333C551.692 800.281 552.17 808.295 549.717 818.337C549.665 818.566 549.52 818.763 549.312 818.888C549.104 819.013 548.865 819.054 548.636 818.992C548.595 818.971 548.543 818.961 548.501 818.94Z" fill="#006931"/><path d="M534.659 797.535C535.449 801.287 537.746 803.897 540.614 805.321C543.492 806.745 546.922 806.984 550.102 805.944C556.441 803.855 560.785 797.545 558.395 789.988C557.272 786.454 555.173 783.387 552.502 781.454C549.832 779.52 546.548 778.72 543.17 779.78C539.772 780.809 537.247 783.429 535.75 786.662C534.285 789.936 533.859 793.824 534.659 797.535Z" fill="#FCC393"/><path d="M529.369 844.116C529.13 844.012 528.954 843.814 528.891 843.565C528.777 843.128 529.037 842.681 529.473 842.567C535.48 840.997 541.57 840.488 547.587 841.049C548.615 841.143 549.644 841.278 550.632 841.434C551.598 841.6 552.409 841.787 552.918 841.912C554.165 842.213 554.84 842.452 554.872 842.463C555.308 842.65 555.516 843.097 555.37 843.502C555.225 843.928 554.757 844.147 554.331 844.001C554.3 843.991 553.656 843.773 552.523 843.492C552.024 843.378 551.265 843.201 550.351 843.035C549.405 842.879 548.418 842.764 547.42 842.671C543.419 842.296 537.122 842.244 529.868 844.136C529.712 844.188 529.536 844.178 529.369 844.116Z" fill="#006931"/><path d="M543.44 853.462C536.228 851.923 532.601 845.156 534.336 839.169C535.199 836.185 537.277 833.857 540.062 832.734C542.827 831.58 546.287 831.601 549.852 833.109C553.198 834.522 555.952 836.622 557.687 839.034C559.423 841.456 560.119 844.158 559.392 846.923C558.685 849.585 556.42 851.736 553.51 852.859C550.6 854.002 546.994 854.221 543.44 853.462Z" fill="#FCC393"/><path d="M520.453 856.776C520.089 856.62 519.871 856.256 519.902 855.872C520.536 848.741 519.829 841.495 517.813 834.344C516.348 829.208 514.654 826.163 514.633 826.131C514.394 825.705 514.539 825.154 514.976 824.905C515.215 824.77 515.506 824.749 515.766 824.863C515.953 824.936 516.098 825.071 516.202 825.248C516.275 825.383 518.01 828.491 519.548 833.855C521.627 841.225 522.344 848.689 521.7 856.038C521.658 856.526 521.222 856.901 520.723 856.849C520.619 856.828 520.536 856.807 520.453 856.776Z" fill="#006931"/><path d="M502.702 835.636C505.207 842.735 512.876 845.126 518.904 842.392C524.942 839.659 528.402 832.746 524.786 825.698C523.102 822.403 520.587 819.679 517.626 818.193C516.16 817.434 514.55 817.029 512.991 816.925C511.421 816.831 509.832 817.091 508.293 817.777C505.217 819.16 503.191 821.873 502.245 825.106C501.289 828.349 501.476 832.143 502.702 835.636Z" fill="#FCC393"/><path d="M507.327 876.082C507.109 875.989 506.932 875.812 506.839 875.593C506.745 875.375 506.745 875.126 506.839 874.907C506.932 874.689 507.109 874.512 507.327 874.419C510.518 873.109 513.937 872.132 517.47 871.519C520.369 871.02 523.383 870.739 526.449 870.677C531.666 870.573 535.157 871.144 535.303 871.165C535.375 871.176 535.438 871.196 535.5 871.217C535.885 871.373 536.103 871.779 536.041 872.194C535.957 872.683 535.5 873.016 535.012 872.932C534.981 872.922 531.51 872.371 526.48 872.465C523.508 872.527 520.577 872.797 517.771 873.275C514.363 873.868 511.079 874.803 508.003 876.072C507.784 876.176 507.545 876.176 507.327 876.082Z" fill="#006931"/><path d="M526.532 883.951C518.738 883.421 513.833 876.789 514.758 870.219C515.704 863.681 521.752 858.504 529.827 860.406C537.392 862.163 543.368 868.015 542.443 874.429C541.58 880.895 534.212 884.471 526.532 883.951Z" fill="#FCC393"/><path d="M499.409 888.088C498.983 887.912 498.754 887.423 498.9 886.986C501.092 880.25 500.469 872.558 499.554 867.288C498.546 861.529 497.029 857.226 497.019 857.184C496.852 856.716 497.091 856.207 497.559 856.04C497.767 855.968 497.995 855.968 498.203 856.061C498.432 856.155 498.619 856.352 498.702 856.591C498.764 856.768 500.282 861.03 501.321 866.997C502.267 872.465 502.911 880.479 500.604 887.569C500.448 888.036 499.939 888.296 499.471 888.14L499.409 888.088Z" fill="#006931"/><path d="M484.153 864.668C485.753 872.028 493.069 875.343 499.398 873.389C502.568 872.402 505.197 870.292 506.672 867.495C508.19 864.72 508.574 861.258 507.202 857.568C504.625 850.635 497.746 845.863 491.334 847.828C488.133 848.815 485.909 851.196 484.724 854.262C483.54 857.319 483.363 861.04 484.153 864.668Z" fill="#FCC393"/><path d="M480.588 917.848C480.37 917.754 480.193 917.578 480.1 917.359C480.006 917.141 480.006 916.892 480.1 916.673C480.193 916.455 480.37 916.278 480.588 916.195C489.016 912.775 496.53 911.268 501.352 910.603C506.714 909.854 510.071 909.875 510.206 909.875C510.32 909.875 510.435 909.896 510.539 909.948C510.881 910.093 511.1 910.416 511.089 910.79C511.089 911.289 510.674 911.684 510.185 911.673C510.154 911.673 506.818 911.642 501.591 912.38C496.873 913.025 489.505 914.501 481.253 917.858C481.046 917.942 480.807 917.942 480.588 917.848Z" fill="#006931"/><path d="M501.965 923.203C494.39 925.033 487.749 920.189 486.606 913.65C485.431 907.101 489.983 900.646 498.172 899.918C502.017 899.575 505.8 900.656 508.731 902.621C511.672 904.586 513.76 907.424 514.322 910.667C514.883 913.91 513.667 916.592 511.37 918.692C510.227 919.742 508.803 920.636 507.203 921.394C505.603 922.143 503.836 922.746 501.965 923.203Z" fill="#FCC393"/><path d="M473.251 929.885C472.867 929.719 472.659 929.293 472.784 928.887C473.615 926.091 474.052 922.723 474.083 918.887C474.114 915.696 473.906 912.318 473.459 908.825C472.69 902.702 471.443 898.004 471.433 897.952C471.381 897.744 471.402 897.515 471.516 897.328C471.63 897.141 471.807 897.006 472.015 896.944C472.191 896.892 472.378 896.912 472.545 896.975C472.784 897.079 472.96 897.276 473.023 897.526C473.075 897.723 474.301 902.349 475.091 908.607C475.548 912.172 475.756 915.634 475.725 918.898C475.683 922.889 475.226 926.403 474.353 929.355C474.228 929.792 473.761 930.041 473.334 929.906C473.303 929.906 473.272 929.896 473.251 929.885Z" fill="#006931"/><path d="M458.588 903.564C458.526 910.695 464.553 915.31 470.778 914.801C477.034 914.302 482.22 909.177 481.202 901.817C480.246 894.915 475.34 889.042 469.084 889.489C465.956 889.717 463.317 891.464 461.488 894.042C459.659 896.63 458.609 900.04 458.588 903.564Z" fill="#FCC393"/><path d="M452.82 964.731C452.446 964.575 452.238 964.159 452.342 963.764C454.057 957.247 453.392 949.253 452.529 943.691C452.124 941.124 451.625 938.525 451.023 935.958C450.576 934.076 450.243 932.901 450.233 932.891C450.108 932.454 450.357 931.997 450.794 931.872C450.981 931.82 451.168 931.831 451.345 931.904C451.573 931.997 451.75 932.195 451.823 932.434C451.854 932.558 452.187 933.702 452.633 935.583C453.236 938.182 453.756 940.833 454.161 943.432C455.044 949.149 455.73 957.392 453.943 964.18C453.828 964.617 453.371 964.876 452.935 964.762C452.893 964.762 452.852 964.752 452.82 964.731Z" fill="#006931"/><path d="M438.791 939.291C439.612 946.359 445.66 950.341 451.293 949.228C454.109 948.677 456.551 946.993 458.058 944.551C459.575 942.118 460.167 938.927 459.253 935.32C457.538 928.553 450.825 923.553 445.899 924.883C441.139 926.162 437.959 932.305 438.791 939.291Z" fill="#FCC393"/><path d="M376.74 962.807C380.959 965.323 385.968 963.898 387.911 960.302C388.888 958.514 389.065 956.393 388.389 954.46C387.683 952.537 386.103 950.822 383.671 949.813C379.089 947.921 373.383 949.782 371.97 953.036C370.567 956.217 372.614 960.302 376.74 962.807Z" fill="#F7E5CD"/><path d="M396.267 1019.92H403.375C390.375 989.887 360.695 993.369 337.104 1007.3C348.702 1008.87 360.082 1005.3 371.076 1005.52C378.07 1005.88 391.279 1011.2 396.267 1019.92Z" fill="#00401E"/><path d="M613.379 760.434C613.275 760.278 613.14 760.153 612.963 760.08C612.693 759.966 612.381 759.997 612.142 760.153C609.129 762.055 606.115 764.082 603.195 766.182C601.802 767.18 600.462 768.189 598.861 769.394L596.7 771.016L594.58 772.669C588.937 777.076 583.387 781.733 578.077 786.515C567.384 796.13 557.324 806.556 548.189 817.513C543.721 822.866 539.273 828.583 534.981 834.529L528.673 843.24C527.332 845.112 526.012 846.983 524.661 848.906C523.934 849.945 523.196 850.985 522.469 852.024L519.372 856.432L510.268 869.748L507.733 873.552C504.657 878.168 501.477 882.939 498.421 887.689C473.231 926.494 448.508 968.864 421.301 1019.92H423.338C450.337 969.29 474.904 927.211 499.928 888.667C502.973 883.926 506.153 879.166 509.229 874.55L511.765 870.746L520.848 857.45L523.934 853.053C524.672 852.014 525.399 850.974 526.127 849.935C527.457 848.043 528.777 846.161 530.117 844.29L536.425 835.59C540.697 829.685 545.113 823.989 549.561 818.677C558.644 807.793 568.641 797.419 579.272 787.866C584.551 783.116 590.08 778.48 595.681 774.103L597.781 772.461L599.932 770.85C601.511 769.654 602.852 768.656 604.224 767.669C607.113 765.59 610.095 763.584 613.088 761.702C613.296 761.577 613.431 761.38 613.483 761.141C613.545 760.881 613.504 760.642 613.379 760.434Z" fill="#006931"/><path d="M409.496 1019.92C402.564 981.339 389.231 944.073 369.788 909.094C349.502 872.576 323.563 840.321 292.709 813.211C292.616 813.128 292.491 813.086 292.366 813.086C292.221 813.086 292.075 813.148 291.982 813.263C291.888 813.367 291.847 813.502 291.857 813.637C291.867 813.772 291.93 813.897 292.034 813.99C352.952 867.514 394.136 940.466 408.446 1019.93H409.496V1019.92Z" fill="#00401E"/></svg>