<svg viewBox="0 0 1600 1200" fill="none" xmlns="http://www.w3.org/2000/svg"><path fill-rule="evenodd" clip-rule="evenodd" d="M959.213 772.875H984.008V565.954H959.213V772.875Z" fill="#FFE3C7"/><path fill-rule="evenodd" clip-rule="evenodd" d="M539.049 786.41H563.844V569.613H539.049V786.41Z" fill="#FFE3C7"/><path fill-rule="evenodd" clip-rule="evenodd" d="M460.782 760.394H1055.09V736.249H460.782V760.394Z" fill="#103256"/><path fill-rule="evenodd" clip-rule="evenodd" d="M460.782 716.848H1055.09V692.702H460.782V716.848Z" fill="#103256"/><path fill-rule="evenodd" clip-rule="evenodd" d="M460.782 673.303H1055.09V649.157H460.782V673.303Z" fill="#103256"/><path fill-rule="evenodd" clip-rule="evenodd" d="M460.782 629.756H1055.09V605.61H460.782V629.756Z" fill="#103256"/><path fill-rule="evenodd" clip-rule="evenodd" d="M460.782 586.753H1055.09V562.607H460.782V586.753Z" fill="#103256"/><path fill-rule="evenodd" clip-rule="evenodd" d="M985.806 1005.06H1014.11L1024.35 772.875H975.559L985.806 1005.06Z" fill="#FFE3C7"/><path fill-rule="evenodd" clip-rule="evenodd" d="M501.77 1005.06H530.07L540.317 772.875H491.522L501.77 1005.06Z" fill="#FFE3C7"/><path fill-rule="evenodd" clip-rule="evenodd" d="M444.851 865.747H1071.02V830.194H444.851V865.747Z" fill="#103256"/><path fill-rule="evenodd" clip-rule="evenodd" d="M444.851 808.964H1071.02V773.411H444.851V808.964Z" fill="#103256"/><path fill-rule="evenodd" clip-rule="evenodd" d="M423 774.218H626.761V553.698H423V774.218Z" fill="#E73245"/><path fill-rule="evenodd" clip-rule="evenodd" d="M647.397 519.509L627.808 603.376C623.907 619.317 637.403 634.13 653.638 631.727C661.994 630.489 669.009 624.79 671.931 616.864L705.025 529.018L647.397 519.509Z" fill="#FFA28F"/><path fill-rule="evenodd" clip-rule="evenodd" d="M627.31 543.609C627.31 543.609 648.843 503.354 673.196 493.125C693.329 493.125 715.054 506.011 716.567 526.088C718.08 546.164 675.471 581.733 675.471 581.733L627.31 543.609Z" fill="#01464D"/><path fill-rule="evenodd" clip-rule="evenodd" d="M902.951 531.671L921.072 629.99C924.046 646.131 909.718 660.141 893.649 656.803C885.378 655.084 878.704 648.989 876.243 640.907L837.106 512.327L902.951 531.671Z" fill="#FFA28F"/><path fill-rule="evenodd" clip-rule="evenodd" d="M913.456 543.609C913.456 543.609 900.19 514.174 881.268 500.137C875.493 495.854 871.306 494.383 863.691 492.345C843.559 492.345 825.712 506.011 824.199 526.088C822.686 546.163 865.295 581.733 865.295 581.733L913.456 543.609Z" fill="#01464D"/><path fill-rule="evenodd" clip-rule="evenodd" d="M677.455 667.899L673.197 493.124C673.197 493.124 745.784 471.248 769.387 471.248C790.892 471.248 867.337 493.386 867.337 493.386L861.318 667.899H677.455Z" fill="#01464D"/><path fill-rule="evenodd" clip-rule="evenodd" d="M677.454 741.893H864.771V552.86H677.454V741.893Z" fill="#01464D"/><path fill-rule="evenodd" clip-rule="evenodd" d="M672.562 758.482V707.905H865.21V758.482C865.21 768.308 857.245 776.274 847.42 776.274H690.354C680.528 776.274 672.562 768.308 672.562 758.482Z" fill="#BAC09A"/><path fill-rule="evenodd" clip-rule="evenodd" d="M800.132 485.906V442.454L740.243 442.722V485.906C740.243 499.903 751.589 511.25 765.586 511.25H774.789C788.786 511.25 800.132 499.903 800.132 485.906Z" fill="#FFC4B8"/><path fill-rule="evenodd" clip-rule="evenodd" d="M818.467 401.623C819.733 405.157 812.23 408.701 812.23 408.701L803.792 388.035C803.792 388.035 817.202 398.094 818.467 401.623Z" fill="#FFC4B8"/><path fill-rule="evenodd" clip-rule="evenodd" d="M814.57 413.592L795.364 363.918C788.729 346.757 769.438 338.224 752.277 344.86L720.176 357.272C710.727 360.926 706.029 371.548 709.682 380.997L734.288 444.635C740.923 461.797 760.214 470.329 777.374 463.694L795.512 456.681C812.673 450.045 821.206 430.754 814.57 413.592Z" fill="#FFC4B8"/><path fill-rule="evenodd" clip-rule="evenodd" d="M795.921 389.585C791.164 390.754 787.786 393.65 788.377 396.056C788.967 398.46 793.302 399.463 798.059 398.295C802.817 397.126 800.678 388.417 795.921 389.585Z" fill="white"/><path fill-rule="evenodd" clip-rule="evenodd" d="M801.482 392.837C800.881 390.391 799.137 388.717 797.586 389.097C796.035 389.478 795.264 391.77 795.865 394.216C796.466 396.663 798.211 398.336 799.762 397.956C801.313 397.574 802.083 395.283 801.482 392.837Z" fill="black"/><path fill-rule="evenodd" clip-rule="evenodd" d="M797.565 384.62V379.927C797.565 377.885 795.909 376.229 793.866 376.229H782.144C780.101 376.229 778.445 377.885 778.445 379.927V384.563C778.445 384.594 778.47 384.62 778.502 384.62H797.565Z" fill="#FF6200"/><path fill-rule="evenodd" clip-rule="evenodd" d="M764.496 404.404C762.082 398.16 755.062 395.056 748.818 397.47C742.575 399.884 739.47 406.903 741.884 413.147C744.298 419.391 751.318 422.495 757.562 420.081C763.805 417.667 766.91 410.648 764.496 404.404Z" fill="#FFC4B8"/><path fill-rule="evenodd" clip-rule="evenodd" d="M821.51 431.541L812.632 408.529L784.396 419.398L771.146 391.872L766.227 394.345L778.212 418.184L790.145 449.049C792.457 455.027 798.13 458.401 802.811 456.581L815.387 451.691C822.07 449.092 824.81 440.075 821.51 431.541Z" fill="#FF6200"/><path fill-rule="evenodd" clip-rule="evenodd" d="M814.724 426.604L818.99 424.97L815.294 415.406L801.451 420.733C803.495 426.02 809.437 428.648 814.724 426.604Z" fill="#FFC4B8"/><path fill-rule="evenodd" clip-rule="evenodd" d="M808.638 424.981L810.852 425.96C810.852 425.96 811.077 425.467 811.202 425.222C812.546 422.592 815.039 420.592 817.115 420.156L816.239 417.838C813.409 418.433 810.705 420.773 809.006 424.099C808.874 424.358 808.75 424.618 808.635 424.879L808.638 424.981Z" fill="black"/><path fill-rule="evenodd" clip-rule="evenodd" d="M721.045 354.118C702.09 363.516 692.532 383.788 699.224 400.471L701.911 407.237L702.775 406.82L701.94 407.294L739.209 461.988L759.347 435.592C763.959 429.547 762.961 420.959 757.133 416.075C756.03 415.151 755.202 414.313 754.89 413.683C752.478 408.819 754.448 402.927 759.324 400.51C759.324 400.51 765.102 397.938 769.515 400.712L780.039 422.692L785.008 420.229L769.389 387.97C767.224 383.605 763.307 380.728 758.933 379.704L766.466 376.065C780.987 368.866 787.105 353.534 781.001 341.219L774.305 327.713L721.045 354.118Z" fill="#FF6200"/><path fill-rule="evenodd" clip-rule="evenodd" d="M834.853 543.118L913.629 614.549C924.718 624.604 925.05 641.924 914.353 652.396C903.577 662.944 886.121 662.146 876.353 650.661L812.543 575.63L834.853 543.118Z" fill="#FFC4B8"/><path fill-rule="evenodd" clip-rule="evenodd" d="M834.853 543.118L808.607 524.77C804.705 522.043 799.583 521.799 795.44 524.147L790.593 526.893L827.943 553.003L834.853 543.118Z" fill="#FFC4B8"/><path fill-rule="evenodd" clip-rule="evenodd" d="M795.591 583.403H763.489C759.369 583.403 756.029 580.062 756.029 575.943V505.601C756.029 501.481 759.369 498.142 763.489 498.142L795.591 498.141C799.711 498.141 803.05 501.481 803.05 505.601L803.051 575.943C803.051 580.062 799.711 583.403 795.591 583.403Z" fill="#E73245"/><path fill-rule="evenodd" clip-rule="evenodd" d="M768.25 507.665C768.25 509.905 766.435 511.72 764.196 511.72C761.957 511.72 760.143 509.905 760.143 507.665C760.143 505.426 761.957 503.611 764.196 503.611C766.435 503.611 768.25 505.426 768.25 507.665Z" fill="#232144"/><path fill-rule="evenodd" clip-rule="evenodd" d="M808.147 563.774L765.806 559.887C762.658 559.598 759.872 561.916 759.583 565.064C759.294 568.213 761.611 570.999 764.76 571.288L807.1 575.175L808.147 563.774Z" fill="#FFC4B8"/><path fill-rule="evenodd" clip-rule="evenodd" d="M834.196 545.634L804.435 533.218L791.882 532.962L794.1 574.031L828.377 577.004L834.196 545.634Z" fill="#FFC4B8"/><path fill-rule="evenodd" clip-rule="evenodd" d="M801.076 543.697L752.324 537.105C749.192 536.682 746.308 538.878 745.885 542.011C745.462 545.144 747.658 548.027 750.791 548.451L799.543 555.042L801.076 543.697Z" fill="#FFC4B8"/><path fill-rule="evenodd" clip-rule="evenodd" d="M805.924 533.984L759.093 527.651C755.96 527.228 753.077 529.424 752.654 532.557C752.23 535.691 754.426 538.573 757.56 538.998L804.389 545.329L805.924 533.984Z" fill="#FFC4B8"/><path fill-rule="evenodd" clip-rule="evenodd" d="M800.31 554.463L758.175 548.766C755.042 548.342 752.159 550.539 751.735 553.672C751.312 556.804 753.508 559.688 756.641 560.111L798.776 565.809L800.31 554.463Z" fill="#FFC4B8"/><path fill-rule="evenodd" clip-rule="evenodd" d="M707.836 1000.64L689.098 916.422L743.674 907.601L755.872 994.602L707.836 1000.64Z" fill="#FFC4B8"/><path fill-rule="evenodd" clip-rule="evenodd" d="M749.223 915.601L718.51 671.339C715.628 648.412 694.86 632.057 671.898 634.628L671.897 634.629C648.384 637.263 631.619 658.695 634.723 682.152L679.741 927.013L749.223 915.601Z" fill="#BAC09A"/><path fill-rule="evenodd" clip-rule="evenodd" d="M761.614 1006.02L754.306 955.982L693.384 963.52L695.225 977.473L654.256 991.833C647.556 994.17 643.395 1000.87 644.266 1007.91L645.762 1020L761.614 1006.02Z" fill="#F7E5CD"/><path fill-rule="evenodd" clip-rule="evenodd" d="M823.807 1005.92L842.49 918.233L785.554 914.128L774.539 999.563L823.807 1005.92Z" fill="#FFC4B8"/><path fill-rule="evenodd" clip-rule="evenodd" d="M780.525 921.002L812.007 676.837C814.962 653.92 835.781 637.631 858.736 640.274C882.242 642.983 898.939 664.467 895.76 687.914L849.971 932.633L780.525 921.002Z" fill="#BAC09A"/><path fill-rule="evenodd" clip-rule="evenodd" d="M772.343 1005.5L778.308 957.568L836.333 966.124L833.726 982.257L842.519 990.855C846.191 994.445 847.94 999.566 847.23 1004.65L845.619 1016.19L772.343 1005.5Z" fill="#F7E5CD"/><path fill-rule="evenodd" clip-rule="evenodd" d="M832.182 521.021C828.944 521.021 826.32 518.397 826.32 515.16V494.995C826.32 491.757 828.944 489.133 832.182 489.133C835.419 489.133 838.043 491.757 838.043 494.995V515.16C838.043 518.397 835.419 521.021 832.182 521.021Z" fill="#F7E5CD"/><path fill-rule="evenodd" clip-rule="evenodd" d="M835.346 535.397C833.856 535.397 832.649 534.19 832.649 532.7V506.5C832.649 505.01 833.856 503.803 835.346 503.803C836.836 503.803 838.043 505.01 838.043 506.5V532.7C838.043 534.19 836.836 535.397 835.346 535.397Z" fill="#F7E5CD"/><path fill-rule="evenodd" clip-rule="evenodd" d="M646.235 516.208L649.573 482.533L608.291 482.568L615.883 519.355L646.235 516.208Z" fill="#FFC4B8"/><path fill-rule="evenodd" clip-rule="evenodd" d="M615.725 517.783L620.789 620.641C621.861 634.196 635.744 644.853 649.262 643.394C663.775 641.828 673.584 627.837 670.111 613.66L645.488 513.155L615.725 517.783Z" fill="#FFC4B8"/><path fill-rule="evenodd" clip-rule="evenodd" d="M658.189 482.685C655.493 480.6 651.617 481.096 649.532 483.792L626.88 513.079L636.642 520.63L659.295 491.342C661.379 488.647 660.884 484.771 658.189 482.685Z" fill="#FFC4B8"/><path fill-rule="evenodd" clip-rule="evenodd" d="M659.839 484.704C662.326 482.374 662.453 478.469 660.123 475.982L639.444 454.46L630.437 462.897L651.116 484.419C653.474 486.905 657.387 487.032 659.839 484.704Z" fill="#FFC4B8"/><path fill-rule="evenodd" clip-rule="evenodd" d="M648.332 494.137C651.428 492.713 652.784 489.048 651.359 485.951L639.976 461.208L628.764 466.366L640.146 491.11C641.572 494.207 645.236 495.561 648.332 494.137Z" fill="#FFC4B8"/><path fill-rule="evenodd" clip-rule="evenodd" d="M636.332 502.234C639.428 500.809 640.784 497.145 639.359 494.048L627.976 469.305L616.764 474.463L628.147 499.206C629.572 502.303 633.236 503.658 636.332 502.234Z" fill="#FFC4B8"/><path fill-rule="evenodd" clip-rule="evenodd" d="M608.291 482.569L616.812 491.497L647.168 462.523L638.648 453.595L608.291 482.569Z" fill="#FFC4B8"/><path fill-rule="evenodd" clip-rule="evenodd" d="M611.6 487.593L618.805 497.612L649.939 475.222L642.734 465.203L611.6 487.593Z" fill="#FFC4B8"/><path fill-rule="evenodd" clip-rule="evenodd" d="M895.677 922.233H931.235H941.317L931.235 1007.12H895.677L885.595 922.233H895.677Z" fill="#F7E5CD"/><path fill-rule="evenodd" clip-rule="evenodd" d="M938.856 916.795V908.021H888.057V916.795H881.361V925.569H945.552V916.795H938.856Z" fill="#F7C7A1"/><path fill-rule="evenodd" clip-rule="evenodd" d="M939.495 937.716H887.17L892.381 984.22H933.964L939.495 937.716Z" fill="#F7C7A1"/><path fill-rule="evenodd" clip-rule="evenodd" d="M1111.41 204.17L1002.3 181.558L1080.3 255.766L1080.3 255.761L1057.51 281.847L1118.82 277.133L1122.47 218.662C1122.91 211.752 1118.19 205.576 1111.41 204.17Z" fill="#FED4B0"/><path fill-rule="evenodd" clip-rule="evenodd" d="M1038.6 189.1L1042.35 220.733L999.686 180L1038.6 189.1Z" fill="#103256"/><path fill-rule="evenodd" clip-rule="evenodd" d="M1027.42 324.321L1073.2 316.386L1072.53 312.523L1026.75 320.459L1027.42 324.321Z" fill="#F26625"/><path fill-rule="evenodd" clip-rule="evenodd" d="M1154.98 274.08L1177 258.149L1152.65 263.507L1154.98 274.08Z" fill="#F26625"/><path fill-rule="evenodd" clip-rule="evenodd" d="M1120.67 307.21L1157.19 275.064C1163.64 269.391 1158.34 258.854 1149.95 260.637L974.384 297.914L1064.89 320.715C1084.57 325.674 1105.43 320.623 1120.67 307.21Z" fill="#FFE3C7"/><path fill-rule="evenodd" clip-rule="evenodd" d="M995.415 293.024L972.129 297.862L1005.86 306.213L995.415 293.024Z" fill="#103256"/><path fill-rule="evenodd" clip-rule="evenodd" d="M1139.2 269.951C1139.2 271.881 1140.76 273.446 1142.69 273.446C1144.62 273.446 1146.19 271.881 1146.19 269.951C1146.19 268.02 1144.62 266.456 1142.69 266.456C1140.76 266.456 1139.2 268.02 1139.2 269.951Z" fill="#103256"/><path fill-rule="evenodd" clip-rule="evenodd" d="M1091.06 210.772L981.326 191.521L1061.6 263.259L1061.6 263.257L1039.64 290.041L1100.77 283.414L1102.56 224.902C1102.78 217.987 1097.87 211.967 1091.06 210.772Z" fill="#FFE3C7"/><path fill-rule="evenodd" clip-rule="evenodd" d="M1017.77 197.425L1022.66 228.462L978.668 190.047L1017.77 197.425Z" fill="#103256"/><path fill-rule="evenodd" clip-rule="evenodd" d="M1024.79 318.451L1070.58 310.515L1069.91 306.653L1024.12 314.589L1024.79 318.451Z" fill="#F26625"/></svg>