<svg viewBox="0 0 1600 1200" fill="none" xmlns="http://www.w3.org/2000/svg"><path fill-rule="evenodd" clip-rule="evenodd" d="M450.182 224.386H763.544V180.134H450.182V224.386Z" fill="#232144"/><path fill-rule="evenodd" clip-rule="evenodd" d="M450.182 268.587H763.544V224.335H450.182V268.587Z" fill="#F7E5CD"/><path fill-rule="evenodd" clip-rule="evenodd" d="M450.182 312.787H763.544V268.535H450.182V312.787Z" fill="#232144"/><path fill-rule="evenodd" clip-rule="evenodd" d="M450.182 356.988H763.544V312.736H450.182V356.988Z" fill="#F7E5CD"/><path fill-rule="evenodd" clip-rule="evenodd" d="M450.182 401.189H763.544V356.938H450.182V401.189Z" fill="#232144"/><path fill-rule="evenodd" clip-rule="evenodd" d="M450.182 445.39H763.544V401.138H450.182V445.39Z" fill="#F7E5CD"/><path fill-rule="evenodd" clip-rule="evenodd" d="M450.182 489.59H763.544V445.338H450.182V489.59Z" fill="#232144"/><path fill-rule="evenodd" clip-rule="evenodd" d="M450.182 533.792H763.544V489.54H450.182V533.792Z" fill="#F7E5CD"/><path fill-rule="evenodd" clip-rule="evenodd" d="M450.182 577.992H763.544V533.74H450.182V577.992Z" fill="#232144"/><path fill-rule="evenodd" clip-rule="evenodd" d="M450.182 622.192H763.544V577.94H450.182V622.192Z" fill="#F7E5CD"/><path fill-rule="evenodd" clip-rule="evenodd" d="M450.182 666.393H763.544V622.141H450.182V666.393Z" fill="#232144"/><path fill-rule="evenodd" clip-rule="evenodd" d="M450.182 710.594H763.544V666.342H450.182V710.594Z" fill="#F7E5CD"/><path fill-rule="evenodd" clip-rule="evenodd" d="M450.182 754.796H763.544V710.544H450.182V754.796Z" fill="#232144"/><path fill-rule="evenodd" clip-rule="evenodd" d="M450.182 798.996H763.544V754.744H450.182V798.996Z" fill="#F7E5CD"/><path fill-rule="evenodd" clip-rule="evenodd" d="M450.182 843.197H763.544V798.945H450.182V843.197Z" fill="#232144"/><path fill-rule="evenodd" clip-rule="evenodd" d="M450.182 887.397H763.544V843.146H450.182V887.397Z" fill="#F7E5CD"/><path fill-rule="evenodd" clip-rule="evenodd" d="M450.182 931.599H763.544V887.347H450.182V931.599Z" fill="#232144"/><path fill-rule="evenodd" clip-rule="evenodd" d="M450.182 975.799H763.544V931.547H450.182V975.799Z" fill="#F7E5CD"/><path fill-rule="evenodd" clip-rule="evenodd" d="M450.182 1020H763.544V975.748H450.182V1020Z" fill="#232144"/><path fill-rule="evenodd" clip-rule="evenodd" d="M735.907 943.416C734.121 938.192 729.844 939.137 722.227 938.709C713.364 938.212 706.883 934.22 702.791 928.379C700.67 925.353 699.61 921.713 699.626 918.017C699.808 875.434 700.906 614.895 700.611 591.925C700.243 563.121 697.097 510.833 661.887 472.186C661.379 471.627 601.23 480.426 601.23 480.426L611.358 559.953L616.846 567.385L664.936 924.901L666.475 950.135C666.993 955.641 668.609 958.578 673.629 958.106L731.278 950.573C734.775 950.256 737.044 946.74 735.907 943.416Z" fill="#F99780"/><path fill-rule="evenodd" clip-rule="evenodd" d="M547.696 384.009L475.334 333.97C467.713 328.699 465.42 318.455 470.067 310.437C474.945 302.022 485.68 299.094 494.153 303.866L560.152 341.042L547.696 384.009Z" fill="#F99780"/><path fill-rule="evenodd" clip-rule="evenodd" d="M497.493 332.839L567.989 290.552L559.582 267.656L479.88 298.218C468.998 302.606 464.43 315.545 470.142 325.795V325.796C475.569 335.534 488.04 338.744 497.493 332.839Z" fill="#F99780"/><path fill-rule="evenodd" clip-rule="evenodd" d="M558.969 292.49L583.327 290.13L573.609 260.559L551.34 270.994L558.969 292.49Z" fill="#F99780"/><path fill-rule="evenodd" clip-rule="evenodd" d="M605.378 289.746L605.38 289.743C606.413 287.307 605.276 284.493 602.838 283.458L579.103 273.384C577.585 272.739 575.833 273.447 575.189 274.965L573.185 279.69C572.867 280.439 573.217 281.305 573.967 281.623L599.089 292.287C601.527 293.322 604.344 292.184 605.378 289.746Z" fill="#F99780"/><path fill-rule="evenodd" clip-rule="evenodd" d="M604.61 294.04L604.611 294.037C605.644 291.601 604.507 288.787 602.07 287.752L578.334 277.678C576.816 277.033 575.064 277.741 574.421 279.259L572.416 283.984C572.098 284.733 572.449 285.599 573.198 285.917L598.321 296.581C600.759 297.616 603.575 296.478 604.61 294.04Z" fill="#F99780"/><path fill-rule="evenodd" clip-rule="evenodd" d="M621.072 284.518C622.642 282.387 622.188 279.385 620.056 277.815L603.017 265.258L597.329 272.98L614.364 285.535C616.497 287.106 619.501 286.651 621.072 284.518Z" fill="#F99780"/><path fill-rule="evenodd" clip-rule="evenodd" d="M616.524 286.602L616.525 286.601C617.761 284.259 616.864 281.36 614.523 280.123L595.808 270.24L591.331 278.723L610.043 288.604C612.385 289.841 615.288 288.945 616.524 286.602Z" fill="#F99780"/><path fill-rule="evenodd" clip-rule="evenodd" d="M573.614 260.574L572.091 270.045L601.51 274.777L603.033 265.307L573.614 260.574Z" fill="#F99780"/><path fill-rule="evenodd" clip-rule="evenodd" d="M572.725 265.063L570.682 274.435L599.795 280.786L601.838 271.414L572.725 265.063Z" fill="#F99780"/><path fill-rule="evenodd" clip-rule="evenodd" d="M606.036 287.918L606.037 287.917C607.139 285.509 606.081 282.664 603.674 281.561L584.432 272.748L580.439 281.47L599.677 290.281C602.086 291.384 604.934 290.326 606.036 287.918Z" fill="#F99780"/><path fill-rule="evenodd" clip-rule="evenodd" d="M561.095 268.878L559.582 278.35L589.006 283.052L590.519 273.579L561.095 268.878Z" fill="#F99780"/><path fill-rule="evenodd" clip-rule="evenodd" d="M670.637 384.009L743 333.97C750.621 328.699 752.913 318.455 748.266 310.437C743.388 302.022 732.653 299.094 724.18 303.866L660.283 339.369L670.637 384.009Z" fill="#F99780"/><path fill-rule="evenodd" clip-rule="evenodd" d="M720.841 332.839L650.345 290.552L658.752 267.656L738.454 298.218C749.336 302.606 753.904 315.545 748.192 325.795V325.796C742.765 335.534 730.294 338.744 720.841 332.839Z" fill="#F99780"/><path fill-rule="evenodd" clip-rule="evenodd" d="M659.365 292.49L635.008 290.13L644.725 260.559L666.995 270.994L659.365 292.49Z" fill="#F99780"/><path fill-rule="evenodd" clip-rule="evenodd" d="M612.955 289.746L612.954 289.743C611.92 287.307 613.058 284.493 615.495 283.458L639.231 273.384C640.749 272.739 642.5 273.447 643.144 274.965L645.149 279.69C645.467 280.439 645.116 281.305 644.367 281.623L619.244 292.287C616.806 293.322 613.989 292.184 612.955 289.746Z" fill="#F99780"/><path fill-rule="evenodd" clip-rule="evenodd" d="M613.725 294.04L613.723 294.037C612.69 291.601 613.827 288.787 616.265 287.752L640 277.678C641.518 277.033 643.27 277.741 643.914 279.259L645.918 283.984C646.236 284.733 645.886 285.599 645.136 285.917L620.014 296.581C617.576 297.616 614.759 296.478 613.725 294.04Z" fill="#F99780"/><path fill-rule="evenodd" clip-rule="evenodd" d="M597.263 284.518C595.693 282.387 596.147 279.385 598.278 277.815L615.317 265.258L621.005 272.98L603.97 285.535C601.837 287.106 598.834 286.651 597.263 284.518Z" fill="#F99780"/><path fill-rule="evenodd" clip-rule="evenodd" d="M601.81 286.602L601.809 286.601C600.574 284.259 601.47 281.36 603.811 280.123L622.526 270.24L627.003 278.723L608.291 288.604C605.949 289.841 603.046 288.945 601.81 286.602Z" fill="#F99780"/><path fill-rule="evenodd" clip-rule="evenodd" d="M644.719 260.574L646.243 270.045L616.823 274.777L615.301 265.307L644.719 260.574Z" fill="#F99780"/><path fill-rule="evenodd" clip-rule="evenodd" d="M645.609 265.063L647.652 274.435L618.539 280.786L616.496 271.414L645.609 265.063Z" fill="#F99780"/><path fill-rule="evenodd" clip-rule="evenodd" d="M612.298 287.918L612.297 287.917C611.194 285.509 612.253 282.664 614.66 281.561L633.902 272.748L637.894 281.47L618.656 290.281C616.247 291.384 613.4 290.326 612.298 287.918Z" fill="#F99780"/><path fill-rule="evenodd" clip-rule="evenodd" d="M657.239 268.878L658.752 278.35L629.328 283.052L627.815 273.579L657.239 268.878Z" fill="#F99780"/><path fill-rule="evenodd" clip-rule="evenodd" d="M670.128 333.8L546.94 335.603L549.12 475.132L671.817 474.379L670.128 333.8Z" fill="#F99780"/><path fill-rule="evenodd" clip-rule="evenodd" d="M556.613 472.186C521.404 510.833 518.257 563.12 517.889 591.925C517.594 614.988 518.702 877.549 518.877 918.524C518.891 921.63 518.065 924.697 516.411 927.325C512.376 933.737 505.659 938.183 496.274 938.709C488.657 939.137 484.38 938.192 482.593 943.416C481.457 946.74 483.726 950.256 487.224 950.573L544.872 958.106C549.892 958.578 551.507 955.641 552.025 950.135L553.482 925.52L601.655 567.385L607.143 559.953L617.27 480.426C617.27 480.426 557.122 471.627 556.613 472.186Z" fill="#F99780"/><path fill-rule="evenodd" clip-rule="evenodd" d="M613.126 567.16L692.157 523.806C692.157 523.806 684.764 498.302 671.817 474.379C671.736 474.229 549.218 474.992 549.121 475.132C533.56 497.35 527.647 522.464 527.647 522.464L605.034 567.16H613.126Z" fill="#FAA332"/><path fill-rule="evenodd" clip-rule="evenodd" d="M547.047 333.752L551.576 335.624L552.486 385.352L547.957 385.433L547.047 333.752Z" fill="#FAA332"/><path fill-rule="evenodd" clip-rule="evenodd" d="M666.52 333.868L670.509 333.619L671.42 383.693L666.89 383.774L666.52 333.868Z" fill="#FAA332"/><path fill-rule="evenodd" clip-rule="evenodd" d="M671.43 437.326H548.517L547.709 379.375L609.57 408.35L671.43 379.375V437.326Z" fill="#FAA332"/><path fill-rule="evenodd" clip-rule="evenodd" d="M633.491 220.048C633.491 233.095 622.917 243.671 609.874 243.671C596.831 243.671 586.257 233.095 586.257 220.048C586.257 207.001 596.831 196.424 609.874 196.424C622.917 196.424 633.491 207.001 633.491 220.048Z" fill="#191414"/><path fill-rule="evenodd" clip-rule="evenodd" d="M649.643 288.373C649.643 293.325 645.629 297.341 640.677 297.341C635.725 297.341 631.711 293.325 631.711 288.373C631.711 283.42 635.725 279.404 640.677 279.404C645.629 279.404 649.643 283.42 649.643 288.373Z" fill="#FFC2B2"/><path fill-rule="evenodd" clip-rule="evenodd" d="M588.805 288.346C588.805 293.299 584.791 297.314 579.84 297.314C574.887 297.314 570.873 293.299 570.873 288.346C570.873 283.393 574.887 279.378 579.84 279.378C584.791 279.378 588.805 283.393 588.805 288.346Z" fill="#FFC2B2"/><path fill-rule="evenodd" clip-rule="evenodd" d="M588.13 332.032V303.287L632.429 302V332.032C632.429 344.268 622.512 354.188 610.28 354.188C598.047 354.188 588.13 344.268 588.13 332.032Z" fill="#F99780"/><path fill-rule="evenodd" clip-rule="evenodd" d="M580.92 299.129V257.757C580.92 244.687 591.518 234.092 604.592 234.092H615.968C629.041 234.092 639.64 244.687 639.64 257.757V299.129C639.64 312.199 629.041 322.795 615.968 322.795H604.592C591.518 322.795 580.92 312.199 580.92 299.129Z" fill="#FFC2B2"/><path fill-rule="evenodd" clip-rule="evenodd" d="M610.171 298.861C609.835 298.861 609.488 298.825 609.129 298.753C608.113 298.547 607.148 298.024 606.259 297.201C605.786 296.764 605.319 296.572 604.826 296.614C603.845 296.698 603.075 297.689 603.067 297.699L602.13 296.988C602.174 296.931 603.213 295.577 604.717 295.443C605.55 295.373 606.336 295.67 607.058 296.337C607.787 297.013 608.562 297.437 609.362 297.599C610.177 297.764 610.905 297.687 611.52 297.371C611.78 297.236 612.038 297.032 612.285 296.768C612.597 296.427 613.465 295.622 614.72 295.577C615.741 295.542 616.736 295.99 617.715 296.914L616.907 297.771C616.166 297.07 615.451 296.725 614.762 296.752C613.952 296.782 613.365 297.331 613.15 297.565C612.809 297.932 612.444 298.217 612.06 298.415C611.484 298.713 610.852 298.861 610.171 298.861Z" fill="#191414"/><path fill-rule="evenodd" clip-rule="evenodd" d="M594.564 269.805L594.202 269.806C590.435 269.824 586.896 271.705 584.641 274.888L604.175 274.797C601.884 271.634 598.331 269.786 594.564 269.805Z" fill="#191414"/><path fill-rule="evenodd" clip-rule="evenodd" d="M625.429 269.463L625.069 269.476C621.304 269.625 617.832 271.629 615.689 274.888L635.209 274.117C632.809 271.036 629.194 269.313 625.429 269.463Z" fill="#191414"/><path fill-rule="evenodd" clip-rule="evenodd" d="M602.429 285.525C602.429 285.525 600.286 280.933 596.173 279.503C592.059 278.074 587.532 280.349 587.532 280.349C587.532 280.349 589.178 284.094 593.292 285.523C597.405 286.952 602.429 285.525 602.429 285.525Z" fill="white"/><path fill-rule="evenodd" clip-rule="evenodd" d="M597.968 282.373C597.968 284.34 596.374 285.934 594.408 285.934C592.441 285.934 590.847 284.34 590.847 282.373C590.847 280.407 592.441 278.812 594.408 278.812C596.374 278.812 597.968 280.407 597.968 282.373Z" fill="#010101"/><path fill-rule="evenodd" clip-rule="evenodd" d="M602.43 285.522C601.369 278.181 592.09 275.044 586.385 278.492C586.735 279.052 587.403 280.188 587.753 280.746C589.014 279.984 595.563 277.337 601.515 284.47C601.875 284.904 601.921 285.086 602.43 285.522Z" fill="#010101"/><path fill-rule="evenodd" clip-rule="evenodd" d="M616.925 285.596C616.925 285.596 619.068 281.003 623.181 279.574C627.295 278.145 631.822 280.419 631.822 280.419C631.822 280.419 630.176 284.164 626.062 285.594C621.949 287.023 616.925 285.596 616.925 285.596Z" fill="white"/><path fill-rule="evenodd" clip-rule="evenodd" d="M620.812 282.595C620.812 284.561 622.406 286.156 624.372 286.156C626.34 286.156 627.933 284.561 627.933 282.595C627.933 280.628 626.34 279.034 624.372 279.034C622.406 279.034 620.812 280.628 620.812 282.595Z" fill="#010101"/><path fill-rule="evenodd" clip-rule="evenodd" d="M616.924 285.593C617.984 278.252 627.264 275.115 632.969 278.564C632.618 279.123 631.951 280.259 631.6 280.817C630.339 280.055 623.79 277.408 617.839 284.542C617.478 284.975 617.432 285.157 616.924 285.593Z" fill="#010101"/><path fill-rule="evenodd" clip-rule="evenodd" d="M581.264 288.208V272.358C581.264 259.284 591.735 248.686 604.651 248.686H608.55H612.009H615.907C628.823 248.686 639.294 259.284 639.294 272.358V288.208H643.882V257.571C643.882 243.404 632.4 231.919 618.236 231.919H602.322C588.159 231.919 576.677 243.404 576.677 257.571V288.208H581.264Z" fill="#191414"/><path fill-rule="evenodd" clip-rule="evenodd" d="M672.471 505.762H548.385V430.418H671.165L672.471 505.762Z" fill="#FAA332"/><path fill-rule="evenodd" clip-rule="evenodd" d="M604.664 307.54C604.664 310.09 607.052 312.158 609.999 312.158C612.945 312.158 615.334 310.09 615.334 307.54C615.334 304.989 612.945 302.922 609.999 302.922C607.052 302.922 604.664 304.989 604.664 307.54Z" fill="#191414"/><path fill-rule="evenodd" clip-rule="evenodd" d="M587.274 288.851H633.366V284.557H587.274V288.851Z" fill="#FFC2B2"/><path fill-rule="evenodd" clip-rule="evenodd" d="M587.273 288.851H604.308V283.616H587.273V288.851Z" fill="#FFC2B2"/><path fill-rule="evenodd" clip-rule="evenodd" d="M608.298 243.973C608.298 251.361 600.704 257.351 591.336 257.351C581.969 257.351 574.375 251.361 574.375 243.973C574.375 236.585 581.969 230.594 591.336 230.594C600.704 230.594 608.298 236.585 608.298 243.973Z" fill="#E73245"/><path fill-rule="evenodd" clip-rule="evenodd" d="M605.085 243.973C605.085 249.962 598.929 254.817 591.336 254.817C583.743 254.817 577.587 249.962 577.587 243.973C577.587 237.984 583.743 233.128 591.336 233.128C598.929 233.128 605.085 237.984 605.085 243.973Z" fill="#891229"/><path fill-rule="evenodd" clip-rule="evenodd" d="M645.844 243.973C645.844 251.361 638.25 257.351 628.882 257.351C619.515 257.351 611.921 251.361 611.921 243.973C611.921 236.585 619.515 230.594 628.882 230.594C638.25 230.594 645.844 236.585 645.844 243.973Z" fill="#E73245"/><path fill-rule="evenodd" clip-rule="evenodd" d="M642.631 243.973C642.631 249.962 636.475 254.817 628.882 254.817C621.289 254.817 615.133 249.962 615.133 243.973C615.133 237.984 621.289 233.128 628.882 233.128C636.475 233.128 642.631 237.984 642.631 243.973Z" fill="#891229"/><path fill-rule="evenodd" clip-rule="evenodd" d="M605.321 242.804H613.884V239.946H605.321V242.804Z" fill="#E73245"/><path fill-rule="evenodd" clip-rule="evenodd" d="M487.032 941.527C486.766 938.103 484.96 934.399 475.553 933.108C475.338 933.059 475.125 933.06 474.91 933.029L474.917 932.99C474.917 932.99 464.522 931.608 455.195 937.121C452.939 932.182 449.132 927.922 444.052 925.15L432.233 918.7C427.257 915.985 421.743 915.074 416.472 915.77L416.485 915.753C416.485 915.753 416.947 901.738 409.275 893.158C409.262 893.162 409.249 893.164 409.236 893.168C408.759 892.265 408.106 891.454 407.319 890.757C407.296 890.737 407.278 890.714 407.256 890.695C406.902 890.389 406.512 890.113 406.108 889.856C406.042 889.814 405.987 889.765 405.921 889.726C405.455 889.443 404.96 889.191 404.437 888.978L400.57 887.304C393.165 884.259 389.349 887.834 387.66 890.824L398.449 895.602L398.429 895.633C394.617 896.238 390.735 896.586 386.823 896.651C387.629 899.414 389.983 902.016 392.976 902.662L393.448 902.763L398.224 903.794C398.26 903.802 398.299 903.806 398.334 903.813C399.345 904.001 407.206 905.84 409.374 917.753L409.388 917.766C406.601 918.995 404.004 920.706 401.756 922.901C390.138 916.869 381.026 927.776 381.026 927.776L397.567 928.251C396.823 929.503 396.206 930.794 395.695 932.111C387.114 931.464 381.014 938.772 381.014 938.772L394.028 939.145C393.912 940.46 393.93 941.774 394.014 943.084C386.322 943.401 381 949.766 381 949.766L395.468 950.18C397.52 955.925 401.585 960.998 407.427 964.186L419.246 970.636C425.088 973.822 431.553 974.496 437.493 973.113L445.673 985.056C445.673 985.056 448.141 977.134 444.245 970.493C445.39 969.856 446.506 969.158 447.549 968.35L454.908 979.093C454.908 979.093 457.748 970.007 452.558 963.14C453.39 961.997 454.141 960.78 454.79 959.476L464.143 973.13C464.143 973.13 468.379 959.562 457.018 953.058C457.518 950.613 457.663 948.146 457.458 945.728L471.813 948.777L471.815 948.763C471.872 948.776 471.922 948.804 471.979 948.818C478.864 950.677 484.247 949.168 485.969 946.197L475.234 941.297L487.032 941.527Z" fill="#E73245"/><path fill-rule="evenodd" clip-rule="evenodd" d="M428.275 927.711C427.507 929.121 425.741 929.64 424.332 928.872C422.924 928.102 422.404 926.336 423.173 924.927C423.942 923.518 425.707 922.999 427.116 923.768C428.525 924.536 429.043 926.302 428.275 927.711Z" fill="#232144"/><path fill-rule="evenodd" clip-rule="evenodd" d="M443.127 935.816C442.358 937.225 440.593 937.744 439.184 936.976C437.775 936.207 437.255 934.441 438.025 933.031C438.793 931.623 440.559 931.103 441.967 931.872C443.376 932.64 443.895 934.406 443.127 935.816Z" fill="#232144"/><path fill-rule="evenodd" clip-rule="evenodd" d="M1177.54 1020H946.57C923.67 1020 905.105 1001.44 905.105 978.547V221.453C905.105 198.559 923.67 180 946.57 180H1177.54C1200.44 180 1219 198.559 1219 221.453V978.547C1219 1001.44 1200.44 1020 1177.54 1020Z" fill="#B9DEE8"/><path fill-rule="evenodd" clip-rule="evenodd" d="M1140.04 951.587C1138.81 946.204 1134.46 946.694 1126.93 945.469C1118.17 944.043 1112.14 939.391 1108.69 933.152C1106.89 929.919 1106.22 926.189 1106.63 922.515C1111.28 880.187 1139.75 621.206 1141.87 598.332C1144.53 569.649 1146.89 517.32 1115.94 475.185C1115.49 474.576 1054.75 477.003 1054.75 477.003L1056.47 557.153L1061.15 565.122L1071.41 925.714L1070.29 950.969C1070.22 956.499 1071.52 959.591 1076.56 959.649L1134.68 958.217C1138.19 958.271 1140.82 955.012 1140.04 951.587Z" fill="#F0A86B"/><path fill-rule="evenodd" clip-rule="evenodd" d="M997.904 384.009L925.542 333.97C917.921 328.699 915.628 318.455 920.275 310.437C925.153 302.022 935.888 299.094 944.361 303.866L1010.36 341.042L997.904 384.009Z" fill="#E3944F"/><path fill-rule="evenodd" clip-rule="evenodd" d="M947.7 332.839L1018.2 290.552L1009.79 267.656L930.087 298.218C919.205 302.606 914.637 315.545 920.349 325.795V325.796C925.776 335.534 938.247 338.744 947.7 332.839Z" fill="#E3944F"/><path fill-rule="evenodd" clip-rule="evenodd" d="M1009.18 292.49L1033.53 290.13L1023.82 260.559L1001.55 270.994L1009.18 292.49Z" fill="#E3944F"/><path fill-rule="evenodd" clip-rule="evenodd" d="M1055.59 289.745L1055.59 289.743C1056.62 287.307 1055.48 284.493 1053.05 283.458L1029.31 273.383C1027.79 272.739 1026.04 273.447 1025.4 274.964L1023.39 279.69C1023.07 280.439 1023.42 281.305 1024.17 281.623L1049.3 292.286C1051.73 293.322 1054.55 292.184 1055.59 289.745Z" fill="#E3944F"/><path fill-rule="evenodd" clip-rule="evenodd" d="M1054.82 294.04L1054.82 294.037C1055.85 291.601 1054.71 288.787 1052.28 287.752L1028.54 277.678C1027.02 277.033 1025.27 277.741 1024.63 279.259L1022.62 283.984C1022.31 284.733 1022.66 285.599 1023.41 285.917L1048.53 296.581C1050.97 297.616 1053.78 296.478 1054.82 294.04Z" fill="#E3944F"/><path fill-rule="evenodd" clip-rule="evenodd" d="M1071.28 284.518C1072.85 282.387 1072.39 279.385 1070.26 277.815L1053.22 265.258L1047.54 272.98L1064.57 285.535C1066.7 287.106 1069.71 286.651 1071.28 284.518Z" fill="#E3944F"/><path fill-rule="evenodd" clip-rule="evenodd" d="M1066.73 286.602L1066.73 286.601C1067.97 284.259 1067.07 281.36 1064.73 280.123L1046.02 270.24L1041.54 278.723L1060.25 288.604C1062.59 289.841 1065.5 288.945 1066.73 286.602Z" fill="#E3944F"/><path fill-rule="evenodd" clip-rule="evenodd" d="M1023.82 260.574L1022.3 270.045L1051.72 274.777L1053.24 265.307L1023.82 260.574Z" fill="#E3944F"/><path fill-rule="evenodd" clip-rule="evenodd" d="M1022.93 265.063L1020.89 274.435L1050 280.786L1052.04 271.414L1022.93 265.063Z" fill="#E3944F"/><path fill-rule="evenodd" clip-rule="evenodd" d="M1056.24 287.917L1056.24 287.916C1057.35 285.509 1056.29 282.664 1053.88 281.561L1034.64 272.748L1030.65 281.469L1049.88 290.281C1052.29 291.384 1055.14 290.325 1056.24 287.917Z" fill="#E3944F"/><path fill-rule="evenodd" clip-rule="evenodd" d="M1011.3 268.878L1009.79 278.35L1039.21 283.052L1040.73 273.579L1011.3 268.878Z" fill="#E3944F"/><path fill-rule="evenodd" clip-rule="evenodd" d="M1120.84 384.009L1193.21 333.97C1200.83 328.699 1203.12 318.455 1198.47 310.437C1193.6 302.022 1182.86 299.094 1174.39 303.866L1108.09 340.317L1120.84 384.009Z" fill="#E3944F"/><path fill-rule="evenodd" clip-rule="evenodd" d="M1171.05 332.839L1100.55 290.552L1108.96 267.656L1188.66 298.218C1199.54 302.606 1204.11 315.545 1198.4 325.795V325.796C1192.97 335.534 1180.5 338.744 1171.05 332.839Z" fill="#E3944F"/><path fill-rule="evenodd" clip-rule="evenodd" d="M1109.57 292.49L1085.21 290.13L1094.93 260.559L1117.2 270.994L1109.57 292.49Z" fill="#E3944F"/><path fill-rule="evenodd" clip-rule="evenodd" d="M1063.16 289.745L1063.16 289.743C1062.13 287.307 1063.26 284.493 1065.7 283.458L1089.44 273.383C1090.96 272.739 1092.71 273.447 1093.35 274.964L1095.36 279.69C1095.67 280.439 1095.32 281.305 1094.57 281.623L1069.45 292.286C1067.01 293.322 1064.2 292.184 1063.16 289.745Z" fill="#E3944F"/><path fill-rule="evenodd" clip-rule="evenodd" d="M1063.93 294.04L1063.93 294.037C1062.9 291.601 1064.03 288.787 1066.47 287.752L1090.21 277.678C1091.73 277.033 1093.48 277.741 1094.12 279.259L1096.13 283.984C1096.44 284.733 1096.09 285.599 1095.34 285.917L1070.22 296.581C1067.78 297.616 1064.97 296.478 1063.93 294.04Z" fill="#E3944F"/><path fill-rule="evenodd" clip-rule="evenodd" d="M1047.47 284.518C1045.9 282.387 1046.35 279.385 1048.49 277.815L1065.52 265.258L1071.21 272.98L1054.18 285.535C1052.04 287.106 1049.04 286.651 1047.47 284.518Z" fill="#E3944F"/><path fill-rule="evenodd" clip-rule="evenodd" d="M1052.02 286.602L1052.02 286.601C1050.78 284.259 1051.68 281.36 1054.02 280.123L1072.73 270.24L1077.21 278.723L1058.5 288.604C1056.16 289.841 1053.25 288.945 1052.02 286.602Z" fill="#E3944F"/><path fill-rule="evenodd" clip-rule="evenodd" d="M1094.93 260.574L1096.45 270.045L1067.03 274.777L1065.51 265.307L1094.93 260.574Z" fill="#E3944F"/><path fill-rule="evenodd" clip-rule="evenodd" d="M1095.82 265.063L1097.86 274.435L1068.75 280.786L1066.7 271.414L1095.82 265.063Z" fill="#E3944F"/><path fill-rule="evenodd" clip-rule="evenodd" d="M1062.5 287.917L1062.5 287.916C1061.4 285.509 1062.46 282.664 1064.87 281.561L1084.11 272.748L1088.1 281.469L1068.86 290.281C1066.45 291.384 1063.61 290.325 1062.5 287.917Z" fill="#E3944F"/><path fill-rule="evenodd" clip-rule="evenodd" d="M1107.45 268.878L1108.96 278.35L1079.54 283.052L1078.02 273.579L1107.45 268.878Z" fill="#E3944F"/><path fill-rule="evenodd" clip-rule="evenodd" d="M1120.33 333.8L997.147 335.603L999.327 475.132L1122.02 474.379L1120.33 333.8Z" fill="#E3944F"/><path fill-rule="evenodd" clip-rule="evenodd" d="M1003.53 473.661C972.378 515.651 974.5 567.99 977.027 596.685C979.049 619.661 1006.52 880.783 1010.81 921.533C1011.14 924.622 1010.62 927.756 1009.24 930.537C1005.87 937.322 999.636 942.421 990.351 943.888C982.816 945.078 978.464 944.568 977.213 949.946C976.415 953.366 979.026 956.638 982.538 956.601L1040.65 958.302C1045.69 958.267 1047.01 955.182 1046.97 949.653L1045.94 925.016L1057.9 563.852L1062.62 555.905L1064.71 475.764C1064.71 475.764 1003.98 473.055 1003.53 473.661Z" fill="#F0A86B"/><path fill-rule="evenodd" clip-rule="evenodd" d="M1120.15 379.375H995.129C990.304 379.375 986.279 383.065 985.86 387.873L951.05 786.968H1167.06L1129.41 387.808C1128.96 383.028 1124.95 379.375 1120.15 379.375Z" fill="#C6C6C6"/><path fill-rule="evenodd" clip-rule="evenodd" d="M1083.7 220.048C1083.7 233.095 1073.12 243.671 1060.08 243.671C1047.04 243.671 1036.46 233.095 1036.46 220.048C1036.46 207.001 1047.04 196.424 1060.08 196.424C1073.12 196.424 1083.7 207.001 1083.7 220.048Z" fill="#8B181D"/><path fill-rule="evenodd" clip-rule="evenodd" d="M1099.85 287.673C1099.85 292.626 1095.84 296.642 1090.88 296.642C1085.93 296.642 1081.92 292.626 1081.92 287.673C1081.92 282.72 1085.93 278.705 1090.88 278.705C1095.84 278.705 1099.85 282.72 1099.85 287.673Z" fill="#F0A86B"/><path fill-rule="evenodd" clip-rule="evenodd" d="M1039.01 287.647C1039.01 292.6 1035 296.615 1030.05 296.615C1025.1 296.615 1021.08 292.6 1021.08 287.647C1021.08 282.694 1025.1 278.679 1030.05 278.679C1035 278.679 1039.01 282.694 1039.01 287.647Z" fill="#F0A86B"/><path fill-rule="evenodd" clip-rule="evenodd" d="M1038.34 332.032V303.287L1082.64 302V332.032C1082.64 344.268 1072.72 354.188 1060.49 354.188C1048.25 354.188 1038.34 344.268 1038.34 332.032Z" fill="#E3944F"/><path fill-rule="evenodd" clip-rule="evenodd" d="M1038.34 318.221V289.477L1082.64 288.19V318.221C1082.64 330.458 1072.72 340.377 1060.49 340.377C1048.25 340.377 1038.34 330.458 1038.34 318.221Z" fill="#E3944F"/><path fill-rule="evenodd" clip-rule="evenodd" d="M1031.13 299.129V257.757C1031.13 244.687 1041.72 234.092 1054.8 234.092H1066.17C1079.25 234.092 1089.85 244.687 1089.85 257.757V299.129C1089.85 312.199 1079.25 322.795 1066.17 322.795H1054.8C1041.72 322.795 1031.13 312.199 1031.13 299.129Z" fill="#F0A86B"/><path fill-rule="evenodd" clip-rule="evenodd" d="M1060.38 298.186C1060.04 298.186 1059.69 298.15 1059.34 298.077C1058.32 297.871 1057.35 297.35 1056.47 296.526C1055.99 296.088 1055.53 295.891 1055.03 295.939C1054.05 296.026 1053.28 297.013 1053.27 297.022L1052.34 296.313C1052.38 296.256 1053.42 294.901 1054.92 294.768C1055.76 294.694 1056.54 294.995 1057.27 295.663C1057.99 296.338 1058.77 296.762 1059.57 296.925C1060.39 297.089 1061.11 297.013 1061.73 296.696C1061.99 296.561 1062.25 296.358 1062.49 296.093C1062.8 295.752 1063.67 294.948 1064.93 294.902C1065.91 294.864 1066.94 295.314 1067.92 296.24L1067.11 297.096C1066.37 296.395 1065.65 296.054 1064.97 296.077C1064.16 296.108 1063.57 296.656 1063.36 296.89C1063.01 297.258 1062.65 297.543 1062.27 297.741C1061.69 298.038 1061.06 298.186 1060.38 298.186Z" fill="#191414"/><path fill-rule="evenodd" clip-rule="evenodd" d="M1060.54 306.855C1060.54 304.346 1056.7 304.681 1056.7 304.681H1048C1048.09 304.191 1060.28 323.347 1073.08 304.681H1064.39C1064.39 304.681 1060.54 304.346 1060.54 306.855Z" fill="#BA251D"/><path fill-rule="evenodd" clip-rule="evenodd" d="M1044.77 264.483L1044.41 264.484C1040.64 264.501 1037.1 266.383 1034.85 269.565L1054.38 269.475C1052.09 266.312 1048.54 264.464 1044.77 264.483Z" fill="#8B181D"/><path fill-rule="evenodd" clip-rule="evenodd" d="M1075.64 264.14L1075.28 264.153C1071.51 264.302 1068.04 266.306 1065.9 269.566L1085.42 268.794C1083.02 265.714 1079.4 263.99 1075.64 264.14Z" fill="#8B181D"/><path fill-rule="evenodd" clip-rule="evenodd" d="M1052.64 285.626C1052.64 285.626 1050.49 281.034 1046.38 279.605C1042.27 278.176 1037.74 280.45 1037.74 280.45C1037.74 280.45 1039.39 284.194 1043.5 285.624C1047.61 287.054 1052.64 285.626 1052.64 285.626Z" fill="white"/><path fill-rule="evenodd" clip-rule="evenodd" d="M1048.17 282.475C1048.17 284.441 1046.58 286.036 1044.61 286.036C1042.65 286.036 1041.05 284.441 1041.05 282.475C1041.05 280.508 1042.65 278.914 1044.61 278.914C1046.58 278.914 1048.17 280.508 1048.17 282.475Z" fill="#010101"/><path fill-rule="evenodd" clip-rule="evenodd" d="M1052.64 285.624C1051.58 278.282 1042.3 275.145 1036.59 278.594C1036.94 279.153 1037.61 280.289 1037.96 280.848C1039.22 280.086 1045.77 277.438 1051.72 284.572C1052.08 285.005 1052.13 285.187 1052.64 285.624Z" fill="#010101"/><path fill-rule="evenodd" clip-rule="evenodd" d="M1067.13 285.697C1067.13 285.697 1069.27 281.105 1073.39 279.676C1077.5 278.247 1082.03 280.521 1082.03 280.521C1082.03 280.521 1080.38 284.266 1076.27 285.695C1072.16 287.124 1067.13 285.697 1067.13 285.697Z" fill="white"/><path fill-rule="evenodd" clip-rule="evenodd" d="M1071.02 282.696C1071.02 284.663 1072.61 286.257 1074.58 286.257C1076.55 286.257 1078.14 284.663 1078.14 282.696C1078.14 280.73 1076.55 279.135 1074.58 279.135C1072.61 279.135 1071.02 280.73 1071.02 282.696Z" fill="#010101"/><path fill-rule="evenodd" clip-rule="evenodd" d="M1067.13 285.695C1068.19 278.353 1077.47 275.216 1083.18 278.665C1082.83 279.224 1082.16 280.36 1081.81 280.918C1080.55 280.156 1074 277.509 1068.05 284.643C1067.69 285.076 1067.64 285.258 1067.13 285.695Z" fill="#010101"/><path fill-rule="evenodd" clip-rule="evenodd" d="M1031.47 285.871V272.357C1031.47 259.284 1041.94 248.686 1054.86 248.686H1058.76H1062.22H1066.11C1079.03 248.686 1089.5 259.284 1089.5 272.357V285.871H1094.09V257.57C1094.09 243.403 1082.61 231.918 1068.44 231.918H1052.53C1038.37 231.918 1026.88 243.403 1026.88 257.57V285.871H1031.47Z" fill="#8B181D"/><path fill-rule="evenodd" clip-rule="evenodd" d="M951.051 786.968L1077 740.039C1095.82 732.198 1107.74 713.437 1106.86 693.061L1097.37 474.374L1102.24 379.375H994.96C990.132 379.375 986.108 383.067 985.69 387.878L951.051 786.968Z" fill="#E6E6E6"/><path fill-rule="evenodd" clip-rule="evenodd" d="M1056.82 283.653C1056.82 289.864 1051.79 294.899 1045.58 294.899C1039.37 294.899 1034.33 289.864 1034.33 283.653C1034.33 277.442 1039.37 272.407 1045.58 272.407C1051.79 272.407 1056.82 277.442 1056.82 283.653Z" fill="#32785A"/><path fill-rule="evenodd" clip-rule="evenodd" d="M1054.55 283.653C1054.55 288.608 1050.53 292.624 1045.58 292.624C1040.62 292.624 1036.61 288.608 1036.61 283.653C1036.61 278.698 1040.62 274.682 1045.58 274.682C1050.53 274.682 1054.55 278.698 1054.55 283.653Z" fill="#B3DFC6"/><path fill-rule="evenodd" clip-rule="evenodd" d="M1044.78 281.722C1044.78 282.822 1043.89 283.713 1042.79 283.713C1041.69 283.713 1040.8 282.822 1040.8 281.722C1040.8 280.623 1041.69 279.732 1042.79 279.732C1043.89 279.732 1044.78 280.623 1044.78 281.722Z" fill="#E2F3E8"/><path fill-rule="evenodd" clip-rule="evenodd" d="M1050.36 282.151C1050.36 283.251 1049.47 284.142 1048.37 284.142C1047.27 284.142 1046.38 283.251 1046.38 282.151C1046.38 281.051 1047.27 280.161 1048.37 280.161C1049.47 280.161 1050.36 281.051 1050.36 282.151Z" fill="#E2F3E8"/><path fill-rule="evenodd" clip-rule="evenodd" d="M1047.14 285.584C1047.14 286.684 1046.25 287.575 1045.15 287.575C1044.05 287.575 1043.16 286.684 1043.16 285.584C1043.16 284.485 1044.05 283.594 1045.15 283.594C1046.25 283.594 1047.14 284.485 1047.14 285.584Z" fill="#E2F3E8"/><path fill-rule="evenodd" clip-rule="evenodd" d="M1086.46 283.653C1086.46 289.864 1081.43 294.899 1075.22 294.899C1069.01 294.899 1063.97 289.864 1063.97 283.653C1063.97 277.442 1069.01 272.407 1075.22 272.407C1081.43 272.407 1086.46 277.442 1086.46 283.653Z" fill="#32785A"/><path fill-rule="evenodd" clip-rule="evenodd" d="M1084.19 283.653C1084.19 288.608 1080.17 292.624 1075.22 292.624C1070.26 292.624 1066.25 288.608 1066.25 283.653C1066.25 278.698 1070.26 274.682 1075.22 274.682C1080.17 274.682 1084.19 278.698 1084.19 283.653Z" fill="#B3DFC6"/><path fill-rule="evenodd" clip-rule="evenodd" d="M1074.42 281.722C1074.42 282.822 1073.53 283.713 1072.43 283.713C1071.33 283.713 1070.44 282.822 1070.44 281.722C1070.44 280.623 1071.33 279.732 1072.43 279.732C1073.53 279.732 1074.42 280.623 1074.42 281.722Z" fill="#E2F3E8"/><path fill-rule="evenodd" clip-rule="evenodd" d="M1080 282.151C1080 283.251 1079.1 284.142 1078.01 284.142C1076.91 284.142 1076.01 283.251 1076.01 282.151C1076.01 281.051 1076.91 280.161 1078.01 280.161C1079.1 280.161 1080 281.051 1080 282.151Z" fill="#E2F3E8"/><path fill-rule="evenodd" clip-rule="evenodd" d="M1076.78 285.584C1076.78 286.684 1075.89 287.575 1074.79 287.575C1073.69 287.575 1072.8 286.684 1072.8 285.584C1072.8 284.485 1073.69 283.594 1074.79 283.594C1075.89 283.594 1076.78 284.485 1076.78 285.584Z" fill="#E2F3E8"/></svg>