<svg viewBox="0 0 1600 1200" fill="none" xmlns="http://www.w3.org/2000/svg"><path fill-rule="evenodd" clip-rule="evenodd" d="M656.47 355.318L656.992 293.308L607.466 278.902L606.514 353.281L656.47 355.318Z" fill="#FFA28F"/><path fill-rule="evenodd" clip-rule="evenodd" d="M604.48 276.189L605.113 226.8C605.305 211.833 617.609 199.854 632.595 200.045L660.118 200.398C675.104 200.589 687.097 212.877 686.906 227.846L686.1 290.713C686.004 298.237 679.819 304.258 672.287 304.161L631.268 303.637C616.282 303.446 604.289 291.156 604.48 276.189Z" fill="#FFA28F"/><path fill-rule="evenodd" clip-rule="evenodd" d="M693.609 267.08C693.653 263.707 686.502 256.539 686.502 256.539L685.13 272.468C685.13 272.468 693.565 270.452 693.609 267.08Z" fill="#FFA28F"/><path fill-rule="evenodd" clip-rule="evenodd" d="M689.085 214.91C689.206 205.514 681.677 197.8 672.27 197.68L618.851 198.334C600.973 198.105 587.546 213.237 591.391 230.677L671.834 231.705C681.241 231.825 688.965 224.306 689.085 214.91Z" fill="#8B181D"/><path fill-rule="evenodd" clip-rule="evenodd" d="M656.471 228.27L591.071 229.343L607.132 297.602C630.635 291.851 647.666 268.928 653.571 241.663L656.471 228.27Z" fill="#8B181D"/><path fill-rule="evenodd" clip-rule="evenodd" d="M650.955 261.678C651.03 255.834 646.347 251.037 640.496 250.962C634.645 250.887 629.841 255.563 629.767 261.408C629.692 267.251 634.375 272.049 640.225 272.124C646.076 272.199 650.88 267.522 650.955 261.678Z" fill="#FFA28F"/><path fill-rule="evenodd" clip-rule="evenodd" d="M681.038 252.191C681.038 252.191 683.3 255.281 681.258 259.11C681.258 259.11 675.092 260.611 670.633 253.679C670.633 253.679 676.59 251.717 681.038 252.191Z" fill="white"/><path fill-rule="evenodd" clip-rule="evenodd" d="M680.184 259.92C678.437 259.973 676.967 258.171 676.897 255.894C676.827 253.616 678.183 251.727 679.93 251.673C681.674 251.62 683.144 253.423 683.215 255.699C683.285 257.977 681.928 259.867 680.184 259.92Z" fill="#161615"/><path fill-rule="evenodd" clip-rule="evenodd" d="M682.08 252.197L682.048 251.136C682.048 251.136 675.614 249.558 669.317 252.322L671.003 254.298C671.003 254.298 675.63 252.191 682.08 252.197Z" fill="#161615"/><path fill-rule="evenodd" clip-rule="evenodd" d="M678.021 239.871L677.62 239.884C673.441 240.034 669.578 242.239 667.185 245.84L688.855 245.075C686.205 241.649 682.201 239.722 678.021 239.871Z" fill="#8B181D"/><path fill-rule="evenodd" clip-rule="evenodd" d="M686.306 279.907C686.312 278.542 685.206 277.432 683.839 277.432H671.789C671.853 277.073 677.674 286.024 685.723 286.72C685.888 286.734 686.052 286.745 686.219 286.752C686.359 286.758 686.306 279.907 686.306 279.907Z" fill="#740B16"/><path fill-rule="evenodd" clip-rule="evenodd" d="M649.862 205.914V250.621C662.223 250.621 672.244 240.613 672.244 228.268C672.244 215.923 662.223 205.914 649.862 205.914Z" fill="#8B181D"/><path fill-rule="evenodd" clip-rule="evenodd" d="M645.68 264.011H651.488V235.477H645.68V264.011Z" fill="#8B181D"/><path fill-rule="evenodd" clip-rule="evenodd" d="M727.958 993.368H684.685L674.088 891.504L727.128 891.533L727.958 993.368Z" fill="#F5836D"/><path fill-rule="evenodd" clip-rule="evenodd" d="M681.911 966.775C681.911 966.775 687.37 981.173 703.792 981.173C719.185 981.173 727.959 966.434 727.959 966.434L777.376 981.173C777.376 981.173 784.529 983.429 784.514 995.913H684.555H681.743L681.911 966.775Z" fill="#232144"/><path fill-rule="evenodd" clip-rule="evenodd" d="M681.743 1007.01H784.514V995.918H681.743V1007.01Z" fill="#891229"/><path fill-rule="evenodd" clip-rule="evenodd" d="M639.225 993.375H595.425L590.584 890.297L643.623 890.326L639.225 993.375Z" fill="#F5836D"/><path fill-rule="evenodd" clip-rule="evenodd" d="M594.152 967.183C594.152 967.183 599.779 981.587 616.202 981.587C631.594 981.587 640.368 966.848 640.368 966.848L687.156 981.587C687.156 981.587 696.934 987.536 696.923 996.327H596.964H594.152V967.183Z" fill="#232144"/><path fill-rule="evenodd" clip-rule="evenodd" d="M594.159 1007.01H696.929V995.918H594.159V1007.01Z" fill="#E73245"/><path fill-rule="evenodd" clip-rule="evenodd" d="M661.867 932.986L592.385 543.386C590.033 519.217 594.762 494.886 605.996 473.351L617.753 450.816L686.707 456.806L686.838 504.186L725.376 647.678C729.103 661.557 731.435 675.772 732.335 690.113L738.374 932.122L661.867 932.986Z" fill="#891229"/><path fill-rule="evenodd" clip-rule="evenodd" d="M662.654 945.859H581.429L572.742 546.511C570.32 523.46 565.063 503.689 574.138 472.735L586.487 439.777L603.989 439.798L687.156 453.354L662.654 945.859Z" fill="#E73245"/><path fill-rule="evenodd" clip-rule="evenodd" d="M646.87 331.073C651.089 333.399 656.992 334.469 656.992 334.469C665.146 346.201 686.15 362.257 687.412 379.642C688.7 397.392 688.298 455.228 688.298 455.228L575.148 454.293L592.43 340.132C594.789 322.132 611.839 309.832 629.69 313.257C629.69 313.257 639.768 327.157 646.87 331.073Z" fill="#232144"/><path fill-rule="evenodd" clip-rule="evenodd" d="M823.963 505.401L824.964 504.509L795.367 473.17L770.105 474.629L752.208 467.172L732.137 490.482L754.599 500.023L784.867 521.583L784.832 521.624L793.701 529.395C795.751 531.19 798.87 530.986 800.668 528.939C801.625 527.85 802.392 526.067 802.239 524.733L802.263 524.754L802.592 525.042C804.641 526.837 807.761 526.633 809.558 524.586C811.002 522.943 811.134 520.62 810.077 518.835L810.276 519.009C812.325 520.805 815.444 520.602 817.242 518.555C818.671 516.926 818.815 514.632 817.791 512.853C819.779 513.955 822.332 513.573 823.893 511.796C825.516 509.946 825.492 507.234 823.963 505.401Z" fill="#FFA28F"/><path fill-rule="evenodd" clip-rule="evenodd" d="M920.781 486.493L901.757 444.828L818.883 476.604L799.026 470.403L799.025 470.402L781.011 478.507L781.02 478.528L776.971 480.327C774.412 481.466 773.259 484.461 774.399 487.017C775.538 489.575 778.538 490.726 781.097 489.587L792.177 484.663L792.167 484.642L796.922 482.528L817.005 498.772L823.438 504.833L920.781 486.493Z" fill="#9E3F39"/><path fill-rule="evenodd" clip-rule="evenodd" d="M773.333 505.328L765.53 513.685C763.645 515.704 760.468 515.784 758.484 513.862C756.554 511.992 756.477 508.924 758.311 506.961L766.246 498.462C768.145 496.507 771.27 496.461 773.226 498.357C775.183 500.252 775.231 503.374 773.333 505.328Z" fill="#9E3F39"/><path fill-rule="evenodd" clip-rule="evenodd" d="M795.467 519.226C797.355 521.054 797.474 524.039 795.74 526.012L792.812 529.343C790.927 531.361 787.749 531.44 785.765 529.518C783.836 527.649 783.759 524.582 785.592 522.618L788.329 519.51C790.19 517.395 793.444 517.265 795.467 519.226Z" fill="#9E3F39"/><path fill-rule="evenodd" clip-rule="evenodd" d="M782.462 510.301L774.659 518.657C772.774 520.676 769.598 520.756 767.614 518.834C765.684 516.965 765.607 513.897 767.441 511.933L775.376 503.435C777.274 501.48 780.399 501.433 782.356 503.33C784.313 505.225 784.361 508.347 782.462 510.301Z" fill="#9E3F39"/><path fill-rule="evenodd" clip-rule="evenodd" d="M788.422 518.852L783.645 523.771C781.746 525.726 778.62 525.773 776.663 523.877C774.707 521.981 774.66 518.859 776.558 516.905L781.336 511.985C783.235 510.031 786.359 509.984 788.316 511.88C790.273 513.776 790.321 516.897 788.422 518.852Z" fill="#9E3F39"/><path fill-rule="evenodd" clip-rule="evenodd" d="M698.666 441.211L767.784 473.661L754.598 500.023L678.05 475.95L698.666 441.211Z" fill="#FFA28F"/><path fill-rule="evenodd" clip-rule="evenodd" d="M693.726 431.966L664.326 372.871L619.852 392.674L663.623 464.075C671.386 477.152 688.266 481.512 701.404 473.836L711.17 468.128L693.726 431.966Z" fill="#FFA28F"/><path fill-rule="evenodd" clip-rule="evenodd" d="M676.267 388.618L619.635 416.63C619.635 416.63 610.998 396.125 606.204 374.328C598.525 339.423 641.591 326.119 657.201 352.621C667.56 370.209 676.267 388.618 676.267 388.618Z" fill="#232144"/><path fill-rule="evenodd" clip-rule="evenodd" d="M634.933 306.004C635.364 320.004 624.35 331.702 610.332 332.134C596.316 332.564 584.602 321.564 584.171 307.563C583.74 293.563 594.754 281.864 608.771 281.434C622.789 281.004 634.502 292.003 634.933 306.004Z" fill="#8B181D"/><path fill-rule="evenodd" clip-rule="evenodd" d="M632.462 351.074C623.28 351.355 615.608 344.15 615.325 334.978C615.043 325.808 622.258 318.145 631.44 317.863C640.622 317.582 648.294 324.787 648.576 333.958C648.859 343.129 641.644 350.792 632.462 351.074Z" fill="#8B181D"/><path fill-rule="evenodd" clip-rule="evenodd" d="M476 1020H1124V1006.71H476V1020Z" fill="#E6E5F0"/><path fill-rule="evenodd" clip-rule="evenodd" d="M983.056 381.328L931.489 357.684L886.672 474.038L908.065 485.63C915.478 489.645 924.746 486.934 928.818 479.559L983.056 381.328Z" fill="#9E3F39"/><path fill-rule="evenodd" clip-rule="evenodd" d="M976.319 321.966C960.506 315.833 942.832 322.958 935.526 337.915L935.234 337.791L922.779 367.119L981.699 392.079L993.851 363.463L994.785 363.825C1001.26 347.172 992.992 328.431 976.319 321.966Z" fill="#E6E5F0"/><path fill-rule="evenodd" clip-rule="evenodd" d="M892.853 982.865L889.466 914.945L942.551 916.761L939.441 981.304L892.853 982.865Z" fill="#9E3F39"/><path fill-rule="evenodd" clip-rule="evenodd" d="M829.173 1007.42L829.168 998.409L942.551 998.348L942.556 1007.36L829.173 1007.42Z" fill="#9BA178"/><path fill-rule="evenodd" clip-rule="evenodd" d="M887.604 967.549C891.136 966.169 901.869 963.77 902.193 971.709L902.377 976.221C921.69 986.79 933.002 959.598 940.951 959.273L942.551 998.35L829.169 998.411C829.169 998.411 872.213 973.561 887.604 967.549Z" fill="#9BA178"/><path fill-rule="evenodd" clip-rule="evenodd" d="M883.062 933.45L885.469 705.08C885.58 694.502 886.817 683.967 889.158 673.652L920.032 537.628L932.575 482.367L961.733 486.948C1002.18 495.366 1042.74 520.838 1042.74 520.838L989.525 718.46L974.482 933.693L883.062 933.45Z" fill="#9BA178"/><path fill-rule="evenodd" clip-rule="evenodd" d="M996.783 342.163L977.618 309.137H947.629V342.163H996.783Z" fill="#E6E5F0"/><path fill-rule="evenodd" clip-rule="evenodd" d="M953.601 343.508V286.039L1003.69 272.98V343.508H953.601Z" fill="#9E3F39"/><path fill-rule="evenodd" clip-rule="evenodd" d="M1004.55 280.29V224.452C1004.55 211.918 994.375 201.758 981.825 201.758H948.168C935.619 201.758 925.445 211.918 925.445 224.452V288.87C925.445 296.666 931.772 302.985 939.577 302.985H981.825C994.375 302.985 1004.55 292.824 1004.55 280.29Z" fill="#9E3F39"/><path fill-rule="evenodd" clip-rule="evenodd" d="M917.939 267.375C917.939 263.822 926.98 252.75 926.98 252.75C926.98 252.75 932.653 262.33 932.653 265.882C932.653 269.436 929.769 272.316 926.211 272.316C922.654 272.316 917.939 270.929 917.939 267.375Z" fill="#9E3F39"/><path fill-rule="evenodd" clip-rule="evenodd" d="M975.027 269.752C966.408 259.465 970.354 218.055 970.354 218.055L1015.6 226.567L1003.69 285.317C1003.69 285.317 990.202 287.864 975.027 269.752Z" fill="#420F0F"/><path fill-rule="evenodd" clip-rule="evenodd" d="M1010.97 236.591C1010.97 236.591 1012.41 233.789 1013.86 231.099C1021.94 216.076 1004.85 200.211 988.114 197.564L950.534 191.618C940.391 190.014 930.932 196.513 929.406 206.135C927.88 215.755 934.866 224.856 945.009 226.46L1010.97 236.591Z" fill="#420F0F"/><path fill-rule="evenodd" clip-rule="evenodd" d="M935.346 200.78C935.346 189.304 944.661 180 956.151 180C967.642 180 976.956 189.304 976.956 200.78C976.956 212.257 967.642 221.56 956.151 221.56C944.661 221.56 935.346 212.257 935.346 200.78Z" fill="#420F0F"/><path fill-rule="evenodd" clip-rule="evenodd" d="M919.129 213.483C919.129 202.007 928.444 192.703 939.935 192.703C951.425 192.703 960.74 202.007 960.74 213.483C960.74 224.96 951.425 234.263 939.935 234.263C928.444 234.263 919.129 224.96 919.129 213.483Z" fill="#420F0F"/><path fill-rule="evenodd" clip-rule="evenodd" d="M960.741 209.448C960.741 198.564 969.575 189.742 980.471 189.742C991.368 189.742 1000.2 198.564 1000.2 209.448C1000.2 220.331 991.368 229.154 980.471 229.154C969.575 229.154 960.741 220.331 960.741 209.448Z" fill="#420F0F"/><path fill-rule="evenodd" clip-rule="evenodd" d="M955.181 265.812H978.647V229.938H955.181V265.812Z" fill="#420F0F"/><path fill-rule="evenodd" clip-rule="evenodd" d="M947.708 248.249V222.254H973.772V252.373H951.838C949.557 252.373 947.708 250.527 947.708 248.249Z" fill="#420F0F"/><path fill-rule="evenodd" clip-rule="evenodd" d="M961.593 262.594C961.593 256.389 966.63 251.359 972.842 251.359C979.055 251.359 984.091 256.389 984.091 262.594C984.091 268.8 979.055 273.829 972.842 273.829C966.63 273.829 961.593 268.8 961.593 262.594Z" fill="#9E3F39"/><path fill-rule="evenodd" clip-rule="evenodd" d="M946.019 245.332V241.528C946.019 239.201 944.421 237.312 942.464 237.312H931.639C929.683 237.312 928.085 239.182 928.085 241.49V245.294C928.085 245.312 928.118 245.332 928.118 245.332H946.019Z" fill="#420F0F"/><path fill-rule="evenodd" clip-rule="evenodd" d="M925.445 285.458V283.454C925.445 283.454 925.894 283.45 926.122 283.438C928.564 283.3 930.719 282.332 931.744 280.906L933.402 282.098C932.004 284.04 929.326 285.302 926.236 285.474C925.996 285.488 925.758 285.494 925.521 285.494L925.445 285.458Z" fill="black"/><path fill-rule="evenodd" clip-rule="evenodd" d="M942.091 255.232C942.091 257.565 938.315 259.337 933.661 259.456C929.506 259.562 930.479 251.008 933.661 251.008C938.316 251.008 942.091 252.899 942.091 255.232Z" fill="white"/><path fill-rule="evenodd" clip-rule="evenodd" d="M935.651 255.264C935.651 257.617 934.552 259.524 933.195 259.524C931.84 259.524 930.74 257.617 930.74 255.264C930.74 252.912 931.84 251.004 933.195 251.004C934.552 251.004 935.651 252.912 935.651 255.264Z" fill="black"/><path fill-rule="evenodd" clip-rule="evenodd" d="M984.493 981.347L981.172 910.371L1034.26 912.045L1031.08 979.661L984.493 981.347Z" fill="#9E3F39"/><path fill-rule="evenodd" clip-rule="evenodd" d="M917.816 1007.42L917.787 998.41L1031.17 998.047L1031.2 1007.06L917.816 1007.42Z" fill="#BAC09A"/><path fill-rule="evenodd" clip-rule="evenodd" d="M981.43 965.321C981.43 965.321 990.395 963.578 990.74 971.516L990.937 976.027C1010.28 986.545 1025.21 961.255 1033.15 960.91L1031.17 998.049L917.787 998.413L981.43 965.321Z" fill="#BAC09A"/><path fill-rule="evenodd" clip-rule="evenodd" d="M956.55 946.844L925.935 507.203L1050.29 526.441L1041.08 946.844H956.55Z" fill="#BAC09A"/><path fill-rule="evenodd" clip-rule="evenodd" d="M1050.95 518.15C1050.95 484.58 1023.7 457.367 990.094 457.367C956.484 457.367 929.237 484.58 929.237 518.15C929.237 551.72 956.484 578.933 990.094 578.933C1023.7 578.933 1050.95 551.72 1050.95 518.15Z" fill="#BAC09A"/><path fill-rule="evenodd" clip-rule="evenodd" d="M1051.32 510.635L1039.59 349.676L934.777 362.848L925.821 509.057L1051.32 510.635Z" fill="#E6E5F0"/><path fill-rule="evenodd" clip-rule="evenodd" d="M996.073 361.754L1049.13 341.664L1098.11 463.702C1103.19 477.994 1091.57 492.677 1076.47 491.035L1060.38 489.283L996.073 361.754Z" fill="#9E3F39"/><path fill-rule="evenodd" clip-rule="evenodd" d="M939.043 344.619L967.552 308.242H1009.18V354.842H938.368L939.043 344.619Z" fill="#E6E5F0"/><path fill-rule="evenodd" clip-rule="evenodd" d="M1059.59 355.699L1044 327.903C1035.24 313.746 1016.95 308.408 1001.82 316.078C985.874 324.165 979.509 343.635 987.606 359.563L1002.85 386.784L1059.59 355.699Z" fill="#E6E5F0"/><path fill-rule="evenodd" clip-rule="evenodd" d="M1038.05 473.124L1045.37 339.879C1045.94 329.423 1037.92 320.482 1027.45 319.908C1016.99 319.334 1008.03 327.345 1007.46 337.801L1003.68 406.605L965.093 369.709L877.374 466.226L937.166 519.261L1030.35 606.5L1101.63 515.067L1038.05 473.124Z" fill="#232144"/><path fill-rule="evenodd" clip-rule="evenodd" d="M878.648 406.258C885.451 399.726 896.235 399.823 902.919 406.477L932.951 434.016C940.161 440.626 940.471 451.879 933.638 458.875C927.089 465.582 916.389 465.874 909.482 459.534L878.418 431.019C871.534 424.16 871.637 412.988 878.648 406.258Z" fill="#232144"/><path fill-rule="evenodd" clip-rule="evenodd" d="M890.662 401.987C886.452 401.987 882.244 403.534 879.013 406.637H879.012C875.724 409.794 873.89 414.041 873.847 418.596C873.805 423.151 875.56 427.431 878.79 430.649L909.838 459.149C916.58 465.338 926.868 465.057 933.262 458.51C936.466 455.229 938.162 450.898 938.036 446.316C937.909 441.733 935.976 437.503 932.595 434.403L902.563 406.865C899.299 403.615 894.98 401.987 890.662 401.987ZM921.224 464.663C916.906 464.663 912.579 463.091 909.126 459.923L878.063 431.407C874.616 427.974 872.751 423.426 872.796 418.587C872.842 413.746 874.79 409.234 878.284 405.881C885.238 399.203 896.454 399.303 903.29 406.107L933.307 433.629C936.898 436.924 938.952 441.418 939.086 446.287C939.22 451.155 937.42 455.757 934.015 459.243C930.497 462.846 925.865 464.663 921.224 464.663Z" fill="#E6E5F0"/><path fill-rule="evenodd" clip-rule="evenodd" d="M871.278 446.542C877.88 439.939 888.537 439.759 895.359 446.136L913.935 462.684C921.213 469.167 921.693 480.371 914.998 487.453C908.568 494.255 897.886 494.712 890.894 488.486L871.698 471.388C864.556 464.712 864.365 453.456 871.278 446.542Z" fill="#232144"/><path fill-rule="evenodd" clip-rule="evenodd" d="M883.524 441.932C879.219 441.932 874.922 443.59 871.623 446.889C868.375 450.138 866.627 454.456 866.706 459.048C866.784 463.639 868.675 467.896 872.032 471.034L891.221 488.123C898.06 494.219 908.35 493.776 914.643 487.119C917.789 483.791 919.414 479.439 919.219 474.866C919.023 470.293 917.031 466.096 913.61 463.049L895.035 446.501C891.769 443.449 887.642 441.932 883.524 441.932ZM902.422 493.396C898.21 493.396 893.985 491.893 890.571 488.851L871.374 471.754C867.813 468.427 865.811 463.922 865.729 459.064C865.647 454.207 867.496 449.637 870.933 446.199C877.761 439.37 888.637 439.185 895.692 445.781L914.26 462.321C917.879 465.545 919.987 469.985 920.195 474.824C920.402 479.664 918.684 484.268 915.353 487.79C911.835 491.51 907.137 493.395 902.422 493.396Z" fill="#E6E5F0"/><path fill-rule="evenodd" clip-rule="evenodd" d="M911.827 345.115C918.038 337.677 929.148 336.765 936.491 343.09L980.282 382.38C987.226 388.609 987.99 399.209 982.012 406.369C975.716 413.909 964.411 414.723 957.098 408.163L913.821 369.347C906.647 363.168 905.759 352.382 911.827 345.115Z" fill="#232144"/><path fill-rule="evenodd" clip-rule="evenodd" d="M912.231 345.455C906.383 352.457 907.251 362.997 914.165 368.952L957.448 407.775C960.878 410.852 965.294 412.364 969.9 412.033C974.498 411.701 978.657 409.572 981.609 406.035C987.432 399.06 986.696 388.843 979.932 382.773L936.141 343.484C932.704 340.524 928.31 339.094 923.778 339.468C919.244 339.84 915.143 341.966 912.231 345.455ZM968.654 413.127C964.248 413.127 960.061 411.529 956.746 408.556L913.471 369.74C906.132 363.422 905.211 352.222 911.423 344.781C914.519 341.076 918.875 338.817 923.691 338.421C928.505 338.027 933.175 339.543 936.835 342.696L980.633 381.991C987.821 388.44 988.603 399.297 982.415 406.708C979.279 410.465 974.86 412.728 969.975 413.08C969.533 413.112 969.092 413.127 968.654 413.127Z" fill="#E6E5F0"/><path fill-rule="evenodd" clip-rule="evenodd" d="M883.072 365.846C889.324 358.442 900.439 357.592 907.747 363.959L951.317 403.493C958.225 409.762 958.93 420.366 952.911 427.491C946.573 434.996 935.264 435.746 927.987 429.146L884.93 390.089C877.79 383.869 876.963 373.078 883.072 365.846Z" fill="#232144"/><path fill-rule="evenodd" clip-rule="evenodd" d="M883.474 366.186C877.587 373.156 878.395 383.701 885.274 389.695L928.34 428.76C931.754 431.856 936.179 433.393 940.766 433.086C945.367 432.781 949.537 430.675 952.51 427.155C958.373 420.212 957.693 409.99 950.964 403.884L907.394 364.35C903.973 361.371 899.583 359.916 895.054 360.265C890.518 360.611 886.406 362.714 883.474 366.186ZM939.618 434.175C935.174 434.175 930.958 432.551 927.635 429.536L884.577 390.479C877.275 384.119 876.416 372.914 882.67 365.51C885.786 361.821 890.155 359.586 894.973 359.218C899.792 358.849 904.451 360.394 908.093 363.565L951.67 403.107C958.821 409.595 959.543 420.455 953.313 427.832C950.155 431.572 945.724 433.81 940.836 434.134C940.429 434.16 940.022 434.175 939.618 434.175Z" fill="#E6E5F0"/><path fill-rule="evenodd" clip-rule="evenodd" d="M996.604 528.544L1006.88 526.532L1059.14 459.828L1092.53 485.826L1016.58 560.197L996.604 528.544Z" fill="#9E3F39"/><path fill-rule="evenodd" clip-rule="evenodd" d="M1002.5 575.661L1023.41 553.387L1000.99 530.623C999.128 528.728 996.48 528.121 994.104 528.752L962.535 533.266C959.566 533.969 957.73 536.943 958.434 539.909C959.139 542.876 962.117 544.709 965.086 544.006L981.402 541.673L972.007 552.655L972.132 552.759L970.676 554.449C968.685 556.76 968.946 560.244 971.26 562.232C972.326 563.149 973.642 563.565 974.947 563.545C974.236 565.617 974.798 568 976.561 569.516C978.752 571.4 981.984 571.241 984.012 569.257C983.184 571.377 983.71 573.871 985.535 575.44C987.657 577.264 990.757 577.173 992.793 575.363C993.108 575.962 993.528 576.516 994.072 576.984C996.151 578.771 999.169 578.726 1001.21 577.025L1001.21 577.031L1001.34 576.894C1001.52 576.735 1001.7 576.585 1001.86 576.4L1002.5 575.661Z" fill="#9E3F39"/></svg>