<svg viewBox="0 0 1600 1200" fill="none" xmlns="http://www.w3.org/2000/svg"><path d="M807.922 378.605H359.031V734.504H807.922H1260.89V378.605H807.922Z" fill="#F7C7A1"/><path d="M472.182 854.047H359.031V934.419H472.182V854.047Z" fill="#F7C7A1"/><path d="M1260.88 854.047H1147.73V934.419H1260.88V854.047Z" fill="#F7C7A1"/><path d="M1162.58 560.879V713.378H458.272V560.879H295.252V859.713H333.249H458.272H1162.58H1217.35H1325.6V560.879H1162.58Z" fill="#F7E5CD"/><path d="M816.187 378.605H806.945V713.576H816.187V378.605Z" fill="#F7E5CD"/><path d="M383.805 515.26L275 450.805L279.2 444.172L383.805 515.26Z" fill="#01464D"/><path d="M362.452 523.7L279.782 427.911L285.874 422.963L362.452 523.7Z" fill="#01464D"/><path d="M400.344 462.438L298.411 468.821C299.586 487.721 310.866 503.575 326.657 511.444L327.291 521.643L378.263 518.451L377.629 508.253C392.308 498.47 401.529 481.327 400.355 462.438H400.344Z" fill="#E5F0FF"/><path d="M397.497 489.561L295.668 481.691C294.212 500.571 303.184 517.838 317.718 527.839L316.928 538.028L367.847 541.968L368.638 531.78C384.533 524.138 396.042 508.451 397.497 489.572V489.561Z" fill="#B0C2E4"/><path d="M397.569 507.66H295.438C295.438 526.591 305.71 543.121 320.971 551.968V562.187H372.036V551.968C387.298 543.121 397.569 526.591 397.569 507.66Z" fill="#E5F0FF"/><path d="M1119.17 378.604L1056.59 378.562L1061.79 402.442L1001.66 429.046C996.391 430.574 989.53 438.205 990.07 443.683L990.683 449.713C991.453 457.385 998.293 462.978 1005.96 462.199L1108.31 451.813C1118.86 450.742 1126.54 441.313 1125.47 430.761L1125.42 430.252L1123.41 410.322C1123.41 410.322 1123.27 410.426 1123.04 410.613L1119.17 378.614V378.604Z" fill="#F7E5CD"/><path d="M1077.82 341.201H915.926V378.606H1077.82V341.201Z" fill="#01464D"/><path d="M1049.24 322.498H887.347V341.201H1049.24V322.498Z" fill="#E5F0FF"/><path d="M1081.9 305.021H920.001V323.724H1081.9V305.021Z" fill="#B0C2E4"/><path d="M937.935 597.607H986.546H1000.33L986.546 713.856H937.935L924.149 597.607H937.935Z" fill="#E5F0FF"/><path d="M1006.12 590.164H918.358V602.182H1006.12V590.164Z" fill="#B0C2E4"/><path d="M996.963 578.146H927.518V590.164H996.963V578.146Z" fill="#B0C2E4"/><path d="M997.837 618.814H926.302L933.423 682.501H990.279L997.837 618.814Z" fill="#B0C2E4"/><path d="M536.606 389.877L512.029 495.303C507.133 515.347 524.068 533.966 544.444 530.941C554.934 529.381 563.729 522.219 567.399 512.259L608.931 401.832L536.616 389.877H536.606Z" fill="#66292F"/><path d="M511.865 421.469C511.865 421.469 538.884 370.872 569.449 358.012C594.711 358.012 621.98 374.209 623.872 399.45C625.764 424.692 572.297 469.395 572.297 469.395L511.854 421.469H511.865Z" fill="#BAC09A"/><path d="M850.047 398.91L910.999 508.755C921 526.792 909.574 549.226 889.136 551.701C878.615 552.979 868.229 548.395 862.065 539.756L763.988 402.299L850.047 398.91Z" fill="#66292F"/><path d="M870.943 421.468C870.943 421.468 845.285 362.304 807.984 357.189C782.722 357.189 760.828 374.208 758.926 399.439C757.023 424.67 810.5 469.383 810.5 469.383L870.943 421.458V421.468Z" fill="#BAC09A"/><path d="M574.792 577.711L569.448 358.011C569.448 358.011 660.538 330.514 690.157 330.514C717.145 330.514 813.069 358.344 813.069 358.344L805.522 577.711H574.792Z" fill="#BAC09A"/><path d="M808.827 432.863H574.791V670.714H808.827V432.863Z" fill="#BAC09A"/><path d="M568.647 691.568V627.996H810.397V691.568C810.397 703.918 800.406 713.93 788.066 713.93H590.967C578.638 713.93 568.637 703.918 568.637 691.568H568.647Z" fill="#01464D"/><path d="M670.465 180H714.846C731.261 180 744.578 193.328 744.578 209.733V273.939H640.732V209.733C640.732 193.317 654.06 180 670.465 180Z" fill="#171111"/><path d="M740.14 284.532C748.299 284.532 754.913 277.904 754.913 269.728C754.913 261.552 748.299 254.924 740.14 254.924C731.981 254.924 725.367 261.552 725.367 269.728C725.367 277.904 731.981 284.532 740.14 284.532Z" fill="#7A2F37"/><path d="M642.76 284.532C650.919 284.532 657.533 277.904 657.533 269.728C657.533 261.552 650.919 254.924 642.76 254.924C634.601 254.924 627.987 261.552 627.987 269.728C627.987 277.904 634.601 284.532 642.76 284.532Z" fill="#7A2F37"/><path d="M700.812 184.148H682.099C660.287 184.148 642.604 201.831 642.604 223.643V291.061C642.604 312.874 660.287 330.556 682.099 330.556H700.812C722.624 330.556 740.306 312.874 740.306 291.061V223.643C740.306 201.831 722.624 184.148 700.812 184.148Z" fill="#7A2F37"/><path d="M669.562 320.17H709.659C712.736 320.17 715.231 322.665 715.231 325.742V326.044C715.231 329.121 712.736 331.616 709.659 331.616H669.562V320.18V320.17Z" fill="#8C191E"/><path d="M692.734 286.31C695.022 286.31 696.82 285.177 698.411 284.179C701.02 282.536 702.6 281.549 705.75 284.709L707.798 282.661C703.016 277.868 699.606 280.01 696.872 281.725C695.489 282.588 694.19 283.41 692.734 283.41C691.279 283.41 690.021 282.651 688.711 281.85C686.112 280.26 682.879 278.263 677.515 282.723L679.365 284.959C683.129 281.829 684.75 282.817 687.204 284.324C688.722 285.25 690.437 286.31 692.734 286.31Z" fill="black"/><path d="M658.583 241.201H680.508V247.896C680.508 247.896 680.498 247.927 680.477 247.927H658.552C656.701 247.927 655.204 246.43 655.204 244.58C655.204 242.719 656.722 241.201 658.583 241.201Z" fill="#171111"/><path d="M706.697 241.201H728.622V247.896C728.622 247.896 728.612 247.927 728.591 247.927H706.666C704.815 247.927 703.318 246.43 703.318 244.58C703.318 242.719 704.836 241.201 706.697 241.201Z" fill="#171111"/><path d="M687.755 242.637L689.117 244.997L690.469 247.357H687.755H685.042L686.393 244.997L687.755 242.637Z" fill="#171111"/><path d="M692.557 242.637L693.919 244.997L695.27 247.357H692.557H689.844L691.195 244.997L692.557 242.637Z" fill="#171111"/><path d="M697.559 242.637L698.921 244.997L700.272 247.357H697.559H694.835L696.197 244.997L697.559 242.637Z" fill="#171111"/><path d="M737.145 200.762C736.625 200.762 736.209 201.188 736.209 201.697V287.527H649.028V200.762C644.454 200.762 640.742 204.483 640.742 209.068V335.536C640.742 354.696 656.253 370.228 675.382 370.228H709.865C728.994 370.228 744.505 354.696 744.505 335.536V208.122C744.505 204.057 741.22 200.762 737.155 200.762H737.145Z" fill="#171111"/><path d="M716.771 459.32L885.498 488.46C905.033 491.351 918.059 510.178 913.911 529.525C909.721 549.028 889.834 560.817 870.757 555.12L703.225 502.537L716.781 459.331L716.771 459.32Z" fill="#7A2F37"/><path d="M681.6 984.779L669.613 889.291H669.603L674.052 924.773L601.207 933.495L614.088 993.283L681.6 984.779Z" fill="#7A2F37"/><path d="M669.603 889.291L669.187 885.985L630.649 578.938C627.031 550.12 600.968 529.556 572.15 532.79C542.646 536.096 521.605 563.042 525.503 592.525L581.995 900.321L589.221 934.929L601.207 933.494L674.063 924.772L669.613 889.291H669.603Z" fill="#01464D"/><path d="M681.027 980.214L680.986 979.881L640.296 985.007L607.61 966.73L546.066 986.504C541.221 988.063 538.144 992.773 538.602 997.815H538.581L541.367 1020L683.772 1002.07L681.027 980.214Z" fill="#FF6200"/><path d="M696.487 985.786L699.336 963.611L770.829 970.556L767.97 992.731L696.487 985.786Z" fill="#7A2F37"/><path d="M747.334 960.608C755.838 961.71 763.656 964.424 770.226 968.249L775.143 945.794L703.462 931.541L696.674 984.322V984.384C702.101 967.979 723.756 957.562 747.344 960.608H747.334Z" fill="#7A2F37"/><path d="M770.227 968.247C763.656 964.422 755.838 961.698 747.334 960.606C723.756 957.56 702.101 967.977 696.664 984.382V984.32L696.02 989.31L694.231 1003.18L787.9 1015.28L790.332 996.41V996.348C789.626 985.318 781.88 975.026 770.227 968.237V968.247Z" fill="#FF6200"/><path d="M806.613 536.626C777.806 533.299 751.681 553.779 747.969 582.586L708.464 889.509L702.435 931.342L703.453 931.55L775.134 945.803L787.006 948.163L795.604 904.136L853.063 596.517C857.055 567.044 836.096 540.035 806.603 536.636L806.613 536.626Z" fill="#01464D"/><path d="M599.191 360.798L516.896 486.652C505.959 503.119 511.199 525.429 528.321 535.274C545.589 545.213 567.639 538.31 576.195 520.294L639.902 378.315L599.18 360.787L599.191 360.798Z" fill="#7A2F37"/><path d="M616.219 341.575L647.095 319.609C651.648 316.386 657.657 316.074 662.523 318.808L668.22 322.01L624.588 352.855L616.219 341.575Z" fill="#7A2F37"/><path d="M726.726 348.618L726.688 312.127C726.686 310.273 725.181 308.771 723.327 308.773L661.813 308.837C659.959 308.839 658.457 310.344 658.459 312.199L658.497 348.689C658.499 350.544 660.004 352.045 661.859 352.043L723.372 351.979C725.226 351.977 726.728 350.472 726.726 348.618Z" fill="#FF6200"/><path d="M668.74 328.07H665.133V329.588C665.133 330.087 665.424 330.493 665.788 330.493H668.74V328.07Z" fill="white"/><path d="M675.352 328.07H671.807V330.493H674.707C675.061 330.493 675.352 330.087 675.352 329.588V328.081V328.07Z" fill="white"/><path d="M675.352 325.918H672.431V327.831H675.352V325.918Z" fill="white"/><path d="M668.054 325.918H665.133V327.831H668.054V325.918Z" fill="white"/><path d="M671.568 323.227H668.969V324.214H671.568V323.227Z" fill="white"/><path d="M671.568 329.547H668.969V330.493H671.568V329.547Z" fill="white"/><path d="M671.817 325.679H675.362V324.119C675.362 323.62 675.071 323.215 674.718 323.215H671.828V325.679H671.817Z" fill="white"/><path d="M668.74 323.215H665.788C665.424 323.215 665.133 323.631 665.133 324.13V325.679H668.74V323.225V323.215Z" fill="white"/><path d="M668.282 329.433L668.271 324.318H672.212L672.222 329.433H668.282Z" fill="white"/><path d="M668.075 329.549V324.205H672.431V329.549H668.075ZM668.325 324.434V329.32H672.182V324.434H668.325Z" fill="#FF6200"/><path d="M678.253 328.715C678.19 328.715 678.128 328.695 678.076 328.643C677.982 328.549 677.982 328.393 678.076 328.289C678.845 327.52 678.845 326.252 678.076 325.482C677.982 325.389 677.982 325.233 678.076 325.129C678.17 325.035 678.326 325.035 678.43 325.129C679.396 326.096 679.396 327.665 678.43 328.632C678.378 328.684 678.315 328.705 678.253 328.705V328.715Z" fill="white"/><path d="M679.303 329.153C679.24 329.153 679.178 329.132 679.126 329.08C679.032 328.987 679.032 328.831 679.126 328.727C680.145 327.708 680.145 326.055 679.126 325.047C679.032 324.953 679.032 324.797 679.126 324.693C679.219 324.6 679.375 324.6 679.479 324.693C680.685 325.899 680.685 327.864 679.479 329.08C679.427 329.132 679.365 329.153 679.303 329.153Z" fill="white"/><path d="M680.352 329.598C680.29 329.598 680.228 329.577 680.176 329.525C680.082 329.432 680.082 329.276 680.176 329.172C680.789 328.558 681.122 327.747 681.122 326.885C681.122 326.022 680.789 325.211 680.176 324.597C680.082 324.504 680.082 324.348 680.176 324.244C680.269 324.15 680.425 324.15 680.529 324.244C681.236 324.951 681.621 325.887 681.621 326.885C681.621 327.883 681.236 328.818 680.529 329.525C680.477 329.577 680.415 329.598 680.352 329.598Z" fill="white"/><path d="M681.517 330.006C681.455 330.006 681.393 329.985 681.341 329.933C681.247 329.839 681.247 329.684 681.341 329.58C682.734 328.187 682.734 325.567 681.341 324.174C681.247 324.08 681.247 323.924 681.341 323.82C681.434 323.727 681.59 323.727 681.694 323.82C683.264 325.39 683.264 328.353 681.694 329.923C681.642 329.975 681.58 329.995 681.517 329.995V330.006Z" fill="white"/><path d="M720.045 339.672C719.536 335.992 716.136 333.424 712.466 333.944L710.179 334.266C711.603 332.832 712.362 330.773 712.061 328.621C711.551 324.941 708.152 322.373 704.482 322.893L653.531 330.025L653.001 327.55L619.619 342.989L616.209 341.585L599.181 360.818L622.811 416.426L640.484 379.635L648.479 378.907V378.928L652.117 378.574L663.709 377.514V377.451L698.068 374.135C701.758 373.782 704.461 370.497 704.108 366.806C703.91 364.716 702.777 362.939 701.166 361.857L707.528 360.963C711.198 360.454 713.755 357.054 713.246 353.385C712.893 350.838 711.156 348.831 708.911 347.999L714.317 347.241C717.987 346.731 720.544 343.332 720.035 339.662L720.045 339.672Z" fill="#7A2F37"/><path d="M705.398 262.202C705.99 265.123 711.24 266.537 717.124 265.352C723.019 264.167 727.312 260.84 726.73 257.919C726.138 254.998 720.888 253.584 715.004 254.769C709.109 255.954 704.815 259.281 705.398 262.202Z" fill="white"/><path d="M710.668 261.671C710.668 264.655 713.08 267.066 716.064 267.066C719.047 267.066 721.459 264.655 721.459 261.671C721.459 258.687 719.047 256.275 716.064 256.275C713.08 256.275 710.668 258.687 710.668 261.671Z" fill="black"/><path d="M680.104 262.202C679.512 265.123 674.262 266.537 668.378 265.352C662.483 264.167 658.189 260.84 658.772 257.919C659.364 254.998 664.614 253.584 670.498 254.769C676.393 255.954 680.686 259.281 680.104 262.202Z" fill="white"/><path d="M674.831 261.671C674.831 264.655 672.419 267.066 669.436 267.066C666.452 267.066 664.04 264.655 664.04 261.671C664.04 258.687 666.452 256.275 669.436 256.275C672.419 256.275 674.831 258.687 674.831 261.671Z" fill="black"/><path d="M733.009 264.301H652.305V271.817H733.009V264.301Z" fill="#7A2F37"/><path d="M830.637 523.775H545.4V536.271H830.637V523.775Z" fill="#F7E5CD"/><path d="M804.283 365.227H577.577C574.672 365.227 572.316 367.582 572.316 370.487V509.066C572.316 511.971 574.672 514.327 577.577 514.327H804.283C807.188 514.327 809.544 511.971 809.544 509.066V370.487C809.544 367.582 807.188 365.227 804.283 365.227Z" fill="#E5F0FF"/><path d="M809.544 513.266H572.316V523.786H809.544V513.266Z" fill="#B0C2E4"/></svg>