<svg viewBox="0 0 1600 1200" fill="none" xmlns="http://www.w3.org/2000/svg"><path d="M1251 1002.64H350V1020H1251V1002.64Z" fill="#E6E3DA"/><path d="M442.846 279.375H426.504V1002.62H442.846V279.375Z" fill="#E6E3DA"/><path d="M459.646 180H409.714C390.027 180 374.066 195.96 374.066 215.648V446.283C374.066 465.971 390.027 481.931 409.714 481.931H459.646C479.334 481.931 495.294 465.971 495.294 446.283V215.648C495.294 195.96 479.334 180 459.646 180Z" fill="#E6E3DA"/><path d="M434.675 273.649C451.027 273.649 464.283 260.393 464.283 244.041C464.283 227.689 451.027 214.434 434.675 214.434C418.323 214.434 405.067 227.689 405.067 244.041C405.067 260.393 418.323 273.649 434.675 273.649Z" fill="#D8CBC5"/><path d="M434.675 359.04C451.027 359.04 464.283 345.784 464.283 329.432C464.283 313.08 451.027 299.824 434.675 299.824C418.323 299.824 405.067 313.08 405.067 329.432C405.067 345.784 418.323 359.04 434.675 359.04Z" fill="#D8CBC5"/><path d="M434.675 444.442C451.027 444.442 464.283 431.186 464.283 414.834C464.283 398.482 451.027 385.227 434.675 385.227C418.323 385.227 405.067 398.482 405.067 414.834C405.067 431.186 418.323 444.442 434.675 444.442Z" fill="#D8CBC5"/><path d="M466.84 414.834H461.736C461.736 399.916 449.604 387.784 434.686 387.784C419.767 387.784 407.635 399.916 407.635 414.834H402.531C402.531 397.099 416.96 382.68 434.686 382.68C452.411 382.68 466.84 397.109 466.84 414.834Z" fill="#D8CBC5"/><path d="M466.84 329.03H461.736C461.736 314.112 449.604 301.979 434.686 301.979C419.767 301.979 407.635 314.112 407.635 329.03H402.531C402.531 311.294 416.96 296.875 434.686 296.875C452.411 296.875 466.84 311.305 466.84 329.03Z" fill="#D8CBC5"/><path d="M466.84 243.217H461.736C461.736 228.299 449.604 216.167 434.686 216.167C419.767 216.167 407.635 228.299 407.635 243.217H402.531C402.531 225.482 416.96 211.062 434.686 211.062C452.411 211.062 466.84 225.492 466.84 243.217Z" fill="#D8CBC5"/><path d="M471.456 960.238H397.905L386.667 1003.14H482.694L471.456 960.238Z" fill="#E6E3DA"/><path d="M449.677 400.094C448.19 399.46 446.568 399.117 444.853 399.117C440.403 399.117 436.515 401.477 434.343 405.012C432.17 401.477 428.282 399.117 423.832 399.117C423.551 399.117 423.271 399.117 422.99 399.148C414.341 399.731 410.515 410.418 416.482 416.707L434.343 437.499L453.409 416.125C457.682 410.844 455.925 402.756 449.677 400.094Z" fill="#83CBA8"/><path d="M819.327 436.988C819.327 444.317 825.263 450.264 832.592 450.264H846.055C853.374 450.264 859.321 444.328 859.321 436.988V415.042H868.448C874.28 415.042 879.011 410.312 879.011 404.47V392.795C881.235 392.691 883.003 390.872 883.003 388.626C883.003 386.609 879.832 382.16 879.011 381.037V351.855H819.327V436.999V436.988Z" fill="#FFC6AD"/><path d="M918.197 615.637L915.179 616.184L918.447 634.218L921.465 633.671L918.197 615.637Z" fill="#171111"/><path d="M910.157 938.451L918.193 961.624L957.084 960.429L952.396 936.965L910.157 938.451Z" fill="#FFC6AD"/><path d="M692.985 896.461L679.106 919.613L713.205 939.688L729.152 918.251L692.985 896.461Z" fill="#FFC6AD"/><path d="M873.573 388.296C877.098 388.296 879.956 383.786 879.956 378.222C879.956 372.659 877.098 368.148 873.573 368.148C870.048 368.148 867.19 372.659 867.19 378.222C867.19 383.786 870.048 388.296 873.573 388.296Z" fill="#171111"/><path d="M869.259 332.22C867.346 326.159 861.691 321.762 854.996 321.762C849.018 321.762 843.882 325.276 841.491 330.338C840.129 329.975 838.705 329.756 837.229 329.756C832.052 329.756 827.446 332.158 824.432 335.9C812.954 337.668 804.918 348.874 807.517 360.674L819.327 410.46C832.852 407.144 843.196 395.407 849.195 380.863V384.294H853.499V374.054C858.853 373.087 863.313 369.562 865.548 364.77C866.494 364.936 867.471 365.04 868.469 365.04C877.545 365.04 884.895 357.68 884.895 348.604C884.895 339.528 877.96 332.626 869.259 332.21V332.22Z" fill="#420F0F"/><path d="M871.539 373.612L844.75 380.961L845.818 384.851L872.606 377.502L871.539 373.612Z" fill="#171111"/><path d="M843.487 390.727C847.827 390.727 851.346 387.208 851.346 382.867C851.346 378.527 847.827 375.008 843.487 375.008C839.146 375.008 835.627 378.527 835.627 382.867C835.627 387.208 839.146 390.727 843.487 390.727Z" fill="#FFC6AD"/><path d="M884.894 478.262L875.184 456.015C875.184 456.015 870.756 445.203 864.289 443.332V422.207H859.31V437.624L847.437 422.727H814.233V444.496L792.775 458.562L780.789 594.136L880.923 593.502L876.037 481.506L884.894 478.273V478.262Z" fill="#E6E3DA"/><path d="M837.665 771.867L853.394 814.449L899.376 938.827L977.023 936.103L876.037 593.617L780.789 594.127L837.665 771.867Z" fill="#463EC5"/><path d="M745.775 928.263L682.432 890.099L762.117 735.043L780.789 594.125L837.665 771.865L745.775 928.263Z" fill="#232144"/><path d="M677.702 918.793L715.804 941.217L711.718 948.713L738.623 994.715L734.537 1000.17L656.546 952.798L677.702 918.793Z" fill="#232144"/><path d="M917.08 961.667L961.357 960.305L963.737 969.162L1013.8 994.715V1002.55H922.528L921.852 982.791L917.08 961.667Z" fill="#232144"/><path d="M937.96 643.613L932.011 665.223C931.355 667.609 928.888 669.011 926.502 668.354L922.182 667.165L930.509 636.915L934.829 638.104C937.214 638.76 938.616 641.227 937.96 643.613Z" fill="#FFC6AD"/><path d="M954.87 638.922V638.829L954.61 638.465L913.099 564.882L879.925 480.082L876.027 481.506L880.04 574.758L921.333 626.437L927.165 649.755L933.808 647.135L935.118 654.173C935.118 654.173 935.856 650.098 936.261 648.84C937.103 646.231 939.962 647.156 939.702 649.454C939.567 650.628 939.016 653.955 938.6 657.074L930.938 674.29C929.93 676.546 930.949 679.197 933.205 680.205C933.267 680.236 933.33 680.247 933.392 680.267C933.298 681.837 934.016 683.407 935.43 684.322C937.519 685.652 940.284 685.039 941.615 682.96L952.25 666.285L954.849 638.943H954.86V638.933L954.87 638.922Z" fill="#FFC6AD"/><path d="M869.986 396.246C871.494 397.909 873.75 398.845 876.255 398.855V400.841C873.188 400.831 870.402 399.656 868.521 397.577L869.986 396.246Z" fill="#1D1D1B"/><path d="M1104.82 1002.55H1095.87L918.266 635.502C916.966 632.83 918.921 629.711 921.894 629.711C923.443 629.711 924.846 630.595 925.522 631.988L1104.83 1002.54L1104.82 1002.55Z" fill="#ABB8B9"/><path d="M938.829 678.198L918.255 635.502C916.956 632.83 918.91 629.711 921.884 629.711C923.433 629.711 924.836 630.595 925.512 631.988L947.78 678.187H938.829V678.198Z" fill="#171111"/><path d="M937.96 643.613L932.011 665.223C931.355 667.609 928.888 669.011 926.502 668.354L922.182 667.165L930.509 636.915L934.829 638.104C937.214 638.76 938.616 641.227 937.96 643.613Z" fill="#FFC6AD"/><path d="M1024.46 855.067H1033.41L1002.58 791.34H993.626L1024.46 855.067Z" fill="#E73245"/><path d="M1097.94 982.562H1087C1083.99 982.562 1082.03 985.733 1083.37 988.426L1089.32 1000.32C1090.01 1001.69 1091.41 1002.55 1092.95 1002.55H1103.89C1106.9 1002.55 1108.86 999.383 1107.51 996.691L1101.57 984.798C1100.88 983.425 1099.48 982.562 1097.94 982.562Z" fill="#E6E3DA"/><path d="M888.845 823.881L822.217 689.368L850.38 688.234L850.827 689.118L908.732 803.911L905.998 805.293L848.539 691.374L827.061 692.237L891.589 822.519L888.845 823.881Z" fill="#171111"/><path d="M922.809 634.234L919.773 633.808L926.582 584.739C926.707 583.876 926.551 583.065 926.167 582.462C925.844 581.973 925.262 581.059 923.12 582.441L921.457 579.873C925.823 577.046 928.131 579.873 928.734 580.799C929.524 582.015 929.836 583.574 929.618 585.165L922.809 634.234Z" fill="#171111"/><path d="M852.927 691.024L852.261 688.404L852.199 688.165H852.178L849.652 680.368C851.783 679.151 852.906 676.646 852.293 674.193C851.149 669.65 848.841 665.47 845.587 662.092L842.791 659.181L842.624 659.222L824.172 477.688L805.064 477.875L783.544 478.706L815.148 666.396L822.664 694.163L823.381 697.033C823.984 699.403 826.386 700.848 828.756 700.245C829.713 700.006 830.503 699.465 831.085 698.758C832.208 699.881 833.892 700.37 835.514 699.86C836.719 699.486 837.645 698.634 838.164 697.573C839.287 698.644 840.93 699.101 842.52 698.602C844.111 698.103 845.203 696.793 845.525 695.265C846.596 696.315 848.145 696.804 849.704 696.419C852.074 695.827 853.519 693.415 852.916 691.034L852.927 691.024Z" fill="#FFC6AD"/><path d="M834.827 482.482V469.03C834.827 458.478 834.287 452.386 829.754 444.724C821.947 431.521 804.918 427.144 791.725 434.941C783.263 439.942 778.439 448.747 778.117 457.906H778.086V482.482H834.827Z" fill="#E6E3DA"/><path d="M950.192 982.73L1008 849.328H979.404L918.318 990.298C915.823 996.068 920.022 1002.5 926.291 1002.55H926.374H948.955C954.225 1002.55 957.614 996.972 955.182 992.294L950.202 982.73H950.192Z" fill="#F2B062"/><path d="M1042.08 992.634L1028.43 980.086L1028.41 980.149L971.722 849.336L964.081 899.393L1005.67 993.684C1007.94 998.913 1013 1002.34 1018.66 1002.55V1002.57H1019.21H1038.22C1043.43 1002.57 1045.93 996.179 1042.09 992.655L1042.08 992.634Z" fill="#FFCC94"/><path d="M793.202 867.789C778.201 886.044 774.583 908.676 785.925 923.345C790.426 929.167 796.737 933.003 804.055 934.916L829.973 993.674C832.239 998.903 837.302 1002.33 842.957 1002.54V1002.56H843.508H862.523C867.731 1002.56 870.226 996.169 866.39 992.645L852.74 980.097L852.719 980.159L838.778 947.994C834.911 938.523 844.662 929.614 848.498 926.588C851.077 925.039 853.624 923.314 856.098 921.401C880.861 902.241 889.615 872.061 875.632 853.983C861.649 835.915 830.243 836.788 805.469 855.948L793.212 867.809L793.202 867.789Z" fill="#F2B062"/><path d="M795.77 801.317C795.77 801.317 746.857 779.579 760.954 724.065C761.505 721.913 758.531 720.728 757.45 722.672C743.935 746.842 723.341 799.072 768.969 837.953" fill="#FFCC94"/><path d="M848.03 858.047C837.437 844.356 816.842 841.549 796.716 849.325H771.006L709.92 990.295C707.425 996.065 711.625 1002.5 717.893 1002.55H717.976H740.557C745.827 1002.55 749.216 996.969 746.784 992.291L741.804 982.727L747.584 969.399L748.156 968.079C750.693 962.548 761.962 941.392 786.122 940.384C799.637 940.872 815.054 935.872 828.507 925.465C853.27 906.306 862.023 876.126 848.041 858.047H848.03Z" fill="#FFCC94"/><path d="M1069.79 806.057L1064.21 804.373C1046.34 798.239 1041.74 779.505 1041.74 779.505C1040.96 770.305 1034.89 761.915 1025.43 758.755L1011.4 754.077C1001.48 750.771 990.539 754.264 984.415 762.737C973.053 778.466 952.115 801.295 926.281 801.295H768.969V837.931C768.969 865.335 788.305 888.944 815.179 894.34L918.037 914.996C941.22 919.654 965.474 914.217 983.906 899.423C997.213 888.747 1007.17 874.067 1011.96 857.215C1014.99 849.637 1020.04 837.099 1025.67 823.668L1047.85 830.373C1056.13 832.878 1064.87 828.19 1067.38 819.915L1070.92 808.178C1071.19 807.284 1070.68 806.327 1069.79 806.057Z" fill="#FFCC94"/><path d="M1064.22 804.371L1070.21 805.982C1071.08 806.211 1071.57 807.126 1071.28 807.978L1068.5 816.202C1068.5 816.202 1060.65 812.542 1064.23 804.371H1064.22Z" fill="#171111"/><path d="M1032.33 786.596C1034.19 786.596 1035.7 785.088 1035.7 783.228C1035.7 781.367 1034.19 779.859 1032.33 779.859C1030.47 779.859 1028.96 781.367 1028.96 783.228C1028.96 785.088 1030.47 786.596 1032.33 786.596Z" fill="#171111"/><path d="M997.286 829.918C994.759 829.918 992.223 829.482 989.769 828.588C984.02 826.498 979.529 822.256 977.117 816.632C974.706 811.018 974.726 804.833 977.169 799.229L990.559 768.52L992.431 769.341L979.041 800.051C976.826 805.134 976.816 810.738 978.999 815.832C981.182 820.926 985.257 824.772 990.466 826.664C996.204 828.754 1002.47 828.109 1007.67 824.918C1012.87 821.716 1016.27 816.414 1016.99 810.353L1021.06 776.233L1023.09 776.472L1019.01 810.592C1018.21 817.277 1014.47 823.13 1008.74 826.664C1005.23 828.827 1001.28 829.929 997.275 829.929L997.286 829.918Z" fill="#F2B062"/><path d="M928.194 801.32H847.022L849.527 855.556C849.766 860.65 853.956 864.663 859.061 864.663H868.23V905.031L885.009 908.399V864.663H982.752L1002.39 878.708C1005.5 874.57 1007.85 869.923 1009.36 864.965V864.944L928.194 801.32Z" fill="#171111"/></svg>