<svg viewBox="0 0 1600 1200" fill="none" xmlns="http://www.w3.org/2000/svg"><path fill-rule="evenodd" clip-rule="evenodd" d="M1278.15 644.353H1362.91V569.068H1278.15V644.353Z" fill="#DFA245"/><path fill-rule="evenodd" clip-rule="evenodd" d="M685.249 507.432L892.617 836.399L953.5 803.989L792.851 465.686L685.249 507.432Z" fill="#F5B091"/><path fill-rule="evenodd" clip-rule="evenodd" d="M785.462 460.363L1082.89 674.552L1018.71 717.994L763.17 583.492L545.823 726.785C515.559 749.006 468.958 754.05 418.244 766.683L361.24 750.972L327.868 652.035L730.267 459.615C747.533 450.216 768.456 450.504 785.462 460.363Z" fill="#FFC5AC"/><path fill-rule="evenodd" clip-rule="evenodd" d="M321.679 377.595L295.091 323.422L226.915 347.526L296.554 445.813L329.385 422.596C347.518 409.774 351.159 383.772 337.517 364.52" fill="#FFC5AC"/><path fill-rule="evenodd" clip-rule="evenodd" d="M206.606 342.41L174.219 279.609C161.744 255.418 171.262 225.701 195.481 213.237L226.514 197.264C250.73 184.802 280.477 194.311 292.952 218.5L330.454 291.225C340.103 309.936 332.743 332.922 314.008 342.564L273.042 363.648C248.826 376.11 219.08 366.604 206.606 342.41Z" fill="#FFC5AC"/><path fill-rule="evenodd" clip-rule="evenodd" d="M327.285 262.992C324.783 258.137 309.423 253.422 309.423 253.422L319.265 277.128C319.265 277.128 329.789 267.847 327.285 262.992Z" fill="#FFC5AC"/><path fill-rule="evenodd" clip-rule="evenodd" d="M284.671 194.935C277.695 181.413 261.072 176.097 247.536 183.063L170.673 222.624C144.947 235.864 138.281 269.594 157.04 291.606L272.787 232.033C286.323 225.067 291.646 208.456 284.671 194.935Z" fill="#CA542A"/><path fill-rule="evenodd" clip-rule="evenodd" d="M228.605 373.465C257.821 347.407 264.729 301.717 252.432 258.262L246.389 236.914L157.041 291.609" fill="#CA542A"/><path fill-rule="evenodd" clip-rule="evenodd" d="M262.309 285.836C257.972 277.424 247.631 274.121 239.213 278.452C230.793 282.784 227.483 293.117 231.823 301.527C236.158 309.938 246.501 313.243 254.917 308.909C263.337 304.576 266.646 294.248 262.309 285.836Z" fill="#FFC5AC"/><path fill-rule="evenodd" clip-rule="evenodd" d="M295.016 244.973C295.016 244.973 301.035 246.674 302.304 253.582C302.304 253.582 295.968 261.625 283.33 257.323C283.33 257.323 288.901 248.845 295.016 244.973Z" fill="white"/><path fill-rule="evenodd" clip-rule="evenodd" d="M301.738 255.754C299.58 257.578 295.899 256.771 293.513 253.958C291.13 251.14 290.944 247.381 293.105 245.558C295.262 243.735 298.94 244.541 301.324 247.357C303.709 250.171 303.895 253.931 301.738 255.754Z" fill="#161615"/><path fill-rule="evenodd" clip-rule="evenodd" d="M296.408 244.014L295.299 242.701C295.299 242.701 285.555 247.171 280.36 257.009L284.489 257.815C284.489 257.815 288.227 250.493 296.408 244.014Z" fill="#161615"/><path fill-rule="evenodd" clip-rule="evenodd" d="M276.83 230.031L276.347 230.465C271.349 235.024 268.897 241.786 269.72 248.735L295.654 225.117C288.794 223.662 281.832 225.473 276.83 230.031Z" fill="#A3422E"/><path fill-rule="evenodd" clip-rule="evenodd" d="M329.31 288.778C328.841 286.619 326.704 285.255 324.543 285.732L305.505 289.952C305.477 289.362 317.818 301.469 330.782 299.75C331.046 299.714 333.404 299.965 333.671 299.917C333.894 299.878 329.31 288.778 329.31 288.778Z" fill="#FA5D55"/><path fill-rule="evenodd" clip-rule="evenodd" d="M469.87 764.055L679.806 656.555L653.39 496.379L597.278 523.211L258.685 546.894L300.742 682.441C324.53 751.344 400.273 785.906 469.245 762.137" fill="#463EC5"/><path fill-rule="evenodd" clip-rule="evenodd" d="M295.772 356.368L332.406 361.508C343.145 369.362 366.643 374.313 385.801 383.198C403.978 391.628 417.117 408.128 421.56 427.651L442.161 518.18L265.215 579.152L309.122 527.718C303.218 498.925 255.783 490.835 286.344 490.84C286.344 490.84 262.26 352.713 295.772 356.368Z" fill="#463EC5"/><path fill-rule="evenodd" clip-rule="evenodd" d="M185.985 265.273L151.549 283.558L201.985 378.361L236.421 360.077L185.985 265.273Z" fill="#CA542A"/><path fill-rule="evenodd" clip-rule="evenodd" d="M610.789 540.952C610.789 615.768 550.078 676.418 475.189 676.418C400.299 676.418 339.59 615.768 339.59 540.952C339.59 466.137 400.299 405.486 475.189 405.486C550.078 405.486 610.789 466.137 610.789 540.952Z" fill="#463EC5"/><path fill-rule="evenodd" clip-rule="evenodd" d="M345.773 364.709L385.8 383.196L363.109 408.622C352.213 419.61 334.778 420.623 322.68 410.974L278.319 380.758L284.606 359.571L303.339 350.227L323.634 356.296L345.773 364.709Z" fill="#FFC5AC"/><path fill-rule="evenodd" clip-rule="evenodd" d="M269.563 373.465L236.421 427.641L317.442 431.041L283.299 384.15L269.563 373.465Z" fill="#463EC5"/><path fill-rule="evenodd" clip-rule="evenodd" d="M236.421 433.661C236.421 433.661 292.613 362.67 283.634 345.786L281.417 341.62C279.671 338.341 276.887 335.738 273.493 334.22C249.233 323.368 150.104 280.842 171.091 320.291C194.757 364.776 231.581 433.661 231.581 433.661" fill="#CA542A"/><path fill-rule="evenodd" clip-rule="evenodd" d="M497.174 524.781L549.952 493.376C553.437 491.343 554.611 486.873 552.575 483.393C550.539 479.912 546.065 478.741 542.581 480.775L510.674 499.996L510.139 499.082L550.43 474.967C553.913 472.934 555.086 468.463 553.051 464.984C551.016 461.504 546.541 460.331 543.058 462.365L505.522 484.87L504.988 483.957L547.351 458.632C550.835 456.598 552.009 452.129 549.974 448.649C547.938 445.168 543.464 443.995 539.979 446.029L494.862 472.962L494.328 472.049L532.833 448.977C536.316 446.943 537.49 442.473 535.454 438.994C533.417 435.513 528.943 434.34 525.46 436.372L476.595 465.571L487.793 446.659C489.793 443.16 488.572 438.702 485.068 436.705C481.563 434.708 477.1 435.927 475.101 439.428L456.516 471.277C451.903 479.357 448.577 488.1 446.656 497.201L411.281 517.852L434.401 557.38L480.698 530.353C486.08 529.732 491.288 528.056 496.021 525.423L497.174 524.781Z" fill="#FFC5AC"/><path fill-rule="evenodd" clip-rule="evenodd" d="M545.027 573.585L544.905 599.791L309.235 595.764L309.359 569.559L545.027 573.585Z" fill="#463EC5"/><path fill-rule="evenodd" clip-rule="evenodd" d="M303.991 569.789L330.184 571.21L310.488 881.983L283.389 894.839L303.991 569.789Z" fill="#7B446C"/><path fill-rule="evenodd" clip-rule="evenodd" d="M707.633 634.181C711.351 640.391 709.325 648.438 703.109 652.152L206.28 953.717C200.062 957.431 192.009 955.407 188.291 949.196C184.573 942.985 186.599 934.939 192.816 931.225L689.646 629.66C695.862 625.946 703.916 627.97 707.633 634.181Z" fill="#7B446C"/><path fill-rule="evenodd" clip-rule="evenodd" d="M111.026 244.746C111.924 248.235 112.862 251.715 113.802 255.192C116.409 264.83 119.102 274.444 121.852 284.042C126.021 298.589 130.327 313.098 134.756 327.568C140.334 345.791 146.112 363.953 152.096 382.047C158.93 402.713 166.035 423.29 173.454 443.754C181.384 465.634 189.673 487.389 198.41 508.961C207.272 530.841 216.594 552.54 226.548 573.947C236.165 594.626 246.366 615.046 257.449 634.982C267.633 653.3 278.556 671.246 290.695 688.343C301.261 703.225 312.765 717.561 325.866 730.304C336.732 740.872 348.837 750.515 362.546 757.142C392.771 771.748 423.677 774.478 456.345 767.53C457.614 767.261 458.88 766.979 460.143 766.686C514.088 754.198 111.026 244.746 111.026 244.746Z" fill="#E73245"/><path fill-rule="evenodd" clip-rule="evenodd" d="M606.221 955.957C600.25 960.055 592.084 958.541 587.984 952.577L77.3067 210.003C73.2046 204.038 74.72 195.881 80.6897 191.783C86.6607 187.685 94.8262 189.199 98.9282 195.163L609.604 937.738C613.706 943.702 612.192 951.859 606.221 955.957Z" fill="#7B446C"/><path fill-rule="evenodd" clip-rule="evenodd" d="M303.357 460.965L239.659 480.503L269.282 609.723C275.519 631.551 299.154 617.84 321.243 612.508L345.773 611.921L303.357 460.965Z" fill="#FFC5AC"/><path fill-rule="evenodd" clip-rule="evenodd" d="M315.512 443.216C315.459 442.796 315.443 442.379 315.376 441.96C311.781 419.569 290.699 404.333 268.285 407.922C246.297 411.446 231.244 431.795 234.079 453.708L234.035 453.713L243.36 563.8L339.589 550.962L315.556 443.209L315.512 443.216Z" fill="#463EC5"/><path fill-rule="evenodd" clip-rule="evenodd" d="M1018.71 717.996C1018.71 717.996 1034.67 640.273 1054.28 653.455C1082.31 672.299 1116.23 690.428 1147.05 672.757C1162.6 663.864 1169.79 656.513 1180.01 664.512C1186.5 669.595 1186.54 679.421 1180.04 684.497L1076.2 773.063C1066.91 780.397 1059.98 776.696 1051.91 766.533L1018.71 717.996Z" fill="#FFC5AC"/><path fill-rule="evenodd" clip-rule="evenodd" d="M449.068 495.543L288.501 566.798C270.177 574.438 262.133 595.965 270.965 613.731C279.871 631.65 302.164 638.192 319.354 627.933L483.109 528.695L449.068 495.543Z" fill="#FFC5AC"/><path fill-rule="evenodd" clip-rule="evenodd" d="M1360.73 631.498L1360.47 734.888H1279.83" fill="#F49B7A"/><path fill-rule="evenodd" clip-rule="evenodd" d="M1299.95 639.096H1342.28V603.324H1299.95V639.096Z" fill="#F5B091"/><path fill-rule="evenodd" clip-rule="evenodd" d="M1304.53 512.679L1336.6 512.378C1348.52 512.267 1358.26 521.876 1358.29 533.788L1358.41 586.071C1358.41 603.814 1346.5 616.519 1330.14 616.519H1311.28C1293.22 616.519 1283.12 603.814 1283.12 586.071L1283.25 534.088C1283.28 522.334 1292.77 512.789 1304.53 512.679Z" fill="#FFC6AD"/><path fill-rule="evenodd" clip-rule="evenodd" d="M1312.94 585.75C1312.94 585.75 1312.94 585.749 1312.67 585.537C1312.4 585.324 1312.4 585.324 1312.4 585.324L1312.4 585.324L1312.4 585.323L1312.4 585.32L1312.41 585.312L1312.43 585.284C1312.45 585.26 1312.48 585.227 1312.52 585.186C1312.59 585.105 1312.7 584.993 1312.83 584.868C1313.1 584.62 1313.49 584.312 1313.96 584.09C1314.44 583.867 1315.02 583.725 1315.64 583.835C1316.27 583.945 1316.91 584.299 1317.52 584.993L1317.54 585.007C1317.56 585.024 1317.59 585.049 1317.62 585.08C1317.7 585.143 1317.81 585.231 1317.95 585.329C1318.23 585.527 1318.62 585.76 1319.07 585.914C1319.53 586.068 1320.03 586.139 1320.54 586.029C1321.04 585.921 1321.58 585.631 1322.11 585.013L1322.12 585.009C1322.12 585.002 1322.13 584.994 1322.14 584.984C1322.16 584.963 1322.18 584.934 1322.21 584.9C1322.28 584.831 1322.37 584.739 1322.5 584.638C1322.74 584.437 1323.1 584.197 1323.57 584.05C1324.54 583.748 1325.86 583.873 1327.38 585.284L1326.92 585.789C1325.54 584.517 1324.47 584.49 1323.78 584.707C1323.42 584.82 1323.13 585.007 1322.93 585.169C1322.84 585.249 1322.76 585.321 1322.71 585.372C1322.69 585.398 1322.67 585.418 1322.66 585.431L1322.65 585.444L1322.65 585.445L1322.65 585.446L1322.65 585.446L1322.65 585.446L1322.65 585.446L1322.64 585.457L1322.64 585.457C1322.02 586.179 1321.35 586.558 1320.68 586.702C1320.02 586.844 1319.39 586.747 1318.85 586.565C1318.32 586.384 1317.87 586.113 1317.55 585.892C1317.39 585.78 1317.27 585.68 1317.18 585.606C1317.14 585.569 1317.1 585.539 1317.08 585.518L1317.05 585.492L1317.04 585.485L1317.04 585.482L1317.04 585.482L1317.04 585.481C1317.04 585.481 1317.04 585.481 1317.28 585.233L1317.04 585.481L1317.03 585.471L1317.02 585.46C1316.48 584.851 1315.97 584.591 1315.53 584.512C1315.07 584.433 1314.64 584.531 1314.26 584.712C1313.87 584.894 1313.54 585.154 1313.3 585.373C1313.18 585.481 1313.09 585.578 1313.03 585.646C1313 585.68 1312.98 585.708 1312.96 585.725L1312.94 585.745L1312.94 585.749L1312.94 585.75Z" fill="black"/><path fill-rule="evenodd" clip-rule="evenodd" d="M1258.96 742.29L1259.96 741.257C1261.13 740.051 1261.1 738.125 1259.89 736.958L1246.92 724.391L1241.68 729.793L1254.66 742.358C1255.86 743.525 1257.79 743.497 1258.96 742.29Z" fill="#FFC6AD"/><path fill-rule="evenodd" clip-rule="evenodd" d="M1273.9 626.909C1257.62 631.293 1244.93 639.096 1243.61 654.139L1234.83 742.039C1234.37 747.411 1234.38 752.811 1234.86 758.178L1242.3 817.337L1257.68 812.839L1257 744.537L1275.41 677.024L1286.7 624.535L1273.9 626.909Z" fill="#F5B091"/><path fill-rule="evenodd" clip-rule="evenodd" d="M1259.46 833.917L1257.58 809.48L1242.96 809.117L1234.51 830.027L1251.14 840.992L1249.11 835.44C1248.88 834.83 1249.13 834.145 1249.7 833.822C1250.34 833.463 1251.14 833.683 1251.51 834.317L1253.99 838.607L1259.46 833.917Z" fill="#FFC6AD"/><path fill-rule="evenodd" clip-rule="evenodd" d="M1249.61 849.083L1253.57 847.634L1245.41 825.348L1241.45 826.796L1249.61 849.083Z" fill="#FFC6AD"/><path fill-rule="evenodd" clip-rule="evenodd" d="M1241.68 852.193L1245.64 850.746L1238.47 828.578L1234.51 830.028L1241.68 852.193Z" fill="#FFC6AD"/><path fill-rule="evenodd" clip-rule="evenodd" d="M1364.79 626.501C1381.06 630.886 1395.11 647.935 1395.11 663.051L1402.97 741.303C1403.43 746.675 1403.42 752.075 1402.93 757.443L1395.5 816.6L1380.12 812.104L1371.01 743.026L1366.74 673.809L1351.18 624.066L1364.79 626.501Z" fill="#F5B091"/><path fill-rule="evenodd" clip-rule="evenodd" d="M1378.33 833.917L1380.22 809.48L1394.83 809.117L1403.29 830.027L1386.66 840.992L1388.69 835.44C1388.92 834.83 1388.66 834.145 1388.1 833.822C1387.46 833.463 1386.65 833.683 1386.28 834.317L1383.8 838.607L1378.33 833.917Z" fill="#FFC6AD"/><path fill-rule="evenodd" clip-rule="evenodd" d="M1388.18 849.083L1384.22 847.634L1392.39 825.348L1396.35 826.796L1388.18 849.083Z" fill="#FFC6AD"/><path fill-rule="evenodd" clip-rule="evenodd" d="M1396.12 852.193L1392.16 850.746L1399.33 828.578L1403.29 830.028L1396.12 852.193Z" fill="#FFC6AD"/><path fill-rule="evenodd" clip-rule="evenodd" d="M1362.91 575.501L1364.92 540.21C1364.92 523.221 1351.13 509.445 1334.12 509.445H1307.37C1290.36 509.445 1276.57 523.221 1276.57 540.21V541.334L1279.1 564.176L1284.11 569.07L1284.22 551.947V551.021C1284.22 536.968 1295.62 525.579 1309.68 525.579H1318.51L1318.62 515.621H1320.54L1320.5 525.579H1330.4C1342.31 525.579 1353.65 532.399 1356.44 543.427C1356.95 545.426 1356.89 547.728 1356.89 549.886L1355.68 567.881L1362.91 575.501Z" fill="#DFA245"/><path fill-rule="evenodd" clip-rule="evenodd" d="M1366.22 570.562C1366.22 575.317 1362.36 579.172 1357.6 579.172C1352.84 579.172 1348.99 575.317 1348.99 570.562C1348.99 565.807 1352.84 561.951 1357.6 561.951C1362.36 561.951 1366.22 565.807 1366.22 570.562Z" fill="#FFC6AD"/><path fill-rule="evenodd" clip-rule="evenodd" d="M1363.9 626.526L1342.29 622.348C1342.29 622.348 1322.73 646.413 1301.65 622.396L1272.53 626.844C1272.09 626.912 1271.66 626.999 1271.23 627.113C1267.02 628.238 1245.82 634.864 1244.93 654.46L1242.38 674.959L1272.86 669.13L1274.67 744.115H1366.22L1366.49 674.192" fill="#F5B091"/><path fill-rule="evenodd" clip-rule="evenodd" d="M1273.9 626.635V670.981V774.351L1317.94 799.588H1326.34L1371.01 774.351L1368.61 714.432L1366.49 661.57V627.011C1366.49 626.952 1365.73 626.751 1365.66 626.731C1364.13 626.254 1358.36 625.338 1357.07 625.104C1356.49 624.999 1355.91 624.895 1355.33 624.789C1355.31 624.785 1354.9 624.724 1354.9 624.712V634.083C1354.9 652.897 1339.63 668.148 1320.8 668.148C1301.97 668.148 1286.7 655.147 1286.7 636.332L1286.8 624.664L1273.9 626.635Z" fill="#463EC5"/><path fill-rule="evenodd" clip-rule="evenodd" d="M1207.9 848.44C1207.9 852.3 1204.77 855.428 1200.91 855.428C1197.05 855.428 1193.91 852.3 1193.91 848.44C1193.91 844.581 1197.05 841.453 1200.91 841.453C1204.77 841.453 1207.9 844.581 1207.9 848.44Z" fill="#D2E7F2"/><path fill-rule="evenodd" clip-rule="evenodd" d="M1312.67 599.498C1312.67 599.498 1327.53 590.331 1337.63 599.498H1335.15C1335.15 599.498 1329.65 611.783 1317.35 599.498H1312.67Z" fill="#FFA28F"/><path fill-rule="evenodd" clip-rule="evenodd" d="M1468.25 831.143H728.98C697.084 831.143 671.229 805.312 671.229 773.447V768.202C671.229 736.337 697.084 710.506 728.98 710.506H1468.25C1500.14 710.506 1526 736.337 1526 768.202V773.447C1526 805.312 1500.14 831.143 1468.25 831.143Z" fill="#FFD4D2"/><path fill-rule="evenodd" clip-rule="evenodd" d="M1468.25 951.762H728.98C697.084 951.762 671.229 925.931 671.229 894.066V888.821C671.229 856.956 697.084 831.125 728.98 831.125H1468.25C1500.14 831.125 1526 856.956 1526 888.821V894.066C1526 925.931 1500.14 951.762 1468.25 951.762Z" fill="#E73245"/><path fill-rule="evenodd" clip-rule="evenodd" d="M1201.1 891.947L1207.08 902.244C1209.74 906.819 1206.28 912.459 1200.85 912.393C1195.42 912.328 1192.1 906.605 1194.87 902.097L1201.1 891.947Z" fill="#B0C2E4"/><path fill-rule="evenodd" clip-rule="evenodd" d="M1154.9 980.452C1154.9 984.466 1144.61 987.721 1131.92 987.721C1119.23 987.721 1108.93 984.466 1108.93 980.452C1108.93 976.438 1119.23 973.184 1131.92 973.184C1144.61 973.184 1154.9 976.438 1154.9 980.452Z" fill="#BEDEF5"/><path fill-rule="evenodd" clip-rule="evenodd" d="M1207.9 845.419C1207.9 849.278 1204.77 852.406 1200.91 852.406C1197.05 852.406 1193.91 849.278 1193.91 845.419C1193.91 841.559 1197.05 838.432 1200.91 838.432C1204.77 838.432 1207.9 841.559 1207.9 845.419Z" fill="#7B446C"/><path fill-rule="evenodd" clip-rule="evenodd" d="M1324.17 972.169C1324.17 983.438 1285.73 992.572 1238.32 992.572C1190.9 992.572 1152.47 983.438 1152.47 972.169C1152.47 960.9 1190.9 951.766 1238.32 951.766C1285.73 951.766 1324.17 960.9 1324.17 972.169Z" fill="#BEDEF5"/><path fill-rule="evenodd" clip-rule="evenodd" d="M1348.99 1005.16C1348.99 1013.36 1315.37 1020 1273.9 1020C1222.08 1020 1198.81 1013.36 1198.81 1005.16C1198.81 996.963 1232.43 990.318 1273.9 990.318C1315.37 990.318 1348.99 996.963 1348.99 1005.16Z" fill="#BEDEF5"/><path fill-rule="evenodd" clip-rule="evenodd" d="M1201.1 848.721L1207.08 859.017C1209.74 863.592 1206.28 869.232 1200.85 869.167C1195.42 869.101 1192.1 863.379 1194.87 858.87L1201.1 848.721Z" fill="#B0C2E4"/><path fill-rule="evenodd" clip-rule="evenodd" d="M595.741 901.994L595.558 882.426H516.338L516.445 955.607H682.728V944.631L595.741 901.994Z" fill="#FF9D96"/><path fill-rule="evenodd" clip-rule="evenodd" d="M516.335 964.304H682.619V951.619H516.335V964.304Z" fill="#7B446C"/><path fill-rule="evenodd" clip-rule="evenodd" d="M541.797 917.576C541.797 924.051 547.049 929.297 553.529 929.297C560.013 929.297 565.265 924.051 565.265 917.576C565.265 911.102 560.013 905.855 553.529 905.855C547.049 905.855 541.797 911.102 541.797 917.576Z" fill="white"/><path fill-rule="evenodd" clip-rule="evenodd" d="M713.438 917.636L713.255 898.068H634.035L634.142 971.25H800.426V960.274L713.438 917.636Z" fill="#FFD4D2"/><path fill-rule="evenodd" clip-rule="evenodd" d="M634.033 979.944H800.317V967.26H634.033V979.944Z" fill="#7B446C"/><path fill-rule="evenodd" clip-rule="evenodd" d="M659.494 933.217C659.494 939.691 664.746 944.938 671.227 944.938C677.71 944.938 682.962 939.691 682.962 933.217C682.962 926.743 677.71 921.496 671.227 921.496C664.746 921.496 659.494 926.743 659.494 933.217Z" fill="white"/><path fill-rule="evenodd" clip-rule="evenodd" d="M1352.83 553.828H1288.23C1284.77 553.828 1281.96 551.022 1281.96 547.561V535.316C1281.96 531.855 1284.21 522.746 1287.67 522.746L1352.97 526.394C1356.44 526.394 1359.11 531.855 1359.11 535.316V547.561C1359.11 551.022 1356.3 553.828 1352.83 553.828Z" fill="#DFA245"/><path fill-rule="evenodd" clip-rule="evenodd" d="M1325.15 519.08C1325.15 522.668 1322.88 525.579 1320.07 525.579C1317.27 525.579 1315 522.668 1315 519.08C1315 515.491 1317.27 512.58 1320.07 512.58C1322.88 512.58 1325.15 515.491 1325.15 519.08Z" fill="#DFA245"/><path fill-rule="evenodd" clip-rule="evenodd" d="M1317.44 679.801C1319.55 683.417 1318.32 688.057 1314.7 690.163C1279.53 710.631 1267.15 752.58 1285.11 783.393C1287.22 787.009 1286 791.649 1282.37 793.755C1278.75 795.862 1274.11 794.638 1272 791.021C1249.2 751.908 1265.77 701.097 1307.07 677.066C1310.69 674.96 1315.33 676.184 1317.44 679.801Z" fill="#B0C2E4"/><path fill-rule="evenodd" clip-rule="evenodd" d="M1313.06 672.532C1315.72 675.766 1315.25 680.541 1312.02 683.199C1297.92 694.771 1291.05 708.011 1289.82 721.458C1288.59 735.012 1293.01 749.734 1303.32 764.236C1305.75 767.648 1304.95 772.379 1301.53 774.803C1298.11 777.227 1293.38 776.426 1290.95 773.014C1279.05 756.276 1273.08 738.025 1274.71 720.083C1276.36 702.032 1285.62 685.251 1302.39 671.489C1305.62 668.832 1310.4 669.299 1313.06 672.532Z" fill="#B0C2E4"/><path fill-rule="evenodd" clip-rule="evenodd" d="M1263.49 724.858C1250.73 733.748 1241.01 748.58 1235.83 766.766C1234.69 770.792 1230.49 773.127 1226.46 771.982C1222.43 770.837 1220.1 766.645 1221.24 762.619C1227.14 741.888 1238.56 723.751 1254.81 712.427C1271.26 700.963 1292.07 696.919 1315.45 703.563C1319.48 704.709 1321.82 708.9 1320.67 712.926C1319.53 716.952 1315.33 719.287 1311.3 718.141C1292.12 712.689 1276.05 716.107 1263.49 724.858Z" fill="#B0C2E4"/><path fill-rule="evenodd" clip-rule="evenodd" d="M1327.27 687.187C1327.76 690.993 1325.07 694.474 1321.26 694.962C1279.27 700.35 1248.67 744.807 1255.28 796.24C1255.77 800.045 1253.08 803.526 1249.27 804.015C1245.46 804.503 1241.98 801.815 1241.49 798.01C1234.16 740.977 1268.01 687.787 1319.49 681.182C1323.29 680.694 1326.78 683.382 1327.27 687.187Z" fill="#B0C2E4"/><path fill-rule="evenodd" clip-rule="evenodd" d="M1308.75 770.201L1236.18 718.53C1234.56 717.38 1234.29 715.087 1235.6 713.598L1287.86 653.717C1289 652.427 1290.92 652.203 1292.33 653.2L1350.54 694.65C1351.94 695.647 1352.36 697.539 1351.51 699.032L1313.6 769.132C1312.62 770.854 1310.36 771.351 1308.75 770.201Z" fill="#E73245"/><path fill-rule="evenodd" clip-rule="evenodd" d="M1288.55 687.329C1313.31 693.223 1327.73 721.719 1320.75 750.977C1319.07 758.053 1316.27 764.518 1312.67 770.182C1319.1 763.009 1324.03 753.847 1326.53 743.343C1333.51 714.085 1319.09 685.59 1294.33 679.695C1275.55 675.227 1256.23 685.041 1244.93 702.795C1256.41 689.988 1272.67 683.551 1288.55 687.329Z" fill="#FF9D96"/><path fill-rule="evenodd" clip-rule="evenodd" d="M1324.9 695.946L1304.03 691.558L1315.3 666.918L1333.58 678.091L1324.9 695.946Z" fill="#F5B091"/><path fill-rule="evenodd" clip-rule="evenodd" d="M1287.58 692.353C1286.91 690.114 1288.21 687.765 1290.46 687.139L1312.38 681.037L1314.77 689.035L1292.7 695.178C1290.51 695.789 1288.23 694.532 1287.58 692.353Z" fill="#F5B091"/><path fill-rule="evenodd" clip-rule="evenodd" d="M1281.39 688.136C1280.72 685.899 1282.02 683.548 1284.27 682.923L1306.19 676.82L1308.58 684.818L1286.51 690.961C1284.32 691.572 1282.04 690.315 1281.39 688.136Z" fill="#F5B091"/><path fill-rule="evenodd" clip-rule="evenodd" d="M1271.35 682.511C1270.48 680.796 1271.1 678.699 1272.77 677.737L1289.38 668.148L1292.66 674.62L1276.4 684.009C1274.6 685.05 1272.29 684.363 1271.35 682.511Z" fill="#F5B091"/><path fill-rule="evenodd" clip-rule="evenodd" d="M1275.63 685.306C1274.78 683.161 1275.84 680.738 1277.98 679.894L1295.14 673.152L1298.2 680.919L1281.04 687.664C1278.9 688.506 1276.47 687.452 1275.63 685.306Z" fill="#F5B091"/><path fill-rule="evenodd" clip-rule="evenodd" d="M1315.29 666.932L1315.7 675.27L1289.77 676.526L1289.36 668.188L1315.29 666.932Z" fill="#F5B091"/><path fill-rule="evenodd" clip-rule="evenodd" d="M1320.4 674.119L1325.73 683.66L1299.8 684.889L1294.46 675.348L1320.4 674.119Z" fill="#F5B091"/><path fill-rule="evenodd" clip-rule="evenodd" d="M1374.67 737.04L1320.7 694.392L1329.81 676.141L1392.53 709.898C1401.18 714.554 1403.78 725.731 1398.08 733.721C1392.66 741.312 1381.99 742.824 1374.67 737.04Z" fill="#F5B091"/><path fill-rule="evenodd" clip-rule="evenodd" d="M1399.44 706.173L1400.94 721.893L1386.02 704.01L1399.44 706.173Z" fill="#F5B091"/><path fill-rule="evenodd" clip-rule="evenodd" d="M1291.74 571.778C1291.74 576.536 1287.88 580.39 1283.13 580.39C1278.37 580.39 1274.5 576.536 1274.5 571.778C1274.5 567.023 1278.37 563.168 1283.13 563.168C1287.88 563.168 1291.74 567.023 1291.74 571.778Z" fill="#FFC6AD"/><path fill-rule="evenodd" clip-rule="evenodd" d="M1311.28 573.985C1311.28 573.985 1310.7 565.752 1298.77 564.459C1297.11 564.277 1295.42 564.398 1293.83 564.899C1292.57 565.293 1291.33 565.872 1290.26 567.001C1290.26 567.001 1291.46 569.144 1293.48 571.344L1311.28 573.985Z" fill="black"/><path fill-rule="evenodd" clip-rule="evenodd" d="M1311.28 573.986C1311.28 573.986 1303.95 561.72 1291.93 569.523C1291.93 569.523 1297.64 581.512 1311.28 573.986Z" fill="white"/><path fill-rule="evenodd" clip-rule="evenodd" d="M1297.03 574.422C1297.27 576.943 1299.52 578.796 1302.04 578.555C1304.57 578.315 1306.42 576.076 1306.18 573.553C1305.94 571.03 1303.7 569.181 1301.17 569.419C1298.65 569.659 1296.79 571.898 1297.03 574.422Z" fill="black"/><path fill-rule="evenodd" clip-rule="evenodd" d="M1330.14 574.528C1330.14 574.528 1330.29 566.274 1342.13 564.348C1343.78 564.081 1345.47 564.113 1347.09 564.527C1348.37 564.855 1349.64 565.367 1350.77 566.435C1350.77 566.435 1349.68 568.641 1347.78 570.943L1330.14 574.528Z" fill="black"/><path fill-rule="evenodd" clip-rule="evenodd" d="M1330.14 574.529C1330.14 574.529 1336.81 561.89 1349.22 569.045C1349.22 569.045 1344.16 581.318 1330.14 574.529Z" fill="white"/><path fill-rule="evenodd" clip-rule="evenodd" d="M1343.13 574.719C1343.02 577.251 1340.88 579.217 1338.35 579.112C1335.82 579.006 1333.85 576.869 1333.95 574.337C1334.06 571.804 1336.2 569.837 1338.73 569.941C1341.27 570.048 1343.24 572.186 1343.13 574.719Z" fill="black"/><path fill-rule="evenodd" clip-rule="evenodd" d="M1323.57 947.881L1317.68 970.07C1317.03 972.506 1313.61 972.631 1312.79 970.249L1306.42 951.822L1323.57 947.881Z" fill="#232144"/><path fill-rule="evenodd" clip-rule="evenodd" d="M1294.88 947.881L1288.99 970.07C1288.35 972.506 1284.93 972.631 1284.11 970.249L1277.74 951.822L1294.88 947.881Z" fill="#232144"/><path fill-rule="evenodd" clip-rule="evenodd" d="M1286.69 970.432L1279.72 955.072L1280.74 954.611L1288.02 970.666L1263.48 995.769H1287.36V996.884H1260.83L1286.69 970.432Z" fill="#232144"/><path fill-rule="evenodd" clip-rule="evenodd" d="M1262.23 996.082C1262.37 996.358 1262.26 996.692 1261.98 996.828L1244.87 1005.22C1244.59 1005.36 1244.26 1005.24 1244.12 1004.97C1243.99 1004.69 1244.1 1004.36 1244.38 1004.22L1261.49 995.827C1261.76 995.691 1262.1 995.805 1262.23 996.082Z" fill="black"/><path fill-rule="evenodd" clip-rule="evenodd" d="M1238.37 996.328C1238.37 996.019 1238.62 995.77 1238.93 995.77H1261.73C1262.04 995.77 1262.29 996.019 1262.29 996.328C1262.29 996.636 1262.04 996.886 1261.73 996.886H1238.93C1238.62 996.886 1238.37 996.636 1238.37 996.328Z" fill="black"/><path fill-rule="evenodd" clip-rule="evenodd" d="M1281.35 957.586C1288.5 958.784 1296.67 956.632 1303.71 955.558C1315.75 953.719 1326.89 951.841 1339.06 953.667C1345.98 954.706 1352.87 956.032 1359.73 957.417C1377.18 960.938 1394.53 964.953 1411.85 969.078C1426.93 972.671 1441.98 976.381 1457.01 980.18C1461.66 981.356 1466.31 982.543 1470.95 983.739C1460.92 980.246 1450.93 976.667 1440.95 973.049C1423.34 966.668 1405.74 960.217 1388.43 953.079C1381.38 950.172 1374.26 946.707 1367.87 942.356C1361.03 937.708 1355.13 931.819 1349.22 926.085C1336.5 913.758 1324.29 900.908 1312.09 888.068C1300.29 875.642 1288.59 863.111 1276.56 850.903C1270.65 844.905 1264.57 837.722 1257.32 833.263C1241.71 823.671 1251.34 849.795 1251.34 849.795L1227.94 855.789C1227.94 855.789 1221.31 843.455 1222.51 847.052C1223.71 850.649 1238.14 861.068 1233.12 889.243C1228.1 917.419 1281.35 957.586 1281.35 957.586Z" fill="#232144"/><path fill-rule="evenodd" clip-rule="evenodd" d="M1241.8 925.019C1258.21 952.251 1298.29 964.693 1317.46 953.164C1336.63 941.634 1319.33 913.071 1302.92 885.841C1286.51 858.609 1265.97 843.305 1246.8 854.836C1227.63 866.365 1225.39 897.787 1241.8 925.019Z" fill="white"/><path fill-rule="evenodd" clip-rule="evenodd" d="M1233.12 861.191C1233.12 861.191 1262.95 945.657 1306.34 948.212C1349.73 950.766 1376.14 953.165 1376.14 953.165L1270.21 844.461H1235.71L1233.12 861.191Z" fill="#232144"/><path fill-rule="evenodd" clip-rule="evenodd" d="M1309.36 956.95C1309.64 956.823 1309.97 956.947 1310.09 957.228L1316.04 970.318C1316.13 970.527 1316.09 970.773 1315.93 970.938L1291.65 995.768H1315.53C1315.84 995.768 1316.08 996.018 1316.08 996.326C1316.08 996.634 1315.84 996.884 1315.53 996.884H1290.32C1290.1 996.884 1289.89 996.749 1289.81 996.542C1289.72 996.336 1289.77 996.097 1289.92 995.936L1314.86 970.431L1309.08 957.689C1308.95 957.408 1309.08 957.077 1309.36 956.95Z" fill="#232144"/><path fill-rule="evenodd" clip-rule="evenodd" d="M1290.4 996.082C1290.54 996.358 1290.43 996.692 1290.15 996.828L1273.04 1005.22C1272.76 1005.36 1272.43 1005.24 1272.29 1004.97C1272.16 1004.69 1272.27 1004.36 1272.55 1004.22L1289.66 995.827C1289.93 995.691 1290.27 995.805 1290.4 996.082Z" fill="black"/><path fill-rule="evenodd" clip-rule="evenodd" d="M1271.07 996.328C1271.07 996.019 1271.32 995.77 1271.63 995.77H1291.43C1291.74 995.77 1291.99 996.019 1291.99 996.328C1291.99 996.636 1291.74 996.886 1291.43 996.886H1271.63C1271.32 996.886 1271.07 996.636 1271.07 996.328Z" fill="black"/><path fill-rule="evenodd" clip-rule="evenodd" d="M1266.38 852.917C1266.38 866.539 1255.33 877.583 1241.69 877.583C1228.06 877.583 1217 866.539 1217 852.917C1217 839.294 1228.06 828.25 1241.69 828.25C1255.33 828.25 1266.38 839.294 1266.38 852.917Z" fill="#232144"/><path fill-rule="evenodd" clip-rule="evenodd" d="M1233.12 829.781L1200.31 845.936L1217 852.918L1233.12 829.781Z" fill="#232144"/><path fill-rule="evenodd" clip-rule="evenodd" d="M1258.26 900.659C1258.26 907.987 1251.64 912.394 1244.3 912.394C1236.97 912.394 1231.02 906.453 1231.02 899.125C1231.02 891.798 1237.65 887.391 1244.98 887.391C1252.32 887.391 1258.26 893.33 1258.26 900.659Z" fill="#232144"/><path fill-rule="evenodd" clip-rule="evenodd" d="M1233.12 870.848C1233.12 870.848 1227.47 895.793 1232.35 904.206C1237.24 912.619 1258.92 893.883 1258.92 893.883" fill="#232144"/></svg>