<svg viewBox="0 0 1600 1200" fill="none" xmlns="http://www.w3.org/2000/svg"><path d="M710.417 287.008H535V699.504H710.417V287.008Z" fill="#E5F0FF"/><path d="M691.783 492.945H591.529V502.093H691.783V492.945Z" fill="#D0DEF2"/><path d="M691.783 527.77H591.529V536.918H691.783V527.77Z" fill="#D0DEF2"/><path d="M691.783 353.746H591.529V362.894H691.783V353.746Z" fill="#D0DEF2"/><path d="M691.783 388.57H591.529V397.718H691.783V388.57Z" fill="#D0DEF2"/><path d="M691.783 423.395H591.529V432.543H691.783V423.395Z" fill="#D0DEF2"/><path d="M691.783 458.219H591.529V467.367H691.783V458.219Z" fill="#D0DEF2"/><path d="M691.783 562.594H591.529V571.742H691.783V562.594Z" fill="#D0DEF2"/><path d="M691.783 597.418H591.529V606.566H691.783V597.418Z" fill="#D0DEF2"/><path d="M691.783 632.137H591.529V641.285H691.783V632.137Z" fill="#D0DEF2"/><path d="M691.783 666.965H591.529V676.113H691.783V666.965Z" fill="#D0DEF2"/><path d="M569.876 489.621H553.531V505.942H569.876V489.621Z" fill="#D0DEF2"/><path d="M561.442 503.028L555.092 493.88L557.59 492.112L561.859 498.35L576.433 484.004L578.62 486.187L561.442 503.028Z" fill="#8DA8DC"/><path d="M569.876 558.641H553.531V574.962H569.876V558.641Z" fill="#D0DEF2"/><path d="M561.442 573.301L555.092 564.153L557.59 562.386L561.859 568.519L576.433 554.277L578.62 556.46L561.442 573.301Z" fill="#8DA8DC"/><path d="M569.876 350.418H553.531V366.739H569.876V350.418Z" fill="#D0DEF2"/><path d="M561.442 363.832L555.092 354.58L557.59 352.917L561.859 359.051L576.433 344.809L578.62 346.992L561.442 363.832Z" fill="#8DA8DC"/><path d="M569.876 384.828H553.531V401.149H569.876V384.828Z" fill="#D0DEF2"/><path d="M561.442 398.969L555.092 389.821L557.59 388.054L561.859 394.187L576.433 379.945L578.62 382.128L561.442 398.969Z" fill="#8DA8DC"/><path d="M569.876 419.449H553.531V435.77H569.876V419.449Z" fill="#D0DEF2"/><path d="M561.442 434L555.092 424.852L557.59 423.085L561.859 429.322L576.433 414.977L578.62 417.16L561.442 434Z" fill="#8DA8DC"/><path d="M569.876 454.273H553.531V470.594H569.876V454.273Z" fill="#D0DEF2"/><path d="M561.442 468.829L555.092 459.68L557.59 457.913L561.859 464.151L576.433 449.805L578.62 451.988L561.442 468.829Z" fill="#8DA8DC"/><path d="M569.876 524.133H553.531V540.454H569.876V524.133Z" fill="#D0DEF2"/><path d="M561.442 538.166L555.092 529.018L557.59 527.355L561.859 533.488L576.433 519.246L578.62 521.429L561.442 538.166Z" fill="#8DA8DC"/><path d="M569.876 594.094H553.531V610.415H569.876V594.094Z" fill="#D0DEF2"/><path d="M561.442 607.5L555.092 598.352L557.59 596.585L561.859 602.718L576.433 588.477L578.62 590.66L561.442 607.5Z" fill="#8DA8DC"/><path d="M569.876 628.609H553.531V644.93H569.876V628.609Z" fill="#D0DEF2"/><path d="M561.442 642.637L555.092 633.489L557.59 631.722L561.859 637.959L576.433 623.613L578.62 625.796L561.442 642.637Z" fill="#8DA8DC"/><path d="M569.876 663.121H553.531V679.442H569.876V663.121Z" fill="#D0DEF2"/><path d="M561.442 677.782L555.092 668.53L557.59 666.866L561.859 673L576.433 658.758L578.62 660.941L561.442 677.782Z" fill="#8DA8DC"/><path d="M630.525 272.094L608.217 294.363L614.915 301.053L637.222 278.784L630.525 272.094Z" fill="#D0DEF2"/><path d="M558.007 315.078V327.656C558.007 327.968 557.903 328.072 557.591 328.072H555.717C555.405 328.072 555.301 327.968 555.301 327.656V315.078H551.761C551.449 315.078 551.345 314.974 551.345 314.662V313.31C551.345 312.998 551.449 312.895 551.761 312.895H561.443C561.755 312.895 561.859 312.998 561.859 313.31V314.662C561.859 314.974 561.755 315.078 561.443 315.078H558.007Z" fill="#5773A4"/><path d="M561.65 322.668C561.65 318.821 563.628 316.742 566.96 316.742C570.083 316.742 571.957 318.821 571.957 322.252C571.957 326.098 569.979 328.177 566.647 328.177C563.42 328.177 561.65 326.202 561.65 322.668ZM569.25 322.356C569.25 320.381 568.625 318.925 566.856 318.925C565.19 318.925 564.149 320.173 564.149 322.564C564.149 324.539 564.774 325.994 566.543 325.994C568.313 325.994 569.25 324.747 569.25 322.356Z" fill="#5773A4"/><path d="M586.012 326.923C585.387 327.65 584.138 328.17 583.097 328.17C580.182 328.17 578.62 325.883 578.62 322.661C578.62 318.918 580.806 316.735 583.409 316.735C584.346 316.735 585.387 317.047 585.907 317.671V312.265C585.907 312.057 586.012 311.953 586.22 311.953H587.99C588.198 311.953 588.302 312.057 588.302 312.265V325.259C588.302 325.779 588.406 325.987 588.927 326.091C589.135 326.091 589.239 326.195 589.239 326.403V327.443C589.239 327.65 589.135 327.858 588.927 327.962C588.718 328.066 588.302 328.066 587.885 328.066C587.157 328.066 586.428 327.754 586.012 326.923ZM585.907 319.854C585.387 319.23 584.554 318.918 583.825 318.918C582.264 318.918 581.223 320.166 581.223 322.557C581.223 324.428 581.951 325.987 583.617 325.987C584.242 325.987 584.866 325.779 585.283 325.363C585.699 324.948 585.803 324.324 585.803 323.076V319.854H585.907Z" fill="#5773A4"/><path d="M590.904 322.668C590.904 318.821 592.882 316.742 596.214 316.742C599.337 316.742 601.211 318.821 601.211 322.252C601.211 326.098 599.233 328.177 595.901 328.177C592.674 328.177 590.904 326.202 590.904 322.668ZM598.608 322.356C598.608 320.381 597.983 318.925 596.214 318.925C594.548 318.925 593.507 320.173 593.507 322.564C593.507 324.539 594.132 325.994 595.901 325.994C597.567 325.994 598.608 324.747 598.608 322.356Z" fill="#5773A4"/><path d="M1065 199.371H828.889V842.233H1065V199.371Z" fill="#E5F0FF"/><path d="M864.493 223.386V235.965C864.493 236.277 864.389 236.381 864.076 236.381H862.203C861.89 236.381 861.786 236.277 861.786 235.965V223.386H858.247C857.934 223.386 857.83 223.282 857.83 222.97V221.619C857.83 221.307 857.934 221.203 858.247 221.203H867.928C868.241 221.203 868.345 221.307 868.345 221.619V222.97C868.345 223.282 868.241 223.386 867.928 223.386H864.493Z" fill="#5773A4"/><path d="M868.033 231.078C868.033 227.231 870.011 225.152 873.343 225.152C876.466 225.152 878.34 227.231 878.34 230.662C878.34 234.508 876.362 236.587 873.03 236.587C869.803 236.587 868.033 234.508 868.033 231.078ZM875.737 230.766C875.737 228.791 875.112 227.335 873.343 227.335C871.677 227.335 870.636 228.583 870.636 230.974C870.636 232.949 871.261 234.404 873.03 234.404C874.696 234.404 875.737 233.157 875.737 230.766Z" fill="#5773A4"/><path d="M892.497 235.239C891.872 235.967 890.623 236.487 889.582 236.487C886.667 236.487 885.105 234.2 885.105 230.977C885.105 227.235 887.292 225.051 889.894 225.051C890.831 225.051 891.872 225.363 892.393 225.987V220.581C892.393 220.373 892.497 220.27 892.705 220.27H894.475C894.683 220.27 894.787 220.373 894.787 220.581V233.576C894.787 234.096 894.891 234.304 895.412 234.407C895.62 234.407 895.724 234.511 895.724 234.719V235.759C895.724 235.967 895.62 236.175 895.412 236.279C895.204 236.383 894.787 236.383 894.371 236.383C893.538 236.383 892.809 236.071 892.497 235.239ZM892.289 228.274C891.768 227.65 890.935 227.339 890.207 227.339C888.645 227.339 887.604 228.586 887.604 230.977C887.604 232.848 888.333 234.407 889.998 234.407C890.623 234.407 891.248 234.2 891.664 233.784C892.081 233.368 892.185 232.744 892.185 231.497V228.274H892.289Z" fill="#5773A4"/><path d="M897.287 231.078C897.287 227.231 899.265 225.152 902.596 225.152C905.72 225.152 907.593 227.231 907.593 230.662C907.593 234.508 905.616 236.587 902.284 236.587C899.161 236.587 897.287 234.508 897.287 231.078ZM904.991 230.766C904.991 228.791 904.366 227.335 902.596 227.335C900.931 227.335 899.89 228.583 899.89 230.974C899.89 232.949 900.514 234.404 902.284 234.404C904.054 234.404 904.991 233.157 904.991 230.766Z" fill="#5773A4"/><path d="M875.008 390.133H856.998V408.117H875.008V390.133Z" fill="#D0DEF2"/><path d="M865.743 404.894L858.664 394.81L861.475 392.835L866.264 399.696L882.296 383.895L884.69 386.286L865.743 404.894Z" fill="#8DA8DC"/><path d="M865.743 577.982L858.664 567.794L861.475 565.923L866.264 572.68L882.296 556.879L884.69 559.27L865.743 577.982Z" fill="#8DA8DC"/><path d="M1037.41 566.645H889.582V576.52H1037.41V566.645Z" fill="#D0DEF2"/><path d="M875.008 528.082H856.998V546.066H875.008V528.082Z" fill="#D0DEF2"/><path d="M865.743 544.19L858.664 534.107L861.475 532.132L866.264 538.993L882.296 523.191L884.69 525.582L865.743 544.19Z" fill="#8DA8DC"/><path d="M1037.41 429.113H889.582V438.989H1037.41V429.113Z" fill="#D0DEF2"/><path d="M1037.41 463.523H889.582V473.399H1037.41V463.523Z" fill="#D0DEF2"/><path d="M1037.41 497.832H889.582V507.708H1037.41V497.832Z" fill="#D0DEF2"/><path d="M1037.41 532.238H889.582V542.114H1037.41V532.238Z" fill="#D0DEF2"/><path d="M865.743 750.237L858.664 740.05L861.475 738.178L866.264 745.04L882.296 729.238L884.69 731.629L865.743 750.237Z" fill="#8DA8DC"/><path d="M1037.41 738.488H889.582V748.364H1037.41V738.488Z" fill="#D0DEF2"/><path d="M865.743 785.165L858.664 774.978L861.475 773.107L866.264 779.864L882.296 764.062L884.69 766.557L865.743 785.165Z" fill="#8DA8DC"/><path d="M1037.41 772.895H889.582V782.77H1037.41V772.895Z" fill="#D0DEF2"/><path d="M875.008 803.875H856.998V821.859H875.008V803.875Z" fill="#D0DEF2"/><path d="M865.743 818.636L858.664 808.552L861.475 806.577L866.264 813.438L882.296 797.637L884.69 800.028L865.743 818.636Z" fill="#8DA8DC"/><path d="M1037.41 806.992H889.582V816.868H1037.41V806.992Z" fill="#D0DEF2"/><path d="M865.743 612.597L858.664 602.513L861.475 600.538L866.264 607.399L882.296 591.598L884.69 593.989L865.743 612.597Z" fill="#8DA8DC"/><path d="M865.743 682.042L858.664 671.958L861.475 669.983L866.264 676.844L882.296 661.043L884.69 663.434L865.743 682.042Z" fill="#8DA8DC"/><path d="M865.743 716.452L858.664 706.368L861.475 704.393L866.264 711.254L882.296 695.453L884.69 697.844L865.743 716.452Z" fill="#8DA8DC"/><path d="M1037.41 600.953H889.582V610.829H1037.41V600.953Z" fill="#D0DEF2"/><path d="M1037.41 635.363H889.582V645.239H1037.41V635.363Z" fill="#D0DEF2"/><path d="M1037.41 669.77H889.582V679.645H1037.41V669.77Z" fill="#D0DEF2"/><path d="M1037.41 704.184H889.582V714.059H1037.41V704.184Z" fill="#D0DEF2"/><path d="M865.743 647.421L858.664 637.233L861.475 635.362L866.264 642.223L882.296 626.422L884.69 628.813L865.743 647.421Z" fill="#8DA8DC"/><path d="M1037.41 394.707H889.582V404.583H1037.41V394.707Z" fill="#D0DEF2"/><path d="M875.008 252.492H856.998V270.477H875.008V252.492Z" fill="#D0DEF2"/><path d="M865.743 267.257L858.664 257.173L861.475 255.198L866.264 262.059L882.296 246.258L884.69 248.649L865.743 267.257Z" fill="#8DA8DC"/><path d="M875.008 320.586H856.998V338.57H875.008V320.586Z" fill="#D0DEF2"/><path d="M865.743 336.8L858.664 326.612L861.475 324.741L866.264 331.498L882.296 315.801L884.69 318.192L865.743 336.8Z" fill="#8DA8DC"/><path d="M875.008 354.996H856.998V372.98H875.008V354.996Z" fill="#D0DEF2"/><path d="M865.743 371.208L858.664 361.021L861.475 359.15L866.264 365.907L882.296 350.105L884.69 352.6L865.743 371.208Z" fill="#8DA8DC"/><path d="M1037.41 257.176H889.582V267.052H1037.41V257.176Z" fill="#D0DEF2"/><path d="M1037.41 291.586H889.582V301.462H1037.41V291.586Z" fill="#D0DEF2"/><path d="M1037.41 325.988H889.582V335.864H1037.41V325.988Z" fill="#D0DEF2"/><path d="M1037.41 360.398H889.582V370.274H1037.41V360.398Z" fill="#D0DEF2"/><path d="M875.008 286.488H856.998V304.473H875.008V286.488Z" fill="#D0DEF2"/><path d="M865.743 302.081L858.664 291.997L861.475 290.022L866.264 296.883L882.296 281.082L884.69 283.473L865.743 302.081Z" fill="#8DA8DC"/><path d="M875.008 425.477H856.998V443.461H875.008V425.477Z" fill="#D0DEF2"/><path d="M865.743 440.343L858.664 430.155L861.475 428.284L866.264 435.145L882.296 419.344L884.69 421.735L865.743 440.343Z" fill="#8DA8DC"/><path d="M875.008 493.672H856.998V511.656H875.008V493.672Z" fill="#D0DEF2"/><path d="M865.743 509.784L858.664 499.7L861.475 497.725L866.264 504.586L882.296 488.785L884.69 491.176L865.743 509.784Z" fill="#8DA8DC"/><path d="M875.008 459.574H856.998V477.559H875.008V459.574Z" fill="#D0DEF2"/><path d="M865.743 475.165L858.664 464.978L861.475 463.003L866.264 469.864L882.296 454.062L884.69 456.453L865.743 475.165Z" fill="#8DA8DC"/><path d="M938.33 184.73L954.105 212.008L962.31 207.277L946.534 179.999L938.33 184.73Z" fill="#D0DEF2"/><path d="M828.993 505.001H737.276C729.26 505.001 722.701 498.451 722.701 490.447V452.503C722.701 444.498 729.26 437.949 737.276 437.949H828.993C837.009 437.949 843.567 444.498 843.567 452.503V490.447C843.567 498.451 837.009 505.001 828.993 505.001Z" fill="#5773A4"/><path d="M855.747 524.754H710.521C698.34 524.754 688.45 534.63 688.45 546.793V758.446C688.45 770.609 698.34 780.485 710.521 780.485H855.747C867.928 780.485 877.818 770.609 877.818 758.446V546.793C877.818 534.63 867.928 524.754 855.747 524.754Z" fill="#5773A4"/><path d="M789.744 776.012H776.939V892.234H789.744V776.012Z" fill="#ABB8B9"/><path d="M708.543 982.885L699.069 974.257L783.395 882.672L865.846 974.257L856.268 982.885L783.291 901.696L708.543 982.885Z" fill="#ABB8B9"/><path d="M875.84 758.238H691.886C681.996 758.238 674.084 766.243 674.084 776.015C674.084 785.891 682.1 793.791 691.886 793.791H875.84C885.73 793.791 893.642 785.787 893.642 776.015C893.642 766.139 885.626 758.238 875.84 758.238Z" fill="#3A5887"/><path d="M861.89 994.524C870.572 994.524 877.61 987.496 877.61 978.826C877.61 970.157 870.572 963.129 861.89 963.129C853.208 963.129 846.17 970.157 846.17 978.826C846.17 987.496 853.208 994.524 861.89 994.524Z" fill="#3A5887"/><path d="M704.17 994.524C712.852 994.524 719.89 987.496 719.89 978.826C719.89 970.157 712.852 963.129 704.17 963.129C695.488 963.129 688.45 970.157 688.45 978.826C688.45 987.496 695.488 994.524 704.17 994.524Z" fill="#3A5887"/><path d="M892.186 650.33L940.178 566.75L919.045 555.211L878.34 614.258L892.186 650.33Z" fill="#9E403A"/><path d="M856.477 641.177L909.57 570.695L931.12 582.65L887.188 660.409L856.477 641.177Z" fill="#9E403A"/><path d="M872.719 547.723C873.969 531.61 861.892 517.68 845.756 516.432C829.62 515.185 815.67 527.244 814.42 543.357C813.171 559.47 832.847 584.212 832.847 584.212C832.847 584.212 871.574 563.732 872.719 547.723Z" fill="#E73245"/><path d="M684.392 793.892C682.518 795.763 679.395 795.659 677.625 793.788L662.842 778.61L669.713 771.957L684.496 787.135C686.37 789.006 686.266 792.021 684.392 793.892Z" fill="#F0A86B"/><path d="M731.552 647.314L722.391 516.434H843.361L841.591 647.314H731.552Z" fill="#E73245"/><path d="M782.876 583.9L803.281 519.552V501.152L761.326 500.84V515.705L782.876 583.9Z" fill="#7A2F37"/><path d="M695.427 547.723C694.177 531.61 706.254 517.68 722.39 516.432C738.526 515.185 752.476 527.244 753.726 543.357C754.975 559.47 735.299 584.212 735.299 584.212C735.299 584.212 696.572 563.732 695.427 547.723Z" fill="#E73245"/><path d="M862.933 732.661C862.933 663.427 835.032 636.918 835.032 636.918H739.047C739.047 636.918 707.607 645.65 707.607 732.349V732.661C707.607 746.799 719.163 758.338 733.321 758.338H837.219C851.377 758.338 862.933 746.903 862.933 732.661Z" fill="#891229"/><path d="M700.424 689.623L747.063 568.515L698.758 556.664L671.066 682.554L661.072 728.295L654.201 750.022L662.842 778.505L677.625 793.683C679.499 795.554 682.518 795.658 684.392 793.787C685.641 792.539 686.057 790.772 685.641 789.109C685.745 789.109 685.745 789.005 685.849 789.005C688.035 787.446 688.556 784.431 686.994 782.352L675.23 765.927C674.085 762.704 672.836 759.378 672.42 758.13C671.795 756.155 673.669 754.7 675.126 755.843L678.145 761.769C678.25 761.976 678.249 762.08 678.249 762.08V761.976L683.871 772.996C685.12 775.387 687.931 776.322 690.326 775.075C692.72 773.827 693.657 771.021 692.408 768.63L685.537 755.219L683.559 735.364L700.424 689.623Z" fill="#9E3F39"/><path d="M953.92 546.373C953.92 546.373 949.86 548.036 948.403 548.452C945.592 549.18 944.759 546.061 946.945 545.021C948.403 544.294 953.192 542.215 956.627 540.551C947.882 541.071 933.828 539.512 933.828 539.512L943.822 555.833L953.92 546.373Z" fill="#9E3F39"/><path d="M954.957 523.899L928.438 537.645L932.85 546.133L959.37 532.388L954.957 523.899Z" fill="#9E3F39"/><path d="M983.487 518.826L982.029 520.802C982.029 520.802 982.029 520.802 981.925 520.905C981.405 521.321 980.676 521.425 980.051 521.113L976.512 519.658C975.887 519.45 975.471 518.826 975.471 518.203C975.471 518.099 975.575 517.891 975.679 517.891C976.928 517.891 981.613 517.683 983.279 518.411C983.591 518.411 983.591 518.618 983.487 518.826Z" fill="#E73245"/><path d="M857.622 658.125L821.914 568.515L870.219 556.664L889.062 648.769C890.832 657.397 885.418 665.921 876.778 668.001C868.866 669.976 860.641 665.817 857.622 658.125Z" fill="#9E403A"/><path d="M885.732 612.179L872.198 538.578L798.908 567.478L833.367 630.683C839.509 641.91 852.418 647.628 864.807 644.509C879.173 640.974 888.439 626.733 885.732 612.179Z" fill="#E73245"/><path d="M892.395 630.058C888.335 630.89 884.483 628.395 883.546 624.341L882.297 618.519C881.464 614.465 883.962 610.619 888.022 609.683C892.082 608.851 895.934 611.346 896.871 615.401L898.121 621.222C899.057 625.276 896.455 629.227 892.395 630.058Z" fill="#E73245"/><path d="M892.707 655.945C896.246 655.217 898.537 651.683 897.808 648.148L892.082 621.016L879.277 623.718L885.003 650.851C885.628 654.385 889.167 656.672 892.707 655.945Z" fill="#E73245"/><path d="M934.868 571.838L954.544 556.037L928.414 537.637L916.754 559.363L934.868 571.838Z" fill="#9E403A"/><path d="M928.831 533.065L958.189 447.405C959.334 444.079 962.977 442.208 966.413 443.455L1022.11 462.479C1025.44 463.623 1027.31 467.261 1026.07 470.692L996.708 556.351C995.562 559.678 991.919 561.549 988.483 560.301L932.787 541.277C929.455 540.03 927.686 536.391 928.831 533.065Z" fill="#232144"/><path d="M931.122 533.585L960.376 448.341C961.105 446.262 963.291 445.223 965.373 445.95L1021.17 465.078C1023.26 465.806 1024.3 467.989 1023.57 470.068L994.314 555.312C993.585 557.391 991.399 558.43 989.317 557.703L933.517 538.575C931.539 537.847 930.498 535.664 931.122 533.585Z" fill="#E6E3DA"/><path d="M968.496 448.134C968.705 448.238 968.705 448.238 968.6 448.446L968.496 448.861C968.288 449.381 968.08 449.485 967.559 449.901L965.061 451.46C966.518 452.084 967.351 453.331 966.831 454.891C966.206 456.762 964.436 457.282 962.562 456.658C961.521 456.346 960.584 455.618 960.168 454.995C960.064 454.891 960.064 454.787 960.168 454.683L960.793 454.059C960.897 453.955 961.001 453.955 961.105 454.059C961.625 454.579 962.146 455.099 962.979 455.307C963.916 455.618 964.853 455.307 965.165 454.371C965.581 453.124 964.749 452.604 963.603 452.188L963.083 451.98C962.875 451.876 962.875 451.876 962.979 451.772L963.187 451.252C963.291 450.94 963.395 450.836 963.603 450.733L966.518 448.965L963.291 447.822C963.187 447.822 963.083 447.718 963.187 447.614L963.499 446.678C963.499 446.574 963.603 446.47 963.812 446.574L968.496 448.134Z" fill="#4B7CFE"/><path d="M972.971 449.901C973.076 449.797 973.18 449.797 973.388 449.797L974.533 450.213C974.637 450.213 974.741 450.317 974.637 450.525L970.265 455.307L972.451 456.034L973.18 453.955C973.18 453.851 973.284 453.747 973.492 453.851L974.637 454.267C974.741 454.267 974.845 454.371 974.741 454.475L974.012 456.554L974.949 456.866C975.054 456.866 975.158 456.97 975.054 457.074L974.741 458.009C974.741 458.113 974.637 458.217 974.533 458.113L973.596 457.801L972.867 459.777C972.867 459.881 972.763 459.985 972.659 459.881L971.514 459.465C971.41 459.465 971.306 459.361 971.41 459.257L972.139 457.282L968.495 456.034C968.391 456.034 968.287 455.93 968.391 455.826L968.599 455.307C968.703 454.995 968.703 454.891 968.911 454.683L972.971 449.901Z" fill="#4B7CFE"/><path d="M980.989 461.337C981.093 461.337 981.197 461.441 981.093 461.649L980.78 462.584C980.78 462.688 980.676 462.792 980.572 462.688L975.263 460.921C975.055 460.817 975.055 460.817 975.055 460.609L975.263 459.985C976.304 456.971 980.572 457.178 981.301 455.307C981.613 454.476 981.197 453.852 980.364 453.644C979.635 453.436 978.907 453.436 978.282 453.644C978.178 453.644 978.074 453.644 977.97 453.436L977.761 452.604C977.761 452.396 977.761 452.396 977.97 452.292C978.802 451.981 979.844 451.981 980.78 452.292C981.822 452.604 982.446 453.124 982.758 453.852C982.967 454.372 983.071 455.099 982.758 455.827C981.926 458.114 977.657 458.426 976.929 459.985L980.989 461.337Z" fill="#4B7CFE"/><path d="M983.278 460.921C983.694 459.778 984.631 459.154 985.776 459.05C985.256 458.426 984.943 457.491 985.256 456.451C985.776 454.892 987.442 454.372 989.003 454.996C990.461 455.515 991.502 456.763 990.981 458.218C990.669 459.154 989.836 459.674 988.899 459.882C989.628 460.609 990.253 461.649 989.732 462.896C989.107 464.663 987.338 465.079 985.464 464.456C983.902 463.936 982.653 462.584 983.278 460.921ZM988.066 462.48C988.379 461.545 987.546 460.817 986.713 460.089C985.88 460.193 985.151 460.609 984.839 461.337C984.527 462.169 985.047 462.896 985.984 463.208C986.921 463.52 987.754 463.208 988.066 462.48ZM989.42 457.802C989.628 457.179 989.212 456.451 988.483 456.243C987.754 456.035 987.025 456.347 986.817 456.971C986.609 457.698 987.129 458.322 987.754 458.946C988.483 458.738 989.212 458.426 989.42 457.802Z" fill="#4B7CFE"/><path d="M997.228 458.011C997.332 458.011 997.436 458.115 997.332 458.219L994.626 466.016L996.291 466.535C996.395 466.535 996.499 466.639 996.395 466.847L996.083 467.679C996.083 467.783 995.979 467.887 995.875 467.783L990.878 466.016C990.774 466.016 990.669 465.912 990.774 465.808L991.086 464.976C991.086 464.872 991.19 464.768 991.294 464.872L993.064 465.496L995.25 459.155L993.272 459.466C993.064 459.466 992.96 459.466 992.96 459.259L992.856 458.427C992.856 458.219 992.856 458.115 993.064 458.115L995.771 457.699C996.083 457.699 996.291 457.699 996.708 457.803L997.228 458.011Z" fill="#4B7CFE"/><path d="M1006.08 461.024C1006.28 461.128 1006.28 461.128 1006.18 461.336L1006.08 461.752C1005.87 462.272 1005.66 462.376 1005.14 462.792L1002.64 464.351C1004.1 464.975 1004.93 466.222 1004.41 467.781C1003.79 469.653 1002.02 470.172 1000.14 469.549C999.101 469.237 998.164 468.509 997.748 467.885C997.644 467.781 997.644 467.677 997.748 467.573L998.373 466.95C998.477 466.846 998.581 466.846 998.685 466.95C999.205 467.47 999.726 467.989 1000.56 468.197C1001.5 468.509 1002.43 468.197 1002.75 467.262C1003.16 466.014 1002.33 465.494 1001.18 465.079L1000.66 464.871C1000.56 464.767 1000.45 464.767 1000.56 464.663L1000.77 464.143C1000.87 463.831 1000.98 463.727 1001.18 463.623L1004.1 461.856L1000.87 460.712C1000.77 460.712 1000.66 460.608 1000.77 460.504L1001.08 459.569C1001.08 459.465 1001.18 459.361 1001.29 459.465L1006.08 461.024Z" fill="#4B7CFE"/><path d="M1010.24 466.327C1011.07 466.639 1011.7 467.159 1012.01 467.783C1012.32 468.406 1012.32 469.238 1012.01 470.07C1011.28 472.045 1009.51 472.668 1007.53 472.045C1006.6 471.733 1005.76 471.213 1005.35 470.589C1005.24 470.485 1005.24 470.381 1005.35 470.277L1005.97 469.654C1006.08 469.55 1006.18 469.55 1006.28 469.654C1006.7 470.07 1007.33 470.485 1008.05 470.693C1009.3 471.109 1010.14 470.485 1010.45 469.55C1010.87 468.406 1010.34 467.679 1009.3 467.263C1008.68 467.055 1008.16 466.951 1007.33 466.951C1007.22 466.951 1007.12 466.847 1007.12 466.743L1008.68 462.065C1008.68 461.961 1008.78 461.857 1008.99 461.961L1013.68 463.52C1013.78 463.52 1013.88 463.624 1013.78 463.728L1013.47 464.664C1013.47 464.768 1013.36 464.872 1013.16 464.768L1009.72 463.624L1008.89 465.911C1009.41 466.119 1009.82 466.223 1010.24 466.327Z" fill="#4B7CFE"/><path d="M1018.15 465.393C1018.26 465.289 1018.36 465.289 1018.57 465.289L1019.71 465.705C1019.82 465.705 1019.92 465.809 1019.82 466.017L1015.45 470.799L1017.63 471.526L1018.36 469.447C1018.36 469.343 1018.47 469.239 1018.67 469.343L1019.82 469.759C1019.92 469.759 1020.03 469.863 1019.92 469.967L1019.19 472.046L1020.13 472.358C1020.24 472.358 1020.34 472.462 1020.24 472.566L1019.92 473.502C1019.92 473.606 1019.82 473.709 1019.71 473.606L1018.78 473.294L1018.05 475.269C1018.05 475.373 1017.94 475.477 1017.84 475.373L1016.7 474.957C1016.59 474.957 1016.49 474.853 1016.59 474.645L1017.32 472.67L1013.68 471.422C1013.57 471.422 1013.47 471.319 1013.57 471.215L1013.78 470.695C1013.88 470.383 1013.88 470.279 1014.09 470.071L1018.15 465.393Z" fill="#4B7CFE"/><path d="M960.374 463.21C958.605 462.586 957.98 461.027 958.605 459.468C959.229 457.701 960.791 456.765 962.665 457.389C965.059 458.22 965.163 460.403 964.434 462.586C963.393 465.497 961.52 467.68 958.917 466.849C958.084 466.537 957.459 466.121 957.043 465.601C956.939 465.497 956.939 465.393 957.147 465.185L957.668 464.666C957.772 464.562 957.876 464.562 957.98 464.666C958.292 464.977 958.813 465.289 959.229 465.393C960.791 465.913 961.624 464.873 962.352 463.21C961.832 463.522 960.999 463.418 960.374 463.21ZM962.873 461.963C963.393 460.403 963.393 459.156 962.248 458.74C961.311 458.428 960.583 459.052 960.27 459.884C959.958 460.819 960.166 461.755 961.207 462.171C961.624 462.379 962.352 462.379 962.769 462.275L962.873 461.963Z" fill="#4B7CFE"/><path d="M971.203 460.504C971.307 460.504 971.411 460.608 971.307 460.712L968.6 468.509L970.266 469.028C970.37 469.028 970.474 469.132 970.37 469.236L970.058 470.068C970.058 470.172 969.953 470.276 969.849 470.172L964.852 468.405C964.748 468.405 964.644 468.301 964.748 468.093L965.061 467.261C965.061 467.157 965.165 467.053 965.373 467.157L967.143 467.781L969.329 461.44L967.351 461.752C967.143 461.752 967.039 461.752 967.039 461.544L966.934 460.712C966.934 460.504 966.934 460.4 967.143 460.4L969.849 459.984C970.162 459.984 970.37 459.984 970.786 460.088L971.203 460.504Z" fill="#4B7CFE"/><path d="M980.051 463.52C980.259 463.624 980.259 463.624 980.155 463.832L980.051 464.248C979.843 464.768 979.635 464.872 979.114 465.288L976.616 466.847C978.073 467.471 978.906 468.718 978.385 470.277C977.761 472.149 975.991 472.668 974.117 472.045C973.076 471.733 972.139 471.005 971.723 470.381C971.619 470.277 971.619 470.174 971.723 470.07L972.347 469.446C972.451 469.342 972.555 469.342 972.66 469.446C973.18 469.966 973.701 470.485 974.533 470.693C975.47 471.005 976.407 470.693 976.72 469.758C977.136 468.51 976.303 467.99 975.158 467.575L974.638 467.367C974.533 467.263 974.429 467.263 974.533 467.159L974.742 466.639C974.846 466.327 974.95 466.223 975.158 466.119L978.073 464.352L974.846 463.208C974.742 463.208 974.638 463.105 974.742 463.001L975.054 462.065C975.054 461.961 975.158 461.857 975.262 461.961L980.051 463.52Z" fill="#4B7CFE"/><path d="M984.526 465.288C984.63 465.184 984.734 465.184 984.943 465.184L986.088 465.599C986.192 465.599 986.296 465.703 986.192 465.911L981.819 470.693L984.006 471.421L984.734 469.342C984.734 469.238 984.838 469.134 985.047 469.238L986.192 469.654C986.296 469.654 986.4 469.758 986.296 469.862L985.567 471.941L986.504 472.253C986.608 472.253 986.712 472.357 986.608 472.46L986.296 473.396C986.296 473.5 986.192 473.604 986.088 473.5L985.151 473.188L984.526 475.163C984.526 475.267 984.422 475.371 984.318 475.267L983.173 474.851C983.069 474.851 982.965 474.748 983.069 474.54L983.693 472.564L980.05 471.317C979.945 471.317 979.841 471.213 979.945 471.109L980.154 470.589C980.258 470.277 980.258 470.173 980.466 469.966L984.526 465.288Z" fill="#4B7CFE"/><path d="M987.339 473.706C987.755 472.563 988.692 471.939 989.837 471.835C989.317 471.211 989.005 470.276 989.317 469.236C989.837 467.677 991.503 467.157 993.065 467.781C994.522 468.301 995.563 469.548 995.043 471.003C994.73 471.939 993.898 472.459 992.961 472.667C993.689 473.394 994.314 474.434 993.794 475.681C993.169 477.449 991.399 477.864 989.525 477.241C987.859 476.721 986.714 475.369 987.339 473.706ZM992.128 475.266C992.44 474.33 991.607 473.602 990.774 472.875C989.942 472.979 989.213 473.394 988.901 474.122C988.588 474.954 989.109 475.681 990.046 475.993C990.879 476.305 991.815 475.993 992.128 475.266ZM993.377 470.588C993.585 469.964 993.169 469.236 992.44 469.028C991.711 468.82 990.983 469.132 990.774 469.756C990.566 470.484 991.087 471.107 991.711 471.731C992.44 471.523 993.169 471.211 993.377 470.588Z" fill="#4B7CFE"/><path d="M1002.64 471.212C1002.85 471.316 1002.85 471.316 1002.74 471.524L1002.64 471.939C1002.43 472.459 1002.22 472.563 1001.7 472.979L999.205 474.538C1000.66 475.162 1001.5 476.41 1000.98 477.969C1000.35 479.84 998.581 480.36 996.707 479.736C995.666 479.424 994.729 478.697 994.312 478.073C994.208 477.969 994.208 477.865 994.312 477.761L994.937 477.137C995.041 477.033 995.145 477.033 995.249 477.137C995.77 477.657 996.29 478.177 997.123 478.385C998.06 478.697 998.997 478.385 999.309 477.449C999.726 476.202 998.893 475.682 997.748 475.266L997.227 475.058C997.123 474.954 997.019 474.954 997.123 474.85L997.331 474.33C997.436 474.019 997.54 473.915 997.748 473.811L1000.66 472.043L997.436 470.9C997.332 470.9 997.227 470.796 997.331 470.692L997.644 469.756C997.644 469.652 997.748 469.548 997.852 469.652L1002.64 471.212Z" fill="#4B7CFE"/><path d="M1005.56 478.695C1003.79 478.071 1003.16 476.512 1003.79 474.952C1004.41 473.185 1005.97 472.249 1007.85 472.873C1010.24 473.705 1010.34 475.888 1009.62 478.071C1008.58 480.982 1006.7 483.165 1004.1 482.333C1003.27 482.021 1002.64 481.605 1002.22 481.086C1002.12 480.982 1002.12 480.878 1002.33 480.67L1002.85 480.15C1002.95 480.046 1003.06 480.046 1003.16 480.15C1003.47 480.462 1003.99 480.774 1004.41 480.878C1005.97 481.397 1006.81 480.358 1007.53 478.695C1006.91 478.903 1006.08 478.903 1005.56 478.695ZM1007.95 477.343C1008.47 475.784 1008.47 474.536 1007.33 474.121C1006.39 473.809 1005.66 474.432 1005.35 475.264C1005.04 476.2 1005.24 477.135 1006.28 477.551C1006.7 477.759 1007.43 477.759 1007.85 477.655L1007.95 477.343Z" fill="#4B7CFE"/><path d="M1009.82 481.398C1010.24 480.254 1011.18 479.63 1012.32 479.526C1011.8 478.903 1011.49 477.967 1011.8 476.928C1012.32 475.368 1013.99 474.848 1015.55 475.472C1017.01 475.992 1018.05 477.239 1017.53 478.695C1017.22 479.63 1016.38 480.15 1015.45 480.358C1016.17 481.086 1016.8 482.125 1016.28 483.373C1015.65 485.14 1013.88 485.556 1012.01 484.932C1010.45 484.412 1009.3 483.061 1009.82 481.398ZM1014.61 482.957C1014.93 482.021 1014.09 481.294 1013.26 480.566C1012.43 480.67 1011.7 481.086 1011.39 481.813C1011.07 482.645 1011.59 483.373 1012.53 483.685C1013.47 483.997 1014.41 483.685 1014.61 482.957ZM1015.97 478.279C1016.17 477.655 1015.76 476.928 1015.03 476.72C1014.3 476.512 1013.57 476.824 1013.36 477.447C1013.16 478.175 1013.68 478.799 1014.3 479.422C1015.03 479.215 1015.76 478.903 1015.97 478.279Z" fill="#4B7CFE"/><path d="M954.442 472.15C955.483 469.031 957.565 467.056 960.063 467.991C960.792 468.199 961.313 468.615 961.625 469.135C961.729 469.239 961.729 469.343 961.521 469.551L961 470.07C960.896 470.174 960.792 470.174 960.688 470.07C960.376 469.759 959.959 469.551 959.647 469.343C958.294 468.823 957.357 469.863 956.628 471.318C957.253 471.214 957.981 471.214 958.606 471.422C960.272 472.046 960.896 473.605 960.272 475.268C959.647 477.035 957.981 478.075 956.107 477.451C953.921 476.412 953.609 474.437 954.442 472.15ZM958.71 474.644C959.022 473.709 958.918 472.773 957.877 472.461C957.357 472.253 956.732 472.253 956.212 472.357L956.107 472.773C955.587 474.333 955.587 475.684 956.732 476.1C957.565 476.308 958.398 475.58 958.71 474.644Z" fill="#4B7CFE"/><path d="M965.997 470.276C966.101 470.172 966.205 470.172 966.413 470.172L967.558 470.588C967.663 470.588 967.767 470.692 967.662 470.9L963.29 475.682L965.476 476.409L966.205 474.33C966.205 474.226 966.309 474.122 966.517 474.226L967.662 474.642C967.767 474.642 967.871 474.746 967.767 474.85L967.038 476.929L967.975 477.241C968.079 477.241 968.183 477.345 968.079 477.449L967.767 478.384C967.767 478.488 967.662 478.592 967.454 478.488L966.517 478.176L965.893 480.152C965.893 480.256 965.789 480.36 965.685 480.256L964.539 479.84C964.435 479.84 964.331 479.736 964.435 479.632L965.164 477.657L961.52 476.409C961.416 476.409 961.312 476.305 961.416 476.097L961.624 475.578C961.728 475.266 961.728 475.162 961.937 474.954L965.997 470.276Z" fill="#4B7CFE"/><path d="M976.512 473.712C976.72 473.816 976.72 473.816 976.616 474.024L976.512 474.439C976.304 474.959 976.096 475.063 975.575 475.479L973.077 477.038C974.534 477.662 975.367 478.91 974.846 480.469C974.222 482.34 972.452 482.86 970.578 482.236C969.537 481.924 968.6 481.197 968.184 480.573C968.079 480.469 968.079 480.365 968.184 480.261L968.808 479.637C968.912 479.533 969.016 479.533 969.121 479.637C969.641 480.157 970.162 480.677 970.994 480.885C971.931 481.197 972.868 480.885 973.181 479.949C973.597 478.702 972.764 478.182 971.619 477.766L971.098 477.558C970.994 477.454 970.89 477.454 970.994 477.35L971.203 476.83C971.307 476.519 971.411 476.415 971.619 476.311L974.534 474.543L971.307 473.4C971.203 473.4 971.099 473.296 971.203 473.192L971.515 472.256C971.515 472.152 971.619 472.048 971.827 472.152L976.512 473.712Z" fill="#4B7CFE"/><path d="M982.654 475.787C982.758 475.787 982.862 475.891 982.758 475.995L980.051 483.792L981.717 484.311C981.821 484.311 981.925 484.415 981.821 484.519L981.509 485.351C981.509 485.455 981.405 485.559 981.301 485.455L976.303 483.688C976.199 483.688 976.095 483.584 976.199 483.48L976.512 482.648C976.512 482.544 976.616 482.44 976.824 482.544L978.594 483.168L980.78 476.826L978.802 477.138C978.594 477.138 978.49 477.138 978.49 476.93L978.386 476.099C978.386 475.891 978.386 475.787 978.594 475.787L981.301 475.371C981.613 475.371 981.821 475.371 982.237 475.475L982.654 475.787Z" fill="#4B7CFE"/><path d="M992.126 479.01C992.23 479.01 992.335 479.114 992.23 479.217L992.022 479.841C991.918 480.049 991.814 480.257 991.606 480.569L985.984 487.014C985.88 487.118 985.776 487.222 985.568 487.118L984.423 486.702C984.214 486.598 984.214 486.494 984.318 486.39L990.252 479.841L986.296 478.49C986.192 478.49 986.088 478.386 986.192 478.282L986.505 477.346C986.505 477.242 986.609 477.138 986.817 477.242L992.126 479.01Z" fill="#4B7CFE"/><path d="M994.521 486.288C992.751 485.665 992.126 484.105 992.751 482.546C993.376 480.779 994.937 479.843 996.811 480.467C999.206 481.298 999.31 483.482 998.581 485.665C997.54 488.575 995.666 490.758 993.063 489.927C992.231 489.615 991.606 489.199 991.189 488.679C991.085 488.575 991.085 488.471 991.294 488.264L991.814 487.744C991.918 487.64 992.022 487.64 992.126 487.744C992.439 488.056 992.959 488.367 993.376 488.471C994.937 488.991 995.77 487.952 996.499 486.288C995.978 486.6 995.145 486.496 994.521 486.288ZM996.915 484.937C997.436 483.378 997.436 482.13 996.291 481.714C995.354 481.402 994.625 482.026 994.313 482.858C994 483.793 994.209 484.729 995.25 485.145C995.666 485.353 996.395 485.353 996.811 485.249L996.915 484.937Z" fill="#4B7CFE"/><path d="M1003.58 483.166C1003.68 483.063 1003.79 483.062 1004 483.062L1005.14 483.478C1005.25 483.478 1005.35 483.582 1005.25 483.79L1000.87 488.572L1003.06 489.3L1003.79 487.221C1003.79 487.117 1003.89 487.013 1004 487.117L1005.14 487.533C1005.25 487.533 1005.35 487.637 1005.25 487.741L1004.52 489.82L1005.45 490.132C1005.56 490.132 1005.66 490.235 1005.56 490.339L1005.25 491.275C1005.25 491.379 1005.14 491.483 1004.93 491.379L1004 491.067L1003.37 493.042C1003.37 493.146 1003.27 493.25 1003.16 493.146L1002.02 492.73C1001.91 492.73 1001.81 492.626 1001.91 492.522L1002.64 490.547L998.999 489.3C998.895 489.3 998.791 489.196 998.895 488.988L999.103 488.468C999.207 488.156 999.207 488.052 999.415 487.844L1003.58 483.166Z" fill="#4B7CFE"/><path d="M1011.59 494.605C1011.7 494.605 1011.8 494.709 1011.7 494.813L1011.39 495.748C1011.39 495.852 1011.28 495.956 1011.07 495.852L1005.87 494.085C1005.66 493.981 1005.66 493.981 1005.66 493.773L1005.87 493.149C1006.91 490.135 1011.18 490.342 1011.91 488.471C1012.22 487.64 1011.8 487.016 1010.97 486.808C1010.24 486.6 1009.51 486.6 1008.89 486.808C1008.78 486.808 1008.68 486.808 1008.58 486.6L1008.37 485.768C1008.37 485.56 1008.37 485.561 1008.58 485.457C1009.41 485.145 1010.45 485.145 1011.39 485.457C1012.43 485.768 1013.05 486.288 1013.36 487.016C1013.57 487.536 1013.68 488.263 1013.36 488.991C1012.53 491.278 1008.26 491.59 1007.53 493.149L1011.59 494.605Z" fill="#4B7CFE"/><path d="M950.901 482.334C951.942 479.319 954.025 477.24 956.523 478.175C957.252 478.383 957.772 478.799 958.085 479.319C958.189 479.423 958.189 479.527 957.981 479.735L957.46 480.255C957.356 480.359 957.252 480.359 957.148 480.255C956.835 479.943 956.419 479.735 956.107 479.527C954.753 479.007 953.816 480.047 953.088 481.502C953.712 481.398 954.441 481.398 955.066 481.606C956.731 482.23 957.356 483.789 956.731 485.452C956.107 487.22 954.441 488.259 952.567 487.635C950.381 486.7 950.173 484.621 950.901 482.334ZM955.17 484.829C955.482 483.893 955.378 482.957 954.337 482.646C953.816 482.438 953.192 482.438 952.671 482.542L952.567 482.957C952.047 484.517 952.047 485.868 953.192 486.284C954.025 486.492 954.857 485.764 955.17 484.829Z" fill="#4B7CFE"/><path d="M957.773 486.394C958.189 485.25 959.126 484.626 960.271 484.523C959.751 483.899 959.438 482.963 959.751 481.924C960.271 480.364 961.937 479.845 963.498 480.468C964.956 480.988 965.997 482.236 965.476 483.691C965.164 484.626 964.331 485.146 963.394 485.354C964.123 486.082 964.748 487.121 964.227 488.369C963.602 490.136 961.833 490.552 959.959 489.928C958.293 489.408 957.148 488.057 957.773 486.394ZM962.561 487.953C962.874 487.017 962.041 486.29 961.208 485.562C960.375 485.666 959.646 486.082 959.334 486.81C959.022 487.641 959.542 488.369 960.479 488.681C961.312 488.993 962.249 488.681 962.561 487.953ZM963.811 483.275C964.019 482.651 963.602 481.924 962.874 481.716C962.145 481.508 961.416 481.82 961.208 482.443C961 483.171 961.52 483.795 962.145 484.419C962.874 484.211 963.602 483.899 963.811 483.275Z" fill="#4B7CFE"/><path d="M970.057 483.065C970.161 482.961 970.265 482.961 970.473 482.961L971.618 483.377C971.722 483.377 971.826 483.481 971.722 483.689L967.35 488.471L969.536 489.198L970.265 487.119C970.265 487.015 970.369 486.911 970.473 487.015L971.618 487.431C971.722 487.431 971.826 487.535 971.722 487.639L970.994 489.718L971.931 490.03C972.035 490.03 972.139 490.134 972.035 490.238L971.722 491.173C971.722 491.277 971.618 491.381 971.514 491.277L970.473 490.966L969.848 492.941C969.848 493.045 969.744 493.149 969.64 493.045L968.495 492.629C968.391 492.629 968.287 492.525 968.391 492.421L969.016 490.446L965.372 489.198C965.268 489.198 965.164 489.094 965.268 488.886L965.476 488.367C965.58 488.055 965.58 487.951 965.788 487.743L970.057 483.065Z" fill="#4B7CFE"/><path d="M975.992 491.382C974.222 490.758 973.597 489.199 974.222 487.64C974.846 485.872 976.408 484.937 978.282 485.561C980.676 486.392 980.78 488.575 980.052 490.758C979.011 493.669 977.137 495.852 974.534 495.021C973.701 494.709 973.077 494.293 972.66 493.773C972.556 493.669 972.556 493.565 972.764 493.357L973.285 492.837C973.389 492.734 973.493 492.734 973.597 492.837C973.909 493.149 974.43 493.461 974.846 493.565C976.408 494.085 977.241 493.045 977.97 491.382C977.345 491.59 976.616 491.59 975.992 491.382ZM978.386 490.031C978.906 488.471 978.907 487.224 977.761 486.808C976.824 486.496 976.096 487.12 975.783 487.952C975.471 488.887 975.679 489.823 976.72 490.239C977.137 490.446 977.865 490.447 978.282 490.343L978.386 490.031Z" fill="#4B7CFE"/><path d="M980.26 494.081C980.676 492.938 981.613 492.314 982.759 492.21C982.238 491.586 981.926 490.651 982.238 489.611C982.759 488.052 984.424 487.532 985.986 488.156C987.443 488.676 988.484 489.923 987.964 491.378C987.651 492.314 986.819 492.834 985.882 493.042C986.61 493.769 987.235 494.809 986.715 496.056C986.09 497.824 984.32 498.239 982.446 497.616C980.885 497.096 979.74 495.745 980.26 494.081ZM985.049 495.641C985.361 494.705 984.528 493.977 983.696 493.25C982.863 493.354 982.134 493.769 981.822 494.497C981.509 495.329 982.03 496.056 982.967 496.368C983.904 496.68 984.841 496.368 985.049 495.641ZM986.402 490.963C986.61 490.339 986.194 489.611 985.465 489.403C984.737 489.195 984.008 489.507 983.8 490.131C983.591 490.859 984.112 491.482 984.737 492.106C985.465 491.898 986.194 491.586 986.402 490.963Z" fill="#4B7CFE"/><path d="M992.231 494.394C993.064 494.705 993.688 495.225 994.001 495.849C994.313 496.473 994.313 497.304 994.001 498.136C993.272 500.111 991.502 500.735 989.524 500.111C988.587 499.799 987.754 499.279 987.338 498.656C987.234 498.552 987.234 498.448 987.338 498.344L987.962 497.72C988.067 497.616 988.171 497.616 988.275 497.72C988.691 498.136 989.316 498.552 990.045 498.76C991.294 499.176 992.127 498.552 992.439 497.616C992.855 496.473 992.335 495.745 991.294 495.329C990.669 495.121 990.045 495.017 989.316 495.017C989.212 495.017 989.108 494.913 989.108 494.809L990.669 490.131C990.669 490.027 990.773 489.923 990.877 490.027L995.562 491.587C995.666 491.587 995.77 491.691 995.666 491.795L995.354 492.73C995.354 492.834 995.25 492.938 995.146 492.834L991.71 491.691L990.877 493.978C991.398 494.082 991.814 494.186 992.231 494.394Z" fill="#4B7CFE"/><path d="M1003.68 494.396C1003.79 494.396 1003.89 494.5 1003.79 494.604L1003.58 495.228C1003.47 495.436 1003.37 495.644 1003.16 495.956L997.541 502.401C997.437 502.505 997.332 502.609 997.124 502.505L995.979 502.089C995.771 501.985 995.771 501.881 995.875 501.777L1001.81 495.228L997.853 493.876C997.749 493.876 997.645 493.773 997.749 493.669L998.061 492.733C998.061 492.629 998.165 492.525 998.269 492.629L1003.68 494.396Z" fill="#4B7CFE"/><path d="M1007.64 495.955C1007.74 495.852 1007.85 495.852 1008.06 495.852L1009.2 496.267C1009.31 496.267 1009.41 496.371 1009.31 496.579L1004.93 501.361L1007.12 502.089L1007.85 500.01C1007.85 499.906 1007.95 499.802 1008.16 499.906L1009.31 500.322C1009.41 500.322 1009.51 500.426 1009.41 500.53L1008.68 502.609L1009.62 502.921C1009.72 502.921 1009.83 503.025 1009.72 503.128L1009.41 504.064C1009.41 504.168 1009.31 504.272 1009.2 504.168L1008.26 503.856L1007.64 505.831C1007.64 505.935 1007.54 506.039 1007.43 505.935L1006.29 505.519C1006.18 505.519 1006.08 505.415 1006.18 505.311L1006.81 503.336L1003.16 502.089C1003.06 502.089 1002.95 501.985 1003.06 501.881L1003.27 501.361C1003.37 501.049 1003.37 500.945 1003.58 500.737L1007.64 495.955Z" fill="#4B7CFE"/><path d="M953.088 488.472C953.192 488.472 953.296 488.576 953.192 488.68L950.485 496.477L952.151 496.996C952.255 496.996 952.359 497.1 952.255 497.308L951.942 498.14C951.942 498.244 951.838 498.348 951.734 498.244L946.737 496.477C946.633 496.477 946.529 496.373 946.633 496.269L946.945 495.437C946.945 495.333 947.049 495.229 947.153 495.333L948.923 495.957L951.11 489.616L949.132 489.927C948.923 489.927 948.819 489.927 948.819 489.719L948.715 488.888C948.715 488.68 948.715 488.576 948.923 488.576L951.63 488.16C951.942 488.16 952.151 488.16 952.567 488.264L953.088 488.472Z" fill="#4B7CFE"/><path d="M962.041 491.481C962.249 491.585 962.249 491.585 962.145 491.793L962.041 492.209C961.833 492.729 961.625 492.833 961.104 493.249L958.606 494.808C960.063 495.432 960.896 496.679 960.376 498.238C959.751 500.11 957.981 500.629 956.107 500.006C955.066 499.694 954.129 498.966 953.713 498.342C953.609 498.238 953.609 498.134 953.713 498.03L954.337 497.407C954.442 497.303 954.546 497.303 954.65 497.407C955.17 497.927 955.691 498.446 956.524 498.654C957.461 498.966 958.398 498.654 958.71 497.719C959.126 496.471 958.293 495.951 957.148 495.536L956.628 495.328C956.42 495.224 956.42 495.224 956.524 495.12L956.732 494.6C956.836 494.288 956.94 494.184 957.148 494.08L960.063 492.313L956.836 491.169C956.732 491.169 956.628 491.065 956.732 490.962L957.044 490.026C957.044 489.922 957.148 489.818 957.252 489.922L962.041 491.481Z" fill="#4B7CFE"/><path d="M964.954 498.968C963.185 498.344 962.56 496.785 963.185 495.226C963.809 493.458 965.371 492.523 967.245 493.147C969.639 493.978 969.743 496.161 969.015 498.344C967.973 501.255 966.1 503.438 963.497 502.606C962.664 502.295 962.04 501.879 961.623 501.359C961.519 501.255 961.519 501.151 961.727 500.943L962.248 500.423C962.352 500.319 962.456 500.319 962.56 500.423C962.872 500.735 963.393 501.047 963.809 501.151C965.371 501.671 966.204 500.631 966.932 498.968C966.412 499.176 965.579 499.176 964.954 498.968ZM967.349 497.617C967.869 496.057 967.869 494.81 966.724 494.394C965.787 494.082 965.059 494.706 964.746 495.537C964.434 496.473 964.642 497.409 965.683 497.825C966.1 498.032 966.828 498.032 967.245 497.928L967.349 497.617Z" fill="#4B7CFE"/><path d="M969.953 499.593C971.098 496.371 972.868 495.019 975.054 495.747C977.032 496.371 977.657 498.346 976.616 501.36C975.471 504.583 973.701 505.934 971.515 505.207C969.537 504.583 968.912 502.712 969.953 499.593ZM974.95 500.945C975.679 498.658 975.575 497.41 974.534 497.098C973.389 496.682 972.452 497.826 971.619 500.113C970.89 502.4 970.994 503.647 972.035 504.063C973.18 504.375 974.117 503.232 974.95 500.945Z" fill="#4B7CFE"/><path d="M981.509 498.452C981.613 498.348 981.717 498.348 981.926 498.348L983.071 498.763C983.175 498.763 983.279 498.867 983.175 499.075L978.802 503.857L980.989 504.585L981.717 502.506C981.717 502.402 981.821 502.298 981.926 502.402L983.071 502.818C983.175 502.818 983.279 502.922 983.175 503.026L982.446 505.105L983.383 505.417C983.487 505.417 983.591 505.521 983.487 505.625L983.175 506.56C983.175 506.664 983.071 506.768 982.967 506.664L982.03 506.352L981.405 508.327C981.405 508.431 981.301 508.535 981.197 508.431L980.052 508.016C979.948 508.016 979.843 507.912 979.948 507.808L980.572 505.832L976.929 504.585C976.824 504.585 976.72 504.481 976.824 504.377L977.033 503.857C977.137 503.545 977.137 503.441 977.345 503.234L981.509 498.452Z" fill="#4B7CFE"/><path d="M988.692 504.581C989.525 504.893 990.149 505.413 990.462 506.036C990.774 506.66 990.774 507.492 990.462 508.323C989.733 510.299 987.963 510.922 985.985 510.299C985.048 509.987 984.215 509.467 983.799 508.843C983.695 508.739 983.695 508.635 983.799 508.531L984.423 507.908C984.528 507.804 984.632 507.804 984.736 507.908C985.152 508.323 985.777 508.739 986.506 508.947C987.755 509.363 988.588 508.739 988.9 507.804C989.316 506.66 988.796 505.932 987.755 505.517C987.13 505.309 986.61 505.205 985.777 505.205C985.673 505.205 985.569 505.101 985.569 504.997L987.13 500.319C987.13 500.215 987.234 500.111 987.338 500.215L992.023 501.774C992.127 501.774 992.231 501.878 992.127 501.982L991.815 502.918C991.815 503.022 991.711 503.126 991.607 503.022L988.171 501.878L987.338 504.165C987.859 504.269 988.275 504.373 988.692 504.581Z" fill="#4B7CFE"/><path d="M998.269 503.959C998.373 503.959 998.477 504.063 998.373 504.167L995.667 511.963L997.332 512.483C997.436 512.483 997.54 512.587 997.436 512.691L997.124 513.523C997.124 513.627 997.02 513.731 996.916 513.627L991.919 511.859C991.815 511.859 991.711 511.755 991.815 511.651L992.127 510.82C992.127 510.716 992.231 510.612 992.335 510.716L994.105 511.34L996.291 504.998L994.313 505.31C994.105 505.31 994.001 505.31 994.001 505.102L993.897 504.271C993.897 504.063 993.897 503.959 994.105 503.959L996.812 503.543C997.124 503.543 997.332 503.543 997.749 503.647L998.269 503.959Z" fill="#4B7CFE"/><path d="M1004.62 514.977C1004.72 514.977 1004.83 515.081 1004.72 515.289L1004.41 516.225C1004.41 516.329 1004.31 516.433 1004.1 516.329L998.79 514.561C998.582 514.457 998.582 514.457 998.582 514.25L998.79 513.626C999.831 510.611 1004.1 510.819 1004.83 508.948C1005.14 508.116 1004.72 507.492 1003.89 507.285C1003.16 507.077 1002.43 507.077 1001.81 507.285C1001.71 507.285 1001.6 507.285 1001.5 507.077L1001.29 506.245C1001.29 506.037 1001.29 506.037 1001.5 505.933C1002.33 505.621 1003.37 505.621 1004.31 505.933C1005.35 506.245 1005.97 506.765 1006.29 507.492C1006.49 508.012 1006.6 508.74 1006.29 509.468C1005.45 511.755 1001.18 512.066 1000.46 513.626L1004.62 514.977Z" fill="#4B7CFE"/><path d="M946.425 504.062C944.655 503.438 944.031 501.879 944.655 500.319C945.28 498.552 946.842 497.617 948.715 498.24C951.11 499.072 951.214 501.255 950.485 503.438C949.444 506.349 947.57 508.532 944.968 507.7C944.135 507.388 943.51 506.973 943.094 506.453C942.99 506.349 942.99 506.245 943.198 506.037L943.718 505.517C943.822 505.413 943.927 505.413 944.031 505.517C944.343 505.829 944.864 506.141 945.28 506.245C946.842 506.765 947.674 505.725 948.403 504.062C947.883 504.27 947.05 504.27 946.425 504.062ZM948.82 502.71C949.34 501.151 949.34 499.904 948.195 499.488C947.258 499.176 946.529 499.8 946.217 500.631C945.905 501.567 946.113 502.502 947.154 502.918C947.57 503.126 948.299 503.126 948.715 503.022L948.82 502.71Z" fill="#4B7CFE"/><path d="M951.422 504.687C952.567 501.464 954.337 500.113 956.523 500.841C958.501 501.464 959.126 503.439 958.085 506.454C956.939 509.677 955.17 511.028 952.983 510.301C951.005 509.677 950.381 507.702 951.422 504.687ZM956.419 506.038C957.148 503.751 957.043 502.504 956.002 502.192C954.857 501.776 953.92 502.92 953.087 505.207C952.359 507.494 952.463 508.741 953.504 509.157C954.545 509.365 955.586 508.325 956.419 506.038Z" fill="#4B7CFE"/><path d="M962.978 503.436C963.082 503.332 963.186 503.332 963.394 503.332L964.539 503.748C964.644 503.748 964.748 503.852 964.644 504.06L960.271 508.842L962.457 509.569L963.186 507.49C963.186 507.386 963.29 507.282 963.394 507.386L964.539 507.802C964.644 507.802 964.748 507.906 964.644 508.114L963.915 510.193L964.852 510.505C964.956 510.505 965.06 510.609 964.956 510.713L964.644 511.648C964.644 511.752 964.539 511.856 964.435 511.752L963.498 511.441L962.77 513.416C962.77 513.52 962.666 513.624 962.561 513.52L961.416 513.104C961.312 513.104 961.208 513 961.312 512.896L962.041 510.921L958.397 509.673C958.293 509.673 958.189 509.569 958.293 509.465L958.501 508.946C958.605 508.634 958.605 508.53 958.814 508.322L962.978 503.436Z" fill="#4B7CFE"/><path d="M973.596 506.868C973.804 506.972 973.804 506.972 973.7 507.18L973.596 507.596C973.388 508.115 973.18 508.219 972.659 508.635L970.16 510.195C971.618 510.818 972.451 512.066 971.93 513.625C971.306 515.496 969.536 516.016 967.662 515.392C966.621 515.081 965.684 514.353 965.268 513.729C965.163 513.625 965.163 513.521 965.268 513.417L965.892 512.794C965.996 512.69 966.1 512.69 966.205 512.794C966.725 513.313 967.246 513.833 968.078 514.041C969.015 514.353 969.952 514.041 970.265 513.105C970.681 511.858 969.848 511.338 968.703 510.922L968.182 510.714C967.974 510.61 967.974 510.61 968.078 510.506L968.287 509.987C968.391 509.675 968.495 509.571 968.703 509.467L971.618 507.7L968.391 506.556C968.287 506.556 968.183 506.452 968.287 506.348L968.599 505.413C968.599 505.309 968.703 505.205 968.911 505.309L973.596 506.868Z" fill="#4B7CFE"/><path d="M978.074 508.635C978.178 508.531 978.282 508.531 978.49 508.531L979.635 508.947C979.739 508.947 979.843 509.051 979.739 509.259L975.367 514.041L977.553 514.769L978.282 512.689C978.282 512.586 978.386 512.482 978.49 512.586L979.635 513.001C979.739 513.001 979.843 513.105 979.739 513.209L979.011 515.288L979.947 515.6C980.052 515.6 980.156 515.704 980.052 515.808L979.739 516.744C979.739 516.848 979.635 516.952 979.531 516.848L978.594 516.536L977.865 518.511C977.865 518.615 977.761 518.719 977.657 518.615L976.512 518.199C976.408 518.199 976.304 518.095 976.408 517.991L977.137 516.016L973.493 514.769C973.389 514.769 973.285 514.665 973.389 514.561L973.597 514.041C973.701 513.729 973.701 513.625 973.909 513.417L978.074 508.635Z" fill="#4B7CFE"/><path d="M986.089 519.968C986.193 519.968 986.297 520.072 986.193 520.176L985.881 521.111C985.881 521.215 985.777 521.319 985.568 521.215L980.259 519.448C980.051 519.344 980.051 519.344 980.051 519.136L980.259 518.513C981.3 515.498 985.568 515.706 986.297 513.835C986.609 513.003 986.193 512.379 985.36 512.171C984.631 511.963 983.903 511.963 983.278 512.171C983.174 512.171 983.07 512.171 982.966 511.963L982.757 511.132C982.757 510.924 982.758 510.924 982.966 510.82C983.799 510.508 984.84 510.508 985.777 510.82C986.818 511.132 987.442 511.651 987.755 512.379C987.963 512.899 988.067 513.627 987.755 514.354C986.922 516.641 982.653 516.953 981.925 518.513L986.089 519.968Z" fill="#4B7CFE"/><path d="M996.188 514.567C996.396 514.671 996.396 514.671 996.292 514.879L996.188 515.295C995.98 515.815 995.771 515.919 995.251 516.334L992.752 517.894C994.21 518.518 995.043 519.765 994.522 521.324C993.897 523.196 992.128 523.715 990.254 523.092C989.213 522.78 988.276 522.052 987.859 521.428C987.755 521.324 987.755 521.22 987.859 521.116L988.484 520.493C988.588 520.389 988.692 520.389 988.796 520.493C989.317 521.012 989.837 521.532 990.67 521.74C991.607 522.052 992.544 521.74 992.856 520.805C993.273 519.557 992.44 519.037 991.295 518.622L990.774 518.414C990.566 518.31 990.566 518.31 990.67 518.206L990.878 517.686C990.982 517.374 991.087 517.27 991.295 517.166L994.21 515.399L990.982 514.255C990.878 514.255 990.774 514.151 990.878 514.047L991.191 513.112C991.191 513.008 991.295 512.904 991.399 513.008L996.188 514.567Z" fill="#4B7CFE"/><path d="M998.997 522.046C997.228 521.422 996.603 519.863 997.228 518.304C997.852 516.537 999.414 515.601 1001.29 516.225C1003.68 517.056 1003.79 519.239 1003.06 521.422C1002.02 524.333 1000.14 526.516 997.54 525.685C996.707 525.373 996.082 524.957 995.666 524.437C995.562 524.333 995.562 524.229 995.77 524.021L996.291 523.502C996.395 523.398 996.499 523.398 996.603 523.502C996.915 523.813 997.436 524.125 997.852 524.229C999.414 524.749 1000.25 523.709 1000.98 522.046C1000.45 522.254 999.622 522.254 998.997 522.046ZM1001.5 520.695C1002.02 519.135 1002.02 517.888 1000.87 517.472C999.934 517.16 999.206 517.784 998.893 518.616C998.581 519.551 998.789 520.487 999.83 520.903C1000.25 521.111 1000.98 521.111 1001.39 521.007L1001.5 520.695Z" fill="#4B7CFE"/><path d="M947.465 509.363C947.673 509.467 947.673 509.467 947.569 509.674L947.465 510.09C947.257 510.61 947.049 510.714 946.528 511.13L944.03 512.689C945.487 513.313 946.32 514.56 945.799 516.12C945.175 517.991 943.405 518.511 941.531 517.887C940.49 517.575 939.553 516.847 939.137 516.224C939.033 516.12 939.033 516.016 939.137 515.912L939.761 515.288C939.865 515.184 939.969 515.184 940.074 515.288C940.594 515.808 941.115 516.328 941.947 516.536C942.884 516.847 943.821 516.536 944.134 515.6C944.55 514.352 943.717 513.833 942.572 513.417L942.052 513.209C941.843 513.105 941.843 513.105 941.947 513.001L942.156 512.481C942.26 512.169 942.364 512.065 942.572 511.961L945.487 510.194L942.26 509.051C942.156 509.051 942.052 508.947 942.156 508.739L942.468 507.803C942.468 507.699 942.572 507.595 942.676 507.699L947.465 509.363Z" fill="#4B7CFE"/><path d="M955.587 512.068C955.691 512.068 955.795 512.172 955.691 512.276L955.483 512.9C955.379 513.108 955.275 513.316 955.067 513.627L949.445 520.073C949.341 520.177 949.237 520.281 949.029 520.177L947.883 519.761C947.675 519.657 947.675 519.553 947.779 519.449L953.713 512.9L949.757 511.548C949.653 511.548 949.549 511.444 949.653 511.34L949.966 510.405C949.966 510.301 950.07 510.197 950.174 510.301L955.587 512.068Z" fill="#4B7CFE"/><path d="M954.752 519.55C955.169 518.406 956.106 517.783 957.251 517.679C956.73 517.055 956.418 516.119 956.73 515.08C957.251 513.521 958.916 513.001 960.478 513.624C962.04 514.144 962.977 515.392 962.456 516.847C962.144 517.783 961.311 518.303 960.374 518.51C961.103 519.238 961.727 520.278 961.207 521.525C960.582 523.292 958.812 523.708 956.938 523.084C955.377 522.565 954.232 521.213 954.752 519.55ZM959.541 521.109C959.853 520.174 959.021 519.446 958.188 518.718C957.355 518.822 956.626 519.238 956.314 519.966C956.002 520.797 956.522 521.525 957.459 521.837C958.396 522.149 959.333 521.837 959.541 521.109ZM960.894 516.431C961.103 515.808 960.686 515.08 959.958 514.872C959.229 514.664 958.5 514.976 958.292 515.6C958.084 516.327 958.604 516.951 959.229 517.575C959.957 517.367 960.686 517.055 960.894 516.431Z" fill="#4B7CFE"/><path d="M970.057 517.058C970.265 517.162 970.265 517.162 970.161 517.37L970.057 517.786C969.849 518.305 969.641 518.409 969.12 518.825L966.621 520.384C968.079 521.008 968.912 522.256 968.391 523.815C967.767 525.686 965.997 526.206 964.123 525.582C963.082 525.27 962.145 524.543 961.728 523.919C961.624 523.815 961.624 523.711 961.728 523.607L962.353 522.983C962.457 522.879 962.561 522.879 962.665 522.983C963.186 523.503 963.706 524.023 964.539 524.231C965.476 524.543 966.413 524.231 966.726 523.295C967.142 522.048 966.309 521.528 965.164 521.112L964.643 520.904C964.435 520.8 964.435 520.8 964.539 520.696L964.748 520.177C964.852 519.865 964.956 519.761 965.164 519.657L968.079 517.89L964.852 516.746C964.748 516.746 964.643 516.642 964.748 516.434L965.06 515.499C965.06 515.395 965.164 515.291 965.268 515.395L970.057 517.058Z" fill="#4B7CFE"/><path d="M972.972 524.542C971.202 523.918 970.578 522.359 971.202 520.8C971.827 519.033 973.388 518.097 975.262 518.721C977.657 519.552 977.761 521.735 977.032 523.919C975.991 526.829 974.117 529.012 971.515 528.181C970.682 527.869 970.057 527.453 969.641 526.933C969.537 526.829 969.537 526.725 969.745 526.517L970.265 525.998C970.369 525.894 970.473 525.894 970.578 525.998C970.89 526.309 971.41 526.621 971.827 526.725C973.388 527.245 974.221 526.206 974.95 524.542C974.429 524.75 973.597 524.75 972.972 524.542ZM975.471 523.191C975.991 521.631 975.991 520.384 974.846 519.968C973.909 519.656 973.18 520.28 972.868 521.112C972.556 522.047 972.764 522.983 973.805 523.399C974.221 523.607 974.95 523.607 975.366 523.503L975.471 523.191Z" fill="#4B7CFE"/><path d="M977.345 527.249C977.761 526.106 978.698 525.482 979.843 525.378C979.323 524.754 979.011 523.819 979.323 522.779C979.843 521.22 981.509 520.7 983.071 521.324C984.632 521.843 985.569 523.091 985.049 524.546C984.736 525.482 983.903 526.002 982.967 526.21C983.695 526.937 984.32 527.977 983.799 529.224C983.175 530.992 981.405 531.407 979.531 530.784C977.865 530.264 976.72 528.912 977.345 527.249ZM982.134 528.809C982.446 527.873 981.613 527.145 980.78 526.418C979.947 526.521 979.219 526.937 978.906 527.665C978.594 528.497 979.115 529.224 980.052 529.536C980.989 529.848 981.821 529.536 982.134 528.809ZM983.487 524.131C983.695 523.507 983.279 522.779 982.55 522.571C981.821 522.363 981.093 522.675 980.884 523.299C980.676 524.027 981.197 524.65 981.821 525.274C982.55 525.066 983.175 524.754 983.487 524.131Z" fill="#4B7CFE"/><path d="M985.569 528.287C986.61 525.272 988.692 523.193 991.19 524.129C991.919 524.336 992.44 524.752 992.752 525.272C992.856 525.376 992.856 525.48 992.648 525.688L992.127 526.208C992.023 526.312 991.919 526.312 991.815 526.208C991.503 525.896 991.086 525.688 990.774 525.48C989.421 524.96 988.484 526 987.755 527.455C988.38 527.351 989.108 527.351 989.733 527.559C991.399 528.183 992.023 529.742 991.399 531.405C990.774 533.173 989.108 534.212 987.234 533.589C985.048 532.653 984.736 530.678 985.569 528.287ZM989.837 530.886C990.149 529.95 990.045 529.014 989.004 528.703C988.484 528.495 987.859 528.495 987.339 528.599L987.234 529.015C986.714 530.574 986.714 531.925 987.859 532.341C988.692 532.445 989.525 531.821 989.837 530.886Z" fill="#4B7CFE"/><path d="M997.124 526.522C997.228 526.418 997.332 526.418 997.54 526.418L998.685 526.834C998.789 526.834 998.894 526.938 998.789 527.146L994.417 531.928L996.603 532.655L997.332 530.576C997.332 530.472 997.436 530.368 997.644 530.472L998.789 530.888C998.894 530.888 998.998 530.992 998.894 531.096L998.165 533.175L999.102 533.487C999.206 533.487 999.31 533.591 999.206 533.695L998.894 534.63C998.894 534.734 998.789 534.838 998.685 534.734L997.748 534.423L997.124 536.398C997.124 536.502 997.02 536.606 996.916 536.502L995.77 536.086C995.666 536.086 995.562 535.982 995.666 535.878L996.291 533.903L992.647 532.655C992.543 532.655 992.439 532.551 992.543 532.447L992.751 531.928C992.855 531.616 992.855 531.512 993.064 531.304L997.124 526.522Z" fill="#4B7CFE"/><path d="M944.032 519.552C944.24 519.656 944.24 519.656 944.136 519.863L944.032 520.279C943.823 520.799 943.615 520.903 943.095 521.319L940.596 522.878C942.054 523.502 942.886 524.749 942.366 526.309C941.741 528.18 939.971 528.7 938.098 528.076C937.056 527.764 936.12 527.036 935.703 526.413C935.599 526.309 935.599 526.205 935.703 526.101L936.328 525.477C936.432 525.373 936.536 525.373 936.64 525.477C937.161 525.997 937.681 526.517 938.514 526.725C939.451 527.036 940.388 526.725 940.7 525.789C941.117 524.541 940.284 524.022 939.139 523.606L938.618 523.398C938.41 523.294 938.41 523.294 938.514 523.19L938.722 522.67C938.826 522.358 938.93 522.254 939.139 522.151L942.054 520.383L938.826 519.24C938.722 519.24 938.618 519.136 938.722 519.032L939.034 518.096C939.034 517.992 939.139 517.888 939.243 517.992L944.032 519.552Z" fill="#4B7CFE"/><path d="M950.173 521.635C950.278 521.635 950.382 521.739 950.278 521.842L947.571 529.639L949.236 530.159C949.341 530.159 949.445 530.263 949.341 530.367L949.028 531.198C949.028 531.302 948.924 531.406 948.82 531.302L943.823 529.535C943.719 529.535 943.615 529.431 943.719 529.327L944.031 528.496C944.031 528.392 944.135 528.288 944.344 528.392L946.113 529.015L948.3 522.674L946.322 522.986C946.113 522.986 946.009 522.986 946.009 522.778L945.905 521.946C945.905 521.739 945.905 521.635 946.113 521.635L948.82 521.219C949.132 521.219 949.341 521.219 949.757 521.323L950.173 521.635Z" fill="#4B7CFE"/><path d="M959.543 524.857C959.647 524.857 959.751 524.961 959.647 525.065L959.439 525.689C959.335 525.897 959.231 526.105 959.022 526.417L953.401 532.862C953.297 532.966 953.192 533.07 952.984 532.966L951.735 532.55C951.527 532.446 951.527 532.342 951.631 532.238L957.565 525.689L953.609 524.337C953.505 524.337 953.401 524.233 953.505 524.129L953.817 523.194C953.817 523.09 953.921 522.986 954.025 523.09L959.543 524.857Z" fill="#4B7CFE"/><path d="M961.937 532.132C960.167 531.508 959.542 529.949 960.167 528.39C960.792 526.622 962.353 525.687 964.227 526.311C966.622 527.142 966.726 529.325 965.997 531.508C964.956 534.419 963.082 536.602 960.479 535.771C959.647 535.459 959.022 535.043 958.605 534.523C958.501 534.419 958.501 534.315 958.71 534.107L959.23 533.587C959.334 533.484 959.438 533.484 959.542 533.587C959.855 533.899 960.375 534.211 960.792 534.315C962.353 534.835 963.186 533.795 963.915 532.132C963.394 532.34 962.561 532.34 961.937 532.132ZM964.435 530.781C964.956 529.221 964.956 527.974 963.811 527.558C962.874 527.246 962.145 527.87 961.833 528.702C961.52 529.637 961.729 530.573 962.77 530.989C963.186 531.196 963.915 531.197 964.331 531.093L964.435 530.781Z" fill="#4B7CFE"/><path d="M971.098 529.014C971.202 528.91 971.306 528.91 971.514 528.91L972.659 529.326C972.763 529.326 972.867 529.43 972.763 529.638L968.391 534.42L970.577 535.147L971.306 533.068C971.306 532.964 971.41 532.86 971.514 532.964L972.659 533.38C972.763 533.38 972.867 533.484 972.763 533.588L972.035 535.667L972.972 535.979C973.076 535.979 973.18 536.083 973.076 536.187L972.763 537.123C972.763 537.227 972.659 537.331 972.451 537.227L971.514 536.915L970.889 538.89C970.889 538.994 970.785 539.098 970.681 538.994L969.536 538.578C969.432 538.578 969.328 538.474 969.432 538.37L970.057 536.395L966.413 535.147C966.309 535.147 966.205 535.044 966.309 534.94L966.517 534.42C966.621 534.108 966.621 534.004 966.829 533.796L971.098 529.014Z" fill="#4B7CFE"/><path d="M979.114 540.448C979.218 540.448 979.323 540.552 979.218 540.656L978.906 541.592C978.906 541.696 978.802 541.8 978.594 541.696L973.284 539.929C973.076 539.825 973.076 539.825 973.076 539.617L973.284 538.993C974.325 535.978 978.594 536.186 979.322 534.315C979.635 533.483 979.218 532.86 978.386 532.652C977.657 532.444 976.928 532.444 976.303 532.652C976.199 532.652 976.095 532.652 975.991 532.444L975.783 531.612C975.783 531.404 975.783 531.404 975.991 531.3C976.824 530.988 977.865 530.988 978.802 531.3C979.843 531.612 980.468 532.132 980.78 532.86C980.988 533.379 981.092 534.107 980.78 534.835C979.947 537.122 975.679 537.434 974.95 538.993L979.114 540.448Z" fill="#4B7CFE"/><path d="M982.133 538.47C983.174 535.456 985.256 533.377 987.755 534.312C988.483 534.52 989.004 534.936 989.316 535.456C989.42 535.56 989.42 535.664 989.212 535.872L988.692 536.391C988.588 536.495 988.484 536.495 988.379 536.391C988.067 536.079 987.651 535.871 987.338 535.664C985.985 535.144 985.048 536.183 984.319 537.639C984.944 537.535 985.673 537.535 986.297 537.743C987.963 538.366 988.588 539.926 987.963 541.589C987.338 543.356 985.673 544.396 983.799 543.772C981.508 542.837 981.3 540.861 982.133 538.47ZM986.297 541.069C986.61 540.134 986.506 539.198 985.464 538.886C984.944 538.678 984.319 538.678 983.799 538.782L983.695 539.198C983.174 540.757 983.174 542.109 984.319 542.525C985.152 542.629 985.985 542.005 986.297 541.069Z" fill="#4B7CFE"/><path d="M988.9 542.632C989.316 541.489 990.253 540.865 991.398 540.761C990.773 540.137 990.565 539.201 990.877 538.162C991.398 536.603 993.064 536.083 994.625 536.707C996.083 537.226 997.124 538.474 996.603 539.929C996.291 540.865 995.458 541.385 994.521 541.592C995.25 542.32 995.875 543.36 995.354 544.607C994.729 546.374 992.96 546.79 991.086 546.167C989.42 545.647 988.275 544.295 988.9 542.632ZM993.688 544.087C994.001 543.152 993.168 542.424 992.335 541.696C991.502 541.8 990.773 542.216 990.461 542.944C990.149 543.776 990.669 544.503 991.606 544.815C992.543 545.231 993.376 544.919 993.688 544.087ZM994.938 539.513C995.146 538.89 994.729 538.162 994.001 537.954C993.272 537.746 992.543 538.058 992.335 538.682C992.127 539.409 992.647 540.033 993.272 540.657C994.001 540.449 994.729 540.137 994.938 539.513Z" fill="#4B7CFE"/><path d="M937.472 528.909C937.576 528.805 937.68 528.805 937.888 528.805L939.034 529.221C939.138 529.221 939.242 529.324 939.138 529.532L934.765 534.314L936.951 535.042L937.68 532.963C937.68 532.859 937.784 532.755 937.888 532.859L939.034 533.275C939.138 533.275 939.242 533.379 939.138 533.483L938.409 535.562L939.346 535.874C939.45 535.874 939.554 535.978 939.45 536.082L939.138 537.017C939.138 537.121 939.034 537.225 938.929 537.121L937.993 536.809L937.264 538.784C937.264 538.888 937.16 538.992 937.056 538.888L935.91 538.473C935.806 538.473 935.702 538.369 935.806 538.265L936.535 536.29L932.891 535.042C932.787 535.042 932.683 534.938 932.787 534.834L932.995 534.314C933.1 534.002 933.1 533.899 933.308 533.691L937.472 528.909Z" fill="#4B7CFE"/><path d="M943.406 537.226C941.636 536.602 941.011 535.043 941.636 533.483C942.26 531.716 943.822 530.781 945.696 531.404C948.09 532.236 948.194 534.419 947.466 536.602C946.425 539.513 944.551 541.696 941.948 540.864C941.115 540.552 940.491 540.137 940.074 539.617C939.97 539.513 939.97 539.409 940.178 539.201L940.699 538.681C940.803 538.577 940.907 538.577 941.011 538.681C941.324 538.993 941.844 539.305 942.26 539.409C943.822 539.929 944.655 538.889 945.384 537.226C944.863 537.434 944.03 537.434 943.406 537.226ZM945.904 535.874C946.425 534.315 946.425 533.068 945.279 532.652C944.343 532.34 943.614 532.964 943.302 533.795C942.989 534.731 943.197 535.667 944.238 536.082C944.655 536.29 945.384 536.29 945.8 536.186L945.904 535.874Z" fill="#4B7CFE"/><path d="M947.778 539.929C948.194 538.785 949.131 538.162 950.276 538.058C949.756 537.434 949.443 536.498 949.756 535.459C950.276 533.899 951.942 533.38 953.503 534.003C955.065 534.523 956.002 535.771 955.481 537.226C955.169 538.162 954.336 538.681 953.399 538.889C954.128 539.617 954.753 540.657 954.232 541.904C953.607 543.671 951.838 544.087 949.964 543.463C948.402 542.944 947.153 541.592 947.778 539.929ZM952.566 541.488C952.879 540.553 952.046 539.825 951.213 539.097C950.38 539.201 949.651 539.617 949.339 540.345C949.027 541.176 949.547 541.904 950.484 542.216C951.421 542.528 952.254 542.216 952.566 541.488ZM953.92 536.81C954.128 536.186 953.712 535.459 952.983 535.251C952.254 535.043 951.525 535.355 951.317 535.979C951.109 536.706 951.629 537.33 952.254 537.954C952.983 537.746 953.712 537.434 953.92 536.81Z" fill="#4B7CFE"/><path d="M959.647 540.241C960.48 540.553 961.104 541.073 961.417 541.697C961.729 542.32 961.729 543.152 961.417 543.984C960.688 545.959 958.918 546.583 956.94 545.959C956.003 545.647 955.17 545.127 954.754 544.503C954.65 544.399 954.65 544.296 954.754 544.192L955.378 543.568C955.483 543.464 955.587 543.464 955.691 543.568C956.107 543.984 956.732 544.399 957.461 544.607C958.71 545.023 959.543 544.399 959.855 543.464C960.271 542.32 959.751 541.593 958.71 541.177C958.085 540.969 957.565 540.865 956.732 540.865C956.628 540.865 956.524 540.761 956.524 540.657L958.085 535.979C958.085 535.875 958.189 535.771 958.293 535.875L962.978 537.434C963.082 537.434 963.186 537.538 963.082 537.642L962.77 538.578C962.77 538.682 962.666 538.786 962.458 538.682L959.022 537.538L958.189 539.825C958.814 539.929 959.23 540.033 959.647 540.241Z" fill="#4B7CFE"/><path d="M971.099 540.238C971.203 540.238 971.307 540.342 971.203 540.446L970.995 541.07C970.891 541.278 970.787 541.486 970.578 541.798L964.957 548.243C964.853 548.347 964.749 548.451 964.54 548.347L963.395 547.931C963.187 547.827 963.187 547.723 963.291 547.619L969.225 541.07L965.269 539.719C965.165 539.719 965.061 539.615 965.165 539.407L965.477 538.471C965.477 538.367 965.581 538.263 965.685 538.367L971.099 540.238Z" fill="#4B7CFE"/><path d="M975.053 541.799C975.158 541.695 975.262 541.695 975.47 541.695L976.615 542.111C976.719 542.111 976.823 542.215 976.719 542.423L972.347 547.205L974.533 547.933L975.262 545.854C975.262 545.75 975.366 545.646 975.574 545.75L976.719 546.165C976.823 546.165 976.927 546.269 976.823 546.373L976.095 548.452L977.031 548.764C977.136 548.764 977.24 548.868 977.136 548.972L976.823 549.908C976.823 550.012 976.719 550.116 976.615 550.012L975.678 549.7L974.949 551.675C974.949 551.779 974.845 551.883 974.741 551.779L973.596 551.363C973.492 551.363 973.388 551.259 973.492 551.155L974.221 549.18L970.577 547.933C970.473 547.933 970.369 547.829 970.473 547.725L970.681 547.205C970.785 546.893 970.785 546.789 970.993 546.581L975.053 541.799Z" fill="#4B7CFE"/><path d="M984.318 544.706C984.422 544.706 984.526 544.81 984.422 544.914L981.715 552.711L983.381 553.231C983.485 553.231 983.589 553.335 983.485 553.543L983.173 554.374C983.173 554.478 983.069 554.582 982.965 554.478L977.968 552.711C977.863 552.711 977.759 552.607 977.863 552.503L978.176 551.671C978.176 551.567 978.28 551.464 978.384 551.567L980.154 552.191L982.34 545.85L980.362 546.162C980.154 546.162 980.05 546.162 980.05 545.954L979.946 545.122C979.946 544.914 979.946 544.81 980.154 544.81L982.861 544.395C983.173 544.395 983.381 544.395 983.797 544.498L984.318 544.706Z" fill="#4B7CFE"/><path d="M993.168 547.723C993.376 547.827 993.376 547.827 993.272 548.035L993.168 548.451C992.96 548.971 992.752 549.075 992.231 549.491L989.733 551.05C991.19 551.674 992.023 552.921 991.503 554.481C990.878 556.352 989.108 556.872 987.234 556.248C986.193 555.936 985.256 555.208 984.84 554.585C984.736 554.481 984.736 554.377 984.84 554.273L985.464 553.649C985.569 553.545 985.673 553.545 985.777 553.649C986.297 554.169 986.818 554.689 987.651 554.896C988.588 555.208 989.525 554.896 989.837 553.961C990.253 552.713 989.42 552.194 988.275 551.778L987.755 551.57C987.547 551.466 987.547 551.466 987.651 551.362L987.859 550.842C987.963 550.53 988.067 550.426 988.275 550.322L991.19 548.555L987.963 547.412C987.859 547.412 987.755 547.308 987.859 547.204L988.171 546.268C988.171 546.164 988.275 546.06 988.379 546.164L993.168 547.723Z" fill="#4B7CFE"/><path d="M989.732 568.932C990.46 567.893 991.606 567.477 992.855 567.685C992.438 566.853 992.334 565.813 992.959 564.878C993.896 563.422 995.77 563.318 997.227 564.254C998.685 565.19 999.309 566.749 998.477 568.204C997.852 569.14 996.811 569.452 995.874 569.348C996.499 570.284 996.811 571.531 995.978 572.778C994.833 574.442 992.855 574.442 991.085 573.298C989.523 572.259 988.691 570.595 989.732 568.932ZM994.312 571.843C994.833 571.011 994.104 569.972 993.584 569.036C992.647 568.932 991.814 569.244 991.293 569.868C990.773 570.699 991.189 571.635 991.918 572.155C992.855 572.675 993.896 572.571 994.312 571.843ZM996.915 567.373C997.331 566.749 997.123 565.917 996.394 565.502C995.77 565.086 994.833 565.19 994.52 565.813C994.104 566.541 994.52 567.373 995.041 568.1C995.77 568.1 996.603 567.996 996.915 567.373Z" fill="#4B7CFE"/><path d="M980.156 588.785C980.677 589.617 980.885 590.449 980.677 591.28C980.468 592.008 979.948 592.736 979.219 593.255C977.241 594.503 975.263 593.775 974.118 591.8C973.597 590.864 973.285 589.929 973.285 589.097C973.285 588.889 973.389 588.889 973.493 588.785L974.43 588.681C974.639 588.681 974.638 588.681 974.743 588.889C974.847 589.617 975.055 590.345 975.471 590.968C976.2 592.112 977.345 592.216 978.282 591.592C979.427 590.864 979.531 589.929 978.803 588.889C978.386 588.266 977.97 587.85 977.345 587.226C977.241 587.122 977.241 587.018 977.345 586.914L981.822 584.107C981.926 584.003 982.03 584.003 982.134 584.211L984.945 588.785C985.049 588.889 985.049 588.993 984.841 589.097L983.904 589.721C983.8 589.825 983.696 589.825 983.592 589.617L981.509 586.29L979.219 587.642C979.636 587.954 979.844 588.37 980.156 588.785Z" fill="#4B7CFE"/><path d="M985.256 605.73C985.464 605.73 985.464 605.73 985.568 605.938V606.458C985.568 606.978 985.464 607.29 985.048 607.914L983.174 610.408C984.944 610.512 986.297 611.344 986.401 613.111C986.505 615.294 984.944 616.542 982.862 616.646C981.612 616.75 980.467 616.438 979.843 615.918C979.738 615.814 979.634 615.71 979.738 615.606L980.051 614.775C980.155 614.567 980.259 614.567 980.363 614.671C981.092 614.983 981.821 615.294 982.757 615.19C983.903 615.086 984.631 614.463 984.631 613.423C984.527 612.072 983.59 611.76 982.133 611.864H981.508C981.3 611.864 981.3 611.864 981.3 611.656V611.032C981.3 610.72 981.3 610.616 981.508 610.408L983.694 607.394L980.051 607.602C979.843 607.602 979.843 607.498 979.843 607.394L979.738 606.354C979.738 606.25 979.738 606.146 979.947 606.146L985.256 605.73Z" fill="#4B7CFE"/><path d="M971.721 545.854C970.888 543.359 968.182 541.903 965.683 542.735L938.199 551.259L941.114 560.407L968.702 551.779C971.096 551.051 972.554 548.349 971.721 545.854Z" fill="#9E403A"/><path d="M797.554 995.252H762.054L765.281 960.427L737.798 755.842C735.403 737.754 749.457 721.641 767.78 721.641C784.749 721.641 798.387 735.571 797.97 752.515L793.077 960.115L797.554 995.252Z" fill="#7A2F37"/><path d="M795.473 978.309H763.616L761.014 1004.92L764.762 1019.99H795.056L798.7 1004.92L795.473 978.309Z" fill="#E73245"/><path d="M795.992 982.466L787.039 994.005C783.396 998.787 776.212 998.787 772.465 994.109L763.199 982.466L764.448 969.367H794.327L795.992 982.466Z" fill="#7A2F37"/><path d="M877.091 946.706L917.067 970.096L932.059 956.374L896.35 921.029L818.48 711.87C812.754 696.485 795.368 688.792 780.065 694.926C763.928 701.371 756.953 720.395 765.074 735.78L877.091 946.706Z" fill="#9E3F39"/><path d="M915.506 977.268C918.525 979.244 922.273 979.659 925.604 978.308L962.041 963.754C963.811 963.027 964.644 961.051 963.915 959.284C963.394 958.037 962.249 957.205 960.896 957.101L931.33 955.75C923.626 961.883 912.799 962.299 904.679 956.581L869.387 931.84L867.513 938.805C865.431 946.706 868.763 953.255 872.094 961.571L885.315 994.525L894.372 990.887L883.129 962.923C882.609 961.571 883.233 960.116 884.587 959.596C885.315 959.284 886.148 959.388 886.877 959.804L915.506 977.268Z" fill="#E73245"/><path d="M783.396 503.335C818.583 503.335 847.109 474.851 847.109 439.715C847.109 404.578 818.583 376.094 783.396 376.094C748.209 376.094 719.684 404.578 719.684 439.715C719.684 474.851 748.209 503.335 783.396 503.335Z" fill="#291028"/><path d="M811.919 481.709C816.634 481.709 820.456 477.892 820.456 473.184C820.456 468.477 816.634 464.66 811.919 464.66C807.205 464.66 803.383 468.477 803.383 473.184C803.383 477.892 807.205 481.709 811.919 481.709Z" fill="#9E403A"/><path d="M754.351 481.709C759.066 481.709 762.888 477.892 762.888 473.184C762.888 468.477 759.066 464.66 754.351 464.66C749.636 464.66 745.814 468.477 745.814 473.184C745.814 477.892 749.636 481.709 754.351 481.709Z" fill="#9E403A"/><path d="M754.559 477.039C758.827 477.039 762.159 480.47 762.159 484.628V492.217C762.159 496.479 758.723 499.805 754.559 499.805C750.291 499.805 746.959 496.375 746.959 492.217V484.628C746.855 480.47 750.291 477.039 754.559 477.039Z" fill="#FF6200"/><path d="M810.463 477.141C814.732 477.141 818.063 480.571 818.063 484.729V492.318C818.063 496.58 814.628 499.907 810.463 499.907C806.195 499.907 802.864 496.476 802.864 492.318V484.729C802.76 480.571 806.195 477.141 810.463 477.141Z" fill="#FF6200"/><path d="M755.078 485.766V446.679C755.078 434.308 765.072 424.328 777.461 424.328H788.288C800.676 424.328 810.67 434.308 810.67 446.679V485.766C810.67 498.137 800.676 508.116 788.288 508.116H777.461C765.072 508.116 755.078 498.137 755.078 485.766Z" fill="#9E403A"/><path d="M784.748 482.755C785.165 482.547 785.477 482.339 785.789 481.923C785.997 481.715 786.518 481.195 787.247 481.195C787.871 481.091 788.496 481.507 789.225 482.131L790.058 481.195C789.121 480.26 788.08 479.844 787.143 479.948C785.893 479.948 785.061 480.78 784.748 481.091C784.54 481.299 784.228 481.507 784.02 481.611C783.499 481.923 782.77 482.027 782.041 481.819C781.313 481.715 780.584 481.299 779.855 480.676C779.127 480.052 778.398 479.74 777.565 479.844C776.107 479.948 775.066 481.299 775.066 481.299L776.003 482.027C776.003 482.027 776.732 481.091 777.669 480.987C778.085 480.987 778.502 481.091 779.022 481.507C779.855 482.339 780.792 482.755 781.729 482.963C782.041 483.067 782.458 483.067 782.77 483.067C783.603 483.274 784.228 483.067 784.748 482.755Z" fill="#171111"/><path d="M775.588 471.315C775.588 471.315 773.506 466.949 769.654 465.598C765.802 464.246 761.43 466.429 761.43 466.429C761.43 466.429 763.199 469.236 767.051 470.588C771.007 471.939 775.588 471.315 775.588 471.315Z" fill="white"/><path d="M760.389 464.666C760.701 465.186 761.326 466.225 761.638 466.849C762.367 466.433 765.177 465.186 768.613 466.225C767.676 466.849 767.051 467.888 767.051 469.032C767.051 469.656 767.26 470.279 767.572 470.799C769.342 471.319 771.216 471.527 772.673 471.527C773.298 471.007 773.714 470.175 773.714 469.344C774.026 469.656 774.339 469.968 774.651 470.383C774.963 470.799 775.068 471.007 775.484 471.423C774.651 464.354 765.802 461.339 760.389 464.666Z" fill="#231F20"/><path d="M790.059 470.279C789.747 470.695 789.643 470.903 789.227 471.318C789.227 471.318 793.807 471.942 797.659 470.591C800.782 469.551 802.448 467.576 803.073 466.744C801.823 466.017 795.681 463.626 790.059 470.279Z" fill="white"/><path d="M795.161 465.598C791.309 466.949 789.227 471.211 789.227 471.315C789.747 470.899 789.747 470.691 790.059 470.276C795.681 463.622 801.823 466.013 803.073 466.741C803.281 466.533 803.281 466.429 803.281 466.429C803.281 466.429 799.012 464.246 795.161 465.598Z" fill="white"/><path d="M789.227 471.318C789.747 470.902 789.747 470.694 790.059 470.278C795.681 463.625 801.823 466.016 803.073 466.744C803.385 466.224 804.01 465.185 804.322 464.561C799.012 461.338 790.268 464.353 789.227 471.318Z" fill="#231F20"/><path d="M799.324 465.602C797.45 465.602 795.992 467.161 795.992 468.928C795.992 469.656 796.2 470.28 796.617 470.903C797.033 470.799 797.346 470.695 797.762 470.591C800.052 469.76 801.51 468.512 802.447 467.577C801.822 466.433 800.677 465.602 799.324 465.602Z" fill="#231F20"/><path d="M783.084 489.513C783.084 488.057 780.169 488.161 780.169 488.161H773.506C773.506 487.953 777.566 494.399 783.188 494.399C788.705 494.399 792.661 488.161 792.661 488.161H785.998C785.998 488.161 782.979 488.265 783.084 489.513Z" fill="#E73245"/><path d="M759.348 459.987L776.733 458.844V462.378H759.348V459.987Z" fill="#291028"/><path d="M805.05 453.538L787.664 452.395V455.929H805.05V453.538Z" fill="#291028"/><path d="M756.432 457.179C756.953 445.744 766.322 436.699 777.774 436.699H781.314V430.046H784.437V436.699H787.976C799.428 436.699 808.693 445.744 809.318 457.179H813.482V444.808C813.482 431.917 802.967 421.418 790.058 421.418H775.588C762.679 421.418 752.164 431.917 752.164 444.808V457.179H756.432Z" fill="#291028"/><path d="M756.433 456.867H754.768V477.035H756.433V456.867Z" fill="#291028"/><path d="M810.984 456.973H809.318V477.14H810.984V456.973Z" fill="#291028"/><path d="M685.12 737.858L657.428 726.527C655.971 725.904 655.346 724.344 655.867 722.889C656.491 721.433 658.053 720.81 659.511 721.329L687.203 732.661C688.66 733.284 689.285 734.844 688.764 736.299C688.14 737.754 686.474 738.378 685.12 737.858Z" fill="#FF6200"/><path d="M676.063 627.98C680.123 628.812 683.975 626.317 684.912 622.263L686.162 616.441C686.994 612.387 684.496 608.54 680.436 607.605C676.376 606.773 672.524 609.268 671.587 613.322L670.338 619.144C669.505 623.094 672.003 627.045 676.063 627.98Z" fill="#E73245"/><path d="M675.75 653.761C672.21 653.033 669.92 649.499 670.649 645.964L676.375 618.832L689.18 621.535L683.454 648.667C682.829 652.202 679.29 654.489 675.75 653.761Z" fill="#E73245"/><path d="M682.414 612.179L695.947 538.578L769.238 567.478L734.779 630.683C728.636 641.91 715.727 647.628 703.339 644.509C688.868 640.974 679.707 626.733 682.414 612.179Z" fill="#E73245"/></svg>