<?xml version="1.0" encoding="utf-8"?><!--Generator: Adobe Illustrator 27.8.0, SVG Export Plug-In . SVG Version: 6.00 Build 0)--><svg version="1.1" xmlns="http://www.w3.org/2000/svg" xmlns:xlink="http://www.w3.org/1999/xlink" x="0px" y="0px" viewBox="0 0 1200 840" style="enable-background:new 0 0 1200 840;" xml:space="preserve"><style type="text/css">.st0{fill:#D0DEF2;}
	.st1{fill:#8DA8DC;}
	.st2{fill:#B0C2E4;}
	.st3{fill:#006931;}
	.st4{fill:#FBB03B;}
	.st5{fill:#E73245;}
	.st6{fill:#F5B091;}
	.st7{fill:#FFC6AD;}
	.st8{fill:#232144;}
	.st9{fill:#FF6200;}
	.st10{fill:#FAA426;}
	.st11{fill:#F7E5CD;}
	.st12{fill:#E6E3DA;}
	.st13{fill:#010101;}
	.st14{fill:#FFFFFF;}</style><g id="machine"><rect x="273.65" y="458.96" class="st0" width="89.73" height="365"/><path class="st0" d="M1092.15,823.95H837.07V52.48c0-20.17,16.35-36.52,36.52-36.52h182.04c20.17,0,36.52,16.35,36.52,36.52V823.95
		z"/><path class="st1" d="M1032.55,598.75H896.67V175.39c0-14.89,12.07-26.97,26.97-26.97h81.94c14.89,0,26.97,12.07,26.97,26.97V598.75
		z"/><path class="st0" d="M365.54,541.46h545.39c46.28,0,83.8-37.52,83.8-83.8v0c0-46.28-37.52-83.8-83.8-83.8H365.54
		c-46.28,0-83.8,37.52-83.8,83.8v0C281.75,503.95,319.26,541.46,365.54,541.46z"/><path class="st2" d="M910.93,549.56H365.54c-50.67,0-91.89-41.22-91.89-91.89c0-50.67,41.22-91.89,91.89-91.89h545.39
		c50.67,0,91.89,41.22,91.89,91.89C1002.83,508.34,961.6,549.56,910.93,549.56z M365.54,381.97c-41.74,0-75.7,33.96-75.7,75.7
		c0,41.74,33.96,75.7,75.7,75.7h545.39c41.74,0,75.7-33.96,75.7-75.7c0-41.74-33.96-75.7-75.7-75.7H365.54z"/><circle class="st2" cx="904.33" cy="457.67" r="63.58"/><circle class="st2" cx="370.92" cy="457.67" r="63.58"/><circle class="st3" cx="913.56" cy="114.62" r="13.56"/><circle class="st4" cx="964.61" cy="114.62" r="13.56"/><circle class="st5" cx="1018.99" cy="114.62" r="13.56"/></g><g id="objects"><path class="st1" d="M525.71,326.82h-22.5l-11.25,19.49l11.25,19.49h22.5l11.25-19.49L525.71,326.82z M520.62,356.98H508.3
		l-6.16-10.67l6.16-10.67h12.32l6.16,10.67L520.62,356.98z"/><path class="st1" d="M596.12,326.82h-22.5l-11.25,19.49l11.25,19.49h22.5l11.25-19.49L596.12,326.82z M591.03,356.98h-12.32
		l-6.16-10.67l6.16-10.67h12.32l6.16,10.67L591.03,356.98z"/><path class="st1" d="M666.53,326.82h-22.5l-11.25,19.49l11.25,19.49h22.5l11.25-19.49L666.53,326.82z M661.44,356.98h-12.32
		l-6.16-10.67l6.16-10.67h12.32l6.16,10.67L661.44,356.98z"/><path class="st1" d="M736.94,326.82h-22.5l-11.25,19.49l11.25,19.49h22.5l11.25-19.49L736.94,326.82z M731.85,356.98h-12.32
		l-6.16-10.67l6.16-10.67h12.32l6.16,10.67L731.85,356.98z"/><path class="st1" d="M807.35,326.82h-22.5l-11.25,19.49l11.25,19.49h22.5l11.25-19.49L807.35,326.82z M802.26,356.98h-12.32
		l-6.16-10.67l6.16-10.67h12.32l6.16,10.67L802.26,356.98z"/><path class="st1" d="M384.89,326.82h-22.5l-11.25,19.49l11.25,19.49h22.5l11.25-19.49L384.89,326.82z M379.8,356.98h-12.32
		l-6.16-10.67l6.16-10.67h12.32l6.16,10.67L379.8,356.98z"/><path class="st1" d="M455.3,326.82h-22.5l-11.25,19.49l11.25,19.49h22.5l11.25-19.49L455.3,326.82z M450.21,356.98h-12.32
		l-6.16-10.67l6.16-10.67h12.32l6.16,10.67L450.21,356.98z"/><path class="st1" d="M877.76,326.82h-22.5l-11.25,19.49l11.25,19.49h22.5l11.25-19.49L877.76,326.82z M872.67,356.98h-12.32
		l-6.16-10.67l6.16-10.67h12.32l6.16,10.67L872.67,356.98z"/></g><g id="people"><polygon class="st6" points="358.49,211.18 380.67,261.95 331.5,235.35 	"/><polygon class="st7" points="139.33,209.46 186.53,234.87 148.2,294.66 112.14,276.27 	"/><polygon class="st8" points="172.6,783.85 160.98,810.53 160.98,823.95 221.62,823.95 221.62,810.53 222.08,783.72 	"/><polygon class="st8" points="323.33,783.85 273.85,783.72 274.31,810.53 274.31,823.95 334.96,823.95 334.96,810.53 	"/><rect x="215.86" y="116.1" class="st9" width="62.56" height="44.5"/><polygon class="st10" points="238.93,791.8 248.26,345.98 176.45,353.93 161.31,791.8 	"/><polygon class="st10" points="257,791.8 247.67,345.98 319.48,353.93 334.62,791.8 	"/><path class="st11" d="M135.97,212.44c0,0,16.39-40.33,39.57-40.33c15.88,0,29.64,10.67,30.83,26.51
		c1.19,15.83-32.41,43.89-32.41,43.89L135.97,212.44z"/><path class="st11" d="M361.66,212.44c0,0-16.39-40.33-39.57-40.33c-15.88,0-29.64,10.67-30.83,26.51
		c-1.19,15.83,32.41,43.89,32.41,43.89L361.66,212.44z"/><path class="st11" d="M175.52,310.46l-3.36-137.84c0,0,57.25-17.26,75.87-17.26c16.96,0,77.25,17.46,77.25,17.46l-4.75,137.64
		H175.52z"/><path class="st10" d="M326.61,397.76l8.01,394.05l-83.39-394.05h-6.46L161.31,791.8l7.61-394.05l2.35-225.32l11.55-2.8v49.48
		l134.85-0.03v-48.53l11.91,2.75L326.61,397.76z"/><path class="st4" d="M275.71,312.68h-49.72c-10.43,0-18.89-8.46-18.89-18.89v-41.45h87.49v41.45
		C294.6,304.22,286.14,312.68,275.71,312.68z"/><path class="st6" d="M270.55,171.76v-36.54l-46.83-0.13v36.67c0,9.51,7.71,17.22,17.23,17.22h12.36
		C262.84,188.98,270.55,181.27,270.55,171.76z"/><path class="st7" d="M116.31,296.97l65.15,70.54l3.63-43.4l-54.71-92.67L116.31,296.97z"/><polygon class="st8" points="262.14,178.35 235.85,178.35 228.39,178.35 235.85,241.02 262.14,241.02 269.59,178.35 	"/><polygon class="st12" points="267.77,174.33 267.77,167.85 230.21,167.85 230.21,174.33 225.26,174.33 225.26,180.81 
		272.73,180.81 272.73,174.33 	"/><path class="st7" d="M273.08,197.97c0-2.81-2.14-5.15-4.94-5.4l-0.34-0.03l-0.75,6.85l-28.95-1.94v-0.01l-0.88-0.05l0,0l0,0
		l-2.94-0.16c-3.16-0.18-5.87,2.24-6.05,5.41c-0.1,1.83,0.66,3.5,1.94,4.62c-1.85,0.86-3.18,2.69-3.31,4.88l0,0
		c-0.14,2.43,1.27,4.59,3.36,5.54c-1.23,0.98-2.05,2.46-2.15,4.15c-0.12,2.07,0.89,3.94,2.48,5.04c-0.21,0.55-0.35,1.14-0.38,1.76
		c-0.17,3.07,2.1,5.7,5.13,6.02l-0.01,0.21l30.17,0.65l80.64,53.03c11.26,7.4,26.45,3.66,32.97-8.12
		c6.44-11.69,1.67-26.39-10.43-32.07l-95.56-44.9V197.97z"/><ellipse class="st7" cx="215.91" cy="116.53" rx="9.48" ry="9.47"/><ellipse class="st7" cx="278.36" cy="116.53" rx="9.48" ry="9.47"/><path class="st7" d="M278.47,130.61V88.5c0-14.25-11.55-25.79-25.79-25.79H241.6c-14.25,0-25.79,11.55-25.79,25.79v42.09
		c0,14.25,11.55,25.79,25.79,25.79h11.07C266.92,156.4,278.47,144.85,278.47,130.61z"/><path class="st13" d="M246.31,125.67c-1.46,0-2.62-0.72-3.64-1.36c-1.68-1.05-2.69-1.68-4.71,0.34l-1.31-1.31
		c3.07-3.06,5.25-1.7,7.01-0.6c0.89,0.55,1.72,1.08,2.65,1.08c0.95,0,1.74-0.48,2.58-0.99c1.67-1.02,3.74-2.29,7.18,0.56l-1.19,1.43
		c-2.42-2-3.45-1.37-5.02-0.41C248.89,125,247.79,125.67,246.31,125.67z"/><path d="M251.52,140.1c-2.72,0-4.9-0.91-4.94-0.93l0.69-1.62c0.32,0.14,7.89,3.26,11.38-3.69l1.57,0.79
		C258.03,139.04,254.46,140.1,251.52,140.1z"/><path class="st9" d="M251.53,103.19v-0.99c0-2.62,2.12-4.74,4.74-4.74h11.79c2.6,0,4.7,2.1,4.7,4.7v0.99
		c0,0.02-0.02,0.04-0.04,0.04H251.53z"/><path class="st9" d="M242.51,103.19v-0.99c0-2.62-2.12-4.74-4.74-4.74h-11.79c-2.6,0-4.7,2.1-4.7,4.7v0.99
		c0,0.02,0.02,0.04,0.04,0.04H242.51z"/><path class="st14" d="M254.68,111.48c0.38,1.89,3.8,2.8,7.63,2.04c3.83-0.77,6.63-2.92,6.24-4.81c-0.38-1.89-3.8-2.8-7.63-2.04
		C257.09,107.43,254.29,109.59,254.68,111.48"/><path d="M258.1,110.09c0,1.93,1.57,3.49,3.51,3.49s3.51-1.56,3.51-3.49c0-1.93-1.57-3.49-3.51-3.49
		C259.67,106.6,258.1,108.16,258.1,110.09"/><path class="st14" d="M239.02,111.48c0.39-1.89-2.41-4.05-6.24-4.81c-3.83-0.76-7.25,0.15-7.63,2.04
		c-0.39,1.89,2.41,4.04,6.24,4.81C235.22,114.28,238.64,113.37,239.02,111.48"/><path d="M235.6,110.09c0-1.93-1.57-3.49-3.51-3.49c-1.94,0-3.51,1.56-3.51,3.49c0,1.93,1.57,3.49,3.51,3.49
		C234.03,113.58,235.6,112.02,235.6,110.09"/><path class="st9" d="M268.6,61.19h-43.41c-6.31,0-11.43,5.12-11.43,11.43v21.09h66.27V72.62C280.02,66.31,274.91,61.19,268.6,61.19
		z"/><rect x="236.33" y="152.5" class="st9" width="20" height="7.21"/><circle class="st7" cx="130.29" cy="283.45" r="19.51"/></g></svg>