<svg viewBox="0 0 1600 1200" fill="none" xmlns="http://www.w3.org/2000/svg"><path d="M1161.45 1012.44H377V1020H1161.45V1012.44Z" fill="#E5F0FF"/><path d="M819.631 400.086H718.721C709.844 400.086 702.648 407.277 702.648 416.148V457.888C702.648 466.759 709.844 473.95 718.721 473.95H819.631C828.508 473.95 835.704 466.759 835.704 457.888V416.148C835.704 407.277 828.508 400.086 819.631 400.086Z" fill="#B0C2E4"/><path d="M849.062 485.84H689.291C675.887 485.84 665.021 496.699 665.021 510.094V753.081C665.021 766.476 675.887 777.335 689.291 777.335H849.062C862.466 777.335 873.332 766.476 873.332 753.081V510.094C873.332 496.699 862.466 485.84 849.062 485.84Z" fill="#8DA8DC"/><path d="M776.45 772.398H762.322V900.384H776.45V772.398Z" fill="#B0C2E4"/><path d="M687.107 1000.28L676.714 990.739L769.437 889.887L860.152 990.791L849.645 1000.23L769.322 910.876L687.107 1000.28Z" fill="#B0C2E4"/><path d="M855.898 1013.16C865.47 1013.16 873.23 1005.41 873.23 995.843C873.23 986.278 865.47 978.523 855.898 978.523C846.326 978.523 838.566 986.278 838.566 995.843C838.566 1005.41 846.326 1013.16 855.898 1013.16Z" fill="#B0C2E4"/><path d="M682.249 1013.16C691.821 1013.16 699.58 1005.41 699.58 995.843C699.58 986.278 691.821 978.523 682.249 978.523C672.677 978.523 664.917 986.278 664.917 995.843C664.917 1005.41 672.677 1013.16 682.249 1013.16Z" fill="#B0C2E4"/><path d="M863.741 752.793H674.612C663.776 752.793 654.992 761.571 654.992 772.4C654.992 783.229 663.776 792.007 674.612 792.007H863.741C874.577 792.007 883.361 783.229 883.361 772.4C883.361 761.571 874.577 752.793 863.741 752.793Z" fill="#B0C2E4"/><path d="M761.278 378.201C760.945 374.843 761.06 371.444 761.871 368.169C765.408 353.843 779.213 343.77 794.766 343.77C812.836 343.77 827.473 358.407 827.473 376.455C827.473 376.455 825.361 402.819 851.744 407.04C851.744 407.04 832.394 432.386 813.751 410.2C791.593 383.836 770.953 404.638 770.953 404.638L762.048 385.946L761.268 378.201H761.278Z" fill="#76341E"/><path d="M919.782 616.239L875.403 525.18C870.492 513.703 859.09 505.656 845.806 505.656H692.079C678.794 505.656 667.392 513.703 662.482 525.18L618.102 616.239C609.447 634.63 622.877 655.765 643.205 655.765C644.089 655.765 644.963 655.713 645.827 655.63H678.076V728.329C678.076 737.135 685.213 744.267 694.024 744.267H843.933C852.745 744.267 859.881 737.135 859.881 728.329V655.63H892.048C892.911 655.713 893.785 655.765 894.669 655.765C914.997 655.765 928.427 634.63 919.772 616.239H919.782Z" fill="#891229"/><path d="M867.581 652.106L880.033 652.314C893.568 652.688 904.845 642.032 905.219 628.507C905.51 617.934 899.071 608.744 889.781 605.053C886.275 603.66 882.447 603.245 878.681 603.577L860.018 605.241L867.581 652.106Z" fill="#FFA28F"/><path d="M768.396 560.433L767.626 559.611C727.897 517.559 727.595 452.282 727.606 451.628H729.718C729.718 452.272 730.019 515.875 768.375 557.324C774.128 550.733 810.727 506.55 808.656 451.669L810.768 451.586C813.036 511.738 769.603 559.133 769.166 559.601L768.396 560.422V560.433Z" fill="#E73245"/><path d="M806.878 458.737C812.853 458.737 817.697 453.896 817.697 447.925C817.697 441.954 812.853 437.113 806.878 437.113C800.903 437.113 796.059 441.954 796.059 447.925C796.059 453.896 800.903 458.737 806.878 458.737Z" fill="#FFD4C2"/><path d="M779.994 1012.43H851.016V1001.09H779.994V1012.43Z" fill="#891229"/><path d="M842.216 939.34L841.977 992.381H790.638L788.807 939.34H842.216Z" fill="#FFA28F"/><path d="M780.006 1001.1C780.006 986.123 795.902 973.98 815.522 973.98C835.132 973.98 851.038 986.123 851.038 1001.1H780.016H780.006Z" fill="#E6E3DA"/><path d="M757.888 1001.1H686.866V1012.44H757.888V1001.1Z" fill="#891229"/><path d="M695.678 939.34L695.917 992.381H747.267L749.087 939.34H695.678Z" fill="#FFA28F"/><path d="M757.899 1001.1C757.899 986.123 742.003 973.98 722.382 973.98C702.773 973.98 686.866 986.123 686.866 1001.1H757.888H757.899Z" fill="#E6E3DA"/><path d="M852.184 716.736L851.33 959.869H781.266L775.253 717.557C774.712 695.954 792.095 678.156 813.713 678.156C835.008 678.156 852.256 695.455 852.184 716.736Z" fill="#E73245"/><path d="M686.575 713.784L687.439 959.869H757.504L763.59 714.542C764.089 694.592 748.037 678.156 728.073 678.156H722.102C702.43 678.156 686.503 694.125 686.575 713.784Z" fill="#E73245"/><path d="M733.463 458.71C739.438 458.71 744.282 453.869 744.282 447.898C744.282 441.927 739.438 437.086 733.463 437.086C727.488 437.086 722.644 441.927 722.644 447.898C722.644 453.869 727.488 458.71 733.463 458.71Z" fill="#FFD4C2"/><path d="M742.409 508.599V473.949L795.871 474.032V508.61C795.871 523.362 783.907 535.317 769.145 535.317C754.383 535.317 742.42 523.362 742.42 508.61L742.409 508.599Z" fill="#F5836D"/><path d="M776.012 390.52H762.269C746.498 390.52 733.713 403.296 733.713 419.057V468.927C733.713 484.687 746.498 497.464 762.269 497.464H776.012C791.783 497.464 804.568 484.687 804.568 468.927V419.057C804.568 403.296 791.783 390.52 776.012 390.52Z" fill="#FFA28F"/><path d="M769.208 465.666C768.802 465.666 768.386 465.625 767.949 465.531C766.722 465.282 765.557 464.658 764.485 463.66C763.913 463.13 763.341 462.901 762.748 462.953C761.572 463.057 760.636 464.242 760.636 464.263L759.502 463.41C759.554 463.338 760.813 461.705 762.623 461.55C763.611 461.456 764.579 461.82 765.453 462.631C766.326 463.442 767.263 463.951 768.23 464.149C769.218 464.346 770.092 464.252 770.831 463.868C771.143 463.701 771.455 463.462 771.757 463.14C772.131 462.735 773.182 461.757 774.69 461.705C775.939 461.653 777.125 462.204 778.3 463.317L777.322 464.346C776.428 463.504 775.575 463.088 774.732 463.119C773.754 463.15 773.047 463.816 772.787 464.097C772.371 464.544 771.934 464.887 771.476 465.126C770.779 465.479 770.019 465.666 769.198 465.666H769.208Z" fill="#171111"/><path d="M787.381 430.421H787.818C792.364 430.441 796.64 432.708 799.355 436.544L775.781 436.43C778.548 432.614 782.835 430.39 787.381 430.41V430.421Z" fill="#76341E"/><path d="M750.502 430.421H750.065C745.519 430.441 741.244 432.708 738.528 436.544L762.102 436.43C759.335 432.614 755.048 430.39 750.502 430.41V430.421Z" fill="#76341E"/><path d="M777.58 450.607C777.58 450.607 780.17 445.077 785.133 443.351C790.095 441.625 795.557 444.37 795.557 444.37C795.557 444.37 793.57 448.882 788.607 450.607C783.645 452.333 777.58 450.607 777.58 450.607Z" fill="white"/><path d="M788.684 450.59C788.319 448.708 786.728 447.242 784.73 447.118C782.358 446.972 780.319 448.771 780.174 451.141L780.559 451.203C783.274 451.671 786.072 451.463 788.684 450.59Z" fill="black"/><path d="M777.58 450.611C778.86 441.764 790.053 437.979 796.94 442.138C796.514 442.814 795.713 444.186 795.286 444.851C793.767 443.936 785.861 440.745 778.683 449.342C778.246 449.862 778.194 450.08 777.58 450.611Z" fill="black"/><path d="M760.312 450.525C760.312 450.525 757.722 444.995 752.76 443.269C747.798 441.543 742.336 444.288 742.336 444.288C742.336 444.288 744.323 448.8 749.285 450.525C754.247 452.251 760.312 450.525 760.312 450.525Z" fill="white"/><path d="M760.313 450.517C759.034 441.67 747.84 437.886 740.953 442.044C741.38 442.72 742.181 444.092 742.607 444.757C744.126 443.843 752.032 440.651 759.211 449.249C759.648 449.768 759.7 449.987 760.313 450.517Z" fill="black"/><path d="M734.2 450.924V436.307C734.2 420.557 746.829 407.791 762.392 407.791H775.958C791.531 407.791 804.15 420.557 804.15 436.307V450.924H809.684V418.499C809.684 401.439 795.838 387.602 778.766 387.602H759.583C742.512 387.602 728.665 401.439 728.665 418.499V450.924H734.2Z" fill="#76341E"/><path d="M745.748 434.059H729.561V432.52C729.561 410.917 747.111 393.379 768.729 393.379H784.916V394.917C784.916 416.52 767.366 434.059 745.748 434.059Z" fill="#76341E"/><path d="M781.316 407.102H789.857C799.907 407.102 808.073 415.262 808.073 425.305H799.532C789.483 425.305 781.316 417.144 781.316 407.102Z" fill="#76341E"/><path d="M773.576 474.869C773.358 473.476 771.984 473.05 770.767 472.946C769.675 472.852 768.593 473.185 767.719 473.84L761.529 478.487C761.529 478.487 775.345 492.147 785.748 474.713L778.622 472.187C777.373 471.75 775.979 471.844 774.845 472.54C774.055 473.029 773.41 473.767 773.576 474.858V474.869Z" fill="#E73245"/><path d="M809.707 451.629H804.203V423.154C804.203 409.702 792.5 398.765 778.123 398.765H760.229C745.842 398.765 734.149 409.702 734.149 423.154V451.629H728.646V423.154C728.646 406.677 742.815 393.266 760.229 393.266H778.123C795.538 393.266 809.707 406.677 809.707 423.154V451.629Z" fill="#E73245"/><path d="M734.169 460.661C724.421 460.661 716.525 455.4 716.525 448.903V437.27C716.525 430.772 724.421 425.512 734.169 425.512V460.661Z" fill="#E73245"/><path d="M804.193 426.125C813.941 426.125 821.837 431.25 821.837 437.581V448.913C821.837 455.244 813.941 460.37 804.193 460.37V426.125Z" fill="#E73245"/><path d="M779.133 382.785H759.086V388.056H779.133V382.785Z" fill="#E73245"/><path d="M666.643 627.125C669.192 618.392 666.144 608.984 659.382 602.902L571.673 523.996C569.967 522.468 567.834 521.491 565.556 521.22L547.559 519.037C547.278 518.964 546.966 518.902 546.612 518.86L541.681 518.33L539.507 518.07L539.444 518.091L498.81 513.683C497.26 513.517 495.803 514.13 494.846 515.222L491.153 514.816C488.885 514.567 486.836 516.002 486.222 518.122L483.829 517.862C481.426 517.603 479.096 519.12 478.607 521.48C478.045 524.194 479.938 526.73 482.633 527.032L506.83 529.652L500.911 550.121C500.162 552.564 501.546 555.143 503.99 555.891C506.435 556.64 509.015 555.257 509.764 552.824L514.976 536.648C518.295 536.035 528.646 534.132 531.538 533.56C538.498 532.178 541.067 539.757 535.501 541.94C529.998 544.102 513.541 550.652 513.541 550.652C511.304 551.826 510.544 554.436 511.824 556.525L512.094 557.191C513.405 559.322 516.339 560.112 518.628 558.948L537.655 552.585L545.26 550.319L565.983 551.878L624.989 635.172C633.135 645.536 648.136 647.335 658.497 639.195C662.565 636.003 665.322 631.741 666.664 627.125H666.643Z" fill="#FFA28F"/><path d="M751.375 451.047C751.698 450.34 751.833 449.529 751.719 448.677C751.469 446.857 750.013 445.339 748.192 445.038C746.371 444.737 744.873 445.506 743.958 446.774C745.633 449.061 748.15 450.579 750.949 450.985L751.365 451.047H751.375Z" fill="black"/><path d="M485.109 599.597H476.298V563.471L480.698 554.156L485.109 563.471V599.597Z" fill="#E5F0FF"/><path d="M478.503 558.814L480.698 554.156L482.904 558.814H478.503Z" fill="#E73245"/><path d="M485.088 563.473H476.298V599.599H485.088V563.473Z" fill="#E73245"/><path d="M497.374 599.264H488.562L488.573 563.127L492.973 553.812L497.374 563.127V599.264Z" fill="#E5F0FF"/><path d="M490.769 558.47L492.975 553.812L495.18 558.47H490.769Z" fill="#E73245"/><path d="M497.364 563.129H488.573V599.255H497.364V563.129Z" fill="#E73245"/><path d="M515.299 602.346L506.55 603.365L502.357 567.488L505.645 557.727L511.096 566.47L515.299 602.346Z" fill="#E5F0FF"/><path d="M504.001 562.602L505.645 557.727L508.371 562.093L504.001 562.602Z" fill="#E73245"/><path d="M511.095 566.445L502.364 567.469L506.576 603.349L515.307 602.326L511.095 566.445Z" fill="#E73245"/><path d="M1117.94 655.637H420.506V679.579H440.48V1012.45H470.753V679.579H1066.23V1012.45H1096.5V679.579H1117.94V655.637Z" fill="#E5F0FF"/><path d="M519.304 582.617H470.753V655.587H519.304V582.617Z" fill="#B0C2E4"/><path d="M857.27 546.902H680.791C679.344 546.902 678.17 548.075 678.17 549.522V653.025C678.17 654.472 679.344 655.645 680.791 655.645H857.27C858.718 655.645 859.892 654.472 859.892 653.025V549.522C859.892 548.075 858.718 546.902 857.27 546.902Z" fill="#E5F0FF"/><path d="M859.881 603.969H678.087L669.754 655.637H868.141L859.881 603.969Z" fill="#B0C2E4"/><path d="M1135.9 201.167C1138.04 201.167 1139.76 199.44 1139.76 197.31C1139.76 195.18 1138.04 193.453 1135.9 193.453C1133.77 193.453 1132.04 195.18 1132.04 197.31C1132.04 199.44 1133.77 201.167 1135.9 201.167Z" fill="#569B7B"/><path d="M1180.69 201.167C1182.82 201.167 1184.55 199.44 1184.55 197.31C1184.55 195.18 1182.82 193.453 1180.69 193.453C1178.56 193.453 1176.83 195.18 1176.83 197.31C1176.83 199.44 1178.56 201.167 1180.69 201.167Z" fill="#83CBA8"/><path d="M1224 271.914H922.455V289.826H1224V271.914Z" fill="#E5F0FF"/><path d="M977.602 180H948.234V271.912H977.602V180Z" fill="#E5F0FF"/><path d="M1000.7 180H977.602V271.912H1000.7V180Z" fill="#8DA8DC"/><path d="M1023.78 180H1000.69V271.912H1023.78V180Z" fill="#B0C2E4"/><path d="M1046.87 180H1023.78L1035.33 271.912H1058.41L1046.87 180Z" fill="#E5F0FF"/><path d="M1069.98 180H1046.89L1058.43 271.912H1081.53L1069.98 180Z" fill="#8DA8DC"/><path d="M1195.96 197.309H1110.4L1120.96 271.911H1185.42L1195.96 197.309Z" fill="#8DA8DC"/><path d="M1163.36 214.304C1165.49 214.304 1167.22 212.577 1167.22 210.447C1167.22 208.317 1165.49 206.59 1163.36 206.59C1161.23 206.59 1159.5 208.317 1159.5 210.447C1159.5 212.577 1161.23 214.304 1163.36 214.304Z" fill="#478D6D"/><path d="M1151.06 195.011C1153.19 195.011 1154.92 193.284 1154.92 191.154C1154.92 189.024 1153.19 187.297 1151.06 187.297C1148.93 187.297 1147.2 189.024 1147.2 191.154C1147.2 193.284 1148.93 195.011 1151.06 195.011Z" fill="#478D6D"/><path d="M1171.96 220.741C1174.09 220.741 1175.82 219.014 1175.82 216.884C1175.82 214.754 1174.09 213.027 1171.96 213.027C1169.83 213.027 1168.1 214.754 1168.1 216.884C1168.1 219.014 1169.83 220.741 1171.96 220.741Z" fill="#478D6D"/><path d="M1166.23 201.167C1168.36 201.167 1170.09 199.44 1170.09 197.31C1170.09 195.18 1168.36 193.453 1166.23 193.453C1164.1 193.453 1162.37 195.18 1162.37 197.31C1162.37 199.44 1164.1 201.167 1166.23 201.167Z" fill="#478D6D"/><path d="M1166.03 229.815C1168.16 229.815 1169.89 228.089 1169.89 225.958C1169.89 223.828 1168.16 222.102 1166.03 222.102C1163.9 222.102 1162.17 223.828 1162.17 225.958C1162.17 228.089 1163.9 229.815 1166.03 229.815Z" fill="#478D6D"/><path d="M1175.14 236.909C1177.27 236.909 1179 235.182 1179 233.052C1179 230.922 1177.27 229.195 1175.14 229.195C1173.01 229.195 1171.28 230.922 1171.28 233.052C1171.28 235.182 1173.01 236.909 1175.14 236.909Z" fill="#478D6D"/><path d="M1171.96 249.585C1174.09 249.585 1175.82 247.858 1175.82 245.728C1175.82 243.598 1174.09 241.871 1171.96 241.871C1169.83 241.871 1168.1 243.598 1168.1 245.728C1168.1 247.858 1169.83 249.585 1171.96 249.585Z" fill="#478D6D"/><path d="M1177.27 266.05C1179.4 266.05 1181.13 264.323 1181.13 262.193C1181.13 260.063 1179.4 258.336 1177.27 258.336C1175.14 258.336 1173.41 260.063 1173.41 262.193C1173.41 264.323 1175.14 266.05 1177.27 266.05Z" fill="#478D6D"/><path d="M1189.09 275.769C1191.22 275.769 1192.95 274.042 1192.95 271.912C1192.95 269.782 1191.22 268.055 1189.09 268.055C1186.95 268.055 1185.23 269.782 1185.23 271.912C1185.23 274.042 1186.95 275.769 1189.09 275.769Z" fill="#478D6D"/><path d="M1181.77 255.319C1183.9 255.319 1185.63 253.593 1185.63 251.462C1185.63 249.332 1183.9 247.605 1181.77 247.605C1179.64 247.605 1177.91 249.332 1177.91 251.462C1177.91 253.593 1179.64 255.319 1181.77 255.319Z" fill="#478D6D"/><path d="M1185.49 288.589C1187.62 288.589 1189.35 286.862 1189.35 284.732C1189.35 282.602 1187.62 280.875 1185.49 280.875C1183.35 280.875 1181.63 282.602 1181.63 284.732C1181.63 286.862 1183.35 288.589 1185.49 288.589Z" fill="#478D6D"/><path d="M1198.61 298.796C1200.74 298.796 1202.47 297.069 1202.47 294.939C1202.47 292.809 1200.74 291.082 1198.61 291.082C1196.47 291.082 1194.75 292.809 1194.75 294.939C1194.75 297.069 1196.47 298.796 1198.61 298.796Z" fill="#478D6D"/><path d="M1207.23 314.036C1209.05 314.036 1210.53 312.561 1210.53 310.741C1210.53 308.921 1209.05 307.445 1207.23 307.445C1205.41 307.445 1203.93 308.921 1203.93 310.741C1203.93 312.561 1205.41 314.036 1207.23 314.036Z" fill="#478D6D"/><path d="M1197.24 310.728C1199.06 310.728 1200.54 309.252 1200.54 307.432C1200.54 305.612 1199.06 304.137 1197.24 304.137C1195.42 304.137 1193.94 305.612 1193.94 307.432C1193.94 309.252 1195.42 310.728 1197.24 310.728Z" fill="#478D6D"/><path d="M1206.51 325.161C1208.26 325.161 1209.67 323.746 1209.67 322C1209.67 320.255 1208.26 318.84 1206.51 318.84C1204.76 318.84 1203.35 320.255 1203.35 322C1203.35 323.746 1204.76 325.161 1206.51 325.161Z" fill="#478D6D"/><path d="M1214.44 326.688C1215.69 326.688 1216.7 325.678 1216.7 324.432C1216.7 323.186 1215.69 322.176 1214.44 322.176C1213.19 322.176 1212.18 323.186 1212.18 324.432C1212.18 325.678 1213.19 326.688 1214.44 326.688Z" fill="#478D6D"/><path d="M1139.78 197.31C1144.55 194.857 1147.82 194.691 1153.23 194.722C1165.95 194.795 1166.64 207.53 1168.33 217.156C1170 226.627 1172.2 236.036 1175.37 245.122C1180.36 259.416 1185.67 273.877 1191.56 287.839C1196.76 300.19 1202.8 314.048 1212.81 323.331" stroke="#478D6D" stroke-width="1.05095" stroke-miterlimit="10"/><path d="M1212.44 323.717C1202.04 314.059 1195.69 299.026 1191.06 288.048C1185.9 275.802 1180.75 262.214 1174.86 245.3C1171.97 237.004 1169.66 227.834 1167.8 217.251C1167.63 216.315 1167.48 215.349 1167.32 214.371C1165.89 205.441 1164.25 195.315 1153.21 195.253C1148.12 195.222 1144.78 195.326 1140 197.779L1139.53 196.844C1144.52 194.276 1147.98 194.172 1153.22 194.203C1165.16 194.276 1166.94 205.327 1168.36 214.215C1168.52 215.193 1168.67 216.149 1168.84 217.074C1170.69 227.595 1172.99 236.712 1175.86 244.957C1181.74 261.85 1186.89 275.417 1192.04 287.643C1196.89 299.141 1202.92 313.446 1213.16 322.958L1212.44 323.727V323.717Z" fill="#478D6D"/><path d="M1153.25 214.304C1155.38 214.304 1157.11 212.577 1157.11 210.447C1157.11 208.317 1155.38 206.59 1153.25 206.59C1151.12 206.59 1149.39 208.317 1149.39 210.447C1149.39 212.577 1151.12 214.304 1153.25 214.304Z" fill="#83CBA8"/><path d="M1165.53 195.011C1167.66 195.011 1169.39 193.284 1169.39 191.154C1169.39 189.024 1167.66 187.297 1165.53 187.297C1163.4 187.297 1161.67 189.024 1161.67 191.154C1161.67 193.284 1163.4 195.011 1165.53 195.011Z" fill="#83CBA8"/><path d="M1144.63 220.741C1146.76 220.741 1148.49 219.014 1148.49 216.884C1148.49 214.754 1146.76 213.027 1144.63 213.027C1142.5 213.027 1140.77 214.754 1140.77 216.884C1140.77 219.014 1142.5 220.741 1144.63 220.741Z" fill="#83CBA8"/><path d="M1150.38 201.167C1152.51 201.167 1154.24 199.44 1154.24 197.31C1154.24 195.18 1152.51 193.453 1150.38 193.453C1148.25 193.453 1146.52 195.18 1146.52 197.31C1146.52 199.44 1148.25 201.167 1150.38 201.167Z" fill="#83CBA8"/><path d="M1150.58 229.815C1152.71 229.815 1154.44 228.089 1154.44 225.958C1154.44 223.828 1152.71 222.102 1150.58 222.102C1148.44 222.102 1146.72 223.828 1146.72 225.958C1146.72 228.089 1148.44 229.815 1150.58 229.815Z" fill="#83CBA8"/><path d="M1141.46 236.909C1143.59 236.909 1145.32 235.182 1145.32 233.052C1145.32 230.922 1143.59 229.195 1141.46 229.195C1139.33 229.195 1137.6 230.922 1137.6 233.052C1137.6 235.182 1139.33 236.909 1141.46 236.909Z" fill="#83CBA8"/><path d="M1144.63 249.585C1146.76 249.585 1148.49 247.858 1148.49 245.728C1148.49 243.598 1146.76 241.871 1144.63 241.871C1142.5 241.871 1140.77 243.598 1140.77 245.728C1140.77 247.858 1142.5 249.585 1144.63 249.585Z" fill="#83CBA8"/><path d="M1139.33 266.05C1141.46 266.05 1143.19 264.323 1143.19 262.193C1143.19 260.063 1141.46 258.336 1139.33 258.336C1137.2 258.336 1135.47 260.063 1135.47 262.193C1135.47 264.323 1137.2 266.05 1139.33 266.05Z" fill="#83CBA8"/><path d="M1127.51 275.769C1129.64 275.769 1131.37 274.042 1131.37 271.912C1131.37 269.782 1129.64 268.055 1127.51 268.055C1125.38 268.055 1123.65 269.782 1123.65 271.912C1123.65 274.042 1125.38 275.769 1127.51 275.769Z" fill="#83CBA8"/><path d="M1134.82 255.319C1136.96 255.319 1138.68 253.593 1138.68 251.462C1138.68 249.332 1136.96 247.605 1134.82 247.605C1132.69 247.605 1130.96 249.332 1130.96 251.462C1130.96 253.593 1132.69 255.319 1134.82 255.319Z" fill="#83CBA8"/><path d="M1131.11 288.589C1133.24 288.589 1134.97 286.862 1134.97 284.732C1134.97 282.602 1133.24 280.875 1131.11 280.875C1128.98 280.875 1127.25 282.602 1127.25 284.732C1127.25 286.862 1128.98 288.589 1131.11 288.589Z" fill="#83CBA8"/><path d="M1117.99 298.796C1120.12 298.796 1121.85 297.069 1121.85 294.939C1121.85 292.809 1120.12 291.082 1117.99 291.082C1115.86 291.082 1114.13 292.809 1114.13 294.939C1114.13 297.069 1115.86 298.796 1117.99 298.796Z" fill="#83CBA8"/><path d="M1109.38 314.036C1111.2 314.036 1112.68 312.561 1112.68 310.741C1112.68 308.921 1111.2 307.445 1109.38 307.445C1107.56 307.445 1106.08 308.921 1106.08 310.741C1106.08 312.561 1107.56 314.036 1109.38 314.036Z" fill="#83CBA8"/><path d="M1119.36 310.728C1121.19 310.728 1122.66 309.252 1122.66 307.432C1122.66 305.612 1121.19 304.137 1119.36 304.137C1117.54 304.137 1116.07 305.612 1116.07 307.432C1116.07 309.252 1117.54 310.728 1119.36 310.728Z" fill="#83CBA8"/><path d="M1110.09 325.161C1111.83 325.161 1113.25 323.746 1113.25 322C1113.25 320.255 1111.83 318.84 1110.09 318.84C1108.34 318.84 1106.92 320.255 1106.92 322C1106.92 323.746 1108.34 325.161 1110.09 325.161Z" fill="#83CBA8"/><path d="M1102.16 326.688C1103.41 326.688 1104.42 325.678 1104.42 324.432C1104.42 323.186 1103.41 322.176 1102.16 322.176C1100.91 322.176 1099.9 323.186 1099.9 324.432C1099.9 325.678 1100.91 326.688 1102.16 326.688Z" fill="#83CBA8"/><path d="M1176.83 197.31C1172.06 194.857 1168.79 194.691 1163.38 194.722C1150.66 194.795 1149.97 207.53 1148.28 217.156C1146.61 226.627 1144.41 236.036 1141.23 245.122C1136.25 259.416 1130.93 273.877 1125.05 287.839C1119.84 300.19 1113.81 314.048 1103.8 323.331" stroke="#83CBA8" stroke-width="1.05095" stroke-miterlimit="10"/><path d="M1104.15 323.719L1103.44 322.95C1113.67 313.448 1119.71 299.133 1124.55 287.635C1129.7 275.409 1134.85 261.842 1140.73 244.949C1143.6 236.705 1145.89 227.587 1147.75 217.066C1147.92 216.141 1148.06 215.174 1148.23 214.207C1149.66 205.329 1151.44 194.268 1163.38 194.195C1168.61 194.164 1172.08 194.278 1177.07 196.836L1176.59 197.771C1171.82 195.318 1168.48 195.214 1163.39 195.245C1152.34 195.307 1150.71 205.433 1149.27 214.363C1149.12 215.341 1148.96 216.307 1148.79 217.243C1146.93 227.826 1144.62 236.996 1141.73 245.292C1135.84 262.206 1130.69 275.794 1125.53 288.04C1120.9 299.018 1114.57 314.051 1104.15 323.709V323.719Z" fill="#83CBA8"/></svg>