<svg viewBox="0 0 1600 1200" fill="none" xmlns="http://www.w3.org/2000/svg"><path d="M498.452 423.066L471.799 420.393L478.061 386.641L505.708 399.775L498.452 423.066Z" fill="#F39F8F"/><path d="M451.485 420.622C450.568 417.72 452.248 414.742 455.227 413.825L487.379 404.509L498.453 423.065L458.511 424.287C455.303 424.516 452.248 423.218 451.485 420.622Z" fill="#F39F8F"/><path d="M423.992 411.61C422.235 409.09 422.923 405.73 425.519 404.05L450.111 390.533L452.173 399.697L431.705 413.06C429.185 414.817 425.672 414.13 423.992 411.61Z" fill="#F39F8F"/><path d="M431.552 415.963C430.025 413.367 430.941 410.007 433.614 408.556L455.074 396.72L460.573 406.189L439.113 418.025C436.516 419.476 433.079 418.56 431.552 415.963Z" fill="#F39F8F"/><path d="M478.062 386.641L481.727 397.637L447.284 401.532L450.11 390.535L478.062 386.641Z" fill="#F39F8F"/><path d="M481.27 391.909L483.179 402.676L448.965 408.404L447.056 397.713L481.27 391.909Z" fill="#F39F8F"/><path d="M460.878 412.375C460.878 412.375 465.69 410.925 468.21 409.626C471.265 408.099 470.196 405.121 467.37 405.426C465.537 405.655 459.58 406.801 455.074 407.412C463.857 402.372 476.382 391.986 476.382 391.986L477.375 413.597L460.878 412.375Z" fill="#F39F8F"/><path d="M623.091 407.411L498.453 423.066L487.532 396.873L628.208 369.993L623.091 407.411Z" fill="#F39F8F"/><path d="M778.658 915.46L785.608 1004.19H837.387L840.519 915.995L778.658 915.46Z" fill="#ED1E79"/><path d="M698.468 929.128L675.557 864.219L617.057 879.415L640.732 935.161L698.468 929.128Z" fill="#ED1E79"/><path d="M844.489 1003.96H774.763V1020H844.489V1003.96Z" fill="#181111"/><path d="M774.763 1005.34C774.763 988.921 790.342 975.71 809.664 975.71C828.986 975.71 844.566 988.997 844.566 1005.34" fill="#F7E5CD"/><path d="M706.945 943.023L698.697 924.772L586.737 972.805L594.985 991.056L706.945 943.023Z" fill="#181111"/><path d="M698.85 924.696L689.074 903.161L685.943 905.91C672.502 917.594 654.478 923.016 636.684 920.572L634.545 920.267L590.403 956.845C585.668 960.739 584.217 967.23 586.661 972.728L698.85 924.696Z" fill="#F7E5CD"/><path d="M862.284 960.512L773.846 962.727L740.396 501.262L850.675 541.964L862.284 960.512Z" fill="#006931"/><path d="M550.92 719.66L608.962 904.995L691.901 870.402L646.765 688.198L781.102 541.962L688.769 492.86L560.772 661.471C548.323 678.348 544.734 699.806 550.92 719.66Z" fill="#006931"/><path d="M891.763 568.158L895.353 408.405L914.98 346.245C914.98 346.245 853.807 308.75 836.242 302.107C823.259 297.143 782.248 293.554 756.892 291.645C743.527 290.652 730.163 294.318 719.241 301.954L630.269 363.961L524.343 387.558L524.877 436.583L634.622 420.088C643.405 418.79 651.73 415.736 659.214 411.154L710.612 379.616L672.197 515.008L891.763 568.158Z" fill="#00401E"/><path d="M474.167 207.263L470.578 201.918L441.099 221.314L444.688 226.736L474.167 207.263Z" fill="#F7931E"/><path d="M743.528 777.165L739.862 771.819L710.383 791.292L713.972 796.638L743.528 777.165Z" fill="#F7931E"/><path d="M534.882 635.893C540.196 635.893 544.504 631.721 544.504 626.576C544.504 621.431 540.196 617.26 534.882 617.26C529.567 617.26 525.259 621.431 525.259 626.576C525.259 631.721 529.567 635.893 534.882 635.893Z" fill="#ED1E79"/><path d="M570.7 306.535L577.191 305.466L570.471 271.408L564.056 272.477L570.7 306.535Z" fill="#463EC5"/><path d="M1252.01 637.643L1247.04 634.665L1269.04 599.767L1274 602.745L1252.01 637.643Z" fill="#ED1E79"/><path d="M993.948 897.517L988.373 899.12L976.841 859.717L982.416 858.189L993.948 897.517Z" fill="#ED1E79"/><path d="M1136.84 760.059L1130.6 762.11L1141.45 795.119L1147.69 793.068L1136.84 760.059Z" fill="#463EC5"/><path d="M368.393 563.5L363.734 558.842L389.93 534.787L394.588 539.369L368.393 563.5Z" fill="#463EC5"/><path d="M348.078 360.066L352.584 355.79L331.506 334.561L327 338.761L348.078 360.066Z" fill="#006931"/><path d="M491.427 359.992C496.742 359.992 501.05 355.821 501.05 350.676C501.05 345.53 496.742 341.359 491.427 341.359C486.113 341.359 481.805 345.53 481.805 350.676C481.805 355.821 486.113 359.992 491.427 359.992Z" fill="#ED1E79"/><path d="M1152.72 923.247L1149.06 918.436L1173.34 901.178L1176.93 906.065L1152.72 923.247Z" fill="#006931"/><path d="M970.578 245.061L972.182 239.258L1001.2 246.741L999.599 252.545L970.578 245.061Z" fill="#006931"/><path d="M1121.26 502.712L1127.6 500.955L1117.36 467.737L1111.02 469.494L1121.26 502.712Z" fill="#463EC5"/><path d="M884.202 563.345L879.62 558.839L905.357 534.861L909.939 539.367L884.202 563.345Z" fill="#006931"/><path d="M926.589 323.333L924.527 315.773L957.901 307.831L959.963 315.315" fill="#ED1E79"/><path d="M931.248 631.918C934.285 631.918 936.746 629.525 936.746 626.573C936.746 623.621 934.285 621.228 931.248 621.228C928.211 621.228 925.749 623.621 925.749 626.573C925.749 629.525 928.211 631.918 931.248 631.918Z" fill="#ED1E79"/><path d="M995.092 445.977L993.794 452.315L1028.92 458.347L1030.15 452.086L995.092 445.977Z" fill="#ED1E79"/><path d="M1006.17 631.997C1012.89 650.401 1033.51 660.71 1051.91 663.23C1062.99 664.757 1074.14 664.07 1085.14 662.084C1094.91 660.328 1105.37 657.044 1111.94 649.103C1117.21 642.841 1119.88 633.448 1115.53 625.888C1111.71 619.321 1103.01 615.121 1095.67 618.099C1087.43 621.459 1083.99 631.692 1083.84 639.939C1083.68 649.561 1087.81 658.953 1094.3 665.903C1111.86 684.688 1140.12 684.688 1163.72 681.023C1166.62 680.564 1165.4 676.212 1162.5 676.593C1143.94 679.113 1123.93 680.106 1107.21 670.332C1093.15 662.161 1082.39 643.528 1091.32 627.797C1095.75 620.008 1105.22 619.473 1110.8 626.423C1116.29 633.372 1112.48 643.146 1106.67 648.568C1100.26 654.601 1091.32 656.892 1082.84 658.343C1073.53 659.946 1063.9 660.633 1054.51 659.717C1034.81 657.732 1018 648.263 1007.47 631.31C1007.01 630.928 1005.94 631.31 1006.17 631.997Z" fill="#F7E5CD"/><path d="M894.359 770.136C899.674 770.136 903.982 765.965 903.982 760.819C903.982 755.674 899.674 751.503 894.359 751.503C889.045 751.503 884.736 755.674 884.736 760.819C884.736 765.965 889.045 770.136 894.359 770.136Z" fill="#F7931E"/><path d="M699.844 293.86L706.183 295.616L715.423 262.092L709.085 260.336L699.844 293.86Z" fill="#949A78"/><path d="M651.119 532.569L657.457 530.966L647.987 497.595L641.572 499.198L651.119 532.569Z" fill="#949A78"/><path d="M1137.91 315.161L1127.6 309.357L1114.77 330.968C1113.16 333.717 1114.08 337.23 1116.98 338.834C1119.81 340.437 1123.47 339.445 1125.08 336.696L1137.91 315.161Z" fill="#F39F8F"/><path d="M1077.88 324.171L1095.14 311.189L1110.34 329.593L1067.57 361.055L1077.88 324.171Z" fill="#F39F8F"/><path d="M1128.74 319.666L1118.97 313.099L1104.46 333.64C1102.62 336.237 1103.31 339.902 1105.98 341.659C1108.66 343.491 1112.4 342.804 1114.23 340.131L1128.74 319.666Z" fill="#F39F8F"/><path d="M1128.97 306.759L1125.23 307.218L1128.67 331.959C1129.12 335.09 1132.1 337.305 1135.31 336.923C1138.59 336.465 1140.81 333.563 1140.43 330.432L1138.06 313.479C1137.45 309.203 1133.4 306.149 1128.97 306.759Z" fill="#F39F8F"/><path d="M1095.14 311.19L1109.57 332.954L1125.69 317.681C1125.69 317.681 1129.96 306.456 1126.68 306.914L1095.14 311.19Z" fill="#F39F8F"/><path d="M1228.64 242.536L1195.19 236.351C1196.33 234.06 1198.09 232.074 1200.3 230.623H1200.38C1201.68 229.707 1202.67 228.409 1202.97 226.729C1203.59 223.445 1201.45 220.314 1198.09 219.703L1079.56 197.787C1077.88 197.482 1076.28 197.863 1074.98 198.703C1073.68 199.62 1072.69 200.918 1072.38 202.598C1072.07 204.278 1072.46 205.882 1073.37 207.18C1074.9 209.318 1075.82 211.762 1076.05 214.282L1042.52 208.096C1039.85 207.638 1037.25 209.318 1036.79 211.914L1032.82 232.074C1026.41 264.834 1048.32 296.449 1081.7 302.634L1088.19 303.856C1090.02 306.758 1092.01 309.507 1094.15 311.874C1100.41 318.9 1103.01 328.293 1101.25 337.38C1099.42 346.696 1092.7 354.256 1083.53 357.311L1078.26 359.067C1077.42 359.372 1076.81 360.06 1076.66 360.9L1074.6 371.362L1137.45 382.969L1139.51 372.507C1139.66 371.667 1139.36 370.751 1138.67 370.216L1134.39 366.703C1127.06 360.594 1123.63 351.125 1125.38 341.809C1127.14 332.645 1133.25 324.856 1141.73 320.503C1144.55 319.053 1147.38 317.296 1150.13 315.234L1156.62 316.456C1189.99 322.642 1222.3 301.031 1228.64 268.271L1232.61 248.111C1233.07 245.514 1231.31 242.994 1228.64 242.536ZM1082.54 292.936C1055.04 287.362 1037.1 261.093 1042.44 233.907L1045.42 218.482L1074.98 223.98C1071.92 250.325 1074.9 274.685 1082.54 292.936ZM1218.94 266.514C1213.67 293.7 1187.01 311.722 1159.37 307.14C1173.34 292.86 1185.33 271.249 1192.44 245.591L1221.99 251.089L1218.94 266.514Z" fill="#FBB03B"/><path d="M1056.11 408.473L1140.35 424.051L1148.14 384.189L1063.9 368.611L1056.11 408.473Z" fill="#181111"/><path d="M1070.78 402.671L1128.97 413.438L1133.55 389.995L1075.36 379.228L1070.78 402.671Z" fill="#E6E3DA"/><path d="M1011.74 421.535L1092.92 345.325L1077.88 324.172L981.499 407.026L1011.74 421.535Z" fill="#F39F8F"/><path d="M1074.98 337.458C1079.64 343.797 1086.51 346.851 1092.85 345.4L1117.59 339.749C1120.11 339.215 1121.49 336.237 1120.8 333.106C1120.11 329.975 1117.52 327.913 1115 328.448L1074.98 337.458Z" fill="#F39F8F"/><path d="M719.775 526.54L747.422 340.365L762.696 346.703L760.939 332.882L805.387 305.391L719.775 526.54Z" fill="#006931"/><path d="M719.775 526.54L775.984 366.787L813.024 289.431L812.795 295.082C812.795 295.082 823.029 308.903 826.618 324.1L858.771 313.332L817.912 550.289L719.775 526.54Z" fill="#F7E5CD"/><path d="M1092.54 366.249L1061.46 332.267L984.324 387.249L858.771 313.405L883.056 401.682L954.387 440.78C970.807 451.7 992.649 450.478 1007.69 437.802L1092.54 366.249Z" fill="#00401E"/><path d="M1050.69 340.819L1061.46 332.267L1092.54 366.248L1081.24 376.023L1050.69 340.819Z" fill="#006931"/><path d="M524.342 387.633L524.953 436.658L510.595 439.331L510.366 390.306L524.342 387.633Z" fill="#006931"/><path d="M884.05 273.775L812.262 250.637L826.925 207.491C830.667 196.418 842.963 190.462 854.266 194.128L884.967 204.055C896.346 207.72 902.456 219.633 898.714 230.706L884.05 273.775Z" fill="#8D191E"/><path d="M825.778 251.324C827.688 245.826 824.556 239.869 818.905 238.037C813.253 236.204 807.144 239.182 805.311 244.68C803.402 250.179 806.533 256.135 812.184 257.968C817.836 259.8 823.869 256.822 825.778 251.324Z" fill="#F39F8F"/><path d="M872.747 266.521C874.656 261.023 880.69 258.045 886.341 259.878C891.992 261.71 895.047 267.667 893.214 273.165C891.305 278.663 885.272 281.641 879.62 279.808C873.893 277.899 870.838 272.019 872.747 266.521Z" fill="#F39F8F"/><path d="M854.8 325.091L867.859 286.68L817.378 270.262L804.242 308.825C800.806 318.829 806.381 329.596 816.691 332.956L830.056 337.233C840.289 340.516 851.363 335.094 854.8 325.091Z" fill="#EF826C"/><path d="M878.016 284.618L893.061 240.328C898.178 225.36 889.854 209.171 874.427 204.208L862.513 200.389C847.162 195.426 830.514 203.52 825.397 218.488L810.352 262.778C805.235 277.746 813.559 293.935 828.986 298.898L840.9 302.717C856.327 307.68 872.976 299.586 878.016 284.618Z" fill="#F39F8F"/><path d="M844.948 268.735C843.344 268.201 842.351 267.055 841.511 266.062C840.06 264.382 839.22 263.39 836.318 264.764L835.401 262.931C839.831 260.793 841.664 263.008 843.191 264.764C843.955 265.681 844.642 266.521 845.635 266.826C846.628 267.132 847.697 266.903 848.766 266.673C850.905 266.215 853.654 265.604 856.327 269.728L854.57 270.797C852.661 267.819 851.363 268.125 849.301 268.659C847.926 268.965 846.475 269.27 844.948 268.735Z" fill="#020202"/><path d="M819.745 247.123L814.018 245.29L826.695 207.948C827.764 204.894 831.125 203.214 834.332 204.206L819.745 247.123Z" fill="#8D191E"/><path d="M885.195 268.2L880.765 266.749C880.384 266.596 880.231 266.291 880.307 265.909L894.436 224.291C894.589 223.909 894.97 223.756 895.276 223.833C898.102 224.749 899.629 227.651 898.636 230.4L886.035 267.818C885.882 268.123 885.5 268.353 885.195 268.2Z" fill="#8D191E"/><path d="M835.783 318.675L823.411 314.704C816.232 312.413 812.337 304.853 814.705 297.827L820.814 279.882L859 292.176L853.043 310.198C850.752 317.147 842.962 320.965 835.783 318.675Z" fill="#8D191E"/><path d="M823.183 272.784L861.597 285.079L862.896 281.566C863.888 278.969 862.437 276.068 859.688 275.151L830.896 265.911C828.223 265.071 825.321 266.446 824.481 269.042L823.183 272.784Z" fill="#8D191E"/><path d="M840.442 284.238C837.387 283.245 835.02 281.183 833.798 278.586L835.707 277.746C836.7 280.037 838.915 281.717 841.664 282.481C844.032 283.092 846.399 282.863 847.85 281.87L849.072 283.474C847.086 284.849 844.108 285.23 841.129 284.39C840.9 284.39 840.671 284.314 840.442 284.238Z" fill="#010101"/><path d="M850.447 234.522C850.752 233.682 850.6 232.766 850.218 232.002C849.836 231.238 849.072 230.627 848.232 230.398L837.464 227.114C836.624 226.885 835.707 226.961 834.867 227.343C834.103 227.725 833.492 228.413 833.187 229.253L832.271 232.002L849.454 237.272L850.447 234.522Z" fill="#8D191E"/><path d="M879.773 243.994C880.078 243.154 879.926 242.237 879.544 241.474C879.162 240.71 878.398 240.099 877.558 239.87L866.79 236.586C865.95 236.357 865.033 236.433 864.193 236.815C863.43 237.197 862.819 237.884 862.513 238.724L861.597 241.474L878.78 246.743L879.773 243.994Z" fill="#8D191E"/><path d="M832.271 273.775L823.335 272.477L815.393 295.92L823.87 298.746L832.271 273.775Z" fill="#8D191E"/><path d="M862.437 282.706L853.883 279.804L845.482 304.775L853.96 307.524L862.437 282.706Z" fill="#8D191E"/><path d="M860.375 257.124C860.069 259.339 863.583 261.63 868.241 262.241C872.9 262.852 876.871 261.477 877.177 259.263C877.482 257.048 873.969 254.757 869.31 254.146C864.652 253.535 860.68 254.833 860.375 257.124Z" fill="white"/><path d="M864.804 256.822C864.04 258.961 865.262 261.252 867.477 262.015C869.692 262.703 872.059 261.557 872.823 259.419C873.587 257.28 872.365 254.989 870.226 254.226C867.859 253.538 865.491 254.684 864.804 256.822Z" fill="#010101"/><path d="M841.741 251.018C840.595 253.003 836.395 252.698 832.347 250.407C828.3 248.116 825.932 244.68 827.154 242.771C828.3 240.785 832.5 241.091 836.548 243.382C840.519 245.596 842.887 249.032 841.741 251.018Z" fill="white"/><path d="M838.38 248.193C837.616 250.332 835.249 251.477 833.034 250.79C830.819 250.103 829.674 247.735 830.437 245.597C831.201 243.458 833.569 242.313 835.783 243C837.922 243.687 839.144 246.055 838.38 248.193Z" fill="#010101"/><path d="M876.26 269.192L823.869 252.01L825.778 246.359L878.245 263.541L876.26 269.192Z" fill="#F39F8F"/><path d="M746.505 206.04L751.087 201.916L730.467 180L725.885 184.124L746.505 206.04Z" fill="#006931"/><path d="M817.912 550.287L884.278 379.92L868.011 375.949L878.169 365.869L858.771 313.331L817.912 550.287Z" fill="#006931"/></svg>