<svg viewBox="0 0 1600 1200" fill="none" xmlns="http://www.w3.org/2000/svg"><path fill-rule="evenodd" clip-rule="evenodd" d="M193 1020H1407V960.625H193V1020Z" fill="#EBE8E1"/><path fill-rule="evenodd" clip-rule="evenodd" d="M979.429 508.083L1030.95 454.08L1051.41 480.241L1020.98 512.442L979.429 508.083Z" fill="#FFD4C2"/><path fill-rule="evenodd" clip-rule="evenodd" d="M983.258 523.14L943.841 469.966L962.89 455.777L1021.22 512.327L1009.03 524.805C1001.74 532.266 989.527 531.477 983.258 523.14Z" fill="#FFD4C2"/><path fill-rule="evenodd" clip-rule="evenodd" d="M1053.93 422.214C1054.08 422.062 1054.21 421.901 1054.36 421.752C1062.38 413.871 1075.27 413.993 1083.15 422.023C1090.88 429.901 1090.89 442.456 1083.3 450.371L1083.32 450.386L1050.14 487.598L1020.74 459.41L1053.92 422.198L1053.93 422.214Z" fill="#ABB8B9"/><path fill-rule="evenodd" clip-rule="evenodd" d="M1086.47 428.379H1101C1108.91 428.379 1115.32 421.967 1115.32 414.057V352.625L1072.16 352.383V414.057C1072.16 421.967 1078.57 428.379 1086.47 428.379Z" fill="#FFD4C2"/><path fill-rule="evenodd" clip-rule="evenodd" d="M1100.47 320.332H1062.75C1056.11 320.332 1050.74 325.711 1050.74 332.345V389.406C1050.74 395.601 1055.76 400.624 1061.95 400.624H1112.48V365.125V332.345C1112.48 325.711 1107.1 320.332 1100.47 320.332Z" fill="#FFD4C2"/><path fill-rule="evenodd" clip-rule="evenodd" d="M1054.19 376.878L1054.37 353.973C1054.37 353.973 1048.72 362.898 1044.2 368.369C1043.42 369.32 1043.17 370.603 1043.53 371.782C1043.89 372.961 1044.82 373.878 1046.01 374.222C1050.35 375.483 1054.19 376.878 1054.19 376.878Z" fill="#FFD4C2"/><path fill-rule="evenodd" clip-rule="evenodd" d="M1057.52 364.44C1053.69 364.38 1053.8 357.933 1057.63 357.995C1061.45 358.055 1064.54 359.547 1064.51 361.327C1064.48 363.106 1061.35 364.5 1057.52 364.44Z" fill="white"/><path d="M1057.37 358C1058.38 358.751 1058.87 360.289 1058.5 361.878C1058.24 362.959 1057.65 363.842 1056.9 364.37C1053.79 363.68 1054 358.209 1057.37 358Z" fill="#1D1D1B"/><path fill-rule="evenodd" clip-rule="evenodd" d="M1056.11 383.111C1054.8 384.547 1052.86 385.357 1050.69 385.369V387.082C1053.34 387.069 1055.75 386.061 1057.37 384.262L1056.11 383.111Z" fill="#1D1D1B"/><path fill-rule="evenodd" clip-rule="evenodd" d="M1047.74 379.365V382.532H1060.57V379.473C1060.57 378.554 1060.21 377.671 1059.56 377.02C1058.91 376.37 1058.03 376.008 1057.11 376.008H1051.1C1049.25 376.008 1047.74 377.51 1047.74 379.365Z" fill="#420F0F"/><path fill-rule="evenodd" clip-rule="evenodd" d="M1050.62 350.71V353.878H1063.45V350.819C1063.45 349.9 1063.08 349.017 1062.44 348.366C1061.79 347.715 1060.91 347.354 1059.99 347.354H1053.98C1052.12 347.354 1050.62 348.856 1050.62 350.71Z" fill="#420F0F"/><path fill-rule="evenodd" clip-rule="evenodd" d="M1050.62 400.011V403.179H1063.45V400.119C1063.45 399.2 1063.08 398.318 1062.44 397.667C1061.79 397.016 1060.91 396.654 1059.99 396.654H1053.98C1052.12 396.654 1050.62 398.157 1050.62 400.011Z" fill="#420F0F"/><path fill-rule="evenodd" clip-rule="evenodd" d="M1129.81 344.189L1083.29 341.336V330.556C1084.46 329.467 1085.39 328.133 1086 326.63C1086.65 326.817 1087.32 326.922 1088.03 326.922C1092.06 326.922 1095.32 323.656 1095.32 319.625C1095.32 315.595 1092.06 312.328 1088.03 312.328C1086.14 312.328 1084.42 313.056 1083.12 314.239C1081.17 312.487 1078.59 311.412 1075.76 311.412C1071.5 311.412 1067.81 313.828 1065.96 317.363C1065.76 317.354 1065.56 317.332 1065.36 317.332C1057.62 317.332 1051.34 323.614 1051.34 331.363C1051.34 339.112 1057.62 345.395 1065.36 345.395C1065.54 345.395 1065.72 345.374 1065.9 345.368C1067.51 351.81 1072.58 356.864 1079.04 358.438C1078.98 358.759 1078.95 359.088 1078.95 359.426C1078.95 362.536 1081.42 365.062 1084.51 365.148C1085.83 368.288 1087.34 371.287 1089.04 374.105C1088.33 375.411 1087.93 376.908 1087.93 378.5C1087.93 383.586 1092.05 387.708 1097.13 387.708C1097.22 387.708 1097.3 387.697 1097.38 387.695C1097.36 387.906 1097.35 388.118 1097.35 388.334C1097.35 392.677 1100.87 396.196 1105.21 396.196C1107.21 396.196 1109.04 395.436 1110.43 394.197C1112.71 395.251 1115.09 396.098 1117.55 396.703L1129.81 344.189Z" fill="#420F0F"/><path fill-rule="evenodd" clip-rule="evenodd" d="M1080.64 367.036C1080.58 362.343 1084.34 358.488 1089.03 358.428C1093.72 358.368 1097.57 362.125 1097.63 366.819C1097.69 371.513 1093.94 375.367 1089.25 375.427C1084.55 375.487 1080.7 371.73 1080.64 367.036Z" fill="#FFD4C2"/><path fill-rule="evenodd" clip-rule="evenodd" d="M1049.98 331.728L1049.98 331.217C1049.88 323.671 1055.91 317.474 1063.46 317.377L1107.86 316.809C1122.2 316.626 1132.96 329.853 1129.88 343.862L1129.77 344.374L1063.81 345.219C1056.27 345.315 1050.08 339.275 1049.98 331.728Z" fill="#420F0F"/><path fill-rule="evenodd" clip-rule="evenodd" d="M454.442 430.573L454.794 392.752L415.198 381.158L414.432 441.025L434.302 441.28C445.274 441.42 454.292 442.299 454.442 430.573Z" fill="#FFD4C2"/><path fill-rule="evenodd" clip-rule="evenodd" d="M410.719 377.444L411.168 365.249C411.341 351.719 422.442 342.581 435.963 342.754L453.292 342.976C466.813 343.149 477.634 354.258 477.461 367.787L476.854 390.67C476.769 397.364 471.275 402.721 464.586 402.636L434.888 402.255C421.366 402.081 410.546 390.973 410.719 377.444Z" fill="#FFD4C2"/><path fill-rule="evenodd" clip-rule="evenodd" d="M446.444 316.812C429.432 316.812 415.619 330.633 415.619 347.657C415.619 364.68 429.432 378.501 446.444 378.501C463.457 378.501 477.269 364.68 477.269 347.657C477.269 330.633 463.457 316.812 446.444 316.812Z" fill="#FFD4C2"/><path fill-rule="evenodd" clip-rule="evenodd" d="M441.291 372.731L439.483 386.673C439.483 392.711 434.592 397.606 428.557 397.606H408.548V338.143L407.538 338.148L442.301 339.362" fill="#62626C"/><path fill-rule="evenodd" clip-rule="evenodd" d="M482.788 370.196C482.834 366.614 475.302 356.951 475.302 356.951L475.682 375.942C475.682 375.942 482.743 373.777 482.788 370.196Z" fill="#FFD4C2"/><path fill-rule="evenodd" clip-rule="evenodd" d="M480.944 330.895C481.041 323.332 474.992 317.123 467.434 317.026L430.61 316.477C416.246 316.292 405.459 329.548 408.549 343.585H408.75L467.084 344.413C474.642 344.509 480.847 338.457 480.944 330.895Z" fill="#62626C"/><path fill-rule="evenodd" clip-rule="evenodd" d="M443.205 324.637V360.621C453.135 360.621 461.185 352.566 461.185 342.629C461.185 332.692 453.135 324.637 443.205 324.637Z" fill="#62626C"/><path fill-rule="evenodd" clip-rule="evenodd" d="M445.131 360.597L466.432 316.814L416.542 316.049C412.01 315.979 407.663 317.843 404.587 321.174L393.475 333.206L440.438 359.436L445.131 360.597Z" fill="#FF7800"/><path fill-rule="evenodd" clip-rule="evenodd" d="M448.327 367.411C448.388 362.708 444.626 358.846 439.925 358.786C435.224 358.726 431.365 362.49 431.304 367.193C431.244 371.897 435.007 375.759 439.707 375.819C444.408 375.879 448.267 372.115 448.327 367.411Z" fill="#FFD4C2"/><path fill-rule="evenodd" clip-rule="evenodd" d="M472.497 358.888C472.497 358.888 474.616 361.835 472.698 365.436C472.698 365.436 466.915 366.809 462.727 360.287C462.727 360.287 468.321 358.442 472.497 358.888Z" fill="white"/><path d="M472.447 358.614C472.81 359.165 474.452 361.976 472.705 365.394C472.705 365.394 471.564 365.685 469.904 365.459C469.153 364.786 468.636 363.683 468.576 362.417C468.485 360.479 469.497 358.82 470.905 358.467C470.997 358.466 471.088 358.465 471.178 358.465C471.501 358.465 471.82 358.475 472.133 358.496C472.24 358.528 472.344 358.567 472.447 358.614Z" fill="#161615"/><path fill-rule="evenodd" clip-rule="evenodd" d="M473.476 358.951L473.446 357.953C473.446 357.953 467.405 356.469 461.493 359.068L463.076 360.928C463.076 360.928 467.421 358.945 473.476 358.951Z" fill="#161615"/><path fill-rule="evenodd" clip-rule="evenodd" d="M468.695 350.693L468.355 350.701C464.814 350.802 461.541 352.296 459.513 354.735L477.873 354.216C475.628 351.897 472.236 350.592 468.695 350.693Z" fill="#62626C"/><path fill-rule="evenodd" clip-rule="evenodd" d="M477.026 383.226C477.03 382.127 476.142 381.235 475.044 381.235H465.363C465.414 380.945 470.091 388.149 476.558 388.71C476.69 388.721 476.898 388.723 476.908 388.736C476.91 388.739 477.026 383.226 477.026 383.226Z" fill="#E73245"/><path fill-rule="evenodd" clip-rule="evenodd" d="M541.659 523.139L580.431 469.931L562.042 455.742L503.699 512.326L515.885 524.804C523.173 532.265 535.391 531.476 541.659 523.139Z" fill="#FFD4C2"/><path fill-rule="evenodd" clip-rule="evenodd" d="M545.251 508.324L493.735 454.32L473.265 480.481L503.716 512.35L545.251 508.324Z" fill="#FFD4C2"/><path fill-rule="evenodd" clip-rule="evenodd" d="M470.984 422.216C470.839 422.064 470.711 421.903 470.56 421.754C462.535 413.873 449.646 413.995 441.768 422.025C434.04 429.903 434.032 442.458 441.614 450.373L441.598 450.388L474.78 487.6L504.182 459.412L471 422.2L470.984 422.216Z" fill="#232144"/><path fill-rule="evenodd" clip-rule="evenodd" d="M535.418 950.138L502.777 950.503L477.597 875.651L522.201 875.605L535.418 950.138Z" fill="#FFC6AD"/><path fill-rule="evenodd" clip-rule="evenodd" d="M495.712 928.986C495.712 928.986 498.793 939.934 511.96 939.913C524.302 939.893 531.318 928.043 531.318 928.043L556.049 932.098C569.476 935.093 577.01 939.014 576.699 951.65L496.555 951.777L494.301 951.781L495.712 928.986Z" fill="#232144"/><path fill-rule="evenodd" clip-rule="evenodd" d="M494.315 960.687L576.713 960.556L576.698 951.648L494.3 951.778L494.315 960.687Z" fill="#5C93FE"/><path fill-rule="evenodd" clip-rule="evenodd" d="M476.202 913.206L418.215 655.915L397.225 525.51L434.49 525.161L478.394 520.877L479.272 559.071L540.977 911.458L476.202 913.206Z" fill="#477DCE"/><path fill-rule="evenodd" clip-rule="evenodd" d="M365.68 948.71L332.319 941.289L341.651 865.562L382.966 874.777L365.68 948.71Z" fill="#FFC6AD"/><path fill-rule="evenodd" clip-rule="evenodd" d="M335.195 917.945C335.195 917.945 337.09 930.219 349.943 933.078C361.991 935.758 371.425 925.728 371.425 925.728L394.672 935.094C407.121 940.951 413.617 946.425 410.554 958.688L332.32 941.287L330.119 940.798L335.195 917.945Z" fill="#232144"/><path fill-rule="evenodd" clip-rule="evenodd" d="M328.188 949.495L408.622 967.386L410.554 958.69L330.119 940.799L328.188 949.495Z" fill="#5C93FE"/><path fill-rule="evenodd" clip-rule="evenodd" d="M399.904 906.026H328.532L380.119 638.565C384.663 615.011 386.749 591.015 385.76 567.046C385.374 557.653 386.139 547.467 389.776 535.035L399.678 508.562L478.394 520.879L479.368 559.166L399.904 906.026Z" fill="#5C93FE"/><path fill-rule="evenodd" clip-rule="evenodd" d="M454.142 415.963C460.68 425.387 474.256 452.381 475.683 463.763L478.394 520.876L397.698 520.672L399.53 432.027C401.42 417.568 408.349 406.367 429.403 410.439" fill="#232144"/><path fill-rule="evenodd" clip-rule="evenodd" d="M453.597 575.657L481.291 587.314C483.332 588.174 484.29 590.525 483.432 592.568C482.573 594.61 480.22 595.571 478.179 594.711L450.487 583.055C450.354 582.999 450.292 582.845 450.347 582.712L453.255 575.797C453.31 575.664 453.464 575.601 453.597 575.657Z" fill="#FFC6AD"/><path fill-rule="evenodd" clip-rule="evenodd" d="M423.696 506.835L435.379 439.176L397.501 424.787L388.882 513.389C387.696 525.583 396.574 536.446 408.752 537.704L417.805 538.639L423.696 506.835Z" fill="#FFC6AD"/><path fill-rule="evenodd" clip-rule="evenodd" d="M437.848 431.9C437.868 431.691 437.907 431.489 437.922 431.278C438.686 420.052 430.212 410.333 418.994 409.568C407.987 408.816 398.45 416.974 397.372 427.884L397.35 427.882L390.677 477.304L431.197 481.324L437.869 431.902L437.848 431.9Z" fill="#232144"/><path fill-rule="evenodd" clip-rule="evenodd" d="M576.907 471.895L599.485 460.835L578.616 436.861L562.035 455.812L576.907 471.895Z" fill="#FFD4C2"/><path fill-rule="evenodd" clip-rule="evenodd" d="M618.075 452.333C617.465 449.757 614.884 448.163 612.308 448.772L586.157 454.97L587.445 464.518L614.517 458.103C617.091 457.493 618.685 454.909 618.075 452.333Z" fill="#FFD4C2"/><path fill-rule="evenodd" clip-rule="evenodd" d="M624.719 451.079C626.473 449.097 626.29 446.07 624.311 444.314L608.485 430.279L602.129 437.455L617.952 451.487C619.934 453.243 622.963 453.06 624.719 451.079Z" fill="#FFD4C2"/><path fill-rule="evenodd" clip-rule="evenodd" d="M630.513 441.644V441.642C631.285 439.111 629.859 436.433 627.328 435.661L607.103 429.486L604.307 438.658L624.53 444.831C627.062 445.603 629.74 444.177 630.513 441.644Z" fill="#FFD4C2"/><path fill-rule="evenodd" clip-rule="evenodd" d="M578.592 436.85L581.041 446.119L609.482 438.823L607.033 429.553L578.592 436.85Z" fill="#FFD4C2"/><path fill-rule="evenodd" clip-rule="evenodd" d="M579.047 442.31L581.373 451.611L610.256 444.379L607.93 435.078L579.047 442.31Z" fill="#FFD4C2"/><path fill-rule="evenodd" clip-rule="evenodd" d="M601.214 451.397C601.214 451.397 597.178 452.217 595.362 452.454C592.428 452.837 592.254 449.093 594.66 448.436C596.203 448.015 605.127 445.664 605.127 445.664L582.803 440.482L589.523 458.511L601.214 451.397Z" fill="#FFD4C2"/><path fill-rule="evenodd" clip-rule="evenodd" d="M549.839 659.551L479.771 704.009C475.704 706.588 470.299 705.038 468.216 700.693L445.25 652.792C443.487 649.114 444.752 644.7 448.193 642.517L507.722 604.747C511.163 602.564 515.693 603.301 518.264 606.465L551.77 647.68C554.809 651.417 553.905 656.971 549.839 659.551Z" fill="#232144"/><path fill-rule="evenodd" clip-rule="evenodd" d="M452.241 635.289L464.258 654.252L470.504 650.288L458.474 631.303C452.394 621.708 455.239 608.997 464.828 602.912C474.417 596.827 487.121 599.673 493.202 609.27L505.232 628.254L511.479 624.29L499.464 605.328C491.194 592.28 473.921 588.409 460.881 596.683C447.84 604.957 443.973 622.241 452.241 635.289Z" fill="#232144"/><path fill-rule="evenodd" clip-rule="evenodd" d="M450.892 597.203L462.011 614.353C463.151 616.111 462.658 618.46 460.907 619.611C459.144 620.77 456.774 620.272 455.624 618.499L444.529 601.385L450.892 597.203Z" fill="#FFC6AD"/><path fill-rule="evenodd" clip-rule="evenodd" d="M424.013 512.834L456.366 578.846L439.172 592.259L394.295 530.801C388.106 522.326 390.749 510.34 399.925 505.257C408.643 500.427 419.626 503.882 424.013 512.834Z" fill="#FFC6AD"/><path fill-rule="evenodd" clip-rule="evenodd" d="M453.034 575.41L471.116 589.254L448.91 607.843L436.445 588.644L453.034 575.41Z" fill="#FFC6AD"/><path fill-rule="evenodd" clip-rule="evenodd" d="M460.847 588.604L475.491 608.66C476.738 610.367 476.356 612.763 474.642 613.998C472.945 615.222 470.578 614.844 469.345 613.154L454.668 593.055L460.847 588.604Z" fill="#FFC6AD"/><path fill-rule="evenodd" clip-rule="evenodd" d="M466.872 585.543L480.763 604.552C482.01 606.259 481.629 608.656 479.914 609.892C478.216 611.114 475.852 610.738 474.617 609.048L460.694 589.995L466.872 585.543Z" fill="#FFC6AD"/><path fill-rule="evenodd" clip-rule="evenodd" d="M451.685 587.639L468.188 610.573C469.426 612.295 469.035 614.695 467.315 615.935C465.62 617.156 463.257 616.781 462.021 615.095L449.94 598.593L451.685 587.639Z" fill="#FFC6AD"/><path fill-rule="evenodd" clip-rule="evenodd" d="M989.499 950.138L1022.14 950.503L1047.32 875.651L1002.72 875.605L989.499 950.138Z" fill="#FFC6AD"/><path fill-rule="evenodd" clip-rule="evenodd" d="M1029.21 928.986C1029.21 928.986 1026.12 939.934 1012.96 939.913C1000.62 939.893 993.6 928.043 993.6 928.043L968.869 932.098C955.442 935.093 947.907 939.014 948.218 951.65L1028.36 951.777L1030.62 951.781L1029.21 928.986Z" fill="#ABB8B9"/><path fill-rule="evenodd" clip-rule="evenodd" d="M1030.6 960.687L948.204 960.556L948.219 951.648L1030.62 951.778L1030.6 960.687Z" fill="#232144"/><path fill-rule="evenodd" clip-rule="evenodd" d="M1048.72 913.206L1106.7 655.915L1127.69 525.51L1090.43 525.161L1046.52 520.877L1045.64 559.071L983.941 911.458L1048.72 913.206Z" fill="#232144"/><path fill-rule="evenodd" clip-rule="evenodd" d="M1157.99 947.656L1192.55 941.006L1183.27 865.562L1137.96 859.146L1155.25 933.08L1157.99 947.656Z" fill="#FFC6AD"/><path fill-rule="evenodd" clip-rule="evenodd" d="M1189.72 917.945C1189.72 917.945 1187.83 930.219 1174.97 933.078C1162.93 935.758 1153.49 925.728 1153.49 925.728L1130.25 935.094C1117.8 940.951 1111.3 946.425 1114.36 958.688L1192.6 941.287L1194.8 940.798L1189.72 917.945Z" fill="#ABB8B9"/><path fill-rule="evenodd" clip-rule="evenodd" d="M1196.73 949.495L1116.3 967.386L1114.36 958.69L1194.8 940.799L1196.73 949.495Z" fill="#232144"/><path fill-rule="evenodd" clip-rule="evenodd" d="M1125.01 906.026H1196.39L1144.8 638.565C1140.25 615.011 1140.65 590.989 1139.16 567.046C1138.48 556.254 1133.08 548.105 1129.44 535.673L1125.24 508.562L1046.52 520.879L1046.08 562.853L1125.01 906.026Z" fill="#232144"/><path fill-rule="evenodd" clip-rule="evenodd" d="M1073.18 576.016L1044.05 588.277C1042.08 589.106 1041.15 591.379 1041.98 593.353L1042.19 593.852C1043.02 595.826 1045.3 596.754 1047.27 595.923L1076.39 583.663L1073.18 576.016Z" fill="#FFC6AD"/><path fill-rule="evenodd" clip-rule="evenodd" d="M1080.19 431.219C1062.47 451.171 1084.96 446.183 1084.96 446.183C1078.42 455.609 1045.18 457.413 1043.75 468.797L1039.43 570.887L1142.45 573.547L1133.48 445.851C1131.59 431.392 1119.32 413.394 1105.01 416.144C1105.01 416.144 1080.34 431.054 1080.19 431.219Z" fill="#ABB8B9"/><path fill-rule="evenodd" clip-rule="evenodd" d="M1103.9 511.03L1101.02 444.522L1138.24 434.324L1140.24 514.577C1141.36 526.145 1129.3 535.908 1117.75 537.102L1109.16 537.988L1103.9 511.03Z" fill="#FFC6AD"/><path fill-rule="evenodd" clip-rule="evenodd" d="M1085.61 621.53L1072.12 641.475C1070.11 644.455 1066.06 645.236 1063.08 643.22L1021.34 614.964C1018.37 612.95 1017.59 608.904 1019.6 605.927L1033.08 585.98C1035.1 583.002 1039.15 582.221 1042.12 584.236L1083.86 612.492C1086.84 614.507 1087.62 618.552 1085.61 621.53Z" fill="#FF7800"/><path fill-rule="evenodd" clip-rule="evenodd" d="M948.01 471.895L925.433 460.835L946.301 436.861L962.883 455.812L948.01 471.895Z" fill="#FFD4C2"/><path fill-rule="evenodd" clip-rule="evenodd" d="M900.199 451.079C898.444 449.097 898.627 446.07 900.606 444.314L916.433 430.279L922.789 437.455L906.965 451.487C904.984 453.243 901.954 453.06 900.199 451.079Z" fill="#FFD4C2"/><path fill-rule="evenodd" clip-rule="evenodd" d="M894.405 441.644V441.642C893.633 439.111 895.059 436.433 897.59 435.661L917.815 429.486L920.611 438.658L900.388 444.831C897.856 445.603 895.177 444.177 894.405 441.644Z" fill="#FFD4C2"/><path fill-rule="evenodd" clip-rule="evenodd" d="M946.326 436.85L943.877 446.119L915.437 438.823L917.885 429.553L946.326 436.85Z" fill="#FFD4C2"/><path fill-rule="evenodd" clip-rule="evenodd" d="M945.871 442.31L943.545 451.611L914.661 444.379L916.987 435.078L945.871 442.31Z" fill="#FFD4C2"/><path fill-rule="evenodd" clip-rule="evenodd" d="M923.704 451.397C923.704 451.397 927.74 452.217 929.555 452.454C932.49 452.837 932.663 449.093 930.257 448.436C928.715 448.015 919.791 445.664 919.791 445.664L942.114 440.482L935.395 458.511L923.704 451.397Z" fill="#FFD4C2"/><path fill-rule="evenodd" clip-rule="evenodd" d="M1075.73 598.393L1059.54 623.055C1058.42 624.754 1058.9 627.035 1060.59 628.151L1061.02 628.432C1062.72 629.548 1065 629.076 1066.12 627.377L1082.31 602.716L1075.73 598.393Z" fill="#FFC6AD"/><path fill-rule="evenodd" clip-rule="evenodd" d="M1103.51 511.174L1070.07 579.416L1087.84 593.282L1134.24 529.747C1140.63 520.986 1137.9 508.596 1128.42 503.34C1119.4 498.347 1108.05 501.919 1103.51 511.174Z" fill="#FFC6AD"/><path fill-rule="evenodd" clip-rule="evenodd" d="M1073.51 575.865L1054.82 590.176L1077.78 609.393L1090.66 589.546L1073.51 575.865Z" fill="#FFC6AD"/><path fill-rule="evenodd" clip-rule="evenodd" d="M1061.63 595.342L1041.72 623.015C1040.53 624.664 1040.91 626.963 1042.55 628.151L1042.97 628.451C1044.62 629.639 1046.92 629.264 1048.11 627.614L1068.02 599.943L1061.63 595.342Z" fill="#FFC6AD"/><path fill-rule="evenodd" clip-rule="evenodd" d="M1057.3 589.256L1038.17 615.847C1036.98 617.496 1037.36 619.795 1039.01 620.982L1039.42 621.283C1041.07 622.471 1043.37 622.096 1044.56 620.446L1063.69 593.857L1057.3 589.256Z" fill="#FFC6AD"/><path fill-rule="evenodd" clip-rule="evenodd" d="M1067.91 599.291L1050.68 623.237C1049.5 624.886 1049.87 627.186 1051.52 628.373L1051.94 628.672C1053.58 629.861 1055.88 629.486 1057.07 627.836L1074.3 603.892L1067.91 599.291Z" fill="#FFC6AD"/><path fill-rule="evenodd" clip-rule="evenodd" d="M726.757 504.481H655.85C620.127 504.481 591.063 475.402 591.063 439.658C591.063 403.915 620.127 374.836 655.85 374.836H726.757C762.481 374.836 791.544 403.915 791.544 439.658C791.544 446.429 786.057 451.917 779.288 451.917C772.518 451.917 767.031 446.429 767.031 439.658C767.031 417.435 748.965 399.354 726.757 399.354H655.85C633.643 399.354 615.576 417.435 615.576 439.658C615.576 461.882 633.643 479.963 655.85 479.963H726.757C733.527 479.963 739.013 485.451 739.013 492.222C739.013 498.993 733.527 504.481 726.757 504.481Z" fill="#FF7800"/><path fill-rule="evenodd" clip-rule="evenodd" d="M867.295 504.481H796.387C760.664 504.481 731.601 475.402 731.601 439.658C731.601 432.887 737.088 427.399 743.857 427.399C750.626 427.399 756.114 432.887 756.114 439.658C756.114 461.882 774.18 479.963 796.387 479.963H867.295C889.501 479.963 907.569 461.882 907.569 439.658C907.569 417.435 889.501 399.354 867.295 399.354H796.387C789.618 399.354 784.13 393.866 784.13 387.095C784.13 380.324 789.618 374.836 796.387 374.836H867.295C903.018 374.836 932.082 403.915 932.082 439.658C932.082 475.402 903.018 504.481 867.295 504.481Z" fill="#FF7800"/><path fill-rule="evenodd" clip-rule="evenodd" d="M906.843 452.333C907.453 449.757 910.034 448.163 912.61 448.772L939.058 453.555L937.473 464.518L910.401 458.103C907.826 457.493 906.233 454.909 906.843 452.333Z" fill="#FFD4C2"/><path fill-rule="evenodd" clip-rule="evenodd" d="M618.075 452.333C617.465 449.757 614.884 448.163 612.308 448.772L586.157 454.97L587.445 464.518L614.517 458.103C617.091 457.493 618.685 454.909 618.075 452.333Z" fill="#FFD4C2"/><path fill-rule="evenodd" clip-rule="evenodd" d="M1092.02 436.26C1092 436.051 1091.95 435.849 1091.94 435.638C1091.24 424.406 1101.45 414.514 1114.76 413.542C1127.81 412.589 1138.95 420.586 1140.03 431.497L1140.06 431.494L1145.33 486.644L1097.27 491.412L1091.99 436.264L1092.02 436.26Z" fill="#ABB8B9"/><path fill-rule="evenodd" clip-rule="evenodd" d="M1382.39 249.42C1347.45 252.93 1309.23 249.735 1273.92 249.733C1236.41 249.732 1198.89 249.73 1161.38 249.729C1086.35 249.724 1011.32 249.721 936.295 249.718C945.577 240.666 955.245 231.672 967.279 224.879C979.313 218.087 994.094 213.618 1008.87 214.737C1026.15 216.044 1041.06 224.61 1057.78 228.253C1078.07 232.676 1100.91 229.282 1117.7 219.345C1139.23 206.609 1152.88 183.408 1179.59 180.321C1195.19 178.519 1210.51 184.566 1223.34 191.732C1236.16 198.899 1248.03 207.488 1262.69 212.016C1277.38 216.549 1293.6 216.616 1309.39 216.707C1325.18 216.798 1341.44 217.051 1355.95 221.903C1368.61 226.133 1385.06 237.489 1382.39 249.42Z" fill="#D8E5F5"/><path fill-rule="evenodd" clip-rule="evenodd" d="M193 575.842H343.895C338.498 560.414 303.985 559.852 288.451 560.405C277.206 560.804 265.933 560.023 254.914 557.74C234.899 553.592 221.888 546.822 221.888 546.822C210.95 543.588 201.311 542.891 193 543.666V575.842Z" fill="#D8E5F5"/></svg>