<?xml version="1.0" encoding="utf-8"?><!--Generator: Adobe Illustrator 27.8.0, SVG Export Plug-In . SVG Version: 6.00 Build 0)--><svg version="1.1" xmlns="http://www.w3.org/2000/svg" xmlns:xlink="http://www.w3.org/1999/xlink" x="0px" y="0px" viewBox="0 0 160 160" style="enable-background:new 0 0 160 160;" xml:space="preserve"><style type="text/css">.st0{fill:#DBCBC4;}
	.st1{fill:#FB003D;}
	.st2{fill:#FAE5CA;}
	.st3{fill:#00421A;}
	.st4{fill:#006C29;}
	.st5{fill:#4C2741;}
	.st6{fill:#843F6E;}
	.st7{fill:#FF8E00;}</style><g id="Market_stall"><polyline class="st0" points="144,86.41 59.01,86.41 59.01,24.47 54.86,24.47 54.86,144 144,144 	"/><path class="st1" d="M59.83,37.95L59.83,37.95c-2.74,0-4.96-2.22-4.96-4.96V16h9.93v16.99C64.79,35.72,62.57,37.95,59.83,37.95z"/><path class="st2" d="M69.73,37.95L69.73,37.95c-2.74,0-4.96-2.22-4.96-4.96V16h9.93v16.98C74.69,35.72,72.47,37.95,69.73,37.95z"/><path class="st1" d="M79.63,37.95L79.63,37.95c-2.74,0-4.96-2.22-4.96-4.96V16h9.93v16.98C84.59,35.72,82.37,37.95,79.63,37.95z"/><path class="st2" d="M89.53,37.95L89.53,37.95c-2.74,0-4.96-2.22-4.96-4.96V16h9.93v16.98C94.49,35.72,92.27,37.95,89.53,37.95z"/><path class="st1" d="M99.43,37.95L99.43,37.95c-2.74,0-4.96-2.22-4.96-4.96V16h9.93v16.98C104.39,35.72,102.17,37.95,99.43,37.95z"/><path class="st2" d="M109.33,37.95L109.33,37.95c-2.74,0-4.96-2.22-4.96-4.96V16h9.93v16.98C114.3,35.72,112.07,37.95,109.33,37.95
		z"/><path class="st1" d="M119.23,37.95L119.23,37.95c-2.74,0-4.96-2.22-4.96-4.96V16h9.93v16.98C124.2,35.72,121.98,37.95,119.23,37.95
		z"/><path class="st2" d="M129.14,37.95L129.14,37.95c-2.74,0-4.96-2.22-4.96-4.96V16h9.93v16.98C134.1,35.72,131.88,37.95,129.14,37.95
		z"/><path class="st1" d="M139.04,37.95L139.04,37.95c-2.74,0-4.96-2.22-4.96-4.96V16H144v16.98C144,35.72,141.78,37.95,139.04,37.95z"/></g><g id="Produce"><circle class="st3" cx="137.76" cy="80.2" r="6.24"/><path class="st4" d="M141.39,80.21c0,2.83-1.01,5.23-2.43,6.12c0.57-0.11,1.1-0.3,1.6-0.56c0.95-1.32,1.55-3.3,1.55-5.57
		c0-2.26-0.6-4.25-1.55-5.57c-0.5-0.25-1.04-0.45-1.6-0.56C140.38,74.98,141.39,77.38,141.39,80.21z"/><path class="st4" d="M134.12,80.21c0-2.83,1.01-5.23,2.42-6.12c-0.57,0.11-1.1,0.3-1.6,0.56c-0.95,1.32-1.55,3.3-1.55,5.57
		c0,2.26,0.6,4.25,1.55,5.57c0.5,0.25,1.04,0.45,1.6,0.56C135.13,85.43,134.12,83.03,134.12,80.21z"/><rect x="137.41" y="73.96" class="st4" width="0.7" height="12.49"/><circle class="st3" cx="131.35" cy="69.25" r="6.24"/><path class="st4" d="M134.08,71.66c-1.87,2.12-4.22,3.25-5.87,2.99c0.5,0.29,1.03,0.5,1.57,0.64c1.59-0.36,3.35-1.45,4.85-3.15
		c1.5-1.7,2.36-3.58,2.52-5.2c-0.21-0.52-0.48-1.02-0.83-1.48C136.78,67.06,135.95,69.54,134.08,71.66z"/><path class="st4" d="M128.62,66.85c1.87-2.12,4.22-3.25,5.87-2.99c-0.5-0.29-1.03-0.5-1.57-0.64c-1.59,0.36-3.35,1.45-4.85,3.15
		c-1.5,1.7-2.36,3.58-2.52,5.2c0.21,0.52,0.48,1.02,0.83,1.48C125.93,71.44,126.75,68.96,128.62,66.85z"/><rect x="125.11" y="68.9" transform="matrix(0.6615 -0.75 0.75 0.6615 -7.4695 121.9537)" class="st4" width="12.49" height="0.7"/><circle class="st3" cx="125.21" cy="80.2" r="6.24"/><path class="st4" d="M128.47,78.6c1.25,2.53,1.4,5.14,0.54,6.56c0.46-0.35,0.86-0.76,1.19-1.21c0.27-1.6-0.07-3.65-1.07-5.68
		c-1-2.03-2.42-3.55-3.86-4.31c-0.56-0.01-1.13,0.06-1.69,0.21C125.24,74.36,127.22,76.06,128.47,78.6z"/><path class="st4" d="M121.95,81.82c-1.25-2.53-1.4-5.14-0.54-6.57c-0.46,0.35-0.86,0.76-1.19,1.21c-0.27,1.6,0.07,3.65,1.07,5.68
		c1,2.03,2.42,3.55,3.85,4.31c0.56,0.01,1.13-0.06,1.69-0.21C125.17,86.05,123.2,84.35,121.95,81.82z"/><rect x="124.86" y="73.96" transform="matrix(0.8967 -0.4426 0.4426 0.8967 -22.5675 63.7018)" class="st4" width="0.7" height="12.49"/><path class="st5" d="M84.62,80.8L84.62,80.8c-2.02,0.69-4.21-0.39-4.9-2.41l-2.65-7.79c-0.69-2.02,0.39-4.21,2.41-4.9l0,0
		c2.02-0.69,4.21,0.39,4.9,2.41l2.65,7.79C87.71,77.92,86.63,80.11,84.62,80.8z"/><polygon class="st3" points="80.39,65.45 82.48,65.06 81.25,66.17 82.27,68.04 80.17,67.71 78.7,69.25 78.37,67.15 76.72,67.02 
		78.61,66.05 77.82,62.2 78.59,61.94 	"/><path class="st5" d="M68.49,80.74L68.49,80.74c-2.02,0.69-4.21-0.39-4.9-2.41l-2.65-7.79c-0.69-2.02,0.39-4.21,2.41-4.9h0
		c2.02-0.69,4.21,0.39,4.9,2.41l2.65,7.79C71.59,77.87,70.51,80.06,68.49,80.74z"/><polygon class="st3" points="64.27,65.39 66.36,65.01 65.13,66.12 66.14,67.99 64.04,67.66 62.58,69.2 62.25,67.1 60.59,66.97 
		62.49,66 61.7,62.15 62.46,61.89 	"/><path class="st5" d="M76.58,80.8L76.58,80.8c-2.02,0.69-4.21-0.39-4.9-2.41l-2.65-7.79c-0.69-2.02,0.39-4.21,2.41-4.9l0,0
		c2.02-0.69,4.21,0.39,4.9,2.41l2.65,7.79C79.68,77.92,78.6,80.11,76.58,80.8z"/><polygon class="st3" points="72.36,65.45 74.45,65.06 73.22,66.17 74.23,68.04 72.13,67.71 70.67,69.25 70.33,67.15 68.68,67.02 
		70.57,66.05 69.79,62.2 70.55,61.94 	"/><path class="st6" d="M84.62,85.67L84.62,85.67c-2.02,0.69-4.21-0.39-4.9-2.41l-2.65-7.79c-0.69-2.02,0.39-4.21,2.41-4.9l0,0
		c2.02-0.69,4.21,0.39,4.9,2.41l2.65,7.79C87.71,82.79,86.63,84.98,84.62,85.67z"/><polygon class="st4" points="80.39,70.32 82.48,69.93 81.25,71.05 82.27,72.91 80.17,72.58 78.7,74.12 78.37,72.02 76.72,71.89 
		78.61,70.93 77.82,67.08 78.59,66.82 	"/><path class="st6" d="M68.49,85.62L68.49,85.62c-2.02,0.69-4.21-0.39-4.9-2.41l-2.65-7.79c-0.69-2.02,0.39-4.21,2.41-4.9h0
		c2.02-0.69,4.21,0.39,4.9,2.41l2.65,7.79C71.59,82.74,70.51,84.93,68.49,85.62z"/><polygon class="st4" points="64.27,70.27 66.36,69.88 65.13,70.99 66.14,72.86 64.04,72.53 62.58,74.07 62.25,71.97 60.59,71.84 
		62.49,70.87 61.7,67.02 62.46,66.76 	"/><path class="st6" d="M76.58,85.67L76.58,85.67c-2.02,0.69-4.21-0.39-4.9-2.41l-2.65-7.79c-0.69-2.02,0.39-4.21,2.41-4.9l0,0
		c2.02-0.69,4.21,0.39,4.9,2.41l2.65,7.79C79.68,82.79,78.6,84.98,76.58,85.67z"/><polygon class="st4" points="72.36,70.32 74.45,69.93 73.22,71.05 74.23,72.91 72.13,72.58 70.67,74.12 70.33,72.02 68.68,71.89 
		70.57,70.93 69.79,67.08 70.55,66.82 	"/><rect x="60.74" y="77.26" class="st2" width="27.21" height="9.15"/><path class="st3" d="M91.79,65.61c-0.98,0-1.77,0.79-1.77,1.77v5.9c0,0.98,0.79,1.77,1.77,1.77c0.37,0,0.71-0.11,1-0.31
		c0.29,0.59,0.89,1.01,1.59,1.01c0.7,0,1.3-0.41,1.59-1.01c0.28,0.19,0.63,0.31,1,0.31c0.98,0,1.77-0.79,1.77-1.77v-5.9
		c0-0.98-0.79-1.77-1.77-1.77H91.79z"/><polygon class="st4" points="95.1,65.35 96.86,65.61 95.59,66.16 95.89,67.92 94.31,67.09 92.73,67.92 93.03,66.16 91.76,65.61 
		93.52,65.35 93.93,62.08 94.61,62.08 	"/><path class="st3" d="M100.69,65.61c-0.98,0-1.77,0.79-1.77,1.77v5.9c0,0.98,0.79,1.77,1.77,1.77c0.37,0,0.71-0.11,1-0.31
		c0.29,0.59,0.89,1.01,1.59,1.01c0.7,0,1.3-0.41,1.59-1.01c0.28,0.19,0.63,0.31,1,0.31c0.98,0,1.77-0.79,1.77-1.77v-5.9
		c0-0.98-0.79-1.77-1.77-1.77H100.69z"/><polygon class="st4" points="104,65.35 105.76,65.61 104.48,66.16 104.78,67.92 103.21,67.09 101.63,67.92 101.93,66.16 
		100.65,65.61 102.42,65.35 102.83,62.08 103.51,62.08 	"/><path class="st3" d="M109.59,65.61c-0.98,0-1.77,0.79-1.77,1.77v5.9c0,0.98,0.79,1.77,1.77,1.77c0.37,0,0.71-0.11,1-0.31
		c0.29,0.59,0.89,1.01,1.59,1.01c0.7,0,1.3-0.41,1.59-1.01c0.28,0.19,0.63,0.31,1,0.31c0.98,0,1.77-0.79,1.77-1.77v-5.9
		c0-0.98-0.79-1.77-1.77-1.77H109.59z"/><polygon class="st4" points="112.89,65.35 114.66,65.61 113.38,66.16 113.68,67.92 112.1,67.09 110.53,67.92 110.83,66.16 
		109.55,65.61 111.31,65.35 111.73,62.08 112.4,62.08 	"/><path class="st7" d="M96.92,68.73c-0.98,0-1.77,0.79-1.77,1.77v5.9c0,0.98,0.79,1.77,1.77,1.77c0.37,0,0.71-0.11,1-0.31
		c0.29,0.59,0.89,1.01,1.59,1.01s1.3-0.41,1.59-1.01c0.28,0.19,0.63,0.31,1,0.31c0.98,0,1.77-0.79,1.77-1.77v-5.9
		c0-0.98-0.79-1.77-1.77-1.77H96.92z"/><polygon class="st4" points="100.23,68.47 101.99,68.72 100.71,69.28 101.01,71.03 99.44,70.2 97.86,71.03 98.16,69.28 
		96.88,68.72 98.65,68.47 99.06,65.2 99.74,65.2 	"/><path class="st7" d="M105.82,68.73c-0.98,0-1.77,0.79-1.77,1.77v5.9c0,0.98,0.79,1.77,1.77,1.77c0.37,0,0.71-0.11,1-0.31
		c0.29,0.59,0.89,1.01,1.59,1.01s1.3-0.41,1.59-1.01c0.28,0.19,0.63,0.31,1,0.31c0.98,0,1.77-0.79,1.77-1.77v-5.9
		c0-0.98-0.79-1.77-1.77-1.77H105.82z"/><polygon class="st4" points="109.12,68.47 110.89,68.72 109.61,69.28 109.91,71.03 108.33,70.2 106.76,71.03 107.06,69.28 
		105.78,68.72 107.54,68.47 107.96,65.2 108.63,65.2 	"/><path class="st1" d="M91.79,72.26c-0.98,0-1.77,0.79-1.77,1.77v5.9c0,0.98,0.79,1.77,1.77,1.77c0.37,0,0.71-0.11,1-0.31
		c0.29,0.59,0.89,1.01,1.59,1.01s1.3-0.41,1.59-1.01c0.28,0.19,0.63,0.31,1,0.31c0.98,0,1.77-0.79,1.77-1.77v-5.9
		c0-0.98-0.79-1.77-1.77-1.77H91.79z"/><polygon class="st4" points="95.1,72 96.86,72.25 95.59,72.8 95.89,74.56 94.31,73.73 92.73,74.56 93.03,72.8 91.76,72.25 
		93.52,72 93.93,68.73 94.61,68.73 	"/><path class="st1" d="M100.69,72.26c-0.98,0-1.77,0.79-1.77,1.77v5.9c0,0.98,0.79,1.77,1.77,1.77c0.37,0,0.71-0.11,1-0.31
		c0.29,0.59,0.89,1.01,1.59,1.01s1.3-0.41,1.59-1.01c0.28,0.19,0.63,0.31,1,0.31c0.98,0,1.77-0.79,1.77-1.77v-5.9
		c0-0.98-0.79-1.77-1.77-1.77H100.69z"/><polygon class="st4" points="104,72 105.76,72.25 104.48,72.8 104.78,74.56 103.21,73.73 101.63,74.56 101.93,72.8 100.65,72.25 
		102.42,72 102.83,68.73 103.51,68.73 	"/><path class="st1" d="M109.59,72.26c-0.98,0-1.77,0.79-1.77,1.77v5.9c0,0.98,0.79,1.77,1.77,1.77c0.37,0,0.71-0.11,1-0.31
		c0.29,0.59,0.89,1.01,1.59,1.01s1.3-0.41,1.59-1.01c0.28,0.19,0.63,0.31,1,0.31c0.98,0,1.77-0.79,1.77-1.77v-5.9
		c0-0.98-0.79-1.77-1.77-1.77H109.59z"/><polygon class="st4" points="112.89,72 114.66,72.25 113.38,72.8 113.68,74.56 112.1,73.73 110.53,74.56 110.83,72.8 109.55,72.25 
		111.31,72 111.73,68.73 112.4,68.73 	"/><rect x="89.68" y="77.26" class="st2" width="27.21" height="9.15"/></g><g id="Tomatoes"><circle class="st1" cx="21.83" cy="132.81" r="3.25"/><polygon class="st4" points="23,128.93 22.75,128.68 21.83,129.6 20.91,128.68 20.65,128.93 21.58,129.86 20.65,130.78 
		20.91,131.03 21.83,130.11 22.75,131.03 23,130.78 22.08,129.86 	"/><circle class="st1" cx="48.94" cy="132.71" r="3.25"/><polygon class="st4" points="50.12,128.83 49.86,128.58 48.94,129.5 48.02,128.58 47.76,128.83 48.69,129.75 47.76,130.68 
		48.02,130.93 48.94,130.01 49.86,130.93 50.12,130.68 49.19,129.75 	"/><circle class="st1" cx="42.16" cy="132.71" r="3.25"/><polygon class="st4" points="43.34,128.83 43.08,128.58 42.16,129.5 41.24,128.58 40.99,128.83 41.91,129.75 40.99,130.68 
		41.24,130.93 42.16,130.01 43.08,130.93 43.34,130.68 42.42,129.75 	"/><circle class="st1" cx="28.61" cy="132.71" r="3.25"/><circle class="st1" cx="35.38" cy="132.71" r="3.25"/><polygon class="st4" points="29.53,128.58 28.61,129.5 27.68,128.58 27.43,128.83 28.35,129.75 27.43,130.68 27.68,130.93 
		28.61,130.01 29.53,130.93 29.78,130.68 28.86,129.75 29.78,128.83 	"/><polygon class="st4" points="36.56,128.83 36.31,128.58 35.38,129.5 34.46,128.58 34.21,128.83 35.13,129.75 34.21,130.68 
		34.46,130.93 35.38,130.01 36.31,130.93 36.56,130.68 35.64,129.75 	"/><circle class="st1" cx="42.16" cy="121.42" r="3.25"/><circle class="st1" cx="28.61" cy="121.42" r="3.25"/><circle class="st1" cx="35.38" cy="121.42" r="3.25"/><polygon class="st4" points="43.34,117.54 43.08,117.29 42.16,118.21 41.24,117.29 40.99,117.54 41.91,118.46 40.99,119.38 
		41.24,119.64 42.16,118.71 43.08,119.64 43.34,119.38 42.42,118.46 	"/><polygon class="st4" points="29.53,117.29 28.61,118.21 27.68,117.29 27.43,117.54 28.35,118.46 27.43,119.38 27.68,119.64 
		28.61,118.71 29.53,119.64 29.78,119.38 28.86,118.46 29.78,117.54 	"/><polygon class="st4" points="36.31,117.29 35.38,118.21 34.46,117.29 34.21,117.54 35.13,118.46 34.21,119.38 34.46,119.64 
		35.38,118.71 36.31,119.64 36.56,119.38 35.64,118.46 36.56,117.54 	"/><circle class="st1" cx="25.23" cy="127.14" r="3.25"/><circle class="st1" cx="45.56" cy="127.04" r="3.25"/><circle class="st1" cx="32.01" cy="127.04" r="3.25"/><circle class="st1" cx="38.79" cy="127.04" r="3.25"/><polygon class="st4" points="26.15,123.01 25.23,123.93 24.31,123.01 24.05,123.26 24.98,124.18 24.05,125.11 24.31,125.36 
		25.23,124.44 26.15,125.36 26.41,125.11 25.48,124.18 26.41,123.26 	"/><polygon class="st4" points="46.74,123.16 46.49,122.91 45.56,123.83 44.64,122.91 44.39,123.16 45.31,124.08 44.39,125 
		44.64,125.26 45.56,124.34 46.49,125.26 46.74,125 45.82,124.08 	"/><polygon class="st4" points="32.93,122.91 32.01,123.83 31.09,122.91 30.83,123.16 31.75,124.08 30.83,125 31.09,125.26 
		32.01,124.34 32.93,125.26 33.18,125 32.26,124.08 33.18,123.16 	"/><polygon class="st4" points="39.71,122.91 38.79,123.83 37.86,122.91 37.61,123.16 38.53,124.08 37.61,125 37.86,125.26 
		38.79,124.34 39.71,125.26 39.96,125 39.04,124.08 39.96,123.16 	"/><rect x="16" y="132.71" class="st2" width="38.86" height="11.28"/></g></svg>