<svg viewBox="0 0 1600 1200" fill="none" xmlns="http://www.w3.org/2000/svg"><path fill-rule="evenodd" clip-rule="evenodd" d="M690.665 364.893L742.953 333.705L783.02 451.247L747.235 470.713L690.665 364.893Z" fill="#BF7461"/><path fill-rule="evenodd" clip-rule="evenodd" d="M761.209 376.762C761.209 376.762 736.104 299.137 710.54 299.137C693.028 299.137 677.855 310.908 676.539 328.367C675.223 345.827 712.007 418.085 712.007 418.085L761.209 376.762Z" fill="#E6E3DA"/><path fill-rule="evenodd" clip-rule="evenodd" d="M531.296 548.483L534.568 579.295L497 578.029L502.269 545.678L531.296 548.483Z" fill="#BF7461"/><path fill-rule="evenodd" clip-rule="evenodd" d="M502.024 549.155L510.627 429.729L558.369 434.542L530.631 551.285L502.024 549.155Z" fill="#BF7461"/><path fill-rule="evenodd" clip-rule="evenodd" d="M543.411 601.104L543.41 601.105C540.87 602.915 537.346 602.323 535.536 599.783L517.894 575.039C516.766 573.457 517.134 571.259 518.716 570.132L523.64 566.621C524.421 566.065 525.505 566.247 526.062 567.028L544.732 593.215C546.545 595.758 545.953 599.292 543.411 601.104Z" fill="#BF7461"/><path fill-rule="evenodd" clip-rule="evenodd" d="M539.758 623.81C537.867 626.289 534.326 626.766 531.847 624.875L512.012 609.744L518.867 600.76L538.693 615.884C541.175 617.777 541.653 621.327 539.758 623.81Z" fill="#BF7461"/><path fill-rule="evenodd" clip-rule="evenodd" d="M540.612 617.977C538.372 620.148 534.799 620.092 532.629 617.853L515.266 599.942L523.38 592.076L540.736 609.979C542.909 612.222 542.854 615.803 540.612 617.977Z" fill="#BF7461"/><path fill-rule="evenodd" clip-rule="evenodd" d="M497 578.03L507.208 573.18L522.281 604.897L512.012 609.745L497 578.03Z" fill="#BF7461"/><path fill-rule="evenodd" clip-rule="evenodd" d="M501.782 575.54L511.707 570.133L528.508 600.97L518.583 606.375L501.782 575.54Z" fill="#BF7461"/><path fill-rule="evenodd" clip-rule="evenodd" d="M527.073 587.979C527.073 587.979 524.436 583.476 523.412 582.161C521.286 579.431 518.299 581.775 519.598 584.384C520.432 586.059 523.494 591.414 525.521 595.486C517.704 588.784 503.437 580.227 503.437 580.227L524.384 572.07L527.073 587.979Z" fill="#BF7461"/><path fill-rule="evenodd" clip-rule="evenodd" d="M519.854 330.262L510.332 432.907L557.424 438.968L579.413 334.244L519.854 330.262Z" fill="#BF7461"/><path fill-rule="evenodd" clip-rule="evenodd" d="M503.437 384.615C503.437 384.615 511.539 336.594 518.605 326.018C526.363 314.407 534.349 306.432 549.887 302.35C567.398 302.35 583.752 313.998 585.068 331.459C586.384 348.919 551.586 418.086 551.586 418.086L503.437 384.615Z" fill="#E6E3DA"/><path fill-rule="evenodd" clip-rule="evenodd" d="M712.702 454.79V299.108C712.702 299.108 653.271 283.766 632.742 283.766C614.038 283.766 547.548 303.019 547.548 303.019L552.783 454.79H712.702Z" fill="#E6E3DA"/><path fill-rule="evenodd" clip-rule="evenodd" d="M568.493 1008.21L562.907 944.541H613.59V1008.21H568.493Z" fill="#BF7461"/><path fill-rule="evenodd" clip-rule="evenodd" d="M568.493 1008.21L564.792 966.031H613.59V1008.21H568.493Z" fill="#E6E3DA"/><path fill-rule="evenodd" clip-rule="evenodd" d="M626.815 953.947L631.241 483.283L551.506 497.824L553.054 954.064L626.815 953.947Z" fill="#2E3192"/><path fill-rule="evenodd" clip-rule="evenodd" d="M687.958 989.712L685.232 865.246L750.147 859.607L734.884 990.081L687.958 989.712Z" fill="#BF7461"/><path fill-rule="evenodd" clip-rule="evenodd" d="M687.958 989.713L687.371 962.92L738.091 962.67L734.884 990.082L687.958 989.713Z" fill="#E6E3DA"/><path fill-rule="evenodd" clip-rule="evenodd" d="M589.163 978.097C570.085 978.828 564.648 988.863 564.648 988.863L564.985 993.101L549.896 1006.14V1019.68H614.505L613.922 985.774C613.922 985.774 605.719 977.463 589.163 978.097Z" fill="#232144"/><path fill-rule="evenodd" clip-rule="evenodd" d="M796.253 1005.66L737.481 975.793L735.843 976.913C722.087 986.323 705.285 988.54 689.918 982.97L686.288 981.655V996.11V1005.66V1019.68H796.253V1005.66Z" fill="#232144"/><path fill-rule="evenodd" clip-rule="evenodd" d="M687.394 717.885L604.504 485.17L706.625 505.29L768.073 712.044L750.848 952.269H678.286L687.394 717.885Z" fill="#2E3192"/><path fill-rule="evenodd" clip-rule="evenodd" d="M710.115 551.658V473.109H551.587L552.438 552.133L710.115 551.658Z" fill="#2E3192"/><path fill-rule="evenodd" clip-rule="evenodd" d="M549.777 519.142H712.702V354.742H549.777V519.142Z" fill="#E6E3DA"/><path fill-rule="evenodd" clip-rule="evenodd" d="M655.004 295.652L658.456 258.738L607.551 254.209L604.122 290.896C603.009 302.786 611.749 313.326 623.64 314.437L631.46 315.168C643.352 316.281 653.893 307.543 655.004 295.652Z" fill="#BF7461"/><path fill-rule="evenodd" clip-rule="evenodd" d="M627.324 331.942L637.802 317.167L648.28 302.391L630.245 300.705L612.209 299.02L619.766 315.481L627.324 331.942Z" fill="#BF7461"/><path fill-rule="evenodd" clip-rule="evenodd" d="M688.821 259.851C687.726 262.861 680.869 261.098 680.869 261.098L686.596 242.932C686.596 242.932 689.915 256.846 688.821 259.851Z" fill="#BF7461"/><path fill-rule="evenodd" clip-rule="evenodd" d="M674.671 281.038L696.165 217.078C699.437 207.341 694.199 196.793 684.469 193.523L647.288 181.032C639.101 178.28 630.235 182.691 627.481 190.884L608.946 246.044C603.94 260.938 611.951 277.072 626.834 282.073L654.147 291.248C662.63 294.099 671.818 289.529 674.671 281.038Z" fill="#BF7461"/><path fill-rule="evenodd" clip-rule="evenodd" d="M678.522 239.498C675.033 237.802 671.51 237.858 670.653 239.621C669.796 241.386 671.93 244.19 675.418 245.884C678.907 247.58 682.011 241.193 678.522 239.498Z" fill="white"/><path fill-rule="evenodd" clip-rule="evenodd" d="M680.266 244.293C681.137 242.5 680.922 240.597 679.785 240.044C678.646 239.491 677.017 240.498 676.146 242.292C675.274 244.085 675.489 245.988 676.627 246.541C677.765 247.093 679.394 246.086 680.266 244.293Z" fill="black"/><path fill-rule="evenodd" clip-rule="evenodd" d="M685.084 232.654C686.613 233.168 688.412 231.919 689.103 229.865L689.118 229.819C689.669 228.18 688.776 226.401 687.123 225.846L677.643 222.661C675.99 222.105 674.204 222.984 673.653 224.623C672.954 226.703 673.643 228.81 675.19 229.33L685.084 232.654Z" fill="#4F4F59"/><path fill-rule="evenodd" clip-rule="evenodd" d="M670.506 188.832L648.569 181.461C631.677 175.786 613.89 187.276 612.122 205.008L607.038 256.004L608.184 256.327C619.399 259.495 631.321 254.527 636.967 244.332L639.381 239.974C639.381 239.974 647.769 243.067 650.608 236.294L670.506 188.832Z" fill="#4F4F59"/><path fill-rule="evenodd" clip-rule="evenodd" d="M633.918 206.861L638.829 192.246C641.191 185.221 651.957 182.499 662.878 186.169L692.112 195.991C692.112 195.991 685.538 206.096 682.571 209.05C678.993 212.613 669.444 218.797 658.524 215.128L633.918 206.861Z" fill="#4F4F59"/><path fill-rule="evenodd" clip-rule="evenodd" d="M650.699 236.134C652.519 230.719 649.604 224.855 644.189 223.036C638.774 221.216 632.909 224.13 631.09 229.546C629.271 234.96 632.185 240.824 637.601 242.644C643.015 244.463 648.879 241.548 650.699 236.134Z" fill="#BF7461"/><path fill-rule="evenodd" clip-rule="evenodd" d="M681.33 261.223L670.912 257.723C666.815 256.347 662.346 256.581 658.415 258.378L644.633 264.679L666.403 199.895L659.281 197.502L635.907 267.061L632.914 275.966C632.803 276.296 632.713 276.627 632.64 276.96L628.174 290.251C625.44 298.389 629.82 307.202 637.958 309.936L647.484 313.137C655.622 315.871 664.436 311.491 667.171 303.353L673.319 285.057C673.322 285.048 673.327 285.039 673.33 285.028L681.33 261.223Z" fill="#4F4F59"/><path fill-rule="evenodd" clip-rule="evenodd" d="M672.738 274.205L676.507 275.472L679.297 267.172L667.233 263.119C665.693 267.702 668.158 272.667 672.738 274.205Z" fill="#BF7461"/><path fill-rule="evenodd" clip-rule="evenodd" d="M677.335 273.113L677.994 271.154C677.994 271.154 677.556 271.003 677.338 270.916C674.998 269.981 673.213 268.326 672.679 266.596L670.668 267.216C671.396 269.574 673.597 271.688 676.557 272.87C676.788 272.961 677.018 273.046 677.249 273.123L677.335 273.113Z" fill="black"/><path fill-rule="evenodd" clip-rule="evenodd" d="M686.434 243.771C684.654 249.07 682.739 252.39 681.658 253.681C681.577 251.999 682.055 248.198 683.836 242.898C685.618 237.598 687.531 234.278 688.613 232.987C688.694 234.669 688.215 238.47 686.434 243.771ZM689.726 229.671C687.762 229.01 686.059 231.408 684.95 233.27C684.478 234.063 684.004 234.967 683.536 235.95L643.749 221.32L642.76 224.008L682.384 238.577C681.944 239.663 681.518 240.806 681.122 241.986C680.044 245.192 676.819 255.745 680.545 256.996C680.773 257.073 680.998 257.109 681.218 257.109C682.898 257.109 684.341 255.044 685.321 253.398C686.654 251.158 688.014 248.062 689.149 244.682C690.285 241.303 691.07 238.014 691.36 235.424C691.601 233.271 691.695 230.333 689.726 229.671Z" fill="#E6E3DA"/><path fill-rule="evenodd" clip-rule="evenodd" d="M845.911 477.233L876.41 483.198L876.907 482.08C877.794 478.362 875.697 474.581 872.072 473.364L857.995 469.079C853.132 468.137 838.108 475.707 838.108 475.707L845.911 477.233Z" fill="#BF7461"/><path fill-rule="evenodd" clip-rule="evenodd" d="M864.699 520.864L879.547 479.347L836.765 475.766L829.401 507.692L864.699 520.864Z" fill="#BF7461"/><path fill-rule="evenodd" clip-rule="evenodd" d="M880.607 509.521C881.692 506.156 879.843 502.55 876.478 501.467L870.467 499.57L866.541 511.756L872.552 513.651C875.917 514.735 879.523 512.887 880.607 509.521Z" fill="#BF7461"/><path fill-rule="evenodd" clip-rule="evenodd" d="M873.134 516.766C874.219 513.4 872.371 509.792 869.007 508.708L864.944 507.398L861.018 519.584L865.088 520.895C868.449 521.978 872.051 520.129 873.134 516.766Z" fill="#BF7461"/><path fill-rule="evenodd" clip-rule="evenodd" d="M887.306 499.697C888.39 496.332 886.542 492.725 883.176 491.642L873.992 488.125L870.065 500.31L879.25 503.826C882.615 504.91 886.222 503.062 887.306 499.697Z" fill="#BF7461"/><path fill-rule="evenodd" clip-rule="evenodd" d="M887.45 488.199C888.377 484.786 886.364 481.268 882.953 480.341L878.832 479.223L875.478 491.576L879.604 492.697C883.012 493.622 886.524 491.609 887.45 488.199Z" fill="#BF7461"/><path fill-rule="evenodd" clip-rule="evenodd" d="M757.509 479.828L832.491 509.02L843.376 478.037L755.269 433.062L746.49 453.621C742.1 463.9 747.092 475.773 757.509 479.828Z" fill="#BF7461"/><path fill-rule="evenodd" clip-rule="evenodd" d="M1075.99 548.741C1070.38 548.873 1067.14 553.061 1066.88 557.131C1066.68 560.409 1068.52 564.544 1074.36 565.405C1076.67 565.918 1078.89 566.088 1080.99 565.923C1083.79 561.776 1085 556.982 1083.83 553.568C1082.81 550.62 1080.1 548.952 1075.99 548.741ZM1065.72 577.292C1062.66 577.292 1059.55 576.529 1056.53 574.988L1057.66 572.774C1064.31 576.167 1071.43 575.239 1077.2 570.227C1077.83 569.674 1078.43 569.084 1079 568.464C1077.34 568.437 1075.64 568.233 1073.9 567.846C1066.97 566.827 1064.12 561.65 1064.4 556.978C1064.73 551.775 1068.82 546.422 1076.03 546.258C1081.25 546.522 1084.82 548.83 1086.18 552.757C1087.42 556.381 1086.59 561.075 1084.23 565.387C1089.89 563.927 1094.51 559.807 1097.51 553.344C1102.75 542.057 1101.64 524.726 1090.71 516.408L1092.21 514.43C1104.13 523.496 1105.41 542.231 1099.77 554.391C1096.04 562.406 1089.83 567.248 1082.38 568.266C1081.35 569.646 1080.16 570.945 1078.83 572.103C1074.87 575.543 1070.35 577.292 1065.72 577.292Z" fill="#891229"/><path fill-rule="evenodd" clip-rule="evenodd" d="M809.878 482.605L875.531 431.347C882.899 425.594 893.545 431.621 892.403 440.899L886.115 491.988L809.878 482.605Z" fill="#891229"/><path fill-rule="evenodd" clip-rule="evenodd" d="M983.653 695.877V637.484L1029.91 630.164L1002.8 695.877H983.653Z" fill="#891229"/><path fill-rule="evenodd" clip-rule="evenodd" d="M869.666 695.878V637.484H908.598L888.813 695.878H869.666Z" fill="#891229"/><path fill-rule="evenodd" clip-rule="evenodd" d="M983.931 485.903L921.784 478.254L925.133 451.044C926.278 441.741 915.604 435.698 908.216 441.467L869.361 471.802L863.898 471.13C828.51 466.774 795.527 484.752 779.074 514.017L756.457 509.085L751.64 531.171C748.078 547.504 755.807 563.67 769.601 571.534C776.21 606.816 804.793 635.374 842.186 640.359V695.879H861.334L878.622 644.854L956.174 654.398V695.879H975.32L989.368 654.419C1024.87 647.714 1053.54 618.769 1058.19 580.998C1063.94 534.234 1030.7 491.659 983.931 485.903Z" fill="#E73245"/><path fill-rule="evenodd" clip-rule="evenodd" d="M815.7 514.411C817.373 511.151 821.373 509.863 824.634 511.536C827.894 513.208 829.182 517.208 827.509 520.468C825.837 523.728 821.837 525.016 818.577 523.343C815.315 521.671 814.028 517.671 815.7 514.411Z" fill="#891229"/><path fill-rule="evenodd" clip-rule="evenodd" d="M922.622 489.014C922.867 487.025 924.677 485.61 926.664 485.856L962.217 490.231C964.205 490.476 965.618 492.288 965.373 494.278C965.128 496.266 963.319 497.68 961.332 497.436L925.779 493.06C923.791 492.816 922.377 491.004 922.622 489.014Z" fill="#891229"/><path fill-rule="evenodd" clip-rule="evenodd" d="M1051.35 964.68V1002.4C1051.35 1012.12 1006.5 1020 951.182 1020C895.86 1020 851.012 1012.12 851.012 1002.4V964.68H1051.35Z" fill="#F7931E"/><path fill-rule="evenodd" clip-rule="evenodd" d="M851.012 964.68C851.012 974.401 895.86 982.281 951.182 982.281C1006.5 982.281 1051.35 974.401 1051.35 964.68C1051.35 954.958 1006.5 947.078 951.182 947.078C895.86 947.078 851.012 954.958 851.012 964.68Z" fill="#FAAF3A"/><path fill-rule="evenodd" clip-rule="evenodd" d="M891.164 957.492C867.906 960.963 867.639 964.901 867.639 965.068C867.639 965.233 867.906 969.171 891.164 972.643C906.999 975.006 928.067 976.308 950.486 976.308C972.907 976.308 993.975 975.006 1009.81 972.643C1033.07 969.171 1033.34 965.233 1033.34 965.068C1033.34 964.901 1033.07 960.963 1009.81 957.492C993.975 955.128 972.907 953.826 950.486 953.826C928.067 953.826 906.999 955.128 891.164 957.492ZM864.993 965.068C864.993 954.88 916.122 951.182 950.486 951.182C984.852 951.182 1035.98 954.88 1035.98 965.068C1035.98 975.256 984.852 978.953 950.486 978.953C916.122 978.953 864.993 975.256 864.993 965.068Z" fill="#F7931E"/><path fill-rule="evenodd" clip-rule="evenodd" d="M1029.91 919.418V957.136C1029.91 966.857 985.065 974.737 929.743 974.737C874.42 974.737 829.572 966.857 829.572 957.136V919.418H1029.91Z" fill="#F7931E"/><path fill-rule="evenodd" clip-rule="evenodd" d="M829.572 919.418C829.572 929.139 874.42 937.019 929.743 937.019C985.065 937.019 1029.91 929.139 1029.91 919.418C1029.91 909.697 985.065 901.816 929.743 901.816C874.42 901.816 829.572 909.697 829.572 919.418Z" fill="#FAAF3A"/><path fill-rule="evenodd" clip-rule="evenodd" d="M869.725 912.23C846.466 915.702 846.199 919.64 846.199 919.806C846.199 919.971 846.466 923.909 869.725 927.382C885.56 929.745 906.628 931.046 929.047 931.046C951.467 931.046 972.534 929.745 988.371 927.382C1011.63 923.909 1011.9 919.971 1011.9 919.806C1011.9 919.64 1011.63 915.702 988.371 912.23C972.534 909.866 951.467 908.565 929.047 908.565C906.628 908.565 885.56 909.866 869.725 912.23ZM843.554 919.806C843.554 909.618 894.682 905.92 929.047 905.92C963.413 905.92 1014.54 909.618 1014.54 919.806C1014.54 929.994 963.413 933.691 929.047 933.691C894.682 933.691 843.554 929.994 843.554 919.806Z" fill="#F7931E"/><path fill-rule="evenodd" clip-rule="evenodd" d="M1050.07 873.998V911.716C1050.07 921.437 1005.22 929.317 949.895 929.317C894.572 929.317 849.725 921.437 849.725 911.716V873.998H1050.07Z" fill="#F7931E"/><path fill-rule="evenodd" clip-rule="evenodd" d="M849.725 873.998C849.725 883.719 894.572 891.6 949.895 891.6C1005.22 891.6 1050.07 883.719 1050.07 873.998C1050.07 864.277 1005.22 856.396 949.895 856.396C894.572 856.396 849.725 864.277 849.725 873.998Z" fill="#FAAF3A"/><path fill-rule="evenodd" clip-rule="evenodd" d="M889.877 866.812C866.618 870.284 866.351 874.222 866.351 874.388C866.351 874.553 866.618 878.491 889.877 881.964C905.712 884.327 926.78 885.628 949.199 885.628C971.62 885.628 992.688 884.327 1008.52 881.964C1031.78 878.491 1032.05 874.553 1032.05 874.388C1032.05 874.222 1031.78 870.284 1008.52 866.812C992.688 864.448 971.62 863.147 949.199 863.147C926.78 863.147 905.712 864.448 889.877 866.812ZM863.706 874.388C863.706 864.2 914.835 860.502 949.199 860.502C983.565 860.502 1034.69 864.2 1034.69 874.388C1034.69 884.576 983.565 888.273 949.199 888.273C914.835 888.273 863.706 884.576 863.706 874.388Z" fill="#F7931E"/><path fill-rule="evenodd" clip-rule="evenodd" d="M1021.89 827.203V864.921C1021.89 874.642 977.047 882.523 921.724 882.523C866.402 882.523 821.554 874.642 821.554 864.921V827.203H1021.89Z" fill="#F7931E"/><path fill-rule="evenodd" clip-rule="evenodd" d="M821.555 827.203C821.555 836.924 866.403 844.805 921.725 844.805C977.048 844.805 1021.9 836.924 1021.9 827.203C1021.9 817.482 977.048 809.602 921.725 809.602C866.403 809.602 821.555 817.482 821.555 827.203Z" fill="#FAAF3A"/><path fill-rule="evenodd" clip-rule="evenodd" d="M861.706 820.015C838.448 823.487 838.181 827.425 838.181 827.591C838.181 827.756 838.448 831.694 861.706 835.167C877.541 837.53 898.609 838.831 921.028 838.831C943.449 838.831 964.516 837.53 980.352 835.167C1003.61 831.694 1003.88 827.756 1003.88 827.591C1003.88 827.425 1003.61 823.487 980.352 820.015C964.516 817.651 943.449 816.35 921.028 816.35C898.609 816.35 877.541 817.651 861.706 820.015ZM835.535 827.591C835.535 817.403 886.664 813.705 921.028 813.705C955.394 813.705 1006.52 817.403 1006.52 827.591C1006.52 837.779 955.394 841.476 921.028 841.476C886.664 841.476 835.535 837.779 835.535 827.591Z" fill="#F7931E"/><path fill-rule="evenodd" clip-rule="evenodd" d="M1009.1 781.631V819.349C1009.1 829.07 964.249 836.95 908.926 836.95C853.604 836.95 808.756 829.07 808.756 819.349V781.631H1009.1Z" fill="#F7931E"/><path fill-rule="evenodd" clip-rule="evenodd" d="M808.756 781.629C808.756 791.35 853.604 799.23 908.926 799.23C964.249 799.23 1009.1 791.35 1009.1 781.629C1009.1 771.908 964.249 764.027 908.926 764.027C853.604 764.027 808.756 771.908 808.756 781.629Z" fill="#FAAF3A"/><path fill-rule="evenodd" clip-rule="evenodd" d="M848.908 774.443C825.65 777.914 825.383 781.852 825.383 782.019C825.383 782.184 825.65 786.122 848.908 789.594C864.743 791.957 885.811 793.259 908.231 793.259C930.651 793.259 951.718 791.957 967.554 789.594C990.812 786.122 991.08 782.184 991.08 782.019C991.08 781.852 990.812 777.914 967.554 774.443C951.718 772.079 930.651 770.778 908.231 770.778C885.811 770.778 864.743 772.079 848.908 774.443ZM822.737 782.019C822.737 771.831 873.866 768.133 908.231 768.133C942.596 768.133 993.724 771.831 993.724 782.019C993.724 792.207 942.596 795.904 908.231 795.904C873.866 795.904 822.737 792.207 822.737 782.019Z" fill="#F7931E"/><path fill-rule="evenodd" clip-rule="evenodd" d="M1034.69 740.912V778.63C1034.69 788.351 989.846 796.232 934.523 796.232C879.2 796.232 834.353 788.351 834.353 778.63V740.912H1034.69Z" fill="#F7931E"/><path fill-rule="evenodd" clip-rule="evenodd" d="M834.353 740.912C834.353 750.633 879.2 758.514 934.523 758.514C989.846 758.514 1034.69 750.633 1034.69 740.912C1034.69 731.191 989.846 723.311 934.523 723.311C879.2 723.311 834.353 731.191 834.353 740.912Z" fill="#FAAF3A"/><path fill-rule="evenodd" clip-rule="evenodd" d="M874.505 733.724C851.246 737.196 850.979 741.134 850.979 741.3C850.979 741.465 851.246 745.403 874.505 748.876C890.34 751.239 911.408 752.54 933.827 752.54C956.248 752.54 977.315 751.239 993.151 748.876C1016.41 745.403 1016.68 741.465 1016.68 741.3C1016.68 741.134 1016.41 737.196 993.151 733.724C977.315 731.36 956.248 730.059 933.827 730.059C911.408 730.059 890.34 731.36 874.505 733.724ZM848.334 741.3C848.334 731.112 899.463 727.414 933.827 727.414C968.193 727.414 1019.32 731.112 1019.32 741.3C1019.32 751.488 968.193 755.185 933.827 755.185C899.463 755.185 848.334 751.488 848.334 741.3Z" fill="#F7931E"/><path fill-rule="evenodd" clip-rule="evenodd" d="M1024.18 694.508V732.226C1024.18 741.947 979.33 749.827 924.007 749.827C868.685 749.827 823.837 741.947 823.837 732.226V694.508H1024.18Z" fill="#F7931E"/><path fill-rule="evenodd" clip-rule="evenodd" d="M823.837 694.508C823.837 704.229 868.685 712.109 924.007 712.109C979.33 712.109 1024.18 704.229 1024.18 694.508C1024.18 684.786 979.33 676.906 924.007 676.906C868.685 676.906 823.837 684.786 823.837 694.508Z" fill="#FAAF3A"/><path fill-rule="evenodd" clip-rule="evenodd" d="M863.989 687.32C840.731 690.791 840.464 694.729 840.464 694.896C840.464 695.061 840.731 698.999 863.989 702.471C879.824 704.834 900.892 706.136 923.312 706.136C945.732 706.136 966.799 704.834 982.635 702.471C1005.89 698.999 1006.16 695.061 1006.16 694.896C1006.16 694.729 1005.89 690.791 982.635 687.32C966.799 684.956 945.732 683.655 923.312 683.655C900.892 683.655 879.824 684.956 863.989 687.32ZM837.818 694.896C837.818 684.708 888.947 681.01 923.312 681.01C957.677 681.01 1008.81 684.708 1008.81 694.896C1008.81 705.084 957.677 708.781 923.312 708.781C888.947 708.781 837.818 705.084 837.818 694.896Z" fill="#F7931E"/><path fill-rule="evenodd" clip-rule="evenodd" d="M1075.99 548.741C1070.38 548.873 1067.14 553.061 1066.88 557.131C1066.68 560.409 1068.52 564.544 1074.36 565.405C1076.67 565.918 1078.89 566.088 1080.99 565.923C1083.79 561.776 1085 556.982 1083.83 553.568C1082.81 550.62 1080.1 548.952 1075.99 548.741ZM1065.72 577.292C1062.66 577.292 1059.55 576.529 1056.53 574.988L1057.66 572.774C1064.31 576.167 1071.43 575.239 1077.2 570.227C1077.83 569.674 1078.43 569.084 1079 568.464C1077.34 568.437 1075.64 568.233 1073.9 567.846C1066.97 566.827 1064.12 561.65 1064.4 556.978C1064.73 551.775 1068.82 546.422 1076.03 546.258C1081.25 546.522 1084.82 548.83 1086.18 552.757C1087.42 556.381 1086.59 561.075 1084.23 565.387C1089.89 563.927 1094.51 559.807 1097.51 553.344C1102.75 542.057 1101.64 524.726 1090.71 516.408L1092.21 514.43C1104.13 523.496 1105.41 542.231 1099.77 554.391C1096.04 562.406 1089.83 567.248 1082.38 568.266C1081.35 569.646 1080.16 570.945 1078.83 572.103C1074.87 575.543 1070.35 577.292 1065.72 577.292Z" fill="#891229"/><path fill-rule="evenodd" clip-rule="evenodd" d="M809.878 482.605L875.531 431.347C882.899 425.594 893.545 431.621 892.403 440.899L886.115 491.988L809.878 482.605Z" fill="#891229"/><path fill-rule="evenodd" clip-rule="evenodd" d="M983.653 695.877V637.484L1029.91 630.164L1002.8 695.877H983.653Z" fill="#891229"/><path fill-rule="evenodd" clip-rule="evenodd" d="M869.666 695.878V637.484H908.598L888.812 695.878H869.666Z" fill="#891229"/><path fill-rule="evenodd" clip-rule="evenodd" d="M983.931 485.903L921.784 478.254L925.133 451.044C926.278 441.741 915.604 435.698 908.216 441.467L869.361 471.802L863.898 471.13C828.51 466.774 795.527 484.752 779.074 514.017L756.457 509.085L751.64 531.171C748.078 547.504 755.807 563.67 769.601 571.534C776.21 606.816 804.793 635.374 842.186 640.359V695.879H861.334L878.622 644.854L956.174 654.398V695.879H975.32L989.368 654.419C1024.87 647.714 1053.54 618.769 1058.19 580.998C1063.94 534.234 1030.7 491.659 983.931 485.903Z" fill="#E73245"/><path fill-rule="evenodd" clip-rule="evenodd" d="M815.7 514.411C817.373 511.151 821.373 509.863 824.634 511.536C827.894 513.208 829.182 517.208 827.509 520.468C825.837 523.728 821.837 525.016 818.576 523.343C815.315 521.671 814.028 517.671 815.7 514.411Z" fill="#891229"/><path fill-rule="evenodd" clip-rule="evenodd" d="M922.622 489.014C922.867 487.025 924.677 485.61 926.664 485.856L962.217 490.231C964.205 490.476 965.618 492.288 965.373 494.278C965.128 496.266 963.319 497.68 961.332 497.436L925.779 493.06C923.791 492.816 922.377 491.004 922.622 489.014Z" fill="#891229"/></svg>