<svg viewBox="0 0 1600 1200" fill="none" xmlns="http://www.w3.org/2000/svg"><path d="M1036.72 620.312L705.319 683.612L514.439 710.302L499.929 672.832C528.269 626.772 606.039 612.782 639.209 588.222C676.389 560.692 709.529 504.262 752.489 476.522C813.889 436.882 910.359 429.032 965.429 382.122C973.999 374.822 987.109 381.172 986.479 392.402L981.269 484.872C979.939 508.482 985.549 531.962 997.389 552.422L1036.7 620.312H1036.72Z" fill="#FF8D00"/><path d="M528.099 690.461L283.449 748.201L269.379 786.471L547.969 760.481L528.099 690.461Z" fill="#2468CA"/><path d="M744.349 682.85L732.139 782.11L938.859 819.78C952.229 822.22 965.939 822.14 979.279 819.56L1308.46 746.74L1277.54 696.14L967.179 726.14L744.349 682.84V682.85Z" fill="#2468CA"/><path d="M1283.76 608.331L1262.76 557.051L918.599 626.311L721.949 653.831L732.319 781.881L1283.76 608.331Z" fill="#2468CA"/><path d="M721.949 653.83C721.949 653.83 595.229 638.18 505.349 682.17C488.539 690.4 464.959 728.02 464.959 728.02L493.779 758.23C514.009 776.69 535.669 783.82 572.629 787.99L584.159 788.45L732.309 781.9L721.939 653.84L721.949 653.83Z" fill="#2468CA"/><path fill-rule="evenodd" clip-rule="evenodd" d="M464.969 600.641L386.929 640.711C386.929 640.711 396.879 659.681 406.619 678.311C405.779 682.141 404.889 686.191 404.159 689.531C403.799 691.161 404.289 692.861 405.449 694.051C406.619 695.241 408.299 695.771 409.939 695.451C411.599 695.131 413.359 694.781 415.059 694.461C419.019 702.041 422.299 708.361 423.969 711.601C427.799 719.051 436.939 721.991 444.389 718.171C448.039 716.301 452.209 714.161 456.619 711.891L464.979 728.021C469.859 737.531 481.539 741.281 491.049 736.401L508.539 727.421C518.049 722.541 521.809 710.861 516.919 701.351L464.979 600.651L464.969 600.641Z" fill="#693825"/><path d="M416.039 675.13C412.189 677.82 407.659 671.35 411.509 668.66C415.359 665.97 419.489 665.24 420.739 667.02C421.989 668.81 419.879 672.44 416.039 675.13Z" fill="white"/><path d="M426.529 700.703C425.849 703.233 424.009 705.413 421.409 706.763L422.469 708.823C425.649 707.173 427.929 704.473 428.769 701.303L426.529 700.703Z" fill="#120E0E"/><path d="M413.04 666.114C417.562 664.076 420.528 660.873 419.666 658.96C418.803 657.047 414.439 657.148 409.917 659.185C405.396 661.223 402.429 664.426 403.292 666.339C404.154 668.253 408.519 668.152 413.04 666.114Z" fill="#120E0E"/><path d="M268.02 787.179L342.3 779.669L336.77 735.609L270.25 748.309L238.88 751.549C236.68 751.779 234.69 752.979 233.48 754.829L216.98 779.939C215.57 782.079 215.69 784.879 217.29 786.889L219.83 790.079L229.74 803.269C228.61 806.109 229.34 809.459 231.81 811.539C234.88 814.119 239.47 813.729 242.06 810.649L256.5 793.479L268.03 787.199L268.02 787.179Z" fill="#232146"/><path d="M584.309 788.439L575.939 772.149C568.769 758.379 553.399 750.949 538.149 753.879L523.369 777.089L540.939 784.129C546.579 786.559 552.639 787.879 558.779 788.019L584.299 788.429L584.309 788.439Z" fill="#FF8D00"/><path d="M1235.45 562.541L1251.34 538.211L1359.12 608.051L1348.91 624.001C1345.53 629.221 1338.97 631.521 1332.76 629.641L1274.66 611.621L1179.29 641.241L1159.3 577.861L1235.45 562.541Z" fill="#232146"/><path d="M1373.79 759.952C1370.41 765.172 1363.85 767.472 1357.64 765.592L1301.23 748.342L1199.53 770.842L1189.01 704.672L1260.78 697.752L1276.21 674.152L1383.99 743.992L1373.78 759.942L1373.79 759.952Z" fill="#232146"/><path d="M536.869 674.15C535.989 673.95 535.109 673.79 534.229 673.65L534.139 673.63C515.169 670.7 496.849 682.84 492.439 701.85C492.319 702.37 492.209 702.9 492.109 703.42C488.329 723.56 502.629 742.31 522.399 745.4H522.429C523.789 745.61 525.169 745.75 526.579 745.81H526.679L789.789 771.33L815.609 739.76L536.869 674.15Z" fill="#397EFF"/><path d="M864.969 756.411L863.609 752.571L858.559 736.861C860.559 734.551 860.959 731.141 859.309 728.371C857.249 724.921 852.789 723.801 849.339 725.861L830.079 737.361L817.059 739.541L738.729 721.691L734.039 765.921L802.509 775.581L833.019 782.741C835.179 783.251 837.439 782.761 839.199 781.401L863.009 763.071C865.039 761.511 865.839 758.821 864.989 756.401L864.969 756.411Z" fill="#232146"/><path d="M523.969 621.662C523.969 609.762 514.319 600.112 502.419 600.112C493.879 600.112 486.529 605.092 483.039 612.292L482.609 611.312V611.342C479.119 603.442 472.739 597.122 464.689 593.772C455.529 589.962 445.159 590.382 436.329 594.912L384.029 621.762C380.019 623.822 378.429 628.742 380.489 632.762L383.109 637.862C384.309 640.212 389.789 652.312 398.039 648.072L424.809 635.332L441.329 666.972L449.379 663.102L444.909 654.132C444.909 654.132 452.349 661.422 462.389 667.892L462.319 668.092L465.709 674.392C469.759 681.922 479.009 684.942 486.729 681.272L508.609 670.862L496.109 642.242C498.099 642.852 500.209 643.192 502.409 643.192C514.309 643.192 523.959 633.542 523.959 621.642L523.969 621.662Z" fill="#120E0E"/><path d="M443.939 665.93C446.759 671.41 453.489 673.58 458.969 670.76C464.449 667.94 466.619 661.21 463.799 655.73C460.979 650.25 454.249 648.08 448.769 650.9C443.289 653.72 441.119 660.45 443.939 665.93Z" fill="#693825"/><path d="M412.409 675.331C412.609 675.441 412.919 675.211 413.109 675.111C414.879 674.211 415.629 671.841 414.659 669.511C414.289 668.641 413.929 668.071 413.289 667.551C413.289 667.551 410.929 668.321 410.139 670.381C410.139 670.381 409.479 672.231 411.039 674.121C411.039 674.121 411.639 674.921 412.409 675.331Z" fill="#1D1D1B"/><path d="M422.11 670.022L411.351 675.73L413.394 679.582L424.153 673.873L422.11 670.022Z" fill="#693825"/><path d="M412.269 686.231L419.119 682.891C428.649 678.241 436.639 670.951 442.119 661.881L446.519 654.611C447.909 652.321 447.969 649.461 446.679 647.111C445.359 644.711 442.839 643.211 440.099 643.211H431.209C423.249 643.211 415.379 644.931 408.139 648.271L395.769 653.971C392.819 655.331 391.569 658.851 392.999 661.761L403.569 683.261C405.149 686.481 409.039 687.811 412.259 686.241L412.269 686.231ZM420.569 674.891C410.569 682.511 399.259 671.201 406.879 661.201C416.879 653.581 428.179 664.891 420.569 674.891Z" fill="#397EFF"/></svg>