<?xml version="1.0" encoding="utf-8"?><!--Generator: Adobe Illustrator 27.8.0, SVG Export Plug-In . SVG Version: 6.00 Build 0)--><svg version="1.1" xmlns="http://www.w3.org/2000/svg" xmlns:xlink="http://www.w3.org/1999/xlink" x="0px" y="0px" viewBox="0 0 1200 840" style="enable-background:new 0 0 1200 840;" xml:space="preserve"><style type="text/css">.st0{fill:#CA705C;}
	.st1{fill:#C6C6C6;}
	.st2{fill:#B26150;}
	.st3{fill:#020204;}
	.st4{fill:#4C2741;}
	.st5{fill:#FFFFFF;}
	.st6{fill:none;}
	.st7{fill:#00474E;}
	.st8{fill:#B8C196;}
	.st9{fill:#FAE5CA;}
	.st10{fill:#FE6300;}
	.st11{fill:#DBCBC4;}
	.st12{fill:#C88304;}
	.st13{fill:#FF9F00;}
	.st14{fill:#4C38CD;}
	.st15{fill:#232144;}
	.st16{fill:#F4B091;}
	.st17{fill:#FFC4A9;}
	.st18{fill:#050203;}
	.st19{fill:#A83734;}
	.st20{fill:#D0EEFE;}
	.st21{fill:#AA3734;}
	.st22{fill:#842835;}
	.st23{fill:#7F2F2C;}
	.st24{fill:#2D0D29;}
	.st25{fill:#FF9B88;}
	.st26{fill:#FEC7AD;}
	.st27{fill:#E7E3D9;}
	.st28{fill:#FF8E00;}
	.st29{fill:#FF7B65;}
	.st30{fill:#64150D;}
	.st31{fill:#FFCB8B;}
	.st32{fill:#FD5300;}</style><g id="elder_woman"><polygon class="st0" points="893.26,804.74 934.21,804.74 932.4,597.04 872.19,597.04 	"/><path class="st1" d="M893.7,71.71c0-15.23-12.34-27.57-27.56-27.57c-15.22,0-27.56,12.34-27.56,27.57
		c0,11.19,6.67,20.82,16.24,25.14c-0.04,0.44-0.07,0.87-0.07,1.32c0,8.32,6.74,15.07,15.06,15.07c8.32,0,15.06-6.75,15.06-15.07
		c0-1.89-0.36-3.69-1-5.36C889.88,87.74,893.7,80.17,893.7,71.71z"/><path class="st1" d="M844.29,73.5c0-10.17-5.5-19.04-13.69-23.82c0.68-1.72,1.07-3.58,1.07-5.54c0-8.32-6.74-15.07-15.06-15.07
		c-8.32,0-15.06,6.75-15.06,15.07c0,2.01,0.4,3.91,1.11,5.66c-8.07,4.81-13.48,13.62-13.48,23.7c0,9.65,4.96,18.13,12.45,23.06
		c-0.06,0.53-0.09,1.06-0.09,1.6c0,8.32,6.74,15.07,15.06,15.07c8.32,0,15.06-6.75,15.06-15.07c0-0.49-0.03-0.97-0.07-1.45
		C839.23,91.81,844.29,83.25,844.29,73.5z"/><ellipse class="st0" cx="874.95" cy="92.43" rx="9.58" ry="9.58"/><ellipse class="st0" cx="809.96" cy="92.41" rx="9.58" ry="9.58"/><path class="st2" d="M818.82,137.26v-30.71l47.32-1.37v32.09c0,13.07-10.59,23.67-23.66,23.67h0
		C829.41,160.93,818.82,150.33,818.82,137.26z"/><path class="st0" d="M811.12,105.62v-45.6c0-14.1,11.43-25.54,25.54-25.54h11.65c14.1,0,25.54,11.43,25.54,25.54v45.6
		c0,14.1-11.43,25.54-25.54,25.54h-11.65C822.55,131.15,811.12,119.72,811.12,105.62z"/><path class="st3" d="M842.14,102.21c-1.23,0-2.5-0.59-3.8-1.77c-1.82-1.67-3.76,0.26-3.84,0.34l-0.9-0.88
		c0.98-1,3.42-2.37,5.58-0.39c2.59,2.36,4.28,1.36,5.46,0.22c1.35-1.3,3.62-1.91,5.93,0.27l-0.86,0.91
		c-1.98-1.86-3.48-0.98-4.2-0.28C844.43,101.69,843.3,102.21,842.14,102.21z"/><path class="st4" d="M839.6,111.12l-9.45,0.01c0.06-0.36,5.19,7.57,12.88,7.59c4.89,0.01,7.31-2.86,11.77-7.59l-9.36,0
		c-1.02,0-1.96,0.61-2.47,1.59l-0.38,0.73l-0.68-1.03C841.36,111.6,840.51,111.12,839.6,111.12z"/><path class="st1" d="M850.7,34.43h-17.07c-15.19,0-27.5,15.15-27.5,30.34v28.88h4.92V80.63c0-10.48,6.27-19.47,15.21-23.35
		l-4.49-7.78l2.75-1.59l4.78,8.28c2.17-0.62,4.45-0.96,6.82-0.96h4.18h3.71h4.18c13.85,0,25.08,11.37,25.08,25.39v13.02h4.92V64.77
		C878.2,49.57,865.89,34.43,850.7,34.43z"/><path class="st5" d="M835.43,89.84c0,0-2.29-4.91-6.68-6.43c-4.39-1.53-9.23,0.9-9.23,0.9s1.82,3.7,6.22,5.22
		C830.13,91.06,835.43,89.84,835.43,89.84z"/><ellipse class="st3" cx="827.09" cy="86.11" rx="3.8" ry="3.81"/><path class="st3" d="M835.43,89.84c-2.08-7.17-10.57-10.42-16.67-6.74c0.37,0.6,0.61,1.04,0.99,1.63c1.35-0.81,8.34-3.64,14.7,3.98
		C834.84,89.18,834.88,89.37,835.43,89.84z"/><path class="st1" d="M817.05,78.87h14.72c2.96,0,5.36-2.4,5.36-5.36V73.3h-14.72c-2.96,0-5.36,2.4-5.36,5.36V78.87z"/><path class="st5" d="M850.23,89.84c0,0,2.29-4.91,6.68-6.43s9.23,0.9,9.23,0.9s-1.82,3.7-6.22,5.22S850.23,89.84,850.23,89.84z"/><ellipse class="st3" cx="858.56" cy="86.11" rx="3.8" ry="3.81"/><path class="st3" d="M850.23,89.84c2.08-7.17,10.57-10.42,16.67-6.74c-0.37,0.6-0.61,1.04-0.99,1.63
		c-1.35-0.81-8.34-3.64-14.7,3.98C850.82,89.18,850.77,89.37,850.23,89.84z"/><path class="st1" d="M868.61,78.87h-14.72c-2.96,0-5.36-2.4-5.36-5.36V73.3h14.72c2.96,0,5.36,2.4,5.36,5.36V78.87z"/><ellipse class="st1" cx="853.66" cy="43.27" rx="27.56" ry="27.57"/><rect x="853.29" y="59.43" class="st1" width="27.93" height="11.63"/><polygon class="st0" points="799.69,804.74 841.37,804.74 840.86,597.04 779.87,597.04 	"/><path class="st6" d="M936.37,393.5l3.51-17.9L915.73,267.3l-6.86,1.51C913.35,277.11,931.85,315.66,936.37,393.5z"/><path class="st6" d="M945.99,410.52c1.58-3.43,3.38-7.04,3.94-8.35c0.92-2.12-0.97-3.9-2.71-2.89l-4,6.3
		c-0.12,0.24-0.2,0.38-0.2,0.38l0.01-0.08l-5.81,9.14c0.04,1.8,0.07,3.62,0.09,5.46L945.99,410.52z"/><path class="st7" d="M952.4,259.25l8.72-1.92l-20-92.82c-0.03-0.12-0.05-0.24-0.08-0.36l-0.01-0.04h0
		c-3.16-13.5-14.76-24-29.32-25.1c-0.46-0.03-0.92-0.05-1.37-0.07l0-0.03H876.2v-4.05h-62.67v4.05h-38.21l0,0.04
		c-0.38,0.02-0.76,0.03-1.15,0.06c-15.3,1.15-27.33,12.69-29.73,27.2h-1.35l19.54,23.59l7.01,79.4
		c-6.13,11.14-24.4,66.33-17.5,170.57c0.05,0.75,11.07,157.26,11.07,157.26h16.67h60.99h31.33h60.21h4.95
		c0,0-0.25-108.31-0.05-154.54c-1.66,0.13-3.36-0.49-4.53-1.86l0,0c-1.31-1.54-1.57-3.59-0.91-5.36c-0.06-0.05-0.13-0.08-0.19-0.14
		c-2.24-1.95-2.47-5.34-0.52-7.58l6.16-7.07c-0.02-1.84-0.05-3.66-0.09-5.46l-1.64,2.58c-1.59,2.5-4.91,3.24-7.42,1.65
		c-2.5-1.59-3.24-4.91-1.65-7.42l9.05-14.24l0.8-4.09c-4.52-77.84-23.02-116.39-27.5-124.69l6.86-1.51L952.4,259.25z"/><path class="st0" d="M965.75,370.04L952.4,259.25l-36.68,8.06l24.15,108.29l-3.51,17.9l-0.8,4.09l-9.05,14.24
		c-1.59,2.5-0.85,5.82,1.65,7.42c2.5,1.59,5.82,0.85,7.42-1.65l1.64-2.58l5.81-9.14l-0.01,0.08c0,0,0.07-0.14,0.2-0.38l4-6.3
		c1.74-1.01,3.63,0.77,2.71,2.89c-0.57,1.31-2.37,4.92-3.94,8.35l-8.68,9.96l-6.16,7.07c-1.95,2.24-1.72,5.63,0.52,7.58
		c0.06,0.05,0.13,0.09,0.19,0.14c-0.66,1.77-0.39,3.82,0.91,5.36l0,0c1.16,1.37,2.86,2,4.53,1.86c1.09-0.09,2.15-0.49,3.05-1.25
		l18.06-15.36L971.06,395L965.75,370.04z"/><rect x="792.2" y="808.46" class="st8" width="57.36" height="15.54"/><rect x="887.05" y="808.46" class="st8" width="57.36" height="15.54"/><path class="st9" d="M792.2,810.35c0-15.86,12.84-28.72,28.68-28.72c15.84,0,28.68,12.86,28.68,28.72H792.2z"/><path class="st9" d="M887.05,810.35c0-15.86,12.84-28.72,28.68-28.72s28.68,12.86,28.68,28.72H887.05z"/><polygon class="st7" points="692.11,199.52 777.64,213.06 784.75,138.92 692.11,138.92 	"/><rect x="924.62" y="374.98" transform="matrix(0.9461 -0.3239 0.3239 0.9461 -71.2402 327.0313)" class="st10" width="44.1" height="5.04"/></g><g id="Dog"><rect x="188.29" y="810.06" class="st11" width="100.75" height="13.49"/><path class="st12" d="M1060.56,720.41l-44.16,12.96c0,0,21.07,58.49-3.59,79.29c0,0,8.8,0.21,13.13,11.35h-21.97l-49.23-19.54
		l14.52-52.95l23.98-11.35L1060.56,720.41z"/><path class="st13" d="M976.83,582.14c0,0,2.1-5.46,9.26-4.2c7.15,1.26,28.61,7.14,28.61,7.14s5.05-9.01,15.99-3.67
		c10.94,5.35,20.62,13.33,20.62,13.33s14.73,21.01,12.62,26.48c-2.1,5.46-4.21,5.34-4.21,5.34s1.2,3.57,2.64,8.56l3.37,13.04
		c2.37,13.91,4,35.37,0.3,56.27c-2.28,12.87-5.47,15.97-5.47,15.97l23.56,93.72c0,0,8.41,1.68,8.41,9.88h-22.12l-32.96-67.03
		l-0.46-16.81l6.73,37.82l9.26,37.01c0,0,8.71,0.78,9.16,9.01h-23.42l-42.97-61.15c0,0-7.57-9.25-7.57-16.39s-10.52,15.97-8.42,29
		c0,0,23.46,11.66,15.04,36.04c0,0,9.15,7.04,9.15,12.5h-60.72c0,0-14.4-6.97-23.64-25.43c-5.26-10.51-22.54-45.01,13.99-77.83
		c8.89-7.98,20.78-15.67,37.76-21.35l33.66-34.04l4.5-19.36v-11.41l-35.64-30.16L976.83,582.14z"/><path class="st12" d="M1040.98,630.47c-5.92,0-7.36-1.25-7.88-2.31c-2.26-4.67,10.26-25.14,11.69-27.46l1.21,0.75
		c-5.26,8.5-13.07,23.11-11.62,26.09c1.33,2.73,15.73,1.24,25.53-0.68l0.27,1.4c-0.06,0.01-6.14,1.2-12.41,1.83
		C1045.02,630.35,1042.79,630.47,1040.98,630.47z"/><ellipse class="st3" cx="1022.52" cy="595.86" rx="3.41" ry="3.4"/><ellipse class="st3" cx="982.12" cy="584.3" rx="6.56" ry="6.55"/><path class="st12" d="M1084.12,814.12l-23.56-93.72l-21.13,33.44l1.99,11.18l0,0l29,58.97h22.12
		C1092.53,815.8,1084.12,814.12,1084.12,814.12z"/><path class="st13" d="M926.46,809.6c-4.15,0.59-14.23,0-14.82,5.33c-0.59,5.33,5.34,10.07,13.04,8.88
		c7.71-1.18,20.16-4.15,20.16-4.15"/><path class="st14" d="M992.09,613.27c0,0-1.16-17.79-14.21-15.84l-11.23,9.24l3.21,18.52c0.78,4.51,4.38,7.99,8.91,8.63l0,0
		c4.34,0.61,8-3.21,7.22-7.52l-1.38-7.58L992.09,613.27L992.09,613.27z"/><path class="st13" d="M975.17,594.02l-0.08,0.58c-0.3,2.29,0.82,4.53,2.83,5.67l23.14,13.16l-1.24-22.38L975.17,594.02z"/></g><g id="Man"><path class="st15" d="M479.47,248.14l-15.84-71.72l-0.12,0.01c-2.55-14.13-14.37-25.31-29.36-26.44
		c-17.79-1.34-33.29,11.99-34.63,29.78c-0.78,10.31,6.19,23.85,12.19,33.42l20.03,55.86l2.3,6.05c2.05-0.5,4.02-0.97,5.93-1.41
		c-0.51,5.62,1.45,11.53,6.42,15.83l58.1,50.27l31.31-32.1L479.47,248.14z"/><polygon class="st15" points="358.05,330.94 429.54,344.28 437.7,794.53 358.05,794.53 	"/><rect x="368.74" y="810.18" class="st11" width="57.44" height="13.57"/><path class="st11" d="M368.74,812.8c0-13.86,12.86-25.09,28.72-25.09c15.86,0,28.72,11.23,28.72,25.09H368.74z"/><path class="st11" d="M289.04,810.23v-19.87l-3.33,1.09c-14.08,4.61-29.47,2.78-42.08-5.01l-1.5-0.93l-45.64,13.64
		c-4.88,1.48-8.21,5.98-8.21,11.08l0,0H289.04z"/><polygon class="st15" points="349.36,390.72 279.18,356.03 212.89,794.53 292.33,794.53 	"/><polygon class="st15" points="426.55,392.08 426.55,319.99 281.07,319.99 281.85,392.51 	"/><polygon class="st9" points="292.33,150.31 335.44,138.83 382.88,138.83 432.03,150.31 432.03,324.53 292.33,324.53 292.33,150.31 
			"/><path class="st15" d="M254.66,241.68c0.25-15.81-4.1-40.36-0.95-55.84l0,0c4.75-33.2,28.88-35.52,28.88-35.52l14.56,52.71
		L254.66,241.68z"/><polygon class="st15" points="351.18,424.64 263.18,424.64 282.33,150.31 334.28,138.8 	"/><polygon class="st15" points="367.95,424.64 442.96,424.64 438.35,150.61 382.93,138.83 	"/><path class="st16" d="M334.25,149.1v-38.02l48.69,0.19v37.83c0,9.9-8.02,17.92-17.92,17.92h-12.86
		C342.27,167.01,334.25,158.99,334.25,149.1z"/><polygon class="st5" points="358.05,167.01 368.72,192.84 399.85,142.8 382.94,138.83 	"/><path class="st15" d="M248.81,289.67c-2.4-5.93-2.89-16.66-2.28-25.15l6.5-71.32l52.93,7.58l-21.63,73.03l0,0l32.74,74.54
		l-36.35,30.18L248.81,289.67z"/><polygon class="st5" points="358.86,167.01 348.2,192.84 317.07,142.8 334.28,138.8 	"/><polygon class="st14" points="351.18,424.64 312.17,216.72 323.57,196.19 308.96,196.19 316.29,142.78 334.27,138.8 	"/><polygon class="st14" points="367.95,424.64 404.35,216.72 392.95,196.19 407.56,196.19 400.21,142.5 382.93,138.83 	"/><ellipse class="st17" cx="326.02" cy="93.57" rx="9.65" ry="9.65"/><ellipse class="st17" cx="389.59" cy="93.57" rx="9.65" ry="9.65"/><path class="st17" d="M389.49,107.97V64.28c0-14.14-11.47-25.61-25.61-25.61h-12.17c-14.14,0-25.61,11.47-25.61,25.61v43.69
		c0,14.14,11.47,25.61,25.61,25.61h12.17C378.03,133.58,389.49,122.12,389.49,107.97z"/><path class="st13" d="M363.35,78.53c5.89-7.18,15.62-8.06,21.48,0H363.35z"/><path class="st13" d="M351.91,78.53c-5.89-7.18-15.62-8.06-21.48,0H351.91z"/><rect x="326.1" y="80.55" class="st13" width="3.63" height="26.12"/><rect x="386.05" y="80.55" class="st13" width="3.44" height="26.12"/><path class="st13" d="M326.1,128.72v-22.12h63.39v22.12c0,16.41-13.3,29.71-29.71,29.71h-3.97
		C339.4,158.44,326.1,145.13,326.1,128.72z"/><path class="st18" d="M357.72,104.83c-1.49,0-2.67-0.74-3.7-1.39c-1.71-1.07-2.73-1.71-4.79,0.34l-1.34-1.34
		c3.12-3.12,5.34-1.73,7.13-0.61c0.9,0.57,1.75,1.1,2.7,1.1c0.97,0,1.77-0.49,2.62-1.01c1.7-1.04,3.81-2.34,7.31,0.57l-1.21,1.46
		c-2.46-2.04-3.52-1.39-5.11-0.41C360.34,104.15,359.22,104.83,357.72,104.83z"/><path class="st18" d="M394.27,92.24l-2.42-9.31c-0.78-3-3.49-5.1-6.59-5.1h-19.45c-3.29,0-6.04,2.34-6.67,5.45h-3.02
		c-0.64-3.1-3.39-5.45-6.67-5.45h-19.45c-3.1,0-5.81,2.1-6.59,5.1l-2.42,9.31c-0.58,2.23,0,4.59,1.55,6.3
		c1.31,1.44,3.13,2.24,5.04,2.24c0.36,0,0.71-0.03,1.07-0.08l21.87-3.46c3.33-0.53,5.75-3.36,5.75-6.73v-3.92H359v3.92
		c0,3.38,2.42,6.21,5.75,6.73l21.87,3.46c0.36,0.06,0.72,0.08,1.07,0.08c1.91,0,3.73-0.8,5.04-2.24
		C394.28,96.83,394.85,94.47,394.27,92.24z M352.7,90.49c0,1.61-1.16,2.97-2.75,3.22l-21.87,3.46c-1.1,0.18-2.17-0.2-2.92-1.03
		s-1.02-1.93-0.74-3.01l2.42-9.31c0.37-1.44,1.67-2.44,3.15-2.44h19.45c1.8,0,3.26,1.46,3.26,3.26V90.49z M390.09,96.15
		c-0.75,0.83-1.82,1.21-2.92,1.03l-21.87-3.46c-1.59-0.25-2.75-1.61-2.75-3.22v-5.85c0-1.8,1.46-3.26,3.26-3.26h19.45
		c1.48,0,2.78,1,3.15,2.44l2.42,9.31C391.12,94.22,390.85,95.32,390.09,96.15z"/><path class="st13" d="M375.88,24.21c-2.18,0-4.26,0.38-6.21,1.04c-1.92-5.39-7.05-9.25-13.09-9.25c-5.8,0-10.76,3.55-12.85,8.59
		c-8.83,1.77-15.49,9.58-15.49,18.94c0,10.67,8.64,19.32,19.3,19.32c5.61,0,10.64-2.41,14.17-6.23c3.53,3.82,8.56,6.23,14.17,6.23
		c10.66,0,19.3-8.65,19.3-19.32S386.54,24.21,375.88,24.21z"/><path class="st5" d="M366.39,89.55c0.37,1.86,3.72,2.76,7.47,2c3.75-0.75,6.49-2.87,6.11-4.73c-0.37-1.86-3.72-2.76-7.47-2
		C368.75,85.57,366.02,87.69,366.39,89.55"/><path class="st3" d="M369.96,88.26c0,1.9,1.54,3.43,3.43,3.43c1.9,0,3.43-1.54,3.43-3.43c0-1.9-1.54-3.43-3.43-3.43
		C371.5,84.82,369.96,86.36,369.96,88.26"/><path class="st5" d="M350.29,89.55c-0.37,1.86-3.72,2.76-7.47,2c-3.75-0.75-6.49-2.87-6.11-4.73c0.37-1.86,3.72-2.76,7.47-2
		C347.92,85.57,350.66,87.69,350.29,89.55"/><path class="st3" d="M346.68,88.17c0,1.9-1.54,3.43-3.43,3.43c-1.9,0-3.43-1.54-3.43-3.43s1.54-3.43,3.43-3.43
		C345.14,84.74,346.68,86.28,346.68,88.17"/></g><g id="Woman_with_Baby"><polygon class="st0" points="600.52,129.33 618.62,137.93 604.67,140.33 597.07,134.73 	"/><polygon class="st15" points="609.84,775.97 573.21,775.97 570.26,806.59 574.51,824 609.32,824 613.56,806.59 	"/><path class="st19" d="M609.34,786.93l-10.23,13.3c-4.21,5.47-12.43,5.54-16.72,0.14l-10.7-13.44l1.4-15.13h34.29L609.34,786.93z"/><path class="st19" d="M694.16,769.51l32.65,42.05l21.82-8.25l-22.95-53.01l-21.81-256.74c0.48-18.93-14.73-34.53-33.67-34.53h0
		c-20.01,0-13.87,12.9-11.75,32.8L694.16,769.51z"/><path class="st15" d="M722.1,818.6c2.34,3.38,6.19,5.4,10.3,5.4h45.11c2.18,0,3.94-1.77,3.94-3.94l0,0c0-1.54-0.9-2.95-2.31-3.59
		l-30.97-14.14l0,0c-10.85,3.31-22.57-0.96-28.76-10.46l-27.07-41.58l-4.95,6.63c-5.61,7.51-4.88,15.94-4.88,26.23v0V824h11.2v-34.6
		c0-1.61,1.31-2.92,2.92-2.92l0,0c0.92,0,1.79,0.43,2.34,1.17L722.1,818.6z"/><polygon class="st20" points="574.98,269.91 568.62,138.98 707.75,136.07 705.68,270.48 	"/><polygon class="st21" points="694.53,201.17 714.19,246.12 758.66,248.83 734.77,156.55 	"/><polygon class="st21" points="582.11,198.03 588.59,246.12 542.66,251.7 545.04,165.13 	"/><polygon class="st8" points="576.82,271.85 573.9,138.03 705.73,138.03 703.84,271.85 	"/><path class="st8" d="M544.45,172.31c-1.32-17.56,11.83-32.87,29.37-34.19c17.54-1.32,32.83,11.84,34.16,29.4
		s-20.1,44.63-20.1,44.63S545.77,189.87,544.45,172.31z"/><path class="st8" d="M737.47,170.36c1.32-17.56-11.83-32.87-29.37-34.19c-17.54-1.32-32.83,11.84-34.16,29.4s20.1,44.63,20.1,44.63
		S736.15,187.92,737.47,170.36z"/><ellipse class="st21" cx="672.62" cy="91.35" rx="9.57" ry="9.59"/><ellipse class="st21" cx="607.65" cy="91.33" rx="9.57" ry="9.59"/><path class="st22" d="M616.5,140.1v-30.72l47.31,0.07v30.65c0,13.08-10.59,23.68-23.65,23.68h0
		C627.09,163.78,616.5,153.18,616.5,140.1z"/><path class="st21" d="M608.8,104.94V60.71c0-13.97,11.32-25.29,25.29-25.29h12.14c13.97,0,25.29,11.32,25.29,25.29v44.23
		c0,13.97-11.32,25.29-25.29,25.29h-12.14C620.12,130.23,608.8,118.91,608.8,104.94z"/><path class="st3" d="M640.04,102.04c-0.36,0-0.73-0.04-1.11-0.12c-1.08-0.22-2.12-0.78-3.07-1.66c-0.51-0.47-1.01-0.67-1.53-0.63
		c-1.05,0.09-1.87,1.15-1.88,1.16l-1-0.76c0.05-0.06,1.16-1.51,2.76-1.65c0.89-0.08,1.73,0.24,2.5,0.96
		c0.78,0.72,1.61,1.18,2.46,1.35c0.87,0.18,1.65,0.09,2.3-0.24c0.28-0.14,0.55-0.36,0.82-0.65c0.33-0.36,1.26-1.22,2.6-1.27
		c1.11-0.03,2.15,0.44,3.2,1.43l-0.86,0.91c-0.79-0.75-1.56-1.13-2.29-1.09c-0.86,0.03-1.49,0.62-1.72,0.87
		c-0.37,0.39-0.76,0.7-1.16,0.91C641.44,101.88,640.77,102.04,640.04,102.04z"/><path class="st23" d="M640.22,111.3c0-2.68-4.11-2.32-4.11-2.32h-9.29c0.09-0.52,13.12,19.95,26.79,0h-9.29
		C644.32,108.98,640.22,108.62,640.22,111.3L640.22,111.3z"/><path class="st24" d="M655.65,70.8l0.39,0c4.02,0.02,7.8,2.03,10.21,5.43l0,0l-20.86-0.1l0,0
		C647.83,72.75,651.62,70.78,655.65,70.8L655.65,70.8z"/><path class="st5" d="M647.25,88.69c0,0,2.29-4.91,6.68-6.44c4.39-1.53,9.23,0.9,9.23,0.9s-1.76,4-6.15,5.53
		S647.25,88.69,647.25,88.69z"/><ellipse class="st3" cx="655.2" cy="85.48" rx="3.8" ry="3.81"/><path class="st3" d="M647.25,88.69c1.13-7.85,11.04-11.2,17.13-7.51c-0.37,0.6-1.09,1.81-1.46,2.41c-1.35-0.81-8.34-3.64-14.7,3.98
		C647.84,88.03,647.79,88.22,647.25,88.69z"/><path class="st24" d="M623.01,70.8l-0.39,0c-4.02,0.02-7.8,2.03-10.21,5.43l0,0l20.86-0.1l0,0
		C630.83,72.75,627.03,70.78,623.01,70.8L623.01,70.8z"/><path class="st5" d="M631.96,88.62c0,0-2.29-4.91-6.68-6.44c-4.39-1.53-9.23,0.9-9.23,0.9s1.76,4,6.15,5.53
		S631.96,88.62,631.96,88.62z"/><ellipse class="st3" cx="623.39" cy="85.13" rx="3.8" ry="3.81"/><path class="st3" d="M631.96,88.61c-1.13-7.85-11.04-11.2-17.13-7.51c0.37,0.6,1.09,1.81,1.46,2.41c1.35-0.81,8.34-3.64,14.7,3.98
		C631.37,87.95,631.42,88.15,631.96,88.61z"/><path class="st24" d="M648.65,33.1h-17c-15.13,0-27.39,12.27-27.39,27.42v28.77h4.9V76.32c0-2.27,0.3-4.47,0.86-6.57h15.48
		c10.44,0,18.92-8.35,19.17-18.73h1.5c3.67,0,7.15,0.81,10.29,2.25l3.22-8.14l4.76,1.89l-3.52,8.89c6.2,4.6,10.22,12.03,10.22,20.41
		v12.97h4.9V60.52C676.04,45.38,663.78,33.1,648.65,33.1z"/><path class="st9" d="M758.15,736.8l-25.11-320.2c-0.25-3.2-0.62-6.36-1.11-9.49c0,0,0,0,0,0c0-38.17-28.79-141.46-28.79-141.46
		l-129.4,0.37c0,0-27.3,100.04-27.3,143.66c0,0,0,0.01,0,0.01c-0.31,2.33-0.56,4.68-0.74,7.06l-25.11,320.2
		c-2.54,32.45,23.07,60.19,55.59,60.19h0c30.52,0,55.37-24.56,55.76-55.12l4.29-339.15l3.04-11.23v-0.06
		c0.13-0.06,0.21-0.09,0.21-0.09l3.04,11.23l4.29,339.15c0.39,30.55,25.24,55.12,55.76,55.12h0
		C735.08,796.99,760.7,769.25,758.15,736.8z"/><path class="st25" d="M671.7,287.94l-2.79-10.27c0.21-0.71,0.35-1.45,0.39-2.22l0.96-16.17c0.32-5.44-3.74-10.11-9.06-10.44
		l-3.36-0.21c-5.33-0.33-9.91,3.81-10.23,9.25l-0.96,16.17c-0.05,0.83,0.02,1.64,0.16,2.43c0.02,0.71,0.11,1.43,0.31,2.15
		l4.04,14.89c1.33,4.89,6.36,7.77,11.24,6.45l2.85-0.78C670.14,297.87,673.03,292.83,671.7,287.94z"/><path class="st14" d="M651.16,293.53c0,0,10.63-14.31,20.54-5.58l4.41,13.86l-12.75,13.81c-3.1,3.36-8.02,4.33-12.16,2.41l0,0
		c-3.97-1.84-4.98-7.04-1.98-10.23l5.27-5.62L651.16,293.53L651.16,293.53z"/><path class="st25" d="M728.59,273.67l-1.01-16.48c-0.34-5.54-5.17-9.76-10.79-9.43l-3.54,0.21c-5.62,0.33-9.9,5.1-9.56,10.64
		l1.01,16.48c0.07,1.16,0.35,2.25,0.78,3.26l-2.56,9.45c-1.33,4.89,1.56,9.93,6.44,11.25l2.85,0.78c4.88,1.33,9.92-1.56,11.24-6.45
		l3.85-14.2C728.23,277.56,728.71,275.67,728.59,273.67z"/><path class="st25" d="M723.45,293.39c0,0-10.63-14.31-20.54-5.58l-4.41,13.86l12.75,13.81c3.1,3.36,8.02,4.33,12.16,2.41l0,0
		c3.97-1.84,4.98-7.04,1.98-10.23l-5.27-5.62L723.45,293.39L723.45,293.39z"/><path class="st21" d="M736.23,232.22l-81.97,6.68l-0.03-3.2l-32.23-1.64l0-0.01l-3.5-0.14c-2.91-0.12-5.36,2.15-5.47,5.05l0,0.01
		c-0.07,1.68,0.66,3.2,1.85,4.21c-1.69,0.82-2.88,2.52-2.96,4.53l0,0.01c-0.09,2.24,1.23,4.2,3.17,5.04
		c-1.11,0.92-1.85,2.29-1.91,3.85l0,0.01c-0.08,1.9,0.87,3.6,2.35,4.59c-0.19,0.51-0.3,1.05-0.32,1.62l0,0.01
		c-0.11,2.82,2.01,5.2,4.79,5.45l-0.01,0.2l20.11,0.11l96.54,5.99c12.33,0.76,22.7-9.15,22.51-21.51v0
		C758.95,240.77,748.44,231.22,736.23,232.22z"/><path class="st26" d="M716.6,211.55c-0.61,5.29-5.39,9.08-10.68,8.46l-1.17-0.14c-5.27-0.61-9.06-5.4-8.45-10.69l5.08-43.63
		c0.61-5.29,5.39-9.08,10.68-8.46l1.16,0.14c5.29,0.61,9.07,5.4,8.46,10.69L716.6,211.55z"/><path class="st25" d="M700.36,153l-6.58,4.16c-9.15,5.78-21.24,3.04-27.01-6.11l-7.23-11.47c-5.77-9.15-3.03-21.25,6.11-27.03
		l6.58-4.16c9.14-5.78,21.24-3.04,27,6.11l7.24,11.47C712.23,135.12,709.5,147.22,700.36,153L700.36,153z"/><path class="st25" d="M708.15,123.24c0.86,1.42,0.4,3.27-1.03,4.13c-1.42,0.87-3.28,0.42-4.14-1c-0.86-1.42-0.4-3.27,1.03-4.14
		C705.43,121.37,707.28,121.82,708.15,123.24"/><path class="st0" d="M673.71,108.49c-0.01-0.3-0.13-7.38,4.06-8.12c1.99-0.35,3.51,1.2,4.98,2.7c1.39,1.41,2.7,2.76,4.21,2.43
		c0.71-0.15,1.24-0.5,1.6-1.07c1.05-1.66,0.39-4.52,0.39-4.55l1.51-0.36c0.03,0.14,0.82,3.52-0.58,5.73
		c-0.59,0.93-1.46,1.52-2.59,1.76c-2.33,0.5-4.09-1.29-5.63-2.86c-1.25-1.27-2.42-2.46-3.61-2.26c-2.39,0.42-2.81,4.88-2.78,6.56
		L673.71,108.49z"/><path class="st3" d="M693.09,129.58l-0.23-0.88c5.5-1.43,5.03-6.13,5.01-6.33l0.91-0.11C698.79,122.31,699.37,127.95,693.09,129.58
		z"/><path class="st9" d="M714.32,195.54h-58.25l-5.44-31.89c1.28-8.1,10.78-16.09,18.45-16.09h38.3c0.47,0,0,0.41,0,0.92L714.32,195.54
		L714.32,195.54z"/><path class="st9" d="M722.11,163.65c0,8.89-7.2,16.09-16.07,16.09c-8.88,0-16.08-7.2-16.08-16.09c0-8.89,7.2-16.09,16.08-16.09
		C714.91,147.56,722.11,154.76,722.11,163.65L722.11,163.65z"/><path class="st9" d="M682.78,163.65c0,8.89-7.2,16.09-16.08,16.09s-16.08-7.2-16.08-16.09c0-8.89,7.2-16.09,16.08-16.09
		S682.78,154.76,682.78,163.65L682.78,163.65z"/><path class="st5" d="M703.48,247h-39.62c-10.27,0-17.63-8.56-15.59-19.68l7.6-31.78h59.04l7.17,31.78
		C724.36,242.13,713.75,247,703.48,247L703.48,247z"/><path class="st0" d="M692.72,117.67l-3.51,7.67c-0.31,0.68-0.01,1.49,0.67,1.8l0,0c0.68,0.31,1.49,0.01,1.8-0.67l3.51-7.67
		c0.31-0.68,0.01-1.49-0.67-1.8l0,0C693.84,116.69,693.04,116.99,692.72,117.67z"/><path class="st21" d="M720.15,179.68L720.15,179.68c-1.09-2.36-3.89-3.38-6.25-2.29l-4.1,1.89c2.35-1.09,3.38-3.89,2.28-6.24l0,0
		c-1.09-2.36-3.89-3.38-6.25-2.29l-31.43,14.61l5.08-8.44c1.41-2.34,0.66-5.38-1.68-6.79v0c-2.34-1.41-5.39-0.66-6.8,1.68
		l-18.09,30.04l-94.13,26.54c-11.79,3.33-18.32,15.94-14.24,27.5l0,0c4.12,11.66,17.29,17.34,28.58,12.32l90.68-40.28l26.01-10.96
		l-0.03-0.05l23.74-9.82c2.4-0.99,3.54-3.74,2.55-6.14l0,0c-0.63-1.54-1.99-2.55-3.52-2.83l3.55-1.65c2.35-1.09,3.38-3.89,2.28-6.24
		l0,0c-0.76-1.64-2.35-2.61-4.04-2.7l3.52-1.63C720.22,184.83,721.24,182.03,720.15,179.68z"/><path class="st0" d="M577.97,150.12l-0.2,0.04c-2.14,0.4-4.19-1.01-4.58-3.15l-1.46-7.87c-0.4-2.13,1.01-4.19,3.15-4.58l0.2-0.04
		c2.14-0.4,4.19,1.01,4.58,3.15l1.46,7.87C581.52,147.67,580.11,149.72,577.97,150.12z"/><path class="st0" d="M586.23,150.96l-0.05,0.01c-2.18,0.4-4.27-1.03-4.67-3.21l-2.28-12.33c-0.4-2.18,1.03-4.27,3.21-4.67
		l0.05-0.01c2.18-0.4,4.27,1.03,4.67,3.21l2.28,12.33C589.84,148.46,588.41,150.55,586.23,150.96z"/><path class="st0" d="M594.15,149.48l-0.05,0.01c-2.18,0.4-4.27-1.03-4.67-3.21l-2.29-12.33c-0.4-2.18,1.03-4.27,3.21-4.67
		l0.05-0.01c2.18-0.4,4.27,1.03,4.67,3.21l2.29,12.33C597.76,146.98,596.33,149.07,594.15,149.48z"/><path class="st0" d="M602.12,146.52l-0.05,0.01c-2.16,0.49-4.3-0.87-4.79-3.03l-2.12-9.42c-0.49-2.16,0.87-4.3,3.03-4.79l0.05-0.01
		c2.16-0.49,4.3,0.87,4.79,3.03l2.12,9.42C605.64,143.88,604.28,146.03,602.12,146.52z"/></g><g id="KIds"><polygon class="st21" points="489.73,382.11 444.69,514.23 428.91,505.34 458.62,371.94 	"/><path class="st21" d="M444.69,514.23l-3.29,6.82l-0.3,0.45l0,0l-14.69,20.43c-0.95,1.35-2.82,1.67-4.17,0.72l0,0
		c-1.35-0.95-1.67-2.82-0.72-4.17l8.98-12.34l-0.35-0.25l-11.27,15.59c-0.95,1.35-2.82,1.67-4.17,0.72l0,0
		c-1.35-0.95-1.67-2.82-0.72-4.17l10.52-14.52l-0.35-0.25l-11.84,16.4c-0.95,1.35-2.82,1.67-4.17,0.72l0,0
		c-1.35-0.95-1.67-2.82-0.72-4.17l12.6-17.46l-0.35-0.25l-10.79,14.9c-0.95,1.35-2.82,1.67-4.17,0.72l0,0
		c-1.35-0.95-1.67-2.82-0.72-4.17L417.64,511l-8.12,3.9c-1.5,0.69-3.28,0.04-3.97-1.47l0,0c-0.69-1.5-0.04-3.28,1.47-3.97
		l13.66-6.46c3.46-1.6,7.15-2.64,10.94-3.11l0,0"/><path class="st25" d="M435.04,538.81c1.24-1.12,1.33-3.03,0.21-4.27l-3.63-4.01c0.99,0.25,2.08,0,2.86-0.77
		c1.19-1.17,1.2-3.09,0.03-4.28l-13.92-14.12l-1.17-1.3l-0.07,0.03l-0.62-0.62l-1.85,1.83l-7.37,3.6c-1.5,0.69-3.28,0.04-3.97-1.47
		c-0.69-1.5-0.04-3.28,1.47-3.97l10.16-4.8l-17.34-67.54l-10.59-74.11l-26.23,20.34l4.56,21.58l6.02,34.39l26.9,73.97l1.8,10.13
		c0.13,0.75,0.5,1.44,1.05,1.98l4.06,3.96l0,0l15.8,17.46c1.12,1.24,3.04,1.33,4.27,0.21v0c0.73-0.66,1.05-1.6,0.97-2.51l0.71,0.78
		c1.12,1.24,3.04,1.34,4.27,0.21c1.24-1.12,1.33-3.03,0.21-4.27l-1.67-1.85C433,539.77,434.18,539.59,435.04,538.81z"/><path class="st25" d="M415.94,522.2"/><polygon class="st25" points="255.41,498.29 256.27,517.75 232.77,515.51 237.32,495.41 	"/><polygon class="st25" points="237.03,497.58 249.82,424.81 276,430.56 254.88,500.02 	"/><path class="st25" d="M260.98,531.78L260.98,531.78c-1.66,1.04-3.86,0.53-4.89-1.13l-11.28-18.08l6.02-3.76l11.28,18.09
		C263.15,528.55,262.65,530.74,260.98,531.78z"/><path class="st25" d="M257.82,545.89L257.82,545.89c-1.28,1.48-3.52,1.65-5.01,0.36L240.96,536l4.64-5.38l11.85,10.26
		C258.94,542.16,259.1,544.4,257.82,545.89z"/><path class="st25" d="M258.58,542.26L258.58,542.26c-1.49,1.28-3.73,1.1-5-0.39l-10.19-11.91l5.39-4.62l10.19,11.91
		C260.24,538.74,260.07,540.98,258.58,542.26z"/><rect x="229.1" y="520.88" transform="matrix(0.3735 0.9276 -0.9276 0.3735 636.9435 105.8115)" class="st25" width="22.08" height="7.1"/><rect x="232.72" y="519.08" transform="matrix(0.4241 0.9056 -0.9056 0.4241 613.6573 80.2175)" class="st25" width="22.08" height="7.1"/><path class="st25" d="M251.24,522.92c0,0-1.66-2.87-2.25-3.74c-1.23-1.79-3.01-0.5-2.29,1.19c0.46,1.08,2.17,4.56,3.29,7.2
		c-4.64-4.51-13.26-10.43-13.26-10.43l13.45-4.31L251.24,522.92z"/><polygon class="st25" points="256.62,360.89 249.82,424.81 276,430.56 285.43,364.6 	"/><polygon class="st25" points="290.07,750.7 279.24,534.2 318.53,534.2 318.53,750.7 	"/><polygon class="st25" points="355.16,755.1 365.98,532.49 327.6,533.95 326.71,755.1 	"/><polygon class="st9" points="292.09,794.68 286.7,684.27 318.53,684.27 318.44,795.56 	"/><polygon class="st27" points="286.52,679.87 318.53,679.87 318.53,684.27 286.7,684.27 	"/><path class="st15" d="M289.03,790.32l0.34,18.17c-6.07,2.3-10.84,6.69-10.84,11.52l41.46,0.16l0-30.2L289.03,790.32z"/><rect x="278.53" y="819.91" class="st15" width="41.46" height="4.09"/><polygon class="st9" points="353.54,791.26 355.63,745.12 326.71,744.91 326.56,791.62 	"/><polygon class="st27" points="355.79,742.82 326.69,742.82 326.69,747.21 355.59,747.21 	"/><path class="st15" d="M356.59,790.32l-0.34,18.17c6.07,2.3,10.84,6.69,10.84,11.52l-41.46,0.07l0-30.1L356.59,790.32z"/><rect x="325.62" y="819.91" class="st15" width="41.46" height="4.09"/><path class="st28" d="M368.99,340.43c-0.12-0.01-0.23-0.01-0.34-0.02l0-0.05h-90.68l0,0.01c-0.45,0.01-0.89,0.02-1.34,0.06
		c-12.07,0.95-21.11,11.89-20.2,24.45c0.53,7.3,16.19,16.68,24.48,22.46v67.89h83.82l0-67.89c8.08-5.75,23.97-15.45,24.48-22.46
		C390.1,352.32,381.06,341.37,368.99,340.43z"/><path class="st5" d="M353.33,638.53L353.33,638.53c1.22,1.02,1.38,2.84,0.35,4.06l-10.25,12.23c-1.02,1.22-2.84,1.38-4.06,0.36l0,0
		c-1.22-1.02-1.38-2.84-0.35-4.06l10.25-12.23C350.29,637.66,352.11,637.5,353.33,638.53z"/><path class="st5" d="M354.67,653.84L354.67,653.84c-1.02,1.22-2.84,1.38-4.06,0.36l-12.22-10.26c-1.22-1.02-1.38-2.84-0.35-4.06
		l0,0c1.02-1.22,2.84-1.38,4.06-0.36l12.22,10.26C355.53,650.8,355.69,652.62,354.67,653.84z"/><ellipse class="st25" cx="347.15" cy="306.17" rx="7.51" ry="7.52"/><ellipse class="st25" cx="296.2" cy="306.15" rx="7.51" ry="7.52"/><path class="st29" d="M338.64,340.75v-24.8l-33.94-0.11v24.91c0,9.96,7.6,18.03,16.97,18.03h0
		C331.05,358.79,338.64,350.71,338.64,340.75z"/><path class="st25" d="M297.09,311.89v-24.18c0-13.45,10.91-24.36,24.36-24.36h0.45c13.45,0,24.36,10.91,24.36,24.36v24.18
		c0,13.45-10.91,24.36-24.36,24.36h-0.45C307.99,336.25,297.09,325.34,297.09,311.89z"/><path class="st30" d="M309.34,292.51l-0.29,0c-3.02,0.01-5.85,1.08-7.66,2.89l0,0l15.65-0.05l0,0
		C315.2,293.55,312.35,292.5,309.34,292.51L309.34,292.51z"/><path class="st30" d="M334.01,292.51l0.29,0c3.02,0.01,5.85,1.08,7.66,2.89l0,0l-15.65-0.05l0,0
		C328.15,293.55,330.99,292.5,334.01,292.51L334.01,292.51z"/><path class="st5" d="M313.82,304.93c1.04-0.14,1.52-1.35,0.9-2.2c-0.9-1.22-2.34-2.73-4.3-3.41c-2.11-0.73-4.34-0.34-5.81,0.1
		c-0.93,0.28-1.29,1.4-0.69,2.17c0.79,1.01,2.09,2.27,4.01,2.93C309.95,305.24,312.23,305.14,313.82,304.93z"/><ellipse class="st3" cx="309.26" cy="302" rx="2.91" ry="2.91"/><path class="st3" d="M314.99,303.26c-1.99-4.83-7.03-5.89-11.6-3.85c0.3,0.48,0.15,0.13,0.45,0.61c0.72-0.43,3.3-1.22,6.14-0.45
		C313.16,300.45,314.55,302.89,314.99,303.26z"/><path class="st5" d="M330.17,304.93c-1.04-0.14-1.52-1.35-0.9-2.2c0.9-1.22,2.34-2.73,4.3-3.41c2.11-0.73,4.34-0.34,5.81,0.1
		c0.93,0.28,1.29,1.4,0.69,2.17c-0.79,1.01-2.09,2.27-4.01,2.93C334.04,305.24,331.76,305.14,330.17,304.93z"/><ellipse class="st3" cx="334.73" cy="302" rx="2.91" ry="2.91"/><path class="st3" d="M328.99,303.26c1.99-4.83,7.03-5.89,11.6-3.85c-0.3,0.48-0.15,0.13-0.45,0.61c-0.72-0.43-3.3-1.22-6.14-0.45
		C330.83,300.45,329.43,302.89,328.99,303.26z"/><path class="st3" d="M321.64,312.32c-0.85,0-1.51-0.46-2.1-0.87c-0.97-0.67-1.55-1.07-2.72,0.21l-0.76-0.83
		c1.77-1.95,3.03-1.08,4.05-0.38c0.51,0.35,0.99,0.69,1.53,0.69c0.55,0,1.01-0.31,1.49-0.63c0.96-0.65,2.16-1.46,4.15,0.36
		l-0.68,0.91c-1.4-1.27-1.99-0.87-2.9-0.26C323.13,311.89,322.5,312.32,321.64,312.32z"/><path class="st31" d="M360.12,264.68c0-8.26-6.69-14.96-14.94-14.96c-7.27,0-13.32,5.2-14.66,12.08c-0.71-0.07-1.44-0.11-2.17-0.11
		h-13.33c-0.27,0-0.53,0.03-0.8,0.04c-1.37-6.85-7.41-12.01-14.65-12.01c-8.25,0-14.94,6.7-14.94,14.96c0,6.31,3.91,11.7,9.43,13.9
		c-0.33,1.49-0.51,3.03-0.51,4.61v16.32h3.84v-3.92c0-5.25,5.25-8.18,10.72-9.8c7.18-2.13,12.13-8.68,12.13-16.18h2.9
		c0,7.49,4.95,14.05,12.13,16.18c5.47,1.62,10.72,4.54,10.72,9.8v3.92h3.84v-16.32c0-1.43-0.15-2.82-0.41-4.17
		C355.59,277.19,360.12,271.46,360.12,264.68z"/><path class="st3" d="M321.91,324.02c0,0-0.01,0-0.01,0c-3.63-0.01-6.65-2.51-6.78-2.62l0.75-0.9c0.03,0.02,2.83,2.34,6.03,2.34
		c0,0,0.01,0,0.01,0c3.29,0,5.49-2.27,5.51-2.29l0.85,0.8C328.18,321.47,325.73,324.02,321.91,324.02z"/><polygon class="st21" points="589.86,497.96 588.7,517.41 612.19,515.99 607.99,495.37 	"/><polygon class="st21" points="608.25,497.54 599.41,422.77 569.59,427.17 590.36,499.7 	"/><path class="st21" d="M583.77,531.36L583.77,531.36c1.65,1.07,3.85,0.59,4.91-1.06l11.55-17.91l-5.96-3.86l-11.56,17.91
		C581.65,528.1,582.12,530.3,583.77,531.36z"/><path class="st21" d="M586.72,545.52L586.72,545.52c1.26,1.5,3.5,1.7,5,0.44l12.01-10.07l-4.56-5.45l-12.01,10.07
		C585.66,541.78,585.46,544.02,586.72,545.52z"/><path class="st21" d="M586.01,541.88L586.01,541.88c1.47,1.3,3.71,1.16,5.01-0.31l10.38-11.75l-5.32-4.71l-10.38,11.75
		C584.41,538.34,584.55,540.58,586.01,541.88z"/><polygon class="st21" points="612.19,515.99 605.69,512.78 597.14,533.14 603.72,535.89 	"/><rect x="590.1" y="518.93" transform="matrix(0.438 -0.899 0.899 0.438 -131.873 834.0067)" class="st21" width="22.08" height="7.1"/><path class="st21" d="M593.65,522.65c0,0,1.84-2.94,2.45-3.79c1.26-1.78,2.88-0.36,2.14,1.32c-0.47,1.08-2.24,4.53-3.4,7.14
		c4.71-4.44,13.42-10.22,13.42-10.22l-13.38-4.52L593.65,522.65z"/><polygon class="st21" points="590.76,360.56 599.69,424.76 570.32,429.92 553.5,364.78 	"/><polygon class="st21" points="559.77,759.88 570.6,537.47 531.32,537.47 531.32,759.88 	"/><polygon class="st9" points="557.55,791.62 560.32,758.24 530.64,758.03 530.76,792.47 	"/><path class="st32" d="M561.59,789.97l-0.05,16.03c6.07,1.98,7.94,5.6,7.94,9.74l-41.46-0.15v-25.62H561.59z"/><rect x="528.02" y="814.19" class="st7" width="41.46" height="9.81"/><polygon class="st21" points="494.68,749.59 483.85,533.09 523.14,533.09 523.14,749.59 	"/><polygon class="st14" points="575.54,483.14 575.14,457.63 575.07,447.95 574.99,447.95 574.96,446.39 477.35,445.79 
		474.31,722.79 523.91,722.79 523.91,483.56 528.49,483.52 528.49,722.79 577.09,722.79 	"/><path class="st10" d="M573.6,340.12c-0.12-0.01-0.23-0.01-0.34-0.02l0-0.05h-90.68l0,0.01c-0.45,0.01-0.89,0.02-1.34,0.06
		c-12.07,0.95-21.11,11.89-20.2,24.45c0.53,7.3,9.15,12.21,17.44,17.99l-1.33,64.82h97.61l1.33-64.82
		c8.08-5.75,17.21-10.98,17.72-17.99C594.71,352.01,585.67,341.06,573.6,340.12z"/><polygon class="st10" points="492.02,386.28 497.19,362.66 456.88,359.31 451.71,382.93 	"/><polygon class="st10" points="560.83,384.52 555.66,360.9 595.97,357.55 601.14,381.17 	"/><polygon class="st9" points="496.51,790.81 494.51,744.68 523.34,744.91 523.49,791.18 	"/><path class="st32" d="M490.86,789.53l0.78,16.03c-6.07,1.98-8.67,5.6-8.67,9.74l41.46,0.3v-26.07H490.86z"/><rect x="482.97" y="814.19" class="st7" width="41.46" height="9.81"/><rect x="501.28" y="283.82" class="st24" width="3.78" height="14.56"/><polygon class="st28" points="377.86,626.37 265.78,611.36 280.01,383.75 365.98,386.28 	"/></g><g id="hand_man"><path class="st25" d="M545.16,328.14l38.41,14.96c2.47,0.96,5.26-0.26,6.22-2.73l0.04-0.09c0.96-2.47-0.26-5.26-2.73-6.23
		l-38.41-14.96L545.16,328.14z"/><polygon class="st25" points="557.83,349.33 560.21,323.77 525.91,299.55 516.7,323.39 	"/><path class="st25" d="M551.65,333.56l44.14,22.58c2.39,1.22,5.31,0.28,6.53-2.11l0,0c1.22-2.39,0.28-5.31-2.11-6.54l-44.14-22.58
		L551.65,333.56z"/><path class="st25" d="M552.48,341.2l44.96,22.97c2.39,1.22,5.31,0.27,6.53-2.11v0c1.22-2.39,0.27-5.31-2.11-6.54l-44.96-22.97
		L552.48,341.2z"/><path class="st25" d="M545.04,329.48l15.55,35.79c1.05,2.42,3.87,3.53,6.29,2.48l0.62-0.27c2.42-1.05,3.53-3.86,2.48-6.28
		l-15.55-35.79L545.04,329.48z"/><path class="st25" d="M556.25,335.82l33.95,13.22c2.33,0.91,4.96-0.25,5.87-2.58l0.23-0.6c0.91-2.33-0.25-4.96-2.58-5.87
		l-33.95-13.22L556.25,335.82z"/></g><g id="head_of_boy"><ellipse class="st21" cx="501.73" cy="305.47" rx="7.56" ry="7.57"/><ellipse class="st21" cx="551.55" cy="305.47" rx="7.56" ry="7.57"/><path class="st22" d="M542.67,341.5v-24.8l-33.94-0.11v24.91c0,9.96,7.6,18.03,16.97,18.03h0
		C535.07,359.53,542.67,351.46,542.67,341.5z"/><path class="st21" d="M550.78,310.77v-23.72c0-13.54-10.98-24.52-24.52-24.52h-0.4c-13.54,0-24.52,10.98-24.52,24.52v23.72
		c0,13.54,10.98,24.52,24.52,24.52h0.4C539.8,335.29,550.78,324.31,550.78,310.77z"/><path class="st3" d="M526.61,312.83c-0.85,0-1.51-0.46-2.1-0.87c-0.97-0.67-1.55-1.07-2.72,0.21l-0.76-0.83
		c1.77-1.95,3.03-1.08,4.05-0.38c0.51,0.35,0.99,0.69,1.53,0.69c0.55,0,1.01-0.31,1.49-0.63c0.96-0.65,2.16-1.46,4.15,0.36
		l-0.68,0.91c-1.4-1.27-1.99-0.87-2.9-0.26C528.1,312.4,527.46,312.83,526.61,312.83z"/><ellipse transform="matrix(0.1294 -0.9916 0.9916 0.1294 147.5852 772.8704)" class="st5" cx="513.91" cy="302.39" rx="2.93" ry="5.69"/><ellipse class="st3" cx="514.3" cy="302.39" rx="2.93" ry="2.93"/><ellipse transform="matrix(0.9909 -0.1349 0.1349 0.9909 -35.8731 75.4674)" class="st5" cx="538.83" cy="302.39" rx="5.69" ry="2.93"/><ellipse class="st3" cx="538.44" cy="302.39" rx="2.93" ry="2.93"/><path class="st3" d="M526.78,323.29c-4.65,0-7.99-3-8.04-3.04l0.79-0.86c0.28,0.25,6.83,6.1,14.24-0.02l0.75,0.9
		C531.78,322.54,529.11,323.29,526.78,323.29z"/><ellipse class="st24" cx="514.6" cy="293" rx="7.93" ry="1.82"/><ellipse class="st24" cx="538.05" cy="293" rx="7.93" ry="1.82"/><path class="st24" d="M555.91,276.24c0-3.1-1.59-5.83-4-7.41c0.04-0.48,0.07-0.97,0.07-1.46c0-9.47-7.66-17.14-17.12-17.14
		c-4.6,0-8.76,1.82-11.84,4.77c-1.93-0.87-4.07-1.37-6.33-1.37c-7.12,0-13.1,4.84-14.87,11.41c-0.37,0.81-0.63,1.68-0.76,2.59
		c-3.88,0.95-6.77,4.44-6.77,8.62c0,3.81,2.41,7.06,5.78,8.31v14.1h3.78v-13.57c2.12-0.16,4.02-1.07,5.46-2.46
		c0.43,0.23,0.87,0.45,1.32,0.64c1.78,2.17,4.48,3.56,7.51,3.56c3.26,0,6.14-1.61,7.9-4.08c1.58,2.45,4.32,4.08,7.46,4.08
		c2.76,0,5.22-1.26,6.85-3.24c0.38-0.13,0.76-0.26,1.13-0.41c1.52,1.22,3.44,1.95,5.54,1.95c0.4,0,0.79-0.04,1.18-0.09v13.63H552
		V283.6C554.36,282.01,555.91,279.3,555.91,276.24z"/></g></svg>