<?xml version="1.0" encoding="UTF-8"?><svg xmlns="http://www.w3.org/2000/svg" version="1.1" viewBox="0 0 1200 840"><!--Generator: Adobe Illustrator 29.0.1, SVG Export Plug-In . SVG Version: 2.1.0 Build 192)--><defs><style>.st0 {
        fill: #dbcac4;
      }

      .st1 {
        fill: #010101;
      }

      .st2 {
        fill: #b9c196;
      }

      .st3 {
        fill: #993b11;
      }

      .st4 {
        fill: #130e0e;
      }

      .st5 {
        fill: #181111;
      }

      .st6 {
        fill: #fff;
      }

      .st7 {
        fill: #a95208;
      }

      .st8 {
        fill: #ffba6d;
      }

      .st9 {
        fill: #020000;
      }

      .st10 {
        fill: #ff5300;
      }

      .st11 {
        fill: #48090c;
      }

      .st12 {
        fill: #fba55f;
      }

      .st13 {
        fill: #00474e;
      }

      .st14 {
        fill: #ffd66a;
      }

      .st15 {
        fill: #e7e3d9;
      }</style></defs><g id="man"><rect class="st0" x="241.7" y="577.63" width="88.98" height="246.18"/><polygon class="st3" points="672.67 413.62 553.98 387.09 553.98 322.18 445.07 322.14 445.07 387.41 330.67 412.53 330.67 526.26 672.8 526.26 672.67 413.62"/><path class="st7" d="M575.18,263.89c-1.28,0-2.52.13-3.74.34v-49.43c0-32.13-26.05-58.18-58.18-58.18h-28c-32.13,0-58.18,26.05-58.18,58.18v49.16c-.49-.03-.97-.07-1.47-.07-12.17,0-22.04,9.87-22.04,22.04s9.87,22.04,22.04,22.04c.5,0,.98-.04,1.47-.07v8.55c0,32.13,26.05,58.18,58.18,58.18h28c32.13,0,58.18-26.05,58.18-58.18v-8.82c1.22.21,2.46.34,3.74.34,12.17,0,22.04-9.87,22.04-22.04s-9.87-22.04-22.04-22.04Z"/><path class="st6" d="M554.05,269.47c-.47-2.17-2.6-3.76-5.65-4.64-2.2-.63-4.9-.85-7.83-.64-1.44.1-2.91.27-4.44.6-8.92,1.93-15.36,7.14-14.39,11.65.97,4.51,8.99,6.6,17.92,4.68,1.17-.25,2.29-.57,3.36-.92,3.42-1.14,6.25-2.76,8.22-4.58,2.12-1.95,3.25-4.12,2.81-6.15Z"/><path class="st5" d="M487.66,250.13v-4.14c0-6.14-4.97-11.11-11.11-11.11h-23.38c-6.13,0-11.1,4.97-11.1,11.1v4.14s45.59,0,45.59,0Z"/><path class="st5" d="M512.49,250.13h45.58s0-4.14,0-4.14c0-6.14-4.97-11.11-11.11-11.11h-23.38c-6.13,0-11.1,4.97-11.1,11.1v4.15Z"/><path class="st1" d="M501.38,307.21c-3.34,0-5.97-1.65-8.3-3.11-3.82-2.4-6.13-3.84-10.74.77l-3-3c6.99-7,11.98-3.87,15.98-1.36,2.02,1.27,3.93,2.46,6.05,2.46s3.98-1.1,5.88-2.27c3.8-2.33,8.54-5.23,16.38,1.28l-2.71,3.26c-5.51-4.57-7.88-3.12-11.46-.93-2.21,1.36-4.72,2.9-8.09,2.9Z"/><rect class="st0" x="464.87" y="438.98" width="69.4" height="384.83"/><path class="st13" d="M225.46,597.49s31.74-173.5,89.11-181.42l128.76-28.39,37.36,63.26v372.86h-166.12v-170.91l-89.11-55.41Z"/><polygon class="st2" points="443.33 387.68 480.69 450.94 423.22 502.7 417.12 393.35 443.33 387.68"/><rect class="st5" x="425.72" y="195.53" width="10.12" height="68.67"/><path class="st5" d="M450,156.62c-13.41,0-24.28,10.87-24.28,24.28v21.39h69.7c21.4,0,42.55-.76,42.55-20.32,0,19.57,8.37,22.19,19.14,22.19h16.09v-24.12c0-12.83-10.33-23.26-23.12-23.42,0,0,0,0,0,0h-100.08Z"/><path class="st5" d="M513.68,332.89c-8.28,0-14.96-4.5-15.29-4.72l2.14-3.14c.08.05,8.09,5.42,16.6,3.73,4.81-.95,8.93-4,12.26-9.06l3.17,2.09c-3.92,5.95-8.87,9.55-14.73,10.7-1.41.28-2.81.4-4.16.4Z"/><path class="st6" d="M474.9,271.07c-2.16-2.36-5.86-4.45-10.37-5.73-.67-.19-1.32-.39-2.02-.54-8.92-1.93-16.94.17-17.92,4.68-.97,4.51,5.47,9.73,14.39,11.65,2.26.49,4.45.71,6.5.71,1.37,0,2.64-.14,3.84-.34,4.07-.68,7.02-2.45,7.58-5.05.38-1.77-.4-3.64-2-5.38Z"/><path class="st5" d="M466.39,278.95c4.5,0,8.17-3.52,8.43-7.96-2.17-2.33-5.84-4.39-10.29-5.65-.67-.19-1.32-.39-2.02-.54-.67-.15-1.34-.26-2-.36-1.59,1.54-2.57,3.69-2.57,6.07,0,4.67,3.79,8.46,8.46,8.46Z"/><path class="st5" d="M550.41,265.58c-.61-.29-1.28-.54-2.01-.75-2.2-.63-4.9-.85-7.83-.64-.99.07-1.99.18-3.02.34-1.52,1.53-2.47,3.64-2.47,5.97,0,4.67,3.79,8.46,8.46,8.46s8.46-3.79,8.46-8.46c0-1.84-.59-3.53-1.59-4.92Z"/><rect class="st7" x="444.5" y="277.54" width="116.57" height="9.98"/><path class="st3" d="M810.54,334.16l39.95-44.14c5.94-6.56,15.12-9.13,23.6-6.59l9.93,2.97-56.85,62.81-16.62-15.05Z"/><polygon class="st3" points="793.17 353.35 833.5 308.8 900.18 306.84 880.29 389.4 821.63 398.1 793.17 353.35"/><path class="st3" d="M866.57,282.49l27.5,1.13c5.87.2,10.48,5.12,10.28,10.99h0c-.2,5.87-5.12,10.48-10.99,10.28l-27.67-1.14-29.39,18.59,30.26-39.85Z"/><rect class="st0" x="893.15" y="186.74" width="9.06" height="219.85" transform="translate(1720.51 762.26) rotate(-168.78)"/><rect class="st10" x="898.22" y="203.92" width="34.89" height="4.06" transform="translate(535.52 1064.06) rotate(-78.78)"/><rect class="st10" x="911.96" y="134.61" width="34.89" height="4.06" transform="translate(614.58 1021.72) rotate(-78.78)"/><rect class="st10" x="955.18" y="160.73" width="4.06" height="34.89" transform="translate(596.26 1082.45) rotate(-78.78)"/><rect class="st10" x="885.87" y="146.99" width="4.06" height="34.89" transform="translate(553.92 1003.4) rotate(-78.78)"/><rect class="st10" x="930.54" y="156.12" width="23.36" height="4.06" transform="translate(71.23 550.79) rotate(-33.79)"/><rect class="st10" x="891.22" y="182.42" width="23.36" height="4.06" transform="translate(49.96 533.36) rotate(-33.79)"/><rect class="st10" x="907.38" y="139.97" width="4.06" height="23.36" transform="translate(69.25 531.32) rotate(-33.79)"/><rect class="st10" x="933.68" y="179.28" width="4.06" height="23.36" transform="translate(51.82 552.58) rotate(-33.79)"/><circle class="st10" cx="922.64" cy="170.75" r="4.63"/><circle class="st10" cx="896.45" cy="131.6" r="4.63"/><circle class="st10" cx="884.4" cy="198.19" r="4.63"/><circle class="st10" cx="960.79" cy="145.54" r="4.63"/><path class="st7" d="M866.88,337.56c-.19-5.91,4.47-10.84,10.38-10.98l27.52-.67c5.87-.19,10.79,4.42,10.98,10.3h0c.19,5.87-4.42,10.79-10.3,10.98l-27.69.67c-5.84.14-10.71-4.46-10.89-10.3h0Z"/><path class="st7" d="M878.84,316.46c-.19-5.89,4.44-10.81,10.33-10.98l23.56-.67c5.87-.19,10.79,4.42,10.98,10.3h0c.19,5.87-4.42,10.79-10.3,10.98l-23.63.68c-5.86.17-10.75-4.44-10.94-10.3h0Z"/><rect class="st7" x="875.21" y="335.52" width="21.28" height="44.84" rx="10.64" ry="10.64" transform="translate(1215.25 -538.91) rotate(88.17)"/><rect class="st7" x="870.81" y="365.19" width="21.28" height="27.77" rx="10.64" ry="10.64" transform="translate(1208.85 -522.85) rotate(86.68)"/><polygon class="st10" points="535.81 171.24 525.68 153.33 496.96 178.28 535.81 171.24"/><rect class="st5" x="563.09" y="195.53" width="10.12" height="68.36"/><path class="st13" d="M778.24,620.64l2.79-53.01s-39.88-140.73-96.44-151.3h0s-128.68-28.85-128.68-28.85l-37.44,63.47v372.86h166.12v-170.91l93.65-32.26Z"/><polygon class="st3" points="752.24 432.25 793.17 353.35 840.09 384.54 812 448.05 752.24 432.25"/><circle class="st10" cx="948.07" cy="209.71" r="4.63"/><path class="st0" d="M772.44,369.56l-91.41,236.64c-9.69,21.27,3.15,52.33,30.28,62.81,28.57,11.04,60.34-5.48,67.71-35.2l53.4-222.75-59.99-41.5Z"/><polygon class="st2" points="497.09 178.25 525.71 153.39 514.78 134.07 455.2 185.84 497.09 178.25"/><polygon class="st10" points="514.82 134.13 503.89 114.81 440.43 169.95 437.41 189.06 455.34 185.81 514.82 134.13"/><polygon class="st2" points="440.41 170.06 503.93 114.87 493 95.55 445.68 136.67 440.41 170.06"/><polygon class="st10" points="445.59 137.24 493.19 95.89 482.26 76.56 450.85 103.85 445.59 137.24"/><polygon class="st2" points="450.84 103.96 482.3 76.63 471.37 57.31 456.11 70.57 450.84 103.96"/><polygon class="st10" points="471.41 57.37 461.07 39.09 456.09 70.68 471.41 57.37"/><polygon class="st13" points="484.36 37.58 483.41 32.34 466.92 35.33 476.47 21.56 472.1 18.52 462.54 32.3 459.56 15.81 454.32 16.75 457.31 33.25 443.54 23.7 440.5 28.07 454.28 37.62 437.78 40.6 438.73 45.84 455.23 42.85 445.67 56.63 450.05 59.66 459.6 45.89 462.58 62.38 467.82 61.43 464.83 44.94 478.61 54.49 481.64 50.12 467.86 40.57 484.36 37.58"/><polygon class="st2" points="555.91 387.48 518.47 450.94 575.95 502.7 587.9 394.61 555.91 387.48"/></g><g id="woman"><ellipse class="st11" cx="739.31" cy="336.9" rx="48.16" ry="48.18"/><ellipse class="st11" cx="599.76" cy="336.94" rx="48.16" ry="48.18"/><path class="st12" d="M616.32,398.94v-69.08s106.43.16,106.43.16v68.92c0,29.41-23.83,53.25-53.22,53.25h0c-29.39,0-53.22-23.84-53.22-53.25Z"/><path class="st8" d="M741.68,266.67c-.84,0-1.67.06-2.49.16v-47.63c-.02-31.41-25.49-56.87-56.9-56.86h-27.33c-31.41.02-56.87,25.49-56.86,56.9v47.59c-.84-.1-1.7-.17-2.58-.17-11.9,0-21.54,9.66-21.54,21.56,0,11.9,9.65,21.55,21.55,21.55.88,0,1.74-.07,2.6-.17v9.08c.01,31.41,25.48,56.87,56.89,56.86h27.33c31.41-.02,56.87-25.49,56.86-56.9v-9c.82.09,1.64.15,2.49.15,11.9,0,21.54-9.66,21.54-21.56,0-11.9-9.65-21.55-21.55-21.55Z"/><path class="st9" d="M670.43,312.01c-1.28.19-2.64.14-4.07-.15-2.44-.49-4.76-1.74-6.89-3.72-1.14-1.05-2.26-1.51-3.44-1.41-2.32.19-4.21,2.59-4.23,2.61l-2.25-1.71c.1-.14,2.62-3.36,6.22-3.72,2-.18,3.89.55,5.62,2.15,1.75,1.62,3.62,2.64,5.54,3.03,1.96.4,3.7.21,5.19-.55.63-.33,1.23-.8,1.84-1.45.75-.82,2.82-2.76,5.85-2.86,2.42-.09,4.84.99,7.2,3.21l-1.94,2.06c-1.78-1.68-3.52-2.5-5.15-2.44-1.97.07-3.36,1.39-3.88,1.95-.82.89-1.7,1.57-2.62,2.05-.93.48-1.93.8-2.97.96Z"/><path class="st11" d="M628.49,236.63l-.85.15c-8.9,1.63-16.48,7.58-20.47,16.06h0l46.16-8.47h0c-6.75-6.51-15.94-9.38-24.84-7.75h0Z"/><path class="st11" d="M707.19,236.61l.85.15c8.9,1.63,16.49,7.57,20.48,16.05h0l-46.17-8.43h0c6.75-6.52,15.93-9.4,24.83-7.77h0Z"/><path class="st6" d="M686.25,281.1s5.13-10.82,14.87-14.13c9.74-3.31,20.4,2.15,20.4,2.15,0,0-8.34,9.22-15.15,11.45-6.93,2.27-20.12.53-20.12.53Z"/><path class="st6" d="M651.03,281.11s-5.14-10.82-14.88-14.12c-9.74-3.3-20.4,2.17-20.4,2.17,0,0,7.4,8.61,15.15,11.44,7.33,2.68,20.12.51,20.12.51Z"/><path class="st4" d="M686.25,281.1s7.86-24.5,44.31-15.2l-10.3,4.49c-7.64-1.44-21.05-2.27-34.01,10.71Z"/><path class="st4" d="M651.03,281.11s-7.88-24.49-44.32-15.18l10.23,4.49c7.63-1.44,21.12-2.28,34.09,10.69Z"/><path class="st11" d="M598.94,294.03v-39.71c-.02-31.42,25.13-56.9,56.17-56.9h7.74s0-17.59,0-17.59l9.94,17.59h9.37c31.03-.01,56.2,25.45,56.21,67.42v29.16s11.03,0,11.03,0l-.02-75.25c0-34.05-27.6-61.64-61.63-61.63h-38.24c-34.03.02-61.61,27.63-61.6,61.68l.02,75.25h11.02Z"/><path class="st10" d="M656.16,329.6s30.52,34.21,45.7-10.92c0,0-14.38-4.64-22.71,6.22,0,0-11.38-5.85-22.99,4.7Z"/><rect class="st0" x="742.07" y="304.52" width="6.33" height="68.35" rx="2.79" ry="2.79"/><rect class="st0" x="589.39" y="304.52" width="6.33" height="68.35" rx="2.79" ry="2.79"/><path class="st4" d="M700.58,267.18s0,0-.01,0c-4.02,1.51-7.23,4.28-9.57,6.95.05,2.95,1.9,5.69,4.85,6.71,3.77,1.31,7.89-.69,9.2-4.46,1.31-3.77-.69-7.89-4.46-9.2Z"/><path class="st4" d="M630.41,280.4c3.08-1.65,4.6-5.33,3.42-8.74-1.31-3.77-5.43-5.77-9.2-4.45-2.73.95-4.52,3.37-4.81,6.07,2.75,2.52,6.6,5.54,10.59,7.13Z"/><rect class="st8" x="610.97" y="277.04" width="114.23" height="11.17"/><polygon class="st8" points="905.28 561.53 806.59 555.12 844.25 823.81 940.35 823.81 905.28 561.53"/><polygon class="st8" points="538.02 530.68 521.65 641.97 426.16 649.34 447.51 493.03 538.02 530.68"/><polygon class="st10" points="740.24 594.38 915.08 591.71 890.15 448.9 753.81 462.78 740.24 594.38"/><polygon class="st10" points="525.95 698.93 519.3 393.95 819.74 393.95 815.44 698.93 525.95 698.93"/><polygon class="st10" points="591.86 593.05 427.07 593.05 453.34 452.56 589.62 465.88 591.86 593.05"/><path class="st10" d="M452.18,472.08c-3.01-40.02,26.95-74.91,66.93-77.93,39.98-3.02,74.83,26.98,77.84,67,3.01,40.02-45.8,101.71-45.8,101.71,0,0-95.96-50.77-98.98-90.79Z"/><path class="st10" d="M892.09,472.08c3.01-40.02-26.95-74.91-66.93-77.93-39.98-3.02-74.83,26.98-77.84,67-3.01,40.02,45.8,101.71,45.8,101.71,0,0,95.96-50.77,98.98-90.79Z"/><path class="st13" d="M848.12,823.81c-16.87-73.89-34.24-138.99-34.24-138.99l-294.92.84s-17.34,63.53-33.71,138.15h362.88Z"/><rect class="st8" x="682.35" y="570.19" width="52.07" height="21.74" rx="10.87" ry="10.87" transform="translate(-101.35 152.37) rotate(-11.46)"/><rect class="st15" x="711.64" y="491.92" width="6.46" height="156.74" transform="translate(1328.27 1248.52) rotate(-170.71)"/><path class="st8" d="M679.61,670.5l-193.88,34.28c-27.49,5.73-54.28-12.37-59.22-40.01h0c-5.31-29.67,16.74-57.22,46.85-58.55l200.27-8.18,5.99,72.45Z"/><polygon class="st8" points="736.68 678.16 752.87 650.46 737.54 581.73 712.96 584.72 660.99 598.67 674.67 671.43 736.68 678.16"/><path class="st8" d="M694.72,603.78l-4.43-29.92-.83.11c-4.91.63-8.91,3.86-10.69,8.18-1.97,4.76-4.38,9.32-7.85,13.13l-7.29,7.99,31.09.52Z"/><path class="st8" d="M763.05,641.69h0c-.73-7.8-7.64-13.53-15.44-12.8l-9.41.88,2.65,28.24,9.41-.88c7.8-.73,13.53-7.64,12.8-15.44"/><path class="st8" d="M759.76,663.1h0c-.29-7.83-6.88-13.93-14.7-13.64l-9.45.36,1.07,28.34,9.45-.36c7.83-.29,13.93-6.88,13.64-14.7"/><path class="st8" d="M763.77,618.93h0c-.73-7.8-7.64-13.53-15.44-12.8l-11.79,1.11,2.65,28.24,11.79-1.1c7.8-.73,13.53-7.64,12.8-15.44"/><path class="st8" d="M761.69,595.01h0c-.29-7.83-6.88-13.93-14.7-13.64l-9.45.36,1.07,28.34,9.45-.36c7.83-.29,13.93-6.88,13.64-14.7"/><rect class="st14" x="713.08" y="503.19" width="24.88" height="4.06" transform="translate(109.75 1139.62) rotate(-80.71)"/><rect class="st14" x="721.12" y="454.38" width="24.88" height="4.06" transform="translate(164.66 1106.62) rotate(-80.71)"/><rect class="st14" x="752.42" y="472" width="4.06" height="24.88" transform="translate(154.55 1150.76) rotate(-80.71)"/><rect class="st14" x="702.71" y="463.86" width="4.06" height="24.88" transform="translate(120.89 1094.89) rotate(-80.71)"/><rect class="st14" x="734.96" y="468.5" width="16.65" height="4.06" transform="translate(-134.89 522.2) rotate(-35.7)"/><rect class="st14" x="707.58" y="488.18" width="16.65" height="4.06" transform="translate(-151.53 509.92) rotate(-35.7)"/><rect class="st14" x="717.73" y="458.35" width="4.06" height="16.65" transform="translate(-137.07 507.81) rotate(-35.71)"/><rect class="st14" x="737.41" y="485.73" width="4.06" height="16.65" transform="translate(-149.35 524.44) rotate(-35.71)"/><circle class="st14" cx="729.65" cy="479.97" r="3.3"/><circle class="st14" cx="710.04" cy="452.7" r="3.3"/><circle class="st14" cx="748.69" cy="507.12" r="3.3"/><circle class="st14" cx="703.05" cy="500.44" r="3.3"/><circle class="st14" cx="756.22" cy="461.1" r="3.3"/></g></svg>