<?xml version="1.0" encoding="utf-8"?><!--Generator: Adobe Illustrator 27.8.0, SVG Export Plug-In . SVG Version: 6.00 Build 0)--><svg version="1.1" xmlns="http://www.w3.org/2000/svg" xmlns:xlink="http://www.w3.org/1999/xlink" x="0px" y="0px" viewBox="0 0 1200 840" style="enable-background:new 0 0 1200 840;" xml:space="preserve"><style type="text/css">.st0{fill:#1E1515;}
	.st1{fill:#232144;}
	.st2{fill:#A86554;}
	.st3{fill:#BF7461;}
	.st4{fill:#FFFFFF;}
	.st5{fill:#891229;}
	.st6{opacity:0.5;fill:#E5F0FF;}
	.st7{fill:#D8CBC5;}
	.st8{fill:#E6E3DA;}
	.st9{fill:#FFC393;}
	.st10{fill:#FED4B0;}
	.st11{fill:#420F0F;}
	.st12{fill:#F0A86B;}
	.st13{fill:#FFC98C;}
	.st14{fill:none;}
	.st15{fill:#F7E5CD;}
	.st16{fill:#E73245;}</style><g id="judge"><rect x="741.5" y="64.43" class="st0" width="68.04" height="51.85"/><path class="st1" d="M875.48,140.17c-2.27-13.7-13.64-24.6-28.11-25.69l-140.97-0.09l0,0.03c-1.04,0-2.1,0.04-3.16,0.15
		c-14.46,1.42-25.59,12.63-27.47,26.42l-33.26,189.33h266.31L875.48,140.17z"/><path class="st2" d="M753.3,112.82V83.81h44.73v29.01c0,12.35-10.01,22.36-22.37,22.36C763.31,135.18,753.3,125.17,753.3,112.82"/><path class="st3" d="M746.02,82.92V39.87c0-13.33,10.8-24.13,24.13-24.13h11.03c13.33,0,24.13,10.8,24.13,24.13v43.06
		c0,13.33-10.8,24.13-24.13,24.13h-11.03C756.82,107.06,746.02,96.25,746.02,82.92"/><path class="st4" d="M783.27,66.98c0,0,2.12-4.54,6.18-5.95c4.07-1.41,8.54,0.84,8.54,0.84s-1.63,3.7-5.69,5.12
		C788.23,68.39,783.27,66.98,783.27,66.98z"/><path d="M788.68,61.43c-0.07,0-0.14,0.02-0.21,0.02c-1.28,0.65-2.34,1.58-3.15,2.5c-0.09,0.32-0.16,0.65-0.16,1
		c0,1.01,0.43,1.92,1.11,2.56c1.47,0.15,3.29,0.16,5.04-0.25c0.54-0.62,0.88-1.42,0.88-2.31C792.2,63,790.62,61.43,788.68,61.43z"/><path d="M783.26,66.98c1.05-7.26,10.22-10.36,15.86-6.95c-0.35,0.55-1.01,1.68-1.35,2.23c-1.25-0.75-7.72-3.37-13.6,3.68
		C783.81,66.36,783.77,66.54,783.26,66.98z"/><path class="st4" d="M769.12,66.91c0,0-2.12-4.54-6.18-5.95c-4.07-1.41-8.54,0.84-8.54,0.84s1.63,3.7,5.69,5.12
		C764.16,68.32,769.12,66.91,769.12,66.91z"/><path d="M759.68,60.78c-1.94,0-3.52,1.58-3.52,3.52c0,0,0,0.01,0,0.01c0.91,0.97,2.2,1.99,3.93,2.59c0.47,0.16,0.95,0.28,1.43,0.38
		c1-0.62,1.67-1.72,1.67-2.99C763.2,62.35,761.62,60.78,759.68,60.78z"/><path d="M769.12,66.91c-1.05-7.26-10.22-10.36-15.86-6.95c0.35,0.55,1.01,1.68,1.35,2.23c1.25-0.75,7.72-3.37,13.6,3.68
		C768.57,66.29,768.62,66.47,769.12,66.91z"/><path d="M775.71,79.72c-1.17,0-2.37-0.56-3.59-1.67c-1.72-1.57-3.55,0.25-3.63,0.32l-0.85-0.83c0.93-0.94,3.23-2.24,5.28-0.37
		c2.45,2.23,4.04,1.29,5.16,0.21c1.28-1.23,3.42-1.8,5.61,0.26l-0.82,0.86c-1.87-1.76-3.29-0.92-3.97-0.27
		C777.88,79.22,776.81,79.72,775.71,79.72"/><path class="st5" d="M772.95,86.04l-8.93,0.18c0.05-0.34,5.04,7.06,12.31,6.94c4.62-0.08,6.86-2.83,10.99-7.37l-8.85,0.16
		c-0.96,0.02-1.84,0.61-2.31,1.55l-0.35,0.7l-0.66-0.96C774.62,86.46,773.8,86.02,772.95,86.04"/><path class="st0" d="M752.33,56.79h13.92c2.8,0,5.06-1.71,5.06-3.82v-0.15H757.4c-2.8,0-5.06,1.71-5.06,3.82V56.79z"/><path class="st0" d="M801.07,53.95h-13.92c-2.8,0-5.06-1.71-5.06-3.82v-0.15h13.92c2.8,0,5.06,1.71,5.06,3.82V53.95z"/><path class="st3" d="M754.69,70.46c0,5-4.05,9.05-9.05,9.05s-9.05-4.05-9.05-9.05c0-5,4.05-9.05,9.05-9.05
		S754.69,65.46,754.69,70.46"/><path class="st3" d="M815.17,70.46c0,5-4.05,9.05-9.05,9.05c-5,0-9.05-4.05-9.05-9.05c0-5,4.05-9.05,9.05-9.05
		C811.12,61.4,815.17,65.46,815.17,70.46"/><path class="st6" d="M767.04,70.41h-12.79c-2.5,0-4.53-2.03-4.53-4.53v-2.93c0-2.5,2.03-4.53,4.53-4.53h12.79
		c2.5,0,4.53,2.03,4.53,4.53v2.93C771.57,68.38,769.54,70.41,767.04,70.41z"/><path class="st6" d="M796.62,70.41h-12.79c-2.5,0-4.53-2.03-4.53-4.53v-2.93c0-2.5,2.03-4.53,4.53-4.53h12.79
		c2.5,0,4.53,2.03,4.53,4.53v2.93C801.15,68.38,799.12,70.41,796.62,70.41z"/><path class="st1" d="M779.8,63.45h-8.73v-0.5c0-2.22-1.81-4.03-4.03-4.03h-12.79c-2.22,0-4.03,1.81-4.03,4.03h-1
		c0-2.77,2.26-5.03,5.03-5.03h12.79c2.61,0,4.76,1.99,5.01,4.53h6.78c0.25-2.54,2.4-4.53,5.01-4.53h12.79
		c2.77,0,5.03,2.26,5.03,5.03h-1c0-2.22-1.81-4.03-4.03-4.03h-12.79c-2.22,0-4.03,1.81-4.03,4.03V63.45z"/><path class="st0" d="M746.25,71.63V59.33c0-13.25,10.62-23.99,23.71-23.99h3.95h3.51h3.95c13.1,0,23.71,10.74,23.71,23.99v12.29
		h4.65V44.35c0-14.36-11.64-28.66-26-28.66H767.6c-14.36,0-26,14.31-26,28.66v27.28H746.25z"/><rect x="746.13" y="30.42" class="st0" width="59.77" height="16.4"/><polygon class="st7" points="775.78,199.84 746.47,162.61 798.05,114.39 842.75,114.39 	"/><polygon class="st8" points="775.78,199.84 805.03,162.53 753.2,114.39 708.5,114.39 	"/></g><g id="stand"><polygon class="st9" points="970.3,712.99 970.3,334.71 578.2,334.71 578.2,712.99 143.49,712.99 143.49,823.69 1098.69,823.69 
		1098.69,712.99 	"/><rect x="545.04" y="249.47" class="st10" width="458.42" height="99.64"/><path class="st11" d="M645.13,243.61l-54.05-23.02l2.63-7.44c1.12-0.1,2.13-0.83,2.53-1.95c0.54-1.54-0.26-3.23-1.8-3.77
		l-12.63-4.47c-1.54-0.54-3.23,0.26-3.77,1.8c-0.4,1.13-0.07,2.33,0.74,3.11l-7.8,22.03c-1.12,0.1-2.13,0.83-2.53,1.95
		c-0.54,1.54,0.26,3.23,1.8,3.77l12.63,4.47c1.54,0.54,3.23-0.26,3.77-1.8c0.4-1.13,0.07-2.33-0.74-3.11l3.15-8.89l53.7,22.88
		c1.79,0.76,3.83-0.35,4.16-2.27C647.16,245.52,646.42,244.16,645.13,243.61z"/><path class="st11" d="M595.48,244.34v-1.49c0-1.43-1.16-2.58-2.58-2.58h-32.57c-1.43,0-2.58,1.16-2.58,2.58v1.49
		c-1.23,0.2-2.17,1.26-2.17,2.54v2.58h42.08v-2.58C597.65,245.6,596.71,244.54,595.48,244.34z"/></g><g id="lawyer"><path class="st11" d="M325.06,165.93c-1.95-3.27-5.11-5.37-8.56-6.09c0.6-3.91-0.11-8.04-2.3-11.71c-5-8.38-15.84-11.11-24.22-6.11
		s-11.11,15.84-6.11,24.22c3.64,6.1,10.38,9.19,17.01,8.5c0.26,1.59,0.8,3.16,1.68,4.63c3.71,6.21,11.75,8.25,17.97,4.54
		C326.74,180.19,328.77,172.14,325.06,165.93z"/><path class="st12" d="M245.24,175.2v-29.01l44.73-1.3v30.31c0,12.35-10.01,22.36-22.37,22.36
		C255.25,197.56,245.24,187.55,245.24,175.2"/><path class="st13" d="M237.95,145.3v-43.06c0-13.33,10.8-24.13,24.13-24.13h11.03c13.33,0,24.13,10.8,24.13,24.13v43.06
		c0,13.33-10.8,24.13-24.13,24.13h-11.03C248.76,169.44,237.95,158.63,237.95,145.3"/><path d="M267.28,142.09c-1.17,0-2.37-0.56-3.59-1.67c-1.72-1.57-3.55,0.25-3.63,0.32l-0.85-0.83c0.93-0.94,3.23-2.24,5.28-0.37
		c2.45,2.23,4.04,1.29,5.16,0.21c1.28-1.23,3.42-1.8,5.61,0.26l-0.82,0.86c-1.87-1.76-3.29-0.92-3.97-0.27
		C269.45,141.6,268.38,142.09,267.28,142.09"/><path class="st5" d="M264.88,148.41l-8.93,0.18c0.05-0.34,5.04,7.06,12.31,6.94c4.62-0.08,6.86-2.83,10.99-7.37l-8.85,0.16
		c-0.96,0.02-1.84,0.61-2.31,1.55l-0.35,0.7l-0.66-0.96C266.56,148.84,265.74,148.4,264.88,148.41"/><path class="st4" d="M261.35,129.44c0,0-2.22-4.67-6.42-6.1c-4.21-1.43-8.81,0.93-8.81,0.93s3.6,3.98,6.54,4.94
		C255.66,130.2,261.35,129.44,261.35,129.44z"/><path class="st11" d="M243.57,119.17h13.92c2.8,0,5.06-1.71,5.06-3.82v-0.15h-13.92c-2.8,0-5.06,1.71-5.06,3.82V119.17z"/><path class="st11" d="M292.3,117.15h-13.92c-2.8,0-5.06-1.71-5.06-3.82v-0.15h13.92c2.8,0,5.06,1.71,5.06,3.82V117.15z"/><path class="st4" d="M273.49,129.44c0,0,2.22-4.67,6.42-6.1c4.21-1.43,8.81,0.93,8.81,0.93s-3.6,3.98-6.54,4.94
		C279.19,130.2,273.49,129.44,273.49,129.44z"/><path d="M261.35,129.44c0,0-3.4-10.57-19.13-6.56l4.2,1.94C249.71,124.21,255.76,123.85,261.35,129.44z"/><path d="M259.73,126.94c-0.92-1.15-2.23-2.43-3.91-3.23c-0.08,0.02-0.15,0.03-0.23,0.05c-1.63,0.56-2.49,2.34-1.92,3.97
		c0.34,0.98,1.12,1.67,2.03,1.95c0.57,0.03,1.15,0.04,1.71,0.03c0.08-0.02,0.15-0.03,0.23-0.05
		C258.85,129.24,259.64,128.15,259.73,126.94z"/><path class="st14" d="M261.35,129.44c0,0-2.22-4.67-6.42-6.1c-4.21-1.43-8.81,0.93-8.81,0.93s3.6,3.98,6.54,4.94
		C255.66,130.2,261.35,129.44,261.35,129.44z"/><path d="M273.49,129.44c0,0,3.4-10.57,19.13-6.56l-4.2,1.94C285.13,124.21,279.09,123.85,273.49,129.44z"/><path d="M281.56,122.97c-0.44,0.35-0.79,0.82-0.99,1.4c-0.57,1.63,0.29,3.41,1.92,3.97c0.4,0.14,0.81,0.19,1.21,0.17
		c0.96-0.56,1.91-1.3,2.72-2.01c0.01-0.03,0.03-0.05,0.04-0.08c0.4-1.14,0.08-2.35-0.7-3.17
		C284.55,122.96,283.07,122.78,281.56,122.97z"/><path class="st14" d="M273.49,129.44c0,0,2.22-4.67,6.42-6.1c4.21-1.43,8.81,0.93,8.81,0.93s-3.6,3.98-6.54,4.94
		C279.19,130.2,273.49,129.44,273.49,129.44z"/><polygon class="st5" points="232.12,781.71 200.1,781.71 197.53,808.48 201.24,823.69 231.66,823.69 235.37,808.48 	"/><path class="st13" d="M232.63,785.99l-8.95,11.63c-3.68,4.78-10.86,4.84-14.62,0.12l-9.36-11.75l1.23-13.22h29.97L232.63,785.99z"/><polygon class="st13" points="363.14,809.73 340.78,756 308.54,751.07 320.74,785.04 344.26,813.5 	"/><path class="st5" d="M338.3,818.97c2.04,2.96,5.41,4.72,9,4.72l39.43,0c1.9,0,3.45-1.54,3.45-3.45l0,0c0-1.35-0.79-2.57-2.02-3.14
		l-27.07-12.36h0c-9.48,2.89-19.73-0.84-25.14-9.14l-23.67-36.34l-4.33,5.79c-4.9,6.56-4.27,13.93-4.27,22.92l0,0v35.71h9.79v-30.24
		c0-1.41,1.14-2.55,2.55-2.55h0c0.81,0,1.56,0.38,2.05,1.02L338.3,818.97z"/><path class="st5" d="M164.16,210.54c1.66,16.9,16.71,29.25,33.61,27.6s29.27-16.7,27.61-33.59c-1.66-16.9-16.71-29.25-33.61-27.6
		C174.87,178.6,162.51,193.64,164.16,210.54"/><path class="st15" d="M330.95,299.83l46.54-11.21l-14.69-86.07c-2.27-13.7-13.64-24.6-28.11-25.69c-0.36-0.03-0.72-0.04-1.08-0.05
		l0-0.04h-36.12h-59.25h-43.31l12.42,122.69"/><path class="st16" d="M207.35,299.46c-4.23,7.84-23.63,44.17-25.99,117.78c-1.18,36.72-10.49,380.95-10.49,380.95h77.47
		l17.33-410.59h8.16l21.79,410.59h80.1c0,0-20.11-336.53-20.17-337.24c-9.54-104.27-18.79-150.6-24.58-161.12L207.35,299.46z"/><polygon class="st5" points="177.8,444.09 188.82,176.77 245.29,176.77 265.78,444.09 	"/><path class="st5" d="M359.11,444.09V288.62l3.69-86.07c-2.27-13.7-13.64-24.6-28.11-25.69c-0.36-0.03-0.72-0.04-1.08-0.05l0-0.04
		H289.8l-14.99,267.31H359.11z"/><path class="st8" d="M294.15,332.87l20.41,70.85c0.63,2.18,2.9,3.43,5.08,2.81l97.07-27.96c2.18-0.63,3.43-2.9,2.81-5.08
		l-20.41-70.85c-0.63-2.18-2.9-3.43-5.08-2.81l-97.07,27.96C294.78,328.42,293.52,330.69,294.15,332.87z"/><path class="st16" d="M236.53,369.57l-37.2,10.14c-3.61,0.98-7.34-1.14-8.32-4.76l-1.78-6.54l50.28-13.7l1.78,6.54
		C242.27,364.86,240.14,368.58,236.53,369.57"/><path class="st13" d="M384.74,393.33l-12.62-104.65l-34.67,7.61l22.83,102.29l-3.32,16.91l-0.76,3.86l-8.56,13.45
		c-1.5,2.37-0.81,5.5,1.56,7c2.37,1.5,5.51,0.81,7.01-1.56l1.55-2.43l5.49-8.63l-0.01,0.08c0,0,0.07-0.14,0.19-0.36l3.78-5.95
		c1.65-0.95,3.43,0.73,2.57,2.73c-0.53,1.23-2.24,4.65-3.73,7.88l-8.2,9.41l-5.82,6.68c-1.84,2.11-1.62,5.32,0.49,7.16
		c0.06,0.05,0.12,0.08,0.18,0.13c-0.62,1.67-0.37,3.61,0.86,5.06v0c1.1,1.29,2.71,1.89,4.28,1.76c1.03-0.08,2.04-0.46,2.88-1.18
		l17.07-14.51l11.96-29.17L384.74,393.33z"/><polygon class="st5" points="362.81,202.88 396.15,392.7 346.2,414.1 316.99,282.79 330.85,230.63 	"/><path class="st13" d="M189.62,167.37l-0.55-0.33c-2.14-1.28-4.91-0.58-6.19,1.55l-4.88,8.16l-0.31-33.12
		c-0.02-2.36-1.96-4.26-4.32-4.24l-0.61,0.01c-1.36,0.01-2.55,0.67-3.33,1.66l-0.02-1.71c-0.02-2.36-1.96-4.26-4.32-4.24l-0.61,0.01
		c-2.36,0.02-4.26,1.96-4.24,4.32l0.04,3.85c-0.74-1.32-2.14-2.21-3.76-2.2l-0.61,0c-2.36,0.02-4.26,1.96-4.24,4.32l0.04,3.74
		c-0.83-1.03-2.13-1.68-3.55-1.6l-0.61,0.03c-2.36,0.12-4.18,2.14-4.05,4.5l1.34,26.36l1.69,26.07l0.29,86.15
		c0.03,12.63,11.14,22.37,23.67,20.76c11.9-1.53,20.1-12.71,17.99-24.52l-15.02-83.73l17.73-29.62
		C192.45,171.42,191.75,168.65,189.62,167.37"/><path class="st5" d="M171.53,323.43l-0.01,0c-13.48,1.42-25.56-8.36-26.98-21.85l-9.73-92.46l48.85-5.13l9.73,92.46
		C194.8,309.93,185.02,322.01,171.53,323.43"/><rect x="245.24" y="171.22" class="st15" width="44.73" height="6.83"/><path class="st11" d="M275.38,78.07h-16.13c-14.36,0-26,14.31-26,28.66v27.28h4.65v-12.29c0-10.81,7.06-19.94,16.77-22.94
		c1.7,5.55,6.86,9.59,12.96,9.59c3.42,0,6.54-1.28,8.93-3.37c1.86,2.85,5.07,4.74,8.73,4.74c2.54,0,4.87-0.91,6.68-2.43
		c2.99,4.01,4.76,9.01,4.76,14.42v12.29h4.65v-27.28C301.38,92.37,289.74,78.07,275.38,78.07z"/><path class="st13" d="M307.35,132.86c0,5-4.05,9.05-9.05,9.05c-5,0-9.05-4.05-9.05-9.05c0-5,4.05-9.05,9.05-9.05
		C303.3,123.81,307.35,127.86,307.35,132.86"/><path class="st13" d="M245.92,132.83c0,5-4.05,9.05-9.05,9.05s-9.05-4.05-9.05-9.05c0-5,4.05-9.05,9.05-9.05
		S245.92,127.83,245.92,132.83"/><path class="st16" d="M235.18,151.02L235.18,151.02c2.33,0,3.97-2.27,3.24-4.48l-2.29-6.94c-0.14-0.41-0.52-0.69-0.96-0.69
		c-0.43,0-0.82,0.28-0.96,0.69l-2.29,6.94C231.21,148.74,232.86,151.02,235.18,151.02"/><path class="st16" d="M299.88,151.02L299.88,151.02c2.33,0,3.97-2.27,3.24-4.48l-2.29-6.94c-0.14-0.41-0.52-0.69-0.96-0.69
		c-0.43,0-0.82,0.28-0.96,0.69l-2.29,6.94C295.9,148.74,297.55,151.02,299.88,151.02"/><rect x="250.97" y="90.55" transform="matrix(0.866 -0.5001 0.5001 0.866 -15.2142 139.4054)" class="st13" width="3.01" height="15.08"/><polygon class="st16" points="304.24,176.77 319.07,221.67 301.28,223.65 319.07,243.41 279.69,357.06 289.68,176.77 	"/><polygon class="st16" points="230.2,176.77 215.37,221.67 233.17,223.65 215.37,243.41 259.11,357.06 245.29,176.77 	"/></g></svg>