<?xml version="1.0" encoding="utf-8"?><!--Generator: Adobe Illustrator 27.8.0, SVG Export Plug-In . SVG Version: 6.00 Build 0)--><svg version="1.1" id="Ebene_1" xmlns="http://www.w3.org/2000/svg" xmlns:xlink="http://www.w3.org/1999/xlink" x="0px" y="0px" viewBox="0 0 1200 840" style="enable-background:new 0 0 1200 840;" xml:space="preserve"><style type="text/css">.st0{fill:#F5B091;}
	.st1{fill:#E6E3DA;}
	.st2{fill:#232144;}
	.st3{fill:#232143;}
	.st4{fill:#463EC5;}
	.st5{fill:#F7931E;}
	.st6{fill:#FBB03B;}
	.st7{fill:#FBE495;}
	.st8{fill:#4B7CFE;}
	.st9{fill:#FCD4C3;}
	.st10{fill:#FAC5AE;}
	.st11{fill:#020202;}
	.st12{fill:#A8A8A8;}
	.st13{fill:#010101;}
	.st14{fill:#FFFFFF;}
	.st15{fill:#A76556;}
	.st16{fill:#D6C9C3;}
	.st17{fill:#D8CBC5;}
	.st18{fill:#420F0F;}
	.st19{fill:#A66756;}
	.st20{fill:#572B20;}
	.st21{fill:#9E3F39;}
	.st22{fill:#7A2F37;}
	.st23{fill:#ED1E79;}
	.st24{fill:#7D441C;}
	.st25{fill:#FAA332;}
	.st26{fill:#FFD4A9;}
	.st27{fill:#891229;}
	.st28{fill:#FCE3CA;}
	.st29{fill:#191C15;}
	.st30{fill:#F18E67;}
	.st31{fill:#FCCFA5;}</style><path class="st0" d="M918.15,379.39c0,9.14-7.4,16.56-16.54,16.56c-1.43,0-2.82-0.18-4.14-0.52h-0.04l-3.34-11.05l-4.84-16.02
	c3.04-3.39,7.44-5.52,12.35-5.52c6.26,0,11.71,3.48,14.51,8.61C917.42,373.8,918.15,376.52,918.15,379.39z"/><path class="st0" d="M780.64,322.88l-43.16,7.75l-23.15,59.38l33.47-0.89L780.64,322.88z"/><path class="st0" d="M978.23,393.74l-74.25-32.8l-6.55,34.48l79.71,19.88L978.23,393.74z"/><path class="st1" d="M871.74,392.79l5.08-102.76c0,0-45.57-13.82-59.55-13.82c-12.74,0-61.92,14.07-61.92,14.07l7.45,102.51H871.74z
	"/><path class="st0" d="M883.16,771.17l-3.62-70.04h-36.18l8.16,63.02L883.16,771.17z"/><path class="st2" d="M844.37,718.57l-27.54-298.73l53.93,5.97l20.87,288.74c1.07,13.74-9.76,25.49-23.53,25.56
	C855.8,740.17,845.51,730.82,844.37,718.57z"/><path class="st0" d="M751.88,771.17l2.61-53.26h34.53l-6.42,53.26H751.88z"/><path class="st3" d="M790.74,718.49l28.39-295.59l-53.47,4.65l-22.22,286.83c-1.08,13.8,9.83,25.59,23.66,25.6
	C779.33,739.99,789.57,730.69,790.74,718.49"/><path class="st3" d="M871.74,458.82v-53.54H762.8l0.58,53.86L871.74,458.82z"/><path class="st1" d="M871.74,324.6H762.8v112.06h108.94V324.6z"/><path class="st4" d="M740.14,314.32c0,0,2.71-25.13,21.6-25.13c12.93,0,24.15,8.7,25.12,21.61c0.97,12.9-15.15,36.4-15.15,36.4
	L740.14,314.32L740.14,314.32z"/><path class="st0" d="M1002.19,393.57l-2.31,4.37l6.31-0.57l-9.53,26.09l-13.21-4.4c-2.33-0.83-4.47-2.11-6.31-3.77l-23.16-7.7
	l6.6-19.86l17.64,5.99l0.04-0.11c3.2-1.8,10.96-3.71,15.39-4.7c0.82-0.18,1.67-0.02,2.37,0.46l6.16,4.19"/><path class="st0" d="M987.61,416.78L987.61,416.78c-0.61,1.85,0.38,3.83,2.22,4.44l6.44,2.14c1.84,0.61,3.82-0.38,4.43-2.22v-0.01
	c0.62-1.84-0.38-3.82-2.21-4.43l-6.44-2.14C990.2,413.95,988.22,414.94,987.61,416.78z"/><path class="st0" d="M987.89,409.44L987.89,409.44c-0.61,1.85,0.38,3.83,2.22,4.44l10.3,3.43c1.84,0.61,3.82-0.38,4.43-2.22v-0.01
	c0.61-1.84-0.38-3.82-2.22-4.43l-10.3-3.43C990.48,406.61,988.5,407.61,987.89,409.44z"/><path class="st0" d="M990.12,402.77L990.12,402.77c-0.61,1.85,0.38,3.83,2.21,4.44l10.3,3.43c1.84,0.61,3.82-0.38,4.43-2.22
	l0.01-0.01c0.61-1.84-0.39-3.82-2.22-4.43l-10.31-3.43C992.72,399.93,990.73,400.93,990.12,402.77z"/><path class="st0" d="M993.52,396.48L993.52,396.48c-0.61,1.85,0.38,3.83,2.22,4.44l7.93,2.64c1.83,0.61,3.82-0.38,4.43-2.22v-0.01
	c0.61-1.84-0.38-3.82-2.22-4.43l-7.93-2.64C996.11,393.65,994.13,394.64,993.52,396.48z"/><path class="st0" d="M992.36,390.54l-2.64,7.76l5.85,1.99l2.64-7.76L992.36,390.54z"/><path class="st0" d="M996.89,393.78c0,0-1.08,10.73-12.9,10.67L996.89,393.78z"/><path class="st0" d="M983.98,404.68v-0.48c11.47,0.08,12.65-10.34,12.67-10.45l0.48,0.05C997.12,393.91,995.88,404.76,983.98,404.68
	z"/><path class="st5" d="M1008.12,222.64h-14.37v556.39h14.37V222.64z"/><path class="st5" d="M1184,236.38H979.13v14.38H1184V236.38z"/><path class="st5" d="M1040.29,248.4h-7.77v25.99h7.77V248.4z"/><path class="st5" d="M1158.8,248.4h-7.78v25.99h7.78V248.4z"/><path class="st0" d="M990.07,391.96L990.07,391.96c-0.32,1.93,0.99,3.75,2.91,4.07l8.62,1.41c1.92,0.32,3.74-0.99,4.05-2.92v-0.01
	c0.32-1.92-0.99-3.74-2.91-4.05l-8.63-1.41C992.2,388.73,990.38,390.03,990.07,391.96z"/><path class="st0" d="M997.38,399.58L997.38,399.58c-0.32,1.93,0.99,3.75,2.91,4.07l10.88,1.78c1.92,0.31,3.74-0.99,4.05-2.92v-0.01
	c0.32-1.92-0.99-3.74-2.91-4.06l-10.88-1.78C999.5,396.35,997.69,397.65,997.38,399.58z"/><path class="st0" d="M996.21,406.25L996.21,406.25c-0.32,1.94,0.99,3.75,2.91,4.07l12.04,1.97c1.92,0.31,3.74-0.99,4.05-2.92v-0.01
	c0.32-1.92-0.99-3.74-2.91-4.06l-12.05-1.97C998.34,403.02,996.53,404.33,996.21,406.25z"/><path class="st0" d="M997.35,413.26L997.35,413.26c-0.32,1.94,0.99,3.75,2.92,4.07l9.73,1.59c1.92,0.31,3.74-0.99,4.05-2.92v-0.01
	c0.32-1.93-0.99-3.74-2.91-4.06l-9.73-1.59C999.48,410.03,997.67,411.33,997.35,413.26z"/><path class="st0" d="M996.85,420.31L996.85,420.31c-0.32,1.93,0.99,3.75,2.91,4.07l8.42,1.38c1.93,0.31,3.74-0.99,4.06-2.92v-0.01
	c0.31-1.93-0.99-3.74-2.92-4.06l-8.42-1.38C998.98,417.08,997.17,418.38,996.85,420.31z"/><path class="st0" d="M916.15,371.42l-0.03,0.02l-22.03,12.93l-4.83-16.02l-10.92-36.16l-1.97-30.87l5.65-2.6l31.09,66.21l0.02,0.05
	h0.01L916.15,371.42z"/><path class="st4" d="M894.1,320.41c0,0-2.43-29.33-21.26-31.4c-12.86-1.42-24.71,6.92-26.62,19.72c-1.9,12.8,13.4,37.47,13.4,37.47
	L894.1,320.41z"/><path class="st4" d="M973.93,386.93l-5.2,28.38l-71.27-19.88h-0.04c-4.13-1.08-7.63-3.71-9.85-7.24c-0.01-0.01-0.01-0.02-0.02-0.04
	l-1.13-2.15l-37.88-71.88l27.82-12.8l-0.84-13.06c0,0,9.28,2.21,14.75,16.6l22.82,60.07l0.02,0.05h0.01L973.93,386.93z"/><path class="st0" d="M886.43,386l1.13,2.15C887.13,387.47,886.75,386.75,886.43,386z"/><path class="st6" d="M1168.49,267.57h-145.65v120.17h145.65V267.57z"/><path class="st7" d="M1032.52,308.7l23.67-23.68l23.67,23.68C1064.08,308.7,1048.3,308.7,1032.52,308.7z"/><path class="st7" d="M1071.79,308.7h-31.21v31.22h31.21V308.7z"/><path class="st7" d="M1158.8,290.27h-69.59v18.43h69.59V290.27z"/><path class="st7" d="M1158.8,321.5h-69.59v18.43h69.59V321.5z"/><path class="st7" d="M1158.81,351.73h-126.29v18.43h126.29V351.73z"/><path class="st4" d="M796.93,279.33l-0.58,227.33h-42.27l4.92-217.5L796.93,279.33z"/><path class="st4" d="M838.37,277.89l0.7,228.32l50.32-1.12l-13.87-216.83L838.37,277.89z"/><path class="st8" d="M839,456.81l24.48-138.15l-11.6,0.95l4.36-9.06l-17.65-32.84L839,456.81z"/><path class="st8" d="M796.42,458.37l-24.48-138.15l11.61,0.95l-4.37-9.07l17.65-32.83L796.42,458.37z"/><path class="st0" d="M780.64,451.71l-31.55-66.29l-34.76,4.46l51.22,76.68L780.64,451.71z"/><path class="st4" d="M714.33,389.89l27.92-84.24l29.7,37l-22.24,44.07l30.94,54.15l-22.55,20.98L714.33,389.89z"/><path class="st2" d="M885.39,751.95l-39.01-0.12v27.25l80.19-0.22c0-6.48-4.6-10.54-11.14-12.97L885.39,751.95z"/><path class="st2" d="M739.27,766.11l8.98-14.59l39.06,0.41v27.15l-50.39,0.26C736.92,772.85,736.15,773.93,739.27,766.11"/><path class="st9" d="M800.85,247.92c0-3.85-3.12-6.97-6.97-6.97c-3.84,0-6.97,3.12-6.97,6.97s3.12,6.97,6.97,6.97
	C797.73,254.89,800.85,251.76,800.85,247.92z"/><path class="st9" d="M832.81,247.92c0-3.85,3.12-6.97,6.97-6.97c3.84,0,6.97,3.12,6.97,6.97s-3.12,6.97-6.97,6.97
	C835.93,254.89,832.81,251.76,832.81,247.92z"/><path class="st10" d="M834.04,288.86v-26.87l-34.41-0.1v26.97c0,7,5.67,12.67,12.66,12.67h9.08
	C828.37,301.53,834.03,295.85,834.04,288.86"/><path class="st9" d="M839.85,258.6v-30.97c0-10.47-8.49-18.97-18.96-18.97h-8.12c-10.47,0-18.96,8.49-18.96,18.97v30.97
	c0,10.47,8.49,18.97,18.96,18.97h8.12C831.36,277.57,839.85,269.07,839.85,258.6z"/><path class="st11" d="M816.23,255.82c-1.08,0-1.92-0.53-2.67-1c-1.23-0.77-1.97-1.24-3.46,0.25l-0.96-0.96
	c2.26-2.26,3.85-1.25,5.15-0.44c0.65,0.41,1.27,0.79,1.95,0.79s1.27-0.35,1.89-0.73c1.23-0.75,2.75-1.68,5.27,0.41l-0.88,1.05
	c-1.78-1.48-2.54-1.01-3.69-0.29C818.12,255.32,817.32,255.82,816.23,255.82z"/><path class="st12" d="M796.85,235.82c0,0,8.69-4.61,11.84-4.36c3.45,0.27,4.36,1.95,4.36,4.36H796.85z"/><path class="st12" d="M835.96,235.82c0,0-8.69-4.61-11.84-4.36c-3.46,0.27-4.36,1.95-4.36,4.36H835.96z"/><path class="st13" d="M816.9,262.96c-2.96,0-5.35-0.96-5.49-1.03l0.63-1.52c0.05,0.02,4.96,1.99,8.99,0.02l0.72,1.49
	C820.13,262.7,818.44,262.96,816.9,262.96z"/><path class="st12" d="M840.25,215.26c0-3.95-3.22-7.15-7.18-7.15H804.2v2.57c0,3.04,1.21,12.34,3.37,14.49
	c2.16,2.15,5.09,3.36,8.14,3.36h24.54v-13.27H840.25z"/><path class="st12" d="M793.01,215.26c0-3.95,3.19-7.15,7.16-7.15h4.11v20.43h-11.29v-13.27H793.01z"/><path class="st14" d="M823.03,244.69c0.28,1.39,2.79,2.06,5.61,1.49c2.82-0.56,4.86-2.14,4.59-3.53c-0.29-1.39-2.79-2.06-5.61-1.49
	C824.79,241.72,822.75,243.3,823.03,244.69z"/><path class="st13" d="M825.55,243.67c0,1.42,1.15,2.57,2.58,2.57c1.43,0,2.58-1.15,2.58-2.57c0-1.42-1.15-2.57-2.58-2.57
	C826.7,241.1,825.55,242.25,825.55,243.67z"/><path class="st14" d="M809.5,244.69c-0.29,1.39-2.79,2.06-5.61,1.49c-2.82-0.56-4.86-2.14-4.59-3.53c0.29-1.39,2.79-2.06,5.61-1.49
	S809.78,243.3,809.5,244.69z"/><path class="st13" d="M806.99,243.67c0,1.42-1.15,2.57-2.58,2.57c-1.43,0-2.58-1.15-2.58-2.57c0-1.42,1.15-2.57,2.58-2.57
	C805.84,241.1,806.99,242.25,806.99,243.67z"/><path class="st12" d="M840.26,219.53h-1.9v38.2h1.9V219.53z"/><path class="st12" d="M794.9,219.53h-1.9v38.2h1.9V219.53z"/><path class="st15" d="M55.66,489.3l-5.67-2.18l-0.09,3.23l-30.07-6.92l1.99-13.28c0.68-2.96,1.92-5.77,3.67-8.25l6.02-29.39
	l25.17,5.16l-4.74,22.41l0.14,0.03c2.67,3.64,6.13,12.85,7.98,18.1c0.34,0.97,0.27,2.05-0.21,2.96L55.66,489.3"/><path class="st15" d="M247.79,196.49l7.68-28.23c0.57-2.1,2.73-3.34,4.83-2.76c2.09,0.57,3.34,2.73,2.77,4.84l-7.68,28.23
	L247.79,196.49L247.79,196.49z"/><path class="st15" d="M238.81,279.58l-29.83-7.62l23.08-65.8l21.21,2.8L238.81,279.58z"/><path class="st15" d="M230.62,210.32l-2.92-23.38l29.51,2.87c0.15,0.02,0.27,0.16,0.23,0.31l-5.04,22.84L230.62,210.32z"/><path class="st15" d="M229.8,214.39l7.54-33.28c0.45-1.98,2.42-3.23,4.4-2.77l0.51,0.11c1.98,0.45,3.22,2.42,2.77,4.4l-7.54,33.28
	L229.8,214.39z"/><path class="st15" d="M228.73,188.72l7.19-31.72c0.48-2.12,2.59-3.46,4.71-2.97c2.12,0.48,3.45,2.59,2.97,4.71l-7.19,31.72
	L228.73,188.72z"/><path class="st15" d="M234.45,219.91l-11.71-29.4c-0.79-1.99,0.18-4.24,2.16-5.04l0.51-0.21c1.99-0.79,4.24,0.18,5.04,2.16
	l11.71,29.4l-7.71,3.07V219.91z"/><path class="st15" d="M237.31,213.52l6.52-28.8c0.45-1.98,2.42-3.23,4.4-2.77l0.51,0.11c1.98,0.45,3.23,2.42,2.77,4.4l-6.52,28.8
	L237.31,213.52z"/><path class="st8" d="M254.16,220.14l-29.54-3.02l-20.47,71.08l-34.25,2.14l3.53,52.27l49.47-27.54c5.55-3.08,9.46-8.46,10.7-14.68
	l20.57-80.25L254.16,220.14z"/><path class="st16" d="M59.78,312.17l-16.69,64.91l31.74,6.42l20.05-70.21L59.78,312.17z"/><path class="st1" d="M69.15,394.35l-2.52-103.72c0,0,43.06-12.98,57.06-12.98c12.75,0,58.1,13.14,58.1,13.14l-3.57,103.56H69.15z"/><path class="st15" d="M61.63,773.13l3.62-70.12h36.22l-9.08,70.12H61.63z"/><path class="st8" d="M96.59,770.91h-45.6v10.09h45.6V770.91z"/><path class="st2" d="M96.59,772.12l0.34-21.4l-37.2,0.09l-8.88,21.3H96.59z"/><path class="st17" d="M102.07,740.36l22.06-318.93l-53.99,5.98L58.76,740.36H102.07z"/><path class="st15" d="M186.19,773.13l-3.62-70.12h-36.22l9.08,70.12H186.19z"/><path class="st8" d="M196.83,770.91h-45.6v10.09h45.6V770.91z"/><path class="st2" d="M151.23,772.12l-0.34-21.4l37.21,0.09l8.88,21.3H151.23z"/><path class="st17" d="M145.75,740.36l-22.06-318.93l53.98,5.98l11.38,312.96H145.75z"/><path class="st17" d="M69.16,521.41V406.85h109.05l-0.58,115.26L69.16,521.41z"/><path class="st15" d="M105.78,285.94v-25.3h34.85v25.3c0,8.15-6.6,14.76-14.74,14.76h-5.36
	C112.39,300.7,105.78,294.09,105.78,285.94z"/><path class="st15" d="M92.5,249.05c0-3.89,3.16-7.06,7.05-7.06c3.89,0,7.05,3.16,7.05,7.06c0,3.89-3.16,7.06-7.05,7.06
	C95.66,256.11,92.5,252.94,92.5,249.05z"/><path class="st15" d="M140.36,249.05c0-3.89,3.16-7.06,7.05-7.06c3.89,0,7.05,3.16,7.05,7.06c0,3.89-3.16,7.06-7.05,7.06
	C143.52,256.11,140.36,252.94,140.36,249.05z"/><path class="st15" d="M100.02,258.83v-32.55c0-10.29,8.34-18.63,18.62-18.63h8.97c10.28,0,18.62,8.34,18.62,18.63v32.55
	c0,10.29-8.34,18.63-18.62,18.63h-8.97C108.36,277.45,100.02,269.11,100.02,258.83z"/><path class="st14" d="M130.32,246.01c-0.31-1.45,1.75-3.11,4.61-3.73c2.86-0.62,5.43,0.06,5.73,1.49c0.31,1.45-1.75,3.11-4.61,3.73
	C133.19,248.12,130.62,247.45,130.32,246.01z"/><path class="st13" d="M133.16,246.32c-0.78-1.29-0.37-2.96,0.9-3.74c1.29-0.78,2.96-0.37,3.74,0.9c0.78,1.29,0.38,2.95-0.91,3.74
	C135.62,248,133.94,247.59,133.16,246.32z"/><path class="st14" d="M115.97,246.01c0.31-1.45-1.75-3.11-4.61-3.73c-2.86-0.62-5.43,0.06-5.73,1.49c-0.31,1.45,1.75,3.11,4.61,3.73
	C113.09,248.12,115.66,247.45,115.97,246.01z"/><path class="st13" d="M113.12,246.32c0.78-1.29,0.37-2.96-0.9-3.74c-1.28-0.78-2.96-0.37-3.74,0.9c-0.78,1.29-0.37,2.95,0.9,3.74
	C110.66,248,112.33,247.59,113.12,246.32z"/><path class="st18" d="M119.41,239.79v-3.16c0-1.52-1.24-2.75-2.75-2.75h-9.11c-1.5,0-2.73,1.22-2.73,2.73v3.16
	c0,0,0.01,0.03,0.03,0.03L119.41,239.79L119.41,239.79z"/><path class="st18" d="M142.2,239.79v-3.16c0-1.52-1.24-2.75-2.75-2.75h-9.11c-1.5,0-2.73,1.22-2.73,2.73v3.16
	c0,0,0.01,0.03,0.03,0.03L142.2,239.79L142.2,239.79z"/><path class="st18" d="M101.49,222.27h-1.9v38.2h1.9V222.27z"/><path class="st18" d="M99.59,267.72v-18.54h1.93l5.17,18.54H99.59z"/><path class="st18" d="M146.76,222.27h-1.9v38.75h1.9V222.27z"/><path class="st18" d="M146.76,267.72v-18.54h-1.95l-5.15,18.54H146.76z"/><path class="st18" d="M99.59,222.27v-6.85c0-4.29,3.47-7.77,7.77-7.77h32.03c0,0,2.05,5.91,0.44,7.82c-1.94,2.28-8.02,6.8-17.92,6.8
	H99.59z"/><path class="st13" d="M123.8,255.87c-1.07,0-1.91-0.53-2.66-1c-1.23-0.77-1.96-1.23-3.44,0.25l-0.96-0.96
	c2.24-2.24,3.84-1.24,5.11-0.44c0.65,0.4,1.26,0.79,1.93,0.79c0.69,0,1.28-0.35,1.89-0.72c1.22-0.74,2.73-1.68,5.24,0.41l-0.87,1.05
	c-1.76-1.47-2.52-1-3.66-0.3C125.68,255.38,124.87,255.87,123.8,255.87z"/><path class="st18" d="M133.17,288.62h-19.99c-7.51,0-13.59-6.08-13.59-13.6v-10.9h47.18v10.9c0,7.51-6.09,13.6-13.59,13.6"/><path class="st18" d="M146.78,222.87h-5.15c-3.68,0-6.68-2.99-6.68-6.68v-8.54h4.33c4.14,0,7.49,3.36,7.49,7.49L146.78,222.87
	L146.78,222.87z"/><path class="st18" d="M131.26,266.35l-15.15,0.02l-0.02-9.92l14.97-0.02L131.26,266.35z"/><path class="st18" d="M116.1,266.45l-6.39,0.01l6.38-10.08L116.1,266.45z"/><path class="st18" d="M130.93,266.43l6.39-0.01l-6.4-10.07L130.93,266.43z"/><path class="st19" d="M122.89,316.69l7.56-17.1h-15.11L122.89,316.69z"/><path class="st1" d="M64.02,460.77l6.17-134.83h106.09l7.31,134.83H64.02z"/><path class="st8" d="M131.64,505.14l64.78,0.28l-14.1-216.08l-27.26-5.67c0,23.05-25.66,38.01-25.66,38.01L131.64,505.14
	L131.64,505.14z"/><path class="st8" d="M116.31,506.97l-55.21,0.71l4.55-216.72l26.03-7.35c0,23.05,26.88,39.91,26.88,39.91L116.31,506.97z"/><path class="st15" d="M34.87,482.83l-0.2,0.94c-0.44,2.07,0.88,4.1,2.95,4.54l13.99,2.96c2.07,0.44,4.1-0.88,4.54-2.95l0.2-0.94
	c0.44-2.07-0.88-4.1-2.95-4.54l-13.99-2.96C37.33,479.44,35.3,480.76,34.87,482.83z"/><path class="st15" d="M22.88,466.74l27.81,3.27l3.95,12.83l-1.53,6.77l-32.84-11.95c0.58-2.74,1.15-5.48,1.73-8.23
	C22.3,468.54,22.6,467.64,22.88,466.74L22.88,466.74z"/><path class="st5" d="M17.33,470.41L16,472.82l102.86,57.54l1.33-2.41L17.33,470.41z"/><path class="st6" d="M66.94,520.44l-1.14,2.04l-2.04-1.14c-8.69-4.87-11.8-15.87-6.94-24.58l1.14-2.05l2.04,1.14
	C68.69,500.72,71.8,511.73,66.94,520.44L66.94,520.44z"/><path class="st6" d="M83.62,485.58l2.05,1.14l-1.14,2.05c-4.86,8.69-15.88,11.81-24.56,6.95l-2.05-1.14l1.14-2.05
	C63.93,483.83,74.93,480.72,83.62,485.58z"/><path class="st6" d="M96.76,492.93l2.04,1.14l-1.13,2.04c-4.86,8.69-15.88,11.81-24.57,6.95l-2.04-1.14l1.14-2.05
	c4.85-8.69,15.87-11.81,24.56-6.95L96.76,492.93z"/><path class="st6" d="M109.87,500.27l2.05,1.14l-1.14,2.05c-4.86,8.69-15.88,11.81-24.56,6.95l-2.05-1.14l1.14-2.05
	C90.17,498.53,101.18,495.41,109.87,500.27L109.87,500.27z"/><path class="st6" d="M129.39,532.7l0.63,2.26l-2.25,0.64c-9.58,2.71-19.57-2.88-22.27-12.47l-0.64-2.26l2.27-0.64
	C116.7,517.53,126.69,523.11,129.39,532.7L129.39,532.7z"/><path class="st6" d="M80.07,527.8l-1.14,2.04l-2.04-1.14c-8.69-4.87-11.8-15.87-6.94-24.58l1.14-2.05l2.04,1.14
	c8.69,4.87,11.8,15.87,6.94,24.58V527.8z"/><path class="st6" d="M93.21,535.14l-1.14,2.04l-2.05-1.14c-8.69-4.87-11.8-15.87-6.94-24.58l1.14-2.04l2.04,1.14
	C94.95,515.43,98.06,526.44,93.21,535.14L93.21,535.14z"/><path class="st6" d="M122.99,507.6l2.04,1.14l-1.14,2.05c-4.85,8.69-15.87,11.81-24.56,6.95l-2.04-1.14l1.13-2.04
	C103.29,505.87,114.3,502.76,122.99,507.6L122.99,507.6z"/><path class="st6" d="M106.32,542.48l-1.14,2.04l-2.05-1.14c-8.69-4.87-11.8-15.87-6.94-24.58l1.14-2.04l2.04,1.14
	C108.07,522.77,111.18,533.78,106.32,542.48L106.32,542.48z"/><path class="st15" d="M48.07,474.73l-1.57,7.43l9.85,2.09l1.57-7.43L48.07,474.73z"/><path class="st15" d="M22.55,490.8l-1.08-0.22c-2.03-0.42-3.24-2.92-2.68-5.6l2.5-12.2c0.55-2.68,2.64-4.51,4.67-4.09l1.09,0.22
	c2.03,0.42,3.24,2.92,2.68,5.6l-2.5,12.2C26.67,489.38,24.58,491.21,22.55,490.8z"/><path class="st15" d="M30.28,495.75l-0.95-0.19c-2.07-0.43-3.29-2.98-2.73-5.7l3.79-18.47c0.56-2.72,2.69-4.6,4.76-4.17l0.95,0.19
	c2.07,0.43,3.29,2.98,2.73,5.7l-3.79,18.47C34.48,494.3,32.35,496.17,30.28,495.75z"/><path class="st15" d="M38.76,497.49l-0.95-0.19c-2.07-0.43-3.29-2.98-2.73-5.7l3.79-18.47c0.56-2.72,2.69-4.6,4.76-4.17l0.95,0.19
	c2.07,0.43,3.29,2.98,2.73,5.7l-3.79,18.47C42.95,496.04,40.82,497.92,38.76,497.49z"/><path class="st15" d="M47.64,497.23l-0.95-0.19c-2.07-0.43-3.29-2.98-2.73-5.7l2.97-14.5c0.56-2.72,2.69-4.6,4.76-4.17l0.95,0.19
	c2.07,0.43,3.29,2.98,2.73,5.7l-2.97,14.5C51.83,495.78,49.7,497.66,47.64,497.23z"/><path class="st15" d="M51.28,475.12l-3.29,16.53l-7.26-0.28l-18.21-7.39l4.44-18.07L51.28,475.12z"/><path class="st8" d="M26.2,454.25c0,0,21.47-162.92,40.42-163.61c12.93-0.48,26.75,8.71,27.73,21.62
	c0.97,12.92-37.94,144.01-37.94,144.01L26.2,454.25L26.2,454.25z"/><path class="st20" d="M626,261.64c-3.6,11.07-15.48,17.12-26.54,13.52c-11.06-3.6-17.11-15.48-13.51-26.55
	c3.6-11.06,15.48-17.12,26.54-13.52C623.55,238.69,629.6,250.57,626,261.64z"/><path class="st20" d="M616.61,290.56c-3.6,11.07-15.47,17.12-26.53,13.52c-11.06-3.6-17.11-15.48-13.52-26.55
	c3.6-11.07,15.48-17.12,26.54-13.52C614.15,267.61,620.21,279.49,616.61,290.56z"/><path class="st1" d="M560.07,297.56c0-9.69,7.85-17.55,17.54-17.55c9.69,0,17.54,7.86,17.54,17.55s-7.85,17.55-17.54,17.55
	C567.92,315.11,560.07,307.25,560.07,297.56z"/><path class="st21" d="M731.99,234.54l-6.7-10.09l-23.61-13.91c-1.28-0.75-2.9-0.52-3.93,0.55l-10.16,10.64
	c-1.02,1.05-1.06,2.68-0.15,3.77c-0.02,0.76,0.25,1.53,0.84,2.11c0.67,0.64,1.56,0.89,2.4,0.76c0.04,0.99,0.58,1.93,1.52,2.41
	l-0.61-0.28c-1.55,0.21-2.64,1.62-2.43,3.17c0.21,1.55,1.63,2.64,3.17,2.43l11.54-1.55c0,0,8.25,6.45,11.16,7.24L731.99,234.54z"/><path class="st22" d="M710.82,232.42l-0.3,0.71h-0.01c-1.77-0.75-3.23-1.88-4.3-2.89l-1.34,2.49c-0.3,0.57-0.9,0.91-1.52,0.91
	c-0.08,0.01-0.16,0.01-0.24,0l-6.28-0.84c-1.29-0.19-1.86-0.94-2.05-1.6c-0.88,0.41-1.9,0.4-2.79-0.05
	c-1.57-0.79-2.21-2.73-1.41-4.31l5.96-12.22l0.69,0.34l-5.96,12.22c-0.61,1.2-0.12,2.67,1.08,3.28c0.78,0.39,1.68,0.33,2.42-0.14
	l3.98-13.22l0.74,0.22l-4,13.28c0,0.14,0,1.22,1.46,1.43l6.28,0.84c0.4,0.05,0.79-0.15,0.97-0.51l1.46-2.7
	c-0.94-0.97-1.47-1.74-1.52-1.81l0.64-0.43C704.77,227.43,707.14,230.86,710.82,232.42L710.82,232.42z"/><path class="st1" d="M757.19,286.55c4.87,10.05-2.29,21.79-13.45,22.02l-66.24,6.4L677.44,280l12.31,0.72
	c3.83-5.43,10.12-8.97,17.26-8.97h1.13c7.67,0,14.37,4.08,18.07,10.21h1.29l-15.49-39.32l22.69-9.88L757.19,286.55z"/><path class="st2" d="M616.08,771.33v8.01h-43.04v-8.01c0-11.88,9.63-21.52,21.52-21.52C606.45,749.8,616.08,759.44,616.08,771.33z"/><path class="st2" d="M681.58,779.33h-43.04v-8.01c0-11.88,9.63-21.52,21.52-21.52c11.89,0,21.52,9.64,21.52,21.52V779.33z"/><path class="st8" d="M566.72,761.41c0,0-9.24-245.23-9.24-265.25c0-25.58-2.82-83.66,21.11-117.96h98.97
	c23.29,34.72,22.74,88.21,21.05,114.23c-1.29,19.98-9.77,268.98-9.77,268.98H566.72z"/><path class="st1" d="M592.49,306.87l-35.24,56.32c-3.3,5.93-10.19,8.89-16.78,7.22c-8.9-2.28-13.68-11.94-10.08-20.4l31.65-60.54
	L592.49,306.87z"/><path class="st1" d="M677.57,378.2H578.6l0.28-98.18h98.55L677.57,378.2z"/><path class="st23" d="M608.73,349.99v-69.96h-33.95l-12.25,84.81h25.97C599.68,364.83,608.73,358.34,608.73,349.99z"/><path class="st23" d="M682.65,280.02H648.7v69.96c0,8.36,9.06,14.85,20.23,14.85h25.97L682.65,280.02z"/><path class="st21" d="M659.2,246.16c0,3.84-3.11,6.95-6.95,6.95c-3.84,0-6.95-3.11-6.95-6.95c0-3.84,3.11-6.95,6.95-6.95
	C656.09,239.21,659.2,242.33,659.2,246.16z"/><path class="st21" d="M612.08,246.14c0,3.84-3.11,6.95-6.95,6.95c-3.84,0-6.95-3.11-6.95-6.95c0-3.84,3.11-6.95,6.95-6.95
	C608.97,239.19,612.08,242.31,612.08,246.14z"/><path class="st23" d="M605.98,249.26c3.45,0,6.24,2.8,6.24,6.26v6.18c0,3.46-2.8,6.25-6.24,6.25c-3.45,0-6.24-2.8-6.24-6.25v-6.18
	C599.73,252.06,602.53,249.26,605.98,249.26z"/><path class="st23" d="M651.46,249.26c3.45,0,6.24,2.8,6.24,6.26v6.18c0,3.46-2.8,6.25-6.24,6.25c-3.45,0-6.24-2.8-6.24-6.25v-6.18
	C645.21,252.06,648.01,249.26,651.46,249.26z"/><path class="st22" d="M611.56,281.61v-22.27l34.31,0.06v22.22c0,9.48-7.68,17.17-17.16,17.17
	C619.23,298.77,611.55,291.09,611.56,281.61"/><path class="st21" d="M605.98,256.11v-32.04c0-10.13,8.2-18.34,18.33-18.34h8.82c10.13,0,18.33,8.21,18.33,18.34v32.04
	c0,10.13-8.2,18.34-18.33,18.34h-8.82C614.18,274.45,605.98,266.24,605.98,256.11z"/><path d="M628.63,254.03c-0.26,0-0.53-0.03-0.81-0.09c-0.79-0.16-1.54-0.57-2.24-1.21c-0.36-0.33-0.72-0.49-1.09-0.45
	c-0.75,0.07-1.34,0.83-1.35,0.83l-0.76-0.57c0,0,0.85-1.1,2.02-1.21c0.65-0.06,1.27,0.18,1.83,0.7c0.56,0.52,1.16,0.85,1.78,0.97
	c0.63,0.12,1.19,0.07,1.66-0.17c0.2-0.1,0.4-0.26,0.59-0.47c0.31-0.33,0.96-0.9,1.9-0.93c0.79-0.03,1.57,0.32,2.33,1.04l-0.66,0.7
	c-0.57-0.54-1.12-0.81-1.65-0.78c-0.62,0.02-1.07,0.45-1.24,0.62c-0.27,0.29-0.55,0.51-0.85,0.67c-0.45,0.23-0.94,0.35-1.47,0.35
	L628.63,254.03z"/><path class="st22" d="M628.77,260.73c0-1.94-2.98-1.69-2.98-1.69h-6.74c0.07-0.38,9.51,14.46,19.43,0h-6.74c0,0-2.98-0.26-2.98,1.69
	"/><path d="M639.95,231.37h0.28c2.92,0.02,5.66,1.48,7.4,3.94l-15.13-0.07c1.77-2.45,4.53-3.88,7.44-3.87"/><path class="st14" d="M633.85,244.34c0,0,1.66-3.56,4.84-4.67c3.19-1.1,6.69,0.66,6.69,0.66s-1.28,2.9-4.46,4.01
	C637.74,245.44,633.84,244.34,633.85,244.34"/><path d="M636.88,242.01c0,1.52,1.24,2.76,2.76,2.76s2.76-1.24,2.76-2.76c0-1.52-1.24-2.76-2.76-2.76S636.88,240.49,636.88,242.01z"/><path d="M633.86,244.34c0.82-5.69,8.01-8.11,12.43-5.45c-0.28,0.44-0.79,1.31-1.06,1.74c-0.98-0.59-6.05-2.64-10.66,2.89
	c-0.28,0.33-0.31,0.48-0.7,0.82"/><path d="M616.28,231.37H616c-2.92,0.02-5.66,1.48-7.41,3.94l15.13-0.07C621.96,232.79,619.2,231.36,616.28,231.37"/><path class="st14" d="M622.77,244.28c0,0-1.66-3.56-4.85-4.67c-3.19-1.1-6.69,0.66-6.69,0.66s1.28,2.9,4.46,4.01
	C618.89,245.38,622.78,244.28,622.77,244.28"/><path d="M619.31,241.76c0,1.52-1.24,2.76-2.76,2.76s-2.76-1.24-2.76-2.76c0-1.52,1.24-2.76,2.76-2.76S619.31,240.23,619.31,241.76z"/><path d="M622.77,244.28c-0.82-5.68-8-8.11-12.43-5.45c0.27,0.44,0.79,1.31,1.06,1.74c0.98-0.59,6.05-2.64,10.66,2.88
	C622.33,243.79,622.37,243.93,622.77,244.28"/><path class="st20" d="M606.25,247.22v-11.85c0-10.13,8.11-18.34,18.11-18.34h3.02v-5.68h2.68v5.68h3.02c10,0,18.11,8.21,18.11,18.34
	v11.85h3.55v-23.31c0-10.98-8.89-19.87-19.86-19.87h-12.33c-10.97,0-19.86,8.89-19.86,19.87v23.31H606.25L606.25,247.22z"/><path class="st20" d="M647.65,219.16c7.41,8.65,6.98,21.2,6.98,21.2s-12.47-1.47-19.88-10.12c-7.41-8.65-6.98-21.2-6.98-21.2
	S640.24,210.5,647.65,219.16z"/><path class="st21" d="M610.13,433.66l-7.52,4.19l3.16,5.67l7.52-4.19L610.13,433.66z"/><path class="st21" d="M609,441.9l-6.14,9.59c-1.1,1.71-0.6,3.99,1.11,5.09c1.71,1.1,3.99,0.6,5.09-1.11l6.15-9.59
	c1.1-1.71,0.6-3.99-1.11-5.09C612.37,439.69,610.09,440.19,609,441.9z"/><path class="st5" d="M590.7,500.55c9.59,20.81,34.22,29.89,55.01,20.29c20.8-9.6,29.88-34.23,20.28-55.04
	c-9.59-20.81-34.22-29.89-55.01-20.29C590.19,455.1,581.11,479.74,590.7,500.55z"/><path class="st6" d="M605.95,509.43c-14.48-12.35-16.21-34.18-3.86-48.66c12.34-14.48,34.17-16.21,48.64-3.87
	c14.47,12.34,16.2,34.19,3.86,48.66C642.25,520.04,620.43,521.78,605.95,509.43z M649,458.95c-13.34-11.39-33.47-9.79-44.87,3.55
	c-11.38,13.35-9.78,33.49,3.55,44.89c13.34,11.4,33.47,9.8,44.87-3.55C663.93,490.49,662.34,470.35,649,458.95z"/><path class="st7" d="M643.05,467.48c0.43,0.36,0.46,0.69,0.12,1.1l-2.35,2.77c1.96,1.85,3.44,4.39,3.92,6.22
	c0.19,0.71-0.02,1.04-0.73,1.3l-2.49,0.9c-0.68,0.22-0.96,0.05-1.26-0.62c-0.75-1.68-1.53-3.02-2.55-4.13l-6.12,7.23
	c2.36,5.45,3.55,9.73,0.36,13.5c-3.11,3.67-8.15,4.46-13.11,1.56l-2.46,2.91c-0.33,0.4-0.67,0.42-1.09,0.06l-1.32-1.12
	c-0.43-0.36-0.46-0.7-0.12-1.1l2.41-2.85c-3.07-2.78-4.64-6.04-5.02-8.13c-0.09-0.56,0.15-0.91,0.77-1.2l2.45-1.08
	c0.67-0.29,1.19-0.17,1.46,0.61c0.7,2.31,1.88,4.56,3.48,6.1l6.66-7.88c-1.74-4.07-4.09-9.38-0.56-13.56
	c3.35-3.95,8.47-3.88,12.75-0.87l2.37-2.81c0.33-0.4,0.67-0.42,1.09-0.06l1.32,1.12v0.02H643.05z M635.09,472.97
	c-1.68-0.93-3.53-1.08-4.95,0.62c-1.09,1.29-0.94,3.09,0,5.26l4.96-5.86L635.09,472.97z M627.61,486.99l-5.47,6.49
	c1.7,0.76,3.7,0.79,5.21-0.96c1.5-1.76,1.07-3.6,0.28-5.5L627.61,486.99z"/><path class="st21" d="M615.67,442.95l-4.88,1.78l5.31,4l-25.78,13.61l-7.2-12.73c-1.23-2.28-2-4.79-2.26-7.38l-12.61-22.31
	l19.11-10.82l9.52,17.09l0.11-0.06c3.76,0.85,11.15,4.83,15.29,7.18c0.77,0.44,1.31,1.17,1.52,2.03L615.67,442.95"/><path class="st21" d="M593.84,453.61c-1-1.77-3.25-2.4-5.02-1.39c-1.77,1-2.39,3.25-1.39,5.02l9.19,16.25c1,1.77,3.25,2.4,5.02,1.39
	s2.39-3.25,1.39-5.02L593.84,453.61z"/><path class="st21" d="M598.37,446.63c-1-1.77-3.25-2.4-5.02-1.39c-1.77,1-2.39,3.25-1.39,5.02l12.97,22.94
	c1,1.77,3.25,2.39,5.02,1.39c1.77-1,2.39-3.25,1.39-5.02L598.37,446.63z"/><path class="st21" d="M604.8,442.99c-1-1.77-3.25-2.39-5.02-1.39c-1.77,1-2.39,3.25-1.39,5.02l12.97,22.94
	c1,1.77,3.25,2.4,5.02,1.39c1.77-1,2.39-3.25,1.39-5.02L604.8,442.99z"/><path class="st21" d="M612.4,441.41c-1-1.77-3.25-2.4-5.02-1.39c-1.77,1-2.39,3.25-1.39,5.02l10.65,18.83c1,1.77,3.25,2.4,5.02,1.39
	c1.77-1,2.39-3.25,1.39-5.02L612.4,441.41z"/><path class="st1" d="M595.59,422.03l-19.96,11.96l-42.78-67.64c-0.6-0.71-1.12-1.48-1.58-2.26l-0.09-0.12h0.02
	c-3.17-5.68-2.61-12.98,1.96-18.13c5.77-6.5,15.71-7.09,22.23-1.31c0.67,0.58,1.26,1.23,1.79,1.89l0.47,0.57l0.51,0.79
	c0.49,0.75,0.9,1.55,1.25,2.37L595.59,422.03L595.59,422.03z"/><path class="st15" d="M291.33,303.71l3.6-22.12l-18.84-17.44c-1.35-1.26-3.47-1.18-4.73,0.18l-0.32,0.35
	c-1.26,1.36-1.18,3.49,0.18,4.74l5.19,4.8l-15.57-5.18l-4.45,24.76L291.33,303.71z"/><path class="st18" d="M462.41,208.11l17.05,14.19h-0.06c2.67,2.41,4.71,5.6,5.71,9.34c2.75,10.33-3.39,20.95-13.71,23.7
	c-7.36,1.96-14.85-0.62-19.55-6c-1.4,7-6.61,12.97-13.98,14.93c-10.34,2.75-20.94-3.39-23.69-13.73c-1-3.73-0.82-7.5,0.29-10.93
	l0.05-0.12c0.11-0.33,0.24-0.67,0.37-1l7.32-19.67L462.41,208.11L462.41,208.11z"/><path class="st8" d="M457.36,766.05l-3.08,12.65H429l-3.07-12.65l2.14-22.23h26.58L457.36,766.05z"/><path class="st8" d="M503.6,752.28c-0.4-0.53-1.03-0.85-1.69-0.85c-1.17,0-2.12,0.95-2.12,2.12v25.12h-8.13v-29.66
	c0-7.47-0.53-13.59,3.54-19.04l3.59-4.81l19.65,30.2c4.49,6.9,13,10,20.87,7.6l22.48,10.26c1.02,0.47,1.67,1.49,1.67,2.61
	c0,1.58-1.29,2.87-2.86,2.87h-32.73c-2.98,0-5.78-1.47-7.47-3.92L503.6,752.28z"/><path class="st15" d="M466.29,240.88c-0.96-3.59,1.18-7.28,4.77-8.24c3.59-0.95,7.28,1.18,8.23,4.77c0.96,3.59-1.18,7.29-4.77,8.24
	C470.93,246.61,467.24,244.47,466.29,240.88z"/><path class="st15" d="M422.18,252.62c-0.96-3.59,1.18-7.28,4.77-8.24c3.59-0.96,7.28,1.18,8.23,4.77c0.96,3.59-1.18,7.28-4.77,8.24
	C426.82,258.35,423.13,256.21,422.18,252.62z"/><path class="st2" d="M429.83,255.79c1.09,0,1.98,0.88,1.98,1.97l0.04,17.04h-3.95l-0.04-17.03
	C427.86,256.68,428.73,255.79,429.83,255.79z M472.46,262.91h3.95v-17.04c0-1.1-0.89-1.97-1.97-1.97c-1.09,0-1.97,0.89-1.97,1.97
	L472.46,262.91L472.46,262.91z"/><path class="st24" d="M455.58,292.39c9.17,0,16.62-7.45,16.62-16.64v-21.58h-33.24v21.58C438.96,284.95,446.39,292.39,455.58,292.39
	z"/><path class="st15" d="M453.76,272.4l7.91-2.1c9.57-2.55,15.27-12.38,12.71-21.96l-8.24-30.95c-2.55-9.58-12.37-15.27-21.95-12.72
	l-7.91,2.1c-9.58,2.55-15.27,12.38-12.72,21.96l8.24,30.95C434.36,269.24,444.19,274.94,453.76,272.4z"/><path d="M454.52,250c0.36-0.6,1.23-1.48,2.9-0.57l0.42-0.78c-1.96-1.07-3.4-0.24-4.07,0.88c-0.6,0.99-1.57,1.97-3.75,0.84
	c-1.83-0.95-3.24,0.42-3.72,1.28l0.77,0.44c0.04-0.07,1-1.72,2.54-0.92c1.09,0.56,2.07,0.73,2.9,0.51
	C453.31,251.47,453.97,250.9,454.52,250z"/><path class="st23" d="M453.92,257.15l0.68,0.54l0.1-0.57c0.13-0.77,0.64-1.38,1.31-1.6l6.26-2.01c-1.96,4.11-2.97,6.55-6.24,7.6
	c-5.15,1.64-10.28-2.57-10.24-2.31l6.32-2.04C452.71,256.57,453.39,256.71,453.92,257.15z"/><path class="st14" d="M438.94,246.08c-3.26-0.24-5.17-2.42-5.17-2.42s2.84-2.53,6.1-2.29c3.27,0.25,5.7,3.16,5.7,3.16
	S442.21,246.32,438.94,246.08z"/><path d="M436.68,244.17c-0.38-1.43,0.47-2.9,1.89-3.28c1.43-0.38,2.89,0.47,3.27,1.9c0.38,1.43-0.47,2.89-1.89,3.28
	C438.52,246.45,437.06,245.6,436.68,244.17z"/><path d="M444.72,243.94c-5.69-4.02-9.93-0.84-10.7-0.04c-0.37-0.34-0.61-0.6-0.97-0.93c3.46-3.6,9.82-2.93,12.52,1.56
	C445.13,244.32,445.06,244.19,444.72,243.94z"/><path class="st14" d="M462.14,239.9c2.7-1.84,3.27-4.68,3.27-4.68s-3.72-0.77-6.43,1.06c-2.7,1.84-3.37,5.58-3.37,5.58
	S459.44,241.74,462.14,239.9z"/><path d="M458.04,238.47c-0.38-1.43,0.47-2.89,1.89-3.28c1.43-0.38,2.89,0.47,3.27,1.9c0.38,1.43-0.47,2.9-1.89,3.28
	C459.89,240.74,458.42,239.9,458.04,238.47z"/><path d="M456.08,240.92c2.94-6.32,8.2-5.66,9.26-5.36c0.14-0.47,0.23-0.81,0.37-1.28c-4.8-1.4-9.97,2.34-10.09,7.59
	C455.91,241.44,455.91,241.3,456.08,240.92z"/><path class="st18" d="M430.73,237.09c-0.53-2.01,0.66-4.07,2.67-4.61l9.99-2.67l0.04,0.14c0.53,2.01-0.66,4.08-2.66,4.61l-9.99,2.67
	L430.73,237.09z"/><path class="st18" d="M465.73,231.04c-0.53-2.01-2.6-3.2-4.61-2.67l-9.99,2.67l0.04,0.14c0.53,2.01,2.6,3.2,4.61,2.67l9.99-2.67
	L465.73,231.04z"/><path class="st1" d="M522.67,454.61c-3.17-54.68-17.32-80.61-20.47-86.43l-91.83,0.28c-4.31,7.83-23.11,46.6-18.26,119.83
	c0.04,0.52-0.79,277.92-0.79,277.92h70.11l-6.06-312.4h5.13l21.08,312.4h69.36L522.67,454.61z"/><path class="st18" d="M475.41,239.37l-3.34,0.89l-2.35-8.84c-0.68-2.56-1.89-4.83-3.46-6.75l-13.89,3.7
	c-5.24,1.4-10.81,0.09-14.88-3.43l-6.87-6.89l-1.58,1.58l4.49,4.51c-5.33,4.26-7.95,11.45-6.06,18.53l2.35,8.84l-3.34,0.88
	l-5.23-19.61c-2.74-10.32,2.87-22.83,13.18-25.58l11.58-3.09c10.31-2.74,21.4,5.31,24.15,15.63L475.41,239.37z"/><path class="st2" d="M475.2,233.52c0-0.85,0.69-1.53,1.53-1.53c0.85,0,1.53,0.69,1.53,1.53c0,0.85-0.68,1.53-1.53,1.53
	C475.88,235.05,475.2,234.37,475.2,233.52z"/><path class="st25" d="M478,486.26l-41.71-8.34l2.6-13.03c0.8-3.99,4.69-6.59,8.68-5.79l27.24,5.45c3.99,0.8,6.59,4.7,5.79,8.68
	L478,486.26z M442.65,473.68l31.1,6.22l1.54-7.72c0.21-1.07-0.49-2.11-1.55-2.32l-27.24-5.45c-1.07-0.21-2.1,0.49-2.32,1.55
	l-1.54,7.72H442.65z"/><path class="st5" d="M393.52,468.96l-19.6,98.12l127.41,25.47l19.6-98.12L393.52,468.96z"/><path class="st25" d="M497.26,540.73l-99.65-19.92c-9.81-1.96-16.18-11.51-14.22-21.33l7.21-36.08l135.2,27.03l-7.21,36.08
	C516.62,536.33,507.08,542.7,497.26,540.73L497.26,540.73z"/><path class="st6" d="M437.39,527.21l-0.59,2.98c-0.46,2.3,1.03,4.54,3.33,5l12.33,2.47c2.3,0.46,4.54-1.03,4.99-3.33l0.6-2.98
	c0.46-2.3-1.03-4.54-3.33-5l-12.33-2.46C440.09,523.41,437.86,524.91,437.39,527.21z"/><path class="st15" d="M457.4,440.7l-3.16,5.67l7.52,4.19l3.16-5.67L457.4,440.7z"/><path class="st15" d="M458.53,448.96c-1.1-1.71-3.38-2.21-5.09-1.11c-1.71,1.1-2.21,3.38-1.11,5.09l6.14,9.59
	c1.1,1.71,3.38,2.21,5.09,1.11c1.71-1.1,2.21-3.38,1.11-5.09L458.53,448.96z"/><path class="st15" d="M451.87,450l4.88,1.78l-5.31,4l25.78,13.61l7.2-12.73c1.23-2.29,2-4.79,2.27-7.38l12.61-22.31l-19.11-10.82
	l-9.52,17.09l-0.11-0.06c-3.76,0.85-11.15,4.83-15.3,7.18c-0.77,0.44-1.31,1.17-1.52,2.03L451.87,450"/><path class="st15" d="M476.29,456.14l-9.19,16.25c-1,1.77-0.38,4.02,1.39,5.02c1.77,1,4.02,0.38,5.02-1.39l9.19-16.26
	c1-1.77,0.38-4.02-1.39-5.02C479.54,453.74,477.29,454.37,476.29,456.14z"/><path class="st15" d="M472.67,447.56L459.7,470.5c-1,1.77-0.38,4.02,1.39,5.02c1.77,1,4.02,0.38,5.02-1.39l12.97-22.94
	c1-1.77,0.38-4.02-1.39-5.02C475.92,445.16,473.67,445.79,472.67,447.56z"/><path class="st15" d="M465.76,444.83l-12.97,22.94c-1,1.77-0.38,4.02,1.39,5.02c1.77,1,4.02,0.38,5.02-1.39l12.97-22.94
	c1-1.77,0.38-4.02-1.39-5.02C469.01,442.44,466.76,443.06,465.76,444.83z"/><path class="st15" d="M458.01,443.98l-10.64,18.83c-1,1.77-0.38,4.02,1.39,5.02c1.77,1,4.02,0.38,5.02-1.39l10.64-18.83
	c1-1.77,0.38-4.02-1.39-5.02C461.26,441.58,459.02,442.2,458.01,443.98z"/><path class="st15" d="M508.13,357.21c0.35-0.82,0.75-1.62,1.25-2.37l0.51-0.79l0.48-0.57c0.53-0.67,1.13-1.31,1.79-1.89
	c6.52-5.78,16.46-5.19,22.23,1.31c4.57,5.15,5.13,12.44,1.96,18.11h0.02l-0.09,0.13c-0.46,0.79-0.98,1.54-1.58,2.26l-43.62,67.13
	l-18.35-11L508.13,357.21z"/><path class="st8" d="M407.59,277.92h24.6v-2.91h47.07v2.91h24.95c10.22,0.77,18.37,8.14,20.59,17.63v0.03l14.11,65.46l-36.7,8.07
	l-91.83,0.28v-46.1l-38.55-0.53v-43.38L407.59,277.92z"/><path class="st26" d="M377.61,773.02h30.94L387,496.33l-44.49,0.23L377.61,773.02z"/><path class="st27" d="M374.58,773.02c0-11.74,9.51-21.25,21.24-21.25c11.74,0,21.24,9.51,21.24,21.25"/><path class="st23" d="M417.07,773.02h-42.49v7.91h42.49V773.02z"/><path class="st26" d="M286.86,773.1l-11.89-319.59h42.53V773.1H286.86z"/><path class="st27" d="M279.47,773.02c0-11.74,9.51-21.25,21.24-21.25c11.74,0,21.24,9.51,21.24,21.25"/><path class="st23" d="M321.96,773.02h-42.49v7.91h42.49V773.02z"/><path class="st23" d="M273.09,377.38l-2.3-98.77h104.3l-1.14,75.41L273.09,377.38z"/><path class="st27" d="M272.98,377.38l-0.62-23.36h101.59l-0.45,23.04L272.98,377.38z"/><path class="st23" d="M238.51,355.34c-5.02,9.8-17.04,13.68-26.84,8.65c-0.41-0.21-0.81-0.43-1.19-0.66
	c-10.63-6.4-12.12-21.31-3.55-30.27l43.93-40.18c4.95-11.76,18.49-17.27,30.24-12.32c11.75,4.95,15.86,14.14,10.92,25.89
	L238.51,355.34L238.51,355.34z"/><path class="st26" d="M390.67,119.1l4.85,1.84l-1.43-6.49l28.42,6.49l-2.84,14.35c-0.55,2.53-1.61,4.94-3.09,7.07l-4.97,25.14
	l-21.54-4.27l3.92-19.17l-0.12-0.03c-2.29-3.1-5.31-10.93-6.92-15.42c-0.29-0.83-0.24-1.74,0.16-2.53L390.67,119.1z"/><path class="st26" d="M415.2,119.93l-1.38,6.99c-0.39,2,0.9,3.93,2.9,4.33s3.93-0.9,4.33-2.9l1.38-6.99c0.39-2-0.9-3.93-2.9-4.33
	C417.53,116.64,415.59,117.94,415.2,119.93z"/><path class="st26" d="M408.37,116.42l-2.21,11.17c-0.39,2,0.9,3.94,2.9,4.33c1.99,0.4,3.93-0.9,4.33-2.9l2.21-11.17
	c0.39-2-0.9-3.93-2.9-4.33C410.7,113.12,408.76,114.42,408.37,116.42z"/><path class="st26" d="M401.11,114.97l-2.21,11.17c-0.4,2,0.9,3.94,2.9,4.33c1.99,0.39,3.93-0.9,4.33-2.9l2.21-11.17
	c0.39-2-0.9-3.94-2.9-4.33C403.45,111.68,401.51,112.98,401.11,114.97z"/><path class="st26" d="M393.61,114.83l-1.7,8.59c-0.39,2,0.9,3.93,2.9,4.33c1.99,0.4,3.93-0.9,4.33-2.9l1.7-8.59
	c0.39-2-0.9-3.93-2.9-4.33C395.94,111.54,394,112.84,393.61,114.83z"/><path class="st26" d="M390.08,123.37l-1.3,6.36l8.43,1.73l1.3-6.36L390.08,123.37z"/><path class="st23" d="M331.78,298.58c0,0,37.2-99.43,42.81-133.55c3.77-22.88,28.68-18.95,42.33-7.52
	c35.99,30.09-32.97,93.96-42.79,164.68"/><path class="st23" d="M386.57,144.71l-2.18,12.32l35.48,6.3l2.18-12.32L386.57,144.71z"/><path class="st28" d="M301.77,250.75c3.78,0,6.84-3.07,6.84-6.85s-3.06-6.85-6.84-6.85c-3.78,0-6.84,3.07-6.84,6.85
	S297.99,250.75,301.77,250.75z"/><path class="st28" d="M346.14,250.75c3.78,0,6.84-3.07,6.84-6.85s-3.06-6.85-6.84-6.85s-6.84,3.07-6.84,6.85
	S342.36,250.75,346.14,250.75z"/><path class="st26" d="M340.64,286.93v-21.95l-33.82-0.12v22.07c0,9.34,7.57,16.92,16.91,16.92
	C333.07,303.85,340.65,296.28,340.64,286.93L340.64,286.93z"/><path class="st28" d="M328.91,205.77h-10.36c-9.52,0-17.23,7.71-17.23,17.23v33.27c0,9.52,7.72,17.24,17.24,17.24h10.36
	c9.52,0,17.23-7.71,17.23-17.23V223C346.14,213.49,338.42,205.77,328.91,205.77z"/><path d="M323.98,251.73c-0.97,0-1.71-0.45-2.36-0.85c-0.95-0.58-1.58-0.96-2.67-0.03l-0.52-0.62c1.53-1.3,2.64-0.64,3.62-0.05
	c0.59,0.36,1.2,0.72,1.94,0.72c0.64,0,1.19-0.37,1.72-0.73c0.89-0.6,1.99-1.34,3.33,0.14l-0.6,0.54c-0.87-0.96-1.36-0.62-2.27-0.01
	c-0.61,0.41-1.29,0.87-2.17,0.87L323.98,251.73z"/><path class="st14" d="M329.9,242.57c0,0,1.68-3.56,4.89-4.65c3.2-1.09,6.71,0.71,6.71,0.71s-1.81,3.27-5.02,4.35
	C333.29,244.08,329.9,242.57,329.9,242.57z"/><path class="st29" d="M335.56,243.17c1.4,0,2.54-1.14,2.54-2.54c0-1.4-1.14-2.54-2.54-2.54c-1.4,0-2.54,1.14-2.54,2.54
	C333.02,242.03,334.16,243.17,335.56,243.17z"/><path class="st29" d="M330.43,242.94l-1.08-0.72c1.56-2.31,5.9-7.33,12.39-4.34l-0.54,1.18c-2.31-1.07-6.8-1.98-10.78,3.9
	L330.43,242.94z"/><path class="st14" d="M317.56,242.43c0,0-1.68-3.56-4.89-4.65c-3.2-1.09-6.71,0.71-6.71,0.71s1.71,3.33,4.92,4.42
	C314.08,244,317.56,242.43,317.56,242.43z"/><path class="st29" d="M311.9,243.12c1.4,0,2.54-1.14,2.54-2.54c0-1.4-1.14-2.54-2.54-2.54c-1.4,0-2.54,1.14-2.54,2.54
	C309.36,241.99,310.5,243.12,311.9,243.12z"/><path class="st29" d="M317.03,242.79c-3.99-5.88-8.47-4.96-10.78-3.89l-0.54-1.18c6.49-3,10.83,2.04,12.39,4.34L317.03,242.79
	L317.03,242.79z"/><path class="st2" d="M303.55,234.16l10.12-3.7c3.03-1.1,6.55,0.6,6.77,3.41c0,0.1,0.01,0.2,0.01,0.29H303.55z"/><path class="st2" d="M343.91,232.76l-10.12-3.7c-3.03-1.11-6.55,0.6-6.77,3.41c0,0.1-0.01,0.2-0.01,0.29H343.91z"/><path class="st30" d="M327.2,265.97c-0.68-1.27-2.48-1.66-3.83-1.6c-1.5,0.07-2.75,0.65-3.09,1.45l-0.59-0.26
	c0.45-1.04,1.88-1.76,3.66-1.84c1.53-0.07,3.6,0.41,4.42,1.94L327.2,265.97z"/><path class="st2" d="M302.76,238.26v-3.1c0-9.5,7.61-17.21,17-17.21h2.84h2.51h2.84c9.39,0,17,7.7,17,17.21v3.1h3.33v-13.85
	c0-10.3-8.35-18.65-18.64-18.65h-11.56c-10.3,0-18.64,8.35-18.64,18.65v13.85h3.33H302.76z"/><path class="st28" d="M339.86,224.35l-3.44-1.29l7.38-9.24L339.86,224.35z"/><path class="st27" d="M390.22,423.72h-0.01c-5.53-34.27-16.7-46.65-16.7-46.65h-100.5c0,0-16.49,18.45-19.05,65.56
	c0,0,0,0.15-0.02,0.4c-0.12,2.33-0.21,4.74-0.26,7.23c-1.27,36.16-6.2,190.69,0.28,228.63h164.22
	C418.18,678.89,397.54,452.47,390.22,423.72L390.22,423.72z"/><path class="st26" d="M370.73,476.2l27.15,206.3l-29.81,2.21L370.73,476.2z"/><path class="st28" d="M344.1,242.27h-37.68v3.77h37.68V242.27z"/><path class="st31" d="M283.22,412.6l-0.01,0.28c-0.08,1.77,1.29,3.26,3.06,3.33l10.59,0.46c1.77,0.08,3.26-1.29,3.33-3.06l0.01-0.28
	c0.08-1.77-1.29-3.26-3.06-3.33l-10.59-0.46C284.79,409.46,283.3,410.83,283.22,412.6z"/><path class="st26" d="M293.51,392.79c2.5,2.44,6.32,9.03,8.39,12.81c0.39,0.71,0.47,1.53,0.22,2.3l-2.18,6.75l-4.61-0.94l2.21,5.61
	l-26.36-1.74l-0.79-10.34c0.13-2.35,0.73-4.66,1.76-6.77l-44.41-33.71l9.48-21.89"/><path class="st26" d="M274.47,420.61h-0.16c-1.8-0.08-3.2-1.58-3.13-3.38l-1.48-15.78c0.07-1.8,2.37-5.03,4.16-4.96l16.75,4.29
	c1.8,0.07-12.46,8.27-12.53,10.07l-0.24,6.62c-0.07,1.8-1.57,3.2-3.37,3.13V420.61z"/><path class="st26" d="M278.18,408.87l-0.39,10.6c-0.07,1.77,1.31,3.25,3.08,3.31l0.28,0.01c1.76,0.07,3.25-1.31,3.31-3.08l0.39-10.6
	c0.07-1.77-1.31-3.25-3.08-3.31l-0.27-0.01C279.73,405.72,278.24,407.1,278.18,408.87z"/><path class="st26" d="M284.87,409.11l-0.39,10.6c-0.06,1.77,1.31,3.25,3.08,3.31l0.28,0.01c1.77,0.06,3.25-1.32,3.31-3.08l0.39-10.6
	c0.07-1.77-1.31-3.25-3.08-3.32l-0.28-0.01C286.42,405.96,284.94,407.34,284.87,409.11z"/><path class="st26" d="M291.53,410.55l-0.3,8.22c-0.07,1.77,1.31,3.25,3.08,3.31l0.28,0.01c1.77,0.06,3.25-1.32,3.31-3.08l0.3-8.22
	c0.07-1.77-1.31-3.25-3.08-3.32l-0.28-0.01C293.08,407.41,291.59,408.79,291.53,410.55z"/><path class="st26" d="M274.62,399.27l-0.74,17.27l24.02,1.04l0.74-17.27L274.62,399.27z"/><path class="st23" d="M205.92,359.48c25.21,28.7,34.72,51.14,58.17,36.33c15.06-9.5,20.48-20.23,3.19-37.19
	c-12.24-7.99-19.76-17.11-41.24-35.34"/><path class="st23" d="M276.26,376.62l-22.3,22.76l8.93,8.76l22.06-22.51L276.26,376.62z"/><path class="st27" d="M299.3,386.28l-38.89,38.91l38.89,38.91l38.89-38.91L299.3,386.28z"/><path class="st23" d="M323.45,257.85l0.48,0.72l0.27-0.51c0.37-0.7,1.04-1.11,1.74-1.11l6.58,0.04c-3.14,3.29-4.86,5.3-8.3,5.27
	c-5.41-0.05-8.97-5.65-9.01-5.39l6.64,0.03c0.64,0,1.24,0.35,1.61,0.93V257.85z"/><path class="st5" d="M446.29,86.67l-41.4-27.05c-1.75-1.14-4.1-0.65-5.24,1.1l-27.04,41.42c-1.14,1.75-0.66,4.1,1.1,5.25l41.4,27.05
	c1.75,1.14,4.1,0.66,5.24-1.1l27.04-41.42C448.53,90.17,448.05,87.82,446.29,86.67z"/><path class="st6" d="M430.26,89.69l-21.68-14.17c-1.97-1.29-4.62-0.73-5.91,1.24l-14.16,21.69c-1.29,1.97-0.73,4.62,1.24,5.91
	l21.68,14.17c1.97,1.29,4.62,0.73,5.91-1.24L431.5,95.6C432.78,93.63,432.23,90.99,430.26,89.69z"/><path class="st6" d="M424.71,77.48l-2.73-1.79l-3.3,5.05l2.73,1.79L424.71,77.48L424.71,77.48z"/><path class="st6" d="M430.87,81.51l-2.73-1.79l-3.3,5.05l2.73,1.79L430.87,81.51L430.87,81.51z"/><path class="st6" d="M418.54,73.46l-2.73-1.79l-3.29,5.05l2.73,1.79L418.54,73.46L418.54,73.46z"/><path class="st6" d="M401.33,113.31l-2.73-1.79l-3.3,5.05l2.73,1.79L401.33,113.31z"/><path class="st6" d="M395.17,109.27l-2.73-1.79l-3.29,5.05l2.73,1.79L395.17,109.27L395.17,109.27z"/><path class="st6" d="M431.34,109l-5.05-3.31l-1.79,2.73l5.04,3.29l1.79-2.73V109z"/><path class="st6" d="M427.3,115.17l-5.05-3.3l-1.79,2.73l5.04,3.3L427.3,115.17z"/><path class="st6" d="M435.36,102.83l-5.04-3.3l-1.79,2.73l5.04,3.29l1.79-2.73V102.83z"/><path class="st6" d="M395.52,85.61l-5.04-3.3l-1.79,2.73l5.04,3.3L395.52,85.61z"/><path class="st6" d="M391.49,91.78l-5.04-3.3l-1.79,2.73l5.04,3.3L391.49,91.78z"/><path class="st6" d="M399.56,79.44l-5.04-3.29l-1.79,2.73l5.04,3.3L399.56,79.44L399.56,79.44z"/><path class="st7" d="M421.84,91.29l-7.4,11.32l3.77,2.47l7.4-11.32L421.84,91.29z"/><path class="st7" d="M418.05,88.82l-11.32-7.4l-2.46,3.77l11.32,7.4L418.05,88.82z"/><path class="st7" d="M398.2,102.75l7.39-11.32l-3.77-2.47l-7.39,11.32L398.2,102.75L398.2,102.75z"/><path class="st7" d="M394.43,100.29l18.85,12.32l2.46-3.77L396.9,96.52L394.43,100.29z"/><path class="st7" d="M406.91,97.66l11.32,7.4l2.47-3.77l-11.32-7.4L406.91,97.66z"/><path class="st15" d="M278.61,283.72c0.9-1.46,0.46-3.36-1-4.27l-17-10.55c-1.46-0.91-3.36-0.46-4.26,1c-0.9,1.46-0.46,3.36,1,4.27
	l17,10.55C275.8,285.62,277.71,285.18,278.61,283.72z"/><path class="st15" d="M273.96,288.19c0.9-1.46,0.46-3.36-1-4.27l-14.64-9.09c-1.46-0.9-3.36-0.46-4.26,1c-0.9,1.46-0.46,3.36,1,4.27
	l14.64,9.08C271.15,290.08,273.06,289.63,273.96,288.19z"/><path class="st15" d="M267.45,291.44c0.9-1.46,0.46-3.36-1-4.27l-10.29-6.39c-1.46-0.9-3.36-0.46-4.26,1c-0.9,1.46-0.46,3.36,1,4.27
	l10.29,6.39C264.64,293.35,266.55,292.9,267.45,291.44z"/><path class="st15" d="M262.87,295.92c0.9-1.46,0.46-3.36-1-4.27l-7.71-4.79c-1.46-0.9-3.36-0.46-4.26,1c-0.9,1.46-0.46,3.36,1,4.27
	l7.71,4.79C260.05,297.81,261.97,297.36,262.87,295.92z"/><path class="st26" d="M403.97,114.05l-10.91,3.26c-1.95,0.58-3.06,2.64-2.47,4.59c0.58,1.95,2.64,3.06,4.58,2.48l10.91-3.26
	c1.95-0.58,3.06-2.64,2.48-4.59C407.97,114.57,405.92,113.47,403.97,114.05z"/><path class="st26" d="M393.03,117.29l10.96-3.28c1.93-0.58,3.97,0.52,4.55,2.46v0.05c0.59,1.93-0.5,3.97-2.45,4.55l-10.96,3.28"/><path class="st26" d="M391.58,124.6c0,0,11.32-0.28,12.79,12.05L391.58,124.6z"/></svg>