<?xml version="1.0" encoding="utf-8"?><!--Generator: Adobe Illustrator 27.8.0, SVG Export Plug-In . SVG Version: 6.00 Build 0)--><svg version="1.1" id="Ebene_1" xmlns="http://www.w3.org/2000/svg" xmlns:xlink="http://www.w3.org/1999/xlink" x="0px" y="0px" viewBox="0 0 1200 840" style="enable-background:new 0 0 1200 840;" xml:space="preserve"><style type="text/css">.st0{fill:#BEDEF5;}
	.st1{fill-rule:evenodd;clip-rule:evenodd;fill:#463EC5;}
	.st2{fill:#84CED4;}
	.st3{fill:#9F5621;}
	.st4{fill:#232144;}
	.st5{fill:#D8CBC5;}
	.st6{fill:#291028;}
	.st7{fill:#FFFFFF;}
	.st8{fill:#161615;}
	.st9{fill:#E73245;}
	.st10{fill:#8F411F;}
	.st11{fill:#E4E2DA;}
	.st12{fill:#88172B;}
	.st13{fill:#F5B091;}
	.st14{fill:#FF976B;}
	.st15{fill:#797878;}
	.st16{fill:#7D441C;}
	.st17{fill:#738EC1;}
	.st18{fill:#171111;}
	.st19{fill:#463EC5;}
	.st20{fill:#3F1312;}</style><path class="st0" d="M1024.64,826c-16.06-220.44-200.03-394.29-424.63-394.29c-224.6,0-408.58,173.86-424.63,394.29H1024.64z"/><path class="st1" d="M708.04,209.85c43.77,26.15,90.08,52.3,138.96,78.09c78.88,41.61,155.09,77.32,227.41,108.05l-0.81,1.9
	c-72.37-30.75-148.62-66.48-227.56-108.12c-48.91-25.8-95.25-51.97-139.05-78.14L708.04,209.85z"/><path class="st1" d="M507,228.84c5.41-5.46,9.87-9.89,12.71-12.71l1.46,1.47c-2.84,2.81-7.29,7.24-12.7,12.69l0,0
	C431,308.38,375.15,376.61,333.48,427.52c-6.01,7.34-11.72,14.32-17.16,20.91c-21.58,26.16-38.92,46.37-53.37,59.14
	c-7.23,6.39-13.79,10.96-19.84,13.49c-6.08,2.53-11.71,3.01-16.98,1.12l0,0c-8.07-2.9-17.98-12.27-22.74-43.79l2.05-0.31
	c4.72,31.25,14.41,39.65,21.4,42.15c4.67,1.68,9.75,1.3,15.49-1.08c5.76-2.4,12.12-6.81,19.27-13.13
	c14.31-12.64,31.54-32.72,53.14-58.9c5.44-6.59,11.15-13.57,17.15-20.9C373.55,375.3,429.46,307,507,228.84z"/><path class="st2" d="M867.5,596.9c2.68,7.29,0.17,15.48-6.17,19.94l-44.6,31.45l-1.95,1.54l-28.94,25.13
	c-6.24,5.43-7.7,14.59-3.41,21.73l4.54,7.53c5.11,8.52,16.46,10.86,24.57,5.11c0,0,44.03-46.69,63.49-45.39
	c9.08,0.65,21.08,20.02,21.9,29.02c0.32,3.56-5.27,10.53-3.49,13.94c2.27,4.3,12.73,4.62,15.41,1.86c2.59-2.67,4.14-8.51,5.19-15
	c1.54-10.46,14.19-14.75,21.73-7.38l21.65,21.4c3.97,3.97,9.24,6.41,14.76,6.89l29.68,2.76c-22.79-65.58-61.05-123.78-110.6-170.39
	c-3.65-0.17-7.38,0.73-10.62,2.84l-13.38,9c-6.57,4.38-9.24,12.73-6.49,20.1l6.65,17.75L867.5,596.9L867.5,596.9z"/><path class="st2" d="M813.42,599.66c0.81,5.52-11.11,16.13-7.95,20.75c3.89,5.67,21.16,2.43,27.65,0
	c4.14-1.54,12.41-7.46,13.38-11.84c2.68-12.48-17.59-38.59-30.08-41.26c-5.59-1.14-18.65,5.92-19.7,11.51
	C795.5,585.39,812.45,593.02,813.42,599.66z"/><path class="st2" d="M785.53,616.36c6.65-0.97,21.41-10.78,20.43-17.43c-0.81-5.52-15.08-10.62-20.43-9
	c-5.92,1.7-15.57,14.67-13.79,20.51C772.88,614.01,781.8,616.93,785.53,616.36z"/><path class="st3" d="M960.22,539.68c-5.9-1.77-11.83-3.54-17.71-5.31c-2.44,6.23-4.88,12.44-7.33,18.66l19.43,1.39
	c1.88-4.92,3.74-9.83,5.62-14.74H960.22z"/><path class="st4" d="M912.54,568.87l43.48-0.01l0.01-0.19l0.12,0.01l0.14-17.26l-21.19,0.16l-2.53,2.63l-15.62,4.21
	c-2.62,0.71-4.43,3.08-4.42,5.8L912.54,568.87L912.54,568.87z"/><path class="st5" d="M990.57,490.18l-41.65,16.46c-4.74,9.57-9.46,19.14-14.2,28.71c9.26,2.84,18.51,5.66,27.76,8.5l30.74-50.38
	l-2.67-3.3H990.57L990.57,490.18z"/><path class="st3" d="M1127.17,453.5l-14.07,11.73c-3.78,3.15-9.39,2.63-12.53-1.15l-2.12-2.53c-3.17-3.79-2.64-9.41,1.16-12.56
	l10.2-8.43L1127.17,453.5L1127.17,453.5z"/><path class="st3" d="M1139.72,454.8l-4.84,2.08c-9.9,4.25-21.39-0.34-25.65-10.24l-1.9-4.42c-2.3-5.39,0.19-11.62,5.57-13.94
	l16.8-7.2c1.98-0.86,4.06-1.26,6.09-1.26c5.97,0,11.67,3.5,14.18,9.35C1154.22,439.06,1149.64,450.55,1139.72,454.8L1139.72,454.8z"/><path class="st3" d="M1116.8,422.86c1.52-0.65,5.99,1.2,5.99,1.2l-6.84,3.63C1115.95,427.69,1115.29,423.51,1116.8,422.86
	L1116.8,422.86z"/><path class="st6" d="M1147.17,421.94l9.13,21.23c2.63,6.03-1,12.9-7.38,14.21l-0.06,0.01c-0.11,0.02-0.21,0.04-0.31,0.06v-0.02
	l-30.77,3.96c0,0,1.28-7.41,2.04-12.28c1.35-8.64,4.08-9.98,13.43-13.6c2.95-1.14,4.27-2.63,4.79-3.42l2.67-9.83
	C1141.66,419.22,1145.9,419.01,1147.17,421.94z"/><path class="st3" d="M1130.11,445.02c2.43-0.49,4-2.86,3.5-5.29c-0.49-2.43-2.86-4-5.29-3.5c-2.43,0.49-4,2.86-3.51,5.29
	C1125.31,443.95,1127.68,445.52,1130.11,445.02z"/><path class="st7" d="M1127.28,429.73c0,0-2.5,0.22-4.19-2.2c-0.39-0.56,0.24-1.37,1.03-1.84c0.71-0.43,1.55-0.6,1.89-0.1
	c0.14,0.2,0.26,0.46,0.38,0.76c0.53,1.34,0.9,3.38,0.9,3.38H1127.28z"/><path class="st8" d="M1125.75,426.9c-0.81,0.52-1.7,0.57-1.99,0.1c-0.21-0.34-0.06-0.85,0.36-1.31c0.7-0.43,1.54-0.6,1.89-0.1
	c0.14,0.2,0.26,0.45,0.38,0.76c-0.17,0.2-0.38,0.39-0.63,0.55H1125.75z"/><path class="st8" d="M1125.2,425.27l1.06-0.04c0,0,1.53,1.75,2.06,4.61l-1.1-0.12c0,0-0.37-2.12-1.9-4.38l-0.13-0.08H1125.2z"/><path class="st6" d="M1132.81,424.57l0.07,0.11c0.71,1.15,0.63,2.72-0.2,4.21l-3.67-5.99
	C1130.69,422.8,1132.1,423.41,1132.81,424.57z"/><path class="st6" d="M1113.97,427.82c0.53-0.22,1.14,0.03,1.37,0.57l2.47,4.46c0.13-0.08-4.84-0.65-6.42-3.7
	c-0.03-0.06-0.06-0.12-0.09-0.19C1111.28,428.91,1113.97,427.82,1113.97,427.82L1113.97,427.82z"/><path class="st9" d="M1140.86,426.42l43.14,21.54l-1.09,2.05L1140.86,426.42z"/><path class="st9" d="M1154.59,462.78l14.42-46l2.2,0.74L1154.59,462.78z"/><path class="st6" d="M1166.39,451.76c-1.3,0.54-2.67,0.8-4,0.8c-4.14,0-8.05-2.44-9.74-6.5l-3.81-9.18
	c-2.21-5.36,0.34-11.51,5.7-13.74c1.32-0.55,2.69-0.8,4.02-0.8c4.14,0,8.07,2.44,9.74,6.49l3.8,9.16c2.22,5.37-0.33,11.53-5.7,13.75
	L1166.39,451.76z"/><path class="st10" d="M1085.61,432.13l-11.72,29.06l23.46,28.14l-18.8,16.11l-24.37-35.88c-2.53-3.66-2.61-8.49-0.31-12.27
	l19.6-31.96l6.46-11.86l6.69-11.89c0.59-1.08,1.92-1.47,3-0.87l0.28,0.17c0.63,0.4,1,1.04,1.12,1.71l0.84-1.38
	c0.74-1.22,2.3-1.56,3.47-0.84c0.7,0.45,1.05,1.23,1.04,2.01l0.97-1.59c0.68-1.1,2.15-1.45,3.25-0.77c1.09,0.7,1.45,2.16,0.76,3.27
	l-0.4,0.63c0.25-0.1,0.53-0.15,0.78-0.15c0.4,0,0.79,0.11,1.14,0.34c1.22,0.73,1.57,2.28,0.85,3.47l-8.86,14.27l-9.26,10.29
	L1085.61,432.13z"/><path class="st0" d="M1152.82,464.56c-3.61-4.43-10.13-5.12-14.56-1.51l-93.63,75.99l-51.45-63.33c-3.34-4.12-9.39-4.74-13.51-1.41
	c-4.12,3.34-4.75,9.38-1.41,13.51l27.04,33.29l-55.22,44.81l-33.57-15.09c-0.11-1.74-0.68-3.5-1.88-4.98
	c-2.96-3.65-8.31-4.2-11.95-1.23c-3.66,2.96-4.2,8.3-1.24,11.95c2.96,3.65,8.3,4.2,11.96,1.23c0.21-0.17,0.41-0.34,0.59-0.53
	l31.19,16.51l10.97,37.09c-3.46,2.98-3.94,8.21-1.05,11.78c2.9,3.57,8.3,4.2,11.96,1.24c3.66-2.96,4.2-8.3,1.23-11.95
	c-1.48-1.81-3.51-2.86-5.69-3.08l-8.52-37.31l55.52-45.07l27.04,33.29c3.17,3.92,8.82,4.69,12.89,1.85l0.04,0.03l101.71-82.55
	c4.44-3.56,5.14-10.1,1.54-14.53v0.03L1152.82,464.56z"/><path class="st3" d="M900.18,500.67c-6.92,2.84-14.59,6.36-21.5,9.2c4.32,5.98,9.21,11.4,15.57,14.38c4.59-2.2,9.57-4.73,14.15-6.94
	c-2.74-5.54-5.5-11.09-8.25-16.64H900.18L900.18,500.67z"/><path class="st4" d="M882.23,537.28l12.03-13.03l-15.57-14.38l-3.85,0.43l-18.83-5.92c-2.74-0.86-5.7,0.36-7.03,2.91l-1.81,3.45
	l34.2,27.58L882.23,537.28z"/><path class="st11" d="M1018.78,524.91l-28.2-34.73l-82.92,32.81l-13.25-26.05l100.03-40.84c6.15-1.56,10.55-1.98,14.79,1.28
	l29.71,28.37l26.74,32.95l-12.03,9.77C1042.99,537.09,1027.39,535.51,1018.78,524.91L1018.78,524.91z"/><path class="st12" d="M1103.59,445.84c0,0-9.41-1.69-28.29,10.62l-36.26,29.42l26.61,32.76l48.18-39.1c0,0,7.1-6.12,4.48-16.8
	l1.82-1.48l-12-14.77v0.03v0.01v-0.03"/><path class="st3" d="M1084.01,458.55l-35.52,8.9l-21.09-23.16l-0.29-17.64c-0.04-1.37-1.15-2.48-2.57-2.45
	c-1.38,0.05-2.47,1.14-2.46,2.56l0.08,4.77l-9.04-14.2c-0.77-1.16-2.28-1.54-3.48-0.74c-0.6,0.37-0.95,0.99-0.99,1.65l-0.41-0.63
	c-0.68-1.1-2.15-1.42-3.26-0.73c-1.11,0.69-1.43,2.15-0.73,3.27l1,1.54c-0.68-0.35-1.54-0.38-2.25,0.06
	c-1.16,0.77-1.54,2.29-0.76,3.48l0.88,1.37c-0.64-0.2-1.39-0.14-2.01,0.26l-0.29,0.19c-1,0.72-1.22,2.08-0.53,3.08l7.82,11.19
	l7.88,10.96l20.26,31.53c2.42,3.72,6.79,5.74,11.19,5.07l42.91-6.36l-6.35-23.93h0.01V458.55z"/><path class="st9" d="M1108.45,454.89c7.9,5.65,8.37,17.51,0.6,23.39c-1.24,0.92-2.66,1.7-4.19,2.2l-14.09,3.97l-7.52-28.57
	l14.47-3.12c3.6-0.78,7.43-0.15,10.45,1.95c0.14,0.05,0.2,0.1,0.27,0.17L1108.45,454.89L1108.45,454.89z"/><path class="st4" d="M1114.63,399.99l-11.01,26.43c-1.79-0.74-2.56-1.46-3.32-2.14c-0.5-0.46-0.98-0.88-1.77-1.34
	c-0.35-0.21-0.77-0.41-1.27-0.62c-0.51-0.21-0.96-0.36-1.34-0.47c-0.88-0.24-1.53-0.28-2.2-0.31c-0.73-0.04-1.48-0.07-2.52-0.37
	c-0.39-0.11-0.84-0.27-1.34-0.48c-0.49-0.21-0.91-0.41-1.27-0.61c-0.95-0.52-1.51-1.03-2.04-1.52c-0.5-0.45-0.98-0.89-1.78-1.34
	c-0.35-0.21-0.77-0.41-1.27-0.62c-0.51-0.21-0.95-0.36-1.34-0.47c-0.88-0.24-1.52-0.27-2.19-0.31c-0.73-0.04-1.49-0.08-2.53-0.38
	c-0.4-0.11-0.83-0.26-1.34-0.47c-0.5-0.21-0.92-0.41-1.29-0.62c-0.93-0.52-1.49-1.03-2.03-1.52c-0.5-0.45-0.98-0.89-1.77-1.35
	c-0.35-0.21-0.77-0.41-1.28-0.62c-0.5-0.21-0.94-0.36-1.34-0.47c-0.88-0.24-1.52-0.28-2.2-0.31c-1.01-0.06-2.05-0.1-3.86-0.85
	l11.02-26.43c1.79,0.74,2.56,1.45,3.32,2.14c0.5,0.46,0.97,0.88,1.77,1.34c0.35,0.21,0.77,0.41,1.27,0.62
	c0.5,0.21,0.95,0.37,1.34,0.47c0.88,0.24,1.52,0.28,2.2,0.31c0.73,0.04,1.48,0.08,2.52,0.37c0.4,0.11,0.83,0.26,1.33,0.47
	c0.51,0.21,0.93,0.41,1.29,0.62c0.94,0.52,1.5,1.03,2.04,1.52c0.49,0.45,0.98,0.9,1.78,1.35c0.34,0.21,0.76,0.41,1.27,0.62
	s0.95,0.37,1.35,0.47c0.87,0.24,1.51,0.27,2.18,0.3c0.74,0.04,1.49,0.08,2.54,0.39c0.4,0.11,0.83,0.26,1.32,0.47
	s0.93,0.42,1.29,0.63c0.94,0.52,1.49,1.02,2.03,1.51c0.49,0.45,0.98,0.9,1.78,1.34c0.35,0.21,0.77,0.41,1.27,0.62
	c0.51,0.21,0.95,0.37,1.35,0.47c0.87,0.24,1.52,0.28,2.19,0.31c1.01,0.05,2.05,0.1,3.86,0.85L1114.63,399.99z"/><path class="st5" d="M1071.02,411.48c-0.35-0.21-0.78-0.41-1.28-0.62s-0.94-0.37-1.34-0.47l10.04-24.12
	c0.35,0.21,0.77,0.41,1.27,0.62c0.51,0.21,0.95,0.36,1.34,0.47L1071.02,411.48z"/><path class="st5" d="M1088.39,389.15l-10.95,26.29c-0.4-0.11-0.83-0.26-1.33-0.47c-0.51-0.21-0.93-0.41-1.29-0.62l10.95-26.29
	c0.39,0.11,0.83,0.26,1.33,0.47C1087.6,388.74,1088.02,388.94,1088.39,389.15z"/><path class="st5" d="M1108.58,398.83l-10.04,24.11c-0.35-0.21-0.77-0.41-1.28-0.62c-0.5-0.21-0.95-0.37-1.33-0.47l10.04-24.11
	c0.35,0.21,0.77,0.41,1.27,0.62c0.51,0.21,0.95,0.36,1.35,0.47H1108.58z"/><path class="st5" d="M1102.15,394.89l-10.95,26.28c-0.39-0.11-0.84-0.27-1.34-0.48c-0.49-0.21-0.91-0.41-1.27-0.61l10.95-26.29
	c0.39,0.11,0.83,0.26,1.31,0.47c0.49,0.21,0.94,0.42,1.29,0.63H1102.15z"/><path class="st5" d="M1094.82,393.1l-10.04,24.11c-0.35-0.21-0.77-0.41-1.27-0.62c-0.51-0.21-0.95-0.37-1.34-0.47l10.04-24.11
	c0.34,0.21,0.76,0.41,1.27,0.62c0.52,0.21,0.95,0.37,1.35,0.47H1094.82z"/><path class="st10" d="M1101.39,424.19l-15.78,7.94l9.26-10.29l4.24-2.12c1.27-0.64,2.73-0.12,3.38,1.1
	C1103.13,422.08,1102.61,423.54,1101.39,424.19L1101.39,424.19z"/><path class="st13" d="M204.12,468.27l-13.43,2.37l-13.32,2.17l-43.43,9.85c-6.35,1.45-12.57-3.01-13.2-9.46
	c-0.49-4.85,2.3-9.22,6.49-11.03c1.16-0.5,2.43-0.81,3.76-0.88l43.87-2.19l1.48,2.16l11.41-7.39l16.69-3.71
	c1.21-0.25,2.39,0.49,2.63,1.67l0.08,0.3c0.16,0.67-0.06,1.37-0.46,1.86l0.85-0.21c1.21-0.25,2.39,0.48,2.63,1.68l0.08,0.3
	c0.25,1.19-0.49,2.39-1.68,2.63l-1.95,0.41c0.74,0.23,1.35,0.82,1.53,1.61l0.08,0.3c0.23,1.19-0.49,2.39-1.7,2.63l-1.89,0.41
	c0.62,0.32,1.08,0.86,1.21,1.6l0.05,0.32c0.2,1.2-0.62,2.35-1.81,2.55h0.01V468.27z"/><path class="st0" d="M213.86,641.15c1.33-1.92,3.28-3.11,5.44-3.5l5.64-37.86l-58.89-40.73l-20.49,29.61
	c-3.75,5.42-11.15,6.76-16.57,3.01l-98.01-67.8c-5.42-3.75-6.77-11.14-3.01-16.56l44.58-64.41c3.75-5.42,11.14-6.76,16.57-3.01
	l98.04,67.82c5.42,3.75,6.77,11.14,3.01,16.56l-20.12,29.07l58.48,40.46l32.3-17.58c-0.03-1.74,0.41-3.54,1.48-5.11
	c2.68-3.86,7.97-4.83,11.83-2.15c3.85,2.67,4.83,7.96,2.15,11.82c-2.68,3.85-7.96,4.83-11.83,2.15c-0.23-0.16-0.44-0.3-0.63-0.49
	l-29.85,18.85l-8.1,37.83c3.68,2.7,4.55,7.88,1.95,11.66c-2.68,3.85-7.97,4.83-11.83,2.15c-3.86-2.67-4.83-7.96-2.15-11.82
	L213.86,641.15L213.86,641.15z"/><path class="st4" d="M85.67,494.43l50.96,35.24l-3.63,5.24l-50.96-35.24c0,0-16.52,8.32-27.73,0.57l2.62-7.28L69.5,474.8l6.01-5.43
	c11.17,7.72,10.17,25.05,10.17,25.05L85.67,494.43L85.67,494.43z"/><path class="st14" d="M60.49,496.11l-14.57-10.07l12.97-18.58l14.49,10.02c3.79,2.61,4.72,7.8,2.11,11.58l-3.41,4.91
	C69.49,497.78,64.27,498.74,60.49,496.11L60.49,496.11z"/><path class="st13" d="M34.81,488.52c-2.07-1.44-2.6-4.26-1.19-6.36l-8.63-5.97c-5.57-3.85-6.95-11.49-3.1-17.06l3.3-4.77
	c3.85-5.57,11.49-6.95,17.05-3.1l8.63,5.97c1.47-2.05,4.31-2.56,6.38-1.12c2.07,1.44,2.6,4.26,1.19,6.36l1.05,0.73
	c5.57,3.85,6.95,11.49,3.1,17.05l-3.3,4.77c-3.85,5.57-11.49,6.95-17.06,3.1l-1.05-0.73C39.72,489.44,36.88,489.95,34.81,488.52
	L34.81,488.52z"/><path class="st15" d="M39.7,471.4c-4.39,0.35-7.58,3.8-5.99,8.28L39.7,471.4z"/><path class="st15" d="M39.73,465.01c-0.14-4.4,2.94-7.91,7.56-6.88L39.73,465.01z"/><path d="M50.4,475.31c0.39-0.59,0.44-1.26,0.46-1.83c0.06-0.93,0.07-1.51,1.43-1.75l-0.16-0.86c-2.08,0.38-2.13,1.59-2.19,2.63
	c-0.03,0.52-0.04,0.99-0.29,1.35c-0.26,0.36-0.66,0.57-1.1,0.74c-0.85,0.38-1.94,0.87-1.77,3.03l0.9-0.07
	c-0.14-1.5,0.41-1.76,1.24-2.11C49.41,476.13,50.01,475.89,50.4,475.31z"/><path class="st15" d="M18.67,471.86l31.85,22.02c6.34,4.38,15.02,2.8,19.41-3.54l1.41-2.04c4.39-6.34,2.8-15.02-3.54-19.4
	l-31.85-22.02c-2.81-1.93-6.69-1.23-8.62,1.57L17.1,463.22c-1.93,2.81-1.25,6.62,1.57,8.62V471.86L18.67,471.86z M25.92,474.83
	l12.77-18.45l-4.48-3.1l0.9-1.3l4.48,3.1l1.71-2.47l17.4,12.03l-15.39,22.23l-17.4-12.03H25.92z"/><path class="st7" d="M49.63,465.08c-0.74,1.71-2.04,2.79-2.87,2.43c-0.83-0.36-0.96-2.05-0.21-3.74c0.01-0.03,0.03-0.08,0.05-0.1
	c0.48-1.04,1.17-1.85,1.81-2.2c0.37-0.21,0.72-0.26,1.01-0.12C50.29,461.73,50.37,463.4,49.63,465.08L49.63,465.08z"/><path class="st7" d="M40.74,477.93c-1.32,1.3-2.92,1.81-3.57,1.13c-0.63-0.64-0.08-2.18,1.2-3.47c0.01-0.03,0.03-0.04,0.06-0.08
	c0.78-0.76,1.66-1.24,2.39-1.36c0.5-0.11,0.93-0.04,1.19,0.23C42.63,475.05,42.07,476.64,40.74,477.93z"/><path class="st9" d="M175.03,480.13l-43.21,3.8c-0.37,0.03-0.75,0.04-1.13,0.05c-1.83,0.47-3.77,0.62-5.71,0.42l-24.27-2.74
	l-5.01-27.65l22.65,2.37c3.31,0.34,6.62,0.59,9.95,0.72c5.23,0.22,10.47,0.18,15.7-0.12l30.3-1.72L175.03,480.13L175.03,480.13z"/><path class="st9" d="M164.73,506.72l-19.85,28.66l-59.21-40.95c0,0,1.06-17.3-10.19-25.08l12.61-12.4l24.52,13.72L164.73,506.72
	L164.73,506.72z"/><path class="st11" d="M184.38,649.18l-4.08-7.34l-1.03,1.1c-4.48,4.7-10.82,7.3-17.28,7.14l-0.78-0.05l-14.83,14.81
	c-1.58,1.59-1.95,3.98-0.9,5.83l38.89-21.51L184.38,649.18L184.38,649.18z"/><path class="st4" d="M184.34,649.21l-38.88,21.53l3.17,5.73l38.88-21.53L184.34,649.21z"/><path class="st14" d="M179.26,642.95c-4.48,4.7-10.83,7.3-17.28,7.14h-0.21l-5.21-8.65l19.65-9.01l4.04,9.47L179.26,642.95
	L179.26,642.95z"/><path class="st4" d="M267.38,583.69l-18.76,25.8l4.11,2.99l18.76-25.8L267.38,583.69z"/><path class="st14" d="M248.41,590.31c-2.91,4.22-3.98,9.03-3.28,13.07l-16.9-7.16l13.79-19.93l15.04,7.06
	C253.8,584.54,250.75,586.94,248.41,590.31L248.41,590.31z"/><path class="st11" d="M267.37,583.69c-5.45-3.95-14.03-1.39-19.21,5.72c-5.19,7.12-4.96,16.09,0.48,20.04"/><path class="st9" d="M106.66,562.76c7.23-9.55,14.46-19.11,21.69-28.65c-5.26-3.23-10.53-6.46-15.79-9.7l1.67-2.61L82,499.65
	c0,0-16.52,8.31-27.73,0.57l-7.06,16.1c-0.23,0.47-1.18,2.49-1.26,5.48c-0.08,2.99,0.68,6.9,3.86,11.14
	c11.76,10.62,23.51,21.25,35.25,31.87c6.39,5.78,16.37,4.85,21.56-2.03L106.66,562.76z"/><path class="st5" d="M111.33,549.51l28.26-40.84c4.39-6.35,12.81-8.53,19.71-5.05c3.12,1.57,5.24,2.9,5.24,2.9
	c3.04,2.21,5.46,5.02,7.21,8.1c0.66,1.15,1.12,2.44,1.45,3.74c1.04,4.16,2.67,14.49-2.56,22.05l-14.92-6.66
	c-7.83-3.48-17-0.41-21.17,7.09c-4.76,8.6-0.96,19.46,8.14,23.22l1.51,0.62l34.7,66.5l-25.12,11.56
	c-14.41-25.61-28.81-51.22-43.21-76.83c-2.91-5.17-2.61-11.55,0.76-16.43V549.51z"/><path class="st11" d="M142.66,564.09l83.82,34.57l17.63-25.47l-88.45-39.39c-7.83-3.47-17-0.41-21.17,7.09
	c-4.7,8.58-0.91,19.44,8.17,23.19L142.66,564.09L142.66,564.09z"/><path class="st13" d="M116.65,519.19L98.71,538.9l12.31,10.99l15.85-23.04l10.08-8.15l8.07-1.21c1.44-0.19,2.39-1.52,2.19-2.94
	c-0.19-1.44-1.52-2.39-2.94-2.19c1.44,0.42,2.9,0.85,4.34,1.27c1.45-0.01,2.61-1.17,2.63-2.59c-0.03-0.03,0-0.09,0-0.09
	c0.85-0.32,1.52-1.08,1.68-2.01c0.22-1.43-0.76-2.75-2.17-2.97l-11.33-1.74l-15.28,5.12l-7.47,9.85H116.65L116.65,519.19z"/><path class="st9" d="M109.5,552.13l13.96-20.18l-14.35-9.93L95.14,542.2L109.5,552.13z"/><path d="M49.85,463.17c-0.02,0.92-0.79,1.66-1.7,1.64c-0.72-0.02-1.33-0.49-1.54-1.14c0.48-1.04,1.17-1.85,1.81-2.2
	C49.24,461.58,49.88,462.3,49.85,463.17L49.85,463.17z"/><path d="M41.72,475.68c-0.02,0.92-0.81,1.65-1.72,1.62c-0.91-0.03-1.66-0.79-1.63-1.7c0.01-0.03,0.03-0.04,0.06-0.08
	c0.78-0.76,1.66-1.24,2.39-1.36C41.36,474.44,41.74,475.01,41.72,475.68L41.72,475.68z"/><path class="st4" d="M185.78,439.55l28.44-3.37c0.23,1.93-0.01,2.95-0.23,3.94c-0.15,0.65-0.3,1.28-0.3,2.19
	c-0.01,0.41,0.02,0.88,0.08,1.41c0.06,0.55,0.15,1.01,0.25,1.39c0.22,0.89,0.5,1.46,0.81,2.08c0.32,0.65,0.66,1.32,0.91,2.37
	c0.1,0.4,0.18,0.86,0.24,1.4s0.09,1,0.09,1.41c0,1.08-0.17,1.81-0.32,2.53c-0.15,0.65-0.3,1.29-0.3,2.2
	c-0.01,0.41,0.02,0.88,0.08,1.41c0.06,0.54,0.15,1,0.25,1.39c0.22,0.89,0.5,1.46,0.81,2.06c0.32,0.65,0.66,1.34,0.91,2.39
	c0.1,0.4,0.18,0.86,0.24,1.39c0.06,0.54,0.09,1.01,0.09,1.43c0,1.07-0.17,1.81-0.33,2.52c-0.15,0.65-0.3,1.29-0.3,2.21
	c-0.01,0.4,0.02,0.88,0.08,1.41c0.06,0.54,0.14,1,0.25,1.39c0.22,0.89,0.5,1.46,0.81,2.07c0.45,0.91,0.92,1.84,1.15,3.78
	l-28.44,3.37c-0.23-1.93,0.01-2.95,0.24-3.94c0.15-0.65,0.3-1.28,0.3-2.19c0.01-0.41-0.02-0.88-0.08-1.41
	c-0.06-0.54-0.14-1-0.25-1.39c-0.22-0.89-0.5-1.46-0.81-2.07c-0.32-0.65-0.66-1.33-0.91-2.39c-0.1-0.4-0.18-0.85-0.24-1.39
	c-0.06-0.55-0.09-1.01-0.09-1.43c0-1.08,0.17-1.81,0.33-2.52c0.15-0.65,0.3-1.29,0.3-2.21c0.01-0.4-0.01-0.86-0.08-1.41
	c-0.07-0.55-0.14-1.01-0.25-1.41c-0.22-0.88-0.5-1.45-0.81-2.05c-0.32-0.66-0.66-1.34-0.91-2.4c-0.1-0.4-0.18-0.85-0.24-1.38
	c-0.06-0.54-0.09-1.01-0.08-1.43c-0.01-1.08,0.16-1.8,0.32-2.51c0.15-0.65,0.3-1.29,0.3-2.21c0.01-0.41-0.02-0.88-0.08-1.41
	s-0.15-1.01-0.26-1.41c-0.22-0.88-0.5-1.46-0.81-2.06c-0.45-0.9-0.92-1.84-1.15-3.78L185.78,439.55z"/><path class="st5" d="M217.2,471.92c-0.01,0.4,0.02,0.88,0.08,1.41c0.06,0.54,0.14,1,0.25,1.39l-25.94,3.09
	c0.01-0.41-0.02-0.88-0.08-1.41c-0.06-0.54-0.15-1-0.25-1.39L217.2,471.92z"/><path class="st5" d="M189.21,467.74l28.29-3.36c0.1,0.4,0.18,0.86,0.24,1.39c0.06,0.54,0.09,1.01,0.09,1.43l-28.29,3.36
	c-0.1-0.4-0.18-0.86-0.24-1.39C189.24,468.63,189.21,468.17,189.21,467.74z"/><path class="st5" d="M187.74,445.4l25.95-3.07c-0.01,0.41,0.02,0.88,0.08,1.41c0.06,0.54,0.14,1.01,0.25,1.39l-25.94,3.07
	c0.01-0.41-0.02-0.88-0.08-1.41C187.93,446.27,187.85,445.79,187.74,445.4L187.74,445.4z"/><path class="st5" d="M187.46,452.93l28.28-3.36c0.1,0.4,0.18,0.86,0.24,1.4c0.06,0.54,0.09,1,0.09,1.41l-28.29,3.36
	c-0.1-0.4-0.18-0.85-0.24-1.38C187.48,453.82,187.45,453.36,187.46,452.93L187.46,452.93z"/><path class="st5" d="M189.5,460.2l25.95-3.07c-0.01,0.41,0.02,0.88,0.08,1.41c0.06,0.54,0.15,1,0.25,1.39l-25.94,3.07
	c0.01-0.4-0.01-0.86-0.08-1.41C189.68,461.05,189.6,460.6,189.5,460.2L189.5,460.2z"/><path class="st13" d="M174.87,459.09h0.03l0.84-0.8l12.03-11.52c1-0.74,2.49-0.73,3.37,0.21l0.21,0.23c0.87,0.94,0.85,2.4-0.06,3.26
	l-3.53,3.41l-11.41,7.39L174.87,459.09L174.87,459.09z"/><path class="st9" d="M94.93,472.76c5.19,0,9.39-4.2,9.39-9.39s-4.21-9.39-9.39-9.39c-5.19,0-9.39,4.2-9.39,9.39
	S89.74,472.76,94.93,472.76z"/><path class="st0" d="M654.7,418.42c-2.35-0.06-4.44,0.81-6.05,2.32l-33.88-17.83l1.94-71.56l36.1,0.98
	c6.59,0.19,12.04-4.99,12.23-11.57l3.22-119.11c0.19-6.59-4.99-12.04-11.57-12.22l-78.32-2.12c-6.59-0.19-12.04,4.99-12.23,11.57
	l-3.22,119.15c-0.19,6.59,4.99,12.04,11.57,12.22l35.26,0.96l-1.92,71.07l-33.32,15.66c-1.39-1.05-3.1-1.77-4.99-1.82
	c-4.69-0.12-8.59,3.57-8.73,8.26c-0.12,4.69,3.57,8.59,8.26,8.73c4.69,0.12,8.59-3.57,8.73-8.25c0-0.26,0-0.54-0.01-0.79
	l32.86-12.93l35.3,15.82c0,4.56,3.66,8.34,8.28,8.45c4.68,0.12,8.59-3.57,8.73-8.26C663.05,422.45,659.4,418.55,654.7,418.42
	L654.7,418.42L654.7,418.42z"/><path class="st16" d="M565.14,361.27l-22.23-11.26l-16.24,33.68l17.34,9.19L565.14,361.27L565.14,361.27z"/><path class="st4" d="M504.16,371.47l-3.19,6.02l40.91,21.65l3.19-6.02L504.16,371.47L504.16,371.47z"/><path class="st5" d="M545.06,393.09l4.1-7.72l-1.59-0.3c-6.65-1.23-12.57-5.25-16.09-11.02l-0.43-0.67l-21.36-4.52
	c-2.29-0.45-4.58,0.54-5.6,2.55l40.94,21.69h0.01V393.09z"/><path class="st17" d="M672.78,255.94c1.79,7.16,0.52,14.86-3.97,20.72c-3.56,4.67-9.16,8.59-17.92,9.09
	c-3.3,0.2-6.23,0.34-8.82,0.45l-2.9-7.85l-46.05-1.23l-0.79,1.26c-3.42,5.58-9.41,8.7-15.57,8.7c-2.77,0-5.59-0.63-8.21-1.95
	c-7.68-3.88-11.61-12.53-9.52-20.84l10.66-42.2c1.3-7,7.3-12.47,14.74-12.84c0.21-0.03,0.44-0.03,0.67-0.03c0.21,0,0.43,0,0.65,0.01
	l16.46,0.44l0.23-8.76l30.97,0.84l-0.23,8.76l16.58,0.46c0.4,0,0.81,0,1.21,0.07c7.41,0.77,13.1,6.55,14.01,13.66l7.81,31.21
	L672.78,255.94z"/><path class="st18" d="M618.89,202.76c18.99,0,34.39-15.4,34.39-34.38c0-18.99-15.39-34.38-34.39-34.38s-34.39,15.4-34.39,34.38
	C584.5,187.37,599.9,202.76,618.89,202.76z"/><path class="st16" d="M633.84,191.49c2.52,0,4.57-2.04,4.57-4.56c0-2.52-2.04-4.56-4.57-4.56c-2.52,0-4.57,2.04-4.57,4.56
	C629.27,189.45,631.31,191.49,633.84,191.49z"/><path class="st16" d="M602.78,190.6c2.52,0,4.57-2.04,4.57-4.56c0-2.52-2.04-4.56-4.57-4.56s-4.57,2.04-4.57,4.56
	C598.22,188.56,600.26,190.6,602.78,190.6z"/><path class="st19" d="M603.23,189.07c2.26,0.06,4.06,1.97,4,4.23l-0.1,4.07c-0.06,2.26-1.97,4.06-4.23,4
	c-2.26-0.06-4.06-1.97-4-4.23l0.1-4.07C599.06,190.8,600.97,189,603.23,189.07z"/><path class="st19" d="M633.36,189.98c2.26,0.06,4.06,1.97,4,4.23l-0.1,4.07c-0.06,2.26-1.97,4.06-4.23,4
	c-2.26-0.06-4.06-1.97-4-4.23l0.1-4.07C629.2,191.67,631.11,189.91,633.36,189.98z"/><path class="st16" d="M603.14,192.6l0.55-20.25c0.19-6.9,5.95-12.36,12.85-12.18l4.92,0.14c6.9,0.19,12.36,5.95,12.18,12.85
	l-0.55,20.25c-0.19,6.9-5.95,12.36-12.85,12.18l-4.96-0.14C608.37,205.23,602.96,199.5,603.14,192.6z"/><path d="M618.13,191.6c-0.19,0-0.35,0-0.54-0.06c-0.53-0.11-1.01-0.38-1.43-0.84c-0.21-0.23-0.48-0.32-0.74-0.34
	c-0.49,0.03-0.9,0.5-0.9,0.55l-0.48-0.37c0,0,0.59-0.69,1.35-0.77c0.44-0.03,0.84,0.15,1.18,0.48c0.35,0.36,0.73,0.59,1.17,0.7
	c0.4,0.1,0.79,0.06,1.12-0.1c0.14-0.09,0.28-0.17,0.41-0.3c0.19-0.16,0.64-0.57,1.26-0.58c0.53,0,1.01,0.24,1.52,0.7l-0.41,0.43
	c-0.38-0.37-0.73-0.55-1.1-0.57c-0.4,0-0.72,0.29-0.85,0.38c-0.19,0.17-0.37,0.35-0.58,0.43c-0.32,0.17-0.63,0.24-0.98,0.24
	L618.13,191.6z"/><path d="M621.74,185.32c0.63-3.74,5.41-5.21,8.29-3.36c-0.19,0.26-0.55,0.87-0.73,1.13c-0.66-0.41-3.94-1.83-7.08,1.71
	c-0.19,0.21-0.23,0.3-0.46,0.52H621.74L621.74,185.32z"/><path d="M614.4,185.08l-0.01,0.02c-0.19-0.19-0.23-0.29-0.35-0.45c-0.03-0.03-0.05-0.06-0.08-0.1c-0.85-1.07-1.73-1.73-2.57-2.12
	c-2.09-0.95-3.93-0.25-4.41,0.02c-0.17-0.27-0.5-0.9-0.68-1.17c2.05-1.16,4.9-0.71,6.63,0.91c0.56,0.52,0.99,1.16,1.25,1.92
	C614.27,184.42,614.35,184.74,614.4,185.08L614.4,185.08z"/><path class="st18" d="M606.21,174.48l-0.05,1.86l9.95,0.27l0.05-1.86L606.21,174.48z"/><path class="st18" d="M621.09,174.9l-0.05,1.86l9.95,0.27l0.05-1.86L621.09,174.9z"/><path class="st18" d="M635.88,171.85c0.2-7.2-5.48-13.24-12.74-13.44l-8.14-0.21c-7.21-0.2-13.25,5.52-13.45,12.74l-0.19,6.94
	l1.59,0.05l-0.26,9.69h0.74l0.26-9.66c0.49-6.41,5.85-11.35,12.26-11.17l1.99,0.06l0.11-3.71l1.77,0.05l-0.1,3.71l1.99,0.06
	c6.24,0.17,11.23,5.17,11.6,11.38l-0.28,10.09h0.75l0.26-9.66l1.63,0.05l0.19-6.9L635.88,171.85L635.88,171.85z"/><path class="st16" d="M602.68,424.93l-4.43-25.88l24.43-2.74l3.3,27.23L602.68,424.93L602.68,424.93z"/><path class="st4" d="M616.6,322.97l-1.43-10.88l-15.5-9.85L585.8,341.6l10.82,69.53l31.28-0.4l-11.04-87.77H616.6z"/><path class="st4" d="M598.32,427.75l-0.14,5.01l31.24,0.85l0.14-5.01L598.32,427.75z"/><path class="st5" d="M629.57,428.6c0.19-6.59-6.67-12.13-15.3-12.36c-8.63-0.23-15.77,4.93-15.94,11.52"/><path class="st7" d="M614.4,185.07c0,0-0.3,0.09-0.79,0.15c-0.58,0.09-1.41,0.17-2.28,0.09c-0.54-0.04-1.1-0.13-1.62-0.33
	c-2.06-0.81-2.86-2.73-2.86-2.73s2.38-1.09,4.45-0.32c0.04,0.02,0.1,0.03,0.14,0.06c0.14,0.05,0.27,0.11,0.39,0.19
	c1.12,0.59,1.85,1.63,2.26,2.3c0.21,0.35,0.3,0.58,0.3,0.58L614.4,185.07z"/><path class="st7" d="M629.42,182.95c-0.04,0.08-0.18,0.33-0.41,0.66c-0.45,0.6-1.28,1.45-2.54,1.88h-0.01
	c-2.11,0.7-4.69-0.17-4.69-0.17s1.17-2.32,3.26-2.96c0.11-0.03,0.21-0.06,0.32-0.08c0.03,0,0.06,0,0.09-0.01
	c0.43-0.08,0.86-0.1,1.27-0.08c0.62,0.04,1.2,0.16,1.66,0.32c0.21,0.06,0.4,0.13,0.56,0.19c0.3,0.12,0.5,0.23,0.5,0.23H629.42z"/><path class="st20" d="M624.48,196.77l-2.41,2.1c-2.43,2.3-6.26,2.2-8.57-0.23l-1.79-2.08l2.03-2.1c2.43-2.3,6.26-2.2,8.57,0.23
	l2.16,2.09L624.48,196.77L624.48,196.77z"/><path d="M621.74,196.8l-0.92,0.79l-0.48,0.41c-1.39,1.31-3.59,1.27-4.9-0.12l-0.38-0.44l-0.64-0.74l0.93-0.96l0.23-0.24
	c1.39-1.31,3.59-1.27,4.9,0.12l0.28,0.26l0.96,0.93h0.01L621.74,196.8z"/><path class="st7" d="M620.77,195.87l-5.41-0.15l0.23-0.24c1.39-1.31,3.59-1.27,4.9,0.12L620.77,195.87L620.77,195.87L620.77,195.87z
	"/><path class="st7" d="M620.81,197.59l-0.48,0.41c-1.39,1.31-3.59,1.27-4.9-0.12l-0.38-0.44l5.74,0.15H620.81L620.81,197.59z"/><path class="st16" d="M702.52,207.58l-6.88,11.79l-6.95,11.56l-20.56,39.48c-2.99,5.79-10.42,7.65-15.76,3.94
	c-4.01-2.75-5.55-7.71-4.22-12.09c0.37-1.21,0.95-2.38,1.77-3.43l26.69-34.87l2.61,0.27l1.75-13.48l7.96-15.13
	c0.6-1.08,1.91-1.51,2.98-0.93l0.3,0.14c0.63,0.3,1.01,0.93,1.12,1.55l0.38-0.78c0.59-1.08,1.9-1.51,2.98-0.93l0.3,0.14
	c1.07,0.58,1.51,1.91,0.93,2.98l-0.94,1.75c0.65-0.42,1.49-0.5,2.22-0.12l0.29,0.14c1.06,0.59,1.51,1.91,0.91,2.99l-0.9,1.72
	c0.64-0.27,1.36-0.28,2.01,0.12l0.27,0.17c1.04,0.62,1.39,1.99,0.77,3.03L702.52,207.58z"/><path class="st4" d="M719.24,201.76l-13.64,25.17c-1.71-0.92-2.4-1.71-3.09-2.47c-0.45-0.5-0.88-0.98-1.62-1.51
	c-0.33-0.24-0.72-0.49-1.21-0.75c-0.48-0.26-0.91-0.46-1.28-0.6c-0.85-0.33-1.48-0.43-2.16-0.54c-0.72-0.11-1.46-0.22-2.46-0.63
	c-0.38-0.15-0.81-0.35-1.28-0.61c-0.48-0.26-0.87-0.5-1.21-0.74c-0.89-0.62-1.39-1.18-1.88-1.72c-0.45-0.5-0.88-0.99-1.63-1.52
	c-0.33-0.24-0.73-0.49-1.21-0.75c-0.48-0.26-0.9-0.46-1.28-0.6c-0.85-0.33-1.48-0.43-2.15-0.53c-0.72-0.11-1.48-0.23-2.48-0.64
	c-0.38-0.15-0.8-0.34-1.28-0.61c-0.48-0.26-0.88-0.5-1.22-0.74c-0.88-0.61-1.38-1.18-1.87-1.72c-0.45-0.5-0.88-0.99-1.63-1.52
	c-0.33-0.24-0.73-0.49-1.21-0.75c-0.48-0.26-0.9-0.45-1.28-0.6c-0.85-0.33-1.48-0.43-2.16-0.54c-1-0.16-2.03-0.31-3.75-1.24
	l13.64-25.17c1.71,0.92,2.4,1.71,3.09,2.47c0.45,0.5,0.88,0.98,1.62,1.51c0.33,0.24,0.72,0.49,1.21,0.75
	c0.48,0.26,0.9,0.46,1.28,0.6c0.85,0.33,1.48,0.43,2.16,0.54c0.72,0.11,1.47,0.23,2.47,0.63c0.38,0.15,0.8,0.35,1.28,0.61
	c0.48,0.26,0.88,0.5,1.22,0.74c0.88,0.61,1.38,1.18,1.87,1.72c0.45,0.5,0.88,0.99,1.63,1.52c0.32,0.24,0.72,0.48,1.2,0.74
	c0.48,0.26,0.91,0.46,1.3,0.61c0.84,0.33,1.48,0.43,2.14,0.52c0.72,0.11,1.47,0.23,2.49,0.64c0.38,0.15,0.8,0.35,1.26,0.6
	c0.46,0.26,0.88,0.51,1.22,0.76c0.88,0.61,1.38,1.16,1.87,1.71c0.45,0.5,0.88,0.99,1.63,1.52c0.33,0.24,0.72,0.49,1.19,0.74
	c0.47,0.26,0.91,0.46,1.3,0.61c0.84,0.33,1.48,0.43,2.15,0.53C716.49,200.67,717.52,200.83,719.24,201.76L719.24,201.76z"/><path class="st5" d="M674.67,208.76c-0.32-0.24-0.72-0.49-1.21-0.75c-0.48-0.26-0.9-0.46-1.28-0.6l12.44-22.97
	c0.33,0.24,0.72,0.49,1.21,0.75c0.48,0.26,0.9,0.46,1.28,0.6L674.67,208.76z"/><path class="st5" d="M694.23,188.31l-13.57,25.04c-0.38-0.15-0.8-0.35-1.28-0.61c-0.48-0.26-0.88-0.5-1.22-0.74l13.57-25.04
	c0.38,0.15,0.8,0.35,1.28,0.61C693.49,187.82,693.88,188.07,694.23,188.31z"/><path class="st5" d="M713.33,200l-12.45,22.96c-0.33-0.24-0.72-0.49-1.21-0.75c-0.48-0.26-0.91-0.46-1.28-0.6l12.45-22.97
	c0.33,0.24,0.72,0.49,1.19,0.75C712.51,199.65,712.95,199.85,713.33,200z"/><path class="st5" d="M707.34,195.42l-13.57,25.03c-0.38-0.15-0.81-0.35-1.28-0.61c-0.48-0.25-0.87-0.5-1.21-0.74l13.57-25.04
	c0.38,0.15,0.8,0.35,1.26,0.6C706.58,194.92,707,195.17,707.34,195.42z"/><path class="st5" d="M700.23,192.9l-12.45,22.97c-0.33-0.24-0.73-0.49-1.21-0.75c-0.48-0.26-0.9-0.46-1.28-0.6l12.45-22.96
	c0.32,0.24,0.72,0.48,1.2,0.74C699.42,192.55,699.85,192.75,700.23,192.9L700.23,192.9z"/><path class="st16" d="M676.6,223.96v-0.03l-0.05-1.15l-1.01-16.63c0.08-1.24,1.06-2.37,2.34-2.43l0.32-0.01
	c1.28-0.05,2.37,0.9,2.45,2.15l0.31,4.89l-1.74,13.48L676.6,223.96z"/><path class="st16" d="M527.31,211.62l7.12,11.64l7.19,11.4l21.4,39.03c3.12,5.72,10.58,7.42,15.83,3.61
	c3.95-2.84,5.39-7.83,3.96-12.17c-0.39-1.21-1-2.36-1.83-3.4l-27.43-34.29l-2.61,0.32l-2.03-13.44l-8.28-14.95
	c-0.62-1.06-1.95-1.47-3-0.86l-0.29,0.14c-0.62,0.32-0.99,0.95-1.09,1.58l-0.39-0.77c-0.61-1.07-1.93-1.47-3-0.86l-0.29,0.15
	c-1.06,0.6-1.47,1.94-0.86,3l0.99,1.73c-0.66-0.41-1.5-0.47-2.23-0.08l-0.29,0.14c-1.05,0.62-1.47,1.95-0.85,3.01l0.95,1.7
	c-0.65-0.26-1.37-0.24-2,0.16l-0.27,0.17c-1.03,0.64-1.35,2.01-0.7,3.04V211.62z"/><path class="st19" d="M599.67,302.24l15.5,9.85l1.48,10.88l16.2,0.44c9.28,0.43,17.7-4.26,22.37-11.57
	c2.21-3.48,3.62-7.56,3.82-11.98c0,0-0.28-8.89-4.21-17.24c-2.48-5.27-7.77-8.67-13.59-8.83l-60.91-1.65
	c-6.09-0.17-11.72,3.25-14.38,8.73l-32.3,66.45l41.96,23.27l24.08-68.36H599.67L599.67,302.24z"/><path class="st4" d="M524.68,230.8l-14.35-24.78c1.68-0.97,2.71-1.16,3.72-1.35c0.66-0.12,1.29-0.23,2.13-0.59
	c0.38-0.15,0.79-0.36,1.27-0.63c0.48-0.28,0.87-0.54,1.19-0.78c0.73-0.55,1.15-1.04,1.59-1.56c0.48-0.56,0.95-1.13,1.82-1.77
	c0.33-0.24,0.72-0.5,1.19-0.77c0.46-0.27,0.88-0.48,1.26-0.64c0.99-0.44,1.73-0.57,2.45-0.7c0.66-0.12,1.3-0.24,2.14-0.59
	c0.38-0.15,0.79-0.36,1.27-0.63c0.48-0.28,0.86-0.53,1.19-0.78c0.73-0.55,1.14-1.04,1.58-1.56c0.48-0.56,0.97-1.14,1.83-1.79
	c0.33-0.24,0.72-0.5,1.18-0.77c0.46-0.27,0.89-0.48,1.27-0.65c0.99-0.43,1.72-0.57,2.45-0.7c0.66-0.12,1.3-0.24,2.14-0.59
	c0.37-0.15,0.79-0.36,1.27-0.63c0.47-0.27,0.86-0.53,1.19-0.78c0.73-0.55,1.15-1.04,1.59-1.56c0.66-0.77,1.32-1.57,3.01-2.55
	l14.34,24.78c-1.68,0.97-2.71,1.16-3.72,1.34c-0.66,0.12-1.29,0.24-2.13,0.59c-0.38,0.15-0.79,0.36-1.27,0.63
	c-0.48,0.28-0.86,0.53-1.19,0.78c-0.73,0.55-1.14,1.04-1.59,1.56c-0.48,0.56-0.96,1.13-1.83,1.78c-0.33,0.24-0.72,0.5-1.18,0.77
	c-0.48,0.28-0.89,0.48-1.27,0.65c-0.99,0.43-1.72,0.57-2.45,0.7c-0.66,0.12-1.3,0.23-2.15,0.6c-0.37,0.15-0.79,0.36-1.26,0.63
	s-0.87,0.54-1.19,0.79c-0.72,0.54-1.13,1.03-1.57,1.55c-0.48,0.56-0.97,1.14-1.85,1.79c-0.33,0.24-0.72,0.5-1.17,0.76
	c-0.46,0.26-0.9,0.48-1.28,0.65c-0.98,0.43-1.71,0.57-2.43,0.7c-0.66,0.12-1.3,0.23-2.15,0.6c-0.38,0.15-0.79,0.36-1.26,0.63
	c-0.48,0.28-0.87,0.54-1.19,0.79c-0.72,0.54-1.15,1.04-1.58,1.56c-0.66,0.77-1.32,1.57-3.01,2.55V230.8z"/><path class="st5" d="M542,189.16c0.37-0.15,0.79-0.36,1.27-0.63c0.48-0.28,0.86-0.53,1.19-0.78l13.09,22.6
	c-0.38,0.15-0.79,0.36-1.27,0.63s-0.86,0.53-1.19,0.78L542,189.16z"/><path class="st5" d="M549.22,216.52l-14.27-24.65c0.33-0.24,0.72-0.5,1.18-0.77c0.46-0.27,0.89-0.48,1.27-0.65l14.27,24.65
	c-0.33,0.24-0.72,0.5-1.18,0.77C550.02,216.15,549.6,216.35,549.22,216.52z"/><path class="st5" d="M529.27,226.7l-13.08-22.61c0.38-0.15,0.79-0.36,1.27-0.63c0.48-0.28,0.87-0.54,1.19-0.78l13.08,22.61
	c-0.38,0.15-0.79,0.36-1.26,0.64C529.98,226.2,529.59,226.46,529.27,226.7L529.27,226.7z"/><path class="st5" d="M536.3,223.99l-14.26-24.64c0.33-0.24,0.72-0.5,1.19-0.77s0.88-0.48,1.26-0.64l14.27,24.65
	c-0.33,0.24-0.72,0.5-1.17,0.76C537.13,223.61,536.69,223.83,536.3,223.99L536.3,223.99z"/><path class="st5" d="M542.18,219.24l-13.08-22.61c0.38-0.15,0.79-0.36,1.27-0.63c0.47-0.28,0.86-0.53,1.19-0.78l13.08,22.61
	c-0.37,0.15-0.79,0.36-1.26,0.63C542.9,218.73,542.5,218.99,542.18,219.24L542.18,219.24z"/><path class="st16" d="M553.56,227.44v-0.03l0.03-1.15l0.66-16.65c-0.1-1.23-1.11-2.35-2.39-2.38h-0.32
	c-1.28-0.03-2.36,0.95-2.41,2.2l-0.21,4.9l2.03,13.44L553.56,227.44L553.56,227.44z"/><path d="M614.19,184.11c-0.01,0.13-0.04,0.26-0.09,0.39c-0.01,0.06-0.04,0.11-0.06,0.17c-0.1,0.21-0.25,0.41-0.42,0.57
	c-0.58,0.09-1.41,0.17-2.28,0.09c-0.43-0.33-0.7-0.85-0.7-1.43c0-0.58,0.3-1.14,0.76-1.46c0.14-0.09,0.29-0.17,0.46-0.23
	c0.18-0.06,0.37-0.09,0.58-0.09c0.18,0,0.35,0.03,0.52,0.09C613.51,182.72,613.94,183.36,614.19,184.11L614.19,184.11z"/><path d="M629,183.61c-0.46,0.6-1.28,1.45-2.55,1.88h-0.01c-0.59-0.29-1-0.89-1-1.6c0-0.8,0.53-1.48,1.26-1.7
	c0.17-0.06,0.35-0.09,0.53-0.09c0.43,0,0.83,0.15,1.13,0.41C628.71,182.79,628.93,183.17,629,183.61L629,183.61z"/><path class="st2" d="M210.14,726.6L343.3,826h69.69c-2.34-3.48-3.63-7.54-3.63-11.76c0,0,11.03-25.45,0-31.21
	c-7.86-4.14-21.97,6.32-23.19,7.21c-4.54,3.41-10.86,3.32-15.32-0.24l-8.92-7.14c-13.14-10.54-9.89-31.37,5.84-37.37l33.9-12.89
	c4.94-1.86,10.38-1.95,15.32,0l8.27,3.08c13.05,4.86,27-2.51,31.54-15.64c2.11-6.08,6.81-10.94,12.81-13.29l142.95-54.47
	c6.73-2.59,11.92-8.27,13.46-15.32c6.49-29.34-1.86-59.99-22.38-81.95l-3.08-3.32c-4.62-5.03-11.35-7.54-18.16-6.81l-30.9,3.08
	c-11.84,1.21-15.97-15.32-4.94-19.86l9.16-3.73c4.3-1.7,9-2.11,13.46-0.97l17.59,4.38c14.35,3.56,28.06-7.86,27-22.61v-1.46
	c-0.81-10.86-9.81-19.37-20.76-19.54c-44.35-0.49-152.93-1.62-195.82-0.81l-2.43,0.65C323.74,523.15,265.04,581.83,226.11,653
	c-0.41,0.73-0.81,1.46-1.21,2.18c-5.43,10.05-10.3,20.43-14.92,30.96c-1.21,2.84-2.51,5.67-3.73,8.52
	c-1.46,3.56-2.59,7.21-3.97,10.86C200.66,713.39,203.58,721.73,210.14,726.6z"/><path class="st2" d="M1024.59,826c-1.97-25.47-6.27-50.29-12.41-74.36c-0.89-3.49-3.89-6-7.46-6.49l-0.02,0.01l-110.6-13.29
	c-7.94-0.97-15.97-0.41-23.76,1.62L791.45,754c-22.3,5.76-39.73,23.1-45.65,45.31l-2.51,9.4c-1.51,5.69-2.22,11.51-2.15,17.29
	H1024.59z"/></svg>