<svg viewBox="0 0 1600 1200" fill="none" xmlns="http://www.w3.org/2000/svg"><path d="M1140.39 594.158C1145.69 588.097 1146.5 579.323 1142.4 572.389L1130.74 547.833L1093.34 337.459L1039.8 355.652L1102.23 553.011L1102.35 580.591C1101.9 584.313 1102.67 588.087 1104.59 591.341L1110.02 600.562C1111.16 602.517 1113.3 603.504 1115.41 603.265L1117.55 604.783C1116.62 606.935 1117.12 609.513 1118.99 611.125C1121.3 613.11 1124.79 612.85 1126.77 610.542L1140.39 594.158Z" fill="#FFBD7A"/><path d="M953.926 370.788L903.936 333.902L855.288 554.184L847.412 579.145L857.358 611.882L874.264 629.389C876.387 631.572 879.872 631.624 882.067 629.504C883.555 628.059 884.034 625.99 883.534 624.119C883.597 624.077 883.68 624.046 883.742 624.004C886.218 622.237 886.791 618.785 885.022 616.311L871.528 597.463C870.248 593.814 868.771 589.947 868.313 588.554C867.585 586.298 869.687 584.665 871.372 585.871L881.474 605.717C882.858 608.431 886.177 609.512 888.892 608.129C891.608 606.747 892.69 603.43 891.306 600.717L883.451 585.289L881.214 562.491L953.926 370.788Z" fill="#FFBD7A"/><path d="M982.12 1008.51H920.956V1020H982.12V1008.51Z" fill="#D8CBC5"/><path d="M1116.36 1008.51H1055.2V1020H1116.36V1008.51Z" fill="#D8CBC5"/><path d="M1066.24 458.075C1063.49 453.116 1061.58 450.818 1061.58 450.818V412.977H934.075V450.964C933.566 451.525 931.61 453.791 929.009 458.075H1066.24Z" fill="#FFBD7A"/><path d="M1074.06 473.97C1072.31 469.905 1066.23 458.074 1066.23 458.074H928.998C928.998 458.074 924.399 466.079 921.216 473.97H1074.06Z" fill="#E6E3DA"/><path d="M997.488 555.993L1039.8 1008.51H1127.49L1088.47 550.961C1085.72 526.697 1081.78 489.427 1074.05 473.968H921.217C912.364 495.217 909.398 526.437 909.69 552.115L906.787 1008.5H996.302V555.993H997.488Z" fill="#232144"/><path d="M1129.67 630.295H1124.04V582.266H1113.35V630.295H1107.73C1104.34 630.295 1101.61 633.03 1101.61 636.408V680.758C1101.61 684.137 1104.34 686.871 1107.73 686.871H1129.67C1133.05 686.871 1135.78 684.137 1135.78 680.758V636.408C1135.78 633.03 1133.05 630.295 1129.67 630.295Z" fill="#006931"/><path d="M962.967 242.811V274.123L948.121 259.611L962.967 242.811Z" fill="#D8CBC5"/><path d="M1041.6 259.611L1026.86 274.123V242.811L1041.6 259.611Z" fill="#D8CBC5"/><path d="M1036.39 245.661H953.323V301.571H1036.39V245.661Z" fill="#171111"/><path d="M1018.95 320.576V289.347L970.78 289.17V320.576C970.78 333.873 981.569 344.654 994.865 344.654C1008.16 344.654 1018.95 333.873 1018.95 320.576Z" fill="#F0A86B"/><path d="M1026.98 251.9C1026.91 251.9 1026.85 251.91 1026.78 251.91V226.617C1026.78 214.734 1017.15 205.097 1005.26 205.097H984.462C972.57 205.097 962.936 214.734 962.936 226.617V251.91C962.874 251.91 962.801 251.9 962.739 251.9C957.36 251.9 952.99 256.266 952.99 261.641C952.99 267.026 957.36 271.382 962.739 271.382C962.801 271.382 962.874 271.371 962.936 271.371V279.959C962.936 291.841 972.57 301.478 984.462 301.478H1005.26C1017.15 301.478 1026.78 291.841 1026.78 279.959V271.371C1026.85 271.371 1026.92 271.382 1026.98 271.382C1032.36 271.382 1036.73 267.016 1036.73 261.641C1036.74 256.256 1032.37 251.9 1026.98 251.9Z" fill="#FFBD7A"/><path d="M1003.08 257.941C1003.08 257.941 1005.49 252.888 1010.03 251.349C1014.58 249.811 1019.56 252.358 1019.56 252.358C1019.56 252.358 1015.67 256.662 1012.49 257.701C1009.24 258.762 1003.08 257.941 1003.08 257.941Z" fill="white"/><path d="M1014.51 255.735C1015.12 253.978 1014.19 252.055 1012.43 251.441C1010.67 250.828 1008.74 251.763 1008.13 253.52C1007.52 255.277 1008.45 257.201 1010.21 257.814C1011.98 258.427 1013.89 257.502 1014.51 255.735Z" fill="black"/><path d="M1003.08 257.94C1003.08 257.94 1006.76 246.515 1023.79 250.85L1019.24 252.95C1015.67 252.274 1009.14 251.89 1003.08 257.94Z" fill="black"/><path d="M986.637 257.941C986.637 257.941 984.234 252.888 979.687 251.349C975.141 249.811 970.157 252.358 970.157 252.358C970.157 252.358 973.611 256.381 977.232 257.701C980.665 258.949 986.637 257.941 986.637 257.941Z" fill="white"/><path d="M975.212 255.735C974.598 253.978 975.534 252.055 977.293 251.441C979.051 250.828 980.976 251.763 981.589 253.52C982.203 255.277 981.267 257.201 979.509 257.814C977.74 258.427 975.815 257.502 975.212 255.735Z" fill="black"/><path d="M986.636 257.94C986.636 257.94 982.964 246.515 965.933 250.85L970.469 252.95C974.048 252.274 980.581 251.89 986.636 257.94Z" fill="black"/><path d="M962.926 240.316H959.389V289.698H962.926V240.316Z" fill="#171111"/><path d="M1030.33 240.316H1026.79V289.698H1030.33V240.316Z" fill="#171111"/><path d="M994.896 272.203C995.031 272.203 995.166 272.203 995.312 272.192C996.259 272.14 997.039 271.62 997.778 271.121C999.151 270.207 1000.14 269.552 1002.06 271.35L1003.14 270.342C1000.32 267.691 998.339 269.001 996.904 269.957C996.3 270.363 995.728 270.737 995.218 270.768C993.751 270.851 993.137 270.373 992.492 269.864C991.182 268.845 989.995 268.263 986.583 270.165L987.353 271.381C990.11 269.843 990.64 270.259 991.525 270.945C992.201 271.485 993.106 272.203 994.896 272.203Z" fill="black"/><path d="M1024.17 244.445L1006.51 240.494C1003.98 239.923 1001.58 241.856 1001.58 244.445H1024.17Z" fill="#171111"/><path d="M965.537 244.445L983.203 240.494C985.731 239.923 988.134 241.856 988.134 244.445H965.537Z" fill="#171111"/><path d="M898.402 330.024C903.396 319.607 913.664 312.07 926.013 311.145H1065.66C1077.95 312.07 1088.14 319.669 1092.95 330.107L1102.31 354.091L1061.59 382.96V412.995H934.076V385.934L889.163 354.091L898.402 330.024Z" fill="#E6E3DA"/><path d="M1007.87 279.145C1007.87 279.145 1001.37 278.656 998.341 278.656C995.386 278.656 994.762 279.53 994.762 279.53C994.762 279.53 992.837 278.656 989.924 278.656C987.656 278.656 981.851 279.238 981.851 279.238C981.851 279.238 987.937 287.462 994.647 287.462C1001.48 287.462 1007.87 279.145 1007.87 279.145Z" fill="#A86554"/><path d="M973.329 316.04C975.185 316.04 976.69 314.537 976.69 312.682C976.69 310.828 975.185 309.324 973.329 309.324C971.473 309.324 969.969 310.828 969.969 312.682C969.969 314.537 971.473 316.04 973.329 316.04Z" fill="#232144"/><path d="M979.478 317.125C981.334 317.125 982.838 315.622 982.838 313.767C982.838 311.913 981.334 310.409 979.478 310.409C977.622 310.409 976.117 311.913 976.117 313.767C976.117 315.622 977.622 317.125 979.478 317.125Z" fill="#232144"/><path d="M985.638 318.206C987.494 318.206 988.998 316.703 988.998 314.848C988.998 312.994 987.494 311.49 985.638 311.49C983.782 311.49 982.277 312.994 982.277 314.848C982.277 316.703 983.782 318.206 985.638 318.206Z" fill="#232144"/><path d="M991.786 319.285C993.642 319.285 995.147 317.782 995.147 315.927C995.147 314.073 993.642 312.569 991.786 312.569C989.93 312.569 988.426 314.073 988.426 315.927C988.426 317.782 989.93 319.285 991.786 319.285Z" fill="#232144"/><path d="M997.935 319.285C999.791 319.285 1001.3 317.782 1001.3 315.927C1001.3 314.073 999.791 312.569 997.935 312.569C996.079 312.569 994.574 314.073 994.574 315.927C994.574 317.782 996.079 319.285 997.935 319.285Z" fill="#232144"/><path d="M1004.08 318.206C1005.94 318.206 1007.44 316.703 1007.44 314.848C1007.44 312.994 1005.94 311.49 1004.08 311.49C1002.23 311.49 1000.72 312.994 1000.72 314.848C1000.72 316.703 1002.23 318.206 1004.08 318.206Z" fill="#232144"/><path d="M1010.23 317.125C1012.09 317.125 1013.59 315.622 1013.59 313.767C1013.59 311.913 1012.09 310.409 1010.23 310.409C1008.38 310.409 1006.87 311.913 1006.87 313.767C1006.87 315.622 1008.38 317.125 1010.23 317.125Z" fill="#232144"/><path d="M1016.38 316.04C1018.24 316.04 1019.74 314.537 1019.74 312.682C1019.74 310.828 1018.24 309.324 1016.38 309.324C1014.52 309.324 1013.02 310.828 1013.02 312.682C1013.02 314.537 1014.52 316.04 1016.38 316.04Z" fill="#232144"/><path d="M1031.37 230.087V217.04C1031.37 204.815 1021.46 194.907 1009.22 194.907H980.497C968.262 194.907 958.348 204.815 958.348 217.04V230.087H1031.37Z" fill="#D8CBC5"/><path d="M1026.86 242.811L994.023 230.949L962.968 242.811L948.111 259.611L958.349 230.003L978.865 223.651C989.154 220.376 1000.2 220.355 1010.49 223.609L1031.36 230.003L1041.59 259.611L1026.86 242.811Z" fill="#E6E3DA"/><path d="M994.159 322.944C994.159 320.304 996.302 318.162 998.934 318.162C999.132 318.162 999.34 318.173 999.538 318.204C1002.73 318.599 1004.05 322.57 1001.93 324.982L994.918 332.966L987.813 325.003C985.659 322.591 986.97 318.578 990.185 318.193C990.372 318.173 990.559 318.162 990.757 318.162C993.399 318.162 995.532 320.304 995.532 322.944H994.159Z" fill="#006931"/><path d="M628.194 218.611C638.864 218.611 647.514 209.968 647.514 199.305C647.514 188.643 638.864 180 628.194 180C617.524 180 608.874 188.643 608.874 199.305C608.874 209.968 617.524 218.611 628.194 218.611Z" fill="#C98CB0"/><path d="M620.786 938.57H577.891L570.016 837.729H620.308L620.786 938.57Z" fill="#F5B091"/><path d="M582.832 1001.67L577.891 938.572H620.786L621.129 1001.67H582.832Z" fill="#E6E3DA"/><path d="M623.575 1008.81C623.575 991.931 609.883 978.25 592.988 978.25C576.092 978.25 562.4 991.942 562.4 1008.81" fill="#171111"/><path d="M623.574 1008.81H562.41V1020H623.574V1008.81Z" fill="#171111"/><path d="M685.008 938.591H727.737L724.366 837.729H674.511L685.008 938.591Z" fill="#F5B091"/><path d="M691.23 1001.66L685.009 938.592H727.737L730.598 1001.66H691.23Z" fill="#E6E3DA"/><path d="M689.866 1008.81C689.866 991.931 703.558 978.25 720.453 978.25C737.349 978.25 751.041 991.942 751.041 1008.81" fill="#171111"/><path d="M751.03 1008.81H689.866V1020H751.03V1008.81Z" fill="#171111"/><path d="M565.375 311.147C552.183 312.707 541.55 321.793 537.545 333.759L537.524 333.738L537.462 334.029C536.806 336.056 535.953 338.229 535.693 340.392L488.876 554.02L481 578.981L490.946 611.718L507.852 629.225C509.975 631.408 513.46 631.46 515.655 629.339C517.143 627.894 517.621 625.825 517.122 623.954C517.184 623.913 517.268 623.881 517.33 623.84C519.806 622.073 520.378 618.621 518.61 616.147L505.116 597.299C503.836 593.65 502.359 589.782 501.901 588.389C501.891 588.368 501.891 588.348 501.88 588.327C501.204 586.061 504.513 584.834 505.584 586.944L508.424 592.537L515.052 605.553C516.519 608.433 520.15 609.472 522.938 607.695C525.372 606.156 526.08 602.902 524.779 600.334L517.039 585.115L514.802 562.316L565.396 430.879L565.333 467.847H693.29V421.512L747.494 562.451L745.257 585.25L737.517 600.47C736.206 603.037 736.924 606.281 739.358 607.83C742.146 609.597 745.788 608.558 747.244 605.688L756.712 587.079C757.783 584.969 761.102 586.196 760.415 588.462C760.405 588.483 760.405 588.504 760.395 588.524C759.947 589.918 758.459 593.774 757.18 597.434L743.686 616.282C741.917 618.756 742.479 622.197 744.966 623.975C745.028 624.027 745.101 624.048 745.174 624.089C744.674 625.961 745.143 628.029 746.641 629.474C748.826 631.595 752.321 631.543 754.444 629.36L771.35 611.853L781.296 579.116L773.42 554.155L726.249 340.558C724.47 324.901 711.788 312.208 695.485 310.971L565.375 311.147Z" fill="#F5B091"/><path d="M565.312 376.205V467.857H693.269V376.205L681.991 368.596C668.383 359.416 661.641 342.959 664.898 326.887L668.133 310.897H590.698L593.861 327.032C597.003 343.042 590.25 359.385 576.725 368.512L565.312 376.205ZM633.395 449.893C605.544 449.893 582.968 442.875 582.968 434.205C582.968 425.545 605.544 418.517 633.395 418.517C661.246 418.517 683.822 425.535 683.822 434.205C683.822 442.875 661.246 449.893 633.395 449.893Z" fill="#E6E3DA"/><path d="M538.949 837.727H746.849L716.438 541.699C710.654 488.887 693.269 467.897 693.269 467.897H565.312C565.312 467.897 541.883 492.734 541.228 561.493L538.949 837.727Z" fill="#006931"/><path d="M567.07 310.885H554.253V379.364H549.686V450.608C549.686 452.24 551.007 453.571 552.651 453.571H564.116C565.749 453.571 567.081 452.25 567.081 450.608V310.885H567.07Z" fill="#171111"/><path d="M653.298 189.106L629.296 195.23L605.295 189.106C602.402 188.368 599.583 190.551 599.583 193.545V206.281C599.583 209.264 602.402 211.458 605.295 210.72L629.296 204.596L653.298 210.72C656.19 211.458 659.01 209.275 659.01 206.281V193.545C659.01 190.551 656.19 188.368 653.298 189.106Z" fill="#171111"/><path d="M653.382 312.04V280.811L605.212 280.634V312.04C605.212 325.337 616.001 336.118 629.297 336.118C642.593 336.118 653.382 325.337 653.382 312.04Z" fill="#FF976B"/><path d="M661.424 251.901C661.351 251.901 661.288 251.911 661.226 251.911V226.617C661.226 214.735 651.592 205.098 639.7 205.098H618.903C607.012 205.098 597.378 214.735 597.378 226.617V251.911C597.315 251.911 597.242 251.901 597.18 251.901C591.801 251.901 587.432 256.267 587.432 261.642C587.432 267.027 591.801 271.383 597.18 271.383C597.242 271.383 597.315 271.372 597.378 271.372V279.96C597.378 291.842 607.012 301.479 618.903 301.479H639.7C651.592 301.479 661.226 291.842 661.226 279.96V271.372C661.288 271.372 661.361 271.383 661.424 271.383C666.802 271.383 671.172 267.017 671.172 261.642C671.172 256.257 666.802 251.901 661.424 251.901Z" fill="#F5B091"/><path d="M658.448 244.446L640.782 240.495C638.254 239.924 635.851 241.857 635.851 244.446H658.448Z" fill="#171111"/><path d="M628.224 272.204C628.359 272.204 628.494 272.204 628.64 272.193C629.587 272.141 630.367 271.621 631.106 271.122C632.479 270.208 633.467 269.553 635.392 271.351L636.464 270.343C633.644 267.692 631.667 269.002 630.232 269.958C629.628 270.363 629.056 270.738 628.546 270.769C627.079 270.852 626.466 270.374 625.82 269.864C624.51 268.846 623.324 268.263 619.911 270.166L620.681 271.382C623.438 269.844 623.969 270.26 624.853 270.946C625.529 271.486 626.434 272.204 628.224 272.204Z" fill="black"/><path d="M599.812 247.387L617.477 243.437C620.005 242.865 622.409 244.799 622.409 247.387H599.812Z" fill="black"/><path d="M594.318 261.638H597.367V243.144L613.139 236.126L617.488 208.972L626.008 236.126C626.008 236.126 651.685 243.476 661.225 245.888V261.337H664.274V222.466C664.274 211.145 651.81 201.965 636.423 201.965H616.499C604.025 201.965 594.839 211.851 594.318 224.306V261.638Z" fill="#C98CB0"/><path d="M621.234 258.126C620.068 250.1 609.925 246.67 603.672 250.443C604.057 251.057 604.785 252.294 605.17 252.907C606.554 252.075 613.722 249.175 620.224 256.982C620.63 257.45 620.682 257.648 621.234 258.126Z" fill="black"/><path d="M637.1 258.199C638.265 250.173 648.419 246.743 654.661 250.517C654.276 251.13 653.548 252.367 653.163 252.98C651.779 252.149 644.611 249.248 638.109 257.056C637.703 257.523 637.651 257.731 637.1 258.199Z" fill="black"/><path d="M594.736 280.032C595.412 280.032 595.953 279.481 595.953 278.816V269.189C595.953 268.513 595.402 267.973 594.736 267.973C594.06 267.973 593.519 268.524 593.519 269.189V278.816C593.519 279.481 594.06 280.032 594.736 280.032Z" fill="#E6E3DA"/><path d="M664.107 280.032C664.783 280.032 665.324 279.481 665.324 278.816V269.189C665.324 268.513 664.773 267.973 664.107 267.973C663.431 267.973 662.89 268.524 662.89 269.189V278.816C662.879 279.481 663.431 280.032 664.107 280.032Z" fill="#E6E3DA"/><path d="M621.233 258.125C621.233 258.125 618.893 253.104 614.388 251.544C609.883 249.985 604.931 252.47 604.931 252.47C604.931 252.47 606.731 256.566 611.235 258.125C615.74 259.685 621.233 258.125 621.233 258.125Z" fill="white"/><path d="M624.406 283.266C624.406 283.266 635.684 295.648 641.791 278.318C641.791 278.318 635.372 271.529 631.543 279.44C631.543 279.44 627.246 277.631 624.406 283.266Z" fill="#171111"/><path d="M619.934 255.923C618.8 254.364 616.948 252.389 614.42 251.515C614.243 251.453 614.066 251.411 613.9 251.359C613.047 252.077 612.495 253.137 612.495 254.333C612.495 256.485 614.243 258.221 616.397 258.221C617.968 258.231 619.32 257.285 619.934 255.923Z" fill="black"/><path d="M637.1 258.211C637.1 258.211 639.44 253.19 643.945 251.63C648.45 250.071 653.402 252.556 653.402 252.556C653.402 252.556 651.603 256.652 647.098 258.211C642.593 259.771 637.1 258.211 637.1 258.211Z" fill="white"/><path d="M651.455 254.05C651.455 253.083 651.091 252.22 650.519 251.534C648.958 251.056 646.846 250.723 644.734 251.389C644.079 252.085 643.673 253.021 643.673 254.05C643.673 256.202 645.421 257.938 647.574 257.938C647.658 257.938 647.741 257.917 647.824 257.917C649.166 257.335 650.248 256.535 651.08 255.724C651.309 255.214 651.455 254.653 651.455 254.05Z" fill="black"/></svg>