<svg viewBox="0 0 1600 1200" fill="none" xmlns="http://www.w3.org/2000/svg"><path fill-rule="evenodd" clip-rule="evenodd" d="M1192.13 832.465C1213.88 814.988 1244.84 814.988 1266.59 832.465L1287.17 849.003L1344.99 895.458H1229.36H1113.73L1171.54 849.003L1192.13 832.465Z" fill="#F7C7A1"/><path fill-rule="evenodd" clip-rule="evenodd" d="M1323.57 863.961C1334.44 855.223 1349.93 855.223 1360.8 863.961L1371.09 872.23L1400 895.456H1342.19H1284.37L1313.28 872.23L1323.57 863.961Z" fill="#F7C7A1"/><path fill-rule="evenodd" clip-rule="evenodd" d="M369.523 751.737C416.277 714.169 482.838 714.169 529.592 751.737L573.836 787.288L698.115 887.147H449.557H201L325.279 787.288L369.523 751.737Z" fill="#F7C7A1"/><path fill-rule="evenodd" clip-rule="evenodd" d="M500.468 633.334C500.468 651.131 486.052 665.559 468.27 665.559C450.487 665.559 436.071 651.131 436.071 633.334C436.071 615.537 450.487 601.109 468.27 601.109C486.052 601.109 500.468 615.537 500.468 633.334Z" fill="#FAA332"/><path fill-rule="evenodd" clip-rule="evenodd" d="M440.459 660.345L406.33 662.454L395.458 655.267C388.368 650.581 378.917 655.67 378.917 664.173V695.326C378.917 714.338 394.317 729.75 413.314 729.75H492.192C511.021 729.75 518.691 715.139 520.128 697.604C520.647 691.279 518.211 685.066 513.626 680.682L497.54 662.718C495.201 660.482 494.274 657.143 495.125 654.02L496.567 648.723L450.513 649.321C447.541 649.36 445.199 651.867 445.359 654.838C445.515 657.709 443.326 660.169 440.459 660.345Z" fill="#FAA332"/><path fill-rule="evenodd" clip-rule="evenodd" d="M489.043 613.41C492.109 616.196 493.059 620.15 491.163 622.241C489.266 624.331 485.243 623.767 482.177 620.981C479.109 618.193 478.16 614.241 480.057 612.15C481.952 610.059 485.976 610.624 489.043 613.41Z" fill="#F7F7F7"/><path fill-rule="evenodd" clip-rule="evenodd" d="M486.471 616.246C488.466 618.059 489.084 620.631 487.85 621.992C486.616 623.352 483.999 622.985 482.003 621.172C480.008 619.358 479.39 616.786 480.623 615.426C481.858 614.066 484.475 614.433 486.471 616.246Z" fill="#232144"/><path fill-rule="evenodd" clip-rule="evenodd" d="M490.641 634.628C487.377 636.887 495.426 648.722 495.426 648.722L516.238 636.613C518.611 635.147 518.527 631.667 516.085 630.318L514.047 629.193L517.095 623.092C518.323 620.633 516.454 617.761 513.71 617.896C510.63 618.049 506.956 618.192 504.089 618.192C496.699 618.192 494.061 614.038 494.061 614.038C494.061 614.038 499.435 628.546 490.641 634.628Z" fill="#E73245"/><path fill-rule="evenodd" clip-rule="evenodd" d="M921.769 899.215C921.769 913.204 850.653 924.544 762.928 924.544C675.203 924.544 604.087 913.204 604.087 899.215C604.087 885.226 675.203 873.886 762.928 873.886C850.653 873.886 921.769 885.226 921.769 899.215Z" fill="#F7C7A1"/><path fill-rule="evenodd" clip-rule="evenodd" d="M906.123 783.504C954.653 810.267 1027.67 777.874 1027.67 777.874L984.359 849.031L954.674 855.746C946.405 857.616 940.533 864.968 940.533 873.453V880.627L1002.19 878.644L1082.73 742.713C1091.35 728.178 1080.26 709.91 1063.41 710.851L1049.76 711.612C1036.41 712.357 1027.62 697.91 1034.41 686.381C1034.41 686.381 889.664 774.427 906.123 783.504Z" fill="#171111"/><path fill-rule="evenodd" clip-rule="evenodd" d="M1151.43 716.321L1085.44 715.886L1125.74 628.103C1129.5 621.441 1132.73 614.436 1135.36 607.145L1135.37 607.114L1135.37 607.113C1140.64 592.49 1143.52 576.723 1143.52 560.283C1143.52 527.592 1132.15 497.562 1113.17 473.918C1151.5 410.734 1154.05 320.841 1117.8 258.68C1083.49 199.845 1019.62 172.559 937.959 181.745C928.457 182.818 921.624 191.398 922.695 200.906C923.768 210.423 932.35 217.237 941.841 216.187C1010.03 208.475 1060.53 229.217 1087.9 276.147C1116.35 324.946 1115.35 397.252 1087.41 449.172C1064.53 432.277 1036.25 422.284 1005.63 422.284C959.829 422.284 919.247 444.646 894.173 479.049L894.169 479.047L894.125 479.115C891.064 483.32 888.233 487.702 885.654 492.248L656.336 847.773L647.686 814.838L598.391 912.246L627.902 912.597C642.46 917.736 674.733 925.327 739.063 925.826C840.164 926.611 894.192 914.162 894.192 914.162C894.192 914.162 902.378 874.337 913.579 812.557C922.539 763.135 966.545 775.166 966.545 775.166C966.545 775.166 986.979 792.853 1003.44 801.93C1051.97 828.693 1110.14 794.335 1110.14 794.335L1066.83 865.493L1037.14 872.207C1028.87 874.077 1023 881.43 1023 889.914V897.089L1084.65 895.106L1169.79 748.512C1178.06 734.283 1167.87 716.429 1151.43 716.321Z" fill="#5C1C13"/><path fill-rule="evenodd" clip-rule="evenodd" d="M630.587 908.368C669.131 877.397 724.002 877.397 762.546 908.368L799.02 937.675L901.474 1020H696.566H491.657L594.112 937.675L630.587 908.368Z" fill="#F7C7A1"/></svg>