<svg viewBox="0 0 1600 1200" fill="none" xmlns="http://www.w3.org/2000/svg"><path d="M1407 921.234H193V1020H1407V921.234Z" fill="#ABB8B9"/><path d="M921.087 991.208H898.741H847.915H773.287C768.09 991.208 763.933 987.05 763.933 981.852C763.933 976.654 768.09 972.495 773.287 972.495H850.305C851.657 967.297 853.528 962.411 855.814 957.941V915.941L873.484 936.733C880.967 931.223 889.594 927.792 898.845 927.065V904.089L918.801 927.584C938.965 898.579 972.537 879.555 1010.58 879.555C1071.38 879.555 1120.86 928.208 1122.31 988.713V991.312H956.634H939.796H921.087V991.208Z" fill="#232144"/><path d="M897.389 947.232C898.533 948.896 898.429 950.871 898.429 950.871C898.429 950.871 896.454 950.559 895.103 949.312C892.92 952.118 892.4 955.549 892.4 955.549C892.4 955.549 897.182 955.653 900.508 952.742C903.834 949.831 904.457 945.153 904.457 945.153C904.457 945.153 900.612 945.049 897.389 947.232Z" fill="white"/><path d="M876.29 955.031C875.459 954.927 874.523 955.031 873.796 955.135C873.796 955.239 873.796 955.343 873.796 955.343C873.588 957.526 871.821 959.19 871.821 959.19C871.821 959.19 870.781 957.838 870.678 956.071C869.118 956.695 868.079 957.422 868.079 957.422C868.079 957.422 871.301 960.957 875.667 961.373C880.032 961.789 883.878 958.982 883.878 958.982C883.878 958.982 880.656 955.551 876.29 955.031Z" fill="white"/><path d="M922.023 978.317L918.697 975.822C937.822 950.871 919.529 928.416 918.801 927.376L921.296 923.945C921.4 924.257 944.89 950.351 922.023 978.317Z" fill="#ED1E79"/><path d="M873.796 955.341C873.796 955.237 873.796 955.133 873.796 955.133C872.653 955.341 871.509 955.653 870.678 956.068C870.886 957.835 871.821 959.186 871.821 959.186" fill="#241F20"/><path d="M897.39 947.234C897.078 947.442 896.766 947.65 896.454 947.962C895.935 948.378 895.519 948.897 895.207 949.313C896.662 950.56 898.533 950.872 898.533 950.872C898.533 950.872 898.533 948.793 897.39 947.234Z" fill="#241F20"/><path d="M392.458 582.223L384.143 567.773L380.089 540.743L356.08 537.312L349.22 563.926L360.341 594.491L377.491 610.397C379.674 612.372 383 612.268 384.975 610.085C386.326 608.629 386.638 606.654 386.118 604.887C386.222 604.887 386.222 604.783 386.326 604.783C388.612 602.912 389.028 599.585 387.157 597.298L373.333 579.832C371.982 576.402 370.319 572.763 369.8 571.412C368.968 569.332 370.943 567.565 372.606 568.709L376.244 575.05C376.348 575.258 376.452 575.466 376.452 575.466V575.362L383.312 587.214C384.767 589.709 387.989 590.644 390.587 589.189C393.082 588.045 393.913 584.822 392.458 582.223Z" fill="#BF7461"/><path d="M520.302 235.512H447.545V297.472H520.302V235.512Z" fill="#181111"/><path d="M447.545 259.532V219.403C447.545 205.472 458.874 194.141 472.802 194.141H495.149C509.076 194.141 520.406 205.472 520.406 219.403V259.532H447.545Z" fill="#181111"/><path d="M484.027 208.277C491.834 208.277 498.163 201.947 498.163 194.139C498.163 186.33 491.834 180 484.027 180C476.22 180 469.892 186.33 469.892 194.139C469.892 201.947 476.22 208.277 484.027 208.277Z" fill="#181111"/><path d="M659.995 495.105L669.038 521.407L698.037 501.239L679.639 481.07L659.995 495.105Z" fill="#BF7461"/><path d="M449.209 953.256C455.408 953.256 460.434 948.229 460.434 942.029C460.434 935.828 455.408 930.801 449.209 930.801C443.009 930.801 437.983 935.828 437.983 942.029C437.983 948.229 443.009 953.256 449.209 953.256Z" fill="#232144"/><path d="M387.781 339.164C386.43 321.387 399.734 306.001 417.507 304.649C435.281 303.298 450.664 316.605 452.015 334.382C453.366 352.159 431.747 379.501 431.747 379.501C431.747 379.501 389.132 356.837 387.781 339.164Z" fill="#891229"/><path d="M577.261 334.278C578.404 319.1 566.971 305.793 551.796 304.649C536.621 303.506 523.317 314.941 522.174 330.119C521.03 345.298 539.635 368.793 539.635 368.793C539.635 368.793 576.118 349.456 577.261 334.278Z" fill="#F7C7A1"/><path d="M442.453 347.896L385.183 548.021L349.428 539.392L388.612 329.184L442.453 347.896Z" fill="#891229"/><path d="M519.056 343.843L657.502 505.605L686.708 481.487L571.96 315.773L519.056 343.843Z" fill="#891229"/><path d="M702.299 533.776L698.037 501.133L692.84 501.861V501.653L682.238 502.484L684.109 526.603L679.744 548.747C679.224 551.658 681.095 554.361 683.901 554.984C684.005 554.984 684.005 554.984 684.109 554.984C684.421 556.856 685.668 558.415 687.539 559.143C690.346 560.078 693.36 558.727 694.295 555.92L702.299 533.776Z" fill="#BF7461"/><path d="M420.21 731.196L406.594 559.141C405.347 542.923 417.3 528.785 433.514 527.433L449.313 526.082C466.567 524.626 481.43 538.453 481.118 555.815L478.935 729.221C478.727 745.335 465.631 758.33 449.521 758.33C434.242 758.33 421.457 746.478 420.21 731.196Z" fill="#BF7461"/><path d="M479.04 729.223C478.832 745.337 465.736 758.332 449.625 758.332C434.242 758.332 421.458 746.48 420.314 731.198L479.04 729.223Z" fill="#232144"/><path d="M491.199 525.98L539.738 976.234H576.013L563.021 527.956L491.199 525.98Z" fill="#BF7461"/><path d="M424.575 450.092L417.3 304.547H549.717L542.546 450.092H424.575Z" fill="#891229"/><path d="M458.875 256.93C458.875 251.524 454.51 247.262 449.209 247.262C443.804 247.262 439.543 251.628 439.543 256.93C439.543 262.336 443.908 266.598 449.209 266.598C454.614 266.598 458.875 262.232 458.875 256.93Z" fill="#BF7461"/><path d="M508.661 256.93C508.661 251.524 513.027 247.262 518.327 247.262C523.732 247.262 527.994 251.628 527.994 256.93C527.994 262.336 523.628 266.598 518.327 266.598C513.027 266.598 508.661 262.232 508.661 256.93Z" fill="#BF7461"/><path d="M506.998 314.319V284.274L460.745 284.066V314.215C460.745 327.002 471.139 337.398 483.923 337.398C496.708 337.398 506.998 327.106 506.998 314.319Z" fill="#A86554"/><path d="M474.465 202.977H493.174C504.815 202.977 514.377 212.437 514.377 224.185V274.086C514.377 285.729 504.919 295.294 493.174 295.294H474.465C462.824 295.294 453.262 285.833 453.262 274.086V224.185C453.366 212.437 462.824 202.977 474.465 202.977Z" fill="#BF7461"/><path d="M455.341 241.235L469.684 236.037C473.946 234.477 478.935 236.868 479.247 240.819C479.247 240.923 479.247 241.131 479.247 241.235H455.341Z" fill="#181111"/><path d="M512.611 241.235L498.267 236.037C494.006 234.477 489.017 236.868 488.705 240.819C488.705 240.923 488.705 241.131 488.705 241.235H512.611Z" fill="#181111"/><path d="M483.196 267.745C481.533 267.745 480.286 267.018 479.143 266.29C477.479 265.251 476.44 264.627 474.569 266.29L473.634 265.251C476.232 262.964 478.207 264.108 479.87 265.147C480.909 265.771 481.949 266.394 483.196 266.394C484.339 266.394 485.275 265.771 486.21 265.147C487.769 264.108 489.64 262.86 491.927 265.355L490.888 266.29C489.432 264.627 488.497 265.251 486.938 266.29C485.899 266.914 484.651 267.745 483.196 267.745Z" fill="#1D1D1B"/><path d="M448.897 934.24C443.284 934.24 438.607 929.873 438.191 924.363L426.238 767.071C425.719 760.833 430.708 755.531 436.944 755.531H460.85C467.086 755.531 472.075 760.833 471.556 767.071L459.603 924.363C459.187 929.873 454.51 934.24 448.897 934.24Z" fill="#232144"/><path d="M478.207 976.237C478.207 960.019 465.007 946.816 448.792 946.816C432.578 946.816 419.378 960.019 419.378 976.237H478.207Z" fill="#232144"/><path d="M878.682 941.823C876.499 932.986 874.316 879.447 872.03 822.684C869.847 768.625 867.664 712.59 865.481 703.961L867.456 703.441C869.639 712.278 871.822 765.818 874.108 822.58C876.291 876.64 878.474 932.674 880.656 941.303L878.682 941.823Z" fill="#E73245"/><path d="M869.327 941.929C868.392 933.093 867.353 876.642 866.417 821.959C865.482 767.38 864.442 710.929 863.507 702.196L865.586 701.988C866.521 710.825 867.56 767.276 868.496 821.959C869.431 876.538 870.471 932.989 871.406 941.721L869.327 941.929Z" fill="#F7931E"/><path d="M873.069 941.929C871.614 933.092 870.263 879.241 868.808 822.27C867.457 767.795 866.002 711.552 864.65 702.82L866.729 702.508C868.184 711.344 869.535 765.196 870.991 822.166C872.342 876.642 873.797 932.884 875.148 941.617L873.069 941.929Z" fill="#7070FF"/><path d="M863.714 942.031C863.506 933.195 863.194 876.848 862.986 822.269C862.778 767.69 862.571 711.343 862.259 702.506L864.338 702.402C864.545 711.239 864.857 767.586 865.065 822.165C865.273 876.744 865.481 933.091 865.793 941.928L863.714 942.031Z" fill="#ED1E79"/><path d="M672.138 518.492L864.621 711.016L869.986 705.649L677.503 513.125L672.138 518.492Z" fill="#232144"/><path d="M492.238 252.879L493.693 253.399L494.213 253.607L494.109 253.815C494.109 253.711 494.213 253.711 494.213 253.607C500.138 244.978 506.894 246.433 510.324 247.993L511.467 246.225C499.826 241.651 494.525 249.448 492.238 252.879Z" fill="#241F20"/><path d="M502.217 250.697C502.945 248.722 505.127 247.682 507.102 248.306C507.934 248.618 508.557 249.138 508.973 249.761C509.597 249.034 510.012 248.41 510.324 247.994C506.894 246.435 500.138 244.979 494.214 253.608C495.877 254.128 499.307 254.959 502.737 254.024C502.009 253.088 501.801 251.84 502.217 250.697Z" fill="white"/><path d="M453.262 244.352H450.768V271.901H453.262V244.352Z" fill="#181111"/><path d="M533.502 934.547H577.676L578.923 948.686L629.541 968.438V976.235H538.907L533.502 934.547Z" fill="#F7E5CD"/><path d="M673.196 543.134C676.106 543.238 678.601 540.951 678.705 538.04L680.056 506.228L669.454 505.812L668.103 537.624C667.999 540.535 670.286 543.03 673.196 543.134Z" fill="#BF7461"/><path d="M545.04 872.585C547.431 867.699 551.172 863.437 555.642 860.422C553.251 865.308 549.509 869.466 545.04 872.585Z" fill="#891229"/><path d="M546.391 878.305C550.444 871.34 555.641 865.102 561.877 860.008C557.824 866.973 552.523 873.211 546.391 878.305Z" fill="#891229"/><path d="M551.172 879.343C553.562 874.457 557.304 870.195 561.774 867.18C559.487 872.17 555.745 876.328 551.172 879.343Z" fill="#891229"/><path d="M485.171 275.226C482.573 275.745 474.777 276.889 474.777 276.889C474.777 276.889 479.351 281.359 483.82 283.023C487.562 284.478 491.615 283.438 494.214 281.359C497.852 278.448 500.138 272.73 500.138 272.73C500.138 272.73 492.759 273.978 490.264 274.394C489.225 274.602 488.289 275.122 487.874 276.057V275.953C487.146 275.122 486.107 275.018 485.171 275.226Z" fill="#891229"/><path d="M478.312 277.725L484.548 276.685C485.691 276.477 486.938 276.685 487.874 277.309L488.186 277.517C488.913 276.477 490.161 275.75 491.512 275.646L497.228 274.918C497.228 274.918 493.59 280.74 488.913 281.571C483.508 282.403 478.312 277.725 478.312 277.725Z" fill="white"/><path d="M572.895 588.568L571.232 545.32C567.594 467.038 542.752 439.488 542.752 439.488H423.743C423.743 439.488 405.242 471.196 398.174 535.34C397.447 541.37 397.135 547.503 397.135 553.637V588.568H572.895Z" fill="#891229"/><path d="M571.96 315.773L531.632 379.397C525.707 388.753 511.883 388.338 506.582 378.565L483.924 337.293C483.924 337.293 507.102 339.684 507.102 304.441H549.821C549.717 304.545 563.852 303.714 571.96 315.773Z" fill="#ED1E79"/><path d="M395.889 315.253L437.256 379.397C443.181 388.753 457.004 388.338 462.305 378.565L484.964 337.293C484.964 337.293 460.746 339.684 460.746 304.441H419.171C419.171 304.545 405.763 303.818 395.889 315.253Z" fill="#ED1E79"/><path d="M500.657 202.977H466.669C458.354 202.977 451.702 209.63 451.702 217.947V235.412H515.624V217.947C515.624 209.734 508.972 202.977 500.657 202.977Z" fill="#181111"/><path d="M474.882 215.968H457.836C454.614 215.968 452.016 213.369 452.016 210.146V203.701C452.016 200.478 454.614 197.879 457.836 197.879H474.882C478.104 197.879 480.703 200.478 480.703 203.701V210.146C480.703 213.369 478.104 215.968 474.882 215.968Z" fill="#ED1E79"/><path d="M509.388 215.968H492.342C489.12 215.968 486.521 213.369 486.521 210.146V203.701C486.521 200.478 489.12 197.879 492.342 197.879H509.388C512.61 197.879 515.208 200.478 515.208 203.701V210.146C515.208 213.369 512.61 215.968 509.388 215.968Z" fill="#ED1E79"/><path d="M473.634 214.102H459.291C456.692 214.102 454.613 212.023 454.613 209.424V204.538C454.613 201.939 456.692 199.859 459.291 199.859H473.634C476.232 199.859 478.311 201.939 478.311 204.538V209.424C478.311 212.023 476.129 214.102 473.634 214.102Z" fill="#232144"/><path d="M508.037 214.102H493.694C491.095 214.102 489.017 212.023 489.017 209.424V204.538C489.017 201.939 491.095 199.859 493.694 199.859H508.037C510.636 199.859 512.715 201.939 512.715 204.538V209.424C512.715 212.023 510.636 214.102 508.037 214.102Z" fill="#232144"/><path d="M487.769 205.262H479.974V208.588H487.769V205.262Z" fill="#ED1E79"/><path d="M457.523 247.784C458.355 249.135 460.746 252.462 464.487 253.813C464.487 252.254 465.423 250.695 467.086 250.175C469.061 249.447 471.243 250.487 471.971 252.566C472.179 252.982 472.179 253.502 472.179 254.021C472.802 253.917 473.322 253.709 473.738 253.606C467.709 244.561 460.953 246.12 457.523 247.784Z" fill="white"/><path d="M456.484 246.014L457.524 247.677C461.058 246.118 467.71 244.455 473.738 253.291L475.713 252.772C472.907 247.781 466.255 241.544 456.484 246.014Z" fill="#241F20"/><path d="M471.866 252.462C471.139 250.487 468.956 249.448 466.981 250.071C465.422 250.591 464.383 252.15 464.383 253.709C464.383 253.709 464.383 253.709 464.487 253.709C467.189 254.644 470.099 254.333 472.074 253.813" fill="#241F20"/><path d="M508.973 249.757C508.558 249.134 507.934 248.614 507.102 248.302C505.128 247.574 502.945 248.614 502.217 250.693C501.802 251.837 502.009 253.084 502.633 254.124C502.841 254.124 502.945 254.02 503.153 254.02C505.751 253.084 507.726 251.213 508.973 249.757Z" fill="#241F20"/></svg>