<svg viewBox="0 0 2826 1200" fill="none" xmlns="http://www.w3.org/2000/svg"><path d="M1896.2 525.417L2037.09 402.332L2019 354.809L1879.66 505.93L1861.15 523.874H1860.87V524.155L1860.59 524.435L1860.73 524.575L1854.28 555.276L1860.31 577.286C1861.01 580.09 1863.96 581.632 1866.62 580.931C1868.44 580.37 1869.84 578.968 1870.26 577.146C1870.4 577.146 1870.4 577.146 1870.54 577.146C1873.35 576.865 1875.45 574.202 1875.03 571.398L1872.51 549.809C1873.07 546.164 1873.63 542.379 1873.91 540.977C1874.33 538.734 1876.85 538.454 1877.69 540.136L1877.41 547.286C1877.41 547.566 1877.41 547.706 1877.41 547.706V547.566L1876.99 560.884C1876.85 563.688 1879.1 566.071 1882.04 566.211C1884.84 566.351 1887.23 564.108 1887.37 561.164L1887.93 544.903L1896.2 525.417Z" fill="#FFA28F"/><path d="M2148.26 398.962L2200.41 566.626L2225.64 562.42L2182.04 359.289L2148.26 398.962Z" fill="#FFA28F"/><path d="M2191.85 601.115C2194.38 602.517 2197.6 601.676 2199 599.152L2214.7 571.816L2205.59 566.629L2189.89 593.965C2188.49 596.489 2189.33 599.573 2191.85 601.115Z" fill="#FFA28F"/><path d="M2231.39 583.873L2231.25 583.453L2231.39 583.172L2231.11 583.032L2224.52 557.098L2200.83 560.462L2196.76 587.659L2205.03 586.677L2204.47 594.948C2204.47 594.948 2206.43 590.602 2207.28 589.201C2208.96 586.537 2211.9 588.359 2211.06 590.883C2210.64 591.864 2209.8 593.967 2208.68 596.49L2199.14 597.752C2196.34 598.173 2194.24 600.696 2194.66 603.64C2194.66 603.78 2194.66 603.78 2194.66 603.92C2192.98 604.761 2191.85 606.444 2191.85 608.406C2191.85 611.35 2194.1 613.733 2197.04 613.733L2220.17 614.154V613.593H2220.31L2223.4 605.042V604.902L2231.11 583.593L2231.39 583.873Z" fill="#FFA28F"/><path d="M2211.2 633.218V592.984C2211.2 590.18 2208.96 587.797 2206.01 587.797C2203.07 587.797 2200.83 590.04 2200.83 592.984V633.218H2186.95V726.302C2186.95 729.106 2189.19 731.349 2191.99 731.349H2219.89C2222.7 731.349 2224.94 729.106 2224.94 726.302V633.218H2211.2Z" fill="#FF6200"/><path d="M2117.28 342.05V306.723H2072.13V342.05H2117.28Z" fill="#7070FF"/><path d="M2063.81 349.766L2125.49 349.766L2125.49 319.065L2063.81 319.065L2063.81 349.766Z" fill="#7070FF"/><path d="M2094.98 254.994C2107.99 254.994 2118.54 244.449 2118.54 231.442C2118.54 218.435 2107.99 207.891 2094.98 207.891C2081.98 207.891 2071.43 218.435 2071.43 231.442C2071.43 244.449 2081.98 254.994 2094.98 254.994Z" fill="#BF852E"/><path d="M2063.72 298.592C2068.76 298.592 2072.84 294.512 2072.84 289.479C2072.84 284.447 2068.76 280.367 2063.72 280.367C2058.69 280.367 2054.61 284.447 2054.61 289.479C2054.61 294.512 2058.69 298.592 2063.72 298.592Z" fill="#9E3F39"/><path d="M2125.68 298.592C2130.72 298.592 2134.8 294.512 2134.8 289.479C2134.8 284.447 2130.72 280.367 2125.68 280.367C2120.65 280.367 2116.57 284.447 2116.57 289.479C2116.57 294.512 2120.65 298.592 2125.68 298.592Z" fill="#9E3F39"/><path d="M2124.56 303.356V261.3C2124.56 247.982 2113.77 237.188 2100.45 237.188H2088.82C2075.5 237.188 2064.7 247.982 2064.7 261.3V303.356C2064.7 316.674 2075.5 327.468 2088.82 327.468H2100.45C2113.77 327.468 2124.56 316.674 2124.56 303.356Z" fill="#FFA28F"/><path d="M2094.85 299.712C2094.14 299.712 2093.58 299.572 2092.88 299.291C2092.46 299.151 2092.18 298.871 2091.76 298.45C2091.48 298.17 2090.92 297.609 2090.08 297.609C2089.38 297.609 2088.68 297.89 2087.84 298.591L2087 297.749C2087.98 296.768 2088.96 296.348 2090.08 296.348C2091.34 296.348 2092.18 297.189 2092.6 297.609C2092.88 297.89 2093.16 298.03 2093.44 298.17C2094 298.45 2094.85 298.591 2095.69 298.45C2096.53 298.31 2097.37 297.89 2098.07 297.189C2098.77 296.488 2099.61 296.207 2100.45 296.348C2102 296.488 2102.98 297.89 2103.12 297.89L2102.14 298.591C2102.14 298.591 2101.29 297.609 2100.31 297.469C2099.75 297.469 2099.33 297.609 2098.77 298.03C2097.93 298.871 2096.95 299.432 2095.83 299.572C2095.41 299.572 2095.13 299.712 2094.85 299.712Z" fill="#171111"/><path d="M2094.56 308.544C2094.56 306.021 2098.49 306.301 2098.49 306.301H2107.32C2107.18 305.74 2094.84 325.366 2081.81 306.301H2090.64C2090.64 306.301 2094.56 306.021 2094.56 308.544Z" fill="#FF6200"/><path d="M2086.99 285.976C2080.97 278.686 2074.24 281.35 2072.98 282.191C2072.98 282.191 2072.83 282.051 2072.83 281.911C2073.26 282.752 2074.94 285.696 2078.58 286.957C2082.79 288.359 2087.83 286.957 2087.83 286.957C2087.41 286.537 2087.27 286.397 2086.99 285.976Z" fill="white"/><path d="M2071.57 279.809C2071.85 280.37 2072.42 281.351 2072.84 281.912C2072.84 281.912 2072.98 282.052 2072.98 282.192C2074.24 281.351 2080.97 278.687 2086.99 285.977C2087.42 286.398 2087.42 286.538 2087.98 287.099C2086.85 279.528 2077.32 276.304 2071.57 279.809Z" fill="black"/><path d="M2081.39 283.59C2081.39 282.188 2080.55 281.066 2079.42 280.365C2078.02 280.225 2076.62 280.506 2075.5 280.786C2074.66 281.487 2074.1 282.468 2074.1 283.59V283.73C2075.08 284.851 2076.48 286.253 2078.58 286.954H2078.72C2080.26 286.534 2081.39 285.272 2081.39 283.59Z" fill="black"/><path d="M2117.42 282.047C2116.15 281.205 2109.42 278.542 2103.4 285.832C2102.98 286.252 2102.98 286.392 2102.42 286.953C2102.42 286.953 2107.46 288.355 2111.67 286.953C2115.31 285.691 2116.99 282.607 2117.42 281.906C2117.56 281.906 2117.42 282.047 2117.42 282.047Z" fill="white"/><path d="M2102.42 286.956C2102.98 286.535 2102.98 286.255 2103.4 285.834C2109.42 278.545 2116.15 281.208 2117.42 282.049C2117.42 282.049 2117.56 281.909 2117.56 281.769C2117.98 281.208 2118.54 280.227 2118.82 279.666C2113.07 276.302 2103.54 279.386 2102.42 286.956Z" fill="black"/><path d="M2099.49 273.879L2119.4 273.879L2119.4 270.234L2099.49 270.234L2099.49 273.879Z" fill="#171111"/><path d="M2069.76 273.879L2089.67 273.879L2089.67 270.234L2069.76 270.234L2069.76 273.879Z" fill="#171111"/><path d="M2124.42 273.917C2123.86 261.02 2113.35 250.786 2100.45 250.786H2096.39V243.216H2092.88V250.786H2088.82C2075.92 250.786 2065.41 261.02 2064.84 273.917H2060.08V259.898C2060.08 245.319 2071.85 233.543 2086.43 233.543H2102.84C2117.41 233.543 2129.19 245.319 2129.19 259.898V273.917H2124.42Z" fill="#BF852E"/><path d="M2055.31 273.922H2057.56V255.978C2057.56 243.081 2068.07 232.707 2080.83 232.707H2109.14C2122.04 232.707 2132.42 243.221 2132.42 255.978V273.922H2134.1C2137.46 273.922 2140.27 276.726 2140.27 280.09V295.791C2140.27 299.156 2137.46 301.96 2134.1 301.96H2124.56V274.062H2128.07V256.118C2128.07 245.744 2119.52 237.193 2109.14 237.193H2080.83C2070.45 237.193 2061.9 245.744 2061.9 256.118V274.062H2064.7V301.96H2055.17C2051.81 301.96 2049 299.156 2049 295.791V280.09C2049.14 276.586 2051.95 273.922 2055.31 273.922Z" fill="#232144"/><path d="M2140.97 966.442L2148.26 900.273H2103.12L2102.7 981.302C2101.15 984.806 2100.31 988.591 2100.31 992.657H2102.56H2138.02H2157.79C2157.79 981.021 2150.92 971.068 2140.97 966.442Z" fill="#FF6200"/><path d="M2084.75 981.302L2084.33 900.273H2039.19V900.554L2046.48 966.442C2036.53 970.928 2029.66 980.881 2029.66 992.517H2049.42H2084.89H2087.13C2087.13 988.591 2086.29 984.806 2084.75 981.302Z" fill="#FF6200"/><path d="M2010.73 555.552C2016.62 491.487 2037.37 468.496 2037.37 468.496H2153.58C2153.58 468.496 2171.39 498.636 2178.4 560.179L2200.41 876.021C2202.79 909.806 2176.29 938.684 2142.51 939.525H2044.94C2011.01 938.684 1984.66 909.806 1987.04 876.021L2010.73 555.552Z" fill="#D8CBC5"/><path d="M2189.89 370.507C2191.15 353.124 2178.26 338.124 2160.87 336.722C2143.49 335.46 2128.49 348.357 2127.09 365.741C2125.83 383.124 2146.99 409.759 2146.99 409.759C2146.99 409.759 2188.63 387.75 2189.89 370.507Z" fill="#7070FF"/><path d="M2001.06 361.954C2004.42 344.851 2020.97 333.777 2037.93 337.141C2055.03 340.506 2066.11 357.048 2062.74 374.01C2059.38 391.113 2031.9 411.16 2031.9 411.16C2031.9 411.16 1997.69 379.057 2001.06 361.954Z" fill="#7070FF"/><path d="M2064.84 298.312C2070.03 298.312 2074.24 294.107 2074.24 288.92C2074.24 283.733 2070.03 279.527 2064.84 279.527C2059.66 279.527 2055.45 283.733 2055.45 288.92C2055.45 294.107 2059.66 298.312 2064.84 298.312Z" fill="#FFA28F"/><path d="M2103.82 284.574C2104.24 286.116 2105.64 287.237 2107.32 287.237C2109.28 287.237 2110.97 285.555 2110.97 283.592C2110.97 282.331 2110.41 281.209 2109.42 280.648C2109.28 280.648 2109 280.789 2108.86 280.789C2106.62 281.49 2104.94 283.172 2103.82 284.574Z" fill="black"/><path d="M2157.93 468.638L2158.49 336.582H2031.34L2032.46 468.638H2157.93Z" fill="#7070FF"/><path d="M1152.09 404.577L1115.92 389.577L1143.39 361.82L1168.07 385.091L1152.09 404.577Z" fill="#FFD4A9"/><path d="M1609.66 515.33L1643.58 521.639L1643.44 487.293L1616.53 491.078L1609.66 515.33Z" fill="#FFD4A9"/><path d="M1638.25 496.415L1667.22 510.566L1671.77 501.246L1642.8 487.094L1638.25 496.415Z" fill="#FFD4A9"/><path d="M1635.47 500.577L1663.61 516.309L1668.67 507.253L1640.53 491.522L1635.47 500.577Z" fill="#FFD4A9"/><path d="M1651.71 514.768C1651.71 514.768 1647.65 512.245 1646.39 511.404C1643.86 509.441 1646.1 506.777 1648.49 507.899C1650.03 508.74 1654.94 511.544 1658.58 513.366C1652.55 506.076 1644.84 493.039 1644.84 493.039L1637.13 512.104L1651.71 514.768Z" fill="#FFD4A9"/><path d="M1322.41 992.524L1316.67 905.047H1362.93V992.524H1322.41Z" fill="#FFD4A9"/><path d="M1362.79 990.008H1306.71V1003.33H1362.79V990.008Z" fill="#232144"/><path d="M1362.93 991.127C1362.93 977.528 1350.31 966.594 1334.89 966.594C1319.33 966.594 1306.85 977.528 1306.85 991.127" fill="#232144"/><path d="M1453.21 974.719L1435.12 904.625L1490.08 905.046L1498.49 975.56L1453.21 974.719Z" fill="#FFD4A9"/><path d="M1549.38 986.777H1450.96V1003.18H1549.38V986.777Z" fill="#232144"/><path d="M1450.68 986.78V967.294L1453.91 968.416C1467.65 972.902 1482.79 971.079 1495.12 963.509L1496.52 962.668L1541.24 975.986C1546.01 977.388 1549.24 981.874 1549.24 986.78H1450.68Z" fill="#232144"/><path d="M1448.16 551.082L1437.51 510.988H1306.43V534.68V581.502V951.317H1373.3V581.643H1381.85L1439.05 950.475H1500.17L1448.16 551.082Z" fill="#463EC5"/><path d="M1437.51 345.141L1395.45 333.926H1349.05L1301.11 345.141V515.468H1437.51V345.141Z" fill="#232144"/><path d="M1341.06 300.139C1346.4 300.139 1350.73 295.808 1350.73 290.466C1350.73 285.124 1346.4 280.793 1341.06 280.793C1335.72 280.793 1331.39 285.124 1331.39 290.466C1331.39 295.808 1335.72 300.139 1341.06 300.139Z" fill="#FFD4A9"/><path d="M1404.56 300.139C1409.9 300.139 1414.24 295.808 1414.24 290.466C1414.24 285.124 1409.9 280.793 1404.56 280.793C1399.22 280.793 1394.89 285.124 1394.89 290.466C1394.89 295.808 1399.22 300.139 1404.56 300.139Z" fill="#FFD4A9"/><path d="M1396.57 344.021V306.871L1349.05 307.011V344.021C1349.05 353.694 1356.9 361.544 1366.57 361.544H1379.19C1388.72 361.544 1396.57 353.694 1396.57 344.021Z" fill="#FFBD7A"/><path d="M1404.7 302.946V258.927C1404.7 244.768 1393.21 233.133 1378.91 233.133H1366.71C1352.55 233.133 1340.92 244.628 1340.92 258.927V302.946C1340.92 317.105 1352.41 328.741 1366.71 328.741H1378.91C1393.07 328.6 1404.7 317.105 1404.7 302.946Z" fill="#FFD4A9"/><path d="M1379.19 274.488C1385.08 267.339 1394.75 265.937 1400.64 274.067L1379.19 274.488Z" fill="#FF6200"/><path d="M1367.83 273.644C1361.95 266.495 1352.27 265.093 1346.39 273.224L1367.83 273.644Z" fill="#FF6200"/><path d="M1344.42 254.578H1340.92V303.503H1344.42V254.578Z" fill="#FF6200"/><path d="M1404.7 255H1401.2V303.785H1404.7V255Z" fill="#FF6200"/><path d="M1340.92 324.111V303.363H1404.56V324.111C1404.56 340.233 1391.53 353.41 1375.26 353.41H1370.08C1354.1 353.27 1340.92 340.233 1340.92 324.111Z" fill="#FF6200"/><path d="M1372.74 301.681C1371.2 301.681 1370.08 300.98 1369.1 300.279C1367.41 299.158 1366.43 298.597 1364.33 300.56L1362.93 299.158C1366.01 296.074 1368.25 297.476 1370.08 298.597C1370.92 299.158 1371.76 299.719 1372.74 299.719C1373.72 299.719 1374.56 299.158 1375.4 298.737C1377.09 297.756 1379.19 296.354 1382.69 299.298L1381.43 300.7C1378.91 298.597 1377.93 299.298 1376.39 300.279C1375.4 300.98 1374.28 301.681 1372.74 301.681Z" fill="black"/><path d="M1381.15 286.119C1381.57 287.941 1384.94 288.922 1388.72 288.222C1392.51 287.521 1395.31 285.278 1394.89 283.455C1394.47 281.633 1391.1 280.651 1387.32 281.352C1383.67 282.053 1380.87 284.156 1381.15 286.119Z" fill="white"/><path d="M1386.9 284.442C1386.9 286.405 1388.44 287.947 1390.4 287.947C1392.37 287.947 1393.91 286.405 1393.91 284.442C1393.91 282.48 1392.37 280.938 1390.4 280.938C1388.58 280.938 1386.9 282.48 1386.9 284.442Z" fill="black"/><path d="M1363.63 286.119C1363.21 287.941 1359.84 288.922 1356.06 288.222C1352.27 287.521 1349.47 285.278 1349.89 283.455C1350.31 281.633 1353.67 280.651 1357.46 281.352C1361.24 282.053 1364.05 284.156 1363.63 286.119Z" fill="white"/><path d="M1362.23 285.286C1362.23 287.249 1360.69 288.791 1358.72 288.791C1356.76 288.791 1355.22 287.249 1355.22 285.286C1355.22 283.323 1356.76 281.781 1358.72 281.781C1360.69 281.781 1362.23 283.323 1362.23 285.286Z" fill="black"/><path d="M2157.93 992.664H2100.45V1003.32H2157.93V992.664Z" fill="#FF6200"/><path d="M2029.68 1003.24L2087.16 1003.24L2087.16 992.584L2029.68 992.584L2029.68 1003.24Z" fill="#FF6200"/><path d="M1732.04 711.591C1796.84 711.591 1849.38 659.058 1849.38 594.255C1849.38 529.451 1796.84 476.918 1732.04 476.918C1667.24 476.918 1614.7 529.451 1614.7 594.255C1614.7 659.058 1667.24 711.591 1732.04 711.591Z" fill="#FBB03B"/><path d="M1732.46 692.664C1678.63 692.524 1635.03 648.505 1635.17 594.673C1635.31 540.841 1679.33 497.243 1733.16 497.383C1786.99 497.523 1830.59 541.542 1830.45 595.374C1830.31 649.206 1786.29 692.944 1732.46 692.664ZM1733.16 504.953C1683.54 504.813 1642.88 545.047 1642.74 594.673C1642.6 644.299 1682.83 684.954 1732.46 685.094C1782.09 685.234 1822.74 645 1822.88 595.374C1823.02 545.748 1782.79 505.234 1733.16 504.953Z" fill="#F7931E"/><path d="M1743.12 605.747C1743.12 607.149 1742.55 607.85 1741.15 607.85L1718.86 607.71C1721.11 618.224 1726.99 625.093 1738.77 625.093C1744.1 625.093 1748.86 623.691 1752.79 622.289C1754.47 621.729 1755.45 621.729 1756.01 622.99L1759.1 629.579C1759.94 631.401 1759.52 632.383 1758.12 633.084C1752.23 636.168 1744.66 638.13 1736.25 637.99C1718.02 637.99 1706.53 626.355 1703.16 607.429H1695.31C1693.91 607.429 1693.35 606.729 1693.35 605.327V599.579C1693.35 598.177 1693.91 597.476 1695.31 597.476H1702.04V594.112C1702.04 592.57 1702.04 591.028 1702.18 589.345H1696.01C1694.61 589.345 1694.05 588.785 1694.05 587.242V581.495C1694.05 580.093 1694.61 579.392 1696.01 579.392H1703.44C1707.37 561.168 1718.86 548.551 1737.79 548.551C1747.04 548.551 1753.63 550.934 1758.4 554.439C1759.8 555.56 1760.08 556.541 1759.38 557.943L1756.01 564.112C1755.17 565.513 1753.91 566.214 1752.51 565.233C1747.74 562.57 1744.66 561.168 1739.05 561.168C1728.68 561.168 1721.81 567.336 1718.86 579.392L1741.85 579.532C1743.26 579.532 1743.82 580.093 1743.82 581.635V587.383C1743.82 588.785 1743.26 589.485 1741.85 589.485L1717.6 589.345C1717.46 590.747 1717.46 592.149 1717.46 593.411V597.336L1741.15 597.476C1742.55 597.476 1743.12 598.037 1743.12 599.579V605.747Z" fill="white"/><path d="M1046.95 414.674C1111.75 414.674 1164.28 362.14 1164.28 297.337C1164.28 232.533 1111.75 180 1046.95 180C982.142 180 929.608 232.533 929.608 297.337C929.608 362.14 982.142 414.674 1046.95 414.674Z" fill="#FBB03B"/><path d="M1047.37 395.75C993.535 395.61 949.936 351.591 950.077 297.759C950.217 243.927 994.236 200.329 1048.07 200.469C1101.9 200.609 1145.5 244.628 1145.36 298.46C1145.22 352.292 1101.2 396.03 1047.37 395.75ZM1048.07 208.039C998.441 207.899 957.787 248.133 957.647 297.759C957.506 347.385 997.74 388.04 1047.37 388.18C1096.99 388.32 1137.65 348.086 1137.79 298.46C1138.07 248.834 1097.69 208.32 1048.07 208.039Z" fill="#F7931E"/><path d="M1058.02 308.833C1058.02 310.235 1057.46 310.936 1056.06 310.936L1033.77 310.796C1036.01 321.31 1041.9 328.179 1053.67 328.179C1059 328.179 1063.77 326.777 1067.69 325.375C1069.38 324.814 1070.36 324.814 1070.92 326.076L1074 332.665C1074.84 334.487 1074.42 335.469 1073.02 336.17C1067.13 339.254 1059.56 341.216 1051.15 341.076C1032.93 341.076 1021.43 329.441 1018.07 310.515H1010.22C1008.81 310.515 1008.25 309.814 1008.25 308.413V302.665C1008.25 301.263 1008.81 300.562 1010.22 300.562H1016.95V297.198C1016.95 295.656 1016.95 294.113 1017.09 292.431H1010.92C1009.52 292.431 1008.95 291.87 1008.95 290.328V284.581C1008.95 283.179 1009.52 282.478 1010.92 282.478H1018.35C1022.27 264.254 1033.77 251.637 1052.69 251.637C1061.95 251.637 1068.53 254.02 1073.3 257.525C1074.7 258.646 1074.98 259.627 1074.28 261.029L1070.92 267.198C1070.08 268.599 1068.81 269.3 1067.41 268.319C1062.65 265.655 1059.56 264.254 1053.95 264.254C1043.58 264.254 1036.71 270.422 1033.77 282.478L1056.76 282.618C1058.16 282.618 1058.72 283.179 1058.72 284.721V290.469C1058.72 291.87 1058.16 292.571 1056.76 292.571L1032.51 292.431C1032.37 293.833 1032.37 295.235 1032.37 296.497V300.422L1056.06 300.562C1057.46 300.562 1058.02 301.123 1058.02 302.665V308.833Z" fill="white"/><path d="M1150.96 386.069L1134.56 353.825C1133.3 351.442 1134.28 348.498 1136.67 347.377C1139.05 346.115 1141.99 347.096 1143.11 349.48L1159.52 381.723C1159.66 381.863 1159.52 382.143 1159.38 382.143L1151.38 386.209C1151.24 386.209 1151.1 386.209 1150.96 386.069Z" fill="#FFD4A9"/><path d="M1391.67 229.77H1353.96C1346.81 229.77 1340.92 235.517 1340.92 242.807V258.928H1404.56V242.807C1404.7 235.517 1398.82 229.77 1391.67 229.77Z" fill="#FF6200"/><path d="M1354.1 247.438H1350.73V261.176H1354.1V247.438Z" fill="#FFD4A9"/><path d="M1625.64 496.407L1607.97 481.547L1590.03 502.014L1609.66 515.332L1625.64 496.407Z" fill="#FFD4A9"/><path d="M1458.11 349.208L1457.97 349.348C1452.93 346.123 1448.44 345.282 1447.32 345.142L1411.15 338.133C1411.15 366.731 1377.08 385.376 1377.08 385.376L1380.03 613.32L1465.96 613.601L1452.37 417.619L1583.58 509.301L1589.89 502.152L1607.97 481.685L1616.81 471.591L1458.11 349.208Z" fill="#7070FF"/><path d="M1160.64 379.766L1143.25 400.794L1163.44 420.56L1179.56 393.083L1160.64 379.766Z" fill="#FFD4A9"/><path d="M1332.51 337.855L1296.34 345.005V345.285C1293.96 345.706 1280.64 348.37 1273.07 364.211L1237.6 420.426L1185.17 383.416L1179.56 393.229L1163.58 420.706L1158.81 428.837L1213.91 477.342C1234.1 495.005 1265.22 490.66 1279.66 467.949L1294.24 444.959L1290.45 614.165L1363.63 613.323L1366.57 385.379C1366.71 385.379 1332.51 366.454 1332.51 337.855Z" fill="#7070FF"/><path d="M1663.49 529.904C1665.17 527.661 1664.61 524.297 1662.37 522.615L1637.27 504.25L1631.1 512.661L1656.2 531.026C1658.58 532.708 1661.81 532.287 1663.49 529.904Z" fill="#FFD4A9"/><path d="M2231.39 1003.46H594V1020H2231.39V1003.46Z" fill="#D8CBC5"/><path d="M783.673 402.896L799.093 449.158C801.897 457.85 810.308 463.457 819.421 462.896C831.757 462.195 840.449 450.56 837.785 438.644L821.383 363.363L783.673 402.896Z" fill="#BF7461"/><path d="M668.16 398.83L626.945 579.251L601.571 576.167L626.805 363.082L668.16 398.83Z" fill="#BF7461"/><path d="M639.981 613.737L631.29 599.859L626.243 573.223L602.411 570.84L596.944 597.055L596.804 597.195L596.944 597.475L596.804 597.896H597.084L609 627.335L626.523 642.335C628.766 644.158 631.991 644.018 633.953 641.775C635.215 640.233 635.495 638.27 634.935 636.588L635.075 636.447C637.318 634.625 637.458 631.261 635.636 629.018L621.196 612.335C619.654 608.971 617.972 605.466 617.411 604.204C616.57 602.102 618.393 600.419 620.075 601.401L624 607.569C624.14 607.849 624.14 607.989 624.14 607.989V607.849L631.29 619.345C632.832 621.728 636.056 622.569 638.439 621.027C640.823 619.345 641.523 616.12 639.981 613.737Z" fill="#BF7461"/><path d="M794.468 334.484H655.963L658.206 485.887L789.702 485.046L794.468 334.484Z" fill="#7070FF"/><path d="M729.98 995.189L733.345 968.133L764.607 968.694L776.242 993.507C776.523 999.395 771.476 1003.18 766.149 1003.46H739.373C733.766 1003.6 730.121 1001.22 729.98 995.189Z" fill="#BF7461"/><path d="M717.505 970.232L718.346 816.867L660.028 818.129L680.776 970.933L717.505 970.232Z" fill="#BF7461"/><path d="M733.066 969.814L730.543 817.711L786.338 818.272L765.309 970.375L733.066 969.814Z" fill="#BF7461"/><path d="M757.6 323.97C770.994 323.97 781.852 313.111 781.852 299.717C781.852 286.323 770.994 275.465 757.6 275.465C744.206 275.465 733.348 286.323 733.348 299.717C733.348 313.111 744.206 323.97 757.6 323.97Z" fill="#A8A8A8"/><path d="M757.598 348.921C767.354 348.921 775.262 341.013 775.262 331.257C775.262 321.502 767.354 313.594 757.598 313.594C747.843 313.594 739.935 321.502 739.935 331.257C739.935 341.013 747.843 348.921 757.598 348.921Z" fill="#A8A8A8"/><path d="M830.075 386.773L824.888 362.24C824.607 360.558 824.327 358.876 823.766 357.194C820.121 344.997 809.187 335.605 795.729 334.623C778.205 333.362 762.925 346.399 761.663 363.923C760.402 381.446 781.71 408.502 781.71 408.502C781.71 408.502 783.532 407.521 786.196 405.979L792.084 413.128L830.075 386.773Z" fill="#7070FF"/><path d="M689.747 363.925C688.486 346.401 673.205 333.224 655.682 334.626C642.224 335.607 631.289 345 627.644 357.196L627.504 357.897C627.224 359.158 626.943 360.42 626.663 361.682L621.336 386.916L659.327 413.131L665.074 405.981C667.878 407.663 669.701 408.645 669.701 408.645C669.701 408.645 691.149 381.448 689.747 363.925Z" fill="#7070FF"/><path d="M687.084 323.97C700.479 323.97 711.337 313.111 711.337 299.717C711.337 286.323 700.479 275.465 687.084 275.465C673.69 275.465 662.832 286.323 662.832 299.717C662.832 313.111 673.69 323.97 687.084 323.97Z" fill="#A8A8A8"/><path d="M689.887 347.382C699.643 347.382 707.551 339.474 707.551 329.718C707.551 319.963 699.643 312.055 689.887 312.055C680.132 312.055 672.224 319.963 672.224 329.718C672.224 339.474 680.132 347.382 689.887 347.382Z" fill="#A8A8A8"/><path d="M793.205 334.484H782.551V387.896H793.205V334.484Z" fill="#232144"/><path d="M667.458 334.484H656.804V387.896H667.458V334.484Z" fill="#232144"/><path d="M717.226 967.287C717.226 967.287 681.478 949.063 681.898 959.717C682.459 973.736 675.169 986.493 659.328 989.577C651.337 991.119 646.571 990.699 645.45 996.446C644.749 1000.09 647.552 1003.6 651.337 1003.46H713.581C719.048 1003.32 720.31 999.951 720.029 994.063L717.226 967.287Z" fill="#BF7461"/><path d="M754.794 298.457C759.981 298.457 764.186 294.252 764.186 289.064C764.186 283.877 759.981 279.672 754.794 279.672C749.607 279.672 745.401 283.877 745.401 289.064C745.401 294.252 749.607 298.457 754.794 298.457Z" fill="#BF7461"/><path d="M691.571 298.32C696.759 298.32 700.964 294.115 700.964 288.928C700.964 283.74 696.759 279.535 691.571 279.535C686.384 279.535 682.179 283.74 682.179 288.928C682.179 294.115 686.384 298.32 691.571 298.32Z" fill="#BF7461"/><path d="M700.121 335.188V305.328L746.243 303.926V335.188C746.243 347.945 735.869 358.318 723.112 358.318C710.495 358.318 700.121 347.945 700.121 335.188Z" fill="#A86554"/><path d="M692.692 300.984V257.946C692.692 244.348 703.767 233.273 717.365 233.273H729.281C742.879 233.273 753.954 244.348 753.954 257.946V300.984C753.954 314.582 742.879 325.657 729.281 325.657H717.365C703.627 325.657 692.692 314.582 692.692 300.984Z" fill="#BF7461"/><path d="M723.112 300.134C722.832 300.134 722.411 300.134 721.991 299.993C720.869 299.713 719.888 299.292 719.047 298.451C718.486 298.031 718.066 297.75 717.505 297.891C716.524 298.031 715.682 299.012 715.682 299.012L714.701 298.311C714.701 298.311 715.823 296.909 717.365 296.769C718.206 296.629 719.047 297.049 719.748 297.75C720.449 298.451 721.29 298.872 722.131 299.012C722.972 299.152 723.813 299.152 724.374 298.732C724.654 298.591 724.935 298.311 725.215 298.031C725.496 297.61 726.477 296.909 727.739 296.769C728.72 296.769 729.841 297.19 730.823 298.171L729.982 299.012C729.14 298.311 728.44 297.891 727.739 297.891C726.897 297.891 726.337 298.451 726.056 298.732C725.636 299.152 725.355 299.433 724.935 299.573C724.514 299.993 723.813 300.134 723.112 300.134Z" fill="#171111"/><path d="M723.253 309.111C723.253 306.447 719.187 306.868 719.187 306.868H710.075C710.215 306.307 722.832 326.354 736.15 306.868H727.038C727.318 306.868 723.253 306.588 723.253 309.111Z" fill="#232144"/><path d="M695.354 272.805L707.411 265.094C711.055 263.132 715.962 264.394 716.803 267.758C716.803 267.898 716.803 268.038 716.943 268.179L717.084 269.44L695.354 272.805Z" fill="#797878"/><path d="M751.15 272.805L739.094 265.094C735.449 263.132 730.542 264.394 729.701 267.758C729.701 267.898 729.701 268.038 729.561 268.179L729.421 269.44L751.15 272.805Z" fill="#797878"/><path d="M731.523 286.259L733.766 287.1C739.514 278.689 745.682 280.231 749.047 281.773L750.449 279.811C747.084 278.269 737.692 275.465 731.523 286.259Z" fill="black"/><path d="M698.3 281.495C698.72 282.196 700.683 285.701 704.889 287.103C708.253 288.224 711.758 287.383 713.44 286.822C707.833 278.411 701.664 279.953 698.3 281.495Z" fill="white"/><path d="M697.037 279.536L697.878 280.938L698.299 281.639C701.663 280.097 707.832 278.555 713.579 286.966L715.962 286.265C709.654 275.05 700.261 277.994 697.037 279.536Z" fill="black"/><path d="M692.693 275.185C692.693 261.587 703.767 250.512 717.225 250.512H721.291V242.942H724.936V250.512H729.001C742.599 250.512 753.534 261.587 753.534 275.185V299.718H758.3V259.764C758.3 245.045 746.244 233.129 731.384 233.129H714.702C699.842 233.129 687.786 245.045 687.786 259.764V299.297H692.553L692.693 275.185Z" fill="#C6C6C6"/><path d="M793.346 383.273V515.47H657.645L656.804 383.273H793.346Z" fill="#232144"/><path d="M747.365 367.573C747.365 381.031 757.459 391.825 757.459 391.825C757.459 391.825 767.552 380.891 767.552 367.573C767.552 354.255 757.459 343.32 757.459 343.32C757.459 343.32 747.365 354.255 747.365 367.573Z" fill="#A8A8A8"/><path d="M722.412 946.399V599.716H728.16V946.399H820.263V659.436C820.263 659.436 822.085 521.211 789.562 485.043C789.421 484.902 658.206 484.902 658.066 485.043C623.299 520.089 626.243 659.576 626.243 659.576V946.539H722.412V946.399Z" fill="#232144"/><path d="M676.991 367.573C676.991 381.031 687.085 391.825 687.085 391.825C687.085 391.825 697.178 380.891 697.178 367.573C697.178 354.255 687.085 343.32 687.085 343.32C687.085 343.32 676.991 354.255 676.991 367.573Z" fill="#A8A8A8"/><path d="M746.664 340.653C748.368 340.653 749.748 339.272 749.748 337.568C749.748 335.865 748.368 334.484 746.664 334.484C744.961 334.484 743.58 335.865 743.58 337.568C743.58 339.272 744.961 340.653 746.664 340.653Z" fill="#F7E5CD"/><path d="M746.664 346.961C748.368 346.961 749.748 345.58 749.748 343.877C749.748 342.174 748.368 340.793 746.664 340.793C744.961 340.793 743.58 342.174 743.58 343.877C743.58 345.58 744.961 346.961 746.664 346.961Z" fill="#F7E5CD"/><path d="M746.664 353.41C748.368 353.41 749.748 352.03 749.748 350.326C749.748 348.623 748.368 347.242 746.664 347.242C744.961 347.242 743.58 348.623 743.58 350.326C743.58 352.03 744.961 353.41 746.664 353.41Z" fill="#F7E5CD"/><path d="M746.664 359.719C748.368 359.719 749.748 358.338 749.748 356.635C749.748 354.932 748.368 353.551 746.664 353.551C744.961 353.551 743.58 354.932 743.58 356.635C743.58 358.338 744.961 359.719 746.664 359.719Z" fill="#F7E5CD"/><path d="M746.664 366.168C748.368 366.168 749.748 364.787 749.748 363.084C749.748 361.381 748.368 360 746.664 360C744.961 360 743.58 361.381 743.58 363.084C743.58 364.787 744.961 366.168 746.664 366.168Z" fill="#F7E5CD"/><path d="M746.664 372.477C748.368 372.477 749.748 371.096 749.748 369.393C749.748 367.689 748.368 366.309 746.664 366.309C744.961 366.309 743.58 367.689 743.58 369.393C743.58 371.096 744.961 372.477 746.664 372.477Z" fill="#F7E5CD"/><path d="M746.664 378.782C748.368 378.782 749.748 377.401 749.748 375.697C749.748 373.994 748.368 372.613 746.664 372.613C744.961 372.613 743.58 373.994 743.58 375.697C743.58 377.401 744.961 378.782 746.664 378.782Z" fill="#F7E5CD"/><path d="M746.664 385.239C748.368 385.239 749.748 383.858 749.748 382.154C749.748 380.451 748.368 379.07 746.664 379.07C744.961 379.07 743.58 380.451 743.58 382.154C743.58 383.858 744.961 385.239 746.664 385.239Z" fill="#F7E5CD"/><path d="M746.664 391.543C748.368 391.543 749.748 390.162 749.748 388.459C749.748 386.756 748.368 385.375 746.664 385.375C744.961 385.375 743.58 386.756 743.58 388.459C743.58 390.162 744.961 391.543 746.664 391.543Z" fill="#F7E5CD"/><path d="M746.664 397.852C748.368 397.852 749.748 396.471 749.748 394.768C749.748 393.064 748.368 391.684 746.664 391.684C744.961 391.684 743.58 393.064 743.58 394.768C743.58 396.471 744.961 397.852 746.664 397.852Z" fill="#F7E5CD"/><path d="M746.664 404.297C748.368 404.297 749.748 402.916 749.748 401.213C749.748 399.51 748.368 398.129 746.664 398.129C744.961 398.129 743.58 399.51 743.58 401.213C743.58 402.916 744.961 404.297 746.664 404.297Z" fill="#F7E5CD"/><path d="M746.664 417.055C748.368 417.055 749.748 415.674 749.748 413.971C749.748 412.268 748.368 410.887 746.664 410.887C744.961 410.887 743.58 412.268 743.58 413.971C743.58 415.674 744.961 417.055 746.664 417.055Z" fill="#F7E5CD"/><path d="M746.664 410.606C748.368 410.606 749.748 409.225 749.748 407.522C749.748 405.818 748.368 404.438 746.664 404.438C744.961 404.438 743.58 405.818 743.58 407.522C743.58 409.225 744.961 410.606 746.664 410.606Z" fill="#F7E5CD"/><path d="M700.121 340.653C701.825 340.653 703.205 339.272 703.205 337.568C703.205 335.865 701.825 334.484 700.121 334.484C698.418 334.484 697.037 335.865 697.037 337.568C697.037 339.272 698.418 340.653 700.121 340.653Z" fill="#F7E5CD"/><path d="M700.121 346.961C701.825 346.961 703.205 345.58 703.205 343.877C703.205 342.174 701.825 340.793 700.121 340.793C698.418 340.793 697.037 342.174 697.037 343.877C697.037 345.58 698.418 346.961 700.121 346.961Z" fill="#F7E5CD"/><path d="M700.121 353.41C701.825 353.41 703.205 352.03 703.205 350.326C703.205 348.623 701.825 347.242 700.121 347.242C698.418 347.242 697.037 348.623 697.037 350.326C697.037 352.03 698.418 353.41 700.121 353.41Z" fill="#F7E5CD"/><path d="M700.121 359.719C701.825 359.719 703.205 358.338 703.205 356.635C703.205 354.932 701.825 353.551 700.121 353.551C698.418 353.551 697.037 354.932 697.037 356.635C697.037 358.338 698.418 359.719 700.121 359.719Z" fill="#F7E5CD"/><path d="M700.121 366.168C701.825 366.168 703.205 364.787 703.205 363.084C703.205 361.381 701.825 360 700.121 360C698.418 360 697.037 361.381 697.037 363.084C697.037 364.787 698.418 366.168 700.121 366.168Z" fill="#F7E5CD"/><path d="M700.121 372.477C701.825 372.477 703.205 371.096 703.205 369.393C703.205 367.689 701.825 366.309 700.121 366.309C698.418 366.309 697.037 367.689 697.037 369.393C697.037 371.096 698.418 372.477 700.121 372.477Z" fill="#F7E5CD"/><path d="M700.121 378.782C701.825 378.782 703.205 377.401 703.205 375.697C703.205 373.994 701.825 372.613 700.121 372.613C698.418 372.613 697.037 373.994 697.037 375.697C697.037 377.401 698.418 378.782 700.121 378.782Z" fill="#F7E5CD"/><path d="M700.121 385.239C701.825 385.239 703.205 383.858 703.205 382.154C703.205 380.451 701.825 379.07 700.121 379.07C698.418 379.07 697.037 380.451 697.037 382.154C697.037 383.858 698.418 385.239 700.121 385.239Z" fill="#F7E5CD"/><path d="M700.121 391.543C701.825 391.543 703.205 390.162 703.205 388.459C703.205 386.756 701.825 385.375 700.121 385.375C698.418 385.375 697.037 386.756 697.037 388.459C697.037 390.162 698.418 391.543 700.121 391.543Z" fill="#F7E5CD"/><path d="M700.121 397.852C701.825 397.852 703.205 396.471 703.205 394.768C703.205 393.064 701.825 391.684 700.121 391.684C698.418 391.684 697.037 393.064 697.037 394.768C697.037 396.471 698.418 397.852 700.121 397.852Z" fill="#F7E5CD"/><path d="M700.121 404.297C701.825 404.297 703.205 402.916 703.205 401.213C703.205 399.51 701.825 398.129 700.121 398.129C698.418 398.129 697.037 399.51 697.037 401.213C697.037 402.916 698.418 404.297 700.121 404.297Z" fill="#F7E5CD"/><path d="M700.121 417.055C701.825 417.055 703.205 415.674 703.205 413.971C703.205 412.268 701.825 410.887 700.121 410.887C698.418 410.887 697.037 412.268 697.037 413.971C697.037 415.674 698.418 417.055 700.121 417.055Z" fill="#F7E5CD"/><path d="M746.524 423.5C748.227 423.5 749.608 422.119 749.608 420.416C749.608 418.713 748.227 417.332 746.524 417.332C744.82 417.332 743.439 418.713 743.439 420.416C743.439 422.119 744.82 423.5 746.524 423.5Z" fill="#F7E5CD"/><path d="M699.983 423.5C701.686 423.5 703.067 422.119 703.067 420.416C703.067 418.713 701.686 417.332 699.983 417.332C698.279 417.332 696.898 418.713 696.898 420.416C696.898 422.119 698.279 423.5 699.983 423.5Z" fill="#F7E5CD"/><path d="M700.121 410.606C701.825 410.606 703.205 409.225 703.205 407.522C703.205 405.818 701.825 404.438 700.121 404.438C698.418 404.438 697.037 405.818 697.037 407.522C697.037 409.225 698.418 410.606 700.121 410.606Z" fill="#F7E5CD"/><path d="M713.719 441.165H695.215C691.71 441.165 688.906 438.362 688.906 434.857V427.847C688.906 424.343 691.71 421.539 695.215 421.539H713.719C717.224 421.539 720.028 424.343 720.028 427.847V434.857C720.028 438.362 717.224 441.165 713.719 441.165Z" fill="#FF6200"/><path d="M751.29 441.165H732.785C729.28 441.165 726.477 438.362 726.477 434.857V427.847C726.477 424.343 729.28 421.539 732.785 421.539H751.29C754.794 421.539 757.598 424.343 757.598 427.847V434.857C757.598 438.362 754.794 441.165 751.29 441.165Z" fill="#FF6200"/><path d="M712.317 439.065H696.757C693.953 439.065 691.71 436.822 691.71 434.018V428.691C691.71 425.887 693.953 423.645 696.757 423.645H712.317C715.121 423.645 717.364 425.887 717.364 428.691V434.018C717.364 436.822 715.121 439.065 712.317 439.065Z" fill="#D5EFFF"/><path d="M749.888 439.065H734.187C731.384 439.065 729.141 436.822 729.141 434.018V428.691C729.141 425.887 731.384 423.645 734.187 423.645H749.748C752.552 423.645 754.795 425.887 754.795 428.691V434.018C754.935 436.822 752.692 439.065 749.888 439.065Z" fill="#D5EFFF"/><path d="M727.598 428.832H719.187V432.477H727.598V428.832Z" fill="#FF6200"/><path d="M926.805 346.539L926.384 346.118C925.403 345.137 924.001 344.716 922.599 344.997L925.123 342.193C926.665 340.37 926.525 337.707 924.702 336.165L924.282 335.744C923.02 334.623 921.478 334.483 919.936 334.903L922.459 331.959C924.001 330.137 923.861 327.473 922.039 325.931L921.618 325.511C919.796 323.969 917.132 324.109 915.59 325.931L914.468 327.193C914.468 325.931 914.048 324.67 913.067 323.828L912.646 323.408C910.824 321.866 908.16 322.006 906.618 323.828L887.973 344.997L887.833 344.856L888.814 339.109C889.235 336.445 887.553 334.062 884.889 333.501C882.225 333.081 879.842 334.763 879.281 337.427L874.515 366.165L872.412 370.371L804.982 424.903C795.73 432.474 794.608 446.212 802.599 455.184C811.01 464.576 825.73 464.436 834.001 454.904L890.496 389.997L903.113 376.959L903.253 377.1L927.085 352.427C928.487 350.885 928.487 348.221 926.805 346.539Z" fill="#BF7461"/><path d="M747.365 283.737C748.066 283.036 748.627 282.195 748.907 281.774C748.066 281.354 747.085 280.933 745.823 280.793C746.805 281.354 747.365 282.475 747.365 283.737Z" fill="white"/><path d="M739.936 282.339C740.076 281.779 740.356 281.358 740.777 280.938C738.534 281.779 736.011 283.461 733.768 286.966C735.45 287.526 738.814 288.227 742.179 287.246C740.216 286.545 739.235 284.302 739.936 282.339Z" fill="white"/><path d="M744.421 286.121C744.561 286.121 744.561 285.98 744.702 285.98C744.982 285.84 745.262 285.56 745.543 285.28C745.543 285.28 745.543 285.28 745.683 285.28C746.384 284.719 746.945 284.158 747.365 283.737C747.365 282.616 746.804 281.494 745.963 280.794C744.421 280.513 742.739 280.513 740.917 281.074C740.496 281.494 740.216 281.915 740.075 282.476C739.375 284.438 740.356 286.541 742.318 287.382C742.739 287.242 743.16 287.102 743.44 286.822C743.44 286.822 743.44 286.822 743.58 286.822C743.72 286.541 744.141 286.401 744.421 286.121Z" fill="black"/><path d="M707.831 287.242C709.921 287.242 711.616 285.547 711.616 283.457C711.616 281.366 709.921 279.672 707.831 279.672C705.741 279.672 704.046 281.366 704.046 283.457C704.046 285.547 705.741 287.242 707.831 287.242Z" fill="black"/></svg>