<svg viewBox="0 0 1600 1200" fill="none" xmlns="http://www.w3.org/2000/svg"><path d="M916.838 1020L918.303 1014.57V865.858C918.303 865.858 777.352 863.664 776.167 865.858C753.23 908.648 737.64 961.553 727.559 1020H916.827H916.838Z" fill="#232144"/><path d="M1111.46 913.055L1093.19 907.223L1078.73 963.299L1096.54 968.965L1111.46 913.055Z" fill="#FFD4A9"/><path d="M1076.23 916.626L1062.17 972.797L1080.25 977.325L1094.31 921.154L1076.23 916.626Z" fill="#FFD4A9"/><path d="M1063.96 907.787L1222.55 809.212C1224.74 808.006 1226.87 806.603 1228.93 805.012C1256.63 783.7 1256.93 741.918 1230.35 719.234L1228.76 717.883L1041.79 867.326L1063.96 907.787Z" fill="#FFD4A9"/><path d="M1116.4 1020C1099.1 958.654 1078.94 905.125 1055.49 865.859C1052.41 860.713 912.638 865.661 912.638 865.661L909.936 1014.56L911.411 1019.99H1116.42L1116.4 1020Z" fill="#232144"/><path d="M900.323 228.404L1007.71 182.152L943.184 274.885L972.108 296.893L908.107 304.961L892.029 245.62C890.127 238.603 893.671 231.263 900.343 228.394L900.323 228.404Z" fill="#D8CBC5"/><path d="M971.993 197.559L974.789 230.868L1010.06 180L971.993 197.559Z" fill="#103256"/><path d="M946.525 330.746L912.829 365.992L915.804 368.837L949.499 333.592L946.525 330.746Z" fill="#F26625"/><path d="M870.276 309.46L844.272 297.723L870.442 298.107L870.276 309.46Z" fill="#F26625"/><path d="M912.513 336.283L868.197 310.938C860.371 306.457 863.593 294.522 872.603 294.574L1060.92 295.895L972.699 338.414C953.514 347.657 931.002 346.866 912.513 336.294V336.283Z" fill="#E6E3DA"/><path d="M1038.28 295.305L1063.23 295.367L1030.32 311.075L1038.28 295.305Z" fill="#103256"/><path d="M882.756 306.179C884.741 305.772 886.02 303.832 885.612 301.847C885.205 299.862 883.266 298.582 881.281 298.989C879.297 299.396 878.018 301.336 878.425 303.322C878.832 305.307 880.771 306.586 882.756 306.179Z" fill="#103256"/><path d="M950.1 336.477L916.404 371.723L919.379 374.568L953.074 339.322L950.1 336.477Z" fill="#F26625"/><path d="M961.247 439.232L983.707 412.41C996.106 448.557 1035.06 517.67 1071.25 583.331C1033.58 575.42 996.781 576.491 961.247 590.983V439.222V439.232Z" fill="#232144"/><path d="M1142.65 570.061C1095.45 574.074 1048.26 649.258 1001.06 591.581L1001.76 451.588C1040.41 498.827 1078.37 457.846 1117.02 438.936C1148.6 423.477 1185.45 446.66 1185.45 481.84V522.655C1185.45 547.107 1167 568.003 1142.64 570.071L1142.65 570.061Z" fill="#232144"/><path d="M451.694 421.812H481.221L498.089 790.871H434.826L451.694 421.812Z" fill="#E6E3DA"/><path d="M1086.44 439.351C1044.81 439.351 1013.58 423.611 994.671 410.377C974.103 395.979 963.606 381.757 963.169 381.164C962.712 380.541 962.847 379.667 963.471 379.22C964.095 378.763 964.968 378.898 965.414 379.522C965.518 379.667 976.14 394.024 996.355 408.163C1014.91 421.137 1045.58 436.565 1086.43 436.565C1086.59 436.565 1086.74 436.565 1086.91 436.565C1087.68 436.565 1088.3 437.189 1088.3 437.958C1088.3 438.727 1087.68 439.351 1086.91 439.361H1086.42L1086.44 439.351Z" fill="#30304A"/><path d="M669.846 459.862H520.227C518.419 459.862 516.953 458.396 516.953 456.587C516.953 454.778 518.419 453.312 520.227 453.312H669.846C671.654 453.312 673.12 454.778 673.12 456.587C673.12 458.396 671.654 459.862 669.846 459.862Z" fill="#CFE4F4"/><path d="M561.601 492.171H441.373C439.565 492.171 438.1 490.705 438.1 488.896C438.1 487.087 439.565 485.621 441.373 485.621H561.601C563.409 485.621 564.875 487.087 564.875 488.896C564.875 490.705 563.409 492.171 561.601 492.171Z" fill="#AACDE5"/><path d="M831.603 501.35H710.752C708.944 501.35 707.479 499.884 707.479 498.076C707.479 496.267 708.944 494.801 710.752 494.801H831.603C833.412 494.801 834.877 496.267 834.877 498.076C834.877 499.884 833.412 501.35 831.603 501.35Z" fill="#CFE4F4"/><path d="M712.831 658.902L654.713 803.282L727.122 824.896L786.331 697.815L712.831 658.902Z" fill="#FFD4A9"/><path d="M774.962 868.144L776.084 578.406H1049.34L1055.97 868.144H774.962Z" fill="#7070FF"/><path d="M714.65 649.422C711.906 613.046 739.168 581.338 775.523 578.604C811.888 575.86 843.577 603.129 846.32 639.494C849.064 675.87 805.278 730.251 805.278 730.251C805.278 730.251 717.394 685.787 714.65 649.422Z" fill="#7070FF"/><path d="M866.535 579.048V517.535L961.33 517.681V579.048C961.33 605.236 940.108 626.465 913.927 626.465C887.747 626.465 866.524 605.236 866.524 579.048" fill="#FFBD7A"/><path d="M851.111 508.625V420.113C851.111 392.137 873.789 369.453 901.757 369.453H926.129C954.097 369.453 976.774 392.137 976.774 420.113V508.625C976.774 536.6 954.097 559.285 926.129 559.285H901.757C873.789 559.285 851.111 536.6 851.111 508.625Z" fill="#FFD4A9"/><path d="M998.184 479.437C998.184 490.041 989.589 498.628 978.998 498.628C968.408 498.628 959.812 490.031 959.812 479.437C959.812 468.844 968.408 460.246 978.998 460.246C989.589 460.246 998.184 468.844 998.184 479.437Z" fill="#FFD4A9"/><path d="M867.991 479.382C867.991 489.986 859.395 498.574 848.805 498.574C838.214 498.574 829.619 489.976 829.619 479.382C829.619 468.789 838.214 460.191 848.805 460.191C859.395 460.191 867.991 468.789 867.991 479.382Z" fill="#FFD4A9"/><path d="M913.793 503.424C913.076 503.424 912.328 503.351 911.559 503.195C909.386 502.748 907.318 501.635 905.416 499.879C904.398 498.943 903.4 498.527 902.34 498.621C900.251 498.808 898.609 500.918 898.588 500.939L896.582 499.421C896.676 499.296 898.9 496.396 902.122 496.115C903.899 495.949 905.582 496.604 907.131 498.028C908.69 499.473 910.353 500.378 912.057 500.731C913.803 501.084 915.352 500.918 916.672 500.242C917.233 499.951 917.774 499.525 918.314 498.953C918.979 498.226 920.84 496.51 923.521 496.406C925.641 496.354 927.834 497.29 929.934 499.276L928.208 501.105C926.618 499.608 925.09 498.891 923.614 498.922C921.879 498.984 920.621 500.159 920.164 500.658C919.416 501.459 918.657 502.051 917.836 502.478C916.599 503.112 915.248 503.434 913.793 503.434V503.424Z" fill="#171111"/><path d="M944.484 445.098H945.19C952.549 445.14 959.45 448.809 963.856 455.016L925.734 454.839C930.203 448.664 937.136 445.056 944.494 445.098" fill="#232144"/><path d="M927.957 477.296C927.957 477.296 932.665 465.226 941.468 462.159C950.271 459.103 960.571 465.08 960.571 465.08C960.571 465.08 956.309 474.229 947.506 477.285C938.703 480.342 927.957 477.285 927.957 477.285" fill="white"/><path d="M936.23 470.32C936.23 474.53 939.639 477.94 943.849 477.94C948.058 477.94 951.467 474.53 951.467 470.32C951.467 466.109 948.058 462.699 943.849 462.699C939.639 462.699 936.23 466.109 936.23 470.32Z" fill="black"/><path d="M927.957 477.283C930.451 457.094 956.247 455.524 962.691 461.949C961.943 463.144 961.329 463.883 960.581 465.078C957.879 463.446 936.24 456.2 927.967 477.283" fill="black"/><path d="M886.469 433.831L885.793 433.612C878.788 431.367 871.087 432.729 864.976 437.272L901.289 448.894C898.951 441.648 893.463 436.066 886.469 433.82" fill="#232144"/><path d="M897.371 477.296C897.371 477.296 892.663 465.226 883.86 462.159C875.057 459.103 864.747 465.08 864.747 465.08C864.747 465.08 869.008 474.229 877.811 477.285C886.614 480.342 897.371 477.285 897.371 477.285" fill="white"/><path d="M889.099 470.32C889.099 474.53 885.69 477.94 881.48 477.94C877.271 477.94 873.862 474.53 873.862 470.32C873.862 466.109 877.271 462.699 881.48 462.699C885.69 462.699 889.099 466.109 889.099 470.32Z" fill="black"/><path d="M897.371 477.283C894.877 457.094 869.092 455.524 862.638 461.949C863.386 463.144 863.999 463.883 864.748 465.078C867.45 463.446 889.088 456.2 897.361 477.283" fill="black"/><path d="M851.152 477.314V451.345C851.152 423.369 873.56 400.685 901.205 400.685H908.096V385.018L916.951 400.685H925.297C952.942 400.685 975.35 423.359 975.35 451.345V477.314H985.161V419.71C985.161 389.395 960.592 364.809 930.285 364.809H896.227C865.921 364.809 841.352 389.385 841.352 419.71V477.314H851.163H851.152Z" fill="#232144"/><path d="M930.464 518.211C928.863 514.115 922.794 517.109 922.794 517.109L908.576 522.661C908.399 521.808 940.566 545.335 949.577 506.641L935.359 512.192C935.359 512.192 928.863 514.105 930.464 518.201" fill="#E73245"/><path d="M981.805 443.646H928.831C896.155 443.646 869.663 417.146 869.663 384.461H962.151C973.012 384.461 981.815 393.266 981.815 404.13V443.646H981.805Z" fill="#232144"/><path d="M851.36 409.182H855.278C855.278 409.182 883.017 465.009 875.389 506.104C867.76 547.2 916.94 592.464 916.94 592.464L872.894 591.955C850.061 591.695 832.174 572.223 833.827 549.445L843.503 416.48C843.804 412.363 847.234 409.172 851.36 409.172" fill="#232144"/><path d="M779.39 727.572L702.574 662.088L718.299 622.219L784.908 656.588L779.39 727.572Z" fill="#7070FF"/><path d="M502.6 366.129H427.364C410.891 366.129 397.536 379.487 397.536 395.966C397.536 412.444 410.891 425.802 427.364 425.802H502.6C519.074 425.802 532.428 412.444 532.428 395.966C532.428 379.487 519.074 366.129 502.6 366.129Z" fill="#D8CBC5"/><path d="M547.82 395.968C547.82 412.237 534.631 425.42 518.377 425.42C502.122 425.42 500.656 412.227 500.656 395.968C500.656 379.708 502.111 366.516 518.377 366.516C534.642 366.516 547.82 379.708 547.82 395.968Z" fill="#E6E3DA"/><path d="M541.781 504.958C541.781 571.076 521.691 624.689 521.691 624.689C521.691 624.689 501.602 571.087 501.602 504.958C501.602 438.828 521.691 385.227 521.691 385.227C521.691 385.227 541.781 438.828 541.781 504.958Z" fill="#E6E3DA"/><path d="M464.467 309.825C511.205 356.576 534.901 408.691 534.901 408.691C534.901 408.691 482.801 384.999 436.063 338.237C389.325 291.486 365.629 239.371 365.629 239.371C365.629 239.371 417.73 263.064 464.467 309.825Z" fill="#E6E3DA"/><path d="M606.863 344.05C560.125 390.801 508.024 414.504 508.024 414.504C508.024 414.504 531.71 362.388 578.458 315.637C625.196 268.887 677.297 245.184 677.297 245.184C677.297 245.184 653.611 297.299 606.863 344.05Z" fill="#E6E3DA"/><path d="M463.802 391.598H463.792C460.647 391.598 458.097 394.148 458.097 397.295V410.986C458.097 414.133 460.647 416.683 463.792 416.683H463.802C466.948 416.683 469.498 414.133 469.498 410.986V397.295C469.498 394.148 466.948 391.598 463.802 391.598Z" fill="#E6E3DA"/><path d="M933.57 421.686H732.848C731.04 421.686 729.574 420.22 729.574 418.411C729.574 416.603 731.04 415.137 732.848 415.137H933.57C935.378 415.137 936.844 416.603 936.844 418.411C936.844 420.22 935.378 421.686 933.57 421.686Z" fill="#AACDE5"/><path d="M1024.96 554.921H904.106C902.297 554.921 900.832 553.455 900.832 551.646C900.832 549.837 902.297 548.371 904.106 548.371H1024.96C1026.77 548.371 1028.23 549.837 1028.23 551.646C1028.23 553.455 1026.77 554.921 1024.96 554.921Z" fill="#AACDE5"/><path d="M501.893 320.753H352.274C350.465 320.753 349 319.287 349 317.478C349 315.669 350.465 314.203 352.274 314.203H501.893C503.701 314.203 505.167 315.669 505.167 317.478C505.167 319.287 503.701 320.753 501.893 320.753Z" fill="#AACDE5"/><path d="M1213.54 351.682H1063.92C1062.11 351.682 1060.65 350.216 1060.65 348.408C1060.65 346.599 1062.11 345.133 1063.92 345.133H1213.54C1215.35 345.133 1216.81 346.599 1216.81 348.408C1216.81 350.216 1215.35 351.682 1213.54 351.682Z" fill="#AACDE5"/><path d="M990.108 653.008L1114.54 621.82L1230.34 719.221L1164.11 770.13L990.108 653.008Z" fill="#FFD4A9"/><path d="M1116.19 627.692C1106.88 592.429 1070.75 571.387 1035.48 580.702C1000.23 590.017 979.196 626.153 988.508 661.427C997.82 696.69 1032.26 735.728 1032.26 735.728C1032.26 735.728 1125.49 662.966 1116.18 627.702" fill="#7070FF"/><path d="M1045.95 755.357L1131.75 635.709L1103.83 603.18L1052.14 657.468L1045.95 755.357Z" fill="#7070FF"/><path d="M522.232 784.459L683.876 767.503C708.02 765.362 729.159 783.575 730.604 807.777C732.163 833.747 710.493 855.152 684.541 853.26L527.876 831.553L522.232 784.469V784.459Z" fill="#FFD4A9"/><path d="M509.854 787.948L469.955 770.066L458.896 824.562L502.683 828.066L509.854 787.948Z" fill="#FFD4A9"/><path d="M444.897 750.503C441.083 753.414 440.407 758.882 443.38 762.635L472.356 799.219L485.981 788.823L456.808 752C453.908 748.341 448.618 747.676 444.908 750.514" fill="#FFD4A9"/><path d="M428.289 748.432C424.475 751.343 423.799 756.811 426.771 760.564L461.089 802.481L474.715 792.085L440.199 749.918C437.3 746.259 432.01 745.594 428.299 748.432" fill="#FFD4A9"/><path d="M406.754 749.827C403.242 751.625 401.745 755.856 403.345 759.464L417.438 791.203L421.533 794.467L432.56 788.635L416.929 753.424C415.194 749.525 410.548 747.883 406.754 749.816" fill="#FFD4A9"/><path d="M414.456 746.718C410.943 748.964 409.903 753.632 412.148 757.146L433.007 789.893L447.454 780.693L427.686 749.65C424.838 745.19 418.925 743.87 414.456 746.718Z" fill="#FFD4A9"/><path d="M428.166 777.767L417.432 791.117L458.913 824.49L469.647 811.14L428.166 777.767Z" fill="#FFD4A9"/><path d="M436.121 770.022L424.665 782.758L464.238 818.374L475.694 805.638L436.121 770.022Z" fill="#FFD4A9"/><path d="M554.056 834.899V783.324L500.999 785.466L494.088 826.769L554.056 834.899Z" fill="#FFD4A9"/><path d="M984.102 409.18C984.102 409.18 988.384 435.346 1008.23 460.224C1030.57 488.21 964.168 422.871 964.168 422.871L984.102 409.18Z" fill="#232144"/><path d="M1053.14 264.553H903.525C901.716 264.553 900.251 263.088 900.251 261.279C900.251 259.47 901.716 258.004 903.525 258.004H1053.14C1054.95 258.004 1056.42 259.47 1056.42 261.279C1056.42 263.088 1054.95 264.553 1053.14 264.553Z" fill="#CFE4F4"/><path d="M691.182 232.842H574.977C573.169 232.842 571.703 231.377 571.703 229.568C571.703 227.759 573.169 226.293 574.977 226.293H691.182C692.991 226.293 694.456 227.759 694.456 229.568C694.456 231.377 692.991 232.842 691.182 232.842Z" fill="#CFE4F4"/><path d="M922.627 230.902L1031.36 187.977L963.96 278.651L992.167 301.553L927.937 307.635L913.772 247.858C912.098 240.799 915.861 233.574 922.627 230.902Z" fill="#E6E3DA"/><path d="M995.15 201.728L996.668 234.673L1033.78 185.895L995.15 201.728Z" fill="#103256"/><path d="M1050.71 972.204C1055.63 973.712 1060.83 970.946 1062.34 966.018L1078.7 912.552L1060.89 907.094L1044.54 960.561C1043.03 965.478 1045.81 970.686 1050.72 972.194" fill="#FFD4A9"/><path d="M1070.22 940.355C1070.22 940.355 1072.68 931.903 1073.6 929.315C1075.5 923.93 1083.53 923.93 1085.49 928.327C1086.93 931.571 1089.9 939.139 1089.9 939.139C1098.62 924.574 1103.13 915.894 1103.13 915.894L1066.12 914.074L1070.23 940.366L1070.22 940.355Z" fill="#FFD4A9"/><path d="M1055.97 856.508L1053.15 933.48L1111.46 913.052L1089.21 869.44L1055.97 856.508Z" fill="#FFD4A9"/></svg>