<?xml version="1.0" encoding="UTF-8"?><svg id="Ebene_1" xmlns="http://www.w3.org/2000/svg" version="1.1" viewBox="0 0 1200 840"><!--Generator: Adobe Illustrator 29.0.1, SVG Export Plug-In . SVG Version: 2.1.0 Build 192)--><defs><style>.st0 {
        fill: #010101;
      }

      .st1 {
        fill: #232144;
      }

      .st2 {
        fill: #171111;
      }

      .st3 {
        fill: #e73245;
      }

      .st4 {
        fill: #130e0e;
      }

      .st5 {
        fill: #891229;
      }

      .st6 {
        fill: #ffd4a9;
      }

      .st7 {
        fill: #fff;
      }

      .st8 {
        fill: #ffba6d;
      }

      .st9 {
        fill: #f7e5cd;
      }

      .st10 {
        fill: #f7931e;
      }

      .st11 {
        fill: #191c15;
      }

      .st12 {
        fill: #fbb03b;
      }

      .st13 {
        fill: #fba55f;
      }</style></defs><path class="st13" d="M609.12,21.72h19.35v6.1h-19.35c-1.68,0-3.05-1.37-3.05-3.05h0c0-1.68,1.37-3.05,3.05-3.05Z" transform="translate(66.28 -254.59) rotate(24.59)"/><g id="fireworks"><circle class="st3" cx="312.44" cy="516.95" r="1.68"/><circle class="st3" cx="239.74" cy="110.73" r="4.95"/><rect class="st3" x="224" y="48.59" width="1.23" height="52.41" transform="translate(-11.42 93.05) rotate(-22.84)"/><rect class="st3" x="254.51" y="121.05" width="1.23" height="52.41" transform="translate(-37.15 110.58) rotate(-22.84)"/><rect class="st3" x="249.89" y="95.15" width="52.41" height="1.23" transform="translate(-15.54 114.52) rotate(-22.81)"/><rect class="st3" x="177.44" y="125.67" width="52.41" height="1.23" transform="translate(-33.03 88.82) rotate(-22.81)"/><rect class="st3" x="231.9" y="84.96" width="36.62" height="1.23" transform="translate(76.61 285.06) rotate(-67.85)"/><rect class="st3" x="211.19" y="135.82" width="36.62" height="1.23" transform="translate(16.6 297.56) rotate(-67.85)"/><rect class="st3" x="264.69" y="103.07" width="1.23" height="36.62" transform="translate(52.82 321.3) rotate(-67.84)"/><rect class="st3" x="213.81" y="82.35" width="1.23" height="36.62" transform="translate(40.33 261.28) rotate(-67.84)"/><circle class="st3" cx="296.86" cy="135.53" r="2.31"/><circle class="st3" cx="220.86" cy="167.53" r="2.31"/><circle class="st3" cx="264.25" cy="58.11" r="2.31"/><circle class="st3" cx="188.25" cy="90.12" r="2.31"/><rect class="st3" x="240.9" y="90.91" width="36.62" height="1.23" transform="translate(11.7 211.13) rotate(-45.24)"/><rect class="st3" x="202.21" y="129.9" width="36.62" height="1.23" transform="translate(-27.43 195.2) rotate(-45.24)"/><rect class="st3" x="258.76" y="112.08" width="1.23" height="36.62" transform="translate(-15.88 222.65) rotate(-45.22)"/><rect class="st3" x="219.76" y="73.38" width="1.23" height="36.62" transform="translate(.06 183.53) rotate(-45.22)"/><rect class="st3" x="258.83" y="110.21" width="75.89" height="1.23" transform="translate(-.42 1.14) rotate(-.22)"/><rect class="st3" x="145.01" y="110.65" width="75.89" height="1.23" transform="translate(-.43 .7) rotate(-.22)"/><rect class="st3" x="239.47" y="130.02" width="1.23" height="75.89" transform="translate(-.64 .92) rotate(-.22)"/><rect class="st3" x="239.03" y="16.18" width="1.23" height="75.89" transform="translate(-.21 .92) rotate(-.22)"/><circle class="st12" cx="104.94" cy="291.49" r="6.49"/><rect class="st12" x="89.88" y="243.4" width="68.65" height="1.61" transform="translate(-148.81 267.12) rotate(-67.84)"/><rect class="st12" x="51.03" y="338.76" width="68.65" height="1.61" transform="translate(-261.32 290.54) rotate(-67.84)"/><rect class="st12" x="151.66" y="276.98" width="1.61" height="68.65" transform="translate(-193.37 334.9) rotate(-67.81)"/><rect class="st12" x="56.28" y="238.13" width="1.61" height="68.65" transform="translate(-216.75 222.42) rotate(-67.81)"/><rect class="st12" x="113.97" y="277.1" width="47.97" height="1.61" transform="translate(-97.09 75.38) rotate(-22.85)"/><rect class="st12" x="47.65" y="305.04" width="47.97" height="1.61" transform="translate(-113.14 51.82) rotate(-22.85)"/><rect class="st12" x="117.95" y="301.05" width="1.61" height="47.97" transform="translate(-116.85 71.58) rotate(-22.84)"/><rect class="st12" x="90.02" y="234.73" width="1.61" height="47.97" transform="translate(-93.3 55.54) rotate(-22.84)"/><circle class="st12" cx="134.87" cy="367.37" r="3.03"/><circle class="st12" cx="34.82" cy="326.62" r="3.03"/><circle class="st12" cx="176.38" cy="265.46" r="3.03"/><circle class="st12" cx="76.33" cy="224.71" r="3.03"/><rect class="st12" x="116.78" y="290.94" width="47.97" height="1.61" transform="translate(-1.22 .59) rotate(-.24)"/><rect class="st12" x="44.82" y="291.23" width="47.97" height="1.61" transform="translate(-1.22 .29) rotate(-.24)"/><rect class="st12" x="104.09" y="303.88" width="1.61" height="47.97" transform="translate(-1.26 .41) rotate(-.22)"/><rect class="st12" x="103.82" y="231.93" width="1.61" height="47.97" transform="translate(-.98 .4) rotate(-.22)"/><rect class="st12" x="156.89" y="294.72" width="1.61" height="99.41" transform="translate(-197.86 213.75) rotate(-45.22)"/><rect class="st12" x="51.04" y="189.68" width="1.61" height="99.41" transform="translate(-154.59 107.57) rotate(-45.22)"/><rect class="st12" x="2.55" y="344.02" width="99.41" height="1.61" transform="translate(-229.32 139.02) rotate(-45.22)"/><rect class="st12" x="107.58" y="238.17" width="99.41" height="1.61" transform="translate(-123.13 182.29) rotate(-45.22)"/><circle class="st3" cx="945.03" cy="260.4" r="4.46"/><rect class="st3" x="953.77" y="246.19" width="47.18" height="1.11" transform="translate(-19.14 398.72) rotate(-22.84)"/><rect class="st3" x="888.55" y="273.66" width="47.18" height="1.11" transform="translate(-34.92 375.56) rotate(-22.84)"/><rect class="st3" x="957.94" y="269.52" width="1.11" height="47.18" transform="translate(-38.67 394.51) rotate(-22.81)"/><rect class="st3" x="930.47" y="204.3" width="1.11" height="47.18" transform="translate(-15.54 378.76) rotate(-22.81)"/><rect class="st3" x="967.04" y="253.31" width="1.1" height="32.97" transform="translate(352.9 1064.25) rotate(-67.85)"/><rect class="st3" x="921.25" y="234.65" width="1.1" height="32.97" transform="translate(341.65 1010.22) rotate(-67.85)"/><rect class="st3" x="918.92" y="282.84" width="32.97" height="1.1" transform="translate(320.12 1042.81) rotate(-67.84)"/><rect class="st3" x="937.58" y="237.04" width="32.97" height="1.1" transform="translate(374.15 1031.57) rotate(-67.84)"/><circle class="st3" cx="922.7" cy="311.82" r="2.08"/><circle class="st3" cx="893.88" cy="243.39" r="2.08"/><circle class="st3" cx="992.41" cy="282.46" r="2.08"/><circle class="st3" cx="963.59" cy="214.04" r="2.08"/><rect class="st3" x="961.73" y="261.4" width="1.1" height="32.97" transform="translate(87.39 765.5) rotate(-45.24)"/><rect class="st3" x="926.63" y="226.58" width="1.1" height="32.97" transform="translate(101.73 730.27) rotate(-45.24)"/><rect class="st3" x="910.89" y="277.56" width="32.97" height="1.1" transform="translate(76.74 740.48) rotate(-45.22)"/><rect class="st3" x="945.71" y="242.44" width="32.97" height="1.1" transform="translate(111.96 754.81) rotate(-45.22)"/><rect class="st3" x="944.39" y="277.65" width="1.11" height="68.33" transform="translate(-1.19 3.63) rotate(-.22)"/><rect class="st3" x="944" y="175.16" width="1.11" height="68.33" transform="translate(-.8 3.63) rotate(-.22)"/><rect class="st3" x="859.33" y="260.22" width="68.33" height="1.11" transform="translate(-.99 3.43) rotate(-.22)"/><rect class="st3" x="961.82" y="259.81" width="68.33" height="1.11" transform="translate(-.99 3.83) rotate(-.22)"/><circle class="st3" cx="274.11" cy="501.21" r="3.61"/><rect class="st3" x="281.21" y="489.73" width="38.21" height=".89" transform="translate(-166.72 155) rotate(-22.84)"/><rect class="st3" x="228.39" y="511.97" width="38.21" height=".89" transform="translate(-179.49 136.24) rotate(-22.84)"/><rect class="st3" x="284.57" y="508.6" width=".9" height="38.21" transform="translate(-182.29 151.77) rotate(-22.81)"/><rect class="st3" x="262.33" y="455.78" width=".89" height="38.21" transform="translate(-163.55 139.01) rotate(-22.81)"/><rect class="st3" x="291.99" y="495.46" width=".89" height="26.7" transform="translate(-289.09 587.83) rotate(-67.85)"/><rect class="st3" x="254.9" y="480.36" width=".89" height="26.7" transform="translate(-298.2 544.06) rotate(-67.85)"/><rect class="st3" x="252.99" y="519.39" width="26.7" height=".89" transform="translate(-315.56 570.42) rotate(-67.84)"/><rect class="st3" x="268.09" y="482.3" width="26.7" height=".89" transform="translate(-271.8 561.3) rotate(-67.84)"/><circle class="st3" cx="256.03" cy="542.86" r="1.69"/><circle class="st3" cx="232.69" cy="487.45" r="1.69"/><circle class="st3" cx="289.14" cy="463.68" r="1.69"/><rect class="st3" x="287.66" y="502.04" width=".89" height="26.7" transform="translate(-280.72 357.06) rotate(-45.24)"/><rect class="st3" x="259.23" y="473.83" width=".89" height="26.7" transform="translate(-269.1 328.53) rotate(-45.24)"/><rect class="st3" x="246.42" y="515.1" width="26.7" height=".89" transform="translate(-289.15 336.79) rotate(-45.22)"/><rect class="st3" x="274.63" y="486.66" width="26.7" height=".89" transform="translate(-260.63 348.41) rotate(-45.22)"/><rect class="st3" x="273.57" y="515.15" width=".89" height="55.33" transform="translate(-2.08 1.06) rotate(-.22)"/><rect class="st3" x="273.25" y="432.17" width=".89" height="55.33" transform="translate(-1.76 1.05) rotate(-.22)"/><rect class="st3" x="204.7" y="501.03" width="55.33" height=".89" transform="translate(-1.92 .9) rotate(-.22)"/><rect class="st3" x="287.7" y="500.72" width="55.33" height=".89" transform="translate(-1.92 1.21) rotate(-.22)"/><circle class="st12" cx="1074.67" cy="127.62" r="5.72"/><rect class="st12" x="1085.9" y="109.39" width="60.59" height="1.42" transform="translate(44.78 441.89) rotate(-22.84)"/><rect class="st12" x="1002.13" y="144.67" width="60.59" height="1.42" transform="translate(24.52 412.14) rotate(-22.84)"/><rect class="st12" x="1091.25" y="139.34" width="1.42" height="60.59" transform="translate(19.63 436.59) rotate(-22.81)"/><rect class="st12" x="1055.97" y="55.57" width="1.42" height="60.59" transform="translate(49.35 416.36) rotate(-22.81)"/><rect class="st12" x="1102.94" y="118.54" width="1.42" height="42.34" transform="translate(558.14 1109.23) rotate(-67.85)"/><rect class="st12" x="1044.12" y="94.58" width="1.42" height="42.34" transform="translate(543.69 1039.83) rotate(-67.85)"/><rect class="st12" x="1041.14" y="156.46" width="42.34" height="1.42" transform="translate(516.05 1081.73) rotate(-67.84)"/><rect class="st12" x="1065.1" y="97.63" width="42.34" height="1.42" transform="translate(585.46 1067.28) rotate(-67.84)"/><circle class="st12" cx="1045.99" cy="193.66" r="2.67"/><circle class="st12" cx="1008.98" cy="105.79" r="2.67"/><circle class="st12" cx="1135.5" cy="155.96" r="2.67"/><circle class="st12" cx="1098.5" cy="68.09" r="2.67"/><rect class="st12" x="1096.12" y="128.93" width="1.42" height="42.34" transform="translate(217.93 823.23) rotate(-45.24)"/><rect class="st12" x="1051.04" y="84.19" width="1.42" height="42.34" transform="translate(236.36 777.98) rotate(-45.24)"/><rect class="st12" x="1030.82" y="149.65" width="42.34" height="1.42" transform="translate(204.25 791.17) rotate(-45.22)"/><rect class="st12" x="1075.56" y="104.55" width="42.34" height="1.42" transform="translate(249.49 809.59) rotate(-45.22)"/><rect class="st12" x="1073.86" y="149.77" width="1.42" height="87.74" transform="translate(-.74 4.13) rotate(-.22)"/><rect class="st12" x="1073.35" y="18.17" width="1.42" height="87.74" transform="translate(-.23 4.12) rotate(-.22)"/><rect class="st12" x="964.63" y="127.39" width="87.74" height="1.42" transform="translate(-.48 3.87) rotate(-.22)"/><rect class="st12" x="1096.24" y="126.86" width="87.74" height="1.42" transform="translate(-.48 4.38) rotate(-.22)"/><circle class="st10" cx="1009.84" cy="500.77" r="9.01"/><rect class="st10" x="981.33" y="431.37" width="95.35" height="2.23" transform="translate(334.51 1306.31) rotate(-74.32)"/><rect class="st10" x="942.67" y="569.07" width="95.35" height="2.23" transform="translate(173.73 1369.57) rotate(-74.32)"/><rect class="st10" x="1077.43" y="473" width="2.23" height="95.35" transform="translate(285.29 1417.95) rotate(-74.29)"/><rect class="st10" x="939.72" y="434.35" width="2.23" height="95.35" transform="translate(222.07 1257.2) rotate(-74.29)"/><rect class="st10" x="1019.93" y="475.69" width="66.63" height="2.23" transform="translate(-98.54 577.04) rotate(-29.33)"/><rect class="st10" x="932.79" y="524.63" width="66.63" height="2.23" transform="translate(-133.69 540.63) rotate(-29.33)"/><rect class="st10" x="1033.03" y="511.59" width="2.23" height="66.63" transform="translate(-134.36 576.21) rotate(-29.32)"/><rect class="st10" x="984.09" y="424.46" width="2.23" height="66.63" transform="translate(-97.96 541.08) rotate(-29.32)"/><circle class="st10" cx="1063.04" cy="600.79" r="4.21"/><circle class="st10" cx="918.59" cy="560.24" r="4.21"/><circle class="st10" cx="1104.35" cy="453.64" r="4.21"/><circle class="st10" cx="959.9" cy="413.08" r="4.21"/><rect class="st10" x="1026.01" y="494.37" width="66.63" height="2.23" transform="translate(-50.7 127.36) rotate(-6.72)"/><rect class="st10" x="926.73" y="506.04" width="66.63" height="2.23" transform="translate(-52.75 115.83) rotate(-6.72)"/><rect class="st10" x="1014.44" y="517.56" width="2.23" height="66.63" transform="translate(-57.41 122.44) rotate(-6.71)"/><rect class="st10" x="1002.71" y="418.48" width="2.23" height="66.63" transform="translate(-45.86 120.2) rotate(-6.7)"/><rect class="st10" x="1089.8" y="496.39" width="2.23" height="138.07" transform="translate(-28.85 1071.31) rotate(-51.71)"/><rect class="st10" x="927.26" y="368.06" width="2.23" height="138.07" transform="translate(10.04 894.92) rotate(-51.71)"/><rect class="st10" x="876.45" y="581.42" width="138.07" height="2.23" transform="translate(-97.6 963.66) rotate(-51.71)"/><rect class="st10" x="1004.86" y="419.04" width="138.07" height="2.23" transform="translate(78.59 1002.52) rotate(-51.7)"/></g><g id="WOMAN__x26__KID"><path class="st13" d="M633.83,49.79l13.47,67.05c1.55,8.9,10.14,14.75,18.99,12.94h0c9.5-1.94,15.11-11.8,11.93-20.96l-25.86-69.73-18.54,10.69h.01Z"/><path class="st13" d="M640.96,16.57c1.55-.46,3.18.44,3.74,1.96l4.78,12.93c.5,1.35,2.88,7.64,2.88,7.64l-5.77,2.07-7.63-20.63c-.6-1.64.29-3.46,1.99-3.96h.01Z"/><polygon class="st13" points="656.61 51.03 650.72 34.93 621.3 23.4 628.36 52.31 642.98 60.1 656.61 51.03"/><path class="st8" d="M616.41,30.98h0c.69-1.53,2.49-2.21,4.02-1.52l11.25,5.07c1.53.69,2.21,2.49,1.53,4.02h0c-.69,1.53-2.49,2.21-4.02,1.52l-11.25-5.07c-1.53-.69-2.21-2.49-1.53-4.02Z"/><path class="st8" d="M618.31,38.44h0c.69-1.53,2.49-2.21,4.02-1.52l11.25,5.07c1.53.69,2.21,2.49,1.53,4.02h0c-.69,1.53-2.49,2.21-4.02,1.52l-11.25-5.07c-1.53-.69-2.21-2.49-1.53-4.02Z"/><rect class="st8" x="625.96" y="40.2" width="6.07" height="18.42" rx="3.03" ry="3.03" transform="translate(325.7 602.67) rotate(-65.76)"/><polygon class="st6" points="493.64 206.46 479.31 189.17 505.11 177.31 511.66 198.94 493.64 206.46"/><rect class="st6" x="487.8" y="159" width="8.56" height="26.61" transform="translate(48.21 445.82) rotate(-50.94)"/><rect class="st6" x="485.4" y="163.38" width="8.56" height="26.61" transform="translate(59.42 469.75) rotate(-54.1)"/><path class="st6" d="M481.6,180.78s3.27,2.22,4.4,2.78c2.34,1.17,3.62-1.41,1.88-2.77-1.12-.87-4.96-3.54-7.67-5.66,7.53,2.03,20.08,3.23,20.08,3.23l-11.66,12.42-7.03-10h0Z"/><path class="st6" d="M513.51,317.24l-22.77-114.79,20.92-3.51,43.05,105.85c3.6,8.83.98,18.98-6.44,24.97h0c-12.62,10.19-31.55,3.37-34.77-12.53h.01Z"/><rect class="st11" x="747.09" y="89.09" width="34.82" height="52.11" rx="6.11" ry="6.11" transform="translate(388.67 790.77) rotate(-69.48)"/><path class="st8" d="M736.89,101.76c-1.35,3.6.47,7.61,4.06,8.96s7.6-.47,8.96-4.06c1.35-3.59-.47-7.61-4.06-8.96s-7.61.47-8.96,4.06"/><path class="st8" d="M781.06,118.36c-1.35,3.6.47,7.61,4.06,8.96s7.6-.47,8.96-4.06-.47-7.61-4.06-8.96c-3.6-1.35-7.61.47-8.96,4.06"/><path class="st13" d="M739.5,136.93l8.08-21.48,29.45,10.97-8.11,21.57c-3.24,8.62-12.46,13.14-20.58,10.08s-12.08-12.52-8.84-21.15"/><path class="st8" d="M784.93,125.47l7.87-20.92c4.39-11.66-1.51-24.66-13.17-29.05l-.42-.16c-11.66-4.38-24.66,1.51-29.05,13.17l-7.87,20.92c-4.38,11.66,1.51,24.66,13.17,29.05l.42.16c11.66,4.39,24.66-1.51,29.05-13.17"/><path class="st11" d="M781.09,101.49l.21.16c2.21,1.71,3.69,4.09,4,6.44l-11.46-8.86c2.36-.28,5.04.55,7.25,2.26"/><path class="st11" d="M760.92,94.23l-.27-.03c-2.78-.28-5.49.43-7.33,1.92l14.42,1.45c-1.52-1.83-4.04-3.07-6.82-3.35"/><path class="st7" d="M758.52,108.67c.95.22,1.76-.67,1.5-1.61-.38-1.35-1.14-3.12-2.61-4.35-1.59-1.32-4.83-2.43-6.25-2.53-.9-.06-1.57.79-1.31,1.66.35,1.13,2.25,3.36,3.69,4.57,1.52,1.27,3.53,1.93,4.98,2.26"/><path d="M760.08,107.61c-.15-4.83-5.71-8.1-10.33-7.82.1.52.05.16.19.68.21.75,4.79.73,7,2.32,2.47,1.78,2.88,4.35,3.14,4.82"/><path class="st0" d="M763.5,117.85c.73.28,1.46.1,2.1-.06,1.06-.26,1.69-.42,2.29,1.07l.93-.48c-.9-2.26-2.28-1.92-3.38-1.65-.56.14-1.09.27-1.55.09s-.77-.59-1.08-1.03c-.62-.88-1.4-1.97-3.71-1.05l.3,1.01c1.62-.65,2.01-.1,2.6.72.36.51.77,1.09,1.51,1.37"/><path class="st11" d="M793.33,102.49l-4.62,12.18,3.33,1.25,5.32-14.13c3.87-10.28-1.33-21.75-11.61-25.62l-11.55-4.35c-10.28-3.87-21.75,1.33-25.62,11.61l-5.32,14.13,3.33,1.25,4.8-12.17,41.95,15.84h-.01Z"/><path d="M753.92,121.54c0,1.23.45,2.36,1.39,3.48,1.38,1.54,3.55,1.98,5.68,1.16l-.38-.98c-1.71.66-3.44.33-4.51-.87-1.21-1.44-1.44-2.82-.76-4.57l-.98-.38c-.29.76-.45,1.47-.45,2.16h.01Z"/><path class="st7" d="M777.46,110.26c-1.92-.05-3.66.79-4.83,1.55-.82.53-.79,1.73.06,2.2,1,.54,2.38,1.14,3.86,1.42h0l1.64.15h0c1.76-.02,4.26-.63,5.22-1.22.77-.47.83-1.56.11-2.11-1.02-.77-3.63-1.72-5.44-1.94-.16-.03-.32-.04-.48-.04h-.14,0Z"/><path d="M772.35,112.04c3.3-3.53,9.28-2.14,12.58,1.11-.42.32-.08.07-.59.39-.66.41-3.87-2.66-6.58-2.92-3.03-.29-4.9,1.23-5.41,1.42"/><polygon class="st13" points="711.96 162.67 654.64 127.69 675.1 106.24 730.5 133.94 711.96 162.67"/><polygon class="st8" points="800.92 169.88 815.69 235.12 785.95 235.6 766.89 176.78 800.92 169.88"/><rect class="st5" x="745.36" y="148.8" width="28.7" height="15.18" transform="translate(346.94 813.08) rotate(-69.48)"/><rect class="st5" x="726.71" y="141.83" width="28.7" height="15.18" transform="translate(341.36 791.08) rotate(-69.48)"/><path class="st12" d="M776.32,197.08l-1.27-.16c.04-.3,3.49-30.73-23.27-55.19l.86-.94c27.26,24.92,23.72,55.98,23.68,56.29h0Z"/><circle class="st12" cx="768.08" cy="162.6" r="2.82"/><circle class="st12" cx="772.66" cy="172.45" r="2.82"/><path class="st5" d="M747.72,283.57l23.65-75.12,3.81,14.28,38.62-3.36-9.42-48.89c-1.38-5.91-5.21-11.1-10.94-13.79l-67.08-25.1-38.44-21.92-24.74,29.84,37.53,27.76s.02.03.03.04l-39.01,84.06,86,32.2h-.01Z"/><path d="M774.44,114.55c1.39.52,2.94-.18,3.47-1.57.36-.96.13-1.99-.5-2.71-1.85-.03-3.52.75-4.68,1.49-.12,1.19.55,2.35,1.72,2.8h0Z"/><path d="M754.84,103c.22-.58.21-1.18.04-1.73-1.4-.61-2.89-1.03-3.73-1.08-.9-.06-1.57.79-1.31,1.66.22.7,1.02,1.81,1.94,2.84,1.27.26,2.58-.42,3.06-1.68h0Z"/><polygon class="st10" points="665.8 141.45 660.55 137.58 685.16 108.07 690.79 111.32 665.8 141.45"/><rect class="st8" x="764.61" y="94.35" width="4.05" height="35.37" transform="translate(402.49 795.91) rotate(-70.28)"/><polygon class="st2" points="742.11 264.93 761.92 208.24 761.92 208.24 699.97 186.98 680.61 242.86 742.11 264.93"/><path class="st13" d="M692.79,242.08l9.12-26.57,40.93,14.12-9.1,26.5c-3.88,11.31-16.2,17.33-27.5,13.45-11.31-3.88-17.33-16.2-13.45-27.5"/><polygon class="st6" points="704.21 811.22 734.61 810.68 731.12 732.36 694.76 733.15 704.21 811.22"/><rect class="st3" x="685.49" y="235.79" width="21.79" height="21.78" transform="translate(236.52 824.9) rotate(-71.01)"/><rect class="st3" x="715.78" y="245.66" width="21.79" height="21.78" transform="translate(247.62 860.19) rotate(-71.01)"/><path class="st9" d="M694.76,815.19c-.06-13.6,10.91-24.67,24.52-24.73,13.6-.06,24.67,10.91,24.73,24.51l-49.25.22Z"/><polygon class="st10" points="612.92 749.5 536.48 792.21 542.84 803.42 619.28 760.71 612.92 749.5"/><polygon class="st9" points="602.62 729.75 565.54 750.81 563.66 757.99 533.61 787.16 536.48 792.21 612.88 749.52 612.92 749.5 612.92 749.5 613.04 749.44 602.62 729.75"/><path class="st3" d="M617.42,349.38c-42.74,21.72-84.6,94.99-110.62,167.41-5.23,14.55-6.51,25.66-5.24,34.14h0l44.13,212.72,215.53,31.21-19.22-297.79c-2.61-32.71-2.72-75.83-20.78-108.47l-103.79-39.22h-.01Z"/><path class="st6" d="M763.81,220.39c-1.57,4.58-6.56,7.02-11.13,5.44-4.58-1.57-7.01-6.56-5.44-11.13,1.57-4.58,6.56-7.02,11.13-5.44,4.58,1.57,7.02,6.56,5.44,11.13"/><path class="st3" d="M539.47,284.27l101.99-49.52,6.82,64.28c-11.02,9.23-22.94,18.57-35.81,27.84-29.71,21.4-51.97,36.86-78.43,50.14l5.43-92.73h0Z"/><path class="st3" d="M625.24,253.2c3.84-14.64,18.82-23.4,33.46-19.57,14.64,3.84,23.4,18.82,19.57,33.46-3.84,14.64-28.83,30.64-28.83,30.64,0,0-28.03-29.9-24.19-44.54"/><polygon class="st3" points="723.04 256.57 660.9 234.31 657.18 235.25 615.86 350.44 722.05 390.2 766.16 271.5 723.04 256.57"/><path class="st6" d="M707.57,201.06c-1.57,4.58-6.56,7.02-11.13,5.44-4.58-1.57-7.01-6.56-5.44-11.13,1.57-4.58,6.56-7.02,11.13-5.44,4.58,1.57,7.02,6.56,5.44,11.13"/><path class="st6" d="M696.57,209.38l13.12-38.23c4.15-12.08,17.3-18.52,29.39-14.37l10.53,3.61c12.08,4.15,18.52,17.3,14.37,29.39l-13.12,38.23c-4.15,12.08-17.3,18.52-29.39,14.37l-10.53-3.61c-12.08-4.15-18.52-17.3-14.37-29.39"/><path class="st2" d="M731.04,217.29c-.46-.88-1.02-1.43-1.66-1.62-.76-.23-1.48.09-1.75.24-.44.23-.86.38-1.28.44-.94.14-1.88-.07-2.82-.62-.87-.51-1.6-1.3-2.16-2.34-.3-.56-.67-.88-1.14-1-.94-.23-1.96.44-1.97.44l-.64-.95c.06-.04,1.45-.96,2.88-.61.79.19,1.42.72,1.88,1.57.46.86,1.04,1.49,1.73,1.9.7.41,1.4.57,2.07.47.29-.04.58-.15.9-.31.39-.22,1.45-.68,2.63-.33.94.29,1.73,1.02,2.35,2.19l-1.02.54h0Z"/><path class="st3" d="M722.17,223.72c.36-1.13-.85-1.88-1.81-2.28-1.14-.48-2.28-.96-3.38-1.5l-5.05-2.48s2.17,9.03,8.65,11.1c6.4,2.05,13.42-3.47,13.42-3.47l-6.23-1.45c-.75-.17-1.51-.36-2.25-.58-.95-.29-2.91-.69-3.35.66"/><path class="st2" d="M737.2,195.66c9.04-6.17,17.04-4.05,20.25,6.46,0,0-5.22-3.7-10.01-5.34-4.84-1.66-10.24-1.12-10.24-1.12"/><path class="st2" d="M730.81,185.28c-3.34-10.42-10.97-13.66-19.95-7.33,0,0,6.39.29,11.18,1.93,4.84,1.66,8.76,5.41,8.76,5.41"/><path class="st2" d="M699.51,201.83l5.86-17.08c4.15-12.08,17.19-18.56,29.13-14.46l2.98,1.02,2.32-6.76,2.47.94-2.01,6.43,4.65,1.94c11.94,4.1,18.26,17.22,14.11,29.3l-5.86,17.08,4.24,1.46,10.55-30.74c4.49-13.09-2.48-27.35-15.57-31.85l-14.71-5.05c-13.09-4.49-27.35,2.48-31.85,15.57l-10.55,30.74,4.24,1.46h0Z"/><polygon class="st10" points="744.01 824.45 694.8 824.45 694.76 815.29 743.97 814.97 744.01 824.45"/><path class="st3" d="M844.86,296.09c-15-4.78-108.08-34.49-108.08-34.84l9.72,60.82c12.19,11.89,26.87,27.58,44.23,40.38,18.66,13.75,38.22,29.25,54.13,37.7v-104.06h0Z"/><polygon class="st12" points="544.2 371.54 534.04 377 539.47 284.27 548.92 279.56 544.2 371.54"/><polygon class="st12" points="626.61 319.66 629.89 310.55 714.39 251.75 717.57 256.32 626.61 319.66"/><rect class="st12" x="667.05" y="272.35" width="8.23" height="28.06" transform="translate(170.56 817.29) rotate(-69.79)"/><rect class="st12" x="678.95" y="264.04" width="8.23" height="28.06" transform="translate(186.14 823.02) rotate(-69.79)"/><polygon class="st12" points="836.14 395.48 844.86 400.15 844.86 296.09 836.14 293.17 836.14 395.48"/><path class="st7" d="M736.43,205.82s3.74-3.7,8.27-3.61c4.52.09,8.11,3.95,8.11,3.95,0,0-4.83,2.56-7.98,2.46-3.2-.1-8.39-2.8-8.39-2.8h-.01Z"/><path class="st4" d="M736.43,205.82s6.92-8.94,20.59.37l-4.93.31c-2.94-1.74-8.36-4.1-15.66-.68h0Z"/><path class="st7" d="M721.87,200.54s-.5-5.24-4.03-8.07c-3.53-2.83-8.75-2.16-8.75-2.16,0,0,1.77,4.67,4.54,7,2.63,2.21,8.24,3.23,8.24,3.23h0Z"/><path class="st4" d="M721.87,200.54s.42-11.3-16.04-12.92l3.56,3.39c3.37.55,9.07,2.23,12.48,9.53Z"/><path class="st4" d="M744.4,202.22c-2.32.03-4.41,1.03-5.87,1.97.09.8.48,1.58,1.15,2.13,1.36,1.11,3.36.9,4.47-.46.87-1.07.92-2.52.25-3.64Z"/><path class="st4" d="M717.36,192.39c0-.1-.02-.19-.02-.29-1.8-1.23-3.92-1.67-5.56-1.81-.46.54-.76,1.24-.77,2.01-.02,1.76,1.38,3.2,3.13,3.22s3.2-1.38,3.22-3.14h0Z"/><path class="st2" d="M742.09,166.27l16.93,5.59c7.06,2.33,10.91,9.96,8.57,17.03l-2.67,8.08-16.93-5.59c-7.06-2.33-10.91-9.96-8.57-17.03l2.67-8.08h0Z"/><path class="st13" d="M710.54,403.14l54.47-137.07c3.98-10.02-1.3-21.32-11.54-24.7h0c-9.93-3.27-20.61,2.22-23.73,12.19l-44.23,141.33,25.03,8.25h0Z"/><path class="st5" d="M712.79,400.5l-5.56,15.87c4.67,3.78,7.6,9.02,6.2,13.26l-36.38-12.3,8.6-26.11,27.14,9.28h0Z"/><rect class="st5" x="692.35" y="406.29" width="4.51" height="38.4" transform="translate(73.08 952.02) rotate(-71.76)"/><path class="st13" d="M622.93,372.63l39.51-142.1c2.89-10.39,13.93-16.2,24.13-12.69h0c9.88,3.4,15.07,14.23,11.53,24.06l-50.24,139.3-24.92-8.57h-.01Z"/><path class="st5" d="M622.73,369.16l-5.17,16c-6.01.19-11.5,2.59-12.95,6.81l36.41,12.2,8.94-25.99-27.23-9.02h0Z"/><rect class="st5" x="619.86" y="380.82" width="4.51" height="38.4" transform="translate(41.59 858.31) rotate(-71.03)"/><path class="st6" d="M716.48,328.94l-28.59,8.41c-2.13.63-3.34,2.85-2.72,4.98.62,2.13,2.85,3.34,4.98,2.72l28.59-8.41-2.26-7.7Z"/><path class="st6" d="M730.21,311.17l-23.87-2.49,3.53,30.01c.02.16.17.26.33.23l23.15-5.6-3.14-22.14h0Z"/><path class="st6" d="M711.49,316.79l-33.73,8.37c-2.01.5-3.23,2.53-2.73,4.54l.13.52c.5,2.01,2.53,3.23,4.54,2.73l33.73-8.37-1.93-7.79h-.01Z"/><path class="st6" d="M708.17,309.69l-32.15,7.98c-2.15.53-3.46,2.71-2.93,4.86s2.71,3.46,4.86,2.93l32.15-7.98-1.93-7.79h0Z"/><path class="st6" d="M725.11,311.12l-30.17-11.32c-2.04-.77-4.32.27-5.08,2.31l-.2.53c-.77,2.04.27,4.32,2.31,5.08l30.17,11.32,2.97-7.92h0Z"/><path class="st6" d="M710.76,324.46l-29.19,7.24c-2.01.5-3.23,2.53-2.73,4.54l.13.52c.5,2.01,2.53,3.23,4.54,2.73l29.19-7.24-1.93-7.79h-.01Z"/><path class="st6" d="M838.89,343.14l-107.64-9.73-6.14-22.29,113.64-11.02c9.49-.92,18.46,4.49,22.09,13.31h0c6.16,15.01-5.79,31.2-21.94,29.74h-.01Z"/><path class="st12" d="M368.67,459.25h1.71v-41.5c0-1.5,1.21-2.71,2.71-2.71h0v44.2h1.71v-44.2h0c1.5,0,2.71,1.21,2.71,2.71v41.5h1.71v-40.76c0-2.91-2.36-5.27-5.27-5.27h0c-2.91,0-5.27,2.36-5.27,5.27v40.76h0Z"/><circle class="st3" cx="373.94" cy="407.14" r="7.87"/><rect class="st1" x="373.05" y="158.63" width="1.77" height="240.65"/><rect class="st1" x="347.37" y="296.05" width="52.18" height="1.77"/><rect class="st3" x="379.21" y="287.85" width="49.52" height="18.16"/><rect class="st12" x="420.49" y="287.85" width="4.17" height="18.16"/><rect class="st12" x="383.27" y="287.85" width="4.17" height="18.16"/><rect class="st3" x="319.16" y="287.85" width="49.52" height="18.16"/><rect class="st12" x="360.43" y="287.85" width="4.17" height="18.16"/><rect class="st12" x="333.22" y="287.85" width="4.17" height="18.16"/><rect class="st1" x="347.37" y="274.57" width="52.18" height="1.77"/><rect class="st3" x="379.21" y="266.38" width="49.52" height="18.16"/><rect class="st12" x="420.49" y="266.38" width="4.17" height="18.16"/><rect class="st12" x="383.27" y="266.38" width="4.17" height="18.16"/><rect class="st3" x="319.16" y="266.38" width="49.52" height="18.16"/><rect class="st12" x="360.43" y="266.38" width="4.17" height="18.16"/><rect class="st12" x="333.22" y="266.38" width="4.17" height="18.16"/><rect class="st1" x="347.37" y="317.52" width="52.18" height="1.77"/><rect class="st3" x="379.21" y="309.33" width="49.52" height="18.16"/><rect class="st12" x="420.49" y="309.33" width="4.17" height="18.16"/><rect class="st12" x="383.27" y="309.33" width="4.17" height="18.16"/><rect class="st3" x="319.16" y="309.33" width="49.52" height="18.16"/><rect class="st12" x="360.43" y="309.33" width="4.17" height="18.16"/><rect class="st12" x="333.22" y="309.33" width="4.17" height="18.16"/><rect class="st1" x="347.37" y="338.99" width="52.18" height="1.77"/><rect class="st3" x="379.21" y="330.8" width="49.52" height="18.16"/><rect class="st12" x="420.49" y="330.8" width="4.17" height="18.16"/><rect class="st12" x="383.27" y="330.8" width="4.17" height="18.16"/><rect class="st3" x="319.16" y="330.8" width="49.52" height="18.16"/><rect class="st12" x="360.43" y="330.8" width="4.17" height="18.16"/><rect class="st12" x="333.22" y="330.8" width="4.17" height="18.16"/><rect class="st1" x="347.37" y="381.94" width="52.18" height="1.77"/><rect class="st3" x="379.21" y="373.74" width="49.52" height="18.16"/><rect class="st12" x="420.49" y="373.74" width="4.17" height="18.16"/><rect class="st12" x="383.27" y="373.74" width="4.17" height="18.16"/><rect class="st3" x="319.16" y="373.74" width="49.52" height="18.16"/><rect class="st12" x="360.43" y="373.74" width="4.17" height="18.16"/><rect class="st12" x="333.22" y="373.74" width="4.17" height="18.16"/><rect class="st1" x="347.37" y="360.47" width="52.18" height="1.77"/><path class="st6" d="M466.12,164.47h18.88v8.59h-18.88c-2.37,0-4.3-1.92-4.3-4.3h0c0-2.37,1.92-4.3,4.3-4.3Z" transform="translate(88.58 -154.51) rotate(20.41)"/><rect class="st3" x="379.21" y="352.28" width="49.52" height="18.16"/><rect class="st12" x="420.49" y="352.28" width="4.17" height="18.16"/><rect class="st12" x="383.27" y="352.28" width="4.17" height="18.16"/><rect class="st3" x="319.16" y="352.28" width="49.52" height="18.16"/><rect class="st12" x="360.43" y="352.28" width="4.17" height="18.16"/><rect class="st12" x="333.22" y="352.28" width="4.17" height="18.16"/><rect class="st3" x="462.1" y="74.65" width="10.55" height="197.71" transform="translate(202.84 596.08) rotate(-78.32)"/><path class="st3" d="M361.1,198.69h25.68c.98,0,1.89.52,2.38,1.37l12.84,22.24c.49.85.49,1.9,0,2.75l-12.84,22.24c-.49.85-1.4,1.37-2.38,1.37h-25.68c-.98,0-1.89-.52-2.38-1.37l-12.84-22.24c-.49-.85-.49-1.9,0-2.75l12.84-22.24c.49-.85,1.4-1.37,2.38-1.37Z"/><circle class="st12" cx="373.94" cy="223.67" r="16.42"/><rect class="st3" x="602.28" y="63.91" width="38.97" height="38.97" rx="5.09" ry="5.09" transform="translate(123.14 464.08) rotate(-45)"/><path class="st3" d="M621.76,74.51l5.89-16.87c1.42-4.06-1.59-8.3-5.89-8.3h0c-4.3,0-7.31,4.24-5.89,8.3l5.89,16.87Z"/><path class="st3" d="M621.76,92.29l5.89,16.87c1.42,4.06-1.59,8.3-5.89,8.3h0c-4.3,0-7.31-4.24-5.89-8.3l5.89-16.87Z"/><path class="st3" d="M630.66,83.4l16.87,5.89c4.06,1.42,8.3-1.59,8.3-5.89h0c0-4.3-4.24-7.31-8.3-5.89l-16.87,5.89Z"/><path class="st3" d="M612.87,83.4l-16.87,5.89c-4.06,1.42-8.3-1.59-8.3-5.89h0c0-4.3,4.24-7.31,8.3-5.89l16.87,5.89Z"/><path class="st3" d="M627.85,77.31l11.64-5.61c2.8-1.35,3.43-5.06,1.23-7.26h0c-2.2-2.2-5.91-1.57-7.26,1.23l-5.61,11.64Z"/><path class="st3" d="M615.68,89.48l-5.61,11.64c-1.35,2.8-5.06,3.43-7.26,1.23h0c-2.2-2.2-1.57-5.91,1.23-7.26l11.64-5.61Z"/><path class="st3" d="M627.85,89.48l5.61,11.64c1.35,2.8,5.06,3.43,7.26,1.23h0c2.2-2.2,1.57-5.91-1.23-7.26l-11.64-5.61Z"/><path class="st3" d="M615.68,77.31l-11.64-5.61c-2.8-1.35-3.43-5.06-1.23-7.26h0c2.2-2.2,5.91-1.57,7.26,1.23l5.61,11.64Z"/><ellipse class="st12" cx="621.76" cy="83.4" rx="16.32" ry="10.66"/><circle class="st12" cx="621.76" cy="101.72" r="3.33"/><circle class="st12" cx="621.76" cy="65.08" r="3.33"/><path class="st3" d="M621.76,51.8c-.92,0-1.67-.75-1.67-1.67v-28.31c0-.92.75-1.67,1.67-1.67s1.67.75,1.67,1.67v28.31c0,.92-.75,1.67-1.67,1.67Z"/><rect class="st5" x="697.54" y="227.09" width="27.97" height="48.47" transform="translate(-36.63 349.76) rotate(-26.95)"/><path class="st3" d="M707.06,242.38h0c4.17-2.12,6.68-6.5,6.4-11.17l-.46-7.81-24.93,12.68,6.39,5.04c3.6,2.84,8.52,3.33,12.6,1.25h0Z"/><path class="st8" d="M734.28,263.86l67.6-10.36c8.96-1.14,15.2-9.45,13.81-18.37h0c-1.5-9.58-11.09-15.64-20.38-12.89l-73.11,22.56,12.09,19.05h-.01Z"/><polygon class="st8" points="710.33 275.29 695.82 247.29 730.7 242.77 734.28 263.86 710.33 275.29"/><path class="st8" d="M723.62,245.97l-2.8-7.1h0c1.39-.32,2.49.22,3.4,1.21,1.01,1.09,2.12,2.09,3.44,2.77l2.78,1.44-6.82,1.69h0Z"/><path class="st8" d="M699.63,266.83h0c-.58-2.19.72-4.43,2.9-5.01l2.64-.7,2.11,7.92-2.64.7c-2.19.58-4.43-.72-5.01-2.9"/><path class="st8" d="M703.21,273.31h0c-.7-2.15.47-4.46,2.62-5.17l2.6-.85,2.55,7.79-2.6.85c-2.15.7-4.46-.47-5.17-2.62"/><path class="st8" d="M695.62,259.93h0c-.58-2.19.72-4.43,2.9-5.01l3.31-.88,2.11,7.92-3.31.88c-2.19.58-4.43-.72-5.01-2.9"/><path class="st8" d="M691.88,253.1h0c-.7-2.15.47-4.46,2.62-5.17l2.6-.85,2.55,7.79-2.6.85c-2.15.7-4.46-.47-5.17-2.62"/><polygon class="st10" points="776.01 225.96 774.34 219.51 813.19 216.14 814.42 222.62 776.01 225.96"/><path class="st6" d="M465.02,158.16h18.88v8.59h-18.88c-2.37,0-4.3-1.92-4.3-4.3h0c0-2.37,1.92-4.3,4.3-4.3Z" transform="translate(43.08 -92.95) rotate(11.77)"/><path class="st6" d="M469.33,177.98h18.88v8.59h-18.88c-2.37,0-4.3-1.92-4.3-4.3h0c0-2.37,1.92-4.3,4.3-4.3Z" transform="translate(220.99 -259.37) rotate(39.01)"/></g></svg>