<?xml version="1.0" encoding="utf-8"?><!--Generator: Adobe Illustrator 27.8.0, SVG Export Plug-In . SVG Version: 6.00 Build 0)--><svg version="1.1" xmlns="http://www.w3.org/2000/svg" xmlns:xlink="http://www.w3.org/1999/xlink" x="0px" y="0px" viewBox="0 0 1200 840" style="enable-background:new 0 0 1200 840;" xml:space="preserve"><style type="text/css">.st0{fill:#B0C2E4;}
	.st1{fill:#D0DEF2;}
	.st2{fill:#8DA8DC;}
	.st3{fill:#FFC6AD;}
	.st4{fill:#D8CBC5;}
	.st5{fill:#FCCDB9;}
	.st6{fill:#EBB396;}
	.st7{fill:#020204;}
	.st8{fill:#E73245;}
	.st9{fill:#FFFFFF;}
	.st10{fill:#6CC3C7;}
	.st11{fill:#BF852E;}
	.st12{fill:#EB604C;}
	.st13{fill:#E6E3DA;}
	.st14{fill:#84CED4;}
	.st15{fill:#232144;}
	.st16{fill:#5FB4B8;}
	.st17{fill:#4B7CFE;}
	.st18{fill:#E5F0FF;}
	.st19{fill:#FFD4A9;}
	.st20{fill:#FFBD7A;}
	.st21{fill:#3867C3;}
	.st22{fill:#ED1E79;}
	.st23{fill:#7D441C;}
	.st24{fill:#291028;}
	.st25{fill:#F2B062;}</style><g id="light__x26__sink"><polygon class="st0" points="922.67,387.78 922.67,16 769.62,16 769.62,123.12 789.16,123.12 789.16,35.54 903.12,35.54 
		903.12,387.78 864.04,387.78 864.04,404.4 810.8,404.4 810.8,428.77 864.04,428.77 864.04,823.59 903.12,823.59 922.67,823.59 
		961.75,823.59 961.75,387.78 	"/><g><path class="st1" d="M767.35,220.19c19.03-22.1,19.88-54.53,2.67-77.95l19.14-19.14l-13.82-13.82l-19.14,19.14
			c-23.42-17.16-55.81-16.3-77.9,2.71c-1.91,1.64-2.05,4.55-0.27,6.33l82.98,82.98C762.8,222.24,765.71,222.1,767.35,220.19z"/><path class="st1" d="M799.77,381.43v-46.08c0-7.97-6.46-14.43-14.43-14.43s-14.43,6.46-14.43,14.43v10.83h6.9v-10.83
			c0-4.16,3.37-7.53,7.53-7.53s7.53,3.37,7.53,7.53v46.08h-69.71c0,34.48,28.27,62.43,63.14,62.43c34.87,0,63.14-27.95,63.14-62.43
			H799.77z"/></g></g><g id="Dentist"><path class="st2" d="M504.93,592.96v-24.81c0-23.49-19.04-42.53-42.53-42.53H405.3h-15.95h-57.11c-23.49,0-42.53,19.04-42.53,42.53
		v24.81h99.64v162.52H316.7c-4.71,0-8.53,3.82-8.53,8.53v25.06c-7.58,2.03-13.17,8.93-13.17,17.15c0,9.82,7.96,17.77,17.77,17.77
		c9.82,0,17.77-7.96,17.77-17.77c0-8.03-5.33-14.81-12.64-17.01v-24.84h158.85v25c-7.06,2.35-12.15,9-12.15,16.85
		c0,9.82,7.96,17.77,17.77,17.77c9.82,0,17.77-7.96,17.77-17.77c0-8.4-5.83-15.42-13.66-17.28v-24.93c0-4.71-3.82-8.53-8.53-8.53
		H405.3V592.96H504.93z"/><ellipse class="st3" cx="389.39" cy="184.83" rx="11.53" ry="11.54"/><ellipse class="st3" cx="467.64" cy="184.86" rx="11.53" ry="11.54"/><path class="st4" d="M464.46,189.31L464.46,189.31c-5.4,0-9.78,4.38-9.78,9.78v9.67c0,5.4,4.38,9.78,9.78,9.78h0
		c5.4,0,9.78-4.38,9.78-9.78v-9.67C474.24,193.68,469.86,189.31,464.46,189.31z M471.42,207.8c0,4.33-3.12,7.85-6.96,7.85h0
		c-3.84,0-6.96-3.51-6.96-7.85v-7.76c0-4.33,3.12-7.85,6.96-7.85h0c3.85,0,6.96,3.51,6.96,7.85V207.8z"/><path class="st4" d="M393.2,189.31L393.2,189.31c-5.4,0-9.78,4.38-9.78,9.78v9.67c0,5.4,4.38,9.78,9.78,9.78h0
		c5.4,0,9.78-4.38,9.78-9.78v-9.67C402.98,193.68,398.6,189.31,393.2,189.31z M400.16,207.8c0,4.33-3.12,7.85-6.96,7.85h0
		c-3.84,0-6.96-3.51-6.96-7.85v-7.76c0-4.33,3.12-7.85,6.96-7.85h0c3.85,0,6.96,3.51,6.96,7.85V207.8z"/><polygon class="st5" points="250.54,632.02 233.16,661.77 274.15,695.52 296.74,653.41 	"/><path class="st6" d="M400.04,244.25v-36.31H456v36.31c0,15.46-12.53,27.99-27.98,27.99h0
		C412.57,272.24,400.04,259.71,400.04,244.25z"/><path class="st3" d="M390.72,201.26V150.2c0-17.41,14.11-31.52,31.52-31.52h12.49c17.41,0,31.52,14.11,31.52,31.52v51.06
		c0,17.41-14.11,31.52-31.52,31.52h-12.49C404.83,232.78,390.72,218.67,390.72,201.26z"/><path class="st7" d="M428.4,197.74c-0.43,0-0.88-0.05-1.34-0.14c-1.31-0.26-2.55-0.94-3.69-2c-0.61-0.56-1.2-0.81-1.84-0.76
		c-1.26,0.11-2.25,1.38-2.26,1.4l-1.21-0.91c0.06-0.07,1.39-1.82,3.33-1.99c1.07-0.1,2.08,0.29,3.01,1.15
		c0.94,0.87,1.93,1.41,2.96,1.62c1.05,0.21,1.98,0.11,2.78-0.29c0.33-0.17,0.67-0.44,0.98-0.78c0.4-0.44,1.52-1.47,3.13-1.53
		c1.3-0.04,2.59,0.53,3.85,1.72l-1.04,1.1c-0.95-0.9-1.84-1.33-2.76-1.31c-1.04,0.04-1.8,0.74-2.07,1.04
		c-0.44,0.47-0.91,0.84-1.4,1.09C430.09,197.55,429.28,197.74,428.4,197.74z"/><path class="st8" d="M428.61,208.89c0-3.23-4.95-2.8-4.95-2.8h-11.18c0.11-0.63,15.8,24.01,32.26,0h-11.18
		C433.56,206.09,428.61,205.66,428.61,208.89L428.61,208.89z"/><path class="st9" d="M437.08,181.68c0,0,2.76-5.91,8.05-7.74c5.29-1.84,11.11,1.09,11.11,1.09s-2.12,4.82-7.41,6.65
		C443.54,183.51,437.08,181.68,437.08,181.68z"/><path class="st7" d="M437.08,181.67c1.36-9.44,13.3-13.48,20.64-9.04c-0.45,0.72-1.31,2.18-1.76,2.9
		c-1.62-0.98-10.05-4.39-17.7,4.79C437.79,180.88,437.73,181.11,437.08,181.67z"/><path class="st10" d="M375.74,323.12l80.45-78.96h51.33l0,0.01c1.4-0.01,2.81,0.04,4.23,0.18c14.6,1.43,26.53,10.71,32.03,23.26
		l0.01,0l43.07,96.05c8.15,17.57-1.18,38.28-19.73,43.81l-51.19,14.59H373.12L375.74,323.12z"/><path class="st9" d="M418.67,181.58c0,0-2.76-5.91-8.05-7.74c-5.29-1.84-11.11,1.09-11.11,1.09s2.12,4.82,7.41,6.65
		C412.21,183.42,418.67,181.58,418.67,181.58z"/><path class="st7" d="M418.67,181.58c-1.36-9.44-13.3-13.48-20.64-9.04c0.45,0.72,1.31,2.18,1.76,2.9
		c1.62-0.98,10.05-4.39,17.7,4.79C417.96,180.79,418.02,181.02,418.67,181.58z"/><path class="st11" d="M416.91,159.08h-19.58l0,0c0-3.06,2.48-5.54,5.54-5.54h19.58l0,0C422.45,156.6,419.97,159.08,416.91,159.08z"/><path class="st11" d="M458.72,169.42l-18.88-5.2c-2.95-0.81-4.68-3.86-3.87-6.81v0l18.88,5.2
		C457.8,163.42,459.54,166.47,458.72,169.42L458.72,169.42z"/><path class="st11" d="M435.78,135.33c16.12,0,29.28,12.84,30.04,28.97v9.72h5.94v-27.26c0-18.22-14.77-32.99-32.98-32.99h-20.47
		c-18.22,0-32.98,14.77-32.98,32.99v27.26h5.94v-9.72c0.76-16.13,13.92-28.97,30.04-28.97H435.78z"/><line class="st12" x1="338.89" y1="306.43" x2="339.02" y2="306.63"/><path class="st7" d="M448.83,181.67c0.64-0.22,1.24-0.49,1.79-0.79c-0.48-2.01-2.28-3.51-4.44-3.51c-2.53,0-4.58,2.05-4.58,4.58
		c0,0.16,0.03,0.31,0.05,0.47C443.81,182.58,446.44,182.5,448.83,181.67z"/><path class="st7" d="M405.39,180.79c0.61,0.34,1.26,0.65,1.99,0.9c2.32,0.8,4.86,0.91,6.98,0.76c0.05-0.45,0.04-0.92-0.05-1.41
		c-0.34-1.79-1.81-3.26-3.6-3.6C408.2,176.98,405.97,178.55,405.39,180.79z"/><polygon class="st5" points="438.58,783.03 426.38,725.21 481.73,718.03 491.42,778.91 	"/><path class="st10" d="M379.48,408.01c-20.26,0.25-38.46,12.43-46.42,31.05l-82.52,192.95l79.87,40.09l92.41-212.18
		c-0.02,0.65-0.05,1.29-0.05,1.94l13.54,70.88h49.13v-0.18c36.91-2.47,66.08-33.17,66.08-70.7c0-39.14-31.73-70.88-70.88-70.88
		L379.48,408.01z"/><rect x="433.57" y="792.37" class="st4" width="64.86" height="11.71"/><path class="st13" d="M498.43,792.37c0-15.46-14.52-27.99-32.43-27.99c-17.91,0-32.43,12.53-32.43,27.99"/><rect x="202.41" y="686.86" transform="matrix(0.9139 0.4059 -0.4059 0.9139 302.4644 -37.2468)" class="st4" width="73.27" height="15.15"/><path class="st13" d="M275.59,702.38c6.28-14.13-3.63-32.24-22.12-40.45c-18.49-8.21-38.57-3.42-44.84,10.71"/><path class="st14" d="M487.4,422.05l-39.52-128.89l-47.84-48.91l-0.46,0l-0.01-0.08l-57.11,0.11c-10.34,0.78-17.59,5.5-22.48,12.58
		l0,0l0,0l-54.68,106.9c-8.15,17.57,1.18,38.28,19.73,43.81l59.61,14.49H487.4z"/><path class="st13" d="M422.9,251.84l3.96,12.64c0.14,0.45,0.74,0.53,1,0.14l3.04-4.55c0.23-0.35,0.75-0.33,0.95,0.03l2.8,4.91
		c0.24,0.42,0.86,0.36,1.02-0.1l4.42-13.01c0.68-2-0.81-4.07-2.91-4.07h-0.04c-0.79,0-1.55,0.3-2.12,0.85l-0.67,0.64
		c-1.54,1.46-3.94,1.51-5.53,0.11l-0.95-0.83c-0.56-0.49-1.28-0.76-2.03-0.76l0,0C423.76,247.84,422.28,249.85,422.9,251.84z"/><path class="st15" d="M438.77,248.3c-1.77,0-3.2,1.43-3.2,3.2c0,1.77,1.43,3.2,3.2,3.2c0.13,0,0.26-0.02,0.39-0.04l0.94-2.76
		C440.58,250.47,439.94,249.01,438.77,248.3z"/><path class="st16" d="M495.86,757.04h-73.04l-48.23-255.17c-3.66-19.38,5.97-39.13,23.87-47.39c4.34-2,9.07-3.32,14.05-3.79
		l7.25-0.09c0.57,0.04,1.14,0.09,1.7,0.15c17.2,1.87,30.77,15.53,33.34,32.64L495.86,757.04z"/><path class="st3" d="M582.31,382.89c3.11-11.33-1.42-22.95-10.47-29.37l0,0l-65.72-58.25l-39.6,6.02l68.02,90.96
		c3.48,4.55,8.42,8.04,14.37,9.67C563.38,405.88,578.33,397.37,582.31,382.89z"/><path class="st17" d="M432.91,256.38L432.91,256.38c0.97-2.54,3.81-3.81,6.35-2.85l34.1,12.99c2.54,0.97,3.81,3.81,2.85,6.35l0,0
		c-0.97,2.54-3.81,3.81-6.35,2.85l-34.1-12.99C433.22,261.76,431.95,258.92,432.91,256.38z"/><path class="st17" d="M442.11,271.15L442.11,271.15c0.97-2.54,3.81-3.81,6.35-2.85l27.25,10.38c2.54,0.97,3.81,3.81,2.85,6.35l0,0
		c-0.97,2.54-3.81,3.81-6.35,2.85l-27.25-10.38C442.42,276.53,441.15,273.69,442.11,271.15z"/><path class="st17" d="M444.2,283.23L444.2,283.23c0.97-2.54,3.81-3.81,6.35-2.85l27.25,10.38c2.54,0.97,3.81,3.81,2.85,6.35v0
		c-0.97,2.54-3.81,3.81-6.35,2.85l-27.25-10.38C444.51,288.61,443.23,285.76,444.2,283.23z"/><path class="st17" d="M447.88,295.77L447.88,295.77c0.97-2.54,3.81-3.81,6.35-2.85l27.25,10.38c2.54,0.97,3.81,3.81,2.85,6.35l0,0
		c-0.97,2.54-3.81,3.81-6.35,2.85l-27.25-10.38C448.18,301.15,446.91,298.31,447.88,295.77z"/><polygon class="st17" points="505.89,294.89 501.61,320.99 456.8,298.41 456.8,287.51 457.71,267.6 469.69,265.13 478.17,268.08 	
		"/><path class="st3" d="M386.25,331.25l-24.92-27.5l-83.92,53.85l-0.07,0.05l0,0.01c-3.31,2.55-6.02,5.97-7.74,10.11
		c-5.28,12.68,0.71,27.24,13.4,32.53c7.6,3.17,15.88,2.28,22.43-1.67l0,0l0.01-0.01L386.25,331.25z"/><path class="st17" d="M397.55,282.5L397.55,282.5c-1.41-2.32-0.66-5.35,1.66-6.75l24.94-15.1c2.32-1.41,5.35-0.66,6.75,1.66l0,0
		c1.41,2.32,0.66,5.35-1.66,6.75l-24.94,15.1C401.98,285.57,398.96,284.83,397.55,282.5z"/><path class="st17" d="M370.72,293.22L370.72,293.22c-2.55-0.93-3.87-3.75-2.94-6.31l9.99-27.39c0.93-2.55,3.75-3.87,6.31-2.94l0,0
		c2.55,0.93,3.87,3.75,2.94,6.31l-9.99,27.39C376.09,292.84,373.27,294.15,370.72,293.22z"/><path class="st17" d="M393.75,297.61L393.75,297.61c-1.41-2.32-0.66-5.35,1.66-6.75l24.94-15.1c2.32-1.41,5.35-0.66,6.75,1.66v0
		c1.41,2.32,0.66,5.35-1.66,6.75l-24.94,15.1C398.18,300.68,395.16,299.93,393.75,297.61z"/><path class="st17" d="M390.32,312.36L390.32,312.36c-1.41-2.32-0.66-5.35,1.66-6.75l24.94-15.1c2.32-1.41,5.35-0.66,6.75,1.66l0,0
		c1.41,2.32,0.66,5.35-1.66,6.75l-24.94,15.1C394.75,315.43,391.72,314.68,390.32,312.36z"/><path class="st17" d="M401.06,318.12L401.06,318.12c-1.41-2.32-0.66-5.35,1.66-6.75l8.43-5.1c2.32-1.41,5.35-0.66,6.75,1.66l0,0
		c1.41,2.32,0.66,5.35-1.66,6.75l-8.43,5.1C405.49,321.19,402.47,320.44,401.06,318.12z"/><polygon class="st17" points="371.08,277.87 360.13,306.06 382.55,333.16 405.98,320.44 403.18,273.35 376.63,289.83 	"/><rect x="398.32" y="180.94" class="st3" width="59.4" height="8.37"/><rect x="406.62" y="127.9" class="st3" width="4.61" height="16.99"/><path class="st17" d="M450.6,227.42h-44.24c-8.85,0-16.03-7.18-16.03-16.03v-27.34h76.3v27.34
		C466.63,220.24,459.46,227.42,450.6,227.42z"/><polygon class="st17" points="489.76,332.36 522.45,309.74 498.11,287.39 473.68,310.86 	"/><polygon class="st17" points="361.33,303.74 344.64,314.45 370.58,344.3 394.67,324.51 	"/></g><g id="chair"><path class="st1" d="M956.2,586.95l-286.37-70.05l-268.6,49.38L125.67,347.4c-11.4-9.05-27.97-7.15-37.03,4.24
		c-9.05,11.4-7.15,27.98,4.24,37.03L387.2,622.45l281.06-51.67l19.96,4.88v181.31h-212.6c-30.25,0-54.77,24.52-54.77,54.77v11.85
		h540.9v-11.85c0-30.25-24.52-54.77-54.77-54.77H785.94V599.57l157.74,38.58c2.1,0.51,4.21,0.76,6.28,0.76
		c11.86,0,22.64-8.06,25.58-20.1C979,604.68,970.34,590.41,956.2,586.95z"/><path class="st18" d="M1090.74,625.99c-2.19,0-4.41-0.26-6.64-0.8L668.22,523.65l-281.43,51.73L91.92,341.16
		c-12.06-9.58-14.07-27.13-4.49-39.19c9.58-12.06,27.13-14.07,39.19-4.49l275.01,218.45l268.23-49.31l427.47,104.37
		c14.96,3.65,24.13,18.75,20.48,33.71C1114.71,617.44,1103.3,625.98,1090.74,625.99z"/></g><g id="kid"><polygon class="st19" points="234.97,351.28 265.19,325.71 302.59,354.53 274.63,380.17 	"/><polygon class="st20" points="604.95,470.56 769.17,477.23 771.47,448.15 606.52,428.4 	"/><polygon class="st21" points="750.25,478.33 753,444.15 756.87,444.47 774.2,405.67 788.2,406.87 781.86,480.89 	"/><polyline class="st22" points="250,375.77 333.89,445.34 384.48,404.79 294.28,348.12 	"/><polygon class="st19" points="702.97,482.36 774.4,489.65 775.37,461.72 704.52,448.12 	"/><polygon class="st17" points="753.91,489.82 756.66,455.64 760.53,455.95 777.86,417.15 791.86,418.36 785.52,492.38 	"/><path class="st17" d="M599.96,408.75l-179.43,8.15l-48.88,0.97L352,464.7c19.61,26.68,43.51,49.75,105.28,40.08
		c23.06-3.61,147.68-25.84,147.68-25.84l139.43,16.18l1.76-63.95L599.96,408.75z"/><path class="st19" d="M221.89,358.19l-22.08-14.2c-13.8-8.87-17.8-27.26-8.93-41.06l9.38-14.6c6.12-9.52,18.81-12.28,28.33-6.16
		l41.68,26.79c7.26,4.67,9.37,14.34,4.7,21.6l-12.02,18.69C254.08,363.07,235.7,367.06,221.89,358.19z"/><path class="st19" d="M254.61,295.23c-2.63,0.87-5.86,1.95-5.86,1.95l10.32,7.91c0,0-0.12-5.19-1.28-8.19
		C257.45,296.04,256.36,294.65,254.61,295.23z"/><ellipse transform="matrix(0.7033 -0.7109 0.7109 0.7033 -160.6984 248.1136)" class="st23" cx="216.9" cy="316.58" rx="8.68" ry="8.68"/><path class="st9" d="M243.53,306.7c0,0,6.1-4.32,6.68-5.95c0,0-4.51-2.61-5.77-1.79C242.81,300.02,243.53,306.7,243.53,306.7z"/><path d="M250.17,300.88c-0.28,1.04-1.96,1.46-3.75,0.95c-1.8-0.51-3.03-1.77-2.75-2.8c0.28-1.04,1.95-1.46,3.75-0.95
		C249.22,298.59,250.45,299.85,250.17,300.88"/><path d="M244.5,298.34l-0.71,0.32c0,0-1.51,2.88-0.87,8.48l0.95-0.6c0,0-0.75-3.12,0.82-8.16L244.5,298.34z"/><path class="st24" d="M235.33,297.43l-0.09,0.24c-0.91,2.49-0.65,5.22,0.69,7.4l0,0l4.72-12.89l0,0
		C238.2,293,236.23,294.94,235.33,297.43L235.33,297.43L235.33,297.43z"/><rect x="228.98" y="305.75" transform="matrix(0.5299 -0.8481 0.8481 0.5299 -163.6937 347.227)" class="st24" width="4.76" height="31.04"/><path d="M260.1,307.41c-0.89,2.39,1.67,4.64,3.89,3.39c0.76-0.43,1.53-1,2.27-1.75c0.51-0.52,0.95-1.03,1.42-1.75l-6.08-3.92
		L260.1,307.41z"/><path class="st25" d="M184.95,348.1c-9.73-6.59-12.32-19.9-5.48-30.55l22.72-37.38c4.17-6.48,12.8-8.36,19.28-4.19l0,0
		c6.48,4.17,8.08,12.63,4.19,19.28c-1.63,2.78-4.01,4.6-6.05,5.75c4.28-1.03,8.95-0.41,12.97,2.1l1,0.62
		c6.92,4.32,9.64,12.8,6.97,20.17c3.18-0.08,6.42,0.73,9.32,2.55l1.28,0.8c7.88,4.92,10.28,15.3,5.35,23.18l-16.24,25.99
		L184.95,348.1z"/><path class="st22" d="M191.04,291.03l6.47-0.92l0.92,6.47c0.81,5.65-3.12,10.88-8.77,11.69l-6.47,0.92l-0.92-6.47
		C181.47,297.07,185.39,291.84,191.04,291.03z"/><path class="st22" d="M184.72,276.17l2.43-6.06l6.06,2.43c5.3,2.13,7.86,8.14,5.74,13.44l-2.43,6.06l-6.06-2.43
		C185.16,287.48,182.59,281.47,184.72,276.17z"/><polygon class="st22" points="197.51,290.11 227.52,332.02 225.23,336.58 193.18,299.35 	"/><polygon class="st19" points="286.67,380.17 268.66,411.65 337.87,466.42 348.95,436.46 	"/><path class="st22" d="M305.92,387.79l-24.98-22.97c-9.34-6.75-22.93-0.13-29.68,9.22l-1.26,1.74c-7.17,9.92-4.94,23.76,4.98,30.93
		l24.48,17.7L305.92,387.79z"/><path class="st19" d="M358.4,465l40.09-44.28l0,0l20.71-19.23c1.85-1.87,1.83-4.88-0.04-6.72l0,0c-0.55-0.54-1.2-0.9-1.88-1.12
		c1.43-1.87,1.31-4.55-0.42-6.26c-1.47-1.46-3.65-1.73-5.41-0.88c1.56-1.88,1.48-4.66-0.29-6.41c-1.25-1.23-3-1.62-4.58-1.19
		c-0.08-1.19-0.6-2.35-1.55-3.21c-1.95-1.76-4.73-1.85-6.71,0.35l-2.8,3.55c-1.88-0.58-3.99-0.13-5.47,1.33l-7.56,7.89
		c-2.25,2.91-2.27,15.4-2.27,15.4l-42.69,40.25c-6.24,5.86-6.15,15.79,0.2,21.54C343.71,471.45,352.97,470.99,358.4,465z
		 M401.24,382.97l0.24,0.21l-0.02,0.02L401.24,382.97z"/><path class="st1" d="M403.5,594.67l-18.59-0.6l1.97-61c1.21-37.55,28.99-69.31,66.04-75.52l125.45-21.03
		c41.99-7.04,81.77,20.08,90.55,61.75l9.2,43.66l-18.2,3.84l-9.2-43.66c-6.72-31.88-37.16-52.63-69.29-47.25l-125.45,21.03
		c-28.35,4.75-49.6,29.05-50.53,57.78L403.5,594.67z"/><path class="st0" d="M454.44,492.76c-11.89,0-22.39-8.58-24.42-20.7c-2.26-13.5,6.85-26.29,20.35-28.55l125.45-21.02
		c13.5-2.27,26.29,6.85,28.55,20.35c2.26,13.5-6.85,26.29-20.35,28.55l-125.45,21.02C457.18,492.65,455.8,492.76,454.44,492.76z"/></g></svg>