<svg viewBox="0 0 1600 1200" fill="none" xmlns="http://www.w3.org/2000/svg"><path d="M1219.31 433.977L1216.42 435.469L1230 461.791L1232.89 460.299L1219.31 433.977Z" fill="#EE2E3B"/><path d="M1203.43 427.203L1200.54 428.707L1218.61 463.359L1221.49 461.854L1203.43 427.203Z" fill="#EE2E3B"/><path d="M1238.97 419.446C1238.97 419.446 1249.66 405.556 1250.96 388.153C1252.26 370.749 1217.22 328.414 1217.22 328.414L1213.56 392.425L1207.02 398.695L1238.97 419.446Z" fill="#A8A8A8"/><path d="M1170.19 377.794C1173.95 387.224 1192.15 432.095 1215.49 438.707C1239.56 445.496 1274.63 434.611 1274.38 420.409C1274.07 402.143 1247 412.591 1223.59 403.816C1175.62 385.893 1161.45 355.712 1170.19 377.794Z" fill="#C6C6C6"/><path d="M1224.89 406.634C1224.89 406.634 1233.88 391.591 1233.18 374.166C1232.46 356.731 1192.74 318.742 1192.74 318.742L1196.49 382.754L1190.72 389.73L1224.89 406.634Z" fill="#C6C6C6"/><path d="M1274.38 420.344L1287.97 432.778L1271.44 427.538L1274.38 420.344Z" fill="#EE2E3B"/><path d="M1271.44 427.543L1266.83 431.608L1288 432.814C1286.86 432.315 1271.44 427.543 1271.44 427.543Z" fill="#EE2E3B"/><path d="M1260.73 421.852C1262.46 421.852 1263.86 420.451 1263.86 418.723C1263.86 416.995 1262.46 415.594 1260.73 415.594C1259.01 415.594 1257.6 416.995 1257.6 418.723C1257.6 420.451 1259.01 421.852 1260.73 421.852Z" fill="black"/><path d="M612.159 710.475L539.704 655.217C539.351 654.895 539.008 654.572 538.675 654.24C528.218 643.833 528.384 626.803 538.457 616.022L551.004 602.59L628.302 696.678L612.148 710.475H612.159Z" fill="#A86554"/><path d="M639.363 695.251L638.063 719.298L609.383 714.235L617.449 689.512L639.363 695.251Z" fill="#A86554"/><path d="M636.524 754.603C634.768 756.277 631.982 756.193 630.318 754.436L616.981 740.38L623.354 734.34L636.691 748.396C638.364 750.153 638.281 752.929 636.524 754.603Z" fill="#A86554"/><path d="M637.907 750.233C635.922 751.627 633.177 751.138 631.795 749.152L620.703 733.266L627.897 728.234L638.988 744.12C640.381 746.106 639.893 748.851 637.907 750.233Z" fill="#A86554"/><path d="M617.804 711.774L609.371 714.23L617.002 740.432L625.435 737.976L617.804 711.774Z" fill="#A86554"/><path d="M621.384 709.734L613.1 712.652L622.163 738.394L630.448 735.476L621.384 709.734Z" fill="#A86554"/><path d="M794.791 545.586L817.099 629.122L777.41 650.425L741.173 558.436L794.791 545.586Z" fill="#7D441C"/><path d="M773.73 659.083L780.622 519.801C780.622 519.801 718.833 501.066 699.873 501.066C682.596 501.066 615.9 520.123 615.9 520.123L626.004 659.083H773.73Z" fill="#BAC09A"/><path d="M688.822 883.971L698.24 697.156L625.89 721.567L624.445 883.057C624.351 901.822 640.245 916.689 658.957 915.338C675.506 914.142 688.437 900.564 688.822 883.971Z" fill="#3867C3"/><path d="M773.73 748.586V676.008H625.994L626.795 749.023L773.73 748.586Z" fill="#3867C3"/><path d="M773.72 566.637H625.994V718.54H773.72V566.637Z" fill="#BAC09A"/><path d="M773.294 659.083L780.113 519.801C780.113 519.801 718.927 501.066 700.153 501.066C683.043 501.066 617.013 520.123 617.013 520.123L627.013 659.083H773.283H773.294Z" fill="#D8CBC5"/><path d="M647.752 569.525L592.47 552.434L550.442 603.335L570.339 641.792L647.752 569.525Z" fill="#A86554"/><path d="M594.768 546.012C594.768 546.012 605.599 513.512 630.621 518.949C647.762 522.671 660.112 537.434 657.679 554.807C655.257 572.18 627.128 598.66 627.128 598.66L594.778 546.022L594.768 546.012Z" fill="#D8CBC5"/><path d="M622.043 607.183L578.353 560.669L595.546 544.492L639.247 591.017L622.043 607.183Z" fill="#D8CBC5"/><path d="M802.93 552.704C802.93 552.704 799.323 519.591 773.647 518.645C756.121 518 740.913 530.435 739.593 547.932C738.272 565.429 761.402 597.274 761.402 597.274L802.93 552.704Z" fill="#D8CBC5"/><path d="M805.984 550.241L753.39 586.406L766.764 605.862L819.359 569.696L805.984 550.241Z" fill="#D8CBC5"/><path d="M655.735 508.643V554.596C655.735 564.254 663.563 572.083 673.22 572.083H723.74C733.397 572.083 741.225 564.254 741.225 554.596V507.863C761.558 513.02 780.841 518.873 780.841 518.873L773.949 658.156L773.481 720.961L625.891 721.554L625.652 658.156L616.119 519.196C616.119 519.196 635.288 513.717 655.735 508.633V508.643Z" fill="#3867C3"/><path d="M638.541 729.928C636.368 730.999 633.738 730.115 632.657 727.942L617.771 695.837L625.641 691.949L640.527 724.054C641.597 726.227 640.714 728.857 638.541 729.938" fill="#A86554"/><path d="M849.542 560.738L782.389 621.579C772.556 629.958 771.578 644.805 780.238 654.401C789.531 664.704 805.768 664.454 814.739 653.881L873.482 581.511L849.532 560.738H849.542Z" fill="#A86554"/><path d="M772.223 831.043L770.768 861.505L714.208 863.345L714.146 831.76L772.223 831.043Z" fill="#463EC5"/><path d="M711.193 708.193C713.937 727.198 731.567 740.37 750.57 737.626C767.14 735.224 779.281 721.511 780.289 705.438C780.435 703.078 780.341 700.676 779.998 698.243C777.254 679.239 759.624 666.066 740.621 668.811C721.619 671.556 708.448 689.188 711.193 708.193Z" fill="#463EC5"/><path d="M770.944 857.739L714.145 848.787L711.037 707.041L780.373 705.43L770.944 857.739Z" fill="#463EC5"/><path d="M714.208 863.342L714.239 902.371L760.664 899.553L762.275 861.762L714.208 863.342Z" fill="#A86554"/><path d="M777.004 913.05L777.118 898.64C777.118 898.64 771.827 878.918 745.569 879.542C719.321 880.166 714.228 902.373 714.228 902.373L714.862 915.212L776.994 913.06L777.004 913.05Z" fill="#232144"/><path d="M762.254 873.469L714.052 874.103L714.239 902.371L762.296 893.95L762.254 873.469Z" fill="#232144"/><path d="M311 1020H981.988L910.843 910.594H311V1020Z" fill="#232144"/><path d="M676.567 442.41C674.789 446.246 670.236 447.92 666.4 446.142C662.564 444.364 660.891 439.81 662.668 435.974C664.446 432.138 668.999 430.464 672.835 432.242C676.671 434.02 678.344 438.573 676.567 442.41Z" fill="#171111"/><path d="M671.442 433.845C669.779 437.443 665.517 439.002 661.92 437.339C658.324 435.675 656.764 431.413 658.428 427.815C660.091 424.218 664.353 422.659 667.95 424.322C671.546 425.986 673.105 430.248 671.442 433.845Z" fill="#171111"/><path d="M670.413 424.693C668.75 428.29 664.488 429.85 660.891 428.186C657.294 426.523 655.735 422.26 657.398 418.663C659.061 415.066 663.323 413.506 666.92 415.17C670.517 416.833 672.076 421.096 670.413 424.693Z" fill="#171111"/><path d="M670.111 414.056C668.448 417.654 664.186 419.213 660.589 417.55C656.993 415.886 655.433 411.624 657.096 408.026C658.76 404.429 663.022 402.87 666.618 404.533C670.215 406.197 671.774 410.459 670.111 414.056Z" fill="#171111"/><path d="M676.119 406.131C674.154 410.362 669.134 412.213 664.903 410.248C660.672 408.283 658.822 403.261 660.786 399.02C662.751 394.788 667.772 392.938 672.003 394.903C676.234 396.868 678.084 401.889 676.119 406.12" fill="#171111"/><path d="M686.369 398.889C684.404 403.12 679.384 404.971 675.153 403.006C670.922 401.041 669.072 396.019 671.036 391.777C673.001 387.546 678.022 385.695 682.253 387.66C686.483 389.625 688.334 394.647 686.369 398.878" fill="#171111"/><path d="M693.262 395.603C691.598 399.2 687.336 400.76 683.74 399.096C680.143 397.433 678.584 393.17 680.247 389.573C681.91 385.976 686.172 384.417 689.769 386.08C693.366 387.743 694.925 392.006 693.262 395.603Z" fill="#171111"/><path d="M703.199 395.603C701.536 399.2 697.274 400.76 693.677 399.096C690.08 397.433 688.521 393.17 690.184 389.573C691.848 385.976 696.11 384.417 699.706 386.08C703.303 387.743 704.862 392.006 703.199 395.603Z" fill="#171111"/><path d="M711.484 397.142C709.821 400.739 705.559 402.299 701.962 400.635C698.366 398.972 696.806 394.709 698.47 391.112C700.133 387.515 704.395 385.956 707.991 387.619C711.588 389.282 713.148 393.545 711.484 397.142Z" fill="#171111"/><path d="M718.127 399.521C716.464 403.118 712.202 404.678 708.605 403.014C705.008 401.351 703.449 397.088 705.112 393.491C706.775 389.894 711.037 388.334 714.634 389.998C718.231 391.661 719.79 395.924 718.127 399.521Z" fill="#171111"/><path d="M724.374 403.589C722.597 407.426 718.044 409.099 714.208 407.322C710.372 405.544 708.698 400.99 710.476 397.154C712.254 393.318 716.807 391.644 720.643 393.421C724.478 395.199 726.152 399.753 724.374 403.589Z" fill="#171111"/><path d="M679.571 460.189C679.571 455.043 675.392 450.863 670.246 450.863C665.101 450.863 660.922 455.043 660.922 460.189C660.922 465.335 665.101 469.515 670.246 469.515C675.392 469.515 679.571 465.335 679.571 460.189Z" fill="#A86554"/><path d="M722.379 460.189C722.379 455.043 726.558 450.863 731.703 450.863C736.849 450.863 741.028 455.043 741.028 460.189C741.028 465.335 736.849 469.515 731.703 469.515C726.558 469.515 722.379 465.335 722.379 460.189Z" fill="#A86554"/><path d="M724.01 514.549V478.577L677.938 478.441V514.549C677.938 523.916 685.527 531.505 694.893 531.505H707.055C716.421 531.505 724.01 523.916 724.01 514.549Z" fill="#7D441C"/><path d="M731.797 474.049V432.588C731.797 418.563 720.435 407.199 706.412 407.199H695.538C681.515 407.199 670.153 418.563 670.153 432.588V474.049C670.153 488.074 681.515 499.437 695.538 499.437H706.412C720.435 499.437 731.797 488.074 731.797 474.049Z" fill="#A86554"/><path d="M700.164 470.148C698.719 470.148 697.586 469.431 696.588 468.808C694.935 467.779 693.947 467.155 691.962 469.14L690.673 467.851C693.687 464.837 695.839 466.178 697.565 467.269C698.438 467.82 699.259 468.329 700.174 468.329C701.089 468.329 701.889 467.851 702.71 467.352C704.353 466.344 706.39 465.097 709.779 467.903L708.615 469.306C706.234 467.332 705.216 467.955 703.667 468.912C702.71 469.494 701.629 470.159 700.174 470.159" fill="#010101"/><path d="M675.714 441.734C675.143 440.123 679.155 437.211 684.685 435.247C690.216 433.282 695.164 433.001 695.735 434.612C696.307 436.224 692.295 439.135 686.764 441.1C681.234 443.065 676.286 443.345 675.714 441.734Z" fill="#171111"/><path d="M706.567 435.139C707.066 433.496 712.025 433.527 717.649 435.201C723.272 436.875 727.431 439.567 726.932 441.21C726.433 442.853 721.474 442.822 715.85 441.148C710.227 439.474 706.079 436.781 706.567 435.139Z" fill="#171111"/><path d="M709.873 502.166H690.715C687.544 502.166 684.977 499.598 684.977 496.427V492.445H715.611V496.427C715.611 499.598 713.044 502.166 709.873 502.166Z" fill="#171111"/><path d="M702.368 484.434H698.221V494.383H702.368V484.434Z" fill="#171111"/><path d="M688.968 480.641H684.82V495.466H688.968V480.641Z" fill="#171111"/><path d="M715.538 480.641H711.391V495.466H715.538V480.641Z" fill="#171111"/><path d="M670.433 457.493V437.885C670.433 424.13 681.452 412.975 695.049 412.975H706.9C720.497 412.975 731.515 424.13 731.515 437.885V457.493H736.339V422.332C736.339 407.423 724.249 395.332 709.343 395.332H692.596C677.689 395.332 665.6 407.413 665.6 422.332V457.493H670.423H670.433Z" fill="#171111"/><path d="M709.946 455.428C710.32 457.289 713.678 458.184 717.451 457.435C721.214 456.686 723.968 454.566 723.594 452.705C723.22 450.844 719.863 449.949 716.089 450.698C712.316 451.447 709.572 453.568 709.946 455.428Z" fill="white"/><path d="M715.07 454.066C715.07 455.969 716.619 457.508 718.521 457.508C720.423 457.508 721.972 455.969 721.972 454.066C721.972 452.164 720.423 450.625 718.521 450.625C716.619 450.625 715.07 452.164 715.07 454.066Z" fill="black"/><path d="M691.836 455.428C691.462 457.289 688.105 458.184 684.331 457.435C680.569 456.686 677.814 454.566 678.188 452.705C678.563 450.844 681.92 449.949 685.693 450.698C689.466 451.447 692.21 453.568 691.836 455.428Z" fill="white"/><path d="M690.205 454.644C690.205 456.547 688.656 458.086 686.754 458.086C684.852 458.086 683.303 456.547 683.303 454.644C683.303 452.742 684.852 451.203 686.754 451.203C688.656 451.203 690.205 452.742 690.205 454.644Z" fill="black"/><path d="M890.479 566.451L918.65 533.827C920.521 531.696 920.313 528.462 918.182 526.591C916.051 524.72 912.818 524.928 910.947 527.059L893.972 546.937L893.411 546.448L914.887 521.455C916.758 519.324 916.55 516.091 914.419 514.219C912.288 512.348 909.055 512.556 907.184 514.687L887.184 538.006L886.623 537.518L909.211 511.256C911.082 509.125 910.874 505.892 908.743 504.02C906.612 502.149 903.38 502.357 901.508 504.488L877.444 532.434L876.882 531.945L897.402 508.033C899.273 505.902 899.066 502.669 896.935 500.797C894.804 498.926 891.571 499.134 889.7 501.265L863.639 531.55L866.903 516.465C867.454 513.689 865.655 510.986 862.88 510.435C860.104 509.884 857.402 511.682 856.851 514.458L851.539 539.805C850.26 546.209 849.99 552.78 850.728 559.267L831.757 580.871L855.915 602.091L880.739 573.822C884.19 572.211 887.277 569.945 889.845 567.138L890.469 566.451H890.479Z" fill="#A86554"/><path d="M1068.78 434.123C1077.11 432.501 1083.81 425.805 1085.43 417.467C1087.53 406.634 1081.58 396.238 1071.29 392.755C1062.55 389.792 1056.68 381.818 1056.68 372.908V344.463C1056.68 340.2 1060.14 336.738 1064.4 336.738C1068.66 336.738 1072.12 340.2 1072.12 344.463V372.908C1072.12 375.226 1073.74 377.274 1076.25 378.127C1093.95 384.126 1104.18 401.914 1100.58 420.42C1097.78 434.882 1086.18 446.474 1071.72 449.281" fill="#D8CBC5"/><path d="M1069.11 501.214C1053.7 501.214 1041.63 483.987 1041.63 461.988C1041.63 439.989 1053.7 422.762 1069.11 422.762C1084.51 422.762 1096.58 439.989 1096.58 461.988C1096.58 483.987 1084.51 501.214 1069.11 501.214ZM1069.11 434.156C1060.4 434.156 1053.04 446.902 1053.04 461.977C1053.04 477.052 1060.4 489.799 1069.11 489.799C1077.82 489.799 1085.18 477.052 1085.18 461.977C1085.18 446.902 1077.82 434.156 1069.11 434.156Z" fill="#232144"/><path d="M1030.14 180H1022.41V294.372H1030.14V180Z" fill="#232144"/><path d="M1105.86 180H1098.13V294.372H1105.86V180Z" fill="#232144"/><path d="M1064.14 230.531H1064.13C1040.9 230.531 1022.07 249.364 1022.07 272.596V324.495C1022.07 347.727 1040.9 366.559 1064.13 366.559H1064.14C1087.37 366.559 1106.2 347.727 1106.2 324.495V272.596C1106.2 249.364 1087.37 230.531 1064.14 230.531Z" fill="#E73245"/><path d="M1068.78 434.12C1062.2 435.378 1055.79 433.808 1050.75 429.66C1045.78 425.564 1042.93 419.523 1042.93 413.088C1042.93 408.825 1039.47 405.363 1035.21 405.363C1030.95 405.363 1027.49 408.825 1027.49 413.088C1027.49 424.15 1032.38 434.536 1040.93 441.574C1047.59 447.064 1055.89 449.985 1064.44 449.985C1066.85 449.985 1069.29 449.756 1071.71 449.278L1068.77 434.12H1068.78Z" fill="#D8CBC5"/><path d="M1064.74 281.263C1073.51 281.263 1080.62 274.155 1080.62 265.387C1080.62 256.619 1073.51 249.512 1064.74 249.512C1055.98 249.512 1048.87 256.619 1048.87 265.387C1048.87 274.155 1055.98 281.263 1064.74 281.263Z" fill="#D8CBC5"/><path d="M1064.74 346.165C1073.51 346.165 1080.62 339.057 1080.62 330.29C1080.62 321.522 1073.51 314.414 1064.74 314.414C1055.98 314.414 1048.87 321.522 1048.87 330.29C1048.87 339.057 1055.98 346.165 1064.74 346.165Z" fill="#D8CBC5"/><path d="M1239.28 459.688H886.237V953.18H1239.28V459.688Z" fill="#D8CBC5"/><path d="M1226.77 940.672V472.184H898.733V940.672H1226.77Z" fill="#232144"/><path d="M1008.93 465.871H1005.8V944.912H1008.93V465.871Z" fill="#D8CBC5"/><path d="M1124.55 466.57H1121.42V945.611H1124.55V466.57Z" fill="#D8CBC5"/><path d="M1229.65 586.824H894.502V589.953H1229.65V586.824Z" fill="#D8CBC5"/><path d="M1229.65 712.098H894.502V715.226H1229.65V712.098Z" fill="#D8CBC5"/><path d="M1229.65 830.484H894.502V833.613H1229.65V830.484Z" fill="#D8CBC5"/><path d="M1007.36 595.27C1011.54 595.27 1014.93 591.882 1014.93 587.701C1014.93 583.521 1011.54 580.133 1007.36 580.133C1003.18 580.133 999.794 583.521 999.794 587.701C999.794 591.882 1003.18 595.27 1007.36 595.27Z" fill="#D8CBC5"/><path d="M1122.98 595.27C1127.16 595.27 1130.54 591.882 1130.54 587.701C1130.54 583.521 1127.16 580.133 1122.98 580.133C1118.8 580.133 1115.41 583.521 1115.41 587.701C1115.41 591.882 1118.8 595.27 1122.98 595.27Z" fill="#D8CBC5"/><path d="M1007.36 721.919C1011.54 721.919 1014.93 718.53 1014.93 714.35C1014.93 710.17 1011.54 706.781 1007.36 706.781C1003.18 706.781 999.794 710.17 999.794 714.35C999.794 718.53 1003.18 721.919 1007.36 721.919Z" fill="#D8CBC5"/><path d="M1122.98 721.919C1127.16 721.919 1130.54 718.53 1130.54 714.35C1130.54 710.17 1127.16 706.781 1122.98 706.781C1118.8 706.781 1115.41 710.17 1115.41 714.35C1115.41 718.53 1118.8 721.919 1122.98 721.919Z" fill="#D8CBC5"/><path d="M1007.36 839.606C1011.54 839.606 1014.93 836.217 1014.93 832.037C1014.93 827.857 1011.54 824.469 1007.36 824.469C1003.18 824.469 999.794 827.857 999.794 832.037C999.794 836.217 1003.18 839.606 1007.36 839.606Z" fill="#D8CBC5"/><path d="M1122.98 839.606C1127.16 839.606 1130.54 836.217 1130.54 832.037C1130.54 827.857 1127.16 824.469 1122.98 824.469C1118.8 824.469 1115.41 827.857 1115.41 832.037C1115.41 836.217 1118.8 839.606 1122.98 839.606Z" fill="#D8CBC5"/><path d="M704.404 479.191H695.569C694.144 479.191 693.001 478.037 693.001 476.623C693.001 475.209 694.155 474.055 695.569 474.055H704.404C705.829 474.055 706.972 475.209 706.972 476.623C706.972 478.037 705.818 479.191 704.404 479.191Z" fill="black"/><path d="M728.615 456.367V462.491H675.631V456.367" fill="#A86554"/><path d="M1188.69 494.275C1188.69 494.161 1188.67 494.046 1188.66 493.922V492.955C1188.66 491.073 1187.74 489.399 1186.33 488.37C1184.76 486.706 1182.53 485.656 1180.06 485.656C1175.31 485.656 1171.44 489.524 1171.44 494.275V509.184C1171.44 512.666 1173.52 515.661 1176.49 517.023V574.921C1176.49 576.2 1177.53 577.229 1178.8 577.229C1180.07 577.229 1181.11 576.189 1181.11 574.921V539.032C1181.7 539.24 1182.32 539.354 1182.98 539.354C1186.12 539.354 1188.65 536.807 1188.65 533.678V509.537C1188.65 509.423 1188.67 509.308 1188.67 509.184V494.275H1188.69Z" fill="white"/><path d="M631.369 725.167C631.369 725.167 629.685 721.258 629.061 720.124C627.772 717.764 625.994 719.116 625.932 721.382C625.89 722.786 625.786 731.446 625.786 731.446C620.62 725.333 613.978 714.687 613.978 714.687L631.057 711.027L631.369 725.167Z" fill="#A86554"/><path d="M540.484 1003.74H311V1006.09H540.484V1003.74Z" fill="#D8CBC5"/><path d="M370.075 1010.45C373.187 1010.45 375.709 1007.92 375.709 1004.81C375.709 1001.7 373.187 999.176 370.075 999.176C366.964 999.176 364.441 1001.7 364.441 1004.81C364.441 1007.92 366.964 1010.45 370.075 1010.45Z" fill="#D8CBC5"/><path d="M453.767 1010.45C456.878 1010.45 459.4 1007.92 459.4 1004.81C459.4 1001.7 456.878 999.176 453.767 999.176C450.655 999.176 448.133 1001.7 448.133 1004.81C448.133 1007.92 450.655 1010.45 453.767 1010.45Z" fill="#D8CBC5"/><path d="M538.509 1020H548.083L531.367 929.363H311V938.793H523.529L538.509 1020Z" fill="#D8CBC5"/><path d="M371.291 937.188H368.932V1020H371.291V937.188Z" fill="#D8CBC5"/><path d="M456.449 1019.99L448.185 933.953L445.836 934.182L454.079 1019.99H456.449Z" fill="#D8CBC5"/></svg>