<svg viewBox="0 0 1600 1200" fill="none" xmlns="http://www.w3.org/2000/svg"><path d="M648.797 368.348C645.851 369.595 644.465 372.981 645.695 375.926L659.096 407.893L669.752 403.397L656.351 371.431C655.121 368.485 651.734 367.109 648.788 368.357" fill="#9E3F39"/><path d="M688.989 407.887L662.986 387.757L643.858 421.173L674.827 433.936L688.989 407.887Z" fill="#9E3F39"/><path d="M443.244 361.552L504.281 422.677L612.45 362.873L609.338 395.316C609.338 395.316 545.3 444.505 526.007 459.928C508.457 473.957 489.816 464.103 489.816 464.103L406.209 416.887" fill="#FFA28F"/><path d="M599.205 399.873L619.334 389.368L612.46 362.879L578.654 383.156L599.205 399.873Z" fill="#FFA28F"/><path d="M665.942 367.405C666.603 364.818 665.034 362.175 662.445 361.506L641.738 356.175L639.352 365.561L660.059 370.892C662.647 371.562 665.281 370.002 665.942 367.405Z" fill="#FFA28F"/><path d="M662.483 371.077C662.749 368.416 660.812 366.031 658.15 365.755L636.892 363.562L635.929 373.196L657.187 375.389C659.848 375.665 662.217 373.729 662.483 371.068" fill="#FFA28F"/><path d="M612.459 362.88L614.625 372.331L643.951 365.66L641.776 356.21L612.459 362.88Z" fill="#FFA28F"/><path d="M613.332 367.425L614.975 376.976L644.622 371.939L642.979 362.388L613.332 367.425Z" fill="#FFA28F"/><path d="M636.288 380.268C636.288 380.268 628.293 381.506 626.76 381.809C622.263 382.708 622.07 376.579 626.164 375.873C627.742 375.598 631.377 374.873 635.195 374.074C626.531 372.368 610.486 368.615 610.486 368.615L616.15 387.057L636.297 380.277L636.288 380.268Z" fill="#FFA28F"/><path d="M898.488 863.113L923.582 897.41L882.582 928.982L853.725 896.227L898.488 863.113Z" fill="#9E3F39"/><path d="M747.823 917.229L739.434 954.738L792.045 956.646L801.37 919.578L747.823 917.229Z" fill="#9E3F39"/><path d="M866.52 778.968L921.013 861.223L841.894 919.247L712.744 731.33C691.605 698.208 717.158 680.655 717.158 680.655L830.99 587.766L866.52 778.968Z" fill="#00401E"/><path d="M793.394 951.58L785.904 980.987V1005.61H666.859V996.722L733.569 965.26L737.332 951.58H793.394Z" fill="#232144"/><path d="M763.877 985.244C770.503 985.244 775.874 979.875 775.874 973.252C775.874 966.629 770.503 961.26 763.877 961.26C757.252 961.26 751.881 966.629 751.881 973.252C751.881 979.875 757.252 985.244 763.877 985.244Z" fill="#ABB8B9"/><path d="M957.598 935.046L925.189 892.106L876.983 928.495L884.445 937.001L854.661 997.915L859.893 1008.96L957.598 935.046Z" fill="#232144"/><path d="M919.736 935.04C926.433 935.04 931.861 929.613 931.861 922.919C931.861 916.225 926.433 910.799 919.736 910.799C913.04 910.799 907.611 916.225 907.611 922.919C907.611 929.613 913.04 935.04 919.736 935.04Z" fill="#ABB8B9"/><path d="M832.257 347.658L787.806 427.005L688.017 407.132L674.818 433.933C674.818 433.933 743.428 463.422 772.147 474.276C801.996 485.552 816.387 463.752 816.387 463.752L891.633 373.853" fill="#9E3F39"/><path d="M867.998 330.09V265.405L920.371 265.424V303.271C920.371 315.465 910.449 325.356 898.214 325.356H890.164C877.929 325.356 868.007 337.1 868.007 324.897" fill="#9E3F39"/><path d="M840.48 276.002V204.683C840.48 196.343 847.245 189.59 855.579 189.59H904.069C913.092 189.59 920.398 196.902 920.398 205.913V277.25C920.398 284.893 914.202 291.086 906.556 291.086H855.579C847.236 291.086 840.48 284.324 840.48 275.993" fill="#9E3F39"/><path d="M832.257 245.372C832.339 248.666 840.628 251.235 840.628 251.235L840.995 231.609C840.995 231.609 832.174 242.069 832.248 245.372" fill="#9E3F39"/><path d="M929.31 219.977L875.395 220.638C863.206 220.638 853.973 210.875 853.973 198.681V185.322H898.672C914.597 185.322 927.804 197.654 928.878 213.545L929.31 219.977Z" fill="#071111"/><path d="M853.974 185.322H852.78C842.445 185.322 834.074 193.699 834.074 204.021V218.913H844.96C849.944 218.913 853.974 214.876 853.974 209.903V185.322Z" fill="#071111"/><path d="M920.379 277.712L929.3 220.037L874.569 219.165L870.998 231.68L862.82 261.967H873.018V241.415C875.468 237.479 881.049 237.24 881.049 237.24C885.867 237.24 889.768 241.14 889.768 245.957C889.768 248.792 888.419 251.306 886.317 252.902" fill="#071111"/><path d="M866.621 231.283V227.246C866.621 224.769 864.611 222.769 862.142 222.769H848.566C846.116 222.769 844.124 224.76 844.124 227.209V231.246C844.124 231.246 844.142 231.283 844.161 231.283H866.621Z" fill="#071111"/><path d="M839.27 252.129H847.659C851.266 252.129 852.055 253.881 852.055 256.056V260.185H839.343" fill="#071111"/><path d="M347.265 226.656C341.088 223.004 330.019 220.802 310.845 223.179C262.437 229.161 243.438 180 243.438 180C243.438 180 234.379 268.963 298.683 267.623C327.026 267.036 331.588 241.611 349.266 241.85" fill="#FAA332"/><path d="M355.021 226.033L347.265 226.657L349.275 241.851L359.096 244.017" fill="#891229"/><path d="M349.275 452.193C349.44 433.687 356.407 379.535 387.659 348.651L382.63 343.559C348.247 377.544 341.29 437.751 342.336 456.111C340.262 464.882 337.783 482.279 335.691 499.014L312.8 552.239C301.354 576.113 326.191 587.316 339.922 590.858L376.407 600.262C390.138 603.804 403.878 596.602 407.081 584.169L437.159 472.599C404.328 473.021 362.887 457.634 349.275 452.184V452.193Z" fill="#3867C3"/><path d="M440.959 648.375L463.602 782.471L357.848 886.123L382.776 922.906C382.776 922.906 497.673 833.421 509.375 824.97C521.225 816.401 522.088 800.225 518.361 782.333L496.177 677.993L440.968 648.375" fill="#FFA28F"/><path d="M560.885 743.909L514.212 588.582L417.994 608.804L496.048 743.349L550.596 949.324L596.58 936.937L560.885 743.909Z" fill="#FFC4B8"/><path d="M303.318 926.909L370.11 1010.12C370.11 1010.12 385.714 1003.17 378.674 988.355C370.147 970.409 366.971 944.36 393.525 919.248L361.345 879.877L303.318 926.909Z" fill="#891229"/><path d="M465.53 456.742C506.493 512.234 514.203 588.59 514.203 588.59L417.994 608.803L403.346 575.121C403.346 575.121 355.599 531.291 383.428 466.661L465.53 456.742Z" fill="#ED1E79"/><path d="M627.089 359.352C623.913 359.673 621.591 362.508 621.894 365.683L624.363 391.08L635.864 389.924L633.395 364.527C633.083 361.352 630.256 359.031 627.08 359.352" fill="#9E3F39"/><path d="M632.625 361.736C629.532 362.525 627.65 365.672 628.43 368.764L634.653 393.501L645.861 390.647L639.637 365.911C638.857 362.819 635.718 360.947 632.625 361.736Z" fill="#9E3F39"/><path d="M643.859 421.174L653.58 414.88L634.121 384.73L624.4 391.025L643.859 421.174Z" fill="#9E3F39"/><path d="M648.595 418.337L658.645 412.594L640.885 381.407L630.834 387.151L648.595 418.337Z" fill="#9E3F39"/><path d="M651.404 389.627C651.404 389.627 653.9 394.343 654.488 395.94C655.718 399.261 652.065 400.601 650.495 398.069C649.485 396.445 646.484 390.903 644.033 386.948C645.649 397.353 645.41 414.382 645.41 414.382L663.786 400.5L651.404 389.618V389.627Z" fill="#9E3F39"/><path d="M420.335 335.237L403.85 336.182C394.883 336.695 390.899 331.025 390.385 322.061L388.274 276.873L433.589 282.296L435.645 318.07C436.159 327.034 429.302 334.714 420.344 335.237" fill="#FFC4B8"/><path d="M452.763 226.19C450.156 212.656 436.893 203.729 423.3 206.344L406.843 208.335C393.24 210.959 380.95 224.575 383.557 238.108L387.972 276.892C387.972 276.892 392.203 282.736 399.784 281.69L412.561 294.426C420.565 300.564 433.424 302.518 443.382 300.949C447.292 300.334 450.771 299.343 452.827 298.077C458.233 294.747 460.877 289.425 460.106 281.846C459.683 277.718 458.114 261.918 458.114 261.918L460.463 260.899C465.099 258.468 459.683 253.807 459.683 253.807C457.747 251.504 456.205 249.816 456.205 249.816" fill="#FFC4B8"/><path d="M437.939 231.519C426.916 232.896 416.874 225.115 415.507 214.16C414.139 203.205 421.968 193.204 432.992 191.836C444.016 190.46 454.057 198.241 455.416 209.196C456.783 220.16 448.954 230.152 437.93 231.528" fill="#FAA332"/><path d="M421.564 238.409C409.963 239.849 399.398 231.674 397.966 220.141C396.525 208.608 404.768 198.093 416.36 196.643C427.952 195.203 438.526 203.378 439.958 214.911C441.39 226.444 433.157 236.968 421.564 238.409Z" fill="#FAA332"/><path d="M440.51 236.381L440.124 236.491C436.113 237.656 432.91 240.73 431.469 244.813L452.268 238.785C448.862 236.115 444.512 235.225 440.501 236.381" fill="#FAA332"/><path d="M399.436 316.191L432.46 319.558C434.745 319.788 436.856 320.852 438.417 322.531L456.838 342.432C456.985 342.588 457.113 342.744 457.251 342.909C466.989 354.929 477.499 365.792 480.931 381.032C480.986 381.271 483.584 441.267 483.584 441.267C485.163 451.232 477.021 460.058 466.962 459.306L373.525 470.087L368.963 375.49C368.963 374.949 369.009 374.417 369.101 373.885L376.563 330.22C379.325 318.035 389.853 315.98 398.619 316.136C398.894 316.136 399.169 316.163 399.445 316.191" fill="#891229"/><path d="M458.903 269.845C457.655 270.12 456.186 270.698 456.351 272.423C456.085 269.569 451.753 270.359 451.753 270.359L441.867 271.285C441.895 270.909 449.027 279.928 457.508 279.194H457.535C458.839 279.075 459.766 277.873 459.646 276.57L459.435 274.322L458.903 269.845Z" fill="#E73245"/><path d="M372.726 206.213C372.726 206.213 372.68 206.333 372.588 206.553C362.161 209.03 354.754 218.315 354.607 228.968C354.607 228.968 351.386 261.613 389.238 297.314C401.72 289.873 411.064 276.009 413.882 261.751L420.637 230.885L430.669 192.12L372.735 206.213H372.726Z" fill="#FAA332"/><path d="M422.73 255.462C423.501 261.618 419.123 267.234 412.964 267.995C406.805 268.766 401.188 264.389 400.426 258.233C399.655 252.076 404.033 246.461 410.192 245.699C416.351 244.929 421.968 249.305 422.73 255.462Z" fill="#FFC4B8"/><path d="M649.11 383.46C648.633 380.561 645.888 378.588 642.988 379.065L611.495 384.185L609.118 395.36L644.732 389.571C647.632 389.103 649.596 386.369 649.11 383.469" fill="#FFA28F"/><path d="M418.243 261.278C417.94 261.241 417.637 261.223 417.325 261.223C415.26 261.223 413.387 262.058 412.029 263.406C410.671 262.058 408.798 261.223 406.733 261.223C406.421 261.223 406.118 261.241 405.815 261.278C400.813 261.883 398.61 267.985 401.712 271.948L412.029 285.152L422.346 271.948C425.448 267.985 423.236 261.883 418.243 261.278Z" fill="#ED1E79"/><path d="M958.433 506.453H841.068L717.764 917.447L816.276 922.916L954.789 557.467C954.789 557.467 963.16 535.135 958.442 506.453" fill="#006931"/><path d="M573.276 495.453L605.998 511.501L615.066 501.261L586.337 487.168" fill="#FFC4B8"/><path d="M579.425 542.854C570.743 537.991 567.64 526.98 572.496 518.31L581.885 501.556C586.75 492.876 597.764 489.775 606.438 494.638L642.619 514.897L616.764 563.773L579.416 542.863L579.425 542.854ZM629.668 520.319L601.032 504.29C597.681 502.409 593.423 503.611 591.541 506.96L582.151 523.714C580.27 527.063 581.472 531.32 584.822 533.201L613.459 549.23L629.659 520.319H629.668Z" fill="#3867C3"/><path d="M605.769 532.302C607.302 529.173 605.998 525.402 602.878 523.87L599.105 522.025L593.57 533.348L597.343 535.192C600.473 536.724 604.245 535.421 605.778 532.302" fill="#FFC4B8"/><path d="M599.564 539.66C601.262 536.623 600.179 532.788 597.141 531.082L593.469 529.026L587.311 540.018L590.982 542.074C594.02 543.771 597.857 542.688 599.564 539.651" fill="#FFC4B8"/><path d="M611.321 523.843C612.854 520.714 611.551 516.943 608.43 515.411L603.703 513.099L598.168 524.421L602.895 526.733C606.025 528.265 609.797 526.962 611.33 523.843" fill="#FFC4B8"/><path d="M616.075 514.291C617.774 511.254 616.69 507.418 613.652 505.712L608.301 504.161L603.831 514.658L607.493 516.713C610.532 518.41 614.368 517.328 616.075 514.291Z" fill="#FFC4B8"/><path d="M398.903 410.372L434.396 470.204C434.396 470.204 440.435 479.985 462.354 485.93C484.272 491.876 589.274 541.119 589.274 541.119L609.659 504.547L561.775 492.325L474.864 444.688L445.318 386.581L398.894 410.363L398.903 410.372Z" fill="#FFC4B8"/><path d="M586.337 487.168L561.784 492.334L540.15 518.52L578.333 535.842" fill="#FFC4B8"/><path d="M866.438 1017.67L964.134 943.929L957.516 935.094L859.82 1008.83L866.438 1017.67Z" fill="#006931"/><path d="M785.904 1005.71H666.859V1017.72H785.904V1005.71Z" fill="#006931"/><path d="M672.074 1017.72H556.241V1005.84L672.074 1005.71V1017.72Z" fill="#ED1E79"/><path d="M360.914 1017.72L293.92 934.525L303.319 926.909L370.313 1010.22L360.914 1017.72Z" fill="#ED1E79"/><path d="M1150.16 313.994L1139.1 284.331L1042.77 353.264L959.15 315.453L944.023 375.771L1037.16 399.241C1052.6 402.82 1063.83 397.819 1073.98 386.91L1150.15 313.994H1150.16Z" fill="#9E3F39"/><path d="M556.241 1005.84L672.009 1005.63C672.009 1005.63 673.909 986.961 657.59 985.236C634.662 982.823 610.706 973.244 599.939 931.084L542.996 931.157L556.075 979.914L556.231 1005.83L556.241 1005.84Z" fill="#891229"/><path d="M1163.33 245.639C1160.64 244.538 1157.55 245.795 1156.44 248.456L1138.73 285.386L1150.7 289.57L1166.18 252.456C1167.3 249.795 1166.02 246.74 1163.33 245.639Z" fill="#9E3F39"/><path d="M1205.72 286.57C1204.65 283.891 1201.58 282.588 1198.87 283.652L1171.97 294.213L1175.86 303.902L1202.77 293.341C1205.47 292.277 1206.79 289.249 1205.71 286.57" fill="#9E3F39"/><path d="M1146.87 315.29L1188.21 299.059L1164.26 264.019L1132.15 289.948L1146.87 315.29Z" fill="#9E3F39"/><path d="M1168.01 263.935C1184.44 242.254 1181.34 221.582 1181.34 221.582L1151.33 232.693L1147.45 234.125L1121.31 243.804C1121.31 243.804 1132.43 261.503 1159.02 267.256L1171.13 299.929C1171.13 299.929 1164.1 303.397 1154.44 317.692L1179.39 308.453L1204.33 299.213C1187.69 294.653 1180.1 296.599 1180.1 296.599L1168 263.926L1168.01 263.935Z" fill="#C7C6C6"/><path d="M1164.84 214.126C1168.94 204.987 1179.76 200.868 1188.99 204.923C1198.22 208.979 1202.39 219.677 1198.29 228.806" fill="#FF6200"/><path d="M1167.33 286.104L1172.49 284.076L1178.77 281.617L1183.94 279.589C1186.65 278.525 1189.71 279.837 1190.79 282.516C1191.86 285.196 1190.54 288.223 1187.83 289.288L1182.66 291.315L1176.39 293.774L1171.22 295.802C1168.51 296.866 1165.45 295.554 1164.37 292.875C1163.3 290.196 1164.62 287.168 1167.32 286.104" fill="#9E3F39"/><path d="M1163.48 276.534L1168.65 274.506L1174.93 272.047L1180.09 270.019C1182.8 268.955 1185.87 270.267 1186.94 272.946C1188.02 275.625 1186.69 278.653 1183.99 279.717L1178.82 281.745L1172.54 284.204L1167.37 286.232C1164.67 287.296 1161.6 285.984 1160.53 283.305C1159.45 280.626 1160.77 277.598 1163.47 276.534" fill="#9E3F39"/><path d="M1159.7 267.119L1164.87 265.092L1171.15 262.633L1176.31 260.605C1179.02 259.541 1182.09 260.853 1183.16 263.532C1184.23 266.211 1182.91 269.239 1180.21 270.303L1175.04 272.331L1168.76 274.79L1163.59 276.818C1160.88 277.882 1157.82 276.57 1156.74 273.891C1155.67 271.212 1156.99 268.184 1159.69 267.119" fill="#9E3F39"/><path d="M1129.92 245.725C1135.11 250.863 1147.11 259.038 1162.16 262.295C1166.27 256.872 1169.3 251.101 1171.46 245.725H1129.92Z" fill="#3867C3"/><path d="M920.36 298.884L867.988 321.583V309.454L857.855 312.518C835.533 318.647 822.215 360.716 822.215 360.716L842.71 367.23L841.058 506.464H958.424L967.657 388.415L987.951 393.508L1015.71 335.117C960.92 305.701 920.351 298.893 920.351 298.893L920.36 298.884Z" fill="#232144"/><path d="M1118.19 790.914C1074.25 783.326 1024.59 780.803 970.595 783.399C878.728 787.831 805.08 805.851 804.4 806.016C802.996 806.328 801.61 806.631 800.233 806.934C799.885 807.007 799.527 807.09 799.178 807.163C797.92 807.438 796.663 807.704 795.424 807.97C795.305 807.998 795.194 808.016 795.075 808.044C793.708 808.337 792.358 808.622 791.018 808.897C790.734 808.952 790.458 809.016 790.183 809.072C789.017 809.31 787.87 809.549 786.732 809.778C786.539 809.815 786.337 809.861 786.144 809.897C784.841 810.163 783.556 810.42 782.28 810.668C782.042 810.714 781.803 810.76 781.564 810.806C780.509 811.017 779.472 811.218 778.444 811.411C778.15 811.466 777.856 811.521 777.572 811.576C776.388 811.806 775.222 812.026 774.066 812.237C773.754 812.292 773.441 812.356 773.129 812.411C772.285 812.567 771.45 812.723 770.614 812.87C770.174 812.953 769.743 813.026 769.302 813.109C768.476 813.255 767.659 813.402 766.842 813.54C766.154 813.659 765.474 813.778 764.804 813.888C764.254 813.98 763.712 814.072 763.171 814.164C762.565 814.265 761.968 814.366 761.372 814.467C761.014 814.522 760.665 814.586 760.307 814.641C758.949 814.861 757.609 815.072 756.296 815.274C756.232 815.283 756.168 815.292 756.103 815.301C755.341 815.421 754.589 815.531 753.845 815.641C753.763 815.65 753.68 815.668 753.588 815.678C751.285 816.017 749.054 816.329 746.897 816.604C746.897 816.604 746.879 816.604 746.87 816.604C738.774 817.65 731.716 818.274 725.722 818.476C706.98 819.091 702.73 815.439 701.877 813.21C700.748 810.246 702.088 800.603 738.958 775.013C748.32 768.517 757.902 762.443 765.658 757.709L767.622 751.148C759.251 756.186 747.641 763.397 736.36 771.233C723.96 779.839 714.35 787.501 707.815 794.006C698.94 802.832 695.589 809.659 697.581 814.861C699.151 818.972 703.951 823.137 721.666 823.137C727.255 823.137 734.148 822.715 742.62 821.752C745.172 821.467 747.852 821.128 750.633 820.742C750.826 820.715 751.009 820.687 751.202 820.66C751.844 820.568 752.496 820.476 753.148 820.385C753.616 820.32 754.102 820.247 754.58 820.173C755.057 820.1 755.516 820.036 756.002 819.962C757.03 819.806 758.077 819.641 759.141 819.476C759.316 819.449 759.481 819.421 759.655 819.394C760.692 819.228 761.739 819.054 762.813 818.88C762.905 818.861 762.996 818.852 763.088 818.834C772.56 817.256 783.409 815.201 795.837 812.558C796.002 812.521 796.167 812.485 796.333 812.457C797.673 812.173 799.04 811.879 800.417 811.576C800.555 811.549 800.692 811.512 800.839 811.485C802.335 811.163 803.85 810.833 805.383 810.484C805.383 810.484 805.419 810.484 805.438 810.475C806.163 810.292 879.444 792.373 970.889 787.969C1024.54 785.39 1073.84 787.895 1117.43 795.428C1171.8 804.823 1217.36 822.091 1252.85 846.754L1255.47 842.983C1219.41 817.926 1173.21 800.401 1118.17 790.895L1118.19 790.914Z" fill="#071111"/><path d="M1007.44 968.041L990.476 1007.66C1005.18 1013.95 1014.64 1000.17 1014.64 1000.17L1029.66 965.381C1029.66 965.381 1062.1 947.379 1075.8 933.864C1089.49 920.34 1069.04 856.581 1069.04 856.581L1039.3 926.799C1039.3 926.799 1033.29 941.167 1016.58 945.287L1007.44 968.051V968.041Z" fill="#F7931E"/><path d="M1242.62 937.458C1241.89 951.257 1248.6 960.827 1248.6 960.827L1294.17 1019.99H1321.52C1321.52 1006.77 1307.3 1004.05 1307.3 1004.05L1272.97 948.285L1276.75 900.17" fill="#F7931E"/><path d="M1330.13 832.523C1327.51 818.054 1314.84 807.08 1299.61 807.08C1299.07 807.08 1298.53 807.098 1298 807.117C1282.28 807.548 1274.82 814.035 1274.82 814.035L1222.38 854.057H1069.94L1069.03 856.571L1056.11 887.198C1056.11 887.198 1049.36 899.227 1064.86 918.614C1079.28 936.652 1092.25 951.223 1092.25 959.7V991.667L1114.15 1020H1149.93C1149.93 1020 1150.23 1004.02 1135.39 1004.02C1121.5 1004.02 1115.4 989.685 1115.51 978.941V967.701C1132.79 947.607 1125.77 930.165 1125.77 930.165L1189.82 955.296L1191.92 985.602L1180.24 993.75H1174.71C1169.02 993.75 1164.24 998.236 1164.16 1003.92C1164.16 1003.99 1164.16 1004.05 1164.16 1004.13V1010.18H1181.85L1215.04 991.052C1215.04 991.052 1221.55 968.903 1224.93 953.883C1224.93 953.883 1258.21 950.672 1283.94 883.638L1293.52 866.48H1336.94C1342.65 866.48 1347.77 862.884 1349.68 857.498L1356.99 837.019L1330.12 832.541L1330.13 832.523Z" fill="#FBB03B"/><path d="M1323.38 834.028C1323.38 836.276 1321.55 838.102 1319.3 838.102C1317.06 838.102 1315.23 836.276 1315.23 834.028C1315.23 831.78 1317.06 829.954 1319.3 829.954C1321.55 829.954 1323.38 831.78 1323.38 834.028Z" fill="#071111"/><path d="M1342.88 834.651L1353.47 846.909L1357 837L1342.88 834.651Z" fill="#071111"/><path d="M1284.65 882.246C1284.65 882.246 1280.01 894.99 1277 899.761L1234.04 845.16L1246.56 835.608L1284.21 883.319" fill="#891229"/><path d="M1285.47 883.618C1294.05 883.444 1300.86 876.306 1300.86 867.736V824.769H1279.48L1268.61 838.953C1266.13 842.422 1264.79 846.578 1264.79 850.835C1264.79 850.835 1261.9 884.095 1285.47 883.609V883.618Z" fill="#F7931E"/><path d="M1267.22 819.841C1267.22 819.841 1293.29 819.841 1307.52 808.106L1271.37 757.119L1267.22 819.85V819.841Z" fill="#3867C3"/><path d="M1266.62 739.962L1272.05 744.852C1272.22 744.999 1272.43 745.072 1272.64 745.054L1279.93 744.494C1280.53 744.449 1280.96 745.063 1280.71 745.605L1277.74 752.275C1277.64 752.477 1277.64 752.697 1277.74 752.899L1280.52 759.661C1280.75 760.221 1280.3 760.817 1279.7 760.753L1272.43 759.982C1272.21 759.964 1272 760.028 1271.83 760.166L1266.26 764.9C1265.8 765.285 1265.1 765.047 1264.98 764.46L1263.46 757.312C1263.42 757.101 1263.29 756.918 1263.1 756.798L1256.88 752.963C1256.37 752.651 1256.38 751.899 1256.9 751.605L1263.23 747.954C1263.42 747.843 1263.55 747.669 1263.61 747.458L1265.34 740.356C1265.47 739.769 1266.19 739.549 1266.64 739.953L1266.62 739.962Z" fill="#4B7CFE"/><path d="M1092.26 874.978C1091.27 874.978 1090.27 874.757 1089.34 874.28C1072.23 865.674 1061.67 853.361 1057.96 837.671C1050.12 804.53 1076.31 768.839 1077.43 767.334C1079.58 764.444 1083.66 763.848 1086.54 765.995C1089.42 768.142 1090.02 772.215 1087.88 775.096C1087.46 775.665 1064.2 807.604 1070.64 834.708C1073.43 846.461 1081.69 855.856 1095.19 862.655C1098.4 864.27 1099.7 868.179 1098.08 871.39C1096.94 873.666 1094.64 874.978 1092.26 874.978H1092.26Z" fill="#FBB03B"/><path d="M1190.26 955.502L1189.41 911.204L1183.68 911.314L1184.49 953.227L1190.26 955.502Z" fill="#F7931E"/><path d="M927.97 678.719C926.079 671.067 919.718 663.231 909.071 655.432C848.851 611.3 659.223 563.552 651.183 561.533L650.072 565.983C650.559 566.102 699.811 578.461 755.799 596.078C829.741 619.337 881.802 641.137 906.354 659.13C916.111 666.277 921.884 673.241 923.509 679.82C926.244 690.894 917.038 701.758 896.148 712.172L893.789 718.383C919.984 706.29 931.485 692.95 927.96 678.719H927.97Z" fill="#071111"/><path d="M641.455 579.989C660.109 579.989 675.231 564.871 675.231 546.224C675.231 527.576 660.109 512.459 641.455 512.459C622.8 512.459 607.678 527.576 607.678 546.224C607.678 564.871 622.8 579.989 641.455 579.989Z" fill="#3867C3"/><path d="M641.454 566.022C652.394 566.022 661.262 557.157 661.262 546.222C661.262 535.287 652.394 526.422 641.454 526.422C630.515 526.422 621.646 535.287 621.646 546.222C621.646 557.157 630.515 566.022 641.454 566.022Z" fill="#4B7CFE"/><path d="M847.869 234.963C847.869 234.963 845.501 239.45 847.869 243.166C847.869 243.166 857.865 242.597 857.865 239.789C857.865 236.825 852.403 236.11 847.869 234.963Z" fill="white"/><path d="M847.869 243.166C847.869 243.166 849.071 243.101 850.641 242.89C851.641 242.101 852.321 240.679 852.321 239.037C852.321 237.734 851.898 236.578 851.219 235.752C850.109 235.486 848.961 235.238 847.869 234.963C847.869 234.963 845.501 239.45 847.869 243.166Z" fill="#071111"/><path d="M850.118 261.814C847.961 265.576 841.93 265.108 840.471 264.933V266.778C840.948 266.833 841.655 266.888 842.499 266.888C845.335 266.888 849.677 266.255 851.696 262.722L850.108 261.805L850.118 261.814Z" fill="#071111"/><path d="M445.786 246.863C444.758 247.634 444.161 249.166 444.372 250.845C444.528 252.13 445.134 253.203 445.933 253.864C447.75 254.011 448.98 253.607 448.98 253.607C450.651 249.607 448.117 246.698 448.117 246.698C447.365 246.689 446.575 246.753 445.786 246.863Z" fill="#071111"/><path d="M444.364 250.855C444.153 249.176 444.75 247.644 445.778 246.873C441.877 247.424 437.902 249.149 437.902 249.149C440.683 252.699 443.722 253.69 445.915 253.874C445.117 253.213 444.511 252.14 444.355 250.855H444.364Z" fill="white"/><path d="M449.164 246.67L449.036 245.615C449.036 245.615 442.491 244.642 436.488 247.973L438.352 249.78C438.352 249.78 442.757 247.257 449.173 246.661" fill="#071111"/></svg>