<?xml version="1.0" encoding="utf-8"?><!--Generator: Adobe Illustrator 27.8.0, SVG Export Plug-In . SVG Version: 6.00 Build 0)--><svg version="1.1" xmlns="http://www.w3.org/2000/svg" xmlns:xlink="http://www.w3.org/1999/xlink" x="0px" y="0px" viewBox="0 0 1200 840" style="enable-background:new 0 0 1200 840;" xml:space="preserve"><style type="text/css">.st0{fill:#4C38CD;}
	.st1{fill:#AA3734;}
	.st2{fill:#842835;}
	.st3{fill:#A73734;}
	.st4{fill:#D8C8C1;}
	.st5{fill:#FA5500;}
	.st6{fill:#49080C;}
	.st7{fill:#181111;}
	.st8{fill:#48080C;}
	.st9{fill:#FFFFFF;}
	.st10{fill:#020204;}</style><g id="Vase"><path class="st0" d="M929.89,813.42l25.21,9.55l-31.07-105.61l-30.43,31.47l-37.75,5.47l-8.14,37.3l-34.15,10.05L826.69,824
		C857.04,804.75,895.2,800.27,929.89,813.42z"/><g><path class="st0" d="M788.37,629.67c-5.19-8.72-9.06-17.94-11.77-27.4l-25.15,6.28v-35.6l-30.12-16.49l-35.99,51.71l8.69,38.1
			l-14,58.55l-35.69,22.02l-2.31-3.75l34.14-21.07l13.34-55.78l-8.89-38.99l37.53-53.93l5.22-36.46l-21.6-38.07H589.69l16.28,21.49
			c28.91,38.18,30.61,89.68,6.29,130.92c-10.53,17.85-16.09,38.2-16.09,58.93v0c0,49.11,19.53,96.2,54.3,130.92l2.95,2.95h94.71
			l2.95-2.95c34.77-34.72,54.3-81.82,54.3-130.92v0C805.37,668.8,799.28,648.01,788.37,629.67z"/></g><polygon class="st0" points="992.24,790.31 1028.38,779.18 1042.05,800.07 1017.14,804.47 1012.26,824 974.66,810.82 	"/></g><g id="Woman_00000173152876378387841740000011440448497913665181_"><g><path class="st1" d="M416.6,381.6l7.11,31.65c0.61,2.71,3.29,4.41,6,3.8l0,0c2.71-0.61,4.41-3.29,3.8-6l-3.47-15.44l0.71-0.16
			l4.93,21.95c0.61,2.71,3.29,4.41,6,3.8v0c2.71-0.61,4.41-3.29,3.8-6l-4.45-19.81l0.71-0.16l5.29,23.56c0.61,2.71,3.29,4.41,6,3.8
			h0c2.71-0.61,4.41-3.29,3.8-6l-5.77-25.7l0.71-0.16l4.62,20.56c0.61,2.71,3.29,4.41,6,3.8h0c2.71-0.61,4.41-3.29,3.8-6
			l-6.48-28.63l7.78,8.44c1.88,2.04,5.06,2.17,7.1,0.29h0c2.04-1.88,2.17-5.06,0.29-7.1l-14.73-15.98
			c-4.34-4.71-9.38-8.71-14.95-11.86v0l-6.17-27.48l-30.73,6.9l8.08,35.96l0,0c-0.71,3.66-0.7,7.42,0.04,11.07L416.6,381.6z"/></g><path class="st2" d="M459.32,380.89l-3.96-3.64c-1.22,0.97-5.04,3.58-9.97,2.98c-4.59-0.56-8.8-3.73-12.53-9.41l0.97-0.63
		c3.53,5.37,7.46,8.37,11.68,8.89c5.39,0.67,9.42-2.99,9.46-3.03l0.39-0.36l4.73,4.34L459.32,380.89z"/><g><path class="st1" d="M217.56,381.6l-7.11,31.65c-0.61,2.71-3.29,4.41-6,3.8h0c-2.71-0.61-4.41-3.29-3.8-6l3.47-15.44l-0.71-0.16
			l-4.93,21.95c-0.61,2.71-3.29,4.41-6,3.8v0c-2.71-0.61-4.41-3.29-3.8-6l4.45-19.81l-0.71-0.16l-5.29,23.56
			c-0.61,2.71-3.29,4.41-6,3.8h0c-2.71-0.61-4.41-3.29-3.8-6l5.77-25.7l-0.71-0.16l-4.62,20.56c-0.61,2.71-3.29,4.41-6,3.8h0
			c-2.71-0.61-4.41-3.29-3.8-6l6.48-28.63l-7.78,8.44c-1.88,2.04-5.06,2.17-7.1,0.29h0c-2.04-1.88-2.17-5.06-0.29-7.1l14.73-15.98
			c4.34-4.71,9.38-8.71,14.95-11.86v0l6.17-27.48l30.73,6.9l-8.08,35.96l0,0c0.71,3.66,0.7,7.42-0.04,11.07L217.56,381.6z"/></g><path class="st2" d="M174.84,380.89l3.96-3.64c1.22,0.97,5.04,3.58,9.97,2.98c4.59-0.56,8.8-3.73,12.53-9.41l-0.97-0.63
		c-3.53,5.37-7.46,8.37-11.68,8.89c-5.39,0.67-9.42-2.99-9.46-3.03l-0.39-0.36l-4.73,4.34L174.84,380.89z"/><path class="st3" d="M393.45,728.64l1.65,24.64l27.68,40.07c6.49,9.97,28.18,18.39,30.87,7.82l0.05,0.02l-24.87-56.33l-2.07-21.62
		L393.45,728.64z"/><path class="st0" d="M426.32,818.33c2.45,3.55,6.49,5.67,10.8,5.67h47.3c2.28,0,4.13-1.85,4.13-4.13l0,0
		c0-1.62-0.95-3.09-2.42-3.76l-32.48-14.82h0c-11.38,3.47-23.67-1-30.16-10.97l-28.39-43.6l-5.19,6.95
		c-5.88,7.88-5.12,16.72-5.12,27.5h0V824h11.74v-36.28c0-1.69,1.37-3.07,3.07-3.07l0,0c0.97,0,1.88,0.46,2.45,1.23L426.32,818.33z"/><path class="st3" d="M272.23,752.03l-2.47,26.63l11.22,18.44c4.51,5.66,13.13,5.59,17.54-0.15l10.63-18.16l-3.35-27.03
		L272.23,752.03z"/><path class="st4" d="M210.83,694.7c-2.36,34.4,24.48,63.8,58.95,64.59l42.85,0.98l1.7-378.41c2.3-0.53,3.61-0.85,3.61-0.85
		s1.03,0.25,2.87,0.68l50.58,374.67l42.36-6.52c34.08-5.24,56.88-37.87,50.1-71.67l-63.79-337.43l-0.22-1.15l-0.01,0
		c-8.37-43.24-23.08-59.56-23.08-59.56H258.5c0,0-18.06,30.65-25.28,93.25L210.83,694.7z"/><path class="st0" d="M309.25,778.77l-10.73,13.95c-4.41,5.73-13.03,5.81-17.54,0.15l-11.22-14.1l-2.62,26.98L271.6,824h36.5
		l4.45-18.25L309.25,778.77z"/><path class="st5" d="M454.93,316.32L407.81,143.5c-4.8-17.59-22.94-27.96-40.54-23.17l0,0c-7.48,2.04-13.65,6.5-17.91,12.3v-4.51
		h-62.82v6.05c-4.26-6.55-10.85-11.62-18.98-13.84l0,0c-17.59-4.8-35.74,5.58-40.54,23.17l-47.12,172.82
		c-4.8,17.59,5.58,35.74,23.17,40.54l0,0c17.59,4.8,35.74-5.58,40.54-23.17l14.62-53.62l14.28,0.13H375.8l1.82,3.59l13.6,49.9
		c4.8,17.59,22.94,27.96,40.54,23.17l0,0C449.35,352.06,459.72,333.91,454.93,316.32z"/><circle class="st6" cx="318.47" cy="44.66" r="28.66"/><circle class="st3" cx="349.96" cy="97.94" r="9.29"/><circle class="st3" cx="286.93" cy="97.92" r="9.29"/><path class="st4" d="M349.22,102.14L349.22,102.14c-4.62,0-8.36,3.74-8.36,8.36v8.26c0,4.62,3.74,8.36,8.36,8.36h0
		c4.62,0,8.36-3.74,8.36-8.36v-8.26C357.57,105.88,353.83,102.14,349.22,102.14z M355.16,117.95c0,3.7-2.66,6.71-5.95,6.71h0
		c-3.29,0-5.95-3-5.95-6.71v-6.63c0-3.7,2.66-6.71,5.95-6.71h0c3.29,0,5.95,3,5.95,6.71V117.95z"/><path class="st4" d="M288.33,102.14L288.33,102.14c-4.62,0-8.36,3.74-8.36,8.36v8.26c0,4.62,3.74,8.36,8.36,8.36h0
		c4.62,0,8.36-3.74,8.36-8.36v-8.26C296.69,105.88,292.94,102.14,288.33,102.14z M294.28,117.95c0,3.7-2.66,6.71-5.95,6.71h0
		c-3.29,0-5.95-3-5.95-6.71v-6.63c0-3.7,2.66-6.71,5.95-6.71h0c3.29,0,5.95,3,5.95,6.71V117.95z"/><path class="st1" d="M288.05,112.01V69.17c0-13.54,10.98-24.52,24.52-24.52h11.8c13.54,0,24.52,10.98,24.52,24.52v42.84
		c0,13.54-10.98,24.52-24.52,24.52h-11.8C299.03,136.53,288.05,125.55,288.05,112.01z"/><path class="st7" d="M318.36,108.31c-0.35,0-0.71-0.04-1.08-0.11c-1.05-0.21-2.05-0.75-2.97-1.61c-0.49-0.45-0.99-0.66-1.48-0.61
		c-1.02,0.09-1.81,1.11-1.82,1.12l-0.97-0.74c0.04-0.06,1.12-1.46,2.68-1.6c0.85-0.08,1.68,0.23,2.43,0.93
		c0.75,0.7,1.56,1.14,2.39,1.31c0.85,0.17,1.6,0.09,2.24-0.24c0.27-0.14,0.54-0.35,0.79-0.63c0.32-0.35,1.22-1.19,2.52-1.23
		c1.03-0.05,2.09,0.43,3.1,1.39l-0.84,0.89c-0.77-0.73-1.52-1.09-2.22-1.05c-0.84,0.03-1.45,0.6-1.67,0.84
		c-0.35,0.38-0.73,0.68-1.13,0.88C319.72,108.16,319.06,108.31,318.36,108.31z"/><path class="st8" d="M318.47,116.9c0-2.6-3.98-2.25-3.98-2.25l-9.01,0c0.09-0.51,12.72,19.33,25.98,0h-9.01
		C322.45,114.65,318.47,114.3,318.47,116.9L318.47,116.9z"/><rect x="293.91" y="73.11" transform="matrix(0.9997 -0.0242 0.0242 0.9997 -1.7231 7.3679)" class="st8" width="20.24" height="3.76"/><rect x="323.5" y="78.25" class="st8" width="20.24" height="3.76"/><path class="st8" d="M353.28,99.66h-4.78V81.38c-0.62-12.99-11.21-23.32-24.2-23.32h-4.04v-7.58h-3.58v7.58h-4.04
		c-12.99,0-23.58,10.34-24.2,23.32l-0.03,18.28h-4.75v-32.4c0-14.67,11.89-26.57,26.57-26.57h16.49c14.67,0,26.57,11.89,26.57,26.57
		V99.66z"/><path class="st9" d="M310.52,95.3c0,0-2.22-4.76-6.48-6.24c-4.26-1.48-8.95,0.87-8.95,0.87s1.7,3.88,5.97,5.36
		C305.32,96.78,310.52,95.3,310.52,95.3z"/><path class="st10" d="M309.39,93.43c-0.98-1.39-2.58-3.19-4.79-4.14c-1.46,0.49-2.52,1.86-2.52,3.48c0,1.31,0.68,2.45,1.7,3.1
		c1.48,0.15,2.92,0.07,4.09-0.08C308.66,95.25,309.22,94.41,309.39,93.43z"/><path class="st9" d="M325.35,95.38c0,0,2.22-4.76,6.48-6.24c4.26-1.48,8.95,0.87,8.95,0.87s-1.7,3.88-5.97,5.36
		C330.55,96.85,325.35,95.38,325.35,95.38z"/><path class="st10" d="M339.7,91.75c-0.05-1.04-0.52-1.95-1.26-2.59c-1.14-0.31-2.58-0.57-4.1-0.49c-1.18,0.61-2,1.84-2,3.26
		c0,1.59,1.02,2.94,2.43,3.45c0.01,0,0.03-0.01,0.04-0.01C337.19,94.55,338.77,92.98,339.7,91.75z"/><path class="st10" d="M310.52,95.3c-1.1-7.6-10.71-10.85-16.62-7.28c0.36,0.58,1.05,1.75,1.42,2.33c1.31-0.79,8.09-3.53,14.26,3.86
		C309.95,94.66,309.99,94.85,310.52,95.3z"/><path class="st10" d="M325.35,95.37c1.1-7.6,10.71-10.85,16.62-7.28c-0.36,0.58-1.05,1.75-1.42,2.33
		c-1.31-0.79-8.09-3.53-14.26,3.86C325.92,94.73,325.87,94.92,325.35,95.37z"/></g></svg>