<svg viewBox="0 0 1600 1200" fill="none" xmlns="http://www.w3.org/2000/svg"><path d="M1066.64 1007.88L1062.03 943.996H1098.31V1007.88H1066.64Z" fill="#F39F8F"/><path d="M779.542 953.77V879.059H581.654V805.316L347 805.478V1020H567.271H581.654H779.542H977.43V953.77H779.542Z" fill="#ACB8B8"/><path d="M815.177 265.453L822.368 238.88C822.934 236.942 824.954 235.73 826.893 236.296C828.833 236.861 830.045 238.88 829.479 240.819L822.287 267.392L815.177 265.453Z" fill="#BF7461"/><path d="M806.369 345.738L777.441 338.308L799.824 274.5L820.348 277.246L806.369 345.738Z" fill="#BF7461"/><path d="M799.095 278.458L796.348 256.488L824.064 259.154C824.225 259.154 824.306 259.315 824.306 259.477L819.539 280.961L799.095 278.458Z" fill="#BF7461"/><path d="M798.288 282.254L805.398 250.996C805.802 249.139 807.661 247.927 809.519 248.412L810.004 248.493C811.863 248.896 812.994 250.754 812.59 252.612L805.479 283.87L798.288 282.254Z" fill="#BF7461"/><path d="M797.318 258.103L804.106 228.299C804.591 226.28 806.53 225.068 808.55 225.472C810.57 225.957 811.782 227.895 811.378 229.914L804.591 259.718L797.318 258.103Z" fill="#BF7461"/><path d="M802.651 287.424L791.662 259.801C790.935 257.944 791.824 255.844 793.682 255.036L794.167 254.874C796.025 254.147 798.126 255.036 798.934 256.894L809.924 284.517L802.651 287.424Z" fill="#BF7461"/><path d="M805.399 281.445L811.54 254.387C811.944 252.529 813.803 251.318 815.661 251.802L816.146 251.883C818.004 252.287 819.136 254.145 818.732 256.002L812.59 283.06L805.399 281.445Z" fill="#BF7461"/><path d="M822.771 287.341L791.662 284.191L770.087 359.145L699.708 382.891L737.766 416.491L789.884 387.495C795.702 384.264 799.823 378.611 801.197 371.988L822.771 287.341Z" fill="#D6C9C3"/><path d="M609.45 536.757L610.177 559.049L583.351 556.707L588.764 533.203L609.45 536.757Z" fill="#A76556"/><path d="M588.44 535.708L600.723 450.496L634.66 456.392L608.803 538.696L588.44 535.708Z" fill="#A76556"/><path d="M615.43 575.122C613.49 576.253 610.985 575.688 609.854 573.749L597.168 552.911L604.117 548.711L616.803 569.549C617.935 571.407 617.369 573.911 615.43 575.122Z" fill="#A76556"/><path d="M611.632 591.198C610.177 592.894 607.592 593.055 605.895 591.521L592.481 579.648L597.895 573.59L611.309 585.463C613.006 586.998 613.167 589.501 611.632 591.198Z" fill="#A76556"/><path d="M612.52 587.075C610.824 588.529 608.238 588.286 606.783 586.59L595.229 572.859L601.45 567.609L613.005 581.34C614.541 583.036 614.298 585.621 612.52 587.075Z" fill="#A76556"/><path d="M590.911 553.167L583.31 556.137L592.516 579.683L600.117 576.714L590.911 553.167Z" fill="#A76556"/><path d="M594.282 551.208L586.857 554.594L597.353 577.594L604.778 574.209L594.282 551.208Z" fill="#A76556"/><path d="M604.359 564.865C604.359 564.865 602.662 561.473 602.016 560.504C600.642 558.404 598.379 559.938 599.188 561.877C599.672 563.088 601.612 567.127 602.904 570.115C597.652 564.865 587.875 558 587.875 558L603.309 553.234L604.359 564.865Z" fill="#A76556"/><path d="M617.935 384.348L600.32 452.759L633.773 459.544L654.943 385.478L617.935 384.348Z" fill="#D6C9C3"/><path d="M627.792 470.93L625.126 361.568C625.126 361.568 670.538 347.918 685.244 347.918C698.657 347.918 745.927 359.306 745.927 359.306L742.695 470.93H627.792Z" fill="#D6C9C3"/><path d="M619.874 870.173L623.672 796.27H661.811L652.276 870.173H619.874Z" fill="#A76556"/><path d="M656.72 869.121H608.562V879.056H656.72V869.121Z" fill="#242142"/><path d="M656.72 869.124L657.043 846.59L617.854 846.671L608.48 869.124H656.72Z" fill="#D6C9C3"/><path d="M662.457 846.668L685.729 499.441L628.843 505.822L612.763 846.668H662.457Z" fill="#242142"/><path d="M751.179 870.173L747.301 796.27H709.162L718.696 870.173H751.179Z" fill="#A76556"/><path d="M762.492 869.121H714.333V879.056H762.492V869.121Z" fill="#242142"/><path d="M714.333 869.124L713.929 846.59L753.118 846.671L762.492 869.124H714.333Z" fill="#D6C9C3"/><path d="M708.515 851.757L685.243 499.441L742.129 505.822L758.29 851.757H708.515Z" fill="#242142"/><path d="M627.792 572.459V484.098H742.695L742.129 573.025L627.792 572.459Z" fill="#242142"/><path d="M767.26 399.934L773.239 346.465L703.102 350.099L737.201 418.996L767.26 399.934Z" fill="#D6C9C3"/><path d="M622.379 540.957L625.045 398.965H748.19L748.432 540.957H622.379Z" fill="#D6C9C3"/><path d="M582.542 534.093C582.542 534.093 595.309 368.274 625.126 361.651C638.459 358.662 653.326 370.858 654.377 384.427C655.427 398.077 614.379 536.193 614.379 536.193L582.542 534.093Z" fill="#D6C9C3"/><path d="M666.416 356.642V329.988H703.182V356.642C703.182 365.204 696.233 372.231 687.667 372.231H682.011C673.365 372.231 666.416 365.284 666.416 356.642Z" fill="#A86554"/><path d="M652.438 317.79C652.438 313.671 655.75 310.359 659.871 310.359C663.992 310.359 667.305 313.671 667.305 317.79C667.305 321.909 663.992 325.221 659.871 325.221C655.75 325.221 652.438 321.909 652.438 317.79Z" fill="#BF7461"/><path d="M702.859 317.79C702.859 313.671 706.172 310.359 710.293 310.359C714.414 310.359 717.727 313.671 717.727 317.79C717.727 321.909 714.414 325.221 710.293 325.221C706.172 325.221 702.859 321.909 702.859 317.79Z" fill="#BF7461"/><path d="M660.356 328.051V293.725C660.356 282.902 669.164 274.098 679.991 274.098H689.445C700.273 274.098 709.081 282.902 709.081 293.725V328.051C709.081 338.875 700.273 347.678 689.445 347.678H679.91C669.083 347.759 660.356 338.955 660.356 328.051Z" fill="#BF7461"/><path d="M692.274 314.561C691.951 313.026 694.133 311.249 697.123 310.603C700.112 309.957 702.86 310.684 703.183 312.219C703.506 313.753 701.324 315.53 698.335 316.176C695.264 316.822 692.598 316.096 692.274 314.561Z" fill="white"/><path d="M695.264 314.887C694.456 313.514 694.86 311.737 696.233 310.929C697.607 310.121 699.385 310.525 700.193 311.898C701.001 313.271 700.597 315.048 699.223 315.856C697.849 316.664 696.072 316.26 695.264 314.887Z" fill="#010101"/><path d="M677.163 314.561C677.486 313.026 675.304 311.249 672.315 310.603C669.325 309.957 666.578 310.684 666.254 312.219C665.931 313.753 668.113 315.53 671.103 316.176C674.092 316.822 676.84 316.096 677.163 314.561Z" fill="white"/><path d="M674.092 314.887C674.901 313.514 674.496 311.737 673.123 310.929C671.749 310.121 669.972 310.525 669.163 311.898C668.355 313.271 668.759 315.048 670.133 315.856C671.507 316.664 673.284 316.26 674.092 314.887Z" fill="#010101"/><path d="M680.799 308.02V304.708C680.799 303.093 679.506 301.801 677.89 301.801H668.275C666.659 301.801 665.366 303.093 665.366 304.708V308.02H680.799Z" fill="#010101"/><path d="M704.799 308.02V304.708C704.799 303.093 703.506 301.801 701.89 301.801H692.274C690.658 301.801 689.365 303.093 689.365 304.708V308.02H704.799Z" fill="#010101"/><path d="M661.89 289.523H659.871V329.827H661.89V289.523Z" fill="#010101"/><path d="M659.871 337.499V317.953H661.891L667.386 337.499H659.871Z" fill="#010101"/><path d="M709.565 289.523H707.546V330.393H709.565V289.523Z" fill="#010101"/><path d="M709.565 337.499V317.953H707.545L702.131 337.499H709.565Z" fill="#010101"/><path d="M659.871 289.526V282.337C659.871 277.814 663.507 274.18 668.032 274.18H701.808C701.808 274.18 703.99 280.399 702.293 282.418C700.273 284.841 693.809 289.607 683.385 289.607H659.871V289.526Z" fill="#010101"/><path d="M694.456 373.2L684.76 384.104L673.932 373.039L684.679 368.273L694.456 373.2Z" fill="#E63346"/><path d="M684.356 370.211L671.185 496.696L685.729 517.211L700.193 496.696L684.356 370.211Z" fill="#E63346"/><path d="M665.285 350.988L684.678 368.273L674.577 386.607L660.679 352.038L665.285 350.988Z" fill="#E6E3DA"/><path d="M704.718 350.02L684.679 368.273L694.779 386.608L709.485 349.777L704.718 350.02Z" fill="#E6E3DA"/><path d="M685.405 324.982C684.274 324.982 683.385 324.416 682.577 323.932C681.284 323.124 680.476 322.64 678.941 324.174L677.891 323.124C680.234 320.782 681.931 321.832 683.304 322.64C683.951 323.043 684.597 323.447 685.325 323.447C686.052 323.447 686.698 323.043 687.345 322.72C688.638 321.913 690.254 320.943 692.839 323.124L691.95 324.255C690.092 322.72 689.284 323.205 688.072 323.932C687.345 324.416 686.537 324.982 685.405 324.982Z" fill="#010101"/><path d="M709.646 290.172H704.152C700.273 290.172 697.122 287.022 697.122 283.145V274.18H701.727C706.091 274.18 709.646 277.734 709.646 282.095V290.172Z" fill="#010101"/><path d="M727.262 405.828C726.05 409.947 722.737 412.047 719.748 410.513L724.03 424.082L726.454 417.54L731.545 419.317L727.262 405.828Z" fill="#242143"/><path d="M715.788 410.431C714.253 409.623 713.122 408.008 712.475 405.988L708.758 419.719L713.768 417.538L716.435 423.838L720.071 410.431C718.697 411.158 717.243 411.238 715.788 410.431Z" fill="#242143"/><path d="M719.608 411.564C726.525 411.552 732.123 405.937 732.11 399.023C732.098 392.108 726.481 386.513 719.564 386.525C712.647 386.537 707.049 392.152 707.061 399.066C707.073 405.98 712.691 411.576 719.608 411.564Z" fill="#F7931E"/><path d="M1106.47 663.406L1054.03 673.018L1055.16 977.76H1103.08L1106.47 663.406Z" fill="#E63346"/><path d="M1169.02 994.964L1154.87 943.676L1197.94 943.999L1204.49 995.53L1169.02 994.964Z" fill="#F39F8F"/><path d="M1105.83 663.402L1164.57 681.414L1205.78 977.191H1157.94L1105.83 663.402Z" fill="#E63346"/><path d="M1054.03 707.179V655.648H1165.46L1164.81 707.502L1054.03 707.179Z" fill="#E63346"/><path d="M1140.41 631.66H1069.87V711.541H1140.41V631.66Z" fill="#E63346"/><path d="M1156.81 497.826L1123.76 488.941H1082.07L1049.99 498.714L1049.83 633.357H1156.81V497.826Z" fill="#E4DFD7"/><path d="M1192.45 565.108C1190.35 553.155 1190.67 534.093 1186.47 522.705C1178.87 498.151 1160.37 499.281 1160.37 499.281L1155.68 540.958L1192.45 565.108Z" fill="#232144"/><path d="M1025.43 526.178C1024.38 512.528 1034.64 500.655 1048.21 499.605C1061.87 498.555 1073.67 508.813 1074.72 522.382C1075.77 535.951 1059.12 557.032 1059.12 557.032C1059.12 557.032 1026.48 539.748 1025.43 526.178Z" fill="#232144"/><path d="M1025.67 519.879L1016.94 588.775C1015.81 597.579 1018.07 606.464 1023.33 613.652L1043.04 640.871L1073.34 525.775L1025.67 519.879Z" fill="#232144"/><path d="M1082.07 488.941L1081.42 727.049H1037.47L1042.64 500.653L1082.07 488.941Z" fill="#232144"/><path d="M1123.76 488.941L1125.95 726.564L1178.31 725.434L1163.84 499.684L1123.76 488.941Z" fill="#232144"/><path d="M1184.21 516.809L1147.12 538.536L1163.68 594.509L1138.63 651.612L1166.43 674.712L1205.86 605.009C1209.42 599.193 1210.06 592.086 1207.64 585.705L1184.21 516.809Z" fill="#232144"/><path d="M1161.74 692.482L1128.37 664.617L1136.77 654.602L1170.15 682.467L1161.74 692.482Z" fill="#891229"/><path d="M1129.66 458.25H1120.69V471.415C1120.69 473.031 1122.07 474.404 1123.68 474.404H1126.67" fill="#77351D"/><path d="M1130.07 457.278H1076.9V424.485C1076.9 416.085 1083.69 409.301 1092.09 409.301H1114.8C1123.2 409.301 1129.99 416.085 1129.99 424.485V457.278H1130.07Z" fill="#8D191E"/><path d="M1086.11 454.776C1086.11 450.576 1082.72 447.184 1078.52 447.184C1074.31 447.184 1070.92 450.576 1070.92 454.776C1070.92 458.976 1074.31 462.368 1078.52 462.368C1082.72 462.368 1086.11 458.976 1086.11 454.776Z" fill="#F39F8F"/><path d="M1120.86 454.776C1120.86 450.576 1124.25 447.184 1128.45 447.184C1132.65 447.184 1136.05 450.576 1136.05 454.776C1136.05 458.976 1132.65 462.368 1128.45 462.368C1124.25 462.368 1120.86 458.976 1120.86 454.776Z" fill="#F39F8F"/><path d="M1121.83 498.96V469.721L1084.41 469.641V498.96C1084.41 506.552 1090.55 512.771 1098.15 512.771H1108.01C1115.68 512.771 1121.83 506.633 1121.83 498.96Z" fill="#EF826C"/><path d="M1128.53 466.086V432.405C1128.53 421.016 1119.32 411.809 1107.93 411.809H1099.12C1087.73 411.809 1078.52 421.016 1078.52 432.405V466.086C1078.52 477.474 1087.73 486.682 1099.12 486.682H1107.93C1119.32 486.682 1128.53 477.474 1128.53 466.086Z" fill="#F39F8F"/><path d="M1081.18 453.243H1076.9V424.812C1076.9 422.47 1078.84 420.531 1081.18 420.531V453.243Z" fill="#8D191E"/><path d="M1129.58 453.24H1126.27C1126.03 453.24 1125.79 452.998 1125.79 452.756V421.094C1125.79 420.852 1126.03 420.609 1126.27 420.609C1128.37 420.609 1130.07 422.306 1130.07 424.406V452.836C1130.07 452.998 1129.83 453.24 1129.58 453.24Z" fill="#8D191E"/><path d="M1125.87 675.114L1151.32 531.265L1139.28 532.314L1143.8 522.864L1123.76 488.941L1125.87 675.114Z" fill="#891229"/><path d="M1081.5 676.73L1056.05 532.88L1068.09 533.93L1063.57 524.48L1082.07 488.941L1081.5 676.73Z" fill="#891229"/><path d="M1110.03 451.221C1110.35 452.755 1113.18 453.563 1116.33 452.917C1119.48 452.271 1121.83 450.494 1121.5 448.959C1121.18 447.425 1118.35 446.617 1115.2 447.263C1112.05 447.909 1109.71 449.686 1110.03 451.221Z" fill="white"/><path d="M1112.86 450.091C1112.86 451.707 1114.15 452.999 1115.76 452.999C1117.38 452.999 1118.67 451.707 1118.67 450.091C1118.67 448.476 1117.38 447.184 1115.76 447.184C1114.15 447.184 1112.86 448.476 1112.86 450.091Z" fill="#010101"/><path d="M1124.65 439.995C1124.82 439.106 1124.65 438.218 1124.17 437.491C1123.68 436.764 1122.96 436.279 1122.07 436.037C1119 435.391 1114.39 434.422 1111.32 433.775C1110.43 433.614 1109.62 433.775 1108.82 434.26C1108.01 434.745 1107.6 435.472 1107.36 436.36C1107.04 437.814 1106.8 439.187 1106.8 439.187L1123.93 442.822C1124.09 442.822 1124.41 441.448 1124.65 439.995Z" fill="#8D191E"/><path d="M1113.99 466.812C1113.99 465.923 1113.66 465.115 1113.02 464.469C1112.37 463.823 1111.56 463.5 1110.67 463.5H1095.89C1095 463.5 1094.19 463.823 1093.54 464.469C1092.9 465.115 1092.57 465.923 1092.57 466.812V469.719H1113.91V466.812H1113.99Z" fill="#8D191E"/><path d="M1103 462.937C1101.79 462.937 1100.82 462.372 1100.01 461.806C1098.63 460.918 1097.75 460.433 1096.13 462.049L1095 460.918C1097.58 458.333 1099.36 459.545 1100.82 460.433C1101.54 460.918 1102.27 461.322 1103 461.322C1103.81 461.322 1104.45 460.918 1105.18 460.514C1106.55 459.625 1108.33 458.575 1111.16 460.999L1110.19 462.21C1108.17 460.514 1107.28 461.079 1105.99 461.887C1105.1 462.372 1104.21 462.937 1103 462.937Z" fill="#1B1C1C"/><path d="M1096.37 451.221C1096.05 452.755 1093.22 453.563 1090.07 452.917C1086.92 452.271 1084.57 450.494 1084.9 448.959C1085.22 447.425 1088.05 446.617 1091.2 447.263C1094.35 447.909 1096.7 449.686 1096.37 451.221Z" fill="white"/><path d="M1093.54 450.091C1093.54 451.707 1092.25 452.999 1090.64 452.999C1089.02 452.999 1087.73 451.707 1087.73 450.091C1087.73 448.476 1089.02 447.184 1090.64 447.184C1092.25 447.184 1093.54 448.476 1093.54 450.091Z" fill="#010101"/><path d="M1099.61 435.875C1099.36 435.067 1098.8 434.34 1098.07 433.936C1097.34 433.532 1096.45 433.452 1095.57 433.613C1092.58 434.502 1088.05 435.794 1085.06 436.602C1084.25 436.844 1083.53 437.409 1083.12 438.136C1082.72 438.863 1082.64 439.832 1082.8 440.64C1083.2 442.094 1083.61 443.386 1083.61 443.386L1100.41 438.54C1100.41 438.621 1100.01 437.248 1099.61 435.875Z" fill="#8D191E"/><path d="M1122.79 451.789H1083.36V455.828H1122.79V451.789Z" fill="#F39F8F"/><path d="M1103.32 474.165C1100.82 474.165 1098.47 473.195 1096.94 471.499L1098.15 470.449C1099.44 471.903 1101.54 472.711 1103.81 472.549C1105.75 472.468 1107.44 471.661 1108.25 470.53L1109.54 471.499C1108.41 473.034 1106.31 474.084 1103.89 474.165C1103.73 474.165 1103.56 474.165 1103.32 474.165Z" fill="#010101"/><path d="M914.807 372.719H861.962V432.246H914.807V372.719Z" fill="#FF6200"/><path d="M921.192 391.86C921.192 395.98 917.879 399.291 913.758 399.291C909.637 399.291 906.324 395.98 906.324 391.86C906.324 387.741 909.637 384.43 913.758 384.43C917.798 384.43 921.192 387.741 921.192 391.86Z" fill="#FFBD7A"/><path d="M870.528 391.86C870.528 395.98 867.215 399.291 863.094 399.291C858.973 399.291 855.66 395.98 855.66 391.86C855.66 387.741 858.973 384.43 863.094 384.43C867.215 384.43 870.528 387.741 870.528 391.86Z" fill="#FFBD7A"/><path d="M869.961 429.013V405.105L906.808 405.186V429.094C906.808 439.271 898.566 447.509 888.385 447.509C878.203 447.429 869.961 439.19 869.961 429.013Z" fill="#F0A86B"/><path d="M863.982 401.631V367.223C863.982 356.319 872.79 347.516 883.699 347.516H893.153C904.061 347.516 912.869 356.319 912.869 367.223V401.631C912.869 412.535 904.061 421.339 893.153 421.339H883.699C872.79 421.339 863.982 412.535 863.982 401.631Z" fill="#FFBD7A"/><path d="M887.093 350.266H878.366C869.397 350.266 862.125 358.746 862.125 369.246V384.673L878.932 372.881C884.103 369.246 887.174 363.35 887.174 357.05L887.093 350.266Z" fill="#FF6200"/><path d="M889.759 350.102H898.486C907.455 350.102 914.727 358.582 914.727 369.082V384.509L897.92 372.717C892.749 369.082 889.678 363.186 889.678 356.886L889.759 350.102Z" fill="#FF6200"/><path d="M865.599 387.741V378.21C865.599 367.952 873.841 359.552 884.022 359.552H886.446L887.093 353.817H889.84L890.81 359.552H892.91C903.092 359.552 911.334 367.871 911.334 378.21V387.741H914.97V366.579C914.97 355.433 905.92 346.387 894.769 346.387H882.244C871.093 346.387 862.043 355.433 862.043 366.579V387.741H865.599Z" fill="#FF6200"/><path d="M889.032 400.744C888.789 400.744 888.466 400.744 888.143 400.664C887.335 400.502 886.527 400.018 885.719 399.371C885.315 398.968 884.911 398.806 884.507 398.887C883.699 398.967 883.052 399.775 883.052 399.775L882.244 399.21C882.244 399.21 883.133 397.998 884.426 397.917C885.153 397.837 885.799 398.079 886.365 398.644C887.012 399.21 887.658 399.533 888.304 399.694C888.951 399.856 889.597 399.775 890.082 399.533C890.324 399.452 890.486 399.291 890.729 399.048C890.971 398.806 891.698 398.079 892.749 398.079C893.637 398.079 894.445 398.402 895.253 399.21L894.607 399.937C893.961 399.371 893.395 399.048 892.829 399.129C892.183 399.129 891.698 399.614 891.456 399.775C891.133 400.098 890.89 400.341 890.567 400.502C890.082 400.583 889.516 400.744 889.032 400.744Z" fill="black"/><path d="M899.455 373.766H899.778C902.929 373.846 905.838 375.381 907.697 378.046L891.455 377.804C893.314 375.3 896.303 373.766 899.455 373.766Z" fill="#191C15"/><path d="M894.607 390.324C894.607 390.324 896.385 386.528 899.859 385.316C903.253 384.105 907.051 386.043 907.051 386.043C907.051 386.043 905.273 388.628 901.798 389.839C898.324 390.97 894.607 390.324 894.607 390.324Z" fill="white"/><path d="M894.607 390.325C895.496 384.187 903.172 381.602 907.94 384.51C907.616 384.994 907.131 385.883 906.808 386.367C905.758 385.721 900.263 383.54 895.334 389.437C895.092 389.84 895.011 390.002 894.607 390.325Z" fill="black"/><path d="M877.8 373.848H877.477C874.325 373.848 871.336 375.382 869.477 377.967L885.719 378.128C883.941 375.463 880.951 373.848 877.8 373.848Z" fill="#191C15"/><path d="M882.648 390.242C882.648 390.242 880.87 386.446 877.396 385.234C874.002 384.023 870.204 385.961 870.204 385.961C870.204 385.961 871.739 388.465 875.214 389.677C878.688 390.807 882.648 390.242 882.648 390.242Z" fill="white"/><path d="M882.729 390.243C881.84 384.105 874.163 381.52 869.396 384.428C869.719 384.912 870.204 385.801 870.527 386.285C871.578 385.639 877.072 383.458 882.001 389.355C882.244 389.758 882.244 389.92 882.729 390.243Z" fill="black"/><path d="M894.042 405.432C893.072 405.593 892.749 406.159 892.264 406.805C891.456 406.32 891.052 405.997 889.759 406.239C888.224 406.643 883.375 407.693 883.375 407.693C883.375 407.693 889.355 412.539 893.314 411.732C897.112 410.924 900.587 403.816 900.587 403.816C900.587 403.816 895.738 405.028 894.042 405.432Z" fill="#E73245"/><mask id="mask0_2741_5700" style="mask-type:luminance" maskUnits="userSpaceOnUse" x="894" y="384" width="14" height="7"><path d="M894.609 390.324C894.609 390.324 896.387 386.528 899.861 385.316C903.255 384.105 907.053 386.043 907.053 386.043C907.053 386.043 905.275 388.628 901.8 389.839C898.326 390.97 894.609 390.324 894.609 390.324Z" fill="white"/></mask><g mask="url(#mask0_2741_5700)"><path d="M896.387 387.336C896.387 388.952 897.68 390.325 899.376 390.325C901.073 390.325 902.366 388.952 902.366 387.336C902.366 385.721 901.073 384.348 899.376 384.348C897.68 384.348 896.387 385.721 896.387 387.336Z" fill="black"/></g><mask id="mask1_2741_5700" style="mask-type:luminance" maskUnits="userSpaceOnUse" x="870" y="384" width="13" height="7"><path d="M882.649 390.242C882.649 390.242 880.871 386.446 877.397 385.234C874.003 384.023 870.205 385.961 870.205 385.961C870.205 385.961 871.74 388.465 875.215 389.677C878.689 390.807 882.649 390.242 882.649 390.242Z" fill="white"/></mask><g mask="url(#mask1_2741_5700)"><path d="M877.961 386.203C877.961 387.819 876.669 389.192 874.972 389.192C873.356 389.192 871.982 387.819 871.982 386.203C871.982 384.588 873.275 383.215 874.972 383.215C876.669 383.215 877.961 384.588 877.961 386.203Z" fill="black"/></g><path d="M925.311 930.914L889.596 560.83L899.777 560.588C928.624 559.861 952.38 571.088 950.845 605.172L953.996 930.914H925.311Z" fill="#FFBD7A"/><path d="M884.668 930.912L883.86 559.051H874.002C846.205 559.051 825.762 571.408 828.025 605.735L856.306 930.912H884.668Z" fill="#FFBD7A"/><path d="M930.887 479.09L960.138 610.178L979.611 607.836L963.531 473.84L930.887 479.09Z" fill="#FFBD7A"/><path d="M960.704 605.574L956.664 626.331L983.329 623.989L979.046 603.797L960.704 605.574Z" fill="#FFBD7A"/><path d="M951.169 642.165C953.108 643.377 955.532 642.811 956.744 640.954L969.673 620.519L962.885 616.238L949.957 636.673C948.745 638.45 949.31 640.954 951.169 642.165Z" fill="#FFBD7A"/><path d="M954.643 658.153C956.097 659.849 958.602 660.091 960.299 658.638L973.874 647.088L968.702 640.949L955.127 652.499C953.43 653.953 953.188 656.457 954.643 658.153Z" fill="#FFBD7A"/><path d="M953.835 654.035C955.532 655.489 958.037 655.328 959.491 653.712L971.208 640.305L965.148 635.055L953.431 648.462C951.977 650.078 952.138 652.582 953.835 654.035Z" fill="#FFBD7A"/><path d="M983.329 623.991L975.895 620.922L966.36 644.022L973.875 647.091L983.329 623.991Z" fill="#FFBD7A"/><path d="M979.853 622.375L972.581 618.902L961.753 641.518L969.026 644.991L979.853 622.375Z" fill="#FFBD7A"/><path d="M962.32 632.228C962.32 632.228 964.017 628.917 964.664 627.948C966.037 625.928 968.3 627.463 967.492 629.401C966.926 630.613 964.987 634.571 963.694 637.559C969.027 632.471 978.804 625.848 978.804 625.848L963.613 620.84L962.32 632.228Z" fill="#FFBD7A"/><path d="M847.739 527.629L836.75 432.16H937.835L931.29 528.195L847.739 527.629Z" fill="#891229"/><path d="M813.398 458.493C812.348 445.005 822.448 433.293 835.942 432.243C849.356 431.193 861.153 441.289 862.123 454.778C863.173 468.266 846.689 489.024 846.689 489.024C846.689 489.024 814.368 471.901 813.398 458.493Z" fill="#891229"/><path d="M980.743 604.202L959.411 609.775C958.441 610.017 957.39 609.452 957.148 608.402C956.906 607.433 957.471 606.383 958.522 606.14L979.854 600.567C980.823 600.325 981.874 600.89 982.116 601.94C982.359 602.91 981.793 603.96 980.743 604.202Z" fill="#E73245"/><path d="M961.43 458.493C962.481 445.005 952.38 433.293 938.886 432.243C925.392 431.193 913.676 441.289 912.706 454.778C911.655 468.266 928.139 489.024 928.139 489.024C928.139 489.024 960.38 471.901 961.43 458.493Z" fill="#891229"/><path d="M931.21 527.873L836.912 527.227C836.912 527.227 816.549 580.534 819.377 657.507C820.913 698.861 827.7 775.269 827.7 775.269H958.117C958.117 775.269 957.875 682.465 958.117 652.984C958.683 564.865 931.21 527.873 931.21 527.873Z" fill="#891229"/><path d="M912.302 429.172H865.355V450.091H912.302V429.172Z" fill="#891229"/><path d="M841.437 526.905L802.974 519.232L813.64 452.598H857.921L841.437 526.905Z" fill="#891229"/><path d="M933.957 530.055L975.894 520.847L960.865 451.062L928.786 453.405L933.957 530.055Z" fill="#891229"/><path d="M840.144 954.174H885.96V942.785H841.437L840.144 954.174Z" fill="#E73245"/><path d="M841.438 942.784H885.96V927.68H856.871L841.438 942.784Z" fill="#E73245"/><path d="M970.4 954.175H927.17L925.958 942.141L970.319 942.787L970.4 954.175Z" fill="#E73245"/><path d="M970.4 942.784H925.958L924.666 927.68H954.967L970.4 942.784Z" fill="#E73245"/><path d="M885.96 893.598V931.075H853.8L853.154 893.598" fill="#E73245"/><path d="M954.482 891.496L954.966 927.681L925.958 942.138L921.19 891.981" fill="#E73245"/><path d="M871.577 474.969C870.527 478.603 867.618 480.38 864.951 479.088L868.749 491.042L870.85 485.307L875.294 486.923L871.577 474.969Z" fill="#242143"/><path d="M861.477 479.088C860.103 478.361 859.133 476.907 858.568 475.211L855.255 487.246L859.618 485.307L861.962 490.88L865.194 479.088C864.062 479.734 862.77 479.734 861.477 479.088Z" fill="#242143"/><path d="M864.809 480.059C870.878 480.049 875.79 475.122 875.779 469.056C875.768 462.989 870.84 458.08 864.771 458.09C858.701 458.101 853.79 463.027 853.8 469.094C853.811 475.161 858.74 480.07 864.809 480.059Z" fill="#F7931E"/><path d="M821.801 532.477L890.807 520.12L886.767 500.17L818.811 499.523C808.792 499.523 801.115 508.327 802.327 518.262C803.539 527.712 812.428 534.173 821.801 532.477Z" fill="#FFBD7A"/><path d="M916.26 510.426L908.261 511.476" stroke="#F5836D" stroke-width="0.484615" stroke-miterlimit="10"/><path d="M878.525 520.926L890.08 520.199L900.585 518.826L913.028 517.21V517.13L919.977 516.241C921.674 515.999 922.886 514.464 922.725 512.768C922.482 510.991 920.947 509.78 919.169 510.022L912.463 510.91L922.321 509.537C924.018 509.295 925.23 507.76 924.987 506.064C924.745 504.368 923.21 503.076 921.432 503.318L911.816 504.61L922.078 503.237C923.775 502.995 924.987 501.46 924.745 499.764C924.502 497.987 922.967 496.776 921.19 497.018L918.765 497.341L919.412 497.26C921.109 497.018 922.321 495.403 922.078 493.707C921.836 492.01 920.22 490.799 918.523 491.041L901.312 493.383L907.211 483.287C908.099 481.753 907.615 479.733 905.998 478.764C904.706 477.957 902.928 477.714 901.554 479.653L900.989 480.46L890.646 498.472C890.646 498.472 890.646 498.553 890.565 498.553C890.323 498.957 890.08 499.36 889.919 499.845L889.838 500.007H876.748L878.525 520.926Z" fill="#FFBD7A"/><path d="M493.013 781.728L457.136 409.705L467.398 409.462C496.406 408.735 520.243 420.043 518.789 454.289L521.94 781.728H493.013Z" fill="#EF816C"/><path d="M452.126 781.73L451.318 407.93H441.46C413.502 407.93 392.978 420.287 395.241 454.937L423.603 781.73H452.126Z" fill="#EF816C"/><path d="M498.588 327.569L528 459.384L547.555 456.961L531.394 322.238L498.588 327.569Z" fill="#F5836D"/><path d="M528.566 454.699L524.526 475.537L551.272 473.195L546.989 452.922L528.566 454.699Z" fill="#F5836D"/><path d="M518.95 491.448C520.889 492.659 523.314 492.094 524.526 490.236L537.535 469.721L530.748 465.359L517.738 485.875C516.526 487.813 517.092 490.317 518.95 491.448Z" fill="#F5836D"/><path d="M522.425 507.602C523.879 509.298 526.465 509.541 528.162 508.087L541.737 496.537L536.485 490.398L522.91 501.948C521.213 503.322 520.97 505.906 522.425 507.602Z" fill="#F5836D"/><path d="M521.617 503.404C523.314 504.939 525.9 504.696 527.354 503.081L539.071 489.592L533.011 484.262L521.294 497.75C519.759 499.446 519.92 501.95 521.617 503.404Z" fill="#F5836D"/><path d="M551.272 473.198L543.838 470.129L534.222 493.39L541.737 496.46L551.272 473.198Z" fill="#F5836D"/><path d="M547.798 471.663L540.444 468.109L529.617 490.806L536.97 494.359L547.798 471.663Z" fill="#F5836D"/><path d="M530.182 481.517C530.182 481.517 531.879 478.206 532.606 477.237C534.06 475.217 536.242 476.752 535.434 478.69C534.868 479.902 532.929 483.86 531.636 486.848C536.969 481.76 546.827 475.137 546.827 475.137L531.555 470.129L530.182 481.517Z" fill="#F5836D"/><path d="M412.774 376.433L403.967 280.398H505.618L497.861 376.918L412.774 376.433Z" fill="#E63346"/><path d="M380.451 306.805C379.401 293.236 389.582 281.444 403.076 280.474C416.571 279.505 428.368 289.601 429.418 303.171C430.469 316.74 413.904 337.578 413.904 337.578C413.904 337.578 381.502 320.374 380.451 306.805Z" fill="#E63346"/><path d="M529.293 306.808C530.344 293.238 520.162 281.446 506.668 280.477C493.174 279.427 481.377 289.604 480.326 303.173C479.276 316.742 495.841 337.581 495.841 337.581C495.841 337.581 528.243 320.377 529.293 306.808Z" fill="#E63346"/><path d="M497.86 376.914L412.774 376.43C412.774 376.43 383.685 429.576 386.513 506.953C388.048 548.549 394.836 625.36 394.836 625.36H525.899C525.899 625.36 525.657 532.072 525.899 502.43C526.546 413.745 497.86 376.914 497.86 376.914Z" fill="#891229"/><path d="M407.684 375.704L368.979 367.95L379.726 300.992H424.168L407.684 375.704Z" fill="#E63346"/><path d="M501.658 378.856L543.838 369.567L528.647 299.379L496.406 301.802L501.658 378.856Z" fill="#E63346"/><path d="M374.958 289.361L373.504 261.98C373.423 260.122 371.807 258.669 369.948 258.749H369.463C367.605 258.83 366.15 260.445 366.231 262.303L367.282 283.303L374.958 289.361Z" fill="#F5836D"/><path d="M402.027 369.887L389.583 300.426L368.655 304.141L368.897 372.795C368.897 382.891 377.786 390.645 387.724 389.353C397.178 388.222 403.724 379.337 402.027 369.887Z" fill="#F5836D"/><path d="M388.937 305.03L395.078 284.03L367.281 283.465L368.655 304.223L388.937 305.03Z" fill="#F5836D"/><path d="M387.16 283.948L386.837 252.529C386.837 250.51 385.14 248.895 383.12 248.895C381.1 248.895 379.484 250.591 379.484 252.61L379.807 284.029L387.16 283.948Z" fill="#F5836D"/><path d="M393.705 286.127L393.381 255.92C393.381 253.901 391.685 252.285 389.664 252.285C387.644 252.285 386.028 253.981 386.028 256.001L386.352 286.208L393.705 286.127Z" fill="#F5836D"/><path d="M389.098 304.707L404.047 279.749C405.097 277.972 404.532 275.63 402.754 274.499H402.673C400.896 273.449 398.552 274.015 397.421 275.792L382.553 300.749L389.098 304.707Z" fill="#F5836D"/><path d="M380.291 284.433L380.049 257.295C380.049 255.276 378.352 253.66 376.332 253.66C374.312 253.66 372.696 255.356 372.696 257.376L372.938 284.514L380.291 284.433Z" fill="#F5836D"/><path d="M406.472 805.477H452.53V794.008H407.765L406.472 805.477Z" fill="#242142"/><path d="M407.764 794.006L452.529 794.087V778.902H423.278L407.764 794.006Z" fill="#242142"/><path d="M538.343 805.154H494.79L493.578 793.039L538.263 793.766L538.343 805.154Z" fill="#242142"/><path d="M538.342 793.765H493.658L492.284 778.5H522.747L538.342 793.765Z" fill="#242142"/><path d="M455.924 309.718L464.085 291.141H447.763L455.924 309.718Z" fill="#D96B55"/><path d="M452.367 220.869C463.658 220.869 472.81 211.72 472.81 200.435C472.81 189.149 463.658 180 452.367 180C441.077 180 431.924 189.149 431.924 200.435C431.924 211.72 441.077 220.869 452.367 220.869Z" fill="#572B20"/><path d="M431.197 237.669C440.658 237.669 448.327 229.967 448.327 220.466C448.327 210.964 440.658 203.262 431.197 203.262C421.736 203.262 414.066 210.964 414.066 220.466C414.066 229.967 421.736 237.669 431.197 237.669Z" fill="#572B20"/><path d="M405.664 255.763L405.502 255.844L405.421 255.682C401.947 240.659 411.401 225.636 426.43 222.163L426.592 222.082L426.673 222.244C430.147 237.267 420.774 252.29 405.664 255.763Z" fill="#572B20"/><path d="M480.164 246.955C484.136 246.955 487.356 243.737 487.356 239.767C487.356 235.797 484.136 232.578 480.164 232.578C476.192 232.578 472.973 235.797 472.973 239.767C472.973 243.737 476.192 246.955 480.164 246.955Z" fill="#F5836D"/><path d="M431.682 246.955C435.654 246.955 438.873 243.737 438.873 239.767C438.873 235.797 435.654 232.578 431.682 232.578C427.71 232.578 424.49 235.797 424.49 239.767C424.49 243.737 427.71 246.955 431.682 246.955Z" fill="#F5836D"/><path d="M438.228 279.992V257.054L473.62 256.004V279.992C473.62 289.765 465.701 297.681 455.924 297.681C446.146 297.681 438.228 289.765 438.228 279.992Z" fill="#D96B55"/><path d="M432.491 249.216V225.228C432.491 212.305 442.995 201.805 455.924 201.805C468.852 201.805 479.357 212.305 479.357 225.228V249.216C479.357 262.139 468.852 272.639 455.924 272.639C442.995 272.639 432.491 262.139 432.491 249.216Z" fill="#F5836D"/><path d="M449.782 250.349C449.782 250.349 451.317 248.33 453.014 249.865C453.58 250.43 454.307 250.834 455.115 250.996C455.761 251.157 456.488 251.157 457.135 250.753C457.377 250.592 457.62 250.43 457.862 250.188C458.266 249.784 459.64 248.572 461.498 250.349" stroke="#191414" stroke-width="0.807692" stroke-miterlimit="10"/><path d="M442.913 228.14L442.671 228.221C439.843 229.19 437.58 231.452 436.691 234.44L451.478 229.513C448.893 227.655 445.741 227.171 442.913 228.14Z" fill="#572B20"/><path d="M469.094 228.059L468.852 227.979C466.024 226.929 462.872 227.413 460.287 229.19L474.993 234.44C474.104 231.452 471.922 229.109 469.094 228.059Z" fill="#572B20"/><path d="M449.698 241.551C449.698 241.551 448.002 237.916 444.689 236.705C441.376 235.574 437.82 237.351 437.82 237.351C437.82 237.351 439.113 240.339 442.426 241.47C445.658 242.682 449.698 241.551 449.698 241.551Z" fill="white"/><path d="M443.234 241.794C444.796 241.794 446.063 240.529 446.063 238.968C446.063 237.406 444.796 236.141 443.234 236.141C441.672 236.141 440.406 237.406 440.406 238.968C440.406 240.529 441.672 241.794 443.234 241.794Z" fill="#010101"/><path d="M449.7 241.548C448.892 235.652 441.458 233.148 436.933 235.894C437.175 236.379 437.741 237.267 438.064 237.671C439.034 237.025 444.286 234.925 449.053 240.66C449.215 241.064 449.296 241.144 449.7 241.548Z" fill="#010101"/><path d="M461.255 241.547C461.255 241.547 462.952 237.912 466.265 236.701C469.578 235.57 473.133 237.347 473.133 237.347C473.133 237.347 471.84 240.335 468.527 241.466C465.214 242.678 461.255 241.547 461.255 241.547Z" fill="white"/><path d="M467.154 242.033C468.716 242.033 469.982 240.767 469.982 239.206C469.982 237.645 468.716 236.379 467.154 236.379C465.592 236.379 464.326 237.645 464.326 239.206C464.326 240.767 465.592 242.033 467.154 242.033Z" fill="#010101"/><path d="M461.255 241.548C462.063 235.652 469.497 233.148 474.022 235.894C473.78 236.379 473.214 237.267 472.891 237.671C471.921 237.025 466.669 234.925 461.902 240.66C461.659 241.064 461.659 241.225 461.255 241.548Z" fill="#010101"/><path d="M432.813 240.82V232.339C432.813 221.92 441.136 213.439 451.479 213.439H454.63H457.378H460.529C470.872 213.439 479.195 221.92 479.195 232.339V240.82H482.831V220.547C482.831 209.239 473.7 200.031 462.388 200.031H449.621C438.308 200.031 429.177 209.239 429.177 220.547V240.82H432.813Z" fill="#572B20"/><path d="M475.72 240.578H436.288V244.697H475.72V240.578Z" fill="#F5836D"/><path d="M445.257 208.27H443.561V218.931H445.257V208.27Z" fill="#F5836D"/><path d="M485.82 328.051C484.85 331.201 482.184 332.735 479.76 331.605L483.234 341.943L485.174 336.935L489.295 338.308L485.82 328.051Z" fill="#242143"/><path d="M476.527 331.525C475.315 330.879 474.346 329.667 473.861 328.133L470.871 338.552L474.911 336.856L477.093 341.702L480.083 331.525C478.871 332.091 477.659 332.171 476.527 331.525Z" fill="#242143"/><path d="M479.599 332.413C485.222 332.413 489.78 328.146 489.78 322.882C489.78 317.619 485.222 313.352 479.599 313.352C473.976 313.352 469.417 317.619 469.417 322.882C469.417 328.146 473.976 332.413 479.599 332.413Z" fill="#FBB03B"/><path d="M822.771 287.34L818.812 303.898L786.975 300.344L791.662 284.109L822.771 287.34Z" fill="#E6E3DA"/><path d="M619.228 519.633L614.299 536.19L582.462 534.171L584.078 517.129L619.228 519.633Z" fill="#E6E3DA"/><path d="M689.042 335.562C686.618 336.128 684.113 335.724 682.255 334.431L683.144 333.058C684.76 334.189 686.941 334.431 689.123 333.785C690.982 333.22 692.436 332.089 693.002 330.797L694.537 331.443C693.81 333.22 691.951 334.674 689.608 335.401C689.366 335.401 689.204 335.481 689.042 335.562Z" fill="#010101"/><path d="M693.405 325.141H677.164L674.417 331.037H696.153L693.405 325.141Z" fill="#010101"/><path d="M496.083 487.086C497.457 487.086 498.588 488.217 498.588 489.59V629.159C498.588 630.532 497.457 631.663 496.083 631.663C494.709 631.663 493.578 630.532 493.578 629.159V489.59C493.578 488.217 494.709 487.086 496.083 487.086Z" fill="#F5836D"/><path d="M1157.54 554.688C1156.49 558.322 1153.58 560.099 1150.91 558.807L1154.71 570.761L1156.81 565.026L1161.26 566.641L1157.54 554.688Z" fill="#F7931E"/><path d="M1147.44 558.807C1146.07 558.08 1145.1 556.626 1144.53 554.93L1141.22 566.964L1145.58 565.026L1147.92 570.599L1151.16 558.807C1150.03 559.372 1148.73 559.453 1147.44 558.807Z" fill="#F7931E"/><path d="M1150.77 559.696C1156.84 559.686 1161.75 554.759 1161.74 548.692C1161.73 542.626 1156.8 537.716 1150.74 537.727C1144.67 537.738 1139.75 542.664 1139.77 548.731C1139.78 554.797 1144.7 559.707 1150.77 559.696Z" fill="#F7931E"/><path d="M1106.72 1006.43H1057.67V1018.06H1106.72V1006.43Z" fill="#232144"/><path d="M1057.67 1007.4C1057.67 995.529 1068.66 985.918 1082.23 985.918C1095.81 985.918 1106.8 995.529 1106.8 1007.4" fill="#E4DFD7"/><path d="M1252 1003.6H1165.95V1017.98H1252V1003.6Z" fill="#232144"/><path d="M1165.78 1003.6V986.561L1168.61 987.53C1180.65 991.488 1193.82 989.872 1204.65 983.249L1205.94 982.441L1244.97 994.153C1249.17 995.445 1252 999.241 1252 1003.6H1165.78Z" fill="#E4DFD7"/><path d="M456.004 258.344C456.004 258.344 464.65 266.986 468.448 254.144C468.448 254.144 463.519 249.459 461.014 255.355C461.014 255.355 457.863 254.144 456.004 258.344Z" fill="#891229"/></svg>