<svg viewBox="0 0 1600 1200" fill="none" xmlns="http://www.w3.org/2000/svg"><path fill-rule="evenodd" clip-rule="evenodd" d="M868.184 1020H899.842V417.348H868.184V1020Z" fill="#D8CBC5"/><path fill-rule="evenodd" clip-rule="evenodd" d="M691.072 439.856H1407V388.815H691.072V439.856Z" fill="#D8CBC5"/><path fill-rule="evenodd" clip-rule="evenodd" d="M586.252 537.565L287.79 692.094L194.262 511.26C191.404 505.732 193.565 498.933 199.091 496.072L477.539 351.906C483.066 349.044 489.867 351.208 492.727 356.737L586.252 537.565Z" fill="#F7E5CD"/><path fill-rule="evenodd" clip-rule="evenodd" d="M568.396 533.849L295.071 675.363L211.379 513.546L484.704 372.032L568.396 533.849Z" fill="#232144"/><path fill-rule="evenodd" clip-rule="evenodd" d="M641.506 589.671L293.332 769.938C285.078 774.212 275.482 767.243 276.985 758.065L287.79 692.093L586.252 537.564L641.975 569.842C649.701 574.317 649.434 585.566 641.506 589.671Z" fill="#F7E5CD"/><path fill-rule="evenodd" clip-rule="evenodd" d="M599.172 576.451L302.096 730.263L306.905 684.459L564.635 550.478L599.172 576.451Z" fill="#D8CBC5"/><path fill-rule="evenodd" clip-rule="evenodd" d="M292.486 757.168L290.868 754.039L630.918 577.979L632.537 581.108L292.486 757.168Z" fill="#D8CBC5"/><path fill-rule="evenodd" clip-rule="evenodd" d="M345.023 433.042C346.202 435.322 345.311 438.127 343.032 439.307C340.753 440.487 337.95 439.595 336.771 437.315C335.591 435.035 336.483 432.23 338.761 431.05C341.041 429.87 343.843 430.762 345.023 433.042Z" fill="#232144"/><path fill-rule="evenodd" clip-rule="evenodd" d="M384.873 570.203L290.241 619.198L252.428 546.089L347.061 497.094L384.873 570.203Z" fill="#FBB03B"/><path fill-rule="evenodd" clip-rule="evenodd" d="M498.667 569.951L374.161 634.414L300.99 492.94L425.497 428.477L498.667 569.951Z" fill="white"/><path fill-rule="evenodd" clip-rule="evenodd" d="M349.747 484.115L315.94 501.618L314.287 498.422L348.094 480.919L349.747 484.115Z" fill="#232144"/><path fill-rule="evenodd" clip-rule="evenodd" d="M431.376 455.695L321.587 512.537L319.935 509.341L429.724 452.499L431.376 455.695Z" fill="#232144"/><path fill-rule="evenodd" clip-rule="evenodd" d="M424.842 467.651L325.085 519.299L323.432 516.104L423.189 464.455L424.842 467.651Z" fill="#232144"/><path fill-rule="evenodd" clip-rule="evenodd" d="M410.971 483.408L337.85 521.266L336.197 518.069L409.318 480.212L410.971 483.408Z" fill="#232144"/><path fill-rule="evenodd" clip-rule="evenodd" d="M414.469 490.171L332.082 532.827L330.428 529.632L412.816 486.976L414.469 490.171Z" fill="#232144"/><path fill-rule="evenodd" clip-rule="evenodd" d="M417.967 496.935L335.58 539.591L333.926 536.395L416.314 493.739L417.967 496.935Z" fill="#232144"/><path fill-rule="evenodd" clip-rule="evenodd" d="M421.465 503.698L339.078 546.354L337.424 543.158L419.812 500.502L421.465 503.698Z" fill="#232144"/><path fill-rule="evenodd" clip-rule="evenodd" d="M424.963 510.46L351.842 548.319L350.189 545.122L423.31 507.265L424.963 510.46Z" fill="#232144"/><path fill-rule="evenodd" clip-rule="evenodd" d="M428.46 517.224L346.074 559.88L344.42 556.684L426.808 514.028L428.46 517.224Z" fill="#232144"/><path fill-rule="evenodd" clip-rule="evenodd" d="M431.958 523.987L349.572 566.643L347.918 563.447L430.306 520.791L431.958 523.987Z" fill="#232144"/><path fill-rule="evenodd" clip-rule="evenodd" d="M435.456 530.75L353.07 573.406L351.416 570.211L433.804 527.555L435.456 530.75Z" fill="#232144"/><path fill-rule="evenodd" clip-rule="evenodd" d="M438.954 537.514L356.568 580.17L354.914 576.974L437.302 534.318L438.954 537.514Z" fill="#232144"/><path fill-rule="evenodd" clip-rule="evenodd" d="M488.329 567.157L459.031 582.326L457.377 579.13L486.677 563.961L488.329 567.157Z" fill="#232144"/><path fill-rule="evenodd" clip-rule="evenodd" d="M532.014 520.713L425.803 575.704L383.364 493.649L489.575 438.658L532.014 520.713Z" fill="#7070FF"/><path fill-rule="evenodd" clip-rule="evenodd" d="M458.024 470.874C460.179 475.04 458.55 480.164 454.386 482.319C450.224 484.475 445.103 482.845 442.948 478.68C440.793 474.515 442.422 469.391 446.585 467.235C450.749 465.08 455.87 466.709 458.024 470.874Z" fill="#191414"/><path fill-rule="evenodd" clip-rule="evenodd" d="M483.99 518.622L500.763 536.894L511.492 531.339L488.271 500.351L483.99 518.622Z" fill="#F5836D"/><path fill-rule="evenodd" clip-rule="evenodd" d="M451.833 535.272L457.055 559.525L446.325 565.079L434.452 528.216L451.833 535.272Z" fill="#F5836D"/><path fill-rule="evenodd" clip-rule="evenodd" d="M459.68 557.897L438.278 518.642L477.412 498.38L497.741 539.085L459.68 557.897Z" fill="#232144"/><path fill-rule="evenodd" clip-rule="evenodd" d="M434.489 533.5C431.402 528.493 432.956 521.93 437.96 518.841C442.964 515.752 449.523 517.307 452.611 522.314C455.698 527.321 453.494 538.644 453.494 538.644C453.494 538.644 437.576 538.506 434.489 533.5Z" fill="#232144"/><path fill-rule="evenodd" clip-rule="evenodd" d="M462.153 491.591L441.348 502.364L438.211 496.299L459.016 485.527L462.153 491.591Z" fill="#191414"/><path fill-rule="evenodd" clip-rule="evenodd" d="M461.62 486.187C462.413 487.721 461.813 489.608 460.28 490.402C458.748 491.195 456.861 490.595 456.068 489.062C455.275 487.527 455.875 485.64 457.408 484.847C458.94 484.054 460.827 484.654 461.62 486.187Z" fill="#F5836D"/><path fill-rule="evenodd" clip-rule="evenodd" d="M442.781 495.93C443.574 497.464 442.975 499.351 441.442 500.145C439.91 500.938 438.023 500.338 437.23 498.805C436.437 497.271 437.037 495.384 438.57 494.59C440.102 493.797 441.988 494.397 442.781 495.93Z" fill="#F5836D"/><path fill-rule="evenodd" clip-rule="evenodd" d="M450.637 511.632L446.033 502.731L459.541 495.232L464.351 504.532C466.311 508.321 464.829 512.982 461.042 514.942C457.255 516.903 452.596 515.422 450.637 511.632Z" fill="#D96B55"/><path fill-rule="evenodd" clip-rule="evenodd" d="M443.133 502.597L436.508 489.788C434.415 485.741 435.998 480.763 440.044 478.668L443.569 476.844C447.616 474.748 452.595 476.331 454.689 480.38L461.313 493.188C463.406 497.235 461.824 502.214 457.778 504.309L454.254 506.133C450.206 508.229 445.228 506.645 443.133 502.597Z" fill="#F5836D"/><path fill-rule="evenodd" clip-rule="evenodd" d="M453.196 499.729C452.794 498.952 451.657 499.672 451.657 499.672L448.966 501.066C448.913 500.9 455.757 504.877 456.73 497.046L454.038 498.439C454.038 498.439 452.794 498.952 453.196 499.729Z" fill="#191414"/><path fill-rule="evenodd" clip-rule="evenodd" d="M442.38 490.35L442.267 490.408C441.104 491.017 440.31 492.167 440.122 493.515L446.155 490.355C444.939 489.743 443.543 489.741 442.38 490.35Z" fill="#191414"/><path fill-rule="evenodd" clip-rule="evenodd" d="M451.42 485.223L451.311 485.285C450.168 485.935 449.415 487.112 449.273 488.464L455.193 485.097C453.957 484.527 452.561 484.573 451.42 485.223Z" fill="#191414"/><path fill-rule="evenodd" clip-rule="evenodd" d="M445.463 494.162C445.778 494.771 445.54 495.52 444.93 495.835C444.322 496.15 443.573 495.912 443.258 495.303C442.943 494.694 443.181 493.944 443.79 493.629C444.398 493.314 445.148 493.552 445.463 494.162Z" fill="#010101"/><path fill-rule="evenodd" clip-rule="evenodd" d="M447.348 494.422C445.844 492.319 442.469 492.834 441.255 494.817C441.453 494.933 441.841 495.179 442.04 495.295C442.308 494.857 443.912 492.987 446.896 494.243C447.077 494.319 447.12 494.368 447.348 494.422Z" fill="#010101"/><path fill-rule="evenodd" clip-rule="evenodd" d="M452.57 490.569C452.885 491.178 453.634 491.416 454.242 491.101C454.852 490.786 455.09 490.036 454.775 489.427C454.46 488.818 453.71 488.58 453.102 488.895C452.493 489.21 452.255 489.959 452.57 490.569Z" fill="#010101"/><path fill-rule="evenodd" clip-rule="evenodd" d="M451.846 492.12C450.999 489.677 453.369 487.218 455.688 487.372C455.669 487.601 455.645 488.06 455.626 488.289C455.113 488.255 452.661 488.485 451.961 491.648C451.919 491.84 451.933 491.904 451.846 492.12Z" fill="#010101"/><path fill-rule="evenodd" clip-rule="evenodd" d="M450.66 496.965C450.79 497.217 450.693 497.526 450.441 497.656C450.189 497.786 449.881 497.688 449.751 497.436C449.621 497.185 449.719 496.876 449.97 496.746C450.222 496.616 450.53 496.714 450.66 496.965Z" fill="#191414"/><path fill-rule="evenodd" clip-rule="evenodd" d="M453.279 495.609C453.409 495.86 453.312 496.169 453.06 496.299C452.808 496.429 452.5 496.331 452.37 496.08C452.24 495.828 452.339 495.519 452.589 495.39C452.841 495.26 453.149 495.357 453.279 495.609Z" fill="#191414"/><path fill-rule="evenodd" clip-rule="evenodd" d="M441.703 499.569L438.954 494.253C436.86 490.205 438.404 485.245 442.404 483.174L443.61 482.549L444.681 481.995L445.888 481.37C449.886 479.3 454.825 480.904 456.92 484.952L459.669 490.267L461.089 489.532L455.971 479.637C453.702 475.251 448.308 473.535 443.923 475.805L438.996 478.355C434.612 480.626 432.896 486.023 435.165 490.41L440.283 500.304L441.703 499.569Z" fill="#191414"/><path fill-rule="evenodd" clip-rule="evenodd" d="M445.924 507.689L444.488 508.434L439.441 498.677L440.878 497.933L445.924 507.689Z" fill="#191414"/><path fill-rule="evenodd" clip-rule="evenodd" d="M465.34 497.753L463.903 498.497L458.857 488.74L460.293 487.996L465.34 497.753Z" fill="#191414"/><path fill-rule="evenodd" clip-rule="evenodd" d="M445.422 487.894L437.359 491.95L434.236 485.913L448.665 478.442L449.062 480.387C449.683 483.425 448.191 486.501 445.422 487.894Z" fill="#191414"/><path fill-rule="evenodd" clip-rule="evenodd" d="M491.789 503.833C489.487 498.42 483.234 495.899 477.824 498.201C472.413 500.505 469.894 506.762 472.196 512.175C474.498 517.588 485.011 522.328 485.011 522.328C485.011 522.328 494.092 509.246 491.789 503.833Z" fill="#232144"/><path fill-rule="evenodd" clip-rule="evenodd" d="M455.949 481.524L455.738 481.633C453.065 483.017 449.778 481.971 448.395 479.298L447.386 477.347L452.436 474.732L455.949 481.524Z" fill="#191414"/><path fill-rule="evenodd" clip-rule="evenodd" d="M1313.84 384.458C1311.28 271.104 1218.64 180 1104.73 180C1033.53 180 970.65 215.605 932.873 269.982L895.564 226.011V269.107C878.196 270.421 862.013 276.882 848.093 287.221L815.041 248.265V326.913C810.701 335.375 807.223 344.523 804.739 354.183H660.556C650.869 354.183 643.016 362.039 643.016 371.731C643.016 381.423 650.869 389.281 660.556 389.281H800.341H895.564H937.297V439.086C937.297 448.778 945.15 456.635 954.837 456.635C964.525 456.635 972.378 448.778 972.378 439.086V389.281H1003.98H1278.83V656.753C1278.83 666.445 1286.68 674.302 1296.36 674.302C1306.05 674.302 1313.91 666.445 1313.91 656.753V385.666C1313.91 385.258 1313.87 384.859 1313.84 384.458Z" fill="#232144"/><path fill-rule="evenodd" clip-rule="evenodd" d="M867.85 329.074C867.85 329.074 860.618 334.334 852.408 333.533C844.198 332.731 838.119 326.173 838.119 326.173C838.119 326.173 845.351 320.913 853.561 321.714C861.771 322.515 867.85 329.074 867.85 329.074Z" fill="white"/><path fill-rule="evenodd" clip-rule="evenodd" d="M853.713 320.145C853.713 320.145 856.356 323.783 855.954 327.913C855.551 332.044 852.255 335.102 852.255 335.102C852.255 335.102 849.612 331.464 850.014 327.333C850.417 323.203 853.713 320.145 853.713 320.145Z" fill="#232144"/><path fill-rule="evenodd" clip-rule="evenodd" d="M906.426 303.094C906.426 303.094 905.22 311.958 898.962 317.335C892.705 322.713 883.765 322.569 883.765 322.569C883.765 322.569 884.971 313.705 891.229 308.327C897.486 302.949 906.426 303.094 906.426 303.094Z" fill="white"/><path fill-rule="evenodd" clip-rule="evenodd" d="M890.202 307.131C890.202 307.131 894.657 307.738 897.359 310.886C900.061 314.034 899.989 318.531 899.989 318.531C899.989 318.531 895.535 317.924 892.833 314.776C890.129 311.628 890.202 307.131 890.202 307.131Z" fill="#232144"/></svg>