<svg viewBox="0 0 1600 1200" fill="none" xmlns="http://www.w3.org/2000/svg"><path fill-rule="evenodd" clip-rule="evenodd" d="M193 1020H1407V714.375H193V1020Z" fill="#F7E5CD"/><path fill-rule="evenodd" clip-rule="evenodd" d="M885.26 536.583L883.267 445.336H973.232L971.943 536.583H885.26Z" fill="#BAC09A"/><path fill-rule="evenodd" clip-rule="evenodd" d="M923.208 870.73L924.69 558.127H915.079C887.891 558.127 867.948 569.091 870.127 599.673L896.288 870.73H923.208Z" fill="#E18068"/><path fill-rule="evenodd" clip-rule="evenodd" d="M923.558 844.137L893.222 843.886L886.643 770.795H924.061L923.558 844.137Z" fill="white"/><path fill-rule="evenodd" clip-rule="evenodd" d="M881.612 900.771H924.096V889.939H881.612V900.771Z" fill="#BAC09A"/><path fill-rule="evenodd" clip-rule="evenodd" d="M881.612 889.939H924.096V875.523H896.36L881.612 889.939Z" fill="#BAC09A"/><path fill-rule="evenodd" clip-rule="evenodd" d="M968.246 873.836L925.493 559.77L935.191 559.535C962.622 558.869 985.102 568.826 983.638 599.127L994.697 873.59L968.246 873.836Z" fill="#E18068"/><path fill-rule="evenodd" clip-rule="evenodd" d="M963.972 842.548L993.598 843.04L991 770.809L953.903 771.021L963.972 842.548Z" fill="white"/><path fill-rule="evenodd" clip-rule="evenodd" d="M1009.89 900.791L968.617 900.772L967.458 889.309L1009.82 889.941L1009.89 900.791Z" fill="#BAC09A"/><path fill-rule="evenodd" clip-rule="evenodd" d="M1009.89 889.939H967.49L966.217 875.523H995.14L1009.89 889.939Z" fill="#BAC09A"/><path fill-rule="evenodd" clip-rule="evenodd" d="M956.03 408.413C956.03 411.939 953.173 414.796 949.649 414.796C946.125 414.796 943.269 411.939 943.269 408.413C943.269 404.888 946.125 402.031 949.649 402.031C953.173 402.031 956.03 404.888 956.03 408.413Z" fill="#F89680"/><path fill-rule="evenodd" clip-rule="evenodd" d="M912.732 408.392C912.732 411.917 909.875 414.774 906.351 414.774C902.827 414.774 899.971 411.917 899.971 408.392C899.971 404.867 902.827 402.01 906.351 402.01C909.875 402.01 912.732 404.867 912.732 408.392Z" fill="#F89680"/><path fill-rule="evenodd" clip-rule="evenodd" d="M912.251 444.228V423.771L943.779 422.855V444.228C943.779 452.935 936.721 459.994 928.014 459.994C919.308 459.994 912.251 452.935 912.251 444.228Z" fill="#E18068"/><path fill-rule="evenodd" clip-rule="evenodd" d="M907.12 420.808V391.375C907.12 382.072 914.661 374.529 923.962 374.529H932.068C941.37 374.529 948.911 382.072 948.911 391.375V420.808C948.911 430.112 941.37 437.654 932.068 437.654H923.962C914.661 437.654 907.12 430.112 907.12 420.808Z" fill="#F89680"/><path fill-rule="evenodd" clip-rule="evenodd" d="M922.883 418.056C922.883 418.056 922.883 418.056 922.549 417.804C922.215 417.551 922.215 417.551 922.215 417.551L922.215 417.55L922.216 417.549L922.217 417.547L922.222 417.541L922.238 417.521C922.251 417.504 922.27 417.482 922.294 417.455C922.341 417.4 922.408 417.326 922.495 417.242C922.665 417.076 922.916 416.865 923.23 416.702C923.545 416.537 923.938 416.414 924.379 416.45C924.827 416.486 925.283 416.682 925.722 417.088L925.723 417.089C926.205 417.535 926.759 417.864 927.362 417.985L927.363 417.986C927.86 418.087 928.401 418.078 928.897 417.823C929.092 417.722 929.273 417.575 929.441 417.395C929.644 417.174 930.115 416.737 930.802 416.593C931.523 416.441 932.387 416.631 933.307 417.499L932.732 418.108C931.974 417.393 931.38 417.327 930.974 417.412C930.535 417.505 930.21 417.796 930.057 417.963L930.055 417.966L930.055 417.966C929.839 418.197 929.584 418.411 929.282 418.567L929.281 418.568C928.562 418.938 927.811 418.932 927.196 418.807C926.404 418.647 925.715 418.224 925.154 417.704C924.833 417.407 924.548 417.304 924.312 417.285C924.069 417.265 923.835 417.331 923.617 417.445C923.399 417.559 923.212 417.712 923.078 417.843C923.012 417.907 922.961 417.963 922.928 418.002C922.911 418.022 922.898 418.037 922.891 418.046L922.883 418.056L922.883 418.056ZM922.883 418.056L922.882 418.057L922.882 418.057L922.882 418.057L922.883 418.056Z" fill="#211A1A"/><path fill-rule="evenodd" clip-rule="evenodd" d="M928.056 425.051C928.056 423.265 925.319 423.503 925.319 423.503H919.131C919.191 423.154 927.871 436.787 936.981 423.503H930.793C930.793 423.503 928.056 423.265 928.056 425.051Z" fill="#211A1A"/><path fill-rule="evenodd" clip-rule="evenodd" d="M917.238 397.899H916.982C914.3 397.912 911.782 399.251 910.176 401.515L924.079 401.451C922.449 399.201 919.92 397.885 917.238 397.899Z" fill="#211A1A"/><path fill-rule="evenodd" clip-rule="evenodd" d="M938.797 394.655L938.54 394.664C935.861 394.77 933.39 396.197 931.865 398.516L945.757 397.967C944.049 395.775 941.475 394.549 938.797 394.655Z" fill="#211A1A"/><path fill-rule="evenodd" clip-rule="evenodd" d="M922.428 409.945C922.428 409.945 920.903 406.677 917.975 405.66C915.048 404.643 911.826 406.262 911.826 406.262C911.826 406.262 912.998 408.926 915.924 409.943C918.852 410.961 922.428 409.945 922.428 409.945Z" fill="white"/><path fill-rule="evenodd" clip-rule="evenodd" d="M922.428 409.942C921.673 404.717 915.07 402.486 911.01 404.94C911.259 405.338 911.734 406.146 911.984 406.544C912.881 406.001 917.542 404.118 921.777 409.194C922.035 409.502 922.067 409.632 922.428 409.942Z" fill="black"/><path d="M916.72 409.11C918.12 409.11 919.254 407.975 919.254 406.576C919.254 406.474 919.248 406.373 919.236 406.274C918.85 406.029 918.43 405.818 917.977 405.66C917.277 405.417 916.56 405.324 915.874 405.324C915.377 405.324 914.896 405.373 914.45 405.448C914.281 405.788 914.186 406.171 914.186 406.576C914.186 407.975 915.321 409.11 916.72 409.11Z" fill="black"/><path fill-rule="evenodd" clip-rule="evenodd" d="M932.745 409.996C932.745 409.996 934.27 406.728 937.198 405.71C940.125 404.694 943.347 406.312 943.347 406.312C943.347 406.312 942.175 408.977 939.249 409.994C936.321 411.011 932.745 409.996 932.745 409.996Z" fill="white"/><path fill-rule="evenodd" clip-rule="evenodd" d="M932.744 409.994C933.5 404.769 940.103 402.537 944.163 404.991C943.913 405.389 943.438 406.197 943.19 406.595C942.292 406.053 937.63 404.169 933.396 409.245C933.139 409.553 933.106 409.683 932.744 409.994Z" fill="black"/><path fill-rule="evenodd" clip-rule="evenodd" d="M935.512 406.732C935.512 408.131 936.646 409.266 938.046 409.266C939.445 409.266 940.58 408.131 940.58 406.732C940.58 405.333 939.445 404.197 938.046 404.197C936.646 404.197 935.512 405.333 935.512 406.732Z" fill="black"/><path fill-rule="evenodd" clip-rule="evenodd" d="M907.365 409.47V401.761C907.365 392.456 914.818 384.915 924.01 384.915H926.784H929.246H932.021C941.213 384.915 948.665 392.456 948.665 401.761V409.47H951.93V391.238C951.93 381.155 943.758 372.982 933.678 372.982H922.352C912.272 372.982 904.101 381.155 904.101 391.238V409.47H907.365Z" fill="#211A1A"/><path fill-rule="evenodd" clip-rule="evenodd" d="M971.596 530.688H933.276H885.962C885.962 530.688 862.637 561.023 867.816 625.62C868.011 628.057 927.78 627.287 927.78 627.287L928.466 586.29H929.093L931.344 627.305C931.344 627.305 989.547 628.057 989.743 625.62C994.922 561.023 971.596 530.688 971.596 530.688Z" fill="#232144"/><path fill-rule="evenodd" clip-rule="evenodd" d="M924.096 878.731H893.418L892.824 843.039H924.096V878.731Z" fill="#BAC09A"/><path fill-rule="evenodd" clip-rule="evenodd" d="M958.439 482.226L943.906 600.765L960.971 604.595L992.485 464.688L958.439 482.226Z" fill="#F89680"/><path fill-rule="evenodd" clip-rule="evenodd" d="M945.778 597.072L936.199 613.226L959.046 619.649L961.651 601.025L945.778 597.072Z" fill="#F89680"/><path fill-rule="evenodd" clip-rule="evenodd" d="M926.899 624.871C928.115 626.429 930.364 626.706 931.922 625.489L948.846 612.273L944.441 606.631L927.517 619.846C925.959 621.064 925.683 623.312 926.899 624.871Z" fill="#F89680"/><path fill-rule="evenodd" clip-rule="evenodd" d="M925.023 639.316C925.725 641.164 927.792 642.092 929.639 641.391L944.405 635.78L941.862 629.088L927.098 634.699C925.25 635.4 924.322 637.467 925.023 639.316Z" fill="#F89680"/><path fill-rule="evenodd" clip-rule="evenodd" d="M925.556 635.623C926.524 637.345 928.706 637.957 930.429 636.988L944.196 629.244L940.687 623.004L926.92 630.748C925.198 631.717 924.587 633.9 925.556 635.623Z" fill="#F89680"/><path fill-rule="evenodd" clip-rule="evenodd" d="M959.234 619.229L953.911 614.443L939.044 630.986L944.367 635.772L959.234 619.229Z" fill="#F89680"/><path fill-rule="evenodd" clip-rule="evenodd" d="M956.779 616.855L951.729 611.783L935.971 627.479L941.021 632.552L956.779 616.855Z" fill="#F89680"/><path fill-rule="evenodd" clip-rule="evenodd" d="M939.184 619.848C939.184 619.848 941.596 617.589 942.456 616.975C944.238 615.7 945.629 617.663 944.37 619.014C943.562 619.88 940.738 622.579 938.773 624.687C944.726 622.026 954.931 619.402 954.931 619.402L943.685 610.672L939.184 619.848Z" fill="#F89680"/><path fill-rule="evenodd" clip-rule="evenodd" d="M898.004 482.182L908.617 601.136L891.435 604.402L864.556 463.529L898.004 482.182Z" fill="#F89680"/><path fill-rule="evenodd" clip-rule="evenodd" d="M906.867 597.385L915.908 613.845L892.862 619.512L890.873 600.811L906.867 597.385Z" fill="#F89680"/><path fill-rule="evenodd" clip-rule="evenodd" d="M924.82 625.792C923.553 627.309 921.297 627.511 919.779 626.244L903.301 612.477L907.889 606.982L924.368 620.75C925.884 622.017 926.087 624.275 924.82 625.792Z" fill="#F89680"/><path fill-rule="evenodd" clip-rule="evenodd" d="M926.217 640.292C925.454 642.116 923.358 642.977 921.535 642.213L906.964 636.118L909.725 629.514L924.297 635.609C926.12 636.372 926.98 638.469 926.217 640.292Z" fill="#F89680"/><path fill-rule="evenodd" clip-rule="evenodd" d="M925.808 636.582C924.783 638.273 922.581 638.811 920.892 637.786L907.389 629.591L911.1 623.471L924.604 631.665C926.294 632.691 926.832 634.892 925.808 636.582Z" fill="#F89680"/><path fill-rule="evenodd" clip-rule="evenodd" d="M892.688 619.084L898.165 614.477L912.478 631.501L907.001 636.109L892.688 619.084Z" fill="#F89680"/><path fill-rule="evenodd" clip-rule="evenodd" d="M895.22 616.793L900.435 611.891L915.667 628.099L910.451 633.002L895.22 616.793Z" fill="#F89680"/><path fill-rule="evenodd" clip-rule="evenodd" d="M912.706 620.367C912.706 620.367 910.37 618.029 909.531 617.387C907.792 616.055 906.337 617.97 907.551 619.361C908.329 620.254 911.063 623.045 912.957 625.217C907.095 622.36 896.983 619.401 896.983 619.401L908.511 611.047L912.706 620.367Z" fill="#F89680"/><path fill-rule="evenodd" clip-rule="evenodd" d="M905.814 465.445C904.911 453.471 894.475 444.496 882.503 445.398C870.532 446.301 861.559 456.739 862.461 468.714L865.113 488.223L901.727 482.46L905.814 465.445Z" fill="#BAC09A"/><path fill-rule="evenodd" clip-rule="evenodd" d="M995.14 875.524L967.458 889.308L962.929 841.444L994.697 841.037L995.14 875.524Z" fill="#BAC09A"/><path fill-rule="evenodd" clip-rule="evenodd" d="M994.19 468.714C995.092 456.739 986.119 446.301 974.147 445.398C962.176 444.496 951.74 453.471 950.837 465.445L953.393 482.46L990.935 488.223L994.19 468.714Z" fill="#BAC09A"/><path fill-rule="evenodd" clip-rule="evenodd" d="M942.353 364.637C942.353 372.669 935.844 379.18 927.813 379.18C919.782 379.18 913.272 372.669 913.272 364.637C913.272 356.605 919.782 350.094 927.813 350.094C935.844 350.094 942.353 356.605 942.353 364.637Z" fill="#211A1A"/><path fill-rule="evenodd" clip-rule="evenodd" d="M927.001 386.912H928.303V378.361H927.001V386.912Z" fill="#F89680"/><path fill-rule="evenodd" clip-rule="evenodd" d="M1028.68 616.196V316.541H1034.3V616.196H1028.68Z" fill="#EBE8E1"/><path fill-rule="evenodd" clip-rule="evenodd" d="M968.591 223.779C968.591 247.957 949.034 267.558 924.91 267.558C900.785 267.558 881.228 247.957 881.228 223.779C881.228 199.601 900.785 180 924.91 180C949.034 180 968.591 199.601 968.591 223.779Z" fill="#E0D5D0"/><path d="M882.264 214.251C883.722 213.781 886.267 213.061 889.469 212.555C887.234 217.406 882.435 230.517 887.155 245.813C888.77 248.586 890.68 251.165 892.842 253.507C881.956 233.608 890.425 215.457 892.121 212.21C896.433 211.769 901.56 211.837 906.727 213.276C904.256 218.684 894.488 243.842 914.509 266.309C915.749 266.613 917.009 266.863 918.288 267.058C895.626 244.305 906.645 218.507 908.863 213.958C913.917 215.752 918.9 218.961 923.072 224.418C921.984 228.377 916.586 251.794 936.18 266.086C937.103 265.84 938.014 265.564 938.912 265.259C936.653 263.761 934.722 262.145 933.058 260.454C938.771 259.886 952.374 256.87 964.865 241.496C965.872 239.219 966.691 236.839 967.302 234.377C952.856 256.293 934.901 258.165 931.13 258.322C927.863 254.359 925.94 250.086 924.87 245.952C929.331 244.962 957.991 237.653 966.958 211.881C966.609 210.637 966.205 209.415 965.751 208.218C958.394 235.342 928.602 242.837 924.372 243.769C922.713 235.131 924.517 227.507 925.162 225.217C929.757 224.59 953.548 220.106 957.217 194.314C956.572 193.604 955.904 192.916 955.214 192.25C954.934 195.004 954.417 197.504 953.726 199.792C951.974 197.68 948.73 194.242 943.813 190.837C937.892 186.738 928.535 182.068 915.64 180.986C913.703 181.406 911.813 181.954 909.98 182.622C936.359 183.056 950.142 198.776 952.863 202.319C950.791 207.652 947.675 211.62 944.245 214.573C940.427 209.708 922.584 189.627 892.061 194.918C891.317 195.767 890.606 196.645 889.93 197.55C921.3 191.242 938.965 211.446 942.505 215.975C935.183 221.442 927.057 222.749 924.794 223.015C911.426 205.592 890.46 209.554 882.905 211.717C882.667 212.552 882.453 213.397 882.264 214.251Z" fill="#FF7800"/><path fill-rule="evenodd" clip-rule="evenodd" d="M1297.12 414.313H288.995V408.906H1297.12V414.313Z" fill="#EBE8E1"/><path fill-rule="evenodd" clip-rule="evenodd" d="M1297.12 556.944H288.995V551.537H1297.12V556.944Z" fill="#EBE8E1"/><path fill-rule="evenodd" clip-rule="evenodd" d="M1297.12 485.628H288.995V480.221H1297.12V485.628Z" fill="#EBE8E1"/><path fill-rule="evenodd" clip-rule="evenodd" d="M1297.12 341.403H288.995V335.996H1297.12V341.403Z" fill="#EBE8E1"/><path fill-rule="evenodd" clip-rule="evenodd" d="M1297.12 628.26H288.995V622.854H1297.12V628.26Z" fill="#EBE8E1"/><path fill-rule="evenodd" clip-rule="evenodd" d="M356.947 625.555V337.314H362.353V625.555H356.947Z" fill="#EBE8E1"/><path fill-rule="evenodd" clip-rule="evenodd" d="M290.057 625.555V337.314H295.462V625.555H290.057Z" fill="#EBE8E1"/><path fill-rule="evenodd" clip-rule="evenodd" d="M423.838 625.555V337.314H429.244V625.555H423.838Z" fill="#EBE8E1"/><path fill-rule="evenodd" clip-rule="evenodd" d="M490.729 625.555V337.314H496.134V625.555H490.729Z" fill="#EBE8E1"/><path fill-rule="evenodd" clip-rule="evenodd" d="M557.619 625.555V337.314H563.025V625.555H557.619Z" fill="#EBE8E1"/><path fill-rule="evenodd" clip-rule="evenodd" d="M624.51 625.555V337.314H629.916V625.555H624.51Z" fill="#EBE8E1"/><path fill-rule="evenodd" clip-rule="evenodd" d="M691.4 625.555V337.314H696.806V625.555H691.4Z" fill="#EBE8E1"/><path fill-rule="evenodd" clip-rule="evenodd" d="M758.291 625.555V337.314H763.697V625.555H758.291Z" fill="#EBE8E1"/><path fill-rule="evenodd" clip-rule="evenodd" d="M825.182 625.555V337.314H830.587V625.555H825.182Z" fill="#EBE8E1"/><path fill-rule="evenodd" clip-rule="evenodd" d="M892.072 625.555V337.314H897.478V625.555H892.072Z" fill="#EBE8E1"/><path fill-rule="evenodd" clip-rule="evenodd" d="M958.963 625.555V337.314H964.369V625.555H958.963Z" fill="#EBE8E1"/><path fill-rule="evenodd" clip-rule="evenodd" d="M1092.74 625.555V337.314H1098.15V625.555H1092.74Z" fill="#EBE8E1"/><path fill-rule="evenodd" clip-rule="evenodd" d="M1159.63 625.555V337.314H1165.04V625.555H1159.63Z" fill="#EBE8E1"/><path fill-rule="evenodd" clip-rule="evenodd" d="M1226.53 625.555V337.314H1231.93V625.555H1226.53Z" fill="#EBE8E1"/><path fill-rule="evenodd" clip-rule="evenodd" d="M1293.42 625.555V337.314H1298.82V625.555H1293.42Z" fill="#EBE8E1"/><path fill-rule="evenodd" clip-rule="evenodd" d="M287.434 972.97H301.345V317.982H287.434V972.97Z" fill="#232144"/><path fill-rule="evenodd" clip-rule="evenodd" d="M1289.6 972.97H1303.51V317.982H1289.6V972.97Z" fill="#232144"/><path fill-rule="evenodd" clip-rule="evenodd" d="M662.377 965.333C662.377 956.254 670.782 948.895 681.15 948.895C691.519 948.895 699.923 956.254 699.923 965.333" fill="#2F2E56"/><path fill-rule="evenodd" clip-rule="evenodd" d="M609.983 965.333C609.983 956.254 601.579 948.895 591.21 948.895C580.843 948.895 572.438 956.254 572.438 965.333" fill="#2F2E56"/><path fill-rule="evenodd" clip-rule="evenodd" d="M621.849 536.945V514.654L652.504 514.666V536.945C652.504 544.125 646.697 549.947 639.533 549.947H634.821C627.657 549.947 621.849 544.125 621.849 536.945Z" fill="#894533"/><path fill-rule="evenodd" clip-rule="evenodd" d="M652.563 532.014C668.289 535.386 688.705 541.216 688.705 541.216L685.565 632.464H589.637L587.415 541.079C587.415 541.079 606.335 535.364 621.777 532.014H652.563Z" fill="#463EC5"/><path fill-rule="evenodd" clip-rule="evenodd" d="M577.623 960.944L588.121 700.686H632.43L604.674 960.944H577.623Z" fill="#AE5349"/><path fill-rule="evenodd" clip-rule="evenodd" d="M572.438 973.151H609.983V964.258H572.438V973.151Z" fill="#2F2E56"/><path fill-rule="evenodd" clip-rule="evenodd" d="M626.666 775.419L637.99 656.32L590.268 661.348L580.557 775.419H626.666Z" fill="#232144"/><path fill-rule="evenodd" clip-rule="evenodd" d="M695.178 960.944L686.466 700.686H641.436L668.127 960.944H695.178Z" fill="#AE5349"/><path fill-rule="evenodd" clip-rule="evenodd" d="M662.377 973.151H699.923V964.258H662.377V973.151Z" fill="#2F2E56"/><path fill-rule="evenodd" clip-rule="evenodd" d="M647.199 775.417L635.96 659.029L685.023 663.124L691.147 775.417" fill="#232144"/><path fill-rule="evenodd" clip-rule="evenodd" d="M589.638 711.474V643.479H685.566L685.049 711.887L589.638 711.474Z" fill="#232144"/><path fill-rule="evenodd" clip-rule="evenodd" d="M589.637 671.154H685.565V572.312H589.637V671.154Z" fill="#463EC5"/><path fill-rule="evenodd" clip-rule="evenodd" d="M609.595 498.713C609.595 495.279 612.372 492.494 615.8 492.494C619.226 492.494 622.004 495.279 622.004 498.713C622.004 502.147 619.226 504.931 615.8 504.931C612.372 504.931 609.595 502.147 609.595 498.713Z" fill="#AE5349"/><path fill-rule="evenodd" clip-rule="evenodd" d="M653.197 498.713C653.197 495.279 655.976 492.494 659.402 492.494C662.828 492.494 665.606 495.279 665.606 498.713C665.606 502.147 662.828 504.931 659.402 504.931C655.976 504.931 653.197 502.147 653.197 498.713Z" fill="#AE5349"/><path fill-rule="evenodd" clip-rule="evenodd" d="M616.784 513.052V484.374C616.784 475.309 624.116 467.961 633.161 467.961H641.042C650.086 467.961 657.419 475.309 657.419 484.374V513.052C657.419 522.116 650.086 529.465 641.042 529.465H633.161C624.116 529.465 616.784 522.116 616.784 513.052Z" fill="#AE5349"/><path fill-rule="evenodd" clip-rule="evenodd" d="M615.925 516.543C615.925 523.781 621.78 529.649 629.001 529.649H644.96C652.182 529.649 658.036 523.781 658.036 516.543V477.28C658.036 471.882 653.671 467.508 648.286 467.508H625.646C620.277 467.508 615.925 471.869 615.925 477.25V516.543Z" fill="black"/><path fill-rule="evenodd" clip-rule="evenodd" d="M568.853 411.867L565.965 385.814C565.761 384.105 566.946 382.557 568.612 382.357C570.279 382.157 571.794 383.382 571.998 385.092L573.666 400.902L574.104 400.85L571.946 380.925C571.742 379.216 572.928 377.668 574.593 377.47C576.259 377.27 577.776 378.494 577.978 380.204L579.976 398.778L580.414 398.724L578.134 377.782C577.931 376.073 579.115 374.525 580.782 374.326C582.448 374.126 583.964 375.35 584.167 377.06L586.607 399.354L587.045 399.302L584.991 380.254C584.787 378.544 585.973 376.997 587.639 376.797C589.306 376.598 590.821 377.822 591.025 379.531L593.658 403.684L597.104 395.013C597.761 393.433 599.546 392.705 601.09 393.387C602.635 394.069 603.355 395.903 602.698 397.483L596.825 411.995C595.31 415.641 593.25 419.019 590.718 422.01L615.021 547.527L583.148 540.636L571.157 418.915C570.006 416.92 569.25 414.715 568.931 412.424L568.853 411.867Z" fill="#AE5349"/><path fill-rule="evenodd" clip-rule="evenodd" d="M704.885 411.867L707.773 385.814C707.976 384.105 706.791 382.557 705.125 382.357C703.459 382.157 701.944 383.382 701.74 385.092L700.072 400.902L699.634 400.85L701.792 380.925C701.996 379.216 700.81 377.668 699.145 377.47C697.479 377.27 695.962 378.494 695.759 380.204L693.762 398.778L693.324 398.724L695.603 377.782C695.807 376.073 694.622 374.525 692.956 374.326C691.29 374.126 689.774 375.35 689.571 377.06L687.13 399.354L686.693 399.302L688.747 380.254C688.95 378.544 687.764 376.997 686.098 376.797C684.432 376.598 682.917 377.822 682.713 379.531L680.079 403.684L676.634 395.013C675.977 393.433 674.192 392.705 672.648 393.387C671.103 394.069 670.383 395.903 671.04 397.483L676.912 411.995C678.428 415.641 680.488 419.019 683.02 422.01L658.717 547.527L690.59 540.636L702.581 418.915C703.731 416.92 704.488 414.715 704.807 412.424L704.885 411.867Z" fill="#AE5349"/><path fill-rule="evenodd" clip-rule="evenodd" d="M650 541.129L663.496 516.344L703.984 520.746C703.984 520.746 691.154 548.977 683.824 612.6L650 541.129Z" fill="#463EC5"/><path fill-rule="evenodd" clip-rule="evenodd" d="M622.675 541.129L613.056 516.344L572.567 520.746C572.567 520.746 581.856 549.156 589.187 612.778L622.675 541.129Z" fill="#463EC5"/></svg>