<svg viewBox="0 0 1600 1200" fill="none" xmlns="http://www.w3.org/2000/svg"><path fill-rule="evenodd" clip-rule="evenodd" d="M1318.43 1000.52L1269.11 514.158L1283.44 513.81C1323.96 512.824 1357.16 527.544 1355 572.338L1358.74 1000.52H1318.43Z" fill="#A86554"/><path fill-rule="evenodd" clip-rule="evenodd" d="M1315.06 1005.82V1005.82C1315.06 992.132 1326.15 981.037 1339.83 981.037H1351.59C1365.27 981.037 1376.35 992.132 1376.35 1005.82V1005.82C1376.35 1013.65 1370.01 1020 1362.19 1020H1329.23C1321.41 1020 1315.06 1013.65 1315.06 1005.82Z" fill="#BAC09A"/><path fill-rule="evenodd" clip-rule="evenodd" d="M1267.36 1000.52L1266.18 511.729H1251.98C1211.82 511.729 1182.36 527.938 1185.58 573.146L1226.35 1000.52H1267.36Z" fill="#A86554"/><path fill-rule="evenodd" clip-rule="evenodd" d="M1214.78 1005.82V1005.82C1214.78 992.132 1225.87 981.037 1239.54 981.037H1251.31C1264.99 981.037 1276.07 992.132 1276.07 1005.82V1005.82C1276.07 1013.65 1269.73 1020 1261.91 1020H1228.95C1221.13 1020 1214.78 1013.65 1214.78 1005.82Z" fill="#BAC09A"/><path fill-rule="evenodd" clip-rule="evenodd" d="M1326.12 406.682L1364.53 578.993L1390.18 575.876L1368.96 399.713L1326.12 406.682Z" fill="#BF7461"/><path fill-rule="evenodd" clip-rule="evenodd" d="M1365.31 572.92L1359.97 600.163L1395 597.118L1389.36 570.564L1365.31 572.92Z" fill="#BF7461"/><path fill-rule="evenodd" clip-rule="evenodd" d="M1352.78 620.99C1355.25 622.559 1358.52 621.83 1360.08 619.364L1377.1 592.575L1368.18 586.896L1351.16 613.689C1349.59 616.154 1350.32 619.423 1352.78 620.99Z" fill="#BF7461"/><path fill-rule="evenodd" clip-rule="evenodd" d="M1357.32 642.04C1359.21 644.267 1362.55 644.538 1364.78 642.644L1382.55 627.517L1375.7 619.455L1357.92 634.584C1355.7 636.477 1355.43 639.815 1357.32 642.04Z" fill="#BF7461"/><path fill-rule="evenodd" clip-rule="evenodd" d="M1356.23 636.631C1358.44 638.551 1361.78 638.322 1363.69 636.118L1379.02 618.514L1371.05 611.562L1355.72 629.167C1353.81 631.37 1354.03 634.71 1356.23 636.631Z" fill="#BF7461"/><path fill-rule="evenodd" clip-rule="evenodd" d="M1395 597.117L1385.22 593.088L1372.71 623.493L1382.55 627.518L1395 597.117Z" fill="#BF7461"/><path fill-rule="evenodd" clip-rule="evenodd" d="M1390.41 595.027L1380.87 590.463L1366.7 620.131L1376.24 624.695L1390.41 595.027Z" fill="#BF7461"/><path fill-rule="evenodd" clip-rule="evenodd" d="M1367.4 607.912C1367.4 607.912 1369.64 603.57 1370.53 602.289C1372.38 599.632 1375.29 601.676 1374.21 604.18C1373.51 605.787 1370.91 610.947 1369.22 614.855C1376.19 608.2 1389.1 599.491 1389.1 599.491L1369.13 592.901L1367.4 607.912Z" fill="#BF7461"/><path fill-rule="evenodd" clip-rule="evenodd" d="M1205.3 479.88L1202.36 344.991H1335.25L1333.34 479.88H1205.3Z" fill="#472940"/><path fill-rule="evenodd" clip-rule="evenodd" d="M1171.62 379.55C1170.29 361.849 1183.55 346.417 1201.23 345.084C1218.91 343.75 1234.33 357.017 1235.66 374.719C1236.99 392.419 1215.4 419.704 1215.4 419.704C1215.4 419.704 1172.96 397.25 1171.62 379.55Z" fill="#472940"/><path fill-rule="evenodd" clip-rule="evenodd" d="M1318.87 278.815C1318.87 293.807 1306.72 305.961 1291.75 305.961C1276.77 305.961 1264.63 293.807 1264.63 278.815C1264.63 263.823 1276.77 251.669 1291.75 251.669C1306.72 251.669 1318.87 263.823 1318.87 278.815Z" fill="#C6C6C6"/><path fill-rule="evenodd" clip-rule="evenodd" d="M1270.24 280.582C1270.24 295.574 1258.1 307.728 1243.12 307.728C1228.14 307.728 1216 295.574 1216 280.582C1216 265.59 1228.14 253.436 1243.12 253.436C1258.1 253.436 1270.24 265.59 1270.24 280.582Z" fill="#C6C6C6"/><path fill-rule="evenodd" clip-rule="evenodd" d="M1257.82 251.669C1257.82 259.863 1251.18 266.505 1242.99 266.505C1234.81 266.505 1228.17 259.863 1228.17 251.669C1228.17 243.475 1234.81 236.833 1242.99 236.833C1251.18 236.833 1257.82 243.475 1257.82 251.669Z" fill="#C6C6C6"/><path fill-rule="evenodd" clip-rule="evenodd" d="M1310.19 304.863C1310.19 313.057 1303.55 319.699 1295.37 319.699C1287.18 319.699 1280.54 313.057 1280.54 304.863C1280.54 296.668 1287.18 290.026 1295.37 290.026C1303.55 290.026 1310.19 296.668 1310.19 304.863Z" fill="#C6C6C6"/><path fill-rule="evenodd" clip-rule="evenodd" d="M1257.82 304.863C1257.82 313.057 1251.18 319.699 1242.99 319.699C1234.81 319.699 1228.17 313.057 1228.17 304.863C1228.17 296.668 1234.81 290.026 1242.99 290.026C1251.18 290.026 1257.82 296.668 1257.82 304.863Z" fill="#C6C6C6"/><path fill-rule="evenodd" clip-rule="evenodd" d="M1309.84 299.221C1309.84 304.431 1305.62 308.655 1300.41 308.655C1295.21 308.655 1290.99 304.431 1290.99 299.221C1290.99 294.01 1295.21 289.786 1300.41 289.786C1305.62 289.786 1309.84 294.01 1309.84 299.221Z" fill="#BF7461"/><path fill-rule="evenodd" clip-rule="evenodd" d="M1245.88 299.193C1245.88 304.404 1241.66 308.628 1236.46 308.628C1231.25 308.628 1227.03 304.404 1227.03 299.193C1227.03 293.983 1231.25 289.759 1236.46 289.759C1241.66 289.759 1245.88 293.983 1245.88 299.193Z" fill="#BF7461"/><path fill-rule="evenodd" clip-rule="evenodd" d="M1245.17 343.352V313.112L1291.74 311.759V343.352C1291.74 356.225 1281.32 366.66 1268.46 366.66C1255.6 366.66 1245.17 356.225 1245.17 343.352Z" fill="#A86554"/><path fill-rule="evenodd" clip-rule="evenodd" d="M1237.59 312.196V267.305C1237.59 253.417 1248.84 242.158 1262.72 242.158H1274.19C1288.07 242.158 1299.32 253.417 1299.32 267.305V312.196C1299.32 326.084 1288.07 337.343 1274.19 337.343H1262.72C1248.84 337.343 1237.59 326.084 1237.59 312.196Z" fill="#BF7461"/><path fill-rule="evenodd" clip-rule="evenodd" d="M1260.6 307.438C1260.6 307.438 1260.6 307.438 1260.16 307.004C1259.72 306.57 1259.72 306.57 1259.72 306.569L1259.72 306.569L1259.72 306.568L1259.72 306.565L1259.73 306.557C1259.74 306.55 1259.75 306.541 1259.76 306.53C1259.78 306.508 1259.81 306.479 1259.85 306.442C1259.93 306.37 1260.05 306.273 1260.19 306.163C1260.48 305.946 1260.9 305.675 1261.4 305.475C1261.91 305.274 1262.52 305.137 1263.19 305.214C1263.87 305.293 1264.56 305.587 1265.21 306.185L1265.21 306.185C1266.56 307.414 1267.62 307.676 1268.43 307.582C1269.27 307.484 1269.98 306.99 1270.59 306.406L1270.59 306.406C1270.91 306.101 1271.64 305.489 1272.68 305.3C1273.77 305.104 1275.07 305.389 1276.43 306.675L1275.58 307.576C1274.46 306.522 1273.55 306.401 1272.9 306.518C1272.21 306.644 1271.69 307.064 1271.45 307.298M1260.6 307.438L1260.6 307.438L1260.6 307.439L1260.6 307.439L1260.6 307.438ZM1264.38 307.1C1265.91 308.495 1267.31 308.959 1268.57 308.811L1264.38 307.1ZM1268.57 308.811C1269.81 308.668 1270.76 307.954 1271.45 307.298L1268.57 308.811Z" fill="#191414"/><path fill-rule="evenodd" clip-rule="evenodd" d="M1265.62 317.618L1256.32 317.63C1256.38 317.275 1261.43 325.087 1269 325.102C1273.82 325.111 1276.2 322.289 1280.59 317.63H1271.37C1270.37 317.63 1269.45 318.227 1268.94 319.198L1268.56 319.92L1267.89 318.902C1267.36 318.094 1266.52 317.617 1265.62 317.618Z" fill="#472940"/><path fill-rule="evenodd" clip-rule="evenodd" d="M1237.53 300.417V287.601C1237.53 273.794 1248.58 262.601 1262.21 262.601H1266.33H1269.98H1274.09C1287.72 262.601 1298.77 273.794 1298.77 287.601V300.417H1303.62V271.984C1303.62 257.021 1291.5 242.109 1276.55 242.109H1259.75C1244.81 242.109 1232.69 257.021 1232.69 271.984V300.417H1237.53Z" fill="#C6C6C6"/><path fill-rule="evenodd" clip-rule="evenodd" d="M1255.94 270.567L1248.09 256.955L1250.8 255.389L1258.65 269L1255.94 270.567Z" fill="#BF7461"/><path fill-rule="evenodd" clip-rule="evenodd" d="M1261.52 296.668C1261.52 296.668 1259.26 291.837 1254.94 290.333C1250.62 288.829 1245.86 291.222 1245.86 291.222C1245.86 291.222 1247.65 294.862 1251.97 296.365C1256.3 297.87 1261.52 296.668 1261.52 296.668Z" fill="white"/><path fill-rule="evenodd" clip-rule="evenodd" d="M1257.06 292.994C1257.06 295.063 1255.38 296.741 1253.32 296.741C1251.25 296.741 1249.57 295.063 1249.57 292.994C1249.57 290.925 1251.25 289.247 1253.32 289.247C1255.38 289.247 1257.06 290.925 1257.06 292.994Z" fill="#010101"/><path fill-rule="evenodd" clip-rule="evenodd" d="M1261.52 296.666C1259.47 289.606 1251.11 286.405 1245.11 290.033C1245.48 290.622 1245.72 291.054 1246.09 291.641C1247.41 290.84 1254.3 288.055 1260.55 295.56C1260.93 296.015 1260.98 296.206 1261.52 296.666Z" fill="#010101"/><path fill-rule="evenodd" clip-rule="evenodd" d="M1243.43 285.869H1257.93C1260.84 285.869 1263.2 283.506 1263.2 280.592V280.38H1248.71C1245.79 280.38 1243.43 282.742 1243.43 285.657V285.869Z" fill="#C6C6C6"/><path fill-rule="evenodd" clip-rule="evenodd" d="M1276.09 296.668C1276.09 296.668 1278.34 291.837 1282.66 290.333C1286.99 288.829 1291.75 291.222 1291.75 291.222C1291.75 291.222 1289.95 294.862 1285.63 296.365C1281.3 297.87 1276.09 296.668 1276.09 296.668Z" fill="white"/><path fill-rule="evenodd" clip-rule="evenodd" d="M1280.54 292.994C1280.54 295.063 1282.22 296.741 1284.29 296.741C1286.35 296.741 1288.03 295.063 1288.03 292.994C1288.03 290.925 1286.35 289.247 1284.29 289.247C1282.22 289.247 1280.54 290.925 1280.54 292.994Z" fill="#010101"/><path fill-rule="evenodd" clip-rule="evenodd" d="M1276.09 296.666C1278.13 289.606 1286.49 286.405 1292.49 290.033C1292.12 290.622 1291.88 291.054 1291.52 291.641C1290.19 290.84 1283.3 288.055 1277.05 295.56C1276.67 296.015 1276.62 296.206 1276.09 296.666Z" fill="#010101"/><path fill-rule="evenodd" clip-rule="evenodd" d="M1294.17 285.869H1279.68C1276.77 285.869 1274.4 283.506 1274.4 280.592V280.38H1288.9C1291.81 280.38 1294.17 282.742 1294.17 285.657V285.869Z" fill="#C6C6C6"/><path fill-rule="evenodd" clip-rule="evenodd" d="M1306.29 251.114C1306.29 266.106 1294.15 278.26 1279.17 278.26C1264.19 278.26 1252.05 266.106 1252.05 251.114C1252.05 236.122 1264.19 223.968 1279.17 223.968C1294.15 223.968 1306.29 236.122 1306.29 251.114Z" fill="#C6C6C6"/><path fill-rule="evenodd" clip-rule="evenodd" d="M1279.09 278.181H1306.58V266.728H1279.09V278.181Z" fill="#C6C6C6"/><path fill-rule="evenodd" clip-rule="evenodd" d="M1392.34 575.193L1351.27 589.26L1349.67 584.569L1390.73 570.502L1392.34 575.193Z" fill="#C6C6C6"/><path fill-rule="evenodd" clip-rule="evenodd" d="M1366.2 379.55C1367.54 361.849 1354.28 346.417 1336.6 345.084C1318.92 343.75 1303.5 357.017 1302.17 374.719C1300.83 392.419 1322.43 419.704 1322.43 419.704C1322.43 419.704 1364.87 397.25 1366.2 379.55Z" fill="#472940"/><path fill-rule="evenodd" clip-rule="evenodd" d="M1332.83 471.163H1206.34C1206.34 471.163 1171.88 525.496 1179.53 641.194C1179.58 641.932 1190.43 796.027 1190.43 796.027H1361.82C1361.82 796.027 1361.54 674.018 1361.82 635.306C1362.67 519.363 1332.83 471.163 1332.83 471.163Z" fill="#472940"/><path fill-rule="evenodd" clip-rule="evenodd" d="M1298.13 272.124H1285.87C1271.97 272.124 1259.01 265.58 1251.35 254.703L1249.84 252.561H1298.13V272.124Z" fill="#C6C6C6"/><path fill-rule="evenodd" clip-rule="evenodd" d="M1239.96 368.456H1301.64V341.005H1239.96V368.456Z" fill="#472940"/><path fill-rule="evenodd" clip-rule="evenodd" d="M1208.84 474.318L1156.67 459.452L1170.64 371.859H1228.83L1208.84 474.318Z" fill="#472940"/><path fill-rule="evenodd" clip-rule="evenodd" d="M1330.16 473.671L1385.22 461.572L1365.45 369.793H1329.01L1330.16 473.671Z" fill="#472940"/><path fill-rule="evenodd" clip-rule="evenodd" d="M1164.42 356.735L1162.55 320.977C1162.42 318.517 1160.32 316.627 1157.87 316.756L1157.23 316.789C1154.77 316.918 1152.89 319.016 1153.01 321.476L1154.41 348.948L1164.42 356.735Z" fill="#BF7461"/><path fill-rule="evenodd" clip-rule="evenodd" d="M1199.83 462.001L1183.56 371.227L1156.17 376.122L1156.47 465.916C1156.5 479.081 1168.06 489.236 1181.11 487.557C1193.5 485.963 1202.04 474.311 1199.83 462.001Z" fill="#BF7461"/><path fill-rule="evenodd" clip-rule="evenodd" d="M1182.75 377.177L1190.75 349.748L1154.41 348.948L1156.17 376.122L1182.75 377.177Z" fill="#BF7461"/><path fill-rule="evenodd" clip-rule="evenodd" d="M1180.39 349.586L1180 308.208C1179.98 305.745 1177.96 303.768 1175.5 303.79L1174.87 303.797C1172.41 303.82 1170.43 305.835 1170.45 308.298L1170.84 349.676L1180.39 349.586Z" fill="#BF7461"/><path fill-rule="evenodd" clip-rule="evenodd" d="M1188.98 352.428L1188.61 312.669C1188.59 310.206 1186.57 308.228 1184.11 308.25L1183.48 308.257C1181.02 308.28 1179.04 310.295 1179.06 312.758L1179.44 352.519L1188.98 352.428Z" fill="#BF7461"/><path fill-rule="evenodd" clip-rule="evenodd" d="M1182.96 376.788L1202.65 343.858C1203.98 341.633 1203.25 338.748 1201.03 337.416L1200.46 337.073C1198.23 335.74 1195.35 336.465 1194.01 338.693L1174.33 371.62L1182.96 376.788Z" fill="#BF7461"/><path fill-rule="evenodd" clip-rule="evenodd" d="M1171.41 350.241L1171.08 314.436C1171.05 311.972 1169.04 309.995 1166.58 310.018L1165.94 310.024C1163.48 310.047 1161.51 312.063 1161.53 314.526L1161.87 350.332L1171.41 350.241Z" fill="#BF7461"/><path fill-rule="evenodd" clip-rule="evenodd" d="M881.51 523.576L864.345 578.99L838.837 574.696L848.352 517.777L881.51 523.576Z" fill="#9E3F39"/><path fill-rule="evenodd" clip-rule="evenodd" d="M863.844 572.88L867.938 600.372L833.043 595.718L839.903 569.42L863.844 572.88Z" fill="#9E3F39"/><path fill-rule="evenodd" clip-rule="evenodd" d="M872.91 613.795C870.375 615.251 867.14 614.372 865.685 611.834L849.893 584.259L859.076 578.989L874.87 606.567C876.323 609.105 875.445 612.341 872.91 613.795Z" fill="#9E3F39"/><path fill-rule="evenodd" clip-rule="evenodd" d="M872.893 621.362V621.364C872.95 624.288 870.626 626.705 867.704 626.763L844.35 627.217L844.145 616.623L867.498 616.169C870.42 616.112 872.836 618.437 872.893 621.362Z" fill="#9E3F39"/><path fill-rule="evenodd" clip-rule="evenodd" d="M870.123 616.582V616.583C869.745 619.484 867.087 621.529 864.189 621.15L841.028 618.123L842.398 607.617L865.56 610.643C868.459 611.023 870.501 613.681 870.123 616.582Z" fill="#9E3F39"/><path fill-rule="evenodd" clip-rule="evenodd" d="M833.042 595.718L843.004 592.137L854.122 623.121L844.35 627.216L833.042 595.718Z" fill="#9E3F39"/><path fill-rule="evenodd" clip-rule="evenodd" d="M837.729 593.839L847.478 589.712L860.289 620.035L850.54 624.162L837.729 593.839Z" fill="#9E3F39"/><path fill-rule="evenodd" clip-rule="evenodd" d="M860.151 607.782C860.151 607.782 858.109 603.337 857.276 602.015C855.547 599.272 852.546 601.183 853.516 603.737C854.139 605.377 856.497 610.656 858.01 614.643C851.345 607.667 838.838 598.365 838.838 598.365L859.114 592.69L860.151 607.782Z" fill="#9E3F39"/><path fill-rule="evenodd" clip-rule="evenodd" d="M877.733 740.164V646.214H839.406V740.164C839.406 742.971 841.68 745.247 844.485 745.247H872.654C875.459 745.247 877.733 742.971 877.733 740.164Z" fill="#FF6200"/><path fill-rule="evenodd" clip-rule="evenodd" d="M863.76 651.526V605.567C863.76 602.699 861.436 600.373 858.57 600.373C855.703 600.373 853.379 602.699 853.379 605.567V651.526H863.76Z" fill="#FF6200"/><path fill-rule="evenodd" clip-rule="evenodd" d="M948.234 352.203V316.479L993.736 316.564V352.203H948.234Z" fill="#7A2F37"/><path fill-rule="evenodd" clip-rule="evenodd" d="M939.901 360.023H1002.19V329.076H939.901V360.023Z" fill="#463EC5"/><path fill-rule="evenodd" clip-rule="evenodd" d="M1040.3 262.66C1040.3 300.89 1009.34 331.883 971.143 331.883C932.95 331.883 901.989 300.89 901.989 262.66C901.989 224.429 932.95 193.437 971.143 193.437C1009.34 193.437 1040.3 224.429 1040.3 262.66Z" fill="#420F0F"/><path fill-rule="evenodd" clip-rule="evenodd" d="M1011.42 299.129C1011.42 304.22 1007.29 308.347 1002.21 308.347C997.122 308.347 992.999 304.22 992.999 299.129C992.999 294.038 997.122 289.911 1002.21 289.911C1007.29 289.911 1011.42 294.038 1011.42 299.129Z" fill="#9E3F39"/><path fill-rule="evenodd" clip-rule="evenodd" d="M948.929 299.103C948.929 304.194 944.805 308.321 939.719 308.321C934.634 308.321 930.51 304.194 930.51 299.103C930.51 294.012 934.634 289.885 939.719 289.885C944.805 289.885 948.929 294.012 948.929 299.103Z" fill="#9E3F39"/><path fill-rule="evenodd" clip-rule="evenodd" d="M940.828 303.296H940.829C945.404 303.296 949.114 307.009 949.114 311.59V319.792C949.114 324.373 945.404 328.085 940.829 328.085H940.828C936.253 328.085 932.543 324.373 932.543 319.792V311.59C932.543 307.009 936.253 303.296 940.828 303.296Z" fill="#D8CBC5"/><path fill-rule="evenodd" clip-rule="evenodd" d="M1001.47 303.388C1006.04 303.388 1009.75 307.101 1009.75 311.682V319.884C1009.75 324.465 1006.04 328.177 1001.47 328.177C996.893 328.177 993.182 324.465 993.182 319.884V311.682C993.182 307.101 996.892 303.388 1001.47 303.388Z" fill="#D8CBC5"/><path fill-rule="evenodd" clip-rule="evenodd" d="M940.829 313.093V270.573C940.829 257.137 951.713 246.245 965.14 246.245H976.831C990.258 246.245 1001.14 257.137 1001.14 270.573V313.093C1001.14 326.529 990.258 337.42 976.831 337.42H965.14C951.713 337.42 940.829 326.529 940.829 313.093Z" fill="#9E3F39"/><path fill-rule="evenodd" clip-rule="evenodd" d="M963.578 308.222C963.578 308.222 963.578 308.222 963.096 307.857C962.614 307.493 962.615 307.492 962.615 307.492L962.615 307.492L962.616 307.49L962.618 307.487L962.626 307.478C962.631 307.471 962.639 307.461 962.648 307.449C962.667 307.426 962.694 307.393 962.728 307.354C962.796 307.275 962.894 307.167 963.018 307.047C963.264 306.807 963.627 306.502 964.08 306.266C964.534 306.029 965.101 305.851 965.738 305.902C966.384 305.955 967.042 306.238 967.676 306.825L967.677 306.825C968.374 307.471 969.173 307.945 970.042 308.121M963.578 308.223L963.578 308.222L963.577 308.223C963.577 308.223 963.577 308.223 963.577 308.223L963.578 308.223ZM966.856 307.713C967.668 308.464 968.66 309.075 969.803 309.306L969.803 309.306C970.691 309.485 971.774 309.497 972.813 308.961L972.815 308.96C973.249 308.735 973.618 308.425 973.93 308.089L973.934 308.086C974.154 307.845 974.623 307.425 975.256 307.291C975.842 307.168 976.699 307.264 977.793 308.297L978.622 307.418C977.295 306.164 976.048 305.889 975.008 306.108C974.017 306.317 973.337 306.948 973.045 307.267C972.801 307.529 972.541 307.74 972.259 307.887C971.543 308.255 970.763 308.267 970.043 308.121" fill="#171111"/><path fill-rule="evenodd" clip-rule="evenodd" d="M971.044 318.329C971.044 315.749 967.094 316.093 967.094 316.093H958.163C958.249 315.59 970.777 335.28 983.925 316.093H974.994C974.994 316.093 971.044 315.749 971.044 318.329Z" fill="#420F0F"/><path fill-rule="evenodd" clip-rule="evenodd" d="M977.804 296.58C977.804 296.58 980.005 291.861 984.23 290.392C988.455 288.922 993.105 291.26 993.105 291.26C993.105 291.26 991.415 295.108 987.189 296.578C982.964 298.047 977.804 296.58 977.804 296.58Z" fill="white"/><path fill-rule="evenodd" clip-rule="evenodd" d="M981.797 293.161C981.797 295.183 983.435 296.822 985.454 296.822C987.474 296.822 989.111 295.183 989.111 293.161C989.111 291.139 987.474 289.501 985.454 289.501C983.435 289.501 981.797 291.139 981.797 293.161Z" fill="black"/><path fill-rule="evenodd" clip-rule="evenodd" d="M977.804 296.578C978.893 289.032 988.424 285.808 994.283 289.353C993.924 289.928 993.238 291.094 992.879 291.669C991.583 290.885 984.856 288.165 978.744 295.497C978.373 295.942 978.326 296.129 977.804 296.578Z" fill="black"/><path fill-rule="evenodd" clip-rule="evenodd" d="M963.103 296.508C963.103 296.508 960.903 291.788 956.677 290.319C952.452 288.849 947.802 291.187 947.802 291.187C947.802 291.187 949.492 295.036 953.718 296.506C957.943 297.975 963.103 296.508 963.103 296.508Z" fill="white"/><path fill-rule="evenodd" clip-rule="evenodd" d="M959.11 293.161C959.11 295.183 957.472 296.822 955.453 296.822C953.433 296.822 951.796 295.183 951.796 293.161C951.796 291.139 953.433 289.501 955.453 289.501C957.472 289.501 959.11 291.139 959.11 293.161Z" fill="black"/><path fill-rule="evenodd" clip-rule="evenodd" d="M963.104 296.506C962.014 288.959 952.483 285.736 946.624 289.281C946.983 289.856 947.669 291.022 948.029 291.597C949.324 290.813 956.052 288.092 962.164 295.425C962.535 295.87 962.581 296.057 963.104 296.506Z" fill="black"/><path fill-rule="evenodd" clip-rule="evenodd" d="M946.054 283.314H966.118V279.583H946.054V283.314Z" fill="#420F0F"/><path fill-rule="evenodd" clip-rule="evenodd" d="M975.972 283.314H996.036V279.583H975.972V283.314Z" fill="#420F0F"/><path fill-rule="evenodd" clip-rule="evenodd" d="M941.212 282.687C941.821 269.799 952.33 259.539 965.205 259.539H969.208V252.016H972.761V259.539H976.765C989.64 259.539 1000.15 269.799 1000.76 282.687H1005.5V268.671C1005.5 254.109 993.706 242.305 979.158 242.305H962.812C948.264 242.305 936.471 254.109 936.471 268.671V282.687H941.212Z" fill="#420F0F"/><path fill-rule="evenodd" clip-rule="evenodd" d="M939.673 300.83H941.185V282.044H939.673V300.83Z" fill="#420F0F"/><path fill-rule="evenodd" clip-rule="evenodd" d="M1002.21 302.186L1000.7 302.18V281.555L1002.21 282.84V302.186Z" fill="#420F0F"/><path fill-rule="evenodd" clip-rule="evenodd" d="M828.812 542.851L875.223 373.439L955.185 402.992L885.295 583.865L828.812 542.851Z" fill="#463EC5"/><path fill-rule="evenodd" clip-rule="evenodd" d="M1058.33 527.519L1075.27 582.21L1100.45 577.971L1091.05 521.796L1058.33 527.519Z" fill="#9E3F39"/><path fill-rule="evenodd" clip-rule="evenodd" d="M1075.77 576.181L1071.72 603.314L1106.17 598.721L1099.39 572.766L1075.77 576.181Z" fill="#9E3F39"/><path fill-rule="evenodd" clip-rule="evenodd" d="M1065.57 624.198C1068.08 625.635 1071.27 624.768 1072.7 622.263L1088.29 595.047L1079.23 589.847L1063.64 617.065C1062.21 619.569 1063.07 622.763 1065.57 624.198Z" fill="#9E3F39"/><path fill-rule="evenodd" clip-rule="evenodd" d="M1071 644.773C1072.97 646.885 1076.28 647 1078.39 645.03L1095.25 629.294L1088.12 621.646L1071.26 637.385C1069.15 639.354 1069.04 642.661 1071 644.773Z" fill="#9E3F39"/><path fill-rule="evenodd" clip-rule="evenodd" d="M1069.69 639.481C1071.95 641.277 1075.23 640.899 1077.03 638.638L1091.36 620.566L1083.18 614.063L1068.84 632.137C1067.05 634.398 1067.43 637.685 1069.69 639.481Z" fill="#9E3F39"/><path fill-rule="evenodd" clip-rule="evenodd" d="M1106.17 598.721L1096.39 595.178L1085.42 625.759L1095.25 629.293L1106.17 598.721Z" fill="#9E3F39"/><path fill-rule="evenodd" clip-rule="evenodd" d="M1101.54 596.866L1091.92 592.793L1079.27 622.72L1088.9 626.793L1101.54 596.866Z" fill="#9E3F39"/><path fill-rule="evenodd" clip-rule="evenodd" d="M1079.41 610.628C1079.41 610.628 1081.42 606.241 1082.25 604.936C1083.95 602.229 1086.92 604.114 1085.96 606.636C1085.34 608.253 1083.02 613.464 1081.52 617.399C1088.1 610.514 1100.44 601.333 1100.44 601.333L1080.43 595.732L1079.41 610.628Z" fill="#9E3F39"/><path fill-rule="evenodd" clip-rule="evenodd" d="M1112.83 538.069L1066.71 372.909L986.458 398.21L1056.35 579.082L1112.83 538.069Z" fill="#463EC5"/><path fill-rule="evenodd" clip-rule="evenodd" d="M907.161 480.014L906.8 346.725H1035.57L1033.68 480.014H907.161Z" fill="#463EC5"/><path fill-rule="evenodd" clip-rule="evenodd" d="M962.897 1009.21H927.139L916.81 916.002H962.422L962.897 1009.21Z" fill="#9E3F39"/><path fill-rule="evenodd" clip-rule="evenodd" d="M965.189 1009.21C965.189 993.201 952.222 980.221 936.226 980.221C920.231 980.221 907.265 993.201 907.265 1009.21" fill="#FF6200"/><path fill-rule="evenodd" clip-rule="evenodd" d="M907.266 1020H965.189V1009.21H907.266V1020Z" fill="#463EC5"/><path fill-rule="evenodd" clip-rule="evenodd" d="M965.189 956.456L967.125 524.327H953.241C913.967 524.327 887.032 541.133 885.295 583.864L864.261 891.377C861.927 925.514 888.531 954.694 922.704 955.48L965.189 956.456Z" fill="#D8CBC5"/><path fill-rule="evenodd" clip-rule="evenodd" d="M980.897 1009.21H1016.66L1026.95 916.283L1026.98 916.002H981.372L980.897 1009.21Z" fill="#9E3F39"/><path fill-rule="evenodd" clip-rule="evenodd" d="M978.605 1009.21C978.605 993.201 991.572 980.221 1007.57 980.221C1023.56 980.221 1036.53 993.201 1036.53 1009.21" fill="#FF6200"/><path fill-rule="evenodd" clip-rule="evenodd" d="M978.606 1020H1036.53V1009.21H978.606V1020Z" fill="#463EC5"/><path fill-rule="evenodd" clip-rule="evenodd" d="M978.605 956.456L976.669 524.327H990.554C1029.83 524.327 1054.78 535.949 1057.62 583.167L1079.53 891.377C1081.87 925.514 1055.26 954.694 1021.09 955.48L978.605 956.456Z" fill="#D8CBC5"/><path fill-rule="evenodd" clip-rule="evenodd" d="M885.295 583.864C891.405 513.987 911.526 479.835 911.526 479.835H1028.75C1028.75 479.835 1053.25 506.981 1056.81 584.222C1057.6 601.394 971.924 580.063 971.924 580.063C971.924 580.063 883.78 601.184 885.295 583.864Z" fill="#D8CBC5"/><path fill-rule="evenodd" clip-rule="evenodd" d="M874.915 380.873C873.597 363.382 886.694 348.134 904.168 346.816C921.642 345.498 936.875 358.608 938.192 376.099C939.509 393.59 918.174 420.552 918.174 420.552C918.174 420.552 876.232 398.365 874.915 380.873Z" fill="#463EC5"/><path fill-rule="evenodd" clip-rule="evenodd" d="M1067.19 380.873C1068.51 363.382 1055.41 348.134 1037.93 346.816C1020.46 345.498 1005.23 358.608 1003.91 376.099C1002.59 393.59 1023.93 420.552 1023.93 420.552C1023.93 420.552 1065.87 398.365 1067.19 380.873Z" fill="#463EC5"/><path fill-rule="evenodd" clip-rule="evenodd" d="M717.774 409.028L759.312 591.278L784.924 588.041L759.395 372.909L717.774 409.028Z" fill="#F5836D"/><path fill-rule="evenodd" clip-rule="evenodd" d="M760.062 585.206L754.853 612.456L789.844 609.245L784.079 582.737L760.062 585.206Z" fill="#F5836D"/><path fill-rule="evenodd" clip-rule="evenodd" d="M747.771 633.302C750.241 634.857 753.504 634.114 755.057 631.643L771.935 604.79L762.993 599.158L746.113 626.013C744.56 628.484 745.303 631.747 747.771 633.302Z" fill="#F5836D"/><path fill-rule="evenodd" clip-rule="evenodd" d="M752.405 654.316C754.306 656.533 757.642 656.786 759.856 654.884L777.545 639.684L770.663 631.659L752.972 646.862C750.759 648.764 750.505 652.101 752.405 654.316Z" fill="#F5836D"/><path fill-rule="evenodd" clip-rule="evenodd" d="M751.293 648.915C753.502 650.824 756.839 650.578 758.746 648.368L773.98 630.703L765.983 623.793L750.747 641.46C748.84 643.669 749.085 647.007 751.293 648.915Z" fill="#F5836D"/><path fill-rule="evenodd" clip-rule="evenodd" d="M789.843 609.244L780.055 605.264L767.7 635.707L777.544 639.683L789.843 609.244Z" fill="#F5836D"/><path fill-rule="evenodd" clip-rule="evenodd" d="M785.246 607.178L775.692 602.663L761.677 632.377L771.229 636.893L785.246 607.178Z" fill="#F5836D"/><path fill-rule="evenodd" clip-rule="evenodd" d="M762.315 620.164C762.315 620.164 764.533 615.814 765.419 614.53C767.255 611.866 770.169 613.894 769.097 616.403C768.41 618.011 765.841 623.18 764.169 627.093C771.101 620.41 783.955 611.647 783.955 611.647L763.967 605.156L762.315 620.164Z" fill="#F5836D"/><path fill-rule="evenodd" clip-rule="evenodd" d="M559.112 380.876C557.78 363.187 571.026 347.767 588.697 346.434C606.368 345.1 621.772 358.36 623.104 376.048C624.436 393.736 602.861 421.003 602.861 421.003C602.861 421.003 560.444 398.565 559.112 380.876Z" fill="#FFA28F"/><path fill-rule="evenodd" clip-rule="evenodd" d="M768.013 445.526H726.093L712.125 376.678L759.58 373.954L768.013 445.526Z" fill="#FFA28F"/><path fill-rule="evenodd" clip-rule="evenodd" d="M597.493 413.595L581.952 460.352C579.052 469.074 570.652 474.749 561.488 474.179C549.1 473.41 540.315 461.765 542.965 449.628L559.559 373.614L597.493 413.595Z" fill="#F5836D"/><path fill-rule="evenodd" clip-rule="evenodd" d="M543.667 446.413H586.65L605.28 373.419L559.559 373.614L543.667 446.413Z" fill="#FFA28F"/><path fill-rule="evenodd" clip-rule="evenodd" d="M759.488 379.304C760.82 361.615 747.574 346.195 729.904 344.862C712.232 343.528 696.828 356.787 695.496 374.476C694.163 392.164 715.74 419.431 715.74 419.431C715.74 419.431 758.156 396.993 759.488 379.304Z" fill="#FFA28F"/><path fill-rule="evenodd" clip-rule="evenodd" d="M722.11 344.554L588.938 346.504L591.293 497.451L723.937 496.636L722.11 344.554Z" fill="#FFA28F"/><path fill-rule="evenodd" clip-rule="evenodd" d="M663.583 1011.66L666.93 984.375L698.172 984.921L710.268 1009.98C710.483 1015.96 705.462 1019.79 700.015 1019.99H672.951C667.504 1020.19 663.799 1017.64 663.583 1011.66Z" fill="#F5836D"/><path fill-rule="evenodd" clip-rule="evenodd" d="M651.352 986.678L652.896 593.265L657.739 584.522L657.468 497.795C657.468 497.795 591.761 496.782 591.294 497.452C558.957 543.842 562.901 600.372 566.536 631.323C569.693 658.211 614.066 987.299 614.066 987.299L651.352 986.678Z" fill="#FFA28F"/><path fill-rule="evenodd" clip-rule="evenodd" d="M651.352 986.678L651.96 831.739L593.092 832.958L614.066 987.299L651.352 986.678Z" fill="#F5836D"/><path fill-rule="evenodd" clip-rule="evenodd" d="M666.699 986.253L660.42 592.761L655.577 584.019L655.847 497.291C655.847 497.291 720.194 494.524 720.639 495.208C756.406 550.045 748.762 591.278 746.781 630.82C745.426 657.858 699.251 986.796 699.251 986.796L666.699 986.253Z" fill="#FFA28F"/><path fill-rule="evenodd" clip-rule="evenodd" d="M666.699 986.252L664.247 832.516L720.555 833.204L699.204 987.422L666.699 986.252Z" fill="#F5836D"/><path fill-rule="evenodd" clip-rule="evenodd" d="M660.488 597.01L745.925 550.108C745.925 550.108 737.934 522.517 723.937 496.637C723.849 496.474 591.4 497.301 591.294 497.452C574.473 521.488 568.081 548.656 568.081 548.656L652.881 597.01H660.488Z" fill="#232144"/><path fill-rule="evenodd" clip-rule="evenodd" d="M589.079 346.505L593.975 346.417L594.946 400.332L590.049 400.42L589.079 346.505Z" fill="#232144"/><path fill-rule="evenodd" clip-rule="evenodd" d="M666.928 309.447C666.928 322.995 677.901 333.978 691.435 333.978C704.97 333.978 715.943 322.995 715.943 309.447C715.943 295.898 704.97 284.915 691.435 284.915C677.901 284.915 666.928 295.898 666.928 309.447Z" fill="#8B181D"/><path fill-rule="evenodd" clip-rule="evenodd" d="M673.619 341.241C673.619 351.09 681.596 359.075 691.435 359.075C701.275 359.075 709.252 351.09 709.252 341.241C709.252 331.391 701.275 323.406 691.435 323.406C681.596 323.406 673.619 331.391 673.619 341.241Z" fill="#8B181D"/><path fill-rule="evenodd" clip-rule="evenodd" d="M681.225 378.005C681.225 391.553 691.435 402.537 691.435 402.537C691.435 402.537 701.646 391.553 701.646 378.005C701.646 364.457 691.435 353.474 691.435 353.474C691.435 353.474 681.225 364.457 681.225 378.005Z" fill="#8B181D"/><path fill-rule="evenodd" clip-rule="evenodd" d="M595.914 309.447C595.914 322.995 606.886 333.978 620.421 333.978C633.955 333.978 644.928 322.995 644.928 309.447C644.928 295.898 633.955 284.915 620.421 284.915C606.886 284.915 595.914 295.898 595.914 309.447Z" fill="#8B181D"/><path fill-rule="evenodd" clip-rule="evenodd" d="M605.348 339.68C605.348 349.529 613.324 357.515 623.163 357.515C633.004 357.515 640.98 349.529 640.98 339.68C640.98 329.831 633.004 321.846 623.163 321.846C613.324 321.846 605.348 329.831 605.348 339.68Z" fill="#8B181D"/><path fill-rule="evenodd" clip-rule="evenodd" d="M610.21 378.005C610.21 391.553 620.42 402.537 620.42 402.537C620.42 402.537 630.631 391.553 630.631 378.005C630.631 364.457 620.42 353.474 620.42 353.474C620.42 353.474 610.21 364.457 610.21 378.005Z" fill="#8B181D"/><path fill-rule="evenodd" clip-rule="evenodd" d="M717.651 344.642L722.548 344.554L723.519 398.529L718.623 398.617L717.651 344.642Z" fill="#232144"/><path fill-rule="evenodd" clip-rule="evenodd" d="M651.352 986.677C651.352 986.677 614.663 965.013 615.055 975.896C615.564 990.021 608.317 1002.98 592.238 1006C584.133 1007.53 579.415 1007.11 578.232 1012.97C577.479 1016.69 580.402 1020.15 584.196 1019.99L647.047 1020C652.494 1019.8 653.816 1016.43 653.601 1010.45L651.352 986.677Z" fill="#F5836D"/><path fill-rule="evenodd" clip-rule="evenodd" d="M698.159 298.603C698.159 303.81 693.943 308.031 688.741 308.031C683.538 308.031 679.321 303.81 679.321 298.603C679.321 293.396 683.538 289.175 688.741 289.175C693.943 289.175 698.159 293.396 698.159 298.603Z" fill="#FFA28F"/><path fill-rule="evenodd" clip-rule="evenodd" d="M634.247 298.576C634.247 303.783 630.03 308.004 624.829 308.004C619.626 308.004 615.409 303.783 615.409 298.576C615.409 293.368 619.626 289.147 624.829 289.147C630.03 289.147 634.247 293.368 634.247 298.576Z" fill="#FFA28F"/><path fill-rule="evenodd" clip-rule="evenodd" d="M633.538 345.314V315.095L680.075 313.742V345.314C680.075 358.178 669.657 368.606 656.806 368.606C643.955 368.606 633.538 358.178 633.538 345.314Z" fill="#FFA28F"/><path fill-rule="evenodd" clip-rule="evenodd" d="M625.963 310.721V267.234C625.963 253.491 637.096 242.351 650.828 242.351H662.785C676.517 242.351 687.65 253.491 687.65 267.234V310.721C687.65 324.464 676.517 335.603 662.785 335.603H650.828C637.096 335.603 625.963 324.464 625.963 310.721Z" fill="#FFA28F"/><path fill-rule="evenodd" clip-rule="evenodd" d="M649.231 308.608C649.231 308.608 649.231 308.608 648.738 308.235C648.245 307.862 648.245 307.861 648.245 307.861L648.246 307.861L648.246 307.859L648.249 307.856L648.256 307.847C648.262 307.839 648.27 307.829 648.28 307.817C648.299 307.793 648.326 307.76 648.361 307.719C648.431 307.639 648.531 307.529 648.658 307.405C648.909 307.161 649.28 306.848 649.744 306.607C650.208 306.365 650.788 306.182 651.44 306.235C652.101 306.288 652.774 306.579 653.423 307.178L653.424 307.179C654.136 307.838 654.953 308.324 655.843 308.505M649.23 308.608L649.231 308.608L649.23 308.609C649.23 308.609 649.23 308.609 649.23 308.609L649.23 308.608ZM652.584 308.087C653.413 308.855 654.428 309.48 655.597 309.717L655.598 309.717C656.505 309.901 657.614 309.911 658.676 309.364L658.678 309.363C659.123 309.132 659.499 308.816 659.818 308.474L659.818 308.474L659.823 308.469C660.048 308.223 660.527 307.793 661.175 307.656C661.774 307.53 662.65 307.628 663.769 308.684L664.618 307.785C663.26 306.502 661.985 306.222 660.92 306.446C659.907 306.659 659.213 307.304 658.913 307.631C658.664 307.898 658.397 308.115 658.11 308.264C657.377 308.641 656.579 308.654 655.843 308.505" fill="#171111"/><path fill-rule="evenodd" clip-rule="evenodd" d="M656.867 318.944C656.867 316.307 652.826 316.658 652.826 316.658H643.691C643.781 316.144 656.593 336.282 670.042 316.658H660.907C660.907 316.658 656.867 316.307 656.867 318.944Z" fill="#8B181D"/><path fill-rule="evenodd" clip-rule="evenodd" d="M628.728 282.306L640.851 274.456C644.535 272.472 649.428 273.777 650.275 277.111C650.305 277.228 650.33 277.346 650.349 277.466L650.551 278.678L628.728 282.306Z" fill="#8B181D"/><path fill-rule="evenodd" clip-rule="evenodd" d="M685.006 282.306L672.883 274.456C669.199 272.472 664.306 273.777 663.458 277.111C663.429 277.228 663.404 277.346 663.385 277.466L663.183 278.678L685.006 282.306Z" fill="#8B181D"/><path fill-rule="evenodd" clip-rule="evenodd" d="M666.29 296.207C666.29 296.207 668.765 290.991 673.457 289.398C678.15 287.804 683.284 290.439 683.284 290.439C683.284 290.439 680.633 295.231 675.94 296.825C671.248 298.418 666.29 296.207 666.29 296.207Z" fill="white"/><path fill-rule="evenodd" clip-rule="evenodd" d="M678.434 294.412C679.133 292.396 678.068 290.194 676.054 289.494C674.04 288.793 671.84 289.859 671.141 291.875C670.441 293.892 671.507 296.094 673.52 296.795C675.534 297.494 677.735 296.428 678.434 294.412Z" fill="black"/><path fill-rule="evenodd" clip-rule="evenodd" d="M667.253 296.861L665.328 295.552C672.301 285.279 680.54 287.629 683.758 289.116L682.784 291.229C679.453 289.692 673.008 288.377 667.253 296.861Z" fill="black"/><path fill-rule="evenodd" clip-rule="evenodd" d="M648.223 295.989C648.223 295.989 645.748 290.772 641.055 289.179C636.363 287.585 631.229 290.22 631.229 290.22C631.229 290.22 633.744 295.103 638.436 296.697C643.13 298.289 648.223 295.989 648.223 295.989Z" fill="white"/><path fill-rule="evenodd" clip-rule="evenodd" d="M636.323 294.215C635.624 292.199 636.689 289.997 638.703 289.296C640.717 288.596 642.917 289.662 643.616 291.678C644.316 293.695 643.25 295.897 641.237 296.597C639.223 297.297 637.022 296.23 636.323 294.215Z" fill="black"/><path fill-rule="evenodd" clip-rule="evenodd" d="M647.26 296.644C641.505 288.163 635.061 289.475 631.729 291.012L630.755 288.899C633.973 287.412 642.214 285.063 649.185 295.335L647.26 296.644Z" fill="black"/><path fill-rule="evenodd" clip-rule="evenodd" d="M626.012 302.745V284.7C626.012 270.956 637.125 259.814 650.833 259.814H654.97V252.12H658.643V259.814H662.779C676.487 259.814 687.6 270.956 687.6 284.7V302.745H692.469V269.155C692.469 254.26 680.282 242.188 665.251 242.188H648.362C633.33 242.188 621.144 254.26 621.144 269.155V302.745H626.012Z" fill="#8B181D"/><path fill-rule="evenodd" clip-rule="evenodd" d="M687.65 309.532H692.469V300.072H687.65V309.532Z" fill="#8B181D"/><path fill-rule="evenodd" clip-rule="evenodd" d="M621.144 309.043H625.962V298.204H621.144V309.043Z" fill="#8B181D"/><path fill-rule="evenodd" clip-rule="evenodd" d="M723.519 456.552H590.641L589.768 393.859L656.644 425.206L723.519 393.859V456.552Z" fill="#232144"/><path fill-rule="evenodd" clip-rule="evenodd" d="M648.417 253.933H631.023C627.892 253.933 625.354 251.393 625.354 248.26V242.333C625.354 239.2 627.892 236.66 631.023 236.66H648.417C651.548 236.66 654.086 239.2 654.086 242.333V248.26C654.086 251.393 651.548 253.933 648.417 253.933Z" fill="#E73446"/><path fill-rule="evenodd" clip-rule="evenodd" d="M683.1 254.44H665.706C662.575 254.44 660.037 251.9 660.037 248.767V242.84C660.037 239.707 662.575 237.167 665.706 237.167H683.1C686.231 237.167 688.769 239.707 688.769 242.84V248.767C688.769 251.9 686.231 254.44 683.1 254.44Z" fill="#E73446"/><path fill-rule="evenodd" clip-rule="evenodd" d="M646.943 252.47H632.497C629.896 252.47 627.788 250.36 627.788 247.757V242.836C627.788 240.233 629.896 238.124 632.497 238.124H646.943C649.543 238.124 651.652 240.233 651.652 242.836V247.757C651.652 250.36 649.543 252.47 646.943 252.47Z" fill="#232144"/><path fill-rule="evenodd" clip-rule="evenodd" d="M681.627 252.976H667.181C664.58 252.976 662.472 250.867 662.472 248.264V243.342C662.472 240.74 664.58 238.631 667.181 238.631H681.627C684.227 238.631 686.336 240.74 686.336 243.342V248.264C686.336 250.867 684.227 252.976 681.627 252.976Z" fill="#232144"/><path fill-rule="evenodd" clip-rule="evenodd" d="M653.339 246.583H661.174V243.205H653.339V246.583Z" fill="#E73446"/><path fill-rule="evenodd" clip-rule="evenodd" d="M645.094 378.256L669.083 353.273C670.734 351.554 673.465 351.499 675.182 353.152L675.625 353.577C677.342 355.229 677.396 357.961 675.746 359.68L651.756 384.665L645.094 378.256Z" fill="#F5836D"/><path fill-rule="evenodd" clip-rule="evenodd" d="M550.681 435.179L620.014 379.057L640.51 395.804L579.937 465.53C571.584 475.145 556.7 475.249 548.214 465.751C540.154 456.729 541.278 442.79 550.681 435.179Z" fill="#F5836D"/><path fill-rule="evenodd" clip-rule="evenodd" d="M618.748 381.596L630.242 356.447L658.21 377.734L638.869 397.675L618.748 381.596Z" fill="#F5836D"/><path fill-rule="evenodd" clip-rule="evenodd" d="M637.929 362.9L664.391 332.866C665.967 331.078 668.693 330.906 670.479 332.484L670.94 332.89C672.726 334.467 672.896 337.193 671.321 338.981L644.859 369.017L637.929 362.9Z" fill="#F5836D"/><path fill-rule="evenodd" clip-rule="evenodd" d="M629.841 359.532L655.267 330.673C656.843 328.883 659.569 328.712 661.356 330.29L661.817 330.696C663.602 332.272 663.774 334.999 662.199 336.787L636.77 365.649L629.841 359.532Z" fill="#F5836D"/><path fill-rule="evenodd" clip-rule="evenodd" d="M618.834 381.175L625.263 344.601C625.697 342.128 628.055 340.476 630.526 340.91L631.162 341.022C633.632 341.458 635.283 343.815 634.849 346.288L628.42 382.863L618.834 381.175Z" fill="#F5836D"/><path fill-rule="evenodd" clip-rule="evenodd" d="M644.084 369.069L666.982 343.08C668.557 341.291 671.284 341.121 673.07 342.698L673.53 343.104C675.317 344.68 675.487 347.407 673.912 349.195L651.013 375.186L644.084 369.069Z" fill="#F5836D"/><path fill-rule="evenodd" clip-rule="evenodd" d="M504.22 231.451L513.504 197.312C514.193 194.774 516.809 193.276 519.345 193.967C521.88 194.659 523.376 197.275 522.686 199.812L513.403 233.954L504.22 231.451Z" fill="#A86554"/><path fill-rule="evenodd" clip-rule="evenodd" d="M492.82 334.723L455.635 325.222L484.406 243.137L510.852 246.63L492.82 334.723Z" fill="#A86554"/><path fill-rule="evenodd" clip-rule="evenodd" d="M483.478 248.176L479.95 219.907L515.618 223.372C515.807 223.39 515.937 223.57 515.897 223.755L509.808 251.364L483.478 248.176Z" fill="#A86554"/><path fill-rule="evenodd" clip-rule="evenodd" d="M482.481 253.09L491.591 212.857C492.134 210.462 494.514 208.961 496.907 209.503L497.522 209.644C499.915 210.187 501.415 212.567 500.873 214.962L491.763 255.196L482.481 253.09Z" fill="#A86554"/><path fill-rule="evenodd" clip-rule="evenodd" d="M481.194 222.062L489.878 183.71C490.459 181.145 493.009 179.537 495.571 180.119C498.134 180.7 499.741 183.25 499.161 185.815L490.476 224.168L481.194 222.062Z" fill="#A86554"/><path fill-rule="evenodd" clip-rule="evenodd" d="M488.101 259.765L473.953 224.228C472.997 221.825 474.167 219.101 476.568 218.143L477.186 217.896C479.588 216.939 482.311 218.111 483.268 220.514L497.414 256.05L488.101 259.765Z" fill="#A86554"/><path fill-rule="evenodd" clip-rule="evenodd" d="M491.558 252.035L499.441 217.221C499.983 214.825 502.363 213.324 504.757 213.867L505.372 214.006C507.765 214.55 509.265 216.93 508.723 219.326L500.839 254.141L491.558 252.035Z" fill="#A86554"/><path fill-rule="evenodd" clip-rule="evenodd" d="M507.868 258.966L479.159 258.738L446.16 351.857L355.631 382.389L404.536 425.629L471.574 388.296C479.091 384.109 484.393 376.83 486.075 368.386L507.868 258.966Z" fill="#A86554"/><path fill-rule="evenodd" clip-rule="evenodd" d="M239.617 580.416L240.602 609.065L206.056 605.418L213.045 575.912L239.617 580.416Z" fill="#A86554"/><path fill-rule="evenodd" clip-rule="evenodd" d="M212.591 579.104L228.391 469.465L272.082 477.056L238.819 582.956L212.591 579.104Z" fill="#A86554"/><path fill-rule="evenodd" clip-rule="evenodd" d="M247.321 629.769C244.859 631.273 241.644 630.495 240.142 628.03L223.819 601.258L232.735 595.812L249.059 622.587C250.561 625.05 249.783 628.266 247.321 629.769Z" fill="#A86554"/><path fill-rule="evenodd" clip-rule="evenodd" d="M242.458 650.48C240.549 652.645 237.248 652.851 235.084 650.94L217.803 635.675L224.715 627.836L241.998 643.104C244.16 645.013 244.366 648.315 242.458 650.48Z" fill="#A86554"/><path fill-rule="evenodd" clip-rule="evenodd" d="M243.629 645.155C241.42 647.011 238.124 646.725 236.27 644.513L221.448 626.845L229.447 620.122L244.27 637.792C246.125 640.002 245.838 643.299 243.629 645.155Z" fill="#A86554"/><path fill-rule="evenodd" clip-rule="evenodd" d="M206 605.412L215.729 601.609L227.533 631.872L217.804 635.674L206 605.412Z" fill="#A86554"/><path fill-rule="evenodd" clip-rule="evenodd" d="M210.628 603.438L220.133 599.104L233.588 628.667L224.083 633.001L210.628 603.438Z" fill="#A86554"/><path fill-rule="evenodd" clip-rule="evenodd" d="M233.121 616.584C233.121 616.584 230.987 612.254 230.13 610.973C228.351 608.314 225.442 610.28 226.467 612.774C227.126 614.373 229.595 619.517 231.196 623.409C224.432 616.708 211.844 607.871 211.844 607.871L231.691 601.725L233.121 616.584Z" fill="#A86554"/><path fill-rule="evenodd" clip-rule="evenodd" d="M243.452 378.287L227.909 472.38L270.919 481.078L298.09 385.891L243.452 378.287Z" fill="#A86554"/><path fill-rule="evenodd" clip-rule="evenodd" d="M263.234 495.782L259.811 355.166C259.811 355.166 318.157 337.564 337.127 337.564C354.412 337.564 415.857 355.377 415.857 355.377L411.02 495.782H263.234Z" fill="#D8CBC5"/><path fill-rule="evenodd" clip-rule="evenodd" d="M253.024 1009.34L257.927 914.275H307.008L294.699 1009.34H253.024Z" fill="#A86554"/><path fill-rule="evenodd" clip-rule="evenodd" d="M238.612 1020H300.399V1006.32H238.612V1020Z" fill="#472940"/><path fill-rule="evenodd" clip-rule="evenodd" d="M300.399 1006.32L300.864 978.964L250.451 979.094L238.612 1006.32H300.399Z" fill="#472940"/><path fill-rule="evenodd" clip-rule="evenodd" d="M307.831 964.9L337.726 532.487L264.578 540.596L249.153 964.9H307.831Z" fill="#472940"/><path fill-rule="evenodd" clip-rule="evenodd" d="M311.901 748.694C311.901 748.694 302.617 756.034 291.167 756.034C279.716 756.034 270.433 748.694 270.433 748.694C270.433 748.694 279.716 741.354 291.167 741.354C302.617 741.354 311.901 748.694 311.901 748.694Z" fill="#A86554"/><path fill-rule="evenodd" clip-rule="evenodd" d="M421.83 1009.34L416.927 914.275H367.846L380.155 1009.34H421.83Z" fill="#A86554"/><path fill-rule="evenodd" clip-rule="evenodd" d="M374.454 1020H436.242V1006.32H374.454V1020Z" fill="#472940"/><path fill-rule="evenodd" clip-rule="evenodd" d="M374.455 1006.32L373.99 978.964L424.403 979.094L436.242 1006.32H374.455Z" fill="#472940"/><path fill-rule="evenodd" clip-rule="evenodd" d="M367.022 964.9L337.127 532.487L410.276 540.596L425.701 964.9H367.022Z" fill="#472940"/><path fill-rule="evenodd" clip-rule="evenodd" d="M263.234 585.397V512.73H411.021L410.227 585.836L263.234 585.397Z" fill="#242144"/><path fill-rule="evenodd" clip-rule="evenodd" d="M256.268 585.836L259.713 403.227H418.063L418.308 585.836H256.268Z" fill="#D8CBC5"/><path fill-rule="evenodd" clip-rule="evenodd" d="M441.756 420.507L444.651 352.366L360.087 340.393L403.895 428.938L441.756 420.507Z" fill="#D8CBC5"/><path fill-rule="evenodd" clip-rule="evenodd" d="M222.483 433.891C222.483 433.891 237.623 356.118 263.31 355.165C280.845 354.515 296.062 366.974 297.38 384.489C298.7 402.004 274.795 454.422 274.795 454.422L222.483 433.891Z" fill="#D8CBC5"/><path fill-rule="evenodd" clip-rule="evenodd" d="M312.859 348.806V314.507L360.088 314.525V348.806C360.088 359.855 351.14 368.812 340.103 368.812H332.844C321.807 368.812 312.859 359.855 312.859 348.806Z" fill="#A86554"/><path fill-rule="evenodd" clip-rule="evenodd" d="M294.861 298.79C294.861 293.506 299.14 289.222 304.42 289.222C309.699 289.222 313.979 293.506 313.979 298.79C313.979 304.075 309.699 308.359 304.42 308.359C299.14 308.359 294.861 304.075 294.861 298.79Z" fill="#A86554"/><path fill-rule="evenodd" clip-rule="evenodd" d="M359.723 298.79C359.723 293.506 364.002 289.222 369.282 289.222C374.56 289.222 378.841 293.506 378.841 298.79C378.841 304.075 374.56 308.359 369.282 308.359C364.002 308.359 359.723 304.075 359.723 298.79Z" fill="#A86554"/><path fill-rule="evenodd" clip-rule="evenodd" d="M305.056 312.043V267.91C305.056 253.964 316.354 242.658 330.29 242.658H342.425C356.36 242.658 367.658 253.964 367.658 267.91V312.043C367.658 325.99 356.36 337.294 342.425 337.294H330.29C316.354 337.294 305.056 325.99 305.056 312.043Z" fill="#A86554"/><path fill-rule="evenodd" clip-rule="evenodd" d="M346.11 294.674C345.687 292.716 348.481 290.451 352.35 289.615C356.217 288.778 359.697 289.688 360.118 291.645C360.541 293.603 357.748 295.867 353.879 296.704C350.011 297.54 346.533 296.631 346.11 294.674Z" fill="white"/><path fill-rule="evenodd" clip-rule="evenodd" d="M349.97 295.086C348.911 293.347 349.462 291.077 351.2 290.018C352.938 288.957 355.204 289.509 356.263 291.249C357.322 292.988 356.771 295.257 355.033 296.317C353.295 297.377 351.028 296.825 349.97 295.086Z" fill="#010101"/><path fill-rule="evenodd" clip-rule="evenodd" d="M326.663 294.674C327.086 292.716 324.292 290.451 320.423 289.615C316.556 288.778 313.076 289.688 312.655 291.645C312.232 293.603 315.025 295.867 318.894 296.704C322.762 297.54 326.24 296.631 326.663 294.674Z" fill="white"/><path fill-rule="evenodd" clip-rule="evenodd" d="M322.803 295.086C323.862 293.347 323.311 291.077 321.573 290.018C319.835 288.957 317.568 289.509 316.51 291.249C315.451 292.988 316.002 295.257 317.74 296.317C319.478 297.377 321.744 296.825 322.803 295.086Z" fill="#010101"/><path fill-rule="evenodd" clip-rule="evenodd" d="M331.33 286.236V281.943C331.33 279.881 329.659 278.208 327.597 278.208H315.259C313.215 278.208 311.559 279.865 311.559 281.91V286.203C311.559 286.221 311.575 286.236 311.593 286.236H331.33Z" fill="#010101"/><path fill-rule="evenodd" clip-rule="evenodd" d="M362.213 286.236V281.943C362.213 279.881 360.542 278.208 358.481 278.208H346.142C344.098 278.208 342.442 279.865 342.442 281.91V286.203C342.442 286.221 342.458 286.236 342.477 286.236H362.213Z" fill="#010101"/><path fill-rule="evenodd" clip-rule="evenodd" d="M304.47 314.283H307.054V262.482H304.47V314.283Z" fill="#FFCD94"/><path fill-rule="evenodd" clip-rule="evenodd" d="M304.47 324.101V298.973H307.081L314.091 324.101H304.47Z" fill="#010101"/><path fill-rule="evenodd" clip-rule="evenodd" d="M365.819 315.014H368.403V262.482H365.819V315.014Z" fill="#FFCD94"/><path fill-rule="evenodd" clip-rule="evenodd" d="M368.402 324.101V298.973H365.761L358.781 324.101H368.402Z" fill="#010101"/><path fill-rule="evenodd" clip-rule="evenodd" d="M304.47 262.482V253.197C304.47 247.377 309.183 242.658 314.998 242.658H358.398C358.398 242.658 361.168 250.683 358.989 253.257C356.361 256.362 348.113 262.482 334.697 262.482H304.47Z" fill="#FFCD94"/><path fill-rule="evenodd" clip-rule="evenodd" d="M337.278 308.026C335.829 308.026 334.687 307.309 333.679 306.677C332.022 305.637 331.022 305.01 329.024 307.01L327.724 305.709C330.758 302.672 332.919 304.029 334.656 305.118C335.531 305.667 336.358 306.186 337.278 306.186C338.221 306.186 339.001 305.708 339.827 305.201C341.477 304.189 343.53 302.93 346.932 305.756L345.759 307.172C343.369 305.187 342.342 305.816 340.788 306.769C339.828 307.359 338.739 308.026 337.278 308.026Z" fill="#010101"/><path fill-rule="evenodd" clip-rule="evenodd" d="M349.976 352.44H322.895C312.719 352.44 304.47 344.184 304.47 334.001V319.214H368.402V334.001C368.402 344.184 360.152 352.44 349.976 352.44Z" fill="#010101"/><path fill-rule="evenodd" clip-rule="evenodd" d="M368.427 263.293H361.451C356.452 263.293 352.399 259.238 352.399 254.235V242.658H358.271C363.88 242.658 368.427 247.209 368.427 252.821V263.293Z" fill="#FFCD94"/><path fill-rule="evenodd" clip-rule="evenodd" d="M408.973 748.694C408.973 748.694 399.69 756.034 388.239 756.034C376.789 756.034 367.505 748.694 367.505 748.694C367.505 748.694 376.789 741.354 388.239 741.354C399.69 741.354 408.973 748.694 408.973 748.694Z" fill="#A86554"/><path fill-rule="evenodd" clip-rule="evenodd" d="M347.385 322.243L326.85 322.269L326.833 308.814L347.123 308.788L347.385 322.243Z" fill="#010101"/><path fill-rule="evenodd" clip-rule="evenodd" d="M326.85 322.371L318.195 322.383L326.833 308.711L326.85 322.371Z" fill="#010101"/><path fill-rule="evenodd" clip-rule="evenodd" d="M346.954 322.345L355.609 322.334L346.937 308.685L346.954 322.345Z" fill="#010101"/></svg>