<?xml version="1.0" encoding="UTF-8"?><svg xmlns="http://www.w3.org/2000/svg" version="1.1" viewBox="0 0 1080 1080"><!--Generator: Adobe Illustrator 29.0.1, SVG Export Plug-In . SVG Version: 2.1.0 Build 192)--><defs><style>.st0 {
        fill: #dbcac4;
      }

      .st1 {
        fill: #010101;
      }

      .st2 {
        fill: #ffad8b;
      }

      .st3 {
        fill: #493acd;
      }

      .st4 {
        fill: #242046;
      }

      .st5 {
        fill: #ff0079;
      }

      .st6 {
        fill: #ef903d;
      }

      .st7 {
        fill: #252046;
      }

      .st8 {
        fill: #181111;
      }

      .st9 {
        fill: #f9e3c9;
      }

      .st10 {
        fill: #fff;
      }

      .st11 {
        fill: #b16150;
      }

      .st12 {
        fill: #a95208;
      }

      .st13 {
        fill: #181111;
      }

      .st14 {
        fill: #716dff;
      }

      .st15 {
        fill: #d0def2;
      }

      .st16 {
        fill: #fba55f;
      }

      .st17 {
        fill: #703420;
      }

      .st18 {
        fill: #ffac00;
      }

      .st19 {
        fill: #4f4f5a;
      }</style></defs><g id="Woman"><path class="st4" d="M237.07,856.88c-71.86,23.5-137.27,140.35-180.43,260.46-10.21,28.42-10.66,48.34-5.71,62.28l66.9,214.29,290.49,113.25,11.3-420.27c2.45-44.99-4.2-120.81-34.49-171.64l-148.05-58.38Z"/><polygon class="st16" points="116 802.63 -36.61 824.39 -50.48 791.64 122.21 750.53 116 802.63"/><path class="st0" d="M151.35,705.47l119.14-25.37,4.49,101.14c-17.01,14.25-35.41,28.66-55.27,42.96-4.44,3.2-8.77,6.31-13,9.34-45.53,32.55-109.03,1.61-111.38-54.31-.03-.67-.06-1.33-.08-1.99-1.41-34.43,22.37-64.79,56.11-71.78Z"/><path class="st0" d="M578.37,776.72c-23.15-7.38-166.8-53.23-166.8-53.77v100.19c18.82,18.36,56.61,44.15,83.4,63.89,28.79,21.22,58.24,36.22,82.8,49.26l.6-29v-130.56Z"/><path class="st0" d="M239.41,710.53c5.92-22.6,29.04-36.12,51.64-30.2,22.6,5.92,36.12,29.04,30.2,51.64-5.92,22.6-44.5,47.29-44.5,47.29,0,0-43.26-46.14-37.34-68.74"/><polygon class="st4" points="224.94 860.61 388.83 921.96 456.9 738.77 390.36 715.72 289.84 679.64 224.94 860.61"/><path class="st3" d="M457.4,766.44l-112.06-35.94c-12.15-3.9-17.91-19.79-12.88-35.51l9.43-29.4,89.33,28.65c24.7,7.92,36.42,40.25,26.18,72.19Z"/><path class="st6" d="M343.68,693.37l14.07-41,63.17,21.79-14.04,40.9c-5.99,17.45-24.99,26.75-42.45,20.76-17.45-5.99-26.75-24.99-20.76-42.45"/><path class="st3" d="M416.85,753.57l-73.24-23.49c-14.56-4.67-22.1-21.74-16.85-38.13l36.66-114.16,99.55,31.93-46.13,143.85Z"/><path class="st16" d="M349.5,642.9l20.25-58.99c6.4-18.65,26.71-28.58,45.35-22.18l16.25,5.58c18.65,6.4,28.58,26.71,22.18,45.35l-20.25,58.99c-6.4,18.65-26.71,28.58-45.35,22.18l-16.25-5.58c-18.65-6.4-28.58-26.71-22.18-45.35"/><path class="st13" d="M402.71,655.11c-.72-1.36-1.58-2.21-2.56-2.5-1.17-.36-2.28.14-2.7.37-.67.36-1.33.58-1.97.68-1.44.22-2.9-.11-4.35-.96-1.35-.79-2.47-2.01-3.33-3.62-.46-.86-1.04-1.36-1.76-1.54-1.45-.35-3.02.68-3.03.69l-.99-1.47c.09-.06,2.24-1.49,4.45-.94,1.22.3,2.2,1.12,2.9,2.42.71,1.32,1.61,2.3,2.67,2.93,1.09.64,2.16.88,3.19.73.44-.07.9-.22,1.39-.49.61-.33,2.24-1.06,4.05-.51,1.46.44,2.68,1.58,3.62,3.38l-1.57.83Z"/><path class="st10" d="M389.02,632.13s-.38-9.12-5.54-13.18c-5.17-4.05-13.41-2.43-13.41-2.43,0,0,.75,7.07,5.92,11.13,5.17,4.05,13.04,4.48,13.04,4.48"/><path class="st4" d="M387.15,667.29c.98-3.08-4.89-4.5-4.89-4.5l-12.58-6.18s3.69,15.39,14.75,18.93c10.92,3.49,22.88-5.93,22.88-5.93l-13.56-3.15s-5.62-2.25-6.6.83"/><path class="st8" d="M409.79,619.49c14.7-10.03,27.71-6.58,32.92,10.5,0,0-8.49-6.02-16.27-8.69-7.86-2.7-16.65-1.81-16.65-1.81"/><path class="st8" d="M399.01,615.79c-5.44-16.94-17.83-22.21-32.43-11.92,0,0,10.4.46,18.18,3.13,7.86,2.7,14.25,8.79,14.25,8.79"/><path d="M385.52,618.98s-.02-.32-.05-.75c-1.14.01-2.3.37-3.31,1.17-1.57,1.23-2.32,3.32-1.9,5.27.77,3.52,4.5,5.22,7.55,3.78.61-.29,1.13-.69,1.57-1.15l-3.86-8.32Z"/><path d="M389.04,632.08c2.95-14.03-10.56-22.44-19.59-18.85.23.97.39,2.33.61,3.3,2.17-.47,18.26-.34,18.95,15.6h0"/><path d="M409.09,639.57c6.28-12.88,22.12-11.28,27.05-2.9-.77.63-1.74,1.6-2.51,2.23-1.43-1.71-14.2-11.49-24.54.67-.55.65.94-.37,0,0"/><path class="st10" d="M409.09,639.57s5.9-6.97,12.47-7c6.57-.02,12.07,6.32,12.07,6.32,0,0-4.93,5.12-11.5,5.15-6.57.02-13.04-4.47-13.04-4.47"/><path d="M430.49,640.61c1.36-.37,2.42-1.15,3.13-2.16-.52-.83-1.14-1.61-1.88-2.3-2.11-1.95-5-2.88-7.63-3.3-.89,1.89-.73,4.24.84,6.06,1.34,1.55,3.55,2.23,5.53,1.69Z"/><path class="st3" d="M357.9,615.38l5.08-15.85c5.48-17.09,26.23-25.58,45.38-19.44l5.79,1.86,3.07-9.56,5.12,1.64-3.07,9.56,5.79,1.86c19.14,6.14,30.22,24.97,24.74,42.06l-5.08,15.85,6.8,2.18,11.28-35.18c5.94-18.52-6.26-38.97-27.25-45.7l-23.58-7.56c-20.99-6.73-42.81,2.83-48.75,21.33l-11.28,35.18"/><path class="st3" d="M452.32,618.96l-86.1-27.61,3.76-11.74c4.68-14.6,20.3-22.65,34.92-17.96l33.24,10.66c14.6,4.68,22.65,20.3,17.96,34.92l-3.76,11.74h-.02Z"/></g><g id="Men"><polygon class="st12" points="265.43 468.38 285.69 422.68 327.46 447.23 303.33 481.99 265.43 468.38"/><path class="st12" d="M978.48,500.94l-14.47-37.04-136.6,5.38-85.76-100.75-30.41,85.1,82.43,67.04c9.24,7.52,21.32,10.6,33.03,8.42l151.79-28.16Z"/><polygon class="st12" points="519.36 387.87 422.55 491.19 452.87 546.1 574.3 440.96 519.36 387.87"/><path class="st14" d="M724.12,355.16s-83.95-10.15-107.6-6.46c-25.96,4.05-93.58,36.11-93.58,36.11l1.63,70.17,34.21,250.38,221.75-34.57-39.26-249.6-17.15-66.04Z"/><path class="st14" d="M459.89,450.53s53.44-83.6,84.54-66.28c21.23,11.82,44.31,31.72,33.3,53.38-11.01,21.67-68.12,76.36-68.12,76.36l-49.73-63.47Z"/><path class="st14" d="M808.46,438.36s-57.24-93.5-91.04-82.31c-23.07,7.64-36.8,31.16-30.04,54.5,6.75,23.35,63.11,79.73,63.11,79.73l57.96-51.93Z"/><path class="st0" d="M753.41,583.19c-3.7,0-207.12,71.01-207.12,71.01l7.4,38.47,190.85-3.7,8.88-105.78Z"/><path class="st12" d="M293.38,477.5l127.32,74.5c14.19,7.71,31.71.15,42.5-18.84l-1.04-2.07c7.79-15.2-.14-29.53-16.08-35.68l-130.63-53.68-22.06,35.78Z"/><path class="st2" d="M851.22,463.81l14.5-46.76c1.08-3.48,4.77-5.42,8.25-4.34,3.48,1.08,5.42,4.77,4.34,8.24l-14.5,46.76-12.59-3.9Z"/><polygon class="st2" points="858.94 608.97 806.02 603.91 827.9 485.55 864.84 484.69 858.94 608.97"/><path class="st2" d="M827.71,492.64l-10.85-37.89,49.55-2.88c.26-.01.48.2.46.47l-2.45,39.04-36.71,1.26Z"/><path class="st2" d="M831.44,460.76l3.89-56.95c.23-3.39,3.17-5.95,6.56-5.72l.87.06c3.39.23,5.95,3.17,5.72,6.56l-3.89,56.95-13.15-.9Z"/><path class="st2" d="M825.17,459.28l-7.47-53.89c-.5-3.61,2.02-6.93,5.62-7.43,3.6-.5,6.93,2.02,7.43,5.62l7.47,53.89-13.06,1.81Z"/><path class="st2" d="M826.16,484.4l-26.93-45.56c-1.82-3.08-.8-7.06,2.28-8.88l.79-.47c3.08-1.82,7.06-.8,8.88,2.28l26.93,45.56-11.95,7.07Z"/><path class="st2" d="M843.17,456.86l7.24-48.86c.5-3.36,3.63-5.68,6.99-5.19l.87.13c3.36.5,5.68,3.63,5.18,6.99l-7.24,48.86-13.04-1.93Z"/><path class="st12" d="M977.15,489.04l48.95.28c3.64.02,6.57,2.99,6.55,6.63-.02,3.64-2.99,6.57-6.63,6.55l-48.95-.28.08-13.18Z"/><path class="st12" d="M947.4,467.23l36.54-14.78,8.07,48.97c.04.26-.15.5-.41.51l-39.08,1.67-5.11-36.38Z"/><path class="st12" d="M979.5,467.6l57.04-2.11c3.4-.13,6.25,2.52,6.38,5.92l.03.87c.13,3.4-2.52,6.25-5.92,6.38l-57.04,2.11-.49-13.17Z"/><path class="st12" d="M981.51,454.89l54.37-2.01c3.64-.14,6.69,2.7,6.83,6.34.14,3.64-2.7,6.69-6.34,6.83l-54.37,2.01-.49-13.17Z"/><path class="st12" d="M955.43,464.83l42.48-31.57c2.87-2.14,6.93-1.54,9.07,1.34l.55.74c2.14,2.87,1.54,6.93-1.34,9.07l-42.48,31.57-8.28-11.15Z"/><path class="st12" d="M984.14,479.37l49.36-1.83c3.4-.13,6.25,2.53,6.38,5.92l.03.87c.12,3.4-2.53,6.25-5.92,6.38l-49.36,1.83-.49-13.17Z"/><path class="st2" d="M863.38,502.19l-39.34,5.82-25.31,134.34-117.38,61.05,76.14,48.68,83.78-65.34c9.4-7.33,15.1-18.41,15.6-30.31l6.5-154.24Z"/><polygon class="st2" points="523.78 709.02 477.83 831.23 534.45 855.85 596.13 733.56 523.78 709.02"/><path class="st5" d="M579.08,878.13l-34.65-191.51s76.09-36.51,102.05-40.56c23.65-3.69,111.53,7.55,111.53,7.55l23.31,192.98-202.24,31.53Z"/><polygon class="st7" points="659.8 1522.47 740.1 1509.95 696.82 1005.37 904.98 1168.52 964.01 1092.31 797.71 957.99 784.94 869.77 582.7 901.3 659.8 1522.47"/><polygon class="st5" points="588.74 1002.73 554.54 752.35 771.23 718.56 810.49 968.16 588.74 1002.73"/><polygon class="st5" points="807.34 737.13 796.78 643.36 678.5 645.03 757.32 756.74 807.34 737.13"/><path class="st5" d="M487.55,786.31s32.02-104.85,67.54-102.47c24.25,1.62,43.42,20.96,42.72,45.25-.7,24.29-41.15,92.99-41.15,92.99l-69.11-35.77Z"/><path class="st2" d="M615.67,666.61l-7.31-46.89,64.64-10.05,7.31,46.87c2.36,15.11-7.98,29.26-23.08,31.61l-9.93,1.55c-15.11,2.36-29.26-7.98-31.61-23.09"/><path class="st2" d="M580.38,602.07c-1.13-7.22,3.82-13.99,11.04-15.12,7.22-1.13,13.99,3.82,15.12,11.04,1.13,7.22-3.82,14-11.04,15.12-7.22,1.13-13.99-3.82-15.12-11.04"/><path class="st2" d="M669.14,588.24c-1.13-7.22,3.82-13.99,11.04-15.12,7.22-1.13,13.99,3.82,15.12,11.04,1.13,7.22-3.82,14-11.04,15.12-7.22,1.13-13.99-3.82-15.12-11.04"/><path class="st2" d="M597.15,618.01l-9.4-60.32c-2.97-19.07,10.08-36.93,29.14-39.91l16.62-2.59c19.07-2.97,36.93,10.07,39.91,29.14l9.4,60.32c2.97,19.07-10.08,36.94-29.14,39.91l-16.62,2.59c-19.07,2.97-36.93-10.08-39.91-29.14"/><path class="st10" d="M649.63,585.51c-1-2.59,2.35-6.28,7.46-8.25,5.12-1.97,10.07-1.47,11.06,1.12,1,2.59-2.34,6.28-7.46,8.25-5.12,1.97-10.07,1.47-11.06-1.12"/><path class="st1" d="M655,585.25c-1.82-2.15-1.55-5.37.6-7.19,2.15-1.82,5.37-1.55,7.19.6,1.82,2.15,1.55,5.37-.6,7.19-2.15,1.82-5.37,1.55-7.19-.6"/><path class="st10" d="M623.02,589.66c.16-2.77-4.15-5.27-9.62-5.59-5.47-.32-10.04,1.67-10.2,4.43-.16,2.77,4.14,5.27,9.62,5.59,5.47.32,10.04-1.67,10.2-4.43"/><path class="st1" d="M617.83,591.05c1.08-2.61-.16-5.59-2.76-6.67-2.61-1.08-5.59.16-6.67,2.76-1.08,2.6.16,5.59,2.76,6.67,2.6,1.08,5.59-.16,6.67-2.76"/><path class="st19" d="M623.78,567.93l-.91-5.87c-.44-2.82-3.08-4.75-5.91-4.31l-16.88,2.63c-2.8.44-4.71,3.05-4.27,5.85l.91,5.87s.03.04.05.04l27.01-4.21Z"/><path class="st19" d="M666.04,561.35l-.91-5.87c-.44-2.82-3.08-4.75-5.91-4.31l-16.89,2.63c-2.79.44-4.71,3.05-4.27,5.85l.91,5.87s.03.04.05.04l27.01-4.21Z"/><polygon class="st19" points="598.92 634.63 593.57 600.27 597.14 599.72 612.09 632.58 598.92 634.63"/><polygon class="st19" points="686.41 620.99 681.05 586.63 677.44 587.2 673.25 623.04 686.41 620.99"/><path class="st1" d="M640.39,605.65c-1.98.31-3.7-.43-5.21-1.08-2.49-1.07-3.99-1.71-6.3,1.45l-2.06-1.5c3.5-4.8,6.75-3.41,9.36-2.28,1.32.56,2.56,1.09,3.82.9s2.26-1.02,3.28-1.89c2.04-1.74,4.58-3.89,9.84-.76l-1.3,2.19c-3.7-2.2-4.97-1.12-6.89.51-1.19,1.01-2.54,2.16-4.54,2.47"/><path class="st19" d="M667.24,663.66l-37.07,5.78c-13.92,2.17-26.97-7.36-29.14-21.28l-3.15-20.21,87.49-13.64,3.15,20.21c2.17,13.93-7.36,26.97-21.28,29.14"/><polygon class="st19" points="657.25 622.93 629.16 627.35 626.27 608.96 654.03 604.59 657.25 622.93"/><rect class="st15" x="253.71" y="482.72" width="46.35" height="3.78" transform="translate(364.04 1035.91) rotate(-159.24)"/><rect class="st15" x="287.83" y="411.24" width="5.45" height="74.6" transform="translate(403.27 970.95) rotate(-159.24)"/><path class="st15" d="M349.54,360.75c-14.27,37.65-48.31,59.64-48.31,59.64,0,0-10.91-39.04,3.36-76.68l44.96,17.04Z"/><path class="st18" d="M338.74,381.86c-15.99,24.62-37.52,38.53-37.52,38.53,0,0-5.37-19.21-3.65-43.67l41.16,5.14Z"/><circle class="st18" cx="314.93" cy="362.81" r="1.87"/><path class="st9" d="M312.01,400.84c.09,1.43-.83,2.71-2.06,2.88s-2.31-.86-2.41-2.29c-.09-1.43.83-2.71,2.06-2.88s2.31.86,2.41,2.29Z"/><circle class="st9" cx="323.79" cy="386.94" r="1.4"/><circle class="st9" cx="303.72" cy="385.85" r="1.4"/><polygon class="st15" points="299.18 420.04 303.02 421.49 308.75 414.81 299.31 411.24 299.18 420.04"/><polygon class="st19" points="629.18 627.49 617.34 629.35 626.24 608.82 629.18 627.49"/><polygon class="st19" points="656.69 623.16 668.53 621.3 653.75 604.49 656.69 623.16"/><polygon class="st11" points="757.39 957.28 768.62 826.05 701.28 816.77 700.21 949.4 757.39 957.28"/><polygon class="st14" points="692.97 944.19 777.7 958.17 775.16 974.62 690.38 962.94 692.97 944.19"/><polygon class="st4" points="692.65 946.45 697.49 906.6 766.64 916.31 777.7 958.17 692.65 946.45"/><path class="st0" d="M688.5,891.16l14.98-290.44c-.24-25.15,19.93-45.88,45.28-46.53,25.96-.66,47.34,19.96,47.42,45.72l-27.91,289.69-79.77,1.56Z"/><polygon class="st11" points="627.19 959.32 575.86 838.03 637.02 808.34 679.12 934.12 627.19 959.32"/><rect class="st14" x="569.58" y="987.43" width="132.77" height="19.36" transform="translate(-340.01 329.16) rotate(-23.08)"/><path class="st4" d="M693.35,962.44l-16.67-39.12-56.77,23.02,4.82,12.02-49.29,43.25c-4.47,2.94-6.41,7.74-4.33,12.63l122.24-51.81Z"/><path class="st0" d="M682.99,903.81l-102.69-272.09c-7.43-24.03-32.95-37.64-57.29-30.54-24.92,7.27-39.02,33.42-31.26,57.98l114.77,267.44,76.46-22.8Z"/><path class="st2" d="M617.95,792.05l-89.81,79.51c-14.63,11.89-36.23,9.13-47.39-6.07h0c-11.87-16.16-6.7-39.07,10.96-48.57l91.43-49.6,34.81,24.73Z"/><path class="st12" d="M577.26,300.35c-1.14-7.58-8.21-12.8-15.79-11.66-7.58,1.14-12.8,8.21-11.66,15.79,1.14,7.58,8.21,12.8,15.79,11.66s12.8-8.21,11.66-15.79"/><path class="st12" d="M640.25,290.88c-1.14-7.58,4.08-14.65,11.66-15.78,7.58-1.14,14.65,4.08,15.79,11.66,1.14,7.58-4.08,14.65-11.66,15.79-7.58,1.14-14.65-4.08-15.78-11.66"/><path class="st17" d="M654.12,366.81l-7.96-52.94-67.83,10,7.98,53.13c2.07,13.78,14.92,23.27,28.7,21.2l17.9-2.69c13.78-2.07,23.27-14.92,21.2-28.7"/><path class="st12" d="M656.8,306.63l-9.52-63.34c-3.14-20.88-22.6-35.26-43.48-32.12l-15.13,2.27c-20.88,3.14-35.26,22.61-32.12,43.48l9.52,63.34c3.14,20.88,22.6,35.26,43.48,32.12l15.13-2.27c20.88-3.14,35.26-22.6,32.12-43.48"/><path class="st1" d="M610.22,309.85c-2.12.32-3.95-.48-5.56-1.18-2.65-1.16-4.25-1.85-6.74,1.51l-2.19-1.62c3.77-5.11,7.24-3.6,10.02-2.39,1.4.61,2.73,1.19,4.07.99,1.38-.21,2.42-1.08,3.52-2,2.19-1.84,4.92-4.13,10.52-.75l-1.41,2.33c-3.94-2.38-5.3-1.23-7.36.51-1.28,1.07-2.72,2.29-4.86,2.61"/><path class="st10" d="M595.97,293.53c.53-3.16-4.01-6.56-10.16-7.6-6.14-1.04-11.56.67-12.09,3.83-.53,3.16,4.01,6.56,10.16,7.6,6.14,1.04,11.56-.68,12.09-3.83"/><path d="M591.17,293.21c.93-3.07-.8-6.31-3.87-7.24-3.07-.93-6.31.8-7.24,3.87-.93,3.07.8,6.31,3.87,7.24,3.07.93,6.31-.8,7.24-3.87"/><path class="st10" d="M619.92,289.93c-1.44-2.86,1.91-7.45,7.47-10.25,5.57-2.8,11.25-2.75,12.68.11,1.44,2.86-1.91,7.45-7.47,10.25-5.57,2.8-11.25,2.75-12.68-.11"/><path d="M624.42,288.21c-1.79-2.66-1.09-6.26,1.57-8.05,2.66-1.79,6.26-1.09,8.05,1.57,1.79,2.66,1.09,6.26-1.57,8.05-2.66,1.79-6.26,1.09-8.05-1.57"/><path class="st1" d="M612.6,330.03c-5.36,0-9.66-3.06-9.74-3.12l1.85-2.53-.92,1.27.92-1.27c.4.29,9.81,6.91,16.89-2.54l2.51,1.88c-3.64,4.86-7.82,6.31-11.5,6.31Z"/><path class="st8" d="M647.18,238.08l-92.08,13.84-2.59-17.22c-1.48-9.84,5.3-19.02,15.15-20.5l56.13-8.44c9.51-1.33,19.32,5.26,20.8,15.1l2.59,17.22Z"/><rect class="st8" x="557.25" y="244.47" width="6.94" height="42.92" transform="translate(-33.29 86.28) rotate(-8.55)"/><rect class="st8" x="642.65" y="234.4" width="6.94" height="39.89" transform="translate(-30.62 98.84) rotate(-8.55)"/><rect class="st2" x="599.18" y="588.73" width="76.17" height="9.77" transform="translate(-80.65 100.58) rotate(-8.49)"/><path class="st8" d="M618.84,251.78h13.47c3.34,0,6.06,2.71,6.06,6.06v3.14h-25.58v-3.14c0-3.34,2.71-6.06,6.06-6.06Z" transform="translate(-33.79 107.01) rotate(-9.52)"/><path class="st8" d="M576.69,269.53h13.47c3.34,0,6.06,2.71,6.06,6.06v3.14h-25.58v-3.14c0-3.34,2.71-6.06,6.06-6.06Z" transform="translate(-37.31 100.28) rotate(-9.52)"/><polygon class="st2" points="620.16 754.02 638.05 799.82 591.71 806.46 583.14 767.32 620.16 754.02"/><path class="st2" d="M646.11,766.83h0c1.01,3.55-1.05,7.24-4.6,8.24l-14.93,4.26-3.64-12.84,14.92-4.26c3.55-1.01,7.24,1.05,8.24,4.6"/><path class="st2" d="M640.55,755.02h0c1.2,3.48-.65,7.28-4.13,8.49l-12.64,3.3-4.36-12.62,12.64-3.3c3.48-1.2,7.28.65,8.49,4.13"/><path class="st2" d="M650.66,779.68h0c.62,3.63-1.81,7.08-5.45,7.71l-16.66,2.78-2.26-13.15,16.66-2.78c3.63-.62,7.08,1.81,7.71,5.45"/><path class="st2" d="M652.65,790.81h0c.83,3.59-1.42,7.17-5.01,8l-11.36,1.17-2.99-13.01,11.36-1.17c3.59-.83,7.17,1.42,8,5.01"/><path class="st12" d="M316.85,445.41l7.9-13.59.38.21c3.15,1.75,3.48,4.91,2.99,8.91l-2.62,11.51-8.65-7.04Z"/><path class="st12" d="M295.47,434.18h0c1.61-3.63-.03-7.88-3.66-9.49l-17.63-7.81c-3.63-1.61-7.88.03-9.49,3.66-1.61,3.63.03,7.88,3.66,9.49l17.63,7.81c3.63,1.61,7.88-.03,9.49-3.66"/><path class="st12" d="M292.11,447.58h0c1.61-3.63-.03-7.88-3.66-9.49l-17.1-7.58c-3.63-1.61-7.88.03-9.49,3.66-1.61,3.63.03,7.88,3.66,9.49l17.1,7.58c3.63,1.61,7.88-.03,9.49-3.66"/><path class="st12" d="M287.42,460.05h0c1.61-3.63-.03-7.88-3.66-9.49l-16.05-7.11c-3.63-1.61-7.88.03-9.49,3.66-1.61,3.63.03,7.88,3.66,9.49l16.05,7.11c3.63,1.61,7.88-.03,9.49-3.66"/><path class="st12" d="M288.96,473.46h0c1.61-3.63-.03-7.88-3.66-9.49l-16.05-7.11c-3.63-1.61-7.88.03-9.49,3.66-1.61,3.63.03,7.88,3.66,9.49l16.05,7.11c3.63,1.61,7.88-.03,9.49-3.66"/><path class="st12" d="M295.56,426.94h0c1.65-3.72,6-5.4,9.72-3.75l19.55,8.66-5.97,13.47-19.55-8.66c-3.72-1.65-5.4-6-3.75-9.72"/></g></svg>