<svg viewBox="0 0 1600 1200" fill="none" xmlns="http://www.w3.org/2000/svg"><path d="M737.255 1019.99C717.269 1003.4 695.879 1007.11 676.277 1019.99H737.255Z" fill="#00401E"/><path d="M805.906 1019.99C843.196 816.001 958.391 812.217 1000.51 628.211C884.312 628.668 794.926 764.165 768.929 873.046C755.619 928.813 768.96 970.762 773.608 1019.99H805.906Z" fill="#91D9B6"/><path d="M820.278 1019.99C839.224 976.011 879.997 942.337 922.132 921.961C965.515 902.769 1009.43 883.878 1052.8 863.72C1007.41 795.145 906.045 809.939 858.014 868.565C820.423 909.568 805.657 965.781 805.241 1019.99H820.278Z" fill="#32785A"/><path d="M640.631 861.487C727.303 928.866 726.877 935.987 757.896 1019.99H797.244C791.286 993.375 779.286 941.508 779.307 936.725C780.066 752.917 636.347 650.148 464.251 630.385C453.332 629.127 471.02 646.582 475.439 655.856C514.476 737.52 574.236 806.604 640.631 861.487Z" fill="#32785A"/><path d="M732.887 1019.99H766.61C732.347 970.706 664.413 982.922 603.612 999.026C619.241 1003.56 633.976 1006.21 649.564 1007.84C683.037 1010.84 710.26 1009.18 732.887 1019.99Z" fill="#32785A"/><path d="M777.446 1019.99H798.742C789.477 997.085 781.844 973.309 764.333 951.591C699.612 870.738 604.101 877.745 522.732 930.195C543.28 936.807 563.609 942.359 582.514 947.432C630.846 961.218 723.342 983.352 777.446 1019.99Z" fill="#32785A"/><path d="M1127.99 1019.99H1151.38C1155.12 966.303 1153.79 962.082 1192.68 908.301C1222.02 865.073 1245.07 814.702 1253.92 760.537C1254.92 754.393 1262.26 741.221 1256.11 743.809C1159.28 784.542 1093.07 868.774 1124.74 975.649C1125.45 978.072 1126.92 1002.74 1127.99 1019.99Z" fill="#32785A"/><path d="M1168.23 1019.99C1173.71 1015.74 1181.04 1013.24 1185.52 1013.01C1195.43 1012.82 1205.67 1016.03 1216.12 1014.61C1196.1 1002.8 1173.68 997.937 1161.41 1019.99H1168.23Z" fill="#32785A"/><path d="M1104.11 1019.99H1119.61C1109.77 991.757 1093.42 965.152 1067.34 949.339C1029.41 923.359 967.896 931.967 953.109 979.593C981.778 983.97 1010.55 987.504 1039.07 991.31C1062.07 995.177 1086.02 1004.42 1104.11 1019.99Z" fill="#569B7B"/><path d="M1118.9 1019.99H1141.62C1136.58 991.784 1136.57 965.928 1119.96 936.819C1086.34 877.84 1011.28 814.141 943.553 833.603C997.854 930.934 1063.47 917.055 1118.9 1019.99Z" fill="#91D9B6"/><path d="M1126.03 891.117C1127.34 901.399 1128.93 911.754 1129.79 922.202C1130.04 924.822 1130.17 927.431 1130.31 930.062C1130.35 931.372 1130.39 932.682 1130.44 934.002C1130.46 935.385 1130.48 936.778 1130.51 938.171C1130.55 940.967 1130.59 943.795 1130.63 946.644C1130.64 949.482 1130.71 952.352 1130.7 955.231C1130.77 975.65 1130.31 997.025 1126.21 1020H1134.45C1135.02 1018.03 1135.57 1016.06 1136.04 1014.15C1138.5 1004.51 1140.39 994.592 1141.9 984.508C1143.4 974.423 1144.36 964.172 1145.07 953.88C1145.24 951.312 1145.38 948.734 1145.52 946.155C1145.64 943.587 1145.78 940.999 1145.87 938.431L1146.01 934.574C1146.06 933.274 1146.06 931.912 1146.08 930.581L1146.09 928.575L1146.03 926.579C1145.99 925.248 1145.99 923.907 1145.91 922.587C1145.68 917.274 1145.17 912.045 1144.58 906.867C1143.98 901.7 1143.24 896.627 1142.49 891.626C1141.74 886.698 1140.99 881.781 1140.25 876.894C1139.55 872.07 1138.93 867.33 1138.41 862.651C1137.48 853.482 1137.1 843.823 1136.75 834.55C1136.46 825.245 1136.39 816.086 1136.67 806.916C1136.9 797.747 1137.5 788.567 1138.11 779.262C1135.24 787.444 1132.52 795.813 1130.38 804.525C1129.81 806.698 1129.34 808.902 1128.84 811.116C1128.39 813.341 1127.89 815.566 1127.5 817.822C1126.65 822.334 1125.98 826.929 1125.41 831.587C1124.83 836.255 1124.42 840.985 1124.09 845.788C1123.93 848.19 1123.81 850.602 1123.7 853.045C1123.64 854.261 1123.64 855.53 1123.6 856.777C1123.57 858.035 1123.55 859.293 1123.58 860.541C1123.65 870.605 1124.71 880.835 1126.03 891.117Z" fill="#569B7B"/><path d="M1143.27 1019.99C1169.39 990.919 1216.41 964.024 1241.13 948.471C1251.27 942.305 1262.17 935.621 1273 928.281C1216.71 911.563 1159.93 923.706 1135.99 981.76C1130.56 994.787 1129.38 1007.48 1128.26 1019.99H1143.27Z" fill="#569B7B"/><path d="M1162.22 1019.99C1173.61 1006.91 1191.2 1003.3 1212.35 995.027C1221.15 991.43 1229.28 987.386 1237.61 982.094C1200.23 983.029 1159.48 987.302 1146.99 1020H1162.22V1019.99Z" fill="#32785A"/><path d="M648.534 339.197L660.815 311.512L686.115 326.389L671.494 347.442L648.534 339.197Z" fill="#A86554"/><path d="M919.23 468.977L942.367 453.445C944.093 452.291 946.423 452.749 947.577 454.474C948.731 456.19 948.274 458.529 946.558 459.683L923.421 475.215L919.23 468.977Z" fill="#FFC6AD"/><path d="M898.246 468.233L910.724 449.582L930.201 470.053C930.305 470.157 930.284 470.333 930.17 470.427L912.305 483.724L898.246 468.233Z" fill="#FFC6AD"/><path d="M913.47 458.123L939.653 438.879C941.213 437.735 943.407 438.068 944.551 439.627L944.842 440.033C945.986 441.592 945.653 443.786 944.094 444.93L917.91 464.173L913.47 458.123Z" fill="#FFC6AD"/><path d="M910.351 451.506L935.307 433.156C936.981 431.929 939.321 432.283 940.548 433.957C941.775 435.62 941.422 437.97 939.747 439.196L914.791 457.546L910.351 451.506Z" fill="#FFC6AD"/><path d="M901.251 464.529L911.15 436.074C911.816 434.151 913.927 433.132 915.851 433.797L916.35 433.964C918.273 434.629 919.293 436.74 918.627 438.663L908.728 467.118L901.251 464.529Z" fill="#FFC6AD"/><path d="M919.428 462.19L942.076 445.535C943.636 444.392 945.83 444.724 946.974 446.284L947.265 446.689C948.409 448.249 948.076 450.442 946.516 451.586L923.868 468.241L919.428 462.19Z" fill="#FFC6AD"/><path d="M695.942 475.513L704.469 450.676L742.746 463.879L734.24 488.664C730.611 499.237 719.1 504.872 708.524 501.234C697.949 497.595 692.313 486.086 695.942 475.513Z" fill="#FFBD7A"/><path d="M692.999 466.837L686.367 486.105L697.734 490.016L704.366 470.748L692.999 466.837Z" fill="#232144"/><path d="M706.622 1007.62L735.041 1007.12L731.787 933.887L697.783 934.625L706.622 1007.62Z" fill="#FFD4A9"/><path d="M734.011 998.605L705.81 1003.1L703.2 981.555H735.041L734.011 998.605Z" fill="#EBB2D3"/><path d="M703.2 1011.33C703.148 998.614 713.412 988.259 726.129 988.207C738.847 988.155 749.204 998.417 749.256 1011.13" fill="#232144"/><path d="M695.214 967.489L643.97 627.236L721.054 609.926C739.408 640.72 743.442 686.651 741.956 713.911L735.113 968.508L695.214 967.489Z" fill="#976186"/><path d="M583.221 645.678C602.219 590.473 627.79 573.797 627.79 573.797L720.888 605.828C720.888 605.828 731.567 633.68 712.08 690.32C707.64 703.232 648.628 664.869 648.628 664.869C648.628 664.869 578.729 658.736 583.221 645.678Z" fill="#976186"/><path d="M631.346 574.562C587.807 588.795 548.168 659.584 522.016 732.349C498.016 799.125 562.934 788.573 562.934 788.573L664.143 657.193L631.346 574.562Z" fill="#976186"/><path d="M610.194 935.502L599.567 856.988L555.612 873.238L579.945 950.774L610.194 935.502Z" fill="#FFD4A9"/><path d="M621.249 949.918L549.77 989.851L555.718 1000.33L627.197 960.398L621.249 949.918Z" fill="#976186"/><path d="M621.364 949.857L613.742 936.445L575.184 957.852L547.087 985.121L549.77 989.852L621.364 949.857Z" fill="#232144"/><path d="M612.722 937.369C611.609 934.655 608.344 912.875 608.344 912.875L572.708 926.598L577.98 952.995L612.722 937.369Z" fill="#EBB2D3"/><path d="M621.249 949.916L611.62 931.441L576.941 951.143L570.224 976.822L621.249 949.916Z" fill="#232144"/><path d="M612.066 886.287L559.096 899.896L517.106 764.265L579.113 732.316L612.066 886.287Z" fill="#976186"/><path d="M719.152 435.968C717.457 449.245 705.322 458.622 692.053 456.938C678.774 455.243 669.395 443.111 671.079 429.845C672.774 416.569 684.91 407.191 698.178 408.875C711.457 410.56 720.837 422.692 719.152 435.968Z" fill="#CA542A"/><path d="M762.346 455.214C760.88 459.497 756.211 461.774 751.938 460.308C747.653 458.842 745.376 454.174 746.842 449.901C748.308 445.628 752.977 443.341 757.251 444.807C761.546 446.273 763.823 450.941 762.346 455.214Z" fill="#FFD4A9"/><path d="M754.694 453.958C758.739 455.351 760.891 459.749 759.498 463.793L757.013 471.029C755.63 475.073 751.221 477.225 747.176 475.842C743.131 474.46 740.978 470.052 742.371 466.007L744.857 458.771C746.25 454.727 750.659 452.575 754.694 453.958Z" fill="#EBB2D3"/><path d="M912.004 479.956L900.887 468.094L838.08 526.21L779.827 507.777L780.15 552.429L836.895 575.125C848.281 574.834 867.394 546.244 872.489 536.845L912.004 479.956Z" fill="#FFC6AD"/><path d="M465.52 554.872L445.68 553.125L450.016 527.301L470.678 537.032L465.52 554.872Z" fill="#FFD4A9"/><path d="M430.622 553.522C429.936 551.339 431.142 549 433.336 548.314L457.107 540.828L465.52 554.884L435.832 556.246C433.451 556.444 431.194 555.456 430.622 553.522Z" fill="#FFD4A9"/><path d="M410.074 546.921C408.774 545.04 409.242 542.451 411.125 541.141L429.28 530.578L430.923 537.544L415.846 547.971C413.963 549.281 411.374 548.803 410.074 546.921Z" fill="#FFD4A9"/><path d="M415.741 550.122C414.577 548.147 415.242 545.599 417.228 544.435L433.045 535.172L437.246 542.335L421.429 551.598C419.443 552.763 416.896 552.108 415.741 550.122Z" fill="#FFD4A9"/><path d="M450.015 527.301L452.854 535.66L427.263 538.997L429.28 530.586L450.015 527.301Z" fill="#FFD4A9"/><path d="M452.45 531.339L427.079 536.082L428.606 544.248L453.977 539.505L452.45 531.339Z" fill="#FFD4A9"/><path d="M437.475 547.128C437.475 547.128 441.042 545.974 442.903 544.945C445.128 543.718 444.338 541.462 442.217 541.774C440.854 541.972 436.414 542.897 433.107 543.396C439.565 539.456 448.788 531.43 448.788 531.43L449.735 547.918L437.475 547.128Z" fill="#FFD4A9"/><path d="M557.983 541.69L465.519 554.873L457.117 535.037L561.405 513.059L557.983 541.69Z" fill="#FFD4A9"/><path d="M552.566 514.954L647.941 468.648L654.316 528.74C644.011 537.369 632.864 546.102 620.832 554.772C593.058 574.785 572.229 589.236 547.491 601.65C549.176 572.748 550.871 543.846 552.566 514.954Z" fill="#232144"/><path d="M632.77 485.902C636.357 472.21 650.364 464.018 664.059 467.604C677.754 471.191 685.948 485.195 682.361 498.887C678.773 512.579 655.397 527.54 655.397 527.54C655.397 527.54 629.182 499.584 632.77 485.902Z" fill="#232144"/><path d="M724.236 489.045L666.118 468.242L662.635 469.115L624.004 576.822L723.3 613.989L764.551 503.008L724.236 489.045Z" fill="#232144"/><path d="M727.672 478.774L721.04 498.043L733.941 502.481L740.573 483.213L727.672 478.774Z" fill="#232144"/><path d="M709.761 437.144C708.294 441.428 703.625 443.705 699.352 442.239C695.067 440.773 692.79 436.105 694.256 431.832C695.722 427.549 700.391 425.272 704.665 426.738C708.949 428.203 711.237 432.871 709.761 437.144Z" fill="#FFD4A9"/><path d="M701.099 435.572C705.144 436.955 707.297 441.363 705.903 445.407L703.418 452.643C702.035 456.688 697.626 458.84 693.581 457.457C689.536 456.074 687.383 451.666 688.777 447.622L691.262 440.386C692.655 436.331 697.064 434.179 701.099 435.572Z" fill="#EBB2D3"/><path d="M699.477 444.935L711.747 409.192C715.626 397.891 727.928 391.882 739.231 395.76L749.078 399.139C760.382 403.017 766.392 415.316 762.513 426.617L750.243 462.359C746.364 473.66 734.063 479.669 722.76 475.792L712.912 472.413C701.609 468.535 695.598 456.226 699.477 444.935Z" fill="#FFD4A9"/><path d="M731.713 452.324C731.276 451.503 730.756 450.983 730.163 450.806C729.456 450.588 728.78 450.89 728.531 451.035C728.125 451.253 727.719 451.389 727.335 451.451C726.461 451.586 725.577 451.389 724.704 450.869C723.882 450.391 723.207 449.652 722.687 448.675C722.406 448.155 722.052 447.854 721.616 447.739C720.742 447.532 719.785 448.145 719.775 448.155L719.172 447.261C719.224 447.22 720.534 446.357 721.865 446.689C722.603 446.877 723.196 447.365 723.622 448.155C724.049 448.956 724.6 449.548 725.245 449.933C725.9 450.318 726.555 450.474 727.179 450.38C727.449 450.339 727.72 450.245 728.021 450.089C728.385 449.891 729.373 449.444 730.475 449.777C731.359 450.047 732.097 450.734 732.669 451.825L731.713 452.324Z" fill="#171111"/><path d="M723.414 438.409C723.414 438.409 723.185 432.878 720.055 430.424C716.925 427.971 711.934 428.958 711.934 428.958C711.934 428.958 712.391 433.241 715.521 435.695C718.651 438.149 723.414 438.409 723.414 438.409Z" fill="white"/><path d="M722.282 459.705C722.875 457.844 719.318 456.981 719.318 456.981L711.696 453.238C711.696 453.238 713.932 462.564 720.639 464.706C727.253 466.816 734.5 461.119 734.5 461.119L726.285 459.216C726.285 459.206 722.875 457.844 722.282 459.705Z" fill="#E73245"/><path d="M737.464 427.528C746.365 421.446 754.258 423.546 757.408 433.891C757.408 433.891 752.261 430.242 747.55 428.63C742.788 426.998 737.464 427.528 737.464 427.528Z" fill="#CA542A"/><path d="M730.933 425.291C727.636 415.03 720.128 411.838 711.279 418.065C711.279 418.065 717.581 418.346 722.291 419.968C727.064 421.6 730.933 425.291 730.933 425.291Z" fill="#CA542A"/><path d="M702.232 437.875L707.712 421.906C711.591 410.606 723.789 404.555 734.957 408.391L737.743 409.348L739.917 403.027L741.321 410.574L744.69 411.728C755.858 415.565 761.764 427.822 757.886 439.123L752.405 455.092L756.367 456.454L766.236 427.708C770.437 415.461 763.917 402.132 751.678 397.932L737.92 393.212C725.671 389.012 712.34 395.531 708.139 407.767L698.271 436.513L702.232 437.875Z" fill="#CA542A"/><path d="M714.462 427.311C714.462 427.311 714.316 427.186 714.119 427.02C713.64 427.519 713.308 428.174 713.224 428.953C713.1 430.149 713.692 431.365 714.711 431.999C716.573 433.153 718.881 432.249 719.547 430.305C719.682 429.92 719.724 429.525 719.713 429.14L714.462 427.311Z" fill="black"/><path d="M723.436 438.373C725.225 429.879 717.041 424.774 711.571 426.958C711.706 427.54 711.81 428.372 711.946 428.954C713.266 428.673 723.01 428.746 723.426 438.404" fill="black"/><path d="M735.581 442.913C739.387 435.105 748.984 436.082 751.969 441.156C751.501 441.53 750.919 442.122 750.451 442.507C749.588 441.467 741.841 435.542 735.581 442.913C736.153 442.684 735.248 443.297 735.581 442.913Z" fill="black"/><path d="M749.256 1019.99H703.242L703.2 1011.43L749.224 1011.12L749.256 1019.99Z" fill="#976186"/><path d="M735.581 442.914C735.581 442.914 739.158 438.693 743.13 438.672C747.113 438.661 750.441 442.498 750.441 442.498C750.441 442.498 747.456 445.606 743.474 445.617C739.501 445.638 735.581 442.914 735.581 442.914Z" fill="white"/><path d="M744.461 441.031C744.908 440.303 745.054 439.523 744.96 438.774C744.388 438.629 743.796 438.535 743.182 438.535C741.446 438.546 739.782 439.325 738.44 440.23C738.825 441.436 739.875 442.414 741.321 442.559C742.558 442.705 743.806 442.091 744.461 441.031Z" fill="black"/><path d="M838.152 525.99C824.125 521.519 737.078 493.74 737.078 493.418L746.166 550.286C757.574 561.41 771.289 576.08 787.522 588.036C804.97 600.896 822.898 614.754 837.778 622.656L838.142 605.086V525.99H838.152Z" fill="#232144"/><path d="M762.639 266.144C748.216 288.341 695.62 329.874 673.419 315.444C651.218 301.024 667.803 236.109 682.237 213.902L762.639 266.144Z" fill="#FBB03B"/><path d="M730.663 320.093C725.183 319.584 720.753 317.286 717.945 313.408C711.062 303.885 716.708 288.436 730.819 278.227C737.256 273.569 744.503 270.752 751.242 270.294C758.718 269.785 764.76 272.166 768.274 277.021C771.789 281.876 772.164 288.363 769.325 295.298C766.777 301.546 761.827 307.545 755.391 312.202C748.954 316.86 741.706 319.677 734.968 320.135C733.481 320.228 732.035 320.218 730.663 320.093ZM754.746 278.85C753.664 278.746 752.645 278.767 751.834 278.83C746.749 279.183 740.926 281.491 735.841 285.161C727.221 291.399 720.597 302.471 724.881 308.387C727.19 311.578 731.827 311.765 734.386 311.589C739.47 311.235 745.294 308.927 750.379 305.257C755.463 301.587 759.477 296.774 761.401 292.054C762.368 289.683 763.647 285.223 761.339 282.021C759.748 279.838 757.086 279.069 754.746 278.85Z" fill="#FBB03B"/><path d="M658.995 274.244C658.423 274.192 657.851 274.109 657.268 273.985C645.768 271.562 639.57 256.311 643.158 239.281C646.745 222.242 658.589 210.795 670.079 213.228C681.58 215.65 687.778 230.902 684.19 247.931C680.78 264.118 669.934 275.253 658.995 274.244ZM651.539 241.049C649.345 251.456 651.882 264.108 659.036 265.615C666.211 267.102 673.625 256.581 675.82 246.164C678.014 235.757 675.476 223.105 668.322 221.597C661.178 220.09 653.733 230.642 651.539 241.049Z" fill="#FBB03B"/><path d="M678.8 297.086L641.161 355.012L648.338 359.673L685.977 301.748L678.8 297.086Z" fill="#FBB03B"/><path d="M657.966 395L605.516 360.931L611.37 351.928C624.223 360.276 641.412 356.627 649.762 343.777L655.658 347.614C647.308 360.464 650.957 377.649 663.81 385.997L657.966 395Z" fill="#FBB03B"/><path d="M1080.59 358.932L1071.82 336.497L989.047 339.761L937.085 278.734L918.659 330.29L968.604 370.909C974.208 375.463 981.519 377.334 988.621 376.014L1080.59 358.932Z" fill="#A86554"/><path d="M802.392 290.43L743.733 353.026L762.108 386.285L835.688 322.596L802.392 290.43Z" fill="#A86554"/><path d="M820.434 407.289L799.439 291.275C799.439 291.275 845.547 269.151 861.28 266.708C875.609 264.473 928.86 271.283 928.86 271.283L942.981 388.19L820.434 407.289Z" fill="#FAD9E8"/><path d="M826.288 482.765L805.553 331.081L936.856 310.621L960.647 461.826L826.288 482.765Z" fill="#FAD9E8"/><path d="M766.359 328.385C766.359 328.385 798.741 277.733 817.583 288.234C830.446 295.397 844.432 307.446 837.766 320.577C831.101 333.708 796.494 366.841 796.494 366.841L766.359 328.385Z" fill="#FAD9E8"/><path d="M977.566 321.018C977.566 321.018 942.876 264.379 922.401 271.157C908.426 275.783 900.107 290.027 904.204 304.176C908.301 318.315 942.45 352.478 942.45 352.478L977.566 321.018Z" fill="#FAD9E8"/><path d="M944.208 408.762C941.962 408.762 818.708 451.782 818.708 451.782L823.19 475.08L938.832 472.835L944.208 408.762Z" fill="#472940"/><path d="M665.474 344.731L742.621 389.862C751.22 394.53 761.837 389.956 768.368 378.447L767.733 377.189C772.454 367.978 767.65 359.297 757.99 355.575L678.836 323.055L665.474 344.731Z" fill="#A86554"/><path d="M1007.39 930.031L1038.49 856.55L1001.43 838.574L975.924 914.77L1007.39 930.031Z" fill="#F5B091"/><path d="M977.369 902.282L1030.54 734.308C1034.24 719.524 1049.23 710.458 1064.2 713.951C1079.51 717.528 1088.9 732.883 1085.02 748L1024.38 913.552L977.369 902.282Z" fill="#232144"/><path d="M967.376 931.825L962.776 942.613L1036.79 974.153L1041.38 963.365L967.376 931.825Z" fill="#232144"/><path d="M967.303 931.92L977.4 908.227L1011.8 922.168L1008.88 929.456L1038.74 955.655C1041.46 957.443 1042.51 960.884 1041.25 963.847L1041.36 963.307L967.303 931.92Z" fill="#A3422E"/><path d="M1003.48 336.435L1012.27 308.105C1012.92 305.994 1015.16 304.819 1017.27 305.474C1019.38 306.129 1020.55 308.364 1019.9 310.465L1011.11 338.795L1003.48 336.435Z" fill="#F5B091"/><path d="M1008.16 424.365L976.089 421.308L989.347 349.604L1011.72 349.074L1008.16 424.365Z" fill="#F5B091"/><path d="M989.233 353.906L982.661 330.95L1012.68 329.204C1012.84 329.193 1012.97 329.328 1012.96 329.484L1011.48 353.136L989.233 353.906Z" fill="#F5B091"/><path d="M991.501 334.584L993.861 300.089C993.997 298.03 995.775 296.481 997.834 296.627L998.364 296.658C1000.42 296.793 1001.97 298.581 1001.83 300.629L999.466 335.125L991.501 334.584Z" fill="#F5B091"/><path d="M983.962 332.573L986.208 299.689C986.354 297.485 988.267 295.832 990.461 295.978C992.655 296.123 994.319 298.036 994.173 300.23L991.927 333.114L983.962 332.573Z" fill="#F5B091"/><path d="M988.297 348.911L971.971 321.308C970.869 319.437 971.482 317.035 973.354 315.933L973.832 315.653C975.704 314.551 978.106 315.164 979.209 317.035L995.524 344.638L988.297 348.911Z" fill="#F5B091"/><path d="M998.603 332.228L1002.99 302.63C1003.29 300.592 1005.18 299.188 1007.22 299.49L1007.74 299.563C1009.78 299.864 1011.18 301.756 1010.88 303.794L1006.5 333.393L998.603 332.228Z" fill="#F5B091"/><path d="M1079.78 351.723L1109.45 351.899C1111.66 351.91 1113.43 353.708 1113.42 355.912C1113.41 358.116 1111.61 359.894 1109.41 359.884L1079.74 359.707L1079.78 351.723Z" fill="#A86554"/><path d="M1061.76 338.506L1083.9 329.555L1088.79 359.226C1088.81 359.382 1088.7 359.528 1088.54 359.538L1064.86 360.546L1061.76 338.506Z" fill="#A86554"/><path d="M1081.21 338.734L1115.77 337.456C1117.83 337.383 1119.56 338.984 1119.64 341.042L1119.66 341.572C1119.74 343.631 1118.13 345.357 1116.08 345.44L1081.51 346.719L1081.21 338.734Z" fill="#A86554"/><path d="M1082.42 331.028L1115.37 329.811C1117.57 329.728 1119.42 331.454 1119.51 333.648C1119.59 335.852 1117.86 337.702 1115.67 337.786L1082.73 339.002L1082.42 331.028Z" fill="#A86554"/><path d="M1066.62 337.06L1092.36 317.931C1094.09 316.642 1096.56 316.995 1097.85 318.742L1098.18 319.189C1099.47 320.925 1099.11 323.389 1097.37 324.689L1071.63 343.818L1066.62 337.06Z" fill="#A86554"/><path d="M1084.03 345.865L1113.93 344.752C1115.99 344.68 1117.72 346.281 1117.8 348.339L1117.82 348.869C1117.9 350.928 1116.29 352.654 1114.24 352.737L1084.33 353.849L1084.03 345.865Z" fill="#A86554"/><path d="M1010.85 359.68L987.019 363.204L971.681 444.587L900.555 481.578L946.693 511.072L997.459 471.493C1003.16 467.054 1006.61 460.338 1006.91 453.133L1010.85 359.68Z" fill="#F5B091"/><path d="M805.075 484.988L777.456 559.998L811.543 573.94L848.915 499.845L805.075 484.988Z" fill="#F5B091"/><path d="M838.579 587.437L817.584 471.423C817.584 471.423 863.691 449.3 879.424 446.857C893.754 444.622 947.005 451.431 947.005 451.431L961.126 568.339L838.579 587.437Z" fill="#ABB8B9"/><path d="M896.447 1014.08L888.232 934.717L928.932 928.375L931.002 1008.7L896.447 1014.08Z" fill="#F5B091"/><path d="M935.213 1009.91H882.492V1019.99H935.213V1009.91Z" fill="#232144"/><path d="M935.12 1009.9L935.318 983.902L893.006 984.006L882.399 1009.9H935.12Z" fill="#A3422E"/><path d="M936.15 970.189L905.089 608.207L845.484 624.373L887.495 977.779L936.15 970.189Z" fill="#232144"/><path d="M911.597 790.605C911.597 790.605 904.849 797.882 895.355 799.369C885.861 800.845 877.22 795.969 877.22 795.969C877.22 795.969 883.968 788.692 893.462 787.216C902.956 785.729 911.597 790.605 911.597 790.605Z" fill="#F5B091"/><path d="M1036.05 763.352L901.146 657.631L945.049 614.809L1071.82 717.182L1036.05 763.352Z" fill="#232144"/><path d="M850.153 661.654L840.773 601.469L963.321 582.371L972.097 643.013L850.153 661.654Z" fill="#242144"/><path d="M844.432 662.913L823.708 511.23L955.011 490.77L978.803 641.975L844.432 662.913Z" fill="#ABB8B9"/><path d="M976.89 502.02L970.495 445.203L898.828 446.222L946.589 513.892L976.89 502.02Z" fill="#ABB8B9"/><path d="M783.123 531.808C783.123 531.808 802.527 468.286 824.052 469.731C838.745 470.719 850.36 482.425 849.934 497.147C849.508 511.868 824.998 553.485 824.998 553.485L783.123 531.808Z" fill="#ABB8B9"/><path d="M860.749 459.3L856.319 430.897L895.48 424.805L899.91 453.197C901.335 462.346 895.075 470.923 885.924 472.347L879.903 473.283C870.753 474.707 862.174 468.449 860.749 459.3Z" fill="#F5B091"/><path d="M839.369 420.199C838.683 415.822 841.678 411.725 846.056 411.039C850.433 410.353 854.531 413.347 855.217 417.724C855.903 422.101 852.908 426.208 848.531 426.883C844.153 427.57 840.056 424.575 839.369 420.199Z" fill="#F5B091"/><path d="M893.15 411.808C892.463 407.431 895.458 403.335 899.836 402.649C904.214 401.963 908.311 404.957 908.997 409.334C909.683 413.71 906.689 417.817 902.311 418.493C897.933 419.189 893.836 416.185 893.15 411.808Z" fill="#F5B091"/><path d="M849.529 429.856L843.83 393.313C842.031 381.763 849.934 370.94 861.487 369.141L871.553 367.572C883.106 365.773 893.931 373.674 895.73 385.225L901.428 421.768C903.227 433.318 895.324 444.141 883.771 445.95L873.706 447.52C862.163 449.308 851.338 441.407 849.529 429.856Z" fill="#F5B091"/><path d="M881.327 410.163C880.724 408.593 882.751 406.357 885.85 405.162C888.949 403.966 891.954 404.278 892.557 405.838C893.16 407.407 891.133 409.643 888.034 410.838C884.935 412.034 881.93 411.722 881.327 410.163Z" fill="white"/><path d="M884.581 410.008C883.479 408.698 883.645 406.754 884.945 405.651C886.245 404.549 888.2 404.716 889.302 406.015C890.405 407.315 890.238 409.269 888.938 410.371C887.639 411.473 885.684 411.307 884.581 410.008Z" fill="#010101"/><path d="M865.209 412.683C865.302 411.009 862.692 409.492 859.385 409.304C856.068 409.117 853.302 410.313 853.209 411.987C853.115 413.661 855.715 415.178 859.032 415.366C862.338 415.553 865.105 414.357 865.209 412.683Z" fill="white"/><path d="M862.059 413.516C862.714 411.935 861.965 410.126 860.385 409.471C858.804 408.816 856.995 409.565 856.34 411.145C855.685 412.726 856.433 414.534 858.014 415.179C859.594 415.844 861.404 415.096 862.059 413.516Z" fill="#010101"/><path d="M865.667 399.508L865.116 395.953C864.845 394.248 863.244 393.073 861.539 393.343L851.307 394.934C849.612 395.194 848.457 396.785 848.717 398.479L849.268 402.035C849.268 402.056 849.289 402.066 849.3 402.056L865.667 399.508Z" fill="#5D2B1A"/><path d="M891.268 395.528L890.717 391.972C890.447 390.267 888.846 389.093 887.14 389.363L876.908 390.954C875.213 391.213 874.059 392.804 874.319 394.499L874.87 398.054C874.87 398.075 874.891 398.086 874.901 398.075L891.268 395.528Z" fill="#5D2B1A"/><path d="M844.802 388.589L842.665 388.922L849.352 431.821L851.49 431.488L844.802 388.589Z" fill="#5D2B1A"/><path d="M850.6 439.918L847.355 419.105L849.529 418.762L858.586 438.671L850.6 439.918Z" fill="#171111"/><path d="M895.68 380.661L893.532 380.996L900.314 424.501L902.462 424.166L895.68 380.661Z" fill="#5D2B1A"/><path d="M903.61 431.657L900.366 410.844L898.182 411.187L895.635 432.905L903.61 431.657Z" fill="#171111"/><path d="M842.645 388.888L841.449 381.195C840.7 376.371 843.996 371.859 848.821 371.11L884.811 365.496C884.811 365.496 888.138 371.786 886.672 374.198C884.894 377.109 878.852 383.243 867.726 384.979L842.645 388.888Z" fill="#5D2B1A"/><path d="M875.733 422.364C874.537 422.551 873.497 422.104 872.572 421.709C871.064 421.064 870.149 420.669 868.756 422.593L867.508 421.678C869.629 418.777 871.594 419.619 873.175 420.295C873.976 420.638 874.724 420.96 875.484 420.836C876.263 420.711 876.856 420.222 877.47 419.692C878.707 418.641 880.246 417.331 883.428 419.234L882.638 420.555C880.402 419.224 879.633 419.879 878.468 420.867C877.761 421.491 876.939 422.177 875.733 422.364Z" fill="#010101"/><path d="M891.996 457.502L869.535 461.005C861.102 462.315 853.188 456.545 851.878 448.114L849.965 435.867L902.977 427.602L904.89 439.849C906.211 448.29 900.44 456.192 891.996 457.502Z" fill="#171111"/><path d="M895.781 381.297L890 382.201C885.861 382.846 881.972 380.008 881.327 375.87L879.83 366.284L884.697 365.526C889.345 364.798 893.702 367.979 894.43 372.626L895.781 381.297Z" fill="#5D2B1A"/><path d="M1078.75 735.389C1078.75 735.389 1072.01 742.666 1062.51 744.153C1062.12 744.215 1061.72 744.267 1061.33 744.309C1053.79 745.089 1052.02 733.767 1059.44 732.208C1059.83 732.124 1060.22 732.052 1060.62 731.989C1070.11 730.513 1078.75 735.389 1078.75 735.389Z" fill="#F5B091"/><path d="M885.944 432.834L868.922 435.506L867.175 424.371L883.989 421.73L885.944 432.834Z" fill="#171111"/><path d="M868.942 435.596L861.767 436.719L867.153 424.285L868.942 435.596Z" fill="#171111"/><path d="M885.601 432.975L892.776 431.842L883.823 421.664L885.601 432.975Z" fill="#171111"/><path d="M946.63 635.384L953.431 555.882L912.627 550.258L911.982 630.612L946.63 635.384Z" fill="#A86554"/><path d="M907.583 627.453L958.931 635.916L957.392 645.886L906.023 638.806L907.583 627.453Z" fill="#FAD9E8"/><path d="M907.397 628.823L910.33 604.672L952.226 610.556L958.933 635.913L907.397 628.823Z" fill="#472940"/><path d="M904.881 595.33L913.959 419.381C913.813 404.14 926.032 391.581 941.39 391.197C957.113 390.802 970.08 403.288 970.122 418.893L953.203 594.384L904.881 595.33Z" fill="#472940"/><path d="M867.736 636.62L836.634 563.138L873.684 545.152L899.202 621.348L867.736 636.62Z" fill="#A86554"/><path d="M907.753 638.297L833.743 669.836L838.342 680.624L912.352 649.084L907.753 638.297Z" fill="#FAD9E8"/><path d="M907.823 638.502L897.726 614.809L863.328 628.75L866.25 636.038L836.385 662.237C833.671 664.025 832.506 666.926 833.764 669.889L907.823 638.502Z" fill="#472940"/><path d="M901.543 602.983L839.317 438.148C834.815 423.593 819.352 415.349 804.597 419.653C789.498 424.061 780.95 439.905 785.661 454.782L855.207 616.8L901.543 602.983Z" fill="#472940"/><path d="M862.131 535.287L807.716 583.454C798.856 590.659 785.764 588.985 779.005 579.784C771.82 570.001 774.95 556.111 785.64 550.362L841.043 520.316L862.131 535.287Z" fill="#F5B091"/><path d="M837.477 237.409C836.791 232.814 832.507 229.654 827.911 230.35C823.315 231.036 820.153 235.32 820.84 239.915C821.526 244.51 825.81 247.671 830.406 246.974C835.003 246.288 838.164 242.004 837.477 237.409Z" fill="#A86554"/><path d="M875.65 231.686C874.964 227.09 878.125 222.817 882.711 222.121C887.307 221.435 891.591 224.595 892.278 229.18C892.964 233.775 889.803 238.048 885.207 238.745C880.621 239.431 876.337 236.27 875.65 231.686Z" fill="#A86554"/><path d="M884.053 277.674L879.228 245.602L838.122 251.663L842.957 283.85C844.216 292.198 851.994 297.947 860.344 296.689L871.19 295.057C879.55 293.81 885.311 286.023 884.053 277.674Z" fill="#7D441C"/><path d="M885.674 241.214L879.902 202.841C877.999 190.199 866.207 181.487 853.552 183.379L844.381 184.762C831.726 186.665 823.022 198.454 824.915 211.106L830.686 249.48C832.589 262.132 844.381 270.834 857.036 268.942L866.207 267.559C878.862 265.656 887.577 253.867 885.674 241.214Z" fill="#A86554"/><path d="M857.452 243.168C856.162 243.366 855.06 242.877 854.083 242.451C852.471 241.754 851.504 241.328 849.996 243.366L848.665 242.388C850.953 239.289 853.053 240.205 854.738 240.943C855.591 241.317 856.391 241.66 857.202 241.536C858.034 241.411 858.668 240.88 859.334 240.319C860.665 239.206 862.318 237.813 865.708 239.861L864.856 241.276C862.474 239.841 861.642 240.527 860.395 241.577C859.625 242.232 858.752 242.971 857.452 243.168Z" fill="#010101"/><path d="M848.811 233.28C849.134 231.367 846.378 229.309 842.655 228.674C838.933 228.04 835.647 229.08 835.324 230.993C835.002 232.906 837.758 234.964 841.48 235.598C845.213 236.222 848.489 235.193 848.811 233.28Z" fill="white"/><path d="M845.91 233.085C846.471 231.224 845.421 229.27 843.57 228.698C841.708 228.137 839.743 229.187 839.182 231.037C838.62 232.898 839.67 234.863 841.521 235.425C843.372 235.996 845.338 234.946 845.91 233.085Z" fill="black"/><path d="M863.328 231.099C862.454 229.363 864.482 226.587 867.862 224.892C871.231 223.198 874.673 223.229 875.546 224.955C876.42 226.691 874.392 229.467 871.012 231.161C867.643 232.856 864.201 232.835 863.328 231.099Z" fill="white"/><path d="M866.051 230.064C864.97 228.452 865.396 226.269 866.997 225.188C868.609 224.107 870.793 224.533 871.874 226.134C872.956 227.745 872.53 229.929 870.928 231.01C869.327 232.101 867.143 231.675 866.051 230.064Z" fill="black"/><path d="M858.887 255.395C855.643 255.395 853.033 253.534 852.991 253.503L854.114 251.964C854.353 252.141 860.062 256.154 864.346 250.426L865.865 251.569C863.65 254.512 861.123 255.395 858.887 255.395Z" fill="#010101"/><path d="M879.851 199.691L824.052 208.071L822.482 197.643C821.587 191.676 825.695 186.114 831.664 185.219L865.677 180.104C871.438 179.294 877.386 183.286 878.28 189.253L879.851 199.691Z" fill="#291028"/><path d="M829.323 214.837L825.169 215.461L825.793 219.615L829.948 218.991L829.323 214.837Z" fill="#291028"/><path d="M828.575 209.837L824.421 210.461L825.045 214.615L829.2 213.991L828.575 209.837Z" fill="#291028"/><path d="M830.082 219.895L825.928 220.52L826.552 224.674L830.707 224.05L830.082 219.895Z" fill="#291028"/><path d="M830.842 224.958L826.688 225.582L827.312 229.736L831.466 229.112L830.842 224.958Z" fill="#291028"/><path d="M880.932 206.923L876.777 207.547L877.402 211.701L881.556 211.077L880.932 206.923Z" fill="#291028"/><path d="M880.184 201.915L876.029 202.539L876.654 206.693L880.808 206.069L880.184 201.915Z" fill="#291028"/><path d="M881.69 211.97L877.535 212.594L878.16 216.748L882.314 216.124L881.69 211.97Z" fill="#291028"/><path d="M882.45 217.036L878.296 217.66L878.92 221.815L883.075 221.19L882.45 217.036Z" fill="#291028"/><path d="M879.7 228.83L834.059 235.641L834.932 241.491L880.573 234.681L879.7 228.83Z" fill="#A86554"/><path d="M896.175 408.745L850.534 415.555L851.407 421.405L897.049 414.595L896.175 408.745Z" fill="#F5B091"/><path d="M859.573 214.809L874.859 212.241L874.547 210.37C874.214 208.374 872.322 207.022 870.325 207.355L862.277 208.707C860.28 209.039 858.929 210.931 859.261 212.927L859.573 214.809Z" fill="#291028"/><path d="M832.049 218.813L847.335 216.245L847.023 214.374C846.69 212.378 844.798 211.026 842.801 211.359L834.752 212.71C832.756 213.043 831.404 214.935 831.737 216.931L832.049 218.813Z" fill="#291028"/><path d="M863.474 512.25L874.319 539.988L846.233 544.021L841.044 520.307L863.474 512.25Z" fill="#F5B091"/><path d="M879.196 520.004C879.81 522.156 878.562 524.392 876.409 524.995L867.363 527.573L865.158 519.796L874.205 517.218C876.347 516.615 878.583 517.863 879.196 520.004Z" fill="#F5B091"/><path d="M875.827 512.852C876.555 514.963 875.432 517.26 873.321 517.988L865.657 519.984L863.016 512.343L870.679 510.347C872.801 509.619 875.099 510.742 875.827 512.852Z" fill="#F5B091"/><path d="M881.952 527.794C882.326 529.998 880.849 532.088 878.655 532.462L868.558 534.146L867.186 526.183L877.283 524.498C879.487 524.114 881.577 525.59 881.952 527.794Z" fill="#F5B091"/><path d="M883.157 534.529C883.656 536.702 882.294 538.875 880.121 539.374L873.237 540.081L871.428 532.201L878.312 531.494C880.485 530.995 882.658 532.357 883.157 534.529Z" fill="#F5B091"/><path d="M679.688 325.293L684.472 317.059L684.701 317.183C686.614 318.244 686.811 320.157 686.51 322.579L684.919 329.545L679.688 325.293Z" fill="#A86554"/><path d="M671.089 320.476C672.067 318.272 671.069 315.704 668.875 314.727L658.195 309.996C655.991 309.019 653.422 310.017 652.445 312.211C651.467 314.415 652.466 316.983 654.66 317.96L665.339 322.69C667.533 323.678 670.112 322.68 671.089 320.476Z" fill="#A86554"/><path d="M667.127 327.7C668.105 325.496 667.106 322.928 664.912 321.951L654.545 317.356C652.34 316.379 649.772 317.377 648.794 319.57C647.817 321.774 648.815 324.342 651.009 325.319L661.377 329.915C663.571 330.892 666.15 329.904 667.127 327.7Z" fill="#A86554"/><path d="M661.855 334.159C662.833 331.955 661.835 329.387 659.641 328.41L649.918 324.106C647.713 323.129 645.145 324.127 644.167 326.32C643.19 328.524 644.188 331.092 646.382 332.069L656.105 336.374C658.309 337.351 660.878 336.363 661.855 334.159Z" fill="#A86554"/><path d="M659.495 340.823C660.473 338.619 659.474 336.051 657.28 335.074L647.558 330.77C645.353 329.793 642.785 330.791 641.807 332.984C640.83 335.188 641.828 337.756 644.022 338.734L653.745 343.038C655.939 344.015 658.518 343.017 659.495 340.823Z" fill="#A86554"/><path d="M666.785 314.105C667.783 311.849 670.424 310.83 672.67 311.828L684.514 317.079L680.896 325.24L669.052 319.99C666.806 318.992 665.787 316.351 666.785 314.105Z" fill="#A86554"/><path d="M458.438 1019.99H473.88C469.367 997.641 470.168 977.534 457.159 954.714C432.348 911.205 376.976 864.203 327 878.56C367.742 951.585 417.104 939.785 458.438 1019.99Z" fill="#91D9B6"/><path d="M489.093 1019.99C492.618 1014.5 501.03 1011.16 505.533 1010.94C512.843 1010.79 520.403 1013.16 528.108 1012.12C512.718 1003.03 491.952 1001.17 482.999 1020H489.093V1019.99Z" fill="#32785A"/><path d="M485.432 1019.99C493.564 1007.02 507.789 1004.52 525.321 997.657C531.81 995.006 537.81 992.012 543.955 988.113C514.943 988.841 483.207 992.293 475.845 1019.99H485.432Z" fill="#32785A"/><path d="M463.326 1019.99H480.068C483.198 976.625 481.212 974.619 510.816 933.678C532.456 901.782 549.468 864.625 555.998 824.661C556.737 820.128 562.144 810.407 557.61 812.32C486.172 842.376 437.319 904.516 460.685 983.373C461.267 985.348 462.536 1007.48 463.326 1019.99Z" fill="#32785A"/><path d="M471.031 1019.98C489.364 997.061 527.214 975.478 546.556 963.304C554.032 958.75 562.07 953.822 570.067 948.406C528.545 936.076 486.639 945.027 468.972 987.86C464.397 998.828 463.908 1009.48 462.92 1019.97H471.031V1019.98Z" fill="#569B7B"/><path d="M461.63 920.998C462.597 928.577 463.772 936.229 464.407 943.932C464.583 945.866 464.687 947.79 464.791 949.723C464.822 950.69 464.854 951.657 464.885 952.624C464.906 953.643 464.916 954.672 464.937 955.701C464.968 957.77 464.999 959.849 465.03 961.96C465.041 964.05 465.082 966.17 465.082 968.291C465.145 984.51 464.75 1001.55 461.027 1019.99H466.632C467.547 1017.25 468.358 1014.44 469.023 1011.77C470.833 1004.66 472.237 997.339 473.339 989.895C474.452 982.451 475.159 974.893 475.679 967.304C475.803 965.401 475.907 963.509 476.011 961.606C476.095 959.714 476.199 957.801 476.261 955.909L476.365 953.061C476.396 952.104 476.396 951.096 476.406 950.118L476.417 948.632L476.386 947.155C476.355 946.178 476.355 945.18 476.292 944.213C476.115 940.294 475.751 936.437 475.315 932.611C474.868 928.795 474.327 925.053 473.765 921.362C473.214 917.723 472.663 914.095 472.112 910.498C471.592 906.932 471.145 903.438 470.75 899.987C470.053 893.219 469.783 886.097 469.523 879.256C469.304 872.395 469.263 865.637 469.46 858.869C469.637 852.101 470.074 845.333 470.531 838.461C468.41 844.501 466.403 850.666 464.833 857.102C464.417 858.703 464.063 860.335 463.689 861.957C463.356 863.599 462.992 865.242 462.701 866.905C462.077 870.232 461.578 873.622 461.162 877.063C460.736 880.504 460.424 883.997 460.195 887.542C460.07 889.31 459.987 891.098 459.904 892.897C459.862 893.791 459.862 894.726 459.831 895.652C459.81 896.577 459.79 897.502 459.81 898.427C459.873 905.871 460.663 913.409 461.63 920.998Z" fill="#569B7B"/><path d="M449.651 1019.99H459.04C451.949 997.731 438.774 976.346 418.34 963.953C390.358 944.782 344.968 951.134 334.07 986.274C355.221 989.497 376.455 992.107 397.491 994.924C416.281 998.085 435.966 1006.12 449.651 1019.99Z" fill="#569B7B"/></svg>