<svg viewBox="0 0 1600 1200" fill="none" xmlns="http://www.w3.org/2000/svg"><path d="M751.852 180H738.539V254.206H751.852V180Z" fill="#3C627C"/><path d="M1052.06 180H1038.74V254.206H1052.06V180Z" fill="#3C627C"/><path d="M1137 230.855H653.596V562.747H1137V230.855Z" fill="#8BB1CD"/><path d="M698.017 334.119C701.86 334.119 704.975 331.01 704.975 327.175C704.975 323.34 701.86 320.23 698.017 320.23C694.174 320.23 691.059 323.34 691.059 327.175C691.059 331.01 694.174 334.119 698.017 334.119Z" fill="#D5EFFF"/><path d="M719.849 334.119C723.692 334.119 726.807 331.01 726.807 327.175C726.807 323.34 723.692 320.23 719.849 320.23C716.006 320.23 712.891 323.34 712.891 327.175C712.891 331.01 716.006 334.119 719.849 334.119Z" fill="#AACDE5"/><path d="M698.017 357.647C701.86 357.647 704.975 354.538 704.975 350.702C704.975 346.867 701.86 343.758 698.017 343.758C694.174 343.758 691.059 346.867 691.059 350.702C691.059 354.538 694.174 357.647 698.017 357.647Z" fill="#D5EFFF"/><path d="M719.849 357.647C723.692 357.647 726.807 354.538 726.807 350.702C726.807 346.867 723.692 343.758 719.849 343.758C716.006 343.758 712.891 346.867 712.891 350.702C712.891 354.538 716.006 357.647 719.849 357.647Z" fill="#D5EFFF"/><path d="M698.017 381.162C701.86 381.162 704.975 378.053 704.975 374.218C704.975 370.383 701.86 367.273 698.017 367.273C694.174 367.273 691.059 370.383 691.059 374.218C691.059 378.053 694.174 381.162 698.017 381.162Z" fill="#AACDE5"/><path d="M719.849 381.162C723.692 381.162 726.807 378.053 726.807 374.218C726.807 370.383 723.692 367.273 719.849 367.273C716.006 367.273 712.891 370.383 712.891 374.218C712.891 378.053 716.006 381.162 719.849 381.162Z" fill="#AACDE5"/><path d="M760.195 334.119C764.037 334.119 767.153 331.01 767.153 327.175C767.153 323.34 764.037 320.23 760.195 320.23C756.352 320.23 753.236 323.34 753.236 327.175C753.236 331.01 756.352 334.119 760.195 334.119Z" fill="#D5EFFF"/><path d="M782.027 334.119C785.869 334.119 788.985 331.01 788.985 327.175C788.985 323.34 785.869 320.23 782.027 320.23C778.184 320.23 775.068 323.34 775.068 327.175C775.068 331.01 778.184 334.119 782.027 334.119Z" fill="#AACDE5"/><path d="M760.195 357.647C764.037 357.647 767.153 354.538 767.153 350.702C767.153 346.867 764.037 343.758 760.195 343.758C756.352 343.758 753.236 346.867 753.236 350.702C753.236 354.538 756.352 357.647 760.195 357.647Z" fill="#AACDE5"/><path d="M782.027 357.647C785.869 357.647 788.985 354.538 788.985 350.702C788.985 346.867 785.869 343.758 782.027 343.758C778.184 343.758 775.068 346.867 775.068 350.702C775.068 354.538 778.184 357.647 782.027 357.647Z" fill="#D5EFFF"/><path d="M760.195 381.162C764.037 381.162 767.153 378.053 767.153 374.218C767.153 370.383 764.037 367.273 760.195 367.273C756.352 367.273 753.236 370.383 753.236 374.218C753.236 378.053 756.352 381.162 760.195 381.162Z" fill="#AACDE5"/><path d="M782.027 381.162C785.869 381.162 788.985 378.053 788.985 374.218C788.985 370.383 785.869 367.273 782.027 367.273C778.184 367.273 775.068 370.383 775.068 374.218C775.068 378.053 778.184 381.162 782.027 381.162Z" fill="#AACDE5"/><path d="M822.372 334.119C826.215 334.119 829.33 331.01 829.33 327.175C829.33 323.34 826.215 320.23 822.372 320.23C818.529 320.23 815.414 323.34 815.414 327.175C815.414 331.01 818.529 334.119 822.372 334.119Z" fill="#D5EFFF"/><path d="M844.204 334.119C848.047 334.119 851.163 331.01 851.163 327.175C851.163 323.34 848.047 320.23 844.204 320.23C840.361 320.23 837.246 323.34 837.246 327.175C837.246 331.01 840.361 334.119 844.204 334.119Z" fill="#AACDE5"/><path d="M822.372 357.647C826.215 357.647 829.33 354.538 829.33 350.702C829.33 346.867 826.215 343.758 822.372 343.758C818.529 343.758 815.414 346.867 815.414 350.702C815.414 354.538 818.529 357.647 822.372 357.647Z" fill="#D5EFFF"/><path d="M844.204 357.647C848.047 357.647 851.163 354.538 851.163 350.702C851.163 346.867 848.047 343.758 844.204 343.758C840.361 343.758 837.246 346.867 837.246 350.702C837.246 354.538 840.361 357.647 844.204 357.647Z" fill="#AACDE5"/><path d="M822.372 381.162C826.215 381.162 829.33 378.053 829.33 374.218C829.33 370.383 826.215 367.273 822.372 367.273C818.529 367.273 815.414 370.383 815.414 374.218C815.414 378.053 818.529 381.162 822.372 381.162Z" fill="#D5EFFF"/><path d="M844.204 381.162C848.047 381.162 851.163 378.053 851.163 374.218C851.163 370.383 848.047 367.273 844.204 367.273C840.361 367.273 837.246 370.383 837.246 374.218C837.246 378.053 840.361 381.162 844.204 381.162Z" fill="#AACDE5"/><path d="M946.716 334.119C950.559 334.119 953.674 331.01 953.674 327.175C953.674 323.34 950.559 320.23 946.716 320.23C942.873 320.23 939.758 323.34 939.758 327.175C939.758 331.01 942.873 334.119 946.716 334.119Z" fill="#D5EFFF"/><path d="M968.544 334.119C972.387 334.119 975.502 331.01 975.502 327.175C975.502 323.34 972.387 320.23 968.544 320.23C964.701 320.23 961.586 323.34 961.586 327.175C961.586 331.01 964.701 334.119 968.544 334.119Z" fill="#AACDE5"/><path d="M946.716 357.647C950.559 357.647 953.674 354.538 953.674 350.702C953.674 346.867 950.559 343.758 946.716 343.758C942.873 343.758 939.758 346.867 939.758 350.702C939.758 354.538 942.873 357.647 946.716 357.647Z" fill="#AACDE5"/><path d="M968.544 357.647C972.387 357.647 975.502 354.538 975.502 350.702C975.502 346.867 972.387 343.758 968.544 343.758C964.701 343.758 961.586 346.867 961.586 350.702C961.586 354.538 964.701 357.647 968.544 357.647Z" fill="#D5EFFF"/><path d="M946.716 381.162C950.559 381.162 953.674 378.053 953.674 374.218C953.674 370.383 950.559 367.273 946.716 367.273C942.873 367.273 939.758 370.383 939.758 374.218C939.758 378.053 942.873 381.162 946.716 381.162Z" fill="#D5EFFF"/><path d="M968.544 381.162C972.387 381.162 975.502 378.053 975.502 374.218C975.502 370.383 972.387 367.273 968.544 367.273C964.701 367.273 961.586 370.383 961.586 374.218C961.586 378.053 964.701 381.162 968.544 381.162Z" fill="#AACDE5"/><path d="M697.019 426.346C700.862 426.346 703.977 423.237 703.977 419.401C703.977 415.566 700.862 412.457 697.019 412.457C693.176 412.457 690.061 415.566 690.061 419.401C690.061 423.237 693.176 426.346 697.019 426.346Z" fill="#AACDE5"/><path d="M718.861 426.346C722.703 426.346 725.819 423.237 725.819 419.401C725.819 415.566 722.703 412.457 718.861 412.457C715.018 412.457 711.902 415.566 711.902 419.401C711.902 423.237 715.018 426.346 718.861 426.346Z" fill="#D5EFFF"/><path d="M697.019 449.854C700.862 449.854 703.977 446.745 703.977 442.909C703.977 439.074 700.862 435.965 697.019 435.965C693.176 435.965 690.061 439.074 690.061 442.909C690.061 446.745 693.176 449.854 697.019 449.854Z" fill="#D5EFFF"/><path d="M718.861 449.854C722.703 449.854 725.819 446.745 725.819 442.909C725.819 439.074 722.703 435.965 718.861 435.965C715.018 435.965 711.902 439.074 711.902 442.909C711.902 446.745 715.018 449.854 718.861 449.854Z" fill="#D5EFFF"/><path d="M697.019 473.385C700.862 473.385 703.977 470.276 703.977 466.441C703.977 462.605 700.862 459.496 697.019 459.496C693.176 459.496 690.061 462.605 690.061 466.441C690.061 470.276 693.176 473.385 697.019 473.385Z" fill="#AACDE5"/><path d="M718.861 473.385C722.703 473.385 725.819 470.276 725.819 466.441C725.819 462.605 722.703 459.496 718.861 459.496C715.018 459.496 711.902 462.605 711.902 466.441C711.902 470.276 715.018 473.385 718.861 473.385Z" fill="#D5EFFF"/><path d="M759.478 426.346C763.321 426.346 766.436 423.237 766.436 419.401C766.436 415.566 763.321 412.457 759.478 412.457C755.635 412.457 752.52 415.566 752.52 419.401C752.52 423.237 755.635 426.346 759.478 426.346Z" fill="#D5EFFF"/><path d="M781.308 426.346C785.151 426.346 788.266 423.237 788.266 419.401C788.266 415.566 785.151 412.457 781.308 412.457C777.465 412.457 774.35 415.566 774.35 419.401C774.35 423.237 777.465 426.346 781.308 426.346Z" fill="#AACDE5"/><path d="M759.478 449.854C763.321 449.854 766.436 446.745 766.436 442.909C766.436 439.074 763.321 435.965 759.478 435.965C755.635 435.965 752.52 439.074 752.52 442.909C752.52 446.745 755.635 449.854 759.478 449.854Z" fill="#AACDE5"/><path d="M781.308 449.854C785.151 449.854 788.266 446.745 788.266 442.909C788.266 439.074 785.151 435.965 781.308 435.965C777.465 435.965 774.35 439.074 774.35 442.909C774.35 446.745 777.465 449.854 781.308 449.854Z" fill="#D5EFFF"/><path d="M759.478 473.385C763.321 473.385 766.436 470.276 766.436 466.441C766.436 462.605 763.321 459.496 759.478 459.496C755.635 459.496 752.52 462.605 752.52 466.441C752.52 470.276 755.635 473.385 759.478 473.385Z" fill="#AACDE5"/><path d="M781.308 473.385C785.151 473.385 788.266 470.276 788.266 466.441C788.266 462.605 785.151 459.496 781.308 459.496C777.465 459.496 774.35 462.605 774.35 466.441C774.35 470.276 777.465 473.385 781.308 473.385Z" fill="#AACDE5"/><path d="M843.767 426.346C847.61 426.346 850.725 423.237 850.725 419.401C850.725 415.566 847.61 412.457 843.767 412.457C839.924 412.457 836.809 415.566 836.809 419.401C836.809 423.237 839.924 426.346 843.767 426.346Z" fill="#AACDE5"/><path d="M946.829 426.346C950.672 426.346 953.788 423.237 953.788 419.401C953.788 415.566 950.672 412.457 946.829 412.457C942.986 412.457 939.871 415.566 939.871 419.401C939.871 423.237 942.986 426.346 946.829 426.346Z" fill="#D5EFFF"/><path d="M968.671 426.346C972.514 426.346 975.629 423.237 975.629 419.401C975.629 415.566 972.514 412.457 968.671 412.457C964.828 412.457 961.713 415.566 961.713 419.401C961.713 423.237 964.828 426.346 968.671 426.346Z" fill="#AACDE5"/><path d="M1031.12 426.346C1034.96 426.346 1038.08 423.237 1038.08 419.401C1038.08 415.566 1034.96 412.457 1031.12 412.457C1027.28 412.457 1024.16 415.566 1024.16 419.401C1024.16 423.237 1027.28 426.346 1031.12 426.346Z" fill="#D5EFFF"/><path d="M1031.12 449.854C1034.96 449.854 1038.08 446.745 1038.08 442.909C1038.08 439.074 1034.96 435.965 1031.12 435.965C1027.28 435.965 1024.16 439.074 1024.16 442.909C1024.16 446.745 1027.28 449.854 1031.12 449.854Z" fill="#AACDE5"/><path d="M1031.12 473.385C1034.96 473.385 1038.08 470.276 1038.08 466.441C1038.08 462.605 1034.96 459.496 1031.12 459.496C1027.28 459.496 1024.16 462.605 1024.16 466.441C1024.16 470.276 1027.28 473.385 1031.12 473.385Z" fill="#AACDE5"/><path d="M1071.73 426.346C1075.58 426.346 1078.69 423.237 1078.69 419.401C1078.69 415.566 1075.58 412.457 1071.73 412.457C1067.89 412.457 1064.78 415.566 1064.78 419.401C1064.78 423.237 1067.89 426.346 1071.73 426.346Z" fill="#D5EFFF"/><path d="M1093.58 426.346C1097.42 426.346 1100.53 423.237 1100.53 419.401C1100.53 415.566 1097.42 412.457 1093.58 412.457C1089.73 412.457 1086.62 415.566 1086.62 419.401C1086.62 423.237 1089.73 426.346 1093.58 426.346Z" fill="#AACDE5"/><path d="M1071.73 449.854C1075.58 449.854 1078.69 446.745 1078.69 442.909C1078.69 439.074 1075.58 435.965 1071.73 435.965C1067.89 435.965 1064.78 439.074 1064.78 442.909C1064.78 446.745 1067.89 449.854 1071.73 449.854Z" fill="#AACDE5"/><path d="M1093.58 449.854C1097.42 449.854 1100.53 446.745 1100.53 442.909C1100.53 439.074 1097.42 435.965 1093.58 435.965C1089.73 435.965 1086.62 439.074 1086.62 442.909C1086.62 446.745 1089.73 449.854 1093.58 449.854Z" fill="#D5EFFF"/><path d="M1071.73 473.385C1075.58 473.385 1078.69 470.276 1078.69 466.441C1078.69 462.605 1075.58 459.496 1071.73 459.496C1067.89 459.496 1064.78 462.605 1064.78 466.441C1064.78 470.276 1067.89 473.385 1071.73 473.385Z" fill="#AACDE5"/><path d="M1093.58 473.385C1097.42 473.385 1100.53 470.276 1100.53 466.441C1100.53 462.605 1097.42 459.496 1093.58 459.496C1089.73 459.496 1086.62 462.605 1086.62 466.441C1086.62 470.276 1089.73 473.385 1093.58 473.385Z" fill="#AACDE5"/><path d="M1080.56 673.931C1079.43 673.931 1078.31 673.796 1077.2 673.505C1072.9 672.403 1069.41 669.264 1067.86 665.116L1055.15 631.027L1087.07 648.503C1090.97 650.634 1093.57 654.543 1094.04 658.951C1094.5 663.369 1092.78 667.735 1089.42 670.636C1086.93 672.788 1083.77 673.931 1080.56 673.931ZM1065.54 643.035L1073.06 663.182C1073.98 665.677 1076 667.475 1078.57 668.141C1081.15 668.806 1083.78 668.182 1085.8 666.446C1087.82 664.71 1088.81 662.184 1088.52 659.543C1088.24 656.892 1086.74 654.647 1084.4 653.368L1065.54 643.045V643.035Z" fill="#3C627C"/><path d="M1061.73 630.246H1053.57V1019.93H1061.73V630.246Z" fill="#3C627C"/><path d="M1061.73 775.828H1053.57V874.34H1061.73V775.828Z" fill="#E73245"/><path d="M1062.53 1003.57H1052.78C1050.51 1003.57 1048.67 1005.41 1048.67 1007.69V1015.88C1048.67 1018.15 1050.51 1020 1052.78 1020H1062.53C1064.81 1020 1066.65 1018.15 1066.65 1015.88V1007.69C1066.65 1005.41 1064.81 1003.57 1062.53 1003.57Z" fill="#D8CBC5"/><path d="M958.458 1008.28L956.918 927.148L916.178 928.417L920.12 1009.3L958.458 1008.28Z" fill="#EA9758"/><path d="M882.551 421.57V388.022L925.59 387.523V421.57C925.59 430.303 918.497 437.382 909.75 437.382H898.382C889.634 437.382 882.541 430.303 882.541 421.57H882.551Z" fill="#E3944F"/><path d="M807.8 424.118L808.092 389.011C808.092 386.703 809.964 384.831 812.273 384.831C814.582 384.831 816.454 386.703 816.454 389.011L816.163 410.301H816.766L817.057 383.459C817.057 381.151 818.929 379.28 821.238 379.28C823.547 379.28 825.42 381.151 825.42 383.459L825.128 408.472H825.732L826.023 380.257C826.023 377.949 827.895 376.078 830.204 376.078C832.513 376.078 834.385 377.949 834.385 380.257L834.094 410.291H834.697L834.988 384.634C834.988 382.326 836.861 380.455 839.17 380.455C841.479 380.455 843.351 382.326 843.351 384.634L843.018 417.173L849.144 406.195C850.299 404.199 852.857 403.513 854.854 404.667C856.851 405.821 857.538 408.378 856.383 410.374L845.993 428.733C843.33 433.339 839.96 437.508 836.018 441.084V464.495L805.855 509.874L809.777 433.848C808.528 431.01 807.852 427.964 807.79 424.866L807.769 424.118H807.8Z" fill="#E3944F"/><path d="M1026.06 417.878L1034.13 383.706C1034.68 381.471 1033.31 379.205 1031.06 378.664C1028.82 378.113 1026.56 379.485 1026.01 381.731L1021.23 402.481L1020.63 402.336L1026.73 376.19C1027.28 373.955 1025.91 371.688 1023.66 371.148C1021.41 370.597 1019.16 371.969 1018.6 374.215L1012.94 398.583L1012.34 398.437L1018.77 370.961C1019.32 368.725 1017.95 366.459 1015.7 365.919C1013.46 365.368 1011.2 366.74 1010.65 368.985L1003.78 398.229L1003.19 398.084L1009 373.092C1009.56 370.857 1008.18 368.59 1005.94 368.039C1003.69 367.488 1001.43 368.861 1000.88 371.106L993.466 402.793L990.127 390.671C989.482 388.457 987.163 387.189 984.937 387.833C982.722 388.478 981.442 390.796 982.097 393.01L987.818 413.314C989.305 418.418 991.594 423.263 994.568 427.671L986.944 475.586L1004.3 530.955L1021.78 426.87C1023.66 424.406 1025.04 421.61 1025.84 418.616L1026.04 417.888L1026.06 417.878Z" fill="#E3944F"/><path d="M836.143 544.492L853.231 476.045L860.231 425.074H838.348C822.902 425.074 809.599 469.964 809.599 485.381L799.407 536.259C797.129 547.632 805.606 558.329 817.213 558.735C826.095 559.046 833.99 553.11 836.143 544.492Z" fill="#EA9758"/><path d="M967.631 531.873L950.543 463.427L947.766 442.988H969.649C985.095 442.988 994.175 457.345 994.175 472.762L1004.37 523.64C1006.65 535.013 998.168 545.71 986.561 546.116C977.679 546.428 969.784 540.492 967.631 531.873Z" fill="#EA9758"/><path d="M835.779 912.345L873.098 911.836L868.542 997.051H827.24L835.779 912.345Z" fill="#EA9758"/><path d="M835.048 586.099V607.691L822.942 933.221C822.349 949.272 835.215 962.61 851.305 962.61C866.282 962.61 878.68 950.998 879.627 936.069L895.852 681.056L895.998 665.233H899.482L908.541 936.745C909.051 952.016 921.605 964.138 936.904 964.138H939.411C955.189 964.138 967.941 951.289 967.795 935.528L964.446 585.309L835.027 586.088L835.048 586.099Z" fill="#891229"/><path d="M835.051 585.516V586.097L835.061 585.516H835.051Z" fill="#891229"/><path d="M924.062 371.557C924.062 366.639 928.15 362.679 933.111 362.866C937.625 363.042 941.307 366.712 941.474 371.214C941.661 376.173 937.688 380.248 932.768 380.248C927.848 380.248 924.062 376.349 924.062 371.557Z" fill="#E3944F"/><path d="M884.08 371.557C884.08 366.639 879.992 362.679 875.031 362.866C870.517 363.042 866.835 366.712 866.668 371.214C866.481 376.173 870.454 380.248 875.374 380.248C880.294 380.248 884.08 376.349 884.08 371.557Z" fill="#E3944F"/><path d="M875.457 384.468V323.558H933.39V384.115C933.39 394.573 924.893 403.066 914.429 403.066H894.064C883.799 403.066 875.457 394.729 875.457 384.468Z" fill="#171111"/><path d="M888.094 345.505C897.814 345.505 905.693 337.639 905.693 327.936C905.693 318.233 897.814 310.367 888.094 310.367C878.375 310.367 870.496 318.233 870.496 327.936C870.496 337.639 878.375 345.505 888.094 345.505Z" fill="#171111"/><path d="M921.325 345.505C931.044 345.505 938.923 337.639 938.923 327.936C938.923 318.233 931.044 310.367 921.325 310.367C911.606 310.367 903.727 318.233 903.727 327.936C903.727 337.639 911.606 345.505 921.325 345.505Z" fill="#171111"/><path d="M1001.84 496.66C1001.35 484.07 998.355 465.472 995.828 453.121C991.532 423.087 969.649 420.987 969.649 420.987L925.101 410.602H882.114L839.679 420.987C839.679 420.987 817.795 423.087 813.5 453.121L803.275 502.855H836.111L835.04 585.524V586.107L964.458 585.327H965.239L967.475 501.909L1001.83 496.66H1001.84Z" fill="#D8CBC5"/><path d="M914.398 604.195H954.837V642.691C954.837 642.691 935.179 663.442 914.398 642.691V604.195Z" fill="#E73245"/><path d="M844.816 604.195H885.255V642.691C885.255 642.691 865.597 663.442 844.816 642.691V604.195Z" fill="#E73245"/><path d="M869.135 1005.89H773.291V1019.99H869.135V1005.89Z" fill="#891229"/><path d="M869.217 1005.82V987.767L866.045 988.755C852.628 992.944 837.962 991.281 825.949 984.201L824.524 983.359L781.038 995.762C776.389 997.103 773.217 1001.2 773.217 1005.84H869.217V1005.82Z" fill="#D8CBC5"/><path d="M959.987 1006.86H917.104V1020H959.987V1006.86Z" fill="#891229"/><path d="M959.986 986.719H917.051V1007.13H959.986V986.719Z" fill="#D8CBC5"/><path d="M889.269 322.383C894.634 322.383 898.984 318.041 898.984 312.684C898.984 307.327 894.634 302.984 889.269 302.984C883.904 302.984 879.555 307.327 879.555 312.684C879.555 318.041 883.904 322.383 889.269 322.383Z" fill="#171111"/><path d="M903.583 327.939C909.93 327.939 915.076 322.8 915.076 316.461C915.076 310.123 909.93 304.984 903.583 304.984C897.235 304.984 892.09 310.123 892.09 316.461C892.09 322.8 897.235 327.939 903.583 327.939Z" fill="#171111"/><path d="M521.235 765.818C521.235 765.818 529.171 751.524 527.611 746.845C527.611 746.845 530.315 748.956 530.96 751.565C530.96 751.565 534.902 744.642 534.122 742.167C534.122 742.167 537.117 744.642 537.117 746.586C537.117 746.586 541.673 736.45 539.977 730.857C539.977 730.857 544.928 734.495 544.148 738.913C544.148 738.913 548.704 728.382 547.144 724.879C547.144 724.879 553.623 730.69 552.614 741.772C552.614 741.772 548.038 769.197 519.404 769.197L521.235 765.818Z" fill="#E6E3DA"/><path d="M620.282 912.629L574.487 926.06C574.487 926.06 596.328 986.669 570.763 1008.23C570.763 1008.23 579.885 1008.45 584.378 1019.99H561.6L510.562 999.736L525.613 944.856L550.481 933.098L620.282 912.629Z" fill="#BF852E"/><path d="M533.468 769.342C533.468 769.342 535.652 763.676 543.068 764.986C550.484 766.296 572.732 772.388 572.732 772.388C572.732 772.388 577.963 763.042 589.311 768.583C600.658 774.124 610.685 782.399 610.685 782.399C610.685 782.399 625.953 804.178 623.769 809.834C621.585 815.5 619.411 815.375 619.411 815.375C619.411 815.375 620.659 819.076 622.157 824.253L625.641 837.757C628.096 852.166 629.791 874.414 625.953 896.069C623.592 909.407 620.285 912.619 620.285 912.619L644.716 1009.74C644.716 1009.74 653.443 1011.48 653.443 1019.98H630.509L596.331 950.512L595.853 933.089L602.832 972.292L612.432 1010.64C612.432 1010.64 621.46 1011.44 621.928 1019.98H597.652L553.105 956.604C553.105 956.604 545.252 947.019 545.252 939.617C545.252 932.215 534.342 956.168 536.526 969.672C536.526 969.672 560.843 981.763 552.127 1007.01C552.127 1007.01 561.613 1014.31 561.613 1019.97L497.751 1019.75C497.751 1019.75 483.731 1012.74 474.152 993.614C468.702 982.729 450.781 946.967 488.661 912.952C497.876 904.676 510.212 896.713 527.82 890.829L562.726 855.555L567.396 835.491V823.661L530.441 792.4L533.499 769.321L533.468 769.342Z" fill="#DFA245"/><path d="M599.98 819.419C593.833 819.419 592.345 818.119 591.815 817.028C589.464 812.194 602.445 790.976 603.932 788.574L605.191 789.354C599.741 798.17 591.638 813.296 593.146 816.394C594.519 819.221 609.455 817.683 619.617 815.687L619.898 817.132C619.835 817.142 613.532 818.379 607.032 819.024C604.182 819.305 601.873 819.429 599.99 819.429L599.98 819.419Z" fill="#BF852E"/><path d="M580.841 787.076C582.794 787.076 584.377 785.498 584.377 783.552C584.377 781.605 582.794 780.027 580.841 780.027C578.888 780.027 577.305 781.605 577.305 783.552C577.305 785.498 578.888 787.076 580.841 787.076Z" fill="black"/><path d="M538.958 778.366C542.715 778.366 545.761 775.327 545.761 771.578C545.761 767.828 542.715 764.789 538.958 764.789C535.202 764.789 532.156 767.828 532.156 771.578C532.156 775.327 535.202 778.366 538.958 778.366Z" fill="black"/><path d="M644.715 1009.75L620.283 912.629L598.379 947.289L600.438 958.88L630.497 1020H653.431C653.431 1011.5 644.705 1009.76 644.705 1009.76L644.715 1009.75Z" fill="#BF852E"/><path d="M481.242 1005.07C476.936 1005.68 466.494 1005.07 465.87 1010.59C465.246 1016.11 471.403 1021.03 479.391 1019.79C487.379 1018.56 500.286 1015.5 500.286 1015.5" fill="#BF852E"/><path d="M527.787 890.848L562.693 855.574L591.254 892.386L550.482 933.097L527.787 890.848Z" fill="#891229"/><path d="M584.378 883.52L614.447 921.849L605.731 935.645L571.127 892.387L584.378 883.52Z" fill="#891229"/><path d="M482.585 955.055L463 930.552L480.89 915.145L485.237 920.176L472.194 931.404L483.542 945.605L548.298 891.785L552.542 896.89L482.585 955.055Z" fill="#891229"/><path d="M521.288 768.708L521.184 767.606C521.454 767.585 548.226 764.841 550.816 738.02L551.918 738.123C549.235 765.881 521.558 768.687 521.277 768.708H521.288Z" fill="#ABB8B9"/></svg>