<svg viewBox="0 0 1600 1200" fill="none" xmlns="http://www.w3.org/2000/svg"><path d="M1125.88 451.232L1149.16 354.237L1089.39 362.242L1079.31 448.217H1079.42L1068.4 557.688L1062.37 588.98H1062.26L1075.98 620.272L1094.8 635.554C1097.19 637.425 1100.62 637.114 1102.49 634.722C1103.84 633.163 1104.05 630.98 1103.32 629.213C1103.43 629.213 1103.43 629.109 1103.53 629.109C1105.82 627.029 1105.92 623.599 1103.84 621.312L1088.25 604.262C1086.59 600.831 1084.61 597.193 1083.99 595.841C1082.95 593.658 1084.92 591.787 1086.69 592.826L1090.95 599.168C1091.06 599.376 1091.16 599.584 1091.16 599.584V599.48L1099.06 611.227C1100.72 613.722 1104.16 614.45 1106.65 612.683C1109.14 611.02 1109.87 607.589 1108.11 605.094L1098.54 590.851L1096.25 561.222L1124.74 455.495H1124.84L1125.78 451.752L1125.88 451.232Z" fill="#7A2F37"/><path d="M1176.61 205.055C1176.61 195.282 1184.51 187.485 1194.17 187.485C1203.95 187.485 1211.74 195.386 1211.74 205.055C1211.74 214.827 1203.84 222.624 1194.17 222.624C1184.51 222.728 1176.61 214.827 1176.61 205.055Z" fill="#291028"/><path d="M1189.71 192.683C1189.71 185.718 1195.42 180 1202.39 180C1209.35 180 1215.07 185.718 1215.07 192.683C1215.07 199.649 1209.35 205.366 1202.39 205.366C1195.42 205.366 1189.71 199.649 1189.71 192.683Z" fill="#291028"/><path d="M1322.55 377.316L1337 432.519L1299.99 440.524L1282.53 404.242L1322.55 377.316Z" fill="#7A2F37"/><path d="M1103.01 1008.56L1107.17 946.604H1161.74L1151.56 1008.56H1103.01Z" fill="#7A2F37"/><path d="M1304.15 1008.56L1299.99 946.604H1244.8L1254.98 1008.56H1304.15Z" fill="#7A2F37"/><path d="M1308.62 921.133L1291.37 512.361C1291.37 511.529 1290.64 510.905 1289.91 510.905H1210.91C1210.08 510.905 1209.35 510.177 1209.45 509.346L1209.56 507.682C1209.66 506.851 1208.93 506.123 1208.1 506.123H1116.73C1115.9 506.123 1115.28 506.747 1115.28 507.578L1098.02 920.717C1096.98 944.732 1115.9 964.9 1139.91 965.524C1162.89 966.148 1182.12 948.474 1183.57 925.499L1201.76 633.163C1201.87 631.291 1204.57 631.291 1204.78 633.163L1222.97 922.069C1224.42 945.564 1243.86 963.965 1267.46 964.069C1290.74 964.173 1309.56 944.628 1308.62 921.133Z" fill="#232144"/><path d="M1333.05 373.679L1321.83 352.367L1318.29 353.095V352.783C1318.29 352.783 1310.49 331.159 1287.31 320.243C1287.31 320.243 1222.55 301.53 1204.36 301.53C1184.4 301.53 1122.87 320.035 1122.87 320.035V320.451C1111.12 323.154 1099.37 336.565 1092.51 352.367L1088.46 352.575L1078.38 373.887L1122.14 404.035L1112.68 530.867H1126.4H1128.69H1278.27H1282.22H1301.56H1304.05L1287.11 405.491L1316.73 385.114L1333.05 373.679Z" fill="#FF6200"/><path d="M1178.79 315.149V277.1H1231.28V315.149C1231.28 327.416 1221.3 337.397 1209.04 337.397H1200.93C1188.77 337.397 1178.79 327.416 1178.79 315.149Z" fill="#7A2F37"/><path d="M1181.49 262.337C1181.49 256.515 1176.71 251.94 1170.89 252.148C1165.69 252.252 1161.33 256.619 1161.12 261.921C1160.91 267.742 1165.59 272.525 1171.31 272.525C1176.92 272.525 1181.49 267.95 1181.49 262.337Z" fill="#7A2F37"/><path d="M1228.27 262.337C1228.27 256.515 1233.05 251.94 1238.87 252.148C1244.07 252.252 1248.44 256.619 1248.64 261.921C1248.85 267.742 1244.17 272.525 1238.46 272.525C1232.84 272.525 1228.27 267.95 1228.27 262.337Z" fill="#7A2F37"/><path d="M1238.15 274.396V228.03C1238.15 213.06 1225.99 200.896 1210.91 200.896H1198.02C1182.95 200.896 1170.79 213.06 1170.79 228.03V274.396C1170.79 289.367 1182.95 301.53 1198.02 301.53H1211.02C1225.99 301.53 1238.15 289.367 1238.15 274.396Z" fill="#7A2F37"/><path d="M1204.57 280.738C1201.97 280.738 1199.48 280.322 1197.29 279.49L1198.02 277.515C1202.07 278.971 1207.06 278.971 1211.95 277.411L1212.57 279.49C1209.87 280.322 1207.17 280.738 1204.57 280.738Z" fill="#2B2B2A"/><path d="M1198.85 238.635H1175.78V244.768H1198.85V238.635Z" fill="#291028"/><path d="M1208.54 231.334L1208.48 237.987L1231.46 238.174L1231.51 231.521L1208.54 231.334Z" fill="#291028"/><path d="M1214.24 275.332H1194.9C1185.55 275.332 1178.06 282.817 1178.06 291.966V294.981V296.956V299.763C1178.06 308.911 1185.65 316.396 1194.9 316.396H1214.24C1223.59 316.396 1231.08 308.911 1231.08 299.763V296.956V294.981V291.966C1231.08 282.713 1223.59 275.332 1214.24 275.332Z" fill="#291028"/><path d="M1221.51 266.495C1215.9 266.495 1211.43 261.92 1211.43 256.41C1211.43 256.202 1211.43 255.891 1211.43 255.683C1211.43 255.683 1211.43 255.683 1211.43 255.579C1211.85 250.381 1216.21 246.326 1221.51 246.326C1227.13 246.326 1231.6 250.9 1231.6 256.41C1231.6 261.92 1227.13 266.495 1221.51 266.495ZM1187.42 266.495C1181.8 266.495 1177.33 261.92 1177.33 256.41C1177.33 250.796 1181.91 246.326 1187.42 246.326C1192.61 246.326 1196.98 250.381 1197.5 255.475C1197.5 255.787 1197.5 256.098 1197.5 256.41C1197.5 261.92 1193.03 266.495 1187.42 266.495ZM1221.51 242.896C1215.59 242.896 1210.6 246.638 1208.83 251.94C1207.58 251.212 1206.02 250.796 1204.26 250.9C1202.7 250.9 1201.35 251.316 1200.2 251.836C1198.33 246.638 1193.34 242.896 1187.52 242.896C1180.04 242.896 1174.01 248.925 1174.01 256.41C1174.01 263.896 1180.04 269.925 1187.52 269.925C1195.01 269.925 1201.03 263.896 1201.03 256.41C1201.03 256.098 1201.03 255.891 1201.03 255.579C1201.35 254.851 1202.8 254.227 1204.36 254.227C1205.92 254.227 1207.69 254.643 1208.1 255.787C1208.1 255.995 1208.1 256.098 1208.1 256.306C1208.1 263.792 1214.13 269.821 1221.62 269.821C1229.1 269.821 1235.13 263.792 1235.13 256.306C1235.03 248.925 1229 242.896 1221.51 242.896Z" fill="#E6E6E6"/><path d="M1203.84 273.044C1202.28 273.044 1201.03 272.317 1199.89 271.589C1198.12 270.445 1196.98 269.822 1194.8 271.901L1193.34 270.445C1196.67 267.119 1198.96 268.678 1200.83 269.822C1201.76 270.445 1202.7 270.965 1203.63 270.965C1204.67 270.965 1205.5 270.445 1206.44 269.926C1208.21 268.782 1210.49 267.431 1214.13 270.549L1212.88 272.109C1210.29 269.926 1209.14 270.653 1207.48 271.693C1206.65 272.317 1205.4 273.044 1203.84 273.044Z" fill="black"/><path d="M1194.8 257.867C1194.38 259.842 1190.75 260.882 1186.69 260.05C1182.64 259.218 1179.62 256.931 1180.04 254.956C1180.45 252.981 1184.09 251.941 1188.15 252.773C1192.3 253.605 1195.21 255.892 1194.8 257.867Z" fill="white"/><path d="M1191.16 256.411C1191.16 258.49 1189.5 260.153 1187.42 260.153C1185.34 260.153 1183.68 258.49 1183.68 256.411C1183.68 254.331 1185.34 252.668 1187.42 252.668C1189.5 252.668 1191.16 254.331 1191.16 256.411Z" fill="black"/><path d="M1214.24 257.867C1214.65 259.842 1218.29 260.882 1222.34 260.05C1226.4 259.218 1229.41 256.931 1229 254.956C1228.58 252.981 1224.94 251.941 1220.89 252.773C1216.83 253.605 1213.82 255.892 1214.24 257.867Z" fill="white"/><path d="M1217.88 256.411C1217.88 258.49 1219.54 260.153 1221.62 260.153C1223.7 260.153 1225.36 258.49 1225.36 256.411C1225.36 254.331 1223.7 252.668 1221.62 252.668C1219.54 252.668 1217.88 254.331 1217.88 256.411Z" fill="black"/><path d="M1202.38 205.055C1202.38 195.282 1210.28 187.485 1219.95 187.485C1229.72 187.485 1237.52 195.386 1237.52 205.055C1237.52 214.827 1229.62 222.624 1219.95 222.624C1210.28 222.728 1202.38 214.827 1202.38 205.055Z" fill="#291028"/><path d="M722.456 451.232L745.74 354.237L685.97 362.242L675.887 448.217H675.99L664.972 557.688L658.943 588.98H658.839L672.56 620.272L691.375 635.554C693.766 637.425 697.196 637.114 699.067 634.722C700.418 633.163 700.626 630.98 699.899 629.213C700.003 629.213 700.003 629.109 700.107 629.109C702.393 627.029 702.497 623.599 700.418 621.312L684.826 604.262C683.163 600.831 681.188 597.193 680.564 595.841C679.525 593.658 681.5 591.787 683.267 592.826L687.529 599.168C687.633 599.376 687.737 599.584 687.737 599.584V599.48L695.637 611.227C697.3 613.722 700.73 614.45 703.225 612.683C705.72 611.02 706.448 607.589 704.68 605.094L695.117 590.851L692.83 561.222L721.312 455.495H721.416L722.352 451.752L722.456 451.232Z" fill="#7A2F37"/><path d="M773.182 205.055C773.182 195.282 781.082 187.485 790.749 187.485C800.52 187.485 808.316 195.386 808.316 205.055C808.316 214.827 800.416 222.624 790.749 222.624C781.082 222.728 773.182 214.827 773.182 205.055Z" fill="#291028"/><path d="M786.383 192.683C786.383 185.718 792.1 180 799.065 180C806.029 180 811.746 185.718 811.746 192.683C811.746 199.649 806.029 205.366 799.065 205.366C791.996 205.366 786.383 199.649 786.383 192.683Z" fill="#291028"/><path d="M921.62 376.174L942.098 427.114L899.063 439.486L881.6 403.1L921.62 376.174Z" fill="#7A2F37"/><path d="M699.587 1008.56L703.745 946.604H758.318L748.131 1008.56H699.587Z" fill="#7A2F37"/><path d="M900.726 1008.56L896.568 946.604H841.371L851.662 1008.56H900.726Z" fill="#7A2F37"/><path d="M717.882 977.376C700.315 977.376 685.97 989.331 684.826 1004.41V1020H750.938V1004.41C749.898 989.331 735.449 977.376 717.882 977.376Z" fill="#232144"/><path d="M883.681 977.376C866.113 977.376 851.768 989.331 850.625 1004.41V1004.3V1019.9H916.737V1004.3C915.697 989.331 901.248 977.376 883.681 977.376Z" fill="#232144"/><path d="M1119.12 977.376C1101.55 977.376 1087.31 989.331 1086.17 1004.41H1086.07V1020H1152.18V1004.41H1152.07C1151.03 989.331 1136.69 977.376 1119.12 977.376Z" fill="#232144"/><path d="M1284.92 977.376C1267.36 977.376 1253.11 989.331 1251.97 1004.41H1251.87V1020H1317.98V1004.41H1317.87C1316.84 989.331 1302.49 977.376 1284.92 977.376Z" fill="#232144"/><path d="M905.196 919.99L888.045 513.193C888.045 511.945 887.005 511.01 885.758 511.01H808.316C806.964 511.01 805.925 509.866 806.029 508.619C806.133 507.267 805.093 506.228 803.742 506.228H714.034C712.787 506.228 711.851 507.163 711.747 508.411L694.596 919.574C693.556 944.213 712.891 964.901 737.527 965.525C759.876 966.148 778.586 948.891 780.042 926.643L797.505 645.638C797.713 642.831 801.871 642.831 802.079 645.638L819.542 923.213C820.998 946.084 839.812 963.861 862.681 964.069C886.797 964.173 906.132 944.109 905.196 919.99Z" fill="#232144"/><path d="M929.625 373.679L918.399 352.367L914.864 353.095V352.783C914.864 352.783 907.068 331.159 883.888 320.243C883.888 320.243 819.127 301.53 800.936 301.53C780.978 301.53 719.44 320.035 719.44 320.035V320.451C707.694 323.154 695.948 336.565 689.087 352.367L685.033 352.575L674.95 373.887L718.713 404.035L709.253 530.867H722.975H725.261H874.844H878.794H898.129H900.623L883.68 405.491L913.305 385.114L929.625 373.679Z" fill="#FF6200"/><path d="M775.365 315.149V277.1H827.859V315.149C827.859 327.416 817.88 337.397 805.614 337.397H797.506C785.344 337.397 775.365 327.416 775.365 315.149Z" fill="#7A2F37"/><path d="M778.066 262.337C778.066 256.515 773.285 251.94 767.463 252.148C762.266 252.252 757.9 256.619 757.692 261.921C757.484 267.742 762.162 272.525 767.879 272.525C773.596 272.525 778.066 267.95 778.066 262.337Z" fill="#7A2F37"/><path d="M824.844 262.337C824.844 256.515 829.625 251.94 835.447 252.148C840.644 252.252 845.01 256.619 845.218 261.921C845.426 267.742 840.748 272.525 835.031 272.525C829.417 272.525 824.844 267.95 824.844 262.337Z" fill="#7A2F37"/><path d="M834.72 274.396V228.03C834.72 213.06 822.558 200.896 807.485 200.896H794.491C779.419 200.896 767.257 213.06 767.257 228.03V274.396C767.257 289.367 779.419 301.53 794.491 301.53H807.485C822.558 301.53 834.72 289.367 834.72 274.396Z" fill="#7A2F37"/><path d="M801.142 280.738C798.543 280.738 796.048 280.322 793.865 279.49L794.593 277.515C798.647 278.971 803.636 278.971 808.522 277.411L809.146 279.49C806.443 280.322 803.74 280.738 801.142 280.738Z" fill="#2B2B2A"/><path d="M795.426 238.635H772.35V244.768H795.426V238.635Z" fill="#291028"/><path d="M805.136 231.371L805.082 238.024L828.055 238.212L828.109 231.558L805.136 231.371Z" fill="#291028"/><path d="M810.809 275.332H791.475C782.119 275.332 774.635 282.817 774.635 291.966V294.981V296.956V299.763C774.635 308.911 782.223 316.396 791.475 316.396H810.809C820.164 316.396 827.649 308.911 827.649 299.763V296.956V294.981V291.966C827.649 282.713 820.164 275.332 810.809 275.332Z" fill="#291028"/><path d="M818.091 266.495C812.477 266.495 808.008 261.92 808.008 256.41C808.008 256.202 808.008 255.891 808.008 255.683C808.008 255.683 808.008 255.683 808.008 255.579C808.423 250.381 812.789 246.326 818.091 246.326C823.704 246.326 828.174 250.9 828.174 256.41C828.278 261.92 823.704 266.495 818.091 266.495ZM783.995 266.495C778.382 266.495 773.912 261.92 773.912 256.41C773.912 250.796 778.486 246.326 783.995 246.326C789.193 246.326 793.559 250.381 794.078 255.475C794.078 255.787 794.078 256.098 794.078 256.41C794.182 261.92 789.609 266.495 783.995 266.495ZM818.091 242.896C812.166 242.896 807.176 246.638 805.409 251.94C804.161 251.212 802.602 250.796 800.835 250.9C799.276 250.9 797.925 251.316 796.781 251.836C794.91 246.638 789.92 242.896 784.099 242.896C776.615 242.896 770.586 248.925 770.586 256.41C770.586 263.896 776.615 269.925 784.099 269.925C791.584 269.925 797.613 263.896 797.613 256.41C797.613 256.098 797.613 255.891 797.613 255.579C797.925 254.851 799.38 254.227 800.939 254.227C802.498 254.227 804.265 254.643 804.681 255.787C804.681 255.995 804.681 256.098 804.681 256.306C804.681 263.792 810.71 269.821 818.195 269.821C825.679 269.821 831.708 263.792 831.708 256.306C831.604 248.925 825.575 242.896 818.091 242.896Z" fill="#E6E6E6"/><path d="M800.417 273.044C798.858 273.044 797.61 272.317 796.467 271.589C794.7 270.445 793.556 269.822 791.373 271.901L789.918 270.445C793.244 267.119 795.531 268.678 797.402 269.822C798.338 270.445 799.273 270.965 800.209 270.965C801.248 270.965 802.08 270.445 803.016 269.926C804.783 268.782 807.07 267.431 810.708 270.549L809.46 272.109C806.862 269.926 805.718 270.653 804.055 271.693C803.223 272.317 801.976 273.044 800.417 273.044Z" fill="black"/><path d="M791.371 257.867C790.956 259.842 787.317 260.882 783.263 260.05C779.209 259.218 776.195 256.931 776.611 254.956C777.026 252.981 780.665 251.941 784.719 252.773C788.877 253.605 791.787 255.892 791.371 257.867Z" fill="white"/><path d="M787.735 256.411C787.735 258.49 786.072 260.153 783.993 260.153C781.913 260.153 780.25 258.49 780.25 256.411C780.25 254.331 781.913 252.668 783.993 252.668C786.072 252.668 787.735 254.331 787.735 256.411Z" fill="black"/><path d="M810.81 257.867C811.226 259.842 814.864 260.882 818.918 260.05C822.972 259.218 825.986 256.931 825.571 254.956C825.155 252.981 821.517 251.941 817.463 252.773C813.409 253.605 810.394 255.892 810.81 257.867Z" fill="white"/><path d="M814.449 256.411C814.449 258.49 816.113 260.153 818.192 260.153C820.271 260.153 821.934 258.49 821.934 256.411C821.934 254.331 820.271 252.668 818.192 252.668C816.113 252.668 814.449 254.331 814.449 256.411Z" fill="black"/><path d="M799.062 205.055C799.062 195.282 806.963 187.485 816.63 187.485C826.401 187.485 834.197 195.386 834.197 205.055C834.197 214.827 826.297 222.624 816.63 222.624C806.963 222.728 799.062 214.827 799.062 205.055Z" fill="#291028"/><path d="M1217.36 344.674H1191.16H1183.68L1191.16 407.362H1217.36L1224.84 344.674H1217.36Z" fill="#BAC09A"/><path d="M1222.97 340.618V334.173H1185.44V340.618H1180.56V347.064H1227.96V340.618H1222.97Z" fill="white"/><path d="M1185.44 360.371H1222.97L1219.23 390.416H1189.5L1185.44 360.371Z" fill="white"/><path d="M1225.98 368.688L1323.69 414.639C1335.75 420.357 1340.53 435.015 1334.09 446.763C1327.54 458.51 1312.36 462.253 1301.14 454.872L1208.73 394.055L1225.98 368.688Z" fill="#7A2F37"/><path d="M1221.93 370.351L1223.38 357.356H1223.7C1226.71 357.668 1229 360.163 1229 363.074V370.559L1221.93 370.351Z" fill="#7A2F37"/><path d="M1190.33 362.555L1186.48 362.347C1183.16 362.139 1180.24 364.738 1180.04 368.064C1179.93 370.04 1180.76 371.807 1182.12 372.951C1180.14 373.886 1178.69 375.758 1178.58 378.149C1178.48 380.748 1179.93 383.035 1182.22 384.074C1180.87 385.114 1180.04 386.673 1179.93 388.545C1179.83 390.728 1180.87 392.703 1182.64 393.951C1182.43 394.574 1182.22 395.198 1182.22 395.822C1182.01 399.149 1184.61 402.06 1187.94 402.267H1188.35V402.475L1228.48 403.307L1228.79 365.05L1190.33 362.555Z" fill="#7A2F37"/><path d="M814.033 409.336H787.734H780.25L787.734 472.024H814.033L821.414 409.336H814.033Z" fill="#BAC09A"/><path d="M819.648 405.385V398.836H782.122V405.385H777.133V411.831H824.534V405.385H819.648Z" fill="white"/><path d="M782.121 425.139H819.647L815.904 455.079H786.071L782.121 425.139Z" fill="white"/><path d="M823.078 432.52L916.528 418.693C929.626 416.094 944.075 423.475 945.738 436.678C947.401 449.985 937.422 462.044 923.909 462.668L827.028 466.619L823.078 432.52Z" fill="#7A2F37"/><path d="M818.607 435.119L820.063 422.124H820.375C823.39 422.436 825.677 424.931 825.677 427.842V435.327L818.607 435.119Z" fill="#7A2F37"/><path d="M786.904 427.322L783.058 427.114C779.731 426.906 776.821 429.505 776.613 432.832C776.509 434.807 777.34 436.575 778.692 437.718C776.717 438.654 775.262 440.525 775.158 442.916C775.054 445.515 776.509 447.802 778.796 448.842C777.444 449.882 776.613 451.441 776.509 453.312C776.405 455.495 777.444 457.471 779.212 458.718C779.004 459.342 778.796 459.966 778.796 460.589C778.588 463.916 781.187 466.827 784.513 467.035H784.929V467.243L829.731 466.723L825.365 429.921L786.904 427.322Z" fill="#7A2F37"/><path d="M437.531 278.97H363.728V305.584H437.531V278.97Z" fill="#FFCD94"/><path d="M390.232 1001.08L394.806 487.826H379.941C337.738 487.826 306.761 504.876 310.087 552.282L350.212 979.455L390.232 1001.08Z" fill="#693725"/><path d="M500.834 580.039L504.264 557.064L455.928 379.188L494.597 333.965L530.771 550.098L537.424 575.673L525.781 608.212L507.902 624.95C505.615 627.029 502.185 626.925 500.002 624.638C498.547 623.079 498.235 620.999 498.755 619.128C498.651 619.128 498.651 619.024 498.547 619.024C496.156 617.153 495.74 613.618 497.611 611.227L512.164 592.93C513.619 589.292 515.283 585.549 515.802 584.094C516.634 581.91 514.659 580.143 512.892 581.287L509.046 587.94C508.942 588.148 508.838 588.356 508.838 588.356V588.252L501.665 600.727C500.106 603.43 496.78 604.262 494.077 602.806C491.374 601.247 490.543 597.92 491.998 595.217L500.834 580.039Z" fill="#693725"/><path d="M502.29 342.387L512.477 418.07H464.036L456.24 370.04L502.29 342.387Z" fill="#232144"/><path d="M369.549 270.445C381.663 270.445 391.483 260.624 391.483 248.509C391.483 236.394 381.663 226.573 369.549 226.573C357.436 226.573 347.616 236.394 347.616 248.509C347.616 260.624 357.436 270.445 369.549 270.445Z" fill="#FFCD94"/><path d="M430.563 270.445C442.676 270.445 452.496 260.624 452.496 248.509C452.496 236.394 442.676 226.573 430.563 226.573C418.45 226.573 408.63 236.394 408.63 248.509C408.63 260.624 418.45 270.445 430.563 270.445Z" fill="#FFCD94"/><path d="M364.765 305.583C378.314 305.583 389.297 294.598 389.297 281.048C389.297 267.498 378.314 256.514 364.765 256.514C351.217 256.514 340.233 267.498 340.233 281.048C340.233 294.598 351.217 305.583 364.765 305.583Z" fill="#FFCD94"/><path d="M437.842 305.583C451.391 305.583 462.374 294.598 462.374 281.048C462.374 267.498 451.391 256.514 437.842 256.514C424.294 256.514 413.311 267.498 413.311 281.048C413.311 294.598 424.294 305.583 437.842 305.583Z" fill="#FFCD94"/><path d="M299.486 580.039L296.056 557.064L344.392 379.188L305.723 333.965L269.653 550.098L263 575.673L274.642 608.212L292.625 624.95C294.912 627.029 298.343 626.925 300.526 624.638C301.981 623.079 302.293 620.999 301.773 619.128C301.877 619.128 301.877 619.024 301.981 619.024C304.372 617.153 304.787 613.618 302.916 611.227L288.364 592.93C286.908 589.292 285.245 585.549 284.725 584.094C283.894 581.91 285.869 580.143 287.636 581.287L291.482 587.94C291.586 588.148 291.69 588.356 291.69 588.356V588.252L298.862 600.727C300.422 603.43 303.748 604.262 306.451 602.806C309.153 601.247 309.985 597.92 308.53 595.217L299.486 580.039Z" fill="#693725"/><path d="M334.932 450.088L330.566 312.652H470.274L467.675 449.568L334.932 450.088Z" fill="#232144"/><path d="M463.518 995.257L396.159 490.322L411.232 489.906C453.851 488.866 488.778 504.357 486.491 551.347L505.721 985.173L463.518 995.257Z" fill="#693725"/><path d="M298.239 348.936C296.888 330.327 310.817 314.109 329.424 312.758C348.031 311.406 364.247 325.337 365.598 343.842C366.949 362.451 344.288 391.04 344.288 391.04C344.288 391.04 299.59 367.545 298.239 348.936Z" fill="#232144"/><path d="M433.684 272.42C439.138 272.42 443.559 267.999 443.559 262.544C443.559 257.09 439.138 252.668 433.684 252.668C428.23 252.668 423.809 257.09 423.809 262.544C423.809 267.999 428.23 272.42 433.684 272.42Z" fill="#693725"/><path d="M366.429 272.42C371.883 272.42 376.304 267.999 376.304 262.544C376.304 257.09 371.883 252.668 366.429 252.668C360.975 252.668 356.554 257.09 356.554 262.544C356.554 267.999 360.975 272.42 366.429 272.42Z" fill="#693725"/><path d="M375.577 310.886V279.075L424.537 277.619V310.783C424.537 324.297 413.622 335.213 400.005 335.213C386.492 335.421 375.577 324.401 375.577 310.886Z" fill="#5D2B1A"/><path d="M367.572 276.476V229.174C367.572 214.515 379.422 202.768 393.975 202.768H406.033C420.69 202.768 432.436 214.619 432.436 229.174V276.476C432.436 291.134 420.586 302.881 406.033 302.881H393.975C379.422 302.985 367.572 291.134 367.572 276.476Z" fill="#693725"/><path d="M399.901 273.356C399.485 273.356 399.173 273.356 398.757 273.252C397.614 273.044 396.574 272.421 395.535 271.589C395.015 271.069 394.495 270.861 393.975 270.965C392.936 271.069 392 272.109 392 272.213L390.961 271.381C390.961 271.277 392.208 269.821 393.871 269.718C394.807 269.614 395.639 269.925 396.47 270.757C397.302 271.485 398.133 272.005 399.069 272.109C400.004 272.317 400.732 272.213 401.46 271.901C401.772 271.797 402.083 271.485 402.291 271.277C402.603 270.861 403.643 270.029 404.994 269.925C406.137 269.925 407.177 270.341 408.32 271.381L407.385 272.317C406.553 271.589 405.826 271.173 404.994 271.173C404.059 271.173 403.435 271.797 403.227 272.109C402.811 272.524 402.395 272.836 401.98 273.044C401.356 273.252 400.628 273.356 399.901 273.356Z" fill="black"/><path d="M400.109 283.129C400.109 280.322 395.847 280.738 395.847 280.738H386.18C386.284 280.218 399.797 301.322 413.934 280.738H404.371C404.371 280.738 400.109 280.322 400.109 283.129Z" fill="#E73245"/><path d="M391.377 260.881C391.377 260.881 388.986 255.787 384.412 254.228C379.838 252.668 374.849 255.163 374.849 255.163C374.849 255.163 376.72 259.322 381.19 260.881C385.763 262.44 391.377 260.881 391.377 260.881Z" fill="white"/><path d="M382.438 261.297C384.62 261.297 386.388 259.529 386.388 257.347C386.388 255.165 384.62 253.396 382.438 253.396C380.256 253.396 378.487 255.165 378.487 257.347C378.487 259.529 380.256 261.297 382.438 261.297Z" fill="black"/><path d="M391.378 260.881C390.234 252.772 379.943 249.342 373.603 253.084C374.018 253.708 374.746 254.956 375.162 255.579C376.513 254.748 383.79 251.837 390.338 259.738C390.754 260.154 390.754 260.362 391.378 260.881Z" fill="black"/><path d="M407.387 260.986C407.387 260.986 409.778 255.891 414.351 254.332C418.925 252.773 423.915 255.268 423.915 255.268C423.915 255.268 422.044 259.426 417.574 260.986C412.896 262.545 407.387 260.986 407.387 260.986Z" fill="white"/><path d="M415.596 261.609C417.778 261.609 419.547 259.84 419.547 257.658C419.547 255.477 417.778 253.708 415.596 253.708C413.414 253.708 411.646 255.477 411.646 257.658C411.646 259.84 413.414 261.609 415.596 261.609Z" fill="black"/><path d="M407.387 260.985C408.53 252.876 418.821 249.445 425.162 253.188C424.746 253.812 424.019 255.059 423.603 255.683C422.251 254.851 414.975 251.94 408.426 259.841C408.01 260.257 407.906 260.465 407.387 260.985Z" fill="black"/><path d="M502.81 348.936C504.161 330.327 490.232 314.109 471.625 312.758C453.018 311.406 436.802 325.337 435.451 343.842C434.099 362.347 456.76 391.04 456.76 391.04C456.76 391.04 501.458 367.545 502.81 348.936Z" fill="#232144"/><path d="M467.778 445.203H408.216H334.724C334.724 445.203 298.446 492.297 306.554 592.619C306.658 593.555 336.699 967.292 339.921 964.901C340.753 964.277 393.871 963.758 393.351 964.173C392.935 964.589 395.846 716.54 395.846 716.54L400.731 531.49H401.667L409.983 597.609C409.983 597.609 458.319 962.614 458.007 962.614C457.487 962.614 508.526 962.926 508.526 962.926C508.526 962.926 495.741 593.243 495.845 592.411C503.953 492.297 467.778 445.203 467.778 445.203Z" fill="#E73245"/><path d="M425.369 531.074H381.71V556.129H425.369V531.074Z" fill="#E73245"/><path d="M436.388 243.624C398.551 243.624 400.11 215.242 400.11 215.242V206.822H398.447L398.343 215.242C398.343 215.242 399.798 243.624 364.144 243.624V228.549V227.614C364.144 213.371 374.642 201.728 388.987 201.728H411.44C425.681 201.728 436.284 213.267 436.284 227.614V243.624H436.388Z" fill="#FFCD94"/><path d="M396.471 243.312H372.562V247.263H396.471V243.312Z" fill="black"/><path d="M429.215 236.762H405.307V240.712H429.215V236.762Z" fill="black"/><path d="M298.135 342.387L287.948 418.07H336.388L344.185 370.04L298.135 342.387Z" fill="#232144"/><path d="M491.064 977.168C473.496 977.168 459.151 989.123 458.008 1004.2V1004.09V1007.84H524.119V1004.09C523.08 989.123 508.631 977.168 491.064 977.168Z" fill="#232144"/><path d="M524.119 1007.84H458.008V1020H524.119V1007.84Z" fill="#E73245"/><path d="M391.378 1007.84H325.267V1020H391.378V1007.84Z" fill="#E73245"/><path d="M358.322 977.168C340.755 977.168 326.41 989.123 325.267 1004.2V1007.84H391.378V1004.09C390.235 989.123 375.89 977.168 358.322 977.168Z" fill="#232144"/></svg>