<svg viewBox="0 0 1600 1200" fill="none" xmlns="http://www.w3.org/2000/svg"><path d="M1101.49 1002.14C1092.25 1002.14 1087.52 1000.45 1083 998.773C1078.49 997.197 1074.28 995.62 1065.56 995.62C1056.85 995.62 1052.54 997.197 1048.13 998.773C1043.61 1000.45 1038.88 1002.14 1029.64 1002.14C1020.39 1002.14 1015.66 1000.45 1011.15 998.773C1006.63 997.197 1002.43 995.62 993.707 995.62V992.678C1002.95 992.678 1007.68 994.359 1012.2 996.041C1016.71 997.617 1020.92 999.193 1029.64 999.193C1038.36 999.193 1042.66 997.617 1047.08 996.041C1051.59 994.359 1056.32 992.678 1065.56 992.678C1074.81 992.678 1079.54 994.359 1084.05 996.041C1088.57 997.617 1092.77 999.193 1101.49 999.193V1002.14Z" fill="#E73245"/><path d="M1188.19 1010.59L1188.16 981.373L1070.6 981.51L1070.63 1010.73L1188.19 1010.59Z" fill="#FBB03B"/><path d="M1176.92 981.432H1161.69L1147.4 1010.65H1162.64L1176.92 981.432Z" fill="#E73245"/><path d="M1144.88 981.432L1129.54 981.537L1115.25 1010.75H1130.59L1144.88 981.432Z" fill="#E73245"/><path d="M1112.84 981.537H1097.5L1083.21 1010.75H1098.45L1112.84 981.537Z" fill="#E73245"/><path d="M383.124 953.058C387.011 953.058 390.162 949.905 390.162 946.017C390.162 942.128 387.011 938.976 383.124 938.976C379.236 938.976 376.085 942.128 376.085 946.017C376.085 949.905 379.236 953.058 383.124 953.058Z" fill="#ED1E79"/><path d="M1236.7 978.173C1239.14 978.173 1241.11 976.197 1241.11 973.76C1241.11 971.322 1239.14 969.346 1236.7 969.346C1234.26 969.346 1232.29 971.322 1232.29 973.76C1232.29 976.197 1234.26 978.173 1236.7 978.173Z" fill="#ED1E79"/><path d="M1245.21 1005.08C1246.77 1005.08 1248.04 1003.81 1248.04 1002.24C1248.04 1000.67 1246.77 999.402 1245.21 999.402C1243.64 999.402 1242.37 1000.67 1242.37 1002.24C1242.37 1003.81 1243.64 1005.08 1245.21 1005.08Z" fill="#FBB03B"/><path d="M1286.07 1020C1288.74 1020 1290.91 1017.84 1290.91 1015.17C1290.91 1012.5 1288.74 1010.33 1286.07 1010.33C1283.41 1010.33 1281.24 1012.5 1281.24 1015.17C1281.24 1017.84 1283.41 1020 1286.07 1020Z" fill="#7070FF"/><path d="M1367.39 982.378C1369.77 982.378 1371.7 980.449 1371.7 978.069C1371.7 975.69 1369.77 973.761 1367.39 973.761C1365.01 973.761 1363.08 975.69 1363.08 978.069C1363.08 980.449 1365.01 982.378 1367.39 982.378Z" fill="#232144"/><path d="M1270.93 981.438V985.852H1320.2V981.438H1270.93Z" fill="#006931"/><path d="M1218.63 1006.34H1209.8V1015.17H1218.63V1006.34Z" fill="#232144"/><path d="M302.756 1003.19C302.02 1003.19 301.39 1002.98 300.655 1002.66C297.293 1000.88 295.297 994.992 295.297 986.585H297.503C297.503 995.412 299.709 999.616 301.705 1000.67C302.546 1001.09 303.386 1000.98 304.227 1000.46C304.857 1000.04 305.382 999.406 305.907 998.67C304.542 995.728 303.806 991.524 303.911 986.585C303.911 984.903 305.067 983.747 306.643 983.747C308.009 983.642 309.584 984.588 309.9 986.374C310.425 991.209 309.9 995.623 308.429 998.67C309.059 999.616 309.689 1000.25 310.215 1000.56C311.055 1001.09 311.896 1000.98 312.736 1000.46C313.261 1000.14 313.892 999.511 314.417 998.67C313.156 995.728 312.421 991.524 312.421 986.585C312.421 984.693 313.366 983.852 313.997 983.537C314.942 983.011 316.098 983.011 317.043 983.642C317.989 984.273 318.514 985.218 318.514 986.374C318.934 991.419 318.304 995.833 316.938 998.775C317.779 1000.25 318.724 1000.98 319.67 1000.98C320.72 1000.98 321.981 999.931 323.032 997.619C320.93 993.941 319.88 988.791 321.351 984.167C321.771 982.801 322.926 981.961 324.292 982.171C325.763 982.381 327.129 983.852 327.129 986.164C327.129 990.998 326.498 994.677 325.448 997.409C325.868 997.935 326.183 998.46 326.603 998.88C327.234 999.511 328.599 1000.56 329.755 1000.14C330.911 999.721 331.961 998.145 332.592 995.517C331.751 995.097 331.016 994.572 330.49 994.046C327.969 991.524 327.549 987.32 328.599 984.903C329.125 983.537 330.175 982.801 331.331 982.801C332.486 982.801 333.537 983.222 334.272 984.167C335.743 985.849 336.058 989.107 335.218 994.046C336.794 994.256 338.685 993.941 340.786 993.1C344.148 991.734 346.354 986.69 347.614 983.011L349.716 983.747C348.14 988.161 345.723 993.521 341.626 995.097C338.79 996.253 336.479 996.463 334.798 996.148C333.957 999.616 332.487 1001.61 330.49 1002.24C328.705 1002.77 326.814 1002.14 325.028 1000.46C324.817 1000.25 324.502 999.931 324.292 999.721C322.926 1002.03 321.246 1003.19 319.565 1003.19C318.619 1003.19 317.043 1002.87 315.573 1000.88C315.047 1001.51 314.522 1002.03 313.892 1002.35C312.316 1003.29 310.635 1003.4 309.059 1002.45C308.324 1002.03 307.693 1001.4 307.063 1000.67C306.538 1001.3 306.013 1001.82 305.382 1002.24C304.647 1002.98 303.701 1003.19 302.756 1003.19ZM306.748 985.954C306.433 985.954 306.013 986.059 306.013 986.585C305.907 990.473 306.433 993.521 307.063 995.833C307.693 993.521 308.009 990.368 307.588 986.69C307.588 985.954 306.958 985.954 306.748 985.954ZM315.468 985.324C315.362 985.324 315.257 985.323 315.152 985.429C314.732 985.639 314.732 986.269 314.732 986.585C314.732 990.683 315.257 993.626 315.783 995.622C316.413 993.31 316.728 990.263 316.413 986.374C316.413 985.849 316.203 985.534 315.993 985.429C315.783 985.429 315.573 985.324 315.468 985.324ZM323.872 984.378C323.767 984.378 323.557 984.483 323.452 984.798C322.401 988.056 322.821 991.734 324.082 994.677C324.607 992.47 325.028 989.632 325.028 986.164C324.923 985.008 324.292 984.483 323.872 984.378ZM331.331 985.113C331.121 985.113 330.806 985.534 330.701 985.849C330.07 987.32 330.175 990.683 332.171 992.575C332.487 992.89 332.802 993.1 333.117 993.31C333.957 988.056 333.117 986.269 332.592 985.534C332.381 985.218 331.961 985.113 331.331 985.113Z" fill="#463EC5"/><path d="M1188.16 981.432L1184.38 986.161L1188.16 992.046L1183.86 996.039L1188.16 1000.24L1183.86 1004.76L1188.16 1010.65H1198.67V981.537L1188.16 981.432Z" fill="white"/><path d="M1249.52 828.733L1206.65 753.066L1168.52 787.537L1224.83 856.687L1249.52 828.733Z" fill="#FFC4B8"/><path d="M1266.64 839.033L1210.02 908.814L1220.31 917.011L1276.94 847.23L1266.64 839.033Z" fill="#01464D"/><path d="M1266.64 838.925L1253.51 828.311L1222.94 865.828L1205.39 905.028L1210.02 908.811L1266.64 838.925Z" fill="#D8CBC5"/><path d="M1266.64 839.03L1249.31 824.106L1221.99 858.261L1225.56 887.162L1266.64 839.03Z" fill="#D8CBC5"/><path d="M1331.35 664.576C1329.04 671.512 1324.53 676.767 1320.95 680.445C1310.66 690.954 1283.34 690.534 1260.65 690.009L1201.4 689.904L1240.59 766.41C1249.1 783.015 1245.42 803.193 1231.76 815.699C1209.39 836.191 1173.35 826.418 1164.42 797.413L1140.57 720.485C1142.68 709.556 1162.22 619.807 1173.04 617.285L1265.91 604.149L1362.77 533.106L1331.35 664.576Z" fill="#D8CBC5"/><path d="M1121.24 883.066L1152.66 801.935L1101.81 794.264L1084.16 881.7L1121.24 883.066Z" fill="#FFC4B8"/><path d="M1124.29 902.716L1034.47 903.241L1034.57 916.483L1124.39 915.957L1124.29 902.716Z" fill="#01464D"/><path d="M1124.4 902.72L1124.19 885.8L1075.76 886.01L1034.36 897.255L1034.47 903.245L1124.4 902.72Z" fill="#E6E3DA"/><path d="M1124.29 902.715L1124.82 879.91L1081.01 880.436L1060.94 901.559L1124.29 902.715Z" fill="#E6E3DA"/><path d="M802.821 361.915L705.96 382.828L691.042 375.577L668.35 379.045L647.654 391.341C645.763 392.392 645.028 394.704 645.868 396.7C646.814 398.802 649.335 399.853 651.436 398.907L654.483 397.646L654.378 397.751C653.747 399.118 653.957 400.694 654.798 401.955C656.058 403.742 658.58 404.267 660.471 403.006L676.019 393.022L684.213 391.236L684.634 395.019L673.077 398.907C670.766 399.748 669.4 402.165 670.031 404.582C670.661 406.789 672.657 408.261 674.968 408.155L707.746 406.054L808.074 400.063L802.821 361.915Z" fill="#FFC98C"/><path d="M615.088 423.603C620.077 423.603 624.122 419.557 624.122 414.565C624.122 409.574 620.077 405.527 615.088 405.527C610.098 405.527 606.053 409.574 606.053 414.565C606.053 419.557 610.098 423.603 615.088 423.603Z" fill="#9F5621"/><path d="M675.073 423.603C680.063 423.603 684.108 419.557 684.108 414.565C684.108 409.574 680.063 405.527 675.073 405.527C670.083 405.527 666.038 409.574 666.038 414.565C666.038 419.557 670.083 423.603 675.073 423.603Z" fill="#9F5621"/><path d="M859.131 712.923H845.158V915.855H859.131V712.923Z" fill="#8BB1CD"/><path d="M991.639 720.358V703.018H845.086V720.358H991.639Z" fill="#8BB1CD"/><path d="M991.711 712.923H977.738V915.855H991.711V712.923Z" fill="#8BB1CD"/><path d="M1004 510.095H832.447V703.674H1004V510.095Z" fill="#729AB6"/><path d="M718.881 510.095H572.118V703.674H718.881V510.095Z" fill="#729AB6"/><path d="M972.38 902.507L1003.58 901.981L999.904 821.586L962.609 822.427L972.38 902.507Z" fill="#FFC98C"/><path d="M1002.43 892.63L971.434 897.57L968.598 873.924H1003.58L1002.43 892.63Z" fill="#D8CBC5"/><path d="M966.708 906.606C966.603 892.629 977.949 881.279 991.816 881.174C1005.79 881.068 1017.13 892.418 1017.24 906.291" fill="#891229"/><path d="M959.877 858.474L903.672 485.082L988.242 466.061C1008.41 499.9 1012.82 550.239 1011.14 580.19L1003.58 859.63L959.877 858.474Z" fill="#891229"/><path d="M836.963 505.259C857.764 444.726 885.814 426.335 885.814 426.335L987.928 461.541C987.928 461.541 999.694 492.122 978.263 554.232C973.43 568.419 908.611 526.277 908.611 526.277C908.611 526.277 832.026 519.657 836.963 505.259Z" fill="#891229"/><path d="M889.806 427.281C842.006 442.835 798.513 520.603 769.833 600.368C743.464 673.617 814.692 662.057 814.692 662.057L925.735 517.87L889.806 427.281Z" fill="#891229"/><path d="M866.589 823.373L854.927 737.197L806.707 755.063L833.391 840.082L866.589 823.373Z" fill="#FFC98C"/><path d="M878.67 839.244L800.299 883.067L806.812 894.522L885.184 850.699L878.67 839.244Z" fill="#891229"/><path d="M878.775 839.136L870.476 824.423L828.139 847.858L797.357 877.81L800.299 883.064L878.775 839.136Z" fill="#891229"/><path d="M869.319 825.478C868.059 822.535 864.487 798.574 864.487 798.574L825.406 813.602L831.184 842.608L869.319 825.478Z" fill="#D8CBC5"/><path d="M878.67 839.243L868.165 818.96L830.03 840.504L822.676 868.773L878.67 839.243Z" fill="#891229"/><path d="M868.586 769.356L810.491 784.279L764.477 635.469L832.447 600.368L868.586 769.356Z" fill="#891229"/><path d="M1017.23 906.502L966.695 906.729L966.737 916.082L1017.27 915.855L1017.23 906.502Z" fill="#891229"/><path d="M1331.98 664.159C1330.2 669.939 1327.15 675.404 1322.95 679.818C1312.65 690.327 1281.45 689.381 1263.91 688.54L1194.68 687.384L1176.4 810.342C1172.09 839.137 1144.25 858.158 1115.89 851.643C1085.42 844.602 1068.82 811.708 1081.32 783.018L1145.09 636.835C1147.19 625.905 1155.6 617.288 1166.42 614.871L1266.22 604.151L1345.33 607.199L1331.98 664.159Z" fill="#E6E3DA"/><path d="M586.301 712.923H572.329V915.855H586.301V712.923Z" fill="#8BB1CD"/><path d="M718.859 720.412V703.072H572.307V720.412H718.859Z" fill="#8BB1CD"/><path d="M718.883 712.923H704.91V915.855H718.883V712.923Z" fill="#8BB1CD"/><path d="M400.982 786.588L443.95 768.407L470.004 833.459L436.386 848.382L400.982 786.588Z" fill="#A86554"/><path d="M513.7 813.405L434.518 848.657L439.729 860.371L518.911 825.118L513.7 813.405Z" fill="#232144"/><path d="M434.39 848.702L427.771 833.779L430.713 833.464C443.32 831.993 454.876 825.267 462.125 814.968L462.965 813.707L503.411 808.032C507.719 807.401 511.921 809.608 513.602 813.496L434.39 848.702Z" fill="#F7E5CD"/><path d="M217.662 534.58H203.689V915.748H217.662V534.58Z" fill="#8BB1CD"/><path d="M372.303 534.58H358.331V915.748H372.303V534.58Z" fill="#8BB1CD"/><path d="M372.265 719.94V702.6H203.756V719.94H372.265Z" fill="#8BB1CD"/><path d="M1286.08 736.463H1266.75V875.184H1286.08V736.463Z" fill="#8BB1CD"/><path d="M1285.55 742.558H1267.27C1256.66 742.558 1248.15 733.941 1248.15 723.432V713.658H1304.78V723.432C1304.67 734.046 1296.16 742.558 1285.55 742.558Z" fill="#5A829D"/><path d="M1105.91 382.512L1197.72 419.924L1213.59 415.405L1235.33 422.762L1253.61 438.421C1255.19 439.787 1255.61 442.204 1254.35 443.99C1253.09 445.987 1250.46 446.513 1248.47 445.146L1245.74 443.36V443.465C1246.16 444.936 1245.63 446.513 1244.58 447.564C1243 449.14 1240.48 449.14 1238.8 447.669L1225.25 435.163L1217.48 432.01L1216.42 435.688L1227.14 441.573C1229.35 442.729 1230.19 445.462 1229.14 447.774C1228.19 449.876 1225.88 450.927 1223.67 450.401L1191.84 442.624L1094.04 419.294L1105.91 382.512Z" fill="#FFC98C"/><path d="M538.816 772.299L500.366 736.463L483.557 772.089L524.738 796.681L538.816 772.299Z" fill="#9F5621"/><path d="M666.774 850.594L618.554 855.743L620.55 865.832L668.245 860.788L666.774 850.594Z" fill="#FF5200"/><path d="M668.244 860.787L620.549 865.832L622.545 875.92L669.715 870.876L668.244 860.787Z" fill="#FFD300"/><path d="M669.715 870.872L622.545 875.916L624.541 886.005L671.291 880.961L669.715 870.872Z" fill="#008300"/><path d="M671.292 880.962L624.542 886.006L626.538 896.095L672.762 891.156L671.292 880.962Z" fill="#0000FF"/><path d="M597.962 905.869H494.062V915.853H597.962V905.869Z" fill="#01464D"/><path d="M548.166 877.074L493.222 895.045C491.016 895.781 489.44 897.882 489.44 900.3C489.44 903.347 491.962 905.869 495.008 905.869H548.061V877.074H548.166Z" fill="#D8CBC5"/><path d="M572.75 523.023C588.299 523.023 600.904 510.413 600.904 494.858C600.904 479.303 588.299 466.693 572.75 466.693C557.2 466.693 544.595 479.303 544.595 494.858C544.595 510.413 557.2 523.023 572.75 523.023Z" fill="#01464D"/><path d="M707.43 525.86C722.98 525.86 735.585 513.25 735.585 497.695C735.585 482.14 722.98 469.53 707.43 469.53C691.881 469.53 679.275 482.14 679.275 497.695C679.275 513.25 691.881 525.86 707.43 525.86Z" fill="#01464D"/><path d="M709.531 562.852L562.874 559.805L573.38 466.693L708.061 469.426L709.531 562.852Z" fill="#01464D"/><path d="M710.897 611.715L557.201 608.562L558.252 555.806L711.423 539.832L710.897 611.715Z" fill="#01464D"/><path d="M604.371 483.194L547.326 482.773L511.397 555.287C503.518 571.261 514.864 590.072 532.723 590.388C542.178 590.598 550.792 585.343 554.995 576.831L604.371 483.194Z" fill="#01464D"/><path d="M679.275 484.766L732.959 485.922L770.779 567.788C778.028 584.077 765.841 602.363 748.087 601.943C738.632 601.733 730.227 596.163 726.34 587.546L679.275 484.766Z" fill="#01464D"/><path d="M622.651 464.587L623.281 435.792L667.615 436.738L666.984 465.428C666.774 477.724 656.584 487.392 644.397 487.182C632.106 486.972 622.336 476.883 622.651 464.587Z" fill="#8F411F"/><path d="M615.297 431.484L616.137 390.078C616.453 376.942 627.273 366.643 640.3 366.853L651.751 367.063C664.883 367.378 675.179 378.203 674.968 391.234L674.128 432.64C673.813 445.777 662.992 456.076 649.965 455.866L638.514 455.655C625.382 455.445 614.982 444.621 615.297 431.484Z" fill="#9F5621"/><path d="M645.342 429.381C645.027 429.381 644.607 429.381 644.292 429.276C643.241 429.066 642.296 428.541 641.455 427.7C641.035 427.279 640.51 427.069 639.984 427.069C639.039 427.174 638.198 428.12 638.198 428.12L637.253 427.385C637.253 427.279 638.409 426.018 639.879 425.913C640.72 425.808 641.455 426.123 642.191 426.859C642.926 427.595 643.661 428.015 644.502 428.12C645.342 428.33 646.078 428.225 646.708 427.91C647.023 427.805 647.233 427.595 647.443 427.279C647.758 426.964 648.599 426.123 649.86 426.123C650.91 426.123 651.856 426.544 652.801 427.49L651.961 428.33C651.225 427.595 650.49 427.279 649.86 427.279C649.019 427.279 648.494 427.805 648.179 428.015C647.864 428.33 647.443 428.646 647.023 428.856C646.603 429.276 645.973 429.486 645.342 429.381Z" fill="black"/><path d="M616.663 391.442V414.247H611.41V389.55C611.725 375.363 623.386 364.118 637.569 364.433L653.537 364.749C667.72 365.064 678.961 376.729 678.646 390.916V414.247H673.393V391.442C673.393 383.875 667.3 377.78 659.736 377.78H630.32C622.756 377.885 616.663 383.98 616.663 391.442Z" fill="#4F4F59"/><path d="M649.44 710.083L645.553 689.38L649.44 710.083Z" fill="#B0C2E4"/><path d="M651.12 719.542L649.439 710.083L645.552 689.38L614.245 670.674L588.507 750.544L613.615 862.887L676.228 862.677L651.12 719.542Z" fill="#D8CBC5"/><path d="M649.544 710.397L649.438 710.082L649.544 710.397Z" fill="#FBB03B"/><path d="M710.267 611.719L557.727 608.566L485.238 763.997L570.018 808.031L588.508 750.546L598.803 718.387L609.834 684.233L614.246 670.676L637.989 684.863L645.658 689.382L649.545 710.085L681.377 711.031C699.867 711.451 716.36 701.573 725.29 686.755C729.492 679.714 732.119 671.516 732.224 662.689C732.224 662.689 730.228 629.27 710.267 611.719Z" fill="#E6E3DA"/><path d="M680.641 905.24H618.343V915.224H680.641V905.24Z" fill="#01464D"/><path d="M680.641 905.24C680.641 892.104 666.669 881.489 649.545 881.489C632.421 881.489 618.448 892.104 618.448 905.24" fill="#D8CBC5"/><path d="M647.548 437.16C647.443 436.004 646.288 435.584 645.237 435.479C644.292 435.373 643.451 435.689 642.716 436.214L637.463 439.998C637.463 439.998 648.704 451.558 657.634 437.265L651.75 435.058C650.7 434.638 649.544 434.743 648.599 435.268C647.968 435.584 647.443 436.214 647.548 437.16Z" fill="#E73245"/><path d="M640.93 439.157C640.93 439.157 647.443 438.001 654.377 438.316C654.377 438.421 648.179 444.622 640.93 439.157Z" fill="black"/><path d="M615.507 470.057C615.507 481.196 624.542 490.129 635.572 490.129H636.413C637.884 493.072 640.93 495.174 644.502 495.174H668.35C673.392 495.174 677.49 491.075 677.49 486.031V443.889H635.362V450.089C624.331 450.089 615.507 459.022 615.507 470.057ZM622.23 470.057C622.23 463.015 627.903 457.235 635.047 457.235H635.467V482.773H635.047C627.903 482.878 622.23 477.098 622.23 470.057Z" fill="#D8CBC5"/><path d="M644.186 463.746L630.214 455.865C630.004 455.76 629.689 455.654 629.479 455.549C628.218 454.604 627.483 454.604 626.747 454.498L611.304 452.502C610.043 452.292 609.308 452.291 608.047 452.922L581.994 465.533L567.706 486.972L520.746 555.492C514.758 565.686 518.12 578.927 528.415 584.917C538.606 590.908 551.843 587.545 557.831 577.246L574.745 532.056L597.647 484.239L618.658 483.714L623.595 486.551C625.802 487.813 628.533 486.972 629.794 484.765C630.214 484.029 630.424 483.083 630.319 482.243C632.315 482.768 634.416 481.927 635.467 480.036C635.782 479.51 635.887 478.985 635.992 478.459C637.778 478.67 639.564 477.829 640.404 476.147C641.14 474.886 641.14 473.415 640.614 472.154C642.611 472.679 644.712 471.839 645.762 469.947C647.128 467.74 646.393 464.903 644.186 463.746Z" fill="#9F5621"/><path d="M475.572 853.011C475.467 855.639 476.203 858.161 477.463 860.368C483.347 860.998 489.44 858.161 492.591 852.591L498.79 841.871C496.478 840.085 493.537 838.929 490.28 838.929C482.401 838.719 475.783 845.024 475.572 853.011Z" fill="#28D7FB"/><path d="M524.739 796.679L483.452 771.982L465.278 810.446L444.897 805.402L428.088 827.471L469.9 857.422C470.32 857.737 470.74 857.948 471.161 858.263C471.266 858.368 471.371 858.368 471.476 858.473C471.896 858.683 472.316 858.893 472.736 859.104C472.842 859.104 472.947 859.209 473.052 859.209C473.367 859.314 473.787 859.524 474.102 859.629C474.207 859.629 474.312 859.734 474.417 859.734C474.838 859.839 475.258 859.944 475.678 860.049C475.888 860.049 475.993 860.154 476.203 860.154C476.623 860.26 477.044 860.26 477.464 860.365C476.203 858.158 475.573 855.636 475.573 853.008C475.783 845.021 482.297 838.716 490.281 838.926C493.432 839.031 496.374 840.082 498.79 841.869L505.619 829.888L524.739 796.679Z" fill="#232144"/><path d="M479.249 781.122L520.011 804.978L524.738 796.676L483.556 772.084L479.249 781.122Z" fill="#FF0000"/><path d="M474.837 790.376L514.863 813.917L520.011 804.984L479.249 781.128L474.837 790.376Z" fill="#FF5200"/><path d="M470.425 799.729L509.716 822.744L514.863 813.917L474.837 790.376L470.425 799.729Z" fill="#FFD300"/><path d="M466.013 808.975L504.673 831.675L505.619 829.888L509.716 822.742L470.425 799.727L466.013 808.975Z" fill="#008300"/><path d="M465.277 810.449L445.002 805.404L443.426 807.506L499.525 840.505L504.673 831.677L466.013 808.977L465.277 810.449Z" fill="#0000FF"/><path d="M437.122 815.704L481.455 841.662C483.977 839.77 487.023 838.719 490.385 838.824C493.537 838.929 496.478 839.98 498.895 841.767L499.63 840.401L443.425 807.507L437.122 815.704Z" fill="#930081"/><path d="M430.924 823.898L475.993 850.276C476.728 846.703 478.724 843.761 481.455 841.659L437.122 815.701L430.924 823.898Z" fill="white"/><path d="M428.192 827.574L470.004 857.526C470.425 857.841 470.845 858.051 471.265 858.366C471.37 858.472 471.475 858.471 471.58 858.577C472 858.787 472.421 858.997 472.841 859.207C472.946 859.207 473.051 859.312 473.156 859.312C473.471 859.417 473.891 859.628 474.207 859.733C474.312 859.733 474.417 859.838 474.522 859.838C474.942 859.943 475.362 860.048 475.782 860.153C475.993 860.153 476.098 860.258 476.308 860.258C476.728 860.363 477.148 860.363 477.568 860.468C476.308 858.261 475.677 855.739 475.677 853.112C475.677 852.166 475.783 851.325 475.993 850.485L430.924 824.106L428.192 827.574Z" fill="#FF8BBB"/><path d="M390.479 772.299L428.929 736.463L445.843 772.089L404.556 796.681L390.479 772.299Z" fill="#FFA28F"/><path d="M310.635 852.798L301.6 896.201L256.637 891.472L264.411 845.547L310.635 852.798Z" fill="#A86554"/><path d="M246.885 915.864L309.183 915.864L309.183 905.881L246.885 905.88L246.885 915.864Z" fill="#891229"/><path d="M246.972 905.873C246.972 892.736 260.944 882.122 278.068 882.122C295.297 882.122 309.165 892.736 309.165 905.873" fill="#E6E3DA"/><path d="M481.035 385.353L460.865 382.41L441.009 403.323L436.702 430.017L425.356 486.766L404.555 483.193L379.026 522.708L436.071 528.488C436.912 528.593 437.647 528.698 438.383 528.698H438.488C448.258 529.013 456.767 521.447 457.188 511.358L461.39 432.539L465.697 422.66L479.354 398.384C479.459 398.174 479.564 397.964 479.669 397.754C481.771 397.543 483.557 395.967 483.872 393.76C483.872 393.445 483.977 393.13 483.872 392.814C484.502 392.184 484.817 391.343 485.027 390.397C485.342 388.085 483.557 385.773 481.035 385.353ZM465.172 404.69C464.226 405.53 462.966 406.476 462.44 406.897C460.024 408.473 458.343 405.846 460.024 404.164C460.549 403.639 461.495 402.693 462.65 401.537L468.113 396.387L469.584 396.598L465.172 404.69Z" fill="#BF7461"/><path d="M441.114 402.693L460.655 382.41L440.904 402.903H441.009L441.114 402.693Z" fill="#BF7461"/><path d="M375.35 633.366L375.98 510.093L244.241 507.781L242.14 633.471L373.774 633.366H375.35Z" fill="#E6E3DA"/><path d="M414.221 481.196L379.553 522.918L377.451 524.914L374.615 592.593L242.98 590.281L241.93 526.701L213.25 507.784L209.468 505.262C209.468 505.262 213.985 493.912 219.133 483.193C223.23 474.785 231.845 467.219 240.984 465.222C240.984 465.222 296.033 450.299 311.372 450.614C326.605 450.93 369.992 464.381 378.502 467.009L414.221 481.196Z" fill="#E6E3DA"/><path d="M296.977 566.319C296.977 566.319 296.557 564.217 292.25 565.057C292.25 565.057 295.822 562.43 298.133 565.057L297.818 560.644L300.234 565.057C300.234 565.057 302.125 562.85 305.277 564.532C305.277 564.532 301.6 564.217 301.075 566.949" fill="#00401E"/><path d="M271.24 560.43C271.24 560.43 270.294 558.539 266.407 560.64C266.407 560.64 269.139 557.067 272.08 558.959L270.609 554.86L274.181 558.433C274.181 558.433 275.337 555.806 278.909 556.437C278.909 556.437 275.232 557.172 275.547 559.905" fill="#00401E"/><path d="M252.54 566.738C252.54 566.738 250.964 565.372 248.022 568.524C248.022 568.524 249.388 564.321 252.75 565.056L249.913 561.693L254.431 563.795C254.431 563.795 254.641 560.853 258.213 560.327C258.213 560.327 255.061 562.324 256.217 564.741" fill="#006931"/><path d="M297.819 581.763C302.286 581.763 305.908 578.14 305.908 573.671C305.908 569.202 302.286 565.579 297.819 565.579C293.351 565.579 289.729 569.202 289.729 573.671C289.729 578.14 293.351 581.763 297.819 581.763Z" fill="#891229"/><path d="M257.898 580.403C262.365 580.403 265.987 576.78 265.987 572.311C265.987 567.842 262.365 564.219 257.898 564.219C253.43 564.219 249.809 567.842 249.809 572.311C249.809 576.78 253.43 580.403 257.898 580.403Z" fill="#E73245"/><path d="M274.812 574.829C279.163 574.829 282.691 571.3 282.691 566.947C282.691 562.594 279.163 559.065 274.812 559.065C270.46 559.065 266.933 562.594 266.933 566.947C266.933 571.3 270.46 574.829 274.812 574.829Z" fill="#891229"/><path d="M273.55 567.894C273.55 567.894 273.76 565.793 278.067 566.108C278.067 566.108 274.18 563.901 272.184 566.844L271.974 562.43L270.083 567.054C270.083 567.054 267.982 565.057 264.936 567.054C264.936 567.054 268.612 566.318 269.453 568.945" fill="#006931"/><path d="M286.263 563.271C286.263 563.271 286.473 561.17 290.78 561.485C290.78 561.485 286.893 559.278 284.897 562.221L284.687 557.807L282.796 562.431C282.796 562.431 280.695 560.434 277.648 562.431C277.648 562.431 281.325 561.695 282.166 564.322" fill="#006931"/><path d="M284.267 578.506C288.618 578.506 292.146 574.977 292.146 570.624C292.146 566.271 288.618 562.742 284.267 562.742C279.915 562.742 276.388 566.271 276.388 570.624C276.388 574.977 279.915 578.506 284.267 578.506Z" fill="#E73245"/><path d="M272.29 583.445C276.642 583.445 280.169 579.917 280.169 575.564C280.169 571.21 276.642 567.682 272.29 567.682C267.939 567.682 264.411 571.21 264.411 575.564C264.411 579.917 267.939 583.445 272.29 583.445Z" fill="#E73245"/><path d="M281.641 485.292C273.446 484.451 267.668 481.824 266.198 478.461C265.567 476.99 265.777 475.519 266.618 474.257C267.248 473.417 268.194 472.681 269.454 472.051C269.349 471.945 269.244 471.84 269.244 471.735C267.563 469.633 267.038 467.427 267.878 465.64C268.509 464.274 270.085 462.592 274.182 461.962C274.077 460.175 274.602 457.968 276.283 455.131C279.119 450.402 282.376 449.666 286.368 448.825C286.999 448.72 287.734 448.51 288.469 448.3L288.995 450.402C288.259 450.612 287.524 450.717 286.893 450.927C283.006 451.768 280.59 452.293 278.279 456.287C277.333 457.863 276.388 459.86 276.493 461.752C276.598 461.752 276.598 461.752 276.703 461.752C281.851 461.436 285.108 462.172 286.683 463.748C287.419 464.589 287.734 465.64 287.524 466.796C287.419 467.321 286.999 468.372 285.318 468.793C282.691 469.423 277.964 468.688 275.653 465.535C275.337 465.115 275.127 464.694 274.917 464.169C272.396 464.589 270.715 465.43 270.19 466.586C269.769 467.637 270.085 469.003 271.24 470.369C271.45 470.684 271.765 470.895 271.976 471.21C275.022 470.369 279.119 470.159 283.742 470.684C286.158 470.895 287.209 472.681 287.314 474.257C287.419 475.834 286.473 477.095 284.897 477.41C279.855 478.461 274.707 476.464 271.345 473.732C269.98 474.257 269.034 474.888 268.614 475.519C268.194 476.149 268.089 476.78 268.404 477.515C269.244 479.512 273.341 482.139 282.061 482.98L281.641 485.292ZM273.972 472.996C276.808 474.783 280.695 475.939 284.372 475.203C284.897 475.098 285.002 474.573 285.002 474.363C285.002 473.732 284.477 472.996 283.427 472.891C279.329 472.471 276.283 472.576 273.972 472.996ZM276.913 463.958C277.228 464.484 277.649 464.904 278.279 465.325C280.905 467.216 284.687 467.006 285.213 466.376C285.213 465.955 285.108 465.535 284.792 465.22C284.267 464.589 282.481 463.643 276.913 463.958Z" fill="#F7931E"/><path d="M305.172 572.938H250.228C248.337 572.938 247.077 574.829 247.707 576.616L253.17 591.749C255.691 598.79 262.415 603.519 269.979 603.519H285.317C292.881 603.519 299.604 598.79 302.126 591.749L307.589 576.616C308.429 574.829 307.063 572.938 305.172 572.938Z" fill="#D8CBC5"/><path d="M279.854 710.083L283.741 689.38L291.41 684.861L332.067 663.422L416.741 824.213L463.176 796.678L379.552 625.063C374.719 615.08 364.529 608.774 353.393 609.089L271.345 611.296C258.003 611.612 245.921 619.494 240.458 631.579C233.525 647.028 232.579 662.686 232.579 662.686C232.684 670.043 234.575 676.979 237.622 683.284C238.777 685.596 240.248 687.803 242.034 689.8C247.392 695.895 261.89 710.083 279.854 710.083Z" fill="#E73245"/><path d="M300.446 590.175L300.866 589.229C301.496 586.181 299.816 583.133 296.769 582.188L285.213 578.825C281.221 578.089 268.824 584.71 268.824 584.71L300.446 590.175Z" fill="#A86554"/><path d="M187.511 574.937C189.822 565.794 199.487 560.644 208.312 563.797L268.193 584.605L273.551 582.503L302.336 586.917L305.698 587.758C308.535 588.494 310.216 591.331 309.48 594.063C309.165 595.43 308.325 596.481 307.169 597.216C308.43 598.582 308.85 600.474 308.325 602.261C307.694 604.468 305.698 605.834 303.597 605.939C304.858 607.305 305.383 609.197 304.753 610.983C303.912 613.716 300.971 615.292 298.239 614.451H298.134C298.449 615.397 298.449 616.448 298.134 617.499C297.294 620.231 294.352 621.808 291.621 620.967L262.31 610.878L198.962 594.484C190.452 592.277 185.305 583.554 187.511 574.937Z" fill="#A86554"/><path d="M329.02 459.755L323.873 427.492L279.329 434.638L284.477 466.902C286.158 477.306 295.928 484.347 306.328 482.665L313.157 481.615C323.557 479.933 330.701 470.16 329.02 459.755Z" fill="#BF7461"/><path d="M283.216 367.378L323.873 360.862C330.911 359.706 337.425 364.541 338.58 371.477L343.308 401.323C345.199 403.004 351.607 408.889 351.923 411.201C352.238 413.724 346.775 416.666 345.829 417.192L348.14 431.379C349.296 438.42 344.464 444.936 337.53 446.092L294.772 452.923C288.364 453.974 282.271 449.56 281.325 443.149L271.765 383.247C270.505 375.68 275.652 368.534 283.216 367.378Z" fill="#BF7461"/><path d="M346.25 418.876L338.686 420.137C335.639 420.663 335.114 421.819 335.324 423.08L335.744 425.497L347.09 423.71L346.25 418.876Z" fill="black"/><path d="M347.826 429.175L347.511 427.389C347.511 427.389 347.09 427.494 346.88 427.494C344.674 427.704 342.678 427.178 341.522 426.022L340.262 427.284C341.838 428.86 344.359 429.596 347.09 429.28C347.405 429.28 347.616 429.28 347.826 429.175Z" fill="black"/><path d="M266.722 394.807C265.461 390.393 265.041 385.664 266.092 381.145C268.088 372.107 274.391 365.066 282.69 363.805L333.537 358.971C339.84 358.865 345.408 363.489 346.459 369.9C347.615 376.941 342.782 383.562 335.743 384.718L317.254 387.976L328.074 450.295L323.977 451.031L316.203 406.787C313.682 403.845 308.954 404.37 308.954 404.37C304.857 405.001 302.126 408.784 302.861 412.883C302.966 413.408 303.386 414.144 303.911 415.09C306.958 419.924 305.908 426.229 301.285 429.592L280.799 444.2L266.722 394.807Z" fill="black"/><path d="M329.441 403.11C329.546 401.218 333.013 399.852 337.11 400.062C337.215 400.062 337.32 400.062 337.425 400.062C336.27 400.798 335.639 402.374 335.954 404.161C336.164 405.317 336.69 406.368 337.53 406.998C337.32 406.998 337.11 406.998 336.9 406.998C332.593 406.788 329.336 405.107 329.441 403.11Z" fill="white"/><path d="M337.425 400.061C340.997 400.586 340.892 406.471 337.425 406.997C336.69 406.366 336.06 405.42 335.85 404.159C335.639 402.478 336.27 400.796 337.425 400.061Z" fill="black"/><path d="M1026.48 332.382C1037.68 332.382 1046.76 323.301 1046.76 312.099C1046.76 300.897 1037.68 291.816 1026.48 291.816C1015.28 291.816 1006.21 300.897 1006.21 312.099C1006.21 323.301 1015.28 332.382 1026.48 332.382Z" fill="#76341E"/><path d="M954.942 308.842C966.14 308.842 975.217 299.761 975.217 288.559C975.217 277.357 966.14 268.276 954.942 268.276C943.744 268.276 934.666 277.357 934.666 288.559C934.666 299.761 943.744 308.842 954.942 308.842Z" fill="#76341E"/><path d="M1034.26 283.307C1042.67 283.307 1049.49 276.484 1049.49 268.068C1049.49 259.653 1042.67 252.83 1034.26 252.83C1025.84 252.83 1019.02 259.653 1019.02 268.068C1019.02 276.484 1025.84 283.307 1034.26 283.307Z" fill="#76341E"/><path d="M977.528 263.968C985.941 263.968 992.761 257.145 992.761 248.73C992.761 240.314 985.941 233.491 977.528 233.491C969.115 233.491 962.295 240.314 962.295 248.73C962.295 257.145 969.115 263.968 977.528 263.968Z" fill="#76341E"/><path d="M1032.47 306.005C1042.92 306.005 1051.38 297.583 1051.38 287.193C1051.38 276.804 1042.92 268.382 1032.47 268.382C1022.03 268.382 1013.56 276.804 1013.56 287.193C1013.56 297.583 1022.03 306.005 1032.47 306.005Z" fill="#76341E"/><path d="M966.918 284.248C977.361 284.248 985.828 275.826 985.828 265.436C985.828 255.047 977.361 246.625 966.918 246.625C956.474 246.625 948.008 255.047 948.008 265.436C948.008 275.826 956.474 284.248 966.918 284.248Z" fill="#76341E"/><path d="M960.931 319.35L970.071 291.816L1012.41 306.004L1003.27 333.433C999.381 345.098 986.775 351.509 975.008 347.62C963.452 343.627 957.044 331.016 960.931 319.35Z" fill="#F0A86B"/><path d="M964.501 285.515L977.633 245.896C981.835 233.39 995.282 226.559 1007.78 230.762L1018.71 234.336C1031.21 238.539 1038.04 251.991 1033.84 264.497L1020.71 304.117C1016.5 316.622 1003.06 323.453 990.555 319.25L979.629 315.677C967.127 311.578 960.404 298.021 964.501 285.515Z" fill="#FFC98C"/><path d="M802.926 360.335L797.148 457.545L895.585 393.229L882.243 431.062L992.131 471.312L1017.98 399.639C1017.98 399.639 1053.38 443.463 1117.36 481.296L1114.63 377.885L1006.42 338.476L1009.99 327.546L995.703 322.712L991.921 333.957L966.393 324.604L970.07 313.674L957.253 309.26L953.471 319.875L926.157 310.311C919.853 308.104 913.025 308.525 907.036 311.257L802.926 360.335Z" fill="#E73245"/><path d="M993.391 292.236C993.075 292.131 992.76 292.026 992.445 291.815C991.5 291.29 990.764 290.449 990.239 289.398C989.924 288.873 989.504 288.453 989.083 288.347C988.138 288.137 987.087 288.768 987.087 288.873L986.457 287.927C986.562 287.927 987.928 286.876 989.399 287.297C990.239 287.507 990.869 288.032 991.395 288.873C991.92 289.714 992.445 290.449 993.181 290.765C993.916 291.185 994.651 291.29 995.282 291.185C995.597 291.185 995.912 290.975 996.227 290.87C996.647 290.659 997.698 290.134 998.959 290.554C999.904 290.87 1000.74 291.605 1001.37 292.761L1000.32 293.287C999.799 292.341 999.274 291.815 998.643 291.605C997.908 291.395 997.173 291.71 996.858 291.921C996.437 292.131 996.017 292.341 995.597 292.341C994.651 292.551 994.021 292.446 993.391 292.236Z" fill="black"/><path d="M1017.66 265.966L1017.98 266.176C1021.13 268.383 1022.91 271.956 1022.91 275.845L1006.84 264.495C1010.52 263.234 1014.51 263.759 1017.66 265.966Z" fill="#572B20"/><path d="M987.298 255.875L986.983 255.77C983.306 254.719 979.419 255.455 976.268 257.872L995.073 263.547C993.812 259.869 990.975 257.031 987.298 255.875Z" fill="#572B20"/><path d="M1041.51 265.44C1046.34 250.832 1038.46 235.174 1023.86 230.339L1007.47 224.875C992.865 220.04 977.211 227.922 972.379 242.53L971.328 245.788L968.387 254.511L967.966 255.772L963.239 270.169L953.469 299.7L958.196 301.276L967.966 271.746L972.064 259.24C972.274 258.609 972.484 257.979 972.799 257.348L981.834 260.291C995.491 264.81 1009.99 260.501 1019.13 250.412C1018.08 258.084 1022.6 265.545 1030.16 268.067L1033 269.013C1033.1 270.8 1033.1 272.481 1032.79 274.268L1019.34 314.728L1024.49 316.41L1032.26 292.974L1041.51 265.44Z" fill="#76341E"/><path d="M966.497 280.677C970.79 280.677 974.271 277.195 974.271 272.9C974.271 268.605 970.79 265.123 966.497 265.123C962.203 265.123 958.723 268.605 958.723 272.9C958.723 277.195 962.203 280.677 966.497 280.677Z" fill="#FFC98C"/><path d="M1026.48 301.062C1030.78 301.062 1034.26 297.581 1034.26 293.286C1034.26 288.991 1030.78 285.509 1026.48 285.509C1022.19 285.509 1018.71 288.991 1018.71 293.286C1018.71 297.581 1022.19 301.062 1026.48 301.062Z" fill="#FFC98C"/><path d="M1026.17 237.168C1022.39 235.801 1020.5 231.703 1021.86 228.025C1023.23 224.346 1027.32 222.35 1031 223.716C1032.26 224.136 1033.21 224.872 1034.05 225.818L1032.37 187.249L1012.3 209.634C1015.66 212.366 1017.13 216.99 1015.56 221.299C1013.67 226.658 1007.68 229.496 1002.22 227.604C1000.74 227.079 999.379 226.238 998.329 225.187L994.967 228.971L1034.78 243.053L1034.36 234.54C1032.58 237.168 1029.21 238.324 1026.17 237.168ZM1021.65 206.166C1022.6 203.643 1025.33 202.382 1027.85 203.223C1030.37 204.169 1031.63 206.901 1030.79 209.423C1029.85 211.946 1027.11 213.207 1024.59 212.366C1022.07 211.525 1020.81 208.688 1021.65 206.166Z" fill="#E73245"/><path d="M1002.22 227.504C1007.57 229.396 1013.56 226.663 1015.56 221.198C1017.13 216.89 1015.66 212.266 1012.3 209.533L998.434 224.982C999.379 226.138 1000.74 226.978 1002.22 227.504Z" fill="#FBB03B"/><path d="M1024.59 212.366C1027.11 213.312 1029.84 211.945 1030.79 209.423C1031.74 206.901 1030.37 204.169 1027.85 203.223C1025.33 202.277 1022.6 203.643 1021.65 206.165C1020.81 208.688 1022.07 211.525 1024.59 212.366Z" fill="#FBB03B"/><path d="M1031 223.716C1027.22 222.35 1023.12 224.346 1021.86 228.024C1020.5 231.703 1022.49 235.906 1026.17 237.167C1029.32 238.324 1032.58 237.167 1034.47 234.54L1034.05 225.712C1033.21 224.872 1032.26 224.136 1031 223.716Z" fill="#FBB03B"/><path d="M994.758 306.32L996.754 306.846C998.435 307.266 1000.22 306.32 1000.75 304.534L1001.59 301.486C1002.01 299.805 1001.06 298.018 999.275 297.493L997.279 296.967C995.598 296.547 993.812 297.493 993.287 299.279L992.447 302.327C992.026 304.113 992.972 305.9 994.758 306.32Z" fill="black"/><path d="M1016.52 285.731L977.438 272.759L975.651 278.145L1014.74 291.118L1016.52 285.731Z" fill="#FFC98C"/><path d="M875.31 231.494C875.31 231.494 873.314 229.707 869.637 233.806C869.637 233.806 871.318 228.446 875.625 229.392L872.053 225.188L877.726 227.816C877.726 227.816 877.936 224.137 882.453 223.507C882.453 223.507 878.461 225.924 879.932 229.077" fill="#006931"/><path d="M882.034 248.729C887.662 248.729 892.224 244.165 892.224 238.535C892.224 232.905 887.662 228.341 882.034 228.341C876.406 228.341 871.844 232.905 871.844 238.535C871.844 244.165 876.406 248.729 882.034 248.729Z" fill="#E73245"/><path d="M1393.23 503.161C1384.3 503.371 1376.74 509.782 1374.22 518.294L1327.99 679.715C1326.63 684.339 1322.53 687.492 1317.7 687.492H1214.32C1205.5 687.492 1197.83 694.113 1197.3 702.941C1196.78 712.504 1204.24 720.386 1213.69 720.386H1316.33H1340.81H1343.12C1352.16 720.386 1360.14 714.396 1362.56 705.673L1413.19 529.013C1416.97 515.877 1406.99 502.846 1393.23 503.161Z" fill="#5A829D"/><path d="M1273.78 873.079L1268.85 862.99L1208.55 892.416C1207.39 891.47 1206.13 890.735 1204.76 890.209C1197.62 887.372 1189.64 890.945 1186.9 897.986C1184.07 905.132 1187.64 913.119 1194.68 915.851C1201.82 918.689 1209.81 915.116 1212.54 908.075C1213.27 906.288 1213.59 904.396 1213.48 902.505L1273.78 873.079Z" fill="#8BB1CD"/><path d="M1279.46 873.079L1284.39 862.99L1344.7 892.416C1345.85 891.47 1347.11 890.735 1348.48 890.209C1355.62 887.372 1363.61 890.945 1366.34 897.986C1369.17 905.132 1365.6 913.119 1358.56 915.851C1351.42 918.689 1343.44 915.116 1340.7 908.075C1339.97 906.288 1339.65 904.396 1339.76 902.505L1279.46 873.079Z" fill="#8BB1CD"/><path d="M1199.41 917.115C1207.12 917.115 1213.38 910.857 1213.38 903.137C1213.38 895.418 1207.12 889.16 1199.41 889.16C1191.69 889.16 1185.43 895.418 1185.43 903.137C1185.43 910.857 1191.69 917.115 1199.41 917.115Z" fill="#5A829D"/><path d="M1353.31 917.115C1361.03 917.115 1367.28 910.857 1367.28 903.137C1367.28 895.418 1361.03 889.16 1353.31 889.16C1345.6 889.16 1339.34 895.418 1339.34 903.137C1339.34 910.857 1345.6 917.115 1353.31 917.115Z" fill="#5A829D"/><path d="M336.689 502.316V500.109C345.514 500.109 349.716 497.902 350.767 495.905C351.187 495.065 351.082 494.224 350.556 493.383C350.136 492.753 349.506 492.227 348.77 491.807C345.829 493.173 341.627 493.909 336.584 493.803C334.903 493.803 333.748 492.647 333.748 491.071C333.642 489.6 334.588 488.129 336.374 487.918C341.206 487.393 345.619 487.918 348.665 489.39C349.611 488.759 350.241 488.129 350.556 487.603C351.082 486.762 350.977 485.922 350.451 485.081C350.136 484.555 349.506 483.925 348.665 483.399C345.934 484.66 341.942 485.396 336.584 485.396C334.693 485.396 333.853 484.45 333.537 483.82C333.012 482.874 333.012 481.718 333.642 480.772C334.273 479.826 335.218 479.301 336.374 479.301C341.417 478.88 345.829 479.511 348.77 480.877C350.241 480.036 350.977 479.091 350.977 478.145C350.977 477.094 349.926 475.833 347.615 474.782C343.938 476.884 338.79 477.935 334.168 476.463C332.802 476.043 331.962 474.887 332.172 473.521C332.382 472.049 333.853 470.683 336.164 470.683C340.576 470.683 344.463 471.209 347.405 472.365C347.93 471.944 348.455 471.524 348.876 471.104C349.506 470.473 350.556 469.107 350.136 467.951C349.716 466.795 348.14 465.744 345.514 465.113C345.094 465.954 344.568 466.69 344.043 467.215C341.522 469.737 337.319 470.158 334.903 469.107C333.537 468.581 332.802 467.53 332.802 466.374C332.802 465.218 333.222 464.168 334.168 463.432C335.849 461.961 339.105 461.645 344.043 462.486C344.253 460.91 343.938 459.018 343.097 456.916C341.732 453.553 336.689 451.346 333.012 450.085L333.748 447.983C338.16 449.56 343.518 451.977 345.094 456.075C346.249 458.913 346.459 461.225 346.144 462.906C349.611 463.747 351.607 465.218 352.237 467.215C352.763 469.002 352.132 470.893 350.451 472.68C350.241 472.89 349.926 473.205 349.716 473.416C351.922 474.677 353.183 476.358 353.183 478.145C353.183 479.511 352.447 480.982 350.767 482.138C351.397 482.664 351.922 483.189 352.342 483.82C353.288 485.396 353.393 487.078 352.447 488.654C352.027 489.39 351.397 490.02 350.661 490.651C351.292 491.176 351.817 491.702 352.237 492.332C353.288 493.909 353.393 495.59 352.658 497.166C350.977 500.424 345.094 502.316 336.689 502.316ZM340.156 489.81C339.105 489.81 337.95 489.915 336.689 490.02C335.954 490.125 335.954 490.861 335.954 490.966C335.954 491.281 336.059 491.597 336.584 491.597C340.471 491.702 343.518 491.176 345.829 490.546C344.253 490.02 342.362 489.81 340.156 489.81ZM336.374 481.298C335.849 481.298 335.639 481.508 335.533 481.718C335.323 482.033 335.323 482.348 335.533 482.559C335.744 482.979 336.374 482.979 336.689 482.979C340.786 482.979 343.728 482.454 345.724 481.928C343.413 481.403 340.366 481.087 336.374 481.298ZM336.269 472.785C335.008 472.785 334.483 473.416 334.378 473.836C334.378 473.941 334.378 474.151 334.798 474.361C338.055 475.412 341.732 474.992 344.673 473.731C342.572 473.1 339.736 472.785 336.269 472.785ZM339.421 464.168C337.109 464.168 336.059 464.693 335.639 465.008C335.218 465.324 335.113 465.744 335.113 466.269C335.113 466.48 335.533 466.795 335.849 466.9C337.319 467.53 340.681 467.425 342.572 465.429C342.887 465.113 343.097 464.798 343.308 464.483C341.732 464.273 340.471 464.168 339.421 464.168Z" fill="#F7931E"/><path d="M348.246 431.38L321.457 436.109L324.083 450.927L344.569 447.249C348.141 446.618 350.452 443.255 349.822 439.682L348.246 431.38Z" fill="black"/><path d="M338.244 423.681L335.451 424.179L338.197 439.595L340.989 439.097L338.244 423.681Z" fill="black"/><path d="M310.111 418.874C314.347 418.874 317.78 415.439 317.78 411.202C317.78 406.965 314.347 403.53 310.111 403.53C305.876 403.53 302.442 406.965 302.442 411.202C302.442 415.439 305.876 418.874 310.111 418.874Z" fill="#BF7461"/><path d="M338.511 389.359L321.859 392.327L322.578 396.362L339.23 393.394L338.511 389.359Z" fill="black"/><path d="M1033 190.509C1035.9 190.509 1038.25 188.157 1038.25 185.255C1038.25 182.353 1035.9 180 1033 180C1030.1 180 1027.74 182.353 1027.74 185.255C1027.74 188.157 1030.1 190.509 1033 190.509Z" fill="#FBB03B"/><path d="M1285.23 434.066C1305.07 428.977 1317.18 409.355 1312.28 390.239C1307.38 371.122 1287.33 359.751 1267.49 364.841C1247.65 369.93 1235.53 389.552 1240.44 408.669C1245.34 427.785 1265.39 439.156 1285.23 434.066Z" fill="#FAA332"/><path d="M1290.59 444.306L1330.94 422.236L1341.13 459.754C1343.86 469.843 1337.87 480.247 1327.78 482.979L1320.95 484.871C1310.87 487.603 1300.47 481.613 1297.74 471.524L1290.59 444.306Z" fill="#FFC4B8"/><path d="M1337.66 418.976L1329.67 380.512C1326.63 365.695 1312.03 356.131 1297.21 359.284L1278.2 363.277C1263.38 366.325 1253.82 380.933 1256.98 395.751L1266.33 440.31C1268.74 451.765 1279.98 459.121 1291.43 456.704L1316.54 451.45C1331.25 448.297 1340.81 433.794 1337.66 418.976Z" fill="#FFC4B8"/><path d="M1341.96 376.203C1339.97 362.331 1328.94 351.927 1315.28 354.87L1267.16 364.959C1260.55 366.325 1259.18 375.258 1265.17 378.516L1279.88 385.872C1283.55 387.764 1286.49 390.811 1288.18 394.489C1289.44 397.327 1290.59 400.585 1291.12 403.738C1292.69 412.775 1303.93 416.243 1303.93 416.243L1310.45 434.214C1313.07 441.466 1320.85 445.564 1328.31 443.567L1356.57 436.211L1341.96 376.203Z" fill="#FAA332"/><path d="M1297.63 358.448L1272.1 363.913L1294.06 404.899L1303.2 402.482L1297.63 358.448Z" fill="#01464D"/><path d="M1256.45 425.915C1255.82 422.657 1261.18 414.565 1261.18 414.565L1265.59 429.594C1265.59 429.594 1257.08 429.173 1256.45 425.915Z" fill="#FFC4B8"/><path d="M1299 418.769C1304.28 418.769 1308.56 414.488 1308.56 409.206C1308.56 403.924 1304.28 399.643 1299 399.643C1293.72 399.643 1289.44 403.924 1289.44 409.206C1289.44 414.488 1293.72 418.769 1299 418.769Z" fill="#FFC4B8"/><path d="M1274.94 407.944C1274.94 407.944 1274.31 413.199 1268.64 415.721C1266.11 416.772 1263.28 409.941 1265.8 408.785C1268.32 407.734 1274.94 407.944 1274.94 407.944Z" fill="white"/><path d="M1268.53 415.717C1269.69 415.297 1269.9 413.405 1269.16 411.514C1268.43 409.622 1266.96 408.361 1265.8 408.781C1264.64 409.202 1264.43 411.093 1265.17 412.985C1265.9 414.982 1267.38 416.138 1268.53 415.717Z" fill="#161615"/><path d="M1264.75 410.362L1265.07 408.155C1265.07 408.155 1269.37 405.738 1275.57 405.843L1274.84 408.05C1274.84 408.05 1270.21 407.945 1264.86 410.152" fill="#161615"/><path d="M1264.54 392.073L1264.75 391.968C1267.48 391.023 1270.63 391.758 1273.47 394.175L1259.5 399.325C1259.92 395.752 1261.81 393.019 1264.54 392.073Z" fill="#291028"/><path d="M1264.64 435.479C1264.43 434.323 1265.17 433.062 1266.43 432.852L1276.73 429.594C1276.62 429.279 1273.36 439.368 1266.33 441.364C1266.22 441.364 1266.01 441.47 1265.91 441.47C1265.7 441.575 1264.64 435.479 1264.64 435.479Z" fill="#891229"/><path d="M1268.22 581.662L1182.81 587.337L1176.4 562.746L1262.75 541.517C1274.63 538.785 1286.29 547.192 1287.44 559.278C1288.6 570.943 1279.77 581.032 1268.22 581.662Z" fill="#FFC4B8"/><path d="M1183.33 587.022L1156.23 595.429L1154.76 559.593L1183.02 562.325L1183.33 587.022Z" fill="#FFC4B8"/><path d="M1123.24 605.307C1120.51 604.151 1119.25 600.893 1120.4 598.161L1129.86 576.302L1139.73 580.611L1130.28 602.47C1129.12 605.202 1125.97 606.463 1123.24 605.307Z" fill="#FFC4B8"/><path d="M1118.62 604.568C1115.89 603.412 1114.62 600.154 1115.78 597.422L1125.23 575.562L1135.11 579.871L1125.66 601.73C1124.5 604.463 1121.35 605.724 1118.62 604.568Z" fill="#FFC4B8"/><path d="M1130.45 585.129L1159.89 569.107L1154.72 559.599L1125.28 575.62L1130.45 585.129Z" fill="#FFC4B8"/><path d="M1135.32 590.741L1163.83 573.121L1158.14 563.913L1129.64 581.533L1135.32 590.741Z" fill="#FFC4B8"/><path d="M1147.51 588.809C1147.51 588.809 1151.71 586.077 1152.86 585.026C1155.39 582.819 1152.97 580.086 1150.55 581.453C1148.98 582.293 1144.04 585.551 1140.26 587.653C1146.25 579.876 1153.7 565.794 1153.7 565.794L1162.53 585.341L1147.51 588.809Z" fill="#FFC4B8"/><path d="M1134.38 602.889C1132.91 600.367 1133.75 597.004 1136.27 595.533L1164.21 579.033L1169.67 588.281L1141.73 604.781C1139.21 606.252 1135.95 605.411 1134.38 602.889Z" fill="#FFC4B8"/><path d="M1328.52 522.072L1285.24 569.994C1278.72 577.14 1267.9 578.191 1260.23 572.306C1252.25 566.106 1250.67 554.651 1256.66 546.559L1303.93 483.398L1328.52 522.072Z" fill="#FFC4B8"/><path d="M1341.96 606.674L1371.48 523.757C1372.32 487.395 1357.72 464.38 1333.45 464.38L1297.84 471.526L1284.81 488.446C1275.36 501.372 1268.42 521.55 1268.42 536.473L1266.11 604.152L1341.96 606.674Z" fill="#BAC09A"/><path d="M1383.78 595.849L1302.78 652.073L1286.07 629.163L1358.77 565.793C1368.23 556.44 1380.52 553.497 1388.71 564.111C1396.38 574.095 1394.18 588.598 1383.78 595.849Z" fill="#FFC4B8"/><path d="M1285.65 630.743L1264.22 645.666L1263.49 644.93C1261.49 642.408 1261.91 638.73 1264.22 636.628L1273.57 628.536C1277.04 626.119 1291.12 626.854 1291.12 626.854L1285.65 630.743Z" fill="#FFC4B8"/><path d="M1266.12 604.152L1246.36 602.471C1248.26 605.413 1248.68 609.302 1246.89 612.665C1246.57 613.295 1246.15 613.926 1245.73 614.451L1251.41 617.709C1259.39 622.333 1265.38 629.795 1268.11 638.622L1274.1 657.854C1274.94 659.956 1277.46 660.587 1279.25 659.22C1279.88 658.695 1280.3 657.959 1280.51 657.118L1284.5 627.483C1286.18 615.712 1277.78 605.098 1266.12 604.152Z" fill="#FAAD70"/><path d="M1284.61 627.272C1286.18 615.711 1277.78 605.097 1266.12 604.151L1258.87 623.698C1257.61 627.061 1260.44 630.529 1263.91 630.109L1284.61 627.272Z" fill="#F68D3D"/><path d="M1285.97 670.673L1260.44 643.769L1292.17 626.534L1310.76 646.607L1285.97 670.673Z" fill="#FFC4B8"/><path d="M1269.9 667.418C1267.9 665.212 1268.11 661.743 1270.32 659.852L1274.31 656.384L1281.45 664.476L1277.46 667.944C1275.26 669.836 1271.79 669.625 1269.9 667.418Z" fill="#FFC4B8"/><path d="M1278.41 670.778L1277.78 670.148C1275.99 668.151 1276.2 664.998 1278.2 663.212L1281.24 660.479L1288.39 668.572L1285.34 671.304C1283.34 672.985 1280.19 672.775 1278.41 670.778Z" fill="#FFC4B8"/><path d="M1262.02 660.481C1260.02 658.274 1260.23 654.806 1262.44 652.915L1266.85 649.026L1274 657.118L1269.58 661.007C1267.38 662.898 1263.91 662.688 1262.02 660.481Z" fill="#FFC4B8"/><path d="M1257.61 653.648L1257.08 652.912C1255.4 650.811 1255.72 647.658 1257.82 645.976L1260.97 643.454L1267.69 651.861L1264.54 654.384C1262.44 656.065 1259.39 655.75 1257.61 653.648Z" fill="#FFC4B8"/><path d="M1298.79 425.701C1302.67 425.701 1305.83 422.549 1305.83 418.66C1305.83 414.772 1302.67 411.619 1298.79 411.619C1294.9 411.619 1291.75 414.772 1291.75 418.66C1291.75 422.549 1294.9 425.701 1298.79 425.701Z" fill="#E6E3DA"/><path d="M658.264 591.96L745.67 604.676C757.752 605.938 768.362 596.584 768.572 584.394C768.888 572.308 758.907 562.64 746.826 563.06L651.961 567.054" fill="#9F5621"/><path d="M672.552 587.755L649.229 595.006L646.708 564.109L671.291 565.055L672.552 587.755Z" fill="#9F5621"/><path d="M629.795 592.377L656.479 582.394L659.736 591.431L633.157 601.31C630.635 602.256 627.904 600.995 626.958 598.473C626.118 595.95 627.379 593.218 629.795 592.377Z" fill="#9F5621"/><path d="M612.356 604.464C610.045 603.098 609.31 600.155 610.675 597.948L621.496 579.768L629.69 584.707L618.87 602.888C617.504 605.095 614.667 605.83 612.356 604.464Z" fill="#9F5621"/><path d="M617.818 604.99L616.977 604.254C615.191 602.783 614.876 600.155 616.347 598.369L630.109 581.659L637.463 587.754L623.701 604.464C622.23 606.146 619.603 606.461 617.818 604.99Z" fill="#9F5621"/><path d="M626.564 587.902L651.797 572.175L646.742 564.058L621.509 579.785L626.564 587.902Z" fill="#9F5621"/><path d="M630.432 592.813L654.758 575.715L649.262 567.89L624.936 584.988L630.432 592.813Z" fill="#9F5621"/><path d="M627.484 601.735C625.487 599.948 625.382 596.9 627.168 595.009L641.456 579.455L648.495 585.971L634.207 601.524C632.421 603.416 629.48 603.521 627.484 601.735Z" fill="#9F5621"/><path d="M641.275 590.716L666.525 575.016L661.479 566.893L636.228 582.594L641.275 590.716Z" fill="#9F5621"/><path d="M694.404 592.909L667.51 588.6L666.459 565.165L733.379 564.219L694.404 592.909Z" fill="#9F5621"/><path d="M1353.63 577.667L1336.29 510.619C1335.24 501.055 1345.33 493.068 1354.78 491.282C1364.76 489.39 1374.32 495.906 1376.32 505.785L1392.5 572.518L1353.63 577.667Z" fill="#FFC4B8"/><path d="M1341.96 534.792C1361.69 534.792 1377.68 518.794 1377.68 499.06C1377.68 479.327 1361.69 463.329 1341.96 463.329C1322.24 463.329 1306.25 479.327 1306.25 499.06C1306.25 518.794 1322.24 534.792 1341.96 534.792Z" fill="#BAC09A"/><path d="M630.53 372.633H628.219V386.715H630.53V372.633Z" fill="#9F5621"/><path d="M630.319 372.633V377.887C630.319 386.4 637.253 393.336 645.762 393.336H673.497V387.556C673.497 379.359 666.879 372.738 658.684 372.738H630.319V372.633Z" fill="#4F4F59"/><path d="M628.008 372.633V383.667C628.008 389.027 623.701 393.336 618.343 393.336H616.662L616.872 383.562C617.082 377.362 622.02 372.633 628.008 372.633Z" fill="#4F4F59"/><path d="M670.135 395.755H650.595V399.538H670.135V395.755Z" fill="#4F4F59"/><path d="M639.565 400.693H620.024V404.477H639.565V400.693Z" fill="#4F4F59"/><path d="M651.016 410.045H639.145V412.987H651.016V410.045Z" fill="#1D1D1B"/><path d="M663.096 425.913H659.84C653.221 425.913 647.863 420.553 647.863 413.933C647.863 407.312 653.221 401.952 659.84 401.952H663.096C669.715 401.952 675.073 407.312 675.073 413.933C675.073 420.448 669.715 425.913 663.096 425.913Z" fill="#1D1D1B"/><path d="M630.32 425.913H627.063C620.445 425.913 615.087 420.553 615.087 413.933C615.087 407.312 620.445 401.952 627.063 401.952H630.32C636.938 401.952 642.296 407.312 642.296 413.933C642.296 420.448 636.938 425.913 630.32 425.913Z" fill="#1D1D1B"/><path d="M645.133 376.941C656.505 376.941 665.724 367.719 665.724 356.343C665.724 344.967 656.505 335.745 645.133 335.745C633.761 335.745 624.542 344.967 624.542 356.343C624.542 367.719 633.761 376.941 645.133 376.941Z" fill="#4F4F59"/><path d="M348.561 691.588L310.951 864.464H250.544L285.527 678.767C288.574 662.372 303.807 651.023 320.406 652.704C339.421 654.596 352.658 672.777 348.561 691.588Z" fill="#891229"/><path d="M1201.51 607.094V597.951H1109.37L1078.8 511.881H1069.14L1102.23 607.094H1201.51Z" fill="#5A829D"/><path d="M1012.83 278.679C1013.35 279.519 1013.56 280.675 1013.25 281.726C1012.62 283.618 1010.62 284.669 1008.73 284.038C1007.15 283.513 1006.21 282.042 1006.31 280.36C1004.74 281.306 1003.79 282.357 1003.79 282.357C1003.79 282.357 1008.1 285.299 1012.51 285.299C1016.92 285.299 1019.66 282.147 1019.66 282.147C1019.66 282.147 1016.71 279.204 1012.83 278.679Z" fill="white"/><path d="M1008.73 284.042C1010.62 284.672 1012.62 283.622 1013.25 281.73C1013.56 280.679 1013.46 279.523 1012.83 278.682C1012.41 278.682 1012.09 278.577 1011.67 278.577C1009.57 278.577 1007.68 279.523 1006.31 280.364C1006.21 282.045 1007.15 283.516 1008.73 284.042Z" fill="black"/><path d="M1003.79 282.464C1007.15 275.738 1017.03 275.738 1021.34 280.782C1020.81 281.203 1019.87 282.043 1019.34 282.464C1018.4 281.308 1012.93 276.684 1004.95 281.623C1004.53 282.043 1004.42 282.148 1003.79 282.464Z" fill="black"/><path d="M978.788 268.069C977.947 268.069 977.422 268.174 977.422 268.174C977.422 268.174 977.527 269.12 977.947 270.276C977.947 269.96 977.947 269.54 978.157 269.225C978.367 268.7 978.577 268.385 978.788 268.069Z" fill="white"/><path d="M986.036 270.064C985.721 269.854 985.406 269.644 985.091 269.434C985.196 270.064 985.196 270.695 984.986 271.43C984.355 273.322 982.359 274.373 980.468 273.742C980.258 273.637 980.048 273.532 979.838 273.427C980.258 273.953 980.783 274.478 981.414 274.898C984.881 277.526 990.133 277.841 990.133 277.841C990.133 277.841 989.503 272.691 986.036 270.064Z" fill="white"/><path d="M984.988 271.429C985.198 270.798 985.198 270.062 985.093 269.432C982.887 268.171 980.365 267.96 978.79 268.066C978.474 268.381 978.264 268.801 978.159 269.222C978.054 269.537 977.949 269.957 977.949 270.273C978.264 271.218 978.79 272.374 979.735 273.425C979.945 273.53 980.155 273.635 980.365 273.741C982.362 274.266 984.358 273.32 984.988 271.429Z" fill="black"/><path d="M990.136 277.839C991.502 270.483 983.517 264.493 977.004 265.964C977.214 266.595 977.424 267.961 977.634 268.591C979.105 268.276 986.144 267.856 989.611 276.578C989.821 276.999 989.716 277.209 990.136 277.839Z" fill="black"/><path d="M188.562 571.992L212.514 507.676L251.28 533.213L224.28 585.444L188.562 571.992Z" fill="#A86554"/><path d="M452.681 915.842L452.681 625.053H423.475L423.475 915.842H452.681Z" fill="#8BB1CD"/><path d="M1174.39 915.862V625.072H1145.19V915.862H1174.39Z" fill="#8BB1CD"/><path d="M1222.73 606.675H375.034V635.89H1222.73V606.675Z" fill="#8BB1CD"/><path d="M691.882 595.115C685.578 595.115 680.641 589.65 681.271 583.345L682.217 573.782C682.742 568.842 686.839 565.164 691.777 565.164C696.714 565.164 700.811 568.947 701.337 573.782L702.282 583.345C703.123 589.65 698.185 595.115 691.882 595.115Z" fill="#FAAD70"/><path d="M703.438 588.492V579.349H680.221V588.492C680.221 593.746 683.688 598.055 688.415 599.526C689.15 599.736 689.676 600.472 689.676 601.208C689.676 602.154 688.835 602.994 687.89 602.994H685.053C684.318 602.994 683.688 603.31 683.372 603.94L682.007 605.937C681.691 606.462 682.007 607.093 682.637 607.093H701.022C701.547 607.093 701.967 606.462 701.652 605.937L700.286 603.94C699.866 603.415 699.236 602.994 698.605 602.994H695.769C694.823 602.994 693.983 602.154 693.983 601.208C693.983 600.472 694.508 599.736 695.244 599.526C699.971 598.16 703.438 593.746 703.438 588.492Z" fill="#F7E5CD"/><path d="M383.124 582.083C383.124 593.223 392.159 602.155 403.19 602.155H404.03C405.501 605.098 408.547 607.2 412.119 607.2H435.967C441.01 607.2 445.107 603.101 445.107 598.057V555.915H402.98V562.115C391.949 562.115 383.124 571.048 383.124 582.083ZM389.848 582.083C389.848 575.042 395.521 569.262 402.664 569.262H403.085V594.799H402.664C395.521 594.799 389.848 589.124 389.848 582.083Z" fill="#D8CBC5"/><path d="M878.356 519.132L880.562 546.456C881.402 557.175 873.208 566.318 862.492 566.739L835.073 567.58C834.338 567.58 833.497 567.369 832.972 566.844C831.501 565.478 831.711 563.061 833.392 562.01L849.781 553.707C857.345 549.819 863.123 543.303 866.169 535.421L872.683 518.186C873.523 516.4 875.94 515.874 877.41 517.241C877.936 517.661 878.251 518.397 878.356 519.132Z" fill="#F68D3D"/><path d="M880.562 546.458C881.402 557.177 873.208 566.32 862.492 566.74L856.924 548.56C855.979 545.407 858.71 542.359 861.862 542.99L880.562 546.458Z" fill="#FAAD70"/><path d="M867.114 522.913L892.748 532.792C902.728 536.68 907.455 548.135 903.148 557.909L892.012 583.026C891.697 583.761 891.067 584.287 890.436 584.602C888.545 585.338 886.444 584.182 886.234 582.08L885.814 563.689C885.604 555.176 882.242 547.084 876.464 540.989L863.752 527.642C862.492 526.066 863.122 523.649 864.908 522.913C865.643 522.598 866.379 522.598 867.114 522.913Z" fill="#FAAD70"/><path d="M826.457 540.678C822.99 534.688 815.321 532.586 809.333 536.054C803.345 539.522 801.244 547.194 804.711 553.184L812.905 567.371C816.372 573.362 824.041 575.464 830.029 571.995C836.017 568.527 838.118 560.856 834.652 554.866L826.457 540.678Z" fill="#FAAD70"/><path d="M624.856 574.832C617.922 574.832 612.354 580.402 612.354 587.338C612.354 594.274 617.922 599.844 624.856 599.844H641.245C648.178 599.844 653.746 594.274 653.746 587.338C653.746 580.402 648.178 574.832 641.245 574.832H624.856Z" fill="#FAAD70"/><path d="M892.749 532.794C902.729 536.682 907.457 548.137 903.15 557.911L884.345 555.073C881.088 554.548 879.512 550.765 881.508 548.137L892.749 532.794Z" fill="#F68D3D"/><path d="M822.465 541.309C822.991 542.15 820.154 544.672 816.162 546.984C812.17 549.296 808.598 550.452 808.178 549.611C807.653 548.771 810.489 546.248 814.481 543.936C818.368 541.624 821.94 540.468 822.465 541.309Z" fill="#F68D3D"/><path d="M628.113 574.832C628.113 579.351 627.378 583.029 626.327 583.029C625.381 583.029 624.541 579.351 624.541 574.832" fill="#F68D3D"/><path d="M634.837 574.832C634.837 579.351 634.101 583.029 633.051 583.029C632.105 583.029 631.265 579.351 631.265 574.832" fill="#F68D3D"/><path d="M641.559 574.832C641.559 579.351 640.824 583.029 639.773 583.029C638.828 583.029 637.987 579.351 637.987 574.832" fill="#F68D3D"/><path d="M827.194 549.609C827.719 550.45 824.883 552.972 820.891 555.284C816.899 557.596 813.327 558.752 812.906 557.911C812.381 557.07 815.218 554.548 819.21 552.236C823.202 549.924 826.774 548.768 827.194 549.609Z" fill="#F68D3D"/><path d="M832.026 557.913C832.551 558.753 829.715 561.276 825.723 563.588C821.731 565.9 818.159 567.056 817.738 566.215C817.213 565.374 820.05 562.852 824.042 560.54C827.929 558.228 831.501 557.072 832.026 557.913Z" fill="#F68D3D"/><path d="M859.444 548.241C859.444 556.964 852.406 564.005 843.686 564.005C834.966 564.005 827.928 556.964 827.928 548.241C827.928 539.519 834.966 532.478 843.686 532.478C852.406 532.478 859.444 539.519 859.444 548.241Z" fill="#F68D3D"/><path d="M850.724 542.883L848.623 540.887L843.895 545.721L839.062 540.887L837.066 542.883L841.794 547.718L837.066 552.552L839.062 554.549L843.895 549.714L848.623 554.549L850.724 552.552L845.891 547.718L850.724 542.883Z" fill="#FAAD70"/><path d="M657.317 598.688H608.887V606.569H657.317V598.688Z" fill="#F7E5CD"/><path d="M671.606 590.595H594.6C592.289 590.595 591.554 593.642 593.55 594.693L608.888 602.68H657.318L672.656 594.693C674.653 593.642 673.917 590.595 671.606 590.595Z" fill="#F7E5CD"/><path d="M803.03 588.599H774.875V594.589H803.03V588.599Z" fill="#FFD300"/><path d="M803.03 576.617H774.875V582.607H803.03V576.617Z" fill="#E73245"/><path d="M958.408 562.006V555.806H916.281V597.948C916.281 602.992 920.378 607.09 925.421 607.09H949.269C952.841 607.09 955.887 605.094 957.358 602.046H958.198C969.334 602.046 978.264 593.008 978.264 581.974C978.264 571.044 969.439 562.111 958.408 562.006ZM971.54 582.079C971.54 589.12 965.867 594.9 958.724 594.9H958.303V569.363H958.724C965.867 569.257 971.54 575.037 971.54 582.079Z" fill="#D8CBC5"/><path d="M925.945 555.386C927.311 553.179 928.992 551.182 931.198 549.816C933.404 548.45 936.136 547.819 938.657 548.555C941.178 549.29 943.174 551.603 943.279 554.23C943.279 556.121 942.334 558.013 941.073 559.484C939.813 560.956 938.237 562.217 936.976 563.688C932.459 568.838 931.303 576.719 934.14 582.92" stroke="#E6E3DA" stroke-width="1.86106" stroke-miterlimit="10"/><path d="M902.307 555.806H810.174C807.022 555.806 804.816 558.958 805.866 561.901L815.111 587.333C819.419 599.209 830.659 607.09 843.266 607.09H869.005C881.611 607.09 892.852 599.209 897.16 587.333L906.404 561.901C907.665 558.958 905.459 555.806 902.307 555.806Z" fill="#F7E5CD"/><path d="M803.03 600.579H774.875V606.569H803.03V600.579Z" fill="#0000FF"/><path d="M803.03 594.589H774.875V600.579H803.03V594.589Z" fill="#008300"/><path d="M803.03 582.606H774.875V588.597H803.03V582.606Z" fill="#FF5200"/><path d="M773.299 632.737C764.474 632.737 758.486 630.635 756.595 626.957C755.65 625.17 755.755 623.068 757.015 621.282C757.331 620.861 757.646 620.441 758.066 620.021C757.541 619.495 757.121 618.97 756.805 618.444C755.755 616.658 755.86 614.556 756.91 612.874C757.226 612.454 757.541 612.034 757.961 611.613C756.595 610.352 755.965 608.986 755.965 607.62C755.965 606.464 756.385 604.467 758.906 602.785C758.906 602.785 758.906 602.785 758.801 602.68C756.805 600.684 756.175 598.477 756.805 596.48C757.541 594.378 759.537 592.802 762.793 591.856C762.688 590.069 762.899 587.967 763.949 585.235C765.735 580.821 771.198 578.299 775.82 576.723L777.081 580.191C773.509 581.452 768.677 583.554 767.416 586.601C766.891 587.967 766.47 589.544 766.47 591.015C771.198 590.28 774.35 590.7 776.136 592.276C777.186 593.117 777.711 594.378 777.711 595.849C777.711 597.321 776.766 598.582 775.19 599.212C774.98 599.317 774.875 599.317 774.665 599.423C776.871 599.843 778.132 601.314 778.447 602.891C778.657 604.572 777.711 606.148 775.925 606.674C771.093 608.145 765.945 607.199 762.163 605.097C760.272 606.043 759.642 606.989 759.642 607.62C759.642 608.145 760.062 608.776 761.218 609.511C764.369 608.145 768.677 607.62 773.719 607.935C775.085 607.935 776.346 608.565 776.976 609.722C777.711 610.878 777.711 612.349 777.081 613.61C776.346 614.871 774.98 615.607 773.299 615.607C767.941 615.607 763.949 614.871 761.218 613.715C760.692 614.135 760.272 614.451 759.957 614.871C759.537 615.502 759.537 616.027 759.852 616.658C760.062 617.078 760.587 617.603 761.218 618.024C764.474 616.658 768.782 616.132 773.509 616.658C775.505 616.868 776.976 618.654 776.871 620.651C776.766 622.648 775.295 624.119 773.404 624.119C768.466 624.224 764.264 623.489 761.218 622.227C760.692 622.648 760.272 622.963 759.957 623.383C759.432 624.224 759.537 624.855 759.747 625.17C760.692 626.851 764.684 628.953 773.194 628.953L773.299 632.737ZM768.256 620.231C769.727 620.441 771.408 620.546 773.299 620.441V620.336C771.408 620.231 769.727 620.126 768.256 620.231ZM768.677 611.718C770.042 611.823 771.618 611.928 773.299 611.928C773.719 611.928 773.824 611.823 773.824 611.823H773.719L773.404 611.718C771.723 611.613 770.147 611.613 768.677 611.718ZM768.466 603.521C770.357 603.836 772.459 603.836 774.35 603.311C774.139 603.206 773.929 603.206 773.614 603.206C771.618 603.206 769.937 603.311 768.466 603.521ZM763.844 595.534C761.638 596.165 760.587 597.005 760.377 597.741C760.062 598.582 761.008 599.738 761.533 600.158C761.848 600.473 762.163 600.789 762.583 601.104C764.579 600.368 766.996 599.948 769.622 599.738C768.046 599.317 766.47 598.582 765.315 597.426C764.79 596.9 764.264 596.27 763.844 595.534ZM767.941 594.693C768.151 594.904 768.361 595.114 768.677 595.219C770.778 596.48 773.404 596.165 774.034 595.744C774.034 595.429 773.929 595.324 773.719 595.219C773.404 594.904 772.038 594.273 767.941 594.693Z" fill="#E73245"/><path d="M943.068 589.542L934.979 593.641L932.142 587.966L931.617 583.972L937.29 581.135L940.127 583.867L943.068 589.542Z" fill="#01464D"/></svg>