<svg viewBox="0 0 1600 1200" fill="none" xmlns="http://www.w3.org/2000/svg"><path d="M366.766 567.679L327.706 590.25L348.807 626.752L387.867 604.182L366.766 567.679Z" fill="#FFC6AD"/><path d="M414.282 605.277C395.989 595.525 378.486 587.996 378.486 587.996L327.962 588.81C324.455 590.609 321.658 592.763 319.446 595.147L354.084 651.574L422.087 630.191L414.282 605.277Z" fill="#FFC6AD"/><path d="M320.604 593.965L337.476 606.57L367.174 626.453C376.309 633.615 389.376 632.744 397.479 624.425L414.259 605.253L414.282 605.264C426.237 611.636 438.536 618.97 446.49 625.765C466.629 642.955 515.239 735.492 515.239 735.492L402.19 800.812L317.097 639.781C317.097 639.781 303.95 611.796 319.447 595.134L320.604 593.965Z" fill="#463EC5"/><path d="M366.462 573.557L382.498 564.469C391.266 559.496 394.349 548.357 389.375 539.579L371.494 507.159C370.818 505.968 370.073 504.822 369.294 503.733L355.413 477.364C345.9 459.292 323.538 452.348 305.462 461.859L282.298 474.053C264.223 483.564 257.277 505.922 266.79 524.005L291.479 570.932C294.917 577.476 300.052 582.553 306.047 585.922C309.818 588.237 313.979 589.818 318.288 590.666" fill="#FFC6AD"/><path d="M380.974 508.625C379.071 504.993 367.518 501.555 367.518 501.555L375.048 519.283C375.048 519.283 382.876 512.258 380.974 508.625Z" fill="#FFC6AD"/><path d="M346.426 491.78L346.071 492.112C342.358 495.562 340.558 500.661 341.223 505.864L360.513 487.975C355.355 486.921 350.152 488.331 346.426 491.78Z" fill="#171111"/><path d="M382.531 527.25C381.97 525.692 380.239 524.889 378.68 525.462L364.96 530.516C364.88 530.081 377.374 537.701 386.83 535.123C387.024 535.066 386.704 535.157 386.898 535.089C387.059 535.043 382.531 527.25 382.531 527.25Z" fill="#891229"/><path d="M329.784 543.909C334.311 540.105 335.755 533.538 332.89 528.083C331.881 526.17 330.46 524.623 328.798 523.477C329.795 530.387 330.127 537.24 329.784 543.909Z" fill="#FBC4AC"/><path d="M357.671 510.136C356.124 508.336 355.62 506.09 356.204 504.383C352.078 508.084 348.8 513.161 348.8 513.161C354.794 515.143 359.15 513.986 361.878 512.496C360.411 512.336 358.863 511.511 357.671 510.136Z" fill="white"/><path d="M365.35 509.737C364.192 503.71 358.92 502.266 358.92 502.266C357.991 502.862 357.086 503.595 356.203 504.374C355.618 506.082 356.123 508.328 357.67 510.127C358.862 511.514 360.41 512.327 361.877 512.488C364.192 511.227 365.35 509.737 365.35 509.737Z" fill="white"/><path d="M365.35 509.737C364.192 503.71 358.92 502.266 358.92 502.266C357.991 502.862 357.086 503.595 356.203 504.374C355.618 506.082 356.123 508.328 357.67 510.127C358.862 511.514 360.41 512.327 361.877 512.488C364.192 511.227 365.35 509.737 365.35 509.737Z" fill="#171716"/><path d="M360.124 501.42L359.149 500.285C359.149 500.285 350.668 504.273 346.209 512.914L349.819 513.59C349.819 513.578 353.029 507.15 360.124 501.42Z" fill="#171716"/><path d="M347.573 569.832C346.243 567.38 344.134 565.443 341.578 564.332C338.426 562.956 333.601 560.882 327.847 558.544C328.879 553.823 329.52 548.918 329.773 543.91C329.073 544.495 328.317 545.011 327.48 545.457C321.199 548.769 313.417 546.351 310.116 540.071C306.803 533.792 309.221 526.01 315.503 522.71C319.87 520.407 324.97 520.888 328.775 523.501C328.007 518.161 326.838 512.786 325.28 507.469L322.277 497.178L340.375 487.655C350.484 482.338 354.358 469.835 349.04 459.739C343.722 449.632 331.228 445.758 321.119 451.064L263.741 481.249C248.634 489.191 242.467 506.575 247.419 521.61L260.692 541.389L262.996 544.976C262.881 545.091 263.099 544.85 262.996 544.976L318.838 626.523L321.52 630.064C327.618 621.584 336.753 607.832 342.702 596.739C348.18 586.517 351.596 577.292 349.235 572.938L347.573 569.832Z" fill="#171111"/><path d="M508.419 700.806L532.454 694.572L548.604 698.205L548.615 698.193C550.587 699.179 553.028 699.007 554.862 697.529C556.765 695.993 557.441 693.518 556.765 691.318L560.284 692.452V692.441C562.037 692.945 564.009 692.624 565.545 691.386C566.977 690.229 567.711 688.533 567.699 686.825C569.568 687.536 571.746 687.272 573.407 685.932C575.104 684.556 575.826 682.425 575.482 680.408C576.021 680.202 576.537 679.904 577.007 679.526C579.505 677.52 579.895 673.865 577.878 671.378C577.35 670.725 576.708 670.22 576.009 669.865L553.922 658.715L515.365 658.543C515.365 658.543 488.578 678.563 462.823 692.613L480.899 718.981L508.419 700.806Z" fill="#FFC6AD"/><path d="M624.974 665.299L780.465 912.186L826.118 887.869L705.654 633.957L624.974 665.299Z" fill="#F5B091"/><path d="M700.119 629.969L923.156 790.725L875.027 823.328L683.407 722.38L520.431 829.929C497.736 846.603 462.789 850.396 424.758 859.873L382.017 848.081L356.984 773.822L658.73 629.408C671.67 622.36 687.362 622.566 700.119 629.969Z" fill="#FFC6AD"/><path d="M515.181 723.311L515.078 742.975L338.358 739.961L338.462 720.285L515.181 723.311Z" fill="#4E4FA2"/><path d="M362.978 691.73C287.112 585.465 194.374 468.152 194.374 468.152C195.05 470.777 195.749 473.378 196.46 475.991C198.42 483.222 200.437 490.441 202.501 497.638C205.63 508.559 208.85 519.446 212.174 530.31C216.358 543.981 220.691 557.618 225.172 571.198C230.296 586.702 235.625 602.15 241.184 617.506C247.133 633.928 253.345 650.258 259.902 666.45C266.549 682.872 273.541 699.156 281.003 715.223C288.212 730.739 295.869 746.072 304.179 761.027C311.812 774.778 320.008 788.244 329.108 801.078C330.415 802.923 331.745 804.745 333.097 806.568C338.771 814.223 344.823 821.603 351.425 828.478C352.754 829.865 354.107 831.24 355.482 832.581C363.632 840.511 372.709 847.754 382.991 852.727C405.651 863.694 428.827 865.734 453.332 860.52C454.284 860.313 455.235 860.107 456.186 859.889C457.527 859.58 458.49 858.846 459.098 857.735C466.662 843.949 419.52 770.917 362.978 691.73Z" fill="#891229"/><path d="M345.041 929.091L343.94 946.407L323.618 956.056L324.535 941.548L255.695 983.364C251.03 986.149 249.517 992.188 252.303 996.852C255.088 1001.52 261.128 1003.03 265.793 1000.24L468.141 877.316L456.989 861.078L345.041 929.091Z" fill="#7B446C"/><path d="M382.028 690.676L362.979 691.73C419.509 770.917 466.663 843.949 459.075 857.712C460.382 857.322 461.688 856.91 462.983 856.451L463.453 857.895L474.709 852.131L473.826 850.848L618.521 762.941L601.065 656.996L549.188 681.474L449.39 729.307L382.028 690.676Z" fill="#463EC5"/><path d="M641.753 760.428C638.968 755.764 632.928 754.251 628.263 757.036L618.532 762.949L473.837 850.856L474.719 852.139L485.001 867.094L638.372 773.916C643.026 771.12 644.539 765.08 641.753 760.428Z" fill="#7B446C"/><path d="M358.713 713.171L355.241 712.977L358.438 717.641L358.713 713.171Z" fill="#7C456C"/><path d="M438.649 799.324L378.566 711.886L321.761 629.205L263.695 544.69L261.277 541.172L247.82 521.587L185.594 431.022C182.522 426.541 176.39 425.406 171.92 428.489C167.438 431.56 166.304 437.691 169.387 442.16L355.528 713.067L358.737 717.708L358.726 717.719L468.164 877.307L485.001 867.073L438.649 799.324Z" fill="#7B446C"/><path d="M324.741 737.704L393.742 729.819L356.949 628.86C356.949 628.86 335.985 622.007 329.246 624.505C315.87 629.479 313.635 648.559 314.987 663.032C315.904 672.888 314.93 670.561 324.741 737.704Z" fill="#463EC5"/><path d="M466.674 690.766L376.275 730.92L350.222 734.393L331.837 736.845L338.817 767.328C339.024 769.15 339.436 770.972 340.067 772.771L340.078 772.805C340.674 774.88 341.465 776.518 342.451 777.802C349.729 789.731 365.397 793.777 377.627 786.477L397.433 774.456L508.419 700.804" fill="#FFC6AD"/><path d="M323.629 956.057L344.02 947.096L351.424 828.466C344.822 821.601 338.782 814.21 333.096 806.555L323.629 956.057Z" fill="#7B446C"/><path d="M552.03 999.388C555.102 1003.87 564.088 996.638 564.088 996.638C564.088 996.638 571.321 992.73 568.249 988.261L484.99 867.098L468.152 877.331L552.03 999.388Z" fill="#7B446C"/><path d="M875.016 823.331C875.016 823.331 886.993 765.001 901.687 774.891C922.708 789.032 948.142 802.646 971.25 789.376C982.906 782.706 988.305 777.183 995.961 783.188C1000.83 787.004 1000.86 794.372 995.984 798.188L918.112 864.654C911.143 870.155 905.951 867.382 899.899 859.75L875.016 823.331Z" fill="#FFC6AD"/><path d="M1470 1001.65H131V1020H1470V1001.65Z" fill="#D8CBC5"/><path d="M1145 842.23L1161.59 843.261L1173.78 798.557L1174.35 822.21L1168.82 869.068H1250.64L1250.85 868.976L1241.66 851.214L1271.03 852.944C1271.4 848.911 1271.41 844.865 1271.06 840.831L1264.88 774.686C1264.88 774.595 1264.87 774.514 1264.87 774.423C1264.87 774.239 1264.85 774.045 1264.85 773.861C1264.85 773.747 1264.84 773.632 1264.83 773.517C1264.22 761.989 1255.49 752.443 1244.13 751.549C1244.02 751.538 1243.89 751.538 1243.78 751.526V751.48H1174.03V751.492C1173.57 751.503 1173.11 751.515 1172.66 751.549C1161.55 752.42 1152.95 761.565 1152 772.738C1151.81 773.598 1151.65 774.48 1151.57 775.408L1144.99 841.382L1145 842.23Z" fill="#F5B091"/><path d="M1235.01 751.549V760.362C1235.01 774.48 1223.56 785.928 1209.44 785.928C1195.32 785.928 1183.87 776.165 1183.87 762.046L1183.93 751.549H1174.26V788.048V865.63L1207.28 884.573H1213.59L1247.08 865.63L1245.28 820.662L1243.7 780.989L1243.08 751.48" fill="#E73245"/><path d="M1236.09 726.289C1240.33 726.289 1243.78 722.846 1243.78 718.6C1243.78 714.353 1240.33 710.91 1236.09 710.91C1231.84 710.91 1228.39 714.353 1228.39 718.6C1228.39 722.846 1231.84 726.289 1236.09 726.289Z" fill="#FFC6AD"/><path d="M1183.92 726.266C1188.17 726.266 1191.61 722.823 1191.61 718.576C1191.61 714.329 1188.17 710.887 1183.92 710.887C1179.68 710.887 1176.23 714.329 1176.23 718.576C1176.23 722.823 1179.68 726.266 1183.92 726.266Z" fill="#FFC6AD"/><path d="M1227.38 753.998V728.615L1192.63 728.512V754.009C1192.63 764.209 1200.42 772.471 1210.01 772.471C1219.59 772.448 1227.38 764.186 1227.38 753.998Z" fill="#F5B091"/><path d="M1184.83 724.447V699.694C1184.83 685.919 1195.99 674.758 1209.77 674.758H1210.23C1224 674.758 1235.17 685.919 1235.17 699.694V724.447C1235.17 738.221 1224 749.383 1210.23 749.383H1209.77C1195.99 749.383 1184.83 738.221 1184.83 724.447Z" fill="#FFC6AD"/><path d="M1197.37 704.621H1197.07C1193.99 704.633 1191.07 705.721 1189.23 707.578L1205.24 707.52C1203.37 705.687 1200.46 704.61 1197.37 704.621Z" fill="#5C1C13"/><path d="M1222.63 704.621H1222.93C1226.01 704.633 1228.92 705.721 1230.77 707.578L1214.75 707.52C1216.62 705.687 1219.55 704.61 1222.63 704.621Z" fill="#5C1C13"/><path d="M1201.95 717.328C1203.02 717.179 1203.51 715.941 1202.87 715.082C1201.95 713.832 1200.47 712.285 1198.47 711.598C1196.31 710.853 1194.02 711.254 1192.52 711.701C1191.57 711.987 1191.2 713.133 1191.81 713.924C1192.61 714.956 1193.94 716.239 1195.91 716.927C1198 717.637 1200.33 717.545 1201.95 717.328Z" fill="white"/><path d="M1197.29 717.307C1198.93 717.307 1200.27 715.973 1200.27 714.327C1200.27 712.682 1198.93 711.348 1197.29 711.348C1195.64 711.348 1194.31 712.682 1194.31 714.327C1194.31 715.973 1195.64 717.307 1197.29 717.307Z" fill="#010101"/><path d="M1203.17 715.619C1201.13 710.68 1195.97 709.591 1191.29 711.677C1191.6 712.17 1191.44 711.814 1191.75 712.307C1192.48 711.86 1195.13 711.058 1198.03 711.849C1201.29 712.731 1202.71 715.229 1203.17 715.619Z" fill="#010101"/><path d="M1218.7 717.328C1217.63 717.179 1217.14 715.941 1217.78 715.082C1218.7 713.832 1220.18 712.285 1222.18 711.598C1224.34 710.853 1226.63 711.254 1228.13 711.701C1229.08 711.987 1229.45 713.133 1228.84 713.924C1228.04 714.956 1226.71 716.239 1224.74 716.927C1222.65 717.637 1220.33 717.545 1218.7 717.328Z" fill="white"/><path d="M1223.36 717.307C1225.01 717.307 1226.34 715.973 1226.34 714.327C1226.34 712.682 1225.01 711.348 1223.36 711.348C1221.72 711.348 1220.38 712.682 1220.38 714.327C1220.38 715.973 1221.72 717.307 1223.36 717.307Z" fill="#010101"/><path d="M1217.5 715.619C1219.54 710.68 1224.69 709.591 1229.37 711.677C1229.06 712.17 1229.22 711.814 1228.91 712.307C1228.18 711.86 1225.53 711.058 1222.63 711.849C1219.37 712.731 1217.94 715.229 1217.5 715.619Z" fill="#010101"/><path d="M1209.98 724.894C1209.12 724.894 1208.43 724.424 1207.82 724.012C1206.83 723.324 1206.23 722.923 1205.04 724.23L1204.26 723.382C1206.07 721.388 1207.36 722.281 1208.39 722.992C1208.92 723.347 1209.41 723.691 1209.96 723.691C1210.53 723.691 1211 723.382 1211.49 723.049C1212.47 722.385 1213.7 721.559 1215.73 723.416L1215.03 724.344C1213.6 723.038 1212.99 723.45 1212.06 724.081C1211.5 724.459 1210.85 724.894 1209.98 724.894Z" fill="#010101"/><path d="M1246.88 676.119C1246.88 667.661 1240.03 660.809 1231.58 660.809C1224.18 660.809 1218.01 666.069 1216.59 673.059H1203.18C1202.9 673.059 1202.63 673.07 1202.35 673.082C1200.94 666.08 1194.77 660.809 1187.36 660.809C1178.91 660.809 1172.06 667.661 1172.06 676.119C1172.06 682.57 1176.06 688.083 1181.7 690.34C1181.37 691.864 1181.18 693.446 1181.18 695.061V711.77H1185.12V707.747C1185.12 702.373 1190.49 699.382 1196.1 697.72C1203.44 695.543 1208.51 688.827 1208.51 681.161H1211.48C1211.48 688.827 1216.54 695.543 1223.89 697.72C1229.48 699.382 1234.87 702.373 1234.87 707.747V711.77H1238.8V695.061C1238.8 693.285 1238.59 691.555 1238.2 689.905C1243.33 687.441 1246.88 682.204 1246.88 676.119Z" fill="#5C1C13"/><path d="M1210.25 736.868H1210.24C1206.53 736.856 1203.43 734.301 1203.29 734.186L1204.06 733.27C1204.1 733.292 1206.96 735.665 1210.24 735.665H1210.25C1213.62 735.665 1215.87 733.338 1215.89 733.315L1216.76 734.14C1216.66 734.255 1214.15 736.868 1210.25 736.868Z" fill="#010101"/><path d="M1102.84 806.483C1106.29 806.483 1109.09 803.681 1109.09 800.226C1109.09 796.77 1106.29 793.969 1102.84 793.969C1099.39 793.969 1096.6 796.77 1096.6 800.226C1096.6 803.681 1099.39 806.483 1102.84 806.483Z" fill="#FFC6AD"/><path d="M1060.42 806.459C1063.87 806.459 1066.67 803.658 1066.67 800.202C1066.67 796.747 1063.87 793.945 1060.42 793.945C1056.97 793.945 1054.17 796.747 1054.17 800.202C1054.17 803.658 1056.97 806.459 1060.42 806.459Z" fill="#FFC6AD"/><path d="M1095.76 829.012V808.361L1067.5 808.27V829C1067.5 837.285 1073.83 844.012 1081.64 844.012C1089.43 844.024 1095.76 837.297 1095.76 829.012Z" fill="#F4B091"/><path d="M1061.15 804.981V784.846C1061.15 773.65 1070.23 764.562 1081.44 764.562H1081.82C1093.02 764.562 1102.11 773.639 1102.11 784.846V804.981C1102.11 816.177 1093.03 825.264 1081.82 825.264H1081.44C1070.23 825.264 1061.15 816.177 1061.15 804.981Z" fill="#FFC6AD"/><path d="M1081.6 805.351C1080.9 805.351 1080.34 804.972 1079.85 804.629C1079.05 804.078 1078.55 803.735 1077.59 804.812L1076.96 804.113C1078.44 802.497 1079.48 803.219 1080.33 803.792C1080.75 804.09 1081.15 804.365 1081.6 804.365C1082.06 804.365 1082.44 804.113 1082.84 803.838C1083.64 803.299 1084.64 802.623 1086.29 804.136L1085.72 804.892C1084.56 803.838 1084.05 804.17 1083.3 804.674C1082.84 804.984 1082.31 805.351 1081.6 805.351Z" fill="#010101"/><path d="M1081.51 767.015C1081.52 766.029 1081.74 764.975 1082.18 764.081C1082.52 763.371 1083.02 762.741 1083.78 762.454C1084.87 762.053 1085.88 762.672 1086.65 763.405C1087.93 764.631 1088.81 766.327 1090.57 766.969C1092.31 767.611 1094.5 766.9 1095.28 765.17C1095.79 764.024 1095.8 762.626 1095.53 761.423C1095.32 760.529 1093.96 760.907 1094.17 761.801C1094.35 762.615 1094.38 763.795 1093.97 764.643C1093.57 765.457 1092.65 765.823 1091.78 765.789C1090.86 765.755 1090.14 765.181 1089.53 764.54C1088.26 763.188 1087.2 761.4 1085.25 760.987C1083.37 760.586 1081.71 761.801 1080.93 763.44C1080.41 764.54 1080.12 765.8 1080.1 767.026C1080.08 767.92 1081.5 767.932 1081.51 767.015Z" fill="#5C1C13"/><path d="M1075.91 791.277H1066.35C1065.71 791.277 1065.18 790.75 1065.18 790.108V790.016C1065.18 789.375 1065.71 788.848 1066.35 788.848H1075.91C1076.55 788.848 1077.08 789.375 1077.08 790.016V790.108C1077.06 790.761 1076.55 791.277 1075.91 791.277Z" fill="#5C1C13"/><path d="M1097 791.277H1087.44C1086.79 791.277 1086.27 790.75 1086.27 790.108V790.016C1086.27 789.375 1086.79 788.848 1087.44 788.848H1097C1097.64 788.848 1098.17 789.375 1098.17 790.016V790.108C1098.17 790.761 1097.64 791.277 1097 791.277Z" fill="#5C1C13"/><path d="M1075.02 800.641C1075.89 800.526 1076.3 799.518 1075.77 798.807C1075.02 797.787 1073.82 796.538 1072.19 795.977C1070.44 795.369 1068.58 795.69 1067.36 796.057C1066.58 796.286 1066.28 797.226 1066.78 797.867C1067.44 798.704 1068.52 799.758 1070.12 800.308C1071.8 800.904 1073.7 800.824 1075.02 800.641Z" fill="white"/><path d="M1071.23 800.629C1072.56 800.629 1073.65 799.546 1073.65 798.211C1073.65 796.876 1072.56 795.793 1071.23 795.793C1069.89 795.793 1068.81 796.876 1068.81 798.211C1068.81 799.546 1069.89 800.629 1071.23 800.629Z" fill="#010101"/><path d="M1088.64 800.641C1087.77 800.526 1087.37 799.518 1087.9 798.807C1088.64 797.787 1089.84 796.538 1091.47 795.977C1093.23 795.369 1095.08 795.69 1096.31 796.057C1097.09 796.286 1097.39 797.226 1096.88 797.867C1096.23 798.704 1095.14 799.758 1093.55 800.308C1091.86 800.904 1089.96 800.824 1088.64 800.641Z" fill="white"/><path d="M1092.43 800.629C1093.77 800.629 1094.85 799.546 1094.85 798.211C1094.85 796.876 1093.77 795.793 1092.43 795.793C1091.1 795.793 1090.01 796.876 1090.01 798.211C1090.01 799.546 1091.1 800.629 1092.43 800.629Z" fill="#010101"/><path d="M1081.62 817.398C1085.17 817.398 1088.04 815.766 1088.04 813.754C1088.04 811.741 1085.17 810.109 1081.62 810.109C1078.08 810.109 1075.21 811.741 1075.21 813.754C1075.21 815.766 1078.08 817.398 1081.62 817.398Z" fill="#7070FF"/><path d="M1081.64 816.473C1082.97 816.473 1084.04 815.396 1084.04 814.067C1084.04 812.738 1082.97 811.66 1081.64 811.66C1080.31 811.66 1079.23 812.738 1079.23 814.067C1079.23 815.396 1080.31 816.473 1081.64 816.473Z" fill="#463EC5"/><path d="M1081.67 820.592C1079.55 820.592 1077.83 818.873 1077.83 816.753C1077.83 814.633 1079.55 812.914 1081.67 812.914C1083.79 812.914 1085.51 814.633 1085.51 816.753C1085.51 818.873 1083.78 820.592 1081.67 820.592ZM1081.67 814.209C1080.26 814.209 1079.11 815.355 1079.11 816.764C1079.11 818.174 1080.26 819.32 1081.67 819.32C1083.08 819.32 1084.23 818.174 1084.23 816.764C1084.23 815.355 1083.07 814.209 1081.67 814.209Z" fill="#463EC5"/><path d="M1317.95 911.914H673.663C648.653 911.914 628.389 891.642 628.389 866.648C628.389 841.643 648.665 821.383 673.663 821.383H1317.95C1342.96 821.383 1363.22 841.655 1363.22 866.648C1363.22 891.642 1342.96 911.914 1317.95 911.914Z" fill="#FFD4D2"/><path d="M1317.95 1002.45H673.663C648.653 1002.45 628.389 982.173 628.389 957.18C628.389 932.175 648.665 911.914 673.663 911.914H1317.95C1342.96 911.914 1363.22 932.186 1363.22 957.18C1363.22 982.173 1342.96 1002.45 1317.95 1002.45Z" fill="#FF9D96"/><path d="M1134.77 856.818C1133.91 859.843 1135.67 862.983 1138.69 863.843C1139.21 863.992 1139.74 864.061 1140.25 864.061C1142.73 864.061 1145.01 862.433 1145.72 859.924C1147.9 852.28 1151.16 845.416 1155.28 839.686C1150.05 852.796 1147.97 867.808 1149.96 883.37C1150.29 886.006 1152.54 887.919 1155.13 887.919C1155.35 887.919 1155.58 887.908 1155.8 887.874C1158.65 887.507 1160.67 884.894 1160.3 882.041C1158.44 867.567 1160.56 853.632 1165.69 841.714C1164.08 854.114 1166.27 866.845 1172.84 878.121C1173.89 879.932 1175.8 880.952 1177.76 880.952C1178.73 880.952 1179.72 880.7 1180.61 880.173C1183.33 878.591 1184.24 875.108 1182.66 872.392C1177.82 864.095 1175.95 854.801 1176.68 845.599L1150.82 827.172C1143.66 835.01 1138.09 845.186 1134.77 856.818Z" fill="#B0C2E4"/><path d="M1177.54 846.213L1197.28 860.285L1200.39 862.508C1201.61 863.368 1203.29 863.001 1204.04 861.706L1232.46 809.095C1233.11 807.972 1232.78 806.551 1231.74 805.806L1188.08 774.693C1187.03 773.948 1185.58 774.108 1184.74 775.082L1145.55 820.027C1144.56 821.15 1144.77 822.869 1145.97 823.729L1150.83 827.189L1177.54 846.213Z" fill="#891229"/><path d="M1185.25 800.307C1203.82 804.73 1214.64 826.114 1209.4 848.071C1208.14 853.377 1206.04 858.236 1203.34 862.487C1208.15 857.101 1211.86 850.225 1213.74 842.341C1218.96 820.384 1208.15 799.001 1189.59 794.577C1175.51 791.219 1161.02 798.588 1152.55 811.916C1161.15 802.312 1173.34 797.476 1185.25 800.307Z" fill="#E73245"/><path d="M1269.52 826.243L1269.53 826.254L1268.41 814.451L1258.34 812.824L1261.05 816.067L1219.01 793.411L1219.03 793.365L1205.32 784.977V784.988L1185.91 785.928L1185.89 785.893L1173.44 793.09C1172.19 793.812 1171.72 795.382 1172.37 796.677C1172.94 797.823 1174.21 798.35 1175.4 798.086C1175.43 798.316 1175.49 798.545 1175.58 798.774C1176.21 800.378 1178.03 801.18 1179.64 800.539L1179.82 800.47C1179.84 800.607 1179.85 800.757 1179.9 800.894C1180.39 802.533 1182.1 803.472 1183.74 803.014L1184.43 802.819C1184.38 803.22 1184.42 803.644 1184.54 804.057C1185.03 805.696 1186.74 806.635 1188.38 806.177L1197.6 803.61L1210.24 806.269L1249.84 837.588C1255.33 841.931 1263.33 840.797 1267.4 835.101C1269.31 832.431 1269.97 829.245 1269.52 826.243Z" fill="#F4B091"/><path d="M1187.05 864.619C1188.16 866.178 1189.92 867.014 1191.69 867.014C1192.83 867.014 1193.99 866.67 1194.98 865.96C1196.85 864.63 1197.67 862.396 1197.28 860.287L1177.54 846.215C1179.59 852.38 1182.74 858.557 1187.05 864.619Z" fill="#B0C2E4"/><path d="M1093.9 825.139C1092.72 825.139 1091.76 824.177 1091.76 822.996V819.627C1091.76 818.447 1092.72 817.484 1093.9 817.484C1095.08 817.484 1096.04 818.447 1096.04 819.627V822.996C1096.04 824.177 1095.09 825.139 1093.9 825.139Z" fill="#F5B091"/><path d="M1098.11 825.139C1096.93 825.139 1095.96 824.177 1095.96 822.996V819.627C1095.96 818.447 1096.93 817.484 1098.11 817.484C1099.29 817.484 1100.25 818.447 1100.25 819.627V822.996C1100.25 824.177 1099.29 825.139 1098.11 825.139Z" fill="#F5B091"/><path d="M1102.3 825.139C1101.12 825.139 1100.16 824.177 1100.16 822.996V819.627C1100.16 818.447 1101.12 817.484 1102.3 817.484C1103.48 817.484 1104.45 818.447 1104.45 819.627V822.996C1104.45 824.177 1103.49 825.139 1102.3 825.139Z" fill="#F5B091"/><path d="M1106.51 825.139C1105.33 825.139 1104.37 824.177 1104.37 822.996V819.627C1104.37 818.447 1105.33 817.484 1106.51 817.484C1107.69 817.484 1108.65 818.447 1108.65 819.627V822.996C1108.65 824.177 1107.69 825.139 1106.51 825.139Z" fill="#F5B091"/><path d="M1056.97 825.139C1055.79 825.139 1054.83 824.177 1054.83 822.996V819.627C1054.83 818.447 1055.79 817.484 1056.97 817.484C1058.15 817.484 1059.11 818.447 1059.11 819.627V822.996C1059.13 824.177 1058.16 825.139 1056.97 825.139Z" fill="#F5B091"/><path d="M1061.18 825.139C1060 825.139 1059.04 824.177 1059.04 822.996V819.627C1059.04 818.447 1060 817.484 1061.18 817.484C1062.36 817.484 1063.32 818.447 1063.32 819.627V822.996C1063.32 824.177 1062.36 825.139 1061.18 825.139Z" fill="#F5B091"/><path d="M1065.38 825.139C1064.2 825.139 1063.24 824.177 1063.24 822.996V819.627C1063.24 818.447 1064.2 817.484 1065.38 817.484C1066.56 817.484 1067.53 818.447 1067.53 819.627V822.996C1067.53 824.177 1066.56 825.139 1065.38 825.139Z" fill="#F5B091"/><path d="M1069.58 825.139C1068.4 825.139 1067.44 824.177 1067.44 822.996V819.627C1067.44 818.447 1068.4 817.484 1069.58 817.484C1070.76 817.484 1071.72 818.447 1071.72 819.627V822.996C1071.72 824.177 1070.77 825.139 1069.58 825.139Z" fill="#F5B091"/><path d="M521.782 954.863L521.644 940.184H462.237L462.318 995.11H587.011V986.87L521.782 954.863Z" fill="#FF9D96"/><path d="M586.931 992.109H462.237V1001.63H586.931V992.109Z" fill="#7B446C"/><path d="M481.333 966.563C481.333 971.422 485.276 975.364 490.136 975.364C494.996 975.364 498.938 971.422 498.938 966.563C498.938 961.704 494.996 957.762 490.136 957.762C485.264 957.762 481.333 961.704 481.333 966.563Z" fill="white"/><path d="M603.333 954.922L603.195 940.242H543.8L543.88 995.168H668.562V986.929L603.333 954.922Z" fill="#FFD4D2"/><path d="M668.494 992.164H543.8V1001.69H668.494V992.164Z" fill="#7B446C"/><path d="M562.884 966.621C562.884 971.48 566.827 975.422 571.687 975.422C576.546 975.422 580.489 971.48 580.489 966.621C580.489 961.762 576.546 957.82 571.687 957.82C566.827 957.82 562.884 961.762 562.884 966.621Z" fill="white"/><path d="M1090.33 930.281L1094.44 937.363C1096.27 940.515 1093.89 944.388 1090.16 944.342C1086.44 944.296 1084.15 940.366 1086.05 937.26L1090.33 930.281Z" fill="#BEDEF5"/><path d="M1090.2 903.088C1092.85 903.088 1095 900.938 1095 898.286C1095 895.634 1092.85 893.484 1090.2 893.484C1087.55 893.484 1085.4 895.634 1085.4 898.286C1085.4 900.938 1087.55 903.088 1090.2 903.088Z" fill="#7B446C"/><path d="M1090.33 900.559L1094.44 907.641C1096.27 910.792 1093.89 914.665 1090.16 914.62C1086.44 914.574 1084.15 910.643 1086.05 907.538L1090.33 900.559Z" fill="#BEDEF5"/><path d="M1131.4 1002.45H1148.92V1001.68H1132.52L1148.53 985.29C1149.21 985.221 1149.84 984.797 1150.05 984.006L1154.1 968.742L1142.32 971.447L1146.7 984.121C1146.87 984.625 1147.21 984.935 1147.61 985.118L1131.43 1001.68C1131.4 1001.67 1131.38 1001.67 1131.36 1001.67C1131.35 1001.67 1131.32 1001.65 1131.31 1001.65H1131.29H1115.64C1115.44 1001.65 1115.27 1001.83 1115.27 1002.03C1115.27 1002.24 1115.44 1002.41 1115.64 1002.41H1129.66" fill="black"/><path d="M1144.64 974.358C1144.29 974.232 1143.95 974.083 1143.59 973.945C1144.77 974.896 1145.47 975.424 1145.47 975.424C1146.6 975.618 1147.76 975.676 1148.95 975.664C1147.85 975.389 1146.75 975.08 1145.64 974.702C1145.31 974.587 1144.98 974.473 1144.64 974.358Z" fill="#232144"/><path d="M1160.67 926.215C1149.39 907.49 1135.28 896.97 1122.11 904.889C1117.71 907.536 1114.6 911.73 1112.85 916.83C1109.35 926.96 1111.17 940.7 1118.67 953.157C1124.33 962.554 1133.77 970.106 1143.59 973.945C1143.94 974.082 1144.29 974.231 1144.64 974.357C1144.98 974.472 1145.31 974.586 1145.64 974.701C1146.74 975.068 1147.85 975.389 1148.95 975.664C1154.42 977.004 1159.82 977.107 1164.56 975.618C1164.8 975.538 1165.05 975.446 1165.29 975.366C1167.11 974.724 1168.83 973.841 1170.41 972.684C1170.49 972.627 1170.57 972.581 1170.65 972.524C1182.96 963.299 1171.95 944.94 1160.67 926.215Z" fill="white"/><path d="M1150.96 1002.45H1168.28C1168.48 1002.45 1168.66 1002.27 1168.66 1002.07C1168.66 1001.86 1168.48 1001.69 1168.28 1001.69H1151.86L1167.88 985.29C1168.67 985.359 1169.49 984.946 1169.75 984.006L1173.79 968.742L1162.01 971.447L1166.39 984.121C1166.52 984.522 1166.77 984.809 1167.06 985.003L1150.76 1001.69C1150.67 1001.67 1150.58 1001.67 1150.49 1001.71L1149.04 1002.42" fill="black"/><path d="M1152.39 1002.45H1138.79C1138.58 1002.45 1138.41 1002.28 1138.41 1002.07C1138.41 1001.86 1138.58 1001.69 1138.79 1001.69H1152.39C1152.6 1001.69 1152.77 1001.86 1152.77 1002.07C1152.77 1002.28 1152.6 1002.45 1152.39 1002.45Z" fill="black"/><path d="M1255.11 986.057C1243.02 981.668 1230.93 977.233 1219.03 972.329C1214.18 970.335 1209.3 967.951 1204.9 964.96C1202.24 963.15 1199.8 961.075 1197.44 958.887L1150.63 910.813C1147.82 907.88 1145.01 904.957 1142.17 902.07C1138.11 897.944 1133.67 893.177 1128.69 890.117C1125.81 887.837 1122.16 886.484 1118.2 886.484C1116.11 886.484 1114.13 886.874 1112.29 887.562L1112.31 887.539L1112.15 887.619C1111.17 887.997 1110.23 888.455 1109.36 888.994L1089.78 898.643L1101.24 903.445C1101.24 910.492 1105.54 916.532 1111.66 919.099C1110.84 923.671 1109.71 931.899 1111 936.746C1111.72 941.055 1115.47 944.344 1119.99 944.344C1123.15 944.344 1126.12 943.152 1127.9 941.021C1136.63 954.864 1148.6 968.157 1162.62 968.983C1166.46 969.212 1170.1 969.429 1173.53 969.647C1172.76 970.678 1171.8 971.641 1170.63 972.524C1170.55 972.581 1170.47 972.627 1170.39 972.684C1175.22 972.145 1180.01 971.973 1185.08 972.73C1189.84 973.44 1194.57 974.357 1199.28 975.308C1211.27 977.726 1223.19 980.488 1235.09 983.33C1245.45 985.805 1255.79 988.349 1266.12 990.962C1269.31 991.776 1272.5 992.589 1275.7 993.415C1268.84 990.997 1261.98 988.544 1255.11 986.057Z" fill="#232144"/><path d="M455.396 311.038H829.867C829.867 311.038 816.617 288.451 788.294 285.735C759.972 283.019 734.664 286.64 703.946 270.677C673.217 254.714 651.531 251.998 638.877 261.039C626.223 270.081 605.432 293.871 575.917 293.871C546.403 293.871 526.207 275.501 498.492 282.721C470.754 289.952 455.396 311.038 455.396 311.038Z" fill="#E5F0FF"/><path d="M934.972 226.122H1409.38C1409.38 226.122 1389.99 201.243 1357.93 197.874C1325.88 194.505 1298.89 220.645 1256.29 214.743C1213.7 208.841 1175.75 171.322 1142.43 181.854C1109.11 192.397 1053.03 206.733 1009.6 205.885C966.182 205.037 934.972 226.122 934.972 226.122Z" fill="#E5F0FF"/></svg>