<svg viewBox="0 0 1600 1200" fill="none" xmlns="http://www.w3.org/2000/svg"><path fill-rule="evenodd" clip-rule="evenodd" d="M1112.64 1007.97L1097.28 860.236L1083.98 732.328L1133.77 736.2L1138.09 1009.28L1112.64 1007.97Z" fill="#7D441C"/><path fill-rule="evenodd" clip-rule="evenodd" d="M1112.78 1010.38L1101.02 897.494L1137.19 897.686L1138.09 1010.09L1112.78 1010.38Z" fill="#F7931E"/><path fill-rule="evenodd" clip-rule="evenodd" d="M1101.91 905.986H1137.32V902.785H1101.58L1101.91 905.986Z" fill="#FF6200"/><path fill-rule="evenodd" clip-rule="evenodd" d="M1102.48 911.445H1137.44L1137.38 908.244H1102.14L1102.48 911.445Z" fill="#FF6200"/><path fill-rule="evenodd" clip-rule="evenodd" d="M1139.84 990.681L1108.59 990.5L1108.57 994.042L1071.97 1006.75L1071.97 1019.56L1139.7 1019.59L1139.84 990.681Z" fill="#232144"/><path fill-rule="evenodd" clip-rule="evenodd" d="M1099.09 566.292L1139.79 562.164L1159.76 640.109L1132.17 638.334L1099.09 566.292Z" fill="#7D441C"/><path fill-rule="evenodd" clip-rule="evenodd" d="M971.152 510.67L977.247 527.751L1009.75 599.37L996.1 603.42C986.972 606.131 977.348 601.071 974.404 592.014L951.98 521.179L971.152 510.67Z" fill="#7D441C"/><path fill-rule="evenodd" clip-rule="evenodd" d="M1078.94 542.68L1089.73 582.154L995.711 603.502L992.92 573.547L1078.94 542.68Z" fill="#7D441C"/><path fill-rule="evenodd" clip-rule="evenodd" d="M1091.04 953.975L1063.52 722.027L1064.09 628.381L1119.49 638.521C1119.49 638.521 1136.2 667.221 1135.64 689.358C1135.02 713.652 1141.39 882.5 1144 949.817C1144.58 964.892 1132.52 977.429 1117.44 977.429C1103.97 977.429 1092.63 967.353 1091.04 953.975Z" fill="#232144"/><path fill-rule="evenodd" clip-rule="evenodd" d="M1034.59 1007.59L1029.56 856.218L1056.5 698.99L1114.38 721.681L1067.98 858.087L1061.18 1007.78L1034.59 1007.59Z" fill="#7D441C"/><path fill-rule="evenodd" clip-rule="evenodd" d="M1034.53 1009.17L1030.73 897.062L1066.2 897.267L1062.07 1009.33L1034.53 1009.17Z" fill="#F7931E"/><path fill-rule="evenodd" clip-rule="evenodd" d="M1063.66 990.681L1032.41 990.5L1032.39 994.042L995.792 1006.75L995.789 1019.56L1063.52 1019.59L1063.66 990.681Z" fill="#232144"/><path fill-rule="evenodd" clip-rule="evenodd" d="M1030.39 905.986H1065.67V902.785H1030.39V905.986Z" fill="#FF6200"/><path fill-rule="evenodd" clip-rule="evenodd" d="M1030.39 911.445H1065.67V908.244H1030.39V911.445Z" fill="#FF6200"/><path fill-rule="evenodd" clip-rule="evenodd" d="M1056.65 647.096V589.991L1047.83 593.753L1038.4 556.074L1063.28 542.757L1110.75 534.527L1112.03 635.503L1056.65 647.096Z" fill="#E6E3DA"/><path fill-rule="evenodd" clip-rule="evenodd" d="M1019.3 947.952L1019.29 844.674L1056.55 681.46V632.673L1112.14 631.107C1135.76 649.891 1144.03 691.112 1133.76 717.9C1126.82 735.988 1080.36 850.621 1080.36 850.621L1078.25 948.584C1077.9 964.732 1064.63 977.594 1048.48 977.429C1032.32 977.261 1019.31 964.113 1019.3 947.952Z" fill="#463EC5"/><path fill-rule="evenodd" clip-rule="evenodd" d="M1056.65 647.095V587.931L1112.5 580.16L1124.73 647.499L1056.65 647.095Z" fill="#E6E3DA"/><path fill-rule="evenodd" clip-rule="evenodd" d="M1072.95 517.919L1109.01 516.482L1102.32 548.054C1100.53 556.528 1100.15 560.333 1100.15 560.333H1062.7C1062.7 560.333 1066.19 549.213 1068.03 540.721L1072.95 517.919Z" fill="#7D441C"/><path fill-rule="evenodd" clip-rule="evenodd" d="M1113.09 509.418L1118.05 486.002C1121.15 471.366 1111.8 456.986 1097.16 453.886L1081.69 450.607C1071.59 448.467 1061.67 454.92 1059.53 465.019L1050.17 509.211C1048.54 516.912 1053.46 524.476 1061.15 526.107L1080.97 530.306C1095.61 533.407 1109.99 524.055 1113.09 509.418Z" fill="#7D441C"/><path fill-rule="evenodd" clip-rule="evenodd" d="M1051.31 490.252C1053.57 489.106 1056.33 487.703 1056.33 487.703L1054.84 499.458C1054.84 499.458 1051.56 496.046 1050.35 493.373C1050.01 492.617 1049.81 491.017 1051.31 490.252Z" fill="#7D441C"/><path fill-rule="evenodd" clip-rule="evenodd" d="M1060.09 456.434C1061.54 449.563 1068.29 445.173 1075.16 446.628L1113.95 455.868C1127.01 458.635 1134.3 471.87 1128.64 483.956L1082.62 474.206L1081.17 469.768C1081.17 469.768 1075.81 473.026 1069.89 471.51C1063.09 469.767 1058.63 463.305 1060.09 456.434Z" fill="#291028"/><path fill-rule="evenodd" clip-rule="evenodd" d="M1080.52 495.248C1081.43 490.974 1085.62 488.244 1089.9 489.15C1094.17 490.055 1096.9 494.253 1095.99 498.526C1095.09 502.8 1090.89 505.53 1086.62 504.625C1082.35 503.72 1079.62 499.522 1080.52 495.248Z" fill="#7D441C"/><path fill-rule="evenodd" clip-rule="evenodd" d="M1065.84 490.425C1065.84 490.425 1059.13 491.612 1057.71 490.943C1057.71 490.943 1058.9 486.346 1060.25 486.053C1061.98 485.675 1065.84 490.425 1065.84 490.425Z" fill="white"/><path fill-rule="evenodd" clip-rule="evenodd" d="M1057.82 491.003C1058.67 491.49 1060.02 490.673 1060.84 489.182C1061.66 487.69 1061.64 486.086 1060.79 485.599C1059.94 485.114 1058.59 485.93 1057.77 487.422C1056.95 488.913 1056.97 490.516 1057.82 491.003Z" fill="#161615"/><path fill-rule="evenodd" clip-rule="evenodd" d="M1059.81 485.698L1060.47 485.441C1060.47 485.441 1063.31 486.308 1066.53 490.31L1065.53 490.54C1065.53 490.54 1063.99 488.055 1059.72 485.839" fill="#161615"/><path fill-rule="evenodd" clip-rule="evenodd" d="M1065.1 479.163L1065.31 479.259C1067.5 480.263 1069.11 482.184 1069.66 484.448L1058.29 479.245C1060.39 478.191 1062.91 478.159 1065.1 479.163Z" fill="#291028"/><path fill-rule="evenodd" clip-rule="evenodd" d="M1077.87 505.204L1082.1 506.157L1088.32 478.549L1084.09 477.596L1077.87 505.204Z" fill="#291028"/><path fill-rule="evenodd" clip-rule="evenodd" d="M1057.46 505.424C1055.93 506.315 1053.65 507.043 1050.65 506.456L1050.9 505.157C1053.54 505.674 1055.5 505.034 1056.8 504.28C1057.45 503.9 1057.94 503.489 1058.26 503.176C1058.42 503.02 1058.54 502.889 1058.62 502.8C1058.66 502.755 1058.68 502.721 1058.7 502.7C1058.71 502.689 1058.71 502.681 1058.72 502.677L1058.72 502.675C1058.72 502.675 1058.72 502.675 1059.25 503.068C1059.78 503.461 1059.78 503.461 1059.78 503.461L1059.78 503.462L1059.78 503.464L1059.78 503.468L1059.77 503.481C1059.76 503.491 1059.75 503.505 1059.74 503.522C1059.71 503.557 1059.67 503.604 1059.62 503.663C1059.52 503.779 1059.37 503.94 1059.18 504.126C1058.8 504.5 1058.22 504.98 1057.46 505.424ZM1058.72 502.675L1058.72 502.674L1058.72 502.674L1058.72 502.675Z" fill="#191414"/><path fill-rule="evenodd" clip-rule="evenodd" d="M1119.96 509.659L1082.01 501.111C1073.67 499.231 1068.43 490.943 1070.31 482.6L1070.54 481.552C1072.42 473.208 1080.71 467.967 1089.05 469.847L1127 478.395C1135.34 480.275 1140.58 488.563 1138.7 496.907L1138.47 497.955C1136.59 506.298 1128.3 511.539 1119.96 509.659Z" fill="#291028"/><path fill-rule="evenodd" clip-rule="evenodd" d="M1122.79 536.431L1085.87 528.115C1077.61 526.254 1072.42 518.046 1074.28 509.782L1074.59 508.443C1076.45 500.18 1084.65 494.99 1092.92 496.851L1129.83 505.166C1138.09 507.027 1143.28 515.235 1141.42 523.499L1141.12 524.839C1139.26 533.102 1131.05 538.291 1122.79 536.431Z" fill="#291028"/><path fill-rule="evenodd" clip-rule="evenodd" d="M1089.35 446.358L1084.6 449.957L1088.2 454.702C1091.34 458.847 1097.25 459.659 1101.4 456.515L1106.14 452.916L1102.54 448.171C1099.4 444.026 1093.49 443.214 1089.35 446.358Z" fill="#FF6200"/><path fill-rule="evenodd" clip-rule="evenodd" d="M1083.77 432.734L1078.28 430.424L1075.97 435.913C1073.96 440.709 1076.21 446.231 1081 448.249L1086.49 450.559L1088.8 445.069C1090.82 440.274 1088.57 434.752 1083.77 432.734Z" fill="#FF6200"/><path fill-rule="evenodd" clip-rule="evenodd" d="M1056.55 657.057L1056.6 584.002L1104.17 582.973V657.057H1056.55Z" fill="#463EC5"/><path fill-rule="evenodd" clip-rule="evenodd" d="M1110.18 589.001L1090.68 564.968C1085.07 556.086 1091.87 544.099 1100.75 538.483L1102.4 537.435C1111.83 531.474 1124.3 534.284 1130.27 543.712L1144.98 566.989L1110.18 589.001Z" fill="#E6E3DA"/><path fill-rule="evenodd" clip-rule="evenodd" d="M1119.48 696.623V681.799H1137.46C1137.46 681.799 1137.83 686.941 1137.91 688.536C1138.01 690.65 1138.09 696.623 1138.09 696.623C1138.09 701.764 1133.93 705.932 1128.79 705.932C1123.64 705.932 1119.48 701.764 1119.48 696.623Z" fill="#232144"/><path fill-rule="evenodd" clip-rule="evenodd" d="M1060.3 569.092H1096.11V546.855H1060.3V569.092Z" fill="#E6E3DA"/><path fill-rule="evenodd" clip-rule="evenodd" d="M1092.43 584.587H1097.42V546.488C1097.42 542.188 1100.92 538.686 1105.22 538.686V533.699C1098.17 533.699 1092.43 539.436 1092.43 546.488V584.587Z" fill="#463EC5"/><path fill-rule="evenodd" clip-rule="evenodd" d="M1056.98 626.636V598.082H1084.16V616.235C1084.16 621.978 1079.5 626.636 1073.76 626.636H1056.98Z" fill="#232144"/><path fill-rule="evenodd" clip-rule="evenodd" d="M939.68 506.614L963.018 490.398L972.433 516.419L953.805 526.366L939.68 506.614Z" fill="#7D441C"/><path fill-rule="evenodd" clip-rule="evenodd" d="M931.788 487.983C933.656 486.677 936.227 487.134 937.532 489.001L947.222 502.867L940.459 507.594L930.77 493.728C929.465 491.861 929.92 489.289 931.788 487.983Z" fill="#7D441C"/><path fill-rule="evenodd" clip-rule="evenodd" d="M935.928 480.788C937.796 479.482 940.368 479.938 941.673 481.805L953.588 498.164L946.825 502.891L934.911 486.532C933.605 484.665 934.061 482.093 935.928 480.788Z" fill="#7D441C"/><path fill-rule="evenodd" clip-rule="evenodd" d="M950.197 489.624C952.109 488.384 954.664 488.928 955.903 490.84L958.322 494.632L951.4 499.122L948.981 495.33C947.741 493.419 948.286 490.864 950.197 489.624Z" fill="#7D441C"/><path fill-rule="evenodd" clip-rule="evenodd" d="M956.185 486.969C958.152 485.819 960.679 486.482 961.828 488.449L963.216 490.825L956.093 494.987L954.705 492.613C953.555 490.645 954.218 488.118 956.185 486.969Z" fill="#7D441C"/><path fill-rule="evenodd" clip-rule="evenodd" d="M1068.78 537.189C1062.43 537.041 1057.13 542.088 1056.98 548.44L1056.03 587.784L1061.01 587.905L1061.96 548.561C1062.04 545.275 1064.55 542.611 1067.72 542.229L1068.78 537.189Z" fill="#463EC5"/><path fill-rule="evenodd" clip-rule="evenodd" d="M856.1 560.298V407.615C856.1 404.354 858.743 401.709 862.004 401.709H956.337C959.598 401.709 962.241 404.354 962.241 407.615V560.298C962.241 563.56 959.598 566.203 956.337 566.203H862.004C858.743 566.203 856.1 563.56 856.1 560.298Z" fill="#D0DEF2"/><path fill-rule="evenodd" clip-rule="evenodd" d="M858.633 556.902V415.86C858.633 412.516 861.344 409.805 864.688 409.805H953.286C956.63 409.805 959.341 412.516 959.341 415.86V556.902C959.341 560.247 956.63 562.958 953.286 562.958H864.688C861.344 562.958 858.633 560.247 858.633 556.902Z" fill="#232144"/><path fill-rule="evenodd" clip-rule="evenodd" d="M873.239 406.505C873.239 407.836 872.16 408.915 870.828 408.915C869.497 408.915 868.418 407.836 868.418 406.505C868.418 405.173 869.497 404.094 870.828 404.094C872.16 404.094 873.239 405.173 873.239 406.505Z" fill="#232144"/><path fill-rule="evenodd" clip-rule="evenodd" d="M879.784 406.505C879.784 407.836 878.705 408.915 877.373 408.915C876.042 408.915 874.963 407.836 874.963 406.505C874.963 405.173 876.042 404.094 877.373 404.094C878.705 404.094 879.784 405.173 879.784 406.505Z" fill="#232144"/><path fill-rule="evenodd" clip-rule="evenodd" d="M886.012 406.505C886.012 407.836 884.933 408.915 883.602 408.915C882.27 408.915 881.191 407.836 881.191 406.505C881.191 405.173 882.27 404.094 883.602 404.094C884.933 404.094 886.012 405.173 886.012 406.505Z" fill="#232144"/><path fill-rule="evenodd" clip-rule="evenodd" d="M969.986 510.976L957.376 491.033C956.422 489.458 956.905 487.41 958.461 486.427C960.017 485.441 962.076 485.885 963.089 487.423L973.5 502.779C976.059 508.019 972.992 516.382 972.992 516.382L969.986 510.976Z" fill="#7D441C"/><path fill-rule="evenodd" clip-rule="evenodd" d="M1106.28 754.676C1088.37 766.169 1064.54 760.967 1053.05 743.056L1048.58 736.088C1066.49 724.595 1090.32 729.797 1101.81 747.708L1106.28 754.676Z" fill="#F7E5CD"/><path fill-rule="evenodd" clip-rule="evenodd" d="M1184.99 696.745C1184.36 695.756 1183.5 695.009 1182.52 694.515C1184.85 692.481 1185.41 688.992 1183.69 686.306C1182.92 685.098 1181.8 684.248 1180.55 683.787C1183.01 681.774 1183.63 678.189 1181.87 675.446C1180.46 673.244 1177.92 672.209 1175.49 672.611C1176.87 670.572 1176.99 667.829 1175.57 665.628C1174.2 663.485 1171.75 662.453 1169.39 662.769C1169.57 661.341 1169.27 659.844 1168.43 658.539C1166.54 655.587 1162.61 654.73 1159.66 656.624C1157.32 658.123 1156.31 660.897 1156.92 663.453C1153.09 663.301 1149.15 664.268 1145.59 666.554L1128.79 677.34L1157.43 721.98L1182.37 705.976L1182.35 705.914C1182.6 705.798 1182.84 705.67 1183.08 705.518C1186.03 703.624 1186.89 699.697 1184.99 696.745Z" fill="#F7C7A1"/><path fill-rule="evenodd" clip-rule="evenodd" d="M1132.58 737.754L1103.94 693.113L1087.14 703.899C1083.76 706.067 1081.32 709.04 1079.83 712.364C1077.78 710.92 1074.98 710.769 1072.75 712.207C1069.79 714.1 1068.94 718.028 1070.83 720.98C1071.67 722.286 1072.91 723.18 1074.28 723.608C1073.01 725.629 1072.92 728.283 1074.3 730.426C1075.71 732.627 1078.25 733.661 1080.68 733.26C1079.31 735.298 1079.19 738.042 1080.6 740.244C1082.36 742.987 1085.87 743.918 1088.73 742.514C1088.63 743.843 1088.94 745.214 1089.71 746.422C1091.44 749.107 1094.84 750.051 1097.66 748.775C1097.7 749.869 1098.02 750.967 1098.66 751.956C1100.55 754.907 1104.48 755.765 1107.43 753.871C1107.5 753.828 1107.55 753.78 1107.62 753.737L1107.65 753.759L1132.58 737.754Z" fill="#F7C7A1"/><path fill-rule="evenodd" clip-rule="evenodd" d="M1018.1 606.826C1017.04 605.171 1015.7 603.806 1014.19 602.731C1014.93 601.074 1014.84 599.092 1013.79 597.453C1012.13 594.858 1008.67 594.104 1006.08 595.77C1005.78 595.961 1005.51 596.179 1005.26 596.415C1003.44 594.981 1000.85 594.775 998.788 596.096C997.169 597.135 996.268 598.869 996.223 600.656C994.663 600.12 992.885 600.272 991.39 601.232C988.876 602.845 988.097 606.138 989.568 608.701C989.363 608.799 989.161 608.906 988.966 609.032C986.373 610.698 985.618 614.15 987.283 616.745C987.992 617.85 989.026 618.617 990.179 619.01C988.935 620.808 988.814 623.25 990.069 625.205C991.245 627.038 993.312 627.947 995.34 627.739C995.121 629.056 995.365 630.454 996.142 631.665C997.808 634.26 1001.26 635.014 1003.85 633.349C1004.06 633.214 1004.26 633.065 1004.44 632.908C1006.26 634.72 1009.15 635.095 1011.4 633.653C1013.53 632.284 1014.41 629.706 1013.74 627.39C1020.57 622.892 1022.53 613.728 1018.1 606.826Z" fill="#F7C7A1"/><path fill-rule="evenodd" clip-rule="evenodd" d="M1175.36 698.519C1174.58 697.294 1173.56 696.314 1172.41 695.58C1173.77 692.655 1173.66 689.118 1171.79 686.2C1170.76 684.595 1169.34 683.403 1167.73 682.651C1170.52 679.717 1171.49 675.739 1169.17 672.123C1168 670.3 1166.32 669.009 1164.44 668.295C1167.27 665.116 1167.77 660.333 1165.36 656.578C1163.73 654.037 1161.12 652.508 1158.34 652.173C1159.24 649.472 1158.97 646.401 1157.31 643.816C1155.15 640.447 1151.25 638.861 1147.54 639.471C1145.18 635.84 1140.8 634.302 1136.82 635.388C1136.57 634.435 1136.17 633.503 1135.61 632.629C1132.79 628.229 1127.02 626.878 1122.54 629.478C1122.4 628.945 1122.22 628.418 1121.98 627.904C1122.34 627.733 1122.69 627.544 1123.03 627.325C1127.55 624.422 1128.87 618.403 1125.97 613.88C1125.14 612.587 1124.05 611.566 1122.82 610.821C1122.89 610.778 1122.96 610.743 1123.03 610.698C1127.55 607.795 1128.87 601.775 1125.97 597.251C1124.58 595.091 1122.48 593.673 1120.17 593.087C1121.96 590.028 1122.01 586.105 1119.97 582.92C1117.82 579.573 1113.97 577.99 1110.28 578.565C1111.46 575.718 1111.28 572.357 1109.49 569.566C1106.63 565.109 1100.75 563.777 1096.25 566.514C1096.49 564.371 1096.03 562.134 1094.77 560.177C1091.87 555.654 1085.85 554.34 1081.33 557.242C1080.52 557.762 1079.82 558.384 1079.22 559.075C1078.96 558.269 1078.61 557.482 1078.13 556.737C1075.23 552.214 1069.21 550.9 1064.69 553.802C1062.98 554.898 1061.73 556.439 1061 558.174C1057.92 554.367 1052.4 553.406 1048.19 556.111C1045.02 558.14 1043.44 561.692 1043.76 565.191C1040.71 563.443 1036.82 563.407 1033.66 565.435C1030.21 567.65 1028.63 571.677 1029.36 575.472C1027.04 575.062 1024.57 575.48 1022.42 576.854C1017.93 579.74 1016.61 585.703 1019.44 590.217C1018.71 590.467 1017.98 590.797 1017.3 591.236C1012.78 594.139 1011.47 600.159 1014.37 604.682C1014.39 604.714 1014.41 604.741 1014.43 604.772C1014.01 604.963 1013.6 605.173 1013.2 605.429C1008.68 608.331 1007.37 614.351 1010.27 618.874C1011.33 620.529 1012.81 621.75 1014.48 622.496C1011.73 625.674 1011.26 630.403 1013.64 634.124C1015.05 636.323 1017.2 637.755 1019.56 638.322C1018.64 641.031 1018.91 644.117 1020.57 646.712C1022.77 650.132 1026.74 651.713 1030.5 651.029C1030.2 653.239 1030.65 655.564 1031.95 657.589C1034.64 661.782 1040.01 663.21 1044.38 661.085C1044.58 662.393 1045.05 663.681 1045.81 664.865C1048.71 669.388 1054.73 670.702 1059.25 667.8C1059.69 667.518 1060.09 667.2 1060.46 666.864C1061.52 668.219 1062.89 669.217 1064.39 669.842C1063.6 670.091 1062.83 670.444 1062.09 670.913C1057.57 673.816 1056.26 679.836 1059.16 684.36C1060.55 686.534 1062.67 687.957 1064.99 688.536C1061.33 691.641 1060.43 697.05 1063.1 701.203C1065.07 704.286 1068.5 705.874 1071.91 705.657C1069.81 708.78 1069.63 712.976 1071.79 716.344C1073.84 719.529 1077.42 721.113 1080.95 720.766C1080.58 723.044 1081.01 725.458 1082.35 727.554C1084.61 731.071 1088.75 732.636 1092.61 731.8C1092.79 733.183 1093.25 734.55 1094.06 735.801C1096.03 738.879 1099.45 740.466 1102.86 740.255C1103.03 741.656 1103.5 743.041 1104.31 744.309C1107.11 748.664 1112.79 750.033 1117.25 747.536L1117.28 747.576L1174.13 711.089L1173.96 710.747C1177.21 707.589 1177.9 702.48 1175.36 698.519Z" fill="#F7E5CD"/><path fill-rule="evenodd" clip-rule="evenodd" d="M1114.06 554.691C1113.28 553.479 1112.11 552.675 1110.83 552.325C1111.86 550.569 1111.9 548.31 1110.72 546.477C1109.46 544.521 1107.19 543.613 1105.04 543.996C1105.16 542.784 1104.9 541.524 1104.19 540.419C1102.52 537.825 1099.07 537.072 1096.48 538.736C1096.28 538.862 1096.1 539 1095.93 539.145C1094.21 536.74 1090.89 536.076 1088.38 537.69C1086.88 538.649 1086 540.203 1085.84 541.843C1084.2 541.141 1082.25 541.237 1080.63 542.276C1078.57 543.597 1077.67 546.041 1078.22 548.291C1077.9 548.42 1077.59 548.576 1077.29 548.768C1074.7 550.434 1073.94 553.887 1075.61 556.481C1076.66 558.12 1078.43 559.023 1080.24 559.047C1080.59 560.866 1081.27 562.652 1082.33 564.307C1086.76 571.209 1095.91 573.241 1102.84 568.906C1104.67 570.486 1107.38 570.756 1109.51 569.387C1111.76 567.944 1112.62 565.161 1111.73 562.755C1111.95 562.651 1112.17 562.539 1112.38 562.404C1114.97 560.739 1115.73 557.286 1114.06 554.691Z" fill="#F7C7A1"/><path fill-rule="evenodd" clip-rule="evenodd" d="M1086.12 595.063C1087.15 596.671 1086.69 598.809 1085.08 599.84C1083.48 600.871 1081.34 600.405 1080.31 598.798C1079.27 597.19 1079.74 595.052 1081.35 594.021C1082.95 592.989 1085.09 593.456 1086.12 595.063Z" fill="#232144"/><path fill-rule="evenodd" clip-rule="evenodd" d="M1077.54 617.489L1077.38 611.866C1077.31 609.387 1074.57 607.934 1072.48 609.273L1067.59 612.414C1065.5 613.753 1065.68 616.856 1067.9 617.95L1072.95 620.433C1075.1 621.49 1077.6 619.884 1077.54 617.489Z" fill="#232144"/><path fill-rule="evenodd" clip-rule="evenodd" d="M1079.16 627.291L1074.83 620.546L1076.86 619.246L1081.18 625.992L1079.16 627.291Z" fill="#232144"/><path fill-rule="evenodd" clip-rule="evenodd" d="M1147.17 728.396L1144.75 729.947L1127.62 703.25L1130.04 701.699L1147.17 728.396Z" fill="#F7C7A1"/><path fill-rule="evenodd" clip-rule="evenodd" d="M1080.69 627.308C1078.01 629.027 1075.02 629.514 1072.66 628.608L1073.27 627.039C1075.13 627.753 1077.66 627.268 1079.89 625.822C1082.01 624.425 1083.37 622.427 1083.44 620.605L1085.13 620.672C1085.03 623.061 1083.42 625.511 1080.81 627.227C1080.77 627.254 1080.73 627.281 1080.69 627.308Z" fill="#232144"/><path fill-rule="evenodd" clip-rule="evenodd" d="M1061.17 611.081C1065.63 618.034 1063.61 627.287 1056.66 631.748C1049.7 636.21 1040.45 634.19 1035.99 627.238C1031.53 620.285 1033.55 611.032 1040.5 606.57C1047.45 602.109 1056.71 604.128 1061.17 611.081Z" fill="#F7C7A1"/><path fill-rule="evenodd" clip-rule="evenodd" d="M1056.57 614.032C1057.6 615.639 1057.13 617.778 1055.53 618.809C1053.92 619.839 1051.78 619.374 1050.75 617.766C1049.72 616.159 1050.19 614.021 1051.79 612.989C1053.4 611.958 1055.54 612.425 1056.57 614.032Z" fill="#232144"/><path fill-rule="evenodd" clip-rule="evenodd" d="M1072.29 675.666L1072.27 675.679L1072.12 675.426L1072.29 675.666ZM1157.95 633.962C1153.99 627.242 1145.14 625.335 1138.76 629.828L1094.97 660.555C1094.97 660.555 1083.81 658.274 1080.8 659.752L1072.36 665.05C1070.79 666.103 1070 667.91 1070.17 669.694L1066.49 671.54C1064.16 672.911 1063.74 675.407 1064.95 677.472C1065.54 678.483 1066.48 679.158 1067.52 679.449C1066.85 680.782 1066.87 682.42 1067.74 683.761C1068.98 685.661 1071.45 686.251 1073.41 685.2C1072.32 686.616 1072.17 688.613 1073.2 690.196C1074.41 692.045 1076.78 692.652 1078.71 691.716C1078.78 692.369 1078.99 693.014 1079.37 693.603C1080.67 695.609 1083.36 696.178 1085.37 694.872L1106.34 679.915L1106.34 679.913L1153.24 652.25C1159.59 648.504 1161.7 640.316 1157.95 633.962Z" fill="#7D441C"/><path fill-rule="evenodd" clip-rule="evenodd" d="M487.706 400.989L446.295 451.638C440.1 459.215 429.122 460.759 421.078 455.183C412.636 449.331 410.466 437.779 416.21 429.261L460.951 362.922L487.706 400.989Z" fill="#7D441C"/><path fill-rule="evenodd" clip-rule="evenodd" d="M600.656 392.718L627.466 452.396C631.477 461.325 641.676 465.671 650.893 462.381C660.568 458.927 665.667 448.336 662.337 438.618L636.391 362.922L600.656 392.718Z" fill="#7D441C"/><path fill-rule="evenodd" clip-rule="evenodd" d="M483.002 479.473L480.043 344.051H613.573L611.66 479.473H483.002Z" fill="#F7931E"/><path fill-rule="evenodd" clip-rule="evenodd" d="M532.852 987.735L547.973 512.639L533.713 512.251C493.373 511.154 463.343 526.615 465.341 572.073L492.912 986.649L532.852 987.735Z" fill="#7D441C"/><path fill-rule="evenodd" clip-rule="evenodd" d="M469.026 1003.9H533.347V982.504H490.915L469.026 1003.9Z" fill="#F7931E"/><path fill-rule="evenodd" clip-rule="evenodd" d="M469.026 1019.97H533.347V1003.9H469.026V1019.97Z" fill="#463EC5"/><path fill-rule="evenodd" clip-rule="evenodd" d="M599.183 985.528L547.09 512.113H561.487C602.215 512.113 635.21 527.698 631.947 572.604L638.44 986.116L599.183 985.528Z" fill="#7D441C"/><path fill-rule="evenodd" clip-rule="evenodd" d="M661.822 1020L598.922 1019.97L598.871 1002.96L661.722 1003.9L661.822 1020Z" fill="#463EC5"/><path fill-rule="evenodd" clip-rule="evenodd" d="M661.822 1003.9H598.892L598.137 982.504H639.932L661.822 1003.9Z" fill="#F7931E"/><path fill-rule="evenodd" clip-rule="evenodd" d="M449.164 378.746C447.825 360.975 461.143 345.483 478.911 344.144C496.68 342.805 512.17 356.124 513.509 373.895C514.849 391.666 493.153 419.058 493.153 419.058C493.153 419.058 450.503 396.517 449.164 378.746Z" fill="#F7931E"/><path fill-rule="evenodd" clip-rule="evenodd" d="M644.681 378.746C646.02 360.975 632.702 345.483 614.933 344.144C597.165 342.805 581.675 356.124 580.336 373.895C578.996 391.666 600.692 419.058 600.692 419.058C600.692 419.058 643.342 396.517 644.681 378.746Z" fill="#F7931E"/><path fill-rule="evenodd" clip-rule="evenodd" d="M611.147 470.721H554.27H484.046C484.046 470.721 464.571 496.045 458.077 549.153C456.352 563.262 460.443 820.125 462.175 923.812C462.572 947.594 481.986 966.651 505.768 966.606L508.642 966.6C532.871 966.554 552.396 946.725 552.072 922.496L547.132 553.241H548.061L563.381 924.268C564.343 947.554 583.475 965.95 606.779 965.993C631.387 966.04 651.139 945.695 650.355 921.095C647.009 816.082 638.793 562.561 637.024 548.423C630.442 495.813 611.147 470.721 611.147 470.721Z" fill="#E6E3DA"/><path fill-rule="evenodd" clip-rule="evenodd" d="M418.596 456.994L481.32 523.713L500.887 506.096L450.813 431.596C444.022 421.228 429.677 419.167 420.242 427.203C411.278 434.836 410.527 448.419 418.596 456.994Z" fill="#7D441C"/><path fill-rule="evenodd" clip-rule="evenodd" d="M569.266 318.251L524.027 306.811L523.522 346.281C523.387 356.877 531.865 365.575 542.458 365.71L549.592 365.802C560.217 365.938 568.928 357.41 569.019 346.783L569.266 318.251Z" fill="#7D441C"/><path fill-rule="evenodd" clip-rule="evenodd" d="M523.075 301.543L531.169 262.476C534.286 247.427 549.012 237.756 564.059 240.873L589.067 246.056C600.953 248.519 608.593 260.153 606.13 272.041L594.275 329.263C592.58 337.445 584.573 342.705 576.39 341.009L544.675 334.438C529.628 331.319 519.958 316.592 523.075 301.543Z" fill="#7D441C"/><path fill-rule="evenodd" clip-rule="evenodd" d="M605.597 311.102C606.317 307.624 600.487 298.961 600.487 298.961L595.762 314.976C595.762 314.976 604.877 314.581 605.597 311.102Z" fill="#7D441C"/><path fill-rule="evenodd" clip-rule="evenodd" d="M594.46 246.589L545.684 236.434C531.815 233.5 518.868 244.106 518.851 258.146L518.842 258.144L518.852 258.278C518.853 258.508 518.848 258.734 518.855 258.965L518.903 258.975L523.787 325.637C523.787 325.637 538.888 319.729 548.844 316.03C566.509 309.467 568.162 303.12 571.782 281.823C572.924 275.103 575.493 271.683 576.941 270.227L596.543 260.375C602.577 257.037 601.211 247.994 594.46 246.589Z" fill="#291028"/><path fill-rule="evenodd" clip-rule="evenodd" d="M572.293 294.481C573.377 289.248 570.014 284.128 564.784 283.045C559.552 281.961 554.433 285.323 553.349 290.555C552.265 295.787 555.627 300.908 560.859 301.991C566.089 303.075 571.209 299.713 572.293 294.481Z" fill="#7D441C"/><path fill-rule="evenodd" clip-rule="evenodd" d="M586.562 291.937C586.562 291.937 587.159 297.312 593.017 299.837C595.58 300.942 598.419 293.924 595.843 292.848C593.267 291.771 586.562 291.937 586.562 291.937Z" fill="white"/><path fill-rule="evenodd" clip-rule="evenodd" d="M593.097 299.874C591.974 299.458 591.68 297.548 592.438 295.608C593.197 293.67 594.721 292.434 595.843 292.85C596.965 293.266 597.258 295.175 596.5 297.115C595.741 299.054 594.219 300.29 593.097 299.874Z" fill="#161615"/><path fill-rule="evenodd" clip-rule="evenodd" d="M596.875 294.401L596.508 292.144C596.508 292.144 592.151 289.669 585.873 289.783L586.596 292.044C586.596 292.044 591.238 291.896 596.668 294.172" fill="#161615"/><path fill-rule="evenodd" clip-rule="evenodd" d="M595.083 278.043L594.82 277.945C592.077 276.947 588.812 277.768 586.001 280.162L600.225 285.347C599.726 281.745 597.826 279.041 595.083 278.043Z" fill="#291028"/><path fill-rule="evenodd" clip-rule="evenodd" d="M596.335 319.221C596.578 317.997 595.779 316.809 594.555 316.572L584.064 313.279C584.183 312.966 587.534 323.211 594.627 325.235C594.772 325.276 594.919 325.314 595.066 325.349C595.191 325.38 596.335 319.221 596.335 319.221Z" fill="#291028"/><path fill-rule="evenodd" clip-rule="evenodd" d="M587.715 261.836L523.649 180L519.781 183.183L587.715 261.836Z" fill="#FF6200"/><path fill-rule="evenodd" clip-rule="evenodd" d="M505.004 248.495L595.963 198.227L593.435 193.902L505.004 248.495Z" fill="#FF6200"/><path fill-rule="evenodd" clip-rule="evenodd" d="M539.215 245.028L564.103 249.854C575.331 252.032 586.2 244.693 588.376 233.462L589.129 229.58C591.307 218.349 583.968 207.48 572.74 205.303L547.852 200.476C536.623 198.299 525.755 205.638 523.577 216.869L522.825 220.751C520.648 231.981 527.986 242.85 539.215 245.028Z" fill="#291028"/><path fill-rule="evenodd" clip-rule="evenodd" d="M638.966 464.267L719.325 497.165L733.37 475.569L657.104 427.467C646.509 421.036 632.676 425.355 627.621 436.672C622.819 447.423 627.991 460.005 638.966 464.267Z" fill="#7D441C"/><path fill-rule="evenodd" clip-rule="evenodd" d="M718.902 496.709L742.234 513.473L755.083 479.507L727.051 473.043L718.902 496.709Z" fill="#7D441C"/><path fill-rule="evenodd" clip-rule="evenodd" d="M776.655 534.43C779.656 534.067 781.796 531.339 781.433 528.337L778.534 504.342L767.662 505.656L770.562 529.651C770.925 532.653 773.653 534.793 776.655 534.43Z" fill="#7D441C"/><path fill-rule="evenodd" clip-rule="evenodd" d="M770.869 533.486C773.882 533.225 776.113 530.572 775.853 527.558L773.771 503.479L762.861 504.422L764.942 528.502C765.203 531.515 767.857 533.747 770.869 533.486Z" fill="#7D441C"/><path fill-rule="evenodd" clip-rule="evenodd" d="M755.157 479.408L747.152 486.881L770.37 511.76L778.375 504.286L755.157 479.408Z" fill="#7D441C"/><path fill-rule="evenodd" clip-rule="evenodd" d="M750.523 482.588L742.117 489.607L763.926 515.729L772.332 508.71L750.523 482.588Z" fill="#7D441C"/><path fill-rule="evenodd" clip-rule="evenodd" d="M752.729 509.811C752.729 509.811 749.609 505.831 748.788 504.439C747.085 501.551 750.261 499.693 752.151 501.793C753.363 503.141 757.099 507.807 760.047 511.085C756.789 501.654 754.157 485.748 754.157 485.748L739.348 501.722L752.729 509.811Z" fill="#7D441C"/><path fill-rule="evenodd" clip-rule="evenodd" d="M758.753 496.903L807.679 514.509C809.154 515.039 809.92 516.666 809.389 518.142L798.95 547.163C798.418 548.638 796.792 549.404 795.317 548.873L746.39 531.267C744.915 530.737 744.149 529.11 744.68 527.634L755.12 498.613C755.651 497.138 757.278 496.372 758.753 496.903Z" fill="#FF6200"/><path fill-rule="evenodd" clip-rule="evenodd" d="M757.965 510.13L759.527 505.79C759.67 505.392 760.108 505.185 760.506 505.329L767.196 507.736C767.594 507.879 767.8 508.318 767.657 508.716L766.096 513.055C765.953 513.453 765.514 513.66 765.116 513.517L758.427 511.109C758.029 510.967 757.822 510.528 757.965 510.13Z" fill="#F2F2F2"/><path fill-rule="evenodd" clip-rule="evenodd" d="M767.287 510.209L767.364 509.995L763.259 508.512L764.003 506.454L763.789 506.377L763.045 508.435L758.94 506.953L758.864 507.167L762.968 508.65L762.428 510.147L758.323 508.664L758.246 508.878L762.351 510.361L761.608 512.419L761.822 512.497L762.565 510.438L766.67 511.92L766.747 511.706L762.642 510.223L763.183 508.726L767.287 510.209Z" fill="#FF6200"/><path fill-rule="evenodd" clip-rule="evenodd" d="M761.17 511.294L762.632 507.227L764.344 507.843L762.882 511.91L761.17 511.294Z" fill="#F2F2F2"/><path fill-rule="evenodd" clip-rule="evenodd" d="M762.691 507.352L761.293 511.237L762.823 511.788L764.221 507.903L762.691 507.352ZM761.047 511.353L762.575 507.105L764.468 507.785L762.94 512.034L761.047 511.353Z" fill="#FF6200"/><path fill-rule="evenodd" clip-rule="evenodd" d="M770.258 510.572C770.36 510.524 770.482 510.568 770.53 510.67C771.01 511.693 770.57 512.912 769.547 513.392C769.445 513.44 769.323 513.396 769.275 513.294C769.227 513.192 769.271 513.07 769.373 513.022C770.192 512.638 770.544 511.663 770.16 510.844C770.112 510.742 770.156 510.62 770.258 510.572Z" fill="#F2F2F2"/><path fill-rule="evenodd" clip-rule="evenodd" d="M771.196 510.525C771.298 510.477 771.42 510.521 771.468 510.623C772.067 511.902 771.518 513.425 770.24 514.026C770.138 514.074 770.017 514.03 769.969 513.928C769.921 513.826 769.965 513.705 770.067 513.657C771.141 513.152 771.602 511.872 771.098 510.797C771.05 510.695 771.094 510.573 771.196 510.525Z" fill="#F2F2F2"/><path fill-rule="evenodd" clip-rule="evenodd" d="M772.134 510.473C772.236 510.425 772.358 510.469 772.406 510.571C773.128 512.11 772.467 513.944 770.928 514.667C770.826 514.715 770.704 514.671 770.656 514.569C770.608 514.467 770.652 514.345 770.754 514.297C772.089 513.671 772.662 512.08 772.036 510.744C771.988 510.642 772.032 510.52 772.134 510.473Z" fill="#F2F2F2"/><path fill-rule="evenodd" clip-rule="evenodd" d="M773.048 510.607C773.151 510.559 773.272 510.603 773.32 510.705C774.104 512.375 773.387 514.364 771.717 515.148C771.615 515.196 771.493 515.152 771.445 515.05C771.397 514.948 771.441 514.826 771.543 514.778C773.009 514.09 773.638 512.345 772.95 510.879C772.902 510.777 772.946 510.655 773.048 510.607Z" fill="#F2F2F2"/><path fill-rule="evenodd" clip-rule="evenodd" d="M760.879 527.595C763.161 525.612 763.405 522.153 761.421 519.87L739.874 495.068L731.607 502.251L753.154 527.054C755.138 529.337 758.596 529.579 760.879 527.595Z" fill="#7D441C"/></svg>