<svg viewBox="0 0 1600 1200" fill="none" xmlns="http://www.w3.org/2000/svg"><path d="M1017.12 732.408L1022.28 782.666L1099.72 772.914L1096.56 725.422L1017.12 732.408Z" fill="#FFC6AD"/><path d="M1099.56 721.031L1078.68 724.473L1080.43 727.935C1087.83 742.615 1088.68 759.842 1082.78 775.042L1081.4 776.362L1104.68 824.634C1107.13 829.738 1112.45 832.618 1117.81 831.745L1099.56 721.031Z" fill="#232144"/><path d="M1115.65 718.359L1099.34 721.047L1117.6 831.745L1133.92 829.057L1115.65 718.359Z" fill="#232144"/><path d="M1060.17 725.235L940.332 732.97L987.693 584.34L887.541 586.388L866.295 766.718C868.136 792.377 892.961 809.968 917.796 803.231L1061.67 780.254L1060.17 725.235Z" fill="#463EC5"/><path d="M998.253 555.262C995.392 521.889 971.743 496.667 945.42 498.912C919.097 501.169 906.945 525.829 909.806 559.203C912.667 592.576 929.45 622.019 955.772 619.763C982.085 617.517 1001.1 588.635 998.253 555.262Z" fill="#3867C3"/><path d="M797.721 929.133L752.348 906.832L719.543 977.602L761.493 1000.13L797.721 929.133Z" fill="#FFC6AD"/><path d="M763.635 1004.99L771.792 985.484L767.922 985.12C751.545 983.602 736.48 975.181 726.72 962.123L726.335 960.251L673.034 954.356C667.405 953.712 662.13 956.706 660.039 961.707L763.635 1004.99Z" fill="#232144"/><path d="M763.75 1004.76L660.258 961.145L653.891 976.386L757.372 1020L763.75 1004.76Z" fill="#232144"/><path d="M899.808 521.211L731.924 932.866L788.877 956.56L987.693 569.056L899.808 521.211Z" fill="#3867C3"/><path d="M891.735 398.25L989.598 423.056L1007.07 613.679L874.869 580.815L891.735 398.25Z" fill="#232144"/><path d="M822.016 236.777L856.339 324.026C860.74 335.223 855.029 347.845 843.698 351.93C831.536 356.307 818.301 348.978 815.565 336.356L796.182 246.862L822.016 236.777Z" fill="#FFC6AD"/><path d="M931.656 373.462L851.345 314.43L824.98 349.861L889.196 403.518L931.656 373.462Z" fill="#FFC6AD"/><path d="M893.659 342.367L956.511 374.067C971.275 407.315 880.549 422.359 898.673 425.301C909.421 427.048 856.078 389.11 856.078 389.11L893.659 342.367Z" fill="#232144"/><path d="M790.469 242.737L777.349 203.188C776.465 200.599 777.849 197.782 780.439 196.898C783.03 196.014 785.849 197.397 786.734 199.986L794.558 224.012L795.234 223.784L785.288 193.519C784.403 190.93 785.787 188.113 788.378 187.229C790.968 186.345 793.788 187.728 794.672 190.317L803.922 218.533L804.598 218.305L794.121 186.501C793.237 183.913 794.672 181.158 797.263 180.274C799.854 179.39 802.632 180.71 803.506 183.299L814.68 217.151L815.356 216.922L805.857 187.988C804.973 185.399 806.356 182.582 808.947 181.698C811.538 180.814 814.357 182.197 815.242 184.786L827.332 221.465L829.995 206.785C830.526 204.103 833.137 202.356 835.821 202.886C838.506 203.417 840.254 206.026 839.723 208.709L835.093 233.307C833.865 239.503 831.681 245.471 828.622 250.992L837.59 277.295L808.146 287.318L796.41 252.894C793.923 250.181 791.998 247.01 790.739 243.558L790.469 242.737Z" fill="#FFC6AD"/><path d="M670.362 380.707L568.67 520.999L587.668 537.842L725.942 382.339L670.362 380.707Z" fill="#763427"/><path d="M573.643 517.621L550.129 531.407L574.652 555.6L591.039 533.777L573.643 517.621Z" fill="#763427"/><path d="M530.131 539.664C530.578 542.492 533.242 544.426 536.082 543.968L566.869 539.071L565.235 528.82L534.449 533.728C531.608 534.175 529.684 536.836 530.131 539.664Z" fill="#763427"/><path d="M517.606 556.691C517.2 559.53 519.177 562.16 522.017 562.565L544.719 565.809L546.186 555.527L523.484 552.294C520.644 551.878 518.011 553.853 517.606 556.691Z" fill="#763427"/><path d="M520.883 552.372C520.904 555.242 523.245 557.55 526.117 557.529L549.048 557.363L548.975 546.977L526.033 547.143C523.162 547.164 520.852 549.503 520.883 552.372Z" fill="#763427"/><path d="M571.782 545.361L541.279 555.93L544.684 565.743L575.187 555.174L571.782 545.361Z" fill="#763427"/><path d="M570.882 540.487L539.84 549.355L542.697 559.342L573.739 550.473L570.882 540.487Z" fill="#763427"/><path d="M549.275 541.92C549.275 541.92 553.926 540.745 555.455 540.568C558.618 540.204 559.003 543.666 556.454 544.498C554.821 545.028 549.338 546.474 545.363 547.773C554.8 548.574 569.605 552.4 569.605 552.4L561.448 533.426L549.275 541.92Z" fill="#763427"/><path d="M717.171 417.562C731.529 407.685 735.139 388.036 725.255 373.699C715.371 359.362 695.717 355.744 681.359 365.621C667.012 375.508 659.469 408.808 659.469 408.808C659.469 408.808 702.824 427.439 717.171 417.562Z" fill="#FBB03B"/><path d="M733.359 698.346L548.609 704.917L551.158 743.218L732.683 754.01C749.559 755.008 763.438 740.91 762.148 724.067C761.014 709.158 748.31 697.816 733.359 698.346Z" fill="#9E3F39"/><path d="M596.928 745.967L592.953 703.164L697.777 698.984L701.554 752.662L596.928 745.967Z" fill="#D8CBC5"/><path d="M545.759 704.504L522.578 745.987L598.634 747.359L595.731 701.344L545.759 704.504Z" fill="#232144"/><path d="M513.736 698.701L474.701 781.117L486.73 786.806L525.765 704.39L513.736 698.701Z" fill="#D8CBC5"/><path d="M525.576 704.325L555.093 704.273L544.064 741.836L531.236 745.964L495.497 784.182C493.353 787.176 489.4 788.216 486.102 786.656L486.705 786.812L525.576 704.325Z" fill="#232144"/><path d="M766.049 721.647L765.186 545.008L750.953 503.941C711.375 508.558 681.088 527.417 689.349 570.636L704.841 724.87C706.578 742.201 722.414 754.604 739.674 752.161C754.865 749.999 766.133 736.972 766.049 721.647Z" fill="#9E3F39"/><path d="M639.543 715.211L506.524 586.938L480.711 615.372L598.987 753.398C609.985 766.227 629.774 766.415 641.01 753.793C650.957 742.617 650.302 725.597 639.543 715.211Z" fill="#9E3F39"/><path d="M510.52 650.17L538.58 617.598L614.386 690.073L578.345 730.058L510.52 650.17Z" fill="#D8CBC5"/><path d="M518.529 598.988L472.553 611.121L524.387 666.764L555.506 632.715L518.529 598.988Z" fill="#232144"/><path d="M651.925 738.188L693.136 522.749L679.09 521.658C639.367 518.559 606.01 531.233 605.782 575.242L591.247 729.559C589.613 746.901 602.754 762.121 620.16 763.047C635.475 763.858 649.043 753.243 651.925 738.188Z" fill="#9E3F39"/><path d="M500.452 571.924L414 601.094L418.254 613.693L504.706 584.524L500.452 571.924Z" fill="#D8CBC5"/><path d="M504.642 584.34L525.18 605.528L490.482 623.681L478.59 617.328L426.256 618.17C422.614 618.701 419.118 616.59 417.953 613.128L418.255 613.669L504.642 584.34Z" fill="#232144"/><path d="M749.622 491.556L729 394.493C724.027 370.706 700.191 355.87 676.625 361.9L619.027 376.642C605.865 380.011 599.31 394.701 605.48 406.793C620.202 435.654 627.173 454.295 624.51 486.899L749.622 491.556Z" fill="#FBB03B"/><path d="M718.585 319.692C731.247 303.795 727.73 279.945 727.73 279.945C727.73 279.945 703.686 281.879 691.024 297.776C678.361 313.672 681.878 337.522 681.878 337.522C681.878 337.522 705.923 335.588 718.585 319.692Z" fill="#FFCC94"/><path d="M620.015 362.557C601.579 371.134 579.199 362.141 579.199 362.141C579.199 362.141 586.701 339.227 605.137 330.65C623.574 322.073 645.953 331.076 645.953 331.076C645.953 331.076 638.441 353.98 620.015 362.557Z" fill="#FFCC94"/><path d="M610.422 321.98C611.983 327.064 617.372 329.933 622.47 328.374C627.558 326.814 630.43 321.429 628.869 316.334C627.308 311.25 621.919 308.381 616.821 309.94C611.723 311.5 608.861 316.896 610.422 321.98Z" fill="#9E3F39"/><path d="M672.973 302.808C674.534 307.892 679.923 310.761 685.021 309.202C690.109 307.642 692.98 302.257 691.42 297.162C689.859 292.079 684.47 289.209 679.372 290.769C674.273 292.328 671.412 297.724 672.973 302.808Z" fill="#9E3F39"/><path d="M688.038 349.456L678.986 319.93L633.457 333.944L642.488 363.398C646.338 375.968 659.666 383.037 672.234 379.18C684.813 375.333 691.888 362.026 688.038 349.456Z" fill="#763427"/><path d="M685.084 313.39L672.058 270.909C667.938 257.477 653.704 249.929 640.272 254.046L628.557 257.633C615.115 261.75 607.561 275.972 611.681 289.394L624.708 331.875C628.828 345.307 643.061 352.855 656.493 348.738L668.208 345.151C681.64 341.034 689.204 326.812 685.084 313.39Z" fill="#9E3F39"/><path d="M646.888 320.816L645.785 320.192C646.503 318.934 647.398 318.154 648.449 317.873C649.749 317.52 650.894 318.081 651.331 318.331C651.664 318.518 651.997 318.653 652.309 318.705C653.037 318.84 653.807 318.684 654.598 318.258C655.368 317.842 656.033 317.156 656.564 316.241C657.095 315.326 657.813 314.765 658.687 314.588C660.278 314.255 661.766 315.316 661.829 315.357L661.09 316.387C661.08 316.376 659.977 315.607 658.936 315.825C658.416 315.939 658 316.283 657.646 316.886C656.991 318.008 656.158 318.851 655.18 319.381C654.14 319.953 653.089 320.14 652.059 319.963C651.601 319.88 651.133 319.703 650.675 319.433C650.373 319.256 649.593 318.871 648.761 319.1C648.064 319.287 647.429 319.869 646.888 320.816Z" fill="black"/><path d="M656.711 328.78C655.92 326.202 659.978 325.339 659.978 325.339L668.915 322.605C668.676 322.127 662.163 345.644 643.123 330.496L652.06 327.762C652.071 327.751 655.92 326.202 656.711 328.78Z" fill="#5C1C13"/><path d="M629.921 294.396L629.546 294.51C625.676 295.716 622.627 298.762 621.316 302.744L641.376 296.506C638.026 293.969 633.791 293.19 629.921 294.396Z" fill="#FFCC94"/><path d="M661.351 284.768L661.726 284.653C665.607 283.489 669.841 284.3 673.16 286.868L653.049 292.919C654.401 288.958 657.471 285.943 661.351 284.768Z" fill="#FFCC94"/><path d="M681.254 302.15L676.301 286.004C672.181 272.571 658.083 264.982 644.797 269.047L640.791 270.274L638.482 262.757L634.923 263.849L637.233 271.365L633.228 272.592C619.941 276.657 612.512 290.838 616.633 304.271L621.585 320.417L616.872 321.862L607.269 290.526C602.805 275.971 610.993 260.563 625.56 256.103L641.926 251.092C656.492 246.632 671.911 254.814 676.374 269.369L685.977 300.705L681.254 302.15Z" fill="#FFCC94"/><path d="M679.497 288.44C674.357 271.691 656.607 262.271 639.846 267.397C644.975 284.156 662.725 293.576 679.497 288.44Z" fill="#FFCD94"/><path d="M615.77 309.559C610.63 292.81 620.056 275.063 636.828 269.938C641.968 286.686 632.542 304.423 615.77 309.559Z" fill="#FFCD94"/><path d="M643.289 309.108C639.887 301.903 629.358 301.601 624.582 306.935C625.123 307.403 626.163 308.359 626.694 308.817C627.755 307.631 633.655 302.859 642.02 308.307C642.519 308.65 642.623 308.817 643.289 309.108Z" fill="black"/><path d="M716.661 365.82L746.896 286.505L725.432 273.301L680.235 348.978C674.201 359.489 678.758 372.901 689.942 377.569C700.576 382.008 712.749 376.643 716.661 365.82Z" fill="#9E3F39"/><path d="M628.475 368.441L688.154 345.361C697.081 341.909 707.163 345.891 711.324 354.51C715.684 363.565 711.949 374.419 702.959 378.89L632.876 413.698L628.475 368.441Z" fill="#9E3F39"/><path d="M655.67 414.11C645.63 428.353 625.945 431.774 611.691 421.752C597.437 411.729 594.014 392.059 604.033 377.815C614.073 363.572 647.471 356.367 647.471 356.367C647.471 356.367 665.7 399.867 655.67 414.11Z" fill="#FBB03B"/><path d="M732.194 258.828L730.467 244.543L755.125 232.836L751.317 239.739C750.943 240.415 750.974 241.278 751.473 241.86C752.233 242.734 753.554 242.671 754.241 241.819L758.434 236.61L758.913 236.34L760.598 248.795C761.576 256.01 760.244 263.36 756.811 269.775L743.223 295.122L720.885 281.263L732.194 258.828Z" fill="#9E3F39"/><path d="M765.967 222.725C768.089 224.357 768.443 227.414 766.768 229.504L747.343 253.634L739.779 247.792L759.319 223.515C760.942 221.478 763.897 221.135 765.967 222.725Z" fill="#9E3F39"/><path d="M770.679 211.476C772.594 213.525 772.5 216.727 770.461 218.65L754.906 233.33L747.873 225.813L763.48 211.227C765.54 209.314 768.755 209.418 770.679 211.476Z" fill="#9E3F39"/><path d="M770.794 204.099C772.417 206.386 771.876 209.557 769.587 211.179L750.474 224.715L744.596 216.429L763.708 202.893C765.997 201.271 769.171 201.811 770.794 204.099Z" fill="#9E3F39"/><path d="M754.57 222.204L739.074 250.27L744.057 253.017L759.554 224.951L754.57 222.204Z" fill="#9E3F39"/><path d="M749.288 219.254L754.73 221.999L739.238 250.059L734.254 247.314L749.288 219.254Z" fill="#9E3F39"/><path d="M744.596 216.434L749.58 219.178L735.451 247.291L730.467 244.536L744.596 216.434Z" fill="#9E3F39"/><path d="M624.508 486.902L680.14 487.11L748.84 487.37C748.84 487.37 782.54 531.493 774.664 625.167C774.362 628.702 687.59 627.257 687.59 627.257L686.82 567.788H685.925L682.419 627.267C682.419 627.267 597.925 628.037 597.655 624.502C590.476 530.776 624.508 486.902 624.508 486.902Z" fill="#232144"/><path d="M805.145 936.627L737.633 905.016L723.639 934.858L791.15 966.47L805.145 936.627Z" fill="#AACDE5"/><path d="M1071.6 789.629L1065.24 715.395L1032.37 718.206L1038.73 792.44L1071.6 789.629Z" fill="#738EC1"/><path d="M664.119 299.557C663.495 297.54 664.639 295.399 666.658 294.775C668.416 294.234 670.268 295.035 671.132 296.584C671.569 295.388 671.673 294.536 671.673 294.536C671.673 294.536 666.304 293.621 662.517 296.386C658.74 299.152 657.98 304.537 657.98 304.537C657.98 304.537 662.975 304.433 666.71 302.104C665.513 301.751 664.504 300.836 664.119 299.557Z" fill="white"/><path d="M643.29 309.107C643.29 309.107 639.638 305.063 634.966 304.897C630.284 304.72 626.352 308.483 626.352 308.483C626.352 308.483 629.223 311.81 633.905 311.987C638.566 312.164 643.29 309.107 643.29 309.107Z" fill="white"/><path d="M640.939 307.112C639.492 306.103 637.484 305.074 635.216 304.918C633.791 305.812 633.073 307.569 633.593 309.264C633.988 310.563 635.018 311.489 636.246 311.821C637.63 311.593 638.941 311.177 640.054 310.73C640.928 309.784 641.303 308.432 640.939 307.112Z" fill="black"/><path d="M657.98 304.536C656.763 296.665 665.315 290.521 672.265 292.268C672.078 292.954 671.755 294.326 671.568 295.012C670.028 294.628 662.464 293.973 658.594 303.174C658.355 303.725 658.365 303.922 657.98 304.536Z" fill="black"/><path d="M921.959 373.233L925.996 344.611L971.785 339.309L966.125 379.45C964.409 391.635 953.13 400.119 940.936 398.403C928.732 396.688 920.242 385.418 921.959 373.233Z" fill="#FFD4C2"/><path d="M898.716 305.969C900.485 303.651 907.487 295.209 909.151 294.336C912.148 292.755 912.72 304.264 912.252 307.612C911.784 310.96 908.683 313.299 905.323 312.821C901.972 312.353 898.248 309.317 898.716 305.969Z" fill="#FFD4C2"/><path d="M973.147 332.045L979.338 288.14C981.107 275.601 972.367 264.009 959.83 262.252L930.001 258.052C920.502 256.711 911.71 263.323 910.368 272.815L902.429 329.081C901.191 337.825 907.288 345.914 916.038 347.14L947.23 351.538C959.778 353.306 971.379 344.572 973.147 332.045Z" fill="#FFD4C2"/><path d="M945.995 306.528L950.364 275.566L994.833 291.089L970.07 348.374L961.528 342.365C950.031 334.287 944.039 320.438 945.995 306.528Z" fill="#A3422E"/><path d="M993.831 293.459C1001.02 278.592 991.646 261.25 975.01 258.62L939.063 252.361C927.046 250.188 919.347 253.401 916.756 265.035L932.56 280.099L993.831 293.459Z" fill="#A3422E"/><path d="M940.625 302.673C941.312 297.807 945.817 294.418 950.686 295.104C955.556 295.79 958.947 300.292 958.261 305.157C957.574 310.023 953.069 313.412 948.2 312.726C943.331 312.04 939.939 307.538 940.625 302.673Z" fill="#FFD4C2"/><path d="M903.699 325.668C906.009 325.991 908.235 325.419 909.869 324.047L908.87 322.539C907.465 323.714 905.478 324.14 903.428 323.745C903.241 323.714 903.137 323.693 903.137 323.693L902.846 325.513C902.846 325.513 903.106 325.564 903.179 325.575C903.356 325.616 903.522 325.648 903.699 325.668Z" fill="#010101"/><path d="M926.07 288.603C926.07 288.603 926.06 288.582 926.039 288.572C926.039 288.551 926.049 288.53 926.049 288.52C926.309 286.68 923.001 284.694 918.662 284.08C918.059 283.997 917.465 283.987 916.893 284.008C913.46 283.862 910.734 284.756 910.38 286.264C910.349 286.284 910.328 286.295 910.328 286.295C910.328 286.295 910.339 286.316 910.359 286.326C910.359 286.347 910.349 286.368 910.349 286.378C910.089 288.218 913.397 290.204 917.736 290.817C918.339 290.901 918.933 290.911 919.505 290.89C922.938 291.036 925.664 290.142 926.018 288.634C926.049 288.613 926.07 288.603 926.07 288.603Z" fill="#A3422E"/><path d="M923.936 271.005C923.207 276.14 926.797 280.902 931.937 281.619C937.076 282.347 941.842 278.76 942.559 273.624C943.288 268.489 939.698 263.727 934.559 263.01C929.419 262.292 924.664 265.869 923.936 271.005Z" fill="#A3422E"/><path d="M895.657 253.135C894.617 260.537 899.767 267.378 907.175 268.428C914.583 269.468 921.429 264.321 922.479 256.919C923.52 249.517 918.37 242.676 910.962 241.625C903.543 240.586 896.697 245.743 895.657 253.135Z" fill="#A3422E"/><path d="M914.292 245.252C913.251 252.654 918.402 259.495 925.809 260.545C933.217 261.585 940.063 256.439 941.114 249.036C942.155 241.634 937.004 234.793 929.597 233.743C922.189 232.703 915.332 237.86 914.292 245.252Z" fill="#A3422E"/><path d="M927.005 243.809C925.964 251.211 931.114 258.052 938.522 259.102C945.93 260.142 952.776 254.996 953.827 247.593C954.867 240.191 949.717 233.35 942.309 232.3C934.902 231.25 928.056 236.406 927.005 243.809Z" fill="#A3422E"/><path d="M949.009 254.258C947.968 261.66 953.118 268.501 960.526 269.552C967.934 270.591 974.78 265.445 975.831 258.042C976.871 250.64 971.721 243.799 964.313 242.749C956.905 241.699 950.049 246.856 949.009 254.258Z" fill="#A3422E"/><path d="M937.43 267.136C936.639 272.729 940.541 277.907 946.138 278.697C951.736 279.487 956.917 275.588 957.708 269.995C958.499 264.401 954.597 259.224 949 258.434C943.402 257.644 938.221 261.542 937.43 267.136Z" fill="#A3422E"/><path d="M934.87 281.72C933.954 288.208 938.47 294.207 944.962 295.122C951.454 296.037 957.458 291.524 958.373 285.037C959.289 278.549 954.763 272.551 948.281 271.636C941.789 270.71 935.775 275.233 934.87 281.72Z" fill="#A3422E"/><path d="M1122.18 494.435L1143.9 518.514L1166.23 484.153L1136.85 470.305L1122.18 494.435Z" fill="#FFD4C2"/><path d="M1158.34 539.82C1161.53 538.614 1163.14 535.048 1161.93 531.856L1148.83 497.184L1137.26 501.55L1150.37 536.223C1151.57 539.415 1155.14 541.016 1158.34 539.82Z" fill="#FFD4C2"/><path d="M1181.19 550.32C1184.6 550.112 1187.2 547.181 1186.99 543.781L1185.31 516.562L1172.97 517.321L1174.65 544.54C1174.86 547.94 1177.79 550.528 1181.19 550.32Z" fill="#FFD4C2"/><path d="M1175.38 547.54C1178.72 546.823 1180.84 543.548 1180.13 540.21L1174.43 513.543L1162.34 516.121L1168.04 542.789C1168.75 546.136 1172.04 548.257 1175.38 547.54Z" fill="#FFD4C2"/><path d="M1165.63 483.569L1155.01 489.887L1174.67 522.879L1185.29 516.562L1165.63 483.569Z" fill="#FFD4C2"/><path d="M1160.4 486.482L1149.45 492.203L1167.24 526.229L1178.2 520.507L1160.4 486.482Z" fill="#FFD4C2"/><path d="M1156.36 516.986C1156.36 516.986 1153.87 511.85 1153.3 510.114C1152.11 506.517 1156.07 505.238 1157.65 508.003C1158.66 509.781 1161.66 515.822 1164.13 520.136C1162.8 508.96 1163.71 490.797 1163.71 490.797L1143.54 504.853L1156.36 516.986Z" fill="#FFD4C2"/><path d="M1138.65 471.397L1060.15 420.069C1050.07 413.478 1036.54 416.503 1030.24 426.764C1023.47 437.774 1027.96 452.215 1039.77 457.455L1123.51 494.634L1138.65 471.397Z" fill="#FFD4C2"/><path d="M971.099 362.746L1060.15 420.063L1040.37 457.771L953.994 417.474L971.099 362.746Z" fill="#FFD4C2"/><path d="M999.149 375.021C999.149 375.021 976.582 348.468 953.765 362.712C938.19 372.432 932.322 392.134 941.446 408.062C950.581 423.979 989.327 437.983 989.327 437.983L999.149 375.021Z" fill="#232144"/><path d="M996.62 444.85L1020.96 382.668L982.512 362.207L973.605 435.857L996.62 444.85Z" fill="#232144"/><path d="M913.626 294.457C913.512 294.457 913.418 294.488 913.314 294.499C914.573 295.361 915.26 297.191 914.896 299.135C914.646 300.466 913.949 301.568 913.064 302.244C913.304 302.286 913.564 302.317 913.845 302.306C918.516 302.171 922.262 300.31 922.199 298.137C922.137 295.975 918.298 294.322 913.626 294.457Z" fill="white"/><path d="M912.314 322.779L903.106 320.918C902.419 320.783 901.972 320.107 902.117 319.421L903.127 314.41C903.262 313.724 903.938 313.276 904.625 313.422L908.225 314.15C911.325 314.774 913.333 317.799 912.699 320.897L912.314 322.779Z" fill="#A3422E"/><path d="M921.021 425.304H987.692L953.764 362.727L921.021 390.662V425.304Z" fill="#232144"/><path d="M952.802 262.596L948.504 261.602L938.634 304.171L942.932 305.166L952.802 262.596Z" fill="#A3422E"/><path d="M671.121 296.579C670.267 295.03 668.415 294.23 666.647 294.77C664.628 295.394 663.484 297.525 664.108 299.553C664.503 300.831 665.502 301.757 666.699 302.1C666.928 301.954 667.146 301.809 667.365 301.653C669.477 300.114 670.569 298.076 671.121 296.579Z" fill="black"/><path d="M913.304 294.5C909.225 294.947 909.246 301.559 913.054 302.256C913.938 301.57 914.635 300.478 914.885 299.147C915.249 297.193 914.563 295.363 913.304 294.5Z" fill="#1D1D1B"/><path d="M759.245 238.84L759.443 240.264L751.078 250.931L750.256 250.287L759.245 238.84Z" fill="#763427"/></svg>