<svg viewBox="0 0 1600 1200" fill="none" xmlns="http://www.w3.org/2000/svg"><path fill-rule="evenodd" clip-rule="evenodd" d="M1254.77 676.011C1239.15 676.011 1230.7 670.933 1223.9 666.852C1217.85 663.221 1213.08 660.354 1202.62 660.354C1192.17 660.354 1187.39 663.221 1181.35 666.852C1174.55 670.933 1166.09 676.011 1150.47 676.011C1134.86 676.011 1126.4 670.932 1119.6 666.852C1113.56 663.221 1108.78 660.354 1098.33 660.354C1087.88 660.354 1083.1 663.221 1077.06 666.852C1070.26 670.932 1061.81 676.011 1046.19 676.011C1030.57 676.011 1022.11 670.932 1015.32 666.852C1009.27 663.221 1004.5 660.354 994.046 660.354V641.686C1009.66 641.686 1018.12 646.765 1024.92 650.846C1030.96 654.476 1035.74 657.343 1046.19 657.343C1056.64 657.343 1061.42 654.476 1067.46 650.846C1074.26 646.765 1082.71 641.686 1098.33 641.686C1113.95 641.686 1122.41 646.765 1129.2 650.846C1135.25 654.476 1140.02 657.343 1150.47 657.343C1160.93 657.343 1165.7 654.476 1171.75 650.846C1178.55 646.765 1187 641.686 1202.62 641.686C1218.24 641.686 1226.7 646.765 1233.5 650.846C1239.54 654.476 1244.32 657.343 1254.77 657.343V676.011Z" fill="#7070FF"/><path fill-rule="evenodd" clip-rule="evenodd" d="M1345 729.065C1329.38 729.065 1320.92 723.986 1314.13 719.906C1308.08 716.275 1303.31 713.407 1292.85 713.407C1282.4 713.407 1277.62 716.275 1271.57 719.906C1264.78 723.985 1256.32 729.065 1240.7 729.065C1225.08 729.065 1216.63 723.985 1209.83 719.906C1203.79 716.275 1199.01 713.407 1188.56 713.407C1178.11 713.407 1173.33 716.275 1167.29 719.906C1160.49 723.985 1152.03 729.065 1136.42 729.065C1120.8 729.065 1112.34 723.985 1105.55 719.906C1099.5 716.275 1094.73 713.407 1084.27 713.407V694.739C1099.89 694.739 1108.35 699.819 1115.14 703.899C1121.19 707.53 1125.96 710.397 1136.42 710.397C1146.87 710.397 1151.64 707.53 1157.69 703.899C1164.48 699.819 1172.94 694.739 1188.56 694.739C1204.18 694.739 1212.63 699.819 1219.43 703.899C1225.47 707.53 1230.25 710.397 1240.7 710.397C1251.16 710.397 1255.93 707.53 1261.98 703.899C1268.77 699.818 1277.23 694.739 1292.85 694.739C1308.47 694.739 1316.93 699.819 1323.72 703.899C1329.77 707.53 1334.55 710.397 1345 710.397V729.065Z" fill="#7070FF"/><path fill-rule="evenodd" clip-rule="evenodd" d="M516.727 580.565C501.106 580.565 492.65 575.487 485.855 571.406C479.808 567.776 475.032 564.908 464.578 564.908C454.123 564.908 449.347 567.776 443.3 571.406C436.505 575.487 428.049 580.565 412.428 580.565C396.81 580.565 388.353 575.487 381.559 571.406C375.513 567.776 370.738 564.908 360.285 564.908C349.833 564.908 345.058 567.776 339.012 571.406C332.218 575.487 323.761 580.565 308.142 580.565C292.523 580.565 284.068 575.487 277.273 571.406C271.227 567.776 266.453 564.908 256 564.908V546.241C271.618 546.241 280.074 551.319 286.869 555.4C292.915 559.031 297.69 561.898 308.142 561.898C318.594 561.898 323.37 559.031 329.415 555.4C336.21 551.319 344.667 546.241 360.285 546.241C375.904 546.241 384.36 551.319 391.154 555.4C397.2 559.031 401.975 561.898 412.428 561.898C422.882 561.898 427.659 559.031 433.705 555.4C440.501 551.319 448.957 546.241 464.578 546.241C480.198 546.241 488.655 551.319 495.449 555.4C501.496 559.03 506.272 561.898 516.727 561.898V580.565Z" fill="#7070FF"/><path fill-rule="evenodd" clip-rule="evenodd" d="M945.51 750.275C948.229 751.5 949.441 754.699 948.216 757.419L885.954 895.705C884.729 898.426 881.532 899.638 878.812 898.412C876.093 897.187 874.882 893.988 876.107 891.268L938.369 752.982C939.593 750.261 942.791 749.049 945.51 750.275Z" fill="white"/><path fill-rule="evenodd" clip-rule="evenodd" d="M1175.65 232.407C970.426 167.13 684.107 171.062 466.054 239.803C434.055 249.891 418.78 286.354 433.84 316.358L455.437 357.154L772.051 990.196C791.345 1028.64 846.165 1028.65 865.48 990.222L1185.93 350.682L1207.87 308.999C1222.95 278.985 1207.64 242.584 1175.65 232.407Z" fill="#FAAD70"/><path fill-rule="evenodd" clip-rule="evenodd" d="M1096.12 364.958C1054.69 357.327 1029.29 319.986 974.629 317.362C907.146 314.124 888.846 347.762 807.423 347.762C740.813 347.762 721.386 309.912 660.195 316.079C617.61 320.371 577.88 356.666 538.406 369.059C503.212 380.106 463.611 361.351 455.436 357.154C454.895 358.896 454.988 360.844 455.879 362.62L770.943 990.342C790.785 1029.87 847.163 1029.89 867.027 990.368L1185.6 356.52C1186.56 354.619 1186.61 352.517 1185.93 350.682C1178.9 355.911 1149.17 374.732 1096.12 364.958Z" fill="#FFE3C7"/><path fill-rule="evenodd" clip-rule="evenodd" d="M715.365 535.01C715.365 535.01 710.22 565.958 687.792 583.3C665.364 600.641 634.146 597.809 634.146 597.809C634.146 597.809 639.289 566.861 661.718 549.52C684.146 532.178 715.365 535.01 715.365 535.01Z" fill="#478D6D"/><path fill-rule="evenodd" clip-rule="evenodd" d="M972.93 347.841C972.93 347.841 983.586 377.346 972.515 403.458C961.443 429.57 932.839 442.401 932.839 442.401C932.839 442.401 922.183 412.896 933.254 386.783C944.325 360.672 972.93 347.841 972.93 347.841Z" fill="#478D6D"/><path fill-rule="evenodd" clip-rule="evenodd" d="M807.286 776.109C807.286 776.109 838.054 782.106 854.759 805.021C871.463 827.936 867.778 859.092 867.778 859.092C867.778 859.092 837.01 853.095 820.306 830.18C803.6 807.265 807.286 776.109 807.286 776.109Z" fill="#478D6D"/><path fill-rule="evenodd" clip-rule="evenodd" d="M799 468.258C799 521.147 756.162 564.022 703.319 564.022C650.476 564.022 607.638 521.147 607.638 468.258C607.638 415.369 650.476 372.495 703.319 372.495C756.162 372.495 799 415.369 799 468.258Z" fill="#BA251D"/><path fill-rule="evenodd" clip-rule="evenodd" d="M783.79 468.258C783.79 512.739 747.761 548.797 703.319 548.797C658.876 548.797 622.848 512.739 622.848 468.258C622.848 423.777 658.876 387.719 703.319 387.719C747.761 387.719 783.79 423.777 783.79 468.258Z" fill="#D93B34"/><path fill-rule="evenodd" clip-rule="evenodd" d="M720.221 463.437C713.413 464.615 707.882 457.975 710.267 451.483L718.252 429.753L726.236 408.022C728.621 401.531 737.132 400.058 741.556 405.371L756.367 423.157L771.178 440.943C775.603 446.255 772.622 454.368 765.813 455.547L743.017 459.491L720.221 463.437Z" fill="#BA251D"/><path fill-rule="evenodd" clip-rule="evenodd" d="M713.217 482.306C709.357 476.57 713.148 468.802 720.042 468.324L743.12 466.723L766.199 465.121C773.091 464.643 777.917 471.813 774.885 478.026L764.73 498.831L754.577 519.636C751.545 525.849 742.928 526.447 739.067 520.712L726.142 501.508L713.217 482.306Z" fill="#BA251D"/><path fill-rule="evenodd" clip-rule="evenodd" d="M693.027 479.343C698.358 474.944 706.449 477.969 707.591 484.79L711.414 507.625L715.237 530.461C716.379 537.281 709.716 542.781 703.243 540.361L681.572 532.257L659.901 524.152C653.429 521.732 652.001 513.206 657.332 508.807L675.179 494.075L693.027 479.343Z" fill="#BA251D"/><path fill-rule="evenodd" clip-rule="evenodd" d="M684.362 462.473C690.347 465.93 690.347 474.575 684.362 478.033L664.327 489.609L644.292 501.186C638.309 504.644 630.829 500.322 630.829 493.406V470.253V447.099C630.829 440.183 638.309 435.861 644.292 439.318L664.327 450.895L684.362 462.473Z" fill="#BA251D"/><path fill-rule="evenodd" clip-rule="evenodd" d="M703.225 453.212C701.944 460.007 693.793 462.867 688.553 458.361L671.009 443.269L653.464 428.177C648.224 423.669 649.825 415.174 656.345 412.886L678.176 405.224L700.006 397.564C706.527 395.275 713.078 400.91 711.798 407.706L707.511 430.459L703.225 453.212Z" fill="#BA251D"/><path fill-rule="evenodd" clip-rule="evenodd" d="M1021.35 608.786C1021.35 653.498 985.131 689.745 940.455 689.745C895.781 689.745 859.565 653.498 859.565 608.786C859.565 564.074 895.781 527.826 940.455 527.826C985.131 527.826 1021.35 564.074 1021.35 608.786Z" fill="#BA251D"/><path fill-rule="evenodd" clip-rule="evenodd" d="M1008.49 608.786C1008.49 646.39 978.029 676.876 940.456 676.876C902.883 676.876 872.425 646.39 872.425 608.786C872.425 571.181 902.883 540.696 940.456 540.696C978.029 540.696 1008.49 571.181 1008.49 608.786Z" fill="#D93B34"/><path fill-rule="evenodd" clip-rule="evenodd" d="M954.745 604.71C948.99 605.706 944.314 600.092 946.33 594.605L953.081 576.233L959.831 557.861C961.847 552.374 969.042 551.129 972.782 555.62L985.304 570.657L997.826 585.694C1001.57 590.185 999.046 597.044 993.289 598.04L974.018 601.375L954.745 604.71Z" fill="#BA251D"/><path fill-rule="evenodd" clip-rule="evenodd" d="M948.825 620.662C945.561 615.813 948.765 609.246 954.594 608.842L974.104 607.488L993.615 606.134C999.443 605.73 1003.52 611.791 1000.96 617.044L992.375 634.633L983.791 652.221C981.227 657.474 973.942 657.981 970.679 653.131L959.751 636.896L948.825 620.662Z" fill="#BA251D"/><path fill-rule="evenodd" clip-rule="evenodd" d="M931.754 618.158C936.261 614.438 943.101 616.995 944.066 622.762L947.299 642.068L950.531 661.373C951.496 667.139 945.863 671.789 940.39 669.743L922.07 662.892L903.749 656.04C898.277 653.994 897.07 646.786 901.577 643.067L916.666 630.612L931.754 618.158Z" fill="#BA251D"/><path fill-rule="evenodd" clip-rule="evenodd" d="M924.429 603.895C929.488 606.818 929.488 614.126 924.429 617.05L907.492 626.837L890.554 636.625C885.495 639.548 879.171 635.894 879.171 630.047V610.472V590.897C879.171 585.051 885.495 581.397 890.554 584.32L907.492 594.108L924.429 603.895Z" fill="#BA251D"/><path fill-rule="evenodd" clip-rule="evenodd" d="M940.377 596.065C939.294 601.811 932.403 604.229 927.973 600.418L913.14 587.659L898.308 574.9C893.878 571.09 895.231 563.908 900.743 561.973L919.2 555.497L937.656 549.019C943.169 547.085 948.706 551.849 947.624 557.593L944 576.829L940.377 596.065Z" fill="#BA251D"/><path fill-rule="evenodd" clip-rule="evenodd" d="M607.638 402.635C594.946 402.635 584.62 412.969 584.62 425.671C584.62 438.374 594.946 448.708 607.638 448.708C620.329 448.708 630.654 438.374 630.654 425.671C630.654 412.969 620.329 402.635 607.638 402.635ZM607.638 463.737C586.666 463.737 569.604 446.661 569.604 425.671C569.604 404.682 586.666 387.607 607.638 387.607C628.609 387.607 645.67 404.682 645.67 425.671C645.67 446.661 628.609 463.737 607.638 463.737Z" fill="#472940"/><path fill-rule="evenodd" clip-rule="evenodd" d="M1023.42 432.839C1008.16 432.839 995.74 445.265 995.74 460.54C995.74 475.814 1008.16 488.24 1023.42 488.24C1038.68 488.24 1051.09 475.814 1051.09 460.54C1051.09 445.265 1038.68 432.839 1023.42 432.839ZM1023.42 506.313C998.2 506.313 977.684 485.779 977.684 460.54C977.684 435.3 998.2 414.766 1023.42 414.766C1048.64 414.766 1069.15 435.3 1069.15 460.54C1069.15 485.779 1048.64 506.313 1023.42 506.313Z" fill="#472940"/><path fill-rule="evenodd" clip-rule="evenodd" d="M729.13 666.363C718.301 666.363 709.49 675.18 709.49 686.02C709.49 696.859 718.301 705.676 729.13 705.676C739.959 705.676 748.769 696.859 748.769 686.02C748.769 675.18 739.959 666.363 729.13 666.363ZM729.13 720.705C710.021 720.705 694.475 705.146 694.475 686.02C694.475 666.894 710.021 651.335 729.13 651.335C748.239 651.335 763.785 666.894 763.785 686.02C763.785 705.146 748.239 720.705 729.13 720.705Z" fill="#472940"/><path fill-rule="evenodd" clip-rule="evenodd" d="M635.482 662.38C633.317 662.38 631.235 661.181 630.205 659.11L510.093 417.654C508.643 414.74 509.829 411.201 512.741 409.75C515.654 408.298 519.189 409.485 520.638 412.399L640.749 653.856C642.2 656.77 641.014 660.31 638.102 661.76C637.26 662.18 636.364 662.38 635.482 662.38Z" fill="white"/><path fill-rule="evenodd" clip-rule="evenodd" d="M1178.68 315.809C1178.33 315.809 1177.97 315.778 1177.62 315.713C1174.42 315.132 1172.29 312.064 1172.87 308.861C1176.69 287.807 1175.18 273.883 1168.13 265.043C1160.86 255.916 1146.47 250.998 1124.15 250.006C1120.9 249.861 1118.38 247.108 1118.53 243.855C1118.67 240.603 1121.45 238.101 1124.67 238.227C1150.95 239.395 1167.69 245.579 1177.34 257.689C1186.67 269.386 1188.93 286.314 1184.46 310.964C1183.95 313.813 1181.47 315.809 1178.68 315.809Z" fill="white"/><path fill-rule="evenodd" clip-rule="evenodd" d="M944.582 781.665C943.661 781.665 942.726 781.448 941.853 780.99C938.971 779.479 937.86 775.916 939.369 773.032L976.939 701.278C978.449 698.395 982.006 697.282 984.891 698.792C987.771 700.303 988.883 703.866 987.373 706.75L949.804 778.505C948.751 780.514 946.702 781.665 944.582 781.665Z" fill="white"/><path fill-rule="evenodd" clip-rule="evenodd" d="M965.576 957.442C963.673 951.875 959.117 952.881 951.005 952.427C941.566 951.897 934.662 947.642 930.302 941.418C928.044 938.192 926.916 934.314 926.933 930.375C927.127 884.994 928.295 607.338 927.982 582.86C927.59 552.164 924.239 496.441 886.738 455.255C886.197 454.66 822.134 464.036 822.134 464.036L832.919 548.787L838.764 556.708L889.985 937.711L891.624 964.602C892.176 970.469 893.897 973.601 899.243 973.097L960.644 965.07C964.37 964.733 966.786 960.985 965.576 957.442Z" fill="#66292F"/><path fill-rule="evenodd" clip-rule="evenodd" d="M765.115 361.286L688.042 307.958C679.925 302.342 677.483 291.424 682.434 282.881C687.629 273.913 699.062 270.792 708.087 275.878L768.592 312.216L765.115 361.286Z" fill="#66292F"/><path fill-rule="evenodd" clip-rule="evenodd" d="M711.644 306.754L786.729 261.689L777.773 237.289L692.885 269.859C681.295 274.535 676.429 288.324 682.513 299.247C688.294 309.626 701.575 313.048 711.644 306.754Z" fill="#66292F"/><path fill-rule="evenodd" clip-rule="evenodd" d="M777.12 263.754L803.063 261.24L792.714 229.726L768.994 240.846L777.12 263.754Z" fill="#66292F"/><path fill-rule="evenodd" clip-rule="evenodd" d="M826.551 260.829L826.552 260.828C827.652 258.23 826.442 255.231 823.845 254.129L798.564 243.392C796.948 242.706 795.082 243.459 794.397 245.077L792.262 250.112C791.923 250.911 792.296 251.833 793.094 252.173L819.852 263.537C822.45 264.64 825.449 263.428 826.551 260.829Z" fill="#F5836D"/><path fill-rule="evenodd" clip-rule="evenodd" d="M825.731 265.406L825.732 265.405C826.833 262.807 825.622 259.807 823.025 258.706L797.745 247.968C796.129 247.282 794.263 248.036 793.578 249.654L791.442 254.688C791.104 255.488 791.477 256.41 792.275 256.75L819.033 268.114C821.63 269.217 824.63 268.005 825.731 265.406Z" fill="#F5836D"/><path fill-rule="evenodd" clip-rule="evenodd" d="M843.265 255.259C844.938 252.986 844.453 249.788 842.184 248.115L824.036 234.733L817.978 242.962L836.122 256.342C838.394 258.017 841.592 257.532 843.265 255.259Z" fill="#F5836D"/><path fill-rule="evenodd" clip-rule="evenodd" d="M838.422 257.48L838.423 257.479C839.739 254.984 838.785 251.893 836.291 250.576L816.358 240.043L811.589 249.083L831.519 259.613C834.014 260.932 837.105 259.977 838.422 257.48Z" fill="#F5836D"/><path fill-rule="evenodd" clip-rule="evenodd" d="M792.72 229.742L791.098 239.834L822.431 244.878L824.053 234.786L792.72 229.742Z" fill="#66292F"/><path fill-rule="evenodd" clip-rule="evenodd" d="M791.772 234.525L789.596 244.512L820.603 251.28L822.779 241.293L791.772 234.525Z" fill="#66292F"/><path fill-rule="evenodd" clip-rule="evenodd" d="M827.251 258.881L827.253 258.88C828.426 256.314 827.299 253.283 824.735 252.107L804.241 242.715L799.989 252.009L820.479 261.4C823.045 262.576 826.077 261.448 827.251 258.881Z" fill="#F5836D"/><path fill-rule="evenodd" clip-rule="evenodd" d="M779.384 238.591L777.773 248.685L809.112 253.695L810.723 243.601L779.384 238.591Z" fill="#66292F"/><path fill-rule="evenodd" clip-rule="evenodd" d="M896.057 361.286L973.13 307.958C981.247 302.342 983.689 291.424 978.738 282.881C973.544 273.913 962.11 270.792 953.085 275.878L895.92 307.691L896.057 361.286Z" fill="#66292F"/><path fill-rule="evenodd" clip-rule="evenodd" d="M949.528 306.754L874.443 261.689L883.399 237.289L968.287 269.859C979.877 274.535 984.743 288.324 978.659 299.247C972.878 309.626 959.597 313.048 949.528 306.754Z" fill="#66292F"/><path fill-rule="evenodd" clip-rule="evenodd" d="M884.051 263.754L858.108 261.24L868.457 229.726L892.177 240.846L884.051 263.754Z" fill="#66292F"/><path fill-rule="evenodd" clip-rule="evenodd" d="M834.62 260.829L834.619 260.828C833.519 258.23 834.73 255.231 837.326 254.129L862.607 243.392C864.223 242.706 866.089 243.459 866.774 245.077L868.909 250.112C869.248 250.911 868.875 251.833 868.077 252.173L841.319 263.537C838.721 264.64 835.722 263.428 834.62 260.829Z" fill="#F5836D"/><path fill-rule="evenodd" clip-rule="evenodd" d="M835.44 265.406L835.439 265.405C834.338 262.807 835.549 259.807 838.146 258.706L863.426 247.968C865.042 247.282 866.908 248.036 867.593 249.654L869.729 254.688C870.067 255.488 869.694 256.41 868.896 256.75L842.138 268.114C839.54 269.217 836.541 268.005 835.44 265.406Z" fill="#66292F"/><path fill-rule="evenodd" clip-rule="evenodd" d="M817.907 255.259C816.234 252.986 816.719 249.788 818.988 248.115L837.136 234.733L843.195 242.962L825.05 256.342C822.778 258.017 819.58 257.532 817.907 255.259Z" fill="#66292F"/><path fill-rule="evenodd" clip-rule="evenodd" d="M822.75 257.48L822.749 257.479C821.434 254.984 822.388 251.893 824.882 250.576L844.815 240.043L849.583 249.083L829.653 259.613C827.158 260.932 824.067 259.977 822.75 257.48Z" fill="#66292F"/><path fill-rule="evenodd" clip-rule="evenodd" d="M868.453 229.742L870.075 239.834L838.741 244.878L837.119 234.786L868.453 229.742Z" fill="#66292F"/><path fill-rule="evenodd" clip-rule="evenodd" d="M869.4 234.525L871.576 244.512L840.569 251.28L838.393 241.293L869.4 234.525Z" fill="#66292F"/><path fill-rule="evenodd" clip-rule="evenodd" d="M833.92 258.881L833.919 258.88C832.746 256.314 833.873 253.283 836.437 252.107L856.93 242.715L861.183 252.009L840.693 261.4C838.127 262.576 835.095 261.448 833.92 258.881Z" fill="#66292F"/><path fill-rule="evenodd" clip-rule="evenodd" d="M881.787 238.591L883.398 248.685L852.059 253.695L850.448 243.601L881.787 238.591Z" fill="#66292F"/><path fill-rule="evenodd" clip-rule="evenodd" d="M895.514 307.777L764.423 309.7L766.63 458.394L897.313 457.592L895.514 307.777Z" fill="#66292F"/><path fill-rule="evenodd" clip-rule="evenodd" d="M774.612 455.255C737.111 496.441 733.76 552.164 733.368 582.86C733.053 607.438 734.234 887.248 734.42 930.915C734.434 934.226 733.555 937.494 731.793 940.295C727.495 947.127 720.342 951.866 710.346 952.427C702.233 952.882 697.677 951.875 695.775 957.442C694.564 960.985 696.98 964.733 700.707 965.07L762.107 973.097C767.454 973.601 769.174 970.47 769.726 964.602L771.277 938.371L822.586 556.708L828.431 548.787L839.218 464.037C839.218 464.037 775.154 454.66 774.612 455.255Z" fill="#66292F"/><path fill-rule="evenodd" clip-rule="evenodd" d="M834.802 556.468L918.977 510.266C918.977 510.266 911.103 483.086 897.314 457.592C897.226 457.432 766.734 458.245 766.631 458.395C750.058 482.072 743.76 508.835 743.76 508.835L826.268 556.476L834.802 556.468Z" fill="#FAA332"/><path fill-rule="evenodd" clip-rule="evenodd" d="M764.423 309.699L769.247 309.612L770.216 362.716L765.115 361.285L764.423 309.699Z" fill="#FAA332"/><path fill-rule="evenodd" clip-rule="evenodd" d="M891.096 307.778L895.919 307.691L896.89 360.697L892.065 361.035L891.096 307.778Z" fill="#FAA332"/><path fill-rule="evenodd" clip-rule="evenodd" d="M896.902 418.105H765.988L765.128 356.347L831.014 387.227L892.038 358.627L896.884 360.697L896.902 418.105Z" fill="#FAA332"/><path fill-rule="evenodd" clip-rule="evenodd" d="M819.965 247.124C819.965 261.028 808.702 272.3 794.811 272.3C780.919 272.3 769.656 261.028 769.656 247.124C769.656 233.219 780.919 221.948 794.811 221.948C808.702 221.948 819.965 233.219 819.965 247.124Z" fill="#191414"/><path fill-rule="evenodd" clip-rule="evenodd" d="M893.841 248.264C893.841 262.167 882.578 273.44 868.687 273.44C854.795 273.44 843.532 262.167 843.532 248.264C843.532 234.359 854.795 223.087 868.687 223.087C882.578 223.087 893.841 234.359 893.841 248.264Z" fill="#191414"/><path fill-rule="evenodd" clip-rule="evenodd" d="M848.085 195.963C848.085 204.78 840.944 211.926 832.136 211.926C823.327 211.926 816.186 204.78 816.186 195.963C816.186 187.146 823.327 180 832.136 180C840.944 180 848.085 187.146 848.085 195.963Z" fill="#191414"/><path fill-rule="evenodd" clip-rule="evenodd" d="M873.696 255.519C873.696 260.797 869.421 265.076 864.146 265.076C858.873 265.076 854.598 260.797 854.598 255.519C854.598 250.241 858.873 245.962 864.146 245.962C869.421 245.962 873.696 250.241 873.696 255.519Z" fill="#66292F"/><path fill-rule="evenodd" clip-rule="evenodd" d="M808.899 255.491C808.899 260.769 804.624 265.048 799.35 265.048C794.076 265.048 789.801 260.769 789.801 255.491C789.801 250.213 794.076 245.934 799.35 245.934C804.624 245.934 808.899 250.213 808.899 255.491Z" fill="#66292F"/><path fill-rule="evenodd" clip-rule="evenodd" d="M808.18 309.591V275.26L855.362 273.889V313.417C855.362 326.457 844.801 333.331 831.772 333.331L831.771 333.203C818.742 333.203 808.18 322.631 808.18 309.591Z" fill="#66292F"/><path fill-rule="evenodd" clip-rule="evenodd" d="M808.18 291.176V260.543L855.362 259.171V291.176C855.362 304.216 851.48 310.174 838.451 310.174H825.493C812.464 310.174 808.18 304.216 808.18 291.176Z" fill="#420F0F"/><path fill-rule="evenodd" clip-rule="evenodd" d="M800.5 270.828V226.741C800.5 212.811 811.787 201.519 825.711 201.519H837.831C851.754 201.519 863.042 212.811 863.042 226.741V270.828C863.042 284.758 851.754 296.05 837.831 296.05H825.711C811.787 296.05 800.5 284.758 800.5 270.828Z" fill="#66292F"/><path fill-rule="evenodd" clip-rule="evenodd" d="M824.09 266.7C824.09 266.7 824.09 266.699 823.59 266.321C823.09 265.943 823.091 265.943 823.091 265.943L823.091 265.942L823.092 265.941L823.095 265.938L823.102 265.928C823.108 265.921 823.116 265.911 823.126 265.898C823.146 265.874 823.173 265.84 823.209 265.799C823.279 265.717 823.381 265.606 823.509 265.481C823.764 265.233 824.14 264.917 824.61 264.672C825.081 264.426 825.669 264.241 826.33 264.294C827 264.349 827.682 264.643 828.34 265.251L828.34 265.251C829.063 265.921 829.892 266.412 830.793 266.595M824.09 266.7L824.09 266.7L824.089 266.701C824.089 266.701 824.089 266.701 824.089 266.701L824.09 266.7ZM827.489 266.171C828.331 266.951 829.36 267.584 830.545 267.824L830.545 267.824C831.465 268.01 832.589 268.021 833.666 267.466L833.668 267.465C834.119 267.231 834.5 266.911 834.825 266.563L834.825 266.563L834.828 266.559C835.057 266.309 835.543 265.873 836.2 265.735C836.807 265.607 837.696 265.706 838.831 266.777L839.691 265.865C838.314 264.565 837.021 264.281 835.942 264.508C834.914 264.724 834.21 265.378 833.906 265.71C833.654 265.98 833.384 266.2 833.091 266.352C832.35 266.734 831.54 266.746 830.793 266.595" fill="#191414"/><path fill-rule="evenodd" clip-rule="evenodd" d="M831.832 277.179C831.832 274.505 827.736 274.862 827.736 274.862H818.475C818.565 274.34 831.555 294.754 845.189 274.862H835.928C835.928 274.862 831.832 274.505 831.832 277.179Z" fill="#191414"/><path fill-rule="evenodd" clip-rule="evenodd" d="M815.032 232.022L814.648 232.023C810.634 232.041 806.865 234.047 804.463 237.439L825.269 237.341C822.829 233.972 819.044 232.002 815.032 232.022Z" fill="#191414"/><path fill-rule="evenodd" clip-rule="evenodd" d="M847.906 231.657L847.522 231.672C843.513 231.831 839.814 233.965 837.532 237.439L858.322 236.617C855.766 233.335 851.915 231.498 847.906 231.657Z" fill="#191414"/><path fill-rule="evenodd" clip-rule="evenodd" d="M823.41 254.555C823.41 254.555 821.128 249.661 816.747 248.138C812.366 246.614 807.544 249.039 807.544 249.039C807.544 249.039 809.296 253.029 813.678 254.553C818.059 256.076 823.41 254.555 823.41 254.555Z" fill="white"/><path fill-rule="evenodd" clip-rule="evenodd" d="M818.658 251.196C818.658 253.292 816.96 254.992 814.866 254.992C812.772 254.992 811.074 253.292 811.074 251.196C811.074 249.101 812.772 247.401 814.866 247.401C816.96 247.401 818.658 249.101 818.658 251.196Z" fill="#010101"/><path fill-rule="evenodd" clip-rule="evenodd" d="M823.41 254.552C822.281 246.728 812.397 243.386 806.321 247.061C806.694 247.657 807.405 248.867 807.778 249.462C809.122 248.65 816.098 245.829 822.435 253.432C822.82 253.893 822.869 254.087 823.41 254.552Z" fill="#010101"/><path fill-rule="evenodd" clip-rule="evenodd" d="M838.849 254.63C838.849 254.63 841.131 249.737 845.512 248.214C849.893 246.69 854.714 249.114 854.714 249.114C854.714 249.114 852.962 253.104 848.58 254.628C844.199 256.151 838.849 254.63 838.849 254.63Z" fill="white"/><path fill-rule="evenodd" clip-rule="evenodd" d="M842.989 251.433C842.989 253.529 844.687 255.228 846.781 255.228C848.876 255.228 850.573 253.529 850.573 251.433C850.573 249.337 848.876 247.637 846.781 247.637C844.687 247.637 842.989 249.337 842.989 251.433Z" fill="#010101"/><path fill-rule="evenodd" clip-rule="evenodd" d="M838.848 254.628C839.977 246.803 849.861 243.461 855.937 247.136C855.563 247.732 854.853 248.942 854.48 249.538C853.136 248.726 846.16 245.904 839.822 253.507C839.438 253.968 839.389 254.162 838.848 254.628Z" fill="#010101"/><path fill-rule="evenodd" clip-rule="evenodd" d="M800.867 259.512V242.299C800.867 228.367 812.019 217.072 825.776 217.072H829.929H833.612H837.765C851.522 217.072 862.674 228.367 862.674 242.299V259.512H867.559V226.541C867.559 211.443 855.331 199.203 840.245 199.203H823.296C808.21 199.203 795.981 211.443 795.981 226.541V259.512H800.867Z" fill="#191414"/></svg>