<svg viewBox="0 0 1600 1200" fill="none" xmlns="http://www.w3.org/2000/svg"><path d="M932.708 798.105L1110.68 746.171C1110.68 746.171 1140.22 732.31 1152.78 762.415C1165.91 793.854 1170.99 805.674 1170.99 805.674L967.211 870.898" fill="#ABB8B9"/><path d="M166.582 645.523L153 638.097L204.154 535.286L229.859 547.069L224.932 580.119L166.582 645.523Z" fill="#E73245"/><path d="M303.42 578.251L298.293 638.136L237.15 600.376C232.127 598.451 227.981 598.374 222.177 602.502L166.591 645.524L218.412 541.816" fill="#BF7461"/><path d="M198.911 580.806L192.935 625.124L166.581 645.524L198.911 580.806Z" fill="#891229"/><path d="M560.534 719.022C539.623 776.285 484.418 760.975 452.422 750.604C413.335 737.944 380.195 765.055 380.195 765.055C335.437 798.077 267.432 758.363 267.432 758.363L292.556 565.687L479.005 635.028L512.497 543.942L596.533 624.771L560.515 719.022" fill="#891229"/><path d="M937.578 351.027C935.147 353.144 934.89 356.833 937.015 359.264L965.351 395.26L974.158 387.586L945.822 351.59C943.706 349.159 940.008 348.901 937.578 351.027Z" fill="#F0A86B"/><path d="M1000.46 400.96L1002.7 366.212L957.707 365.535L966.152 399.225L1000.46 400.96Z" fill="#E3944F"/><path d="M944.744 359.292H941.427C938.997 361.408 943.467 367.728 945.583 370.159L965.341 395.269L974.148 387.595L953.141 362.704C951.025 360.273 943.352 355.278 940.922 357.404" fill="#E3944F"/><path d="M629.3 433.429L725.575 512.732L700.403 529.548L597.676 480.511L629.3 433.429Z" fill="#A86554"/><path d="M816.637 969.219L821.526 986.502L716.102 1019.99L709.525 1002.84C709.525 1002.84 738.843 978.99 739.672 978.99C740.502 978.99 816.637 969.219 816.637 969.219Z" fill="#E73245"/><path d="M834.154 526.164L849.928 584.438L957.802 557.203C973.376 552.494 982.459 536.326 978.389 520.568L974.558 505.735L834.145 526.155L834.154 526.164Z" fill="#F0A86B"/><path d="M938.55 511.035L969.116 425.002L1005.16 433.906L978.361 535.878L938.55 511.035Z" fill="#F0A86B"/><path d="M1131.71 657.878L1071.88 736.056L967.247 706.981C967.247 706.981 1105.2 529.776 1110.03 523.475C1130.04 497.365 1171.14 496.621 1184.79 529.357L1254.22 691.681L1161.82 718.049L1131.71 657.887V657.878Z" fill="#232144"/><path d="M956.792 499.833L841.446 501.549L840.169 415.716L955.515 414L1071.22 412.284L1072.49 498.117L956.792 499.833Z" fill="#ABB8B9"/><path d="M933.034 480.043L977.987 479.376L977.32 434.414L932.367 435.081L933.034 480.043Z" fill="#232144"/><path d="M880.087 491.952C896.868 491.952 910.472 478.345 910.472 461.561C910.472 444.776 896.868 431.17 880.087 431.17C863.305 431.17 849.701 444.776 849.701 461.561C849.701 478.345 863.305 491.952 880.087 491.952Z" fill="#3867C3"/><path d="M1070.57 368.978L1057.5 369.172L1057.73 384.366L1070.8 384.172L1070.57 368.978Z" fill="#4B7CFE"/><path d="M1070.79 384.167L839.742 387.596L840.159 415.724L1071.21 412.296L1070.79 384.167Z" fill="#4B7CFE"/><path d="M1056.19 354.993L962.149 356.394L853.494 358.005C845.669 358.12 839.416 364.564 839.531 372.39L962.359 370.57L1070.58 368.959C1070.46 361.132 1064.02 354.878 1056.19 354.993Z" fill="#232144"/><path d="M852.816 391.046L839.748 391.236L839.529 372.39L852.597 372.199L852.816 391.046Z" fill="#4B7CFE"/><path d="M893.21 711.93C893.21 711.93 818.152 612.131 821.421 554.343C822.555 534.324 878.008 509.606 878.008 509.606L884.327 509.501C909.556 520.826 922.985 536.012 944.84 561.817L1031.37 662.874L893.219 711.939L893.21 711.93Z" fill="#BAC09A"/><path d="M1307.06 805.277L1214 832.582L1217.77 845.425L1310.82 818.12L1307.06 805.277Z" fill="#232144"/><path d="M737.376 955.149L716.245 889.602L660.383 899.249L709.526 1002.84L816.637 969.219L737.376 955.149Z" fill="#BF7461"/><path d="M747.05 991.068L784.86 963.575L816.637 969.219L747.05 991.068Z" fill="#891229"/><path d="M492.853 447.146C492.853 447.146 420.806 516.526 504.309 601.568C557.97 656.21 560.228 707.859 555.453 745.466C553.661 759.612 540.146 802.224 532.359 844.378C532.359 844.378 524.124 894.987 531.492 926.303L721.057 891.298L611.03 494.048" fill="#E73245"/><path d="M1401.34 814.817L1374.59 851.985L1286.33 800.508L1319.49 754.493L1401.34 814.817Z" fill="#F0A86B"/><path d="M1374.59 851.986L1372.83 854.435L1347.39 836.123C1347.39 836.123 1363.5 840.27 1373.8 825.951C1383.47 812.529 1376.11 795.618 1376.11 795.618L1399.92 771.929C1413.7 759.689 1423.87 754.579 1437.34 764.827" fill="#BAC09A"/><path d="M1437.32 764.81L1372.82 854.423L1382.5 861.39L1447 771.778L1437.32 764.81Z" fill="#232144"/><path d="M1195.8 622.273L1366.22 764.33L1310.35 841.946L1169.04 729.288L1073.74 757.314C1045.9 765.865 980.754 783.653 934.7 796.933L921.651 772.119L888.464 708.506L1159.77 615.609C1172.11 611.377 1185.77 613.903 1195.8 622.254" fill="#3867C3"/><path d="M1233.66 901.566C1232.91 899.659 1158.19 710.109 1142.89 676.477C1130.03 648.222 1108.15 655.667 1107.22 656.001L1106.78 656.144L890.913 716.477L887.311 703.589L1102.99 643.303C1104.72 642.731 1112.54 640.434 1122.4 642.312C1132.21 644.19 1145.84 650.672 1155.07 670.939C1170.51 704.885 1243.03 888.849 1246.12 896.666L1233.67 901.575L1233.66 901.566Z" fill="#232144"/><path d="M969.392 876.675L805.98 560.196L791.159 564.333L787.557 551.444L812.881 544.371L976.207 860.698L1196.42 795.503L1200.22 808.344L969.392 876.675Z" fill="#232144"/><path d="M786.129 544.735L712.866 565.208L719.904 590.402L793.167 569.929L786.129 544.735Z" fill="#4B7CFE"/><path d="M888.644 510.835L884.622 477.804L832.096 470.721L838.977 527.25C840.693 541.311 852.226 541.101 866.284 539.395C880.342 537.679 890.35 524.896 888.635 510.835" fill="#F0A86B"/><path d="M916.256 444.506C915.855 441.255 909.622 432.638 906.362 433.038C903.112 433.438 902.722 442.599 903.122 445.85C903.522 449.11 906.477 451.427 909.736 451.027C912.987 450.626 916.656 447.757 916.265 444.506" fill="#F0A86B"/><path d="M831.753 475.183L825.586 424.526C823.823 410.065 834.117 396.919 848.575 395.155L876.607 391.743C891.065 389.979 904.209 400.274 905.972 414.736L912.139 465.393C913.902 479.854 903.608 493.009 889.15 494.763L861.118 498.176C846.66 499.94 833.516 489.644 831.753 475.183Z" fill="#F0A86B"/><path d="M863.521 446.64L859.175 410.921L807.716 427.813L834.937 494.276L844.887 487.545C858.279 478.489 865.475 462.693 863.521 446.64Z" fill="#76341E"/><path d="M808.802 430.56C800.863 413.296 812.005 393.543 831.191 390.884L872.651 384.458C886.519 382.218 895.297 386.089 898.023 399.53L879.523 416.527L808.802 430.56Z" fill="#76341E"/><path d="M897.384 428.481C892.933 429.025 889.14 427.928 888.911 426.05C888.682 424.163 892.104 422.199 896.555 421.656C901.006 421.112 904.8 422.199 905.028 424.086C905.257 425.974 901.836 427.938 897.384 428.481Z" fill="#76341E"/><path d="M889.645 406.232C890.37 412.161 886.147 417.557 880.219 418.282C874.291 419.006 868.896 414.783 868.172 408.853C867.447 402.924 871.67 397.528 877.598 396.813C883.526 396.089 888.921 400.312 889.645 406.241" fill="#76341E"/><path d="M905.905 394.802C906.944 403.344 900.873 411.103 892.333 412.142C883.726 413.191 876.101 407.7 874.996 398.567C873.957 390.026 880.028 382.266 888.568 381.227C897.108 380.188 904.866 386.26 905.905 394.802Z" fill="#76341E"/><path d="M874.223 401.494C875.015 407.948 870.411 413.82 863.958 414.612C857.506 415.393 851.635 410.798 850.843 404.345C850.062 397.891 854.656 392.018 861.109 391.227C867.561 390.446 873.432 395.04 874.223 401.494Z" fill="#76341E"/><path d="M896.784 452.542L912.072 450.674L913.187 458.662L897.899 460.531L896.784 452.542Z" fill="#76341E"/><path d="M883.793 421.75C885.089 432.408 873.747 441.684 861.528 434.544C851.654 424.401 857.935 411.159 868.59 409.853C876.072 408.938 882.878 414.267 883.793 421.75Z" fill="#76341E"/><path d="M869.773 442.428C869.087 436.813 863.988 432.809 858.365 433.496C852.751 434.182 848.748 439.292 849.434 444.906C850.12 450.521 855.229 454.525 860.843 453.839C866.457 453.152 870.46 448.043 869.773 442.428Z" fill="#F0A86B"/><path d="M897.175 452.495L875.129 455.383L872.117 432.724L866.008 433.238L873.747 495.812C874.5 501.932 880.066 506.279 886.185 505.535L907.182 502.98C913.311 502.237 917.667 496.66 916.923 490.53L914.15 469.387L899.758 471.007L897.175 452.485V452.495Z" fill="#76341E"/><path d="M901.054 556.316L861.871 602.236L945.25 675.915C957.936 686.115 976.398 684.485 987.101 672.226L997.176 660.691L901.054 556.316Z" fill="#F0A86B"/><path d="M972.471 633.95L1060.74 610.604L1073.74 645.39L974.453 680.833L972.471 633.95Z" fill="#F0A86B"/><path d="M874.138 625.4L825.691 576.574C814.32 562.97 815.073 542.703 827.902 530.015C841.427 516.631 863.244 516.755 876.625 530.282L924.605 578.575L874.138 625.4Z" fill="#BAC09A"/><path d="M982.307 371.293L982.726 365.145L983.231 357.68L983.651 351.531C983.87 348.309 986.653 345.878 989.874 346.098C993.096 346.317 995.526 349.11 995.307 352.323L994.888 358.471L994.383 365.936L993.963 372.084C993.744 375.307 990.961 377.738 987.739 377.518C984.518 377.299 982.087 374.515 982.307 371.293Z" fill="#F0A86B"/><path d="M970.945 370.389L971.365 364.24L971.87 356.776L972.289 350.627C972.508 347.405 975.292 344.974 978.513 345.193C981.735 345.413 984.165 348.206 983.946 351.418L983.527 357.567L983.021 365.031L982.602 371.18C982.383 374.402 979.6 376.833 976.378 376.614C973.157 376.395 970.726 373.611 970.945 370.389Z" fill="#F0A86B"/><path d="M959.499 369.368L960.004 363.219L960.624 355.765L961.129 349.616C961.396 346.403 964.217 344.011 967.429 344.268C970.641 344.535 973.033 347.357 972.766 350.579L972.261 356.728L971.642 364.182L971.136 370.331C970.87 373.544 968.048 375.936 964.836 375.669C961.624 375.403 959.232 372.581 959.499 369.368Z" fill="#F0A86B"/><path d="M992.991 371.818L993.468 365.669L994.04 358.205L994.516 352.056C994.764 348.844 997.576 346.432 1000.79 346.68C1004.01 346.927 1006.41 349.74 1006.16 352.952L1005.69 359.101L1005.11 366.565L1004.64 372.714C1004.39 375.927 1001.58 378.339 998.367 378.091C995.155 377.843 992.743 375.031 992.991 371.818Z" fill="#F0A86B"/><path d="M1025.85 486.585C1042.63 486.585 1056.23 472.978 1056.23 456.194C1056.23 439.409 1042.63 425.803 1025.85 425.803C1009.06 425.803 995.461 439.409 995.461 456.194C995.461 472.978 1009.06 486.585 1025.85 486.585Z" fill="#232144"/><path d="M609.457 337.815L593.293 331.457C584.505 327.996 580.178 318.073 583.638 309.274L597.429 274.184L645.428 293.059L631.637 328.149C628.177 336.938 618.245 341.266 609.457 337.805" fill="#BF7461"/><path d="M698.469 234.193C702.873 220.37 694.676 206.977 680.799 202.563L664.596 196.129C650.718 191.705 632.504 198.121 628.11 211.944L612.679 250.008C609.296 258.607 596.543 279.121 619.494 288.149L648.316 299.502C661.736 304.783 672.554 302.391 677.51 290.57C679.226 286.49 684.478 274.269 684.449 274.317L687.127 274.555C695.295 274.774 691.502 263.726 691.502 263.726C690.873 260.618 690.301 258.282 690.301 258.282L701.119 230.771" fill="#BF7461"/><path d="M598.114 266.176L609.704 201.944C612.192 190.371 626.565 174.375 645.865 181.973L696.552 201.906L677.747 228.302C673.439 239.274 660.715 244.584 648.477 238.826L641.958 260.523C641.958 260.523 622.257 279.064 605.911 272.163" fill="#C6C6C6"/><path d="M683.42 235.319C674.108 231.658 669.504 221.172 673.155 211.906C676.795 202.64 687.299 198.093 696.62 201.754C705.932 205.414 710.536 215.9 706.885 225.166C703.244 234.432 692.741 238.98 683.42 235.319Z" fill="#C6C6C6"/><path d="M693.036 249.655L672.268 241.485L683.695 240.722C687.413 240.475 690.72 242.753 691.949 246.423L693.036 249.655Z" fill="#C6C6C6"/><path d="M654.645 253.688C652.243 259.494 645.59 262.258 639.776 259.856C633.972 257.454 631.208 250.8 633.61 244.985C636.011 239.179 642.664 236.414 648.478 238.817C654.283 241.219 657.047 247.873 654.645 253.688Z" fill="#BF7461"/><path d="M655.084 234.727L661.165 237.119L652.806 258.368L646.734 255.985" fill="#C6C6C6"/><path d="M631.913 327.452L607.685 310.236L587.345 294.555C515.881 302.476 483.398 452.399 483.398 452.399L610.192 511.121C620.428 515.868 626.804 493.399 628.053 481.54C632.742 437.089 657.094 443.419 662.461 417.108C669.199 384.039 631.913 327.462 631.913 327.462V327.452Z" fill="#232144"/><path d="M738.491 527.308L721.974 521.522L645.343 458.891L618.122 388.435L560.239 397.186L599.708 475.45C606.113 489.778 618.999 495.488 626.834 500.054L697.698 542.494L710.937 544.83" fill="#BF7461"/><path d="M645.333 458.9L719.438 512.236L700.842 544.381L615.71 493.4L645.333 458.9Z" fill="#BF7461"/><path d="M695.667 541.274L716.378 553.753L733.935 515.64L709.745 507.223L695.667 541.274Z" fill="#BF7461"/><path d="M737.156 576.049C740.159 574.286 741.131 570.406 739.32 567.441L721.649 538.537L710.917 544.829L728.712 573.933C730.475 576.821 734.24 577.765 737.156 576.049Z" fill="#BF7461"/><path d="M748.956 578.994C751.958 577.231 752.93 573.351 751.119 570.386L726.09 532.388L715.358 538.679L740.511 576.878C742.274 579.766 746.039 580.71 748.956 578.994Z" fill="#BF7461"/><path d="M764.587 579.881C767.275 578.899 768.724 575.973 767.895 573.237L760.527 549.128L757.858 546.411L749.395 549.643L757.563 576.392C758.468 579.357 761.671 580.949 764.578 579.881" fill="#BF7461"/><path d="M758.763 581.454C761.499 580.148 762.652 576.878 761.346 574.142L749.194 548.708L737.976 554.075L749.489 578.174C751.148 581.635 755.303 583.103 758.763 581.454Z" fill="#BF7461"/><path d="M733.934 515.64L724.66 530.149L751.624 557.842L760.535 549.167L733.934 515.64Z" fill="#BF7461"/><path d="M729.175 525.376L719.798 533.549L745.19 562.692L754.567 554.519L729.175 525.376Z" fill="#BF7461"/><path d="M583.58 310.066C569.578 304.565 562.697 288.769 568.187 274.785C573.686 260.8 589.48 253.927 603.481 259.437C617.482 264.937 624.364 280.733 618.874 294.718C613.374 308.703 597.581 315.576 583.58 310.066Z" fill="#C6C6C6"/><path d="M593.921 339.207C584.133 335.356 579.32 324.307 583.161 314.536C587.002 304.755 598.058 299.95 607.847 303.802C617.635 307.653 622.448 318.702 618.607 328.473C614.766 338.254 603.71 343.058 593.921 339.207Z" fill="#C6C6C6"/><path d="M1045.35 613.708L1040.86 615.175L1053.3 653.212L1057.78 651.745L1045.35 613.708Z" fill="#E73245"/><path d="M1181.18 522.408C1170.82 505.802 1151.38 500.073 1132.68 506.936C1140.43 513.323 1156.86 520.654 1181.18 522.408Z" fill="#F0A86B"/><path d="M1121.26 637.46C1121.81 634.018 1119.43 630.806 1115.99 630.319L1082.45 625.601L1080.49 637.889L1114.26 642.636C1117.61 643.103 1120.73 640.806 1121.26 637.46Z" fill="#F0A86B"/><path d="M1131.03 630.224C1131.57 626.782 1129.2 623.57 1125.76 623.084L1080.52 618.27L1078.55 630.558L1124.03 635.4C1127.38 635.867 1130.5 633.57 1131.03 630.224Z" fill="#F0A86B"/><path d="M1141.66 618.718C1142.6 616.01 1141.28 613.036 1138.63 611.94L1115.33 602.312L1111.54 602.645L1108.66 611.234L1134.5 621.921C1137.36 623.103 1140.63 621.644 1141.66 618.718Z" fill="#F0A86B"/><path d="M1139.16 624.209C1139.89 621.273 1138.09 618.298 1135.16 617.564L1107.8 610.796L1104.81 622.874L1130.74 629.29C1134.46 630.214 1138.24 627.936 1139.16 624.209Z" fill="#F0A86B"/><path d="M1072.58 601.568L1077.89 617.955L1116.4 614.724L1115.36 602.331L1072.58 601.568Z" fill="#F0A86B"/><path d="M1115.77 610.364L1077.14 611.457L1077.49 623.893L1116.13 622.8L1115.77 610.364Z" fill="#F0A86B"/><path d="M1068.06 647.422L1090.85 639.347L1072.58 601.568L1050.71 614.905L1068.06 647.422Z" fill="#F0A86B"/><path d="M1051.42 611.262L1046.94 612.729L1059.38 650.767L1063.86 649.3L1051.42 611.262Z" fill="#E73245"/><path d="M1241.15 947.141C1265.1 947.141 1284.52 927.722 1284.52 903.767C1284.52 879.812 1265.1 860.393 1241.15 860.393C1217.2 860.393 1197.79 879.812 1197.79 903.767C1197.79 927.722 1217.2 947.141 1241.15 947.141Z" fill="#232144"/><path d="M1241.18 874.663C1254.16 874.663 1265.67 883.414 1269.18 895.94C1273.49 911.393 1264.44 927.475 1248.99 931.793C1246.42 932.508 1243.78 932.88 1241.14 932.88C1228.15 932.88 1216.64 924.129 1213.14 911.603C1208.82 896.15 1217.88 880.068 1233.33 875.75C1235.9 875.035 1238.54 874.663 1241.18 874.663ZM1241.17 860.383C1237.31 860.383 1233.39 860.907 1229.48 861.994C1206.41 868.438 1192.94 892.365 1199.38 915.435C1204.74 934.605 1222.15 947.15 1241.12 947.15C1244.98 947.15 1248.9 946.626 1252.81 945.539C1275.88 939.095 1289.35 915.168 1282.91 892.098C1277.55 872.928 1260.14 860.383 1241.17 860.383Z" fill="#4B7CFE"/><path d="M681.028 282.229C681.619 280.942 680.904 279.588 679.655 279.102L669.848 274.183C670.038 273.878 669.485 283.639 678.054 288.187C678.197 288.263 678.273 288.292 678.426 288.358L681.037 282.229" fill="#E73245"/><path d="M975.77 753.015C1001.28 753.015 1026.64 761.489 1047.21 776.875C1068.41 792.738 1083.4 814.654 1090.54 840.24C1099.11 870.926 1095.22 903.109 1079.59 930.868C1063.96 958.628 1038.46 978.637 1007.78 987.207C997.244 990.152 986.416 991.64 975.608 991.64C950.103 991.64 924.731 983.165 904.162 967.779C882.955 951.916 867.972 930.001 860.824 904.415C852.256 873.729 856.144 841.546 871.775 813.786C887.406 786.027 912.912 766.018 943.593 757.448C954.125 754.502 964.952 753.015 975.77 753.015ZM975.76 724.674C962.617 724.674 949.245 726.447 935.968 730.155C857.46 752.09 811.596 833.529 833.527 912.06C851.75 977.302 911.034 1020 975.598 1020C988.742 1020 1002.11 1018.23 1015.39 1014.52C1093.9 992.583 1139.76 911.145 1117.83 832.614C1099.61 767.371 1040.32 724.664 975.76 724.674Z" fill="#4B7CFE"/><path d="M975.636 925.378C1004.92 925.378 1028.67 901.631 1028.67 872.337C1028.67 843.044 1004.92 819.297 975.636 819.297C946.347 819.297 922.604 843.044 922.604 872.337C922.604 901.631 946.347 925.378 975.636 925.378Z" fill="#232144"/><path d="M675.728 251.467C675.728 251.467 676.939 257.158 680.646 259.113L685.155 252.64L678.492 249.847L675.719 251.467H675.728Z" fill="white"/><path d="M680.646 259.112C680.646 259.112 679.617 256.709 681.266 254.364C681.266 254.364 682.524 252.114 685.345 252.467L686.432 253.592C686.432 253.592 687.29 257.567 683.696 260.465C683.696 260.465 681.723 259.97 680.656 259.112H680.646Z" fill="#071111"/><path d="M687.288 254.022L687.698 252.983C687.698 252.983 682.142 248.789 674.917 248.855L675.727 251.467C675.727 251.467 681.065 251.343 687.288 254.022Z" fill="#071111"/><path d="M902.122 432.523C902.122 432.523 904.648 436.165 902.989 439.645C902.989 439.645 894.259 440.207 893.963 437.767C893.649 435.193 898.319 434.001 902.122 432.523Z" fill="white"/><path d="M904.171 435.86C904.41 437.843 903.866 439.539 902.951 439.644C902.036 439.759 901.102 438.243 900.854 436.26C900.616 434.277 901.159 432.58 902.074 432.466C902.989 432.352 903.923 433.867 904.171 435.85" fill="#071111"/><path d="M911.968 463.961C905.487 466.278 902.341 462.083 902.208 461.893L900.502 463.113C900.502 463.113 903.161 466.764 908.289 466.764C909.461 466.764 910.777 466.554 912.216 466.097C912.149 465.467 912.044 464.543 911.977 463.971L911.968 463.961Z" fill="#071111"/></svg>