<svg viewBox="0 0 1600 1200" fill="none" xmlns="http://www.w3.org/2000/svg"><path fill-rule="evenodd" clip-rule="evenodd" d="M1084.96 1006.59L1114.56 625.727L1128.94 626.846L1099.34 1007.71L1084.96 1006.59Z" fill="#B0C2E4"/><path fill-rule="evenodd" clip-rule="evenodd" d="M1336.35 1007.71L1306.66 625.723L1292.28 626.842L1321.88 1007.71H1336.35Z" fill="#B0C2E4"/><path fill-rule="evenodd" clip-rule="evenodd" d="M1068.26 631.432H1348.87V185.25H1068.26V631.432Z" fill="#F5F5F5"/><path fill-rule="evenodd" clip-rule="evenodd" d="M1068.26 199.959H1348.87V185.25H1068.26V199.959Z" fill="#B0C2E4"/><path fill-rule="evenodd" clip-rule="evenodd" d="M797.271 345.357H902.966V243.844H797.271V345.357Z" fill="#FF6100"/><path fill-rule="evenodd" clip-rule="evenodd" d="M965.412 734.089H738.683C727.894 734.089 719.147 725.338 719.147 714.545V714.537C719.147 703.743 727.894 694.992 738.683 694.992H965.412C976.202 694.992 984.947 703.743 984.947 714.537V714.545C984.947 725.338 976.202 734.089 965.412 734.089Z" fill="#B0C2E4"/><path fill-rule="evenodd" clip-rule="evenodd" d="M835.003 1007.73H866.4V716.914H835.003V1007.73Z" fill="#B0C2E4"/><path fill-rule="evenodd" clip-rule="evenodd" d="M966.235 984.346L853.277 896.398L864.137 882.426L977.095 970.374L966.235 984.346Z" fill="#B0C2E4"/><path fill-rule="evenodd" clip-rule="evenodd" d="M743.25 984.346L856.207 896.398L845.347 882.426L732.39 970.374L743.25 984.346Z" fill="#B0C2E4"/><path fill-rule="evenodd" clip-rule="evenodd" d="M826.32 200.799C826.32 212.287 817.012 221.599 805.534 221.599C794.055 221.599 784.757 212.287 784.757 200.799C784.757 189.313 794.055 180 805.534 180C817.012 180 826.32 189.313 826.32 200.799Z" fill="#FF6100"/><path fill-rule="evenodd" clip-rule="evenodd" d="M915.45 200.799C915.45 212.287 906.142 221.599 894.663 221.599C883.185 221.599 873.887 212.287 873.887 200.799C873.887 189.313 883.185 180 894.663 180C906.142 180 915.45 189.313 915.45 200.799Z" fill="#FF6100"/><path fill-rule="evenodd" clip-rule="evenodd" d="M1039.59 491.466L986.655 379.438L868.439 414.933L928.397 570.19L1015.91 544.071C1038.17 537.426 1049.37 512.561 1039.59 491.466Z" fill="#232144"/><path fill-rule="evenodd" clip-rule="evenodd" d="M752.47 555.76L749.188 348.734H942.727L938.947 555.76H752.47Z" fill="#232144"/><path fill-rule="evenodd" clip-rule="evenodd" d="M718.497 707.258C718.497 598.931 756.54 554.219 756.54 554.219H956.361C956.361 554.219 971.957 571.225 983.399 611.909C996.979 660.193 960.847 708.14 910.73 708.24C829.624 708.401 719.279 708.276 718.497 707.258Z" fill="#FBB03B"/><path fill-rule="evenodd" clip-rule="evenodd" d="M989.333 398.933C991.274 373.157 971.97 350.687 946.217 348.744C920.464 346.801 898.012 366.122 896.071 391.897C894.13 417.673 925.575 457.405 925.575 457.405C925.575 457.405 987.392 424.709 989.333 398.933Z" fill="#232144"/><path fill-rule="evenodd" clip-rule="evenodd" d="M653.663 491.599L706.6 379.57L805.321 415.066L745.363 570.323L677.345 544.204C655.081 537.559 643.886 512.694 653.663 491.599Z" fill="#232144"/><path fill-rule="evenodd" clip-rule="evenodd" d="M703.922 399.058C701.98 373.282 721.285 350.812 747.038 348.869C772.791 346.926 795.243 366.247 797.184 392.022C799.125 417.798 767.68 457.53 767.68 457.53C767.68 457.53 705.863 424.834 703.922 399.058Z" fill="#232144"/><path fill-rule="evenodd" clip-rule="evenodd" d="M842.52 996.277L817.771 900.345L892.46 896.617L908.977 992.959L842.52 996.277Z" fill="#FFD4C2"/><path fill-rule="evenodd" clip-rule="evenodd" d="M905.92 931.615L845.462 596.917C840.44 568.987 813.929 550.28 785.957 554.927C757.314 559.686 738.162 587.062 743.491 615.629L817.437 938.555L905.92 931.615Z" fill="#F7931E"/><path fill-rule="evenodd" clip-rule="evenodd" d="M912.322 1011.41L912.062 992.191L819.716 993.445L819.976 1012.66L912.322 1011.41Z" fill="#232144"/><path fill-rule="evenodd" clip-rule="evenodd" d="M912.061 992.213C911.806 973.303 890.925 958.253 865.424 958.6C839.925 958.946 819.46 974.555 819.715 993.466L912.061 992.213Z" fill="#F7931E"/><path fill-rule="evenodd" clip-rule="evenodd" d="M600.404 861.386L696.218 631.434L784.757 673.868L653.562 889.986L600.404 861.386Z" fill="#FFD4C2"/><path fill-rule="evenodd" clip-rule="evenodd" d="M756.418 840.235L831.473 582.167C845.635 557.582 837.431 526.17 813.061 511.666C788.104 496.812 755.827 505.369 741.49 530.638L657.823 716.911L756.418 840.235Z" fill="#FBB03B"/><path fill-rule="evenodd" clip-rule="evenodd" d="M637.541 924.225L638.018 923.342L683.375 840.877L623.834 805.156L598.04 860.745L523.164 845.354C517.767 844.127 511.92 844.872 508.922 850.06L505.623 855.786C501.425 863.075 503.927 872.388 511.21 876.588L608.507 932.693C618.527 938.471 631.33 935.027 637.106 924.999L637.384 924.515L637.55 924.229L637.541 924.225Z" fill="#232144"/><path fill-rule="evenodd" clip-rule="evenodd" d="M870.672 689.372L738.018 592.326L805.321 507.883L938.802 575.226L870.672 689.372Z" fill="#FBB03B"/><path fill-rule="evenodd" clip-rule="evenodd" d="M912.03 279.629C912.03 287.426 905.715 293.745 897.926 293.745C890.135 293.745 883.82 287.426 883.82 279.629C883.82 271.831 890.135 265.512 897.926 265.512C905.715 265.512 912.03 271.831 912.03 279.629Z" fill="#FFD4C2"/><path fill-rule="evenodd" clip-rule="evenodd" d="M816.322 279.586C816.322 287.383 810.007 293.702 802.218 293.702C794.427 293.702 788.112 287.383 788.112 279.586C788.112 271.788 794.427 265.469 802.218 265.469C810.007 265.469 816.322 271.788 816.322 279.586Z" fill="#FFD4C2"/><path fill-rule="evenodd" clip-rule="evenodd" d="M815.259 347.001V301.754L884.949 301.861V347.001C884.949 366.261 869.349 381.876 850.103 381.876C830.86 381.876 815.259 366.261 815.259 347.001Z" fill="#FFC6AD"/><path fill-rule="evenodd" clip-rule="evenodd" d="M803.916 300.728V235.61C803.916 215.035 820.588 198.355 841.153 198.355H859.054C879.62 198.355 896.292 215.035 896.292 235.61V300.728C896.292 321.303 879.62 337.982 859.054 337.982H841.153C820.588 337.982 803.916 321.303 803.916 300.728Z" fill="#FFD4C2"/><path fill-rule="evenodd" clip-rule="evenodd" d="M838.759 294.629C838.759 294.628 838.759 294.628 838.021 294.07C837.283 293.512 837.283 293.511 837.283 293.511L837.284 293.51L837.285 293.508L837.289 293.503L837.3 293.489C837.308 293.478 837.32 293.463 837.335 293.445C837.364 293.409 837.405 293.359 837.457 293.299C837.561 293.178 837.711 293.014 837.901 292.828C838.278 292.462 838.834 291.995 839.527 291.633C840.223 291.271 841.091 290.997 842.067 291.076C843.057 291.156 844.065 291.591 845.036 292.489L845.036 292.489C846.102 293.477 847.327 294.204 848.66 294.474C849.762 294.697 850.958 294.679 852.055 294.115C852.486 293.891 852.885 293.566 853.257 293.167C853.706 292.678 854.747 291.711 856.265 291.392C857.859 291.056 859.768 291.476 861.801 293.397L860.531 294.743C858.855 293.161 857.542 293.015 856.645 293.204C855.675 293.408 854.957 294.052 854.619 294.421L854.613 294.427L854.613 294.427C854.135 294.94 853.571 295.413 852.906 295.759L852.903 295.76C851.313 296.58 849.652 296.564 848.294 296.289L848.293 296.289C846.542 295.934 845.022 294.999 843.779 293.848M838.758 294.629L838.759 294.629L838.757 294.631C838.757 294.631 838.757 294.63 838.758 294.63L838.758 294.629Z" fill="#171111"/><path fill-rule="evenodd" clip-rule="evenodd" d="M873.632 244.813L874.201 244.814C880.127 244.843 885.695 247.804 889.243 252.814L858.513 252.671C862.116 247.693 867.706 244.784 873.632 244.813Z" fill="#FF6100"/><path fill-rule="evenodd" clip-rule="evenodd" d="M860.548 276.807C860.548 276.807 863.918 269.578 870.39 267.329C876.861 265.079 883.983 268.658 883.983 268.658C883.983 268.658 881.394 274.553 874.922 276.802C868.452 279.053 860.548 276.807 860.548 276.807Z" fill="white"/><path fill-rule="evenodd" clip-rule="evenodd" d="M866.664 272.082C866.664 275.178 869.172 277.688 872.265 277.688C875.359 277.688 877.866 275.178 877.866 272.082C877.866 268.986 875.359 266.477 872.265 266.477C869.172 266.477 866.664 268.986 866.664 272.082Z" fill="black"/><path fill-rule="evenodd" clip-rule="evenodd" d="M860.547 276.798C862.833 267.079 875.975 261.683 884.949 267.111C884.398 267.991 884.187 268.4 883.636 269.28C881.652 268.08 871.348 263.913 861.986 275.143C861.419 275.824 861.346 276.111 860.547 276.798Z" fill="black"/><path fill-rule="evenodd" clip-rule="evenodd" d="M825.554 244.813L824.986 244.814C819.06 244.843 813.492 247.804 809.943 252.814L840.674 252.671C837.07 247.693 831.481 244.784 825.554 244.813Z" fill="#FF6100"/><path fill-rule="evenodd" clip-rule="evenodd" d="M838.032 276.693C838.032 276.693 834.662 269.465 828.19 267.215C821.719 264.966 814.597 268.545 814.597 268.545C814.597 268.545 817.185 274.439 823.657 276.689C830.128 278.94 838.032 276.693 838.032 276.693Z" fill="white"/><path fill-rule="evenodd" clip-rule="evenodd" d="M831.915 272.082C831.915 275.178 829.407 277.688 826.314 277.688C823.22 277.688 820.713 275.178 820.713 272.082C820.713 268.986 823.22 266.477 826.314 266.477C829.407 266.477 831.915 268.986 831.915 272.082Z" fill="black"/><path fill-rule="evenodd" clip-rule="evenodd" d="M838.032 276.692C835.129 266.478 822.621 262.008 813.646 267.436C814.197 268.316 814.392 268.294 814.943 269.175C816.927 267.974 827.231 263.807 836.593 275.037C837.16 275.718 837.233 276.005 838.032 276.692Z" fill="black"/><path fill-rule="evenodd" clip-rule="evenodd" d="M850.103 307.696C850.103 303.746 844.053 304.273 844.053 304.273H830.374C830.507 303.502 849.695 333.656 869.833 304.273H856.153C856.153 304.273 850.103 303.746 850.103 307.696Z" fill="#FF6100"/><path fill-rule="evenodd" clip-rule="evenodd" d="M804.458 284.918V258.592C804.458 238.012 820.931 221.33 841.251 221.33H847.383V209.809H852.825V221.33H858.957C879.278 221.33 895.75 238.012 895.75 258.592V284.918H902.966V235.316C902.966 213.015 884.904 194.938 862.622 194.938H837.586C815.305 194.938 797.242 213.015 797.242 235.316V284.918H804.458Z" fill="#FF6100"/><path fill-rule="evenodd" clip-rule="evenodd" d="M731.476 493.71C735.851 511.199 725.233 528.925 707.759 533.304C690.286 537.682 672.575 527.055 668.2 509.566C663.825 492.078 674.444 474.352 691.917 469.973C709.39 465.595 727.101 476.222 731.476 493.71Z" fill="#FFD4C2"/><path fill-rule="evenodd" clip-rule="evenodd" d="M691.917 469.972L853.705 451.984L859.532 486.903L707.759 533.301L691.917 469.972Z" fill="#FFD4C2"/><path fill-rule="evenodd" clip-rule="evenodd" d="M1030.98 497.601C1035.54 515.042 1025.1 532.879 1007.68 537.439C990.251 541.998 972.431 531.555 967.874 514.114C963.318 496.673 973.751 478.837 991.178 474.276C1008.6 469.717 1026.43 480.159 1030.98 497.601Z" fill="#FFD4C2"/><path fill-rule="evenodd" clip-rule="evenodd" d="M1002.47 473.348L866.664 445.578L868.707 492.461L989.36 536.898L1002.47 473.348Z" fill="#FFD4C2"/><path fill-rule="evenodd" clip-rule="evenodd" d="M959.014 536.788H732.9C729.999 536.788 727.647 534.436 727.647 531.533V392.654C727.647 389.752 729.999 387.398 732.9 387.398H959.014C961.915 387.398 964.267 389.752 964.267 392.654V531.533C964.267 534.436 961.915 536.788 959.014 536.788Z" fill="#E5F0FF"/><path fill-rule="evenodd" clip-rule="evenodd" d="M962.383 544.887H729.531C728.491 544.887 727.647 544.042 727.647 543.002V538.432C727.647 537.391 728.491 536.547 729.531 536.547H962.383C963.423 536.547 964.267 537.391 964.267 538.432V543.002C964.267 544.042 963.423 544.887 962.383 544.887Z" fill="#B0C2E4"/><path fill-rule="evenodd" clip-rule="evenodd" d="M759.148 983.973C759.148 997.988 747.795 1009.35 733.792 1009.35C719.787 1009.35 708.435 997.988 708.435 983.973C708.435 969.957 719.787 958.594 733.792 958.594C747.795 958.594 759.148 969.957 759.148 983.973Z" fill="#B0C2E4"/><path fill-rule="evenodd" clip-rule="evenodd" d="M995.662 983.973C995.662 997.988 984.309 1009.35 970.306 1009.35C956.301 1009.35 944.948 997.988 944.948 983.973C944.948 969.957 956.301 958.594 970.306 958.594C984.309 958.594 995.662 969.957 995.662 983.973Z" fill="#B0C2E4"/><path fill-rule="evenodd" clip-rule="evenodd" d="M640.253 900.975C632.502 900.299 625.563 907.284 624.756 916.575C624.512 919.378 624.855 922.067 625.665 924.476C627.343 929.463 634.117 930.161 636.799 925.635L648.164 904.926C646.295 902.266 643.594 901.266 640.253 900.975Z" fill="#FFD4C2"/><path fill-rule="evenodd" clip-rule="evenodd" d="M219 1020H1382V1007.73H219V1020Z" fill="#E5F0FF"/><path fill-rule="evenodd" clip-rule="evenodd" d="M530.314 562.247V560.383H447.393V562.254L305.333 1007.73H311.119L451.994 565.967H524.531V1007.73H530.317V562.247H530.314Z" fill="#E5F0FF"/><path fill-rule="evenodd" clip-rule="evenodd" d="M1196.75 1007.73H1234.1V569.523H1196.75V1007.73Z" fill="#B0C2E4"/><path fill-rule="evenodd" clip-rule="evenodd" d="M356.242 575.824H831.644V544.938H356.242V575.824Z" fill="#E5F0FF"/><path fill-rule="evenodd" clip-rule="evenodd" d="M828.263 575.824H1260.16V544.938H828.263V575.824Z" fill="#B0C2E4"/><path fill-rule="evenodd" clip-rule="evenodd" d="M425.961 1008.11H268.679V993.852H425.961V1008.11Z" fill="#F7931E"/><path fill-rule="evenodd" clip-rule="evenodd" d="M353.296 993.855H268.679V989.227C268.679 983.912 271.238 979.322 274.816 978.225L353.296 954.133V993.855Z" fill="#FBB03B"/><path fill-rule="evenodd" clip-rule="evenodd" d="M319.068 951.901C319.068 961.469 311.319 969.224 301.76 969.224C292.201 969.224 284.452 961.469 284.452 951.901C284.452 942.334 292.201 934.578 301.76 934.578C311.319 934.578 319.068 942.334 319.068 951.901Z" fill="#232144"/><path fill-rule="evenodd" clip-rule="evenodd" d="M516.394 455.949C466.127 455.949 425.378 496.733 425.378 547.043H607.41C607.41 496.733 566.661 455.949 516.394 455.949Z" fill="#5773A4"/><path fill-rule="evenodd" clip-rule="evenodd" d="M428.247 494.621C403.78 494.621 383.943 518.091 383.943 547.042H472.552C472.552 537.285 470.299 528.151 466.375 520.328C458.656 504.937 444.47 494.621 428.247 494.621Z" fill="#5773A4"/><path fill-rule="evenodd" clip-rule="evenodd" d="M423.049 547.045H381.313V497.84L423.049 547.045Z" fill="#5773A4"/><path fill-rule="evenodd" clip-rule="evenodd" d="M450.591 502.436H421.304V467.906L450.591 502.436Z" fill="#5773A4"/><path fill-rule="evenodd" clip-rule="evenodd" d="M607.41 545.468V663.47C607.41 667.688 603.993 671.106 599.777 671.106C595.562 671.106 592.146 667.688 592.146 663.47V545.468C592.146 541.251 595.562 537.832 599.777 537.832C603.993 537.832 607.41 541.251 607.41 545.468Z" fill="#5773A4"/><path fill-rule="evenodd" clip-rule="evenodd" d="M1088.36 249.236V248.321C1090.36 248.321 1091.77 248.154 1091.77 245.258V230.046C1091.77 227.049 1090.69 226.974 1088.36 226.974V226.099H1100.08V226.974C1097.68 226.974 1096.68 227.049 1096.68 230.046V245.258C1096.68 248.154 1097.93 248.321 1100.08 248.321V249.236H1088.36ZM1128.63 231.67V249.408H1127.26L1109.54 231.087C1109.62 231.587 1109.62 232.004 1109.62 232.503V243.663C1109.62 247.072 1109.62 248.321 1112.74 248.321V249.236H1104.42V248.321C1107.58 248.321 1107.58 246.821 1107.58 243.663V230.939C1107.58 229.049 1107.58 226.974 1104.26 226.974V226.099H1112.1L1126.68 241.079C1126.6 240.663 1126.6 240.414 1126.6 239.83V231.67C1126.6 228.381 1126.68 226.974 1123.55 226.974V226.099H1131.87V226.974C1128.8 226.974 1128.63 228.301 1128.63 231.67ZM1157.41 241.413V247.321C1154.09 248.988 1150.97 249.822 1147.85 249.822C1139.2 249.822 1134 244.746 1134 238.291C1134 231.335 1139.95 225.594 1147.52 225.594C1149.39 225.594 1150.8 225.929 1152.29 226.418C1153.35 226.751 1154.01 227.133 1154.67 227.133C1155.26 227.133 1155.42 226.161 1155.5 225.594H1156.33L1157.08 233.585H1156.08C1155.67 232.004 1154.92 230.707 1153.92 229.797C1152.37 228.215 1150.22 227.381 1147.77 227.381C1142.57 227.381 1139.53 231.504 1139.53 237.709C1139.53 243.829 1143.23 247.989 1148.18 247.989C1149.64 247.989 1150.97 247.656 1152.6 246.906V240.828C1152.6 238.875 1152.29 238.123 1149.47 238.123V237.209H1159.92V238.123C1157.33 238.123 1157.41 238.957 1157.41 241.413Z" fill="#000066"/><path fill-rule="evenodd" clip-rule="evenodd" d="M1201.37 249.236C1201.95 249.236 1202.45 249.073 1203.03 248.738H1204.02C1206.07 248.738 1207.67 248.154 1209.17 246.657C1211.16 244.746 1212.33 241.582 1212.33 238.542C1212.33 234.919 1210.83 231.254 1208.17 228.631C1207.01 227.465 1205.74 226.905 1204.74 225.757C1204.24 225.26 1203.86 224.761 1203.53 224.095C1203.11 223.678 1202.86 223.428 1202.36 223.18L1201.7 223.093C1201.61 222.938 1201.37 222.938 1201.2 222.938C1199.87 222.713 1198.65 223.428 1197.36 223.678V223.845C1198.19 224.095 1198.34 225.096 1198.8 225.594L1199.2 226.161C1199.7 226.752 1200.45 227.216 1201.2 227.465C1202.28 227.632 1203.2 227.133 1204.24 227.382C1208 229.217 1210.67 233.504 1210.67 237.791C1210.67 243.913 1207.17 246.328 1204.99 246.328C1204.58 246.328 1203.94 246.072 1203.69 245.844C1203.94 244.992 1204.09 243.997 1204.09 242.496C1204.09 238.957 1202.7 235.125 1200.78 233.17C1199.87 232.252 1198.88 231.505 1197.86 231.505C1197.36 231.505 1196.85 231.505 1196.52 231.921C1196.11 232.252 1195.86 232.92 1195.94 233.336C1195.28 233.837 1194.2 234.084 1193.36 234.084C1192.45 234.084 1191.28 233.751 1190.26 232.92V231.671L1190.1 231.007C1190.02 230.464 1190.02 229.798 1189.6 229.296L1189.35 228.631C1188.94 227.632 1189.1 227.216 1188.35 225.757C1188.19 225.013 1187.44 224.595 1186.94 224.095C1186.69 223.928 1186.47 223.18 1186.47 223.18C1185.97 222.047 1185.64 220.807 1184.56 220.14L1184.31 220.304L1183.73 219.89C1183.48 219.64 1183.31 219.555 1182.82 219.555L1182.28 219.141C1181.8 219.056 1181.38 219.056 1180.8 219.141L1180.22 219.306C1179.88 219.388 1179.47 219.64 1179.3 219.64C1178.64 219.306 1177.81 218.977 1177.47 218.977L1176.89 219.141C1176.39 219.141 1176.06 219.306 1175.64 219.555C1175.64 219.555 1174.81 219.806 1174.73 219.806C1174.51 219.89 1174.28 220.14 1174.13 220.304C1173.55 220.807 1173.13 221.221 1172.88 221.964L1172.55 222.631V223.845C1172.3 224.095 1171.97 224.343 1171.8 224.843C1171.38 226.161 1171.3 227.632 1171.3 229.296C1171.22 229.631 1171.05 229.715 1170.88 229.798V231.087C1170.88 231.087 1171.05 231.921 1171.05 232.17C1171.05 232.503 1171.14 232.837 1171.14 233.17C1171.14 233.336 1171.14 233.336 1171.22 233.504C1171.22 233.336 1171.3 234.251 1171.3 234.336C1171.63 236.042 1172.13 237.541 1172.8 239.172C1172.13 240.246 1171.38 242.329 1170.88 244.325C1170.47 243.913 1169.88 243.828 1169.38 243.828C1168.92 243.913 1168.42 244.079 1168.09 244.578C1167.59 244.325 1166.92 244.409 1166.6 244.746C1165.91 245.342 1165.91 245.67 1165.91 246.155C1165.74 246.328 1165.41 246.74 1165.41 247.321C1165.41 248.072 1165.49 248.572 1165.91 249.236H1201.37Z" fill="white"/><path fill-rule="evenodd" clip-rule="evenodd" d="M1090.41 343.831C1089.79 343.831 1089.53 343.568 1089.53 342.998V313.08C1089.53 312.509 1089.79 312.246 1090.41 312.246H1094.22C1094.84 312.246 1095.1 312.509 1095.1 313.08V325.626H1107.15V313.08C1107.15 312.509 1107.41 312.246 1108.03 312.246H1111.84C1112.45 312.246 1112.72 312.509 1112.72 313.08V342.998C1112.72 343.568 1112.45 343.831 1111.84 343.831H1108.03C1107.41 343.831 1107.15 343.568 1107.15 342.998V330.1H1095.1V342.998C1095.1 343.568 1094.84 343.831 1094.22 343.831H1090.41Z" fill="#FF6200"/><path fill-rule="evenodd" clip-rule="evenodd" d="M1138.49 343.787C1138.49 347.559 1137.65 350.367 1135.99 352.121C1134.24 353.964 1131.52 354.885 1127.84 354.885C1125.78 354.885 1123.54 354.579 1121.66 354.053C1121.13 353.921 1120.96 353.613 1121.09 352.999L1121.61 350.455C1121.74 349.841 1121.96 349.665 1122.62 349.797C1124.42 350.148 1126 350.367 1127.4 350.367C1129.81 350.367 1131.34 349.753 1132.04 348.876C1132.83 347.954 1133.23 346.463 1133.23 344.182V341.812C1131.78 343.261 1129.63 344.269 1126.87 344.269C1124.33 344.269 1122.18 343.304 1120.91 341.856C1119.38 340.233 1118.85 337.864 1118.85 334.706V321.37C1118.85 320.887 1119.07 320.668 1119.6 320.668H1123.37C1123.89 320.668 1124.11 320.887 1124.11 321.37V332.951C1124.11 336.153 1124.29 337.425 1125.03 338.303C1125.73 339.137 1126.92 339.487 1128.28 339.487C1129.55 339.487 1131.04 339.137 1131.87 338.522C1132.7 337.952 1132.97 337.207 1133.1 336.153C1133.23 335.012 1133.23 333.609 1133.23 331.241V321.37C1133.23 320.887 1133.45 320.668 1134.02 320.668H1137.74C1138.27 320.668 1138.49 320.887 1138.49 321.37V343.787Z" fill="#FF6200"/><path fill-rule="evenodd" clip-rule="evenodd" d="M1159.22 331.898C1159.22 327.423 1157.68 324.835 1154.22 324.835C1152.82 324.835 1151.28 325.317 1150.49 326.151C1149.79 326.853 1149.62 327.95 1149.62 330.055V339.268C1150.54 339.619 1151.77 339.794 1152.86 339.794C1157.38 339.794 1159.22 336.768 1159.22 331.898ZM1149.62 322.466C1151.02 321.15 1153.21 320.229 1155.67 320.229C1161.32 320.229 1164.65 324.835 1164.65 331.81C1164.65 339.97 1160.66 344.268 1152.91 344.268C1149.84 344.268 1146.64 343.567 1145.1 342.734C1144.49 342.426 1144.36 342.12 1144.36 341.418V310.928C1144.36 310.446 1144.58 310.227 1145.1 310.227H1148.87C1149.4 310.227 1149.62 310.446 1149.62 310.928V322.466Z" fill="#FF6200"/><path fill-rule="evenodd" clip-rule="evenodd" d="M1170.22 343.831C1169.69 343.831 1169.47 343.612 1169.47 343.129V329.398C1169.47 325.714 1169.25 322.028 1169.25 321.37C1169.25 320.888 1169.47 320.668 1170 320.668H1173.37C1173.94 320.668 1174.12 320.888 1174.2 321.326C1174.38 322.422 1174.51 324.397 1174.55 325.625C1176.04 322.467 1178.19 320.273 1181 320.273C1181.92 320.273 1182.27 320.493 1182.27 321.195V324.177C1182.27 324.748 1182.05 324.967 1181.52 325.011C1179.29 325.23 1177.23 326.546 1176.13 328.345C1175.04 330.143 1174.73 331.987 1174.73 336.68V343.129C1174.73 343.612 1174.51 343.831 1173.98 343.831H1170.22Z" fill="#FF6200"/><path fill-rule="evenodd" clip-rule="evenodd" d="M1186.96 343.831C1186.43 343.831 1186.21 343.611 1186.21 343.129V321.37C1186.21 320.888 1186.43 320.668 1186.96 320.668H1190.73C1191.25 320.668 1191.47 320.888 1191.47 321.37V343.129C1191.47 343.611 1191.25 343.831 1190.73 343.831H1186.96ZM1186.61 316.325C1186.08 316.325 1185.82 316.062 1185.82 315.58V311.148C1185.82 310.665 1186.08 310.402 1186.61 310.402H1191.03C1191.6 310.402 1191.87 310.665 1191.87 311.148V315.58C1191.87 316.062 1191.6 316.325 1191.03 316.325H1186.61Z" fill="#FF6200"/><path fill-rule="evenodd" clip-rule="evenodd" d="M1211.55 326.853C1210.41 325.493 1208.78 324.791 1207.16 324.791C1203.88 324.791 1201.81 327.511 1201.81 332.468C1201.81 336.46 1203.26 339.751 1206.9 339.751C1208.21 339.751 1209.57 339.312 1210.36 338.522C1211.24 337.645 1211.55 336.329 1211.55 333.829V326.853ZM1211.94 341.593C1210.58 343.216 1207.99 344.269 1205.76 344.269C1199.71 344.269 1196.38 339.487 1196.38 332.688C1196.38 324.791 1200.89 320.229 1206.29 320.229C1208.35 320.229 1210.32 320.975 1211.55 322.159V310.928C1211.55 310.446 1211.76 310.227 1212.29 310.227H1216.06C1216.59 310.227 1216.8 310.446 1216.8 310.928V338.084C1216.8 339.181 1217.11 339.619 1218.16 339.751C1218.65 339.794 1218.82 339.97 1218.82 340.497V342.646C1218.82 343.173 1218.65 343.479 1218.08 343.655C1217.59 343.831 1216.76 343.963 1215.84 343.963C1214.22 343.963 1212.64 343.26 1211.94 341.593Z" fill="#FF6200"/><path fill-rule="evenodd" clip-rule="evenodd" d="M1253.22 329.661C1254.1 332.907 1254.93 336.461 1255.37 338.566C1257.04 333.301 1258.53 326.897 1259.45 321.326C1259.54 320.843 1259.75 320.668 1260.37 320.668H1263.74C1264.27 320.668 1264.44 320.931 1264.31 321.502C1263 328.739 1260.81 336.548 1258.31 342.953C1258.04 343.611 1257.78 343.83 1257.04 343.83H1253.4C1252.65 343.83 1252.3 343.611 1252.13 342.953L1249.94 334.925C1249.19 332.162 1248.53 329.135 1248.14 326.722C1247.79 329.091 1247 332.336 1246.26 334.969L1244.02 342.953C1243.84 343.611 1243.49 343.83 1242.75 343.83H1238.98C1238.23 343.83 1237.93 343.611 1237.71 342.953L1231.53 321.502C1231.35 320.931 1231.57 320.668 1232.1 320.668H1235.73C1236.35 320.668 1236.66 320.712 1236.83 321.326L1239.24 330.451C1239.9 332.907 1240.78 336.68 1241.13 338.61C1241.52 336.724 1242.31 333.083 1242.97 330.582L1245.42 321.502C1245.6 320.843 1245.82 320.668 1246.56 320.668H1249.94C1250.68 320.668 1250.9 320.843 1251.08 321.502L1253.22 329.661Z" fill="#FF6200"/><path fill-rule="evenodd" clip-rule="evenodd" d="M1282.85 332.076C1282.85 327.908 1281.49 324.793 1277.81 324.793C1274.3 324.793 1272.24 327.382 1272.24 332.427C1272.24 336.594 1273.6 339.708 1277.28 339.708C1280.79 339.708 1282.85 337.121 1282.85 332.076ZM1266.81 332.734C1266.81 324.661 1270.88 320.23 1277.94 320.23C1284.56 320.23 1288.29 324.487 1288.29 331.769C1288.29 339.841 1284.21 344.271 1277.15 344.271C1270.53 344.271 1266.81 340.016 1266.81 332.734Z" fill="#FF6200"/><path fill-rule="evenodd" clip-rule="evenodd" d="M1293.85 343.831C1293.32 343.831 1293.1 343.612 1293.1 343.129V329.398C1293.1 325.714 1292.88 322.028 1292.88 321.37C1292.88 320.888 1293.1 320.668 1293.63 320.668H1297.01C1297.57 320.668 1297.75 320.888 1297.84 321.326C1298.01 322.422 1298.14 324.397 1298.19 325.625C1299.68 322.467 1301.83 320.273 1304.63 320.273C1305.55 320.273 1305.9 320.493 1305.9 321.195V324.177C1305.9 324.748 1305.68 324.967 1305.16 325.011C1302.92 325.23 1300.86 326.546 1299.77 328.345C1298.67 330.143 1298.36 331.987 1298.36 336.68V343.129C1298.36 343.612 1298.14 343.831 1297.62 343.831H1293.85Z" fill="#FF6200"/><path fill-rule="evenodd" clip-rule="evenodd" d="M1310.41 343.83C1309.89 343.83 1309.67 343.61 1309.67 343.128V310.928C1309.67 310.446 1309.89 310.227 1310.41 310.227H1314.18C1314.71 310.227 1314.93 310.446 1314.93 310.928V329.967H1315.89C1316.64 329.967 1316.95 329.836 1317.38 329.178L1322.69 321.369C1323.04 320.798 1323.17 320.667 1323.91 320.667H1327.25C1327.81 320.667 1328.03 321.106 1327.73 321.588L1321.02 331.371L1328.56 342.952C1328.87 343.435 1328.6 343.83 1328.12 343.83H1324.31C1323.52 343.83 1323.26 343.567 1322.91 343.041L1317.73 334.968C1317.3 334.31 1317.12 334.223 1316.38 334.223H1314.93V343.128C1314.93 343.61 1314.71 343.83 1314.18 343.83H1310.41Z" fill="#FF6200"/><path fill-rule="evenodd" clip-rule="evenodd" d="M1100.62 367.469C1103.47 367.469 1106.14 368.741 1107.33 371.022C1109.08 368.741 1111.8 367.469 1114.65 367.469C1117.15 367.469 1119.16 368.346 1120.52 369.838C1122.01 371.461 1122.67 373.611 1122.67 377.032V390.368C1122.67 390.852 1122.45 391.07 1121.88 391.07H1118.15C1117.63 391.07 1117.41 390.852 1117.41 390.368V378.743C1117.41 375.54 1117.23 374.356 1116.4 373.391C1115.74 372.601 1114.56 372.251 1113.2 372.251C1112.15 372.251 1110.79 372.601 1109.91 373.216C1109.04 373.83 1108.77 374.443 1108.64 375.803C1108.55 376.9 1108.6 378.743 1108.6 380.717V390.368C1108.6 390.852 1108.38 391.07 1107.85 391.07H1104.08C1103.56 391.07 1103.34 390.852 1103.34 390.368V378.743C1103.34 375.54 1103.16 374.356 1102.33 373.391C1101.67 372.601 1100.49 372.251 1099.13 372.251C1098.08 372.251 1096.72 372.558 1095.84 373.216C1095.05 373.742 1094.7 374.443 1094.62 375.803C1094.53 376.9 1094.53 378.743 1094.53 380.717V390.368C1094.53 390.852 1094.31 391.07 1093.78 391.07H1090.01C1089.49 391.07 1089.27 390.852 1089.27 390.368V376.637C1089.27 372.953 1089.05 369.267 1089.05 368.609C1089.05 368.127 1089.27 367.907 1089.79 367.907H1093.17C1093.74 367.907 1093.92 368.083 1094 368.566C1094.09 369.004 1094.18 369.706 1094.22 370.364C1095.71 368.698 1098.04 367.469 1100.62 367.469Z" fill="#FF6200"/><path fill-rule="evenodd" clip-rule="evenodd" d="M1143.31 379.313C1143.31 375.145 1141.95 372.031 1138.27 372.031C1134.76 372.031 1132.7 374.619 1132.7 379.664C1132.7 383.831 1134.06 386.947 1137.74 386.947C1141.25 386.947 1143.31 384.358 1143.31 379.313ZM1127.27 379.971C1127.27 371.899 1131.34 367.469 1138.4 367.469C1145.02 367.469 1148.74 371.724 1148.74 379.006C1148.74 387.078 1144.67 391.509 1137.61 391.509C1130.99 391.509 1127.27 387.253 1127.27 379.971Z" fill="#FF6200"/><path fill-rule="evenodd" clip-rule="evenodd" d="M1167.41 374.095C1166.27 372.735 1164.65 372.034 1163.03 372.034C1159.74 372.034 1157.68 374.753 1157.68 379.71C1157.68 383.702 1159.13 386.993 1162.77 386.993C1164.08 386.993 1165.44 386.554 1166.23 385.765C1167.1 384.887 1167.41 383.571 1167.41 381.071V374.095ZM1167.81 388.836C1166.45 390.458 1163.86 391.512 1161.63 391.512C1155.58 391.512 1152.25 386.729 1152.25 379.93C1152.25 372.034 1156.76 367.471 1162.15 367.471C1164.21 367.471 1166.18 368.217 1167.41 369.401V358.17C1167.41 357.688 1167.63 357.469 1168.16 357.469H1171.93C1172.45 357.469 1172.67 357.688 1172.67 358.17V385.326C1172.67 386.423 1172.98 386.861 1174.03 386.993C1174.51 387.036 1174.69 387.212 1174.69 387.739V389.888C1174.69 390.415 1174.51 390.722 1173.94 390.897C1173.46 391.073 1172.63 391.205 1171.71 391.205C1170.09 391.205 1168.51 390.502 1167.81 388.836Z" fill="#FF6200"/><path fill-rule="evenodd" clip-rule="evenodd" d="M1183.45 377.471H1193.31C1193.23 374.575 1191.6 371.988 1188.71 371.988C1185.69 371.988 1183.89 374.269 1183.45 377.471ZM1177.93 379.84C1177.93 372.382 1182.31 367.469 1188.71 367.469C1195.24 367.469 1198.62 372.47 1198.62 379.269C1198.62 380.98 1198.31 381.419 1197.7 381.419H1183.41C1183.89 385.105 1185.86 386.947 1189.76 386.947C1191.56 386.947 1193.75 386.377 1195.55 385.587C1196.12 385.323 1196.47 385.5 1196.69 386.026L1197.56 388.175C1197.78 388.789 1197.74 389.14 1197.17 389.447C1195.02 390.676 1192.13 391.509 1189.02 391.509C1181.48 391.509 1177.93 386.552 1177.93 379.84Z" fill="#FF6200"/><path fill-rule="evenodd" clip-rule="evenodd" d="M1204.88 389.8C1203.92 388.747 1203.52 387.08 1203.52 384.536V369.226C1203.52 360.846 1203.21 358.697 1203.21 358.127C1203.21 357.644 1203.43 357.469 1204 357.469H1207.51C1208.08 357.469 1208.34 357.644 1208.43 358.17C1208.65 359.356 1208.78 364.751 1208.78 370.893V385.238C1208.78 386.51 1209.13 387.08 1210.14 387.08H1210.58C1211.11 387.08 1211.15 387.255 1211.15 387.826V389.888C1211.15 390.326 1211.02 390.634 1210.67 390.809C1210.23 391.028 1209.53 391.248 1208.65 391.248C1207.16 391.248 1205.84 390.854 1204.88 389.8Z" fill="#FF6200"/><path fill-rule="evenodd" clip-rule="evenodd" d="M1177.55 230.132C1177.39 229.798 1176.97 230.132 1176.55 229.965C1176.55 230.132 1176.55 230.299 1176.81 230.464C1177.05 230.216 1177.47 230.132 1177.55 230.132ZM1178.22 225.758C1178.22 225.594 1178.05 225.427 1177.8 225.261H1175.97H1175.81C1175.81 225.594 1176.06 225.758 1176.31 225.758C1176.31 226.099 1176.55 226.162 1176.64 226.248C1176.89 226.419 1176.97 226.419 1177.22 226.248C1177.47 226.419 1177.55 226.099 1177.64 226.248C1177.64 226.752 1177.64 226.975 1177.55 227.382C1177.47 227.966 1176.97 227.882 1176.55 228.132C1176.55 228.382 1176.31 228.8 1176.55 229.049C1176.81 228.883 1176.97 228.8 1177.39 228.631C1177.39 228.382 1177.64 228.132 1177.97 227.966C1177.97 227.216 1178.22 226.503 1178.22 225.758ZM1181.96 230.542V230.132H1181.13L1181.05 230.216L1181.96 230.542ZM1177.05 222.938C1176.97 222.131 1176.06 222.048 1175.64 221.721H1175.31C1174.66 221.963 1174.51 222.632 1174.43 223.18C1174.66 223.928 1175.14 223.429 1175.47 223.928C1175.81 223.678 1176.64 223.094 1177.05 222.938ZM1178.89 223.846C1178.72 223.678 1178.22 223.928 1177.97 224.012C1177.64 224.095 1177.39 224.344 1177.39 224.595H1178.3C1178.39 224.344 1178.72 224.012 1178.89 223.846ZM1182.98 225.594C1182.98 225.594 1183.14 225.594 1182.98 225.512L1181.22 225.261C1181.05 225.512 1180.63 225.512 1180.63 225.758H1180.47C1180.63 226.419 1180.63 227.133 1180.63 227.882C1180.97 227.966 1181.3 228.132 1181.3 228.631C1181.63 228.8 1181.96 228.883 1182.28 229.13C1182.44 229.049 1182.51 228.8 1182.59 228.55C1182.28 228.132 1181.55 228.382 1181.55 227.633L1181.05 227.465C1181.05 226.975 1181.05 226.503 1180.97 226.162L1181.05 226.099C1181.05 226.162 1181.13 226.248 1181.3 226.419C1181.63 226.419 1181.96 226.503 1182.28 226.248C1182.44 226.162 1182.44 225.758 1182.59 225.758C1182.74 225.758 1182.89 225.758 1182.98 225.594ZM1181.71 224.595C1181.71 224.344 1181.63 224.344 1181.55 224.344C1181.13 224.344 1181.13 223.678 1180.8 223.846C1180.63 223.846 1180.47 223.678 1180.22 223.846C1180.22 223.928 1180.22 223.928 1180.38 223.928C1180.8 223.928 1180.63 224.51 1180.97 224.595H1181.71ZM1184.48 224.095C1184.64 223.678 1184.64 222.938 1184.31 222.547C1184.14 222.215 1183.73 222.048 1183.31 221.721L1182.74 222.048C1182.44 222.215 1182.28 222.547 1182.28 222.938C1182.82 223.18 1183.39 223.846 1183.64 224.344H1183.89C1184.14 224.095 1184.31 224.344 1184.48 224.095ZM1167.42 247.073C1167.34 247.073 1167.09 246.822 1166.84 246.822C1166.6 247.321 1166.84 247.657 1166.84 248.237C1166.84 248.49 1166.75 248.738 1166.75 248.738C1166.6 248.738 1166.3 248.406 1166.23 248.072V246.741L1166.92 245.844C1167.42 246.156 1167.59 246.657 1167.42 247.073ZM1169.55 246.156C1169.55 246.488 1169.47 246.822 1169.31 247.073C1169.22 246.741 1168.98 246.328 1168.58 246.328C1168.26 246.989 1168.17 247.239 1168.5 248.237C1168.26 248.49 1168.08 248.572 1167.76 248.738C1167.59 248.406 1167.59 247.823 1167.59 247.49C1167.59 246.907 1167.67 246.328 1167.84 245.844C1168.08 245.588 1168.26 245.171 1168.5 244.993H1169.38C1168.98 244.993 1168.98 245.342 1168.98 245.588C1169.22 245.67 1169.55 245.757 1169.55 246.156ZM1172.46 246.657C1172.46 247.321 1171.38 248.237 1171.38 248.237C1171.38 247.823 1171.63 247.321 1171.63 246.822C1171.63 246.822 1171.3 246.488 1170.97 246.488C1170.72 246.657 1170.72 246.822 1170.64 247.073C1170.38 247.573 1169.88 248.072 1169.8 248.572C1169.72 248.572 1169.72 248.49 1169.72 248.49C1169.72 247.657 1169.8 246.24 1170.3 245.67C1170.72 245.171 1171.05 245.171 1171.55 245.09L1171.97 245.171L1171.63 245.67C1171.97 245.844 1172.46 246.156 1172.46 246.657ZM1174.73 245.844L1174.51 246.657L1173.96 245.171C1173.3 244.579 1172.55 244.495 1172.13 244.16C1171.8 244.079 1171.8 244.326 1171.63 244.16C1171.63 243.998 1171.63 243.744 1171.88 243.497H1172.38L1172.88 243.744C1173.13 243.998 1173.71 243.998 1173.71 244.495C1173.71 244.579 1173.63 244.661 1173.88 244.993L1174.66 245.171L1174.73 245.844ZM1175.97 244.661L1175.39 245.171C1175.22 244.993 1175.39 244.579 1175.14 244.326C1175.14 244.16 1175.31 244.079 1175.22 243.998C1175.14 243.829 1174.2 243.497 1174.2 243.497C1173.88 243.246 1173.46 242.992 1173.13 242.664C1172.8 242.58 1172.55 242.746 1172.13 242.83V242.664C1172.3 242.329 1172.3 241.91 1172.8 241.91C1173.05 241.91 1173.38 241.91 1173.54 242.161C1173.88 242.161 1174.05 242.496 1174.28 242.58C1174.66 242.992 1174.98 243.164 1175.22 243.327C1175.22 243.578 1175.31 243.744 1175.47 243.829C1175.97 243.829 1175.81 244.326 1175.97 244.661ZM1176.39 242.08C1176.39 242.329 1176.31 243.327 1176.31 243.327C1176.14 242.746 1175.73 242.161 1175.22 242.161C1174.98 241.91 1174.73 241.663 1174.66 241.414C1174.43 241.164 1174.2 241.414 1173.88 241.164C1173.54 241.164 1173.13 241.164 1172.8 241.414V241.164L1173.38 240.495C1173.96 240.58 1174.66 240.495 1174.81 240.913C1175.22 241.164 1175.64 241.414 1175.73 241.582V241.83C1175.89 241.91 1176.22 241.995 1176.39 242.08ZM1175.97 237.873L1175.64 239.09C1175.22 239.414 1174.66 239.255 1174.2 239.255C1174.81 239.09 1175.31 238.377 1175.64 237.873C1175.73 237.791 1175.81 237.873 1175.97 237.873ZM1174.81 236.878C1174.81 237.21 1174.66 237.625 1174.28 238.042C1174.2 238.124 1173.96 238.292 1173.96 238.292C1173.96 237.791 1174.2 237.375 1174.2 236.958C1174.43 236.878 1174.66 236.709 1174.81 236.878ZM1173.88 235.623C1173.46 236.042 1173.05 236.207 1172.88 236.709C1172.88 236.463 1172.8 236.207 1172.72 236.042C1172.8 235.706 1173.05 235.541 1173.13 235.464C1173.38 235.541 1173.54 235.541 1173.88 235.623ZM1179.88 241.91C1179.55 242.161 1179.3 242.161 1178.89 242.08L1178.39 241.414H1179.64L1179.88 241.91ZM1178.22 238.124C1177.97 238.624 1177.72 239.09 1177.22 239.255C1176.97 239.255 1176.55 239.414 1176.06 239.255C1176.31 239.09 1176.55 239.015 1176.89 238.791L1177.55 238.124H1178.22ZM1185.81 246.822L1185.56 247.073C1185.31 246.822 1185.47 246.156 1185.06 246.072C1184.64 246.072 1184.31 245.67 1184.14 245.588L1184.48 245.423C1184.48 245.423 1184.64 245.342 1184.81 245.423C1184.97 245.588 1185.14 245.67 1185.14 245.844C1185.31 246.072 1185.56 245.844 1185.73 246.072C1185.81 246.328 1185.89 246.657 1185.81 246.822ZM1179.72 238.791C1179.64 239.255 1179.39 239.414 1178.97 239.996C1178.72 240.166 1178.22 240.246 1177.72 240.495C1177.8 240.246 1178.05 240.166 1178.22 239.913C1178.39 239.665 1178.72 239.255 1178.8 239.015C1179.22 238.791 1179.39 238.791 1179.72 238.791ZM1175.73 235.876C1175.22 235.706 1174.66 235.21 1174.43 234.836C1174.28 234.504 1174.2 234.085 1174.2 233.837C1174.51 233.837 1174.73 234.085 1174.81 234.253V234.336C1175.22 234.836 1175.64 235.21 1175.73 235.876ZM1182.13 241.83H1181.96C1181.88 241.83 1181.3 241.582 1181.13 241.414C1181.05 241.164 1181.05 240.913 1181.05 240.913H1181.71L1182.13 241.83ZM1188.69 245.67C1188.6 245.844 1188.43 246.328 1188.35 246.657C1188.19 246.156 1188.02 245.423 1187.44 245.423C1187.35 245.09 1187.27 244.993 1186.94 244.746L1186.3 244.661C1186.39 244.993 1186.86 244.993 1186.54 245.423C1186.86 245.67 1187.11 245.67 1187.27 246.072C1187.44 246.328 1187.27 246.657 1187.35 246.822L1186.86 247.073C1186.86 246.657 1186.94 245.844 1186.39 245.67C1185.89 245.844 1185.81 245.171 1185.47 244.993C1185.31 244.993 1185.31 244.579 1185.06 244.746C1184.64 244.993 1184.14 244.746 1183.73 244.993L1184.14 244.326C1184.48 244.079 1184.81 244.16 1185.14 244.079L1185.81 243.998C1186.47 243.998 1187.02 244.326 1187.69 244.579C1188.02 244.746 1188.19 244.993 1188.19 245.342C1188.35 245.423 1188.69 245.423 1188.69 245.67ZM1176.81 234.588L1176.55 235.623C1176.31 235.126 1176.06 234.669 1175.97 234.085L1176.81 234.588ZM1178.39 236.958C1177.89 236.463 1177.47 236.042 1177.47 235.541C1177.72 235.541 1177.97 235.541 1178.22 235.706C1178.22 236.123 1178.39 236.463 1178.39 236.958ZM1187.85 243.998C1187.52 243.744 1187.02 243.744 1186.86 243.327C1186.54 243.246 1186.3 243.246 1185.89 243.246C1185.56 243.327 1185.14 243.327 1184.81 243.327C1184.72 243.327 1184.81 243.246 1184.64 243.164C1184.14 243.327 1183.64 243.327 1183.14 243.829L1183.56 242.83C1183.89 242.83 1184.14 242.664 1184.31 242.664C1184.64 242.58 1184.89 242.58 1185.14 242.58V242.664C1186.06 242.664 1187.11 242.58 1187.77 243.327L1187.85 243.998ZM1182.89 239.255C1182.74 239.414 1182.28 239.58 1181.96 239.58C1181.46 239.173 1181.13 238.707 1180.63 238.042L1181.96 238.292C1182.21 238.457 1182.67 239.015 1182.89 239.255ZM1180.13 235.623C1180.13 236.207 1180.05 236.958 1179.47 237.21L1179.3 236.377C1179.55 236.207 1179.8 236.042 1180.13 235.623ZM1187.69 242.329C1187.27 242.329 1186.94 242.329 1186.69 241.91C1186.61 241.91 1186.47 241.663 1186.39 241.83C1185.97 242.161 1185.56 241.582 1185.06 241.663C1184.81 241.91 1184.56 242.08 1184.14 242.161V242.08C1184.14 241.83 1184.31 241.582 1184.64 241.414C1185.14 241.582 1185.56 240.495 1186.06 241.08C1186.3 241.164 1186.54 241.164 1186.69 241.164C1187.27 241.414 1187.44 241.91 1187.69 242.329ZM1189.6 245.423H1189.52C1189.35 245.171 1189.27 244.993 1189.1 244.993C1189.35 244.079 1188.85 243.327 1188.69 242.58V242.329C1188.94 242.746 1189.6 243.164 1189.52 243.578C1189.6 244.326 1189.6 244.993 1189.6 245.423ZM1181.96 236.958C1181.55 236.709 1180.8 236.626 1180.97 236.123C1181.13 235.706 1181.38 235.623 1181.55 235.464C1181.63 236.042 1181.71 236.463 1181.96 236.958ZM1173.46 226.248L1173.05 226.752C1173.13 227.549 1172.8 228.132 1172.8 228.883L1172.38 227.549C1172.46 227.216 1172.55 226.906 1172.8 226.503L1173.46 226.248ZM1185.81 238.791H1185.56C1184.64 239.09 1183.89 238.542 1183.14 238.042C1183.56 237.873 1184.14 237.791 1184.64 237.791L1184.89 238.292C1185.14 238.377 1185.56 238.624 1185.81 238.791ZM1181.55 232.088C1181.46 232.587 1181.3 233.337 1180.8 233.671C1180.8 233.337 1180.63 233.17 1180.47 232.92C1180.38 232.92 1180.47 233.17 1180.38 233.17C1180.38 233.337 1180.22 233.671 1180.22 234.003C1180.05 234.085 1179.72 234.253 1179.39 234.085V233.837C1179.3 233.671 1179.3 233.337 1179.3 233.17L1179.22 233.088C1178.97 233.17 1178.97 233.337 1178.97 233.504C1178.89 233.671 1178.72 233.837 1178.72 234.085C1178.39 234.085 1178.22 234.003 1177.97 233.837V233.088C1177.97 232.92 1177.97 232.92 1177.89 232.92L1177.47 233.337C1177.14 233.088 1177.05 232.42 1177.05 232.005C1178.39 231.255 1180.05 231.505 1181.05 231.921C1181.22 232.005 1181.38 232.005 1181.55 232.088ZM1183.89 236.626C1183.56 236.709 1182.98 236.878 1182.82 236.463C1182.36 235.706 1182.59 235.043 1182.82 234.504C1182.98 234.976 1183.06 235.464 1183.14 235.876C1183.23 236.207 1183.73 236.377 1183.89 236.626ZM1173.3 225.096L1172.72 225.261L1172.8 224.844C1172.96 224.595 1173.05 224.344 1173.3 224.095V225.096ZM1187.19 237.873C1186.86 237.873 1186.3 237.873 1185.97 237.625C1185.47 237.375 1185.31 237.21 1185.06 236.958C1185.39 236.709 1185.81 236.709 1185.97 236.626C1186.3 236.958 1186.61 237.541 1187.19 237.873ZM1184.89 235.541C1184.48 235.623 1184.14 235.21 1183.73 235.043C1183.56 234.588 1183.56 234.085 1183.39 233.837C1183.73 234.085 1184.48 234.085 1184.31 234.836C1184.31 235.043 1184.64 235.21 1184.89 235.541ZM1191.7 241.414C1191.7 241.91 1191.37 242.329 1191.28 242.83C1191.28 242.329 1191.2 241.91 1190.87 241.582C1190.87 241.414 1191.11 241.414 1190.95 241.164C1190.95 241.164 1190.49 240.913 1190.49 240.58C1190.49 240.246 1190.8 239.996 1190.95 239.749C1190.95 239.665 1191.28 239.913 1191.28 240.415C1191.28 240.495 1191.28 240.748 1191.2 240.913C1191.11 241.164 1191.7 241.164 1191.7 241.414ZM1193.61 242.329C1193.61 242.746 1193.11 243.246 1192.94 243.578C1193.11 243.164 1193.11 242.329 1192.94 242.329C1192.78 242.247 1192.45 242.329 1192.45 242.161C1192.45 241.91 1192.53 241.582 1192.53 241.414C1192.53 241.08 1192.28 240.913 1192.28 240.748C1192.28 240.246 1192.86 240.166 1193.03 239.831C1193.11 240.166 1193.11 240.495 1193.11 240.913C1193.11 241.08 1193.36 241.582 1193.11 241.995C1193.11 242.247 1193.61 242.08 1193.61 242.329ZM1186.86 234.588C1186.39 234.588 1185.81 234.836 1185.56 234.336C1185.73 234.253 1185.89 234.003 1186.06 233.837L1186.86 234.588ZM1189.19 236.463L1188.77 236.626C1187.85 236.626 1187.44 236.377 1187.02 236.042C1187.35 236.042 1187.77 235.623 1187.77 235.623C1188.19 236.042 1188.77 236.377 1189.19 236.463ZM1185.81 231.255C1184.81 230.707 1183.73 230.299 1182.51 230.216C1182.51 230.464 1182.51 230.707 1182.44 230.793C1183.39 231.255 1184.31 231.671 1185.14 232.42V233.17C1184.31 232.339 1183.39 231.505 1182.36 231.255C1182.28 231.423 1181.96 231.588 1181.88 231.921C1181.3 231.505 1180.63 231.087 1179.97 231.008C1179.72 231.008 1179.55 230.132 1179.55 230.132C1179.97 229.965 1180.22 229.716 1180.38 229.297H1180.72C1180.97 229.297 1180.97 229.13 1180.97 228.883C1180.97 228.382 1179.88 228.382 1179.39 228.382C1178.8 228.382 1178.39 228.382 1178.05 228.631C1177.89 228.631 1177.97 228.883 1177.97 229.049C1177.97 229.13 1178.22 229.297 1178.22 229.297C1178.39 229.297 1178.55 229.13 1178.72 229.13C1178.64 229.631 1178.8 229.883 1179.3 230.132L1179.22 230.94C1178.22 230.94 1177.55 231.336 1176.81 231.671C1176.55 231.505 1176.39 231.255 1176.22 231.008C1175.22 231.336 1173.54 232.67 1173.54 232.67V232.088C1174.28 231.423 1175.22 231.087 1175.97 230.707V230.132C1175.64 229.965 1175.31 230.132 1174.98 230.132C1174.28 230.216 1173.54 230.542 1173.05 230.94C1173.05 230.707 1172.96 230.382 1172.96 230.382C1173.88 229.883 1174.98 229.465 1176.06 229.631V229.297C1175.97 229.13 1175.97 228.883 1175.81 228.883C1175.31 228.382 1174.81 227.633 1174.81 227.133L1175.14 226.975C1174.98 226.503 1174.81 225.261 1175.14 224.844C1174.66 224.595 1174.2 224.178 1174.05 223.846C1173.88 223.429 1173.71 223.18 1173.63 222.714C1173.88 222.215 1174.05 222.048 1174.28 221.555C1174.43 221.555 1174.66 221.473 1174.73 221.305C1175.14 221.222 1175.39 220.807 1175.89 221.059C1176.22 221.059 1176.55 221.222 1176.81 221.305C1176.81 221.473 1176.81 221.555 1176.97 221.721C1177.47 221.721 1177.47 222.215 1177.72 222.632C1177.97 222.714 1178.22 222.714 1178.39 222.714C1178.89 222.868 1179.3 222.868 1179.47 223.094C1180.13 222.714 1180.8 222.632 1181.55 222.714C1181.63 222.463 1181.8 222.131 1181.88 221.721C1181.96 221.963 1181.96 221.721 1182.13 221.721C1182.44 221.473 1182.82 221.059 1183.39 221.222C1183.73 221.473 1184.31 221.305 1184.64 221.721C1184.89 222.048 1185.06 222.547 1185.31 222.938C1185.06 223.429 1185.31 224.095 1184.81 224.344L1184.31 224.844C1184.14 224.844 1184.14 225.013 1183.89 225.013C1184.14 225.594 1183.98 226.419 1183.73 226.975C1183.89 226.906 1184.14 226.906 1184.14 226.669C1184.23 226.752 1184.14 226.906 1184.14 226.975V227.216C1184.14 227.633 1183.89 228.05 1183.56 228.382C1183.39 228.883 1182.98 229.549 1182.44 229.631V229.798C1183.64 229.798 1184.64 230.132 1185.81 230.707V231.255ZM1192.2 239.255C1192.2 239.414 1191.94 239.58 1191.86 239.58C1191.86 239.58 1191.44 239.173 1191.37 238.791C1191.28 238.457 1191.61 237.873 1191.61 237.873C1191.7 237.873 1191.78 238.042 1191.86 238.042C1191.94 238.124 1191.86 238.377 1191.94 238.624C1192.2 238.791 1192.36 239.09 1192.2 239.255ZM1198.88 244.993C1198.88 245.024 1198.72 245.171 1198.72 245.171C1198.34 244.993 1198.1 244.909 1197.6 244.909C1197.6 244.579 1197.35 244.16 1197.19 244.16C1196.69 244.16 1196.77 244.495 1196.36 244.495L1197.1 243.744C1197.19 243.578 1197.19 243.578 1197.35 243.578C1197.6 243.744 1197.69 243.829 1197.94 243.829C1197.94 243.998 1197.94 244.079 1197.86 244.326C1198.1 244.495 1198.26 244.244 1198.42 244.495C1198.65 244.579 1198.88 244.661 1198.88 244.993ZM1191.11 237.458C1191.11 237.71 1190.95 237.791 1190.8 237.959C1190.8 237.959 1190.49 237.541 1190.49 237.375C1190.49 237.04 1190.49 236.878 1190.57 236.626C1190.8 236.878 1191.11 237.21 1191.11 237.458ZM1194.36 239.913C1194.36 240.415 1194.28 240.998 1194.28 241.582C1194.03 241.582 1194.03 241.414 1194.03 241.08C1193.95 240.58 1193.78 240.166 1193.61 239.665C1193.44 239.015 1193.03 238.457 1192.7 237.71C1192.61 237.375 1192.2 237.21 1191.86 236.958C1192.28 236.958 1192.7 236.958 1193.03 237.292C1193.03 237.458 1193.11 237.541 1193.36 237.791C1193.95 237.791 1193.78 238.542 1194.28 238.876C1194.03 239.09 1193.95 239.255 1193.78 239.414C1194.03 239.58 1194.28 239.665 1194.36 239.913ZM1190.1 235.21C1189.85 235.464 1189.19 235.541 1188.69 235.126L1189.35 234.836C1189.6 235.043 1189.94 235.126 1190.1 235.21ZM1188.27 233.337C1188.19 233.671 1187.85 233.337 1187.77 233.337H1187.02C1186.94 233.17 1186.86 233.088 1186.86 232.92C1187.19 232.838 1187.44 232.67 1187.69 232.838C1187.85 233.088 1188.02 233.337 1188.27 233.337ZM1195.52 239.831C1195.52 240.166 1195.36 240.415 1195.44 240.748C1195.27 240.246 1194.94 239.749 1194.77 239.255C1194.77 239.173 1194.69 239.173 1194.86 239.09C1194.94 239.09 1195.27 239.09 1195.27 239.173C1195.36 239.331 1195.52 239.58 1195.52 239.831ZM1199.7 243.246C1199.7 243.578 1199.62 243.663 1199.53 244.079C1198.96 243.998 1198.96 243.327 1198.88 243.246C1198.49 242.746 1197.94 243.164 1197.52 243.164C1197.35 242.664 1197.6 242.664 1197.6 242.329C1197.86 242.329 1198.1 242.161 1198.34 242.329C1198.72 242.161 1198.96 242.58 1199.36 242.58C1199.45 242.746 1199.62 243.164 1199.7 243.246ZM1201.37 245.588C1201.19 245.844 1201.19 245.844 1201.11 246.072C1201.11 245.67 1200.61 245.423 1200.28 244.746L1200.61 244.16C1200.86 244.326 1201.19 244.579 1201.19 244.993C1201.19 244.993 1201.11 245.171 1201.19 245.342C1201.19 245.423 1201.37 245.423 1201.37 245.588ZM1187.69 231.505C1187.19 231.505 1186.94 231.255 1186.69 230.793C1186.69 230.542 1186.61 230.216 1186.69 229.798C1186.86 230.132 1186.86 230.299 1187.02 230.464C1187.35 230.299 1187.35 230.707 1187.44 230.793C1187.52 231.008 1187.69 231.255 1187.69 231.505ZM1194.77 237.625C1194.03 237.21 1193.61 236.463 1192.94 235.706C1193.61 235.706 1193.78 236.377 1194.28 236.463C1194.44 236.626 1194.61 236.709 1194.77 236.958V237.625ZM1199.95 242.329C1199.36 242.329 1199.7 241.164 1198.49 241.164C1198.26 241.164 1198.1 241.582 1197.77 241.663C1197.77 241.582 1197.86 241.08 1197.86 241.08C1197.86 240.913 1197.94 240.58 1198.26 240.415C1198.88 240.415 1198.72 240.664 1199.2 240.829C1199.45 240.913 1199.62 241.08 1199.95 241.08V242.329ZM1201.95 243.412C1201.95 243.913 1201.95 244.079 1201.7 244.495L1201.19 243.744C1201.37 243.497 1201.37 243.164 1201.61 242.746C1201.7 242.746 1201.95 243.327 1201.95 243.412ZM1185.97 227.549C1185.97 227.633 1185.81 228.382 1185.81 228.382L1185.14 228.55L1185.56 226.752C1185.73 227.049 1185.97 227.382 1185.97 227.549ZM1200.36 240.495C1200.11 240.415 1199.53 240.331 1199.53 240.082C1199.53 239.749 1199.36 239.665 1198.96 239.665C1198.65 239.665 1198.42 239.749 1197.94 239.913C1197.94 239.913 1197.69 239.58 1197.6 239.255C1197.77 239.173 1198.42 239.015 1198.72 239.015C1199.28 239.015 1199.86 239.015 1199.86 239.255C1199.86 239.58 1200.36 239.665 1200.36 240.495ZM1201.11 238.707C1200.53 238.707 1199.95 238.542 1199.86 238.292C1199.7 238.124 1199.86 237.791 1199.45 237.791C1199.28 237.791 1199.03 238.042 1199.03 238.042C1198.88 238.124 1198.42 237.791 1198.42 238.042C1198.42 238.457 1198.1 238.624 1197.69 238.624C1197.52 238.624 1197.35 238.624 1197.19 238.542V237.71C1198.26 237.71 1198.18 237.375 1198.65 237.375C1198.96 237.375 1199.2 237.541 1199.45 237.541C1199.86 237.541 1199.62 237.375 1200.03 237.375C1200.45 237.375 1200.61 237.71 1200.86 237.791C1200.86 238.042 1201.11 238.377 1201.11 238.707ZM1200.86 236.878C1200.2 236.463 1199.2 236.207 1198.65 236.207C1198.34 236.207 1197.35 236.626 1197.02 236.958L1196.85 236.207C1197.35 236.123 1197.35 235.706 1197.69 235.706C1197.94 235.706 1198.26 235.623 1198.49 235.623C1198.72 235.623 1198.88 235.464 1198.96 235.464C1199.36 235.464 1199.2 235.876 1199.45 235.876C1199.7 235.876 1199.86 235.706 1200.03 235.706C1200.45 235.706 1200.78 236.377 1200.86 236.878ZM1198.96 235.043C1198.49 235.043 1198.42 234.976 1198.1 234.976C1197.69 234.976 1197.19 235.126 1196.94 235.541C1196.77 235.21 1196.85 235.043 1196.94 234.836C1197.19 234.588 1197.6 234.253 1197.94 234.253C1198.49 234.253 1198.96 234.669 1198.96 235.043ZM1199.03 233.837C1198.49 233.671 1198.18 233.422 1197.69 233.422C1197.52 233.422 1196.77 233.671 1196.69 233.837C1196.44 233.504 1196.85 232.838 1197.19 232.67C1197.52 232.503 1197.69 232.587 1197.86 232.67C1197.86 233.17 1198.42 232.92 1198.72 233.088C1198.88 233.337 1198.96 233.504 1199.03 233.837ZM1201.03 224.344H1200.11C1199.95 224.095 1199.7 224.344 1199.53 224.344C1199.36 224.344 1199.28 224.344 1198.96 224.095C1199.45 224.095 1199.7 223.846 1200.11 223.678C1200.45 223.928 1200.78 224.012 1201.03 224.344ZM1203.53 226.099C1203.36 225.758 1203.03 225.594 1202.78 225.594C1202.53 225.261 1202.2 224.844 1201.86 224.844C1202.11 224.844 1202.45 224.595 1202.86 224.595C1203.03 225.013 1203.36 225.261 1203.44 225.594L1203.53 226.099ZM1181.8 246.989C1181.71 246.989 1181.88 247.157 1181.05 246.328C1180.88 246.328 1180.63 246.822 1180.63 246.989C1180.63 247.657 1180.8 248.572 1181.05 249.237H1181.71C1181.71 248.49 1181.8 247.657 1181.8 246.989ZM1183.56 247.073C1183.56 246.741 1183.31 246.657 1182.98 246.657C1182.82 246.657 1182.44 246.907 1182.44 247.073C1182.44 247.406 1182.28 249.237 1182.28 249.237H1182.82C1183.06 248.49 1183.56 247.49 1183.56 247.073ZM1194.44 246.072L1193.61 246.156C1193.95 246.328 1193.95 246.741 1193.95 246.822C1193.95 247.073 1193.78 247.321 1193.61 247.49C1193.44 247.321 1193.44 247.073 1193.28 246.822C1193.11 246.822 1193.03 247.239 1193.03 247.406C1193.03 248.155 1193.36 248.738 1193.61 249.237H1194.36C1194.28 248.572 1194.11 247.99 1194.11 247.239C1194.11 246.822 1194.36 246.328 1194.44 246.072ZM1212.33 238.542C1212.33 234.919 1210.83 231.255 1208.16 228.631C1207.01 227.465 1205.74 226.906 1204.74 225.758C1204.24 225.261 1203.86 224.762 1203.53 224.095C1203.11 223.678 1202.86 223.429 1202.36 223.18C1202.45 223.429 1202.53 223.678 1202.61 223.928H1202.53C1202.11 223.928 1201.7 223.678 1201.37 223.429L1201.7 223.094C1201.61 222.938 1201.37 222.938 1201.19 222.938C1199.86 222.714 1198.65 223.429 1197.35 223.678V223.846C1198.18 224.095 1198.34 225.096 1198.8 225.594H1199.28C1199.45 225.594 1199.7 225.758 1199.86 225.758C1199.86 225.594 1199.7 225.261 1199.7 225.261C1199.86 225.096 1200.03 225.096 1200.2 225.261C1200.61 225.512 1201.19 225.096 1201.61 225.758C1201.11 225.758 1200.61 225.758 1200.2 226.015C1200.2 226.099 1200.45 226.248 1200.36 226.419C1199.95 226.248 1199.45 226.419 1199.28 226.099L1199.2 226.162C1199.7 226.752 1200.45 227.216 1201.19 227.465C1202.28 227.633 1203.19 227.133 1204.24 227.382C1208 229.218 1210.67 233.504 1210.67 237.791C1210.67 243.913 1207.17 246.328 1204.99 246.328C1204.58 246.328 1203.94 246.072 1203.69 245.844C1203.94 244.993 1204.09 243.998 1204.09 242.496C1204.09 238.958 1202.7 235.126 1200.78 233.17C1199.86 232.253 1198.88 231.505 1197.86 231.505C1197.35 231.505 1196.85 231.505 1196.52 231.921C1196.11 232.253 1195.86 232.92 1195.94 233.337C1195.27 233.837 1194.19 234.085 1193.36 234.085C1192.45 234.085 1191.28 233.752 1190.26 232.92V231.671C1190.02 231.588 1189.19 231.087 1189.6 230.707C1189.85 230.793 1190.02 230.94 1190.1 231.008C1190.02 230.464 1190.02 229.798 1189.6 229.297C1189.43 229.297 1189.19 229.297 1188.94 229.13C1188.69 228.883 1188.43 228.55 1188.43 228.132C1188.69 228.55 1189.1 228.382 1189.35 228.631C1188.94 227.633 1189.1 227.216 1188.35 225.758C1188.19 225.013 1187.44 224.595 1186.94 224.095C1186.69 223.928 1186.61 223.678 1186.3 223.678C1185.97 223.597 1185.97 223.18 1185.97 222.938C1186.06 222.938 1186.3 223.094 1186.47 223.18C1185.97 222.048 1185.64 220.807 1184.56 220.14L1184.31 220.305H1182.98C1183.14 220.14 1183.47 220.057 1183.73 219.89C1183.47 219.64 1183.31 219.556 1182.82 219.556C1182.59 219.64 1182.28 219.89 1181.96 219.89H1181.88C1181.88 219.64 1181.8 219.307 1182.28 219.141C1181.8 219.056 1181.38 219.056 1180.8 219.141C1180.72 219.556 1180.47 219.806 1180.47 220.14C1180.22 220.305 1180.13 220.556 1179.88 220.807C1179.88 220.305 1180.13 219.806 1180.22 219.307C1179.88 219.389 1179.47 219.64 1179.3 219.64C1178.64 219.307 1177.8 218.977 1177.47 218.977C1177.97 219.307 1177.72 219.89 1177.8 220.305L1177.47 220.14C1177.39 219.806 1176.97 219.556 1176.89 219.141C1176.39 219.141 1176.06 219.307 1175.64 219.556V219.64C1175.89 219.64 1176.22 219.89 1176.39 220.14C1175.81 220.14 1175.39 219.89 1174.81 219.89C1174.81 219.89 1174.81 219.806 1174.73 219.806C1174.51 219.89 1174.28 220.14 1174.13 220.305C1173.54 220.807 1173.13 221.222 1172.88 221.963C1173.05 221.963 1173.3 221.963 1173.38 222.048C1173.05 222.131 1172.88 222.547 1172.55 222.632V223.846C1172.3 224.095 1171.97 224.344 1171.8 224.844C1171.38 226.162 1171.3 227.633 1171.3 229.297C1171.22 229.631 1171.05 229.716 1170.88 229.798V231.087C1170.88 231.087 1171.38 230.622 1171.63 230.464V231.505C1171.3 231.505 1171.05 231.921 1171.05 232.171C1171.05 232.503 1171.14 232.838 1171.14 233.17C1171.14 233.337 1171.14 233.337 1171.22 233.504C1171.22 233.337 1171.38 233.17 1171.63 233.088C1171.63 233.088 1171.8 232.92 1172.13 232.92C1171.88 233.17 1171.8 233.504 1171.63 233.837L1171.38 234.085C1171.38 234.085 1171.3 234.253 1171.3 234.336C1171.63 236.042 1172.13 237.541 1172.8 239.173C1172.13 240.246 1171.38 242.329 1170.88 244.326C1170.47 243.913 1169.88 243.829 1169.38 243.829C1168.92 243.913 1168.42 244.079 1168.08 244.579C1167.59 244.326 1166.92 244.41 1166.6 244.746C1165.91 245.342 1165.91 245.67 1165.91 246.156C1165.74 246.328 1165.41 246.741 1165.41 247.321C1165.41 248.072 1165.49 248.572 1165.91 249.237H1178.39C1178.3 248.989 1178.14 248.657 1177.97 248.49C1177.72 247.99 1177.89 247.321 1177.89 246.822C1178.14 246.328 1178.39 245.844 1178.72 245.423C1178.8 245.171 1178.72 245.171 1178.8 245.09L1179.39 244.993C1179.72 244.993 1179.97 244.746 1180.38 244.746C1180.63 245.09 1180.63 244.495 1181.05 244.326C1181.96 244.16 1182.82 244.326 1183.31 244.993C1183.31 245.09 1183.39 245.09 1183.39 245.171H1182.98C1182.51 244.993 1181.96 244.746 1181.38 244.993C1181.38 245.171 1181.3 245.171 1181.3 245.423V245.844C1181.63 245.844 1181.88 246.156 1182.21 246.328C1182.36 246.072 1182.82 245.844 1183.14 245.844C1183.56 245.844 1184.14 246.072 1184.14 246.741V247.657C1184.48 247.99 1184.89 248.072 1185.31 248.237C1185.14 248.572 1184.89 248.572 1184.64 248.572H1183.98C1183.89 248.49 1183.73 248.49 1183.73 248.237C1183.47 248.572 1183.31 248.907 1183.14 249.237H1192.78C1192.61 248.907 1192.45 248.657 1192.36 248.49C1192.2 247.99 1192.2 247.321 1192.2 246.822L1193.11 245.588C1193.61 245.588 1194.03 245.423 1194.94 245.342C1195.11 245.09 1194.94 244.993 1195.69 244.993C1196.27 244.993 1196.69 245.09 1196.85 245.171C1196.94 245.342 1196.94 245.342 1196.85 245.506C1196.69 245.67 1196.36 245.342 1196.11 245.423C1195.94 245.588 1196.19 245.67 1196.19 245.844C1196.36 245.988 1195.44 245.67 1195.44 245.67C1195.44 245.67 1195.27 246.156 1195.19 246.328C1195.19 246.328 1195.52 246.657 1195.69 246.822C1195.86 247.073 1195.44 247.321 1195.44 247.573C1195.27 247.49 1194.94 247.239 1194.94 247.321C1194.77 247.99 1194.94 248.572 1194.86 249.237H1195.77L1195.86 247.823C1195.94 246.989 1196.94 245.506 1197.52 245.506C1197.86 245.506 1198.1 245.67 1198.34 245.844C1198.49 246.156 1198.88 246.328 1198.88 246.488C1198.88 246.657 1198.65 246.741 1198.26 246.741C1198.1 246.741 1198.1 246.488 1197.86 246.328L1197.35 246.822C1197.35 246.822 1197.94 247.321 1197.94 247.657C1197.94 248.072 1197.86 248.237 1197.6 248.49L1197.1 247.49C1196.85 247.49 1196.44 247.99 1196.44 248.237C1196.44 248.572 1196.27 248.738 1196.27 249.237H1201.37C1201.95 249.237 1202.45 249.073 1203.03 248.738H1204.02C1206.07 248.738 1207.67 248.155 1209.17 246.657C1211.16 244.746 1212.33 241.582 1212.33 238.542ZM1180.38 249.237C1179.97 248.49 1179.88 247.321 1179.88 247.073C1179.88 246.657 1179.88 246.072 1180.13 245.67L1179.22 245.844C1178.97 246.156 1178.89 246.328 1178.89 246.488L1179.3 246.328C1179.39 246.328 1179.47 246.488 1179.55 246.657C1179.47 247.073 1178.97 247.073 1178.8 247.239C1178.55 248.072 1179.3 248.572 1179.39 249.237H1180.38Z" fill="#FF6200"/></svg>