<?xml version="1.0" encoding="UTF-8"?><svg xmlns="http://www.w3.org/2000/svg" version="1.1" viewBox="0 0 980 1200"><defs><style>.cls-1 {
        fill: #ff6200;
      }

      .cls-1, .cls-2, .cls-3, .cls-4, .cls-5, .cls-6, .cls-7, .cls-8, .cls-9, .cls-10, .cls-11 {
        stroke-width: 0px;
      }

      .cls-2 {
        fill: #e73245;
      }

      .cls-3 {
        fill: #211a1a;
      }

      .cls-4 {
        fill: #bac09a;
      }

      .cls-5 {
        fill: #d8cbc5;
      }

      .cls-6 {
        fill: #000;
      }

      .cls-7 {
        fill: #f7e5cd;
      }

      .cls-8 {
        fill: #232144;
      }

      .cls-9 {
        fill: #f5836d;
      }

      .cls-10 {
        fill: #ffa28f;
      }

      .cls-11 {
        fill: #fff;
      }</style></defs><g id="phone"><rect class="cls-8" x="443.5" y="143.8" width="465.7" height="983.3" rx="32.7" ry="32.7"/><rect class="cls-7" x="457.6" y="226.2" width="434.1" height="829.3" rx="14.3" ry="14.3"/><path class="cls-7" d="M623,189.6h133.5c5.6,0,10.1,4.5,10.1,10.1h0c0,5.6-4.5,10.1-10.1,10.1h-133.5c-5.6,0-10.1-4.5-10.1-10.1h0c0-5.6,4.5-10.1,10.1-10.1Z"/><path class="cls-7" d="M611.5,1080.3h136.3c6.9,0,12.5,4,12.5,9v3.3c0,5-5.6,9-12.5,9h-136.3c-6.9,0-12.5-4-12.5-9v-3.3c0-5,5.6-9,12.5-9Z"/><circle class="cls-7" cx="591" cy="200.6" r="9.8"/><path class="cls-8" d="M632.2,905c-.8-.5-2.3-.6-2.8.2-6.6,7.8-16.4,20.2-4.9,29.5,11.6,9.7,20.4-2.8,28.2-13.4.9-.9.6-2.3-.6-3.1l-19.9-13.3v.1Z"/><path class="cls-8" d="M645.5,869.5c-3.2,8.5-5,15.3-7.1,20.4-.2.8,0,1.8.8,2.3,10,5.4,19,12.4,22.4,15.3.8.5,1.9.7,2.5-.2,6.6-7.8,13.7-16,17.9-23.3,6.5-11.3,9.5-29.7-2.4-36.9-13.1-8-27.7,5.4-34.1,22.4h0Z"/><path class="cls-8" d="M692.5,780.6c-.8-.5-2.3-.6-2.8.2-6.6,7.8-16.4,20.2-4.9,29.5,11.6,9.7,20.4-2.8,28.2-13.4.9-.9.6-2.3-.6-3.1l-19.9-13.3v.1Z"/><path class="cls-8" d="M705.4,745.2c-3.2,8.5-5,15.3-7.1,20.4-.2.8,0,1.8.8,2.3,10,5.4,19,12.4,22.4,15.3.8.5,1.9.7,2.5-.2,6.6-7.8,13.7-16,17.9-23.3,6.5-11.3,9.5-29.7-2.4-36.9-13.1-8-27.7,5.4-34.1,22.4h0Z"/><path class="cls-8" d="M752.3,656.4c-.8-.5-2.3-.6-2.8.2-6.6,7.8-16.4,20.2-4.9,29.5,11.6,9.7,20.4-2.8,28.2-13.4.9-.9.6-2.3-.6-3.1l-19.9-13.3v.1Z"/><path class="cls-8" d="M799.7,598.4c-13.1-8-28,5.5-34.1,22.4-3.2,8.5-5,15.3-7.1,20.4-.2.8,0,1.8.8,2.3,10,5.4,19,12.4,22.4,15.3.8.5,1.9.7,2.5-.2,6.6-7.8,13.7-16,17.9-23.3,6.2-11.3,9.5-29.7-2.4-36.9h0Z"/><path class="cls-8" d="M572.1,952.8l-22.8-7c-1.2-.5-2.5.2-2.9,1.7-3.5,12.5-7.8,27.3,7,30.2,14.2,3.1,18.1-12.3,19.9-22.3.4-1.5-.2-2.5-1.3-2.6h.1Z"/><path class="cls-8" d="M588.1,879.3c-12.8-4.8-25.5,9.2-30.1,21.2-3.3,8.2-5.4,18.6-7.2,28.6-.1,1.1.4,1.7,1.5,2.2,4.1.9,15.3,3.6,25.9,8.1.8.5,1.8,0,2.3-.8,2.9-4.9,6.7-10.6,11.5-18.4,9.2-15.5,10.4-35.3-3.9-40.8v-.1Z"/><path class="cls-8" d="M613.6,853c14.2,3.1,18.1-12.3,19.9-22.3.1-1.1-.4-2-1.6-2.5l-22.8-7c-1.2-.5-2.5.2-2.9,1.7-3.1,12.4-7.5,27.2,7.4,30.1h0Z"/><path class="cls-8" d="M612.2,807c4.1.9,15.3,3.6,25.9,8.1.8.5,1.8,0,2.3-.8,2.9-4.9,6.7-10.6,11.5-18.4,9.6-15.5,10.8-35.4-3.5-40.9-12.8-4.8-25.5,9.2-30.1,21.2-3.3,8.2-5.4,18.6-7.2,28.6-.5,1.2,0,2.1,1.2,2.2h-.1Z"/><path class="cls-8" d="M673.4,728.7c14.2,3.1,18.1-12.3,19.9-22.3.1-1.1-.4-2-1.6-2.5l-22.8-7c-1.2-.5-2.5.2-2.9,1.7-3.1,12.4-7.2,26.8,7.4,30.1h0Z"/><path class="cls-8" d="M672,682.7c4.1.9,15.3,3.6,25.9,8.1.8.5,1.8,0,2.3-.8,2.9-4.9,6.7-10.6,11.5-18.4,9.6-15.5,10.8-35.4-3.5-40.9-12.8-4.8-25.5,9.2-30.1,21.2-3.3,8.2-5.4,18.6-7.2,28.6-.5,1.2,0,2.1,1.2,2.2h-.1Z"/><path class="cls-8" d="M760.5,398.4c0-14.4-11.7-26.3-26.3-26.3s-26.3,11.7-26.3,26.3,11.7,26.3,26.3,26.3,26.3-11.8,26.3-26.3Z"/><path class="cls-8" d="M807.6,398.4c0-40.5-33-73.4-73.4-73.4s-73.4,33-73.4,73.4,47.3,124.9,73.4,172.7c26.1-47.7,73.4-141,73.4-172.7h0ZM689.8,398.4c0-24.6,20-44.5,44.5-44.5s44.5,20,44.5,44.5-20,44.5-44.5,44.5-44.5-20-44.5-44.5Z"/></g><g id="character"><polygon class="cls-9" points="175.5 282.5 159.5 315.7 179.9 367.1 223.9 307.4 175.5 282.5"/><path class="cls-10" d="M464.57,161.13l-27.27,11.87,20.5,65.9h-2.1c-6.1-10-17.1-16.7-29.7-16.7h-1.9c-11.7,0-22,5.8-28.3,14.7l-25.7,1.2,5.9,46.7,108.4-2.2c18.3-.4,30.1-19.6,22.1-36.1l-41.39-85.33-.47-.19.09.2-.16-.04Z"/><path class="cls-10" d="M437.34,173.06c-4.8-1.3-18.52-11.68-18.52-11.68l-19,2.5c-2.5.3-4.9-1.4-5.2-4h0c-.3-2.5,1.4-4.9,4-5.2l1,.5h0c-1.5-.8-2.4-2.3-2.5-4-1.4.2-2.8-.2-3.9-1.3-1-.9-1.4-2.2-1.4-3.5-1.5-1.8-1.4-4.5.3-6.2l16.7-17.5c1.7-1.8,4.4-2.1,6.5-.9l38.8,22.8,11,16.6-27.8,11.9h0l.02-.02Z"/><path class="cls-9" d="M429.9,158.7c-6.4-2.7-10.3-8.4-10.5-8.7l1.1-.7s3.9,5.6,10,8.2l-.5,1.2h-.1Z"/><rect class="cls-9" x="396.37" y="143.16" width="22.9" height="1.3" transform="translate(152.89 493.1) rotate(-73.3)"/><path class="cls-9" d="M418.06,159.6c-.1,0-.16,0-.26,0l-10.3-1.4c-2.1-.3-3-1.5-3.4-2.6-1.4.7-3.1.7-4.6,0-2.6-1.3-3.6-4.5-2.3-7.1l9.8-20,1.1.6-9.8,20c-1,2-.2,4.4,1.8,5.4,1.3.7,2.9.6,4.1-.3l1.1-.8v1.3c0,.2-.1,2,2.3,2.4l10.3,1.4c.65.03,1.3-.2,1.6-.8l2.6-4.8,1.1.6-2.6,4.8c-.5.9-1.49,1.29-2.49,1.29h-.02s-.03,0-.03,0Z"/><path class="cls-4" d="M394.9,236.7h-183.3c-15.9,1.2-28.8,11.8-33.9,25.9h0l-9.3,23.6,42.9,36.6-1.2,92.8h167l-1.6-89.7,19.5-19.8v-69.5l-.1.1Z"/><path class="cls-10" d="M285.3,1072.2l2.8-581.7h-17.9c-50.5,0-87.5,20.4-83.5,77.3l48.6,504.4h50Z"/><path class="cls-10" d="M368.9,1078l-79.4-584.5,18-.4c51-1.2,92.7,17.3,90,73.7l25,510.2-53.6,1.1h0v-.1Z"/><polygon class="cls-5" points="286.8 886.2 217.3 886.2 229.4 1020.7 285.9 1020.7 286.8 886.2"/><polygon class="cls-4" points="285.9 1020.7 229.4 1020.7 228.8 1020.7 229.9 1086.5 208 1107.9 205.8 1128.1 286.9 1128.1 286.9 1107.9 286.9 1087.1 286.9 1081.1 286.9 1020.7 285.9 1020.7"/><path class="cls-8" d="M377,415.7h-167s-37.3,80.1-27.7,200.4c.4,4.5,111.4,3.1,111.4,3.1l1.3-76.3h1.2l4.2,76.3s108.1,1.4,108.5-3.1c9.6-120.2-31.9-200.4-31.9-200.4h0Z"/><circle class="cls-10" cx="334.4" cy="178.15" r="11.9"/><circle class="cls-10" cx="253.9" cy="178.15" r="11.9"/><path class="cls-10" d="M301.7,115.05h-15c-17.3,0-31.3,14-31.3,31.3v54.8c0,8.8,3.7,16.8,9.5,22.5,5.6,5.5,13.3,8.8,21.8,8.8h15c8.5,0,16.2-3.4,21.8-8.8,5.9-5.7,9.5-13.7,9.5-22.5v-54.8c0-17.3-14-31.3-31.3-31.3h0Z"/><rect class="cls-3" x="249.7" y="181.55" width="6.1" height="41.7"/><path class="cls-3" d="M318.2,115.05c3.8-4.9,6.2-11.1,6.2-17.8,0-16-12.9-28.9-28.8-28.9s-28.8,12.9-28.8,28.9,2.1,12.2,5.5,17c-13.1,4.7-22.6,17.2-22.6,32v42.3h6.1v-22.7c0-7,2.3-13.5,6.1-18.7,1.7,1,3.6,1.7,5.8,1.7h53c2.1,0,4.1-.6,5.8-1.7,3.8,5.2,6.1,11.7,6.1,18.7v12h6.1v-31.6c0-13.9-8.4-25.9-20.4-31.1h0l-.1-.1Z"/><path class="cls-9" d="M286.7,232.3c-8.5,0-16.2-3.4-21.8-8.8v26.4c0,16.2,13.1,29.3,29.3,29.3s29.3-13.1,29.3-29.3v-26.4c-5.6,5.5-13.3,8.8-21.8,8.8h-15Z"/><path class="cls-6" d="M294.4,200.45c-.4,0-.9,0-1.4-.1-1.4-.3-2.6-1-3.8-2.1-.7-.6-1.3-.9-2-.8-1.4.1-2.5,1.5-2.5,1.5l-1.1-.8s1.4-1.9,3.4-2c1.1,0,2.1.3,3.1,1.2s2.1,1.5,3.2,1.7,2.1.1,3-.3c.4-.2.7-.5,1.1-.8.4-.4,1.6-1.5,3.2-1.6,1.3,0,2.7.6,4,1.8l-.9,1c-1-1-2-1.5-3-1.4-1.1,0-2,.8-2.3,1.1-.5.5-.9.9-1.4,1.1-.8.4-1.6.6-2.5.6h0l-.1-.1Z"/><path class="cls-3" d="M313.8,163.55h.4c4.7,0,9,2.4,11.8,6.3h-24.2c2.8-4,7.2-6.3,11.9-6.3h.1Z"/><path class="cls-11" d="M303.4,183.95s3-7.7,8.6-9.6c5.6-1.9,12.1,1.9,12.1,1.9,0,0-2.7,5.8-8.3,7.7-5.6,1.9-12.4,0-12.4,0h0Z"/><circle class="cls-6" cx="313.4" cy="179.55" r="4.8"/><path class="cls-6" d="M303.4,183.95c1.6-12.8,17.9-13.8,22-9.7-.5.8-.9,1.2-1.3,2-1.7-1-15.4-5.6-20.7,7.7,0,0,.7-.6,0,0h0Z"/><path class="cls-3" d="M277.1,156.45h-.4c-4.4-1.6-9.3-.7-13.2,2.2h0l23,7.4h0c-1.5-4.6-5-8.1-9.4-9.6h0Z"/><path class="cls-11" d="M284,183.95s-3-7.7-8.6-9.6c-5.6-1.9-12.1,1.9-12.1,1.9,0,0,2.7,5.8,8.3,7.7,5.6,1.9,12.4,0,12.4,0h0Z"/><circle class="cls-6" cx="273.9" cy="179.55" r="4.8"/><path class="cls-6" d="M284,183.95c-1.6-12.8-17.9-13.8-22-9.7.5.8.9,1.2,1.3,2,1.7-1,15.4-5.6,20.7,7.7,0,0-.7-.6,0,0h0Z"/><path class="cls-2" d="M305,209.95c-1-2.6-4.9-.7-4.9-.7l-9,3.5c-.1-.5,20.3,14.4,26-10.2l-9,3.5s-4.1,1.2-3.1,3.8h0v.1Z"/><rect class="cls-4" x="366.6" y="1107.2" width="134.7" height="20.8"/><polygon class="cls-4" points="437 1080.5 422.1 1031.7 361.6 1033.7 366.6 1101.1 366.6 1107.2 366.8 1107.2 460.6 1107.2 501.29 1107.41 501.29 1095.91 437 1080.5"/><polygon class="cls-5" points="417.9 983.7 355.3 978.2 362.4 1033.7 420.3 1031.9 417.9 983.7"/><polygon class="cls-1" points="207.2 1114.9 286.9 1114.9 286.9 1128.1 205.8 1128.1 207.2 1114.9"/><polygon class="cls-1" points="366.5 1114.9 501.35 1114.9 501.35 1128.1 366.4 1128.1 366.5 1114.9"/><path class="cls-10" d="M131.27,219.05l-25.5,8.8-8.6-34.2,21.8-17.1h3.1c0-.1.8,7.6,1,10.3,0,.9.1,1.7.2,3,.1,1.6,1.4,2.8,2.9,2.8s2.3-1.9,2.2-3.5l.6.4c.2-.2.3-.5.5-.8,4.3-7.4,10.5.4,10.5.4l-8.8,30h0l.1-.1Z"/><path class="cls-8" d="M74.37,217.25c-1.2-.5-3.2-.2-3.7,1.1-6.6,12.2-16.4,31.4,1.6,40.6,18.2,9.7,26.4-9.4,33.9-25.5.9-1.4.2-3.2-1.7-3.9,0,0-30.1-12.3-30.1-12.3Z"/><path class="cls-8" d="M121.67,127.05c-19.6-7-35.9,15-39.3,39.2-1.9,12.2-2.5,21.7-3.9,29.1,0,1.1.5,2.4,1.8,2.9,14.8,4.4,28.7,11.4,34,14.2,1.2.5,2.7.4,3.2-.9,6.6-12.2,13.9-25.1,17.5-36,5.2-16.7,4.5-42.2-13.2-48.5h-.1Z"/><path class="cls-10" d="M141.07,188.05l-5.3-21.1c-.8-3.1-3.9-4.9-7-4.1-3.1.8-4.9,4-4.1,7l4.6,17.5c0,.3,0-.1,0,.2.5,1.8-.2,3.7-1.9,4l-20.6,35.3,34.3-38.8h0Z"/><path class="cls-10" d="M105.57,226.55l29.3,128.6c.2,1.5.6,3,1.1,4.4v.3h0c3.5,10.1,13.1,17.3,24.4,17.3s26.13-11.6,25.8-25.9c-.08-3.38-.1-2.9-.4-4.3l-.2-1.2-.4-1.5c-.4-1.4-.9-2.8-1.5-4.1l-51.4-122.2h0l8.9-30"/></g></svg>