<svg viewBox="0 0 1600 1200" fill="none" xmlns="http://www.w3.org/2000/svg"><path fill-rule="evenodd" clip-rule="evenodd" d="M1342.91 1019.98C1340.27 1016.26 1337.29 1012.71 1333.93 1009.41L1099.68 779.746L1023.54 954.672L1103.72 1019.98H1342.91Z" fill="#F5836D"/><path fill-rule="evenodd" clip-rule="evenodd" d="M809.845 722.127C809.845 756.894 838.02 785.078 872.775 785.078C907.53 785.078 935.705 756.894 935.705 722.127C935.705 687.361 907.53 659.177 872.775 659.177C838.02 659.177 809.845 687.361 809.845 722.127Z" fill="#5C1C13"/><path fill-rule="evenodd" clip-rule="evenodd" d="M559.01 722.127C559.01 756.894 587.185 785.078 621.94 785.078C656.695 785.078 684.87 756.894 684.87 722.127C684.87 687.361 656.695 659.177 621.94 659.177C587.185 659.177 559.01 687.361 559.01 722.127Z" fill="#5C1C13"/><path fill-rule="evenodd" clip-rule="evenodd" d="M536.925 948.709L454.5 1019.98H243L387.766 769.632L536.925 948.709Z" fill="#FFA28F"/><path fill-rule="evenodd" clip-rule="evenodd" d="M481.629 1019.98L475.206 718.27H1022.6L1018.5 1019.98H481.629Z" fill="#F7E5CD"/><path fill-rule="evenodd" clip-rule="evenodd" d="M348.615 860.526C343.125 787.662 397.723 724.141 470.563 718.649C543.405 713.157 606.904 767.773 612.394 840.637C617.885 913.502 517.84 1019.98 517.84 1019.98C517.84 1019.98 354.105 933.39 348.615 860.526Z" fill="#F7E5CD"/><path fill-rule="evenodd" clip-rule="evenodd" d="M1157.55 860.526C1163.04 787.662 1108.45 724.141 1035.61 718.649C962.765 713.157 899.265 767.773 893.775 840.637C888.285 913.502 990.308 1016.78 990.308 1016.78C990.308 1016.78 1152.06 933.39 1157.55 860.526Z" fill="#F7E5CD"/><path fill-rule="evenodd" clip-rule="evenodd" d="M787.761 601.416C787.761 649.238 826.516 688.007 874.324 688.007C922.131 688.007 960.886 649.238 960.886 601.416C960.886 553.593 922.131 514.824 874.324 514.824C826.516 514.824 787.761 553.593 787.761 601.416Z" fill="#5C1C13"/><path fill-rule="evenodd" clip-rule="evenodd" d="M536.926 601.416C536.926 649.238 575.681 688.007 623.489 688.007C671.296 688.007 710.051 649.238 710.051 601.416C710.051 553.593 671.296 514.824 623.489 514.824C575.681 514.824 536.926 553.593 536.926 601.416Z" fill="#5C1C13"/><path fill-rule="evenodd" clip-rule="evenodd" d="M917.355 509.148C917.355 530.54 900.019 547.881 878.635 547.881C857.251 547.881 839.915 530.54 839.915 509.148C839.915 487.757 857.251 470.416 878.635 470.416C900.019 470.416 917.355 487.757 917.355 509.148Z" fill="#FFA28F"/><path fill-rule="evenodd" clip-rule="evenodd" d="M654.62 509.037C654.62 530.428 637.284 547.77 615.9 547.77C594.516 547.77 577.18 530.428 577.18 509.037C577.18 487.646 594.516 470.305 615.9 470.305C637.284 470.305 654.62 487.646 654.62 509.037Z" fill="#FFA28F"/><path fill-rule="evenodd" clip-rule="evenodd" d="M651.702 710.655V586.512L843.013 586.805V710.655C843.013 763.501 800.187 806.341 747.357 806.341C694.529 806.341 651.702 763.501 651.702 710.655Z" fill="#F5836D"/><path fill-rule="evenodd" clip-rule="evenodd" d="M620.564 568.529V389.905C620.564 333.442 666.321 287.671 722.765 287.671H771.95C828.394 287.671 874.151 333.442 874.151 389.905V568.529C874.151 624.991 828.394 670.762 771.95 670.762H722.765C666.321 670.762 620.564 624.991 620.564 568.529Z" fill="#FFA28F"/><path fill-rule="evenodd" clip-rule="evenodd" d="M779.868 504.291C779.868 504.291 788.758 481.48 805.389 475.701C822.021 469.921 841.491 481.215 841.491 481.215C841.491 481.215 833.444 498.502 816.812 504.282C800.18 510.061 779.868 504.291 779.868 504.291Z" fill="white"/><path fill-rule="evenodd" clip-rule="evenodd" d="M795.492 491.125C795.492 499.078 801.936 505.525 809.886 505.525C817.836 505.525 824.282 499.078 824.282 491.125C824.282 483.172 817.836 476.726 809.886 476.726C801.936 476.726 795.492 483.172 795.492 491.125Z" fill="black"/><path fill-rule="evenodd" clip-rule="evenodd" d="M779.866 504.282C784.586 466.146 826.14 456.431 845.916 473.39C844.499 475.65 842.907 478.956 841.491 481.216C836.391 478.133 795.492 464.45 779.866 504.282C781.921 502.517 779.034 506.403 779.866 504.282Z" fill="black"/><path fill-rule="evenodd" clip-rule="evenodd" d="M713.069 502.872C713.069 502.872 704.18 480.062 687.549 474.282C670.917 468.502 651.447 479.796 651.447 479.796C651.447 479.796 659.494 497.083 676.126 502.863C692.758 508.642 713.069 502.872 713.069 502.872Z" fill="white"/><path fill-rule="evenodd" clip-rule="evenodd" d="M697.445 489.706C697.445 497.659 691.001 504.106 683.051 504.106C675.101 504.106 668.655 497.659 668.655 489.706C668.655 481.753 675.101 475.307 683.051 475.307C691.001 475.307 697.445 481.753 697.445 489.706Z" fill="black"/><path fill-rule="evenodd" clip-rule="evenodd" d="M713.071 502.863C708.351 464.727 666.797 455.012 647.021 471.971C648.438 474.231 650.03 477.537 651.447 479.797C656.546 476.714 697.445 463.031 713.071 502.863C713.904 504.984 711.017 501.098 713.071 502.863Z" fill="black"/><path fill-rule="evenodd" clip-rule="evenodd" d="M763.676 432.442C794.145 391.596 832.602 388.859 862.576 430.287C862.576 430.287 833.992 421.88 810.435 421.88C786.633 421.88 763.676 432.442 763.676 432.442Z" fill="#5C1C13"/><path fill-rule="evenodd" clip-rule="evenodd" d="M731.039 432.442C700.57 391.596 662.112 388.859 632.139 430.287C632.139 430.287 660.722 421.88 684.28 421.88C708.082 421.88 731.039 432.442 731.039 432.442Z" fill="#5C1C13"/><path fill-rule="evenodd" clip-rule="evenodd" d="M733.655 578.843L690.756 577.736C690.756 577.736 714.188 620.425 748.364 620.425C784.696 620.425 804.613 578.088 804.613 578.088L761.884 578.848C757.046 579.195 752.532 581.406 749.291 585.014L747.815 586.659L745.351 584.215C742.209 581.098 738.066 579.196 733.655 578.843Z" fill="#5C1C13"/><path fill-rule="evenodd" clip-rule="evenodd" d="M739.082 589.157L712.749 588.523C712.749 588.523 730.328 609.432 747.821 609.434C764.776 609.436 783.98 589.013 783.98 589.013L756.758 589.235C753.322 589.481 750.117 591.051 747.815 593.613L747.146 592.949C744.974 590.795 742.126 589.455 739.082 589.157Z" fill="white"/><path fill-rule="evenodd" clip-rule="evenodd" d="M622.052 528.033V452.936C622.052 396.472 667.272 350.701 723.054 350.701H736.964V319.091L754.828 350.701H771.661C827.444 350.701 872.664 396.472 872.664 452.936V528.033H892.474V389.073C892.474 327.886 842.887 278.285 781.722 278.285H712.994C651.828 278.285 602.243 327.886 602.243 389.073V528.033H622.052Z" fill="#5C1C13"/><path fill-rule="evenodd" clip-rule="evenodd" d="M1357 1019.98L1245.11 681.983L1146.04 718.267L1190 1019.98H1357Z" fill="#FFA28F"/><path fill-rule="evenodd" clip-rule="evenodd" d="M1050.78 492.219L1089.22 630.838L1123.56 622.299L1085.12 483.678C1082.76 474.196 1073.17 468.418 1063.69 470.777C1054.2 473.135 1048.42 482.735 1050.78 492.219Z" fill="#FFA28F"/><path fill-rule="evenodd" clip-rule="evenodd" d="M1167.31 486.821L1192.95 589.982L1227.29 581.444L1201.65 478.281C1199.3 468.798 1189.7 463.02 1180.22 465.379C1170.73 467.737 1164.96 477.337 1167.31 486.821Z" fill="#FFA28F"/><path fill-rule="evenodd" clip-rule="evenodd" d="M1098.5 609.723L1078.12 583.527L1220.09 551.631L1238.15 622.352C1241.1 634.978 1242.34 647.859 1240.23 660.65L1271.42 786.164L1164.88 811.928L1140.72 717.313C1123.71 708.314 1093.28 679.488 1076.41 662.748C1073.27 659.644 1071.57 655.395 1071.7 650.984L1073.16 611.8" fill="#FFA28F"/><path fill-rule="evenodd" clip-rule="evenodd" d="M1159.88 539.385L1160.1 539.326C1169.88 536.827 1179.82 542.728 1182.31 552.5L1196.45 607.845C1198.95 617.618 1193.05 627.564 1183.28 630.062L1183.06 630.119C1173.28 632.618 1163.34 626.718 1160.84 616.944L1146.71 561.599C1144.21 551.827 1150.11 541.88 1159.88 539.385Z" fill="#FFA28F"/><path fill-rule="evenodd" clip-rule="evenodd" d="M1124.15 548.514L1124.37 548.457C1134.14 545.962 1144.09 551.858 1146.59 561.631L1160.71 616.98C1163.2 626.752 1157.32 636.696 1147.54 639.197L1147.31 639.253C1137.55 641.75 1127.6 635.854 1125.1 626.082L1110.96 570.736C1108.47 560.964 1114.37 551.015 1124.15 548.514Z" fill="#FFA28F"/><path fill-rule="evenodd" clip-rule="evenodd" d="M1142.79 641.479C1139.21 641.479 1135.7 640.523 1132.56 638.657C1128.03 635.963 1124.82 631.682 1123.53 626.601L1109.32 571.035L1112.55 570.21L1126.76 625.778C1127.83 629.998 1130.49 633.553 1134.26 635.792C1138.12 638.084 1142.65 638.728 1147.02 637.609C1155.94 635.332 1161.37 626.31 1159.13 617.501L1144.93 561.936L1148.29 561.075L1162.49 616.648C1164.74 625.452 1173.83 630.755 1182.75 628.479C1187.08 627.373 1190.72 624.669 1193.01 620.866C1195.3 617.07 1195.95 612.633 1194.86 608.372L1180.67 552.8L1183.9 551.976L1198.09 607.547C1199.4 612.677 1198.61 618.019 1195.87 622.583C1193.12 627.142 1188.76 630.382 1183.57 631.708C1175.57 633.755 1167.44 630.693 1162.73 624.587C1161.51 632.21 1155.85 638.794 1147.85 640.838C1146.17 641.267 1144.47 641.479 1142.79 641.479Z" fill="#F5836D"/><path fill-rule="evenodd" clip-rule="evenodd" d="M1164.45 595.662L1164.5 595.892C1166.93 605.683 1160.97 615.592 1151.19 618.026L1095.76 631.809C1085.98 634.241 1076.09 628.276 1073.64 618.491L1073.59 618.26C1071.16 608.471 1077.11 598.566 1086.9 596.127L1142.31 582.348C1152.11 579.911 1162.01 585.878 1164.45 595.662Z" fill="#FFA28F"/><path fill-rule="evenodd" clip-rule="evenodd" d="M1096.16 633.426L1095.36 630.192L1150.79 616.409C1159.66 614.2 1165.09 605.176 1162.89 596.293L1162.83 596.042C1160.62 587.186 1151.59 581.754 1142.72 583.964L1087.31 597.745L1086.5 594.509L1141.91 580.73C1152.57 578.084 1163.4 584.597 1166.07 595.258L1166.13 595.513C1168.77 606.156 1162.25 616.989 1151.59 619.643L1096.16 633.426Z" fill="#F5836D"/><path fill-rule="evenodd" clip-rule="evenodd" d="M1086.01 635.391C1086.01 635.391 1136.4 609.781 1169.54 662.094L1086.01 635.391Z" fill="#FFA28F"/><path fill-rule="evenodd" clip-rule="evenodd" d="M1168.13 662.984C1154.74 641.845 1137.02 631.013 1115.47 630.792C1099.27 630.617 1086.89 636.814 1086.77 636.878L1085.26 633.906C1085.78 633.639 1098.14 627.457 1114.81 627.457C1115 627.457 1115.18 627.457 1115.36 627.459C1131.05 627.587 1153.43 633.545 1170.94 661.202L1168.13 662.984Z" fill="#F5836D"/><path fill-rule="evenodd" clip-rule="evenodd" d="M785.155 1019.96L712.729 1020L712.607 812.445L785.035 812.402L785.155 1019.96Z" fill="#FBB03B"/><path fill-rule="evenodd" clip-rule="evenodd" d="M712.624 840.153L712.645 878.086L785.093 913.601L785.071 875.668L712.624 840.153Z" fill="#ED1E79"/><path fill-rule="evenodd" clip-rule="evenodd" d="M712.67 919.717L712.692 957.651L785.139 993.166L785.117 955.232L712.67 919.717Z" fill="#ED1E79"/><path fill-rule="evenodd" clip-rule="evenodd" d="M841.696 1019.98C845.774 1015.57 847.754 1009.34 846.502 1003.02C845.062 995.751 839.736 990.274 833.14 988.253L834.569 987.944C844.92 985.714 851.572 975.593 849.513 965.202C847.406 954.567 836.996 947.722 826.401 950.005L823.801 950.565C828.967 945.733 831.333 938.271 829.292 930.998C826.389 920.645 815.672 914.581 805.306 917.424L757.316 930.585L757.171 930.242L756.155 930.905L702.424 945.64L732.408 878.745C737.026 868.442 732.42 856.344 722.12 851.724C711.82 847.104 699.726 851.712 695.108 862.015L634.923 996.292L510.831 1019.98H555.462H841.696Z" fill="#FFA28F"/><path fill-rule="evenodd" clip-rule="evenodd" d="M428.456 479.372C430.293 480.333 432.2 481.26 434.177 482.151C450.197 489.376 462.008 489.96 468.332 483.841C475.315 477.086 474.265 463.723 470.335 454.167C466.56 444.984 460.301 439.077 454.364 439.077C454.329 439.077 454.293 439.077 454.259 439.077C446.534 439.169 438.677 448.601 432.135 465.636C430.402 470.148 429.176 474.738 428.456 479.372ZM539.927 589.797C528.815 589.797 517.316 588.071 505.865 584.64C472.407 574.617 443.213 551.261 429.675 523.687C423.097 510.288 420.414 496.446 421.668 482.848C383.958 461.234 375.218 426.009 374.819 399.26C374.458 375.007 380.789 348.112 392.648 323.53C403.433 301.17 417.187 284.256 429.439 278.285L432.2 283.954C411.093 294.241 380.346 347.152 381.122 399.166C381.488 423.676 389.304 455.772 422.622 476.078C423.435 471.8 424.644 467.558 426.251 463.374C435.903 438.24 446.769 432.859 454.185 432.773C462.897 432.672 471.306 439.949 476.165 451.768C481.036 463.614 481.858 479.527 472.715 488.374C466.902 493.998 455.048 498.48 431.586 487.9C430.285 487.312 429.011 486.71 427.767 486.096C427.185 497.695 429.718 509.469 435.334 520.907C448.122 546.958 475.842 569.064 507.673 578.6C525.935 584.07 544.267 584.973 560.689 581.208L562.098 587.355C554.985 588.985 547.546 589.797 539.927 589.797Z" fill="#FBB03B"/><path fill-rule="evenodd" clip-rule="evenodd" d="M825.349 445.344C825.349 451.072 820.707 455.716 814.981 455.716C809.256 455.716 804.613 451.072 804.613 445.344C804.613 439.616 809.256 434.972 814.981 434.972C820.707 434.972 825.349 439.616 825.349 445.344Z" fill="#ED1E79"/><path fill-rule="evenodd" clip-rule="evenodd" d="M668.977 568.901C668.977 572.663 665.929 575.713 662.169 575.713C658.409 575.713 655.36 572.663 655.36 568.901C655.36 565.14 658.409 562.09 662.169 562.09C665.929 562.09 668.977 565.14 668.977 568.901Z" fill="#ED1E79"/><path fill-rule="evenodd" clip-rule="evenodd" d="M532.236 370.417C532.236 374.008 529.326 376.918 525.737 376.918C522.147 376.918 519.237 374.008 519.237 370.417C519.237 366.826 522.147 363.915 525.737 363.915C529.326 363.915 532.236 366.826 532.236 370.417Z" fill="#ED1E79"/><path fill-rule="evenodd" clip-rule="evenodd" d="M702.074 748.457C702.074 752.133 699.095 755.114 695.42 755.114C691.746 755.114 688.768 752.133 688.768 748.457C688.768 744.781 691.746 741.801 695.42 741.801C699.095 741.801 702.074 744.781 702.074 748.457Z" fill="#ED1E79"/><path fill-rule="evenodd" clip-rule="evenodd" d="M841.935 627.727C841.935 629.504 840.495 630.945 838.719 630.945C836.943 630.945 835.503 629.504 835.503 627.727C835.503 625.951 836.943 624.51 838.719 624.51C840.495 624.51 841.935 625.951 841.935 627.727Z" fill="#ED1E79"/><path fill-rule="evenodd" clip-rule="evenodd" d="M1033.32 379.042C1033.32 382.266 1030.71 384.881 1027.49 384.881C1024.26 384.881 1021.65 382.266 1021.65 379.042C1021.65 375.817 1024.26 373.202 1027.49 373.202C1030.71 373.202 1033.32 375.817 1033.32 379.042Z" fill="#ED1E79"/><path fill-rule="evenodd" clip-rule="evenodd" d="M709.891 225.06C709.891 231.84 704.397 237.337 697.619 237.337C690.84 237.337 685.346 231.84 685.346 225.06C685.346 218.28 690.84 212.783 697.619 212.783C704.397 212.783 709.891 218.28 709.891 225.06Z" fill="#ED1E79"/><path fill-rule="evenodd" clip-rule="evenodd" d="M970.29 205.353C970.29 207.405 968.628 209.069 966.576 209.069C964.525 209.069 962.862 207.405 962.862 205.353C962.862 203.301 964.525 201.638 966.576 201.638C968.628 201.638 970.29 203.301 970.29 205.353Z" fill="#FBB03B"/><path fill-rule="evenodd" clip-rule="evenodd" d="M555.483 560.091C555.483 563.444 552.766 566.162 549.415 566.162C546.063 566.162 543.346 563.444 543.346 560.091C543.346 556.738 546.063 554.02 549.415 554.02C552.766 554.02 555.483 556.738 555.483 560.091Z" fill="#ED1E79"/><path fill-rule="evenodd" clip-rule="evenodd" d="M796.213 668.381C796.213 671.267 793.875 673.606 790.99 673.606C788.105 673.606 785.767 671.267 785.767 668.381C785.767 665.495 788.105 663.156 790.99 663.156C793.875 663.156 796.213 665.495 796.213 668.381Z" fill="#232144"/><path fill-rule="evenodd" clip-rule="evenodd" d="M899.893 416.76C899.893 420.149 897.146 422.897 893.758 422.897C890.371 422.897 887.624 420.149 887.624 416.76C887.624 413.371 890.371 410.623 893.758 410.623C897.146 410.623 899.893 413.371 899.893 416.76Z" fill="#FBB03B"/><path fill-rule="evenodd" clip-rule="evenodd" d="M648.769 304.468C648.769 306.52 647.106 308.183 645.055 308.183C643.004 308.183 641.341 306.52 641.341 304.468C641.341 302.415 643.004 300.752 645.055 300.752C647.106 300.752 648.769 302.415 648.769 304.468Z" fill="#FBB03B"/><path fill-rule="evenodd" clip-rule="evenodd" d="M690.756 414.813C690.756 417.127 688.88 419.002 686.567 419.002C684.254 419.002 682.379 417.127 682.379 414.813C682.379 412.499 684.254 410.622 686.567 410.622C688.88 410.622 690.756 412.499 690.756 414.813Z" fill="#FBB03B"/><path fill-rule="evenodd" clip-rule="evenodd" d="M713.629 621.59C713.629 623.294 712.248 624.676 710.543 624.676C708.839 624.676 707.458 623.294 707.458 621.59C707.458 619.885 708.839 618.503 710.543 618.503C712.248 618.503 713.629 619.885 713.629 621.59Z" fill="#006931"/><path fill-rule="evenodd" clip-rule="evenodd" d="M785.767 468.429C785.767 469.466 784.927 470.306 783.891 470.306C782.855 470.306 782.016 469.466 782.016 468.429C782.016 467.393 782.855 466.553 783.891 466.553C784.927 466.553 785.767 467.393 785.767 468.429Z" fill="#006931"/><path fill-rule="evenodd" clip-rule="evenodd" d="M767.158 365.222C767.158 369.582 763.624 373.118 759.265 373.118C754.907 373.118 751.374 369.582 751.374 365.222C751.374 360.862 754.907 357.326 759.265 357.326C763.624 357.326 767.158 360.862 767.158 365.222Z" fill="#006931"/><path fill-rule="evenodd" clip-rule="evenodd" d="M909.642 332.565C909.642 335.259 907.46 337.442 904.767 337.442C902.076 337.442 899.893 335.259 899.893 332.565C899.893 329.872 902.076 327.688 904.767 327.688C907.46 327.688 909.642 329.872 909.642 332.565Z" fill="#006931"/><path fill-rule="evenodd" clip-rule="evenodd" d="M606.984 213.441C606.984 216.262 604.698 218.549 601.878 218.549C599.057 218.549 596.771 216.262 596.771 213.441C596.771 210.619 599.057 208.332 601.878 208.332C604.698 208.332 606.984 210.619 606.984 213.441Z" fill="#006931"/><path fill-rule="evenodd" clip-rule="evenodd" d="M641.34 663.779C641.34 666.321 639.28 668.381 636.74 668.381C634.199 668.381 632.139 666.321 632.139 663.779C632.139 661.237 634.199 659.177 636.74 659.177C639.28 659.177 641.34 661.237 641.34 663.779Z" fill="#F7E5CD"/><path fill-rule="evenodd" clip-rule="evenodd" d="M756.002 520.933C756.002 526.482 751.505 530.98 745.957 530.98C740.41 530.98 735.913 526.482 735.913 520.933C735.913 515.383 740.41 510.885 745.957 510.885C751.505 510.885 756.002 515.383 756.002 520.933Z" fill="#006931"/><path fill-rule="evenodd" clip-rule="evenodd" d="M787.76 256.543C787.76 259.314 785.514 261.562 782.743 261.562C779.972 261.562 777.726 259.314 777.726 256.543C777.726 253.771 779.972 251.523 782.743 251.523C785.514 251.523 787.76 253.771 787.76 256.543Z" fill="#7070FF"/><path fill-rule="evenodd" clip-rule="evenodd" d="M594.913 466.551C594.913 471.04 591.276 474.679 586.788 474.679C582.301 474.679 578.664 471.04 578.664 466.551C578.664 462.062 582.301 458.424 586.788 458.424C591.276 458.424 594.913 462.062 594.913 466.551Z" fill="#7070FF"/><path fill-rule="evenodd" clip-rule="evenodd" d="M819.095 533.875C819.095 536.431 817.024 538.503 814.47 538.503C811.916 538.503 809.846 536.431 809.846 533.875C809.846 531.32 811.916 529.248 814.47 529.248C817.024 529.248 819.095 531.32 819.095 533.875Z" fill="#7070FF"/><path fill-rule="evenodd" clip-rule="evenodd" d="M652.947 371.114C652.947 374.32 650.349 376.919 647.144 376.919C643.939 376.919 641.34 374.32 641.34 371.114C641.34 367.908 643.939 365.309 647.144 365.309C650.349 365.309 652.947 367.908 652.947 371.114Z" fill="#7070FF"/><path fill-rule="evenodd" clip-rule="evenodd" d="M730.842 706.27C732.972 706.27 734.699 707.997 734.699 710.129C734.699 712.26 732.972 713.987 730.842 713.987C728.712 713.987 726.984 712.26 726.984 710.129C726.984 707.997 728.712 706.27 730.842 706.27Z" fill="#7070FF"/><path fill-rule="evenodd" clip-rule="evenodd" d="M772.196 774.663C772.196 780.415 767.535 785.078 761.785 785.078C756.035 785.078 751.373 780.415 751.373 774.663C751.373 768.911 756.035 764.248 761.785 764.248C767.535 764.248 772.196 768.911 772.196 774.663Z" fill="#F7E5CD"/><path fill-rule="evenodd" clip-rule="evenodd" d="M685.505 630.944C685.505 634.898 682.301 638.103 678.349 638.103C674.396 638.103 671.192 634.898 671.192 630.944C671.192 626.99 674.396 623.785 678.349 623.785C682.301 623.785 685.505 626.99 685.505 630.944Z" fill="#7070FF"/><path fill-rule="evenodd" clip-rule="evenodd" d="M860.985 577.737C860.985 581.725 857.753 584.958 853.767 584.958C849.781 584.958 846.55 581.725 846.55 577.737C846.55 573.749 849.781 570.516 853.767 570.516C857.753 570.516 860.985 573.749 860.985 577.737Z" fill="#7070FF"/><path fill-rule="evenodd" clip-rule="evenodd" d="M820.689 193.933C820.689 201.628 814.453 207.866 806.761 207.866C799.069 207.866 792.832 201.628 792.832 193.933C792.832 186.238 799.069 180 806.761 180C814.453 180 820.689 186.238 820.689 193.933Z" fill="#7070FF"/><path fill-rule="evenodd" clip-rule="evenodd" d="M553.484 294.517C553.484 299.091 549.777 302.799 545.205 302.799C540.633 302.799 536.926 299.091 536.926 294.517C536.926 289.943 540.633 286.234 545.205 286.234C549.777 286.234 553.484 289.943 553.484 294.517Z" fill="#7070FF"/><path fill-rule="evenodd" clip-rule="evenodd" d="M478.423 646.169C478.423 647.058 477.703 647.778 476.814 647.778C475.927 647.778 475.207 647.058 475.207 646.169C475.207 645.28 475.927 644.56 476.814 644.56C477.703 644.56 478.423 645.28 478.423 646.169Z" fill="#7070FF"/><path fill-rule="evenodd" clip-rule="evenodd" d="M977.644 479.169C977.644 481.653 975.631 483.667 973.148 483.667C970.666 483.667 968.653 481.653 968.653 479.169C968.653 476.686 970.666 474.672 973.148 474.672C975.631 474.672 977.644 476.686 977.644 479.169Z" fill="#7070FF"/><path fill-rule="evenodd" clip-rule="evenodd" d="M429.4 223.775C429.4 226.661 427.062 229 424.177 229C421.292 229 418.954 226.661 418.954 223.775C418.954 220.889 421.292 218.55 424.177 218.55C427.062 218.55 429.4 220.889 429.4 223.775Z" fill="#7070FF"/><path fill-rule="evenodd" clip-rule="evenodd" d="M982.14 276.037C982.14 277.279 981.134 278.285 979.892 278.285C978.651 278.285 977.644 277.279 977.644 276.037C977.644 274.794 978.651 273.788 979.892 273.788C981.134 273.788 982.14 274.794 982.14 276.037Z" fill="#7070FF"/><path fill-rule="evenodd" clip-rule="evenodd" d="M984.36 414.813C984.36 418.523 981.353 421.532 977.644 421.532C973.934 421.532 970.928 418.523 970.928 414.813C970.928 411.102 973.934 408.094 977.644 408.094C981.353 408.094 984.36 411.102 984.36 414.813Z" fill="#232144"/><path fill-rule="evenodd" clip-rule="evenodd" d="M642.845 520.933C642.845 524.306 640.112 527.041 636.74 527.041C633.368 527.041 630.634 524.306 630.634 520.933C630.634 517.559 633.368 514.825 636.74 514.825C640.112 514.825 642.845 517.559 642.845 520.933Z" fill="#232144"/><path fill-rule="evenodd" clip-rule="evenodd" d="M775.458 634.787C775.458 638.359 772.564 641.254 768.993 641.254C765.422 641.254 762.528 638.359 762.528 634.787C762.528 631.215 765.422 628.319 768.993 628.319C772.564 628.319 775.458 631.215 775.458 634.787Z" fill="#232144"/><path fill-rule="evenodd" clip-rule="evenodd" d="M617.533 288.682C617.533 290.033 616.437 291.13 615.085 291.13C613.734 291.13 612.639 290.033 612.639 288.682C612.639 287.33 613.734 286.233 615.085 286.233C616.437 286.233 617.533 287.33 617.533 288.682Z" fill="#232144"/><path fill-rule="evenodd" clip-rule="evenodd" d="M492.566 489.734C492.566 493.085 489.851 495.801 486.502 495.801C483.152 495.801 480.437 493.085 480.437 489.734C480.437 486.383 483.152 483.667 486.502 483.667C489.851 483.667 492.566 486.383 492.566 489.734Z" fill="#232144"/><path fill-rule="evenodd" clip-rule="evenodd" d="M663.161 691.258C663.161 693.053 661.706 694.509 659.912 694.509C658.117 694.509 656.662 693.053 656.662 691.258C656.662 689.462 658.117 688.007 659.912 688.007C661.706 688.007 663.161 689.462 663.161 691.258Z" fill="#232144"/><path fill-rule="evenodd" clip-rule="evenodd" d="M849.38 552.06C849.38 552.842 848.746 553.476 847.964 553.476C847.183 553.476 846.549 552.842 846.549 552.06C846.549 551.279 847.183 550.645 847.964 550.645C848.746 550.645 849.38 551.279 849.38 552.06Z" fill="#232144"/><path fill-rule="evenodd" clip-rule="evenodd" d="M953.778 529.24C953.778 531.801 951.704 533.876 949.144 533.876C946.585 533.876 944.511 531.801 944.511 529.24C944.511 526.68 946.585 524.604 949.144 524.604C951.704 524.604 953.778 526.68 953.778 529.24Z" fill="#232144"/><path fill-rule="evenodd" clip-rule="evenodd" d="M933.124 439.844C933.124 442.536 930.943 444.717 928.253 444.717C925.564 444.717 923.382 442.536 923.382 439.844C923.382 437.153 925.564 434.972 928.253 434.972C930.943 434.972 933.124 437.153 933.124 439.844Z" fill="#ED1E79"/><path fill-rule="evenodd" clip-rule="evenodd" d="M725.165 461.015C725.165 462.233 724.178 463.221 722.96 463.221C721.742 463.221 720.755 462.233 720.755 461.015C720.755 459.796 721.742 458.809 722.96 458.809C724.178 458.809 725.165 459.796 725.165 461.015Z" fill="#BAC09A"/><path fill-rule="evenodd" clip-rule="evenodd" d="M657.45 569.216C657.45 570.37 656.514 571.305 655.361 571.305C654.206 571.305 653.271 570.37 653.271 569.216C653.271 568.062 654.206 567.126 655.361 567.126C656.514 567.126 657.45 568.062 657.45 569.216Z" fill="#F7E5CD"/><path fill-rule="evenodd" clip-rule="evenodd" d="M576.511 414.812C576.511 417.434 574.387 419.559 571.766 419.559C569.147 419.559 567.022 417.434 567.022 414.812C567.022 412.19 569.147 410.065 571.766 410.065C574.387 410.065 576.511 412.19 576.511 414.812Z" fill="#006931"/><path fill-rule="evenodd" clip-rule="evenodd" d="M584.854 321.188C584.854 322.898 583.469 324.284 581.759 324.284C580.05 324.284 578.664 322.898 578.664 321.188C578.664 319.478 580.05 318.092 581.759 318.092C583.469 318.092 584.854 319.478 584.854 321.188Z" fill="#FBB03B"/><path fill-rule="evenodd" clip-rule="evenodd" d="M459.809 315.923C459.809 318.488 457.731 320.567 455.167 320.567C452.603 320.567 450.524 318.488 450.524 315.923C450.524 313.358 452.603 311.279 455.167 311.279C457.731 311.279 459.809 313.358 459.809 315.923Z" fill="#ED1E79"/><path fill-rule="evenodd" clip-rule="evenodd" d="M480.353 427.797L449.291 362.609L454.829 359.969L485.891 425.156L480.353 427.797Z" fill="#ED1E79"/><path fill-rule="evenodd" clip-rule="evenodd" d="M920.895 242.325L913.774 233.407L855.212 280.195L862.333 289.114L920.895 242.325Z" fill="#ED1E79"/><path fill-rule="evenodd" clip-rule="evenodd" d="M829.587 685.085L816.586 678.702L790.104 732.678L803.105 739.061L829.587 685.085Z" fill="#ED1E79"/><path fill-rule="evenodd" clip-rule="evenodd" d="M535.398 252.001L529.929 255.515L490.413 193.969L495.882 190.455L535.398 252.001Z" fill="#006931"/><path fill-rule="evenodd" clip-rule="evenodd" d="M573.228 562.505C574.535 566.217 575.099 568.147 576.047 572.09C598.917 585.451 613.848 600.838 640.195 609.211C644.496 607.026 646.468 605.871 650.085 603.425C622.036 593.656 600.762 571.464 573.228 562.505Z" fill="#006931"/><path fill-rule="evenodd" clip-rule="evenodd" d="M972.029 357.412C972.029 363.569 967.04 368.559 960.886 368.559C954.733 368.559 949.743 363.569 949.743 357.412C949.743 351.256 954.733 346.266 960.886 346.266C967.04 346.266 972.029 351.256 972.029 357.412Z" fill="#F7E5CD"/><path fill-rule="evenodd" clip-rule="evenodd" d="M662.929 190.835C662.929 194.17 660.227 196.873 656.893 196.873C653.561 196.873 650.859 194.17 650.859 190.835C650.859 187.501 653.561 184.797 656.893 184.797C660.227 184.797 662.929 187.501 662.929 190.835Z" fill="#F7E5CD"/><path fill-rule="evenodd" clip-rule="evenodd" d="M584.854 466.201C584.854 469.065 582.533 471.388 579.669 471.388C576.806 471.388 574.486 469.065 574.486 466.201C574.486 463.337 576.806 461.015 579.669 461.015C582.533 461.015 584.854 463.337 584.854 466.201Z" fill="#FBB03B"/><path fill-rule="evenodd" clip-rule="evenodd" d="M973.933 496.47C968.586 492.251 965.892 489.789 959.963 484.232C945.066 515.541 916.176 538.759 900.35 570.219C907.443 570.867 911.264 570.802 919.228 569.921C931.357 540.144 952.468 519.603 973.933 496.47Z" fill="#FBB03B"/><path fill-rule="evenodd" clip-rule="evenodd" d="M560.521 407.559L546.767 400.807L573.522 346.274L587.277 353.027L560.521 407.559Z" fill="#FBB03B"/><path fill-rule="evenodd" clip-rule="evenodd" d="M814.724 325.619C809.048 328.317 806.177 329.802 800.416 333.05C797.389 311.92 813.248 286.443 817.841 266.113C820.672 268.52 822.026 269.852 824.65 272.78C822.213 287.882 810.548 310.113 814.724 325.619Z" fill="#7070FF"/><path fill-rule="evenodd" clip-rule="evenodd" d="M1067.59 259.97L1029.14 290.692L1037.78 301.517L1076.23 270.795L1067.59 259.97Z" fill="#232144"/><path fill-rule="evenodd" clip-rule="evenodd" d="M559.188 488.256L549.581 496.97L518.253 462.411L527.861 453.696L559.188 488.256Z" fill="#232144"/><path fill-rule="evenodd" clip-rule="evenodd" d="M652.947 264.673H666.092V251.523H652.947V264.673Z" fill="#232144"/><path fill-rule="evenodd" clip-rule="evenodd" d="M847.308 694.509C847.308 696.881 845.385 698.804 843.014 698.804C840.641 698.804 838.719 696.881 838.719 694.509C838.719 692.136 840.641 690.213 843.014 690.213C845.385 690.213 847.308 692.136 847.308 694.509Z" fill="#F7E5CD"/><path fill-rule="evenodd" clip-rule="evenodd" d="M745.329 557C740.429 557 736.562 554.421 733.151 552.149C727.544 548.412 724.159 546.159 717.398 553.345L713 548.67C723.266 537.754 730.578 542.631 736.456 546.547C739.42 548.52 742.218 550.385 745.329 550.385C748.522 550.385 751.162 548.666 753.957 546.843C759.54 543.206 766.486 538.681 778 548.838L774.031 553.928C765.941 546.794 762.468 549.055 757.209 552.482C753.96 554.601 750.276 557 745.329 557Z" fill="#171111"/></svg>