<svg viewBox="0 0 1600 1200" fill="none" xmlns="http://www.w3.org/2000/svg"><path d="M1329.96 612.957L1342.45 581.322L1335.03 549.729L1302.8 340.47L1244.88 348.516L1306.86 554.49L1305.82 584.825L1313.75 592.789C1313.75 592.789 1316 588.204 1316.92 586.853C1318.8 584.035 1321.89 586.115 1320.8 588.755C1320.24 590.107 1318.46 593.87 1316.9 597.425L1301.93 615.244C1299.96 617.583 1300.27 621.076 1302.61 623.041C1302.67 623.093 1302.74 623.124 1302.8 623.176C1302.16 625.006 1302.47 627.116 1303.84 628.675C1305.86 630.962 1309.37 631.181 1311.66 629.164L1329.96 612.957Z" fill="#FFC4B8"/><path d="M1091.13 629.392C1093.42 631.419 1096.93 631.2 1098.95 628.903C1100.32 627.344 1100.64 625.233 1099.99 623.404C1100.05 623.352 1100.12 623.32 1100.18 623.268C1102.52 621.304 1102.83 617.811 1100.86 615.471L1085.89 597.653C1084.33 594.097 1082.54 590.334 1081.99 588.983C1081.08 586.789 1083.06 584.991 1084.84 586.061L1088.84 592.621C1088.97 592.871 1089.04 593.016 1089.04 593.016L1089.03 592.933L1096.48 605.138C1098.07 607.747 1101.48 608.569 1104.08 606.978C1106.7 605.387 1107.52 601.978 1105.93 599.368L1096.95 584.658L1095.92 554.718L1157.9 348.744L1099.98 340.697L1067.75 549.956L1060.33 581.55L1072.82 613.184L1091.13 629.392Z" fill="#FFC4B8"/><path d="M1343.96 619.249L1320.95 639.552C1319.67 640.685 1317.71 640.56 1316.59 639.282L1275.19 592.386C1274.07 591.107 1274.18 589.163 1275.46 588.03L1298.48 567.727C1299.76 566.593 1301.71 566.718 1302.83 567.997L1344.23 614.893C1345.35 616.171 1345.24 618.126 1343.96 619.249Z" fill="#232144"/><path d="M1335.7 618.291C1336.92 618.291 1337.9 617.304 1337.9 616.087C1337.9 614.87 1336.92 613.883 1335.7 613.883C1334.48 613.883 1333.49 614.87 1333.49 616.087C1333.49 617.304 1334.48 618.291 1335.7 618.291Z" fill="#F7E5CD"/><path d="M1298.02 606.979C1300.63 608.57 1304.04 607.748 1305.63 605.139L1322.93 576.789L1313.49 571.02L1296.18 599.369C1294.58 601.979 1295.41 605.378 1298.02 606.979Z" fill="#FFC4B8"/><path d="M1139.12 992.078L1132.55 790.387H1183.72L1183.77 992.078H1139.12Z" fill="#FFC4B8"/><path d="M1183.75 896.498H1136L1139.12 992.078H1183.77L1183.75 896.498Z" fill="#F7E5CD"/><path d="M1190.28 1007.28H1129.12V1019.97H1190.28V1007.28Z" fill="#232144"/><path d="M1190.28 1007.27C1190.28 992.522 1176.59 980.557 1159.7 980.557C1142.81 980.557 1129.11 992.512 1129.11 1007.27H1190.28Z" fill="#4B7CFE"/><path d="M1261.15 992.078L1269.7 790.387H1216.85L1216.49 992.078H1261.15Z" fill="#FFC4B8"/><path d="M1277.05 561.342L1279.82 790.384H1208.36L1201.64 582.154H1200.71L1195.57 790.384H1124.69L1123.23 561.342H1277.05Z" fill="#232144"/><path d="M1216.66 896.498H1265.2L1261.15 992.078H1216.49L1216.66 896.498Z" fill="#F7E5CD"/><path d="M1270.05 1007.28H1208.9V1019.97H1270.05V1007.28Z" fill="#232144"/><path d="M1208.9 1007.27C1208.9 992.522 1222.59 980.557 1239.48 980.557C1256.37 980.557 1270.07 992.512 1270.07 1007.27H1208.9Z" fill="#4B7CFE"/><path d="M1266.33 718.126C1266.33 718.126 1256.4 728.293 1244.13 728.293C1231.88 728.293 1221.93 718.126 1221.93 718.126C1221.93 718.126 1231.87 707.959 1244.13 707.959C1256.39 707.949 1266.33 718.126 1266.33 718.126Z" fill="#FFC4B8"/><path d="M1284.38 428.929L1325.69 417.525L1307.71 345.772C1304.93 335.844 1298.14 323.275 1282.08 318.41L1198.84 297.067L1117.09 318.566C1101.57 323.431 1094.39 336.073 1091.6 345.772L1073.58 417.525L1116.62 428.929H1284.38Z" fill="#F7E5CD"/><path d="M1107.36 597.334L1122.26 317.393C1132.69 314.638 1170.89 303.754 1170.89 303.754L1175.26 316.593C1182.95 339.183 1214.97 339.006 1222.41 316.333L1226.63 303.463C1226.63 303.463 1268.8 314.711 1279.5 317.539L1292.15 597.334H1107.36Z" fill="#FF6200"/><path d="M1225.19 313.37V273.055L1173.55 272.909V313.37C1173.55 323.86 1182.06 332.374 1192.55 332.374H1206.19C1216.69 332.374 1225.19 323.86 1225.19 313.37Z" fill="#FFA28F"/><path d="M1233.27 244.911C1233.12 244.911 1232.99 244.932 1232.84 244.932V224.098C1232.84 209.201 1220.55 197.121 1205.37 197.121H1192.28C1177.11 197.121 1164.81 209.201 1164.81 224.098V244.932C1164.66 244.921 1164.53 244.911 1164.37 244.911C1158.6 244.911 1153.92 249.589 1153.92 255.359C1153.92 261.129 1158.6 265.807 1164.37 265.807C1164.52 265.807 1164.66 265.786 1164.81 265.786V270.069C1164.81 284.966 1177.1 297.047 1192.28 297.047H1205.37C1220.54 297.047 1232.84 284.966 1232.84 270.069V265.786C1232.99 265.796 1233.12 265.807 1233.27 265.807C1239.04 265.807 1243.72 261.129 1243.72 255.359C1243.72 249.589 1239.04 244.911 1233.27 244.911Z" fill="#FFC4B8"/><path d="M1192.03 262.595C1192.9 262.595 1193.67 263.084 1194.65 263.697C1195.77 264.393 1197.03 265.184 1198.61 265.184C1200.21 265.184 1201.41 264.445 1202.47 263.801C1203.36 263.25 1204.13 262.782 1205.04 262.782C1205.91 262.782 1206.87 263.229 1208.04 264.196L1209.22 262.782C1207.71 261.545 1206.33 260.952 1205.02 260.952C1203.61 260.952 1202.49 261.639 1201.5 262.241C1200.56 262.813 1199.68 263.354 1198.6 263.354C1197.55 263.354 1196.61 262.772 1195.62 262.148C1194.58 261.493 1193.39 260.755 1192.01 260.755C1190.72 260.755 1189.44 261.399 1188.09 262.72L1189.39 264.019C1190.4 263.042 1191.21 262.595 1192.03 262.595Z" fill="#161615"/><path d="M1183.99 233.591C1188.38 231.792 1193.43 234.693 1193.7 239.34C1193.71 239.475 1193.71 239.62 1193.71 239.756H1168.93L1183.99 233.591Z" fill="#D59036"/><path d="M1213.34 233.591C1208.95 231.792 1203.9 234.693 1203.63 239.34C1203.62 239.475 1203.62 239.62 1203.62 239.756H1228.4L1213.34 233.591Z" fill="#D59036"/><path d="M1247.07 200.74C1247.07 193.525 1241.23 187.672 1234.01 187.672C1233.29 187.672 1232.58 187.745 1231.9 187.859C1230.55 184.647 1227.37 182.381 1223.67 182.381C1221.31 182.381 1219.16 183.306 1217.57 184.803C1215.18 181.871 1211.54 180 1207.45 180C1203.88 180 1200.65 181.435 1198.28 183.763C1196.7 182.329 1194.6 181.455 1192.3 181.455C1189.7 181.455 1187.37 182.568 1185.74 184.345C1184.11 182.162 1181.51 180.749 1178.58 180.749C1174.43 180.749 1170.96 183.576 1169.95 187.402C1168.76 186.913 1167.46 186.643 1166.1 186.643C1160.48 186.643 1155.92 191.196 1155.92 196.81C1155.92 197.943 1156.12 199.025 1156.45 200.043C1151.14 201.124 1147.14 205.834 1147.14 211.458C1147.14 217.893 1152.37 223.112 1158.8 223.112C1160.51 223.112 1162.13 222.738 1163.6 222.072V254.684H1166.08V220.575C1168.02 219.026 1169.45 216.853 1170.08 214.379C1170.48 213.776 1170.86 213.163 1171.21 212.518C1173.57 211.115 1175.22 208.662 1175.53 205.803C1177.17 211.157 1182.14 215.055 1188.03 215.055C1191.46 215.055 1194.57 213.724 1196.9 211.562C1198.51 213.153 1200.73 214.14 1203.17 214.14C1203.42 214.14 1203.67 214.119 1203.92 214.099C1204.21 215.492 1204.73 216.791 1205.42 217.976C1204.37 219.047 1203.73 220.502 1203.73 222.124C1203.73 225.389 1206.38 228.039 1209.64 228.039C1212.11 228.039 1214.22 226.532 1215.12 224.391C1215.65 224.453 1216.18 224.494 1216.72 224.494C1219.62 224.494 1222.3 223.538 1224.47 221.927C1225.59 224.952 1228.11 227.281 1231.25 228.164V254.705H1233.73V228.538C1233.82 228.538 1233.9 228.549 1234 228.549C1239.62 228.549 1244.17 223.995 1244.17 218.382C1244.17 215.71 1243.13 213.288 1241.45 211.479C1244.84 209.109 1247.07 205.189 1247.07 200.74Z" fill="#D59036"/><path d="M1208.41 249.913C1208.81 251.92 1212.42 252.876 1216.48 252.065C1220.54 251.254 1223.49 248.978 1223.09 246.971C1222.68 244.975 1219.07 244.008 1215.01 244.819C1210.96 245.63 1208 247.917 1208.41 249.913Z" fill="white"/><path d="M1212.03 248.448C1212.03 250.486 1213.69 252.149 1215.74 252.149C1217.79 252.149 1219.45 250.496 1219.45 248.448C1219.45 246.41 1217.79 244.747 1215.74 244.747C1213.69 244.747 1212.03 246.41 1212.03 248.448Z" fill="black"/><path d="M1188.92 249.913C1188.52 251.92 1184.91 252.876 1180.85 252.065C1176.79 251.254 1173.84 248.978 1174.24 246.971C1174.65 244.975 1178.26 244.008 1182.32 244.819C1186.36 245.63 1189.32 247.917 1188.92 249.913Z" fill="white"/><path d="M1185.29 248.448C1185.29 250.486 1183.63 252.149 1181.58 252.149C1179.53 252.149 1177.86 250.496 1177.86 248.448C1177.86 246.41 1179.53 244.747 1181.58 244.747C1183.63 244.757 1185.29 246.41 1185.29 248.448Z" fill="black"/><path d="M1237.3 306.122L1225.19 303.086L1199.37 331.03L1173.55 303.086L1161.45 306.122L1169.84 356.157L1199.37 333.317L1228.9 356.157L1237.3 306.122Z" fill="#F7E5CD"/><path d="M1224.62 248.174H1206.98C1203.79 248.174 1201.2 250.679 1201.02 253.819H1196.3C1196.13 250.669 1193.53 248.174 1190.34 248.174H1172.69C1169.39 248.174 1166.72 250.846 1166.72 254.141V256.189C1166.72 259.485 1169.39 262.156 1172.69 262.156H1190.34C1193.53 262.156 1196.12 259.651 1196.3 256.511H1201.02C1201.19 259.661 1203.79 262.156 1206.98 262.156H1224.62C1227.92 262.156 1230.6 259.485 1230.6 256.189V254.141C1230.6 250.846 1227.92 248.174 1224.62 248.174Z" fill="#232144"/><path d="M1199.16 281.265C1194.96 281.265 1191.56 279.893 1191.35 279.81L1192 278.229C1192.07 278.261 1199.29 281.161 1205.27 278.25L1206.02 279.789C1203.74 280.891 1201.34 281.265 1199.16 281.265Z" fill="black"/><path d="M838.495 976.844H891.935L904.7 1007.42H838.495V976.844Z" fill="#006931"/><path d="M694.777 1007.4V1020H760.993V1007.4H694.777Z" fill="#00401E"/><path d="M668 613.219L686.32 629.385C688.608 631.412 692.114 631.194 694.132 628.896C695.505 627.337 695.828 625.226 695.173 623.397C695.235 623.345 695.308 623.314 695.37 623.262C697.711 621.297 698.013 617.804 696.046 615.465L681.076 597.646C679.516 594.091 677.727 590.327 677.175 588.976C676.27 586.782 678.247 584.984 680.026 586.055L684.031 592.615C684.156 592.864 684.229 593.01 684.229 593.01L684.218 592.926L691.667 605.131C693.258 607.741 696.671 608.562 699.271 606.971C701.882 605.381 702.704 601.971 701.113 599.361L692.135 584.651L691.105 554.711L725.518 445.273L679.204 437.237L662.954 549.939L655.547 581.533L668 613.219Z" fill="#693725"/><path d="M929.386 613.178L941.88 581.543L934.473 549.95L918.203 437.237L871.889 445.273L906.302 554.711L905.272 584.651L896.294 599.361C894.702 601.971 895.524 605.381 898.135 606.971C900.747 608.562 904.148 607.741 905.74 605.131L913.189 592.926L913.178 593.01C913.178 593.01 913.251 592.864 913.376 592.615L917.381 586.055C919.16 584.984 921.137 586.782 920.232 588.976C919.67 590.327 917.891 594.091 916.33 597.646L901.36 615.465C899.394 617.804 899.696 621.297 902.037 623.262C902.099 623.314 902.172 623.345 902.234 623.397C901.589 625.227 901.901 627.337 903.275 628.896C905.293 631.183 908.799 631.402 911.087 629.385L929.386 613.178Z" fill="#693725"/><path d="M711.724 976.845L729.971 538.346L797.517 538.283L757.518 976.845H711.724Z" fill="#693725"/><path d="M694.777 1007.39L707.531 976.844H760.982V1007.39H694.777Z" fill="#006931"/><path d="M887.774 976.845L866.001 538.283H799.692L841.98 976.845H887.774Z" fill="#693725"/><path d="M878.318 315.2L823.754 303.005V273.169L773.695 273.148V303.151L721.107 314.701V366.971H878.38L878.318 315.2Z" fill="#5D2B1A"/><path d="M833.501 246.38C832.908 246.38 832.336 246.443 831.785 246.536V223.821C831.785 209.049 819.811 197.083 805.039 197.083H792.17C777.398 197.083 765.424 209.059 765.424 223.821V246.422C765.195 246.412 764.977 246.391 764.748 246.391C759.151 246.391 754.615 250.923 754.615 256.527C754.615 262.13 759.151 266.663 764.748 266.663C764.977 266.663 765.195 266.642 765.424 266.632V270.561C765.424 285.334 777.398 297.3 792.17 297.3H805.039C819.811 297.3 831.785 285.323 831.785 270.561V266.507C832.347 266.6 832.919 266.663 833.501 266.663C839.098 266.663 843.634 262.13 843.634 256.527C843.634 250.923 839.098 246.38 833.501 246.38Z" fill="#693725"/><path d="M817.166 254.301C821.265 253.415 824.225 251.018 823.777 248.948C823.329 246.877 819.643 245.916 815.544 246.802C811.444 247.687 808.484 250.084 808.932 252.155C809.38 254.225 813.067 255.186 817.166 254.301Z" fill="white"/><path d="M816.368 254.468C818.528 254.468 820.28 252.718 820.28 250.559C820.28 248.4 818.528 246.65 816.368 246.65C814.208 246.65 812.457 248.4 812.457 250.559C812.457 252.718 814.208 254.468 816.368 254.468Z" fill="#030303"/><path d="M788.317 252.159C788.765 250.088 785.805 247.692 781.706 246.806C777.607 245.92 773.92 246.881 773.472 248.952C773.024 251.023 775.984 253.419 780.084 254.305C784.183 255.19 787.869 254.23 788.317 252.159Z" fill="white"/><path d="M780.904 254.468C783.065 254.468 784.816 252.718 784.816 250.559C784.816 248.4 783.065 246.65 780.904 246.65C778.744 246.65 776.993 248.4 776.993 250.559C776.993 252.718 778.744 254.468 780.904 254.468Z" fill="#030303"/><path d="M793.273 243.218V238.675C793.273 236.492 791.504 234.725 789.32 234.725H776.243C774.079 234.725 772.321 236.482 772.321 238.644V243.187C772.321 243.208 772.342 243.218 772.352 243.218H793.273Z" fill="#030303"/><path d="M826.011 243.218V238.675C826.011 236.492 824.243 234.725 822.058 234.725H808.982C806.818 234.725 805.06 236.482 805.06 238.644V243.187C805.06 243.208 805.08 243.218 805.091 243.218H826.011Z" fill="#030303"/><path d="M799.577 266.182C798.069 266.182 796.872 265.434 795.822 264.768C794.885 264.186 794.147 263.718 793.325 263.718C792.545 263.718 791.775 264.134 790.828 265.059L789.601 263.833C790.88 262.585 792.097 261.972 793.325 261.972C794.636 261.972 795.759 262.679 796.747 263.292C797.694 263.885 798.578 264.436 799.588 264.436C800.617 264.436 801.46 263.926 802.344 263.375C803.281 262.803 804.342 262.148 805.684 262.148C806.932 262.148 808.243 262.72 809.678 263.885L808.565 265.226C807.442 264.311 806.537 263.885 805.704 263.885C804.841 263.885 804.102 264.332 803.26 264.851C802.24 265.486 801.096 266.182 799.577 266.182Z" fill="#030303"/><path d="M775.962 197.071C769.804 197.071 764.8 202.072 764.8 208.226V218.061H796.841C805.372 218.061 811.915 215.722 816.399 213.154C817.876 216.553 821.257 218.923 825.2 218.923H832.596V207.841C832.596 201.947 827.853 197.154 821.964 197.082H821.829H775.962V197.071Z" fill="#FDC181"/><path d="M799.65 281.248C795.447 281.248 792.056 279.875 791.837 279.792L792.493 278.212C792.566 278.243 799.785 281.144 805.767 278.233L806.516 279.771C804.227 280.884 801.835 281.248 799.65 281.248Z" fill="black"/><path d="M719.006 528.814L716.686 643.72H792.805L796.852 561.156H800.503L805.517 643.72H881.72L878.401 528.814H719.006Z" fill="#F7E5CD"/><path d="M807.442 366.972H790.038V528.805H807.442V366.972Z" fill="#CEBEB8"/><path d="M935.743 463.767L925.059 399.561C925.059 399.561 909.797 321.301 883.8 316.446L824.649 303.191L807.432 332.362V561.467H883.8V481.034L935.743 463.767Z" fill="#00401E"/><path d="M713.7 316.323C687.329 319.962 672.733 399.709 672.733 399.709L661.092 463.768L713.7 481.244V561.459H790.069V332.354L772.894 303.276L713.7 316.323Z" fill="#00401E"/><path d="M824.648 303.183L807.442 332.354L833.855 356.15L836.955 305.927L824.648 303.183Z" fill="#006931"/><path d="M772.893 303.276L790.069 332.354L763.645 356.15L760.847 305.886L772.893 303.276Z" fill="#006931"/><path d="M782.433 311.916C782.433 309.868 780.779 308.215 778.73 308.215C778.23 308.215 777.762 308.319 777.325 308.496C778.178 307.82 778.73 306.78 778.73 305.616C778.73 303.568 777.076 301.915 775.026 301.915C772.977 301.915 771.323 303.568 771.323 305.616C771.323 307.664 772.977 309.317 775.026 309.317C775.526 309.317 775.994 309.213 776.431 309.036C775.578 309.712 775.026 310.752 775.026 311.916C775.026 313.964 776.68 315.617 778.73 315.617C780.779 315.617 782.433 313.954 782.433 311.916Z" fill="#D8CBC5"/><path d="M791.401 315.199C789.934 315.199 788.686 316.052 788.082 317.289C788.124 317.05 788.155 316.811 788.155 316.561C788.155 314.513 786.501 312.86 784.452 312.86C782.402 312.86 780.748 314.513 780.748 316.561C780.748 318.609 782.402 320.262 784.452 320.262C785.918 320.262 787.167 319.41 787.77 318.173C787.728 318.412 787.697 318.651 787.697 318.9C787.697 320.948 789.351 322.601 791.401 322.601C793.45 322.601 795.104 320.948 795.104 318.9C795.104 316.852 793.44 315.199 791.401 315.199Z" fill="#D8CBC5"/><path d="M798.724 323.579C800.769 323.579 802.427 321.922 802.427 319.878C802.427 317.834 800.769 316.177 798.724 316.177C796.679 316.177 795.021 317.834 795.021 319.878C795.021 321.922 796.679 323.579 798.724 323.579Z" fill="#D8CBC5"/><path d="M822.432 301.903C820.383 301.903 818.729 303.556 818.729 305.604C818.729 306.779 819.28 307.808 820.133 308.484C819.696 308.307 819.228 308.203 818.729 308.203C816.679 308.203 815.025 309.856 815.025 311.904C815.025 313.952 816.679 315.605 818.729 315.605C820.778 315.605 822.432 313.952 822.432 311.904C822.432 310.729 821.881 309.7 821.028 309.025C821.465 309.201 821.933 309.305 822.432 309.305C824.482 309.305 826.136 307.652 826.136 305.604C826.136 303.556 824.471 301.903 822.432 301.903Z" fill="#D8CBC5"/><path d="M813.008 312.86C810.958 312.86 809.304 314.513 809.304 316.561C809.304 316.811 809.335 317.05 809.377 317.289C808.774 316.052 807.525 315.199 806.058 315.199C804.009 315.199 802.355 316.852 802.355 318.9C802.355 320.948 804.009 322.601 806.058 322.601C808.108 322.601 809.762 320.948 809.762 318.9C809.762 318.651 809.731 318.412 809.689 318.173C810.292 319.41 811.541 320.262 813.008 320.262C815.057 320.262 816.711 318.609 816.711 316.561C816.711 314.513 815.047 312.86 813.008 312.86Z" fill="#D8CBC5"/><path d="M834.24 271.422C833.491 271.422 832.877 270.819 832.877 270.06V265.434C832.877 264.686 833.481 264.072 834.24 264.072C834.989 264.072 835.603 264.675 835.603 265.434V270.06C835.603 270.819 834.989 271.422 834.24 271.422Z" fill="#00401E"/><path d="M721.087 427.206V310.294H710.091V427.206H699.469V548.89C699.469 553.589 703.277 557.394 707.969 557.394H721.773C726.465 557.394 730.273 553.589 730.273 548.89V427.206H721.087Z" fill="#CEBEB8"/><path d="M838.485 1007.4V1020H904.7V1007.4H838.485Z" fill="#00401E"/><path d="M420.231 194.785H373.043C365.667 194.785 359.686 200.763 359.686 208.134V292.715H433.287V207.822C433.277 200.628 427.44 194.785 420.231 194.785Z" fill="#76341E"/><path d="M476.688 1002.65V1019.94H538.025V1002.65H476.688Z" fill="#171111"/><path d="M456.673 1002.7L403.16 595.453H483.565L546.409 1002.7H456.673Z" fill="#3867C3"/><path d="M382.499 1002.65H321.132V1019.94H382.499V1002.65Z" fill="#171111"/><path d="M393.464 1002.7L397.251 595.393H313.892L306.162 1002.7H393.464Z" fill="#3867C3"/><path d="M328.008 429.589L282.589 418.31L262.407 548.092L255 579.685L267.452 611.362L285.606 627.382C287.718 629.253 290.953 629.409 293.075 627.548C294.875 625.957 295.343 623.577 294.625 621.539C294.688 621.487 294.76 621.456 294.823 621.404C297.684 621.404 299.244 618.057 297.403 615.873L280.539 595.788C278.979 592.233 277.19 588.47 276.638 587.118C276.628 587.098 276.618 587.077 276.607 587.056C275.744 584.842 278.969 583.355 280.207 585.382L291.13 603.274C292.815 606.039 296.539 606.798 299.192 604.812C301.502 603.076 301.97 599.77 300.461 597.306L291.608 582.804L290.578 552.864L328.008 429.589Z" fill="#F5B091"/><path d="M504.735 582.801L495.882 597.304C494.374 599.768 494.832 603.073 497.151 604.81C499.804 606.795 503.528 606.036 505.214 603.271L512.662 591.066L512.652 591.149C512.652 591.149 512.725 591.004 512.85 590.754L516.137 585.38C517.375 583.352 520.6 584.839 519.736 587.053C519.726 587.074 519.716 587.095 519.705 587.116C519.143 588.467 517.364 592.231 515.804 595.786L500.834 613.605C498.868 615.944 499.17 619.437 501.51 621.401C501.573 621.453 501.646 621.485 501.708 621.537C500.99 623.574 501.458 625.965 503.258 627.545C505.38 629.406 508.605 629.25 510.727 627.379L528.881 611.359L541.333 579.683L533.926 548.09L514.472 417.85L468.741 429.244L505.786 552.851L504.735 582.801Z" fill="#F5B091"/><path d="M308.222 664.056H379.244L381.512 595.453H310.053L308.222 664.056Z" fill="#4B7CFE"/><path d="M306.162 813.508H377.184L379.347 732.586H307.764L306.162 813.508Z" fill="#4B7CFE"/><path d="M499.138 664.056H425.152L415.873 595.453H488.028L499.138 664.056Z" fill="#4B7CFE"/><path d="M522.462 813.508H451.44L438.208 732.586H509.801L522.462 813.508Z" fill="#4B7CFE"/><path d="M490.327 595.466L476.304 430.514L476.408 427.364L523.835 415.658L505.859 343.895C503.071 333.967 496.257 320.972 480.226 316.533L396.804 297.717L315.233 316.689C299.098 321.648 292.534 334.196 289.746 343.895L271.728 415.648L317.928 427.052L305.517 595.456H490.327V595.466Z" fill="#171111"/><path d="M371.191 310.472V283.724H421.355V310.472C421.355 322.188 411.846 331.69 400.133 331.69H392.424C380.7 331.69 371.191 322.188 371.191 310.472Z" fill="#FF976B"/><path d="M431.57 246.223C430.936 246.223 430.322 246.286 429.729 246.4V222.988C429.729 208.195 417.734 196.198 402.931 196.198H390.031C375.228 196.198 363.233 208.195 363.233 222.988V246.369C362.65 246.265 362.047 246.203 361.433 246.203C355.826 246.203 351.28 250.746 351.28 256.349C351.28 261.952 355.826 266.495 361.433 266.495C362.047 266.495 362.65 266.433 363.233 266.329V269.791C363.233 284.584 375.228 296.581 390.031 296.581H402.931C417.734 296.581 429.729 284.584 429.729 269.791V266.329C430.322 266.443 430.936 266.506 431.57 266.506C437.178 266.506 441.724 261.963 441.724 256.359C441.724 250.766 437.178 246.223 431.57 246.223Z" fill="#F5B091"/><path d="M396.398 266.204C396.232 266.204 396.065 266.194 395.899 266.183C394.734 266.11 393.787 265.435 392.944 264.842C392.122 264.26 391.477 263.803 390.76 263.803C390.104 263.803 389.428 264.177 388.585 265.009L386.921 263.345C388.2 262.087 389.49 261.453 390.76 261.453C392.237 261.453 393.433 262.295 394.307 262.919C394.952 263.376 395.555 263.803 396.055 263.834C396.18 263.844 396.294 263.844 396.408 263.844C397.688 263.844 398.26 263.366 398.916 262.825C399.654 262.212 400.476 261.609 401.693 261.609C402.796 261.609 404.159 262.098 405.875 263.106L404.668 265.133C403.295 264.322 402.432 263.979 401.797 263.979C401.204 263.979 400.84 264.281 400.424 264.634C399.602 265.3 398.52 266.204 396.398 266.204Z" fill="#171111"/><path d="M396.846 279.628C392.591 279.628 389.158 278.245 388.95 278.152L389.772 276.146C389.844 276.177 396.97 279.036 402.859 276.177L403.805 278.131C401.496 279.254 399.061 279.628 396.846 279.628Z" fill="black"/><path d="M499.398 454.765L461.864 410.687C458.92 407.225 453.719 406.809 450.265 409.751L444.564 414.606L354.006 307.694L341.189 310.668L435.607 422.236L427.701 428.973C424.236 431.915 423.82 437.113 426.775 440.575L464.309 484.653C467.253 488.115 472.454 488.531 475.908 485.589L498.472 466.377C501.937 463.425 502.353 458.227 499.398 454.765Z" fill="#F7931E"/><path d="M374.468 194.785C365.948 194.785 359.675 200.025 359.675 207.957V223.093H383.998C389.105 223.093 393.267 221.128 396.471 218.602C399.675 221.128 403.836 223.093 408.944 223.093H433.266V207.957C433.266 200.025 426.993 194.785 418.473 194.785H374.468Z" fill="#76341E"/><path d="M295.811 540.045L266.017 531.458L266.173 530.325C266.495 527.924 264.81 525.709 262.407 525.387C260.004 525.065 257.788 526.749 257.466 529.161L256.124 539.151C255.801 541.553 257.486 543.767 259.889 544.089C262.241 544.401 264.404 542.79 264.8 540.472L293.325 548.695L295.811 540.045Z" fill="#D8CBC5"/><path d="M376.58 236.43H370.162V241.461H376.58V236.43Z" fill="#441F18"/><path d="M391.634 236.43H379.181V241.461H391.634V236.43Z" fill="#441F18"/><path d="M422.593 236.43H402.598V241.461H422.593V236.43Z" fill="#441F18"/><path d="M404.793 250.299C405.189 252.243 408.674 253.178 412.596 252.388C416.518 251.598 419.378 249.394 418.983 247.45C418.588 245.506 415.103 244.571 411.181 245.361C407.259 246.14 404.398 248.355 404.793 250.299Z" fill="white"/><path d="M413.001 247.262C413.001 246.483 412.741 245.765 412.314 245.173C411.94 245.214 411.555 245.277 411.17 245.35C408.913 245.807 407.009 246.732 405.875 247.813C406.145 249.529 407.612 250.849 409.412 250.849C411.399 250.849 413.001 249.248 413.001 247.262Z" fill="black"/><path d="M387.972 250.299C387.577 252.243 384.092 253.178 380.17 252.388C376.248 251.598 373.387 249.394 373.782 247.45C374.177 245.506 377.662 244.571 381.584 245.361C385.496 246.14 388.357 248.355 387.972 250.299Z" fill="white"/><path d="M374.583 246.213C374.541 246.431 374.521 246.65 374.521 246.878C374.521 248.864 376.123 250.465 378.11 250.465C380.097 250.465 381.699 248.864 381.699 246.878C381.699 246.317 381.553 245.787 381.324 245.308C378.453 244.789 375.862 245.184 374.583 246.213Z" fill="black"/><path opacity="0.3" d="M409.214 259.769H415.206C420.096 259.769 424.059 255.808 424.059 250.922V244.601C424.059 242.376 422.249 240.567 420.023 240.567H404.408C402.182 240.567 400.372 242.376 400.372 244.601V250.922C400.361 255.808 404.325 259.769 409.214 259.769Z" fill="#4B7CFE"/><path opacity="0.3" d="M377.558 259.769H383.551C388.44 259.769 392.404 255.808 392.404 250.922V244.601C392.404 242.376 390.593 240.567 388.367 240.567H372.752C370.526 240.567 368.716 242.376 368.716 244.601V250.922C368.705 255.808 372.669 259.769 377.558 259.769Z" fill="#4B7CFE"/><path d="M420.013 239.488H404.398C402.712 239.488 401.235 240.31 400.299 241.567H392.455C391.519 240.31 390.042 239.488 388.356 239.488H372.741C369.922 239.488 367.623 241.786 367.623 244.603V250.913C367.623 256.392 372.076 260.841 377.558 260.841H383.55C389.032 260.841 393.485 256.382 393.485 250.913V244.603C393.485 244.302 393.443 244.021 393.402 243.73H399.363C399.311 244.011 399.279 244.302 399.279 244.603V250.913C399.279 256.392 403.732 260.841 409.214 260.841H415.207C420.689 260.841 425.141 256.382 425.141 250.913V244.603C425.131 241.786 422.842 239.488 420.013 239.488ZM391.311 250.924C391.311 255.207 387.826 258.69 383.55 258.69H377.558C373.272 258.69 369.797 255.207 369.797 250.924V244.613C369.797 242.992 371.118 241.661 372.752 241.661H388.367C389.99 241.661 391.321 242.981 391.321 244.613V250.924H391.311ZM422.967 250.924C422.967 255.207 419.482 258.69 415.207 258.69H409.214C404.928 258.69 401.454 255.207 401.454 250.924V244.613C401.454 242.992 402.775 241.661 404.408 241.661H420.023C421.646 241.661 422.978 242.981 422.978 244.613V250.924H422.967Z" fill="#171111"/></svg>