<svg viewBox="0 0 1600 1200" fill="none" xmlns="http://www.w3.org/2000/svg"><path fill-rule="evenodd" clip-rule="evenodd" d="M1115.41 313.333L1111.05 285.984C1110.7 283.21 1112.62 280.661 1115.39 280.251C1118.23 279.832 1120.86 281.825 1121.22 284.673L1124.15 302.827L1117.01 315.066" fill="#FFA28F"/><path fill-rule="evenodd" clip-rule="evenodd" d="M1140.54 314.601L1147.82 296.274L1138.25 292.023L1122.54 296.137L1116.31 300.366L1114.46 313.348L1064.93 375.24L1038.38 411.091C1038.38 411.091 1030 417.635 1055.4 426.227C1068.02 430.497 1080.21 432.063 1080.21 432.063L1140.54 314.601Z" fill="#FFC4B8"/><path fill-rule="evenodd" clip-rule="evenodd" d="M1147.63 296.791L1132.91 303.082L1143.09 266.852L1152.19 271.402L1147.63 296.791Z" fill="#FFC4B8"/><path fill-rule="evenodd" clip-rule="evenodd" d="M1132.91 309.58L1134.71 276.234L1144.53 279.21L1133.6 315.369" fill="#FFC4B8"/><path fill-rule="evenodd" clip-rule="evenodd" d="M1106.11 308.283L1150.82 247.721C1151.77 246.441 1153.57 246.173 1154.85 247.123L1156.61 248.428C1157.89 249.378 1158.15 251.186 1157.2 252.466L1112.49 313.028" fill="#232144"/><path fill-rule="evenodd" clip-rule="evenodd" d="M1130.58 265.207C1132.49 263.6 1135.34 263.851 1136.95 265.766L1149.29 281.911L1144.02 290.189L1129.87 273.297C1127.84 270.866 1128.15 267.244 1130.58 265.207Z" fill="#FFC4B8"/><path fill-rule="evenodd" clip-rule="evenodd" d="M1118.93 286.033C1120.84 284.418 1123.69 284.655 1125.3 286.561L1141.57 306.31L1132.5 310.952L1118.26 294.127C1116.22 291.706 1116.52 288.083 1118.93 286.033Z" fill="#FFC4B8"/><path fill-rule="evenodd" clip-rule="evenodd" d="M1150.21 257.276C1152.67 257.712 1154.31 260.059 1153.87 262.52L1149.51 284.962L1139.73 283.642L1143.56 261.93C1144.11 258.807 1147.09 256.724 1150.21 257.276Z" fill="#FFC4B8"/><path fill-rule="evenodd" clip-rule="evenodd" d="M1135.77 297.852L1121.68 280.908C1119.65 278.471 1119.98 274.85 1122.42 272.821C1124.33 271.222 1127.18 271.483 1128.78 273.403L1143.65 291.282" fill="#FFC4B8"/><path fill-rule="evenodd" clip-rule="evenodd" d="M1083.03 422.053C1083.03 432.718 1074.39 441.363 1063.74 441.363C1053.09 441.363 1044.45 432.718 1044.45 422.053C1044.45 411.388 1053.09 402.742 1063.74 402.742C1074.39 402.742 1083.03 411.388 1083.03 422.053Z" fill="#FFC4B8"/><path fill-rule="evenodd" clip-rule="evenodd" d="M777.576 545.315L777.423 545.615C776.047 548.316 772.744 549.389 770.047 548.011L749.31 537.422L754.443 527.344L775.183 537.933C777.88 539.311 778.951 542.616 777.576 545.315Z" fill="#FFC4B8"/><path fill-rule="evenodd" clip-rule="evenodd" d="M776.144 540.096C774.489 542.412 771.271 542.947 768.957 541.291L750.473 528.054L756.464 519.668L774.951 532.905C777.264 534.561 777.798 537.781 776.144 540.096Z" fill="#FFC4B8"/><path fill-rule="evenodd" clip-rule="evenodd" d="M1115.41 313.333L1111.05 285.984C1110.7 283.21 1112.62 280.661 1115.39 280.251C1118.23 279.832 1120.86 281.825 1121.22 284.673L1124.15 302.827L1117.01 315.066" fill="#FFA28F"/><path fill-rule="evenodd" clip-rule="evenodd" d="M1140.54 314.601L1147.82 296.274L1138.25 292.023L1122.54 296.137L1116.31 300.366L1114.46 313.348L1064.93 375.24L1038.38 411.091C1038.38 411.091 1030 417.635 1055.4 426.227C1068.02 430.497 1080.21 432.063 1080.21 432.063L1140.54 314.601Z" fill="#FFC4B8"/><path fill-rule="evenodd" clip-rule="evenodd" d="M1147.63 296.791L1132.91 303.082L1143.09 266.852L1152.19 271.402L1147.63 296.791Z" fill="#FFC4B8"/><path fill-rule="evenodd" clip-rule="evenodd" d="M1132.91 309.58L1134.71 276.234L1144.53 279.21L1133.6 315.369" fill="#FFC4B8"/><path fill-rule="evenodd" clip-rule="evenodd" d="M1106.11 308.283L1150.82 247.721C1151.77 246.441 1153.57 246.173 1154.85 247.123L1156.61 248.428C1157.89 249.378 1158.15 251.186 1157.2 252.466L1112.49 313.028" fill="#232144"/><path fill-rule="evenodd" clip-rule="evenodd" d="M1130.58 265.207C1132.49 263.6 1135.34 263.851 1136.95 265.766L1149.29 281.911L1144.02 290.189L1129.87 273.297C1127.84 270.866 1128.15 267.244 1130.58 265.207Z" fill="#FFC4B8"/><path fill-rule="evenodd" clip-rule="evenodd" d="M1118.93 286.033C1120.84 284.418 1123.69 284.655 1125.3 286.561L1141.57 306.31L1132.5 310.952L1118.26 294.127C1116.22 291.706 1116.52 288.083 1118.93 286.033Z" fill="#FFC4B8"/><path fill-rule="evenodd" clip-rule="evenodd" d="M1150.21 257.276C1152.67 257.712 1154.31 260.059 1153.87 262.52L1149.51 284.962L1139.73 283.642L1143.56 261.93C1144.11 258.807 1147.09 256.724 1150.21 257.276Z" fill="#FFC4B8"/><path fill-rule="evenodd" clip-rule="evenodd" d="M1135.77 297.852L1121.68 280.908C1119.65 278.471 1119.98 274.85 1122.42 272.821C1124.33 271.222 1127.18 271.483 1128.78 273.403L1143.65 291.282" fill="#FFC4B8"/><path fill-rule="evenodd" clip-rule="evenodd" d="M1083.03 422.053C1083.03 432.718 1074.39 441.363 1063.74 441.363C1053.09 441.363 1044.45 432.718 1044.45 422.053C1044.45 411.388 1053.09 402.742 1063.74 402.742C1074.39 402.742 1083.03 411.388 1083.03 422.053Z" fill="#FFC4B8"/><path fill-rule="evenodd" clip-rule="evenodd" d="M638.092 550.88L610.501 535.086L582.281 574.821L629.986 613.198L638.092 550.88Z" fill="#FFC4B8"/><path fill-rule="evenodd" clip-rule="evenodd" d="M504.517 583.314C537.807 543.749 583.148 580.795 583.148 580.795L613.767 535.857L577.397 515.375L539.786 489.344L531.939 501.141L546.401 511.074C546.413 511.093 546.421 511.11 546.432 511.13C546.509 511.173 546.589 511.201 546.664 511.25C548.552 512.492 549.078 515.03 547.838 516.92C546.597 518.811 544.062 519.337 542.174 518.096C542.083 518.036 542.011 517.96 541.927 517.894L527.213 508.403L476.583 585.537C476.583 585.537 489.466 601.202 504.517 583.314Z" fill="#232144"/><path fill-rule="evenodd" clip-rule="evenodd" d="M638.613 546.707L832.903 619.713L859.468 557.136L916.765 630.143C916.765 630.143 935.695 736.619 889.679 749.559C843.321 762.595 830.274 744.831 771.96 746.43C733.935 747.472 720.895 773.535 682.888 771.982C631.841 769.895 611.527 755.816 611.527 755.816L638.613 546.707Z" fill="#891229"/><path fill-rule="evenodd" clip-rule="evenodd" d="M989.375 319.414L1062.61 383.484L1051.15 446.061L1023.55 426.245L988.648 535.082L968.854 495.078L989.375 319.414Z" fill="#232144"/><path fill-rule="evenodd" clip-rule="evenodd" d="M1169.91 969.313C1119.16 979.017 1107.29 921.645 1107.29 921.645L1055.22 937.204L1070.56 976.056L1083.36 1020L1096.88 1015.8L1091.91 998.958C1091.92 998.936 1091.92 998.917 1091.92 998.894C1091.89 998.813 1091.85 998.739 1091.82 998.655C1091.14 996.5 1092.33 994.197 1094.48 993.512C1096.63 992.828 1098.93 994.02 1099.62 996.175C1099.65 996.279 1099.66 996.383 1099.68 996.487L1105.13 1013.14L1193 985.217C1193 985.217 1192.86 964.926 1169.91 969.313Z" fill="#232144"/><path fill-rule="evenodd" clip-rule="evenodd" d="M1085.53 879.926L1100.31 923.73L1055.22 937.204L1034.49 898.177L1085.53 879.926Z" fill="#FFC4B8"/><path fill-rule="evenodd" clip-rule="evenodd" d="M911.557 744.345C927.183 669.254 892.805 618.671 892.805 618.671L861.888 563.058L900.097 459.449L969.737 487.524L968.854 495.083L988.648 535.087L1042.47 720.879L1093.17 892.617L884.123 930.858C884.123 930.858 876.137 825.174 911.557 744.345Z" fill="#E73245"/><path fill-rule="evenodd" clip-rule="evenodd" d="M950.05 331.355C940.81 343.133 923.782 345.181 912.018 335.931C900.254 326.68 898.208 309.634 907.448 297.856C916.687 286.079 933.715 284.031 945.479 293.281C957.243 302.531 959.289 319.578 950.05 331.355Z" fill="#232144"/><path fill-rule="evenodd" clip-rule="evenodd" d="M966.214 341.481L951.389 331.778C942.599 328.62 938.032 318.926 941.188 310.124L956.808 271.211L1004.8 288.458L987.845 331.266C984.689 340.067 976.34 340.745 967.55 337.586" fill="#FFC4B8"/><path fill-rule="evenodd" clip-rule="evenodd" d="M982.325 199.852L1052.17 224.951C1052.17 224.951 1033.74 276.358 1029.52 288.13C1027.01 295.142 1019.29 298.785 1012.28 296.269C992.15 289.033 955.121 275.727 955.121 275.727L969.525 235.553L982.325 199.852Z" fill="#FFC4B8"/><path fill-rule="evenodd" clip-rule="evenodd" d="M1030.76 267.051L1042.82 249.707C1042.82 249.707 1043.6 260.149 1044.08 266.679C1044.17 267.814 1043.68 268.915 1042.77 269.609C1041.87 270.303 1040.68 270.496 1039.61 270.123C1035.67 268.755 1030.76 267.051 1030.76 267.051Z" fill="#FFC4B8"/><path fill-rule="evenodd" clip-rule="evenodd" d="M1042.59 242.167C1042.64 242.825 1042.4 243.472 1041.94 243.943C1041.48 244.414 1040.84 244.664 1040.18 244.631C1035.38 244.383 1025.62 243.88 1025.62 243.88L1034.68 239.498C1039.21 238.156 1042.38 239.225 1042.59 242.167Z" fill="#420F0F"/><path fill-rule="evenodd" clip-rule="evenodd" d="M1037.34 251.352C1037.34 251.352 1038.04 255.331 1034.39 258.45C1034.39 258.45 1027.81 257.622 1026.03 248.664C1026.03 248.664 1032.96 249.058 1037.34 251.352Z" fill="white"/><path d="M1037.34 251.354C1037.34 251.354 1038.04 255.334 1034.39 258.453C1034.39 258.453 1033.44 258.333 1032.16 257.694C1031.63 256.617 1031.55 255.165 1032.06 253.741C1032.69 251.993 1034.03 250.774 1035.41 250.512C1036.09 250.759 1036.74 251.039 1037.34 251.354Z" fill="#1D1D1B"/><path fill-rule="evenodd" clip-rule="evenodd" d="M1038.39 251.85L1038.78 250.744C1038.78 250.744 1032.81 246.506 1025.21 246.8L1026.14 249.521C1026.14 249.521 1031.75 249.226 1038.39 251.85Z" fill="#1D1D1B"/><path fill-rule="evenodd" clip-rule="evenodd" d="M1054.16 222.969C1057.49 214.033 1052.96 204.084 1044.03 200.746L993.345 181.796C976.381 175.453 957.94 186.589 955.631 204.57L1031.96 233.107C1040.89 236.444 1050.82 231.906 1054.16 222.969Z" fill="#420F0F"/><path fill-rule="evenodd" clip-rule="evenodd" d="M1021.35 221.855L955.63 204.57L958.484 265.09L959.608 264.922C982.364 267.308 1000.51 255.307 1014.49 232.875L1021.35 221.855Z" fill="#420F0F"/><path fill-rule="evenodd" clip-rule="evenodd" d="M1005.58 250.388C1007.52 245.199 1004.88 239.422 999.7 237.484C994.518 235.546 988.746 238.182 986.811 243.37C984.875 248.559 987.508 254.336 992.691 256.274C997.874 258.212 1003.64 255.576 1005.58 250.388Z" fill="#FFC4B8"/><path fill-rule="evenodd" clip-rule="evenodd" d="M1033.86 276.012C1033.53 275.713 1032.17 274.55 1029.93 273.73C1027.91 272.991 1022.56 271.617 1022.56 271.617C1022.56 271.617 1025.3 280.924 1031.27 283.109L1031.27 283.11L1033.86 276.012Z" fill="#E73245"/><path fill-rule="evenodd" clip-rule="evenodd" d="M957.974 240.727C957.974 240.727 950.287 245.652 934.726 218.708C918.498 190.61 903.713 180.19 861.965 210.086C839.053 226.494 803.166 185.625 803.166 185.625C803.166 185.625 830.282 251.161 864.827 249.952C879.967 249.422 891.991 221.782 917.621 242.07C943.249 262.357 959.639 244.79 959.639 244.79L957.974 240.727Z" fill="#420F0F"/><path fill-rule="evenodd" clip-rule="evenodd" d="M976.222 306.832L989.374 319.419C989.374 319.419 995.162 351.911 993.584 373.161C992.005 394.409 969.737 487.524 969.737 487.524L916.107 465.884L976.222 306.832Z" fill="#E6E3DA"/><path fill-rule="evenodd" clip-rule="evenodd" d="M931.871 289.101L943.33 266.156L987.697 286.292L859.468 608.241L807.9 591.886L863.679 427.172L931.871 289.101Z" fill="#232144"/><path fill-rule="evenodd" clip-rule="evenodd" d="M487.47 872.979L478.475 865.056L783.542 517.953L792.537 525.876L487.47 872.979Z" fill="#232144"/><path fill-rule="evenodd" clip-rule="evenodd" d="M482.546 868.64L469.397 857.058L641.835 660.859L654.983 672.442L482.546 868.64Z" fill="#232144"/><path fill-rule="evenodd" clip-rule="evenodd" d="M474.582 861.624L461.434 850.042L633.872 653.844L647.02 665.426L474.582 861.624Z" fill="#D8CBC5"/><path fill-rule="evenodd" clip-rule="evenodd" d="M465.019 853.215L413.332 807.687C406.819 801.948 406.184 792.013 411.916 785.491L565.151 611.142C569.916 605.72 578.171 605.192 583.587 609.962L637.259 657.242L465.019 853.215Z" fill="#232144"/><path fill-rule="evenodd" clip-rule="evenodd" d="M650.373 669.295L617.092 639.979C613.299 636.637 612.929 630.849 616.267 627.051L696.567 535.687C699.342 532.529 704.15 532.221 707.305 535L741.743 565.336L650.373 669.295Z" fill="#D8CBC5"/><path fill-rule="evenodd" clip-rule="evenodd" d="M483.522 881.161C481.034 892.31 469.989 899.328 458.851 896.838C447.715 894.346 440.704 883.288 443.193 872.14C445.682 860.99 456.727 853.972 467.864 856.463C479 858.954 486.011 870.013 483.522 881.161Z" fill="#232144"/><path fill-rule="evenodd" clip-rule="evenodd" d="M835.06 396.688L828.288 405.707L755.211 503.746L776.759 495.791L786.988 503.237L844.794 448.812L863.679 427.173L835.06 396.688Z" fill="#FFC4B8"/><path fill-rule="evenodd" clip-rule="evenodd" d="M790.788 499.711L781.699 525.184L753.638 505.62L770.482 485.766L790.788 499.711Z" fill="#FFC4B8"/><path fill-rule="evenodd" clip-rule="evenodd" d="M779.812 538.986C776.969 539.07 774.597 536.831 774.513 533.985L773.602 503.065L783.897 502.762L784.808 533.682C784.891 536.527 782.655 538.901 779.812 538.986Z" fill="#FFC4B8"/><path fill-rule="evenodd" clip-rule="evenodd" d="M753.637 505.617L763.826 507.119L759.163 538.816L748.974 537.314L753.637 505.617Z" fill="#FFC4B8"/><path fill-rule="evenodd" clip-rule="evenodd" d="M758.774 505.699L769.031 506.636L766.123 538.542L755.866 537.605L758.774 505.699Z" fill="#FFC4B8"/><path fill-rule="evenodd" clip-rule="evenodd" d="M771.5 528.069C771.5 528.069 771.857 523.321 771.769 521.802C771.59 518.651 768.136 518.861 767.758 521.494C767.516 523.183 767.037 528.791 766.448 532.899C764.06 523.815 757.796 509.992 757.796 509.992L777.726 514.732L771.5 528.069Z" fill="#FFC4B8"/><path fill-rule="evenodd" clip-rule="evenodd" d="M717.539 568.128L776.314 531.761C778.706 530.326 779.484 527.221 778.049 524.825C776.616 522.43 773.515 521.651 771.123 523.087L705.383 561.862" fill="#D8CBC5"/><path fill-rule="evenodd" clip-rule="evenodd" d="M908.091 297.035L950.693 330.534L866.076 438.387L823.474 404.888L908.091 297.035Z" fill="#232144"/></svg>