<svg viewBox="0 0 1600 1200" fill="none" xmlns="http://www.w3.org/2000/svg"><path d="M222 230.317H745.608C745.608 230.317 714.738 198.297 674.731 199.441C634.715 200.584 613.001 218.881 563.838 210.876C514.674 202.871 495.237 180 466.664 180C438.091 180 406.078 199.441 367.204 202.871C328.331 206.302 290.6 201.728 267.744 205.158C244.877 208.589 222.01 230.317 222.01 230.317" fill="#CFE4F4"/><path d="M1190.92 287.577L1139.66 289.001C1128.37 290.976 1119.6 291.33 1117.63 280.029L1115.47 267.637L1156.9 260.401C1171.66 257.823 1185.9 267.117 1189.47 281.682L1190.92 287.577Z" fill="#171111"/><path d="M1115.47 267.635L1106.01 269.288C1101.04 270.151 1097.73 274.881 1098.6 279.851L1101.66 297.326L1105.45 296.661C1113.55 295.247 1118.96 287.533 1117.55 279.435L1115.49 267.625L1115.47 267.635Z" fill="#171111"/><path d="M967.884 414.327C966.231 412.55 966.335 409.763 968.123 408.111L982.352 394.918L988.329 401.364L974.099 414.556C972.322 416.209 969.536 416.095 967.884 414.317" fill="#A86554"/><path d="M1008.6 387.556L982.281 394.906L984.646 403.377L1010.97 396.027L1008.6 387.556Z" fill="#A86554"/><path d="M1010.4 391.695L984.527 400.48L987.354 408.809L1013.23 400.023L1010.4 391.695Z" fill="#A86554"/><path d="M1051.52 403.621H872.945C860.735 403.621 850.837 413.521 850.837 425.733V594.814C850.837 607.027 860.735 616.927 872.945 616.927H1051.52C1063.73 616.927 1073.63 607.027 1073.63 594.814V425.733C1073.63 413.521 1063.73 403.621 1051.52 403.621Z" fill="#006931"/><path d="M1171.01 416.991L1118.21 479.794C1112.21 485.116 1103.48 486.073 1096.47 482.174L1017.11 413.384L1030.48 394.92L1098.61 445.029L1146.21 390.242L1171.01 417.002V416.991Z" fill="#A86554"/><path d="M889.066 460.385V560.155C889.066 567.901 895.344 574.18 903.088 574.18H1021.38C1029.13 574.18 1035.4 567.901 1035.4 560.155V460.385C1035.4 452.639 1029.13 446.361 1021.38 446.361H903.088C895.344 446.361 889.066 452.639 889.066 460.385Z" fill="#00401E"/><path d="M309.902 628.426L319.143 931.543C328.913 931.543 336.844 939.464 336.844 949.247V1019.95H506.889V949.247C506.889 939.475 514.81 931.543 524.59 931.543L533.831 628.426H309.913H309.902Z" fill="#FBB03B"/><path d="M329.682 946.002C329.682 940.737 325.414 936.469 320.15 936.469C314.886 936.469 310.619 940.737 310.619 946.002V1010.42C310.619 1015.68 314.886 1019.95 320.15 1019.95C325.414 1019.95 329.682 1015.68 329.682 1010.42V946.002Z" fill="#232144"/><path d="M532.438 946.002C532.438 940.737 528.17 936.469 522.906 936.469C517.642 936.469 513.375 940.737 513.375 946.002V1010.42C513.375 1015.68 517.642 1019.95 522.906 1019.95C528.17 1019.95 532.438 1015.68 532.438 1010.42V946.002Z" fill="#232144"/><path fill-rule="evenodd" clip-rule="evenodd" d="M477.776 827.178C477.391 827.563 476.975 827.947 476.518 828.322C476.975 827.937 477.401 827.552 477.776 827.178L460.813 854.083C460.376 854.748 459.742 855.403 458.9 856.069C457.195 857.389 455.335 858.044 453.318 858.013L439.027 857.826L438.84 868.908L424.818 844.529L438.912 818.425L438.611 831.149L458.36 831.305L442.924 804.442L467.683 790.147L480.249 812.125C480.738 813.164 481.081 814.235 481.278 815.337C481.964 818.903 481.278 822.178 479.22 825.161C478.888 825.775 478.441 826.398 477.879 827.032C477.828 827.084 477.786 827.136 477.765 827.188L477.776 827.178ZM398.126 758.284C400.829 755.861 403.989 754.77 407.606 754.998L409.82 755.383L441.875 755.726L444.587 756.34C446.604 757.109 448.101 758.356 449.098 760.082L456.353 772.422L465.947 766.839L452.341 791.447L422.698 792.902L433.778 786.602L423.768 769.594L408.676 796.759L383.616 782.964L395.923 760.799C396.557 759.885 397.295 759.042 398.137 758.273L398.126 758.284ZM386.776 830.307H417.688L417.729 858.927H393.74C392.337 859 390.788 858.74 389.084 858.127C385.695 856.952 383.221 854.738 381.673 851.474C381.319 850.86 381.007 850.164 380.758 849.374C380.581 848.812 380.425 848.209 380.301 847.575C379.687 844.467 380.176 841.597 381.756 838.978C380.176 841.597 379.698 844.467 380.301 847.575C380.425 848.209 380.581 848.812 380.758 849.374L365.707 821.055C365.354 820.337 365.094 819.464 364.938 818.414C364.637 816.304 365.001 814.38 366.05 812.644L373.347 800.336L363.795 794.638H391.952L407.543 819.859L396.65 813.247L386.797 830.286L386.776 830.307ZM411.639 755.674C414.622 756.672 416.877 758.502 418.405 761.174C416.877 758.502 414.622 756.662 411.639 755.674Z" fill="#FFE3C7"/><path d="M458.37 831.305L442.935 804.442L467.694 790.147L480.26 812.125C480.748 813.164 481.092 814.235 481.289 815.337C481.975 818.903 481.289 822.178 479.231 825.161C478.898 825.775 478.451 826.398 477.89 827.032C477.838 827.084 477.797 827.136 477.776 827.188L460.813 854.093C460.376 854.759 459.742 855.414 458.9 856.079C457.196 857.399 455.335 858.054 453.319 858.023L439.027 857.836L438.84 868.918L424.818 844.539L438.913 818.435L438.611 831.16L458.36 831.316L458.37 831.305ZM477.776 827.178C477.391 827.563 476.975 827.947 476.518 828.322C474.128 830.432 471.383 831.451 468.307 831.378L458.37 831.305M398.127 758.284C400.829 755.861 403.989 754.77 407.606 754.998L409.82 755.383L441.875 755.726L444.588 756.34C446.604 757.109 448.101 758.356 449.099 760.082L456.354 772.422L465.947 766.839L452.342 791.447L422.698 792.902L433.778 786.602L423.769 769.594L408.677 796.759L383.617 782.964L395.923 760.799C396.557 759.885 397.295 759.042 398.137 758.273L398.127 758.284ZM386.776 830.307L396.63 813.268L407.523 819.88L391.932 794.659H363.774L373.327 800.356L366.03 812.665C364.991 814.401 364.616 816.325 364.918 818.435C365.074 819.475 365.323 820.358 365.687 821.076L380.737 849.394C380.561 848.833 380.405 848.23 380.28 847.596C379.667 844.487 380.155 841.618 381.735 838.998L386.776 830.328H417.688L417.73 858.948H393.74C392.337 859.021 390.788 858.761 389.084 858.148C385.695 856.973 383.222 854.759 381.673 851.494C381.319 850.881 381.008 850.184 380.758 849.394M409.809 755.373L411.639 755.674C414.622 756.672 416.877 758.502 418.405 761.174L423.758 769.584" fill="#FFE3C7"/><path d="M1025.51 650.742C1004.79 686.567 958.966 698.813 923.148 678.104C887.33 657.385 875.086 611.549 895.791 575.724C916.496 539.899 997.143 521.519 1026.89 503.711C1022.24 555.483 1046.22 614.917 1025.51 650.752V650.742Z" fill="#BAC09A"/><path d="M538.456 621.273H304.851V628.852H538.456V621.273Z" fill="#BA5D27"/><path d="M330.233 603.246H513.064C522.969 603.246 531.004 611.282 531.004 621.19V621.273H312.293V621.19C312.293 611.282 320.328 603.246 330.233 603.246Z" fill="#FBB03B"/><path d="M380.591 614.995H342.217V601.023C342.217 594.993 347.123 590.086 353.151 590.086H369.667C375.696 590.086 380.602 594.993 380.602 601.023V614.995H380.591ZM349.867 607.343H372.941V601.012C372.941 599.203 371.466 597.727 369.657 597.727H353.141C351.332 597.727 349.856 599.203 349.856 601.012V607.343H349.867Z" fill="#FBB03B"/><path d="M498.876 614.995H460.501V601.023C460.501 594.993 465.407 590.086 471.435 590.086H487.952C493.98 590.086 498.886 594.993 498.886 601.023V614.995H498.876ZM468.151 607.343H491.226V601.012C491.226 599.203 489.75 597.727 487.941 597.727H471.425C469.616 597.727 468.141 599.203 468.141 601.012V607.343H468.151Z" fill="#FBB03B"/><path d="M578.93 628.426L588.17 931.543C597.94 931.543 605.871 939.464 605.871 949.247V1019.95H775.917V949.247C775.917 939.475 783.837 931.543 793.618 931.543L802.858 628.426H578.94H578.93Z" fill="#E73245"/><path d="M598.71 946.002C598.71 940.737 594.443 936.469 589.179 936.469C583.915 936.469 579.647 940.737 579.647 946.002V1010.42C579.647 1015.68 583.915 1019.95 589.179 1019.95C594.443 1019.95 598.71 1015.68 598.71 1010.42V946.002Z" fill="#232144"/><path d="M801.466 946.002C801.466 940.737 797.199 936.469 791.935 936.469C786.671 936.469 782.403 940.737 782.403 946.002V1010.42C782.403 1015.68 786.671 1019.95 791.935 1019.95C797.199 1019.95 801.466 1015.68 801.466 1010.42V946.002Z" fill="#232144"/><path fill-rule="evenodd" clip-rule="evenodd" d="M746.813 827.178C746.429 827.563 746.013 827.947 745.556 828.322C746.013 827.937 746.439 827.552 746.813 827.178L729.85 854.083C729.414 854.748 728.78 855.403 727.938 856.069C726.233 857.389 724.373 858.044 722.356 858.013L708.064 857.826L707.877 868.908L693.856 844.529L707.95 818.425L707.649 831.149L727.397 831.305L711.962 804.442L736.721 790.147L749.287 812.125C749.776 813.164 750.119 814.235 750.316 815.337C751.002 818.903 750.316 822.178 748.258 825.161C747.925 825.775 747.479 826.398 746.917 827.032C746.865 827.084 746.824 827.136 746.803 827.188L746.813 827.178ZM667.154 758.284C669.856 755.861 673.016 754.77 676.633 754.998L678.847 755.383L710.902 755.726L713.615 756.34C715.631 757.109 717.128 758.356 718.126 760.082L725.381 772.422L734.975 766.839L721.369 791.447L691.725 792.902L702.805 786.602L692.796 769.594L677.704 796.759L652.644 782.964L664.95 760.799C665.584 759.885 666.322 759.042 667.164 758.273L667.154 758.284ZM655.803 830.307H686.715L686.757 858.927H662.767C661.364 859 659.816 858.74 658.111 858.127C654.722 856.952 652.249 854.738 650.7 851.474C650.347 850.86 650.035 850.164 649.785 849.374C649.609 848.812 649.453 848.209 649.328 847.575C648.715 844.467 649.203 841.597 650.783 838.978C649.203 841.597 648.725 844.467 649.328 847.575C649.453 848.209 649.609 848.812 649.785 849.374L634.735 821.055C634.381 820.337 634.122 819.464 633.966 818.414C633.664 816.304 634.028 814.38 635.078 812.644L642.374 800.336L632.822 794.638H660.98L676.571 819.859L665.678 813.247L655.824 830.286L655.803 830.307ZM680.666 755.674C683.649 756.672 685.904 758.502 687.432 761.174C685.904 758.502 683.649 756.662 680.666 755.674Z" fill="#FFD4D2"/><path d="M727.399 831.305L711.963 804.442L736.722 790.147L749.288 812.125C749.777 813.164 750.12 814.235 750.317 815.337C751.003 818.903 750.317 822.178 748.259 825.161C747.927 825.775 747.48 826.398 746.918 827.032C746.867 827.084 746.825 827.136 746.804 827.188L729.841 854.093C729.405 854.759 728.771 855.414 727.929 856.079C726.224 857.399 724.363 858.054 722.347 858.023L708.055 857.836L707.868 868.918L693.847 844.539L707.941 818.435L707.64 831.16L727.388 831.316L727.399 831.305ZM746.815 827.178C746.43 827.563 746.014 827.947 745.557 828.322C743.166 830.432 740.422 831.451 737.346 831.378L727.409 831.305M667.155 758.284C669.857 755.861 673.017 754.77 676.634 754.998L678.848 755.383L710.903 755.726L713.616 756.34C715.633 757.109 717.129 758.356 718.127 760.082L725.382 772.422L734.976 766.839L721.37 791.447L691.726 792.902L702.806 786.602L692.797 769.594L677.705 796.759L652.645 782.964L664.951 760.799C665.585 759.885 666.323 759.042 667.165 758.273L667.155 758.284ZM655.805 830.307L665.658 813.268L676.551 819.88L660.96 794.659H632.803L642.355 800.356L635.058 812.665C634.019 814.401 633.645 816.325 633.946 818.435C634.102 819.475 634.351 820.358 634.715 821.076L649.766 849.394C649.589 848.833 649.433 848.23 649.308 847.596C648.695 844.487 649.184 841.618 650.764 838.998L655.805 830.328H686.716L686.758 858.948H662.769C661.365 859.021 659.817 858.761 658.112 858.148C654.724 856.973 652.25 854.759 650.701 851.494C650.348 850.881 650.036 850.184 649.787 849.394M678.838 755.373L680.667 755.674C683.65 756.672 685.906 758.502 687.434 761.174L692.786 769.584" fill="#FFD4D2"/><path d="M807.484 621.273H573.879V628.852H807.484V621.273Z" fill="#891229"/><path d="M599.26 603.246H782.091C791.996 603.246 800.031 611.282 800.031 621.19V621.273H581.32V621.19C581.32 611.282 589.355 603.246 599.26 603.246Z" fill="#E73245"/><path d="M649.631 614.995H611.256V601.023C611.256 594.993 616.162 590.086 622.19 590.086H638.706C644.735 590.086 649.641 594.993 649.641 601.023V614.995H649.631ZM618.906 607.343H641.981V601.012C641.981 599.203 640.505 597.727 638.696 597.727H622.18C620.371 597.727 618.895 599.203 618.895 601.012V607.343H618.906Z" fill="#E73245"/><path d="M767.903 614.995H729.528V601.023C729.528 594.993 734.434 590.086 740.463 590.086H756.979C763.007 590.086 767.913 594.993 767.913 601.023V614.995H767.903ZM737.178 607.343H760.253V601.012C760.253 599.203 758.777 597.727 756.968 597.727H740.452C738.644 597.727 737.168 599.203 737.168 601.012V607.343H737.178Z" fill="#E73245"/><path d="M849.152 628.426L858.393 931.543C868.163 931.543 876.094 939.464 876.094 949.247V1019.95H1046.14V949.247C1046.14 939.475 1054.06 931.543 1063.84 931.543L1073.08 628.426H849.163H849.152Z" fill="#006931"/><path d="M868.933 946.002C868.933 940.737 864.665 936.469 859.401 936.469C854.137 936.469 849.87 940.737 849.87 946.002V1010.42C849.87 1015.68 854.137 1019.95 859.401 1019.95C864.665 1019.95 868.933 1015.68 868.933 1010.42V946.002Z" fill="#232144"/><path d="M1071.69 946.002C1071.69 940.737 1067.42 936.469 1062.16 936.469C1056.89 936.469 1052.63 940.737 1052.63 946.002V1010.42C1052.63 1015.68 1056.89 1019.95 1062.16 1019.95C1067.42 1019.95 1071.69 1015.68 1071.69 1010.42V946.002Z" fill="#232144"/><path fill-rule="evenodd" clip-rule="evenodd" d="M1017.04 827.178C1016.65 827.563 1016.24 827.947 1015.78 828.322C1016.24 827.937 1016.66 827.552 1017.04 827.178L1000.07 854.083C999.637 854.748 999.003 855.403 998.161 856.069C996.457 857.389 994.596 858.044 992.58 858.013L978.288 857.826L978.101 868.908L964.079 844.529L978.174 818.425L977.872 831.149L997.621 831.305L982.186 804.442L1006.94 790.147L1019.51 812.125C1020 813.164 1020.34 814.235 1020.54 815.337C1021.23 818.903 1020.54 822.178 1018.48 825.161C1018.15 825.775 1017.7 826.398 1017.14 827.032C1017.09 827.084 1017.05 827.136 1017.03 827.188L1017.04 827.178ZM937.377 758.284C940.08 755.861 943.239 754.77 946.857 754.998L949.07 755.383L981.126 755.726L983.838 756.34C985.855 757.109 987.352 758.356 988.349 760.082L995.604 772.422L1005.2 766.839L991.592 791.447L961.949 792.902L973.029 786.602L963.019 769.594L947.927 796.759L922.867 782.964L935.174 760.799C935.808 759.885 936.546 759.042 937.388 758.273L937.377 758.284ZM926.027 830.307H956.939L956.98 858.927H932.991C931.588 859 930.039 858.74 928.334 858.127C924.946 856.952 922.472 854.738 920.924 851.474C920.57 850.86 920.258 850.164 920.009 849.374C919.832 848.812 919.676 848.209 919.552 847.575C918.938 844.467 919.427 841.597 921.007 838.978C919.427 841.597 918.949 844.467 919.552 847.575C919.676 848.209 919.832 848.812 920.009 849.374L904.958 821.055C904.605 820.337 904.345 819.464 904.189 818.414C903.888 816.304 904.252 814.38 905.301 812.644L912.598 800.336L903.046 794.638H931.203L946.794 819.859L935.901 813.247L926.048 830.286L926.027 830.307ZM950.889 755.674C953.873 756.672 956.128 758.502 957.656 761.174C956.128 758.502 953.873 756.662 950.889 755.674Z" fill="#EAF4ED"/><path d="M997.621 831.305L982.186 804.442L1006.94 790.147L1019.51 812.125C1020 813.164 1020.34 814.235 1020.54 815.337C1021.23 818.903 1020.54 822.178 1018.48 825.161C1018.15 825.775 1017.7 826.398 1017.14 827.032C1017.09 827.084 1017.05 827.136 1017.03 827.188L1000.06 854.093C999.627 854.759 998.993 855.414 998.151 856.079C996.447 857.399 994.586 858.054 992.57 858.023L978.278 857.836L978.091 868.918L964.069 844.539L978.164 818.435L977.862 831.16L997.611 831.316L997.621 831.305ZM1017.04 827.178C1016.65 827.563 1016.24 827.947 1015.78 828.322C1013.39 830.432 1010.64 831.451 1007.57 831.378L997.632 831.305M937.378 758.284C940.08 755.861 943.24 754.77 946.857 754.998L949.071 755.383L981.126 755.726L983.839 756.34C985.855 757.109 987.352 758.356 988.35 760.082L995.605 772.422L1005.2 766.839L991.593 791.447L961.949 792.902L973.029 786.602L963.02 769.594L947.927 796.759L922.868 782.964L935.174 760.799C935.808 759.885 936.546 759.042 937.388 758.273L937.378 758.284ZM926.027 830.307L935.881 813.268L946.774 819.88L931.183 794.659H903.025L912.577 800.356L905.281 812.665C904.241 814.401 903.867 816.325 904.169 818.435C904.325 819.475 904.574 820.358 904.938 821.076L919.988 849.394C919.812 848.833 919.656 848.23 919.531 847.596C918.918 844.487 919.406 841.618 920.986 838.998L926.027 830.328H956.939L956.981 858.948H932.991C931.588 859.021 930.039 858.761 928.335 858.148C924.946 856.973 922.473 854.759 920.924 851.494C920.57 850.881 920.259 850.184 920.009 849.394M949.06 755.373L950.89 755.674C953.873 756.672 956.128 758.502 957.656 761.174L963.009 769.584" fill="#EAF4ED"/><path d="M1077.71 621.273H844.102V628.852H1077.71V621.273Z" fill="#00401E"/><path d="M697.328 598.361C697.328 582.517 682.994 569.668 665.314 569.668C647.634 569.668 633.301 582.517 633.301 598.361V603.247H697.328V598.361Z" fill="#222144"/><path d="M633.498 595.211V569.668L644.786 585.553L633.498 595.211Z" fill="#222144"/><path d="M659.681 574.23V552.855L674.773 572.099L659.681 574.23Z" fill="#222144"/><path d="M773.121 596.727H782.725V683.554C782.725 686.205 780.574 688.357 777.923 688.357C775.273 688.357 773.121 686.205 773.121 683.554V596.727Z" fill="#222144"/><path d="M1094.86 936.533L1073.99 998.639H1028.3L1046.98 930.129L1094.86 936.533Z" fill="#F36D21"/><path d="M1189.14 331.672H1148.38V375.127H1189.14V331.672Z" stroke="#E39450" stroke-width="0.872824" stroke-miterlimit="10"/><path d="M1046.79 1019.95H972.312V1010.91L1032.9 981.754H1076.28V1019.95H1065.23" fill="#E73245"/><path d="M1353.37 979.542L1291.21 1020L1285.89 1012.5L1316.56 956.681L1288.44 912.197L1331.94 891.207L1378 963.324L1368.77 969.396" fill="#E73245"/><path d="M1373.24 934.699L1300.35 980.629L1152.2 725.022L1168.73 552.281H1237.74L1258.15 713.659L1373.24 934.699Z" fill="#232144"/><path d="M1237.74 552.281L1234.1 587.025C1232.32 604.105 1228.34 620.874 1222.27 636.936L1085.97 997.793L999.46 989.289L1126.45 552.281H1237.74Z" fill="#463EC5"/><path d="M1159.53 386.261H1178.42C1186.82 386.261 1193.63 379.442 1193.63 371.042L1189.51 305.536L1147.74 305.484L1144.31 371.042C1144.31 379.452 1154.56 386.261 1162.97 386.261" fill="#BF7461"/><path d="M1227.49 422.145H1128.85L1120.32 554.444H1237.74L1227.49 422.145Z" fill="#E73245"/><path d="M1198.79 359.574V425.017L1134.33 430.174L1118.53 414.86C1118.53 414.86 1122.23 398.081 1141.93 384.587V359.585H1198.79V359.574Z" fill="#E73245"/><path d="M1117.58 354.02L1105.42 284.377C1104.44 278.815 1108.17 273.513 1113.73 272.536L1166.54 263.305C1172.73 262.223 1178.61 266.361 1179.69 272.547L1191.86 342.21C1192.73 347.148 1189.42 351.847 1184.48 352.71L1129.42 362.337C1123.86 363.314 1118.56 359.582 1117.58 354.02Z" fill="#BF7461"/><path d="M1106.18 333.692C1106.78 336.738 1114.89 337.778 1114.89 337.778L1112.05 319.512C1112.05 319.512 1105.56 330.646 1106.18 333.692Z" fill="#BF7461"/><path d="M1137.35 321.784L1141.7 324.31L1153.39 324.425C1155.64 337.139 1170.77 346.787 1183.49 344.562L1192 343.075L1190.78 287.332L1130.68 283.891" fill="#171111"/><path d="M1130.6 309.972L1129.95 306.23C1129.54 303.932 1127.36 302.394 1125.06 302.799L1112.48 304.993C1110.21 305.388 1108.69 307.561 1109.09 309.827L1109.74 313.569C1109.74 313.569 1109.76 313.601 1109.78 313.601L1130.6 309.962V309.972Z" fill="#171111"/><path d="M1160.58 320.402C1159.65 315.121 1154.63 311.597 1149.35 312.512C1144.07 313.437 1140.55 318.458 1141.46 323.739C1142.38 329.021 1147.41 332.545 1152.69 331.62C1157.96 330.694 1161.49 325.673 1160.57 320.402" fill="#BF7461"/><path d="M1116.38 347.137C1116.61 347.106 1116.84 347.075 1117.07 347.033C1120.12 346.503 1122.7 344.85 1124.22 342.459L1122.54 341.398C1121.24 343.467 1118.79 344.86 1116.04 345.183" fill="black"/><path d="M1097.83 280.636L1099.08 278.858C1098.19 273.816 1100.32 270.791 1105.36 269.918L1155.91 261.081C1174.12 257.9 1190.86 271.758 1191.13 290.242L1191.63 323.946" fill="#3867C3"/><path d="M1194.27 324.08C1194.08 329.185 1188.55 332.283 1184.1 329.787L1097.7 281.248C1095.89 280.24 1094.66 278.421 1094.4 276.362C1093.77 271.144 1099.28 267.38 1103.91 269.875L1190.74 317.853C1193 319.1 1194.36 321.512 1194.27 324.08Z" fill="#3867C3"/><path d="M1125.7 316.967C1124.89 314.971 1120.74 314.764 1116.45 316.51C1114.62 317.259 1114.11 318.995 1114.45 320.616C1114.79 319.66 1115.61 318.901 1116.68 318.714C1118.27 318.433 1119.78 319.494 1120.06 321.084C1120.25 322.176 1119.8 323.226 1118.98 323.87C1119.12 323.829 1119.25 323.808 1119.39 323.756C1123.69 322.01 1126.52 318.974 1125.71 316.978L1125.7 316.967Z" fill="white"/><path d="M1120.06 321.091C1119.78 319.501 1118.27 318.44 1116.68 318.721C1115.61 318.908 1114.79 319.667 1114.45 320.623C1114.89 322.682 1116.7 324.511 1118.98 323.867C1119.79 323.222 1120.25 322.172 1120.06 321.081V321.091Z" fill="black"/><path d="M1194.63 428.331C1210.1 433.809 1227.1 425.7 1232.57 410.21C1238.04 394.731 1229.94 377.733 1214.45 372.255C1198.97 366.776 1181.98 374.885 1176.51 390.375C1171.03 405.854 1179.14 422.852 1194.63 428.32" fill="#E73245"/><path d="M1184.16 393.703L1135.59 481.664L1074.78 490.251L1070.81 519.817L1161.25 513.081L1230.49 412.458L1184.16 393.703Z" fill="#BF7461"/><path d="M1176.04 389.295L1164.74 421.246L1221.29 441.253L1232.59 409.302L1176.04 389.295Z" fill="#E73245"/><path d="M1055.77 486.879L1028.83 466.378C1026.54 464.434 1023.1 464.715 1021.15 467.012C1019.21 469.31 1019.49 472.751 1021.79 474.695L1048.72 495.196L1055.77 486.879Z" fill="#BF7461"/><path d="M1054.78 510.038L1016.06 508.135C1013.4 508 1011.13 510.058 1011 512.72L1010.97 513.406C1010.83 516.067 1012.89 518.334 1015.55 518.469L1052.63 520.205L1054.78 510.048V510.038Z" fill="#BF7461"/><path d="M1054.35 493.443L1026.13 481.664L1018.08 518.664L1046.06 520.639L1054.35 493.443Z" fill="#BF7461"/><path d="M1003.61 495.273C1003.65 492.383 1006.05 490.085 1008.94 490.179L1025.96 490.698C1028.63 490.74 1030.76 492.923 1030.72 495.595V496.281C1030.67 498.953 1028.48 501.084 1025.81 501.042L1008.62 500.512C1005.79 500.429 1003.57 498.09 1003.61 495.273Z" fill="#BF7461"/><path d="M1006.22 505.045C1006.26 502.124 1008.71 499.816 1011.62 499.951L1026.58 500.647C1029.25 500.689 1031.38 502.883 1031.34 505.544V506.23C1031.3 508.902 1029.1 511.033 1026.43 510.992L1011.14 510.285C1008.36 510.149 1006.18 507.842 1006.22 505.045Z" fill="#BF7461"/><path d="M1135.41 482.488L1054.12 492.884L1046.06 520.642L1070.8 519.82L1135.41 482.488Z" fill="#BF7461"/><path d="M1023.37 486.471L1060.65 462.497L1021.26 442.184L1023.37 486.471Z" fill="#BAC09A"/><path d="M1047.19 483.577L1012.89 480.614C1010.03 480.364 1007.52 482.475 1007.26 485.323C1007 488.172 1009.08 490.698 1011.92 490.989L1062.41 496.104L1060.89 493.016C1058.28 487.693 1053.09 484.117 1047.19 483.577Z" fill="#BF7461"/><path d="M1026.16 414.547L1003.16 416.273L1008.56 387.621L1030.48 394.909L1026.16 414.547Z" fill="#A86554"/><path d="M983.931 415.828C983.568 413.427 985.21 411.181 987.611 410.818L1013.69 406.836L1015.02 415.527L988.941 419.509C986.54 419.883 984.295 418.23 983.931 415.828Z" fill="#A86554"/><path d="M1030.45 410.4L1027.94 417.49L1006.11 415.962L1010.55 403.383L1030.45 410.4Z" fill="#A86554"/><path d="M997.549 410.839C997.549 410.839 1001.21 407.907 1002.43 407.45C1005.01 406.503 1003.23 403.052 1001.06 403.697C999.669 404.112 999.534 402.168 999.534 402.168L1006.4 391.855L1009.88 408.999L997.57 410.828L997.549 410.839Z" fill="#A86554"/><path d="M782.725 596.727C782.725 568.284 756.594 545.215 724.352 545.215C692.11 545.215 665.979 568.273 665.979 596.727V603.235H782.735V596.727H782.725Z" fill="#222144"/></svg>