<?xml version="1.0" encoding="utf-8"?><!--Generator: Adobe Illustrator 28.1.0, SVG Export Plug-In . SVG Version: 6.00 Build 0)--><svg version="1.1" id="Layer_1" xmlns="http://www.w3.org/2000/svg" xmlns:xlink="http://www.w3.org/1999/xlink" x="0px" y="0px" viewBox="0 0 1200 840" style="enable-background:new 0 0 1200 840;" xml:space="preserve"><style type="text/css">.st0{fill:#FF7800;}
	.st1{fill:#B87967;}
	.st2{fill:#FAA426;}
	.st3{fill:#838AFF;}
	.st4{fill:#F6B6A4;}
	.st5{fill:#F4B77E;}
	.st6{fill:#2F2E56;}
	.st7{fill:#541512;}
	.st8{fill:#ED2979;}
	.st9{fill:#F99780;}
	.st10{fill:#FFFFFF;}
	.st11{fill:#C7CFD0;}
	.st12{fill:#EAA561;}
	.st13{fill:#7D4831;}
	.st14{fill:#B7B7B7;}
	.st15{fill:#AF5349;}
	.st16{fill:#1E1515;}
	.st17{fill:#FFDCB7;}
	.st18{fill:#FFC98C;}
	.st19{fill:#FFDCCD;}
	.st20{fill:#FFD1BB;}
	.st21{fill:#5858D0;}
	.st22{fill:#8E4147;}
	.st23{fill:#171110;}
	.st24{fill:#020204;}
	.st25{fill:#FBDEB9;}
	.st26{opacity:0.5;fill:#FAA426;}
	.st27{fill:#EBEBEB;}
	.st28{fill:#150F12;}
	.st29{opacity:0.5;fill:#EAF3FF;}</style><rect x="374.72" y="198.61" class="st0" width="52.03" height="40.74"/><path class="st1" d="M104.36,217.99l4.67,18.57l17.38-3.13l5.4-18.32l-2.85-14.18c-0.51-1.95-2.52-3.15-4.48-2.63
	c-1.95,0.51-3.14,2.53-2.63,4.49l2.18,11.81c0,0,0.52,2.64-1.03,2.73c-1,0.05-1.82-0.77-1.88-1.78c-0.06-0.81-0.07-1.33-0.13-1.91
	c-0.13-1.77-0.66-6.68-0.66-6.68L104.36,217.99z"/><circle class="st2" cx="170.23" cy="259.48" r="18.43"/><path class="st3" d="M841.51,177.48l-7.69,20.66c-0.14,0.35-0.27,0.7-0.39,1.05l-0.05,0.13l0.01-0.01
	c-1.17,3.6-1.36,7.56-0.31,11.48c2.89,10.86,14.03,17.31,24.89,14.42c7.74-2.06,13.22-8.33,14.69-15.68
	c4.94,5.65,12.81,8.36,20.54,6.3c10.85-2.89,17.3-14.04,14.41-24.89c-1.05-3.93-3.19-7.28-6-9.82l0.06,0.01l-17.92-14.9
	L841.51,177.48z"/><path class="st4" d="M707.82,99.97l1.02-4.25l0.77-3.19c0.48-2,2.49-3.23,4.49-2.75l0,0c2,0.48,3.23,2.49,2.75,4.49l-0.77,3.19
	l-1.02,4.25l-0.77,3.19c-0.48,2-2.49,3.23-4.49,2.75l0,0c-2-0.48-3.23-2.49-2.75-4.49L707.82,99.97z"/><path class="st4" d="M685.13,126.7L668,182.3l-9.9,27.92l-50.25,40.92l26.82,32.87l43.06-45.68c5.8-3.23,9.9-8.85,11.2-15.36
	l5.18-25.98l0.03,0.01l13.92-67.98L685.13,126.7z"/><polygon class="st5" points="361.56,290.87 330.34,427.73 311.08,425.3 330.27,263.75 "/><polygon class="st5" points="329.77,423.17 333.69,443.63 307.42,441.73 311.72,421.32 "/><path class="st5" d="M339.01,459.29L339.01,459.29c-1.86,1.17-4.31,0.61-5.48-1.25l-12.69-20.16l6.72-4.23l12.69,20.17
	C341.42,455.67,340.87,458.12,339.01,459.29z"/><path class="st5" d="M335.53,475.07L335.53,475.07c-1.43,1.66-3.94,1.85-5.6,0.43l-13.3-11.42l5.17-6.03l13.3,11.42
	C336.77,470.9,336.96,473.4,335.53,475.07z"/><path class="st5" d="M336.36,471.01L336.36,471.01c-1.66,1.43-4.17,1.25-5.6-0.41l-11.45-13.27l6.01-5.19l11.45,13.27
	C338.21,467.07,338.02,469.58,336.36,471.01z"/><rect x="303.37" y="447.19" transform="matrix(0.3764 0.9265 -0.9265 0.3764 614.8629 -11.1429)" class="st5" width="24.68" height="7.94"/><rect x="307.36" y="445.16" transform="matrix(0.427 0.9043 -0.9043 0.427 589.333 -31.7279)" class="st5" width="24.68" height="7.94"/><path class="st5" d="M328.08,449.42c0,0-1.67-3.27-2.33-4.23c-1.38-2-3.57-0.48-2.77,1.41c0.52,1.21,2.45,5.09,3.7,8.03
	c-5.21-5.02-14.87-11.6-14.87-11.6l15.02-4.87L328.08,449.42z"/><path class="st6" d="M320.56,421.82l-4.17-4.59c-0.67-0.74-0.87-1.78-0.51-2.73c0.34-0.9,1.09-1.5,2.02-1.61
	c1-0.12,2.04,0.3,2.67,1.1c0.56-0.7,1.4-1.12,2.31-1.12h0.05c0.99,0.02,1.86,0.6,2.26,1.53c0.42,0.98,0.25,2.06-0.46,2.84
	L320.56,421.82z M318.25,413.62c-0.09,0-0.18,0-0.27,0.02c-0.64,0.08-1.17,0.5-1.4,1.13c-0.25,0.68-0.11,1.43,0.37,1.96l3.62,3.98
	l3.61-3.97c0.6-0.66,0.56-1.49,0.33-2.04c-0.29-0.66-0.88-1.07-1.58-1.08h-0.04c-0.84,0-1.59,0.47-1.98,1.23l-0.33,0.66l-0.33-0.66
	C319.84,414.09,319.09,413.62,318.25,413.62z"/><circle class="st7" cx="548.79" cy="188.82" r="13.31"/><circle class="st7" cx="609.72" cy="188.82" r="13.31"/><ellipse class="st4" cx="603.79" cy="204.85" rx="7.31" ry="7.31"/><ellipse class="st4" cx="554.2" cy="204.83" rx="7.31" ry="7.31"/><path class="st8" d="M555.08,207.56c-6.57,0-11.9,5.33-11.9,11.9c0,6.57,5.33,11.9,11.9,11.9c6.57,0,11.9-5.33,11.9-11.9
	C566.98,212.89,561.65,207.56,555.08,207.56z M555.08,228.21c-4.83,0-8.75-3.92-8.75-8.75c0-4.83,3.92-8.75,8.75-8.75
	c4.83,0,8.75,3.92,8.75,8.75C563.83,224.29,559.91,228.21,555.08,228.21z"/><path class="st8" d="M602.94,207.56c-6.57,0-11.9,5.33-11.9,11.9c0,6.57,5.33,11.9,11.9,11.9c6.57,0,11.9-5.33,11.9-11.9
	C614.85,212.89,609.52,207.56,602.94,207.56z M602.94,228.21c-4.83,0-8.75-3.92-8.75-8.75c0-4.83,3.92-8.75,8.75-8.75
	c4.83,0,8.75,3.92,8.75,8.75C611.69,224.29,607.78,228.21,602.94,228.21z"/><polygon class="st4" points="599.81,587.25 584.79,467.82 643.55,467.82 643.41,587.25 "/><polygon class="st4" points="574.93,587.25 575.25,467.82 517.61,467.82 529.94,587.25 "/><path class="st6" d="M650.77,212.26l37.04,26.19l-58.5,58.85l0.1,36.99c22.63,32.64,23.45,80.67,22.4,111.08
	c-0.48,14-2.65,22.44-2.65,22.44H514.49c0,0-3.34-6.72-5.52-21.34c-3.56-23.9-5.73-76.21,19.36-112.18l-0.94-32.67l-0.55-0.88
	l-40.75,22.95l-25.49-29.67l49.89-46.37l0.03,0.09c3.87-4.4,9.08-7.28,15.64-7.28h83.56L650.77,212.26z"/><path class="st9" d="M560.96,241.07v-24.48h36.11v24.48c0,9.97-8.08,18.06-18.06,18.06h0C569.04,259.13,560.96,251.05,560.96,241.07
	z"/><path class="st4" d="M555.08,214.25v-33.72c0-10.66,8.64-19.29,19.29-19.29h9.28c10.66,0,19.29,8.64,19.29,19.29v33.72
	c0,10.66-8.64,19.29-19.29,19.29h-9.28C563.72,233.54,555.08,224.9,555.08,214.25z"/><path d="M578.93,213.19c-0.26,0-0.52-0.03-0.8-0.08c-0.78-0.16-1.52-0.56-2.2-1.19c-0.36-0.34-0.72-0.48-1.1-0.45
	c-0.75,0.06-1.34,0.82-1.35,0.83l-0.72-0.55c0.03-0.04,0.83-1.08,1.98-1.18c0.63-0.06,1.24,0.17,1.79,0.69
	c0.56,0.52,1.15,0.84,1.77,0.97c0.63,0.12,1.18,0.07,1.65-0.18c0.2-0.1,0.4-0.26,0.59-0.46c0.24-0.26,0.9-0.88,1.87-0.91
	c0.76-0.03,1.54,0.32,2.3,1.03l-0.62,0.66c-0.57-0.54-1.11-0.79-1.64-0.78c-0.62,0.02-1.07,0.44-1.24,0.62
	c-0.26,0.28-0.54,0.5-0.83,0.65C579.94,213.08,579.45,213.19,578.93,213.19z"/><path class="st10" d="M585.93,203.26c0,0,1.81-3.8,5.23-4.96c3.42-1.16,7.17,0.76,7.17,0.76s-1.93,3.49-5.36,4.66
	C589.55,204.87,585.93,203.26,585.93,203.26z"/><path d="M586.64,203.74l-1.4-0.95c5.09-7.49,11.1-5.78,13.45-4.69l-0.71,1.54C595.54,198.51,590.84,197.55,586.64,203.74z"/><path class="st11" d="M397.32,732.14h-32.03L333,743.03c-2.69,1.07-4.62,2.19-4.61,4.97l0.01,0.05h-0.01v17.38h68.92V732.14z"/><path class="st11" d="M404.45,765.43h68.98v-17.38h-0.02l0.02-0.05c0.01-2.78-1.99-4.03-4.61-4.97l-32.28-10.89h-32.09V765.43z"/><path class="st6" d="M350.72,343.9c0,0-19.58,31.13-19.58,86.38v18.65l4.34,99.37c1.28,29.32-1.17,58.68-7.29,87.37l-9.64,48.03
	c-5.44,27.12,15.3,52.43,42.97,52.43h37.98V430.48h2.95v305.66h37.91c27.67,0,48.41-25.31,42.97-52.43l-9.64-48.03
	c-6.12-28.7-8.57-58.06-7.29-87.37l4.34-99.37v-18.65c0,0-3.2-57.65-19.71-86.38H350.72z"/><path class="st7" d="M560.01,186.45h38.5v-4.5c0-0.06-0.01-0.11-0.01-0.16c2.75,3.34,4.41,7.62,4.41,12.29v7.67h3.78v-19.72
	c0-11.55-9.46-20.91-21.12-20.91h-13.11c-11.66,0-21.12,9.36-21.12,20.91v19.72h3.78v-7.67c0-4.95,1.87-9.44,4.93-12.86
	L560.01,186.45z"/><polygon class="st5" points="523.92,297.72 466.73,244.85 442.59,282.8 495.21,315.28 "/><circle cx="591.88" cy="201.03" r="2.82"/><path class="st7" d="M599.33,191.51l-9.66-4.2c-2.89-0.99-6.25,0.54-6.47,3.04c-0.01,0.09-0.01,0.18-0.01,0.26v0.9L599.33,191.51z"/><path class="st7" d="M558.14,194.77l9.66-4.2c2.89-0.99,6.25,0.54,6.47,3.04c0.01,0.09,0.01,0.18,0.01,0.26l0,0.9L558.14,194.77z"/><polygon class="st8" points="603.83,240.47 597.07,240.48 579.01,259.13 560.96,240.48 554.2,240.47 568.7,276.8 576.79,262.93 
	576.79,467.82 581.23,467.82 581.23,262.93 589.33,276.8 "/><path class="st8" d="M680.51,749.38c-37.15-4.49-32.72-46.64-32.72-46.64l1.12-115.5h-52.96l14.53,144.91l-0.83,33.1l10.25,0.08
	l0.27-12.7c0.01-0.01,0.01-0.03,0.02-0.04c0-0.06-0.02-0.12-0.02-0.19c0-1.64,1.33-2.96,2.97-2.96c1.64,0,2.96,1.33,2.96,2.97
	c0,0.08-0.02,0.15-0.02,0.23l0.09,12.68l66.76,0.1C692.94,765.43,697.31,751.41,680.51,749.38z"/><path class="st8" d="M536.7,765.43h45.48v-7.17h-0.09c-0.42-5.33-2.68-10.13-6.14-13.79l2.61-157.21h-52.96l16.97,157.59
	c-3.26,3.61-5.38,8.27-5.79,13.41h-0.09V765.43z"/><line class="st4" x1="620.22" y1="331.09" x2="620.29" y2="331.09"/><path class="st5" d="M525.15,319.87c5.64-6.5,5.1-16.31-1.23-22.15h0c-7.31-6.74-18.94-5.21-24.26,3.2l-42.08,71.37l21.29,10
	L525.15,319.87z"/><path class="st5" d="M442.09,371.81L442.09,371.81c-0.02-2.06,1.64-3.74,3.7-3.75l19.39-1.13l0.06,7.45l-19.39,1.13
	C443.79,375.52,442.11,373.86,442.09,371.81z"/><polygon class="st5" points="478.87,382.29 457.36,405.1 436.54,384.7 460.86,367.17 "/><path class="st5" d="M453.77,387.18l-2.72,2.84l-3.3,3.45l-2.72,2.84c-1.42,1.49-1.37,3.84,0.11,5.27l0,0
	c1.49,1.42,3.84,1.37,5.27-0.11l2.72-2.84l3.3-3.45l2.72-2.84c1.42-1.49,1.37-3.84-0.11-5.27v0
	C457.55,385.65,455.19,385.7,453.77,387.18z"/><path class="st5" d="M460.42,391.13l-2.72,2.84l-3.3,3.45l-2.72,2.84c-1.42,1.49-1.37,3.84,0.11,5.27v0
	c1.49,1.42,3.84,1.37,5.27-0.11l2.72-2.84l3.3-3.45l2.72-2.84c1.42-1.49,1.37-3.84-0.11-5.27l0,0
	C464.2,389.59,461.84,389.64,460.42,391.13z"/><path class="st5" d="M448.33,381.98l-2.72,2.84l-3.3,3.45l-2.72,2.84c-1.42,1.49-1.37,3.84,0.11,5.27h0
	c1.49,1.42,3.84,1.37,5.27-0.11l2.72-2.84l3.3-3.45l2.72-2.84c1.42-1.49,1.37-3.84-0.11-5.27l0,0
	C452.11,380.44,449.75,380.49,448.33,381.98z"/><path class="st5" d="M443.7,375.91l-2.72,2.84l-3.3,3.45l-2.72,2.84c-1.42,1.49-1.37,3.84,0.11,5.27l0,0
	c1.49,1.42,3.84,1.37,5.27-0.11l2.72-2.84l3.3-3.45l2.72-2.84c1.42-1.49,1.37-3.84-0.11-5.27h0
	C447.48,374.38,445.13,374.43,443.7,375.91z"/><polygon class="st5" points="442.09,371.81 441.31,378.41 456.58,375.82 "/><path class="st4" d="M536.43,371.81L536.43,371.81c0.02-2.06-1.64-3.74-3.7-3.75l-19.39-1.13l-0.06,7.45l19.39,1.13
	C534.73,375.52,536.41,373.86,536.43,371.81z"/><polygon class="st4" points="499.65,382.29 521.16,405.1 541.98,384.7 517.65,367.17 "/><path class="st4" d="M524.75,387.18l2.72,2.84l3.3,3.45l2.72,2.84c1.42,1.49,1.37,3.84-0.11,5.27v0c-1.49,1.42-3.84,1.37-5.27-0.11
	l-2.72-2.84l-3.3-3.45l-2.72-2.84c-1.42-1.49-1.37-3.84,0.11-5.27v0C520.97,385.65,523.33,385.7,524.75,387.18z"/><path class="st4" d="M518.1,391.13l2.72,2.84l3.3,3.45l2.72,2.84c1.42,1.49,1.37,3.84-0.11,5.27v0c-1.49,1.42-3.84,1.37-5.27-0.11
	l-2.72-2.84l-3.3-3.45l-2.72-2.84c-1.42-1.49-1.37-3.84,0.11-5.27l0,0C514.32,389.59,516.67,389.64,518.1,391.13z"/><path class="st4" d="M530.19,381.98l2.72,2.84l3.3,3.45l2.72,2.84c1.42,1.49,1.37,3.84-0.11,5.27l0,0
	c-1.49,1.42-3.84,1.37-5.27-0.11l-2.72-2.84l-3.3-3.45l-2.72-2.84c-1.42-1.49-1.37-3.84,0.11-5.27l0,0
	C526.41,380.44,528.77,380.49,530.19,381.98z"/><path class="st4" d="M534.82,375.91l2.72,2.84l3.3,3.45l2.72,2.84c1.42,1.49,1.37,3.84-0.11,5.27l0,0
	c-1.49,1.42-3.84,1.37-5.27-0.11l-2.72-2.84l-3.3-3.45l-2.72-2.84c-1.42-1.49-1.37-3.84,0.11-5.27l0,0
	C531.04,374.38,533.39,374.43,534.82,375.91z"/><polygon class="st4" points="536.43,371.81 537.21,378.41 521.94,375.82 "/><path class="st4" d="M673.96,99.3L673.96,99.3c-1.74,1.1-2.26,3.4-1.16,5.14l9.53,16.92l6.3-3.98l-9.53-16.92
	C678,98.72,675.7,98.2,673.96,99.3z"/><polygon class="st4" points="705.88,138.79 714.84,102.57 685.76,96.07 683.08,107.52 678.1,113.84 686.57,129.35 "/><path class="st4" d="M697.23,111.94l0.92-3.82l1.12-4.64l0.92-3.82c0.48-2,2.49-3.23,4.49-2.75h0c2,0.48,3.23,2.49,2.75,4.49
	l-0.92,3.82l-1.12,4.64l-0.92,3.82c-0.48,2-2.49,3.23-4.49,2.75v0C697.98,115.95,696.75,113.94,697.23,111.94z"/><path class="st4" d="M689.91,110.17l0.92-3.82l1.12-4.64l0.92-3.82c0.48-2,2.49-3.23,4.49-2.75v0c2,0.48,3.23,2.49,2.75,4.49
	l-0.92,3.82l-1.12,4.64l-0.92,3.82c-0.48,2-2.49,3.23-4.49,2.75v0C690.66,114.19,689.43,112.17,689.91,110.17z"/><path class="st4" d="M686.08,110.65c-2-0.48-3.23-2.49-2.75-4.49l2.43-10.09l2.06-8.55l2.43-10.09c0.48-2,2.49-3.23,4.49-2.75h0
	c2,0.48,3.23,2.49,2.75,4.49l-2.43,10.09L693,97.81l-2.43,10.09C690.1,109.9,688.08,111.13,686.08,110.65L686.08,110.65z"/><path class="st6" d="M630.53,488.63l-4.17-4.59c-0.67-0.74-0.87-1.78-0.51-2.73c0.33-0.9,1.09-1.5,2.02-1.61
	c1.02-0.12,2.04,0.3,2.67,1.1c0.56-0.7,1.4-1.12,2.31-1.12l0.05,0c0.99,0.02,1.86,0.6,2.26,1.53c0.42,0.97,0.25,2.06-0.46,2.84
	L630.53,488.63z M628.21,480.43c-0.09,0-0.18,0.01-0.27,0.02c-0.64,0.08-1.17,0.5-1.4,1.13c-0.25,0.68-0.11,1.43,0.37,1.96
	l3.62,3.98l3.61-3.97c0.6-0.67,0.56-1.49,0.33-2.04c-0.29-0.66-0.88-1.07-1.58-1.08l-0.02,0l0,0c-0.85,0-1.61,0.47-2,1.23
	l-0.33,0.66l-0.33-0.66C629.81,480.9,629.05,480.43,628.21,480.43z"/><circle class="st5" cx="350.57" cy="260.46" r="21.11"/><circle class="st5" cx="452.52" cy="260.46" r="21.11"/><path class="st3" d="M350.79,288.84v55.06h100.3v-55.24l0.66-49.22c-0.22-0.02-0.44-0.02-0.66-0.03v-0.04h-100.3v0.06
	c-0.07,0-0.15,0.01-0.22,0.01L350.79,288.84z"/><path class="st12" d="M418.5,239.37v-21.28h-35.12v21.28h-4.85l14.5,35.14c2.31,5.6,10.17,5.82,12.79,0.35l16.98-35.49H418.5z"/><circle class="st6" cx="384.35" cy="239.76" r="2.59"/><circle class="st6" cx="389.09" cy="240.59" r="2.59"/><circle class="st6" cx="393.83" cy="241.43" r="2.59"/><circle class="st6" cx="398.57" cy="242.26" r="2.59"/><circle class="st6" cx="403.31" cy="242.26" r="2.59"/><circle class="st6" cx="408.05" cy="241.43" r="2.59"/><circle class="st6" cx="412.79" cy="240.59" r="2.59"/><circle class="st6" cx="417.53" cy="239.76" r="2.59"/><path class="st8" d="M404.54,244.02c-0.15-0.02-0.3-0.03-0.46-0.03c-1.35,0-2.51,0.73-3.15,1.81c-0.64-1.08-1.81-1.81-3.15-1.81
	c-0.15,0-0.3,0.01-0.44,0.03c-2.47,0.3-3.48,3.39-1.82,5.25l5.47,6.14l5.4-6.15C408.02,247.38,407,244.33,404.54,244.02z"/><path class="st1" d="M314.62,200.91c-3.06-0.83-11.73-7.6-11.73-7.6l-12.13,1.63c-1.62,0.22-3.11-0.92-3.33-2.55l0,0
	c-0.22-1.63,0.92-3.11,2.55-3.33l0.64,0.29l0,0c-0.99-0.5-1.56-1.49-1.6-2.53c-0.88,0.13-1.82-0.13-2.52-0.8
	c-0.62-0.61-0.9-1.42-0.88-2.22c-0.95-1.15-0.91-2.86,0.16-3.96l10.68-11.17c1.08-1.13,2.79-1.37,4.13-0.58l24.81,14.61l7.04,10.6
	L314.62,200.91L314.62,200.91z"/><path class="st13" d="M303.84,185.83l-0.67,0.45c0.05,0.07,0.61,0.88,1.6,1.9l-1.53,2.84c-0.19,0.37-0.6,0.58-1.02,0.53l-6.6-0.88
	c-1.53-0.22-1.53-1.35-1.53-1.5l4.2-13.95l-0.78-0.23l-4.18,13.88c-0.77,0.5-1.72,0.56-2.54,0.15c-1.26-0.64-1.77-2.18-1.13-3.44
	l6.26-12.83l-0.73-0.36l-6.26,12.83c-0.84,1.66-0.17,3.7,1.48,4.53c0.93,0.47,2.01,0.48,2.93,0.05c0.2,0.69,0.79,1.48,2.15,1.68
	l6.6,0.88c0.08,0.02,0.17,0.02,0.25,0.02l0-0.01c0.66,0,1.29-0.36,1.6-0.96l1.41-2.62c1.13,1.07,2.66,2.25,4.52,3.04h0.01l0.32-0.75
	C306.33,189.43,303.84,185.83,303.84,185.83z"/><path class="st2" d="M335.28,191.44l-23.84,10.37l16.28,41.29h-1.36c-3.89-6.43-10.93-10.72-18.99-10.72h-1.19
	c-7.5,0-14.11,3.72-18.13,9.42l-12.93-0.76l0.06,36.72l69.6-6.72c11.72-0.24,19.25-12.56,14.13-23.12L335.28,191.44z"/><path class="st6" d="M188.04,734.41c-12.49,0-22.61,10.12-22.61,22.6v8.41h45.22v-8.41C210.65,744.53,200.53,734.41,188.04,734.41z"/><path class="st6" d="M279.47,757.01c0-12.48-10.12-22.6-22.61-22.6c-12.49,0-22.61,10.12-22.61,22.6v8.41h45.22V757.01z"/><path class="st3" d="M287.11,746.6c0,0,8.91-261.49,10.26-282.47c1.77-27.33,2.35-83.5-22.12-119.96l0,0H171.26
	c-25.14,36.02-22.18,97.02-22.18,123.88c0,21.02,9.71,278.55,9.71,278.55H287.11z"/><path class="st2" d="M153.87,250.98l-33.25,63.58c-3.78,8.88,1.24,19.03,10.59,21.42h0c6.92,1.76,14.16-1.35,17.63-7.58l37.03-59.14
	L153.87,250.98z"/><polygon class="st2" points="275.11,241.06 171.57,241.06 171.27,344.17 275.26,344.17 "/><path class="st6" d="M187.4,344.17h-31.6l14.9-103.11H212v85.06C212,336.27,200.99,344.17,187.4,344.17z"/><path class="st6" d="M290.01,344.17h-31.6c-13.59,0-24.61-7.89-24.61-18.05v-85.06h41.3L290.01,344.17z"/><path class="st14" d="M195.39,184.6l-0.03,53.34c-0.14,15.83,12.49,29.2,28.12,29.2h0c15.53,0,28.19-13.46,28.19-29.2V184.6H195.39z
	"/><path class="st1" d="M199.58,214.67v-33.76c0-10.67,8.65-19.33,19.33-19.33h9.31c10.67,0,19.33,8.65,19.33,19.33v33.76
	c0,10.67-8.65,19.33-19.33,19.33h-9.31C208.23,234,199.58,225.34,199.58,214.67z"/><path class="st14" d="M236.81,157.85h-26.6c-8.2,0-14.86,6.65-14.86,14.86v12.98h56.31v-12.98
	C251.67,164.5,245.02,157.85,236.81,157.85z"/><path d="M223.26,213.23c-0.27,0-0.54-0.03-0.83-0.09c-0.81-0.16-1.58-0.58-2.29-1.24c-0.4-0.37-0.79-0.53-1.22-0.49
	c-0.83,0.07-1.47,0.9-1.48,0.91l-0.65-0.49c0.03-0.05,0.86-1.12,2.05-1.22c0.65-0.06,1.27,0.18,1.84,0.71
	c0.6,0.56,1.24,0.91,1.9,1.04c0.68,0.14,1.28,0.07,1.8-0.19c0.22-0.11,0.44-0.28,0.64-0.5c0.24-0.27,0.93-0.91,1.92-0.94
	c0.79-0.03,1.6,0.33,2.37,1.07l-0.56,0.59c-0.62-0.58-1.22-0.87-1.79-0.84c-0.68,0.02-1.18,0.49-1.36,0.68
	c-0.28,0.29-0.56,0.52-0.86,0.67C224.29,213.11,223.79,213.23,223.26,213.23L223.26,213.23z"/><path class="st7" d="M234.88,191.18h0.27c2.79,0.02,5.41,1.41,7.07,3.76l0,0l-14.44-0.06l0,0
	C229.46,192.53,232.09,191.16,234.88,191.18L234.88,191.18z"/><path class="st10" d="M228.62,203.39c0,0,1.78-4.58,5.11-5.74c3.33-1.16,7.24,1.11,7.24,1.11s-1.61,3.47-4.95,4.63
	C232.69,204.54,228.62,203.39,228.62,203.39L228.62,203.39z"/><ellipse cx="234.64" cy="200.74" rx="2.89" ry="2.89"/><path d="M228.6,203.38c0.95-7.66,10.74-8.24,13.18-5.81c-0.28,0.45-0.52,0.73-0.8,1.18c-1.02-0.62-9.05-3.26-12.35,4.63
	c0,0-0.01,0-0.01,0L228.6,203.38z"/><path class="st7" d="M212.9,186.9l-0.25-0.08c-2.65-0.85-5.58-0.33-7.89,1.39l0,0l13.76,4.41l0,0
	C217.62,189.86,215.55,187.75,212.9,186.9L212.9,186.9z"/><path class="st10" d="M217.03,203.38c0,0-1.78-4.58-5.11-5.74c-3.33-1.16-7.24,1.11-7.24,1.11s1.61,3.47,4.95,4.63
	C212.96,204.54,217.04,203.38,217.03,203.38L217.03,203.38z"/><ellipse cx="211.01" cy="200.74" rx="2.89" ry="2.89"/><path d="M217.05,203.38c-0.95-7.66-10.73-8.25-13.17-5.82c0.28,0.45,0.52,0.73,0.8,1.18c1.02-0.62,9.01-3.3,12.36,4.64
	C217.03,203.39,217.04,203.39,217.05,203.38L217.05,203.38z"/><path class="st6" d="M223.58,219.94c-0.03-1.67-2.58-1.4-2.58-1.4l-5.78,0.1c0.05-0.33,7.35,13.18,16.68-0.27l-5.78,0.1
	c0,0-2.56-0.18-2.53,1.49l0,0L223.58,219.94z"/><path class="st8" d="M32.91,135.94l70.6-14.79c11.48-2.4,22.73,4.97,25.13,16.45l11.23,53.77c2.4,11.49-4.96,22.76-16.44,25.17
	l-53.16,11.14l-18.29,24.18l-4.2-20.09c-9.56-0.3-18.04-7.1-20.09-16.89l-11.23-53.77C14.05,149.61,21.41,138.34,32.91,135.94
	L32.91,135.94z"/><polygon class="st10" points="64.07,145.79 90.94,140.17 81.49,172.32 93.18,169.87 67.07,220.22 72.84,181.48 59.56,184.26 "/><rect x="202.4" y="202.77" class="st1" width="42.32" height="5.59"/><path class="st4" d="M453.37,319.87c-5.64-6.5-5.1-16.31,1.23-22.15h0c7.31-6.74,18.94-5.21,24.26,3.2l42.08,71.37l-21.29,10
	L453.37,319.87z"/><path class="st15" d="M579.38,219.06c0-0.82-0.76-1.2-1.46-1.37c-0.62-0.15-1.13,0.09-1.85,0.24l-4,0.91c0,0,6.94,11.92,14.36,0
	l-3.9-0.88c-0.77-0.23-1.5-0.44-2.22-0.14C579.82,218.04,579.38,218.41,579.38,219.06"/><rect x="404.45" y="751.28" class="st6" width="68.98" height="14.14"/><rect x="328.36" y="751.28" class="st6" width="68.98" height="14.14"/><path class="st6" d="M253.67,191.49v-10.35c0-9.29-7.56-16.86-16.86-16.86h-26.6c-9.29,0-16.86,7.56-16.86,16.86v10.38
	c-3.83,1.02-6.65,4.5-6.65,8.65v9.11c0,4.95,4.01,8.97,8.97,8.97h1.38c1.39,0,2.52-1.13,2.52-2.52v-22c0-1.29-0.97-2.34-2.22-2.49
	v-10.1c0-7.09,5.77-12.86,12.86-12.86h26.6c7.09,0,12.86,5.77,12.86,12.86v10.11c-1.2,0.19-2.13,1.22-2.13,2.48v22
	c0,1.39,1.13,2.52,2.52,2.52h1.38c4.95,0,8.97-4.01,8.97-8.97v-9.11C260.41,195.98,257.54,192.48,253.67,191.49z"/><path d="M573.66,200.78l-0.02-0.02c-0.33-0.39-0.9-0.46-1.31-0.16c-6.96,4.96-12.27-2.07-12.27-2.07s0.55,1.12,1.66,2.35
	c2.92,3.26,7.82,3.85,11.52,1.51c0.08-0.05,0.17-0.11,0.25-0.16C573.97,201.9,574.04,201.22,573.66,200.78"/><rect x="1006.39" y="184.21" transform="matrix(-1 4.009003e-11 -4.009003e-11 -1 2066.5657 406.0459)" class="st16" width="53.79" height="37.64"/><polygon class="st17" points="991.37,696.11 994.11,737.55 1023.8,737.55 1025.3,696.11 "/><polygon class="st11" points="976.35,753.46 1024.17,753.46 1024.17,737.55 992.62,737.55 "/><rect x="976.35" y="753.46" class="st6" width="47.82" height="11.95"/><polygon class="st6" points="1119.68,765.43 1072.92,765.4 1072.88,753.28 1119.6,753.28 "/><polygon class="st11" points="1119.68,753.28 1072.9,753.28 1072.33,737.55 1103.41,737.55 "/><rect x="984.54" y="328.18" class="st17" width="99.27" height="15.71"/><polygon class="st2" points="875.6,728.8 847.67,728.8 845.42,752.15 848.65,765.43 875.2,765.43 878.44,752.15 "/><path class="st2" d="M944.67,761.31c1.78,2.58,4.72,4.12,7.85,4.12l34.39,0c1.66,0,3.01-1.35,3.01-3.01l0,0
	c0-1.18-0.69-2.25-1.76-2.74l-23.62-10.78l0,0c-8.27,2.52-17.21-0.73-21.93-7.98l-20.65-31.71l-3.77,5.05
	c-4.28,5.73-3.72,12.16-3.72,20l0,0v31.15h8.54v-26.38c0-1.23,1-2.23,2.23-2.23l0,0c0.7,0,1.36,0.33,1.78,0.89L944.67,761.31z"/><path class="st17" d="M1175.36,333.35c5.64-6.5,5.1-16.31-1.23-22.15l0,0c-7.31-6.74-18.94-5.21-24.26,3.2l-42.08,71.37l21.29,11.16
	L1175.36,333.35z"/><path class="st11" d="M1077.16,295.59l65.17,49c15.28,9.4,35.32,1.78,40.5-15.39v0c3.29-10.9-0.52-22.7-9.57-29.62l-73.98-53.65
	l-0.01,0.01c-3.89-3.39-8.86-5.61-14.41-6.02c-13.63-1.03-25.52,9.19-26.54,22.82c-0.5,6.7,3.26,15.17,7.21,22.07L1077.16,295.59z"/><path class="st11" d="M997.65,290.25c5.54-5.14,9.75-11.6,11.9-18.83c0.9-3.03,1.38-6,1.18-8.67
	c-1.03-13.63-12.91-23.85-26.54-22.82c-5.54,0.42-10.52,2.63-14.41,6.02l-0.01-0.01l-73.98,53.65c-9.04,6.92-12.86,18.71-9.57,29.62
	v0c5.18,17.18,25.22,24.79,40.5,15.39l65.17-49L997.65,290.25z"/><polygon class="st17" points="1101.74,696.11 1102.3,737.55 1073.11,737.55 1068.22,696.11 "/><path class="st8" d="M984.54,343.9c0,0-9.57,6.78-14.39,46.26c-1.28,10.49-0.18,228.48,1.11,305.56
	c0.3,17.68,14.73,32.01,32.41,31.98h2.14c18.01-0.03,32.53-14.95,32.29-32.96l-3.67-303.48h0.69l11.39,305.42
	c0.71,17.31,14.94,30.98,32.26,31.02h0c18.29,0.03,32.98-15.09,32.4-33.37c-2.49-78.06-11.08-293.65-12.39-304.16
	c-4.89-39.11-14.95-46.26-14.95-46.26H984.54z"/><rect x="984.54" y="239.85" class="st6" width="99.27" height="88.33"/><path class="st18" d="M1050.27,244.13V224.5h-33.96v19.63c0,5.72,4.64,10.36,10.36,10.36h13.23
	C1045.63,254.49,1050.27,249.85,1050.27,244.13z"/><ellipse class="st17" cx="1008.94" cy="202.66" rx="7.18" ry="7.18"/><ellipse class="st17" cx="1057.63" cy="202.64" rx="7.18" ry="7.18"/><path class="st17" d="M1056.78,213.39v-33.12c0-10.46-8.48-18.95-18.95-18.95h-9.11c-10.46,0-18.95,8.48-18.95,18.95v33.12
	c0,10.46,8.48,18.95,18.95,18.95h9.11C1048.3,232.34,1056.78,223.85,1056.78,213.39z"/><path d="M1033.09,211.22c0.27,0,0.55-0.03,0.83-0.09c0.81-0.16,1.59-0.58,2.3-1.24c0.38-0.35,0.75-0.5,1.15-0.47
	c0.79,0.07,1.4,0.86,1.41,0.87l0.75-0.57c-0.04-0.05-0.87-1.13-2.07-1.24c-0.67-0.06-1.3,0.18-1.87,0.72
	c-0.58,0.54-1.2,0.88-1.84,1.01c-0.65,0.13-1.23,0.07-1.73-0.18c-0.21-0.11-0.41-0.27-0.61-0.48c-0.25-0.27-0.94-0.92-1.95-0.95
	c-0.81-0.03-1.61,0.33-2.4,1.07l0.65,0.69c0.59-0.56,1.17-0.83,1.72-0.81c0.65,0.02,1.12,0.46,1.29,0.65
	c0.27,0.29,0.57,0.52,0.87,0.68C1032.03,211.1,1032.54,211.22,1033.09,211.22z"/><path class="st16" d="M1020.1,187.04l-0.27,0.09c-2.86,0.96-5.07,3.28-5.99,6.27l0,0l14.82-4.99l0,0
	C1026.12,186.59,1022.96,186.08,1020.1,187.04L1020.1,187.04z"/><path class="st16" d="M1045.38,190.16l0.29-0.01c3.01-0.12,5.91,1.25,7.83,3.71l0,0l-15.62,0.65l0,0
	C1039.59,191.9,1042.37,190.29,1045.38,190.16L1045.38,190.16z"/><path class="st16" d="M1028.78,173.01c-10.34,0-18.72,8.48-18.72,18.95v6.59h-3.67v-20.35c0-10.28,8.33-18.62,18.62-18.62h16.56
	c10.28,0,18.62,8.33,18.62,18.62v20.35h-3.67v-6.59c0-10.47-8.38-18.95-18.72-18.95H1028.78z"/><path class="st10" d="M1027.36,201.32c0,0-1.73-3.64-5-4.75c-3.27-1.11-6.86,0.73-6.86,0.73s2.8,3.1,5.09,3.85
	C1022.93,201.91,1027.36,201.32,1027.36,201.32z"/><path d="M1027.36,201.32c0,0-2.65-8.23-14.9-5.1l3.27,1.51C1018.3,197.24,1023.01,196.96,1027.36,201.32z"/><polygon class="st11" points="1050.3,239.85 1033.14,254.49 1046.5,262.45 1057.47,239.85 "/><polygon class="st11" points="1016.31,239.85 1033.48,254.49 1020.11,262.45 1009.14,239.85 "/><path class="st8" d="M1033.2,221.84c-5.73,0-7.25-4.38-7.25-4.38s0.89,0,2.55-1.43c0,0,2.51-2.33,4.79,0.4h0
	c2.28-2.73,4.79-0.4,4.79-0.4c1.66,1.43,2.55,1.43,2.55,1.43s-1.52,4.38-7.25,4.38H1033.2z"/><rect x="1033.67" y="217.78" class="st10" width="2.07" height="1.49"/><rect x="1031.12" y="217.78" class="st10" width="2.07" height="1.49"/><path class="st8" d="M1036.02,218.11c0,0-0.78-0.66-1.85,0c0,0-0.76,0.45-1.59,0c0,0-0.74-0.31-1.47,0l-0.61-0.97h6.02
	L1036.02,218.11z"/><path d="M1019.07,199.73c-0.44-1.27,0.23-2.65,1.5-3.09c1.27-0.44,2.65,0.23,3.09,1.5c0.44,1.27-0.23,2.65-1.5,3.09
	C1020.89,201.67,1019.51,201,1019.07,199.73z"/><rect x="1014.35" y="200.87" transform="matrix(-1 4.487865e-11 -4.487865e-11 -1 2066.1987 407.0262)" class="st17" width="37.49" height="5.29"/><path class="st17" d="M1092.3,386.45L1092.3,386.45c-0.02-2.06,1.64-3.74,3.7-3.75l19.39-1.13l0.06,7.45l-19.39,1.13
	C1094,390.16,1092.32,388.51,1092.3,386.45z"/><polygon class="st17" points="1129.08,396.93 1107.57,419.74 1086.75,399.34 1111.07,381.81 "/><path class="st17" d="M1103.98,401.83l-2.72,2.84l-3.3,3.45l-2.72,2.84c-1.42,1.49-1.37,3.84,0.11,5.27l0,0
	c1.49,1.42,3.84,1.37,5.27-0.11l2.72-2.84l3.3-3.45l2.72-2.84c1.42-1.49,1.37-3.84-0.11-5.27l0,0
	C1107.76,400.29,1105.4,400.34,1103.98,401.83z"/><path class="st17" d="M1110.63,405.77l-2.72,2.84l-3.3,3.45l-2.72,2.84c-1.42,1.49-1.37,3.84,0.11,5.27l0,0
	c1.49,1.42,3.84,1.37,5.27-0.11l2.72-2.84l3.3-3.45l2.72-2.84c1.42-1.49,1.37-3.84-0.11-5.27l0,0
	C1114.41,404.23,1112.05,404.28,1110.63,405.77z"/><path class="st17" d="M1098.54,396.62l-2.72,2.84l-3.3,3.45l-2.72,2.84c-1.42,1.49-1.37,3.84,0.11,5.27l0,0
	c1.49,1.42,3.84,1.37,5.27-0.11l2.72-2.84l3.3-3.45l2.72-2.84c1.42-1.49,1.37-3.84-0.11-5.27l0,0
	C1102.32,395.08,1099.96,395.13,1098.54,396.62z"/><path class="st17" d="M1093.91,390.56l-2.72,2.84l-3.3,3.45l-2.72,2.84c-1.42,1.49-1.37,3.84,0.11,5.27h0
	c1.49,1.42,3.84,1.37,5.27-0.11l2.72-2.84l3.3-3.45l2.72-2.84c1.42-1.49,1.37-3.84-0.11-5.27v0
	C1097.69,389.02,1095.33,389.07,1093.91,390.56z"/><polygon class="st17" points="1092.3,386.45 1091.52,393.05 1106.78,390.46 "/><path class="st19" d="M667.28,256.22l4.68-26l16.36,5.44l-5.45-5.04c-1.43-1.32-1.51-3.55-0.19-4.98l0.34-0.37
	c1.32-1.43,3.55-1.51,4.97-0.19l19.79,18.31L704,266.62L667.28,256.22z"/><ellipse transform="matrix(0.9663 -0.2575 0.2575 0.9663 -21.0367 237.0362)" class="st19" cx="894.63" cy="198.85" rx="7.07" ry="7.07"/><ellipse transform="matrix(0.9663 -0.2575 0.2575 0.9663 -25.7727 225.5197)" class="st19" cx="848.29" cy="211.18" rx="7.07" ry="7.07"/><path class="st6" d="M849.51,216.3L849.51,216.3c1.15,0,2.08,0.92,2.08,2.07l0.04,17.89l-4.15,0.01l-0.04-17.89
	C847.43,217.23,848.36,216.3,849.51,216.3z M894.3,223.78l4.15,0l0-17.89c0-1.15-0.93-2.07-2.07-2.07h0c-1.15,0-2.07,0.93-2.07,2.07
	L894.3,223.78z"/><path class="st19" d="M953.86,430.59c1.29-0.74,2.68,0.57,2,2.13c-0.42,0.96-1.75,3.63-2.91,6.16l-6.4,7.35
	c0.04,3.2,0.05,6.47,0.03,9.82c-0.01,1.89-0.03,4.05-0.04,6.42c0.8-0.06,1.59-0.36,2.25-0.92l13.33-11.33l9.34-22.78L967.54,409
	l-9.85-81.73l-27.07,5.94l17.82,79.89l-2.59,13.21c0.29,5.07,0.51,10.36,0.63,15.88L953.86,430.59z"/><path class="st20" d="M859.11,237.27v-22.66h34.92v22.66c0,9.65-7.82,17.47-17.46,17.47l0,0
	C866.92,254.74,859.11,246.92,859.11,237.27z"/><path class="st19" d="M851.6,220.38l-8.66-32.5c-2.68-10.06,3.3-20.38,13.36-23.06l8.31-2.21c10.06-2.68,20.38,3.3,23.06,13.36
	l8.66,32.5c2.68,10.06-3.3,20.38-13.36,23.06l-8.31,2.21C864.6,236.41,854.28,230.43,851.6,220.38z"/><path d="M873.35,211.98c-0.88,0.23-1.9,0.05-3.05-0.54c-1.62-0.84-2.63,0.9-2.67,0.97l-0.81-0.46c0.51-0.9,1.99-2.34,3.91-1.34
	c2.29,1.19,3.31,0.16,3.94-0.88c0.71-1.18,2.22-2.05,4.28-0.93l-0.44,0.82c-1.76-0.95-2.67-0.03-3.05,0.6
	C874.88,211.17,874.18,211.76,873.35,211.98z"/><path class="st8" d="M872.92,217.32l-6.64,2.14c-0.04-0.27,5.35,4.15,10.76,2.43c3.44-1.1,4.5-3.66,6.56-7.98l-6.58,2.11
	c-0.71,0.23-1.24,0.87-1.38,1.68l-0.1,0.6l-0.71-0.57C874.27,217.27,873.56,217.12,872.92,217.32z"/><path class="st10" d="M866.06,204.48c0,0-2.56-3.06-5.99-3.32s-6.41,2.4-6.41,2.4s2,2.29,5.43,2.54
	C862.52,206.36,866.06,204.48,866.06,204.48z"/><ellipse transform="matrix(0.9663 -0.2575 0.2575 0.9663 -23.3963 228.1229)" cx="859.41" cy="203.4" rx="2.81" ry="2.81"/><path d="M866.06,204.48c-2.84-4.72-9.52-5.42-13.16-1.64c0.38,0.35,0.63,0.62,1.02,0.98c0.81-0.84,5.26-4.18,11.24,0.04
	C865.52,204.12,865.59,204.25,866.06,204.48z"/><path class="st10" d="M876.62,201.67c0,0,0.7-3.93,3.54-5.86c2.84-1.92,6.75-1.11,6.75-1.11s-0.6,2.98-3.44,4.91
	S876.62,201.67,876.62,201.67z"/><ellipse transform="matrix(0.9663 -0.2575 0.2575 0.9663 -21.1004 233.6989)" cx="881.85" cy="197.42" rx="2.81" ry="2.81"/><path d="M876.62,201.67c0.12-5.51,5.56-9.44,10.6-7.97c-0.15,0.5-0.24,0.86-0.39,1.35c-1.12-0.32-6.64-1.01-9.73,5.63
	C876.92,201.08,876.92,201.23,876.62,201.67z"/><path class="st21" d="M850.5,196.81l10.5-2.8c2.11-0.56,3.36-2.73,2.8-4.84l-0.04-0.15l-10.5,2.8c-2.11,0.56-3.36,2.73-2.8,4.84
	L850.5,196.81z"/><path class="st21" d="M887.27,190.46l-10.5,2.8c-2.11,0.56-4.28-0.69-4.84-2.8l-0.04-0.15l10.5-2.8c2.11-0.56,4.28,0.69,4.84,2.8
	L887.27,190.46z"/><path class="st8" d="M788.58,241.06v45.55l40.5,0.56v48.41l96.48-0.29l38.56-8.47l-14.82-68.74l-0.01-0.03h0
	c-2.33-9.96-10.89-17.7-21.63-18.51h-26.21v-3.06H852v3.06h-25.85L788.58,241.06z"/><path class="st6" d="M976.76,752.31h-72.88l-22.15-328.07h-5.39l6.37,328.07h-73.66c0,0,0.87-291.31,0.83-291.86
	c-5.09-76.9,14.66-117.62,19.19-125.84l96.48-0.29c3.31,6.12,18.18,33.35,21.51,90.77L976.76,752.31z"/><path class="st3" d="M891.9,178.46c-2.89-10.83-14.54-19.29-25.37-16.41l-12.17,3.24c-10.83,2.89-16.73,16.02-13.85,26.86
	l5.49,20.59l3.51-0.93l-2.47-9.28c-1.98-7.44,0.77-14.99,6.37-19.46l-4.72-4.74l1.66-1.66l7.22,7.24c4.27,3.69,10.12,5.07,15.63,3.6
	l14.59-3.89c1.65,2.02,2.92,4.4,3.64,7.09l2.47,9.28l3.51-0.93L891.9,178.46z"/><path class="st3" d="M687.92,239.8c-11.73,0-19.3,9.39-22.72,21.37l-0.01,0l-6.38,60.32c-1.25,11.87,7.99,22.23,19.92,22.34
	l7.29,0.07l18.59,0.9h72.75L793,385.23c7.05,18.24,30,24.07,44.91,11.41l0,0c8.45-7.18,11.96-18.63,8.97-29.31L815.7,255.75
	c-4.01-12.52-10.09-15.95-22.74-15.95H687.92z"/><path class="st15" d="M841.62,413.6l-6.94-41.51l-25.7,9.99l13.09,36.73l-2.51,16.86l-5.85,13.7c-0.78,1.86,0.59,2.84,0.97,3.08v0
	c2.46,1.37,4.47,0.45,5.6-1.52l5.27-9.2l0,0.06c0,0,0.05-0.11,0.14-0.3l2.83-4.94c1.29-0.83,2.8,0.46,2.17,2.11
	c-0.39,1.02-1.63,3.83-2.72,6.5l-10.72,13.51c-1.41,1.77-1.11,4.35,0.66,5.76c0.05,0.04,0.1,0.06,0.15,0.1
	c-0.44,1.37-0.17,2.93,0.88,4.06v0c1.55,1.66,4.14,1.75,5.8,0.2l13.24-12.35l8.57-23.99L841.62,413.6z"/><polygon class="st15" points="734.04,760.07 705.96,760.07 697.85,686.92 733.67,686.92 "/><path class="st2" d="M735.84,760.07c0-12.56-10.18-22.75-22.74-22.75c-12.56,0-22.74,10.19-22.74,22.75"/><rect x="690.36" y="758.25" transform="matrix(-1 -1.224647e-16 1.224647e-16 -1 1426.1956 1523.677)" class="st3" width="45.48" height="7.17"/><polygon class="st15" points="748.18,760.07 776.26,760.07 784.34,687.14 784.37,686.92 748.55,686.92 "/><path class="st2" d="M746.38,760.07c0-12.56,10.18-22.75,22.74-22.75c12.56,0,22.74,10.19,22.74,22.75"/><rect x="746.38" y="758.25" class="st3" width="45.48" height="7.17"/><path class="st11" d="M825.63,662.1l-17.2-236.36c-0.26-4.38-0.78-8.36-1.52-12c-4.66-50.82-21.17-79.56-21.17-79.56h-92.05
	c0,0-14.04,34.34-19.66,83.09c-0.48,2.82-0.79,5.82-0.92,9.01L656.59,667.6c-1.83,26.79,19.06,49.69,45.89,50.3l33.36,0.77
	l1.32-294.45c2.5-0.56,3.97-0.91,3.97-0.91s1.46,0.36,3.93,0.93l1.32,294.43l33.36-0.77C806.57,717.29,827.46,688.89,825.63,662.1z"/><path class="st22" d="M722.98,240.97v-23.67h34.92v23.67c0,9.65-7.82,17.47-17.46,17.47h0C730.8,258.43,722.98,250.61,722.98,240.97
	z"/><path class="st15" d="M716.71,213.81v-33.37c0-10.54,8.55-19.09,19.09-19.09h9.18c10.54,0,19.09,8.55,19.09,19.09v33.37
	c0,10.54-8.55,19.09-19.09,19.09h-9.18C725.26,232.9,716.71,224.35,716.71,213.81z"/><path class="st8" d="M717.01,189.95c0.48-10.11,8.73-18.16,18.84-18.16H739v-5.9h2.79v5.9h3.14c10.11,0,18.36,8.05,18.84,18.16v6.34
	h3.72v-17.33c0-11.43-9.26-20.69-20.68-20.69h-12.84c-11.42,0-20.68,9.26-20.68,20.69v17.33h3.72V189.95z"/><ellipse class="st15" cx="764.91" cy="202.85" rx="7.23" ry="7.23"/><ellipse class="st15" cx="715.84" cy="202.83" rx="7.23" ry="7.23"/><path class="st2" d="M710.76,204.26c-0.42,0-0.77-0.34-0.77-0.77c0-2.6,1.63-4.97,4.06-5.9c0.39-0.15,0.84,0.05,0.99,0.44
	c0.15,0.4-0.05,0.84-0.44,0.99c-1.84,0.7-3.07,2.5-3.07,4.47C711.53,203.92,711.19,204.26,710.76,204.26z"/><path class="st2" d="M770.58,202.85c0-0.42-0.34-0.77-0.77-0.77s-0.77,0.34-0.77,0.77c0,1.17-0.43,2.3-1.2,3.17c0,0,0,0,0,0
	c-0.51,0.57-1.16,1.02-1.87,1.3c-0.4,0.15-0.59,0.6-0.44,0.99c0.12,0.31,0.41,0.49,0.72,0.49c0.09,0,0.18-0.02,0.27-0.05
	c0.94-0.36,1.79-0.95,2.47-1.71c0,0,0,0,0,0C770.01,205.89,770.58,204.4,770.58,202.85z"/><polygon class="st3" points="686.02,343.9 726,331.84 714.99,299.69 675.27,311.71 "/><path class="st15" d="M770.16,273.96c1.05-1.82,3.37-2.44,5.19-1.39c1.82,1.05,2.44,3.37,1.39,5.19l-5.41,9.52l13.82-1.36
	c1.98-0.27,3.81,1.1,4.1,3.08l0,0c0.29,1.97-1.07,3.81-3.04,4.11l-0.19,0.03l2.26-0.32c2-0.28,3.84,1.12,4.09,3.12l0,0
	c0.24,1.95-1.11,3.73-3.05,4.01c1.67,0.13,3.07,1.41,3.29,3.14c0.24,1.95-1.12,3.74-3.07,4.02l-3.44,0.49
	c1.83-0.05,3.43,1.28,3.67,3.14c0.24,1.95-1.12,3.74-3.07,4.02l-15.63,1.84l-8.3-0.68L726,331.84l-9.6-27.64l38.63-8.08
	L770.16,273.96z"/><path class="st19" d="M686.16,246.68L668.3,235.6c-1.53-0.95-2-2.95-1.05-4.48v0c0.95-1.53,2.95-2,4.48-1.05l17.86,11.08
	c1.53,0.95,2,2.95,1.05,4.48v0C689.69,247.16,687.68,247.63,686.16,246.68z"/><path class="st19" d="M681.27,251.37l-15.38-9.54c-1.53-0.95-2-2.95-1.05-4.48v0c0.95-1.53,2.95-2,4.48-1.05l15.38,9.54
	c1.53,0.95,2,2.95,1.05,4.48v0C684.81,251.84,682.8,252.31,681.27,251.37z"/><path class="st19" d="M674.43,254.79l-10.81-6.71c-1.53-0.95-2-2.95-1.05-4.48v0c0.95-1.53,2.95-2,4.48-1.05l10.81,6.71
	c1.53,0.95,2,2.95,1.05,4.48l0,0C677.96,255.27,675.96,255.74,674.43,254.79z"/><path class="st19" d="M669.62,259.49l-8.1-5.03c-1.53-0.95-2-2.95-1.05-4.48v0c0.95-1.53,2.95-2,4.48-1.05l8.1,5.03
	c1.53,0.95,2,2.95,1.05,4.48l0,0C673.15,259.96,671.14,260.43,669.62,259.49z"/><path class="st23" d="M740.52,210.19c-0.25,0-0.51-0.03-0.78-0.08c-0.77-0.16-1.5-0.55-2.17-1.18c-0.43-0.4-0.88-0.58-1.35-0.54
	c-0.91,0.08-1.58,0.96-1.59,0.97l-0.33-0.25c0.03-0.04,0.8-1.04,1.89-1.14c0.58-0.05,1.15,0.17,1.68,0.65
	c0.62,0.57,1.28,0.94,1.97,1.07c0.71,0.14,1.35,0.07,1.9-0.21c0.24-0.12,0.47-0.3,0.68-0.54c0.23-0.25,0.86-0.84,1.77-0.87
	c0.75-0.04,1.48,0.31,2.21,1l-0.29,0.3c-0.65-0.61-1.29-0.91-1.91-0.89c-0.75,0.03-1.28,0.52-1.47,0.74
	c-0.25,0.27-0.52,0.48-0.8,0.63C741.49,210.08,741.02,210.19,740.52,210.19z"/><path class="st6" d="M740.35,217.4c0-2.01-3.08-1.74-3.08-1.74h-6.97c0.07-0.39,9.84,14.95,20.1,0h-6.97
	C743.43,215.66,740.35,215.39,740.35,217.4L740.35,217.4z"/><path class="st10" d="M745.93,200.45c0,0,1.72-3.68,5.01-4.82c3.3-1.15,6.92,0.68,6.92,0.68s-1.32,3-4.61,4.14
	S745.93,200.45,745.93,200.45z"/><circle class="st24" cx="752.29" cy="197.76" r="2.85"/><path class="st24" d="M745.93,200.45c0.85-5.88,8.29-8.39,12.86-5.63c-0.28,0.45-0.82,1.36-1.1,1.81
	c-1.01-0.61-6.26-2.73-11.03,2.98C746.37,199.95,746.33,200.1,745.93,200.45z"/><path class="st10" d="M734.46,200.39c0,0-1.72-3.68-5.01-4.82c-3.3-1.15-6.92,0.68-6.92,0.68s1.32,3,4.61,4.14
	C730.43,201.54,734.46,200.39,734.46,200.39z"/><circle class="st24" cx="728.31" cy="197.76" r="2.85"/><path class="st24" d="M734.46,200.39c-0.85-5.88-8.29-8.39-12.86-5.63c0.28,0.45,0.82,1.36,1.1,1.81c1.01-0.61,6.26-2.73,11.03,2.98
	C734.02,199.89,734.05,200.04,734.46,200.39z"/><rect x="721.16" y="190.01" class="st25" width="15.65" height="2.91"/><rect x="744.5" y="184.2" class="st25" width="15.65" height="2.91"/><path class="st2" d="M1067.05,201.51c0-1.09-0.78-2-1.81-2.2c0.09-0.24,0.14-0.49,0.14-0.76c0-1.24-1-2.24-2.24-2.24
	s-2.24,1-2.24,2.24c0,1.09,0.78,2,1.81,2.2c-0.09,0.24-0.14,0.49-0.14,0.76c0,0.48,0.16,0.93,0.42,1.29c-0.46,0.41-0.75,1-0.75,1.67
	c0,1.24,1,2.24,2.24,2.24c1.24,0,2.24-1,2.24-2.24c0-0.48-0.16-0.93-0.42-1.29C1066.76,202.77,1067.05,202.18,1067.05,201.51z"/><circle class="st2" cx="1006.39" cy="208.47" r="2.24"/><circle class="st6" cx="898.79" cy="192.91" r="1.61"/><path class="st6" d="M1133.48,394.37l-5.34-4.88c1.04-1.15,0.96-2.93-0.19-3.97l-6.34-5.78c-1.15-1.05-2.92-0.97-3.98,0.17
	l-5.34-4.88l-3.96,4.34l5.34,4.88c-1.04,1.15-0.96,2.93,0.19,3.97l6.34,5.78c1.15,1.05,2.92,0.97,3.98-0.17l5.34,4.88
	L1133.48,394.37z"/><path class="st26" d="M759.82,169.32h-12.69c-2.57,0-4.66-2.09-4.66-4.66v-2.77c0-2.57,2.09-4.66,4.66-4.66h12.69
	c2.57,0,4.66,2.09,4.66,4.66v2.77C764.48,167.23,762.39,169.32,759.82,169.32z"/><path class="st26" d="M733.63,169.29h-12.69c-2.57,0-4.66-2.09-4.66-4.66v-2.77c0-2.57,2.09-4.66,4.66-4.66h12.69
	c2.57,0,4.66,2.09,4.66,4.66v2.77C738.28,167.2,736.2,169.29,733.63,169.29z"/><path class="st6" d="M759.76,156.26h-12.69c-3.09,0-5.6,2.51-5.6,5.59v0.34h-2.25v-0.34c0-3.08-2.51-5.59-5.6-5.59h-12.69
	c-3.09,0-5.6,2.51-5.6,5.59v2.77c0,3.08,2.51,5.59,5.6,5.59h12.69c3.09,0,5.6-2.51,5.6-5.59v-0.56h2.25v0.56
	c0,3.08,2.51,5.59,5.6,5.59h12.69c3.09,0,5.6-2.51,5.6-5.59v-2.77C765.36,158.77,762.85,156.26,759.76,156.26z M737.35,164.63
	c0,2.05-1.67,3.72-3.72,3.72h-12.69c-2.05,0-3.72-1.67-3.72-3.72v-2.77c0-2.05,1.67-3.72,3.72-3.72h12.69
	c2.05,0,3.72,1.67,3.72,3.72V164.63z M763.48,164.63c0,2.05-1.67,3.72-3.72,3.72h-12.69c-2.05,0-3.72-1.67-3.72-3.72v-2.77
	c0-2.05,1.67-3.72,3.72-3.72h12.69c2.05,0,3.72,1.67,3.72,3.72V164.63z"/><path class="st2" d="M960.83,464.73h-4.11v-31.22c0-2.15-1.75-3.9-3.9-3.9l0,0c-2.15,0-3.9,1.75-3.9,3.9v31.22h-4.11
	c-2.47,0-4.47,2-4.47,4.47v32.43c0,2.47,2,4.47,4.47,4.47h16.03c2.47,0,4.47-2,4.47-4.47V469.2
	C965.3,466.73,963.29,464.73,960.83,464.73z"/><path d="M1039.97,198.49l0.02-0.02c0.33-0.39,0.9-0.46,1.31-0.16c6.96,4.96,12.27-2.07,12.27-2.07s-0.55,1.12-1.66,2.35
	c-2.92,3.26-7.82,3.85-11.52,1.51c-0.08-0.05-0.17-0.11-0.25-0.16C1039.67,199.61,1039.59,198.93,1039.97,198.49"/><path class="st27" d="M1056.79,183.74L1056.79,183.74c-0.06-8.46-6.93-15.3-15.4-15.3h-16.22c-8.47,0-15.34,6.84-15.39,15.3h0v17.12
	h2.07v-16.58h42.87v16.58h2.07V183.74z"/><path class="st9" d="M707.19,101.34l-2.95,12.28c-0.22,0.9-0.77,1.67-1.56,2.15c-0.79,0.48-1.73,0.63-2.63,0.42
	c-0.9-0.22-1.67-0.77-2.15-1.56c-0.49-0.79-0.63-1.72-0.42-2.63l2.95-12.28l-0.49-0.12l0,0l-0.08-0.02l-2.95,12.28
	c-0.45,1.86-2.33,3.01-4.19,2.57c-1.86-0.45-3.01-2.33-2.57-4.19l2.95-12.28l-0.49-0.12l-2.95,12.28c-0.51,2.13,0.8,4.28,2.94,4.79
	c0.31,0.07,0.62,0.11,0.93,0.11c1.38,0,2.66-0.73,3.38-1.89c0.05,0.61,0.22,1.21,0.56,1.75c0.55,0.91,1.43,1.54,2.46,1.79
	c0.31,0.07,0.62,0.11,0.94,0.11c0.72,0,1.44-0.2,2.07-0.59c0.91-0.55,1.54-1.43,1.79-2.46l2.95-12.28L707.19,101.34z"/><path class="st2" d="M129.27,232.93l-24.06,4.32l12.83,83.07c0.02,0.98,0.13,1.94,0.31,2.88l0.01,0.16l0.02,0
	c1.41,6.68,6.89,12.06,14.06,12.98c9.06,1.16,17.34-5.24,18.51-14.32c0.12-0.92,0.15-1.84,0.11-2.74l-0.02-0.78l-0.14-0.98
	c-0.13-0.94-0.36-1.85-0.65-2.74L129.27,232.93z"/><path class="st1" d="M131.81,215.1l-2.85-14.18c-0.51-1.95-2.52-3.15-4.48-2.63c-1.95,0.51-3.14,2.53-2.63,4.49l2.18,11.81
	c0,0,0.52,2.64-1.03,2.73L131.81,215.1z"/><path class="st5" d="M425.32,196.04c-0.28,0-0.55,0.02-0.82,0.05v-13.85c0-11.37-9.22-20.58-20.59-20.58h-5.79
	c-11.37,0-20.59,9.21-20.59,20.58v13.88c-0.32-0.05-0.65-0.08-0.99-0.08c-3.93,0-7.11,3.18-7.11,7.11c0,3.92,3.18,7.11,7.11,7.11
	c0.34,0,0.66-0.03,0.99-0.08v3.22c0,11.37,8.03,20.58,18.31,20.58h11.21c9.63,0,17.44-7.81,17.44-17.43v-6.34
	c0.27,0.03,0.54,0.05,0.82,0.05c3.93,0,7.11-3.18,7.11-7.11C432.43,199.22,429.25,196.04,425.32,196.04z"/><path class="st10" d="M394.51,202.16c0,0-1.7-3.64-4.96-4.77c-3.26-1.13-6.85,0.67-6.85,0.67s1.3,2.97,4.57,4.1
	C390.53,203.29,394.51,202.16,394.51,202.16L394.51,202.16z"/><path class="st28" d="M400.93,211.64c-0.27,0-0.54-0.03-0.83-0.09c-0.81-0.16-1.57-0.58-2.28-1.23c-0.38-0.35-0.75-0.49-1.14-0.46
	c-0.77,0.07-1.38,0.85-1.39,0.86l-0.74-0.56c0.03-0.05,0.86-1.12,2.05-1.22c0.67-0.06,1.28,0.18,1.86,0.71
	c0.58,0.53,1.19,0.87,1.83,1c0.65,0.13,1.22,0.07,1.71-0.18c0.21-0.11,0.41-0.27,0.6-0.48c0.31-0.34,0.98-0.91,1.93-0.94
	c0.79-0.03,1.6,0.33,2.37,1.06l-0.64,0.68c-0.59-0.55-1.18-0.84-1.7-0.81c-0.64,0.02-1.11,0.46-1.28,0.64
	c-0.27,0.29-0.56,0.51-0.86,0.67C401.97,211.52,401.47,211.64,400.93,211.64z"/><path class="st16" d="M388.73,189.26l-0.29,0c-2.99,0.01-5.79,1.5-7.58,4.03l0,0l15.49-0.07l0,0
	C394.54,190.71,391.72,189.24,388.73,189.26L388.73,189.26L388.73,189.26z"/><path class="st16" d="M412.87,189.28l-0.29,0c-2.99,0-5.8,1.47-7.61,3.98l0,0l15.49,0.03l0,0
	C418.66,190.77,415.86,189.29,412.87,189.28L412.87,189.28L412.87,189.28z"/><path d="M394.51,202.16c-0.84-5.82-8.2-8.3-12.72-5.57c0.28,0.44,0.81,1.34,1.08,1.79c1-0.6,6.19-2.7,10.91,2.95
	C394.07,201.67,394.11,201.82,394.51,202.16L394.51,202.16z"/><path class="st6" d="M407.04,218.5c-1.7-0.67-2.44-1.09-4.05-1.35c-1.34-0.21-1.23,0.8-1.99,0.8c-0.57-0.04-0.88-0.93-2.56-0.64
	c-1.26,0.22-1.95,0.58-3.63,1.24c-0.11,0.04,2.37,5.17,6.25,5.14C405.33,223.66,407.34,218.61,407.04,218.5z"/><path class="st10" d="M406.01,202.22c0,0,1.7-3.64,4.96-4.77c3.26-1.13,6.85,0.67,6.85,0.67s-1.3,2.97-4.57,4.1
	C409.99,203.35,406.01,202.22,406.01,202.22L406.01,202.22z"/><path d="M409.55,200.05c0,1.56,1.26,2.82,2.82,2.82c1.56,0,2.82-1.26,2.82-2.82c0-1.56-1.26-2.82-2.82-2.82
	C410.81,197.22,409.55,198.49,409.55,200.05L409.55,200.05z"/><path d="M386.19,200.05c0,1.56,1.26,2.82,2.82,2.82s2.82-1.26,2.82-2.82c0-1.56-1.26-2.82-2.82-2.82S386.19,198.49,386.19,200.05
	L386.19,200.05z"/><path d="M406.01,202.22c0.84-5.82,8.2-8.3,12.72-5.57c-0.28,0.44-0.81,1.34-1.08,1.79c-1-0.6-6.19-2.7-10.91,2.95
	C406.45,201.73,406.41,201.87,406.01,202.22L406.01,202.22z"/><rect x="380.73" y="201.2" class="st5" width="39.81" height="4.01"/><path class="st29" d="M418.19,205.52h-10.57c-2.14,0-3.88-1.74-3.88-3.88v-2.31c0-2.14,1.74-3.88,3.88-3.88h10.57
	c2.14,0,3.88,1.74,3.88,3.88v2.31C422.07,203.79,420.33,205.52,418.19,205.52z"/><path class="st0" d="M394.56,161.02c-2.55,0-4.98,0.48-7.21,1.36c-0.12-4.97-4.17-8.96-9.17-8.96c-5.07,0-9.18,4.11-9.18,9.18
	c0,4.66,3.47,8.49,7.96,9.09c-1.44,2.75-2.26,5.87-2.26,9.19v26.52h3.55v-15.08c0-1.59,0.2-3.13,0.58-4.61h4.58
	c8.47,0,15.38-6.62,15.88-14.96l0.03-0.01l0.07-4.4h2.57l0.09,3.46h-0.03c0,8.79,7.13,15.92,15.92,15.92h4.67
	c0.38,1.47,0.58,3.02,0.58,4.61v15.08h3.55v-26.52c0-3.66-0.99-7.09-2.72-10.03c4.66-0.56,8.27-4.52,8.27-9.32
	c0-5.19-4.21-9.4-9.4-9.4c-5.19,0-9.4,4.21-9.4,9.4c0,0.22,0.02,0.43,0.03,0.64c-2.07-0.73-4.3-1.14-6.63-1.14H394.56z"/><path class="st29" d="M393.89,205.5h-10.57c-2.14,0-3.88-1.74-3.88-3.88v-2.31c0-2.14,1.74-3.88,3.88-3.88h10.57
	c2.14,0,3.88,1.74,3.88,3.88v2.31C397.77,203.76,396.04,205.5,393.89,205.5z"/><path class="st6" d="M418.14,194.65h-10.57c-2.57,0-4.66,2.09-4.66,4.66v0.28h-4.36v-0.28c0-2.57-2.09-4.66-4.66-4.66h-10.57
	c-2.57,0-4.66,2.09-4.66,4.66v2.31c0,2.57,2.09,4.66,4.66,4.66h10.57c2.57,0,4.66-2.09,4.66-4.66v-0.46h4.36v0.46
	c0,2.57,2.09,4.66,4.66,4.66h10.57c2.57,0,4.66-2.09,4.66-4.66v-2.31C422.8,196.74,420.71,194.65,418.14,194.65z M396.99,201.62
	c0,1.71-1.39,3.1-3.1,3.1h-10.57c-1.71,0-3.1-1.39-3.1-3.1v-2.31c0-1.71,1.39-3.1,3.1-3.1h10.57c1.71,0,3.1,1.39,3.1,3.1V201.62z
	 M421.24,201.62c0,1.71-1.39,3.1-3.1,3.1h-10.57c-1.71,0-3.1-1.39-3.1-3.1v-2.31c0-1.71,1.39-3.1,3.1-3.1h10.57
	c1.71,0,3.1,1.39,3.1,3.1V201.62z"/><path class="st6" d="M372.58,199.46L372.58,199.46c-0.28,0.16-0.64,0.07-0.8-0.22l-1.2-2.07c-0.16-0.28-0.07-0.64,0.22-0.8l0,0
	c0.28-0.16,0.64-0.07,0.8,0.22l1.2,2.07C372.95,198.94,372.86,199.3,372.58,199.46z"/><path class="st6" d="M370.96,200.77L370.96,200.77c-0.28,0.16-0.64,0.07-0.8-0.22l-1.2-2.07c-0.16-0.28-0.07-0.64,0.22-0.8l0,0
	c0.28-0.16,0.64-0.07,0.8,0.22l1.2,2.07C371.34,200.25,371.25,200.61,370.96,200.77z"/></svg>