<svg viewBox="0 0 1962 1200" fill="none" xmlns="http://www.w3.org/2000/svg"><path d="M382.149 407.317C374.99 430.887 369.833 455.087 367.501 479.631C365.184 504.023 366.048 528.334 370.08 552.493C371.685 562.118 374.195 573.403 382.767 579.313C390.008 584.303 399.307 581.739 404.78 575.405C408.126 571.538 410.17 566.616 411.72 561.803C413.421 556.497 414.381 550.957 414.984 545.432C415.601 539.769 416.054 533.955 416.081 528.251C416.109 523.137 415.629 517.529 412.214 513.47C409.539 510.276 405.328 508.685 401.214 509.453C396.619 510.317 393.039 514.238 390.461 517.885C384.317 526.578 382.136 537.822 381.368 548.243C380.49 560.062 381.738 571.922 383.398 583.618C384.893 594.217 386.154 605.09 389.419 615.305C392.436 624.752 397.278 633.815 404.766 640.479C412.556 647.417 423.254 650.9 429.66 659.387C435.05 666.544 437.354 676.101 435.9 684.945C434.446 693.762 429.317 701.344 422.102 706.541C407.18 717.29 388.129 718.456 370.862 722.885C355.116 726.916 336.601 735.088 329.565 750.87C327.892 754.613 327 758.562 326.863 762.661C326.767 765.541 331.238 765.541 331.334 762.661C331.924 745.673 348.163 735.417 362.509 730.152C378.776 724.187 396.468 723.488 412.543 716.81C420.127 713.657 427.355 709.255 432.567 702.784C438.136 695.887 441.03 687.386 440.742 678.515C440.467 669.89 437.354 661.403 431.689 654.862C424.941 647.061 414.737 643.688 407.276 636.75C392.354 622.901 390.324 601.1 387.663 582.11C386.072 570.811 384.989 559.335 385.866 547.913C386.621 538.233 388.733 527.648 394.658 519.695C396.976 516.583 400.528 512.922 404.794 513.882C409.224 514.869 410.883 519.325 411.363 523.343C412.035 528.992 411.308 534.764 410.938 540.413C410.609 545.541 409.964 550.656 408.785 555.674C406.865 563.819 403.285 574.87 394.096 577.228C384.893 579.6 379.201 569.934 376.897 562.543C375.402 557.758 374.62 552.781 373.838 547.831C372.919 542.018 372.11 536.204 371.602 530.335C370.574 518.448 370.395 506.491 370.944 494.576C372.014 471.047 375.936 447.724 381.848 424.95C383.274 419.451 384.824 413.98 386.484 408.537C387.293 405.74 382.972 404.561 382.149 407.317Z" fill="#FF6200"/><path d="M1332.99 482.227L1348.36 545.697L1286.62 501.327L1332.99 482.227Z" fill="#F4836C"/><path d="M423.612 946.897L400.543 938.533L504.643 580.898L527.712 589.262L423.612 946.897Z" fill="#EBB2D3"/><path d="M304.713 272.293L341.292 285.36L363.003 278.367L345.324 223.508L294.289 239.948L304.713 272.293Z" fill="#232144"/><path d="M420.661 250.406H395.041V313.465H420.661V250.406Z" fill="#232144"/><path d="M505.082 429.793L329.211 511.969L336.975 528.576L512.846 446.4L505.082 429.793Z" fill="#FAD9E8"/><path d="M323.749 512.393L259.289 542.512L268.691 562.622L333.15 532.503L323.749 512.393Z" fill="#232144"/><path d="M338.411 545.766C335.133 547.301 331.238 545.875 329.702 542.612L314.519 510.13C312.983 506.853 314.409 502.959 317.674 501.423C320.951 499.887 324.847 501.313 326.383 504.577L341.566 537.059C343.102 540.336 341.689 544.244 338.411 545.766Z" fill="#232144"/><path d="M564.028 437.899H386.031L377.5 414.562H564.028V437.899Z" fill="#232144"/><path d="M1739.5 501.637H1748.04C1757.89 501.637 1765.94 509.685 1765.94 519.53V670.931C1765.94 680.776 1757.89 688.825 1748.04 688.825H1739.5C1729.65 688.825 1721.6 680.776 1721.6 670.931V519.544C1721.58 509.699 1729.65 501.637 1739.5 501.637Z" fill="#EBB2D3"/><path d="M1782 1019.99H1770.18L1706.73 777.527H1718.55L1782 1019.99Z" fill="#EBB2D3"/><path d="M1619.09 460.891L1497.27 523.072C1497.82 546.697 1521.56 562.698 1543.68 554.361L1607.93 524.306L1622.08 468.281L1619.09 460.891Z" fill="#BF7461"/><path d="M1634.86 447.453L1589.13 470.584L1599.13 503.56L1634.86 447.453Z" fill="#7B446C"/><path d="M1438.13 443.926L1538.46 507.533C1550.87 515.403 1554.04 532.104 1545.37 543.964C1536.63 555.921 1519.56 557.909 1508.31 548.283L1415.87 469.127L1438.13 443.926Z" fill="#BF7461"/><path d="M1376.81 430.853L1376.8 430.922C1376.41 433.76 1378.4 436.365 1381.24 436.763L1397.31 438.943C1400.15 439.327 1402.76 437.339 1403.14 434.5L1403.16 434.432C1403.54 431.594 1401.55 428.975 1398.71 428.591L1382.64 426.411C1379.81 426.027 1377.19 428.015 1376.81 430.853Z" fill="#FFA28F"/><path d="M1428.09 431.507L1418.42 406.196C1417.28 403.632 1414.27 402.466 1411.7 403.604C1409.14 404.742 1407.97 407.759 1409.12 410.323L1412.98 421.086L1381.1 414.697C1378.22 414.286 1375.55 416.287 1375.15 419.167C1374.74 422.046 1376.74 424.706 1379.62 425.118L1401.51 428.23L1401.4 428.984L1382.82 426.365C1379.94 425.954 1377.28 427.956 1376.86 430.835C1376.45 433.715 1378.45 436.388 1381.33 436.786L1397.64 439.076L1397.53 439.83L1387.96 438.322C1385.08 437.91 1382.4 439.912 1382.01 442.792C1381.6 445.671 1383.6 448.345 1386.48 448.756L1398.33 450.58L1398.22 451.334L1394.83 450.539C1391.95 450.127 1389.28 452.129 1388.88 455.008C1388.47 457.888 1390.47 460.562 1393.35 460.973L1413.99 464.223L1414.94 464.332C1411.18 465.388 1418.82 464.798 1414.94 464.332L1436.31 481.965L1447 450.566L1428.09 431.507Z" fill="#BF7461"/><path d="M1443.25 495.903L1428.23 503.253C1426.76 503.966 1425.04 503.486 1424.41 502.183L1374.54 410.152C1373.56 408.123 1374.41 405.669 1376.42 404.681L1397.2 394.521C1399.23 393.534 1401.69 394.384 1402.68 396.4L1444.73 492.242C1445.38 493.531 1444.71 495.19 1443.25 495.903Z" fill="#472940"/><path d="M1402.42 405.301L1381.77 415.393C1374.57 418.917 1365.8 415.9 1362.27 408.702L1348.64 380.84C1345.11 373.642 1348.13 364.867 1355.33 361.343L1375.97 351.251C1383.17 347.727 1391.95 350.744 1395.48 357.942L1409.11 385.804C1412.62 393.016 1409.62 401.791 1402.42 405.301Z" fill="#FF6200"/><path d="M1443.81 514.884L1442.89 515.337C1441.28 516.118 1439.32 515.446 1438.54 513.842L1431.86 500.199C1431.08 498.595 1431.75 496.634 1433.36 495.853L1434.28 495.4C1435.88 494.619 1437.84 495.291 1438.62 496.895L1445.3 510.538C1446.08 512.142 1445.41 514.103 1443.81 514.884Z" fill="#472940"/><path d="M1381.97 442.914V442.983C1381.62 445.821 1383.65 448.399 1386.49 448.741L1402.57 450.661C1405.41 451.004 1407.98 448.975 1408.33 446.136L1408.34 446.068C1408.68 443.229 1406.65 440.652 1403.81 440.309L1387.74 438.389C1384.89 438.047 1382.31 440.076 1381.97 442.914Z" fill="#BF7461"/><path d="M1381.47 436.784L1397.62 438.964C1400.44 439.348 1403.03 437.346 1403.42 434.48C1403.8 431.628 1401.83 428.996 1399.01 428.625L1382.87 426.445" fill="#BF7461"/><path d="M1403.71 462.29C1406.53 462.633 1409.1 460.603 1409.42 457.779L1409.45 457.518C1409.78 454.694 1407.77 452.13 1404.95 451.801L1394.54 450.566C1391.72 450.237 1389.15 452.253 1388.82 455.064" fill="#BF7461"/><path d="M1019.66 359.944L1063.29 412.089L1106.99 373.601L1070.56 329.875L1028.02 353.5" fill="#F7A190"/><path d="M1163.41 282.434L1204.64 266.104C1207.48 264.98 1208.86 261.771 1207.74 258.933L1207.45 258.193C1206.33 255.354 1203.12 253.969 1200.28 255.094L1158.62 271.959L1163.41 282.434Z" fill="#F7A190"/><path d="M1053.27 366.035L1153.36 311.052L1143.47 278.652L1031.51 316.66C1016.07 321.898 1008.73 339.49 1015.87 354.147C1022.64 368.064 1039.7 373.494 1053.27 366.035Z" fill="#F7A190"/><path d="M1146.68 312.038L1182.04 310.599L1171.18 266.887L1137.15 280.79L1146.68 312.038Z" fill="#F7A190"/><path d="M1178.11 298.367L1226.52 281.557C1229.4 280.556 1230.92 277.402 1229.92 274.523L1229.66 273.782C1228.66 270.903 1225.51 269.381 1222.62 270.382L1174.22 287.192L1178.11 298.367Z" fill="#F7A190"/><path d="M1178.18 309.584L1224.69 293.432C1227.57 292.431 1229.1 289.277 1228.09 286.398L1227.83 285.657C1226.83 282.778 1223.69 281.256 1220.8 282.257L1174.29 298.409L1178.18 309.584Z" fill="#F7A190"/><path d="M1147.21 312.133L1193.66 322.224C1196.8 322.91 1199.9 320.922 1200.58 317.782L1200.76 316.973C1201.45 313.833 1199.46 310.734 1196.3 310.049L1149.88 299.957L1147.21 312.133Z" fill="#F7A190"/><path d="M1173.8 288.085L1215.68 273.537C1218.56 272.536 1220.08 269.396 1219.08 266.503L1218.82 265.763C1217.82 262.883 1214.67 261.361 1211.79 262.362L1169.9 276.91L1173.8 288.085Z" fill="#F7A190"/><path d="M1225.26 427.464L1145.38 401.261L1179.56 297.151C1185.24 279.861 1203.86 270.441 1221.16 276.117L1238.4 281.78C1255.69 287.457 1265.11 306.077 1259.44 323.367L1225.26 427.464Z" fill="#A3422E"/><path d="M1101.16 634.56L1096.94 418.111C1096.94 418.111 1171.2 395.734 1195.36 395.734C1217.36 395.734 1296.79 420.977 1296.79 420.977L1289.28 634.56H1101.16Z" fill="#232144"/><path d="M1289.43 479.211H1101.3V539.075H1289.43V479.211Z" fill="#232144"/><path d="M1337.25 481.019C1337.25 481.019 1326.28 425.337 1294.04 420.428C1271.96 417.055 1250.56 428.984 1245.54 450.744C1240.52 472.504 1261.92 516.778 1261.92 516.778L1337.25 481.019Z" fill="#232144"/><path d="M1181.86 335.872C1183.93 329.565 1180.49 322.778 1174.18 320.708C1167.87 318.637 1161.08 322.079 1159.01 328.386C1156.94 334.693 1160.38 341.48 1166.69 343.551C1172.99 345.621 1179.79 342.18 1181.86 335.872Z" fill="#F7A190"/><path d="M1234.29 353.076C1236.36 346.769 1243.15 343.341 1249.46 345.398C1255.77 347.468 1259.2 354.255 1257.14 360.562C1255.07 366.87 1248.28 370.298 1241.97 368.241C1235.65 366.17 1232.22 359.383 1234.29 353.076Z" fill="#F7A190"/><path d="M1225.79 412.156V365.797L1166.39 365.633V412.169C1166.39 424.235 1176.18 434.025 1188.25 434.025H1203.94C1216 434.012 1225.79 424.235 1225.79 412.156Z" fill="#F4836C"/><path d="M1240.41 373.411L1257.08 322.637C1262.71 305.471 1253.36 286.974 1236.19 281.339L1222.86 276.965C1205.68 271.329 1187.18 280.681 1181.55 297.847L1164.88 348.62C1159.24 365.787 1168.6 384.284 1185.77 389.919L1199.1 394.293C1216.27 399.929 1234.77 390.577 1240.41 373.411Z" fill="#F7A190"/><path d="M1258.73 306.935L1243.12 354.484L1248.58 356.276L1264.19 308.726L1258.73 306.935Z" fill="#A3422E"/><path d="M1184.14 282.455L1168.53 330.004L1174.21 331.868L1189.82 284.319L1184.14 282.455Z" fill="#A3422E"/><path d="M1181.83 307.994L1185.16 297.848C1188.76 286.92 1204.13 282.162 1219.52 287.208L1224.17 288.729L1228.3 290.087L1232.95 291.609C1248.34 296.655 1257.91 309.612 1254.32 320.54L1250.98 330.686L1256.44 332.483L1263.84 309.982C1267.72 298.136 1257.2 284.054 1240.31 278.514L1221.35 272.29C1204.48 266.75 1187.65 271.864 1183.75 283.697L1176.36 306.198L1181.83 307.994Z" fill="#A3422E"/><path d="M1255.59 269.97C1252.04 280.788 1240.4 286.684 1229.58 283.133C1218.75 279.581 1212.86 267.941 1216.41 257.122C1219.96 246.304 1231.61 240.408 1242.43 243.959C1253.25 247.511 1259.13 259.151 1255.59 269.97Z" fill="#A3422E"/><path d="M1232.03 338.738C1232.21 339.52 1232.2 340.343 1231.93 341.151C1231.15 343.537 1228.59 344.826 1226.2 344.045C1224.03 343.332 1222.77 341.138 1223.16 338.944C1221.5 339.561 1220.4 340.548 1220.25 341.755C1219.95 344.25 1223.79 346.746 1228.81 347.349C1233.83 347.952 1238.15 346.417 1238.44 343.935C1238.7 341.823 1235.95 339.698 1232.03 338.738Z" fill="white"/><path d="M1210.35 319.228C1211.03 318.049 1211.22 316.65 1210.87 315.334C1210.52 314.018 1209.66 312.894 1208.48 312.208C1204.24 309.74 1197.88 306.052 1193.64 303.583C1192.46 302.898 1191.06 302.706 1189.75 303.062C1188.43 303.405 1187.3 304.269 1186.62 305.448C1185.45 307.45 1184.34 309.37 1184.34 309.37L1208.06 323.15C1208.06 323.136 1209.18 321.216 1210.35 319.228Z" fill="#A3422E"/><path d="M1204.86 353.213C1203.05 352.624 1201.91 351.252 1200.91 350.046C1199.27 348.071 1198.26 346.865 1194.94 348.551L1193.85 346.399C1198.89 343.848 1201.03 346.426 1202.76 348.51C1203.63 349.552 1204.45 350.539 1205.6 350.923C1206.78 351.307 1207.96 351.033 1209.2 350.745C1211.68 350.155 1214.76 349.429 1217.86 354.351L1215.82 355.64C1213.64 352.185 1212.1 352.541 1209.77 353.09C1208.33 353.419 1206.7 353.803 1204.86 353.213Z" fill="#1C1C1C"/><path d="M1205.82 371.245L1204.91 374.008L1221.76 379.536L1222.66 376.773L1205.82 371.245Z" fill="black"/><path d="M1234.73 434.32L1340.07 527.805C1352.67 539.295 1352.92 559.039 1340.63 570.858C1328.23 582.774 1308.3 581.608 1297.38 568.322L1207.64 459.179L1234.73 434.32Z" fill="#F7A190"/><path d="M1706.89 614.458L1699.09 587.008L1584.37 600.28L1584.62 614.102L1407.2 630.185L1192.09 638.261V735.557L1651.99 749.323C1674.09 749.981 1695.18 740.15 1708.88 722.819C1722.03 706.16 1728.51 683.989 1722.1 663.751C1716.52 646.227 1711.25 627.36 1706.89 614.458Z" fill="#232144"/><path d="M1651.87 463.662H1673.29C1684.95 463.662 1694.39 454.214 1694.39 442.573V396.078H1630.76V442.573C1630.76 454.214 1640.21 463.662 1651.87 463.662Z" fill="#BF7461"/><path d="M1655.16 430.72C1655.52 427.319 1631.1 448.586 1631.1 448.586C1620.87 463.326 1590.89 507.147 1588.67 524.945L1581.66 599.672L1710.45 599.329L1707.86 469.263C1704.89 446.653 1683.5 437.274 1661.1 441.579C1661.1 441.579 1654.08 440.839 1655.16 430.72Z" fill="#7B446C"/><path d="M1606.36 571.35L1625.32 496.335L1672.92 494.854L1693.34 491.289L1652.84 592.04L1606.36 571.35Z" fill="#BF7461"/><path d="M1638.43 453.16C1638.55 452.817 1638.63 452.461 1638.76 452.104C1645.72 433.539 1666.42 424.133 1684.99 431.098C1703.2 437.927 1712.56 457.973 1706.33 476.264L1706.37 476.277L1696.54 508.184L1619.16 512.16L1638.39 453.146L1638.43 453.16Z" fill="#7B446C"/><path fill-rule="evenodd" clip-rule="evenodd" d="M1694.25 320.887H1601.66V404.513C1601.66 413.795 1609.19 421.323 1618.47 421.323H1694.25V368.15V320.887Z" fill="#BF7461"/><path fill-rule="evenodd" clip-rule="evenodd" d="M1610.64 385.749L1610.91 351.43C1610.91 351.43 1600.08 364.538 1593.3 372.737C1592.12 374.163 1591.74 376.083 1592.29 377.852C1592.84 379.62 1594.24 380.991 1596.01 381.513C1602.53 383.391 1610.64 385.749 1610.64 385.749Z" fill="#BF7461"/><path fill-rule="evenodd" clip-rule="evenodd" d="M1647.73 296.793C1672.87 296.793 1693.28 317.196 1693.28 342.329C1693.28 367.462 1672.87 387.864 1647.73 387.864" fill="#BF7461"/><path fill-rule="evenodd" clip-rule="evenodd" d="M1707.35 329.327C1707.35 310.83 1692.34 295.844 1673.85 295.844H1619.57C1614.11 295.844 1608.88 298.01 1605.03 301.863C1601.18 305.716 1599.01 310.94 1599.01 316.397C1599.01 322.677 1601.51 328.71 1605.95 333.152C1610.39 337.595 1616.43 340.09 1622.71 340.09H1707.35V329.327Z" fill="#420F0F"/><path fill-rule="evenodd" clip-rule="evenodd" d="M1707.35 338.008H1635.59V406.743C1635.59 424.253 1649.78 438.444 1667.3 438.444H1707.35V338.008Z" fill="#420F0F"/><path d="M1672.55 370.801C1672.55 377.63 1667.01 383.169 1660.18 383.169C1660.1 383.169 1660.1 358.434 1660.18 358.434C1667.01 358.434 1672.55 363.959 1672.55 370.801Z" fill="#BF7461"/><path d="M1605.29 348.159C1605.2 348.982 1605.44 349.791 1605.99 350.408C1606.54 351.025 1607.32 351.381 1608.14 351.381H1626.33L1615.32 345.348C1609.76 343.387 1605.74 344.512 1605.29 348.159Z" fill="#420F0F"/><path d="M1601.68 393.537C1601.68 392.029 1602.89 390.809 1604.4 390.809H1617.66C1617.59 390.411 1611.19 400.269 1602.33 401.037C1602.15 401.051 1601.97 401.065 1601.78 401.078C1601.62 401.078 1601.68 393.537 1601.68 393.537Z" fill="#420F0F"/><path d="M1144.32 851.147L1214.47 841.878L1183.77 603.121L1099.87 613.281L1144.32 851.147Z" fill="#232144"/><path d="M1319.49 845.85L1249.34 836.581L1280.03 596.398L1364.16 606.709L1319.49 845.85Z" fill="#232144"/><path d="M1144.32 851.144L1151.37 887.603L1219.92 879.965L1214.47 841.875L1144.32 851.144Z" fill="#232144"/><path d="M1249.34 836.582L1319.49 845.851L1312.87 882.611L1243.46 874.672L1249.34 836.582Z" fill="#232144"/><path d="M1219.92 879.965L1226.68 927.009L1170.2 931.712L1161.67 886.437L1219.92 879.965Z" fill="#F7A190"/><path d="M1244.92 874.672L1243.15 885.106L1301.54 892.606L1303.16 881.582L1244.92 874.672Z" fill="#F7A190"/><path d="M1235.8 937.019L1350.82 951.429L1353.47 936.731C1353.47 936.731 1355.52 927.325 1347.87 924.377C1340.22 921.429 1302.57 910.254 1302.57 910.254L1305.22 892.909L1243.15 885.121L1235.8 937.019Z" fill="#232144"/><path d="M1152.85 950.84L1150.21 933.495C1150.21 933.495 1153.15 908.788 1184.92 904.976C1216.68 901.15 1226.7 927.024 1226.7 927.024L1228.16 942.614L1152.85 950.84Z" fill="#232144"/><path d="M1300.53 634.121H1169.91V705.146H1300.53V634.121Z" fill="#232144"/><path d="M1163.73 900.546L1221.98 892.895L1226.68 927.009L1167.27 925.253L1163.73 900.546Z" fill="#232144"/><path d="M1748.03 793.285H1480.84C1470.99 793.285 1462.94 785.237 1462.94 775.392V663.397C1462.94 653.552 1470.99 645.504 1480.84 645.504H1748.03C1757.87 645.504 1765.93 653.552 1765.93 663.397V775.392C1765.94 785.237 1757.87 793.285 1748.03 793.285Z" fill="#EBB2D3"/><path d="M376.924 416.096H744.137L790.261 309.668H376.924V416.096Z" fill="#C6C6C6"/><path d="M681.718 347.373H613.1C607.298 347.373 602.594 342.67 602.594 336.87C602.594 331.07 607.298 326.367 613.1 326.367H681.718C687.519 326.367 692.224 331.07 692.224 336.87C692.224 342.67 687.519 347.373 681.718 347.373Z" fill="#232144"/><path d="M576.797 567.663H510.113C500.704 567.663 493.064 560.039 493.064 550.62V454.352C493.064 444.946 500.69 437.309 510.113 437.309H576.797C586.205 437.309 593.845 444.932 593.845 454.352V550.62C593.845 560.039 586.205 567.663 576.797 567.663Z" fill="#232144"/><path d="M467.006 223.136L409.566 274.759L359.848 290.774L336.285 217.624L453.113 180L467.006 223.136Z" fill="#C6C6C6"/><path d="M403.916 243.51C410.446 243.51 415.739 238.218 415.739 231.69C415.739 225.163 410.446 219.871 403.916 219.871C397.387 219.871 392.094 225.163 392.094 231.69C392.094 238.218 397.387 243.51 403.916 243.51Z" fill="#232144"/><path d="M524.596 612.222L495.066 601.514L512.43 541.883L541.959 552.591L524.596 612.222Z" fill="#232144"/><path d="M412.68 996.715L383.15 986.006L400.514 926.375L430.029 937.084L412.68 996.715Z" fill="#232144"/><path d="M685.778 939.045L662.709 947.409L558.609 589.774L581.679 581.41L685.778 939.045Z" fill="#EBB2D3"/><path d="M591.252 602.018L561.723 612.726L544.359 553.095L573.889 542.387L591.252 602.018Z" fill="#232144"/><path d="M703.168 986.531L673.639 997.24L656.289 937.595L685.805 926.887L703.168 986.531Z" fill="#232144"/><path d="M381.944 1019.99C392.284 1019.99 400.666 1011.61 400.666 1001.27C400.666 990.938 392.284 982.559 381.944 982.559C371.605 982.559 363.223 990.938 363.223 1001.27C363.223 1011.61 371.605 1019.99 381.944 1019.99Z" fill="#976186"/><path d="M349.795 997.936C349.795 980.208 364.223 965.797 381.944 965.797C399.678 965.797 414.093 980.221 414.093 997.936H349.795Z" fill="#232144"/><path d="M673.667 1019.99C684.006 1019.99 692.388 1011.61 692.388 1001.27C692.388 990.938 684.006 982.559 673.667 982.559C663.327 982.559 654.945 990.938 654.945 1001.27C654.945 1011.61 663.327 1019.99 673.667 1019.99Z" fill="#976186"/><path d="M641.52 997.936C641.52 980.208 655.948 965.797 673.668 965.797C691.402 965.797 705.817 980.221 705.817 997.936H641.52Z" fill="#232144"/><path d="M1489.14 566.671L1626.88 555.798C1641.47 554.139 1654.43 565.177 1655.12 579.848C1655.82 594.642 1643.76 606.887 1628.96 606.448L1509.37 589.35L1489.14 566.671Z" fill="#BF7461"/><path d="M1173.82 382.68L1208.37 406.373L1201.19 416.794L1167.23 392.25C1164.58 390.426 1163.92 386.807 1165.73 384.16C1167.56 381.528 1171.18 380.856 1173.82 382.68Z" fill="#F7A190"/><path d="M1209.04 412.592L1179.49 444.718L1196.77 457.017C1200.31 459.389 1204.13 461.254 1208.3 462.09L1243.31 486.181L1263.63 461.24L1237.24 438.013C1236.45 431.747 1231.1 419.05 1227.9 411.92C1227.31 410.59 1226.2 409.589 1224.83 409.109L1212.61 405.023" fill="#F7A190"/><path d="M1180.31 423.348L1180.27 423.416C1178.36 426.131 1179.03 429.874 1181.75 431.766L1197.14 442.516C1199.85 444.408 1203.6 443.75 1205.49 441.035L1205.53 440.967C1207.44 438.252 1206.77 434.509 1204.05 432.617L1188.66 421.867C1185.95 419.961 1182.22 420.633 1180.31 423.348Z" fill="#F7A190"/><path d="M1174.63 433.723L1174.59 433.792C1172.7 436.52 1173.25 440.168 1175.81 441.978L1190.36 452.165C1192.93 453.961 1196.55 453.221 1198.44 450.506L1198.48 450.438C1200.38 447.723 1199.83 444.062 1197.26 442.252L1182.71 432.064C1180.15 430.254 1176.53 430.995 1174.63 433.723Z" fill="#F7A190"/><path d="M1187.25 413.404L1187.21 413.473C1185.32 416.188 1185.97 419.931 1188.69 421.823L1204.08 432.573C1206.79 434.465 1210.54 433.807 1212.43 431.092L1212.47 431.023C1214.37 428.308 1213.71 424.565 1210.99 422.673L1195.6 411.923C1192.9 410.031 1189.16 410.689 1187.25 413.404Z" fill="#F7A190"/><path d="M1197.1 431.259L1197.16 431.3C1199.89 433.179 1203.64 432.493 1205.52 429.765L1216.17 414.312C1218.05 411.583 1217.37 407.854 1214.64 405.975L1214.57 405.934C1211.84 404.056 1208.11 404.741 1206.22 407.47L1195.57 422.923C1193.68 425.638 1194.37 429.381 1197.1 431.259Z" fill="#F7A190"/><path d="M1218.73 408.652L1210.72 420.27L1219.49 426.307L1227.49 414.689L1218.73 408.652Z" fill="#F7A190"/><path d="M1206.2 407.453L1195.56 422.906C1193.68 425.634 1194.37 429.364 1197.1 431.256L1197.16 431.297C1199.89 433.176 1203.64 432.49 1205.52 429.762L1216.17 414.309" fill="#F7A190"/><path d="M1218.38 411.734C1218.38 411.734 1204.68 424.267 1216.93 440.515L1218.38 411.734Z" fill="#F7A190"/><path d="M1514.25 596.261L1486.35 600.278L1489.14 566.672L1516.91 570.127L1514.25 596.261Z" fill="#BF7461"/><path d="M1467.36 607.954C1465.5 605.472 1466.05 601.976 1468.56 600.166L1493 582.629L1499.61 591.473L1475.01 609.119C1472.55 610.902 1469.15 610.367 1467.36 607.954Z" fill="#BF7461"/><path d="M1456.69 606.301C1454.83 603.819 1455.38 600.322 1457.89 598.512L1486.59 578.617L1493.2 587.461L1464.34 607.48C1461.88 609.248 1458.48 608.714 1456.69 606.301Z" fill="#BF7461"/><path d="M1443.59 601.627C1441.72 599.885 1441.54 597.006 1443.18 595.059L1457.54 577.892L1461.24 576.699L1466.46 582.156L1450.54 601.201C1448.77 603.313 1445.6 603.505 1443.59 601.627Z" fill="#BF7461"/><path d="M1447.81 604.911C1446.03 602.896 1446.21 599.824 1448.22 598.042L1466.94 581.438L1474.27 589.705L1456.52 605.432C1453.98 607.695 1450.07 607.462 1447.81 604.911Z" fill="#BF7461"/><path d="M1489.14 566.688L1493.43 574.75L1461.82 588.077L1457.52 577.903L1489.14 566.688Z" fill="#BF7461"/><path d="M1491.32 569.373L1460.48 584.43L1465.33 594.347L1496.16 579.29L1491.32 569.373Z" fill="#BF7461"/><path d="M1549.16 578.08L1540.9 591.956L1513.14 596.398L1511.36 569.414L1549.16 578.08Z" fill="#BF7461"/><path d="M321.747 807.075C319.909 807.075 318.428 805.594 318.428 803.757V780.338C318.428 778.5 319.909 777.02 321.747 777.02C323.585 777.02 325.066 778.5 325.066 780.338V803.757C325.066 805.594 323.585 807.075 321.747 807.075Z" fill="#FF6200"/><path d="M336.507 807.075C334.669 807.075 333.188 805.594 333.188 803.757V780.338C333.188 778.5 334.669 777.02 336.507 777.02C338.344 777.02 339.826 778.5 339.826 780.338V803.757C339.826 805.594 338.344 807.075 336.507 807.075Z" fill="#FF6200"/><path d="M345.734 775.729C345.734 766.557 338.301 759.125 329.125 759.125C319.949 759.125 312.516 766.557 312.516 775.729V788.083H345.899L345.734 775.729Z" fill="#FF6200"/><path d="M1607.97 358.096C1607.97 358.096 1605.47 362.47 1608.45 367.667C1608.45 367.667 1616.52 369.463 1622.38 359.714C1622.37 359.714 1614.08 357.246 1607.97 358.096Z" fill="white"/><path d="M1607.97 358.098C1607.97 358.098 1605.47 362.472 1608.45 367.669C1608.45 367.669 1609.6 367.929 1611.35 367.724C1612.44 366.681 1613.15 365.022 1613.15 363.13C1613.15 360.813 1612.08 358.825 1610.57 357.934C1609.68 357.934 1608.8 357.988 1607.97 358.098Z" fill="#1D1D1B"/><path d="M1606.53 358.231V356.764C1606.53 356.764 1615.33 354.309 1624.12 357.861L1621.89 360.658C1621.89 360.672 1615.41 357.957 1606.53 358.231Z" fill="#1D1D1B"/><path d="M1194.82 326.981C1194.89 327.612 1194.85 328.27 1194.63 328.915C1193.85 331.3 1191.28 332.589 1188.9 331.808C1186.51 331.026 1185.22 328.462 1186 326.076C1186.18 325.542 1186.45 325.075 1186.78 324.664C1185.52 324.801 1184.55 325.267 1184.08 326.104C1182.85 328.284 1185.41 332.068 1189.81 334.564C1194.22 337.059 1198.78 337.306 1200.02 335.126C1201.21 333.042 1198.89 329.477 1194.82 326.981Z" fill="white"/><path d="M1186.78 324.665C1186.46 325.076 1186.18 325.543 1186 326.077C1185.22 328.463 1186.52 331.027 1188.9 331.809C1191.28 332.59 1193.85 331.288 1194.63 328.916C1194.84 328.271 1194.89 327.613 1194.82 326.982C1194.64 326.873 1194.48 326.763 1194.29 326.667C1191.58 325.131 1188.8 324.446 1186.78 324.665Z" fill="black"/><path d="M1231.93 341.149C1232.2 340.34 1232.21 339.518 1232.03 338.736C1231.34 338.571 1230.63 338.434 1229.89 338.338C1227.31 338.037 1224.93 338.284 1223.16 338.942C1222.77 341.136 1224.02 343.329 1226.2 344.042C1228.59 344.838 1231.15 343.535 1231.93 341.149Z" fill="black"/><path d="M1244.77 340.227C1245.2 338.938 1245.09 337.526 1244.47 336.319C1243.85 335.112 1242.78 334.18 1241.49 333.755L1225.19 328.407C1223.9 327.982 1222.49 328.092 1221.26 328.709C1220.04 329.326 1219.13 330.396 1218.7 331.685L1217.29 335.99L1243.35 344.546L1244.77 340.227Z" fill="#A3422E"/><path d="M640.477 862.101C636.527 841.081 627.927 821.09 615.117 803.937C602.856 787.497 587.303 773.882 570.268 762.556C534.773 738.945 493.792 724.863 453.524 711.81C432.334 704.941 410.595 698.839 391.503 687.02C382.245 681.275 373.769 674.186 367.063 665.548C359.752 656.142 354.938 645.214 351.99 633.71C346.682 613.047 345.077 589.559 352.621 569.239C355.652 561.094 360.617 553.279 367.419 547.74C373.619 556.954 381.628 564.797 392.148 568.732C401.227 572.118 412.885 572.557 421.087 566.785C428.699 561.424 432.457 550.688 427.808 542.159C424.338 535.811 416.877 533.439 410.129 532.684C402.009 531.766 393.615 532.863 385.715 534.769C379.749 536.208 373.811 538.183 368.599 541.46C361.508 529.805 357.119 516.231 354.102 503.273C352.168 494.978 350.947 486.6 350.207 478.113C349.164 465.978 347.944 452.596 352.593 441.024C354.65 435.909 358.312 431.481 362.276 427.724C366.898 423.336 372.439 420.237 378.981 420.745C381.848 420.964 381.834 416.494 378.981 416.275C367.008 415.356 356.351 425.173 350.646 434.881C344.282 445.699 344.419 459.356 345.214 471.463C346.476 490.714 349.795 509.773 357.051 527.735C359.259 533.205 361.892 538.759 365.047 544.01C356.886 550.592 351.208 559.6 347.793 569.458C340.537 590.409 342.307 614.432 347.834 635.575C353.8 658.322 367.556 676.86 387.252 689.611C406.686 702.198 429.111 708.602 450.932 715.663C471.669 722.368 492.352 729.333 512.513 737.643C552.15 754 592.185 776.569 616.228 813.288C628.928 832.69 635.58 854.573 638.296 877.471C641.547 904.757 640.765 933.537 631.603 959.685C627.324 971.902 621.056 983.652 611.798 992.839C603.542 1001.02 593.31 1007 582.31 1010.69C558.83 1018.55 533.456 1016.22 510.62 1007.4C484.753 997.405 462.425 980.307 441.262 962.756C420.593 945.631 400.501 926.832 377.116 913.395C329.675 886.137 264.376 881.036 212.341 897.079C200.751 900.644 189.752 905.347 180 912.559V918.181C190.972 909.158 204.194 903.948 217.758 900.15C230.541 896.571 243.68 894.309 256.915 893.294C283.948 891.238 316.042 894.213 341.84 902.645C354.788 906.869 367.282 912.518 378.899 919.634C390.104 926.503 400.501 934.716 410.677 943.026C431.154 959.74 450.767 977.647 472.807 992.332C493.572 1006.18 517.012 1017.29 542.138 1019.54C564.535 1021.55 588.318 1016.68 606.586 1003.14C626.748 988.191 636.883 964.169 641.355 940.105C646.141 914.52 645.263 887.645 640.477 862.101ZM371.109 545.052C376.938 541.364 384.124 539.513 390.831 538.21C401.872 536.071 425.956 534.028 425.298 551.167C424.818 563.659 411.5 567.745 401.022 566.36C392.23 565.194 384.509 560.491 378.392 554.225C375.662 551.428 373.207 548.37 370.999 545.134C371.026 545.107 371.068 545.08 371.109 545.052Z" fill="#FF6200"/><path d="M1111.34 369.062L1166.4 409.36L1098.72 475.696L1047.63 421.797" fill="#232144"/><path d="M1564.82 585.09H943.707V1020H1564.82V585.09Z" fill="#FAD9E8"/></svg>