<svg viewBox="0 0 1600 1200" fill="none" xmlns="http://www.w3.org/2000/svg"><path d="M1036.72 620.312L705.32 683.612L514.44 710.302L499.93 672.832C528.27 626.772 606.04 612.782 639.21 588.222C676.39 560.692 709.53 504.262 752.49 476.522C813.89 436.882 910.36 429.032 965.43 382.122C974 374.822 987.11 381.172 986.48 392.402L981.27 484.872C979.94 508.482 985.55 531.962 997.39 552.422L1036.7 620.312H1036.72Z" fill="#FF8D00"/><path d="M528.101 690.461L283.451 748.201L269.381 786.471L547.971 760.481L528.101 690.461Z" fill="#3867C3"/><path d="M744.351 682.85L732.141 782.11L938.861 819.78C952.231 822.22 965.941 822.14 979.281 819.56L1308.46 746.74L1277.54 696.14L967.181 726.14L744.351 682.84V682.85Z" fill="#3867C3"/><path d="M1283.76 608.331L1262.76 557.051L918.599 626.311L721.949 653.831L732.319 781.881L1283.76 608.331Z" fill="#3867C3"/><path d="M721.951 653.83C721.951 653.83 595.231 638.18 505.351 682.17C488.541 690.4 464.961 728.02 464.961 728.02L493.781 758.23C514.011 776.69 535.671 783.82 572.631 787.99L584.161 788.45L732.311 781.9L721.941 653.84L721.951 653.83Z" fill="#3867C3"/><path fill-rule="evenodd" clip-rule="evenodd" d="M464.97 600.641L386.93 640.711C386.93 640.711 396.88 659.681 406.62 678.311C405.78 682.141 404.89 686.191 404.16 689.531C403.8 691.161 404.29 692.861 405.45 694.051C406.62 695.241 408.3 695.771 409.94 695.451C411.6 695.131 413.36 694.781 415.06 694.461C419.02 702.041 422.3 708.361 423.97 711.601C427.8 719.051 436.94 721.991 444.39 718.171C448.04 716.301 452.21 714.161 456.62 711.891L464.98 728.021C469.86 737.531 481.54 741.281 491.05 736.401L508.54 727.421C518.05 722.541 521.81 710.861 516.92 701.351L464.98 600.651L464.97 600.641Z" fill="#AB3734"/><path d="M416.039 675.13C412.189 677.82 407.659 671.35 411.509 668.66C415.359 665.97 419.489 665.24 420.739 667.02C421.989 668.81 419.879 672.44 416.039 675.13Z" fill="white"/><path d="M426.53 700.703C425.85 703.233 424.01 705.413 421.41 706.763L422.47 708.823C425.65 707.173 427.93 704.473 428.77 701.303L426.53 700.703Z" fill="#131010"/><path d="M413.04 666.114C417.562 664.076 420.528 660.873 419.666 658.96C418.803 657.047 414.439 657.148 409.917 659.185C405.396 661.223 402.429 664.426 403.292 666.339C404.154 668.253 408.519 668.152 413.04 666.114Z" fill="#191313"/><path d="M268.02 787.179L342.3 779.669L336.77 735.609L270.25 748.309L238.88 751.549C236.68 751.779 234.69 752.979 233.48 754.829L216.98 779.939C215.57 782.079 215.69 784.879 217.29 786.889L219.83 790.079L229.74 803.269C228.61 806.109 229.34 809.459 231.81 811.539C234.88 814.119 239.47 813.729 242.06 810.649L256.5 793.479L268.03 787.199L268.02 787.179Z" fill="#232144"/><path d="M584.309 788.439L575.939 772.149C568.769 758.379 553.399 750.949 538.149 753.879L523.369 777.089L540.939 784.129C546.579 786.559 552.639 787.879 558.779 788.019L584.299 788.429L584.309 788.439Z" fill="#FF8D00"/><path d="M1235.45 562.541L1251.34 538.211L1359.12 608.051L1348.91 624.001C1345.53 629.221 1338.97 631.521 1332.76 629.641L1274.66 611.621L1179.29 641.241L1159.3 577.861L1235.45 562.541Z" fill="#232144"/><path d="M1373.79 759.952C1370.41 765.172 1363.85 767.472 1357.64 765.592L1301.23 748.342L1199.53 770.842L1189.01 704.672L1260.78 697.752L1276.21 674.152L1383.99 743.992L1373.78 759.942L1373.79 759.952Z" fill="#232144"/><path d="M536.87 674.15C535.99 673.95 535.11 673.79 534.23 673.65L534.14 673.63C515.17 670.7 496.85 682.84 492.44 701.85C492.32 702.37 492.21 702.9 492.11 703.42C488.33 723.56 502.63 742.31 522.4 745.4H522.43C523.79 745.61 525.17 745.75 526.58 745.81H526.68L789.79 771.33L815.61 739.76L536.87 674.15Z" fill="#397EFF"/><path d="M864.969 756.411L863.609 752.571L858.559 736.861C860.559 734.551 860.959 731.141 859.309 728.371C857.249 724.921 852.789 723.801 849.339 725.861L830.079 737.361L817.059 739.541L738.729 721.691L734.039 765.921L802.509 775.581L833.019 782.741C835.179 783.251 837.439 782.761 839.199 781.401L863.009 763.071C865.039 761.511 865.839 758.821 864.989 756.401L864.969 756.411Z" fill="#232144"/><path d="M523.97 621.662C523.97 609.762 514.32 600.112 502.42 600.112C493.88 600.112 486.53 605.092 483.04 612.292L482.61 611.312V611.342C479.12 603.442 472.74 597.122 464.69 593.772C455.53 589.962 445.16 590.382 436.33 594.912L384.03 621.762C380.02 623.822 378.43 628.742 380.49 632.762L383.11 637.862C384.31 640.212 389.79 652.312 398.04 648.072L424.81 635.332L441.33 666.972L449.38 663.102L444.91 654.132C444.91 654.132 452.35 661.422 462.39 667.892L462.32 668.092L465.71 674.392C469.76 681.922 479.01 684.942 486.73 681.272L508.61 670.862L496.11 642.242C498.1 642.852 500.21 643.192 502.41 643.192C514.31 643.192 523.96 633.542 523.96 621.642L523.97 621.662Z" fill="#120E0E"/><path d="M443.939 665.93C446.759 671.41 453.489 673.58 458.969 670.76C464.449 667.94 466.619 661.21 463.799 655.73C460.979 650.25 454.249 648.08 448.769 650.9C443.289 653.72 441.119 660.45 443.939 665.93Z" fill="#AB3734"/><path d="M412.411 675.331C412.611 675.441 412.921 675.211 413.111 675.111C414.881 674.211 415.631 671.841 414.661 669.511C414.291 668.641 413.931 668.071 413.291 667.551C413.291 667.551 410.931 668.321 410.141 670.381C410.141 670.381 409.481 672.231 411.041 674.121C411.041 674.121 411.641 674.921 412.411 675.331Z" fill="#1C1D1A"/><path d="M422.111 670.022L411.352 675.73L413.395 679.582L424.154 673.873L422.111 670.022Z" fill="#AE2B36"/><path d="M412.271 686.231L419.121 682.891C428.651 678.241 436.641 670.951 442.121 661.881L446.521 654.611C447.911 652.321 447.971 649.461 446.681 647.111C445.361 644.711 442.841 643.211 440.101 643.211H431.211C423.251 643.211 415.381 644.931 408.141 648.271L395.771 653.971C392.821 655.331 391.571 658.851 393.001 661.761L403.571 683.261C405.151 686.481 409.041 687.811 412.261 686.241L412.271 686.231ZM420.571 674.891C410.571 682.511 399.261 671.201 406.881 661.201C416.881 653.581 428.181 664.891 420.571 674.891Z" fill="#397EFF"/></svg>