<svg viewBox="0 0 1600 1200" fill="none" xmlns="http://www.w3.org/2000/svg"><path fill-rule="evenodd" clip-rule="evenodd" d="M837.919 1012.29H872.828L848.519 699.695L798.321 699.948L837.919 1012.29Z" fill="#FFD4A9"/><path fill-rule="evenodd" clip-rule="evenodd" d="M836.281 1012.28C836.281 1000.84 845.545 991.555 856.974 991.555C868.403 991.555 877.667 1000.84 877.667 1012.28" fill="#4B7CFE"/><path fill-rule="evenodd" clip-rule="evenodd" d="M836.282 1020H877.667V1012.29H836.282V1020Z" fill="#232246"/><path fill-rule="evenodd" clip-rule="evenodd" d="M750.851 1012.36L739.273 700.688H780.692V1012.36H750.851Z" fill="#FFD4A9"/><path fill-rule="evenodd" clip-rule="evenodd" d="M743.646 1012.28C743.646 1000.84 752.91 991.555 764.339 991.555C775.768 991.555 785.032 1000.84 785.032 1012.28" fill="#4B7CFE"/><path fill-rule="evenodd" clip-rule="evenodd" d="M743.646 1020H785.031V1012.29H743.646V1020Z" fill="#232246"/><path fill-rule="evenodd" clip-rule="evenodd" d="M884.146 207.248C837.792 295.69 714.598 220.644 668.243 309.087C663.974 300.004 660.202 291.978 655.934 282.895C702.288 194.453 824.985 268.442 871.339 180C875.609 189.083 879.877 198.165 884.146 207.248Z" fill="#FF0000"/><path fill-rule="evenodd" clip-rule="evenodd" d="M896.976 234.545C850.622 322.987 727.428 247.941 681.073 336.383L668.267 309.135C714.621 220.693 837.815 295.739 884.17 207.297C888.439 216.38 892.707 225.462 896.976 234.545Z" fill="#FF5200"/><path fill-rule="evenodd" clip-rule="evenodd" d="M909.806 261.842C863.451 350.284 740.257 275.238 693.903 363.68L681.096 336.432C727.45 247.99 850.644 323.036 896.999 234.594C901.268 243.677 905.536 252.759 909.806 261.842Z" fill="#FFD300"/><path fill-rule="evenodd" clip-rule="evenodd" d="M922.636 289.139C876.281 377.581 753.087 302.535 706.733 390.977C702.463 381.894 698.195 372.812 693.926 363.729C740.27 275.221 863.464 350.263 909.829 261.891C914.098 270.974 918.366 280.056 922.636 289.139Z" fill="#008300"/><path fill-rule="evenodd" clip-rule="evenodd" d="M935.465 316.436C889.11 404.878 765.916 329.832 719.562 418.274C715.292 409.191 711.024 400.109 706.755 391.026C753.109 302.584 876.304 377.63 922.658 289.188C926.927 298.271 931.195 307.352 935.465 316.436Z" fill="#0000FF"/><path fill-rule="evenodd" clip-rule="evenodd" d="M948.295 343.732C901.941 432.175 778.746 357.129 732.392 445.571C728.123 436.488 723.854 427.405 719.585 418.323C765.939 329.881 889.134 404.927 935.488 316.484C939.757 325.567 944.025 334.649 948.295 343.732Z" fill="#930081"/><path fill-rule="evenodd" clip-rule="evenodd" d="M673.436 259.512C742.132 279.315 807.843 312.285 807.843 312.285C765.342 337.566 745.979 397.807 754.435 418.23C752.395 419.521 732.392 445.573 732.392 445.573L655.934 282.897C662.82 268.903 673.436 259.512 673.436 259.512Z" fill="#22181E"/><path d="M663.367 270.834C747.628 297.814 777.878 315.12 777.878 315.12C753.868 339.648 730.727 384.223 742.989 431.361C743.028 431.51 743.066 431.658 743.103 431.806C737.685 438.677 732.391 445.571 732.391 445.571L655.933 282.895C658.18 278.329 660.824 274.253 663.367 270.834Z" fill="#89460F"/><path d="M655.94 282.91L730.598 441.754C715.279 407.425 720.649 370.435 753.108 320.314C753.108 320.314 714.552 301.619 655.94 282.91Z" fill="#28D7FB"/><path d="M706.477 390.434C711.012 371.808 719.105 350.424 732.447 326.674C732.447 326.674 717.088 317.624 662.868 297.65L706.477 390.434Z" fill="#FF8BBB"/><path d="M670.332 313.531L697.783 371.937C701.453 360.688 706.834 347.671 714.456 332.351C714.456 332.351 705.713 327.475 670.332 313.531Z" fill="white"/><path fill-rule="evenodd" clip-rule="evenodd" d="M737.443 626.453L735.192 530.131H836.782L835.671 603.673L737.443 626.453Z" fill="#4B7CFE"/><path fill-rule="evenodd" clip-rule="evenodd" d="M737.327 626.454L736.726 603.674H835.67L835.237 626.144L737.327 626.454Z" fill="#FFD4A9"/><path fill-rule="evenodd" clip-rule="evenodd" d="M762.262 519.088L762.215 519.106C760.243 519.863 758.03 518.873 757.275 516.896L752.996 505.699C752.241 503.722 753.228 501.505 755.202 500.749L755.248 500.731C757.222 499.974 759.434 500.964 760.19 502.941L764.468 514.138C765.224 516.115 764.236 518.331 762.262 519.088Z" fill="#FBCFA4"/><path fill-rule="evenodd" clip-rule="evenodd" d="M734.48 617.226C734.48 627.97 725.785 636.681 715.059 636.681C714.613 636.681 714.169 636.665 713.73 636.636C701.677 635.819 693.768 623.542 697.206 611.941L717.426 557.515C716.492 545.108 725.775 534.293 738.158 533.359C750.543 532.423 758.183 538.561 759.116 550.966L734.48 617.226Z" fill="#4B7CFE"/><path fill-rule="evenodd" clip-rule="evenodd" d="M736.399 517.352C737.836 513.577 743.056 506.501 746.107 502.556C746.673 501.826 747.514 501.364 748.433 501.275L756.582 500.482L757.696 505.807L762.626 500.892L772.877 529.666L762.293 535.253C759.742 536.19 757.032 536.613 754.319 536.499L739.009 599.101H711.484" fill="#FFD4A9"/><path fill-rule="evenodd" clip-rule="evenodd" d="M914.821 373.894L919.429 377.615L920.2 370.062L948.663 387.243L940.485 401.787C938.978 404.34 936.985 406.57 934.618 408.35L920.285 433.839L898.477 421.531L909.544 402.145L909.42 402.073C908.032 397.896 907.559 388.319 907.417 382.885C907.39 381.877 907.781 380.907 908.495 380.196L914.821 373.894Z" fill="#FFD4A9"/><path fill-rule="evenodd" clip-rule="evenodd" d="M946.733 381.925L946.916 382.028C948.884 383.139 949.582 385.638 948.472 387.612L944.386 394.878C943.276 396.851 940.782 397.549 938.812 396.438L938.63 396.335C936.661 395.224 935.964 392.723 937.074 390.751L941.159 383.484C942.269 381.512 944.764 380.814 946.733 381.925Z" fill="#FFD4A9"/><path fill-rule="evenodd" clip-rule="evenodd" d="M940.658 375.695L940.704 375.722C942.711 376.854 943.421 379.401 942.291 381.41L935.89 392.793C934.76 394.803 932.218 395.514 930.211 394.382L930.164 394.356C928.158 393.223 927.447 390.675 928.577 388.666L934.978 377.284C936.108 375.274 938.652 374.563 940.658 375.695Z" fill="#FFD4A9"/><path fill-rule="evenodd" clip-rule="evenodd" d="M933.319 371.554L933.366 371.581C935.373 372.713 936.082 375.26 934.952 377.27L928.551 388.652C927.421 390.662 924.879 391.373 922.872 390.241L922.825 390.215C920.819 389.083 920.108 386.535 921.238 384.525L927.639 373.144C928.769 371.133 931.313 370.422 933.319 371.554Z" fill="#FFD4A9"/><path fill-rule="evenodd" clip-rule="evenodd" d="M925.245 368.72L925.292 368.747C927.299 369.879 928.009 372.426 926.879 374.436L921.948 383.204C920.817 385.214 918.275 385.926 916.269 384.793L916.222 384.766C914.215 383.634 913.505 381.087 914.635 379.077L919.566 370.31C920.696 368.299 923.239 367.588 925.245 368.72Z" fill="#FFD4A9"/><path fill-rule="evenodd" clip-rule="evenodd" d="M932.426 385.659L932.399 385.706C931.256 387.708 928.708 388.404 926.71 387.258L915.389 380.773C913.39 379.627 912.697 377.075 913.84 375.073L913.867 375.026C915.01 373.024 917.557 372.328 919.557 373.474L930.876 379.959C932.875 381.105 933.569 383.657 932.426 385.659Z" fill="#FFD4A9"/><path fill-rule="evenodd" clip-rule="evenodd" d="M912.688 378.344L921.2 383.221L917.528 389.652L909.017 384.775L912.688 378.344Z" fill="#FFD4A9"/><path fill-rule="evenodd" clip-rule="evenodd" d="M919.556 373.475L930.876 379.961C932.876 381.105 933.569 383.658 932.425 385.66L932.399 385.707C931.256 387.709 928.708 388.404 926.709 387.259L915.39 380.774" fill="#FFD4A9"/><path fill-rule="evenodd" clip-rule="evenodd" d="M928.763 388.096C928.015 388.096 927.26 387.907 926.568 387.51L915.248 381.024L915.531 380.526L926.851 387.012C928.713 388.076 931.087 387.427 932.151 385.566C933.24 383.657 932.592 381.275 930.734 380.211L919.415 373.726L919.699 373.227L931.019 379.713C933.151 380.934 933.894 383.667 932.675 385.804C931.833 387.278 930.316 388.096 928.763 388.096Z" fill="#F0A86B"/><path fill-rule="evenodd" clip-rule="evenodd" d="M913.854 380.188C913.854 380.188 926.211 383.924 923.424 397.809L913.854 380.188Z" fill="#FFD4A9"/><path fill-rule="evenodd" clip-rule="evenodd" d="M923.705 397.867L923.143 397.755C925.847 384.281 913.893 380.5 913.771 380.464L913.938 379.914C914.063 379.953 926.511 383.888 923.705 397.867Z" fill="#F0A86B"/><path fill-rule="evenodd" clip-rule="evenodd" d="M804.312 530.598C804.312 530.598 868.966 449.817 884.537 419.92C894.981 399.867 916.829 411.106 925.997 425.854C950.144 464.695 866.925 502.846 836.327 565.38" fill="#4B7CFE"/><path fill-rule="evenodd" clip-rule="evenodd" d="M932.718 421.399L926.948 432.15L896.036 415.501L901.806 404.75L932.718 421.399Z" fill="#4B7CFE"/><path fill-rule="evenodd" clip-rule="evenodd" d="M769.632 495.409C769.632 491.72 766.647 488.73 762.965 488.73C759.283 488.73 756.299 491.72 756.299 495.409C756.299 499.097 759.283 502.087 762.965 502.087C766.647 502.087 769.632 499.097 769.632 495.409Z" fill="#FCE3CA"/><path fill-rule="evenodd" clip-rule="evenodd" d="M803.877 495.409C803.877 491.72 806.862 488.73 810.543 488.73C814.225 488.73 817.21 491.72 817.21 495.409C817.21 499.097 814.225 502.087 810.543 502.087C806.862 502.087 803.877 499.097 803.877 495.409Z" fill="#FCE3CA"/><path fill-rule="evenodd" clip-rule="evenodd" d="M803.226 538.236V516.83L770.287 516.711V538.236C770.287 547.348 777.661 554.734 786.757 554.734C795.853 554.734 803.226 547.348 803.226 538.236Z" fill="#FFD4A9"/><path fill-rule="evenodd" clip-rule="evenodd" d="M808.588 510.402V473.839C808.588 465.695 801.997 459.094 793.868 459.094H779.646C771.518 459.094 764.927 465.695 764.927 473.839V510.402C764.927 518.547 771.518 525.149 779.646 525.149H793.868C801.997 525.149 808.588 518.547 808.588 510.402Z" fill="#FCE3CA"/><path fill-rule="evenodd" clip-rule="evenodd" d="M787.005 502.939C786.055 502.939 785.336 502.502 784.702 502.115C783.776 501.551 783.166 501.177 782.101 502.086L781.592 501.486C783.086 500.209 784.161 500.863 785.111 501.441C785.684 501.789 786.276 502.151 787.005 502.151C787.623 502.151 788.161 501.788 788.682 501.437C789.546 500.855 790.621 500.13 791.922 501.573L791.337 502.101C790.495 501.167 790.008 501.494 789.121 502.091C788.531 502.489 787.863 502.939 787.005 502.939Z" fill="black"/><path fill-rule="evenodd" clip-rule="evenodd" d="M792.995 511.019C791.349 509.244 789.986 508.299 788.708 508.04C788.06 507.909 786.803 508.094 786.16 508.743C785.923 507.834 784.935 506.974 784.283 506.818C783.02 506.516 779.108 507.265 779.108 507.265C779.108 507.265 780.608 511.426 784.309 512.703C788.214 514.049 793.232 511.08 792.995 511.019Z" fill="#E73245"/><path fill-rule="evenodd" clip-rule="evenodd" d="M792.762 493.936C792.762 493.936 794.407 490.466 797.525 489.407C800.644 488.347 804.057 490.099 804.057 490.099C804.057 490.099 802.296 493.288 799.176 494.347C796.057 495.406 792.762 493.936 792.762 493.936Z" fill="white"/><path fill-rule="evenodd" clip-rule="evenodd" d="M800.614 492.852C801.062 491.56 800.38 490.149 799.091 489.7C797.801 489.252 796.393 489.935 795.944 491.227C795.496 492.518 796.179 493.93 797.468 494.378C798.758 494.827 800.166 494.144 800.614 492.852Z" fill="#191C15"/><path fill-rule="evenodd" clip-rule="evenodd" d="M793.283 494.291L792.24 493.582C793.763 491.335 797.987 486.426 804.312 489.349L803.783 490.495C801.53 489.455 797.169 488.562 793.283 494.291Z" fill="#191C15"/><path fill-rule="evenodd" clip-rule="evenodd" d="M780.753 493.792C780.753 493.792 779.108 490.322 775.99 489.262C772.87 488.203 769.458 489.955 769.458 489.955C769.458 489.955 771.13 493.203 774.248 494.263C777.368 495.322 780.753 493.792 780.753 493.792Z" fill="white"/><path fill-rule="evenodd" clip-rule="evenodd" d="M772.9 492.805C772.452 491.513 773.135 490.102 774.424 489.653C775.714 489.205 777.122 489.888 777.57 491.18C778.019 492.471 777.336 493.883 776.047 494.331C774.757 494.78 773.349 494.097 772.9 492.805Z" fill="#191C15"/><path fill-rule="evenodd" clip-rule="evenodd" d="M780.231 494.147C776.346 488.418 771.984 489.31 769.73 490.352L769.202 489.205C775.526 486.281 779.752 491.191 781.274 493.438L780.231 494.147Z" fill="#191C15"/><path fill-rule="evenodd" clip-rule="evenodd" d="M767.086 485.433L776.937 481.824C779.882 480.745 783.314 482.412 783.53 485.144C783.537 485.239 783.542 485.336 783.542 485.433H767.086Z" fill="#2C1129"/><path fill-rule="evenodd" clip-rule="evenodd" d="M806.428 485.433L796.577 481.824C793.632 480.745 790.2 482.412 789.984 485.144C789.977 485.239 789.973 485.336 789.973 485.433H806.428Z" fill="#2C1129"/><path fill-rule="evenodd" clip-rule="evenodd" d="M790.139 516.743C789.477 515.503 787.718 515.125 786.416 515.184C784.948 515.246 783.735 515.812 783.398 516.594L782.819 516.344C783.256 515.33 784.657 514.626 786.389 514.552C787.877 514.491 789.895 514.947 790.695 516.444L790.139 516.743Z" fill="#F18E67"/><path fill-rule="evenodd" clip-rule="evenodd" d="M766.218 489.642V486.623C766.218 477.354 773.63 469.841 782.774 469.841H785.533H787.982H790.741C799.885 469.841 807.297 477.354 807.297 486.623V489.642H810.544V476.14C810.544 466.095 802.417 457.953 792.39 457.953H781.125C771.098 457.953 762.971 466.095 762.971 476.14V489.642H766.218Z" fill="#2C1129"/><path fill-rule="evenodd" clip-rule="evenodd" d="M802.472 477.21L799.117 475.952L806.306 466.945L802.472 477.21Z" fill="#FDE1C8"/><path d="M846.538 649.924C841.241 632.801 835.237 626.143 835.237 626.143H737.359C737.359 626.143 731.019 633.246 725.689 649.924H846.538Z" fill="#008300"/><path d="M846.535 649.91H725.695C723.268 657.5 721.051 667.073 719.735 678.863H852.965C852.439 675.793 851.954 673.352 851.518 671.634L851.509 671.635C850.122 663.031 848.371 655.842 846.535 649.91Z" fill="#0000FF"/><path d="M852.963 678.852H719.737C719.341 682.392 719.027 686.132 718.814 690.079L718.806 690.08C718.806 690.08 718.801 690.232 718.791 690.466C718.671 692.745 718.587 695.093 718.539 697.51C718.442 700.271 718.324 703.739 718.191 707.805H857.024C855.521 695.718 854.139 685.713 852.963 678.852Z" fill="#930081"/><path d="M875.103 881.428H716.089C716.397 892.695 716.876 902.592 717.574 910.381H877.816C877.181 903.524 876.248 893.518 875.103 881.428Z" fill="#FF0000"/><path d="M877.815 910.367H717.573C717.926 914.31 718.335 917.713 718.806 920.48H878.745C878.745 920.48 878.411 916.814 877.815 910.367Z" fill="#FF5200"/><path d="M857.022 707.791H718.192C717.939 715.529 717.632 725.432 717.319 736.744H860.425C859.249 726.279 858.104 716.495 857.022 707.791Z" fill="#FF0000"/><path d="M860.423 736.73H717.319C717.073 745.633 716.824 755.407 716.596 765.683H863.578C862.517 755.685 861.458 745.943 860.423 736.73Z" fill="#FF5200"/><path d="M863.578 765.67H716.597C716.389 774.999 716.198 784.742 716.042 794.623H866.589C865.596 784.895 864.586 775.166 863.578 765.67Z" fill="#FFD300"/><path d="M866.587 794.609H716.042C715.89 804.215 715.771 813.951 715.7 823.562H869.499C868.557 814.066 867.581 804.338 866.587 794.609Z" fill="#008300"/><path d="M869.497 823.547H715.7C715.628 833.421 715.607 843.164 715.655 852.5H872.333C871.441 843.287 870.489 833.546 869.497 823.547Z" fill="#0000FF"/><path d="M872.332 852.488H715.655C715.708 862.753 715.845 872.526 716.089 881.441H875.104C874.28 872.738 873.345 862.954 872.332 852.488Z" fill="#930081"/><path fill-rule="evenodd" clip-rule="evenodd" d="M832.526 722.816L858.973 924.009L829.948 926.157L832.526 722.816Z" fill="#FFD4A9"/><path fill-rule="evenodd" clip-rule="evenodd" d="M817.47 638.149L652.245 280.086C651.631 278.755 652.21 277.177 653.538 276.562C654.868 275.947 656.443 276.527 657.057 277.858L822.282 635.92C822.896 637.252 822.317 638.83 820.988 639.445C819.659 640.061 818.084 639.481 817.47 638.149Z" fill="#161615"/><path fill-rule="evenodd" clip-rule="evenodd" d="M762.757 519.58L732.595 454.215L737.745 452.719L771.319 525.478" fill="#161615"/><path fill-rule="evenodd" clip-rule="evenodd" d="M769.453 497.707H806.153V494.031H769.453V497.707Z" fill="#FDE1C8"/><path fill-rule="evenodd" clip-rule="evenodd" d="M774.591 524.764L774.661 524.944C775.415 526.879 774.459 529.061 772.528 529.816L756.507 538.635C754.575 539.391 750.1 538.434 749.347 536.498L746.211 516.746C745.457 514.81 760.677 526.165 762.609 525.41L769.727 522.627C771.659 521.872 773.837 522.829 774.591 524.764Z" fill="#FFD4A9"/><path fill-rule="evenodd" clip-rule="evenodd" d="M773.889 516.804L773.907 516.85C774.676 518.823 773.702 521.046 771.734 521.815L760.584 526.173C758.616 526.943 756.397 525.968 755.628 523.995L755.61 523.95C754.842 521.977 755.816 519.755 757.784 518.984L768.933 514.626C770.903 513.857 773.121 514.832 773.889 516.804Z" fill="#FFD4A9"/><path fill-rule="evenodd" clip-rule="evenodd" d="M771.079 509.589L771.096 509.635C771.865 511.608 770.892 513.831 768.923 514.6L757.774 518.958C755.805 519.728 753.586 518.754 752.817 516.78L752.8 516.735C752.032 514.763 753.005 512.54 754.974 511.77L766.122 507.412C768.092 506.642 770.311 507.617 771.079 509.589Z" fill="#FFD4A9"/><path fill-rule="evenodd" clip-rule="evenodd" d="M766.988 502.875L767.005 502.92C767.774 504.894 766.801 507.116 764.832 507.886L756.243 511.242C754.274 512.013 752.056 511.038 751.288 509.066L751.27 509.019C750.501 507.047 751.474 504.824 753.443 504.055L762.031 500.697C764.001 499.927 766.22 500.903 766.988 502.875Z" fill="#FFD4A9"/><path fill-rule="evenodd" clip-rule="evenodd" d="M760.633 501.299L770.553 527.261L751.933 534.4L742.015 508.438L760.633 501.299Z" fill="#FFD4A9"/><path fill-rule="evenodd" clip-rule="evenodd" d="M733.579 623.635C749.456 589.941 773.863 558.807 751.559 543.547C737.237 533.749 712.722 532.277 711.225 554.845C710.009 573.188 705.171 594.206 697.205 620.506" fill="#4B7CFE"/><path fill-rule="evenodd" clip-rule="evenodd" d="M763.022 539.859L758.65 551.252L724.049 537.93L728.419 526.537L763.022 539.859Z" fill="#4B7CFE"/></svg>