<svg viewBox="0 0 1600 1200" fill="none" xmlns="http://www.w3.org/2000/svg"><path fill-rule="evenodd" clip-rule="evenodd" d="M522 855.277H647.125V180H522V855.277Z" fill="#E6F0FF"/><path fill-rule="evenodd" clip-rule="evenodd" d="M522 464.317H628.907V180H522V464.317Z" fill="#D0DEF2"/><path fill-rule="evenodd" clip-rule="evenodd" d="M522 467.124H628.907V450.838H522V467.124Z" fill="#B0C2E4"/><path fill-rule="evenodd" clip-rule="evenodd" d="M522 1020H618.061V855.277H522V1020Z" fill="#D0DEF2"/><path fill-rule="evenodd" clip-rule="evenodd" d="M618.649 450.839H584.562V395.446C584.562 388.547 590.15 382.955 597.042 382.955H606.171C613.062 382.955 618.649 388.547 618.649 395.446V450.839Z" fill="#E73245"/><path fill-rule="evenodd" clip-rule="evenodd" d="M596.186 387.961H607.488V376.643H596.186V387.961Z" fill="#E73245"/><path fill-rule="evenodd" clip-rule="evenodd" d="M580.14 450.839H546.054V395.446C546.054 388.547 551.641 382.955 558.533 382.955H567.662C574.554 382.955 580.14 388.547 580.14 395.446V450.839Z" fill="#FFE3C7"/><path fill-rule="evenodd" clip-rule="evenodd" d="M557.677 387.961H568.979V376.643H557.677V387.961Z" fill="#FFE3C7"/><path fill-rule="evenodd" clip-rule="evenodd" d="M890.066 980.453L850.286 744.949L824.009 527.583L842.293 525.656C881.938 524.692 914.426 539.1 912.311 582.948L915.978 744.048L928.293 980.096L890.066 980.453Z" fill="#FFC6AD"/><path fill-rule="evenodd" clip-rule="evenodd" d="M928.933 982.894L889.472 1009.08L881.975 933.58L928.293 932.992L928.933 982.894Z" fill="#232144"/><path fill-rule="evenodd" clip-rule="evenodd" d="M943.763 359.99L939.84 359.187L944.328 337.208C944.752 335.133 946.776 333.794 948.85 334.219L950.382 334.532C952.455 334.958 953.792 336.984 953.368 339.059L949.925 355.917C949.348 358.745 946.588 360.569 943.763 359.99Z" fill="#FFC6AD"/><path fill-rule="evenodd" clip-rule="evenodd" d="M762.549 415.081L710.603 451.998C702.83 457.521 692.125 456.136 686.011 448.815C679.594 441.132 680.537 429.71 688.128 423.186L747.249 372.379L762.549 415.081Z" fill="#FFC6AD"/><path fill-rule="evenodd" clip-rule="evenodd" d="M714.093 422.092L647.611 342.086L639.925 366.528L681.819 445.662C688.049 456.011 701.931 458.542 711.406 451.057C720.406 443.947 721.631 430.74 714.093 422.092Z" fill="#FFC6AD"/><path fill-rule="evenodd" clip-rule="evenodd" d="M1021.09 340.645H949.039C946.385 340.645 944.234 338.492 944.234 335.835V334.083C944.234 331.426 946.385 329.273 949.039 329.273H1021.09C1023.74 329.273 1025.89 331.426 1025.89 334.083V335.835C1025.89 338.492 1023.74 340.645 1021.09 340.645Z" fill="#BA5D27"/><path fill-rule="evenodd" clip-rule="evenodd" d="M878.351 406.118L909.623 461.69C914.302 470.005 924.575 473.322 933.223 469.31C942.299 465.101 946.308 454.366 942.219 445.225L910.369 374.023L878.351 406.118Z" fill="#F5B091"/><path fill-rule="evenodd" clip-rule="evenodd" d="M819.032 975.959L821.175 523.621H807.283C767.99 523.621 739.169 539.486 742.317 583.738L780.127 975.959H819.032Z" fill="#FFC6AD"/><path fill-rule="evenodd" clip-rule="evenodd" d="M819.539 937.481L775.695 937.119L766.188 831.355H820.266L819.539 937.481Z" fill="#FFC6AD"/><path fill-rule="evenodd" clip-rule="evenodd" d="M757.201 1020H820.315V1003.82H758.917L757.201 1020Z" fill="#7070FF"/><path fill-rule="evenodd" clip-rule="evenodd" d="M758.917 1003.82H820.316V982.895H780.231L758.917 1003.82Z" fill="#232144"/><path fill-rule="evenodd" clip-rule="evenodd" d="M950.247 1020L890.109 1019.97L888.926 1002.87L950.149 1003.81L950.247 1020Z" fill="#7070FF"/><path fill-rule="evenodd" clip-rule="evenodd" d="M950.246 1003.75H888.971L887.133 982.895H928.932L950.246 1003.75Z" fill="#232144"/><path fill-rule="evenodd" clip-rule="evenodd" d="M765.005 491.204L762.306 360.415L890.291 360.408L889.03 490.372L765.005 491.204Z" fill="#232144"/><path fill-rule="evenodd" clip-rule="evenodd" d="M731.239 394.238C729.934 376.912 742.903 361.807 760.205 360.501C777.506 359.195 792.589 372.183 793.893 389.509C795.197 406.835 774.073 433.543 774.073 433.543C774.073 433.543 732.543 411.564 731.239 394.238Z" fill="#232144"/><path fill-rule="evenodd" clip-rule="evenodd" d="M921.617 394.238C922.921 376.912 909.953 361.807 892.651 360.501C875.349 359.195 860.267 372.183 858.962 389.509C857.659 406.835 878.783 433.543 878.783 433.543C878.783 433.543 920.312 411.564 921.617 394.238Z" fill="#232144"/><path fill-rule="evenodd" clip-rule="evenodd" d="M888.964 483.914H833.582H765.203C765.203 483.914 731.492 527.809 738.977 621.281C739.26 624.807 825.64 623.694 825.64 623.694L826.631 564.371H827.536L830.79 623.72C830.79 623.72 914.907 624.807 915.189 621.281C922.675 527.809 888.964 483.914 888.964 483.914Z" fill="#7070FF"/><path fill-rule="evenodd" clip-rule="evenodd" d="M908.367 443.908L937.634 364.473L964.148 360.053L946.711 455.117C944.355 466.97 932.154 474.067 920.706 470.245C909.83 466.613 904.204 454.605 908.367 443.908Z" fill="#FFC6AD"/><path fill-rule="evenodd" clip-rule="evenodd" d="M967.564 350.519V347.572H1004.55C1007.1 347.572 1009.16 349.64 1009.16 352.191V352.193C1009.16 354.745 1007.1 356.812 1004.55 356.812H973.852C970.38 356.812 967.564 353.995 967.564 350.519Z" fill="#FFC6AD"/><path fill-rule="evenodd" clip-rule="evenodd" d="M961.277 361.73L935.115 370.756L942.141 352.374L985.844 348.07L988.366 351.693C988.342 353.394 989.354 356.059 989.354 356.059L961.277 361.73Z" fill="#FFC6AD"/><path fill-rule="evenodd" clip-rule="evenodd" d="M942.141 352.374C944.343 346.665 948.461 343.165 952.863 343.262L969.967 343.637C971.684 343.674 973.036 345.769 972.989 348.318C972.942 350.873 971.509 352.918 969.789 352.885L942.141 352.374Z" fill="#FFC6AD"/><path fill-rule="evenodd" clip-rule="evenodd" d="M964.005 361.265C962.028 367.481 955.393 370.917 949.185 368.937C942.976 366.958 939.546 360.312 941.523 354.096C943.5 347.879 950.135 344.444 956.343 346.423C962.552 348.403 965.982 355.048 964.005 361.265Z" fill="#FFC6AD"/><path fill-rule="evenodd" clip-rule="evenodd" d="M820.316 987.535H775.978L775.12 935.889H820.316V987.535Z" fill="#232144"/><path fill-rule="evenodd" clip-rule="evenodd" d="M847.134 359.385V329.095L800.508 328.549V359.385C800.508 372.279 810.945 382.732 823.821 382.732C836.697 382.732 847.134 372.279 847.134 359.385Z" fill="#F5B091"/><path fill-rule="evenodd" clip-rule="evenodd" d="M836.67 333.391C837.571 318.419 859.202 307.545 859.202 307.545C859.202 307.545 879.372 320.944 878.47 335.916C877.568 350.887 855.937 361.76 855.937 361.76C855.937 361.76 835.769 348.362 836.67 333.391Z" fill="#FF6200"/><path fill-rule="evenodd" clip-rule="evenodd" d="M836.632 371.879C836.632 356.881 857.57 344.723 857.57 344.723C857.57 344.723 878.508 356.881 878.508 371.879C878.508 386.878 857.57 399.037 857.57 399.037C857.57 399.037 836.632 386.878 836.632 371.879Z" fill="#FF6200"/><path fill-rule="evenodd" clip-rule="evenodd" d="M845.479 306.984C845.479 301.764 849.704 297.533 854.917 297.533C860.128 297.533 864.353 301.764 864.353 306.984C864.353 312.204 860.128 316.434 854.917 316.434C849.704 316.434 845.479 312.204 845.479 306.984Z" fill="#FFC6AD"/><path fill-rule="evenodd" clip-rule="evenodd" d="M787.62 320.506V277.949C787.62 265.375 797.799 255.182 810.355 255.182H838.317C850.873 255.182 861.052 265.375 861.052 277.949V320.506H787.62Z" fill="#FF6200"/><path fill-rule="evenodd" clip-rule="evenodd" d="M855.532 324.513V281.498C855.532 267.565 844.249 256.27 830.33 256.27H818.341C804.423 256.27 793.139 267.565 793.139 281.498V324.513C793.139 338.446 804.423 349.741 818.341 349.741H830.33C844.249 349.741 855.532 338.446 855.532 324.513Z" fill="#FFC6AD"/><path fill-rule="evenodd" clip-rule="evenodd" d="M833.787 308.125C833.787 308.125 836.066 303.318 840.387 301.851C844.709 300.383 849.437 302.81 849.437 302.81C849.437 302.81 847.158 307.616 842.837 309.084C838.516 310.552 833.787 308.125 833.787 308.125Z" fill="white"/><path fill-rule="evenodd" clip-rule="evenodd" d="M846.62 306.392C847.241 304.603 846.296 302.648 844.508 302.027C842.722 301.405 840.771 302.352 840.15 304.141C839.529 305.931 840.475 307.885 842.261 308.507C844.047 309.128 845.999 308.181 846.62 306.392Z" fill="black"/><path fill-rule="evenodd" clip-rule="evenodd" d="M834.682 308.732L832.894 307.515C839.315 298.046 846.91 300.209 849.878 301.58L848.972 303.547C845.91 302.132 839.978 300.925 834.682 308.732Z" fill="black"/><path fill-rule="evenodd" clip-rule="evenodd" d="M787.62 341.062V278.813C787.62 266.32 797.733 256.193 810.209 256.193H828.148C832.207 256.193 836.239 266.329 825.008 277.577C812.054 290.549 792.849 293.65 801.118 306.789C815.99 330.417 797.666 341.062 797.666 341.062H787.62Z" fill="#FF6200"/><path fill-rule="evenodd" clip-rule="evenodd" d="M799.531 295.146H821.565V287.936H799.531V295.146Z" fill="#FF6200"/><path fill-rule="evenodd" clip-rule="evenodd" d="M830.416 289.978H852.45V282.768H830.416V289.978Z" fill="#200E0F"/><path fill-rule="evenodd" clip-rule="evenodd" d="M825.712 320.74C825.59 320.74 825.465 320.736 825.335 320.729C824.459 320.673 823.736 320.16 823.098 319.707C821.896 318.856 821.171 318.341 819.612 319.902L818.43 318.719C820.987 316.158 822.839 317.47 824.065 318.341C824.565 318.696 825.038 319.031 825.438 319.056C826.641 319.126 827.118 318.728 827.675 318.264C828.866 317.269 829.945 316.706 833.008 318.529L832.154 319.969C829.871 318.61 829.472 318.945 828.746 319.55C828.138 320.058 827.322 320.74 825.712 320.74Z" fill="black"/><path fill-rule="evenodd" clip-rule="evenodd" d="M826.82 332.939C824.473 331.948 825.394 328.295 823.185 327.591C821.181 326.952 821.298 328.506 819.525 327.941C817.873 327.415 818.156 326.175 816.271 325.481C814.578 324.856 813.085 328.174 810.742 327.861C810.576 327.839 813.192 333.27 817.202 334.548C821.21 335.826 827.241 333.117 826.82 332.939Z" fill="#9E3F39"/><path fill-rule="evenodd" clip-rule="evenodd" d="M817.149 307.925C817.149 307.925 814.87 303.119 810.549 301.651C806.228 300.183 801.499 302.611 801.499 302.611C801.499 302.611 803.778 307.417 808.099 308.885C812.42 310.352 817.149 307.925 817.149 307.925Z" fill="white"/><path fill-rule="evenodd" clip-rule="evenodd" d="M808.774 307.05C808.153 305.261 809.098 303.307 810.885 302.685C812.671 302.063 814.623 303.01 815.244 304.8C815.865 306.589 814.919 308.543 813.133 309.165C811.346 309.787 809.395 308.839 808.774 307.05Z" fill="black"/><path fill-rule="evenodd" clip-rule="evenodd" d="M816.255 308.534C810.957 300.723 805.027 301.933 801.964 303.35L801.059 301.383C804.027 300.013 811.618 297.847 818.043 307.318L816.255 308.534Z" fill="black"/><path fill-rule="evenodd" clip-rule="evenodd" d="M818.914 331.045C818.841 331.1 818.785 331.151 818.748 331.185C818.407 331.515 818.231 331.936 818.322 332.21C818.415 332.492 818.823 332.601 819.088 332.642C819.394 332.615 819.746 332.523 819.806 332.236C819.872 331.908 819.595 331.364 819.123 331.126C819.054 331.098 818.983 331.069 818.914 331.045ZM818.462 333.606C817.679 333.357 817.396 332.858 817.295 332.549C817.107 331.981 817.274 331.296 817.718 330.718C817.181 330.613 816.638 330.552 816.079 330.489C814.29 330.289 812.436 330.084 810.414 328.226L811.145 327.428C812.907 329.045 814.507 329.224 816.201 329.413C817.033 329.507 817.886 329.602 818.78 329.865C819.353 329.598 819.971 329.569 820.578 329.739C821.846 329.8 822.744 330.41 823.693 331.056C824.675 331.725 825.689 332.413 827.293 332.633L827.148 333.705C825.293 333.455 824.121 332.657 823.085 331.952C822.177 331.334 821.459 330.842 820.464 330.819L820.401 330.817C820.789 331.305 820.975 331.913 820.864 332.453C820.791 332.809 820.473 333.641 819.104 333.727L819 333.723C818.798 333.697 818.62 333.657 818.462 333.606Z" fill="#200E0F"/><path fill-rule="evenodd" clip-rule="evenodd" d="M861.022 308.853V282.17C861.022 267.538 849.172 255.676 834.554 255.676H826.882V282.357C826.882 296.991 838.732 308.853 853.35 308.853H861.022Z" fill="#FF6200"/><path fill-rule="evenodd" clip-rule="evenodd" d="M1008.85 350.401H959.607C954.995 350.401 951.256 346.659 951.256 342.042V338.936H1017.44V341.799C1017.44 346.55 1013.59 350.401 1008.85 350.401Z" fill="#F99F5B"/><path fill-rule="evenodd" clip-rule="evenodd" d="M959.849 320.432H1009.09C1013.7 320.432 1017.44 324.174 1017.44 328.791V331.897H951.255V329.034C951.255 324.283 955.103 320.432 959.849 320.432Z" fill="#F99F5B"/><path fill-rule="evenodd" clip-rule="evenodd" d="M951.255 331.847H1017.44V329.4H951.255V331.847Z" fill="#FED4B0"/><path fill-rule="evenodd" clip-rule="evenodd" d="M951.255 341.282H1017.44V338.836H951.255V341.282Z" fill="#FED4B0"/><path fill-rule="evenodd" clip-rule="evenodd" d="M1019.91 347.254C1018.55 347.254 1017.44 346.147 1017.44 344.781V337.979C1017.44 336.613 1018.55 335.506 1019.91 335.506C1021.28 335.506 1022.38 336.613 1022.38 337.979V344.781C1022.38 346.147 1021.28 347.254 1019.91 347.254Z" fill="#E73245"/><path fill-rule="evenodd" clip-rule="evenodd" d="M1019.91 398.166C1018.73 398.166 1017.78 397.21 1017.78 396.03V390.157C1017.78 388.978 1018.73 388.021 1019.91 388.021C1021.09 388.021 1022.05 388.978 1022.05 390.157V396.03C1022.05 397.21 1021.09 398.166 1019.91 398.166Z" fill="#E73245"/><path fill-rule="evenodd" clip-rule="evenodd" d="M955.153 338.749V338.748C955.153 337.382 956.26 336.273 957.625 336.273H981.696C983.061 336.273 984.168 337.382 984.168 338.748V338.749C984.168 340.115 983.061 341.223 981.696 341.223H957.625C956.26 341.223 955.153 340.115 955.153 338.749Z" fill="#E73245"/><path fill-rule="evenodd" clip-rule="evenodd" d="M598.553 342.039L609.256 343.508L607.148 358.902C606.743 361.86 604.018 363.93 601.063 363.525C598.108 363.119 596.041 360.392 596.446 357.434L598.553 342.039Z" fill="#FFC6AD"/><path fill-rule="evenodd" clip-rule="evenodd" d="M647.611 342.087L623.171 357.588L606.22 330.785L612.374 326.882C614.311 325.653 616.986 325.789 619.745 327.257L647.611 342.087Z" fill="#FFC6AD"/><path fill-rule="evenodd" clip-rule="evenodd" d="M604.454 355.749L615.33 348.914L625.114 364.526L622.375 366.247C621.513 366.789 620.214 366.544 618.794 365.572L604.454 355.749Z" fill="#F5B091"/><path fill-rule="evenodd" clip-rule="evenodd" d="M647.611 342.086L677.216 386.761L661.97 396.975L629.938 352.735L647.611 342.086Z" fill="#FFC6AD"/><path fill-rule="evenodd" clip-rule="evenodd" d="M608.208 358.51L599.971 345.366C597.272 341.06 598.571 335.381 602.87 332.678L606.306 330.518L619.43 351.457L608.208 358.51Z" fill="#9E3F39"/><path fill-rule="evenodd" clip-rule="evenodd" d="M628.047 347.297L652.662 356.994L652.095 358.44C649.09 366.088 640.46 369.849 632.82 366.838L622.039 362.59L628.047 347.297Z" fill="#FFC6AD"/><path fill-rule="evenodd" clip-rule="evenodd" d="M605.417 306.021L628.833 343.293C629.538 344.416 629.2 345.9 628.079 346.607L606.005 360.514C604.883 361.222 603.4 360.884 602.694 359.759L579.278 322.487C578.572 321.363 578.909 319.88 580.031 319.173L602.105 305.266C603.227 304.559 604.71 304.897 605.417 306.021Z" fill="#FF6200"/><path fill-rule="evenodd" clip-rule="evenodd" d="M598.001 314.431L601.301 312.352C601.605 312.161 602.005 312.252 602.195 312.555L605.396 317.652C605.586 317.954 605.496 318.355 605.193 318.545L601.892 320.625C601.59 320.815 601.19 320.724 600.999 320.421L597.797 315.325C597.607 315.022 597.699 314.621 598.001 314.431Z" fill="#F2F2F2"/><path fill-rule="evenodd" clip-rule="evenodd" d="M604.169 319.349L604.332 319.246L602.37 316.116L603.937 315.131L603.835 314.967L602.267 315.953L600.305 312.822L600.142 312.925L602.104 316.055L600.965 316.772L599.003 313.641L598.84 313.743L600.802 316.875L599.234 317.859L599.336 318.022L600.903 317.038L602.865 320.168L603.029 320.065L601.067 316.935L602.207 316.219L604.169 319.349Z" fill="#FF6200"/><path fill-rule="evenodd" clip-rule="evenodd" d="M599.527 316.881L602.62 314.932L603.44 316.236L600.347 318.185L599.527 316.881Z" fill="#F2F2F2"/><path fill-rule="evenodd" clip-rule="evenodd" d="M602.595 315.046L599.64 316.907L600.373 318.073L603.327 316.211L602.595 315.046ZM599.415 316.856L602.646 314.82L603.553 316.262L600.322 318.299L599.415 316.856Z" fill="#FF6200"/><path fill-rule="evenodd" clip-rule="evenodd" d="M605.957 321.141C606.05 321.162 606.108 321.255 606.087 321.348C605.873 322.282 604.946 322.865 604.013 322.651C603.92 322.63 603.862 322.537 603.883 322.444C603.905 322.351 603.997 322.292 604.09 322.314C604.836 322.485 605.579 322.018 605.75 321.271C605.771 321.178 605.864 321.12 605.957 321.141Z" fill="#F2F2F2"/><path fill-rule="evenodd" clip-rule="evenodd" d="M606.606 321.6C606.699 321.621 606.757 321.714 606.736 321.807C606.469 322.973 605.309 323.703 604.144 323.436C604.051 323.414 603.993 323.321 604.014 323.228C604.036 323.135 604.128 323.077 604.221 323.098C605.2 323.323 606.175 322.71 606.399 321.73C606.42 321.637 606.513 321.579 606.606 321.6Z" fill="#F2F2F2"/><path fill-rule="evenodd" clip-rule="evenodd" d="M607.258 322.055C607.351 322.076 607.41 322.169 607.388 322.262C607.068 323.667 605.671 324.544 604.269 324.222C604.176 324.201 604.118 324.108 604.139 324.015C604.161 323.922 604.253 323.864 604.346 323.885C605.562 324.164 606.773 323.403 607.051 322.185C607.073 322.092 607.165 322.034 607.258 322.055Z" fill="#F2F2F2"/><path fill-rule="evenodd" clip-rule="evenodd" d="M607.796 322.622C607.89 322.643 607.948 322.736 607.927 322.829C607.579 324.351 606.065 325.304 604.544 324.955C604.45 324.934 604.392 324.841 604.414 324.748C604.435 324.655 604.528 324.596 604.621 324.618C605.956 324.924 607.285 324.088 607.589 322.752C607.611 322.659 607.703 322.6 607.796 322.622Z" fill="#F2F2F2"/><path fill-rule="evenodd" clip-rule="evenodd" d="M632.923 355.417L628.927 365.468L603.836 355.464C601.065 354.359 599.713 351.215 600.816 348.441V348.439C601.92 345.664 605.063 344.309 607.834 345.414L632.923 355.417Z" fill="#FFC6AD"/><path fill-rule="evenodd" clip-rule="evenodd" d="M1012.44 1020C1008.09 1009.08 999.426 1008.87 999.426 1008.87C1024.04 988.045 1003.01 929.51 1003.01 929.51L1047.1 916.541L979.895 936.31L955.956 947.667L941.465 1000.66L990.044 1020H1012.44Z" fill="#A8A8A8"/><path fill-rule="evenodd" clip-rule="evenodd" d="M913.474 1005.53C909.331 1006.12 899.27 1005.53 898.679 1010.87C898.087 1016.2 904.005 1020.94 911.699 1019.76C919.391 1018.57 931.82 1015.61 931.82 1015.61" fill="#C6C6C6"/><path fill-rule="evenodd" clip-rule="evenodd" d="M929.094 1020H990.579C990.342 1014.56 981.471 1007.71 981.471 1007.71C989.871 983.313 966.456 971.64 966.456 971.64C964.356 958.602 974.856 935.469 974.856 942.619C974.856 949.769 982.416 959.023 982.416 959.023L1025.15 1020H1048.65C1048.05 1011.97 1039.54 1011.2 1039.54 1011.2L1030.3 974.165L1028 961.201L1056.83 1020H1079C1078.84 1012 1070.62 1010.34 1070.62 1010.34L1047.1 916.54C1047.1 916.54 1050.28 913.44 1052.56 900.558C1056.25 879.639 1054.62 858.159 1052.26 844.24L1048.9 831.193C1047.46 826.198 1046.26 822.624 1046.26 822.624C1046.26 822.624 1049.78 821.781 1050.46 817.276C1051.41 810.981 1037.86 790.777 1037.86 790.777C1037.86 790.777 1028.2 782.786 1017.28 777.434C1006.36 772.081 1001.32 781.104 1001.32 781.104C1001.32 781.104 979.896 775.215 972.756 773.953C965.616 772.691 963.516 778.159 963.516 778.159L960.576 800.452L996.152 830.641V842.061L991.656 861.44L958.055 895.51C941.103 901.191 929.229 908.885 920.36 916.876C883.899 949.73 901.145 984.259 906.395 994.775C915.454 1012.92 928.628 1019.76 929.094 1020Z" fill="#C6C6C6"/><path fill-rule="evenodd" clip-rule="evenodd" d="M1028.6 827.795C1023.6 827.795 1020.5 826.576 1019.35 824.149C1017.09 819.389 1028.69 800.131 1031.04 796.318L1032.88 797.455C1027.29 806.518 1020.01 820.505 1021.3 823.218C1023.37 827.577 1037.77 825.116 1046.27 822.583L1046.92 824.644C1046.69 824.715 1040.87 826.466 1034.74 827.318C1032.45 827.636 1030.4 827.795 1028.6 827.795Z" fill="#A8A8A8"/><path fill-rule="evenodd" clip-rule="evenodd" d="M1012.53 791.671C1012.53 793.553 1011.01 795.079 1009.13 795.079C1007.25 795.079 1005.73 793.553 1005.73 791.671C1005.73 789.79 1007.25 788.264 1009.13 788.264C1011.01 788.264 1012.53 789.79 1012.53 791.671Z" fill="black"/><path fill-rule="evenodd" clip-rule="evenodd" d="M975.352 780.101C975.352 783.723 972.42 786.659 968.804 786.659C965.187 786.659 962.255 783.723 962.255 780.101C962.255 776.479 965.187 773.543 968.804 773.543C972.42 773.543 975.352 776.479 975.352 780.101Z" fill="black"/><path fill-rule="evenodd" clip-rule="evenodd" d="M996.151 830.604C996.151 830.604 1021.18 839.504 1048.9 831.157L1052.26 844.02C1052.26 844.02 1012.53 853.264 996.151 841.842V830.604Z" fill="#7070FF"/><path fill-rule="evenodd" clip-rule="evenodd" d="M1010.87 778.687H1009.83C1008.61 778.687 1007.62 777.695 1007.62 776.472V772.397C1007.62 771.174 1008.61 770.184 1009.83 770.184H1010.87C1012.1 770.184 1013.09 771.174 1013.09 772.397V776.472C1013.09 777.695 1012.1 778.687 1010.87 778.687Z" fill="#E73245"/><path fill-rule="evenodd" clip-rule="evenodd" d="M1003.86 775.949C1003.86 774.438 1005.09 773.211 1006.6 773.211H1014.11C1015.62 773.211 1016.84 774.437 1016.84 775.948C1016.84 777.46 1015.62 778.687 1014.11 778.687H1006.6C1005.09 778.687 1003.86 777.461 1003.86 775.949Z" fill="#E73245"/></svg>