<svg viewBox="0 0 1600 1200" fill="none" xmlns="http://www.w3.org/2000/svg"><path fill-rule="evenodd" clip-rule="evenodd" d="M930.552 441.615L909.391 447.227L912.908 460.485C916.107 472.547 928.462 479.74 940.526 476.58L930.552 441.615Z" fill="#F7931E"/><path fill-rule="evenodd" clip-rule="evenodd" d="M1113.64 426.592C1110.19 426.684 1108.24 429.219 1108.09 431.682C1107.96 433.67 1109.08 436.179 1112.62 436.701L1112.67 436.711C1114.05 437.018 1115.38 437.12 1116.64 437.023C1118.34 434.505 1119.08 431.592 1118.37 429.519C1117.75 427.737 1116.12 426.726 1113.64 426.592ZM1107.38 443.915C1105.52 443.915 1103.64 443.452 1101.8 442.516L1102.49 441.173C1106.52 443.232 1110.84 442.669 1114.34 439.627C1114.73 439.292 1115.09 438.934 1115.44 438.557C1114.44 438.542 1113.42 438.419 1112.37 438.188C1108.13 437.551 1106.41 434.417 1106.58 431.588C1106.78 428.432 1109.26 425.184 1113.63 425.083H1113.66L1113.69 425.084C1116.8 425.244 1118.97 426.645 1119.79 429.026C1120.55 431.228 1120.04 434.08 1118.61 436.699C1122.04 435.814 1124.85 433.312 1126.67 429.384C1129.85 422.535 1129.18 412.018 1122.54 406.971L1123.45 405.771C1130.69 411.272 1131.46 422.64 1128.04 430.019C1125.78 434.882 1122.01 437.819 1117.49 438.437C1116.86 439.275 1116.14 440.063 1115.33 440.766C1112.93 442.852 1110.19 443.915 1107.38 443.915Z" fill="#E73245"/><path fill-rule="evenodd" clip-rule="evenodd" d="M946.753 404.95L982.49 369.216C986.502 365.205 993.36 368.045 993.36 373.717V404.95H946.753Z" fill="#F7931E"/><path fill-rule="evenodd" clip-rule="evenodd" d="M991.553 497.566H1039.39L1060.99 496.755C1085.21 492.425 1103.59 471.26 1103.59 445.801C1103.59 417.213 1080.41 394.037 1051.82 394.037H1010.73L976.207 394.087C950.046 395.196 928.908 415.716 926.835 441.615C926.835 441.615 925.187 464.221 936.81 476.58C944.697 487.227 956.573 494.741 970.229 496.916L991.553 497.566Z" fill="#FBB03B"/><path fill-rule="evenodd" clip-rule="evenodd" d="M942.727 428.79C942.727 426.566 944.53 424.764 946.753 424.764C948.976 424.764 950.78 426.566 950.78 428.79C950.78 431.014 948.976 432.816 946.753 432.816C944.53 432.816 942.727 431.014 942.727 428.79Z" fill="black"/><path fill-rule="evenodd" clip-rule="evenodd" d="M1015.13 400.455C1015.13 399.239 1016.11 398.252 1017.33 398.252H1039.06C1040.28 398.252 1041.26 399.237 1041.26 400.454C1041.26 401.67 1040.28 402.657 1039.06 402.657H1017.33C1016.11 402.657 1015.13 401.671 1015.13 400.455Z" fill="#F7931E"/><path fill-rule="evenodd" clip-rule="evenodd" d="M1011.06 394.306V375.252C1011.06 369.565 1004.18 366.717 1000.16 370.738L976.54 394.356" fill="#FBB03B"/><path fill-rule="evenodd" clip-rule="evenodd" d="M1005.97 426.625L1005.98 426.742C1006.46 426.501 1007 426.379 1007.56 426.381C1007.63 426.381 1007.7 426.388 1007.77 426.39L1007.72 426.317C1018.64 425.05 1024.46 420.55 1027.45 416.925C1022.08 414.567 1011.37 411.606 1004.15 421.087C1004.15 421.087 989.474 417.835 983.926 437.09C983.926 437.09 984.008 437.165 984.16 437.298C987.139 436.382 998.725 432.569 1005.97 426.625Z" fill="#E73245"/><path fill-rule="evenodd" clip-rule="evenodd" d="M1013.68 430.988C1013.3 431.444 1012.92 431.882 1012.47 432.311C1012.45 432.327 1012.43 432.343 1012.41 432.358C1012.3 432.498 1012.24 432.578 1012.24 432.578L1012.21 432.535C1010.85 433.701 1008.71 434.67 1006.9 434.761L1006.9 434.811C1006.9 434.811 993.974 434.452 990.48 441.798C1000.15 447.462 1018.24 452.948 1028.89 424.313C1021.46 424.286 1016.1 428.578 1013.68 430.988Z" fill="#E73245"/><path fill-rule="evenodd" clip-rule="evenodd" d="M980.452 462.014L980.363 462.093C980.842 462.35 981.25 462.717 981.574 463.175C981.613 463.231 981.649 463.292 981.687 463.349L981.716 463.264C989.07 471.44 996.108 473.586 1000.79 473.926C999.61 468.182 995.825 457.729 983.916 457.327C983.916 457.327 978.075 443.476 959.164 450.094C959.164 450.094 959.149 450.204 959.128 450.405C961.6 452.304 971.415 459.548 980.452 462.014Z" fill="#E73245"/><path fill-rule="evenodd" clip-rule="evenodd" d="M981.356 470.829C980.768 470.79 980.189 470.729 979.578 470.61C979.555 470.606 979.531 470.597 979.507 470.592C979.328 470.579 979.227 470.575 979.227 470.575L979.244 470.525C977.508 470.097 975.482 468.911 974.357 467.485L974.321 467.518C974.321 467.518 967.13 456.764 959.118 458.165C960.096 469.33 966.091 487.262 995.604 479.376C991.327 473.3 984.721 471.41 981.356 470.829Z" fill="#E73245"/><path fill-rule="evenodd" clip-rule="evenodd" d="M830.962 537.629L886.814 714.273L941.521 682.914L902.059 454.555L830.962 537.629Z" fill="#D96B55"/><path fill-rule="evenodd" clip-rule="evenodd" d="M619.872 537.629L530.458 866.604L481.211 858.321L548.776 454.555L619.872 537.629Z" fill="#F5836D"/><path fill-rule="evenodd" clip-rule="evenodd" d="M529.491 854.822L537.396 907.846L470 899.021L483.267 848.148L529.491 854.822Z" fill="#F5836D"/><path fill-rule="evenodd" clip-rule="evenodd" d="M549.428 948.655C544.531 951.462 538.286 949.768 535.479 944.873L504.987 891.689L522.717 881.525L553.21 934.712C556.016 939.607 554.322 945.849 549.428 948.655Z" fill="#F5836D"/><path fill-rule="evenodd" clip-rule="evenodd" d="M538.804 988.863C534.956 992.989 528.492 993.215 524.365 989.367L491.486 958.565L505.317 943.666L538.299 974.42C542.427 978.268 542.653 984.736 538.804 988.863Z" fill="#F5836D"/><path fill-rule="evenodd" clip-rule="evenodd" d="M541.384 978.518C536.963 982.028 530.534 981.289 527.025 976.87L498.981 941.555L514.986 928.848L543.032 964.166C546.54 968.584 545.802 975.009 541.384 978.518Z" fill="#F5836D"/><path fill-rule="evenodd" clip-rule="evenodd" d="M470.022 898.866L489.255 891.959L510.721 951.716L491.488 958.625L470.022 898.866Z" fill="#F5836D"/><path fill-rule="evenodd" clip-rule="evenodd" d="M479.072 895.242L497.894 887.283L522.627 945.765L503.805 953.724L479.072 895.242Z" fill="#F5836D"/><path fill-rule="evenodd" clip-rule="evenodd" d="M522.361 922.134C522.361 922.134 518.42 913.561 516.811 911.011C513.473 905.721 507.679 909.405 509.551 914.333C510.752 917.494 515.307 927.677 518.229 935.365C505.36 921.912 481.212 903.971 481.212 903.971L520.359 893.027L522.361 922.134Z" fill="#F5836D"/><path fill-rule="evenodd" clip-rule="evenodd" d="M599.914 675.735L594.221 415.27H851.104L847.422 675.735H599.914Z" fill="#232144"/><path fill-rule="evenodd" clip-rule="evenodd" d="M534.815 482C532.238 447.82 557.86 418.024 592.043 415.448C626.226 412.872 656.024 438.491 658.601 472.671C661.177 506.85 619.44 559.537 619.44 559.537C619.44 559.537 537.392 516.18 534.815 482Z" fill="#232144"/><path fill-rule="evenodd" clip-rule="evenodd" d="M660.955 232.301C661.15 260.989 684.567 284.088 713.259 283.893C741.95 283.698 765.05 260.283 764.855 231.594C764.659 202.905 741.243 179.806 712.552 180.001C683.86 180.197 660.759 203.612 660.955 232.301Z" fill="#191414"/><path fill-rule="evenodd" clip-rule="evenodd" d="M615.295 283.152C615.459 307.262 635.138 326.672 659.249 326.508C683.36 326.345 702.773 306.667 702.609 282.558C702.444 258.449 682.766 239.038 658.655 239.202C634.544 239.366 615.131 259.043 615.295 283.152Z" fill="#191414"/><path fill-rule="evenodd" clip-rule="evenodd" d="M593.615 372.757L593.601 372.76L593.596 372.734C584.743 334.193 608.818 295.774 647.369 286.921L647.383 286.918L647.388 286.944C656.241 325.485 632.166 363.904 593.615 372.757Z" fill="#191414"/><path fill-rule="evenodd" clip-rule="evenodd" d="M801.988 332.085C801.988 342.146 793.831 350.303 783.767 350.303C773.705 350.303 765.548 342.146 765.548 332.085C765.548 322.024 773.705 313.867 783.767 313.867C793.831 313.867 801.988 322.024 801.988 332.085Z" fill="#F5836D"/><path fill-rule="evenodd" clip-rule="evenodd" d="M678.357 332.032C678.357 342.094 670.2 350.25 660.137 350.25C650.074 350.25 641.917 342.094 641.917 332.032C641.917 321.971 650.074 313.814 660.137 313.814C670.2 313.814 678.357 321.971 678.357 332.032Z" fill="#F5836D"/><path fill-rule="evenodd" clip-rule="evenodd" d="M665.707 352.83C665.707 345.707 659.931 339.932 652.807 339.932C645.682 339.932 639.907 345.707 639.907 352.83V388.431H665.707V352.83Z" fill="#463EC5"/><path fill-rule="evenodd" clip-rule="evenodd" d="M803.699 352.83C803.699 345.707 797.923 339.932 790.799 339.932C783.675 339.932 777.899 345.707 777.899 352.83V388.431H803.699V352.83Z" fill="#463EC5"/><path fill-rule="evenodd" clip-rule="evenodd" d="M676.984 434.322V375.931L767.006 373.316V434.322C767.006 459.179 746.854 479.33 721.995 479.33C697.136 479.33 676.984 459.179 676.984 434.322Z" fill="#D96B55"/><path fill-rule="evenodd" clip-rule="evenodd" d="M662.332 367.476V283.449C662.332 256.893 683.865 235.367 710.428 235.367H733.562C760.125 235.367 781.658 256.893 781.658 283.449V367.476C781.658 394.03 760.125 415.557 733.562 415.557H710.428C683.865 415.557 662.332 394.03 662.332 367.476Z" fill="#F5836D"/><path fill-rule="evenodd" clip-rule="evenodd" d="M707.34 359.609C707.34 359.609 707.34 359.608 706.387 358.887C705.433 358.167 705.434 358.166 705.434 358.166L705.435 358.165L705.437 358.162L705.441 358.156L705.455 358.138C705.467 358.124 705.482 358.104 705.501 358.081C705.538 358.034 705.591 357.97 705.659 357.892C705.793 357.736 705.987 357.524 706.233 357.285C706.719 356.812 707.437 356.209 708.333 355.743C709.232 355.274 710.353 354.922 711.614 355.023C712.892 355.127 714.195 355.688 715.449 356.846L715.45 356.847C716.827 358.122 718.408 359.06 720.13 359.408M707.34 359.609L707.339 359.61L707.34 359.609ZM707.339 359.61L707.338 359.611L707.339 359.61ZM707.338 359.611C707.338 359.611 707.338 359.611 707.338 359.611L707.338 359.611ZM707.338 359.611L707.341 359.607L707.338 359.611ZM707.341 359.607C707.345 359.602 707.352 359.593 707.363 359.58L707.341 359.607ZM707.363 359.58C707.385 359.553 707.42 359.51 707.468 359.454L707.363 359.58ZM707.468 359.454C707.564 359.343 707.71 359.182 707.899 358.999L707.468 359.454ZM707.899 358.999C708.282 358.627 708.813 358.187 709.438 357.862L707.899 358.999ZM709.438 357.862C710.059 357.538 710.729 357.35 711.422 357.406L709.438 357.862ZM711.422 357.406C712.097 357.46 712.911 357.756 713.826 358.601L711.422 357.406ZM713.826 358.601C715.431 360.087 717.393 361.293 719.656 361.751L719.656 361.751C721.411 362.106 723.556 362.127 725.611 361.07L725.614 361.068C726.474 360.622 727.203 360.011 727.821 359.347L727.821 359.347L727.827 359.341C728.264 358.864 729.192 358.033 730.445 357.77C731.604 357.526 733.299 357.714 735.464 359.756L737.105 358.018C734.478 355.54 732.012 354.998 729.953 355.431C727.992 355.843 726.648 357.091 726.068 357.721C725.587 358.237 725.072 358.656 724.515 358.945C723.099 359.673 721.553 359.696 720.13 359.409" fill="#191414"/><path fill-rule="evenodd" clip-rule="evenodd" d="M722.111 379.584C722.111 374.487 714.295 375.167 714.295 375.167H696.626C696.798 374.172 721.584 413.086 747.597 375.167H729.927C729.927 375.167 722.111 374.487 722.111 379.584Z" fill="#E73245"/><path fill-rule="evenodd" clip-rule="evenodd" d="M691.223 302.073L690.489 302.074C682.833 302.111 675.641 305.933 671.059 312.398L710.755 312.213C706.099 305.79 698.879 302.035 691.223 302.073Z" fill="#191414"/><path fill-rule="evenodd" clip-rule="evenodd" d="M752.781 301.378L752.047 301.405C744.398 301.708 737.343 305.778 732.988 312.398L772.654 310.833C767.778 304.575 760.431 301.074 752.781 301.378Z" fill="#191414"/><path fill-rule="evenodd" clip-rule="evenodd" d="M706.043 336.459C706.043 336.459 701.689 327.132 693.33 324.229C684.97 321.324 675.771 325.944 675.771 325.944C675.771 325.944 679.114 333.551 687.474 336.454C695.834 339.358 706.043 336.459 706.043 336.459Z" fill="white"/><path fill-rule="evenodd" clip-rule="evenodd" d="M696.977 330.059C696.977 334.054 693.737 337.293 689.742 337.293C685.746 337.293 682.506 334.054 682.506 330.059C682.506 326.064 685.746 322.824 689.742 322.824C693.737 322.824 696.977 326.064 696.977 330.059Z" fill="#010101"/><path fill-rule="evenodd" clip-rule="evenodd" d="M706.044 336.457C703.888 321.542 685.031 315.172 673.439 322.178C674.152 323.313 675.507 325.62 676.218 326.755C678.781 325.206 692.091 319.828 704.184 334.32C704.917 335.2 705.011 335.57 706.044 336.457Z" fill="#010101"/><path fill-rule="evenodd" clip-rule="evenodd" d="M735.499 336.604C735.499 336.604 739.853 327.277 748.211 324.373C756.571 321.468 765.77 326.088 765.77 326.088C765.77 326.088 762.427 333.695 754.067 336.599C745.707 339.502 735.499 336.604 735.499 336.604Z" fill="white"/><path fill-rule="evenodd" clip-rule="evenodd" d="M743.399 330.508C743.399 334.503 746.639 337.743 750.634 337.743C754.63 337.743 757.87 334.503 757.87 330.508C757.87 326.513 754.63 323.273 750.634 323.273C746.639 323.273 743.399 326.513 743.399 330.508Z" fill="#010101"/><path fill-rule="evenodd" clip-rule="evenodd" d="M735.498 336.599C737.653 321.685 756.51 315.314 768.102 322.32C767.389 323.455 766.034 325.762 765.323 326.898C762.76 325.349 749.45 319.971 737.357 334.463C736.624 335.342 736.53 335.712 735.498 336.599Z" fill="#010101"/><path fill-rule="evenodd" clip-rule="evenodd" d="M663.032 334.64V313.102C663.032 286.544 684.31 265.015 710.558 265.015H718.479H725.51H733.431C759.679 265.015 780.958 286.544 780.958 313.102V334.64H790.279V283.063C790.279 254.284 766.946 230.953 738.165 230.953H705.825C677.043 230.953 653.711 254.284 653.711 283.063V334.64H663.032Z" fill="#191414"/><path fill-rule="evenodd" clip-rule="evenodd" d="M910.946 482C913.523 447.82 887.901 418.024 853.718 415.448C819.536 412.872 789.737 438.491 787.16 472.671C784.585 506.85 826.321 559.537 826.321 559.537C826.321 559.537 908.37 516.18 910.946 482Z" fill="#232144"/><path fill-rule="evenodd" clip-rule="evenodd" d="M731.5 934.7C731.5 934.7 897.69 936.845 898.249 929.888C913.037 745.497 846.434 658.904 846.434 658.904H737.016H601.92C601.92 658.904 535.317 745.497 550.105 929.888C550.664 936.845 721.325 934.649 721.325 934.649" fill="#232144"/><path fill-rule="evenodd" clip-rule="evenodd" d="M672.053 344.47H772.51V333.988H672.053V344.47Z" fill="#F5836D"/><path fill-rule="evenodd" clip-rule="evenodd" d="M886.927 690.422L962.328 501.779L992.609 526.872L957.971 708.528C953.855 733.432 926.453 746.89 904.227 734.923C888.31 726.352 880.978 707.491 886.927 690.422Z" fill="#F5836D"/><path fill-rule="evenodd" clip-rule="evenodd" d="M970.36 496.35L1059.4 497.661L1029.26 531.267L975.585 529.949L961.921 511.028C958.299 504.518 962.912 496.495 970.36 496.35Z" fill="#F5836D"/><path fill-rule="evenodd" clip-rule="evenodd" d="M1100.47 444.594C1105.35 447.43 1107.01 453.682 1104.17 458.559L1081.5 497.546L1063.83 487.274L1086.5 448.29C1089.34 443.413 1095.59 441.756 1100.47 444.594Z" fill="#F5836D"/><path fill-rule="evenodd" clip-rule="evenodd" d="M1029.28 531.228L1016.98 514.411L1070.49 480.219L1081.49 497.437L1029.28 531.228Z" fill="#F5836D"/><path fill-rule="evenodd" clip-rule="evenodd" d="M690.398 278.962H694.766V251.885H690.398V278.962Z" fill="#F5836D"/><path fill-rule="evenodd" clip-rule="evenodd" d="M891.77 1020H552.982L550.045 929.484L898.274 929.568L891.77 1020Z" fill="#232144"/></svg>