<?xml version="1.0" encoding="utf-8"?><!--Generator: Adobe Illustrator 27.8.0, SVG Export Plug-In . SVG Version: 6.00 Build 0)--><svg version="1.1" xmlns="http://www.w3.org/2000/svg" xmlns:xlink="http://www.w3.org/1999/xlink" x="0px" y="0px" viewBox="0 0 1200 840" style="enable-background:new 0 0 1200 840;" xml:space="preserve"><style type="text/css">.st0{fill:#C1745F;}
	.st1{fill:#232144;}
	.st2{fill:#8B0F27;}
	.st3{fill:#4B7CFE;}
	.st4{fill:#83CBA8;}
	.st5{fill:#FDB128;}
	.st6{fill:#F99400;}
	.st7{fill:#FFFFFF;}
	.st8{fill:#430E0D;}
	.st9{fill:#A96552;}
	.st10{fill:#EA2F40;}
	.st11{fill:#F8E5CC;}</style><g id="back_leg"><polygon class="st0" points="916.18,230.02 929.6,242.95 906.63,277.49 883.65,261.19 	"/><path class="st1" d="M924.01,334.78c19.76-35.74-20.36-58.74-20.36-58.74l24.47-35.28l25.38,21.07l29.82,20.41l-6.48,9.13
		l-11.41-7.87c-0.02,0-0.04,0-0.05-0.01c-0.05-0.05-0.09-0.09-0.15-0.14c-1.45-1.05-3.47-0.72-4.51,0.73
		c-1.05,1.45-0.72,3.47,0.73,4.51c0.07,0.05,0.14,0.08,0.22,0.13l11.15,8.18l-42.56,59.14
		C930.26,356.02,915.07,350.94,924.01,334.78"/><path class="st2" d="M655.8,51.39c0,0,50.65,58.98,74.69,73.5c19.15,11.55,39.46,9.74,46.95,8.51c3.58-0.59,7.22-0.68,10.82-0.26
		c18.3,2.17,67.5,15.63,134.89,93.31l-57.3,62.52l-148.9-66.1c0,0-34.15-19.02-47.81-35.47l-23.77-20.95L655.8,51.39z"/></g><g id="planet"><circle class="st3" cx="584.45" cy="456.24" r="367.76"/><path class="st4" d="M587.21,233.13c0.97,8.81,9.79,11.53,17.38,11.92c13.67,1.15,22.66-25.6,35.69-5.06
		c8.08,11.76,14.37,48.93,35.02,37.56c5.7-3.65,14.77-8.56,14.05-16.58c0.46-14.55-4.82-35.27,8.64-47.33
		c9.5-14.3-15.37-15.66-15.71-27.43l-1.11-34.25c0.53-10.92,18.57-17.52,11.05-29.91c0-24.82,36.85-13.45,10.57,28.84
		c-4.11,6.38,22.47,51,33.12,38.44c41.25-40.15,48.39-1.3,27.2,4.65c-5.59,1.84-22.92-2.85-22.3,7.43
		c0.4,4.09-0.68,12.82,2.18,15.78c6.15,4.05,8.53,14.5-1.33,14.6c-4.38-0.66-8.11,3.09-7.37,7.4c-0.46,11.86,11.4,31.73,1.1,38.93
		c-2.96,1.21-7.47,1.71-8.48,5.33c-2.6,14.04-15.67-0.18-22.69,5.08c-9.08,6.94-19.34,21.86-32.3,13.94
		c-14.97-2.13-22.18,16.9-34.61-3.51c-9.14-13.39,12.51-19.02,0.25-34.78c-5.59-11.13-18.45-5.9-22.95,3.32
		c-7.27,6.5,7.07,31.79,7.98,38.94c4.92,17.45-23.43,13.24-26.42,27.17c-1.3,6.89-4.19,6.46-5.5,0c4.17-7.3-1.34-7.68-5.49-2.53
		c-7.22,6.95-3.21,19.04-10.62,26.59c-13.72,4.44-30.36,22.67-38.36,34.09c-2.17,2.61-5.82,3.45-8.9,2.03
		c-21.2-3.31,2.89,23.33-30.37,16.31c-26.81,6.28,23.48,36.19,22.2,47.23l-0.79,27.37c-0.51,30.91-62.5,2.91-77.39,4.44
		c-36.72-5.89-20.18,78.97-26.07,96.46c-1.2,20.48,23.22,11.47,30.96,23.96c8.91,18.79,20.63,9.29,34.87,5.23
		c31.46,3.27,34.91-4.7,51.81-28.33c7.7-9.6-3.04-25.8,8.98-33.42l27.32-19.91c12.54-9.64-1.14-37.75,24.73-34.14
		c26.17,12.91,38.14-29.46,64.27-16.09c13.38,5.2,13.39,23.41,26.33,29.11c13.34,9.75,71.63,25.67,64.6,50.25
		c3.07,8.87,10.66-13.01,12.36-14.06c2.98-4.7-4.58-8.56-7.18-11.19c-0.73-4.16,1.46-9.17,6.37-7.69c5.1,2.11,16.03,5.81,14.14-4.22
		c-2.18-9.14-37.05-9.53-42.36-16.06c-0.71-0.59-29.67-27.18-30.37-27.67c-5.26-4.85-17.4-10.79-17.02-19.32
		c3.44-38.44,41.51,10.68,51.58,18.85c2.52,3.94,32.17,9.76,36.3,11.66c11.87,2.27,11.36,20.01,13.6,28.9
		c11.35,18.73,54.87,85.42,63.51,27.19c3.59-11.36-10.04-18.16-17.43-23.52c-24.65-24.45,24.85-30.63,39.19-34.66
		c4.69-1.25,7.87-10.43,13.25-10.13c16.7,5.11-8.83,17.66-13.47,21.37c-9.61,4.9,21.25,39.49,22.22,44.78
		c2.73,6.77,33.88-3.96,38.53-3.17c7.08-0.88,2.66-13.18,11.28-11.68c0.39,0.11,0.77,0.2,1.14,0.29c5.11-24.43,7.82-49.75,7.82-75.7
		c0-8.08-0.29-16.09-0.8-24.03c-26.14,2.74-8.13,15.53-40.04,32.89c-39.85,14.11-43.02-37.75-34.73-63.72
		c9.83-33.81,37.28,0.51,55.99-12c3.97-4.02,7.89-6.81,11.79-8.64c-31.59-151.34-156.19-268.5-311.3-289.03
		C602.61,201.57,569.14,142.95,587.21,233.13z"/><path class="st4" d="M889.6,638.77c0.01,0.81-49.1,2.17-50.46,2.25c-31.91,8.58,1,40.43-54.33,43.93
		c-8.23,2.53-18.48-7.24-24.85-11.03c-14.86-5.9-45.28-9.81-60.99-14.24c-21.54-4.82-4.26-25.42-11.81-37.66
		c-13.59-31.21-36.92-14.05-61.02-9.8c-3.23,1.22-56.03,0.07-59.57,0.45c-14.6,0.31-47.33,34.87-62.33,32.72l-26.7-4.11
		c-10.13-3.7-20.49-13.74-30.22-2.58c-2.58,3.38-14.6,16.43-17.99,18.05c-31.89,11.36-33.65,16.82-37.71,49.47
		c-2.06,12.05-28.9,22.11-44.68,30.75C411.02,791.25,493.9,824,584.45,824c138.39,0,258.88-76.45,321.66-189.4
		C898.64,637.21,892.7,638.98,889.6,638.77z"/><path class="st4" d="M508.37,239.03c-8.96-10.72-25.31,27.64-30.42,30.33c-7.55,10.28,37.75,50.07,20.45,57.16
		c-9.57-0.45-8.82,9.04-8.24,15.79c-0.28,5.25-9.35,8.78-3.06,14.21c9.61,5.58,6.26,11.93-1.28,17.39
		c-9.39,25.98,53.14-5.52,61.75-6.82c4.67-1.87,10.82-25.81,6.85-29.51c-13.01-8.11-31.66-42.46-39.01-55.65
		C515.16,258.58,532.85,261.64,508.37,239.03z"/><path class="st4" d="M464.91,345.56c11.25-1.94,7.7-27.4,9.95-34.9c0.31-19.88-24.21-6.48-33.68-3.51
		c-10.24,2.34-7.23,26.12-9.36,33.29C431.13,359.54,455.43,347.83,464.91,345.56z"/></g><g id="coin"><circle class="st5" cx="398.51" cy="275.86" r="63.17"/><path class="st6" d="M376.36,323.99c-26.25-12.31-37.57-43.68-25.26-69.93s43.69-37.57,69.93-25.26
		c26.23,12.31,37.57,43.69,25.26,69.93C433.98,324.97,402.61,336.31,376.36,323.99z M419.3,232.49
		c-24.2-11.36-53.14-0.91-64.51,23.29c-11.36,24.2-0.91,53.14,23.29,64.51c24.2,11.36,53.14,0.91,64.51-23.29
		S443.5,243.86,419.3,232.49z"/><path class="st7" d="M401.28,283.95c-0.33,0.71-0.77,0.86-1.41,0.56l-10.88-5.1c-1.28,5.64,0.02,10.34,5.78,13.03
		c2.59,1.2,5.21,1.59,7.47,1.79c0.96,0.09,1.43,0.31,1.41,1.1l0.01,3.94c0,1.08-0.4,1.46-1.27,1.48c-3.6,0.18-7.73-0.62-11.79-2.53
		c-8.88-4.16-11.86-12.45-9.26-22.42l-3.82-1.77c-0.65-0.32-0.8-0.76-0.47-1.46l1.31-2.82c0.33-0.71,0.77-0.86,1.42-0.56l3.3,1.53
		l0.76-1.64c0.36-0.77,0.71-1.53,1.14-2.26l-3.01-1.4c-0.65-0.32-0.8-0.74-0.47-1.46l1.31-2.82c0.33-0.71,0.77-0.86,1.42-0.56
		l3.65,1.69c6.06-8.03,14.54-11.58,23.77-7.26c4.53,2.12,7.18,4.73,8.72,7.53c0.45,0.86,0.35,1.38-0.33,1.93l-3.05,2.22
		c-0.75,0.5-1.47,0.54-1.98-0.22c-1.75-2.4-2.91-3.74-5.66-5.03c-5.05-2.36-9.83-0.89-14,4.32l11.22,5.27
		c0.65,0.3,0.8,0.74,0.48,1.44l-1.31,2.82c-0.33,0.71-0.77,0.86-1.42,0.56l-11.81-5.54c-0.36,0.63-0.69,1.32-1,1.97l-0.9,1.95
		l11.51,5.4c0.65,0.3,0.8,0.74,0.48,1.44l-1.31,2.82L401.28,283.95z"/></g><g id="girl"><circle class="st8" cx="398.51" cy="126.86" r="15"/><circle class="st8" cx="389.47" cy="68.54" r="15"/><path class="st0" d="M389.34,63.99c4.29-0.72,8.34,2.18,9.06,6.45c0.72,4.29-2.18,8.34-6.45,9.06c-4.29,0.72-8.34-2.18-9.06-6.45
		C382.17,68.76,385.06,64.71,389.34,63.99"/><path class="st0" d="M398.12,116.61c4.29-0.72,8.34,2.18,9.06,6.45c0.72,4.29-2.18,8.34-6.45,9.06c-4.29,0.72-8.34-2.18-9.06-6.45
		C390.94,121.38,393.83,117.33,398.12,116.61"/><path class="st9" d="M437.61,110.61l-24.86,4.16l-6.35-38.33l24.8-4.14c10.59-1.77,20.6,5.37,22.36,15.96
		C455.34,98.83,448.2,108.84,437.61,110.61"/><path class="st0" d="M409.57,121.71l-35.76,5.98c-11.3,1.88-22-5.75-23.89-17.05l-1.65-9.86c-1.88-11.3,5.75-22,17.05-23.89
		l35.76-5.98c11.3-1.88,22,5.75,23.89,17.05l1.65,9.86C428.52,109.12,420.88,119.81,409.57,121.71"/><path d="M403.18,103.92c-0.06-0.04-1.38-0.73-1.71-2.01c-0.19-0.71-0.04-1.44,0.44-2.15c0.48-0.73,0.73-1.46,0.75-2.18
		c0.02-0.73-0.14-1.34-0.51-1.84c-0.15-0.2-0.37-0.4-0.64-0.58c-0.34-0.22-1.17-0.86-1.38-1.93c-0.18-0.87,0.07-1.8,0.72-2.78
		l0.86,0.58c-0.49,0.74-0.69,1.41-0.57,2c0.14,0.69,0.71,1.13,0.94,1.28c0.37,0.25,0.66,0.52,0.89,0.82
		c0.51,0.68,0.75,1.52,0.72,2.48c-0.04,0.91-0.34,1.81-0.93,2.71c-0.31,0.47-0.41,0.91-0.29,1.32c0.21,0.84,1.18,1.35,1.19,1.37
		L403.18,103.92z"/><path class="st2" d="M411.1,95.3c-2.17,0.37-1.32,3.64-1.32,3.64l1.26,7.52c-0.44,0,14.37-13.32-3.63-21.69l1.26,7.52
		C408.67,92.28,408.94,95.66,411.1,95.3"/><path class="st8" d="M376.25,88.28l-0.05-0.32c-0.53-3.26,0.59-6.59,3.01-9.01l2.74,16.91C378.89,94.34,376.78,91.54,376.25,88.28"/><path class="st7" d="M391.86,92.66c0,0-4.27-1.19-6.11-4.55c-1.83-3.36-0.52-7.6-0.52-7.6s3.47,0.88,5.31,4.23
		C392.37,88.11,391.86,92.66,391.86,92.66"/><path d="M389.53,90.48c1.7-0.28,2.85-1.9,2.57-3.59c-0.28-1.7-1.9-2.85-3.59-2.57c-1.7,0.28-2.85,1.9-2.57,3.59
		C386.22,89.61,387.82,90.76,389.53,90.48"/><path d="M391.86,92.66c-6.5,0.14-10.55-7.43-8.4-12.86c0.53,0.22,1.61,0.64,2.14,0.86c-0.47,1.2-1.81,7.25,5.2,11.36
		C391.24,92.27,391.4,92.28,391.86,92.66"/><path class="st8" d="M380.66,114.72l0.06,0.32c0.57,3.25,2.7,6.04,5.78,7.54l-2.9-16.89C381.18,108.12,380.1,111.45,380.66,114.72"/><path class="st7" d="M393.86,105.05c0,0-3.66,2.52-4.3,6.28c-0.64,3.77,1.98,7.35,1.98,7.35s3-1.97,3.64-5.72
		C395.83,109.19,393.86,105.05,393.86,105.05"/><path d="M392.52,111.22c1.7-0.28,3.31,0.86,3.59,2.57c0.28,1.7-0.86,3.31-2.57,3.59c-1.7,0.28-3.31-0.86-3.59-2.57
		C389.67,113.12,390.81,111.5,392.52,111.22"/><path class="st0" d="M419.91,214l-8.8,5.61c-1.63,1.01-3.76,0.49-4.77-1.14c-1.01-1.63-0.49-3.76,1.14-4.77l14.88-9.31L419.91,214z
		"/><path d="M393.86,105.05c-6.19,1.98-7.56,10.46-3.76,14.9c0.44-0.39,1.32-1.13,1.75-1.51c-0.84-0.98-4.07-6.26,1.24-12.45
		C393.4,105.62,393.56,105.55,393.86,105.05"/><path class="st8" d="M386.01,125.31c-10.93,1.3-21.04-6.11-22.86-16.94l-0.57-3.37l-6.32,1.06l-0.49-2.99l6.32-1.06l-0.57-3.37
		c-1.81-10.85,5.33-21.14,16.1-23.46l-0.67-3.99l-11.79,1.97c-12.25,2.05-20.52,13.64-18.48,25.89l2.3,13.77
		c2.05,12.25,13.64,20.52,25.89,18.48l11.79-1.97L386.01,125.31z"/><rect x="384.7" y="124.03" transform="matrix(0.9863 -0.1649 0.1649 0.9863 -15.1824 66.4822)" class="st8" width="16.21" height="1.3"/><rect x="377.28" y="72.61" transform="matrix(0.9863 -0.1649 0.1649 0.9863 -6.8042 64.5546)" class="st8" width="16.21" height="1.3"/><path class="st1" d="M856.55,396.27c9.77-39.65-34.95-51.41-34.95-51.41l14.45-40.44l29.98,13.73l34.1,11.94l-3.89,10.49
		l-13.06-4.63c-0.01,0-0.04,0-0.05,0.01c-0.06-0.02-0.12-0.07-0.19-0.09c-1.67-0.64-3.53,0.21-4.17,1.88
		c-0.62,1.67,0.21,3.53,1.88,4.17c0.08,0.04,0.16,0.04,0.25,0.06l12.89,4.99l-25.68,68.17
		C868.12,415.14,852.13,414.19,856.55,396.27"/><polygon class="st0" points="789.63,325.94 823.53,339.44 836.05,304.42 806.15,286.43 	"/><path class="st10" d="M570.12,237.79c1.08,13.41,8.62,25.52,20.28,32.22c27.52,15.81,59.6,22.95,59.6,22.95l139.95,34.63
		l37.14-86.23c-60.4-50.19-109.3-68.44-146.3-62.57c-4.24,0.67-8.22,1.06-11.95,1.24l-1.73-14.55l-4.66-101.03l-66.47-22.31
		l-40.32,80.64L570.12,237.79z"/><polygon class="st0" points="508.42,148.71 501.41,154.2 425.6,214.01 443.67,212.35 449.96,220.12 505.2,190.44 524.04,177.81 	
		"/><polygon class="st11" points="441.04,104.73 502.66,89.8 542.59,172.52 505.23,191.9 	"/><path class="st0" d="M422.35,204.39c4.4-0.37,8.89-0.02,13.19,0.96l15.96-11.09l12.4,17.85l-20.87,14.52
		c-1.34,2.19-3.11,4.1-5.18,5.61l-0.51,0.37l-24.07,16.43c-1.57,1.1-3.73,0.71-4.83-0.87c-1.1-1.58-0.71-3.73,0.87-4.83l14.65-9.88
		l-0.28-0.41l-18.43,12.51c-1.57,1.1-3.73,0.71-4.83-0.87c-1.1-1.57-0.71-3.73,0.87-4.83l17.19-11.65l-0.28-0.41l-19.37,13.16
		c-1.57,1.1-3.73,0.71-4.83-0.87c-1.1-1.57-0.71-3.73,0.87-4.83l20.61-14.02l-0.28-0.41l-17.63,11.95c-1.57,1.1-3.73,0.71-4.83-0.87
		c-1.1-1.57-0.71-3.73,0.87-4.83l22.33-15.15L422.35,204.39z"/><ellipse class="st10" cx="608.23" cy="64.45" rx="54.21" ry="48.15"/><path class="st11" d="M608.23,16.28c0,0-12.8-3.51-49.45,14.13c-6.22,2.99-13.12,6.58-20.76,10.92
		c-33.63,19.06-70.36,17.46-78.25,17.38c-6.51-0.07-13,1.05-18.93,3.73c-6.76,3.06-18.91,7.71-17.65,17.26
		c2.38,18.12,10.55,36.03,10.55,36.03c68.24,6.76,136.6,21.4,205.05,43.06C638.3,106.85,630.54,58.24,608.23,16.28z"/><rect x="390.71" y="79.09" transform="matrix(0.9856 -0.1691 0.1691 0.9856 -11.1557 67.9719)" class="st0" width="5.57" height="40.79"/></g></svg>