<svg viewBox="0 0 2284 1200" fill="none" xmlns="http://www.w3.org/2000/svg"><path fill-rule="evenodd" clip-rule="evenodd" d="M1945.8 597.081L1569.49 550.942C1561.43 549.955 1553.46 548.479 1545.61 546.543L1545.61 546.546C1561.37 550.573 1519.7 560.48 1497.83 548.817C1417.7 506.079 1356.37 478.9 1222.65 407.582C1216.4 404.249 1242.21 402.619 1248.88 404.984C1249.82 405.317 1250.8 405.673 1251.77 406.025C1197.02 385.693 1142.27 375.602 1079.08 375.602H872.743C832.988 375.602 793.444 381.377 755.348 392.747L419.259 493.066C404.852 497.365 390.086 500.348 375.14 501.976L242.195 513.206C207.324 516.152 180.083 545.284 180.001 580.293V753.584C180.001 799.166 209.172 839.626 252.408 854.01L397.433 902.256H2066.39C2082.1 902.256 2094.83 891.083 2094.83 877.3V752.683C2094.83 675.932 2031.96 610.29 1945.8 597.081Z" fill="#F7E5CD"/><path fill-rule="evenodd" clip-rule="evenodd" d="M1607.49 857.811C1607.49 768.239 1680.07 695.625 1769.61 695.625C1859.15 695.625 1931.73 768.239 1931.73 857.811C1931.73 947.383 1859.15 1020 1769.61 1020C1680.07 1020 1607.49 947.383 1607.49 857.811Z" fill="#232144"/><path fill-rule="evenodd" clip-rule="evenodd" d="M1671.14 857.814C1671.14 803.409 1715.22 759.305 1769.61 759.305C1823.99 759.305 1868.08 803.409 1868.08 857.814C1868.08 912.22 1823.99 956.324 1769.61 956.324C1715.22 956.324 1671.14 912.22 1671.14 857.814Z" fill="#FFE3C7"/><path fill-rule="evenodd" clip-rule="evenodd" d="M383.003 857.811C383.003 768.239 455.586 695.625 545.123 695.625C634.66 695.625 707.243 768.239 707.243 857.811C707.243 947.383 634.66 1020 545.123 1020C455.586 1020 383.003 947.383 383.003 857.811Z" fill="#232144"/><path fill-rule="evenodd" clip-rule="evenodd" d="M446.652 857.814C446.652 803.409 490.74 759.305 545.122 759.305C599.507 759.305 643.592 803.409 643.592 857.814C643.592 912.22 599.507 956.324 545.122 956.324C490.74 956.324 446.652 912.22 446.652 857.814Z" fill="#FFE3C7"/><path fill-rule="evenodd" clip-rule="evenodd" d="M1060.85 623.318H1163.93V608.254H1060.85V623.318Z" fill="#232144"/><path fill-rule="evenodd" clip-rule="evenodd" d="M642.826 601.486H745.905V586.422H642.826V601.486Z" fill="#232144"/><path fill-rule="evenodd" clip-rule="evenodd" d="M259.159 580.379H180V639.659H203.768C212.01 639.659 220.068 636.39 226.947 630.26L263.086 598.047C268.988 592.785 266.231 580.379 259.159 580.379Z" fill="#232144"/><path fill-rule="evenodd" clip-rule="evenodd" d="M1458.77 564.137L1216.86 426.631C1184.2 408.066 1147.28 398.305 1109.72 398.305H887.604C819.404 398.305 751.906 412.085 689.159 438.818L577.72 486.296C567.795 490.525 567.133 504.348 576.608 509.507L605.196 525.073C619.42 532.816 635.259 537.126 651.443 537.657L1458.77 564.137Z" fill="#232144"/><path fill-rule="evenodd" clip-rule="evenodd" d="M1015.04 564.137H1060.85V392.82H1015.04V564.137Z" fill="#FFE4C7"/><path fill-rule="evenodd" clip-rule="evenodd" d="M1497.83 548.818C1417.7 506.082 1356.37 478.903 1222.65 407.584C1216.4 404.251 1242.2 402.621 1248.88 404.986C1335.9 435.811 1545.61 546.548 1545.61 546.548C1561.37 550.575 1519.7 560.483 1497.83 548.818Z" fill="#232144"/><path fill-rule="evenodd" clip-rule="evenodd" d="M2064.45 828.26H2104V743.668H2064.45V828.26Z" fill="#232144"/><path fill-rule="evenodd" clip-rule="evenodd" d="M2057.92 702.344V687.489C2057.92 655.755 2032.21 630.031 2000.49 630.031H1940.63V644.886C1940.63 676.62 1966.35 702.344 1998.07 702.344H2057.92Z" fill="#232144"/><path fill-rule="evenodd" clip-rule="evenodd" d="M1750.59 434.921L1725.35 343.281L1637.3 354.923L1658.64 476.131L1725.89 469.697C1743 468.06 1754.67 451.622 1750.59 434.921Z" fill="#D3E8F3"/><path fill-rule="evenodd" clip-rule="evenodd" d="M1551.68 470.2L1549.26 317.125H1692.42L1689.63 470.2H1551.68Z" fill="#D3E8F3"/><path fill-rule="evenodd" clip-rule="evenodd" d="M1526.55 582.216C1526.55 502.119 1554.69 469.059 1554.69 469.059H1702.51C1702.51 469.059 1714.05 481.631 1722.51 511.716C1732.56 547.415 1705.83 582.868 1668.75 582.942C1608.76 583.061 1527.13 582.969 1526.55 582.216Z" fill="#E73245"/><path fill-rule="evenodd" clip-rule="evenodd" d="M1726.9 354.241C1728.34 335.183 1714.06 318.568 1695.01 317.131C1675.95 315.694 1659.35 329.98 1657.91 349.039C1656.48 368.098 1679.74 397.477 1679.74 397.477C1679.74 397.477 1725.46 373.3 1726.9 354.241Z" fill="#D3E8F3"/><path fill-rule="evenodd" clip-rule="evenodd" d="M1737.06 340.188L1701.48 425.757C1696.28 438.414 1702.61 452.124 1715.29 455.65C1728.07 459.206 1741.92 450.917 1745.34 437.657L1766.42 340.703L1737.06 340.188Z" fill="#FFA28F"/><path fill-rule="evenodd" clip-rule="evenodd" d="M1795.15 315.718C1795.1 315.718 1795.05 315.715 1795 315.71L1795.18 314.107C1795.8 313.814 1797.43 309.788 1798.18 302.847C1798.92 295.907 1798.17 291.627 1797.54 291.182L1797.79 289.605C1798.96 289.731 1799.65 291.161 1799.95 294.109C1800.19 296.53 1800.13 299.693 1799.78 303.02C1799.64 304.335 1798.33 315.718 1795.15 315.718Z" fill="#2E3192"/><path fill-rule="evenodd" clip-rule="evenodd" d="M1799.13 315.166C1799.06 315.83 1798.47 316.311 1797.8 316.241L1792.04 315.624C1791.38 315.553 1790.9 314.957 1790.97 314.293L1790.99 314.118C1791.06 313.454 1791.65 312.973 1792.32 313.044L1798.08 313.66C1798.74 313.731 1799.22 314.328 1799.15 314.992L1799.13 315.166ZM1797.17 311.05L1793.76 310.684C1789.6 310.239 1785.86 313.251 1785.42 317.412L1783.56 334.815C1783.38 336.474 1784.58 337.965 1786.24 338.142L1798.71 339.475C1800.37 339.653 1801.86 338.45 1802.04 336.791L1803.9 319.388C1804.34 315.227 1801.33 311.495 1797.17 311.05Z" fill="#232144"/><path fill-rule="evenodd" clip-rule="evenodd" d="M1787.01 324.607L1787.65 318.626C1787.7 318.187 1788.09 317.871 1788.53 317.919L1800.87 319.237C1801.3 319.285 1801.62 319.677 1801.58 320.114L1800.94 326.097C1800.89 326.534 1800.5 326.85 1800.06 326.804L1787.72 325.484C1787.28 325.438 1786.97 325.044 1787.01 324.607Z" fill="#D3E8F3"/><path fill-rule="evenodd" clip-rule="evenodd" d="M1795 315.709C1793.83 315.584 1793.15 314.154 1792.85 311.206C1792.6 308.785 1792.66 305.621 1793.02 302.294C1793.16 300.959 1794.48 289.191 1797.79 289.604L1797.62 291.208C1797 291.501 1795.36 295.527 1794.62 302.467C1793.88 309.408 1794.63 313.687 1795.26 314.132L1795 315.709Z" fill="#2E3192"/><path fill-rule="evenodd" clip-rule="evenodd" d="M1786.06 333.494L1786.7 327.512C1786.75 327.076 1787.14 326.758 1787.58 326.806L1799.92 328.124C1800.35 328.172 1800.67 328.564 1800.62 329L1799.99 334.984C1799.94 335.42 1799.55 335.737 1799.11 335.691L1786.77 334.371C1786.33 334.325 1786.02 333.932 1786.06 333.494Z" fill="#D3E8F3"/><path fill-rule="evenodd" clip-rule="evenodd" d="M1791.86 356.889C1791.97 355.95 1792.71 355.271 1793.61 355.163L1793.81 353.288C1792.96 352.908 1792.42 351.692 1792.57 350.316C1792.71 348.941 1793.5 347.865 1794.41 347.674L1794.54 346.478C1793.68 346.183 1793.1 345.362 1793.2 344.423C1793.3 343.484 1794.05 342.805 1794.94 342.698L1795.33 339.112L1789.74 338.516L1787.17 362.589L1789.6 365.777L1792.76 363.185L1793.21 358.945C1792.35 358.65 1791.76 357.828 1791.86 356.889Z" fill="#232144"/><path fill-rule="evenodd" clip-rule="evenodd" d="M1755.8 388.379L1770.02 328.847L1744.55 319.008L1722.58 375.785L1755.8 388.379Z" fill="#FFA28F"/><path fill-rule="evenodd" clip-rule="evenodd" d="M1766.28 334.119L1784.78 311.374L1750.98 296.199L1742.68 324.365L1766.28 334.119Z" fill="#FFA28F"/><path fill-rule="evenodd" clip-rule="evenodd" d="M1800.31 293.289C1798.41 290.86 1794.9 290.435 1792.47 292.338L1767.81 311.682L1773.84 321.16L1799.36 301.136C1801.79 299.231 1802.22 295.718 1800.31 293.289Z" fill="#FFA28F"/><path fill-rule="evenodd" clip-rule="evenodd" d="M1804.75 288.978L1804.97 288.253C1805.8 285.497 1804.24 282.591 1801.49 281.76L1777.52 274.531L1774.29 285.234L1798.26 292.463C1801.02 293.293 1803.92 291.733 1804.75 288.978Z" fill="#FFA28F"/><path fill-rule="evenodd" clip-rule="evenodd" d="M1801.42 293.375L1801.53 292.625C1801.94 289.778 1799.96 287.135 1797.12 286.723L1772.34 283.141L1770.74 294.202L1795.52 297.786C1798.36 298.198 1801.01 296.223 1801.42 293.375Z" fill="#FFA28F"/><path fill-rule="evenodd" clip-rule="evenodd" d="M1750.59 296.806L1757.71 305.421L1784.47 283.291L1777.35 274.676L1750.59 296.806Z" fill="#FFA28F"/><path fill-rule="evenodd" clip-rule="evenodd" d="M1753.84 301.033L1760.47 310.029L1788.41 289.409L1781.78 280.414L1753.84 301.033Z" fill="#FFA28F"/><path fill-rule="evenodd" clip-rule="evenodd" d="M1781.81 300.706C1781.81 300.706 1777.89 303.42 1776.08 304.5C1773.14 306.246 1771.24 302.353 1773.5 300.557C1774.94 299.405 1779.93 295.883 1783.44 293.082C1773.64 295.822 1757.28 297.528 1757.28 297.528L1772.64 313.597L1781.81 300.706Z" fill="#FFA28F"/><path fill-rule="evenodd" clip-rule="evenodd" d="M1814.38 317.744C1806.62 314.257 1804.41 307.033 1802.64 301.229C1801.27 296.77 1800.1 292.921 1796.94 291.662L1797.53 290.164C1801.41 291.71 1802.75 296.104 1804.18 300.758C1805.94 306.535 1807.94 313.085 1815.04 316.272L1814.38 317.744Z" fill="#2E3192"/><path fill-rule="evenodd" clip-rule="evenodd" d="M1801.19 323.096C1801.94 316.069 1808.25 310.978 1815.27 311.73C1822.3 312.481 1827.38 318.789 1826.63 325.817C1825.88 332.847 1819.58 337.935 1812.55 337.184C1805.53 336.432 1800.44 330.124 1801.19 323.096Z" fill="#E73245"/><path fill-rule="evenodd" clip-rule="evenodd" d="M1478.59 422.76L1517.75 339.926L1590.78 366.171L1546.43 480.969L1496.11 461.656C1479.64 456.743 1471.36 438.356 1478.59 422.76Z" fill="#D3E8F3"/><path fill-rule="evenodd" clip-rule="evenodd" d="M1515.77 354.335C1514.33 335.276 1528.61 318.661 1547.66 317.224C1566.72 315.789 1583.32 330.074 1584.76 349.133C1586.19 368.191 1562.93 397.57 1562.93 397.57C1562.93 397.57 1517.21 373.393 1515.77 354.335Z" fill="#D3E8F3"/><path fill-rule="evenodd" clip-rule="evenodd" d="M1657.95 311.076V228.76C1657.95 214.756 1646.16 203.406 1631.61 203.406H1608.99C1594.44 203.406 1582.65 214.756 1582.65 228.76V311.076H1657.95Z" fill="#232144"/><path fill-rule="evenodd" clip-rule="evenodd" d="M1596.18 261.507C1596.18 255.946 1591.67 251.438 1586.11 251.438C1580.56 251.438 1576.05 255.946 1576.05 261.507C1576.05 267.069 1580.56 271.577 1586.11 271.577C1591.67 271.577 1596.18 267.069 1596.18 261.507Z" fill="#FFA28F"/><path fill-rule="evenodd" clip-rule="evenodd" d="M1647.89 261.507C1647.89 255.946 1652.4 251.438 1657.96 251.438C1663.51 251.438 1668.02 255.946 1668.02 261.507C1668.02 267.069 1663.51 271.577 1657.96 271.577C1652.4 271.577 1647.89 267.069 1647.89 261.507Z" fill="#FFA28F"/><path fill-rule="evenodd" clip-rule="evenodd" d="M1647.01 327.323V295.047L1597.28 294.867V327.323C1597.28 341.062 1608.41 352.2 1622.15 352.2C1635.88 352.2 1647.01 341.062 1647.01 327.323Z" fill="#F5836D"/><path fill-rule="evenodd" clip-rule="evenodd" d="M1655.11 283.84V232.361C1655.11 218.898 1644.2 207.984 1630.74 207.984H1612.92C1599.81 207.984 1589.18 218.614 1589.18 231.728V283.84C1589.18 296.953 1599.81 307.583 1612.92 307.583H1631.37C1644.48 307.583 1655.11 296.953 1655.11 283.84Z" fill="#FFA28F"/><path fill-rule="evenodd" clip-rule="evenodd" d="M1624.14 201.789C1624.14 189.755 1633.89 180 1645.92 180C1657.95 180 1667.7 189.755 1667.7 201.789C1667.7 213.823 1657.95 223.578 1645.92 223.578C1633.89 223.578 1624.14 213.823 1624.14 201.789Z" fill="#232144"/><path fill-rule="evenodd" clip-rule="evenodd" d="M1589.89 247.364L1604.77 241.923C1609.21 240.295 1614.39 242.808 1614.72 246.929C1614.73 247.073 1614.74 247.218 1614.74 247.364H1589.89Z" fill="#232144"/><path fill-rule="evenodd" clip-rule="evenodd" d="M1649.29 247.364L1634.42 241.923C1629.97 240.295 1624.79 242.808 1624.46 246.929C1624.45 247.073 1624.45 247.218 1624.45 247.364H1649.29Z" fill="#232144"/><path fill-rule="evenodd" clip-rule="evenodd" d="M1582.65 240.649V240.052C1582.65 221.526 1597.66 206.508 1616.18 206.508H1619.5V207.104C1619.5 225.631 1604.49 240.649 1585.97 240.649H1582.65Z" fill="#232144"/><path fill-rule="evenodd" clip-rule="evenodd" d="M1658.01 240.352V240.351C1658.01 221.659 1642.86 206.508 1624.18 206.508H1621.45C1621.28 206.508 1621.15 206.641 1621.15 206.806C1621.15 225.497 1636.3 240.651 1654.98 240.651H1657.71C1657.88 240.651 1658.01 240.517 1658.01 240.352Z" fill="#232144"/><path fill-rule="evenodd" clip-rule="evenodd" d="M1628.66 259.738C1628.66 259.738 1631.14 254.506 1635.85 252.908C1640.56 251.31 1645.71 253.953 1645.71 253.953C1645.71 253.953 1643.05 258.759 1638.34 260.358C1633.63 261.955 1628.66 259.738 1628.66 259.738Z" fill="white"/><path fill-rule="evenodd" clip-rule="evenodd" d="M1640.51 258.105C1641.19 256.157 1640.16 254.03 1638.21 253.352C1636.27 252.675 1634.14 253.707 1633.46 255.654C1632.79 257.602 1633.82 259.73 1635.76 260.407C1637.71 261.082 1639.84 260.053 1640.51 258.105Z" fill="black"/><path fill-rule="evenodd" clip-rule="evenodd" d="M1637.97 254.105C1635.41 254.718 1632.55 256.502 1629.82 260.53L1627.5 258.953C1630.54 254.472 1633.94 252.184 1637.32 251.376C1640.68 250.573 1643.82 251.277 1646.29 252.415L1645.11 254.963C1643.05 254.011 1640.56 253.487 1637.97 254.105Z" fill="black"/><path fill-rule="evenodd" clip-rule="evenodd" d="M1610.53 259.52C1610.53 259.52 1608.04 254.288 1603.33 252.689C1598.62 251.091 1593.47 253.734 1593.47 253.734C1593.47 253.734 1596 258.631 1600.7 260.23C1605.41 261.826 1610.53 259.52 1610.53 259.52Z" fill="white"/><path fill-rule="evenodd" clip-rule="evenodd" d="M1598.67 258.038C1597.99 256.091 1599.02 253.963 1600.97 253.286C1602.92 252.609 1605.04 253.64 1605.72 255.588C1606.4 257.536 1605.37 259.663 1603.42 260.34C1601.47 261.016 1599.35 259.986 1598.67 258.038Z" fill="black"/><path fill-rule="evenodd" clip-rule="evenodd" d="M1601.86 251.157C1605.24 251.965 1608.64 254.253 1611.69 258.734L1609.37 260.311C1606.63 256.283 1603.78 254.5 1601.21 253.887C1598.62 253.268 1596.13 253.793 1594.07 254.744L1592.9 252.196C1595.36 251.058 1598.51 250.354 1601.86 251.157Z" fill="black"/><path fill-rule="evenodd" clip-rule="evenodd" d="M1637.79 233.319C1637.14 232.558 1657.95 233.319 1657.95 233.319V329.62C1657.95 329.62 1639.74 330.176 1639.42 329.62C1617.87 292.515 1668.39 259.577 1637.79 233.319Z" fill="#232144"/><path fill-rule="evenodd" clip-rule="evenodd" d="M1602.81 233.322C1603.32 232.732 1590.89 233.058 1585.3 233.233C1583.81 233.279 1582.65 234.133 1582.65 235.169V329.624C1582.65 329.624 1600.86 330.179 1601.18 329.624C1622.73 292.518 1572.21 259.58 1602.81 233.322Z" fill="#232144"/><path fill-rule="evenodd" clip-rule="evenodd" d="M1614.19 269.884C1613.91 269.918 1613.53 270.095 1613.04 270.788L1611.9 269.984C1612.52 269.103 1613.21 268.594 1614.02 268.494C1614.79 268.399 1615.51 268.703 1616.11 269.038C1616.41 269.209 1616.72 269.407 1617.02 269.597C1617.03 269.606 1617.04 269.615 1617.06 269.624C1617.34 269.808 1617.62 269.988 1617.91 270.153C1618.51 270.501 1619.08 270.751 1619.66 270.815M1614.19 269.884C1614.5 269.846 1614.88 269.96 1615.42 270.261L1614.19 269.884ZM1615.42 270.261C1615.69 270.407 1615.96 270.581 1616.26 270.775L1615.42 270.261ZM1616.26 270.775C1616.27 270.785 1616.29 270.795 1616.31 270.806L1616.26 270.775ZM1616.31 270.806C1616.59 270.987 1616.89 271.182 1617.21 271.365L1616.31 270.806ZM1617.21 271.365C1617.87 271.749 1618.64 272.112 1619.51 272.208L1617.21 271.365ZM1621.96 271.624C1621.27 272.005 1620.45 272.31 1619.51 272.208L1619.51 272.208M1621.96 271.624C1622.3 271.434 1622.63 271.217 1622.93 271.011L1621.96 271.624ZM1622.93 271.011C1623.01 270.951 1623.1 270.893 1623.18 270.837L1622.93 271.011ZM1623.18 270.837C1623.38 270.693 1623.57 270.56 1623.76 270.436L1623.18 270.837ZM1623.76 270.436C1624.31 270.081 1624.69 269.934 1624.99 269.953L1623.76 270.436ZM1624.99 269.953C1625.23 269.968 1625.62 270.112 1626.14 270.862L1624.99 269.953ZM1626.14 270.862L1627.29 270.062L1626.14 270.862ZM1627.29 270.062C1626.64 269.131 1625.92 268.607 1625.07 268.555L1627.29 270.062ZM1625.07 268.555C1624.28 268.506 1623.57 268.892 1623.01 269.259L1625.07 268.555ZM1623.01 269.259C1622.79 269.398 1622.57 269.553 1622.36 269.702L1623.01 269.259ZM1622.36 269.702C1622.28 269.756 1622.2 269.808 1622.13 269.859L1622.36 269.702ZM1622.13 269.859C1621.84 270.059 1621.56 270.243 1621.28 270.398L1622.13 269.859ZM1621.28 270.398C1620.72 270.709 1620.2 270.874 1619.66 270.815L1621.28 270.398Z" fill="black"/><path fill-rule="evenodd" clip-rule="evenodd" d="M1619.47 291.38C1621.91 291.352 1624.69 292.188 1625.85 294.359L1624.61 295.02C1623.82 293.544 1621.74 292.755 1619.49 292.78C1618.39 292.792 1617.33 293.001 1616.48 293.369C1615.63 293.74 1615.07 294.238 1614.84 294.779L1613.56 294.224C1613.98 293.234 1614.89 292.534 1615.93 292.084C1616.97 291.63 1618.22 291.393 1619.47 291.38Z" fill="#F5836D"/><path fill-rule="evenodd" clip-rule="evenodd" d="M1631.8 280.033C1631.8 280.033 1626.03 287.268 1619.51 286.907C1612.13 286.502 1607.06 279.734 1607.06 279.734C1607.06 279.734 1616.42 280.889 1619.71 280.906C1622.85 280.922 1631.8 280.033 1631.8 280.033Z" fill="#E73245"/><path fill-rule="evenodd" clip-rule="evenodd" d="M1632.09 279.907C1629.06 279.907 1626.14 277.236 1623.95 276.732C1622.93 276.499 1620.39 277.206 1619.6 278.386C1618.8 277.162 1616.43 276.521 1614.86 277.109C1612.39 278.032 1611.26 279.277 1607.1 279.703C1606.71 279.74 1609.45 283.262 1615.64 281.281C1617.91 280.559 1617.54 281.347 1619.53 281.347C1621.33 281.347 1621.18 280.734 1623.31 281.388C1628.91 283.112 1632.51 279.907 1632.09 279.907Z" fill="#E73245"/><path fill-rule="evenodd" clip-rule="evenodd" d="M1512.9 462.515L1608.24 458.668L1612.91 430.735L1515.03 417.459C1501.53 415.628 1489.49 426.056 1489.36 439.681C1489.24 452.627 1499.97 463.038 1512.9 462.515Z" fill="#FFA28F"/><path fill-rule="evenodd" clip-rule="evenodd" d="M1602.25 456.988L1629.23 469.087L1636.72 432.228L1607.1 429.855L1602.25 456.988Z" fill="#FFA28F"/><path fill-rule="evenodd" clip-rule="evenodd" d="M1646.18 482.321C1648.76 480.356 1649.22 476.656 1647.21 474.115L1627.61 449.375L1618.4 456.403L1638.13 481.313C1640.09 483.788 1643.67 484.236 1646.18 482.321Z" fill="#F5836D"/><path fill-rule="evenodd" clip-rule="evenodd" d="M1657.42 483.72C1659.99 481.754 1660.45 478.055 1658.44 475.514L1638.84 450.773L1629.63 457.801L1649.36 482.711C1651.32 485.186 1654.91 485.635 1657.42 483.72Z" fill="#F5836D"/><path fill-rule="evenodd" clip-rule="evenodd" d="M1671.97 482.774C1674.35 481.558 1675.36 478.696 1674.28 476.256L1664.75 454.788L1661.98 452.578L1654.52 456.521L1665.09 480.337C1666.26 482.975 1669.4 484.088 1671.97 482.774Z" fill="#FFA28F"/><path fill-rule="evenodd" clip-rule="evenodd" d="M1666.77 484.876C1669.15 483.36 1669.85 480.203 1668.33 477.823L1654.23 455.672L1644.46 461.897L1657.82 482.89C1659.74 485.911 1663.75 486.799 1666.77 484.876Z" fill="#FFA28F"/><path fill-rule="evenodd" clip-rule="evenodd" d="M1636.71 432.25L1629.45 441.282L1657.5 463.853L1664.76 454.822L1636.71 432.25Z" fill="#FFA28F"/><path fill-rule="evenodd" clip-rule="evenodd" d="M1633.09 436.426L1625.35 445.042L1652.11 469.13L1659.86 460.514L1633.09 436.426Z" fill="#FFA28F"/><path fill-rule="evenodd" clip-rule="evenodd" d="M1618.6 433.477L1611.35 442.515L1639.43 465.059L1646.68 456.019L1618.6 433.477Z" fill="#FFA28F"/><path fill-rule="evenodd" clip-rule="evenodd" d="M1618.78 794.995L1599.99 724.987L1655.24 722.23L1667.46 793.467L1618.78 794.995Z" fill="#FFA28F"/><path fill-rule="evenodd" clip-rule="evenodd" d="M1665.2 748.106L1620.47 500.631C1616.76 479.979 1597.15 466.145 1576.45 469.582C1555.27 473.101 1541.1 493.342 1545.04 514.466L1599.74 753.237L1665.2 748.106Z" fill="#891229"/><path fill-rule="evenodd" clip-rule="evenodd" d="M1669.93 807.111L1669.74 792.844L1601.43 793.77L1601.62 808.037L1669.93 807.111Z" fill="#E73245"/><path fill-rule="evenodd" clip-rule="evenodd" d="M1669.74 792.913C1669.55 778.931 1654.1 767.804 1635.24 768.059C1616.38 768.314 1601.24 779.857 1601.43 793.839L1669.74 792.913Z" fill="#D3E8F3"/><path fill-rule="evenodd" clip-rule="evenodd" d="M1426.54 723.066L1451.68 657.863L1499.6 685.502L1464.89 745.735L1426.54 723.066Z" fill="#FFA28F"/><path fill-rule="evenodd" clip-rule="evenodd" d="M1497.32 714.63L1610.13 489.729C1620.6 471.551 1614.53 448.325 1596.5 437.599C1578.04 426.616 1554.17 432.944 1543.56 451.629L1440.39 681.219L1497.32 714.63Z" fill="#E73245"/><path fill-rule="evenodd" clip-rule="evenodd" d="M1458.61 756.639L1466.67 742.646L1371.52 687.805L1363.46 701.798L1458.61 756.639Z" fill="#E73245"/><path fill-rule="evenodd" clip-rule="evenodd" d="M1466.55 742.858L1474.61 728.865C1474.61 728.865 1458.52 729.646 1450 724.266C1439.71 717.779 1437.01 695.915 1437.01 695.915L1382.06 684.326C1377.88 682.84 1373.25 684.545 1371.03 688.382L1371.52 687.805L1466.55 742.858Z" fill="#D3E8F3"/><path fill-rule="evenodd" clip-rule="evenodd" d="M1639.12 568.99L1540.99 497.234L1590.78 434.797L1689.52 484.591L1639.12 568.99Z" fill="#E73245"/></svg>