<svg viewBox="0 0 1600 1200" fill="none" xmlns="http://www.w3.org/2000/svg"><path fill-rule="evenodd" clip-rule="evenodd" d="M978.87 989.134C978.87 997.359 949.588 1004.03 913.468 1004.03C877.348 1004.03 848.067 997.359 848.067 989.134C848.067 980.909 877.348 974.242 913.468 974.242C949.588 974.242 978.87 980.909 978.87 989.134Z" fill="#FF6200"/><path fill-rule="evenodd" clip-rule="evenodd" d="M536.753 966.036H1289.99V180H536.753V966.036Z" fill="#AACDE5"/><path fill-rule="evenodd" clip-rule="evenodd" d="M1097.39 668.523H1290V291.621H1097.39V668.523Z" fill="#8BB1CD"/><path fill-rule="evenodd" clip-rule="evenodd" d="M536.669 966.06H884.505V180H536.669V966.06Z" fill="#FF6200"/><path fill-rule="evenodd" clip-rule="evenodd" d="M1114.62 650.464H1290V309.682H1114.62V650.464Z" fill="#D3E8F3"/><path fill-rule="evenodd" clip-rule="evenodd" d="M883.523 536.658H959.42V246.703H883.523V536.658Z" fill="#FF6200"/><path fill-rule="evenodd" clip-rule="evenodd" d="M941.109 612.964C938.485 612.964 936.323 610.807 936.323 608.172V446.907C936.323 444.272 938.485 442.115 941.109 442.115C943.746 442.115 945.907 444.272 945.907 446.907V608.172C945.907 610.807 943.746 612.964 941.109 612.964Z" fill="#FF6200"/><path fill-rule="evenodd" clip-rule="evenodd" d="M954.59 627.888C951.953 627.888 949.791 625.731 949.791 623.096V461.831C949.791 459.196 951.953 457.039 954.59 457.039C957.226 457.039 959.376 459.196 959.376 461.831V623.096C959.376 625.731 957.226 627.888 954.59 627.888Z" fill="#FF6200"/><path fill-rule="evenodd" clip-rule="evenodd" d="M1239.34 661.419H1256.14V291.621H1239.34V661.419Z" fill="#8BB1CD"/><path fill-rule="evenodd" clip-rule="evenodd" d="M430.04 980.441L427.391 981.001C391.693 996.333 345.371 994.991 311.525 980.441V844.061L313.142 844.409C351.089 852.576 391.032 852.537 428.954 844.297L430.04 844.061V980.441Z" fill="#ABB8B9"/><path fill-rule="evenodd" clip-rule="evenodd" d="M430.387 844.187C430.387 839.447 403.701 835.604 370.783 835.604C337.865 835.604 311.179 839.447 311.179 844.187C311.179 848.927 337.865 852.77 370.783 852.77C403.701 852.77 430.387 848.927 430.387 844.187Z" fill="#232144"/><path fill-rule="evenodd" clip-rule="evenodd" d="M312.357 844.061C312.357 876.328 338.516 902.485 370.783 902.485C403.05 902.485 429.208 876.328 429.208 844.061H431.565C431.565 877.629 404.352 904.842 370.783 904.842C337.214 904.842 310 877.629 310 844.061H312.357Z" fill="#232144"/><path fill-rule="evenodd" clip-rule="evenodd" d="M514.127 1009.16L511.478 1009.72C476.952 1023.19 431.301 1023.86 395.612 1009.16V872.777L397.229 873.125C435.176 881.292 475.119 881.253 513.041 873.013L514.127 872.777V1009.16Z" fill="#F7E5CD"/><path fill-rule="evenodd" clip-rule="evenodd" d="M514.474 872.903C514.474 868.163 487.788 864.32 454.87 864.32C421.952 864.32 395.266 868.163 395.266 872.903C395.266 877.643 421.952 881.486 454.87 881.486C487.788 881.486 514.474 877.643 514.474 872.903Z" fill="#FF6200"/><path fill-rule="evenodd" clip-rule="evenodd" d="M506.732 915.549C509.754 915.549 512.204 913.099 512.204 910.077V876.48C512.204 873.458 509.754 871.008 506.732 871.008C503.71 871.008 501.26 873.458 501.26 876.48V910.077C501.26 913.099 503.71 915.549 506.732 915.549Z" fill="#FF6200"/><path fill-rule="evenodd" clip-rule="evenodd" d="M495.787 913.258C498.809 913.258 501.259 910.808 501.259 907.786V874.189C501.259 871.167 498.809 868.717 495.787 868.717C492.765 868.717 490.315 871.167 490.315 874.189V907.786C490.315 910.808 492.765 913.258 495.787 913.258Z" fill="#FF6200"/><path fill-rule="evenodd" clip-rule="evenodd" d="M485.352 947.405C488.374 947.405 490.824 944.955 490.824 941.933V880.552C490.824 877.53 488.374 875.08 485.352 875.08C482.33 875.08 479.88 877.53 479.88 880.552V941.933C479.88 944.955 482.33 947.405 485.352 947.405Z" fill="#FF6200"/><path fill-rule="evenodd" clip-rule="evenodd" d="M396.444 872.777C396.444 905.044 422.603 931.202 454.869 931.202C487.137 931.202 513.295 905.044 513.295 872.777H515.652C515.652 906.346 488.439 933.559 454.869 933.559C421.301 933.559 394.087 906.346 394.087 872.777H396.444Z" fill="#232144"/><path fill-rule="evenodd" clip-rule="evenodd" d="M736.757 834.635H871.336V824.211H736.757V834.635Z" fill="#103256"/><path fill-rule="evenodd" clip-rule="evenodd" d="M736.757 921.577H871.336V911.15H736.757V921.577Z" fill="#103256"/><path fill-rule="evenodd" clip-rule="evenodd" d="M736.757 747.695H871.336V737.271H736.757V747.695Z" fill="#103256"/><path fill-rule="evenodd" clip-rule="evenodd" d="M736.757 660.756H871.336V650.332H736.757V660.756Z" fill="#103256"/><path fill-rule="evenodd" clip-rule="evenodd" d="M738.037 552.666H872.616V542.242H738.037V552.666Z" fill="#103256"/><path fill-rule="evenodd" clip-rule="evenodd" d="M731.854 1020V486.582H740.127V1020H731.854Z" fill="#103256"/><path fill-rule="evenodd" clip-rule="evenodd" d="M867.199 1020V491.285H875.472V1020H867.199Z" fill="#103256"/><path fill-rule="evenodd" clip-rule="evenodd" d="M944.999 401.919L941.99 333.215H923.932L917.545 391.445L848.095 391.094L849.084 441.248L929.992 420.86C938.969 419.091 945.33 411.062 944.999 401.919Z" fill="#FABCAF"/><path fill-rule="evenodd" clip-rule="evenodd" d="M727.704 447.62L728.907 521.569C729.084 529.783 735.94 536.27 744.151 535.991C751.78 535.733 757.951 529.698 758.378 522.077L762.554 447.438L727.704 447.62Z" fill="#FABCAF"/><path fill-rule="evenodd" clip-rule="evenodd" d="M769.48 903.619L765.507 858.334H801.555V903.619H769.48Z" fill="#FABCAF"/><path fill-rule="evenodd" clip-rule="evenodd" d="M801.555 860.369V529.844H790.853C760.585 529.844 744.354 539.412 744.354 539.412L752.529 860.369H801.555Z" fill="#7070FF"/><path fill-rule="evenodd" clip-rule="evenodd" d="M751.129 875.162H801.55V852.275H751.129V875.162Z" fill="#232144"/><path fill-rule="evenodd" clip-rule="evenodd" d="M759.158 911.819V898.396C759.158 892.7 763.776 888.082 769.473 888.082H793.362C799.058 888.082 803.676 892.7 803.676 898.396V911.819H759.158Z" fill="#232144"/><path fill-rule="evenodd" clip-rule="evenodd" d="M748.223 523.187L746.93 401.801C746.93 401.801 791.84 387.105 806.442 387.105C819.745 387.105 867.537 389.589 867.537 389.589L865.334 523.187H748.223Z" fill="#E6F0FF"/><path fill-rule="evenodd" clip-rule="evenodd" d="M761.431 466.812H727.278V426.042C727.278 415.227 734.332 405.677 744.669 402.498L761.431 397.342V466.812Z" fill="#E6F0FF"/><path fill-rule="evenodd" clip-rule="evenodd" d="M891.646 390.564L867.149 389.584L865.572 449.377L891.376 439.603L891.646 390.564Z" fill="#E6F0FF"/><path fill-rule="evenodd" clip-rule="evenodd" d="M865.533 585.991H745.541L743.618 520.684H867.538L865.533 585.991Z" fill="#7070FF"/><path fill-rule="evenodd" clip-rule="evenodd" d="M803.086 465.115L811.764 470.086L858.861 389.122L847.17 388.561L803.086 465.115Z" fill="#232144"/><path fill-rule="evenodd" clip-rule="evenodd" d="M811.38 465.114L802.702 470.085L760.486 397.578L770.645 394.449L811.38 465.114Z" fill="#232144"/><path fill-rule="evenodd" clip-rule="evenodd" d="M818.951 457.74H795.516L743.618 520.682H867.537L818.951 457.74Z" fill="#7070FF"/><path fill-rule="evenodd" clip-rule="evenodd" d="M776.27 576.543H768.359C759.959 576.543 753.149 569.733 753.149 561.333V535.531H791.48V561.333C791.48 569.733 784.67 576.543 776.27 576.543Z" fill="#463EC5"/><path fill-rule="evenodd" clip-rule="evenodd" d="M847.185 816.953L851.158 771.668H815.11V816.953H847.185Z" fill="#FABCAF"/><path fill-rule="evenodd" clip-rule="evenodd" d="M810.038 789.241V523.188H824.12C854.388 523.188 867.007 539.641 867.007 539.641L859.064 789.241H810.038Z" fill="#7070FF"/><path fill-rule="evenodd" clip-rule="evenodd" d="M810.038 789.501H860.459V765.977H810.038V789.501Z" fill="#232144"/><path fill-rule="evenodd" clip-rule="evenodd" d="M860.447 765.991L862.578 679.1L810.046 679.106L810.035 765.991H860.447Z" fill="#463EC5"/><path fill-rule="evenodd" clip-rule="evenodd" d="M857.508 824.241V811.729C857.508 806.032 852.89 801.414 847.193 801.414H823.304C817.608 801.414 812.99 806.032 812.99 811.729V824.241H857.508Z" fill="#232144"/><path fill-rule="evenodd" clip-rule="evenodd" d="M835.317 576.543H843.228C851.628 576.543 858.438 569.733 858.438 561.333V535.531H820.107V561.333C820.107 569.733 826.917 576.543 835.317 576.543Z" fill="#463EC5"/><path fill-rule="evenodd" clip-rule="evenodd" d="M921.089 298.748L926.379 302.597L917.95 314.18C916.949 315.555 915.022 315.859 913.646 314.858L913.338 314.634C911.963 313.632 911.659 311.706 912.66 310.33L921.089 298.748Z" fill="#FABCAF"/><path fill-rule="evenodd" clip-rule="evenodd" d="M924.126 307.098L929.416 310.947L920.987 322.53C919.986 323.905 918.059 324.209 916.683 323.208L916.375 322.984C915 321.982 914.696 320.056 915.697 318.68L924.126 307.098Z" fill="#FABCAF"/><path fill-rule="evenodd" clip-rule="evenodd" d="M923.649 297.801L929.735 300.201L924.48 313.527C923.855 315.109 922.067 315.887 920.484 315.262L920.129 315.123C918.547 314.498 917.77 312.709 918.394 311.127L923.649 297.801Z" fill="#9E3F39"/><path fill-rule="evenodd" clip-rule="evenodd" d="M925.507 290.142L927.038 291.256L917.813 303.933C916.769 305.368 914.759 305.684 913.325 304.64L913.23 304.572C911.796 303.528 911.479 301.518 912.523 300.084L919.013 291.165C920.524 289.09 923.431 288.631 925.507 290.142Z" fill="#FABCAF"/><path fill-rule="evenodd" clip-rule="evenodd" d="M941.256 310.341L923.321 310.791L923.301 288.987L926.121 287.094C927.325 287.111 928.458 288.203 929.243 290.1L941.256 310.341Z" fill="#FABCAF"/><path fill-rule="evenodd" clip-rule="evenodd" d="M941.256 310.34L943.081 367.195H920.803L926.012 310.624L941.256 310.34Z" fill="#FABCAF"/><path fill-rule="evenodd" clip-rule="evenodd" d="M956.338 258.779H887.529C885.788 258.779 884.377 257.368 884.377 255.626V242.879C884.377 241.138 885.788 239.727 887.529 239.727H956.338C958.079 239.727 959.491 241.138 959.491 242.879V255.626C959.491 257.368 958.079 258.779 956.338 258.779Z" fill="#CD4B27"/><path fill-rule="evenodd" clip-rule="evenodd" d="M959.492 250.383H964.563V248.121H959.492V250.383Z" fill="#242144"/><path fill-rule="evenodd" clip-rule="evenodd" d="M962.301 264.052V250.385H964.563V264.419L962.301 264.052Z" fill="#242144"/><path fill-rule="evenodd" clip-rule="evenodd" d="M920.803 288.266H923.065V271.27H920.803V288.266Z" fill="#242144"/><path fill-rule="evenodd" clip-rule="evenodd" d="M920.972 271.181L964.407 262.307L964.561 264.474L921.425 273.397L920.972 271.181Z" fill="#242144"/><path fill-rule="evenodd" clip-rule="evenodd" d="M924.606 321.62H919.261C917.406 321.62 915.903 320.116 915.903 318.262V290.503C915.903 288.649 917.406 287.145 919.261 287.145H924.606C926.461 287.145 927.964 288.649 927.964 290.503V318.262C927.964 320.116 926.461 321.62 924.606 321.62Z" fill="#232144"/><path fill-rule="evenodd" clip-rule="evenodd" d="M931.231 334.956C926.673 333.57 923.849 332.778 922.566 327.739L916.762 304.945C916.261 302.979 917.271 301.024 919.02 300.575C920.772 300.125 922.602 301.356 923.107 303.324L931.231 334.956Z" fill="#FABCAF"/><path fill-rule="evenodd" clip-rule="evenodd" d="M925.82 313.887C926.43 316.179 928.679 315.007 928.4 313.316L931.538 326.581L927.404 327.739L925.82 313.887Z" fill="#FABCAF"/><path fill-rule="evenodd" clip-rule="evenodd" d="M825.248 387.239L823.781 372.018L788.89 375.324L790.362 390.601C790.986 397.08 799.302 401.58 808.935 400.652C818.569 399.723 825.872 393.718 825.248 387.239Z" fill="#FABCAF"/><path fill-rule="evenodd" clip-rule="evenodd" d="M787.953 371.85L785.903 350.571C785.081 342.048 791.325 334.473 799.849 333.652L824.075 331.317C832.598 330.496 840.173 336.74 840.995 345.263L843.553 371.813C844.094 377.425 839.982 382.413 834.37 382.954L804.873 385.796C796.35 386.617 788.774 380.373 787.953 371.85Z" fill="#FABCAF"/><path fill-rule="evenodd" clip-rule="evenodd" d="M812.51 306.662C796.423 306.662 783.363 319.723 783.363 335.81C783.363 351.896 796.423 364.957 812.51 364.957C828.597 364.957 841.658 351.896 841.658 335.81C841.658 319.723 828.597 306.662 812.51 306.662Z" fill="#FABCAF"/><path fill-rule="evenodd" clip-rule="evenodd" d="M808.181 366.436C813.411 357.827 807.547 325.764 807.547 325.764L773.856 334.872L789.389 380.51C789.389 380.51 798.974 381.593 808.181 366.436Z" fill="#420F0F"/><path fill-rule="evenodd" clip-rule="evenodd" d="M777.68 341.416C777.68 341.416 776.485 339.56 775.297 337.781C768.662 327.846 779.496 315.637 790.974 312.668L816.748 306.001C823.704 304.202 830.729 308.098 832.438 314.705C834.147 321.312 829.893 328.126 822.937 329.926L777.68 341.416Z" fill="#420F0F"/><path fill-rule="evenodd" clip-rule="evenodd" d="M828.075 315.326C827.304 307.323 820.191 301.461 812.188 302.232C804.186 303.003 798.323 310.116 799.094 318.118C799.866 326.121 806.978 331.984 814.981 331.212C822.984 330.441 828.846 323.329 828.075 315.326Z" fill="#420F0F"/><path fill-rule="evenodd" clip-rule="evenodd" d="M842.055 317.543C841.284 309.54 834.171 303.678 826.168 304.449C818.166 305.22 812.303 312.333 813.074 320.335C813.846 328.338 820.958 334.201 828.961 333.429C836.964 332.658 842.826 325.546 842.055 317.543Z" fill="#420F0F"/><path fill-rule="evenodd" clip-rule="evenodd" d="M813.665 319.115C812.934 311.526 806.189 305.966 798.599 306.697C791.01 307.429 785.45 314.174 786.182 321.763C786.913 329.352 793.658 334.912 801.247 334.181C808.837 333.449 814.396 326.704 813.665 319.115Z" fill="#420F0F"/><path fill-rule="evenodd" clip-rule="evenodd" d="M825.845 331.925L825.182 325.041L807.029 326.79L809.053 347.793L813.086 347.405C820.884 346.653 826.596 339.723 825.845 331.925Z" fill="#420F0F"/><path fill-rule="evenodd" clip-rule="evenodd" d="M816.433 354.062C816.016 349.735 812.17 346.565 807.843 346.982C803.517 347.399 800.347 351.245 800.764 355.572C801.181 359.899 805.026 363.068 809.353 362.652C813.68 362.235 816.85 358.389 816.433 354.062Z" fill="#FABCAF"/><path fill-rule="evenodd" clip-rule="evenodd" d="M847.172 352.337C847.244 354.554 841.773 356.594 841.773 356.594L840.522 343.152C840.522 343.152 847.101 350.12 847.172 352.337Z" fill="#FABCAF"/><path fill-rule="evenodd" clip-rule="evenodd" d="M842.991 366.022C842.991 366.022 842.991 366.022 843.095 366.542C843.199 367.061 843.199 367.061 843.199 367.061L843.197 367.061L843.192 367.062L843.178 367.065C843.166 367.067 843.149 367.07 843.128 367.074C843.085 367.082 843.023 367.092 842.944 367.104C842.786 367.129 842.561 367.159 842.285 367.186C841.733 367.239 840.972 367.276 840.137 367.212C838.491 367.084 836.424 366.549 835.207 364.798L836.077 364.193C837.018 365.549 838.678 366.037 840.219 366.156C840.977 366.214 841.674 366.181 842.183 366.132C842.437 366.107 842.642 366.079 842.783 366.058C842.853 366.047 842.906 366.038 842.942 366.031L842.981 366.024L842.99 366.023L842.991 366.022Z" fill="#1D1D1B"/><path fill-rule="evenodd" clip-rule="evenodd" d="M837.993 344.775C837.993 344.775 839.868 347.625 838.522 350.265C838.522 350.265 831.796 350.529 831.615 348.65C831.424 346.666 835.036 345.835 837.993 344.775Z" fill="white"/><path fill-rule="evenodd" clip-rule="evenodd" d="M828.15 342.706L827.906 340.176C827.757 338.626 828.892 337.249 830.441 337.1L838.935 336.281C840.471 336.133 841.836 337.258 841.984 338.793L842.227 341.323C842.229 341.337 842.218 341.35 842.205 341.351L828.15 342.706Z" fill="#420F0F"/><path fill-rule="evenodd" clip-rule="evenodd" d="M843.648 357.092L838.072 357.576C835.657 357.785 835.23 359.008 835.356 360.46L835.596 363.226L844.116 362.487L843.648 357.092Z" fill="#420F0F"/><path fill-rule="evenodd" clip-rule="evenodd" d="M866.767 449.064L882.734 442.899C882.734 442.899 881.09 439.16 875.408 437.508C866.788 435.001 854.134 443.279 859.663 458.412C861.677 463.927 866.263 466.811 866.263 466.811L866.767 449.064Z" fill="#B0C2E4"/><path d="M835.142 347.699C835.287 349.203 836.587 350.309 838.046 350.168C838.252 350.148 838.451 350.104 838.639 350.04C839.8 347.196 838.013 344.761 838.013 344.761L837.985 344.746C837.355 344.985 836.697 345.211 836.045 345.435C836.007 345.448 835.969 345.461 835.931 345.474C835.373 346.031 835.059 346.837 835.142 347.699Z" fill="#1D1D1B"/><path fill-rule="evenodd" clip-rule="evenodd" d="M812.759 358.675L810.349 333.658L818.54 333.113L820.951 358.13L812.759 358.675Z" fill="#420F0F"/><path fill-rule="evenodd" clip-rule="evenodd" d="M847.305 776.242C846.49 776.242 845.83 775.582 845.83 774.767V748.846H848.78V774.767C848.78 775.582 848.12 776.242 847.305 776.242Z" fill="#FF6200"/><path fill-rule="evenodd" clip-rule="evenodd" d="M844.797 759.133C843.982 759.133 843.322 758.473 843.322 757.658V749.059H846.272V757.658C846.272 758.473 845.612 759.133 844.797 759.133Z" fill="#FF6200"/><path fill-rule="evenodd" clip-rule="evenodd" d="M850.59 765.376C849.332 765.376 848.312 764.357 848.312 763.099V748.846H852.867V763.099C852.867 764.357 851.848 765.376 850.59 765.376Z" fill="#FF6200"/><path fill-rule="evenodd" clip-rule="evenodd" d="M852.866 748.845C852.866 750.75 850.73 752.295 848.094 752.295C845.459 752.295 843.323 750.75 843.323 748.845C843.323 746.94 845.459 745.395 848.094 745.395C850.73 745.395 852.866 746.94 852.866 748.845Z" fill="#FF6200"/><path fill-rule="evenodd" clip-rule="evenodd" d="M784.367 334.634L773.216 331.232V395.928L789.079 393.136C800.828 391.067 809.428 380.91 809.53 368.981L809.553 362.674L795.67 369.184L784.367 334.634Z" fill="#420F0F"/></svg>