<?xml version="1.0" encoding="utf-8"?><!--Generator: Adobe Illustrator 27.8.0, SVG Export Plug-In . SVG Version: 6.00 Build 0)--><svg version="1.1" id="Ebene_1" xmlns="http://www.w3.org/2000/svg" xmlns:xlink="http://www.w3.org/1999/xlink" x="0px" y="0px" viewBox="0 0 1200 840" style="enable-background:new 0 0 1200 840;" xml:space="preserve"><style type="text/css">.st0{fill:#B0C2E4;}
	.st1{fill:#F7C7A1;}
	.st2{fill:#232144;}
	.st3{fill:#463EC5;}
	.st4{fill:#7070FF;}
	.st5{fill:#F7E5CD;}
	.st6{fill:#A86554;}
	.st7{fill:#FFFFFF;}
	.st8{fill:#572B20;}
	.st9{fill:#040203;}
	.st10{fill:#020204;}
	.st11{fill:#ABB8B9;}</style><g><path class="st0" d="M1100.64,50.25H518.37c-26.68,0-48.39,21.71-48.39,48.39V824h15.13v-76.18h648.8V824h15.13V98.65
		C1149.03,71.96,1127.32,50.25,1100.64,50.25z M485.1,732.83V98.65c0-18.34,14.92-33.26,33.26-33.26h582.27
		c18.34,0,33.26,14.92,33.26,33.26v634.18H485.1z"/><path class="st0" d="M1100.64,50.25H518.37c-26.68,0-48.39,21.71-48.39,48.39V824h15.13v-76.18h648.8V824h15.13V98.65
		C1149.03,71.96,1127.32,50.25,1100.64,50.25z M485.1,732.83V98.65c0-18.34,14.92-33.26,33.26-33.26h582.27
		c18.34,0,33.26,14.92,33.26,33.26v634.18H485.1z"/></g><path class="st1" d="M276.74,430.23c-1.26,0-2.46-0.31-3.53-0.91c-2.41-1.36-4.04-4.15-4.37-7.46c-0.58-5.87,2.99-12.22,8.89-15.81
	c1.37-0.83,2.8-1.51,4.26-2.06c-9.29-28.27-33.87-52.1-64.34-61.77c-30.32-9.63-65.58-5.84-96.75,10.39l-0.98-1.89
	c31.66-16.49,67.52-20.33,98.37-10.53c31.11,9.88,56.21,34.22,65.71,63.12c3.99-1.19,8.04-1.55,11.45-1.71
	c7.46-0.34,15.1,0.17,22.48,0.68c13.33,0.91,27.11,1.85,39.76-2.43c2.01-0.68,5.59-2.12,8.53-4.57c-2.32-0.65-4.62-1.74-6.51-3.54
	c-2.09-1.99-3.33-5.04-3.24-7.96c0.08-2.36,1.01-4.41,2.65-5.77c2.3-1.93,5.44-2.05,8.39-0.34c3.3,1.91,6.23,6.16,5.45,10.59
	c-0.38,2.18-1.3,4.06-2.51,5.67c0.88,0.1,1.8,0.18,2.79,0.22c13.64,0.59,27.61-3.91,38.33-12.36c2.57-2.03,5.12-4.37,7.58-6.64
	c7.28-6.7,14.81-13.62,24.72-14.29c11.79-0.8,20.96,7.45,29.83,15.42c2.96,2.66,6.03,5.42,9.11,7.75
	c11.88,8.98,27.68,13.96,49.71,15.68l-0.17,2.12c-22.46-1.75-38.61-6.87-50.83-16.1c-3.16-2.38-6.26-5.17-9.25-7.87
	c-8.54-7.68-17.36-15.62-28.26-14.88c-9.16,0.62-16.41,7.28-23.42,13.73c-2.49,2.29-5.07,4.66-7.71,6.74
	c-11.11,8.77-25.59,13.43-39.74,12.81c-1.31-0.06-2.81-0.17-4.38-0.43c-3.41,3.33-7.94,5.19-10.39,6.02
	c-13.06,4.41-27.05,3.45-40.59,2.53c-7.33-0.5-14.9-1.02-22.24-0.67c-3.27,0.15-7.14,0.5-10.91,1.62c0.48,1.6,0.92,3.22,1.3,4.85
	c1.03,4.36,1.82,9.43-0.22,13.93c-1.18,2.61-3.61,4.78-6.34,5.68C278.5,430.08,277.61,430.23,276.74,430.23z M282.62,406.01
	c-1.3,0.5-2.58,1.1-3.79,1.85c-4.34,2.64-8.46,7.93-7.88,13.78c0.26,2.63,1.5,4.8,3.3,5.82c1.64,0.93,3.34,0.68,4.48,0.3
	c2.18-0.71,4.12-2.45,5.06-4.53c1.77-3.92,1.04-8.55,0.09-12.57C283.5,409.11,283.08,407.55,282.62,406.01z M363.33,378.59
	c-0.92,0-1.91,0.26-2.84,1.04c-1.49,1.24-1.85,2.98-1.89,4.21c-0.07,2.33,0.91,4.77,2.58,6.35c1.69,1.61,3.92,2.7,6.86,3.33
	c1.38-1.56,2.44-3.43,2.83-5.65c0.61-3.43-1.83-6.88-4.42-8.38C365.84,379.15,364.66,378.59,363.33,378.59z"/><path class="st2" d="M1078.34,148.46l-70.08-50.9c-1.54-1.12-3.26-1.87-5.03-2.26V83.27c9.91-1.42,17.56-9.96,17.56-20.26v-1.22
	c0-10.68-8.69-19.37-19.37-19.37c-10.68,0-19.37,8.69-19.37,19.37h5.82c0-7.47,6.08-13.55,13.55-13.55s13.55,6.08,13.55,13.55V63
	c0,8.08-6.57,14.65-14.65,14.65h-2.91V95.3c-1.77,0.39-3.49,1.14-5.03,2.26l-70.08,50.9c-4.83,3.51-6.75,9.44-4.91,15.11
	c1.84,5.67,6.89,9.34,12.85,9.34h140.15c5.96,0,11.01-3.67,12.85-9.34C1085.09,157.89,1083.16,151.96,1078.34,148.46z
	 M1077.71,161.77c-0.83,2.57-3.2,5.32-7.32,5.32H930.24c-4.12,0-6.48-2.75-7.32-5.32c-0.83-2.57-0.54-6.18,2.8-8.6l70.07-50.9
	c2.71-1.96,6.34-1.96,9.04,0l70.08,50.9C1078.25,155.59,1078.55,159.2,1077.71,161.77z"/><path class="st3" d="M971.72,111.84l-50.63,33.83c-23.13,15.45-37.01,41.43-37.01,69.24v133.43h44.59L936.36,212v185.52h130.93V212
	l7.69,185.69h52.28l-7.69-182.78c0-27.81-13.88-53.79-37.01-69.24l-50.63-33.83l-30.51,62.12l-33.3-62.12H971.72z"/><path class="st4" d="M968.12,111.84l99.17,157.37v128.32l-130.93,0.17v-181.6l-7.69,181.6h-54.35l9.76-187.08
	c0-23.19,11.03-45,29.7-58.76L968.12,111.84z"/><rect x="261.72" y="813.04" class="st2" width="57.46" height="10.96"/><path class="st5" d="M261.72,813.04c0-13.86,12.86-25.1,28.73-25.1s28.73,11.24,28.73,25.1H261.72z"/><rect x="81.21" y="810.5" class="st2" width="100.79" height="13.5"/><path class="st5" d="M182,810.47V790.6l-3.33,1.09c-14.08,4.61-29.48,2.78-42.09-5.02l-1.5-0.93l-45.65,13.64
	c-4.88,1.48-8.22,5.98-8.22,11.09l0,0H182z"/><polygon class="st2" points="172.14,356.14 105.83,794.77 185.29,794.77 242.11,392.43 251.04,392.4 251.04,794.77 330.71,794.77 
	322.54,344.38 322.54,320.08 174.02,320.08 "/><polygon class="st5" points="185.29,150.35 228.42,138.87 275.86,138.87 325.03,150.35 325.03,324.62 185.29,324.62 185.29,150.35 
	"/><path class="st2" d="M147.6,241.75c0.25-15.81-4.1-40.37-0.95-55.86l0,0c4.75-33.21,28.89-35.53,28.89-35.53l14.56,52.73
	L147.6,241.75z"/><polygon class="st2" points="244.15,424.77 156.13,424.77 175.29,150.35 227.25,138.84 "/><polygon class="st2" points="260.93,424.77 335.97,424.77 331.35,150.65 275.92,138.87 "/><path class="st6" d="M227.22,149.14V111.3h48.71v37.84c0,9.9-8.02,17.92-17.92,17.92h-12.86
	C235.25,167.06,227.22,159.04,227.22,149.14z"/><path class="st2" d="M356.94,184.69c1.34-17.79-12-33.3-29.79-34.64c-17.79-1.34-33.3,12-34.64,29.79s20.38,45.22,20.38,45.22
	S355.6,202.48,356.94,184.69z"/><path class="st2" d="M356.64,176.48l17.59,79.63c1.45,11.5-12.39,10.56-47.18,19.08l-2.3-6.05l-30.48-84.99L356.64,176.48z"/><path class="st2" d="M141.76,289.75c-2.41-5.93-2.89-16.67-2.28-25.16l6.5-71.34l52.94,7.58l-21.63,73.05l0,0l32.75,74.56
	l-36.37,30.18L141.76,289.75z"/><path class="st2" d="M988.65,148.46l-70.08-50.9c-1.54-1.12-3.26-1.87-5.03-2.26V83.27c9.91-1.42,17.56-9.96,17.56-20.26v-1.22
	c0-10.68-8.69-19.37-19.37-19.37c-10.68,0-19.37,8.69-19.37,19.37h5.82c0-7.47,6.08-13.55,13.55-13.55s13.55,6.08,13.55,13.55V63
	c0,8.08-6.57,14.65-14.65,14.65h-2.91V95.3c-1.77,0.39-3.49,1.14-5.03,2.26l-70.08,50.9c-4.83,3.51-6.75,9.44-4.91,15.11
	c1.84,5.67,6.89,9.34,12.85,9.34h140.15c5.97,0,11.01-3.67,12.85-9.34C995.41,157.89,993.48,151.96,988.65,148.46z M988.03,161.77
	c-0.83,2.57-3.2,5.32-7.32,5.32H840.56c-4.12,0-6.48-2.75-7.32-5.32c-0.83-2.57-0.54-6.18,2.8-8.6l70.07-50.9
	c2.71-1.96,6.34-1.96,9.04,0l70.08,50.9C988.57,155.59,988.86,159.2,988.03,161.77z"/><polygon class="st7" points="292.84,142.84 275.93,138.87 251.44,166.6 227.25,138.84 210.04,142.84 241.17,192.89 251.44,168.04 
	261.71,192.89 "/><polygon class="st3" points="244.15,424.77 205.14,216.78 216.54,196.25 201.92,196.25 209.25,142.82 227.24,138.84 "/><polygon class="st3" points="260.93,424.77 297.34,216.78 285.94,196.25 300.56,196.25 293.2,142.54 275.92,138.87 "/><path class="st6" d="M282.58,83.94c-0.03,0-0.06,0-0.1,0V64.3c0-14.15-11.47-25.62-25.62-25.62h-12.17
	c-14.15,0-25.62,11.47-25.62,25.62v19.65c-0.03,0-0.06,0-0.09,0c-5.33,0-9.65,4.32-9.65,9.66s4.32,9.66,9.65,9.66
	c0.03,0,0.06,0,0.09,0V108c0,14.15,11.47,25.62,25.62,25.62h12.17c14.15,0,25.62-11.47,25.62-25.62v-4.75c0.03,0,0.06,0,0.1,0
	c5.33,0,9.65-4.32,9.65-9.66S287.91,83.94,282.58,83.94z"/><path class="st8" d="M256.33,73.22c5.89-7.18,15.62-8.07,21.48,0H256.33z"/><path class="st8" d="M244.89,78.94c-5.89-7.18-15.62-8.07-21.48,0H244.89z"/><path class="st8" d="M219.07,128.76c0,16.42,13.31,29.72,29.72,29.72h3.97c16.42,0,29.72-13.31,29.72-29.72V80.57h-3.45v26.07
	h-56.33V80.57h-3.63V128.76z"/><path class="st9" d="M250.7,104.86c-1.49,0-2.67-0.74-3.7-1.39c-1.71-1.07-2.74-1.72-4.79,0.34l-1.34-1.34
	c3.12-3.12,5.35-1.73,7.13-0.61c0.9,0.57,1.75,1.1,2.7,1.1c0.97,0,1.77-0.49,2.62-1.01c1.7-1.04,3.81-2.34,7.31,0.57l-1.21,1.46
	c-2.46-2.04-3.52-1.39-5.12-0.41C253.32,104.17,252.2,104.86,250.7,104.86z"/><path class="st5" d="M287.26,92.26l-2.42-9.31c-0.78-3.01-3.49-5.1-6.59-5.1h-19.46c-3.29,0-6.04,2.34-6.67,5.45h-3.02
	c-0.64-3.11-3.39-5.45-6.67-5.45h-19.46c-3.1,0-5.81,2.1-6.59,5.1l-2.42,9.31c-0.58,2.23,0,4.59,1.55,6.3
	c1.31,1.44,3.13,2.24,5.04,2.24c0.36,0,0.71-0.03,1.07-0.08l21.88-3.46c3.33-0.53,5.75-3.36,5.75-6.74v-3.92h2.74v3.92
	c0,3.38,2.42,6.21,5.75,6.74l21.88,3.46c0.36,0.06,0.72,0.08,1.07,0.08c1.91,0,3.73-0.8,5.04-2.24
	C287.27,96.85,287.84,94.5,287.26,92.26z M245.68,90.52c0,1.62-1.16,2.97-2.75,3.22l-21.88,3.46c-1.1,0.18-2.17-0.2-2.92-1.03
	c-0.75-0.83-1.02-1.93-0.74-3.01l2.42-9.31c0.37-1.44,1.67-2.44,3.15-2.44h19.46c1.8,0,3.26,1.46,3.26,3.26V90.52z M283.08,96.17
	c-0.75,0.83-1.82,1.21-2.92,1.03l-21.88-3.46c-1.59-0.25-2.75-1.61-2.75-3.22v-5.85c0-1.8,1.46-3.26,3.26-3.26h19.46
	c1.48,0,2.78,1,3.16,2.44l2.42,9.31C284.11,94.24,283.84,95.34,283.08,96.17z"/><path class="st8" d="M268.87,24.21c-2.18,0-4.26,0.38-6.22,1.04c-1.92-5.39-7.05-9.26-13.09-9.26c-5.8,0-10.76,3.55-12.85,8.6
	c-8.84,1.77-15.49,9.58-15.49,18.94c0,10.67,8.65,19.33,19.31,19.33c5.61,0,10.64-2.41,14.17-6.23c3.53,3.82,8.56,6.23,14.17,6.23
	c10.66,0,19.31-8.65,19.31-19.33S279.53,24.21,268.87,24.21z"/><path class="st7" d="M259.37,89.57c0.37,1.86,3.72,2.76,7.47,2c3.75-0.75,6.49-2.87,6.12-4.73c-0.37-1.86-3.72-2.76-7.47-2
	C261.74,85.59,259,87.71,259.37,89.57"/><path class="st10" d="M266.81,88.24c0,1.9,1.54,3.44,3.44,3.44c1.9,0,3.44-1.54,3.44-3.44s-1.54-3.44-3.44-3.44
	C268.35,84.8,266.81,86.34,266.81,88.24"/><path class="st7" d="M243.27,89.57c-0.37,1.86-3.72,2.76-7.47,2c-3.75-0.75-6.49-2.87-6.12-4.73c0.37-1.86,3.72-2.76,7.47-2
	C240.9,85.59,243.64,87.71,243.27,89.57"/><path class="st10" d="M243.52,88.24c0,1.9-1.54,3.44-3.44,3.44c-1.9,0-3.44-1.54-3.44-3.44s1.54-3.44,3.44-3.44
	C241.98,84.8,243.52,86.34,243.52,88.24"/><path class="st6" d="M427.36,331.67l36.09,19.94c2.32,1.28,5.25,0.44,6.53-1.88l0.05-0.08c1.29-2.32,0.44-5.25-1.88-6.54
	l-36.09-19.94L427.36,331.67z"/><polygon class="st6" points="437.1,354.36 442.86,329.33 412.08,300.76 399.78,323.18 "/><path class="st6" d="M433.08,337.9l40.76,28.25c2.2,1.53,5.23,0.98,6.76-1.22v0c1.53-2.2,0.98-5.23-1.22-6.76l-40.76-28.25
	L433.08,337.9z"/><path class="st6" d="M432.88,345.58l41.52,28.75c2.2,1.53,5.23,0.98,6.76-1.23l0,0c1.53-2.21,0.98-5.23-1.23-6.76l-41.52-28.75
	L432.88,345.58z"/><path class="st6" d="M437.33,340.75l31.9,17.62c2.19,1.21,4.95,0.42,6.16-1.78l0.31-0.56c1.21-2.19,0.42-4.95-1.78-6.17l-31.9-17.62
	L437.33,340.75z"/><path class="st5" d="M952.75,333.53l11.35-130.55l-107.61-26.13L806.7,298.06c-8.75,21.3-14.22,43.81-16.21,66.75l-11.35,130.55
	l50.06,12.16l60.55-249.33l7.49,1.82l-60.55,249.33l50.06,12.16l49.79-121.22C945.29,378.97,950.76,356.47,952.75,333.53z"/><rect x="779.71" y="490.58" transform="matrix(0.9718 0.236 -0.236 0.9718 139.8214 -176.0706)" class="st5" width="51.52" height="11.01"/><rect x="796.4" y="468.38" transform="matrix(0.236 -0.9718 0.9718 0.236 131.0199 1161.5332)" class="st1" width="15.6" height="58.12"/><rect x="856.04" y="482.82" transform="matrix(0.236 -0.9718 0.9718 0.236 162.5557 1230.5189)" class="st1" width="15.6" height="58.12"/><path class="st1" d="M956.66,288.61l-36.44-8.85l-1.86,25.4c-1.4,19.06,11.19,36.33,29.76,40.84l3.09,0.75L956.66,288.61z"/><path class="st1" d="M823.71,256.32l36.44,8.85l-10,23.42c-7.5,17.58-26.61,27.15-45.18,22.64l-3.09-0.75L823.71,256.32z"/><rect x="952.14" y="161.76" class="st11" width="9.74" height="22.5"/><path class="st2" d="M674.84,148.46l-70.08-50.9c-1.54-1.12-3.26-1.87-5.03-2.26V83.27c9.91-1.42,17.56-9.96,17.56-20.26v-1.22
	c0-10.68-8.69-19.37-19.37-19.37c-10.68,0-19.37,8.69-19.37,19.37h5.82c0-7.47,6.08-13.55,13.55-13.55
	c7.47,0,13.55,6.08,13.55,13.55V63c0,8.08-6.57,14.65-14.65,14.65h-2.91V95.3c-1.77,0.39-3.49,1.14-5.03,2.26l-70.08,50.9
	c-4.83,3.51-6.75,9.44-4.91,15.11c1.84,5.67,6.89,9.34,12.85,9.34h140.15c5.97,0,11.01-3.67,12.85-9.34
	C681.59,157.89,679.66,151.96,674.84,148.46z M674.21,161.77c-0.83,2.57-3.2,5.32-7.32,5.32H526.74c-4.12,0-6.48-2.75-7.32-5.32
	c-0.83-2.57-0.54-6.18,2.8-8.6l70.07-50.9c2.71-1.96,6.34-1.96,9.04,0l70.08,50.9C674.75,155.59,675.05,159.2,674.21,161.77z"/><path class="st2" d="M775.71,148.46l-70.08-50.9c-1.54-1.12-3.26-1.87-5.03-2.26V83.27c9.91-1.42,17.56-9.96,17.56-20.26v-1.22
	c0-10.68-8.69-19.37-19.37-19.37c-10.68,0-19.37,8.69-19.37,19.37h5.82c0-7.47,6.08-13.55,13.55-13.55
	c7.47,0,13.55,6.08,13.55,13.55V63c0,8.08-6.57,14.65-14.65,14.65h-2.91V95.3c-1.77,0.39-3.49,1.14-5.03,2.26l-70.08,50.9
	c-4.83,3.51-6.75,9.44-4.91,15.11c1.84,5.67,6.89,9.34,12.85,9.34h140.15c5.97,0,11.01-3.67,12.85-9.34
	C782.46,157.89,780.54,151.96,775.71,148.46z M775.09,161.77c-0.83,2.57-3.2,5.32-7.32,5.32H627.62c-4.12,0-6.48-2.75-7.32-5.32
	c-0.83-2.57-0.54-6.18,2.8-8.6l70.07-50.9c2.71-1.96,6.34-1.96,9.04,0l70.08,50.9C775.63,155.59,775.92,159.2,775.09,161.77z"/><path class="st2" d="M876.59,148.46l-70.08-50.9c-1.54-1.12-3.26-1.87-5.03-2.26V83.27c9.91-1.42,17.56-9.96,17.56-20.26v-1.22
	c0-10.68-8.69-19.37-19.37-19.37c-10.68,0-19.37,8.69-19.37,19.37h5.82c0-7.47,6.08-13.55,13.55-13.55s13.55,6.08,13.55,13.55V63
	c0,8.08-6.57,14.65-14.65,14.65h-2.91V95.3c-1.77,0.39-3.49,1.14-5.03,2.26l-70.08,50.9c-4.83,3.51-6.75,9.44-4.91,15.11
	c1.84,5.67,6.89,9.34,12.85,9.34h140.15c5.97,0,11.01-3.67,12.85-9.34C883.34,157.89,881.41,151.96,876.59,148.46z M875.96,161.77
	c-0.83,2.57-3.2,5.32-7.32,5.32H728.49c-4.12,0-6.48-2.75-7.32-5.32c-0.83-2.57-0.54-6.18,2.8-8.6l70.07-50.9
	c2.71-1.96,6.34-1.96,9.04,0l70.08,50.9C876.5,155.59,876.8,159.2,875.96,161.77z"/><rect x="861.59" y="161.76" class="st11" width="9.74" height="22.5"/><rect x="734.75" y="178.21" class="st3" width="127.64" height="31.51"/><polygon class="st3" points="811.35,278.86 797.76,278.86 798.55,209.46 810.56,209.46 "/><polygon class="st4" points="823.33,278.86 809.74,278.86 810.53,209.46 822.54,209.46 "/><polygon class="st3" points="835.3,278.86 821.71,278.86 822.5,209.46 834.51,209.46 "/><polygon class="st4" points="847.28,278.86 833.69,278.86 834.48,209.46 846.49,209.46 "/><polygon class="st3" points="859.25,278.86 845.66,278.86 846.45,209.46 858.46,209.46 "/><polygon class="st4" points="751.48,278.86 737.88,278.86 738.67,209.46 750.68,209.46 "/><polygon class="st3" points="763.45,278.86 749.86,278.86 750.65,209.46 762.66,209.46 "/><polygon class="st4" points="775.43,278.86 761.83,278.86 762.62,209.46 774.64,209.46 "/><polygon class="st3" points="787.4,278.86 773.81,278.86 774.6,209.46 786.61,209.46 "/><polygon class="st4" points="799.38,278.86 785.78,278.86 786.58,209.46 798.59,209.46 "/><circle class="st4" cx="854.45" cy="187.63" r="2.64"/><polygon class="st3" points="738.49,209.46 739.28,278.86 726.08,278.86 734.5,209.46 "/><path class="st2" d="M440.69,360.83c-1.07,0.47-1.54,1.73-1.05,2.78c0.49,1.06,1.76,1.5,2.81,0.98l78.58-39.08L440.69,360.83z
	 M444.46,362.23c-1.77,0.83-3.36,1.18-3.54,0.79c-0.18-0.39,1.1-1.39,2.87-2.22s3.36-1.18,3.54-0.79
	C447.52,360.41,446.23,361.4,444.46,362.23z"/><circle class="st4" cx="854.45" cy="199.87" r="2.64"/><rect x="837.94" y="161.76" class="st11" width="9.74" height="22.5"/><rect x="747.38" y="161.76" class="st11" width="9.74" height="22.5"/><path class="st5" d="M747.38,121.53h-10.95c0,0-1.08,48.88-42.91,90.71c-41.83-41.83-42.91-90.71-42.91-90.71h-10.95v170.46
	l-15.61,92.16c-5.1,30.13-6.63,60.77-4.54,91.26l20.15,294.2h107.72l20.15-294.2c2.09-30.49,0.56-61.12-4.54-91.26l-15.61-92.16
	V121.53z"/><path class="st2" d="M955.31,727.97c2.1,3.05,5.57,4.86,9.27,4.86h40.61c1.96,0,3.55-1.59,3.55-3.55l0,0c0-1.39-0.81-2.65-2.08-3.23
	l-27.89-12.73v0c-9.77,2.98-20.33-0.86-25.9-9.42l-24.38-37.44l-4.46,5.97c-5.05,6.76-4.4,14.35-4.4,23.61l0,0v36.78h10.08v-31.15
	c0-1.45,1.18-2.63,2.63-2.63l0,0c0.83,0,1.61,0.39,2.11,1.06L955.31,727.97z"/><path class="st6" d="M427.07,332.98l10.66,37.55c0.72,2.54,3.36,4.02,5.9,3.3l0.65-0.18c2.54-0.72,4.01-3.36,3.29-5.9l-10.66-37.55
	L427.07,332.98z"/><path class="st2" d="M895.85,727.97c2.1,3.05,5.57,4.86,9.27,4.86h40.61c1.96,0,3.55-1.59,3.55-3.55l0,0c0-1.39-0.81-2.65-2.08-3.23
	l-27.89-12.73v0c-9.77,2.98-20.33-0.86-25.9-9.42l-24.38-37.44l-4.46,5.97c-5.05,6.76-4.4,14.35-4.4,23.61l0,0v36.78h10.08v-31.15
	c0-1.45,1.18-2.63,2.63-2.63l0,0c0.83,0,1.61,0.39,2.11,1.06L895.85,727.97z"/><polygon class="st3" points="542.88,291.99 486.78,368.31 706.71,368.31 650.61,291.99 650.61,121.53 639.66,121.53 639.66,189.95 
	596.75,214.06 553.83,189.95 553.83,121.53 542.88,121.53 "/><polygon class="st2" points="364.74,240.03 442.86,320.17 407.02,356.92 325.98,278 "/><polygon class="st4" points="858.43,209.46 857.64,278.86 870.83,278.86 862.42,209.46 "/></svg>