<?xml version="1.0" encoding="utf-8"?><!--Generator: Adobe Illustrator 27.8.0, SVG Export Plug-In . SVG Version: 6.00 Build 0)--><svg version="1.1" xmlns="http://www.w3.org/2000/svg" xmlns:xlink="http://www.w3.org/1999/xlink" x="0px" y="0px" viewBox="0 0 1200 840" style="enable-background:new 0 0 1200 840;" xml:space="preserve"><style type="text/css">.st0{fill:#E3F0FF;}
	.st1{fill:#1C4475;}
	.st2{fill:#88A8E1;}
	.st3{fill:#33588B;}
	.st4{fill:#FF9D8A;}
	.st5{fill:#ADC2E7;}
	.st6{fill:#F93C00;}
	.st7{fill:#242046;}
	.st8{fill:#FFFFFF;}
	.st9{fill:#FF9B88;}
	.st10{fill:#FF7B65;}
	.st11{fill:#746BFF;}
	.st12{fill:#020204;}
	.st13{fill:#FB013D;}
	.st14{fill:#6E2100;}
	.st15{fill:#6D8EC5;}</style><g id="Car_inside"><path class="st0" d="M844.02,200.69C820.9,130.18,760.92,96.2,691.51,96.2l-349.96,0.03c-72.44,0-129.29,38.1-149.95,112.92
		l-11.73,42.47h680.85L844.02,200.69z"/><path class="st1" d="M860.72,251.62H748.94c3.61-4.41,5.78-10.05,5.78-16.2v-4.99c0-14.13-11.46-25.59-25.59-25.59h-61.93
		c-14.13,0-25.59,11.46-25.59,25.59v4.99c0,6.15,2.17,11.79,5.78,16.2h-76.47c3.61-4.41,5.78-10.05,5.78-16.2v-4.99
		c0-14.13-11.46-25.59-25.59-25.59H489.2c-14.13,0-25.59,11.46-25.59,25.59v4.99c0,6.15,2.17,11.79,5.78,16.2h-83.87
		c3.61-4.41,5.78-10.05,5.78-16.2v-4.99c0-14.13-11.46-25.59-25.59-25.59h-61.93c-14.13,0-25.59,11.46-25.59,25.59v4.99
		c0,6.15,2.17,11.79,5.78,16.2H179.87l-10.09,62.01h708.56L860.72,251.62z"/><path class="st2" d="M556.08,148.17h-74.75c-5.05,0-9.15-4.1-9.15-9.15v-18.41c0-4.74,3.84-8.58,8.58-8.58h75.96
		c4.81,0,8.7,3.9,8.7,8.7v18.09C565.43,143.99,561.24,148.17,556.08,148.17z"/><path class="st3" d="M430.94,261.16c0-13.69-11.1-24.78-24.78-24.78h-34.19v-10.94c11.11-2.79,19.33-12.84,19.33-24.82v-4.99
		c0-14.13-11.46-25.59-25.59-25.59h-61.93c-14.13,0-25.59,11.46-25.59,25.59v4.99c0,11.62,7.75,21.43,18.37,24.55v11.21h-35.15
		c-14.22,0-25.75,11.53-25.75,25.75l-0.73,51.5h196.73L430.94,261.16z M304.3,226.2h59.94v10.17H304.3V226.2z"/><path class="st3" d="M796.8,261.16c0-13.69-11.1-24.78-24.78-24.78h-34.19v-10.94c11.11-2.79,19.33-12.84,19.33-24.82v-4.99
		c0-14.13-11.46-25.59-25.59-25.59h-61.93c-14.13,0-25.59,11.46-25.59,25.59v4.99c0,11.62,7.75,21.43,18.37,24.55v11.21h-35.15
		c-14.22,0-25.75,11.53-25.75,25.75l-0.73,51.5h196.73L796.8,261.16z M670.16,226.2h59.94v10.17h-59.94V226.2z"/></g><g id="Woman"><path class="st4" d="M1060.97,302.5L1060.97,302.5c-3.28-1.49-4.73-5.36-3.23-8.64l13.82-30.35c1.49-3.28,5.36-4.73,8.64-3.23v0
		c3.28,1.49,4.73,5.36,3.23,8.64l-13.82,30.35C1068.12,302.54,1064.25,303.99,1060.97,302.5z"/><polygon class="st4" points="1044.8,319.95 942.88,319.59 938.05,268.84 1043.47,289.77 1043.95,299.62 	"/><path class="st5" d="M1183.54,257.8l-7.78-37.23c-2.43-11.65-13.88-19.12-25.57-16.68l-62.58,13.07
		c-11.69,2.44-19.19,13.87-16.76,25.52l5.51,26.37l-45.74,10.3l0.16,32.45l136.2-28.2l-0.28-0.06l0.08-0.02
		C1178.47,280.88,1185.98,269.45,1183.54,257.8z"/><rect x="657.8" y="181.37" class="st6" width="5.59" height="19.08"/><rect x="735.93" y="181.37" class="st6" width="5.59" height="19.46"/><path class="st7" d="M776.7,332.29l225.12-0.74v-56.53L786.3,243.83c-1.66-0.35-3.36-0.61-5.1-0.74c-1.94-0.15-3.85-0.14-5.73-0.01
		H619.27l0,0.02c-0.59,0.02-1.18,0.04-1.77,0.09c-15.55,1.17-28.23,11.45-33.23,25.21h0l-24.47,51.74L776.7,332.29z"/><circle class="st4" cx="661.19" cy="181.32" r="11.18"/><rect x="670.37" y="243.11" class="st8" width="64.45" height="79.22"/><circle class="st9" cx="741" cy="181.32" r="11.18"/><path class="st10" d="M727.88,247.19v-35.85l-55.25-0.2v36.05c0,15.26,12.37,27.63,27.63,27.63h0
		C715.51,274.82,727.88,262.45,727.88,247.19z"/><path class="st4" d="M663.23,200.39v-49.15c0-16.76,13.58-30.34,30.34-30.34h12.03c16.76,0,30.34,13.58,30.34,30.34v49.15
		c0,16.76-13.58,30.34-30.34,30.34h-12.03C676.81,230.73,663.23,217.15,663.23,200.39z"/><path class="st6" d="M667.24,169.35l13.46-11.33c4.02-3.39,10.39-2.73,12.29,1.44c0.07,0.15,0.13,0.3,0.18,0.45v0L667.24,169.35z"/><path class="st6" d="M729.46,170.08L716,158.75c-4.02-3.39-10.39-2.73-12.29,1.44c-0.07,0.15-0.13,0.3-0.18,0.45l0,0L729.46,170.08
		z"/><polygon class="st11" points="655.59,243.11 638.77,294.05 658.96,296.29 638.77,318.72 683.93,447.66 672.63,243.11 	"/><polygon class="st11" points="745.06,242.99 761.88,293.93 741.69,296.17 761.88,318.59 711.13,447.53 727.95,242.99 	"/><path class="st12" d="M698.71,193.23c-0.14,0-0.28-0.01-0.42-0.02c-1.38-0.15-2.54-0.9-3.56-1.56c-1.86-1.2-2.56-1.53-3.62-0.02
		l-1.27-0.89c1.98-2.81,4.06-1.48,5.74-0.4c0.92,0.59,1.88,1.21,2.89,1.32c1.08,0.11,2.05-0.58,3-1.24
		c1.02-0.71,2.07-1.45,3.29-1.23c0.8,0.14,1.51,0.68,2.18,1.64l-1.28,0.89c-0.41-0.6-0.81-0.93-1.18-1
		c-0.58-0.1-1.33,0.42-2.12,0.98C701.31,192.41,700.15,193.23,698.71,193.23z"/><path class="st13" d="M700.36,207.12c1.69,2.01,4.33,4.89,10.71,4.11c5.89-0.72,7.43-5.16,8.72-7.82c0.58-1.14,0.76-2.07,0.61-2.04
		c-3.32,0.59-3.96-2-6.45-2.13c-1.16-0.06-3.8,1.21-4.44,2.66c-1.11-1.18-3.83-1.42-5.43-0.47c-2.52,1.49-0.45,2.83-4.92,4.11
		L700.36,207.12z"/><polygon class="st4" points="640.39,320.15 651.35,320.15 675.35,320.15 679.11,301.31 668.91,301.31 	"/><path class="st14" d="M696.17,459.02c-49.01,0-88.89-39.87-88.89-88.89s39.87-88.89,88.89-88.89s88.89,39.87,88.89,88.89
		S745.18,459.02,696.17,459.02z M696.17,301.6c-37.79,0-68.54,30.75-68.54,68.54s30.75,68.54,68.54,68.54s68.54-30.75,68.54-68.54
		S733.96,301.6,696.17,301.6z"/><circle class="st4" cx="660.8" cy="286.9" r="6.53"/><circle class="st4" cx="679.11" cy="301.31" r="6.53"/><circle class="st4" cx="650.75" cy="292.23" r="6.53"/><circle class="st4" cx="641.85" cy="298.33" r="6.53"/><circle class="st4" cx="635.68" cy="306.16" r="6.53"/><path class="st6" d="M709.43,115.7h-19.88c-17.69,0-32.03,17.64-32.03,35.33v33.63h5.73V169.5c0-13.99,9.6-25.69,22.48-28.77
		l0.05,0.1c2.72,4.92,7.89,7.97,13.51,7.97h28.07c5.17,5.33,8.37,12.64,8.37,20.71v15.16h5.73v-33.63
		C741.46,133.33,727.12,115.7,709.43,115.7z"/><path class="st4" d="M1085.86,300.86l-4.26-14.89c-0.99-3.46-4.6-5.47-8.07-4.48c-2.31,0.66-3.97,2.49-4.52,4.66l-2.43-8.5
		c-0.99-3.46-4.6-5.47-8.07-4.48c-2.31,0.66-3.96,2.49-4.52,4.66l-0.53-1.85c-0.99-3.46-4.6-5.47-8.07-4.48
		c-3.46,0.99-5.47,4.6-4.48,8.07l1.52,5.31c-1.62-1.55-3.99-2.22-6.3-1.56c-3.46,0.99-5.47,4.6-4.48,8.07l6.82,23.83
		c0.99,3.46,4.6,5.47,8.07,4.48c2.71-0.78,4.52-3.15,4.71-5.81c1.59,2.01,4.29,2.97,6.91,2.22c2.71-0.78,4.52-3.15,4.71-5.81
		c1.59,2.01,4.29,2.97,6.91,2.22c2.71-0.78,4.52-3.15,4.71-5.81c1.59,2.01,4.29,2.97,6.91,2.22
		C1084.85,307.94,1086.85,304.33,1085.86,300.86z"/><path class="st8" d="M687.02,179.98c0,0-1.38-6.88-6.61-8.65c-5.23-1.77-10.96,1.16-10.96,1.16s2.76,5.61,7.99,7.38
		S687.02,179.98,687.02,179.98z"/><path class="st12" d="M687.02,179.99c-6.31-9.29-13.35-7.86-16.99-6.18l-1.3-2.83c3.65-1.68,12.99-4.35,20.87,7.26L687.02,179.99z"/><path class="st8" d="M726.72,174c0,0-5.04-4-10.27-2.22c-5.23,1.77-6.75,8.38-6.75,8.38s4.08,1.57,9.13,0.01
		C718.82,180.17,724.01,178.26,726.72,174z"/><path class="st12" d="M685.33,180.42c0.53-0.98,0.67-2.17,0.27-3.31c-0.75-2.16-3.11-3.31-5.28-2.56
		c-2.16,0.75-3.31,3.11-2.56,5.28c0.02,0.06,0.05,0.11,0.08,0.16C680.93,180.94,683.67,180.73,685.33,180.42z"/><path class="st12" d="M720.78,174.1c-2.16,0.75-3.31,3.11-2.56,5.28c0.11,0.3,0.25,0.58,0.41,0.84c0.06-0.02,0.12-0.03,0.18-0.05
		c0,0,3.87-1.43,6.68-4.57C724.45,174.15,722.56,173.48,720.78,174.1z"/><path class="st12" d="M709.74,180.23l-2.58-1.75c7.88-11.61,17.22-8.95,20.87-7.26l-1.3,2.83
		C723.09,172.37,716.05,170.94,709.74,180.23z"/></g><g id="Car"><path class="st7" d="M70.94,719.36V523.32c0-5.48,4.44-9.92,9.92-9.92h104.98c5.48,0,9.92,4.44,9.92,9.92v196.04
		c0,20.7-16.78,37.47-37.47,37.47h-49.86C87.72,756.83,70.94,740.06,70.94,719.36z"/><path class="st7" d="M846.93,719.36V523.32c0-5.48,4.44-9.92,9.92-9.92h104.98c5.48,0,9.92,4.44,9.92,9.92v196.04
		c0,20.7-16.78,37.47-37.47,37.47h-49.86C863.71,756.83,846.93,740.06,846.93,719.36z"/><path class="st5" d="M958.1,400.98l-47.48-89.42l-42.85-110.73C842.77,130.31,775.9,83.17,700.88,83.17H332.16
		c-78.31,0-147.3,51.3-169.64,126.12l-16.68,55.87h-22.68v-5.49c0-11.9-9.68-21.55-21.62-21.55H37.62
		c-11.94,0-21.62,9.65-21.62,21.55v38.04c0,11.9,9.68,21.55,21.62,21.55h58.31v0.08h32.02l-43.35,81.64
		c-14.99,28.23-22.83,59.7-22.83,91.64v108.67c0,46.07,37.46,83.41,83.67,83.41h374.25h3.34h374.24c46.21,0,83.67-37.34,83.67-83.41
		V492.62C980.93,460.67,973.09,429.21,958.1,400.98z M169.78,313.63l10.09-62.01l11.73-42.47
		c20.66-74.82,77.51-112.92,149.95-112.92l349.96-0.03c69.4,0,129.39,33.98,152.51,104.49l16.7,50.93l17.63,62.01H169.78z"/><ellipse class="st15" cx="872.71" cy="633.77" rx="25.78" ry="25.7"/><ellipse class="st15" cx="164.43" cy="633.77" rx="25.78" ry="25.7"/><path class="st0" d="M918.82,421.98c-0.01,0-67.2-6.27-100.39,9.76c-42.12,20.35-92.35,81.01-99.85,90.25l-0.54,0.27h0.32
		c-0.48,0.59-0.74,0.92-0.74,0.92l2.84-0.92h108.63C915.27,522.27,918.82,485.72,918.82,421.98L918.82,421.98L918.82,421.98z"/><path class="st0" d="M319.24,522.27h0.32l-0.54-0.27c-7.5-9.24-57.73-69.91-99.85-90.25c-33.19-16.03-100.38-9.76-100.39-9.76l0,0
		v0c0,63.74,3.56,100.29,89.74,100.29h108.63l2.84,0.92C319.98,523.19,319.73,522.86,319.24,522.27z"/><path class="st15" d="M324.08,608.04l19.79-39.45c8.56-17.07,26.06-27.85,45.21-27.85h259.04c18.99,0,36.37,10.61,45.01,27.47
		l20.33,39.68c7.08,13.82-2.99,30.23-18.56,30.23H342.72C327.23,638.11,317.15,621.86,324.08,608.04z"/></g></svg>