<?xml version="1.0" encoding="utf-8"?><!--Generator: Adobe Illustrator 27.8.0, SVG Export Plug-In . SVG Version: 6.00 Build 0)--><svg version="1.1" xmlns="http://www.w3.org/2000/svg" xmlns:xlink="http://www.w3.org/1999/xlink" x="0px" y="0px" viewBox="0 0 1200 840" style="enable-background:new 0 0 1200 840;" xml:space="preserve"><style type="text/css">.st0{fill:#EFB84A;}
	.st1{fill:#E0B048;}
	.st2{fill:#C89920;}
	.st3{fill:#BA8808;}
	.st4{fill:#FB5442;}
	.st5{fill:#F3C361;}
	.st6{fill:#242046;}
	.st7{fill:#4C38CD;}
	.st8{fill:#242047;}
	.st9{fill:#FFFFFF;}
	.st10{fill:#ACC1E7;}
	.st11{fill:#FFD2BF;}
	.st12{fill:#950026;}
	.st13{fill:#FB003D;}
	.st14{fill:#F4B191;}
	.st15{fill:#020204;}
	.st16{fill:#48090C;}
	.st17{fill:#49080C;}
	.st18{fill:#5E91C8;}
	.st19{fill:#CDDEF4;}
	.st20{fill:#4A3392;}
	.st21{fill:#C6C6C6;}</style><g id="Boxes_on_the_floor"><rect x="890.83" y="541.47" class="st0" width="121.2" height="155.64"/><rect x="857.95" y="697.11" class="st1" width="137.86" height="126.89"/><rect x="890.83" y="604.86" class="st2" width="79.15" height="34.09"/><rect x="995.81" y="697.11" class="st3" width="137.86" height="126.89"/><rect x="1031.9" y="717.53" transform="matrix(-1.836970e-16 1 -1 -1.836970e-16 1797.3054 -334.7878)" class="st0" width="68.3" height="27.45"/><line class="st4" x1="599.43" y1="268.51" x2="599.57" y2="268.73"/><rect x="32.91" y="638.03" class="st1" width="227.3" height="185.97"/><rect x="100.55" y="666.73" transform="matrix(6.123234e-17 -1 1 6.123234e-17 -537.476 819.9628)" class="st5" width="81.39" height="23.97"/><path class="st6" d="M152.78,591.53c0.77-0.96,1.84-1.56,3.01-1.53l0,0c2.13-0.03,3.77,1.62,3.8,3.74l-0.05,44.29h14.32l0.01-52.15
		l0,0c0-13.16,0.96-23.91-6.19-33.54l-6.35-8.48l-34.55,52.98c-7.94,12.22-22.91,17.56-36.75,13.39l0,0L50.5,628.19
		c-1.79,0.88-2.89,2.64-2.92,4.62l0,0c-0.03,2.81,2.18,5.19,4.99,5.21h57.56c5.27,0.03,10.15-2.74,13.18-7.08L152.78,591.53z"/><path class="st7" d="M180.44,591.46c0.77-0.96,1.85-1.55,3.01-1.52l0,0c2.13-0.02,3.77,1.63,3.79,3.75l-0.18,44.33h14.32
		l0.17-52.15l0,0c0.04-13.16,1.03-23.9-6.09-33.56l-6.33-8.5l-34.71,52.88c-7.97,12.2-22.96,17.49-36.79,13.28l0,0l-39.58,17.84
		c-1.79,0.87-2.9,2.63-2.93,4.61l0,0c-0.04,2.81,2.17,5.55,4.98,5.59h57.56c5.27,0.04,10.16-2.9,13.2-7.23L180.44,591.46z"/><rect x="97.92" y="672.06" transform="matrix(-1 -1.224647e-16 1.224647e-16 -1 409.1141 1496.0576)" class="st2" width="213.27" height="151.94"/><rect x="163.92" y="700.77" transform="matrix(6.123234e-17 -1 1 6.123234e-17 -508.1414 917.3619)" class="st5" width="81.39" height="23.97"/><path class="st8" d="M242.25,619.41l-9.37-6.61l-4.15,2.67c-13.63-9.63-42.49-7.54-43.97-7.42l0.21,2.74
		c0.11-0.01,10.9-0.82,22.19,0.58c6.41,0.8,13.82,2.43,19.05,5.72l-3.02,1.95l2.15,11.26l20.72,32.15l16.9-10.9L242.25,619.41z"/></g><g id="Woman_x2C__table_x2C__chairs"><path class="st9" d="M783.1,199.45l6.2,195H607.01V235.74c2.7-19.29,8.79-34.63,26.01-36.17c0.43-0.04,0.86-0.06,1.29-0.08l0-0.05
		H783.1z"/><polygon class="st10" points="804.33,824 780.68,824 780.68,545.72 588.45,545.72 588.45,824 564.8,824 564.8,522.07 
		804.34,522.07 	"/><ellipse class="st11" cx="656.51" cy="133.82" rx="12.76" ry="12.76"/><ellipse class="st11" cx="743.07" cy="133.86" rx="12.76" ry="12.76"/><path class="st6" d="M739.55,133.2L739.55,133.2c-5.97,0-10.82,4.84-10.82,10.82v10.7c0,5.97,4.84,10.82,10.82,10.82h0
		c5.97,0,10.82-4.84,10.82-10.82v-10.7C750.36,138.05,745.52,133.2,739.55,133.2z M747.25,153.66c0,4.79-3.45,8.68-7.7,8.68h0
		c-4.25,0-7.7-3.89-7.7-8.68v-8.59c0-4.8,3.45-8.68,7.7-8.68h0c4.25,0,7.7,3.89,7.7,8.68V153.66z"/><path class="st12" d="M730.4,199.45L710.4,523.34l66.73-1.13l3.69-120.55l72.3-21.57c20.52-6.12,30.84-29.03,21.83-48.46
		L827.3,225.38l-0.01,0.01c-6.09-13.87-19.28-24.14-35.43-25.72L730.4,199.45z"/><path class="st6" d="M660.72,133.2L660.72,133.2c-5.97,0-10.82,4.84-10.82,10.82v10.7c0,5.97,4.84,10.82,10.82,10.82h0
		c5.97,0,10.82-4.84,10.82-10.82v-10.7C671.54,138.05,666.7,133.2,660.72,133.2z M668.43,153.66c0,4.79-3.45,8.68-7.7,8.68h0
		c-4.25,0-7.7-3.89-7.7-8.68v-8.59c0-4.8,3.45-8.68,7.7-8.68h0c4.25,0,7.7,3.89,7.7,8.68V153.66z"/><polygon class="st11" points="502.91,628.49 483.69,661.4 529.03,698.73 554.02,652.15 	"/><path class="st12" d="M519.25,331.74c-9.01,19.43,1.31,42.34,21.83,48.46l41.36,15.88l-24.25,126.03l124.26-57.36l-14.67-265.3
		l-63.18,0.12c-11.44,0.86-19.46,6.08-24.86,13.91l0,0l0,0L519.25,331.74z"/><polygon class="st13" points="647.28,199.45 626.41,262.67 651.45,265.45 626.41,293.28 682.44,453.28 668.43,199.45 	"/><polygon class="st13" points="751.63,199.45 772.5,262.67 747.46,265.45 772.5,293.28 709.53,453.28 730.4,199.45 	"/><path class="st14" d="M668.29,199.54v-40.17l61.91-1.8v41.97c0,17.1-13.86,30.96-30.95,30.96h0
		C682.15,230.51,668.29,216.65,668.29,199.54z"/><path class="st11" d="M658.05,152V95.52c0-19.25,15.61-34.86,34.86-34.86l13.82,0c19.25,0,34.86,15.61,34.86,34.86V152
		c0,19.25-15.61,34.86-34.86,34.86h-13.82C673.66,186.86,658.05,171.25,658.05,152z"/><path class="st15" d="M699.66,148.1c-0.48,0-0.97-0.05-1.48-0.15c-1.44-0.29-2.82-1.03-4.08-2.21c-0.67-0.62-1.33-0.89-2.04-0.84
		c-1.4,0.12-2.49,1.53-2.5,1.54l-1.33-1.01c0.06-0.08,1.54-2.01,3.68-2.2c1.18-0.11,2.3,0.32,3.33,1.27
		c1.04,0.96,2.14,1.56,3.28,1.79c1.16,0.24,2.19,0.13,3.07-0.32c0.37-0.19,0.74-0.48,1.09-0.86c0.44-0.48,1.68-1.63,3.46-1.69
		c1.43-0.04,2.87,0.59,4.26,1.9l-1.15,1.22c-1.06-0.99-2.04-1.47-3.05-1.45c-1.15,0.04-1.99,0.82-2.29,1.16
		c-0.48,0.52-1,0.93-1.55,1.21C701.53,147.89,700.63,148.1,699.66,148.1z"/><path class="st13" d="M699.9,160.43c0-3.57-5.47-3.09-5.47-3.09h-12.37c0.12-0.7,17.47,26.56,35.69,0h-12.37
		C705.37,157.34,699.9,156.86,699.9,160.43L699.9,160.43z"/><path class="st9" d="M724.11,129.52c4.5-2.37,6.34-6.55,6.34-6.55s-6.44-3.24-12.29-1.2c-4.59,1.59-7.45,5.94-8.47,7.75H724.11z"/><path class="st16" d="M686.95,113.2h-21.66l0,0c0-3.38,2.74-6.13,6.13-6.13h21.66v0C693.08,110.45,690.33,113.2,686.95,113.2z"/><path class="st16" d="M734.52,113.2h-21.66c-3.38,0-6.13-2.74-6.13-6.13v0h21.66C731.77,107.07,734.52,109.81,734.52,113.2
		L734.52,113.2z"/><path class="st13" d="M608.69,381.16L502.91,628.49l88.35,44.35l97.69-235.74l28.8,9.05l59.28,76.05c0.1,0.01,0.1,0.01,0.1-0.09
		v0.09c42.64,0,57.9-80.83,43.69-121.04l-23.51-20.01H608.69z"/><polygon class="st12" points="737.29,386.55 825.34,394.45 830.93,532.77 784.11,522.07 	"/><path class="st17" d="M761.81,32.72c-2.33,0-4.52,0.56-6.47,1.53c-1.95-8.65-9.66-15.11-18.9-15.11c-6.8,0-12.76,3.5-16.23,8.79
		c-4.9-7.2-13.16-11.94-22.53-11.94c-15.03,0-27.22,12.19-27.22,27.22c0,5.4,1.58,10.43,4.3,14.67
		c-13.34,5.43-22.75,18.52-22.75,33.81v30.15h6.57V111.1c0.33-7,2.78-13.44,6.71-18.68v12.7h69.7V93.29
		c3.56,5.08,5.76,11.19,6.07,17.81v10.75h6.57V91.7c0-16.61-11.1-30.62-26.28-35.04c0.72-1.27,1.35-2.6,1.87-3.98
		c3.46,3.24,8.11,5.24,13.22,5.24c4.65,0,8.91-1.64,12.25-4.36c2.34,4.9,7.33,8.29,13.12,8.29c8.04,0,14.56-6.52,14.56-14.56
		C776.37,39.24,769.85,32.72,761.81,32.72z"/><path class="st11" d="M711.67,209.82c-2.81-1.07-5.95,0.34-7.02,3.15v0c-1.07,2.81,0.34,5.95,3.15,7.02l24.12,9.19l-0.04,0.8
		l-10.03-3.82c-2.81-1.07-5.95,0.34-7.02,3.15s0.34,5.95,3.15,7.02l13.38,5.1l-0.04,0.82l-7.16-2.73c-2.81-1.07-5.95,0.34-7.02,3.15
		s0.34,5.95,3.15,7.02l10.8,4.11v0.69l-2.86-1.09c-2.81-1.07-5.95,0.34-7.02,3.15v0c-1.07,2.81,0.34,5.95,3.15,7.02l25.39,9.67
		l67.32,90.02c3.85,5.03,9.31,8.89,15.9,10.7c16.01,4.39,32.55-5.03,36.95-21.04c3.44-12.53-1.57-25.38-11.59-32.49L754.72,225.9
		L711.67,209.82z"/><path class="st6" d="M705.57,199.04l-34.97-12.76c-2.45-0.89-5.17,0.37-6.06,2.82l-29.09,79.76c-0.89,2.45,0.37,5.17,2.82,6.06
		l34.97,12.76c2.45,0.89,5.17-0.37,6.06-2.82l29.09-79.76C709.29,202.65,708.03,199.93,705.57,199.04z"/><path class="st11" d="M625.03,265.64l-92.39,59.29l-0.08,0.05l0,0.01c-3.66,2.83-6.66,6.61-8.57,11.18
		c-5.84,14.03,0.79,30.14,14.82,35.98c8.41,3.5,17.56,2.52,24.81-1.85l0,0l0.01-0.01l89.39-74.5l-0.06-0.07l33.24-18.26
		c2.57-1.56,3.39-4.9,1.84-7.47c-1.56-2.57-4.9-3.39-7.47-1.84l-6.42,3.89l-0.05-0.82l18.48-11.19c2.57-1.56,3.39-4.9,1.84-7.47v0
		c-1.56-2.57-4.9-3.39-7.47-1.84l-13.58,8.22l-0.07-1.25l23.09-13.98c2.57-1.56,3.39-4.9,1.84-7.47c-1.56-2.57-4.9-3.39-7.47-1.84
		l-18.18,11.01l-0.09-1.46c0.17-0.08,0.35-0.14,0.51-0.24l27.59-16.71c2.57-1.56,3.39-4.9,1.84-7.47v0
		c-1.56-2.57-4.9-3.39-7.47-1.84l-27.59,16.71c-0.21,0.13-0.4,0.29-0.59,0.44l-23.59,14.63l10.68-29.3
		c1.03-2.82-0.42-5.95-3.25-6.97s-5.95,0.42-6.97,3.25L625.03,265.64z"/><circle class="st18" cx="670.66" cy="195.28" r="3.53"/><polygon class="st10" points="918.88,824 942.53,824 942.53,545.72 1111.02,545.72 1111.02,824 1134.67,824 1134.67,267.8 
		1111.02,267.8 1111.02,522.07 918.88,522.07 	"/><polygon class="st11" points="711.79,801.09 698.45,734.35 761.52,725.52 771.97,795.82 	"/><path class="st12" d="M693.49,767.52h80.79L728.9,469.2c-2.88-18.91-17.89-33.99-36.9-36.05c-0.62-0.07-1.25-0.12-1.88-0.17
		l-8.02,0.1c-24.45,2.34-43.58,22.93-43.58,48c0,7.06,2.96,20.1,4.26,26.6C656.44,575.9,693.49,767.52,693.49,767.52z"/><path class="st8" d="M742.32,780.05c-19.15,0-34.67,13.87-34.67,30.99V824l69.34,0v-12.96
		C776.99,793.93,761.47,780.05,742.32,780.05z"/><path class="st8" d="M513.5,662.25c-16.78-9.58-37.26-5.29-45.74,9.57l-8.31,14.56l60.76,34.69l8.31-14.56
		C537,691.64,530.28,671.83,513.5,662.25z"/><polygon class="st19" points="1048,372.41 310.82,372.41 310.82,402.5 336.29,402.5 336.29,824 363.74,824 363.74,402.5 
		995.07,402.5 995.07,824 1022.52,824 1022.52,402.5 1048,402.5 	"/><path class="st15" d="M724.1,129.52c0.18-0.51,0.29-1.06,0.29-1.63c0-2.8-2.27-5.07-5.07-5.07c-2.8,0-5.07,2.27-5.07,5.07
		c0,0.57,0.11,1.12,0.29,1.63H724.1z"/><path class="st9" d="M674.25,129.52h14.27c-0.97-1.74-3.85-6.23-8.53-7.85c-5.85-2.03-12.29,1.2-12.29,1.2
		S669.61,127.17,674.25,129.52z"/><path class="st15" d="M710.04,129.52c0.15-0.2,0.29-0.41,0.53-0.69c8.47-10.15,17.78-6.38,19.58-5.3c0.5-0.8,1.45-2.41,1.95-3.21
		c-7.9-4.78-20.62-0.67-22.68,9.19H710.04z"/><path class="st15" d="M674.28,129.52h9.8c0.18-0.7,0.22-1.46,0.07-2.25c-0.38-1.98-2-3.6-3.98-3.98c-3.57-0.68-6.64,2.4-5.96,5.97
		C674.23,129.34,674.26,129.43,674.28,129.52z"/><path class="st15" d="M687.6,128.73c0.27,0.33,0.42,0.55,0.61,0.79h0.57c-1.99-9.93-14.77-14.08-22.7-9.29
		c0.5,0.8,1.45,2.41,1.95,3.21C669.82,122.35,679.13,118.58,687.6,128.73z"/></g><g id="Boxes_on_top_of_table"><path class="st8" d="M457.15,117.35l-28.05-12.38l4.34-7.36c0.99-1.67,2.81-2.43,4.27-1.78l20.38,9c1.47,0.65,2.13,2.51,1.56,4.36
		L457.15,117.35z"/><path class="st8" d="M475.38,125.01l-10.2-4.5l2.25-5.09c0.31-0.71,1.15-1.03,1.86-0.72l7.62,3.36c0.71,0.31,1.03,1.15,0.72,1.86
		L475.38,125.01z"/><path class="st20" d="M452.86,113.66l-18.15-8.01l2.81-4.76c0.64-1.08,1.82-1.57,2.77-1.15l13.19,5.82
		c0.95,0.42,1.38,1.62,1.01,2.82L452.86,113.66z"/><path class="st8" d="M421.5,107.32l-15.3-6.75l3.37-7.63c0.47-1.07,1.72-1.55,2.79-1.08l11.43,5.05c1.07,0.47,1.55,1.72,1.08,2.79
		L421.5,107.32z"/><path class="st21" d="M456.74,179.24l-75.16-33.18c-2.83-1.25-4.11-4.56-2.86-7.39l19.11-43.29c1.25-2.83,4.56-4.11,7.39-2.86
		l75.16,33.18c2.83,1.25,4.11,4.56,2.86,7.39l-19.11,43.29C462.88,179.21,459.57,180.49,456.74,179.24z"/><circle class="st8" cx="432.14" cy="136.22" r="25.72"/><circle class="st20" cx="432.14" cy="136.22" r="21.94"/><circle class="st8" cx="432.14" cy="136.22" r="17.77"/><circle class="st8" cx="408.38" cy="110.29" r="4.53"/><path class="st12" d="M343.76,183.51l-8.46-46.68l83.34-15.1c4.16-0.75,8.13,2.01,8.89,6.16l8.17,45.1L343.76,183.51z"/><polygon class="st2" points="585.63,197.51 481.32,159.46 481.32,159.08 480.29,159.08 480.29,159.08 480.29,159.08 335.69,159.09 
		289.06,78.33 283.8,81.37 329.38,160.31 329.38,372.36 481.32,372.36 481.32,165.93 583.55,203.22 	"/><rect x="402.32" y="124.43" transform="matrix(0.984 -0.1783 0.1783 0.984 -20.3491 74.8131)" class="st13" width="7.46" height="52.39"/><rect x="368.54" y="186.08" transform="matrix(1.515802e-07 1 -1 1.515802e-07 605.5912 -209.4572)" class="st1" width="77.96" height="23.97"/><rect x="342.09" y="185.01" class="st9" width="64.99" height="90.85"/><rect x="342.09" y="250.79" class="st8" width="64.99" height="9.27"/><rect x="400.83" y="245.47" class="st1" width="137.86" height="126.89"/><path class="st8" d="M349,215.41c-0.46,0-0.66-0.2-0.66-0.63v-22.45c0-0.43,0.2-0.63,0.66-0.63h4.71c3.69,0,6.32,0.66,7.9,2.27
		c1.15,1.15,1.75,2.83,1.75,5.07c0,4.51-2.77,7.8-8.43,7.8c-0.86,0-1.65,0-2.4-0.1v8.03c0,0.43-0.2,0.63-0.66,0.63H349z
		 M352.52,195.06v8.36c0.66,0.07,1.45,0.1,2.17,0.1c3.06,0,4.44-1.71,4.44-4.44c0-1.48-0.46-2.47-1.18-3.06
		c-0.89-0.76-2.21-0.96-3.75-0.96H352.52z"/><rect x="353.12" y="232.02" class="st8" width="3.7" height="14.98"/><rect x="373.12" y="232.02" class="st8" width="3.7" height="14.98"/><rect x="387.89" y="232.02" class="st8" width="3.7" height="14.98"/><rect x="392.35" y="232.02" class="st8" width="3.7" height="14.98"/><rect x="357.59" y="232.02" class="st8" width="1.85" height="14.98"/><rect x="360.2" y="232.02" class="st8" width="1.85" height="14.98"/><rect x="362.82" y="232.02" class="st8" width="1.85" height="14.98"/><rect x="370.5" y="232.02" class="st8" width="1.85" height="14.98"/><rect x="365.43" y="232.02" class="st8" width="0.92" height="14.98"/><rect x="377.58" y="232.02" class="st8" width="1.85" height="14.98"/><rect x="383.58" y="232.02" class="st8" width="1.85" height="14.98"/><rect x="386.2" y="232.02" class="st8" width="0.92" height="14.98"/><rect x="381.89" y="232.02" class="st8" width="0.92" height="14.98"/><rect x="380.2" y="232.02" class="st8" width="0.92" height="14.98"/><rect x="367.12" y="232.02" class="st8" width="0.92" height="14.98"/><rect x="368.81" y="232.02" class="st8" width="0.92" height="14.98"/><rect x="467.57" y="252.48" class="st9" width="64.99" height="33.1"/><rect x="481.7" y="258.26" class="st8" width="3.7" height="14.98"/><rect x="503.09" y="258.26" class="st8" width="3.7" height="14.98"/><rect x="518.9" y="258.26" class="st8" width="3.7" height="14.98"/><rect x="523.54" y="258.26" class="st8" width="3.7" height="14.98"/><rect x="486.34" y="258.26" class="st8" width="1.85" height="14.98"/><rect x="489.13" y="258.26" class="st8" width="1.85" height="14.98"/><rect x="491.92" y="258.26" class="st8" width="1.85" height="14.98"/><rect x="500.3" y="258.26" class="st8" width="1.85" height="14.98"/><rect x="494.71" y="258.26" class="st8" width="0.92" height="14.98"/><rect x="507.73" y="258.26" class="st8" width="1.85" height="14.98"/><rect x="514.24" y="258.26" class="st8" width="1.85" height="14.98"/><rect x="517.03" y="258.26" class="st8" width="0.92" height="14.98"/><rect x="512.38" y="258.26" class="st8" width="0.92" height="14.98"/><rect x="510.52" y="258.26" class="st8" width="0.92" height="14.98"/><rect x="496.57" y="258.26" class="st8" width="0.92" height="14.98"/><rect x="498.43" y="258.26" class="st8" width="0.92" height="14.98"/><path class="st8" d="M507.4,145.75l-5.87-9.85l-3.84,0.59c-0.79-4.77-3.98-8.97-8.66-11.14l-23.01-10.69l-1.16,2.49l23.01,10.69
		c3.83,1.78,6.45,5.2,7.1,9.07l-4.84,0.75l-2.62,11.16l5.85,37.8l19.87-3.08L507.4,145.75z"/></g></svg>