<svg viewBox="0 0 1600 1200" fill="none" xmlns="http://www.w3.org/2000/svg"><path d="M490.125 951.068L512.473 809.664H712.051L716.001 906.879C716.936 931.001 697.706 951.068 673.591 951.068H490.125Z" fill="#D8CBC5"/><path d="M1102.06 180H928.568V657.029H1102.06V180Z" fill="#E6E3DA"/><path d="M1283.44 180H1109.96V657.029H1283.44V180Z" fill="#E6E3DA"/><path d="M1304.13 679.588H904.143V675.117C904.143 665.032 912.25 656.922 922.333 656.922H1285.94C1296.02 656.922 1304.13 665.032 1304.13 675.117V679.588Z" fill="#D8CBC5"/><path d="M1184.38 961.464H234V960.528C234 951.898 241.068 944.828 249.696 944.828H1168.58C1177.21 944.828 1184.28 951.898 1184.28 960.528V961.464H1184.38Z" fill="#EBB2D3"/><path d="M583.991 961.773L532.538 931.828L436.283 926.422C430.254 925.278 420.483 920.183 418.612 924.654L417.781 926.214C414.87 934.012 419.236 940.146 427.136 942.745L524.222 977.888C538.151 984.023 547.714 973.937 551.456 967.803L583.991 961.773Z" fill="#BF7461"/><path d="M465.489 765.267L537.628 668.26L469.023 638.523L424.846 735.323L465.489 765.267Z" fill="#BF7461"/><path d="M834.502 649.852L865.582 680.628L893.751 651.307C893.751 651.307 935.434 648.5 941.255 647.98C948.219 647.46 949.051 637.167 941.671 636.959C941.567 636.959 942.191 636.855 947.076 636.959C954.04 637.167 954.976 625.314 946.348 625.106C946.348 625.106 948.012 625.002 950.298 624.898C957.575 624.69 957.263 613.253 949.155 613.565C943.022 613.773 909.863 613.877 909.863 613.877C909.863 613.877 907.68 613.253 909.032 610.238C910.591 606.599 912.774 596.721 907.68 588.3C903.938 582.061 891.673 577.174 888.762 575.927C882.941 573.431 876.496 581.957 884.812 585.596C914.333 598.385 881.382 622.819 872.235 603.688C869.428 597.761 872.962 591.939 879.615 586.636C883.669 583.517 880.758 577.174 875.561 578.11C872.027 578.734 867.245 581.333 864.439 584.349C856.539 592.77 854.252 602.96 855.187 611.07C856.123 619.804 856.954 623.339 856.954 623.339L834.502 649.852Z" fill="#BF7461"/><path d="M807.058 768.173L891.671 644.444L862.878 616.684L762.777 733.238C750.719 747.274 753.526 768.381 768.702 777.322C781.383 784.912 798.119 780.857 807.058 768.173Z" fill="#BF7461"/><path d="M388.776 649.852L357.696 680.628L329.527 651.307C329.527 651.307 287.844 648.5 282.023 647.98C275.059 647.46 274.227 637.167 281.607 636.959C281.711 636.959 281.088 636.855 276.202 636.959C269.238 637.167 268.302 625.314 276.93 625.106C276.93 625.106 275.267 625.002 272.98 624.898C265.704 624.69 266.015 613.253 274.123 613.565C280.256 613.773 313.415 613.877 313.415 613.877C313.415 613.877 315.598 613.253 314.247 610.238C312.687 606.599 310.504 596.721 315.598 588.3C319.34 582.061 331.606 577.174 334.516 575.927C340.337 573.431 346.782 581.957 338.466 585.596C308.945 598.385 341.896 622.819 351.044 603.688C353.85 597.761 350.316 591.939 343.663 586.636C339.609 583.517 342.52 577.174 347.717 578.11C351.251 578.734 356.033 581.333 358.84 584.349C366.739 592.77 369.026 602.96 368.091 611.07C367.155 619.804 366.324 623.339 366.324 623.339L388.776 649.852Z" fill="#BF7461"/><path d="M416.634 767.759L332.021 644.03L360.815 616.27L460.915 732.824C472.973 746.86 470.166 767.966 454.99 776.908C442.309 784.394 425.573 780.443 416.634 767.759Z" fill="#BF7461"/><path d="M457.9 654.845C457.9 654.845 484.823 600.883 515.591 600.883C536.692 600.883 554.986 615.023 556.546 636.13C558.105 657.132 512.056 694.459 512.056 694.459L457.9 654.845Z" fill="#FBB03B"/><path d="M760.695 770.05L677.746 669.924L743.128 639.355L792.399 733.659L760.695 770.05Z" fill="#BF7461"/><path d="M756.746 654.224C756.746 654.224 735.021 600.574 704.149 600.574C683.048 600.574 664.753 614.715 663.194 635.821C661.635 656.824 706.228 694.15 706.228 694.15L756.746 654.224Z" fill="#FBB03B"/><path d="M525.882 784.914L511.018 601.609C511.018 601.609 587.106 584.038 611.846 583.934C634.402 583.934 714.545 602.129 714.545 602.129L694.067 784.706L525.882 784.914Z" fill="#FBB03B"/><path d="M500.83 866.327L513.408 664.203H705.916L720.573 866.327H500.83Z" fill="#FBB03B"/><path d="M611.429 706.003C618.705 693.11 626.917 675.642 632.842 653.912C638.039 634.677 642.197 617.417 642.821 603.797C622.551 603.797 597.916 603.797 577.646 603.797C578.478 617.521 583.052 635.093 588.873 654.64C595.213 676.162 603.841 693.422 611.429 706.003Z" fill="#A86554"/><path d="M815.996 923.617L595.838 968.221C593.239 969.053 572.034 960.943 572.866 958.344L573.593 900.743L801.236 840.646C826.287 837.007 849.051 856.034 849.675 881.404C850.195 901.782 835.954 919.562 815.996 923.617Z" fill="#E6E3DA"/><path d="M773.273 976.855H773.169C772.753 972.072 757.161 972.072 750.405 970.928L683.047 951.277L681.28 952.213C666 960.115 659.971 965.418 642.197 961.467L638.039 960.531L637.935 976.543C637.831 985.485 645.107 992.763 654.15 992.763L759.656 992.243C767.556 991.931 773.689 985.173 773.273 976.855Z" fill="#BF7461"/><path d="M694.481 968.223L642.508 966.56L665.168 946.285L696.248 955.331L694.481 968.223Z" fill="#BF7461"/><path d="M521.517 856.555L521.413 856.971L521.309 857.594C520.062 869.863 520.478 882.34 523.596 894.297C523.596 894.401 523.7 894.505 523.7 894.713L501.04 905.942C500 906.462 498.857 906.67 497.817 906.462L493.348 905.942C486.903 905.214 480.666 909.581 479.731 916.027C478.795 922.578 483.473 928.608 490.021 929.44L501.559 930.792C502.911 931 504.262 930.688 505.405 930.168C512.889 926.425 541.475 912.388 542.41 911.868C544.593 908.437 550.414 901.055 551.973 897.52C557.69 886.499 560.705 874.438 562.16 862.169L562.264 861.545V861.233C562.264 861.233 562.368 861.233 562.16 861.129H562.056" fill="#232144"/><path d="M1305.9 660.877C1292.9 660.877 1278.77 657.446 1264.42 650.583C1258.6 647.776 1256.11 640.81 1258.91 634.987C1261.72 629.165 1268.68 626.669 1274.51 629.477C1296.23 639.978 1316.19 640.186 1329.18 630.101C1338.74 622.718 1343.21 610.554 1340.82 598.493C1337.39 581.337 1330.74 581.129 1312.65 580.401C1292.38 579.57 1264.63 578.53 1245.61 542.035C1242.59 536.317 1244.78 529.247 1250.6 526.231C1256.31 523.216 1263.38 525.399 1266.4 531.222C1279.18 555.656 1295.19 556.384 1313.69 557.111C1331.88 557.839 1356.83 558.879 1363.9 594.022C1368.06 614.817 1360.26 635.819 1343.63 648.712C1333.13 656.718 1320.14 660.877 1305.9 660.877Z" fill="#232144"/><path d="M609.247 460.102C621.015 460.102 630.556 450.559 630.556 438.787C630.556 427.015 621.015 417.473 609.247 417.473C597.478 417.473 587.938 427.015 587.938 438.787C587.938 450.559 597.478 460.102 609.247 460.102Z" fill="#232144"/><path d="M578.583 528.938C578.583 521.555 572.658 515.629 565.278 515.629C557.898 515.629 551.973 521.555 551.973 528.938C551.973 536.32 557.898 542.246 565.278 542.246C572.658 542.246 578.583 536.32 578.583 528.938Z" fill="#BF7461"/><path d="M639.807 528.938C639.807 521.555 645.732 515.629 653.112 515.629C660.492 515.629 666.417 521.555 666.417 528.938C666.417 536.32 660.492 542.246 653.112 542.246C645.732 542.246 639.807 536.32 639.807 528.938Z" fill="#BF7461"/><path d="M577.543 602.129V557.629L642.821 557.941V602.129C642.821 616.478 630.452 628.123 615.172 628.123H605.089C589.913 628.123 577.543 616.478 577.543 602.129Z" fill="#A86554"/><path d="M653.111 546.815V485.471C653.111 465.612 637.208 449.496 617.562 449.496H600.515C580.869 449.496 564.965 465.612 564.965 485.471V546.815C564.965 566.674 580.869 582.79 600.515 582.79H617.458C637.104 582.79 653.111 566.674 653.111 546.815Z" fill="#BF7461"/><path d="M653.115 476.637H649.58V546.715H653.115V476.637Z" fill="#232144"/><path d="M652.904 546.714V512.715H650.305L639.807 546.714H652.904Z" fill="#232144"/><path d="M565.277 547.546V513.547H567.876L578.271 547.546H565.277Z" fill="#232144"/><path d="M568.812 476.117H565.277V547.651H568.812V476.117Z" fill="#232144"/><path d="M629.308 553.578V548.275C629.308 545.676 627.229 543.492 624.526 543.492H593.758C591.159 543.492 588.977 545.572 588.977 548.275V553.578H629.308Z" fill="#232144"/><path d="M609.144 563.768C605.818 563.768 602.7 562.52 600.725 560.233L602.284 558.777C604.051 560.753 606.753 561.793 609.768 561.585C612.367 561.481 614.653 560.441 615.693 558.881L617.46 560.129C616.005 562.208 613.198 563.56 609.872 563.664C609.56 563.768 609.352 563.768 609.144 563.768Z" fill="#010101"/><path d="M609.141 541.621C607.166 541.621 605.503 540.581 604.151 539.749C601.864 538.293 600.409 537.462 597.707 540.165L595.939 538.397C600.201 534.135 603.112 536.11 605.606 537.566C606.854 538.293 607.997 539.021 609.245 539.021C610.596 539.021 611.635 538.397 612.779 537.67C615.066 536.214 617.976 534.55 622.654 538.397L620.991 540.373C617.664 537.566 616.209 538.501 614.13 539.853C612.675 540.685 611.22 541.621 609.141 541.621Z" fill="#010101"/><path d="M620.471 522.693C620.991 525.397 625.772 526.644 631.177 525.605C636.479 524.565 640.429 521.55 639.909 518.846C639.389 516.143 634.608 514.895 629.202 515.935C623.797 516.975 619.951 519.99 620.471 522.693Z" fill="white"/><path d="M627.334 519.574C627.334 522.278 629.517 524.461 632.219 524.461C634.922 524.461 637.105 522.278 637.105 519.574C637.105 516.871 634.922 514.688 632.219 514.688C629.517 514.688 627.334 516.871 627.334 519.574Z" fill="black"/><path d="M645.289 523.409L610.793 522.414L610.637 527.819L645.134 528.813L645.289 523.409Z" fill="#BF7461"/><path d="M647.499 510.739L647.291 517.081L612.781 516.042L612.989 509.699" fill="#BF7461"/><path d="M577.336 517.707L579.727 519.267C583.677 521.866 589.913 522.594 594.695 521.034L598.125 519.89" stroke="#231F20" stroke-width="2.06917" stroke-miterlimit="10"/><path fill-rule="evenodd" clip-rule="evenodd" d="M653.319 466.964C653.319 456.775 645.003 448.457 634.817 448.457H588.561V455.111C588.561 463.013 591.679 470.499 597.292 476.114C602.801 481.624 610.389 484.848 618.289 484.848H653.319V466.964Z" fill="#232144"/><path fill-rule="evenodd" clip-rule="evenodd" d="M564.756 466.757C564.756 456.568 573.072 448.25 583.258 448.25H590.327V469.98C590.327 477.986 583.778 484.537 575.774 484.537H564.756V466.757Z" fill="#232144"/><path fill-rule="evenodd" clip-rule="evenodd" d="M603.113 503.361C603.113 501.905 602.49 500.449 601.45 499.41C600.411 498.37 598.956 497.746 597.5 497.746H578.998C577.543 497.746 576.087 498.37 575.048 499.41C574.008 500.449 573.385 501.905 573.385 503.361V508.247H603.01V503.361H603.113Z" fill="#232144"/><path fill-rule="evenodd" clip-rule="evenodd" d="M644.588 504.809C644.9 503.354 644.692 501.898 643.861 500.65C643.029 499.403 641.782 498.571 640.431 498.259L622.344 494.204C620.889 493.892 619.433 494.1 618.186 494.932C616.939 495.764 616.107 497.011 615.795 498.363L614.756 503.146L643.653 509.592L644.588 504.809Z" fill="#232144"/><path d="M1097.27 718.895C1091.56 718.895 1086.98 714.32 1086.98 708.601V653.704C1086.98 647.985 1091.56 643.41 1097.27 643.41C1102.99 643.41 1107.56 647.985 1107.56 653.704V708.601C1107.56 714.32 1102.99 718.895 1097.27 718.895Z" fill="#232144"/><path d="M1117.13 656.712H976.076C970.359 656.712 965.785 652.137 965.785 646.418C965.785 640.7 970.359 636.125 976.076 636.125H1117.13C1122.85 636.125 1127.42 640.7 1127.42 646.418C1127.42 652.137 1122.85 656.712 1117.13 656.712Z" fill="#232144"/><path d="M1282.82 657.133C1282.82 602.963 1238.95 559.086 1184.8 559.086C1130.64 559.086 1086.78 602.963 1086.78 657.133H1282.82Z" fill="#242243"/><path d="M1092.2 644.321C1110.3 636.855 1120.23 619.313 1114.39 605.14C1108.54 590.967 1089.13 585.53 1071.04 592.997C1052.94 600.463 1043.01 618.005 1048.85 632.178C1054.7 646.351 1074.11 651.787 1092.2 644.321Z" fill="#242243"/><path d="M1091.87 606.185C1091.87 606.185 1090.63 609.72 1087.61 611.488C1084.6 613.255 1080.96 612.631 1080.96 612.631C1080.96 612.631 1082.21 609.096 1085.22 607.329C1088.24 605.561 1091.87 606.185 1091.87 606.185Z" fill="white"/><mask id="mask0_2879_11682" style="mask-type:luminance" maskUnits="userSpaceOnUse" x="1080" y="606" width="12" height="7"><path d="M1091.88 606.177C1091.88 606.177 1090.63 609.712 1087.61 611.48C1084.6 613.247 1080.96 612.623 1080.96 612.623C1080.96 612.623 1082.21 609.088 1085.22 607.321C1088.24 605.553 1091.88 606.177 1091.88 606.177Z" fill="white"/></mask><g mask="url(#mask0_2879_11682)"><path d="M1087.92 611.998C1087.92 611.998 1086.26 611.374 1085.43 609.918C1084.6 608.463 1084.91 606.695 1084.91 606.695C1084.91 606.695 1086.57 607.319 1087.4 608.775C1088.24 610.23 1087.92 611.998 1087.92 611.998Z" fill="#232144"/></g><path d="M1070.15 617.001C1070.15 617.001 1067.86 619.912 1064.43 620.64C1061 621.368 1057.67 619.6 1057.67 619.6C1057.67 619.6 1059.96 616.689 1063.39 615.961C1066.82 615.233 1070.15 617.001 1070.15 617.001Z" fill="white"/><mask id="mask1_2879_11682" style="mask-type:luminance" maskUnits="userSpaceOnUse" x="1057" y="615" width="14" height="6"><path d="M1070.15 617.005C1070.15 617.005 1067.86 619.916 1064.43 620.644C1061 621.371 1057.68 619.604 1057.68 619.604C1057.68 619.604 1059.96 616.693 1063.39 615.965C1066.83 615.237 1070.15 617.005 1070.15 617.005Z" fill="white"/></mask><g mask="url(#mask1_2879_11682)"><path d="M1064.54 621.372C1064.54 621.372 1063.19 620.228 1062.77 618.668C1062.46 617.005 1063.29 615.445 1063.29 615.445C1063.29 615.445 1064.64 616.589 1065.06 618.149C1065.37 619.708 1064.54 621.372 1064.54 621.372Z" fill="#232144"/></g><path d="M550.244 860.151C568.561 846.491 574.648 823.662 563.84 809.161C553.031 794.659 529.42 793.977 511.102 807.637C492.785 821.297 486.698 844.127 497.506 858.628C508.315 873.129 531.926 873.811 550.244 860.151Z" fill="#232144"/><path d="M524.225 779.511L525.68 802.281L550.107 801.865L525.264 779.095C524.848 778.679 524.225 778.991 524.225 779.511Z" fill="#232144"/><path d="M477.24 819.437L494.079 848.654L499.796 824.948L477.863 818.606C477.448 818.398 476.928 818.917 477.24 819.437Z" fill="#232144"/><path d="M654.567 946.492C679.826 904.383 670.471 852.292 633.674 830.25C596.877 808.208 544.8 827.339 519.541 869.448L654.567 946.492Z" fill="#242243"/><path d="M542.099 811.848C542.099 811.848 541.684 816.422 538.669 819.438C535.655 822.453 531.289 822.869 531.289 822.869C531.289 822.869 531.393 819.126 534.304 816.007C537.214 812.887 542.099 811.848 542.099 811.848Z" fill="white"/><mask id="mask2_2879_11682" style="mask-type:luminance" maskUnits="userSpaceOnUse" x="531" y="811" width="12" height="12"><path d="M542.101 811.852C542.101 811.852 541.686 816.426 538.671 819.442C535.657 822.457 531.291 822.873 531.291 822.873C531.291 822.873 531.395 819.13 534.305 816.01C537.216 812.891 542.101 811.852 542.101 811.852Z" fill="white"/></mask><g mask="url(#mask2_2879_11682)"><path d="M540.334 818.607C540.334 818.607 538.255 818.399 536.799 816.944C535.448 815.488 535.24 813.305 535.24 813.305C535.24 813.305 537.319 813.513 538.774 814.968C540.23 816.424 540.334 818.607 540.334 818.607Z" fill="#232144"/></g><path d="M520.166 831.39C520.166 831.39 518.399 835.549 514.553 837.524C510.811 839.396 506.549 838.356 506.549 838.356C506.549 838.356 508.316 834.197 512.162 832.221C515.904 830.35 520.166 831.39 520.166 831.39Z" fill="white"/><mask id="mask3_2879_11682" style="mask-type:luminance" maskUnits="userSpaceOnUse" x="506" y="831" width="15" height="8"><path d="M520.166 831.386C520.166 831.386 518.399 835.545 514.553 837.52C510.811 839.392 506.549 838.352 506.549 838.352C506.549 838.352 508.316 834.193 512.162 832.217C515.904 830.346 520.166 831.386 520.166 831.386Z" fill="white"/></mask><g mask="url(#mask3_2879_11682)"><path d="M516.008 837.734C516.008 837.734 514.033 837.111 512.89 835.343C511.747 833.576 512.058 831.496 512.058 831.496C512.058 831.496 514.033 832.12 515.177 833.888C516.32 835.551 516.008 837.734 516.008 837.734Z" fill="#232144"/></g><path d="M1076.07 594.023L1085.95 572.812L1095.92 594.023H1076.07Z" fill="#242243"/><path d="M1049.25 623.239L1033.25 605.563L1057.05 604.523L1049.25 623.239Z" fill="#242243"/><path d="M649.061 979.763L567.463 958.032L591.163 906.773L674.32 948.987L649.061 979.763Z" fill="#BF7461"/><path d="M399.275 907.917C399.379 907.917 399.483 908.021 399.483 908.021L623.072 978.099C626.086 979.243 629.725 978.827 631.803 975.084C632.011 974.772 653.32 934.95 653.32 934.95C656.647 929.959 651.553 927.152 649.163 926.112C617.459 911.972 429.004 829.313 420.168 825.362C419.961 825.258 419.753 825.154 419.545 825.154C397.716 819.54 375.471 834.512 369.443 856.45C363.518 878.181 375.887 900.639 397.196 907.085C397.82 907.397 398.548 907.605 399.275 907.917Z" fill="#E6E3DA"/><path d="M640.951 1020C638.768 1020 636.586 1019.37 634.611 1018.02C629.517 1014.49 628.27 1007.52 631.804 1002.42C659.35 962.603 683.777 963.746 699.993 964.578C711.635 965.098 714.442 965.202 719.223 953.349C721.822 947.006 719.847 939.52 713.922 932.762C704.151 921.637 681.594 911.448 650.41 919.558C644.486 921.117 638.353 917.582 636.793 911.552C635.234 905.625 638.768 899.491 644.797 897.931C685.752 887.222 716.105 901.258 730.761 917.998C742.299 931.099 745.729 947.422 740.012 961.667C729.306 988.18 711.843 987.348 699.057 986.828C685.129 986.204 670.784 985.477 650.307 1015.11C647.916 1018.33 644.486 1020 640.951 1020Z" fill="#232144"/></svg>