<svg viewBox="0 0 2604 1200" fill="none" xmlns="http://www.w3.org/2000/svg"><path fill-rule="evenodd" clip-rule="evenodd" d="M2137.94 1009.31H2186.36L2180.58 917.923L2126.3 917.826L2137.94 1009.31Z" fill="#F4836C"/><path fill-rule="evenodd" clip-rule="evenodd" d="M2135.67 1009.31C2135.67 993.438 2148.52 980.572 2164.37 980.572C2180.22 980.572 2193.07 993.438 2193.07 1009.31" fill="#242144"/><path fill-rule="evenodd" clip-rule="evenodd" d="M2135.67 1020H2193.07V1009.31H2135.67V1020Z" fill="#E73446"/><path fill-rule="evenodd" clip-rule="evenodd" d="M2114.9 962.711L2067.61 521.473L2084.95 522.34C2131.03 522.34 2162.3 543.661 2162.96 579.544L2195.18 961.255L2114.9 962.711Z" fill="#E73446"/><path fill-rule="evenodd" clip-rule="evenodd" d="M2056.65 1009H2012.69L2005 917.826L2057.7 917.854L2056.65 1009Z" fill="#F4836C"/><path fill-rule="evenodd" clip-rule="evenodd" d="M2058.96 1009.31C2058.96 993.438 2046.11 980.572 2030.26 980.572C2014.41 980.572 2001.56 993.438 2001.56 1009.31" fill="#242144"/><path fill-rule="evenodd" clip-rule="evenodd" d="M2001.56 1020H2058.96V1009.31H2001.56V1020Z" fill="#E73446"/><path fill-rule="evenodd" clip-rule="evenodd" d="M2067.63 962.791V521.557L2047.94 523.431C2002.16 528.733 1976.35 546.996 1976.59 581.359L1987.16 964.653L2067.63 962.791Z" fill="#E73446"/><path fill-rule="evenodd" clip-rule="evenodd" d="M2000.68 480.238L1997.55 348.13H2138.84L2136.82 480.238H2000.68Z" fill="#242144"/><path fill-rule="evenodd" clip-rule="evenodd" d="M1976.59 582.92C1976.87 508.454 2000.68 480.237 2000.68 480.237L2136.81 479.812C2136.81 479.812 2160.36 505.851 2162.96 583.275C2163.53 600.306 2070.72 579.152 2070.72 579.152C2070.72 579.152 1976.52 600.166 1976.59 582.92Z" fill="#E73446"/><path fill-rule="evenodd" clip-rule="evenodd" d="M2018.54 417.294L1969.67 583.573L1944.59 579.349L1979 373.438L2018.54 417.294Z" fill="#F4836C"/><path fill-rule="evenodd" clip-rule="evenodd" d="M2104.29 444.97L2184.07 440.43L2162.51 372.468L2104.29 379.94V444.97Z" fill="#242144"/><path fill-rule="evenodd" clip-rule="evenodd" d="M1968.85 577.653L1972.84 604.428L1938.89 600.56L1945.54 574.282L1968.85 577.653Z" fill="#F4836C"/><path fill-rule="evenodd" clip-rule="evenodd" d="M1978.91 625.037C1976.44 626.455 1973.29 625.6 1971.87 623.128L1956.5 596.27L1965.44 591.139L1980.82 617.995C1982.23 620.467 1981.38 623.621 1978.91 625.037Z" fill="#F4836C"/><path fill-rule="evenodd" clip-rule="evenodd" d="M1973.55 645.34C1971.61 647.423 1968.35 647.538 1966.27 645.594L1949.63 630.064L1956.66 622.518L1973.3 638.047C1975.38 639.99 1975.49 643.256 1973.55 645.34Z" fill="#F4836C"/><path fill-rule="evenodd" clip-rule="evenodd" d="M1974.85 640.119C1972.62 641.89 1969.38 641.518 1967.61 639.287L1953.47 621.454L1961.54 615.037L1975.68 632.871C1977.45 635.101 1977.08 638.348 1974.85 640.119Z" fill="#F4836C"/><path fill-rule="evenodd" clip-rule="evenodd" d="M1938.86 599.895L1948.56 596.407L1959.39 626.584L1949.69 630.072L1938.86 599.895Z" fill="#F4836C"/><path fill-rule="evenodd" clip-rule="evenodd" d="M1943.43 598.065L1952.92 594.045L1965.39 623.577L1955.9 627.596L1943.43 598.065Z" fill="#F4836C"/><path fill-rule="evenodd" clip-rule="evenodd" d="M1965.26 611.644C1965.26 611.644 1963.27 607.315 1962.46 606.027C1960.78 603.356 1957.85 605.217 1958.8 607.706C1959.4 609.302 1961.7 614.443 1963.18 618.326C1956.69 611.532 1944.51 602.473 1944.51 602.473L1964.25 596.945L1965.26 611.644Z" fill="#F4836C"/><path fill-rule="evenodd" clip-rule="evenodd" d="M2005.61 478.72L2002.74 347.191H2132.29L2130.43 478.72H2005.61Z" fill="#242144"/><path fill-rule="evenodd" clip-rule="evenodd" d="M1973.8 380.889C1972.5 363.63 1985.42 348.582 2002.66 347.282C2019.9 345.98 2034.92 358.918 2036.22 376.177C2037.52 393.438 2016.47 420.042 2016.47 420.042C2016.47 420.042 1975.1 398.148 1973.8 380.889Z" fill="#242144"/><path fill-rule="evenodd" clip-rule="evenodd" d="M2163.48 380.889C2164.78 363.63 2151.86 348.582 2134.63 347.282C2117.39 345.98 2102.36 358.918 2101.06 376.177C2099.76 393.438 2120.81 420.042 2120.81 420.042C2120.81 420.042 2162.18 398.148 2163.48 380.889Z" fill="#242144"/><path fill-rule="evenodd" clip-rule="evenodd" d="M2077.61 320.389C2077.61 332.02 2087.02 341.451 2098.64 341.451C2110.26 341.451 2119.68 332.02 2119.68 320.389C2119.68 308.757 2110.26 299.326 2098.64 299.326C2087.02 299.326 2077.61 308.757 2077.61 320.389Z" fill="#5C1D14"/><path fill-rule="evenodd" clip-rule="evenodd" d="M2025.2 242.01C2025.2 250.465 2032.05 257.321 2040.49 257.321C2048.94 257.321 2055.78 250.465 2055.78 242.01C2055.78 233.554 2048.94 226.698 2040.49 226.698C2032.05 226.698 2025.2 233.554 2025.2 242.01Z" fill="#5C1D14"/><path fill-rule="evenodd" clip-rule="evenodd" d="M2079.54 241.793C2079.54 250.249 2086.39 257.104 2094.83 257.104C2103.28 257.104 2110.12 250.249 2110.12 241.793C2110.12 233.337 2103.28 226.481 2094.83 226.481C2086.39 226.481 2079.54 233.337 2079.54 241.793Z" fill="#5C1D14"/><path fill-rule="evenodd" clip-rule="evenodd" d="M2016.65 320.389C2016.65 332.02 2026.07 341.451 2037.69 341.451C2049.31 341.451 2058.72 332.02 2058.72 320.389C2058.72 308.757 2049.31 299.326 2037.69 299.326C2026.07 299.326 2016.65 308.757 2016.65 320.389Z" fill="#5C1D14"/><path fill-rule="evenodd" clip-rule="evenodd" d="M2109.1 298.742C2109.1 303.945 2104.89 308.162 2099.69 308.162C2094.49 308.162 2090.28 303.945 2090.28 298.742C2090.28 293.538 2094.49 289.321 2099.69 289.321C2104.89 289.321 2109.1 293.538 2109.1 298.742Z" fill="#F4836C"/><path fill-rule="evenodd" clip-rule="evenodd" d="M2045.25 298.714C2045.25 303.918 2041.04 308.135 2035.84 308.135C2030.65 308.135 2026.43 303.918 2026.43 298.714C2026.43 293.511 2030.65 289.294 2035.84 289.294C2041.04 289.294 2045.25 293.511 2045.25 298.714Z" fill="#F4836C"/><path fill-rule="evenodd" clip-rule="evenodd" d="M2044.54 346.96V316.765L2091.03 316.835V346.96C2091.03 359.814 2080.63 370.234 2067.79 370.234C2054.95 370.234 2044.54 359.814 2044.54 346.96Z" fill="#D96B55"/><path fill-rule="evenodd" clip-rule="evenodd" d="M2036.98 312.39V268.943C2036.98 255.21 2048.1 244.076 2061.81 244.076H2073.76C2087.48 244.076 2098.6 255.21 2098.6 268.943V312.39C2098.6 326.123 2087.48 337.258 2073.76 337.258H2061.81C2048.1 337.258 2036.98 326.123 2036.98 312.39Z" fill="#F4836C"/><path d="M2059.93 307.953C2059.93 307.953 2061.95 305.278 2064.19 307.351C2064.96 308.065 2065.88 308.62 2066.9 308.829C2067.73 308.994 2068.68 308.994 2069.58 308.532C2069.94 308.342 2070.26 308.075 2070.55 307.771C2071.07 307.198 2072.9 305.617 2075.37 307.953" stroke="#191414" stroke-width="0.84"/><path fill-rule="evenodd" clip-rule="evenodd" d="M2051.03 278.857L2050.66 278.848C2046.7 278.769 2042.94 280.653 2040.49 283.937L2060.99 284.35C2058.67 280.97 2054.99 278.936 2051.03 278.857Z" fill="#5C1D14"/><path fill-rule="evenodd" clip-rule="evenodd" d="M2083.84 278.857L2084.22 278.848C2088.17 278.769 2091.94 280.653 2094.38 283.937L2073.89 284.35C2076.21 280.97 2079.89 278.936 2083.84 278.857Z" fill="#5C1D14"/><path fill-rule="evenodd" clip-rule="evenodd" d="M2075.47 295.992C2075.47 295.992 2077.72 291.261 2081.97 289.817C2086.23 288.372 2090.88 290.761 2090.88 290.761C2090.88 290.761 2087.24 294.79 2084.26 295.765C2081.24 296.755 2075.47 295.992 2075.47 295.992Z" fill="white"/><path fill-rule="evenodd" clip-rule="evenodd" d="M2086.16 293.93C2086.73 292.281 2085.86 290.48 2084.21 289.907C2082.57 289.335 2080.77 290.206 2080.2 291.855C2079.62 293.504 2080.49 295.305 2082.14 295.878C2083.79 296.451 2085.59 295.579 2086.16 293.93Z" fill="black"/><path fill-rule="evenodd" clip-rule="evenodd" d="M2075.47 295.993C2075.47 295.993 2078.91 285.286 2094.83 289.352L2090.59 291.317C2087.25 290.688 2081.14 290.321 2075.47 295.993Z" fill="black"/><path fill-rule="evenodd" clip-rule="evenodd" d="M2060.09 295.992C2060.09 295.992 2057.84 291.261 2053.59 289.817C2049.34 288.372 2044.68 290.761 2044.68 290.761C2044.68 290.761 2047.91 294.525 2051.3 295.765C2054.5 296.937 2060.09 295.992 2060.09 295.992Z" fill="white"/><path fill-rule="evenodd" clip-rule="evenodd" d="M2049.4 293.93C2048.83 292.281 2049.7 290.48 2051.35 289.907C2053 289.335 2054.8 290.206 2055.37 291.855C2055.94 293.504 2055.07 295.305 2053.42 295.878C2051.77 296.451 2049.98 295.579 2049.4 293.93Z" fill="black"/><path fill-rule="evenodd" clip-rule="evenodd" d="M2060.09 295.993C2060.09 295.993 2056.65 285.286 2040.73 289.352L2044.98 291.317C2048.31 290.688 2054.43 290.321 2060.09 295.993Z" fill="black"/><path fill-rule="evenodd" clip-rule="evenodd" d="M2067.65 317.243C2067.65 315.256 2063.6 315.354 2063.6 315.354H2054.45C2054.51 315.014 2060.11 323.972 2067.79 323.974C2075.37 323.976 2080.85 315.354 2080.85 315.354H2071.7C2071.7 315.354 2067.62 315.419 2067.65 317.243Z" fill="#5C1D14"/><path fill-rule="evenodd" clip-rule="evenodd" d="M2037.34 297.02V284.274C2037.34 270.541 2048.33 259.408 2061.88 259.408H2065.26V251.719L2069.6 259.408H2073.7C2087.25 259.408 2098.24 270.541 2098.24 284.274V297.02H2103.05V268.742C2103.05 253.859 2091 241.794 2076.14 241.794H2059.44C2044.58 241.794 2032.53 253.859 2032.53 268.742V297.02H2037.34Z" fill="#5C1D14"/><path fill-rule="evenodd" clip-rule="evenodd" d="M2079.06 373.86H2055.38H2048.67L2055.38 430.46H2079.06L2085.78 373.86H2079.06Z" fill="#E73446"/><path fill-rule="evenodd" clip-rule="evenodd" d="M2084.14 370.234V364.383H2050.3V370.234H2045.84V376.085H2088.6V370.234H2084.14Z" fill="#FCDDDD"/><path fill-rule="evenodd" clip-rule="evenodd" d="M2050.31 388.095H2084.14L2080.77 415.194H2053.88L2050.31 388.095Z" fill="#FCDDDD"/><path fill-rule="evenodd" clip-rule="evenodd" d="M2086.84 395.605L2174.97 437.077C2185.87 442.205 2190.17 455.489 2184.35 466.041C2178.48 476.682 2164.8 480.06 2154.66 473.374L2071.34 418.432L2086.84 395.605Z" fill="#F4836C"/><path fill-rule="evenodd" clip-rule="evenodd" d="M2054.42 424.895L2056.16 391.062L2088.6 393.243L2088.33 425.628L2054.42 424.895Z" fill="#F4836C"/><path fill-rule="evenodd" clip-rule="evenodd" d="M2082.95 397.664L2084.15 386.68L2084.46 386.708C2086.98 386.934 2088.91 389.049 2088.91 391.583V397.892L2082.95 397.664Z" fill="#F4836C"/><path fill-rule="evenodd" clip-rule="evenodd" d="M2047.92 413.13C2048.08 410.273 2050.52 408.088 2053.38 408.247L2056.82 408.44L2056.24 418.784L2052.8 418.591C2049.95 418.43 2047.76 415.986 2047.92 413.13Z" fill="#F4836C"/><path fill-rule="evenodd" clip-rule="evenodd" d="M2049.81 419.268C2049.97 416.412 2052.41 414.227 2055.27 414.386L2058.71 414.579L2058.13 424.922L2054.69 424.73C2051.83 424.569 2049.65 422.125 2049.81 419.268Z" fill="#F4836C"/><path fill-rule="evenodd" clip-rule="evenodd" d="M2046.83 404.376C2046.99 401.519 2049.43 399.334 2052.28 399.494L2056.6 399.735L2056.02 410.079L2051.7 409.837C2048.85 409.677 2046.67 407.232 2046.83 404.376Z" fill="#F4836C"/><path fill-rule="evenodd" clip-rule="evenodd" d="M2048.06 395.798C2048.22 392.941 2050.66 390.756 2053.52 390.915L2056.96 391.108L2056.38 401.452L2052.94 401.259C2050.09 401.098 2047.9 398.654 2048.06 395.798Z" fill="#F4836C"/><path fill-rule="evenodd" clip-rule="evenodd" d="M2033.06 443.244H1962.01L1974.3 372.468L2033.06 378.215V443.244Z" fill="#242144"/><path fill-rule="evenodd" clip-rule="evenodd" d="M2481.07 580.911L2479.29 609.589L2513.94 607.558L2507.81 577.13L2481.07 580.911Z" fill="#9F403A"/><path fill-rule="evenodd" clip-rule="evenodd" d="M2508.18 580.34L2495.36 470.056L2451.39 476.459L2481.8 583.478L2508.18 580.34Z" fill="#9F403A"/><path fill-rule="evenodd" clip-rule="evenodd" d="M2472 630.149C2474.42 631.723 2477.66 631.032 2479.24 628.604L2496.32 602.228L2487.54 596.525L2470.45 622.902C2468.88 625.33 2469.57 628.575 2472 630.149Z" fill="#9F403A"/><path fill-rule="evenodd" clip-rule="evenodd" d="M2476.3 651.034C2478.15 653.255 2481.45 653.553 2483.67 651.698L2501.4 636.877L2494.69 628.833L2476.96 643.654C2474.75 645.508 2474.45 648.812 2476.3 651.034Z" fill="#9F403A"/><path fill-rule="evenodd" clip-rule="evenodd" d="M2475.27 645.667C2477.43 647.588 2480.74 647.391 2482.66 645.226L2497.99 627.93L2490.17 620.975L2474.83 638.269C2472.91 640.434 2473.11 643.745 2475.27 645.667Z" fill="#9F403A"/><path fill-rule="evenodd" clip-rule="evenodd" d="M2514 606.886L2504.36 602.809L2491.71 632.804L2501.35 636.881L2514 606.886Z" fill="#9F403A"/><path fill-rule="evenodd" clip-rule="evenodd" d="M2509.47 604.776L2500.07 600.172L2485.78 629.422L2495.18 634.026L2509.47 604.776Z" fill="#9F403A"/><path fill-rule="evenodd" clip-rule="evenodd" d="M2486.58 617.329C2486.58 617.329 2488.84 613.05 2489.73 611.79C2491.59 609.175 2494.45 611.225 2493.35 613.695C2492.65 615.279 2490.03 620.365 2488.32 624.22C2495.28 617.693 2508.13 609.185 2508.13 609.185L2488.42 602.481L2486.58 617.329Z" fill="#9F403A"/><path fill-rule="evenodd" clip-rule="evenodd" d="M2482.78 378.288L2495.76 472.989L2452.44 480.522L2427.84 384.403L2482.78 378.288Z" fill="#9F403A"/><path fill-rule="evenodd" clip-rule="evenodd" d="M2284.68 1009.31L2288.61 950.276H2340.5L2330.86 1009.31H2284.68Z" fill="#9F403A"/><path fill-rule="evenodd" clip-rule="evenodd" d="M2275.57 1020H2333.53V1006.29H2275.57V1020Z" fill="#232144"/><path fill-rule="evenodd" clip-rule="evenodd" d="M2333.53 1007.95C2333.53 993.945 2320.56 982.595 2304.55 982.595C2288.54 982.595 2275.57 993.945 2275.57 1007.95" fill="#242144"/><path fill-rule="evenodd" clip-rule="evenodd" d="M2358.71 969.251L2385.99 530.945H2296.28L2278.09 967.17L2358.71 969.251Z" fill="#463EC5"/><path fill-rule="evenodd" clip-rule="evenodd" d="M2322.49 418.155L2268.2 406.655L2235.09 491.986L2280.58 490.777L2322.49 418.155Z" fill="#9F403A"/><path fill-rule="evenodd" clip-rule="evenodd" d="M2295.68 584.522V533.055H2455.11L2454.25 584.834L2295.68 584.522Z" fill="#463EC5"/><path fill-rule="evenodd" clip-rule="evenodd" d="M2307.02 494.572L2303.59 353.63C2303.59 353.63 2362.05 335.988 2381.06 335.988C2398.38 335.988 2459.96 353.842 2459.96 353.842L2455.11 494.572H2307.02Z" fill="#E6E3DA"/><path fill-rule="evenodd" clip-rule="evenodd" d="M2475.93 1009.31L2471.95 950.276H2419.46L2429.22 1009.31H2475.93Z" fill="#9F403A"/><path fill-rule="evenodd" clip-rule="evenodd" d="M2426.43 1020H2484.4V1006.29H2426.43V1020Z" fill="#232144"/><path fill-rule="evenodd" clip-rule="evenodd" d="M2426.43 1007.95C2426.43 993.945 2439.41 982.595 2455.42 982.595C2471.42 982.595 2484.4 993.945 2484.4 1007.95" fill="#242144"/><path fill-rule="evenodd" clip-rule="evenodd" d="M2401.09 966.589L2373.98 535.544H2463.68L2481.88 967.171L2401.09 966.589Z" fill="#463EC5"/><path fill-rule="evenodd" clip-rule="evenodd" d="M2307.02 554.243H2455.11V401.803H2307.02V554.243Z" fill="#E6E3DA"/><path fill-rule="evenodd" clip-rule="evenodd" d="M2488.46 386.988C2488.46 386.988 2482.22 353.63 2456.55 353.63C2438.97 353.63 2423.73 365.466 2422.41 383.022C2421.09 400.577 2443 432.538 2443 432.538L2488.46 386.988Z" fill="#E6E3DA"/><path fill-rule="evenodd" clip-rule="evenodd" d="M2450.68 441.118L2503.4 404.822L2489.99 385.3L2437.27 421.596L2450.68 441.118Z" fill="#E6E3DA"/><path fill-rule="evenodd" clip-rule="evenodd" d="M2275.04 388.294C2275.04 388.294 2281.35 354.586 2307.09 353.631C2324.66 352.979 2339.91 365.466 2341.23 383.021C2342.55 400.578 2319.37 432.537 2319.37 432.537L2275.04 388.294Z" fill="#E6E3DA"/><path fill-rule="evenodd" clip-rule="evenodd" d="M2313.99 441.118L2261.27 404.822L2274.68 385.3L2327.4 421.596L2313.99 441.118Z" fill="#E6E3DA"/><path fill-rule="evenodd" clip-rule="evenodd" d="M2356.74 347.257V312.878L2404.07 312.896V347.257C2404.07 358.33 2395.1 367.308 2384.04 367.308H2376.77C2365.71 367.308 2356.74 358.33 2356.74 347.257Z" fill="#76342F"/><path fill-rule="evenodd" clip-rule="evenodd" d="M2338.7 298.899C2338.7 293.603 2342.99 289.31 2348.28 289.31C2353.57 289.31 2357.86 293.603 2357.86 298.899C2357.86 304.195 2353.57 308.489 2348.28 308.489C2342.99 308.489 2338.7 304.195 2338.7 298.899Z" fill="#9F403A"/><path fill-rule="evenodd" clip-rule="evenodd" d="M2403.39 298.899C2403.39 293.603 2407.67 289.31 2412.96 289.31C2418.26 289.31 2422.54 293.603 2422.54 298.899C2422.54 304.195 2418.26 308.489 2412.96 308.489C2407.67 308.489 2403.39 304.195 2403.39 298.899Z" fill="#9F403A"/><path fill-rule="evenodd" clip-rule="evenodd" d="M2348.92 310.404V266.177C2348.92 252.196 2360.24 240.863 2374.21 240.863H2386.37C2400.34 240.863 2411.66 252.196 2411.66 266.177V310.404C2411.66 324.384 2400.34 335.717 2386.37 335.717H2374.21C2360.24 335.717 2348.92 324.384 2348.92 310.404Z" fill="#9F403A"/><path fill-rule="evenodd" clip-rule="evenodd" d="M2385.88 282.556V280.172C2385.88 277.127 2388.34 274.658 2391.38 274.658H2401.23C2404.25 274.658 2406.69 277.104 2406.69 280.122V282.506C2406.69 282.534 2406.67 282.556 2406.64 282.556H2385.88Z" fill="#010101"/><path fill-rule="evenodd" clip-rule="evenodd" d="M2372.03 293.643C2372.44 291.761 2369.76 289.585 2366.04 288.782C2362.32 287.978 2358.98 288.852 2358.58 290.732C2358.17 292.614 2360.85 294.79 2364.57 295.594C2368.29 296.398 2371.63 295.524 2372.03 293.643Z" fill="white"/><path fill-rule="evenodd" clip-rule="evenodd" d="M2368.33 294.039C2369.34 292.368 2368.81 290.187 2367.14 289.169C2365.47 288.151 2363.3 288.681 2362.28 290.352C2361.26 292.023 2361.79 294.204 2363.46 295.223C2365.13 296.24 2367.31 295.71 2368.33 294.039Z" fill="#010101"/><path fill-rule="evenodd" clip-rule="evenodd" d="M2390.36 293.643C2389.96 291.761 2392.64 289.585 2396.36 288.782C2400.07 287.978 2403.41 288.852 2403.82 290.732C2404.22 292.614 2401.54 294.79 2397.83 295.594C2394.11 296.398 2390.77 295.524 2390.36 293.643Z" fill="white"/><path fill-rule="evenodd" clip-rule="evenodd" d="M2394.07 294.039C2393.05 292.368 2393.58 290.187 2395.25 289.169C2396.92 288.151 2399.1 288.681 2400.12 290.352C2401.13 292.023 2400.6 294.204 2398.93 295.223C2397.26 296.24 2395.09 295.71 2394.07 294.039Z" fill="#010101"/><path fill-rule="evenodd" clip-rule="evenodd" d="M2376.26 282.556V280.172C2376.26 277.127 2373.79 274.658 2370.75 274.658H2360.9C2357.89 274.658 2355.44 277.104 2355.44 280.122V282.506C2355.44 282.534 2355.47 282.556 2355.49 282.556H2376.26Z" fill="#010101"/><path fill-rule="evenodd" clip-rule="evenodd" d="M2381.34 321.734C2378.33 321.734 2375.59 320.595 2373.75 318.554L2375.18 317.257C2376.77 319.015 2379.22 319.94 2381.9 319.786C2384.21 319.657 2386.25 318.738 2387.22 317.389L2388.78 318.517C2387.46 320.356 2384.93 321.552 2382.01 321.715C2381.78 321.728 2381.56 321.734 2381.34 321.734Z" fill="#010101"/><path fill-rule="evenodd" clip-rule="evenodd" d="M2348.34 310.583H2350.93V261.083H2348.34V310.583Z" fill="#010101"/><path fill-rule="evenodd" clip-rule="evenodd" d="M2409.81 310.932H2412.4V260.732H2409.81V310.932Z" fill="#010101"/><path fill-rule="evenodd" clip-rule="evenodd" d="M2366.28 316.361V313.728C2366.28 311.063 2368.44 308.901 2371.1 308.901H2391.26C2393.92 308.901 2396.08 311.063 2396.08 313.728V316.361H2366.28Z" fill="#010101"/><path fill-rule="evenodd" clip-rule="evenodd" d="M2381.21 307.785C2379.76 307.785 2378.62 307.067 2377.61 306.432C2375.95 305.39 2374.94 304.762 2372.94 306.766L2371.64 305.462C2374.68 302.418 2376.85 303.779 2378.59 304.87C2379.46 305.421 2380.29 305.942 2381.21 305.942C2382.16 305.942 2382.94 305.462 2383.77 304.954C2385.42 303.939 2387.48 302.678 2390.89 305.509L2389.71 306.928C2387.32 304.939 2386.29 305.571 2384.73 306.525C2383.77 307.117 2382.68 307.785 2381.21 307.785Z" fill="#010101"/><path fill-rule="evenodd" clip-rule="evenodd" d="M2293.92 554.242L2305.25 401.802L2309.17 554.242H2293.92Z" fill="#E6E3DA"/><path fill-rule="evenodd" clip-rule="evenodd" d="M2322.49 573.375L2282.32 485.744L2235.09 491.81L2297.6 593.582L2322.49 573.375Z" fill="#9F403A"/><path fill-rule="evenodd" clip-rule="evenodd" d="M2475.88 554.242L2455.3 401.802L2451.38 554.242H2475.88Z" fill="#E6E3DA"/><path fill-rule="evenodd" clip-rule="evenodd" d="M2278.09 978.989H2358.95V963.564H2278.09V978.989Z" fill="#232144"/><path fill-rule="evenodd" clip-rule="evenodd" d="M2401.02 978.989H2481.88V963.564H2401.02V978.989Z" fill="#232144"/><path fill-rule="evenodd" clip-rule="evenodd" d="M2348.34 253.986C2348.34 246.7 2354.24 240.796 2361.51 240.796H2394.5V245.535C2394.5 251.15 2392.27 256.533 2388.31 260.502C2384.34 264.472 2378.96 266.703 2373.36 266.703H2348.34V253.986Z" fill="#010101"/><path fill-rule="evenodd" clip-rule="evenodd" d="M2412.39 253.986C2412.39 246.7 2406.49 240.796 2399.21 240.796H2394.18V256.313C2394.18 262.051 2398.82 266.703 2404.55 266.703H2412.39V253.986Z" fill="#010101"/><path fill-rule="evenodd" clip-rule="evenodd" d="M765.291 523.576L748.131 578.99L722.63 574.695L732.141 517.777L765.291 523.576Z" fill="#9E3F39"/><path fill-rule="evenodd" clip-rule="evenodd" d="M747.63 572.88L751.724 600.372L716.859 596.4L723.695 569.42L747.63 572.88Z" fill="#9E3F39"/><path fill-rule="evenodd" clip-rule="evenodd" d="M756.693 613.796C754.158 615.251 750.924 614.374 749.471 611.835L733.682 584.259L742.862 578.989L758.652 606.566C760.105 609.104 759.228 612.342 756.693 613.796Z" fill="#9E3F39"/><path fill-rule="evenodd" clip-rule="evenodd" d="M756.676 621.361C756.734 624.287 754.41 626.704 751.49 626.76L728.14 627.215L727.936 616.622L751.284 616.168C754.206 616.111 756.619 618.436 756.676 621.361Z" fill="#9E3F39"/><path fill-rule="evenodd" clip-rule="evenodd" d="M753.907 616.583C753.529 619.483 750.873 621.528 747.975 621.15L724.819 618.123L726.188 607.617L749.345 610.643C752.243 611.023 754.285 613.682 753.907 616.583Z" fill="#9E3F39"/><path fill-rule="evenodd" clip-rule="evenodd" d="M716.836 595.717L726.795 592.135L737.911 623.12L727.95 626.702L716.836 595.717Z" fill="#9E3F39"/><path fill-rule="evenodd" clip-rule="evenodd" d="M721.522 593.838L731.269 589.711L744.077 620.035L734.33 624.16L721.522 593.838Z" fill="#9E3F39"/><path fill-rule="evenodd" clip-rule="evenodd" d="M743.938 607.781C743.938 607.781 741.897 603.336 741.064 602.014C739.335 599.271 736.335 601.182 737.304 603.737C737.926 605.376 740.285 610.655 741.798 614.641C735.134 607.667 722.631 598.364 722.631 598.364L742.901 592.689L743.938 607.781Z" fill="#9E3F39"/><path fill-rule="evenodd" clip-rule="evenodd" d="M761.516 740.163V646.213H723.199V740.163C723.199 742.971 725.473 745.246 728.276 745.246H756.44C759.243 745.246 761.516 742.971 761.516 740.163Z" fill="#FF6200"/><path fill-rule="evenodd" clip-rule="evenodd" d="M747.547 651.525V605.568C747.547 602.699 745.223 600.373 742.359 600.373C739.492 600.373 737.169 602.699 737.169 605.568V651.525H747.547Z" fill="#FF6200"/><path fill-rule="evenodd" clip-rule="evenodd" d="M832 352.204V316.479L877.491 316.563V352.204H832Z" fill="#7A2F37"/><path fill-rule="evenodd" clip-rule="evenodd" d="M823.671 360.023H885.941V329.076H823.671V360.023Z" fill="#463EC5"/><path fill-rule="evenodd" clip-rule="evenodd" d="M924.594 262.659C924.594 300.89 893.64 331.882 855.457 331.882C817.273 331.882 786.319 300.89 786.319 262.659C786.319 224.429 817.273 193.437 855.457 193.437C893.64 193.437 924.594 224.429 924.594 262.659Z" fill="#420F0F"/><path fill-rule="evenodd" clip-rule="evenodd" d="M895.168 299.129C895.168 304.22 891.046 308.347 885.961 308.347C880.876 308.347 876.754 304.22 876.754 299.129C876.754 294.037 880.876 289.91 885.961 289.91C891.046 289.91 895.168 294.037 895.168 299.129Z" fill="#9E3F39"/><path fill-rule="evenodd" clip-rule="evenodd" d="M832.694 299.102C832.694 304.194 828.572 308.321 823.487 308.321C818.401 308.321 814.279 304.194 814.279 299.102C814.279 294.011 818.401 289.884 823.487 289.884C828.572 289.884 832.694 294.011 832.694 299.102Z" fill="#9E3F39"/><path fill-rule="evenodd" clip-rule="evenodd" d="M824.596 303.297C829.171 303.297 832.88 307.01 832.88 311.591V319.793C832.88 324.374 829.171 328.086 824.596 328.086C820.023 328.086 816.312 324.374 816.312 319.793V311.591C816.312 307.01 820.023 303.297 824.596 303.297Z" fill="#D8CBC5"/><path fill-rule="evenodd" clip-rule="evenodd" d="M885.221 303.297C889.796 303.297 893.505 307.01 893.505 311.591V319.793C893.505 324.374 889.796 328.086 885.221 328.086C880.648 328.086 876.938 324.374 876.938 319.793V311.591C876.938 307.01 880.648 303.297 885.221 303.297Z" fill="#D8CBC5"/><path fill-rule="evenodd" clip-rule="evenodd" d="M824.597 313.088V270.575C824.597 257.137 835.477 246.244 848.898 246.244H860.593C874.015 246.244 884.896 257.137 884.896 270.575V313.088C884.896 326.526 874.015 337.419 860.593 337.419H848.898C835.477 337.419 824.597 326.526 824.597 313.088Z" fill="#9E3F39"/><path d="M846.858 307.857C846.858 307.857 848.835 305.239 851.027 307.268C851.782 307.967 852.678 308.509 853.683 308.714C854.486 308.876 855.419 308.876 856.297 308.424C856.654 308.237 856.97 307.976 857.248 307.677C857.76 307.118 859.545 305.57 861.967 307.857" stroke="#171111" stroke-width="0.822"/><path fill-rule="evenodd" clip-rule="evenodd" d="M854.805 318.328C854.805 315.748 850.855 316.092 850.855 316.092H841.927C842.014 315.589 854.538 335.279 867.684 316.092H858.754C858.754 316.092 854.805 315.748 854.805 318.328Z" fill="#420F0F"/><path fill-rule="evenodd" clip-rule="evenodd" d="M861.562 296.581C861.562 296.581 863.762 291.86 867.987 290.392C872.211 288.923 876.859 291.26 876.859 291.26C876.859 291.26 875.17 295.109 870.946 296.578C866.721 298.047 861.562 296.581 861.562 296.581Z" fill="white"/><path fill-rule="evenodd" clip-rule="evenodd" d="M865.556 293.16C865.556 295.182 867.192 296.821 869.211 296.821C871.231 296.821 872.867 295.182 872.867 293.16C872.867 291.139 871.231 289.5 869.211 289.5C867.192 289.5 865.556 291.139 865.556 293.16Z" fill="black"/><path fill-rule="evenodd" clip-rule="evenodd" d="M861.562 296.577C862.652 289.031 872.18 285.807 878.039 289.352C877.679 289.926 876.993 291.094 876.634 291.668C875.339 290.885 868.612 288.164 862.502 295.496C862.132 295.941 862.085 296.128 861.562 296.577Z" fill="black"/><path fill-rule="evenodd" clip-rule="evenodd" d="M846.865 296.508C846.865 296.508 844.665 291.787 840.44 290.319C836.217 288.85 831.568 291.186 831.568 291.186C831.568 291.186 833.258 295.035 837.482 296.505C841.706 297.974 846.865 296.508 846.865 296.508Z" fill="white"/><path fill-rule="evenodd" clip-rule="evenodd" d="M842.873 293.16C842.873 295.182 841.236 296.821 839.217 296.821C837.198 296.821 835.562 295.182 835.562 293.16C835.562 291.139 837.198 289.5 839.217 289.5C841.236 289.5 842.873 291.139 842.873 293.16Z" fill="black"/><path fill-rule="evenodd" clip-rule="evenodd" d="M846.866 296.506C845.776 288.96 836.248 285.735 830.39 289.281C830.75 289.855 831.435 291.023 831.794 291.597C833.09 290.814 839.816 288.093 845.926 295.425C846.297 295.87 846.344 296.057 846.866 296.506Z" fill="black"/><path fill-rule="evenodd" clip-rule="evenodd" d="M829.819 283.313H849.879V279.582H829.819V283.313Z" fill="#420F0F"/><path fill-rule="evenodd" clip-rule="evenodd" d="M859.73 283.313H879.791V279.582H859.73V283.313Z" fill="#420F0F"/><path fill-rule="evenodd" clip-rule="evenodd" d="M824.98 282.688C825.59 269.8 836.094 259.54 848.968 259.54H852.969V252.017H856.522V259.54H860.525C873.397 259.54 883.903 269.8 884.513 282.688H889.253V268.672C889.253 254.11 877.462 242.305 862.918 242.305H846.575C832.031 242.305 820.24 254.11 820.24 268.672V282.688H824.98Z" fill="#420F0F"/><path fill-rule="evenodd" clip-rule="evenodd" d="M823.439 300.83H824.952V282.045H823.439V300.83Z" fill="#420F0F"/><path fill-rule="evenodd" clip-rule="evenodd" d="M885.962 302.186L884.451 302.18V281.555L885.962 282.84V302.186Z" fill="#420F0F"/><path fill-rule="evenodd" clip-rule="evenodd" d="M712.606 542.85L759.006 373.438L838.951 402.991L769.076 583.863L712.606 542.85Z" fill="#463EC5"/><path fill-rule="evenodd" clip-rule="evenodd" d="M942.07 527.519L959.007 582.211L984.176 577.972L974.788 521.796L942.07 527.519Z" fill="#9E3F39"/><path fill-rule="evenodd" clip-rule="evenodd" d="M959.501 576.18L955.461 603.315L989.869 599.394L983.124 572.766L959.501 576.18Z" fill="#9E3F39"/><path fill-rule="evenodd" clip-rule="evenodd" d="M949.313 624.198C951.815 625.633 955.006 624.768 956.441 622.262L972.025 595.046L962.963 589.846L947.38 617.061C945.946 619.567 946.812 622.762 949.313 624.198Z" fill="#9E3F39"/><path fill-rule="evenodd" clip-rule="evenodd" d="M954.74 644.774C956.708 646.885 960.013 647.001 962.121 645.031L978.978 629.295L971.855 621.646L954.998 637.384C952.889 639.354 952.774 642.662 954.74 644.774Z" fill="#9E3F39"/><path fill-rule="evenodd" clip-rule="evenodd" d="M953.424 639.481C955.683 641.277 958.968 640.899 960.761 638.637L975.093 620.565L966.914 614.062L952.581 632.135C950.789 634.397 951.165 637.684 953.424 639.481Z" fill="#9E3F39"/><path fill-rule="evenodd" clip-rule="evenodd" d="M989.893 598.721L980.064 595.186L969.094 625.767L978.923 629.301L989.893 598.721Z" fill="#9E3F39"/><path fill-rule="evenodd" clip-rule="evenodd" d="M985.268 596.866L975.649 592.793L963.008 622.719L972.628 626.793L985.268 596.866Z" fill="#9E3F39"/><path fill-rule="evenodd" clip-rule="evenodd" d="M963.145 610.627C963.145 610.627 965.159 606.239 965.981 604.935C967.687 602.227 970.649 604.113 969.691 606.635C969.077 608.252 966.749 613.463 965.256 617.399C971.833 610.514 984.174 601.332 984.174 601.332L964.168 595.732L963.145 610.627Z" fill="#9E3F39"/><path fill-rule="evenodd" clip-rule="evenodd" d="M996.558 538.069L950.45 372.908L870.214 398.21L940.088 579.082L996.558 538.069Z" fill="#463EC5"/><path fill-rule="evenodd" clip-rule="evenodd" d="M790.936 480.014L788.027 346.725H919.31L917.429 480.014H790.936Z" fill="#463EC5"/><path fill-rule="evenodd" clip-rule="evenodd" d="M846.66 1009.21H810.91L800.584 916.001H846.185L846.66 1009.21Z" fill="#9E3F39"/><path fill-rule="evenodd" clip-rule="evenodd" d="M848.951 1009.21C848.951 993.2 835.987 980.221 819.995 980.221C804.004 980.221 791.041 993.2 791.041 1009.21" fill="#FF6200"/><path fill-rule="evenodd" clip-rule="evenodd" d="M791.042 1020H848.95V1009.21H791.042V1020Z" fill="#463EC5"/><path fill-rule="evenodd" clip-rule="evenodd" d="M848.95 956.456L850.885 524.327H837.005C797.74 524.327 770.811 541.133 769.076 583.864L748.047 891.377C745.713 925.514 772.31 954.693 806.476 955.48L848.95 956.456Z" fill="#D8CBC5"/><path fill-rule="evenodd" clip-rule="evenodd" d="M864.655 1009.21H900.405L910.7 916.281L910.731 916.001H865.13L864.655 1009.21Z" fill="#9E3F39"/><path fill-rule="evenodd" clip-rule="evenodd" d="M862.364 1009.21C862.364 993.2 875.327 980.221 891.32 980.221C907.311 980.221 920.274 993.2 920.274 1009.21" fill="#FF6200"/><path fill-rule="evenodd" clip-rule="evenodd" d="M862.364 1020H920.272V1009.21H862.364V1020Z" fill="#463EC5"/><path fill-rule="evenodd" clip-rule="evenodd" d="M862.364 956.456L860.429 524.327H874.309C913.574 524.327 938.52 535.949 941.363 583.167L963.267 891.377C965.601 925.514 939.004 954.693 904.838 955.48L862.364 956.456Z" fill="#D8CBC5"/><path fill-rule="evenodd" clip-rule="evenodd" d="M769.076 583.863C775.186 513.985 795.302 479.833 795.302 479.833H912.501C912.501 479.833 936.99 506.979 940.547 584.221C941.339 601.393 855.684 580.061 855.684 580.061C855.684 580.061 767.561 601.183 769.076 583.863Z" fill="#D8CBC5"/><path fill-rule="evenodd" clip-rule="evenodd" d="M758.699 380.874C757.382 363.383 770.476 348.135 787.945 346.816C805.416 345.498 820.645 358.608 821.961 376.099C823.277 393.591 801.948 420.551 801.948 420.551C801.948 420.551 760.015 398.364 758.699 380.874Z" fill="#463EC5"/><path fill-rule="evenodd" clip-rule="evenodd" d="M950.925 380.874C952.242 363.383 939.148 348.135 921.679 346.816C904.208 345.498 888.979 358.608 887.663 376.099C886.347 393.591 907.676 420.551 907.676 420.551C907.676 420.551 949.609 398.364 950.925 380.874Z" fill="#463EC5"/><path fill-rule="evenodd" clip-rule="evenodd" d="M388.093 231.451L397.374 197.312C398.063 194.774 400.678 193.277 403.213 193.967C405.748 194.658 407.244 197.276 406.554 199.814L397.274 233.953L388.093 231.451Z" fill="#A86554"/><path fill-rule="evenodd" clip-rule="evenodd" d="M376.696 334.722L339.52 325.222L368.284 243.137L394.723 246.629L376.696 334.722Z" fill="#A86554"/><path fill-rule="evenodd" clip-rule="evenodd" d="M367.356 248.177L363.828 219.908L399.488 223.373C399.676 223.39 399.807 223.57 399.766 223.756L393.679 251.364L367.356 248.177Z" fill="#A86554"/><path fill-rule="evenodd" clip-rule="evenodd" d="M366.359 253.089L375.467 212.856C376.009 210.462 378.389 208.96 380.78 209.504L381.397 209.642C383.789 210.185 385.289 212.568 384.746 214.963L375.639 255.195L366.359 253.089Z" fill="#A86554"/><path fill-rule="evenodd" clip-rule="evenodd" d="M365.072 222.063L373.755 183.711C374.335 181.147 376.882 179.537 379.446 180.119C382.007 180.7 383.615 183.252 383.034 185.818L374.352 224.168L365.072 222.063Z" fill="#A86554"/><path fill-rule="evenodd" clip-rule="evenodd" d="M371.977 259.766L357.833 224.23C356.877 221.825 358.048 219.101 360.448 218.143L361.067 217.897C363.467 216.938 366.189 218.11 367.145 220.513L381.289 256.051L371.977 259.766Z" fill="#A86554"/><path fill-rule="evenodd" clip-rule="evenodd" d="M375.434 252.035L383.314 217.221C383.857 214.826 386.236 213.325 388.628 213.866L389.245 214.006C391.636 214.55 393.136 216.932 392.594 219.326L384.713 254.141L375.434 252.035Z" fill="#A86554"/><path fill-rule="evenodd" clip-rule="evenodd" d="M391.741 258.966L363.038 258.739L330.046 351.857L239.541 382.389L288.433 425.63L355.456 388.296C362.97 384.11 368.27 376.83 369.953 368.386L391.741 258.966Z" fill="#A86554"/><path fill-rule="evenodd" clip-rule="evenodd" d="M123.554 580.416L124.539 609.065L90.041 606.091L96.988 575.913L123.554 580.416Z" fill="#A86554"/><path fill-rule="evenodd" clip-rule="evenodd" d="M96.5332 579.103L112.33 469.465L156.01 477.055L122.756 582.955L96.5332 579.103Z" fill="#A86554"/><path fill-rule="evenodd" clip-rule="evenodd" d="M131.254 629.769C128.792 631.272 125.579 630.495 124.078 628.03L107.759 601.256L116.672 595.81L132.991 622.583C134.494 625.048 133.716 628.265 131.254 629.769Z" fill="#A86554"/><path fill-rule="evenodd" clip-rule="evenodd" d="M126.392 650.48C124.485 652.645 121.185 652.851 119.023 650.941L101.745 635.674L108.654 627.835L125.932 643.102C128.093 645.012 128.299 648.316 126.392 650.48Z" fill="#A86554"/><path fill-rule="evenodd" clip-rule="evenodd" d="M127.563 645.156C125.355 647.012 122.062 646.725 120.208 644.514L105.389 626.845L113.386 620.122L128.205 637.791C130.059 640.002 129.772 643.299 127.563 645.156Z" fill="#A86554"/><path fill-rule="evenodd" clip-rule="evenodd" d="M90 605.418L99.7278 601.615L111.528 631.879L101.801 635.68L90 605.418Z" fill="#A86554"/><path fill-rule="evenodd" clip-rule="evenodd" d="M94.5713 603.437L104.074 599.103L117.525 628.667L108.023 633.001L94.5713 603.437Z" fill="#A86554"/><path fill-rule="evenodd" clip-rule="evenodd" d="M117.059 616.584C117.059 616.584 114.925 612.254 114.068 610.973C112.288 608.314 109.381 610.279 110.408 612.773C111.065 614.374 113.534 619.517 115.134 623.408C108.372 616.708 95.7871 607.872 95.7871 607.872L115.628 601.725L117.059 616.584Z" fill="#A86554"/><path fill-rule="evenodd" clip-rule="evenodd" d="M127.387 378.288L111.848 472.379L154.849 481.08L182.012 385.891L127.387 378.288Z" fill="#A86554"/><path fill-rule="evenodd" clip-rule="evenodd" d="M147.164 495.78L143.742 355.164C143.742 355.164 202.074 337.563 221.04 337.563C238.32 337.563 299.751 355.375 299.751 355.375L294.914 495.78H147.164Z" fill="#D8CBC5"/><path fill-rule="evenodd" clip-rule="evenodd" d="M136.957 1009.33L141.858 914.273H190.927L178.621 1009.33H136.957Z" fill="#A86554"/><path fill-rule="evenodd" clip-rule="evenodd" d="M122.549 1020H184.322V1006.32H122.549V1020Z" fill="#472940"/><path fill-rule="evenodd" clip-rule="evenodd" d="M184.321 1007.97L184.786 978.963L134.385 979.092L122.35 1007.97H184.321Z" fill="#472940"/><path fill-rule="evenodd" clip-rule="evenodd" d="M191.751 964.9L221.639 532.488L148.507 540.595L133.087 964.9H191.751Z" fill="#472940"/><path fill-rule="evenodd" clip-rule="evenodd" d="M195.82 748.693C195.82 748.693 186.539 756.033 175.09 756.033C163.642 756.033 154.361 748.693 154.361 748.693C154.361 748.693 163.642 741.354 175.09 741.354C186.539 741.354 195.82 748.693 195.82 748.693Z" fill="#A86554"/><path fill-rule="evenodd" clip-rule="evenodd" d="M305.722 1009.33L300.82 914.273H251.752L264.058 1009.33H305.722Z" fill="#A86554"/><path fill-rule="evenodd" clip-rule="evenodd" d="M258.358 1020H320.131V1006.32H258.358V1020Z" fill="#472940"/><path fill-rule="evenodd" clip-rule="evenodd" d="M258.358 1007.97L257.894 978.963L308.294 979.092L320.33 1007.97H258.358Z" fill="#472940"/><path fill-rule="evenodd" clip-rule="evenodd" d="M250.928 964.9L221.04 532.488L294.172 540.595L309.592 964.9H250.928Z" fill="#472940"/><path fill-rule="evenodd" clip-rule="evenodd" d="M147.165 585.396V512.729H294.915L294.122 585.836L147.165 585.396Z" fill="#242144"/><path fill-rule="evenodd" clip-rule="evenodd" d="M140.2 585.835L143.644 403.226H301.956L302.201 585.835H140.2Z" fill="#D8CBC5"/><path fill-rule="evenodd" clip-rule="evenodd" d="M325.643 420.507L328.539 352.366L243.994 340.393L287.791 428.937L325.643 420.507Z" fill="#D8CBC5"/><path fill-rule="evenodd" clip-rule="evenodd" d="M106.423 433.89C106.423 433.89 121.558 356.118 147.24 355.165C164.771 354.514 179.984 366.974 181.303 384.489C182.62 402.003 158.722 454.421 158.722 454.421L106.423 433.89Z" fill="#D8CBC5"/><path fill-rule="evenodd" clip-rule="evenodd" d="M196.777 348.807V314.506L243.994 314.525V348.807C243.994 359.855 235.049 368.812 224.014 368.812H216.758C205.723 368.812 196.777 359.855 196.777 348.807Z" fill="#A86554"/><path fill-rule="evenodd" clip-rule="evenodd" d="M178.784 298.789C178.784 293.505 183.062 289.222 188.34 289.222C193.618 289.222 197.897 293.505 197.897 298.789C197.897 304.074 193.618 308.357 188.34 308.357C183.062 308.357 178.784 304.074 178.784 298.789Z" fill="#A86554"/><path fill-rule="evenodd" clip-rule="evenodd" d="M243.631 298.789C243.631 293.505 247.909 289.222 253.187 289.222C258.465 289.222 262.744 293.505 262.744 298.789C262.744 304.074 258.465 308.357 253.187 308.357C247.909 308.357 243.631 304.074 243.631 298.789Z" fill="#A86554"/><path fill-rule="evenodd" clip-rule="evenodd" d="M188.977 312.038V267.913C188.977 253.965 200.269 242.658 214.201 242.658H226.339C240.27 242.658 251.564 253.965 251.564 267.913V312.038C251.564 325.986 240.27 337.294 226.339 337.294H214.201C200.269 337.294 188.977 325.986 188.977 312.038Z" fill="#A86554"/><path fill-rule="evenodd" clip-rule="evenodd" d="M230.021 294.673C229.599 292.715 232.391 290.45 236.259 289.614C240.126 288.777 243.603 289.686 244.026 291.644C244.448 293.601 241.656 295.867 237.788 296.703C233.921 297.54 230.443 296.631 230.021 294.673Z" fill="white"/><path fill-rule="evenodd" clip-rule="evenodd" d="M233.879 295.086C232.82 293.347 233.372 291.077 235.109 290.018C236.847 288.958 239.113 289.508 240.172 291.249C241.229 292.988 240.679 295.258 238.941 296.317C237.204 297.377 234.938 296.826 233.879 295.086Z" fill="#010101"/><path fill-rule="evenodd" clip-rule="evenodd" d="M210.578 294.673C211 292.715 208.208 290.45 204.34 289.614C200.472 288.777 196.996 289.686 196.572 291.644C196.15 293.601 198.943 295.867 202.811 296.703C206.678 297.54 210.156 296.631 210.578 294.673Z" fill="white"/><path fill-rule="evenodd" clip-rule="evenodd" d="M206.72 295.086C207.779 293.347 207.227 291.077 205.49 290.018C203.752 288.958 201.486 289.508 200.427 291.249C199.37 292.988 199.92 295.258 201.658 296.317C203.395 297.377 205.661 296.826 206.72 295.086Z" fill="#010101"/><path fill-rule="evenodd" clip-rule="evenodd" d="M215.243 286.236V281.944C215.243 279.882 213.573 278.209 211.513 278.209H199.175C197.133 278.209 195.478 279.867 195.478 281.911V286.203C195.478 286.222 195.492 286.236 195.511 286.236H215.243Z" fill="#010101"/><path fill-rule="evenodd" clip-rule="evenodd" d="M246.119 286.236V281.944C246.119 279.882 244.449 278.209 242.389 278.209H230.051C228.009 278.209 226.354 279.867 226.354 281.911V286.203C226.354 286.222 226.368 286.236 226.387 286.236H246.119Z" fill="#010101"/><path fill-rule="evenodd" clip-rule="evenodd" d="M188.391 314.282H190.974V262.482H188.391V314.282Z" fill="#FFCD94"/><path fill-rule="evenodd" clip-rule="evenodd" d="M188.39 324.1V298.973H191.001L198.009 324.1H188.39Z" fill="#010101"/><path fill-rule="evenodd" clip-rule="evenodd" d="M249.724 315.014H252.307V262.482H249.724V315.014Z" fill="#FFCD94"/><path fill-rule="evenodd" clip-rule="evenodd" d="M252.307 324.1V298.973H249.665L242.688 324.1H252.307Z" fill="#010101"/><path fill-rule="evenodd" clip-rule="evenodd" d="M188.39 262.482V253.196C188.39 247.377 193.101 242.658 198.915 242.658H242.305C242.305 242.658 245.074 250.683 242.896 253.256C240.268 256.362 232.023 262.482 218.61 262.482H188.39Z" fill="#FFCD94"/><path fill-rule="evenodd" clip-rule="evenodd" d="M221.19 308.026C219.743 308.026 218.6 307.309 217.592 306.676C215.936 305.637 214.936 305.009 212.937 307.01L211.639 305.709C214.671 302.673 216.833 304.029 218.568 305.118C219.443 305.667 220.271 306.186 221.19 306.186C222.133 306.186 222.914 305.707 223.739 305.201C225.389 304.189 227.44 302.93 230.843 305.756L229.669 307.171C227.28 305.188 226.253 305.816 224.7 306.769C223.74 307.359 222.652 308.026 221.19 308.026Z" fill="#010101"/><path fill-rule="evenodd" clip-rule="evenodd" d="M233.889 352.438H206.81C196.636 352.438 188.391 344.182 188.391 333.996V319.212H252.308V333.996C252.308 344.182 244.061 352.438 233.889 352.438Z" fill="#010101"/><path fill-rule="evenodd" clip-rule="evenodd" d="M252.333 263.294H245.358C240.36 263.294 236.31 259.237 236.31 254.234V242.658H242.18C247.787 242.658 252.333 247.209 252.333 252.824V263.294Z" fill="#FFCD94"/><path fill-rule="evenodd" clip-rule="evenodd" d="M292.868 748.693C292.868 748.693 283.588 756.033 272.139 756.033C260.691 756.033 251.41 748.693 251.41 748.693C251.41 748.693 260.691 741.354 272.139 741.354C283.588 741.354 292.868 748.693 292.868 748.693Z" fill="#A86554"/><path fill-rule="evenodd" clip-rule="evenodd" d="M231.295 322.243L210.766 322.269L210.748 308.815L231.033 308.788L231.295 322.243Z" fill="#010101"/><path fill-rule="evenodd" clip-rule="evenodd" d="M210.765 322.371L202.112 322.383L210.748 308.71L210.765 322.371Z" fill="#010101"/><path fill-rule="evenodd" clip-rule="evenodd" d="M230.864 322.345L239.517 322.334L230.847 308.685L230.864 322.345Z" fill="#010101"/><path fill-rule="evenodd" clip-rule="evenodd" d="M1690.45 1009.06L1684.54 920.814H1731.24V1009.06H1690.45Z" fill="#9E3F39"/><path fill-rule="evenodd" clip-rule="evenodd" d="M1741.77 533.597L1674.25 546.769L1675.67 967.467H1737.39L1741.77 533.597Z" fill="#01464D"/><path fill-rule="evenodd" clip-rule="evenodd" d="M1674.62 1020H1731.24V1006.6H1674.62V1020Z" fill="#BAC09A"/><path fill-rule="evenodd" clip-rule="evenodd" d="M1731.24 1007.73C1731.24 994.049 1718.57 982.961 1702.93 982.961C1687.29 982.961 1674.62 994.049 1674.62 1007.73" fill="#BAC09A"/><path fill-rule="evenodd" clip-rule="evenodd" d="M1822.31 991.147L1804.11 920.387L1859.55 920.846L1867.95 992.003L1822.31 991.147Z" fill="#9E3F39"/><path fill-rule="evenodd" clip-rule="evenodd" d="M1820.01 1020H1919.33V1003.38H1820.01V1020Z" fill="#BAC09A"/><path fill-rule="evenodd" clip-rule="evenodd" d="M1819.85 1003.38V983.745L1823.13 984.822C1837.04 989.376 1852.24 987.563 1864.68 979.867L1866.16 978.951L1911.22 992.426C1916.04 993.89 1919.33 998.335 1919.33 1003.38H1819.85Z" fill="#BAC09A"/><path fill-rule="evenodd" clip-rule="evenodd" d="M1740.91 533.597L1816.59 558.365L1869.67 966.674H1808.03L1740.91 533.597Z" fill="#01464D"/><path fill-rule="evenodd" clip-rule="evenodd" d="M1674.25 593.943V522.79H1817.67L1816.9 594.373L1674.25 593.943Z" fill="#005559"/><path fill-rule="evenodd" clip-rule="evenodd" d="M1694.65 595.796H1785.41V525.109H1694.65V595.796Z" fill="#01464D"/><path fill-rule="evenodd" clip-rule="evenodd" d="M1806.56 355.319L1764.07 343.992H1717.31L1668.85 355.319V527.269H1806.56V355.319Z" fill="#E6E3DA"/><path fill-rule="evenodd" clip-rule="evenodd" d="M1843.7 445.496C1843.45 429.896 1847.74 405.665 1844.63 390.377C1839.95 357.609 1816.16 355.318 1816.16 355.318L1801.81 407.347L1843.7 445.496Z" fill="#BAC09A"/><path fill-rule="evenodd" clip-rule="evenodd" d="M1748.56 626.085L1835.3 626.43L1816.42 355.32L1779.91 348.217C1779.91 377.136 1745.54 395.913 1745.54 395.913L1748.56 626.085Z" fill="#BAC09A"/><path fill-rule="evenodd" clip-rule="evenodd" d="M1732.02 626.086L1658.08 626.985L1664.17 355.069L1700.58 347.904C1700.58 376.825 1735.03 395.914 1735.03 395.914L1732.02 626.086Z" fill="#BAC09A"/><path fill-rule="evenodd" clip-rule="evenodd" d="M1718.94 300.137C1718.94 294.764 1714.59 290.41 1709.23 290.41C1703.86 290.41 1699.51 294.764 1699.51 300.137C1699.51 305.509 1703.86 309.863 1709.23 309.863C1714.59 309.863 1718.94 305.509 1718.94 300.137Z" fill="#9E3F39"/><path fill-rule="evenodd" clip-rule="evenodd" d="M1763.54 300.137C1763.54 294.764 1767.89 290.41 1773.25 290.41C1778.62 290.41 1782.97 294.764 1782.97 300.137C1782.97 305.509 1778.62 309.863 1773.25 309.863C1767.89 309.863 1763.54 305.509 1763.54 300.137Z" fill="#9E3F39"/><path fill-rule="evenodd" clip-rule="evenodd" d="M1765.24 354.122V316.6L1717.24 316.788V354.122C1717.24 363.89 1725.15 371.807 1734.9 371.807H1747.58C1757.33 371.807 1765.24 363.89 1765.24 354.122Z" fill="#9E3F39"/><path fill-rule="evenodd" clip-rule="evenodd" d="M1773.36 312.626V268.153C1773.36 253.788 1761.73 242.142 1747.38 242.142H1735.1C1720.76 242.142 1709.12 253.788 1709.12 268.153V312.626C1709.12 326.992 1720.76 338.637 1735.1 338.637H1747.38C1761.73 338.637 1773.36 326.992 1773.36 312.626Z" fill="#9E3F39"/><path fill-rule="evenodd" clip-rule="evenodd" d="M1747.71 283.974C1753.64 276.74 1763.44 275.377 1769.34 283.503L1747.71 283.974Z" fill="#C6C6C6"/><path fill-rule="evenodd" clip-rule="evenodd" d="M1736.19 283.102C1730.26 275.868 1720.46 274.505 1714.56 282.631L1736.19 283.102Z" fill="#C6C6C6"/><path fill-rule="evenodd" clip-rule="evenodd" d="M1709.12 313.245H1712.62V288.708H1709.12V313.245Z" fill="#C6C6C6"/><path fill-rule="evenodd" clip-rule="evenodd" d="M1769.88 313.507H1773.37V288.895H1769.88V313.507Z" fill="#C6C6C6"/><path fill-rule="evenodd" clip-rule="evenodd" d="M1709.12 334.004V313.049H1773.37V334.004C1773.37 350.321 1760.16 363.547 1743.86 363.547H1738.63C1722.34 363.547 1709.12 350.321 1709.12 334.004Z" fill="#C6C6C6"/><path fill-rule="evenodd" clip-rule="evenodd" d="M1741.16 311.37C1739.66 311.37 1738.47 310.626 1737.43 309.971C1735.71 308.893 1734.67 308.244 1732.6 310.316L1731.26 308.969C1734.4 305.821 1736.64 307.227 1738.44 308.356C1739.35 308.926 1740.2 309.463 1741.16 309.463C1742.13 309.463 1742.94 308.967 1743.8 308.441C1745.51 307.393 1747.63 306.088 1751.16 309.017L1749.94 310.484C1747.47 308.427 1746.4 309.079 1744.79 310.067C1743.8 310.678 1742.67 311.37 1741.16 311.37Z" fill="black"/><path fill-rule="evenodd" clip-rule="evenodd" d="M1749.71 295.64C1750.1 297.551 1753.53 298.471 1757.38 297.698C1761.22 296.923 1764.03 294.747 1763.65 292.838C1763.26 290.926 1759.84 290.005 1755.99 290.779C1752.14 291.554 1749.33 293.728 1749.71 295.64Z" fill="white"/><path fill-rule="evenodd" clip-rule="evenodd" d="M1753.16 294.241C1753.16 296.19 1754.74 297.769 1756.68 297.769C1758.63 297.769 1760.21 296.19 1760.21 294.241C1760.21 292.291 1758.63 290.713 1756.68 290.713C1754.74 290.713 1753.16 292.291 1753.16 294.241Z" fill="black"/><path fill-rule="evenodd" clip-rule="evenodd" d="M1731.97 295.64C1731.59 297.551 1728.16 298.471 1724.31 297.698C1720.46 296.923 1717.66 294.747 1718.04 292.838C1718.42 290.926 1721.85 290.005 1725.7 290.779C1729.55 291.554 1732.36 293.728 1731.97 295.64Z" fill="white"/><path fill-rule="evenodd" clip-rule="evenodd" d="M1728.53 294.241C1728.53 296.19 1726.95 297.769 1725.01 297.769C1723.06 297.769 1721.48 296.19 1721.48 294.241C1721.48 292.291 1723.06 290.713 1725.01 290.713C1726.95 290.713 1728.53 292.291 1728.53 294.241Z" fill="black"/><path fill-rule="evenodd" clip-rule="evenodd" d="M1637.41 389.201C1636.09 371.646 1649.23 356.342 1666.76 355.018C1684.3 353.695 1699.58 366.854 1700.9 384.409C1702.22 401.965 1680.82 429.026 1680.82 429.026C1680.82 429.026 1638.73 406.757 1637.41 389.201Z" fill="#BAC09A"/><path fill-rule="evenodd" clip-rule="evenodd" d="M1637.71 381.099L1626.5 469.81C1625.06 481.155 1628 492.62 1634.71 501.875L1660.14 536.952L1699.17 388.673L1637.71 381.099Z" fill="#BAC09A"/><path fill-rule="evenodd" clip-rule="evenodd" d="M1841.81 377.138L1794.07 405.128L1815.39 477.204L1783.12 550.773L1818.95 580.555L1869.69 490.809C1874.28 483.342 1875.11 474.156 1871.94 465.987L1841.81 377.138Z" fill="#BAC09A"/><path fill-rule="evenodd" clip-rule="evenodd" d="M1810.06 597.762L1764.95 560.05L1778.07 544.313L1823.19 582.026L1810.06 597.762Z" fill="#01464D"/><path fill-rule="evenodd" clip-rule="evenodd" d="M1412.69 410.078L1366.45 580.446L1340.98 576.156L1375.92 367.057L1412.69 410.078Z" fill="#F5836D"/><path fill-rule="evenodd" clip-rule="evenodd" d="M1519.02 393.408L1550.98 450.181C1555.76 458.676 1566.26 462.063 1575.09 457.966C1584.37 453.665 1588.46 442.699 1584.28 433.359L1551.74 360.619L1519.02 393.408Z" fill="#D96B55"/><path fill-rule="evenodd" clip-rule="evenodd" d="M1365.95 574.343L1370.03 601.803L1335.21 597.835L1342.04 570.888L1365.95 574.343Z" fill="#F5836D"/><path fill-rule="evenodd" clip-rule="evenodd" d="M1376.26 622.938C1373.72 624.392 1370.5 623.514 1369.04 620.98L1353.27 593.436L1362.44 588.174L1378.21 615.716C1379.67 618.252 1378.79 621.485 1376.26 622.938Z" fill="#F5836D"/><path fill-rule="evenodd" clip-rule="evenodd" d="M1370.76 643.76C1368.77 645.898 1365.43 646.015 1363.29 644.021L1346.24 628.094L1353.44 620.355L1370.5 636.282C1372.64 638.274 1372.76 641.623 1370.76 643.76Z" fill="#F5836D"/><path fill-rule="evenodd" clip-rule="evenodd" d="M1372.1 638.406C1369.81 640.223 1366.49 639.841 1364.67 637.552L1350.17 619.263L1358.45 612.682L1372.95 630.972C1374.76 633.26 1374.38 636.589 1372.1 638.406Z" fill="#F5836D"/><path fill-rule="evenodd" clip-rule="evenodd" d="M1335.19 597.156L1345.14 593.578L1356.24 624.526L1346.29 628.103L1335.19 597.156Z" fill="#F5836D"/><path fill-rule="evenodd" clip-rule="evenodd" d="M1339.87 595.277L1349.61 591.156L1362.4 621.442L1352.66 625.564L1339.87 595.277Z" fill="#F5836D"/><path fill-rule="evenodd" clip-rule="evenodd" d="M1362.26 609.204C1362.26 609.204 1360.22 604.763 1359.39 603.444C1357.66 600.704 1354.66 602.612 1355.63 605.164C1356.25 606.801 1358.61 612.075 1360.12 616.057C1353.47 609.089 1340.98 599.799 1340.98 599.799L1361.22 594.13L1362.26 609.204Z" fill="#F5836D"/><path fill-rule="evenodd" clip-rule="evenodd" d="M1402.37 481.6L1399.42 346.712H1532.28L1530.38 481.6H1402.37Z" fill="#E6E6E6"/><path fill-rule="evenodd" clip-rule="evenodd" d="M1458.41 975.563L1460.6 513.449H1446.4C1406.25 513.449 1376.8 529.657 1380.02 574.865L1418.66 975.563H1458.41Z" fill="#F5836D"/><path fill-rule="evenodd" clip-rule="evenodd" d="M1458.93 936.253L1414.13 935.881L1404.41 827.832H1459.67L1458.93 936.253Z" fill="#E6E6E6"/><path fill-rule="evenodd" clip-rule="evenodd" d="M1395.23 1019.97H1459.72V1003.96H1396.98L1395.23 1019.97Z" fill="#123A4F"/><path fill-rule="evenodd" clip-rule="evenodd" d="M1396.98 1003.96H1459.72V982.647H1418.76L1396.98 1003.96Z" fill="#123A4F"/><path fill-rule="evenodd" clip-rule="evenodd" d="M1524.92 980.154L1461.79 515.877L1476.11 515.528C1516.62 514.543 1549.81 529.264 1547.65 574.059L1563.98 979.789L1524.92 980.154Z" fill="#F5836D"/><path fill-rule="evenodd" clip-rule="evenodd" d="M1518.61 933.899L1562.36 934.627L1558.52 827.849L1503.74 828.162L1518.61 933.899Z" fill="#E6E6E6"/><path fill-rule="evenodd" clip-rule="evenodd" d="M1586.42 1020L1525.47 1019.97L1523.76 1003.03L1586.32 1003.96L1586.42 1020Z" fill="#123A4F"/><path fill-rule="evenodd" clip-rule="evenodd" d="M1586.42 1003.96H1523.8L1521.92 982.647H1564.64L1586.42 1003.96Z" fill="#123A4F"/><path fill-rule="evenodd" clip-rule="evenodd" d="M1368.7 381.27C1367.37 363.569 1380.62 348.138 1398.3 346.804C1415.98 345.47 1431.39 358.738 1432.72 376.439C1434.05 394.139 1412.47 421.425 1412.47 421.425C1412.47 421.425 1370.03 398.971 1368.7 381.27Z" fill="#E6E6E6"/><path fill-rule="evenodd" clip-rule="evenodd" d="M1430.19 343.541H1500.82V286.745H1430.19V343.541Z" fill="#191414"/><path fill-rule="evenodd" clip-rule="evenodd" d="M1431.09 343.54C1423.31 343.54 1417.42 336.495 1418.79 328.825L1430.62 264.173L1431.09 343.54Z" fill="#191414"/><path fill-rule="evenodd" clip-rule="evenodd" d="M1499.96 343.54C1507.75 343.54 1513.63 336.495 1512.26 328.825L1499.96 261.969V343.54Z" fill="#191414"/><path fill-rule="evenodd" clip-rule="evenodd" d="M1506.88 299.026C1506.88 304.237 1502.66 308.461 1497.46 308.461C1492.25 308.461 1488.03 304.237 1488.03 299.026C1488.03 293.815 1492.25 289.591 1497.46 289.591C1502.66 289.591 1506.88 293.815 1506.88 299.026Z" fill="#F5836D"/><path fill-rule="evenodd" clip-rule="evenodd" d="M1442.94 298.999C1442.94 304.209 1438.72 308.434 1433.52 308.434C1428.31 308.434 1424.09 304.209 1424.09 298.999C1424.09 293.788 1428.31 289.563 1433.52 289.563C1438.72 289.563 1442.94 293.788 1442.94 298.999Z" fill="#F5836D"/><path fill-rule="evenodd" clip-rule="evenodd" d="M1442.23 345.072V314.833L1488.79 313.479V345.072C1488.79 357.945 1478.37 368.38 1465.51 368.38C1452.65 368.38 1442.23 357.945 1442.23 345.072Z" fill="#D96B55"/><path fill-rule="evenodd" clip-rule="evenodd" d="M1434.65 312.291V267.222C1434.65 253.314 1445.91 242.038 1459.8 242.038H1471.21C1485.1 242.038 1496.37 253.314 1496.37 267.222V312.291C1496.37 326.201 1485.1 337.477 1471.21 337.477H1459.8C1445.91 337.477 1434.65 326.201 1434.65 312.291Z" fill="#F5836D"/><path d="M1457.44 307.753C1457.44 307.753 1459.46 305.075 1461.7 307.151C1462.47 307.865 1463.39 308.422 1464.42 308.629C1465.24 308.796 1466.2 308.796 1467.1 308.334C1467.46 308.142 1467.78 307.876 1468.07 307.569C1468.59 306.997 1470.42 305.412 1472.9 307.753" stroke="#191414" stroke-width="0.841"/><path fill-rule="evenodd" clip-rule="evenodd" d="M1465.57 318.576C1465.57 315.936 1461.53 316.288 1461.53 316.288H1452.39C1452.48 315.773 1465.3 335.927 1478.75 316.288H1469.61C1469.61 316.288 1465.57 315.936 1465.57 318.576Z" fill="#191414"/><path fill-rule="evenodd" clip-rule="evenodd" d="M1449.59 279.613L1449.21 279.615C1445.25 279.634 1441.54 281.613 1439.17 284.961L1459.7 284.865C1457.29 281.538 1453.55 279.594 1449.59 279.613Z" fill="#191414"/><path fill-rule="evenodd" clip-rule="evenodd" d="M1481.43 274.818L1481.05 274.833C1477.1 274.989 1473.45 277.097 1471.19 280.525L1491.71 279.715C1489.19 276.475 1485.39 274.661 1481.43 274.818Z" fill="#191414"/><path fill-rule="evenodd" clip-rule="evenodd" d="M1457.26 297.422C1457.26 297.422 1455.01 292.591 1450.68 291.088C1446.36 289.585 1441.6 291.977 1441.6 291.977C1441.6 291.977 1443.33 295.916 1447.65 297.419C1451.98 298.924 1457.26 297.422 1457.26 297.422Z" fill="white"/><path fill-rule="evenodd" clip-rule="evenodd" d="M1452.57 294.105C1452.57 296.174 1450.89 297.852 1448.83 297.852C1446.76 297.852 1445.09 296.174 1445.09 294.105C1445.09 292.036 1446.76 290.359 1448.83 290.359C1450.89 290.359 1452.57 292.036 1452.57 294.105Z" fill="#010101"/><path fill-rule="evenodd" clip-rule="evenodd" d="M1457.26 297.419C1456.14 289.695 1446.39 286.397 1440.4 290.024C1440.76 290.612 1441.46 291.806 1441.83 292.395C1443.16 291.593 1450.04 288.807 1456.3 296.313C1456.68 296.768 1456.72 296.959 1457.26 297.419Z" fill="#010101"/><path fill-rule="evenodd" clip-rule="evenodd" d="M1472.49 297.495C1472.49 297.495 1474.74 292.664 1479.07 291.161C1483.39 289.658 1488.15 292.05 1488.15 292.05C1488.15 292.05 1486.42 295.989 1482.1 297.492C1477.77 298.997 1472.49 297.495 1472.49 297.495Z" fill="white"/><path fill-rule="evenodd" clip-rule="evenodd" d="M1476.58 294.339C1476.58 296.407 1478.25 298.086 1480.32 298.086C1482.39 298.086 1484.06 296.407 1484.06 294.339C1484.06 292.27 1482.39 290.593 1480.32 290.593C1478.25 290.593 1476.58 292.27 1476.58 294.339Z" fill="#010101"/><path fill-rule="evenodd" clip-rule="evenodd" d="M1472.49 297.492C1473.61 289.768 1483.36 286.47 1489.36 290.098C1488.99 290.685 1488.29 291.879 1487.92 292.468C1486.59 291.666 1479.71 288.88 1473.45 296.386C1473.07 296.841 1473.03 297.033 1472.49 297.492Z" fill="#010101"/><path fill-rule="evenodd" clip-rule="evenodd" d="M1435.01 300.352V283.006C1435.01 269.794 1446.02 259.084 1459.59 259.084H1463.69H1467.33H1471.42C1485 259.084 1496 269.794 1496 283.006V300.352H1500.82V268.063C1500.82 253.745 1488.76 242.139 1473.87 242.139H1457.15C1442.26 242.139 1430.19 253.745 1430.19 268.063V300.352H1435.01Z" fill="#191414"/><path fill-rule="evenodd" clip-rule="evenodd" d="M1430.19 327.969H1435.07V294.822H1430.19V327.969Z" fill="#191414"/><path fill-rule="evenodd" clip-rule="evenodd" d="M1495.95 328.28H1500.82V295.134H1495.95V328.28Z" fill="#191414"/><path fill-rule="evenodd" clip-rule="evenodd" d="M1486.57 272.941H1444.45C1439.65 272.941 1435.76 269.048 1435.76 264.245C1435.76 259.442 1439.65 255.549 1444.45 255.549H1486.57C1491.37 255.549 1495.26 259.442 1495.26 264.245C1495.26 269.048 1491.37 272.941 1486.57 272.941Z" fill="#191414"/><path fill-rule="evenodd" clip-rule="evenodd" d="M1563.23 381.27C1564.57 363.569 1551.31 348.138 1533.63 346.804C1515.96 345.47 1500.54 358.738 1499.21 376.439C1497.88 394.139 1519.46 421.425 1519.46 421.425C1519.46 421.425 1561.9 398.971 1563.23 381.27Z" fill="#E6E6E6"/><path fill-rule="evenodd" clip-rule="evenodd" d="M1529.87 472.884H1473.28H1403.41C1403.41 472.884 1368.96 517.728 1376.61 613.22C1376.9 616.823 1465.16 615.685 1465.16 615.685L1466.17 555.08H1467.1L1470.42 615.711C1470.42 615.711 1556.38 616.823 1556.67 613.22C1564.31 517.728 1529.87 472.884 1529.87 472.884Z" fill="#123A4F"/><path fill-rule="evenodd" clip-rule="evenodd" d="M1547.36 450.743L1505.29 375.195L1524.94 358.727L1581.54 428.412C1589.16 438.122 1586.54 452.319 1575.97 458.669C1565.93 464.701 1552.88 461.088 1547.36 450.743Z" fill="#F5836D"/><path fill-rule="evenodd" clip-rule="evenodd" d="M1512.49 381.694L1491.53 366.764L1515.88 344.895L1530.7 366.094L1512.49 381.694Z" fill="#F5836D"/><path fill-rule="evenodd" clip-rule="evenodd" d="M1471.64 354.844C1471.98 352.077 1474.49 350.107 1477.25 350.441L1504.16 353.707C1505.88 353.916 1507.1 355.48 1506.89 357.201L1506.24 362.562C1506.14 363.413 1505.37 364.018 1504.52 363.915L1476.04 360.459C1473.28 360.124 1471.31 357.61 1471.64 354.844Z" fill="#F5836D"/><path fill-rule="evenodd" clip-rule="evenodd" d="M1470.1 359.165C1470.43 356.398 1472.94 354.428 1475.7 354.763L1502.61 358.028C1504.33 358.237 1505.55 359.801 1505.34 361.522L1504.69 366.883C1504.59 367.734 1503.82 368.341 1502.97 368.236L1474.49 364.781C1471.73 364.445 1469.76 361.932 1470.1 359.165Z" fill="#F5836D"/><path fill-rule="evenodd" clip-rule="evenodd" d="M1440.87 356.523L1440.97 353.11L1478.51 354.303L1478.4 357.716L1440.87 356.523Z" fill="#E73446"/><path fill-rule="evenodd" clip-rule="evenodd" d="M1490.74 358.453L1472.96 327.239C1471.65 324.804 1470.17 322.476 1467.75 321.887C1466.17 321.492 1464.44 321.937 1462.63 323.178L1464.58 326.021C1465.55 325.356 1466.33 325.083 1466.94 325.236C1468.37 325.602 1469.94 328.835 1469.94 328.835L1469.94 328.836L1487.77 360.145L1490.74 358.453Z" fill="#E73446"/><path fill-rule="evenodd" clip-rule="evenodd" d="M1434.08 361.243L1416.3 330.029C1414.99 327.594 1413.52 325.266 1411.09 324.677C1409.51 324.282 1407.78 324.727 1405.97 325.968L1407.92 328.811C1408.89 328.146 1409.68 327.873 1410.28 328.026C1411.72 328.392 1413.28 331.625 1413.28 331.625L1431.12 362.935L1434.08 361.243Z" fill="#E73446"/><path fill-rule="evenodd" clip-rule="evenodd" d="M1425.3 360.262C1425.55 352.447 1432.08 346.313 1439.88 346.56C1447.69 346.809 1453.81 353.345 1453.57 361.16C1453.32 368.976 1446.79 375.11 1438.98 374.862C1431.18 374.613 1425.05 368.077 1425.3 360.262Z" fill="#E73446"/><path fill-rule="evenodd" clip-rule="evenodd" d="M1428.33 360.359C1428.52 354.216 1433.65 349.395 1439.79 349.59C1445.92 349.785 1450.73 354.923 1450.54 361.064C1450.35 367.207 1445.21 372.027 1439.08 371.833C1432.95 371.639 1428.13 366.502 1428.33 360.359Z" fill="#191414"/><path fill-rule="evenodd" clip-rule="evenodd" d="M1462.83 361.456C1463.08 353.641 1469.61 347.507 1477.42 347.754C1485.22 348.003 1491.35 354.539 1491.1 362.354C1490.85 370.17 1484.33 376.304 1476.52 376.056C1468.71 375.808 1462.59 369.272 1462.83 361.456Z" fill="#E73446"/><path fill-rule="evenodd" clip-rule="evenodd" d="M1465.86 361.552C1466.05 355.409 1471.18 350.589 1477.32 350.783C1483.45 350.979 1488.27 356.116 1488.08 362.257C1487.88 368.4 1482.75 373.221 1476.61 373.026C1470.48 372.832 1465.67 367.695 1465.86 361.552Z" fill="#191414"/><path fill-rule="evenodd" clip-rule="evenodd" d="M1460.09 341.846C1459.77 339.078 1461.76 336.577 1464.52 336.264L1486.62 333.752L1487.76 343.779L1465.66 346.289C1462.9 346.604 1460.4 344.614 1460.09 341.846Z" fill="#F5836D"/><path fill-rule="evenodd" clip-rule="evenodd" d="M1463.14 346.131C1463.24 343.347 1465.57 341.17 1468.36 341.272L1490.58 342.077L1490.22 352.162L1467.99 351.356C1465.21 351.255 1463.04 348.915 1463.14 346.131Z" fill="#F5836D"/><path fill-rule="evenodd" clip-rule="evenodd" d="M1515.87 344.906L1512.29 354.341L1483.01 343.223L1486.58 333.788L1515.87 344.906Z" fill="#F5836D"/><path fill-rule="evenodd" clip-rule="evenodd" d="M1514.32 349.467L1511.28 359.086L1481.43 349.602L1484.48 339.984L1514.32 349.467Z" fill="#F5836D"/><path fill-rule="evenodd" clip-rule="evenodd" d="M1472 352.832C1472.26 350.058 1474.72 348.017 1477.49 348.275L1499.63 350.332L1498.7 360.379L1476.55 358.322C1473.78 358.065 1471.75 355.606 1472 352.832Z" fill="#F5836D"/><path fill-rule="evenodd" clip-rule="evenodd" d="M1522.92 359.047L1519.34 368.479L1490.07 357.329L1493.65 347.896L1522.92 359.047Z" fill="#F5836D"/><path fill-rule="evenodd" clip-rule="evenodd" d="M1459.72 987.391H1414.42L1413.54 934.628H1459.72V987.391Z" fill="#123A4F"/><path fill-rule="evenodd" clip-rule="evenodd" d="M1564.64 982.648L1524.32 1009.4L1517.07 932.268L1563.98 931.667L1564.64 982.648Z" fill="#123A4F"/><path fill-rule="evenodd" clip-rule="evenodd" d="M1202.11 1000.52L1152.8 514.155L1167.12 513.808C1207.63 512.823 1240.83 527.542 1238.67 572.336L1242.4 1000.52H1202.11Z" fill="#A86554"/><path fill-rule="evenodd" clip-rule="evenodd" d="M1198.74 1005.82C1198.74 992.132 1209.83 981.036 1223.5 981.036H1235.27C1248.94 981.036 1260.02 992.132 1260.02 1005.82C1260.02 1013.65 1253.68 1020 1245.86 1020H1212.9C1205.08 1020 1198.74 1013.65 1198.74 1005.82Z" fill="#BAC09A"/><path fill-rule="evenodd" clip-rule="evenodd" d="M1151.05 1000.52L1149.86 511.729H1135.67C1095.52 511.729 1066.07 527.937 1069.29 573.145L1110.05 1000.52H1151.05Z" fill="#A86554"/><path fill-rule="evenodd" clip-rule="evenodd" d="M1098.48 1005.82C1098.48 992.132 1109.57 981.036 1123.24 981.036H1135.01C1148.68 981.036 1159.76 992.132 1159.76 1005.82C1159.76 1013.65 1153.42 1020 1145.6 1020H1112.65C1104.83 1020 1098.48 1013.65 1098.48 1005.82Z" fill="#BAC09A"/><path fill-rule="evenodd" clip-rule="evenodd" d="M1209.8 406.682L1248.2 578.992L1273.84 575.875L1252.63 399.712L1209.8 406.682Z" fill="#A86554"/><path fill-rule="evenodd" clip-rule="evenodd" d="M1248.98 572.918L1243.64 600.162L1278.6 597.796L1273.02 570.562L1248.98 572.918Z" fill="#A86554"/><path fill-rule="evenodd" clip-rule="evenodd" d="M1236.46 620.991C1238.92 622.559 1242.18 621.832 1243.75 619.366L1260.76 592.574L1251.85 586.896L1234.83 613.687C1233.27 616.153 1233.99 619.423 1236.46 620.991Z" fill="#A86554"/><path fill-rule="evenodd" clip-rule="evenodd" d="M1240.99 642.041C1242.88 644.268 1246.22 644.539 1248.44 642.645L1266.21 627.518L1259.36 619.455L1241.59 634.582C1239.37 636.476 1239.1 639.815 1240.99 642.041Z" fill="#A86554"/><path fill-rule="evenodd" clip-rule="evenodd" d="M1239.9 636.631C1242.1 638.551 1245.44 638.321 1247.36 636.118L1262.69 618.513L1254.72 611.561L1239.39 629.166C1237.47 631.369 1237.7 634.711 1239.9 636.631Z" fill="#A86554"/><path fill-rule="evenodd" clip-rule="evenodd" d="M1278.66 597.116L1268.88 593.086L1256.38 623.492L1266.15 627.522L1278.66 597.116Z" fill="#A86554"/><path fill-rule="evenodd" clip-rule="evenodd" d="M1274.07 595.026L1264.53 590.462L1250.37 620.13L1259.9 624.695L1274.07 595.026Z" fill="#A86554"/><path fill-rule="evenodd" clip-rule="evenodd" d="M1251.07 607.911C1251.07 607.911 1253.31 603.569 1254.2 602.288C1256.05 599.631 1258.95 601.674 1257.87 604.18C1257.17 605.787 1254.58 610.946 1252.89 614.854C1259.86 608.2 1272.76 599.491 1272.76 599.491L1252.79 592.9L1251.07 607.911Z" fill="#A86554"/><path fill-rule="evenodd" clip-rule="evenodd" d="M1089.01 479.88L1086.06 344.992H1218.92L1217.02 479.88H1089.01Z" fill="#472940"/><path fill-rule="evenodd" clip-rule="evenodd" d="M1055.34 379.55C1054.01 361.849 1067.26 346.419 1084.94 345.085C1102.61 343.751 1118.03 357.018 1119.36 374.719C1120.69 392.419 1099.11 419.705 1099.11 419.705C1099.11 419.705 1056.67 397.251 1055.34 379.55Z" fill="#472940"/><path fill-rule="evenodd" clip-rule="evenodd" d="M1202.54 278.814C1202.54 293.806 1190.41 305.961 1175.43 305.961C1160.46 305.961 1148.32 293.806 1148.32 278.814C1148.32 263.823 1160.46 251.668 1175.43 251.668C1190.41 251.668 1202.54 263.823 1202.54 278.814Z" fill="#C6C6C6"/><path fill-rule="evenodd" clip-rule="evenodd" d="M1153.93 280.58C1153.93 295.572 1141.79 307.726 1126.82 307.726C1111.84 307.726 1099.7 295.572 1099.7 280.58C1099.7 265.588 1111.84 253.434 1126.82 253.434C1141.79 253.434 1153.93 265.588 1153.93 280.58Z" fill="#C6C6C6"/><path fill-rule="evenodd" clip-rule="evenodd" d="M1141.51 251.67C1141.51 259.864 1134.87 266.505 1126.69 266.505C1118.51 266.505 1111.87 259.864 1111.87 251.67C1111.87 243.476 1118.51 236.834 1126.69 236.834C1134.87 236.834 1141.51 243.476 1141.51 251.67Z" fill="#C6C6C6"/><path fill-rule="evenodd" clip-rule="evenodd" d="M1193.87 304.862C1193.87 313.056 1187.23 319.698 1179.05 319.698C1170.87 319.698 1164.23 313.056 1164.23 304.862C1164.23 296.668 1170.87 290.026 1179.05 290.026C1187.23 290.026 1193.87 296.668 1193.87 304.862Z" fill="#C6C6C6"/><path fill-rule="evenodd" clip-rule="evenodd" d="M1141.51 304.862C1141.51 313.056 1134.87 319.698 1126.69 319.698C1118.51 319.698 1111.87 313.056 1111.87 304.862C1111.87 296.668 1118.51 290.026 1126.69 290.026C1134.87 290.026 1141.51 296.668 1141.51 304.862Z" fill="#C6C6C6"/><path fill-rule="evenodd" clip-rule="evenodd" d="M1193.52 299.22C1193.52 304.431 1189.3 308.655 1184.09 308.655C1178.89 308.655 1174.67 304.431 1174.67 299.22C1174.67 294.009 1178.89 289.785 1184.09 289.785C1189.3 289.785 1193.52 294.009 1193.52 299.22Z" fill="#A86554"/><path fill-rule="evenodd" clip-rule="evenodd" d="M1129.58 299.193C1129.58 304.404 1125.36 308.628 1120.15 308.628C1114.95 308.628 1110.73 304.404 1110.73 299.193C1110.73 293.982 1114.95 289.758 1120.15 289.758C1125.36 289.758 1129.58 293.982 1129.58 299.193Z" fill="#A86554"/><path fill-rule="evenodd" clip-rule="evenodd" d="M1128.87 343.351V313.111L1175.42 311.758V343.351C1175.42 356.224 1165 366.659 1152.15 366.659C1139.29 366.659 1128.87 356.224 1128.87 343.351Z" fill="#7D441C"/><path fill-rule="evenodd" clip-rule="evenodd" d="M1121.29 312.191V267.309C1121.29 253.418 1132.53 242.157 1146.41 242.157H1157.88C1171.76 242.157 1183 253.418 1183 267.309V312.191C1183 326.082 1171.76 337.342 1157.88 337.342H1146.41C1132.53 337.342 1121.29 326.082 1121.29 312.191Z" fill="#A86554"/><path d="M1143.85 307.003C1143.85 307.003 1146.23 304.581 1148.49 306.643C1151.36 309.266 1153.42 308.092 1154.71 306.852C1155.27 306.313 1157.21 304.785 1159.69 307.126" stroke="#191414" stroke-width="0.841"/><path fill-rule="evenodd" clip-rule="evenodd" d="M1149.31 317.619L1140.02 317.63C1140.07 317.276 1145.12 325.087 1152.69 325.102C1157.5 325.112 1159.89 322.29 1164.27 317.63H1155.06C1154.06 317.63 1153.13 318.228 1152.63 319.198L1152.25 319.921L1151.58 318.903C1151.05 318.095 1150.21 317.618 1149.31 317.619Z" fill="#472940"/><path fill-rule="evenodd" clip-rule="evenodd" d="M1121.23 300.415V287.601C1121.23 273.793 1132.27 262.6 1145.9 262.6H1150.02H1153.67H1157.78C1171.41 262.6 1182.46 273.793 1182.46 287.601V300.415H1187.3V271.983C1187.3 257.019 1175.18 242.108 1160.24 242.108H1143.45C1128.5 242.108 1116.39 257.019 1116.39 271.983V300.415H1121.23Z" fill="#C6C6C6"/><path fill-rule="evenodd" clip-rule="evenodd" d="M1139.63 270.566L1131.78 256.954L1134.49 255.388L1142.34 269L1139.63 270.566Z" fill="#A86554"/><path fill-rule="evenodd" clip-rule="evenodd" d="M1145.21 296.667C1145.21 296.667 1142.96 291.836 1138.63 290.333C1134.31 288.83 1129.55 291.222 1129.55 291.222C1129.55 291.222 1131.34 294.861 1135.67 296.365C1139.99 297.869 1145.21 296.667 1145.21 296.667Z" fill="white"/><path fill-rule="evenodd" clip-rule="evenodd" d="M1140.75 292.992C1140.75 295.061 1139.08 296.738 1137.01 296.738C1134.94 296.738 1133.27 295.061 1133.27 292.992C1133.27 290.924 1134.94 289.245 1137.01 289.245C1139.08 289.245 1140.75 290.924 1140.75 292.992Z" fill="#010101"/><path fill-rule="evenodd" clip-rule="evenodd" d="M1145.21 296.665C1143.16 289.605 1134.81 286.404 1128.81 290.032C1129.18 290.621 1129.41 291.052 1129.78 291.641C1131.11 290.839 1137.99 288.053 1144.25 295.559C1144.63 296.014 1144.67 296.206 1145.21 296.665Z" fill="#010101"/><path fill-rule="evenodd" clip-rule="evenodd" d="M1127.13 285.868H1141.62C1144.53 285.868 1146.89 283.505 1146.89 280.591V280.379H1132.4C1129.49 280.379 1127.13 282.742 1127.13 285.656V285.868Z" fill="#C6C6C6"/><path fill-rule="evenodd" clip-rule="evenodd" d="M1159.77 296.667C1159.77 296.667 1162.03 291.836 1166.35 290.333C1170.67 288.83 1175.43 291.222 1175.43 291.222C1175.43 291.222 1173.64 294.861 1169.31 296.365C1164.99 297.869 1159.77 296.667 1159.77 296.667Z" fill="white"/><path fill-rule="evenodd" clip-rule="evenodd" d="M1164.23 292.992C1164.23 295.061 1165.91 296.738 1167.97 296.738C1170.04 296.738 1171.72 295.061 1171.72 292.992C1171.72 290.924 1170.04 289.245 1167.97 289.245C1165.91 289.245 1164.23 290.924 1164.23 292.992Z" fill="#010101"/><path fill-rule="evenodd" clip-rule="evenodd" d="M1159.77 296.665C1161.82 289.605 1170.18 286.404 1176.17 290.032C1175.8 290.621 1175.57 291.052 1175.2 291.641C1173.87 290.839 1166.99 288.053 1160.74 295.559C1160.36 296.014 1160.31 296.206 1159.77 296.665Z" fill="#010101"/><path fill-rule="evenodd" clip-rule="evenodd" d="M1177.85 285.868H1163.36C1160.45 285.868 1158.09 283.505 1158.09 280.591V280.379H1172.58C1175.49 280.379 1177.85 282.742 1177.85 285.656V285.868Z" fill="#C6C6C6"/><path fill-rule="evenodd" clip-rule="evenodd" d="M1189.97 251.113C1189.97 266.105 1177.83 278.26 1162.86 278.26C1147.88 278.26 1135.74 266.105 1135.74 251.113C1135.74 236.121 1147.88 223.967 1162.86 223.967C1177.83 223.967 1189.97 236.121 1189.97 251.113Z" fill="#C6C6C6"/><path fill-rule="evenodd" clip-rule="evenodd" d="M1162.78 278.18H1190.26V266.727H1162.78V278.18Z" fill="#C6C6C6"/><path fill-rule="evenodd" clip-rule="evenodd" d="M1276 575.192L1234.94 589.259L1233.34 584.568L1274.39 570.501L1276 575.192Z" fill="#C6C6C6"/><path fill-rule="evenodd" clip-rule="evenodd" d="M1249.87 379.55C1251.2 361.849 1237.95 346.419 1220.27 345.085C1202.59 343.751 1187.18 357.018 1185.85 374.719C1184.52 392.419 1206.1 419.705 1206.1 419.705C1206.1 419.705 1248.54 397.251 1249.87 379.55Z" fill="#472940"/><path fill-rule="evenodd" clip-rule="evenodd" d="M1216.5 471.162H1090.04C1090.04 471.162 1055.6 525.495 1063.24 641.193C1063.29 641.931 1074.14 796.026 1074.14 796.026H1245.49C1245.49 796.026 1245.21 674.017 1245.49 635.305C1246.34 519.362 1216.5 471.162 1216.5 471.162Z" fill="#472940"/><path fill-rule="evenodd" clip-rule="evenodd" d="M1181.81 272.123H1169.55C1155.66 272.123 1142.7 265.578 1135.04 254.702L1133.54 252.56H1181.81V272.123Z" fill="#C6C6C6"/><path fill-rule="evenodd" clip-rule="evenodd" d="M1123.66 368.455H1185.32V341.004H1123.66V368.455Z" fill="#472940"/><path fill-rule="evenodd" clip-rule="evenodd" d="M1090.98 472.031L1039.31 458.658L1054.35 371.858H1112.53L1090.98 472.031Z" fill="#472940"/><path fill-rule="evenodd" clip-rule="evenodd" d="M1213.84 473.67L1268.88 461.572L1249.12 369.792H1212.69L1213.84 473.67Z" fill="#472940"/><path fill-rule="evenodd" clip-rule="evenodd" d="M1048.13 356.736L1046.26 320.979C1046.13 318.518 1044.04 316.628 1041.58 316.757L1040.95 316.79C1038.49 316.919 1036.6 319.017 1036.73 321.478L1038.6 357.235L1048.13 356.736Z" fill="#A86554"/><path fill-rule="evenodd" clip-rule="evenodd" d="M1083.54 462L1067.27 371.226L1039.96 370.439L1040.19 465.915C1040.22 479.081 1051.78 489.234 1064.82 487.557C1077.21 485.963 1085.74 474.31 1083.54 462Z" fill="#A86554"/><path fill-rule="evenodd" clip-rule="evenodd" d="M1066.46 377.175L1074.46 349.746L1038.24 347.45L1039.88 376.12L1066.46 377.175Z" fill="#A86554"/><path fill-rule="evenodd" clip-rule="evenodd" d="M1064.1 349.585L1063.71 308.208C1063.69 305.745 1061.67 303.766 1059.21 303.789L1058.58 303.795C1056.12 303.819 1054.14 305.835 1054.17 308.298L1054.55 349.675L1064.1 349.585Z" fill="#A86554"/><path fill-rule="evenodd" clip-rule="evenodd" d="M1072.69 352.428L1072.32 312.669C1072.29 310.206 1070.28 308.227 1067.82 308.25L1067.19 308.256C1064.73 308.28 1062.75 310.296 1062.77 312.759L1063.15 352.518L1072.69 352.428Z" fill="#A86554"/><path fill-rule="evenodd" clip-rule="evenodd" d="M1066.67 376.788L1086.35 343.859C1087.68 341.633 1086.96 338.747 1084.73 337.415L1084.16 337.072C1081.93 335.739 1079.05 336.465 1077.72 338.691L1058.05 371.62L1066.67 376.788Z" fill="#A86554"/><path fill-rule="evenodd" clip-rule="evenodd" d="M1055.13 350.241L1054.79 314.435C1054.76 311.972 1052.75 309.994 1050.29 310.018L1049.66 310.024C1047.2 310.047 1045.22 312.063 1045.24 314.526L1045.58 350.33L1055.13 350.241Z" fill="#A86554"/><path fill-rule="evenodd" clip-rule="evenodd" d="M601.595 409.027L643.122 591.278L668.729 588.04L643.206 372.908L601.595 409.027Z" fill="#F5836D"/><path fill-rule="evenodd" clip-rule="evenodd" d="M643.872 585.206L638.665 612.455L673.597 609.924L667.884 582.736L643.872 585.206Z" fill="#F5836D"/><path fill-rule="evenodd" clip-rule="evenodd" d="M631.587 633.303C634.056 634.858 637.317 634.116 638.87 631.643L655.744 604.79L646.805 599.158L629.93 626.012C628.377 628.484 629.118 631.748 631.587 633.303Z" fill="#F5836D"/><path fill-rule="evenodd" clip-rule="evenodd" d="M636.218 654.318C638.118 656.534 641.452 656.787 643.665 654.886L661.35 639.684L654.471 631.659L636.786 646.862C634.573 648.764 634.318 652.102 636.218 654.318Z" fill="#F5836D"/><path fill-rule="evenodd" clip-rule="evenodd" d="M635.108 648.915C637.315 650.824 640.65 650.579 642.556 648.368L657.788 630.702L649.793 623.792L634.561 641.458C632.655 643.668 632.9 647.007 635.108 648.915Z" fill="#F5836D"/><path fill-rule="evenodd" clip-rule="evenodd" d="M673.648 609.245L663.863 605.265L651.51 635.708L661.295 639.689L673.648 609.245Z" fill="#F5836D"/><path fill-rule="evenodd" clip-rule="evenodd" d="M669.051 607.178L659.499 602.662L645.486 632.378L655.038 636.892L669.051 607.178Z" fill="#F5836D"/><path fill-rule="evenodd" clip-rule="evenodd" d="M646.126 620.163C646.126 620.163 648.344 615.814 649.229 614.53C651.064 611.865 653.979 613.894 652.907 616.401C652.219 618.011 649.651 623.179 647.979 627.092C654.91 620.409 667.761 611.646 667.761 611.646L647.777 605.155L646.126 620.163Z" fill="#F5836D"/><path fill-rule="evenodd" clip-rule="evenodd" d="M442.971 380.876C441.639 363.187 454.881 347.767 472.549 346.434C490.215 345.1 505.616 358.359 506.948 376.048C508.279 393.736 486.709 421.003 486.709 421.003C486.709 421.003 444.304 398.565 442.971 380.876Z" fill="#FFA28F"/><path fill-rule="evenodd" clip-rule="evenodd" d="M651.822 445.525H609.912L595.947 376.678L643.391 373.954L651.822 445.525Z" fill="#FFA28F"/><path fill-rule="evenodd" clip-rule="evenodd" d="M481.344 413.594L465.806 460.351C462.907 469.072 454.509 474.748 445.347 474.179C432.962 473.409 424.178 461.765 426.828 449.627L443.418 373.613L481.344 413.594Z" fill="#F5836D"/><path fill-rule="evenodd" clip-rule="evenodd" d="M427.529 446.411H470.502L489.127 373.418L443.417 373.612L427.529 446.411Z" fill="#FFA28F"/><path fill-rule="evenodd" clip-rule="evenodd" d="M643.299 379.304C644.631 361.615 631.389 346.194 613.721 344.862C596.056 343.528 580.654 356.787 579.322 374.476C577.991 392.164 599.561 419.431 599.561 419.431C599.561 419.431 641.967 396.993 643.299 379.304Z" fill="#FFA28F"/><path fill-rule="evenodd" clip-rule="evenodd" d="M605.931 344.554L472.791 346.505L475.145 497.451L607.756 496.636L605.931 344.554Z" fill="#FFA28F"/><path fill-rule="evenodd" clip-rule="evenodd" d="M547.418 1011.66L550.764 984.374L581.998 984.919L594.091 1009.98C594.306 1015.96 589.287 1019.79 583.841 1019.99H556.783C551.339 1020.18 547.633 1017.64 547.418 1011.66Z" fill="#F5836D"/><path fill-rule="evenodd" clip-rule="evenodd" d="M535.19 986.677L536.733 593.264L541.575 584.523L541.305 497.795C541.305 497.795 475.613 496.782 475.145 497.452C442.818 543.842 446.76 600.373 450.394 631.322C453.551 658.21 497.912 987.298 497.912 987.298L535.19 986.677Z" fill="#FFA28F"/><path fill-rule="evenodd" clip-rule="evenodd" d="M535.19 986.676L535.797 831.737L476.943 832.956L497.912 987.298L535.19 986.676Z" fill="#F5836D"/><path fill-rule="evenodd" clip-rule="evenodd" d="M550.533 986.252L544.255 592.76L539.414 584.018L539.683 497.29C539.683 497.29 604.015 494.524 604.46 495.209C640.217 550.045 632.575 591.279 630.595 630.82C629.241 657.857 583.077 986.795 583.077 986.795L550.533 986.252Z" fill="#FFA28F"/><path fill-rule="evenodd" clip-rule="evenodd" d="M550.533 986.252L548.08 832.516L604.375 833.203L583.077 986.795L550.533 986.252Z" fill="#F5836D"/><path fill-rule="evenodd" clip-rule="evenodd" d="M544.323 597.01L629.74 550.109C629.74 550.109 621.75 522.518 607.756 496.638C607.668 496.474 475.252 497.3 475.146 497.452C458.329 521.487 451.938 548.657 451.938 548.657L536.719 597.01H544.323Z" fill="#232144"/><path fill-rule="evenodd" clip-rule="evenodd" d="M472.932 346.505L477.828 346.417L478.797 400.333L473.901 400.42L472.932 346.505Z" fill="#232144"/><path fill-rule="evenodd" clip-rule="evenodd" d="M550.762 309.446C550.762 322.995 561.731 333.978 575.263 333.978C588.795 333.978 599.764 322.995 599.764 309.446C599.764 295.898 588.795 284.915 575.263 284.915C561.731 284.915 550.762 295.898 550.762 309.446Z" fill="#8B181D"/><path fill-rule="evenodd" clip-rule="evenodd" d="M557.451 341.24C557.451 351.089 565.426 359.073 575.263 359.073C585.101 359.073 593.076 351.089 593.076 341.24C593.076 331.391 585.101 323.406 575.263 323.406C565.426 323.406 557.451 331.391 557.451 341.24Z" fill="#8B181D"/><path fill-rule="evenodd" clip-rule="evenodd" d="M565.055 378.006C565.055 391.555 575.263 402.537 575.263 402.537C575.263 402.537 585.471 391.555 585.471 378.006C585.471 364.457 575.263 353.475 575.263 353.475C575.263 353.475 565.055 364.457 565.055 378.006Z" fill="#8B181D"/><path fill-rule="evenodd" clip-rule="evenodd" d="M479.765 309.446C479.765 322.995 490.734 333.978 504.266 333.978C517.798 333.978 528.767 322.995 528.767 309.446C528.767 295.898 517.798 284.915 504.266 284.915C490.734 284.915 479.765 295.898 479.765 309.446Z" fill="#8B181D"/><path fill-rule="evenodd" clip-rule="evenodd" d="M489.196 339.679C489.196 349.528 497.171 357.513 507.008 357.513C516.846 357.513 524.821 349.528 524.821 339.679C524.821 329.83 516.846 321.846 507.008 321.846C497.171 321.846 489.196 329.83 489.196 339.679Z" fill="#8B181D"/><path fill-rule="evenodd" clip-rule="evenodd" d="M494.058 378.006C494.058 391.555 504.266 402.537 504.266 402.537C504.266 402.537 514.474 391.555 514.474 378.006C514.474 364.457 504.266 353.475 504.266 353.475C504.266 353.475 494.058 364.457 494.058 378.006Z" fill="#8B181D"/><path fill-rule="evenodd" clip-rule="evenodd" d="M601.473 344.642L606.369 344.554L607.34 398.528L602.443 398.617L601.473 344.642Z" fill="#232144"/><path fill-rule="evenodd" clip-rule="evenodd" d="M534.548 983.485C534.548 983.485 498.51 965.012 498.901 975.894C499.41 990.019 492.164 1002.97 476.089 1006C467.987 1007.52 463.27 1007.11 462.087 1012.96C461.334 1016.69 464.257 1020.14 468.05 1019.99L530.886 1020C536.331 1019.8 537.652 1016.42 537.437 1010.45L534.548 983.485Z" fill="#F5836D"/><path fill-rule="evenodd" clip-rule="evenodd" d="M581.985 298.603C581.985 303.809 577.769 308.03 572.569 308.03C567.367 308.03 563.151 303.809 563.151 298.603C563.151 293.396 567.367 289.175 572.569 289.175C577.769 289.175 581.985 293.396 581.985 298.603Z" fill="#FFA28F"/><path fill-rule="evenodd" clip-rule="evenodd" d="M518.088 298.575C518.088 303.782 513.872 308.003 508.672 308.003C503.471 308.003 499.255 303.782 499.255 298.575C499.255 293.369 503.471 289.147 508.672 289.147C513.872 289.147 518.088 293.369 518.088 298.575Z" fill="#FFA28F"/><path fill-rule="evenodd" clip-rule="evenodd" d="M517.379 345.313V315.094L563.906 313.742V345.313C563.906 358.177 553.49 368.605 540.642 368.605C527.795 368.605 517.379 358.177 517.379 345.313Z" fill="#FFA28F"/><path fill-rule="evenodd" clip-rule="evenodd" d="M509.807 310.718V267.237C509.807 253.494 520.934 242.353 534.662 242.353H546.624C560.35 242.353 571.478 253.494 571.478 267.237V310.718C571.478 324.463 560.35 335.605 546.624 335.605H534.662C520.934 335.605 509.807 324.463 509.807 310.718Z" fill="#FFA28F"/><path d="M532.575 308.234C532.575 308.234 534.597 305.557 536.84 307.632C537.61 308.346 538.527 308.901 539.556 309.11C540.377 309.277 541.331 309.277 542.228 308.813C542.594 308.623 542.916 308.356 543.202 308.05C543.725 307.479 545.552 305.895 548.028 308.234" stroke="#171111" stroke-width="0.84"/><path fill-rule="evenodd" clip-rule="evenodd" d="M540.703 318.945C540.703 316.306 536.663 316.658 536.663 316.658H527.531C527.621 316.144 540.431 336.282 553.875 316.658H544.743C544.743 316.658 540.703 316.306 540.703 318.945Z" fill="#8B181D"/><path fill-rule="evenodd" clip-rule="evenodd" d="M512.57 282.306L524.689 274.457C528.373 272.472 533.264 273.776 534.113 277.111C534.142 277.228 534.167 277.346 534.186 277.466L534.388 278.678L512.57 282.306Z" fill="#8B181D"/><path fill-rule="evenodd" clip-rule="evenodd" d="M568.835 282.306L556.716 274.457C553.032 272.472 548.141 273.776 547.293 277.111C547.263 277.228 547.238 277.346 547.219 277.466L547.018 278.678L568.835 282.306Z" fill="#8B181D"/><path fill-rule="evenodd" clip-rule="evenodd" d="M550.124 296.206C550.124 296.206 552.598 290.99 557.29 289.397C561.981 287.804 567.113 290.438 567.113 290.438C567.113 290.438 564.464 295.23 559.772 296.823C555.08 298.417 550.124 296.206 550.124 296.206Z" fill="white"/><path fill-rule="evenodd" clip-rule="evenodd" d="M562.264 294.411C562.964 292.396 561.898 290.193 559.885 289.494C557.871 288.793 555.671 289.859 554.973 291.876C554.273 293.892 555.338 296.093 557.352 296.794C559.366 297.495 561.564 296.427 562.264 294.411Z" fill="black"/><path fill-rule="evenodd" clip-rule="evenodd" d="M551.086 296.861L549.161 295.552C556.133 285.279 564.37 287.629 567.587 289.116L566.614 291.229C563.284 289.692 556.84 288.377 551.086 296.861Z" fill="black"/><path fill-rule="evenodd" clip-rule="evenodd" d="M532.061 295.99C532.061 295.99 529.587 290.773 524.895 289.18C520.204 287.587 515.071 290.221 515.071 290.221C515.071 290.221 517.586 295.105 522.277 296.698C526.97 298.29 532.061 295.99 532.061 295.99Z" fill="white"/><path fill-rule="evenodd" clip-rule="evenodd" d="M520.164 294.214C519.464 292.199 520.53 289.996 522.544 289.296C524.557 288.596 526.757 289.662 527.455 291.677C528.155 293.694 527.091 295.896 525.076 296.597C523.063 297.297 520.864 296.23 520.164 294.214Z" fill="black"/><path fill-rule="evenodd" clip-rule="evenodd" d="M531.097 296.644C525.345 288.163 518.902 289.475 515.571 291.012L514.598 288.898C517.815 287.412 526.053 285.063 533.022 295.335L531.097 296.644Z" fill="black"/><path fill-rule="evenodd" clip-rule="evenodd" d="M509.855 302.745V284.7C509.855 270.956 520.966 259.815 534.671 259.815H538.806V252.12H542.477V259.815H546.614C560.318 259.815 571.428 270.956 571.428 284.7V302.745H576.296V269.154C576.296 254.261 564.114 242.188 549.084 242.188H532.199C517.171 242.188 504.989 254.261 504.989 269.154V302.745H509.855Z" fill="#8B181D"/><path fill-rule="evenodd" clip-rule="evenodd" d="M571.479 309.531H576.298V300.071H571.479V309.531Z" fill="#8B181D"/><path fill-rule="evenodd" clip-rule="evenodd" d="M504.988 309.042H509.808V298.204H504.988V309.042Z" fill="#8B181D"/><path fill-rule="evenodd" clip-rule="evenodd" d="M607.339 456.551H474.494L473.62 393.858L540.48 425.205L607.339 393.858V456.551Z" fill="#232144"/><path fill-rule="evenodd" clip-rule="evenodd" d="M532.256 253.933H514.865C511.734 253.933 509.197 251.393 509.197 248.258V242.335C509.197 239.2 511.734 236.66 514.865 236.66H532.256C535.385 236.66 537.923 239.2 537.923 242.335V248.258C537.923 251.393 535.385 253.933 532.256 253.933Z" fill="#E73446"/><path fill-rule="evenodd" clip-rule="evenodd" d="M566.931 254.44H549.54C546.409 254.44 543.872 251.9 543.872 248.765V242.842C543.872 239.707 546.409 237.167 549.54 237.167H566.931C570.06 237.167 572.598 239.707 572.598 242.842V248.765C572.598 251.9 570.06 254.44 566.931 254.44Z" fill="#E73446"/><path fill-rule="evenodd" clip-rule="evenodd" d="M530.782 252.47H516.338C513.738 252.47 511.631 250.361 511.631 247.757V242.838C511.631 240.235 513.738 238.125 516.338 238.125H530.782C533.382 238.125 535.489 240.235 535.489 242.838V247.757C535.489 250.361 533.382 252.47 530.782 252.47Z" fill="#232144"/><path fill-rule="evenodd" clip-rule="evenodd" d="M565.457 252.976H551.013C548.413 252.976 546.306 250.866 546.306 248.263V243.344C546.306 240.741 548.413 238.631 551.013 238.631H565.457C568.057 238.631 570.164 240.741 570.164 243.344V248.263C570.164 250.866 568.057 252.976 565.457 252.976Z" fill="#232144"/><path fill-rule="evenodd" clip-rule="evenodd" d="M537.176 246.581H545.008V243.203H537.176V246.581Z" fill="#E73446"/><path fill-rule="evenodd" clip-rule="evenodd" d="M528.934 378.255L552.917 353.27C554.567 351.552 557.296 351.498 559.014 353.15L559.457 353.575C561.173 355.229 561.227 357.96 559.577 359.68L535.592 384.665L528.934 378.255Z" fill="#F5836D"/><path fill-rule="evenodd" clip-rule="evenodd" d="M436.442 432.844L505.759 376.723L526.249 393.468L465.691 463.196C457.34 472.811 442.459 472.915 433.977 463.417C425.917 454.394 427.042 440.455 436.442 432.844Z" fill="#F5836D"/><path fill-rule="evenodd" clip-rule="evenodd" d="M502.593 381.596L514.084 356.447L542.045 377.734L522.709 397.674L502.593 381.596Z" fill="#F5836D"/><path fill-rule="evenodd" clip-rule="evenodd" d="M521.77 362.899L548.225 332.864C549.8 331.077 552.525 330.904 554.31 332.481L554.771 332.888C556.557 334.464 556.728 337.193 555.153 338.982L528.697 369.017L521.77 362.899Z" fill="#F5836D"/><path fill-rule="evenodd" clip-rule="evenodd" d="M513.684 359.532L539.105 330.672C540.68 328.883 543.405 328.712 545.191 330.289L545.651 330.696C547.436 332.273 547.608 335.001 546.033 336.788L520.611 365.65L513.684 359.532Z" fill="#F5836D"/><path fill-rule="evenodd" clip-rule="evenodd" d="M502.68 381.174L509.106 344.599C509.541 342.126 511.897 340.474 514.368 340.908L515.003 341.022C517.474 341.456 519.125 343.815 518.69 346.288L512.263 382.862L502.68 381.174Z" fill="#F5836D"/><path fill-rule="evenodd" clip-rule="evenodd" d="M527.923 369.069L550.815 343.078C552.39 341.29 555.115 341.12 556.902 342.697L557.361 343.103C559.147 344.68 559.318 347.407 557.743 349.196L534.851 375.186L527.923 369.069Z" fill="#F5836D"/></svg>