<?xml version="1.0" encoding="utf-8"?><!--Generator: Adobe Illustrator 27.8.0, SVG Export Plug-In . SVG Version: 6.00 Build 0)--><svg version="1.1" xmlns="http://www.w3.org/2000/svg" xmlns:xlink="http://www.w3.org/1999/xlink" x="0px" y="0px" viewBox="0 0 1200 840" style="enable-background:new 0 0 1200 840;" xml:space="preserve"><style type="text/css">.st0{fill:#242046;}
	.st1{fill:#E6E6E6;}
	.st2{fill:#4F4F5A;}
	.st3{fill:#CDDEF4;}
	.st4{fill:#797878;}
	.st5{fill:#C6C6C6;}
	.st6{fill:#A8A8A8;}
	.st7{fill:#FB003D;}
	.st8{fill:#E6E3D9;}
	.st9{fill:#89A6DB;}
	.st10{fill:#242047;}
	.st11{fill:#020204;}
	.st12{fill:#231F45;}
	.st13{fill:#B26150;}
	.st14{fill:#E3EEFB;}
	.st15{fill:#746BFF;}
	.st16{fill:#4C38CD;}
	.st17{fill:#181111;}
	.st18{fill:#FFFFFF;}
	.st19{fill:none;}
	.st20{fill:#FFC4A9;}
	.st21{fill:#C88304;}
	.st22{fill:#F4B191;}
	.st23{fill:#FFD2BF;}
	.st24{clip-path:url(#SVGID_00000100369119824096108710000005125482454646453410_);fill:#242046;}
	.st25{clip-path:url(#SVGID_00000100369119824096108710000005125482454646453410_);}
	.st26{clip-path:url(#SVGID_00000055673197637555469750000018417776182302919073_);fill:#4F4F5A;}
	.st27{clip-path:url(#SVGID_00000055673197637555469750000018417776182302919073_);fill:#E6E6E6;}
	.st28{clip-path:url(#SVGID_00000055673197637555469750000018417776182302919073_);fill:#CDDEF4;}
	.st29{clip-path:url(#SVGID_00000055673197637555469750000018417776182302919073_);fill:#797878;}
	.st30{clip-path:url(#SVGID_00000055673197637555469750000018417776182302919073_);fill:#FB003D;}
	.st31{clip-path:url(#SVGID_00000055673197637555469750000018417776182302919073_);fill:#242046;}
	.st32{clip-path:url(#SVGID_00000055673197637555469750000018417776182302919073_);fill:#C6C6C6;}
	.st33{clip-path:url(#SVGID_00000055673197637555469750000018417776182302919073_);fill:#B26150;}
	.st34{clip-path:url(#SVGID_00000055673197637555469750000018417776182302919073_);fill:#746BFF;}
	.st35{clip-path:url(#SVGID_00000055673197637555469750000018417776182302919073_);fill:#4C38CD;}
	.st36{clip-path:url(#SVGID_00000055673197637555469750000018417776182302919073_);fill:#232144;}
	.st37{clip-path:url(#SVGID_00000055673197637555469750000018417776182302919073_);fill:#E5EEFA;}
	.st38{clip-path:url(#SVGID_00000055673197637555469750000018417776182302919073_);fill:#181111;}
	.st39{clip-path:url(#SVGID_00000055673197637555469750000018417776182302919073_);fill:#A8A8A8;}
	.st40{clip-path:url(#SVGID_00000055673197637555469750000018417776182302919073_);fill:#FFFFFF;}
	.st41{clip-path:url(#SVGID_00000055673197637555469750000018417776182302919073_);fill:#020204;}
	.st42{clip-path:url(#SVGID_00000055673197637555469750000018417776182302919073_);fill:#E6E3D9;}
	.st43{clip-path:url(#SVGID_00000055673197637555469750000018417776182302919073_);fill:#8EA6D6;}
	.st44{clip-path:url(#SVGID_00000055673197637555469750000018417776182302919073_);fill:#222043;}
	.st45{clip-path:url(#SVGID_00000055673197637555469750000018417776182302919073_);fill:#C88304;}
	.st46{clip-path:url(#SVGID_00000055673197637555469750000018417776182302919073_);fill:#FFC4A9;}
	.st47{clip-path:url(#SVGID_00000055673197637555469750000018417776182302919073_);fill:#F4B191;}
	.st48{clip-path:url(#SVGID_00000064348228819339530290000011479111170434370468_);fill:#242046;}
	.st49{clip-path:url(#SVGID_00000143609929813428040280000017974723000969341329_);fill:#020204;}
	.st50{clip-path:url(#SVGID_00000047758359756926652950000015702525314873462967_);fill:#020204;}
	.st51{clip-path:url(#SVGID_00000034800263772718425500000009539079688912622503_);fill:#FFD2BF;}
	.st52{clip-path:url(#SVGID_00000034800263772718425500000009539079688912622503_);fill:#242046;}
	.st53{clip-path:url(#SVGID_00000034800263772718425500000009539079688912622503_);fill:#FFFFFF;}
	.st54{clip-path:url(#SVGID_00000034800263772718425500000009539079688912622503_);fill:#4F4F5A;}
	
		.st55{clip-path:url(#SVGID_00000034800263772718425500000009539079688912622503_);fill:none;stroke:#181111;stroke-width:0.4854;stroke-miterlimit:10;}</style><g id="Van_x2C__tools"><path class="st0" d="M1083.55,528.88c-0.25-5.74-0.57-12.74-0.62-13.69c-0.56-11.5-2.86-22.5-6.62-32.78l-1.96-5
		c-8.09-19.17-21.38-35.52-38.03-47.38l0.01-0.01l-0.21,0.01c-19.62-13.98-43.89-21.73-69.82-20.47
		c-61.32,2.98-108.61,55.11-105.62,116.42c0.08,1.58,0.21,3.14,0.35,4.7h0.19l9.33-0.08c-0.16-1.68-0.29-3.37-0.37-5.07
		c-2.76-56.68,40.5-104.84,96.61-107.57s103.84,41.01,106.59,97.69c0.22,4.51,0.14,8.94-0.2,13.3L1083.55,528.88z"/><path class="st0" d="M122.81,566.85l8.22-0.65c-0.03-1.53-0.05-3.1-0.05-4.72c0-56.18,40.97-103.81,97.68-106.54
		c56.7-2.73,107.66,40.48,107.66,96.66c0,1.62-0.01,3.18-0.02,4.72l7.2-0.46c-0.01-1.57-0.03-3.14-0.11-4.72
		c-2.98-61.32-55.1-108.61-116.42-105.62c-39.78,1.93-73.66,24.55-91.73,56.95l-3.62,5.69
		C131.62,508.16,117.88,543.38,122.81,566.85z"/><path class="st1" d="M135.43,502.47c18.08-32.39,51.95-55.01,91.73-56.95c61.32-2.98,113.44,44.31,116.42,105.62
		c0.08,1.58,0.1,3.15,0.11,4.72L464.13,550l171.36-8.33l225.75-10.98c-0.14-1.56-0.27-3.12-0.35-4.7
		c-2.98-61.32,44.31-113.44,105.62-116.42c25.93-1.26,50.2,6.49,69.82,20.47l52.56-45.16l-43.07-53.17
		c84.85-6.53,103.27,10.28,103.27,10.28c-10.44-24.57-63.94-45.36-63.94-45.36l-89.81-34.6l-53.83,2.62L768.7,138.16l8.17-4.59
		c-26.44-16.27-124.7-18.14-160.53-17.22L66.97,143.81l-2.04,9.69l2.8,5.86L41.09,309.93l-6.22,1.5l-2.56,61.71l38.63-5.31
		l7.11,142.94l53.76-2.61L135.43,502.47z M623.64,298.09l-7.45-153.31c14.99-0.57,40.63-1.39,71.85-1.79
		c50.33-0.65,76.46,16.34,76.46,16.34l164.62,123.92L623.64,298.09z"/><path class="st2" d="M334.16,551.6c0,75.84-12.44,69.36-98.48,69.36c-82.4,0-104.72,5.49-104.72-59.48
		c0-56.18,40.55-103.81,96.66-106.54C283.73,452.21,334.16,495.42,334.16,551.6z"/><polygon class="st3" points="776.66,133.63 768.49,138.22 941.31,264.71 995.35,262.03 	"/><circle class="st4" cx="232.56" cy="556.54" r="64.25"/><path class="st3" d="M623.67,298.09l236.82-11.52l-9.73-62.32l-78.79-59.31c-9.42-6.83-17.27-12.06-28.47-15.22
		c-12.95-3.65-31.56-7.05-55.46-6.74c-32.97,0.42-57.31,1.32-71.85,1.89L623.67,298.09z"/><polygon class="st2" points="929.12,283.05 860.46,286.69 850.76,224.26 	"/><rect x="294.19" y="153.65" transform="matrix(0.9988 -0.0486 0.0486 0.9988 -16.1737 21.5967)" class="st4" width="284.28" height="379.94"/><rect x="609.57" y="316.38" transform="matrix(0.9988 -0.0486 0.0486 0.9988 -14.909 31.2788)" class="st0" width="53.27" height="12.13"/><rect x="297.55" y="291.91" transform="matrix(0.9988 -0.0486 0.0486 0.9988 -19.5258 21.826)" class="st2" width="283.65" height="241.62"/><rect x="285.85" y="172.93" transform="matrix(0.9988 -0.0486 0.0486 0.9988 -8.2487 20.9832)" class="st2" width="283.65" height="14.61"/><rect x="287.8" y="213.57" transform="matrix(0.9988 -0.0486 0.0486 0.9988 -10.2204 21.1258)" class="st2" width="283.65" height="14.61"/><rect x="289.8" y="254.22" transform="matrix(0.9988 -0.0486 0.0486 0.9988 -12.192 21.2711)" class="st2" width="283.65" height="14.61"/><rect x="232.27" y="183.17" transform="matrix(0.9704 0.2416 -0.2416 0.9704 100.6762 -74.7499)" class="st5" width="245.74" height="379.94"/><rect x="414.47" y="375.78" transform="matrix(0.9704 0.2416 -0.2416 0.9704 105.2194 -94.3908)" class="st0" width="46.05" height="12.13"/><path class="st6" d="M651.66,296.73l-27.98,1.36l-4.43-91.21l6.03-0.29c12.12-0.59,22.43,8.76,23.02,20.88L651.66,296.73z"/><circle class="st4" cx="971.81" cy="520.6" r="64.25"/><path class="st3" d="M1045.82,331.71l43.07,53.17l78.12,12.04c0,0-5.06-36.97-17.92-54.93
		C1149.09,341.99,1130.67,325.18,1045.82,331.71z"/><g><path class="st2" d="M37.68,512.77L37.68,512.77l-2.57-52.94l16.33-5.71l-11.81-6.24l1.77-7.33l-7.85-12.81l0-0.02l16-3.76
			l-17.04-17.66l-1.45-29.87c-0.36-7.47,5.39-13.81,12.86-14.17l26.85-1.31l7.29,149.83l54.42-2.61
			c-8.06,20.04-12.22,39.58-9.67,58.44l-82.95,4.11C26.88,571.35,16,561,16,548v-12.52C16,523.34,25.55,513.33,37.68,512.77z"/><path class="st2" d="M37.68,512.77L37.68,512.77l-2.57-52.94l16.33-5.71l-11.81-6.24l1.77-7.33l-7.85-12.81l0-0.02l16-3.76
			l-17.04-17.66l-1.45-29.87c-0.36-7.47,5.39-13.81,12.86-14.17l26.85-1.31l7.29,149.83l54.42-2.61
			c-8.06,20.04-12.22,39.58-9.67,58.44l-82.95,4.11C26.88,571.35,16,561,16,548v-12.52C16,523.34,25.55,513.33,37.68,512.77z"/></g><polygon class="st7" points="72.02,384.61 31.55,386.57 32.51,406.29 49.54,423.96 33.55,427.71 33.55,427.74 41.4,440.54 
		39.63,447.87 51.44,454.11 35.11,459.83 35.8,474.05 76.27,472.08 	"/><path class="st0" d="M895.83,284.83l-1.51-27.66l-39.8,2.11c-0.91-15.14-15.07-26.67-31.72-25.79
		c-16.72,0.88-29.62,13.95-28.81,29.18c0.74,13.97,12.75,24.9,27.67,25.82L895.83,284.83z"/><path class="st2" d="M1073.41,515.67c-2.76-56.68-50.48-100.42-106.59-97.69s-99.37,50.89-96.61,107.57
		c2.76,56.68,50.38,98.37,106.49,95.64C1032.81,618.46,1076.17,572.35,1073.41,515.67z M974.93,584.77
		c-35.44,1.72-65.57-25.61-67.29-61.05c-1.72-35.44,25.61-65.57,61.05-67.29c35.44-1.72,65.57,25.61,67.29,61.05
		C1037.7,552.92,1010.37,583.04,974.93,584.77z"/><path class="st2" d="M1036.33,430.04c26.78,19.08,44.88,49.77,46.6,85.15c0.05,0.98,0.38,8.31,0.64,14.13l49.4-2.4l51.03-23.16
		l-5.11-105.08l-90-13.8L1036.33,430.04z"/><polygon class="st8" points="580.41,548.38 586.16,556.09 577.73,557.64 580.41,548.38 	"/><polygon class="st9" points="580.41,548.38 583.64,552.72 578.91,553.59 580.41,548.38 	"/><polygon class="st5" points="584.89,606.05 576.64,609.53 542.11,526.53 550.35,523.05 	"/><polygon class="st10" points="566.15,520.7 556.14,528.66 532.75,538.52 528.78,528.98 552.17,519.12 564.82,517.52 	"/><path class="st5" d="M549.98,550.98c-0.44-4.61-3.93-8.18-8.27-8.9l0.95,10l-5.05,0.49l-0.95-10c-4.13,1.53-6.88,5.7-6.44,10.32
		c0.38,3.98,3.03,7.18,6.54,8.45l-0.08,0.01l3.16,33.25l8.55-0.82l-3.16-33.25l-0.08,0.01
		C548.36,558.61,550.36,554.96,549.98,550.98z"/><polygon class="st9" points="586.16,556.08 595.51,607.63 587.08,609.18 577.73,557.63 586.16,556.08 	"/><rect x="585.92" y="559.41" transform="matrix(0.984 -0.1784 0.1784 0.984 -94.4768 114.0101)" class="st11" width="1.58" height="45.85"/><polygon class="st12" points="600.58,548.87 593.78,600.82 585.29,599.7 592.08,547.74 600.58,548.87 	"/><polygon class="st8" points="597.45,539.77 600.58,548.88 592.08,547.75 597.45,539.77 	"/><polygon class="st12" points="597.45,539.77 599.21,544.89 594.43,544.26 597.45,539.77 	"/><rect x="570.18" y="573.24" transform="matrix(0.1305 -0.9915 0.9915 0.1305 -53.3909 1087.182)" class="st9" width="45.86" height="1.58"/><path class="st7" d="M602.81,567.24h-26.44v-30.96c0-3.11-2.52-5.63-5.63-5.63s-5.63,2.52-5.63,5.63v30.96h-26.45
		c-2.03,0-3.67,2.94-3.67,6.56v40.45c0,3.62,1.64,6.56,3.67,6.56h64.16c2.03,0,3.67-2.94,3.67-6.56V573.8
		C606.48,570.18,604.83,567.24,602.81,567.24z"/></g><g id="Man"><path class="st13" d="M569.16,149.95l-30.51,54.52l-51.88-2.27l0.48,27.93l59.26-1.68c1.84-0.06,3.56-0.55,5.08-1.35
		c2.98-1.17,5.55-3.49,6.93-6.89l12.54-30.88L569.16,149.95z"/><path class="st13" d="M378.12,248.89l1.06,59.28c0.15,6.58,5.66,11.78,12.24,11.54h0c6.11-0.22,11.05-5.06,11.39-11.17l3.25-59.84
		L378.12,248.89z"/><path class="st10" d="M438.09,609.85c0-3.06-1.73-5.71-4.26-7.04l-0.04-24.78l-28.9,0.05l2.19,24.55
		c-2.77,1.26-4.69,4.04-4.69,7.28l0.02,11.05l35.69-0.06L438.09,609.85z"/><path class="st14" d="M509.46,203.46l0-0.52l-68.31-2.67l-49.5,12.42c-8.28,2.56-13.92,10.23-13.91,18.9l0.05,32.68l16.31-0.03
		l0.55,45.19l93.88-0.15l0.89-59.47l19.88-7.57L509.46,203.46z"/><polygon class="st10" points="445.53,266.79 483.18,201.83 473.81,201.39 441.88,257.04 412.48,206.21 404.34,208.73 438.27,266.8 
			"/><path class="st15" d="M489.86,322.43l0.44-15.15l-39.03-50.39l-18.79,0.03l-41.52,50.52l1.62,52.35h0l5.94,219.94l39.3-0.06
		l-0.34-219.95l6.8-0.01l0.16,102.25l39.3-0.06l4.51-102.25l0.51,0l1-34.36l0.12-2.8C489.9,322.48,489.89,322.46,489.86,322.43z"/><path class="st10" d="M417.21,352.17l-6.34,0.01c-6.73,0.01-12.2-5.44-12.21-12.17l-0.03-20.68l30.73-0.05l0.03,20.68
		C429.4,346.7,423.95,352.16,417.21,352.17z"/><path class="st10" d="M484.75,521.35c-0.18-3.6-2.64-6.54-5.91-7.51l0.91-24.4l-28.86,1.45l1.28,25.41
		c-1.98,1.61-3.19,4.09-3.06,6.83l0.5,10.02l35.64-1.79L484.75,521.35z"/><polygon class="st16" points="484.93,487.05 486.46,417.38 444.35,417.45 444.45,488.3 444.45,505.94 489.09,505.87 489.09,487.05 
			"/><path class="st10" d="M464.55,352.1l6.34-0.01c6.73-0.01,12.18-5.48,12.17-12.21l-0.03-20.68l-30.73,0.05l0.03,20.68
		C452.35,346.66,457.81,352.11,464.55,352.1z"/><path class="st13" d="M473.77,172.36c-0.05-1.37-3.21-5.01-4.64-6.59l-1.37-17.19c-0.67-6.83-6.75-11.83-13.58-11.16l-19.42,1.9
		c-6.83,0.67-11.83,6.75-11.16,13.58l2.72,35.17c0.11,1.17,0.4,2.28,0.81,3.33l1.15,11.7c0.51,5.19,7.18,8.79,14.9,8.03h0
		c7.72-0.76,13.57-5.58,13.06-10.77l-0.26-2.71l7.57-0.74c4.5-0.44,7.79-4.44,7.35-8.94l-0.98-12.38
		C471.03,175.11,473.82,173.78,473.77,172.36z"/><path class="st17" d="M459.97,168.84l-1.09-1.72c-0.67-1.05-0.35-2.45,0.7-3.12l5.78-3.65c1.05-0.66,2.43-0.35,3.09,0.7l1.09,1.72
		c0.01,0.01,0,0.02-0.01,0.03L459.97,168.84z"/><path class="st17" d="M470.95,176.17l-4.47,0.39c-1.94,0.17-2.28,1.15-2.17,2.32l0.2,2.22l6.83-0.6L470.95,176.17z"/><path class="st6" d="M489.6,249.87l12.79-4.96c0,0-1.32-2.99-5.88-4.31c-6.91-2-17.05,4.65-12.6,16.78c1.62,4.42,5.3,6.72,5.3,6.72
		L489.6,249.87z"/><path class="st18" d="M464.12,168.65c-0.07-0.7,0.19-1.34,0.65-1.79c-1.88,0.64-3.59,1.32-3.47,2.55c0.15,1.51,5.54,1.29,5.54,1.29
		c0.03-0.06,0.05-0.12,0.08-0.18c-0.15,0.05-0.3,0.09-0.46,0.1C465.28,170.74,464.24,169.86,464.12,168.65z"/><path class="st18" d="M466.4,166.31c-0.53,0.19-1.09,0.37-1.64,0.56c-0.45,0.45-0.71,1.09-0.65,1.79c0.12,1.21,1.16,2.09,2.33,1.98
		c0.16-0.02,0.31-0.05,0.46-0.1C467.82,168.46,466.4,166.31,466.4,166.31z"/><path class="st11" d="M466.4,166.31c-0.53,0.19-1.09,0.37-1.64,0.56c-0.45,0.45-0.71,1.09-0.65,1.79c0.12,1.21,1.16,2.09,2.33,1.98
		c0.16-0.02,0.31-0.05,0.46-0.1C467.82,168.46,466.4,166.31,466.4,166.31z"/><path class="st19" d="M445.32,168.56l-0.06,0.01c0.02,0.01,0.04,0.02,0.06,0.02L445.32,168.56z"/><path class="st13" d="M445.32,168.58c-0.02-0.01-0.04-0.02-0.06-0.02l-1.15,0.11c0.26,4.42,0.22,8.8-0.47,11.97
		c2.12-0.26,3.87-1.55,4.8-3.32l-2.24,0.15L445.32,168.58z"/><path class="st17" d="M469.62,144.47c-0.63-6.41-6.34-11.1-12.75-10.48c-1.01,0.1-1.97,0.34-2.88,0.67
		c-2.28-1.78-5.22-2.74-8.32-2.43c-3.01,0.29-5.62,1.71-7.5,3.79c-1.09-0.23-2.22-0.3-3.39-0.19c-3.75,0.37-6.87,2.57-8.58,5.62
		c-7.31,2.98-13.47,10.3-11.22,16.99l0,0l0.02,0.05c0,0,0,0,0,0l12.49,36.51c0,0,7.69,0.86,15.05-11.31
		c0.48-0.79,0.84-1.84,1.1-3.06c-0.06,0.01-0.11,0.02-0.17,0.03c-3.47,0.34-6.55-2.2-6.89-5.66c-0.34-3.47,2.2-6.55,5.66-6.89
		c1.07-0.1,2.1,0.07,3.02,0.45l0.06-0.01l0,0.03l0.87,8.9l2.24-0.15l4.32-0.29l-1.03-10.5c3.01-2.05,4.95-5.5,4.97-9.33
		c0.8,0.09,1.62,0.1,2.45,0.02C465.56,156.59,470.25,150.89,469.62,144.47z"/><rect x="465.6" y="184.39" transform="matrix(0.9961 -0.0882 0.0882 0.9961 -14.4715 42.0061)" class="st17" width="5.03" height="0.75"/><rect x="394.78" y="573.21" transform="matrix(1 -1.559948e-03 1.559948e-03 1 -0.908 0.6501)" class="st16" width="43.06" height="18.35"/></g><g id="Woman_00000173152876378387841740000011440448497913665181_"><path class="st0" d="M785.86,249.92l-24.58-68.53l-19.26,5.69l3.2,15.22h-77.87l0,0.05c-0.55-0.04-1.11-0.06-1.69-0.04
		c-0.29,0.01-0.59,0.02-0.88,0.05c-9.53,0.72-16.91,8.33-17.74,17.55l-0.08,0l-16.39,127.32l20.25,2l18.15-72.15l0.19,8.81h78.9
		l0.56-39.9l9.23,14.95c2.86,6.7,10.26,10.55,17.59,8.66C784.03,267.37,788.86,258.26,785.86,249.92z"/><path class="st15" d="M767.57,373.27c2.48-18.28,5.14-50.7-10.39-79.27v-12.68l-39.24-38.26h-35.08V202.3h-7.43v42.03
		c-0.55,5.62-5.25,10.02-10.99,10.02l-1.18,38.76c-16.42,28.46-13.22,61.25-11.05,79.75c2.03,17.23,4.36,233.59,4.36,233.59h51.07
		V348.46l2.68-4.83l2.54,4.26l13.89,258.56h49.63C776.39,606.44,765.23,390.46,767.57,373.27z"/><path class="st16" d="M727.67,303.94h-33.88c-6.04,0-10.93-4.89-10.93-10.93V262.8h41.32c7.96,0,14.42,6.46,14.42,14.42v15.79
		C738.6,299.04,733.7,303.94,727.67,303.94z"/><path class="st0" d="M699.95,614.58c0-9.75-7.91-17.66-17.67-17.66c-9.76,0-17.67,7.91-17.67,17.66"/><rect x="664.61" y="614.39" class="st0" width="35.33" height="6.57"/><path class="st0" d="M735.1,614.58c0-9.75,7.91-17.66,17.67-17.66c9.76,0,17.67,7.91,17.67,17.66"/><rect x="735.1" y="614.39" class="st0" width="35.33" height="6.57"/><polygon class="st16" points="717.94,243.07 717.94,281.33 757.17,281.33 	"/><path class="st20" d="M636.81,381.52l-7.41-18.03l3.2-16.07l14.69,1.45l3.07,16.05l5.23,8.31c0.88,1.4,0.65,3.3-0.67,4.31
		c-1.51,1.16-3.64,0.75-4.63-0.82l-4.37-6.94l0.01,0.05c0,0-0.04-0.09-0.12-0.23l-1.92-3.06c-0.73-1.15-2.56-0.28-2.05,0.99
		c0.01,0.01,0.01,0.02,0.02,0.04c0.33,0.77,1.38,2.91,2.31,4.94l8.72,10.09c1.14,1.33,1,3.33-0.33,4.47
		c-0.04,0.03-0.08,0.05-0.11,0.08c0.39,1.04,0.22,2.26-0.56,3.16c-1.14,1.33-3.14,1.48-4.47,0.34L636.81,381.52z"/><path class="st5" d="M656.92,354.76l3.2-5.94c-2.87-0.69-5.97,0.6-7.45,3.35c-1.28,2.37-0.99,5.15,0.49,7.17l-0.05-0.02
		l-7.02,13.02l-7.04,13.01l0.05,0.02c-2.51-0.13-4.99,1.16-6.27,3.52c-1.48,2.74-0.87,6.04,1.29,8.06l3.21-5.94l3,1.62l-3.21,5.94
		c2.88,0.69,5.98-0.61,7.46-3.35c1.28-2.36,0.99-5.14-0.49-7.16l0.05,0.02l3.39-6.27l0.01,0l3.63-6.74l3.64-6.74l-0.01,0l3.38-6.28
		l-0.05-0.02c2.5,0.13,4.98-1.15,6.26-3.52c1.48-2.74,0.86-6.04-1.29-8.07l-3.2,5.94L656.92,354.76z"/><polygon class="st20" points="646.68,370.98 650.38,376.79 653.78,370.49 650.11,364.21 646,365.76 	"/><path class="st21" d="M728.43,191.38h-36.32c-2.79,0-5.04-2.26-5.04-5.04v-31.66h46.41v31.66
		C733.48,189.13,731.22,191.38,728.43,191.38z"/><ellipse class="st20" cx="731.38" cy="172.22" rx="6.17" ry="6.21"/><ellipse class="st20" cx="689.54" cy="172.2" rx="6.17" ry="6.21"/><path class="st22" d="M695.24,201.25v-19.9l30.47-0.89v20.79c0,8.47-6.82,15.33-15.24,15.33l0,0
		C702.06,216.59,695.24,209.72,695.24,201.25z"/><path class="st20" d="M714.23,134.67c9.08,0,16.44,7.41,16.44,16.55v29.53c0,9.14-7.36,16.55-16.44,16.55h-7.51
		c-9.08,0-16.44-7.41-16.44-16.55v-29.53c0-9.14,7.36-16.55,16.44-16.55"/><path class="st11" d="M710.25,178.55c-0.79,0-1.61-0.38-2.45-1.15c-1.15-1.05-2.34,0.09-2.47,0.22l-0.58-0.57
		c0.63-0.65,2.2-1.54,3.6-0.25c1.67,1.53,2.75,0.88,3.51,0.15c0.87-0.84,2.33-1.24,3.82,0.18l-0.56,0.59
		c-1.27-1.2-2.24-0.63-2.7-0.18C711.73,178.21,711,178.55,710.25,178.55z"/><path class="st13" d="M711.97,184.93c-1.18,0.48-4.49,2.38-4.49,2.38c-0.03-0.23,3.22,3.1,7.98,1.74c3.03-0.87,3.35-1.79,5.25-5.53
		c0,0-3.86,0.15-5.13,0.38c-0.64,0.12-1.1,0.73-1.24,1.43l-0.11,0.53l-0.61-0.52C713.15,184.92,712.51,184.71,711.97,184.93z"/><path class="st21" d="M693.25,165.61l9.18-2.32c1.85-0.47,2.98-2.35,2.51-4.2l-0.04-0.15l-9.18,2.32c-1.85,0.47-2.98,2.35-2.51,4.2
		L693.25,165.61z"/><path class="st21" d="M727.17,162.9l-9.15-2.45c-1.85-0.49-2.94-2.39-2.45-4.24l0.04-0.15l9.15,2.45c1.85,0.49,2.94,2.39,2.45,4.24
		L727.17,162.9z"/><path class="st18" d="M716.03,170.54c0,0,1.47-3.18,4.3-4.17c2.83-0.99,5.94,0.58,5.94,0.58s-1.17,2.39-4,3.38
		C719.44,171.33,716.03,170.54,716.03,170.54z"/><path class="st21" d="M715.77,134.64h-10.99c-9.78,0-17.71,9.81-17.71,19.66V173h3.17v-8.43c0-5.73,2.89-10.76,7.25-13.7
		l-3.71-6.46l1.77-1.03l5.14,8.96l0,0c2.11,3.63,5.76,6.04,9.99,6.04h18.44c0.77,1.91,1.2,4,1.2,6.2V173h3.17V154.3
		C733.48,144.45,725.55,134.64,715.77,134.64z"/><path class="st23" d="M760.49,181.62l-8.92-18.57l-3.92-3.23h0l-13.87-12.11c-1.16-1.01-2.91-0.89-3.92,0.27
		c-1.01,1.16-0.89,2.91,0.27,3.92l9.94,8.68l-0.16,0.38l-4.13-3.61c-1.16-1.01-2.91-0.89-3.92,0.27s-0.89,2.91,0.27,3.92l5.51,4.81
		l-0.16,0.39l-2.95-2.58c-1.16-1.01-2.91-0.89-3.92,0.27c-1.01,1.16-0.89,2.91,0.27,3.92l4.41,3.85l-0.13,0.33l-1.13-0.99
		c-1.16-1.01-2.91-0.89-3.92,0.27c-1.01,1.16-0.89,2.91,0.27,3.92l2.65,2.34l9.82,8.7L760.49,181.62z"/><path class="st18" d="M705.11,170.54c0,0-1.47-3.18-4.3-4.17s-5.94,0.58-5.94,0.58s1.17,2.39,4,3.38
		C701.7,171.33,705.11,170.54,705.11,170.54z"/><path class="st19" d="M705.11,170.54c0,0-1.47-3.18-4.3-4.17s-5.94,0.58-5.94,0.58s1.17,2.39,4,3.38
		C701.7,171.33,705.11,170.54,705.11,170.54z"/><path class="st11" d="M699.05,170.39c1.74,0.56,3.66,0.48,4.86,0.34c0.01-0.07,0.02-0.14,0.02-0.21c0-1.36-1.1-2.46-2.45-2.46
		C700.18,168.05,699.12,169.09,699.05,170.39z"/><path class="st11" d="M725.31,168.29c-0.45-0.59-1.14-0.97-1.94-0.97c-1.35,0-2.45,1.1-2.45,2.46c0,0.3,0.06,0.59,0.16,0.86
		c0.4-0.08,0.79-0.17,1.18-0.31C723.67,169.85,724.67,169.01,725.31,168.29z"/><path class="st19" d="M716.03,170.54c0,0,1.47-3.18,4.3-4.17c2.83-0.99,5.94,0.58,5.94,0.58s-1.17,2.39-4,3.38
		C719.44,171.33,716.03,170.54,716.03,170.54z"/><path class="st11" d="M716.03,170.54c1.34-4.64,6.81-6.75,10.73-4.36c-0.24,0.39-0.4,0.67-0.64,1.06
		c-0.87-0.53-5.37-2.36-9.47,2.58C716.41,170.11,716.38,170.23,716.03,170.54z"/><path class="st11" d="M705.11,170.54c-1.34-4.64-6.81-6.75-10.73-4.36c0.24,0.39,0.4,0.67,0.64,1.06c0.87-0.53,5.37-2.36,9.47,2.58
		C704.73,170.11,704.76,170.23,705.11,170.54z"/></g></svg>