<svg viewBox="0 0 1600 1200" fill="none" xmlns="http://www.w3.org/2000/svg"><path d="M1389 467.1H549.989V508.56H693.853V1004H719.566V508.56H1236.15V1004H1261.86V508.56H1389V467.1Z" fill="#F7E5CD"/><path d="M295.684 482.02C330.487 504.24 352.68 531.69 352.68 531.69C352.68 531.69 318.446 523.12 283.643 500.9C248.84 478.68 226.647 451.23 226.647 451.23C226.647 451.23 260.881 459.8 295.684 482.02Z" fill="#006931"/><path d="M246.549 403.265L243.88 405.514L350.108 531.517L352.776 529.268L246.549 403.265Z" fill="#232144"/><path d="M256.448 414.807C266.094 396.224 267.872 378.024 260.42 374.156C252.969 370.289 239.109 382.218 229.464 400.802C219.819 419.386 218.041 437.586 225.492 441.453C232.944 445.321 246.803 433.391 256.448 414.807Z" fill="#ED1E79"/><path d="M247.813 410.325C251.283 403.639 251.923 397.09 249.241 395.699C246.56 394.307 241.573 398.599 238.102 405.285C234.632 411.971 233.992 418.52 236.673 419.911C239.355 421.303 244.342 417.011 247.813 410.325Z" fill="#232144"/><path d="M312.493 401.242L309.123 402.15L351.983 561.311L355.353 560.404L312.493 401.242Z" fill="#232144"/><path d="M318.192 409.164C327.534 394.174 330.235 378.987 324.226 375.242C318.216 371.497 305.771 380.613 296.429 395.603C287.087 410.593 284.385 425.78 290.395 429.525C296.405 433.269 308.85 424.153 318.192 409.164Z" fill="#ED1E79"/><path d="M311.222 404.822C314.582 399.431 315.553 393.97 313.392 392.624C311.231 391.277 306.756 394.555 303.397 399.946C300.038 405.336 299.066 410.797 301.227 412.143C303.388 413.49 307.863 410.212 311.222 404.822Z" fill="#232144"/><path d="M285.931 468.926L283.263 471.175L389.49 597.179L392.159 594.929L285.931 468.926Z" fill="#232144"/><path d="M296.727 478.398C303.513 458.591 302.575 440.329 294.633 437.608C286.691 434.887 274.751 448.739 267.965 468.546C261.179 488.353 262.116 506.615 270.059 509.336C278.001 512.057 289.941 498.205 296.727 478.398Z" fill="#ED1E79"/><path d="M287.521 475.245C289.962 468.118 289.625 461.547 286.767 460.568C283.909 459.589 279.612 464.573 277.171 471.7C274.729 478.826 275.067 485.397 277.925 486.376C280.783 487.355 285.079 482.371 287.521 475.245Z" fill="#232144"/><path d="M332.838 482.56C342.529 511.98 342.419 538.47 342.419 538.47C342.419 538.47 326.587 517.25 316.896 487.82C307.205 458.4 307.315 431.91 307.315 431.91C307.315 431.91 323.147 453.13 332.838 482.56Z" fill="#006931"/><path d="M423.497 236.72C418.676 258.11 405.965 273.47 405.965 273.47C405.965 273.47 401.055 254.14 405.875 232.75C410.696 211.36 423.407 196 423.407 196C423.407 196 428.317 215.33 423.497 236.72Z" fill="#006931"/><path d="M420.757 561.18C401.995 538.93 352.8 508.06 352.8 508.06L321.647 534.35C321.647 534.35 342.419 588.02 361.761 610.96C381.103 633.9 403.765 649.14 421.637 652.94L427.578 659.98L458.731 633.69L451.93 625.63C450.61 607.54 439.509 583.43 420.747 561.18H420.757Z" fill="#FBB03B"/><path d="M1055.84 463.57C1053.76 371.51 978.511 297.52 885.992 297.52C828.156 297.52 777.081 326.44 746.398 370.6L716.096 334.89V369.89C701.984 370.96 688.843 376.21 677.542 384.6L650.699 352.96V416.83C647.179 423.7 644.349 431.13 642.328 438.98H525.217C517.346 438.98 510.966 445.36 510.966 453.23C510.966 461.1 517.346 467.48 525.217 467.48H749.999V507.93C749.999 515.8 756.379 522.18 764.25 522.18C772.121 522.18 778.501 515.8 778.501 507.93V467.48H1027.42V684.71C1027.42 692.58 1033.8 698.96 1041.67 698.96C1049.54 698.96 1055.92 692.58 1055.92 684.71V464.54C1055.92 464.21 1055.89 463.88 1055.87 463.56L1055.84 463.57Z" fill="#232144"/><path d="M693.584 418.59C693.584 418.59 687.713 422.86 681.043 422.21C674.372 421.56 669.432 416.23 669.432 416.23C669.432 416.23 675.302 411.96 681.973 412.61C688.643 413.26 693.584 418.59 693.584 418.59Z" fill="white"/><path d="M682.103 411.33C682.103 411.33 684.253 414.28 683.923 417.64C683.593 421 680.923 423.48 680.923 423.48C680.923 423.48 678.773 420.53 679.103 417.17C679.433 413.81 682.103 411.33 682.103 411.33Z" fill="#232144"/><path d="M724.916 397.49C724.916 397.49 723.936 404.69 718.856 409.06C713.775 413.43 706.515 413.31 706.515 413.31C706.515 413.31 707.495 406.11 712.575 401.74C717.656 397.37 724.916 397.49 724.916 397.49Z" fill="white"/><path d="M711.735 400.76C711.735 400.76 715.355 401.25 717.545 403.81C719.745 406.37 719.685 410.02 719.685 410.02C719.685 410.02 716.065 409.53 713.875 406.97C711.685 404.41 711.735 400.76 711.735 400.76Z" fill="#232144"/></svg>