<?xml version="1.0" encoding="UTF-8"?><svg id="Ebene_1" xmlns="http://www.w3.org/2000/svg" version="1.1" viewBox="0 0 1200 840"><!--Generator: Adobe Illustrator 29.0.1, SVG Export Plug-In . SVG Version: 2.1.0 Build 192)--><defs><style>.st0 {
        fill: #b26150;
      }

      .st1 {
        fill: #aa3734;
      }

      .st2 {
        fill: #493acd;
      }

      .st3 {
        fill: #051111;
      }

      .st4 {
        fill: #242046;
      }

      .st5 {
        fill: #c6c6c6;
      }

      .st6 {
        fill: #ff0079;
      }

      .st7 {
        fill: #ffc1b5;
      }

      .st8 {
        fill: #181111;
      }

      .st9 {
        fill: #ff9f00;
      }

      .st10 {
        fill: #fff;
      }

      .st11 {
        fill: #fae4ca;
      }

      .st12 {
        fill: #716dff;
      }

      .st13 {
        fill: #ff9d8a;
      }

      .st14 {
        fill: #2867ca;
      }</style></defs><rect class="st0" x="700.27" y="93.54" width="50.67" height="64.21"/><path class="st0" d="M488.31,193.24h0c-2.85,1.2-4.19,4.49-3,7.34l12.96,30.95,10.31-4.36-12.96-30.95c-1.19-2.85-4.47-4.18-7.31-2.98"/><polygon class="st0" points="527.18 231.53 502.04 212.03 483.54 244.39 513.48 256.75 527.18 231.53"/><path class="st13" d="M289.55,186.66l59.03,59.19,104.6-57.91-3.01,31.42s-61.93,47.63-80.58,62.57c-16.97,13.59-34.99,4.04-34.99,4.04l-80.84-45.72,35.79-53.6Z"/><polygon class="st13" points="440.36 223.77 459.82 213.6 453.17 187.94 420.48 207.58 440.36 223.77"/><path class="st13" d="M504.9,192.32h0c.64-2.51-.88-5.07-3.38-5.71l-20.02-5.16-2.31,9.09,20.02,5.17c2.5.65,5.05-.86,5.69-3.37"/><path class="st13" d="M501.55,195.88h0c.26-2.58-1.62-4.88-4.19-5.15l-20.56-2.13-.94,9.33,20.56,2.13c2.57.27,4.87-1.61,5.13-4.18"/><polygon class="st13" points="453.17 187.94 455.27 197.09 483.62 190.63 481.53 181.48 453.17 187.94"/><polygon class="st13" points="454.02 192.34 455.61 201.59 484.28 196.71 482.69 187.46 454.02 192.34"/><path class="st13" d="M476.22,204.78s-7.73,1.2-9.21,1.49c-4.35.87-4.54-5.07-.58-5.75,1.53-.26,5.04-.97,8.73-1.74-8.37-1.66-23.9-5.29-23.9-5.29l5.48,17.85,19.48-6.57Z"/><polygon class="st1" points="729.76 672.35 754.02 705.57 714.38 736.14 686.47 704.42 729.76 672.35"/><polygon class="st1" points="584.07 724.76 575.95 761.07 626.83 762.93 635.84 727.03 584.07 724.76"/><path class="st2" d="M698.84,590.87l52.69,79.65-76.5,56.19-124.89-181.97c-20.44-32.08,4.27-49.07,4.27-49.07l110.07-89.95,34.36,185.15Z"/><polygon class="st4" points="628.13 760.02 620.89 788.5 620.89 812.34 505.78 812.34 505.78 803.73 570.28 773.27 573.92 760.02 628.13 760.02"/><polygon class="st4" points="786.91 742.01 755.57 700.43 708.96 735.67 716.17 743.9 687.37 802.89 692.44 813.58 786.91 742.01"/><path class="st0" d="M665.72,173.21l-42.98,76.84-96.49-19.25-12.76,25.95s66.34,28.56,94.11,39.06c28.86,10.92,42.78-10.19,42.78-10.19l72.76-87.05-57.42-25.37Z"/><path class="st0" d="M673.66,103.81V34.75c0-8.07,6.54-14.62,14.6-14.62h46.89c8.72,0,15.79,7.08,15.79,15.81v69.08c0,7.4-5.99,13.4-13.38,13.4h-49.29c-8.06,0-14.6-6.54-14.6-14.62"/><path class="st0" d="M665.72,74.15c.08,3.19,8.1,5.68,8.1,5.68l.36-19s-8.53,10.13-8.45,13.32"/><path class="st5" d="M758.4,48.96c1.66-12.56-4.78-25.04-16.3-30.31-3.71-1.7-7.84-2.65-12.17-2.65h-44.38c-9.99,0-18.09,8.11-18.09,18.11v3.86c0,5.83,4.72,10.55,10.55,10.55h20.93v21.8h6.19v-.02c2.37-3.82,7.76-4.04,7.76-4.04,4.66,0,8.43,3.78,8.43,8.44,0,2.74-1.31,5.18-3.34,6.73l.02,6.89c.03,9.47,7.72,17.13,17.19,17.13h15.73l7.47-56.5Z"/><path class="st8" d="M696.01,60.51v-3.91c0-2.4-1.94-4.34-4.33-4.34h-13.12c-2.37,0-4.3,1.93-4.3,4.3v3.91s.02.04.04.04h21.72Z"/><path class="st8" d="M684.85,115.78h-8.11c-3.49,0-4.25-1.7-4.25-3.8v-4h12.3l.06,7.79Z"/><path class="st13" d="M287.34,464.41l21.9,129.86-102.27,100.37,21.28,32.54s113.93-83.57,125.24-91.76c11.46-8.3,12.29-23.96,8.69-41.29l-21.45-101.04-53.38-28.68Z"/><polygon class="st7" points="390.79 556.92 345.65 406.51 252.62 426.08 328.09 556.37 380.83 755.83 418.76 745.61 390.79 556.92"/><path class="st6" d="M223.29,285.73l87.81-6.89c39.61,53.74,87.1,237.24,87.1,237.24l-114.68,41.45s-95.34-178.24-60.23-271.8"/><path class="st0" d="M467.32,184.52h0c-3.07.31-5.32,3.05-5.02,6.13l2.39,24.59,11.12-1.12-2.39-24.59c-.3-3.08-3.03-5.32-6.1-5.01"/><path class="st0" d="M472.67,186.83h0c-2.99.76-4.81,3.81-4.06,6.81l6.01,23.95,10.84-2.76-6.01-23.95c-.75-3-3.79-4.81-6.78-4.05"/><polygon class="st0" points="483.54 244.39 492.93 238.3 474.12 209.1 464.72 215.19 483.54 244.39"/><polygon class="st0" points="488.12 241.65 497.84 236.08 480.66 205.88 470.95 211.45 488.12 241.65"/><path class="st0" d="M490.83,213.84s2.41,4.56,2.99,6.11c1.19,3.21-2.34,4.51-3.86,2.06-.97-1.58-3.88-6.94-6.25-10.77,1.57,10.08,1.33,26.57,1.33,26.57l17.77-13.44-11.98-10.53Z"/><path class="st7" d="M267.4,161.17l-15.94.92c-8.67.5-12.53-4.99-13.02-13.67l-2.04-43.76,43.82,5.25,1.99,34.64c.5,8.68-6.13,16.12-14.8,16.62"/><path class="st7" d="M259.88,121.66c7.74,5.95,20.17,7.83,29.81,6.32,3.78-.59,7.14-1.55,9.13-2.78,5.23-3.23,7.79-8.38,7.04-15.72-.41-4-1.92-19.3-1.92-19.3l2.27-.99c4.49-2.35-.76-6.87-.76-6.87-1.88-2.23-3.36-3.87-3.36-3.87l-3.34-22.88c-2.52-13.1-15.35-21.75-28.49-19.22l-15.91,1.93c-13.15,2.54-25.04,15.73-22.51,28.83l4.27,37.56,23.77,16.97Z"/><path class="st8" d="M286.9,65.45l-.37.11c-3.88,1.13-6.98,4.11-8.37,8.06l20.11-5.84c-3.29-2.59-7.5-3.45-11.37-2.32"/><path class="st6" d="M222.12,291.75l2.94-135.44c2.67-11.8,12.85-13.79,21.33-13.63l36.18,3.76,16.93,21.93c10.96,15.89,19.57,22.05,20.45,37.16.39,6.64-2.01,83.71-2.01,83.71l-95.82,2.52Z"/><path class="st4" d="M304.69,97.85c-1.21.27-2.62.82-2.47,2.5-.26-2.76-4.45-2-4.45-2l-9.56.89c.03-.37,6.92,8.37,15.12,7.66,0,0,.02,0,.02,0,1.26-.11,2.16-1.28,2.04-2.54l-.2-2.17-.51-4.33Z"/><path class="st8" d="M301.32,39.12c-1.32-10.61-11.03-18.14-21.69-16.81-.79.1-1.55.26-2.3.44l.04-.16-56.02,13.65s-.05.11-.13.33c-10.08,2.4-17.25,11.39-17.39,21.71h0s-3.11,31.62,33.48,66.18c12.07-7.2,21.11-20.63,23.83-34.44l4.91-22.46c.84,0,1.68-.04,2.53-.14,5.05-.63,9.44-3.06,12.61-6.54,1.06.04,2.14,0,3.22-.13,10.66-1.33,18.23-11.01,16.91-21.62Z"/><path class="st13" d="M488.61,207.87h0c-.47-2.81-3.11-4.72-5.92-4.26l-30.45,4.96-2.3,10.82,34.43-5.61c2.8-.45,4.7-3.1,4.24-5.91"/><path class="st12" d="M787.72,326.97h-113.49l-119.23,397.99,95.26,5.3,133.93-353.89s8.09-21.62,3.53-49.4"/><path class="st7" d="M415.29,316.33l27.27,13.39c2.58,1.27,5.69.65,7.6-1.5h0c2.79-3.16,1.81-8.1-1.97-9.96l-20.27-9.96"/><path class="st7" d="M446.71,352.01h0c1.48-3.03.22-6.68-2.8-8.16l-3.65-1.79-5.35,10.96,3.65,1.79c3.02,1.48,6.67.22,8.15-2.8"/><path class="st7" d="M440.71,359.13h0c1.64-2.94.6-6.66-2.34-8.31l-3.55-1.99-5.96,10.65,3.55,1.99c2.94,1.65,6.65.6,8.3-2.34"/><path class="st7" d="M452.07,343.81h0c1.48-3.03.23-6.68-2.8-8.16l-4.57-2.24-5.35,10.96,4.57,2.24c3.02,1.48,6.67.23,8.15-2.8"/><polyline class="st7" points="427.91 308.3 404.18 313.3 383.26 338.66 420.17 355.43"/><polygon class="st12" points="698.76 822.02 793.23 750.61 786.83 742.05 692.37 813.46 698.76 822.02"/><rect class="st12" x="505.78" y="812.43" width="115.11" height="11.63"/><path class="st0" d="M938.34,173.93l24.08-62.06-93.15,66.75-80.86-36.61-14.62,58.41,90.06,22.72c14.94,3.46,25.79-1.38,35.61-11.94l38.89-37.28Z"/><path class="st4" d="M750.91,125.97l-50.64,21.98v-11.75l-9.8,2.96c-21.58,5.93-34.46,46.68-34.46,46.68l19.82,6.3-1.6,134.82h113.49l8.93-114.31,19.62,4.93,26.84-56.54c-52.98-28.48-92.21-35.08-92.21-35.08"/><path class="st10" d="M680.81,64.07s-2.29,4.34,0,7.94c0,0,9.66-.55,9.66-3.27,0-2.87-5.29-3.56-9.66-4.67"/><path class="st3" d="M680.81,72.01s1.16-.07,2.68-.27c.97-.76,1.63-2.14,1.63-3.73,0-1.26-.41-2.38-1.06-3.18-1.08-.26-2.19-.5-3.24-.77,0,0-2.29,4.34,0,7.94"/><path class="st3" d="M682.99,90.08c-2.09,3.64-7.92,3.19-9.32,3.02v1.79c.46.05,1.14.11,1.96.11,2.74,0,6.94-.61,8.9-4.03l-1.54-.88Z"/><path class="st3" d="M292,75.6c-.99.74-1.57,2.23-1.37,3.86.15,1.24.74,2.28,1.51,2.92,1.76.14,2.95-.25,2.95-.25,1.62-3.87-.83-6.69-.83-6.69-.73,0-1.49.06-2.26.16"/><path class="st10" d="M290.63,79.46c-.2-1.63.37-3.11,1.37-3.86-3.78.53-7.61,2.21-7.61,2.21,2.69,3.43,5.63,4.4,7.75,4.57-.77-.64-1.36-1.68-1.51-2.92"/><path class="st3" d="M295.27,75.41l-.13-1.02s-6.33-.94-12.13,2.29l1.8,1.75s4.26-2.45,10.46-3.02"/><polygon class="st9" points="708.79 399.94 737.65 317.67 651.98 333.81 708.79 399.94"/><polygon class="st6" points="809.48 371.39 823.87 285.4 742.21 315.93 809.48 371.39"/><polygon class="st9" points="902.9 326.97 901.41 239.8 826.66 284.68 902.9 326.97"/><polygon class="st6" points="985.2 267.06 968.61 181.47 902.78 238.63 985.2 267.06"/><polygon class="st9" points="1056.56 192.3 1024.24 111.33 970.28 179.8 1056.56 192.3"/><polygon class="st6" points="607.19 411.58 647.28 334.16 560.19 338.15 607.19 411.58"/><polygon class="st9" points="506.8 409.32 556.47 337.67 469.58 330.48 506.8 409.32"/><path class="st8" d="M233.95,79.07c-1.6,0-3.17.14-4.7.4-1.82-2.12-4.16-3.78-6.83-4.78,1.14-1.86,1.8-4.03,1.8-6.37,0-6.77-5.49-12.25-12.25-12.25s-12.25,5.49-12.25,12.25c0,4.12,2.04,7.76,5.16,9.98-3.18,3.06-5.16,7.34-5.16,12.09,0,5.41,2.57,10.22,6.55,13.29-.12,1.07-.2,2.16-.2,3.26,0,15.39,12.48,27.87,27.87,27.87s27.87-12.48,27.87-27.87-12.48-27.87-27.87-27.87Z"/><path class="st11" d="M262.58,88.14c-11.04,0-19.99,8.95-19.99,19.99s8.95,19.99,19.99,19.99,19.99-8.95,19.99-19.99-8.95-19.99-19.99-19.99ZM262.58,124.74c-9.17,0-16.6-7.43-16.6-16.6s7.43-16.6,16.6-16.6,16.6,7.43,16.6,16.6-7.43,16.6-16.6,16.6Z"/><path class="st7" d="M269.71,83.92c.74,5.96-3.49,11.4-9.44,12.14-5.95.74-11.38-3.49-12.13-9.45-.74-5.96,3.49-11.4,9.44-12.14,5.96-.74,11.39,3.49,12.13,9.45"/><path class="st4" d="M209.15,681.48l-31.32,29.22-34.39,28.46,9,10.49,13.15-10.96s.04,0,.06-.01c.06-.06.11-.13.17-.19,1.67-1.45,4.19-1.27,5.63.4s1.27,4.19-.4,5.63c-.08.07-.17.12-.25.18l-12.81,11.32,59,67.98s18.12-7.96,5.31-26.84c-28.32-41.75,18.46-74.56,18.46-74.56l-31.61-41.12Z"/><path class="st4" d="M368.26,740.05l9.92,39.45,6.91,44.1,13.62-2.38-2.71-16.91s.01-.04.02-.06c-.02-.08-.05-.16-.07-.24-.39-2.17,1.05-4.25,3.22-4.64,2.17-.39,4.25,1.05,4.64,3.22.02.1.01.21.02.31l3.19,16.79,88.57-16.02s2.4-19.64-20.37-18.27c-50.36,3.04-54.69-53.94-54.69-53.94l-52.28,8.59Z"/><path class="st0" d="M1011.31,82.22c2.04-1.68,2.32-4.7.63-6.73h0c-1.68-2.02-4.68-2.29-6.7-.62l-38.94,30.73,6.87,8.15,38.14-31.54Z"/><path class="st0" d="M980.57,110.86l38.42-31.34c2.05-1.67,2.34-4.69.67-6.72h0c-1.67-2.03-4.67-2.32-6.7-.65l-38.45,31.36,6.06,7.35Z"/><path class="st0" d="M988.92,109.51l38.25-31.54c2.04-1.68,2.32-4.7.63-6.73h0c-1.68-2.02-4.68-2.29-6.7-.62l-38.28,31.56,6.1,7.32Z"/><path class="st0" d="M1003.47,100.06l10.19,16.19c1.37,2.25,4.3,2.96,6.55,1.59h0c2.25-1.37,2.97-4.3,1.6-6.55l-11.39-19.38-6.95,8.15Z"/><path class="st0" d="M989.23,120.33c-6.07,1.12-7.95-6.91-1.09-9.5,3.4-1.28,20.39-8.46,20.39-8.46l1.93-10.5-37.97,8.84-103.22,77.91,69.07-4.7,35.55-37.83,19.24-5.26-3.9-10.51Z"/><path class="st14" d="M572.89,339.31c-73.37,0-127.7-11.62-139.74-14.43-1.38-.32-2.21-1.71-1.86-3.08h0c.34-1.32,1.67-2.13,3-1.82,15.68,3.66,106.75,23.09,217.82,9.59,71.33-8.68,136.85-29.04,194.72-60.54,71.61-38.97,131.69-95.21,178.59-167.17.76-1.16,2.3-1.5,3.47-.74h0c1.17.76,1.51,2.33.75,3.5-47.38,72.7-108.1,129.51-180.49,168.89-58.46,31.8-124.6,52.35-196.6,61.09-28.12,3.41-54.96,4.73-79.65,4.73Z"/><path class="st0" d="M993.14,130.84l20.14-4.8c2.65-.23,4.79-2.52,4.77-5.1l-.13-.73c-.01-2.53-2.1-4.4-4.7-4.21,0,0-17.99,3.23-23.98,4.33l3.9,10.51Z"/><path class="st7" d="M456.67,334.56h0c1.64-2.94.6-6.66-2.34-8.31l-5.18-1.5-4.32,10.16,3.55,1.99c2.94,1.65,6.65.6,8.3-2.34"/><path class="st7" d="M246.67,233.93l34.32,57.94s5.84,9.47,27.04,15.23c21.2,5.76,122.73,53.45,122.73,53.45l19.72-35.41-46.3-11.84-84.04-46.13-28.57-56.27-44.89,23.03Z"/></svg>