<svg viewBox="0 0 1600 1200" fill="none" xmlns="http://www.w3.org/2000/svg"><path fill-rule="evenodd" clip-rule="evenodd" d="M737.594 378.106L724.555 405.364L741.259 447.562L777.347 398.545L737.594 378.106Z" fill="#FFC6AD"/><path fill-rule="evenodd" clip-rule="evenodd" d="M975.061 278.408L952.263 288.149L969.04 342.261H967.296C962.312 334.017 953.29 328.517 942.971 328.517H941.444C931.841 328.517 923.369 333.289 918.22 340.597L897.145 341.554L902.003 379.915L990.883 378.106C1005.9 377.805 1015.54 362.003 1008.98 348.457L975.072 278.429L975.061 278.408Z" fill="#FFD4C2"/><path fill-rule="evenodd" clip-rule="evenodd" d="M952.262 288.139C948.337 287.078 937.239 278.398 937.239 278.398L921.697 280.487C919.621 280.768 917.71 279.312 917.43 277.223C917.15 275.133 918.603 273.231 920.69 272.95L921.51 273.324C920.243 272.68 919.506 271.411 919.454 270.081C918.323 270.247 917.118 269.914 916.226 269.051C915.437 268.272 915.073 267.232 915.104 266.203C913.89 264.727 913.942 262.533 915.312 261.13L928.995 246.804C930.376 245.359 932.567 245.047 934.29 246.066L966.07 264.8L975.081 278.398L952.262 288.149V288.139Z" fill="#FFD4C2"/><path fill-rule="evenodd" clip-rule="evenodd" d="M946.189 276.474C940.935 274.239 937.717 269.571 937.582 269.374L938.444 268.792C938.444 268.792 941.641 273.407 946.604 275.518L946.199 276.474H946.189Z" fill="#F5B091"/><path fill-rule="evenodd" clip-rule="evenodd" d="M924.934 272.861L930.337 254.882L931.331 255.181L925.928 273.16L924.934 272.861Z" fill="#F5B091"/><path fill-rule="evenodd" clip-rule="evenodd" d="M936.543 277.181C936.439 277.181 936.325 277.181 936.221 277.16L927.77 276.027C926.026 275.778 925.279 274.759 925.019 273.875C923.835 274.426 922.455 274.416 921.261 273.813C919.143 272.742 918.281 270.133 919.361 268.001L927.376 251.544L928.31 252.002L920.295 268.459C919.475 270.081 920.129 272.056 921.738 272.877C922.828 273.428 924.126 273.335 925.133 272.607L926.026 271.962L925.953 273.064C925.953 273.231 925.933 274.717 927.916 274.998L936.367 276.131C936.906 276.204 937.425 275.934 937.675 275.455L939.782 271.536L940.696 272.025L938.599 275.934C938.194 276.703 937.394 277.171 936.543 277.171V277.181Z" fill="#F5B091"/><path fill-rule="evenodd" clip-rule="evenodd" d="M875.217 363.105L783.918 363.884L793.885 261.66C797.155 247.002 810.122 236.585 825.103 236.585H837.281C854.952 236.585 869.268 250.942 869.268 268.657L875.217 363.094V363.105Z" fill="#232144"/><path fill-rule="evenodd" clip-rule="evenodd" d="M944.02 980.505L909.344 880.547L971.054 875.234L988.382 980.505H944.02Z" fill="#FFD4C2"/><path fill-rule="evenodd" clip-rule="evenodd" d="M937.676 1020H1039.99V1004.18H937.676V1020Z" fill="#FF6200"/><path fill-rule="evenodd" clip-rule="evenodd" d="M937.51 1004.18V983.924H997.663L1040 995.422V1004.18H937.51Z" fill="#232144"/><path fill-rule="evenodd" clip-rule="evenodd" d="M941.143 986.274C941.143 982.427 933.865 951.229 933.865 951.229L983.19 950.241L992.274 986.274H941.143Z" fill="#D8CBC5"/><path fill-rule="evenodd" clip-rule="evenodd" d="M937.675 1004.18L936.699 976.845H993.821L1008.97 1004.18H937.675Z" fill="#232144"/><path fill-rule="evenodd" clip-rule="evenodd" d="M971.614 959.868C971.614 957.654 969.818 955.866 967.627 955.866C965.437 955.866 963.641 957.654 963.641 959.868C963.641 959.962 963.661 960.055 963.672 960.138H963.62C963.62 960.045 963.651 959.962 963.651 959.868C963.651 957.654 961.855 955.866 959.664 955.866C957.474 955.866 955.678 957.654 955.678 959.868C955.678 959.962 955.699 960.055 955.709 960.138H955.678C955.678 960.138 955.854 965.888 963.651 971.086C971.469 965.877 971.624 960.138 971.624 960.138H971.593C971.593 960.045 971.614 959.951 971.614 959.868Z" fill="#232144"/><path fill-rule="evenodd" clip-rule="evenodd" d="M776.35 1002.41H820.919V915.716H776.35V1002.41Z" fill="#FFD4C2"/><path fill-rule="evenodd" clip-rule="evenodd" d="M767.515 506.986C700.81 631.697 761.95 933.057 761.95 933.057L822.28 933.182L833.409 590.778L836.503 579.332V506.986C836.503 506.986 768.096 505.915 767.525 506.986H767.515Z" fill="#232144"/><path fill-rule="evenodd" clip-rule="evenodd" d="M903.061 506.986C966.038 612.703 980.23 930.999 980.23 930.999L910.131 932.184L835.516 590.778L832.422 579.332L833.73 506.892C833.73 506.892 901.566 504.491 903.061 506.986Z" fill="#232144"/><path fill-rule="evenodd" clip-rule="evenodd" d="M776.474 951.053L776.359 1011.58H820.929L821.043 951.053H776.474Z" fill="#D8CBC5"/><path fill-rule="evenodd" clip-rule="evenodd" d="M762.832 1020H821.168V1004.18H762.832V1020Z" fill="#FF6200"/><path fill-rule="evenodd" clip-rule="evenodd" d="M762.832 1006.09C762.832 989.934 775.893 976.845 791.995 976.845C808.098 976.845 821.158 989.944 821.158 1006.09" fill="#232144"/><path fill-rule="evenodd" clip-rule="evenodd" d="M772.154 1006.09H821.168V976.845H772.154V1006.09Z" fill="#232144"/><path fill-rule="evenodd" clip-rule="evenodd" d="M766.186 507.017L767.463 340.503H900.082L903.29 507.017H766.186Z" fill="#FF6200"/><path fill-rule="evenodd" clip-rule="evenodd" d="M737.656 375.049C736.328 357.355 749.554 341.928 767.204 340.597C784.853 339.266 800.229 352.521 801.568 370.226C802.897 387.92 781.645 414.378 781.645 414.378C781.645 414.378 738.996 392.743 737.667 375.049H737.656Z" fill="#FF6200"/><path fill-rule="evenodd" clip-rule="evenodd" d="M811.368 340.815V310.885L857.37 310.958V340.815C857.37 353.551 847.071 363.884 834.364 363.884C821.656 363.884 811.357 353.561 811.357 340.815H811.368Z" fill="#FFC6AD"/><path fill-rule="evenodd" clip-rule="evenodd" d="M853.582 346.949H865.885V274.832H853.582V346.949Z" fill="#232144"/><path fill-rule="evenodd" clip-rule="evenodd" d="M811.782 273.033H792.991L784.852 346.949L811.782 346.855V273.033Z" fill="#232144"/><path fill-rule="evenodd" clip-rule="evenodd" d="M828.478 238.851H840.272C853.856 238.851 864.867 249.877 864.867 263.479V306.57C864.867 320.173 853.856 331.199 840.272 331.199H828.478C814.894 331.199 803.883 320.173 803.883 306.57V263.479C803.883 249.877 814.894 238.851 828.478 238.851Z" fill="#FFD4C2"/><path fill-rule="evenodd" clip-rule="evenodd" d="M865.936 283.024C871.079 283.024 875.248 287.203 875.248 292.36C875.248 297.516 871.079 301.695 865.936 301.695C860.792 301.695 856.623 297.516 856.623 292.36C856.623 287.203 860.792 283.024 865.936 283.024Z" fill="#FFD4C2"/><path fill-rule="evenodd" clip-rule="evenodd" d="M802.762 282.992C807.905 282.992 812.074 287.172 812.074 292.328C812.074 297.484 807.905 301.663 802.762 301.663C797.619 301.663 793.449 297.484 793.449 292.328C793.449 287.172 797.619 282.992 802.762 282.992Z" fill="#FFD4C2"/><path fill-rule="evenodd" clip-rule="evenodd" d="M834.302 303.93C833.96 303.93 833.607 303.889 833.233 303.816C832.195 303.608 831.209 303.067 830.295 302.225C829.786 301.747 829.278 301.55 828.738 301.591C827.679 301.685 826.859 302.745 826.848 302.755L826.018 302.132C826.059 302.069 827.118 300.697 828.644 300.562C829.475 300.489 830.274 300.791 831.001 301.466C831.769 302.184 832.589 302.631 833.441 302.797C834.313 302.974 835.081 302.891 835.745 302.548C836.026 302.402 836.306 302.184 836.566 301.903C836.877 301.56 837.76 300.739 839.026 300.697C840.044 300.655 841.071 301.123 842.068 302.069L841.352 302.828C840.563 302.08 839.784 301.716 839.057 301.747C838.185 301.778 837.552 302.371 837.313 302.62C836.96 302.995 836.597 303.286 836.213 303.483C835.631 303.785 834.988 303.941 834.292 303.941L834.302 303.93Z" fill="#171111"/><path fill-rule="evenodd" clip-rule="evenodd" d="M849.189 275.653H849.532C853.103 275.674 856.456 277.462 858.585 280.477L840.084 280.394C842.254 277.389 845.618 275.632 849.189 275.653Z" fill="#232144"/><path fill-rule="evenodd" clip-rule="evenodd" d="M841.174 291.31C841.174 291.31 843.458 285.436 847.725 283.949C851.992 282.463 856.997 285.373 856.997 285.373C856.997 285.373 854.931 289.823 850.653 291.31C846.386 292.796 841.164 291.31 841.164 291.31H841.174Z" fill="white"/><path fill-rule="evenodd" clip-rule="evenodd" d="M848.878 284.209C850.919 284.209 852.574 285.87 852.574 287.92C852.574 289.97 850.919 291.632 848.878 291.632C846.837 291.632 845.182 289.97 845.182 287.92C845.182 285.87 846.837 284.209 848.878 284.209Z" fill="black"/><path fill-rule="evenodd" clip-rule="evenodd" d="M841.174 291.309C842.389 281.485 854.899 280.726 858.024 283.845C857.661 284.427 857.36 284.78 856.997 285.363C855.688 284.573 845.182 281.048 841.164 291.299L841.174 291.309Z" fill="black"/><path fill-rule="evenodd" clip-rule="evenodd" d="M821.033 270.164L820.711 270.06C817.316 268.968 813.568 269.634 810.609 271.838L828.228 277.493C827.086 273.969 824.428 271.255 821.033 270.164Z" fill="#232144"/><path fill-rule="evenodd" clip-rule="evenodd" d="M826.328 291.31C826.328 291.31 824.044 285.436 819.777 283.949C815.51 282.463 810.506 285.373 810.506 285.373C810.506 285.373 812.572 289.823 816.849 291.31C821.116 292.796 826.338 291.31 826.338 291.31H826.328Z" fill="white"/><path fill-rule="evenodd" clip-rule="evenodd" d="M818.614 284.209C820.655 284.209 822.31 285.87 822.31 287.92C822.31 289.97 820.655 291.632 818.614 291.632C816.573 291.632 814.918 289.97 814.918 287.92C814.918 285.87 816.573 284.209 818.614 284.209Z" fill="black"/><path fill-rule="evenodd" clip-rule="evenodd" d="M826.329 291.309C825.114 281.485 812.603 280.726 809.479 283.845C809.842 284.427 810.143 284.78 810.506 285.363C811.814 284.573 822.321 281.048 826.339 291.299L826.329 291.309Z" fill="black"/><path fill-rule="evenodd" clip-rule="evenodd" d="M803.903 291.32V278.689C803.903 265.081 814.773 254.04 828.197 254.04H831.54V246.42L835.838 254.04H839.887C853.3 254.04 864.181 265.07 864.181 278.689V291.32H868.946V263.292C868.946 248.54 857.017 236.585 842.316 236.585H825.788C811.077 236.585 799.158 248.54 799.158 263.292V291.32H803.924H803.903Z" fill="#232144"/><path fill-rule="evenodd" clip-rule="evenodd" d="M842.389 311.217C841.61 309.221 838.661 310.687 838.661 310.687L831.768 313.39C831.685 312.974 847.289 324.42 851.67 305.604L844.777 308.306C844.777 308.306 841.62 309.232 842.399 311.228L842.389 311.217Z" fill="#E73245"/><path fill-rule="evenodd" clip-rule="evenodd" d="M817.119 249.975C817.451 249.413 810.714 249.455 805.014 249.59C800.716 249.694 797.248 253.146 797.113 257.46L794.352 346.949H818.583C811.264 310.709 794.424 278.003 817.119 249.975Z" fill="#232144"/><path fill-rule="evenodd" clip-rule="evenodd" d="M812.873 246.149H857.744C863.018 246.149 867.295 250.432 867.295 255.713V274.946H841.61C825.747 274.946 812.873 262.055 812.873 246.17V246.149Z" fill="#232144"/><path fill-rule="evenodd" clip-rule="evenodd" d="M865.22 258.177H863.32V346.866H875.218L869.041 261.733C868.895 259.726 867.234 258.177 865.231 258.177H865.22Z" fill="#232144"/><path fill-rule="evenodd" clip-rule="evenodd" d="M917.451 397.567L897.123 418.255L896.926 340.514H917.451V397.567Z" fill="#FF6200"/><path fill-rule="evenodd" clip-rule="evenodd" d="M784.842 959.64C784.842 957.29 782.942 955.388 780.596 955.388C778.249 955.388 776.35 957.29 776.35 959.64V971.564C784.666 966.023 784.842 959.92 784.842 959.92H784.811C784.811 959.827 784.842 959.733 784.842 959.64Z" fill="#232144"/><path fill-rule="evenodd" clip-rule="evenodd" d="M769.073 413.068L731.791 381.214L739.422 361.815L771.751 378.543L769.073 413.068Z" fill="#FF6200"/><path fill-rule="evenodd" clip-rule="evenodd" d="M701.091 325.544L680.213 332.748L673.174 304.648L691.083 290.592L693.637 290.499C693.637 290.499 694.322 296.799 694.488 299.065C694.561 299.813 694.581 300.479 694.654 301.518C694.737 302.818 695.775 303.837 697.063 303.805C698.35 303.774 698.911 302.236 698.869 300.936C698.869 300.884 699.326 301.279 699.326 301.227C699.451 301.03 699.586 300.822 699.71 300.593C703.24 294.501 708.338 300.947 708.338 300.947L701.091 325.544Z" fill="#FFD4C2"/><path fill-rule="evenodd" clip-rule="evenodd" d="M581.656 199.554L672.083 180.581C686.784 177.504 701.194 186.954 704.267 201.685L718.646 270.652C721.72 285.394 712.293 299.844 697.592 302.932L629.507 317.216L606.075 348.228L600.697 322.466C588.446 322.082 577.586 313.359 574.96 300.801L560.581 231.834C557.508 217.092 566.935 202.631 581.646 199.554H581.656Z" fill="#FF6200"/><path fill-rule="evenodd" clip-rule="evenodd" d="M621.565 212.278L655.992 205.063L643.876 246.305L658.857 243.155L625.417 307.735L632.799 258.052L615.793 261.618L621.565 212.278Z" fill="white"/><path fill-rule="evenodd" clip-rule="evenodd" d="M709.074 300.105L704.693 282.764C704.039 280.259 701.464 278.73 698.952 279.396C696.45 280.051 694.934 282.639 695.588 285.155L699.325 299.512C699.388 299.772 699.502 300.021 699.606 300.26C699.595 301.529 699.045 302.943 697.799 302.974L680.949 331.927L709.074 300.115V300.105Z" fill="#FFD4C2"/><path fill-rule="evenodd" clip-rule="evenodd" d="M679.963 331.74L703.976 437.312C704.163 438.549 704.454 439.755 704.838 440.919L704.88 441.127H704.9C707.787 449.392 715.625 455.338 724.875 455.338C736.576 455.338 746.055 445.836 746.055 434.099C746.055 432.904 745.94 431.739 745.743 430.596L745.587 429.608L745.255 428.381C744.933 427.207 744.497 426.084 743.989 425.003L701.817 324.702L709.074 300.094" fill="#FFD4C2"/></svg>