<svg viewBox="0 0 1600 1200" fill="none" xmlns="http://www.w3.org/2000/svg"><path fill-rule="evenodd" clip-rule="evenodd" d="M914.409 843.185L926.457 838.087C933.009 835.315 936.075 827.756 933.301 821.203L911.765 770.312L875.902 785.251L897.524 836.341C900.297 842.892 907.858 845.956 914.409 843.185Z" fill="#CC8874"/><path fill-rule="evenodd" clip-rule="evenodd" d="M934.323 764.138L879.726 751.809C879.726 751.809 869.478 791.412 867.403 800.602C866.167 806.077 869.602 811.517 875.077 812.753C890.817 816.308 919.761 822.844 919.761 822.844L926.846 791.479L934.323 764.138Z" fill="#CC8874"/><path fill-rule="evenodd" clip-rule="evenodd" d="M875.194 790.728L879.931 770.527C879.931 770.527 871.796 776.816 866.709 780.748C865.824 781.432 865.344 782.514 865.43 783.628C865.516 784.743 866.156 785.739 867.135 786.279C870.725 788.261 875.194 790.728 875.194 790.728Z" fill="#CC8874"/><path fill-rule="evenodd" clip-rule="evenodd" d="M885.075 742.788L884.229 746.533C882.861 752.593 886.664 758.62 892.728 759.989L900.625 761.787L897.018 777.757L887.305 794.947L898.913 797.569L902.227 782.964L924.413 814.384C924.413 814.384 932.725 794.044 939.863 776.564C942.379 770.409 942.055 763.46 938.982 757.565C935.912 751.673 930.398 747.428 923.913 745.964L891.619 738.655C888.672 737.99 885.742 739.836 885.075 742.788Z" fill="#232144"/><path fill-rule="evenodd" clip-rule="evenodd" d="M897.682 786.544C896.772 790.573 899.301 794.577 903.331 795.486C907.36 796.397 911.365 793.869 912.274 789.839C913.184 785.81 910.656 781.806 906.627 780.897C902.597 779.986 898.592 782.514 897.682 786.544Z" fill="#CC8874"/><path fill-rule="evenodd" clip-rule="evenodd" d="M877.336 779.597C873.992 778.666 875.56 773.041 878.904 773.973C882.248 774.904 884.607 776.918 884.174 778.471C883.742 780.026 880.68 780.529 877.336 779.597Z" fill="white"/><path d="M878.68 773.92C879.389 774.809 879.466 776.268 878.777 777.575C878.308 778.465 877.582 779.103 876.808 779.394C874.391 778.151 875.525 773.869 878.173 773.869C878.337 773.869 878.506 773.886 878.68 773.92Z" fill="#1D1D1B"/><path fill-rule="evenodd" clip-rule="evenodd" d="M873.407 796.111C871.97 797.121 870.087 797.447 868.168 797.025L867.827 798.538C870.172 799.057 872.502 798.646 874.299 797.382L873.407 796.111Z" fill="#1D1D1B"/><path fill-rule="evenodd" clip-rule="evenodd" d="M875.238 765.632L874.232 768.319L888.337 773.594C888.337 773.594 888.814 772.321 889.307 770.998C889.6 770.219 889.477 769.319 888.974 768.501C888.465 767.682 887.61 767.011 886.6 766.634L879.991 764.163C877.955 763.401 875.826 764.059 875.238 765.632Z" fill="#232144"/><path fill-rule="evenodd" clip-rule="evenodd" d="M870.318 787.949L878.826 789.911C882.483 790.754 882.996 792.185 882.641 793.722L882.29 795.247C882.111 796.023 881.337 796.506 880.563 796.327L869.067 793.677L870.318 787.949Z" fill="#232144"/><path fill-rule="evenodd" clip-rule="evenodd" d="M866.996 801.469L876.954 803.75C878.502 804.107 878.175 807.332 877.281 811.211L875.578 818.598L867.471 816.729C865.569 816.291 864.363 814.417 864.752 812.504L866.996 801.469Z" fill="#232144"/><path fill-rule="evenodd" clip-rule="evenodd" d="M874.877 818.436L872.735 817.942L879.173 790.023L881.315 790.517C883.253 790.964 884.462 792.897 884.015 794.835L879.195 815.737C878.748 817.674 876.815 818.883 874.877 818.436Z" fill="#232144"/><path fill-rule="evenodd" clip-rule="evenodd" d="M892.949 738.948L885.705 737.278C881.907 736.402 878.117 738.771 877.242 742.568L874.157 755.944L877.059 756.612C883.255 758.041 889.437 754.177 890.865 747.982L892.949 738.948Z" fill="#232144"/><path fill-rule="evenodd" clip-rule="evenodd" d="M857.116 836.234L838.097 833.453L839.948 857.825L858.894 854.056L857.116 836.234Z" fill="#CC8874"/><path fill-rule="evenodd" clip-rule="evenodd" d="M827.909 838.696L849.909 843.179L851.299 835.777L829.412 831.317C827.352 830.897 825.348 832.245 824.959 834.312C824.579 836.333 825.893 838.285 827.909 838.696Z" fill="#CC8874"/><path fill-rule="evenodd" clip-rule="evenodd" d="M812.602 828.77C810.745 829.708 810 831.972 810.937 833.829L818.429 848.666L825.153 845.273L817.661 830.435C816.725 828.578 814.459 827.833 812.602 828.77Z" fill="#CC8874"/><path fill-rule="evenodd" clip-rule="evenodd" d="M816.892 828.665L816.163 829.181C814.668 830.242 814.314 832.314 815.375 833.809L825.248 847.732L831.393 843.376L821.52 829.453C820.459 827.957 818.387 827.604 816.892 828.665Z" fill="#CC8874"/><path fill-rule="evenodd" clip-rule="evenodd" d="M839.948 857.813L842.889 850.878L821.342 841.74L818.4 848.673L839.948 857.813Z" fill="#CC8874"/><path fill-rule="evenodd" clip-rule="evenodd" d="M841.47 854.558L844.79 847.797L823.78 837.482L820.46 844.243L841.47 854.558Z" fill="#CC8874"/><path fill-rule="evenodd" clip-rule="evenodd" d="M820.36 830.871C819.067 832.5 819.338 834.869 820.967 836.162L833.986 846.499L838.67 840.6L825.651 830.264C824.023 828.971 821.653 829.242 820.36 830.871Z" fill="#CC8874"/><path fill-rule="evenodd" clip-rule="evenodd" d="M851.057 853.838L853.991 846.9L832.435 837.785L829.5 844.721L851.057 853.838Z" fill="#CC8874"/><path fill-rule="evenodd" clip-rule="evenodd" d="M910.873 878.97L857.116 836.236L851.057 853.838L897.037 903.437L910.873 878.97Z" fill="#CC8874"/><path fill-rule="evenodd" clip-rule="evenodd" d="M827.909 838.696L849.909 843.179L851.299 835.777L829.412 831.317C827.352 830.897 825.348 832.245 824.959 834.312C824.579 836.333 825.893 838.285 827.909 838.696Z" fill="#CC8874"/><path fill-rule="evenodd" clip-rule="evenodd" d="M619.455 708.313C619.455 708.313 683.358 599.731 684.023 583.605L708.061 571.391L661.218 711.084L628.904 718.575L619.455 708.313Z" fill="#FFC4B8"/><path fill-rule="evenodd" clip-rule="evenodd" d="M635.788 679.083L646.964 660.086L670.752 683.233L662.296 707.849L631.109 671.983" fill="#F7931E"/><path fill-rule="evenodd" clip-rule="evenodd" d="M485.557 321.459L507.392 382.815L541.359 365.572L506.18 297.908H434L485.557 321.459Z" fill="#FFC4B8"/><path fill-rule="evenodd" clip-rule="evenodd" d="M434 297.907H506.179V286.99H434V297.907Z" fill="#5C1C13"/><path fill-rule="evenodd" clip-rule="evenodd" d="M671.101 283.9L723.217 333.833L715.942 341.424L663.826 291.492L671.101 283.9Z" fill="#5C1C13"/><path fill-rule="evenodd" clip-rule="evenodd" d="M697.242 365.571L711.372 348.122C714.194 344.636 713.881 339.572 710.652 336.462L664.961 292.449L679.925 331.708C681.163 334.956 680.64 338.612 678.542 341.382L669.692 353.072L690.661 371.959L697.242 365.571Z" fill="#FFC4B8"/><path fill-rule="evenodd" clip-rule="evenodd" d="M658.423 334.297L697.242 365.572C697.242 365.572 702.397 407.377 671.161 438.611C671.161 438.611 640.118 467.624 649.574 514.371C649.574 514.371 670.415 609.885 643.27 644.892L574.237 458.749L658.423 334.297Z" fill="#463EC5"/><path fill-rule="evenodd" clip-rule="evenodd" d="M671.579 746.931C677.374 753.534 687.424 754.189 694.028 748.394L709.744 734.603L685.199 713.004L686.237 709.492C667.546 718.166 661.895 714.729 656.462 711.089C649.859 716.883 665.783 740.329 671.579 746.931Z" fill="#FFC2B2"/><path fill-rule="evenodd" clip-rule="evenodd" d="M751.828 719.594C758.808 712.596 757.695 701.931 750.665 694.921L742.857 685.965C735.827 678.954 722.791 677.151 715.814 684.15L694.577 702.392C689.844 706.546 675.708 714.987 686.8 727.625L700.723 743.502C707.208 750.89 714.085 753.789 720.784 748.176C723.064 746.264 729.564 740.993 729.564 740.993L731.64 742.11C735.988 745.271 736.996 735.653 736.996 735.653C737.581 733.573 738.018 732.125 737.967 731.982L751.828 719.594Z" fill="#FFC2B2"/><path fill-rule="evenodd" clip-rule="evenodd" d="M737.479 727.869C737.479 727.869 737.347 730.962 734.791 732.629C734.791 732.629 730.673 731.111 730.281 725.328C730.281 725.328 734.903 726.068 737.479 727.869Z" fill="white"/><path d="M737.404 728.583C737.231 729.582 736.662 731.41 734.791 732.629C734.791 732.629 734.438 732.503 733.922 732.182C733.1 731.441 732.842 730.214 733.37 729.181C734 727.949 735.508 727.462 736.74 728.092C736.994 728.222 737.217 728.389 737.404 728.583Z" fill="#120E0E"/><path fill-rule="evenodd" clip-rule="evenodd" d="M737.826 729.139L738.225 728.34C738.225 728.34 734.943 724.447 730.129 724.016L730.329 725.859C730.329 725.859 735.551 726.504 737.826 729.139Z" fill="#120E0E"/><path fill-rule="evenodd" clip-rule="evenodd" d="M731.067 720.997C733.677 719.701 738.591 720.746 741.077 722.066C741.077 722.066 746.418 724.628 743.969 727.929L731.067 720.997Z" fill="#420F0F"/><path fill-rule="evenodd" clip-rule="evenodd" d="M763.436 698.272C760.784 695.25 757.08 693.713 753.363 693.707L730.692 673.018C725.347 666.928 716.552 665.901 711.087 670.601L711.081 670.595L711.071 670.613C711.045 670.635 711.017 670.652 710.992 670.674L685.758 709.731C688.312 713.882 700.765 726.653 713.457 717.394L717.044 708.538L722.087 708.444L722.151 708.449C728.935 715.071 735.891 715.212 741.602 713.239C742.086 714.16 742.673 715.045 743.39 715.862C748.274 721.426 756.72 721.999 762.256 717.142C767.791 712.284 768.32 703.836 763.436 698.272Z" fill="#420F0F"/><path fill-rule="evenodd" clip-rule="evenodd" d="M722.804 711.449C722.804 715.12 719.828 718.095 716.157 718.095C712.486 718.095 709.511 715.12 709.511 711.449C709.511 707.778 712.486 704.803 716.157 704.803C719.828 704.803 722.804 707.778 722.804 711.449Z" fill="#FFC2B2"/><path fill-rule="evenodd" clip-rule="evenodd" d="M498.901 375.535L568.047 336.935C568.047 336.935 585.031 334.758 591.096 405.787C591.096 405.787 592.917 467.428 614.752 496.988C614.752 496.988 664.489 576.976 645.079 639.095L640.227 654.64L578.114 655.737C578.114 655.737 566.493 633.35 552.884 563.908L498.901 375.535Z" fill="#848AFF"/><path fill-rule="evenodd" clip-rule="evenodd" d="M622.386 714.021L715.435 791.594L783.926 829.666L782.249 805.961L769.318 798.298L733.397 772.917L694.362 731.492L622.386 714.021Z" fill="#FFC4B8"/><path fill-rule="evenodd" clip-rule="evenodd" d="M678.654 715.797C645.925 688.301 640.226 654.641 640.226 654.641L573.843 684.349C573.843 684.349 603.537 740.859 643.802 732.096" fill="#FAA332"/><path fill-rule="evenodd" clip-rule="evenodd" d="M637.783 725.534C656.851 705.535 668.266 710.475 678.654 715.796L695.337 731.6L656.702 745.169L637.783 725.534Z" fill="#FAA332"/><path fill-rule="evenodd" clip-rule="evenodd" d="M544.102 350.685C539.223 350.685 532.538 346.835 524.721 342.332C512.822 335.479 498.015 326.951 485.99 330.92C485.235 331.169 484.421 330.759 484.17 330.004C483.922 329.249 484.331 328.434 485.087 328.184C498.34 323.811 513.763 332.696 526.159 339.836C535.86 345.423 544.236 350.25 547.233 346.322C547.715 345.69 548.619 345.568 549.251 346.05C549.884 346.531 550.006 347.436 549.523 348.068C548.121 349.909 546.293 350.685 544.102 350.685Z" fill="#F80066"/><path fill-rule="evenodd" clip-rule="evenodd" d="M819.255 810.695L811.069 814.158L806.094 802.404C805.137 800.143 806.195 797.535 808.455 796.579C810.715 795.623 813.324 796.68 814.28 798.94L819.255 810.695Z" fill="#FFC2B2"/><path fill-rule="evenodd" clip-rule="evenodd" d="M783.926 829.666L788.955 811.947L818.559 821.864L815.846 827.209C814.993 828.892 813.043 829.92 810.476 830.044L783.926 829.666Z" fill="#FFC4B8"/><path fill-rule="evenodd" clip-rule="evenodd" d="M807.72 804.449L801.596 816.392L785.791 808.289L787.333 805.281C787.818 804.335 789.053 803.827 790.734 803.883L807.72 804.449Z" fill="#FFC2B2"/><path fill-rule="evenodd" clip-rule="evenodd" d="M805.509 803.125L816.852 808.939C820.57 810.846 822.039 815.405 820.132 819.122L818.611 822.09L800.536 812.824L805.509 803.125Z" fill="#CD5544"/><path fill-rule="evenodd" clip-rule="evenodd" d="M790.304 819.939L770.895 810.09L771.473 808.951C774.53 802.93 781.888 800.527 787.909 803.582L796.415 807.898L790.304 819.939Z" fill="#FFC4B8"/><path fill-rule="evenodd" clip-rule="evenodd" d="M829.529 839.013L797.315 822.543C796.343 822.046 795.959 820.857 796.455 819.885L806.225 800.782C806.722 799.81 807.911 799.425 808.883 799.922L841.097 816.393C842.068 816.89 842.454 818.08 841.957 819.051L832.188 838.154C831.691 839.126 830.5 839.51 829.529 839.013Z" fill="#FF6200"/><path fill-rule="evenodd" clip-rule="evenodd" d="M831.24 829.957L829.78 832.814C829.646 833.076 829.324 833.18 829.063 833.046L824.659 830.793C824.397 830.66 824.293 830.338 824.427 830.076L825.887 827.22C826.022 826.958 826.343 826.855 826.605 826.988L831.008 829.241C831.27 829.374 831.374 829.695 831.24 829.957Z" fill="#F2F2F2"/><path fill-rule="evenodd" clip-rule="evenodd" d="M824.814 829.079L824.741 829.22L827.443 830.605L826.749 831.96L826.89 832.033L827.585 830.678L830.286 832.063L830.359 831.921L827.657 830.537L828.162 829.551L830.863 830.937L830.936 830.795L828.234 829.411L828.929 828.056L828.788 827.983L828.093 829.338L825.391 827.953L825.319 828.093L828.021 829.479L827.516 830.464L824.814 829.079Z" fill="#FF6200"/><path fill-rule="evenodd" clip-rule="evenodd" d="M829.132 828.869L827.763 831.546L826.636 830.97L828.005 828.293L829.132 828.869Z" fill="#F2F2F2"/><path fill-rule="evenodd" clip-rule="evenodd" d="M827.734 831.456L829.042 828.899L828.035 828.384L826.727 830.941L827.734 831.456ZM829.223 828.84L827.792 831.637L826.546 831L827.976 828.203L829.223 828.84Z" fill="#FF6200"/><path fill-rule="evenodd" clip-rule="evenodd" d="M823.715 826.772C823.739 826.847 823.697 826.927 823.623 826.951C823.024 827.143 822.695 827.786 822.888 828.385C822.912 828.459 822.871 828.539 822.797 828.563C822.722 828.587 822.642 828.546 822.618 828.472C822.377 827.724 822.788 826.921 823.536 826.681C823.611 826.657 823.691 826.698 823.715 826.772Z" fill="#F2F2F2"/><path fill-rule="evenodd" clip-rule="evenodd" d="M823.293 826.274C823.317 826.349 823.276 826.429 823.201 826.453C822.415 826.705 821.983 827.548 822.236 828.335C822.26 828.409 822.219 828.489 822.145 828.513C822.07 828.537 821.99 828.496 821.966 828.422C821.665 827.486 822.179 826.483 823.114 826.183C823.189 826.159 823.269 826.2 823.293 826.274Z" fill="#F2F2F2"/><path fill-rule="evenodd" clip-rule="evenodd" d="M822.874 825.772C822.898 825.847 822.857 825.927 822.782 825.951C821.806 826.266 821.269 827.313 821.583 828.289C821.607 828.364 821.567 828.444 821.492 828.468C821.417 828.492 821.337 828.451 821.313 828.376C820.95 827.25 821.569 826.044 822.695 825.681C822.77 825.657 822.85 825.698 822.874 825.772Z" fill="#F2F2F2"/><path fill-rule="evenodd" clip-rule="evenodd" d="M822.373 825.37C822.397 825.444 822.356 825.524 822.282 825.548C821.21 825.895 820.62 827.043 820.966 828.116C820.99 828.19 820.949 828.27 820.874 828.294C820.799 828.318 820.719 828.277 820.695 828.202C820.302 826.981 820.973 825.673 822.195 825.278C822.269 825.254 822.349 825.295 822.373 825.37Z" fill="#F2F2F2"/><path fill-rule="evenodd" clip-rule="evenodd" d="M786.941 812.918L790.996 805.01L810.771 815.146C812.954 816.266 813.817 818.944 812.698 821.128C811.578 823.312 808.899 824.175 806.715 823.055L786.941 812.918Z" fill="#FFC4B8"/><path fill-rule="evenodd" clip-rule="evenodd" d="M487.68 295.766L451.465 306.756L434.001 297.907L487.68 295.766Z" fill="#5C1C13"/><path fill-rule="evenodd" clip-rule="evenodd" d="M704.869 326.886L670.933 309.912L663.825 291.506L704.869 326.886Z" fill="#5C1C13"/><path fill-rule="evenodd" clip-rule="evenodd" d="M706.468 356.339C705.513 356.339 704.638 355.699 704.381 354.731L695.472 321.133C695.165 319.979 695.853 318.797 697.006 318.492C698.16 318.183 699.342 318.872 699.647 320.025L708.558 353.624C708.864 354.777 708.176 355.96 707.023 356.266C706.837 356.315 706.651 356.339 706.468 356.339Z" fill="#5C1C13"/><path fill-rule="evenodd" clip-rule="evenodd" d="M512.915 310.475C512.655 310.475 512.392 310.429 512.135 310.329L479.717 297.781C478.604 297.35 478.051 296.099 478.482 294.986C478.912 293.873 480.164 293.321 481.276 293.752L513.695 306.299C514.809 306.731 515.362 307.982 514.93 309.094C514.6 309.95 513.781 310.475 512.915 310.475Z" fill="#5C1C13"/><path fill-rule="evenodd" clip-rule="evenodd" d="M697.945 542.588L703.788 548.675L690.636 561.296C688.955 562.908 686.285 562.854 684.671 561.173C683.058 559.492 683.113 556.822 684.794 555.209L697.945 542.588Z" fill="#FFC2B2"/><path fill-rule="evenodd" clip-rule="evenodd" d="M696.321 549.648L702.625 555.256L690.508 568.874C688.959 570.614 686.293 570.769 684.552 569.221C682.812 567.672 682.656 565.007 684.204 563.266L696.321 549.648Z" fill="#FFC2B2"/><path fill-rule="evenodd" clip-rule="evenodd" d="M705.449 547.253L705.74 549.926L687.618 551.897C685.301 552.149 683.22 550.476 682.968 548.16C682.715 545.844 684.389 543.762 686.706 543.511L699.113 542.161C702.269 541.817 705.106 544.098 705.449 547.253Z" fill="#FFC4B8"/><path fill-rule="evenodd" clip-rule="evenodd" d="M708.06 571.391L690.155 565.23L698.519 542.199L703.127 543.964C704.577 544.521 705.529 546.178 705.748 548.531L708.06 571.391Z" fill="#FFC4B8"/><path fill-rule="evenodd" clip-rule="evenodd" d="M708.06 571.389L691.567 617.894L673.226 611.39L693.484 566.221L708.06 571.389Z" fill="#FFC4B8"/><path fill-rule="evenodd" clip-rule="evenodd" d="M695.625 561.337C694.306 560.854 693.628 559.392 694.112 558.073L701.067 539.107L705.844 540.859L698.89 559.825C698.406 561.144 696.944 561.821 695.625 561.337Z" fill="#F3BA8F"/><path fill-rule="evenodd" clip-rule="evenodd" d="M723.502 510.852C722.911 511.035 722.261 511.042 721.636 510.813C720.117 510.256 719.338 508.574 719.894 507.055C719.998 506.773 720.151 506.526 720.324 506.299C719.968 505.572 719.892 504.711 720.191 503.891C720.161 503.88 720.132 503.864 720.1 503.853L714.116 501.659C710.1 500.186 705.649 502.248 704.176 506.265L693.724 534.765C693.118 536.417 693.968 538.246 695.619 538.852L710.168 544.187C711.819 544.792 713.65 543.944 714.255 542.292L724.707 513.792C724.874 513.337 724.989 512.878 725.066 512.417C724.334 512.11 723.789 511.539 723.502 510.852Z" fill="#FBB03B"/><path fill-rule="evenodd" clip-rule="evenodd" d="M709.55 508.693C709.408 508.423 709.513 508.088 709.783 507.946L713.181 506.167C713.451 506.025 713.785 506.129 713.927 506.4C714.069 506.67 713.965 507.005 713.693 507.146L710.296 508.926C710.026 509.068 709.692 508.963 709.55 508.693Z" fill="#FF6200"/><path fill-rule="evenodd" clip-rule="evenodd" d="M703.887 529.214C704.17 529.1 704.492 529.236 704.606 529.52L706.044 533.075C706.159 533.359 706.022 533.681 705.739 533.796C705.456 533.91 705.133 533.773 705.019 533.49L703.581 529.934C703.467 529.651 703.604 529.329 703.887 529.214Z" fill="#E40066"/><path fill-rule="evenodd" clip-rule="evenodd" d="M702.375 523.392C702.232 523.122 702.337 522.787 702.608 522.646L706.005 520.866C706.275 520.724 706.61 520.828 706.751 521.099C706.893 521.369 706.789 521.704 706.517 521.845L703.121 523.625C702.851 523.766 702.516 523.662 702.375 523.392Z" fill="#0C5825"/><path fill-rule="evenodd" clip-rule="evenodd" d="M706.804 525.845C707.015 525.624 707.365 525.616 707.586 525.827L710.358 528.477C710.579 528.688 710.587 529.038 710.376 529.259C710.165 529.479 709.815 529.487 709.595 529.276L706.822 526.626C706.601 526.415 706.593 526.065 706.804 525.845Z" fill="#3B62FC"/><path fill-rule="evenodd" clip-rule="evenodd" d="M714.511 512.44C714.731 512.651 714.74 513.002 714.529 513.222L711.879 515.995C711.668 516.215 711.317 516.222 711.097 516.012C710.877 515.801 710.868 515.451 711.079 515.23L713.729 512.458C713.94 512.237 714.291 512.229 714.511 512.44Z" fill="#1A1834"/><path fill-rule="evenodd" clip-rule="evenodd" d="M716.669 513.7C716.88 513.479 717.229 513.472 717.45 513.683L720.222 516.333C720.444 516.544 720.452 516.894 720.241 517.115C720.03 517.335 719.679 517.343 719.459 517.132L716.686 514.482C716.466 514.271 716.458 513.921 716.669 513.7Z" fill="#0C5825"/><path fill-rule="evenodd" clip-rule="evenodd" d="M713.901 526.391C714.203 526.339 714.489 526.54 714.541 526.841L715.198 530.62C715.25 530.921 715.049 531.206 714.748 531.259C714.447 531.311 714.161 531.11 714.108 530.809L713.452 527.03C713.399 526.73 713.601 526.444 713.901 526.391Z" fill="#0C5825"/><path fill-rule="evenodd" clip-rule="evenodd" d="M703.952 512.116C704.163 511.896 704.513 511.887 704.734 512.098L707.507 514.748C707.727 514.959 707.736 515.31 707.524 515.53C707.313 515.751 706.963 515.759 706.743 515.548L703.97 512.898C703.75 512.687 703.741 512.336 703.952 512.116Z" fill="#E40066"/><path fill-rule="evenodd" clip-rule="evenodd" d="M711.736 523.604C711.432 523.576 711.208 523.307 711.236 523.004L711.587 519.184C711.615 518.881 711.884 518.656 712.188 518.684C712.493 518.712 712.716 518.981 712.688 519.285L712.337 523.104C712.309 523.409 712.039 523.633 711.736 523.604Z" fill="#FF6200"/><path fill-rule="evenodd" clip-rule="evenodd" d="M717.629 510.569C717.326 510.541 717.101 510.272 717.129 509.968L717.481 506.149C717.509 505.845 717.778 505.621 718.082 505.649C718.386 505.677 718.61 505.946 718.582 506.25L718.23 510.069C718.202 510.374 717.933 510.597 717.629 510.569Z" fill="#E40066"/><path fill-rule="evenodd" clip-rule="evenodd" d="M699.209 533.468C698.905 533.44 698.681 533.17 698.709 532.867L699.06 529.047C699.088 528.743 699.358 528.519 699.662 528.547C699.966 528.575 700.189 528.845 700.161 529.149L699.811 532.968C699.782 533.272 699.514 533.496 699.209 533.468Z" fill="#FF6200"/><path fill-rule="evenodd" clip-rule="evenodd" d="M716.057 525.057C715.836 524.846 715.828 524.496 716.039 524.275L718.689 521.503C718.9 521.282 719.25 521.274 719.471 521.485C719.692 521.696 719.699 522.046 719.488 522.267L716.838 525.04C716.627 525.26 716.277 525.268 716.057 525.057Z" fill="#3B62FC"/><path fill-rule="evenodd" clip-rule="evenodd" d="M710.049 535.662C709.908 535.391 710.012 535.057 710.282 534.915L713.68 533.135C713.95 532.994 714.285 533.098 714.426 533.368C714.568 533.64 714.464 533.973 714.193 534.115L710.796 535.895C710.526 536.037 710.191 535.932 710.049 535.662Z" fill="#1A1834"/><path fill-rule="evenodd" clip-rule="evenodd" d="M686.694 588.006C682.828 583.459 681.771 577.156 683.942 571.596L692.379 549.991C693.225 547.822 695.668 546.747 697.839 547.59C700.014 548.433 701.094 550.879 700.25 553.054L686.694 588.006Z" fill="#FFC4B8"/><path fill-rule="evenodd" clip-rule="evenodd" d="M722.782 749.758C722.549 747.793 725.366 747.014 724.993 745.252C724.655 743.654 723.651 744.329 723.352 742.914C723.073 741.597 724.017 741.313 723.762 739.773C723.533 738.392 720.722 738.655 720.034 736.952C719.985 736.831 717.327 740.681 718.004 743.879C718.681 747.077 722.823 750.111 722.782 749.758Z" fill="#FA5D55"/><path fill-rule="evenodd" clip-rule="evenodd" d="M707.339 677.087C707.339 677.087 721.196 667.618 694.753 646.649C668.31 625.679 683.355 592.402 683.355 592.402C683.355 592.402 636.268 630.083 670.134 658.957C684.003 670.781 694.753 663.515 701.135 670.809C707.518 678.103 705.38 680.572 705.38 680.572L707.339 677.087Z" fill="#420F0F"/><path fill-rule="evenodd" clip-rule="evenodd" d="M710.65 666.254L704.179 674.68L705.676 678.842L712.979 669.359L710.65 666.254Z" fill="#F33C8B"/><path fill-rule="evenodd" clip-rule="evenodd" d="M578.114 655.738L588.451 678.604L640.227 654.643L578.114 655.738Z" fill="#FFC4B8"/><path fill-rule="evenodd" clip-rule="evenodd" d="M765.486 816.02L783.925 829.669L788.979 817.187L771.71 806.111L765.486 816.02Z" fill="#FFC4B8"/><path fill-rule="evenodd" clip-rule="evenodd" d="M528.647 180H525.77C527.972 235.749 522.452 283.918 519.058 318.88C519.054 318.925 519.047 318.969 519.042 319.014C519.037 319.051 519.026 319.087 519.024 319.124C517.985 337.062 490.945 340.548 490.672 340.58C489.883 340.677 489.32 341.394 489.415 342.183C489.503 342.914 490.125 343.451 490.843 343.451C490.9 343.451 490.959 343.448 491.017 343.44C491.317 343.405 498.445 342.518 505.826 339.187C515.788 334.689 521.334 327.864 521.884 319.444C525.391 283.14 530.847 235.897 528.647 180Z" fill="#F80066"/><path fill-rule="evenodd" clip-rule="evenodd" d="M896.016 1020H1165.93V665.447H896.016V1020Z" fill="#B0C2E4"/><path fill-rule="evenodd" clip-rule="evenodd" d="M899.052 711.424H1166V665.449H870.232V682.608C870.232 698.522 883.135 711.424 899.052 711.424Z" fill="#8DA8DC"/><path fill-rule="evenodd" clip-rule="evenodd" d="M853.861 535.239H1054.56C1054.56 535.239 1042.73 522.971 1027.39 523.409C1012.05 523.847 1003.73 530.857 984.885 527.791C966.042 524.724 958.593 515.961 947.638 515.961C936.683 515.961 924.413 523.409 909.513 524.724C894.614 526.038 880.154 524.285 871.39 525.6C862.625 526.914 853.861 535.239 853.861 535.239Z" fill="#E6E3DA"/><path fill-rule="evenodd" clip-rule="evenodd" d="M752.56 594.078H1004.87C1004.87 594.078 989.995 578.655 970.713 579.206C951.432 579.756 940.965 588.57 917.277 584.714C893.588 580.858 884.223 569.842 870.451 569.842C856.679 569.842 841.254 579.206 822.523 580.858C803.793 582.51 785.613 580.307 774.596 581.96C763.578 583.612 752.56 594.078 752.56 594.078Z" fill="#E6E3DA"/></svg>