<svg viewBox="0 0 1600 1200" fill="none" xmlns="http://www.w3.org/2000/svg"><path d="M871.797 484.732L841.052 480.678L826.199 480.885L750.999 427.246L741.651 466.332L819.448 508.329H819.552L838.456 520.283L860.164 497.622" fill="#9F5621"/><path d="M838.871 892.223L859.229 929.542L883.742 904.594V898.668L871.382 874.863" fill="#9F5621"/><path d="M536.304 982.766L537.862 947.838L577.124 946.902L570.996 997.319" fill="#9F5621"/><path d="M574.631 1009.38C574.735 993.787 562.063 981.001 546.483 981.001C530.903 980.897 518.127 993.579 518.023 1009.17" fill="#3867C3"/><path d="M518.126 1009.24L518.079 1019.74L574.687 1020L574.734 1009.5L518.126 1009.24Z" fill="#E73245"/><path d="M634.355 593.465L581.175 952.308L532.253 953.556L548.249 655.941L544.094 532.549L635.809 493.359L684.627 540.034L634.355 593.465Z" fill="#ABB8B9"/><path d="M684.627 489.096L632.07 340.133L501.404 377.244L556.766 533.068L684.627 489.096Z" fill="#3867C3"/><path d="M598.624 737.545L571.515 395.646L561.128 359.055L541.913 363.525L494.757 378.286C477.514 383.795 468.063 402.299 473.568 419.555L503.066 524.962L506.182 737.752L598.624 737.545Z" fill="#E73245"/><path d="M583.771 354.588L665.619 758.026L795.558 689.834L728.356 540.039L681.927 437.958L813.839 509.893L823.914 471.326L663.854 347.415C663.854 347.415 648.377 335.357 635.809 339.099" fill="#E73245"/><path d="M608.908 347.617L547.626 366.952C535.473 370.798 522.386 364.041 518.543 351.879L493.095 271.316L576.397 244.496L608.908 347.617Z" fill="#ABB8B9"/><path d="M514.907 310.199L500.573 264.98C496.003 250.635 503.793 235.458 517.919 230.988L530.176 227.141C544.302 222.672 559.363 230.676 563.933 245.021L578.267 290.24C582.837 304.586 575.047 319.763 560.921 324.233L548.664 328.079C534.434 332.445 519.373 324.441 514.907 310.199Z" fill="#9F5621"/><path d="M506.909 295.122L502.754 281.816C498.184 267.471 507.532 251.774 523.632 246.784L528.514 245.225L526.021 237.221L530.279 235.869L532.772 243.874L537.654 242.314C553.65 237.221 570.372 244.705 574.839 259.051L578.993 272.356L584.706 270.589L575.358 241.171C570.476 225.682 552.195 217.574 534.642 223.187L514.907 229.424C497.353 234.934 487.07 252.086 491.952 267.575L501.3 296.993L506.909 295.122Z" fill="#ABB8B9"/><path d="M569.853 251.673L500.781 273.503L497.769 264.044C494.03 252.297 500.573 239.823 512.31 236.185L539.004 227.764C550.742 224.022 563.206 230.571 566.945 242.318L569.853 251.673Z" fill="#ABB8B9"/><path d="M506.706 284.354L501.654 285.949L511.437 316.98L516.489 315.385L506.706 284.354Z" fill="#ABB8B9"/><path d="M584.914 293.667L579.825 295.331L565.906 250.839L571.204 249.176L584.914 293.667Z" fill="#ABB8B9"/><path d="M635.81 339.097L547.833 366.852C538.278 369.867 528.099 364.565 525.086 355.001L519.478 337.122L589.588 314.98C609.012 308.951 629.681 319.658 635.81 339.097Z" fill="#ABB8B9"/><path d="M795.558 689.828L874.706 873.096L834.716 894.406L733.03 722.573" fill="#ABB8B9"/><path d="M602.156 385.669L590.211 352.612L584.603 332.342C583.252 328.184 578.786 325.897 574.631 327.248L547.106 336.084C542.952 337.435 540.666 341.905 542.017 346.063L542.328 346.895C542.328 347.103 542.432 347.207 542.432 347.415L559.467 399.391C560.817 403.549 565.283 405.836 569.438 404.484L596.963 395.649C601.221 394.297 603.507 389.827 602.156 385.669Z" fill="#071111"/><path d="M862.865 940.975C855.178 927.357 860.06 910.101 873.667 902.409C887.274 894.716 904.516 899.602 912.202 913.22" fill="#3867C3"/><path d="M912.388 913.001L863.031 940.75L868.17 949.904L917.526 922.155L912.388 913.001Z" fill="#E73245"/><path d="M567.88 404.483C567.984 404.483 568.191 404.379 568.191 404.379L567.776 404.483H567.88Z" fill="#373836"/><path d="M568.607 404.172C568.399 404.276 568.087 404.38 567.672 404.483C568.087 404.38 567.88 404.38 568.399 404.276C568.503 404.276 568.295 404.38 568.087 404.38C568.191 404.38 567.983 404.38 568.295 404.38C568.607 404.276 568.607 404.276 568.399 404.38C568.399 404.276 568.503 404.172 568.607 404.172Z" fill="#373836"/><path d="M569.126 403.44L569.231 403.336C569.022 403.44 569.126 403.44 569.126 403.44Z" fill="#373836"/><path d="M567.568 404.48H567.672C567.672 404.376 567.672 404.376 567.568 404.48C567.672 404.48 567.672 404.376 567.568 404.48Z" fill="#373836"/><path d="M569.438 403.44C569.438 403.44 569.542 403.44 569.646 403.336L569.438 403.44Z" fill="#373836"/><path d="M569.541 403.543C569.541 403.543 569.23 403.647 569.022 403.751C569.126 403.751 569.23 403.647 569.23 403.647C569.334 403.647 569.437 403.647 569.541 403.543Z" fill="#373836"/><path d="M569.542 403.441C569.645 403.441 569.645 403.441 569.645 403.441C569.542 403.337 569.542 403.337 569.542 403.441Z" fill="#373836"/><path d="M567.568 400.741C567.672 400.741 567.672 400.741 567.776 400.637L567.568 400.741Z" fill="#373836"/><path d="M569.542 401.879C569.23 401.983 569.126 401.983 568.814 402.087C568.918 402.087 569.334 401.983 569.542 401.879Z" fill="#373836"/><path d="M569.749 402.504C569.646 402.504 569.646 402.504 569.646 402.608C569.646 402.504 569.749 402.504 569.749 402.504Z" fill="#373836"/><path d="M566.218 401.678C566.322 401.678 566.425 401.574 566.529 401.574C566.218 401.574 566.114 401.574 566.218 401.678Z" fill="#373836"/><path d="M566.529 403.44C566.633 403.44 566.738 403.336 566.738 403.336H566.633L566.529 403.44Z" fill="#373836"/><path d="M565.595 401.678C565.595 401.678 566.01 401.574 566.322 401.47C566.426 401.47 566.01 401.574 565.802 401.678C565.906 401.678 566.322 401.47 566.322 401.574C566.218 401.574 566.218 401.574 566.114 401.678C566.53 401.574 566.114 401.678 566.633 401.574H566.53C566.737 401.47 566.945 401.366 567.153 401.366C567.153 401.366 567.049 401.366 566.945 401.47H567.049C566.633 401.574 566.945 401.47 566.633 401.574C566.737 401.574 567.153 401.47 567.049 401.47C566.633 401.574 566.945 401.47 566.53 401.678L566.633 401.574C566.01 401.782 566.633 401.574 566.01 401.782C565.906 401.885 566.218 401.678 566.114 401.782C566.322 401.678 566.426 401.678 566.737 401.574C567.153 401.47 565.699 401.989 566.218 401.782C566.53 401.678 567.049 401.47 566.737 401.574L566.218 401.678C566.218 401.678 566.945 401.47 566.633 401.574C566.426 401.678 566.426 401.574 566.426 401.678C566.01 401.782 566.737 401.574 566.737 401.574L566.322 401.678C566.426 401.678 566.737 401.574 566.737 401.574C566.633 401.574 566.53 401.678 566.322 401.678C566.53 401.678 566.322 401.782 566.01 401.885L566.426 401.782L566.218 401.885C566.114 401.989 566.426 401.782 566.633 401.782C566.633 401.782 566.426 401.885 566.322 401.885C566.633 401.782 567.049 401.678 566.633 401.885H566.53C566.426 401.989 567.257 401.678 566.945 401.782H566.841C566.737 401.885 567.049 401.782 566.53 401.989C567.049 401.782 566.322 402.093 567.049 401.885C566.737 401.989 566.53 402.093 566.322 402.197C566.322 402.197 566.737 402.093 566.841 401.989L566.426 402.197H566.53C566.53 402.197 566.737 402.093 566.841 402.093C567.049 402.093 566.633 402.197 566.426 402.301L566.737 402.197C566.633 402.301 566.53 402.301 566.426 402.301C566.01 402.405 566.841 402.197 566.426 402.301C566.53 402.301 566.633 402.197 566.737 402.197C566.53 402.301 566.53 402.301 566.633 402.301L566.426 402.405C566.322 402.405 566.53 402.405 566.53 402.405C566.633 402.301 567.153 402.197 567.153 402.197L566.737 402.301C566.945 402.197 566.841 402.197 567.153 402.197C567.153 402.197 566.737 402.405 566.53 402.405H566.633C566.53 402.405 566.426 402.509 566.322 402.509C565.906 402.613 566.53 402.405 566.322 402.509H566.218C566.218 402.509 566.322 402.509 566.426 402.509C566.737 402.405 566.737 402.405 566.945 402.301C566.841 402.405 566.53 402.509 566.633 402.509C566.841 402.509 566.945 402.405 567.153 402.301C566.841 402.405 566.841 402.405 566.633 402.509C566.737 402.509 566.737 402.509 566.945 402.405C567.049 402.405 567.153 402.301 567.257 402.301C567.36 402.301 567.153 402.405 566.945 402.405C567.464 402.301 566.01 402.821 566.737 402.613L567.049 402.509C566.945 402.509 566.841 402.613 566.633 402.613C567.153 402.509 566.53 402.717 566.945 402.613C566.01 402.925 567.049 402.613 566.426 402.821L566.633 402.717C566.841 402.613 566.53 402.821 566.426 402.821C566.633 402.717 566.633 402.717 566.737 402.717C567.049 402.717 566.426 402.925 566.322 403.029C566.218 403.029 567.464 402.613 566.945 402.821L566.53 402.925C567.049 402.821 566.53 403.029 566.945 402.925C566.841 402.925 566.737 403.029 566.737 403.029C566.426 403.133 566.737 403.029 566.945 403.029C566.945 403.029 566.737 403.133 566.633 403.133C566.426 403.237 567.049 403.029 566.737 403.133H566.633C566.737 403.133 566.633 403.133 566.945 403.029C566.737 403.133 567.153 403.029 566.945 403.133C567.36 403.029 566.737 403.237 567.36 403.029C566.841 403.237 566.945 403.237 567.153 403.133C566.945 403.237 566.945 403.237 566.737 403.237C566.737 403.237 566.841 403.237 567.153 403.133C566.53 403.341 567.672 403.029 566.841 403.237C567.153 403.133 567.36 403.133 567.464 403.133C566.945 403.341 567.36 403.133 566.841 403.341C567.049 403.237 567.568 403.133 567.464 403.237C567.36 403.237 567.257 403.341 567.153 403.341C567.36 403.237 567.153 403.445 567.464 403.341C567.36 403.341 567.36 403.341 567.36 403.341C567.36 403.341 567.257 403.341 567.568 403.341H567.464C567.88 403.237 568.191 403.133 568.399 403.029C567.672 403.237 568.191 403.133 567.257 403.445C567.257 403.445 567.464 403.341 567.568 403.341C567.568 403.341 567.464 403.445 567.257 403.445C567.36 403.445 567.672 403.341 567.672 403.341C567.568 403.341 567.464 403.445 567.36 403.445C567.568 403.341 567.88 403.341 567.776 403.341C567.672 403.341 567.568 403.445 567.568 403.445C567.568 403.445 568.191 403.237 567.984 403.341C567.464 403.549 567.776 403.445 567.36 403.549H567.464L567.672 403.445C567.672 403.445 567.984 403.341 567.88 403.445L567.672 403.549H567.776L567.984 403.445C568.191 403.341 568.607 403.237 568.399 403.341C568.399 403.341 568.399 403.341 568.088 403.445C568.191 403.445 568.399 403.341 568.295 403.445C568.191 403.549 567.776 403.653 567.672 403.653C568.088 403.549 567.776 403.653 568.191 403.549C568.088 403.549 567.88 403.653 567.776 403.653L568.088 403.549C567.984 403.549 567.984 403.653 567.776 403.653C567.672 403.653 568.399 403.445 568.088 403.549H567.984C567.88 403.653 568.191 403.549 568.088 403.549C567.672 403.757 567.984 403.549 567.568 403.757C567.672 403.757 568.191 403.653 568.088 403.653H568.191C567.88 403.757 568.815 403.445 568.191 403.653C568.088 403.653 567.776 403.757 567.88 403.757C567.776 403.861 568.088 403.757 568.295 403.653L568.088 403.757C567.984 403.861 567.984 403.861 567.984 403.861C568.191 403.757 568.088 403.861 568.399 403.757C567.464 404.068 568.918 403.653 568.191 403.965H568.088H568.295C568.607 403.861 568.503 403.861 568.711 403.861C568.918 403.757 569.022 403.757 569.022 403.757C568.815 403.861 568.607 403.861 568.399 403.965C568.503 403.965 568.607 403.861 568.711 403.861C568.191 404.068 569.334 403.653 568.919 403.757L568.815 403.861C568.919 403.861 569.126 403.757 569.022 403.757C568.711 403.861 568.918 403.757 568.607 403.861C568.607 403.861 569.23 403.653 568.919 403.757C568.815 403.757 568.815 403.757 568.711 403.757C568.295 403.861 568.399 403.861 568.399 403.861L568.191 403.965H568.295C569.126 403.653 568.503 403.965 569.022 403.757C568.503 403.965 568.711 403.861 568.295 403.965C568.191 403.965 568.088 404.068 567.984 404.068C568.295 403.965 567.776 404.172 568.191 404.068C568.088 404.068 568.191 404.068 567.88 404.172C567.984 404.172 568.088 404.068 568.191 404.068C568.607 403.965 567.672 404.276 568.295 404.068C568.503 403.965 568.918 403.861 569.126 403.861C568.918 403.965 568.711 403.965 568.711 403.965C568.503 404.068 568.607 404.068 568.711 403.965C568.607 403.965 568.503 404.068 568.399 404.068C568.399 404.068 568.815 403.965 568.711 403.965C568.607 403.965 568.399 404.068 568.191 404.068C568.295 404.068 568.503 403.965 568.607 403.965C568.399 404.068 568.295 404.068 568.191 404.068C568.295 404.068 568.399 404.068 568.711 403.965H568.815L568.503 404.068C568.295 404.172 568.607 403.965 568.711 403.965H568.815C569.542 403.757 568.711 403.965 568.711 403.965L569.23 403.757L568.815 403.861C568.919 403.861 569.23 403.757 569.334 403.653C569.542 403.549 569.126 403.757 569.438 403.549C569.542 403.549 569.749 403.445 569.749 403.445C569.334 403.549 570.061 403.341 569.749 403.445C569.542 403.445 569.334 403.549 568.919 403.653L569.853 403.341L569.438 403.445C569.438 403.445 569.438 403.445 569.646 403.341C569.438 403.445 569.438 403.445 569.23 403.445C569.542 403.341 569.022 403.445 569.646 403.237C569.334 403.341 569.438 403.341 569.23 403.341C569.853 403.133 569.126 403.341 569.438 403.237C569.749 403.133 569.646 403.237 569.853 403.133C569.334 403.341 569.957 403.029 569.853 403.133C569.438 403.237 569.646 403.133 569.542 403.237C569.646 403.133 569.749 403.133 569.957 403.029H570.061C569.646 403.133 569.646 403.133 569.542 403.133C569.853 403.029 569.957 403.029 570.061 402.925C569.957 402.925 569.853 403.029 569.749 403.029L570.061 402.925C570.061 402.925 569.646 403.029 569.853 402.925C569.542 403.029 569.022 403.237 568.711 403.341C568.918 403.237 569.126 403.133 569.23 403.133H569.126L569.438 403.029C569.542 402.925 569.23 403.133 569.23 403.133C569.438 403.029 569.438 403.029 569.646 403.029C569.646 403.029 569.853 402.925 570.061 402.925C569.957 402.925 569.749 403.029 569.749 403.029C569.749 403.029 570.061 402.925 570.165 402.925C569.957 403.029 570.165 402.925 569.853 403.029C569.853 403.029 570.061 402.925 570.165 402.925C569.957 402.925 570.061 402.925 569.749 403.029C569.334 403.133 569.957 402.925 569.749 402.925H569.853C569.749 402.925 569.749 402.925 569.542 403.029C569.542 403.029 569.749 402.925 569.957 402.925C569.749 403.029 569.853 402.925 569.957 402.925C570.165 402.821 570.165 402.821 570.165 402.925C570.269 402.925 570.477 402.821 570.165 402.925C570.477 402.821 570.58 402.821 570.477 402.821L570.269 402.925L570.684 402.821C571.204 402.613 569.853 403.029 570.684 402.717C570.373 402.821 570.477 402.821 570.165 402.925C570.269 402.925 570.788 402.717 570.788 402.717C570.996 402.613 570.165 402.925 570.373 402.821C570.269 402.925 569.853 403.029 569.646 403.029C569.749 403.029 570.269 402.821 570.373 402.821C570.373 402.821 570.373 402.821 570.269 402.821C570.373 402.821 570.373 402.821 570.58 402.717H570.477C570.58 402.613 570.58 402.613 570.892 402.613C570.788 402.613 570.684 402.717 570.58 402.717C570.788 402.613 570.58 402.717 570.684 402.613C570.58 402.613 570.477 402.717 570.477 402.717C570.684 402.613 570.165 402.821 570.165 402.821C570.373 402.717 570.684 402.613 570.477 402.717C570.58 402.613 570.892 402.613 570.996 402.509C570.684 402.613 571.204 402.405 571.204 402.405H571.307C571.204 402.405 571.204 402.405 571.204 402.405L570.892 402.509C570.996 402.509 570.996 402.509 571.1 402.405C570.892 402.509 570.58 402.613 570.373 402.613C570.477 402.509 570.165 402.613 570.58 402.509C570.477 402.613 570.996 402.405 570.996 402.405H571.1C571.411 402.301 570.684 402.509 570.684 402.509C570.892 402.405 571.1 402.405 571.1 402.405C571.1 402.405 570.684 402.509 570.58 402.613C570.788 402.509 570.477 402.613 570.477 402.613H570.373C570.165 402.717 570.165 402.717 570.061 402.717C570.269 402.613 570.165 402.717 570.269 402.613C569.853 402.717 570.684 402.509 570.373 402.509C570.477 402.405 570.788 402.405 570.892 402.301C570.58 402.405 571.204 402.197 570.996 402.197C570.684 402.301 570.788 402.301 570.477 402.405H570.684L570.269 402.509C570.269 402.509 570.477 402.509 570.373 402.509C570.165 402.613 570.165 402.613 569.957 402.613C569.646 402.717 570.373 402.405 569.957 402.613L570.684 402.405C570.996 402.301 570.269 402.509 570.477 402.405L570.373 402.509C570.061 402.613 570.373 402.509 570.165 402.509C570.373 402.405 570.477 402.405 570.684 402.301C570.477 402.405 570.684 402.301 570.165 402.405L570.477 402.301C570.58 402.197 569.749 402.509 569.853 402.509C570.165 402.405 570.269 402.405 570.477 402.301C570.477 402.301 570.477 402.301 570.373 402.301C570.477 402.197 570.061 402.405 570.269 402.301C570.165 402.301 569.853 402.405 569.957 402.405H570.061C569.957 402.405 569.853 402.405 569.646 402.509C570.373 402.197 569.542 402.509 570.269 402.197C570.165 402.197 570.061 402.197 570.061 402.197C570.165 402.197 570.165 402.197 570.165 402.197C570.373 402.093 569.438 402.405 569.749 402.301C570.165 402.197 569.957 402.197 570.165 402.197C570.996 401.885 570.061 402.197 570.477 402.093C570.788 401.989 570.165 402.197 570.269 402.093H570.373C569.957 402.197 569.853 402.197 569.749 402.301C570.061 402.197 569.957 402.197 570.269 402.093C570.269 402.093 569.749 402.301 569.646 402.301C569.853 402.197 569.957 402.197 570.269 402.093C570.684 401.989 570.269 402.093 570.373 402.093L570.58 401.989C570.477 401.989 570.061 402.197 570.061 402.093L569.957 402.197C569.438 402.301 570.269 402.093 569.853 402.197L570.373 401.989C570.269 401.989 569.853 402.093 569.749 402.093C570.165 401.989 570.269 401.885 570.477 401.885C570.477 401.885 570.477 401.885 570.165 401.989C570.165 401.989 570.373 401.885 570.269 401.989C569.853 402.093 569.646 402.197 569.646 402.093C570.58 401.782 569.853 401.989 570.58 401.678C570.269 401.782 570.684 401.574 570.684 401.574C569.957 401.782 570.684 401.574 569.957 401.782L570.373 401.574C570.58 401.47 570.58 401.47 570.684 401.47C570.788 401.47 570.996 401.366 571.204 401.262C570.892 401.366 570.788 401.366 570.892 401.366L570.58 401.47C570.165 401.574 571.204 401.262 570.788 401.366L570.996 401.262C570.892 401.262 570.996 401.262 570.373 401.366C570.477 401.366 570.684 401.262 570.684 401.262C570.788 401.158 570.061 401.47 570.373 401.262L570.58 401.158C570.477 401.158 570.269 401.262 570.373 401.158C570.477 401.158 570.58 401.054 570.58 401.054C570.477 401.054 570.269 401.158 570.373 401.158L570.58 401.054C570.788 400.95 570.061 401.158 569.957 401.158C570.477 400.95 570.684 400.846 570.788 400.846H570.892C570.996 400.742 570.477 400.95 570.165 400.95C570.788 400.742 570.373 400.846 570.684 400.638C570.58 400.638 570.269 400.742 570.165 400.742C570.269 400.742 569.749 400.846 570.269 400.638C570.788 400.43 570.58 400.534 570.58 400.534L569.957 400.742C570.892 400.43 569.542 400.742 570.477 400.534C570.269 400.534 570.269 400.534 570.165 400.638L570.477 400.534C570.58 400.534 570.58 400.43 570.477 400.43L570.684 400.326L569.646 400.638L570.165 400.43C570.165 400.43 570.58 400.222 570.165 400.326C570.269 400.326 570.373 400.222 570.373 400.222C570.373 400.222 570.684 400.014 569.957 400.326C570.373 400.118 569.957 400.326 569.749 400.326L570.061 400.222C569.646 400.326 569.542 400.43 569.334 400.43C569.334 400.43 569.646 400.326 569.542 400.326C569.749 400.222 569.23 400.43 569.438 400.326L569.646 400.222C569.646 400.222 569.542 400.222 569.334 400.326C569.23 400.326 569.438 400.222 569.749 400.118C569.542 400.222 569.334 400.222 569.438 400.222C569.542 400.222 569.646 400.118 569.646 400.118C569.853 400.014 569.23 400.222 569.542 400.118C569.646 400.118 569.749 400.014 569.749 400.014C570.061 399.91 570.165 399.91 570.58 399.702C570.373 399.806 569.853 399.91 569.957 399.91H570.061C570.269 399.806 570.165 399.806 570.165 399.806C569.853 399.91 569.853 399.91 569.542 400.014C569.542 400.014 569.542 400.014 569.646 400.014C569.438 400.118 569.334 400.118 569.542 400.014C569.334 400.118 569.126 400.118 569.022 400.222C569.542 400.014 569.749 399.91 570.061 399.806C569.853 399.806 569.957 399.806 569.23 400.014C569.126 400.014 569.438 399.91 569.542 399.91C569.646 399.91 569.646 399.91 569.646 399.91C569.438 399.91 569.542 399.91 569.126 400.014C569.334 399.91 569.542 399.91 569.438 399.91H569.542C570.269 399.599 568.399 400.222 569.334 399.91C569.23 399.91 569.23 399.91 569.126 400.014C569.542 399.806 568.711 400.014 569.334 399.806C569.438 399.702 569.126 399.806 568.919 399.91C568.607 400.014 569.853 399.599 569.23 399.702L569.022 399.806C569.022 399.806 568.815 399.806 569.126 399.702C569.126 399.702 568.918 399.806 569.022 399.702L569.23 399.599L568.919 399.702C569.022 399.599 569.646 399.495 569.749 399.391C569.646 399.391 569.126 399.599 569.022 399.599C569.022 399.599 568.918 399.702 568.711 399.702H568.607C567.984 399.91 567.464 400.118 567.049 400.222C566.841 400.326 567.049 400.222 567.153 400.222C567.049 400.326 566.945 400.326 566.841 400.326L567.36 400.118C567.153 400.222 566.945 400.222 566.737 400.326C566.945 400.222 567.257 400.118 567.36 400.118C567.153 400.222 566.841 400.326 567.153 400.222C567.049 400.326 566.945 400.326 566.841 400.326C567.049 400.222 566.945 400.326 567.257 400.222C566.945 400.326 567.36 400.222 566.841 400.43C566.945 400.43 567.257 400.326 567.257 400.326C566.633 400.534 567.257 400.326 566.53 400.638C567.153 400.43 566.841 400.534 567.153 400.534H567.049C567.049 400.534 566.841 400.638 566.737 400.638C567.257 400.43 567.36 400.43 567.672 400.326C567.257 400.534 567.049 400.534 566.633 400.638C567.049 400.534 567.049 400.534 567.36 400.43C567.049 400.534 567.257 400.534 566.841 400.638C567.464 400.43 566.945 400.638 567.36 400.534C567.049 400.638 566.841 400.742 566.945 400.638C565.906 401.574 565.699 401.678 565.595 401.678ZM566.841 401.678C566.945 401.574 567.049 401.574 567.049 401.574C566.945 401.574 566.945 401.678 566.841 401.678Z" fill="#373836"/><path d="M567.776 404.172L567.672 404.276C567.776 404.172 567.776 404.172 567.776 404.172Z" fill="#373836"/><path d="M567.672 404.276C567.776 404.276 567.776 404.276 567.776 404.172L567.672 404.276Z" fill="#373836"/><path d="M567.88 403.543C567.776 403.543 567.776 403.543 567.672 403.543C567.672 403.647 567.672 403.647 567.88 403.543Z" fill="#373836"/><path d="M567.673 404.378C567.673 404.378 567.36 404.482 567.465 404.482L567.673 404.378C567.881 404.274 567.36 404.482 567.673 404.378Z" fill="#373836"/><path d="M569.23 403.75L569.438 403.646C569.853 403.542 569.126 403.75 569.23 403.75Z" fill="#373836"/><path d="M569.334 403.647C569.438 403.647 569.542 403.543 569.647 403.543C569.542 403.647 569.542 403.647 569.334 403.647Z" fill="#373836"/><path d="M569.23 403.233L569.543 403.129C569.543 403.129 569.438 403.233 569.23 403.233Z" fill="#373836"/><path d="M567.568 403.75L567.464 403.854L567.672 403.75H567.568Z" fill="#373836"/><path d="M569.853 402.918L569.75 403.022L569.853 402.918Z" fill="#373836"/><path d="M569.541 402.398L569.126 402.502C569.23 402.502 569.645 402.398 569.541 402.398Z" fill="#373836"/><path d="M569.022 402.296C569.23 402.191 569.335 402.191 569.126 402.191L569.022 402.296Z" fill="#373836"/><path d="M511.999 503.857C508.26 492.214 514.596 479.844 526.229 476.102C537.862 472.359 550.326 478.701 554.065 490.343C557.805 501.986 551.469 514.356 539.835 518.098C528.098 521.841 515.738 515.396 511.999 503.857Z" fill="#9F5621"/><path d="M541.497 386.289L511.999 490.137L512.933 505.834L553.857 500.74H554.792L571.515 395.645" fill="#9F5621"/><path d="M559.051 396.58L551.677 373.711L545.445 355.207C541.913 355.519 540.77 355.727 540.147 358.43L539.628 370.592L541.705 390.447" fill="#9F5621"/><path d="M554.688 372.668L559.986 379.425C560.089 379.529 560.193 379.529 560.297 379.425L592.808 353.645C594.781 352.086 595.093 349.279 593.535 347.304C591.977 345.329 589.172 345.017 587.199 346.576L554.688 372.356C554.584 372.46 554.584 372.564 554.688 372.668Z" fill="#9F5621"/><path d="M560.817 381.299L566.114 388.056C566.218 388.16 566.322 388.16 566.426 388.056L595.301 365.082C597.275 363.523 597.586 360.716 596.028 358.741C594.47 356.766 591.666 356.454 589.692 358.014L560.817 380.987C560.713 380.987 560.713 381.195 560.817 381.299Z" fill="#9F5621"/><path d="M551.261 369.865L558.532 374.335C558.636 374.439 558.74 374.335 558.843 374.231L578.267 342.837C579.617 340.758 578.89 337.952 576.813 336.6C574.735 335.249 571.931 335.977 570.58 338.056L551.157 369.449C551.157 369.657 551.157 369.761 551.261 369.865Z" fill="#9F5621"/><path d="M567.464 389.717L571.515 395.747C571.619 395.851 573.073 396.578 573.177 396.474L596.963 377.555C598.936 375.996 599.248 373.189 597.69 371.214C596.132 369.239 593.327 368.927 591.354 370.486L567.568 389.406C567.36 389.406 567.36 389.613 567.464 389.717Z" fill="#9F5621"/><path d="M546.795 386.397C545.964 381.823 548.457 366.542 557.597 363.631C566.634 360.72 576.501 366.126 579.617 375.793C582.733 385.461 577.955 395.648 568.815 398.559C559.778 401.47 548.561 396.376 546.795 386.397Z" fill="#9F5621"/><path d="M554.792 342.941C555.416 344.916 554.481 346.996 552.507 347.723C550.534 348.347 548.456 347.411 547.729 345.436C547.106 343.461 548.041 341.382 550.015 340.654C551.988 339.927 554.169 340.966 554.792 342.941Z" fill="white"/><path d="M536.408 343.672L542.225 354.691L530.28 358.121L542.64 358.537L539.628 370.596L546.275 360.096L555.208 368.724L549.391 357.705L561.44 354.275L548.976 353.859L551.988 341.801L545.341 352.3L536.408 343.672Z" fill="white"/><path d="M541.809 267.158C545.964 257.49 556.143 253.021 564.972 259.881C564.972 259.881 557.493 260.609 553.442 261.753C549.288 263 541.913 267.158 541.809 267.158Z" fill="#071111"/><path d="M533.708 274.646C525.086 268.72 514.077 270.28 510.233 280.883C510.233 280.883 516.985 277.452 521.036 276.309C525.19 275.062 533.708 274.646 533.708 274.646Z" fill="#071111"/><path d="M547.833 297.618C546.067 298.242 545.133 297.826 544.509 297.618C544.094 297.41 543.99 297.41 543.575 297.618C542.744 298.138 541.809 298.658 540.77 298.346C540.147 298.138 539.628 297.722 539.316 296.89C539.108 296.579 539.316 296.059 539.628 295.955L540.251 295.747C540.459 296.267 540.77 296.89 541.186 297.098C541.497 297.202 542.017 296.994 542.848 296.579C543.886 295.955 544.509 296.267 545.133 296.475C545.652 296.683 546.171 296.994 547.418 296.475C548.249 296.163 548.353 295.851 548.56 295.331C548.768 294.707 549.183 293.98 550.534 293.772C551.469 293.668 551.988 293.46 552.196 293.148C552.3 292.94 552.196 292.524 552.092 292.109C551.988 291.797 552.196 291.381 552.507 291.277C552.819 291.173 553.234 291.381 553.338 291.693C553.546 292.524 553.65 293.252 553.338 293.876C552.819 294.707 551.78 295.019 550.742 295.123C550.014 295.227 549.911 295.435 549.703 295.955C549.495 296.371 549.183 297.098 547.833 297.618Z" fill="#071111"/><path d="M545.86 311.239C548.249 309.575 546.379 305.729 548.665 304.378C550.742 303.234 550.95 305.001 552.819 303.962C554.585 303.026 553.962 301.675 555.935 300.428C557.701 299.284 560.09 302.715 562.687 301.779C562.894 301.675 561.233 308.432 556.974 310.719C552.819 313.11 545.445 311.55 545.86 311.239Z" fill="#FF6200"/><path d="M556.766 309.261C555.935 309.676 555.312 309.572 555 309.365C554.585 309.157 554.273 308.845 554.065 308.429C553.858 308.013 553.338 307.909 553.027 308.221C552.819 308.429 552.507 308.637 552.3 308.845C550.742 310.196 549.08 311.548 545.964 311.859L545.86 310.612C548.56 310.404 550.015 309.157 551.469 307.909C552.196 307.286 552.819 306.766 553.65 306.246C553.754 306.142 553.858 306.038 553.858 305.934C554.065 305.31 554.481 304.895 555.104 304.479C556.143 303.439 557.389 303.231 558.636 302.92C559.986 302.608 561.336 302.296 562.79 301.152L563.621 302.088C561.959 303.439 560.401 303.855 558.947 304.167C557.701 304.479 556.766 304.687 555.935 305.518L555.831 305.622C556.558 305.726 557.181 306.038 557.597 306.558C557.805 306.87 558.324 307.805 557.285 309.053V308.949C557.078 309.053 556.87 309.261 556.766 309.261ZM554.896 306.87C554.896 306.974 554.896 307.078 554.896 307.078C554.896 307.597 555.104 308.117 555.416 308.221C555.727 308.325 556.143 308.117 556.351 307.909C556.558 307.597 556.766 307.286 556.558 306.974C556.351 306.662 555.623 306.454 555.104 306.662C555.104 306.87 555 306.87 554.896 306.87Z" fill="#071111"/><path d="M1019.6 963.12L998.204 822.784L1022.2 780.996L1012.23 669.039L960.811 811.454C955.93 822.888 959.253 836.61 959.253 836.61L994.049 972.268" fill="#FF976B"/><path d="M1093.76 984.64L1050.24 784.428L1094.9 774.969L1120.98 981.626" fill="#FF976B"/><path d="M1091.89 979.857L1120.98 976.842L1111.84 904.18L1076.73 909.065L1091.89 979.857Z" fill="#ABB8B9"/><path d="M994.673 974.036L1020.85 967.383L1009.63 893.473L975.042 903.036L994.673 974.036Z" fill="#ABB8B9"/><path d="M1120.98 976.426L1126.17 1007.3L1063.75 1014.37L1063.02 1007.61L1092.93 990.251L1091.79 979.752L1120.98 976.426Z" fill="#232144"/><path d="M1019.7 961.664L1027.29 992.018L966.628 1007.61L965.174 1002.21L993.219 979.024L990.622 969.149L1019.7 961.664Z" fill="#232144"/><path d="M966.42 1007.2L1027.18 991.605L1028.64 997.219L967.978 1012.81L966.42 1007.2Z" fill="#ABB8B9"/><path d="M1063.74 1014.16L1126.07 1006.88L1127 1012.7L1064.47 1019.98L1063.74 1014.16Z" fill="#ABB8B9"/><path d="M523.009 289.306C526.021 289.306 529.137 288.163 531.006 287.227C530.695 285.252 528.929 283.797 526.955 283.797C524.67 283.797 522.801 285.668 522.801 287.955C522.801 288.371 522.905 288.891 523.009 289.306Z" fill="#071111"/><path d="M560.09 271.734C557.805 271.734 555.935 273.606 555.935 275.892C555.935 277.14 556.454 278.179 557.285 278.907C557.701 278.699 558.116 278.387 558.532 278.075C560.817 276.412 561.959 274.125 562.479 272.566C561.856 272.046 561.025 271.734 560.09 271.734Z" fill="#071111"/><path d="M522.801 287.95C522.801 285.663 524.671 283.792 526.956 283.792C529.033 283.792 530.695 285.247 531.007 287.222C532.149 286.599 532.876 286.183 532.876 286.183C532.876 286.183 528.929 281.921 523.944 281.713C518.958 281.609 514.803 285.663 514.803 285.663C514.803 285.663 517.919 289.197 522.905 289.301C523.009 289.301 523.009 289.301 523.113 289.301C522.801 288.886 522.801 288.366 522.801 287.95Z" fill="white"/><path d="M555.935 275.793C555.935 273.506 557.805 271.635 560.09 271.635C561.025 271.635 561.856 271.947 562.583 272.466C562.998 271.219 563.102 270.387 563.102 270.387C563.102 270.387 557.389 269.452 553.338 272.466C549.288 275.481 548.561 281.198 548.561 281.198C548.561 281.198 553.442 281.094 557.285 278.807C556.454 278.184 555.831 277.04 555.935 275.793Z" fill="white"/><path d="M548.56 281.191C547.21 272.771 556.246 266.118 563.725 267.99C563.517 268.717 563.205 270.173 562.998 270.9C561.336 270.484 553.234 269.861 549.183 279.736C548.872 280.36 548.975 280.568 548.56 281.191Z" fill="#071111"/><path d="M532.876 286.082C529.137 278.39 517.919 278.182 512.934 283.899C513.557 284.419 514.595 285.355 515.219 285.874C516.361 284.627 522.593 279.429 531.526 285.147C532.045 285.666 532.149 285.77 532.876 286.082Z" fill="#071111"/><path d="M885.3 514.671L865.877 512.28L872.005 489.41L891.221 497.207L885.3 514.671Z" fill="#FF976B"/><path d="M889.039 496.586L961.331 518.832L951.671 547.523L883.742 513.842L889.039 496.586Z" fill="#FF976B"/><path d="M851.231 514.671C850.504 512.8 851.335 510.721 853.205 509.993L872.94 501.781L875.64 508.33L855.801 516.542C854.036 517.27 851.958 516.439 851.231 514.671Z" fill="#FF976B"/><path d="M837.832 509.163C836.586 507.604 836.793 505.421 838.351 504.173L850.504 494.09L855.074 499.599L842.922 509.683C841.26 510.93 839.079 510.722 837.832 509.163Z" fill="#FF976B"/><path d="M841.26 510.51C840.221 508.846 840.741 506.663 842.506 505.624L856.009 497.516L859.748 503.649L846.246 511.757C844.48 512.693 842.299 512.173 841.26 510.51Z" fill="#FF976B"/><path d="M872.005 489.41L873.563 496.375L851.855 501.053L850.4 494.088L872.005 489.41Z" fill="#FF976B"/><path d="M872.835 492.633L874.809 499.494L853.412 505.523L851.542 498.662L872.835 492.633Z" fill="#FF976B"/><path d="M861.618 506.461C861.618 506.461 864.838 505.109 865.876 504.693C867.85 503.758 866.707 501.991 864.942 502.406C863.799 502.718 860.06 503.758 857.255 504.486C862.449 500.639 869.823 493.051 869.823 493.051L871.901 507.084L861.618 506.461Z" fill="#FF976B"/><path d="M1024.69 534.004L959.462 518.203L951.568 547.414L1008.7 564.358L1024.69 534.004Z" fill="#FF976B"/><path d="M1050.14 530.159H1023.76L1009.42 528.6C1009.11 528.6 999.97 527.353 999.97 527.768C999.97 528.808 991.66 562.904 991.245 562.488C990.622 561.865 1004.23 567.582 1004.02 567.582L1011.19 637.542L1081.4 637.334L1077.25 580.68C1077.77 580.68 1092 554.588 1088.47 548.455C1078.18 530.575 1067.28 530.471 1056.68 530.471" fill="#232144"/><path d="M1055.64 529.539V505.838L1023.24 505.734V529.539C1023.24 539.103 1030.51 546.795 1039.44 546.795C1048.37 546.795 1055.64 539.103 1055.64 529.539Z" fill="#FF976B"/><path d="M1023.55 738.376L1021.68 801.683L1096.26 789.521L1089.71 679.02L1023.55 738.376Z" fill="#463EC5"/><path d="M1011.08 636.605L1011.91 668.103L968.498 787.856L1045.78 808.023C1045.78 808.023 1086.6 722.782 1092.2 692.012C1097.92 661.242 1082.03 636.709 1082.03 636.709" fill="#3867C3"/><path d="M1055.44 530.472L1056.47 515.399L1063.23 488.372L1057.51 463.215L1045.46 449.182L1016.28 448.246C1012.12 453.756 1008.28 473.403 1008.28 473.403L1007.03 478.704C999.347 483.694 1007.45 487.54 1007.45 487.54L1006.72 490.763C1003.19 515.191 1026.87 516.335 1026.87 516.335C1026.87 516.335 1025.63 526.73 1025.42 530.16" fill="#FF976B"/><path d="M1038.09 489.825L1037.16 487.33L1040.06 481.404L1031.96 478.182C1034.56 469.138 1029.05 461.965 1029.05 461.965C1029.05 461.965 1014.82 470.386 1009.94 457.08C1009.94 457.08 1005.16 440.967 1022.51 441.383C1039.86 441.799 1056.47 446.892 1056.47 446.892C1078.81 452.714 1072.99 473.608 1072.99 473.608L1060.32 514.877" fill="#A3422E"/><path d="M1038.09 488.059C1034.97 496.583 1038.92 508.225 1046.61 510.824C1058.34 514.878 1060.32 514.774 1060.32 514.774" fill="#A3422E"/><path d="M1046.91 485.302C1046.92 481.226 1043.62 477.917 1039.55 477.912C1035.47 477.907 1032.17 481.207 1032.16 485.283C1032.16 489.36 1035.45 492.668 1039.53 492.673C1043.6 492.679 1046.91 489.378 1046.91 485.302Z" fill="#FF976B"/><path d="M1011.5 472.153C1011.5 472.153 1022.92 476.104 1022.72 475.688C1019.08 467.06 1011.5 472.153 1011.5 472.153Z" fill="#A3422E"/><path d="M1014.62 475.996L1013.16 478.283L1013.99 481.506L1015.97 481.298C1020.43 480.778 1019.7 478.907 1019.7 478.907C1019.29 477.14 1014.62 475.996 1014.62 475.996Z" fill="white"/><path d="M1014.82 476.001L1012.23 475.273C1011.71 476.001 1011.29 477.768 1011.29 477.768C1010.88 480.263 1011.81 481.615 1011.81 481.615L1013.99 481.511C1015.34 480.471 1015.45 479.12 1015.45 479.12C1015.55 477.352 1014.82 476.001 1014.82 476.001Z" fill="#071111"/><path d="M1006.41 494.504C1006.41 494.92 1006.41 495.44 1006.41 495.959C1007.03 495.959 1007.55 495.959 1008.07 495.855C1013.47 495.232 1014.82 491.489 1014.82 491.281L1013.47 490.762C1013.37 490.97 1012.02 494.504 1006.41 494.504Z" fill="#071111"/><path d="M862.761 509.472C865.572 509.472 867.85 507.192 867.85 504.379C867.85 501.566 865.572 499.285 862.761 499.285C859.95 499.285 857.671 501.566 857.671 504.379C857.671 507.192 859.95 509.472 862.761 509.472Z" fill="#9F5621"/><path d="M855.282 514.359C858.093 514.359 860.371 512.079 860.371 509.266C860.371 506.452 858.093 504.172 855.282 504.172C852.471 504.172 850.192 506.452 850.192 509.266C850.192 512.079 852.471 514.359 855.282 514.359Z" fill="#9F5621"/><path d="M849.05 518.515C851.861 518.515 854.139 516.235 854.139 513.422C854.139 510.609 851.861 508.328 849.05 508.328C846.239 508.328 843.96 510.609 843.96 513.422C843.96 516.235 846.239 518.515 849.05 518.515Z" fill="#9F5621"/><path d="M841.779 521.531C844.59 521.531 846.869 519.251 846.869 516.437C846.869 513.624 844.59 511.344 841.779 511.344C838.969 511.344 836.69 513.624 836.69 516.437C836.69 519.251 838.969 521.531 841.779 521.531Z" fill="#9F5621"/><path d="M847.908 482.449L847.285 490.973C847.285 491.077 847.389 491.181 847.492 491.181L871.382 493.675C873.875 493.883 876.056 492.012 876.264 489.517C876.471 487.022 874.602 484.839 872.109 484.632L848.219 482.137C848.116 482.241 847.908 482.345 847.908 482.449Z" fill="#9F5621"/><path d="M1032.17 669.251C1027.6 667.172 1010.98 659.064 996.854 645.55C974.938 624.448 969.121 600.85 979.508 575.278C985.948 559.581 991.037 542.637 985.324 525.485C978.781 506.046 959.357 489.206 925.808 473.925L925.6 473.821C920.615 471.846 902.957 464.569 886.546 451.471C864.007 433.591 853.101 412.177 854.97 389.516L856.736 389.724C852.581 442.115 918.641 469.247 926.224 472.158L926.431 472.262C960.5 487.75 980.235 504.903 986.882 524.861C992.803 542.637 987.61 559.893 981.066 575.902C970.887 600.746 976.6 623.72 997.996 644.198C1011.91 657.504 1028.22 665.509 1032.79 667.588L1032.17 669.251Z" fill="#232144"/><path d="M900.673 190.237C852.062 166.12 793.169 186.079 769.072 234.729C744.975 283.378 764.917 342.319 813.527 366.332C824.434 371.738 835.755 374.856 847.181 376L843.026 390.137H870.343L865.981 376.104C898.803 373.089 929.444 353.546 945.128 321.841C969.121 273.295 949.283 214.354 900.673 190.237Z" fill="#FF6200"/><path d="M1056.16 530.367C1056.16 530.367 1046.19 530.159 1041.62 543.05C1036.95 555.94 1038.3 554.172 1038.3 554.172L1051.7 549.079L1057.72 537.228L1056.16 530.367Z" fill="#232144"/><path d="M1103.32 634.737L1105.5 629.748L1100.51 627.565C1098.96 626.837 1098.33 625.07 1098.96 623.511C1099.58 621.951 1101.45 621.328 1103.01 621.951L1107.99 624.134L1110.17 619.145C1110.9 617.585 1112.67 616.962 1114.22 617.585C1115.78 618.313 1116.41 620.08 1115.78 621.639L1113.6 626.629L1118.59 628.812C1118.69 628.812 1118.69 628.916 1118.79 628.916C1123.16 625.07 1130.01 616.026 1121.08 602.408C1108.82 583.697 1090.23 555.422 1090.23 555.422L1067.07 572.366L1067.69 578.915L1094.49 612.803L1053.36 651.162C1053.36 651.162 1049.93 653.553 1047.44 653.865C1044.94 654.176 1039.65 655.632 1037.57 658.023C1035.49 660.31 1032.48 663.428 1033.21 666.443C1033.21 666.443 1027.7 671.225 1029.16 674.031C1029.16 674.031 1030.3 677.046 1032.9 676.318C1032.9 676.318 1034.04 682.763 1039.34 680.164C1039.34 680.164 1041.72 687.025 1046.81 683.907C1046.81 683.907 1048.79 688.896 1053.77 682.971C1058.76 677.046 1064.06 668.626 1066.45 666.547C1068.11 665.091 1091.06 648.667 1105.08 638.688C1104.98 638.688 1104.88 638.688 1104.77 638.584C1103.32 638.064 1102.59 636.297 1103.32 634.737Z" fill="#FF976B"/><path d="M1109.55 635.674C1110.9 634.739 1112.04 633.907 1112.98 633.179L1111 632.348L1109.55 635.674Z" fill="#FF976B"/><path d="M1118.59 628.913L1113.6 626.73L1115.78 621.74C1116.51 620.181 1115.78 618.414 1114.22 617.686C1112.67 616.958 1110.9 617.686 1110.17 619.245L1107.99 624.235L1103.01 622.052C1101.45 621.324 1099.68 622.052 1098.96 623.611C1098.23 625.17 1098.96 626.938 1100.51 627.665L1105.5 629.848L1103.32 634.838C1102.59 636.397 1103.32 638.164 1104.88 638.892C1104.98 638.892 1105.08 638.996 1105.19 638.996C1106.85 637.853 1108.3 636.709 1109.65 635.774L1111.21 632.447L1113.19 633.279C1114.85 632.031 1115.89 631.304 1115.89 631.304C1115.89 631.304 1117.24 630.576 1118.9 629.121C1118.69 629.017 1118.59 629.017 1118.59 628.913Z" fill="#E6E3DA"/><path d="M1083.48 546.066L1088.67 548.769L1095.11 560.516L1062.71 582.658L1051.8 571.847L1083.48 546.066Z" fill="#232144"/></svg>