<svg viewBox="0 0 1600 1200" fill="none" xmlns="http://www.w3.org/2000/svg"><path fill-rule="evenodd" clip-rule="evenodd" d="M799.865 1021.19L1218.44 579.469C1352.3 438.204 1269.49 196.458 1075.85 180.484C1068.3 179.861 1060.66 179.54 1052.95 179.532C941.43 179.414 845.39 245.076 800.579 339.862C755.966 244.982 660.063 179.118 548.541 179C540.833 179 533.197 179.297 525.647 179.905C331.969 195.469 248.655 437.041 382.219 578.587L799.865 1021.19Z" fill="#FCEAF1"/><path d="M1089.74 715.291L798.908 717.898L801.594 1019.37L1089.74 715.291Z" fill="#472940"/><path d="M802.624 1018.28L799.948 717.887L516.064 720.432L799.865 1021.19L802.624 1018.28Z" fill="#8F597F"/><path d="M1075.71 730.09L1087.51 600.652L879.711 581.277L867.387 716.508C862.141 774.074 904.412 825.007 961.801 830.268C968.222 830.857 974.56 830.849 980.761 830.29L1075.71 730.09Z" fill="#F99780"/><path fill-rule="evenodd" clip-rule="evenodd" d="M911.089 489.244C902.629 524.669 867.14 546.507 831.825 538.019C796.508 529.533 774.739 493.935 783.199 458.51C791.659 423.085 827.148 401.247 862.463 409.735C897.779 418.221 919.549 453.819 911.089 489.244Z" fill="#6F281C"/><path fill-rule="evenodd" clip-rule="evenodd" d="M1221.15 563.453C1212.69 598.878 1177.2 620.716 1141.88 612.228C1106.57 603.741 1084.8 568.144 1093.26 532.719C1101.72 497.294 1137.21 475.456 1172.52 483.944C1207.84 492.43 1229.61 528.028 1221.15 563.453Z" fill="#6F281C"/><path fill-rule="evenodd" clip-rule="evenodd" d="M1184.96 552.813C1179.53 575.567 1156.73 589.595 1134.05 584.144C1111.36 578.692 1097.38 555.826 1102.81 533.071C1108.25 510.315 1131.04 496.289 1153.73 501.74C1176.41 507.191 1190.4 530.058 1184.96 552.813Z" fill="#FFC2B2"/><path fill-rule="evenodd" clip-rule="evenodd" d="M906.276 485.713C900.841 508.468 878.046 522.495 855.36 517.044C832.676 511.593 818.692 488.726 824.126 465.971C829.56 443.216 852.356 429.189 875.042 434.64C897.726 440.092 911.71 462.958 906.276 485.713Z" fill="#FFC2B2"/><path fill-rule="evenodd" clip-rule="evenodd" d="M855.393 539.083L900.783 349.037C915.128 288.977 975.315 251.954 1035.21 266.346L1087.35 278.877C1147.23 293.267 1184.14 353.603 1169.8 413.649L1124.41 603.695C1110.07 663.754 1049.88 700.777 989.986 686.384L937.844 673.853C877.964 659.464 841.052 599.128 855.393 539.083Z" fill="#FFC2B2"/><path fill-rule="evenodd" clip-rule="evenodd" d="M1025.92 555.005C1023.29 550.971 1020.36 548.604 1017.21 547.965C1013.46 547.211 1010.18 549.086 1008.93 549.925C1006.96 551.237 1004.98 552.143 1003.01 552.634C998.584 553.722 993.94 553.156 989.211 550.951C984.782 548.891 980.932 545.43 977.763 540.667C976.075 538.138 974.141 536.737 971.843 536.389C967.248 535.699 962.639 539.401 962.596 539.438L959.081 535.138C959.342 534.923 965.554 529.84 972.626 530.886C976.515 531.461 979.795 533.712 982.372 537.578C984.97 541.482 988.055 544.285 991.543 545.911C995.104 547.566 998.515 548.014 1001.68 547.234C1003.02 546.901 1004.43 546.25 1005.85 545.304C1007.65 544.087 1012.51 541.338 1018.31 542.517C1022.96 543.458 1027.09 546.635 1030.56 551.96L1025.92 555.005Z" fill="#1E1515"/><path fill-rule="evenodd" clip-rule="evenodd" d="M1091.47 449.298L1093.13 449.699C1110.37 453.931 1124.52 466.47 1131.36 483.574L1041.96 461.65C1055.93 449.645 1074.24 445.067 1091.47 449.298Z" fill="#6F281C"/><path fill-rule="evenodd" clip-rule="evenodd" d="M951.466 415.652L949.809 415.258C932.53 411.194 914.251 415.941 900.428 428.079L990.02 449.168C982.995 432.118 968.744 419.716 951.466 415.652Z" fill="#6F281C"/><path fill-rule="evenodd" clip-rule="evenodd" d="M873.033 472.205L886.347 416.463C900.691 356.401 960.291 319.239 1019.47 333.459L1037.32 337.75L1053.17 341.559L1071.03 345.85C1130.2 360.072 1166.55 420.29 1152.2 480.351L1138.89 536.094L1159.9 541.144L1189.44 417.467C1204.99 352.38 1164.99 286.976 1100.1 271.383L1027.19 253.863C962.306 238.27 897.103 278.391 881.558 343.479L852.02 467.155L873.033 472.205Z" fill="#6F281C"/><path fill-rule="evenodd" clip-rule="evenodd" d="M983.172 411.154C983.172 411.154 1020.82 476.879 1064.57 406.196C1064.57 406.196 1042.88 369.953 1018.33 401.18C1018.33 401.18 1001.18 389.017 983.172 411.154Z" fill="#F33C8B"/><path fill-rule="evenodd" clip-rule="evenodd" d="M1111.17 512.663L1111.1 512.524C1109.8 509.972 1106.76 508.823 1104.11 509.897C1059.48 527.987 1039.58 482.355 1039.58 482.355C1039.58 482.355 1041.12 489.21 1045.58 497.469C1057.31 519.21 1083.4 528.907 1106.73 520.949C1107.26 520.768 1107.79 520.579 1108.32 520.378C1111.37 519.224 1112.66 515.575 1111.17 512.663Z" fill="#2F292B"/><path fill-rule="evenodd" clip-rule="evenodd" d="M904.714 463.049L904.84 462.957C907.153 461.274 910.381 461.631 912.256 463.791C943.874 500.206 982.225 468.572 982.225 468.572C982.225 468.572 977.757 473.984 970.052 479.321C949.772 493.368 922.136 490.155 904.93 472.455C904.54 472.052 904.153 471.643 903.771 471.223C901.572 468.809 902.075 464.97 904.714 463.049Z" fill="#2F292B"/><path fill-rule="evenodd" clip-rule="evenodd" d="M1155.01 452.536L1092.8 437.586C1063.67 430.584 1045.71 401.226 1052.69 372.01L1063.6 326.309L1178.56 353.936L1155.01 452.536Z" fill="#6F281C"/><path fill-rule="evenodd" clip-rule="evenodd" d="M952.642 403.9L891.205 389.135L914.754 290.535L1028.96 317.98L1018.05 363.665C1011.07 392.889 981.785 410.903 952.642 403.9Z" fill="#6F281C"/><path fill-rule="evenodd" clip-rule="evenodd" d="M834.409 510.637C832.873 517.069 836.826 523.533 843.237 525.073C849.65 526.614 856.093 522.649 857.63 516.218C859.165 509.786 855.213 503.322 848.801 501.782C842.389 500.24 835.945 504.205 834.409 510.637Z" fill="#F0F0F0"/><path fill-rule="evenodd" clip-rule="evenodd" d="M1132.2 582.2C1130.66 588.632 1134.61 595.095 1141.02 596.636C1147.44 598.176 1153.88 594.211 1155.42 587.78C1156.95 581.348 1153 574.885 1146.59 573.344C1140.18 571.803 1133.73 575.768 1132.2 582.2Z" fill="#F0F0F0"/><path fill-rule="evenodd" clip-rule="evenodd" d="M1005.5 645.218C1005.5 645.218 1046.23 709.066 1086.58 636.37C1086.58 636.37 1063.18 601.206 1040.14 633.573C1040.14 633.573 1022.43 622.244 1005.5 645.218Z" fill="#F33C8B"/><path fill-rule="evenodd" clip-rule="evenodd" d="M867.743 527.992C867.743 527.992 832.817 595.209 915.757 594.117C915.757 594.117 934.511 556.259 895.057 552.328C895.057 552.328 896.035 531.283 867.743 527.992Z" fill="#F33C8B"/><path fill-rule="evenodd" clip-rule="evenodd" d="M950.298 576.46C953.425 590.535 962.952 603.046 975.668 609.774C988.399 616.51 1004.1 617.328 1017.45 611.948C1024.06 609.288 1030.03 605.134 1034.93 599.965C1039.1 595.566 1045.38 588.006 1045.8 581.722C1041.24 582.592 1037.21 582.679 1032.65 581.42C1028.13 580.17 1023.8 578.227 1019.21 577.267C1016.73 576.75 1014.09 576.537 1011.74 577.45C1006.99 579.289 1004.12 585.348 999.032 585.427C995.948 585.474 993.388 583.224 990.886 581.417C987.389 578.89 983.363 577.007 979.092 576.436C969.463 575.15 959.113 580.473 950.286 576.407C950.289 576.425 950.293 576.443 950.298 576.46Z" fill="#891229"/><path d="M521.189 725.863L624.317 835.154C631.15 835.478 638.115 835.145 645.139 834.101C703.478 825.427 743.76 770.955 735.113 712.435L714.845 575.289L503.532 606.38L521.189 725.863Z" fill="#B87967"/><path fill-rule="evenodd" clip-rule="evenodd" d="M596.776 325.718L556.322 334.023C535.775 338.243 515.709 324.958 511.504 304.354L511.502 304.342C507.298 283.742 520.543 263.625 541.086 259.408L581.541 251.102C602.087 246.883 622.154 260.168 626.359 280.771L626.361 280.784C630.565 301.384 617.32 321.5 596.776 325.718Z" fill="#531713"/><path fill-rule="evenodd" clip-rule="evenodd" d="M795.579 465.4C800.365 488.861 785.287 511.772 761.898 516.573C738.51 521.375 715.67 506.25 710.883 482.789C706.096 459.329 721.175 436.417 744.563 431.616C767.951 426.815 790.792 441.94 795.579 465.4Z" fill="#CC8874"/><path fill-rule="evenodd" clip-rule="evenodd" d="M774.946 580.523C754.344 584.753 734.224 571.429 730.008 550.763C725.79 530.098 739.073 509.915 759.676 505.686C780.278 501.456 800.397 514.78 804.614 535.446C808.831 556.112 795.548 576.293 774.946 580.523ZM756.97 492.424C729.066 498.153 711.076 525.487 716.787 553.478C722.498 581.467 749.748 599.514 777.652 593.784C805.556 588.056 823.547 560.721 817.835 532.732C812.124 504.741 784.873 486.696 756.97 492.424Z" fill="#848AFF"/><path fill-rule="evenodd" clip-rule="evenodd" d="M513.779 523.127C518.566 546.587 503.487 569.498 480.099 574.299C456.71 579.101 433.87 563.976 429.083 540.516C424.296 517.055 439.375 494.144 462.763 489.342C486.152 484.541 508.992 499.666 513.779 523.127Z" fill="#CC8874"/><path fill-rule="evenodd" clip-rule="evenodd" d="M493.172 638.371C472.569 642.601 452.45 629.277 448.233 608.611C444.017 587.946 457.3 567.763 477.902 563.533C498.503 559.304 518.624 572.628 522.84 593.294C527.057 613.96 513.774 634.141 493.172 638.371ZM475.195 550.272C447.291 556.001 429.301 583.335 435.012 611.326C440.724 639.315 467.974 657.362 495.878 651.632C523.781 645.904 541.773 618.569 536.061 590.58C530.35 562.589 503.099 544.542 475.195 550.272Z" fill="#848AFF"/><path fill-rule="evenodd" clip-rule="evenodd" d="M488.646 595.977L448.665 400.041C436.033 338.135 475.837 277.679 537.574 265.004L591.329 253.967C653.078 241.29 713.384 281.212 726.018 343.13L765.998 539.066C778.63 600.974 738.826 661.428 677.089 674.104L623.334 685.14C561.585 697.818 501.28 657.896 488.646 595.977Z" fill="#CC8874"/><path d="M365.03 268.466C365.276 272.815 365.839 277.2 366.736 281.594C376.735 330.596 424.443 362.19 473.294 352.161C522.145 342.13 553.642 294.276 543.644 245.273C538.071 217.964 520.787 196.062 498.12 183.758C441.675 195.137 396.264 226.58 365.03 268.466Z" fill="#FFD5A4"/><path fill-rule="evenodd" clip-rule="evenodd" d="M747.131 366.521L743.785 350.123C729.472 279.98 661.158 234.756 591.207 249.117L561.319 255.253L564.664 271.651C578.976 341.794 647.292 387.019 717.242 372.657L747.131 366.521Z" fill="#FFD5A4"/><path fill-rule="evenodd" clip-rule="evenodd" d="M435.589 430.483L432.236 414.05C417.927 343.92 463.017 275.436 532.953 261.077L562.878 254.934L566.231 271.366C580.54 341.496 535.45 409.98 465.514 424.339L435.589 430.483Z" fill="#FFD5A4"/><path d="M607.289 817.108C597.506 767.465 573.336 717.965 549.319 668.778C503.806 575.564 458.842 483.476 513.384 393.677C513.734 392.609 434.178 423.566 434.178 423.566L470.99 672.663L607.289 817.108Z" fill="#FFD5A4"/><path fill-rule="evenodd" clip-rule="evenodd" d="M661.297 363.31C660.557 362.465 745.84 359.578 745.84 359.578L848.473 833.894C848.473 833.894 773.651 849.591 773.191 849.354C647.035 677.92 812.886 471.823 661.297 363.31Z" fill="#FFD5A4"/><path fill-rule="evenodd" clip-rule="evenodd" d="M619.184 560.042C610.846 560.118 605.707 554.276 603.384 549.561L591.626 551.977L590.49 546.402L607.012 543.007L607.799 545.421C608.164 546.512 611.666 556.14 621.799 554.057C632.723 551.814 631.431 541.279 631.371 540.832L631.016 538.198L646.856 534.945L647.992 540.52L637.126 542.751C636.976 548.706 633.967 557.367 622.937 559.631C621.619 559.901 620.369 560.032 619.184 560.042Z" fill="#1E1515"/><path fill-rule="evenodd" clip-rule="evenodd" d="M571.433 431.921L487.214 469.482L473.603 458.854L557.821 421.293L571.433 431.921Z" fill="#F9C990"/><path fill-rule="evenodd" clip-rule="evenodd" d="M711.06 420.465L619.059 426.023L626.262 410.302L718.263 404.742L711.06 420.465Z" fill="#F9C990"/><path fill-rule="evenodd" clip-rule="evenodd" d="M643.989 489.096C643.989 489.096 649.671 465.27 667.718 454.51C685.765 443.751 709.346 450.133 709.346 450.133C709.346 450.133 705.192 469.465 687.145 480.224C669.097 490.984 643.989 489.096 643.989 489.096Z" fill="white"/><path d="M689.914 478.434C685.538 476.109 682.194 471.913 681.124 466.666C679.613 459.264 683.083 452 689.231 448.371C690.579 448.29 691.896 448.254 693.169 448.254C701.192 448.254 707.485 449.673 708.998 450.045C709.102 450.132 709.204 450.22 709.305 450.31C708.864 452.16 704.695 468.107 689.914 478.434Z" fill="black"/><path fill-rule="evenodd" clip-rule="evenodd" d="M643.984 489.085C641.9 453.283 682.694 429.429 712.972 440.232C711.857 443.22 709.805 449.245 708.69 452.232C701.995 449.844 668.502 443.657 647.291 483.218C646.004 485.618 645.962 486.525 643.984 489.085Z" fill="black"/><path fill-rule="evenodd" clip-rule="evenodd" d="M576.32 502.641C576.32 502.641 561.763 482.969 540.951 480.188C520.141 477.407 500.958 492.569 500.958 492.569C500.958 492.569 512.348 508.709 533.159 511.49C553.97 514.272 576.32 502.641 576.32 502.641Z" fill="white"/><path fill-rule="evenodd" clip-rule="evenodd" d="M576.32 502.629C564.213 468.884 517.355 463.028 493.745 484.893C495.94 487.202 500.187 491.933 502.383 494.241C507.603 489.407 535.98 470.517 570.981 498.536C573.104 500.236 573.498 501.054 576.32 502.629Z" fill="black"/><path d="M572.39 498.08C570.135 502.722 565.83 506.299 560.397 507.415C551.109 509.321 542.04 503.314 540.139 493.999C539.141 489.11 540.316 484.281 543.001 480.52C556.409 483.058 566.993 492.379 572.39 498.08Z" fill="black"/><path fill-rule="evenodd" clip-rule="evenodd" d="M707.003 471.059L629.02 487.07L634.863 515.71L712.847 499.7L707.003 471.059Z" fill="#CC8874"/><path fill-rule="evenodd" clip-rule="evenodd" d="M583.483 496.418L512.376 511.017L518.22 539.659L589.327 525.059L583.483 496.418Z" fill="#CC8874"/><path fill-rule="evenodd" clip-rule="evenodd" d="M615.737 596.722C615.737 596.722 671.344 675.896 696.974 577.777C696.974 577.777 668.88 547.042 650.718 586.86C650.718 586.86 628.365 571.228 615.737 596.722Z" fill="#F33C8B"/></svg>