<?xml version="1.0" encoding="utf-8"?><!--Generator: Adobe Illustrator 27.8.0, SVG Export Plug-In . SVG Version: 6.00 Build 0)--><svg version="1.1" xmlns="http://www.w3.org/2000/svg" xmlns:xlink="http://www.w3.org/1999/xlink" x="0px" y="0px" viewBox="0 0 1200 840" style="enable-background:new 0 0 1200 840;" xml:space="preserve"><style type="text/css">.st0{fill:#B0C2E4;}
	.st1{fill:#738EC1;}
	.st2{fill:#D0DEF2;}
	.st3{fill:#00401E;}
	.st4{fill:#F7C7A1;}
	.st5{fill:#FAE5CA;}
	.st6{fill:#006931;}
	.st7{fill:#7D441C;}
	.st8{fill:#171111;}
	.st9{fill:#797878;}
	.st10{fill:#050203;}
	.st11{fill:#FFFFFF;}
	.st12{fill:#020204;}
	.st13{fill:#FBB03B;}
	.st14{fill:#693725;}
	.st15{fill:#C6C6C6;}
	.st16{fill:#5D2B1A;}</style><g id="Background"><polygon class="st0" points="1120.78,414.79 939.35,414.79 939.35,537.02 1005.24,537.02 1005.24,563.24 1054.89,563.24 
		1054.89,537.02 1120.78,537.02 	"/><rect x="256.61" y="423.89" class="st1" width="170.41" height="104.03"/><polygon class="st0" points="251.1,537.02 316.98,537.02 316.98,563.24 366.64,563.24 366.64,537.02 432.52,537.02 432.52,414.79 
		251.1,414.79 	"/><rect x="944.86" y="423.89" class="st1" width="170.41" height="104.03"/><polygon class="st0" points="64.42,823.87 94.02,823.87 94.02,604.25 417.72,604.25 417.72,823.87 447.32,823.87 447.08,563.19 
		64.42,563.19 	"/><polygon class="st0" points="752.92,823.87 782.52,823.87 782.52,604.25 1105.98,604.25 1105.98,823.87 1135.58,823.87 
		1135.58,563.19 752.92,563.19 	"/><path class="st2" d="M284.8,638.67V466.93c0-14.87-12.05-26.92-26.92-26.92h-91.23c-14.87,0-26.92,12.05-26.92,26.92v171.74
		c-2.97,2.97-4.81,7.08-4.81,11.62l0,0c0,9.08,7.36,16.44,16.44,16.44h46.26L147.73,794.5c-7,1.18-12.33,7.25-12.33,14.58
		c0,8.17,6.63,14.8,14.8,14.8c8.17,0,14.8-6.63,14.8-14.8c0-4.29-1.83-8.13-4.74-10.84l51.34-131.51h2.08l51.15,131.01
		c-3.24,2.72-5.3,6.79-5.3,11.34c0,8.17,6.63,14.8,14.8,14.8c8.17,0,14.8-6.63,14.8-14.8c0-7.05-4.93-12.93-11.52-14.42
		l-49.94-127.92h45.51c9.08,0,16.44-7.36,16.44-16.44l0,0C289.61,645.75,287.77,641.64,284.8,638.67z"/><path class="st2" d="M977.87,650.29L977.87,650.29c0-4.54-1.84-8.65-4.81-11.62V466.93c0-14.87-12.05-26.92-26.92-26.92h-91.23
		c-14.87,0-26.92,12.05-26.92,26.92v171.74c-2.97,2.97-4.81,7.08-4.81,11.62l0,0c0,9.08,7.36,16.44,16.44,16.44h46.26L835.99,794.5
		c-7,1.18-12.33,7.25-12.33,14.58c0,8.17,6.63,14.8,14.8,14.8c8.17,0,14.8-6.63,14.8-14.8c0-4.29-1.83-8.13-4.74-10.84l51.34-131.51
		h2.08l51.15,131.01c-3.24,2.72-5.3,6.79-5.3,11.34c0,8.17,6.63,14.8,14.8,14.8c8.17,0,14.8-6.63,14.8-14.8
		c0-7.05-4.93-12.93-11.52-14.42l-49.94-127.92h45.51C970.51,666.73,977.87,659.37,977.87,650.29z"/><rect x="251.98" y="15.87" class="st0" width="7.79" height="136.01"/><path class="st2" d="M327.26,204.51H184.49v0c0-30.58,24.79-55.38,55.38-55.38h32.01C302.46,149.14,327.26,173.93,327.26,204.51
		L327.26,204.51z"/><rect x="940.36" y="15.87" class="st0" width="7.79" height="136.01"/><path class="st2" d="M1015.64,204.51H872.87v0c0-30.58,24.79-55.38,55.38-55.38h32.01C990.84,149.14,1015.64,173.93,1015.64,204.51
		L1015.64,204.51z"/></g><g id="Father"><rect x="338.68" y="814.26" class="st3" width="70.6" height="9.5"/><path class="st4" d="M515.03,438.49c-0.36,3.94,1.02,8.08,4.5,11.09l38.78,38.43l23.87-25.7l-39.47-41.73l-11.1-50.25l-0.08,0.01
		c-1.79-9.9-10.07-17.73-20.57-18.53c-12.46-0.94-23.33,8.4-24.27,20.87c-0.54,7.23,4.34,16.71,8.54,23.42L515.03,438.49z"/><polygon class="st5" points="457.64,478.6 507.73,487.95 513.45,803.44 457.64,803.44 	"/><rect x="465.13" y="814.26" class="st3" width="40.25" height="9.5"/><path class="st6" d="M465.13,814.26c0-9.71,9.01-17.78,20.12-17.78s20.12,8.07,20.12,17.78H465.13z"/><path class="st6" d="M376.42,797.11l-31.98,9.56c-3.42,1.04-5.75,4.01-5.75,7.59l0,0h70.6v-17.15H376.42z"/><polygon class="st5" points="451.54,520.49 402.37,496.18 355.92,803.44 411.59,803.44 	"/><polygon class="st5" points="505.64,521.44 505.64,470.93 403.69,470.93 404.24,521.75 	"/><polygon class="st3" points="411.59,351.41 441.8,343.99 475.03,343.99 509.47,351.41 509.47,474.11 411.59,474.11 	"/><path class="st4" d="M385.19,416.05c0.18-11.07-2.87-28.28-0.66-39.13l0,0c3.33-23.26,20.24-24.89,20.24-24.89l10.2,36.94
		L385.19,416.05z"/><polygon class="st4" points="452.82,544.26 391.16,544.26 404.58,352.03 440.98,343.97 	"/><polygon class="st4" points="464.57,544.26 517.13,544.26 513.9,352.25 475.07,343.99 	"/><path class="st7" d="M440.96,351.18v-26.64l34.12,0.13v26.5c0,6.93-5.62,12.56-12.56,12.56h-9.01
		C446.58,363.74,440.96,358.12,440.96,351.18z"/><polygon class="st5" points="452.82,544.26 425.49,398.57 433.48,384.19 423.24,384.19 428.37,346.76 440.97,343.97 	"/><polygon class="st5" points="464.57,544.26 490.08,398.57 482.09,384.19 492.33,384.19 487.18,346.56 475.07,343.99 	"/><ellipse class="st7" cx="435.19" cy="312.28" rx="6.76" ry="6.76"/><ellipse class="st7" cx="479.74" cy="312.28" rx="6.76" ry="6.76"/><path class="st7" d="M479.67,322.37v-30.61c0-9.91-8.03-17.95-17.95-17.95h-8.53c-9.91,0-17.95,8.03-17.95,17.95v30.61
		c0,9.91,8.03,17.95,17.95,17.95h8.53C471.63,340.31,479.67,332.28,479.67,322.37z"/><path class="st8" d="M461.35,301.74c4.13-5.03,10.94-5.65,15.05,0H461.35z"/><path class="st8" d="M453.33,301.74c-4.13-5.03-10.94-5.65-15.05,0H453.33z"/><rect x="435.25" y="303.16" class="st9" width="2.55" height="18.3"/><rect x="477.26" y="303.16" class="st9" width="2.41" height="18.3"/><path class="st9" d="M435.25,336.91v-15.5h44.42v15.5c0,11.5-9.32,20.82-20.82,20.82h-2.78
		C444.57,357.73,435.25,348.41,435.25,336.91z"/><path class="st10" d="M457.4,320.17c-1.04,0-1.87-0.52-2.59-0.97c-1.19-0.75-1.92-1.2-3.36,0.24l-0.94-0.94
		c2.19-2.19,3.74-1.21,5-0.43c0.63,0.4,1.23,0.77,1.89,0.77c0.68,0,1.24-0.35,1.84-0.71c1.19-0.73,2.67-1.64,5.12,0.4l-0.85,1.02
		c-1.72-1.43-2.46-0.98-3.58-0.29C459.24,319.69,458.46,320.17,457.4,320.17z"/><path class="st3" d="M483.02,311.35l-1.69-6.52c-0.55-2.11-2.45-3.58-4.62-3.58h-13.63c-2.3,0-4.23,1.64-4.68,3.82h-2.12
		c-0.45-2.18-2.37-3.82-4.68-3.82h-13.63c-2.17,0-4.07,1.47-4.62,3.58l-1.69,6.52c-0.41,1.56,0,3.21,1.08,4.41
		c0.91,1.01,2.19,1.57,3.53,1.57c0.25,0,0.5-0.02,0.75-0.06l15.32-2.43c2.33-0.37,4.03-2.35,4.03-4.72v-2.75h1.92v2.75
		c0,2.36,1.69,4.35,4.03,4.72l15.32,2.43c0.25,0.04,0.5,0.06,0.75,0.06c1.34,0,2.62-0.56,3.53-1.57
		C483.02,314.56,483.42,312.91,483.02,311.35z M453.89,310.12c0,1.13-0.81,2.08-1.93,2.26l-15.32,2.43
		c-0.77,0.13-1.52-0.14-2.05-0.72c-0.53-0.58-0.72-1.35-0.52-2.11l1.7-6.52c0.26-1.01,1.17-1.71,2.21-1.71h13.63
		c1.26,0,2.28,1.02,2.28,2.29V310.12z M480.09,314.08c-0.53,0.58-1.28,0.85-2.05,0.72l-15.32-2.43c-1.12-0.18-1.93-1.13-1.93-2.26
		v-4.1c0-1.26,1.02-2.29,2.28-2.29h13.63c1.04,0,1.95,0.7,2.21,1.71l1.69,6.52C480.81,312.73,480.62,313.5,480.09,314.08z"/><path class="st11" d="M463.48,309.46c0.26,1.3,2.6,1.93,5.23,1.4c2.63-0.53,4.55-2.01,4.28-3.32c-0.26-1.3-2.6-1.93-5.23-1.4
		C465.14,306.67,463.22,308.16,463.48,309.46"/><path class="st12" d="M465.99,308.56c0,1.33,1.08,2.41,2.41,2.41c1.33,0,2.41-1.08,2.41-2.41c0-1.33-1.08-2.41-2.41-2.41
		C467.06,306.15,465.99,307.23,465.99,308.56"/><path class="st11" d="M452.2,309.46c-0.26,1.3-2.6,1.93-5.23,1.4c-2.63-0.53-4.55-2.01-4.28-3.32c0.26-1.3,2.6-1.93,5.23-1.4
		C450.54,306.67,452.46,308.16,452.2,309.46"/><path class="st12" d="M449.67,308.5c0,1.33-1.08,2.41-2.41,2.41c-1.33,0-2.41-1.08-2.41-2.41s1.08-2.41,2.41-2.41
		C448.59,306.09,449.67,307.17,449.67,308.5"/><path class="st7" d="M404.35,534.31L404.35,534.31c1.69-1.28,2.02-3.68,0.74-5.37l-16.95-24.81l-6.11,4.63l16.95,24.81
		C400.26,535.26,402.66,535.59,404.35,534.31z"/><g><path class="st3" d="M430.2,540.08H408v-10.89c0-4.66-3.78-8.44-8.44-8.44h-43.72c-4.66,0-8.44,3.78-8.44,8.44v10.89h-22.2
			c-2.68,0-4.85,2.17-4.85,4.85v66.99c0,2.68,2.17,4.85,4.85,4.85H430.2c2.68,0,4.85-2.17,4.85-4.85v-66.99
			C435.05,542.26,432.88,540.08,430.2,540.08z M354.61,532.14c0-2,1.62-3.62,3.62-3.62h38.94c2,0,3.62,1.62,3.62,3.62v7.95h-46.18
			V532.14z"/><path class="st6" d="M432.02,570.09H323.37c-1.68,0-3.04-1.36-3.04-3.04v-23.93c0-1.68,1.36-3.04,3.04-3.04h108.65
			c1.68,0,3.04,1.36,3.04,3.04v23.93C435.05,568.73,433.69,570.09,432.02,570.09z"/><rect x="372.36" y="562.15" class="st13" width="10.66" height="14.93"/></g><g><polygon class="st7" points="360.05,530.59 392.71,518.49 390.47,504.59 395.76,469.64 369.71,466.74 		"/><path class="st7" d="M377.68,516.61l-0.61,4l-1.64,10.81l-0.61,4c-0.32,2.09-2.27,3.53-4.36,3.22l0,0
			c-2.09-0.32-3.53-2.27-3.22-4.36l0.61-4l1.64-10.81l0.61-4c0.32-2.09,2.27-3.53,4.36-3.22h0
			C376.55,512.56,377.99,514.51,377.68,516.61z"/><path class="st7" d="M370.09,515.46l-0.61,4l-1.64,10.81l-0.61,4c-0.32,2.09-2.27,3.53-4.36,3.22l0,0
			c-2.09-0.32-3.53-2.27-3.22-4.36l0.61-4l1.64-10.81l0.61-4c0.32-2.09,2.27-3.53,4.36-3.22h0
			C368.97,511.41,370.41,513.36,370.09,515.46z"/><path class="st7" d="M385.16,517.74l-0.61,4l-1.64,10.81l-0.61,4c-0.32,2.09-2.27,3.53-4.36,3.22l0,0
			c-2.09-0.32-3.53-2.27-3.22-4.36l0.61-4l1.64-10.81l0.61-4c0.32-2.09,2.27-3.53,4.36-3.22h0
			C384.03,513.69,385.47,515.65,385.16,517.74z"/><path class="st7" d="M392.51,518.85l-0.61,4l-1.64,10.81l-0.61,4c-0.32,2.09-2.27,3.53-4.36,3.22v0
			c-2.09-0.32-3.53-2.27-3.22-4.36l0.61-4l1.64-10.81l0.61-4c0.32-2.09,2.27-3.53,4.36-3.22h0
			C391.39,514.81,392.83,516.76,392.51,518.85z"/></g><polygon class="st4" points="385.75,372.16 360.31,507.5 395.83,507.02 420.78,415.84 	"/></g><g id="Mother"><rect x="692.9" y="812.87" class="st3" width="40.19" height="10.89"/><rect x="760.25" y="812.87" class="st3" width="40.19" height="10.89"/><path class="st6" d="M692.9,813.43c0-11.11,9-20.12,20.09-20.12s20.09,9.01,20.09,20.12H692.9z"/><path class="st6" d="M760.25,813.43c0-11.11,9-20.12,20.09-20.12s20.09,9.01,20.09,20.12H760.25z"/><path class="st3" d="M687.05,378.62l4.91,55.64l97.56-0.28l4.8-1.06l25.7-5.64l6.11-1.34l-14.01-65.04
		c-0.02-0.08-0.04-0.17-0.05-0.26l-0.01-0.03h0c-2.22-9.46-10.34-16.82-20.54-17.58c-0.32-0.02-0.64-0.04-0.96-0.05l0-0.02h-25.33
		v-2.84h-44.48v2.84h-24.8l0,0.03c-0.27,0.01-0.53,0.02-0.8,0.04c-10.72,0.81-19.15,8.89-20.83,19.06L687.05,378.62z"/><path class="st4" d="M691.97,433.42c-4.3,7.8-14.37,44.97-14.37,119.66c0,0.53,2.1,248.02,2.1,248.02h61.81V519.35h5.59v281.74
		h62.38c0,0-0.18-213.72-0.03-246.11l-0.65-34.33c-3.16-54.54-16.13-81.42-19.27-87.23H691.97z"/><path class="st13" d="M768.71,531.48l109.06-38.67l-23.46-66.17c-0.95-2.69-3.9-4.09-6.59-3.14l-43.5,15.42l-0.95-2.69
		c-0.95-2.67-3.88-4.07-6.55-3.12L745.7,451.2c-2.67,0.95-4.07,3.88-3.12,6.55L768.71,531.48z"/><path class="st14" d="M829.38,504.91l-9.35-77.63l-25.7,5.64l16.92,75.88l-2.46,12.55l-0.56,2.87l-6.34,9.98
		c-1.11,1.75-0.6,4.08,1.16,5.2c1.75,1.12,4.08,0.6,5.2-1.16l1.15-1.8l4.07-6.41l-0.01,0.06c0,0,0.05-0.1,0.14-0.27l2.8-4.41
		c1.22-0.71,2.54,0.54,1.9,2.02c-0.4,0.91-1.66,3.45-2.76,5.85l-6.08,6.98l-4.32,4.95c-1.37,1.57-1.2,3.95,0.36,5.31
		c0.04,0.04,0.09,0.06,0.13,0.09c-0.46,1.24-0.28,2.68,0.64,3.76l0,0c0.81,0.96,2.01,1.4,3.17,1.31c0.76-0.06,1.51-0.34,2.14-0.88
		l12.65-10.77l8.87-21.64L829.38,504.91z"/><polygon class="st3" points="637.64,385.43 697.57,394.92 702.56,342.96 637.64,342.96 	"/><rect x="805.33" y="506.58" transform="matrix(0.9461 -0.3239 0.3239 0.9461 -120.4168 293.3053)" class="st5" width="30.9" height="3.53"/><rect x="804.74" y="501.81" transform="matrix(0.9461 -0.3239 0.3239 0.9461 -118.9031 292.8547)" class="st5" width="30.9" height="3.53"/><rect x="803.54" y="497.04" transform="matrix(0.9461 -0.3239 0.3239 0.9461 -117.4215 292.2109)" class="st5" width="30.9" height="3.53"/><path class="st15" d="M778.89,295.87c0-10.67-8.64-19.32-19.31-19.32c-10.66,0-19.31,8.65-19.31,19.32
		c0,7.84,4.67,14.59,11.38,17.61c-0.03,0.3-0.05,0.61-0.05,0.92c0,5.83,4.72,10.56,10.55,10.56s10.55-4.73,10.55-10.56
		c0-1.33-0.25-2.59-0.7-3.76C776.22,307.11,778.89,301.8,778.89,295.87z"/><path class="st15" d="M744.27,297.13c0-7.12-3.86-13.34-9.59-16.69c0.48-1.2,0.75-2.51,0.75-3.88c0-5.83-4.72-10.56-10.55-10.56
		c-5.83,0-10.55,4.73-10.55,10.56c0,1.4,0.28,2.74,0.78,3.97c-5.65,3.37-9.44,9.54-9.44,16.61c0,6.76,3.47,12.7,8.73,16.16
		c-0.04,0.37-0.06,0.74-0.06,1.12c0,5.83,4.72,10.56,10.55,10.56c5.83,0,10.55-4.73,10.55-10.56c0-0.34-0.02-0.68-0.05-1.01
		C740.73,309.96,744.27,303.96,744.27,297.13z"/><ellipse class="st14" cx="765.75" cy="310.39" rx="6.71" ry="6.71"/><ellipse class="st14" cx="720.22" cy="310.37" rx="6.71" ry="6.71"/><path class="st16" d="M726.42,341.8v-21.52l33.16-0.96v22.48c0,9.16-7.42,16.59-16.58,16.59h0
		C733.85,358.39,726.42,350.96,726.42,341.8z"/><path class="st14" d="M721.03,319.63v-31.95c0-9.88,8.01-17.89,17.89-17.89h8.16c9.88,0,17.89,8.01,17.89,17.89v31.95
		c0,9.88-8.01,17.89-17.89,17.89h-8.16C729.04,337.52,721.03,329.51,721.03,319.63z"/><path class="st12" d="M742.76,317.24c-0.86,0-1.75-0.41-2.66-1.24c-1.28-1.17-2.63,0.18-2.69,0.24l-0.63-0.62
		c0.69-0.7,2.39-1.66,3.91-0.27c1.81,1.65,3,0.95,3.83,0.16c0.94-0.91,2.54-1.34,4.16,0.19l-0.6,0.64c-1.38-1.3-2.44-0.68-2.94-0.2
		C744.37,316.88,743.58,317.24,742.76,317.24z"/><path class="st8" d="M740.99,323.49l-6.62,0.01c0.04-0.25,3.64,5.31,9.03,5.32c3.43,0.01,5.12-2,8.25-5.32h-6.56
		c-0.71,0-1.37,0.42-1.73,1.12l-0.27,0.51l-0.48-0.72C742.22,323.82,741.62,323.49,740.99,323.49z"/><path class="st11" d="M738.06,308.58c0,0-1.6-3.44-4.68-4.51c-3.08-1.07-6.47,0.63-6.47,0.63s1.28,2.59,4.36,3.66
		C734.35,309.43,738.06,308.58,738.06,308.58z"/><circle class="st12" cx="732.22" cy="305.96" r="2.67"/><path class="st12" d="M738.06,308.57c-1.46-5.02-7.41-7.3-11.68-4.72c0.26,0.42,0.43,0.73,0.69,1.14c0.94-0.57,5.85-2.55,10.3,2.79
		C737.65,308.11,737.68,308.25,738.06,308.57z"/><path class="st15" d="M725.19,300.89h10.32c2.07,0,3.75-1.68,3.75-3.75v-0.15h-10.32c-2.07,0-3.75,1.68-3.75,3.75V300.89z"/><path class="st11" d="M748.44,308.58c0,0,1.6-3.44,4.68-4.51c3.08-1.07,6.47,0.63,6.47,0.63s-1.28,2.59-4.36,3.66
		C752.15,309.43,748.44,308.58,748.44,308.58z"/><circle class="st12" cx="754.27" cy="305.96" r="2.67"/><path class="st12" d="M748.44,308.57c1.46-5.02,7.41-7.3,11.68-4.72c-0.26,0.42-0.43,0.73-0.69,1.14
		c-0.94-0.57-5.85-2.55-10.3,2.79C748.85,308.11,748.82,308.25,748.44,308.57z"/><path class="st15" d="M761.31,300.89h-10.32c-2.07,0-3.75-1.68-3.75-3.75v-0.15h10.32c2.07,0,3.75,1.68,3.75,3.75V300.89z"/><path class="st15" d="M763.29,295.42c0.83,2.07,1.3,4.33,1.3,6.7v9.12h3.45v-15.82h2.11l0-19.47c0-10.67-8.64-19.32-19.31-19.32
		c-8.73,0-16.1,5.8-18.49,13.76c-8.49,2.43-14.82,11.51-14.82,20.63v20.23h3.45v-9.12c0-7.34,4.39-13.64,10.66-16.36l-3.14-5.45
		l1.93-1.12l3.35,5.8c0,0,0,0,0.01,0c3.21,6.03,9.51,10.32,16.79,10.42H763.29z"/><polygon class="st6" points="759.59,340.08 743,358.39 757.03,377.65 765.23,342.97 765.26,340.08 	"/><polygon class="st6" points="726.41,340.08 743,358.39 728.97,377.65 720.74,342.97 720.74,340.08 	"/></g><g id="Daughter"><path class="st8" d="M602.66,258.02c-3.21,0-6.16,1.09-8.51,2.92c-2.23-1.51-4.92-2.39-7.81-2.39c-7.34,0-13.34,5.67-13.9,12.87
		c-7.24,0.51-12.96,6.53-12.96,13.9c0,2.89,0.88,5.57,2.38,7.8c-4.62,3.12-7.65,8.41-7.65,14.4c0,9.6,7.78,17.37,17.37,17.37
		c9.6,0,17.37-7.78,17.37-17.37c0-4.96-2.09-9.43-5.43-12.59c2.15-2.26,3.54-5.23,3.8-8.52c2.82-0.2,5.41-1.24,7.52-2.87
		c2.23,1.51,4.92,2.39,7.81,2.39c7.7,0,13.95-6.25,13.95-13.95S610.36,258.02,602.66,258.02z"/><path class="st8" d="M640.65,293.37c1.62-2.28,2.58-5.06,2.58-8.06c0-7.7-6.25-13.95-13.95-13.95c-7.7,0-13.95,6.25-13.95,13.95
		c0,3.59,1.37,6.86,3.6,9.33c-3.51,3.18-5.73,7.76-5.73,12.87c0,9.6,7.78,17.37,17.37,17.37c9.6,0,17.37-7.78,17.37-17.37
		C647.94,301.67,645.06,296.52,640.65,293.37z"/><path class="st7" d="M520.68,501.48l16-145.43l28.95,32.8l-26.83,116.52l2.46,12.55l0.56,2.87l6.34,9.98
		c1.11,1.75,0.6,4.08-1.16,5.2c-1.75,1.12-4.08,0.6-5.2-1.16l-1.15-1.8l-4.07-6.41l0.01,0.06c0,0-0.05-0.1-0.14-0.27l-2.8-4.41
		c-1.22-0.71-2.54,0.54-1.9,2.02c0.4,0.91,1.66,3.45,2.76,5.85l6.08,6.98l4.32,4.95c1.37,1.57,1.2,3.95-0.36,5.31
		c-0.04,0.04-0.09,0.06-0.13,0.09c0.46,1.24,0.28,2.68-0.64,3.76l0,0c-0.81,0.96-2.01,1.4-3.17,1.31c-0.76-0.06-1.51-0.34-2.14-0.88
		l-12.65-10.77l-8.87-21.64L520.68,501.48z"/><polygon class="st4" points="580,790.1 554.33,790.1 552.26,811.56 555.24,823.75 579.63,823.75 582.6,811.56 	"/><path class="st7" d="M580.49,797.64l-7.17,9.32c-2.95,3.83-8.71,3.88-11.72,0.1l-7.5-9.42l0.98-10.6h24.03L580.49,797.64z"/><polygon class="st7" points="633.98,745.91 639.07,785.57 661.95,815.04 677.24,809.25 661.16,772.11 658.82,745.91 	"/><path class="st4" d="M658.66,819.97c1.64,2.37,4.33,3.79,7.21,3.79h31.61c1.53,0,2.76-1.24,2.76-2.76v0c0-1.08-0.63-2.06-1.62-2.51
		l-21.7-9.9l0,0c-7.6,2.32-15.82-0.67-20.15-7.33l-18.97-29.13l-3.47,4.64c-3.93,5.26-3.42,11.17-3.42,18.38l0,0l0,28.63h7.85
		v-24.24c0-1.13,0.92-2.05,2.05-2.05l0,0c0.65,0,1.25,0.3,1.64,0.82L658.66,819.97z"/><polygon class="st7" points="639.34,386.58 653.11,418.08 684.27,419.98 667.53,355.32 	"/><path class="st5" d="M534.18,366.36c-0.93-12.3,8.29-23.03,20.58-23.96c12.29-0.93,23.01,8.3,23.93,20.6
		c0.93,12.3-14.08,31.27-14.08,31.27S535.1,378.67,534.18,366.36z"/><path class="st5" d="M669.43,366.36c0.93-12.3-8.29-23.03-20.58-23.96c-12.29-0.93-23.01,8.3-23.93,20.6
		c-0.93,12.3,14.08,31.27,14.08,31.27S668.5,378.67,669.43,366.36z"/><ellipse class="st7" cx="623.98" cy="309.64" rx="6.71" ry="6.72"/><ellipse class="st7" cx="578.46" cy="309.62" rx="6.71" ry="6.72"/><path class="st14" d="M584.66,343.79v-21.53l33.15,0.05v21.48c0,9.16-7.42,16.59-16.57,16.59l0,0
		C592.08,360.39,584.66,352.96,584.66,343.79z"/><path class="st7" d="M579.27,319.16v-30.99c0-9.79,7.93-17.72,17.72-17.72h8.5c9.79,0,17.72,7.93,17.72,17.72v30.99
		c0,9.79-7.93,17.72-17.72,17.72h-8.5C587.2,336.88,579.27,328.94,579.27,319.16z"/><path class="st12" d="M601.16,317.12c-0.25,0-0.51-0.03-0.78-0.08c-0.76-0.15-1.48-0.54-2.15-1.16c-0.35-0.33-0.71-0.47-1.07-0.44
		c-0.73,0.06-1.31,0.81-1.32,0.81l-0.7-0.53c0.03-0.04,0.81-1.06,1.94-1.16c0.63-0.05,1.21,0.17,1.75,0.67
		c0.55,0.51,1.13,0.82,1.72,0.94c0.61,0.12,1.15,0.07,1.61-0.17c0.2-0.1,0.39-0.25,0.57-0.45c0.23-0.25,0.88-0.86,1.82-0.89
		c0.77-0.02,1.51,0.31,2.24,1l-0.6,0.64c-0.56-0.52-1.09-0.79-1.61-0.76c-0.61,0.02-1.05,0.43-1.21,0.61
		c-0.26,0.28-0.53,0.49-0.82,0.64C602.14,317.01,601.67,317.12,601.16,317.12z"/><path class="st8" d="M601.28,323.61c0-1.88-2.88-1.63-2.88-1.63h-6.51c0.06-0.37,9.19,13.98,18.77,0h-6.51
		C604.16,321.99,601.28,321.74,601.28,323.61L601.28,323.61z"/><polygon class="st5" points="554.89,436.11 554.81,342.34 647.18,342.34 645.86,436.11 	"/><path class="st8" d="M612.09,295.23l0.27,0c2.82,0.01,5.47,1.42,7.15,3.81l0,0l-14.62-0.07l0,0
		C606.61,296.6,609.27,295.22,612.09,295.23L612.09,295.23z"/><path class="st11" d="M606.2,307.77c0,0,1.6-3.44,4.68-4.51c3.08-1.07,6.47,0.63,6.47,0.63s-1.23,2.8-4.31,3.87
		C609.96,308.84,606.2,307.77,606.2,307.77z"/><ellipse class="st12" cx="611.78" cy="305.52" rx="2.66" ry="2.67"/><path class="st12" d="M606.2,307.77c0.79-5.5,7.74-7.85,12.01-5.26c-0.26,0.42-0.76,1.27-1.02,1.69c-0.94-0.57-5.84-2.55-10.3,2.79
		C606.62,307.3,606.58,307.44,606.2,307.77z"/><path class="st8" d="M589.22,295.23l-0.27,0c-2.82,0.01-5.47,1.42-7.15,3.81l0,0l14.62-0.07l0,0
		C594.7,296.6,592.04,295.22,589.22,295.23L589.22,295.23z"/><path class="st11" d="M595.49,307.72c0,0-1.6-3.44-4.68-4.51c-3.08-1.07-6.47,0.63-6.47,0.63s1.23,2.8,4.31,3.87
		C591.74,308.79,595.49,307.72,595.49,307.72z"/><polygon class="st4" points="608.95,435.93 588.89,435.77 586.34,399.12 612.23,399.33 	"/><polygon class="st3" points="610.07,423.47 588.02,423.29 586.94,407.74 611.46,407.94 	"/><polygon class="st3" points="612.19,396.45 612.22,392.64 586.27,392.43 586.24,396.24 584,396.22 583.97,399.54 614.4,399.79 
		614.43,396.46 	"/><ellipse class="st12" cx="589.49" cy="305.28" rx="2.66" ry="2.67"/><path class="st12" d="M595.49,307.71c-0.79-5.5-7.74-7.85-12.01-5.26c0.26,0.42,0.76,1.27,1.02,1.69c0.94-0.57,5.84-2.55,10.3,2.79
		C595.08,307.25,595.11,307.39,595.49,307.71z"/><path class="st8" d="M607.19,268.82h-11.91c-10.6,0-19.19,8.6-19.19,19.21v20.16h3.43v-9.09c0-1.59,0.21-3.14,0.6-4.6h10.85
		c7.32,0,13.26-5.85,13.43-13.12h1.05c2.57,0,5.01,0.57,7.21,1.58l2.26-5.7l3.34,1.32l-2.47,6.23c4.34,3.23,7.16,8.43,7.16,14.3
		v9.09h3.43v-20.16C626.38,277.42,617.79,268.82,607.19,268.82z"/><path class="st3" d="M683.92,761.9l-17.59-224.36c-0.18-2.24-0.44-4.46-0.77-6.65c0,0,0,0,0,0c0-26.75-20.17-99.12-20.17-99.12
		l-90.67,0.26c0,0-19.13,70.1-19.13,100.66c0,0,0,0.01,0,0.01c-0.21,1.63-0.39,3.28-0.52,4.94L517.46,762
		c-1.78,22.74,16.17,42.18,38.95,42.18h0c21.39,0,38.8-17.21,39.07-38.62l3-237.64l2.13-7.87V520c0.09-0.04,0.15-0.06,0.15-0.06
		l2.13,7.87l3,237.64c0.27,21.41,17.68,38.62,39.07,38.62h0C667.75,804.07,685.7,784.63,683.92,761.9z"/><path class="st7" d="M668.56,408.34l-57.44,4.68l-0.02-2.25l-22.58-1.15l0-0.01l-2.46-0.1c-2.04-0.08-3.75,1.51-3.83,3.54l0,0
		c-0.05,1.18,0.46,2.24,1.29,2.95c-1.18,0.58-2.02,1.77-2.07,3.17l0,0c-0.06,1.57,0.86,2.94,2.22,3.53c-0.78,0.65-1.3,1.6-1.34,2.7
		l0,0c-0.05,1.33,0.61,2.53,1.65,3.22c-0.13,0.36-0.21,0.74-0.23,1.13l0,0c-0.08,1.97,1.41,3.64,3.36,3.82l0,0.14l14.09,0.07
		l67.65,4.19c8.64,0.54,15.91-6.41,15.77-15.08v0C684.48,414.33,677.11,407.64,668.56,408.34z"/><polygon class="st14" points="573.47,336.25 586.14,342.27 576.37,343.95 571.04,340.03 	"/><path class="st14" d="M557.67,350.81l-0.14,0.03c-1.5,0.28-2.93-0.71-3.21-2.21l-1.02-5.52c-0.28-1.5,0.71-2.93,2.21-3.21
		l0.14-0.03c1.5-0.28,2.93,0.71,3.21,2.21l1.02,5.52C560.15,349.1,559.16,350.53,557.67,350.81z"/><path class="st14" d="M563.45,351.4l-0.03,0.01c-1.52,0.28-2.99-0.72-3.27-2.25l-1.6-8.64c-0.28-1.52,0.72-2.99,2.25-3.27
		l0.03-0.01c1.52-0.28,2.99,0.72,3.27,2.25l1.6,8.64C565.98,349.65,564.98,351.12,563.45,351.4z"/><path class="st14" d="M569,350.36l-0.03,0.01c-1.52,0.28-2.99-0.72-3.27-2.25l-1.6-8.64c-0.28-1.52,0.72-2.99,2.25-3.27l0.03-0.01
		c1.52-0.28,2.99,0.72,3.27,2.25l1.6,8.64C571.53,348.61,570.53,350.08,569,350.36z"/><path class="st14" d="M574.59,348.29l-0.03,0.01c-1.51,0.34-3.02-0.61-3.36-2.12l-1.49-6.6c-0.34-1.51,0.61-3.01,2.12-3.36
		l0.03-0.01c1.51-0.34,3.02,0.61,3.36,2.12l1.49,6.6C577.05,346.44,576.1,347.95,574.59,348.29z"/></g></svg>