<?xml version="1.0" encoding="utf-8"?><!--Generator: Adobe Illustrator 27.8.0, SVG Export Plug-In . SVG Version: 6.00 Build 0)--><svg version="1.1" xmlns="http://www.w3.org/2000/svg" xmlns:xlink="http://www.w3.org/1999/xlink" x="0px" y="0px" viewBox="0 0 1200 840" style="enable-background:new 0 0 1200 840;" xml:space="preserve"><style type="text/css">.st0{fill:#CDDEF4;}
	.st1{fill:#E3EEFB;}
	.st2{fill:#ACC1E7;}
	.st3{fill:#89A6DB;}
	.st4{fill:#5173A8;}
	.st5{fill:#FF0079;}
	.st6{fill:#CB705C;}
	.st7{fill:#B26150;}
	.st8{fill:#181111;}
	.st9{fill:#232144;}
	.st10{fill:#D8CBC5;}
	.st11{fill:#FFFFFF;}
	.st12{fill:#FCA55F;}
	.st13{fill:#EF903D;}
	.st14{fill:#49080C;}
	.st15{fill:none;}
	.st16{fill:#020204;}
	.st17{fill:#48080C;}</style><g id="chart"><rect x="393.67" y="16" class="st0" width="425.09" height="452.79"/><rect x="403.37" y="24.74" class="st1" width="405.84" height="435.42"/><rect x="498.04" y="309.34" class="st2" width="63.09" height="70.12"/><rect x="561.13" y="252.96" class="st3" width="63.09" height="126.5"/><rect x="624.21" y="196.19" class="st4" width="63.09" height="183.26"/><polygon class="st0" points="714.4,382.02 495.48,382.02 495.48,132.77 500.6,132.77 500.6,376.89 714.4,376.89 	"/><polygon class="st5" points="518.07,262.12 513.57,259.65 552.56,188.37 583.4,201.41 627.53,131.43 659.33,145.49 701.76,94.28 
		705.7,97.55 660.8,151.75 629.51,137.91 585.41,207.83 554.83,194.9 	"/></g><g id="woman_chair"><path class="st2" d="M990.39,327.84h-89.9c-7.86,0-14.29-6.43-14.29-14.29v-37.27c0-7.86,6.43-14.29,14.29-14.29h89.9
		c7.86,0,14.29,6.43,14.29,14.29v37.27C1004.68,321.41,998.25,327.84,990.39,327.84z"/><path class="st2" d="M1016.62,347.24H874.26c-11.94,0-21.63,9.7-21.63,21.65v207.89c0,11.95,9.69,21.65,21.63,21.65h142.36
		c11.94,0,21.63-9.7,21.63-21.65V368.89C1038.25,356.94,1028.56,347.24,1016.62,347.24z"/><rect x="939.37" y="594.04" class="st2" width="12.55" height="134.9"/><polygon class="st2" points="872.32,813.04 863.03,804.57 945.69,714.61 1026.52,804.57 1017.13,813.04 945.59,733.29 	"/><path class="st3" d="M1036.31,576.58H855.99c-9.69,0-17.45,7.86-17.45,17.46l0,0c0,9.7,7.86,17.46,17.45,17.46h180.32
		c9.69,0,17.45-7.86,17.45-17.46l0,0C1053.76,584.34,1045.9,576.58,1036.31,576.58z"/><ellipse class="st3" cx="1022.64" cy="809.06" rx="15.41" ry="15.42"/><ellipse class="st3" cx="868.03" cy="809.06" rx="15.41" ry="15.42"/><path class="st6" d="M759.18,371.21L759.18,371.21c2.21-1.2,4.98-0.38,6.18,1.83l18.59,30.52l-8.01,4.35l-18.59-30.52
		C756.14,375.18,756.96,372.41,759.18,371.21z"/><path class="st6" d="M721.57,382.7L721.57,382.7c0.68-2.43,3.2-3.84,5.62-3.16l24.09,6.77l-2.47,8.78l-24.09-6.77
		C722.3,387.64,720.89,385.13,721.57,382.7z"/><polygon class="st6" points="778.35,432.12 741.33,421.72 765.34,390.36 783.95,403.56 	"/><path class="st6" d="M758.25,407.42l-4.63-1.3l-5.62-1.58l-4.63-1.3c-2.42-0.68-4.94,0.73-5.62,3.16l0,0
		c-0.68,2.42,0.73,4.94,3.15,5.62l4.63,1.3l5.62,1.58l4.63,1.3c2.42,0.68,4.94-0.73,5.62-3.16v0
		C762.09,410.62,760.68,408.1,758.25,407.42z"/><path class="st6" d="M757.83,416.88l-4.63-1.3l-5.62-1.58l-4.63-1.3c-2.42-0.68-4.94,0.73-5.62,3.16l0,0
		c-0.68,2.42,0.73,4.94,3.15,5.62l4.63,1.3l5.62,1.58l4.63,1.3c2.42,0.68,4.94-0.73,5.62-3.16v0
		C761.66,420.08,760.25,417.56,757.83,416.88z"/><path class="st6" d="M760.75,398.55l-4.63-1.3l-5.62-1.58l-4.63-1.3c-2.42-0.68-4.94,0.73-5.62,3.16l0,0
		c-0.68,2.42,0.73,4.94,3.15,5.62l4.63,1.3l5.62,1.58l4.63,1.3c2.42,0.68,4.94-0.73,5.62-3.16l0,0
		C764.58,401.75,763.17,399.23,760.75,398.55z"/><path class="st6" d="M764.63,390.06l-4.63-1.3l-5.62-1.58l-4.63-1.3c-2.42-0.68-4.94,0.73-5.62,3.16v0
		c-0.68,2.42,0.73,4.94,3.15,5.62l4.63,1.3l5.62,1.58l4.63,1.3c2.42,0.68,4.94-0.73,5.62-3.16v0
		C768.46,393.26,767.05,390.74,764.63,390.06z"/><path class="st7" d="M743.93,402.88L743.93,402.88l14.88,4.17c2.15,0.6,4.4-0.68,5.01-2.86c0.61-2.18-0.64-4.45-2.79-5.05
		l-14.88-4.18l0.27-0.97l14.88,4.18c2.69,0.75,4.25,3.58,3.49,6.29c-0.56,1.99-2.22,3.37-4.12,3.67c1.39,1.26,2.05,3.25,1.5,5.21
		c-0.48,1.69-1.74,2.95-3.27,3.48c2.27,0.98,3.57,3.39,2.92,5.7c-0.71,2.53-3.47,3.97-6.16,3.22l-14.88-4.18l0.27-0.96l14.88,4.18
		c2.15,0.6,4.36-0.53,4.92-2.53c0.56-2-0.73-4.12-2.89-4.72l-16.07-4.52l0.01-0.03l0.26-0.93l0.01-0.02l14.01,3.93
		c2.16,0.61,4.41-0.69,5.03-2.89c0.61-2.18-0.61-4.44-2.74-5.07l-14.82-4.16l0-0.01l-0.11-0.03l0.27-0.96L743.93,402.88z"/><path class="st8" d="M917.67,336.04v-53.69c0-12.46,10.1-22.56,22.56-22.56h13.28c12.46,0,22.56,10.1,22.56,22.56v53.69H917.67z"/><path class="st9" d="M862.52,379.06c1.08,15.08,37.49,34.38,37.49,34.38s18.5-23.31,17.33-38.49
		c-1.17-15.18-14.29-26.54-29.46-25.37C872.7,350.76,861.34,363.88,862.52,379.06"/><polygon class="st9" points="891.79,472.89 890.12,349.58 1003.86,349.58 995.25,472.89 	"/><path class="st7" d="M967.25,352.52v-17.63l-39.45,0.29v17.34l11.79,37.25c2.28,7.22,12.49,7.21,14.77-0.01L967.25,352.52z"/><path class="st9" d="M1029.21,379.06c-1.08,15.08-37.49,34.38-37.49,34.38s-18.5-23.31-17.33-38.49s14.29-26.54,29.46-25.37
		C1019.03,350.76,1030.39,363.88,1029.21,379.06"/><path class="st9" d="M871.72,553.3c0,13.42,10.87,24.19,24.18,24.19h97.69c13.31,0,24.18-10.87,24.18-24.19V553
		c0-81.68-29.56-89.91-29.56-89.91h-90.25C897.95,463.09,871.72,488.07,871.72,553.3L871.72,553.3z"/><path class="st9" d="M869.96,470.24L869.96,470.24c11.65,2.94,23.79-2.45,29.56-13.03l32.4-59.55l-68.91-27.23l-12.72,69.34
		C847.74,453.49,856.45,466.91,869.96,470.24z"/><path class="st7" d="M937.4,767.59L932.8,572c-0.39-15.96,12.43-29.09,28.39-29.09l0,0c17.23,0,30.44,15.18,28.19,32.22
		l-25.84,192.74l3.03,32.81h-33.38L937.4,767.59z"/><polygon class="st5" points="932.11,809.8 935.54,824 964.02,824 967.55,809.8 965.1,784.73 935.15,784.73 	"/><path class="st7" d="M936.22,776.3h28.09l1.17,12.34l-8.71,10.97c-3.52,4.41-10.28,4.41-13.7-0.1l-8.42-10.87L936.22,776.3z"/><path class="st6" d="M963.73,556.23c7.63-14.5,1.08-32.42-14.1-38.49l0,0c-14.39-5.78-30.74,1.47-36.12,15.96L840.3,730.76
		l-33.57,33.3l14.1,12.93l37.59-22.04L963.73,556.23z"/><path class="st5" d="M849.21,767.29c0.69-0.39,1.47-0.49,2.15-0.2l0,0c1.27,0.49,1.86,1.86,1.37,3.13l-10.57,26.35l8.52,3.43
		l12.43-31.05l0,0c3.13-7.84,6.26-14.01,4.31-21.45l-1.76-6.56l-33.18,23.31c-7.63,5.39-17.81,4.99-25.06-0.78l0,0l-27.8,1.27
		c-1.27,0.1-2.35,0.88-2.84,2.06l0,0c-0.69,1.66,0.1,3.53,1.76,4.21l34.26,13.71c3.13,1.27,6.66,0.88,9.49-0.98L849.21,767.29z"/><ellipse class="st6" cx="919.68" cy="308.84" rx="8.03" ry="8.03"/><ellipse class="st10" cx="919.17" cy="315.93" rx="3.75" ry="3.76"/><ellipse class="st6" cx="973.81" cy="308.84" rx="8.03" ry="8.03"/><ellipse class="st10" cx="974.43" cy="315.93" rx="3.75" ry="3.76"/><path class="st6" d="M973.13,320.69c0,11.65-9.4,21.06-21.05,21.06H941.9c-11.65,0-21.04-9.4-21.04-21.06v-36.83
		c0-11.65,9.4-21.06,21.04-21.06h10.18c11.65,0,21.05,9.4,21.05,21.06V320.69"/><path class="st8" d="M945.23,317.85c0.49,0.24,1,0.29,1.86,0.29c0.29,0,0.69,0,0.98-0.1c0.88-0.2,1.76-0.59,2.54-1.37
		c0.49-0.39,0.88-0.49,1.27-0.49c0.88,0.1,1.57,0.98,1.57,0.98l0.88-0.69c0,0-0.98-1.27-2.35-1.37c-0.78-0.1-1.47,0.2-2.15,0.78
		c-0.69,0.59-1.37,0.98-2.06,1.08c-0.69,0.2-1.37,0.1-1.86-0.2l0,0c-0.2-0.1-0.49-0.29-0.69-0.49c-0.29-0.29-1.08-1.08-2.25-1.08
		c-0.88-0.1-1.86,0.29-2.74,1.18l0.78,0.88c0.69-0.59,1.27-0.98,1.86-0.88c0.69,0,1.17,0.49,1.37,0.69
		C944.55,317.46,944.84,317.65,945.23,317.85"/><path class="st9" d="M951.53,326.59c-0.18-1.23-3.12-0.67-3.12-0.67l-6.46,1.47c0,0,5.22,5.18,10.56,3.96c5.45-1.24,7.95-8.4,8-8.2
		l-6.46,1.47C954.05,324.63,951.21,325.18,951.53,326.59"/><path class="st8" d="M953.84,298.56h10.68c1.99,0,3.61-1.62,3.61-3.61v0h-10.68C955.46,294.95,953.84,296.56,953.84,298.56
		L953.84,298.56z"/><path class="st8" d="M930.44,293.5h10.68v0c0-1.99-1.62-3.61-3.61-3.61h-10.68v0C926.83,291.89,928.44,293.5,930.44,293.5z"/><path class="st11" d="M940.24,306.1c-1.74-2.07-3.54-3.2-5.21-3.77c0.1,0.3,0.17,0.62,0.17,0.96c0,1.47-1.03,2.69-2.41,2.99
		c0.1,0.04,0.2,0.08,0.3,0.12c3.62,1.27,7.93,0.69,7.93,0.69C940.63,306.68,940.53,306.49,940.24,306.1z"/><path class="st11" d="M929.28,302.23c-0.59,0.19-1.04,0.39-1.28,0.53c0.23,0.31,0.63,0.8,1.21,1.33c-0.07-0.26-0.12-0.53-0.12-0.81
		C929.09,302.91,929.16,302.56,929.28,302.23z"/><polygon class="st6" points="872.28,426.96 779.45,401.82 773.69,430.77 860.82,466.05 	"/><ellipse class="st6" cx="865.82" cy="446.3" rx="20.38" ry="20.39"/><path class="st6" d="M1009.87,508.19L1009.87,508.19c-0.01-2.3,1.84-4.17,4.13-4.19l21.65-1.22l0.05,8.32l-21.65,1.22
		C1011.76,512.34,1009.89,510.49,1009.87,508.19z"/><polygon class="st6" points="1043.84,527.12 1031.27,540.04 1011.18,512.47 1030.84,503.05 	"/><path class="st6" d="M1022.56,525.08l-3.04,3.17l-3.69,3.84l-3.04,3.17c-1.59,1.66-1.54,4.29,0.12,5.88l0,0
		c1.66,1.59,4.29,1.54,5.88-0.12l3.04-3.17l3.69-3.84l3.04-3.17c1.59-1.66,1.54-4.29-0.12-5.88l0,0
		C1026.78,523.37,1024.15,523.42,1022.56,525.08z"/><path class="st6" d="M1029.87,529.39l-3.04,3.17l-3.69,3.84l-3.04,3.17c-1.59,1.66-1.54,4.29,0.12,5.88l0,0
		c1.66,1.59,4.29,1.54,5.88-0.12l3.04-3.17l3.69-3.84l3.04-3.17c1.59-1.66,1.54-4.29-0.12-5.88v0
		C1034.09,527.68,1031.46,527.73,1029.87,529.39z"/><path class="st6" d="M1016.56,519.32l-3.04,3.17l-3.69,3.84l-3.04,3.17c-1.59,1.66-1.54,4.29,0.12,5.88l0,0
		c1.66,1.59,4.29,1.54,5.88-0.12l3.04-3.17l3.69-3.84l3.04-3.17c1.59-1.66,1.54-4.29-0.12-5.88l0,0
		C1020.79,517.61,1018.16,517.66,1016.56,519.32z"/><path class="st6" d="M1011.66,512.78l-3.04,3.17l-3.69,3.84l-3.04,3.17c-1.59,1.66-1.54,4.29,0.12,5.88l0,0
		c1.66,1.59,4.29,1.54,5.88-0.12l3.04-3.17l3.69-3.84l3.04-3.17c1.59-1.66,1.54-4.29-0.12-5.88h0
		C1015.89,511.07,1013.25,511.13,1011.66,512.78z"/><polygon class="st6" points="1009.87,508.19 1008.99,515.56 1019.07,510.5 	"/><path class="st8" d="M919.68,292.16V280.4c0-11.39,9.23-20.61,20.61-20.61h6.98v11.75c0,11.39-9.23,20.61-20.61,20.61H919.68z"/><path class="st8" d="M974.06,292.16v-11.79c0-11.37-9.22-20.58-20.58-20.58h-5.4v11.79c0,11.37,9.22,20.58,20.58,20.58H974.06z"/><path d="M953.69,303.74l0.02-0.02c0.37-0.43,1.01-0.51,1.47-0.18c7.79,5.56,13.75-2.32,13.75-2.32s-0.61,1.25-1.86,2.64
		c-3.27,3.65-8.76,4.31-12.9,1.69c-0.09-0.06-0.19-0.12-0.28-0.18C953.35,305,953.27,304.24,953.69,303.74"/><path class="st6" d="M1074.47,430.22c3.4-9-0.97-19.07-9.86-22.74l0,0c-10.26-4.23-21.85,1.87-24.17,12.74l-16.47,91.08
		l19.87,15.82L1074.47,430.22z"/><path class="st9" d="M1069.35,439.2L1069.35,439.2c-7.89,9.06-20.93,11.57-31.7,6.18l-60.57-30.4l44.15-57.44l46.9,45.41
		C1078.05,412.76,1078.62,428.7,1069.35,439.2z"/><path class="st10" d="M929.03,351.97c0-1.54-1.25-2.79-2.79-2.79c-1.54,0-2.79,1.25-2.79,2.79c0,1.54,1.25,2.79,2.79,2.79
		C927.79,354.76,929.03,353.51,929.03,351.97z"/><path class="st10" d="M944.74,358.85c-1.04,0-1.93,0.57-2.41,1.41c-0.24-1.3-1.37-2.28-2.74-2.28c-0.88,0-1.66,0.42-2.17,1.05
		c0-0.06,0.02-0.12,0.02-0.19c0-1.54-1.25-2.79-2.79-2.79c-0.76,0-1.46,0.31-1.96,0.81c0.08-0.26,0.13-0.52,0.13-0.81
		c0-1.54-1.25-2.79-2.79-2.79s-2.79,1.25-2.79,2.79c0,1.54,1.25,2.79,2.79,2.79c0.76,0,1.46-0.31,1.96-0.81
		c-0.08,0.26-0.13,0.52-0.13,0.81c0,1.54,1.25,2.79,2.79,2.79c0.88,0,1.66-0.42,2.17-1.05c0,0.06-0.02,0.12-0.02,0.19
		c0,1.54,1.25,2.79,2.79,2.79c1.04,0,1.93-0.57,2.41-1.41c0.24,1.3,1.37,2.28,2.74,2.28c1.54,0,2.79-1.25,2.79-2.79
		C947.53,360.1,946.28,358.85,944.74,358.85z"/><path class="st10" d="M968.82,349.17c-1.54,0-2.79,1.25-2.79,2.79c0,1.54,1.25,2.79,2.79,2.79s2.79-1.25,2.79-2.79
		C971.61,350.42,970.36,349.17,968.82,349.17z"/><path class="st10" d="M965.03,353.27c-1.54,0-2.79,1.25-2.79,2.79c0,0.28,0.05,0.55,0.13,0.81c-0.5-0.5-1.2-0.81-1.96-0.81
		c-1.54,0-2.79,1.25-2.79,2.79c0,0.06,0.01,0.12,0.02,0.19c-0.51-0.64-1.29-1.05-2.17-1.05c-1.37,0-2.5,0.98-2.74,2.28
		c-0.48-0.84-1.38-1.41-2.41-1.41c-1.54,0-2.79,1.25-2.79,2.79c0,1.54,1.25,2.79,2.79,2.79c1.37,0,2.5-0.98,2.74-2.28
		c0.48,0.84,1.38,1.41,2.41,1.41c1.54,0,2.79-1.25,2.79-2.79c0-0.06-0.01-0.12-0.02-0.19c0.51,0.64,1.29,1.05,2.17,1.05
		c1.54,0,2.79-1.25,2.79-2.79c0-0.28-0.05-0.55-0.13-0.81c0.5,0.5,1.2,0.81,1.96,0.81c1.54,0,2.79-1.25,2.79-2.79
		C967.82,354.52,966.57,353.27,965.03,353.27z"/><path d="M935.2,303.28c0-0.34-0.07-0.66-0.17-0.96c-2.34-0.81-4.42-0.51-5.75-0.09c-0.12,0.33-0.2,0.68-0.2,1.05
		c0,0.28,0.05,0.55,0.12,0.81c0.81,0.75,1.98,1.59,3.58,2.17C934.17,305.97,935.2,304.75,935.2,303.28z"/><path d="M926.83,300.74c0.29,0.59,0.88,1.57,1.17,2.06l0,0c1.17-0.69,6.95-2.94,12.24,3.33c0.29,0.39,0.44,0.56,0.78,0.98l0,0
		C940.04,300.55,931.82,297.71,926.83,300.74z"/></g><g id="woman_left"><path class="st12" d="M384.82,364.27l51.37-88.68l-12.22-23.96l-73.36,92.37c-7.12,10.91-3.17,25.39,8.24,30.24
		C368.43,378.31,379.75,373.96,384.82,364.27"/><path class="st12" d="M456.57,227.18L456.57,227.18c-1.8-1.76-4.69-1.72-6.44,0.09l-26.15,24.35l6.53,6.36l26.15-24.35
		C458.42,231.82,458.38,228.93,456.57,227.18z"/><path class="st12" d="M489.67,248.41L489.67,248.41c0-2.52-2.04-4.56-4.56-4.56h-25.02v9.12h25.02
		C487.63,252.97,489.67,250.93,489.67,248.41z"/><polygon class="st12" points="421.63,280.63 460.09,280.63 445.45,243.95 423.97,251.62 	"/><path class="st12" d="M447.67,262.29h4.81h5.84h4.81c2.52,0,4.56,2.04,4.56,4.56v0c0,2.52-2.04,4.56-4.56,4.56h-4.81h-5.84h-4.81
		c-2.52,0-4.56-2.04-4.56-4.56v0C443.11,264.33,445.15,262.29,447.67,262.29z"/><path class="st12" d="M445.52,271.51h4.81h5.84h4.81c2.52,0,4.56,2.04,4.56,4.56l0,0c0,2.52-2.04,4.56-4.56,4.56h-4.81h-5.84h-4.81
		c-2.52,0-4.56-2.04-4.56-4.56l0,0C440.96,273.55,443,271.51,445.52,271.51z"/><path class="st12" d="M447.67,253.07h4.81h5.84h4.81c2.52,0,4.56,2.04,4.56,4.56v0c0,2.52-2.04,4.56-4.56,4.56h-4.81h-5.84h-4.81
		c-2.52,0-4.56-2.04-4.56-4.56v0C443.11,255.11,445.15,253.07,447.67,253.07z"/><path class="st12" d="M446.22,243.85h4.81h5.84h4.81c2.52,0,4.56,2.04,4.56,4.56v0c0,2.52-2.04,4.56-4.56,4.56h-4.81h-5.84h-4.81
		c-2.52,0-4.56-2.04-4.56-4.56v0C441.67,245.89,443.71,243.85,446.22,243.85z"/><path class="st12" d="M462.68,262.29h-4.81h-5.84h-4.81c-2.52,0-4.56-2.06-4.56-4.61l0,0c0-2.55,2.04-4.61,4.56-4.61h4.81h5.84
		h4.81"/><path class="st13" d="M462.68,261.79L462.68,261.79l-15.45-0.01c-2.24,0-4.05-1.84-4.05-4.11s1.82-4.11,4.05-4.11h15.45v-1.01
		h-15.45c-2.79,0-5.06,2.29-5.06,5.11c0,2.07,1.23,3.84,2.98,4.65c-1.68,0.84-2.86,2.58-2.86,4.61c0,1.76,0.87,3.31,2.2,4.24
		c-2.45,0.33-4.35,2.3-4.35,4.7c0,2.63,2.27,4.76,5.06,4.76h15.45v-1H445.2c-2.24,0-4.06-1.69-4.06-3.76c0-2.08,1.82-3.76,4.06-3.76
		h16.69v-0.03v-0.97v-0.03h-14.55c-2.24,0-4.06-1.86-4.06-4.14c0-2.27,1.79-4.11,4.01-4.14h15.39v-0.01h0.11v-1H462.68z"/><path class="st5" d="M339.92,339.34L374,291.55c9.55-13.39,28.41-15.96,41.2-5.61l0.07,0.05c11.75,9.51,14.06,26.54,5.26,38.84
		l-34.15,47.73c-9.71,13.58-28.94,15.96-41.67,5.17l0,0C333.37,368.12,331.29,351.43,339.92,339.34z"/><polygon class="st9" points="262,779.92 228.83,779.92 226.16,807.67 230.01,823.44 261.53,823.44 265.37,807.67 	"/><path class="st12" d="M262.53,784.36l-9.27,12.05c-3.81,4.95-11.25,5.02-15.14,0.13l-9.69-12.18l1.27-13.71h31.05L262.53,784.36z"/><path class="st12" d="M348.41,774.07l29.57,38.1l19.76-7.48l-20.78-48.03l-19.75-232.63c0.43-17.15-13.34-31.28-30.49-31.28h0
		c-18.12,0-32.25,15.72-30.33,33.75L348.41,774.07z"/><path class="st9" d="M373.72,818.55c2.12,3.07,5.6,4.9,9.32,4.9l40.85,0c1.97,0,3.57-1.6,3.57-3.57l0,0c0-1.4-0.82-2.67-2.09-3.25
		l-28.05-12.81l0,0c-9.82,3-20.44-0.87-26.05-9.48l-24.52-37.67l-4.48,6c-5.08,6.8-4.42,14.44-4.42,23.76v0v37.02h10.14v-31.35
		c0-1.46,1.19-2.65,2.65-2.65l0,0c0.83,0,1.62,0.39,2.12,1.06L373.72,818.55z"/><polygon class="st13" points="260.76,242.4 260.76,211.29 300.4,211.37 300.4,242.4 	"/><ellipse class="st14" cx="278.93" cy="141.9" rx="18.16" ry="18.17"/><ellipse class="st14" cx="250.79" cy="140.24" rx="12.93" ry="12.94"/><ellipse class="st14" cx="233.14" cy="149.63" rx="9.71" ry="9.72"/><ellipse class="st12" cx="307.78" cy="196.19" rx="8.02" ry="8.03"/><ellipse class="st12" cx="253.35" cy="196.17" rx="8.02" ry="8.03"/><path class="st9" d="M307.13,199.82L307.13,199.82c-3.99,0-7.22,3.23-7.22,7.22v7.14c0,3.99,3.23,7.22,7.22,7.22h0
		c3.99,0,7.22-3.23,7.22-7.22v-7.14C314.35,203.05,311.12,199.82,307.13,199.82z M312.27,213.47c0,3.2-2.3,5.79-5.14,5.79h0
		c-2.84,0-5.14-2.59-5.14-5.79v-5.73c0-3.2,2.3-5.79,5.14-5.79h0c2.84,0,5.14,2.59,5.14,5.79V213.47z"/><path class="st9" d="M254.55,199.82L254.55,199.82c-3.99,0-7.22,3.23-7.22,7.22v7.14c0,3.99,3.23,7.22,7.22,7.22h0
		c3.99,0,7.22-3.23,7.22-7.22v-7.14C261.77,203.05,258.54,199.82,254.55,199.82z M259.69,213.47c0,3.2-2.3,5.79-5.14,5.79h0
		c-2.84,0-5.14-2.59-5.14-5.79v-5.73c0-3.2,2.3-5.79,5.14-5.79h0c2.84,0,5.14,2.59,5.14,5.79V213.47z"/><path class="st12" d="M254.31,208.35v-37.02c0-11.7,9.48-21.18,21.18-21.18h10.18c11.7,0,21.18,9.48,21.18,21.18v37.02
		c0,11.7-9.48,21.18-21.18,21.18h-10.18C263.8,229.53,254.31,220.05,254.31,208.35z"/><path class="st8" d="M280.48,205.15c-0.3,0-0.61-0.03-0.93-0.1c-0.91-0.18-1.77-0.65-2.57-1.39c-0.42-0.39-0.85-0.56-1.29-0.53
		c-0.87,0.08-1.56,0.96-1.57,0.97l-0.84-0.63c0.04-0.05,0.97-1.26,2.31-1.38c0.74-0.06,1.45,0.2,2.09,0.8
		c0.65,0.6,1.34,0.98,2.06,1.13c0.73,0.15,1.38,0.08,1.93-0.2c0.23-0.12,0.46-0.3,0.69-0.54c0.28-0.3,1.06-1.02,2.18-1.07
		c0.91-0.03,1.8,0.37,2.68,1.2l-0.72,0.77c-0.66-0.63-1.29-0.93-1.92-0.91c-0.72,0.03-1.25,0.52-1.44,0.73
		c-0.31,0.33-0.63,0.58-0.98,0.76C281.66,205.01,281.09,205.15,280.48,205.15z"/><path class="st5" d="M285.08,212.95c-0.51-2.19-3.79-1.11-3.79-1.11l-7.57,1.78c-0.03-0.44,14.51,13.75,21.85-5.13l-7.57,1.78
		C287.98,210.27,284.56,210.76,285.08,212.95L285.08,212.95z"/><path class="st15" d="M272.74,192.3c0.64,0.91,0.97,1.61,0.97,1.61S273.38,193.21,272.74,192.3z"/><path class="st15" d="M273.71,193.91c0,0-0.93,0.26-2.28,0.43C272.78,194.17,273.71,193.91,273.71,193.91z"/><path class="st15" d="M265.54,193.91c0.36,0.13,0.73,0.22,1.1,0.3C266.27,194.13,265.9,194.03,265.54,193.91z"/><path class="st15" d="M267.9,194.4c-0.38-0.04-0.76-0.09-1.14-0.17C267.14,194.31,267.52,194.36,267.9,194.4z"/><path class="st11" d="M266.76,194.23c0.38,0.08,0.76,0.13,1.14,0.17c0,0,0,0,0,0c-0.88-0.57-1.47-1.55-1.47-2.68
		c0-1.4,0.91-2.58,2.17-3.01c-0.16-0.07-0.32-0.14-0.48-0.2c-3.68-1.28-7.73,0.76-7.73,0.76s1.47,3.35,5.15,4.63
		c0.36,0.13,0.73,0.22,1.1,0.3C266.68,194.21,266.72,194.22,266.76,194.23z"/><path class="st11" d="M271.43,194.34C271.43,194.34,271.43,194.34,271.43,194.34c1.36-0.17,2.29-0.43,2.29-0.43
		s-0.33-0.7-0.97-1.61c0,0,0,0,0,0C272.59,193.14,272.11,193.87,271.43,194.34z"/><path class="st16" d="M267.9,194.4c0.95,0.1,1.88,0.08,2.71,0.02C269.78,194.48,268.85,194.5,267.9,194.4z"/><path class="st16" d="M271.43,194.34c-0.24,0.03-0.5,0.06-0.76,0.08C270.93,194.39,271.19,194.37,271.43,194.34z"/><path class="st16" d="M272.41,191.84c0.12,0.15,0.23,0.3,0.33,0.45C272.64,192.15,272.53,192,272.41,191.84z"/><path class="st16" d="M272.39,191.82c-0.86-1.11-2.13-2.39-3.79-3.11C270.27,189.44,271.54,190.71,272.39,191.82z"/><path class="st16" d="M266.43,191.72c0,1.13,0.59,2.11,1.47,2.68c0,0,0,0,0,0c0.95,0.1,1.88,0.08,2.71,0.02c0.02,0,0.03,0,0.05,0
		c0.27-0.02,0.52-0.05,0.76-0.08c0,0,0,0,0,0c0.68-0.47,1.16-1.2,1.31-2.04c0,0,0,0,0,0c-0.1-0.14-0.21-0.29-0.33-0.45
		c-0.01-0.01-0.01-0.01-0.02-0.02c-0.86-1.11-2.13-2.39-3.79-3.11c0,0,0,0,0,0C267.34,189.14,266.43,190.32,266.43,191.72z"/><path class="st16" d="M273.72,193.91c-0.95-6.57-9.25-9.38-14.35-6.29c0.31,0.5,0.91,1.52,1.22,2.02
		c1.13-0.68,6.99-3.05,12.31,3.33C273.22,193.35,273.26,193.51,273.72,193.91z"/><rect x="258.86" y="182.42" class="st17" width="17.48" height="3.25"/><rect x="284.92" y="179.17" class="st17" width="17.48" height="3.25"/><path class="st17" d="M306.51,181.88c-0.53-11.22-9.68-20.15-20.9-20.15h-3.49v-6.55h-3.1v6.55h-3.49
		c-11.21,0-20.37,8.93-20.9,20.15l-0.02,15.79h-4.11v-15.79v-12.2c0-12.68,10.27-22.96,22.94-22.96h14.24
		c12.67,0,22.94,10.28,22.94,22.96v12.2v15.79h-4.18L306.51,181.88z"/><polygon class="st5" points="390.75,357.9 363.96,260.42 294.06,282.45 336.83,366.99 	"/><polygon class="st5" points="224.99,353.67 222.45,237.63 336.83,237.63 335.19,353.67 	"/><path class="st10" d="M205.94,444.09c1.51-37.2,24.97-51.83,59.18-51.83h12.09l-1.69,398.18h-89.91L205.94,444.09z"/><polygon class="st10" points="424.56,791.35 329.48,790.43 275.97,392.25 350.84,404.98 	"/><path class="st10" d="M205.94,444.09c5.32-60.84,22.85-90.57,22.85-90.57h102.1c0,0,21.34,23.63,24.43,90.88
		c0.69,14.95-75.21-3.62-75.21-3.62S204.63,459.17,205.94,444.09z"/><path class="st5" d="M196.9,267.36c-1.15-15.23,10.26-28.5,25.48-29.65s28.49,10.27,29.63,25.49c1.15,15.23-17.44,38.7-17.44,38.7
		S198.05,282.59,196.9,267.36z"/><path class="st5" d="M364.37,267.36c1.15-15.23-10.26-28.5-25.48-29.65s-28.49,10.27-29.63,25.49s17.44,38.7,17.44,38.7
		S363.22,282.59,364.37,267.36z"/><path class="st14" d="M307.45,177.97h-54.42v-9.6c0-8.24,6.68-14.93,14.93-14.93h24.57c8.24,0,14.93,6.68,14.93,14.93V177.97z"/><path class="st12" d="M214.09,400.09L214.09,400.09c0.02-2.3-1.83-4.18-4.13-4.19l-21.65-1.26l-0.07,8.32l21.65,1.26
		C212.19,404.24,214.07,402.39,214.09,400.09z"/><polygon class="st12" points="173.02,411.8 197.04,437.28 220.29,414.49 193.13,394.91 	"/><path class="st12" d="M201.05,417.27l3.03,3.17l3.68,3.85l3.03,3.17c1.59,1.66,1.53,4.29-0.13,5.88l0,0
		c-1.66,1.59-4.29,1.53-5.88-0.13l-3.03-3.17l-3.68-3.85l-3.03-3.17c-1.59-1.66-1.53-4.29,0.13-5.88h0
		C196.83,415.55,199.46,415.61,201.05,417.27z"/><path class="st12" d="M193.63,421.67l3.03,3.17l3.68,3.85l3.03,3.17c1.59,1.66,1.53,4.29-0.13,5.88h0
		c-1.66,1.59-4.29,1.53-5.88-0.13l-3.03-3.17l-3.68-3.85l-3.03-3.17c-1.59-1.66-1.53-4.29,0.13-5.88h0
		C189.4,419.95,192.04,420.01,193.63,421.67z"/><path class="st12" d="M207.13,411.45l3.03,3.17l3.68,3.85l3.03,3.17c1.59,1.66,1.53,4.29-0.13,5.88l0,0
		c-1.66,1.59-4.29,1.53-5.88-0.13l-3.03-3.17l-3.68-3.85l-3.03-3.17c-1.59-1.66-1.53-4.29,0.13-5.88l0,0
		C202.91,409.73,205.54,409.79,207.13,411.45z"/><path class="st12" d="M212.29,404.68l3.03,3.17l3.68,3.85l3.03,3.17c1.59,1.66,1.53,4.29-0.13,5.88h0
		c-1.66,1.59-4.29,1.53-5.88-0.13l-3.03-3.17l-3.68-3.85l-3.03-3.17c-1.59-1.66-1.53-4.29,0.13-5.88h0
		C208.07,402.96,210.7,403.02,212.29,404.68z"/><polygon class="st12" points="214.09,400.09 214.96,407.47 197.92,404.57 	"/><path class="st12" d="M121.35,342.07c-6.3-7.26-5.69-18.22,1.38-24.74l0,0c8.16-7.53,21.15-5.82,27.08,3.57l46.98,79.73
		l-23.77,11.17L121.35,342.07z"/><path class="st5" d="M123.69,304.36l81.6-59.53l39.87,62.67l-86.93,47.15c-17.06,10.5-39.44,1.99-45.22-17.2l0,0
		C109.34,325.26,113.6,312.08,123.69,304.36z"/><path class="st11" d="M294.65,193.98C294.66,193.98,294.66,193.98,294.65,193.98c-1.22-0.45-2.09-1.61-2.09-2.99
		c0-1.23,0.71-2.29,1.73-2.82c-0.33,0.02-0.66,0.06-1,0.11c-0.06,0.01-0.12,0.02-0.18,0.03c-0.33,0.06-0.66,0.15-0.99,0.26
		c-3.68,1.28-5.6,5.39-5.6,5.39S290.98,195.24,294.65,193.98z"/><path class="st11" d="M298.91,190.84c0.06-0.08,0.11-0.16,0.17-0.23c0.02-0.03,0.05-0.06,0.07-0.09c0.05-0.07,0.1-0.14,0.14-0.21
		c0.02-0.03,0.04-0.06,0.06-0.09c0.04-0.06,0.08-0.13,0.12-0.18c0.02-0.03,0.03-0.05,0.05-0.08c0.03-0.06,0.06-0.11,0.09-0.16
		c0.01-0.02,0.03-0.05,0.04-0.07c0.03-0.05,0.05-0.09,0.07-0.13c0.01-0.02,0.02-0.04,0.03-0.05c0.02-0.03,0.03-0.07,0.05-0.09
		c0.01-0.02,0.02-0.03,0.02-0.05c0.01-0.02,0.02-0.04,0.02-0.05c0.01-0.02,0.01-0.03,0.01-0.03s-0.02-0.01-0.04-0.02
		c-0.02-0.01-0.04-0.02-0.07-0.03c-0.01-0.01-0.02-0.01-0.04-0.02c-0.04-0.02-0.09-0.04-0.14-0.06c-0.01-0.01-0.03-0.01-0.04-0.02
		c-0.06-0.02-0.12-0.05-0.19-0.08c-0.02-0.01-0.04-0.02-0.06-0.02c-0.07-0.03-0.15-0.06-0.23-0.09c-0.02-0.01-0.05-0.02-0.08-0.03
		c-0.09-0.03-0.18-0.07-0.27-0.1c-0.03-0.01-0.06-0.02-0.09-0.03c-0.1-0.03-0.21-0.07-0.32-0.1c-0.03-0.01-0.06-0.02-0.09-0.03
		c-0.12-0.04-0.24-0.07-0.37-0.11c0,0,0,0,0,0C298.46,189.15,298.87,189.95,298.91,190.84L298.91,190.84z"/><path class="st16" d="M292.56,190.99c0,1.38,0.88,2.54,2.1,2.98c0.01,0,0.02-0.01,0.03-0.01c0.24-0.09,0.48-0.18,0.7-0.28
		c0.08-0.03,0.15-0.07,0.22-0.11c0.15-0.07,0.29-0.14,0.43-0.22c0.08-0.05,0.16-0.09,0.24-0.14c0.12-0.07,0.24-0.15,0.36-0.22
		c0.08-0.05,0.15-0.1,0.23-0.16c0.11-0.08,0.21-0.15,0.32-0.23c0.07-0.05,0.14-0.11,0.2-0.16c0.1-0.08,0.2-0.17,0.29-0.25
		c0.06-0.05,0.12-0.11,0.17-0.16c0.09-0.09,0.18-0.18,0.27-0.27c0.05-0.05,0.09-0.09,0.14-0.14c0.1-0.1,0.19-0.2,0.27-0.3
		c0.03-0.03,0.06-0.06,0.08-0.1c0.11-0.13,0.21-0.26,0.31-0.39c0,0,0,0,0,0c-0.04-0.89-0.45-1.69-1.08-2.24c0,0,0,0,0,0
		c-0.22-0.06-0.46-0.12-0.71-0.17c-0.04-0.01-0.08-0.02-0.12-0.03c-0.52-0.11-1.09-0.19-1.68-0.22c-0.04,0-0.08,0-0.11-0.01
		c-0.3-0.01-0.6-0.02-0.91,0C293.27,188.71,292.56,189.76,292.56,190.99z"/><path class="st16" d="M286.52,193.97c0.95-6.57,9.25-9.38,14.35-6.29c-0.31,0.5-0.91,1.52-1.22,2.02
		c-1.13-0.68-6.99-3.05-12.31,3.33C287.01,193.42,286.97,193.58,286.52,193.97z"/></g></svg>