<?xml version="1.0" encoding="utf-8"?><!--Generator: Adobe Illustrator 28.1.0, SVG Export Plug-In . SVG Version: 6.00 Build 0)--><svg version="1.1" xmlns="http://www.w3.org/2000/svg" xmlns:xlink="http://www.w3.org/1999/xlink" x="0px" y="0px" viewBox="0 0 1200 840" style="enable-background:new 0 0 1200 840;" xml:space="preserve"><style type="text/css">.st0{fill:#E5F0FF;}
	.st1{fill:#F7931E;}
	.st2{fill:#232144;}
	.st3{fill:#FBB03B;}
	.st4{fill:#D8CBC5;}
	.st5{fill:#E73245;}
	.st6{fill:#E7B95E;}
	.st7{fill:#B3892F;}
	.st8{fill:#D0A349;}
	.st9{fill:#BF7461;}
	.st10{fill:#A86554;}
	.st11{fill:#693725;}
	.st12{fill:#4B7CFE;}
	.st13{fill:#222043;}
	.st14{fill:#3867C3;}
	.st15{fill:#010101;}
	.st16{fill:#171111;}
	.st17{fill:#FFFFFF;}</style><g id="Van"><polygon class="st0" points="371.61,203.8 383.2,203.8 227.13,330.99 177.61,330.99 	"/><g><polygon class="st1" points="25.49,462.29 98.89,445.16 89.07,447.45 		"/><path class="st1" d="M1163.04,386.57l-43.17-205.64H517.58c-32.79,0.75-122.53,6.83-145.97,22.87h11.59L226.93,330.94h-49.32
			l-80.56,35.62c0,0-50.42,22.47-56.99,46.03l-0.31,1.07c0.27-0.45,0.54-0.9,0.82-1.34c0,0,16.44-11.51,91.52-12.06l-32.82,44.8
			l2.96-0.69l45.39,41.96c17.31-13.65,39.15-21.82,62.91-21.82c56.18,0,101.72,45.54,101.72,101.72c0,1.45-0.05,2.88-0.11,4.32
			h206.85h157.01h177.67c-0.06-1.43-0.11-2.87-0.11-4.32c0-56.18,45.54-101.72,101.72-101.72c56.18,0,101.72,45.54,101.72,101.72
			c0,1.45-0.05,2.88-0.11,4.32h106.15V386.57z M532.3,347.33H302.13l5.6-52.49l0.98-9.16l74.8-60.01c0,0,23.84-15.62,69.87-17.26
			c30.16-1.08,54.67-1.45,67.99-1.58c7.01-0.07,10.92-0.07,10.92-0.07V347.33z"/></g><rect x="568.73" y="206.82" transform="matrix(-1 -4.488599e-11 4.488599e-11 -1 1397.6376 761.3532)" class="st2" width="260.17" height="347.71"/><circle class="st2" cx="212.82" cy="566.25" r="93.09"/><path class="st3" d="M1043.11,514.96c-17.65-30.16-50.37-50.43-87.84-50.43c-52.22,0-95.22,39.35-101.03,90.01h-71.3V206.82h260.17
		V514.96z"/><rect x="796.25" y="364.65" transform="matrix(-1 -4.492063e-11 4.492063e-11 -1 1641.2521 740.3917)" class="st2" width="48.75" height="11.1"/><circle class="st4" cx="212.82" cy="566.25" r="58.8"/><path class="st2" d="M955.27,464.52c-56.18,0-101.72,45.54-101.72,101.72c0,1.45,0.05,2.88,0.11,4.32h8.63
		c-0.07-1.43-0.1-2.87-0.1-4.32c0-51.41,41.68-93.09,93.09-93.09c51.41,0,93.09,41.68,93.09,93.09c0,1.45-0.04,2.88-0.1,4.32h8.63
		c0.06-1.43,0.11-2.87,0.11-4.32C1057,510.07,1011.45,464.52,955.27,464.52z"/><circle class="st2" cx="955.27" cy="566.25" r="93.09"/><circle class="st4" cx="955.27" cy="566.25" r="58.8"/><rect x="484.21" y="364.65" transform="matrix(-1 -4.492063e-11 4.492063e-11 -1 1017.1693 740.3917)" class="st2" width="48.75" height="11.1"/><path class="st2" d="M210.53,464.52c-23.76,0-45.6,8.17-62.91,21.82c-23.63,18.63-38.81,47.49-38.81,79.91c0,0.42,0,2.1,0.01,4.32
		h11.01c-0.07-1.43-0.1-2.87-0.1-4.32c0-51.41,41.68-93.09,93.09-93.09c51.41,0,93.09,41.68,93.09,93.09c0,1.45-0.04,2.88-0.1,4.32
		h6.33c0.06-1.43,0.11-2.87,0.11-4.32C312.25,510.07,266.71,464.52,210.53,464.52z"/><path class="st2" d="M1163.04,562.58V437.64c0-6.84-5.55-12.39-12.39-12.39h-24.61v137.28h-81.48
		c8.26,17.96,12.96,35.66,11.47,53.02l105.63,0c12.34,0,22.33-10,22.33-22.33v-8.53C1184,572.86,1174.72,563.19,1163.04,562.58z"/><path class="st0" d="M307.73,294.84l0.98-9.16l74.8-60.01c0,0,23.84-15.62,69.87-17.26c30.16-1.08,54.67-1.45,67.99-1.58
		c7.01-0.07,10.92-0.07,10.92-0.07v140.57H302.13L307.73,294.84z"/><rect x="1125.96" y="401.95" transform="matrix(-1 -4.478652e-11 4.478652e-11 -1 2288.9958 884.0396)" class="st5" width="37.08" height="80.15"/><path class="st2" d="M102.22,444.38l45.39,41.96c-23.63,18.63-38.81,47.49-38.81,79.91c0,0.9,0.02,7.62,0.05,12.95H89.07H63.59
		l-47.68-18.91v-95.77L102.22,444.38z"/><path class="st0" d="M99.27,445.07l32.82-44.8c-75.08,0.55-91.52,12.06-91.52,12.06c-10.14,15.72-14.49,45.6-15.08,49.96
		L99.27,445.07z"/><path class="st2" d="M328.92,291.46c-8.99,0-16.97,3.89-22.04,9.93l1.67-15.65l-1.17,0.98l-71.99,60.67h66.58l0.57-5.37l26.41,0
		c15.3-0.02,27.7-11.33,27.7-25.28C356.66,302.77,344.24,291.46,328.92,291.46z"/></g><g id="packages"><rect x="588.24" y="430.98" transform="matrix(-1 -4.488688e-11 4.488688e-11 -1 1355.7631 985.5447)" class="st6" width="179.28" height="123.58"/><rect x="683.16" y="350.48" transform="matrix(-1 -4.490909e-11 4.490909e-11 -1 1446.813 781.4653)" class="st7" width="80.5" height="80.5"/><rect x="602.66" y="350.48" transform="matrix(-1 -4.488688e-11 4.488688e-11 -1 1285.8213 781.4653)" class="st8" width="80.5" height="80.5"/><rect x="712.67" y="441.89" transform="matrix(-1 -4.487045e-11 4.487045e-11 -1 1471.1526 936.5144)" class="st0" width="45.81" height="52.73"/><g><rect x="623.57" y="293.55" transform="matrix(-1 -4.488999e-11 4.488999e-11 -1 1366.3407 644.0374)" class="st6" width="119.19" height="56.93"/><rect x="631.35" y="293.55" transform="matrix(-1 -4.489798e-11 4.489798e-11 -1 1290.58 626.3875)" class="st0" width="27.87" height="39.29"/></g><rect x="720.59" y="446.96" transform="matrix(-1 -4.482249e-11 4.482249e-11 -1 1473.9639 901.8323)" class="st2" width="32.79" height="7.91"/><rect x="733.02" y="459.4" transform="matrix(-1 -4.486557e-11 4.486557e-11 -1 1486.4016 926.1424)" class="st2" width="20.35" height="7.35"/><polygon class="st7" points="631.26,374.99 622.52,359.85 613.78,374.99 617.81,374.99 617.81,389.99 627.23,389.99 627.23,374.99 
			"/></g><g id="delivery_man"><rect x="956.22" y="414.21" transform="matrix(0.4144 -0.9101 0.9101 0.4144 185.8275 1123.4255)" class="st9" width="19.3" height="6.21"/><path class="st10" d="M842.08,361.44l13.64-59.16l-15.63-2.8c-6.85-1.1-13.29,3.61-14.32,10.47l-6.06,39.99
		c-1.32,8.79,6.91,15.34,15.53,13.2L842.08,361.44z"/><path class="st9" d="M953.77,437.77L953.77,437.77c1.14,1.29,3.1,1.41,4.38,0.27l10.28-9.07l-4.11-4.66l-10.28,9.07
		C952.76,434.52,952.64,436.49,953.77,437.77z"/><path class="st9" d="M953.07,434.61L953.07,434.61c1.31,1.1,3.27,0.93,4.38-0.38l8.81-10.5l-4.76-3.99l-8.81,10.5
		C951.59,431.55,951.76,433.51,953.07,434.61z"/><polygon class="st9" points="975.41,411.2 969.63,408.74 962.61,426.72 968.4,428.98 	"/><rect x="955.27" y="415.75" transform="matrix(0.3635 -0.9316 0.9316 0.3635 223.966 1165.5156)" class="st9" width="19.3" height="6.21"/><path class="st9" d="M959.32,417.63c0,0,1.27-2.57,1.78-3.33c1.06-1.58,2.79-0.41,2.18,1.07c-0.39,0.95-1.86,4.01-2.81,6.32
		c4.02-3.98,11.51-9.23,11.51-9.23l-11.8-3.65L959.32,417.63z"/><polygon class="st9" points="955.45,396.15 954.87,413.17 975.41,411.2 971.25,393.47 	"/><path class="st2" d="M974.03,433.81l-10.87,7.93c-1.22,0.89-2.94,0.62-3.83-0.6l-16.49-22.62c-0.89-1.22-0.62-2.94,0.6-3.83
		l10.87-7.93c1.22-0.89,2.94-0.62,3.83,0.6l16.49,22.62C975.52,431.21,975.25,432.92,974.03,433.81z"/><polygon class="st9" points="971.52,395.36 962.11,330.23 936.13,334.75 955.93,397.66 	"/><polygon class="st9" points="953.15,276.06 962.4,331.96 936.82,337.14 920.65,280.59 	"/><path class="st12" d="M850.4,348.14l-2.04-83.37c0,0,34.7-10.63,45.98-10.63c10.28,0,46.82,10.63,46.82,10.63l-1.23,83.37H850.4z"/><polygon class="st9" points="859.5,649.83 856.18,598.15 886.61,598.19 884.28,649.83 	"/><rect x="855.25" y="649.83" class="st13" width="32.28" height="9.51"/><path class="st4" d="M887.53,649.83c0-7-7.23-12.67-16.14-12.67s-16.14,5.67-16.14,12.67H887.53z"/><polygon class="st9" points="930.27,597.93 964.23,598.55 971.96,649.82 943.29,649.82 	"/><rect x="940.27" y="649.84" class="st13" width="63.2" height="9.5"/><path class="st4" d="M940.27,649.82v-11.71l2.09,0.65c8.83,2.76,18.49,1.66,26.39-3.01l0.94-0.56l28.63,8.18
		c3.06,0.89,5.15,3.39,5.15,6.44l0,0H940.27z"/><polygon class="st12" points="852.62,620.53 890.57,620.46 892.68,383.51 895.25,383.51 932.25,620.46 970.64,620.46 
		939.94,383.51 939.94,293.15 850.4,293.15 	"/><rect x="929.24" y="618.25" class="st14" width="43.18" height="11.96"/><path class="st12" d="M823.27,311.52c0,0,7.15-19.59,13.49-35.44c5.35-13.39,17.29-12.41,19.97-11.49
		c6.94,2.39,12.15,9.61,12.74,17.37c0.78,10.35-13.36,41.32-13.36,41.32L823.27,311.52z"/><path class="st12" d="M967,311.16c0,0-5.34-14.76-9.96-27.78c-3.51-9.88-10.55-22.29-23.16-17.92c-6.78,2.35-11.72,9.13-12.3,16.89
		c-0.78,10.35,13.36,41.32,13.36,41.32L967,311.16z"/><circle class="st9" cx="875.65" cy="231.26" r="5.67"/><circle class="st9" cx="913.04" cy="231.26" r="5.67"/><path class="st10" d="M908.36,263.41v-21.88l-28.03-0.08v21.96c0,5.7,4.62,10.31,10.31,10.31h7.4
		C903.74,273.72,908.36,269.11,908.36,263.41z"/><path class="st9" d="M913.1,238.77v-25.22c0-8.53-6.92-15.45-15.45-15.45h-6.62c-8.53,0-15.45,6.92-15.45,15.45v25.22
		c0,8.53,6.92,15.45,15.45,15.45h6.62C906.19,254.21,913.1,247.3,913.1,238.77z"/><path class="st15" d="M893.85,237.7c-0.88,0-1.57-0.43-2.18-0.82c-1-0.63-1.61-1.01-2.82,0.2l-0.79-0.79
		c1.84-1.84,3.14-1.02,4.19-0.36c0.53,0.33,1.03,0.65,1.59,0.65c0.57,0,1.04-0.29,1.54-0.6c1-0.61,2.24-1.37,4.3,0.34l-0.71,0.86
		c-1.45-1.2-2.07-0.82-3.01-0.24C895.4,237.29,894.74,237.7,893.85,237.7z"/><g><path d="M895.9,244.95c-1.7,0.39-3,0.06-3.73-0.11c-0.15-0.04-0.27-0.07-0.38-0.09l0.18-1.04c0.12,0.02,0.27,0.06,0.45,0.1
			c1.15,0.28,3.56,0.88,6.82-1.73l0.66,0.82C898.41,244.1,897.06,244.69,895.9,244.95z"/></g><path class="st16" d="M884.52,252.39c0,1.93,1.56,3.49,3.49,3.49h11.66c1.93,0,3.49-1.56,3.49-3.49v-9.61h-2.52v7.19h-5.54v-3.52
		h-2.52v3.52h-5.54v-7.19h-2.52V252.39z"/><path class="st16" d="M875.77,231.24v-14.46c0-8.37,6.71-15.15,14.98-15.15h7.21c8.27,0,14.98,6.79,14.98,15.15v14.46h2.94v-23.93
		c0-9.07-7.35-16.42-16.42-16.42h-10.19c-9.07,0-16.42,7.35-16.42,16.42v23.93H875.77z"/><path class="st10" d="M822.49,359.18l31,37.73c1.47,1.78,3.65,2.82,5.96,2.82h3.91l0.19-22.26l-24.66-35.42l-10.56,1.55
		C820.92,344.68,817.62,353.5,822.49,359.18z"/><g><path class="st10" d="M863.02,381.45v-11.93c0-1.81,1.46-3.27,3.27-3.27l0,0c1.81,0,3.27,1.46,3.27,3.27v11.62
			c0,1.81-1.46,3.27-3.27,3.27h-0.31C864.35,384.41,863.02,383.09,863.02,381.45L863.02,381.45z"/><rect x="865.43" y="360.74" class="st8" width="52.56" height="45.64"/><path class="st9" d="M868.4,382.73l-12.7,0.33c-1.62,0.04-2.97-1.24-3.01-2.86l-0.02-0.48c-0.04-1.62,1.24-2.97,2.87-3.01
			l12.7-0.33c1.62-0.04,2.97,1.24,3.01,2.86l0.02,0.48C871.3,381.34,870.02,382.69,868.4,382.73L868.4,382.73z"/><path class="st9" d="M870.48,388.33l-15.4,0.4c-1.75,0.05-3.21-1.34-3.26-3.1l0,0c-0.05-1.76,1.34-3.22,3.1-3.26l15.4-0.4
			c1.75-0.04,3.21,1.34,3.26,3.1l0,0C873.62,386.83,872.24,388.29,870.48,388.33L870.48,388.33z"/><path class="st9" d="M871.39,393.24l-15.6,0.4c-1.56,0.04-2.85-1.19-2.89-2.75l0,0c-0.04-1.56,1.19-2.85,2.75-2.89l15.6-0.4
			c1.56-0.04,2.85,1.19,2.89,2.75l0,0C874.18,391.91,872.95,393.2,871.39,393.24L871.39,393.24z"/><path class="st9" d="M870.3,399.64h-11.92c-1.62,0-2.92-1.31-2.92-2.92v-0.67c0-1.61,1.31-2.92,2.92-2.92h11.92
			c1.61,0,2.91,1.31,2.91,2.92v0.67C873.22,398.34,871.91,399.64,870.3,399.64L870.3,399.64z"/></g><path class="st17" d="M898.84,228.6c0.23,1.15,2.3,1.7,4.61,1.24c2.32-0.47,4.01-1.77,3.78-2.92c-0.23-1.15-2.3-1.7-4.61-1.24
		C900.31,226.14,898.61,227.45,898.84,228.6"/><path d="M900.92,227.75c0,1.17,0.95,2.12,2.12,2.12c1.17,0,2.12-0.95,2.12-2.12s-0.95-2.12-2.12-2.12
		C901.87,225.63,900.92,226.58,900.92,227.75"/><path class="st17" d="M888.89,228.6c-0.23,1.15-2.3,1.7-4.61,1.24c-2.32-0.47-4.01-1.77-3.78-2.92c0.23-1.15,2.3-1.7,4.61-1.24
		C887.43,226.14,889.13,227.45,888.89,228.6"/><path d="M886.82,227.75c0,1.17-0.95,2.12-2.12,2.12c-1.17,0-2.12-0.95-2.12-2.12s0.95-2.12,2.12-2.12
		C885.87,225.63,886.82,226.58,886.82,227.75"/><rect x="893.69" y="360.74" class="st0" width="20" height="28.19"/><path class="st16" d="M880.65,217.92h9.2c1.11,0,2.01,0.9,2.01,2.01v1.9h-13.21v-1.9C878.64,218.82,879.54,217.92,880.65,217.92z"/><path class="st16" d="M898.01,217.92h9.2c1.11,0,2.01,0.9,2.01,2.01v1.9h-13.21v-1.9C896.01,218.82,896.91,217.92,898.01,217.92z"/><path class="st14" d="M916.21,213.82h-43.8l3.01,5.18c0.69,0.62,1.57,0.96,2.48,0.96h32.82c0.91,0,1.79-0.34,2.48-0.96
		L916.21,213.82z"/><path class="st2" d="M900.93,190.61H887.7c-8.43,0-15.26,6.83-15.26,15.26v7.95h43.75v-7.95
		C916.19,197.44,909.36,190.61,900.93,190.61z"/><polygon class="st14" points="880.33,256.02 894.66,273.72 881.03,284 871.98,258.05 	"/><polygon class="st14" points="908.43,256.02 894.66,273.72 907.73,284 916.78,258.05 	"/><path class="st14" d="M923.67,319.95h-8.3c-4.06,0-7.34-3.29-7.34-7.34v-17h22.99v17C931.02,316.67,927.73,319.95,923.67,319.95z"/><path class="st9" d="M950.88,425.47L950.88,425.47c1.46,0.89,3.38,0.43,4.27-1.03l9.7-15.91l-5.3-3.23l-9.7,15.91
		C948.95,422.66,949.41,424.58,950.88,425.47z"/><rect x="849.66" y="617.77" class="st14" width="43.18" height="11.96"/></g></svg>