<svg viewBox="0 0 1600 1200" fill="none" xmlns="http://www.w3.org/2000/svg"><path fill-rule="evenodd" clip-rule="evenodd" d="M329.04 885.618C329.04 875.413 323.889 866.412 316.046 861.067C318.378 857.749 319.752 853.709 319.752 849.347C319.752 838.074 310.61 828.936 299.332 828.936C288.056 828.936 278.913 838.074 278.913 849.347C278.913 853.709 280.287 857.749 282.62 861.067C274.776 866.412 269.625 875.413 269.625 885.618C269.625 900.947 281.245 913.56 296.159 915.144V938.521H302.505V915.144C317.42 913.56 329.04 900.947 329.04 885.618Z" fill="#103256"/><path fill-rule="evenodd" clip-rule="evenodd" d="M582.025 940.925H907.412V251.24H582.025V940.925Z" fill="#B0C2E4"/><path fill-rule="evenodd" clip-rule="evenodd" d="M427.451 940.925H582.026V251.24H427.451V940.925Z" fill="#D0DEF2"/><path fill-rule="evenodd" clip-rule="evenodd" d="M249 950.259H1023.81V935.773H249V950.259Z" fill="#B0C2E4"/><path fill-rule="evenodd" clip-rule="evenodd" d="M444.191 354.186H563.987V319.42H444.191V354.186Z" fill="#103256"/><path fill-rule="evenodd" clip-rule="evenodd" d="M444.191 444.399H563.987V409.633H444.191V444.399Z" fill="#103256"/><path fill-rule="evenodd" clip-rule="evenodd" d="M444.191 534.606H563.987V499.84H444.191V534.606Z" fill="#103256"/><path fill-rule="evenodd" clip-rule="evenodd" d="M444.191 624.817H563.987V590.051H444.191V624.817Z" fill="#103256"/><path fill-rule="evenodd" clip-rule="evenodd" d="M444.191 715.026H563.987V680.26H444.191V715.026Z" fill="#103256"/><path fill-rule="evenodd" clip-rule="evenodd" d="M444.191 805.237H563.987V770.471H444.191V805.237Z" fill="#103256"/><path fill-rule="evenodd" clip-rule="evenodd" d="M444.191 895.446H563.987V860.68H444.191V895.446Z" fill="#103256"/><path fill-rule="evenodd" clip-rule="evenodd" d="M638.845 344.804H907.413V275.271H638.845V344.804Z" fill="#103256"/><path fill-rule="evenodd" clip-rule="evenodd" d="M638.845 456.216H907.413V386.684H638.845V456.216Z" fill="#103256"/><path fill-rule="evenodd" clip-rule="evenodd" d="M638.845 567.629H907.413V498.096H638.845V567.629Z" fill="#103256"/><path fill-rule="evenodd" clip-rule="evenodd" d="M638.845 679.041H907.413V609.508H638.845V679.041Z" fill="#103256"/><path fill-rule="evenodd" clip-rule="evenodd" d="M638.845 790.455H907.413V720.922H638.845V790.455Z" fill="#103256"/><path fill-rule="evenodd" clip-rule="evenodd" d="M638.845 901.867H907.413V832.334H638.845V901.867Z" fill="#103256"/><path fill-rule="evenodd" clip-rule="evenodd" d="M493.702 257.74H582.642V180H493.702V257.74Z" fill="#D0DEF2"/><path fill-rule="evenodd" clip-rule="evenodd" d="M582.641 257.74H850.119V180H582.641V257.74Z" fill="#B0C2E4"/><path fill-rule="evenodd" clip-rule="evenodd" d="M510.799 235.105H831.775V212.947H510.799V235.105Z" fill="#103256"/><path fill-rule="evenodd" clip-rule="evenodd" d="M866.146 544.711L804.173 529.215L765.5 672.234C761.701 688.897 776.634 703.799 793.297 699.973L811.062 695.894L866.146 544.711Z" fill="#BF7461"/><path fill-rule="evenodd" clip-rule="evenodd" d="M1014.49 517.803L1025.58 630.604L983.354 640.695L955.338 525.146L1014.49 517.803Z" fill="#BF7461"/><path fill-rule="evenodd" clip-rule="evenodd" d="M1045.26 780.163L1035.83 773.965L1020.89 802.092L1030.32 808.29L1045.26 780.163Z" fill="#BF7461"/><path fill-rule="evenodd" clip-rule="evenodd" d="M1044.63 747.056L1029.28 628.516L981.957 636.018L1016.23 750.8L1044.63 747.056Z" fill="#BF7461"/><path fill-rule="evenodd" clip-rule="evenodd" d="M1015.85 749.609L1012.58 780.369L1050 779.824L1044.63 747.057L1015.85 749.609Z" fill="#BF7461"/><path fill-rule="evenodd" clip-rule="evenodd" d="M1049.92 778.866L1039.99 773.508L1024.28 803.388L1034.21 808.746L1049.92 778.866Z" fill="#BF7461"/><path fill-rule="evenodd" clip-rule="evenodd" d="M1030.42 750.568L1033.68 781.328L996.265 780.783L1001.29 747.641L1030.42 750.568Z" fill="#9E3F39"/><path fill-rule="evenodd" clip-rule="evenodd" d="M1044.48 801.994C1045.2 804.916 1043.21 807.822 1040.04 808.484L1012.05 814.345L1009.45 803.762L1037.43 797.901C1040.61 797.239 1043.76 799.072 1044.48 801.994Z" fill="#9E3F39"/><path fill-rule="evenodd" clip-rule="evenodd" d="M996.654 789.327C994.574 791.646 994.769 795.213 997.089 797.292L1014.65 813.033L1022.19 804.633L1004.62 788.892C1002.3 786.812 998.734 787.007 996.654 789.327Z" fill="#BF7461"/><path fill-rule="evenodd" clip-rule="evenodd" d="M1001.29 747.64L1025.58 630.604L1072.2 641.67L1029.32 753.525L1001.29 747.64Z" fill="#9E3F39"/><path fill-rule="evenodd" clip-rule="evenodd" d="M996.265 780.785L1006.36 775.223L1022.19 809.506L1012 814.348L996.265 780.785Z" fill="#9E3F39"/><path fill-rule="evenodd" clip-rule="evenodd" d="M1000.94 777.579L1010.85 772.182L1027.63 802.964L1017.72 808.362L1000.94 777.579Z" fill="#9E3F39"/><path fill-rule="evenodd" clip-rule="evenodd" d="M1003.96 777.222L1013.87 771.824L1030.64 802.607L1020.73 808.005L1003.96 777.222Z" fill="#9E3F39"/><path fill-rule="evenodd" clip-rule="evenodd" d="M1006.32 776.435L1016.23 771.037L1033.01 801.82L1023.1 807.217L1006.32 776.435Z" fill="#9E3F39"/><path fill-rule="evenodd" clip-rule="evenodd" d="M1007.67 787.175C1005.96 789.778 1006.68 793.276 1009.28 794.988L1031.6 808.946L1036.74 799.276L1015.48 785.561C1012.88 783.85 1009.38 784.572 1007.67 787.175Z" fill="#BF7461"/><path fill-rule="evenodd" clip-rule="evenodd" d="M1048.33 781.976L1038.9 775.777L1023.95 803.905L1033.38 810.103L1048.33 781.976Z" fill="#BF7461"/><path fill-rule="evenodd" clip-rule="evenodd" d="M1034.91 800.274C1031.93 801.192 1028.77 799.522 1027.85 796.545L1017.88 764.201L1028.66 760.879L1038.64 793.222C1039.55 796.198 1037.88 799.356 1034.91 800.274Z" fill="#9E3F39"/><path fill-rule="evenodd" clip-rule="evenodd" d="M1020.77 788.865C1023.64 790.065 1026.95 788.709 1028.15 785.834L1041.2 754.607L1030.42 750.674L1017.74 781.486C1016.54 784.36 1017.89 787.664 1020.77 788.865Z" fill="#BF7461"/><path fill-rule="evenodd" clip-rule="evenodd" d="M788.223 550.608C788.223 550.608 806.267 506.215 831.795 506.215C849.281 506.215 864.431 517.965 865.746 535.395C867.06 552.825 830.052 583.706 830.052 583.706L788.223 550.608Z" fill="#BAC09A"/><path fill-rule="evenodd" clip-rule="evenodd" d="M1036.75 550.608C1036.75 550.608 1018.71 506.215 993.178 506.215C975.693 506.215 960.542 517.965 959.228 535.395C957.913 552.825 994.921 583.706 994.921 583.706L1036.75 550.608Z" fill="#BAC09A"/><path fill-rule="evenodd" clip-rule="evenodd" d="M831.775 658.512L826.722 506.815C826.722 506.815 891.121 487.783 911.621 487.783C930.298 487.783 996.693 507.003 996.693 507.003L991.466 658.512H831.775Z" fill="#BAC09A"/><path fill-rule="evenodd" clip-rule="evenodd" d="M831.775 722.753H994.467V558.637H831.775V722.753Z" fill="#BAC09A"/><path fill-rule="evenodd" clip-rule="evenodd" d="M1208.32 462.893C1208.32 480.289 1194.21 494.393 1176.81 494.393C1159.41 494.393 1145.3 480.289 1145.3 462.893C1145.3 445.496 1159.41 431.393 1176.81 431.393C1194.21 431.393 1208.32 445.496 1208.32 462.893Z" fill="#420F0F"/><path fill-rule="evenodd" clip-rule="evenodd" d="M1118.06 495.279V456.443L1167.59 456.535V495.279H1118.06Z" fill="#7A2F37"/><path fill-rule="evenodd" clip-rule="evenodd" d="M1186.84 435.909C1186.84 441.444 1182.35 445.93 1176.81 445.93C1171.27 445.93 1166.79 441.444 1166.79 435.909C1166.79 430.375 1171.27 425.889 1176.81 425.889C1182.35 425.889 1186.84 430.375 1186.84 435.909Z" fill="#9E3F39"/><path fill-rule="evenodd" clip-rule="evenodd" d="M1118.81 435.878C1118.81 441.413 1114.32 445.899 1108.79 445.899C1103.25 445.899 1098.76 441.413 1098.76 435.878C1098.76 430.343 1103.25 425.857 1108.79 425.857C1114.32 425.857 1118.81 430.343 1118.81 435.878Z" fill="#9E3F39"/><path fill-rule="evenodd" clip-rule="evenodd" d="M1109.99 441.326C1114.98 441.326 1119.01 445.363 1119.01 450.343V459.259C1119.01 464.238 1114.98 468.275 1110 468.275C1105.02 468.275 1100.98 464.238 1100.98 459.259V450.343C1100.98 445.363 1105.01 441.326 1109.99 441.326Z" fill="#D8CBC5"/><path fill-rule="evenodd" clip-rule="evenodd" d="M1178.6 440.307C1183.58 440.307 1187.62 444.343 1187.62 449.323V458.24C1187.62 463.218 1183.58 467.255 1178.6 467.255C1173.62 467.255 1169.58 463.218 1169.58 458.24V449.323C1169.58 444.343 1173.62 440.307 1178.6 440.307Z" fill="#D8CBC5"/><path fill-rule="evenodd" clip-rule="evenodd" d="M1110 450.983V404.768C1110 390.16 1121.84 378.316 1136.46 378.316H1149.19C1163.8 378.316 1175.65 390.16 1175.65 404.768V450.983C1175.65 465.591 1163.8 477.433 1149.19 477.433H1136.46C1121.84 477.433 1110 465.591 1110 450.983Z" fill="#9E3F39"/><path fill-rule="evenodd" clip-rule="evenodd" d="M1134.76 447.466C1134.76 447.466 1134.76 447.466 1134.24 447.069C1133.71 446.673 1133.71 446.672 1133.71 446.672L1133.71 446.672L1133.71 446.67L1133.72 446.667L1133.72 446.657C1133.73 446.649 1133.74 446.639 1133.75 446.626C1133.77 446.6 1133.8 446.564 1133.83 446.522C1133.91 446.436 1134.02 446.319 1134.15 446.188C1134.42 445.928 1134.81 445.596 1135.31 445.339C1135.8 445.081 1136.42 444.887 1137.11 444.943C1137.81 445 1138.53 445.308 1139.22 445.946L1139.22 445.946C1139.98 446.648 1140.85 447.164 1141.8 447.356C1142.58 447.514 1143.43 447.501 1144.21 447.1C1144.52 446.942 1144.8 446.712 1145.06 446.427C1145.38 446.081 1146.12 445.394 1147.2 445.168C1148.34 444.93 1149.69 445.228 1151.14 446.591L1150.23 447.548C1149.04 446.425 1148.11 446.321 1147.47 446.455C1146.78 446.6 1146.27 447.057 1146.03 447.318L1146.03 447.322C1145.69 447.687 1145.29 448.024 1144.81 448.269L1144.81 448.269C1143.68 448.851 1142.5 448.84 1141.54 448.645L1141.54 448.645C1140.29 448.393 1139.21 447.73 1138.33 446.912C1137.82 446.447 1137.38 446.284 1137.01 446.254C1136.62 446.223 1136.26 446.327 1135.91 446.505C1135.57 446.684 1135.28 446.926 1135.07 447.131C1134.96 447.231 1134.88 447.32 1134.83 447.381C1134.8 447.412 1134.78 447.435 1134.77 447.45L1134.76 447.465L1134.76 447.466ZM1134.76 447.466L1134.76 447.468C1134.76 447.468 1134.76 447.467 1134.76 447.467L1134.76 447.467L1134.76 447.466Z" fill="#171111"/><path fill-rule="evenodd" clip-rule="evenodd" d="M1150.61 435.43C1150.61 435.43 1153.06 429.129 1157.66 427.533C1162.26 425.936 1167.64 429.056 1167.64 429.056C1167.64 429.056 1165.42 433.831 1160.82 435.427C1156.22 437.024 1150.61 435.43 1150.61 435.43Z" fill="white"/><path fill-rule="evenodd" clip-rule="evenodd" d="M1154.92 431.794C1154.92 433.991 1156.71 435.771 1158.9 435.771C1161.1 435.771 1162.88 433.991 1162.88 431.794C1162.88 429.597 1161.1 427.816 1158.9 427.816C1156.71 427.816 1154.92 429.597 1154.92 431.794Z" fill="black"/><path fill-rule="evenodd" clip-rule="evenodd" d="M1150.6 435.427C1151.91 424.893 1163.4 422.21 1168.86 426.894C1168.47 427.518 1168.03 428.432 1167.64 429.056C1166.23 428.204 1154.92 424.424 1150.6 435.427C1151.17 434.94 1150.37 436.014 1150.6 435.427Z" fill="black"/><path fill-rule="evenodd" clip-rule="evenodd" d="M1134.75 435.039C1134.75 435.039 1132.29 428.738 1127.7 427.142C1123.1 425.546 1117.72 428.665 1117.72 428.665C1117.72 428.665 1119.94 433.44 1124.54 435.036C1129.14 436.633 1134.75 435.039 1134.75 435.039Z" fill="white"/><path fill-rule="evenodd" clip-rule="evenodd" d="M1130.43 431.401C1130.43 433.598 1128.65 435.379 1126.45 435.379C1124.26 435.379 1122.48 433.598 1122.48 431.401C1122.48 429.205 1124.26 427.424 1126.45 427.424C1128.65 427.424 1130.43 429.205 1130.43 431.401Z" fill="black"/><path fill-rule="evenodd" clip-rule="evenodd" d="M1134.75 435.037C1133.45 424.502 1121.96 421.819 1116.5 426.504C1116.89 427.128 1117.33 428.041 1117.72 428.665C1119.13 427.814 1130.43 424.034 1134.75 435.037C1134.98 435.623 1134.18 434.549 1134.75 435.037Z" fill="black"/><path fill-rule="evenodd" clip-rule="evenodd" d="M1146.68 419.69C1154.57 409.127 1164.52 408.419 1172.28 419.133C1172.28 419.133 1164.88 416.959 1158.78 416.959C1152.62 416.959 1146.68 419.69 1146.68 419.69Z" fill="#420F0F"/><path fill-rule="evenodd" clip-rule="evenodd" d="M1138.24 419.69C1130.35 409.127 1120.4 408.419 1112.64 419.133C1112.64 419.133 1120.04 416.959 1126.14 416.959C1132.3 416.959 1138.24 419.69 1138.24 419.69Z" fill="#420F0F"/><path fill-rule="evenodd" clip-rule="evenodd" d="M1139.84 453.282L1126.44 453.236C1126.44 453.236 1130.14 458.277 1134.8 462.225C1138.17 465.086 1145.89 465.514 1150.12 462.719C1155.43 459.205 1158.48 453.771 1158.48 453.771L1146.32 453.467C1145.06 453.19 1143.75 453.725 1143.05 454.81L1143 454.732C1142.34 453.65 1141.09 453.076 1139.84 453.282Z" fill="#7A2F37"/><path fill-rule="evenodd" clip-rule="evenodd" d="M1130.68 455.746L1138.69 455.752C1140.18 455.685 1141.64 456.213 1142.75 457.22L1143.09 457.528C1144.27 456.337 1145.92 455.731 1147.6 455.874L1154.92 456.086C1154.92 456.086 1149.31 462.225 1143.22 462.225C1136.45 462.225 1130.68 455.746 1130.68 455.746Z" fill="white"/><path fill-rule="evenodd" clip-rule="evenodd" d="M999.589 708.546L1038.58 518.365L1096.13 553.636L1047.86 731.415L999.589 708.546Z" fill="#ED1E79"/><path fill-rule="evenodd" clip-rule="evenodd" d="M1073.34 634.221L1070.18 489.322H1213.12L1211.08 634.221H1073.34Z" fill="#ED1E79"/><path fill-rule="evenodd" clip-rule="evenodd" d="M1038.24 526.445C1036.81 507.431 1051.07 490.854 1070.09 489.422C1089.11 487.988 1105.69 502.241 1107.13 521.255C1108.56 540.27 1085.33 569.579 1085.33 569.579C1085.33 569.579 1039.68 545.459 1038.24 526.445Z" fill="#ED1E79"/><path fill-rule="evenodd" clip-rule="evenodd" d="M1247.55 526.445C1248.98 507.431 1234.72 490.854 1215.7 489.422C1196.68 487.988 1180.1 502.241 1178.66 521.255C1177.23 540.27 1200.46 569.579 1200.46 569.579C1200.46 569.579 1246.11 545.459 1247.55 526.445Z" fill="#ED1E79"/><path fill-rule="evenodd" clip-rule="evenodd" d="M1180.43 419.74L1180.4 405.361C1180.4 389.531 1167.56 376.697 1151.72 376.697H1133.93C1118.09 376.697 1105.25 389.531 1105.25 405.361L1105.22 419.74V425.071H1108.9V438.452H1110.55V418.978H1110.54C1111.98 405.738 1123.06 395.434 1136.53 395.434H1140.89V387.255H1144.76V395.434H1149.12C1163.12 395.434 1174.55 406.572 1175.23 420.57V438.477H1176.88V425.071H1180.43V419.74Z" fill="#420F0F"/><path fill-rule="evenodd" clip-rule="evenodd" d="M1291.89 585.359L1301.71 525.507L1275.81 517.598L1258.13 575.279L1291.89 585.359Z" fill="#9E3F39"/><path fill-rule="evenodd" clip-rule="evenodd" d="M1298.38 530.988L1315.06 507.19L1280.55 494.6L1274.34 523.03L1298.38 530.988Z" fill="#9E3F39"/><path fill-rule="evenodd" clip-rule="evenodd" d="M1338.25 487.206C1339.3 484.335 1337.83 481.152 1334.96 480.096L1312.01 471.656L1308.18 482.051L1331.13 490.491C1334 491.547 1337.19 490.076 1338.25 487.206Z" fill="#9E3F39"/><path fill-rule="evenodd" clip-rule="evenodd" d="M1338 466.438C1336.99 463.549 1333.83 462.023 1330.94 463.028L1305.27 471.332L1308.92 481.793L1334.59 473.49C1337.48 472.483 1339 469.327 1338 466.438Z" fill="#9E3F39"/><path fill-rule="evenodd" clip-rule="evenodd" d="M1280.55 494.598L1288.17 502.607L1312.89 479.341L1305.27 471.332L1280.55 494.598Z" fill="#9E3F39"/><path fill-rule="evenodd" clip-rule="evenodd" d="M1324.16 513.364C1320.42 511.534 1317.64 506.118 1317.4 500.194C1317.25 496.531 1318.08 493.038 1319.72 490.359C1321.43 487.583 1323.81 485.995 1326.43 485.89C1329.05 485.785 1331.56 487.175 1333.48 489.806C1335.33 492.344 1336.44 495.76 1336.58 499.423C1336.78 504.193 1335.29 508.958 1332.8 511.565L1331.69 510.501C1333.9 508.181 1335.22 503.858 1335.04 499.485C1334.77 492.659 1330.93 487.252 1326.49 487.43C1322.06 487.609 1318.67 493.307 1318.94 500.132C1319.16 505.516 1321.58 510.388 1324.84 511.979L1324.16 513.364Z" fill="#463EC5"/><path fill-rule="evenodd" clip-rule="evenodd" d="M1331.82 509.5C1332.66 508.987 1333.75 509.248 1334.27 510.084C1334.78 510.919 1334.52 512.014 1333.68 512.528C1332.85 513.042 1331.75 512.781 1331.24 511.944C1330.72 511.109 1330.98 510.014 1331.82 509.5ZM1330.17 506.815C1326.14 509.29 1324.88 514.561 1327.36 518.586C1329.15 521.495 1332.4 522.957 1335.58 522.612L1337.06 525.017L1337.99 524.448L1347.88 540.529L1350.88 540.894L1352 537.997L1350.44 535.457L1348.77 535.301L1349.38 533.743L1349.18 533.41L1346.74 532.71L1347.22 530.219L1346.84 529.599L1344.46 529.748L1345.49 527.409L1345.29 527.083L1342.84 526.378L1343.32 523.881L1342.11 521.915L1343.04 521.346L1341.63 519.064C1343.56 516.349 1343.8 512.638 1341.95 509.623C1339.47 505.598 1334.2 504.341 1330.17 506.815Z" fill="#E6E3DA"/><path fill-rule="evenodd" clip-rule="evenodd" d="M1324.18 511C1325.16 510.96 1325.99 511.723 1326.03 512.704C1326.07 513.685 1325.3 514.512 1324.32 514.551C1323.34 514.591 1322.52 513.828 1322.48 512.847C1322.44 511.866 1323.2 511.039 1324.18 511ZM1324.05 507.851C1319.33 508.04 1315.65 512.023 1315.84 516.745C1315.98 520.156 1318.1 523.019 1321.05 524.274L1321.16 527.096L1322.25 527.052L1323 545.916L1325.45 547.703L1327.84 545.722L1327.72 542.743L1326.34 541.791L1327.64 540.731L1327.62 540.342L1325.84 538.538L1327.47 536.598L1327.44 535.871L1325.3 534.839L1327.34 533.301L1327.32 532.92L1325.54 531.11L1327.17 529.164L1327.08 526.858L1328.17 526.814L1328.06 524.137C1331.07 522.713 1333.09 519.593 1332.95 516.057C1332.76 511.335 1328.78 507.661 1324.05 507.851Z" fill="#D8CBC5"/><path fill-rule="evenodd" clip-rule="evenodd" d="M1327.57 514.103C1326.41 514.15 1325.26 513.901 1324.16 513.364L1324.84 511.98C1325.71 512.403 1326.6 512.6 1327.51 512.563C1329.01 512.503 1330.45 511.79 1331.69 510.502L1332.8 511.565C1331.29 513.149 1329.48 514.026 1327.57 514.103Z" fill="#463EC5"/><path fill-rule="evenodd" clip-rule="evenodd" d="M1284.03 499.869L1291.58 507.978L1316.78 484.53L1309.23 476.422L1284.03 499.869Z" fill="#9E3F39"/><path fill-rule="evenodd" clip-rule="evenodd" d="M1311.55 496.678C1311.55 496.678 1307.92 499.762 1306.21 501.015C1303.45 503.041 1301.19 499.352 1303.26 497.344C1304.58 496.056 1312.31 488.693 1312.31 488.693L1286.81 495.922L1303.68 510.403L1311.55 496.678Z" fill="#9E3F39"/><path fill-rule="evenodd" clip-rule="evenodd" d="M1329.14 488.208C1327.08 485.942 1323.58 485.772 1321.31 487.827L1298.3 508.703L1304.93 517.641L1328.76 496.031C1331.02 493.975 1331.19 490.473 1329.14 488.208Z" fill="#9E3F39"/><path fill-rule="evenodd" clip-rule="evenodd" d="M1242.12 615.26L1272.2 523.029L1306.72 556.339L1289.67 627.287C1286.58 642.025 1271.05 650.521 1256.96 645.189C1244.94 640.638 1238.46 627.582 1242.12 615.26Z" fill="#ED1E79"/><path fill-rule="evenodd" clip-rule="evenodd" d="M1244.53 509.697L1287.99 603.897C1297.22 622.413 1285.6 644.53 1265.11 647.434C1254.08 648.998 1243.1 644.25 1236.69 635.142L1181.31 545.634L1244.53 509.697Z" fill="#ED1E79"/><path fill-rule="evenodd" clip-rule="evenodd" d="M888.127 444.797C888.127 439.146 883.544 434.564 877.89 434.564C872.237 434.564 867.654 439.146 867.654 444.797C867.654 450.449 872.237 455.03 877.89 455.03C883.544 455.03 888.127 450.449 888.127 444.797Z" fill="#BF7461"/><path fill-rule="evenodd" clip-rule="evenodd" d="M935.115 444.797C935.115 439.146 939.699 434.564 945.352 434.564C951.007 434.564 955.589 439.146 955.589 444.797C955.589 450.449 951.007 455.03 945.352 455.03C939.699 455.03 935.115 450.449 935.115 444.797Z" fill="#BF7461"/><path fill-rule="evenodd" clip-rule="evenodd" d="M936.911 501.613V462.14L886.332 461.998V501.613C886.332 511.888 894.666 520.217 904.944 520.217H918.3C928.578 520.217 936.911 511.888 936.911 501.613Z" fill="#A86554"/><path fill-rule="evenodd" clip-rule="evenodd" d="M945.461 458.497V411.431C945.461 396.178 933.225 383.812 918.128 383.812H905.113C890.017 383.812 877.781 396.178 877.781 411.431V458.497C877.781 473.75 890.017 486.114 905.113 486.114H918.128C933.225 486.114 945.461 473.75 945.461 458.497Z" fill="#BF7461"/><path fill-rule="evenodd" clip-rule="evenodd" d="M919.895 440.001C920.305 442.04 923.97 443.022 928.082 442.197C932.193 441.371 935.194 439.05 934.785 437.011C934.375 434.973 930.709 433.99 926.598 434.816C922.487 435.642 919.485 437.963 919.895 440.001Z" fill="white"/><path fill-rule="evenodd" clip-rule="evenodd" d="M923.574 438.509C923.574 440.588 925.26 442.273 927.34 442.273C929.419 442.273 931.105 440.588 931.105 438.509C931.105 436.429 929.419 434.744 927.34 434.744C925.26 434.744 923.574 436.429 923.574 438.509Z" fill="black"/><path fill-rule="evenodd" clip-rule="evenodd" d="M945.561 459.347V432.65H943.508L935.324 459.347H945.561Z" fill="#420F0F"/><path fill-rule="evenodd" clip-rule="evenodd" d="M877.764 460.025V433.328H879.817L888.001 460.025H877.764Z" fill="#420F0F"/><path fill-rule="evenodd" clip-rule="evenodd" d="M877.189 460.027H879.938V403.926H877.189V460.027Z" fill="#420F0F"/><path fill-rule="evenodd" clip-rule="evenodd" d="M946.156 397.043C946.156 389.212 939.805 382.863 931.971 382.863H896.454V387.96C896.454 393.994 898.852 399.782 903.121 404.049C907.39 408.317 913.18 410.714 919.217 410.714H946.156V397.043Z" fill="#420F0F"/><path fill-rule="evenodd" clip-rule="evenodd" d="M911.235 469.551C907.958 469.551 904.976 468.312 902.966 466.09L904.525 464.682C906.256 466.593 908.927 467.6 911.853 467.432C914.368 467.291 916.584 466.292 917.641 464.824L919.349 466.051C917.908 468.052 915.15 469.353 911.972 469.531C911.724 469.544 911.479 469.551 911.235 469.551Z" fill="#1D1D1B"/><path fill-rule="evenodd" clip-rule="evenodd" d="M906.976 425.145C906.976 424.017 906.528 422.935 905.73 422.138C904.932 421.341 903.851 420.893 902.722 420.893H888.496C887.367 420.893 886.286 421.341 885.488 422.138C884.69 422.935 884.242 424.017 884.242 425.145V428.9H906.976V425.145Z" fill="#420F0F"/><path fill-rule="evenodd" clip-rule="evenodd" d="M938.804 425.145C938.804 424.017 938.356 422.935 937.559 422.138C936.761 421.341 935.679 420.893 934.551 420.893H920.324C919.196 420.893 918.114 421.341 917.317 422.138C916.519 422.935 916.071 424.017 916.071 425.145V428.9H938.804V425.145Z" fill="#420F0F"/><path fill-rule="evenodd" clip-rule="evenodd" d="M925.017 460.217C925.017 459.09 924.569 458.008 923.771 457.21C922.974 456.413 921.892 455.965 920.764 455.965H901.551C900.422 455.965 899.34 456.413 898.543 457.21C897.745 458.008 897.297 459.09 897.297 460.217V463.973H925.017V460.217Z" fill="#420F0F"/><path fill-rule="evenodd" clip-rule="evenodd" d="M910.732 456.214C909.152 456.214 907.903 455.433 906.802 454.743C904.993 453.609 903.902 452.925 901.72 455.105L900.301 453.688C903.614 450.376 905.972 451.855 907.868 453.044C908.825 453.642 909.727 454.209 910.732 454.209C911.762 454.209 912.614 453.686 913.516 453.135C915.317 452.031 917.558 450.659 921.272 453.738L919.992 455.283C917.381 453.118 916.26 453.803 914.565 454.844C913.517 455.487 912.328 456.214 910.732 456.214Z" fill="#1D1D1B"/><path fill-rule="evenodd" clip-rule="evenodd" d="M925.017 485.543C925.017 484.415 924.569 483.334 923.771 482.536C922.974 481.739 921.892 481.291 920.764 481.291H901.551C900.422 481.291 899.34 481.739 898.543 482.536C897.745 483.334 897.297 484.415 897.297 485.543V489.298H925.017V485.543Z" fill="#420F0F"/><path fill-rule="evenodd" clip-rule="evenodd" d="M943.407 459.342H946.156V404.932H943.407V459.342Z" fill="#420F0F"/><path fill-rule="evenodd" clip-rule="evenodd" d="M877.188 397.043C877.188 389.212 883.54 382.863 891.374 382.863H896.799V399.545C896.799 405.714 891.796 410.714 885.625 410.714H877.188V397.043Z" fill="#420F0F"/><path fill-rule="evenodd" clip-rule="evenodd" d="M902.243 440.001C901.833 442.04 898.168 443.022 894.056 442.197C889.945 441.371 886.943 439.05 887.353 437.011C887.763 434.973 891.429 433.99 895.54 434.816C899.651 435.642 902.652 437.963 902.243 440.001Z" fill="white"/><path fill-rule="evenodd" clip-rule="evenodd" d="M898.562 438.509C898.562 440.588 896.877 442.273 894.797 442.273C892.718 442.273 891.032 440.588 891.032 438.509C891.032 436.429 892.718 434.744 894.797 434.744C896.877 434.744 898.562 436.429 898.562 438.509Z" fill="black"/><path fill-rule="evenodd" clip-rule="evenodd" d="M1137.11 1020L1138.34 744.245C1141.81 743.473 1143.85 742.985 1143.85 742.985C1143.85 742.985 1145.86 743.487 1149.29 744.28L1150.53 1020H1256.61L1237.14 746.36C1236.77 740.257 1236.06 734.708 1235.02 729.656C1228.55 659.316 1205.71 634.027 1205.71 634.027H1078.1C1078.1 634.027 1058.59 667.111 1050.8 734.703C1050.15 738.596 1049.72 742.73 1049.54 747.118L1030.85 1020H1137.11Z" fill="#D8CBC5"/><path fill-rule="evenodd" clip-rule="evenodd" d="M889.313 1020L907.629 755.434L915.46 755.458L933.776 1020H1002.39L992.029 735.444L992.66 676.801H834.359V702.746L832.241 702.981L820.701 1020H889.313Z" fill="#232144"/><path fill-rule="evenodd" clip-rule="evenodd" d="M817.861 545.893C821.316 545.893 824.116 548.692 824.116 552.145V583.124H811.606V552.145C811.606 548.692 814.406 545.893 817.861 545.893Z" fill="#232144"/><path fill-rule="evenodd" clip-rule="evenodd" d="M890.983 534.618V502.835L876.675 518.726C872.418 516.492 867.573 515.222 862.432 515.222C857.411 515.222 852.675 516.434 848.492 518.57L834.728 502.732V532.659C832.802 536.673 831.722 541.171 831.722 545.92V676.789H893.141V545.92C893.141 541.928 892.37 538.117 890.983 534.618Z" fill="#232144"/><path fill-rule="evenodd" clip-rule="evenodd" d="M937.814 630.002C937.814 655.843 916.86 676.79 891.01 676.79C865.16 676.79 844.205 655.843 844.205 630.002C844.205 604.162 865.16 583.215 891.01 583.215C916.86 583.215 937.814 604.162 937.814 630.002Z" fill="#232144"/><path fill-rule="evenodd" clip-rule="evenodd" d="M857.357 543.677C857.357 543.677 852.665 544.915 848.668 542.897C844.671 540.878 842.883 536.368 842.883 536.368C842.883 536.368 847.576 535.13 851.573 537.148C855.569 539.166 857.357 543.677 857.357 543.677Z" fill="white"/><path fill-rule="evenodd" clip-rule="evenodd" d="M851.958 536.383C851.958 536.383 852.581 538.742 851.566 540.75C850.55 542.76 848.281 543.658 848.281 543.658C848.281 543.658 847.658 541.299 848.674 539.291C849.689 537.281 851.958 536.383 851.958 536.383Z" fill="#232144"/><path fill-rule="evenodd" clip-rule="evenodd" d="M881.981 538.121C881.981 538.121 879.629 542.365 875.406 543.855C871.183 545.344 866.688 543.514 866.688 543.514C866.688 543.514 869.04 539.27 873.262 537.781C877.486 536.292 881.981 538.121 881.981 538.121Z" fill="white"/><path fill-rule="evenodd" clip-rule="evenodd" d="M872.978 536.975C872.978 536.975 875.113 538.157 875.862 540.279C876.611 542.401 875.691 544.661 875.691 544.661C875.691 544.661 873.557 543.479 872.807 541.357C872.058 539.234 872.978 536.975 872.978 536.975Z" fill="#232144"/><path fill-rule="evenodd" clip-rule="evenodd" d="M917.346 539.304C917.346 526.072 928.085 515.277 941.336 515.219C954.622 515.161 965.479 525.919 965.537 539.2L965.543 543.009C965.547 545.771 963.315 548.016 960.552 548.028C957.779 548.04 955.522 545.798 955.518 543.026L955.512 539.243C955.478 531.488 949.138 525.206 941.379 525.24C933.643 525.274 927.37 531.578 927.37 539.305C927.37 539.326 927.37 539.345 927.37 539.367L927.57 617.483L917.545 617.527L917.346 539.411C917.346 539.375 917.346 539.339 917.346 539.304Z" fill="#232144"/><path fill-rule="evenodd" clip-rule="evenodd" d="M988.644 626.14L941.444 572.436V572.381H803.237V572.382L743.562 611.904L746.194 615.877L803.237 578.098V680.762H941.444V579.654L985.064 629.284L988.644 626.14Z" fill="#E6E3DA"/><path fill-rule="evenodd" clip-rule="evenodd" d="M934.318 594.2L927.318 578.717L920.319 594.2H924.191V602.835H930.446V594.2H934.318Z" fill="#D8CBC5"/><path fill-rule="evenodd" clip-rule="evenodd" d="M864.894 680.762H879.787V652.721H864.894V680.762Z" fill="#D8CBC5"/><path fill-rule="evenodd" clip-rule="evenodd" d="M902.462 669.9L892.05 675.429L798.98 654.15L787.096 700.582L907.492 711.761L902.462 669.9Z" fill="#BF7461"/><path fill-rule="evenodd" clip-rule="evenodd" d="M932.76 715.741L940.969 673.696L909.373 667.893C904.766 667.046 900.504 671.832 900.06 676.494L896.409 710.73L932.76 715.741Z" fill="#BF7461"/><path fill-rule="evenodd" clip-rule="evenodd" d="M945.379 703.046C945.988 699.667 943.741 696.433 940.359 695.824L934.323 694.775L932.119 707.016L938.154 708.065C941.535 708.673 944.769 706.426 945.379 703.046Z" fill="#BF7461"/><path fill-rule="evenodd" clip-rule="evenodd" d="M939.554 710.633C940.164 707.253 937.916 704.019 934.534 703.411L930.452 702.676L928.247 714.916L932.329 715.651C935.71 716.259 938.945 714.013 939.554 710.633Z" fill="#BF7461"/><path fill-rule="evenodd" clip-rule="evenodd" d="M949.014 691.498C949.623 688.118 947.376 684.884 943.993 684.276L937.311 683.123L935.105 695.364L941.789 696.516C945.17 697.124 948.404 694.878 949.014 691.498Z" fill="#BF7461"/><path fill-rule="evenodd" clip-rule="evenodd" d="M948.471 681.365C949.081 677.986 946.833 674.751 943.451 674.143L939.369 673.408L937.164 685.648L941.246 686.383C944.627 686.992 947.862 684.745 948.471 681.365Z" fill="#BF7461"/><path fill-rule="evenodd" clip-rule="evenodd" d="M943.821 652.739C942.329 649.645 938.61 648.346 935.515 649.837L902.383 669.875L902.655 683.689L940.917 661.041C944.012 659.55 945.312 655.833 943.821 652.739Z" fill="#BF7461"/></svg>