<svg viewBox="0 0 1600 1200" fill="none" xmlns="http://www.w3.org/2000/svg"><path d="M285 870.242H657.068C657.068 870.242 635.132 847.474 606.704 848.285C578.276 849.096 562.841 862.112 527.901 856.415C492.971 850.717 479.157 834.457 458.851 834.457C438.545 834.457 415.798 848.285 388.17 850.717C360.552 853.161 333.744 849.906 317.489 852.339C301.255 854.793 285 870.242 285 870.242Z" fill="#E5F0FF"/><path d="M1090.75 495.57L1102.59 506.986L1082.33 537.479L1062.06 523.09L1090.75 495.57Z" fill="#693725"/><path d="M1097.66 588.061C1115.09 556.508 1079.7 536.203 1079.7 536.203L1101.28 505.055L1123.67 523.654L1149.96 541.672L1144.25 549.729L1134.19 542.784C1134.17 542.784 1134.16 542.784 1134.15 542.774C1134.1 542.732 1134.06 542.69 1134.01 542.649C1132.73 541.724 1130.95 542.015 1130.03 543.293C1129.11 544.572 1129.4 546.36 1130.68 547.275C1130.74 547.317 1130.8 547.348 1130.87 547.39L1140.71 554.615L1103.17 606.827C1103.17 606.817 1089.77 602.336 1097.66 588.061Z" fill="#E73245"/><path d="M861.082 337.855C861.082 337.855 905.755 389.932 926.965 402.751C943.853 412.95 961.77 411.349 968.376 410.268C971.533 409.748 974.743 409.665 977.921 410.039C994.062 411.952 1037.46 423.835 1096.9 492.422L1046.36 547.618L915.02 489.261C915.02 489.261 884.899 472.471 872.85 457.947L851.88 439.451L861.082 337.855Z" fill="#F7C7A1"/><path d="M798.149 1020C977.301 1020 1122.53 874.627 1122.53 695.302C1122.53 515.977 977.301 370.605 798.149 370.605C618.997 370.605 473.766 515.977 473.766 695.302C473.766 874.627 618.997 1020 798.149 1020Z" fill="#8DA8DC"/><path d="M800.581 498.315C801.432 506.092 809.212 508.493 815.911 508.836C827.97 509.855 835.895 486.234 847.393 504.366C854.518 514.752 860.065 547.564 878.283 537.531C883.31 534.308 891.308 529.973 890.674 522.893C891.079 510.042 886.426 491.755 898.298 481.109C906.68 468.487 884.743 467.281 884.442 456.895L883.466 426.651C883.933 417.014 899.845 411.181 893.208 400.244C893.208 378.328 925.708 388.371 902.535 425.705C898.91 431.34 922.353 470.733 931.753 459.64C968.137 424.187 974.431 458.496 955.746 463.746C950.812 465.368 935.534 461.23 936.074 470.307C936.427 473.914 935.471 481.629 937.995 484.238C943.417 487.815 945.515 497.036 936.822 497.13C932.958 496.548 929.665 499.854 930.32 503.659C929.914 514.128 940.374 531.678 931.286 538.03C928.679 539.101 924.7 539.538 923.807 542.74C921.512 555.133 909.983 542.584 903.792 547.221C895.784 553.344 886.737 566.517 875.302 559.53C862.1 557.649 855.733 574.449 844.776 556.432C836.716 544.611 855.806 539.642 844.994 525.721C840.06 515.896 828.718 520.512 824.75 528.652C818.342 534.391 830.982 556.723 831.792 563.034C836.134 578.442 811.123 574.72 808.485 587.019C807.342 593.101 804.787 592.727 803.634 587.019C807.311 580.573 802.45 580.24 798.794 584.784C792.427 590.918 795.959 601.595 789.425 608.259C777.325 612.179 762.649 628.273 755.586 638.357C753.675 640.666 750.455 641.404 747.734 640.146C729.038 637.224 750.278 660.741 720.947 654.545C697.296 660.086 741.658 686.494 740.525 696.246L739.83 720.408C739.383 747.699 684.697 722.975 671.569 724.327C639.183 719.129 653.766 794.047 648.573 809.496C647.513 827.576 669.055 819.622 675.879 830.653C683.742 847.246 694.077 838.856 706.634 835.269C734.387 838.16 737.43 831.121 752.335 810.255C759.128 801.782 749.655 787.476 760.26 780.749L784.357 763.169C795.419 754.654 783.349 729.837 806.169 733.029C829.248 744.424 839.811 707.017 862.859 718.827C874.658 723.423 874.668 739.496 886.083 744.528C897.851 753.136 949.265 767.192 943.064 788.89C945.775 796.719 952.464 777.402 953.97 776.477C956.598 772.328 949.929 768.918 947.634 766.6C946.99 762.93 948.922 758.501 953.253 759.811C957.751 761.672 967.389 764.936 965.727 756.089C963.806 748.021 933.051 747.678 928.367 741.908C927.744 741.388 902.193 717.912 901.58 717.476C896.937 713.192 886.228 707.952 886.571 700.415C889.604 666.48 923.184 709.845 932.065 717.06C934.287 720.543 960.441 725.679 964.086 727.353C974.556 729.359 974.109 745.016 976.083 752.866C986.096 769.407 1024.48 828.283 1032.1 776.872C1035.27 766.839 1023.24 760.84 1016.73 756.109C994.986 734.526 1038.64 729.068 1051.29 725.512C1055.43 724.41 1058.23 716.301 1062.98 716.571C1077.71 721.083 1055.19 732.166 1051.09 735.441C1042.62 739.766 1069.84 770.311 1070.69 774.979C1073.1 780.957 1100.58 771.486 1104.68 772.183C1110.92 771.403 1107.03 760.549 1114.63 761.869C1114.97 761.963 1115.3 762.046 1115.64 762.129C1120.14 740.556 1122.53 718.203 1122.53 695.289C1122.53 688.157 1122.27 681.088 1121.83 674.07C1098.77 676.492 1114.66 687.783 1086.51 703.108C1051.36 715.563 1048.57 669.776 1055.88 646.851C1064.56 617.003 1088.77 647.299 1105.27 636.257C1108.77 632.712 1112.23 630.248 1115.67 628.626C1087.8 495.009 977.901 391.563 841.088 373.441C814.166 470.452 784.648 418.698 800.581 498.315Z" fill="#01464D"/><path d="M1067.31 856.46C1067.32 857.177 1024 858.373 1022.8 858.446C994.654 866.025 1023.68 894.137 974.877 897.236C967.617 899.471 958.581 890.842 952.962 887.494C939.854 882.285 913.025 878.834 899.17 874.924C880.172 870.672 895.41 852.478 888.752 841.676C876.766 814.125 856.19 829.273 834.929 833.026C832.083 834.107 785.509 833.088 782.383 833.421C769.503 833.691 740.639 864.206 727.407 862.313L703.86 858.685C694.928 855.42 685.787 846.552 677.208 856.408C674.933 859.392 664.329 870.911 661.337 872.346C633.211 882.379 631.653 887.192 628.08 916.022C626.262 926.658 602.591 935.547 588.673 943.168C645.176 991.086 718.277 1020 798.15 1020C920.213 1020 1026.5 952.504 1081.87 852.78C1075.28 855.077 1070.04 856.647 1067.31 856.46Z" fill="#01464D"/><path d="M731.042 503.523C723.138 494.063 708.721 527.924 704.213 530.305C697.556 539.381 737.513 574.512 722.255 580.77C713.811 580.375 714.475 588.755 714.984 594.712C714.735 599.349 706.737 602.468 712.284 607.261C720.759 612.189 717.81 617.793 711.152 622.617C702.874 645.552 758.026 617.741 765.619 616.597C769.742 614.944 775.164 593.808 771.664 590.543C760.187 583.38 743.734 553.053 737.253 541.409C737.035 520.782 752.636 523.485 731.042 503.523Z" fill="#01464D"/><path d="M692.706 597.585C702.625 595.869 699.498 573.392 701.482 566.769C701.752 549.219 680.127 561.051 671.777 563.671C662.74 565.74 665.399 586.73 663.519 593.062C662.917 609.925 684.344 599.591 692.706 597.585Z" fill="#01464D"/><path d="M941.932 311.602H1314C1314 311.602 1292.06 288.833 1263.64 289.644C1235.21 290.455 1219.77 303.471 1184.83 297.774C1149.9 292.077 1136.09 275.816 1115.78 275.816C1095.48 275.816 1072.73 289.644 1045.1 292.077C1017.48 294.52 990.676 291.266 974.421 293.699C958.187 296.152 941.932 311.602 941.932 311.602Z" fill="#E5F0FF"/><path d="M612.978 280.695L609.643 284.033L606.309 280.695C601.023 275.404 592.443 275.404 587.156 280.695C581.87 285.987 581.87 294.575 587.156 299.867L590.491 303.204L609.643 322.386L628.796 303.215L632.13 299.877C637.417 294.585 637.417 285.998 632.13 280.706C626.844 275.404 618.264 275.404 612.978 280.695Z" fill="#E73245"/><path d="M657.048 227.248L654.317 228.318L653.247 225.584C651.554 221.238 646.662 219.097 642.32 220.791C637.979 222.486 635.839 227.383 637.532 231.729L638.602 234.463L644.74 250.193L660.455 244.049L663.187 242.978C667.528 241.283 669.668 236.386 667.975 232.04C666.282 227.695 661.39 225.553 657.048 227.248Z" fill="#E73245"/><path d="M614.754 183.516L614.048 185.315L612.251 184.608C609.405 183.485 606.185 184.889 605.063 187.737C603.942 190.586 605.344 193.809 608.19 194.932L609.987 195.639L620.301 199.704L624.362 189.38L625.068 187.582C626.19 184.733 624.788 181.51 621.942 180.387C619.096 179.264 615.876 180.668 614.754 183.516Z" fill="#E73245"/><path d="M602.851 341.545C625.649 337.729 647.222 353.137 651.034 375.958C654.846 398.778 639.453 420.372 616.655 424.188C593.856 428.003 572.283 412.595 568.471 389.775C564.659 366.954 580.052 345.361 602.851 341.545Z" fill="#232144"/><path d="M626.054 348.979C629.834 348.345 633.407 350.903 634.04 354.677C634.674 358.461 632.119 362.037 628.349 362.672C624.569 363.306 620.996 360.748 620.362 356.974C619.729 353.19 622.273 349.614 626.054 348.979Z" fill="#693725"/><path d="M633.792 395.436C637.572 394.802 641.145 397.36 641.778 401.134C642.412 404.918 639.857 408.495 636.087 409.129C632.307 409.763 628.734 407.205 628.101 403.431C627.467 399.647 630.012 396.071 633.792 395.436Z" fill="#693725"/><path d="M637.865 400.953C637.293 397.553 639.589 394.33 642.985 393.759L649.071 392.74C652.467 392.168 655.686 394.465 656.257 397.865C656.829 401.265 654.533 404.488 651.137 405.06L645.051 406.078C641.645 406.65 638.436 404.353 637.865 400.953Z" fill="#D0DEF2"/><path d="M630.344 355.89C629.773 352.491 632.068 349.268 635.464 348.696L641.55 347.677C644.946 347.105 648.166 349.403 648.737 352.803C649.308 356.202 647.013 359.425 643.617 359.997L637.531 361.016C634.124 361.598 630.905 359.301 630.344 355.89Z" fill="#D0DEF2"/><path d="M668.629 390.138L646.703 393.808L641.104 359.967L662.979 356.307C672.316 354.748 681.145 361.048 682.703 370.395C684.271 379.741 677.967 388.578 668.629 390.138Z" fill="#5D2B1A"/><path d="M643.898 399.951L612.354 405.232C602.383 406.896 592.952 400.159 591.279 390.178L589.825 381.476C588.163 371.495 594.894 362.055 604.865 360.381L636.409 355.1C646.38 353.436 655.811 360.173 657.484 370.154L658.938 378.856C660.61 388.837 653.869 398.277 643.898 399.951Z" fill="#693725"/><path d="M638.258 384.234C638.206 384.202 637.043 383.589 636.752 382.456C636.586 381.832 636.721 381.187 637.136 380.553C637.562 379.909 637.78 379.264 637.801 378.63C637.821 377.985 637.676 377.445 637.354 377.008C637.219 376.831 637.032 376.654 636.793 376.498C636.492 376.301 635.765 375.74 635.578 374.793C635.422 374.024 635.64 373.203 636.212 372.34L636.97 372.849C636.534 373.504 636.357 374.097 636.471 374.617C636.596 375.23 637.094 375.615 637.302 375.75C637.624 375.968 637.884 376.207 638.091 376.478C638.538 377.081 638.756 377.819 638.725 378.671C638.694 379.472 638.424 380.272 637.905 381.063C637.635 381.478 637.541 381.863 637.645 382.227C637.832 382.965 638.683 383.423 638.694 383.433L638.258 384.234Z" fill="black"/><path d="M645.248 376.627C643.337 376.949 644.085 379.839 644.085 379.839L645.196 386.483C644.812 386.483 657.866 374.724 641.997 367.332L643.108 373.975C643.098 373.965 643.337 376.949 645.248 376.627Z" fill="#E73245"/><path d="M614.504 370.426L614.463 370.145C613.995 367.265 614.982 364.323 617.121 362.191L619.541 377.121C616.831 375.78 614.971 373.305 614.504 370.426Z" fill="#232144"/><path d="M628.276 374.293C628.276 374.293 624.506 373.243 622.886 370.28C621.276 367.317 622.429 363.574 622.429 363.574C622.429 363.574 625.493 364.354 627.113 367.307C628.723 370.28 628.276 374.293 628.276 374.293Z" fill="white"/><path d="M625.493 371.713C626.989 371.464 628.007 370.039 627.757 368.542C627.508 367.045 626.085 366.026 624.59 366.276C623.094 366.525 622.076 367.95 622.326 369.447C622.575 370.944 623.987 371.963 625.493 371.713Z" fill="black"/><path d="M628.276 374.298C622.543 374.423 618.971 367.738 620.871 362.945C621.339 363.143 622.294 363.507 622.761 363.704C622.346 364.765 621.162 370.109 627.352 373.737C627.726 373.955 627.871 373.966 628.276 374.298Z" fill="black"/><path d="M618.399 393.767L618.451 394.048C618.95 396.917 620.829 399.381 623.55 400.702L620.996 385.793C618.856 387.945 617.901 390.887 618.399 393.767Z" fill="#232144"/><path d="M630.042 385.23C630.042 385.23 626.812 387.455 626.251 390.772C625.69 394.099 627.996 397.259 627.996 397.259C627.996 397.259 630.644 395.523 631.205 392.207C631.776 388.89 630.042 385.23 630.042 385.23Z" fill="white"/><path d="M628.131 389.057C629.627 388.808 631.049 389.816 631.299 391.324C631.548 392.821 630.54 394.245 629.035 394.495C627.539 394.744 626.116 393.736 625.867 392.228C625.618 390.731 626.625 389.307 628.131 389.057Z" fill="black"/><path d="M630.042 385.23C624.579 386.977 623.374 394.463 626.729 398.382C627.113 398.039 627.892 397.384 628.276 397.051C627.539 396.189 624.683 391.52 629.367 386.062C629.637 385.74 629.772 385.678 630.042 385.23Z" fill="black"/><path d="M623.116 403.127C613.477 404.27 604.555 397.731 602.955 388.166L602.457 385.192L596.879 386.128L596.443 383.487L602.02 382.552L601.522 379.578C599.922 370.003 606.227 360.916 615.72 358.868L615.128 355.344L604.731 357.08C593.929 358.889 586.628 369.119 588.435 379.942L590.46 392.096C592.267 402.908 602.488 410.217 613.3 408.408L623.697 406.672L623.116 403.127Z" fill="#232144"/><path d="M636.07 400.823L621.966 403.184L622.154 404.31L636.259 401.95L636.07 400.823Z" fill="#232144"/><path d="M629.527 355.421L615.422 357.781L615.61 358.908L629.715 356.548L629.527 355.421Z" fill="#232144"/><path d="M1038.15 642.351C1046.77 607.346 1007.33 596.96 1007.33 596.96L1020.07 561.258L1046.51 573.38L1076.59 583.922L1073.17 593.186L1061.65 589.1C1061.64 589.1 1061.62 589.1 1061.61 589.11C1061.55 589.09 1061.5 589.048 1061.44 589.027C1059.96 588.466 1058.32 589.214 1057.76 590.691C1057.21 592.167 1057.95 593.81 1059.42 594.371C1059.5 594.402 1059.57 594.402 1059.64 594.423L1071.02 598.831L1048.36 659.017C1048.36 659.017 1034.26 658.175 1038.15 642.351Z" fill="#E73245"/><path d="M979.126 580.262L1009.03 592.177L1020.07 561.257L993.698 545.371L979.126 580.262Z" fill="#693725"/><path d="M883.122 450.343C879.383 450.935 875.873 451.278 872.58 451.434L871.053 438.584L866.94 349.381L811.029 332.632L808.308 329.68L772.744 400.876L777.823 407.509L785.509 502.44C786.465 514.282 793.112 524.97 803.395 530.885C827.668 544.848 855.961 551.148 855.961 551.148L979.406 581.725L1012.17 505.59C958.893 461.28 915.757 445.165 883.122 450.343Z" fill="#F7E5CD"/><path d="M731.084 423.781L724.904 428.626L658.035 481.43L673.979 479.965L679.525 486.826L728.248 460.627L744.867 449.471L731.084 423.781Z" fill="#693725"/><path d="M702.49 363.134C708.67 371.534 706.884 383.365 698.481 389.551C690.089 395.737 678.269 393.939 672.089 385.538C665.909 377.138 667.705 365.306 676.098 359.121C684.49 352.935 696.3 354.733 702.49 363.134Z" fill="#232144"/><path d="M671.651 384.949L726.004 371.766L761.225 444.802L728.269 461.915L671.651 384.949Z" fill="#F7931E"/><path d="M668.389 497.847L647.159 512.351C645.778 513.318 643.867 512.975 642.901 511.581C641.935 510.188 642.278 508.286 643.669 507.319L656.59 498.596L656.341 498.232L640.086 509.273C638.705 510.24 636.793 509.897 635.827 508.504C634.862 507.121 635.204 505.208 636.596 504.241L651.76 493.959L651.511 493.595L634.425 505.219C633.044 506.186 631.133 505.842 630.167 504.449C629.201 503.067 629.544 501.154 630.935 500.187L649.112 487.804L648.863 487.44L633.314 497.993C631.932 498.96 630.021 498.617 629.055 497.224C628.089 495.841 628.432 493.928 629.824 492.961L649.517 479.581L640.356 480.496C638.673 480.641 637.198 479.383 637.053 477.699C636.908 476.015 638.164 474.538 639.847 474.393L655.219 472.958C659.104 472.636 663.009 472.916 666.8 473.79L680.874 463.996L691.811 479.757L673.406 492.576C672.222 494.51 670.664 496.194 668.836 497.525L668.389 497.847Z" fill="#693725"/><path d="M819.121 391.891C845.531 391.891 866.941 372.858 866.941 349.379C866.941 325.9 845.531 306.867 819.121 306.867C792.71 306.867 771.301 325.9 771.301 349.379C771.301 372.858 792.71 391.891 819.121 391.891Z" fill="#F7E5CD"/><path d="M819.12 306.86C819.12 306.86 807.83 303.762 775.507 319.336C770.023 321.977 763.936 325.148 757.195 328.974C727.531 345.806 695.135 344.392 688.176 344.319C682.433 344.257 676.71 345.245 671.475 347.615C665.513 350.318 654.794 354.425 655.905 362.856C658.003 378.857 665.212 394.67 665.212 394.67C725.402 400.638 785.696 413.561 846.073 432.691C845.648 386.821 838.803 343.903 819.12 306.86Z" fill="#F7931E"/><path d="M669.759 347.441L651.454 352.477L665.114 402.227L683.42 397.192L669.759 347.441Z" fill="#F7931E"/></svg>