<svg viewBox="0 0 1600 1200" fill="none" xmlns="http://www.w3.org/2000/svg"><path d="M358.094 337.383H326.496V457.784H358.094V337.383Z" fill="#B0C2E4"/><path d="M342.296 448.019C347.463 448.019 351.651 443.833 351.651 438.67C351.651 433.506 347.463 429.32 342.296 429.32C337.13 429.32 332.941 433.506 332.941 438.67C332.941 443.833 337.13 448.019 342.296 448.019Z" fill="#D0DEF2"/><path d="M351.962 353.07H332.525V417.27H351.962V353.07Z" fill="#D0DEF2"/><path d="M389.588 337.383H357.99V457.784H389.588V337.383Z" fill="#D0DEF2"/><path d="M373.79 448.019C378.957 448.019 383.145 443.833 383.145 438.67C383.145 433.506 378.957 429.32 373.79 429.32C368.624 429.32 364.436 433.506 364.436 438.67C364.436 443.833 368.624 448.019 373.79 448.019Z" fill="#B0C2E4"/><path d="M383.56 353.07H364.123V417.27H383.56V353.07Z" fill="#B0C2E4"/><path d="M421.186 337.383H389.588V457.784H421.186V337.383Z" fill="#E5F0FF"/><path d="M405.388 448.019C410.554 448.019 414.743 443.833 414.743 438.67C414.743 433.506 410.554 429.32 405.388 429.32C400.221 429.32 396.033 433.506 396.033 438.67C396.033 443.833 400.221 448.019 405.388 448.019Z" fill="#B0C2E4"/><path d="M415.054 353.07H395.617V417.27H415.054V353.07Z" fill="#B0C2E4"/><path d="M452.27 333.705L421.133 339.09L441.673 457.733L472.809 452.348L452.27 333.705Z" fill="#B0C2E4"/><path d="M453.929 445.629C459.095 445.629 463.284 441.443 463.284 436.279C463.284 431.116 459.095 426.93 453.929 426.93C448.762 426.93 444.574 431.116 444.574 436.279C444.574 441.443 448.762 445.629 453.929 445.629Z" fill="#D0DEF2"/><path d="M448.942 350.231L429.789 353.543L440.741 416.806L459.894 413.493L448.942 350.231Z" fill="#D0DEF2"/><path d="M242.616 183.738H211.018V304.139H242.616V183.738Z" fill="#B0C2E4"/><path d="M226.714 294.379C231.881 294.379 236.069 290.193 236.069 285.029C236.069 279.866 231.881 275.68 226.714 275.68C221.548 275.68 217.359 279.866 217.359 285.029C217.359 290.193 221.548 294.379 226.714 294.379Z" fill="#D0DEF2"/><path d="M236.484 199.426H217.047V263.626H236.484V199.426Z" fill="#D0DEF2"/><path d="M274.213 183.738H242.615V304.139H274.213V183.738Z" fill="#D0DEF2"/><path d="M258.312 294.379C263.478 294.379 267.666 290.193 267.666 285.029C267.666 279.866 263.478 275.68 258.312 275.68C253.145 275.68 248.957 279.866 248.957 285.029C248.957 290.193 253.145 294.379 258.312 294.379Z" fill="#B0C2E4"/><path d="M268.082 199.426H248.645V263.626H268.082V199.426Z" fill="#B0C2E4"/><path d="M305.707 183.738H274.109V304.139H305.707V183.738Z" fill="#E5F0FF"/><path d="M289.909 294.379C295.076 294.379 299.264 290.193 299.264 285.029C299.264 279.866 295.076 275.68 289.909 275.68C284.743 275.68 280.555 279.866 280.555 285.029C280.555 290.193 284.743 294.379 289.909 294.379Z" fill="#B0C2E4"/><path d="M299.679 199.426H280.242V263.626H299.679V199.426Z" fill="#B0C2E4"/><path d="M336.787 180.065L305.65 185.449L326.19 304.092L357.327 298.708L336.787 180.065Z" fill="#B0C2E4"/><path d="M338.554 291.988C343.72 291.988 347.909 287.802 347.909 282.639C347.909 277.475 343.72 273.289 338.554 273.289C333.387 273.289 329.199 277.475 329.199 282.639C329.199 287.802 333.387 291.988 338.554 291.988Z" fill="#D0DEF2"/><path d="M333.46 196.59L314.307 199.902L325.259 263.165L344.412 259.853L333.46 196.59Z" fill="#D0DEF2"/><path d="M482.824 304.035H200V314.527H482.824V304.035Z" fill="#D0DEF2"/><path d="M482.824 457.68H200V468.172H482.824V457.68Z" fill="#D0DEF2"/><path d="M1120.5 544.215C1087.97 534.658 1057.51 521.569 1029.76 505.779C1054.4 477.626 1074.87 447.396 1091.09 416.023C1113.85 427.658 1139 437.008 1166.03 443.241C1155.32 477.522 1140.15 511.492 1120.5 544.215Z" fill="#E6E3DA"/><path d="M1294.92 374.053C1278.18 396.284 1258.64 417.58 1236.6 437.422C1200.43 415.191 1169.04 389.116 1142.95 360.756C1165.61 345.381 1185.98 328.24 1203.76 309.957C1229.33 334.37 1259.89 356.289 1294.92 374.053Z" fill="#E6E3DA"/><path d="M1292.63 301.751C1275.48 279.312 1260.82 255.939 1248.56 232.046C1285.77 218.956 1318.93 201.088 1347.3 180C1362.58 200.465 1380.25 219.995 1400 238.279C1369.03 263.314 1332.96 284.922 1292.63 301.751Z" fill="#E6E3DA"/><path d="M558.285 573.513C558.285 573.513 568.367 474.512 586.349 408.131C590.091 394.314 640.191 395.977 640.191 395.977L644.66 401.171C658.276 417.065 663.474 436.387 665.76 464.643L669.502 576.006L558.285 573.513Z" fill="#232144"/><path d="M560.469 931.387L613.167 932.322L600.487 1001.09H558.91L560.469 931.387Z" fill="#FFC4B8"/><path d="M558.91 1020V986.651L562.132 987.689C575.853 991.949 590.82 990.286 603.189 983.015L604.644 982.184L649.131 994.857C653.912 996.208 657.135 1000.47 657.135 1005.14V1020H558.91Z" fill="#463EC5"/><path d="M554.336 957.36L564.106 751.36L557.766 600.002L663.474 587.848L643.621 761.125L619.507 957.36H554.336Z" fill="#D8CBC5"/><path d="M644.973 925.676L697.775 926.611L694.864 1005.77H653.184L644.973 925.676Z" fill="#FFC4B8"/><path d="M651.002 1020V986.651L654.224 987.689C667.944 991.949 682.912 990.286 695.281 983.015L696.736 982.184L741.223 994.857C746.004 996.208 749.226 1000.47 749.226 1005.14V1020H651.002Z" fill="#463EC5"/><path d="M610.464 540.164C581.152 540.164 557.35 563.953 557.35 593.248C557.35 602.494 559.74 611.22 563.898 618.804L620.338 745.541C625.119 754.995 627.926 765.175 628.861 775.771L638.943 957.567H704.842L710.559 770.577C710.663 760.189 708.792 749.904 705.154 740.243L662.434 608.623L665.137 570.394L610.464 540.164Z" fill="#E6E3DA"/><path fill-rule="evenodd" clip-rule="evenodd" d="M598.408 394.204C597.784 402.307 603.813 409.475 612.024 410.098L626.991 411.241C635.099 411.864 642.271 405.839 642.894 397.632L643.934 383.815C647.676 384.127 651.314 384.439 654.432 384.646C660.772 385.166 666.385 380.387 666.905 374.05C667.113 371.246 667.528 365.844 668.152 359.403C669.399 359.091 670.751 358.883 671.998 358.572C673.245 358.364 674.285 357.429 674.7 356.286C675.22 355.144 675.012 353.793 674.285 352.754C672.829 350.573 670.959 348.08 669.295 345.586C670.647 329.588 672.102 313.279 672.102 313.279L605.06 308.5L598.408 394.204Z" fill="#FFC4B8"/><path d="M718.874 550.657L744.964 570.914L753.695 578.602C755.67 580.368 758.58 580.056 760.139 578.602C760.971 577.771 761.906 576.109 761.802 574.55L762.114 574.758C764.089 576.524 767.207 576.316 768.974 574.343C770.429 572.784 770.533 570.499 769.494 568.733L769.598 568.837C771.573 570.603 774.691 570.395 776.458 568.421C777.913 566.863 778.017 564.578 776.977 562.812C778.952 563.85 781.447 563.539 783.006 561.773C784.565 559.903 784.565 557.306 783.11 555.436L784.046 554.605L754.838 523.648L732.595 524.894L657.653 498.819L637.592 406.363L590.195 420.595L620.962 513.259C623.353 520.531 628.861 525.933 635.514 528.634H635.618L718.874 550.657Z" fill="#FFC4B8"/><path fill-rule="evenodd" clip-rule="evenodd" d="M673.973 310.167C673.661 314.738 673.141 316.919 671.271 318.893C669.192 321.075 666.177 322.01 663.163 321.906L643.934 320.763L641.647 347.877L634.787 347.565L635.515 340.085C635.515 340.085 619.82 376.548 600.279 370.004C600.487 370.108 598.096 345.072 596.225 323.672C595.601 316.088 598.304 308.713 603.605 303.311C608.906 297.909 616.39 295.208 623.873 295.727L665.554 299.051C670.647 299.467 674.493 303.83 674.181 308.92L673.973 310.167Z" fill="#CA542A"/><path d="M639.36 347.878C638.945 352.553 634.891 356.085 630.214 355.669C625.536 355.254 622.002 351.202 622.418 346.528C622.834 341.853 626.887 338.321 631.565 338.736C636.242 339.048 639.776 343.099 639.36 347.878Z" fill="#FFC4B8"/><path d="M661.916 367.199C663.163 368.757 665.034 369.796 667.321 370.004L667.217 371.77C664.514 371.562 662.124 370.316 660.564 368.342L661.916 367.199Z" fill="#1D1D1B"/><path d="M602.254 474.922L586.455 420.799C583.544 406.567 592.068 392.231 606.307 388.18C621.275 383.816 636.97 392.439 641.336 407.502L657.031 461.106L602.254 474.922Z" fill="#232144"/><path d="M668.332 332.278L650.633 330.656L650.177 335.622L667.877 337.243L668.332 332.278Z" fill="#A3422E"/><path d="M661.812 388.701C664.93 389.013 667.632 386.727 667.944 383.611L668.776 374.158L656.718 373.015L657.446 365.224L669.607 366.366L670.231 360.029L640.711 357.328L642.167 341.642L637.177 341.227L633.436 383.611C633.332 384.961 634.267 386.104 635.618 386.208L661.812 388.701Z" fill="#A3422E"/><path d="M661.811 346.112C665.345 346.839 666.593 341.022 663.059 340.191C659.525 339.463 656.406 340.087 656.094 341.749C655.679 343.411 658.277 345.281 661.811 346.112Z" fill="white"/><path d="M663.265 340.293C662.226 340.812 661.395 342.059 661.395 343.617C661.395 344.656 661.81 345.591 662.33 346.214C665.344 346.11 666.28 341.228 663.265 340.293Z" fill="#1D1D1B"/><path d="M761.594 1002.65V1019.68H855.141V986.753L857.739 970.34H806.185V986.753L761.594 1002.65Z" fill="#232144"/><path d="M919.274 970.34V986.753L874.684 1002.65V1019.68H968.231V991.117V986.753V970.34H919.274Z" fill="#232144"/><path d="M740.701 528.941L739.038 529.668L736.752 530.707C734.257 531.85 733.114 534.758 734.257 537.355C735.4 539.849 738.311 540.991 740.909 539.849L751.823 534.966L756.189 532.992C756.085 534.447 756.293 539.952 760.658 544.835C765.855 550.549 776.249 548.886 776.249 548.886L783.109 555.431L807.847 546.497V512.008L778.12 527.071L758.579 520.942L740.701 528.941Z" fill="#BF7461"/><path d="M878.32 598.754L794.023 984.369H877.592L971.763 708.559L965.007 598.754H878.32Z" fill="#232144"/><path d="M883.102 627.32V984.367H973.219L980.91 627.32H883.102Z" fill="#463EC5"/><path d="M795.686 557.51L782.59 520.631L852.23 488.635L898.172 445.523L918.441 486.557L873.434 522.189L795.686 557.51Z" fill="#232144"/><path d="M928.836 404.387C929.044 401.998 911.894 416.957 911.894 416.957C904.722 427.346 883.622 458.095 882.063 470.561L872.916 654.123H990.785L964.176 426.411L928.836 404.387Z" fill="#232144"/><path d="M873.02 654.123L882.166 470.561C883.725 458.095 904.826 427.242 911.997 416.957C911.997 416.957 929.148 401.998 928.94 404.387L914.908 442.097H900.564L906.696 461.939L873.02 654.123Z" fill="#463EC5"/><path fill-rule="evenodd" clip-rule="evenodd" d="M956.692 320.547H891.52C891.52 320.547 891.52 334.779 891.52 349.426C889.442 352.023 887.155 354.724 885.284 357.01C884.452 358.049 884.141 359.399 884.556 360.646C884.972 361.892 885.908 362.827 887.155 363.243C888.61 363.658 890.065 364.074 891.52 364.489C891.52 371.034 891.52 376.54 891.52 379.449C891.52 385.993 896.821 391.291 903.37 391.291C905.968 391.291 908.879 391.291 911.893 391.291V415.808C911.893 424.015 918.545 430.663 926.757 430.663H941.828C950.039 430.663 956.692 424.015 956.692 415.808V320.547Z" fill="#BF7461"/><path d="M929.772 354.832V377.063H969.997V330.42C969.997 314.941 961.994 302.267 947.234 302.475L902.851 302.995C895.056 303.098 888.819 309.539 888.923 317.33C889.027 325.122 895.471 331.355 903.267 331.251H903.787C905.554 339.042 912.31 345.067 920.521 345.587L929.772 354.832Z" fill="#E6E6E6"/><path d="M890.898 374.983C890.171 374.568 889.547 373.737 889.547 372.802C889.547 371.451 890.69 370.309 892.041 370.309C894.016 370.412 895.056 372.594 898.382 373.217C897.342 373.737 896.095 373.841 894.744 374.048C893.393 374.256 892.041 374.464 890.898 374.983Z" fill="#232144"/><path d="M894.848 375.192C896.615 374.984 898.59 374.776 900.045 373.426C897.446 377.373 894.64 379.659 892.041 379.659C890.69 379.659 889.547 378.516 889.547 377.166C889.547 377.062 889.547 377.062 889.547 376.958C889.963 376.75 890.378 376.542 890.794 376.127C891.834 375.503 893.289 375.4 894.848 375.192Z" fill="#232144"/><path d="M900.252 371.66L901.083 372.388C900.979 372.492 900.148 373.323 900.044 373.427C899.42 373.427 898.901 373.323 898.381 373.323C898.797 373.115 899.94 372.076 900.252 371.66Z" fill="#463EC5"/><path d="M894.327 346.729C894.327 346.729 892.56 349.846 894.639 353.482C894.639 353.482 900.356 354.728 904.41 347.872C904.41 347.872 898.589 346.21 894.327 346.729Z" fill="white"/><path d="M890.898 375.09C891.938 374.467 893.289 374.259 894.64 374.155C895.991 374.051 897.238 373.844 898.278 373.324C898.798 373.428 899.317 373.428 899.941 373.428C898.486 374.779 896.511 374.986 894.744 375.194C893.185 375.402 891.73 375.506 890.794 376.233C890.274 376.648 889.859 376.856 889.547 377.064C889.651 376.233 890.171 375.402 890.898 375.09Z" fill="#463EC5"/><path d="M1020.2 570.284L965.111 643.003L855.037 559.792L910.126 487.074C912.932 483.334 918.233 482.607 921.975 485.412L1018.54 558.442C1022.28 561.246 1023.01 566.544 1020.2 570.284Z" fill="#F7931E"/><path d="M1015.11 577.037L965.111 643.003L855.037 559.792L910.126 487.074C912.932 483.334 918.233 482.607 921.975 485.412L965.942 518.654C969.684 521.459 970.412 526.757 967.605 530.497L1013.55 565.194C1017.19 567.999 1017.91 573.297 1015.11 577.037Z" fill="#FBB03B"/><path d="M893.287 346.833V345.794C893.287 345.794 899.524 344.028 905.656 346.522L904.097 348.495C904.097 348.599 899.524 346.625 893.287 346.833Z" fill="#1D1D1B"/><path d="M733.115 555.432L725.423 563.639C723.552 565.612 720.434 565.716 718.459 563.846C716.588 561.977 716.484 558.964 718.251 556.99L726.047 548.576C727.918 546.602 731.036 546.602 732.907 548.472C734.986 550.342 734.986 553.458 733.115 555.432Z" fill="#BF7461"/><path d="M742.158 560.311L734.466 568.518C732.595 570.491 729.477 570.595 727.502 568.725C725.631 566.855 725.527 563.843 727.294 561.869L735.09 553.455C736.961 551.481 740.079 551.481 741.95 553.351C744.029 555.324 744.029 558.337 742.158 560.311Z" fill="#BF7461"/><path d="M748.083 568.726L743.405 573.609C741.534 575.583 738.416 575.583 736.545 573.713C734.57 571.843 734.57 568.726 736.441 566.857L741.119 561.974C742.99 560 746.108 560 747.979 561.87C749.85 563.74 749.954 566.857 748.083 568.726Z" fill="#BF7461"/><path d="M908.152 344.959L895.575 340.492C893.081 339.557 891.729 336.752 892.665 334.259L892.769 334.051L905.346 338.518C907.84 339.453 909.191 342.258 908.256 344.751L908.152 344.959Z" fill="#C6C6C6"/><path d="M1019.16 546.805L991.304 520.73L938.918 576.308L929.563 577.243C928.835 577.139 928.004 577.139 927.276 577.243L898.588 578.697C895.886 579.113 894.015 581.606 894.327 584.307C894.743 587.008 897.237 588.878 899.94 588.566L914.803 587.839L905.449 596.981L905.553 597.085L904.097 598.435C902.122 600.305 902.019 603.525 903.993 605.499C904.825 606.434 906.072 606.85 907.216 606.954C906.384 608.72 906.696 610.901 908.151 612.459C909.918 614.329 912.828 614.433 914.907 612.875C913.972 614.745 914.284 617.03 915.739 618.589C917.506 620.355 920.312 620.562 922.287 619.108C922.495 619.627 922.807 620.251 923.326 620.666C925.093 622.432 927.796 622.64 929.771 621.29L929.875 621.186C930.083 621.082 930.187 620.978 930.394 620.77L931.018 620.147L950.247 603.11L1019.16 546.805Z" fill="#BF7461"/><path d="M961.266 413.525C955.029 402.306 940.997 397.943 929.46 403.864C917.714 409.889 913.141 424.329 919.17 435.964C919.273 436.172 919.377 436.379 919.585 436.587L973.011 525.511C957.004 541.821 936.008 563.221 936.008 563.221L966.567 598.333L1018.75 551.378C1027.58 543.483 1029.56 530.498 1023.63 520.317L961.266 413.525Z" fill="#232144"/><path d="M929.667 364.078C934.546 364.078 938.502 360.125 938.502 355.248C938.502 350.371 934.546 346.418 929.667 346.418C924.788 346.418 920.832 350.371 920.832 355.248C920.832 360.125 924.788 364.078 929.667 364.078Z" fill="#BF7461"/><path d="M930.395 372.597C932.682 372.597 934.241 370.416 933.514 368.338L931.331 361.69C931.227 361.274 930.811 361.066 930.395 361.066C929.98 361.066 929.564 361.378 929.46 361.69L927.277 368.338C926.654 370.416 928.213 372.597 930.395 372.597Z" fill="#232144"/><path d="M924.471 340.602H920.209V356.703H924.471V340.602Z" fill="#E6E6E6"/><path d="M894.327 346.733C894.327 346.733 892.56 349.849 894.639 353.485C894.639 353.485 895.471 353.693 896.718 353.485C897.446 352.758 897.965 351.615 897.965 350.265C897.965 348.603 897.238 347.252 896.094 346.629C895.471 346.629 894.847 346.733 894.327 346.733Z" fill="#1D1D1B"/></svg>