<?xml version="1.0" encoding="UTF-8"?><svg xmlns="http://www.w3.org/2000/svg" version="1.1" viewBox="0 0 1200 840"><defs><style>.cls-1 {
        fill: #f4e6d0;
      }

      .cls-1, .cls-2, .cls-3, .cls-4, .cls-5, .cls-6, .cls-7, .cls-8, .cls-9, .cls-10, .cls-11, .cls-12, .cls-13, .cls-14, .cls-15, .cls-16, .cls-17, .cls-18, .cls-19, .cls-20, .cls-21, .cls-22, .cls-23, .cls-24, .cls-25, .cls-26, .cls-27, .cls-28, .cls-29, .cls-30, .cls-31, .cls-32, .cls-33, .cls-34, .cls-35, .cls-36, .cls-37, .cls-38 {
        stroke-width: 0px;
      }

      .cls-2 {
        fill: #e73245;
      }

      .cls-3 {
        fill: #420f0f;
      }

      .cls-4 {
        fill: #e6e3da;
      }

      .cls-5 {
        fill: none;
      }

      .cls-6, .cls-23, .cls-31 {
        fill-rule: evenodd;
      }

      .cls-6, .cls-30 {
        fill: #bf7461;
      }

      .cls-7 {
        fill: #171111;
      }

      .cls-8 {
        fill: #1d1d1b;
      }

      .cls-9 {
        fill: #463ec5;
      }

      .cls-10 {
        fill: #3867c3;
      }

      .cls-11 {
        fill: #891229;
      }

      .cls-12 {
        fill: #006931;
      }

      .cls-13 {
        fill: #000;
      }

      .cls-14 {
        fill: #00401e;
      }

      .cls-15 {
        fill: #010101;
      }

      .cls-16 {
        fill: #f7e5cd;
      }

      .cls-17 {
        fill: #9f3e36;
      }

      .cls-18 {
        fill: #232144;
      }

      .cls-19 {
        fill: #ed1e79;
      }

      .cls-20, .cls-23 {
        fill: #ffc4b8;
      }

      .cls-21, .cls-31 {
        fill: #9e3f39;
      }

      .cls-22 {
        fill: #a3422e;
      }

      .cls-24 {
        fill: #aacde5;
      }

      .cls-25 {
        fill: #232144;
      }

      .cls-26 {
        fill: #181111;
      }

      .cls-27 {
        fill: #a86554;
      }

      .cls-28 {
        fill: #751e17;
      }

      .cls-29 {
        fill: #ffa28f;
      }

      .cls-32 {
        fill: #fff;
      }

      .cls-33 {
        fill: #e6e6e6;
      }

      .cls-34 {
        fill: #071111;
      }

      .cls-35 {
        fill: #f79834;
      }

      .cls-36 {
        fill: #e63346;
      }

      .cls-37 {
        fill: #1d1c1a;
      }

      .cls-38 {
        fill: #faa332;
      }</style></defs><g id="goal"><path class="cls-7" d="M32.12,301.54l-.12.05s.15.4.12-.05Z"/><rect class="cls-1" x="768.14" y="153.72" width="9.43" height="463.99"/><rect class="cls-33" x="608.57" y="153.72" width="26.59" height="26.6"/><rect class="cls-25" x="635.16" y="153.72" width="26.59" height="26.6"/><rect class="cls-33" x="661.76" y="153.72" width="26.59" height="26.6"/><rect class="cls-25" x="688.35" y="153.72" width="26.59" height="26.6"/><rect class="cls-33" x="714.94" y="153.72" width="26.59" height="26.6"/><rect class="cls-25" x="608.57" y="180.32" width="26.59" height="26.6"/><rect class="cls-33" x="635.16" y="180.32" width="26.59" height="26.6"/><rect class="cls-25" x="661.76" y="180.32" width="26.59" height="26.6"/><rect class="cls-33" x="688.35" y="180.32" width="26.59" height="26.6"/><rect class="cls-25" x="714.94" y="180.32" width="26.59" height="26.6"/><rect class="cls-33" x="608.57" y="206.92" width="26.59" height="26.6"/><rect class="cls-25" x="635.16" y="206.92" width="26.59" height="26.6"/><rect class="cls-33" x="661.76" y="206.92" width="26.59" height="26.6"/><rect class="cls-25" x="688.35" y="206.92" width="26.59" height="26.6"/><rect class="cls-33" x="714.94" y="206.92" width="26.59" height="26.6"/><rect class="cls-25" x="608.57" y="233.52" width="26.59" height="26.6"/><rect class="cls-33" x="635.16" y="233.52" width="26.59" height="26.6"/><rect class="cls-25" x="661.76" y="233.52" width="26.59" height="26.6"/><rect class="cls-33" x="688.35" y="233.52" width="26.59" height="26.6"/><rect class="cls-25" x="714.94" y="233.52" width="26.59" height="26.6"/><rect class="cls-25" x="741.54" y="153.72" width="26.59" height="26.6"/><rect class="cls-33" x="741.54" y="180.32" width="26.59" height="26.6"/><rect class="cls-25" x="741.54" y="206.92" width="26.59" height="26.6"/><rect class="cls-33" x="741.54" y="233.52" width="26.59" height="26.6"/><rect class="cls-1" x="599.14" y="153.72" width="9.43" height="463.99"/></g><g id="man_right" data-name="man right"><polygon class="cls-21" points="1120.57 569.51 1125.77 584.49 1149.48 583.87 1146.36 568.26 1120.57 569.51"/><polygon class="cls-21" points="988.3 543.91 979.57 558.48 1000.36 570.76 1010.35 557.33 988.3 543.91"/><path class="cls-7" d="M1014.5,409.19l-9.85,8.47c-.92.79-2.31.68-3.09-.25l-17.95-21.47c-.81-.97-.62-2.43.41-3.17l10.33-7.32c.92-.65,2.18-.49,2.91.36l17.46,20.32c.78.91.68,2.28-.23,3.07h0Z"/><path class="cls-21" d="M1081.56,271.74h-8.22c-4.47,0-8.1-3.63-8.1-8.11v-17.87h24.42v17.87c0,4.48-3.63,8.11-8.1,8.11"/><line class="cls-5" x1="1099.01" y1="204.24" x2="1101.01" y2="204.76"/><path class="cls-31" d="M1066.15,211.63h35.54v32.14c0,3.57-2.89,6.46-6.45,6.46h-29.09v-38.6h0Z"/><path class="cls-21" d="M1104.12,234.09c0,1.42-1.15,2.56-2.56,2.56s-2.56-1.15-2.56-2.56,1.15-4.8,2.56-4.8c0,0,2.56,3.39,2.56,4.8Z"/><ellipse class="cls-7" cx="1098.37" cy="227.73" rx="3.9" ry="6.15"/><rect class="cls-7" x="1080.8" y="227.11" width="16.96" height="2.46" transform="translate(-21.6 296.35) rotate(-15.34)"/><path class="cls-3" d="M1095.73,199.64c-1.17-3.71-4.62-6.39-8.71-6.39-3.65,0-6.79,2.15-8.25,5.24-.83-.22-1.7-.36-2.6-.36-3.16,0-5.98,1.47-7.82,3.75-7.01,1.08-11.92,7.92-10.33,15.13l7.21,30.41c8.26-2.02,14.57-9.19,18.24-18.07v2.09h2.63v-6.25c3.27-.59,5.99-2.75,7.36-5.68.58.1,1.17.17,1.79.17,5.54,0,10.03-4.49,10.03-10.03s-4.23-9.76-9.55-10.01h0Z"/><rect class="cls-33" x="1062.13" y="254.91" width="20.28" height="17.17"/><path class="cls-33" d="M1089.66,264.01l-7.25-9.1-33.38,21.89-7.32,82.81,61.15-.39-2.98-68.4,5.41-1.98-5.93-13.59s-2.7-6.6-6.65-7.75v-12.91h-3.04v9.41h-.01Z"/><polygon class="cls-12" points="1041.71 359.6 1040.92 371.99 1076.44 468.16 1086.05 494.16 1114.12 570.14 1161.54 568.47 1099.88 359.29 1041.71 359.6"/><polygon class="cls-14" points="1020.33 563.68 981.65 540.37 1030.31 445.67 1041.71 359.6 1076.44 468.16 1020.33 563.68"/><polygon class="cls-7" points="978.76 557.89 1002.03 571.59 999.53 576.17 1015.96 604.27 1013.47 607.6 965.84 578.67 978.76 557.89"/><polygon class="cls-7" points="1124.94 584.08 1151.97 583.25 1153.43 588.66 1184 604.27 1184 609.06 1128.27 609.06 1127.85 596.98 1124.94 584.08"/><path class="cls-21" d="M1148.01,386.96v-.06l-.16-.22-25.35-44.94-20.26-51.8-2.38.87,2.45,56.95,25.22,31.56,3.51,14.05-2.26,8.22c-.4,1.46.46,2.96,1.91,3.37,1.46.4,2.96-.46,3.36-1.91l1.87-6.82v.04s.03-.08.05-.22l1.01-3.67c.7-.75,1.88-.16,1.75,1-.08.72-.42,2.75-.67,4.65l-4.68,10.52c-.61,1.38,0,3,1.38,3.61.04.02.08.02.11.04-.06.96.38,1.92,1.25,2.48h0c1.28.81,2.97.44,3.78-.83l6.49-10.18h0l1.58-16.7h0,0s0,0,0,0Z"/><path class="cls-17" d="M1014.2,399.27l46.54-104.99-10.19-5.69-11.66-6.07-38.75,105.59-11.67,9-1.45,1.08c-1.2.89-1.45,2.59-.56,3.79h0c.36.48.85.8,1.38.97-.37.9-.25,1.96.41,2.76h0c.49.6,1.19.92,1.91.96-.34.89-.21,1.92.44,2.7h0c.65.78,1.65,1.09,2.58.92-.34.84-.26,1.84.33,2.62h0c.89,1.2,2.59,1.45,3.79.56l1.33-.99h0l.12-.09h0s12.26-10.46,12.26-10.46l3.33,3.85.29-.19c1.38-1.09,1.7-3.04.75-4.51l-1.17-1.81h0Z"/><path class="cls-13" d="M1096.18,238.75c.92,1.01,2.29,1.59,3.83,1.6v1.21c-1.87-.01-3.58-.72-4.72-1.99,0,0,.9-.81.9-.81Z"/><ellipse class="cls-21" cx="1080" cy="230.57" rx="4.8" ry="4.8"/><path class="cls-33" d="M1056,258.97c-6,0-11.28,3.13-14.29,7.84h-.02s-7.5,12.99-7.5,12.99l6.74,3.9,15.88,9.18,5.66,3.27,3.94-6.83c3.98-3.1,6.53-7.94,6.53-13.38,0-9.37-7.59-16.96-16.95-16.96h0Z"/></g><g id="woman_phone" data-name="woman phone"><path class="cls-29" d="M434.21,489.9l94.11,9.72c10.31,0,19.42-1.21,20.38-14.65l-11.12-94.47-52.42-1.07,28.86,81.67-77.12-8.31c-5.52,8.76-6.41,17.89-2.7,27.1Z"/><path class="cls-16" d="M417.07,519.04c2.8.46,5.59-1.05,6.87-3.73l12.19-25.29v.02c-3.09-7.96-3.37-17.7.51-25.39l.91-1.81-10.93-1.8-9.55,58Z"/><rect class="cls-14" x="388.31" y="485.01" width="58.77" height="8.65" transform="translate(-133.1 821.84) rotate(-80.63)"/><polygon class="cls-14" points="507.44 461.72 476.35 396.31 530.74 367.68 551.62 448.02 507.44 461.72"/><polygon class="cls-20" points="598.8 598.06 620.75 586.25 567.26 463.54 537.23 473.65 598.8 598.06"/><path class="cls-16" d="M651.89,577.93c-1.09-2.62-3.86-4.19-6.8-3.85l-27.9,3.09-.2.98c-5.11,6.84-12.99,11.25-21.56,12.05l-2.03.19,4.27,10.22,54.22-22.67Z"/><polygon class="cls-14" points="600.95 608.46 655.11 585.62 651.78 577.63 597.62 600.48 600.95 608.46"/><polygon class="cls-12" points="480.93 389 538.08 479.74 569.4 465.38 531.17 356.37 480.93 389"/><path class="cls-20" d="M585.4,212.65l-10.14,46.88c-1.43,6.61-8.36,10.45-14.72,8.16h0c-5.93-2.14-8.92-8.75-6.62-14.62l17.96-45.71,13.52,5.28Z"/><polygon class="cls-20" points="536.72 294.71 570.33 266.61 554.7 252.77 514.5 278.97 536.72 294.71"/><path class="cls-25" d="M550.05,290.9s-23.91,16.14-18.29,15.22c9.49-1.54-38-9.42-30.27-26.84l34.37-14.1,14.19,25.72Z"/><path class="cls-20" d="M588.69,208.45c-.61,1.67-1.54,3.2-2.74,4.51l-5.66,16.63-14.21-4.84,4.33-12.7c-1.48-2.67-2.53-5.55-3.12-8.54l-2.23-11.88c-.26-1.3.59-2.56,1.88-2.81,1.3-.26,2.56.59,2.81,1.88l1.29,7.09,5.83-17.72c.43-1.25,1.79-1.92,3.04-1.49s1.92,1.79,1.49,3.04l-4.58,13.97.33.11,5.39-16.35c.42-1.25,1.76-1.89,3.01-1.46s1.94,1.76,1.52,3.01l-5.06,15.36.33.11,4.46-13.63c.43-1.25,1.79-1.92,3.04-1.49,1.25.43,1.92,1.79,1.49,3.04l-4.8,14.62.33.11,3.78-11.6c.43-1.25,1.79-1.92,3.04-1.49,1.25.43,1.92,1.79,1.49,3.04l-6.33,19.1-.13.4Z"/><path class="cls-20" d="M519.57,278.85c.9,6.38-3.54,12.29-9.93,13.19-6.38.9-12.28-3.55-13.18-9.93l-2.96-21.03,23.96,2.78,2.11,14.99"/><path class="cls-20" d="M531.74,243.61c-.69-.91-2.93-3.63-4.37-5.12l-1.73-12.25c-.7-4.97-5.3-8.44-10.28-7.73l-15.61,2.2c-6.56.92-11.14,6.99-10.21,13.56l3.24,23c.93,6.56,7,11.14,13.56,10.21l16.32-2.3c4.58-.64,7.77-4.88,7.12-9.46l-1.21-8.59c1.67-.37,3.39-1.87,3.15-3.52Z"/><path class="cls-15" d="M529.13,253.93c.09-.01.18-.03.27-.05.04,0,.17-.03.17-.03l-.15-.95s-.05.01-.15.03c-1.07.21-2.11-.02-2.85-.63l-.52.79c.85.72,2.02,1.02,3.23.85"/><path class="cls-22" d="M517.45,234.53c.19.79,1.61,1.26,3.41,1.18.3.01.61,0,.93-.04,2.27-.32,4-1.36,3.87-2.33,0,0,0-.02,0-.03.01,0,.02-.02.02-.02,0,0-.01,0-.03-.02-.19-.79-1.61-1.26-3.41-1.18-.3-.01-.61,0-.93.04-2.27.32-4,1.36-3.87,2.33,0,0,0,.02,0,.03-.01,0-.02.02-.02.02,0,0,.01,0,.03.02Z"/><polygon class="cls-20" points="401.66 333.12 389.09 339.06 398.64 353.78 407.94 343.46 401.66 333.12"/><path class="cls-20" d="M392.47,362.91c1.37.51,2.89-.17,3.41-1.54l5.61-14.86-4.95-1.87-5.61,14.86c-.52,1.37.17,2.9,1.54,3.41h0"/><path class="cls-20" d="M382.68,367.4c1.46.09,2.71-1.02,2.8-2.48l.72-11.66-5.28-.33-.72,11.66c-.09,1.46,1.02,2.71,2.48,2.8h0"/><path class="cls-20" d="M385.17,366.22c1.43.31,2.84-.6,3.14-2.04l2.44-11.43-5.18-1.1-2.44,11.43c-.3,1.43.61,2.83,2.04,3.14h0"/><rect class="cls-20" x="379.18" y="344.58" width="16.45" height="5.29" transform="translate(-109.13 502.48) rotate(-59.23)"/><rect class="cls-20" x="381.89" y="345.92" width="16.45" height="5.29" transform="translate(-99.52 532.8) rotate(-62.4)"/><path class="cls-20" d="M398.8,347.92l-8.64-6.02s.39,7.78-.18,12.57c1.06-1.85,2.34-4.44,2.77-5.2.68-1.18,2.37-.64,1.86.9-.24.74-1.31,2.94-1.31,2.94l5.49-5.2Z"/><polygon class="cls-20" points="502.81 302.02 457.6 323.13 447.25 303.38 493.86 273.35 502.81 302.02"/><path class="cls-32" d="M519.45,239.51c-.03,1.14,1.93,2.11,4.37,2.18.15,0,.28-.01.41-.03-.46-.35-.83-.93-.96-1.63-.19-1.02.17-1.98.83-2.43-.05,0-.1-.02-.16-.02-2.44-.07-4.45.8-4.49,1.93Z"/><path class="cls-25" d="M544.22,387.59l-8.83-95.64-15.33,3.89v-7.86l-12.88-11c-1.2-1.38-2.62-2.62-4.25-3.64-5.4-3.38-10.78-2.37-15.05-.27h0s-.03.02-.03.02c-.46.23-.91.46-1.34.71l-18.75,9.99,12.74,32.57,2.73-1.07-8.2,89.51,69.19-17.22Z"/><path class="cls-22" d="M523.59,211.81c-.54-3.87-4.13-6.57-8.01-6.03-.57.08-1.12.24-1.63.44-1.41-.98-3.18-1.46-5.02-1.2-3.53.5-6.07,3.51-6.09,6.97-1.47-1.18-3.41-1.78-5.43-1.5-3.88.55-6.57,4.13-6.03,8.01.02.13.05.26.07.38-8.02,1.49-12.67,9.56-10.01,16.93h-.01s.26.6.26.6c.09.21.16.43.26.64h.01s12.42,28.77,12.42,28.77l4.47-3.15c5.24-3.68,8.29-9.66,8.32-15.95-.42.2-.86.36-1.34.43-2.55.36-4.91-1.42-5.27-3.96-.36-2.55,1.42-4.91,3.96-5.27.56-.08,1.1-.04,1.62.07v-.03c.4.03.81.03,1.22-.02l1.22,5.25,2.25-.52-1.25-5.42c2.23-1.19,3.6-3.69,3.22-6.34-.03-.19-.06-.38-.11-.56l1.32-.29,8.27-7.89c-.33-1.49-.83-2.72-1.47-3.7,2-1.5,3.14-4.01,2.76-6.66Z"/><path class="cls-8" d="M523.28,240.04c.13.7.5,1.27.96,1.63,1.99-.36,2-3.83-.13-4.06-.66.45-1.02,1.41-.83,2.43Z"/><polygon class="cls-12" points="526.13 230.05 484.09 241.93 481.59 236.21 525.07 222.32 526.13 230.05"/><path class="cls-22" d="M532.84,218.26c-.54-3.87-4.13-6.57-8.01-6.03-3.88.55-6.57,4.13-6.03,8.01.55,3.88,4.13,6.57,8.01,6.03,3.88-.55,6.57-4.13,6.03-8.01"/><polygon class="cls-12" points="565.21 224.24 567.83 216.54 583.72 220.4 582 228.29 565.21 224.24"/><path class="cls-20" d="M407.28,344.33l50.1-21.28c6.18-2.74,9.06-10.39,5.52-16.16h0c-3.3-5.38-10.38-6.96-15.66-3.51l-45.96,29.86,5.99,11.08Z"/><polygon class="cls-12" points="419.91 339.23 412.09 342.88 405.07 330.56 412.31 325.85 419.91 339.23"/></g><g id="Man_middle" data-name="Man middle"><polygon class="cls-20" points="786.37 429.46 716.87 402.08 703.41 421.02 790.73 465.22 786.37 429.46"/><polygon class="cls-25" points="719.32 400.16 704.56 423.61 699.14 421.75 668.39 438.79 664.33 436.06 696.2 388.71 706.7 395.26 719.32 400.16"/><polygon class="cls-9" points="694.61 402.1 697.18 398.21 711.23 396.99 716.33 399 715.55 400.29 694.61 402.1"/><polygon class="cls-9" points="690.18 409.33 692.75 405.45 713.56 403.68 711.12 407.53 690.18 409.33"/><path class="cls-11" d="M798.54,394.52l-12.61,34.72-26.38-10.42-6.8,27.34s41.01,20.87,43.15,21.72c15.96,6.35,19.51-6.65,21.43-12.27l8.54-26.3-27.33-34.79Z"/><path class="cls-29" d="M920.62,278.32l-2.08-13.04c-.17-1.32.75-2.54,2.07-2.73h0c1.35-.2,2.61.75,2.78,2.11l1.39,8.65-3.4,5.83"/><path class="cls-20" d="M936.08,270.19l-4.57-2.03-7.49,1.96-2.97,2.02-.88,6.19-23.63,29.5-12.66,17.09s-2.65,2.07,2.9,5.04c0,.06,0,.12,0,.18,0,5.08,4.12,9.2,9.2,9.2,3.84,0,7.12-2.35,8.5-5.69l28.13-54.73,3.47-8.74h0Z"/><path class="cls-29" d="M920.62,278.32l-2.08-13.04c-.17-1.32.75-2.54,2.07-2.73h0c1.35-.2,2.61.75,2.78,2.11l1.39,8.65-3.4,5.83"/><path class="cls-20" d="M932.6,278.92l3.47-8.74-4.57-2.03-7.49,1.96-2.97,2.02-.88,6.19-23.63,29.5-12.66,17.09s-4,3.12,8.11,7.21c6.02,2.04,11.84,2.78,11.84,2.78l28.77-55.99h0Z"/><polygon class="cls-20" points="935.99 270.44 928.96 273.43 933.82 256.17 938.16 258.34 935.99 270.44"/><polyline class="cls-20" points="928.96 276.53 929.83 260.64 934.51 262.06 929.29 279.29"/><path class="cls-25" d="M916.18,275.92l21.33-28.86c.45-.61,1.31-.74,1.92-.28l.84.62c.61.45.74,1.31.28,1.92l-21.33,28.86"/><line class="cls-5" x1="932.45" y1="269.13" x2="927.56" y2="269.17"/><path class="cls-20" d="M927.85,255.38h0c.91-.76,2.27-.64,3.04.27l5.89,7.7-2.51,3.94-6.75-8.05c-.97-1.16-.82-2.88.34-3.86h0Z"/><path class="cls-20" d="M922.3,265.31h0c.91-.77,2.27-.66,3.04.25l7.76,9.41-4.32,2.21-6.79-8.02c-.98-1.15-.83-2.88.32-3.86h0Z"/><path class="cls-20" d="M937.22,251.6h0c1.17.21,1.96,1.33,1.75,2.5l-2.08,10.7-4.67-.63,1.83-10.35c.26-1.49,1.68-2.48,3.17-2.22h0Z"/><path class="cls-20" d="M930.33,270.94l-6.72-8.08c-.97-1.16-.81-2.89.35-3.86h0c.92-.76,2.27-.64,3.04.28l7.09,8.52"/><circle class="cls-20" cx="895.97" cy="330.14" r="9.2"/><path class="cls-20" d="M753.27,394.41l-8.01-4.09c-1.36-.7-1.9-2.36-1.21-3.73h0c.74-1.45,2.51-2.02,3.95-1.28l7.7,3.93c1.45.74,2.02,2.51,1.28,3.95h0c-.69,1.36-2.37,1.9-3.73,1.21h0Z"/><polyline class="cls-20" points="928.96 276.53 929.83 260.64 934.51 262.06 929.29 279.29"/><path class="cls-25" d="M916.18,275.92l21.33-28.86c.45-.61,1.31-.74,1.92-.28l.84.62c.61.45.74,1.31.28,1.92l-21.33,28.86"/><line class="cls-5" x1="932.45" y1="269.13" x2="927.56" y2="269.17"/><path class="cls-20" d="M937.22,251.6c-1.49-.26-2.91.73-3.17,2.22l-.73,4.15-.17.61-2.25-2.94c-.76-.91-2.13-1.03-3.04-.27-1.16.97-1.31,2.7-.34,3.86l4.07,4.86-.15.53-4.44-5.34c-.76-.92-2.12-1.04-3.04-.28-1.16.97-1.32,2.69-.35,3.86l6.22,7.48-.14.5-4.35-5.28c-.77-.91-2.13-1.02-3.04-.25-1.15.98-1.3,2.71-.32,3.86l6.79,8.02,4.32-2.21-2.02-2.44,4.9-2.1,2.17-12.1h-.02s.82-4.23.82-4.23c.21-1.17-.57-2.29-1.75-2.5h0Z"/><polygon class="cls-25" points="860.5 281.22 895.43 311.76 889.97 341.58 876.8 332.14 857.87 388.19 850.71 364.95 860.5 281.22"/><path class="cls-20" d="M849.45,291.74l-7.07-4.62c-4.19-1.51-6.37-6.12-4.86-10.32l7.45-18.55,22.89,8.22-8.09,20.4c-1.51,4.2-5.49,4.52-9.68,3.01"/><line class="cls-5" x1="890.43" y1="228.37" x2="892.13" y2="229.53"/><path class="cls-23" d="M857.14,224.23l33.32,11.96s-8.79,24.5-10.8,30.11c-1.2,3.34-4.88,5.08-8.22,3.88-9.61-3.45-27.27-9.79-27.27-9.79l6.87-19.15,6.1-17.02Z"/><path class="cls-23" d="M880.24,256.26l5.75-8.26s.37,4.97.6,8.09c.04.54-.19,1.07-.62,1.4s-1,.42-1.51.24c-1.88-.65-4.22-1.47-4.22-1.47h0Z"/><path class="cls-3" d="M885.88,244.4c.02.31-.09.62-.31.85-.22.22-.53.34-.84.33-2.29-.12-6.95-.36-6.95-.36l4.32-2.09c2.16-.64,3.67-.13,3.78,1.27h0Z"/><path class="cls-3" d="M886.57,224.66l-24.18-9.03c-8.09-3.02-16.89,2.28-17.99,10.86h0l1.36,28.84.54-.08c5.98.62,11.3-.83,15.98-4.06-.06-.02-.13-.04-.2-.06-2.47-.92-3.73-3.68-2.8-6.15.92-2.47,3.68-3.73,6.15-2.8,1.56.58,2.64,1.9,2.98,3.4,1.43-1.67,2.79-3.55,4.07-5.6l1.52-2.44,6.82,2.55c4.26,1.59,9-.57,10.59-4.83h0c1.59-4.26-.57-9-4.83-10.59h0Z"/><path class="cls-2" d="M881.72,260.54c-.16-.14-.81-.7-1.88-1.09-.96-.35-3.51-1.01-3.51-1.01,0,0,1.3,4.43,4.15,5.48h0l1.24-3.38Z"/><path class="cls-3" d="M845.53,243.71s-3.67,2.35-11.09-10.49c-7.74-13.39-14.79-18.36-34.7-4.11-10.93,7.82-28.05-11.66-28.05-11.66,0,0,12.94,31.24,29.41,30.66,7.22-.25,12.95-13.43,25.18-3.76,12.23,9.67,20.04,1.3,20.04,1.3l-.79-1.94h0Z"/><path class="cls-4" d="M854.23,275.22l6.27,6s2.76,15.49,2.01,25.62c-.75,10.13-11.37,54.51-11.37,54.51l-25.58-10.31,28.67-75.81h0Z"/><path class="cls-32" d="M880.86,249.92c.3-.83.94-1.41,1.6-1.54-2.02-.74-4.48-.88-4.48-.88.53,2.66,1.94,3.81,2.93,4.31-.26-.52-.3-1.2-.05-1.89h0Z"/><path class="cls-13" d="M883.38,248.78c-.29-.15-.59-.28-.92-.4-.66.12-1.3.7-1.6,1.54-.24.68-.2,1.37.05,1.89.6.3,1.06.36,1.06.36,1.74-1.49,1.41-3.38,1.41-3.38h0Z"/><path class="cls-13" d="M883.88,249.01l.19-.53s-2.85-2.02-6.48-1.88l.45,1.3s2.68-.14,5.84,1.11"/><polygon class="cls-20" points="892.5 484.78 864.02 411.89 818.61 425.36 861.34 487.03 895.56 583.98 917.16 576.23 892.5 484.78"/><path class="cls-2" d="M851.13,361.35c5.58,24.95,11.34,43.1,12.67,49.41.14.68,25.34,65.34,28.69,74.02.26.67,8.48,30.85,8.48,30.85l-27.12,6.89-12.93-36.08-43.07-61.88-11.24-16.14s-20.99-17.91-10.14-50.08l12.24-14.03,42.42,17.05Z"/><polygon class="cls-25" points="892.31 582.97 918.73 574.65 921.66 579.58 956.13 586.49 957.46 591.21 902.52 606.66 898.76 594.88 892.31 582.97"/><polygon class="cls-9" points="912.4 597.49 907.93 598.78 896.43 590.62 893.84 585.79 895.26 585.31 912.4 597.49"/><polygon class="cls-9" points="920.46 594.84 915.99 596.14 898.98 584.01 903.33 582.66 920.46 594.84"/><path class="cls-20" d="M800.55,333.44l-14.46-15.38-3.42,4.55-36.91,49.47h.01s-.57.88-.69,1.17c-1.43,3.43-1.3,14.6-1.3,14.6l4.04,1.48h0l3.45.31.59-6.43c.1-.97.21-3.26.26-3.65.19-1.33,1.24-1.24,2.57-.33.58.4.67.77.67.77l-.02,1.48.17,5.87c.04,1.44,1.24,2.57,2.68,2.52s2.57-1.24,2.52-2.68l-.24-8.02,3.26-9.12h-.02s27.29-25.69,27.29-25.69l9.54-10.92h0Z"/><path class="cls-25" d="M838.54,255.83l-5.15,10.3c-4.26-.6-8.7.95-11.65,4.43h0s-.31.38-.31.38h0l-40.05,51.01,17.99,14.13-25.41,74.99,24.6,7.79,61.16-153.45-21.16-9.6h0Z"/></g><g id="woman_protesis" data-name="woman protesis"><path class="cls-6" d="M318.53,239.04c-.99-1.2-2.2-2.66-3.33-4.03v-16.65h-36.92v35.44h-.94v18.55c0,4.65,3.77,8.42,8.41,8.42h8.54c4.65,0,8.41-3.77,8.41-8.42v-13.92h5.79c3.7,0,6.7-3,6.7-6.7v-8.53c.74-.22,1.52-.44,2.25-.65.71-.2,1.27-.75,1.48-1.46.22-.7.06-1.47-.4-2.04Z"/><path class="cls-27" d="M355.36,482.37l-26.57-65.65-48.64,7.27,44.57,60.35,14.99,102.81c9.39-.44,17.69-2.21,22.66-7.98l-7.02-96.79Z"/><path class="cls-30" d="M339.33,322.76l-21.63-24.46-16.27,15.4,25.38,24.88c1.07,1.05,2.82.89,3.69-.32l8.98-12.46c.67-.93.61-2.19-.15-3.05h0Z"/><path class="cls-30" d="M400.12,302.91l-9.3-5.06-.04.07v-.05l-14.69.73h0s-7.14,5.45-7.14,5.45l-40.77,22.36c-2.17,1.33-3.26,7.82-2.14,10.17.09.2.15.41.12.63l-.02.15c-.05.39.09.77.36,1.06.09.09.18.18.28.27,4.67,5.37,10.85,5.91,15.93,1.63l25.47-20.13c.97-.75,4.26-3.81,5.92-5.17l8.04-2.06,9.45-.3c1.32-.04,2.37-1.15,2.33-2.48,0-.21-.05-.41-.1-.6l.13.17c.79,1.06,2.3,1.28,3.36.48.95-.71,1.22-2,.69-3.03,1.14.52,2.5.09,3.11-1.03h0c.63-1.17.2-2.62-.96-3.26h0ZM391.44,307.84l-5.72.17h0s-2.06,0-2.98-.07c-1.48-.11-1.19-1.96.06-2.04.8-.05,5.4-.31,5.41-.31l2.52-.11,2.04,2.72c-.39-.24-.85-.38-1.34-.36h0Z"/><circle class="cls-18" cx="257.88" cy="587.68" r="6.09"/><path class="cls-30" d="M264.59,472.76l10.81-92.76c1.02-8.72,8.89-14.97,17.61-13.98l8.52.97c9.33,1.06,15.72,9.92,13.79,19.11l-19.33,91.8c-1.8,8.53-10.12,14.03-18.67,12.34h0c-8.15-1.61-13.69-9.22-12.73-17.47Z"/><path class="cls-18" d="M296.01,477.89c-1.8,8.53-10.12,14.03-18.67,12.34h0c-8.15-1.61-13.69-9.22-12.73-17.47l31.4,5.13Z"/><path class="cls-18" d="M258.5,583.53h0c-2.98-.59-5-3.37-4.64-6.39l10.16-84.72c.4-3.36,3.58-5.66,6.89-5.01l12.68,2.51c3.32.66,5.37,4,4.47,7.25l-22.84,82.21c-.81,2.93-3.74,4.73-6.72,4.14Z"/><path class="cls-18" d="M269.69,608.88c1.7-8.61-3.9-16.98-12.51-18.68-8.61-1.7-16.98,3.9-18.68,12.51l31.19,6.17Z"/><polygon class="cls-9" points="307.24 422.71 271.11 422.78 272.62 358.52 289.28 341.59 312.15 347.64 331.89 419.01 330.75 419.09 307.24 422.71"/><path class="cls-10" d="M308.27,425.19l-39.12-2.17-5.52-30.81c-2-19.77,0-32.05,6.52-44.88l4.41-4.15,45.64,5.28-11.94,76.73h0Z"/><path class="cls-25" d="M293.11,265.87c-.14-1.35,9.57,7.11,9.57,7.11,4.07,5.87,16,23.31,16.89,30.39l.65,45.08h-51.24l3.18-64.83c1.18-9,9.69-15.15,18.6-13.44,0,0,2.79-.29,2.36-4.32"/><path class="cls-25" d="M298.38,276.7c.01-.13.04-.26.05-.39.48-6.99-4.8-13.04-11.79-13.51-6.85-.47-12.79,4.61-13.46,11.4h-.01s-1.5,11.69-1.5,11.69l24.29,12.59,2.45-21.78h-.01Z"/><line class="cls-35" x1="312.41" y1="210.68" x2="314.5" y2="211.22"/><path class="cls-26" d="M313.75,229.23c.04.33-.06.65-.28.9-.22.25-.53.39-.86.39h-7.25l4.39-2.41c2.22-.78,3.82-.33,4,1.12"/><path class="cls-32" d="M312.69,233.2s1,1.74-.19,3.82c0,0-3.22.72-5.55-3.17,0,0,3.31-.98,5.75-.64"/><path class="cls-5" d="M310.61,235.2c0-.92.42-1.71,1.03-2.07-.02,0-.05,0-.07,0-2.22,0-4.63.71-4.63.71,1.45,2.42,3.24,3.06,4.39,3.19-.43-.41-.72-1.08-.72-1.83Z"/><path class="cls-37" d="M310.61,235.2c0,.76.28,1.42.72,1.83.7.08,1.16-.02,1.16-.02,1.19-2.07.19-3.82.19-3.82-.33-.05-.69-.06-1.04-.07-.6.36-1.03,1.15-1.03,2.07Z"/><path class="cls-37" d="M313.26,233.25v-.58s-3.51-.98-7.02.44l.89,1.12s2.58-1.08,6.13-.97"/><path class="cls-26" d="M307.89,208.4l-25.13-.32c-8.41-.11-14.73,7.65-12.92,15.87h0l2.9,22.11c-4.72,1.71-8.03,6.3-7.87,11.59.2,6.59,5.71,11.78,12.31,11.57.08,0,.16-.02.24-.02.6,4.43,4.46,7.78,9.03,7.64,4.88-.15,8.71-4.23,8.56-9.11-.12-3.96-2.83-7.23-6.46-8.24.16-.83.23-1.69.21-2.58-.09-2.91-1.21-5.54-3-7.56,2.25-1.86,4.35-4.03,6.19-6.43-2.43-.36-4.29-2.45-4.26-4.97.04-2.75,2.3-4.96,5.05-4.92.89.01,1.72.27,2.44.69v5.19h2.73v-6.34c4.66-.34,8.48-3.7,9.49-8.15h.29c4.42.06,8.06-3.48,8.11-7.91.06-4.43-3.48-8.06-7.91-8.12Z"/><path class="cls-36" d="M315.32,249.22c.44-.23.75-.69.75-1.22,0-.76-.62-1.43-1.39-1.39-1.11.07-1.69,1.32-3.6,1.65.59.29,1.31.38,2.07.46.76.08,1.54.17,2.17.5"/><path class="cls-36" d="M313.09,249.32c-1.01-.11-2.14-.23-2.95-.98h-.01c1.49,2.25,3.08,3.53,4.55,3.53.76,0,1.38-.62,1.38-1.39,0-.03-.01-.06-.01-.1-.22-.1-.46-.24-.73-.46-.55-.43-1.36-.52-2.23-.61"/><path class="cls-28" d="M310.38,247.72l-.46.39c.07.08.15.15.23.23.35,0,.66-.03.94-.08-.26-.13-.51-.3-.71-.54"/><path class="cls-28" d="M315.29,249.24s.02-.02.03-.02c-.63-.34-1.41-.42-2.17-.5-.75-.08-1.47-.16-2.07-.45-.28.05-.59.08-.94.08.81.75,1.94.87,2.95.98.87.09,1.69.18,2.23.61.27.21.51.36.73.46-.04-.5-.33-.94-.76-1.15"/><path class="cls-30" d="M271.68,285.87l-1.94,44.79c-.21,2.75.42,5.49,1.81,7.87l24.25,38.61c.3,1.48.88,2.89,1.72,4.16l.21.32,10.23,14.61c.66.96,1.98,1.21,2.95.55.96-.66,1.21-1.98.55-2.95l-6.26-8.83.25-.17,7.85,11.15c.66.96,1.98,1.21,2.95.55.96-.66,1.21-1.98.55-2.95l-7.33-10.38.25-.17,8.25,11.72c.66.96,1.98,1.21,2.95.55.96-.66,1.21-1.98.55-2.95l-8.77-12.49.25-.17,7.51,10.66c.66.96,1.98,1.21,2.95.55.96-.66,1.21-1.98.55-2.95l-9.51-13.52,5.72,2.83c1.06.5,2.32.05,2.83-1s.05-2.32-1-2.83l-9.63-4.7c-1.77-.84-3.64-1.48-5.55-1.91l-15.71-28.55c-1.55-2.88-2.01-6.23-1.27-9.42l5.45-30.03-23.59-12.92.02-.02Z"/><path class="cls-24" d="M338.82,581.51s3.14,2.74,11.52,1.75c7.84-.93,12.01-4.71,12.01-4.71l16.02.74c8.76.91,13.84,2.84,14.59,10.89h0l-50.93,6.04-1.43.17-1.77-14.88h0Z"/><polygon class="cls-25" points="341.26 602.06 393.63 595.85 392.95 590.18 340.59 596.39 341.26 602.06 341.26 602.06"/></g><g id="woman_left" data-name="woman left"><path class="cls-38" d="M67.01,221.84c-3.02-1.79-8.44-2.87-17.82-1.71-23.68,2.93-32.98-21.16-32.98-21.16,0,0-4.43,43.59,27.03,42.94,13.86-.29,16.1-12.74,24.75-12.63"/><polygon class="cls-11" points="70.8 221.53 67.01 221.84 67.99 229.28 72.8 230.34 70.8 221.53"/><path class="cls-29" d="M112.84,428.48l11.08,65.71-51.73,50.79,12.19,18.03s56.21-43.84,61.93-47.99c5.8-4.2,6.22-12.12,4.4-20.89l-10.85-51.13-27.01-14.51Z"/><polygon class="cls-20" points="171.51 475.28 148.67 399.18 101.61 409.08 139.79 475.01 166.47 575.93 188.97 569.87 171.51 475.28"/><path class="cls-11" d="M45.5,564.95l32.68,40.77s7.63-3.4,4.19-10.67c-4.17-8.79-5.72-21.56,7.26-33.86l-15.74-19.29-28.38,23.04Z"/><path class="cls-19" d="M124.86,334.57c20.04,27.19,23.81,64.6,23.81,64.6l-47.06,9.9-7.17-16.5s-23.36-21.48-9.74-53.14l40.16-4.85Z"/><path class="cls-20" d="M102.75,275.04l-8.06.46c-4.39.25-6.34-2.53-6.59-6.92l-1.03-22.14,22.17,2.66,1.01,17.53c.24,4.4-3.11,8.16-7.49,8.41"/><path class="cls-20" d="M118.61,221.61c-1.27-6.63-7.76-11.01-14.41-9.72l-8.05.98c-6.65,1.28-12.67,7.96-11.39,14.59l2.16,19.01s2.07,2.86,5.78,2.35l6.25,6.24c3.91,3.01,10.21,3.96,15.08,3.2,1.91-.3,3.62-.78,4.62-1.41,2.65-1.64,3.94-4.24,3.56-7.95-.2-2.02-.97-9.77-.97-9.77l1.15-.5c2.27-1.19-.38-3.47-.38-3.47-.95-1.13-1.7-1.96-1.7-1.96l-1.69-11.58Z"/><path class="cls-38" d="M111.36,224.22c-5.39.67-10.3-3.14-10.97-8.51-.67-5.37,3.16-10.27,8.55-10.94,5.39-.67,10.3,3.14,10.97,8.51.67,5.37-3.16,10.27-8.55,10.94"/><path class="cls-38" d="M103.35,227.6c-5.67.71-10.84-3.3-11.55-8.95-.7-5.65,3.33-10.8,9-11.51,5.67-.71,10.84,3.3,11.55,8.95.7,5.65-3.33,10.8-9,11.51"/><path class="cls-38" d="M112.62,226.6l-.19.06c-1.96.57-3.53,2.08-4.23,4.08l10.18-2.95c-1.67-1.31-3.79-1.75-5.76-1.18"/><path class="cls-2" d="M121.62,243c-.61.13-1.33.42-1.25,1.26-.13-1.4-2.25-1.01-2.25-1.01l-4.83.45c.02-.18,3.5,4.24,7.65,3.88h.01c.64-.06,1.09-.65,1.03-1.29l-.1-1.1-.26-2.2Z"/><path class="cls-38" d="M79.46,211.82s-.03.06-.07.16c-5.1,1.21-8.72,5.77-8.8,10.99h0s-1.57,16,16.94,33.49c6.11-3.65,10.67-10.44,12.06-17.43l3.31-15.12,4.9-19-28.34,6.91Z"/><path class="cls-20" d="M103.92,235.95c.38,3.02-1.76,5.77-4.78,6.14-3.01.38-5.76-1.77-6.13-4.78-.38-3.02,1.76-5.77,4.78-6.14,3.01-.37,5.76,1.77,6.13,4.78"/><polygon class="cls-19" points="225.9 609.44 169.24 609.44 169.24 603.63 225.9 603.56 225.9 609.44"/><polygon class="cls-19" points="73.68 609.44 40.91 568.69 45.5 564.95 78.28 605.77 73.68 609.44"/><path class="cls-11" d="M169.24,603.63l56.63-.1s.93-9.15-7.05-9.99c-11.22-1.18-22.93-5.88-28.2-26.53l-27.85.04,6.4,23.89.07,12.7Z"/><path class="cls-34" d="M115.2,231.74c-.5.38-.79,1.13-.69,1.95.08.63.37,1.15.76,1.48.89.07,1.49-.13,1.49-.13.82-1.96-.42-3.39-.42-3.39-.37,0-.75.03-1.14.09"/><path class="cls-32" d="M114.51,233.69c-.1-.83.19-1.57.69-1.95-1.91.27-3.85,1.12-3.85,1.12,1.36,1.74,2.85,2.23,3.92,2.31-.39-.33-.69-.85-.76-1.48"/><path class="cls-34" d="M116.85,231.64l-.07-.51s-3.2-.48-6.14,1.16l.91.89s2.15-1.24,5.29-1.53"/><path class="cls-11" d="M99.39,292.2h-.02s.21.35.21.35c.02.03.04.06.05.09.03.06.07.1.1.15l25.97,40.83,22.45-13.88-26.34-41.4h-.02c-3.94-5.85-9.01-11.77-19.16-11.19-8.26.47-6.72,18.91-3.25,25.05h0Z"/><polygon class="cls-29" points="81.59 331.36 82.39 339.1 126.02 336.39 126.14 332.34 81.59 331.36"/><path class="cls-11" d="M78.52,278.48l3.97,57.58,44.89-2.89s.4-.71.51-1.32c.57-3.18-1.31-14.11-2.12-27.95-.96-16.44-15.49-29.81-15.49-29.81l-31.75,4.4h0Z"/><polygon class="cls-29" points="92.51 318.31 97.53 343.58 78.25 343.73 79.87 328.85 92.51 318.31"/><path class="cls-11" d="M78.29,275.73l-.95,56.61,26.39.44.95-57.13h-.02c-.15-7.05-5.84-12.78-12.96-12.9-7.12-.12-13,5.42-13.39,12.46h-.02s0,.51,0,.51h0Z"/><path class="cls-29" d="M115.7,294.88l-.66,1.22,18.7,42.6h.01c.82,1.91,2.23,3.6,4.16,4.73,4.82,2.83,11.02,1.22,13.86-3.6,1.94-3.31,1.8-7.25-.04-10.32h0v-.02c-.04-.06-.09-.13-.14-.2l-15.86-24.11-22.49-34.47-.17-.32c-.08-.15-.18-.28-.29-.39h0c-.67-.72-1.76-.92-2.66-.42-1.32.75-1.79,2.43-1.04,3.76l.45.8c-.2.07-.4.16-.59.3-1.23.9-1.49,2.62-.6,3.85l.09.12c-1.23.9-1.49,2.62-.6,3.85l1.22,1.67c-.24.8-.12,1.7.4,2.42l6.23,8.54h-.01Z"/><path class="cls-20" d="M78.26,343.74c-.53,5.57,3.55,10.51,9.12,11.04,3.81.36,7.32-1.44,9.34-4.4h0s.01-.01.01-.01c.04-.07.09-.14.13-.21l25.9-41.99-1.48-23.41h.01s-.72-10.95-.72-10.95c-.1-1.2-1.14-2.08-2.34-1.98-1.51.12-2.64,1.46-2.51,2.97l.07.92c-.22-.02-.43-.02-.65.02-1.49.3-2.45,1.75-2.16,3.24l.03.14c-1.49.3-2.45,1.75-2.16,3.24l.41,2.03c-.55.62-.83,1.48-.65,2.36l.17.86c-1.14.52-1.72,1.81-1.32,3.01l1.87,5.05c-.57,2.64-.67,6.52.17,7.31l-30.7,34.96h0c-1.39,1.55-2.32,3.54-2.53,5.78h0Z"/></g></svg>