<?xml version="1.0" encoding="UTF-8"?><svg id="Ebene_1" xmlns="http://www.w3.org/2000/svg" xmlns:xlink="http://www.w3.org/1999/xlink" version="1.1" viewBox="0 0 1200 840"><!--Generator: Adobe Illustrator 29.0.1, SVG Export Plug-In . SVG Version: 2.1.0 Build 192)--><defs><style>.st0, .st1 {
        fill: none;
      }

      .st2 {
        fill: #d8cbc5;
      }

      .st3 {
        fill: #191414;
      }

      .st4 {
        fill: #010101;
      }

      .st5 {
        fill: #ffa28f;
      }

      .st6 {
        fill: #5d2b1a;
      }

      .st7 {
        fill: #232144;
      }

      .st8 {
        fill: #ffc6ad;
      }

      .st9 {
        fill: #891229;
      }

      .st10 {
        fill: #faa332;
      }

      .st11 {
        fill: #ed1e79;
      }

      .st12 {
        fill: #bf7461;
      }

      .st13 {
        fill: #751d16;
      }

      .st14 {
        fill: #c6c6c6;
      }

      .st15 {
        fill: #e6e3da;
      }

      .st16 {
        fill: #ff0079;
      }

      .st17 {
        fill: #f9e3c9;
      }

      .st18 {
        fill: #fff;
      }

      .st19 {
        fill: #b0c2e4;
      }

      .st20 {
        fill: #f7e5cd;
      }

      .st21 {
        fill: #f7931e;
      }

      .st22 {
        fill: #a95208;
      }

      .st23 {
        fill: #f5b091;
      }

      .st24 {
        fill: #463ec5;
      }

      .st25 {
        fill: #d0def2;
      }

      .st26 {
        fill: #fbb03b;
      }

      .st27 {
        fill: #242046;
      }

      .st28 {
        fill: #f0a86b;
      }

      .st1 {
        stroke: #ed1e79;
        stroke-miterlimit: 10;
        stroke-width: 6px;
      }

      .st29 {
        fill: #ff5200;
      }

      .st30 {
        fill: #ffac00;
      }

      .st31 {
        clip-path: url(#clippath);
      }</style><clipPath id="clippath"><path class="st0" d="M195.73,347.31s3.39,4.34,9.81,3.41c2.81-.41,1.52-8.01-1.29-7.57s-8.52,4.16-8.52,4.16Z"/></clipPath></defs><path class="st28" d="M154.53,311.69l33.29-4.67c8.8-1.24,16.97,4.91,18.2,13.72l7.21,51.35c1.24,8.8-4.91,16.97-13.72,18.2l-15.58,2.19c-18.59,2.61-35.79-10.37-38.4-28.94l-4.72-33.63c-1.24-8.8,4.91-16.97,13.72-18.2h0v-.02Z"/><g id="BANNERS"><g><polygon class="st16" points="763.65 123.02 837.52 69.29 754.06 32.16 763.65 123.02"/><polygon class="st26" points="884.89 165.98 949.41 101.3 861.15 77.76 884.89 165.98"/><polygon class="st16" points="1010.46 190.21 1065.28 117.14 974.6 106.19 1010.46 190.21"/><polygon class="st26" points="1136.39 197.48 1182.06 118.35 1090.72 118.35 1136.39 197.48"/><polygon class="st16" points="71.45 167.61 134.17 101.19 45.3 80.08 71.45 167.61"/><polygon class="st26" points="188.38 189.49 244.03 117.04 153.47 105.06 188.38 189.49"/><polygon class="st16" points="319.86 198.43 365.53 119.3 274.19 119.3 319.86 198.43"/><polygon class="st26" points="457.85 189.22 492.19 104.56 401.72 117.15 457.85 189.22"/><polygon class="st16" points="586.6 160.91 607.97 72.09 520.38 97.99 586.6 160.91"/><polygon class="st26" points="713.18 112.24 720.42 21.17 637.95 60.44 713.18 112.24"/><path class="st7" d="M727.87,15.07c-87.95,50.06-184.64,82.45-287.38,96.26-133.31,17.93-275.84,4.15-423.61-40.94l-.58,1.91c106.12,32.38,209.53,48.64,308.8,48.64,39.23,0,77.82-2.54,115.67-7.63,102.69-13.81,199.35-46.13,287.32-96.06,55.48,33.25,117.58,58.82,184.6,75.98,68.4,17.51,142.33,26.33,220.37,26.33,16.62,0,33.43-.4,50.42-1.2l-.09-2c-96.52,4.56-187.42-3.88-270.2-25.07-67.26-17.22-129.51-42.87-185.09-76.34l-.21.12h-.02Z"/></g></g><g id="CHAIRS"><rect class="st19" x="1079.51" y="473.04" width="12.79" height="349.91"/><rect class="st19" x="540.64" y="636.69" width="12.79" height="186.27"/><rect class="st19" x="418.91" y="627.61" width="134.57" height="15.96"/><rect class="st19" x="418.91" y="636.69" width="12.79" height="186.27"/><rect class="st19" x="791.05" y="636.69" width="12.79" height="186.27"/><rect class="st19" x="669.32" y="627.61" width="134.57" height="15.96"/><rect class="st19" x="669.32" y="636.69" width="12.79" height="186.27"/><rect class="st19" x="937.55" y="632.13" width="12.79" height="190.82"/><rect class="st19" x="937.57" y="627.19" width="154.74" height="15.96"/><rect class="st19" x="259.83" y="632.17" width="12.79" height="190.78"/><rect class="st19" x="117.86" y="473.04" width="12.79" height="349.91"/><rect class="st19" x="117.88" y="627.19" width="154.74" height="15.96"/></g><g id="BLONDE_WOMAN"><path class="st16" d="M936.67,738.04s-1.53-12.78-10.98-10.55c-12.42,2.94-25.92,4.34-32.78,1.06-16.74-8.02-25.61-24.88-25.61-24.88l-14.75-30.83-29.9,31.41,24.01,41.69,15.75,32.22,9.97-5.39s-5.46-9.89-7.25-13.21c-2.13-3.93,4.18-6.58,5.97-3.27,1.8,3.32,7.16,13.3,7.16,13.3l58.4-31.55h.01Z"/><polygon class="st16" points="718.71 752.86 763.18 759.08 749.7 807.07 715.39 803.95 718.71 752.86"/><g><circle class="st10" cx="775.22" cy="382.17" r="18.86"/><circle class="st10" cx="708.29" cy="382.17" r="18.86"/><circle class="st8" cx="769.63" cy="362.84" r="8.3"/><circle class="st8" cx="714.53" cy="362.84" r="8.3"/><path class="st23" d="M762.71,408.79l-.55-26.41-40.72.91.55,26.35c.23,11.24,9.54,20.17,20.78,19.93h0c11.24-.23,20.17-9.54,19.94-20.78h0Z"/><rect class="st8" x="715.09" y="319.21" width="53.99" height="81.51" rx="22.56" ry="22.56" transform="translate(-7.32 15.49) rotate(-1.19)"/><path d="M741.88,376.49c.31,0,.63-.05.96-.12.93-.21,1.81-.71,2.61-1.48.43-.41.85-.59,1.31-.57.9.06,1.63.95,1.64.96l.85-.67s-1.02-1.28-2.41-1.37c-.77-.05-1.48.24-2.14.87-.66.63-1.36,1.04-2.09,1.2-.75.17-1.42.11-1.99-.17-.24-.12-.48-.3-.71-.54-.29-.31-1.11-1.03-2.26-1.05-.93-.02-1.84.42-2.73,1.29l.76.77c.67-.66,1.32-.99,1.95-.98.75.01,1.3.5,1.5.72.32.33.66.59,1.02.76.53.26,1.12.39,1.74.37h-.01Z"/><path class="st10" d="M768.14,341.66v20.93h4.79v-22.67c-.27-13-11.03-23.33-24.04-23.06l-14.61.3c-13.01.27-23.33,11.03-23.06,24.04v21.39h4.79v-20.93c0-6.91,5.6-12.51,12.51-12.51h27.11c6.91,0,12.51,5.6,12.51,12.51h0Z"/><path class="st16" d="M739.79,383.56c.14-1.06,1.19-1.41,2.11-1.51.83-.09,1.66.15,2.34.63l4.79,3.45s-10.3,10.63-18.51-2.49l5.39-2.04c.94-.36,2.01-.3,2.88.21.61.36,1.11.91,1,1.75h0Z"/><path d="M745.86,385.46s-6.01-1.04-12.33-.76c0,0,5.75,5.7,12.33.76Z"/><rect class="st8" x="755.59" y="324.36" width="2.2" height="12.91"/><path class="st10" d="M755.59,324.36v4.8c0,7.8-6.33,14.13-14.13,14.13h-25.46v-5.34c0-7.51,6.09-13.6,13.6-13.6h25.99Z"/><path class="st10" d="M757.75,324.36v8.19c0,5.94,4.81,10.75,10.75,10.75h0v-8.19c0-5.94-4.81-10.75-10.75-10.75h0Z"/><rect class="st10" x="719.08" y="345.6" width="17.95" height="3.45"/><rect class="st10" x="747.13" y="350.12" width="17.95" height="3.45"/><g><path class="st16" d="M752.84,357.6l-12.12,1.61c-.41.05-.58.56-.28.85l8.75,8.53c.12.12.17.28.14.45l-2.22,12.02c-.08.41.35.72.72.53l10.82-5.69c.15-.08.32-.08.47,0l10.75,5.82c.36.2.8-.11.73-.52l-2.07-12.05c-.03-.16.03-.33.15-.44l8.86-8.42c.3-.29.14-.79-.27-.85l-12.09-1.76c-.16-.02-.31-.13-.38-.28l-5.27-11.03c-.18-.37-.71-.38-.89,0l-5.41,10.96c-.07.15-.22.25-.38.27h0Z"/><path class="st16" d="M718.76,357.6l-12.12,1.61c-.41.05-.58.56-.28.85l8.75,8.53c.12.12.17.28.14.45l-2.22,12.02c-.08.41.35.72.72.53l10.82-5.69c.15-.08.32-.08.47,0l10.75,5.82c.36.2.8-.11.73-.52l-2.07-12.05c-.03-.16.03-.33.15-.44l8.86-8.42c.3-.29.14-.79-.27-.85l-12.09-1.76c-.16-.02-.31-.13-.38-.28l-5.27-11.03c-.18-.37-.71-.38-.89,0l-5.41,10.96c-.07.15-.22.25-.38.27h0Z"/><path class="st7" d="M754.1,359.37l-9.22,1.22c-.41.05-.58.56-.28.85l6.66,6.49c.12.12.17.28.14.45l-1.69,9.15c-.08.41.35.72.72.53l8.23-4.33c.15-.08.32-.08.47,0l8.18,4.43c.36.2.8-.11.73-.52l-1.57-9.17c-.03-.16.03-.33.15-.44l6.74-6.41c.3-.29.14-.79-.27-.85l-9.2-1.34c-.16-.02-.31-.13-.38-.28l-4.01-8.39c-.18-.37-.71-.38-.89,0l-4.12,8.34c-.07.15-.22.25-.38.27h0Z"/><path class="st7" d="M720.02,359.37l-9.22,1.22c-.41.05-.58.56-.28.85l6.66,6.49c.12.12.17.28.14.45l-1.69,9.15c-.08.41.35.72.72.53l8.23-4.33c.15-.08.32-.08.47,0l8.18,4.43c.36.2.8-.11.73-.52l-1.57-9.17c-.03-.16.03-.33.15-.44l6.74-6.41c.3-.29.14-.79-.27-.85l-9.2-1.34c-.16-.02-.31-.13-.38-.28l-4.01-8.39c-.18-.37-.71-.38-.89,0l-4.12,8.34c-.07.15-.22.25-.38.27h0Z"/></g></g><g><ellipse class="st24" cx="803.59" cy="436.55" rx="25.89" ry="25.88"/><ellipse class="st24" cx="679.93" cy="439.12" rx="25.89" ry="25.88"/><polygon class="st24" points="678.02 498.97 812.72 496.18 803.05 410.68 679.39 413.24 678.02 498.97"/></g><polygon class="st24" points="678.24 543.75 812.73 540.96 811.73 492.53 677.73 477.74 678.24 543.75"/><path class="st24" d="M774.46,425.87l52.39-.37,32.96,66.53c7.27,14.65-3.18,31.89-19.53,32.23h0c-8.65.18-16.62-4.65-20.46-12.4l-45.36-85.99h0Z"/><path class="st24" d="M705.65,427.29l-49.32,1.02-34.7,75.15c-6.65,14.94,4.5,31.73,20.85,31.39h0c8.65-.18,16.41-5.34,19.93-13.23l43.24-94.33h0Z"/><polygon class="st0" points="732.98 634.29 733.03 634.04 733.03 634.04 732.98 634.29"/><polygon class="st19" points="733.03 634.04 733.03 634.04 736.61 615.06 733.04 634.04 733.03 634.04"/><polygon class="st7" points="731.51 642.7 733.03 634.04 733.04 634.04 736.61 615.06 765.41 597.85 789 671.18 765.93 774.25 708.45 774.04 731.51 642.7"/><polygon class="st26" points="732.98 634.29 733.03 634.04 733.03 634.04 732.98 634.29"/><path class="st24" d="M677.21,543.78l140.05-2.91,66.59,142.62-77.87,40.45-16.98-52.77-9.48-29.47-10.09-31.36-4.02-12.49-21.79,13.02-7,4.18-3.59,18.98-29.25.86h0c-16.97.35-32.15-8.65-40.34-22.28-3.9-6.49-6.22-14.02-6.39-22.1,0,0,1.81-30.63,20.16-46.74h0Z"/><rect class="st16" x="708.53" y="813.16" width="48.94" height="9.13"/><g><rect class="st25" x="742.13" y="459.83" width="24.39" height="1.99" transform="translate(-9.33 15.63) rotate(-1.18)"/><rect class="st25" x="752.46" y="420.92" width="2.87" height="39.27" transform="translate(-8.91 15.62) rotate(-1.18)"/><path class="st25" d="M765.45,386.05c.44,21.19-11.86,38.62-11.86,38.62,0,0-13-16.91-13.44-38.1l25.3-.52Z"/><path class="st30" d="M764.33,398.48c-2.97,15.17-10.74,26.19-10.74,26.19,0,0-6.4-8.32-10.37-20.6l21.11-5.59Z"/><circle class="st30" cx="748.96" cy="393.86" r=".98"/><ellipse class="st17" cx="753.98" cy="413.62" rx="1.18" ry="1.37" transform="translate(-80.71 206.62) rotate(-14.82)"/><circle class="st17" cx="758.03" cy="403.9" r=".74"/><circle class="st17" cx="748.02" cy="407.32" r=".74"/><polygon class="st25" points="752.52 424.9 754.68 424.85 756.17 420.47 750.86 420.58 752.52 424.9"/></g><path class="st16" d="M708.53,813.15c0-12.06,10.96-21.83,24.47-21.83s24.47,9.77,24.47,21.83"/><path class="st8" d="M737.91,407.94l12.86-7.2c.21-.12.44-.21.66-.29,1.13-.88,1.83-.85,2.5-.93l14.21-1.83c1.19-.15,1.86-.17,3.02.37l23.9,11.56,13.01,19.68,43.11,62.83c5.52,9.39,2.39,21.48-7.01,27-9.39,5.52-21.48,2.38-27-7.01l-15.54-41.51-20.98-43.92-19.31-.49s-.01-.01-.04-.03l-4.58,2.56c-2.01,1.13-4.56.41-5.68-1.6-.4-.72-.57-1.51-.52-2.28-1.8.48-3.77-.29-4.72-1.99-.26-.47-.42-.96-.49-1.46-1.61.17-3.24-.61-4.08-2.11h0c-.66-1.18-.68-2.54-.19-3.69-1.81.5-3.79-.27-4.74-1.98-1.13-2.01-.41-4.55,1.6-5.68h0Z"/><path class="st8" d="M724.98,525.65l-80.22,11.63c-11.09,1.12-20.79-7.44-21.06-18.57-.26-11.04,8.87-20,19.92-19.53l87.13,3.7-5.77,22.78h0Z"/><polygon class="st8" points="691.79 526.53 716.51 522.53 717.49 501.09 655.98 500.2 691.79 526.53"/><polygon class="st8" points="711.86 521.81 733.26 528.45 735.54 500.05 711.52 501.28 711.86 521.81"/><path class="st8" d="M751.1,526.01l-24.53-9.15-2.94,8.27,24.4,9.1c2.3.86,4.85-.33,5.67-2.64h0c.8-2.26-.36-4.75-2.6-5.58h0Z"/><rect class="st8" x="726.84" y="499.95" width="8.78" height="27.29" transform="translate(-90.96 863.56) rotate(-58.14)"/></g><g id="MAN_RIGHT"><polygon class="st12" points="1106.2 507.34 1083.25 446.75 1047.64 470.15 1073.45 519.7 1106.2 507.34"/><polygon class="st12" points="911.24 704.32 871.79 687.63 847.83 747.34 878.68 761.07 911.24 704.32"/><rect class="st27" x="835.95" y="710.65" width="11.73" height="79.57" transform="translate(-185.98 1214.6) rotate(-66.02)"/><path class="st15" d="M880.53,761.31l6.11-13.72-2.74-.32c-11.59-1.34-22.15-7.56-28.87-16.99l-.8-1.12-37.17-5.25c-3.98-.55-7.77,1.49-9.34,5.01h0l72.82,32.4h-.01Z"/><polygon class="st5" points="920.8 691.18 885.52 658.26 870.04 690.96 907.91 713.58 920.8 691.18"/><polygon class="st12" points="994.11 765.1 1002.4 804.96 1043.67 800.62 1036.62 758.48 994.11 765.1"/><rect class="st27" x="998.17" y="813.82" width="51.72" height="9.13"/><path class="st15" d="M1049.89,813.82c0-12.06-11.58-21.83-25.86-21.83s-25.86,9.78-25.86,21.83"/><path class="st12" d="M834.13,340.88c.13.86.5,1.61,1.04,2.21-.02.29,0,.58.04.88.3,2.01,1.96,3.48,3.9,3.63.07.19.14.38.24.56l12.5,22.25,3.97,9.09,3.81,72.35c.44,9.25,8.25,16.2,17.2,15.91h.07c.72-.03,1.44-.1,2.16-.22l52.37-5.34-23.41-36.32-19.06,3.27-10.41-52.13-3.98-24.51-18.27-19.22h-.04l-18.55,2.74c-2.33.35-3.95,2.52-3.6,4.85h.02,0ZM848.15,346.37l1.37-.2,5.04,4.68c1.08,1.05,1.99,1.93,2.45,2.39,1.56,1.56-.02,3.96-2.2,2.51-.55-.37-1.63-1.25-2.53-2.01l-4.14-7.37h.01Z"/><polygon class="st26" points="934.7 563.72 934.2 450.53 1055.06 448.43 1057.03 563.75 936.17 563.7 934.7 563.72"/><path class="st26" d="M899.09,424.03l31.86,38.33,1.97,1.8,2.6,62.16,120.86-2.1,1-58.37,26.37-17.33,3.49-2.29s-4.12-10.4-8.86-20.28c-3.72-7.74-11.65-14.64-20.03-16.5h0s-50.5-13.69-64.64-13.45c-13.97.24-53.83,12.59-61.64,15.06l-32.97,12.98h0Z"/><circle class="st16" cx="1005.93" cy="508.92" r="7.43"/><circle class="st6" cx="1042.51" cy="507.65" r="7.43"/><circle class="st16" cx="1032.13" cy="503.83" r="7.26"/><circle class="st6" cx="1018.44" cy="506.25" r="7.26" transform="translate(32.19 1072.65) rotate(-56.3)"/><circle class="st20" cx="1029.31" cy="510.61" r="7.26"/><path class="st16" d="M1022.41,425.7c7.97-.85,11.73-3.26,12.53-5.06.29-.64.22-1.24-.2-1.82-.44-.6-1.26-1.19-2.51-1.67-3.05,2.5-7.82,4.28-12.43,3.36-1.36-.27-2.24-1.42-2.17-2.87.07-1.43,1.12-3.07,3.29-3.3,4.31-.46,8.04-.26,10.83.52.26-.26.49-.52.7-.78,1.04-1.31,1.4-2.59.99-3.51-.49-1.09-1.99-1.85-4.35-2.21-.2.49-.45.91-.71,1.27-2.13,2.89-6.54,3.61-8.91,3.02-1.62-.4-1.98-1.3-2.06-1.81-.16-1.09.12-2.07.82-2.83,1.4-1.53,4.36-2.15,9.12-1.87.06,0,.11,0,.16.01.06-1.68-.73-3.49-1.64-4.98-2.19-3.61-4.35-4.09-7.94-4.88-.62-.14-1.28-.28-1.97-.46l.49-1.97c.67.17,1.31.31,1.92.44,3.68.82,6.59,1.46,9.23,5.81,1.56,2.57,2.02,4.63,1.93,6.25,3.73.61,5.2,2.12,5.76,3.37.74,1.66.3,3.65-1.25,5.6-.07.09-.15.19-.23.28,1.11.54,1.98,1.21,2.57,2.01.85,1.17,1,2.53.42,3.84-1.38,3.12-6.68,5.46-14.17,6.25l-.21-2.02h-.01ZM1021.12,416.36c-.99.11-1.45.77-1.48,1.38-.01.25.05.69.54.79,3.32.66,6.89-.37,9.52-2.05-2.16-.39-5-.5-8.58-.12h0ZM1019.72,409.38c-.29.31-.38.67-.35,1.05.46.53,3.96.73,6.34-1,.53-.39.93-.82,1.21-1.28-5.06-.26-6.67.66-7.2,1.23h0Z"/><path class="st16" d="M961.81,438.49c-.76-1.44-.63-3.03.35-4.45.38-.55.86-1.05,1.44-1.5-.69-.55-1.24-1.16-1.62-1.84-.81-1.44-.77-3.01.12-4.42.36-.57.84-1.08,1.41-1.55-1.48-1.09-2.19-2.38-2.19-3.65,0-1.67,1.12-3.2,3.18-4.38-.26-.21-.49-.43-.71-.65-1.59-1.61-2.19-3.38-1.67-4.98.59-1.8,2.44-3.11,5.58-3.91-.25-1.62-.04-3.69,1-6.3,1.51-3.79,6.38-5.98,10.45-7.46l.69,1.91c-3.39,1.23-8.03,3.22-9.26,6.3-.78,1.97-1.08,3.7-.88,5.14h.02c4.52-.75,7.48-.47,9.06.87.79.67,1.22,1.61,1.22,2.72s-.7,1.95-1.92,2.46c-2.23.94-6.09.53-8.41-1.76-.51-.5-1-1.14-1.38-1.94-2.37.6-3.88,1.51-4.24,2.6-.37,1.13.58,2.32,1.18,2.93.39.39.84.77,1.35,1.12,2.69-.99,6.23-1.51,10.3-1.51,2.17,0,3.51,1.33,3.71,2.64.18,1.21-.55,2.29-1.83,2.69-4.23,1.32-9,.35-12.37-1.55-2.08.94-3.06,2.1-3.06,3.07,0,.87.74,1.75,2.06,2.5,2.76-1.29,6.74-1.83,11.41-1.49,1.04-.05,2,.47,2.53,1.34.54.88.57,1.96.08,2.83-.3.54-1.07,1.45-2.83,1.45-4.95,0-8.62-.73-11.12-1.85-.79.47-1.34.99-1.67,1.51-.49.77-.51,1.56-.07,2.34.31.56.89,1.14,1.76,1.68,2.85-1.33,6.87-1.83,11.3-1.31,1.69.2,2.51,1.63,2.45,2.94-.07,1.46-1.12,2.51-2.63,2.55-4.62.08-8.45-.58-11.14-1.87-.73.45-1.29.96-1.66,1.49-.55.8-.63,1.59-.22,2.36.97,1.85,4.88,3.83,12.97,3.85v2.03c-7.76-.02-13.13-1.82-14.77-4.94h.03ZM968.17,432.56c2.07.65,4.86,1.06,8.48.99.46-.01.58-.34.59-.62,0-.08.02-.76-.66-.84-1.13-.13-2.2-.2-3.21-.2-2.02,0-3.76.25-5.2.66h0ZM976.79,424.12c-3.61-.26-6.43.03-8.52.6,1.86.52,4.55.96,8.34.96.31,0,.86-.05,1.06-.41.12-.22.1-.53-.05-.78-.11-.17-.31-.37-.79-.37h-.04ZM969.13,417.09c2.7,1.08,6.04,1.47,9.05.54.47-.15.44-.38.42-.45-.06-.35-.57-.92-1.71-.92-3.17,0-5.75.32-7.77.83h.01ZM970.38,408.69c.2.33.44.63.72.9,1.81,1.78,4.82,1.92,6.21,1.33.33-.14.68-.36.68-.59,0-.51-.16-.88-.5-1.17-.41-.35-1.34-.79-3.46-.79-.95,0-2.15.09-3.64.32h0Z"/><path class="st2" d="M999.14,508.19h50.45c1.73,0,2.93,1.71,2.34,3.34l-5.06,13.93c-2.36,6.5-8.53,10.82-15.45,10.82h-14.12c-6.91,0-13.09-4.33-15.45-10.82l-5.06-13.93c-.59-1.62.61-3.34,2.34-3.34h.01Z"/><path class="st15" d="M1022.4,634.08l-3.59-18.98-7-4.19-37.3-19.64-77.68,147.55-42.68-25.24,76.79-157.57c4.4-9.19,13.79-14.94,23.98-14.67l75.35,2.04c12.22.33,23.34,7.48,28.36,18.62,6.41,14.22,7.26,28.55,7.26,28.55-.14,6.77-1.79,13.15-4.62,18.86-1.06,2.15-2.42,4.15-4.01,5.95-5.09,5.76-18.39,18.73-34.85,18.73h-.01Z"/><path class="st12" d="M1003.47,524.03l-.36-.84c-.62-2.79.99-5.6,3.71-6.47l10.58-3.05c3.65-.65,15.05,5.41,15.05,5.41l-28.99,4.96h0Z"/><path class="st12" d="M1107.18,510.04h0c-2.16-8.35-10.98-13.08-19.13-10.25l-54.97,19.07-4.95-1.9-26.44,4.08h-.02l-3.07.79c-2.56.66-4.11,3.27-3.45,5.83h0c.32,1.25,1.1,2.25,2.12,2.88-1.12,1.21-1.58,2.96-1.07,4.65h0c.61,1.99,2.4,3.29,4.37,3.38-1.13,1.21-1.6,2.97-1.08,4.67h0c.77,2.53,3.45,3.95,5.98,3.18l.07-.02c-.27.88-.29,1.85,0,2.8.77,2.53,3.45,3.95,5.98,3.18l26.88-9.3h0l58.17-15.04c7.89-2.04,12.64-10.09,10.6-17.99h.01Z"/><path class="st12" d="M977.3,404.33l4.75-29.61,40.91,6.57-4.74,29.6c-1.53,9.54-10.52,16.03-20.09,14.49l-6.27-1c-9.57-1.53-16.08-10.51-14.55-20.05h0Z"/><path class="st12" d="M1019.3,319.52l-37.35-5.99c-6.42-1.03-12.46,3.34-13.49,9.77l-4.39,27.37c-1.75,1.55-7.66,6.92-7.95,9.09-.32,2.34,4.77,5.06,5.61,5.5l-2.08,13c-1.03,6.42,3.33,12.47,9.76,13.5l39.24,6.29c5.89.94,11.44-3.06,12.39-8.95l8.81-54.97c1.11-6.95-3.62-13.48-10.55-14.59v-.02Z"/><path class="st14" d="M961.49,366.8l6.99,1.12c2.8.45,3.25,1.5,3.06,2.67l-.36,2.23-10.39-1.67.7-4.36h0Z"/><path d="M959.97,376.24l.26-1.64s.37.06.56.07c2.02.21,3.9-.3,4.93-1.34l1.2,1.19c-1.4,1.41-3.75,2.09-6.3,1.83-.2-.02-.39-.05-.59-.08l-.06-.04h0Z"/><path class="st14" d="M1034.43,344.75c1.16-4.09,1.5-8.42.57-12.57-1.87-8.34-7.63-14.75-15.23-15.96l-46.72-4.42c-5.78-.06-10.89,4.11-11.83,10-1.04,6.48,3.37,12.57,9.84,13.6l16.93,2.96-4.87,27.89,3.78.67,2.1-11.3c2.35-2.74,6.69-2.23,6.69-2.23,3.72.6,6.23,4.08,5.63,7.79-.08.48-.45,1.2-.99,2.04-2.84,4.41-1.83,10.24,2.44,13.28l18.81,13.37,12.85-45.12h0Z"/><path class="st18" d="M976.88,352.36c-.1-1.77-3.25-3.03-7.05-2.83-.09,0-.17.02-.25.03,1.05.68,1.64,2.16,1.38,3.76-.17,1.09-.71,2-1.41,2.57.2.03.4.04.62.03,3.8-.2,6.8-1.8,6.71-3.57h0Z"/><path d="M969.58,349.55c-3.32.44-3.15,5.86-.02,6.33.7-.57,1.23-1.49,1.41-2.57.26-1.6-.34-3.08-1.38-3.76h0Z"/><circle class="st12" cx="994.62" cy="359.76" r="7"/><rect class="st14" x="973.96" y="335.21" width="3.76" height="15.54" transform="translate(467.05 1243.55) rotate(-79.9)"/><path class="st2" d="M959.34,617.07l34.5,158.75h55.48l-32.09-170.49c-2.84-15.07-16.74-25.47-32-23.93h0c-17.55,1.77-29.64,18.43-25.9,35.66h.01Z"/><g><rect class="st25" x="842.84" y="372.31" width="1.99" height="24.39" transform="translate(455.21 1226.45) rotate(-89.72)"/><rect class="st25" x="824.28" y="362.79" width="39.27" height="2.87" transform="translate(475.57 1206.35) rotate(-89.72)"/><path class="st25" d="M856.85,310.03c-.1,21.19-12.84,38.31-12.84,38.31,0,0-12.57-17.24-12.46-38.44l25.3.12h0Z"/><path class="st30" d="M855.41,322.43c-3.35,15.09-11.4,25.91-11.4,25.91,0,0-7.76-10.36-11.25-26.08l22.65.16h0Z"/><circle class="st30" cx="840.16" cy="317.42" r=".98"/><ellipse class="st17" cx="844.66" cy="337.35" rx="1.18" ry="1.37" transform="translate(-55.05 203.99) rotate(-13.34)"/><circle class="st17" cx="848.97" cy="327.69" r=".74"/><circle class="st17" cx="838.88" cy="330.85" r=".74"/><polygon class="st25" points="842.93 348.55 845.09 348.56 846.69 344.21 841.38 344.18 842.93 348.55"/></g><path class="st12" d="M848.35,364.26l-8.66-14.8c-1.22-2.09-.52-4.78,1.57-6.01h0c2.09-1.22,4.78-.52,6.01,1.57l8.66,14.8c1.22,2.09.52,4.78-1.57,6.01h0c-2.09,1.22-4.78.52-6.01-1.57Z"/><polygon class="st11" points="981.27 311.43 977.54 319.07 993.73 321 981.27 311.43"/><polygon class="st26" points="1011.14 323.07 985.27 303.21 981.25 311.45 993.68 320.99 1011.14 323.07"/><polygon class="st11" points="1011.09 323.07 1018.56 323.96 1016.84 316.15 989.28 295 985.26 303.24 1011.09 323.07"/><polygon class="st26" points="1016.85 316.2 1013.84 302.56 993.29 286.78 989.27 295.02 1016.85 316.2"/><polygon class="st11" points="1013.89 302.79 1010.88 289.15 997.24 278.68 993.22 286.92 1013.89 302.79"/><polygon class="st26" points="1010.89 289.19 1007.88 275.55 1001.25 270.47 997.23 278.71 1010.89 289.19"/><polygon class="st11" points="1007.89 275.6 1005.04 262.7 1001.24 270.49 1007.89 275.6"/><polygon class="st9" points="1013.25 257.64 1011.89 255.91 1006.45 260.19 1007.27 253.31 1005.08 253.05 1004.27 259.93 999.98 254.49 998.26 255.85 1002.54 261.29 995.66 260.47 995.4 262.65 1002.28 263.47 996.84 267.76 998.2 269.48 1003.64 265.2 1002.82 272.08 1005 272.34 1005.82 265.46 1010.11 270.9 1011.83 269.54 1007.55 264.1 1014.42 264.92 1014.68 262.74 1007.81 261.92 1013.25 257.64"/></g><g id="GUY_STANDING"><g><polygon class="st22" points="447.65 732.64 416.44 658.87 453.62 640.82 479.22 717.31 447.65 732.64"/><path class="st27" d="M477.78,704.78l-53.35-168.63c-3.71-14.84-18.76-23.95-33.78-20.44-15.37,3.59-24.8,19.01-20.89,34.18l60.85,166.21,47.18-11.32h-.01Z"/><rect class="st7" x="412.62" y="749.72" width="80.74" height="11.77" transform="translate(-259.95 238.06) rotate(-23.08)"/><path class="st2" d="M487.87,734.54l-10.14-23.79-34.52,14,2.93,7.31-29.97,26.3c-2.72,1.79-3.78,5.25-2.51,8.22l-.12-.54,74.33-31.51h0Z"/><path class="st22" d="M372.12,188.42l-22.3-19.72c-1.66-1.47-4.19-1.31-5.66.35s-1.31,4.19.35,5.66l22.3,19.72,5.31-6.01h0Z"/><polygon class="st22" points="413.95 266.29 439.85 246.95 389.89 187.17 371.63 203.57 413.95 266.29"/><path class="st22" d="M393.44,195.97l-6.33-23.12-26.65,14.16c-.14.08-.18.26-.09.39l13.6,19.52,19.47-10.94h0Z"/><path class="st22" d="M381.42,180.58l-20.01-28.36c-1.19-1.69-3.53-2.09-5.21-.9l-.43.31c-1.69,1.19-2.09,3.53-.9,5.21l20.01,28.36,6.55-4.62h-.01Z"/><path class="st22" d="M384.22,177.84l-13.14-30.37c-.88-2.03-3.24-2.97-5.27-2.09s-2.97,3.24-2.09,5.27l13.14,30.37,7.36-3.18h0Z"/><path class="st22" d="M391.64,191.2l-.4-32.19c-.03-2.18-1.81-3.92-3.99-3.89h-.56c-2.18.03-3.92,1.82-3.89,4l.4,32.19,8.44-.11Z"/><path class="st22" d="M374.1,182.26l-19.2-23.1c-1.32-1.59-3.68-1.81-5.27-.49l-.41.34c-1.59,1.32-1.81,3.68-.49,5.27l19.2,23.1,6.16-5.12h0Z"/><path class="st22" d="M377.92,212.21l22.28-9.41,55.59,61.82,80.27-5.35-24.18,49.35-64.17-7.49c-7.2-.84-13.66-4.8-17.68-10.82l-52.1-78.1h-.01Z"/><polygon class="st22" points="650.68 285.84 679.26 361.65 644.19 375.14 606.68 300.76 650.68 285.84"/><polygon class="st22" points="558.99 817.03 567.23 737.34 526.39 730.98 524.31 811.62 558.99 817.03"/><rect class="st7" x="521.26" y="812.83" width="52.91" height="10.12"/><polygon class="st2" points="521.36 812.83 521.16 786.72 563.62 786.83 574.27 812.83 521.36 812.83"/><polygon class="st27" points="519.14 772.96 550.31 409.55 610.12 425.78 567.97 780.57 519.14 772.96"/><polygon class="st27" points="418.88 565.31 554.26 459.17 510.21 416.18 381.07 519.92 418.88 565.31"/><polygon class="st16" points="475.79 314.49 482.21 257.46 556.59 246.92 508.67 314.86 475.79 314.49"/><path class="st16" d="M637.28,271.63s-45.42-21.61-61.21-24.08c-14.38-2.24-68.56,6.21-68.56,6.21l-31.17,189.68,134.84,21.03,26.1-192.85h0Z"/><path class="st16" d="M672.71,332.85s-19.47-63.77-41.07-62.32c-14.74.99-26.4,12.75-25.98,27.52.42,14.78,25.02,56.56,25.02,56.56l42.03-21.76h0Z"/><path class="st22" d="M594.8,260.05l4.45-28.52-39.3-6.11-4.44,28.5c-1.43,9.19,4.85,17.8,14.04,19.23l6.04.94c9.19,1.43,17.79-4.85,19.22-14.04"/><path class="st22" d="M616.26,220.8c.68-4.39-2.32-8.51-6.71-9.2s-8.51,2.32-9.19,6.72,2.32,8.51,6.71,9.2,8.51-2.32,9.19-6.72"/><path class="st22" d="M562.29,212.38c.68-4.39-2.32-8.51-6.71-9.2s-8.51,2.32-9.19,6.72c-.68,4.39,2.32,8.51,6.71,9.2s8.51-2.32,9.19-6.72"/><path class="st22" d="M606.06,230.49l5.72-36.69c1.81-11.6-6.13-22.46-17.72-24.27l-10.1-1.58c-11.59-1.81-22.46,6.13-24.27,17.72l-5.72,36.69c-1.81,11.6,6.13,22.47,17.72,24.27l10.1,1.58c11.59,1.81,22.46-6.13,24.27-17.73"/><path class="st18" d="M574.15,210.72c.61-1.57-1.43-3.82-4.54-5.02s-6.12-.89-6.73.68c-.61,1.57,1.42,3.82,4.54,5.02,3.11,1.2,6.12.89,6.73-.68"/><path class="st4" d="M570.88,210.57c1.11-1.31.94-3.27-.37-4.37-1.31-1.11-3.27-.94-4.37.37-1.11,1.31-.94,3.27.37,4.37,1.31,1.11,3.27.94,4.37-.37"/><path class="st18" d="M590.33,213.25c-.1-1.68,2.52-3.2,5.85-3.4,3.33-.19,6.1,1.01,6.2,2.7.1,1.68-2.52,3.2-5.85,3.4-3.33.19-6.1-1.01-6.2-2.7"/><path class="st4" d="M593.49,214.09c-.65-1.58.1-3.4,1.68-4.06,1.58-.65,3.4.1,4.05,1.68.65,1.58-.1,3.4-1.68,4.05-1.58.66-3.4-.1-4.05-1.68"/><path class="st7" d="M589.87,200.03l.56-3.57c.27-1.71,1.88-2.89,3.59-2.62l10.27,1.6c1.7.27,2.86,1.86,2.6,3.56l-.56,3.57s-.02.03-.03.02l-16.42-2.56h-.01Z"/><path class="st7" d="M568.15,168.35h0c.45-2.91,3.18-4.91,6.09-4.46l31.35,4.82c2.92.45,4.92,3.19,4.47,6.11h0c-.45,2.91-3.18,4.91-6.09,4.46l-31.35-4.82c-2.92-.45-4.92-3.19-4.47-6.11Z"/><polygon class="st16" points="589.97 250.92 571.27 273.41 585.13 290.36 603.55 256.69 589.97 250.92"/><polygon class="st16" points="559.04 246.59 571.27 273.41 552.53 285.71 545.02 248.36 559.04 246.59"/><g><circle class="st26" cx="606.7" cy="260.44" r="6.04"/><circle class="st26" cx="602.91" cy="270.2" r="6.04"/><circle class="st26" cx="601.05" cy="280.6" r="6.04"/><circle class="st26" cx="598.84" cy="290.65" r="6.04"/><circle class="st26" cx="595.09" cy="300.68" r="6.04"/><circle class="st26" cx="592.1" cy="311.05" r="6.04"/><circle class="st26" cx="587.1" cy="320.9" r="6.04"/><circle class="st26" cx="581.06" cy="329.09" r="6.04"/><circle class="st26" cx="564.52" cy="337.72" r="6.04"/><circle class="st26" cx="573.65" cy="333.97" r="6.04"/><circle class="st26" cx="544.92" cy="248.77" r="6.04"/><circle class="st26" cx="544.72" cy="259.24" r="6.04"/><circle class="st26" cx="542.48" cy="269.56" r="6.04"/><circle class="st26" cx="540.7" cy="279.7" r="6.04"/><circle class="st26" cx="540.35" cy="290.4" r="6.04"/><circle class="st26" cx="539.17" cy="301.13" r="6.04"/><circle class="st26" cx="540.05" cy="312.14" r="6.04"/><circle class="st26" cx="542.52" cy="322.01" r="6.04"/><circle class="st26" cx="554.53" cy="336.29" r="6.04"/><circle class="st26" cx="547.51" cy="329.35" r="6.04"/></g><g><circle class="st24" cx="615.76" cy="265.53" r="7.89"/><circle class="st24" cx="610.8" cy="278.29" r="7.89"/><circle class="st24" cx="608.37" cy="291.88" r="7.89"/><circle class="st24" cx="605.48" cy="305.02" r="7.89"/><circle class="st24" cx="600.59" cy="318.13" r="7.89"/><circle class="st24" cx="596.68" cy="331.7" r="7.89"/><circle class="st24" cx="590.15" cy="344.56" r="7.89"/><circle class="st24" cx="582.24" cy="355.27" r="7.89"/><circle class="st24" cx="560.62" cy="366.56" r="7.89"/><circle class="st24" cx="572.56" cy="361.65" r="7.89"/><circle class="st24" cx="535.01" cy="250.28" r="7.89"/><circle class="st24" cx="534.74" cy="263.96" r="7.89"/><circle class="st24" cx="531.82" cy="277.46" r="7.89"/><circle class="st24" cx="529.49" cy="290.71" r="7.89"/><circle class="st24" cx="529.03" cy="304.69" r="7.89"/><circle class="st24" cx="527.49" cy="318.73" r="7.89"/><circle class="st24" cx="528.63" cy="333.11" r="7.89"/><circle class="st24" cx="531.87" cy="346.02" r="7.89"/><circle class="st24" cx="547.57" cy="364.68" r="7.89"/><circle class="st24" cx="538.39" cy="355.61" r="7.89"/></g><path class="st7" d="M564.17,196.02l.56-3.57c.27-1.71,1.88-2.89,3.59-2.62l10.27,1.6c1.7.26,2.86,1.86,2.6,3.56l-.56,3.57s-.02.03-.03.02l-16.42-2.56h-.01Z"/><polygon class="st7" points="604.99 240.59 608.24 219.7 606.07 219.36 596.98 239.35 604.99 240.59"/><polygon class="st7" points="551.79 232.3 555.04 211.4 557.24 211.75 559.79 233.55 551.79 232.3"/><path class="st4" d="M579.77,222.97c1.2.19,2.25-.26,3.17-.66,1.51-.65,2.43-1.04,3.83.88l1.25-.91c-2.13-2.92-4.11-2.07-5.69-1.39-.8.34-1.56.67-2.32.55s-1.37-.62-1.99-1.15c-1.24-1.06-2.79-2.37-5.98-.46l.79,1.33c2.25-1.34,3.02-.68,4.19.31.72.62,1.54,1.31,2.76,1.5"/><g><rect class="st25" x="579.92" y="352.87" width="1.99" height="24.39" transform="translate(61.02 812.77) rotate(-72.88)"/><rect class="st25" x="567.32" y="344.16" width="39.27" height="2.87" transform="translate(83.81 804.72) rotate(-72.87)"/><path class="st25" d="M614.98,297.52c-6.24,20.26-23.39,32.95-23.39,32.95,0,0-7.03-20.15-.8-40.4l24.18,7.45h.01Z"/><path class="st30" d="M610.01,308.98c-7.58,13.47-18.42,21.5-18.42,21.5,0,0-3.46-9.91-3.37-22.82l21.79,1.33h0Z"/><circle class="st30" cx="596.86" cy="299.76" r=".98"/><ellipse class="st17" cx="595.4" cy="320.04" rx="1.37" ry="1.18" transform="translate(239.91 894.98) rotate(-86.53)"/><circle class="st17" cx="602.33" cy="312.14" r=".74"/><circle class="st17" cx="591.75" cy="312.24" r=".74"/><polygon class="st25" points="590.51 330.35 592.57 330.99 595.36 327.29 590.28 325.73 590.51 330.35"/></g><path class="st7" d="M563.44,258.25l22.54,3.51c8.47,1.32,16.4-4.47,17.72-12.94l1.92-12.29-53.2-8.3-1.92,12.29c-1.32,8.47,4.47,16.4,12.94,17.72"/><polygon class="st7" points="569.52 233.48 586.6 236.17 588.36 224.98 571.48 222.33 569.52 233.48"/><polygon class="st7" points="586.59 236.25 593.79 237.38 588.37 224.9 586.59 236.25"/><polygon class="st7" points="569.86 233.62 562.66 232.49 571.65 222.27 569.86 233.62"/><path class="st22" d="M593.41,336.34l54.61,48.36c8.89,7.23,22.03,5.55,28.82-3.69h0c7.22-9.83,4.07-23.76-6.66-29.54l-55.6-30.17-21.17,15.04h0Z"/><rect class="st22" x="578.7" y="192.5" width="5.94" height="46.31" transform="translate(282.5 759.11) rotate(-81.51)"/><polygon class="st22" points="592.07 313.21 581.19 341.06 609.37 345.1 614.58 321.3 592.07 313.21"/><path class="st22" d="M576.29,321h0c-.61,2.16.64,4.4,2.8,5.01l9.08,2.59,2.22-7.81-9.08-2.59c-2.16-.61-4.4.64-5.01,2.8"/><path class="st22" d="M573.52,328.81h0c-.38,2.21,1.1,4.31,3.31,4.69l10.13,1.69,1.37-8-10.13-1.69c-2.21-.38-4.31,1.1-4.69,3.31"/><path class="st22" d="M579.67,313.82h0c-.73,2.12.39,4.43,2.51,5.16l7.69,2.01,2.65-7.67-7.69-2.01c-2.12-.73-4.43.39-5.16,2.51"/><path class="st22" d="M572.31,335.58h0c-.5,2.18.86,4.36,3.05,4.87l6.91.71,1.82-7.91-6.91-.71c-2.18-.5-4.36.86-4.86,3.05"/></g><g><path class="st16" d="M566.95,237.5l-34.97-5.38c-1.82-.28-3.42-1.25-4.51-2.74s-1.53-3.3-1.25-5.12c.28-1.82,1.25-3.42,2.73-4.51s3.3-1.53,5.12-1.25l3.14.48-.76,4.94-3.14-.48c-.5-.07-1,.05-1.41.34-.41.3-.67.74-.75,1.24s.05,1,.34,1.41.74.67,1.24.75l34.97,5.38-.76,4.94h.01Z"/><rect class="st26" x="563.96" y="228.68" width="8.83" height="13.16" transform="translate(249.39 761.23) rotate(-81.25)"/><rect class="st26" x="568.58" y="229.12" width="5.19" height="13.16" transform="translate(251.33 764.37) rotate(-81.25)"/></g></g><g id="MOM__x26__BABY"><path class="st28" d="M163.65,448.29l47.9,56.09c6.02,7.35,16.67,8.82,24.46,3.39h0c8.17-5.7,10.25-16.93,4.66-25.19l-48.59-66.23-28.43,31.94Z"/><path class="st21" d="M156.37,525.36h0l66.26-13.49,14.46,19.38c16.16,3.41,40.15,5.77,40.15,5.77,0,0,80.45,5.99,105.11,10.29,24.45,4.26,24.79,33.72,21.07,66.05-7.95,69.11-35.01,188.72-35.01,188.72h-104.13s-28.57-71.92,9.55-123.78c14.57-19.83,49.7-53.67,49.7-53.67,0,0-43.2-2.19-73.56,1.75-12.69,1.65-48.78-1.27-50.71-1.37-27.73-1.5-67.16-31.97-42.9-99.65h0Z"/><path class="st7" d="M362.47,822.46s4.7-11.99-4.68-14.49c-12.33-3.29-24.89-8.43-29.38-14.57-10.96-14.98-10.8-34.04-10.8-34.04l1.58-34.14-41.19,13.54,1.45,48.1-1.36,35.84,11.33-.03s-.13-11.3-.14-15.07c-.01-4.47,6.79-3.83,6.8-.06.01,3.78.02,15.11.02,15.11l66.38-.19h0Z"/><path class="st26" d="M181.14,627.06c-27.73-1.5-67.16-31.97-42.9-99.65h0l83.47-13.49,10.63,21.98c15.57,1.81,26.78,3.17,26.78,3.17,0,0,80.45,5.99,105.11,10.29,24.45,4.26,24.79,33.72,21.07,66.05-7.95,69.11-36.55,186.67-36.55,186.67h-94.23s-30.85-69.5,7.27-121.35c14.57-19.83,43.63-54.04,43.63-54.04l-124.27.38h0Z"/><path class="st28" d="M193.88,386.72l-39.4-11.46-1.65,34.73c-.44,9.32,6.74,17.24,16.05,17.68l6.27.3c9.33.45,17.25-6.79,17.65-16.15l1.09-25.11h-.01Z"/><path class="st2" d="M227,517.73l-9.14-59.2c-2.2-13.12-7.54-25.51-15.57-36.1l-9.04-11.93-40.74-8.43-17.91,128.04,92.39-12.38h0Z"/><path class="st28" d="M216.99,354.86c-.47-3.23-8.2-8.88-8.2-8.88l.94,15.29s7.73-3.19,7.26-6.41Z"/><path class="st28" d="M172.04,523.84c-8.38-3.43-14.54-6.92-15.44-15.94l-5.45-62.84,38.47-4.53,4.87,59.36-22.45,23.95Z"/><path class="st3" d="M179.59,334.05l1.58,8.14c3.4,18.72,3.94,24.47-8.69,35.2-7.12,6.05-24.63,8.18-24.63,8.18l-17.41-47.14.23-.04c-3.95-12.85,4.64-25.55,18.28-27.51l42.29-7.18c7.34-1.06,14.16,3.93,15.44,11.19l2.48,13.63-29.56,5.53h0Z"/><ellipse class="st28" cx="178.17" cy="356.04" rx="8.51" ry="8.52" transform="translate(-127.15 100.52) rotate(-23.49)"/><path class="st3" d="M196.99,334.15l-6.32,9.16,13.89-9.05h0c-1.77-2.71-5.73-2.77-7.57-.11h0Z"/><path class="st2" d="M189.72,417.7c-.04-.23-.05-.45-.09-.68-2.29-12.03-13.87-19.92-25.88-17.63-11.78,2.25-19.56,13.47-17.69,25.26h-.02l4.81,37.36,44.41-6.38-5.51-37.94h-.03Z"/><path class="st11" d="M212.9,367.02c.64-.64.92-1.6.64-2.52-.41-1.33-1.85-2.16-3.15-1.67-1.88.71-2.23,3.21-5.36,4.79,1.18.19,2.48-.05,3.83-.31,1.36-.27,2.76-.53,4.04-.29Z"/><path class="st11" d="M209.08,368.39c-1.81.35-3.84.74-5.64-.13h-.02c3.79,3.11,7.24,4.5,9.79,3.71,1.33-.41,2.07-1.82,1.66-3.15-.02-.06-.06-.11-.08-.16-.44-.05-.93-.17-1.52-.4-1.18-.46-2.65-.18-4.2.13h.01Z"/><path class="st13" d="M202.61,366.19l-.59.93c.14.18.61.83,1.42,1.14.6-.19,1.13-.4,1.6-.64-1.29.03-1.94-1.12-2.42-1.43h-.01Z"/><path class="st13" d="M212.86,367.08s.03-.04.05-.06c-1.28-.25-2.68.02-4.04.29-1.35.26-2.65.51-3.83.31-.47.24-.99.45-1.6.64,1.8.87,3.83.49,5.64.13,1.55-.3,3.02-.59,4.2-.13.59.23,1.08.35,1.52.4-.33-.86-1.08-1.45-1.94-1.59h0Z"/><polygon class="st28" points="189.1 350.67 209.15 349.31 209.51 354.51 189.46 355.87 189.1 350.67"/><path class="st26" d="M174.26,352.78l.58-1.32c.17-.39,0-.84-.39-1.01l-4-1.77c-.39-.17-.83,0-1,.39l-.58,1.32c-.17.39,0,.84.39,1.01l4,1.77c.39.17.83,0,1-.39Z"/><path class="st26" d="M173.06,356.78l.1-1.44c.03-.42-.29-.79-.71-.82l-4.36-.3c-.42-.03-.78.29-.81.71l-.1,1.44c-.03.42.29.79.71.82l4.36.3c.42.03.78-.29.81-.71Z"/><rect class="st26" x="168.44" y="359.88" width="5.89" height="2.97" rx="1.08" ry="1.08" transform="translate(-167.1 148.32) rotate(-32.44)"/><path class="st26" d="M177.59,362.22l-1.34-.51c-.39-.15-.83.05-.98.44l-1.56,4.08c-.15.39.05.84.44.99l1.34.51c.39.15.83-.05.98-.44l1.56-4.08c.15-.39-.05-.84-.44-.99Z"/><path class="st3" d="M134.15,336.69s-21.99,2.05-15.02,23.87c0,0,22.28,51.86,2.06,74.67,0,0-10.37-27.56-27.57-50.18-5.84-7.68-8.77-17.3-7.61-26.88,1.67-13.85,11.79-29.91,48.75-32.32l-.61,10.85h0Z"/><path class="st1" d="M131.61,395.48l-8.71-20.63c-3-7.11-.69-15.35,5.57-19.86h0c6.62-4.77,8.78-13.65,5.08-20.92l-2.96-5.82-4.21,2.06,2.96,5.82c3.7,7.27,1.54,16.16-5.08,20.92h0c-6.26,4.51-8.57,12.75-5.57,19.86l8.71,20.63,4.21-2.06h0Z"/><path class="st1" d="M167.99,383.53l-19.15-11.6c-6.6-4-9.56-12.03-7.13-19.35h0c2.57-7.74-.9-16.2-8.16-19.93l-5.81-2.98-2.2,4.14,5.81,2.98c7.26,3.72,10.72,12.18,8.16,19.93h0c-2.43,7.33.53,15.36,7.13,19.35l19.15,11.6,2.2-4.14Z"/><g><path class="st8" d="M239.46,493.78c.49,4.48,4.52,7.71,8.99,7.22l.99-.11c4.46-.5,7.68-4.54,7.19-9.02l-4.09-36.98c-.49-4.48-4.52-7.71-8.99-7.22l-.98.11c-4.47.5-7.69,4.54-7.2,9.02l4.09,36.98Z"/><path class="st28" d="M280.34,512.76l-13.15-15.42.14-12.94-.23-16.56c.07-1.72,1.51-3.06,3.23-2.99,1.71.07,3.05,1.51,2.98,3.23l.24,6.99,22.89-13.03c1.54-.88,3.51-.35,4.39,1.19s.35,3.51-1.19,4.4l-11.71,6.72.23.4,9.95-5.69c1.54-.88,3.5-.35,4.39,1.19.88,1.54.35,3.51-1.19,4.4l-8.73,4.99.23.4,5.09-3.02c1.54-.89,3.51-.35,4.39,1.19s.35,3.51-1.19,4.4l-6.31,3.72.23.41,1.74-1.22c1.54-.88,3.51-.35,4.39,1.19s.35,3.51-1.19,4.4l-10.97,6.51-8.65,15.13h0Z"/><path class="st8" d="M253.45,444.25l5.54,3.55c7.71,4.93,17.94,2.67,22.86-5.06l6.16-9.68c4.92-7.73,2.66-17.99-5.04-22.92l-5.55-3.55c-7.7-4.93-17.94-2.67-22.86,5.06l-6.17,9.68c-4.91,7.73-2.66,17.99,5.05,22.92h.01Z"/><path class="st8" d="M247,419c-.73,1.2-.35,2.77.85,3.51,1.2.74,2.77.37,3.5-.83.73-1.2.35-2.77-.85-3.51-1.2-.74-2.76-.37-3.5.83"/><path d="M259.7,424.44l.2-.75c-4.64-1.23-4.23-5.22-4.21-5.39l-.77-.09s-.53,4.82,4.78,6.23Z"/><path class="st11" d="M241.08,480.22l2.4-14.35c-4.99-2.04-8.5-6.96-8.47-12.69.04-7.17,5.59-13,12.59-13.51.03-.02.07-.04.14-.04h.63c.1,0,.2-.01.3-.01s.2.01.3.02l31.16.16c.25,0,.5.02.75.04.35-.02.69-.05,1.05-.05,7.81.04,14.04,6.68,13.47,14.63.02.09.04.18.05.27l-4.55,25.91,6.25,26.84c1.67,9.43-4.59,16.65-13.27,16.61l-33.5-.17c-8.68-.04-17.63-4.21-15.64-16.75l6.33-26.89v-.02h0Z"/><path class="st12" d="M260.07,414.35l2.93,6.51c.26.58,0,1.26-.57,1.52h0c-.58.26-1.26,0-1.52-.58l-2.93-6.51c-.26-.58,0-1.26.57-1.52h0c.58-.26,1.26,0,1.52.58Z"/><line class="st0" x1="291.98" y1="483.65" x2="292.06" y2="483.79"/><path class="st28" d="M302.31,478.26l.02.04c.83,1.54.26,3.46-1.27,4.29l-8.68,4.72c-1.53.83-3.45.27-4.28-1.27l-.02-.04c-.83-1.54-.26-3.46,1.27-4.29l8.68-4.72c1.53-.83,3.45-.27,4.28,1.27"/><path class="st28" d="M302.51,470.24l.02.04c.86,1.52.32,3.46-1.2,4.32l-8.62,4.87c-1.52.86-3.45.32-4.31-1.2l-.02-.04c-.86-1.52-.32-3.46,1.2-4.32l8.62-4.87c1.52-.86,3.45-.32,4.31,1.2"/><path class="st28" d="M301.21,474.66l-8.66,4.89c-1.51.85-3.44.3-4.3-1.23-.86-1.54-.34-3.47,1.17-4.33l8.66-4.89"/><path class="st28" d="M298.16,468.38l-8.66,4.89c-1.51.85-3.44.3-4.3-1.23-.86-1.54-.34-3.47,1.17-4.33l8.66-4.89"/><path class="st28" d="M301.16,486.71c-.83-1.53-2.74-2.09-4.26-1.26l-5.62,3.06c-1.53.83-2.09,2.74-1.26,4.27l.08.14c.83,1.53,2.74,2.09,4.26,1.26l5.59-3.07"/><rect class="st11" x="241.13" y="427.57" width="9.3" height="2.34" rx="1.02" ry="1.02" transform="translate(-221.2 590.48) rotate(-79.28)"/><path class="st11" d="M240.02,427.66c-.28,1.49.69,2.92,2.18,3.2s2.92-.7,3.2-2.18c.28-1.49-.69-2.92-2.18-3.2s-2.91.7-3.2,2.18ZM241.07,427.86c.17-.9,1.04-1.5,1.94-1.33s1.5,1.04,1.33,1.95c-.17.9-1.04,1.5-1.94,1.33s-1.5-1.04-1.33-1.95Z"/><polygon class="st11" points="270.3 403.31 265.91 406.83 275.06 412.57 270.3 403.31"/><polygon class="st26" points="284.89 418.74 275.03 399.52 270.29 403.32 275.03 412.55 284.89 418.74"/><polygon class="st11" points="284.86 418.72 289.08 421.37 290.26 416.21 279.76 395.74 275.02 399.54 284.86 418.72"/><polygon class="st26" points="290.26 416.24 292.32 407.22 284.49 391.96 279.74 395.75 290.26 416.24"/><polygon class="st11" points="292.28 407.38 294.35 398.36 289.15 388.23 284.41 392.02 292.28 407.38"/><polygon class="st26" points="294.34 398.39 296.4 389.37 293.88 384.44 289.13 388.24 294.34 398.39"/><polygon class="st11" points="296.4 389.4 298.35 380.87 293.86 384.46 296.4 389.4"/><polygon class="st9" points="304.69 380.16 304.37 378.74 299.9 379.77 302.34 375.88 301.1 375.11 298.66 378.99 297.64 374.52 296.22 374.84 297.25 379.32 293.36 376.88 292.59 378.11 296.47 380.55 292 381.57 292.33 382.99 296.8 381.97 294.36 385.85 295.59 386.63 298.03 382.74 299.05 387.21 300.47 386.89 299.45 382.42 303.33 384.86 304.11 383.62 300.22 381.18 304.69 380.16"/></g><path class="st11" d="M127.54,335.63l16.4-9.51c2.8-1.62,3.25-5.48.91-7.71l-5.9-5.64c-2.34-2.24-6.17-1.61-7.66,1.26l-8.76,16.82,5.01,4.79h0Z"/><path class="st11" d="M128.24,324.87l-16.4,9.51c-2.8,1.62-3.25,5.48-.91,7.71l5.9,5.64c2.34,2.24,6.17,1.61,7.66-1.26l8.76-16.82-5.01-4.79h0Z"/><ellipse class="st11" cx="127.9" cy="330.25" rx="6.8" ry="6.81" transform="translate(-190.29 174.75) rotate(-42.78)"/><g><path class="st18" d="M195.73,347.31s3.39,4.34,9.81,3.41c2.81-.41,1.52-8.01-1.29-7.57s-8.52,4.16-8.52,4.16Z"/><g class="st31"><circle cx="205.01" cy="346.63" r="3.16"/></g></g><path d="M205.68,343.85l-.18-.97s-6.13-.52-11.51,2.93l1.83,1.58s3.94-2.61,9.86-3.53"/><path class="st28" d="M157.81,514.18h0c-1.42-10.29,6.14-19.63,16.48-20.36l68.12-4.8,9.5-12.9c1.03-1.4,3.01-1.68,4.43-.64,1.42,1.05,1.73,3.03.7,4.43l-3.05,4.14,16.01-3.29h0l2.91-.57c2.41-.47,4.75,1.11,5.22,3.53h0c.27,1.4-.14,2.77-1,3.77,1.52.47,2.73,1.74,3.06,3.41h0c.36,1.86-.49,3.67-2,4.63,1.05.63,1.84,1.68,2.09,2.98h0c.31,1.59-.27,3.13-1.37,4.15.22.4.39.84.48,1.31h0c.46,2.35-1.01,4.61-3.3,5.18l.03.16-16.8,2.66-79.93,17.35c-10.21,2.22-20.15-4.76-21.58-15.14h0Z"/></g><g id="Table"><rect class="st25" x="913.73" y="539.08" width="26.83" height="283.8"/><rect class="st25" x="251.19" y="539.07" width="26.83" height="283.8"/><rect class="st25" x="206.79" y="523.51" width="778.19" height="26.82"/><rect class="st26" x="605" y="507.13" width="25.85" height="5.51"/><rect class="st11" x="605" y="496.1" width="25.85" height="5.51"/><rect class="st27" x="605" y="518.15" width="25.85" height="5.51"/><rect class="st24" x="605" y="512.64" width="25.85" height="5.51"/><rect class="st29" x="605" y="501.61" width="25.85" height="5.51"/><path class="st11" d="M632.33,544.27c7.79-.03,11.52-1.89,12.36-3.48.18-.34.35-.87-.18-1.64-.26-.38-.65-.76-1.16-1.1-2.79,1.23-6.6,1.87-11.16,1.78-1.79-.05-3.15-1.4-3.23-3.22-.08-1.87,1.23-3.45,3.06-3.66,4.37-.52,8.37-.05,11.32,1.22.57-.4.98-.82,1.22-1.24.32-.56.3-1.08-.05-1.63-.24-.38-.61-.74-1.11-1.09-2.52,1.06-6.13,1.76-11.09,1.76-1.54,0-2.79-.66-3.44-1.8-.61-1.08-.57-2.43.1-3.53.64-1.06,1.77-1.68,3.02-1.68h.03c4.62-.32,8.58.19,11.43,1.41,1-.64,1.42-1.28,1.42-1.73,0-.54-.62-1.45-2.32-2.29-3.44,1.87-8.19,2.81-12.61,1.43-1.62-.5-2.54-1.89-2.31-3.46.21-1.39,1.44-2.8,3.44-3.15-.17-.06-.34-.12-.5-.18-1.49-.62-2.35-1.76-2.35-3.1s.51-2.44,1.46-3.25c1.65-1.39,3.97-1.86,8.33-1.23.02-1.37-.39-2.82-.89-4.08-1.12-2.82-4.98-3.19-8.24-4.37l1.98-4.88c4.21,1.53,8.37,4.02,9.99,8.07.97,2.43,1.23,4.43,1.1,6.04,3.03.87,4.88,2.29,5.5,4.22.6,1.85-.05,3.87-1.84,5.68-.02.02-.04.04-.07.06,2.33,1.62,2.73,3.43,2.73,4.48,0,1.22-.55,2.52-1.81,3.68.36.36.67.74.93,1.14,1.02,1.61,1.07,3.48.14,5.13-.3.53-.69,1.03-1.17,1.49.37.35.69.72.96,1.11,1.12,1.62,1.26,3.5.39,5.16-1.78,3.4-7.24,5.29-15.37,5.31v-3.42.04h-.01ZM632.39,536.34s-.02.06-.03.08c1.7.03,3.23-.05,4.59-.22-1.37-.09-2.89-.06-4.56.14h0ZM632.17,528.38l-.26.1h-.09s.12.08.48.08c1.59,0,3-.08,4.25-.21-1.31-.09-2.77-.08-4.38.03h0ZM632.01,520.53c-.31,0-.54.05-.7.12,1.76.47,3.64.48,5.41.16-1.34-.17-2.9-.27-4.71-.27h0ZM639.73,515.11c-1.12,1.1-2.54,1.81-3.99,2.16,2.45.21,4.63.64,6.47,1.27.36-.27.69-.54.97-.83.39-.4,1.28-1.41,1.02-2.22-.2-.62-1.16-1.4-3.23-2-.39.69-.84,1.23-1.23,1.62h-.01ZM631.88,513.26c-.11.09-.21.21-.25.47.58.41,2.95.74,4.9-.45.26-.16.48-.33.68-.51-3.72-.44-4.97.17-5.34.49h.01Z"/><g><rect class="st25" x="323.57" y="510.39" width="1.99" height="24.39" transform="translate(-198.47 846.42) rotate(-89.92)"/><rect class="st25" x="304.94" y="500.85" width="39.27" height="2.87" transform="translate(-178.16 826.16) rotate(-89.92)"/><path class="st25" d="M337.31,448.09c-.03,21.19-12.7,38.35-12.7,38.35,0,0-12.63-17.19-12.6-38.38l25.3.03h0Z"/><path class="st30" d="M335.91,460.5c-3.3,15.1-11.31,25.95-11.31,25.95,0,0-7.79-10.33-11.34-26.03l22.65.08Z"/><circle class="st30" cx="320.64" cy="455.54" r=".98"/><ellipse class="st17" cx="325.2" cy="475.4" rx="1.18" ry="1.37" transform="translate(-102.4 89.5) rotate(-13.56)"/><circle class="st17" cx="329.49" cy="465.78" r=".74"/><circle class="st17" cx="319.41" cy="468.97" r=".74"/><polygon class="st25" points="323.53 486.65 325.69 486.65 327.27 482.3 321.96 482.29 323.53 486.65"/></g></g><path class="st8" d="M741.15,514.22h8.82v19.62c0,2.43-1.98,4.41-4.41,4.41h0c-2.43,0-4.41-1.98-4.41-4.41v-19.62h0Z" transform="translate(-159.21 645.29) rotate(-42.71)"/><path class="st8" d="M750.26,516.32h8.82v19.62c0,2.43-1.98,4.41-4.41,4.41h0c-2.43,0-4.41-1.98-4.41-4.41v-19.62h0Z" transform="translate(-163.71 600.77) rotate(-39.5)"/><path class="st8" d="M767.05,536.93h0c-2.06,1.29-4.79.66-6.08-1.4l-10.4-16.64,7.47-4.66,10.41,16.62c1.29,2.06.67,4.79-1.4,6.08Z"/><polygon class="st8" points="758.04 514.23 753.33 521.71 730.83 507.51 735.54 500.05 758.04 514.23"/></svg>