<svg viewBox="0 0 1600 1200" fill="none" xmlns="http://www.w3.org/2000/svg"><path fill-rule="evenodd" clip-rule="evenodd" d="M619.945 439.396C619.945 439.396 604.495 479.956 604.344 479.894C584.545 471.759 573.948 460.438 556.731 457.414C557.061 457.129 572.183 422.559 571.94 421.934C576.47 426.811 619.945 439.396 619.945 439.396Z" fill="#FFA28F"/><path fill-rule="evenodd" clip-rule="evenodd" d="M543.486 354.79C543.486 354.79 556.954 355.363 555.312 365.502C553.154 378.831 552.676 393.178 556.609 400.138C566.213 417.132 584.488 425.113 584.488 425.113L568.191 463.674L541.823 450.29L507 436.306L511.899 425.362C511.899 425.362 522.636 430.311 526.231 431.93C530.498 433.853 532.804 426.995 529.21 425.376C525.607 423.753 514.787 418.909 514.787 418.909L543.486 354.79Z" fill="#E73245"/><path fill-rule="evenodd" clip-rule="evenodd" d="M619.412 397.633L896.851 558.473L953.862 566.827L944.65 632.621C920.607 656.591 893.424 670.063 863.467 658.737C820.263 642.4 759.335 561.5 707.267 551.73C607.414 532.993 583.13 468.829 583.13 468.829L619.412 397.633Z" fill="#891229"/><path fill-rule="evenodd" clip-rule="evenodd" d="M963.16 849.181C930.594 939.976 830.694 987.143 740.026 954.531C649.359 921.92 602.258 821.879 634.824 731.083C667.39 640.288 767.291 593.121 857.958 625.733C948.625 658.345 995.725 758.386 963.16 849.181Z" fill="#7070FF"/><mask id="mask0_279_1094" style="mask-type:luminance" maskUnits="userSpaceOnUse" x="624" y="615" width="350" height="350"><path d="M634.824 731.086C602.258 821.881 649.36 921.921 740.027 954.534C830.694 987.145 930.594 939.978 963.16 849.183C995.726 758.388 948.626 658.347 857.959 625.735C838.474 618.727 818.578 615.404 798.999 615.404C727.478 615.411 660.392 659.803 634.824 731.086Z" fill="#463EC5"/></mask><g mask="url(#mask0_279_1094)"><path fill-rule="evenodd" clip-rule="evenodd" d="M829.924 862.54L777.248 843.593L796.168 790.843L848.845 809.79L829.924 862.54Z" fill="#463EC5"/></g><mask id="mask1_279_1094" style="mask-type:luminance" maskUnits="userSpaceOnUse" x="624" y="615" width="350" height="350"><path d="M634.824 731.086C602.258 821.881 649.36 921.921 740.027 954.534C830.694 987.145 930.594 939.978 963.16 849.183C995.726 758.388 948.626 658.347 857.959 625.735C838.474 618.727 818.578 615.404 798.999 615.404C727.478 615.411 660.392 659.803 634.824 731.086Z" fill="#463EC5"/></mask><g mask="url(#mask1_279_1094)"><path fill-rule="evenodd" clip-rule="evenodd" d="M838.775 919.24L800.369 905.685L826.624 861.626L867.582 876.084L838.775 919.24Z" fill="#463EC5"/></g><mask id="mask2_279_1094" style="mask-type:luminance" maskUnits="userSpaceOnUse" x="624" y="615" width="350" height="350"><path d="M634.824 731.086C602.258 821.881 649.36 921.921 740.027 954.534C830.694 987.145 930.594 939.978 963.16 849.183C995.726 758.388 948.626 658.347 857.959 625.735C838.474 618.727 818.578 615.404 798.999 615.404C727.478 615.411 660.392 659.803 634.824 731.086Z" fill="#463EC5"/></mask><g mask="url(#mask2_279_1094)"><path fill-rule="evenodd" clip-rule="evenodd" d="M901.064 889.98L866.808 877.959L891.701 824.521L924.792 837.105L901.064 889.98Z" fill="#463EC5"/></g><mask id="mask3_279_1094" style="mask-type:luminance" maskUnits="userSpaceOnUse" x="624" y="615" width="350" height="350"><path d="M634.824 731.086C602.258 821.881 649.36 921.921 740.027 954.534C830.694 987.145 930.594 939.978 963.16 849.183C995.726 758.388 948.626 658.347 857.959 625.735C838.474 618.727 818.578 615.404 798.999 615.404C727.478 615.411 660.392 659.803 634.824 731.086Z" fill="#463EC5"/></mask><g mask="url(#mask3_279_1094)"><path fill-rule="evenodd" clip-rule="evenodd" d="M859.069 969.988L830.795 954.684L866.599 927.992L892.92 937.577L859.069 969.988Z" fill="#463EC5"/></g><mask id="mask4_279_1094" style="mask-type:luminance" maskUnits="userSpaceOnUse" x="624" y="615" width="350" height="350"><path d="M634.824 731.086C602.258 821.881 649.36 921.921 740.027 954.534C830.694 987.145 930.594 939.978 963.16 849.183C995.726 758.388 948.626 658.347 857.959 625.735C838.474 618.727 818.578 615.404 798.999 615.404C727.478 615.411 660.392 659.803 634.824 731.086Z" fill="#463EC5"/></mask><g mask="url(#mask4_279_1094)"><path fill-rule="evenodd" clip-rule="evenodd" d="M685.557 864.684L655.817 853.987L654.227 799.345L687.183 811.199L685.557 864.684Z" fill="#463EC5"/></g><mask id="mask5_279_1094" style="mask-type:luminance" maskUnits="userSpaceOnUse" x="624" y="615" width="350" height="350"><path d="M634.824 731.086C602.258 821.881 649.36 921.921 740.027 954.534C830.694 987.145 930.594 939.978 963.16 849.183C995.726 758.388 948.626 658.347 857.959 625.735C838.474 618.727 818.578 615.404 798.999 615.404C727.478 615.411 660.392 659.803 634.824 731.086Z" fill="#463EC5"/></mask><g mask="url(#mask5_279_1094)"><path fill-rule="evenodd" clip-rule="evenodd" d="M721.083 914.282L691.343 903.586L683.636 862.769L720.549 876.045L721.083 914.282Z" fill="#463EC5"/></g><mask id="mask6_279_1094" style="mask-type:luminance" maskUnits="userSpaceOnUse" x="624" y="615" width="350" height="350"><path d="M634.824 731.086C602.258 821.881 649.36 921.921 740.027 954.534C830.694 987.145 930.594 939.978 963.16 849.183C995.726 758.388 948.626 658.347 857.959 625.735C838.474 618.727 818.578 615.404 798.999 615.404C727.478 615.411 660.392 659.803 634.824 731.086Z" fill="#463EC5"/></mask><g mask="url(#mask6_279_1094)"><path fill-rule="evenodd" clip-rule="evenodd" d="M907.481 722.497L937.916 733.444L927.564 689.855L901.693 680.551L907.481 722.497Z" fill="#463EC5"/></g><mask id="mask7_279_1094" style="mask-type:luminance" maskUnits="userSpaceOnUse" x="624" y="615" width="350" height="350"><path d="M634.824 731.086C602.258 821.881 649.36 921.921 740.027 954.534C830.694 987.145 930.594 939.978 963.16 849.183C995.726 758.388 948.626 658.347 857.959 625.735C838.474 618.727 818.578 615.404 798.999 615.404C727.478 615.411 660.392 659.803 634.824 731.086Z" fill="#463EC5"/></mask><g mask="url(#mask7_279_1094)"><path fill-rule="evenodd" clip-rule="evenodd" d="M743.983 770.349L700.761 754.803L723.268 704.947L766.489 720.494L743.983 770.349Z" fill="#463EC5"/></g><mask id="mask8_279_1094" style="mask-type:luminance" maskUnits="userSpaceOnUse" x="624" y="615" width="350" height="350"><path d="M634.824 731.086C602.258 821.881 649.36 921.921 740.027 954.534C830.694 987.145 930.594 939.978 963.16 849.183C995.726 758.388 948.626 658.347 857.959 625.735C838.474 618.727 818.578 615.404 798.999 615.404C727.478 615.411 660.392 659.803 634.824 731.086Z" fill="#463EC5"/></mask><g mask="url(#mask8_279_1094)"><path fill-rule="evenodd" clip-rule="evenodd" d="M654.292 801.597L612.466 787.282L633.251 730.52L667.348 742.784L654.292 801.597Z" fill="#463EC5"/></g><mask id="mask9_279_1094" style="mask-type:luminance" maskUnits="userSpaceOnUse" x="624" y="615" width="350" height="350"><path d="M634.824 731.086C602.258 821.881 649.36 921.921 740.027 954.534C830.694 987.145 930.594 939.978 963.16 849.183C995.726 758.388 948.626 658.347 857.959 625.735C838.474 618.727 818.578 615.404 798.999 615.404C727.478 615.411 660.392 659.803 634.824 731.086Z" fill="#463EC5"/></mask><g mask="url(#mask9_279_1094)"><path fill-rule="evenodd" clip-rule="evenodd" d="M832.137 695.031L790.464 680.042L815.084 649.956L844.508 660.539L832.137 695.031Z" fill="#463EC5"/></g><mask id="mask10_279_1094" style="mask-type:luminance" maskUnits="userSpaceOnUse" x="624" y="615" width="350" height="350"><path d="M634.824 731.086C602.258 821.881 649.36 921.921 740.027 954.534C830.694 987.145 930.594 939.978 963.16 849.183C995.726 758.388 948.626 658.347 857.959 625.735C838.474 618.727 818.578 615.404 798.999 615.404C727.478 615.411 660.392 659.803 634.824 731.086Z" fill="#463EC5"/></mask><g mask="url(#mask10_279_1094)"><path fill-rule="evenodd" clip-rule="evenodd" d="M813.986 649.56L784.85 639.08L820.781 614.122L849.141 621.643L813.986 649.56Z" fill="#463EC5"/></g><mask id="mask11_279_1094" style="mask-type:luminance" maskUnits="userSpaceOnUse" x="624" y="615" width="350" height="350"><path d="M634.824 731.086C602.258 821.881 649.36 921.921 740.027 954.534C830.694 987.145 930.594 939.978 963.16 849.183C995.726 758.388 948.626 658.347 857.959 625.735C838.474 618.727 818.578 615.404 798.999 615.404C727.478 615.411 660.392 659.803 634.824 731.086Z" fill="#463EC5"/></mask><g mask="url(#mask11_279_1094)"><path fill-rule="evenodd" clip-rule="evenodd" d="M749.69 924.899L721.083 914.281L727.652 949.528L739.595 954.377L749.69 924.899Z" fill="#463EC5"/></g><mask id="mask12_279_1094" style="mask-type:luminance" maskUnits="userSpaceOnUse" x="624" y="615" width="350" height="350"><path d="M634.824 731.086C602.258 821.881 649.36 921.921 740.027 954.534C830.694 987.145 930.594 939.978 963.16 849.183C995.726 758.388 948.626 658.347 857.959 625.735C838.474 618.727 818.578 615.404 798.999 615.404C727.478 615.411 660.392 659.803 634.824 731.086Z" fill="#463EC5"/></mask><g mask="url(#mask12_279_1094)"><path fill-rule="evenodd" clip-rule="evenodd" d="M905.231 770.397L866.824 756.583L869.172 706.554L907.581 720.368L905.231 770.397Z" fill="#463EC5"/></g><mask id="mask13_279_1094" style="mask-type:luminance" maskUnits="userSpaceOnUse" x="624" y="615" width="350" height="350"><path d="M634.824 731.086C602.258 821.881 649.36 921.921 740.027 954.534C830.694 987.145 930.594 939.978 963.16 849.183C995.726 758.388 948.626 658.347 857.959 625.735C838.474 618.727 818.578 615.404 798.999 615.404C727.478 615.411 660.392 659.803 634.824 731.086Z" fill="white"/></mask><g mask="url(#mask13_279_1094)"><path fill-rule="evenodd" clip-rule="evenodd" d="M923.311 834.131L894.384 823.727C900.045 806.826 904.085 789.603 906.531 772.377L933.738 782.163C932.153 799.776 928.683 817.282 923.311 834.131ZM915.286 855.602C910.602 866.39 905.182 876.545 899.088 886.021L870.779 875.839C879.528 860.974 886.911 845.007 892.883 828.07L921.878 838.499C919.904 844.292 917.717 850.004 915.286 855.602ZM865.31 925.672L840.694 916.817C842.722 914.582 844.729 912.316 846.69 909.981C854.61 900.553 861.837 890.492 868.362 879.853L896.481 889.967C887.426 903.348 876.974 915.292 865.31 925.672ZM829.186 950.722L811.041 944.195C820.298 937.111 829.061 929.192 837.307 920.482L861.32 929.119C851.404 937.444 840.664 944.678 829.186 950.722ZM780.661 933.268C787.877 925.379 794.828 916.785 801.474 907.594L832.534 918.766C824.335 927.306 815.433 935.199 805.848 942.328L780.661 933.268ZM752.49 923.136L763.025 893.764L796.986 905.98C790.276 915.177 783.25 923.736 775.963 931.579L752.49 923.136ZM722.663 912.407C722.02 901.699 722.031 890.612 722.677 879.251L758.706 892.211L748.171 921.583L722.663 912.407ZM694.06 902.12C690.944 890.406 688.874 878.565 687.766 866.695L718.182 877.635C717.49 888.955 717.414 900.017 717.974 910.721L694.06 902.12ZM671.309 893.937C665.985 881.852 661.999 869.33 659.403 856.493L683.161 865.039C684.154 877.065 686.072 888.822 688.913 900.268L671.309 893.937ZM656.433 803.625L684.431 813.696C682.879 825.591 682.191 837.502 682.377 849.381C682.433 852.952 682.585 856.498 682.799 860.026L658.424 851.258C655.752 835.727 655.082 819.774 656.433 803.625ZM663.749 764.046C665.337 758.507 667.157 753.024 669.188 747.609L698.1 758.009C691.996 774.888 687.649 791.947 685.093 809.051L656.891 798.908C658.139 787.346 660.408 775.698 663.749 764.046ZM695.959 696.637L722.992 706.36C713.857 721.202 706.014 737.062 699.69 753.698L670.844 743.323C677.382 726.923 685.881 711.215 695.959 696.637ZM728.002 659.109L751.79 667.665C742.203 678.389 733.394 690.01 725.492 702.377L698.71 692.744C707.454 680.609 717.295 669.309 728.002 659.109ZM761.07 632.968L780.664 640.017C771.691 647.335 763.161 655.353 755.142 663.988L731.777 655.584C740.989 647.184 750.802 639.596 761.07 632.968ZM810.792 650.852C803.635 658.585 796.656 667.173 789.936 676.503L760.149 665.788C768.253 657.154 776.86 649.153 785.889 641.896L810.792 650.852ZM830.803 691.201L794.406 678.11C801.196 668.766 808.246 660.2 815.468 652.535L841.335 661.839L830.803 691.201ZM869.848 672.095C870.416 682.593 870.306 693.651 869.528 705.13L835.122 692.755L845.654 663.392L869.848 672.095ZM899.542 682.775C901.711 694.049 903.105 705.647 903.728 717.432L874.002 706.739C874.822 695.314 874.998 684.28 874.516 673.774L899.542 682.775ZM924.861 691.881C928.398 703.484 930.996 715.531 932.635 727.829L908.99 719.324C908.392 707.589 907.032 696.011 904.895 684.7L924.861 691.881ZM867.44 753.433C870.383 739.086 872.448 725.03 873.621 711.485L903.943 722.392C904.436 736.734 903.806 751.313 902.047 765.881L867.44 753.433ZM852.169 808.543C853.222 805.528 854.256 802.499 855.25 799.441C859.778 785.505 863.517 771.621 866.481 757.971L901.441 770.546C899.061 787.898 895.093 805.188 889.547 821.987L852.169 808.543ZM829.774 861.091C837.544 845.893 844.55 829.752 850.642 812.876L888.081 826.343C882.3 842.945 874.957 859.019 866.085 874.151L829.774 861.091ZM827.634 865.203L863.677 878.167C855.623 891.342 846.386 903.758 835.96 915.115L804.242 903.707C812.594 891.788 820.426 878.899 827.634 865.203ZM779.481 847.883L823.279 863.638C816.038 877.343 808.171 890.224 799.779 902.102L764.576 889.439L779.481 847.883ZM729.201 829.798L775.163 846.33L760.257 887.886L722.981 874.479C724.03 859.938 726.112 844.977 729.201 829.798ZM740.267 773.176C734.266 790.057 729.438 806.984 725.801 823.693L689.414 810.605C692.002 793.203 696.441 776.087 702.478 759.584L740.267 773.176ZM762.95 720.732C756.273 733.642 750.104 747.31 744.575 761.562C743.632 763.99 742.721 766.422 741.827 768.854L704.103 755.286C710.46 738.778 718.412 722.924 727.696 708.052L762.95 720.732ZM765.113 716.628L730.221 704.078C738.204 691.758 747.102 680.15 756.767 669.455L787.176 680.393C779.401 691.541 772.004 703.683 765.113 716.628ZM815.219 734.651L769.466 718.194C776.391 705.231 783.824 693.098 791.629 681.995L829.252 695.526L815.219 734.651ZM819.538 736.204L833.571 697.079L869.169 709.884C868.046 723.415 866.012 737.485 863.083 751.867L819.538 736.204ZM798.734 794.205L846.322 811.323C840.227 828.211 833.213 844.355 825.429 859.528L781.032 843.559L798.734 794.205ZM746.146 770.408C747.026 768.013 747.924 765.618 748.852 763.226C754.403 748.921 760.6 735.219 767.304 722.299L813.668 738.975L795.967 788.328L746.146 770.408ZM794.415 792.652L776.714 842.005L730.15 825.257C733.758 808.556 738.58 791.624 744.585 774.73L794.415 792.652ZM847.85 806.99L800.286 789.881L817.987 740.529L862.133 756.408C859.179 770.09 855.434 784.024 850.886 798.019C849.906 801.033 848.887 804.018 847.85 806.99ZM688.776 815.259L724.842 828.231C721.735 843.38 719.619 858.325 718.512 872.871L687.358 861.665C686.263 846.146 686.792 830.604 688.776 815.259ZM934.127 777.42L907.156 767.718C908.98 753.155 909.655 738.612 909.191 724.28L933.275 732.942C934.903 747.577 935.181 762.516 934.127 777.42ZM973.462 796.451L975.013 792.126L938.683 779.058C939.36 770.211 939.578 761.305 939.314 752.396C939.136 746.436 938.725 740.533 938.129 734.688L968.598 745.647L970.148 741.322L937.555 729.599C936.037 717.312 933.61 705.336 930.285 693.833L948.456 700.369L950.007 696.044L928.612 688.349C924.568 675.623 919.434 663.512 913.241 652.246L909.221 654.464C914.745 664.51 919.357 675.213 923.095 686.364L903.843 679.439C900.577 664.006 895.862 649.109 889.701 635.027L885.497 636.873C891.09 649.652 895.4 663.298 898.468 677.506L874.239 668.791C873.083 651.493 870.092 635.737 865.225 622.174L860.906 623.728C865.45 636.387 868.303 651.035 869.523 667.095L847.204 659.067L859.655 624.356L855.336 622.802L842.886 657.514L818.963 648.909C829.366 638.366 840.086 629.7 850.863 623.288L848.519 619.337C836.913 626.241 825.384 635.687 814.238 647.21L790.155 638.548C801.018 630.22 812.442 622.95 824.299 616.948L822.228 612.846C809.163 619.461 796.668 627.466 784.883 636.651L766.024 629.868C775.385 624.19 785.093 619.309 795.052 615.35L793.359 611.078C782.074 615.564 771.049 621.198 760.439 627.859L743.522 621.775L741.97 626.099L755.588 630.997C745.532 637.691 735.879 645.316 726.768 653.782L697.856 643.383L696.305 647.708L723.041 657.324C718.6 661.632 714.295 666.137 710.146 670.837C704.43 677.312 699.079 684.083 694.102 691.087L658.43 678.255L656.879 682.58L691.396 694.996C681.347 709.736 672.977 725.467 666.522 741.768L633.958 730.056L632.407 734.38L664.869 746.056C662.809 751.578 660.949 757.154 659.337 762.777C656.031 774.316 653.74 785.851 652.439 797.306L624.303 787.186L622.752 791.511L651.954 802.014C650.507 818.09 651.04 833.983 653.487 849.482L629.127 840.721L627.576 845.045L654.384 854.688C656.757 867.389 660.438 879.803 665.406 891.813L653.725 887.612L652.174 891.937L667.907 897.595C673.412 909.74 680.245 921.444 688.412 932.57L692.109 929.847C685.057 920.241 679.032 910.189 674.012 899.792L690.32 905.657C693.965 918.872 698.84 931.66 704.957 943.946L709.064 941.895C703.467 930.655 699.002 919.172 695.577 907.548L718.289 915.718C719.274 929.481 721.317 942.626 724.464 954.925L728.909 953.786C725.984 942.348 724.028 930.164 723.008 917.415L746.62 925.908L736.225 954.89L740.544 956.443L750.939 927.461L772.514 935.221C763.794 944.234 754.728 952.233 745.397 959.05L748.101 962.763C758.153 955.419 767.902 946.744 777.243 936.922L801.334 945.587C790.752 953.025 779.38 959.555 767.196 964.982L769.061 969.182C782.296 963.286 794.831 956.03 806.614 947.486L823.545 953.576C812.304 959.007 800.405 963.339 787.93 966.491L789.053 970.948C803.32 967.342 816.846 962.224 829.523 955.727L850.788 963.375L852.34 959.05L834.997 952.813C846.176 946.604 856.646 939.28 866.322 930.919L894.268 940.97L895.819 936.646L870.23 927.441C881.708 916.952 891.991 904.945 900.93 891.568L935.572 904.027L937.123 899.702L903.515 887.614C909.509 878.187 914.857 868.117 919.494 857.435C921.959 851.759 924.189 845.955 926.207 840.056L962.931 853.265L964.482 848.941L927.644 835.69C932.999 818.988 936.568 801.535 938.262 783.79L973.462 796.451Z" fill="white"/></g><path fill-rule="evenodd" clip-rule="evenodd" d="M558.985 683.372L563.725 696.418C566.304 701.701 570.182 706.045 574.899 708.935L586.898 714.244L574.899 719.553C570.182 722.442 566.304 726.786 563.725 732.069L558.985 745.115L554.245 732.069C551.666 726.786 547.787 722.442 543.071 719.553L531.071 714.244L543.071 708.935C547.787 706.045 551.666 701.701 554.245 696.418L558.985 683.372Z" fill="#F7931E"/><path fill-rule="evenodd" clip-rule="evenodd" d="M986.272 675.619L993.825 696.411C997.936 704.831 1004.12 711.753 1011.63 716.358L1030.76 724.819L1011.63 733.281C1004.12 737.886 997.936 744.808 993.825 753.228L986.272 774.02L978.718 753.228C974.607 744.808 968.427 737.886 960.911 733.281L941.786 724.819L960.911 716.358C968.427 711.753 974.607 704.831 978.718 696.411L986.272 675.619Z" fill="#F7931E"/><path fill-rule="evenodd" clip-rule="evenodd" d="M783.269 975.28L786.702 984.729C788.569 988.556 791.379 991.702 794.794 993.795L803.485 997.64L794.794 1001.49C791.379 1003.58 788.569 1006.72 786.702 1010.55L783.269 1020L779.835 1010.55C777.968 1006.72 775.159 1003.58 771.743 1001.49L763.052 997.64L771.743 993.795C775.159 991.702 777.968 988.556 779.835 984.729L783.269 975.28Z" fill="#F7931E"/><path fill-rule="evenodd" clip-rule="evenodd" d="M744.679 401.642L747.35 408.995C748.805 411.972 750.99 414.42 753.648 416.048L760.411 419.04L753.648 422.033C750.99 423.661 748.805 426.11 747.35 429.087L744.679 436.439L742.008 429.087C740.554 426.11 738.368 423.661 735.711 422.033L728.947 419.04L735.711 416.048C738.368 414.42 740.554 411.972 742.008 408.995L744.679 401.642Z" fill="#F7931E"/><path fill-rule="evenodd" clip-rule="evenodd" d="M1082.69 351.118L1084.61 356.402C1085.66 358.542 1087.23 360.302 1089.14 361.473L1094 363.623L1089.14 365.773C1087.23 366.944 1085.66 368.703 1084.61 370.844L1082.69 376.128L1080.77 370.844C1079.73 368.703 1078.16 366.944 1076.25 365.773L1071.39 363.623L1076.25 361.473C1078.16 360.302 1079.73 358.542 1080.77 356.402L1082.69 351.118Z" fill="#F7931E"/><path fill-rule="evenodd" clip-rule="evenodd" d="M994.061 499.341L1050.92 649.285L1073.57 643.15L1023.5 457.184L994.061 499.341Z" fill="#F5836D"/><path fill-rule="evenodd" clip-rule="evenodd" d="M1050.84 643.723L1049.57 668.914L1080.69 662.241L1072.14 638.48L1050.84 643.723Z" fill="#F5836D"/><path fill-rule="evenodd" clip-rule="evenodd" d="M1045.81 688.575C1048.23 689.665 1051.07 688.585 1052.16 686.165L1063.98 659.864L1055.22 655.918L1043.4 682.219C1042.31 684.639 1043.39 687.486 1045.81 688.575Z" fill="#F5836D"/><path fill-rule="evenodd" clip-rule="evenodd" d="M1052.61 706.913C1054.6 708.669 1057.63 708.479 1059.39 706.488L1073.4 690.576L1066.2 684.217L1052.19 700.129C1050.43 702.12 1050.63 705.158 1052.61 706.913Z" fill="#F5836D"/><path fill-rule="evenodd" clip-rule="evenodd" d="M1050.94 702.19C1053.16 703.631 1056.13 702.99 1057.57 700.76L1069.07 682.938L1061 677.722L1049.51 695.544C1048.07 697.774 1048.71 700.749 1050.94 702.19Z" fill="#F5836D"/><path fill-rule="evenodd" clip-rule="evenodd" d="M1080.66 661.623L1071.35 659.271L1064.04 688.235L1073.35 690.589L1080.66 661.623Z" fill="#F5836D"/><path fill-rule="evenodd" clip-rule="evenodd" d="M1076.26 660.341L1067.09 657.477L1058.21 685.994L1067.37 688.858L1076.26 660.341Z" fill="#F5836D"/><path fill-rule="evenodd" clip-rule="evenodd" d="M1057.25 674.915C1057.25 674.915 1058.7 670.72 1059.33 669.452C1060.65 666.822 1063.53 668.282 1062.88 670.676C1062.46 672.21 1060.8 677.188 1059.79 680.921C1065.19 674.031 1075.66 664.524 1075.66 664.524L1056.85 661.194L1057.25 674.915Z" fill="#F5836D"/><path fill-rule="evenodd" clip-rule="evenodd" d="M889.113 532.052L908.598 412.304L1022.17 453.155L1004.07 576.649L889.113 532.052Z" fill="#D8CBC5"/><path fill-rule="evenodd" clip-rule="evenodd" d="M888.738 419.042L845.454 479.97C839.722 487.705 840.889 498.551 848.133 504.886C855.737 511.535 867.264 510.827 874 503.298L932.744 434.357L888.738 419.042Z" fill="#F5836D"/><path fill-rule="evenodd" clip-rule="evenodd" d="M926.228 427.255C919.042 412.823 901.533 406.958 887.122 414.154C872.709 421.35 866.852 438.883 874.038 453.315C881.224 467.747 910.744 478.978 910.744 478.978C910.744 478.978 933.414 441.687 926.228 427.255Z" fill="#D8CBC5"/><path fill-rule="evenodd" clip-rule="evenodd" d="M861.421 618.408C861.159 618.408 860.894 618.364 860.634 618.27C859.425 617.836 858.797 616.501 859.231 615.291L1019.23 181.543C1019.66 180.333 1021 179.702 1022.2 180.138C1023.41 180.573 1024.04 181.908 1023.61 183.118L863.61 616.865C863.27 617.816 862.375 618.408 861.421 618.408Z" fill="#232144"/><path fill-rule="evenodd" clip-rule="evenodd" d="M1038.03 492.219C1044.6 477.494 1038.01 460.226 1023.3 453.649C1008.6 447.073 991.354 453.677 984.787 468.402C978.22 483.127 988.304 513.093 988.304 513.093C988.304 513.093 1031.47 506.944 1038.03 492.219Z" fill="#D8CBC5"/><path fill-rule="evenodd" clip-rule="evenodd" d="M953.857 407.529L995.243 411.568L983.778 444.867C980.701 453.804 970.971 458.551 962.046 455.47L956.035 453.395C947.083 450.304 942.346 440.515 945.47 431.563L953.857 407.529Z" fill="#F5836D"/><path fill-rule="evenodd" clip-rule="evenodd" d="M999.057 408.943L1010.64 375.29C1015.11 362.325 1008.23 348.193 995.287 343.723L970.825 335.277C962.225 332.307 952.851 336.881 949.886 345.493L931.464 398.994C929.276 405.349 932.646 412.277 938.992 414.468L967.534 424.323C980.481 428.793 994.593 421.907 999.057 408.943Z" fill="#F5836D"/><path fill-rule="evenodd" clip-rule="evenodd" d="M932.696 377.391C933.772 374.268 942.535 370.117 942.535 370.117L938.708 385.16C938.708 385.16 931.621 380.514 932.696 377.391Z" fill="#F5836D"/><path fill-rule="evenodd" clip-rule="evenodd" d="M1008.71 346.58L967.987 331.367C960.888 328.914 953.159 332.575 950.514 339.559C948.733 344.261 949.977 349.483 953.187 353.351C960.483 362.146 971.384 357.235 971.384 357.235L971.775 359.239L971.663 359.199C971.663 359.199 971.752 359.378 971.867 359.716L972.279 361.837C972.33 362.099 972.367 362.356 972.383 362.621C972.502 364.702 972.228 367.71 970.727 371.609C963.803 389.594 962.179 395.216 972.722 408.305C978.665 415.682 995.683 421.144 995.683 421.144L1021.92 377.536L1021.7 377.456C1028.06 365.416 1021.9 351.136 1008.71 346.58Z" fill="#191414"/><path fill-rule="evenodd" clip-rule="evenodd" d="M962.945 383.118C964.497 378.612 969.403 376.218 973.904 377.772C978.405 379.326 980.796 384.239 979.244 388.746C977.692 393.254 972.785 395.647 968.284 394.092C963.784 392.539 961.393 387.625 962.945 383.118Z" fill="#F5836D"/><path fill-rule="evenodd" clip-rule="evenodd" d="M955.273 373.922C955.273 373.922 951.08 377.601 944.869 375.445C942.149 374.501 944.87 367.177 947.579 368.151C950.288 369.126 955.273 373.922 955.273 373.922Z" fill="white"/><path fill-rule="evenodd" clip-rule="evenodd" d="M944.783 375.415C945.927 375.88 947.478 374.631 948.251 372.625C949.023 370.619 948.723 368.616 947.579 368.152C946.437 367.687 944.886 368.937 944.114 370.942C943.341 372.948 943.64 374.951 944.783 375.415Z" fill="#161615"/><path fill-rule="evenodd" clip-rule="evenodd" d="M946.03 368.587L946.397 367.654C946.397 367.654 952.599 368.303 957.296 372.764L955.173 373.981C955.173 373.981 951.745 370.636 946.03 368.587Z" fill="#161615"/><path fill-rule="evenodd" clip-rule="evenodd" d="M953.857 360.917L962.236 368.474L946.428 362.789C947.536 359.698 951.42 358.72 953.857 360.917Z" fill="#191414"/><path fill-rule="evenodd" clip-rule="evenodd" d="M934.935 389.045C935.306 387.996 936.459 387.45 937.505 387.826L946.732 391.144C946.783 390.85 939.86 396.119 933.504 394.437C933.375 394.402 933.246 394.365 933.117 394.325C933.007 394.291 934.935 389.045 934.935 389.045Z" fill="#891229"/><path fill-rule="evenodd" clip-rule="evenodd" d="M1040.5 447.814C1033.42 467.537 1011.72 477.782 992.028 470.698C972.333 463.614 962.102 441.883 969.176 422.162C976.25 402.44 997.95 392.194 1017.64 399.278C1037.34 406.362 1047.57 428.092 1040.5 447.814Z" fill="#191414"/><path fill-rule="evenodd" clip-rule="evenodd" d="M1050.06 502.165C1044.95 516.4 1029.29 523.794 1015.08 518.681C1000.86 513.569 993.48 497.885 998.585 483.651C1003.69 469.417 1019.35 462.023 1033.57 467.135C1047.78 472.248 1055.16 487.931 1050.06 502.165Z" fill="#191414"/><path fill-rule="evenodd" clip-rule="evenodd" d="M874.073 624.348C871.33 632 862.91 635.974 855.269 633.226C847.629 630.478 843.66 622.048 846.405 614.396C849.149 606.745 857.567 602.77 865.208 605.518C872.848 608.267 876.817 616.697 874.073 624.348Z" stroke="#232144" stroke-width="4.482"/><path fill-rule="evenodd" clip-rule="evenodd" d="M1061.64 539.472C1057.73 550.357 1045.76 556.013 1034.89 552.103C1024.02 548.193 1018.37 536.198 1022.27 525.312C1026.18 514.426 1038.16 508.772 1049.03 512.682C1059.9 516.592 1065.54 528.586 1061.64 539.472Z" fill="#191414"/><path fill-rule="evenodd" clip-rule="evenodd" d="M716.525 754.82C716.525 754.82 758.286 772.73 758.267 772.887C755.762 793.457 747.987 806.254 749.55 823.104C749.956 822.466 713.426 817.411 712.934 817.998C716.293 812.518 716.525 754.82 716.525 754.82Z" fill="#FFA28F"/><path fill-rule="evenodd" clip-rule="evenodd" d="M658.121 861.776C658.121 861.776 655.243 849.053 665.023 847.988C677.878 846.587 691.25 843.355 696.682 837.899C709.949 824.577 712.697 805.467 712.697 805.467L752.434 810.8L746.742 838.851L742.635 874.949L731.288 873.179C731.288 873.179 733.143 861.885 733.728 858.114C734.425 853.637 727.508 853.242 726.922 857.012C726.335 860.792 724.597 872.137 724.597 872.137L658.121 861.776Z" fill="#E73245"/><path fill-rule="evenodd" clip-rule="evenodd" d="M974.097 565.01L894.163 534.083L879.021 553.631C863.2 552.15 851.806 551.145 851.806 551.145C851.806 551.145 770.789 540.164 745.437 539.24C720.305 538.325 713.792 567.445 710.703 600.264C704.098 670.423 708.706 781.176 708.706 781.176L827.58 826.163C827.58 826.163 870.983 760.896 844.059 701.491C833.765 678.776 787.549 628.231 787.549 628.231C787.549 628.231 830.841 635.144 860.112 645.434C872.353 649.738 908.744 654.434 910.679 654.736C938.49 659.086 983.965 637.175 974.097 565.01Z" fill="#E73245"/><path fill-rule="evenodd" clip-rule="evenodd" d="M864.256 509.764L942.269 501.663L944.241 478.448L863.001 472.678C851.823 472.077 842.651 481.428 843.453 492.61C844.214 503.232 853.7 511.053 864.256 509.764Z" fill="#F5836D"/><path fill-rule="evenodd" clip-rule="evenodd" d="M933.688 499.694L955.698 507.499L959.232 477.977L935.768 478.005L933.688 499.694Z" fill="#F5836D"/><path fill-rule="evenodd" clip-rule="evenodd" d="M974.919 516.081C976.797 514.388 976.95 511.492 975.26 509.611L958.806 491.294C957.754 490.124 955.954 490.029 954.786 491.082L951.146 494.361C950.568 494.882 950.521 495.773 951.04 496.351L968.458 515.739C970.147 517.62 973.041 517.773 974.919 516.081Z" fill="#F5836D"/><path fill-rule="evenodd" clip-rule="evenodd" d="M972.52 519.487C974.398 517.795 974.552 514.898 972.862 513.018L956.407 494.701C955.356 493.53 953.555 493.436 952.388 494.489L948.747 497.768C948.17 498.288 948.123 499.179 948.642 499.757L966.06 519.145C967.749 521.027 970.642 521.179 972.52 519.487Z" fill="#F5836D"/><path fill-rule="evenodd" clip-rule="evenodd" d="M990.595 517.901C992.813 516.69 993.631 513.908 992.423 511.686L982.761 493.931L974.727 498.316L984.389 516.07C985.597 518.292 988.376 519.112 990.595 517.901Z" fill="#F5836D"/><path fill-rule="evenodd" clip-rule="evenodd" d="M985.823 517.867C987.837 516.339 988.234 513.466 986.708 511.448L974.517 495.33L967.223 500.862L979.414 516.981C980.94 518.998 983.809 519.394 985.823 517.867Z" fill="#F5836D"/><path fill-rule="evenodd" clip-rule="evenodd" d="M959.233 477.976L954.094 485.556L977.618 501.547L982.762 493.916L959.233 477.976Z" fill="#F5836D"/><path fill-rule="evenodd" clip-rule="evenodd" d="M956.65 481.516L951.102 488.801L973.708 506.067L979.256 498.781L956.65 481.516Z" fill="#F5836D"/><path fill-rule="evenodd" clip-rule="evenodd" d="M976.225 514.765C978.149 513.127 978.384 510.236 976.747 508.307L963.669 492.901L956.698 498.835L969.776 514.242C971.413 516.17 974.3 516.404 976.225 514.765Z" fill="#F5836D"/><path fill-rule="evenodd" clip-rule="evenodd" d="M945.055 480.116L939.925 487.703L963.466 503.667L968.596 496.08L945.055 480.116Z" fill="#F5836D"/></svg>