<svg viewBox="0 0 1600 1200" fill="none" xmlns="http://www.w3.org/2000/svg"><path fill-rule="evenodd" clip-rule="evenodd" d="M322 1020H1204.28V1011.48H322V1020Z" fill="#E6F0FF"/><path fill-rule="evenodd" clip-rule="evenodd" d="M908.963 997.798L832.505 914.562L844.203 903.809L920.661 987.044L908.963 997.798Z" fill="#B0C2E4"/><path fill-rule="evenodd" clip-rule="evenodd" d="M802.554 914.562L726.097 997.798L714.398 987.044L790.856 903.809L802.554 914.562Z" fill="#B0C2E4"/><path fill-rule="evenodd" clip-rule="evenodd" d="M935.425 992.059C935.425 1002.83 926.7 1011.56 915.936 1011.56C905.172 1011.56 896.446 1002.83 896.446 992.059C896.446 981.292 905.172 972.562 915.936 972.562C926.7 972.562 935.425 981.292 935.425 992.059Z" fill="#B0C2E4"/><path fill-rule="evenodd" clip-rule="evenodd" d="M740.111 992.059C740.111 1002.83 731.386 1011.56 720.622 1011.56C709.859 1011.56 701.133 1002.83 701.133 992.059C701.133 981.292 709.859 972.562 720.622 972.562C731.386 972.562 740.111 981.292 740.111 992.059Z" fill="#B0C2E4"/><path fill-rule="evenodd" clip-rule="evenodd" d="M920.333 719.141H730.934C718.747 719.141 708.867 729.024 708.867 741.215C708.867 753.406 718.747 763.29 730.934 763.29H920.333C932.519 763.29 942.398 753.406 942.398 741.215C942.398 729.024 932.519 719.141 920.333 719.141Z" fill="#B0C2E4"/><path fill-rule="evenodd" clip-rule="evenodd" d="M685.5 833.996L628.386 938.231C622.667 948.668 609.189 951.886 599.375 945.156L544.995 907.867L565.983 879.07L592.219 884.987L635.234 789.004L685.5 833.996Z" fill="#FFA28F"/><path fill-rule="evenodd" clip-rule="evenodd" d="M631.66 1011.48H764.998V998.711H631.66V1011.48Z" fill="#F7931E"/><path fill-rule="evenodd" clip-rule="evenodd" d="M785.879 1011.48H865.764V998.711H785.879V1011.48Z" fill="#F7931E"/><path fill-rule="evenodd" clip-rule="evenodd" d="M674.524 961.795C674.524 970.356 667.586 977.296 659.028 977.296C650.47 977.296 643.532 970.356 643.532 961.795C643.532 953.233 650.47 946.293 659.028 946.293C667.586 946.293 674.524 953.233 674.524 961.795Z" fill="#232144"/><path fill-rule="evenodd" clip-rule="evenodd" d="M668.13 865.7L628.386 938.233C622.667 948.671 609.189 951.888 599.375 945.158L544.995 907.87L565.983 879.073L592.219 884.99L614.546 835.168L668.13 865.7Z" fill="#232144"/><path fill-rule="evenodd" clip-rule="evenodd" d="M703.371 961.793L632.921 984.864C630.044 985.849 628.112 988.555 628.112 991.596C628.112 995.527 631.297 998.713 635.227 998.713H703.371V961.793Z" fill="#FBB03B"/><path d="M636.001 924.341C632.935 922.081 629.147 920.746 625.048 920.746C614.839 920.746 606.562 929.024 606.562 939.238C606.562 942.664 607.494 945.873 609.118 948.625C616.733 949.235 624.423 945.47 628.387 938.236L636.001 924.341Z" fill="#FFA28F"/><path fill-rule="evenodd" clip-rule="evenodd" d="M790.109 935.232L802.852 990.722L860.407 983.448L849.327 924.734L790.109 935.232Z" fill="#FFA28F"/><path fill-rule="evenodd" clip-rule="evenodd" d="M730.901 732.199L784.556 951.159L864.254 946.293L808.953 665.52L730.901 732.199Z" fill="#F7931E"/><path fill-rule="evenodd" clip-rule="evenodd" d="M779.535 701.563L726.486 879.074L628.307 797.978L705.405 623.383H901.228C927.348 645.38 930.764 688.158 930.764 688.158C930.764 723.206 902.364 751.617 867.33 751.617L779.535 701.563Z" fill="#FBB03B"/><path fill-rule="evenodd" clip-rule="evenodd" d="M685.5 477.101C685.5 497.094 701.702 513.303 721.688 513.303C741.674 513.303 757.877 497.094 757.877 477.101C757.877 457.107 741.674 440.898 721.688 440.898C701.702 440.898 685.5 457.107 685.5 477.101Z" fill="#232144"/><path fill-rule="evenodd" clip-rule="evenodd" d="M858.405 477.101C858.405 497.094 874.608 513.303 894.594 513.303C914.58 513.303 930.782 497.094 930.782 477.101C930.782 457.107 914.58 440.898 894.594 440.898C874.608 440.898 858.405 457.107 858.405 477.101Z" fill="#232144"/><path fill-rule="evenodd" clip-rule="evenodd" d="M898.996 560.744H710.655L721.689 440.898H894.593L898.996 560.744Z" fill="#232144"/><path fill-rule="evenodd" clip-rule="evenodd" d="M697.089 609.742H948.152V555.621H697.089V609.742Z" fill="#232144"/><path fill-rule="evenodd" clip-rule="evenodd" d="M761.896 461.312H692.935L644.529 556.314C634.796 577.015 649.895 600.813 672.763 600.813C684.853 600.813 695.854 593.828 700.999 582.884L761.896 461.312Z" fill="#232144"/><path fill-rule="evenodd" clip-rule="evenodd" d="M858.111 461.312H927.073L977.749 565.401C987.482 586.102 972.384 609.9 949.515 609.9C937.426 609.9 926.426 602.915 921.281 591.971L858.111 461.312Z" fill="#232144"/><path fill-rule="evenodd" clip-rule="evenodd" d="M927.297 598.559C941.99 602.572 957.152 593.909 961.163 579.211C965.174 564.513 956.516 549.345 941.822 545.332L866.606 533.992V582.682L927.297 598.559Z" fill="#FFA28F"/><path fill-rule="evenodd" clip-rule="evenodd" d="M768.133 436.29H859.263V346.555H768.133V436.29Z" fill="#76341E"/><path fill-rule="evenodd" clip-rule="evenodd" d="M866.072 375.889C866.072 382.612 860.623 388.062 853.903 388.062C847.182 388.062 841.733 382.612 841.733 375.889C841.733 369.165 847.182 363.715 853.903 363.715C860.623 363.715 866.072 369.165 866.072 375.889Z" fill="#FFD4C2"/><path fill-rule="evenodd" clip-rule="evenodd" d="M783.498 375.853C783.498 382.577 778.05 388.027 771.329 388.027C764.609 388.027 759.16 382.577 759.16 375.853C759.16 369.13 764.609 363.68 771.329 363.68C778.05 363.68 783.498 369.13 783.498 375.853Z" fill="#FFD4C2"/><path fill-rule="evenodd" clip-rule="evenodd" d="M782.581 444.202V405.184L842.708 405.276V444.202C842.708 460.812 829.248 474.277 812.644 474.277C796.041 474.277 782.581 460.812 782.581 444.202Z" fill="#F5836D"/><path fill-rule="evenodd" clip-rule="evenodd" d="M772.795 399.532V343.39C772.795 325.644 787.175 311.258 804.915 311.258H820.373C838.112 311.258 852.493 325.644 852.493 343.39V399.532C852.493 417.278 838.112 431.664 820.373 431.664H804.915C787.175 431.664 772.795 417.278 772.795 399.532Z" fill="#FFA28F"/><path fill-rule="evenodd" clip-rule="evenodd" d="M802.856 394.28C802.856 394.28 802.857 394.279 802.22 393.798C801.583 393.316 801.583 393.315 801.583 393.315L801.584 393.314L801.585 393.313L801.588 393.309L801.597 393.297C801.605 393.287 801.615 393.274 801.627 393.258C801.653 393.227 801.688 393.184 801.733 393.132C801.823 393.028 801.952 392.886 802.116 392.726C802.441 392.411 802.921 392.008 803.519 391.696C804.119 391.383 804.869 391.147 805.711 391.215C806.565 391.284 807.435 391.659 808.273 392.433L808.273 392.434C809.193 393.286 810.249 393.913 811.399 394.146L811.4 394.146C812.349 394.338 813.381 394.323 814.327 393.837C814.699 393.642 815.044 393.362 815.365 393.018C815.752 392.596 816.65 391.763 817.96 391.487C819.335 391.198 820.982 391.561 822.736 393.216L821.64 394.379C820.195 393.014 819.062 392.889 818.288 393.051C817.452 393.227 816.832 393.782 816.54 394.101L816.536 394.105L816.536 394.105C816.122 394.549 815.635 394.957 815.063 395.255L815.06 395.257L815.06 395.257C813.687 395.963 812.255 395.949 811.083 395.712M802.856 394.28L802.856 394.28L802.855 394.282L802.855 394.281L802.856 394.28Z" fill="#171111"/><path fill-rule="evenodd" clip-rule="evenodd" d="M832.33 356.18L832.821 356.181C837.934 356.206 842.738 358.759 845.798 363.08L819.285 362.956C822.394 358.663 827.217 356.155 832.33 356.18Z" fill="#76341E"/><path fill-rule="evenodd" clip-rule="evenodd" d="M821.654 378.907C821.654 378.907 824.562 372.675 830.146 370.734C835.728 368.794 841.873 371.881 841.873 371.881C841.873 371.881 839.64 376.964 834.056 378.904C828.474 380.844 821.654 378.907 821.654 378.907Z" fill="white"/><path fill-rule="evenodd" clip-rule="evenodd" d="M826.932 374.834C826.932 377.504 829.095 379.668 831.764 379.668C834.432 379.668 836.596 377.504 836.596 374.834C836.596 372.164 834.432 370 831.764 370C829.095 370 826.932 372.164 826.932 374.834Z" fill="black"/><path fill-rule="evenodd" clip-rule="evenodd" d="M821.654 378.904C823.095 368.938 835.688 364.681 843.431 369.362C842.955 370.121 842.05 371.662 841.575 372.421C839.862 371.386 830.973 367.792 822.896 377.476C822.407 378.064 822.344 378.311 821.654 378.904Z" fill="black"/><path fill-rule="evenodd" clip-rule="evenodd" d="M790.851 356.18L790.36 356.181C785.248 356.206 780.443 358.759 777.383 363.08L803.896 362.956C800.787 358.663 795.964 356.155 790.851 356.18Z" fill="#76341E"/><path fill-rule="evenodd" clip-rule="evenodd" d="M802.229 378.814C802.229 378.814 799.321 372.581 793.737 370.64C788.155 368.7 782.01 371.787 782.01 371.787C782.01 371.787 784.243 376.87 789.827 378.811C795.409 380.75 802.229 378.814 802.229 378.814Z" fill="white"/><path fill-rule="evenodd" clip-rule="evenodd" d="M796.173 374.393C796.173 377.062 794.009 379.227 791.341 379.227C788.672 379.227 786.509 377.062 786.509 374.393C786.509 371.723 788.672 369.559 791.341 369.559C794.009 369.559 796.173 371.723 796.173 374.393Z" fill="black"/><path fill-rule="evenodd" clip-rule="evenodd" d="M802.23 378.806C800.789 368.84 788.196 364.583 780.453 369.265C780.929 370.024 781.834 371.564 782.309 372.323C784.022 371.289 792.911 367.695 800.988 377.379C801.477 377.966 801.54 378.214 802.23 378.806Z" fill="black"/><path fill-rule="evenodd" clip-rule="evenodd" d="M859.263 342.753C859.263 323.54 843.694 307.965 824.488 307.965H802.908C783.702 307.965 768.133 323.54 768.133 342.753V346.998V358.542V360.275V379.261V418.296H774.307V379.261H774.352V362.807C774.352 361.954 774.395 361.111 774.459 360.275H786.342C804.411 360.275 819.93 349.387 826.723 333.815C828.543 343.271 836.847 350.417 846.83 350.417H850.592C851.428 352.438 852.06 354.565 852.476 356.771V410.172H859.244V379.261H859.263V342.753Z" fill="#76341E"/><path fill-rule="evenodd" clip-rule="evenodd" d="M870.646 688.16H812.6L825.821 751.23H870.646V688.16Z" fill="#FBB03B"/><path fill-rule="evenodd" clip-rule="evenodd" d="M865.764 998.715C865.764 981.85 847.881 968.18 825.822 968.18C803.762 968.18 785.879 981.85 785.879 998.715" fill="#FBB03B"/><path fill-rule="evenodd" clip-rule="evenodd" d="M718.756 439.021L692.259 424.719L682.489 456.235L649.18 557.475C645.438 572.244 654.373 587.251 669.137 590.994C683.9 594.738 698.901 585.799 702.643 571.03L707.272 509.204L718.756 439.021Z" fill="#FFA28F"/><path fill-rule="evenodd" clip-rule="evenodd" d="M841.317 961.795C841.317 970.356 834.38 977.296 825.822 977.296C817.264 977.296 810.326 970.356 810.326 961.795C810.326 953.233 817.264 946.293 825.822 946.293C834.38 946.293 841.317 953.233 841.317 961.795Z" fill="#232144"/><path fill-rule="evenodd" clip-rule="evenodd" d="M816.408 406.229C816.165 404.664 814.613 404.18 813.243 404.064C812.018 403.959 810.798 404.33 809.814 405.071L802.855 410.306C802.855 410.306 818.391 425.684 830.094 406.062L822.076 403.218C820.672 402.721 819.099 402.833 817.83 403.614C816.939 404.16 816.216 404.993 816.408 406.229Z" fill="#E73245"/><path fill-rule="evenodd" clip-rule="evenodd" d="M807.517 409.221C807.517 409.221 816.353 407.503 825.69 407.727C825.69 407.727 817.373 416.323 807.517 409.221Z" fill="black"/><path fill-rule="evenodd" clip-rule="evenodd" d="M864.549 357.955V352.082C864.549 331.032 846.47 313.906 824.248 313.906H801.416C779.194 313.906 761.116 331.032 761.116 352.082V357.212C752.133 359.185 745.645 364.825 745.645 371.478V386.333C745.645 393.049 752.253 398.734 761.366 400.656V412.743C761.366 429.7 775.155 443.495 792.105 443.495H793.928C795.15 445.802 797.573 447.376 800.366 447.376H806.086C810.11 447.376 813.371 444.114 813.371 440.089C813.371 436.064 810.11 432.802 806.086 432.802H800.366C797.573 432.802 795.15 434.376 793.928 436.683H792.105C778.91 436.683 768.175 425.944 768.175 412.743V392.722H768.161V356.458C768.152 356.458 768.141 356.458 768.132 356.458V352.082C768.132 334.902 783.062 320.925 801.416 320.925H824.248C842.602 320.925 857.532 334.902 857.532 352.082V388.461H857.573V400.979H857.575C870.01 400.979 880.09 394.428 880.09 386.345V371.871C880.09 365.371 873.569 359.864 864.549 357.955Z" fill="#8DA8DC"/><path fill-rule="evenodd" clip-rule="evenodd" d="M749.862 396.741C746.06 394.327 744.81 394.87 743.511 395.073L723.729 398.176C722.068 398.437 721.165 398.67 719.823 399.849L692.26 424.717L712.383 443.895L743.993 433.812C743.993 433.812 748.248 428.361 739.412 427.936C739.075 427.921 738.765 427.897 738.475 427.869C738.419 427.905 738.6 427.161 738.541 427.194C734.313 429.553 730.425 424.806 734.98 420.25C737.081 418.147 748.791 409.234 748.791 409.234L765.215 412.968L764.842 405.873L749.862 396.741Z" fill="#FFA28F"/><path fill-rule="evenodd" clip-rule="evenodd" d="M728.203 412.472L728.866 406.875L761.408 410.73C774.994 412.264 787.946 416.48 800.346 421.683C802.808 422.716 805.787 423.495 809.306 423.629L809.41 423.633L829.831 425.936L829.2 431.537L808.984 429.257C804.787 429.083 801.18 428.145 798.167 426.88C786.03 421.788 773.625 417.78 760.769 416.329L760.761 416.328L728.203 412.472Z" fill="#232144"/><path fill-rule="evenodd" clip-rule="evenodd" d="M805.808 443.069C804.847 443.077 804.061 442.305 804.053 441.343L803.891 422.287C803.882 421.326 804.654 420.54 805.616 420.531C806.577 420.523 807.362 421.295 807.371 422.257L807.533 441.313C807.541 442.275 806.769 443.061 805.808 443.069Z" fill="#FFE798"/><path fill-rule="evenodd" clip-rule="evenodd" d="M810.227 453.827C809.265 453.836 808.48 453.063 808.471 452.101L808.217 422.248C808.209 421.287 808.981 420.501 809.942 420.492C810.903 420.484 811.689 421.257 811.697 422.219L811.951 452.071C811.96 453.033 811.188 453.819 810.227 453.827Z" fill="#FFE798"/><path fill-rule="evenodd" clip-rule="evenodd" d="M814.461 443.928C813.5 443.937 812.714 443.164 812.706 442.203L812.544 423.147C812.536 422.185 813.308 421.399 814.269 421.391C815.23 421.382 816.016 422.155 816.024 423.117L816.186 442.172C816.194 443.134 815.422 443.92 814.461 443.928Z" fill="#FFE798"/><path fill-rule="evenodd" clip-rule="evenodd" d="M827.442 445.315C826.481 445.323 825.695 444.551 825.687 443.589L825.524 424.533C825.516 423.572 826.288 422.786 827.249 422.777C828.211 422.769 828.996 423.542 829.005 424.503L829.167 443.559C829.175 444.521 828.403 445.307 827.442 445.315Z" fill="#FFE798"/><path fill-rule="evenodd" clip-rule="evenodd" d="M819.266 500.662C818.305 500.67 817.52 499.897 817.511 498.936L816.871 423.858C816.863 422.896 817.635 422.11 818.596 422.102C819.557 422.093 820.343 422.867 820.351 423.827L820.991 498.906C821 499.867 820.228 500.653 819.266 500.662Z" fill="#FFE798"/><path fill-rule="evenodd" clip-rule="evenodd" d="M823.72 515.784C822.759 515.792 821.974 515.02 821.965 514.058L821.197 424.01C821.189 423.048 821.961 422.262 822.922 422.254C823.883 422.246 824.669 423.019 824.677 423.981L825.445 514.028C825.454 514.99 824.682 515.776 823.72 515.784Z" fill="#FFE798"/><path fill-rule="evenodd" clip-rule="evenodd" d="M745.605 406.859L765.684 411.499C768.824 412.225 771.957 410.266 772.683 407.125C773.408 403.983 771.451 400.848 768.311 400.123L748.232 395.483C745.092 394.757 741.957 396.716 741.232 399.858C740.507 402.999 742.465 406.134 745.605 406.859Z" fill="#FFA28F"/><path fill-rule="evenodd" clip-rule="evenodd" d="M736.464 422.988L756.543 427.628C759.683 428.354 762.817 426.395 763.542 423.253C764.267 420.112 762.31 416.977 759.17 416.252L739.091 411.612C735.951 410.886 732.817 412.845 732.091 415.987C731.366 419.128 733.324 422.263 736.464 422.988Z" fill="#FFA28F"/><path fill-rule="evenodd" clip-rule="evenodd" d="M731.095 430.774L751.174 435.413C754.314 436.139 757.448 434.18 758.173 431.039C758.898 427.897 756.94 424.763 753.801 424.037L733.722 419.397C730.582 418.672 727.448 420.63 726.722 423.772C725.997 426.913 727.955 430.048 731.095 430.774Z" fill="#FFA28F"/><path fill-rule="evenodd" clip-rule="evenodd" d="M723.459 430.087L754.283 424.948L758.686 405.492H723.459V430.087Z" fill="#FFA28F"/><path fill-rule="evenodd" clip-rule="evenodd" d="M741.201 416.406L761.279 421.046C764.42 421.772 767.553 419.813 768.278 416.671C769.004 413.53 767.047 410.395 763.906 409.67L743.828 405.03C740.687 404.304 737.553 406.263 736.828 409.405C736.102 412.546 738.06 415.681 741.201 416.406Z" fill="#FFA28F"/><path fill-rule="evenodd" clip-rule="evenodd" d="M1056.46 500.806H1268.35V189.859H1056.46V500.806Z" fill="#E6F0FF"/><path fill-rule="evenodd" clip-rule="evenodd" d="M1074.63 510.529L1046.4 482.288L1054.88 473.805L1083.11 502.044L1074.63 510.529Z" fill="#B0C2E4"/><path fill-rule="evenodd" clip-rule="evenodd" d="M1249.77 180L1278 208.241L1269.52 216.724L1241.29 188.484L1249.77 180Z" fill="#B0C2E4"/><path fill-rule="evenodd" clip-rule="evenodd" d="M1204.38 282.344C1204.38 305.536 1185.59 324.337 1162.4 324.337C1139.22 324.337 1120.43 305.536 1120.43 282.344C1120.43 259.153 1139.22 240.352 1162.4 240.352C1185.59 240.352 1204.38 259.153 1204.38 282.344Z" fill="#B0C2E4"/><path fill-rule="evenodd" clip-rule="evenodd" d="M1204.38 366.329C1204.38 389.52 1185.59 408.321 1162.4 408.321C1139.22 408.321 1120.43 389.52 1120.43 366.329C1120.43 343.137 1139.22 324.336 1162.4 324.336C1185.59 324.336 1204.38 343.137 1204.38 366.329Z" fill="#B0C2E4"/><path fill-rule="evenodd" clip-rule="evenodd" d="M1120.43 450.313C1120.43 427.122 1139.22 408.32 1162.4 408.32C1185.59 408.32 1204.38 427.122 1204.38 450.313H1120.43Z" fill="#B0C2E4"/><path fill-rule="evenodd" clip-rule="evenodd" d="M1060.19 590.36C1060.19 596.638 1055.1 601.728 1048.82 601.728C1042.55 601.728 1037.46 596.638 1037.46 590.36C1037.46 584.082 1042.55 578.992 1048.82 578.992C1055.1 578.992 1060.19 584.082 1060.19 590.36Z" fill="#FFE798"/><path fill-rule="evenodd" clip-rule="evenodd" d="M1042.24 586.884C1042.24 593.162 1037.15 598.252 1030.87 598.252C1024.6 598.252 1019.51 593.162 1019.51 586.884C1019.51 580.606 1024.6 575.516 1030.87 575.516C1037.15 575.516 1042.24 580.606 1042.24 586.884Z" fill="#FFE798"/><path fill-rule="evenodd" clip-rule="evenodd" d="M1043.98 578.465C1043.98 581.019 1041.91 583.09 1039.35 583.09C1036.8 583.09 1034.73 581.019 1034.73 578.465C1034.73 575.911 1036.8 573.84 1039.35 573.84C1041.91 573.84 1043.98 575.911 1043.98 578.465Z" fill="#E73245"/><path fill-rule="evenodd" clip-rule="evenodd" d="M1075.34 586.884C1075.34 593.162 1070.25 598.252 1063.97 598.252C1057.7 598.252 1052.61 593.162 1052.61 586.884C1052.61 580.606 1057.7 575.516 1063.97 575.516C1070.25 575.516 1075.34 580.606 1075.34 586.884Z" fill="#FFE798"/><path fill-rule="evenodd" clip-rule="evenodd" d="M1030.87 592.477C1030.87 598.756 1025.79 603.846 1019.51 603.846C1013.23 603.846 1008.15 598.756 1008.15 592.477C1008.15 586.199 1013.23 581.109 1019.51 581.109C1025.79 581.109 1030.87 586.199 1030.87 592.477Z" fill="#FFE798"/><path fill-rule="evenodd" clip-rule="evenodd" d="M1090.36 591.47C1090.36 597.748 1085.28 602.838 1079 602.838C1072.72 602.838 1067.63 597.748 1067.63 591.47C1067.63 585.191 1072.72 580.102 1079 580.102C1085.28 580.102 1090.36 585.191 1090.36 591.47Z" fill="#FFE798"/><path fill-rule="evenodd" clip-rule="evenodd" d="M705.405 609.903H909.793V601.387H705.405V609.903Z" fill="#B0C2E4"/><path fill-rule="evenodd" clip-rule="evenodd" d="M1035.5 590.289C1035.5 592.844 1033.43 594.914 1030.87 594.914C1028.32 594.914 1026.25 592.844 1026.25 590.289C1026.25 587.735 1028.32 585.664 1030.87 585.664C1033.43 585.664 1035.5 587.735 1035.5 590.289Z" fill="#E73245"/><path fill-rule="evenodd" clip-rule="evenodd" d="M1096.69 590.289H1001.96L1011.52 602.735C1014.75 606.953 1026.05 609.899 1038.99 609.899H1059.66C1072.6 609.899 1083.9 606.953 1087.14 602.735L1096.69 590.289Z" fill="#232144"/><path fill-rule="evenodd" clip-rule="evenodd" d="M1079 580.102C1079 582.656 1076.93 584.727 1074.38 584.727C1071.82 584.727 1069.75 582.656 1069.75 580.102C1069.75 577.547 1071.82 575.477 1074.38 575.477C1076.93 575.477 1079 577.547 1079 580.102Z" fill="#E73245"/><path fill-rule="evenodd" clip-rule="evenodd" d="M1055.52 587.291C1053.74 585.456 1053.79 582.528 1055.62 580.751C1057.46 578.974 1060.38 579.022 1062.16 580.857" fill="#E73245"/><path fill-rule="evenodd" clip-rule="evenodd" d="M906.844 478.949H708.356C706.727 478.949 705.406 480.271 705.406 481.9V598.431C705.406 600.061 706.727 601.381 708.356 601.381H906.844C908.473 601.381 909.794 600.061 909.794 598.431V481.9C909.794 480.271 908.473 478.949 906.844 478.949Z" fill="#E6F0FF"/><path fill-rule="evenodd" clip-rule="evenodd" d="M384.353 1011.48H588.971V636.859H384.353V1011.48Z" fill="#B0C2E4"/><path fill-rule="evenodd" clip-rule="evenodd" d="M384.353 636.863H1168.78V609.902H384.353V636.863Z" fill="#B0C2E4"/><path fill-rule="evenodd" clip-rule="evenodd" d="M1110.62 1011.49H1144.66V623.383H1110.62V1011.49Z" fill="#B0C2E4"/><path fill-rule="evenodd" clip-rule="evenodd" d="M601.538 601.382C601.538 564.164 567.35 533.992 525.177 533.992C483.002 533.992 448.814 564.164 448.814 601.382V609.899H601.538V601.382Z" fill="#232144"/><path fill-rule="evenodd" clip-rule="evenodd" d="M489.822 603.514C489.822 582.78 471.074 565.973 447.947 565.973C424.82 565.973 406.071 582.78 406.071 603.514V609.899H489.822V603.514Z" fill="#232144"/><path fill-rule="evenodd" clip-rule="evenodd" d="M406.325 599.394V565.973L421.089 586.763L406.325 599.394Z" fill="#232144"/><path fill-rule="evenodd" clip-rule="evenodd" d="M440.573 571.946V543.992L460.327 569.167L440.573 571.946Z" fill="#232144"/><path fill-rule="evenodd" clip-rule="evenodd" d="M588.971 601.387H601.537V714.985C601.537 718.457 598.724 721.271 595.254 721.271C591.784 721.271 588.971 718.457 588.971 714.985V601.387Z" fill="#232144"/></svg>