<svg viewBox="0 0 1600 1200" fill="none" xmlns="http://www.w3.org/2000/svg"><path d="M691.114 333.754L669.614 429.189C667.018 443.12 679.377 455.179 693.191 452.268C700.358 450.813 706.07 445.511 708.147 438.546L741.903 327.828L691.114 333.754Z" fill="#FFA28F"/><path d="M844.936 350.39L882.222 411.103C887.312 420.147 898.529 423.786 907.981 419.419C917.848 414.845 922.314 403.098 917.848 393.118L883.053 315.355L844.936 350.39Z" fill="#FFA28F"/><path d="M723.312 444.577L720.196 300.488H862.281L860.204 444.577H723.312Z" fill="#EF1378"/><path d="M705.864 1020H784.697V980.078H738.997L705.864 1002.74V1020Z" fill="#242045"/><path d="M686.96 337.396C685.506 318.476 699.735 301.946 718.638 300.595C737.541 299.139 754.055 313.382 755.406 332.302C756.756 351.223 733.802 380.332 733.802 380.332C733.802 380.332 688.414 356.317 686.96 337.396Z" fill="#EF1378"/><path d="M823.747 259.532C829.311 259.532 833.821 255.017 833.821 249.447C833.821 243.878 829.311 239.363 823.747 239.363C818.183 239.363 813.672 243.878 813.672 249.447C813.672 255.017 818.183 259.532 823.747 259.532Z" fill="#FFC4B8"/><path d="M755.407 259.422C760.971 259.422 765.482 254.907 765.482 249.338C765.482 243.769 760.971 239.254 755.407 239.254C749.843 239.254 745.332 243.769 745.332 249.338C745.332 254.907 749.843 259.422 755.407 259.422Z" fill="#FFC4B8"/><path d="M764.649 298.623V266.291L814.4 264.836V298.623C814.4 312.346 803.287 323.573 789.473 323.573C775.763 323.573 764.649 312.346 764.649 298.623Z" fill="#FFA28F"/><path d="M756.549 263.583V215.449C756.549 200.583 768.597 188.523 783.449 188.523H795.705C810.558 188.523 822.606 200.583 822.606 215.449V263.583C822.606 278.449 810.558 290.508 795.705 290.508H783.449C768.597 290.508 756.549 278.449 756.549 263.583Z" fill="#FFC4B8"/><path d="M789.785 259.736C789.473 259.736 789.058 259.736 788.643 259.632C787.5 259.424 786.461 258.801 785.527 257.969C785.007 257.449 784.488 257.345 783.969 257.345C782.93 257.449 782.099 258.489 782.099 258.489L781.061 257.761C781.061 257.657 782.203 256.202 783.865 256.098C784.8 255.994 785.631 256.306 786.358 257.033C787.188 257.761 788.019 258.177 788.85 258.385C789.681 258.593 790.512 258.489 791.135 258.177C791.447 258.073 791.655 257.761 791.966 257.553C792.278 257.137 793.213 256.306 794.563 256.306C795.705 256.306 796.744 256.721 797.783 257.761L796.952 258.697C796.121 257.969 795.394 257.553 794.667 257.553C793.836 257.553 793.109 258.177 792.901 258.385C792.485 258.801 792.174 259.112 791.758 259.32C791.239 259.528 790.512 259.736 789.785 259.736Z" fill="#1D1D1B"/><path d="M793.73 234.888C800.897 224.7 809.933 223.973 816.892 234.369C816.892 234.369 810.141 232.289 804.636 232.289C799.131 232.185 793.73 234.888 793.73 234.888Z" fill="#1D1D1B"/><path d="M785.423 234.888C778.257 224.7 769.221 223.973 762.262 234.369C762.262 234.369 769.013 232.289 774.518 232.289C780.022 232.185 785.423 234.888 785.423 234.888Z" fill="#1D1D1B"/><path d="M895.31 337.396C896.764 318.476 882.535 301.946 863.632 300.595C844.728 299.139 828.214 313.382 826.864 332.302C825.514 351.223 848.468 380.332 848.468 380.332C848.468 380.332 893.96 356.317 895.31 337.396Z" fill="#EF1378"/><path d="M794.873 392.598L791.965 388.544L794.354 387.4L791.653 381.787L791.549 370.039L756.651 385.633L741.176 403.722C739.202 406.009 739.514 409.44 741.799 411.311C743.357 412.663 745.434 412.871 747.2 412.247C747.2 412.351 747.304 412.351 747.304 412.455C749.277 414.742 752.704 414.95 754.886 412.975L761.325 407.361C761.014 408.816 761.221 410.479 762.156 411.831C763.922 414.222 767.245 414.742 769.634 412.975L794.457 394.885C795.185 394.366 795.392 393.326 794.873 392.598Z" fill="#FFA28F"/><path d="M905.281 430.958L778.983 407.255L724.974 300.488H740.242L771.401 363.8L912.655 381.265C923.145 382.617 930.623 392.181 929.377 402.681L928.027 414.324C926.676 425.344 916.29 433.037 905.281 430.958Z" fill="#E5E2D9"/><path d="M896.868 980.078L930 1002.74V1020H851.168V980.078H896.868Z" fill="#242045"/><path d="M827.591 180C819.905 180 813.465 184.678 810.661 191.332C807.026 189.668 802.871 188.733 798.509 188.733H780.644C776.282 188.733 772.231 189.668 768.492 191.332C765.688 184.678 759.145 180 751.563 180C741.384 180 733.179 188.213 733.179 198.401C733.179 208.589 741.384 216.802 751.563 216.802C751.666 216.802 751.666 216.802 751.77 216.802V251.109H756.963V232.396C756.963 221.272 764.234 211.916 774.413 208.381C774.413 208.485 785.318 235.619 822.19 236.97V250.901H827.383V216.594C827.487 216.594 827.487 216.594 827.591 216.594C837.769 216.594 845.974 208.381 845.974 198.193C845.974 188.005 837.665 180 827.591 180Z" fill="#8B181D"/><path d="M819.178 293.836H759.872V327.103H819.178V293.836Z" fill="#EF1378"/><path d="M792.173 934.232L791.238 535.857H797.989L815.23 934.232H914.316L896.971 613.931C885.754 508.412 860.411 435.328 860.411 435.328H799.028H723C723 435.328 687.478 511.843 695.683 613.931V934.232H792.173Z" fill="#242045"/><path d="M744.188 353.511L766.727 337.709C770.05 335.318 774.517 335.11 778.048 337.189L782.202 339.58L750.109 361.932L744.188 353.511Z" fill="#FFC4B8"/><path d="M777.943 366.922H805.571C809.102 366.922 812.011 364.011 812.011 360.476V299.867C812.011 296.333 809.102 293.422 805.571 293.422H777.943C774.412 293.422 771.504 296.333 771.504 299.867V360.476C771.504 364.115 774.412 366.922 777.943 366.922Z" fill="#242045"/><path d="M820.736 352.47C820.32 349.767 817.931 347.896 815.231 348.208L813.569 348.416C814.608 347.376 815.231 345.817 815.023 344.257C814.608 341.554 812.219 339.683 809.519 339.995L774.724 344.673L770.466 344.777L745.539 355.173L744.292 353.302L676.366 414.95C666.81 423.579 666.499 438.549 675.742 447.593C684.986 456.638 700.047 456.014 708.459 446.138L763.403 381.475L768.077 381.059L770.778 380.851L779.294 380.123L804.533 377.836C807.234 377.628 809.207 375.237 808.999 372.43C808.895 370.871 807.961 369.623 806.818 368.792L811.492 368.168C814.192 367.752 816.062 365.361 815.75 362.658C815.543 360.787 814.192 359.331 812.531 358.708L816.581 358.188C819.178 357.668 821.047 355.173 820.736 352.47Z" fill="#FFC4B8"/><path d="M792.173 919.883H695.788V983.506H792.173V919.883Z" fill="#463EC5"/><path d="M913.59 919.883H814.816L816.998 983.402H917.226L913.59 919.883Z" fill="#463EC5"/><path d="M789.784 267.638C789.784 266.39 788.642 265.766 787.499 265.558C786.565 265.351 785.526 265.455 784.591 265.974L778.359 269.301C778.359 269.301 788.85 283.544 800.69 269.301L794.666 265.974C793.627 265.351 792.381 265.247 791.238 265.766C790.408 266.078 789.784 266.702 789.784 267.638Z" fill="#EF1378"/><path d="M811.491 300.493L818.242 301.74L811.491 302.988C808.79 303.508 806.609 305.587 806.09 308.29L804.844 315.047L803.597 308.29C803.078 305.587 801.001 303.404 798.196 302.988L791.445 301.74L798.196 300.493C800.897 299.973 803.078 297.894 803.597 295.191L804.844 288.434L806.09 295.191C806.713 297.894 808.79 300.077 811.491 300.493Z" fill="#FBB03B"/><path d="M874.745 389.166C870.694 383.656 864.566 380.433 858.854 380.953C858.75 380.953 858.646 380.953 858.542 381.057C858.438 381.057 858.23 380.953 858.127 380.953C854.284 381.057 852.206 381.369 848.883 383.76C845.974 385.839 844.624 389.374 844.313 391.765C843.793 396.547 844.001 403.201 848.052 408.191C851.687 412.661 857.296 414.22 861.346 414.74C862.489 414.948 863.631 414.948 864.67 414.948C867.89 414.948 870.486 414.22 872.564 412.661C874.329 411.413 875.783 409.438 876.822 406.943C879.211 401.121 878.38 394.156 874.745 389.166ZM846.39 391.869C846.598 389.79 847.844 386.983 850.025 385.319C852.829 383.24 854.595 383.032 858.127 382.928C858.23 382.928 858.334 382.928 858.438 382.824C858.542 382.928 858.75 382.928 858.854 382.928C859.269 382.928 859.788 382.928 860.204 382.928C859.165 387.399 858.646 392.701 858.438 398.003C858.438 398.003 858.438 398.003 858.334 398.003C855.738 399.25 850.856 402.057 847.844 403.928C845.974 399.978 845.974 395.404 846.39 391.869ZM849.714 406.735C849.506 406.423 849.194 406.111 848.987 405.8C851.583 404.136 855.738 401.745 858.438 400.394C858.334 404.448 858.438 408.502 858.646 412.037C855.426 411.101 852.102 409.646 849.714 406.735ZM861.658 412.557C861.346 412.557 861.035 412.453 860.723 412.349C860.515 409.022 860.412 405.28 860.515 401.537C863.527 404.76 867.37 408.71 870.382 411.621C868.097 412.661 865.189 413.077 861.658 412.557ZM874.849 406.111C874.121 407.879 873.083 409.334 871.94 410.374C868.513 407.047 863.631 401.953 860.411 398.626C860.619 393.116 861.139 387.71 862.281 383.24C866.228 384.072 870.175 386.567 872.979 390.413C876.303 394.78 877.03 401.017 874.849 406.111Z" fill="#F01378"/><path d="M773.375 240.71C775.452 240.71 777.218 242.477 777.218 244.556C777.218 244.764 777.218 244.972 777.218 245.18H780.957C780.957 245.076 780.853 245.076 780.853 244.972C774.413 237.279 767.351 240.086 766 240.918C766 240.814 765.896 240.814 765.896 240.71C766.208 241.334 767.454 243.413 769.739 244.972C769.739 244.868 769.739 244.66 769.739 244.556C769.532 242.477 771.297 240.71 773.375 240.71Z" fill="white"/><path d="M777.217 244.557C777.217 242.478 775.451 240.711 773.374 240.711C771.297 240.711 769.531 242.478 769.531 244.557C769.531 244.661 769.531 244.869 769.531 244.973C769.635 245.077 769.739 245.077 769.843 245.181H777.113C777.217 244.973 777.217 244.765 777.217 244.557Z" fill="#1D1D1B"/><path d="M801.521 244.66C801.521 242.581 803.286 240.814 805.363 240.814C807.441 240.814 809.206 242.581 809.206 244.66C809.206 244.868 809.206 244.972 809.206 245.18C811.699 243.621 813.049 241.438 813.361 240.71C813.361 240.814 813.257 240.918 813.257 240.918C811.907 240.086 804.844 237.279 798.405 244.972C798.301 245.076 798.301 245.076 798.301 245.18H801.728C801.624 245.076 801.521 244.868 801.521 244.66Z" fill="white"/><path d="M805.364 240.812C803.287 240.812 801.521 242.58 801.521 244.659C801.521 244.867 801.521 244.971 801.521 245.179H809.104C809.104 244.971 809.104 244.867 809.104 244.659C809.311 242.58 807.546 240.812 805.364 240.812Z" fill="#1D1D1B"/><path d="M781.58 245.184C779.814 237.907 770.363 234.996 764.442 238.531C764.754 239.051 765.377 240.09 765.793 240.714C765.793 240.818 765.896 240.922 765.896 240.922C767.247 240.09 774.309 237.283 780.749 244.977C780.853 245.08 780.853 245.08 780.853 245.184H781.58Z" fill="#1D1D1B"/><path d="M814.712 238.531C808.791 234.996 799.34 237.907 797.574 245.184H798.197C798.197 245.08 798.301 245.08 798.301 244.977C804.741 237.283 811.804 240.09 813.154 240.922L814.712 238.531Z" fill="#1D1D1B"/></svg>