<svg viewBox="0 0 1600 1200" fill="none" xmlns="http://www.w3.org/2000/svg"><path fill-rule="evenodd" clip-rule="evenodd" d="M587.38 1001.91L603.022 851.432L616.565 721.148L565.868 725.092L561.468 1003.24L587.38 1001.91Z" fill="#F5836D"/><path fill-rule="evenodd" clip-rule="evenodd" d="M631.672 1013.71L631.668 1007.09L558.712 1007.12L558.715 1013.75L631.672 1013.71Z" fill="#232144"/><path fill-rule="evenodd" clip-rule="evenodd" d="M587.233 1004.37L599.21 889.381L563.266 889.572L561.461 1004.06L587.233 1004.37Z" fill="#E6E3DA"/><path fill-rule="evenodd" clip-rule="evenodd" d="M631.67 1007.07L589.447 986.857L566.867 1007.51L631.67 1007.07Z" fill="#232144"/><path fill-rule="evenodd" clip-rule="evenodd" d="M594.024 1007.31L593.97 977.654L558.712 977.858L558.645 1007.51L594.024 1007.31Z" fill="#232144"/><path fill-rule="evenodd" clip-rule="evenodd" d="M598.308 898.032H563.132L563.184 894.771H598.648L598.308 898.032Z" fill="#FF6200"/><path fill-rule="evenodd" clip-rule="evenodd" d="M597.729 903.594H563.044L563.095 900.334H598.069L597.729 903.594Z" fill="#FF6200"/><path fill-rule="evenodd" clip-rule="evenodd" d="M601.591 556.919L562.076 543.703L524.8 616.686L552.613 621.1L601.591 556.919Z" fill="#F5836D"/><path fill-rule="evenodd" clip-rule="evenodd" d="M731.454 495.369L725.247 512.767L692.156 585.717L706.049 589.843C715.345 592.603 725.146 587.45 728.144 578.225L750.975 506.074L731.454 495.369Z" fill="#F5836D"/><path fill-rule="evenodd" clip-rule="evenodd" d="M621.696 527.975L610.715 568.183L706.447 589.927L709.289 559.415L621.696 527.975Z" fill="#F5836D"/><path fill-rule="evenodd" clip-rule="evenodd" d="M644.423 806.538L647.903 707.457L636.821 615.27L580.402 625.598C580.402 625.598 563.389 654.832 563.964 677.379C564.757 708.4 562.247 805.156 562.247 805.156L644.423 806.538Z" fill="#232144"/><path fill-rule="evenodd" clip-rule="evenodd" d="M666.853 1001.52L671.98 847.337L644.552 687.189L585.609 710.301L632.862 849.242L639.781 1001.72L666.853 1001.52Z" fill="#F5836D"/><path fill-rule="evenodd" clip-rule="evenodd" d="M711.923 1013.71L711.919 1007.09L637.399 1007.12L637.403 1013.75L711.923 1013.71Z" fill="#232144"/><path fill-rule="evenodd" clip-rule="evenodd" d="M666.917 1003.13L670.785 888.941L634.674 889.15L638.871 1003.29L666.917 1003.13Z" fill="#E6E3DA"/><path fill-rule="evenodd" clip-rule="evenodd" d="M711.89 1007.08L669.011 986.873L646.431 1007.53L711.89 1007.08Z" fill="#232144"/><path fill-rule="evenodd" clip-rule="evenodd" d="M672.938 1007.45L672.765 977.5L637.387 977.705L637.558 1007.66L672.938 1007.45Z" fill="#232144"/><path fill-rule="evenodd" clip-rule="evenodd" d="M670.477 898.032H634.999L634.88 894.771H670.587L670.477 898.032Z" fill="#FF6200"/><path fill-rule="evenodd" clip-rule="evenodd" d="M670.289 903.594H635.208L635.085 900.334H670.399L670.289 903.594Z" fill="#FF6200"/><path fill-rule="evenodd" clip-rule="evenodd" d="M644.399 634.33V576.164L653.377 579.996L662.977 541.617L637.644 528.052L589.308 519.67L588.01 622.522L644.399 634.33Z" fill="#E6E3DA"/><path fill-rule="evenodd" clip-rule="evenodd" d="M671.669 790.96L644.493 669.333V619.64L587.891 618.045C563.835 637.177 555.422 679.164 565.877 706.45C576.751 734.828 599.572 813.445 599.572 813.445L671.669 790.96Z" fill="#463EC5"/><path fill-rule="evenodd" clip-rule="evenodd" d="M644.399 634.332V574.068L587.521 566.152L573.614 634.753L644.399 634.332Z" fill="#E6E3DA"/><path fill-rule="evenodd" clip-rule="evenodd" d="M627.797 502.754L591.076 501.291L597.887 533.448C599.714 542.08 600.095 545.957 600.095 545.957H638.23C638.23 545.957 634.677 534.629 632.81 525.978L627.797 502.754Z" fill="#F5836D"/><path fill-rule="evenodd" clip-rule="evenodd" d="M586.926 494.098L581.874 470.236C578.718 455.332 588.239 440.691 603.143 437.533L610.526 435.968C625.433 432.809 640.078 442.334 643.235 457.242L650.765 492.807C652.552 501.246 647.16 509.538 638.721 511.326L619.635 515.371C604.728 518.531 590.082 509.006 586.926 494.098Z" fill="#F5836D"/><path fill-rule="evenodd" clip-rule="evenodd" d="M649.274 471.232C646.981 470.064 644.16 468.635 644.16 468.635L645.678 480.608C645.678 480.608 649.024 477.134 650.249 474.411C650.596 473.64 650.805 472.011 649.274 471.232Z" fill="#F5836D"/><path fill-rule="evenodd" clip-rule="evenodd" d="M640.895 440.127C639.414 433.128 632.541 428.657 625.545 430.139L586.047 439.551C572.752 442.368 565.327 455.85 571.095 468.16L617.954 458.229L619.43 453.708C619.43 453.708 624.888 457.027 630.912 455.483C637.839 453.707 642.376 447.125 640.895 440.127Z" fill="#30304A"/><path fill-rule="evenodd" clip-rule="evenodd" d="M578.261 444.311C578.261 455.715 569.02 464.959 557.621 464.959C546.221 464.959 536.98 455.715 536.98 444.311C536.98 432.906 546.221 423.662 557.621 423.662C569.02 423.662 578.261 432.906 578.261 444.311Z" fill="#30304A"/><path fill-rule="evenodd" clip-rule="evenodd" d="M618.945 455.496L570.252 466.704L593.76 513.745L617.01 507.477C632.897 501.043 622.746 484.55 618.39 467.097C616.422 459.214 618.945 455.496 618.945 455.496Z" fill="#30304A"/><path fill-rule="evenodd" clip-rule="evenodd" d="M620.089 479.662C619.166 475.309 614.893 472.528 610.542 473.45C606.191 474.372 603.411 478.648 604.333 483.001C605.255 487.354 609.528 490.135 613.879 489.212C618.231 488.29 621.011 484.014 620.089 479.662Z" fill="#F5836D"/><path fill-rule="evenodd" clip-rule="evenodd" d="M633.922 470.018C633.922 470.018 640.757 471.227 642.207 470.547C642.207 470.547 640.99 465.863 639.619 465.565C637.853 465.18 633.922 470.018 633.922 470.018Z" fill="white"/><path fill-rule="evenodd" clip-rule="evenodd" d="M642.091 470.606C641.226 471.102 639.849 470.271 639.014 468.751C638.18 467.232 638.203 465.597 639.068 465.102C639.932 464.606 641.308 465.438 642.143 466.958C642.978 468.478 642.955 470.111 642.091 470.606Z" fill="#161615"/><path fill-rule="evenodd" clip-rule="evenodd" d="M640.065 465.202L639.189 465.043C639.189 465.043 636.502 465.824 633.226 469.899L634.236 470.134C634.236 470.134 635.806 467.602 640.158 465.344" fill="#161615"/><path fill-rule="evenodd" clip-rule="evenodd" d="M634.122 460.496L633.907 460.594C631.677 461.625 630.087 463.699 629.608 466.198L641.175 460.858C638.961 459.601 636.352 459.465 634.122 460.496Z" fill="#30304A"/><path fill-rule="evenodd" clip-rule="evenodd" d="M622.788 489.803L618.482 490.773L612.149 462.652L616.456 461.682L622.788 489.803Z" fill="#30304A"/><path fill-rule="evenodd" clip-rule="evenodd" d="M647.487 487.678C642.84 487.678 640.482 484.561 640.37 484.41L641.454 483.609C641.563 483.753 644.18 487.16 649.413 486.137L649.672 487.46C648.896 487.612 648.166 487.678 647.487 487.678Z" fill="#191414"/><path fill-rule="evenodd" clip-rule="evenodd" d="M576.286 441.365L564.774 459.579C563.627 461.393 564.168 463.794 565.982 464.941C567.796 466.089 570.197 465.549 571.345 463.733L582.857 445.518C584.004 443.704 583.463 441.305 581.649 440.157C579.835 439.009 577.434 439.55 576.286 441.365Z" fill="#FF6200"/><path fill-rule="evenodd" clip-rule="evenodd" d="M588.009 443.277L582.093 444.61L580.76 438.688C579.596 433.52 582.842 428.388 588.01 427.223L593.925 425.891L595.258 431.812C596.421 436.98 593.177 442.113 588.009 443.277Z" fill="#FF6200"/><path fill-rule="evenodd" clip-rule="evenodd" d="M594.958 456.559L593.153 462.355L587.363 460.55C582.306 458.973 579.485 453.598 581.06 448.54L582.864 442.744L588.654 444.549C593.711 446.126 596.533 451.502 594.958 456.559Z" fill="#FF6200"/><path fill-rule="evenodd" clip-rule="evenodd" d="M644.493 644.476L644.447 570.064L596.008 569.016V644.476H644.493Z" fill="#463EC5"/><path fill-rule="evenodd" clip-rule="evenodd" d="M590.222 574.601L610.07 550.122C615.789 541.074 608.866 528.866 599.823 523.145L598.135 522.077C588.537 516.006 575.835 518.868 569.766 528.471L554.78 552.181L590.222 574.601Z" fill="#E6E3DA"/><path fill-rule="evenodd" clip-rule="evenodd" d="M580.419 684.779V669.68H562.105C562.105 669.68 561.73 674.917 561.65 676.543C561.543 678.695 561.461 684.779 561.461 684.779C561.461 690.016 565.705 694.262 570.94 694.262C576.175 694.262 580.419 690.016 580.419 684.779Z" fill="#232144"/><path fill-rule="evenodd" clip-rule="evenodd" d="M604.211 554.877H640.681V532.229H604.211V554.877Z" fill="#E6E3DA"/><path fill-rule="evenodd" clip-rule="evenodd" d="M644.403 574.066H639.324V533.979C639.324 530.306 636.709 527.41 633.038 527.407L632.041 522.252C639.27 522.003 644.403 527.508 644.403 533.979V574.066Z" fill="#463EC5"/><path fill-rule="evenodd" clip-rule="evenodd" d="M609.027 571.894H603.948V530.317C603.948 525.935 598.843 522.336 596.267 521.255L591.946 519.468C600.048 514.272 609.027 523.133 609.027 530.317V571.894Z" fill="#463EC5"/><path fill-rule="evenodd" clip-rule="evenodd" d="M515.977 696.181L516.682 696.644C519.115 697.66 521.92 696.651 523.15 694.318L527.624 685.209C528.803 682.003 524.71 670.229 524.71 670.229L515.977 696.181Z" fill="#F5836D"/><path fill-rule="evenodd" clip-rule="evenodd" d="M525.736 687.878C522.011 682.678 514.284 682.691 510.581 687.907C498.098 705.485 475.011 750.655 479.893 840.005C484.483 924.005 500.291 1014.05 500.291 1014.05L518.139 1002.82L536.339 1014.05C536.339 1014.05 552.147 924.005 556.736 840.005C561.62 750.606 538.314 705.437 525.736 687.878Z" fill="#E6E3DA"/><path fill-rule="evenodd" clip-rule="evenodd" d="M546.666 938.408V945.583H527.82V939.259C527.82 937.499 526.393 936.072 524.634 936.072H512.658C510.899 936.072 509.473 937.499 509.473 939.259V945.583H489.291V938.408H472.279V959.932H489.291V952.09H509.473V958.248C509.473 960.007 510.899 961.434 512.658 961.434H524.634C526.393 961.434 527.82 960.007 527.82 958.248V952.09H546.666V959.932H563.678V938.408H546.666Z" fill="#232144"/><path fill-rule="evenodd" clip-rule="evenodd" d="M543.663 706.227V713.401H527.819V707.077C527.819 705.317 526.393 703.891 524.634 703.891H512.659C510.9 703.891 509.473 705.317 509.473 707.077V713.401H492.295V706.227H475.283V727.751H492.295V719.909H509.473V726.066C509.473 727.825 510.9 729.253 512.659 729.253H524.634C526.393 729.253 527.819 727.825 527.819 726.066V719.909H543.663V727.751H560.675V706.227H543.663Z" fill="#232144"/><path fill-rule="evenodd" clip-rule="evenodd" d="M525.425 670.015L504.512 661.465L491.579 684.292C490.469 686.463 491.328 689.124 493.497 690.234C494.132 690.559 494.808 690.697 495.477 690.701C494.732 692.761 495.597 695.099 497.598 696.123C498.94 696.81 500.467 696.74 501.701 696.076C501.268 697.996 502.15 700.036 503.982 700.974C505.662 701.834 507.626 701.502 508.947 700.306C509.286 701.518 510.118 702.583 511.353 703.145C513.573 704.153 516.188 703.171 517.197 700.951L525.425 670.015Z" fill="#F5836D"/><path fill-rule="evenodd" clip-rule="evenodd" d="M527.379 611.045L503.381 663.527L523.899 672.917L551.613 623.345C555.489 616.41 552.624 607.64 545.401 604.334C538.572 601.209 530.503 604.213 527.379 611.045Z" fill="#F5836D"/><path fill-rule="evenodd" clip-rule="evenodd" d="M628.268 564.724L619.823 590.789C619.568 591.575 620 592.418 620.785 592.674L636.236 597.684C637.022 597.939 637.866 597.508 638.121 596.721L646.565 570.656C646.819 569.87 646.389 569.027 645.603 568.773L630.153 563.763C629.367 563.508 628.523 563.938 628.268 564.724Z" fill="#FF6200"/><path fill-rule="evenodd" clip-rule="evenodd" d="M634.03 568.662L631.72 567.912C631.508 567.844 631.28 567.96 631.212 568.172L630.057 571.736C629.988 571.948 630.105 572.176 630.317 572.244L632.627 572.993C632.839 573.061 633.066 572.946 633.135 572.734L634.289 569.17C634.358 568.958 634.242 568.73 634.03 568.662Z" fill="white"/><path fill-rule="evenodd" clip-rule="evenodd" d="M631.057 572.572L630.943 572.536L631.649 570.348L630.553 569.993L630.589 569.879L631.686 570.233L632.393 568.045L632.506 568.081L631.8 570.27L632.598 570.527L633.305 568.339L633.418 568.376L632.712 570.564L633.809 570.918L633.772 571.033L632.675 570.678L631.969 572.867L631.854 572.83L632.561 570.642L631.763 570.384L631.057 572.572Z" fill="#FF6200"/><path fill-rule="evenodd" clip-rule="evenodd" d="M633.482 570.372L631.317 569.67L631.021 570.582L633.187 571.283L633.482 570.372Z" fill="white"/><path fill-rule="evenodd" clip-rule="evenodd" d="M631.086 570.548L633.155 571.219L633.419 570.404L631.35 569.733L631.086 570.548ZM633.22 571.347L630.958 570.614L631.284 569.605L633.547 570.338L633.22 571.347Z" fill="#FF6200"/><path fill-rule="evenodd" clip-rule="evenodd" d="M631.165 574.658C631.054 574.658 630.943 574.642 630.834 574.606C630.559 574.517 630.337 574.328 630.206 574.071C630.178 574.018 630.199 573.953 630.253 573.927C630.304 573.898 630.369 573.919 630.397 573.973C630.502 574.178 630.68 574.33 630.9 574.402C631.119 574.473 631.353 574.454 631.557 574.348C631.611 574.321 631.676 574.341 631.702 574.394C631.73 574.447 631.709 574.513 631.656 574.539C631.501 574.618 631.334 574.658 631.165 574.658Z" fill="white"/><path fill-rule="evenodd" clip-rule="evenodd" d="M631.084 575.182C630.944 575.182 630.804 575.161 630.668 575.117C630.326 575.006 630.047 574.769 629.883 574.447C629.856 574.394 629.877 574.33 629.93 574.303C629.983 574.276 630.047 574.297 630.074 574.35C630.211 574.619 630.446 574.818 630.734 574.911C631.022 575.005 631.329 574.98 631.598 574.842C631.651 574.814 631.716 574.835 631.743 574.889C631.771 574.941 631.749 575.007 631.696 575.034C631.504 575.132 631.295 575.182 631.084 575.182Z" fill="white"/><path fill-rule="evenodd" clip-rule="evenodd" d="M631.005 575.704C630.414 575.704 629.846 575.382 629.559 574.82C629.532 574.768 629.552 574.703 629.606 574.676C629.659 574.649 629.723 574.67 629.75 574.723C629.922 575.057 630.213 575.305 630.57 575.421C630.926 575.536 631.308 575.506 631.643 575.334C631.696 575.307 631.761 575.328 631.788 575.382C631.815 575.434 631.794 575.499 631.741 575.526C631.505 575.647 631.253 575.704 631.005 575.704Z" fill="white"/><path fill-rule="evenodd" clip-rule="evenodd" d="M630.888 576.204C630.706 576.204 630.523 576.175 630.345 576.118C629.898 575.973 629.535 575.663 629.32 575.245C629.293 575.192 629.314 575.127 629.367 575.101C629.42 575.072 629.485 575.094 629.512 575.148C629.9 575.904 630.829 576.205 631.59 575.818C631.643 575.791 631.706 575.812 631.734 575.865C631.761 575.918 631.741 575.982 631.688 576.009C631.436 576.138 631.163 576.204 630.888 576.204Z" fill="white"/><path fill-rule="evenodd" clip-rule="evenodd" d="M638.223 579.134C638.172 579.291 638.331 579.421 638.607 579.511C638.894 579.602 639.099 579.586 639.15 579.432C639.194 579.294 639.058 579.15 638.765 579.055C638.46 578.956 638.265 579.001 638.223 579.134ZM638.102 579.104C638.176 578.876 638.437 578.781 638.812 578.903C639.183 579.026 639.34 579.241 639.269 579.461C639.189 579.709 638.934 579.784 638.551 579.66C638.193 579.545 638.026 579.342 638.102 579.104Z" fill="white"/><path fill-rule="evenodd" clip-rule="evenodd" d="M637.937 580.021C637.886 580.178 638.046 580.308 638.321 580.397C638.608 580.489 638.814 580.473 638.864 580.318C638.909 580.18 638.773 580.036 638.479 579.942C638.174 579.843 637.979 579.888 637.937 580.021ZM637.817 579.991C637.89 579.763 638.151 579.667 638.527 579.79C638.897 579.913 639.054 580.128 638.984 580.347C638.904 580.596 638.648 580.67 638.266 580.547C637.908 580.432 637.74 580.229 637.817 579.991Z" fill="white"/><path fill-rule="evenodd" clip-rule="evenodd" d="M637.651 580.908C637.6 581.065 637.76 581.195 638.035 581.284C638.322 581.377 638.528 581.361 638.578 581.205C638.623 581.066 638.486 580.924 638.193 580.829C637.888 580.73 637.693 580.774 637.651 580.908ZM637.531 580.879C637.604 580.65 637.865 580.554 638.241 580.676C638.611 580.8 638.768 581.014 638.698 581.234C638.617 581.483 638.362 581.557 637.98 581.433C637.622 581.319 637.454 581.115 637.531 580.879Z" fill="white"/><path fill-rule="evenodd" clip-rule="evenodd" d="M637.364 581.792C637.314 581.949 637.474 582.079 637.749 582.169C638.036 582.26 638.241 582.244 638.292 582.09C638.337 581.951 638.2 581.808 637.907 581.713C637.602 581.615 637.407 581.659 637.364 581.792ZM637.245 581.762C637.318 581.535 637.579 581.439 637.955 581.561C638.325 581.684 638.482 581.899 638.411 582.119C638.331 582.367 638.076 582.442 637.694 582.318C637.335 582.203 637.168 582 637.245 581.762Z" fill="white"/><path fill-rule="evenodd" clip-rule="evenodd" d="M636.96 583.046C636.909 583.203 637.069 583.333 637.346 583.423C637.633 583.514 637.837 583.499 637.888 583.344C637.932 583.205 637.796 583.062 637.503 582.967C637.197 582.87 637.003 582.913 636.96 583.046ZM636.841 583.016C636.914 582.788 637.174 582.693 637.551 582.816C637.921 582.938 638.078 583.153 638.008 583.373C637.927 583.621 637.671 583.695 637.29 583.572C636.931 583.457 636.764 583.254 636.841 583.016Z" fill="white"/><path fill-rule="evenodd" clip-rule="evenodd" d="M636.674 583.933C636.623 584.09 636.783 584.22 637.06 584.309C637.347 584.402 637.55 584.385 637.601 584.23C637.646 584.093 637.51 583.949 637.217 583.854C636.911 583.755 636.717 583.8 636.674 583.933ZM636.555 583.904C636.628 583.675 636.888 583.58 637.265 583.702C637.635 583.825 637.792 584.04 637.722 584.259C637.641 584.509 637.385 584.583 637.004 584.459C636.645 584.344 636.478 584.141 636.555 583.904Z" fill="white"/><path fill-rule="evenodd" clip-rule="evenodd" d="M636.388 584.818C636.337 584.975 636.497 585.105 636.773 585.194C637.06 585.286 637.264 585.27 637.315 585.115C637.359 584.978 637.224 584.833 636.931 584.739C636.625 584.64 636.431 584.685 636.388 584.818ZM636.268 584.788C636.341 584.56 636.602 584.464 636.977 584.587C637.349 584.71 637.505 584.925 637.435 585.144C637.355 585.393 637.099 585.468 636.716 585.344C636.359 585.228 636.191 585.026 636.268 584.788Z" fill="white"/><path fill-rule="evenodd" clip-rule="evenodd" d="M636.102 585.706C636.051 585.863 636.211 585.993 636.486 586.083C636.773 586.175 636.978 586.16 637.029 586.004C637.074 585.865 636.938 585.722 636.644 585.627C636.339 585.529 636.144 585.573 636.102 585.706ZM635.982 585.677C636.055 585.448 636.316 585.354 636.691 585.475C637.062 585.598 637.219 585.813 637.149 586.033C637.069 586.281 636.813 586.355 636.43 586.231C636.073 586.117 635.905 585.913 635.982 585.677Z" fill="white"/><path fill-rule="evenodd" clip-rule="evenodd" d="M635.698 586.956C635.647 587.113 635.806 587.243 636.082 587.333C636.369 587.425 636.574 587.409 636.625 587.254C636.668 587.115 636.533 586.972 636.24 586.877C635.935 586.779 635.74 586.823 635.698 586.956ZM635.578 586.927C635.651 586.699 635.912 586.603 636.287 586.726C636.658 586.848 636.815 587.064 636.744 587.283C636.664 587.532 636.409 587.606 636.026 587.482C635.668 587.367 635.501 587.164 635.578 586.927Z" fill="white"/><path fill-rule="evenodd" clip-rule="evenodd" d="M635.411 587.843C635.36 588 635.521 588.13 635.796 588.22C636.083 588.311 636.289 588.295 636.339 588.141C636.383 588.002 636.247 587.859 635.954 587.764C635.648 587.665 635.454 587.71 635.411 587.843ZM635.292 587.813C635.365 587.585 635.626 587.49 636.002 587.612C636.372 587.735 636.529 587.95 636.458 588.17C636.378 588.418 636.122 588.493 635.741 588.369C635.382 588.254 635.215 588.051 635.292 587.813Z" fill="white"/><path fill-rule="evenodd" clip-rule="evenodd" d="M635.125 588.732C635.074 588.889 635.234 589.019 635.51 589.108C635.797 589.201 636.003 589.185 636.053 589.029C636.097 588.891 635.961 588.747 635.668 588.653C635.362 588.554 635.168 588.599 635.125 588.732ZM635.006 588.703C635.078 588.474 635.339 588.379 635.716 588.5C636.086 588.624 636.243 588.839 636.172 589.058C636.092 589.307 635.836 589.38 635.455 589.257C635.096 589.142 634.929 588.939 635.006 588.703Z" fill="white"/><path fill-rule="evenodd" clip-rule="evenodd" d="M634.839 589.617C634.788 589.774 634.948 589.904 635.223 589.993C635.51 590.086 635.715 590.07 635.766 589.914C635.81 589.776 635.675 589.633 635.381 589.538C635.076 589.439 634.881 589.483 634.839 589.617ZM634.718 589.588C634.792 589.359 635.053 589.263 635.429 589.385C635.799 589.509 635.956 589.723 635.886 589.943C635.806 590.192 635.55 590.266 635.168 590.142C634.81 590.028 634.642 589.824 634.718 589.588Z" fill="white"/><path fill-rule="evenodd" clip-rule="evenodd" d="M634.435 590.868C634.384 591.025 634.544 591.155 634.82 591.245C635.107 591.336 635.311 591.321 635.362 591.166C635.407 591.028 635.271 590.884 634.977 590.789C634.672 590.692 634.477 590.735 634.435 590.868ZM634.315 590.838C634.389 590.612 634.649 590.515 635.025 590.638C635.395 590.76 635.552 590.975 635.483 591.195C635.402 591.443 635.146 591.517 634.764 591.394C634.406 591.279 634.238 591.076 634.315 590.838Z" fill="white"/><path fill-rule="evenodd" clip-rule="evenodd" d="M634.149 591.757C634.098 591.914 634.258 592.044 634.534 592.133C634.821 592.226 635.025 592.21 635.076 592.054C635.121 591.915 634.985 591.773 634.691 591.678C634.386 591.579 634.191 591.624 634.149 591.757ZM634.029 591.728C634.103 591.499 634.363 591.405 634.739 591.525C635.109 591.649 635.266 591.864 635.196 592.084C635.116 592.332 634.86 592.406 634.478 592.282C634.12 592.168 633.952 591.964 634.029 591.728Z" fill="white"/><path fill-rule="evenodd" clip-rule="evenodd" d="M633.863 592.642C633.812 592.799 633.972 592.929 634.247 593.018C634.534 593.111 634.739 593.094 634.79 592.939C634.835 592.801 634.698 592.658 634.405 592.563C634.1 592.464 633.905 592.509 633.863 592.642ZM633.743 592.613C633.816 592.384 634.077 592.289 634.452 592.411C634.823 592.534 634.98 592.749 634.909 592.968C634.829 593.218 634.574 593.292 634.191 593.168C633.833 593.053 633.666 592.85 633.743 592.613Z" fill="white"/><path fill-rule="evenodd" clip-rule="evenodd" d="M633.576 593.529C633.525 593.686 633.686 593.816 633.961 593.905C634.248 593.997 634.453 593.982 634.504 593.826C634.547 593.688 634.412 593.544 634.119 593.45C633.813 593.351 633.619 593.396 633.576 593.529ZM633.457 593.499C633.53 593.271 633.791 593.176 634.166 593.297C634.537 593.42 634.694 593.636 634.623 593.855C634.543 594.103 634.288 594.178 633.905 594.055C633.547 593.939 633.38 593.737 633.457 593.499Z" fill="white"/><path fill-rule="evenodd" clip-rule="evenodd" d="M644.06 613.489V584.404H616.386V602.897C616.386 608.747 621.127 613.489 626.978 613.489H644.06Z" fill="#232144"/><path fill-rule="evenodd" clip-rule="evenodd" d="M762.345 485.191C761.775 484.821 761.148 484.626 760.516 484.556C761.422 482.679 760.829 480.381 759.035 479.217C757.732 478.371 756.145 478.356 754.853 479.012C755.515 477.21 754.879 475.129 753.202 474.04C751.782 473.119 750.019 473.175 748.675 474.023C748.446 472.892 747.769 471.857 746.695 471.229C744.692 470.058 742.119 470.734 740.948 472.737L739.163 476.308C737.434 476.143 735.685 476.909 734.667 478.438L729.544 486.627C728.115 489.548 730.341 500.366 730.341 500.366L730.792 499.447L730.149 501.227L749.118 511.358L763.583 491.004C764.846 489.057 764.291 486.454 762.345 485.191Z" fill="#F5836D"/><path fill-rule="evenodd" clip-rule="evenodd" d="M282 1020H1319V1013.34H282V1020Z" fill="#E6E3DA"/><path fill-rule="evenodd" clip-rule="evenodd" d="M925.847 365.469L875.507 332.045L830.186 446.699L864.572 471.626L925.847 365.469Z" fill="#F5836D"/><path fill-rule="evenodd" clip-rule="evenodd" d="M861.095 342.094C861.095 342.094 881.15 297.539 906.519 297.539C923.895 297.539 936.829 309.63 938.135 326.965C939.44 344.299 902.664 375.013 902.664 375.013L861.095 342.094Z" fill="#E6E3DA"/><path fill-rule="evenodd" clip-rule="evenodd" d="M1082.27 545.508L1079.02 576.1L1116.21 575.56L1111.07 542.723L1082.27 545.508Z" fill="#F5836D"/><path fill-rule="evenodd" clip-rule="evenodd" d="M1111.31 546.173L1102.78 427.6L1055.4 432.378L1082.93 548.287L1111.31 546.173Z" fill="#F5836D"/><path fill-rule="evenodd" clip-rule="evenodd" d="M1070.24 597.747C1072.76 599.546 1076.27 598.959 1078.06 596.435L1095.57 571.868C1096.69 570.299 1096.32 568.12 1094.75 567.001L1089.87 563.517C1089.09 562.962 1088.01 563.143 1087.46 563.92L1068.93 589.926C1067.13 592.448 1067.72 595.948 1070.24 597.747Z" fill="#F5836D"/><path fill-rule="evenodd" clip-rule="evenodd" d="M1073.86 620.288C1075.74 622.753 1079.27 623.226 1081.73 621.346L1101.4 606.329L1094.6 597.408L1074.92 612.428C1072.46 614.307 1071.99 617.825 1073.86 620.288Z" fill="#F5836D"/><path fill-rule="evenodd" clip-rule="evenodd" d="M1073.02 614.498C1075.24 616.656 1078.79 616.601 1080.95 614.375L1098.18 596.599L1090.12 588.789L1072.89 606.569C1070.74 608.793 1070.79 612.342 1073.02 614.498Z" fill="#F5836D"/><path fill-rule="evenodd" clip-rule="evenodd" d="M1116.3 574.843L1106.17 570.027L1091.21 601.517L1101.34 606.332L1116.3 574.843Z" fill="#F5836D"/><path fill-rule="evenodd" clip-rule="evenodd" d="M1111.55 572.371L1101.71 567.004L1085.03 597.619L1094.88 602.987L1111.55 572.371Z" fill="#F5836D"/><path fill-rule="evenodd" clip-rule="evenodd" d="M1086.46 584.722C1086.46 584.722 1089.07 580.25 1090.09 578.944C1092.2 576.234 1095.17 578.562 1093.88 581.153C1093.05 582.815 1090.01 588.132 1088 592.174C1095.76 585.52 1109.91 577.025 1109.91 577.025L1089.13 568.926L1086.46 584.722Z" fill="#F5836D"/><path fill-rule="evenodd" clip-rule="evenodd" d="M1093.62 328.844L1103.07 430.755L1056.34 436.773L1034.52 332.797L1093.62 328.844Z" fill="#F5836D"/><path fill-rule="evenodd" clip-rule="evenodd" d="M1105.95 345.162C1105.95 345.162 1086.09 301.109 1060.73 301.109C1043.35 301.109 1030.21 312.697 1028.91 330.032C1027.6 347.367 1064.38 378.081 1064.38 378.081L1105.95 345.162Z" fill="#E6E3DA"/><path fill-rule="evenodd" clip-rule="evenodd" d="M902.249 452.482V297.913C902.249 297.913 961.226 282.68 981.597 282.68C1000.16 282.68 1066.14 301.796 1066.14 301.796L1060.94 452.482H902.249Z" fill="#E6E3DA"/><path fill-rule="evenodd" clip-rule="evenodd" d="M1044.45 1001.9L1049.99 938.686H999.696V1001.9H1044.45Z" fill="#F5836D"/><path fill-rule="evenodd" clip-rule="evenodd" d="M992.257 948.074L988.146 480.773L1062.21 495.21L1060.77 948.19L992.257 948.074Z" fill="#232144"/><path fill-rule="evenodd" clip-rule="evenodd" d="M999.696 1013.34V969.305H1048.84V986.947L1063.81 999.892V1013.34H999.696Z" fill="#232144"/><path fill-rule="evenodd" clip-rule="evenodd" d="M987.245 954.99H1062.44V933.379H987.245V954.99Z" fill="#E6E3DA"/><path fill-rule="evenodd" clip-rule="evenodd" d="M926.804 983.583L929.508 860.007L865.092 854.408L880.237 983.95L926.804 983.583Z" fill="#F5836D"/><path fill-rule="evenodd" clip-rule="evenodd" d="M819.338 1013.34H928.457V999.412H819.338V1013.34Z" fill="#232144"/><path fill-rule="evenodd" clip-rule="evenodd" d="M928.462 999.411V975.582L924.86 976.888C909.61 982.417 892.937 980.217 879.286 970.874L877.661 969.762L819.338 999.411H928.462Z" fill="#232144"/><path fill-rule="evenodd" clip-rule="evenodd" d="M925.845 713.698L1001.83 482.645L908.217 502.622L851.89 707.898L867.679 946.407H934.194L925.845 713.698Z" fill="#232144"/><path fill-rule="evenodd" clip-rule="evenodd" d="M864.306 954.209H938.068V932.598H864.306V954.209Z" fill="#E6E3DA"/><path fill-rule="evenodd" clip-rule="evenodd" d="M904.817 548.659V470.672H1062.13L1061.29 549.131L904.817 548.659Z" fill="#232144"/><path fill-rule="evenodd" clip-rule="evenodd" d="M902.249 516.375H1063.93V353.15H902.249V516.375Z" fill="#E6E3DA"/><path fill-rule="evenodd" clip-rule="evenodd" d="M955.896 297.592V260.781L1006.61 261.009V297.592C1006.61 309.448 997.002 319.06 985.151 319.06H977.357C965.504 319.06 955.896 309.448 955.896 297.592Z" fill="#F5836D"/><path fill-rule="evenodd" clip-rule="evenodd" d="M926.299 254.73C927.115 257.803 934.049 256.666 934.049 256.666L929.993 238.195C929.993 238.195 925.484 251.661 926.299 254.73Z" fill="#F5836D"/><path fill-rule="evenodd" clip-rule="evenodd" d="M935.59 265.141L925.092 221.264C921.465 206.105 930.808 190.875 945.96 187.247L974.496 180.665C982.838 178.667 991.028 183.608 993.025 191.954L1006.48 248.167C1010.1 263.325 1000.76 278.555 985.607 282.184L969.593 286.019C954.44 289.647 939.217 280.3 935.59 265.141Z" fill="#F5836D"/><path fill-rule="evenodd" clip-rule="evenodd" d="M937.348 236.129C940.778 234.826 944.98 234.933 945.638 236.667C946.297 238.402 942.896 241.195 939.537 242.67C937.957 243.362 933.919 237.433 937.348 236.129Z" fill="white"/><path fill-rule="evenodd" clip-rule="evenodd" d="M936.191 240.256C935.522 238.492 935.885 236.718 937.003 236.293C938.121 235.868 939.57 236.954 940.24 238.718C940.91 240.481 940.547 242.256 939.429 242.681C938.311 243.106 936.861 242.021 936.191 240.256Z" fill="black"/><path fill-rule="evenodd" clip-rule="evenodd" d="M930.67 233.287L929.259 229.572C928.644 227.953 929.457 226.143 931.075 225.529L940.353 222.002C941.97 221.387 943.779 222.201 944.394 223.819L945.788 227.489C945.798 227.514 945.785 227.542 945.76 227.552L930.67 233.287Z" fill="#30304A"/><path fill-rule="evenodd" clip-rule="evenodd" d="M950.682 186.118L973.016 180.769C990.214 176.651 1006.78 189.588 1006.96 207.278L1007.47 258.158L1006.31 258.376C994.947 260.517 983.603 254.551 978.924 243.97L976.923 239.446C976.923 239.446 968.359 241.762 966.152 234.814L950.682 186.118Z" fill="#30304A"/><path fill-rule="evenodd" clip-rule="evenodd" d="M918.108 223.36L914.546 208.473C912.834 201.316 919.251 193.645 928.881 191.339L954.659 185.166C954.659 185.166 954.837 197.04 954.139 201.031C953.296 205.845 949.433 215.858 939.804 218.164L918.108 223.36Z" fill="#30304A"/><path fill-rule="evenodd" clip-rule="evenodd" d="M973.341 247.229L933.582 256.75L939.383 280.998C941.187 288.536 949.142 293.097 957.16 291.188L972.248 287.597C977.863 286.26 981.395 280.891 980.132 275.611L973.341 247.229Z" fill="#30304A"/><path fill-rule="evenodd" clip-rule="evenodd" d="M966.075 234.647C964.756 229.132 968.155 223.591 973.668 222.271C979.18 220.951 984.719 224.351 986.04 229.866C987.359 235.382 983.959 240.923 978.446 242.244C972.933 243.563 967.394 240.162 966.075 234.647Z" fill="#F5836D"/><path fill-rule="evenodd" clip-rule="evenodd" d="M940.919 270.349L937.089 271.267L935.065 262.812L947.347 259.871L947.348 259.874C948.465 264.542 945.587 269.232 940.919 270.349Z" fill="#F5836D"/><path fill-rule="evenodd" clip-rule="evenodd" d="M936.479 268.861L936.002 266.866C936.002 266.866 936.447 266.755 936.67 266.688C939.067 265.97 940.977 264.491 941.657 262.828L943.59 263.619C942.663 265.887 940.301 267.782 937.269 268.689C937.034 268.759 936.798 268.824 936.563 268.88L936.479 268.861Z" fill="black"/><path fill-rule="evenodd" clip-rule="evenodd" d="M977.962 266.54L970.71 268.276L953.758 197.422L961.009 195.686L977.962 266.54Z" fill="#30304A"/><path fill-rule="evenodd" clip-rule="evenodd" d="M805.483 545.382L777.323 529.115L776.436 530.242C773.654 531.266 760.434 536.281 758.103 540.007L751.69 553.13C750.54 555.661 750.949 558.526 752.545 560.615L749.395 565.754C747.758 568.858 748.948 572.703 752.052 574.339C753.714 575.215 755.586 575.275 757.22 574.67C757.286 576.991 758.621 579.192 760.867 580.245C763.586 581.522 766.744 580.697 768.534 578.442C768.669 580.691 769.996 582.797 772.178 583.821C775.118 585.201 778.574 584.129 780.254 581.442C780.84 582.168 781.59 582.78 782.49 583.203H782.491C785.667 584.693 789.449 583.325 790.939 580.148L805.483 545.382Z" fill="#F5836D"/><path fill-rule="evenodd" clip-rule="evenodd" d="M864.572 471.625L803.235 550.803L777.323 529.116L830.185 446.697L864.572 471.625Z" fill="#F5836D"/></svg>