<svg viewBox="0 0 1600 1200" fill="none" xmlns="http://www.w3.org/2000/svg"><path d="M1123.7 413.47C1123.7 348.741 1069.56 296.365 1002.81 296.365C990.609 296.365 978.907 298.094 967.782 301.388C957.399 232.706 896.417 180 822.745 180C762.011 180 709.847 215.823 687.597 266.8C672.516 255.929 653.892 249.588 633.702 249.588C583.764 249.588 543.384 288.788 543.384 337.129C543.384 352.117 547.257 366.117 554.097 378.47C521.711 399.47 500.367 435.294 500.367 475.894C500.367 540.623 554.509 593 621.259 593C643.344 593 664.028 587.235 681.828 577.27C707.457 618.447 754.1 646.035 807.417 646.035C860.652 646.035 907.213 618.529 932.924 577.435C949.24 592.917 971.573 602.47 996.13 602.47C1046.07 602.47 1086.45 563.27 1086.45 514.929C1086.45 509.576 1085.95 504.388 1085.05 499.282C1108.78 477.87 1123.7 447.317 1123.7 413.47Z" fill="#E7EFF9"/><path d="M689.822 1019.92L689.08 787.85H886.199L882.325 1019.92H689.822Z" fill="#FF6200"/><path d="M645.074 837.427C643.097 811.98 662.792 789.827 688.997 787.933C715.203 786.039 738.112 805.062 740.09 830.509C742.068 855.956 710.011 895.074 710.011 895.074C710.011 895.074 647.052 862.874 645.074 837.427Z" fill="#FF6200"/><path d="M933.666 837.427C935.644 811.98 915.949 789.827 889.743 787.933C863.537 786.039 840.628 805.062 838.65 830.509C836.673 855.956 868.729 895.074 868.729 895.074C868.729 895.074 931.688 862.874 933.666 837.427Z" fill="#FF6200"/><path d="M865.679 671.159C865.679 693.394 847.055 711.511 824.063 711.511C801.071 711.511 782.447 693.476 782.447 671.159C782.447 648.923 801.071 630.806 824.063 630.806C847.055 630.888 865.679 648.923 865.679 671.159Z" fill="#191515"/><path d="M851.175 630.72C851.175 652.955 832.551 671.073 809.559 671.073C786.567 671.073 767.943 653.038 767.943 630.72C767.943 608.485 786.567 590.367 809.559 590.367C832.551 590.367 851.175 608.485 851.175 630.72Z" fill="#191515"/><path d="M792.337 678.568C792.337 700.803 773.713 718.921 750.721 718.921C727.73 718.921 709.105 700.885 709.105 678.568C709.105 656.332 727.73 638.215 750.721 638.215C773.713 638.215 792.337 656.25 792.337 678.568Z" fill="#191515"/><path d="M852.906 712.495C852.906 720.237 846.396 726.578 838.402 726.578C830.409 726.578 823.898 720.237 823.898 712.495C823.898 704.754 830.409 698.413 838.402 698.413C846.396 698.413 852.906 704.754 852.906 712.495Z" fill="#FFC6AD"/><path d="M840.956 733.252C845.052 733.252 848.372 730.044 848.372 726.088C848.372 722.131 845.052 718.923 840.956 718.923C836.86 718.923 833.539 722.131 833.539 726.088C833.539 730.044 836.86 733.252 840.956 733.252Z" fill="#7070FF"/><path d="M754.347 712.495C754.347 720.237 747.837 726.578 739.844 726.578C731.85 726.578 725.34 720.237 725.34 712.495C725.34 704.754 731.85 698.413 739.844 698.413C747.837 698.413 754.347 704.672 754.347 712.495Z" fill="#FFC6AD"/><path d="M736.794 733.252C740.89 733.252 744.21 730.044 744.21 726.088C744.21 722.131 740.89 718.923 736.794 718.923C732.698 718.923 729.377 722.131 729.377 726.088C729.377 730.044 732.698 733.252 736.794 733.252Z" fill="#7070FF"/><path d="M753.275 784.472V739.343L825.052 739.425V784.472C825.052 803.66 808.983 819.225 789.205 819.225C769.345 819.225 753.275 803.66 753.275 784.472Z" fill="#F5B091"/><path d="M741.574 732.841V667.947C741.574 647.441 758.715 630.806 779.894 630.806H798.353C819.532 630.806 836.672 647.441 836.672 667.947V732.841C836.672 753.347 819.532 769.982 798.353 769.982H779.894C758.715 769.982 741.574 753.347 741.574 732.841Z" fill="#FFC6AD"/><path d="M742.151 715.543V690.755C742.151 670.249 759.127 653.614 780.058 653.614H786.403H792.007H798.352C819.284 653.614 836.26 670.249 836.26 690.755V715.543H843.677V667.531C843.677 645.296 825.052 627.261 802.143 627.261H776.35C753.44 627.261 734.816 645.296 734.816 667.531V715.543H742.151Z" fill="#191515"/><path d="M788.875 727.323C788.299 727.323 787.804 727.241 787.227 727.158C785.579 726.829 784.013 726.005 782.613 724.688C781.871 724.029 781.047 723.7 780.305 723.782C778.739 723.947 777.503 725.429 777.421 725.511L775.938 724.358C776.02 724.276 777.668 722.135 780.14 721.97C781.459 721.888 782.777 722.3 783.931 723.37C785.085 724.441 786.403 725.1 787.639 725.347C788.958 725.594 790.112 725.511 791.1 725.017C791.513 724.77 791.925 724.523 792.337 724.111C792.831 723.617 794.232 722.3 796.292 722.217C797.858 722.135 799.588 722.876 801.154 724.276L799.836 725.594C798.6 724.523 797.446 723.947 796.375 724.029C795.056 724.111 794.15 724.935 793.738 725.264C793.161 725.841 792.584 726.253 792.007 726.582C791.018 727.076 790.029 727.323 788.875 727.323Z" fill="#171111"/><path d="M814.009 676.509L814.586 676.674C820.272 678.732 824.557 683.427 826.205 689.356L796.621 678.568C801.895 675.191 808.323 674.45 814.009 676.509Z" fill="#191C15"/><path d="M765.142 675.767L764.565 675.85C758.632 677.085 753.605 681.12 751.133 686.72L782.036 680.214C777.338 676.179 771.158 674.532 765.142 675.767Z" fill="#191C15"/><path d="M784.508 745.685C784.508 745.685 803.049 763.555 811.208 736.955C811.208 736.955 800.66 727.155 795.303 739.426C795.303 739.426 788.546 736.955 784.508 745.685Z" fill="#891229"/><path d="M777.42 630.719C777.42 642.907 767.202 652.79 754.676 652.79C742.15 652.79 731.932 642.907 731.932 630.719C731.932 618.531 742.15 608.648 754.676 608.648C767.202 608.731 777.42 618.613 777.42 630.719Z" fill="#191515"/><path d="M766.871 668.108L755.664 648.179L762.751 644.226L773.959 664.155L766.871 668.108Z" fill="#FFC6AD"/><path d="M801.977 708.214C801.977 708.214 805.602 700.72 812.525 698.414C819.447 696.108 827.111 699.814 827.111 699.814C827.111 699.814 824.309 705.908 817.387 708.296C810.464 710.52 801.977 708.214 801.977 708.214Z" fill="white"/><path d="M801.977 708.213C803.79 696.19 819.447 691.084 829.006 696.766C828.429 697.672 827.276 699.566 826.699 700.472C824.556 699.237 813.514 694.872 803.46 706.566C802.965 707.143 802.883 707.472 801.977 708.213Z" fill="black"/><mask id="mask0_2737_5267" style="mask-type:luminance" maskUnits="userSpaceOnUse" x="803" y="696" width="26" height="13"><path d="M828.267 698.671C828.267 698.671 825.465 704.765 818.543 707.153C811.621 709.459 803.133 707.153 803.133 707.153C803.133 707.153 806.759 699.659 813.681 697.353C815.329 696.776 817.06 696.612 818.625 696.612C823.899 696.529 828.267 698.671 828.267 698.671Z" fill="white"/></mask><g mask="url(#mask0_2737_5267)"><path d="M807.336 699.656C807.336 702.867 810.055 705.503 813.352 705.503C816.648 705.503 819.367 702.867 819.367 699.656C819.367 696.444 816.648 693.809 813.352 693.809C810.055 693.809 807.336 696.444 807.336 699.656Z" fill="black"/></g><path d="M777.666 708.215C777.666 708.215 774.04 700.721 767.117 698.415C760.195 696.109 752.531 699.815 752.531 699.815C752.531 699.815 755.333 705.909 762.255 708.297C769.178 710.521 777.666 708.215 777.666 708.215Z" fill="white"/><path d="M777.666 708.214C775.853 696.191 760.196 691.085 750.637 696.767C751.214 697.673 752.367 699.567 752.944 700.473C755.087 699.238 766.129 694.873 776.183 706.567C776.677 707.144 776.76 707.473 777.666 708.214Z" fill="black"/><mask id="mask1_2737_5267" style="mask-type:luminance" maskUnits="userSpaceOnUse" x="752" y="697" width="26" height="13"><path d="M766.623 698.333C773.545 700.639 777.171 708.133 777.171 708.133C777.171 708.133 768.683 710.439 761.761 708.133C754.839 705.827 752.037 699.651 752.037 699.651C752.037 699.651 756.487 697.51 761.596 697.51C763.245 697.592 764.975 697.757 766.623 698.333Z" fill="white"/></mask><g mask="url(#mask1_2737_5267)"><path d="M769.672 698.249C769.672 701.461 766.953 704.096 763.656 704.096C760.36 704.096 757.641 701.461 757.641 698.249C757.641 695.038 760.36 692.402 763.656 692.402C766.953 692.485 769.672 695.038 769.672 698.249Z" fill="black"/></g><path d="M404.115 842.858L380.052 965.564C375.272 984.505 391.836 1002.21 411.778 999.329C422.079 997.846 430.65 991.094 434.276 981.623L474.903 854.223L404.115 842.858Z" fill="#F6A08F"/><path d="M379.392 871.52C379.392 871.52 405.844 823.591 435.758 811.402C460.48 811.402 487.18 826.72 489.076 850.602C490.971 874.485 438.56 916.814 438.56 916.814L379.392 871.52Z" fill="#7070FF"/><path d="M687.433 999.329L637.164 834.376L718.088 857.435L740.338 974.458C743.964 993.646 723.774 1010.12 704.079 1006.16" fill="#F6A08F"/><path d="M730.942 871.518C730.942 871.518 714.625 836.518 691.386 819.8C684.299 814.694 679.107 812.965 669.795 810.494C645.073 810.494 623.153 826.8 621.257 850.682C619.362 874.565 671.773 916.894 671.773 916.894L730.942 871.518Z" fill="#7070FF"/><path d="M441.033 1019.92L435.759 811.482C435.759 811.482 524.924 785.459 553.931 785.459C580.384 785.459 674.246 811.812 674.246 811.812L666.829 1020H441.033V1019.92Z" fill="#7070FF"/><path d="M593.57 801.025L592.746 756.308L519.156 757.872L519.98 802.26C520.228 816.672 534.402 828.119 551.625 827.79L562.915 827.625C580.055 827.296 593.817 815.437 593.57 801.025Z" fill="#F9C2B8"/><path d="M598.515 698.993C600.822 702.863 592.664 708.628 592.664 708.628L577.666 686.393C577.666 686.475 596.125 695.204 598.515 698.993Z" fill="#F9C2B8"/><path d="M591.18 705.581L567.282 668.522C552.366 645.381 520.804 638.299 496.906 652.793L474.409 666.381C461.224 674.369 457.268 691.169 465.427 703.934L501.521 759.852C516.437 782.993 547.999 790.075 571.897 775.581L574.946 773.769C598.844 759.275 606.096 728.722 591.18 705.581Z" fill="#F9C2B8"/><path d="M568.518 690.015C563.079 692.486 559.618 696.603 560.937 699.239C562.173 701.956 567.694 702.121 573.133 699.65C578.572 697.262 573.957 687.545 568.518 690.015Z" fill="white"/><path d="M575.118 698.818C576.872 697.951 577.215 695.067 575.883 692.376C574.552 689.685 572.051 688.206 570.297 689.073C568.542 689.94 568.199 692.824 569.531 695.515C570.862 698.206 573.363 699.684 575.118 698.818Z" fill="black"/><path d="M568.271 675.521L563.821 671.98C561.926 670.416 559.041 670.663 557.393 672.557L548.164 683.263C546.598 685.157 546.845 687.874 548.74 689.439L553.108 692.98H553.19L568.271 675.521Z" fill="#FF6200"/><path d="M521.382 736.463C529.619 736.463 536.297 730.011 536.297 722.051C536.297 714.092 529.619 707.64 521.382 707.64C513.144 707.64 506.466 714.092 506.466 722.051C506.466 730.011 513.144 736.463 521.382 736.463Z" fill="#F9C2B8"/><path d="M609.063 733.329L592.993 708.459L561.431 727.482L539.099 698.247L533.742 702.282L553.685 727.482L575.193 760.918C579.396 767.424 586.977 770.059 592.251 766.847L606.261 758.282C613.842 753.671 615.078 742.553 609.063 733.329Z" fill="#FF6200"/><path d="M599.75 729.05L604.53 726.168L597.855 715.791L582.362 725.179C586.071 730.944 593.817 732.673 599.75 729.05Z" fill="#F9C2B8"/><path d="M590.52 726.169L591.179 723.369C591.179 723.369 591.838 723.533 592.168 723.533C595.711 724.11 599.584 723.204 601.48 721.475L603.128 723.945C600.491 726.251 596.206 727.157 591.673 726.333C591.344 726.251 591.014 726.169 590.602 726.169H590.52Z" fill="black"/><path d="M469.959 665.308C449.275 680.544 442.435 706.403 454.384 724.355L459.164 731.685L460.07 731.026L459.164 731.767L516.766 787.355L534.978 751.944C539.181 743.873 535.967 733.991 527.809 729.626C526.243 728.803 525.089 727.979 524.513 727.32C520.475 722.214 521.464 714.885 526.82 710.932C526.82 710.932 533.165 706.65 539.181 708.873L556.981 732.179L562.42 728.144L536.132 693.967C532.506 689.356 527.15 686.885 521.628 686.638L529.869 680.708C545.691 669.014 549.564 649.744 539.346 636.732L528.056 622.567L469.959 665.308Z" fill="#FF6200"/><path d="M402.879 840.884L407.081 799.708L355 799.79L364.559 844.755L402.879 840.884Z" fill="#F9C2B8"/><path d="M364.395 842.779L370.822 992.002C372.141 1008.56 389.694 1021.57 406.752 1019.84C425.046 1017.94 437.408 1000.81 433.04 983.52L401.972 837.179L364.395 842.779Z" fill="#F9C2B8"/><path d="M418.207 800.038L417.795 799.709C414.498 797.238 409.801 797.815 407.247 801.026L378.486 837.015L390.765 846.238L419.525 810.25C422.08 807.121 421.421 802.509 418.207 800.038Z" fill="#F9C2B8"/><path d="M420.02 802.34C423.151 799.458 423.316 794.681 420.349 791.717L398.347 769.481L382.937 775.74L409.06 802.011C412.026 805.058 416.971 805.223 420.02 802.34Z" fill="#F9C2B8"/><path d="M405.268 814.035L405.762 813.787C409.553 812.14 411.201 807.776 409.471 804.152L394.967 773.682L380.793 780.023L395.297 810.493C397.027 814.117 401.477 815.682 405.268 814.035Z" fill="#F9C2B8"/><path d="M390.106 823.919L390.6 823.672C394.391 822.025 396.039 817.66 394.309 814.037L379.805 783.566L365.631 789.908L380.135 820.378C381.865 824.002 386.398 825.566 390.106 823.919Z" fill="#F9C2B8"/><path d="M355 799.791L365.713 810.744L404.032 775.332C404.032 775.332 397.028 767.179 393.155 767.097C379.969 766.685 355 799.791 355 799.791Z" fill="#F9C2B8"/><path d="M359.202 805.883L368.267 818.154L407.575 790.813L398.428 778.542L359.202 805.883Z" fill="#F9C2B8"/><path d="M626.78 873.175L729.048 963.022C743.469 975.704 743.881 997.445 729.955 1010.62C715.945 1023.88 693.283 1022.89 680.592 1008.4L597.855 914.022L626.78 873.175Z" fill="#F9C2B8"/><path d="M626.779 873.162L592.745 850.104C587.718 846.645 581.043 846.398 575.687 849.28L569.424 852.739L617.879 885.598L626.779 873.162Z" fill="#F9C2B8"/><path d="M581.124 923.812H528.878C526.406 923.812 524.428 921.835 524.428 919.365V820.953C524.428 818.482 526.406 816.506 528.878 816.506H581.124C583.596 816.506 585.574 818.482 585.574 820.953V919.365C585.492 921.835 583.514 923.812 581.124 923.812Z" fill="#232144"/><path d="M535.059 833.717C537.972 833.717 540.333 831.431 540.333 828.611C540.333 825.791 537.972 823.505 535.059 823.505C532.146 823.505 529.785 825.791 529.785 828.611C529.785 831.431 532.146 833.717 535.059 833.717Z" fill="#463EC5"/><path d="M592.086 899.103L537.12 894.244C533 893.915 529.456 896.797 529.044 900.75C528.632 904.703 531.681 908.244 535.802 908.574L590.767 913.433L592.086 899.103Z" fill="#F9C2B8"/><path d="M625.955 876.295L587.306 860.731L570.989 860.401L573.874 912.037L618.374 915.742L625.955 876.295Z" fill="#F9C2B8"/><path d="M582.938 873.907L519.65 865.589C515.612 865.095 511.821 867.813 511.326 871.766C510.75 875.719 513.634 879.342 517.672 879.836L580.961 888.154L582.938 873.907Z" fill="#F9C2B8"/><path d="M589.202 861.636L528.385 853.648C524.347 853.154 520.556 855.871 520.062 859.824C519.485 863.777 522.369 867.401 526.407 867.895L587.224 875.883L589.202 861.636Z" fill="#F9C2B8"/><path d="M581.95 887.412L527.232 880.247C523.194 879.753 519.403 882.471 518.908 886.424C518.332 890.377 521.216 894 525.254 894.494L579.972 901.659L581.95 887.412Z" fill="#F9C2B8"/><path d="M1033.87 809.422C1025.8 833.387 999.261 846.481 974.539 838.739C949.816 830.916 936.302 805.222 944.295 781.257C952.289 757.292 978.906 744.198 1003.63 751.94C1028.43 759.763 1041.95 785.457 1033.87 809.422Z" fill="#181111"/><path d="M1033.87 809.422C1025.8 833.387 999.261 846.481 974.539 838.739C949.816 830.916 936.302 805.222 944.295 781.257C952.289 757.292 978.906 744.198 1003.63 751.94C1028.43 759.763 1041.95 785.457 1033.87 809.422Z" fill="#181111"/><path d="M953.855 1019.01L947.18 806.047H1162.51L1151.14 1019.01H953.855Z" fill="#D8CBC5"/><path d="M889.164 869.208C886.609 836.843 911.661 808.678 945.036 806.29C978.411 803.82 990.937 828.114 993.491 860.396C996.046 892.761 971.818 942.584 971.818 942.584C971.818 942.584 891.718 901.49 889.164 869.208Z" fill="#D8CBC5"/><path d="M1220.94 869.208C1223.49 836.843 1198.44 808.678 1165.07 806.29C1131.69 803.82 1121.47 828.114 1119 860.396C1116.53 892.678 1138.37 942.584 1138.37 942.584C1138.37 942.584 1218.38 901.49 1220.94 869.208Z" fill="#D8CBC5"/><path d="M1113.73 798.802H1005.28V848.955H1113.73V798.802Z" fill="#D8CBC5"/><path d="M948.333 1020H860.074L889.823 855.128H985.169L948.333 1020Z" fill="#D8CBC5"/><path d="M1157.65 1019.01H1245L1219.54 851.338L1139.93 857.103L1157.65 1019.01Z" fill="#D8CBC5"/><path d="M1054.88 746.834C1046.81 770.799 1020.27 783.893 995.55 776.152C970.828 768.328 957.313 742.634 965.307 718.669C973.3 694.705 999.918 681.61 1024.64 689.352C1049.36 697.093 1062.96 722.869 1054.88 746.834Z" fill="#181111"/><path d="M1129.13 713.318C1129.13 721.635 1122.21 728.388 1113.64 728.388C1105.07 728.388 1098.15 721.635 1098.15 713.318C1098.15 705 1105.07 698.247 1113.64 698.247C1122.21 698.247 1129.13 705 1129.13 713.318Z" fill="#90411F"/><path d="M1023.82 713.237C1023.82 721.554 1016.89 728.307 1008.32 728.307C999.752 728.307 992.83 721.554 992.83 713.237C992.83 704.919 999.752 698.166 1008.32 698.166C1016.81 698.248 1023.82 704.919 1023.82 713.237Z" fill="#90411F"/><path d="M1010.14 719.987C1017.88 719.987 1024.15 726.081 1024.15 733.493V746.917C1024.15 754.411 1017.88 760.423 1010.14 760.423C1002.39 760.423 996.127 754.328 996.127 746.917V733.493C996.127 726.081 1002.39 719.987 1010.14 719.987Z" fill="#FF6200"/><path d="M1111.83 719.987C1119.57 719.987 1125.84 726.081 1125.84 733.493V746.917C1125.84 754.411 1119.57 760.423 1111.83 760.423C1104.08 760.423 1097.82 754.328 1097.82 746.917V733.493C1097.82 726.081 1104.08 719.987 1111.83 719.987Z" fill="#FF6200"/><path d="M1022.58 798.801V741.812L1099.3 741.895V798.718C1099.3 798.718 1082.16 798.883 1060.98 798.883C1039.8 798.965 1022.58 798.801 1022.58 798.801Z" fill="#763427"/><path d="M1010.13 734.812V665.47C1010.13 643.565 1028.51 625.776 1051.09 625.776H1070.79C1093.45 625.776 1111.74 643.565 1111.74 665.47V734.812C1111.74 756.717 1093.37 774.506 1070.79 774.506H1051.09C1028.43 774.588 1010.13 756.8 1010.13 734.812Z" fill="#90411F"/><path d="M1072.44 709.368C1074.25 697.015 1090.32 691.827 1100.21 697.592C1099.63 698.498 1098.48 700.474 1097.82 701.38C1095.59 700.063 1084.3 695.698 1074 707.639C1073.42 708.298 1073.34 708.627 1072.44 709.368Z" fill="black"/><path d="M1010.71 715.624V689.93C1010.71 668.024 1028.84 650.236 1051.18 650.236H1057.93V637.965H1063.95V650.236H1070.71C1093.04 650.236 1111.25 668.024 1111.25 689.93V715.624H1119.16V665.142C1119.16 641.342 1099.3 622.071 1074.74 622.071H1047.22C1022.66 622.071 1002.8 641.342 1002.8 665.142V715.624H1010.71Z" fill="#181111"/><path d="M1103.34 654.849C1119.9 673.543 1118.91 700.72 1118.91 700.72C1118.91 700.72 1091.06 697.508 1074.5 678.814C1057.93 660.12 1058.92 632.943 1058.92 632.943C1058.92 632.943 1086.69 636.073 1103.34 654.849Z" fill="#181111"/><path d="M1060.57 730.448C1059.99 730.448 1059.42 730.366 1058.76 730.284C1057.03 729.954 1055.3 729.048 1053.81 727.648C1052.99 726.907 1052.16 726.578 1051.34 726.66C1049.61 726.825 1048.29 728.472 1048.29 728.472L1046.64 727.319C1046.72 727.237 1048.54 724.931 1051.09 724.766C1052.49 724.601 1053.89 725.178 1055.13 726.248C1056.37 727.401 1057.77 728.06 1059.09 728.39C1060.49 728.637 1061.72 728.554 1062.79 727.978C1063.21 727.731 1063.7 727.401 1064.11 726.99C1064.69 726.413 1066.17 725.095 1068.32 725.013C1070.05 724.931 1071.78 725.672 1073.51 727.237L1072.11 728.637C1070.79 727.484 1069.55 726.907 1068.4 726.907C1067 726.99 1066.01 727.895 1065.6 728.307C1065.02 728.884 1064.36 729.378 1063.7 729.707C1062.88 730.119 1061.72 730.448 1060.57 730.448Z" fill="black"/><path d="M1031.48 681.367L1030.9 681.532C1024.81 683.673 1020.11 688.614 1018.21 694.956L1050.02 683.838C1044.5 680.214 1037.66 679.226 1031.48 681.367Z" fill="#181111"/><path d="M1086.69 681.367L1087.27 681.532C1093.37 683.673 1098.06 688.614 1099.96 694.956L1068.15 683.838C1073.67 680.214 1080.51 679.226 1086.69 681.367Z" fill="#181111"/><path d="M1047.47 709.366C1047.47 709.366 1043.76 701.707 1036.67 699.236C1029.58 696.848 1021.76 700.636 1021.76 700.636C1021.76 700.636 1024.64 706.895 1031.73 709.283C1038.81 711.754 1047.47 709.366 1047.47 709.366Z" fill="white"/><path d="M1047.47 709.367C1045.66 697.096 1029.59 691.825 1019.7 697.59C1020.27 698.496 1021.43 700.39 1022.09 701.378C1024.23 700.061 1035.6 695.696 1045.9 707.637C1046.56 708.296 1046.64 708.625 1047.47 709.367Z" fill="black"/><path d="M1072.52 709.366C1072.52 709.366 1076.23 701.707 1083.31 699.236C1090.4 696.848 1098.23 700.636 1098.23 700.636C1098.23 700.636 1095.34 706.895 1088.26 709.283C1081.17 711.754 1072.52 709.366 1072.52 709.366Z" fill="white"/><path d="M1072.52 709.367C1074.33 697.096 1090.4 691.825 1100.29 697.59C1099.71 698.496 1098.56 700.39 1097.9 701.378C1095.76 700.061 1084.38 695.696 1074.08 707.637C1073.42 708.296 1073.34 708.625 1072.52 709.367Z" fill="black"/><mask id="mask2_2737_5267" style="mask-type:luminance" maskUnits="userSpaceOnUse" x="1018" y="696" width="27" height="13"><path d="M1018.71 698.665C1018.71 698.665 1021.59 704.924 1028.68 707.312C1035.76 709.701 1044.5 707.312 1044.5 707.312C1044.5 707.312 1040.79 699.653 1033.7 697.183C1031.97 696.606 1030.24 696.359 1028.59 696.359C1023.24 696.442 1018.71 698.665 1018.71 698.665Z" fill="white"/></mask><g mask="url(#mask2_2737_5267)"><path d="M1037.74 701.876C1037.74 705.17 1035.02 707.805 1031.56 707.805C1028.18 707.805 1025.38 705.17 1025.38 701.876C1025.38 698.581 1028.1 695.946 1031.56 695.946C1035.02 695.864 1037.74 698.581 1037.74 701.876Z" fill="black"/></g><mask id="mask3_2737_5267" style="mask-type:luminance" maskUnits="userSpaceOnUse" x="1073" y="697" width="27" height="13"><path d="M1084.55 698.172C1077.46 700.56 1073.75 708.301 1073.75 708.301C1073.75 708.301 1082.41 710.689 1089.58 708.301C1096.66 705.913 1099.55 699.654 1099.55 699.654C1099.55 699.654 1095.02 697.431 1089.74 697.431C1087.93 697.431 1086.2 697.678 1084.55 698.172Z" fill="white"/></mask><g mask="url(#mask3_2737_5267)"><path d="M1076.56 703.193C1076.56 706.487 1079.28 709.122 1082.74 709.122C1086.12 709.122 1088.92 706.487 1088.92 703.193C1088.92 699.899 1086.2 697.264 1082.74 697.264C1079.36 697.181 1076.56 699.899 1076.56 703.193Z" fill="black"/></g><path d="M1068.32 748.812H1067.9C1064.53 748.812 1061.81 746.095 1061.81 742.718C1061.81 739.342 1064.53 736.624 1067.9 736.624H1068.32C1071.7 736.624 1074.42 739.342 1074.42 742.718C1074.42 746.095 1071.7 748.812 1068.32 748.812Z" fill="black"/><path d="M1054.88 746.834C1046.81 770.799 1020.27 783.893 995.55 776.152C970.828 768.328 957.313 742.634 965.307 718.669C973.3 694.705 999.918 681.61 1024.64 689.352C1049.36 697.093 1062.96 722.869 1054.88 746.834Z" fill="#181111"/><path d="M1129.13 713.318C1129.13 721.635 1122.21 728.388 1113.64 728.388C1105.07 728.388 1098.15 721.635 1098.15 713.318C1098.15 705 1105.07 698.247 1113.64 698.247C1122.21 698.247 1129.13 705 1129.13 713.318Z" fill="#90411F"/><path d="M1023.82 713.237C1023.82 721.554 1016.89 728.307 1008.32 728.307C999.752 728.307 992.83 721.554 992.83 713.237C992.83 704.919 999.752 698.166 1008.32 698.166C1016.81 698.248 1023.82 704.919 1023.82 713.237Z" fill="#90411F"/><path d="M1010.14 719.987C1017.88 719.987 1024.15 726.081 1024.15 733.493V746.917C1024.15 754.411 1017.88 760.423 1010.14 760.423C1002.39 760.423 996.127 754.328 996.127 746.917V733.493C996.127 726.081 1002.39 719.987 1010.14 719.987Z" fill="#FF6200"/><path d="M1111.83 719.987C1119.57 719.987 1125.84 726.081 1125.84 733.493V746.917C1125.84 754.411 1119.57 760.423 1111.83 760.423C1104.08 760.423 1097.82 754.328 1097.82 746.917V733.493C1097.82 726.081 1104.08 719.987 1111.83 719.987Z" fill="#FF6200"/><path d="M1022.58 798.801V741.812L1099.3 741.895V798.718C1099.3 798.718 1082.16 798.883 1060.98 798.883C1039.8 798.965 1022.58 798.801 1022.58 798.801Z" fill="#763427"/><path d="M1010.13 734.812V665.47C1010.13 643.565 1028.51 625.776 1051.09 625.776H1070.79C1093.45 625.776 1111.74 643.565 1111.74 665.47V734.812C1111.74 756.717 1093.37 774.506 1070.79 774.506H1051.09C1028.43 774.588 1010.13 756.8 1010.13 734.812Z" fill="#90411F"/><path d="M1072.44 709.368C1074.25 697.015 1090.32 691.827 1100.21 697.592C1099.63 698.498 1098.48 700.474 1097.82 701.38C1095.59 700.063 1084.3 695.698 1074 707.639C1073.42 708.298 1073.34 708.627 1072.44 709.368Z" fill="black"/><path d="M1010.71 715.624V689.93C1010.71 668.024 1028.84 650.236 1051.18 650.236H1057.93V637.965H1063.95V650.236H1070.71C1093.04 650.236 1111.25 668.024 1111.25 689.93V715.624H1119.16V665.142C1119.16 641.342 1099.3 622.071 1074.74 622.071H1047.22C1022.66 622.071 1002.8 641.342 1002.8 665.142V715.624H1010.71Z" fill="#181111"/><path d="M1103.34 654.849C1119.9 673.543 1118.91 700.72 1118.91 700.72C1118.91 700.72 1091.06 697.508 1074.5 678.814C1057.93 660.12 1058.92 632.943 1058.92 632.943C1058.92 632.943 1086.69 636.073 1103.34 654.849Z" fill="#181111"/><path d="M1060.57 730.448C1059.99 730.448 1059.42 730.366 1058.76 730.284C1057.03 729.954 1055.3 729.048 1053.81 727.648C1052.99 726.907 1052.16 726.578 1051.34 726.66C1049.61 726.825 1048.29 728.472 1048.29 728.472L1046.64 727.319C1046.72 727.237 1048.54 724.931 1051.09 724.766C1052.49 724.601 1053.89 725.178 1055.13 726.248C1056.37 727.401 1057.77 728.06 1059.09 728.39C1060.49 728.637 1061.72 728.554 1062.79 727.978C1063.21 727.731 1063.7 727.401 1064.11 726.99C1064.69 726.413 1066.17 725.095 1068.32 725.013C1070.05 724.931 1071.78 725.672 1073.51 727.237L1072.11 728.637C1070.79 727.484 1069.55 726.907 1068.4 726.907C1067 726.99 1066.01 727.895 1065.6 728.307C1065.02 728.884 1064.36 729.378 1063.7 729.707C1062.88 730.119 1061.72 730.448 1060.57 730.448Z" fill="black"/><path d="M1031.48 681.367L1030.9 681.532C1024.81 683.673 1020.11 688.614 1018.21 694.956L1050.02 683.838C1044.5 680.214 1037.66 679.226 1031.48 681.367Z" fill="#181111"/><path d="M1086.69 681.367L1087.27 681.532C1093.37 683.673 1098.06 688.614 1099.96 694.956L1068.15 683.838C1073.67 680.214 1080.51 679.226 1086.69 681.367Z" fill="#181111"/><path d="M1047.47 709.366C1047.47 709.366 1043.76 701.707 1036.67 699.236C1029.58 696.848 1021.76 700.636 1021.76 700.636C1021.76 700.636 1024.64 706.895 1031.73 709.283C1038.81 711.754 1047.47 709.366 1047.47 709.366Z" fill="white"/><path d="M1047.47 709.367C1045.66 697.096 1029.59 691.825 1019.7 697.59C1020.27 698.496 1021.43 700.39 1022.09 701.378C1024.23 700.061 1035.6 695.696 1045.9 707.637C1046.56 708.296 1046.64 708.625 1047.47 709.367Z" fill="black"/><path d="M1072.52 709.366C1072.52 709.366 1076.23 701.707 1083.31 699.236C1090.4 696.848 1098.23 700.636 1098.23 700.636C1098.23 700.636 1095.34 706.895 1088.26 709.283C1081.17 711.754 1072.52 709.366 1072.52 709.366Z" fill="white"/><path d="M1072.52 709.367C1074.33 697.096 1090.4 691.825 1100.29 697.59C1099.71 698.496 1098.56 700.39 1097.9 701.378C1095.76 700.061 1084.38 695.696 1074.08 707.637C1073.42 708.296 1073.34 708.625 1072.52 709.367Z" fill="black"/><mask id="mask4_2737_5267" style="mask-type:luminance" maskUnits="userSpaceOnUse" x="1018" y="696" width="27" height="13"><path d="M1018.71 698.665C1018.71 698.665 1021.59 704.924 1028.68 707.312C1035.76 709.701 1044.5 707.312 1044.5 707.312C1044.5 707.312 1040.79 699.653 1033.7 697.183C1031.97 696.606 1030.24 696.359 1028.59 696.359C1023.24 696.442 1018.71 698.665 1018.71 698.665Z" fill="white"/></mask><g mask="url(#mask4_2737_5267)"><path d="M1036.01 699.32C1036.01 702.614 1033.29 705.249 1029.83 705.249C1026.45 705.249 1023.65 702.614 1023.65 699.32C1023.65 696.026 1026.37 693.391 1029.83 693.391C1033.29 693.391 1036.01 696.026 1036.01 699.32Z" fill="black"/></g><mask id="mask5_2737_5267" style="mask-type:luminance" maskUnits="userSpaceOnUse" x="1073" y="697" width="27" height="13"><path d="M1084.55 698.172C1077.46 700.56 1073.75 708.301 1073.75 708.301C1073.75 708.301 1082.41 710.689 1089.58 708.301C1096.66 705.913 1099.55 699.654 1099.55 699.654C1099.55 699.654 1095.02 697.431 1089.74 697.431C1087.93 697.431 1086.2 697.678 1084.55 698.172Z" fill="white"/></mask><g mask="url(#mask5_2737_5267)"><path d="M1075.73 700.638C1075.73 703.933 1078.45 706.568 1081.91 706.568C1085.29 706.568 1088.09 703.933 1088.09 700.638C1088.09 697.344 1085.37 694.709 1081.91 694.709C1078.45 694.709 1075.73 697.344 1075.73 700.638Z" fill="black"/></g><path d="M1068.64 740.165C1068.15 737.694 1073.51 736.871 1073.51 736.871L1085.37 734.812C1085.21 734.4 1080.02 746.918 1070.05 748.729C1060.16 750.459 1051.01 740.823 1051.01 740.823L1062.88 738.765C1062.88 738.682 1068.23 737.859 1068.64 740.165Z" fill="#FF6200"/><path d="M1069.47 840.801L1100.21 795.918C1102.27 792.954 1101.44 789.001 1098.39 787.024C1095.35 785.048 1091.23 785.789 1089.25 788.754L1070.71 816.095L1069.88 815.601L1093.29 781.177C1095.35 778.212 1094.52 774.26 1091.47 772.283C1088.42 770.307 1084.3 771.048 1082.33 774.012L1060.49 806.048L1059.66 805.554L1084.3 769.401C1086.36 766.436 1085.54 762.483 1082.49 760.507C1079.44 758.53 1075.32 759.271 1073.34 762.236L1047.06 800.695L1046.23 800.201L1068.65 767.342C1070.71 764.377 1069.88 760.424 1066.83 758.448C1063.78 756.471 1059.66 757.213 1057.69 760.177L1029.26 801.848L1030.99 782.66C1031.23 779.118 1028.51 776.071 1024.89 775.824C1021.26 775.577 1018.05 778.213 1017.8 781.754L1015.08 814.036C1014.5 822.189 1015.16 830.342 1017.22 838.33L996.457 868.142L1030.82 890.624L1058.02 851.671C1062.14 849.118 1065.76 845.824 1068.56 841.954L1069.47 840.801Z" fill="#9F5621"/><path d="M944.872 1020L1052.66 859.659L1018.21 837.671L877.298 976.024C864.607 987.8 861.558 1005.34 867.656 1019.92H944.872V1020Z" fill="#9F5621"/><path d="M919.902 328.073H880.677C881.501 325.273 883.066 322.638 885.209 320.579C886.445 319.344 887.269 317.614 887.269 315.72C887.269 311.932 884.138 308.803 880.182 308.803H741.49C739.513 308.803 737.782 309.544 736.464 310.862C735.228 312.097 734.403 313.826 734.403 315.72C734.403 317.697 735.227 319.426 736.546 320.662C738.771 322.72 740.337 325.356 741.078 328.156H701.77C698.639 328.156 696.084 330.626 696.084 333.673V357.226C696.084 395.438 727.811 426.403 766.872 426.403H774.453C777.173 429.367 779.975 431.92 782.941 434.226C791.512 440.814 796.621 450.861 796.621 461.485C796.621 472.356 790.605 482.32 780.964 487.591L775.36 490.638C774.453 491.132 773.877 492.038 773.877 493.026V505.214H847.549V493.026C847.549 492.038 846.972 491.132 846.065 490.638L840.462 487.591C830.82 482.238 824.804 472.273 824.804 461.485C824.804 450.779 829.996 440.814 838.566 434.144C841.451 431.92 844.253 429.285 846.89 426.403H854.471C893.532 426.403 925.259 395.438 925.259 357.226V333.673C925.589 330.544 923.034 328.073 919.902 328.073ZM765.883 415.285C733.579 414.709 707.456 388.85 707.456 357.144V339.191H742.067C744.457 369.497 753.192 396.344 765.883 415.285ZM914.216 357.144C914.216 388.85 888.093 414.709 855.79 415.285C868.48 396.344 877.215 369.497 879.605 339.191H914.216V357.144Z" fill="#FAA332"/><path d="M860.24 504.228H761.516V550.757H860.24V504.228Z" fill="#242143"/><path d="M844.913 513.776H776.762V541.118H844.913V513.776Z" fill="#E6E3DA"/><path d="M1102.76 707.226H1019.29V713.649H1102.76V707.226Z" fill="#90411F"/><path d="M832.633 707.226H751.627V715.543H832.633V707.226Z" fill="#FFC6AD"/></svg>