<svg viewBox="0 0 1600 1200" fill="none" xmlns="http://www.w3.org/2000/svg"><path d="M634.529 958.761V821.449H606.803V958.761H506.732V986.498H734.599V958.761H634.529Z" fill="#C6C6C6"/><path d="M792.545 317.727H448.786C431.154 317.727 416.86 332.02 416.86 349.653V349.663C416.86 367.296 431.154 381.59 448.786 381.59H792.545C810.177 381.59 824.471 367.296 824.471 349.663V349.653C824.471 332.02 810.177 317.727 792.545 317.727Z" fill="#103256"/><path d="M780.102 596.764H461.219L417.359 355.305H823.972L780.102 596.764Z" fill="#103256"/><path d="M792.545 575.645H448.786C431.154 575.645 416.86 589.938 416.86 607.571V607.581C416.86 625.214 431.154 639.508 448.786 639.508H792.545C810.177 639.508 824.471 625.214 824.471 607.581V607.571C824.471 589.938 810.177 575.645 792.545 575.645Z" fill="#103256"/><path d="M620.661 854.682C528.335 854.682 449.223 788.625 432.714 697.743L417.359 613.223H823.972L808.617 697.743C792.109 788.625 712.996 854.682 620.671 854.682H620.661Z" fill="#103256"/><path d="M444.545 431.324L414.595 504.949H484.891L502.273 463.23L444.545 431.324Z" fill="#FFC4B8"/><path d="M799.252 428.498C799.252 428.498 779.178 372.837 744.684 364.105V364.032C744.684 364.032 644.135 335.422 617.117 335.422C588.622 335.422 503.303 360.788 496.67 362.774C460.16 369.875 438.734 427.063 438.734 427.063L498.323 468.658L501.432 628.643H732.469L739.86 468.658L799.252 428.508V428.498Z" fill="#FF6200"/><path d="M794.771 431.324L831.115 504.949L758.084 508.754L739.86 468.646L794.771 431.324Z" fill="#FFC4B8"/><path d="M628.386 455.749L584.099 465.999L582.748 466.311L578.267 467.403C573.444 468.577 570.481 473.443 571.656 478.267C572.331 481.053 574.244 483.215 576.666 484.317C574.286 486.459 573.121 489.806 573.932 493.143C574.837 496.855 577.924 499.454 581.49 499.932C580.097 501.97 579.525 504.558 580.159 507.147C580.929 510.307 583.278 512.657 586.168 513.582C586.095 514.497 586.168 515.443 586.397 516.389C587.53 521.067 592.146 523.989 596.824 523.084L596.907 523.406L642.441 510.661L787.463 553.576C807.714 559.564 828.786 547.047 833.205 526.4C837.581 505.92 823.744 486.022 803.015 482.997L639.53 459.179L628.427 455.738L628.386 455.749Z" fill="#FFC4B8"/><path d="M646.204 1002.46L749.799 1015.44C759.997 1016.72 769.416 1009.78 771.246 999.667C771.246 999.667 773.772 988.117 764.384 984.499C757.045 981.672 725.119 970.631 711.553 965.942C707.987 964.716 705.814 961.119 706.376 957.386L711.158 925.585L638.74 913.785L629.457 980.58C627.97 991.267 635.507 1001.11 646.215 1002.45L646.204 1002.46Z" fill="#103256"/><path d="M704.961 628.152H544.574V715.344H704.961V628.152Z" fill="#F7E5CD"/><path d="M655.279 354.984V298.024L582.279 297.816V354.984C582.279 369.809 594.307 381.827 609.142 381.827H628.416C643.251 381.827 655.279 369.809 655.279 354.984Z" fill="#FFA28F"/><path d="M682.246 273.003C682.246 264.904 675.718 258.334 667.63 258.24V224.848C667.63 202.84 649.967 185 628.177 185H609.392C587.602 185 569.94 202.84 569.94 224.848V258.24C561.852 258.324 555.323 264.894 555.323 273.003C555.323 281.112 561.852 287.672 569.94 287.765V292.776C569.94 314.785 587.602 332.624 609.392 332.624H628.177C649.967 332.624 667.63 314.785 667.63 292.776V287.765C675.718 287.682 682.246 281.112 682.246 273.003Z" fill="#FFC4B8"/><path d="M630.724 266.076C631.317 269.018 636.608 270.432 642.544 269.247C648.48 268.051 652.805 264.704 652.223 261.762C651.63 258.82 646.339 257.406 640.403 258.591C634.467 259.786 630.142 263.134 630.724 266.076Z" fill="white"/><path d="M618.229 308.723C613.499 308.723 609.195 306.935 606.295 303.733L608.54 301.695C611.035 304.45 614.892 305.906 619.113 305.667C622.741 305.459 625.943 304.024 627.461 301.903L629.925 303.671C627.846 306.561 623.864 308.432 619.279 308.692C618.926 308.713 618.572 308.723 618.219 308.723" fill="#1D1D1B"/><path fill-rule="evenodd" clip-rule="evenodd" d="M612.085 243.966C612.085 242.333 611.441 240.774 610.287 239.631C609.133 238.477 607.574 237.832 605.941 237.832H585.41C583.777 237.832 582.218 238.477 581.064 239.631C579.91 240.784 579.266 242.344 579.266 243.966V249.382H612.075V243.966H612.085Z" fill="#191C15"/><path fill-rule="evenodd" clip-rule="evenodd" d="M658.014 243.966C658.014 242.333 657.37 240.774 656.216 239.631C655.062 238.477 653.502 237.832 651.87 237.832H631.338C629.706 237.832 628.147 238.477 626.993 239.631C625.839 240.784 625.194 242.344 625.194 243.966V249.382H658.004V243.966H658.014Z" fill="#191C15"/><path d="M617.501 288.17C615.225 288.17 613.416 287.048 611.836 286.05C609.226 284.417 607.646 283.43 604.496 286.569L602.448 284.521C607.23 279.739 610.63 281.881 613.374 283.596C614.757 284.459 616.056 285.28 617.501 285.28C618.946 285.28 620.215 284.521 621.514 283.731C624.113 282.141 627.346 280.155 632.711 284.605L630.86 286.829C627.097 283.71 625.475 284.698 623.032 286.195C621.514 287.12 619.799 288.17 617.501 288.17Z" fill="#1D1D1B"/><path d="M605.245 266.076C604.653 269.018 599.361 270.432 593.425 269.247C587.489 268.051 583.165 264.704 583.747 261.762C584.339 258.82 589.631 257.406 595.567 258.591C601.503 259.786 605.828 263.134 605.245 266.076Z" fill="white"/><path d="M746.69 533.523H722.51V528.273L746.69 528.512C772.815 528.512 794.075 507.252 794.075 481.106V381.772C794.075 356.031 773.138 334.761 747.408 334.376L729.225 334.106C700.772 333.679 677.631 310.174 677.631 281.709V273.008H682.631V281.709C682.631 307.46 703.568 328.72 729.298 329.105L747.481 329.375C775.934 329.802 799.075 353.318 799.075 381.772V481.106C799.075 510.007 775.57 533.513 746.69 533.513V533.523Z" fill="#FF6200"/><path d="M518.241 380.426H719.744C723.705 380.426 726.927 383.649 726.927 387.609V524.328H511.058V387.609C511.058 383.649 514.28 380.426 518.241 380.426Z" fill="#C6C6C6"/><path d="M726.927 524.328H511.058V540.795H726.927V524.328Z" fill="#A8A8A8"/><path d="M595.826 1006.87L492.231 1019.85C482.033 1021.13 472.615 1014.19 470.785 1004.08C470.785 1004.08 468.259 992.527 477.646 988.91C484.986 986.082 516.911 975.041 530.478 970.352C534.044 969.126 536.216 965.529 535.655 961.797L530.873 929.995L603.29 918.195L612.574 984.99C614.06 995.677 606.523 1005.52 595.816 1006.86L595.826 1006.87Z" fill="#FF6200"/><path d="M611.67 976.539C611.67 976.539 586.772 979.762 594.226 1007.08C594.226 1007.08 618.198 1006.47 611.67 976.539Z" fill="#103256"/><path d="M492.241 1019.85C482.043 1021.13 472.624 1014.19 470.795 1004.08C470.795 1004.08 468.268 992.527 477.656 988.909L486.96 985.25L501.223 1018.71L492.241 1019.84V1019.85Z" fill="#103256"/><path d="M524.271 945.517L607.563 934.507L561.873 585.843C560.979 557.919 538.056 535.547 509.894 535.547C481.732 535.547 457.873 558.824 457.873 587.538C457.873 590.438 458.123 593.287 458.58 596.062H458.549L524.261 945.517H524.271Z" fill="#F7E5CD"/><path d="M645.756 265.369C648.709 265.369 651.1 263.01 651.173 260.068C649.27 258.352 645.091 257.687 640.506 258.581C640.392 259.018 640.319 259.465 640.319 259.932C640.319 262.937 642.752 265.359 645.756 265.359V265.369Z" fill="black"/><path d="M599.942 266.193C601.938 266.193 603.664 265.112 604.61 263.511C603.207 261.4 599.807 259.456 595.586 258.604C595.399 258.562 595.212 258.542 595.015 258.5C594.703 259.186 594.516 259.945 594.516 260.756C594.516 263.76 596.948 266.183 599.953 266.183L599.942 266.193Z" fill="black"/><path fill-rule="evenodd" clip-rule="evenodd" d="M663.96 225.193H664.656V258.398H668.627V205.471C668.627 194.171 659.458 185.012 648.158 185.012H589.567C578.256 185.012 569.098 194.171 569.098 205.471V258.398H573.069V225.193H663.97H663.96Z" fill="#191C15"/><path d="M677.724 258.397H667.723V205.47C667.723 196.946 660.03 190.011 650.57 190.011H587.166C577.705 190.011 570.013 196.946 570.013 205.47V258.397H560.012V205.47C560.012 191.425 572.196 180 587.166 180H650.57C665.54 180 677.724 191.425 677.724 205.47V258.397Z" fill="#FF6200"/><path d="M554.191 247.043H570.013V294.179H554.191C547.964 294.179 542.911 289.126 542.911 282.899V258.333C542.911 252.106 547.964 247.053 554.191 247.053V247.043Z" fill="#FF6200"/><path d="M683.494 294.098H667.671V246.962H683.494C689.721 246.962 694.773 252.014 694.773 258.242V282.808C694.773 289.035 689.721 294.087 683.494 294.087V294.098Z" fill="#FF6200"/><path d="M717.696 296.65V291.92C726.512 291.92 733.685 282.293 733.685 270.452C733.685 258.611 726.512 248.984 717.696 248.984V244.254C729.121 244.254 738.415 256.001 738.415 270.452C738.415 284.903 729.121 296.65 717.696 296.65Z" fill="#C6C6C6"/><path d="M733.913 317.872L731.605 313.745C744.818 306.332 753.364 289.345 753.364 270.455C753.364 251.566 744.725 234.37 731.366 227.031L733.643 222.883C748.499 231.044 758.094 249.715 758.094 270.445C758.094 291.175 748.602 309.628 733.924 317.861L733.913 317.872Z" fill="#C6C6C6"/><path d="M749.976 333.904L746.93 330.286C762.555 317.115 771.89 294.742 771.89 270.457C771.89 246.172 762.679 224.101 747.242 210.898L750.319 207.301C766.786 221.398 776.62 245.007 776.62 270.457C776.62 295.907 766.661 319.838 749.976 333.904Z" fill="#C6C6C6"/><path d="M764.727 348.555L761.38 345.207C779.334 327.212 789.636 299.963 789.636 270.449C789.636 240.934 779.448 213.998 761.681 196.003L765.05 192.676C783.679 211.555 794.366 239.905 794.366 270.449C794.366 300.993 783.565 329.675 764.727 348.544V348.555Z" fill="#C6C6C6"/><path d="M518.408 296.963C506.983 296.963 497.689 285.215 497.689 270.765C497.689 256.314 506.983 244.566 518.408 244.566V249.297C509.593 249.297 502.42 258.923 502.42 270.765C502.42 282.606 509.593 292.232 518.408 292.232V296.963Z" fill="#C6C6C6"/><path d="M502.471 318.341C487.615 310.18 478.02 291.508 478.02 270.768C478.02 250.028 487.511 231.585 502.19 223.352L504.498 227.479C491.285 234.891 482.739 251.878 482.739 270.768C482.739 289.658 491.378 306.853 504.737 314.193L502.46 318.341H502.471Z" fill="#C6C6C6"/><path d="M485.786 333.932C469.319 319.835 459.484 296.225 459.484 270.775C459.484 245.326 469.444 221.394 486.129 207.328L489.175 210.946C473.55 224.118 464.215 246.49 464.215 270.775C464.215 295.061 473.425 317.132 488.863 330.335L485.786 333.932Z" fill="#C6C6C6"/><path d="M471.056 348.552C452.426 329.673 441.739 301.333 441.739 270.779C441.739 240.225 452.541 211.552 471.378 192.684L474.725 196.031C456.772 214.027 446.469 241.275 446.469 270.789C446.469 300.304 456.657 327.24 474.424 345.236L471.056 348.563V348.552Z" fill="#C6C6C6"/><path d="M783.138 594.513H783.066C783.367 592.226 783.544 589.908 783.544 587.538C783.544 558.824 760.257 535.547 731.523 535.547C704.712 535.547 682.652 555.819 679.814 581.851L633.636 934.497L720.14 945.506L783.128 594.503L783.138 594.513Z" fill="#F7E5CD"/><path d="M651.339 537.211L604.87 519.871L599.298 535.558L645.528 552.805C649.884 554.427 654.718 552.171 656.277 547.794C657.795 543.511 655.602 538.802 651.35 537.211H651.339Z" fill="#FFC4B8"/><path d="M702.642 603.926L660.02 557.605L655.812 561.477L698.435 607.798L702.642 603.926Z" fill="#1D1D1B"/><path d="M712.062 623.431L728.509 565.556C729.881 561.138 730.941 556.647 728.8 553.049C727.417 550.69 724.86 549.141 721.252 548.434L720.14 554.099C722.073 554.474 723.321 555.097 723.851 556.002C725.099 558.144 723.071 563.809 723.071 563.809L706.573 621.861L712.073 623.421L712.062 623.431Z" fill="#1D1D1B"/><path d="M642.264 558.876L658.711 501.001C660.083 496.583 661.143 492.092 659.002 488.495C657.619 486.135 655.062 484.586 651.454 483.879L650.342 489.545C652.276 489.919 653.523 490.543 654.053 491.447C655.301 493.589 653.274 499.255 653.274 499.255L636.775 557.306L642.275 558.866L642.264 558.876Z" fill="#1D1D1B"/><path d="M649.177 588.355C662.262 588.355 672.87 577.743 672.87 564.652C672.87 551.561 662.262 540.949 649.177 540.949C636.093 540.949 625.485 551.561 625.485 564.652C625.485 577.743 636.093 588.355 649.177 588.355Z" fill="#1D1D1B"/><path d="M649.178 583.282C659.461 583.282 667.797 574.942 667.797 564.653C667.797 554.364 659.461 546.023 649.178 546.023C638.895 546.023 630.559 554.364 630.559 564.653C630.559 574.942 638.895 583.282 649.178 583.282Z" fill="#1D1D1B"/><path d="M691.791 634.691C704.876 634.691 715.483 624.079 715.483 610.988C715.483 597.897 704.876 587.285 691.791 587.285C678.706 587.285 668.099 597.897 668.099 610.988C668.099 624.079 678.706 634.691 691.791 634.691Z" fill="#1D1D1B"/><path d="M691.79 629.618C702.073 629.618 710.409 621.277 710.409 610.989C710.409 600.7 702.073 592.359 691.79 592.359C681.507 592.359 673.171 600.7 673.171 610.989C673.171 621.277 681.507 629.618 691.79 629.618Z" fill="#1D1D1B"/><path d="M684.575 546.818L665.748 515.276L665.676 515.318L621.867 488.018V487.987L579.234 489.713V489.848L505.642 488.787L447.737 486.334C426.81 485.45 409.512 502.427 410.011 523.365C410.51 544.469 428.889 560.697 449.899 558.576L600.889 536.672L617.543 541.849L618.77 526.504L619.664 527.055L643.595 553.077C646.703 556.455 651.974 556.684 655.353 553.565C655.914 553.045 656.382 552.463 656.777 551.84L661.933 558.119C664.501 561.248 669.127 561.705 672.256 559.138L673.275 558.296C675.801 559.751 679.013 559.834 681.685 558.233C685.625 555.873 686.914 550.769 684.565 546.829L684.575 546.818Z" fill="#FFC4B8"/><path d="M630.372 972.129C630.372 972.129 655.27 975.352 647.816 1002.67C647.816 1002.67 623.843 1002.06 630.372 972.129Z" fill="#FF6200"/><path d="M749.798 1015.44C759.997 1016.72 769.415 1009.78 771.245 999.667C771.245 999.667 773.771 988.117 764.384 984.499L755.08 980.84L740.816 1014.3L749.798 1015.43V1015.44Z" fill="#FF6200"/><path d="M963.422 588.91H955.376C941.186 588.91 929.667 577.391 929.667 563.201V529.413H989.142V563.201C989.142 577.391 977.623 588.91 963.433 588.91H963.422Z" fill="#F7E5CD"/><path fill-rule="evenodd" clip-rule="evenodd" d="M923.606 538.688C915.622 538.688 909.146 545.164 909.146 553.159V555.383C909.146 563.378 915.622 569.854 923.606 569.854H943.254V538.698H923.606V538.688ZM913.865 554.271C913.865 548.127 918.845 543.147 924.989 543.147H938.524V565.394H924.989C918.845 565.394 913.865 560.415 913.865 554.271Z" fill="#F7E5CD"/><path fill-rule="evenodd" clip-rule="evenodd" d="M1162.13 503.298C1160.8 503.298 1159.61 502.456 1159.18 501.198L1135.3 433.02C1134.58 430.983 1136.1 428.852 1138.25 428.852C1139.58 428.852 1140.77 429.694 1141.2 430.952L1165.08 499.129C1165.8 501.167 1164.28 503.298 1162.13 503.298Z" fill="#232144"/><path d="M1145.33 647.793H904.114V688.545H1145.33V647.793Z" fill="#C6C6C6"/><path d="M949.139 662.668H921.881V986.506H949.139V662.668Z" fill="#C6C6C6"/><path d="M1127.56 662.668H1100.3V986.506H1127.56V662.668Z" fill="#C6C6C6"/><path fill-rule="evenodd" clip-rule="evenodd" d="M1140.97 428.852H1126.11L1175.23 979.761C1175.57 983.576 1178.77 986.508 1182.6 986.508C1186.94 986.508 1190.36 982.776 1189.97 978.441L1140.96 428.852H1140.97Z" fill="#A8A8A8"/><path fill-rule="evenodd" clip-rule="evenodd" d="M1182.01 891.105H1167.14L1175.22 979.774C1175.56 983.589 1178.76 986.51 1182.59 986.51C1186.94 986.51 1190.35 982.768 1189.96 978.433L1182.01 891.105Z" fill="#103256"/><path d="M1054.91 628.156H951.759V647.794H1054.91V628.156Z" fill="#A8A8A8"/><path d="M1034.36 608.539H931.217V628.177H1034.36V608.539Z" fill="#C6C6C6"/><path d="M1046.89 588.91H943.743V608.548H1046.89V588.91Z" fill="#A8A8A8"/><path d="M1118.07 620.992H1027.38C1023.29 620.992 1019.98 624.308 1019.98 628.394V640.994C1019.98 645.079 1023.29 648.396 1027.38 648.396H1060.42C1064.5 648.396 1067.82 645.079 1067.82 640.994V638.551C1067.82 635.837 1070.01 633.644 1072.73 633.644C1075.44 633.644 1077.63 635.837 1077.63 638.551V640.994C1077.63 645.079 1080.95 648.396 1085.03 648.396H1118.07C1122.16 648.396 1125.47 645.079 1125.47 640.994V628.394C1125.47 624.308 1122.16 620.992 1118.07 620.992Z" fill="#1D1D1B"/></svg>