<svg viewBox="0 0 1600 1200" fill="none" xmlns="http://www.w3.org/2000/svg"><path fill-rule="evenodd" clip-rule="evenodd" d="M716.808 318.842C716.808 298.332 700.135 281.707 679.567 281.707C658.999 281.707 642.326 298.332 642.326 318.842C642.326 338.299 657.336 354.251 676.439 355.837C676.437 355.95 676.422 356.061 676.422 356.175C676.422 365.376 683.902 372.836 693.131 372.836C702.359 372.836 709.838 365.376 709.838 356.175C709.838 351.995 708.284 348.183 705.734 345.259C712.569 338.527 716.808 329.178 716.808 318.842Z" fill="#9E2726"/><path fill-rule="evenodd" clip-rule="evenodd" d="M771.783 353.169C771.783 362.37 764.302 369.829 755.075 369.829C745.847 369.829 738.366 362.37 738.366 353.169C738.366 343.967 745.847 336.508 755.075 336.508C764.302 336.508 771.783 343.967 771.783 353.169Z" fill="#9E2726"/><path fill-rule="evenodd" clip-rule="evenodd" d="M692.112 360.934V319.404L756.316 319.502V360.934C756.316 378.613 741.944 392.945 724.215 392.945C706.486 392.945 692.112 378.613 692.112 360.934Z" fill="#FFC2B2"/><path fill-rule="evenodd" clip-rule="evenodd" d="M1046.36 706.422C1036.05 714.65 1016.78 733.298 1007.84 743.077C1136.87 914.878 790.74 1024.52 830.627 736.83C830.627 736.83 881.185 641.902 819.255 562.546L627.533 562.383C586.012 588.322 591.31 835.928 690.989 929.307C895.417 1123.7 1228.56 985.311 1046.36 706.422Z" fill="#FF0000"/><path d="M849.875 645.599C767.677 702.709 685.478 750.209 603.279 677.895C602.537 652.298 603.888 628.903 607.065 609.832C681.481 669.046 755.897 631.447 830.313 578.805C843.465 601.23 848.831 624.278 849.875 645.599Z" fill="#FF0000"/><path d="M830.319 739.101C757.384 784.919 684.449 816.29 611.515 756.229C606.661 729.337 603.996 702.591 603.28 677.896C685.478 750.209 767.677 702.71 849.875 645.6C852.347 696.049 830.626 736.832 830.626 736.832C830.521 737.591 830.419 738.347 830.319 739.101Z" fill="#FF5200"/><path d="M636.415 844.493C701.055 882.678 765.696 855.926 830.337 817.831C826.552 795.52 826.241 768.909 830.525 737.563C757.434 783.557 684.342 815.116 611.251 754.756C616.687 785.37 624.957 816.219 636.415 844.493Z" fill="#FFD300"/><path d="M1046.36 706.422C1050.08 712.115 1053.59 717.749 1056.88 723.323C1047.29 722.055 1037.69 721.916 1028.09 722.732C1034.83 716.335 1041.56 710.25 1046.36 706.422Z" fill="#FFD300"/><path d="M700.483 938.017C697.29 935.192 694.124 932.289 690.989 929.308C667.952 907.727 649.957 877.909 636.415 844.493C701.056 882.679 765.696 855.927 830.337 817.832C835.046 845.591 845.132 866.695 858.435 881.984C805.784 912.689 753.134 941.02 700.483 938.017Z" fill="#008300"/><path d="M1056.88 723.324C1078.81 760.412 1091.47 794.836 1096.48 826.115C1076.47 815.505 1056.46 810.857 1036.45 810.58C1034.63 789.906 1025.88 767.1 1007.84 743.079C1012.62 737.85 1020.35 730.085 1028.09 722.733C1037.69 721.917 1047.29 722.055 1056.88 723.324Z" fill="#008300"/><path d="M856.817 880.076C803.646 911.107 750.475 939.414 697.303 935.169C725.955 961.138 756.948 980.768 788.572 994.569C816.175 983.597 843.778 968.452 871.382 953.307C899.156 938.068 926.93 922.829 954.704 911.841C920.185 919.319 882.224 910.806 856.817 880.076Z" fill="#0000FF"/><path d="M980.315 903.038C1016.91 892.532 1053.51 891.677 1090.11 910.202C1099.16 884.749 1101.69 855.375 1095.89 822.622C1075.97 812.203 1056.05 807.678 1036.13 807.477C1041.41 851.392 1015.51 886.085 980.315 903.038Z" fill="#0000FF"/><path d="M948.005 913.083C922.464 923.809 896.923 937.84 871.382 951.872C843.228 967.338 815.075 982.804 786.922 993.843C915.655 1050.89 1055.37 1011.07 1090.58 908.854C1055.87 891.149 1021.15 890.917 986.435 899.858C974.599 906.472 961.482 911 948.005 913.083Z" fill="#930081"/><path fill-rule="evenodd" clip-rule="evenodd" d="M837.534 363.938L623.763 363.676L627.719 428.749L628.14 564.235L819.863 563.354L820.643 433.384L837.534 363.938Z" fill="#FFC2B2"/><path fill-rule="evenodd" clip-rule="evenodd" d="M635.781 420.533C656.539 413.528 666.83 408.383 659.403 388.801C651.975 369.22 637.589 358.671 608.369 366.029C587.122 371.379 576.805 394.586 584.233 414.168C591.661 433.749 615.023 427.538 635.781 420.533Z" fill="#FFC2B2"/><path fill-rule="evenodd" clip-rule="evenodd" d="M590.167 377.406L637.793 430.323L561.181 491.062C544.285 510.327 533.323 514.565 518.719 501.831C504.116 489.096 500.459 475.789 517.354 456.523L590.167 377.406Z" fill="#FFC2B2"/><path fill-rule="evenodd" clip-rule="evenodd" d="M641.293 568.129L609.32 592.289L516.647 511.505C500.847 497.206 494.749 482.279 509.088 466.525L518.235 457.404C532.574 441.648 535.219 481.195 556.939 481.195L641.293 568.129Z" fill="#FFC2B2"/><path fill-rule="evenodd" clip-rule="evenodd" d="M874.617 401.457C874.597 422.16 857.75 438.925 836.989 438.906C816.227 438.885 799.413 422.086 799.434 401.384C799.453 380.682 816.301 363.916 837.062 363.936C857.823 363.955 874.637 380.754 874.617 401.457Z" fill="#FFC2B2"/><path fill-rule="evenodd" clip-rule="evenodd" d="M642.943 590.449L635.874 624.517L593.933 633.446L634.52 567.752L642.943 590.449Z" fill="#FFC2B2"/><path fill-rule="evenodd" clip-rule="evenodd" d="M624.22 656.169C620.39 655.609 617.766 652.024 618.399 648.216L624.56 611.137L638.252 613.139L632.049 650.471C631.433 654.18 627.951 656.715 624.22 656.169Z" fill="#FFC2B2"/><path fill-rule="evenodd" clip-rule="evenodd" d="M614.911 668.934C611.081 668.374 608.457 664.789 609.09 660.981L616.933 618.055L630.627 620.057L622.741 663.236C622.124 666.945 618.642 669.48 614.911 668.934Z" fill="#FFC2B2"/><path fill-rule="evenodd" clip-rule="evenodd" d="M653.89 626.418C650.226 627.663 646.25 625.667 645.069 621.991L632.397 580.228L645.497 575.777L658.247 617.785C659.397 621.365 657.459 625.204 653.89 626.418Z" fill="#FFC2B2"/><path fill-rule="evenodd" clip-rule="evenodd" d="M605.158 663.414C601.658 663.221 599 660.447 599.219 657.219L601.263 627.16L615.639 627.952L613.703 656.439C613.424 660.536 609.598 663.659 605.158 663.414Z" fill="#FFC2B2"/><path fill-rule="evenodd" clip-rule="evenodd" d="M599.238 648.174C595.738 647.98 593.08 645.206 593.299 641.979L595.343 616.324L609.719 617.116L607.783 641.198C607.504 645.295 603.678 648.418 599.238 648.174Z" fill="#FFC2B2"/><path fill-rule="evenodd" clip-rule="evenodd" d="M603.24 586.57L620.601 594.486L608.07 627.393L595.342 616.322L603.24 586.57Z" fill="#FFC2B2"/><path fill-rule="evenodd" clip-rule="evenodd" d="M611.16 589.6L624.242 594.1L610.218 634.634L597.135 630.134L611.16 589.6Z" fill="#FFC2B2"/><path fill-rule="evenodd" clip-rule="evenodd" d="M646.241 581.755C646.241 593.044 637.064 602.196 625.742 602.196C614.421 602.196 605.242 593.044 605.242 581.755C605.242 570.466 614.421 561.314 625.742 561.314C637.064 561.314 646.241 570.466 646.241 581.755Z" fill="#FFC2B2"/><path fill-rule="evenodd" clip-rule="evenodd" d="M645.516 363.697L652.342 363.676L653.756 443.795L646.645 443.923L645.516 363.697Z" fill="#232244"/><path fill-rule="evenodd" clip-rule="evenodd" d="M805.094 363.82L812.092 363.856L813.482 441.983L806.372 442.111L805.094 363.82Z" fill="#232244"/><path fill-rule="evenodd" clip-rule="evenodd" d="M820.036 523.248H628.012L627.777 447.826L724.142 518.986L820.036 432.578V523.248Z" fill="#232244"/><path fill-rule="evenodd" clip-rule="evenodd" d="M724.188 448.236L723.039 448.091C723.048 448.025 723.957 441.433 730.589 439.977L730.837 441.105C725.015 442.382 724.219 447.998 724.188 448.236Z" fill="#B87967"/><path fill-rule="evenodd" clip-rule="evenodd" d="M721.226 447.083C718.514 441.762 712.694 442.44 712.637 442.451L712.491 441.306C712.55 441.297 719.182 440.525 722.258 446.56L721.226 447.083Z" fill="#B87967"/><path fill-rule="evenodd" clip-rule="evenodd" d="M721.039 441.1C720.918 436.181 716.342 434.626 716.296 434.61L716.593 433.707C716.647 433.725 721.854 435.495 721.992 441.076L721.039 441.1Z" fill="#B87967"/><path fill-rule="evenodd" clip-rule="evenodd" d="M714.85 461.076L713.701 460.931C713.71 460.865 714.619 454.273 721.25 452.816L721.499 453.944C715.677 455.222 714.881 460.838 714.85 461.076Z" fill="#B87967"/><path fill-rule="evenodd" clip-rule="evenodd" d="M711.887 459.924C709.186 454.623 703.537 455.259 703.296 455.293L703.15 454.148C703.219 454.145 709.843 453.363 712.918 459.401L711.887 459.924Z" fill="#B87967"/><path fill-rule="evenodd" clip-rule="evenodd" d="M711.7 453.943C711.579 449.025 707.003 447.47 706.957 447.454L707.254 446.551C707.308 446.568 712.515 448.339 712.653 453.92L711.7 453.943Z" fill="#B87967"/><path fill-rule="evenodd" clip-rule="evenodd" d="M726.631 467.346C726.6 467.107 725.804 461.492 719.982 460.214L720.23 459.086C726.862 460.542 727.771 467.135 727.78 467.2L726.631 467.346Z" fill="#B87967"/><path fill-rule="evenodd" clip-rule="evenodd" d="M729.593 466.194L728.561 465.671C731.638 459.633 738.266 460.414 738.328 460.417L738.183 461.563C737.943 461.531 732.293 460.895 729.593 466.194Z" fill="#B87967"/><path fill-rule="evenodd" clip-rule="evenodd" d="M729.781 460.213L728.827 460.189C728.966 454.608 734.173 452.838 734.226 452.82L734.525 453.724C734.336 453.786 729.902 455.313 729.781 460.213Z" fill="#B87967"/><path fill-rule="evenodd" clip-rule="evenodd" d="M704.07 399.965C704.066 403.693 701.033 406.711 697.295 406.708C693.557 406.704 690.53 403.68 690.534 399.952C690.537 396.225 693.57 393.206 697.308 393.209C701.047 393.213 704.074 396.237 704.07 399.965Z" fill="#E73245"/><path fill-rule="evenodd" clip-rule="evenodd" d="M767.249 388.499C767.245 392.227 764.212 395.245 760.473 395.241C756.736 395.237 753.708 392.213 753.712 388.485C753.716 384.758 756.749 381.739 760.487 381.742C764.225 381.746 767.252 384.771 767.249 388.499Z" fill="#E73245"/><path fill-rule="evenodd" clip-rule="evenodd" d="M725.486 414.104C725.482 417.832 722.449 420.85 718.711 420.847C714.973 420.843 711.946 417.819 711.95 414.091C711.953 410.364 714.986 407.345 718.724 407.348C722.463 407.352 725.49 410.376 725.486 414.104Z" fill="#E73245"/><path fill-rule="evenodd" clip-rule="evenodd" d="M739.023 414.576C739.02 418.304 735.986 421.322 732.247 421.319C728.51 421.314 725.482 418.29 725.486 414.562C725.489 410.835 728.523 407.816 732.261 407.82C735.999 407.823 739.026 410.848 739.023 414.576Z" fill="#E73245"/><path fill-rule="evenodd" clip-rule="evenodd" d="M697.837 388.43C697.833 392.158 694.799 395.176 691.061 395.173C687.324 395.169 684.296 392.145 684.3 388.417C684.303 384.69 687.336 381.671 691.074 381.674C694.813 381.678 697.841 384.702 697.837 388.43Z" fill="#E73245"/><path fill-rule="evenodd" clip-rule="evenodd" d="M760.469 400.02C760.466 403.748 757.432 406.766 753.694 406.763C749.956 406.759 746.928 403.735 746.933 400.007C746.936 396.28 749.969 393.261 753.707 393.264C757.446 393.268 760.473 396.292 760.469 400.02Z" fill="#E73245"/><path fill-rule="evenodd" clip-rule="evenodd" d="M751.625 410.025C751.621 413.753 748.588 416.771 744.849 416.768C741.112 416.764 738.084 413.739 738.088 410.011C738.092 406.284 741.125 403.265 744.863 403.27C748.601 403.273 751.628 406.297 751.625 410.025Z" fill="#E73245"/><path fill-rule="evenodd" clip-rule="evenodd" d="M712.866 409.986C712.863 413.714 709.829 416.732 706.09 416.729C702.353 416.725 699.325 413.7 699.329 409.972C699.332 406.245 702.365 403.226 706.104 403.23C709.842 403.234 712.869 406.258 712.866 409.986Z" fill="#E73245"/><path fill-rule="evenodd" clip-rule="evenodd" d="M769.763 375.301C769.76 379.029 766.726 382.047 762.987 382.044C759.25 382.04 756.222 379.016 756.226 375.288C756.229 371.561 759.262 368.542 763.001 368.545C766.739 368.549 769.766 371.573 769.763 375.301Z" fill="#E73245"/><path fill-rule="evenodd" clip-rule="evenodd" d="M694.894 375.228C694.89 378.956 691.857 381.974 688.118 381.971C684.381 381.967 681.353 378.943 681.357 375.214C681.361 371.488 684.394 368.469 688.132 368.473C691.87 368.476 694.897 371.5 694.894 375.228Z" fill="#E73245"/><path fill-rule="evenodd" clip-rule="evenodd" d="M769.342 361.802C769.338 365.53 766.305 368.548 762.567 368.545C758.829 368.541 755.801 365.517 755.806 361.789C755.809 358.062 758.842 355.043 762.58 355.047C766.319 355.05 769.345 358.074 769.342 361.802Z" fill="#E73245"/><path fill-rule="evenodd" clip-rule="evenodd" d="M695.971 361.733C695.968 365.461 692.934 368.479 689.195 368.476C685.458 368.472 682.43 365.447 682.434 361.719C682.437 357.992 685.47 354.973 689.209 354.977C692.947 354.981 695.975 358.005 695.971 361.733Z" fill="#E73245"/><path fill-rule="evenodd" clip-rule="evenodd" d="M779.083 355.043C781.38 365.423 774.802 375.694 764.392 377.985C753.982 380.275 743.681 373.716 741.385 363.336C739.089 352.955 745.666 342.684 756.076 340.394C766.485 338.103 776.787 344.662 779.083 355.043Z" fill="#FFDAD1"/><path fill-rule="evenodd" clip-rule="evenodd" d="M723.607 363.064L667.453 349.466C664.46 348.736 662.632 345.721 663.374 342.74C664.112 339.774 667.117 337.962 670.095 338.687L726.289 352.296C730.109 353.226 730.107 355.752 729.399 358.589L729.28 359.084C728.573 361.922 724.902 363.467 721.092 362.538L723.607 363.064Z" fill="#FFDAD1"/><path fill-rule="evenodd" clip-rule="evenodd" d="M729.844 377.801C722.669 383.109 720.701 372.157 720.701 372.157L699.461 355.768L709.857 347.887L757.596 340.129L772.046 351.213L765.16 374.494" fill="#FFDAD1"/><path fill-rule="evenodd" clip-rule="evenodd" d="M728.007 367.666L676.221 393.236C673.459 394.595 670.115 393.457 668.761 390.698C667.415 387.952 668.55 384.638 671.298 383.285L723.121 357.699C726.646 355.964 728.274 357.899 729.561 360.526L729.788 360.982C731.076 363.609 729.259 367.145 725.741 368.875L728.007 367.666Z" fill="#FFDAD1"/><path fill-rule="evenodd" clip-rule="evenodd" d="M711.627 362.479L665.267 383.887C662.68 385.081 659.532 383.784 658.245 380.992C656.965 378.216 658.01 375.01 660.583 373.821L709.1 351.326C712.4 349.801 713.94 351.795 715.164 354.451L715.381 354.912C716.606 357.569 714.921 360.958 711.627 362.479Z" fill="#FFDAD1"/><path fill-rule="evenodd" clip-rule="evenodd" d="M718.076 386.385L703.444 399.782C701.461 401.656 698.329 401.57 696.449 399.591C694.57 397.612 694.655 394.489 696.639 392.616L713.351 376.363L718.076 386.385Z" fill="#FFDAD1"/><path fill-rule="evenodd" clip-rule="evenodd" d="M737.199 376.185L718.075 386.387C715.592 387.522 713.597 384.21 712.458 381.732C711.318 379.255 712.409 376.325 714.893 375.191L735.968 365.18L737.199 376.185Z" fill="#FFDAD1"/><path fill-rule="evenodd" clip-rule="evenodd" d="M792.5 279.659C798.745 273.018 802.576 264.093 802.576 254.27C802.576 234.162 786.545 217.798 766.533 217.166C761.515 202.57 747.645 192.073 731.305 192.073C728.931 192.073 726.611 192.304 724.361 192.728C717.534 184.932 707.501 180 696.306 180C675.739 180 659.065 196.626 659.065 217.135C659.065 219.461 659.29 221.733 659.7 223.94C643.573 228.017 631.64 242.586 631.64 259.935C631.64 280.444 648.313 297.071 668.881 297.071C689.448 297.071 706.122 280.444 706.122 259.935C706.122 258.741 706.059 257.561 705.948 256.395C712.326 262.312 720.782 266.019 730.107 266.313C732.418 273.034 736.603 278.883 742.047 283.24C735.802 289.881 731.971 298.806 731.971 308.628C731.971 329.137 748.645 345.764 769.212 345.764C789.78 345.764 806.454 329.137 806.454 308.628C806.454 296.909 801.004 286.465 792.5 279.659Z" fill="#9E2726"/><path fill-rule="evenodd" clip-rule="evenodd" d="M781.265 293.579C781.265 300.735 775.447 306.536 768.27 306.536C761.094 306.536 755.276 300.735 755.276 293.579C755.276 286.422 761.094 280.621 768.27 280.621C775.447 280.621 781.265 286.422 781.265 293.579Z" fill="#FFC2B2"/><path fill-rule="evenodd" clip-rule="evenodd" d="M693.499 293.532C693.499 300.688 687.681 306.489 680.504 306.489C673.328 306.489 667.51 300.688 667.51 293.532C667.51 286.375 673.328 280.574 680.504 280.574C687.681 280.574 693.499 286.375 693.499 293.532Z" fill="#FFC2B2"/><path fill-rule="evenodd" clip-rule="evenodd" d="M681.662 299.523C688.118 299.523 693.353 304.742 693.353 311.182V322.711C693.353 329.149 688.12 334.368 681.663 334.368C675.208 334.368 669.972 329.149 669.972 322.711V311.182C669.972 304.742 675.207 299.523 681.662 299.523Z" fill="#FF6200"/><path fill-rule="evenodd" clip-rule="evenodd" d="M766.765 299.523H766.766C773.223 299.523 778.457 304.742 778.457 311.182V322.711C778.457 329.149 773.223 334.368 766.766 334.368H766.765C760.31 334.368 755.075 329.149 755.075 322.711V311.182C755.075 304.742 760.31 299.523 766.765 299.523Z" fill="#FF6200"/><path fill-rule="evenodd" clip-rule="evenodd" d="M681.663 313.388L682.727 253.358C682.727 234.47 697.019 219.432 715.961 219.432H732.467C751.41 219.432 766.766 234.744 766.766 253.633V313.388C766.766 332.276 751.41 347.589 732.467 347.589H715.961C697.019 347.589 681.663 332.276 681.663 313.388Z" fill="#FFC2B2"/><path fill-rule="evenodd" clip-rule="evenodd" d="M724.057 309.48C723.569 309.48 723.066 309.428 722.547 309.323C721.074 309.026 719.674 308.271 718.388 307.082C717.702 306.451 717.011 306.174 716.311 306.232C714.889 306.355 713.772 307.786 713.761 307.8L712.403 306.773C712.465 306.69 713.972 304.733 716.151 304.54C717.372 304.439 718.5 304.869 719.545 305.833C720.6 306.809 721.724 307.422 722.885 307.658C724.066 307.894 725.121 307.785 726.013 307.327C726.391 307.13 726.765 306.836 727.121 306.454C727.573 305.963 728.83 304.801 730.648 304.734C732.118 304.695 733.571 305.332 734.991 306.667L733.821 307.904C732.745 306.891 731.681 306.391 730.71 306.434C729.537 306.477 728.685 307.269 728.374 307.608C727.88 308.138 727.351 308.55 726.797 308.837C725.96 309.266 725.044 309.48 724.057 309.48Z" fill="#171110"/><path fill-rule="evenodd" clip-rule="evenodd" d="M745.235 267.246L745.759 267.247C751.219 267.273 756.348 269.992 759.617 274.59L731.305 274.459C734.625 269.89 739.775 267.22 745.235 267.246Z" fill="#171110"/><path fill-rule="evenodd" clip-rule="evenodd" d="M733.835 291.436C733.835 291.436 736.941 284.802 742.902 282.736C748.864 280.672 755.425 283.957 755.425 283.957C755.425 283.957 753.041 289.367 747.079 291.432C741.117 293.497 733.835 291.436 733.835 291.436Z" fill="white"/><path fill-rule="evenodd" clip-rule="evenodd" d="M739.47 287.1C739.47 289.941 741.78 292.245 744.63 292.245C747.48 292.245 749.79 289.941 749.79 287.1C749.79 284.259 747.48 281.955 744.63 281.955C741.78 281.955 739.47 284.259 739.47 287.1Z" fill="black"/><path fill-rule="evenodd" clip-rule="evenodd" d="M733.835 291.432C735.373 280.825 748.821 276.293 757.089 281.276C756.58 282.083 755.614 283.724 755.106 284.532C753.278 283.43 743.786 279.605 735.161 289.913C734.638 290.538 734.572 290.801 733.835 291.432Z" fill="black"/><path fill-rule="evenodd" clip-rule="evenodd" d="M700.943 267.246L700.419 267.247C694.959 267.273 689.83 269.992 686.561 274.59L714.873 274.459C711.553 269.89 706.403 267.22 700.943 267.246Z" fill="#171110"/><path fill-rule="evenodd" clip-rule="evenodd" d="M713.092 291.334C713.092 291.334 709.987 284.7 704.025 282.635C698.064 280.57 691.503 283.855 691.503 283.855C691.503 283.855 693.887 289.265 699.849 291.331C705.811 293.396 713.092 291.334 713.092 291.334Z" fill="white"/><path fill-rule="evenodd" clip-rule="evenodd" d="M706.627 286.629C706.627 289.471 704.317 291.774 701.466 291.774C698.617 291.774 696.307 289.471 696.307 286.629C696.307 283.788 698.617 281.484 701.466 281.484C704.317 281.484 706.627 283.788 706.627 286.629Z" fill="black"/><path fill-rule="evenodd" clip-rule="evenodd" d="M713.093 291.33C711.555 280.723 698.107 276.191 689.839 281.174C690.347 281.982 691.314 283.622 691.822 284.43C693.65 283.328 703.142 279.504 711.767 289.811C712.29 290.436 712.356 290.699 713.093 291.33Z" fill="black"/><path fill-rule="evenodd" clip-rule="evenodd" d="M761.729 234.458V229.208H757.804C751.923 222.768 743.585 218.75 733.889 218.75H713.636C703.94 218.75 695.487 222.768 689.491 229.208H685.759V234.016C682.158 239.62 680.097 246.381 680.097 253.633L680.119 289.649L685.091 289.791V273.396C685.091 265.997 687.588 259.192 691.766 253.772C695.538 257.575 700.771 259.936 706.56 259.936H740.928C746.51 259.936 751.568 257.733 755.304 254.167C759.3 259.519 761.672 266.178 761.672 273.396L761.863 288.866L766.778 289.035L766.973 253.633C766.973 246.57 765.079 239.975 761.729 234.458Z" fill="#9E2726"/><path d="M766.766 289.043L761.863 288.867L761.596 310.877L684.897 310.25L685.111 289.702L680.097 289.652V313.403C680.097 332.284 695.459 347.59 714.409 347.59H732.453C751.403 347.59 766.766 332.284 766.766 313.403V289.043Z" fill="#C4C4C4"/><path fill-rule="evenodd" clip-rule="evenodd" d="M724.297 322.005C724.297 318.38 718.723 318.863 718.723 318.863H706.122C706.244 318.155 723.92 345.833 742.474 318.863H729.871C729.871 318.863 724.297 318.38 724.297 322.005Z" fill="#DA453E"/><path fill-rule="evenodd" clip-rule="evenodd" d="M724.142 518.985C724.142 518.985 696.152 519.867 673.796 519.867C651.441 519.867 633.319 501.796 633.319 479.504C633.319 457.212 627.778 447.825 627.778 447.825C698.961 421.668 724.214 489.285 724.142 518.985Z" fill="#232244"/><path fill-rule="evenodd" clip-rule="evenodd" d="M723.135 518.985C723.135 518.985 751.125 519.868 773.481 519.868C795.836 519.868 813.959 501.796 813.959 479.504V439.141C748.186 431.362 723.063 489.286 723.135 518.985Z" fill="#232244"/><path fill-rule="evenodd" clip-rule="evenodd" d="M872.5 414.096L821.366 398.447L793.181 489.112C784.811 513.305 781.615 525.734 796.613 530.183C804.622 532.333 825.048 543.895 833.419 519.703L872.5 414.096Z" fill="#FFC2B2"/><path fill-rule="evenodd" clip-rule="evenodd" d="M833.739 511.711C833.739 527.559 820.855 540.406 804.963 540.406C789.069 540.406 776.186 527.559 776.186 511.711C776.186 495.863 789.069 483.016 804.963 483.016C820.855 483.016 833.739 495.863 833.739 511.711Z" fill="#FFDAD1"/><path fill-rule="evenodd" clip-rule="evenodd" d="M779.083 355.043L746.932 374.674L778.456 522.511C785.961 522.416 794.749 525.937 815.28 520.144C835.81 514.349 831.722 501.393 831.722 501.393L779.083 355.043Z" fill="#FFDAD1"/><path fill-rule="evenodd" clip-rule="evenodd" d="M875.623 792.391C875.623 792.391 927.846 853.831 998.253 822.343C1019.06 813.038 1023.14 815.621 1033.28 795.251L1063.48 734.915C1063.84 726.219 1064.32 719.18 1056.35 701.248C1044.03 673.535 1014.46 638.783 943.483 632.387C943.483 632.387 959.742 643.312 960.802 659.876C961.862 676.441 955.854 697.939 984.836 732.478C984.836 732.478 963.276 728.601 951.965 736.707C940.655 744.813 937.345 762.61 915.848 774.932C905.966 780.596 883.398 792.744 875.623 792.391Z" fill="white"/><path d="M945.055 633.555L945.542 632.582C956.963 633.712 967.293 635.585 976.637 638.046L960.932 669.427C960.934 669.16 960.936 668.894 960.938 668.63C960.959 665.55 960.979 662.645 960.802 659.878C959.945 646.488 949.159 636.784 945.055 633.555Z" fill="#272724"/><path d="M891.939 807.284L905.204 780.78C894.519 786.406 881.229 792.646 875.624 792.392C875.624 792.392 881.49 799.293 891.939 807.284Z" fill="#272724"/><path d="M960.932 669.427L976.637 638.047C987.398 640.882 996.85 644.499 1005.15 648.664L972.12 714.671C961.005 695.632 960.856 681.24 960.932 669.427Z" fill="#89460F"/><path d="M891.939 807.284L905.203 780.781C909.342 778.602 913.089 776.515 915.848 774.933C928.756 767.534 935.107 758.16 940.57 750.097C944.205 744.732 947.447 739.947 951.966 736.709C955.156 734.422 959.162 733.089 963.27 732.353L918.024 822.761C907.601 818.224 898.786 812.52 891.939 807.284Z" fill="#89460F"/><path d="M1005.15 648.664L972.119 714.67C975.346 720.198 979.497 726.117 984.836 732.479C984.836 732.479 973.723 730.481 963.27 732.354L918.023 822.761C926.874 826.614 936.884 829.626 947.833 830.796L1030.45 665.713C1023.5 659.505 1015.16 653.686 1005.15 648.664Z" fill="#28D7FB"/><path d="M1030.45 665.711L947.833 830.794C958.747 831.96 970.595 831.296 983.157 827.808L1051.39 691.479C1046.42 682.84 1039.66 673.934 1030.45 665.711Z" fill="#FF8BBB"/><path d="M1051.39 691.48L983.156 827.811C988.083 826.443 993.119 824.642 998.252 822.346C1002.5 820.446 1006.05 819.042 1009.1 817.837C1020.98 813.138 1025.21 811.464 1033.28 795.253L1063.48 734.914C1063.49 734.733 1063.49 734.553 1063.5 734.373C1063.85 725.922 1064.15 718.808 1056.35 701.25C1054.93 698.068 1053.29 694.794 1051.39 691.48Z" fill="white"/></svg>