<svg viewBox="0 0 1600 1200" fill="none" xmlns="http://www.w3.org/2000/svg"><path d="M969.145 541.432H656.608V861.667H969.145V541.432Z" fill="#B0C2E4"/><path d="M1407.3 861.979H193V1020H1407.3V861.979Z" fill="#E5F0FF"/><path d="M707.393 739.438H925.966V591.01H707.393V739.438Z" fill="#D0DEF2"/><path d="M988.276 508.047H660.406V547.261H988.276V508.047Z" fill="#8DA8DC"/><path d="M675.229 477.816L434.115 262.062L193 477.816V876.719H675.229V477.816Z" fill="#D0DEF2"/><path d="M434.114 542.887C490.547 542.887 536.358 588.672 536.358 645.071V876.679H331.87V645.071C331.87 588.672 377.682 542.887 434.114 542.887Z" fill="#B0C2E4"/><path d="M193.364 478.222L433.896 262.063L691.977 494.097L692.237 430.295L434.094 194.082L193.333 414.461L193.364 478.222Z" fill="#8DA8DC"/><path d="M434.115 484.701C470.406 484.701 499.826 455.279 499.826 418.986C499.826 382.693 470.406 353.271 434.115 353.271C397.823 353.271 368.403 382.693 368.403 418.986C368.403 455.279 397.823 484.701 434.115 484.701Z" fill="#B0C2E4"/><path d="M620.846 968.892C643.389 968.892 661.664 965.838 661.664 962.072C661.664 958.305 643.389 955.252 620.846 955.252C598.302 955.252 580.027 958.305 580.027 962.072C580.027 965.838 598.302 968.892 620.846 968.892Z" fill="#232144"/><path d="M616.176 908.451C598.409 908.451 584.876 924.389 587.768 941.927L591.876 966.805C610.913 970.174 630.375 970.215 649.432 966.94L650.233 966.805L644.585 932.55C642.286 918.65 630.271 908.451 616.176 908.451Z" fill="#4F4F59"/><path d="M650.024 966.458C650.024 966.458 655.049 948.005 693.652 940.977L691.051 926.682C691.051 926.682 665.493 936.403 633.828 914.498L650.024 966.458Z" fill="#4F4F59"/><path d="M693.445 941.002C695.321 940.661 696.26 937.183 695.541 933.235C694.823 929.286 692.719 926.361 690.842 926.703C688.966 927.044 688.027 930.521 688.746 934.47C689.464 938.419 691.568 941.343 693.445 941.002Z" fill="#FAD9E8"/><path d="M622.528 967.937C621.48 966.249 619.261 965.73 617.572 966.777C615.883 967.825 615.363 970.042 616.411 971.73L626.733 988.355C627.781 990.043 630 990.563 631.689 989.515C633.378 988.468 633.898 986.25 632.85 984.562L622.528 967.937Z" fill="#797878"/><path d="M629.608 966.232C628.56 964.544 626.341 964.025 624.652 965.072C622.963 966.12 622.443 968.337 623.491 970.025L633.814 986.65C634.862 988.338 637.08 988.858 638.769 987.81C640.458 986.763 640.978 984.545 639.93 982.857L629.608 966.232Z" fill="#797878"/><path d="M637.079 964.888C636.031 963.2 633.812 962.681 632.123 963.728C630.434 964.776 629.914 966.993 630.962 968.681L641.284 985.307C642.332 986.995 644.551 987.514 646.24 986.467C647.929 985.419 648.449 983.202 647.401 981.513L637.079 964.888Z" fill="#797878"/><path d="M639.924 931.682C641.216 931.682 642.264 930.635 642.264 929.343C642.264 928.051 641.216 927.004 639.924 927.004C638.631 927.004 637.583 928.051 637.583 929.343C637.583 930.635 638.631 931.682 639.924 931.682Z" fill="#232144"/><path d="M1200.61 926.855L1136.74 990.084L1143.89 997.292L1207.75 934.063L1200.61 926.855Z" fill="#232144"/><path d="M1136.73 990.143L1200.6 926.902L1165.09 883.404L1124.65 906.661L1152.51 938.744L1131.54 984.903L1136.73 990.143Z" fill="#D8CBC5"/><path d="M1393.18 437.874L1408 421.371L1138.93 180.001L1124.11 196.504L1393.18 437.874Z" fill="#891229"/><path d="M1342 377.179L1337.04 372.732L1286.98 428.419L1291.93 432.866L1342 377.179Z" fill="#891229"/><path d="M1240.63 286.146L1235.68 281.699L1185.61 337.386L1190.56 341.833L1240.63 286.146Z" fill="#891229"/><path d="M1342.07 457.015L1159.74 293.291L1037.43 429.341L1219.75 593.065L1342.07 457.015Z" fill="#F7E5CD"/><path d="M1008.55 453.903C1008.55 453.903 996.722 509.866 982.596 523.984L1014.63 533.008L1042.1 490.165L1021.83 454.464L1008.55 453.893V453.903Z" fill="#A86554"/><path d="M1197.17 902.992C1197.17 874.767 1168.58 831.123 1146.44 808.99C1146.44 808.99 1108.03 773.081 1119.73 715.226C1119.73 715.226 1141.75 584.94 1108.16 541.619L1026.49 784.07L1111.83 948.434L1197.17 902.992Z" fill="#232144"/><path d="M1180.22 401.537L1137.32 363.016L1108.48 395.101L1151.38 433.622L1180.22 401.537Z" fill="#E73245"/><path d="M1180.24 358.361L1121.66 359.598L1185.28 416.736L1180.24 358.361Z" fill="#891229"/><path d="M1294.42 483.464L1221 417.531L1205.43 434.846L1278.85 500.779L1294.42 483.464Z" fill="#E73245"/><path d="M1270.33 510.281L1196.91 444.348L1181.34 461.662L1254.77 527.595L1270.33 510.281Z" fill="#E73245"/><path d="M1241.31 542.604L1094.46 410.738L1078.9 428.053L1225.74 559.919L1241.31 542.604Z" fill="#E73245"/><path d="M1108.16 541.603C1108.16 541.603 1108.74 486.285 1117.51 453.1L1082.86 453.318V420.342H1044.47L1040.58 412.056C1035.65 412.056 1010.28 406.421 1000.06 456.448L1014.35 461.708C1012.46 466.334 1010.01 475.618 1014.16 487.106C1014.16 487.106 1022.65 509.541 1020.34 540.252L1108.17 541.603H1108.16Z" fill="#D8CBC5"/><path d="M1023.27 446.623L1022.99 438.275C1020.85 426.226 1019.83 424.209 1018 418.865C1017.65 417.878 1016.92 417.067 1015.97 416.641L1007.51 412.794L1004.36 418.086L1000.87 411.006L979.319 438.057L992.561 449.254C993.498 450.013 994.507 450.678 995.557 451.281L982.679 522.838H982.794C982.669 523.67 982.586 524.502 982.586 525.354C982.586 534.721 990.179 542.31 999.541 542.31C1008.22 542.31 1015.35 535.792 1016.36 527.392H1016.48L1023.25 446.613L1023.27 446.623Z" fill="#A86554"/><path d="M951.399 983.01H861.523V993.157H951.399V983.01Z" fill="#232144"/><path d="M861.523 983.008H951.399L996.805 889.431L948.892 870.76L918.778 954.834L861.523 975.845V983.008Z" fill="#D8CBC5"/><path d="M1206.76 204.359L1190.26 189.545L854.403 563.12L870.9 577.934L1206.76 204.359Z" fill="#891229"/><path d="M1039.11 408.75V381.055L1081.81 381.117V408.75C1081.81 420.54 1072.25 430.104 1060.46 430.104C1048.66 430.104 1039.1 420.55 1039.1 408.75H1039.11Z" fill="#A86554"/><path d="M1093.17 352.029H1028.39V383.727H1093.17V352.029Z" fill="#291028"/><path d="M1089.77 368.894C1094.55 368.894 1098.42 365.026 1098.42 360.255C1098.42 355.483 1094.55 351.615 1089.77 351.615C1085 351.615 1081.13 355.483 1081.13 360.255C1081.13 365.026 1085 368.894 1089.77 368.894Z" fill="#BF7461"/><path d="M1031.12 368.859C1035.9 368.859 1039.77 364.991 1039.77 360.219C1039.77 355.448 1035.9 351.58 1031.12 351.58C1026.35 351.58 1022.48 355.448 1022.48 360.219C1022.48 364.991 1026.35 368.859 1031.12 368.859Z" fill="#BF7461"/><path d="M1066.03 314.375H1055.56C1043 314.375 1032.82 324.55 1032.82 337.101V377.532C1032.82 390.083 1043 400.258 1055.56 400.258H1066.03C1078.59 400.258 1088.77 390.083 1088.77 377.532V337.101C1088.77 324.55 1078.59 314.375 1066.03 314.375Z" fill="#BF7461"/><path d="M1066.21 328.431C1078.66 328.431 1088.75 338.64 1088.75 351.24V362.936H1093.17V336.998C1093.17 323.347 1082.1 312.275 1068.46 312.275H1053.11C1039.47 312.275 1028.4 323.347 1028.4 336.998V362.936H1032.82V351.24C1032.82 338.64 1042.91 328.431 1055.36 328.431H1066.21Z" fill="#291028"/><path d="M1001.5 434.525C1003.35 436.081 1006.1 435.85 1007.66 434.007C1009.22 432.165 1008.99 429.41 1007.14 427.854L988.937 412.484C987.094 410.928 984.337 411.16 982.78 413.002C981.223 414.844 981.455 417.599 983.298 419.155L1001.5 434.525Z" fill="#A86554"/><path d="M1008.58 429.154C1010.43 430.71 1013.18 430.477 1014.74 428.635C1016.3 426.792 1016.06 424.038 1014.22 422.482L995.798 406.934C993.955 405.378 991.198 405.61 989.641 407.452C988.085 409.295 988.317 412.05 990.161 413.606L1008.58 429.154Z" fill="#A86554"/><path d="M1008.9 413.585L1008.86 413.554C1007.02 412.016 1004.28 412.265 1002.75 414.105L994.049 424.522C992.509 426.362 992.759 429.097 994.6 430.635L994.642 430.666C996.483 432.205 999.219 431.956 1000.76 430.115L1006.79 422.89L1011.9 426.612L1017.32 417.671L1008.87 413.544" fill="#A86554"/><path d="M1002.74 414.107L994.069 424.504C992.519 426.354 992.769 429.109 994.621 430.658C996.472 432.207 999.229 431.958 1000.77 430.107L1007.34 422.601L1011.88 426.625" fill="#A86554"/><path d="M997.419 432.062C996.306 432.062 995.245 431.678 994.372 430.95C993.394 430.139 992.79 428.985 992.676 427.717C992.562 426.449 992.946 425.211 993.768 424.234L1002.44 413.838L1003.05 414.347L994.372 424.744C993.695 425.554 993.373 426.584 993.467 427.644C993.56 428.705 994.06 429.661 994.881 430.337C995.693 431.012 996.722 431.335 997.784 431.241C998.845 431.148 999.802 430.649 1000.48 429.827L1007.32 422.02L1012.16 426.313L1011.64 426.906L1007.4 423.143L1001.08 430.347C1000.27 431.314 999.125 431.917 997.856 432.031C997.711 432.042 997.565 432.052 997.419 432.052V432.062Z" fill="#693725"/><path d="M1094.34 438.319L1059.27 487.285L1005.93 447.364L1006.02 447.249C1005.87 442.675 1002.88 433.183 1001.05 427.829C1000.72 426.841 999.978 426.03 999.031 425.594L991.25 422.049C991.115 421.976 990.98 421.924 990.845 421.862L990.584 421.737C989.43 421.342 988.161 421.435 987.089 422.007L984.666 419.959C982.835 418.41 980.099 418.639 978.549 420.468L978.518 420.51C977.041 422.257 977.197 424.824 978.809 426.405L978.768 426.457L977.811 425.646C975.98 424.097 973.244 424.325 971.694 426.155L971.663 426.197C970.113 428.027 970.342 430.834 972.172 432.383L973.327 433.36L973.306 433.318L972.152 432.341C970.321 430.792 967.585 431.021 966.035 432.85L966.004 432.892C964.454 434.722 964.683 437.456 966.514 439.005L967.866 440.149L967.804 440.232C966.046 439.171 963.736 439.504 962.363 441.115L962.217 441.282C960.792 442.966 960.917 445.419 962.415 446.968L962.394 446.989L962.602 447.166C962.602 447.166 962.665 447.239 962.706 447.28L969.312 452.884C969.312 452.884 969.395 452.936 969.437 452.967L975.616 458.196C978.008 460.141 980.754 461.596 983.709 462.469L1049.15 524.826C1054.89 531.823 1065.12 533.455 1072.79 528.309C1074.24 527.342 1075.49 526.198 1076.55 524.93H1076.58L1128.95 457.448L1094.37 438.319H1094.34Z" fill="#BF7461"/><path d="M1131.25 460.298C1131.34 462.304 1041.07 460.662 1041.07 460.662L1082.09 404.709C1082.09 404.709 1128.99 407.027 1131.25 460.298Z" fill="#D8CBC5"/><path d="M1047.59 319.271H1045.52V332.319H1047.59V319.271Z" fill="#BF7461"/><path d="M1100.35 688.307C1114.54 652.742 1127.47 603.401 1114.17 560.839L1108.17 541.596L1020.35 540.244C1020.35 540.244 1029.35 573.876 1000.08 653.896L903.861 942.319L1016.74 954.867L1100.36 688.297L1100.35 688.307Z" fill="#463EC5"/><path d="M1086.16 362.488H1037.29V368.279H1086.16V362.488Z" fill="#BF7461"/><path d="M1060.46 375.308C1060.11 375.308 1059.77 375.266 1059.41 375.173C1058.39 374.913 1057.42 374.258 1056.54 373.239C1056.07 372.688 1055.57 372.428 1055.12 372.48C1054.12 372.563 1053.3 373.884 1053.29 373.894L1052.4 373.353C1052.44 373.281 1053.49 371.576 1055.03 371.441C1055.85 371.368 1056.62 371.742 1057.33 372.563C1058.06 373.426 1058.86 373.967 1059.67 374.175C1060.48 374.383 1061.21 374.279 1061.82 373.884C1062.09 373.707 1062.36 373.437 1062.62 373.094C1062.93 372.667 1063.81 371.659 1065.08 371.617C1066.08 371.596 1067.09 372.147 1068.06 373.291L1067.27 373.967C1066.52 373.083 1065.81 372.657 1065.12 372.667C1064.3 372.698 1063.68 373.416 1063.46 373.717C1063.13 374.164 1062.77 374.518 1062.39 374.757C1061.82 375.131 1061.16 375.318 1060.47 375.318L1060.46 375.308Z" fill="#1D1D1B"/><path d="M1074.76 341.593H1075.11C1078.8 341.613 1082.25 343.443 1084.45 346.552L1065.38 346.458C1067.61 343.37 1071.09 341.561 1074.76 341.582" fill="#291028"/><path d="M1081.41 358.185C1080.18 357.437 1073.78 354.858 1067.97 361.824C1067.61 362.25 1067.57 362.427 1067.07 362.853C1067.07 362.853 1071.98 364.246 1076 362.853C1079.48 361.647 1081.15 358.736 1081.53 357.988C1081.49 358.05 1081.44 358.133 1081.41 358.196V358.185Z" fill="white"/><path d="M1067.07 362.841C1067.56 362.415 1067.61 362.238 1067.97 361.812C1073.78 354.846 1080.18 357.435 1081.41 358.173C1081.44 358.121 1081.49 358.038 1081.53 357.965C1081.89 357.383 1082.44 356.458 1082.74 355.969C1077.16 352.601 1068.1 355.668 1067.06 362.831L1067.07 362.841Z" fill="#1D1D1B"/><path d="M1044.9 341.593H1044.55C1040.87 341.613 1037.42 343.443 1035.21 346.552L1054.29 346.458C1052.05 343.37 1048.58 341.561 1044.9 341.582" fill="#291028"/><path d="M1052.21 361.749C1046.39 354.784 1040 357.373 1038.77 358.111C1038.74 358.059 1038.69 357.976 1038.64 357.903C1039.03 358.651 1040.69 361.562 1044.18 362.768C1048.19 364.161 1053.1 362.768 1053.1 362.768C1052.61 362.342 1052.56 362.165 1052.21 361.739V361.749Z" fill="white"/><path d="M1037.43 355.91C1037.74 356.398 1038.28 357.324 1038.63 357.906C1038.67 357.968 1038.73 358.051 1038.76 358.114C1039.99 357.365 1046.38 354.787 1052.2 361.752C1052.55 362.179 1052.59 362.355 1053.09 362.782C1052.05 355.608 1042.99 352.552 1037.42 355.92L1037.43 355.91Z" fill="#1D1D1B"/><path d="M1066.33 382.722C1065.99 380.3 1062.32 381.142 1062.32 381.142L1053.91 382.327C1053.92 381.839 1068.34 398.691 1078.16 378.896L1069.76 380.082C1069.76 380.082 1065.99 380.279 1066.33 382.712" fill="#E73245"/><path d="M1043.97 357.643C1042.26 357.643 1040.86 358.869 1040.56 360.481C1041.43 361.354 1042.63 362.227 1044.18 362.768C1044.98 363.049 1045.82 363.215 1046.65 363.298C1047.14 362.695 1047.44 361.947 1047.44 361.115C1047.44 359.192 1045.88 357.643 1043.97 357.643Z" fill="#1D1D1B"/><path d="M1072.47 359.368C1070.55 359.368 1069 360.927 1069 362.851C1069 362.986 1069.02 363.121 1069.04 363.246C1070.83 363.516 1073.54 363.682 1075.96 362.861C1075.96 362.861 1075.96 362.851 1075.96 362.84C1075.96 360.917 1074.4 359.357 1072.48 359.357L1072.47 359.368Z" fill="#1D1D1B"/></svg>