<svg viewBox="0 0 1600 1200" fill="none" xmlns="http://www.w3.org/2000/svg"><path fill-rule="evenodd" clip-rule="evenodd" d="M1222.43 641.062C1222.43 647.153 1217.5 652.091 1211.41 652.091C1205.32 652.091 1200.39 647.153 1200.39 641.062C1200.39 634.971 1205.32 630.033 1211.41 630.033C1217.5 630.033 1222.43 634.971 1222.43 641.062Z" fill="#B0C2E4"/><path fill-rule="evenodd" clip-rule="evenodd" d="M327.991 274.804L453.534 370.961L472.032 334.946L347.92 257.829C347.257 257.418 346.479 257.232 345.702 257.298L325.585 259.028L327.991 274.804Z" fill="#F3978C"/><path fill-rule="evenodd" clip-rule="evenodd" d="M467.51 332.545C485.083 340.526 486.749 353.133 481.247 366.231C475.745 379.329 470.146 396.059 463.578 383.463C456.498 369.885 429.734 352.731 429.734 352.731C429.734 352.731 454.581 326.673 467.51 332.545Z" fill="#F2968B"/><path fill-rule="evenodd" clip-rule="evenodd" d="M568.974 382.163L716.578 468.321L729.346 452.036L595.796 345.951L568.974 382.163Z" fill="#F2968B"/><path fill-rule="evenodd" clip-rule="evenodd" d="M1122.99 469.518C1122.08 469.518 1060.73 473.426 1060.73 473.426L1069.09 502.226L1125.56 480.836L1122.99 469.518Z" fill="#FFD4A9"/><path fill-rule="evenodd" clip-rule="evenodd" d="M1148.41 509.256C1150.27 507.847 1150.65 505.192 1149.24 503.326L1133.93 483.023L1127.17 488.13L1142.47 508.425C1143.88 510.295 1146.54 510.667 1148.41 509.256Z" fill="#F3978C"/><path fill-rule="evenodd" clip-rule="evenodd" d="M1165.46 511.756C1167.66 510.961 1168.8 508.535 1168.01 506.336L1161.65 488.738L1153.69 491.618L1160.04 509.211C1160.83 511.413 1163.26 512.552 1165.46 511.756Z" fill="#F3978C"/><path fill-rule="evenodd" clip-rule="evenodd" d="M1161.1 511.053C1163.16 509.94 1163.92 507.371 1162.81 505.314L1153.91 488.857L1146.46 492.891L1155.36 509.342C1156.47 511.401 1159.04 512.167 1161.1 511.053Z" fill="#F3978C"/><path fill-rule="evenodd" clip-rule="evenodd" d="M1142.85 471.088L1136.59 477.067L1155.88 494.993L1161.64 488.783L1142.85 471.088Z" fill="#FFD4A9"/><path fill-rule="evenodd" clip-rule="evenodd" d="M1139.5 473.717L1133.4 479.599L1151.67 498.564L1157.77 492.682L1139.5 473.717Z" fill="#FFD4A9"/><path fill-rule="evenodd" clip-rule="evenodd" d="M1142.7 494.612C1142.7 494.612 1140.08 491.711 1139.37 490.682C1137.9 488.547 1140.24 486.938 1141.82 488.455C1142.83 489.428 1145.97 492.825 1148.42 495.193C1145.39 488.091 1142.48 475.957 1142.48 475.957L1131.94 489.104L1142.7 494.612Z" fill="#FFD4A9"/><path fill-rule="evenodd" clip-rule="evenodd" d="M597.365 347.514C588.988 337.816 566.586 338.581 566.586 338.581H558.945C558.945 338.581 555.789 363.683 563.718 373.014C572.916 383.838 598.535 393.18 598.535 393.18C598.535 393.18 606.65 358.263 597.365 347.514Z" fill="#F3978C"/><path fill-rule="evenodd" clip-rule="evenodd" d="M835.114 545.654L800.848 611.081L817.754 625.015L864.475 564.499C870.917 556.154 868.586 544.046 859.507 538.693C850.882 533.607 839.761 536.781 835.114 545.654Z" fill="#FFD4A9"/><path fill-rule="evenodd" clip-rule="evenodd" d="M804.286 607.719L785.755 621.135L807.556 640.403L820.416 621.567L804.286 607.719Z" fill="#FFD4A9"/><path fill-rule="evenodd" clip-rule="evenodd" d="M891.873 390.691C891.873 397.19 886.609 402.459 880.115 402.459C873.619 402.459 868.354 397.19 868.354 390.691C868.354 384.192 873.619 378.924 880.115 378.924C886.609 378.924 891.873 384.192 891.873 390.691Z" fill="#8DA7D7"/><path fill-rule="evenodd" clip-rule="evenodd" d="M952.083 390.691C952.083 397.19 946.819 402.459 940.324 402.459C933.829 402.459 928.564 397.19 928.564 390.691C928.564 384.192 933.829 378.924 940.324 378.924C946.819 378.924 952.083 384.192 952.083 390.691Z" fill="#8DA7D7"/><path fill-rule="evenodd" clip-rule="evenodd" d="M891.287 470.631V446.051L929.152 446.11V470.631C929.152 481.095 920.676 489.577 910.219 489.577C899.763 489.577 891.287 481.095 891.287 470.631Z" fill="#FFC891"/><path fill-rule="evenodd" clip-rule="evenodd" d="M886.363 442.49L886.96 406.96C886.96 395.781 894.972 386.881 905.591 386.881H914.845C925.466 386.881 934.075 395.943 934.075 407.122V442.49C934.075 453.67 925.466 462.732 914.845 462.732H905.591C894.972 462.732 886.363 453.67 886.363 442.49Z" fill="#FFD4A9"/><path fill-rule="evenodd" clip-rule="evenodd" d="M885.217 428.44H888.925V440.633H931.512V427.977H935.222L936.402 450.417L930.334 462.528L922.812 467.471L900.909 470.745L888.593 462.775L885.195 447.575L885.217 441.6V428.44Z" fill="#B8B7B7"/><path fill-rule="evenodd" clip-rule="evenodd" d="M910.219 447.591C910.219 445.445 906.931 445.731 906.931 445.731H899.499C899.572 445.313 909.997 461.693 920.938 445.731H913.506C913.506 445.731 910.219 445.445 910.219 447.591Z" fill="#891229"/><path fill-rule="evenodd" clip-rule="evenodd" d="M950.954 974.343L911.439 606.341L922.915 606.062C955.38 605.273 981.983 617.064 980.252 652.943L981.764 848.071L950.954 974.343Z" fill="#FFD4A9"/><path fill-rule="evenodd" clip-rule="evenodd" d="M909.583 845.973L909.084 604.395H897.709C865.533 604.395 841.932 617.377 844.51 653.587L869.929 890.071L909.583 845.973Z" fill="#FFD4A9"/><path fill-rule="evenodd" clip-rule="evenodd" d="M941.783 430.057C941.783 434.232 938.401 437.616 934.23 437.616C930.058 437.616 926.676 434.232 926.676 430.057C926.676 425.882 930.058 422.498 934.23 422.498C938.401 422.498 941.783 425.882 941.783 430.057Z" fill="#FFD4A9"/><path fill-rule="evenodd" clip-rule="evenodd" d="M893.942 430.037C893.942 434.212 890.56 437.596 886.389 437.596C882.217 437.596 878.835 434.212 878.835 430.037C878.835 425.862 882.217 422.479 886.389 422.479C890.56 422.479 893.942 425.862 893.942 430.037Z" fill="#FFD4A9"/><path fill-rule="evenodd" clip-rule="evenodd" d="M888.926 437.532V418.694C888.926 408.241 896.611 399.767 906.089 399.767H908.95H911.489H914.35C923.829 399.767 931.512 408.241 931.512 418.694V437.532H934.879V406.871C934.879 395.545 926.452 386.361 916.059 386.361H904.38C893.986 386.361 885.561 395.545 885.561 406.871V437.532H888.926Z" fill="#8DA7D7"/><path fill-rule="evenodd" clip-rule="evenodd" d="M912.784 413.144H932.214V396.52H912.784V413.144Z" fill="#8DA7D7"/><path fill-rule="evenodd" clip-rule="evenodd" d="M888.225 413.144H907.527V396.52H888.225V413.144Z" fill="#8DA7D7"/><path fill-rule="evenodd" clip-rule="evenodd" d="M910.432 440.18C910.144 440.18 909.847 440.149 909.542 440.087C908.672 439.912 907.847 439.466 907.089 438.759C906.686 438.387 906.277 438.223 905.865 438.259C905.024 438.332 904.366 439.179 904.358 439.187L903.558 438.578C903.596 438.53 904.486 437.371 905.772 437.258C906.475 437.185 907.154 437.452 907.772 438.022C908.393 438.598 909.054 438.963 909.741 439.101C910.434 439.243 911.057 439.177 911.585 438.905C911.809 438.789 912.029 438.616 912.24 438.389C912.504 438.1 913.242 437.412 914.315 437.371C915.172 437.384 916.04 437.722 916.88 438.517L916.189 439.248C915.555 438.648 914.926 438.352 914.352 438.379C913.66 438.405 913.162 438.871 912.979 439.073C912.686 439.387 912.374 439.63 912.047 439.8C911.554 440.053 911.014 440.18 910.432 440.18Z" fill="#020000"/><path fill-rule="evenodd" clip-rule="evenodd" d="M923.28 415.182L923.589 415.183C926.809 415.198 929.834 416.806 931.761 419.529H915.065V419.45C917.023 416.746 920.06 415.167 923.28 415.182Z" fill="#020000"/><path fill-rule="evenodd" clip-rule="evenodd" d="M897.158 415.182L896.849 415.183C893.629 415.198 890.604 416.806 888.677 419.529H905.373V419.45C903.415 416.746 900.378 415.167 897.158 415.182Z" fill="#020000"/><path fill-rule="evenodd" clip-rule="evenodd" d="M904.102 429.439C904.102 429.439 902.271 425.512 898.755 424.29C895.239 423.068 891.369 425.012 891.369 425.012C891.369 425.012 892.776 428.215 896.292 429.437C899.808 430.66 904.102 429.439 904.102 429.439Z" fill="white"/><path fill-rule="evenodd" clip-rule="evenodd" d="M900.288 426.653C900.288 428.335 898.925 429.698 897.244 429.698C895.564 429.698 894.202 428.335 894.202 426.653C894.202 424.971 895.564 423.607 897.244 423.607C898.925 423.607 900.288 424.971 900.288 426.653Z" fill="#020000"/><path fill-rule="evenodd" clip-rule="evenodd" d="M904.103 429.435C903.196 423.157 895.265 420.475 890.39 423.425C890.689 423.902 891.259 424.873 891.558 425.352C892.637 424.699 898.234 422.436 903.321 428.536C903.63 428.906 903.669 429.062 904.103 429.435Z" fill="#020000"/><path fill-rule="evenodd" clip-rule="evenodd" d="M929.522 424.285L929.498 424.273C929.057 424.043 928.511 424.188 928.244 424.607C923.741 431.669 916.334 427.231 916.334 427.231C916.334 427.231 917.242 428.044 918.703 428.761C922.552 430.648 927.222 429.385 929.726 425.904C929.783 425.825 929.839 425.745 929.894 425.663C930.209 425.192 930.024 424.546 929.522 424.285Z" fill="#020000"/><path d="M935.318 470.654H885.904V470.846H857.952L857.955 470.898C857.833 470.902 857.711 470.903 857.59 470.904C857.41 470.905 857.231 470.906 857.049 470.919C844.988 471.829 835.526 480.933 833.63 492.366L831.508 502.918H1016.81L1018.75 478.833L965.507 470.919C965.282 470.902 965.06 470.9 964.838 470.899C964.7 470.898 964.562 470.897 964.423 470.892L964.424 470.846H935.318V470.654Z" fill="#FF0000"/><path d="M1016.81 502.889H831.514L825.023 535.152H962.958L962.976 522.071L1015.34 521.117L1016.81 502.889Z" fill="#FF5200"/><path d="M962.958 535.105H825.033L819.733 561.449L843.179 567.369H962.913L962.958 535.105Z" fill="#FFD300"/><path d="M962.913 567.354H843.121L861.143 571.904L860.312 578.885H962.897L962.913 567.354Z" fill="#008300"/><path d="M935.319 470.633H885.904V466.213H935.319V470.633Z" fill="#8A1242"/><path fill-rule="evenodd" clip-rule="evenodd" d="M962.907 571.904H861.143C861.143 571.904 833.538 615.424 839.668 708.094C839.707 708.684 844.316 748.011 844.316 748.011H911.439V683.962H917.024L924.274 748.011H985.73C985.73 748.011 985.49 734.385 985.716 703.378C986.393 610.511 962.907 571.904 962.907 571.904Z" fill="#891229"/><path fill-rule="evenodd" clip-rule="evenodd" d="M930.606 807.086L941.056 1011.8H953.627L952.624 992.151L975.512 1009.93C977.075 1011.15 978.998 1011.8 980.977 1011.8H1008.69V1005.49C1008.69 1001 1007.05 996.66 1004.08 993.296L979.213 965.154L984.476 807.086H930.606Z" fill="#891229"/><path fill-rule="evenodd" clip-rule="evenodd" d="M911.989 807.086H858.228L877.873 993.979L874.04 1001.92C873.152 1003.76 873.071 1005.96 874.091 1007.73C875.517 1010.2 878.356 1011.69 881.356 1011.8H903.039C907.403 1011.95 910.372 1009.92 910.544 1005.13L908.046 984.759L911.989 807.086Z" fill="#891229"/><path fill-rule="evenodd" clip-rule="evenodd" d="M783.345 608.663L781.24 617.199C780.733 619.255 780.83 621.414 781.52 623.416L790.062 648.165L811.636 624.526L802.564 597.324L783.345 608.663Z" fill="#713A22"/><path fill-rule="evenodd" clip-rule="evenodd" d="M664.617 407.814L680.351 446.663L542.819 455.986L542.434 427.001L664.617 407.814Z" fill="#763427"/><path fill-rule="evenodd" clip-rule="evenodd" d="M691.677 944.426H663.029L654.753 869.768H691.297L691.677 944.426Z" fill="#763427"/><path fill-rule="evenodd" clip-rule="evenodd" d="M647.105 953.202H693.512L693.513 944.56C693.513 931.736 683.124 921.34 670.309 921.34C657.493 921.34 647.105 931.736 647.105 944.56V953.202Z" fill="#E7E6E6"/><path fill-rule="evenodd" clip-rule="evenodd" d="M706.099 944.426H734.748L742.999 869.993L743.023 869.768H706.478L706.099 944.426Z" fill="#763427"/><path fill-rule="evenodd" clip-rule="evenodd" d="M704.264 953.202H750.67L750.672 944.56C750.672 931.736 740.283 921.34 727.467 921.34C714.651 921.34 704.264 931.736 704.264 944.56V953.202Z" fill="#E7E6E6"/><path fill-rule="evenodd" clip-rule="evenodd" d="M673.651 406.139L753.358 423.823L752.482 448.999L644.024 440.321L673.651 406.139Z" fill="#E7E6E6"/><path fill-rule="evenodd" clip-rule="evenodd" d="M769.117 567.164L782.963 612.219L804.622 608.695L795.981 560.963L770.03 444.131L733.576 465.547L769.117 567.164Z" fill="#763427"/><path fill-rule="evenodd" clip-rule="evenodd" d="M776.201 451.348C777.268 437.171 766.649 424.81 752.482 423.742C738.314 422.673 725.963 433.301 724.895 447.478C723.828 461.657 741.126 483.511 741.126 483.511C741.126 483.511 775.133 465.526 776.201 451.348Z" fill="#E7E6E6"/><path fill-rule="evenodd" clip-rule="evenodd" d="M639.03 447.376C627.39 439.221 624.562 423.168 632.711 411.522C640.86 399.874 659.972 397.532 671.61 405.687C683.249 413.842 686.118 440.592 686.118 440.592C686.118 440.592 650.668 455.531 639.03 447.376Z" fill="#E7E6E6"/><path d="M749.183 470.613H650.173L648.684 502.877H749.183V470.613Z" fill="#FF0000"/><path d="M749.184 502.898H648.683L647.56 527.218C646.613 529.39 645.532 532.037 644.376 535.162H753.966C752.231 531.177 750.58 528.041 749.184 525.667V502.898Z" fill="#FF5200"/><path d="M753.944 535.111H644.395C641.518 542.883 638.182 553.621 635.334 567.375H763.524C760.805 553.191 757.224 542.633 753.944 535.111Z" fill="#FFD300"/><path d="M763.528 567.396H635.329C633.392 576.752 631.683 587.501 630.497 599.66H767.406C766.685 587.28 765.287 576.579 763.528 567.396Z" fill="#008300"/><path d="M767.407 599.682H630.495C630.387 600.794 630.283 601.919 630.183 603.055C630.087 604.151 630.927 614.993 632.36 631.945H765.452C766.826 615.154 767.648 604.426 767.598 603.342C767.541 602.106 767.477 600.886 767.407 599.682Z" fill="#0000FF"/><path d="M765.451 631.965H632.362C633.137 641.127 634.085 652.073 635.151 664.228H762.764C763.789 652.061 764.702 641.114 765.451 631.965Z" fill="#930081"/><path d="M740.764 438.375H656.164L671.611 405.688L735.333 419.79L740.764 438.375Z" fill="#0000FF"/><path d="M650.172 470.633L651.174 448.935L656.167 438.369H740.763L749.183 467.18V470.633H650.172Z" fill="#931E77"/><path d="M746.08 857.852H652.638C653.885 871.456 654.91 882.604 655.601 890.115H743.264C743.921 882.604 744.894 871.455 746.08 857.852Z" fill="#FF0000"/><path d="M743.265 890.109H655.601C656.223 896.879 656.576 900.695 656.576 900.695H742.339C742.339 900.695 742.673 896.878 743.265 890.109Z" fill="#FF5200"/><path d="M762.765 664.215H635.15C636.031 674.252 636.994 685.114 638.007 696.478H760.028C760.997 685.111 761.919 674.248 762.765 664.215Z" fill="#FF0000"/><path d="M760.028 696.465H638.005C638.933 706.881 639.905 717.718 640.896 728.728H757.266C758.212 717.716 759.14 706.879 760.028 696.465Z" fill="#FF5200"/><path d="M757.267 728.713H640.895C641.854 739.38 642.832 750.21 643.807 760.976H754.488C755.418 750.209 756.351 739.379 757.267 728.713Z" fill="#FFD300"/><path d="M754.483 761.033H643.812C644.799 771.932 645.783 782.765 646.741 793.297H751.692C752.605 782.764 753.543 771.931 754.483 761.033Z" fill="#008300"/><path d="M751.693 793.281H646.739C647.757 804.469 648.747 815.317 649.681 825.545H748.892C749.781 815.317 750.723 804.468 751.693 793.281Z" fill="#0000FF"/><path d="M748.892 825.549H649.682C650.751 837.258 651.749 848.153 652.634 857.812H746.084C746.926 848.153 747.874 837.258 748.892 825.549Z" fill="#930081"/><path d="M749.183 496.994C733.294 497.204 720.476 510.818 720.476 527.582C720.476 544.476 733.496 558.172 749.556 558.172C753.589 558.172 757.429 557.308 760.92 555.748C757.07 540.856 752.433 531.198 749.183 525.67V496.994Z" fill="#763427"/><path d="M637.97 555.938C641.342 557.376 645.028 558.168 648.891 558.168C664.953 558.168 677.973 544.473 677.973 527.578C677.973 510.706 664.987 497.025 648.955 496.988L647.559 527.218C644.959 533.184 641.338 542.736 637.97 555.938Z" fill="#763427"/><path fill-rule="evenodd" clip-rule="evenodd" d="M680.341 416.176V391.955L717.653 390.871V416.176C717.653 426.487 709.3 434.845 698.997 434.845C688.694 434.845 680.341 426.487 680.341 416.176Z" fill="#420F0F"/><path fill-rule="evenodd" clip-rule="evenodd" d="M748.435 340.736C751.886 371.163 730.036 398.628 699.632 402.081C669.227 405.535 641.782 383.669 638.331 353.242C634.88 322.816 656.73 295.351 687.134 291.898C717.538 288.444 744.983 310.309 748.435 340.736Z" fill="#291028"/><path fill-rule="evenodd" clip-rule="evenodd" d="M728.65 371.586C729.109 375.638 726.199 379.295 722.151 379.756C718.102 380.216 714.447 377.304 713.987 373.252C713.527 369.2 716.437 365.542 720.486 365.083C724.535 364.623 728.19 367.534 728.65 371.586Z" fill="#713A22"/><path fill-rule="evenodd" clip-rule="evenodd" d="M679.309 377.725C679.768 381.777 676.858 385.434 672.81 385.894C668.761 386.355 665.106 383.443 664.647 379.391C664.186 375.339 667.096 371.681 671.145 371.222C675.194 370.761 678.85 373.673 679.309 377.725Z" fill="#713A22"/><path fill-rule="evenodd" clip-rule="evenodd" d="M673.675 388.043L669.836 354.193C668.624 343.504 676.305 333.856 686.995 332.642L696.293 331.585C706.985 330.371 716.638 338.055 717.851 348.746L721.69 382.596C722.902 393.285 715.22 402.934 704.53 404.148L695.233 405.204C684.54 406.418 674.887 398.734 673.675 388.043Z" fill="#713A22"/><path fill-rule="evenodd" clip-rule="evenodd" d="M696.947 383.724C696.816 383.724 696.683 383.719 696.547 383.707C695.697 383.633 694.859 383.296 694.056 382.704C693.628 382.389 693.224 382.276 692.83 382.357C692.036 382.516 691.497 383.398 691.493 383.408L690.66 382.911C690.69 382.861 691.415 381.657 692.632 381.408C693.301 381.27 693.975 381.443 694.629 381.922C695.288 382.408 695.962 382.683 696.63 382.741C697.312 382.802 697.9 382.671 698.374 382.353C698.573 382.219 698.766 382.029 698.945 381.789C699.168 381.482 699.803 380.743 700.824 380.588C701.641 380.468 702.511 380.74 703.397 381.406L702.816 382.18C702.144 381.676 701.521 381.464 700.967 381.547C700.308 381.647 699.879 382.15 699.725 382.362C699.478 382.695 699.206 382.961 698.913 383.158C698.35 383.535 697.69 383.724 696.947 383.724Z" fill="#020000"/><path fill-rule="evenodd" clip-rule="evenodd" d="M698.349 390.775C698.116 388.722 695.003 389.353 695.003 389.353L687.893 390.162C687.917 389.752 699.667 404.29 708.402 387.832L701.291 388.639C701.291 388.639 698.116 388.722 698.349 390.775Z" fill="#E6057A"/><path fill-rule="evenodd" clip-rule="evenodd" d="M701.768 372.855C701.768 372.855 703.093 368.9 706.324 367.348C709.556 365.797 713.468 367.238 713.468 367.238C713.468 367.238 712.47 370.453 709.239 372.004C706.008 373.556 701.768 372.855 701.768 372.855Z" fill="white"/><path fill-rule="evenodd" clip-rule="evenodd" d="M704.638 369.772C704.821 371.382 706.271 372.537 707.88 372.355C709.487 372.173 710.642 370.72 710.46 369.111C710.278 367.502 708.826 366.346 707.219 366.529C705.611 366.71 704.455 368.163 704.638 369.772Z" fill="#020000"/><path fill-rule="evenodd" clip-rule="evenodd" d="M701.767 372.852C701.953 366.748 709.249 363.32 714.234 365.612C713.999 366.101 713.559 367.092 713.324 367.582C712.222 367.075 706.621 365.518 702.417 371.906C702.163 372.294 702.142 372.447 701.767 372.852Z" fill="#020000"/><path fill-rule="evenodd" clip-rule="evenodd" d="M690.058 374.127C690.058 374.127 687.88 370.57 684.384 369.782C680.887 368.996 677.396 371.276 677.396 371.276C677.396 371.276 679.09 374.187 682.586 374.973C686.082 375.761 690.058 374.127 690.058 374.127Z" fill="white"/><path fill-rule="evenodd" clip-rule="evenodd" d="M686.575 371.825C686.758 373.434 685.603 374.886 683.995 375.068C682.387 375.251 680.936 374.095 680.753 372.486C680.571 370.877 681.727 369.424 683.334 369.241C684.942 369.06 686.393 370.215 686.575 371.825Z" fill="#020000"/><path fill-rule="evenodd" clip-rule="evenodd" d="M690.058 374.124C688.51 368.217 680.631 366.513 676.287 369.865C676.624 370.289 677.275 371.156 677.614 371.581C678.574 370.84 683.685 368.066 689.213 373.35C689.548 373.67 689.602 373.814 690.058 374.124Z" fill="#020000"/><path fill-rule="evenodd" clip-rule="evenodd" d="M691.266 363.352L675.293 365.166L674.956 362.197L690.928 360.383L691.266 363.352Z" fill="#291028"/><path fill-rule="evenodd" clip-rule="evenodd" d="M715.084 360.647L699.112 362.461L698.774 359.492L714.747 357.678L715.084 360.647Z" fill="#291028"/><path fill-rule="evenodd" clip-rule="evenodd" d="M671.456 365.756C670.778 355.443 678.217 346.328 688.467 345.164L691.654 344.802L690.975 338.814L693.804 338.493L694.483 344.481L697.671 344.118C707.92 342.954 717.211 350.169 718.86 360.371L722.635 359.942L721.369 348.788C720.055 337.198 709.6 328.87 698.019 330.186L685.006 331.663C673.425 332.979 665.102 343.44 666.417 355.029L667.682 366.184L671.456 365.756Z" fill="#291028"/><path fill-rule="evenodd" clip-rule="evenodd" d="M672.629 374.985L671.425 375.122L670.24 364.67L671.444 364.533L672.629 374.985Z" fill="#291028"/><path fill-rule="evenodd" clip-rule="evenodd" d="M721.185 370.563L719.982 370.7L718.797 360.248L720 360.111L721.185 370.563Z" fill="#291028"/><path fill-rule="evenodd" clip-rule="evenodd" d="M695.19 353.966C695.389 355.721 695.136 357.19 694.625 357.249C694.113 357.306 693.538 355.931 693.338 354.176C693.139 352.422 693.393 350.952 693.904 350.894C694.416 350.836 694.991 352.211 695.19 353.966Z" fill="#E6057A"/><path fill-rule="evenodd" clip-rule="evenodd" d="M699.455 355.601C698.356 356.983 697.139 357.842 696.736 357.521C696.334 357.201 696.898 355.821 697.997 354.439C699.096 353.057 700.314 352.197 700.716 352.518C701.119 352.839 700.554 354.219 699.455 355.601Z" fill="#E6057A"/><path fill-rule="evenodd" clip-rule="evenodd" d="M690.708 355.267C689.327 354.167 687.948 353.602 687.627 354.005C687.308 354.407 688.166 355.626 689.547 356.726C690.928 357.826 692.306 358.391 692.627 357.988C692.948 357.586 692.089 356.367 690.708 355.267Z" fill="#E6057A"/><path fill-rule="evenodd" clip-rule="evenodd" d="M800.004 614.309L809.4 640.624C810.099 642.581 812.251 643.6 814.208 642.9C816.162 642.201 817.18 640.051 816.482 638.097L807.085 611.777L800.004 614.309Z" fill="#713A22"/><path fill-rule="evenodd" clip-rule="evenodd" d="M790.496 626.742L800.055 657.628C800.668 659.611 802.775 660.722 804.76 660.107C806.743 659.493 807.852 657.387 807.238 655.405L797.678 624.516L790.496 626.742Z" fill="#713A22"/><path fill-rule="evenodd" clip-rule="evenodd" d="M783.369 626.541L792.551 656.21C793.165 658.194 795.272 659.303 797.257 658.689C799.239 658.074 800.348 655.97 799.734 653.987L790.551 624.314L783.369 626.541Z" fill="#713A22"/><path fill-rule="evenodd" clip-rule="evenodd" d="M797.12 624.218L805.382 650.913C805.995 652.897 808.102 654.007 810.087 653.392C812.07 652.778 813.179 650.673 812.565 648.69L804.302 621.992L797.12 624.218Z" fill="#713A22"/><path fill-rule="evenodd" clip-rule="evenodd" d="M861.144 571.903L854.457 586.127L847.995 572.995L854.386 570.197L861.144 571.903Z" fill="#972327"/><path fill-rule="evenodd" clip-rule="evenodd" d="M837.685 617.801C835.379 617.65 833.632 615.659 833.784 613.353L834.989 594.908L843.34 595.455L842.133 613.899C841.983 616.205 839.991 617.952 837.685 617.801Z" fill="#972327"/><path fill-rule="evenodd" clip-rule="evenodd" d="M841.63 611.828C839.374 611.335 837.943 609.107 838.433 606.85L842.367 588.789L850.544 590.572L846.611 608.63C846.119 610.889 843.888 612.321 841.63 611.828Z" fill="#972327"/><path fill-rule="evenodd" clip-rule="evenodd" d="M847.996 572.994L855.575 576.95L842.187 599.258L835.013 594.946L847.996 572.994Z" fill="#972327"/><path fill-rule="evenodd" clip-rule="evenodd" d="M851.895 574.727L861.144 571.904L847.16 601.648L839.759 597.739L851.895 574.727Z" fill="#972327"/><path fill-rule="evenodd" clip-rule="evenodd" d="M809.811 601.648L788.3 609.731C786.372 610.503 785.434 612.693 786.206 614.624L786.404 615.121C787.175 617.051 789.365 617.989 791.293 617.218L815.012 608.411L809.811 601.648Z" fill="#FFD4A9"/><path fill-rule="evenodd" clip-rule="evenodd" d="M1028.29 1002.82L1023.55 932.137H1060.98V1002.82H1028.29Z" fill="#972327"/><path fill-rule="evenodd" clip-rule="evenodd" d="M1069.42 621.986L1015.31 632.537V969.505H1069.42V621.986Z" fill="#463EC5"/><path fill-rule="evenodd" clip-rule="evenodd" d="M1062.18 1001.75C1062.18 990.796 1052.02 981.914 1039.49 981.914C1026.96 981.914 1016.8 990.796 1016.8 1001.75V1011.8H1062.18V1001.75Z" fill="#BAC09A"/><path fill-rule="evenodd" clip-rule="evenodd" d="M1133.97 988.471L1119.38 931.795L1163.81 932.163L1170.54 989.158L1133.97 988.471Z" fill="#972327"/><path fill-rule="evenodd" clip-rule="evenodd" d="M1131.99 1011.8V982.543L1134.62 983.405C1145.76 987.053 1157.95 985.601 1167.92 979.436L1169.11 978.703L1205.22 989.497C1209.08 990.669 1211.71 994.23 1211.71 998.267V1011.8H1131.99Z" fill="#BAC09A"/><path fill-rule="evenodd" clip-rule="evenodd" d="M1068.73 621.986L1129.38 641.825L1174.48 969.505H1120.32L1068.73 621.986Z" fill="#463EC5"/><path fill-rule="evenodd" clip-rule="evenodd" d="M1153.15 493.312C1153.15 493.312 1145.16 475.454 1125.59 478.025C1112.72 479.717 1107.05 495.913 1111.45 508.136C1115.85 520.358 1141.11 534.879 1141.11 534.879L1153.15 493.312Z" fill="#972327"/><path fill-rule="evenodd" clip-rule="evenodd" d="M1239.01 625.393L1190.76 549.873L1161.35 569.839L1222.43 637.12L1239.01 625.393Z" fill="#972327"/><path fill-rule="evenodd" clip-rule="evenodd" d="M1243.46 629.865L1248.37 637.957L1273.9 632.899L1272.27 624.678L1243.46 629.865Z" fill="#972327"/><path fill-rule="evenodd" clip-rule="evenodd" d="M1238.52 625.183L1243.87 633.252L1274.87 627.553V618.637L1238.52 625.183Z" fill="#972327"/><path fill-rule="evenodd" clip-rule="evenodd" d="M1149.87 488.113L1190.8 549.931L1161.36 569.854L1112.38 511.601L1149.87 488.113Z" fill="#972327"/><path fill-rule="evenodd" clip-rule="evenodd" d="M1015.31 670.324V613.332H1130.24L1129.63 670.669L1015.31 670.324Z" fill="#444A9A"/><path fill-rule="evenodd" clip-rule="evenodd" d="M1087.29 470.742H1049.95L1010.99 478.24V616.921H1121.34V477.769L1087.29 470.742Z" fill="#972327"/><path fill-rule="evenodd" clip-rule="evenodd" d="M1050.86 432.886C1050.86 428.552 1047.35 425.037 1043.02 425.037C1038.69 425.037 1035.18 428.552 1035.18 432.886C1035.18 437.221 1038.69 440.736 1043.02 440.736C1047.35 440.736 1050.86 437.221 1050.86 432.886Z" fill="#972327"/><path fill-rule="evenodd" clip-rule="evenodd" d="M1086.87 432.886C1086.87 428.552 1090.38 425.037 1094.71 425.037C1099.04 425.037 1102.55 428.552 1102.55 432.886C1102.55 437.221 1099.04 440.736 1094.71 440.736C1090.38 440.736 1086.87 437.221 1086.87 432.886Z" fill="#972327"/><path fill-rule="evenodd" clip-rule="evenodd" d="M1088.24 481.241V450.965L1049.49 451.116V481.241C1049.49 489.122 1055.87 495.511 1063.75 495.511H1073.98C1081.86 495.511 1088.24 489.122 1088.24 481.241Z" fill="#972327"/><path fill-rule="evenodd" clip-rule="evenodd" d="M1094.63 444.591V409.073C1094.63 397.575 1085.31 388.252 1073.81 388.252H1063.91C1052.41 388.252 1043.09 397.575 1043.09 409.073V444.591C1043.09 456.091 1052.41 465.412 1063.91 465.412H1073.81C1085.31 465.412 1094.63 456.091 1094.63 444.591Z" fill="#972327"/><path fill-rule="evenodd" clip-rule="evenodd" d="M1073.38 420.652C1078.16 414.814 1086.07 414.095 1090.84 420.652H1073.38Z" fill="#C6C6C6"/><path fill-rule="evenodd" clip-rule="evenodd" d="M1064.07 420.652C1059.28 414.814 1051.38 414.095 1046.61 420.652H1064.07Z" fill="#C6C6C6"/><path fill-rule="evenodd" clip-rule="evenodd" d="M1043.09 443.536H1046.04V422.299H1043.09V443.536Z" fill="#C6C6C6"/><path fill-rule="evenodd" clip-rule="evenodd" d="M1091.83 443.536H1094.63V422.299H1091.83V443.536Z" fill="#C6C6C6"/><path fill-rule="evenodd" clip-rule="evenodd" d="M1043.09 461.464V443.484H1094.63V461.464C1094.63 474.804 1083.82 485.62 1070.48 485.62H1067.25C1053.91 485.62 1043.09 474.804 1043.09 461.464Z" fill="#C6C6C6"/><path fill-rule="evenodd" clip-rule="evenodd" d="M1068.8 442.041C1067.59 442.041 1066.63 441.441 1065.79 440.912C1064.4 440.042 1063.56 439.519 1061.89 441.191L1060.81 440.103C1063.34 437.563 1065.15 438.697 1066.6 439.609C1067.34 440.068 1068.03 440.502 1068.8 440.502C1069.59 440.502 1070.24 440.102 1070.93 439.677C1072.31 438.832 1074.03 437.779 1076.87 440.142L1075.89 441.326C1073.89 439.665 1073.03 440.192 1071.73 440.99C1070.93 441.482 1070.02 442.041 1068.8 442.041Z" fill="#020000"/><path fill-rule="evenodd" clip-rule="evenodd" d="M994.009 483.65C984.68 490.86 982.96 504.273 990.165 513.608C997.371 522.944 1010.77 524.666 1020.1 517.455C1029.43 510.244 1031.15 496.832 1023.95 487.496C1016.74 478.161 1003.34 476.439 994.009 483.65Z" fill="#972327"/><path d="M1130.89 502.915H1094.43C1097.69 490.88 1099.98 480.045 1099.98 473.361L1129.24 479.397L1130.89 502.915Z" fill="#FF0000"/><path d="M1084.57 535.142H1133.14L1130.89 502.879H1094.44C1091.6 513.372 1088.01 524.779 1084.57 535.142Z" fill="#FF5200"/><path d="M1073.25 567.392H1135.4L1133.14 535.129H1084.58C1079.68 549.87 1075.06 562.503 1073.25 567.392Z" fill="#FFD300"/><path d="M1073.02 599.652L1072.45 569.556C1072.45 569.556 1072.73 568.79 1073.25 567.389H1135.4L1137.66 599.652H1073.02Z" fill="#008300"/><path d="M1137.66 599.641H1073.02L1073.64 631.904H1139.91L1137.66 599.641Z" fill="#0000FF"/><path d="M1139.91 631.9H1073.64L1074.26 664.164H1142.17L1139.91 631.9Z" fill="#930081"/><path d="M1142.17 664.152H1074.26L1074.86 695.381L1144.37 695.658L1142.17 664.152Z" fill="#FF0000"/><path d="M1040.87 502.922C1037.62 490.946 1035.34 480.166 1035.34 473.502L1006.08 479.191L1004.42 502.922H1040.87Z" fill="#FF0000"/><path d="M1040.86 502.912H1004.42L1002.17 535.175H1050.74C1047.29 524.811 1043.71 513.402 1040.86 502.912Z" fill="#FF5200"/><path d="M1050.73 535.141H1002.17L999.914 567.404H1062.07C1060.26 562.524 1055.64 549.886 1050.73 535.141Z" fill="#FFD300"/><path d="M1062.07 567.396H999.914L997.659 599.66H1062.3L1062.88 569.556C1062.88 569.556 1062.59 568.793 1062.07 567.396Z" fill="#008300"/><path d="M1062.3 599.664H997.659L995.404 631.927H1061.68L1062.3 599.664Z" fill="#0000FF"/><path d="M1061.68 631.926H995.405L993.149 664.189H1061.06L1061.68 631.926Z" fill="#930081"/><path d="M1061.06 664.195H993.148L990.949 695.659L1060.47 695.383L1061.06 664.195Z" fill="#FF0000"/><path fill-rule="evenodd" clip-rule="evenodd" d="M1056.56 381.137C1056.56 374.887 1061.62 369.82 1067.87 369.82C1074.11 369.82 1079.18 374.887 1079.18 381.137C1079.18 387.387 1074.11 392.454 1067.87 392.454C1061.62 392.454 1056.56 387.387 1056.56 381.137Z" fill="#C6C6C6"/><path fill-rule="evenodd" clip-rule="evenodd" d="M1044.83 392.203C1044.83 383.528 1051.86 376.496 1060.53 376.496C1069.19 376.496 1076.22 383.528 1076.22 392.203C1076.22 400.879 1069.19 407.911 1060.53 407.911C1051.86 407.911 1044.83 400.879 1044.83 392.203Z" fill="#C6C6C6"/><path fill-rule="evenodd" clip-rule="evenodd" d="M1101 439.946C1101 441.405 1099.81 442.589 1098.35 442.589C1096.9 442.589 1095.71 441.405 1095.71 439.946C1095.71 438.487 1096.9 437.303 1098.35 437.303C1099.81 437.303 1101 438.487 1101 439.946Z" fill="#F28B00"/><path fill-rule="evenodd" clip-rule="evenodd" d="M1095.12 434.979C1094.51 435.653 1093.64 435.961 1092.74 435.816L1074.96 433.002C1073.67 432.797 1072.73 431.696 1072.73 430.383V425.627C1072.73 424.164 1073.92 422.975 1075.38 422.975H1091.19C1092.4 422.975 1093.45 423.791 1093.76 424.96L1095.72 432.529C1095.95 433.412 1095.73 434.304 1095.12 434.979ZM1064.72 430.383C1064.72 431.696 1063.78 432.797 1062.48 433.002L1044.7 435.816C1043.81 435.962 1042.94 435.653 1042.33 434.979C1041.72 434.304 1041.5 433.412 1041.73 432.529L1043.69 424.96C1043.99 423.791 1045.05 422.975 1046.26 422.975H1062.07C1063.53 422.975 1064.72 424.164 1064.72 425.627V430.383ZM1098.52 431.802L1096.55 424.233C1095.92 421.79 1093.71 420.084 1091.19 420.084H1075.38C1072.7 420.084 1070.47 421.989 1069.95 424.512H1067.5C1066.98 421.989 1064.74 420.084 1062.07 420.084H1046.26C1043.73 420.084 1041.53 421.79 1040.9 424.233L1038.93 431.802C1038.46 433.618 1038.93 435.531 1040.19 436.921C1041.25 438.092 1042.73 438.74 1044.28 438.74C1044.57 438.74 1044.86 438.717 1045.16 438.671L1062.94 435.857C1065.64 435.429 1067.61 433.127 1067.61 430.383V427.193H1069.84V430.383C1069.84 433.127 1071.8 435.429 1074.51 435.857L1092.29 438.671C1092.58 438.717 1092.88 438.74 1093.16 438.74C1094.71 438.74 1096.2 438.09 1097.26 436.92C1098.52 435.53 1098.99 433.618 1098.52 431.802Z" fill="#020000"/><path fill-rule="evenodd" clip-rule="evenodd" d="M1077.36 451.252C1075.02 451.13 1074.68 447.688 1072.55 447.771C1070.62 447.845 1071.2 449.151 1069.5 449.217C1067.9 449.278 1067.76 448.12 1065.92 448.109C1064.26 448.1 1064 451.43 1061.88 451.893C1061.73 451.925 1065.69 455.797 1069.55 455.646C1073.41 455.497 1077.78 451.273 1077.36 451.252Z" fill="#E73245"/><path fill-rule="evenodd" clip-rule="evenodd" d="M1069.93 452.084C1069.89 452.153 1069.86 452.216 1069.84 452.256C1069.64 452.649 1069.62 453.066 1069.79 453.275C1069.95 453.49 1070.34 453.456 1070.58 453.408C1070.84 453.291 1071.11 453.1 1071.08 452.834C1071.03 452.53 1070.62 452.146 1070.14 452.088C1070.07 452.086 1070 452.084 1069.93 452.084ZM1070.34 454.436C1069.59 454.466 1069.19 454.124 1069 453.889C1068.67 453.457 1068.6 452.813 1068.8 452.175C1068.3 452.252 1067.82 452.37 1067.31 452.49C1065.7 452.877 1064.04 453.28 1061.71 452.307L1062.09 451.39C1064.12 452.235 1065.56 451.889 1067.08 451.523C1067.83 451.344 1068.6 451.159 1069.45 451.107C1069.86 450.698 1070.39 450.48 1070.97 450.437C1072.08 450.093 1073.05 450.339 1074.07 450.6C1075.12 450.871 1076.22 451.148 1077.67 450.836L1077.88 451.807C1076.2 452.172 1074.94 451.849 1073.82 451.564C1072.84 451.313 1072.07 451.113 1071.2 451.404L1071.15 451.422C1071.64 451.723 1071.99 452.189 1072.06 452.691C1072.11 453.02 1072.09 453.839 1070.94 454.341L1070.84 454.369C1070.66 454.409 1070.5 454.431 1070.34 454.436Z" fill="#020000"/><path fill-rule="evenodd" clip-rule="evenodd" d="M1067.87 392.203C1067.87 383.528 1074.9 376.496 1083.57 376.496C1092.23 376.496 1099.26 383.528 1099.26 392.203C1099.26 400.879 1092.23 407.911 1083.57 407.911C1074.9 407.911 1067.87 400.879 1067.87 392.203Z" fill="#C6C6C6"/><path fill-rule="evenodd" clip-rule="evenodd" d="M995.641 482.504L962.801 500.553L962.716 543.926L1002.68 527.981L1004.06 508.208L995.641 482.504Z" fill="#972327"/><path fill-rule="evenodd" clip-rule="evenodd" d="M1118.16 476.708L1134.81 498.018L1142.85 471.09L1122.99 469.52L1118.16 476.708Z" fill="#FFD4A9"/><path fill-rule="evenodd" clip-rule="evenodd" d="M1148.41 509.258C1150.27 507.849 1150.65 505.194 1149.24 503.328L1133.93 483.025L1127.17 488.132L1142.47 508.427C1143.88 510.297 1146.54 510.669 1148.41 509.258Z" fill="#FFD4A9"/><path fill-rule="evenodd" clip-rule="evenodd" d="M1165.46 511.76C1167.66 510.965 1168.8 508.538 1168.01 506.34L1161.65 488.742L1153.69 491.622L1160.04 509.215C1160.83 511.416 1163.26 512.556 1165.46 511.76Z" fill="#FFD4A9"/><path fill-rule="evenodd" clip-rule="evenodd" d="M1161.1 511.055C1163.16 509.942 1163.92 507.373 1162.81 505.316L1153.91 488.859L1146.46 492.893L1155.36 509.344C1156.47 511.403 1159.04 512.169 1161.1 511.055Z" fill="#FFD4A9"/><path fill-rule="evenodd" clip-rule="evenodd" d="M1142.85 471.09L1136.59 477.069L1155.88 494.995L1161.65 488.742L1142.85 471.09Z" fill="#FFD4A9"/><path fill-rule="evenodd" clip-rule="evenodd" d="M1139.5 473.719L1133.4 479.601L1151.67 498.566L1157.77 492.684L1139.5 473.719Z" fill="#FFD4A9"/><path fill-rule="evenodd" clip-rule="evenodd" d="M1142.7 494.614C1142.7 494.614 1140.08 491.713 1139.37 490.684C1137.9 488.549 1140.24 486.94 1141.82 488.457C1142.83 489.43 1145.97 492.827 1148.42 495.195C1145.39 488.093 1142.48 475.959 1142.48 475.959L1131.94 489.106L1142.7 494.614Z" fill="#FFD4A9"/><path fill-rule="evenodd" clip-rule="evenodd" d="M1393.82 685.08C1391.57 685.713 1389.23 684.399 1388.6 682.146L1381.73 657.663L1389.89 655.371L1396.76 679.859C1397.39 682.11 1396.08 684.448 1393.82 685.08Z" fill="#420F0F"/><path fill-rule="evenodd" clip-rule="evenodd" d="M1385.48 700.173C1383.52 701.443 1380.89 700.879 1379.63 698.911L1369.48 683.2L1376.6 678.602L1386.74 694.319C1388.01 696.283 1387.45 698.904 1385.48 700.173Z" fill="#420F0F"/><path fill-rule="evenodd" clip-rule="evenodd" d="M1387.57 696.275C1385.43 697.239 1382.92 696.29 1381.96 694.157L1374.27 677.111L1381.99 673.621L1389.68 690.673C1390.65 692.805 1389.7 695.312 1387.57 696.275Z" fill="#420F0F"/><path fill-rule="evenodd" clip-rule="evenodd" d="M1366.95 657.005L1375.38 656.176L1377.96 682.388L1369.53 683.216L1366.95 657.005Z" fill="#420F0F"/><path fill-rule="evenodd" clip-rule="evenodd" d="M1370.96 656.466L1379.33 655.172L1383.35 681.202L1374.97 682.495L1370.96 656.466Z" fill="#420F0F"/><path fill-rule="evenodd" clip-rule="evenodd" d="M1385.63 671.669C1385.63 671.669 1384.92 667.82 1384.53 666.632C1383.72 664.166 1381.02 665.061 1381.27 667.233C1381.44 668.626 1382.24 673.183 1382.63 676.572C1378.82 669.856 1370.93 660.192 1370.93 660.192L1387.78 659.758L1385.63 671.669Z" fill="#420F0F"/><path fill-rule="evenodd" clip-rule="evenodd" d="M570.282 338.598H463.458L463.752 459.629H571.744L570.282 338.598Z" fill="#F3978C"/><path fill-rule="evenodd" clip-rule="evenodd" d="M513.591 851.356L514.828 536.244L518.708 529.242L518.492 457.703C518.492 457.703 465.847 457.167 465.473 457.703C439.565 494.861 442.724 541.937 445.638 566.729C448.168 588.264 483.718 851.855 483.718 851.855L513.591 851.356Z" fill="#F3978C"/><path fill-rule="evenodd" clip-rule="evenodd" d="M525.887 851.017L520.856 535.84L516.976 528.839L517.192 457.704C517.192 457.704 568.746 457.157 569.103 457.704C597.758 501.627 591.634 534.653 590.047 566.325C588.962 587.982 551.967 851.452 551.967 851.452L525.887 851.017Z" fill="#F3978C"/><path fill-rule="evenodd" clip-rule="evenodd" d="M526.774 303.95C526.774 314.801 535.565 323.6 546.41 323.6C557.253 323.6 566.044 314.801 566.044 303.95C566.044 293.098 557.253 284.301 546.41 284.301C535.565 284.301 526.774 293.098 526.774 303.95Z" fill="#E7E6E6"/><path fill-rule="evenodd" clip-rule="evenodd" d="M531.038 334.382C531.038 342.271 537.429 348.666 545.312 348.666C553.196 348.666 559.587 342.271 559.587 334.382C559.587 326.492 553.196 320.098 545.312 320.098C537.429 320.098 531.038 326.492 531.038 334.382Z" fill="#E7E6E6"/><path fill-rule="evenodd" clip-rule="evenodd" d="M538.229 363.829C538.229 374.681 546.409 383.479 546.409 383.479C546.409 383.479 554.589 374.681 554.589 363.829C554.589 352.978 546.409 344.18 546.409 344.18C546.409 344.18 538.229 352.978 538.229 363.829Z" fill="#E7E6E6"/><path fill-rule="evenodd" clip-rule="evenodd" d="M469.878 303.95C469.878 314.801 478.668 323.6 489.513 323.6C500.357 323.6 509.147 314.801 509.147 303.95C509.147 293.098 500.357 284.301 489.513 284.301C478.668 284.301 469.878 293.098 469.878 303.95Z" fill="#E7E6E6"/><path fill-rule="evenodd" clip-rule="evenodd" d="M476.34 334.382C476.34 342.271 482.731 348.666 490.614 348.666C498.497 348.666 504.888 342.271 504.888 334.382C504.888 326.492 498.497 320.098 490.614 320.098C482.731 320.098 476.34 326.492 476.34 334.382Z" fill="#E7E6E6"/><path fill-rule="evenodd" clip-rule="evenodd" d="M481.332 363.829C481.332 374.681 489.513 383.479 489.513 383.479C489.513 383.479 497.693 374.681 497.693 363.829C497.693 352.978 489.513 344.18 489.513 344.18C489.513 344.18 481.332 352.978 481.332 363.829Z" fill="#E7E6E6"/><path fill-rule="evenodd" clip-rule="evenodd" d="M551.093 298.404C551.093 302.574 547.714 305.955 543.547 305.955C539.379 305.955 536 302.574 536 298.404C536 294.233 539.379 290.852 543.547 290.852C547.714 290.852 551.093 294.233 551.093 298.404Z" fill="#F7BDB6"/><path fill-rule="evenodd" clip-rule="evenodd" d="M499.887 298.38C499.887 302.551 496.508 305.932 492.341 305.932C488.173 305.932 484.794 302.551 484.794 298.38C484.794 294.21 488.173 290.828 492.341 290.828C496.508 290.828 499.887 294.21 499.887 298.38Z" fill="#F7BDB6"/><path fill-rule="evenodd" clip-rule="evenodd" d="M540.882 299.136C532.954 299.136 526.503 305.591 526.503 313.527C526.503 321.461 532.954 327.916 540.882 327.916C548.811 327.916 555.262 321.461 555.262 313.527C555.262 305.591 548.811 299.136 540.882 299.136ZM540.882 329.794C531.919 329.794 524.626 322.497 524.626 313.527C524.626 304.555 531.919 297.258 540.882 297.258C549.846 297.258 557.139 304.555 557.139 313.527C557.139 322.497 549.846 329.794 540.882 329.794Z" fill="#E6057A"/><path fill-rule="evenodd" clip-rule="evenodd" d="M495.04 299.136C487.111 299.136 480.661 305.591 480.661 313.527C480.661 321.461 487.111 327.916 495.04 327.916C502.968 327.916 509.419 321.461 509.419 313.527C509.419 305.591 502.968 299.136 495.04 299.136ZM495.04 329.794C486.076 329.794 478.783 322.497 478.783 313.527C478.783 304.555 486.076 297.258 495.04 297.258C504.003 297.258 511.296 304.555 511.296 313.527C511.296 322.497 504.003 329.794 495.04 329.794Z" fill="#E6057A"/><path fill-rule="evenodd" clip-rule="evenodd" d="M499.318 352.107V315.955H536.604V352.107C536.604 362.411 528.258 370.763 517.961 370.763C507.665 370.763 499.318 362.411 499.318 352.107Z" fill="#F3978C"/><path fill-rule="evenodd" clip-rule="evenodd" d="M493.25 309.942V275.099C493.25 264.095 502.172 255.174 513.177 255.174H522.746C533.751 255.174 542.673 264.095 542.673 275.099V309.942C542.673 320.945 533.751 329.866 522.746 329.866H513.177C502.172 329.866 493.25 320.945 493.25 309.942Z" fill="#F7BDB6"/><path fill-rule="evenodd" clip-rule="evenodd" d="M518.147 307.655C517.863 307.655 517.57 307.624 517.268 307.563C516.414 307.39 515.601 306.952 514.853 306.258C514.454 305.889 514.055 305.718 513.647 305.763C512.82 305.833 512.172 306.668 512.166 306.676L511.377 306.077C511.413 306.029 512.289 304.888 513.554 304.776C514.253 304.709 514.917 304.967 515.525 305.53C516.139 306.099 516.791 306.456 517.464 306.592C518.153 306.73 518.765 306.668 519.279 306.4C519.5 306.286 519.717 306.115 519.925 305.892C520.187 305.605 520.918 304.927 521.974 304.889C522.833 304.853 523.671 305.238 524.495 306.015L523.815 306.737C523.191 306.147 522.596 305.87 522.01 305.879C521.327 305.904 520.832 306.367 520.652 306.564C520.364 306.874 520.056 307.114 519.734 307.281C519.251 307.53 518.719 307.655 518.147 307.655Z" fill="#020000"/><path fill-rule="evenodd" clip-rule="evenodd" d="M495.465 284.303L505.177 278.015C508.129 276.426 512.049 277.471 512.728 280.142C512.752 280.234 512.771 280.33 512.788 280.426L512.949 281.396L495.465 284.303Z" fill="#E6057A"/><path fill-rule="evenodd" clip-rule="evenodd" d="M540.554 284.303L530.842 278.015C527.89 276.426 523.97 277.471 523.291 280.142C523.267 280.234 523.248 280.33 523.231 280.426L523.07 281.396L540.554 284.303Z" fill="#E6057A"/><path fill-rule="evenodd" clip-rule="evenodd" d="M510.725 296.57C510.725 296.57 508.742 292.391 504.982 291.115C501.223 289.839 497.109 291.95 497.109 291.95C497.109 291.95 499.125 295.86 502.884 297.136C506.644 298.412 510.725 296.57 510.725 296.57Z" fill="white"/><path fill-rule="evenodd" clip-rule="evenodd" d="M509.85 296.897C505.239 290.104 500.164 291.366 497.495 292.597L496.489 290.957C499.068 289.767 505.974 288.102 511.558 296.33L509.85 296.897Z" fill="#020000"/><path d="M498.594 291.352C498.434 291.935 498.442 292.571 498.655 293.185C499.216 294.8 500.979 295.654 502.592 295.093C504.206 294.532 505.059 292.768 504.498 291.154C504.474 291.083 504.447 291.014 504.418 290.947C503.728 290.773 503.034 290.703 502.362 290.703C500.908 290.703 499.56 291.032 498.594 291.352Z" fill="#020000"/><path fill-rule="evenodd" clip-rule="evenodd" d="M525.111 296.57C525.111 296.57 527.094 292.391 530.854 291.115C534.613 289.839 538.727 291.95 538.727 291.95C538.727 291.95 536.711 295.86 532.952 297.136C529.192 298.412 525.111 296.57 525.111 296.57Z" fill="white"/><path fill-rule="evenodd" clip-rule="evenodd" d="M525.986 296.897C530.596 290.104 535.672 291.366 538.341 292.597L539.347 290.957C536.768 289.767 529.862 288.102 524.277 296.33L525.986 296.897Z" fill="#020000"/><path d="M531.744 291.064C532.718 291.864 533.141 293.215 532.704 294.474C532.143 296.089 530.381 296.943 528.767 296.383C527.775 296.038 527.07 295.237 526.805 294.296C527.766 293.144 529.145 291.894 530.921 291.291C531.194 291.198 531.469 291.124 531.744 291.064Z" fill="#020000"/><path fill-rule="evenodd" clip-rule="evenodd" d="M493.29 315.873V287.396C493.29 276.387 502.193 267.463 513.176 267.463H516.491V261.3H519.432V267.463H522.747C533.73 267.463 542.633 276.387 542.633 287.396V315.873H546.534V274.944C546.534 263.014 536.77 253.344 524.727 253.344H511.196C499.153 253.344 489.39 263.014 489.39 274.944V315.873H493.29Z" fill="#E7E6E6"/><path fill-rule="evenodd" clip-rule="evenodd" d="M522.344 318.662C528.538 317.323 529.159 312.222 529.159 312.222C529.159 312.222 528.191 312.432 526.066 311.268C526.066 311.268 522.813 309.336 520.983 312.823C517.877 310.403 515.71 313.508 515.71 313.508C514.254 315.443 513.286 315.653 513.286 315.653C513.286 315.653 515.955 320.043 522.149 318.704L522.344 318.662Z" fill="#5F69AE"/><path fill-rule="evenodd" clip-rule="evenodd" d="M520.889 314.373L518.648 314.857L518.997 316.472L521.237 315.988L520.889 314.373Z" fill="white"/><path fill-rule="evenodd" clip-rule="evenodd" d="M523.649 313.775L521.408 314.26L521.756 315.874L523.997 315.39L523.649 313.775Z" fill="white"/><path fill-rule="evenodd" clip-rule="evenodd" d="M538.826 251.021H524.889C522.38 251.021 520.348 253.056 520.348 255.566V255.856H515.579V255.16C515.579 252.65 513.546 250.615 511.038 250.615H497.101C494.592 250.615 492.559 252.65 492.559 255.16V259.905C492.559 262.415 494.592 264.451 497.101 264.451H511.038C513.546 264.451 515.579 262.415 515.579 259.905V258.562H520.348V260.311C520.348 262.821 522.38 264.856 524.889 264.856H538.826C541.334 264.856 543.368 262.821 543.368 260.311V255.566C543.368 253.056 541.334 251.021 538.826 251.021Z" fill="#E6057A"/><path fill-rule="evenodd" clip-rule="evenodd" d="M518.432 315.286C518.432 315.286 519.123 314.387 520.437 314.853C520.437 314.853 521.363 315.161 522.152 314.482C522.152 314.482 522.878 313.977 523.747 314.137L524.184 312.945L517.669 314.353L518.432 315.286Z" fill="#5F69AE"/><path fill-rule="evenodd" clip-rule="evenodd" d="M510.189 262.902H498.355C496.343 262.902 494.713 261.271 494.713 259.259V255.837C494.713 253.825 496.343 252.195 498.355 252.195H510.189C512.201 252.195 513.832 253.825 513.832 255.837V259.259C513.832 261.271 512.201 262.902 510.189 262.902Z" fill="#3E3E67"/><path fill-rule="evenodd" clip-rule="evenodd" d="M537.977 263.281H526.143C524.131 263.281 522.501 261.65 522.501 259.638V256.216C522.501 254.204 524.131 252.574 526.143 252.574H537.977C539.989 252.574 541.62 254.204 541.62 256.216V259.638C541.62 261.65 539.989 263.281 537.977 263.281Z" fill="#232246"/><path fill-rule="evenodd" clip-rule="evenodd" d="M520.862 539.246V543.35L591.582 538.747C591.582 538.747 596.4 493.797 571.631 459.503C571.544 459.383 463.999 459.413 463.88 459.503C438.023 479.002 443.61 539.28 443.61 539.28L514.869 543.35V539.246H520.862Z" fill="#FFD400"/><path d="M578.514 470.631H454.274C448.833 479.891 445.959 491.696 444.496 502.894H589.484C587.558 492.719 584.215 481.457 578.514 470.631Z" fill="#FF0000"/><path d="M589.482 502.879H444.498C442.741 516.319 443.019 528.888 443.337 535.142H591.829C592.102 529.361 592.194 517.194 589.482 502.879Z" fill="#FF5200"/><path d="M591.83 535.129H443.337C443.47 537.761 443.611 539.279 443.611 539.279L514.869 543.35V539.245H520.861V543.35L591.581 538.746C591.581 538.746 591.72 537.449 591.83 535.129Z" fill="#FFD300"/><path d="M578.521 470.646H454.266C456.85 466.245 460.013 462.418 463.879 459.502C463.942 459.454 494.958 459.424 523.695 459.424C548.49 459.424 571.59 459.447 571.629 459.502C574.242 463.12 576.526 466.857 578.521 470.646Z" fill="#930081"/><path fill-rule="evenodd" clip-rule="evenodd" d="M571.368 338.675L566.595 338.594V387.209H571.368V338.675Z" fill="#930081"/><path fill-rule="evenodd" clip-rule="evenodd" d="M471.008 334.312C471.008 334.312 472.503 335.167 473.144 335.582C473.953 336.105 474.89 336.814 474.89 336.814L469.525 380.188L465.465 375.422L471.008 334.312Z" fill="#930081"/><path fill-rule="evenodd" clip-rule="evenodd" d="M517.963 400.995L465.49 375.223L463.584 390.884L463.672 426.743H571.368V375.494L517.963 400.995Z" fill="#930081"/><path fill-rule="evenodd" clip-rule="evenodd" d="M517.963 400.995L465.49 375.223L463.584 391.185L463.672 426.803H517.963" fill="#930081"/><path d="M490.104 426.741C475.621 426.741 463.88 414.992 463.88 400.498C463.88 391.941 467.972 384.341 474.305 379.551L516.328 400.19C516.329 400.292 516.329 400.395 516.329 400.498C516.329 414.992 504.588 426.741 490.104 426.741Z" fill="#0000FF"/><path d="M480.244 382.467C473.882 385.958 469.569 392.723 469.569 400.497C469.569 411.846 478.763 421.046 490.104 421.046C501.446 421.046 510.639 411.846 510.639 400.497C510.639 399.399 510.553 398.322 510.387 397.271L480.244 382.467Z" fill="#008300"/><path d="M487.123 385.848C480.301 387.23 475.166 393.264 475.166 400.499C475.166 408.755 481.854 415.448 490.105 415.448C498.354 415.448 505.043 408.755 505.043 400.499C505.043 398.129 504.492 395.888 503.511 393.897L487.123 385.848Z" fill="#FFD300"/><path fill-rule="evenodd" clip-rule="evenodd" d="M480.475 400.497C480.475 405.819 484.786 410.133 490.104 410.133C495.422 410.133 499.733 405.819 499.733 400.497C499.733 395.176 495.422 390.861 490.104 390.861C484.786 390.861 480.475 395.176 480.475 400.497Z" fill="#FF5200"/><path fill-rule="evenodd" clip-rule="evenodd" d="M485.037 400.5C485.037 403.301 487.306 405.57 490.104 405.57C492.903 405.57 495.171 403.301 495.171 400.5C495.171 397.699 492.903 395.43 490.104 395.43C487.306 395.43 485.037 397.699 485.037 400.5Z" fill="#FF0000"/><path fill-rule="evenodd" clip-rule="evenodd" d="M517.963 400.993L571.368 375.492V426.741H517.963" fill="#931E77"/><path d="M571.368 400.377V400.62C571.303 415.058 559.586 426.742 545.144 426.742C530.673 426.742 518.94 415.014 518.919 400.537L561.672 380.123C567.559 384.911 571.331 392.203 571.368 400.377Z" fill="#0000FF"/><path d="M524.794 397.73C524.672 398.635 524.609 399.558 524.609 400.496C524.609 411.846 533.802 421.045 545.143 421.045C556.484 421.045 565.679 411.846 565.679 400.496C565.679 393.051 561.722 386.531 555.798 382.926L524.794 397.73Z" fill="#008300"/><path d="M531.428 394.564C530.641 396.383 530.205 398.389 530.205 400.497C530.205 408.754 536.894 415.446 545.144 415.446C553.394 415.446 560.082 408.754 560.082 400.497C560.082 393.635 555.461 387.852 549.163 386.096L531.428 394.564Z" fill="#FFD300"/><path fill-rule="evenodd" clip-rule="evenodd" d="M554.773 400.497C554.773 405.819 550.462 410.133 545.144 410.133C539.826 410.133 535.515 405.819 535.515 400.497C535.515 395.176 539.826 390.861 545.144 390.861C550.462 390.861 554.773 395.176 554.773 400.497Z" fill="#FF5200"/><path fill-rule="evenodd" clip-rule="evenodd" d="M550.211 400.5C550.211 403.301 547.943 405.57 545.145 405.57C542.346 405.57 540.077 403.301 540.077 400.5C540.077 397.699 542.346 395.43 545.145 395.43C547.943 395.43 550.211 397.699 550.211 400.5Z" fill="#FF0000"/><path fill-rule="evenodd" clip-rule="evenodd" d="M459.17 673.107L479.073 831.175L454.208 859.317C451.235 862.681 449.595 867.018 449.595 871.509V877.826H477.31C479.289 877.826 481.212 877.167 482.775 875.953L503.158 860.118V877.826H515.729V673.107H459.17Z" fill="#D0DEF2"/><path fill-rule="evenodd" clip-rule="evenodd" d="M552.57 853.369L578.088 672.779H521.762L525.703 851.016L523.207 871.369C523.379 876.159 526.348 878.195 530.712 878.038H552.395C555.395 877.929 558.234 876.445 559.66 873.971C560.68 872.201 560.599 869.999 559.711 868.16L552.57 853.369Z" fill="#D0DEF2"/><path fill-rule="evenodd" clip-rule="evenodd" d="M553.887 601.355L567.958 586.508C572.459 581.761 569.663 573.647 563.145 573.118C562.891 573.097 562.635 573.086 562.375 573.086C558.621 573.086 555.392 575.295 553.887 578.478C552.382 575.295 549.152 573.086 545.399 573.086C545.139 573.086 544.882 573.097 544.628 573.118C538.11 573.647 535.315 581.761 539.815 586.508L553.887 601.355Z" fill="#E6057A"/><path fill-rule="evenodd" clip-rule="evenodd" d="M786.506 650.961C785.253 649.268 785.603 646.88 787.29 645.618L795.536 639.458C797.121 638.283 799.357 638.617 800.53 640.202L800.832 640.61C802.007 642.196 801.674 644.434 800.089 645.608L791.869 651.749C790.172 653.018 787.768 652.665 786.506 650.961Z" fill="#FFD4A9"/><path fill-rule="evenodd" clip-rule="evenodd" d="M776.658 630.877C775.404 629.184 775.755 626.796 777.441 625.534L785.688 619.374C787.272 618.199 789.508 618.533 790.681 620.118L790.984 620.526C792.158 622.112 791.825 624.35 790.241 625.524L782.02 631.665C780.323 632.934 777.919 632.581 776.658 630.877Z" fill="#FFD4A9"/><path fill-rule="evenodd" clip-rule="evenodd" d="M778.279 638.76C777.097 637.057 777.486 634.721 779.157 633.493L793.604 622.875C795.224 621.75 797.448 622.15 798.573 623.77L798.864 624.188C799.989 625.808 799.587 628.034 797.969 629.161L783.681 639.66C781.949 640.934 779.507 640.527 778.279 638.76Z" fill="#FFD4A9"/><path fill-rule="evenodd" clip-rule="evenodd" d="M781.996 644.912C780.82 643.218 781.198 640.895 782.851 639.662L793.672 631.596C795.292 630.47 797.517 630.871 798.642 632.492L798.931 632.91C800.057 634.53 799.656 636.756 798.037 637.882L787.418 645.797C785.686 647.088 783.229 646.688 781.996 644.912Z" fill="#FFD4A9"/><path fill-rule="evenodd" clip-rule="evenodd" d="M401.895 1020H165V802.447H401.895V1020Z" fill="#B8B7B7"/><path fill-rule="evenodd" clip-rule="evenodd" d="M601.707 1020H387.443V877.826H601.707V1020Z" fill="#B8B7B7"/><path fill-rule="evenodd" clip-rule="evenodd" d="M601.699 1020H801.518V953.201H601.699V1020Z" fill="#B8B7B7"/><path fill-rule="evenodd" clip-rule="evenodd" d="M1409.17 641.064C1409.17 647.155 1404.23 652.092 1398.15 652.092C1392.06 652.092 1387.12 647.155 1387.12 641.064C1387.12 634.973 1392.06 630.035 1398.15 630.035C1404.23 630.035 1409.17 634.973 1409.17 641.064Z" fill="#B0C2E4"/><path fill-rule="evenodd" clip-rule="evenodd" d="M1436 902.999H1401.89V641.805H1394.4V902.999V912.46V982.309H1215.16V912.46V902.999V641.805H1207.66V902.999H1173.56V912.46H1207.66V990.517H1211.41H1215.16H1394.4H1401.89V982.309V912.46H1436V902.999Z" fill="#444A9A"/><path fill-rule="evenodd" clip-rule="evenodd" d="M1418.65 1011.81C1423.87 1011.81 1428.11 1007.57 1428.11 1002.35V813.107C1428.11 807.885 1423.87 803.652 1418.65 803.652C1413.43 803.652 1409.2 807.885 1409.2 813.107V1002.35C1409.2 1007.57 1413.43 1011.81 1418.65 1011.81Z" fill="#181111"/><path fill-rule="evenodd" clip-rule="evenodd" d="M1215.16 863.723H1394.4V654.146H1215.16V863.723Z" fill="#254471"/><path fill-rule="evenodd" clip-rule="evenodd" d="M1218.18 998.718H1391.38V972.885H1218.18V998.718Z" fill="#D0DEF2"/><path fill-rule="evenodd" clip-rule="evenodd" d="M1241.02 803.927L1262.03 641.74L1325.76 632.145L1370.9 803.927H1241.02Z" fill="#FFF1AA"/><path fill-rule="evenodd" clip-rule="evenodd" d="M1255.07 825.517H1354.92V794.143H1255.07V825.517Z" fill="#6DC4C7"/><path fill-rule="evenodd" clip-rule="evenodd" d="M1324.62 697.362V613.484H1286.43V697.362C1286.43 707.917 1294.98 716.473 1305.52 716.473C1316.07 716.473 1324.62 707.917 1324.62 697.362Z" fill="#F0A86B"/><path fill-rule="evenodd" clip-rule="evenodd" d="M1279.01 567.493C1281.58 557.062 1292.26 550.643 1302.73 553.232L1315.45 555.447C1325.92 558.036 1334.93 569.142 1332.35 579.573L1327.35 609.595C1326.16 616.335 1326.27 634.235 1308.28 631.039L1285.69 627.036C1275.17 625.166 1269.6 619.933 1271.04 610.542C1271.54 607.344 1272.87 599.094 1272.87 599.094L1271.08 598.204C1265.84 595.177 1272.52 589.672 1272.52 589.672C1274.12 587.957 1275.38 586.701 1275.38 586.701L1279.01 567.493Z" fill="#F0A86B"/><path fill-rule="evenodd" clip-rule="evenodd" d="M1292.07 546.479L1326.56 556.303C1326.92 556.367 1327.28 556.442 1327.63 556.528C1337.01 558.793 1341.67 569.427 1337.51 578.14L1325.33 620.875L1313.43 614.463L1308.88 589.167L1292.07 546.479Z" fill="#797878"/><path fill-rule="evenodd" clip-rule="evenodd" d="M1301.21 593.318C1300.57 597.35 1303.32 601.141 1307.35 601.785C1311.38 602.428 1315.16 599.682 1315.81 595.649C1316.45 591.616 1313.71 587.825 1309.67 587.181C1305.65 586.538 1301.86 589.286 1301.21 593.318Z" fill="#F0A86B"/><path fill-rule="evenodd" clip-rule="evenodd" d="M1289.76 571.338L1308.15 587.14L1324.86 566.972L1293.99 547.352C1293.06 546.759 1291.99 546.388 1290.89 546.299C1283.7 545.714 1277.41 549.388 1276.12 556.665C1275.18 561.92 1278.08 564.777 1281.81 568.475" fill="#797878"/><path fill-rule="evenodd" clip-rule="evenodd" d="M1275.43 607.8C1273.3 607.8 1271.52 607.204 1271.38 607.158L1271.8 605.925C1271.86 605.944 1277.47 607.809 1280.13 604.629L1281.12 605.465C1279.58 607.308 1277.36 607.8 1275.43 607.8Z" fill="#020000"/><path fill-rule="evenodd" clip-rule="evenodd" d="M1368.79 702.998L1409.33 745.358L1431.14 732.308L1392.97 670.379L1368.79 702.998Z" fill="#F0A86B"/><path d="M1326.81 696.123H1382.78L1403.25 679.023L1393.15 663.947H1326.44L1326.81 696.123Z" fill="#FF0000"/><path d="M1327.17 728.285H1371.07L1371.35 705.674L1382.8 696.109H1326.81L1327.17 728.285Z" fill="#FF5200"/><path d="M1327.54 760.445H1370.93L1370.9 742.053L1371.07 728.27H1327.17L1327.54 760.445Z" fill="#FFD300"/><path d="M1327.9 792.607H1370.98L1370.93 760.432H1327.54L1327.9 792.607Z" fill="#008300"/><path d="M1371 801.289H1328L1327.9 792.594H1370.98L1371 801.289Z" fill="#0000FF"/><path d="M1393.16 663.961H1326.44L1326.08 631.826L1369.26 643.397C1369.26 643.397 1378.64 645.169 1385.13 651.973L1393.16 663.961Z" fill="#931E77"/><path fill-rule="evenodd" clip-rule="evenodd" d="M1215.76 684.281L1208.46 724.514L1228.29 735.6L1249.19 682.359L1215.76 684.281Z" fill="#F0A86B"/><path fill-rule="evenodd" clip-rule="evenodd" d="M1305.28 682.571L1324.65 631.887L1326 632.402L1305.3 686.573L1284.15 632.681L1285.5 632.153L1305.28 682.571Z" fill="#020000"/><path d="M1285.41 663.947H1216.99L1208.45 687.931L1225.19 696.123H1284.61L1285.41 663.947Z" fill="#FF0000"/><path d="M1284.61 696.109H1225.16L1238.39 702.585L1238.43 705.244L1237.51 728.285H1283.8L1284.61 696.109Z" fill="#FF5200"/><path d="M1283.8 728.271H1237.51L1236.22 760.447H1283L1283.8 728.271Z" fill="#FFD300"/><path d="M1283 760.432H1236.22L1234.93 792.607H1282.19L1283 760.432Z" fill="#008300"/><path d="M1282.19 792.594H1234.93L1234.58 801.289H1281.98L1282.19 792.594Z" fill="#0000FF"/><path d="M1237.43 643.992V643.987L1285.72 631.789H1286.22L1285.41 663.964H1216.98L1218.19 660.573C1221.37 651.65 1228.9 645.678 1237.43 643.992Z" fill="#931E77"/><path fill-rule="evenodd" clip-rule="evenodd" d="M1282.77 769.476L1260.49 673.865H1272.89L1260.49 662.854L1277.43 634.536L1286.43 630.57L1282.77 769.476Z" fill="#463EC5"/><path fill-rule="evenodd" clip-rule="evenodd" d="M1327.64 769.478L1351.58 673.866H1339.19L1351.58 662.856L1334.32 634.002L1324.62 631.439L1327.64 769.478Z" fill="#463EC5"/><path fill-rule="evenodd" clip-rule="evenodd" d="M1241.44 650.479L1267.3 646.508L1237.93 624.418L1221.31 635.836L1230.66 646.57C1233.34 649.647 1237.41 651.126 1241.44 650.479Z" fill="#972327"/><path fill-rule="evenodd" clip-rule="evenodd" d="M1432.22 753.979H1394.4V763.44V772.901V839.132H1401.89V772.901H1432.22V753.979Z" fill="#B0C2E4"/><path fill-rule="evenodd" clip-rule="evenodd" d="M1418.1 725.426L1337.2 733.034L1337.9 755.769L1418.1 755.767V725.426Z" fill="#F0A86B"/><path fill-rule="evenodd" clip-rule="evenodd" d="M1433.58 740.553C1433.58 732.15 1426.77 725.338 1418.37 725.338C1409.98 725.338 1403.17 732.15 1403.17 740.553C1403.17 748.957 1409.98 755.769 1418.37 755.769C1426.77 755.769 1433.58 748.957 1433.58 740.553Z" fill="#F0A86B"/><path fill-rule="evenodd" clip-rule="evenodd" d="M1244.32 725.427C1244.32 715.52 1236.29 707.488 1226.39 707.488C1216.49 707.488 1208.46 715.52 1208.46 725.427C1208.46 735.334 1216.49 743.366 1226.39 743.366C1236.29 743.366 1244.32 735.334 1244.32 725.427Z" fill="#F0B57D"/><path fill-rule="evenodd" clip-rule="evenodd" d="M1261.83 665.224L1277.32 648.588L1252.38 634L1243.31 654.968L1261.83 665.224Z" fill="#FFC891"/><path fill-rule="evenodd" clip-rule="evenodd" d="M1290.69 639.589L1290.69 639.586C1289.91 637.253 1287.38 635.995 1285.05 636.777L1262.35 644.381C1260.9 644.866 1260.12 646.435 1260.6 647.886L1262.12 652.409C1262.36 653.127 1263.13 653.513 1263.85 653.273L1287.88 645.224C1290.21 644.443 1291.47 641.921 1290.69 639.589Z" fill="#FFC891"/><path fill-rule="evenodd" clip-rule="evenodd" d="M1302.25 621.258C1302.03 618.808 1299.86 616.999 1297.42 617.219L1275.75 619.188L1278.64 627.848L1298.21 626.092C1300.66 625.873 1302.47 623.709 1302.25 621.258Z" fill="#FFC891"/><path fill-rule="evenodd" clip-rule="evenodd" d="M1298.23 625.7L1298.23 625.697C1297.65 623.307 1295.24 621.841 1292.85 622.422L1273.76 627.069L1275.87 635.726L1294.96 631.079C1297.35 630.497 1298.81 628.09 1298.23 625.7Z" fill="#FFC891"/><path fill-rule="evenodd" clip-rule="evenodd" d="M1252.39 634.007L1257.15 641.532L1280.52 626.713L1275.76 619.188L1252.39 634.007Z" fill="#FFC891"/><path fill-rule="evenodd" clip-rule="evenodd" d="M1254.53 637.678L1258.87 645.456L1283.02 631.949L1278.68 624.172L1254.53 637.678Z" fill="#FFC891"/><path fill-rule="evenodd" clip-rule="evenodd" d="M1295.42 631.575L1295.41 631.572C1294.7 629.219 1292.21 627.89 1289.86 628.606L1271.06 634.319L1273.65 642.844L1292.45 637.129C1294.8 636.414 1296.13 633.928 1295.42 631.575Z" fill="#FFC891"/><path fill-rule="evenodd" clip-rule="evenodd" d="M1248.79 647.493L1253.56 655.013L1276.91 640.168L1272.14 632.648L1248.79 647.493Z" fill="#FFC891"/><path fill-rule="evenodd" clip-rule="evenodd" d="M1243.91 731.142L1266.91 658.325L1246.99 647.574L1210.37 717.903C1205.5 727.654 1210.28 739.467 1220.56 743.08C1230.32 746.513 1240.96 741.07 1243.91 731.142Z" fill="#FFC891"/><path fill-rule="evenodd" clip-rule="evenodd" d="M1342.29 753.911L1322.28 762.886L1316.73 735.555L1337.56 732.998L1342.29 753.911Z" fill="#F0A86B"/><path fill-rule="evenodd" clip-rule="evenodd" d="M1309.71 772.703C1307.8 771.245 1307.45 768.501 1308.95 766.615L1323.48 748.262L1330.31 753.476L1315.68 771.954C1314.23 773.791 1311.57 774.124 1309.71 772.703Z" fill="#F0A86B"/><path fill-rule="evenodd" clip-rule="evenodd" d="M1301.38 773.741C1299.47 772.283 1299.12 769.539 1300.61 767.654L1317.83 746.619L1324.66 751.834L1307.35 772.993C1305.89 774.829 1303.24 775.162 1301.38 773.741Z" fill="#F0A86B"/><path fill-rule="evenodd" clip-rule="evenodd" d="M1290.58 773.041C1288.82 772.139 1288.07 770.016 1288.87 768.205L1295.93 752.304L1298 750.641L1303.53 753.564L1295.69 771.233C1294.82 773.19 1292.48 774.016 1290.58 773.041Z" fill="#F0A86B"/><path fill-rule="evenodd" clip-rule="evenodd" d="M1294.44 774.603C1292.68 773.479 1292.16 771.137 1293.28 769.372L1303.74 752.938L1310.99 757.556L1301.08 773.131C1299.65 775.37 1296.68 776.03 1294.44 774.603Z" fill="#F0A86B"/><path fill-rule="evenodd" clip-rule="evenodd" d="M1316.73 735.557L1322.12 742.257L1301.31 759.002L1295.93 752.304L1316.73 735.557Z" fill="#F0A86B"/><path fill-rule="evenodd" clip-rule="evenodd" d="M1319.41 738.656L1325.16 745.049L1305.31 762.918L1299.57 756.526L1319.41 738.656Z" fill="#F0A86B"/><path fill-rule="evenodd" clip-rule="evenodd" d="M1300.17 954.372L1275.41 758.373C1273.22 741.814 1256.93 731 1240.83 735.421C1226.52 739.355 1217.89 753.94 1221.34 768.391L1268.77 967.05L1300.17 954.372Z" fill="#FFC891"/><path fill-rule="evenodd" clip-rule="evenodd" d="M1261.42 946.497L1242.91 858.727L1287.36 853.273L1299.37 939.596L1261.42 946.497Z" fill="#FFF1AA"/><path fill-rule="evenodd" clip-rule="evenodd" d="M1343.53 969.076L1387.86 769.197C1391.43 752.879 1379.79 737.164 1363.15 735.843H1363.15C1348.35 734.668 1335.28 745.449 1333.61 760.212L1310.68 963.17L1343.53 969.076Z" fill="#FFC891"/><path fill-rule="evenodd" clip-rule="evenodd" d="M1317.24 905.134L1313.21 939.111L1347.97 950.074L1358.4 901.912L1317.24 905.134Z" fill="#FFF1AA"/><path fill-rule="evenodd" clip-rule="evenodd" d="M1228.79 970.695L1260.82 953.896L1259.55 944.15L1299.27 938.828L1303.78 972.899L1231.29 981.648L1228.79 970.695Z" fill="#181111"/><path fill-rule="evenodd" clip-rule="evenodd" d="M1337.28 950.383L1331.32 949.722C1319.82 948.452 1309.47 956.74 1308.2 968.235L1307.5 974.615L1355.09 979.877L1355.79 973.489C1357.06 961.998 1348.78 951.654 1337.28 950.383Z" fill="#181111"/><path fill-rule="evenodd" clip-rule="evenodd" d="M1310.4 963.235L1313.16 938.814L1349.32 944.824L1345.82 960.224L1310.4 963.235Z" fill="#181111"/><path fill-rule="evenodd" clip-rule="evenodd" d="M1280.26 577.674L1293.85 585.525L1291.88 588.94L1278.29 581.087L1280.26 577.674Z" fill="#E6057A"/><path fill-rule="evenodd" clip-rule="evenodd" d="M1277.26 591.847C1277.26 591.847 1277.12 587.559 1280.29 585.607C1280.29 585.607 1287.68 589.733 1286.64 591.869C1285.55 594.125 1281.13 592.648 1277.26 591.847Z" fill="white"/><path d="M1277.29 591.165C1277.4 589.876 1277.9 587.078 1280.29 585.607C1280.29 585.607 1281.36 586.204 1282.63 587.06C1282.69 587.805 1282.54 588.629 1282.16 589.417C1281.24 591.31 1279.32 592.274 1277.87 591.571C1277.66 591.466 1277.46 591.329 1277.29 591.165Z" fill="#020000"/><path fill-rule="evenodd" clip-rule="evenodd" d="M1190.9 1011.81C1185.68 1011.81 1181.45 1007.57 1181.45 1002.35V813.107C1181.45 807.885 1185.68 803.652 1190.9 803.652C1196.13 803.652 1200.36 807.885 1200.36 813.107V1002.35C1200.36 1007.57 1196.13 1011.81 1190.9 1011.81Z" fill="#181111"/><path fill-rule="evenodd" clip-rule="evenodd" d="M1303.85 685.159V693.737L1296.75 699.859C1295.91 698.404 1295.42 696.722 1295.42 694.924C1295.42 689.966 1299.09 685.862 1303.85 685.159ZM1306.74 697.409L1312.11 702.051C1310.67 703.436 1308.81 704.382 1306.74 704.688V697.409ZM1303.85 704.688C1301.81 704.387 1299.98 703.469 1298.55 702.123L1303.85 697.553V704.688ZM1315.17 694.924C1315.17 696.684 1314.7 698.334 1313.89 699.767L1306.74 693.593V685.159C1311.5 685.862 1315.17 689.967 1315.17 694.924ZM1305.29 682.15C1298.26 682.15 1292.53 687.881 1292.53 694.924C1292.53 701.967 1298.26 707.696 1305.29 707.696C1312.33 707.696 1318.06 701.967 1318.06 694.924C1318.06 687.881 1312.33 682.15 1305.29 682.15Z" fill="#3D5FA9"/><path fill-rule="evenodd" clip-rule="evenodd" d="M1290.74 601.012L1293.99 598.766C1295.03 598.047 1294.83 596.401 1293.62 596.04C1293.57 596.025 1293.52 596.013 1293.47 596.004C1292.76 595.853 1292.06 596.142 1291.65 596.684C1291.49 596.021 1290.97 595.475 1290.26 595.325C1290.21 595.314 1290.16 595.306 1290.11 595.3C1288.86 595.139 1288.01 596.563 1288.67 597.64L1290.74 601.012Z" fill="#E6057A"/><path fill-rule="evenodd" clip-rule="evenodd" d="M1245.39 870.312L1242.91 858.726L1287.19 851.582L1288.7 862.83L1245.39 870.312Z" fill="#6DC4C7"/><path fill-rule="evenodd" clip-rule="evenodd" d="M1317.24 905.144L1318.48 894.168L1358.48 901.696L1356 913.004L1317.24 905.144Z" fill="#6DC4C7"/><path fill-rule="evenodd" clip-rule="evenodd" d="M1231.3 981.648L1303.82 972.885L1304.92 980.768L1232.95 989.616L1231.3 981.648Z" fill="white"/><path fill-rule="evenodd" clip-rule="evenodd" d="M1307.5 974.615L1306.77 980.939L1353.96 985.954L1355.09 979.877L1307.5 974.615Z" fill="white"/><path fill-rule="evenodd" clip-rule="evenodd" d="M1283.15 964.703L1288.04 958.114C1289.6 956.007 1288.09 952.913 1285.47 953.018C1285.37 953.022 1285.27 953.03 1285.17 953.043C1283.67 953.224 1282.49 954.26 1282.05 955.599C1281.29 954.406 1279.9 953.683 1278.41 953.865C1278.31 953.877 1278.2 953.894 1278.1 953.914C1275.54 954.44 1274.82 957.805 1276.84 959.476L1283.15 964.703Z" fill="white"/><path fill-rule="evenodd" clip-rule="evenodd" d="M1307.53 558.884C1305.85 568.345 1296.83 574.652 1287.37 572.972C1277.92 571.292 1271.61 562.261 1273.29 552.801C1274.97 543.34 1284 537.032 1293.45 538.712C1302.9 540.392 1309.21 549.423 1307.53 558.884Z" fill="#181111"/><path fill-rule="evenodd" clip-rule="evenodd" d="M1331.04 562.14C1329.44 571.108 1320.89 577.088 1311.93 575.495C1302.97 573.903 1296.99 565.341 1298.58 556.374C1300.17 547.406 1308.73 541.426 1317.69 543.019C1326.65 544.61 1332.63 553.172 1331.04 562.14Z" fill="#181111"/><path fill-rule="evenodd" clip-rule="evenodd" d="M1345.28 566.582C1343.97 573.977 1336.91 578.908 1329.52 577.595C1322.13 576.282 1317.21 569.221 1318.52 561.827C1319.83 554.431 1326.88 549.5 1334.28 550.813C1341.67 552.127 1346.59 559.186 1345.28 566.582Z" fill="#181111"/><path fill-rule="evenodd" clip-rule="evenodd" d="M1352.74 580.184C1351.61 586.541 1345.55 590.779 1339.2 589.649C1332.84 588.521 1328.61 582.453 1329.74 576.097C1330.86 569.741 1336.93 565.503 1343.28 566.631C1349.63 567.761 1353.87 573.828 1352.74 580.184Z" fill="#181111"/><path fill-rule="evenodd" clip-rule="evenodd" d="M1176.39 753.979V772.901H1207.66V839.132H1215.16V772.901V763.44V753.979H1176.39Z" fill="#B0C2E4"/><path fill-rule="evenodd" clip-rule="evenodd" d="M188.249 532.09C207.873 521.232 221.749 550.56 241.373 539.702C241.054 541.934 240.771 543.907 240.452 546.14C220.827 556.998 206.915 527.93 187.29 538.787C187.61 536.555 187.929 534.322 188.249 532.09Z" fill="#FF0000"/><path fill-rule="evenodd" clip-rule="evenodd" d="M189.209 525.381C208.833 514.523 222.708 543.851 242.333 532.993C242.014 535.225 241.694 537.458 241.375 539.691C221.75 550.548 207.875 521.221 188.25 532.078C188.57 529.846 188.889 527.613 189.209 525.381Z" fill="#FF5200"/><path fill-rule="evenodd" clip-rule="evenodd" d="M190.169 518.672C209.793 507.814 223.668 537.142 243.293 526.284C242.974 528.516 242.654 530.749 242.335 532.982C222.71 543.839 208.835 514.512 189.21 525.369C189.53 523.137 189.849 520.904 190.169 518.672Z" fill="#FFD300"/><path fill-rule="evenodd" clip-rule="evenodd" d="M191.13 511.961C210.754 501.103 224.629 530.431 244.254 519.573C243.935 521.805 243.615 524.038 243.296 526.271C223.664 537.142 209.79 507.815 190.171 518.658C190.491 516.426 190.81 514.193 191.13 511.961Z" fill="#008300"/><path fill-rule="evenodd" clip-rule="evenodd" d="M192.09 505.252C211.714 494.394 225.589 523.722 245.214 512.864C244.895 515.097 244.575 517.329 244.256 519.562C224.631 530.419 210.756 501.092 191.131 511.949C191.451 509.717 191.77 507.484 192.09 505.252Z" fill="#0000FF"/><path fill-rule="evenodd" clip-rule="evenodd" d="M193.05 498.543C212.674 487.685 226.549 517.013 246.174 506.155C245.855 508.388 245.535 510.62 245.216 512.853C225.591 523.71 211.716 494.383 192.091 505.24C192.411 503.008 192.73 500.775 193.05 498.543Z" fill="#931E77"/><path fill-rule="evenodd" clip-rule="evenodd" d="M234.278 548.36C223.819 536.143 215.548 521.825 215.548 521.825C226.652 522.341 237.725 513.435 238.658 508.557C239.201 508.567 246.174 506.154 246.174 506.154L240.452 546.139C237.431 547.912 234.278 548.36 234.278 548.36Z" fill="#22181E"/><path d="M237.567 547.485C238.467 547.158 239.467 546.72 240.452 546.142L246.174 506.156C246.174 506.156 244.329 506.794 242.463 507.413C242.452 507.446 242.441 507.479 242.429 507.512C238.912 517.874 229.063 523.373 221.526 525.004C221.526 525.004 225.07 531.995 237.567 547.485Z" fill="#89460F"/><path d="M246.173 506.156C246.171 506.173 246.168 506.19 246.166 506.207L246.173 506.161C246.173 506.158 246.173 506.157 246.173 506.156C246.173 506.156 246.173 506.156 246.173 506.156Z" fill="#28D7FB"/><path d="M240.453 546.137L246.047 507.04C244.702 515.403 239.13 521.695 226.819 527.094C226.819 527.094 231.752 535.373 240.453 546.137Z" fill="#28D7FB"/><path d="M240.971 542.514C233.253 532.056 231.485 528.457 231.485 528.457C236.923 525.652 241.083 522.641 244.235 519.707L240.971 542.514Z" fill="#FF8BBB"/><path d="M241.53 538.611L243.584 524.254C241.506 525.91 238.888 527.687 235.565 529.618C235.565 529.618 236.606 531.615 241.53 538.611Z" fill="white"/><path fill-rule="evenodd" clip-rule="evenodd" d="M252.909 460.455C253.364 460.517 253.683 460.937 253.621 461.392L242.096 546.051C242.034 546.507 241.615 546.826 241.16 546.764C240.705 546.702 240.386 546.282 240.448 545.827L251.973 461.168C252.035 460.712 252.454 460.393 252.909 460.455Z" fill="#22181E"/><path fill-rule="evenodd" clip-rule="evenodd" d="M412.625 286.742C412.625 296.264 404.912 303.983 395.397 303.983C385.883 303.983 378.169 296.264 378.169 286.742C378.169 277.221 385.883 269.502 395.397 269.502C404.912 269.502 412.625 277.221 412.625 286.742Z" fill="#B26150"/><path fill-rule="evenodd" clip-rule="evenodd" d="M416.986 448.695L409.823 472.389L437.209 476.863L437.532 449.301L416.986 448.695Z" fill="#A86554"/><path fill-rule="evenodd" clip-rule="evenodd" d="M437.531 449.301L424.872 361.484L389.866 367.565L416.517 452.387L437.531 449.301Z" fill="#A86554"/><path fill-rule="evenodd" clip-rule="evenodd" d="M400.252 504.181L400.253 504.183C401.311 506.239 403.837 507.048 405.892 505.989L422.309 497.534L418.479 490.088L402.058 498.545C400.004 499.604 399.196 502.126 400.252 504.181Z" fill="#A86554"/><path fill-rule="evenodd" clip-rule="evenodd" d="M400.387 499.818L400.388 499.82C401.74 501.696 404.358 502.121 406.233 500.767L421.211 489.964L416.317 483.17L401.335 493.978C399.461 495.33 399.037 497.944 400.387 499.818Z" fill="#A86554"/><path fill-rule="evenodd" clip-rule="evenodd" d="M437.208 476.862L430.561 471.482L415.454 492.662L422.31 497.533L437.208 476.862Z" fill="#A86554"/><path fill-rule="evenodd" clip-rule="evenodd" d="M434.209 473.912L427.677 468.678L411.424 488.99L417.956 494.223L434.209 473.912Z" fill="#A86554"/><path fill-rule="evenodd" clip-rule="evenodd" d="M414.158 479.699C414.158 479.699 416.665 476.756 417.583 475.929C419.487 474.215 421.36 476.312 420.074 478.048C419.249 479.161 416.322 482.67 414.315 485.377C420.883 481.504 432.395 477.115 432.395 477.115L418.186 468.441L414.158 479.699Z" fill="#A86554"/><path fill-rule="evenodd" clip-rule="evenodd" d="M412.228 283.281L425.258 363.819L390.798 370.787L369.029 294.544L412.228 283.281Z" fill="#A86554"/><path fill-rule="evenodd" clip-rule="evenodd" d="M254.999 286.742C254.999 296.264 262.712 303.983 272.227 303.983C281.741 303.983 289.455 296.264 289.455 286.742C289.455 277.221 281.741 269.502 272.227 269.502C262.712 269.502 254.999 277.221 254.999 286.742Z" fill="#B26150"/><path fill-rule="evenodd" clip-rule="evenodd" d="M399.523 793.906L386.71 513.455H342.053L366.133 793.906H399.523Z" fill="#B26150"/><path fill-rule="evenodd" clip-rule="evenodd" d="M387.173 523.605L387.081 521.579L385.102 523.715L385.08 523.694L385.059 523.716L376.811 516.064L376.831 516.043L376.81 516.023L379.187 513.457H377.217L375.751 515.04L374.044 513.457H371.92L374.769 516.1L374.749 516.122L374.77 516.142L367.123 524.396L367.102 524.376L367.082 524.397L358.834 516.745L358.853 516.725L358.831 516.704L361.839 513.457H359.869L357.772 515.721L355.331 513.457H353.206L356.79 516.782L356.771 516.802L356.793 516.823L349.145 525.078L349.124 525.058L349.104 525.08L342.527 518.978L342.711 521.119L348.122 526.14L343.564 531.06L343.731 533.006L349.181 527.122L349.203 527.142L349.222 527.121L357.47 534.773L357.451 534.793L357.474 534.814L349.827 543.068L349.805 543.047L349.784 543.07L344.146 537.84L344.33 539.982L348.802 544.13L345.036 548.195L345.203 550.141L349.861 545.113L349.883 545.134L349.904 545.111L358.152 552.763L358.132 552.785L358.153 552.804L350.507 561.058L350.486 561.039L350.466 561.06L345.766 556.7L345.95 558.842L349.484 562.12L346.507 565.333L346.674 567.279L350.543 563.103L350.564 563.123L350.584 563.101L358.833 570.754L358.813 570.776L358.834 570.796L351.188 579.05L351.166 579.03L351.147 579.052L347.385 575.562L347.569 577.704L350.164 580.112L347.979 582.471L348.146 584.417L351.224 581.094L351.245 581.114L351.265 581.093L359.513 588.745L359.494 588.765L359.516 588.786L351.868 597.041L351.847 597.021L351.827 597.043L349.005 594.425L349.189 596.566L350.845 598.103L349.45 599.609L349.617 601.555L351.905 599.086L351.926 599.106L351.946 599.084L360.194 606.736L360.175 606.757L360.197 606.777L352.529 615.054L350.625 613.287L350.809 615.429L352.607 617.097L361.256 607.76L370.585 616.415L379.233 607.079L388.563 615.735L391.25 612.834L391.158 610.807L388.485 613.692L380.215 606.019L380.235 605.997L380.214 605.978L387.861 597.724L387.882 597.743L387.902 597.722L390.677 600.297L390.583 598.239L388.884 596.662L390.435 594.988L390.342 592.961L387.825 595.679L387.803 595.659L387.783 595.681L379.534 588.028L379.554 588.006L379.533 587.986L387.18 579.732L387.201 579.752L387.221 579.73L389.849 582.169L389.755 580.11L388.203 578.67L389.619 577.141L389.527 575.115L387.144 577.688L387.122 577.668L387.103 577.689L378.855 570.037L378.874 570.017L378.851 569.996L386.499 561.741L386.52 561.761L386.54 561.739L389.021 564.041L388.927 561.982L387.522 560.679L388.804 559.295L388.712 557.269L386.463 559.696L386.441 559.677L386.422 559.698L378.174 552.046L378.193 552.025L378.171 552.005L385.818 543.749L385.84 543.769L385.859 543.748L388.193 545.912L388.099 543.854L386.841 542.688L387.989 541.449L387.896 539.423L385.782 541.705L385.761 541.685L385.741 541.707L377.493 534.055L377.512 534.034L377.49 534.013L385.136 525.759L385.159 525.78L385.18 525.757L387.364 527.784L387.27 525.726L386.162 524.697L387.173 523.605ZM362.257 606.679L362.238 606.7L370.507 614.372L378.174 606.096L378.153 606.077L378.173 606.055L369.924 598.402L369.904 598.423L369.883 598.404L362.235 606.659L362.257 606.679ZM352.928 598.024L361.176 605.676L368.823 597.421L360.575 589.769L352.928 598.024ZM369.846 596.359L369.825 596.339L369.805 596.361L361.557 588.709L361.576 588.688L361.554 588.668L369.201 580.413L369.223 580.434L369.244 580.412L377.492 588.064L377.472 588.085L377.493 588.105L369.846 596.359ZM379.155 604.995L370.906 597.342L378.552 589.088L386.801 596.741L379.155 604.995ZM360.495 587.685L352.247 580.033L359.894 571.779L368.141 579.431L360.495 587.685ZM370.226 579.352L378.474 587.004L386.121 578.749L377.873 571.097L370.226 579.352ZM376.813 570.115L369.167 578.369L369.144 578.348L369.123 578.37L360.876 570.718L360.896 570.697L360.875 570.677L368.521 562.423L368.542 562.443L368.562 562.421L376.81 570.073L376.791 570.094L376.813 570.115ZM351.566 562.041L359.815 569.694L367.462 561.44L359.213 553.787L351.566 562.041ZM368.485 560.378L368.464 560.359L368.444 560.38L360.195 552.727L360.215 552.705L360.194 552.686L367.84 544.432L367.862 544.451L367.881 544.43L376.129 552.082L376.11 552.103L376.132 552.123L368.485 560.378ZM377.792 569.013L369.544 561.361L377.192 553.106L385.44 560.758L377.792 569.013ZM359.134 551.703L350.886 544.051L358.533 535.797L366.781 543.449L359.134 551.703ZM368.863 543.37L377.111 551.022L384.759 542.767L376.511 535.115L368.863 543.37ZM375.452 534.132L367.804 542.387L367.783 542.367L367.763 542.389L359.515 534.737L359.534 534.716L359.512 534.696L367.159 526.44L367.181 526.46L367.201 526.439L375.449 534.091L375.429 534.111L375.452 534.132ZM350.204 526.061L358.452 533.713L366.1 525.457L357.852 517.805L350.204 526.061ZM376.431 533.031L368.183 525.379L375.829 517.124L384.077 524.776L376.431 533.031Z" fill="#020000"/><path d="M342.093 513.922L342.26 515.868L344.493 513.457H342.523L342.093 513.922Z" fill="#020000"/><path fill-rule="evenodd" clip-rule="evenodd" d="M361.194 769.579V802.448H411.07V791.489L401.584 769.684L393.808 609.01H347.543L361.194 769.579Z" fill="black"/><path fill-rule="evenodd" clip-rule="evenodd" d="M338.046 515.839L330.863 411.965L389.47 418.46L393.011 515.839" fill="#22181E"/><path fill-rule="evenodd" clip-rule="evenodd" d="M251.747 450.353L250.732 471.576L224.891 470.918L230.458 446.746L251.747 450.353Z" fill="#A86554"/><path fill-rule="evenodd" clip-rule="evenodd" d="M230.094 449.303L242.753 361.486L277.758 367.566L251.108 452.389L230.094 449.303Z" fill="#A86554"/><path fill-rule="evenodd" clip-rule="evenodd" d="M255.066 491.379C252.958 492.33 250.479 491.391 249.529 489.284L239.212 466.381L246.841 462.939L257.16 485.847C258.109 487.953 257.171 490.429 255.066 491.379Z" fill="#A86554"/><path fill-rule="evenodd" clip-rule="evenodd" d="M254.025 506.472C252.495 508.207 249.847 508.372 248.114 506.841L234.315 494.621L239.807 488.336L253.656 500.567C255.388 502.096 255.552 504.74 254.025 506.472Z" fill="#A86554"/><path fill-rule="evenodd" clip-rule="evenodd" d="M254.963 502.208C253.192 503.695 250.55 503.466 249.064 501.694L237.189 487.544L243.599 482.158L255.476 496.314C256.962 498.084 256.731 500.722 254.963 502.208Z" fill="#A86554"/><path fill-rule="evenodd" clip-rule="evenodd" d="M224.891 470.918L232.653 467.334L242.11 491.573L234.314 494.619L224.891 470.918Z" fill="#A86554"/><path fill-rule="evenodd" clip-rule="evenodd" d="M228.521 468.794L236.137 465.322L246.916 489.002L239.301 492.474L228.521 468.794Z" fill="#A86554"/><path fill-rule="evenodd" clip-rule="evenodd" d="M246.542 479.323C246.542 479.323 244.832 475.855 244.145 474.828C242.719 472.699 240.389 474.273 241.211 476.271C241.738 477.553 243.717 481.673 244.999 484.79C239.581 479.423 229.494 472.344 229.494 472.344L245.396 467.422L246.542 479.323Z" fill="#A86554"/><path fill-rule="evenodd" clip-rule="evenodd" d="M255.396 283.281L242.366 363.819L276.826 370.787L298.595 294.544L255.396 283.281Z" fill="#B26150"/><path fill-rule="evenodd" clip-rule="evenodd" d="M399.398 269.972L391.023 382.565H272.618L267.87 270.06L331.184 253.715L399.398 269.972Z" fill="#B26150"/><path fill-rule="evenodd" clip-rule="evenodd" d="M264.438 793.908L277.252 513.457H321.909L297.828 793.908H264.438Z" fill="#B26150"/><path fill-rule="evenodd" clip-rule="evenodd" d="M286.745 513.457H284.775L287.152 516.023L287.131 516.043L287.151 516.064L278.903 523.716L278.882 523.694L278.86 523.715L276.882 521.579L276.789 523.606L277.801 524.697L276.692 525.726L276.598 527.784L278.783 525.757L278.803 525.78L278.826 525.759L286.472 534.013L286.45 534.034L286.469 534.055L278.221 541.707L278.201 541.685L278.18 541.705L276.066 539.423L275.974 541.45L277.121 542.688L275.864 543.854L275.77 545.912L278.103 543.748L278.123 543.769L278.144 543.749L285.792 552.005L285.769 552.025L285.788 552.046L277.54 559.698L277.521 559.677L277.499 559.696L275.251 557.269L275.159 559.296L276.44 560.679L275.036 561.982L274.942 564.04L277.422 561.739L277.442 561.761L277.463 561.741L285.111 569.996L285.089 570.017L285.108 570.037L276.86 577.689L276.84 577.668L276.819 577.688L274.436 575.116L274.343 577.142L275.759 578.671L274.208 580.11L274.113 582.168L276.741 579.731L276.761 579.752L276.782 579.732L284.429 587.986L284.408 588.006L284.428 588.028L276.179 595.681L276.159 595.659L276.138 595.679L273.62 592.962L273.528 594.988L275.078 596.662L273.379 598.238L273.285 600.297L276.06 597.722L276.08 597.743L276.102 597.724L283.748 605.978L283.727 605.997L283.747 606.019L275.477 613.692L272.805 610.808L272.712 612.834L275.399 615.735L284.729 607.079L293.377 616.415L302.706 607.76L311.355 617.097L313.154 615.428L313.338 613.287L311.433 615.054L303.765 606.777L303.787 606.757L303.768 606.736L312.016 599.084L312.036 599.106L312.058 599.086L314.345 601.555L314.512 599.609L313.117 598.103L314.773 596.566L314.957 594.424L312.135 597.043L312.115 597.021L312.094 597.041L304.446 588.786L304.468 588.765L304.449 588.745L312.697 581.093L312.717 581.114L312.738 581.094L315.817 584.417L315.984 582.471L313.798 580.112L316.393 577.704L316.577 575.562L312.816 579.052L312.796 579.03L312.775 579.05L305.128 570.796L305.149 570.776L305.129 570.754L313.378 563.101L313.398 563.123L313.419 563.103L317.288 567.279L317.455 565.333L314.479 562.12L318.013 558.841L318.197 556.7L313.497 561.06L313.477 561.039L313.455 561.058L305.809 552.804L305.83 552.785L305.81 552.763L314.058 545.111L314.079 545.134L314.101 545.113L318.76 550.142L318.927 548.196L315.16 544.13L319.632 539.981L319.816 537.84L314.178 543.07L314.158 543.047L314.135 543.068L306.489 534.814L306.511 534.793L306.492 534.773L314.74 527.121L314.76 527.142L314.781 527.122L320.231 533.006L320.398 531.06L315.84 526.14L321.252 521.119L321.436 518.977L314.858 525.08L314.838 525.058L314.817 525.078L307.169 516.823L307.192 516.802L307.173 516.781L310.756 513.457H308.631L306.191 515.721L304.093 513.457H302.123L305.131 516.704L305.109 516.725L305.128 516.745L296.88 524.397L296.86 524.376L296.839 524.396L289.193 516.142L289.214 516.122L289.193 516.1L292.043 513.457H289.918L288.211 515.04L286.745 513.457ZM302.786 605.676L311.034 598.024L303.387 589.769L295.139 597.421L302.786 605.676ZM294.08 598.404L301.727 606.659L301.705 606.679L301.724 606.7L293.455 614.372L285.788 606.096L285.81 606.077L285.789 606.055L294.038 598.402L294.058 598.423L294.08 598.404ZM293.056 597.342L284.807 604.995L277.161 596.741L285.41 589.088L293.056 597.342ZM294.157 596.361L294.137 596.339L294.116 596.359L286.469 588.105L286.49 588.085L286.47 588.064L294.718 580.412L294.739 580.434L294.761 580.413L302.408 588.668L302.386 588.688L302.405 588.709L294.157 596.361ZM311.715 580.033L303.467 587.685L295.821 579.431L304.069 571.779L311.715 580.033ZM294.818 578.348L294.839 578.37L303.087 570.718L303.067 570.697L303.088 570.677L295.441 562.423L295.42 562.443L295.4 562.421L287.152 570.073L287.171 570.094L287.149 570.115L294.795 578.369L294.818 578.348ZM285.488 587.004L293.736 579.352L286.09 571.097L277.842 578.749L285.488 587.004ZM304.147 569.694L312.396 562.041L304.75 553.787L296.501 561.44L304.147 569.694ZM294.418 561.361L286.17 569.013L278.522 560.758L286.77 553.106L294.418 561.361ZM295.519 560.38L295.499 560.359L295.477 560.378L287.83 552.123L287.852 552.103L287.833 552.082L296.081 544.43L296.101 544.451L296.122 544.432L303.769 552.686L303.747 552.705L303.768 552.727L295.519 560.38ZM313.076 544.051L304.828 551.703L297.181 543.449L305.429 535.797L313.076 544.051ZM296.18 542.367L296.199 542.389L304.447 534.737L304.428 534.716L304.45 534.696L296.803 526.44L296.782 526.46L296.762 526.439L288.514 534.091L288.533 534.111L288.511 534.132L296.158 542.387L296.18 542.367ZM286.851 551.022L295.099 543.37L287.451 535.115L279.203 542.767L286.851 551.022ZM305.51 533.713L313.758 526.061L306.11 517.805L297.862 525.457L305.51 533.713ZM295.78 525.379L287.532 533.031L279.885 524.776L288.133 517.124L295.78 525.379Z" fill="#020000"/><path d="M321.439 513.457H319.469L321.703 515.868L321.87 513.922L321.439 513.457Z" fill="#020000"/><path fill-rule="evenodd" clip-rule="evenodd" d="M302.767 802.449H252.892V791.49L262.377 769.684L270.153 609.01H316.419L302.767 769.58V802.449Z" fill="black"/><path fill-rule="evenodd" clip-rule="evenodd" d="M324.321 515.839L331.504 411.965L272.897 418.46L269.356 515.839" fill="#22181E"/><path d="M316.013 278.086L331.184 299.251L346.433 278.086H375.362C373.564 290.203 375.871 301.233 379.522 310.349H284.3C287.262 301.238 288.865 290.226 286.6 278.086H316.013Z" fill="#FF0000"/><path d="M379.516 310.334H284.305C280.306 322.644 273.825 331.486 271.048 334.958L266.385 339.582V342.597H396.21V336.203C396.21 336.203 385.843 326.144 379.516 310.334Z" fill="#FF5200"/><path d="M396.21 342.584H266.385V374.847H396.21V342.584Z" fill="#FFD300"/><path d="M396.21 374.832H266.385V407.095H396.21V374.832Z" fill="#008300"/><path d="M396.21 407.08H266.385V439.343H396.21V407.08Z" fill="#0000FF"/><path d="M396.21 438.375H266.385V454.338H396.21V438.375Z" fill="#930081"/><path d="M375.363 278.081C375.99 273.864 377.113 269.515 378.851 265.069L359.19 260.381L346.437 278.081H375.363Z" fill="#930081"/><path d="M316.01 278.081H286.6C285.875 274.198 284.755 270.201 283.157 266.113L303.64 260.824L316.01 278.081Z" fill="#930081"/><path fill-rule="evenodd" clip-rule="evenodd" d="M333.085 322.668H329.324C314.671 322.668 302.791 310.78 302.791 296.116V261.043L331.184 253.713L359.618 260.483V296.116C359.618 310.78 347.738 322.668 333.085 322.668Z" fill="#A86554"/><path fill-rule="evenodd" clip-rule="evenodd" d="M400.539 487.143C402.157 488.795 404.809 488.823 406.461 487.204L424.391 469.625L418.535 463.643L400.6 481.227C398.95 482.844 398.923 485.492 400.539 487.143Z" fill="#A86554"/><path fill-rule="evenodd" clip-rule="evenodd" d="M249.75 489.815L246.828 511.283L245.213 510.817L248.466 486.922" fill="#020000"/><path fill-rule="evenodd" clip-rule="evenodd" d="M313.939 225.972C313.939 221.78 310.54 218.381 306.347 218.381C302.154 218.381 298.756 221.78 298.756 225.972C298.756 230.165 302.154 233.564 306.347 233.564C310.54 233.564 313.939 230.165 313.939 225.972Z" fill="#A86554"/><path fill-rule="evenodd" clip-rule="evenodd" d="M348.79 225.972C348.79 221.78 352.19 218.381 356.382 218.381C360.576 218.381 363.975 221.78 363.975 225.972C363.975 230.165 360.576 233.564 356.382 233.564C352.19 233.564 348.79 230.165 348.79 225.972Z" fill="#A86554"/><path fill-rule="evenodd" clip-rule="evenodd" d="M350.121 268.12V238.837L312.609 238.73V268.12C312.609 275.742 318.789 281.922 326.413 281.922H336.318C343.941 281.922 350.121 275.742 350.121 268.12Z" fill="#A86554"/><path fill-rule="evenodd" clip-rule="evenodd" d="M356.463 236.134V201.217C356.463 189.902 347.388 180.729 336.192 180.729H326.538C315.342 180.729 306.267 189.902 306.267 201.217V236.134C306.267 247.45 315.342 256.622 326.538 256.622H336.192C347.388 256.622 356.463 247.45 356.463 236.134Z" fill="#A86554"/><path fill-rule="evenodd" clip-rule="evenodd" d="M337.501 222.413C337.805 223.925 340.523 224.654 343.573 224.042C346.621 223.429 348.848 221.707 348.544 220.194C348.241 218.683 345.522 217.954 342.473 218.567C339.423 219.179 337.198 220.9 337.501 222.413Z" fill="white"/><path fill-rule="evenodd" clip-rule="evenodd" d="M341.842 221.708C341.842 223.251 343.092 224.5 344.634 224.5C346.177 224.5 347.427 223.251 347.427 221.708C347.427 220.166 346.177 218.916 344.634 218.916C343.092 218.916 341.842 220.166 341.842 221.708Z" fill="black"/><path fill-rule="evenodd" clip-rule="evenodd" d="M305.665 237.27H307.703V195.65H305.665V237.27Z" fill="#FFCC94"/><path fill-rule="evenodd" clip-rule="evenodd" d="M305.659 188.071C305.659 183.626 310.392 180.023 316.228 180.023H342.689V182.916C342.689 186.341 340.902 189.625 337.723 192.047C334.542 194.469 330.228 195.829 325.73 195.829H305.659V188.071Z" fill="#FFCC94"/><path fill-rule="evenodd" clip-rule="evenodd" d="M327.919 211.391C327.919 210.554 327.586 209.752 326.995 209.16C326.403 208.569 325.601 208.236 324.764 208.236H314.213C313.376 208.236 312.573 208.569 311.982 209.16C311.39 209.752 311.059 210.554 311.059 211.391V214.176H327.919V211.391Z" fill="#020000"/><path fill-rule="evenodd" clip-rule="evenodd" d="M351.525 211.391C351.525 210.554 351.193 209.752 350.602 209.16C350.01 208.569 349.208 208.236 348.371 208.236H337.82C336.983 208.236 336.18 208.569 335.589 209.16C334.997 209.752 334.665 210.554 334.665 211.391V214.176H351.525V211.391Z" fill="#020000"/><path fill-rule="evenodd" clip-rule="evenodd" d="M330.705 234.44C329.533 234.44 328.607 233.86 327.79 233.349C326.449 232.508 325.639 232 324.021 233.618L322.969 232.566C325.426 230.109 327.175 231.206 328.582 232.088C329.291 232.533 329.959 232.953 330.705 232.953C331.469 232.953 332.101 232.564 332.769 232.155C334.105 231.337 335.767 230.319 338.522 232.603L337.572 233.749C335.636 232.143 334.805 232.652 333.548 233.424C332.77 233.9 331.889 234.44 330.705 234.44Z" fill="#1D1D1B"/><path fill-rule="evenodd" clip-rule="evenodd" d="M354.897 236.763H356.978V195.289H354.897V236.763Z" fill="#FFCC94"/><path fill-rule="evenodd" clip-rule="evenodd" d="M356.978 188.118C356.978 183.649 352.268 180.025 346.458 180.025H342.434V189.546C342.434 193.067 346.144 195.921 350.721 195.921H356.978V188.118Z" fill="#FFCC94"/><path fill-rule="evenodd" clip-rule="evenodd" d="M324.408 222.413C324.105 223.925 321.387 224.654 318.336 224.042C315.288 223.429 313.062 221.707 313.366 220.194C313.669 218.683 316.389 217.954 319.437 218.567C322.487 219.179 324.712 220.9 324.408 222.413Z" fill="white"/><path fill-rule="evenodd" clip-rule="evenodd" d="M323.593 221.708C323.593 223.251 322.343 224.5 320.801 224.5C319.258 224.5 318.008 223.251 318.008 221.708C318.008 220.166 319.258 218.916 320.801 218.916C322.343 218.916 323.593 220.166 323.593 221.708Z" fill="black"/><path fill-rule="evenodd" clip-rule="evenodd" d="M305.656 251.271C305.656 260.076 312.789 267.215 321.587 267.215H341.079C349.877 267.215 357.01 260.076 357.01 251.271V217.74H354.935L349.599 244.166H344.917L338.85 234.846H323.627L317.568 244.166H312.886L307.731 217.74H305.656V251.271Z" fill="#020000"/><path fill-rule="evenodd" clip-rule="evenodd" d="M310.803 226.439H349.904V223.229H310.803V226.439Z" fill="#A86554"/><path fill-rule="evenodd" clip-rule="evenodd" d="M348.08 180H334.933C335.064 183.105 335.046 186.993 332.699 189.307C329.616 192.347 325.22 194.197 321.056 195.123C318.74 195.639 316.368 195.878 313.997 195.878H327.145C332.008 195.878 336.915 194.853 341.228 192.56C342.956 191.64 344.722 190.503 346.074 189.078C348.224 186.809 348.205 182.955 348.08 180Z" fill="#E6057A"/><path fill-rule="evenodd" clip-rule="evenodd" d="M1075.85 429.612C1076.15 431.125 1078.87 431.854 1081.92 431.241C1084.97 430.628 1087.19 428.906 1086.89 427.394C1086.59 425.882 1083.87 425.153 1080.82 425.766C1077.77 426.378 1075.54 428.1 1075.85 429.612Z" fill="white"/><path fill-rule="evenodd" clip-rule="evenodd" d="M1078.75 428.565C1078.75 430.108 1080 431.357 1081.55 431.357C1083.09 431.357 1084.34 430.108 1084.34 428.565C1084.34 427.024 1083.09 425.773 1081.55 425.773C1080 425.773 1078.75 427.024 1078.75 428.565Z" fill="black"/><path fill-rule="evenodd" clip-rule="evenodd" d="M1062.76 429.612C1062.45 431.125 1059.73 431.854 1056.68 431.241C1053.64 430.628 1051.41 428.906 1051.71 427.394C1052.02 425.882 1054.74 425.153 1057.78 425.766C1060.83 426.378 1063.06 428.1 1062.76 429.612Z" fill="white"/><path fill-rule="evenodd" clip-rule="evenodd" d="M1059.82 428.495C1059.82 430.037 1058.57 431.287 1057.03 431.287C1055.49 431.287 1054.24 430.037 1054.24 428.495C1054.24 426.952 1055.49 425.703 1057.03 425.703C1058.57 425.703 1059.82 426.952 1059.82 428.495Z" fill="black"/></svg>