<svg viewBox="0 0 1600 1200" fill="none" xmlns="http://www.w3.org/2000/svg"><path fill-rule="evenodd" clip-rule="evenodd" d="M505.199 631.252L401.792 658.727L418.977 723.638C434.612 782.694 494.987 817.908 553.942 802.439L505.199 631.252Z" fill="#891229"/><path fill-rule="evenodd" clip-rule="evenodd" d="M570.018 511.559L715.814 365.5C732.177 349.107 760.156 360.717 760.156 383.9V511.559H570.018Z" fill="#891229"/><path fill-rule="evenodd" clip-rule="evenodd" d="M1015.97 1007.19V862.374L1130.47 844.219L1063.37 1007.19H1015.97Z" fill="#891229"/><path fill-rule="evenodd" clip-rule="evenodd" d="M733.813 1007.19V862.373H830.185L781.209 1007.19H733.813Z" fill="#891229"/><path fill-rule="evenodd" clip-rule="evenodd" d="M529.452 804.324C561.629 847.845 610.076 878.557 665.791 887.448V1007.19H713.187L752.785 890.103H947.952V1007.19H995.348L1036.07 886.79C1134.85 869.09 1209.83 782.58 1209.83 678.526V678.525C1209.83 561.674 1115.28 466.947 998.635 466.947H830.997L690.177 467.155C583.447 471.685 497.219 555.556 488.76 661.413C488.76 661.413 482.032 753.811 529.452 804.324Z" fill="#E73245"/><path fill-rule="evenodd" clip-rule="evenodd" d="M553.592 609.005C553.592 599.917 560.946 592.549 570.018 592.549C579.09 592.549 586.445 599.917 586.445 609.005C586.445 618.093 579.09 625.461 570.018 625.461C560.946 625.461 553.592 618.093 553.592 609.005Z" fill="black"/><path fill-rule="evenodd" clip-rule="evenodd" d="M802.264 502.186H1002.26V484.184H802.264V502.186Z" fill="#891229"/><path fill-rule="evenodd" clip-rule="evenodd" d="M832.356 468.053V390.174C832.356 366.93 804.304 355.289 787.897 371.725L691.536 468.261" fill="#E73245"/><path fill-rule="evenodd" clip-rule="evenodd" d="M501.591 540.296L468.157 502.48L443.008 526.288L482.234 564.745C483.885 566.362 486.587 566.131 487.938 564.258L501.824 545.008C502.857 543.575 502.76 541.619 501.591 540.296Z" fill="#FFC6AD"/><path fill-rule="evenodd" clip-rule="evenodd" d="M506.83 567.426L546.194 536.303C548.205 534.756 556.643 526.781 556.832 527.325L554.505 507.482L484.359 545.947C481.004 548.001 479.318 558.042 481.055 561.666C481.201 561.97 481.286 562.298 481.247 562.633L481.22 562.865C481.15 563.465 481.357 564.062 481.78 564.494C482.555 565.283 483.556 566.174 482.115 564.652C480.637 563.089 482.096 564.794 482.115 564.818C489.346 573.215 498.935 574.077 506.83 567.426Z" fill="#FFC6AD"/><path fill-rule="evenodd" clip-rule="evenodd" d="M447.085 473.879C446.942 473.729 446.814 473.569 446.665 473.422C438.729 465.618 425.98 465.738 418.188 473.69C410.546 481.492 410.536 493.924 418.036 501.76L418.02 501.776L450.839 538.624L479.92 510.711L447.101 473.863L447.085 473.879Z" fill="#123A4F"/><path fill-rule="evenodd" clip-rule="evenodd" d="M510.815 996.646L478.531 997.008L453.626 922.888L497.742 922.842L510.815 996.646Z" fill="#FFC6AD"/><path fill-rule="evenodd" clip-rule="evenodd" d="M471.542 975.699C471.542 975.699 474.591 986.54 487.613 986.519C499.821 986.501 506.76 974.766 506.76 974.766L531.221 978.782C544.501 981.746 551.953 985.629 551.646 998.142L472.376 998.268L470.147 998.272L471.542 975.699Z" fill="#123A4F"/><path fill-rule="evenodd" clip-rule="evenodd" d="M470.161 1007.29L551.659 1007.16L551.646 997.92L470.147 998.049L470.161 1006.87V1007.29Z" fill="#FBB03B"/><path fill-rule="evenodd" clip-rule="evenodd" d="M452.246 960.072L394.892 705.294L374.13 576.162L410.989 575.816L454.414 571.574L455.283 609.394L516.312 958.342L452.246 960.072Z" fill="#F7931E"/><path fill-rule="evenodd" clip-rule="evenodd" d="M342.931 995.23L309.935 987.882L319.163 912.895L360.029 922.018L342.931 995.23Z" fill="#FFC6AD"/><path fill-rule="evenodd" clip-rule="evenodd" d="M312.779 964.766C312.779 964.766 314.653 976.92 327.366 979.751C339.282 982.404 348.614 972.472 348.614 972.472L371.607 981.746C383.919 987.546 390.344 992.967 387.314 1005.11L309.934 987.879L307.758 987.395L312.779 964.766Z" fill="#123A4F"/><path fill-rule="evenodd" clip-rule="evenodd" d="M305.848 996.007L385.404 1013.72L387.315 1005.11L307.758 987.396L305.848 996.007Z" fill="#FBB03B"/><path fill-rule="evenodd" clip-rule="evenodd" d="M376.781 952.962H306.188L357.213 688.113C361.706 664.788 363.769 641.026 362.792 617.292C362.41 607.991 363.167 597.904 366.765 585.594L376.558 559.379L454.414 571.576L454.849 613.139L376.781 952.962Z" fill="#FBB03B"/><path fill-rule="evenodd" clip-rule="evenodd" d="M547.524 530.318L570.542 524.406L558.44 502.969L542.925 514.784L547.524 530.318Z" fill="#FFC6AD"/><path fill-rule="evenodd" clip-rule="evenodd" d="M585.958 520.837C585.895 518.787 584.185 517.177 582.138 517.24L561.346 517.888L560.841 525.335L582.364 524.665C584.411 524.602 586.02 522.887 585.958 520.837Z" fill="#FFC6AD"/><path fill-rule="evenodd" clip-rule="evenodd" d="M591.19 520.917C592.828 519.685 593.159 517.356 591.931 515.717L582.11 502.607L576.177 507.07L585.998 520.178C587.226 521.819 589.552 522.149 591.19 520.917Z" fill="#FFC6AD"/><path fill-rule="evenodd" clip-rule="evenodd" d="M597.048 514.652L597.05 514.648C598.027 512.847 597.362 510.595 595.563 509.616L581.184 501.791L577.641 508.319L592.013 516.142C593.814 517.121 596.07 516.455 597.048 514.652Z" fill="#FFC6AD"/><path fill-rule="evenodd" clip-rule="evenodd" d="M558.423 502.957L558.841 510.374L581.539 509.247L581.121 501.83L558.423 502.957Z" fill="#FFC6AD"/><path fill-rule="evenodd" clip-rule="evenodd" d="M557.92 507.171L558.24 514.592L581.263 513.583L580.943 506.162L557.92 507.171Z" fill="#FFC6AD"/><path fill-rule="evenodd" clip-rule="evenodd" d="M573.319 517.51C573.319 517.51 570.131 517.506 568.717 517.405C566.433 517.239 566.882 514.371 568.809 514.245C570.044 514.165 577.176 513.765 577.176 513.765L561.053 506.367L563.35 521.097L573.319 517.51Z" fill="#FFC6AD"/><path fill-rule="evenodd" clip-rule="evenodd" d="M426.575 643.537L441.269 665.948C442.281 667.492 441.853 669.566 440.311 670.581L439.921 670.836C438.38 671.851 436.31 671.421 435.297 669.877L420.604 647.466L426.575 643.537Z" fill="#FFC6AD"/><path fill-rule="evenodd" clip-rule="evenodd" d="M428.585 623.064L445.552 636.07L424.715 653.533L413.019 635.497L428.585 623.064Z" fill="#FFC6AD"/><path fill-rule="evenodd" clip-rule="evenodd" d="M439.371 640.766L457.444 665.912C458.522 667.412 458.182 669.502 456.685 670.582L456.308 670.854C454.811 671.934 452.724 671.594 451.646 670.094L433.573 644.947L439.371 640.766Z" fill="#FFC6AD"/><path fill-rule="evenodd" clip-rule="evenodd" d="M443.298 635.238L460.664 659.402C461.742 660.901 461.402 662.992 459.905 664.071L459.528 664.343C458.031 665.423 455.944 665.083 454.866 663.583L437.5 639.42L443.298 635.238Z" fill="#FFC6AD"/><path fill-rule="evenodd" clip-rule="evenodd" d="M428.887 623.203L455.325 634.344C457.116 635.099 457.957 637.165 457.203 638.96L457.013 639.413C456.26 641.206 454.197 642.049 452.407 641.295L425.969 630.152L428.887 623.203Z" fill="#FFC6AD"/><path fill-rule="evenodd" clip-rule="evenodd" d="M433.668 644.354L449.306 666.113C450.384 667.612 450.044 669.703 448.548 670.782L448.17 671.055C446.674 672.134 444.587 671.794 443.509 670.295L427.87 648.535L433.668 644.354Z" fill="#FFC6AD"/><path fill-rule="evenodd" clip-rule="evenodd" d="M431.019 466.459L431.368 445.171L392.056 433.664L391.295 484.87L411.022 485.123C421.917 485.262 430.87 478.098 431.019 466.459Z" fill="#FFC6AD"/><path fill-rule="evenodd" clip-rule="evenodd" d="M387.608 429.979L388.054 417.875C388.226 404.447 399.249 393.7 412.672 393.871L429.878 394.092C443.302 394.263 454.046 405.289 453.874 418.718L453.27 443.106C453.186 449.749 447.733 455.066 441.091 454.981L411.605 454.604C398.18 454.432 387.437 443.407 387.608 429.979Z" fill="#FFC6AD"/><path fill-rule="evenodd" clip-rule="evenodd" d="M423.079 369.799C406.188 369.799 392.475 383.517 392.475 400.413C392.475 417.309 406.188 431.025 423.079 431.025C439.97 431.025 453.684 417.309 453.684 400.413C453.684 383.517 439.97 369.799 423.079 369.799Z" fill="#FFC6AD"/><path fill-rule="evenodd" clip-rule="evenodd" d="M417.962 425.302L416.167 439.141C416.167 445.132 411.311 449.991 405.32 449.991H385.454V390.973L384.45 390.978L418.965 392.182" fill="#420F0F"/><path fill-rule="evenodd" clip-rule="evenodd" d="M459.163 422.785C459.209 419.231 451.729 409.641 451.729 409.641L452.108 428.488C452.108 428.488 459.117 426.34 459.163 422.785Z" fill="#FFC6AD"/><path fill-rule="evenodd" clip-rule="evenodd" d="M457.332 383.775C457.427 376.27 451.423 370.106 443.918 370.011L407.357 369.465C393.096 369.283 382.386 382.438 385.453 396.371H385.654L443.571 397.192C451.074 397.288 457.236 391.282 457.332 383.775Z" fill="#420F0F"/><path fill-rule="evenodd" clip-rule="evenodd" d="M413.948 438.146C414.149 437.946 417.961 418.877 426.39 403.91L428.703 393.211" fill="#420F0F"/><path fill-rule="evenodd" clip-rule="evenodd" d="M419.863 377.564V413.28C429.723 413.28 437.716 405.285 437.716 395.422C437.716 385.56 429.723 377.564 419.863 377.564Z" fill="#420F0F"/><path fill-rule="evenodd" clip-rule="evenodd" d="M421.775 413.258L442.924 369.802L393.39 369.043C388.891 368.973 384.574 370.824 381.52 374.129L370.487 386.072L417.115 412.105L421.775 413.258Z" fill="#D5EFFF"/><path fill-rule="evenodd" clip-rule="evenodd" d="M424.948 420.021C425.007 415.352 421.273 411.519 416.606 411.46C411.938 411.399 408.107 415.136 408.047 419.804C407.987 424.472 411.722 428.306 416.39 428.365C421.057 428.425 424.889 424.689 424.948 420.021Z" fill="#FFC6AD"/><path fill-rule="evenodd" clip-rule="evenodd" d="M448.946 411.559C448.946 411.559 451.048 414.484 449.145 418.059C449.145 418.059 443.404 419.42 439.246 412.948C439.246 412.948 444.8 411.116 448.946 411.559Z" fill="white"/><path d="M448.897 411.288C449.259 411.837 450.886 414.624 449.152 418.015C449.152 418.015 448.019 418.303 446.37 418.08C445.625 417.411 445.112 416.318 445.052 415.063C444.961 413.136 445.969 411.488 447.371 411.141C447.459 411.139 447.545 411.139 447.632 411.139C447.952 411.139 448.27 411.148 448.58 411.17C448.688 411.202 448.794 411.241 448.897 411.288Z" fill="#161615"/><path fill-rule="evenodd" clip-rule="evenodd" d="M449.917 411.626L449.887 410.635C449.887 410.635 443.89 409.162 438.02 411.743L439.591 413.588C439.591 413.588 443.905 411.62 449.917 411.626Z" fill="#161615"/><path fill-rule="evenodd" clip-rule="evenodd" d="M445.169 403.427L444.831 403.436C441.316 403.537 438.066 405.018 436.053 407.439L454.282 406.924C452.054 404.622 448.684 403.327 445.169 403.427Z" fill="#420F0F"/><path fill-rule="evenodd" clip-rule="evenodd" d="M453.442 435.717C453.446 434.627 452.564 433.741 451.475 433.741H441.862C441.912 433.453 446.556 440.604 452.977 441.16C453.108 441.171 453.314 441.173 453.324 441.185C453.326 441.188 453.442 435.717 453.442 435.717Z" fill="#E73245"/><path fill-rule="evenodd" clip-rule="evenodd" d="M442.361 500.833C448.629 500.869 431.003 468.465 431.003 468.465C437.469 477.799 450.321 503.748 451.733 515.021L454.414 571.575H358.647L374.649 478.597C376.519 464.28 396.402 467.072 410.557 469.796C410.557 469.796 433.792 500.783 442.361 500.833Z" fill="#123A4F"/><path fill-rule="evenodd" clip-rule="evenodd" d="M401.056 558.638L412.018 495.077L376.475 481.559L368.388 564.796C367.275 576.251 375.604 586.456 387.032 587.638L395.527 588.517L401.056 558.638Z" fill="#FFC6AD"/><path fill-rule="evenodd" clip-rule="evenodd" d="M401.353 564.278L431.711 626.293L415.578 638.894L373.467 581.156C367.66 573.195 370.139 561.936 378.751 557.159C386.931 552.622 397.236 555.868 401.353 564.278Z" fill="#FFC6AD"/><path fill-rule="evenodd" clip-rule="evenodd" d="M385.055 547.526C385.208 545.464 387.002 543.916 389.061 544.069C389.193 544.078 389.324 544.095 389.452 544.119C391.976 544.574 392.765 547.855 390.854 549.569L385.028 554.795L380.128 548.752C378.521 546.768 379.791 543.687 382.34 543.593C382.48 543.587 382.62 543.589 382.761 543.6C384.821 543.753 386.366 545.55 386.213 547.613" fill="#191C15"/><path fill-rule="evenodd" clip-rule="evenodd" d="M414.31 483.467C414.331 483.261 414.369 483.06 414.384 482.851C415.141 471.736 406.758 462.111 395.663 461.352C384.776 460.609 375.343 468.687 374.276 479.491L374.254 479.489L367.654 528.428L407.732 532.409L414.332 483.47L414.31 483.467Z" fill="#123A4F"/><path fill-rule="evenodd" clip-rule="evenodd" d="M831.362 510.397C831.362 546.549 860.617 575.856 896.703 575.856C932.791 575.856 962.045 546.549 962.045 510.397C962.045 474.244 932.791 444.938 896.703 444.938C860.617 444.938 831.362 474.244 831.362 510.397Z" fill="#F7931E"/><path fill-rule="evenodd" clip-rule="evenodd" d="M842.412 510.395C842.412 540.434 866.719 564.785 896.703 564.785C926.688 564.785 950.995 540.434 950.995 510.395C950.995 480.357 926.688 456.006 896.703 456.006C866.719 456.006 842.412 480.357 842.412 510.395Z" fill="#FBB03B"/><path fill-rule="evenodd" clip-rule="evenodd" d="M918.902 395.56C918.902 432.419 948.729 462.3 985.523 462.3C1022.32 462.3 1052.14 432.419 1052.14 395.56C1052.14 358.701 1022.32 328.82 985.523 328.82C948.729 328.82 918.902 358.701 918.902 395.56Z" fill="#F7931E"/><path fill-rule="evenodd" clip-rule="evenodd" d="M932.605 395.562C932.605 424.839 956.297 448.572 985.522 448.572C1014.75 448.572 1038.44 424.839 1038.44 395.562C1038.44 366.284 1014.75 342.551 985.522 342.551C956.297 342.551 932.605 366.284 932.605 395.562Z" fill="#FBB03B"/><path fill-rule="evenodd" clip-rule="evenodd" d="M801.313 626.755H1013.58V500.641H801.313V626.755Z" fill="#E73245"/><path fill-rule="evenodd" clip-rule="evenodd" d="M1108.34 313.74V1007.16H1099.23V313.74H1108.34Z" fill="#232144"/><path fill-rule="evenodd" clip-rule="evenodd" d="M1296.07 313.74V1007.16H1286.96V313.74H1296.07Z" fill="#232144"/><path fill-rule="evenodd" clip-rule="evenodd" d="M1289.71 401.394H1101.98V392.275H1289.71V401.394Z" fill="#232144"/><path fill-rule="evenodd" clip-rule="evenodd" d="M1289.71 488.196H1101.98V479.078H1289.71V488.196Z" fill="#232144"/><path fill-rule="evenodd" clip-rule="evenodd" d="M1289.71 574.999H1101.98V565.881H1289.71V574.999Z" fill="#232144"/><path fill-rule="evenodd" clip-rule="evenodd" d="M1289.71 661.802H1101.98V652.684H1289.71V661.802Z" fill="#232144"/><path fill-rule="evenodd" clip-rule="evenodd" d="M1289.71 748.603H1101.98V739.484H1289.71V748.603Z" fill="#232144"/><path fill-rule="evenodd" clip-rule="evenodd" d="M1289.71 835.405H1101.98V826.287H1289.71V835.405Z" fill="#232144"/><path fill-rule="evenodd" clip-rule="evenodd" d="M1289.71 922.208H1101.98V913.09H1289.71V922.208Z" fill="#232144"/><path fill-rule="evenodd" clip-rule="evenodd" d="M193 1020H1407V1007.14H193V1020Z" fill="#D5EFFF"/><path fill-rule="evenodd" clip-rule="evenodd" d="M1122.78 381.554L1041.17 332.594L1038.35 354.814L1092.35 400.947C1105.2 413.595 1118.49 410.269 1127.28 395.413L1122.78 381.554Z" fill="#FFC4B8"/><path fill-rule="evenodd" clip-rule="evenodd" d="M1242.78 329.682L1281.77 404.988C1285.13 411.478 1292.67 414.598 1299.62 412.377C1308 409.702 1312.28 400.413 1308.89 392.288L1265.66 288.682L1242.78 329.682Z" fill="#FFA28F"/><path fill-rule="evenodd" clip-rule="evenodd" d="M1168.81 325.843L1126.79 396.325L1098.71 384.663L1148.86 281.67L1168.81 325.843Z" fill="#FFC4B8"/><path fill-rule="evenodd" clip-rule="evenodd" d="M1259.98 320.071L1281.18 402.205C1283 409.282 1289.66 414.012 1296.93 413.406C1305.69 412.674 1311.94 404.581 1310.45 395.902L1291.43 285.234L1259.98 320.071Z" fill="#FFC4B8"/><path fill-rule="evenodd" clip-rule="evenodd" d="M1135.58 296.617C1134.47 281.935 1145.46 269.134 1160.12 268.028C1174.77 266.921 1187.55 277.927 1188.65 292.609C1189.76 307.293 1171.86 329.925 1171.86 329.925C1171.86 329.925 1136.68 311.3 1135.58 296.617Z" fill="#D5EFFF"/><path fill-rule="evenodd" clip-rule="evenodd" d="M1296.85 296.617C1297.96 281.935 1286.97 269.134 1272.31 268.028C1257.66 266.921 1244.88 277.927 1243.78 292.609C1242.67 307.293 1260.57 329.925 1260.57 329.925C1260.57 329.925 1295.75 311.3 1296.85 296.617Z" fill="#D5EFFF"/><path fill-rule="evenodd" clip-rule="evenodd" d="M1268.94 379.843L1264.32 268.553H1168.3L1162.82 379.843H1268.94Z" fill="#123A4F"/><path fill-rule="evenodd" clip-rule="evenodd" d="M1222.48 789.588L1220.67 406.264H1232.43C1265.72 406.264 1290.13 419.708 1287.47 457.209L1255.44 789.588H1222.48Z" fill="#FFC4B8"/><path fill-rule="evenodd" clip-rule="evenodd" d="M1222.05 756.977L1259.19 756.67L1267.25 667.043H1221.44L1222.05 756.977Z" fill="#D5EFFF"/><path fill-rule="evenodd" clip-rule="evenodd" d="M1221.39 826.423H1263.01V813.141H1221.39V826.423Z" fill="#123A4F"/><path fill-rule="evenodd" clip-rule="evenodd" d="M1263.01 813.14H1221.39V795.463H1259.48L1263.01 813.14Z" fill="#123A4F"/><path fill-rule="evenodd" clip-rule="evenodd" d="M1167.34 793.395L1219.68 408.275L1207.81 407.987C1174.23 407.17 1146.7 419.38 1148.5 456.538L1134.96 793.092L1167.34 793.395Z" fill="#FFC4B8"/><path fill-rule="evenodd" clip-rule="evenodd" d="M1172.57 755.027L1136.3 755.631L1139.48 667.059L1184.9 667.319L1172.57 755.027Z" fill="#D5EFFF"/><path fill-rule="evenodd" clip-rule="evenodd" d="M1132.29 826.448L1166.89 826.425L1168.31 812.367L1132.37 813.142L1132.29 826.448Z" fill="#123A4F"/><path fill-rule="evenodd" clip-rule="evenodd" d="M1132.29 813.14H1168.27L1169.82 795.463H1134.41L1132.29 813.14Z" fill="#123A4F"/><path fill-rule="evenodd" clip-rule="evenodd" d="M1141.02 502.162C1134.68 422.951 1163.24 372.613 1163.24 372.613H1210.15H1268.08C1268.08 372.613 1296.64 422.951 1290.3 502.162H1141.02Z" fill="#123A4F"/><path fill-rule="evenodd" clip-rule="evenodd" d="M1221.39 799.398H1258.95L1259.68 755.631H1221.39V799.398Z" fill="#123A4F"/><path fill-rule="evenodd" clip-rule="evenodd" d="M1134.42 795.464L1168.31 812.367L1173.85 753.674L1134.96 753.176L1134.42 795.464Z" fill="#123A4F"/><path fill-rule="evenodd" clip-rule="evenodd" d="M1030.93 353.047L1004.28 363.518C1002.3 364.296 1001.32 366.537 1002.1 368.522C1002.87 370.507 1005.11 371.486 1007.09 370.707L1033.75 360.237L1030.93 353.047Z" fill="#FFC4B8"/><path fill-rule="evenodd" clip-rule="evenodd" d="M1041.13 334.229L1018.09 335.087L1025.58 363.483L1047.1 354.902L1041.13 334.229Z" fill="#FFC4B8"/><path fill-rule="evenodd" clip-rule="evenodd" d="M1020.61 343.084L989.281 353.865C987.269 354.557 986.197 356.75 986.887 358.765L986.888 358.769C987.58 360.786 989.777 361.86 991.792 361.166L1023.12 350.388L1020.61 343.084Z" fill="#FFC4B8"/><path fill-rule="evenodd" clip-rule="evenodd" d="M1020.6 335.76L990.498 346.115C988.485 346.808 987.413 349.001 988.104 351.016L988.105 351.02C988.797 353.037 990.993 354.11 993.009 353.417L1023.1 343.064L1020.6 335.76Z" fill="#FFC4B8"/><path fill-rule="evenodd" clip-rule="evenodd" d="M1041.18 332.596L1019.84 329.478C1016.67 329.015 1013.52 330.418 1011.73 333.086L1011.23 333.968L1013.68 335.054L1017.5 336.987L1040.01 340.646L1041.18 332.596Z" fill="#FFC4B8"/><path fill-rule="evenodd" clip-rule="evenodd" d="M1023.4 349.805L996.324 359.122C994.311 359.815 993.239 362.008 993.931 364.022L993.932 364.027C994.624 366.044 996.82 367.118 998.835 366.424L1025.91 357.109L1023.4 349.805Z" fill="#FFC4B8"/><path fill-rule="evenodd" clip-rule="evenodd" d="M1172.44 547.182C1172.44 544.549 1174.57 542.414 1177.2 542.414C1177.36 542.414 1177.53 542.422 1177.7 542.44C1180.94 542.78 1182.26 546.87 1179.99 549.228L1173.09 556.414L1166.3 549.203C1164.07 546.836 1165.39 542.805 1168.62 542.443C1168.8 542.423 1168.97 542.414 1169.15 542.414C1171.78 542.414 1173.91 544.549 1173.91 547.182" fill="#191C15"/><path fill-rule="evenodd" clip-rule="evenodd" d="M1195.69 465.172H1176.81C1169.01 465.172 1162.68 458.845 1162.68 451.04V410.213H1209.82V451.04C1209.82 458.845 1203.49 465.172 1195.69 465.172Z" fill="#2C4F65"/><path fill-rule="evenodd" clip-rule="evenodd" d="M1257.5 465.172H1238.63C1230.82 465.172 1224.5 458.845 1224.5 451.04V410.213H1271.63V451.04C1271.63 458.845 1265.31 465.172 1257.5 465.172Z" fill="#2C4F65"/><path fill-rule="evenodd" clip-rule="evenodd" d="M1213.08 287.406H1226.42C1233.68 287.406 1239.56 281.521 1239.56 274.26V245.281H1199.93V274.26C1199.93 281.521 1205.82 287.406 1213.08 287.406Z" fill="#FFC4B8"/><path fill-rule="evenodd" clip-rule="evenodd" d="M1239.48 227.875H1181.81V250.547C1181.81 256.331 1186.5 261.021 1192.28 261.021H1239.48V227.875Z" fill="#FFC4B8"/><path fill-rule="evenodd" clip-rule="evenodd" d="M1187.4 238.848L1187.57 217.461C1187.57 217.461 1180.82 225.632 1176.6 230.74C1175.87 231.629 1175.63 232.827 1175.97 233.928C1176.31 235.029 1177.18 235.884 1178.29 236.206C1182.34 237.382 1187.4 238.848 1187.4 238.848Z" fill="#FFC4B8"/><path fill-rule="evenodd" clip-rule="evenodd" d="M1210.5 183.398C1226.16 183.398 1238.88 196.117 1238.88 211.783C1238.88 227.448 1226.16 240.167 1210.5 240.167C1194.84 240.167 1182.13 227.448 1182.13 211.783C1182.13 196.117 1194.84 183.398 1210.5 183.398Z" fill="#FFC4B8"/><path fill-rule="evenodd" clip-rule="evenodd" d="M1225.97 229.534C1225.97 233.791 1222.52 237.243 1218.26 237.243C1218.21 237.243 1218.21 221.824 1218.26 221.824C1222.52 221.824 1225.97 225.276 1225.97 229.534Z" fill="#BF7461"/><path fill-rule="evenodd" clip-rule="evenodd" d="M1184.07 215.42C1184.01 215.928 1184.17 216.44 1184.5 216.823C1184.84 217.207 1185.33 217.426 1185.84 217.426H1197.17L1190.32 213.666C1186.85 212.444 1184.35 213.146 1184.07 215.42Z" fill="#420F0F"/><path fill-rule="evenodd" clip-rule="evenodd" d="M1185.73 221.612C1185.73 221.612 1184.17 224.336 1186.03 227.575C1186.03 227.575 1191.06 228.698 1194.71 222.616C1194.71 222.616 1189.54 221.086 1185.73 221.612Z" fill="white"/><path d="M1187.36 221.502C1186.8 221.506 1186.25 221.54 1185.73 221.612C1185.73 221.612 1184.17 224.337 1186.03 227.574C1186.03 227.574 1186.76 227.736 1187.86 227.604C1188.53 226.957 1188.97 225.916 1188.97 224.742C1188.97 223.3 1188.31 222.058 1187.36 221.502Z" fill="#1D1D1B"/><path fill-rule="evenodd" clip-rule="evenodd" d="M1181.65 246.219C1180.86 246.092 1180.17 245.53 1179.92 244.713C1179.57 243.57 1180.19 242.287 1181.36 242.012C1183.3 241.554 1185.25 244.05 1189.28 242.822C1188.08 246.857 1185.95 249.204 1183.75 249.875C1182.61 250.222 1181.4 249.577 1181.05 248.436C1180.8 247.618 1181.06 246.765 1181.65 246.219Z" fill="#D93B34"/><path fill-rule="evenodd" clip-rule="evenodd" d="M1184.84 221.701V220.788C1184.84 220.788 1190.32 219.26 1195.8 221.471L1194.41 223.215C1194.41 223.215 1190.37 221.525 1184.84 221.701Z" fill="#1D1D1B"/><path fill-rule="evenodd" clip-rule="evenodd" d="M1191.82 180.113L1235.58 184.985C1244.54 184.985 1251.8 191.59 1251.8 199.591L1242.86 252.062L1215.12 219.66C1205.21 219.66 1197.7 212.57 1197.7 203.722L1191.82 180.113Z" fill="#DFA245"/><path fill-rule="evenodd" clip-rule="evenodd" d="M1243.8 245.029L1247.77 201.424L1247.85 199.674C1247.85 185.855 1235 188.128 1222.92 188.128H1207.75V247.411C1207.75 259.906 1216.61 270.034 1227.52 270.034" fill="#DFA245"/><path fill-rule="evenodd" clip-rule="evenodd" d="M1191.46 180C1183.32 180 1176.72 186.576 1176.72 194.688C1176.72 202.799 1183.32 209.375 1191.46 209.375C1199.6 209.375 1206.2 202.799 1206.2 194.688C1206.2 186.576 1199.6 180 1191.46 180Z" fill="#DFA245"/><path fill-rule="evenodd" clip-rule="evenodd" d="M1199.8 268.654C1199.8 268.654 1220.36 274.882 1239.96 268.654L1251.91 289.252L1203.62 298.832L1190.23 278.235L1199.8 268.654Z" fill="#123A4F"/><path fill-rule="evenodd" clip-rule="evenodd" d="M1207.75 239.148V267.841C1207.75 281.99 1219.2 293.458 1233.33 293.458H1262.65C1262.65 293.458 1246.09 234.341 1251.85 199.736L1207.75 239.148Z" fill="#DFA245"/><path fill-rule="evenodd" clip-rule="evenodd" d="M1224.22 229.586C1224.28 225.395 1220.92 221.954 1216.73 221.901C1212.54 221.847 1209.1 225.201 1209.05 229.392C1209 233.583 1212.35 237.024 1216.54 237.077C1220.73 237.131 1224.17 233.777 1224.22 229.586Z" fill="#FFC6AD"/><path fill-rule="evenodd" clip-rule="evenodd" d="M1207.87 245.663H1215.84V217.064H1207.87V245.663Z" fill="#DFA245"/></svg>