<svg viewBox="0 0 1600 1200" fill="none" xmlns="http://www.w3.org/2000/svg"><path fill-rule="evenodd" clip-rule="evenodd" d="M115 1020H1484.7V839.925H115V1020Z" fill="#E6E3DA"/><path fill-rule="evenodd" clip-rule="evenodd" d="M400.197 279.778H838.902C838.902 279.778 813.04 252.957 779.514 253.915C745.989 254.873 727.789 270.199 686.601 263.494C645.412 256.788 629.128 237.63 605.182 237.63C581.234 237.63 554.414 253.915 521.847 256.788C489.279 259.662 457.669 255.831 438.512 258.704C419.354 261.579 400.197 279.778 400.197 279.778Z" fill="#E6E3DA"/><path fill-rule="evenodd" clip-rule="evenodd" d="M608.412 369.795H247.446C247.446 369.795 268.725 342.974 296.309 343.932C323.895 344.89 338.869 360.216 372.759 353.511C406.649 346.805 420.047 327.647 439.751 327.647C459.454 327.647 481.522 343.932 508.318 346.805C535.115 349.679 561.124 345.848 576.886 348.721C592.649 351.594 608.412 369.795 608.412 369.795Z" fill="#E6E3DA"/><path fill-rule="evenodd" clip-rule="evenodd" d="M623.301 846.912H927.638V535.071H623.301V846.912Z" fill="#D0DEF2"/><path fill-rule="evenodd" clip-rule="evenodd" d="M669.054 727.878H881.886V583.344H669.054V727.878Z" fill="#E6F0FF"/><path fill-rule="evenodd" clip-rule="evenodd" d="M608.378 540.739H927.638V502.557H608.378V540.739Z" fill="#B0C2E4"/><path fill-rule="evenodd" clip-rule="evenodd" d="M1382.39 480.208L1147.61 270.112L912.826 480.208V868.66H1382.39V480.208Z" fill="#E6F0FF"/><path fill-rule="evenodd" clip-rule="evenodd" d="M1147.61 543.576C1092.62 543.576 1048.05 588.151 1048.05 643.138V868.619H1247.17V643.138C1247.17 588.151 1202.59 543.576 1147.61 543.576Z" fill="#B0C2E4"/><path fill-rule="evenodd" clip-rule="evenodd" d="M1382.41 839.984H1485V527.789H1382.41V839.984Z" fill="#D0DEF2"/><path fill-rule="evenodd" clip-rule="evenodd" d="M1415.54 720.815H1484.98V576.116H1415.54V720.815Z" fill="#E6F0FF"/><path fill-rule="evenodd" clip-rule="evenodd" d="M1382.43 533.811H1485V495.628H1382.43V533.811Z" fill="#B0C2E4"/><path fill-rule="evenodd" clip-rule="evenodd" d="M1147.8 269.799L1399.18 495.82V433.936L1147.8 203.914V269.799Z" fill="#B0C2E4"/><path fill-rule="evenodd" clip-rule="evenodd" d="M1147.85 269.799L896.471 495.82V433.936L1147.85 203.914V269.799Z" fill="#B0C2E4"/><path fill-rule="evenodd" clip-rule="evenodd" d="M708.531 544.553L708.77 511.126L757.348 498.024L756.827 570.665L732.586 570.492C719.199 570.395 708.429 558.783 708.531 544.553Z" fill="#BF7461"/><path fill-rule="evenodd" clip-rule="evenodd" d="M766.355 493.968L759.236 440.779C757.461 427.531 745.284 418.228 732.035 420.002L700.234 424.259C686.985 426.032 677.683 438.211 679.456 451.459L687.469 511.321C688.75 520.884 697.541 527.599 707.104 526.319L745.577 521.168C758.826 519.395 768.128 507.217 766.355 493.968Z" fill="#BF7461"/><path fill-rule="evenodd" clip-rule="evenodd" d="M677.714 488.399C677.276 485.134 683.242 477.507 683.242 477.507L686.556 492.63C686.556 492.63 678.151 491.664 677.714 488.399Z" fill="#BF7461"/><path fill-rule="evenodd" clip-rule="evenodd" d="M676.153 442.417C674.935 433.321 681.322 424.961 690.416 423.743L742.064 416.829C759.348 414.515 774.28 428.91 772.599 446.269L694.825 456.68C685.73 457.899 677.37 451.512 676.153 442.417Z" fill="#171111"/><path fill-rule="evenodd" clip-rule="evenodd" d="M789.873 508.493L751.944 513.077C740.495 514.461 730.091 506.301 728.707 494.85L727.954 488.622C727.954 488.622 771.873 434.874 775.55 465.307C779.197 495.478 789.873 508.493 789.873 508.493Z" fill="#171111"/><path fill-rule="evenodd" clip-rule="evenodd" d="M765.46 511.444C742.027 508.618 722.849 488.387 713.938 462.644L709.559 449.998L772.599 446.27" fill="#171111"/><path fill-rule="evenodd" clip-rule="evenodd" d="M722.566 469.895L702.106 422.178L724.367 419.198L732.94 473.953L722.566 469.895Z" fill="#E73245"/><path fill-rule="evenodd" clip-rule="evenodd" d="M718.568 479.695C717.811 474.038 721.783 468.838 727.44 468.081C733.097 467.324 738.297 471.296 739.054 476.952C739.812 482.61 735.84 487.809 730.183 488.567C724.526 489.325 719.326 485.353 718.568 479.695Z" fill="#BF7461"/><path fill-rule="evenodd" clip-rule="evenodd" d="M687.947 472.343C687.947 472.343 686.6 475.862 689.48 478.97C689.48 478.97 695.652 478.814 698.131 471.157C698.131 471.157 692.024 470.788 687.947 472.343Z" fill="white"/><path fill-rule="evenodd" clip-rule="evenodd" d="M690.734 479.481C692.394 479.097 693.331 477.029 692.831 474.861C692.329 472.692 690.578 471.247 688.918 471.63C687.259 472.015 686.323 474.082 686.824 476.251C687.326 478.418 689.074 479.865 690.734 479.481Z" fill="#161615"/><path fill-rule="evenodd" clip-rule="evenodd" d="M686.982 472.67L686.747 471.66C686.747 471.66 692.422 468.568 699.049 469.61L697.951 471.897C697.951 471.897 693.062 471.059 686.982 472.67Z" fill="#161615"/><path fill-rule="evenodd" clip-rule="evenodd" d="M692.137 457.083L692.525 457.132C696.569 457.665 700.116 460.166 702.106 463.888L681.135 461.138C684.026 458.054 688.093 456.551 692.137 457.083Z" fill="#171111"/><path fill-rule="evenodd" clip-rule="evenodd" d="M685.661 497.811C685.496 496.488 686.437 495.284 687.76 495.124L699.429 493.713C699.326 493.371 694.737 502.731 687.024 504.349C686.867 504.382 686.708 504.411 686.548 504.438C686.413 504.46 685.661 497.811 685.661 497.811Z" fill="#8B181D"/><path fill-rule="evenodd" clip-rule="evenodd" d="M627.331 788.591L597.431 778.278L643.325 640.193L753.897 657.516L728.551 739.287C714.215 780.854 668.897 802.928 627.331 788.591Z" fill="#E73245"/><path fill-rule="evenodd" clip-rule="evenodd" d="M257.188 814.336L282.421 847.378L361.205 798.405L329.928 757.496L257.188 814.336Z" fill="#BF7461"/><path fill-rule="evenodd" clip-rule="evenodd" d="M306.705 832.282C306.705 832.282 292.195 836.458 282.473 823.727C273.361 811.795 279.607 796.256 279.607 796.256L257.395 775.374C244.571 764.621 235.212 760.244 223.247 769.889L282.422 847.377L284.086 849.556L306.705 832.282Z" fill="#463EC5"/><path fill-rule="evenodd" clip-rule="evenodd" d="M275.479 856.13L214.641 776.463L223.247 769.89L284.086 849.557L275.479 856.13Z" fill="#232144"/><path fill-rule="evenodd" clip-rule="evenodd" d="M438.808 634.34L287.768 767.622L340.466 836.63L477.95 726.558L599.989 778.827C620.499 788.4 645.77 773.716 677.232 775.204L711.931 767.196L719.964 704.729L471.34 627.382C460.024 623.862 447.694 626.499 438.808 634.34Z" fill="#891229"/><path fill-rule="evenodd" clip-rule="evenodd" d="M682.61 577.188L616.536 624.758C621.162 639.895 639.351 645.93 652.108 636.56L689.271 609.264L687.104 566.89L682.61 577.188Z" fill="#A86554"/><path fill-rule="evenodd" clip-rule="evenodd" d="M731.547 542.58L708.89 544.156C697.635 552.395 675.238 563.111 669.084 575.629L643.326 640.195L749.962 676.976L773.614 564.299C777.172 546.931 760.547 541.474 742.128 541.478C742.128 541.478 751.742 540.375 731.547 542.58Z" fill="#463EC5"/><path fill-rule="evenodd" clip-rule="evenodd" d="M749.207 443.214L772.54 440.394L780.311 504.693L756.978 507.512L749.207 443.214Z" fill="#171111"/><path fill-rule="evenodd" clip-rule="evenodd" d="M730.932 569.334L769.318 581.12L750.455 679.414C746.696 692.582 730 693.768 716.689 690.552L704.163 687.526L730.932 569.334Z" fill="#BF7461"/><path fill-rule="evenodd" clip-rule="evenodd" d="M724.271 642.027L667.032 583.342L648.758 589.779L705.579 692.494L724.271 642.027Z" fill="#BF7461"/><path fill-rule="evenodd" clip-rule="evenodd" d="M725.227 554.016C725.286 553.768 725.322 553.519 725.389 553.272C728.959 540.066 742.557 532.258 755.763 535.828C768.719 539.33 776.454 552.49 773.367 565.458L773.394 565.463L761.476 624.912L713.283 613.459L725.2 554.011L725.227 554.016Z" fill="#463EC5"/><path fill-rule="evenodd" clip-rule="evenodd" d="M730.057 489.923C730.057 486.005 726.88 482.828 722.962 482.828C722.67 482.828 722.381 482.846 722.098 482.881C717.387 483.452 715.305 489.203 718.226 492.944L727.955 505.398L737.684 492.944C740.605 489.203 738.524 483.452 733.813 482.881C733.529 482.846 733.241 482.828 732.949 482.828C729.03 482.828 725.854 486.005 725.854 489.923" fill="#BAC09A"/><path fill-rule="evenodd" clip-rule="evenodd" d="M420.08 707.536L465.449 701.365L506.685 617.669L454.394 632.154L420.08 707.536Z" fill="#BF7461"/><path fill-rule="evenodd" clip-rule="evenodd" d="M471.461 678.232C471.461 678.232 468.476 689.02 451.944 693.176C437.383 696.838 429.421 688.734 429.421 688.734L401.757 701.546C386.997 709.43 379.442 716.48 383.923 731.18L477.896 705.204L480.54 704.473L471.461 678.232Z" fill="#463EC5"/><path fill-rule="evenodd" clip-rule="evenodd" d="M483.425 714.912L386.808 741.618L383.923 731.179L480.54 704.474L483.425 714.912Z" fill="#232144"/><path fill-rule="evenodd" clip-rule="evenodd" d="M534.7 647.092L588.135 718.741L641.096 789.222L711.931 767.196L729.878 705.11L683.465 693.532L560.793 532.647C559.087 530.26 557.509 527.788 555.912 525.328C539.646 500.277 500.741 500.258 487.973 529.818L423.09 676.382L506.686 701.365L534.7 647.092Z" fill="#E73245"/><path fill-rule="evenodd" clip-rule="evenodd" d="M657.275 570.149L651.508 572.552C650.843 572.83 650.078 572.514 649.802 571.849L622.611 506.596C622.334 505.931 622.648 505.166 623.313 504.889L629.081 502.485C629.747 502.209 630.51 502.523 630.788 503.189L657.978 568.443C658.256 569.108 657.94 569.872 657.275 570.149Z" fill="black"/><path fill-rule="evenodd" clip-rule="evenodd" d="M666.74 583.544L658.651 589.145C658.49 589.256 658.268 589.216 658.157 589.056L618.026 531.1C616.36 528.692 616.959 525.39 619.367 523.722C621.75 522.073 625.018 522.667 626.668 525.05L666.83 583.05C666.942 583.211 666.901 583.433 666.74 583.544Z" fill="#BF7461"/><path fill-rule="evenodd" clip-rule="evenodd" d="M653.456 569.57L645.366 575.171C645.205 575.282 644.984 575.243 644.872 575.082L618.214 536.584C616.548 534.176 617.148 530.874 619.554 529.206C621.937 527.556 625.206 528.151 626.856 530.534L653.546 569.076C653.657 569.237 653.616 569.459 653.456 569.57Z" fill="#BF7461"/><path fill-rule="evenodd" clip-rule="evenodd" d="M654.334 575.377L645.661 581.382L618.599 542.3C617.044 540.054 617.603 536.972 619.849 535.417L620.433 535.013C622.654 533.475 625.702 534.029 627.24 536.25L654.334 575.377Z" fill="#BF7461"/><path fill-rule="evenodd" clip-rule="evenodd" d="M667.144 572.722L656.847 575.875L648.241 544.993C647.563 542.347 649.16 539.652 651.806 538.974L652.494 538.798C655.111 538.127 657.777 539.706 658.448 542.323L667.144 572.722Z" fill="#BF7461"/><path fill-rule="evenodd" clip-rule="evenodd" d="M667.584 580.036L667.145 572.723L652.904 559.805C651.002 557.938 647.433 552.484 641.879 549.496L618.599 542.3L638.052 574.586L650.053 591.617L657.097 605.002L693.759 616.364L667.584 580.036Z" fill="#BF7461"/><path fill-rule="evenodd" clip-rule="evenodd" d="M750.906 674.971C750.906 689.295 739.295 700.906 724.972 700.906C710.65 700.906 699.039 689.295 699.039 674.971C699.039 660.647 710.65 649.036 724.972 649.036C739.295 649.036 750.906 660.647 750.906 674.971Z" fill="#BF7461"/><path fill-rule="evenodd" clip-rule="evenodd" d="M648.764 848.286C666.448 890.622 646.463 939.28 604.128 956.964C561.791 974.648 513.136 954.663 495.452 912.326C477.768 869.989 497.753 821.332 540.088 803.649C582.425 785.964 631.08 805.949 648.764 848.286Z" fill="#232144"/><path fill-rule="evenodd" clip-rule="evenodd" d="M616.505 861.762C626.747 886.282 615.173 914.463 590.653 924.705C566.133 934.948 537.953 923.373 527.711 898.852C517.469 874.332 529.043 846.152 553.563 835.909C578.083 825.666 606.263 837.241 616.505 861.762Z" fill="#BAC09A"/><path fill-rule="evenodd" clip-rule="evenodd" d="M565.216 852.783L544.922 763.595L534.67 765.928L555.165 855.999L570.6 892.952L580.302 888.9L565.216 852.783Z" fill="#232144"/><path fill-rule="evenodd" clip-rule="evenodd" d="M917.076 556.767L985.884 528.024L981.831 518.322L909.654 548.472L800.759 744.653C799.11 747.324 798.842 750.634 800.057 753.545L836.985 841.952C841.413 852.555 836.409 864.74 825.806 869.169C817.263 872.738 807.391 870.232 801.584 863.02L740.131 786.708C737.303 783.196 732.439 782.078 728.362 784.001L472.876 904.527L477.362 914.036L732.313 793.763L793.394 869.615C802.136 880.471 816.998 884.243 829.859 878.871C845.82 872.204 853.354 853.861 846.686 837.899L809.905 749.84L917.076 556.767Z" fill="#232144"/><path fill-rule="evenodd" clip-rule="evenodd" d="M427.393 730.837L770.703 633.498C773.378 632.739 776.173 634.237 777.022 636.885L809.564 738.243C810.333 740.639 809.261 743.24 807.028 744.4L652.465 824.663C651.16 825.342 649.626 825.43 648.252 824.906L426.964 740.622C422.323 738.855 422.615 732.192 427.393 730.837Z" fill="#FF6200"/><path fill-rule="evenodd" clip-rule="evenodd" d="M1060.56 401.577L1053.6 368.21L1028.01 360.721L1031.12 422.438L965.871 473.912L985.93 488.571L1090.02 436.357L1060.56 401.577Z" fill="#E3944F"/><path fill-rule="evenodd" clip-rule="evenodd" d="M1185.73 857.688L1127.33 858.752L1141.35 934.876H1187.4L1185.73 857.688Z" fill="#E3944F"/><path fill-rule="evenodd" clip-rule="evenodd" d="M1187.4 939.392V918.908L1183.82 920.032C1168.63 924.784 1152.02 922.893 1138.42 914.861L1137.38 913.332L1087.58 927.968C1082.31 929.494 1078.72 934.134 1078.72 939.392H1187.4Z" fill="#E3944F"/><path fill-rule="evenodd" clip-rule="evenodd" d="M1192.47 886.513L1181.63 658.407L1184.54 491.216L1081.16 475.345L1093.61 669.146L1122.2 885.442L1192.47 886.513Z" fill="#232144"/><path fill-rule="evenodd" clip-rule="evenodd" d="M1117.54 892.958H1197.2V872.384H1117.54V892.958Z" fill="black"/><path fill-rule="evenodd" clip-rule="evenodd" d="M1080.14 851.354L1021.73 852.418L1024.97 940.105H1071.03L1080.14 851.354Z" fill="#E3944F"/><path fill-rule="evenodd" clip-rule="evenodd" d="M1073.46 939.393V918.909L1069.88 920.033C1054.69 924.784 1038.08 922.894 1024.48 914.862L1024 913.906L973.636 927.968C968.374 929.495 964.776 934.134 964.776 939.393H1073.46Z" fill="#E3944F"/><path fill-rule="evenodd" clip-rule="evenodd" d="M1084.17 891.825L1102.16 685.197C1103.17 673.557 1106.38 662.213 1111.62 651.768L1181.93 511.482L1088.98 457.818L1017.74 645.812C1013.69 656.554 1011.66 667.958 1011.78 679.442L1013.9 890.754L1084.17 891.825Z" fill="#463EC5"/><path fill-rule="evenodd" clip-rule="evenodd" d="M1009.33 892.958H1088.99V872.384H1009.33V892.958Z" fill="#222043"/><path fill-rule="evenodd" clip-rule="evenodd" d="M1187.19 484.995C1187.19 452.548 1166.46 426.244 1140.89 426.244C1115.31 426.244 1101.55 449.045 1101.55 481.492C1101.55 513.939 1115.31 543.746 1140.89 543.746C1166.46 543.746 1187.19 517.442 1187.19 484.995Z" fill="#463EC5"/><path fill-rule="evenodd" clip-rule="evenodd" d="M1174.62 443.601L1127.99 342.029L1099.57 297.448C1087.93 286.736 1031.78 310.013 1031.78 310.013L1031.01 312.211C1027.48 322.298 1027.07 333.223 1029.86 343.541C1036.53 368.204 1040.38 381.436 1040.38 381.436L1066.83 487.91L1174.62 443.601Z" fill="#BAC09A"/><path fill-rule="evenodd" clip-rule="evenodd" d="M977.459 509.948L993.237 484.168L965.87 473.911L956.252 484.045L962.975 509.584L965.876 502.299C966.196 501.496 967.05 501.041 967.896 501.225C968.843 501.433 969.448 502.365 969.25 503.315L967.906 509.748L977.459 509.948Z" fill="#E3944F"/><path fill-rule="evenodd" clip-rule="evenodd" d="M978.414 522.242C980.976 522.828 983.521 521.197 984.058 518.624L990.277 488.835L981.121 486.74L974.864 516.704C974.341 519.209 975.92 521.671 978.414 522.242Z" fill="#E3944F"/><path fill-rule="evenodd" clip-rule="evenodd" d="M965.907 529.012C968.653 529.189 971.027 527.114 971.218 524.368L972.674 503.413L962.583 502.766L961.236 523.7C961.059 526.457 963.15 528.835 965.907 529.012Z" fill="#E3944F"/><path fill-rule="evenodd" clip-rule="evenodd" d="M960.383 533.694C963.131 533.498 965.201 531.11 965.005 528.362L963.369 505.417L953.416 506.125L955.052 529.072C955.248 531.82 957.636 533.89 960.383 533.694Z" fill="#E3944F"/><path fill-rule="evenodd" clip-rule="evenodd" d="M964.009 510.062L969.203 512.129L980.854 482.874L975.66 480.806L964.009 510.062Z" fill="#E3944F"/><path fill-rule="evenodd" clip-rule="evenodd" d="M958.761 508.274L963.955 510.343L975.606 481.087L970.412 479.019L958.761 508.274Z" fill="#E3944F"/><path fill-rule="evenodd" clip-rule="evenodd" d="M942.725 538.39L958.611 508.194L971.145 479.94L956.252 484.045L942.835 515.825L942.725 538.39Z" fill="#E3944F"/><path fill-rule="evenodd" clip-rule="evenodd" d="M1039.06 324.341L1023.02 297.708L1057.63 262.276L1080.11 299.625C1086.94 310.961 1083.28 325.685 1071.94 332.51C1060.6 339.335 1045.88 335.678 1039.06 324.341Z" fill="#E3944F"/><path fill-rule="evenodd" clip-rule="evenodd" d="M1030.94 943.053H989.528L976.634 924.778L1011.23 915.059L1030.94 943.053Z" fill="#232144"/><path fill-rule="evenodd" clip-rule="evenodd" d="M971.118 278.281C969.242 275.164 968.818 263.373 971.936 261.497C975.053 259.62 981.648 267.369 983.524 270.486C985.401 273.602 984.396 277.65 981.279 279.526C978.163 281.403 972.995 281.398 971.118 278.281Z" fill="#E3944F"/><path fill-rule="evenodd" clip-rule="evenodd" d="M1050.87 249.638L1026.28 208.794C1019.26 197.134 1004.12 193.372 992.46 200.392L964.733 217.086C955.9 222.403 953.052 233.874 958.369 242.706L989.884 295.056C994.781 303.189 1005.34 305.814 1013.48 300.916L1042.47 283.462C1054.13 276.442 1057.89 261.298 1050.87 249.638Z" fill="#E3944F"/><path fill-rule="evenodd" clip-rule="evenodd" d="M1010.94 246.729L993.598 217.926L1041.21 200.766L1059.38 265.361L1048.18 266.13C1033.11 267.164 1018.73 259.673 1010.94 246.729Z" fill="#171111"/><path fill-rule="evenodd" clip-rule="evenodd" d="M1041.98 203.42C1037.9 186.141 1018.33 178.011 1002.67 187.086L968.444 206.209C956.948 212.536 952.703 220.436 958.427 231.897L981.826 233.768L1041.98 203.42Z" fill="#171111"/><path fill-rule="evenodd" clip-rule="evenodd" d="M1004.04 247.397C1001.32 242.868 1002.78 236.987 1007.31 234.26C1011.84 231.533 1017.72 232.995 1020.44 237.524C1023.17 242.053 1021.71 247.934 1017.18 250.661C1012.65 253.387 1006.77 251.926 1004.04 247.397Z" fill="#E3944F"/><path fill-rule="evenodd" clip-rule="evenodd" d="M988.623 291.357C990.772 290.064 992.237 288.075 992.678 285.826L990.823 285.242C990.445 287.178 989.082 288.874 987.107 289.937C986.923 290.036 986.826 290.089 986.826 290.089L987.815 291.808C987.815 291.808 988.065 291.671 988.133 291.634C988.3 291.546 988.464 291.454 988.623 291.357Z" fill="#010101"/><path fill-rule="evenodd" clip-rule="evenodd" d="M975.689 253.006C979.278 250.846 981.445 247.862 980.529 246.34C979.614 244.821 975.962 245.339 972.374 247.499C968.785 249.66 966.618 252.644 967.534 254.165C968.449 255.686 972.101 255.166 975.689 253.006Z" fill="#171111"/><path fill-rule="evenodd" clip-rule="evenodd" d="M968.459 232.012C971.338 236.793 977.548 238.337 982.329 235.458C987.11 232.579 988.654 226.369 985.775 221.588C982.896 216.807 976.686 215.263 971.905 218.142C967.124 221.021 965.58 227.231 968.459 232.012Z" fill="#171111"/><path fill-rule="evenodd" clip-rule="evenodd" d="M950.041 233.111C954.186 239.996 963.127 242.217 970.013 238.073C976.898 233.927 979.119 224.985 974.974 218.1C970.829 211.215 961.887 208.994 955.002 213.138C948.116 217.284 945.895 226.226 950.041 233.111Z" fill="#171111"/><path fill-rule="evenodd" clip-rule="evenodd" d="M977.092 219.647C980.227 224.853 986.987 226.533 992.194 223.399C997.4 220.264 999.079 213.503 995.946 208.296C992.811 203.091 986.049 201.411 980.843 204.545C975.638 207.68 973.957 214.442 977.092 219.647Z" fill="#171111"/><path fill-rule="evenodd" clip-rule="evenodd" d="M991.948 272.8L979.621 280.221L984.081 287.63L996.407 280.209L991.948 272.8Z" fill="#4F4F59"/><path fill-rule="evenodd" clip-rule="evenodd" d="M990.568 273.624L1002.9 266.585L998.719 244.023L1003.52 240.889L1030.68 286.425C1033.64 291.365 1032.04 297.769 1027.11 300.739L1010.18 310.933C1005.24 313.908 998.82 312.313 995.846 307.374L988.376 294.765L998.906 288.425L990.568 273.624Z" fill="#4F4F59"/><path fill-rule="evenodd" clip-rule="evenodd" d="M981.695 240.072C985.328 246.106 993.164 248.053 999.197 244.421C1005.23 240.788 1007.18 232.952 1003.55 226.918C999.913 220.883 992.077 218.936 986.043 222.57C980.008 226.203 978.061 234.039 981.695 240.072Z" fill="#171111"/><path fill-rule="evenodd" clip-rule="evenodd" d="M950.338 214.773C948.134 209.546 949.679 205.751 954.905 203.547L1004.57 182.633C1023.47 174.669 1045 185.491 1049.89 205.403L1059.38 244.92" fill="#232144"/><path fill-rule="evenodd" clip-rule="evenodd" d="M1061.95 247.467C1063.02 253.034 1057.82 257.757 1052.38 256.158L946.929 225.166C944.709 224.532 942.93 222.872 942.145 220.702C940.158 215.219 945.189 209.778 950.812 211.331L1056.6 241.611C1059.35 242.396 1061.42 244.661 1061.95 247.467Z" fill="#D8CBC5"/><path fill-rule="evenodd" clip-rule="evenodd" d="M981.254 264.985C977.442 268.26 971.933 261.847 975.746 258.573C979.557 255.298 983.88 254.079 985.401 255.85C986.923 257.621 985.065 261.711 981.254 264.985Z" fill="white"/><path fill-rule="evenodd" clip-rule="evenodd" d="M973.219 265.291C971.933 262.92 972.403 260.177 974.27 259.165C976.138 258.15 978.693 259.253 979.98 261.624C981.265 263.996 980.795 266.738 978.928 267.75C977.061 268.765 974.504 267.662 973.219 265.291Z" fill="#1D1D1B"/><path fill-rule="evenodd" clip-rule="evenodd" d="M1011.94 695.234C1011.94 695.234 1005.65 662.825 1021.04 637.091C1021.04 637.091 1033.09 666.469 1011.94 695.234Z" fill="#E3944F"/><path fill-rule="evenodd" clip-rule="evenodd" d="M960.589 955.395H1078.72V939.394H960.589V955.395Z" fill="#232144"/><path fill-rule="evenodd" clip-rule="evenodd" d="M1144.88 943.053H1103.47L1090.57 924.778L1125.17 915.059L1144.88 943.053Z" fill="#232144"/><path fill-rule="evenodd" clip-rule="evenodd" d="M1077.29 955.395H1192.47V939.394H1077.29V955.395Z" fill="#232144"/><path fill-rule="evenodd" clip-rule="evenodd" d="M964.015 514.494C966.417 515.558 969.227 514.443 970.245 512.02L982.039 483.968L973.451 480.162L961.588 508.38C960.596 510.738 961.675 513.457 964.015 514.494Z" fill="#E3944F"/><path fill-rule="evenodd" clip-rule="evenodd" d="M1039.54 424.324L982.32 477.283L966.014 485.31L986.081 517.694L999.038 507.522L1074.77 442.608L1039.54 424.324Z" fill="#F0A86B"/><path fill-rule="evenodd" clip-rule="evenodd" d="M969.833 540.1C966.932 538.848 965.622 535.46 966.928 532.584L979.635 504.573L990.005 509.047L977.21 537.249C975.939 540.05 972.658 541.318 969.833 540.1Z" fill="#F0A86B"/><path fill-rule="evenodd" clip-rule="evenodd" d="M959.536 544.072C956.635 542.82 955.326 539.432 956.631 536.556L974.957 499.529L985.326 504.003L966.913 541.221C965.642 544.022 962.361 545.29 959.536 544.072Z" fill="#F0A86B"/><path fill-rule="evenodd" clip-rule="evenodd" d="M945.544 546.609C943.01 546.019 941.379 543.553 941.828 540.989L945.782 518.447L947.884 515.703L955.868 517.673L951.48 542.683C950.995 545.453 948.282 547.246 945.544 546.609Z" fill="#F0A86B"/><path fill-rule="evenodd" clip-rule="evenodd" d="M950.963 547.372C948.356 546.499 946.95 543.679 947.823 541.073L955.944 516.804L966.653 520.388L958.957 543.387C957.851 546.694 954.271 548.479 950.963 547.372Z" fill="#F0A86B"/><path fill-rule="evenodd" clip-rule="evenodd" d="M966.014 485.311L975.987 497.352L954.774 525.305L945.778 518.479L966.014 485.311Z" fill="#F0A86B"/><path fill-rule="evenodd" clip-rule="evenodd" d="M971.397 493.625L980.757 499.945L961.12 529.026L951.76 522.706L971.397 493.625Z" fill="#F0A86B"/><path fill-rule="evenodd" clip-rule="evenodd" d="M1069.61 377.777L1072.49 333.603C1072.26 322.182 1063.24 312.522 1051.55 311.613C1039.21 310.655 1028.58 319.787 1027.8 332.009L1026.92 361.265L1069.61 377.777Z" fill="#BAC09A"/><path fill-rule="evenodd" clip-rule="evenodd" d="M1013.68 497.245L1010.41 500.01L986.945 472.274L990.214 469.51L1013.68 497.245Z" fill="black"/><path fill-rule="evenodd" clip-rule="evenodd" d="M1018.22 493.018L1014.96 495.783L991.489 468.047L994.758 465.283L1018.22 493.018Z" fill="black"/><path fill-rule="evenodd" clip-rule="evenodd" d="M1041.28 320.22L1095.43 328.683L1081.54 428.747C1078.83 443.272 1065.15 453.073 1050.52 450.962L1036.76 448.974L1041.28 320.22Z" fill="#F0A86B"/><path fill-rule="evenodd" clip-rule="evenodd" d="M1099.12 374.315L1103.63 312.027C1103.42 295.934 1090.92 282.415 1074.58 281.26C1057.34 280.041 1042.38 293.025 1041.16 310.258L1038.06 356.966L1099.12 374.315Z" fill="#BAC09A"/></svg>