<?xml version="1.0" encoding="utf-8"?><!--Generator: Adobe Illustrator 27.8.0, SVG Export Plug-In . SVG Version: 6.00 Build 0)--><svg version="1.1" xmlns="http://www.w3.org/2000/svg" xmlns:xlink="http://www.w3.org/1999/xlink" x="0px" y="0px" viewBox="0 0 1200 840" style="enable-background:new 0 0 1200 840;" xml:space="preserve"><style type="text/css">.st0{fill:#B0C2E4;}
	.st1{fill:#D0DEF2;}
	.st2{fill:#8DA8DC;}
	.st3{fill:#E5F0FF;}
	.st4{fill:#232144;}
	.st5{fill:#D8CBC5;}
	.st6{fill:#891229;}
	.st7{fill:#FFD4C2;}
	.st8{fill:#ED2979;}
	.st9{fill:#FFC6AD;}
	.st10{fill:#E6E3DA;}
	.st11{fill:#463EC5;}
	.st12{fill:#1E1515;}
	.st13{fill:#FFFFFF;}</style><g id="Background"><rect x="16" y="16" class="st0" width="1168" height="808"/><rect x="36.29" y="171.48" class="st1" width="1128.78" height="613.42"/><path class="st2" d="M1142.84,587.33h-24.34c-4.55,0-8.23,3.67-8.23,8.21v2.09h-8.3l-9.48-24.5c-9.52-26.85-34.98-44.8-63.54-44.8
		h-140.4c-29.82,0-56.09,19.53-64.6,48.02l-6.35,21.28h-8.63v-2.09c0-4.53-3.69-8.21-8.23-8.21h-24.34c-4.55,0-8.23,3.67-8.23,8.21
		v14.48c0,4.53,3.69,8.21,8.23,8.21h24.34c4.55,0,8.23-3.67,8.23-8.21v-2.09h5.56l-2.24,7.5l-18.01,33.92
		c-5.71,10.75-8.69,22.73-8.69,34.9v41.38c0,5.21,1.27,10.12,3.5,14.46v30.5c0,7.88,6.39,14.27,14.27,14.27h18.99
		c7.88,0,14.27-6.39,14.27-14.27v-13.2h123.35h1.27h123.35v13.2c0,7.88,6.39,14.27,14.27,14.27h18.99c7.88,0,14.27-6.39,14.27-14.27
		v-30.5c2.23-4.34,3.5-9.25,3.5-14.46v-41.38c0-12.17-2.98-24.15-8.69-34.9l-18.08-34.05l-2.85-7.37h4.31v2.09
		c0,4.53,3.69,8.21,8.23,8.21h24.34c4.55,0,8.23-3.67,8.23-8.21v-14.48C1151.08,591.01,1147.39,587.33,1142.84,587.33z"/><path class="st0" d="M1077.77,695.54c32.82,0,34.17-13.92,34.17-38.19v0v0c0,0-25.59-2.39-38.23,3.72
		c-16.04,7.75-35.16,30.85-38.02,34.37L1077.77,695.54z"/><path class="st0" d="M885.47,728.2l7.53-15.02c3.26-6.5,9.92-10.61,17.21-10.61h98.64c7.23,0,13.85,4.04,17.14,10.46l7.74,15.11
		c2.7,5.26-1.14,11.51-7.07,11.51h-134.1C886.67,739.65,882.83,733.46,885.47,728.2z"/><path class="st0" d="M883.54,695.44c-2.86-3.52-21.98-26.62-38.02-34.37c-12.64-6.1-38.22-3.72-38.23-3.72l0,0v0
		c0,24.27,1.35,38.19,34.17,38.19L883.54,695.44z"/><path class="st0" d="M851.8,596.48c0-5.42,4.39-9.81,9.81-9.81h11.05c-2.79-1.71-4.66-4.79-4.66-8.3v-1.9
		c0-5.38,4.36-9.74,9.74-9.74h23.58c5.38,0,9.74,4.36,9.74,9.74v1.9c0,3.52-1.87,6.59-4.66,8.3h10.32c5.21,0,9.44,4.23,9.44,9.44
		l0.21,19.74l65.15,0.01v-19.38c0-5.42,4.39-9.81,9.81-9.81h10.32c-2.79-1.71-4.66-4.79-4.66-8.3v-1.9c0-5.38,4.36-9.74,9.74-9.74
		h23.58c5.38,0,9.74,4.36,9.74,9.74v1.9c0,3.52-1.87,6.59-4.66,8.3h11.06c5.21,0,9.44,4.23,9.44,9.44v19.77l30.64,0.01l-13.07-42.8
		c-8.8-26.85-31.65-39.79-58.07-39.79l-133.26,0.01c-27.58,0-49.23,14.51-57.1,43l-8.31,39.52l24.87,0.01L851.8,596.48z"/><path class="st2" d="M423.51,587.33h-24.34c-4.55,0-8.23,3.67-8.23,8.21v2.09h-8.3l-9.48-24.5c-9.52-26.85-34.98-44.8-63.54-44.8
		h-140.4c-29.82,0-56.09,19.53-64.6,48.02l-6.35,21.28h-8.63v-2.09c0-4.53-3.69-8.21-8.23-8.21H57.05c-4.55,0-8.23,3.67-8.23,8.21
		v14.48c0,4.53,3.69,8.21,8.23,8.21h24.34c4.55,0,8.23-3.67,8.23-8.21v-2.09h5.56l-2.24,7.5l-18.01,33.92
		c-5.71,10.75-8.69,22.73-8.69,34.9v41.38c0,5.21,1.27,10.12,3.5,14.46v30.5c0,7.88,6.39,14.27,14.27,14.27h18.99
		c7.88,0,14.27-6.39,14.27-14.27v-13.2h123.35h1.27h123.35v13.2c0,7.88,6.39,14.27,14.27,14.27h18.99c7.88,0,14.27-6.39,14.27-14.27
		v-30.5c2.23-4.34,3.5-9.25,3.5-14.46v-41.38c0-12.17-2.98-24.15-8.69-34.9l-18.08-34.05l-2.85-7.37h4.31v2.09
		c0,4.53,3.69,8.21,8.23,8.21h24.34c4.55,0,8.23-3.67,8.23-8.21v-14.48C431.74,591.01,428.05,587.33,423.51,587.33z"/><path class="st0" d="M358.43,695.54c32.82,0,34.17-13.92,34.17-38.19v0v0c0,0-25.59-2.39-38.23,3.72
		c-16.04,7.75-35.16,30.85-38.02,34.37L358.43,695.54z"/><path class="st0" d="M166.13,728.2l7.53-15.02c3.26-6.5,9.92-10.61,17.21-10.61h98.64c7.23,0,13.85,4.04,17.14,10.46l7.74,15.11
		c2.7,5.26-1.14,11.51-7.07,11.51h-134.1C167.33,739.65,163.49,733.46,166.13,728.2z"/><path class="st0" d="M164.2,695.44c-2.86-3.52-21.98-26.62-38.02-34.37c-12.64-6.1-38.22-3.72-38.23-3.72l0,0v0
		c0,24.27,1.35,38.19,34.17,38.19L164.2,695.44z"/><path class="st0" d="M132.46,596.48c0-5.42,4.39-9.81,9.81-9.81h11.05c-2.79-1.71-4.66-4.79-4.66-8.3v-1.9
		c0-5.38,4.36-9.74,9.74-9.74h23.58c5.38,0,9.74,4.36,9.74,9.74v1.9c0,3.52-1.87,6.59-4.66,8.3h10.32c5.21,0,9.44,4.23,9.44,9.44
		l0.21,19.74l65.15,0.01v-19.38c0-5.42,4.39-9.81,9.81-9.81h10.32c-2.79-1.71-4.66-4.79-4.66-8.3v-1.9c0-5.38,4.36-9.74,9.74-9.74
		h23.58c5.38,0,9.74,4.36,9.74,9.74v1.9c0,3.52-1.87,6.59-4.66,8.3h11.06c5.21,0,9.44,4.23,9.44,9.44v19.77l30.64,0.01l-13.07-42.8
		c-8.8-26.85-31.65-39.79-58.07-39.79l-133.26,0.01c-27.58,0-49.23,14.51-57.1,43l-8.31,39.52l24.87,0.01L132.46,596.48z"/><polygon class="st3" points="1081.77,171.48 1063.94,171.48 36.55,784.94 54.38,784.94 	"/><polygon class="st3" points="1165.08,171.48 1102.24,171.48 74.85,784.94 139.09,784.94 	"/></g><g id="car"><path class="st4" d="M329.44,801.36V682.93c0-3.31,2.68-5.99,5.99-5.99h63.42c3.31,0,5.99,2.68,5.99,5.99v118.43
		c0,12.5-10.14,22.64-22.64,22.64h-30.12C339.58,824,329.44,813.86,329.44,801.36z"/><path class="st4" d="M798.23,801.36V682.93c0-3.31,2.68-5.99,5.99-5.99h63.42c3.31,0,5.99,2.68,5.99,5.99v118.43
		c0,12.5-10.14,22.64-22.64,22.64h-30.12C808.36,824,798.23,813.86,798.23,801.36z"/><path class="st4" d="M890.69,510.64h-38.62c-7.21,0-13.06,5.83-13.06,13.02v3.32h-13.16l-15.04-38.86
		c-15.1-42.6-55.49-71.08-100.81-71.08H487.25c-47.31,0-88.99,30.99-102.48,76.19l-10.07,33.75H361v-3.32
		c0-7.19-5.85-13.02-13.06-13.02h-38.62c-7.21,0-13.06,5.83-13.06,13.02v22.98c0,7.19,5.85,13.02,13.06,13.02h38.62
		c7.21,0,13.06-5.83,13.06-13.02v-3.32h8.82l-3.55,11.89l-28.58,53.82c-9.06,17.06-13.79,36.06-13.79,55.36v65.65
		c0,27.83,22.63,50.39,50.55,50.39h226.09h2.02h226.08c27.92,0,50.55-22.56,50.55-50.39v-65.65c0-19.3-4.74-38.31-13.79-55.36
		l-28.69-54.02l-4.53-11.69H839v3.32c0,7.19,5.85,13.02,13.06,13.02h38.62c7.21,0,13.06-5.83,13.06-13.02v-22.98
		C903.75,516.47,897.9,510.64,890.69,510.64z"/><ellipse class="st0" cx="813.8" cy="749.66" rx="15.57" ry="15.52"/><path class="st0" d="M787.44,682.3c52.06,0,54.21-22.08,54.21-60.58v0v0c0,0-40.6-3.79-60.65,5.9
		c-25.45,12.29-55.79,48.94-60.32,54.52L787.44,682.3z"/><path class="st0" d="M482.36,734.12l11.95-23.83c5.17-10.31,15.74-16.83,27.31-16.83h156.49c11.47,0,21.97,6.41,27.19,16.59
		l12.28,23.97c4.28,8.35-1.81,18.26-11.21,18.26H493.63C484.27,752.28,478.18,742.46,482.36,734.12z"/><path class="st0" d="M796.47,488.04c-13.97-42.6-50.2-63.12-92.13-63.12l-211.42,0.02c-43.76,0-78.11,23.01-90.59,68.21
		l-13.18,62.7l428.05,0.09L796.47,488.04z"/><ellipse class="st0" cx="385.92" cy="749.66" rx="15.57" ry="15.52"/><path class="st0" d="M479.31,682.14c-4.53-5.58-34.87-42.23-60.32-54.52c-20.05-9.68-60.64-5.9-60.65-5.9l0,0v0
		c0,38.51,2.15,60.58,54.21,60.58L479.31,682.14z"/><path class="st4" d="M753.62,509.59h-17.54c4.43-2.72,7.4-7.59,7.4-13.17v-3.01c0-8.54-6.92-15.46-15.46-15.46h-37.41
		c-8.54,0-15.46,6.92-15.46,15.46v3.01c0,5.58,2.97,10.46,7.4,13.17h-16.37c-8.59,0-15.56,6.97-15.56,15.56v42.01H768.6v-42.59
		C768.6,516.29,761.89,509.59,753.62,509.59z"/><path class="st4" d="M531.95,509.59h-16.37c4.43-2.72,7.4-7.59,7.4-13.17v-3.01c0-8.54-6.92-15.46-15.46-15.46h-37.41
		c-8.54,0-15.46,6.92-15.46,15.46v3.01c0,5.58,2.97,10.46,7.4,13.17h-17.54c-8.59,0-15.56,6.97-15.56,15.56l-0.44,35.94h118.85
		l-0.44-36.52C546.92,516.29,540.22,509.59,531.95,509.59z"/></g><g id="Car_dealer"><polygon class="st5" points="178.26,814.72 215.35,814.72 215.35,802.39 190.88,802.39 	"/><rect x="178.26" y="814.73" class="st6" width="37.09" height="9.27"/><polygon class="st6" points="289.43,824 253.16,823.98 253.13,814.58 289.37,814.58 	"/><polygon class="st5" points="289.43,814.59 253.14,814.59 252.71,802.39 276.81,802.39 	"/><path class="st7" d="M335.3,461.88c4.48-5.92,3.45-14.33-2.33-18.98h0c-6.67-5.38-16.59-3.4-20.69,4.14l-32.12,63.8l18.95,8.39
		L335.3,461.88z"/><path class="st6" d="M265.97,439.32L301.12,466c13.17,8.1,30.45,1.54,34.92-13.27v0c2.83-9.4-0.45-19.57-8.25-25.53l-42.75-30.69
		l-0.01,0.01c-3.35-2.93-7.64-4.83-12.42-5.19c-11.75-0.89-22,7.92-22.88,19.68c-0.44,5.77,2.81,13.08,6.22,19.02L265.97,439.32z"/><path class="st6" d="M205.79,430.67c3.21-5.66,4.99-12.07,4.88-18.58c-0.05-2.73-0.42-5.29-1.29-7.44
		c-4.39-10.94-16.82-16.24-27.75-11.85c-4.45,1.78-7.96,4.9-10.27,8.7l-0.01-0.01l-36.21,47.96c-5.63,8.04-5.7,18.73-0.16,26.83l0,0
		c8.73,12.77,27.18,13.82,37.3,2.12l30.17-41.85L205.79,430.67z"/><path class="st8" d="M186.12,480.96c0,0-8.25,5.85-12.41,39.88c-1.11,9.04-0.15,196.99,0.96,263.43
		c0.25,15.24,12.7,27.6,27.94,27.57h1.84c15.53-0.03,28.04-12.89,27.84-28.41l-3.17-261.64h0.6l9.82,263.32
		c0.62,14.92,12.88,26.71,27.82,26.74h0c15.77,0.03,28.43-13.01,27.93-28.77c-2.14-67.3-9.55-253.17-10.68-262.23
		c-4.22-33.72-12.89-39.88-12.89-39.88H186.12z"/><polygon class="st6" points="186.12,481.06 189.35,391.26 271.7,391.26 271.7,481.06 	"/><path class="st9" d="M242.78,394.95v-16.92h-29.28v16.92c0,4.93,4,8.93,8.93,8.93h11.41C238.78,403.88,242.78,399.88,242.78,394.95
		z"/><polygon class="st8" points="242.81,391.26 228.01,403.88 239.53,410.74 248.99,391.26 	"/><polygon class="st8" points="213.51,391.26 228.3,403.88 216.78,410.74 207.32,391.26 	"/><path class="st7" d="M266.89,512.3L266.89,512.3c-0.13-1.77,1.2-3.31,2.96-3.44l16.61-2.08l0.48,6.41l-16.61,2.08
		C268.56,515.4,267.02,514.07,266.89,512.3z"/><polygon class="st7" points="299.12,519.22 281.92,540.07 262.84,523.71 282.77,507.24 	"/><path class="st7" d="M277.81,524.87l-2.18,2.6l-2.64,3.15l-2.18,2.6c-1.14,1.36-0.96,3.39,0.4,4.52l0,0
		c1.36,1.14,3.39,0.96,4.52-0.4l2.18-2.6l2.64-3.15l2.18-2.6c1.14-1.36,0.96-3.39-0.4-4.52h0
		C280.97,523.33,278.95,523.51,277.81,524.87z"/><path class="st7" d="M283.76,527.88l-2.18,2.6l-2.64,3.15l-2.18,2.6c-1.14,1.36-0.96,3.39,0.4,4.52h0c1.36,1.14,3.39,0.96,4.52-0.4
		l2.18-2.6l2.64-3.15l2.18-2.6c1.14-1.36,0.96-3.39-0.4-4.52l0,0C286.92,526.34,284.9,526.52,283.76,527.88z"/><path class="st7" d="M272.83,520.7l-2.18,2.6l-2.64,3.15l-2.18,2.6c-1.14,1.36-0.96,3.39,0.4,4.52h0c1.36,1.14,3.39,0.96,4.52-0.4
		l2.18-2.6l2.64-3.15l2.18-2.6c1.14-1.36,0.96-3.39-0.4-4.52l0,0C275.99,519.16,273.97,519.34,272.83,520.7z"/><path class="st7" d="M268.51,515.75l-2.18,2.6l-2.64,3.15l-2.18,2.6c-1.14,1.36-0.96,3.39,0.4,4.52h0c1.36,1.14,3.39,0.96,4.52-0.4
		l2.18-2.6l2.64-3.15l2.18-2.6c1.14-1.36,0.96-3.39-0.4-4.52v0C271.67,514.21,269.64,514.39,268.51,515.75z"/><polygon class="st7" points="266.89,512.3 266.59,518.03 279.57,514.93 	"/><path class="st6" d="M302.76,516.77l-4.88-3.89c0.83-1.05,0.66-2.57-0.39-3.41l-5.78-4.61c-1.05-0.84-2.57-0.67-3.41,0.38
		l-4.88-3.89l-3.16,3.96l4.88,3.89c-0.83,1.05-0.66,2.57,0.39,3.41l5.78,4.61c1.05,0.84,2.57,0.67,3.41-0.38l4.88,3.89
		L302.76,516.77z"/><path class="st4" d="M238.05,481.58l-58.84,23.57l-33.45-83.51l58.84-23.57c2.61-1.05,5.58,0.22,6.63,2.84l29.66,74.04
		C241.93,477.57,240.66,480.54,238.05,481.58z"/><path class="st10" d="M215.22,491.07c0.21-0.48,0.73-0.73,1.23-0.64l0.32-0.73c-0.47-0.3-0.59-1.1-0.25-1.86
		c0.33-0.76,1-1.21,1.54-1.06l0.33-0.76c-0.49-0.28-0.7-0.88-0.47-1.4s0.82-0.77,1.35-0.6l0.78-1.77L217.2,481l-5.42,12.29l0.75,2.1
		l2.11-0.84l0.95-2.15C215.17,492.11,215.01,491.55,215.22,491.07L215.22,491.07z"/><path class="st11" d="M223.9,469.87c-0.02-0.01-0.05-0.02-0.08-0.03l0.36-0.82c0.38-0.05,1.92-1.9,3.49-5.45
		c1.56-3.54,1.89-5.93,1.63-6.27l0.4-0.79c0.6,0.26,0.72,1.14,0.38,2.74c-0.28,1.32-0.85,2.98-1.59,4.68
		C228.2,464.61,225.59,470.41,223.9,469.87z"/><path class="st6" d="M233.97,473.93c-3.52-3.15-3.47-7.34-3.42-10.71c0.03-2.59,0.06-4.82-1.4-6.02l0.57-0.69
		c1.79,1.47,1.76,4.02,1.72,6.72c-0.04,3.35-0.09,7.15,3.13,10.03L233.97,473.93z"/><circle class="st6" cx="232.35" cy="477.65" r="7.1"/><path class="st6" d="M229.71,456.51l-0.4,0.79c0.26,0.34-0.07,2.73-1.63,6.27c-1.23,2.79-2.44,4.52-3.09,5.16l0.85,0.37
		c1.41-1.51,2.85-4.69,3.06-5.18c0.75-1.7,1.32-3.36,1.59-4.68C230.43,457.64,230.31,456.77,229.71,456.51L229.71,456.51z"/><path class="st10" d="M225.76,467.74l-1.75-0.77c-2.13-0.94-4.61,0.02-5.54,2.15l-3.92,8.89c-0.37,0.85,0.01,1.84,0.86,2.21
		l6.37,2.81c0.85,0.37,1.84-0.01,2.21-0.86l3.92-8.89C228.85,471.16,227.89,468.68,225.76,467.74L225.76,467.74z M226.15,470.16
		l-0.04,0.09c-0.15,0.34-0.54,0.49-0.88,0.34l-2.94-1.3c-0.34-0.15-0.49-0.54-0.34-0.88l0.04-0.09c0.15-0.34,0.54-0.49,0.88-0.34
		l1.73,0.76c-0.18,0.17-0.31,0.27-0.4,0.28l-0.36,0.82c0.02,0.01,0.05,0.02,0.08,0.03c0.46,0.15,0.99-0.19,1.53-0.76l0.37,0.16
		C226.14,469.41,226.29,469.81,226.15,470.16L226.15,470.16z"/><path class="st6" d="M225.12,462.44c-0.75,1.7-1.32,3.36-1.59,4.68c-0.33,1.54-0.22,2.4,0.31,2.7l-0.01,0.02
		c0.02,0.01,0.05,0.02,0.08,0.03c0.46,0.15,0.99-0.19,1.53-0.76l-0.85-0.37c-0.13,0.13-0.23,0.21-0.31,0.25
		c-0.18-0.55,0.2-2.86,1.67-6.19c1.56-3.54,3.11-5.39,3.49-5.45l0.36-0.82C228.11,455.75,225.42,461.75,225.12,462.44L225.12,462.44
		z"/><path class="st6" d="M220.03,469.91l6.3,2.78c0.22,0.1,0.32,0.36,0.23,0.58l-1.35,3.05c-0.1,0.22-0.36,0.32-0.58,0.23l-6.3-2.78
		c-0.22-0.1-0.32-0.36-0.23-0.58l1.35-3.05C219.55,469.91,219.81,469.81,220.03,469.91z"/><path class="st6" d="M218.03,474.45l6.3,2.78c0.22,0.1,0.32,0.36,0.23,0.58l-1.35,3.05c-0.1,0.22-0.36,0.32-0.58,0.23l-6.3-2.78
		c-0.22-0.1-0.32-0.36-0.23-0.58l1.35-3.05C217.54,474.45,217.8,474.35,218.03,474.45z"/><path class="st7" d="M156.31,478.41c-7.2,1.81-14.53-2.43-16.56-9.57l0,0c-2.34-8.25,3.37-16.6,11.9-17.42l62.03-3.06l0.3,20.72
		L156.31,478.41z"/><path class="st7" d="M220.23,436.7L220.23,436.7c-1.58-0.81-3.51-0.2-4.33,1.38l-8.42,14.47l5.71,2.95l8.42-14.47
		C222.43,439.46,221.81,437.52,220.23,436.7z"/><polygon class="st7" points="213.98,469.08 239.9,461.41 232.31,437.45 209.36,449.34 	"/><path class="st7" d="M227.52,451.67l3.24-0.99l3.94-1.2l3.24-0.99c1.7-0.52,3.49,0.44,4.01,2.14l0,0c0.52,1.7-0.44,3.49-2.14,4.01
		l-3.24,0.99l-3.94,1.2l-3.24,0.99c-1.7,0.52-3.49-0.44-4.01-2.14l0,0C224.86,453.98,225.82,452.19,227.52,451.67z"/><path class="st7" d="M227.96,458.33l3.24-0.99l3.94-1.2l3.24-0.99c1.7-0.52,3.49,0.44,4.01,2.14l0,0c0.52,1.7-0.44,3.49-2.14,4.01
		l-3.24,0.99l-3.94,1.2l-3.24,0.99c-1.7,0.52-3.49-0.44-4.01-2.14v0C225.3,460.63,226.26,458.84,227.96,458.33z"/><path class="st7" d="M225.63,445.46l3.24-0.99l3.94-1.2l3.24-0.99c1.7-0.52,3.49,0.44,4.01,2.14l0,0c0.52,1.7-0.44,3.49-2.14,4.01
		l-3.24,0.99l-3.94,1.2l-3.24,0.99c-1.7,0.52-3.49-0.44-4.01-2.14v0C222.97,447.77,223.93,445.98,225.63,445.46z"/><path class="st7" d="M223,440.01l3.24-0.99l3.94-1.2l3.24-0.99c1.7-0.52,3.49,0.44,4.01,2.14h0c0.52,1.7-0.44,3.49-2.14,4.01
		l-3.24,0.99l-3.94,1.2l-3.24,0.99c-1.7,0.52-3.49-0.44-4.01-2.14l0,0C220.34,442.32,221.3,440.53,223,440.01z"/><polygon class="st7" points="220.23,436.7 227.71,439.44 217.68,449.41 	"/><rect x="205.36" y="343.4" class="st12" width="46.37" height="32.33"/><path class="st7" d="M208.29,368.45V339.9c0-9.02,7.31-16.33,16.33-16.33h7.85c9.02,0,16.33,7.31,16.33,16.33v28.55
		c0,9.02-7.31,16.33-16.33,16.33h-7.85C215.6,384.78,208.29,377.47,208.29,368.45z"/><path d="M228.72,366.58c-0.23,0-0.47-0.03-0.72-0.08c-0.7-0.14-1.37-0.5-1.98-1.07c-0.33-0.3-0.65-0.43-0.99-0.41
		c-0.68,0.06-1.21,0.74-1.21,0.75l-0.65-0.49c0.03-0.04,0.75-0.97,1.79-1.07c0.58-0.05,1.12,0.16,1.62,0.62
		c0.5,0.47,1.04,0.76,1.59,0.87c0.56,0.11,1.06,0.06,1.49-0.16c0.18-0.09,0.36-0.23,0.53-0.42c0.22-0.23,0.81-0.79,1.68-0.82
		c0.7-0.02,1.39,0.29,2.07,0.92l-0.56,0.59c-0.51-0.48-1.01-0.72-1.48-0.7c-0.56,0.02-0.96,0.4-1.11,0.56
		c-0.24,0.25-0.49,0.45-0.75,0.59C229.63,366.47,229.19,366.58,228.72,366.58z"/><path class="st12" d="M239.08,344.25l0.25,0c2.6,0,5.05,1.29,6.61,3.48l0,0l-13.48-0.01l0,0
		C234.03,345.53,236.48,344.25,239.08,344.25L239.08,344.25z"/><path class="st12" d="M218.01,347.93l-0.25,0c-2.6,0-5.05,1.29-6.61,3.48l0,0l13.48-0.01l0,0
		C223.06,349.21,220.61,347.93,218.01,347.93L218.01,347.93z"/><path class="st13" d="M233.65,358.04c0,0,1.49-3.14,4.31-4.09c2.82-0.96,5.91,0.63,5.91,0.63s-2.42,2.67-4.39,3.32
		C237.48,358.55,233.65,358.04,233.65,358.04z"/><path class="st8" d="M233.32,375.07c4.75-1.34,4.92-5.9,4.92-5.9s-0.66,0.79-2.37-0.02c0,0-2.61-1.29-3.87,1.51l-0.01-0.06
		c-2.53-1.73-4.07,0.78-4.07,0.78c-1.04,1.57-1.86,1.21-1.86,1.21s2.5,3.82,7.25,2.48L233.32,375.07z"/><path d="M240.76,356.67c0.38-1.09-0.2-2.29-1.29-2.67c-1.09-0.38-2.29,0.2-2.67,1.29c-0.38,1.09,0.2,2.29,1.29,2.67
		C239.18,358.34,240.38,357.77,240.76,356.67z"/><path class="st12" d="M205.36,357.65v-19.54c0-8.86,7.19-16.05,16.05-16.05h14.27c8.86,0,16.05,7.19,16.05,16.05v19.54h-4.7v-14.29
		h-36.96v14.29H205.36z"/><ellipse class="st7" cx="207.91" cy="359.18" rx="6.19" ry="6.19"/><ellipse class="st7" cx="249.17" cy="359.18" rx="6.19" ry="6.19"/><path class="st6" d="M199.44,358.21c0-0.94,0.67-1.72,1.56-1.9c-0.07-0.21-0.12-0.42-0.12-0.66c0-1.07,0.87-1.93,1.93-1.93
		s1.93,0.87,1.93,1.93c0,0.94-0.67,1.72-1.56,1.9c0.07,0.21,0.12,0.42,0.12,0.66c0,0.42-0.13,0.8-0.36,1.12
		c0.4,0.35,0.65,0.86,0.65,1.44c0,1.07-0.87,1.93-1.93,1.93c-1.07,0-1.93-0.87-1.93-1.93c0-0.42,0.13-0.8,0.36-1.12
		C199.69,359.29,199.44,358.78,199.44,358.21z"/><path d="M233.65,358.04c0,0,2.28-7.1,12.85-4.4l-2.82,1.3C241.47,354.52,237.41,354.28,233.65,358.04z"/><path class="st13" d="M233.65,358.04c0,0,1.49-3.14,4.31-4.09c2.82-0.96,5.91,0.63,5.91,0.63s-2.42,2.67-4.39,3.32
		C237.48,358.55,233.65,358.04,233.65,358.04z"/><path d="M240.76,356.67c0.38-1.09-0.2-2.29-1.29-2.67c-1.09-0.38-2.29,0.2-2.67,1.29c-0.38,1.09,0.2,2.29,1.29,2.67
		C239.18,358.34,240.38,357.77,240.76,356.67z"/><path d="M233.65,358.04c0,0,2.28-7.1,12.85-4.4l-2.82,1.3C241.47,354.52,237.41,354.28,233.65,358.04z"/><path class="st13" d="M223.68,358.04c0,0-1.49-3.14-4.31-4.09c-2.82-0.96-5.91,0.63-5.91,0.63s2.42,2.67,4.39,3.32
		C219.85,358.55,223.68,358.04,223.68,358.04z"/><path d="M216.57,356.67c-0.38-1.09,0.2-2.29,1.29-2.67c1.09-0.38,2.29,0.2,2.67,1.29c0.38,1.09-0.2,2.29-1.29,2.67
		C218.14,358.34,216.95,357.77,216.57,356.67z"/><path d="M223.68,358.04c0,0-2.28-7.1-12.85-4.4l2.82,1.3C215.86,354.52,219.92,354.28,223.68,358.04z"/><rect x="212.55" y="357.65" class="st7" width="32.32" height="4.56"/></g><g id="Banner"><path class="st4" d="M1140.53,793.53h-84.91c-9.93,0-17.98,8.05-17.98,17.98V824h120.86v-12.49
		C1158.51,801.58,1150.46,793.53,1140.53,793.53z"/><path class="st8" d="M1097.67,709.18V440.85c0-48.83-27.43-93.52-70.96-115.63l-32.67-16.6v388.83c0,6.48,5.25,11.73,11.73,11.73
		H1097.67z"/><path class="st4" d="M1097.67,812.46c-2.07,0-3.75-1.68-3.75-3.75V440.85c0-23.27-6.43-46.04-18.6-65.87
		c-12.17-19.83-29.56-35.88-50.31-46.42l-32.67-16.6c-1.85-0.94-2.58-3.2-1.65-5.04c0.94-1.85,3.2-2.58,5.04-1.65l32.67,16.6
		c21.98,11.16,40.41,28.17,53.3,49.18c12.89,21.01,19.71,45.15,19.71,69.8v367.85C1101.42,810.78,1099.74,812.46,1097.67,812.46z"/></g></svg>