<?xml version="1.0" encoding="utf-8"?><!--Generator: Adobe Illustrator 28.1.0, SVG Export Plug-In . SVG Version: 6.00 Build 0)--><svg version="1.1" xmlns="http://www.w3.org/2000/svg" xmlns:xlink="http://www.w3.org/1999/xlink" x="0px" y="0px" viewBox="0 0 1200 840" style="enable-background:new 0 0 1200 840;" xml:space="preserve"><style type="text/css">.st0{fill:#D8CBC5;}
	.st1{fill:#FFC6AD;}
	.st2{fill:#ED1E79;}
	.st3{fill:#3867C3;}
	.st4{fill:#F7E5CD;}
	.st5{fill:#BF7461;}
	.st6{fill:#A86554;}
	.st7{fill:#191414;}
	.st8{fill:#232144;}
	.st9{fill:#C6C6C6;}
	.st10{fill:#FFFFFF;}
	.st11{fill:#4B7CFE;}
	.st12{display:none;fill:none;stroke:#4B7CFE;stroke-width:4.5956;stroke-miterlimit:10;}
	.st13{fill:#D3E8F3;}
	.st14{fill:#84CED4;}
	.st15{fill:#FFBD7A;}
	.st16{fill:#FF6200;}
	.st17{fill:#F0A86B;}
	.st18{fill:#8F411F;}
	.st19{fill:#171111;}</style><g id="doctor"><path class="st0" d="M679.13,158.15c-1.38-18.32,12.35-34.28,30.67-35.67s34.28,12.35,35.67,30.67s-20.98,46.55-20.98,46.55
		S680.51,176.47,679.13,158.15z"/><path class="st1" d="M835.54,804.78l-51.09-503.28l14.84-0.36c41.97-1.02,76.37,14.21,74.13,60.57l3.87,443.08H835.54z"/><path class="st1" d="M722.04,804.78l59.37-505.8h-14.71c-41.6,0-72.11,16.77-68.78,63.55l-18.37,442.24H722.04z"/><path class="st2" d="M675.95,649.71h204.54c0,0-0.29-186.77,0-226.83c0.88-119.98-30.03-169.85-30.03-169.85H708.25L675.95,649.71z
		"/><rect x="672.83" y="809.61" class="st3" width="62.4" height="14.76"/><path class="st4" d="M704.03,778.13L704.03,778.13c-17.23,0-31.2,13.97-31.2,31.2v0.35h62.4v-0.35
		C735.23,792.09,721.26,778.13,704.03,778.13z"/><rect x="828.93" y="809.61" class="st3" width="62.4" height="14.76"/><path class="st4" d="M860.13,778.13L860.13,778.13c-17.23,0-31.2,13.97-31.2,31.2v0.35h62.4v-0.35
		C891.33,792.09,877.36,778.13,860.13,778.13z"/><circle class="st5" cx="819.2" cy="75.1" r="9.76"/><circle class="st5" cx="752.96" cy="75.07" r="9.76"/><path class="st6" d="M761.99,120.77v-15.56h48.24v15.56c0,13.32-10.8,24.12-24.12,24.12h0
		C772.78,144.88,761.99,134.09,761.99,120.77z"/><path class="st5" d="M754.04,88.52V42.08c0-14.37,11.65-26.03,26.03-26.03l11.89,0c14.37,0,26.03,11.65,26.03,26.03v46.44
		c0,14.37-11.65,26.03-26.03,26.03h-11.89C765.69,114.55,754.04,102.9,754.04,88.52z"/><path class="st7" d="M786.05,85.06c-1.26,0-2.55-0.6-3.87-1.81c-1.82-1.66-3.71,0.14-3.92,0.35l-0.91-0.9
		c1-1.02,3.49-2.41,5.69-0.4c2.64,2.41,4.36,1.39,5.57,0.23c1.38-1.32,3.69-1.94,6.05,0.28l-0.88,0.93
		c-2.01-1.9-3.54-0.99-4.28-0.29C788.38,84.53,787.23,85.06,786.05,85.06z"/><path class="st8" d="M788.55,93.97l-9.19,1.09c0.01-0.36,4.58,8.03,13.11,7.04c6.41-0.75,8.05-4.38,10.86-9.84l-9.1,1.07
		c-0.99,0.12-1.83,0.81-2.22,1.83l-0.29,0.76l-0.78-0.93C790.32,94.23,789.43,93.86,788.55,93.97z"/><path class="st9" d="M759.11,61.28h15.01c3.02,0,5.46-2.45,5.46-5.46V55.6h-15.01c-3.02,0-5.46,2.45-5.46,5.46V61.28z"/><path class="st9" d="M811.66,61.28h-15.01c-3.02,0-5.46-2.45-5.46-5.46V55.6h15.01c3.02,0,5.46,2.45,5.46,5.46V61.28z"/><path class="st9" d="M822.5,46.04C822.04,30.86,809.68,16,794.49,16h-14.52c-17,0-30.91,13.91-30.91,30.91v29.42h5.01V63.07
		c0-10.51,6.2-19.53,15.09-23.58l-4.61-7.98l2.93-1.69l5.43,9.4c1.26,2.19,2.74,4.25,4.53,6.03c5.07,5.04,12.05,8.15,19.77,8.15
		h18.46c1.19,2.99,2.36,6.25,2.36,9.67v13.26h5.01V53.41h6.7L822.5,46.04z"/><path class="st10" d="M793.92,73.01c0,0,2.33-4.91,6.75-6.41c4.42-1.5,9.26,0.98,9.26,0.98s-3.79,4.18-6.88,5.2
		C799.91,73.8,793.92,73.01,793.92,73.01z"/><path d="M805.03,70.86c0.6-1.71-0.31-3.58-2.02-4.18c-1.71-0.6-3.58,0.31-4.18,2.02c-0.6,1.71,0.31,3.58,2.02,4.18
		C802.57,73.48,804.43,72.58,805.03,70.86z"/><path d="M793.92,73.01c0,0,3.57-11.12,20.12-6.89l-4.42,2.04C806.16,67.5,799.81,67.12,793.92,73.01z"/><path class="st10" d="M777.93,73.01c0,0-2.33-4.91-6.75-6.41c-4.42-1.5-9.26,0.98-9.26,0.98s3.36,3.91,6.88,5.2
		C772.12,73.99,777.93,73.01,777.93,73.01z"/><path d="M766.82,70.86c-0.6-1.71,0.31-3.58,2.02-4.18c1.71-0.6,3.58,0.31,4.18,2.02c0.6,1.71-0.31,3.58-2.02,4.18
		C769.29,73.48,767.42,72.58,766.82,70.86z"/><path d="M777.93,73.01c0,0-3.57-11.12-20.12-6.89l4.41,2.04C765.69,67.5,772.04,67.12,777.93,73.01z"/><polygon class="st2" points="818.05,122.46 818.05,118.34 754.16,118.34 754.16,122.46 744.97,122.46 744.97,262.04 825.12,262.04 
		825.12,122.46 	"/><path class="st11" d="M785.51,150.91C785.51,150.91,785.51,150.91,785.51,150.91c-5.75,0-10.81-2.98-13.55-7.96l-0.12-0.22
		c-0.33-0.59-0.64-1.16-0.98-1.65L739.5,95.92l-0.09-0.2c-2.14-4.82-1.7-10.33,1.17-14.75c2.87-4.42,7.73-7.06,13-7.06v4.57
		c-3.72,0-7.15,1.86-9.17,4.98c-1.99,3.06-2.32,6.86-0.91,10.21l31.09,44.79c0.48,0.69,0.86,1.38,1.23,2.06l0.12,0.22
		c1.93,3.5,5.5,5.6,9.55,5.6c4.05,0,7.62-2.09,9.55-5.59l0.11-0.2c0.37-0.68,0.76-1.38,1.24-2.07l31.09-44.79
		c1.41-3.35,1.08-7.16-0.91-10.21c-2.03-3.12-5.46-4.98-9.17-4.98v-4.57c5.27,0,10.13,2.64,13.01,7.06
		c2.87,4.42,3.31,9.93,1.17,14.75l-0.21,0.38l-31.22,44.98c-0.35,0.5-0.66,1.06-0.99,1.66l-0.11,0.21
		C796.32,147.93,791.25,150.91,785.51,150.91z"/><path class="st0" d="M890.86,158.15c1.38-18.32-12.35-34.28-30.67-35.67s-34.28,12.35-35.67,30.67s20.98,46.55,20.98,46.55
		S889.48,176.47,890.86,158.15z"/><path class="st0" d="M720.48,266.26l-24.65-4.59c-12.47-2.32-21.29-13.53-20.61-26.2l3.87-81.94h60.99L720.48,266.26z"/><path class="st12" d="M754.58,72.14c-9.62,0-16.06,9.9-12.15,18.69l31.39,45.22c0.46,0.66,0.84,1.38,1.23,2.09
		c5,9.09,18.23,9.09,23.23,0c0.39-0.71,0.77-1.42,1.23-2.09l31.39-45.22c3.9-8.79-2.53-18.69-12.15-18.69"/><path class="st8" d="M764.43,122.07l-6.1,4.56l12.45,17.03c4.24,5.13,8.58,8.75,14.89,8.75s11.05-3.23,14.89-8.75l12.66-17
		l-6.06-4.62l-13.28,17.95c-2.12,2.83-4.73,4.81-8.22,4.81s-5.54-1.98-8.22-4.81L764.43,122.07z"/><path class="st0" d="M888.91,266.99l29.04-11.24c13.53-5.22,19.14-21.33,11.78-33.83l-41.92-80.35l-51.46,9.49L888.91,266.99z"/><polygon class="st0" points="685.64,498.68 711.73,122.39 754.23,122.39 782.68,194.43 781.34,498.68 	"/><polygon class="st0" points="889.75,498.68 857.03,122.39 818.07,122.39 789.66,194.43 791,498.68 	"/><polygon class="st4" points="782.68,194.5 754.23,122.39 740.81,122.39 741.81,170.65 759.5,180.97 782.25,290.74 	"/><polygon class="st4" points="831.49,122.39 818.07,122.39 789.62,194.5 790.08,290.74 811.01,182.01 830.49,170.65 	"/><g><g><path class="st2" d="M797.06,541.41c3.2,0,3.21-4.97,0-4.97C793.86,536.43,793.86,541.41,797.06,541.41L797.06,541.41z"/></g></g><polygon class="st5" points="909.69,219.21 885.61,210.17 883.03,252.22 912.21,246.65 	"/><path class="st5" d="M919.33,219.33L892.27,207c-2.47-1.06-5.33,0.07-6.39,2.54l-0.27,0.64c-1.06,2.47,0.07,5.33,2.54,6.39
		l36.45,15.74L919.33,219.33z"/></g><g id="table__x26__scale"><polygon class="st13" points="698.29,824.37 735.64,824.37 735.64,394.53 906.95,394.53 906.95,824.37 944.3,824.37 944.3,349.62 
		698.29,349.62 	"/><polygon class="st14" points="511.45,780.04 282.72,780.04 282.72,816.62 292.39,816.62 292.39,824.37 343.71,824.37 
		343.71,816.62 450.45,816.62 450.45,824.37 501.78,824.37 501.78,816.62 511.45,816.62 	"/><polygon class="st13" points="266.39,816.62 282.75,816.62 282.75,261.84 385.65,261.84 385.65,249.76 282.75,249.76 282.75,64.43 
		266.39,64.43 	"/><rect x="255.7" y="122.31" class="st14" width="37.74" height="30.4"/></g><g id="boy"><polygon class="st15" points="885.91,356.55 884.74,376.18 908.58,374.52 904.21,353.93 	"/><polygon class="st15" points="904.47,356.13 895.55,280.66 865.46,285.1 886.41,358.31 	"/><path class="st15" d="M879.76,390.26L879.76,390.26c1.66,1.08,3.88,0.6,4.96-1.07l11.66-18.07l-6.02-3.89l-11.66,18.08
		C877.63,386.97,878.1,389.18,879.76,390.26z"/><path class="st15" d="M882.74,404.55L882.74,404.55c1.27,1.52,3.53,1.72,5.05,0.44l12.12-10.17l-4.6-5.5l-12.12,10.17
		C881.67,400.77,881.47,403.03,882.74,404.55z"/><path class="st15" d="M882.03,400.88L882.03,400.88c1.48,1.31,3.75,1.17,5.06-0.31l10.47-11.86l-5.37-4.75l-10.47,11.86
		C880.41,397.3,880.55,399.56,882.03,400.88z"/><polygon class="st15" points="908.58,374.52 901.67,370.9 892.6,392.51 899.59,395.43 	"/><rect x="886.42" y="378.11" transform="matrix(0.438 -0.899 0.899 0.438 161.2671 1021.3539)" class="st15" width="22.28" height="7.17"/><path class="st15" d="M889.73,381.47c0,0,1.86-2.97,2.47-3.83c1.27-1.79,2.91-0.36,2.16,1.33c-0.48,1.09-2.26,4.57-3.43,7.21
		c4.75-4.48,13.54-10.32,13.54-10.32l-13.5-4.56L889.73,381.47z"/><polygon class="st15" points="886.82,217.88 895.83,282.67 866.19,287.88 849.22,222.13 	"/><polygon class="st15" points="756.02,357.12 756.9,376.77 733.18,374.51 737.77,354.22 	"/><polygon class="st15" points="737.48,356.41 747.55,281.1 777.57,286 755.49,358.87 	"/><path class="st15" d="M761.65,390.92L761.65,390.92c-1.68,1.05-3.89,0.54-4.94-1.14l-11.38-18.25l6.08-3.8l11.38,18.26
		C763.84,387.66,763.33,389.87,761.65,390.92z"/><path class="st15" d="M758.46,405.16L758.46,405.16c-1.29,1.5-3.56,1.66-5.05,0.37l-11.96-10.35l4.69-5.43l11.96,10.35
		C759.59,401.4,759.75,403.66,758.46,405.16z"/><path class="st15" d="M759.22,401.5L759.22,401.5c-1.5,1.29-3.76,1.11-5.05-0.39l-10.29-12.02l5.44-4.67l10.29,12.02
		C760.9,397.95,760.73,400.21,759.22,401.5z"/><polygon class="st15" points="733.18,374.51 739.83,371.83 748.13,392.51 741.45,395.18 	"/><rect x="733.12" y="378.11" transform="matrix(0.4241 0.9056 -0.9056 0.4241 774.243 -454.2026)" class="st15" width="22.28" height="7.17"/><path class="st15" d="M751.82,381.98c0,0-1.85-3.01-2.45-3.88c-1.24-1.81-2.86-0.39-2.14,1.31c0.46,1.09,2.19,4.6,3.32,7.26
		c-4.69-4.55-13.38-10.52-13.38-10.52l13.57-4.35L751.82,381.98z"/><polygon class="st15" points="757.25,218.45 747.24,283.1 776.8,288.77 794.78,223.28 	"/><polygon class="st15" points="854.6,508.29 865.08,275.42 825.43,275.42 826.06,508.29 	"/><polygon class="st15" points="788.46,493.93 777.53,275.42 817.17,275.42 817.17,493.93 	"/><path class="st16" d="M869.5,197.24c-0.12-0.01-0.23-0.01-0.35-0.02l0-0.05h-91.52l0,0.01c-0.45,0.01-0.9,0.02-1.36,0.06
		c-12.18,0.96-21.31,12-20.39,24.67c0.53,7.37,9.24,12.32,17.6,18.16l-1.63,65.25h98.81l1.34-65.25
		c8.16-5.81,17.37-11.08,17.89-18.16C890.81,209.25,881.68,198.2,869.5,197.24z"/><polygon class="st4" points="790.07,535.9 788.05,488.97 817.23,489.2 817.29,535.9 	"/><polygon class="st3" points="788.29,494.6 817.23,494.6 817.23,499.04 788.48,499.04 	"/><polygon class="st3" points="788.63,502 817.23,502 817.23,506.44 788.8,506.44 	"/><path class="st16" d="M785.79,534.23l0.79,16.41c-6.13,1.99-8.75,4.99-8.75,9.17h41.84v-25.58H785.79z"/><rect x="777.83" y="559.81" class="st3" width="41.84" height="9.21"/><ellipse class="st15" cx="796.46" cy="162.53" rx="7.63" ry="7.64"/><ellipse class="st15" cx="846.74" cy="162.53" rx="7.63" ry="7.64"/><path class="st17" d="M838.72,198.89v-25.03l-34.25-0.11v25.14c0,10.05,7.67,18.2,17.13,18.2l0,0
		C831.05,217.09,838.72,208.95,838.72,198.89z"/><path class="st15" d="M846.55,167.88v-23.94c0-13.67-11.08-24.75-24.75-24.75h-0.41c-13.67,0-24.75,11.08-24.75,24.75v23.94
		c0,13.67,11.08,24.75,24.75,24.75h0.41C835.47,192.62,846.55,181.54,846.55,167.88z"/><path d="M822.08,169.96c-0.85,0-1.53-0.46-2.12-0.87c-0.98-0.67-1.57-1.08-2.74,0.22l-0.77-0.84c1.79-1.97,3.06-1.09,4.08-0.38
		c0.52,0.36,1,0.69,1.54,0.69c0.56,0,1.02-0.31,1.5-0.64c0.97-0.65,2.18-1.47,4.19,0.36l-0.69,0.92c-1.41-1.28-2.01-0.88-2.93-0.26
		C823.58,169.53,822.94,169.96,822.08,169.96z"/><path d="M822.24,180.52c-4.69,0-8.06-3.02-8.11-3.07l0.8-0.87c0.28,0.25,6.9,6.15,14.37-0.02l0.75,0.91
		C827.29,179.75,824.6,180.52,822.24,180.52z"/><ellipse class="st18" cx="809.96" cy="149.94" rx="8.01" ry="2.17"/><ellipse class="st18" cx="833.62" cy="149.94" rx="8.01" ry="2.17"/><rect x="771.9" y="305.33" class="st3" width="98.81" height="44.21"/><path class="st11" d="M847.32,326.69L847.32,326.69c-13.05,0-23.64,10.58-23.64,23.64v121.89h49.05l-1.78-122.23
		C870.76,337.06,860.24,326.69,847.32,326.69z"/><path class="st11" d="M771.58,349.94l-2.57,122.27h50.06V350.44c0-13.11-10.63-23.75-23.75-23.75l0,0
		C782.4,326.69,771.85,337.02,771.58,349.94z"/><path class="st18" d="M796.06,125.66L796.06,125.66c0-5.21,4.22-9.43,9.43-9.43h32.33c5.21,0,9.43,4.22,9.43,9.43v0v14.33l0,0
		v15.66h-3.82l-0.01-8.22c0-3.22-2.27-5.91-5.3-6.54h-19.29c-3.63,0-6.57-2.94-6.57-6.57h-1.2c0,3.63-2.94,6.57-6.57,6.57h-4.61
		v14.24h-3.82V125.66z"/><ellipse transform="matrix(0.1294 -0.9916 0.9916 0.1294 546.4973 941.2617)" class="st10" cx="809.26" cy="159.42" rx="2.96" ry="5.75"/><ellipse transform="matrix(0.9909 -0.1349 0.1349 0.9909 -13.88 114.0412)" class="st10" cx="834.41" cy="159.42" rx="5.75" ry="2.96"/><path class="st8" d="M812.85,258.08c-6.53,0-12.92,1.87-18.33-2.19c-7.81-5.86-12.29-18.79-12.29-28.55v-79.33h7.62v79.33
		c0,7.34,3.37,18.05,9.24,22.46c5.87,4.4,13.28,5.75,20.34,3.69l2.14,7.31C818.68,261.64,815.75,258.08,812.85,258.08z"/><circle class="st11" cx="835.4" cy="241.22" r="12.13"/><path d="M810.37,159.55c0.48-1.01,0.33-2.15-0.28-2.99c-0.15-0.03-0.3-0.05-0.45-0.07c-1.81-0.24-3.48-0.01-4.61,0.53
		c-0.7,1.47-0.07,3.23,1.4,3.93C807.91,161.66,809.67,161.03,810.37,159.55z"/><path d="M834.73,157.01c-0.1-0.21-0.22-0.39-0.35-0.56c-0.12,0.01-0.24,0.02-0.36,0.04c-2.21,0.3-4.04,1.21-4.85,2.29
		c0.04,0.26,0.11,0.52,0.23,0.77c0.7,1.48,2.46,2.1,3.94,1.4C834.81,160.25,835.43,158.49,834.73,157.01z"/><polygon class="st4" points="853.1,535.9 854.9,502.66 826.06,502.44 826.06,535.9 	"/><polygon class="st3" points="854.6,508.29 826.06,508.29 826.06,512.73 854.37,512.73 	"/><polygon class="st3" points="854.21,515.69 826.06,515.69 826.06,520.13 853.96,520.13 	"/><path class="st16" d="M857.17,534.23l-0.05,16.41c6.13,1.99,8.01,4.99,8.01,9.17h-41.84v-25.58H857.17z"/><rect x="823.29" y="559.81" class="st3" width="41.84" height="9.21"/></g><g id="doctor_x27_s_hands"><polygon class="st5" points="797.19,241.71 833.46,241.22 831.73,276.5 794.65,269.2 	"/><path class="st5" d="M814.61,266.44l36.43,6.77c2.51,0.47,4.16,2.87,3.69,5.38l-0.12,0.65c-0.47,2.51-2.87,4.16-5.38,3.69
		l-59.6-11.08L814.61,266.44z"/><path class="st5" d="M711.43,215.79l90.91,29.02l-2.9,28.17l-97.91-13.19c-13.5-1.82-22.35-15.07-18.86-28.23v0
		C685.99,219.04,699.1,211.86,711.43,215.79z"/><path class="st5" d="M824.11,251.01l42.39,6.01c2.52,0.36,4.28,2.69,3.92,5.22l-0.09,0.65c-0.36,2.52-2.69,4.28-5.22,3.92
		l-42.39-6.01L824.11,251.01z"/><path class="st5" d="M822.36,241.79l40.74,5.78c2.52,0.36,4.28,2.69,3.92,5.22l-0.09,0.65c-0.36,2.52-2.69,4.28-5.22,3.92
		l-40.74-5.78L822.36,241.79z"/><path class="st5" d="M796.56,244.67l36.45-15.74c2.47-1.06,5.33,0.07,6.39,2.54l0.27,0.64c1.06,2.47-0.07,5.33-2.54,6.39
		l-36.45,15.74L796.56,244.67z"/><path class="st5" d="M822.22,260.13l36.69,5.2c2.52,0.36,4.28,2.69,3.92,5.22l-0.09,0.65c-0.36,2.52-2.69,4.28-5.22,3.92
		l-36.69-5.2L822.22,260.13z"/><path class="st0" d="M795.92,230.36L790,279.25l-85.73-14.78c-16.81-2.9-27.29-19.85-22.37-36.18v0
		c4.43-14.7,19.73-23.22,34.56-19.25L795.92,230.36z"/><path class="st5" d="M921.94,237.65l-36.43,6.77c-2.51,0.47-4.16,2.87-3.69,5.38l0.12,0.65c0.47,2.51,2.87,4.16,5.38,3.69
		l25.96-4.25L921.94,237.65z"/><path class="st5" d="M912.11,222.27l-41.74,5.92c-2.7,0.38-4.58,2.89-4.2,5.59v0c0.38,2.7,2.89,4.58,5.59,4.2l41.74-5.92
		c0.18-0.03,0.3-0.19,0.28-0.37l-1.3-9.14C912.46,222.36,912.29,222.24,912.11,222.27z"/><path class="st5" d="M913.48,213.69l-46.8,5.05c-2.7,0.38-4.58,2.89-4.2,5.59v0c0.38,2.7,2.89,4.58,5.59,4.2l40.09-5.68
		c0.18-0.03,0.3-0.19,0.28-0.37L913.48,213.69z"/><path class="st5" d="M914,231.39l-36.03,5.11c-2.7,0.38-4.58,2.89-4.2,5.59v0c0.38,2.7,2.89,4.58,5.59,4.2l36.03-5.11
		c0.18-0.03,0.3-0.19,0.28-0.37l-1.3-9.14C914.35,231.49,914.18,231.37,914,231.39z"/><path class="st5" d="M906.32,215.13l6.95,34.76l5.58-1.48c5.78-1.53,9.45-7.18,8.51-13.08l-1.91-11.92
		c-1.07-6.71-7.64-11.07-14.24-9.47L906.32,215.13z"/><circle class="st8" cx="835.4" cy="241.22" r="8.24"/></g><g id="girl"><rect x="329.53" y="502.78" transform="matrix(0.4241 0.9056 -0.9056 0.4241 653.781 -16.1234)" class="st15" width="20.07" height="6.46"/><path class="st15" d="M346.38,506.27c0,0-1.51-2.61-2.05-3.4c-1.12-1.63-2.74-0.45-2.09,1.08c0.42,0.98,1.97,4.15,2.99,6.54
		c-4.22-4.1-12.06-9.48-12.06-9.48l12.23-3.92L346.38,506.27z"/><polygon class="st15" points="472.74,483.93 471.95,501.63 493.32,499.59 489.19,481.31 	"/><polygon class="st15" points="489.45,483.29 480.37,415.43 453.32,419.85 473.22,485.5 	"/><path class="st15" d="M467.67,514.38L467.67,514.38c1.51,0.95,3.51,0.48,4.45-1.03l10.25-16.44l-5.48-3.42l-10.26,16.45
		C465.7,511.45,466.16,513.43,467.67,514.38z"/><path class="st15" d="M470.55,527.21L470.55,527.21c1.17,1.35,3.2,1.5,4.55,0.33l10.77-9.33l-4.22-4.89l-10.77,9.33
		C469.53,523.82,469.38,525.86,470.55,527.21z"/><path class="st15" d="M469.85,523.91L469.85,523.91c1.35,1.16,3.39,1,4.55-0.35l9.27-10.83l-4.9-4.21l-9.27,10.83
		C468.34,520.71,468.5,522.75,469.85,523.91z"/><polygon class="st15" points="493.32,499.59 487.33,497.18 479.85,515.81 485.87,518.22 	"/><rect x="473.3" y="502.83" transform="matrix(0.4241 -0.9056 0.9056 0.4241 -179.9552 729.1243)" class="st15" width="20.07" height="6.46"/><path class="st15" d="M476.53,506.32c0,0,1.66-2.67,2.19-3.45c1.12-1.63,2.59-0.39,1.94,1.14c-0.42,0.98-1.97,4.15-2.99,6.54
		c4.22-4.1,12.06-9.48,12.06-9.48l-12.23-3.92L476.53,506.32z"/><polygon class="st15" points="471.63,358.99 480.65,417.24 454.02,422.34 437.82,363.35 	"/><polygon class="st15" points="350.17,483.88 350.95,501.57 329.58,499.54 333.72,481.26 	"/><polygon class="st15" points="333.46,483.23 342.53,415.38 369.58,419.8 349.69,485.45 	"/><path class="st15" d="M355.24,514.33L355.24,514.33c-1.51,0.95-3.51,0.48-4.45-1.03l-10.25-16.44l5.48-3.42l10.26,16.45
		C357.21,511.39,356.75,513.38,355.24,514.33z"/><path class="st15" d="M352.36,527.16L352.36,527.16c-1.17,1.35-3.2,1.5-4.55,0.33l-10.77-9.33l4.22-4.89l10.77,9.33
		C353.38,523.77,353.52,525.81,352.36,527.16z"/><path class="st15" d="M353.05,523.86L353.05,523.86c-1.35,1.16-3.39,1-4.55-0.35l-9.27-10.83l4.9-4.21l9.27,10.83
		C354.56,520.66,354.4,522.7,353.05,523.86z"/><polygon class="st15" points="351.27,358.94 342.25,417.18 368.89,422.29 385.08,363.29 	"/><polygon class="st15" points="381.69,713.4 371.84,518.53 407.56,518.53 407.56,713.4 	"/><polygon class="st15" points="440.87,717.39 450.72,518.53 415,518.53 415,717.39 	"/><polygon class="st16" points="383.52,750.27 378.62,652.99 407.56,652.99 407.48,750.27 	"/><path class="st4" d="M380.74,749.42l0.31,16.52c-5.52,2.09-9.85,6.16-9.85,10.54h37.7l0-27.07H380.74z"/><rect x="371.19" y="776.49" class="st11" width="37.7" height="3.74"/><polygon class="st2" points="439.4,750.27 441.3,708.32 415,708.13 414.87,750.27 	"/><path class="st4" d="M442.17,749.42l-0.31,16.52c5.52,2.09,9.85,6.16,9.85,10.54h-37.7l0-27.07H442.17z"/><rect x="414.01" y="776.49" class="st11" width="37.7" height="3.74"/><path class="st11" d="M367.45,340.27c-10.71,0-19.39,8.68-19.39,19.39c0,0.44,0.04,0.87,0.07,1.3
		c-6.25,3.22-10.53,9.72-10.53,17.23c0,6.57,3.28,12.37,8.28,15.88c0.92,7.74,7.49,13.98,15.74,13.98h11.73v36.68h76.22v-36.68
		h11.52c8.16,0,14.68-6.11,15.71-13.74c5.19-3.48,8.61-9.4,8.61-16.12c0-7.51-4.28-14.01-10.53-17.23c0.03-0.43,0.07-0.86,0.07-1.3
		c0-10.71-8.68-19.39-19.39-19.39H367.45z"/><polygon class="st2" points="371.84,340.27 378.92,340.27 378.92,372.29 443.98,372.29 443.98,340.27 451.06,340.27 450.65,400.56 
		471.41,556.51 351.03,556.51 372.15,397.86 	"/><path class="st19" d="M390.19,349.72l-7.5-7.5c-6.97-6.97-6.97-18.27,0-25.24l7.5-7.5l7.5,7.5c6.97,6.97,6.97,18.27,0,25.24
		L390.19,349.72z"/><path class="st19" d="M430.93,349.72l-7.5-7.5c-6.97-6.97-6.97-18.27,0-25.24l7.5-7.5l7.5,7.5c6.97,6.97,6.97,18.27,0,25.24
		L430.93,349.72z"/><ellipse class="st15" cx="433.59" cy="309.19" rx="6.83" ry="6.84"/><ellipse class="st15" cx="387.26" cy="309.17" rx="6.83" ry="6.84"/><path class="st17" d="M425.85,340.63v-22.55l-30.86-0.1v22.65c0,9.06,6.91,16.4,15.43,16.4h0
		C418.94,357.03,425.85,349.68,425.85,340.63z"/><path class="st15" d="M388.06,314.38v-21.99c0-12.23,9.92-22.15,22.15-22.15h0.41c12.23,0,22.15,9.92,22.15,22.15v21.99
		c0,12.23-9.92,22.15-22.15,22.15h-0.41C397.98,336.53,388.06,326.62,388.06,314.38z"/><path class="st10" d="M403.28,308.05c0.95-0.13,1.39-1.23,0.82-2c-0.82-1.11-2.13-2.48-3.91-3.1c-1.92-0.67-3.95-0.31-5.28,0.09
		c-0.85,0.25-1.17,1.28-0.63,1.98c0.72,0.92,1.9,2.06,3.65,2.67C399.76,308.34,401.83,308.25,403.28,308.05z"/><path class="st10" d="M418.15,308.05c-0.95-0.13-1.39-1.23-0.82-2c0.82-1.11,2.13-2.48,3.91-3.1c1.92-0.67,3.95-0.31,5.28,0.09
		c0.85,0.25,1.17,1.28,0.63,1.98c-0.72,0.92-1.9,2.06-3.65,2.67C421.66,308.34,419.59,308.25,418.15,308.05z"/><path d="M403.76,305.63c-0.82-1.01-2.02-2.13-3.57-2.67c-0.02-0.01-0.04-0.01-0.06-0.02c-0.96,0.4-1.63,1.34-1.63,2.44
		c0,1.46,1.18,2.65,2.64,2.65C402.52,308.03,403.64,306.97,403.76,305.63z"/><path d="M404.35,306.54c-1.81-4.39-6.39-5.35-10.54-3.5c0.28,0.44,0.13,0.12,0.41,0.56c0.65-0.39,3-1.11,5.58-0.41
		C402.68,303.98,403.95,306.2,404.35,306.54z"/><path d="M424,302.74c-1.46,0-2.64,1.18-2.64,2.65c0,1.11,0.69,2.06,1.66,2.45c0.16-0.04,0.32-0.09,0.48-0.14
		c1.38-0.48,2.39-1.29,3.12-2.06c0.01-0.08,0.02-0.16,0.02-0.25C426.64,303.93,425.46,302.74,424,302.74z"/><path d="M417.08,306.54c1.81-4.39,6.39-5.35,10.54-3.5c-0.28,0.44-0.13,0.12-0.41,0.56c-0.65-0.39-3-1.11-5.58-0.41
		C418.74,303.98,417.48,306.2,417.08,306.54z"/><path d="M410.39,314.78c-0.77,0-1.37-0.42-1.91-0.79c-0.88-0.61-1.41-0.97-2.47,0.19l-0.69-0.76c1.61-1.77,2.76-0.98,3.68-0.34
		c0.46,0.32,0.9,0.62,1.39,0.62c0.5,0,0.91-0.28,1.35-0.57c0.88-0.59,1.96-1.32,3.77,0.32l-0.62,0.83
		c-1.27-1.16-1.81-0.79-2.64-0.23C411.75,314.39,411.17,314.78,410.39,314.78z"/><path class="st19" d="M416.48,268.73h-12.12c-10.79,0-19.53,8.75-19.53,19.55v14.84h3.49v-3.57c0-4.78,4.78-7.44,9.75-8.91
		c6.53-1.93,11.03-7.9,11.03-14.71v0h2.63v0c0,6.81,4.5,12.78,11.03,14.71c4.97,1.47,9.75,4.13,9.75,8.91v3.57h3.49v-14.84
		C436.01,277.49,427.27,268.73,416.48,268.73z"/><path d="M410.64,325.41c0,0-0.01,0-0.01,0c-3.3-0.01-6.05-2.28-6.17-2.38l0.68-0.82c0.03,0.02,2.58,2.12,5.48,2.13
		c0,0,0.01,0,0.01,0c3,0,4.99-2.07,5.01-2.09l0.77,0.73C416.33,323.09,414.11,325.41,410.64,325.41z"/><path class="st19" d="M390.19,374.39l-6.3-6.3c-5.86-5.86-5.86-15.35,0-21.21l6.3-6.3l6.3,6.3c5.86,5.86,5.86,15.35,0,21.21
		L390.19,374.39z"/><path class="st19" d="M390.19,390.44l-3.92-3.92c-3.64-3.64-3.64-9.55,0-13.2l3.92-3.92l3.92,3.92c3.64,3.64,3.64,9.55,0,13.2
		L390.19,390.44z"/><path class="st19" d="M430.93,374.39l-6.3-6.3c-5.86-5.86-5.86-15.35,0-21.21l6.3-6.3l6.3,6.3c5.86,5.86,5.86,15.35,0,21.21
		L430.93,374.39z"/><path class="st19" d="M430.93,390.44l-3.92-3.92c-3.64-3.64-3.64-9.55,0-13.2l3.92-3.92l3.92,3.92c3.64,3.64,3.64,9.55,0,13.2
		L430.93,390.44z"/><path class="st2" d="M435.74,303.12h-2.62v-10.99c0-9.03-7.34-16.37-16.37-16.37h-12.61c-9.03,0-16.37,7.34-16.37,16.37v10.99
		h-2.62v-10.99c0-10.47,8.52-18.99,18.99-18.99h12.61c10.47,0,18.99,8.52,18.99,18.99V303.12z"/><circle class="st2" cx="421.25" cy="277.62" r="3.54"/><circle class="st2" cx="431.41" cy="282.77" r="3.54"/><circle class="st2" cx="426.23" cy="272.62" r="3.54"/><circle class="st2" cx="432.53" cy="275.77" r="3.54"/><circle class="st2" cx="424.41" cy="283.91" r="3.54"/><circle class="st4" cx="427.21" cy="278.55" r="5.01"/><rect x="414.44" y="296.85" class="st19" width="14.23" height="2.38"/><rect x="392.06" y="293.34" class="st19" width="14.23" height="2.38"/><rect x="326.25" y="504.41" transform="matrix(0.3735 0.9276 -0.9276 0.3735 681.6116 6.1089)" class="st15" width="20.07" height="6.46"/></g></svg>