<?xml version="1.0" encoding="utf-8"?><!--Generator: Adobe Illustrator 27.8.0, SVG Export Plug-In . SVG Version: 6.00 Build 0)--><svg version="1.1" xmlns="http://www.w3.org/2000/svg" xmlns:xlink="http://www.w3.org/1999/xlink" x="0px" y="0px" viewBox="0 0 1200 840" style="enable-background:new 0 0 1200 840;" xml:space="preserve"><style type="text/css">.st0{fill:#BAC09A;}
	.st1{fill:#01464D;}
	.st2{fill:#F7E5CD;}
	.st3{fill:#232144;}
	.st4{fill:#F0A86B;}
	.st5{fill:#E3944F;}
	.st6{fill:#010101;}
	.st7{fill:#FFFFFF;}
	.st8{fill:#F7931E;}
	.st9{fill:#693725;}
	.st10{fill:#9E3F39;}
	.st11{fill:#C6C6C6;}
	.st12{fill:#5D2B1A;}
	.st13{fill:#171111;}
	.st14{fill:#420F0F;}
	.st15{fill:none;}
	.st16{fill:#B0C2E4;}
	.st17{display:none;fill:#693725;}
	.st18{fill:#F5B091;}
	.st19{fill:#FFC6AD;}
	.st20{fill-rule:evenodd;clip-rule:evenodd;fill:#FFC6AD;}
	.st21{fill:#1D1D1B;}
	.st22{fill:#891229;}
	.st23{fill:#76341E;}</style><g id="man"><polygon class="st0" points="841.11,319.84 768.2,333.46 759.86,792.77 841.11,792.77 	"/><rect x="771.62" y="809.94" class="st1" width="58.6" height="13.95"/><path class="st2" d="M830.22,809.94c0-14.14-13.12-24.14-29.3-24.14c-16.18,0-29.3,10-29.3,24.14H830.22z"/><rect x="911.52" y="809.94" class="st1" width="102.78" height="13.95"/><path class="st2" d="M911.52,809.94v-21.43l3.39,1.11c14.36,4.7,30.07,2.83,42.92-5.12l1.53-0.95l46.55,13.91
		c4.98,1.51,8.38,7.26,8.38,12.47l0,0H911.52z"/><polygon class="st0" points="849.99,380.83 921.58,345.44 989.2,792.77 908.16,792.77 	"/><polygon class="st0" points="771.24,382.21 771.24,308.67 919.65,308.67 918.86,382.66 	"/><polygon class="st2" points="908.16,135.58 864.18,123.86 816.31,123.87 765.65,135.58 765.65,313.3 908.16,313.3 908.16,135.58 	
		"/><path class="st1" d="M946.59,228.78c-0.26-16.12,4.18-41.17,0.97-56.97l0,0c-4.84-33.87-29.46-36.24-29.46-36.24l-14.85,53.77
		L946.59,228.78z"/><polygon class="st1" points="848.13,415.43 937.9,415.43 918.36,135.58 864.18,123.86 	"/><polygon class="st1" points="831.02,415.43 754.5,415.43 759.2,135.89 816.31,123.87 	"/><path class="st1" d="M733.11,170.6c-1.37-18.14,12.23-33.96,30.38-35.33s33.96,12.23,35.33,30.38s-20.79,46.11-20.79,46.11
		S734.48,188.74,733.11,170.6z"/><path class="st1" d="M733.42,162.22l-11.6,91.69c-1.48,11.73,1.56,23.58,8.5,33.14l26.32,36.25l40.39-153.26L733.42,162.22z"/><path class="st1" d="M944.01,158.13l-48.78,28.93l22.06,74.5l0,0l-33.4,76.04l37.09,30.78l52.51-92.76
		c4.75-7.72,5.6-17.21,2.32-25.65L944.01,158.13z"/><polygon class="st0" points="848.13,415.43 887.92,203.32 876.29,182.39 891.2,182.39 883.72,127.9 864.18,123.86 	"/><polygon class="st0" points="831.02,415.43 793.89,203.32 805.52,182.39 790.61,182.39 798.12,127.61 816.31,123.87 	"/><path class="st3" d="M874.56,81.33h-68.34V39.17c0-10.8,8.75-19.55,19.55-19.55h29.24c10.8,0,19.55,8.75,19.55,19.55V81.33z"/><circle class="st4" cx="808.3" cy="78.17" r="9.74"/><circle class="st4" cx="872.46" cy="78.17" r="9.74"/><path class="st5" d="M864.43,134.92V97.37l-48.1-0.14v37.69c0,9.78,7.92,17.7,17.7,17.7h12.7
		C856.51,152.62,864.43,144.7,864.43,134.92z"/><path class="st4" d="M872.56,92.63V49.35c0-14.64-11.87-26.51-26.51-26.51H834.7c-14.64,0-26.51,11.87-26.51,26.51v43.28
		c0,14.64,11.87,26.51,26.51,26.51h11.36C860.7,119.14,872.56,107.27,872.56,92.63z"/><path class="st6" d="M839.53,87.79c-1.5,0-2.69-0.74-3.74-1.4c-1.72-1.08-2.76-1.73-4.83,0.35l-1.35-1.35
		c3.15-3.15,5.39-1.74,7.2-0.61c0.91,0.57,1.77,1.11,2.72,1.11c0.98,0,1.79-0.5,2.65-1.02c1.71-1.05,3.84-2.36,7.38,0.58l-1.22,1.47
		c-2.48-2.06-3.55-1.41-5.16-0.42C842.18,87.1,841.05,87.79,839.53,87.79z"/><path d="M840.39,101.91c-0.83,0-1.36-0.05-1.44-0.06l0.18-1.8c0.07,0.01,7.54,0.67,12.25-3.67l1.23,1.33
		C848.57,101.43,843,101.91,840.39,101.91z"/><path class="st3" d="M834.64,61.62v-2.7c0-1.76-1.43-3.18-3.18-3.18h-13.49c-1.74,0-3.16,1.41-3.16,3.16v2.7
		c0,0.02,0.01,0.03,0.03,0.03H834.64z"/><path class="st3" d="M865.14,65.72v-2.7c0-1.76-1.43-3.18-3.18-3.18h-13.49c-1.74,0-3.16,1.41-3.16,3.16v2.7
		c0,0.02,0.01,0.03,0.03,0.03H865.14z"/><path class="st3" d="M811.67,92.59h-5.45v-52.9c0-3.01,2.44-5.45,5.45-5.45l0,0V92.59z"/><path class="st3" d="M873.88,92.59h-4.22c-0.34,0-0.62-0.28-0.62-0.62V34.85c0-0.34,0.28-0.62,0.62-0.62l0,0
		c2.67,0,4.84,2.17,4.84,4.84v52.9C874.5,92.31,874.23,92.59,873.88,92.59z"/><path class="st3" d="M865.09,45.06h-49.41V32.21c0-5.62,4.56-10.18,10.18-10.18h29.05c5.62,0,10.18,4.56,10.18,10.18V45.06z"/><path class="st7" d="M849.87,72.97c0.39,1.94,3.9,2.88,7.83,2.09c3.93-0.79,6.81-3,6.41-4.94c-0.39-1.94-3.9-2.88-7.83-2.09
		C852.35,68.82,849.48,71.03,849.87,72.97"/><path d="M853.32,71.55c0,1.98,1.61,3.59,3.6,3.59c1.99,0,3.6-1.61,3.6-3.59s-1.61-3.59-3.6-3.59
		C854.93,67.96,853.32,69.57,853.32,71.55"/><path class="st7" d="M830.96,72.97c-0.39,1.94-3.9,2.88-7.83,2.09c-3.93-0.79-6.81-3-6.41-4.94c0.39-1.94,3.9-2.88,7.83-2.09
		C828.48,68.82,831.35,71.03,830.96,72.97"/><path d="M827.36,71.55c0,1.98-1.61,3.59-3.6,3.59c-1.99,0-3.6-1.61-3.6-3.59s1.61-3.59,3.6-3.59
		C825.75,67.96,827.36,69.57,827.36,71.55"/><rect x="818.21" y="263.13" class="st8" width="46.18" height="68.82"/><polygon class="st3" points="825.24,268.95 810.01,124.5 815.67,122.92 830.89,268.36 	"/><polygon class="st3" points="855.68,268.95 850.03,268.36 865.26,122.92 870.91,124.5 	"/><rect x="829.47" y="273.31" class="st2" width="22.63" height="25.27"/><rect x="825.03" y="304.81" class="st2" width="32.54" height="7.27"/><rect x="825.03" y="314.51" class="st2" width="32.54" height="7.27"/></g><g id="woman_middle"><path class="st9" d="M568.4,150.83h5.71h6.93h5.71c2.99,0,5.41-2.42,5.41-5.41v0c0-2.99-2.42-5.41-5.41-5.41h-5.71h-6.93h-5.71
		c-2.99,0-5.41,2.42-5.41,5.41v0C562.99,148.4,565.41,150.83,568.4,150.83z"/><polygon class="st9" points="484.58,313.98 467.05,370.5 441.01,366.12 450.72,308.06 	"/><polygon class="st9" points="466.54,364.27 470.72,392.32 435.1,387.92 442.09,360.74 	"/><path class="st9" d="M471.47,435.17L471.47,435.17c-2.04,2.18-5.46,2.3-7.64,0.27l-17.44-16.27l7.37-7.9l17.44,16.27
		C473.38,429.57,473.5,432.98,471.47,435.17z"/><path class="st9" d="M472.83,429.7L472.83,429.7c-2.34,1.86-5.74,1.47-7.59-0.87l-14.83-18.68l8.46-6.72l14.83,18.68
		C475.56,424.44,475.17,427.84,472.83,429.7z"/><polygon class="st9" points="435.1,387.92 445.26,383.92 456.61,415.52 446.44,419.18 	"/><rect x="434.6" y="393.61" transform="matrix(0.3895 0.921 -0.921 0.3895 643.0833 -172.1454)" class="st9" width="33.58" height="10.81"/><path class="st9" d="M462.77,399.87c0,0-2.08-4.53-2.94-5.88c-1.77-2.8-4.83-0.85-3.84,1.76c0.64,1.67,3.04,7.06,4.59,11.12
		c-6.81-7.12-19.58-16.6-19.58-16.6l20.7-5.79L462.77,399.87z"/><polygon class="st10" points="561.48,749.9 566.97,793.32 523.05,793.32 527.05,750.17 	"/><polygon class="st8" points="564.4,772.22 525,772.22 521.83,805.16 526.4,823.88 563.84,823.88 568.41,805.16 	"/><path class="st10" d="M565.03,777.48l-11.01,14.31c-4.52,5.88-13.37,5.95-17.99,0.15l-11.51-14.46l1.51-16.27h36.89L565.03,777.48z
		"/><polygon class="st10" points="643.67,714.42 655.05,765.27 690.17,810.5 713.65,801.62 688.96,744.6 686.53,714.42 	"/><path class="st8" d="M685.11,818.07c2.51,3.64,6.65,5.81,11.08,5.81h48.52c2.34,0,4.24-1.9,4.24-4.24v0c0-1.66-0.97-3.17-2.48-3.86
		l-33.32-15.21l0,0c-11.67,3.56-24.28-1.03-30.94-11.25l-29.12-44.73l-5.33,7.13c-6.03,8.08-5.25,17.15-5.25,28.21l0,0v43.94h12.04
		v-37.22c0-1.74,1.41-3.14,3.14-3.14l0,0c0.99,0,1.92,0.47,2.52,1.26L685.11,818.07z"/><polygon class="st2" points="427.39,329.82 475.4,154.72 558.13,185.27 485.82,372.21 	"/><polygon class="st2" points="702.34,258.08 673.52,154.18 590.49,180.33 641.29,280.68 	"/><polygon class="st2" points="508.45,264.88 507.67,127.11 641.29,127.11 639.35,264.88 	"/><path class="st1" d="M568.48,757.31l-43.95-1.01c-35.36-0.81-62.88-30.97-60.46-66.25l22.97-329.7
		c7.4-64.21,25.93-95.66,25.93-95.66h121.28c0,0,15.1,16.73,23.69,61.1l0,0l65.66,347.31c6.96,34.67-16.43,68.14-51.39,73.52
		L568.48,757.31z"/><path class="st2" d="M475.09,162.41c-1.36-18.08,12.19-33.84,30.27-35.2c18.08-1.36,33.84,12.19,35.2,30.27
		c1.36,18.08-20.71,45.94-20.71,45.94S476.45,180.49,475.09,162.41z"/><path class="st2" d="M674.01,162.41c1.36-18.08-12.19-33.84-30.27-35.2c-18.08-1.36-33.84,12.19-35.2,30.27
		c-1.36,18.08,20.71,45.94,20.71,45.94S672.65,180.49,674.01,162.41z"/><path class="st9" d="M644.86,278.5l-61.02-105.28l11.97-33.06l89.68,114.26c8.45,12.95,3.77,30.14-9.78,35.9
		C664.33,295.17,650.89,290.01,644.86,278.5"/><path class="st2" d="M697.46,247.86l-61.41-86.06l-52.94,42.83l59.18,82.66c11.54,16.12,34.38,18.95,49.5,6.13l0,0
		C705.23,282.03,707.7,262.22,697.46,247.86z"/><rect x="538.69" y="61.83" class="st11" width="71.54" height="33.71"/><path class="st12" d="M550.94,130.95v-35.1l47.08,0.14v34.96c0,13-10.54,23.54-23.54,23.54h0
		C561.48,154.49,550.94,143.95,550.94,130.95z"/><polygon class="st3" points="554.93,186.49 586.53,186.24 590.56,128.47 549.75,128.8 	"/><polygon class="st8" points="549.82,124.26 549.77,118.26 590.67,117.93 590.72,123.93 594.25,123.9 594.29,129.14 546.33,129.52 
		546.29,124.29 	"/><path class="st9" d="M543.28,92.35V48.41c0-13.89,11.26-25.15,25.15-25.15h12.1c13.89,0,25.15,11.26,25.15,25.15v43.94
		c0,13.89-11.26,25.15-25.15,25.15h-12.1C554.54,117.5,543.28,106.24,543.28,92.35z"/><path class="st13" d="M574.37,88.55c-0.36,0-0.73-0.04-1.11-0.12c-1.08-0.22-2.1-0.77-3.05-1.65c-0.5-0.47-1-0.67-1.53-0.62
		c-1.03,0.09-1.85,1.14-1.86,1.15l-1-0.75c0.05-0.06,1.15-1.5,2.75-1.64c0.88-0.08,1.72,0.24,2.49,0.95
		c0.77,0.72,1.6,1.17,2.45,1.34c0.87,0.17,1.64,0.09,2.29-0.24c0.28-0.14,0.55-0.36,0.81-0.64c0.33-0.36,1.25-1.22,2.59-1.26
		c1.07-0.03,2.14,0.44,3.18,1.42l-0.86,0.91c-0.79-0.74-1.51-1.11-2.28-1.08c-0.86,0.03-1.48,0.61-1.71,0.86
		c-0.36,0.39-0.75,0.69-1.16,0.9C575.76,88.4,575.09,88.55,574.37,88.55z"/><path class="st14" d="M579.82,97.82c-0.61-2.6-4.51-1.32-4.51-1.32l-9,2.11c-0.03-0.53,17.23,16.33,25.95-6.09l-9,2.11
		C583.27,94.63,579.21,95.22,579.82,97.82L579.82,97.82z"/><path class="st7" d="M581.53,75.29c0,0,2.28-4.88,6.65-6.4c4.37-1.52,9.18,0.9,9.18,0.9s-1.75,3.98-6.12,5.5
		C586.87,76.8,581.53,75.29,581.53,75.29z"/><circle cx="590" cy="71.98" r="3.78"/><path class="st15" d="M581.53,75.29c0,0,2.28-4.88,6.65-6.4c4.37-1.52,9.18,0.9,9.18,0.9s-1.75,3.98-6.12,5.5
		C586.87,76.8,581.53,75.29,581.53,75.29z"/><path d="M581.53,75.28c1.13-7.8,10.99-11.13,17.05-7.47c-0.37,0.59-1.08,1.8-1.45,2.39c-1.34-0.81-8.3-3.62-14.62,3.96
		C582.12,74.63,582.07,74.82,581.53,75.28z"/><path class="st7" d="M566.32,75.21c0,0-2.28-4.88-6.65-6.4s-9.18,0.9-9.18,0.9s1.75,3.98,6.12,5.5S566.32,75.21,566.32,75.21z"/><circle cx="558.25" cy="71.98" r="3.78"/><path class="st15" d="M566.32,75.21c0,0-2.28-4.88-6.65-6.4s-9.18,0.9-9.18,0.9s1.75,3.98,6.12,5.5S566.32,75.21,566.32,75.21z"/><path d="M566.33,75.21c-1.13-7.8-10.99-11.13-17.05-7.47c0.37,0.59,1.08,1.8,1.45,2.39c1.34-0.81,8.3-3.62,14.62,3.96
		C565.74,74.55,565.79,74.74,566.33,75.21z"/><path class="st13" d="M564.31,60.45h-10.33c-2.66,0-4.82,2.16-4.82,4.82l0,0h19.98l0,0C569.13,62.61,566.97,60.45,564.31,60.45z"/><path class="st13" d="M595.31,60.45h-10.33c-2.66,0-4.82,2.16-4.82,4.82l0,0h19.98l0,0C600.13,62.61,597.97,60.45,595.31,60.45z"/><circle class="st9" cx="606.78" cy="77.92" r="9.53"/><path class="st11" d="M582.94,19.19h-16.91c-15.05,0-27.25,12.2-27.25,27.25v14.49v18.75h4.88l0.03-18.75
		c0.48-10.21,6.98-18.81,15.99-22.28c0.4,9.22,7.98,16.58,17.31,16.58h27.38c0.52,1.82,0.84,3.73,0.93,5.7l-0.06,34.61h4.97V60.93
		V46.44C610.19,31.39,597.99,19.19,582.94,19.19z"/><circle class="st9" cx="542.13" cy="77.89" r="9.53"/><rect x="555.83" y="30.43" class="st9" width="3.94" height="13.85"/><path class="st3" d="M459.53,532.53c-6.06,0-10.99-4.93-10.99-10.99v-70.9c0-6.06,4.93-10.99,10.99-10.99
		c6.06,0,10.99,4.93,10.99,10.99v70.9C470.52,527.6,465.59,532.53,459.53,532.53z M459.53,445.73c-2.7,0-4.9,2.2-4.9,4.9v70.9
		c0,2.7,2.2,4.9,4.9,4.9c2.7,0,4.9-2.2,4.9-4.9v-70.9C464.44,447.93,462.24,445.73,459.53,445.73z"/><rect x="436.9" y="411.15" class="st8" width="46.18" height="68.82"/><rect x="448.16" y="421.33" class="st2" width="22.63" height="25.27"/><rect x="443.72" y="452.83" class="st2" width="32.54" height="7.27"/><rect x="443.72" y="462.53" class="st2" width="32.54" height="7.27"/><path class="st3" d="M465.42,416.34h-10.85v-18.6c0-3,2.43-5.42,5.42-5.42h0c3,0,5.42,2.43,5.42,5.42V416.34z"/><path class="st9" d="M571.31,156.51h-5.71h-6.93h-5.71c-2.99,0-5.41,2.42-5.41,5.41v0c0,2.99,2.42,5.41,5.41,5.41h5.71h6.93h5.71
		c2.99,0,5.41-2.42,5.41-5.41v0C576.72,158.94,574.3,156.51,571.31,156.51z"/><path class="st9" d="M574.27,167.33h-5.71h-6.93h-5.71c-2.99,0-5.41,2.42-5.41,5.41v0c0,2.99,2.42,5.41,5.41,5.41h5.71h6.93h5.71
		c2.99,0,5.41-2.42,5.41-5.41v0C579.68,169.76,577.26,167.33,574.27,167.33z"/><path class="st9" d="M569.47,145.69h-5.71h-6.93h-5.71c-2.99,0-5.41,2.42-5.41,5.41v0c0,2.99,2.42,5.41,5.41,5.41h5.71h6.93h5.71
		c2.99,0,5.41-2.42,5.41-5.41v0C574.89,148.12,572.46,145.69,569.47,145.69z"/><polygon class="st9" points="600.39,178.16 554.72,178.16 570.58,134.97 595.81,140.16 	"/><path class="st9" d="M569.47,134.87h-5.71h-6.93h-5.71c-2.99,0-5.41,2.42-5.41,5.41v0c0,2.99,2.42,5.41,5.41,5.41h5.71h6.93h5.71
		c2.99,0,5.41-2.42,5.41-5.41v0C574.89,137.3,572.46,134.87,569.47,134.87z"/><path class="st9" d="M477.08,413.9L477.08,413.9c-2.59,1.48-5.89,0.59-7.38-2l-16.13-28.13l9.38-5.38l16.13,28.13
		C480.57,409.12,479.67,412.42,477.08,413.9z"/></g><g id="table"><path class="st16" d="M681.94,823.88v-22.95h-81.39V293.69h150.79c0-17.11-13.87-30.97-30.97-30.97H457.9
		c-17.11,0-30.97,13.87-30.97,30.97h150.79v507.24h-81.39v22.95H681.94z"/></g><g id="woman_left"><path class="st17" d="M814.17,143.86L814.17,143.86c0-2.97-2.41-5.39-5.39-5.39H779.2v10.77h29.58
		C811.76,149.25,814.17,146.84,814.17,143.86z"/><polygon class="st18" points="303.02,458.97 303.02,572.62 247.13,726.23 255.8,782.83 280.62,786.5 286.82,724.68 355.91,590.67 
		355.91,456.97 	"/><path class="st1" d="M247.69,786.98c0.42,4.4,2.98,8.32,6.85,10.47l42.38,23.62c2.05,1.14,4.63,0.41,5.77-1.64l0,0
		c0.81-1.45,0.7-3.24-0.29-4.58l-21.7-29.5h0c-11.92-2.57-20.71-12.72-21.55-24.89l-3.67-53.25l-8.12,3.64
		c-9.2,4.12-12.93,12.42-18.32,22.09l0,0l-21.39,38.39l10.52,5.86l18.12-32.51c0.85-1.52,2.76-2.06,4.28-1.22l0,0
		c0.87,0.48,1.45,1.34,1.59,2.33L247.69,786.98z"/><polygon class="st19" points="316.08,471.05 363.34,764.96 398.46,810.19 421.94,801.32 397.25,744.29 388.32,468.12 	"/><path class="st1" d="M393.4,817.76c2.51,3.64,6.65,5.81,11.08,5.81H453c2.34,0,4.24-1.9,4.24-4.24l0,0c0-1.66-0.97-3.17-2.48-3.86
		l-33.32-15.21h0c-11.67,3.56-24.28-1.03-30.94-11.25l-29.12-44.73l-5.33,7.13c-6.03,8.08-5.25,17.15-5.25,28.21l0,0v43.94h12.04
		l0-37.22c0-1.74,1.41-3.14,3.14-3.14l0,0c0.99,0,1.92,0.47,2.52,1.26L393.4,817.76z"/><path class="st0" d="M401.18,581.51l8.67-223.22l-110.88-12.6l-7.46,217.18c-0.33,9.55,6.07,18.03,15.35,20.32l69.25,17.15
		C388.55,603.44,400.69,594.32,401.18,581.51z"/><path class="st19" d="M358.05,156.87h-17.04c-9.27,0-16.78-7.51-16.78-16.78V103.1h50.6v36.99
		C374.83,149.36,367.32,156.87,358.05,156.87"/><path class="st1" d="M355.7,127.19c-0.29-2.7,19.09,14.19,19.09,14.19c8.12,11.7,31.91,46.48,33.68,60.61l10.3,207.53H285.58
		l35.53-268.27L355.7,127.19z"/><path class="st0" d="M418.76,409.51l-10.3-207.53c-1.77-14.13-25.56-48.91-33.68-60.61c0,0-19.37-16.88-19.09-14.19l15.88,42.57
		h16.25l-6.89,22.46L418.76,409.51z"/><path class="st20" d="M324.24,32.43h73.63c0,0,0,54.14,0,66.53c0,7.38-5.99,13.37-13.37,13.37c-21.23,0-60.26,0-60.26,0V70.03
		V32.43z"/><path class="st20" d="M391.18,84.03l-0.22-27.3c0,0,8.62,10.43,14,16.95c0.94,1.13,1.24,2.66,0.81,4.07
		c-0.43,1.41-1.54,2.5-2.96,2.91C397.63,82.16,391.18,84.03,391.18,84.03L391.18,84.03z"/><path class="st7" d="M394.74,62.04c0,0,1.99,3.48-0.38,7.61c0,0-6.42,1.43-11.08-6.33C383.28,63.32,389.88,61.37,394.74,62.04"/><path class="st21" d="M392.67,61.9c-1.21,0.71-2.06,2.29-2.06,4.13c0,1.51,0.57,2.83,1.43,3.65c1.39,0.17,2.32-0.04,2.32-0.04
		c2.37-4.13,0.38-7.61,0.38-7.61C394.07,61.95,393.38,61.91,392.67,61.9z"/><path class="st21" d="M395.88,62.15v-1.16c0,0-7-1.95-14,0.87l1.78,2.23C383.66,64.08,388.81,61.93,395.88,62.15"/><path class="st22" d="M398.57,93.99c0.88-0.46,1.49-1.38,1.49-2.44c0-1.52-1.24-2.86-2.76-2.76c-2.21,0.14-3.38,2.64-7.17,3.29
		c1.18,0.59,2.62,0.75,4.12,0.91C395.76,93.15,397.31,93.32,398.57,93.99z"/><path class="st22" d="M394.12,94.19c-2.01-0.21-4.27-0.47-5.87-1.95c-0.01,0-0.01,0-0.02,0c2.97,4.48,6.14,7.04,9.08,7.04
		c1.52,0,2.76-1.24,2.76-2.76c0-0.07-0.02-0.13-0.03-0.2c-0.44-0.19-0.92-0.48-1.46-0.91C397.48,94.55,395.85,94.38,394.12,94.19z"/><path class="st22" d="M398.51,94.04c0.02-0.01,0.04-0.03,0.07-0.04c-1.26-0.67-2.82-0.84-4.33-1c-1.5-0.16-2.94-0.32-4.12-0.91
		c-0.57,0.1-1.19,0.15-1.88,0.16c1.61,1.49,3.86,1.74,5.87,1.95c1.73,0.18,3.36,0.36,4.45,1.22c0.54,0.43,1.02,0.72,1.46,0.91
		C399.96,95.32,399.37,94.46,398.51,94.04z"/><path class="st0" d="M338.04,334.34h41.85c4.06,0,7.36-3.3,7.36-7.36v-7.36h-56.57v7.36C330.68,331.04,333.98,334.34,338.04,334.34
		z"/><rect x="377.46" y="54.16" transform="matrix(0.9529 -0.3034 0.3034 0.9529 1.2435 120.0827)" class="st23" width="19.31" height="3.75"/><rect x="377.63" y="67.77" class="st20" width="18.96" height="9.03"/><path class="st23" d="M400.96,48.49l0-15.78v0c0.11-8.83-6.95-16.07-15.78-16.19l-50.12-0.64c-14.46-0.19-25.81,11.29-26.35,24.96
		l-19.44,188.52c-1.13,10.94,7.19,20.58,18.18,21.07h0L364.4,48.37L400.96,48.49z"/><circle class="st19" cx="356.26" cy="71.66" r="9.94"/><polygon class="st19" points="484.51,231.73 504.72,220.33 511.14,229.68 509.98,237.78 484.78,234.49 	"/><polygon class="st3" points="522.54,266.09 493.01,266.26 488.48,212.34 526.62,212.11 	"/><polygon class="st8" points="523.93,247.71 491.47,247.9 489.55,225.03 525.66,224.82 	"/><polygon class="st8" points="526.49,207.87 526.46,202.27 488.24,202.5 488.28,208.1 484.97,208.12 485,213.01 529.82,212.74 
		529.8,207.85 	"/><circle class="st8" cx="356.81" cy="82.2" r="4.54"/><path class="st8" d="M344.84,66.96l3.81,2.45c0.59,0.38,1.39,0.21,1.77-0.39l0,0c0.38-0.59,0.21-1.39-0.39-1.77l-3.81-2.45
		c-0.59-0.38-1.39-0.21-1.77,0.39l0,0C344.07,65.78,344.24,66.58,344.84,66.96z"/><rect x="335.38" y="348.38" class="st8" width="46.18" height="68.82"/><rect x="346.64" y="358.55" class="st2" width="22.63" height="25.27"/><rect x="342.2" y="390.06" class="st2" width="32.54" height="7.27"/><rect x="342.2" y="399.75" class="st2" width="32.54" height="7.27"/><path class="st19" d="M525.23,264.33c2.76,0,5,2.24,5,5v0c0,2.76-2.24,5-5,5h-97.7v-34.98h40.52l16.98-7.94l44.82,2.53
		c2.48,0.22,4.5,2.2,4.68,4.76v0c0.17,2.44-1.4,4.6-3.66,5.28c2.05,0.56,3.62,2.36,3.78,4.6v0c0.2,2.83-1.94,5.29-4.77,5.48
		l-0.21,0.01c2.07,0.55,3.66,2.36,3.81,4.61v0c0.2,2.83-1.94,5.29-4.77,5.48L525.23,264.33z"/><rect x="353.05" y="329.55" class="st3" width="10.85" height="24.02"/><path class="st1" d="M466.96,281.04v-46.29h-74.73l-25.72-94.37c-2.46-10.49-11.83-17.91-22.6-17.91h0
		c-14.73,0-25.74,13.54-22.73,27.96l29.86,114.55c3.01,9.09,11.44,15.71,21.47,16.03L466.96,281.04z"/></g></svg>