<svg viewBox="0 0 160 160" fill="none" xmlns="http://www.w3.org/2000/svg"><path fill-rule="evenodd" clip-rule="evenodd" d="M117.716 85.5751C117.716 112.217 96.1074 133.815 69.4514 133.815C42.7944 133.815 21.1854 112.217 21.1854 85.5751C21.1854 58.9328 42.7944 37.335 69.4514 37.335C96.1074 37.335 117.716 58.9328 117.716 85.5751Z" fill="white"/><path fill-rule="evenodd" clip-rule="evenodd" d="M69.451 42.519C45.697 42.519 26.372 61.8341 26.372 85.5758C26.372 109.318 45.697 128.633 69.451 128.633C93.205 128.633 112.53 109.318 112.53 85.5758C112.53 61.8341 93.205 42.519 69.451 42.519ZM69.451 139C39.978 139 16 115.034 16 85.5758C16 56.118 39.978 32.1523 69.451 32.1523C98.924 32.1523 122.903 56.118 122.903 85.5758C122.903 115.034 98.924 139 69.451 139Z" fill="#E73245"/><path fill-rule="evenodd" clip-rule="evenodd" d="M69.4511 65.244C58.2351 65.244 49.1091 74.3643 49.1091 85.5755C49.1091 96.7857 58.2351 105.906 69.4511 105.906C80.6671 105.906 89.7931 96.7857 89.7931 85.5755C89.7931 74.3643 80.6671 65.244 69.4511 65.244ZM69.4511 116.713C52.2721 116.713 38.2961 102.745 38.2961 85.5755C38.2961 68.4053 52.2721 54.4365 69.4511 54.4365C86.6301 54.4365 100.606 68.4053 100.606 85.5755C100.606 102.745 86.6301 116.713 69.4511 116.713Z" fill="#E73245"/><path fill-rule="evenodd" clip-rule="evenodd" d="M77.5966 85.5754C77.5966 90.0721 73.9496 93.7162 69.4516 93.7162C64.9526 93.7162 61.3056 90.0721 61.3056 85.5754C61.3056 81.0787 64.9526 77.4346 69.4516 77.4346C73.9496 77.4346 77.5966 81.0787 77.5966 85.5754Z" fill="#E73245"/><path fill-rule="evenodd" clip-rule="evenodd" d="M69.0641 88.4098L66.7581 85.7002L141.694 22L143.999 24.7086L69.0641 88.4098Z" fill="#232144"/><path fill-rule="evenodd" clip-rule="evenodd" d="M113.288 50.8164L138.783 29.1436C142.714 33.7642 140.82 40.8865 135.112 42.9454L113.288 50.8164Z" fill="#E73245"/><path fill-rule="evenodd" clip-rule="evenodd" d="M110.971 48.1163L136.466 26.4434C132.534 21.8238 125.196 22.5495 122.247 27.8497L110.971 48.1163Z" fill="#891229"/></svg>