<svg viewBox="0 0 160 160" fill="none" xmlns="http://www.w3.org/2000/svg"><path fill-rule="evenodd" clip-rule="evenodd" d="M85.1459 23.6895L88.4069 39.7445L38.5179 49.8805L35.2559 33.8255L85.1459 23.6895Z" fill="#66292F"/><path fill-rule="evenodd" clip-rule="evenodd" d="M26.4628 68.2298C22.4408 66.1588 20.8578 61.2208 22.9288 57.1968L39.4758 25.0508L54.0448 32.5488L37.4958 64.6958C35.4268 68.7188 30.4858 70.3008 26.4628 68.2298Z" fill="#66292F"/><path fill-rule="evenodd" clip-rule="evenodd" d="M110.06 76.114L66.5476 68.388L83.7346 16L126.318 37.092L110.06 76.114Z" fill="#7A2F37"/><path fill-rule="evenodd" clip-rule="evenodd" d="M20.4442 66.4503C16.4222 64.3793 14.8392 59.4413 16.9102 55.4173L33.3662 23.3643L48.0262 30.7693L31.4772 62.9163C29.4082 66.9393 24.4672 68.5213 20.4442 66.4503Z" fill="#7A2F37"/><path fill-rule="evenodd" clip-rule="evenodd" d="M83.7351 16L86.1051 32.212L35.7331 39.577L33.3621 23.367L83.7351 16Z" fill="#7A2F37"/><path fill-rule="evenodd" clip-rule="evenodd" d="M57.1305 53.4284C57.1305 53.4284 64.4945 51.6944 66.7535 50.8364C71.4416 49.0534 69.4675 43.9154 65.2965 44.6034C62.6225 45.0444 45.9315 48.3684 45.8695 48.4304C45.8805 48.4194 35.8105 52.0964 35.2055 50.7254C33.9275 47.8264 43.7255 37.8844 43.7255 37.8844L77.9465 23.9824L80.3215 56.4834L57.1305 53.4284Z" fill="#7A2F37"/><path fill-rule="evenodd" clip-rule="evenodd" d="M37.7725 83.9239C32.4355 81.0429 28.7085 73.0009 28.7085 64.3679C28.7085 59.0299 30.1125 53.9959 32.6625 50.1949C35.3045 46.2549 38.8625 44.0859 42.6805 44.0859C46.4995 44.0859 50.0575 46.2549 52.6995 50.1949C55.2485 53.9959 56.6525 59.0299 56.6525 64.3679C56.6525 71.3179 54.2145 78.1649 50.4405 81.8119L48.8815 80.1989C52.2395 76.9529 54.4095 70.7389 54.4095 64.3679C54.4095 54.4209 49.1475 46.3289 42.6805 46.3289C36.2135 46.3289 30.9525 54.4209 30.9525 64.3679C30.9525 72.2129 34.1955 79.4429 38.8385 81.9499L37.7725 83.9239Z" fill="#F7931E"/><path fill-rule="evenodd" clip-rule="evenodd" d="M49.6628 79.2107C51.2398 78.6287 52.9908 79.4347 53.5728 81.0117C54.1548 82.5887 53.3488 84.3397 51.7718 84.9217C50.1948 85.5037 48.4438 84.6977 47.8618 83.1207C47.2798 81.5437 48.0858 79.7927 49.6628 79.2107ZM47.7928 74.1467C40.1988 76.9507 36.3158 85.3797 39.1198 92.9737C41.1458 98.4597 46.1068 102.007 51.5688 102.498L53.2438 107.035L54.9918 106.39L66.1928 136.725L71.1148 138.347L73.9628 133.856L72.1938 129.066L69.4458 128.243L70.9998 125.831L70.7678 125.204L66.9078 123.209L68.5458 119.184L68.1138 118.015L64.0758 117.466L66.5878 113.882L66.3608 113.268L62.4968 111.264L64.1308 107.228L62.7618 103.52L64.5098 102.875L62.9198 98.5697C67.0698 94.6597 68.7198 88.5057 66.6198 82.8197C63.8158 75.2257 55.3868 71.3427 47.7928 74.1467Z" fill="#E6E3DA"/><path fill-rule="evenodd" clip-rule="evenodd" d="M37.637 81.0943C39.318 81.0943 40.681 82.4573 40.681 84.1383C40.681 85.8193 39.318 87.1823 37.637 87.1823C35.956 87.1823 34.593 85.8193 34.593 84.1383C34.593 82.4573 35.956 81.0943 37.637 81.0943ZM37.637 75.6953C29.542 75.6953 22.98 82.2583 22.98 90.3533C22.98 96.2013 26.405 101.248 31.359 103.599V108.436H33.222V140.773L37.277 144L41.505 140.773V135.667L39.211 133.943L41.505 132.219V131.55L38.574 128.341L41.505 125.133V123.887L37.907 121.973L41.505 119.481V118.827L38.574 115.608L41.505 112.389V108.436H43.368V103.847C48.615 101.615 52.294 96.4143 52.294 90.3533C52.294 82.2583 45.732 75.6953 37.637 75.6953Z" fill="#F7C7A1"/><path fill-rule="evenodd" clip-rule="evenodd" d="M42.6807 85.1982C40.9897 85.1982 39.3377 84.7692 37.7727 83.9242L38.8387 81.9502C40.0727 82.6162 41.3657 82.9542 42.6807 82.9542C44.8717 82.9542 47.0157 82.0012 48.8807 80.1992L50.4407 81.8122C48.1487 84.0272 45.4657 85.1982 42.6807 85.1982Z" fill="#F7931E"/><path fill-rule="evenodd" clip-rule="evenodd" d="M30.3836 57.4025C30.8826 52.9055 34.9316 49.6655 39.4276 50.1615L88.2816 55.5755L86.4766 71.8595L37.6246 66.4475C33.1276 65.9475 29.8866 61.8995 30.3836 57.4025Z" fill="#7A2F37"/><path fill-rule="evenodd" clip-rule="evenodd" d="M144 45.2061L125.891 36.9121L102.905 74.5341L144 100.843V45.2061Z" fill="#7A2F37"/></svg>