<?xml version="1.0" encoding="utf-8"?><!--Generator: Adobe Illustrator 27.8.0, SVG Export Plug-In . SVG Version: 6.00 Build 0)--><svg version="1.1" id="Ebene_1" xmlns="http://www.w3.org/2000/svg" xmlns:xlink="http://www.w3.org/1999/xlink" x="0px" y="0px" viewBox="0 0 160 160" style="enable-background:new 0 0 160 160;" xml:space="preserve"><style type="text/css">.st0{fill:#8DA8DC;}
	.st1{fill:#EFA86C;}
	.st2{fill:#01464D;}
	.st3{fill:#232144;}</style><path class="st0" d="M99.7,110.74c21.09,0,38.19-17.26,38.19-38.56S120.8,33.62,99.7,33.62c-21.09,0-38.19,17.26-38.19,38.56
	S78.61,110.74,99.7,110.74z"/><path class="st1" d="M86.79,82.11l-27.77,0.3c-0.43-1.1-1.31-1.96-2.42-2.36l0,0l-0.12-0.03c-0.17-0.05-0.33-0.11-0.51-0.14
	l-7.76-2.15c-0.95-0.25-1.95-0.1-2.78,0.43c-4.47,2.83-12.24,7.99-15.05,11.24L16,89.81l0.16,24.57L37.58,114
	c2.65,1.11,5.5,1.51,8.38,1.51l14.31-0.4l-0.02-0.1l3.12-0.07c2.12-0.04,3.8-1.91,3.76-4.17v-0.05c-0.03-1.87-1.25-3.41-2.86-3.86
	c2.05-0.24,3.62-2,3.58-4.12v-0.05c-0.04-2.25-1.89-4.05-4.13-4.01l-4.82,0.09c0.01-0.01,0.01-0.02,0.02-0.03l4.8-0.09
	c2.23-0.04,4.02-1.92,3.97-4.17v-0.05c-0.04-2.26-1.89-4.06-4.13-4.02l-4.17,0.08l0-0.14l27.5-0.3c2.17-0.03,3.91-1.82,3.88-4.02
	C90.74,83.83,88.96,82.08,86.79,82.11z"/><path class="st2" d="M97.09,72.97c-1.24,0.29-1.94-1.33-2.84-1.53c-0.87-0.07-1.72,0.52-2.61,0.36c-1.1-0.12-1.98-1.22-1.67-2.45
	c0.55-1.97,2.36-3.22,3.36-4.96c0.64-1.01,1.19-2.15,1.64-2.95c0.43-0.7,0.64-1.19,1.27-1.37c1.53-0.01,2.19,2.7,2.29,4.08
	c0.18,1.82-1.97,2.16-2.63,3.36c-0.36,2.41,3.47,2.09,5.06,2.17c2.21,0.29,4.28,1.26,6.47,1.92c1.91,0.78,3.64,1.73,4.83,3.29
	c0.44,0.57,0.79,1.31-0.22,1.31c-2.2-0.15-4.35-0.49-6.25-1.92c-1.29-0.91-2.44-1.73-4.14-1.93c-1.51-0.21-3.03,0.4-4.47,0.62
	 M109.49,93.69c0.37-0.06,0.36-0.07,0.55-0.11c0.41-0.11,0.7-0.24,0.76,0.06c0.2,0.63-0.23,3.37-1.13,2.58
	c-0.49-0.48-1.24-2.2-0.3-2.5 M109.16,35.92c0.56,1.48,0.22,4.18,0.94,5.72c0.92,2.6,6.34-1,3.59,1.98c-3.62,3.25-5.78,9.39-11,9.82
	c-0.9-0.44,0.86-1.87,1.43-2.42c3.74-2.6,4.02-6.01,4.36-10.63c0.12-1.23,0.23-2.75,0.4-3.88c0.08-0.46,0.16-0.68,0.25-0.62
	 M102.79,76.23c1.23-0.02,2.08,1.19,3.16,1.56c0.76,0.23,1.47-0.84,2.04-0.97c0.2-0.03,0.35,0.04,0.53,0.17
	c0.52,0.4,1.34,1.66,2.24,3c1.32,2.12,3.16,4.31,3.11,6.9c-0.07,2.8-2.29,6.86-5.55,5.97c-2.37-0.58-3.82-2.98-6.24-3.47
	c-1.48-0.39-2.98-0.16-4.44,0.3c-1.58,0.53-3.59,0.86-4.55-0.82c-0.84-1.46-1.43-4.12-0.7-5.88c0.63-1.43,2.06-2.23,3.31-3.08
	c2.33-1.26,4.26-3.55,7-3.69 M100.72,33.48c5.06-0.07,7.97,2.02,5.77,7.26c-1.53,2.95-3.85,4.75-5.21,7.64
	c-0.34,0.49-0.58,1.21-1.17,1.27c-1.03-0.35-1.85-2.1-2.79-2.25c-0.31-0.03-0.49,0.31-0.56,0.54c-0.14,0.47-0.13,0.94-0.1,1.48
	c0.4,2.43-0.22,5.56-2.28,7.15c-1.35,1.13-3.27,1.7-4.31,3.14c-0.96,1.29-0.85,3.24-1.53,3.86c-0.49,0.51-1.29,0.57-1.81,1.06
	c-0.99,1.12,0.09,2.97,0.6,4.21c1.85,4.52,7.43,5.14,11.78,5.52c1.46,0.14,2.26,0.35,1.84,0.67c-3.18,1.45-6.73,0.36-9.94-0.92
	c-4.07-1.32-7.57-4.24-9.2-8.26c-0.31-0.73-0.33-1.1-0.04-1.01c0.7,0.29,1.61,1.4,2.26,1.94c0.22,0.17,0.42,0.43,0.67,0.37
	c0.35-0.09-0.54-2.34-1.09-3.33c-0.7-1.37-1.37-3.02-2.39-3.77c-2.77-2.04-5.58,0.95-7.3,3.04c-0.5,0.49-1.09,1.27-1.84,1
	c-0.99-0.41-1.76-3.54-2.71-4.97c-0.73-1.31-2-2.23-2.65-3.57c-0.73-1.64,0.22-3.47,1.19-4.91c6.96-10.35,19.54-17.21,32.68-17.13"/><path class="st3" d="M144,72.04c0-15.97-8.48-30.93-22.13-39.04l-3.48,5.96c11.56,6.87,18.75,19.54,18.75,33.08
	c0,21.14-17.03,38.34-37.98,38.34c-5.62,0-11.01-1.2-16.05-3.58l-2.9,6.26c4.92,2.32,10.13,3.69,15.53,4.11v2.46H76.68V127h46.22
	v-7.37h-20.31v-2.47C125.71,115.38,143.99,95.83,144,72.04L144,72.04z"/></svg>