<?xml version="1.0" encoding="UTF-8"?><svg id="character" xmlns="http://www.w3.org/2000/svg" viewBox="0 0 160 160"><defs><style>.cls-1{fill:#f4a090;}.cls-1,.cls-2,.cls-3,.cls-4,.cls-5,.cls-6,.cls-7,.cls-8{stroke-width:0px;}.cls-2{fill:#171111;}.cls-3{fill:#88162c;}.cls-4{fill:#f0826e;}.cls-5{fill:#f39425;}.cls-6{fill:#fff;}.cls-7{fill:#e5e0d8;}.cls-8{fill:#f6a237;}</style></defs><path class="cls-1" d="m127.58,52.19l-3.78,15.37-.09.41-13.3,1.75-1.43-3.93c-.12-.16-.32-.43-.55-.76l.09.02,1.76.28,1.13.19,3.28.54-4.06-7.94.41-3.05c1.1-6.42-3.12-5.96-3.12-5.96l.16-2.59c.2-1.5,1.66-2.53,3.27-2.3.86.12,1.58.58,2.04,1.22.63-.79,1.72-1.21,2.84-1,1.37.25,2.35,1.35,2.43,2.59.64-.75,1.69-1.13,2.79-.93,1.48.27,2.5,1.53,2.43,2.9.41-.1.86-.12,1.31-.04h0c1.59.3,2.66,1.75,2.39,3.23h0Z"/><path class="cls-1" d="m138.33,113.01l-14.98-49.9-13.81,1.73,4.58,52.32c1.03,6.81,10.35,11.36,16.56,9.22,5.21-1.79,9.06-7.76,7.64-13.37Z"/><path class="cls-1" d="m126.42,126.82l-41.22-.13,8.65-27.76,42.59,8.83-10.02,19.06Z"/><path class="cls-7" d="m16,144v-47.85s21.16-4.96,30.56-4.97c8.57,0,44.03,7.81,44.03,7.81l-1.04,45.01H16Z"/><path class="cls-1" d="m32.27,68.53c0-3.15-2.56-5.71-5.71-5.71s-5.71,2.56-5.71,5.71,2.56,5.71,5.71,5.71,5.71-2.56,5.71-5.71Z"/><path class="cls-1" d="m58.63,68.53c0-3.15,2.56-5.71,5.71-5.71s5.71,2.56,5.71,5.71-2.56,5.71-5.71,5.71-5.71-2.56-5.71-5.71Z"/><path class="cls-4" d="m59.5,97.24v-22.04l-28.12-.08v22.12c0,5.74,4.63,10.39,10.35,10.39h7.43c5.71,0,10.35-4.65,10.35-10.39"/><path class="cls-1" d="m63.9,76.39v-26.28c0-8.51-6.83-15.42-15.26-15.42h-7.27c-8.43,0-15.26,6.91-15.26,15.42v26.28c0,8.51,6.83,15.42,15.26,15.42h7.27c8.43,0,15.26-6.91,15.26-15.42Z"/><path class="cls-3" d="m53.36,77.45c0-.62-.25-1.21-.71-1.65-.45-.44-1.07-.68-1.72-.68h-10.96c-.64,0-1.26.25-1.72.68-.45.44-.71,1.03-.71,1.65v2.06h15.82v-2.06Z"/><path class="cls-2" d="m44.98,74.24c-.86,0-1.54-.45-2.14-.85-.99-.66-1.58-1.05-2.77.21l-.77-.82c1.8-1.92,3.09-1.07,4.13-.38.52.35,1.01.67,1.56.67s1.02-.31,1.51-.62c.98-.64,2.2-1.43,4.22.35l-.7.89c-1.42-1.26-2.03-.86-2.95-.26-.57.37-1.22.79-2.09.79"/><path class="cls-6" d="m57.75,65.78c-.71.55-1.81,1.03-3.08,1.27-.32.06-.63.1-.93.13-2.01.17-3.66-.36-3.87-1.34-.24-1.13,1.52-2.41,3.94-2.86,2.41-.46,4.56.08,4.81,1.21.11.53-.22,1.1-.86,1.59Z"/><path class="cls-3" d="m64.78,46.13v-4.4c0-4.37-3.56-7.91-7.95-7.91h-22.76c-4.39,0-7.95,3.54-7.95,7.91v35.14h6.06l-4.52-14.68v-12.84h3.19c3.46,0,6.26-2.79,6.26-6.23v-4.34c.44,2.58,1.66,4.97,3.54,6.85,2.39,2.38,5.64,3.72,9.02,3.72h13.56v12.42l-4.53,14.71h6.07v-30.36h0s0,0,0,0Z"/><path class="cls-2" d="m57.92,65.71c-.71.6-1.8,1.1-3.06,1.36-.31.06-.63.11-.93.14-.29-.41-.44-.93-.39-1.47.1-1.23,1.17-2.15,2.38-2.04h0c1.07.09,1.9.95,2,2Z"/><path class="cls-6" d="m36.96,62.88c.21.35.34.76.34,1.2,0,1.2-.89,2.17-1.99,2.17s-1.99-.97-1.99-2.17c0-.47.15-.9.38-1.26-.76.23-1.29.66-1.4,1.24-.22,1.17,1.37,2.51,3.54,2.99,2.17.48,4.11-.09,4.33-1.26.2-1.11-1.2-2.36-3.2-2.9Z"/><path class="cls-2" d="m35.34,66.33c1.22,0,2.2-.94,2.2-2.11,0-.43-.14-.83-.37-1.16-.12-.03-.25-.05-.38-.09-1.22-.23-2.37-.21-3.23.02-.26.34-.41.76-.41,1.22,0,1.16.98,2.11,2.2,2.11h0Z"/><path class="cls-1" d="m31.9,61.06c-.77,0-1.39.59-1.39,1.32s.62,1.32,1.39,1.32h27.11c.76,0,1.38-.59,1.38-1.32s-.62-1.32-1.38-1.32h-27.11Z"/><path class="cls-1" d="m31.05,66.33c-.79,0-1.42.59-1.42,1.32s.63,1.32,1.42,1.32h28.79c.79,0,1.42-.59,1.42-1.32s-.63-1.32-1.42-1.32h-28.79Z"/><path class="cls-5" d="m36.31,30.52h17.96c6.47,0,11.73,5.26,11.73,11.73v6.63H24.57v-6.63c0-6.47,5.26-11.73,11.73-11.73Z"/><path class="cls-8" d="m68.96,48H21.61v5.15h47.36v-5.15Z"/><path class="cls-8" d="m46.51,30.45v17.93h-2.46v-17.93c0-.68.55-1.23,1.23-1.23s1.23.55,1.23,1.23h0Z"/><path class="cls-8" d="m42.67,30.45v17.93h-2.46v-17.93c0-.68.55-1.23,1.23-1.23s1.23.55,1.23,1.23h0Z"/><path class="cls-8" d="m50.36,30.45v17.93h-2.46v-17.93c0-.68.55-1.23,1.23-1.23s1.23.55,1.23,1.23h0Z"/><rect class="cls-2" x="44.7" y="75.06" width="1.5" height="12.43" transform="translate(-41.43 114.76) rotate(-81.87)"/><path class="cls-3" d="m42.46,57.72c-.11-.61-.44-1.15-.93-1.51-.49-.35-1.1-.5-1.7-.39l-7.45,1.37c-.59.11-1.12.46-1.46.96-.34.51-.48,1.13-.37,1.75l.35,2.03,11.91-2.19-.35-2.03h0Z"/><path class="cls-3" d="m60.36,59.79c.09-.64-.07-1.3-.45-1.83-.38-.52-.96-.87-1.6-.96l-8.04-1.18c-.64-.1-1.29.07-1.81.46-.52.39-.86.97-.95,1.62l-.31,2.15,12.84,1.89.31-2.15Z"/><path class="cls-3" d="m133.26,61.07l2.45-9.67-61.64-15.61-2.45,9.67,61.64,15.61Z"/><path class="cls-7" d="m57.92,49.26l12.63,3.2,8.99-35.52-15.82,9.43-5.8,22.89Z"/><path class="cls-1" d="m114.76,66.18l-1.13.94-1.81,1.46-1.46.77-2.08-4.1c1.23,2.2-2.63-4.51-3.51-7.86l1.12-6.65c.25-1.26,1.17-2.23,2.33-2.59,0,0,4.24-.56,3.04,6.33l-.46,3.27,3.95,8.44h0Z"/><rect class="cls-1" x="108.13" y="42.01" width="5.22" height="11.61" rx="2.61" ry="2.61" transform="translate(11.81 -21.2) rotate(11.55)"/><rect class="cls-1" x="112.8" y="41.31" width="5.22" height="13.22" rx="2.61" ry="2.61" transform="translate(11.93 -22.13) rotate(11.55)"/><rect class="cls-1" x="117.69" y="42.67" width="5.22" height="13.8" rx="2.61" ry="2.61" transform="translate(12.36 -23.08) rotate(11.55)"/><rect class="cls-1" x="122.69" y="45.46" width="5.22" height="11.01" rx="2.61" ry="2.61" transform="translate(12.74 -24.05) rotate(11.55)"/><ellipse class="cls-1" cx="100.05" cy="108.05" rx="14.24" ry="9.78"/><path class="cls-7" d="m93.85,98.93l-29-5.18c-.91,5.47-1.41,33.45,5.92,37.83,8.65,2.26,25.95,3.44,25.95,3.44l.55-11.81,1-24.95-4.43.67Z"/></svg>