<?xml version="1.0" encoding="utf-8"?><!--Generator: Adobe Illustrator 28.0.0, SVG Export Plug-In . SVG Version: 6.00 Build 0)--><svg version="1.1" xmlns="http://www.w3.org/2000/svg" xmlns:xlink="http://www.w3.org/1999/xlink" x="0px" y="0px" viewBox="0 0 160 160" style="enable-background:new 0 0 160 160;" xml:space="preserve"><style type="text/css">.st0{fill:none;stroke:#E73245;stroke-width:3.5539;stroke-miterlimit:10;}
	.st1{fill:#232144;}
	.st2{fill:#E6E3DA;}
	.st3{fill:#006931;}
	.st4{fill:#FFFFFF;}</style><g id="Design"><g><path class="st0" d="M64.6,28.2c2.9-1.8,6.1-3.2,9.5-3.8c3.4-0.7,7.1-0.7,10.7,0.1c3.6,0.7,7,2.2,9.9,4.1s5.4,4.4,7.3,7.2"/><polygon class="st1" points="18.1,80.8 79.9,16 141.7,80.8 		"/><polygon class="st2" points="29.5,144 29.5,81.2 79.9,27 130.4,81.2 130.4,144 		"/><rect x="101.9" y="108" class="st1" width="18.6" height="35.9"/><path class="st3" d="M141.9,134.7c0,0.1,0,0.3,0,0.4"/><path class="st0" d="M74.4,76c-3.6-0.7-7-2.2-9.9-4.1c-2.9-1.9-5.4-4.4-7.3-7.2s-3.3-6-4-9.4c-0.7-3.4-0.8-6.9,0-10.5
			c0.7-3.6,2.2-6.8,4.1-9.6c2-2.8,4.5-5.2,7.3-7.1"/><g><path class="st3" d="M65.7,143.9l28-47.6l-9.4-32.8L51,71.2l-28,47.6L65.7,143.9z M77.4,75.1c2.9,1.7,3.9,5.5,2.2,8.4
				c-1.7,2.9-5.5,3.9-8.4,2.2s-3.9-5.5-2.2-8.4C70.8,74.4,74.5,73.4,77.4,75.1z"/><polygon class="st4" points="73.2,112.8 59.3,104.6 75.4,91.9 42.7,103.7 48.4,107.1 55.6,111.3 39.8,123.1 			"/></g><path class="st0" d="M102,35.8c1.9,2.8,3.3,6,4,9.4s0.8,6.9,0,10.5c-0.7,3.6-2.2,6.8-4.1,9.6c-2,2.8-4.5,5.2-7.3,7.1
			c-2.9,1.8-6.1,3.2-9.5,3.8S78,76.8,74.4,76"/><path class="st3" d="M138.6,134.7c0,0.1,0,0.3,0,0.4"/></g></g><g id="stramien"/></svg>