<?xml version="1.0" encoding="utf-8"?><!--Generator: Adobe Illustrator 27.8.0, SVG Export Plug-In . SVG Version: 6.00 Build 0)--><svg version="1.1" id="Ebene_1" xmlns="http://www.w3.org/2000/svg" xmlns:xlink="http://www.w3.org/1999/xlink" x="0px" y="0px" viewBox="0 0 160 160" style="enable-background:new 0 0 160 160;" xml:space="preserve"><style type="text/css">.st0{fill:#FBB03B;}
	.st1{fill:#BF7461;}
	.st2{fill:#1D1D1B;}
	.st3{fill:#9E3F39;}
	.st4{fill:#A86554;}
	.st5{fill:#FFFFFF;}
	.st6{fill:#FFCD94;}
	.st7{fill:#7070FF;}</style><path class="st0" d="M144.1,144l-9-46.4c-0.9-8.8-7.9-16-17.1-16.7c-0.4,0-0.7,0-1.1,0l0,0h-0.6c-0.1,0-0.2,0-0.3,0H44c0,0,0,0,0,0
	h-1.4l0,0c-0.2,0-0.3,0-0.5,0C33,81.6,25.9,88.8,25,97.6l-9,46.4H144.1z"/><path class="st1" d="M101.9,99c0.1-1.7-1.3-3.1-2.9-3.1c-1.7-0.1-3.1,1.3-3.1,2.9l-0.3,8.7l-8.8-6.7c-1.2-1-3-0.9-4.1,0.4v0
	c-1,1.2-0.9,3,0.3,4.1l0.1,0.1l-1.4-1.2c-1.2-1-3.1-0.9-4.1,0.4v0c-1,1.2-0.8,3,0.4,4c-1.2-0.6-2.7-0.3-3.6,0.7c-1,1.2-0.8,3,0.4,4
	l2.1,1.8c-1.2-0.8-2.9-0.6-3.8,0.6c-1,1.2-0.8,3,0.4,4l9.8,7.8l5.9,3l11.8,13.1l12.5-11.5l-10.7-11.7L101.9,99z"/><path class="st0" d="M112.8,144l7.3-8.1c3.7-4.1,2.9-10.6-1.7-13.7l-1-0.7c-4-2.7-9.4-1.7-12.3,2.2l-7.4,10
	c-2.3,3.1-2.3,7.1-0.4,10.2H112.8z"/><path class="st2" d="M69.2,76.6c-5.1,10.9-18.6,15.3-18.6,15.3s-5.3-13.2-0.2-24.1C55.5,57,69,52.5,69,52.5S74.3,65.8,69.2,76.6"/><path class="st2" d="M90.9,77.1c5.1,10.9,18.6,15.3,18.6,15.3s5.3-13.2,0.2-24.1C104.6,57.4,91.1,53,91.1,53S85.8,66.2,90.9,77.1"/><path class="st3" d="M105,50.6c0,3.1-2.5,5.7-5.7,5.7s-5.7-2.5-5.7-5.7c0-3.1,2.5-5.7,5.7-5.7S105,47.4,105,50.6"/><path class="st3" d="M66.5,50.6c0,3.1-2.5,5.7-5.7,5.7c-3.1,0-5.7-2.5-5.7-5.7c0-3.1,2.5-5.7,5.7-5.7C63.9,44.9,66.5,47.4,66.5,50.6
	"/><path class="st4" d="M66,79.5V61.3l28.1,0v18.2c0,7.8-6.3,14.1-14,14.1C72.3,93.6,66,87.3,66,79.5"/><path class="st1" d="M61.3,58.6V32.4c0-8.3,6.7-15,15-15h7.2c8.3,0,15,6.7,15,15v26.2c0,8.3-6.7,15-15,15h-7.2
	C68,73.7,61.3,66.9,61.3,58.6"/><path class="st2" d="M80.2,56.9c-0.2,0-0.4,0-0.7-0.1c-0.6-0.1-1.3-0.5-1.8-1c-0.3-0.3-0.6-0.4-0.9-0.4c-0.6,0.1-1.1,0.7-1.1,0.7
	l-0.6-0.5c0,0,0.7-0.9,1.6-1c0.5,0,1,0.1,1.5,0.6c0.5,0.4,1,0.7,1.5,0.8c0.5,0.1,1,0.1,1.4-0.1c0.2-0.1,0.3-0.2,0.5-0.4
	c0.2-0.2,0.7-0.7,1.5-0.8c0.6,0,1.3,0.3,1.9,0.8l-0.5,0.5c-0.5-0.4-0.9-0.7-1.4-0.6c-0.5,0-0.9,0.4-1,0.5c-0.2,0.2-0.4,0.4-0.7,0.5
	C81,56.8,80.6,56.9,80.2,56.9z"/><path class="st2" d="M82.2,62.4c-0.3-1.6-2.6-0.9-2.6-0.9l-5.2,1c0-0.3,9.7,10.3,15.1-2.9l-5.2,1C84.2,60.6,81.9,60.8,82.2,62.4"/><path class="st2" d="M89.8,38.4l0.2,0c2.4,0,4.6,1.2,6.1,3.2l-12.4-0.1C85.1,39.5,87.4,38.4,89.8,38.4"/><path class="st2" d="M70.4,38.4l-0.2,0c-2.4,0-4.6,1.2-6.1,3.2l12.4-0.1C75,39.5,72.8,38.4,70.4,38.4"/><path class="st5" d="M75.5,49c0,0-1.4-2.9-4-3.8s-5.5,0.5-5.5,0.5s1,2.4,3.7,3.3C72.3,49.9,75.5,49,75.5,49"/><path class="st2" d="M72.7,46.9c0,1.2-1,2.3-2.3,2.3c-1.2,0-2.3-1-2.3-2.3s1-2.3,2.3-2.3C71.7,44.6,72.7,45.6,72.7,46.9"/><path class="st2" d="M75.5,48.9c-0.7-4.7-6.6-6.6-10.2-4.5c0.2,0.4,0.6,1.1,0.9,1.4c0.8-0.5,5-2.2,8.7,2.4
	C75.2,48.6,75.2,48.7,75.5,48.9"/><path class="st2" d="M61.7,51.6v-10c0-8.3,6.6-15,14.8-15l2.5-1.7V22h2.2l0,2.9l2.5,1.7c8.2,0,14.8,6.7,14.8,15v10h2.9V32.3
	c0-9-7.3-16.3-16.3-16.3H75c-9,0-16.3,7.3-16.3,16.3v19.4H61.7z"/><path class="st6" d="M60.3,43.6L60.3,43.6c0-10.3,8.4-18.7,18.7-18.7C79,35.2,70.6,43.6,60.3,43.6"/><path class="st6" d="M99.9,44.5L99.9,44.5c0-10.3-8.4-19.6-18.7-19.6C81.1,35.2,89.5,44.5,99.9,44.5"/><path class="st7" d="M101.4,38.9v-3.4c0-8.7-7.4-15.7-16.6-15.7h-9.4c-9.2,0-16.6,7.1-16.6,15.7v3.1c-3.7,0.8-6.4,3.1-6.4,5.9v6.1
	c0,2.8,2.7,5.1,6.5,5.9v1c0,7,5.7,12.7,12.7,12.7h0.8c0.5,1,1.5,1.6,2.7,1.6h2.4c1.7,0,3-1.3,3-3c0-1.7-1.3-3-3-3h-2.4
	c-1.2,0-2.1,0.6-2.7,1.6h-0.8c-5.4,0-9.9-4.4-9.9-9.9v-4.2h0V38.3h0c0,0,0,0,0,0v-2.8c0-7.1,6.1-12.8,13.7-12.8h9.4
	c7.6,0,13.7,5.8,13.7,12.8v16h0v5.2h0c5.1,0,9.3-2.7,9.3-6v-6C107.8,42,105.1,39.7,101.4,38.9z"/><path class="st2" d="M84.2,46.7L84.2,46.7c0.3-0.3,0.7-0.4,1.1-0.1c5.5,4,9.8-1.6,9.8-1.6s-0.4,0.9-1.3,1.9c-2.3,2.6-6.2,3-9.2,1.2
	c-0.1,0-0.1-0.1-0.2-0.1C84,47.6,83.9,47,84.2,46.7L84.2,46.7z"/></svg>