<svg viewBox="0 0 160 160" fill="none" xmlns="http://www.w3.org/2000/svg"><path d="M72.23 96C72.23 96 62.49 82.46 48.31 80.35C34.12 78.24 20.85 88.35 20.85 88.35C20.85 88.35 28.46 99.45 42.65 101.57C56.84 103.68 72.23 96.01 72.23 96.01V96Z" fill="#DCF2FF"/><path d="M72.23 95.99C64.32 72.9 32.37 68.42 16 83.04C17.48 84.63 20.33 87.9 21.8 89.49C25.42 86.26 45.01 73.71 68.62 93.14C70.05 94.32 70.31 94.88 72.22 95.98L72.23 95.99Z" fill="black"/><path d="M87.77 96C87.77 96 97.51 82.46 111.69 80.35C125.88 78.24 139.15 88.35 139.15 88.35C139.15 88.35 131.54 99.45 117.35 101.57C103.16 103.68 87.77 96.01 87.77 96.01V96Z" fill="#DCF2FF"/><path d="M120.96 85.5C114.59 84.3 108.46 88.48 107.26 94.84C106.8 97.26 107.13 99.64 108.05 101.73C111.09 102.02 114.25 102.03 117.34 101.56C121.58 100.93 125.23 99.49 128.27 97.78C128.99 96.4 129.54 94.92 129.92 93.38C128.64 89.45 125.31 86.31 120.96 85.49V85.5Z" fill="black"/><path d="M61.71 99.87C62.12 98.27 62.2 96.56 61.87 94.84C60.67 88.48 54.54 84.3 48.17 85.5C41.8 86.7 37.62 92.82 38.82 99.18C38.93 99.76 39.1 100.32 39.28 100.87C40.36 101.15 41.47 101.39 42.64 101.57C49.3 102.56 56.23 101.4 61.7 99.88L61.71 99.87Z" fill="black"/><path d="M87.77 95.99C95.68 72.9 127.63 68.42 144 83.04C142.52 84.63 139.67 87.9 138.2 89.49C134.58 86.26 114.99 73.71 91.38 93.14C89.95 94.32 89.69 94.88 87.78 95.98L87.77 95.99Z" fill="black"/><path d="M68.81 47.67H68.73L67.42 40.97C66.76 37.55 63.76 35.09 60.27 35.09C57.73 35.09 55.38 36.41 54.06 38.57L48.49 47.68H47.87C45.76 47.68 43.8 48.74 42.69 50.47L22.88 81.65H27.31L39.31 66.66H62.85L70.04 81.65H75.67L68.8 47.68L68.81 47.67Z" fill="#463EC5"/><path d="M117.4 50.46C116.3 48.73 114.34 47.67 112.22 47.67H111.29L106.03 39.07C104.71 36.91 102.35 35.59 99.82 35.59C96.34 35.59 93.34 38.06 92.67 41.47L91.46 47.67H91.28L84.41 81.64L98.04 68.62L122.69 66.65L137.2 81.64L117.39 50.46H117.4Z" fill="#463EC5"/><path d="M48.97 115.74C33.79 115.74 21.45 103.41 21.45 88.25C21.45 73.09 33.8 60.76 48.97 60.76C64.14 60.76 76.4899 73.09 76.4899 88.25C76.4899 103.41 64.14 115.74 48.97 115.74ZM48.97 68.62C38.13 68.62 29.32 77.43 29.32 88.25C29.32 99.07 38.14 107.88 48.97 107.88C59.7999 107.88 68.62 99.07 68.62 88.25C68.62 77.43 59.7999 68.62 48.97 68.62Z" fill="#7070FF"/><path d="M79.85 83.89C84.6162 83.89 88.48 80.0307 88.48 75.27C88.48 70.5093 84.6162 66.65 79.85 66.65C75.0838 66.65 71.22 70.5093 71.22 75.27C71.22 80.0307 75.0838 83.89 79.85 83.89Z" fill="#7070FF"/><path opacity="0.5" d="M110.85 108.39C121.702 108.39 130.5 99.6014 130.5 88.76C130.5 77.9187 121.702 69.13 110.85 69.13C99.9976 69.13 91.2 77.9187 91.2 88.76C91.2 99.6014 99.9976 108.39 110.85 108.39Z" fill="#DCF2FF"/><path opacity="0.5" d="M48.9699 107.88C59.8223 107.88 68.6199 99.0913 68.6199 88.25C68.6199 77.4086 59.8223 68.62 48.9699 68.62C38.1176 68.62 29.3199 77.4086 29.3199 88.25C29.3199 99.0913 38.1176 107.88 48.9699 107.88Z" fill="#DCF2FF"/><path d="M110.85 61.27C95.67 61.27 83.33 73.6 83.33 88.76C83.33 103.92 95.68 116.25 110.85 116.25C126.02 116.25 138.37 103.92 138.37 88.76C138.37 73.6 126.02 61.27 110.85 61.27ZM110.85 108.39C100.01 108.39 91.2 99.58 91.2 88.76C91.2 77.94 100.02 69.13 110.85 69.13C121.68 69.13 130.5 77.94 130.5 88.76C130.5 90.36 130.29 91.9 129.93 93.39C129.55 94.94 129 96.41 128.28 97.79C125 104.08 118.42 108.39 110.85 108.39Z" fill="#7070FF"/></svg>