<svg viewBox="0 0 160 160" fill="none" xmlns="http://www.w3.org/2000/svg"><path fill-rule="evenodd" clip-rule="evenodd" d="M138 74.195C138 106.335 112.032 132.39 79.9995 132.39C47.967 132.39 22 106.335 22 74.195C22 42.055 47.967 16 79.9995 16C112.032 16 138 42.055 138 74.195Z" fill="#D3E8F3"/><path fill-rule="evenodd" clip-rule="evenodd" d="M97.3887 65.2438C99.3375 63.5288 100.574 61.0178 100.574 58.2118C100.574 53.0428 96.3989 48.8528 91.2473 48.8528C86.0958 48.8528 81.9202 53.0428 81.9202 58.2118C81.9202 61.0178 83.1562 63.5288 85.106 65.2438C80.09 67.5758 76.6022 72.6578 76.6022 78.5698C76.6022 86.6848 83.1592 93.2638 91.2473 93.2638C99.3355 93.2638 105.891 86.6848 105.891 78.5698C105.891 72.6578 102.405 67.5758 97.3887 65.2438Z" fill="white"/><path fill-rule="evenodd" clip-rule="evenodd" d="M74.958 58.3352L82.6903 59.6262V57.0442L74.958 58.3352Z" fill="#FF6200"/><path fill-rule="evenodd" clip-rule="evenodd" d="M88.7997 105.546L75.4434 87.1916L84.8144 86.1676L73.9323 73.2456L80.7584 74.2746L68.7409 51.6326L56.7821 70.6596L65.2121 71.9306L52.2645 89.7236L60.881 88.7826L48.682 105.546H88.7997Z" fill="#006931"/><path fill-rule="evenodd" clip-rule="evenodd" d="M84.4779 55.1589C84.4779 55.5259 84.774 55.8229 85.1398 55.8229C85.5046 55.8229 85.8007 55.5259 85.8007 55.1589C85.8007 54.7919 85.5046 54.4949 85.1398 54.4949C84.774 54.4949 84.4779 54.7919 84.4779 55.1589Z" fill="#171111"/><path fill-rule="evenodd" clip-rule="evenodd" d="M83.3653 62.5323C82.9735 62.5323 82.7044 62.5003 82.6655 62.4953L82.7184 62.0703C82.7513 62.0743 86.0826 62.4613 86.8113 60.2683L87.217 60.4033C86.596 62.2743 84.4827 62.5323 83.3653 62.5323Z" fill="#171111"/><path fill-rule="evenodd" clip-rule="evenodd" d="M100.246 54.1547L83.6964 51.5127L84.1539 48.6277L100.704 51.2707L100.246 54.1547Z" fill="#232144"/><path fill-rule="evenodd" clip-rule="evenodd" d="M99.666 51.4636L85.0807 49.1346L84.9969 40.5586L102.399 43.3366L99.666 51.4636Z" fill="#232144"/><path fill-rule="evenodd" clip-rule="evenodd" d="M99.7834 51.1195L85.0775 48.7755L85.0615 47.1335L100.284 49.6195L99.7834 51.1195Z" fill="#006931"/><path fill-rule="evenodd" clip-rule="evenodd" d="M71.3287 48.5731L75.7247 49.5371L71.6806 51.517L72.1252 56.0091L68.9992 52.7621L64.8784 54.5751L66.9906 50.5881L63.9982 47.2161L68.43 47.9991L70.7017 44.1021L71.3287 48.5731Z" fill="#FF6200"/><path fill-rule="evenodd" clip-rule="evenodd" d="M73.3426 54.9988L69.6245 53.1178L69.8169 52.7348L72.1913 53.9358L70.2904 50.8268L70.6552 50.6028L73.3426 54.9988Z" fill="#171111"/><path fill-rule="evenodd" clip-rule="evenodd" d="M84.8494 65.0095C84.8494 65.0095 90.895 67.6815 97.3334 65.2915C97.3334 65.2915 99.4497 65.9115 100.685 67.5045C100.685 67.5045 96.522 71.6535 81.6167 67.4945L84.8494 65.0095Z" fill="#FF6200"/><path fill-rule="evenodd" clip-rule="evenodd" d="M97.333 65.2918L100.684 63.9648C100.684 63.9648 105.359 62.1948 109.063 64.1418C109.063 64.1418 113.209 67.0618 119.295 65.3808V68.9198C113.209 70.6018 109.063 67.6808 109.063 67.6808C105.359 65.7338 100.684 67.5038 100.684 67.5038" fill="#FF6200"/><path fill-rule="evenodd" clip-rule="evenodd" d="M90.6403 71.2705L72.5691 54.5765L71.7797 50.3915L72.1993 50.3115L72.9639 54.3575L90.9304 70.9545L90.6403 71.2705Z" fill="#171111"/><path fill-rule="evenodd" clip-rule="evenodd" d="M129.625 104.89C127.622 104.397 125.707 103.439 123.927 102.417C120.995 100.733 118.557 98.3543 115.902 96.2863C113.127 94.1243 110.151 92.6883 106.803 91.6463C99.9172 89.5023 92.1819 88.8773 85.274 91.2723C78.3731 93.6643 72.2128 97.5513 64.973 99.0833C61.6247 99.7923 58.2575 100.557 54.8244 100.685C53.1249 100.749 51.3904 100.669 49.7357 100.248C47.8627 99.7713 46.3964 99.3533 44.4486 99.5503C42.9763 99.6993 41.517 99.8803 40.0686 100.194C36.7592 100.913 33.3082 102.195 30.9578 104.746" fill="white"/><path fill-rule="evenodd" clip-rule="evenodd" d="M134.986 144H25.0942L30.4551 104.466H129.625L134.986 144Z" fill="#232144"/><path fill-rule="evenodd" clip-rule="evenodd" d="M39.7471 69.0285C39.7471 70.4525 38.5968 71.6075 37.1763 71.6075C35.7569 71.6075 34.6066 70.4525 34.6066 69.0285C34.6066 67.6045 35.7569 66.4495 37.1763 66.4495C38.5968 66.4495 39.7471 67.6045 39.7471 69.0285Z" fill="white"/><path fill-rule="evenodd" clip-rule="evenodd" d="M116.066 56.5302C116.066 57.9542 114.916 59.1092 113.495 59.1092C112.076 59.1092 110.925 57.9542 110.925 56.5302C110.925 55.1062 112.076 53.9512 113.495 53.9512C114.916 53.9512 116.066 55.1062 116.066 56.5302Z" fill="white"/><path fill-rule="evenodd" clip-rule="evenodd" d="M54.7194 39.5413C54.7194 40.4573 53.9788 41.2003 53.0657 41.2003C52.1526 41.2003 51.412 40.4573 51.412 39.5413C51.412 38.6253 52.1526 37.8823 53.0657 37.8823C53.9788 37.8823 54.7194 38.6253 54.7194 39.5413Z" fill="white"/><path fill-rule="evenodd" clip-rule="evenodd" d="M80.576 26.4618C80.576 26.9478 80.1833 27.3408 79.6998 27.3408C79.2154 27.3408 78.8236 26.9478 78.8236 26.4618C78.8236 25.9758 79.2154 25.5828 79.6998 25.5828C80.1833 25.5828 80.576 25.9758 80.576 26.4618Z" fill="white"/><path fill-rule="evenodd" clip-rule="evenodd" d="M116.296 47.6915C116.296 48.1775 115.903 48.5705 115.42 48.5705C114.935 48.5705 114.544 48.1775 114.544 47.6915C114.544 47.2055 114.935 46.8125 115.42 46.8125C115.903 46.8125 116.296 47.2055 116.296 47.6915Z" fill="white"/><path fill-rule="evenodd" clip-rule="evenodd" d="M79.3693 45.4312C79.3693 45.9172 78.9766 46.3102 78.4931 46.3102C78.0087 46.3102 77.6169 45.9172 77.6169 45.4312C77.6169 44.9452 78.0087 44.5522 78.4931 44.5522C78.9766 44.5522 79.3693 44.9452 79.3693 45.4312Z" fill="white"/><path fill-rule="evenodd" clip-rule="evenodd" d="M44.846 80.7747C44.846 81.6277 44.1562 82.3197 43.3059 82.3197C42.4557 82.3197 41.7659 81.6277 41.7659 80.7747C41.7659 79.9217 42.4557 79.2297 43.3059 79.2297C44.1562 79.2297 44.846 79.9217 44.846 80.7747Z" fill="white"/><path fill-rule="evenodd" clip-rule="evenodd" d="M116.929 84.6285C116.929 85.5445 116.188 86.2875 115.275 86.2875C114.362 86.2875 113.621 85.5445 113.621 84.6285C113.621 83.7125 114.362 82.9695 115.275 82.9695C116.188 82.9695 116.929 83.7125 116.929 84.6285Z" fill="white"/></svg>