<?xml version="1.0" encoding="utf-8"?><!--Generator: Adobe Illustrator 27.8.0, SVG Export Plug-In . SVG Version: 6.00 Build 0)--><svg version="1.1" xmlns="http://www.w3.org/2000/svg" xmlns:xlink="http://www.w3.org/1999/xlink" x="0px" y="0px" viewBox="0 0 160 160" style="enable-background:new 0 0 160 160;" xml:space="preserve"><style type="text/css">.st0{fill:#7070FF;}
	.st1{fill:#FFC4B8;}
	.st2{fill:#F5836D;}
	.st3{fill:#693725;}
	.st4{fill:#420F0F;}
	.st5{fill:#9E3F39;}
	.st6{fill:#7A2F37;}
	.st7{fill:#463EC5;}
	.st8{fill:#D8CBC5;}
	.st9{fill:none;stroke:#171111;stroke-width:0.7438;stroke-miterlimit:10;}
	.st10{fill:#FFFFFF;}
	.st11{fill:#8F411F;}
	.st12{fill:#E3944F;}
	.st13{fill:#F0A86B;}
	.st14{fill:#006931;}
	.st15{fill:#BAC09A;}
	.st16{fill:#FF6200;}
	.st17{fill:#232144;}
	.st18{fill:#E2F3E8;}
	.st19{fill:#FBB03B;}
	.st20{fill:#FFD4D2;}
	.st21{fill:#F99F5B;}
	.st22{fill:#BF7461;}
	.st23{fill:#A86554;}
	.st24{fill:none;stroke:#000000;stroke-width:0.5209;stroke-miterlimit:10;}
	.st25{fill:#FCE3CA;}
	.st26{fill:#8B181D;}
	.st27{fill:#FFA28F;}
	.st28{fill:none;stroke:#000000;stroke-width:0.7341;stroke-miterlimit:10;}
	.st29{fill:#BA251D;}
	.st30{fill:#9F5621;}
	.st31{fill:#E6E3DA;}
	.st32{fill:#E6E6E6;}
	.st33{fill:#FFC6AD;}
	.st34{fill:#F5B091;}
	.st35{fill:none;stroke:#000000;stroke-width:0.4422;stroke-miterlimit:10;}
	.st36{fill:#8A1229;}
	.st37{clip-path:url(#SVGID_00000123406785249405513550000000112977768392916137_);}
	.st38{clip-path:url(#SVGID_00000126296541146258271380000001843531215163758727_);}
	.st39{clip-path:url(#SVGID_00000126293302505225450450000003285364717566580611_);fill:#FFFFFF;}
	.st40{fill:#5D2B1A;}
	.st41{clip-path:url(#SVGID_00000049923446898803883380000016932325233232841914_);fill:#FFFFFF;}
	.st42{fill:#C9E8D7;}
	.st43{fill:#763427;}
	.st44{fill:none;stroke:#A86554;stroke-width:1.2912;stroke-miterlimit:10;}
	.st45{fill:#891229;}
	.st46{clip-path:url(#SVGID_00000170263832981437665800000011174867653318073484_);}</style><g id="Design"><rect x="63.1" y="16" class="st18" width="81" height="76.7"/><path class="st21" d="M68.9,37.4c-0.1-0.1,7.8,1.4,7.8,1.4v50.6c0,0-7.2,0-7.2,0C61.2,68.8,80.8,52.1,68.9,37.4"/><polygon class="st22" points="18.3,125.2 22.6,94.2 40,97.1 33.8,125.2 	"/><path class="st14" d="M23.7,85.7c-0.5-7.2,4.8-13.4,12-14c7.2-0.5,13.4,4.8,14,12S41.5,102,41.5,102S24.3,92.9,23.7,85.7"/><polygon class="st14" points="89.3,131.4 90.2,71.7 36.3,71.7 36.8,131.4 	"/><path class="st23" d="M71.9,71V58.3l-19.6,0V71c0,5.4,4.4,9.8,9.8,9.8C67.5,80.8,71.9,76.4,71.9,71"/><rect x="49.9" y="70.1" class="st14" width="25" height="11.1"/><path class="st21" d="M54.8,37.4c0.1-0.1-7.8,1.4-7.8,1.4V102c0,0,7.2,0,7.2,0C62.5,81.3,42.9,52.1,54.8,37.4"/><path class="st22" d="M44.4,50.4c0,2.2,1.8,4,4,4c2.2,0,4-1.8,4-4c0-2.2-1.8-4-4-4C46.1,46.4,44.4,48.2,44.4,50.4"/><path class="st22" d="M71.3,50.4c0,2.2,1.8,4,4,4c2.2,0,4-1.8,4-4c0-2.2-1.8-4-4-4C73.1,46.4,71.3,48.2,71.3,50.4"/><path class="st16" d="M74.8,51.2h-3.6v10.7h7.1v-7.1C78.4,52.8,76.8,51.2,74.8,51.2"/><path class="st16" d="M48.8,52.9L48.8,52.9c-2,0-3.6,1.6-3.6,3.6v7.1h7.1v-7.1C52.4,54.5,50.8,52.9,48.8,52.9"/><path class="st22" d="M74.8,56.4V38.1c0-5.8-4.7-10.5-10.5-10.5h-5c-5.8,0-10.5,4.7-10.5,10.5v18.3c0,5.8,4.7,10.5,10.5,10.5h5
		C70.1,66.9,74.8,62.2,74.8,56.4"/><path class="st24" d="M65.2,54.6c0,0-0.9-1.1-1.8-0.3c-0.3,0.3-0.7,0.5-1.1,0.6c-0.3,0.1-0.7,0.1-1.1-0.1c-0.2-0.1-0.3-0.2-0.4-0.3
		c-0.2-0.2-1-0.9-2,0.1"/><path class="st25" d="M55.4,41.7l-0.2,0c-1.7,0-3.2,0.8-4.2,2.2l8.7,0C58.6,42.5,57,41.7,55.4,41.7"/><path class="st25" d="M68.9,41.7l0.2,0c1.7,0,3.2,0.8,4.2,2.2l-8.7,0C65.7,42.5,67.2,41.7,68.9,41.7"/><path class="st21" d="M74.6,50v-5.4c0-5.8-4.6-10.5-10.4-10.5h-1.7v-3.2H61v3.2h-1.7c-5.7,0-10.4,4.7-10.4,10.5V50h-2V38
		c0-6.3,5.1-11.4,11.4-11.4h7c6.3,0,11.4,5.1,11.4,11.4V50H74.6z"/><path class="st26" d="M50.8,34.2c0,2.8,2.3,5.1,5.1,5.1c2.8,0,5.1-2.3,5.1-5.1c0-2.8-2.3-5.1-5.1-5.1C53.1,29,50.8,31.3,50.8,34.2"/><path class="st21" d="M44.9,41.1h6.7c7.8,0,14.2-6.4,14.2-14.2h-6.7C51.2,26.9,44.9,33.3,44.9,41.1"/><path class="st21" d="M78.9,41.1h-6.7c-7.8,0-14.2-6.4-14.2-14.2h6.7C72.6,26.9,78.9,33.3,78.9,41.1"/><rect x="61.4" y="31.8" transform="matrix(-1 -4.425050e-11 4.425050e-11 -1 123.6141 69.4554)" class="st22" width="0.8" height="5.9"/><polygon class="st14" points="87.6,123.2 105.9,117.8 102.5,82.6 78.9,82.6 	"/><path class="st14" d="M102.7,85.7c0.5-7.2-4.8-13.4-12-14c-7.2-0.5-13.4,4.8-14,12s8.2,18.2,8.2,18.2S102.2,92.9,102.7,85.7"/><polygon class="st22" points="98.4,98.4 105.2,82.9 116.5,85.5 106,108.8 	"/><path class="st22" d="M88.4,117.5l17.4-33.2l11.3-2.3l-12.3,42.1c-1.6,5.1-7.2,7.7-12.1,5.5l0,0C88.1,127.6,86.1,122,88.4,117.5"/><path class="st22" d="M116.1,82.1l9.8-2.7c1.1-0.1,1.8-1.1,1.7-2.2l0,0c-0.1-1.1-1.1-1.8-2.2-1.7L113,77.1
		c-1.1,0.1-3.7,2.2-3.5,3.3l2.8-1C112.5,80.5,115,82.3,116.1,82.1z"/><path class="st22" d="M105.1,83c0.1-0.2,4.8-5.8,8.5-5.9c1.6,0,2.9,0.7,3.5,1.1l7.6,3.5l14.6-2.2c1-0.1,1.8,1.2,1.6,2.3
		c-0.3,1.1-1.4,1.8-2.5,1.5l-15.9,0.5C121.5,83.7,109.3,83.6,105.1,83z"/><path class="st22" d="M114.4,88.5l-8.9-4.3l3.9-4.8l15.5,2.3l14.5,1.7c-1.7,0.1-11.2,3.1-11.2,3.1L114.4,88.5z"/><path class="st10" d="M65.1,49.3c0,0,1-2.1,2.8-2.7c1.9-0.6,3.9,0.4,3.9,0.4s-0.7,1.7-2.6,2.3C67.3,49.9,65.1,49.3,65.1,49.3"/><path d="M65.1,49.3c0.5-3.3,4.7-4.7,7.2-3.2c-0.2,0.3-0.5,0.8-0.6,1c-0.6-0.3-3.5-1.5-6.2,1.7C65.3,49,65.3,49.1,65.1,49.3"/><g><defs><path id="SVGID_1_" d="M71.9,47c0,0-0.7,1.7-2.6,2.3c-1.9,0.6-4.1,0-4.1,0s1-2.1,2.8-2.7c0.4-0.2,0.9-0.2,1.3-0.2
				C70.7,46.4,71.9,47,71.9,47"/></defs><clipPath id="SVGID_00000146462435506096040960000016734248792641984645_"><use xlink:href="#SVGID_1_" style="overflow:visible;"/></clipPath><path style="clip-path:url(#SVGID_00000146462435506096040960000016734248792641984645_);" d="M68.1,47.1c0,0.9,0.7,1.6,1.6,1.6
			s1.6-0.7,1.6-1.6c0-0.9-0.7-1.6-1.6-1.6S68.1,46.2,68.1,47.1"/></g><path class="st10" d="M58.6,49.3c0,0-1-2.1-2.8-2.7c-1.9-0.6-3.9,0.4-3.9,0.4s0.7,1.7,2.6,2.3C56.3,49.9,58.6,49.3,58.6,49.3"/><path d="M58.6,49.3c-0.5-3.3-4.7-4.7-7.2-3.2c0.2,0.3,0.5,0.8,0.6,1c0.6-0.3,3.5-1.5,6.2,1.7C58.3,49,58.3,49.1,58.6,49.3"/><g><defs><path id="SVGID_00000179639692821428950580000004032551352988502719_" d="M55.4,46.3c1.9,0.6,2.8,2.7,2.8,2.7s-2.3,0.6-4.1,0
				c-1.9-0.6-2.6-2.3-2.6-2.3s1.2-0.6,2.6-0.6C54.5,46.1,55,46.1,55.4,46.3"/></defs><clipPath id="SVGID_00000132077148732374063150000009810712778298733205_"><use xlink:href="#SVGID_00000179639692821428950580000004032551352988502719_" style="overflow:visible;"/></clipPath><path style="clip-path:url(#SVGID_00000132077148732374063150000009810712778298733205_);" d="M58.1,47.7c0,0.9-0.7,1.6-1.6,1.6
			s-1.6-0.7-1.6-1.6c0-0.9,0.7-1.6,1.6-1.6S58.1,46.8,58.1,47.7"/></g><path class="st3" d="M56.7,59.6l1.9-1.1c2-1.8,5-1.6,6.8,0.3l1.4,1.1l-1.7,2.2c-2,1.8-5,1.6-6.8-0.3L56.7,59.6z"/><path d="M58.8,60l1.1-0.8c1.1-1,2.9-0.9,3.9,0.2l0.8,0.8l-1,1.1c-1.1,1-2.9,0.9-3.9-0.2L58.8,60z"/><g><defs><path id="SVGID_00000035521635618031616880000004323671725087466430_" d="M63.6,61.3l1-1.1l-0.8-0.8c-1-1.1-2.8-1.2-3.9-0.2
				L58.8,60l1,1.1c0.5,0.6,1.2,0.9,1.9,0.9C62.4,62.1,63.1,61.8,63.6,61.3"/></defs><clipPath id="SVGID_00000106139403518595494380000005976157673409735849_"><use xlink:href="#SVGID_00000035521635618031616880000004323671725087466430_" style="overflow:visible;"/></clipPath><rect x="59.1" y="57.9" style="clip-path:url(#SVGID_00000106139403518595494380000005976157673409735849_);fill:#FFFFFF;" width="5" height="1.5"/></g><rect x="87.9" y="27.6" class="st42" width="5.4" height="31.5"/><rect x="94.3" y="39.3" class="st42" width="5.4" height="19.9"/><rect x="106.5" y="33.4" class="st42" width="5.4" height="25.7"/><rect x="112.9" y="28.4" class="st42" width="5.4" height="30.7"/><rect x="102.2" y="49" transform="matrix(6.123234e-17 -1 1 6.123234e-17 38.864 167.5943)" class="st42" width="2" height="30.7"/><rect x="124.4" y="33.4" class="st42" width="5.4" height="25.7"/><rect x="130.9" y="28.4" class="st42" width="5.4" height="30.7"/><path class="st22" d="M34.1,119.4l3.5,24.6H22.2l-3.8-18.6c-1.5-6.1,0.1-10.1,4.9-11.7l0,0C27.8,112.1,32.8,114.7,34.1,119.4"/><polygon class="st14" points="38.4,123.9 16,119 24,81.8 38.8,81.8 	"/><path class="st16" d="M95,144c-2.9-9.8-5.7-14.4-5.7-14.4H37c0,0-3,4.7-5.9,14.4H95z"/></g><g id="stramien"/></svg>