<?xml version="1.0" encoding="utf-8"?><!--Generator: Adobe Illustrator 27.8.0, SVG Export Plug-In . SVG Version: 6.00 Build 0)--><svg version="1.1" id="Ebene_1" xmlns="http://www.w3.org/2000/svg" xmlns:xlink="http://www.w3.org/1999/xlink" x="0px" y="0px" viewBox="0 0 160 160" style="enable-background:new 0 0 160 160;" xml:space="preserve"><style type="text/css">.st0{fill:#F7931E;}
	.st1{fill:#7070FF;}
	.st2{fill:#232144;}
	.st3{fill:#F7E5CD;}
	.st4{fill:#ABB8B9;}</style><g><rect x="115.8" y="18.7" transform="matrix(-0.8544 -0.5196 0.5196 -0.8544 198.9606 128.3311)" class="st0" width="3.4" height="35.2"/><polygon class="st0" points="129.2,22.8 135,26.3 110.9,52.9 	"/><polygon class="st0" points="123.8,19.5 118,16 105.5,49.6 	"/><path class="st1" d="M121.7,93.3c-10.3,18.1-31.9,22.3-44.5,34c-0.4,0.4,25.3-44.8,25.3-44.8L121.7,93.3z"/><path class="st2" d="M81.2,124.8c3.9-3.5,7.3-5.6,10.8-7.1c8.3-4.3,22.4-10.2,30.1-24.2c-0.2-0.1-2.2-1.3-2.4-1.4
		C107.4,115.2,87.4,113.8,81.2,124.8z"/><path class="st1" d="M66.2,61.8c-10.3,18.1-2.7,38.8-6.3,55.6c-0.1,0.6,25.3-44.9,25.3-44.9L66.2,61.8z"/><path class="st2" d="M60,112.8c1-5.1,1-9.1,0.6-12.9c-0.6-9.4-2.7-24.4,5.3-38.3c0.2,0.1,2.2,1.3,2.4,1.4
		C54.7,85.4,66.2,101.8,60,112.8z"/><path class="st3" d="M57.2,117.7c-3.2,7-1.9,15.7-1.1,20.1c0.5,2.6,3.1,4.4,5.7,3.2c4.2-2,12.4-5.2,16.7-11.2l0.1,0l42.2-74.5
		L99.3,43.1L57.2,117.7L57.2,117.7z"/><circle class="st2" cx="81" cy="100.3" r="5.2"/><polygon class="st2" points="118.9,50.7 114.7,55 102.6,48.1 104.2,42.4 	"/><path class="st4" d="M94,135.8c-0.6,0-1.1,0.1-1.7,0.1c-1.5-3-4.7-5-8.3-5c-0.2,0-0.5,0-0.7,0c-0.7-4.3-4.5-7.6-9.1-7.6
		c-0.9,0-1.8,0.1-2.6,0.4c-0.4-3-3-5.3-6.2-5.3c-3.1,0-5.7,2.2-6.1,5.2c-0.7-0.2-1.5-0.3-2.3-0.3c-4.3,0-7.9,2.8-8.9,6.6
		c-1-0.4-2.1-0.6-3.3-0.6c-4.2,0-7.8,2.8-8.9,6.5c-0.5-0.1-1-0.1-1.5-0.1c-4.8,0-8.8,3.6-9.2,8.2h78.2
		C102.8,139.4,98.8,135.8,94,135.8z"/></g></svg>