<?xml version="1.0" encoding="utf-8"?><!--Generator: Adobe Illustrator 28.0.0, SVG Export Plug-In . SVG Version: 6.00 Build 0)--><svg version="1.1" xmlns="http://www.w3.org/2000/svg" xmlns:xlink="http://www.w3.org/1999/xlink" x="0px" y="0px" viewBox="0 0 160 160" style="enable-background:new 0 0 160 160;" xml:space="preserve"><style type="text/css">.st0{fill:none;stroke:#3867C3;stroke-width:2;stroke-linejoin:round;stroke-miterlimit:10;}
	.st1{fill:#F7931E;}
	.st2{fill:#FBB03B;}
	.st3{fill:#232144;}
	.st4{fill:#E6E3DA;}
	.st5{fill:#7070FF;}
	.st6{fill:#006931;}
	.st7{fill:#3867C3;}</style><g id="Design"><polygon class="st0" points="119.6,32.1 105.4,90.4 133.8,90.4 	"/><polygon class="st0" points="39.4,32.1 25.2,90.4 53.6,90.4 	"/><g><path class="st1" d="M18.2,88.3V97c0,2.2,10.3,4,22.9,4c12.7,0,22.9-1.8,22.9-4v-8.6H18.2z"/><path class="st2" d="M64.1,88.3c0,2.2-10.3,4-22.9,4c-12.7,0-22.9-1.8-22.9-4c0-2.2,10.3-4,22.9-4C53.8,84.3,64.1,86.1,64.1,88.3"/><path class="st1" d="M41.3,91.6c-7.9,0-19.6-0.8-19.6-3.2c0-2.3,11.7-3.2,19.6-3.2c7.9,0,19.6,0.8,19.6,3.2
			C60.9,90.8,49.2,91.6,41.3,91.6 M41.3,85.9c-5.1,0-10,0.3-13.6,0.8c-5.3,0.8-5.4,1.7-5.4,1.7s0.1,0.9,5.4,1.7
			c3.6,0.5,8.4,0.8,13.6,0.8c5.1,0,10-0.3,13.6-0.8c5.3-0.8,5.4-1.7,5.4-1.7s-0.1-0.9-5.4-1.7C51.3,86.2,46.5,85.9,41.3,85.9"/></g><g><path class="st1" d="M16,77v8.6c0,2.2,10.3,4,22.9,4c12.7,0,22.9-1.8,22.9-4V77H16z"/><path class="st2" d="M61.9,77c0,2.2-10.3,4-22.9,4C26.3,81,16,79.2,16,77c0-2.2,10.3-4,22.9-4C51.6,72.9,61.9,74.7,61.9,77"/><path class="st1" d="M39.1,80.2c-7.9,0-19.6-0.8-19.6-3.2c0-2.3,11.7-3.2,19.6-3.2c7.9,0,19.6,0.8,19.6,3.2
			C58.7,79.4,47,80.2,39.1,80.2 M39.1,74.5c-5.1,0-10,0.3-13.6,0.8c-5.3,0.8-5.4,1.7-5.4,1.7s0.1,0.9,5.4,1.7
			c3.6,0.5,8.4,0.8,13.6,0.8c5.1,0,10-0.3,13.6-0.8c5.3-0.8,5.4-1.7,5.4-1.7s-0.1-0.9-5.4-1.7C49,74.8,44.2,74.5,39.1,74.5"/></g><g><polygon class="st3" points="94.6,83.2 119.3,57.2 144.1,83.2 		"/><polygon class="st4" points="99.1,108.5 99.1,83.3 119.3,61.6 139.5,83.3 139.5,108.5 		"/><rect x="124.7" y="87.3" class="st3" width="10.9" height="21.2"/><rect x="103.1" y="87.3" class="st5" width="16.9" height="15.3"/><path class="st6" d="M144.2,104.8c0,0.1,0,0.1,0,0.2"/></g><path class="st3" d="M50.2,132.5h59.4c3.1,0,5.7,2.6,5.7,5.7v0c0,3.1-2.6,5.7-5.7,5.7H50.2c-3.1,0-5.7-2.6-5.7-5.7v0
		C44.5,135.1,47,132.5,50.2,132.5z"/><path class="st7" d="M62.1,121.3h35.6c3.1,0,5.7,2.6,5.7,5.7v0c0,3.1-2.6,5.7-5.7,5.7H62.1c-3.1,0-5.7-2.6-5.7-5.7v0
		C56.4,123.8,59,121.3,62.1,121.3z"/><path class="st7" d="M79.9,16.1L79.9,16.1c2.4,0,4.4,2,4.4,4.4v106.4c0,2.4-2,4.4-4.4,4.4h0c-2.4,0-4.4-2-4.4-4.4V20.4
		C75.5,18,77.5,16.1,79.9,16.1z"/><path class="st3" d="M16,33.1L16,33.1c0-2.4,2-4.4,4.4-4.4h119.2c2.4,0,4.4,2,4.4,4.4v0c0,2.4-2,4.4-4.4,4.4H20.4
		C18,37.5,16,35.5,16,33.1z"/><circle class="st2" cx="79.9" cy="33" r="9.4"/><circle class="st3" cx="79.9" cy="33" r="4.7"/></g><g id="stramien"/></svg>