<svg viewBox="0 0 160 160" fill="none" xmlns="http://www.w3.org/2000/svg"><path fill-rule="evenodd" clip-rule="evenodd" d="M77.119 85.0474H68.8V58.7612C68.8 47.4832 59.608 38.3053 48.308 38.3053H43.226C32.8 38.3053 24.318 46.7735 24.318 57.1829V75.0609H16V57.1829C16 42.1946 28.214 30 43.226 30H48.308C64.194 30 77.119 42.9002 77.119 58.7612V85.0474Z" fill="#F7931E"/><path fill-rule="evenodd" clip-rule="evenodd" d="M136.227 130H62.6823C58.3903 130 54.9103 126.522 54.9103 122.232V79.1191C54.9103 74.8281 58.3903 71.3496 62.6823 71.3496H136.227C140.519 71.3496 143.999 74.8281 143.999 79.1191V122.232C143.999 126.522 140.519 130 136.227 130Z" fill="#FBB03B"/><path fill-rule="evenodd" clip-rule="evenodd" d="M106.164 95.0018C106.164 91.2774 103.16 88.2588 99.4548 88.2588C95.7498 88.2588 92.7458 91.2774 92.7458 95.0018C92.7458 97.0958 93.6958 98.968 95.1868 100.204V113.091H103.736V100.193C105.219 98.956 106.164 97.0898 106.164 95.0018Z" fill="#232144"/></svg>