<?xml version="1.0" encoding="UTF-8"?><svg id="Geldmaat" xmlns="http://www.w3.org/2000/svg" viewBox="0 0 160 160"><defs><style>.cls-1 {
        fill: #232144;
      }

      .cls-2 {
        fill: #00401e;
      }

      .cls-3 {
        fill: #e73245;
      }

      .cls-4 {
        fill: #006931;
      }

      .cls-5 {
        fill: #f7e5cd;
      }

      .cls-6 {
        fill: #f7931e;
      }

      .cls-7 {
        fill: #fbb03b;
      }</style></defs><path class="cls-7" d="M47.18,16h65.63c12.71,0,23.03,10.32,23.03,23.03v93.45c0,6.36-5.16,11.52-11.52,11.52H35.67c-6.36,0-11.52-5.16-11.52-11.52V39.03c0-12.71,10.32-23.03,23.03-23.03Z"/><rect class="cls-1" x="32.05" y="50.98" width="71" height="53.02"/><rect class="cls-5" x="87.96" y="109.29" width="40.19" height="10"/><rect class="cls-1" x="91.7" y="112.34" width="32.73" height="3.93"/><rect class="cls-5" x="108.05" y="50.98" width="20.09" height="5.79"/><path class="cls-2" d="M118.1,86.24c-4.84,0-8.76-3.92-8.76-8.76s3.92-8.76,8.76-8.76"/><path class="cls-4" d="M118.1,68.73c4.84,0,8.76,3.92,8.76,8.76s-3.92,8.76-8.76,8.76"/><rect class="cls-5" x="111.45" y="76.98" width="13.3" height="1.01"/><rect class="cls-1" x="110" y="52.68" width="16.19" height=".94"/><path class="cls-1" d="M126.19,53.07h-16.19v.6h5.91c.15,1.09,1.05,1.95,2.19,1.95s2.04-.86,2.19-1.95h5.91v-.6Z"/><path class="cls-1" d="M95.19,30.08c.73-.62,1.55-.78,2.47-.57,1.01.22,1.74,1.06,1.76,2.09.02,1.29.01,2.58,0,3.88,0,.42-.35.74-.75.73-.41,0-.72-.33-.72-.76,0-1.22,0-2.43,0-3.65,0-.29-.05-.56-.28-.75-.38-.32-.82-.3-1.25-.14-.37.14-.49.48-.49.86,0,1.2,0,2.4,0,3.59,0,.32-.08.58-.38.75-.45.26-1.02-.02-1.1-.53-.01-.09-.02-.19-.02-.28,0-1.17,0-2.33,0-3.5,0-.4-.1-.75-.49-.9-.44-.17-.9-.18-1.28.17-.2.19-.25.44-.25.71,0,1.15,0,2.31,0,3.46,0,.07,0,.14,0,.21,0,.43-.32.75-.73.76-.41,0-.74-.31-.75-.74,0-.58,0-1.16,0-1.74,0-.67,0-1.35,0-2.02.01-1.28.92-2.16,2.18-2.27.85-.07,1.18.05,2.06.64M70,36.21c-.06.77-.47,1.17-1.24,1.19-.68.02-1.32-.16-1.93-.45-.4-.18-.8-.07-.97.29-.18.38-.05.78.35.97.97.45,1.99.66,3.05.49.78-.12,1.45-.46,1.87-1.18.25-.44.35-.94.36-1.44.03-1.42.05-2.84.01-4.25-.02-.84-.42-1.52-1.16-1.95-.99-.58-2.04-.62-3.1-.23-.92.33-1.46,1.02-1.62,1.97-.13.8-.1,1.6.12,2.38.13.47.36.87.76,1.17.72.54,1.54.73,2.42.63.36-.04.72-.12,1.08-.18,0,.2.01.39,0,.58M70.03,34.04c0,.07-.06.19-.11.2-.61.16-1.23.3-1.86.18-.61-.12-.95-.51-1.01-1.2-.03-.42-.03-.86.02-1.28.07-.65.48-1.05,1.13-1.12.33-.03.67-.02.99.06.53.12.8.51.83,1.1.02.35,0,.69,0,1.04h0c0,.34,0,.68,0,1.02M87.78,29.65c-.84-.31-1.68-.3-2.52-.05-.92.28-1.51.9-1.7,1.84-.18.88-.17,1.79-.01,2.67.15.85.64,1.49,1.46,1.82.82.33,1.66.36,2.5.14,1.28-.34,2.03-1.49,1.98-2.63-.03-.53,0-1.06,0-1.59,0-1.41,0-2.82,0-4.24,0-.53-.45-.87-.95-.73-.32.09-.53.35-.53.72-.01.61,0,1.22,0,1.83v.27c-.1-.03-.15-.04-.2-.06M87.96,33.65c-.07.71-.45,1.08-1.15,1.15-.28.03-.57.02-.85-.02-.51-.06-.84-.38-.95-.87-.15-.74-.16-1.49,0-2.23.11-.49.45-.77.96-.84.65-.1,1.28.04,1.89.23.05.02.11.13.11.2.01.38,0,.76,0,1.13h-.02c0,.42.03.83,0,1.25M74.66,33.45c1.13,0,2.26,0,3.39,0,.52,0,.83-.31.82-.83-.01-.36-.05-.73-.12-1.09-.16-.87-.63-1.51-1.47-1.85-.74-.3-1.5-.32-2.27-.17-1.19.24-1.91,1-2.1,2.18-.12.77-.1,1.54.02,2.31.16,1.08.78,1.76,1.83,2.05,1.22.34,2.36.07,3.45-.48.3-.15.43-.53.31-.83-.13-.34-.48-.52-.83-.42-.16.05-.32.11-.48.17-.55.21-1.11.37-1.71.31-.74-.07-1.21-.62-1.14-1.37h.29M74.52,32.28c-.16,0-.19-.06-.18-.2.05-.8.49-1.23,1.28-1.27.43-.02.86-.01,1.24.24.4.27.48.69.49,1.13,0,.03-.11.09-.16.09-.45,0-.9,0-1.34,0h0c-.44,0-.88,0-1.32,0M106.74,32.05c-.03-1.06-.54-1.84-1.48-2.3-.68-.34-1.43-.39-2.18-.28-1.33.21-2.12.97-2.25,2.31-.07.74-.04,1.5.03,2.24.03.37.19.75.37,1.08.4.7,1.08.99,1.85,1.08.74.09,1.46-.02,2.16-.25.06-.02.15,0,.19.03.25.24.54.33.86.18.33-.15.45-.43.45-.78,0-.57,0-1.13,0-1.7,0-.54.01-1.07,0-1.61M105.27,34.39c0,.12-.03.2-.16.23-.55.13-1.11.22-1.68.19-.6-.03-.95-.3-1.07-.88-.16-.75-.16-1.51.01-2.27.12-.51.46-.8.99-.84.21-.02.42-.03.62-.01.84.06,1.29.54,1.29,1.39,0,.36,0,.72,0,1.08h0c0,.37,0,.74,0,1.12M113.92,32.02c-.03-1.06-.55-1.82-1.48-2.28-.7-.35-1.45-.38-2.22-.27-1.16.18-1.96.9-2.16,2-.16.89-.14,1.78,0,2.67.08.55.31,1.04.75,1.43.43.38.94.55,1.5.61.71.08,1.41-.02,2.08-.25.08-.03.17-.08.25.02.23.26.52.32.84.19.32-.14.45-.4.44-.74,0-.58,0-1.16,0-1.74,0-.55.01-1.1,0-1.64M112.44,34.41c0,.09,0,.17-.12.2-.65.16-1.31.28-1.98.16-.37-.06-.62-.29-.75-.64-.05-.15-.1-.3-.11-.46-.04-.73-.13-1.46.11-2.17.13-.39.42-.61.82-.66.31-.03.63-.05.94,0,.65.09,1.03.51,1.07,1.17.02.4,0,.81,0,1.21h.01c0,.4,0,.79,0,1.19M115.26,33.3c0,.46.06.92.22,1.36.21.56.57,1,1.12,1.25,1.01.46,2.03.38,3.04.02.13-.05.26-.18.33-.31.13-.24.11-.49-.07-.71-.18-.22-.42-.3-.7-.23-.45.12-.9.17-1.37.13-.5-.04-.85-.28-.97-.78-.06-.26-.11-.53-.12-.8-.02-.71,0-1.41,0-2.12,0-.16.05-.2.21-.2.48,0,.96,0,1.44,0,.23,0,.45-.05.61-.25.17-.22.21-.46.1-.71-.12-.26-.33-.41-.63-.41-.5,0-1.01,0-1.51,0-.15,0-.21-.04-.2-.2.01-.41,0-.82,0-1.23,0-.46-.32-.77-.76-.76-.42,0-.72.31-.72.76,0,.92,0,1.84,0,2.76,0,.81,0,1.61,0,2.42M113.23,39.86c.35-.3.41-.78.13-1.09-.29-.33-.75-.35-1.1-.04-1.07.94-2.31,1.51-3.73,1.69-1.43.18-2.78-.06-4.07-.72-.53-.27-1-.62-1.46-1.01-.33-.28-.8-.22-1.06.1-.25.32-.2.78.13,1.05.11.09.21.19.31.27,1.58,1.23,3.36,1.85,5.46,1.84,1.98-.05,3.81-.73,5.38-2.1M80.2,33.84c0,1,.43,1.75,1.28,2.27.27.16.59.14.82-.07.38-.33.34-.83-.11-1.16-.34-.25-.51-.56-.51-.98,0-1.32,0-2.64-.01-3.95,0-.78,0-1.56,0-2.35,0-.35-.19-.61-.5-.7-.52-.16-.98.18-.98.75,0,1.07,0,2.13,0,3.2,0,1,0,1.99,0,2.99"/><g><rect class="cls-3" x="72.47" y="109.36" width="9.86" height="5.05"/><rect class="cls-6" x="72.47" y="115.53" width="9.86" height="5.05"/><rect class="cls-1" x="72.47" y="128.72" width="9.86" height="5.05"/><rect class="cls-4" x="72.47" y="121.81" width="9.86" height="5.05"/><rect class="cls-1" x="65.9" y="109.36" width="5.05" height="5.05"/><rect class="cls-1" x="65.9" y="115.93" width="5.05" height="5.05"/><rect class="cls-1" x="65.9" y="122.5" width="5.05" height="5.05"/><rect class="cls-1" x="65.9" y="129.08" width="5.05" height="5.05"/><rect class="cls-1" x="59.33" y="109.36" width="5.05" height="5.05"/><rect class="cls-1" x="59.33" y="115.93" width="5.05" height="5.05"/><rect class="cls-1" x="59.33" y="122.5" width="5.05" height="5.05"/><rect class="cls-1" x="59.33" y="129.08" width="5.05" height="5.05"/><rect class="cls-1" x="52.76" y="109.36" width="5.05" height="5.05"/><rect class="cls-1" x="52.76" y="115.93" width="5.05" height="5.05"/><rect class="cls-1" x="52.76" y="122.5" width="5.05" height="5.05"/><rect class="cls-1" x="52.76" y="129.08" width="5.05" height="5.05"/></g></svg>