<svg viewBox="0 0 160 160" fill="none" xmlns="http://www.w3.org/2000/svg"><path d="M122.36 43.2C122.36 40.37 121.38 37.77 119.74 35.7C120.21 34.76 120.49 33.7 120.49 32.57C120.49 28.71 117.35 25.58 113.48 25.58C111.49 25.58 109.69 26.41 108.41 27.75C108.46 27.34 108.49 26.92 108.49 26.49C108.49 20.75 103.83 16.1 98.07 16.1C95.13 16.1 92.48 17.32 90.58 19.28C89.34 17.31 87.15 16 84.65 16C81.4 16 78.67 18.21 77.88 21.2C76.59 19.61 74.63 18.59 72.42 18.59C70.65 18.59 69.04 19.25 67.8 20.33C65.89 17.71 62.8 16 59.3 16C55.57 16 52.31 17.94 50.44 20.85C49.16 19.46 47.33 18.59 45.29 18.59C42.33 18.59 39.8 20.43 38.77 23.02C38.61 23.01 38.44 23 38.28 23C34.41 23 31.27 26.13 31.27 29.99C31.27 30.63 31.36 31.25 31.53 31.84C27.24 33.71 24.24 37.97 24.24 42.93C24.24 46.82 26.09 50.27 28.94 52.48C29.15 55.25 31.44 57.44 34.27 57.44C36.18 57.44 37.83 56.43 38.78 54.93C42.1 59.75 47.67 62.92 53.98 62.92C58.89 62.92 63.33 61 66.63 57.88C71.79 60.25 78.18 61.65 85.09 61.65C94.35 61.65 102.66 59.14 108.36 55.15C108.51 55.17 108.66 55.2 108.81 55.22C109.47 57.16 111.3 58.57 113.47 58.57C116.2 58.57 118.42 56.36 118.42 53.64C118.42 53.17 118.33 52.73 118.21 52.3C120.75 50.08 122.35 46.83 122.35 43.21L122.36 43.2Z" fill="#F7E5CD"/><path d="M109.1 52.9302H38.66V143.64H109.1V52.9302Z" fill="#E73245"/><path d="M68.67 52.9302H64.09V141.64H68.67V52.9302Z" fill="white"/><path d="M53.67 52.9302H49.09V141.64H53.67V52.9302Z" fill="white"/><path d="M98.68 52.9302H94.1V141.64H98.68V52.9302Z" fill="white"/><path d="M83.68 52.9302H79.1V141.64H83.68V52.9302Z" fill="white"/><path d="M61.21 42.0901C58.32 42.0901 55.78 43.5801 54.32 45.8301C53.4 45.2301 52.3 44.8701 51.12 44.8701C47.9 44.8701 45.3 47.4701 45.3 50.6801C45.3 53.8901 47.91 56.4901 51.12 56.4901C52.47 56.4901 53.71 56.0301 54.7 55.2501C56.2 57.2001 58.55 58.4601 61.2 58.4601C65.73 58.4601 69.41 54.7901 69.41 50.2701C69.41 45.7501 65.73 42.0801 61.2 42.0801L61.21 42.0901Z" fill="#F7E5CD"/><path d="M38.28 37.6601C36.31 37.6601 34.34 36.9101 32.84 35.4201L33.8 34.4501C36.27 36.9101 40.28 36.9101 42.75 34.4501C43.94 33.2601 44.6 31.6701 44.6 29.9901C44.6 28.3101 43.94 26.7201 42.75 25.5301L43.71 24.5601C45.16 26.0101 45.97 27.9401 45.96 29.9901C45.96 32.0401 45.16 33.9701 43.71 35.4201C42.21 36.9201 40.24 37.6601 38.27 37.6601H38.28Z" fill="#F7C7A1"/><path d="M73.42 45.9801C71.52 45.9801 69.62 45.2601 68.17 43.8101C66.77 42.4101 65.99 40.5501 65.99 38.5701C65.99 36.5901 66.76 34.7301 68.17 33.3301L69.1 34.2601C67.95 35.4101 67.31 36.9401 67.31 38.5601C67.31 40.1901 67.95 41.7101 69.1 42.8601C71.48 45.2401 75.36 45.2401 77.74 42.8601L78.67 43.7901C77.22 45.2301 75.32 45.9601 73.42 45.9601V45.9801Z" fill="#F7C7A1"/><path d="M102.07 48.5301C100.62 47.0801 99.82 45.1601 99.82 43.1201C99.82 41.0801 100.62 39.1501 102.07 37.7101C105.06 34.7301 109.93 34.7301 112.92 37.7101L111.99 38.6401C109.51 36.1701 105.48 36.1701 103.01 38.6401C101.81 39.8401 101.15 41.4301 101.15 43.1201C101.15 44.8101 101.81 46.4001 103.01 47.6001L102.08 48.5301H102.07Z" fill="#F7C7A1"/><path d="M134.24 136.6C134.24 135 132.94 133.7 131.33 133.7C130.56 133.7 129.87 134 129.35 134.49C128.28 133.21 126.67 132.39 124.87 132.39C121.65 132.39 119.05 134.99 119.05 138.2C119.05 141.41 121.66 144.01 124.87 144.01C126.06 144.01 127.17 143.65 128.09 143.04C128.56 143.36 129.13 143.55 129.74 143.55C131.35 143.55 132.65 142.25 132.65 140.65C132.65 140.17 132.52 139.73 132.32 139.33C133.44 138.92 134.24 137.86 134.24 136.61V136.6Z" fill="#F7E5CD"/><path d="M125.93 142.31V141.47C127.74 141.47 129.22 140 129.22 138.19C129.22 136.38 127.74 134.91 125.93 134.91V134.07C128.21 134.07 130.06 135.92 130.06 138.19C130.06 140.46 128.21 142.31 125.93 142.31Z" fill="#F7C7A1"/></svg>