<svg viewBox="0 0 160 160" fill="none" xmlns="http://www.w3.org/2000/svg"><path fill-rule="evenodd" clip-rule="evenodd" d="M144 80C144 115.346 115.346 144 80 144C44.654 144 16 115.346 16 80C16 44.654 44.654 16 80 16C115.346 16 144 44.654 144 80Z" fill="#F7931E"/><path fill-rule="evenodd" clip-rule="evenodd" d="M124.832 34.3418L34.342 124.832C45.955 136.657 62.117 144 80 144C115.346 144 144 115.346 144 79.9998C144 62.1168 136.657 45.9548 124.832 34.3418Z" fill="#EF7903"/><path fill-rule="evenodd" clip-rule="evenodd" d="M131.613 80.4129C131.613 108.69 108.69 131.613 80.4129 131.613C52.1359 131.613 29.2129 108.69 29.2129 80.4129C29.2129 52.1359 52.1359 29.2129 80.4129 29.2129C108.69 29.2129 131.613 52.1359 131.613 80.4129Z" fill="#FBB03B"/></svg>