<svg viewBox="0 0 160 160" fill="none" xmlns="http://www.w3.org/2000/svg"><path fill-rule="evenodd" clip-rule="evenodd" d="M29.8589 93.1689V113.508C29.8589 118.75 54.1409 123 84.0949 123C114.049 123 138.331 118.75 138.331 113.508V93.1689H29.8589Z" fill="#F7931E"/><path fill-rule="evenodd" clip-rule="evenodd" d="M138.331 93.1693C138.331 98.4115 114.049 102.661 84.0946 102.661C54.1416 102.661 29.8586 98.4115 29.8586 93.1693C29.8586 87.9271 54.1416 83.6777 84.0946 83.6777C114.049 83.6777 138.331 87.9271 138.331 93.1693Z" fill="#FBB03B"/><path fill-rule="evenodd" clip-rule="evenodd" d="M84.4716 87.3177C72.3326 87.3177 60.9256 88.0198 52.3516 89.2935C39.7596 91.1657 39.6146 93.2888 39.6146 93.3785C39.6146 93.4681 39.7596 95.5923 52.3516 97.4635C60.9256 98.7382 72.3326 99.4403 84.4716 99.4403C96.6106 99.4403 108.017 98.7382 116.591 97.4635C129.184 95.5923 129.329 93.4681 129.329 93.3785C129.329 93.2888 129.184 91.1657 116.591 89.2935C108.017 88.0198 96.6106 87.3177 84.4716 87.3177ZM84.4716 100.866C65.8646 100.866 38.1816 98.8726 38.1816 93.3785C38.1816 87.8853 65.8646 85.8916 84.4716 85.8916C103.079 85.8916 130.761 87.8853 130.761 93.3785C130.761 98.8726 103.079 100.866 84.4716 100.866Z" fill="#F7931E"/><path fill-rule="evenodd" clip-rule="evenodd" d="M16.0002 71.2129V91.5523C16.0002 96.7935 40.2822 101.044 70.2362 101.044C100.19 101.044 124.472 96.7935 124.472 91.5523V71.2129H16.0002Z" fill="#F7931E"/><path fill-rule="evenodd" clip-rule="evenodd" d="M124.472 71.2122C124.472 76.4544 100.19 80.7038 70.236 80.7038C40.282 80.7038 16 76.4544 16 71.2122C16 65.97 40.282 61.7207 70.236 61.7207C100.19 61.7207 124.472 65.97 124.472 71.2122Z" fill="#FBB03B"/><path fill-rule="evenodd" clip-rule="evenodd" d="M70.6128 65.3606C58.4738 65.3606 47.0668 66.0627 38.4928 67.3364C25.9008 69.2086 25.7558 71.3318 25.7558 71.4214C25.7558 71.5111 25.9008 73.6352 38.4928 75.5065C47.0668 76.7812 58.4738 77.4832 70.6128 77.4832C82.7518 77.4832 94.1588 76.7812 102.732 75.5065C115.325 73.6352 115.47 71.5111 115.47 71.4214C115.47 71.3318 115.325 69.2086 102.732 67.3364C94.1578 66.0627 82.7518 65.3606 70.6128 65.3606ZM70.6128 78.9093C52.0058 78.9093 24.3228 76.9156 24.3228 71.4214C24.3228 65.9283 52.0058 63.9346 70.6128 63.9346C89.2198 63.9346 116.902 65.9283 116.902 71.4214C116.902 76.9156 89.2198 78.9093 70.6128 78.9093Z" fill="#F7931E"/><path fill-rule="evenodd" clip-rule="evenodd" d="M35.5284 45.4912V65.8306C35.5284 71.0718 59.8104 75.3222 89.7644 75.3222C119.718 75.3222 144 71.0718 144 65.8306V45.4912H35.5284Z" fill="#F7931E"/><path fill-rule="evenodd" clip-rule="evenodd" d="M144 45.4915C144 50.7337 119.718 54.9831 89.7642 54.9831C59.8102 54.9831 35.5282 50.7337 35.5282 45.4915C35.5282 40.2493 59.8102 36 89.7642 36C119.718 36 144 40.2493 144 45.4915Z" fill="#FBB03B"/><path fill-rule="evenodd" clip-rule="evenodd" d="M90.1408 39.6399C78.0018 39.6399 66.5958 40.342 58.0218 41.6157C45.4288 43.4879 45.2838 45.6111 45.2838 45.7007C45.2838 45.7904 45.4288 47.9145 58.0218 49.7858C66.5958 51.0605 78.0018 51.7625 90.1408 51.7625C102.28 51.7625 113.687 51.0605 122.261 49.7858C134.853 47.9145 134.998 45.7904 134.998 45.7007C134.998 45.6111 134.853 43.4879 122.261 41.6157C113.687 40.342 102.28 39.6399 90.1408 39.6399ZM90.1408 53.1886C71.5338 53.1886 43.8518 51.1949 43.8518 45.7007C43.8518 40.2076 71.5338 38.2139 90.1408 38.2139C108.748 38.2139 136.431 40.2076 136.431 45.7007C136.431 51.1949 108.748 53.1886 90.1408 53.1886Z" fill="#F7931E"/></svg>