<?xml version="1.0" encoding="utf-8"?><!--Generator: Adobe Illustrator 28.0.0, SVG Export Plug-In . SVG Version: 6.00 Build 0)--><svg version="1.1" xmlns="http://www.w3.org/2000/svg" xmlns:xlink="http://www.w3.org/1999/xlink" x="0px" y="0px" viewBox="0 0 160 160" style="enable-background:new 0 0 160 160;" xml:space="preserve"><style type="text/css">.st0{fill:#7070FF;}
	.st1{fill:#006931;}
	.st2{fill:#232144;}
	.st3{fill:#FFC6AD;}
	.st4{fill:#4B7CFE;}
	.st5{fill:#E6E6E6;}</style><g id="Design"><g><g><g><path class="st0" d="M84.4,72c0,0.3-0.1,0.4-0.4,0.4h-4.6c0.2,1.1,0.7,1.9,1.3,2.6c0.6,0.6,1.6,1,2.8,1c0.5,0,1.1-0.1,1.5-0.2
					c0.5-0.1,0.9-0.3,1.3-0.4c0.2-0.1,0.3-0.1,0.4-0.1c0.1,0,0.2,0.1,0.2,0.2l0.6,1.4c0.1,0.2,0.1,0.3,0.1,0.4s-0.1,0.2-0.3,0.3
					c-0.6,0.3-1.3,0.6-2,0.8c-0.8,0.2-1.6,0.3-2.4,0.3c-1.9,0-3.4-0.6-4.5-1.7c-1.1-1.1-1.9-2.6-2.3-4.6h-1.6
					c-0.3,0-0.4-0.1-0.4-0.4v-1.2c0-0.3,0.1-0.4,0.4-0.4H76v-0.7c0-0.2,0-0.3,0-0.5c0-0.2,0-0.3,0-0.5h-1.3c-0.3,0-0.4-0.1-0.4-0.4
					v-1.2c0-0.3,0.1-0.4,0.4-0.4h1.5c0.2-0.9,0.5-1.8,0.9-2.6c0.4-0.8,0.9-1.4,1.5-2c0.6-0.5,1.3-1,2-1.3c0.8-0.3,1.6-0.5,2.6-0.5
					c1,0,1.8,0.1,2.5,0.3c0.7,0.2,1.3,0.5,1.8,0.9c0.3,0.2,0.3,0.4,0.2,0.7L87,63.5c-0.2,0.3-0.4,0.4-0.7,0.2
					c-0.5-0.3-0.9-0.5-1.3-0.6S84.1,63,83.5,63c-2.2,0-3.5,1.2-4.1,3.7h4.7c0.3,0,0.4,0.1,0.4,0.4v1.2c0,0.3-0.1,0.4-0.4,0.4h-5
					c0,0.1,0,0.3,0,0.4c0,0.1,0,0.3,0,0.4v0.8H84c0.3,0,0.4,0.1,0.4,0.4V72z"/></g></g><g><polygon class="st0" points="98.1,93.3 56.8,93.3 56.8,62.7 57.1,62.4 81.2,36.5 105.7,62.7 105.7,92.1 103.4,92.1 103.4,63.6 
				81.2,39.8 59.1,63.6 59.1,91 98.1,91 			"/></g><g><path class="st1" d="M109.8,87.9c0,0.1,0,0.1,0,0.2"/></g><g><g><path class="st0" d="M115.1,69.3l-1.2-2c4.9-2.8,11.6-7.3,14.8-14.1c-1.8-0.2-4-1-5.5-2.8c-1.1-1.3-1.6-3.2-1.2-4.9
					c0.3-1.5,1.1-2.6,2.2-3.3c1.1-0.6,2.5-0.7,3.9-0.3c1.6,0.5,3,1.8,3.7,3.4c0.7,1.6,0.8,3.5,0.3,5.6c4-0.4,7.8-2.6,10.1-5.8
					l1.9,1.4c-2.9,4-7.8,6.6-12.8,6.9C127.9,61.2,120.4,66.2,115.1,69.3z M126.4,44c-0.3,0-0.7,0.1-1.1,0.3c-0.8,0.4-1,1.3-1.1,1.7
					c-0.2,1,0.1,2.2,0.7,3c1,1.2,2.6,1.9,4.6,2c0.6-1.9,0.6-3.5,0-4.8c-0.4-0.9-1.3-1.8-2.3-2.1C127.1,44.1,126.8,44,126.4,44z"/></g><g><g><polygon class="st0" points="116,56.2 118.2,56.8 115.2,67.8 126.3,70 125.9,72.3 112.3,69.5 					"/></g></g></g><g><g><path class="st0" d="M43,70.9c-0.1,0-0.3,0-0.4,0c-3.3-0.1-6.9-0.9-11.2-2.5c-5.6-2.1-10.4-4.8-14.3-8.1l1.5-1.8
					c3.7,3.1,8.2,5.7,13.6,7.7c4,1.5,7.4,2.3,10.4,2.3c3.8,0.1,7.2-1,9.7-2.9l1.4,1.8C50.9,69.7,47.1,70.9,43,70.9z"/></g><g><g><polygon class="st0" points="18.3,71.4 20.6,71 18.7,59.8 30,58.7 29.8,56.4 16,57.8 					"/></g></g></g><g><rect x="69.9" y="17.7" transform="matrix(0.9985 -5.491657e-02 5.491657e-02 0.9985 -1.1737 3.9395)" class="st0" width="2.3" height="11.2"/></g><g><rect x="65.5" y="22.2" transform="matrix(0.9985 -5.509446e-02 5.509446e-02 0.9985 -1.1772 3.9523)" class="st0" width="11.2" height="2.3"/></g><g><rect x="84.7" y="21" transform="matrix(0.9985 -5.509446e-02 5.509446e-02 0.9985 -1.0851 5.0092)" class="st0" width="11.2" height="2.3"/></g><g><path class="st2" d="M28.1,92.3l-1.7-1.6c0.9-0.9,2-1.5,3-2c4.3-2.2,8.7-4.6,12-8.3c0.3-0.3,0.5-0.6,0.7-0.9
				c1-1.2,2.1-2.5,3.6-3.3c2.1-1.1,4.5-1,6.8-0.9c1.8,0.1,3.6,0.2,5.1-0.4c3-1.1,4.5-4.7,5.1-6.7c1.1-3.7,1.3-7.6,1.5-11.7
				c0.1-2.2,0.2-4.5,0.5-6.8c0.2-1.5,0.5-3.1,1.8-4.2c0.8-0.7,1.9-1,3.4-1.1c3.1-0.1,6.1,1,8.9,2c3.4,1.2,6.6,2.4,9.7,1.5
				c3.3-0.9,5.7-3.8,8.1-6.6l0.6-0.8c2.5-2.9,6.3-6.7,11.1-6.5c0.7,0,1.4,0.2,2.1,0.3c1.2,0.2,2.3,0.4,3.2,0.1
				c1.2-0.5,1.9-1.8,2.7-3.1l0.1-0.1c3.4-5.9,8.1-11.2,13.5-15.3l1.4,1.8c-5.2,3.9-9.7,9-12.9,14.6l-0.1,0.1
				c-0.9,1.6-1.9,3.3-3.8,4.1c-1.5,0.6-3.1,0.3-4.5,0.1c-0.6-0.1-1.2-0.2-1.8-0.2c-3.8-0.2-7.1,3.1-9.2,5.7L98.4,43
				c-2.5,2.9-5.3,6.3-9.3,7.3c-3.8,1-7.5-0.3-11.1-1.6c-2.8-1-5.4-1.9-8.1-1.9c-0.9,0-1.6,0.2-2,0.6c-0.7,0.5-0.9,1.6-1,2.7
				c-0.3,2.2-0.4,4.5-0.5,6.6c-0.2,4-0.4,8.2-1.6,12.2c-1.2,4.2-3.6,7.1-6.5,8.2c-2,0.7-4,0.6-6,0.6c-2-0.1-4-0.2-5.6,0.6
				c-1.1,0.6-2,1.6-3,2.7c-0.3,0.3-0.5,0.6-0.8,0.9c-3.6,4-8.4,6.6-12.7,8.8C29.5,91.3,28.7,91.7,28.1,92.3z"/></g><g><g><g><path class="st3" d="M100.7,111c0,0.7-0.1,1.5-0.5,2.1L94,125.4c-0.3,0.7-0.8,1.2-1.4,1.6c-0.5,0.8-1.2,1.4-2.1,1.7l-14,5
						c-1.2,0.4-2.6,0.5-3.6-0.1l0,0l-26.3-6l6.3-19.6l21.6-7.1c0,0,7.2,4.5,1.6,7.9c-0.2,0.1-0.4,0.3-0.6,0.4c0,0,0.3,0.4,0.3,0.4
						c-1.4,0-3.1,0.8-2.5,2.5c0.3,0.9,1.2,1.5,2.1,1.5c0.9,0,1.5,0,2.2,0.1c2.1,0.1,8,0.6,8,0.6l0,6.4l-1,1.1l1.3-0.5c0,0,0,0,0,0
						l6.2-12.3c1.1-2.2,3.9-3.1,6.1-2C99.7,107.8,100.6,109.4,100.7,111"/></g><g><polygon class="st4" points="98.9,100.7 82.5,142.2 74.3,139.1 90.7,97.6 					"/></g><g><polygon class="st2" points="93,102.8 93.7,103 80.2,137 79.5,136.7 					"/></g><g><path class="st3" d="M76.7,100.9l13.4,3.2c2.3,0.6,3.8,2.9,3.3,5.3c-0.6,2.3-2.9,3.8-5.3,3.3l-13.4-3.2
						c-2.3-0.6-3.8-2.9-3.3-5.3C72,101.8,74.4,100.3,76.7,100.9"/></g><g><polygon class="st5" points="98.9,100.7 98.4,96 94.3,94.3 90.7,97.6 					"/></g><g><path class="st0" d="M97,91.9l-2.7,2.5l4.1,1.7L98,92.3C98,91.7,97.3,91.5,97,91.9z"/></g></g><g><polygon class="st3" points="16,94.7 16,121.5 49.2,128.3 54.1,108.4 				"/></g></g></g></g><g id="stramien"/></svg>