<?xml version="1.0" encoding="UTF-8"?><svg id="Design" xmlns="http://www.w3.org/2000/svg" viewBox="0 0 160 160"><defs><style>.cls-1 {
        fill: #4b7cf1;
      }

      .cls-1, .cls-2, .cls-3, .cls-4 {
        stroke-width: 0px;
      }

      .cls-2 {
        fill: #232144;
      }

      .cls-3 {
        fill: #d9d6cd;
      }

      .cls-4 {
        fill: #9eabac;
      }</style></defs><path class="cls-3" d="m58.77,66.04h-11.02s-.49,9.83,3.53,16.94h3.96c4.02-7.11,3.53-16.94,3.53-16.94Z"/><rect class="cls-4" x="47.74" y="62.37" width="11.02" height="3.67"/><path class="cls-4" d="m73.07,66.12l-1.77.72-53.43,21.82c-1.13.46-1.87,1.56-1.87,2.78v5.19s55.29-4.5,55.29-4.5l1.77-.14"/><path class="cls-3" d="m110.39,66.04h-11.02s-.49,9.83,3.53,16.94h3.96c4.02-7.11,3.53-16.94,3.53-16.94Z"/><rect class="cls-4" x="99.37" y="62.37" width="11.02" height="3.67"/><path class="cls-4" d="m86.94,65.94l1.77.72,53.43,21.82c1.13.46,1.87,1.56,1.87,2.78v5.19s-55.29-4.5-55.29-4.5l-1.77-.14"/><polygon class="cls-4" points="73.53 122.66 48.85 138.02 48.85 144 79.66 137.26 73.53 122.66"/><polygon class="cls-4" points="85.78 122.66 110.46 138.02 110.46 144 79.66 137.26 85.78 122.66"/><path class="cls-1" d="m88.71,115.06c-.44,7.73-5.68,23.26-7.29,27.24-.98,2.43-2.89,2.09-3.9,0-1.71-3.57-6.51-19.46-6.92-27.5l.03-81.05v-3.31c.54-5.43,4.65-10.46,6.64-13.25,1.21-1.71,3.57-1.47,4.8,0,2.11,2.51,6.13,7.61,6.64,13.25h0v84.62Z"/><rect class="cls-3" x="78.41" y="116.4" width="2.5" height="18.17"/><path class="cls-2" d="m73.13,30.61c0-3.15,2.94-5.71,6.57-5.71s6.57,2.56,6.57,5.71h-13.14Z"/></svg>