<?xml version="1.0" encoding="UTF-8"?><svg xmlns="http://www.w3.org/2000/svg" viewBox="0 0 160 160"><defs><style>.cls-1{fill:#ffa600;}.cls-2{fill:#cfddf5;}.cls-3{fill:#231e47;}.cls-4{fill:#5773a4;}.cls-5{fill:#8ba6e0;}.cls-6{fill:#718cc5;}</style></defs><g id="Laptop"><path class="cls-3" d="M35.8,43.98h88.41c2.4,0,4.35,1.95,4.35,4.35v59.84H31.45v-59.84c0-2.4,1.95-4.35,4.35-4.35Z"/><polygon class="cls-4" points="144 127.53 16 127.53 31.43 108.17 128.54 108.17 144 127.53"/><rect class="cls-2" x="35.36" y="48.03" width="89.29" height="52.29"/><polygon class="cls-6" points="26.74 118.05 32.67 109.75 127.33 109.75 133.26 118.05 26.74 118.05"/><polygon class="cls-6" points="58.32 125.94 61.89 119.15 98.2 119.15 101.71 125.94 58.32 125.94"/><path class="cls-5" d="M142.25,131.6H17.75c-.97,0-1.75-.78-1.75-1.75v-2.33h128v2.33c0,.96-.78,1.75-1.75,1.75Z"/></g><g id="Subcription"><rect class="cls-6" x="41.1" y="61.95" width="77.8" height="25.67" rx="12.84" ry="12.84"/><circle class="cls-3" cx="77.52" cy="79.62" r="1.63"/><path class="cls-1" d="M83.92,64.04h0c-.58-.24-1.24.04-1.48.62l-2.08,5.06c-1.97-.27-3.95.81-4.74,2.74l-.66,1.62c-.4.97-1.51,1.44-2.49,1.04l-.16-.07-.85,2.07,6.07,2.49,6.07,2.49.85-2.07-.16-.07c-.97-.4-1.44-1.51-1.04-2.49l.66-1.62c.79-1.93.14-4.08-1.45-5.28l2.08-5.06c.24-.58-.04-1.24-.62-1.48Z"/><path class="cls-1" d="M68.1,77.82c-.34-1.49-.1-3.03.67-4.34.72-1.17,1.82-2.02,3.18-2.46l.07.21c-1.31.43-2.37,1.24-3.06,2.37-.74,1.25-.97,2.74-.65,4.18l-.21.05Z"/><path class="cls-1" d="M65.98,77.93c-.44-1.95-.13-3.95.88-5.65.94-1.52,2.37-2.63,4.14-3.2l.07.21c-1.72.56-3.11,1.63-4.02,3.11-.97,1.65-1.27,3.59-.85,5.49l-.21.05Z"/><path class="cls-1" d="M83.13,84.69l-.06-.2c1.25-.41,2.26-1.19,2.92-2.26.71-1.2.93-2.61.62-3.98l.2-.05c.32,1.43.09,2.9-.64,4.14-.69,1.12-1.74,1.93-3.03,2.35Z"/><path class="cls-1" d="M84.04,86.53l-.06-.2c1.64-.53,2.96-1.56,3.84-2.97.93-1.57,1.22-3.43.81-5.23l.2-.05c.42,1.86.12,3.77-.84,5.39-.9,1.45-2.26,2.51-3.95,3.06Z"/></g></svg>