<svg viewBox="0 0 160 160" fill="none" xmlns="http://www.w3.org/2000/svg"><path d="M138.52 45.4302H21.48C18.4535 45.4302 16 47.8837 16 50.9102V105.15C16 108.177 18.4535 110.63 21.48 110.63H138.52C141.547 110.63 144 108.177 144 105.15V50.9102C144 47.8837 141.547 45.4302 138.52 45.4302Z" fill="#891229"/><path d="M69.91 55.5398L72.27 53.9798C74.2 52.7098 76.8 53.2398 78.07 55.1598L91.52 75.4498C92.8 77.3698 92.26 79.9598 90.33 81.2298L87.97 82.7898C86.04 84.0598 83.44 83.5298 82.17 81.6098L68.72 61.3198C67.44 59.3998 67.98 56.8098 69.91 55.5398Z" fill="#F7E5CD"/><path d="M71.19 58.1798L74.21 56.1898C75.96 55.0398 78.32 55.5198 79.47 57.2598L90.13 73.3498C91.29 75.0898 90.8 77.4398 89.05 78.5898L86.03 80.5798C84.28 81.7298 81.92 81.2498 80.77 79.5098L70.11 63.4198C68.95 61.6798 69.44 59.3298 71.19 58.1798Z" fill="#F7C7A1"/><path d="M91.08 56.6497L92.48 55.7297C94.65 54.2997 97.58 54.9497 98.94 57.1597L111.24 77.2197C112.58 79.4097 111.86 82.2697 109.64 83.5697C107.59 84.7697 104.95 84.2097 103.57 82.2797L89.87 63.1397C88.36 61.0297 88.91 58.0797 91.08 56.6497Z" fill="#F37021"/><path d="M100.25 74.7398L105.58 71.2298C105.72 71.1398 105.92 71.1698 106.01 71.3198C106.1 71.4598 106.07 71.6598 105.92 71.7498L100.59 75.2598C100.45 75.3498 100.25 75.3198 100.16 75.1698C100.07 75.0298 100.1 74.8298 100.25 74.7398Z" fill="#F7E5CD"/><path d="M97.98 71.3096L103.31 67.7996C103.45 67.7096 103.65 67.7396 103.74 67.8896C103.83 68.0296 103.8 68.2296 103.65 68.3196L98.32 71.8296C98.18 71.9196 97.98 71.8896 97.89 71.7396C97.8 71.5996 97.83 71.3996 97.98 71.3096Z" fill="#F7E5CD"/><path d="M95.7 67.88L101.03 64.37C101.17 64.28 101.37 64.31 101.46 64.46C101.55 64.6 101.52 64.8 101.37 64.89L96.04 68.4C95.9 68.49 95.7 68.46 95.61 68.31C95.52 68.17 95.55 67.97 95.7 67.88Z" fill="#F7E5CD"/><path d="M108.48 56.9597L110.84 55.3997C112.77 54.1297 115.37 54.6597 116.64 56.5797L130.09 76.8697C131.37 78.7897 130.83 81.3797 128.9 82.6497L126.54 84.2097C124.61 85.4797 122.01 84.9497 120.74 83.0297L107.29 62.7397C106.01 60.8197 106.55 58.2297 108.48 56.9597Z" fill="#F7E5CD"/><path d="M109.77 59.61L112.79 57.62C114.54 56.47 116.9 56.95 118.05 58.69L128.71 74.78C129.87 76.52 129.38 78.87 127.63 80.02L124.61 82.01C122.86 83.16 120.5 82.68 119.35 80.94L108.69 64.85C107.53 63.11 108.02 60.76 109.77 59.61Z" fill="#E73245"/><path d="M118.14 74.7398L123.47 71.2298C123.61 71.1398 123.81 71.1698 123.9 71.3198C123.99 71.4598 123.96 71.6598 123.81 71.7498L118.48 75.2598C118.34 75.3498 118.14 75.3198 118.05 75.1698C117.96 75.0298 117.99 74.8298 118.14 74.7398Z" fill="#F7E5CD"/><path d="M115.87 71.3096L121.2 67.7996C121.34 67.7096 121.54 67.7396 121.63 67.8896C121.72 68.0296 121.69 68.2296 121.54 68.3196L116.21 71.8296C116.07 71.9196 115.87 71.8896 115.78 71.7396C115.69 71.5996 115.72 71.3996 115.87 71.3096Z" fill="#F7E5CD"/><path d="M113.59 67.88L118.92 64.37C119.06 64.28 119.26 64.31 119.35 64.46C119.44 64.6 119.41 64.8 119.26 64.89L113.93 68.4C113.79 68.49 113.59 68.46 113.5 68.31C113.41 68.17 113.44 67.97 113.59 67.88Z" fill="#F7E5CD"/><path d="M111.65 89.1399L111.3 88.9799C108.07 87.4799 106.67 83.6599 108.17 80.4399L108.77 79.1499L109.12 79.3099C112.35 80.8099 113.75 84.6299 112.25 87.8499L111.65 89.1399Z" fill="#F37021"/><path d="M114.411 87.0469L114.381 87.4257L112.955 87.3115C109.416 87.028 106.766 83.9165 107.05 80.3778L107.08 79.999L108.506 80.1132C112.044 80.3967 114.694 83.5082 114.411 87.0469Z" fill="#F37021"/><path d="M53.08 68.4598C57.4044 68.4598 60.91 64.9632 60.91 60.6498C60.91 56.3365 57.4044 52.8398 53.08 52.8398C48.7556 52.8398 45.25 56.3365 45.25 60.6498C45.25 64.9632 48.7556 68.4598 53.08 68.4598Z" fill="#232144"/><path d="M53.08 67.4998C56.8742 67.4998 59.95 64.433 59.95 60.6498C59.95 56.8667 56.8742 53.7998 53.08 53.7998C49.2858 53.7998 46.21 56.8667 46.21 60.6498C46.21 64.433 49.2858 67.4998 53.08 67.4998Z" fill="#F7E5CD"/><path d="M55.15 58.5898H51.01V62.7198H55.15V58.5898Z" fill="#006931"/><path d="M37.03 68.4598C41.3544 68.4598 44.86 64.9632 44.86 60.6498C44.86 56.3365 41.3544 52.8398 37.03 52.8398C32.7056 52.8398 29.2 56.3365 29.2 60.6498C29.2 64.9632 32.7056 68.4598 37.03 68.4598Z" fill="#232144"/><path d="M37.03 67.4998C40.8242 67.4998 43.9 64.433 43.9 60.6498C43.9 56.8667 40.8242 53.7998 37.03 53.7998C33.2358 53.7998 30.16 56.8667 30.16 60.6498C30.16 64.433 33.2358 67.4998 37.03 67.4998Z" fill="#F7E5CD"/><path d="M39.1 58.5898H34.96V62.7198H39.1V58.5898Z" fill="#891229"/><path d="M62.34 85.0497C66.6644 85.0497 70.17 81.553 70.17 77.2397C70.17 72.9263 66.6644 69.4297 62.34 69.4297C58.0156 69.4297 54.51 72.9263 54.51 77.2397C54.51 81.553 58.0156 85.0497 62.34 85.0497Z" fill="#232144"/><path d="M62.34 84.0896C66.1342 84.0896 69.21 81.0228 69.21 77.2396C69.21 73.4565 66.1342 70.3896 62.34 70.3896C58.5458 70.3896 55.47 73.4565 55.47 77.2396C55.47 81.0228 58.5458 84.0896 62.34 84.0896Z" fill="#F7E5CD"/><path d="M64.41 75.1797H60.27V79.3097H64.41V75.1797Z" fill="#891229"/><path d="M46.3 85.0497C50.6244 85.0497 54.13 81.553 54.13 77.2397C54.13 72.9263 50.6244 69.4297 46.3 69.4297C41.9756 69.4297 38.47 72.9263 38.47 77.2397C38.47 81.553 41.9756 85.0497 46.3 85.0497Z" fill="#232144"/><path d="M46.3 84.0896C50.0942 84.0896 53.17 81.0228 53.17 77.2396C53.17 73.4565 50.0942 70.3896 46.3 70.3896C42.5058 70.3896 39.43 73.4565 39.43 77.2396C39.43 81.0228 42.5058 84.0896 46.3 84.0896Z" fill="#F7E5CD"/><path d="M48.37 75.1797H44.23V79.3097H48.37V75.1797Z" fill="#F7931E"/><path d="M83.71 63.6299L74.33 69.8099L76.65 73.3199L86.04 67.1399L83.71 63.6299Z" fill="#232144"/><path d="M31.87 97.9001H128.13V94.8701L31.94 96.7801L31.87 97.9001Z" fill="#F7C7A1"/><path d="M31.87 99.9102H128.13V102.93L31.94 101.03L31.87 99.9102Z" fill="#F7C7A1"/></svg>