<?xml version="1.0" encoding="UTF-8"?><svg id="Layer_1" xmlns="http://www.w3.org/2000/svg" version="1.1" viewBox="0 0 160 160"><!--Generator: Adobe Illustrator 29.0.1, SVG Export Plug-In . SVG Version: 2.1.0 Build 192)--><defs><style>.st0 {
        fill: #891229;
      }

      .st1 {
        fill: #232144;
      }

      .st2 {
        fill: #ed1e79;
      }

      .st3 {
        fill: #006931;
      }

      .st4 {
        fill: #f7931e;
      }

      .st5 {
        fill: #f7e5cd;
      }</style></defs><g><polygon class="st5" points="41.44 110.38 41.44 110.38 118.56 110.38 118.56 110.38 80 110.38 41.44 110.38"/><path class="st5" d="M41.44,110.38v-3.22c0-21.3,17.26-38.56,38.56-38.56h0c21.3,0,38.56,17.26,38.56,38.56v3.22H41.44Z"/></g><path class="st3" d="M118.56,110.38h25.44c0-17.67-7.16-33.67-18.75-45.25l-16.43,16.43c6.05,6.81,9.74,15.78,9.74,25.61v3.22Z"/><path class="st4" d="M80,46.38h0v22.22h0c11.47,0,21.76,5.01,28.82,12.95l16.43-16.43c-11.58-11.58-27.58-18.75-45.25-18.75Z"/><path class="st2" d="M80,46.38h0c-17.67,0-33.67,7.16-45.25,18.75l16.43,16.43c7.06-7.94,17.35-12.95,28.82-12.95h0v-22.22Z"/><path class="st0" d="M34.75,65.12c-11.58,11.58-18.75,27.58-18.75,45.25h25.44v-3.22c0-9.83,3.68-18.79,9.74-25.61l-16.43-16.43Z"/><path class="st1" d="M113.61,75.66l-31.61,26.22c-.57-.15-1.16-.24-1.76-.26-4.62-.18-8.51,3.42-8.69,8.03-.18,4.62,3.42,8.51,8.03,8.69,4.62.18,8.51-3.42,8.69-8.03.03-.68-.04-1.35-.17-1.99l26.63-31.52c.63-.75-.37-1.76-1.13-1.14Z"/></svg>