<?xml version="1.0" encoding="utf-8"?><!--Generator: Adobe Illustrator 28.0.0, SVG Export Plug-In . SVG Version: 6.00 Build 0)--><svg version="1.1" xmlns="http://www.w3.org/2000/svg" xmlns:xlink="http://www.w3.org/1999/xlink" x="0px" y="0px" viewBox="0 0 160 160" style="enable-background:new 0 0 160 160;" xml:space="preserve"><style type="text/css">.st0{fill:#232144;}
	.st1{fill:#E6E3DA;}
	.st2{fill:#7070FF;}
	.st3{fill:#006931;}
	.st4{fill:#F7931E;}
	.st5{fill:#FBB03B;}
	.st6{fill:#5C1C13;}
	.st7{fill:#FFA28F;}
	.st8{fill:#F5836D;}
	.st9{fill:none;stroke:#171111;stroke-width:0.9716;stroke-miterlimit:10;}
	.st10{fill:#FFFFFF;}
	.st11{clip-path:url(#SVGID_00000011001907699574061780000015069906220036987284_);}
	.st12{clip-path:url(#SVGID_00000132051115384353150100000002275838905900151195_);}</style><g id="Design"><g><polygon class="st0" points="88.8,45.1 116.5,16.1 144.2,45.1 		"/><polygon class="st1" points="93.9,73.4 93.9,45.2 116.5,21 139.1,45.2 139.1,73.4 		"/><rect x="122.5" y="49.7" class="st0" width="12.2" height="23.7"/><rect x="98.3" y="49.6" class="st2" width="18.9" height="17.1"/><path class="st3" d="M144.3,69.2c0,0.1,0,0.1,0,0.2"/></g><path class="st4" d="M18.7,63.2v8.7c0,2.2,10.3,4.1,23.1,4.1c12.7,0,23.1-1.8,23.1-4.1v-8.7H18.7z"/><path class="st5" d="M64.9,63.2c0,2.2-10.3,4.1-23.1,4.1c-12.7,0-23.1-1.8-23.1-4.1c0-2.2,10.3-4.1,23.1-4.1
		C54.6,59.1,64.9,61,64.9,63.2"/><path class="st4" d="M42,66.5c-7.9,0-19.7-0.9-19.7-3.2c0-2.3,11.8-3.2,19.7-3.2c7.9,0,19.7,0.9,19.7,3.2
		C61.7,65.6,49.9,66.5,42,66.5 M42,60.7c-5.2,0-10,0.3-13.7,0.8c-5.4,0.8-5.4,1.7-5.4,1.7c0,0,0.1,0.9,5.4,1.7
		c3.6,0.5,8.5,0.8,13.7,0.8c5.2,0,10-0.3,13.7-0.8c5.4-0.8,5.4-1.7,5.4-1.7c0,0-0.1-0.9-5.4-1.7C52,61,47.1,60.7,42,60.7"/><g><path class="st4" d="M16.1,51v8.7c0,2.2,10.3,4.1,23.1,4.1c12.7,0,23.1-1.8,23.1-4.1V51H16.1z"/><path class="st5" d="M62.2,51c0,2.2-10.3,4.1-23.1,4.1c-12.7,0-23.1-1.8-23.1-4.1c0-2.2,10.3-4.1,23.1-4.1
			C51.9,47,62.2,48.8,62.2,51"/><path class="st4" d="M39.3,54.3c-7.9,0-19.7-0.9-19.7-3.2c0-2.3,11.8-3.2,19.7-3.2c7.9,0,19.7,0.9,19.7,3.2
			C59,53.5,47.2,54.3,39.3,54.3 M39.3,48.5c-5.2,0-10,0.3-13.7,0.8c-5.4,0.8-5.4,1.7-5.4,1.7c0,0,0.1,0.9,5.4,1.7
			c3.6,0.5,8.5,0.8,13.7,0.8c5.2,0,10-0.3,13.7-0.8c5.4-0.8,5.4-1.7,5.4-1.7c0,0-0.1-0.9-5.4-1.7C49.3,48.8,44.5,48.5,39.3,48.5"/></g><g><path class="st4" d="M23.3,38.8v8.7c0,2.2,10.3,4.1,23.1,4.1c12.7,0,23.1-1.8,23.1-4.1v-8.7H23.3z"/><path class="st5" d="M69.5,38.8c0,2.2-10.3,4.1-23.1,4.1c-12.7,0-23.1-1.8-23.1-4.1c0-2.2,10.3-4.1,23.1-4.1
			C59.2,34.7,69.5,36.6,69.5,38.8"/><path class="st4" d="M46.6,42.1c-7.9,0-19.7-0.9-19.7-3.2c0-2.3,11.8-3.2,19.7-3.2c7.9,0,19.7,0.9,19.7,3.2
			C66.3,41.2,54.5,42.1,46.6,42.1 M46.6,36.3c-5.2,0-10,0.3-13.7,0.8c-5.4,0.8-5.4,1.7-5.4,1.7c0,0,0.1,0.9,5.4,1.7
			c3.6,0.5,8.5,0.8,13.7,0.8c5.2,0,10-0.3,13.7-0.8c5.4-0.8,5.4-1.7,5.4-1.7c0,0-0.1-0.9-5.4-1.7C56.6,36.6,51.7,36.3,46.6,36.3"/></g><g><path class="st6" d="M87.4,104.9c0,9.1,7.4,16.6,16.6,16.6c9.1,0,16.6-7.4,16.6-16.6s-7.4-16.6-16.6-16.6
			C94.8,88.3,87.4,95.7,87.4,104.9"/><path class="st6" d="M91.9,130.5c0,6.6,5.4,12,12,12c6.6,0,12-5.4,12-12c0-6.6-5.4-12-12-12C97.3,118.5,91.9,123.9,91.9,130.5"/><path class="st6" d="M39.5,104.9c0,9.1,7.4,16.6,16.6,16.6c9.1,0,16.6-7.4,16.6-16.6S65.2,88.3,56,88.3
			C46.9,88.3,39.5,95.7,39.5,104.9"/><path class="st6" d="M44,130.5c0,6.6,5.4,12,12,12s12-5.4,12-12c0-6.6-5.4-12-12-12S44,123.9,44,130.5"/><path class="st7" d="M112.2,88.1c0,4.1-3.3,7.4-7.4,7.4c-4.1,0-7.4-3.3-7.4-7.4c0-4.1,3.3-7.4,7.4-7.4
			C108.9,80.7,112.2,84,112.2,88.1"/><path class="st7" d="M62,88.1c0,4.1-3.3,7.4-7.4,7.4c-4.1,0-7.4-3.3-7.4-7.4c0-4.1,3.3-7.4,7.4-7.4C58.7,80.7,62,84,62,88.1"/><path class="st8" d="M61.4,125.8V102l36.6,0.1v23.7c0,10.1-8.2,18.3-18.3,18.3C69.6,144.1,61.4,135.9,61.4,125.8"/><path class="st7" d="M55.5,98.6V64.4c0-10.8,8.8-19.5,19.5-19.5h9.4c10.8,0,19.5,8.8,19.5,19.5v34.1c0,10.8-8.8,19.5-19.5,19.5H75
			C64.2,118.1,55.5,109.4,55.5,98.6"/><path class="st9" d="M73.9,95.1c0,0,1.6-2.1,3.4-0.5c0.6,0.6,1.3,1,2.1,1.2c0.6,0.1,1.4,0.1,2.1-0.2c0.3-0.1,0.5-0.4,0.8-0.6
			c0.4-0.4,1.8-1.7,3.8,0.1"/><path class="st10" d="M73.4,86c0,0-1.8-3.8-5.2-5s-7.1,0.7-7.1,0.7s1.4,3.1,4.8,4.3C69.2,87.2,73.4,86,73.4,86"/><path d="M73.4,86c-0.9-6.1-8.5-8.7-13.3-5.8c0.3,0.5,0.8,1.4,1.1,1.9c1-0.6,6.5-2.8,11.4,3.1C72.9,85.5,72.9,85.6,73.4,86"/><g><defs><path id="SVGID_1_" d="M60.8,81.7c0,0,1.4,3.1,4.8,4.3c3.4,1.2,7.5,0,7.5,0s-1.8-3.8-5.2-5c-0.8-0.3-1.6-0.4-2.4-0.4
					C63,80.6,60.8,81.7,60.8,81.7"/></defs><clipPath id="SVGID_00000113318533700591500950000003274315109496646589_"><use xlink:href="#SVGID_1_" style="overflow:visible;"/></clipPath><path style="clip-path:url(#SVGID_00000113318533700591500950000003274315109496646589_);" d="M67.8,82c0,1.6-1.3,2.9-2.9,2.9
				c-1.6,0-2.9-1.3-2.9-2.9s1.3-2.9,2.9-2.9C66.5,79,67.8,80.3,67.8,82"/></g><g><path class="st10" d="M85.3,86c0,0,1.8-3.8,5.2-5c3.4-1.2,7.1,0.7,7.1,0.7s-1.4,3.1-4.8,4.3C89.4,87.2,85.3,86,85.3,86"/><path d="M85.3,86c0.9-6.1,8.5-8.7,13.3-5.8c-0.3,0.5-0.8,1.4-1.1,1.9c-1-0.6-6.5-2.8-11.4,3.1C85.8,85.5,85.7,85.6,85.3,86"/></g><g><defs><path id="SVGID_00000042738830043348389380000012978962651986208699_" d="M91,80.5c-3.4,1.2-5.2,5-5.2,5s4.1,1.2,7.5,0
					c3.4-1.2,4.8-4.3,4.8-4.3s-2.2-1.1-4.7-1.1C92.7,80.1,91.9,80.2,91,80.5"/></defs><clipPath id="SVGID_00000084517393476580134020000010840959509416874395_"><use xlink:href="#SVGID_00000042738830043348389380000012978962651986208699_" style="overflow:visible;"/></clipPath><path style="clip-path:url(#SVGID_00000084517393476580134020000010840959509416874395_);" d="M86.1,83c0,1.6,1.3,2.9,2.9,2.9
				c1.6,0,2.9-1.3,2.9-2.9s-1.3-2.9-2.9-2.9C87.5,80.1,86.1,81.4,86.1,83"/></g><path class="st6" d="M82.5,73.2c5.5-7.8,12.3-8.3,17.7-0.4c0,0-5.1-1.6-9.3-1.6C86.6,71.2,82.5,73.2,82.5,73.2"/><path class="st6" d="M76.2,73.2c-5.5-7.8-12.3-8.3-17.7-0.4c0,0,5.1-1.6,9.3-1.6C72,71.2,76.2,73.2,76.2,73.2"/><path class="st6" d="M55.7,88.8V76.5c0-10.8,8.6-19.5,19.3-19.5h2.7v-6l3.4,6h3.2c10.7,0,19.3,8.8,19.3,19.5v12.3h3.8V64.3
			c0-11.7-9.5-21.2-21.2-21.2H73.1C61.4,43.1,52,52.6,52,64.3v24.5H55.7z"/><path class="st6" d="M86.6,101.3c0-0.8-0.8-1.2-1.5-1.4c-0.6-0.2-1.3-0.1-1.9,0.3l-4.1,2.2c0,0,3.6,4.8,8.5,4.1
			c1.9-0.3,4.1-1.4,6.3-4.1l-4-2.2c-0.7-0.4-1.5-0.4-2.3-0.1C87,100.3,86.6,100.6,86.6,101.3"/></g></g><g id="stramien"/></svg>