<?xml version="1.0" encoding="utf-8"?><!--Generator: Adobe Illustrator 27.8.0, SVG Export Plug-In . SVG Version: 6.00 Build 0)--><svg version="1.1" xmlns="http://www.w3.org/2000/svg" xmlns:xlink="http://www.w3.org/1999/xlink" x="0px" y="0px" viewBox="0 0 160 160" style="enable-background:new 0 0 160 160;" xml:space="preserve"><style type="text/css">.st0{fill:#FFC6AD;}
	.st1{fill:#F7931E;}
	.st2{fill:#8B181D;}
	.st3{fill:#F5836D;}
	.st4{fill:#FFA28F;}
	.st5{fill:#ABB8B9;}
	.st6{fill:#FBB03B;}
	.st7{fill:#F7E5CD;}
	.st8{fill:#BAC09A;}
	.st9{fill:#463EC5;}
	.st10{fill:#693725;}
	.st11{fill:#FAA332;}
	.st12{fill:#E73245;}
	.st13{fill:#8F411F;}
	.st14{fill:#F68D3D;}
	.st15{fill:#569B7B;}
	.st16{fill:#FFFFFF;}
	.st17{fill:#AACDE5;}
	.st18{fill:#232144;}
	.st19{fill:#A86554;}
	.st20{fill:#FFBD7A;}
	.st21{fill:#E6E3DA;}
	.st22{fill:#4B7CFE;}
	.st23{fill:#D8CBC5;}
	.st24{fill:#FF6200;}
	.st25{fill:#F0A86B;}
	.st26{fill:#E3944F;}
	.st27{fill:#191C15;}
	.st28{fill:#420F0F;}
	.st29{fill:#7D441C;}
	.st30{fill:none;stroke:#000000;stroke-width:0.6944;stroke-miterlimit:10;}
	.st31{fill:#01464D;}
	.st32{fill:#7A2F37;}
	.st33{fill:#9E3F39;}
	.st34{fill:none;stroke:#ABB8B9;stroke-width:3;stroke-miterlimit:10;}
	.st35{fill:#891229;}
	.st36{fill:#7070FF;}
	.st37{fill:#32785A;}
	.st38{fill:#D3E8F3;}
	.st39{fill:#006931;}
	.st40{clip-path:url(#SVGID_00000176739290498576596740000001927519735292179351_);}
	.st41{fill:#9A4039;}
	.st42{fill:none;stroke:#232144;stroke-width:2;stroke-miterlimit:10;}
	.st43{fill:#F5B091;}
	.st44{fill:none;stroke:#000000;stroke-width:1.3429;stroke-miterlimit:10;}
	.st45{fill:#D93B34;}
	.st46{fill:#FE5E57;}
	.st47{clip-path:url(#XMLID_00000103247137490339666210000011380910034749662138_);fill:#F7931E;}
	.st48{fill:#763427;}</style><g id="stramien"/><g id="Design"><polygon class="st0" points="138.2,144 129.9,96.7 109.4,121.5 113.5,144 	"/><polygon class="st0" points="42.5,144 46.5,121.5 25.4,96.7 17.2,144 	"/><path class="st2" d="M78.6,67.3c0,8.8-7.2,16-16,16s-16-7.2-16-16c0-8.8,7.2-16,16-16S78.6,58.5,78.6,67.3"/><polygon class="st9" points="42.5,144 44.5,81.8 111.2,81.8 113.7,144 	"/><path class="st9" d="M25.1,100.9c-0.7-9.8,6.6-18.3,16.4-19.1c9.8-0.7,18.3,6.6,19.1,16.4c0.7,9.8-11.2,24.9-11.2,24.9
		S25.8,110.7,25.1,100.9"/><polygon class="st9" points="58.7,132.2 18.4,132.2 25.3,96.1 58.7,99 	"/><path class="st9" d="M130.3,100.9c0.7-9.8-6.6-18.3-16.4-19.1c-9.8-0.7-18.3,6.6-19.1,16.4c-0.7,9.8,11.2,24.9,11.2,24.9
		S129.6,110.7,130.3,100.9"/><polygon class="st9" points="96.7,132.2 137,132.2 130,96.1 96.7,99 	"/><rect x="48.8" y="114.2" class="st6" width="59.5" height="29.8"/><rect x="48.8" y="81.8" class="st6" width="9" height="40"/><rect x="99.2" y="81.8" class="st6" width="9" height="40"/><rect x="57.8" y="132.2" class="st1" width="41.4" height="11.8"/><path class="st0" d="M101.2,54.6c0,2.9-2.3,5.2-5.2,5.2c-2.9,0-5.2-2.3-5.2-5.2c0-2.9,2.3-5.2,5.2-5.2
		C98.8,49.3,101.2,51.7,101.2,54.6"/><path class="st0" d="M65.7,54.6c0,2.9-2.3,5.2-5.2,5.2c-2.9,0-5.2-2.3-5.2-5.2c0-2.9,2.3-5.2,5.2-5.2
		C63.3,49.3,65.7,51.7,65.7,54.6"/><path class="st24" d="M61.1,57.9L61.1,57.9c2.6,0,4.7,2.1,4.7,4.7v4.7c0,2.6-2.1,4.7-4.7,4.7h0c-2.6,0-4.7-2.1-4.7-4.7v-4.7
		C56.4,60,58.5,57.9,61.1,57.9"/><path class="st24" d="M95.4,57.9L95.4,57.9c2.6,0,4.7,2.1,4.7,4.7v4.7c0,2.6-2.1,4.7-4.7,4.7h0c-2.6,0-4.7-2.1-4.7-4.7v-4.7
		C90.6,60,92.8,57.9,95.4,57.9"/><path class="st43" d="M65.3,81.8V65l25.9,0v16.7c0,7.1-5.8,12.9-12.9,12.9C71.1,94.7,65.3,88.9,65.3,81.8"/><path class="st0" d="M61.1,62.5V38.4c0-7.6,6.2-13.8,13.8-13.8h6.6c7.6,0,13.8,6.2,13.8,13.8v24.1c0,7.6-6.2,13.8-13.8,13.8h-6.6
		C67.3,76.4,61.1,70.2,61.1,62.5"/><path class="st44" d="M73.7,60.1c0,0,1.1-1.5,2.4-0.3c0.4,0.4,0.9,0.7,1.5,0.8c0.5,0.1,1,0.1,1.5-0.2c0.2-0.1,0.4-0.3,0.5-0.4
		c0.3-0.3,1.3-1.2,2.7,0.1"/><path class="st45" d="M78.3,66c0-1.5-2.2-1.3-2.2-1.3h-5.1c0-0.3,7.2,10.9,14.6,0h-5.1C80.5,64.8,78.3,64.6,78.3,66"/><path class="st46" d="M86.7,43.9l0.2,0c2.2,0,4.3,1.1,5.6,3l-11.4-0.1C82.4,45,84.5,43.9,86.7,43.9"/><path class="st16" d="M82.1,53.7c0,0,1.3-2.7,3.7-3.5c2.4-0.8,5,0.5,5,0.5s-1,2.2-3.4,3C85,54.5,82.1,53.7,82.1,53.7"/><path d="M84.4,51.9c0,1.1,0.9,2.1,2.1,2.1c1.1,0,2.1-0.9,2.1-2.1c0-1.1-0.9-2.1-2.1-2.1C85.3,49.9,84.4,50.8,84.4,51.9"/><path d="M82.1,53.7c0.6-4.3,6-6.1,9.4-4.1c-0.2,0.3-0.6,1-0.8,1.3c-0.7-0.4-4.6-2-8,2.2C82.4,53.3,82.4,53.4,82.1,53.7"/><path class="st46" d="M68.8,43.9l-0.2,0c-2.2,0-4.3,1.1-5.6,3l11.4-0.1C73.1,45,71,43.9,68.8,43.9"/><path class="st16" d="M73.7,53.6c0,0-1.3-2.7-3.7-3.5c-2.4-0.8-5,0.5-5,0.5s1,2.2,3.4,3C70.8,54.5,73.7,53.6,73.7,53.6"/><path d="M71.1,51.7c0,1.1-0.9,2.1-2.1,2.1c-1.1,0-2.1-0.9-2.1-2.1c0-1.1,0.9-2.1,2.1-2.1C70.2,49.7,71.1,50.6,71.1,51.7"/><path d="M73.7,53.6c-0.6-4.3-6-6.1-9.4-4.1c0.2,0.3,0.6,1,0.8,1.3c0.7-0.4,4.6-2,8,2.2C73.4,53.3,73.4,53.4,73.7,53.6"/><path class="st2" d="M61.3,54.1v-7.1c0-7.6,6.1-13.8,13.6-13.8h2.3v-4.3h2v4.3h2.3c7.5,0,13.6,6.2,13.6,13.8v7.1h2.7V38.3
		c0-8.3-6.7-15-15-15h-9.3c-8.3,0-15,6.7-15,15v15.7H61.3z"/><path class="st2" d="M92.7,33.2c0,3.7-3,6.7-6.7,6.7c-3.7,0-6.7-3-6.7-6.7c0-3.7,3-6.7,6.7-6.7C89.7,26.5,92.7,29.5,92.7,33.2"/><g><defs><path id="XMLID_00000124147095335815243130000014236123963459922326_" d="M98.8,36.9c0-11.4-9.3-20.7-20.7-20.7
				s-20.7,9.3-20.7,20.7l-4.1,1.7c-0.9,0.4-0.6,1.8,0.4,1.7L98.7,40L98.8,36.9z"/></defs><use xlink:href="#XMLID_00000124147095335815243130000014236123963459922326_" style="overflow:visible;fill:#FBB03B;"/><clipPath id="XMLID_00000044892982968928388410000018193288953136286344_"><use xlink:href="#XMLID_00000124147095335815243130000014236123963459922326_" style="overflow:visible;"/></clipPath><path style="clip-path:url(#XMLID_00000044892982968928388410000018193288953136286344_);fill:#F7931E;" d="M57.4,36.9h25.4
			c0,0-23.4-0.7-25.6-5.5S57.4,36.9,57.4,36.9"/></g></g></svg>