<?xml version="1.0" encoding="utf-8"?><!--Generator: Adobe Illustrator 28.0.0, SVG Export Plug-In . SVG Version: 6.00 Build 0)--><svg version="1.1" xmlns="http://www.w3.org/2000/svg" xmlns:xlink="http://www.w3.org/1999/xlink" x="0px" y="0px" viewBox="0 0 160 160" style="enable-background:new 0 0 160 160;" xml:space="preserve"><style type="text/css">.st0{fill:none;stroke:#2E3192;stroke-width:2.1123;stroke-miterlimit:10;}
	.st1{fill:#D8CBC5;}
	.st2{fill:#E6E3DA;}
	.st3{fill:#F5836D;}
	.st4{fill:#FBB03B;}</style><g id="Design"><g><path class="st0" d="M103.2,39.6c1.7,0.1,2.8,6.9,2.4,15.2c-0.4,8.3-2.1,15-3.9,14.9"/><g><path class="st1" d="M102.2,63.9c-7.6,1.7-12.3,9.2-10.6,16.8c1.7,7.6,9.2,12.3,16.8,10.6c7.6-1.7,12.3-9.2,10.6-16.8
				C117.3,66.9,109.8,62.2,102.2,63.9z M104.3,71.6c-1.6,0.4-3.1-0.6-3.4-2.2c-0.4-1.6,0.6-3.1,2.2-3.4c1.6-0.4,3.1,0.6,3.4,2.2
				C106.8,69.7,105.8,71.3,104.3,71.6z"/><path class="st1" d="M113.2,112.4c-0.2-1.1,0.4-2.2,1.5-2.7l-0.4-2.2c-1.1-0.2-2.2-1.4-2.5-3.1c-0.3-1.7,0.3-3.2,1.3-3.7
				l-0.2-1.4c-1.1,0-2.1-0.9-2.3-2c-0.2-1.1,0.4-2.2,1.5-2.7l-0.8-4.3l-6.8,1.2l5.1,29.1l3.9,2.9l2.8-4.1l-0.9-5.1
				C114.4,114.3,113.4,113.5,113.2,112.4"/></g><path class="st2" d="M100.8,66.1c-7.8,0-14,6.3-14,14c0,7.8,6.3,14,14,14c7.8,0,14-6.3,14-14C114.8,72.4,108.5,66.1,100.8,66.1z
			 M101.1,74.1c-1.6,0-2.9-1.3-2.9-2.9c0-1.6,1.3-2.9,2.9-2.9s2.9,1.3,2.9,2.9C104,72.9,102.7,74.1,101.1,74.1z"/><path class="st0" d="M101.8,69.6c-1.7-0.1-2.8-6.9-2.4-15.2c0.4-8.3,2.1-15,3.9-14.9"/><path class="st2" d="M100.8,115.9c0.1-1.2,0.9-2.1,2-2.3l0.1-2.3c-1.1-0.4-1.8-1.9-1.7-3.5c0.1-1.7,1-3.1,2.1-3.4l0.1-1.4
			c-1.1-0.3-1.8-1.3-1.8-2.5c0.1-1.2,0.9-2.1,2-2.3l0.2-4.4l-6.9-0.3l-1.4,29.5l3.2,3.7l3.7-3.4l0.2-5.2
			C101.5,118,100.8,117,100.8,115.9"/><polygon class="st3" points="69.5,94.3 91.2,65.9 49.3,48.6 40.3,83.3 		"/><path class="st3" d="M109.4,43.2L109.4,43.2c-2.4-2.9-6.7-3.3-9.6-0.9L70.5,66.9l7.7,11.3l30.4-25.4
			C111.5,50.4,111.9,46.1,109.4,43.2"/><path class="st3" d="M117.1,37.3L117.1,37.3c1-3.6-1.2-7.4-4.8-8.4l-29.1-7.8l-3.5,13.2l29.1,7.8C112.4,43.1,116.1,41,117.1,37.3"/><path class="st3" d="M118.5,21.6L118.5,21.6c-0.6-3.7-4.2-6.2-7.9-5.6l-29.7,5l2.3,13.5l29.7-5C116.6,28.9,119.1,25.3,118.5,21.6"/><polygon class="st3" points="49.3,48.6 58.3,58.9 89.9,31.4 80.9,21.2 		"/><rect x="52.7" y="39.8" transform="matrix(0.7588 -0.6513 0.6513 0.7588 -12.5751 59.3654)" class="st3" width="42.4" height="13.7"/><path class="st3" d="M87.4,52.7c0,0-4.6,3.6-6.8,5.1c-3.5,2.4-6.1-2.3-3.5-4.7c1.7-1.5,11.6-10.2,11.6-10.2l-31.8,7.6L77,69.2
			L87.4,52.7z"/><path class="st0" d="M125.8,70.8c-16.6-6.3-9.5-31.2-25-30.2"/><polygon class="st4" points="141.3,86 126,81.8 110.9,86.5 115.1,71.2 110.4,56.1 125.7,60.3 140.8,55.6 136.6,70.9 		"/><polygon class="st3" points="62.3,144.1 73.8,87.8 42.3,76.7 18.7,144.1 		"/></g></g><g id="stramien"/></svg>