<?xml version="1.0" encoding="UTF-8"?><svg xmlns="http://www.w3.org/2000/svg" viewBox="0 0 160 160"><defs><style>.cls-1{fill:#ffb300;}.cls-2{fill:#fdb128;}.cls-3{fill:#fff;}.cls-4{fill:#8b181d;}.cls-5{fill:#ffd4c2;}.cls-6{fill:#e63346;}.cls-7{fill:#440d0a;}.cls-8{fill:#ff6000;}.cls-9{fill:#fab188;}.cls-10{fill:#fd9500;}</style></defs><g id="Wallet"><rect class="cls-9" x="39.43" y="40.82" width="60.31" height="50.69" transform="translate(67.06 -29.82) rotate(44.94)"/><rect class="cls-5" x="51.57" y="45.97" width="60.61" height="16.18" transform="translate(62.1 -42.04) rotate(44.94)"/><polygon class="cls-4" points="67.27 41.04 61.15 34.32 60.48 37.56 61.12 37.69 61.53 35.71 66.78 41.48 65.31 42.81 65.75 43.3 68.96 40.4 68.52 39.91 67.27 41.04"/><path class="cls-4" d="M69.58,34.24c-1.62-1.94-4.04-3.43-5.32-2.36-1.39,1.16-.37,3.39.93,4.95,1.09,1.31,2.52,2.36,3.75,2.55.6.1,1.15-.01,1.6-.38,1.08-.9.7-2.77-.96-4.76ZM70.13,38.49c-.99.83-3.03-.41-4.43-2.08-1.15-1.38-1.96-3.23-1.01-4.02.88-.74,2.98.58,4.4,2.27,1.15,1.38,1.92,3.1,1.05,3.83Z"/><path class="cls-6" d="M121,60.5h-14.93v-3.98c0-1.04.84-1.88,1.88-1.88h11.17c1.04,0,1.88.84,1.88,1.88v3.98ZM107.43,59.14h12.19v-2.61c0-.28-.23-.51-.51-.51h-11.17c-.28,0-.51.23-.51.51v2.61Z"/><path class="cls-6" d="M115.39,58.36c-1.31,0-2.29-.45-2.8-1.29h0c-1.08-1.78.54-4.68,3.7-6.58,1.44-.87,2.97-1.4,4.33-1.49,1.52-.1,2.66.35,3.22,1.27,1.08,1.78-.54,4.68-3.7,6.58-1.44.87-2.97,1.4-4.33,1.49-.14,0-.28.01-.42.01ZM113.76,56.37c.28.46.99.68,1.95.61,1.14-.08,2.46-.54,3.71-1.3,2.62-1.59,3.81-3.75,3.24-4.7-.28-.46-.99-.68-1.95-.61-1.14.08-2.46.54-3.71,1.3-2.62,1.59-3.81,3.75-3.24,4.7h0Z"/><polygon class="cls-4" points="121.13 54.35 118.84 50.79 140.08 33.2 144.51 39.1 121.13 54.35"/><path class="cls-7" d="M19.8,59.12h110.43v80.41H19.8c-1.82,0-3.29-1.48-3.29-3.29V62.42c0-1.82,1.48-3.29,3.29-3.29Z"/><rect class="cls-2" x="39.65" y="64.22" width="1.58" height=".39"/><rect class="cls-2" x="42.82" y="64.22" width="1.58" height=".39"/><rect class="cls-2" x="45.98" y="64.22" width="1.58" height=".39"/><rect class="cls-2" x="33.33" y="64.22" width="1.58" height=".39"/><rect class="cls-2" x="71.27" y="64.22" width="1.58" height=".39"/><rect class="cls-2" x="30.17" y="64.22" width="1.58" height=".39"/><rect class="cls-2" x="36.49" y="64.22" width="1.58" height=".39"/><rect class="cls-2" x="49.14" y="64.22" width="1.58" height=".39"/><rect class="cls-2" x="61.78" y="64.22" width="1.58" height=".39"/><rect class="cls-2" x="64.95" y="64.22" width="1.58" height=".39"/><rect class="cls-2" x="68.11" y="64.22" width="1.58" height=".39"/><rect class="cls-2" x="55.46" y="64.22" width="1.58" height=".39"/><rect class="cls-2" x="52.3" y="64.22" width="1.58" height=".39"/><rect class="cls-2" x="58.62" y="64.22" width="1.58" height=".39"/><rect class="cls-2" x="21.23" y="88.86" width=".39" height="1.19"/><rect class="cls-2" x="21.23" y="85.7" width=".39" height="1.58"/><rect class="cls-2" x="21.23" y="82.54" width=".39" height="1.58"/><rect class="cls-2" x="121.85" y="64.22" width="1.58" height=".39"/><polygon class="cls-2" points="21.23 65.15 21.62 65.15 21.62 64.61 22.26 64.61 22.26 64.22 21.23 64.22 21.23 65.15"/><rect class="cls-2" x="21.23" y="66.73" width=".39" height="1.58"/><rect class="cls-2" x="21.23" y="76.21" width=".39" height="1.58"/><rect class="cls-2" x="21.23" y="73.05" width=".39" height="1.58"/><rect class="cls-2" x="21.23" y="69.89" width=".39" height="1.58"/><rect class="cls-2" x="23.85" y="64.22" width="1.58" height=".39"/><rect class="cls-2" x="27.01" y="64.22" width="1.58" height=".39"/><rect class="cls-2" x="21.23" y="79.37" width=".39" height="1.58"/><rect class="cls-2" x="118.69" y="64.22" width="1.58" height=".39"/><rect class="cls-2" x="125.12" y="73.59" width=".39" height="1.58"/><rect class="cls-2" x="125.12" y="76.75" width=".39" height="1.58"/><rect class="cls-2" x="125.12" y="79.91" width=".39" height="1.58"/><rect class="cls-2" x="125.12" y="67.27" width=".39" height="1.58"/><polygon class="cls-2" points="125.12 65.69 125.52 65.69 125.52 64.22 125.02 64.22 125.02 64.61 125.12 64.61 125.12 65.69"/><rect class="cls-2" x="125.12" y="70.43" width=".39" height="1.58"/><rect class="cls-2" x="125.12" y="83.08" width=".39" height="1.58"/><rect class="cls-2" x="125.12" y="86.24" width=".39" height="1.58"/><rect class="cls-2" x="125.12" y="89.4" width=".39" height=".65"/><rect class="cls-2" x="115.53" y="64.22" width="1.58" height=".39"/><rect class="cls-2" x="87.08" y="64.22" width="1.58" height=".39"/><rect class="cls-2" x="93.4" y="64.22" width="1.58" height=".39"/><rect class="cls-2" x="90.24" y="64.22" width="1.58" height=".39"/><rect class="cls-2" x="83.92" y="64.22" width="1.58" height=".39"/><rect class="cls-2" x="74.43" y="64.22" width="1.58" height=".39"/><rect class="cls-2" x="77.59" y="64.22" width="1.58" height=".39"/><rect class="cls-2" x="80.75" y="64.22" width="1.58" height=".39"/><rect class="cls-2" x="109.21" y="64.22" width="1.58" height=".39"/><rect class="cls-2" x="102.88" y="64.22" width="1.58" height=".39"/><rect class="cls-2" x="106.05" y="64.22" width="1.58" height=".39"/><rect class="cls-2" x="112.37" y="64.22" width="1.58" height=".39"/><rect class="cls-2" x="96.56" y="64.22" width="1.58" height=".39"/><rect class="cls-2" x="99.72" y="64.22" width="1.58" height=".39"/><rect class="cls-8" x="42.44" y="50.5" width="61.27" height="96.77" rx="4.76" ry="4.76" transform="translate(171.87 25.71) rotate(89.94)"/><path class="cls-3" d="M39.22,91.75h-5.12v2.15c0,.71.42,1.28.93,1.28h4.18s0-3.44,0-3.44Z"/><path class="cls-3" d="M48.61,91.75h-5.02v3.43s4.11,0,4.11,0c.5,0,.91-.58.91-1.29v-2.14Z"/><rect class="cls-3" x="44.46" y="88.7" width="4.15" height="2.71"/><rect class="cls-3" x="34.11" y="88.7" width="4.15" height="2.71"/><rect class="cls-3" x="39.55" y="84.89" width="3.69" height="1.4"/><rect class="cls-3" x="39.55" y="93.84" width="3.69" height="1.35"/><path class="cls-3" d="M43.58,88.36h5.02v-2.21c0-.71-.41-1.28-.92-1.28h-4.1v3.49Z"/><path class="cls-3" d="M39.22,84.88h-4.19c-.51,0-.93.58-.93,1.29v2.19h5.12v-3.48Z"/><polygon class="cls-3" points="38.57 93.69 38.56 86.44 44.15 86.43 44.17 93.68 38.57 93.69"/><path class="cls-8" d="M38.28,93.85l-.02-7.57h6.19s.02,7.57.02,7.57h-6.19ZM38.63,86.6v6.93s5.47,0,5.47,0v-6.93s-5.47,0-5.47,0Z"/><path class="cls-3" d="M52.71,92.67c-.09,0-.18-.03-.25-.1-.14-.14-.14-.36,0-.5,1.1-1.1,1.1-2.88,0-3.98-.14-.14-.14-.36,0-.5.14-.14.36-.14.5,0,1.37,1.37,1.37,3.6,0,4.97-.07.07-.16.1-.25.1Z"/><path class="cls-3" d="M54.2,93.29c-.09,0-.18-.03-.25-.1-.14-.14-.14-.36,0-.5,1.44-1.44,1.44-3.78,0-5.22-.14-.14-.14-.36,0-.5.14-.14.36-.14.5,0,1.71,1.71,1.71,4.5,0,6.22-.07.07-.16.1-.25.1Z"/><path class="cls-3" d="M55.69,93.93c-.09,0-.18-.03-.25-.1-.14-.14-.14-.36,0-.5.87-.87,1.34-2.02,1.34-3.24s-.48-2.38-1.34-3.24c-.14-.14-.14-.36,0-.5.14-.14.36-.14.5,0,1,1,1.55,2.33,1.55,3.74s-.55,2.74-1.55,3.74c-.07.07-.16.1-.25.1Z"/><path class="cls-3" d="M57.34,94.49c-.09,0-.18-.03-.25-.1-.14-.14-.14-.36,0-.5,1.97-1.97,1.97-5.7,0-7.67-.14-.14-.14-.36,0-.5.14-.14.36-.14.5,0,2.23,2.23,2.23,6.43,0,8.66-.07.07-.16.1-.25.1Z"/><path class="cls-4" d="M19.8,90.05h110.43v49.49H19.8c-1.82,0-3.29-1.48-3.29-3.29v-42.9c0-1.82,1.48-3.29,3.29-3.29Z"/><path class="cls-2" d="M123.91,93.5h-.21v-.39h.21v.39ZM122.12,93.5h-1.58v-.39h1.58v.39ZM118.96,93.5h-1.58v-.39h1.58v.39ZM115.8,93.5h-1.58v-.39h1.58v.39ZM112.63,93.5h-1.58v-.39h1.58v.39ZM109.47,93.5h-1.58v-.39h1.58v.39ZM106.31,93.5h-1.58v-.39h1.58v.39ZM103.15,93.5h-1.58v-.39h1.58v.39ZM99.99,93.5h-1.58v-.39h1.58v.39ZM96.83,93.5h-1.58v-.39h1.58v.39ZM93.66,93.5h-1.58v-.39h1.58v.39ZM90.5,93.5h-1.58v-.39h1.58v.39ZM87.34,93.5h-1.58v-.39h1.58v.39ZM84.18,93.5h-1.58v-.39h1.58v.39ZM81.02,93.5h-1.58v-.39h1.58v.39ZM77.86,93.5h-1.58v-.39h1.58v.39ZM74.7,93.5h-1.58v-.39h1.58v.39ZM71.53,93.5h-1.58v-.39h1.58v.39ZM68.37,93.5h-1.58v-.39h1.58v.39ZM65.21,93.5h-1.58v-.39h1.58v.39ZM62.05,93.5h-1.58v-.39h1.58v.39ZM58.89,93.5h-1.58v-.39h1.58v.39ZM55.73,93.5h-1.58v-.39h1.58v.39ZM52.56,93.5h-1.58v-.39h1.58v.39ZM49.4,93.5h-1.58v-.39h1.58v.39ZM46.24,93.5h-1.58v-.39h1.58v.39ZM43.08,93.5h-1.58v-.39h1.58v.39ZM39.92,93.5h-1.58v-.39h1.58v.39ZM36.76,93.5h-1.58v-.39h1.58v.39ZM33.6,93.5h-1.58v-.39h1.58v.39ZM30.43,93.5h-1.58v-.39h1.58v.39ZM27.27,93.5h-1.58v-.39h1.58v.39ZM24.11,93.5h-1.58v-.39h1.58v.39Z"/><rect class="cls-2" x="41.3" y="134.64" width="1.58" height=".39"/><rect class="cls-2" x="44.46" y="134.64" width="1.58" height=".39"/><rect class="cls-2" x="47.62" y="134.64" width="1.58" height=".39"/><rect class="cls-2" x="31.81" y="134.64" width="1.58" height=".39"/><rect class="cls-2" x="28.65" y="134.64" width="1.58" height=".39"/><rect class="cls-2" x="34.98" y="134.64" width="1.58" height=".39"/><rect class="cls-2" x="50.78" y="134.64" width="1.58" height=".39"/><rect class="cls-2" x="66.59" y="134.64" width="1.58" height=".39"/><rect class="cls-2" x="69.75" y="134.64" width="1.58" height=".39"/><rect class="cls-2" x="63.43" y="134.64" width="1.58" height=".39"/><rect class="cls-2" x="53.94" y="134.64" width="1.58" height=".39"/><rect class="cls-2" x="60.27" y="134.64" width="1.58" height=".39"/><rect class="cls-2" x="57.11" y="134.64" width="1.58" height=".39"/><rect class="cls-2" x="38.14" y="134.64" width="1.58" height=".39"/><rect class="cls-2" x="21.23" y="123.64" width=".39" height="1.58"/><rect class="cls-2" x="21.23" y="126.8" width=".39" height="1.58"/><rect class="cls-2" x="21.23" y="120.47" width=".39" height="1.58"/><rect class="cls-2" x="21.23" y="117.31" width=".39" height="1.58"/><rect class="cls-2" x="21.23" y="107.83" width=".39" height="1.58"/><path class="cls-2" d="M22.4,134.15c.42.37.93.64,1.47.77l.09-.38c-.48-.12-.93-.36-1.3-.69l-.26.29Z"/><path class="cls-2" d="M21.62,129.96h-.39v1.58c0,.43.08.85.23,1.25l.37-.14c-.14-.35-.21-.73-.21-1.11v-1.58Z"/><rect class="cls-2" x="21.23" y="92.02" width=".39" height="1.58"/><rect class="cls-2" x="21.23" y="95.18" width=".39" height="1.58"/><rect class="cls-2" x="25.49" y="134.64" width="1.58" height=".39"/><rect class="cls-2" x="21.23" y="114.15" width=".39" height="1.58"/><rect class="cls-2" x="21.23" y="98.34" width=".39" height="1.58"/><rect class="cls-2" x="21.23" y="110.99" width=".39" height="1.58"/><rect class="cls-2" x="21.23" y="104.67" width=".39" height="1.58"/><rect class="cls-2" x="21.23" y="101.51" width=".39" height="1.58"/><rect class="cls-2" x="125.12" y="117.85" width=".39" height="1.58"/><rect class="cls-2" x="125.12" y="124.18" width=".39" height="1.58"/><rect class="cls-2" x="125.12" y="114.69" width=".39" height="1.58"/><rect class="cls-2" x="125.12" y="121.02" width=".39" height="1.58"/><rect class="cls-2" x="125.12" y="108.37" width=".39" height="1.58"/><rect class="cls-2" x="125.12" y="111.53" width=".39" height="1.58"/><rect class="cls-2" x="125.12" y="105.21" width=".39" height="1.58"/><rect class="cls-2" x="72.91" y="134.64" width="1.58" height=".39"/><rect class="cls-2" x="117.18" y="134.64" width="1.58" height=".39"/><rect class="cls-2" x="120.34" y="134.64" width="1.58" height=".39"/><path class="cls-2" d="M123.37,134.33l.17.35c.5-.24.95-.6,1.28-1.05l-.31-.24c-.3.4-.69.72-1.14.93Z"/><rect class="cls-2" x="125.12" y="127.34" width=".39" height="1.58"/><path class="cls-2" d="M125.12,131.54c0,.17-.01.34-.04.51l.39.06c.03-.19.05-.38.05-.57v-1.04h-.39v1.04Z"/><rect class="cls-2" x="125.12" y="102.05" width=".39" height="1.58"/><rect class="cls-2" x="125.12" y="92.56" width=".39" height="1.58"/><rect class="cls-2" x="125.12" y="98.88" width=".39" height="1.58"/><rect class="cls-2" x="125.12" y="95.72" width=".39" height="1.58"/><rect class="cls-2" x="88.72" y="134.64" width="1.58" height=".39"/><rect class="cls-2" x="85.56" y="134.64" width="1.58" height=".39"/><rect class="cls-2" x="91.88" y="134.64" width="1.58" height=".39"/><rect class="cls-2" x="76.08" y="134.64" width="1.58" height=".39"/><rect class="cls-2" x="82.4" y="134.64" width="1.58" height=".39"/><rect class="cls-2" x="79.24" y="134.64" width="1.58" height=".39"/><rect class="cls-2" x="107.69" y="134.64" width="1.58" height=".39"/><rect class="cls-2" x="104.53" y="134.64" width="1.58" height=".39"/><rect class="cls-2" x="114.01" y="134.64" width="1.58" height=".39"/><rect class="cls-2" x="110.85" y="134.64" width="1.58" height=".39"/><rect class="cls-2" x="95.04" y="134.64" width="1.58" height=".39"/><rect class="cls-2" x="101.37" y="134.64" width="1.58" height=".39"/><rect class="cls-2" x="98.21" y="134.64" width="1.58" height=".39"/><rect class="cls-2" x="21.23" y="90.05" width=".39" height=".39"/><rect class="cls-2" x="125.12" y="90.05" width=".39" height=".93"/></g><g id="Coin"><path class="cls-10" d="M88.39,128.89v10.36c0,2.67,12.31,4.83,27.49,4.83s27.49-2.16,27.49-4.83v-10.36h-54.98Z"/><ellipse class="cls-1" cx="115.89" cy="128.89" rx="27.49" ry="4.83"/><path class="cls-10" d="M116.08,132.81c-9.43,0-23.46-1.02-23.46-3.81s14.03-3.81,23.46-3.81,23.46,1.02,23.46,3.81-14.03,3.81-23.46,3.81ZM116.08,125.91c-6.15,0-11.94.36-16.28,1-6.39.95-6.45,2.03-6.45,2.08s.08,1.13,6.45,2.08c4.35.65,10.13,1,16.28,1s11.94-.36,16.28-1c6.39-.95,6.45-2.03,6.45-2.08s-.08-1.13-6.45-2.08c-4.35-.65-10.13-1-16.28-1Z"/><path class="cls-10" d="M81.37,117.72v10.36c0,2.67,12.31,4.83,27.49,4.83s27.49-2.16,27.49-4.83v-10.36h-54.98Z"/><ellipse class="cls-1" cx="108.86" cy="117.72" rx="27.49" ry="4.83"/><path class="cls-10" d="M109.05,121.64c-9.43,0-23.46-1.02-23.46-3.81s14.03-3.81,23.46-3.81,23.46,1.02,23.46,3.81-14.03,3.81-23.46,3.81ZM109.05,114.74c-6.15,0-11.94.36-16.28,1-6.39.95-6.45,2.03-6.45,2.08s.08,1.13,6.45,2.08c4.35.65,10.13,1,16.28,1s11.94-.36,16.28-1c6.39-.95,6.45-2.03,6.45-2.08s-.08-1.13-6.45-2.08c-4.35-.65-10.13-1-16.28-1Z"/><path class="cls-10" d="M86.31,104.49v10.36c0,2.67,12.31,4.83,27.49,4.83s27.49-2.16,27.49-4.83v-10.36h-54.98Z"/><ellipse class="cls-1" cx="113.81" cy="104.49" rx="27.49" ry="4.83"/><path class="cls-10" d="M114,108.41c-9.43,0-23.46-1.02-23.46-3.81s14.03-3.81,23.46-3.81,23.46,1.02,23.46,3.81-14.03,3.81-23.46,3.81ZM114,101.51c-6.15,0-11.94.36-16.28,1-6.39.95-6.45,2.03-6.45,2.08s.08,1.13,6.45,2.08c4.35.65,10.13,1,16.28,1s11.94-.36,16.28-1c6.39-.95,6.45-2.03,6.45-2.08s-.08-1.13-6.45-2.08c-4.35-.65-10.13-1-16.28-1Z"/></g></svg>