<?xml version="1.0" encoding="UTF-8"?><svg id="Design" xmlns="http://www.w3.org/2000/svg" viewBox="0 0 160 160"><defs><style>.cls-1{fill:#ffc6ad;}.cls-1,.cls-2,.cls-3,.cls-4,.cls-5,.cls-6,.cls-7,.cls-8{stroke-width:0px;}.cls-2{fill:#ff6200;}.cls-3{fill:#000;}.cls-4{fill:#8da8dc;}.cls-5{fill:#d0def2;}.cls-6{fill:#232144;}.cls-7{fill:#f5b091;}.cls-8{fill:#faa332;}</style></defs><polyline class="cls-1" points="20.33 104.92 16 144 39.76 144 51.07 108"/><polygon class="cls-1" points="120.39 144 108.87 108 139.61 104.92 144 144 120.39 144"/><path class="cls-5" d="M39.76,144l-2.05-60.8s31.61-10.42,42.86-10.42c10.26,0,43.68,10.61,43.68,10.61l-2.7,60.61H39.76Z"/><polygon class="cls-6" points="87.45 93.05 80.02 102.42 71.8 92.93 80.02 89.99 87.45 93.05"/><polygon class="cls-6" points="87.25 144 80.05 89.68 72.82 144 87.25 144"/><path class="cls-5" d="M143.88,119.37s-5.28-34.48-23.94-36.64c-9.6,0-17.92,6.45-18.64,16.01-.72,9.56,17.37,32.9,17.37,32.9l25.22-12.27Z"/><path class="cls-7" d="M93.72,79.88v-21.41l-27.45-.08v21.48c0,5.57,4.52,10.09,10.1,10.09h7.25c5.58,0,10.1-4.52,10.1-10.09"/><path class="cls-1" d="M67.15,47.86c0-3.1-2.51-5.61-5.61-5.61s-5.61,2.51-5.61,5.61,2.51,5.61,5.61,5.61,5.61-2.51,5.61-5.61"/><path class="cls-1" d="M92.91,47.86c0-3.1,2.51-5.61,5.61-5.61,2.43,0,5.61,2.51,5.61,5.61s-2.51,5.61-5.61,5.61-5.61-2.51-5.61-5.61"/><path class="cls-1" d="M98.32,56.21v-24.94c0-8.43-6.84-15.27-15.27-15.27h-6.54c-8.43,0-15.27,6.84-15.27,15.27v24.94c0,8.43,6.84,15.27,15.27,15.27h6.54c8.43,0,15.27-6.84,15.27-15.27"/><path class="cls-2" d="M63.51,50.78h-3.14v-24.08c0-1.74,1.41-3.14,3.14-3.14v27.23Z"/><path class="cls-2" d="M96.08,50.78h3.14v-24.08c0-1.74-1.41-3.14-3.14-3.14v27.23Z"/><path class="cls-3" d="M80.07,61c-2.35,0-4.25-.77-4.37-.82l.4-.96s4.05,1.63,7.37.01l.46.94c-1.28.62-2.63.83-3.85.83Z"/><path class="cls-2" d="M84.01,54.34h-8.66c-1.31,0-2.37,1.06-2.37,2.37v1.65h13.4v-1.65c0-1.31-1.06-2.37-2.37-2.37"/><path class="cls-6" d="M95.09,44.95v-1.75c0-2.75-2.15-4.97-4.79-4.97h-4.31c-2.64.01-4.77,2.25-4.77,5h0s0,0,0,.01v1.75c0,2.75,2.15,4.97,4.79,4.97h4.31c2.64-.01,4.77-2.25,4.77-5h0s0,0,0-.01Z"/><path class="cls-6" d="M78.37,44.95v-1.75c0-2.75-2.17-4.97-4.83-4.97h-4.34c-2.66.01-4.81,2.25-4.8,5h0s0,0,0,.01v1.75c0,2.75,2.17,4.97,4.83,4.97h4.34c2.66-.01,4.81-2.25,4.8-5h0s0,0,0-.01Z"/><path class="cls-6" d="M85.31,46.04h-2.03c0-1.98-1.61-3.59-3.59-3.59s-3.59,1.61-3.59,3.59h-2.03c0-3.1,2.52-5.63,5.63-5.63s5.63,2.52,5.63,5.63Z"/><polygon class="cls-4" points="93.74 74.78 80.02 89.99 89.42 100.79 97.77 75.91 93.74 74.78"/><polygon class="cls-6" points="103.13 77.3 105.38 84.77 123.87 88.97 125.02 82.38 103.13 77.3"/><polygon class="cls-4" points="66.28 74.78 80 89.99 70.6 100.79 62.25 75.91 66.28 74.78"/><path class="cls-5" d="M16.06,119.37s5.28-34.48,23.94-36.64c9.6,0,17.92,6.45,18.64,16.01.72,9.56-17.37,32.9-17.37,32.9l-25.22-12.27Z"/><polygon class="cls-6" points="56.8 77.3 54.56 84.77 36.07 88.97 34.92 82.38 56.8 77.3"/><path class="cls-8" d="M106.12,99.9l-6.68,2.71v8.25s-.02,4,6.68,6.45c6.7-2.45,6.68-6.45,6.68-6.45v-8.25l-6.68-2.71Z"/><path class="cls-2" d="M82.56,34.23v-.6c0-1.57,1.27-2.85,2.85-2.85h7.08c1.56,0,2.82,1.26,2.82,2.82v.6s-.01.03-.03.03h-12.72Z"/><path class="cls-2" d="M77.42,37.4v-.6c0-1.57-1.27-2.85-2.85-2.85h-7.08c-1.56,0-2.82,1.26-2.82,2.82v.6s.01.03.03.03h12.72Z"/><polygon class="cls-6" points="60.37 41.19 71.36 41.23 71.36 39.29 60.37 39.29 60.37 41.19"/><polygon class="cls-6" points="88.23 41.19 99.22 41.23 99.22 39.29 88.23 39.29 88.23 41.19"/><path class="cls-3" d="M79.99,53.38c-.85,0-1.52-.42-2.12-.79-.98-.61-1.56-.98-2.74.2l-.77-.77c1.79-1.79,3.06-.99,4.08-.35.52.32,1,.63,1.54.63s1.01-.28,1.5-.58c.97-.6,2.18-1.34,4.18.33l-.69.83c-1.41-1.17-2.01-.8-2.93-.24-.57.35-1.21.74-2.07.74"/></svg>