<?xml version="1.0" encoding="UTF-8"?><svg id="Bus" xmlns="http://www.w3.org/2000/svg" viewBox="0 0 160 160"><defs><style>.cls-1{fill:#e7e4d7;}.cls-2{fill:#241c4a;}.cls-3{fill:#dccbc3;}.cls-4{fill:#ff9000;}</style></defs><path class="cls-4" d="M114.78,91.67c-3.73-12.41-15.16-20.9-28.12-20.9H15.93v68.29h105.73v-24.49l-6.89-22.9Z"/><rect class="cls-2" x="15.93" y="92.74" width="27.69" height="23.16"/><rect class="cls-2" x="45.91" y="92.74" width="41.23" height="23.16"/><path class="cls-2" d="M120.8,88.33h-10.12v1.53h10.12c3.2,0,5.79,2.6,5.79,5.79v1.16h-2.17v6.56h2.17s1.53,0,1.53,0v-7.72c0-4.04-3.29-7.33-7.33-7.33Z"/><polyline class="cls-2" points="107.87 139.06 107.87 92.74 89.95 92.74 89.95 139.06"/><rect class="cls-3" x="89.95" y="132.91" width="17.92" height="6.15"/><rect class="cls-3" x="89.95" y="92.74" width="17.92" height="2.94"/><rect class="cls-3" x="89.95" y="92.74" width="1.79" height="46.35"/><rect class="cls-3" x="106.08" y="92.74" width="1.79" height="46.35"/><path class="cls-3" d="M50.51,139.06c-.96-1.84-1.5-3.94-1.5-6.16,0-7.38,5.98-13.36,13.36-13.36,7.38,0,13.36,5.98,13.36,13.36,0,2.22-.54,4.31-1.5,6.16"/><circle class="cls-2" cx="62.37" cy="132.91" r="11.09"/><circle class="cls-3" cx="62.37" cy="132.91" r="7.04"/><path class="cls-2" d="M121.66,114.57l-5.93-19.71c-.38-1.26-1.53-2.12-2.85-2.12h-2.2v19.11c0,1.5,1.22,2.72,2.72,2.72h8.26Z"/><path class="cls-1" d="M15.93,84.72h95.7c-5.25-8.52-14.62-13.95-24.98-13.95H15.93v13.95Z"/><rect class="cls-3" x="139.45" y="48.63" width="4.53" height="95.37"/><rect class="cls-3" x="103.5" y="48.63" width="38.91" height="19.91"/></svg>