<?xml version="1.0" encoding="utf-8"?><!--Generator: Adobe Illustrator 27.8.0, SVG Export Plug-In . SVG Version: 6.00 Build 0)--><svg version="1.1" id="Ebene_1" xmlns="http://www.w3.org/2000/svg" xmlns:xlink="http://www.w3.org/1999/xlink" x="0px" y="0px" viewBox="0 0 160 160" style="enable-background:new 0 0 160 160;" xml:space="preserve"><style type="text/css">.st0{fill:#891229;}
	.st1{fill:#693725;}
	.st2{fill:#A8A8A8;}
	.st3{fill:#5D2B1A;}
	.st4{fill:#FFFFFF;}
	.st5{fill:#C6C6C6;}
	.st6{fill:#E73245;}
	.st7{fill:#F0A86B;}
	.st8{fill:#E3944F;}
	.st9{fill:#797878;}
	.st10{fill:#76342F;}</style><g id="character"/><g id="hand_with_pen"><path class="st0" d="M143.9,81.81c0-7.51-4.98-13.85-11.81-15.89v-0.03c0,0-26.45-8.39-33.89-8.39c-3.23,0-8.76,1.18-14.28,2.62
		c-8.44,2.19-16.83,4.97-16.83,4.97L68.57,144h56.92h2.47H144L143.9,81.81z"/><path class="st1" d="M87.3,41.72c-0.34-2.2-2.4-3.72-4.6-3.38s-3.71,2.4-3.37,4.61c0.34,2.2,2.4,3.72,4.6,3.38
		S87.64,43.93,87.3,41.72"/><path class="st2" d="M104.53,40.1l-16.34,2.53c-4.67,0.72-9.05-2.48-9.77-7.16l-0.19-1.21c-0.72-4.67,2.48-9.04,7.15-9.76
		l16.34-2.53c4.67-0.72,9.05,2.48,9.77,7.16l0.19,1.21C112.4,35.01,109.2,39.38,104.53,40.1z"/><path class="st3" d="M105.59,38.89c-0.34-2.2,1.17-4.27,3.37-4.61c2.2-0.34,4.26,1.17,4.6,3.38s-1.17,4.27-3.37,4.61
		C107.99,42.61,105.93,41.1,105.59,38.89"/><path class="st3" d="M107.92,62.67V47.09L88,47.03v15.64c0,4.06,3.28,7.34,7.33,7.34h5.26C104.64,70.01,107.92,66.72,107.92,62.67"/><path class="st1" d="M110.44,43.61l-2.82-18.36c-0.92-5.95-6.42-10.04-12.3-9.13l-5.07,0.78c-5.88,0.91-9.9,6.47-8.98,12.42
		l2.82,18.36c0.92,5.95,6.42,10.04,12.3,9.13l5.07-0.78C107.34,55.12,111.36,49.56,110.44,43.61"/><g><path class="st4" d="M105,35.87c-0.28-0.77-1.77-0.93-3.32-0.36c-0.27,0.1-0.52,0.22-0.75,0.35c0.06-0.02,0.11-0.04,0.17-0.05
			c0.81-0.13,1.57,0.42,1.69,1.24c0.08,0.56-0.15,1.08-0.56,1.4c0.15-0.04,0.31-0.09,0.47-0.15C104.25,37.73,105.28,36.64,105,35.87
			z"/><path class="st4" d="M99.86,37.51c-0.07-0.44,0.07-0.87,0.34-1.18c-0.66,0.53-0.99,1.13-0.82,1.61c0.15,0.41,0.65,0.64,1.31,0.69
			C100.26,38.42,99.93,38.02,99.86,37.51z"/><path d="M100.2,36.33c-0.27,0.32-0.41,0.74-0.34,1.18c0.07,0.51,0.4,0.91,0.83,1.12c0.45,0.03,0.99-0.03,1.54-0.18
			c0.41-0.32,0.64-0.84,0.56-1.4c-0.12-0.82-0.88-1.37-1.69-1.24c-0.06,0.01-0.12,0.03-0.17,0.05"/></g><path d="M97.78,49.99c-1.28,0.2-2.51-0.11-3.43-0.85l0.52-0.64c0.79,0.64,1.89,0.87,3.02,0.63c0.97-0.21,1.77-0.73,2.1-1.37
		l0.74,0.38c-0.44,0.87-1.44,1.54-2.66,1.8C97.97,49.96,97.88,49.97,97.78,49.99"/><path d="M96.73,44.46c-0.62,0.1-1.15-0.13-1.62-0.34c-0.77-0.33-1.24-0.53-1.96,0.45l-0.64-0.47c1.09-1.49,2.1-1.06,2.91-0.71
		c0.41,0.18,0.79,0.34,1.18,0.28c0.4-0.06,0.7-0.32,1.02-0.59c0.63-0.54,1.42-1.21,3.06-0.23l-0.41,0.68
		c-1.15-0.69-1.54-0.35-2.14,0.16C97.77,44.01,97.35,44.37,96.73,44.46"/><g><path class="st4" d="M88.13,37.51c-0.92,0.21-1.57,0.66-1.59,1.22c-0.02,0.39,0.27,0.75,0.74,1.04c-0.12-0.17-0.2-0.37-0.23-0.6
			C86.94,38.41,87.41,37.71,88.13,37.51z"/><path class="st4" d="M89.59,37.38c-0.45-0.02-0.87,0.02-1.26,0.09c0.79-0.1,1.53,0.45,1.65,1.24c0.1,0.69-0.29,1.35-0.91,1.6
			c0.13,0.01,0.26,0.03,0.39,0.04c1.65,0.07,3.01-0.53,3.05-1.35S91.24,37.46,89.59,37.38z"/><path d="M88.29,37.47c-0.05,0.01-0.1,0.03-0.16,0.04c0.07-0.02,0.13-0.03,0.2-0.04C88.32,37.47,88.3,37.47,88.29,37.47z"/><path d="M89.98,38.71c-0.12-0.8-0.85-1.35-1.65-1.24c-0.07,0.01-0.13,0.03-0.2,0.04c-0.72,0.2-1.2,0.9-1.08,1.66
			c0.03,0.22,0.12,0.42,0.23,0.6c0.45,0.27,1.08,0.47,1.79,0.55C89.69,40.06,90.08,39.4,89.98,38.71z"/></g><polygon class="st5" points="107.58,71.27 88.71,70.55 88.05,64.17 87.99,57.13 97.22,65 97.98,69.91 99.09,65 108.01,57.48 
		107.84,64.92 	"/><path class="st2" d="M91.99,35.38l-0.24-1.53c-0.14-0.94-1.02-1.58-1.96-1.44l-5.12,0.79c-0.93,0.14-1.56,1.01-1.42,1.94l0.24,1.54
		c0,0.01,0.01,0.01,0.02,0.01L91.99,35.38z"/><path class="st2" d="M99,34.29l-0.24-1.54c-0.14-0.94,0.5-1.81,1.43-1.96l5.12-0.79c0.93-0.14,1.8,0.49,1.94,1.42l0.24,1.53
		c0,0.01,0,0.02-0.01,0.02L99,34.29z"/><path class="st2" d="M104.62,46.19l-0.18-1.17c-0.13-0.83-0.91-1.4-1.74-1.28L91.41,45.5c-0.83,0.13-1.4,0.91-1.27,1.74l0.18,1.17
		L104.62,46.19z"/><path class="st2" d="M107.98,41.01l2.16-0.33l-2.56-16.64c-0.18-1.19-1.3-2.01-2.5-1.83l0,0L107.98,41.01z"/><polygon class="st5" points="88.71,70.32 92.32,130.17 96.64,130.17 102.62,130.17 104.28,112.04 107.58,71.04 	"/><g><path class="st6" d="M39.38,96.6c0,0,4.09-14.39,3.53-21.83s-7.03-13.02-14.45-12.46S15.48,69.36,16.04,76.8"/></g><path class="st2" d="M85.56,44.48l-2.16,0.33l-2.56-16.64c-0.18-1.2,0.64-2.31,1.83-2.5l0,0L85.56,44.48z"/><polygon class="st1" points="38.76,58.22 44.04,62.29 39.78,62.33 36.64,60.5 	"/><polygon class="st6" points="86.25,144 83.96,111.88 81.78,111.88 81.78,110.33 83.46,110.33 82.69,62.27 28.82,62.27 
		30.05,110.33 32.43,110.33 32.43,113.8 32.59,113.8 26.56,144 	"/><polygon class="st7" points="46.05,144 31.04,144 20,95.37 36.96,93.89 	"/><polygon class="st7" points="91.49,144 78.5,144 79.31,103.87 94.15,105.52 	"/><path class="st6" d="M83.49,62.31c-7.42-0.56-13.89,5.02-14.45,12.46s8.5,18.91,8.5,18.91s0.17-0.09,0.46-0.25l-0.36,14.29
		l18.1,0.17l0.16-31.18C96.42,69.3,90.88,62.86,83.49,62.31z"/><path class="st6" d="M16.04,76.8l5.15,34.08l19.1-3.66l-1-19.82L16.04,76.8c0.56,7.44,23.34,19.8,23.34,19.8"/><path class="st7" d="M76.65,48.46c-0.82,2.17-3.24,3.26-5.4,2.44s-3.25-3.25-2.43-5.41c0.82-2.17,3.24-3.26,5.4-2.44
		C76.38,43.86,77.47,46.29,76.65,48.46"/><path class="st7" d="M50.09,38.34c-0.82,2.17-3.24,3.26-5.4,2.44s-3.25-3.25-2.43-5.41c0.82-2.17,3.24-3.26,5.4-2.44
		S50.91,36.18,50.09,38.34"/><rect x="44.17" y="38.62" class="st5" width="1" height="8.51"/><path class="st8" d="M46.13,61.89V48.43l20.68,0.03v13.43c0,5.73-4.63,10.37-10.34,10.37S46.13,67.62,46.13,61.89"/><path class="st7" d="M44.52,42.67l6.84-18.1c2.16-5.72,8.54-8.6,14.25-6.43l4.97,1.89c5.71,2.17,8.58,8.57,6.41,14.29l-6.84,18.1
		c-2.16,5.72-8.54,8.6-14.25,6.43l-4.97-1.89C45.23,54.79,42.35,48.39,44.52,42.67"/><path d="M62.75,41.99c1.68-3.04,6.25-2.87,8.17-0.41c-0.25,0.19-0.72,0.57-0.97,0.76c-0.42-0.54-2.85-2.79-6.62-0.65
		C63.09,41.81,63.04,41.88,62.75,41.99"/><path class="st9" d="M46.55,37.67l2.54-6.69c2.17-5.72,8.5-8.61,14.14-6.45l1.7,0.65l1.22-3.2l1.51,0.58l-1.22,3.2l1.7,0.65
		c5.64,2.15,8.44,8.54,6.27,14.26l-2.54,6.69l2,0.77l5-13.16c2.36-6.2-0.74-13.14-6.92-15.5l-6.94-2.65
		c-6.18-2.36-13.1,0.75-15.45,6.94l-5,13.16L46.55,37.67z"/><path class="st9" d="M75.91,30.72c2.33,6.48-0.6,13.47-0.6,13.47s-6.71-3.5-9.05-9.98s0.6-13.47,0.6-13.47S73.57,24.25,75.91,30.72
		"/><path d="M57.68,46.35c-0.15-0.06-0.29-0.13-0.44-0.22c-0.41-0.26-0.74-0.65-0.99-1.15c-0.13-0.27-0.31-0.43-0.53-0.49
		c-0.44-0.13-0.94,0.18-0.95,0.18l-0.29-0.47c0.03-0.02,0.71-0.44,1.38-0.25c0.38,0.1,0.67,0.37,0.87,0.78
		c0.21,0.42,0.47,0.73,0.8,0.93c0.33,0.21,0.66,0.29,0.98,0.26c0.13-0.02,0.28-0.06,0.43-0.14c0.19-0.1,0.7-0.3,1.26-0.12
		c0.44,0.15,0.81,0.52,1.09,1.08l-0.49,0.24c-0.21-0.43-0.47-0.7-0.77-0.8c-0.36-0.12-0.71,0.02-0.84,0.09
		c-0.21,0.1-0.42,0.17-0.62,0.19C58.27,46.5,57.97,46.46,57.68,46.35z"/><path class="st9" d="M55.44,30.82l-0.16-0.04c-1.71-0.41-3.52,0.05-4.9,1.24l8.86,2.13C58.55,32.46,57.15,31.23,55.44,30.82"/><path class="st9" d="M68.95,35.97l0.14,0.09c1.48,0.95,2.4,2.58,2.49,4.4l-7.67-4.94C65.61,34.85,67.47,35.01,68.95,35.97"/><path class="st4" d="M56.45,39.6c0,0-0.18-2.36-1.73-3.67c-1.56-1.31-3.91-1.06-3.91-1.06s0.1,1.91,1.66,3.22
		C54.03,39.39,56.45,39.6,56.45,39.6"/><path d="M56.45,39.6c0.75-3.39-2.78-6.3-5.84-5.73c0.06,0.3,0.16,0.91,0.22,1.21c0.68-0.12,3.97-0.2,5.39,3.91
		C56.31,39.24,56.3,39.32,56.45,39.6"/><path d="M56.05,38.03c-0.33,0.86-1.28,1.29-2.14,0.97c-0.86-0.33-1.29-1.29-0.96-2.15s1.28-1.29,2.14-0.97
		C55.94,36.21,56.37,37.17,56.05,38.03"/><path class="st4" d="M66,41.77c0.31-0.82,1.21-1.25,2.04-1c-0.47-0.2-1-0.35-1.56-0.37c-2.03-0.06-3.72,1.6-3.72,1.6
		s1.7,1.25,3.57,1.47C65.93,43.02,65.78,42.37,66,41.77z"/><path class="st4" d="M69.12,42.91c0.63-0.34,0.99-0.71,0.99-0.71s-0.64-0.7-1.62-1.22C69.1,41.4,69.38,42.18,69.12,42.91z"/><path d="M68.15,40.8c-0.03-0.01-0.07-0.02-0.11-0.03c0.15,0.07,0.3,0.13,0.45,0.21C68.38,40.91,68.27,40.85,68.15,40.8z"/><path d="M69.12,42.91c0.26-0.73-0.02-1.52-0.63-1.93c-0.14-0.08-0.29-0.14-0.45-0.21c-0.83-0.25-1.72,0.17-2.04,1
		c-0.23,0.6-0.08,1.25,0.32,1.7c0.14,0.02,0.27,0.04,0.41,0.04C67.72,43.54,68.54,43.23,69.12,42.91z"/><ellipse class="st5" cx="44.66" cy="38.62" rx="0.99" ry="0.99"/><path class="st10" d="M54.96,49.55c0.65-0.85-0.73-1.74-0.73-1.74l-2.92-2.27c0.16-0.14-0.72,9.5,8.44,6.54l-2.92-2.27
		C56.82,49.82,55.61,48.7,54.96,49.55L54.96,49.55z"/><rect x="72.15" y="49.37" class="st5" width="1" height="8.13"/><ellipse class="st5" cx="72.73" cy="49.3" rx="0.99" ry="0.99"/><path class="st1" d="M27.73,67.71l-0.09,0.02c-1,0.19-1.96-0.47-2.14-1.47l-0.68-3.69c-0.18-1,0.47-1.96,1.47-2.15l0.09-0.02
		c1-0.19,1.96,0.47,2.14,1.47l0.68,3.69C29.38,66.56,28.72,67.52,27.73,67.71z"/><path class="st1" d="M31.58,68.1h-0.02c-1.02,0.19-2-0.48-2.18-1.5l-1.07-5.78c-0.19-1.02,0.48-2,1.5-2.19h0.02
		c1.02-0.19,2,0.48,2.18,1.5l1.07,5.78C33.27,66.93,32.6,67.91,31.58,68.1z"/><path class="st1" d="M35.28,67.41h-0.02c-1.02,0.19-2-0.48-2.18-1.5l-1.07-5.78c-0.19-1.02,0.48-2,1.5-2.19h0.02
		c1.02-0.19,2,0.48,2.18,1.5l1.07,5.78C36.97,66.24,36.3,67.22,35.28,67.41z"/><path class="st1" d="M38.85,66.05h-0.02c-1.02,0.19-2-0.48-2.18-1.5l-0.82-4.45c-0.19-1.02,0.48-2,1.5-2.19h0.02
		c1.02-0.19,2,0.48,2.18,1.5l0.82,4.45C40.54,64.88,39.87,65.86,38.85,66.05z"/><path d="M62.76,41.99c1.68-3.03,6.24-2.87,8.16-0.41c-0.25,0.19-0.72,0.57-0.97,0.76c-0.42-0.54-2.84-2.79-6.62-0.65
		C63.1,41.82,63.05,41.89,62.76,41.99"/></g><g id="Ebene_3"/><g id="Ebene_4"/></svg>