<svg viewBox="0 0 160 160" fill="none" xmlns="http://www.w3.org/2000/svg"><path fill-rule="evenodd" clip-rule="evenodd" d="M48.6986 92.306C48.4926 91.1682 48.3296 90.0143 48.2246 88.8412L46.0096 64.0437H74.1706C74.1896 63.3062 74.1896 62.5648 74.1526 61.8153C73.3546 45.6706 59.6976 33.2331 43.6486 34.0369C27.6006 34.8397 15.2386 48.579 16.0366 64.7247C16.8346 80.8695 30.4916 93.307 46.5406 92.5032C47.2686 92.467 47.9866 92.3945 48.6986 92.306Z" fill="#F7931E"/><path fill-rule="evenodd" clip-rule="evenodd" d="M62.7397 43.6577L62.7417 43.6597L62.7397 43.6577Z" fill="#FBB03B"/><path fill-rule="evenodd" clip-rule="evenodd" d="M45.7336 61.4706L62.1906 43.181C57.4346 39.0835 51.2276 36.6801 44.5156 36.832L45.7336 61.4706Z" fill="#FBB03B"/><path fill-rule="evenodd" clip-rule="evenodd" d="M46.8115 62.4517L71.3015 61.2253C70.7855 54.491 67.7925 48.5162 63.2675 44.1621L46.8115 62.4517Z" fill="#FBB03B"/><path fill-rule="evenodd" clip-rule="evenodd" d="M44.2816 61.5429L43.0626 36.9043C36.3686 37.4234 30.4296 40.4355 26.1016 44.9877L44.2816 61.5429Z" fill="#FBB03B"/><path fill-rule="evenodd" clip-rule="evenodd" d="M64.5938 81.0161L64.5828 81.0281C64.5868 81.0241 64.5898 81.0201 64.5938 81.0161Z" fill="#FBB03B"/><path fill-rule="evenodd" clip-rule="evenodd" d="M43.3059 62.627L25.1259 46.0708C21.0529 50.8555 18.6639 57.0999 18.8149 63.8533L43.3059 62.627Z" fill="#FBB03B"/><path fill-rule="evenodd" clip-rule="evenodd" d="M44.456 65.0693L27.999 83.3589C32.755 87.4565 38.962 89.8599 45.674 89.708L44.456 65.0693Z" fill="#FBB03B"/><path fill-rule="evenodd" clip-rule="evenodd" d="M43.3785 64.0879L18.8875 65.3142C19.4035 72.0486 22.3965 78.0234 26.9215 82.3775L43.3785 64.0879Z" fill="#FBB03B"/><path fill-rule="evenodd" clip-rule="evenodd" d="M27.4498 82.8819L27.4478 82.8799L27.4498 82.8819Z" fill="#FBB03B"/><path fill-rule="evenodd" clip-rule="evenodd" d="M138.701 96.8807C137.1 104.837 130.148 110.558 122.079 110.558H114.423C119.558 104.675 122.938 97.1745 123.682 88.8415L124.771 76.6515C134.098 78.1394 140.645 87.2188 138.701 96.8807ZM125.209 71.7441L125.897 64.0439H46.01L48.224 88.8415C49.666 104.981 60.973 118.013 75.833 122.153H45.864V126H126.042V122.153H96.066C100.912 120.802 105.383 118.51 109.255 115.468H122.155C132.908 115.468 142.061 107.594 143.73 96.9079C145.652 84.6092 137.08 73.408 125.209 71.7441Z" fill="#E6E3DA"/><path fill-rule="evenodd" clip-rule="evenodd" d="M87.7976 74.6909C87.7976 74.6909 101.374 96.4714 118.94 74.6909C118.94 74.6909 110.59 66.2664 103.149 70.9776C103.149 70.9776 94.1786 66.0471 87.7976 74.6909Z" fill="#ED1E79"/><path fill-rule="evenodd" clip-rule="evenodd" d="M98.5122 75.3216C98.6492 75.2803 98.7922 75.2522 98.9342 75.222C99.3202 75.1385 99.7072 75.059 100.093 74.9705C100.502 74.8769 100.916 74.7944 101.315 74.6657C101.696 74.5419 102.036 74.3427 102.429 74.2441C102.975 74.1083 103.544 74.1345 104.082 74.2854C104.716 74.4645 105.312 74.727 105.952 74.894C106.42 75.0158 106.917 75.1103 107.398 75.2129C107.784 75.2954 108.213 75.3427 108.49 75.6214C108.729 75.8628 108.815 76.2069 108.718 76.5178C108.607 76.8719 108.263 77.0691 107.916 77.2341C106.426 77.9473 104.982 78.6022 103.265 78.7371C103.265 78.7371 101.989 78.8709 98.2852 77.0821C97.8812 76.887 97.6542 76.4564 97.7422 76.053C97.7822 75.8669 97.8862 75.6918 98.0392 75.561C98.1772 75.4443 98.3402 75.3729 98.5122 75.3216Z" fill="#E6E3DA"/><path fill-rule="evenodd" clip-rule="evenodd" d="M71.3683 64.0437C71.3813 63.594 71.3843 63.1412 71.3743 62.6865L46.8833 63.9129L47.0273 64.0437H71.3683Z" fill="#FBB03B"/><path fill-rule="evenodd" clip-rule="evenodd" d="M48.298 89.5165C48.274 89.2911 48.245 89.0678 48.224 88.8414L46.112 65.1827L45.908 64.9976L47.127 89.6352C47.52 89.605 47.91 89.5637 48.298 89.5165Z" fill="#FBB03B"/></svg>