<?xml version="1.0" encoding="utf-8"?><!--Generator: Adobe Illustrator 27.8.0, SVG Export Plug-In . SVG Version: 6.00 Build 0)--><svg version="1.1" id="Ebene_1" xmlns="http://www.w3.org/2000/svg" xmlns:xlink="http://www.w3.org/1999/xlink" x="0px" y="0px" viewBox="0 0 160 160" style="enable-background:new 0 0 160 160;" xml:space="preserve"><style type="text/css">.st0{fill:#A05618;}
	.st1{fill:#F99400;}
	.st2{fill:#904119;}</style><path class="st0" d="M44.4,116.9H144V68.4l-53.2,0.9L58.5,30.2c-2.8-3.4-7.8-3.9-11.2-1.1c-3.4,2.8-3.9,7.8-1.1,11.2l18.4,22.4
	l-10.8-0.2H41.2L44.4,116.9z"/><path class="st0" d="M51.5,106.8c-1.4-1.4-3.2-2.1-5.1-2.1l-1.2,0c-0.4,0.1-0.7,0.1-1.1,0.1l-5,0l-6.1,0c-1.9,0-3.6,0.7-4.9,1.9
	c-1.3,1.2-2.2,3-2.3,4.9c-0.1,1.9,0.6,3.8,1.9,5.2c1.3,1.4,3.1,2.2,5.1,2.2l13.7-0.2c3.8-0.1,6.9-3.1,7-7
	C53.6,110,52.9,108.2,51.5,106.8"/><path class="st0" d="M51.2,97.9c0.1-1.9-0.7-3.7-2-5.1c-1.3-1.4-3.1-2.1-5.1-2.1l-17.1,0c-1.9-0.1-3.7,0.6-5.1,1.9
	c-1.3,1.2-2.2,2.9-2.3,4.7l0,0c-0.1,1.9,0.5,3.7,1.8,5.2c1.3,1.4,3,2.2,5,2.3l14.9,0l3.7-0.1C48.4,104.3,51.1,101.5,51.2,97.9"/><path class="st0" d="M55.8,74.1c1.3-1.4,2-3.2,1.9-5.2c-0.2-3.8-3.3-6.8-7.1-6.7l-24.7,0.3c-1.9,0.1-3.7,0.9-5,2.3
	c-1.3,1.4-2,3.2-1.9,5.1c0.2,3.4,2.7,6.1,6,6.6l17.9-0.1l7.9-0.1C52.7,76.3,54.5,75.5,55.8,74.1"/><path class="st0" d="M52.7,88.3c1.3-1.4,2-3.2,1.9-5.2c-0.2-3.8-3.3-6.8-7.1-6.8l-4.7,0l-16.6,0.2c-0.5,0-0.9,0-1.4-0.1l-2.1,0
	c-1.9,0.1-3.7,0.8-5,2.2c-1.3,1.4-2,3.2-1.9,5.1c0.2,3.8,3.4,6.9,7.2,6.8l24.4-0.2C49.6,90.5,51.4,89.7,52.7,88.3"/><path class="st1" d="M119.1,121h-2.4c-1.7,0-3.1-1.4-3.1-3.1V67.8c0-1.7,1.4-3.1,3.1-3.1h2.4c1.7,0,3.1,1.4,3.1,3.1v50.1
	C122.2,119.6,120.8,121,119.1,121z"/><path class="st1" d="M129.1,121h-2.4c-1.7,0-3.1-1.4-3.1-3.1V67.8c0-1.7,1.4-3.1,3.1-3.1h2.4c1.7,0,3.1,1.4,3.1,3.1v50.1
	C132.2,119.6,130.8,121,129.1,121z"/><path class="st1" d="M109.1,121h-2.4c-1.7,0-3.1-1.4-3.1-3.1V67.8c0-1.7,1.4-3.1,3.1-3.1h2.4c1.7,0,3.1,1.4,3.1,3.1v50.1
	C112.2,119.6,110.8,121,109.1,121z"/><path class="st2" d="M58.2,68.9c-0.1-2.8-2.1-5.2-3.9-6.4l-1.7,0c2.2,1,4.5,4,4.6,6.5c0.1,1.8-0.5,3.5-1.8,4.8
	c-1.2,1.3-2.9,2-4.7,2.1l-26,0.2l0,1l1.6,0v0l0.6,0l16-0.1l4.9-0.1c3.5,0.1,6.3,2.8,6.4,6.3c0.1,1.8-0.6,3.5-1.8,4.8
	c-1.2,1.3-2.9,2-4.7,2l-11.6,0.1l-9,0l0,0.1h0l0,0.5l0,0.4h0l0,0.1l9-0.1l8.1,0c0,0,0,0,0,0c1.8,0,3.5,0.7,4.7,2
	c1.2,1.3,1.9,3,1.9,4.8c-0.1,3.3-2.5,5.9-5.7,6.3l-3.7,0.1l-8.3,0l0,0.1h0l0,0.5l0,0.5h0l0,0h0l8.3,0l2.9,0c0.4,0,0.8,0,0.8,0l1.4,0
	c1.8,0,3.5,0.7,4.7,1.9c1.3,1.3,1.9,2.9,1.9,4.7c0,1.7-0.5,4-1.7,5.2l1.3,0c1.1-1.3,1.4-3.2,1.4-5.2c0-2.1-0.8-4-2.2-5.5
	c-1.1-1.1-2.5-1.8-4-2.1c2.3-1.3,3.8-3.6,3.8-6.4c0.1-2.1-0.7-4-2.1-5.5c-0.5-0.6-1.1-1-1.8-1.4c2,0,3.9-0.9,5.3-2.3
	c1.4-1.5,2.2-3.5,2.1-5.5c-0.1-2.7-1.7-5.1-3.9-6.3c1.9-0.2,3.6-1,4.9-2.3C57.6,72.9,58.3,71,58.2,68.9z"/></svg>