<?xml version="1.0" encoding="utf-8"?><!--Generator: Adobe Illustrator 27.8.0, SVG Export Plug-In . SVG Version: 6.00 Build 0)--><svg version="1.1" xmlns="http://www.w3.org/2000/svg" xmlns:xlink="http://www.w3.org/1999/xlink" x="0px" y="0px" viewBox="0 0 160 160" style="enable-background:new 0 0 160 160;" xml:space="preserve"><style type="text/css">.st0{fill:#FFC6AD;}
	.st1{fill:#F7931E;}
	.st2{fill:#8B181D;}
	.st3{fill:#F5836D;}
	.st4{fill:#FFA28F;}
	.st5{fill:#ABB8B9;}
	.st6{fill:#FBB03B;}
	.st7{fill:#F7E5CD;}
	.st8{fill:#BAC09A;}
	.st9{fill:#463EC5;}
	.st10{fill:#693725;}
	.st11{fill:#FAA332;}
	.st12{fill:#E73245;}
	.st13{fill:#8F411F;}
	.st14{fill:#F68D3D;}
	.st15{fill:#569B7B;}
	.st16{fill:#FFFFFF;}
	.st17{fill:#AACDE5;}
	.st18{fill:#232144;}
	.st19{fill:#A86554;}
	.st20{fill:#FFBD7A;}
	.st21{fill:#E6E3DA;}
	.st22{fill:#4B7CFE;}
	.st23{fill:#D8CBC5;}
	.st24{fill:#FF6200;}
	.st25{fill:#F0A86B;}
	.st26{fill:#E3944F;}
	.st27{fill:#191C15;}
	.st28{fill:#420F0F;}
	.st29{fill:#7D441C;}
	.st30{fill:none;stroke:#000000;stroke-width:0.6944;stroke-miterlimit:10;}
	.st31{fill:#01464D;}
	.st32{fill:#7A2F37;}
	.st33{fill:#9E3F39;}
	.st34{fill:none;stroke:#ABB8B9;stroke-width:3;stroke-miterlimit:10;}
	.st35{fill:#891229;}
	.st36{fill:#7070FF;}
	.st37{fill:#32785A;}
	.st38{fill:#D3E8F3;}
	.st39{fill:#006931;}
	.st40{clip-path:url(#SVGID_00000158739474079933967840000009635219322923592597_);}
	.st41{fill:#9A4039;}
	.st42{fill:none;stroke:#232144;stroke-width:2;stroke-miterlimit:10;}
	.st43{fill:#F5B091;}
	.st44{fill:none;stroke:#000000;stroke-width:1.3429;stroke-miterlimit:10;}
	.st45{fill:#D93B34;}
	.st46{fill:#FE5E57;}
	.st47{clip-path:url(#XMLID_00000089533577752614409660000008527822095586466456_);fill:#F7931E;}
	.st48{fill:#763427;}</style><g id="stramien"/><g id="Design"><polygon class="st26" points="110.1,144 144,144 144,116.8 113.6,94.9 101.4,71.4 72.7,89.4 82.3,108.9 	"/><g><path class="st26" d="M78.2,40.9c2.2-1.2,5-0.3,6.3,1.9l11.1,18.3c1.2,1.9,6.2,10.9,6.2,10.9L94,76.8L76.3,47.5
			C74.9,45.2,75.7,42.1,78.2,40.9z"/><polygon class="st26" points="101.2,71.4 90.5,53.4 70.8,51.5 62,86 86.2,93.4 		"/><path class="st25" d="M16.2,53L16.2,53c0.6-2.5,3.1-4,5.6-3.4l58.6,13.8l-2.1,9L19.7,58.6C17.2,58,15.6,55.5,16.2,53z"/></g><g><g><path class="st18" d="M67.4,110.7l31.4-18.3c1.7-1,2.3-3,1.4-4.5l-41-70.3c-0.9-1.5-3-2-4.6-1L23.2,34.9c-1.7,1-2.3,3-1.4,4.5
				l41,70.3C63.6,111.2,65.7,111.6,67.4,110.7z"/><path class="st21" d="M63.5,105.1l32.3-18.8c0.7-0.4,0.9-1.2,0.6-1.8L60.6,23c-0.3-0.6-1.2-0.8-1.8-0.4L26.5,41.5
				c-0.7,0.4-0.9,1.2-0.6,1.8l35.8,61.4C62.1,105.3,62.9,105.5,63.5,105.1z"/><g><path class="st21" d="M37,31.6c0.2,0.3,0.7,0.4,1,0.2l8.5-4.9c0.4-0.2,0.5-0.7,0.3-1l0,0c-0.2-0.3-0.7-0.4-1-0.2l-8.5,4.9
					C36.9,30.8,36.8,31.2,37,31.6L37,31.6z"/><circle class="st21" cx="25.9" cy="37.6" r="1.4"/></g></g><path class="st22" d="M76.4,103l9.9-5.7c0.6-0.4,0.8-1.2,0.5-1.8l0,0c-0.4-0.6-1.2-0.8-1.8-0.5l-9.9,5.7c-0.6,0.4-0.8,1.2-0.5,1.8
			l0,0C75,103.1,75.8,103.4,76.4,103z"/></g><path class="st25" d="M39.8,72L39.8,72c-2.5,1.2-3.5,4.1-2.3,6.6l0.3,0.6c1.2,2.5,4.1,3.5,6.6,2.3h0c2.5-1.2,3.5-4.1,2.3-6.6
		l-0.3-0.6C45.2,71.9,42.2,70.8,39.8,72z"/><path class="st25" d="M34.9,61.1L34.9,61.1c-2.5,1.2-3.5,4.1-2.3,6.6l0.3,0.6c1.2,2.5,4.1,3.5,6.6,2.3h0c2.5-1.2,3.5-4.1,2.3-6.6
		l-0.3-0.6C40.3,60.9,37.3,59.9,34.9,61.1z"/><path class="st25" d="M45.8,82.8L45.8,82.8c-2.2,1-3.1,3.6-2,5.8l0.3,0.6c1,2.2,3.6,3.1,5.8,2h0c2.2-1,3.1-3.6,2-5.8l-0.3-0.6
		C50.5,82.6,47.9,81.7,45.8,82.8z"/><g><path class="st25" d="M67.4,63.8L86,96.6l-9.1,5.1L58.3,68.9c-1.4-2.5-0.5-5.7,2-7.1C62.8,60.4,66,61.3,67.4,63.8"/><path class="st25" d="M56.3,97.6L56.3,97.6c-2.7,1.5-3.6,4.8-2.2,7.4l8.2,14.8c1.4,2.6,4.7,3.5,7.3,2.1l0.1,0
			c2.6-1.5,3.5-4.7,2.1-7.3l-8.2-14.8C62.2,97,58.9,96.1,56.3,97.6"/><path class="st25" d="M49.7,106.9L49.7,106.9c-2.6,1.5-3.6,4.6-2.3,7l7.6,13.8c1.3,2.4,4.5,3.2,7.1,1.8l0.1,0
			c2.6-1.4,3.6-4.6,2.2-7l-7.6-13.8C55.4,106.3,52.2,105.5,49.7,106.9"/><path class="st25" d="M65,90.8L65,90.8c-2.7,1.5-3.6,4.8-2.2,7.4l8.2,14.8c1.4,2.6,4.7,3.5,7.3,2.1l0.1,0c2.6-1.4,3.5-4.7,2.1-7.3
			l-8.2-14.8C70.9,90.3,67.6,89.4,65,90.8"/><path class="st25" d="M66.8,110.6L66.8,110.6c1.5,2.7,4.8,3.6,7.4,2.1l14.7-8.3c2.6-1.5,3.5-4.8,2-7.4l0-0.1
			c-1.5-2.6-4.8-3.5-7.4-2l-14.7,8.3C66.2,104.7,65.3,108,66.8,110.6"/><rect x="83.7" y="103.3" transform="matrix(0.8708 -0.4916 0.4916 0.8708 -41.4979 58.218)" class="st25" width="12.7" height="9.6"/><path class="st25" d="M83.5,94.9l-14.7,8.3c-2.6,1.5-3.5,4.8-2.1,7.4l0,0.1c1.5,2.6,4.8,3.5,7.4,2l14.7-8.3"/><path class="st25" d="M91.7,103.2c0,0-16,4.7-12.5,22.7"/></g><path class="st25" d="M64.1,140.3l0.4,3.7h32.4l-0.3-11.7c1.8-5.3,2.5-17.5,2.7-24.4c0-1.3-0.4-2.5-1.4-3.4l-8.2-8l-5.8,4.6
		l-36.1,14.1l9,16.5C58.8,135,61.1,138,64.1,140.3z"/></g></svg>