<svg viewBox="0 0 160 160" fill="none" xmlns="http://www.w3.org/2000/svg"><path d="M46.7 52.5596H19.6C17.6118 52.5596 16 54.1713 16 56.1596V119.5C16 121.488 17.6118 123.1 19.6 123.1H46.7C48.6882 123.1 50.3 121.488 50.3 119.5V56.1596C50.3 54.1713 48.6882 52.5596 46.7 52.5596Z" fill="#232144"/><path d="M46.67 54.0195H19.62C18.2724 54.0195 17.18 55.112 17.18 56.4595V119.18C17.18 120.527 18.2724 121.62 19.62 121.62H46.67C48.0176 121.62 49.11 120.527 49.11 119.18V56.4595C49.11 55.112 48.0176 54.0195 46.67 54.0195Z" fill="#E6E3DA"/><path fill-rule="evenodd" clip-rule="evenodd" d="M38.29 56.9595H28C26.38 56.9595 25.06 55.6395 25.06 54.0195H29.73H41.22C41.22 55.6395 39.9 56.9595 38.28 56.9595H38.29Z" fill="#232144"/><path d="M37.56 54.0195H28.74V54.8495H37.56V54.0195Z" fill="#E6E3DA"/><path d="M37.88 75.5394V72.1294C37.88 69.5194 35.76 67.3994 33.15 67.3994C30.54 67.3994 28.42 69.5194 28.42 72.1294V75.5394H26.19V88.7494H40.11V75.5394H37.88ZM30.36 72.0594C30.36 70.5194 31.61 69.2694 33.15 69.2694C34.69 69.2694 35.94 70.5194 35.94 72.0594V75.5394H30.37V72.0594H30.36Z" fill="#F7931E"/><path d="M35.11 81.0499C35.11 79.9699 34.23 79.0898 33.15 79.0898C32.07 79.0898 31.19 79.9699 31.19 81.0499C31.19 81.8499 31.68 82.5398 32.37 82.8398V85.1998H33.93V82.8398C34.62 82.5398 35.11 81.8499 35.11 81.0499Z" fill="#232144"/><path d="M42.85 95.2598H23.45C22.3841 95.2598 21.52 96.1216 21.52 97.1848C21.52 98.2479 22.3841 99.1098 23.45 99.1098H42.85C43.9159 99.1098 44.78 98.2479 44.78 97.1848C44.78 96.1216 43.9159 95.2598 42.85 95.2598Z" fill="white"/><path d="M42.85 102.26H23.45C22.3841 102.26 21.52 103.122 21.52 104.185C21.52 105.248 22.3841 106.11 23.45 106.11H42.85C43.9159 106.11 44.78 105.248 44.78 104.185C44.78 103.122 43.9159 102.26 42.85 102.26Z" fill="white"/><path d="M84.4 87.0299L105.62 77.1799L126.36 68.3599L144 71.7599V36.9199H103.28L103.21 36.9499L55.57 37.1299C53.75 37.1299 52.14 38.0399 51.17 39.4299L46.84 39.4499C44.18 39.4499 41.98 41.3899 41.54 43.9199H38.52C35.55 43.9399 33.14 46.3499 33.14 49.3199C33.14 52.3099 35.56 54.7299 38.55 54.7199L66.92 54.6099L62.73 79.1099C62.18 82.0399 64.12 84.8499 67.04 85.3999C69.97 85.9399 72.78 84.0099 73.33 81.0899L77.26 61.6599C81.03 60.5199 92.77 56.9599 96.04 55.9199C103.93 53.4099 107.89 61.8599 101.72 65.1199C95.63 68.3399 80.15 76.6399 80.15 76.6399L84.4 87.0499V87.0299Z" fill="#E3944F"/><path d="M44.89 78.9896C43.69 78.9896 42.72 79.9597 42.72 81.1597C42.72 82.3597 43.69 83.3297 44.89 83.3297H46.93V89.0797L51.4 86.4797L55.87 89.0797V83.3297H97.65C98.65 88.0997 102.88 91.6796 107.94 91.6796C113.75 91.6796 118.46 86.9697 118.46 81.1597C118.46 75.3497 113.75 70.6396 107.94 70.6396C102.87 70.6396 98.65 74.2196 97.65 78.9896H44.89ZM107.95 87.8196C104.27 87.8196 101.29 84.8397 101.29 81.1597C101.29 77.4797 104.27 74.4996 107.95 74.4996C111.63 74.4996 114.61 77.4797 114.61 81.1597C114.61 84.8397 111.63 87.8196 107.95 87.8196Z" fill="#232144"/><path d="M126.36 68.3498L105.62 77.1698L83.14 87.6098C80.42 88.8698 77.2 87.7498 75.84 85.0798C74.47 82.3898 75.5 79.0998 78.17 77.6698C85.06 73.9798 97.42 67.3598 101.73 65.0898" fill="#E3944F"/></svg>