<svg viewBox="0 0 160 160" fill="none" xmlns="http://www.w3.org/2000/svg"><path d="M135.77 73.79H23.41V144H135.77V73.79Z" fill="#232144"/><path d="M79.27 94.9102H33.38V124.98H79.27V94.9102Z" fill="#D3E8F3"/><path d="M61.58 94.9102H58.98L39.56 124.98H42.16L61.58 94.9102Z" fill="white"/><path d="M71.67 94.9102H66.41L46.99 124.98H52.25L71.67 94.9102Z" fill="white"/><path d="M121.27 94.9102H94.83V144H121.27V94.9102Z" fill="#463EC5"/><path d="M135.77 73.79H23.41V144H135.77V73.79Z" fill="#232144"/><path d="M79.27 94.9102H33.38V124.98H79.27V94.9102Z" fill="#D3E8F3"/><path d="M61.58 94.9102H58.98L39.56 124.98H42.16L61.58 94.9102Z" fill="white"/><path d="M71.67 94.9102H66.41L46.99 124.98H52.25L71.67 94.9102Z" fill="white"/><path d="M66.34 93.3301H64.49V140.36H66.34V93.3301Z" fill="#232144"/><path d="M138.91 74.3701L121.33 26.8301H37.89L20.32 74.3701H138.91Z" fill="#4B7CFE"/><path d="M100.25 94.9102H94.83V144H100.25V94.9102Z" fill="#463EC5"/><path d="M121.28 94.9102H102.1V144H121.28V94.9102Z" fill="#463EC5"/><path d="M101.29 53.9302H56.64C55.3752 53.9302 54.35 54.9532 54.35 56.2152C54.35 57.4771 55.3752 58.5002 56.64 58.5002H101.29C102.555 58.5002 103.58 57.4771 103.58 56.2152C103.58 54.9532 102.555 53.9302 101.29 53.9302Z" fill="#232144"/><path d="M101.29 53.9302H56.64C55.3752 53.9302 54.35 54.9532 54.35 56.2152C54.35 57.4771 55.3752 58.5002 56.64 58.5002H101.29C102.555 58.5002 103.58 57.4771 103.58 56.2152C103.58 54.9532 102.555 53.9302 101.29 53.9302Z" fill="#232144"/><path d="M61.32 58.4399L61.56 23.6699L94.57 23.7899L94.33 58.5599L61.32 58.4399Z" fill="#B0C2E4"/><path d="M61.567 22.1524L61.5049 39.0723L94.5147 39.1933L94.5767 22.2734L61.567 22.1524Z" fill="#E5F0FF"/><path d="M98.93 58.5L114.84 36.73L88.2 17.23L58.03 58.5" fill="#F7C7A1"/><path d="M64.89 29.9398C64.89 30.0198 64.85 30.0498 64.78 30.0498H64.22C64.14 30.0498 64.11 30.0198 64.11 29.9298V26.8498C64.12 26.7398 64.15 26.7098 64.24 26.7098H64.6C66.33 26.7098 67.02 29.0098 68.13 29.0198C68.6 29.0198 68.85 28.6998 68.85 28.2298C68.85 27.8298 68.69 27.4598 68.49 27.1398C68.44 27.0598 68.45 26.9998 68.53 26.9598L68.91 26.7298C69 26.6798 69.05 26.7098 69.12 26.8098C69.41 27.1898 69.6 27.7598 69.6 28.2998C69.6 28.8998 69.44 29.3198 69.14 29.6098C68.89 29.8398 68.55 29.9798 68.12 29.9798C66.77 29.9798 65.88 27.7598 64.89 27.6698V29.9498V29.9398Z" fill="#254471"/><path d="M66.71 31.0099C68.58 31.0099 69.6 31.7399 69.59 32.9799C69.59 34.1299 68.71 34.8199 66.91 34.8099C65.04 34.8099 64.02 34.0799 64.03 32.8399C64.03 31.6899 64.92 30.9999 66.71 31.0099ZM66.87 33.8599C68.19 33.8599 68.83 33.5599 68.83 32.9499C68.83 32.2899 68.09 31.9699 66.76 31.9599C65.44 31.9599 64.8 32.2499 64.79 32.8699C64.79 33.5299 65.54 33.8499 66.86 33.8599H66.87Z" fill="#254471"/><path d="M89.0995 16.0265L79.1136 29.6855L105.77 49.1734L115.756 35.5144L89.0995 16.0265Z" fill="#F7E5CD"/><path d="M105.097 37.496L99.7675 44.7856L103.965 47.8546L109.295 40.5649L105.097 37.496Z" fill="#4B7CFE"/><path d="M90.14 24.7201C89.85 25.1201 89.47 25.3601 89.07 25.4101C88.69 25.4601 88.27 25.3601 87.87 25.0601C86.92 24.3701 86.9 23.3001 87.59 22.3601C87.91 21.9301 88.33 21.5901 88.69 21.4501C88.77 21.4201 88.82 21.4501 88.86 21.5201L89.09 21.9401C89.13 22.0201 89.11 22.0701 89.04 22.1101C88.72 22.2801 88.43 22.5101 88.18 22.8501C87.77 23.4201 87.94 23.9601 88.39 24.2801C88.94 24.6801 89.4 24.5401 89.77 24.0301C89.98 23.7401 90.12 23.4501 90.28 23.0501C90.31 22.9701 90.37 22.9501 90.43 22.9901L92.63 24.6001C92.69 24.6401 92.7 24.6901 92.65 24.7601L91.03 26.9701C90.98 27.0401 90.93 27.0401 90.87 26.9901L90.42 26.6601C90.36 26.6201 90.35 26.5701 90.39 26.5001L91.57 24.8901L90.48 24.0901C90.4 24.3001 90.29 24.5001 90.13 24.7101L90.14 24.7201Z" fill="#891229"/><path d="M88.0601 26.2599C89.5801 27.3699 89.9701 28.5499 89.2401 29.5499C88.5601 30.4699 87.4501 30.5199 85.9901 29.4499C84.4801 28.3499 84.0801 27.1599 84.8101 26.1599C85.4901 25.2299 86.6101 25.1999 88.0601 26.2599ZM86.5101 28.6599C87.5701 29.4399 88.2701 29.5699 88.6301 29.0699C89.0201 28.5399 88.6101 27.8399 87.5401 27.0599C86.4801 26.2799 85.7701 26.1399 85.4101 26.6399C85.0201 27.1699 85.4401 27.8799 86.5101 28.6599Z" fill="#891229"/></svg>