<?xml version="1.0" encoding="utf-8"?><!--Generator: Adobe Illustrator 28.0.0, SVG Export Plug-In . SVG Version: 6.00 Build 0)--><svg version="1.1" xmlns="http://www.w3.org/2000/svg" xmlns:xlink="http://www.w3.org/1999/xlink" x="0px" y="0px" viewBox="0 0 160 160" style="enable-background:new 0 0 160 160;" xml:space="preserve"><style type="text/css">.st0{fill:#D8CBC5;}
	.st1{fill:#232144;}
	.st2{fill:#E73245;}</style><g id="Design"><g><path class="st0" d="M84.8,75.8c2.2-0.4,4-2.2,4.4-4.4c0.6-2.8-1-5.6-3.7-6.5c-2.3-0.8-3.8-2.9-3.8-5.2v-7.5c0-1.1,0.9-2,2-2
			s2,0.9,2,2v7.5c0,0.6,0.4,1.1,1.1,1.4c4.7,1.6,7.3,6.3,6.4,11.1c-0.7,3.8-3.8,6.9-7.6,7.6"/><g><defs><polygon id="XMLID_00000133508767904546238520000002193102579858106013_" points="29.6,144 81.2,88.6 132.9,144 				"/></defs><use xlink:href="#XMLID_00000133508767904546238520000002193102579858106013_" style="overflow:visible;fill:#E6E3DA;"/><clipPath id="XMLID_00000041984401081482703640000005401963825206358975_"><use xlink:href="#XMLID_00000133508767904546238520000002193102579858106013_" style="overflow:visible;"/></clipPath></g><polygon class="st1" points="84.9,75.3 131.9,135.5 144.1,136.5 85.9,63.9 16,125.3 28.2,126.4 		"/><g><rect x="72.6" y="16.1" class="st1" width="2" height="22.9"/></g><g><rect x="92.5" y="16.1" class="st1" width="2" height="22.9"/></g><g><path class="st2" d="M83.6,58L83.6,58c-6.1,0-11.1-5-11.1-11.1V33.3c0-6.1,5-11.1,11.1-11.1h0c6.1,0,11.1,5,11.1,11.1v13.6
				C94.7,53,89.7,58,83.6,58z"/></g><path class="st0" d="M85.6,79.8c-0.6,0.1-1.3,0.2-1.9,0.2c-2.3,0-4.4-0.8-6.2-2.2c-2.2-1.9-3.5-4.6-3.5-7.5c0-1.1,0.9-2,2-2
			s2,0.9,2,2c0,1.7,0.7,3.3,2.1,4.4c1.3,1.1,3,1.5,4.7,1.2"/><circle class="st0" cx="83.8" cy="31.4" r="4.2"/><circle class="st0" cx="83.8" cy="48.4" r="4.2"/></g></g><g id="stramien"/></svg>