<?xml version="1.0" encoding="UTF-8"?><svg id="Design" xmlns="http://www.w3.org/2000/svg" viewBox="0 0 160 160"><defs><style>.cls-1{fill:#ffcd94;fill-rule:evenodd;}.cls-1,.cls-2,.cls-3,.cls-4,.cls-5,.cls-6,.cls-7,.cls-8,.cls-9{stroke-width:0px;}.cls-2{fill:#000;}.cls-3{fill:#8da8dc;}.cls-4{fill:#d0def2;}.cls-5{fill:#232144;}.cls-6{fill:#a86554;}.cls-7{fill:#faa332;}.cls-8{fill:#bf7461;}.cls-9{fill:#ed1e79;}</style></defs><polyline class="cls-6" points="20.33 105.1 16 144 39.72 144 51.07 108.18"/><polygon class="cls-6" points="120.22 144 108.87 108.18 139.61 105.1 144 144 120.22 144"/><path class="cls-4" d="M143.88,119.56s-5.28-34.48-23.94-36.64c-9.6,0-17.92,6.45-18.64,16.01-.72,9.56,17.37,32.9,17.37,32.9l25.22-12.27Z"/><path class="cls-4" d="M39.72,144l-2.01-60.62s31.61-10.42,42.86-10.42c10.26,0,43.68,10.61,43.68,10.61l-2.7,60.43H39.72Z"/><path class="cls-6" d="M93.72,80.06v-21.41l-27.45-.08v21.48c0,5.57,4.52,10.09,10.1,10.09h7.25c5.58,0,10.1-4.52,10.1-10.09"/><polygon class="cls-5" points="87.45 93.23 80.02 102.61 71.8 93.11 80.02 90.18 87.45 93.23"/><polygon class="cls-3" points="93.74 74.96 80.02 90.17 89.42 100.97 97.77 76.1 93.74 74.96"/><polygon class="cls-5" points="103.13 77.49 105.38 84.96 123.87 89.15 125.02 82.56 103.13 77.49"/><polygon class="cls-3" points="66.28 74.96 80 90.17 70.6 100.97 62.25 76.1 66.28 74.96"/><path class="cls-4" d="M16.06,119.56s5.28-34.48,23.94-36.64c9.6,0,17.92,6.45,18.64,16.01.72,9.56-17.37,32.9-17.37,32.9l-25.22-12.27Z"/><polygon class="cls-5" points="56.8 77.49 54.56 84.96 36.07 89.15 34.92 82.56 56.8 77.49"/><path class="cls-8" d="M55.28,49.01c0-3.11,2.52-5.63,5.63-5.63s5.63,2.52,5.63,5.63-2.52,5.63-5.63,5.63-5.63-2.52-5.63-5.63"/><path class="cls-8" d="M93.46,49.01c0-3.11,2.52-5.63,5.63-5.63s5.63,2.52,5.63,5.63-2.52,5.63-5.63,5.63-5.63-2.52-5.63-5.63"/><path class="cls-8" d="M98.03,56.91v-25.45c0-8.25-6.61-14.93-14.77-14.93h-7.03c-8.16,0-14.77,6.69-14.77,14.93v25.45c0,8.25,6.61,14.93,14.77,14.93h7.03c8.16,0,14.77-6.68,14.77-14.93"/><path class="cls-1" d="M61.01,21.88c0-3.24,3.45-5.88,7.7-5.88,7.98,0,19.28,0,19.28,0,0,0,0,.88,0,2.13,0,2.5-1.3,4.89-3.62,6.65-2.32,1.76-5.46,2.76-8.74,2.76h-14.63v-5.65h0Z"/><polygon class="cls-1" points="96.89 27.14 98.41 27.14 98.41 57.37 96.89 57.37 96.89 27.14 96.89 27.14"/><path class="cls-1" d="M98.41,21.92c0-3.26-3.43-5.9-7.67-5.9h-2.93s0,3.72,0,6.94c0,2.57,2.7,4.65,6.04,4.65,2.38,0,4.56,0,4.56,0v-5.69h0Z"/><path class="cls-9" d="M91.92,16h-9.58c.1,2.26.08,5.1-1.63,6.78-2.25,2.22-5.45,3.56-8.48,4.24-1.69.38-3.42.55-5.14.55h9.58c3.54,0,7.12-.75,10.26-2.42,1.26-.67,2.55-1.5,3.53-2.54,1.57-1.65,1.55-4.46,1.46-6.62Z"/><path class="cls-2" d="M76.75,38.21v-2.53c0-1.21-.98-2.2-2.2-2.2h-7.26c-1.2,0-2.18.98-2.18,2.18v2.53s0,.02.02.02h11.62Z"/><path class="cls-2" d="M94.93,38.21v-2.53c0-1.21-.98-2.2-2.2-2.2h-7.26c-1.2,0-2.18.98-2.18,2.18v2.53s0,.02.02.02h11.62Z"/><path class="cls-2" d="M80.25,54.45c-.85,0-1.52-.42-2.12-.79-.98-.61-1.56-.98-2.74.2l-.77-.77c1.79-1.79,3.06-.99,4.08-.35.52.32,1,.63,1.54.63s1.01-.28,1.5-.58c.97-.6,2.18-1.34,4.18.33l-.69.83c-1.41-1.17-2.01-.8-2.93-.24-.57.35-1.21.74-2.07.74"/><path class="cls-2" d="M83,63.35c-1.86.44-3.72.14-5.16-.85l.7-1.01c1.24.85,2.89,1.07,4.53.58,1.41-.42,2.53-1.28,2.93-2.26l1.13.47c-.55,1.33-1.94,2.44-3.72,2.97-.14.04-.28.08-.41.11"/><polygon class="cls-2" points="86.33 54.89 74.03 54.89 71.94 59.37 88.42 59.37 86.33 54.89"/><polygon class="cls-1" points="61.01 27.14 62.53 27.14 62.53 57.37 61.01 57.37 61.01 27.14 61.01 27.14"/><polygon class="cls-5" points="98.41 41.65 87.78 41.69 87.78 39.78 98.4 39.78 98.41 41.65"/><polygon class="cls-5" points="61.01 41.67 71.93 41.71 71.93 39.78 61.02 39.78 61.01 41.67"/><path class="cls-5" d="M85.47,47.41h-1.99c0-1.94-1.58-3.52-3.52-3.52s-3.52,1.58-3.52,3.52h-1.99c0-3.04,2.47-5.5,5.5-5.5s5.5,2.47,5.5,5.5Z"/><path class="cls-5" d="M95.46,39.78v6.57c.02,2.68-2.15,4.86-4.83,4.87h-4.39c-2.68.01-4.86-2.16-4.87-4.84v-1.71c0-2.68,2.16-4.86,4.85-4.87l9.24-.02Z"/><path class="cls-5" d="M70.68,38.46h6.57v9.25c0,2.68-2.18,4.86-4.86,4.86h-1.71c-2.68,0-4.86-2.18-4.86-4.86v-4.39c0-2.68,2.18-4.86,4.86-4.86Z" transform="translate(25.87 116.95) rotate(-89.87)"/><polygon class="cls-5" points="87.15 144 80.02 90.2 72.86 144 87.15 144"/><path class="cls-7" d="M106.12,99.9l-6.68,2.71v8.25s-.02,4,6.68,6.45c6.7-2.45,6.68-6.45,6.68-6.45v-8.25l-6.68-2.71Z"/></svg>