<?xml version="1.0" encoding="UTF-8"?><svg id="Design" xmlns="http://www.w3.org/2000/svg" viewBox="0 0 160 160"><defs><style>.cls-1{fill:#463ec5;}.cls-1,.cls-2,.cls-3,.cls-4,.cls-5{stroke-width:0px;}.cls-2{fill:#ff6200;}.cls-3{fill:#e6e3da;}.cls-4{fill:#232144;}.cls-5{fill:#4b7cfe;}</style></defs><path class="cls-4" d="M107.32,119.2c-1.63,0-2.95,1.33-2.95,2.96v4.95c0,5.8-4.69,10.5-10.48,10.5s-10.48-4.7-10.48-10.5V57.13c0-1.62-1.31-2.93-2.93-2.93s-2.93,1.31-2.93,2.93v71.22c0,.21.03.42.07.62.69,8.42,7.71,15.03,16.29,15.03h0c9.03,0,16.35-7.34,16.35-16.4v-5.44c0-1.64-1.32-2.96-2.95-2.96Z"/><path class="cls-1" d="M59.7,37.97c6.69-17.33,20.3-21.97,20.3-21.97-32.34,0-58.56,26.29-58.56,58.71,0,0,6.64-5.9,17.55-5.9s17.73,5.9,17.73,5.9c0,0-3.87-19.01,2.97-36.74Z"/><path class="cls-5" d="M100.3,37.97c-6.69-17.33-20.3-21.97-20.3-21.97,0,0-13.62,4.65-20.3,21.97-6.84,17.74-2.97,36.74-2.97,36.74,0,0,8.19-5.9,23.28-5.9,13.26,0,23.28,5.9,23.28,5.9,0,0,3.87-19.01-2.97-36.74Z"/><path class="cls-1" d="M80,16s13.62,4.65,20.3,21.97c6.84,17.74,2.97,36.74,2.97,36.74,0,0,7.06-5.9,17.69-5.9s17.59,5.9,17.59,5.9c0-32.43-26.22-58.71-58.56-58.71Z"/><rect class="cls-3" x="27.39" y="86.74" width="106.18" height="20.7" rx="3.78" ry="3.78"/><circle class="cls-2" cx="40.75" cy="97.09" r="5.24"/><circle class="cls-2" cx="60.61" cy="97.09" r="5.24"/><circle class="cls-2" cx="80.48" cy="97.09" r="5.24"/><circle class="cls-2" cx="100.34" cy="97.09" r="5.24"/><circle class="cls-2" cx="120.21" cy="97.09" r="5.24"/></svg>