<?xml version="1.0" encoding="utf-8"?><!--Generator: Adobe Illustrator 28.1.0, SVG Export Plug-In . SVG Version: 6.00 Build 0)--><svg version="1.1" xmlns="http://www.w3.org/2000/svg" xmlns:xlink="http://www.w3.org/1999/xlink" x="0px" y="0px" viewBox="0 0 160 160" style="enable-background:new 0 0 160 160;" xml:space="preserve"><style type="text/css">.st0{fill:#006931;}
	.st1{fill:#4B7CFE;}
	.st2{fill:#D3E8F3;}</style><g id="Design"><g><path class="st0" d="M73.4,92.8c0-9.9-5-18.6-12.6-23.7c2.3-3.2,3.6-7.1,3.6-11.3c0-10.9-8.8-19.7-19.7-19.7S25,46.9,25,57.8
			c0,4.2,1.3,8.1,3.6,11.3C21,74.3,16,83,16,92.8c0,14.8,11.2,27,25.6,28.5V144h6.1v-22.6C62.2,119.8,73.4,107.7,73.4,92.8z"/><polygon class="st1" points="37.8,89.7 90.9,34.1 144,89.7 		"/><g><defs><polygon id="XMLID_00000129891444740137606680000014014232898449217714_" points="47.6,144 47.6,90 90.9,43.6 134.2,90 
					134.2,144 				"/></defs><use xlink:href="#XMLID_00000129891444740137606680000014014232898449217714_" style="overflow:visible;fill:#232144;"/><clipPath id="XMLID_00000070813279715134428630000018076792033008427930_"><use xlink:href="#XMLID_00000129891444740137606680000014014232898449217714_" style="overflow:visible;"/></clipPath></g><rect x="108.9" y="113.1" class="st1" width="15.9" height="30.9"/><rect x="59.5" y="113.4" class="st2" width="40" height="21.7"/><rect x="59.5" y="85.8" class="st2" width="19.4" height="18.6"/><rect x="91.2" y="85.8" class="st2" width="19.4" height="18.6"/></g></g><g id="stramien"/></svg>