<svg viewBox="0 0 160 160" fill="none" xmlns="http://www.w3.org/2000/svg"><path fill-rule="evenodd" clip-rule="evenodd" d="M29.8589 94.1689V114.508C29.8589 119.75 54.1409 124 84.0949 124C114.049 124 138.331 119.75 138.331 114.508V94.1689H29.8589Z" fill="#F7931E"/><path fill-rule="evenodd" clip-rule="evenodd" d="M138.288 94.1687C137.755 90.7699 127.016 87.8171 111.24 86.2168V122.723C127.431 121.082 138.326 118.019 138.326 114.508V94.1687H138.288Z" fill="#EF7903"/><path fill-rule="evenodd" clip-rule="evenodd" d="M138.331 94.1693C138.331 99.4115 114.049 103.661 84.0946 103.661C54.1416 103.661 29.8586 99.4115 29.8586 94.1693C29.8586 88.9271 54.1416 84.6777 84.0946 84.6777C114.049 84.6777 138.331 88.9271 138.331 94.1693Z" fill="#FBB03B"/><path fill-rule="evenodd" clip-rule="evenodd" d="M84.4716 88.3177C72.3326 88.3177 60.9256 89.0198 52.3516 90.2935C39.7596 92.1657 39.6146 94.2888 39.6146 94.3785C39.6146 94.4681 39.7596 96.5923 52.3516 98.4635C60.9256 99.7382 72.3326 100.44 84.4716 100.44C96.6106 100.44 108.017 99.7382 116.591 98.4635C129.184 96.5923 129.329 94.4681 129.329 94.3785C129.329 94.2888 129.184 92.1657 116.591 90.2935C108.017 89.0198 96.6106 88.3177 84.4716 88.3177ZM84.4716 101.866C65.8646 101.866 38.1816 99.8726 38.1816 94.3785C38.1816 88.8853 65.8646 86.8916 84.4716 86.8916C103.079 86.8916 130.761 88.8853 130.761 94.3785C130.761 99.8726 103.079 101.866 84.4716 101.866Z" fill="#F7931E"/><path fill-rule="evenodd" clip-rule="evenodd" d="M16.0002 72.2129V92.5523C16.0002 97.7935 40.2822 102.044 70.2362 102.044C100.19 102.044 124.472 97.7935 124.472 92.5523V72.2129H16.0002Z" fill="#F7931E"/><path fill-rule="evenodd" clip-rule="evenodd" d="M124.488 72.1306C123.955 68.7318 113.215 65.7791 97.4395 64.1787V100.685C113.63 99.0437 124.526 95.9805 124.526 92.4701V72.1306H124.488Z" fill="#EF7903"/><path fill-rule="evenodd" clip-rule="evenodd" d="M124.472 72.2122C124.472 77.4544 100.19 81.7038 70.236 81.7038C40.282 81.7038 16 77.4544 16 72.2122C16 66.97 40.282 62.7207 70.236 62.7207C100.19 62.7207 124.472 66.97 124.472 72.2122Z" fill="#FBB03B"/><path fill-rule="evenodd" clip-rule="evenodd" d="M70.6128 66.3606C58.4738 66.3606 47.0668 67.0627 38.4928 68.3364C25.9008 70.2086 25.7558 72.3318 25.7558 72.4214C25.7558 72.5111 25.9008 74.6352 38.4928 76.5065C47.0668 77.7812 58.4738 78.4832 70.6128 78.4832C82.7518 78.4832 94.1588 77.7812 102.732 76.5065C115.325 74.6352 115.47 72.5111 115.47 72.4214C115.47 72.3318 115.325 70.2086 102.732 68.3364C94.1578 67.0627 82.7518 66.3606 70.6128 66.3606ZM70.6128 79.9093C52.0058 79.9093 24.3228 77.9156 24.3228 72.4214C24.3228 66.9283 52.0058 64.9346 70.6128 64.9346C89.2198 64.9346 116.902 66.9283 116.902 72.4214C116.902 77.9156 89.2198 79.9093 70.6128 79.9093Z" fill="#F7931E"/><path fill-rule="evenodd" clip-rule="evenodd" d="M35.5284 46.4912V66.8306C35.5284 72.0718 59.8104 76.3222 89.7644 76.3222C119.718 76.3222 144 72.0718 144 66.8306V46.4912H35.5284Z" fill="#F7931E"/><path fill-rule="evenodd" clip-rule="evenodd" d="M143.948 46.4783C143.415 43.0794 132.675 40.1267 116.899 38.5264V75.0326C133.09 73.3914 143.986 70.3281 143.986 66.8177V46.4783H143.948Z" fill="#EF7903"/><path fill-rule="evenodd" clip-rule="evenodd" d="M144 46.4915C144 51.7337 119.718 55.9831 89.7642 55.9831C59.8102 55.9831 35.5282 51.7337 35.5282 46.4915C35.5282 41.2493 59.8102 37 89.7642 37C119.718 37 144 41.2493 144 46.4915Z" fill="#FBB03B"/><path fill-rule="evenodd" clip-rule="evenodd" d="M90.1408 40.6399C78.0018 40.6399 66.5958 41.342 58.0218 42.6157C45.4288 44.4879 45.2838 46.6111 45.2838 46.7007C45.2838 46.7904 45.4288 48.9145 58.0218 50.7858C66.5958 52.0605 78.0018 52.7625 90.1408 52.7625C102.28 52.7625 113.687 52.0605 122.261 50.7858C134.853 48.9145 134.998 46.7904 134.998 46.7007C134.998 46.6111 134.853 44.4879 122.261 42.6157C113.687 41.342 102.28 40.6399 90.1408 40.6399ZM90.1408 54.1886C71.5338 54.1886 43.8518 52.1949 43.8518 46.7007C43.8518 41.2076 71.5338 39.2139 90.1408 39.2139C108.748 39.2139 136.431 41.2076 136.431 46.7007C136.431 52.1949 108.748 54.1886 90.1408 54.1886Z" fill="#F7931E"/></svg>