<svg viewBox="0 0 160 160" fill="none" xmlns="http://www.w3.org/2000/svg"><path fill-rule="evenodd" clip-rule="evenodd" d="M56.548 100.42H19.355C17.502 100.42 16 98.9182 16 97.0652V29.3892C16 27.5362 17.502 26.0342 19.355 26.0342H56.548C58.401 26.0342 59.903 27.5362 59.903 29.3892V97.0652C59.903 98.9182 58.401 100.42 56.548 100.42Z" fill="#232144"/><path fill-rule="evenodd" clip-rule="evenodd" d="M52.3286 65.9111H22.8716C21.4416 65.9111 20.2816 64.7511 20.2816 63.3211V42.0441C20.2816 40.6141 21.4416 39.4541 22.8716 39.4541H52.3286C53.7586 39.4541 54.9186 40.6141 54.9186 42.0441V63.3211C54.9186 64.7511 53.7586 65.9111 52.3286 65.9111Z" fill="#7070FF"/><path fill-rule="evenodd" clip-rule="evenodd" d="M29.5113 48.2334C29.6313 48.2334 29.6753 48.2884 29.6753 48.3974V55.0404H31.0733C31.1933 55.0404 31.2373 55.0944 31.2373 55.2044V55.9354C31.2373 56.0454 31.1933 56.0994 31.0733 56.0994H26.8123C26.6923 56.0994 26.6493 56.0454 26.6493 55.9354V55.2044C26.6493 55.0944 26.6923 55.0404 26.8123 55.0404H28.3313V49.6534L26.9323 50.3854C26.8023 50.4514 26.7253 50.4404 26.6593 50.3094L26.3543 49.6974C26.2883 49.5554 26.3213 49.4794 26.4523 49.4134L28.3643 48.4084C28.6263 48.2774 28.7573 48.2334 29.0633 48.2334H29.5113Z" fill="#F7E5CD"/><path fill-rule="evenodd" clip-rule="evenodd" d="M37.2121 54.963C37.3321 54.963 37.3761 55.018 37.3761 55.127V55.935C37.3761 56.045 37.3321 56.099 37.2121 56.099H32.7441C32.5911 56.099 32.5471 56.056 32.5471 55.924V55.4C32.5471 52.887 35.8681 51.871 35.8681 50.265C35.8681 49.577 35.3981 49.227 34.7211 49.227C34.1421 49.227 33.6071 49.468 33.1371 49.752C33.0281 49.817 32.9401 49.806 32.8751 49.697L32.5361 49.14C32.4601 49.009 32.5031 48.943 32.6451 48.834C33.1911 48.408 34.0221 48.124 34.7981 48.124C35.6601 48.124 36.2831 48.353 36.6981 48.779C37.0371 49.14 37.2341 49.631 37.2341 50.254C37.2341 52.221 34.0331 53.521 33.9011 54.963H37.2121Z" fill="#F7E5CD"/><path fill-rule="evenodd" clip-rule="evenodd" d="M39.1555 57.9459C39.0025 57.9459 38.9585 57.8799 38.9805 57.7489L39.3195 56.0889L39.0465 55.9569C38.8935 55.8809 38.8385 55.8159 38.8385 55.5969V54.7559C38.8385 54.6139 38.9035 54.5479 39.0575 54.5479H40.2045C40.3675 54.5479 40.4335 54.6139 40.4335 54.7559V55.3349C40.4335 55.8369 40.3575 56.1099 40.2045 56.5259L39.7565 57.7489C39.6905 57.9129 39.6575 57.9459 39.4945 57.9459H39.1555Z" fill="#F7E5CD"/><path fill-rule="evenodd" clip-rule="evenodd" d="M45.3164 51.489C45.3164 50.189 44.9564 49.217 44.0164 49.217C43.2294 49.217 42.7934 49.861 42.7934 50.615C42.7934 51.401 43.1644 52.068 44.1044 52.068C44.4974 52.068 44.9884 51.904 45.3164 51.751V51.489ZM43.7984 53.139C42.2684 53.139 41.4384 52.079 41.4384 50.735C41.4384 49.271 42.3994 48.124 43.9724 48.124C46.0054 48.124 46.6714 49.719 46.6714 51.576C46.6714 54.035 45.7974 56.209 43.5794 56.209C42.8914 56.209 42.2574 56.045 41.8644 55.772C41.7554 55.695 41.7224 55.641 41.8094 55.455L42.0714 54.93C42.1264 54.81 42.2024 54.8 42.3344 54.865C42.6614 55.018 43.1424 55.127 43.4594 55.127C44.7814 55.127 45.1744 54.133 45.2734 52.691C44.9564 52.953 44.3224 53.139 43.7984 53.139Z" fill="#F7E5CD"/><path fill-rule="evenodd" clip-rule="evenodd" d="M51.6852 51.489C51.6852 50.189 51.3242 49.217 50.3852 49.217C49.5982 49.217 49.1612 49.861 49.1612 50.615C49.1612 51.401 49.5332 52.068 50.4722 52.068C50.8652 52.068 51.3572 51.904 51.6852 51.751V51.489ZM50.1662 53.139C48.6372 53.139 47.8062 52.079 47.8062 50.735C47.8062 49.271 48.7682 48.124 50.3412 48.124C52.3732 48.124 53.0402 49.719 53.0402 51.576C53.0402 54.035 52.1652 56.209 49.9472 56.209C49.2592 56.209 48.6262 56.045 48.2322 55.772C48.1232 55.695 48.0902 55.641 48.1782 55.455L48.4402 54.93C48.4952 54.81 48.5712 54.8 48.7022 54.865C49.0302 55.018 49.5112 55.127 49.8282 55.127C51.1492 55.127 51.5432 54.133 51.6412 52.691C51.3242 52.953 50.6902 53.139 50.1662 53.139Z" fill="#F7E5CD"/><path fill-rule="evenodd" clip-rule="evenodd" d="M20.8579 72.5001C20.8579 71.1631 21.9419 70.0791 23.2789 70.0791H27.8999C29.2369 70.0791 30.3209 71.1631 30.3209 72.5001C30.3209 73.8371 29.2369 74.9211 27.8999 74.9211H23.2789C21.9419 74.9211 20.8579 73.8371 20.8579 72.5001Z" fill="#F7E5CD"/><path fill-rule="evenodd" clip-rule="evenodd" d="M32.9476 72.5001C32.9476 71.1631 34.0316 70.0791 35.3686 70.0791H39.9896C41.3266 70.0791 42.4106 71.1631 42.4106 72.5001C42.4106 73.8371 41.3266 74.9211 39.9896 74.9211H35.3686C34.0316 74.9211 32.9476 73.8371 32.9476 72.5001Z" fill="#F7E5CD"/><path fill-rule="evenodd" clip-rule="evenodd" d="M45.0374 72.5001C45.0374 71.1631 46.1214 70.0791 47.4584 70.0791H52.0794C53.4164 70.0791 54.5004 71.1631 54.5004 72.5001C54.5004 73.8371 53.4164 74.9211 52.0794 74.9211H47.4584C46.1214 74.9211 45.0374 73.8371 45.0374 72.5001Z" fill="#7070FF"/><path fill-rule="evenodd" clip-rule="evenodd" d="M20.8579 78.4015C20.8579 77.0645 21.9419 75.9805 23.2789 75.9805H27.8999C29.2369 75.9805 30.3209 77.0645 30.3209 78.4015C30.3209 79.7385 29.2369 80.8225 27.8999 80.8225H23.2789C21.9419 80.8225 20.8579 79.7385 20.8579 78.4015Z" fill="#F7E5CD"/><path fill-rule="evenodd" clip-rule="evenodd" d="M32.9476 78.4015C32.9476 77.0645 34.0316 75.9805 35.3686 75.9805H39.9896C41.3266 75.9805 42.4106 77.0645 42.4106 78.4015C42.4106 79.7385 41.3266 80.8225 39.9896 80.8225H35.3686C34.0316 80.8225 32.9476 79.7385 32.9476 78.4015Z" fill="#F7E5CD"/><path fill-rule="evenodd" clip-rule="evenodd" d="M45.0374 78.4015C45.0374 77.0645 46.1214 75.9805 47.4584 75.9805H52.0794C53.4164 75.9805 54.5004 77.0645 54.5004 78.4015C54.5004 79.7385 53.4164 80.8225 52.0794 80.8225H47.4584C46.1214 80.8225 45.0374 79.7385 45.0374 78.4015Z" fill="#7070FF"/><path fill-rule="evenodd" clip-rule="evenodd" d="M20.8579 84.421C20.8579 83.084 21.9419 82 23.2789 82H27.8999C29.2369 82 30.3209 83.084 30.3209 84.421C30.3209 85.758 29.2369 86.842 27.8999 86.842H23.2789C21.9419 86.842 20.8579 85.758 20.8579 84.421Z" fill="#F7E5CD"/><path fill-rule="evenodd" clip-rule="evenodd" d="M32.9476 84.421C32.9476 83.084 34.0316 82 35.3686 82H39.9896C41.3266 82 42.4106 83.084 42.4106 84.421C42.4106 85.758 41.3266 86.842 39.9896 86.842H35.3686C34.0316 86.842 32.9476 85.758 32.9476 84.421Z" fill="#F7E5CD"/><path fill-rule="evenodd" clip-rule="evenodd" d="M45.0374 84.421C45.0374 83.084 46.1214 82 47.4584 82H52.0794C53.4164 82 54.5004 83.084 54.5004 84.421C54.5004 85.758 53.4164 86.842 52.0794 86.842H47.4584C46.1214 86.842 45.0374 85.758 45.0374 84.421Z" fill="#7070FF"/><path fill-rule="evenodd" clip-rule="evenodd" d="M20.8579 91.047C20.8579 89.71 21.9419 88.626 23.2789 88.626H27.8999C29.2369 88.626 30.3209 89.71 30.3209 91.047C30.3209 92.384 29.2369 93.468 27.8999 93.468H23.2789C21.9419 93.468 20.8579 92.384 20.8579 91.047Z" fill="#E73245"/><path fill-rule="evenodd" clip-rule="evenodd" d="M32.9476 91.047C32.9476 89.71 34.0316 88.626 35.3686 88.626H39.9896C41.3266 88.626 42.4106 89.71 42.4106 91.047C42.4106 92.384 41.3266 93.468 39.9896 93.468H35.3686C34.0316 93.468 32.9476 92.384 32.9476 91.047Z" fill="#FBB03B"/><path fill-rule="evenodd" clip-rule="evenodd" d="M45.0374 91.047C45.0374 89.71 46.1214 88.626 47.4584 88.626H52.0794C53.4164 88.626 54.5004 89.71 54.5004 91.047C54.5004 92.384 53.4164 93.468 52.0794 93.468H47.4584C46.1214 93.468 45.0374 92.384 45.0374 91.047Z" fill="#BAC09A"/><path fill-rule="evenodd" clip-rule="evenodd" d="M53.7043 35.0449H21.4963C20.8253 35.0449 20.2812 34.5009 20.2812 33.8309V33.3829C20.2812 32.7129 20.8253 32.1689 21.4963 32.1689H53.7043C54.3753 32.1689 54.9183 32.7129 54.9183 33.3829V33.8309C54.9183 34.5009 54.3753 35.0449 53.7043 35.0449Z" fill="#7070FF"/><path fill-rule="evenodd" clip-rule="evenodd" d="M50.64 17.065L49.795 18.129H49.793L48.948 17.065L48.408 16.385C48.252 16.188 47.953 16.188 47.796 16.385L47.256 17.065L46.412 18.129H46.409L45.565 17.065L45.025 16.385C44.868 16.188 44.569 16.188 44.413 16.385L43.873 17.065L43.028 18.129H43.026L42.181 17.065L41.641 16.385C41.484 16.188 41.186 16.188 41.029 16.385L40.489 17.065L39.645 18.129H39.642L38.797 17.065L38.257 16.385C38.101 16.188 37.802 16.188 37.646 16.385L37.106 17.065L36.261 18.129H36.258L35.414 17.065L34.874 16.385C34.717 16.188 34.418 16.188 34.262 16.385L33.722 17.065L32.877 18.129H32.875L32.03 17.065L31.49 16.385C31.334 16.188 31.035 16.188 30.878 16.385L30.338 17.065L29.494 18.129H29.491L28.647 17.065L28.107 16.385C27.95 16.188 27.651 16.188 27.495 16.385L26.955 17.065L26.11 18.129H26.108L25.263 17.065L24.417 16V18.129V18.131V35.045H51.486V18.131V18.129V16L50.64 17.065Z" fill="#F7E5CD"/><path fill-rule="evenodd" clip-rule="evenodd" d="M66.0811 79.4402C66.7021 76.1552 69.8701 73.9952 73.1551 74.6162L99.4111 79.5832L97.1601 91.4802L70.9051 86.5142C67.6191 85.8932 65.4601 82.7252 66.0811 79.4402Z" fill="#FF976B"/><path fill-rule="evenodd" clip-rule="evenodd" d="M127.546 130.419L118.208 134.891L98.4407 112.147L114.997 104.217L127.546 130.419Z" fill="#FF976B"/><path fill-rule="evenodd" clip-rule="evenodd" d="M95.685 68.5439L128.385 86.9389L128.416 86.9579L140.108 110.297L140.195 110.246L144 118.19V144H120.181L114.605 126.214L95.253 109.579L111.187 98.6909L95.78 91.0129L90.341 80.4439L68.611 79.6239C65.27 79.4979 62.663 76.6869 62.79 73.3459C62.916 70.0049 65.726 67.3979 69.068 67.5239L95.654 68.5269L95.685 68.5439Z" fill="#FF976B"/><path fill-rule="evenodd" clip-rule="evenodd" d="M72.1936 128.475L105.159 112.483C106.923 111.627 107.727 109.644 106.955 108.053L71.1686 34.2846C70.3966 32.6936 68.3416 32.0976 66.5776 32.9536L33.6126 48.9456C31.8486 49.8006 31.0446 51.7846 31.8166 53.3756L67.6026 127.143C68.3746 128.734 70.4296 129.331 72.1936 128.475Z" fill="#232144"/><path fill-rule="evenodd" clip-rule="evenodd" d="M68.5839 122.807L102.483 106.362C103.17 106.029 103.483 105.256 103.183 104.636L71.8979 40.1457C71.5969 39.5257 70.7959 39.2937 70.1079 39.6267L36.2099 56.0717C35.5219 56.4057 35.2089 57.1787 35.5099 57.7987L66.7949 122.288C67.0959 122.908 67.8969 123.14 68.5839 122.807Z" fill="#F7E5CD"/><path fill-rule="evenodd" clip-rule="evenodd" d="M48.3941 47.4805C48.5651 47.8335 49.0201 47.9655 49.4111 47.7755L58.3061 43.4605C58.6961 43.2705 58.8751 42.8315 58.7041 42.4795C58.5331 42.1265 58.0771 41.9945 57.6861 42.1845L48.7921 46.4995C48.4011 46.6885 48.2231 47.1275 48.3941 47.4805Z" fill="#F7E5CD"/><path fill-rule="evenodd" clip-rule="evenodd" d="M46.1164 48.008C45.9584 48.929 47.0594 49.349 47.4494 48.517C47.6074 47.596 46.5073 47.176 46.1164 48.008Z" fill="#F7E5CD"/><path fill-rule="evenodd" clip-rule="evenodd" d="M35.3286 52.416C34.9986 54.308 37.2656 55.166 38.0746 53.454C38.4036 51.562 36.1376 50.706 35.3286 52.416Z" fill="#F7E5CD"/><path fill-rule="evenodd" clip-rule="evenodd" d="M92.4913 115.15L82.1293 120.177C81.4783 120.493 80.6953 120.221 80.3793 119.57C80.0633 118.92 80.3353 118.136 80.9853 117.821L91.3483 112.794C91.9993 112.478 92.7823 112.75 93.0983 113.4C93.4133 114.051 93.1423 114.834 92.4913 115.15Z" fill="#F7E5CD"/><path fill-rule="evenodd" clip-rule="evenodd" d="M68.8525 82.1158L56.9465 75.5628L58.1775 73.3268L66.3965 77.8508L66.9415 53.8418L69.4935 53.8998L68.8525 82.1158Z" fill="#FF6200"/><path fill-rule="evenodd" clip-rule="evenodd" d="M126.303 90.7772L103.385 94.7332C103.385 94.7332 103.457 94.9302 105.221 95.8822C107.97 97.3652 106.34 102.459 102.911 100.87C101.769 100.341 99.153 98.9292 97.704 98.1402L85.426 89.1222C82.731 87.1432 78.942 87.7232 76.962 90.4182C74.983 93.1132 75.563 96.9022 78.258 98.8822L107.536 120.384L114.704 110.624L113.022 109.389L126.303 90.7772Z" fill="#FF976B"/></svg>