<?xml version="1.0" encoding="utf-8"?><!--Generator: Adobe Illustrator 28.0.0, SVG Export Plug-In . SVG Version: 6.00 Build 0)--><svg version="1.1" xmlns="http://www.w3.org/2000/svg" xmlns:xlink="http://www.w3.org/1999/xlink" x="0px" y="0px" viewBox="0 0 160 160" style="enable-background:new 0 0 160 160;" xml:space="preserve"><style type="text/css">.st0{fill:#E6E3DA;}
	.st1{fill:#D8CBC5;}
	.st2{fill:#7070FF;}
	.st3{fill:#E3944F;}
	.st4{fill:#F0A86B;}</style><g id="Design"><g><g><path class="st0" d="M125.5,127.7c0-3.8,3.1-6.9,6.9-6.9c3.8,0,6.9,3.1,6.9,6.9"/></g><g><path class="st0" d="M115.3,127.7c0-3.8,3.1-6.9,6.9-6.9c3.8,0,6.9,3.1,6.9,6.9"/></g><g><path class="st0" d="M121.3,123c0-3.7,3-6.7,6.7-6.7c3.7,0,6.7,3,6.7,6.7"/></g></g><g><path class="st0" d="M43.7,105.4c0-4.3-2.2-8.1-5.5-10.4c1-1.4,1.6-3.1,1.6-4.9c0-4.8-3.9-8.6-8.6-8.6s-8.6,3.9-8.6,8.6
			c0,1.8,0.6,3.5,1.6,4.9c-3.3,2.3-5.5,6.1-5.5,10.4c0,6.5,4.9,11.8,11.2,12.5v9.9h2.7v-9.9C38.7,117.2,43.7,111.8,43.7,105.4z"/></g><g><rect x="16" y="127.4" class="st1" width="128" height="1.2"/></g><g><g><g><path class="st2" d="M60.6,127.9c-0.3,0-0.5-0.2-0.5-0.5v-1.3c0-0.3,0.2-0.5,0.5-0.5s0.5,0.2,0.5,0.5v1.3
					C61.1,127.7,60.9,127.9,60.6,127.9z"/></g><g><path class="st2" d="M60.6,123.8c-0.3,0-0.5-0.2-0.5-0.5v-2.5c0-0.3,0.2-0.5,0.5-0.5s0.5,0.2,0.5,0.5v2.5
					C61.1,123.6,60.9,123.8,60.6,123.8z M60.6,118.6c-0.3,0-0.5-0.2-0.5-0.5v-2.5c0-0.3,0.2-0.5,0.5-0.5s0.5,0.2,0.5,0.5v2.5
					C61.1,118.3,60.9,118.6,60.6,118.6z M60.6,113.3c-0.3,0-0.5-0.2-0.5-0.5v-2.5c0-0.3,0.2-0.5,0.5-0.5s0.5,0.2,0.5,0.5v2.5
					C61.1,113.1,60.9,113.3,60.6,113.3z M60.6,108c-0.3,0-0.5-0.2-0.5-0.5v-2.5c0-0.3,0.2-0.5,0.5-0.5s0.5,0.2,0.5,0.5v2.5
					C61.1,107.8,60.9,108,60.6,108z M60.6,102.8c-0.3,0-0.5-0.2-0.5-0.5v-2.5c0-0.3,0.2-0.5,0.5-0.5s0.5,0.2,0.5,0.5v2.5
					C61.1,102.6,60.9,102.8,60.6,102.8z M60.6,97.5c-0.3,0-0.5-0.2-0.5-0.5v-2.5c0-0.3,0.2-0.5,0.5-0.5s0.5,0.2,0.5,0.5V97
					C61.1,97.3,60.9,97.5,60.6,97.5z"/></g><g><path class="st2" d="M60.6,92.3c-0.3,0-0.5-0.2-0.5-0.5v-1.6l1.1-1c0.2-0.2,0.5-0.2,0.7,0c0.2,0.2,0.2,0.5,0,0.7l-0.8,0.7v1.1
					C61.1,92.1,60.9,92.3,60.6,92.3z"/></g><g><path class="st2" d="M64.1,87.8c-0.1,0-0.3-0.1-0.4-0.2c-0.2-0.2-0.2-0.5,0-0.7l2.2-2c0.2-0.2,0.5-0.2,0.7,0
					c0.2,0.2,0.2,0.5,0,0.7l-2.2,2C64.4,87.7,64.2,87.8,64.1,87.8z M68.8,83.5c-0.1,0-0.3-0.1-0.4-0.2c-0.2-0.2-0.2-0.5,0-0.7l2.2-2
					c0.2-0.2,0.5-0.2,0.7,0c0.2,0.2,0.2,0.5,0,0.7l-2.2,2C69.1,83.4,68.9,83.5,68.8,83.5z M73.5,79.2c-0.1,0-0.3-0.1-0.4-0.2
					c-0.2-0.2-0.2-0.5,0-0.7l2.2-2c0.2-0.2,0.5-0.2,0.7,0c0.2,0.2,0.2,0.5,0,0.7l-2.2,2C73.8,79.2,73.6,79.2,73.5,79.2z"/></g><g><path class="st2" d="M80.2,74.9c-0.1,0-0.2,0-0.3-0.1l-0.6-0.6l-0.6,0.6c-0.2,0.2-0.5,0.2-0.7,0c-0.2-0.2-0.2-0.5,0-0.7l1.3-1.2
					l1.3,1.2c0.2,0.2,0.2,0.5,0,0.7C80.5,74.8,80.3,74.9,80.2,74.9z"/></g><g><path class="st2" d="M94.3,87.8c-0.1,0-0.2,0-0.3-0.1l-2.2-2c-0.2-0.2-0.2-0.5,0-0.7c0.2-0.2,0.5-0.2,0.7,0l2.2,2
					c0.2,0.2,0.2,0.5,0,0.7C94.6,87.7,94.4,87.8,94.3,87.8z M89.6,83.5c-0.1,0-0.2,0-0.3-0.1l-2.2-2c-0.2-0.2-0.2-0.5,0-0.7
					c0.2-0.2,0.5-0.2,0.7,0l2.2,2c0.2,0.2,0.2,0.5,0,0.7C89.9,83.4,89.7,83.5,89.6,83.5z M84.9,79.2c-0.1,0-0.2,0-0.3-0.1l-2.2-2
					c-0.2-0.2-0.2-0.5,0-0.7c0.2-0.2,0.5-0.2,0.7,0l2.2,2c0.2,0.2,0.2,0.5,0,0.7C85.2,79.1,85,79.2,84.9,79.2z"/></g><g><path class="st2" d="M97.8,92.3c-0.3,0-0.5-0.2-0.5-0.5v-1.1l-0.8-0.7c-0.2-0.2-0.2-0.5,0-0.7c0.2-0.2,0.5-0.2,0.7,0l1.1,1v1.6
					C98.3,92.1,98.1,92.3,97.8,92.3z"/></g><g><path class="st2" d="M97.8,123.8c-0.3,0-0.5-0.2-0.5-0.5v-2.5c0-0.3,0.2-0.5,0.5-0.5s0.5,0.2,0.5,0.5v2.5
					C98.3,123.6,98.1,123.8,97.8,123.8z M97.8,118.6c-0.3,0-0.5-0.2-0.5-0.5v-2.5c0-0.3,0.2-0.5,0.5-0.5s0.5,0.2,0.5,0.5v2.5
					C98.3,118.3,98.1,118.6,97.8,118.6z M97.8,113.3c-0.3,0-0.5-0.2-0.5-0.5v-2.5c0-0.3,0.2-0.5,0.5-0.5s0.5,0.2,0.5,0.5v2.5
					C98.3,113.1,98.1,113.3,97.8,113.3z M97.8,108c-0.3,0-0.5-0.2-0.5-0.5v-2.5c0-0.3,0.2-0.5,0.5-0.5s0.5,0.2,0.5,0.5v2.5
					C98.3,107.8,98.1,108,97.8,108z M97.8,102.8c-0.3,0-0.5-0.2-0.5-0.5v-2.5c0-0.3,0.2-0.5,0.5-0.5s0.5,0.2,0.5,0.5v2.5
					C98.3,102.6,98.1,102.8,97.8,102.8z M97.8,97.5c-0.3,0-0.5-0.2-0.5-0.5v-2.5c0-0.3,0.2-0.5,0.5-0.5s0.5,0.2,0.5,0.5V97
					C98.3,97.3,98.1,97.5,97.8,97.5z"/></g><g><path class="st2" d="M97.8,127.9c-0.3,0-0.5-0.2-0.5-0.5v-1.3c0-0.3,0.2-0.5,0.5-0.5s0.5,0.2,0.5,0.5v1.3
					C98.3,127.7,98.1,127.9,97.8,127.9z"/></g></g><g><path class="st3" d="M106.9,67l11.2,0.2l-1,52.9c-0.1,2.9-2.4,5.2-5.3,5.1l-0.8,0c-2.9-0.1-5.1-2.4-5.1-5.3L106.9,67z"/></g><g><path class="st3" d="M105.7,62.6l11.2,0.2l-1,52.9c-0.1,2.9-2.4,5.2-5.3,5.1l-0.8,0c-2.9-0.1-5.1-2.4-5.1-5.3L105.7,62.6z"/></g><g><polygon class="st4" points="106.7,54.4 79.2,47.2 90.8,16.1 127.1,16.1 			"/></g><g><path class="st4" d="M114.1,55.8c1.7,10.1-8.3,18.5-18.5,18.5S77.1,66,77.1,55.8s8.3-18.5,18.5-18.5S112.4,46,114.1,55.8z"/></g><g><path class="st4" d="M109.2,70.3l11.1,0.5l-2,52.9c-0.1,2.9-2.6,5.1-5.4,5l-0.7,0c-2.9-0.1-5.1-2.5-5-5.4L109.2,70.3z"/></g><g><path class="st4" d="M119.2,100.5L89.8,62.1L110.4,46l9.9,23.1c1.3,3.9,0.5,10,0.2,16.5L119.2,100.5z"/></g><g><path class="st4" d="M82.7,69l10-11.2l32.2,27.7c2.7,2.4,2.9,6.6,0.5,9.2l-0.6,0.7c-2.4,2.7-6.5,2.9-9.1,0.5L82.7,69z"/></g><g><path class="st3" d="M119.6,97.6c-2.3,0-6.5-3.2-9.3-5.4c-0.9-0.7-1.8-1.4-2-1.4l0.1-0.7c0.3,0,0.7,0.3,2.4,1.6
				c2.5,1.9,6.7,5.2,8.8,5.2c0,0,0,0,0,0c2.3,0,4.3-0.8,5.5-2.4c1.4-1.8,1.2-4,1.2-4.7c-0.3-3-2.3-4.9-3.1-5.6l-5.1-4.4l-12.3-9.7
				L97,58.2l0.6-0.4l8.8,11.9l12.2,9.6l5.1,4.4c0.9,0.7,3.1,2.8,3.4,6.1c0.1,0.8,0.3,3.1-1.3,5.2C124.4,96.7,122.2,97.6,119.6,97.6
				L119.6,97.6z"/></g><g><path class="st3" d="M53.1,67l-11.2,0.2l1,52.9c0.1,2.9,2.4,5.2,5.3,5.1l0.8,0c2.9-0.1,5.1-2.4,5.1-5.3L53.1,67z"/></g><g><path class="st3" d="M54.3,62.6l-11.2,0.2l1,52.9c0.1,2.9,2.4,5.2,5.3,5.1l0.8,0c2.9-0.1,5.1-2.4,5.1-5.3L54.3,62.6z"/></g><g><polygon class="st4" points="53.3,54.4 80.8,47.2 69.2,16.1 32.9,16.1 			"/></g><g><path class="st4" d="M45.9,55.8c-1.7,10.1,8.3,18.5,18.5,18.5S82.9,66,82.9,55.8s-8.3-18.5-18.5-18.5S47.6,46,45.9,55.8z"/></g><g><path class="st4" d="M50.8,70.3l-11.1,0.5l2,52.9c0.1,2.9,2.6,5.1,5.4,5l0.7,0c2.9-0.1,5.1-2.5,5-5.4L50.8,70.3z"/></g><g><path class="st4" d="M40.8,100.5l29.4-38.4L49.6,46l-9.9,23.1c-1.3,3.9-0.5,10-0.2,16.5L40.8,100.5z"/></g><g><path class="st4" d="M77.4,69l-10-11.2L35.1,85.5c-2.7,2.4-2.9,6.6-0.5,9.2l0.6,0.7c2.4,2.7,6.5,2.9,9.1,0.5L77.4,69z"/></g><g><path class="st3" d="M40.4,97.6C40.4,97.6,40.4,97.6,40.4,97.6c-2.6,0-4.7-0.9-6.1-2.7c-1.6-2.1-1.4-4.4-1.3-5.2
				c0.3-3.3,2.5-5.4,3.4-6.1l5.1-4.3l12.2-9.7l8.8-11.9l0.6,0.4l-8.9,12l-12.2,9.7l-5.1,4.3c-0.9,0.7-2.9,2.6-3.1,5.6
				c-0.1,0.7-0.2,2.8,1.2,4.7c1.2,1.5,3.1,2.4,5.5,2.4c0,0,0,0,0,0c2.1,0,6.4-3.3,9-5.2c1.7-1.3,2.1-1.6,2.4-1.6l0,0.8
				c-0.2,0.1-1.1,0.8-2,1.5C47,94.4,42.7,97.6,40.4,97.6z"/></g></g></g><g id="stramien"/></svg>