<?xml version="1.0" encoding="utf-8"?><!--Generator: Adobe Illustrator 28.0.0, SVG Export Plug-In . SVG Version: 6.00 Build 0)--><svg version="1.1" xmlns="http://www.w3.org/2000/svg" xmlns:xlink="http://www.w3.org/1999/xlink" x="0px" y="0px" viewBox="0 0 160 160" style="enable-background:new 0 0 160 160;" xml:space="preserve"><style type="text/css">.st0{clip-path:url(#XMLID_00000013879199050951917300000001552378440706854837_);fill:#232144;}
	.st1{fill:#FFFFFF;}
	.st2{fill:#232144;}
	.st3{fill:#FF6200;}
	.st4{fill:#FAA332;}
	.st5{fill:none;stroke:#FFFFFF;stroke-width:3.9562;stroke-miterlimit:10;}</style><g id="Design"><g><g><defs><path id="XMLID_00000043418180964586279890000012077120634493675144_" d="M74.6,47c-2.4-3.1-6.8-3.6-9.9-1.2
					c-3.1,2.4-3.6,6.8-1.2,9.9l12.4,16.1l-25.8,1c-3.7,0-6.7,3-6.7,6.7l0,0c0,3.7,2.9,6.7,6.6,6.8l0.4,0l-4.2,0
					c-3.7,0-6.8,3-6.7,6.8l0,0c0,3.6,3,6.6,6.6,6.6c-3,0.7-5.3,3.4-5.3,6.6c0,3.7,3,6.6,6.7,6.6l6.4,0c-3.4,0.4-6,3.2-5.9,6.7
					c0,3.7,3,6.6,6.7,6.6l29.2-0.6l15.1-3.4l45.1,7.3l0-41.2l-36-4.5L74.6,47z"/></defs><use xlink:href="#XMLID_00000043418180964586279890000012077120634493675144_" style="overflow:visible;fill:#FFD4A9;"/><clipPath id="XMLID_00000101071553986378031760000013870106448051639169_"><use xlink:href="#XMLID_00000043418180964586279890000012077120634493675144_" style="overflow:visible;"/></clipPath><polygon style="clip-path:url(#XMLID_00000101071553986378031760000013870106448051639169_);fill:#232144;" points="112.1,126.2 
				118.5,82.6 132.3,86.2 126.4,127.9 			"/></g><circle class="st1" cx="122" cy="107.5" r="12.3"/><path class="st2" d="M120.1,120.7c-7.3-1.1-12.4-7.9-11.3-15.2c1.1-7.3,7.9-12.4,15.2-11.3s12.4,7.9,11.3,15.2
			S127.4,121.8,120.1,120.7z M123.6,96.3c-6.2-0.9-11.9,3.4-12.8,9.6c-0.9,6.2,3.4,11.9,9.6,12.8s11.9-3.4,12.8-9.6
			C134.1,102.9,129.8,97.2,123.6,96.3z"/><polygon class="st3" points="126.6,108.5 121.5,107.8 122.6,100.6 123.3,100.7 122.4,107.1 126.7,107.8 		"/><rect x="122.5" y="98" transform="matrix(0.1431 -0.9897 0.9897 0.1431 8.3472 206.3465)" class="st3" width="1.6" height="0.8"/><rect x="119.9" y="116.2" transform="matrix(0.1431 -0.9897 0.9897 0.1431 -11.9772 219.3741)" class="st3" width="1.6" height="0.8"/><rect x="130.8" y="108" transform="matrix(0.1431 -0.9897 0.9897 0.1431 4.6988 223.0225)" class="st3" width="0.8" height="1.6"/><rect x="112.5" y="105.4" transform="matrix(0.1431 -0.9897 0.9897 0.1431 -8.3288 202.698)" class="st3" width="0.8" height="1.6"/></g><g><circle class="st4" cx="107.1" cy="45.8" r="29.6"/><polyline class="st5" points="91.8,45.9 102.1,58 126.5,33.6 		"/></g></g><g id="stramien"/></svg>