<?xml version="1.0" encoding="utf-8"?><!--Generator: Adobe Illustrator 27.8.0, SVG Export Plug-In . SVG Version: 6.00 Build 0)--><svg version="1.1" xmlns="http://www.w3.org/2000/svg" xmlns:xlink="http://www.w3.org/1999/xlink" x="0px" y="0px" viewBox="0 0 160 160" style="enable-background:new 0 0 160 160;" xml:space="preserve"><style type="text/css">.st0{fill:#FFC6AD;}
	.st1{fill:#F7931E;}
	.st2{fill:#8B181D;}
	.st3{fill:#F5836D;}
	.st4{fill:#FFA28F;}
	.st5{fill:#ABB8B9;}
	.st6{fill:#FBB03B;}
	.st7{fill:#F7E5CD;}
	.st8{fill:#BAC09A;}
	.st9{fill:#463EC5;}
	.st10{fill:#693725;}
	.st11{fill:#FAA332;}
	.st12{fill:#E73245;}
	.st13{fill:#8F411F;}
	.st14{fill:#F68D3D;}
	.st15{fill:#569B7B;}
	.st16{fill:#FFFFFF;}
	.st17{fill:#AACDE5;}
	.st18{fill:#232144;}
	.st19{fill:#A86554;}
	.st20{fill:#FFBD7A;}
	.st21{fill:#E6E3DA;}
	.st22{fill:#4B7CFE;}
	.st23{fill:#D8CBC5;}
	.st24{fill:#FF6200;}
	.st25{fill:#F0A86B;}
	.st26{fill:#E3944F;}
	.st27{fill:#191C15;}
	.st28{fill:#420F0F;}
	.st29{fill:#7D441C;}
	.st30{fill:none;stroke:#000000;stroke-width:0.6944;stroke-miterlimit:10;}
	.st31{fill:#01464D;}
	.st32{fill:#7A2F37;}
	.st33{fill:#9E3F39;}
	.st34{fill:none;stroke:#ABB8B9;stroke-width:3;stroke-miterlimit:10;}
	.st35{fill:#891229;}
	.st36{fill:#7070FF;}
	.st37{fill:#32785A;}
	.st38{fill:#D3E8F3;}
	.st39{fill:#006931;}
	.st40{clip-path:url(#SVGID_00000176040390606045258390000011723325255446093218_);}
	.st41{fill:#9A4039;}
	.st42{fill:none;stroke:#232144;stroke-width:2;stroke-miterlimit:10;}
	.st43{fill:#F5B091;}
	.st44{fill:none;stroke:#000000;stroke-width:1.3429;stroke-miterlimit:10;}
	.st45{fill:#D93B34;}
	.st46{fill:#FE5E57;}
	.st47{clip-path:url(#XMLID_00000168099788328907813000000017839401217908735932_);fill:#F7931E;}
	.st48{fill:#763427;}</style><g id="stramien"/><g id="Design"><path class="st3" d="M53,95.6H41.9v15.9h2.8c0.9,0,1.7-0.8,2.3-2.1L53,95.6z"/><path class="st4" d="M61.3,92.1l-8.6-10.3l-0.1,0.1c-1.2-2.9-4-4.9-7.3-4.9h-3.5v0.2l-6.1,0c-2,0-3.9,1.3-5.2,3.7l-13.6,23.6
		L16,144h23.5l-4.8-39.5l7.1,0l0-6.2h11.3V97l1,1.1c1.7,2,4.6,2.2,6.6,0.6C62.7,97.1,62.9,94.1,61.3,92.1"/><g><path class="st18" d="M141.4,105.7H32.7c-1.5,0-2.6-1.2-2.6-2.6V33.9c0-1.5,1.2-2.6,2.6-2.6h108.6c1.5,0,2.6,1.2,2.6,2.6v69.2
			C144,104.6,142.8,105.7,141.4,105.7z"/><path class="st21" d="M138.3,102.7H35.8c-0.7,0-1.3-0.6-1.3-1.3V35.6c0-0.7,0.6-1.3,1.3-1.3h102.5c0.7,0,1.3,0.6,1.3,1.3v65.8
			C139.6,102.1,139,102.7,138.3,102.7z"/><path class="st24" d="M92.8,65.9h-9.4c-0.9,0-1.7-0.7-1.7-1.7v-9.4c0-0.9,0.7-1.7,1.7-1.7h9.4c0.9,0,1.7,0.7,1.7,1.7v9.4
			C94.5,65.2,93.7,65.9,92.8,65.9z"/><g><circle class="st23" cx="70.6" cy="77.4" r="2.6"/><circle class="st23" cx="79.4" cy="77.4" r="2.6"/><circle class="st23" cx="88.1" cy="77.5" r="2.6"/><circle class="st23" cx="96.8" cy="77.5" r="2.6"/><circle class="st23" cx="105.6" cy="77.5" r="2.6"/></g></g><path class="st4" d="M43.7,87.7c0-2.6-2.1-4.7-4.7-4.7c-2.6,0-4.7,2.1-4.7,4.7v16.8l-4.9,0l-0.1,22.8l1.3,0
		c7.1,0,12.9-5.7,12.9-12.8l0-3.6h0.1V87.7z"/></g></svg>