<?xml version="1.0" encoding="utf-8"?><!--Generator: Adobe Illustrator 28.0.0, SVG Export Plug-In . SVG Version: 6.00 Build 0)--><svg version="1.1" xmlns="http://www.w3.org/2000/svg" xmlns:xlink="http://www.w3.org/1999/xlink" x="0px" y="0px" viewBox="0 0 160 160" style="enable-background:new 0 0 160 160;" xml:space="preserve"><style type="text/css">.st0{fill:#E6E3DA;}
	.st1{fill:#232144;}
	.st2{fill:#FAA332;}
	.st3{fill:#4B7CFE;}
	.st4{fill:#463EC5;}
	.st5{fill:#E5F0FF;}
	.st6{fill:#006931;}
	.st7{fill:none;stroke:#103256;stroke-width:0.9272;stroke-miterlimit:10;}
	.st8{fill:#5C1C13;}
	.st9{fill:#FFA28F;}
	.st10{fill:#F5836D;}
	.st11{fill:none;stroke:#171111;stroke-width:0.8004;stroke-miterlimit:10;}
	.st12{fill:#FFFFFF;}
	.st13{clip-path:url(#SVGID_00000144331397993391747270000018384052766724665524_);}
	.st14{clip-path:url(#SVGID_00000018208340047091854000000002301244029690532510_);}</style><g id="Design"><g><circle class="st0" cx="89" cy="59.8" r="21.3"/><circle class="st0" cx="47.1" cy="85.6" r="21.3"/><circle class="st0" cx="79.7" cy="85.6" r="21.3"/><circle class="st0" cx="37.3" cy="59.8" r="21.3"/><circle class="st0" cx="63" cy="37.2" r="21.3"/><circle class="st0" cx="63" cy="71.5" r="21.3"/></g><rect x="70.3" y="38" class="st1" width="6.1" height="15"/><path class="st2" d="M49,66.5c0-3.7-1.8-6.9-4.7-8.8c0.8-1.2,1.3-2.6,1.3-4.2c0-4-3.3-7.3-7.3-7.3S31,49.4,31,53.5
		c0,1.6,0.5,3,1.3,4.2c-2.8,1.9-4.7,5.1-4.7,8.8c0,5.5,4.2,10,9.5,10.6h2.3C44.8,76.5,49,72,49,66.5z"/><polygon class="st3" points="37.8,60.4 62.4,34.6 87,60.4 	"/><polygon class="st1" points="42.3,85.5 42.3,60.5 62.4,39 82.5,60.5 82.5,85.5 	"/><rect x="71.1" y="71.2" class="st4" width="7.4" height="14.3"/><rect x="49.3" y="73.3" class="st5" width="16.3" height="6.3"/><rect x="64.1" y="58.3" class="st5" width="8.3" height="8.9"/><rect x="49.5" y="58.1" class="st5" width="8.3" height="8.9"/><path class="st6" d="M87.1,81.8c0,0.1,0,0.1,0,0.2"/><line class="st7" x1="72.9" y1="70.1" x2="72.9" y2="85.4"/><rect x="37.8" y="61.6" class="st5" width="0.9" height="24"/><g><path class="st8" d="M116.8,111.7c0,7.5,6.1,13.6,13.6,13.6c7.5,0,13.6-6.1,13.6-13.6s-6.1-13.6-13.6-13.6
			C122.9,98.1,116.8,104.2,116.8,111.7"/><path class="st8" d="M120.5,132.9c0,5.5,4.4,9.9,9.9,9.9c5.5,0,9.9-4.4,9.9-9.9c0-5.5-4.4-9.9-9.9-9.9
			C124.9,122.9,120.5,127.4,120.5,132.9"/><path class="st8" d="M77.2,111.7c0,7.5,6.1,13.6,13.6,13.6c7.5,0,13.6-6.1,13.6-13.6s-6.1-13.6-13.6-13.6
			C83.3,98.1,77.2,104.2,77.2,111.7"/><path class="st8" d="M81,132.9c0,5.5,4.4,9.9,9.9,9.9s9.9-4.4,9.9-9.9c0-5.5-4.4-9.9-9.9-9.9S81,127.4,81,132.9"/><path class="st9" d="M137.2,97.9c0,3.4-2.7,6.1-6.1,6.1c-3.4,0-6.1-2.7-6.1-6.1s2.7-6.1,6.1-6.1C134.4,91.8,137.2,94.5,137.2,97.9
			"/><path class="st9" d="M95.8,97.9c0,3.4-2.7,6.1-6.1,6.1c-3.4,0-6.1-2.7-6.1-6.1c0-3.4,2.7-6.1,6.1-6.1
			C93.1,91.8,95.8,94.5,95.8,97.9"/><path class="st10" d="M95.3,128.9v-19.5l30.1,0v19.5c0,8.3-6.7,15.1-15.1,15.1C102.1,144,95.3,137.3,95.3,128.9"/><path class="st9" d="M90.4,106.6V78.4c0-8.9,7.2-16.1,16.1-16.1h7.7c8.9,0,16.1,7.2,16.1,16.1v28.1c0,8.9-7.2,16.1-16.1,16.1h-7.7
			C97.6,122.7,90.4,115.5,90.4,106.6"/><path class="st11" d="M105.6,103.7c0,0,1.3-1.7,2.8-0.4c0.5,0.5,1.1,0.8,1.8,1c0.5,0.1,1.1,0.1,1.7-0.2c0.2-0.1,0.4-0.3,0.6-0.5
			c0.3-0.4,1.5-1.4,3.1,0.1"/><path class="st12" d="M105.2,96.2c0,0-1.5-3.1-4.3-4.1c-2.8-1-5.9,0.6-5.9,0.6s1.1,2.5,3.9,3.5S105.2,96.2,105.2,96.2"/><path d="M105.2,96.2c-0.7-5-7-7.1-10.9-4.8c0.2,0.4,0.7,1.2,0.9,1.5c0.9-0.5,5.3-2.3,9.4,2.5C104.8,95.8,104.8,95.9,105.2,96.2"/><g><defs><path id="SVGID_1_" d="M94.8,92.7c0,0,1.1,2.5,3.9,3.5c2.8,1,6.2,0,6.2,0s-1.5-3.1-4.3-4.1c-0.7-0.2-1.4-0.3-2-0.3
					C96.6,91.8,94.8,92.7,94.8,92.7"/></defs><clipPath id="SVGID_00000146482370884984655890000014055736916290841986_"><use xlink:href="#SVGID_1_" style="overflow:visible;"/></clipPath><path style="clip-path:url(#SVGID_00000146482370884984655890000014055736916290841986_);" d="M100.6,92.9c0,1.3-1.1,2.4-2.4,2.4
				c-1.3,0-2.4-1.1-2.4-2.4c0-1.3,1.1-2.4,2.4-2.4C99.5,90.4,100.6,91.5,100.6,92.9"/></g><g><path class="st12" d="M115,96.2c0,0,1.5-3.1,4.3-4.1c2.8-1,5.9,0.6,5.9,0.6s-1.1,2.5-3.9,3.5S115,96.2,115,96.2"/><path d="M115,96.2c0.7-5,7-7.1,10.9-4.8c-0.2,0.4-0.7,1.2-0.9,1.5c-0.9-0.5-5.3-2.3-9.4,2.5C115.4,95.8,115.3,95.9,115,96.2"/></g><g><defs><path id="SVGID_00000135653422398536651680000012114076724347993767_" d="M119.7,91.7c-2.8,1-4.3,4.1-4.3,4.1s3.4,1,6.2,0
					c2.8-1,3.9-3.5,3.9-3.5s-1.8-0.9-3.9-0.9C121.1,91.3,120.4,91.4,119.7,91.7"/></defs><clipPath id="SVGID_00000083054151919080009560000003515045573290133924_"><use xlink:href="#SVGID_00000135653422398536651680000012114076724347993767_" style="overflow:visible;"/></clipPath><path style="clip-path:url(#SVGID_00000083054151919080009560000003515045573290133924_);" d="M115.7,93.8c0,1.3,1.1,2.4,2.4,2.4
				c1.3,0,2.4-1.1,2.4-2.4c0-1.3-1.1-2.4-2.4-2.4C116.8,91.3,115.7,92.4,115.7,93.8"/></g><path class="st8" d="M112.7,85.7c4.5-6.4,10.2-6.9,14.6-0.3c0,0-4.2-1.3-7.7-1.3C116.1,84,112.7,85.7,112.7,85.7"/><path class="st8" d="M107.5,85.7c-4.5-6.4-10.2-6.9-14.6-0.3c0,0,4.2-1.3,7.7-1.3C104.1,84,107.5,85.7,107.5,85.7"/><path class="st8" d="M90.7,98.5V88.4c0-8.9,7.1-16.1,15.9-16.1h2.2v-5l2.8,5h2.7c8.8,0,15.9,7.2,15.9,16.1v10.1h3.1V78.3
			c0-9.6-7.8-17.4-17.4-17.4H105c-9.6,0-17.4,7.8-17.4,17.4v20.2H90.7z"/><path class="st8" d="M116.1,108.8c0-0.7-0.6-1-1.2-1.2c-0.5-0.1-1.1,0-1.6,0.2l-3.4,1.8c0,0,2.9,4,7,3.4c1.6-0.2,3.4-1.2,5.2-3.4
			l-3.3-1.8c-0.6-0.3-1.3-0.4-1.9-0.1C116.4,107.9,116.1,108.3,116.1,108.8"/></g><circle class="st0" cx="124" cy="60.3" r="8.4"/></g><g id="stramien"/></svg>