<svg viewBox="0 0 160 160" fill="none" xmlns="http://www.w3.org/2000/svg"><path fill-rule="evenodd" clip-rule="evenodd" d="M81.9262 58C84.9193 58 87.8883 58.5183 90.6982 59.5323L106.465 68.3361C108.577 69.5149 110.848 70.3976 113.21 70.9564L134.989 73.8294C140.148 74.5097 144 78.8321 144 83.9433V90.5435C144 93.6544 141.43 96.177 138.261 96.177H25.2202C20.1282 96.177 16.0002 92.1251 16.0002 87.1254V78.7106C16.0002 75.9689 17.2662 73.3753 19.4422 71.6564L29.7632 63.5091C34.2802 59.944 39.9022 58 45.6982 58" fill="#F7E5CD"/><path fill-rule="evenodd" clip-rule="evenodd" d="M21.4902 91.4895C21.4902 85.1322 26.7402 79.9785 33.2162 79.9785C39.6922 79.9785 44.9422 85.1322 44.9422 91.4895C44.9422 97.8467 39.6922 103 33.2162 103C26.7402 103 21.4902 97.8467 21.4902 91.4895Z" fill="#232144"/><path fill-rule="evenodd" clip-rule="evenodd" d="M24.588 91.4896C24.588 86.8118 28.451 83.0195 33.216 83.0195C37.982 83.0195 41.845 86.8118 41.845 91.4896C41.845 96.1674 37.982 99.9597 33.216 99.9597C28.451 99.9597 24.588 96.1674 24.588 91.4896Z" fill="#F7E5CD"/><path fill-rule="evenodd" clip-rule="evenodd" d="M27.3375 91.4876C27.3375 88.3006 29.9695 85.7168 33.2165 85.7168C36.4635 85.7168 39.0955 88.3006 39.0955 91.4876C39.0955 94.6746 36.4635 97.2584 33.2165 97.2584C29.9695 97.2584 27.3375 94.6746 27.3375 91.4876Z" fill="#232144"/><path fill-rule="evenodd" clip-rule="evenodd" d="M108.006 91.4895C108.006 85.1322 113.226 79.9785 119.665 79.9785C126.104 79.9785 131.324 85.1322 131.324 91.4895C131.324 97.8467 126.104 103 119.665 103C113.226 103 108.006 97.8467 108.006 91.4895Z" fill="#232144"/><path fill-rule="evenodd" clip-rule="evenodd" d="M111.086 91.4896C111.086 86.8118 114.927 83.0195 119.665 83.0195C124.403 83.0195 128.244 86.8118 128.244 91.4896C128.244 96.1674 124.403 99.9597 119.665 99.9597C114.927 99.9597 111.086 96.1674 111.086 91.4896Z" fill="#F7E5CD"/><path fill-rule="evenodd" clip-rule="evenodd" d="M113.82 91.4876C113.82 88.3006 116.437 85.7168 119.665 85.7168C122.894 85.7168 125.511 88.3006 125.511 91.4876C125.511 94.6746 122.894 97.2584 119.665 97.2584C116.437 97.2584 113.82 94.6746 113.82 91.4876Z" fill="#232144"/><path fill-rule="evenodd" clip-rule="evenodd" d="M138.455 91.4886V89.0352C138.455 87.7448 139.515 86.6973 140.823 86.6973H143.506V91.4886H138.455Z" fill="#232144"/><path fill-rule="evenodd" clip-rule="evenodd" d="M133.404 78.6369V78.3516H138.72C141.364 78.3516 143.506 80.4674 143.506 83.0768V83.3621H138.19C135.547 83.3621 133.404 81.2463 133.404 78.6369Z" fill="#232144"/><path fill-rule="evenodd" clip-rule="evenodd" d="M16 78.3263V76.9687C16 74.3405 18.158 72.2109 20.82 72.2109H29.215V72.8784C29.215 75.8877 26.745 78.3263 23.697 78.3263H16Z" fill="#232144"/><path fill-rule="evenodd" clip-rule="evenodd" d="M75.027 76.679H80.502V75.752H75.027V76.679Z" fill="#232144"/><path fill-rule="evenodd" clip-rule="evenodd" d="M53.17 76.679H58.645V75.752H53.17V76.679Z" fill="#232144"/><path fill-rule="evenodd" clip-rule="evenodd" d="M33.2219 71.4696L33.2168 69.4466C33.2039 64.6118 37.6289 60.6744 43.1249 60.631L78.9439 60.3496C82.5519 60.3496 86.0949 61.1888 89.2159 62.7813L105.184 70.9325L33.2219 71.4696Z" fill="#232144"/><path fill-rule="evenodd" clip-rule="evenodd" d="M19.6813 71.4479C19.6813 71.4479 26.3303 66.2083 28.2193 64.6849C30.8363 62.575 32.0953 61.873 32.0953 61.873C32.0953 67.1729 27.7193 71.4686 22.3203 71.4686L19.6813 71.4479Z" fill="#232144"/><path fill-rule="evenodd" clip-rule="evenodd" d="M63.327 72.7664H65.97V59.0527H63.327V72.7664Z" fill="#F7E5CD"/></svg>