<?xml version="1.0" encoding="UTF-8"?><svg xmlns="http://www.w3.org/2000/svg" version="1.1" viewBox="0 0 160 160"><defs><style>.cls-1 {
        fill: #797878;
      }

      .cls-2 {
        fill: #fff;
      }

      .cls-3 {
        fill: #ff6200;
      }

      .cls-4 {
        fill: #a8a8a8;
      }

      .cls-5 {
        fill: #4f4f59;
      }</style></defs><!--Generator: Adobe Illustrator 28.6.0, SVG Export Plug-In . SVG Version: 1.2.0 Build 709)--><g><g id="Debit"><g><path class="cls-3" d="M88.2,49.3c0-2.5.8-4.7,2-6.1v-23.4c0-2-1.6-3.6-3.6-3.6H19.9c-2,0-3.6,1.5-3.6,3.5v39.6c0,2,1.6,3.6,3.6,3.6h66.7c2,0,3.6-1.5,3.6-3.5v-3.9c-1.2-1.4-2-3.6-2-6.2Z"/><path class="cls-2" d="M27.3,34h-3.9s0,1.6,0,1.6c0,.5.3,1,.7,1h3.2s0-2.6,0-2.6Z"/><path class="cls-2" d="M34.5,34h-3.8s0,2.6,0,2.6h3.1c.4,0,.7-.4.7-1v-1.6Z"/><rect class="cls-2" x="31.9" y="31.1" width="2.1" height="3.2" transform="translate(.2 65.5) rotate(-89.9)"/><rect class="cls-2" x="24" y="31.1" width="2.1" height="3.2" transform="translate(-7.7 57.6) rotate(-89.9)"/><rect class="cls-2" x="28.5" y="27.8" width="1.1" height="2.8" transform="translate(-.3 58.2) rotate(-89.9)"/><rect class="cls-2" x="28.5" y="34.7" width="1" height="2.8" transform="translate(-7.2 65) rotate(-89.9)"/><path class="cls-2" d="M30.7,31.4h3.8s0-1.7,0-1.7c0-.5-.3-1-.7-1h-3.1s0,2.7,0,2.7Z"/><path class="cls-2" d="M27.3,28.7h-3.2c-.4,0-.7.4-.7,1v1.7s3.9,0,3.9,0v-2.7Z"/><polygon class="cls-2" points="26.8 35.4 26.8 29.9 31.1 29.9 31.1 35.4 26.8 35.4"/><path class="cls-3" d="M26.6,35.6v-5.8s4.7,0,4.7,0v5.8s-4.7,0-4.7,0ZM26.9,30v5.3s4.2,0,4.2,0v-5.3s-4.2,0-4.2,0Z"/></g></g><g id="Credit"><g><path class="cls-4" d="M105.3,79.6v-8l2.2-1.5v-23.4c0-2-1.6-3.6-3.6-3.6H37.2c-2,0-3.6,1.5-3.6,3.5v39.6c0,2,1.6,3.6,3.6,3.6h66.7c2,0,3.6-1.5,3.6-3.5v-3.9s0-1.4,0-1.4l-2.2-1.4Z"/><path class="cls-2" d="M44.6,60.9h-3.9s0,1.6,0,1.6c0,.5.3,1,.7,1h3.2s0-2.6,0-2.6Z"/><path class="cls-2" d="M51.8,60.9h-3.8s0,2.6,0,2.6h3.1c.4,0,.7-.4.7-1v-1.6Z"/><rect class="cls-2" x="49.2" y="58" width="2.1" height="3.2" transform="translate(-9.5 109.7) rotate(-89.9)"/><rect class="cls-2" x="41.3" y="58" width="2.1" height="3.2" transform="translate(-17.4 101.8) rotate(-89.9)"/><rect class="cls-2" x="45.8" y="54.8" width="1.1" height="2.8" transform="translate(-10 102.4) rotate(-89.9)"/><rect class="cls-2" x="45.8" y="61.6" width="1" height="2.8" transform="translate(-16.8 109.2) rotate(-89.9)"/><path class="cls-2" d="M48,58.3h3.8s0-1.7,0-1.7c0-.5-.3-1-.7-1h-3.1s0,2.7,0,2.7Z"/><path class="cls-2" d="M44.7,55.6h-3.2c-.4,0-.7.4-.7,1v1.7s3.9,0,3.9,0v-2.7Z"/><polygon class="cls-2" points="44.1 62.4 44.1 56.8 48.4 56.8 48.4 62.4 44.1 62.4"/><path class="cls-4" d="M43.9,62.5v-5.8s4.7,0,4.7,0v5.8s-4.7,0-4.7,0ZM44.2,56.9v5.3s4.2,0,4.2,0v-5.3s-4.2,0-4.2,0Z"/></g></g><g id="Platinum"><g><path class="cls-1" d="M123.6,106.7v-8l2.2-1.5v-23.4c0-2-1.6-3.6-3.6-3.6H55.5c-2,0-3.6,1.5-3.6,3.5v39.6c0,2,1.6,3.6,3.6,3.6h66.7c2,0,3.6-1.5,3.6-3.5v-3.9s0-1.4,0-1.4l-2.2-1.4Z"/><path class="cls-2" d="M63,88h-3.9s0,1.6,0,1.6c0,.5.3,1,.7,1h3.2s0-2.6,0-2.6Z"/><path class="cls-2" d="M70.2,88h-3.8s0,2.6,0,2.6h3.1c.4,0,.7-.4.7-1v-1.6Z"/><rect class="cls-2" x="67.5" y="85.2" width="2.1" height="3.2" transform="translate(-18.4 155.1) rotate(-89.9)"/><rect class="cls-2" x="59.6" y="85.1" width="2.1" height="3.2" transform="translate(-26.2 147.2) rotate(-89.9)"/><rect class="cls-2" x="64.1" y="81.9" width="1.1" height="2.8" transform="translate(-18.8 147.8) rotate(-89.9)"/><rect class="cls-2" x="64.1" y="88.7" width="1" height="2.8" transform="translate(-25.7 154.6) rotate(-89.9)"/><path class="cls-2" d="M66.3,85.4h3.8s0-1.7,0-1.7c0-.5-.3-1-.7-1h-3.1s0,2.7,0,2.7Z"/><path class="cls-2" d="M63,82.8h-3.2c-.4,0-.7.4-.7,1v1.7s3.9,0,3.9,0v-2.7Z"/><polygon class="cls-2" points="62.5 89.5 62.5 84 66.8 84 66.8 89.5 62.5 89.5"/><path class="cls-1" d="M62.2,89.6v-5.8s4.7,0,4.7,0v5.8s-4.7,0-4.7,0ZM62.5,84.1v5.3s4.2,0,4.2,0v-5.3s-4.2,0-4.2,0Z"/></g></g><g id="Business"><g><path class="cls-5" d="M141.7,133.7v-8l2.2-1.5v-23.4c0-2-1.6-3.6-3.6-3.6h-66.7c-2,0-3.6,1.5-3.6,3.5v39.6c0,2,1.6,3.6,3.6,3.6h66.7c2,0,3.6-1.5,3.6-3.5v-3.9s0-1.4,0-1.4l-2.2-1.4Z"/><path class="cls-2" d="M81.1,115h-3.9s0,1.6,0,1.6c0,.5.3,1,.7,1h3.2s0-2.6,0-2.6Z"/><path class="cls-2" d="M88.3,115h-3.8s0,2.6,0,2.6h3.1c.4,0,.7-.4.7-1v-1.6Z"/><rect class="cls-2" x="85.7" y="112.2" width="2.1" height="3.2" transform="translate(-27.2 200.2) rotate(-89.9)"/><rect class="cls-2" x="77.8" y="112.1" width="2.1" height="3.2" transform="translate(-35.1 192.2) rotate(-89.9)"/><rect class="cls-2" x="82.3" y="108.9" width="1.1" height="2.8" transform="translate(-27.7 192.8) rotate(-89.9)"/><rect class="cls-2" x="82.3" y="115.7" width="1" height="2.8" transform="translate(-34.6 199.6) rotate(-89.9)"/><path class="cls-2" d="M84.5,112.4h3.8s0-1.7,0-1.7c0-.5-.3-1-.7-1h-3.1s0,2.7,0,2.7Z"/><path class="cls-2" d="M81.1,109.8h-3.2c-.4,0-.7.4-.7,1v1.7s3.9,0,3.9,0v-2.7Z"/><polygon class="cls-2" points="80.6 116.5 80.6 111 84.9 111 84.9 116.5 80.6 116.5"/><path class="cls-5" d="M80.4,116.6v-5.8s4.7,0,4.7,0v5.8s-4.7,0-4.7,0ZM80.7,111.1v5.3s4.2,0,4.2,0v-5.3s-4.2,0-4.2,0Z"/></g></g></g></svg>