<?xml version="1.0" encoding="UTF-8"?><svg id="Stork" xmlns="http://www.w3.org/2000/svg" viewBox="0 0 160 160"><defs><style>.cls-1{stroke:#ff6100;}.cls-1,.cls-2{fill:none;stroke-miterlimit:10;stroke-width:1.7px;}.cls-3{fill:#e6e3d9;}.cls-4{fill:#171111;}.cls-5{fill:#feb200;}.cls-2{stroke:#ce5311;}.cls-6{fill:#ff6100;}.cls-7{fill:#f8e6ca;}</style></defs><path class="cls-5" d="M110.13,36.28c-2.1.4-4.33.62-6.64.62-1.9,0-3.75-.15-5.52-.43l-6.54-17.78c3.49-1.38,7.63-2.18,12.06-2.18,4.67,0,9.01.89,12.62,2.41l-5.98,17.35Z"/><path class="cls-5" d="M132.18,67.01c0,10.59-3.53,19.17-28.41,19.17s-28.41-8.58-28.41-19.17,12.72-37.03,28.41-37.03,28.41,26.44,28.41,37.03Z"/><path class="cls-7" d="M111.52,61.37c0,.39-.17.55-.52.55l-5.99-.02c.61,2.82,2.18,4.67,5.35,4.68,1.42,0,2.69-.38,3.75-.76.46-.16.71-.16.87.2l.83,1.78c.22.49.13.74-.26.93-1.59.84-3.63,1.34-5.86,1.33-4.89-.02-7.98-3.14-8.9-8.2h-2.1c-.36,0-.52-.18-.52-.56v-1.55c0-.39.17-.55.53-.55h1.81v-.9c0-.42,0-.84.04-1.26h-1.65c-.36,0-.52-.17-.52-.56v-1.55c0-.39.17-.55.53-.55h2c1.05-4.9,4.15-8.29,9.23-8.28,2.49,0,4.24.63,5.53,1.57.38.3.45.55.26.94l-.91,1.65c-.23.38-.55.55-.94.32-1.29-.72-2.1-1.08-3.62-1.09-2.78,0-4.63,1.66-5.42,4.9l6.18.02c.36,0,.52.17.52.55v1.55c0,.39-.17.55-.53.55l-6.5-.02c-.03.36-.03.74-.04,1.1v1.07l6.34.02c.36,0,.52.17.52.55v1.57Z"/><polygon class="cls-6" points="124.33 31.92 70.81 29.91 70.81 33.93 124.33 31.92"/><line class="cls-2" x1="46.44" y1="92.34" x2="46.44" y2="143.17"/><line class="cls-2" x1="39.58" y1="143.48" x2="59.98" y2="143.48"/><line class="cls-1" x1="50.64" y1="92.34" x2="50.64" y2="143.17"/><line class="cls-1" x1="43.78" y1="143.48" x2="64.18" y2="143.48"/><circle class="cls-3" cx="63.41" cy="30.17" r="8.96"/><ellipse class="cls-3" cx="49.27" cy="75.32" rx="23.64" ry="16.92" transform="translate(-25.07 24.58) rotate(-22.49)"/><path class="cls-3" d="M71.35,75.42c1.29-4.75,2.02-10.25,2.02-16.12,0-8.73-1.63-16.66-4.28-22.5l-11.72.1c3.89,3.4,7.28,9.91,8.77,17.77.49,2.56.74,5.07.77,7.44l4.44,13.31Z"/><path class="cls-4" d="M64.91,29.86c-.77,0-1.47-.39-1.89-1.03l.6-.39c.28.44.76.7,1.28.7.84,0,1.52-.68,1.52-1.52,0-.21-.04-.41-.12-.59l.66-.28c.12.28.18.57.18.87,0,1.24-1.01,2.24-2.24,2.24Z"/><path class="cls-4" d="M33.47,65.56c-9.52,9.13-11.55,22.84-5.7,30.49l20.82-16.57-15.12-13.92Z"/><circle class="cls-3" cx="37.1" cy="69.5" r="5.28"/><circle class="cls-3" cx="45.76" cy="75.61" r="5.28"/><polygon class="cls-5" points="112.41 29.67 111.65 31.85 112.09 32.44 103.76 34.46 103.76 28.94 112.41 29.67"/><rect class="cls-4" x="56.3" y="22.96" width="20.21" height="1.79"/><rect class="cls-4" x="56.3" y="16.75" width="14.17" height="7.39"/><rect class="cls-5" x="66.73" y="20.72" width="3.74" height="2.24"/></svg>