<?xml version="1.0" encoding="UTF-8"?><svg id="Bear" xmlns="http://www.w3.org/2000/svg" xmlns:xlink="http://www.w3.org/1999/xlink" viewBox="0 0 160 160"><defs><style>.cls-1{fill:#171111;}.cls-2{fill:#f8c79e;}.cls-3{fill:#a6d4c2;}.cls-4{fill:#f01378;}.cls-5{clip-path:url(#clippath-1);}.cls-6{fill:#fdb128;}.cls-7{fill:#fff;}.cls-8{fill:#232045;}.cls-9{fill:#f99400;}.cls-10{fill:#fca41b;}.cls-11{fill:#c1745f;}.cls-12{fill:#f8e5cc;}.cls-13{fill:#a96552;}.cls-14{clip-path:url(#clippath);}</style><clipPath id="clippath"><path class="cls-7" d="M117.26,45.47c.29-.04.43-.38.25-.62-.25-.34-.66-.76-1.21-.96-.59-.21-1.22-.1-1.63.03-.26.08-.36.39-.19.61.22.28.59.64,1.13.82.57.2,1.21.17,1.65.11Z"/></clipPath><clipPath id="clippath-1"><path class="cls-7" d="M121.85,45.47c-.29-.04-.43-.38-.25-.62.25-.34.66-.76,1.21-.96.59-.21,1.22-.1,1.63.03.26.08.36.39.19.61-.22.28-.59.64-1.13.82-.57.2-1.21.17-1.65.11Z"/></clipPath></defs><rect class="cls-3" x="22.07" y="72.64" width="34.61" height="17.37" rx="8.68" ry="8.68"/><ellipse class="cls-10" cx="36.01" cy="89.78" rx="11.78" ry="12.3"/><ellipse class="cls-10" cx="46.4" cy="65.36" rx="4.73" ry="4.55"/><ellipse class="cls-10" cx="24.63" cy="86.38" rx="7.19" ry="3.72" transform="translate(-58.74 52.94) rotate(-52.23)"/><circle class="cls-2" cx="46.4" cy="65.36" r="2.63"/><ellipse class="cls-10" cx="25.61" cy="65.36" rx="4.73" ry="4.55"/><circle class="cls-2" cx="25.61" cy="65.36" r="2.63"/><circle class="cls-10" cx="36.01" cy="73.39" r="12.05"/><ellipse class="cls-2" cx="36.01" cy="77.36" rx="7.77" ry="4.21"/><path class="cls-8" d="M36.01,77.59l-1.68-2.23c-.26-.35-.01-.85.43-.85h2.5c.44,0,.69.5.43.85l-1.68,2.23Z"/><rect class="cls-8" x="35.84" y="76.67" width=".34" height="3.53"/><path class="cls-8" d="M35.99,80.32c-1.2,0-2.05-.94-2.09-.98l.25-.23s.79.87,1.84.87h.02c.65,0,1.28-.35,1.86-1.01l.26.22c-.65.74-1.36,1.12-2.12,1.13h-.02Z"/><path class="cls-4" d="M39.55,62.46l-12.44,3.66c-.57.17-1.13-.31-1.06-.9l2.32-18.79,11.61,14.71c.36.46.15,1.15-.42,1.31Z"/><circle class="cls-8" cx="39.89" cy="71.32" r="1.26"/><circle class="cls-8" cx="31.82" cy="71.32" r="1.26"/><ellipse class="cls-10" cx="46.96" cy="86.38" rx="3.72" ry="7.19" transform="translate(-43.07 46.86) rotate(-37.77)"/><rect class="cls-3" x="102.26" y="72.64" width="34.61" height="17.37" rx="8.68" ry="8.68"/><path class="cls-3" d="M96.1,98.79h45.6c0,4.26-3.46,7.72-7.72,7.72h-30.15c-4.26,0-7.72-3.46-7.72-7.72h0Z"/><path class="cls-3" d="M102.88,104.71h9.21v34.69c0,2.54-2.06,4.61-4.61,4.61h0c-2.54,0-4.61-2.06-4.61-4.61v-34.69h0Z"/><path class="cls-3" d="M125.71,105.36h9.21v34.04c0,2.54-2.06,4.61-4.61,4.61h0c-2.54,0-4.61-2.06-4.61-4.61v-34.04h0Z"/><path class="cls-3" d="M15.92,98.79h45.6c0,4.26-3.46,7.72-7.72,7.72h-30.15c-4.26,0-7.72-3.46-7.72-7.72h0Z"/><path class="cls-3" d="M22.7,104.71h9.21v34.69c0,2.54-2.06,4.61-4.61,4.61h0c-2.54,0-4.61-2.06-4.61-4.61v-34.69h0Z"/><path class="cls-3" d="M45.52,105.36h9.21v34.04c0,2.54-2.06,4.61-4.61,4.61h0c-2.54,0-4.61-2.06-4.61-4.61v-34.04h0Z"/><path class="cls-4" d="M112.62,136.17c.9,0,.9-1.4,0-1.4s-.9,1.4,0,1.4h0Z"/><polygon class="cls-11" points="137.58 100.82 137.25 106.34 143.95 105.87 142.72 100.09 137.58 100.82"/><polygon class="cls-11" points="142.79 100.7 140.29 79.5 131.83 80.75 137.72 101.32 142.79 100.7"/><path class="cls-11" d="M135.25,106.33h5.04c.56,0,1.01.45,1.01,1.01v1.01h-7.05v-1.01c0-.56.45-1.01,1.01-1.01Z" transform="translate(302.7 49.92) rotate(122.89)"/><path class="cls-11" d="M136.69,114.31h0c.36.43.99.48,1.42.13l3.4-2.86-1.29-1.54-3.4,2.86c-.43.36-.48.99-.12,1.42Z"/><path class="cls-11" d="M136.49,113.28h0c.42.37,1.05.33,1.42-.09l2.94-3.33-1.51-1.33-2.94,3.33c-.37.42-.33,1.05.09,1.42Z"/><polygon class="cls-11" points="143.95 105.87 142.01 104.86 139.46 110.93 141.42 111.75 143.95 105.87"/><rect class="cls-11" x="137.72" y="106.88" width="6.26" height="2.01" transform="translate(-17.83 187.25) rotate(-64.02)"/><path class="cls-11" d="M138.65,107.83s.52-.83.69-1.08c.36-.5.82-.1.61.37-.13.31-.64,1.28-.96,2.03,1.34-1.26,3.8-2.9,3.8-2.9l-3.79-1.28-.35,2.86Z"/><polygon class="cls-11" points="137.83 61.86 140.37 80.07 132.04 81.53 127.27 63.06 137.83 61.86"/><polygon class="cls-11" points="88.57 58.71 102.69 74.72 95.84 79.75 84.73 62.08 88.57 58.71"/><polygon class="cls-11" points="101.11 61.77 98.32 70.34 103.07 79.53 111.97 63.38 101.11 61.77"/><polygon class="cls-11" points="128.78 126.86 131.73 61.43 120.59 61.43 120.76 126.86 128.78 126.86"/><polygon class="cls-11" points="110.2 122.83 107.13 61.43 118.27 61.43 118.27 122.83 110.2 122.83"/><path class="cls-12" d="M132.97,56.06s-.07,0-.1,0h0s-25.71-.01-25.71-.01h0c-.13,0-.25,0-.38.02-3.42.27-5.99,3.37-5.73,6.93.15,2.07,2.6,3.46,4.95,5.1l-.46,18.33h27.76l.38-18.33c2.29-1.63,4.88-3.11,5.03-5.1.26-3.56-2.31-6.66-5.73-6.93Z"/><polygon class="cls-12" points="110.65 134.62 110.08 121.43 118.28 121.5 118.3 134.62 110.65 134.62"/><polygon class="cls-4" points="110.15 123.02 118.28 123.02 118.28 124.26 110.2 124.26 110.15 123.02"/><polygon class="cls-4" points="110.25 125.1 118.28 125.1 118.28 126.34 110.29 126.34 110.25 125.1"/><path class="cls-9" d="M109.45,134.15l.22,4.61c-1.72.56-2.46,1.4-2.46,2.58h11.76v-7.19h-9.52Z"/><rect class="cls-4" x="107.21" y="141.34" width="11.76" height="2.59"/><rect class="cls-9" x="105.54" y="86.43" width="27.76" height="12.42"/><path class="cls-6" d="M126.74,75.84h0c-3.67,0-6.64,2.97-6.64,6.64v34.25h13.78l-.5-34.34c-.05-3.63-3.01-6.54-6.64-6.54Z"/><path class="cls-6" d="M105.45,82.37l-.72,34.36h14.07v-34.22c0-3.68-2.99-6.67-6.67-6.67h0c-3.63,0-6.59,2.9-6.67,6.53Z"/><polygon class="cls-12" points="128.36 134.62 128.87 125.28 120.76 125.22 120.76 134.62 128.36 134.62"/><polygon class="cls-4" points="128.78 126.86 120.76 126.86 120.76 128.11 128.72 128.11 128.78 126.86"/><polygon class="cls-4" points="128.67 128.94 120.76 128.94 120.76 130.19 128.6 130.19 128.67 128.94"/><path class="cls-9" d="M129.5,134.15v4.61c1.71.56,2.24,1.4,2.24,2.58h-11.76v-7.19h9.52Z"/><rect class="cls-4" x="119.98" y="141.34" width="11.76" height="2.59"/><path class="cls-1" d="M108.83,47.73h3.27c3.04,0,5.5,2.47,5.5,5.5v3.27h-3.27c-3.04,0-5.5-2.47-5.5-5.5v-3.27h0Z" transform="translate(70.02 -64.79) rotate(45)"/><path class="cls-1" d="M121.4,47.73h3.27c3.04,0,5.5,2.47,5.5,5.5v3.27h-3.27c-3.04,0-5.5-2.47-5.5-5.5v-3.27h0Z" transform="translate(73.7 -73.68) rotate(45)"/><circle class="cls-11" cx="126.61" cy="45.82" r="2.11"/><circle class="cls-11" cx="112.32" cy="45.82" r="2.11"/><path class="cls-13" d="M124.22,55.52v-6.96s-9.52-.03-9.52-.03v6.99c0,2.79,2.13,5.06,4.76,5.06h0c2.63,0,4.76-2.26,4.76-5.06Z"/><rect class="cls-11" x="112.57" y="33.81" width="13.8" height="20.45" rx="6.83" ry="6.83"/><path class="cls-7" d="M117.26,45.47c.29-.04.43-.38.25-.62-.25-.34-.66-.76-1.21-.96-.59-.21-1.22-.1-1.63.03-.26.08-.36.39-.19.61.22.28.59.64,1.13.82.57.2,1.21.17,1.65.11Z"/><g class="cls-14"><circle cx="115.47" cy="44.71" r=".84"/></g><path class="cls-7" d="M121.85,45.47c-.29-.04-.43-.38-.25-.62.25-.34.66-.76,1.21-.96.59-.21,1.22-.1,1.63.03.26.08.36.39.19.61-.22.28-.59.64-1.13.82-.57.2-1.21.17-1.65.11Z"/><g class="cls-5"><circle cx="122.64" cy="44.95" r=".84"/></g><path d="M117.59,45.01c-.56-1.35-1.97-1.65-3.25-1.08.08.14.04.04.13.17.2-.12.93-.34,1.72-.13.89.24,1.28.93,1.4,1.03Z"/><path d="M121.52,45.01c.56-1.35,1.97-1.65,3.25-1.08-.08.14-.04.04-.13.17-.2-.12-.93-.34-1.72-.13-.89.24-1.28.93-1.4,1.03Z"/><path d="M119.45,47.55c-.24,0-.42-.13-.59-.24-.27-.19-.44-.3-.76.06l-.21-.23c.5-.55.85-.3,1.13-.11.14.1.28.19.43.19s.28-.09.42-.18c.27-.18.61-.41,1.16.1l-.19.25c-.39-.36-.56-.24-.81-.07-.16.11-.34.23-.57.23Z"/><path class="cls-1" d="M121.33,33.34h-3.74c-3.33,0-6.02,2.7-6.02,6.03v4.58h1.08v-1.1c0-1.47,1.47-2.29,3.01-2.75,2.01-.6,3.4-2.44,3.4-4.54h0s.81,0,.81,0h0c0,2.1,1.39,3.94,3.4,4.54,1.53.45,3.01,1.27,3.01,2.75v1.1h1.08v-4.58c0-3.33-2.7-6.03-6.02-6.03Z"/><path d="M119.53,50.83h0c-1.02,0-1.87-.7-1.9-.73l.21-.25s.8.66,1.69.66h0c.92,0,1.54-.64,1.55-.64l.24.23s-.72.75-1.79.75Z"/><path class="cls-1" d="M109.53,57.03h2.75c2.55,0,4.63,2.07,4.63,4.63v2.75h-2.75c-2.55,0-4.63-2.07-4.63-4.63v-2.75h0Z" transform="translate(76.1 -62.27) rotate(45)"/><path class="cls-1" d="M110.93,65.35h1.71c1.59,0,2.88,1.29,2.88,2.88v1.71h-1.71c-1.59,0-2.88-1.29-2.88-2.88v-1.71h0Z" transform="translate(80.99 -60.25) rotate(45)"/><path class="cls-1" d="M122.1,57.03h2.75c2.55,0,4.63,2.07,4.63,4.63v2.75h-2.75c-2.55,0-4.63-2.07-4.63-4.63v-2.75h0Z" transform="translate(79.78 -71.16) rotate(45)"/><path class="cls-1" d="M123.5,65.35h1.71c1.59,0,2.88,1.29,2.88,2.88v1.71h-1.71c-1.59,0-2.88-1.29-2.88-2.88v-1.71h0Z" transform="translate(84.68 -69.13) rotate(45)"/><path class="cls-4" d="M127.27,43.95h-.81v-3.39c0-2.78-2.27-5.05-5.05-5.05h-3.89c-2.78,0-5.05,2.27-5.05,5.05v3.39h-.81v-3.39c0-3.23,2.63-5.86,5.86-5.86h3.89c3.23,0,5.86,2.63,5.86,5.86v3.39Z"/><circle class="cls-4" cx="122.8" cy="36.08" r="1.09"/><circle class="cls-4" cx="125.94" cy="37.67" r="1.09"/><circle class="cls-4" cx="124.34" cy="34.54" r="1.09"/><circle class="cls-4" cx="126.28" cy="35.51" r="1.09"/><circle class="cls-4" cx="123.78" cy="38.03" r="1.09"/><circle class="cls-12" cx="124.64" cy="36.37" r="1.55"/><rect class="cls-1" x="120.7" y="40.93" width="4.39" height=".74"/><rect class="cls-1" x="113.8" y="42.35" width="4.39" height=".74"/><ellipse class="cls-2" cx="28.12" cy="96.54" rx="5.14" ry="5.83"/><ellipse class="cls-2" cx="43.46" cy="96.54" rx="5.14" ry="5.83"/><ellipse class="cls-11" cx="99.38" cy="77.38" rx="4.26" ry="4.23"/><path class="cls-11" d="M83.83,55.59l-5.83-7.22c-.31-.39-.25-.95.14-1.26h0c.38-.31.97-.27,1.28.11l5.8,7.25c.4.49.15.81-.22,1.11l-.06.05c-.37.29-.99.13-1.38-.36l.27.31Z"/><path class="cls-11" d="M78.81,52.77l-2.86,2.17c-.39.3-.95.24-1.25-.15h0c-.3-.39-.24-.95.15-1.25l3.79-3.06.17,2.3Z"/><path class="cls-11" d="M82.63,54.7l-5.83-7.22c-.31-.39-.25-.95.14-1.26h0c.38-.31.95-.25,1.25.14l5.83,7.22c.4.49.15.81-.22,1.11l-.06.05c-.37.29-.99.13-1.38-.36l.27.31Z"/><path class="cls-11" d="M81.18,54.09l-5.83-7.22c-.31-.39-.25-.95.14-1.26h0c.38-.31.95-.25,1.25.14l5.83,7.22c.4.49.15.81-.22,1.11l-.06.05c-.37.29-.99.13-1.38-.36l.27.31Z"/><path class="cls-2" d="M74.58,55.19c-.41,1.51-1.87,2.62-3.61,2.62s-3.2-1.12-3.61-2.62c0,0-.28-1.1-.39-3.26h8.02s-.19,2.43-.41,3.26Z"/><path class="cls-2" d="M74.86,56.44h-1.1v-.65h1.1c.73,0,1.33-.6,1.33-1.33s-.6-1.33-1.33-1.33v-.65c1.09,0,1.98.89,1.98,1.98s-.89,1.98-1.98,1.98Z"/><path class="cls-4" d="M71.63,55.29c.28.19.65.11.84-.16s.11-.65-.16-.84c-.19-.13-.43-.13-.62-.03,0,0,0,0,0,0,.07-.04.14-.1.19-.18.19-.28.11-.65-.16-.84s-.65-.11-.84.16c-.09.13-.12.29-.09.43,0,0,0,0,0,0-.03-.14-.12-.28-.25-.37-.28-.19-.65-.11-.84.16s-.11.65.16.84c.08.05.17.08.25.09,0,0,0,0,0,0-.22-.02-.44.06-.57.26-.19.28-.11.65.16.84s.65.11.84-.16c.02-.02.02-.05.03-.08,0,0,.02,0,.02,0-.11.26-.04.57.21.74.28.19.65.11.84-.16.17-.25.12-.56-.08-.76,0,0,.01-.01.02-.02.02.02.03.04.05.06Z"/><path class="cls-2" d="M52.34,96.26c.41,1.51,1.87,2.62,3.61,2.62s3.2-1.12,3.61-2.62c0,0,.28-1.1.39-3.26h-8.02s.19,2.43.41,3.26Z"/><path class="cls-2" d="M52.06,97.51h1.1s0-.65,0-.65h-1.1c-.73,0-1.33-.6-1.33-1.33s.6-1.33,1.33-1.33v-.65c-1.09,0-1.98.89-1.98,1.98s.89,1.98,1.98,1.98Z"/><path class="cls-4" d="M55.29,96.36c-.28.19-.65.11-.84-.16s-.11-.65.16-.84c.19-.13.43-.13.62-.03,0,0,0,0,0,0-.07-.04-.14-.1-.19-.18-.19-.28-.11-.65.16-.84s.65-.11.84.16c.09.13.12.29.09.43,0,0,0,0,0,0,.03-.14.12-.28.25-.37.28-.19.65-.11.84.16s.11.65-.16.84c-.08.05-.17.08-.25.09,0,0,0,0,0,0,.22-.02.44.06.57.26.19.28.11.65-.16.84s-.65.11-.84-.16c-.02-.02-.02-.05-.03-.08,0,0-.02,0-.02,0,.11.26.04.57-.21.74-.28.19-.65.11-.84-.16-.17-.25-.12-.56.08-.76,0,0-.01-.01-.02-.02-.02.02-.03.04-.05.06Z"/><path class="cls-11" d="M75.76,55.24h0c.14-.57.76-.88,1.3-.65,1.11.49,2.82,1.23,3.5,1.52,1.06.46,1.74-.93.6-1.69-.57-.38-2.85-1.95-2.85-1.95l.09-2,5.97,2.91,4.73,5.91-4.07,3.26-2.34-2.93-3.29-1.77-3.14-1.56c-.39-.2-.6-.64-.5-1.07Z"/></svg>