<?xml version="1.0" encoding="utf-8"?><!--Generator: Adobe Illustrator 28.0.0, SVG Export Plug-In . SVG Version: 6.00 Build 0)--><svg version="1.1" xmlns="http://www.w3.org/2000/svg" xmlns:xlink="http://www.w3.org/1999/xlink" x="0px" y="0px" viewBox="0 0 160 160" style="enable-background:new 0 0 160 160;" xml:space="preserve"><style type="text/css">.st0{fill:#E6E3DA;}
	.st1{fill:none;stroke:#D8CBC5;stroke-width:3;stroke-miterlimit:10;}
	.st2{fill:#FAA332;}
	.st3{fill:none;stroke:#FFFFFF;stroke-width:2.7582;stroke-miterlimit:10;}
	.st4{fill:#4B7CFE;}
	.st5{fill:#232144;}
	.st6{fill:#E6E6E6;}
	.st7{fill:#7070FF;}</style><g id="Design"><g><g><rect x="33.2" y="35.7" transform="matrix(0.9721 -0.2347 0.2347 0.9721 -18.2845 18.8872)" class="st0" width="74" height="101.1"/><line class="st1" x1="42.6" y1="79" x2="91.4" y2="67.2"/><line class="st1" x1="45.4" y1="90.3" x2="94.2" y2="78.6"/><line class="st1" x1="48.1" y1="101.7" x2="96.9" y2="89.9"/><line class="st1" x1="50.9" y1="113" x2="99.7" y2="101.3"/></g><g><circle class="st2" cx="89.6" cy="36.6" r="20.6"/><polyline class="st3" points="78.9,36.6 86.2,45.1 103.2,28.1 			"/></g><g><polygon class="st4" points="137.6,87 115.2,143.9 103.9,139.7 126.3,82.8 			"/><polygon class="st5" points="129.6,89.9 130.5,90.2 111.9,136.8 111,136.4 			"/><polygon class="st6" points="137.6,87.1 136.9,80.6 131.3,78.3 126.4,82.9 			"/><path class="st7" d="M135,74.9l-3.7,3.4l5.6,2.3l-0.5-5.1C136.3,74.8,135.5,74.5,135,74.9z"/></g></g></g><g id="stramien"/></svg>