<svg viewBox="0 0 160 160" fill="none" xmlns="http://www.w3.org/2000/svg"><path fill-rule="evenodd" clip-rule="evenodd" d="M72.7174 91.6915C74.3484 87.7137 78.8924 85.8129 82.8664 87.4455C86.8394 89.079 88.7384 93.6264 87.1074 97.6042C85.4764 101.582 80.9324 103.483 76.9594 101.85C72.9854 100.217 71.0864 95.6694 72.7174 91.6915Z" fill="#232144"/><path fill-rule="evenodd" clip-rule="evenodd" d="M110.365 20.4072C107.599 19.2711 104.436 20.5934 103.301 23.3621L93.4124 47.4773C84.0234 46.2101 74.5994 51.357 70.8334 60.5399L67.6704 68.2533C65.7664 72.8948 60.4654 75.1129 55.8294 73.2071L55.0584 72.8908L51.0074 82.7703L79.9124 94.6477L108.818 106.524L112.869 96.6446L112.099 96.3283C107.462 94.4235 105.247 89.1164 107.15 84.4759L110.314 76.7615C114.078 67.5837 110.989 57.2988 103.427 51.5963L113.317 27.478C114.453 24.7094 113.131 21.5433 110.365 20.4072Z" fill="#FAA332"/><path fill-rule="evenodd" clip-rule="evenodd" d="M29.9595 93.0061C27.9295 83.9524 29.3765 74.6184 34.0345 66.7248C38.4165 59.642 45.0715 54.489 53.2885 51.8145L53.6985 53.0747C45.7835 55.6521 39.3765 60.6099 35.1685 67.4115C30.6895 75.0018 29.2965 83.9924 31.2525 92.7158L29.9595 93.0061Z" fill="#FAA332"/><path fill-rule="evenodd" clip-rule="evenodd" d="M17.1661 93.6929C14.5231 81.9056 16.4071 69.7539 22.4711 59.477C28.1731 50.2601 36.8371 43.5537 47.5341 40.0703L47.9441 41.3315C37.5491 44.7168 29.1321 51.2291 23.6051 60.1637C17.7201 70.1363 15.8901 81.9456 18.4591 93.4027L17.1661 93.6929Z" fill="#FAA332"/><path fill-rule="evenodd" clip-rule="evenodd" d="M106.712 129.256L106.302 127.995C114.217 125.417 120.624 120.461 124.832 113.659C129.311 106.069 130.704 97.0781 128.748 88.3547L130.041 88.0645C132.071 97.1182 130.624 106.451 125.966 114.345C121.584 121.429 114.929 126.581 106.712 129.256Z" fill="#FAA332"/><path fill-rule="evenodd" clip-rule="evenodd" d="M112.466 141L112.056 139.738C122.452 136.354 130.868 129.842 136.395 120.906C142.28 110.934 144.11 99.1253 141.541 87.6682L142.834 87.377C145.477 99.1653 143.593 111.316 137.529 121.593C131.827 130.81 123.163 137.516 112.466 141Z" fill="#FAA332"/></svg>