<?xml version="1.0" encoding="UTF-8"?><svg id="Pets" xmlns="http://www.w3.org/2000/svg" xmlns:xlink="http://www.w3.org/1999/xlink" viewBox="0 0 160 160"><defs><style>.cls-1{fill:#e6e3d9;}.cls-2{fill:#aec0e8;}.cls-3{fill:#8aa5e2;}.cls-4{fill:#232145;}.cls-5{fill:#ffa600;}.cls-6{fill:#fbca66;}.cls-7{clip-path:url(#clippath-1);}.cls-8{fill:#fff;}.cls-9{fill:#231e47;}.cls-10{clip-path:url(#clippath);}.cls-11{fill:#ff6000;}</style><clipPath id="clippath"><path class="cls-8" d="M76.43,46.35s3.43-8.81,12.01-5.99c0,0-1.1,8.81-12.01,5.99Z"/></clipPath><clipPath id="clippath-1"><path class="cls-8" d="M69.69,46.35s-3.43-8.81-12.01-5.99c0,0,1.1,8.81,12.01,5.99Z"/></clipPath></defs><path class="cls-4" d="M136.33,113.12c0-19.11-15.52-34.6-34.67-34.6s-34.67,15.49-34.67,34.6,15.52,30.91,34.67,30.91,34.67-11.8,34.67-30.91Z"/><ellipse class="cls-4" cx="72.82" cy="48.88" rx="23.61" ry="23.56"/><path class="cls-4" d="M96.29,50.93s-1.42,21.47,13.41,28.69l-33.73,46.88s-22.84-22.84-15.11-62.82l35.43-12.75Z"/><rect class="cls-4" x="78.03" y="87.15" width="7.97" height="56.88"/><path class="cls-4" d="M51.55,39.8v-23.73l13.48,15.29-13.48,8.44Z"/><path class="cls-4" d="M94.33,39.8c0-.73,0-23.73,0-23.73l-13.48,15.29,13.48,8.44Z"/><path class="cls-8" d="M76.43,46.35s3.43-8.81,12.01-5.99c0,0-1.1,8.81-12.01,5.99Z"/><g class="cls-10"><ellipse cx="82.51" cy="45.58" rx="1.79" ry="3.18"/></g><path class="cls-8" d="M69.69,46.35s-3.43-8.81-12.01-5.99c0,0,1.1,8.81,12.01,5.99Z"/><g class="cls-7"><ellipse cx="63.76" cy="45.78" rx="1.79" ry="3.18"/></g><path class="cls-1" d="M35.88,79.75c-5.96,7.27-9.54,16.57-9.54,26.7,0,16.45,9.43,30.68,23.17,37.62h37.92c13.74-6.94,23.17-21.17,23.17-37.62,0-10.14-3.58-19.43-9.54-26.7H35.88Z"/><path class="cls-2" d="M29.74,89.86c-2.19,5.09-3.41,10.7-3.41,16.6,0,16.45,9.43,30.68,23.17,37.62h37.92c13.74-6.94,23.17-21.17,23.17-37.62,0-5.9-1.22-11.5-3.41-16.6H29.74Z"/><path class="cls-6" d="M36.84,136.15c3.17,3.18,6.83,5.88,10.89,7.92h37.92c4.05-2.05,7.71-4.74,10.89-7.92h-59.69Z"/><path class="cls-4" d="M46.82,144.03h53.99l1.28-9.44h-50.53c-8.38,0-15.17-6.78-15.17-15.13h0c0-8.36,6.79-15.13,15.17-15.13h2.44c2.61,0,4.73-2.11,4.73-4.72h0c0-2.61-2.12-4.72-4.73-4.72h-2.44c-13.6,0-24.62,11-24.62,24.57h0c0,13.57,9.61,24.57,19.89,24.57Z"/><path class="cls-11" d="M94.3,107.3h3.04c2.35,0,4.26,1.91,4.26,4.26v3.04h-3.04c-2.35,0-4.26-1.91-4.26-4.26v-3.04h0Z" transform="translate(2.11 223.74) rotate(-98.21)"/><path class="cls-11" d="M93.99,114.57h3.04c2.35,0,4.26,1.91,4.26,4.26v3.04h-3.04c-2.35,0-4.26-1.91-4.26-4.26v-3.04h0Z" transform="translate(29.23 -19) rotate(13.06)"/><path class="cls-5" d="M96.44,114.71c0,3.11-11.09,8.63-15.85,8.63s-11.8-6.51-11.8-8.63,7.04-8.63,11.8-8.63,15.85,5.05,15.85,8.63Z"/><circle class="cls-9" cx="74.63" cy="111.64" r=".82"/><circle class="cls-3" cx="66.82" cy="107.55" r=".88"/><circle class="cls-3" cx="69.34" cy="104.22" r=".97"/><circle class="cls-3" cx="66.37" cy="101.73" r="1.38"/><path class="cls-11" d="M81.18,101.94h1.82c2.37,0,4.3,1.93,4.3,4.3v1.82h-1.82c-2.37,0-4.3-1.93-4.3-4.3v-1.82h0Z" transform="translate(-48.81 125.45) rotate(-60)"/><path class="cls-11" d="M80.66,122.49h1.5c1.97,0,3.56,1.6,3.56,3.56v1.5h-1.5c-1.97,0-3.56-1.6-3.56-3.56v-1.5h0Z" transform="translate(-31.14 27.65) rotate(-15.94)"/></svg>