<?xml version="1.0" encoding="UTF-8"?><svg id="flowers" xmlns="http://www.w3.org/2000/svg" viewBox="0 0 160 160"><defs><style>.cls-1{fill:none;}.cls-2{fill:#271a4d;}.cls-3{fill:#00401e;}.cls-4{fill:#ffe5c1;}.cls-5{fill:#fc6301;}.cls-6{fill:#6a3725;}.cls-7{fill:#fff;}.cls-8{fill:#ffae00;}.cls-9{fill:#064120;}.cls-10{fill:red;}.cls-11{fill:#aa0012;}.cls-12{fill:#ffc490;}</style></defs><ellipse class="cls-7" cx="85.61" cy="45.94" rx="3.34" ry="7.16" transform="translate(24.72 121.64) rotate(-79.41)"/><path class="cls-6" d="M116.09,79.68c0,3.68-5.99,3.04-13.4,3.04s-13.4.64-13.4-3.04,5.99-6.68,13.4-6.68,13.4,3,13.4,6.68Z"/><line class="cls-1" x1="99.9" y1="78.87" x2="112.26" y2="77.89"/><polygon points="99.82 77.99 112.19 77 112.36 78.8 99.99 79.79 99.82 77.99"/><polygon class="cls-9" points="100.26 138.86 99.12 138.29 134.73 79.41 135.86 79.99 100.26 138.86"/><path class="cls-9" d="M114.11,114.81h0c-.81.15-1.63-.26-1.92-.97l-3.29-8.04c-.73-1.78.46-3.74,2.5-4.12h0c2.1-.39,4.07,1.08,4.07,3.04v8.59c-.01.73-.58,1.36-1.36,1.51Z"/><path class="cls-9" d="M106.95,126.65h0c-.81.15-1.63-.26-1.92-.97l-3.29-8.04c-.73-1.78.46-3.74,2.5-4.12h0c2.1-.39,4.07,1.08,4.07,3.04v8.59c-.01.73-.58,1.36-1.36,1.51Z"/><path class="cls-9" d="M116.9,110.12h0c.29.71,1.11,1.12,1.92.97l9.2-1.73c2.04-.38,3.22-2.34,2.49-4.12h0c-.75-1.84-3.16-2.58-4.98-1.53l-7.95,4.58c-.68.39-.96,1.16-.68,1.85Z"/><path class="cls-9" d="M109.96,121.59h0c.29.71,1.11,1.12,1.92.97l9.2-1.73c2.04-.38,3.22-2.34,2.49-4.12h0c-.75-1.84-3.16-2.58-4.98-1.53l-7.95,4.58c-.68.39-.96,1.16-.68,1.85Z"/><path class="cls-9" d="M120.94,103.52h0c-.81.15-1.63-.26-1.92-.97l-3.29-8.04c-.73-1.78.46-3.74,2.5-4.12h0c2.1-.39,4.07,1.08,4.07,3.04v8.59c-.01.73-.58,1.36-1.36,1.51Z"/><path class="cls-9" d="M123.73,98.83h0c.29.71,1.11,1.12,1.92.97l9.2-1.73c2.04-.38,3.22-2.34,2.49-4.12h0c-.75-1.84-3.16-2.58-4.98-1.53l-7.95,4.58c-.68.39-.96,1.16-.68,1.85Z"/><path class="cls-9" d="M127.33,92.94h0c-.81.15-1.63-.26-1.92-.97l-3.29-8.04c-.73-1.78.46-3.74,2.5-4.12h0c2.1-.39,4.07,1.08,4.07,3.04v8.59c-.01.73-.58,1.36-1.36,1.51Z"/><path class="cls-9" d="M130.13,88.25h0c.29.71,1.11,1.12,1.92.97l9.2-1.73c2.04-.38,3.22-2.34,2.49-4.12h0c-.75-1.84-3.16-2.58-4.98-1.53l-7.95,4.58c-.68.39-.96,1.16-.68,1.85Z"/><path class="cls-9" d="M133.04,83.38h0c.73.37,1.64.2,2.15-.4l5.77-6.78c1.28-1.5.79-3.69-1.04-4.62h0c-1.88-.95-4.24-.08-4.88,1.79l-2.79,8.2c-.24.7.09,1.45.79,1.81Z"/><polygon class="cls-3" points="86.08 133.61 84.87 134.03 58.73 71.14 59.95 70.72 86.08 133.61"/><path class="cls-3" d="M74.96,108.41h0c-.4.67-1.27.97-2.05.71l-8.84-2.9c-1.96-.64-2.83-2.74-1.83-4.41h0c1.03-1.72,3.53-2.15,5.17-.87l7.16,5.56c.61.47.77,1.27.39,1.92Z"/><path class="cls-3" d="M80.21,121.05h0c-.4.67-1.27.97-2.05.71l-8.84-2.9c-1.96-.64-2.83-2.74-1.83-4.41h0c1.03-1.72,3.53-2.15,5.17-.87l7.16,5.56c.61.47.77,1.27.39,1.92Z"/><path class="cls-3" d="M72.85,103.43h0c.78.26,1.65-.05,2.05-.71l4.5-7.54c1-1.67.13-3.76-1.83-4.4h0c-2.02-.66-4.2.54-4.5,2.48l-1.32,8.5c-.11.72.35,1.42,1.1,1.67Z"/><path class="cls-3" d="M77.94,115.68h0c.78.26,1.65-.05,2.05-.71l4.5-7.54c1-1.67.13-3.76-1.83-4.4h0c-2.02-.66-4.2.54-4.5,2.48l-1.32,8.5c-.11.72.35,1.42,1.1,1.67Z"/><path class="cls-3" d="M69.94,96.34h0c-.4.67-1.27.97-2.05.71l-8.84-2.9c-1.96-.64-2.83-2.74-1.83-4.41h0c1.03-1.72,3.53-2.15,5.17-.87l7.16,5.56c.61.47.77,1.27.39,1.92Z"/><path class="cls-3" d="M67.83,91.37h0c.78.26,1.65-.05,2.05-.71l4.5-7.54c1-1.67.13-3.76-1.83-4.4h0c-2.02-.66-4.2.54-4.5,2.48l-1.32,8.5c-.11.72.35,1.42,1.1,1.67Z"/><path class="cls-3" d="M65.25,85.04h0c-.4.67-1.27.97-2.05.71l-8.84-2.9c-1.96-.64-2.83-2.74-1.83-4.41h0c1.03-1.72,3.53-2.15,5.17-.87l7.16,5.56c.61.47.77,1.27.39,1.92Z"/><path class="cls-3" d="M63.14,80.06h0c.78.26,1.65-.05,2.05-.71l4.5-7.54c1-1.67.13-3.76-1.83-4.4h0c-2.02-.66-4.2.54-4.5,2.48l-1.32,8.5c-.11.72.35,1.42,1.1,1.67Z"/><path class="cls-3" d="M60.96,74.89h0c.78-.27,1.22-1.02,1.05-1.76l-1.93-8.4c-.43-1.86-2.58-2.94-4.52-2.26h0c-2.01.7-2.81,2.9-1.66,4.56l5.04,7.25c.43.62,1.27.87,2.02.61Z"/><polygon class="cls-3" points="50 119.28 48.78 119.7 22.65 56.81 23.87 56.39 50 119.28"/><path class="cls-3" d="M38.87,94.07h0c-.4.67-1.27.97-2.05.71l-8.84-2.9c-1.96-.64-2.83-2.74-1.83-4.41h0c1.03-1.72,3.53-2.15,5.17-.87l7.16,5.56c.61.47.77,1.27.39,1.92Z"/><path class="cls-3" d="M44.13,106.72h0c-.4.67-1.27.97-2.05.71l-8.84-2.9c-1.96-.64-2.83-2.74-1.83-4.41h0c1.03-1.72,3.53-2.15,5.17-.87l7.16,5.56c.61.47.77,1.27.39,1.92Z"/><path class="cls-3" d="M36.76,89.1h0c.78.26,1.65-.05,2.05-.71l4.5-7.54c1-1.67.13-3.76-1.83-4.4h0c-2.02-.66-4.2.54-4.5,2.48l-1.32,8.5c-.11.72.35,1.42,1.1,1.67Z"/><path class="cls-3" d="M41.86,101.35h0c.78.26,1.65-.05,2.05-.71l4.5-7.54c1-1.67.13-3.76-1.83-4.4h0c-2.02-.66-4.2.54-4.5,2.48l-1.32,8.5c-.11.72.35,1.42,1.1,1.67Z"/><path class="cls-3" d="M33.86,82.01h0c-.4.67-1.27.97-2.05.71l-8.84-2.9c-1.96-.64-2.83-2.74-1.83-4.41h0c1.03-1.72,3.53-2.15,5.17-.87l7.16,5.56c.61.47.77,1.27.39,1.92Z"/><path class="cls-3" d="M31.75,77.03h0c.78.26,1.65-.05,2.05-.71l4.5-7.54c1-1.67.13-3.76-1.83-4.4h0c-2.02-.66-4.2.54-4.5,2.48l-1.32,8.5c-.11.72.35,1.42,1.1,1.67Z"/><path class="cls-3" d="M29.16,70.71h0c-.4.67-1.27.97-2.05.71l-8.84-2.9c-1.96-.64-2.83-2.74-1.83-4.41h0c1.03-1.72,3.53-2.15,5.17-.87l7.16,5.56c.61.47.77,1.27.39,1.92Z"/><path class="cls-3" d="M27.05,65.73h0c.78.26,1.65-.05,2.05-.71l4.5-7.54c1-1.67.13-3.76-1.83-4.4h0c-2.02-.66-4.2.54-4.5,2.48l-1.32,8.5c-.11.72.35,1.42,1.1,1.67Z"/><path class="cls-3" d="M24.88,60.56h0c.78-.27,1.22-1.02,1.05-1.76l-1.93-8.4c-.43-1.86-2.58-2.94-4.52-2.26h0c-2.01.7-2.81,2.9-1.66,4.56l5.04,7.25c.43.62,1.27.87,2.02.61Z"/><path class="cls-9" d="M50.33,144.23l-11.95-116.35c-.08-.75-.58-1.32-1.12-1.28-.54.05-.92.69-.84,1.44l11.94,116.18h1.98Z"/><path class="cls-9" d="M88.32,136.46l-24.14-97.16c-.16-.63-.72-1.05-1.25-.95-.53.11-.84.7-.68,1.33l24.11,97.02,1.97-.24Z"/><path class="cls-9" d="M100.53,144.23l13.5-61.58c.16-.74-.36-1.46-1.17-1.61-.81-.15-1.6.33-1.76,1.07l-13.61,62.12h3.05Z"/><path class="cls-9" d="M57.97,144.23h3.02l-8.19-55.22c-.11-.75-.86-1.27-1.68-1.17-.82.1-1.39.79-1.28,1.54l8.14,54.85Z"/><path class="cls-9" d="M78.03,144.23l34.46-97.93c.27-.78-.14-1.63-.91-1.91-.78-.27-1.63.14-1.91.91l-34.81,98.93h3.17Z"/><path class="cls-12" d="M36.61,32.42l2.09-2.38,11.07,6.36c1.62.93,1.98,2.94.79,4.3h0c-1.19,1.36-3.42,1.47-4.76.22l-9.19-8.5Z"/><path class="cls-12" d="M35.69,31.75l2.09-2.38-9.19-8.5c-1.34-1.24-3.57-1.14-4.76.22h0c-1.19,1.36-.82,3.37.79,4.3l11.07,6.36Z"/><path class="cls-12" d="M38.87,31.43l-2.6-1.91,6.96-10.12c1.02-1.48,3.21-1.81,4.7-.72h0c1.49,1.09,1.6,3.13.25,4.35l-9.3,8.4Z"/><path class="cls-12" d="M37.57,32.86l-.36-3.04,12.75-2.66c1.86-.39,3.67.79,3.88,2.53h0c.21,1.73-1.28,3.25-3.19,3.24l-13.07-.07Z"/><path class="cls-12" d="M38.17,30.54l-3.32.33-2.9-11.66c-.42-1.7.87-3.36,2.77-3.55h0c1.9-.19,3.55,1.17,3.54,2.92l-.08,11.95Z"/><path class="cls-12" d="M38.13,32.27l-2.6-1.91-9.3,8.4c-1.36,1.23-1.24,3.26.25,4.35h0c1.49,1.09,3.68.75,4.7-.72l6.96-10.12Z"/><path class="cls-12" d="M39.38,30.81l-3.32.33-.08,11.95c-.01,1.74,1.64,3.11,3.54,2.92h0c1.9-.19,3.19-1.85,2.76-3.55l-2.91-11.66Z"/><path class="cls-12" d="M37.02,31.84l-.36-3.03-13.07-.07c-1.91-.01-3.4,1.5-3.19,3.24h0c.21,1.73,2.02,2.92,3.88,2.53l12.75-2.66Z"/><path class="cls-2" d="M33.89,28.63c-1.37,1.56-1.1,3.85.61,5.1s4.21,1,5.58-.56c1.37-1.56,1.1-3.85-.61-5.1s-4.21-1-5.58.56Z"/><path class="cls-8" d="M34.68,29.21c-1.02,1.16-.82,2.86.45,3.8,1.27.93,3.13.75,4.15-.42,1.02-1.16.82-2.86-.45-3.8s-3.13-.75-4.15.42Z"/><path class="cls-12" d="M111.3,45.48l2.24-2.15,10.48,7.64c1.53,1.11,1.75,3.17.47,4.4h0c-1.28,1.23-3.49,1.08-4.72-.31l-8.47-9.57Z"/><path class="cls-12" d="M110.44,44.7l2.24-2.15-8.47-9.57c-1.24-1.4-3.44-1.54-4.72-.31h0c-1.28,1.23-1.06,3.29.47,4.4l10.48,7.64Z"/><path class="cls-12" d="M113.61,44.74l-2.44-2.21,7.61-9.36c1.11-1.37,3.31-1.46,4.7-.19h0c1.39,1.26,1.36,3.32-.07,4.39l-9.8,7.38Z"/><path class="cls-12" d="M112.22,46.03l-.14-3.09,12.8-1.22c1.87-.18,3.58,1.21,3.66,2.98h0c.08,1.76-1.5,3.11-3.39,2.88l-12.92-1.55Z"/><path class="cls-12" d="M112.98,43.76l-3.31-.04-2.03-12.02c-.3-1.75,1.1-3.27,2.99-3.25h0c1.89.02,3.43,1.58,3.29,3.33l-.94,11.98Z"/><path class="cls-12" d="M112.82,45.5l-2.44-2.21-9.8,7.38c-1.43,1.08-1.46,3.13-.07,4.39h0c1.39,1.26,3.59,1.17,4.7-.19l7.61-9.36Z"/><path class="cls-12" d="M114.16,44.17l-3.31-.04-.94,11.98c-.14,1.75,1.4,3.3,3.29,3.33h0c1.89.02,3.29-1.49,2.99-3.25l-2.03-12.02Z"/><path class="cls-12" d="M111.76,44.94l-.14-3.09-12.92-1.55c-1.89-.23-3.47,1.12-3.39,2.89h0c.08,1.76,1.79,3.15,3.66,2.98l12.8-1.22Z"/><path class="cls-2" d="M108.89,41.36c-1.47,1.41-1.37,3.74.24,5.19s4.09,1.48,5.56.07,1.37-3.74-.24-5.19c-1.6-1.45-4.09-1.48-5.56-.07Z"/><path class="cls-8" d="M109.63,42.03c-1.09,1.05-1.02,2.78.18,3.86s3.04,1.1,4.14.05c1.09-1.05,1.02-2.78-.18-3.86s-3.04-1.1-4.14-.05Z"/><path class="cls-12" d="M50.56,87.43l1.99-2.45,11.33,5.97c1.65.87,2.11,2.87.97,4.27h0c-1.14,1.4-3.35,1.58-4.75.39l-9.54-8.18Z"/><path class="cls-12" d="M49.62,86.79l1.99-2.45-9.54-8.18c-1.39-1.19-3.61-1.01-4.75.39h0c-1.14,1.4-.68,3.4.97,4.27l11.33,5.97Z"/><path class="cls-12" d="M52.78,86.36l-2.68-1.82,6.53-10.36c.95-1.51,3.13-1.93,4.67-.89h0c1.53,1.04,1.73,3.07.43,4.34l-8.94,8.72Z"/><path class="cls-12" d="M51.54,87.84l-.49-3.02,12.63-3.1c1.84-.45,3.71.66,3.99,2.39h0c.28,1.73-1.15,3.29-3.05,3.35l-13.07.39Z"/><path class="cls-12" d="M52.04,85.49l-3.3.45-3.39-11.55c-.49-1.68.73-3.39,2.61-3.64h0c1.89-.26,3.6,1.05,3.66,2.79l.42,11.95Z"/><path class="cls-12" d="M52.07,87.22l-2.68-1.82-8.94,8.72c-1.3,1.27-1.1,3.3.43,4.34h0c1.53,1.04,3.71.62,4.67-.89l6.53-10.36Z"/><path class="cls-12" d="M53.26,85.72l-3.3.45.43,11.95c.06,1.74,1.77,3.05,3.66,2.79h0c1.89-.26,3.11-1.96,2.61-3.64l-3.39-11.55Z"/><path class="cls-12" d="M50.95,86.84l-.49-3.02-13.07.39c-1.91.06-3.33,1.62-3.05,3.35h0c.28,1.73,2.14,2.84,3.99,2.39l12.63-3.1Z"/><path class="cls-2" d="M47.68,83.73c-1.31,1.61-.94,3.88.83,5.08,1.76,1.19,4.25.86,5.55-.75,1.31-1.61.94-3.88-.83-5.08s-4.25-.86-5.55.75Z"/><path class="cls-8" d="M48.5,84.29c-.97,1.2-.7,2.89.61,3.78s3.16.64,4.13-.56c.97-1.2.7-2.89-.61-3.78s-3.16-.64-4.13.56Z"/><path class="cls-10" d="M110.92,82.52l3.17-3.1-9.09-12.34c-1.45-1.96-4.78-1.26-5.14,1.08h0c-.17,1.07-1.05,1.93-2.2,2.16h0c-2.53.5-3.06,3.58-.82,4.77l14.09,7.44Z"/><path class="cls-10" d="M115.5,86.43l3.17-3.1,14.09,7.44c2.24,1.18,1.71,4.27-.82,4.77h0c-1.16.23-2.04,1.09-2.2,2.16h0c-.37,2.34-3.7,3.04-5.14,1.08l-9.09-12.34Z"/><path class="cls-10" d="M115.24,79.38l3.39,2.9,13.49-8.31c2.15-1.32,1.38-4.37-1.18-4.7h0c-1.17-.15-2.11-.96-2.36-2.02h0c-.54-2.31-3.92-2.8-5.21-.75l-8.14,12.89Z"/><path class="cls-10" d="M110.96,83.57l3.39,2.9-8.14,12.89c-1.29,2.05-4.67,1.56-5.21-.75h0c-.25-1.06-1.19-1.86-2.36-2.02h0c-2.56-.34-3.32-3.38-1.18-4.7l13.49-8.31Z"/><path class="cls-10" d="M117.85,80.7l.16,4.24,15.97,2.85c2.54.45,4.36-2.19,2.8-4.09h0c-.71-.87-.75-2.04-.11-2.95h0c1.4-1.99-.61-4.51-3.11-3.9l-15.72,3.85Z"/><path class="cls-10" d="M111.58,80.9l.16,4.24-15.72,3.85c-2.5.61-4.51-1.91-3.11-3.9h0c.64-.91.6-2.09-.11-2.95h0c-1.55-1.89.26-4.54,2.8-4.09l15.97,2.85Z"/><path class="cls-10" d="M117.22,85.72l-4.64.15-3.11,14.6c-.5,2.32,2.4,3.98,4.47,2.56h0c.95-.65,2.24-.69,3.23-.1h0c2.17,1.28,4.94-.56,4.27-2.84l-4.21-14.37Z"/><path class="cls-10" d="M117.01,79.99l-4.64.15-4.21-14.37c-.67-2.29,2.09-4.12,4.27-2.84h0c.99.59,2.28.55,3.23-.1h0c2.07-1.42,4.97.24,4.47,2.56l-3.11,14.6Z"/><path class="cls-11" d="M112.68,81.87l2.6-1.11-2.08-9.01c-.33-1.43-2.42-1.74-3.22-.48h0c-.37.58-1.09.89-1.81.77h0c-1.58-.25-2.67,1.4-1.68,2.56l6.19,7.26Z"/><path class="cls-11" d="M114.31,85.09l2.6-1.11,6.19,7.26c.98,1.15-.1,2.81-1.68,2.56h0c-.72-.12-1.44.19-1.81.77h0c-.81,1.26-2.89.96-3.22-.48l-2.08-9.01Z"/><path class="cls-11" d="M115.95,80.99l1.21,2.38,9.85-1.9c1.57-.3,1.9-2.21.52-2.95h0c-.63-.34-.97-1-.84-1.66h0c.28-1.44-1.54-2.44-2.8-1.54l-7.94,5.66Z"/><path class="cls-11" d="M112.43,82.48l1.21,2.38-7.94,5.66c-1.26.9-3.07-.1-2.8-1.54h0c.13-.66-.21-1.32-.84-1.66h0c-1.38-.74-1.05-2.65.52-2.95l9.85-1.9Z"/><path class="cls-11" d="M117.11,82.3l-.99,2.47,8.43,5.03c1.34.8,3.05-.33,2.65-1.75h0c-.19-.65.09-1.33.69-1.72h0c1.31-.84.8-2.72-.79-2.9l-9.99-1.13Z"/><path class="cls-11" d="M113.47,81.08l-.99,2.47-9.99-1.13c-1.59-.18-2.1-2.06-.79-2.9h0c.6-.38.87-1.07.69-1.72h0c-.41-1.42,1.31-2.55,2.65-1.75l8.43,5.03Z"/><path class="cls-11" d="M115.48,85.04l-2.7-.9-5.5,7.71c-.87,1.23.36,2.79,1.91,2.42h0c.71-.17,1.46.08,1.88.63h0c.92,1.2,2.97.73,3.17-.72l1.24-9.14Z"/><path class="cls-11" d="M116.81,81.71l-2.7-.9,1.24-9.14c.2-1.45,2.25-1.92,3.17-.72h0c.42.55,1.17.8,1.88.63h0c1.55-.37,2.79,1.19,1.91,2.42l-5.5,7.71Z"/><path class="cls-8" d="M110.66,82.05c-.61,2,.66,4.07,2.85,4.63s4.45-.61,5.06-2.6-.66-4.07-2.85-4.63-4.45.61-5.06,2.6Z"/><path class="cls-2" d="M111.67,82.3c-.45,1.49.49,3.03,2.12,3.44s3.31-.45,3.77-1.94-.49-3.03-2.12-3.44-3.31.45-3.77,1.94Z"/><path class="cls-10" d="M58.55,48.49l3.17-3.1-9.09-12.34c-1.45-1.96-4.78-1.26-5.14,1.08h0c-.17,1.07-1.05,1.93-2.2,2.16h0c-2.53.5-3.06,3.58-.82,4.77l14.09,7.44Z"/><path class="cls-10" d="M63.14,52.4l3.17-3.1,14.09,7.44c2.24,1.18,1.71,4.27-.82,4.77h0c-1.16.23-2.04,1.09-2.2,2.16h0c-.37,2.34-3.7,3.04-5.14,1.08l-9.09-12.34Z"/><path class="cls-10" d="M62.87,45.35l3.39,2.9,13.49-8.31c2.15-1.32,1.38-4.37-1.18-4.7h0c-1.17-.15-2.11-.96-2.36-2.02h0c-.54-2.31-3.92-2.8-5.21-.75l-8.14,12.89Z"/><path class="cls-10" d="M58.59,49.54l3.39,2.9-8.14,12.89c-1.29,2.05-4.67,1.56-5.21-.75h0c-.25-1.06-1.19-1.86-2.36-2.02h0c-2.56-.34-3.32-3.38-1.18-4.7l13.49-8.31Z"/><path class="cls-10" d="M65.48,46.67l.16,4.24,15.97,2.85c2.54.45,4.36-2.19,2.8-4.09h0c-.71-.87-.75-2.04-.11-2.95h0c1.4-1.99-.61-4.51-3.11-3.9l-15.72,3.85Z"/><path class="cls-10" d="M59.22,46.87l.16,4.24-15.72,3.85c-2.5.61-4.51-1.91-3.11-3.9h0c.64-.91.6-2.09-.11-2.95h0c-1.55-1.89.26-4.54,2.8-4.09l15.97,2.85Z"/><path class="cls-10" d="M64.86,51.68l-4.64.15-3.11,14.6c-.5,2.32,2.4,3.98,4.47,2.56h0c.95-.65,2.24-.69,3.23-.1h0c2.17,1.28,4.94-.56,4.27-2.84l-4.21-14.37Z"/><path class="cls-10" d="M64.64,45.95l-4.64.15-4.21-14.37c-.67-2.29,2.09-4.12,4.27-2.84h0c.99.59,2.28.55,3.23-.1h0c2.07-1.42,4.97.24,4.47,2.56l-3.11,14.6Z"/><path class="cls-11" d="M60.31,47.84l2.6-1.11-2.08-9.01c-.33-1.43-2.42-1.74-3.22-.48h0c-.37.58-1.09.89-1.81.77h0c-1.58-.25-2.67,1.4-1.68,2.56l6.19,7.26Z"/><path class="cls-11" d="M61.94,51.05l2.6-1.11,6.19,7.26c.98,1.15-.1,2.81-1.68,2.56h0c-.72-.12-1.44.19-1.81.77h0c-.81,1.26-2.89.96-3.22-.48l-2.08-9.01Z"/><path class="cls-11" d="M63.58,46.95l1.21,2.38,9.85-1.9c1.57-.3,1.9-2.21.52-2.95h0c-.63-.34-.97-1-.84-1.66h0c.28-1.44-1.54-2.44-2.8-1.54l-7.94,5.66Z"/><path class="cls-11" d="M60.06,48.45l1.21,2.38-7.94,5.66c-1.26.9-3.07-.1-2.8-1.54h0c.13-.66-.21-1.32-.84-1.66h0c-1.38-.74-1.05-2.65.52-2.95l9.85-1.9Z"/><path class="cls-11" d="M64.74,48.27l-.99,2.47,8.43,5.03c1.34.8,3.05-.33,2.65-1.75h0c-.19-.65.09-1.33.69-1.72h0c1.31-.84.8-2.72-.79-2.9l-9.99-1.13Z"/><path class="cls-11" d="M61.1,47.05l-.99,2.47-9.99-1.13c-1.59-.18-2.1-2.06-.79-2.9h0c.6-.38.87-1.07.69-1.72h0c-.41-1.42,1.31-2.55,2.65-1.75l8.43,5.03Z"/><path class="cls-11" d="M63.11,51.01l-2.7-.9-5.5,7.71c-.87,1.23.36,2.79,1.91,2.42h0c.71-.17,1.46.08,1.88.63h0c.92,1.2,2.97.73,3.17-.72l1.24-9.14Z"/><path class="cls-11" d="M64.44,47.68l-2.7-.9,1.24-9.14c.2-1.45,2.25-1.92,3.17-.72h0c.42.55,1.17.8,1.88.63h0c1.55-.37,2.79,1.19,1.91,2.42l-5.5,7.71Z"/><path class="cls-8" d="M58.29,48.01c-.61,2,.66,4.07,2.85,4.63s4.45-.61,5.06-2.6-.66-4.07-2.85-4.63-4.45.61-5.06,2.6Z"/><path class="cls-2" d="M59.3,48.27c-.45,1.49.49,3.03,2.12,3.44s3.31-.45,3.77-1.94c.45-1.49-.49-3.03-2.12-3.44s-3.31.45-3.77,1.94Z"/><path class="cls-8" d="M83.7,49.4h0c-1.74,1.59-4.57,1.59-6.31,0l-4.83-4.42c-1.74-1.59-1.74-4.17,0-5.77h0c1.74-1.59,4.57-1.59,6.31,0l4.83,4.42c1.74,1.59,1.74,4.17,0,5.77Z"/><path class="cls-8" d="M83.63,49.48h0c-1.76-.06-3.13-1.41-3.06-3.02l.18-4.38c.07-1.61,1.54-2.86,3.3-2.8h0c1.76.06,3.13,1.41,3.06,3.02l-.18,4.38c-.07,1.61-1.54,2.86-3.3,2.8Z"/><ellipse class="cls-9" cx="82.75" cy="48.24" rx="4.2" ry="2.28" transform="translate(-11.27 29.94) rotate(-19.22)"/><path class="cls-8" d="M93.14,61.03h0c1.13,2,3.82,2.79,6.01,1.76l6.08-2.86c2.19-1.03,3.05-3.49,1.92-5.49h0c-1.13-2-3.82-2.79-6.01-1.76l-6.08,2.86c-2.19,1.03-3.05,3.49-1.92,5.49Z"/><path class="cls-8" d="M93.19,61.12h0c1.69.43,3.45-.47,3.92-2.02l1.29-4.22c.47-1.55-.51-3.15-2.21-3.59h0c-1.69-.43-3.45.47-3.92,2.02l-1.29,4.22c-.47,1.55.51,3.15,2.21,3.59Z"/><ellipse class="cls-9" cx="94.44" cy="60.18" rx="2.33" ry="4.11" transform="translate(-9.28 102.42) rotate(-54.66)"/><path class="cls-8" d="M83.7,70.05h0c-1.74,1.59-4.57,1.59-6.31,0l-4.83-4.42c-1.74-1.59-1.74-4.17,0-5.77h0c1.74-1.59,4.57-1.59,6.31,0l4.83,4.42c1.74,1.59,1.74,4.17,0,5.77Z"/><path class="cls-8" d="M83.63,70.12h0c-1.76-.06-3.13-1.41-3.06-3.02l.18-4.38c.07-1.61,1.54-2.86,3.3-2.8h0c1.76.06,3.13,1.41,3.06,3.02l-.18,4.38c-.07,1.61-1.54,2.86-3.3,2.8Z"/><ellipse class="cls-9" cx="82.75" cy="68.88" rx="4.2" ry="2.28" transform="translate(-18.07 31.09) rotate(-19.22)"/><path class="cls-8" d="M93.14,81.67h0c1.13,2,3.82,2.79,6.01,1.76l6.08-2.86c2.19-1.03,3.05-3.49,1.92-5.49h0c-1.13-2-3.82-2.79-6.01-1.76l-6.08,2.86c-2.19,1.03-3.05,3.49-1.92,5.49Z"/><path class="cls-8" d="M93.19,81.77h0c1.69.43,3.45-.47,3.92-2.02l1.29-4.22c.47-1.55-.51-3.15-2.21-3.59h0c-1.69-.43-3.45.47-3.92,2.02l-1.29,4.22c-.47,1.55.51,3.15,2.21,3.59Z"/><ellipse class="cls-9" cx="94.44" cy="80.83" rx="2.33" ry="4.11" transform="translate(-26.12 111.12) rotate(-54.66)"/><path class="cls-8" d="M88.43,36.2h0c2.35.69,4.86-.49,5.61-2.64l2.08-5.95c.75-2.14-.54-4.44-2.89-5.13h0c-2.35-.69-4.86.49-5.61,2.64l-2.08,5.95c-.75,2.14.54,4.44,2.89,5.13Z"/><path class="cls-8" d="M88.53,36.24h0c1.53-.79,2.07-2.56,1.21-3.96l-2.35-3.82c-.86-1.4-2.8-1.9-4.33-1.11h0c-1.53.79-2.07,2.56-1.21,3.96l2.35,3.82c.86,1.4,2.8,1.9,4.33,1.11Z"/><ellipse class="cls-9" cx="88.69" cy="34.77" rx="4.24" ry="2.25" transform="translate(-2.21 6.27) rotate(-4)"/><rect class="cls-9" x="88.25" y="35.86" width="1.27" height="97.36" rx=".63" ry=".63"/><polygon class="cls-9" points="84.29 48.73 83.02 48.73 88.25 56.54 89.52 56.54 84.29 48.73"/><polygon class="cls-9" points="84.29 69.56 83.02 69.56 88.25 77.37 89.52 77.37 84.29 69.56"/><polygon class="cls-9" points="93.48 59.78 94.75 59.78 89.52 67.59 88.25 67.59 93.48 59.78"/><polygon class="cls-9" points="93.48 80.61 94.75 80.61 89.52 88.42 88.25 88.42 93.48 80.61"/><path class="cls-8" d="M83.7,91.36h0c-1.74,1.59-4.57,1.59-6.31,0l-4.83-4.42c-1.74-1.59-1.74-4.17,0-5.77h0c1.74-1.59,4.57-1.59,6.31,0l4.83,4.42c1.74,1.59,1.74,4.17,0,5.77Z"/><path class="cls-8" d="M83.63,91.44h0c-1.76-.06-3.13-1.41-3.06-3.02l.18-4.38c.07-1.61,1.54-2.86,3.3-2.8h0c1.76.06,3.13,1.41,3.06,3.02l-.18,4.38c-.07,1.61-1.54,2.86-3.3,2.8Z"/><ellipse class="cls-9" cx="82.75" cy="90.19" rx="4.2" ry="2.28" transform="translate(-25.08 32.28) rotate(-19.22)"/><path class="cls-8" d="M93.14,102.98h0c1.13,2,3.82,2.79,6.01,1.76l6.08-2.86c2.19-1.03,3.05-3.49,1.92-5.49h0c-1.13-2-3.82-2.79-6.01-1.76l-6.08,2.86c-2.19,1.03-3.05,3.49-1.92,5.49Z"/><path class="cls-8" d="M93.19,103.08h0c1.69.43,3.45-.47,3.92-2.02l1.29-4.22c.47-1.55-.51-3.15-2.21-3.59h0c-1.69-.43-3.45.47-3.92,2.02l-1.29,4.22c-.47,1.55.51,3.15,2.21,3.59Z"/><ellipse class="cls-9" cx="94.44" cy="102.14" rx="2.33" ry="4.11" transform="translate(-43.51 120.11) rotate(-54.66)"/><path class="cls-5" d="M83.7,112h0c-1.74,1.59-4.57,1.59-6.31,0l-4.83-4.42c-1.74-1.59-1.74-4.17,0-5.77h0c1.74-1.59,4.57-1.59,6.31,0l4.83,4.42c1.74,1.59,1.74,4.17,0,5.77Z"/><path class="cls-5" d="M83.63,112.08h0c-1.76-.06-3.13-1.41-3.06-3.02l.18-4.38c.07-1.61,1.54-2.86,3.3-2.8h0c1.76.06,3.13,1.41,3.06,3.02l-.18,4.38c-.07,1.61-1.54,2.86-3.3,2.8Z"/><ellipse class="cls-9" cx="82.75" cy="110.84" rx="4.2" ry="2.28" transform="translate(-31.88 33.43) rotate(-19.22)"/><path class="cls-5" d="M90.48,123.63h0c1.13,2,3.82,2.79,6.01,1.76l6.08-2.86c2.19-1.03,3.05-3.49,1.92-5.49h0c-1.13-2-3.82-2.79-6.01-1.76l-6.08,2.86c-2.19,1.03-3.05,3.49-1.92,5.49Z"/><path class="cls-5" d="M90.53,123.73h0c1.69.43,3.45-.47,3.92-2.02l1.29-4.22c.47-1.55-.51-3.15-2.21-3.59h0c-1.69-.43-3.45.47-3.92,2.02l-1.29,4.22c-.47,1.55.51,3.15,2.21,3.59Z"/><ellipse class="cls-9" cx="91.78" cy="122.79" rx="2.33" ry="4.11" transform="translate(-61.47 126.64) rotate(-54.66)"/><polygon class="cls-9" points="84.29 90.69 83.02 90.69 88.25 98.5 89.52 98.5 84.29 90.69"/><polygon class="cls-9" points="81.63 111.52 80.36 111.52 85.59 119.33 86.86 119.33 81.63 111.52"/><polygon class="cls-9" points="93.48 101.74 94.75 101.74 89.52 109.55 88.25 109.55 93.48 101.74"/><polygon class="cls-9" points="90.82 122.57 92.08 122.57 86.86 130.38 85.59 130.38 90.82 122.57"/><path class="cls-10" d="M75.29,111.56l2.08-3.79-12.53-9.5c-1.99-1.51-4.97.02-4.6,2.36h0c.17,1.07-.41,2.12-1.45,2.64h0c-2.27,1.13-1.83,4.23.68,4.78l15.81,3.51Z"/><path class="cls-10" d="M80.89,114.13l2.08-3.79,15.81,3.51c2.51.56,2.96,3.65.68,4.78h0c-1.04.52-1.62,1.57-1.45,2.64h0c.37,2.34-2.61,3.87-4.6,2.36l-12.53-9.5Z"/><path class="cls-10" d="M78.46,107.44l4.15,1.9,10.38-11.45c1.65-1.82-.02-4.55-2.58-4.21h0c-1.17.15-2.32-.37-2.89-1.32h0c-1.24-2.08-4.62-1.67-5.23.63l-3.83,14.46Z"/><path class="cls-10" d="M75.65,112.56l4.15,1.9-3.83,14.46c-.61,2.3-4,2.7-5.23.63h0c-.56-.95-1.72-1.48-2.89-1.32h0c-2.56.34-4.23-2.39-2.58-4.21l10.38-11.45Z"/><path class="cls-10" d="M81.38,108.03l1.46,4.03,16.2-1.38c2.58-.22,3.5-3.23,1.43-4.64h0c-.95-.65-1.35-1.77-1.02-2.8h0c.73-2.27-1.97-4.17-4.18-2.94l-13.89,7.75Z"/><path class="cls-10" d="M75.43,109.84l1.46,4.03-13.89,7.75c-2.21,1.23-4.92-.67-4.18-2.94h0c.34-1.04-.07-2.16-1.02-2.8h0c-2.07-1.42-1.15-4.42,1.43-4.64l16.2-1.38Z"/><path class="cls-10" d="M82.32,113l-4.41,1.34,1.51,14.81c.24,2.36,3.53,3.2,5.08,1.31h0c.71-.87,1.93-1.24,3.07-.93h0c2.48.67,4.56-1.8,3.22-3.83l-8.47-12.7Z"/><path class="cls-10" d="M80.35,107.56l-4.41,1.34-8.47-12.7c-1.35-2.02.74-4.5,3.22-3.83h0c1.13.31,2.36-.06,3.07-.93h0c1.55-1.89,4.84-1.05,5.08,1.31l1.51,14.81Z"/><path class="cls-11" d="M76.77,110.49l2.16-1.73-4.77-8.11c-.76-1.29-2.86-1.05-3.24.37h0c-.18.65-.77,1.13-1.5,1.21h0c-1.59.16-2.12,2.03-.82,2.89l8.18,5.37Z"/><path class="cls-11" d="M79.33,113.15l2.16-1.73,8.18,5.37c1.3.85.77,2.72-.82,2.89h0c-.73.08-1.33.56-1.5,1.21h0c-.38,1.42-2.48,1.66-3.24.37l-4.77-8.11Z"/><path class="cls-11" d="M79.64,108.8l1.9,1.97,8.87-4.36c1.41-.69,1.14-2.61-.41-2.96h0c-.71-.16-1.24-.71-1.32-1.37h0c-.18-1.45-2.23-1.94-3.16-.75l-5.87,7.48Z"/><path class="cls-11" d="M76.73,111.14l1.9,1.97-5.87,7.48c-.93,1.19-2.98.7-3.16-.75h0c-.08-.67-.61-1.21-1.32-1.37h0c-1.55-.35-1.82-2.27-.41-2.96l8.87-4.36Z"/><path class="cls-11" d="M81.16,109.76l-.19,2.62,9.64,2.65c1.53.42,2.83-1.11,2-2.36h0c-.38-.57-.33-1.3.13-1.82h0c1-1.14-.07-2.81-1.65-2.58l-9.93,1.49Z"/><path class="cls-11" d="M77.29,109.53l-.19,2.62-9.93,1.49c-1.58.24-2.65-1.43-1.65-2.58h0c.46-.52.51-1.25.13-1.82h0c-.83-1.25.47-2.78,2-2.36l9.64,2.65Z"/><path class="cls-11" d="M80.44,112.81l-2.87-.17-2.9,8.82c-.46,1.4,1.21,2.59,2.58,1.83h0c.63-.35,1.42-.3,1.99.12h0c1.25.91,3.08-.06,2.82-1.51l-1.63-9.08Z"/><path class="cls-11" d="M80.69,109.27l-2.87-.17-1.63-9.08c-.26-1.44,1.56-2.42,2.82-1.51h0c.57.42,1.37.46,1.99.12h0c1.37-.76,3.04.43,2.58,1.83l-2.9,8.82Z"/><ellipse class="cls-8" cx="79" cy="111.13" rx="4.11" ry="3.76"/><ellipse class="cls-2" cx="79" cy="111.13" rx="3.06" ry="2.79"/><polygon class="cls-4" points="116.6 144.23 125.58 114.02 32.69 114.02 41.69 144.23 116.6 144.23"/></svg>