<?xml version="1.0" encoding="utf-8"?><!--Generator: Adobe Illustrator 27.8.0, SVG Export Plug-In . SVG Version: 6.00 Build 0)--><svg version="1.1" id="Ebene_1" xmlns="http://www.w3.org/2000/svg" xmlns:xlink="http://www.w3.org/1999/xlink" x="0px" y="0px" viewBox="0 0 160 160" style="enable-background:new 0 0 160 160;" xml:space="preserve"><style type="text/css">.st0{fill:#006931;}
	.st1{fill:#F7E5CD;}
	.st2{fill:#891229;}
	.st3{fill:#E73245;}
	.st4{fill:#5D2B1A;}
	.st5{fill:#00401E;}</style><path class="st0" d="M84,78.9h-1.9c0-8.7-1.1-16.2-3.4-22.3c-5.2-14.2-18.1-17.9-27.6-16.7C40.7,41.2,29.4,49,27.9,63.5
	c-0.2,2.2-0.4,4.6-0.4,7h-1.9c0-2.5,0.1-4.9,0.4-7.2C27.7,47.8,39.8,39.4,51,38c13.4-1.7,25,5.4,29.6,17.9C82.9,62.3,84,70,84,78.9z
	"/><path class="st0" d="M70.4,78.9h-1.9c0-18,4.8-30.7,14.2-37.8c13.3-10,30.9-5.1,31.6-4.9l-0.5,1.8c-0.2-0.1-17.4-4.9-30,4.6
	C74.9,49.3,70.4,61.5,70.4,78.9z"/><path class="st1" d="M85.6,129.4H60.4c-4.2,0-7.8-3.3-8.1-7.5l-6-80.8h53.4l-6,80.8C93.4,126.1,89.9,129.4,85.6,129.4z"/><path class="st2" d="M27.9,68.1c0,0,14.9,19.4,0.2,33.8c0,0-15.5-10.2-5.1-25.8L27.9,68.1z"/><path class="st3" d="M27.9,68.1c0,0-12.6-1.6-11.9,12.3c0,0-0.1,5.1,0.9,17.9C16.9,98.3,30.8,91.9,27.9,68.1z"/><path class="st2" d="M137.7,129.4c0,0-10.9-13.4-25.2,0L137.7,129.4z"/><path class="st4" d="M117.8,43.7c0,0,5.8,15.9,24.9,8.5c0,0-3-18.3-21.5-15.3L117.8,43.7z"/><path class="st2" d="M112,38.1c0,0,3.7-12.2,16.1-5.8c0,0,4.7,2,15.9,8.1C144,40.4,132.5,50.5,112,38.1z"/><path class="st2" d="M113.4,35.2c0,0-6.9,9.2,4.6,16.6c0,0,4.3,3,15.9,8.1C134,60,135.5,44.6,113.4,35.2z"/><rect x="72.1" y="39.9" class="st0" width="1.9" height="52.9"/><path class="st2" d="M73,90.6c0,0,11.2,13,0,26.1C72.9,116.6,61.9,105.7,73,90.6L73,90.6z"/><path class="st5" d="M105.7,129.4c0-2.8-8.1-5-18.1-5s-18.1,2.2-18.1,5H105.7z"/></svg>