<svg viewBox="0 0 160 160" fill="none" xmlns="http://www.w3.org/2000/svg"><path d="M122.54 107.71H37.46L39.98 69.8101L80 76.8601L120.02 69.8101L122.54 107.71Z" fill="#232144"/><path d="M80 94.9801L16 66.3701V69.8101L80 98.4201L144 69.8101V66.3701L80 94.9801Z" fill="#463EC5"/><path d="M80 37.75L16 66.37L80 94.98L144 66.37L80 37.75Z" fill="#7070FF"/><path d="M114.06 114.25H111.55V81.36L79.5 67.52L80.5 65.21L114.06 79.71V114.25Z" fill="#F7931E"/><path d="M109.08 112.96H116.53V124.17C116.53 126.22 114.87 127.88 112.82 127.88H112.8C110.75 127.88 109.09 126.22 109.09 124.17V112.96H109.08Z" fill="#F7931E"/><rect x="77" y="64" width="5" height="5" fill="#F7931E"/></svg>