<svg viewBox="0 0 160 160" fill="none" xmlns="http://www.w3.org/2000/svg"><path fill-rule="evenodd" clip-rule="evenodd" d="M103.307 20.0586C120.062 29.9496 131.307 48.2346 131.307 69.1556C131.307 100.592 105.917 126.075 74.5971 126.075C66.0279 126.075 57.902 124.167 50.619 120.752" fill="black"/><path fill-rule="evenodd" clip-rule="evenodd" d="M127.627 69.3547C127.627 40.3557 104.206 16.8477 75.3142 16.8477C46.4222 16.8477 23 40.3557 23 69.3547C23 98.3537 46.4222 121.862 75.3142 121.862C104.206 121.862 127.627 98.3537 127.627 69.3547Z" fill="#4B7CFE"/><path fill-rule="evenodd" clip-rule="evenodd" d="M50.2239 75.4204C48.2841 78.1174 48.8839 81.8814 51.5639 83.8374C56.3123 87.3034 60.2816 91.7324 63.2167 96.8364L71.785 111.738C71.785 111.738 73.1828 115.395 74.5687 115.528C75.3269 115.6 76.5623 114.271 76.5623 114.271C76.9688 113.8 77.1013 113.15 76.913 112.556L75.0738 106.764C74.755 105.76 74.9084 104.664 75.4913 103.786L78.0946 99.8694C78.3666 99.4614 78.5479 98.9994 78.6286 98.5154L79.7385 91.8414C79.8132 91.3894 79.9766 90.9574 80.2197 90.5694L82.4375 87.0174C84.1641 84.2534 83.2465 80.6034 80.422 78.9904L58.565 66.5154C57.7829 66.0684 56.7915 66.2854 56.2655 67.0174C55.5621 67.9954 54.1095 67.9904 53.4141 67.0074L52.3729 65.5374C52.0641 65.1004 51.8977 64.5764 51.8977 64.0394C51.8977 64.0394 53.2507 60.8994 51.8977 60.1874C50.9293 59.6794 49.2007 60.9654 49.0472 61.0814C48.4863 61.5044 47.7102 61.4914 47.1622 61.0504L46.0693 60.1704C44.4543 58.8704 44.8568 56.3024 46.7906 55.5614L50.9552 53.9684C51.5629 53.7354 52.2334 53.7324 52.8422 53.9604L53.8554 54.3384C55.4605 54.9374 57.1711 54.0314 57.7291 52.4064C57.9871 51.6544 58.564 51.0544 59.3062 50.7704L76.8672 44.0474C77.6951 43.7314 78.3287 43.0244 78.519 42.1554C79.3151 38.5354 78.2869 34.7564 75.7732 32.0444L75.3926 31.6344C74.8227 31.0184 73.9978 30.7064 73.1639 30.7904L69.366 31.1744C67.9074 31.3214 67.4022 29.2804 68.7602 28.7264L69.886 28.2664C70.4131 28.0514 70.9939 28.0104 71.5449 28.1494L73.7039 28.6904C75.4673 29.1334 77.1491 27.7204 77.0256 25.8994L77.0136 25.7204C76.922 24.3764 75.82 23.3274 74.477 23.3114C69.0282 23.2474 55.6866 23.1084 50.4142 23.2144C50.3116 23.2434 50.2189 23.2684 50.1163 23.2964C41.3866 28.1234 34.1754 35.3704 29.3921 44.1484C29.3433 44.2394 29.2934 44.3294 29.2456 44.4204C28.5791 45.6594 27.9813 46.9394 27.4144 48.2354C27.262 48.5874 27.1016 48.9344 26.9571 49.2894C26.7768 49.7274 26.6373 50.1844 26.4689 50.6274C26.2696 51.5984 26.6273 52.6224 27.4373 53.2304L51.2282 71.0654C51.9953 71.6404 52.1607 72.7264 51.6008 73.5054L50.2239 75.4204Z" fill="#BAC09A"/><path fill-rule="evenodd" clip-rule="evenodd" d="M108.182 37.2196C108.515 38.1166 108.204 39.1266 107.424 39.6786L101.947 43.5536C101.868 43.6156 101.789 43.6786 101.709 43.7416L98.1512 46.8446C97.3821 47.5156 97.2037 48.6456 97.7298 49.5226L98.2887 50.4566C98.9214 51.5096 100.314 51.7996 101.311 51.0836C101.311 51.0836 106.716 45.3206 109.108 45.4876C110.221 45.5656 111.693 47.9556 111.795 49.0726C111.836 49.5146 111.147 50.3756 111.367 50.7966C111.643 51.3236 112.927 51.3696 113.26 51.0276C113.577 50.7016 113.773 49.9816 113.894 49.1766C114.087 47.8876 115.642 47.3516 116.566 48.2676L119.231 50.9096C119.721 51.3956 120.364 51.6956 121.049 51.7606L124.697 52.1036C121.897 44.0096 117.195 36.8286 111.106 31.0826C110.656 31.0616 110.197 31.1716 109.805 31.4366L108.164 32.5476C107.359 33.0916 107.031 34.1186 107.37 35.0306L108.182 37.2196Z" fill="#BAC09A"/><path fill-rule="evenodd" clip-rule="evenodd" d="M125.039 55.5149L111.447 53.8769C110.472 53.7589 109.482 53.8259 108.532 54.0749L98.8357 56.6059C96.0989 57.3209 93.9558 59.4559 93.2235 62.1969L92.9137 63.3579C92.3318 65.5379 92.7074 67.8639 93.9458 69.7469L95.1314 71.5489C96.5591 73.7189 98.9603 75.0439 101.551 75.0899L103.033 75.1159C106.902 75.1839 110.145 78.0699 110.677 81.9169L113.528 102.527C113.541 102.617 113.562 102.702 113.59 102.781C113.854 103.513 114.877 103.602 115.375 103.006C123.004 93.8839 127.627 82.1469 127.627 69.3049C127.627 64.8119 127.014 60.4719 125.951 56.3119C125.842 55.8829 125.476 55.5679 125.039 55.5149Z" fill="#BAC09A"/><path fill-rule="evenodd" clip-rule="evenodd" d="M101.537 37.5562C101.638 38.2332 100.172 39.5492 100.559 40.1142C101.039 40.8162 103.162 40.4162 103.956 40.1142C104.469 39.9192 105.486 39.1942 105.599 38.6562C105.926 37.1162 103.437 33.8922 101.902 33.5702C101.217 33.4272 99.6105 34.2992 99.483 34.9912C99.3345 35.8002 101.416 36.7422 101.537 37.5562Z" fill="#BAC09A"/><path fill-rule="evenodd" clip-rule="evenodd" d="M98.1141 39.6186C98.9301 39.4956 100.744 38.2856 100.624 37.4656C100.525 36.7836 98.7727 36.1596 98.1141 36.3516C97.3849 36.5636 96.2002 38.1576 96.4254 38.8856C96.5619 39.3266 97.6598 39.6876 98.1141 39.6186Z" fill="#BAC09A"/><path fill-rule="evenodd" clip-rule="evenodd" d="M136 69.156C136 47.407 124.384 27.038 105.686 16L100.927 24.119C116.772 33.473 126.614 50.73 126.614 69.156C126.614 97.944 103.279 121.365 74.5975 121.365C66.909 121.365 59.5094 119.723 52.606 116.485L48.6327 125.018C55.3728 128.18 62.5103 130.051 69.9049 130.606V133.958H43.8046V144H107.107V133.958H79.2901V130.587C110.961 128.171 136 101.551 136 69.156Z" fill="#232144"/></svg>