<?xml version="1.0" encoding="UTF-8"?><svg xmlns="http://www.w3.org/2000/svg" version="1.1" viewBox="0 0 160 160"><defs><style>.cls-1, .cls-2 {
        fill: #232144;
      }

      .cls-3 {
        fill: #006931;
      }

      .cls-4 {
        fill: #e6e3da;
      }

      .cls-5 {
        fill: #8f411f;
      }

      .cls-2 {
        fill-rule: evenodd;
      }</style></defs><!--Generator: Adobe Illustrator 28.6.0, SVG Export Plug-In . SVG Version: 1.2.0 Build 709)--><g><g id="phone"><g><polygon class="cls-5" points="82.9 143.9 81.3 120.8 41.7 119.3 41.1 143.9 82.9 143.9"/><path class="cls-5" d="M48.1,63.9c-2.9.1-5.2,2.6-5.3,5.6l-.5,25.1c0,2.6-.3,14.7-.3,14.7l11,.3.9-40c0-3.2-2.5-5.8-5.8-5.6Z"/><path class="cls-5" d="M77.4,87.9h5.4c3,0,5.4,2.4,5.4,5.4v34.8c0,3-2.4,5.4-5.4,5.4h-5.4v-45.7h0Z" transform="translate(103.1 -26) rotate(45.2)"/><polygon class="cls-5" points="41.7 119.3 42.3 94.7 61.2 81.2 90.2 111 70 132.7 41.7 119.3"/><path class="cls-5" d="M117.4,50.9h0c-2.1-2.2-5.5-2.3-7.7-.2l-51.3,48.2,7.4,7.9,51.3-48.2c2.2-2.1,2.3-5.5.2-7.7Z"/><rect class="cls-1" x="51.8" y="16.1" width="52.9" height="108.9" rx="5.6" ry="5.6" transform="translate(156.6 141) rotate(180)"/><rect class="cls-4" x="53.7" y="18.3" width="49.3" height="104.3" rx="3.8" ry="3.8" transform="translate(156.6 141) rotate(180)"/><path class="cls-2" d="M70.4,22.8h15.9c2.5,0,4.5-2,4.5-4.5h0s-7.2,0-7.2,0h-17.7c0,2.5,2,4.5,4.5,4.5Z"/><rect class="cls-4" x="71.5" y="20" width="13.6" height="1.3" transform="translate(156.6 41.2) rotate(180)"/><rect class="cls-5" x="99.7" y="98.7" width="10.8" height="10.1" rx="5.1" ry="5.1" transform="translate(201.1 -8.5) rotate(85.9)"/><rect class="cls-5" x="98.8" y="85.3" width="12.4" height="11.5" rx="5.8" ry="5.8" transform="translate(188.3 -20.1) rotate(85.9)"/><rect class="cls-5" x="97.3" y="70.4" width="12.4" height="11.5" rx="5.8" ry="5.8" transform="translate(172.1 -32.5) rotate(85.9)"/><polygon class="cls-3" points="74.5 84.8 63 68.7 66.1 66.6 74 77.7 89.8 46.5 93.1 48.2 74.5 84.8"/></g></g></g></svg>