<svg viewBox="0 0 160 160" fill="none" xmlns="http://www.w3.org/2000/svg"><path fill-rule="evenodd" clip-rule="evenodd" d="M75.3819 66.4644L84.0467 70.7124L74.8996 89.4984C73.7307 91.8994 70.8437 92.8944 68.4511 91.7214C66.0584 90.5484 65.0659 87.6514 66.2348 85.2504L75.3819 66.4644Z" fill="#7A2F37"/><path fill-rule="evenodd" clip-rule="evenodd" d="M76.4175 74.7104L85.3892 78.2604L77.7448 97.7105C76.7682 100.196 73.968 101.417 71.4906 100.437C69.0133 99.4564 67.7965 96.6465 68.7741 94.1604L76.4175 74.7104Z" fill="#7A2F37"/><path fill-rule="evenodd" clip-rule="evenodd" d="M85.2701 68.5263L86.6343 71.2903L67.9624 80.5683C65.5757 81.7543 62.6838 80.7743 61.5019 78.3793C60.32 75.9853 61.2966 73.0823 63.6833 71.8963L76.4667 65.5443C79.7184 63.9283 83.6597 65.2633 85.2701 68.5263Z" fill="#9E3F39"/><path fill-rule="evenodd" clip-rule="evenodd" d="M97.571 93.4904L75.9324 93.9244L75.8438 65.8184L81.4831 65.9004C83.2589 65.9254 84.9321 67.3354 86.094 69.7834L97.571 93.4904Z" fill="#9E3F39"/><path fill-rule="evenodd" clip-rule="evenodd" d="M97.571 93.4902L99 144H75.9693L79.8956 93.6792L97.571 93.4902Z" fill="#9E3F39"/><path fill-rule="evenodd" clip-rule="evenodd" d="M80.2707 87.5749C78.6643 87.5749 77.3619 86.2679 77.3619 84.6559V61.4849H83.1796V84.6559C83.1796 86.2679 81.8771 87.5749 80.2707 87.5749Z" fill="#F7C7A1"/><path fill-rule="evenodd" clip-rule="evenodd" d="M81.1821 119.823C75.2438 116.452 71.6284 110.081 71.7699 103.236L72.321 76.6369C72.3768 73.9659 74.5762 71.8439 77.2369 71.8939C79.9026 71.9429 82.0232 74.1519 81.9744 76.8269L81.1821 119.823Z" fill="#9E3F39"/><path fill-rule="evenodd" clip-rule="evenodd" d="M90.3184 22.194C89.7563 22.624 89.0618 22.889 88.3004 22.889C86.4509 22.889 84.9531 21.385 84.9531 19.53C84.9531 19.185 85.0199 18.859 85.1155 18.546C84.4479 17.904 84.0283 17.006 84.0253 16.005C83.9885 16.005 83.9516 16 83.9137 16H76.6281C71.7392 16 67.774 19.978 67.774 24.885V59.707C67.774 61.725 69.4043 63.36 71.4153 63.36H89.1265C91.1375 63.36 92.7678 61.725 92.7678 59.707V24.885C92.7678 24.33 92.711 23.789 92.6134 23.263C91.7056 23.22 90.8964 22.821 90.3184 22.194Z" fill="#FFD77B"/><path fill-rule="evenodd" clip-rule="evenodd" d="M74.4968 25.377C74.2377 25.142 74.2187 24.741 74.4529 24.481L77.3987 21.223C77.6328 20.963 78.0324 20.944 78.2915 21.179C78.5496 21.414 78.5696 21.815 78.3344 22.075L75.3887 25.333C75.1545 25.593 74.7549 25.612 74.4968 25.377Z" fill="#FF6200"/><path fill-rule="evenodd" clip-rule="evenodd" d="M76.4945 49.7137C76.7536 49.4787 77.1532 49.4987 77.3874 49.7587L80.3292 53.0207C80.5633 53.2807 80.5434 53.6817 80.2843 53.9167C80.0262 54.1517 79.6266 54.1307 79.3924 53.8717L76.4497 50.6097C76.2155 50.3497 76.2364 49.9487 76.4945 49.7137Z" fill="#ED1E79"/><path fill-rule="evenodd" clip-rule="evenodd" d="M72.5811 44.043C72.322 43.808 72.303 43.406 72.5372 43.147L75.4829 39.889C75.7181 39.629 76.1177 39.61 76.3758 39.845C76.6339 40.08 76.6539 40.481 76.4187 40.74L73.474 43.999C73.2388 44.259 72.8392 44.278 72.5811 44.043Z" fill="#006931"/><path fill-rule="evenodd" clip-rule="evenodd" d="M78.2997 44.9352C78.4392 44.6142 78.8119 44.4672 79.1318 44.6072L83.1498 46.3672C83.4697 46.5072 83.6162 46.8812 83.4767 47.2022C83.3372 47.5222 82.9645 47.6692 82.6446 47.5302L78.6266 45.7702C78.3057 45.6302 78.1602 45.2562 78.2997 44.9352Z" fill="#4B7CFE"/><path fill-rule="evenodd" clip-rule="evenodd" d="M81.2957 27.4558C81.6156 27.5958 81.7621 27.9698 81.6216 28.2908L79.8687 32.3228C79.7292 32.6448 79.3575 32.7908 79.0366 32.6508C78.7177 32.5108 78.5712 32.1368 78.7107 31.8158L80.4636 27.7838C80.6031 27.4628 80.9758 27.3158 81.2957 27.4558Z" fill="#232144"/><path fill-rule="evenodd" clip-rule="evenodd" d="M84.1068 27.9611C84.2464 27.6401 84.6191 27.4931 84.9389 27.6331L88.9569 29.3931C89.2768 29.5331 89.4233 29.9061 89.2838 30.2271C89.1443 30.5481 88.7716 30.6951 88.4517 30.5551L84.4337 28.7961C84.1128 28.6561 83.9673 28.2821 84.1068 27.9611Z" fill="#006931"/><path fill-rule="evenodd" clip-rule="evenodd" d="M86.1306 42.7197C86.4336 42.5447 86.8192 42.6487 86.9936 42.9517L89.186 46.7617C89.3604 47.0657 89.2567 47.4537 88.9548 47.6287C88.6528 47.8037 88.2662 47.6997 88.0918 47.3967L85.8994 43.5857C85.725 43.2827 85.8287 42.8947 86.1306 42.7197Z" fill="#006931"/><path fill-rule="evenodd" clip-rule="evenodd" d="M69.836 31.2745C69.9755 30.9535 70.3482 30.8065 70.6681 30.9465L74.6861 32.7065C75.006 32.8465 75.1525 33.2205 75.013 33.5415C74.8734 33.8615 74.5007 34.0085 74.1809 33.8685L70.1629 32.1095C69.843 31.9695 69.6965 31.5955 69.836 31.2745Z" fill="#ED1E79"/><path fill-rule="evenodd" clip-rule="evenodd" d="M82.71 40.5746C82.3731 40.6646 82.0263 40.4626 81.9366 40.1246L80.8116 35.8726C80.7219 35.5346 80.9222 35.1866 81.259 35.0966C81.5968 35.0066 81.9426 35.2086 82.0323 35.5466L83.1584 39.7986C83.2481 40.1376 83.0468 40.4846 82.71 40.5746Z" fill="#FF6200"/><path fill-rule="evenodd" clip-rule="evenodd" d="M83.9048 24.2074C83.568 24.2974 83.2212 24.0954 83.1315 23.7574L82.0054 19.5054C81.9167 19.1674 82.117 18.8194 82.4539 18.7294C82.7917 18.6394 83.1375 18.8414 83.2272 19.1794L84.3533 23.4314C84.4429 23.7704 84.2416 24.1174 83.9048 24.2074Z" fill="#ED1E79"/><path fill-rule="evenodd" clip-rule="evenodd" d="M73.1496 56.1445C72.8128 56.2345 72.466 56.0325 72.3763 55.6945L71.2502 51.4425C71.1605 51.1035 71.3618 50.7565 71.6997 50.6665C72.0365 50.5765 72.3833 50.7775 72.472 51.1165L73.598 55.3685C73.6877 55.7075 73.4874 56.0545 73.1496 56.1445Z" fill="#FF6200"/><path fill-rule="evenodd" clip-rule="evenodd" d="M87.9185 40.4335C87.5986 40.2935 87.4521 39.9195 87.5916 39.5985L89.3455 35.5665C89.485 35.2455 89.8577 35.0985 90.1776 35.2385C90.4975 35.3785 90.643 35.7525 90.5035 36.0735L88.7506 40.1055C88.6111 40.4265 88.2384 40.5735 87.9185 40.4335Z" fill="#4B7CFE"/><path fill-rule="evenodd" clip-rule="evenodd" d="M85.6455 54.2252C85.3874 53.9902 85.3675 53.5892 85.6017 53.3302L88.5484 50.0712C88.7826 49.8112 89.1822 49.7922 89.4403 50.0272C89.6984 50.2622 89.7183 50.6632 89.4842 50.9232L86.5384 54.1822C86.3032 54.4412 85.9036 54.4602 85.6455 54.2252Z" fill="#232144"/></svg>