<?xml version="1.0" encoding="UTF-8"?><svg xmlns="http://www.w3.org/2000/svg" viewBox="0 0 160 160"><defs><style>.cls-1,.cls-2{fill:#241c4a;}.cls-1,.cls-3{fill-rule:evenodd;}.cls-4{fill:#232144;}.cls-5,.cls-3{fill:#e7e4d7;}.cls-6{fill:#ffb000;}.cls-7{fill:#ff0026;}</style></defs><g id="Phone"><path class="cls-1" d="M143.97,126.7V22.43c0-3.55-2.88-6.43-6.43-6.43h-48.45c-3.55,0-6.43,2.88-6.43,6.43v104.27h61.3Z"/><path class="cls-3" d="M141.86,126.7V22.99c0-2.41-1.95-4.36-4.36-4.36h-48.35c-2.41,0-4.36,1.95-4.36,4.36v103.71h57.08Z"/><path class="cls-2" d="M98.85,18.57h28.9c0,2.9-2.35,5.25-5.25,5.25h-18.39c-2.9,0-5.25-2.35-5.25-5.25h0Z"/><rect class="cls-5" x="105.44" y="19.08" width="15.76" height="1.48"/><ellipse class="cls-7" cx="113.32" cy="90.24" rx="8.14" ry="2.1"/><path class="cls-4" d="M118.74,54.63c0-2.97-2.41-5.42-5.42-5.42s-5.42,2.41-5.42,5.42,2.41,5.42,5.42,5.42,5.42-2.43,5.42-5.42Z"/><path class="cls-4" d="M128.44,54.63c0-8.34-6.8-15.12-15.12-15.12s-15.12,6.8-15.12,15.12,9.74,25.73,15.12,35.58c5.38-9.83,15.12-29.05,15.12-35.58h0ZM104.17,54.63c0-5.07,4.12-9.17,9.17-9.17s9.17,4.12,9.17,9.17-4.12,9.17-9.17,9.17-9.17-4.12-9.17-9.17Z"/></g><g id="Taxi"><path class="cls-6" d="M133.48,115.91l-25.04-3.07c-.54-.07-1.07-.16-1.59-.29,0,0,0,0,0,0,1.05.27-1.72.93-3.18.15-5.33-2.84-9.41-4.65-18.31-9.39-.42-.22,1.3-.33,1.74-.17.06.02.13.05.19.07-3.64-1.35-7.29-2.02-11.49-2.02h-13.73c-2.64,0-5.28.38-7.81,1.14l-22.36,6.67c-.96.29-1.94.48-2.94.59l-8.84.75c-2.32.2-4.13,2.13-4.14,4.46v11.52c0,3.03,1.94,5.72,4.82,6.68l9.65,3.21h111.03c1.04,0,1.89-.74,1.89-1.66v-8.29c0-5.1-4.18-9.47-9.91-10.35Z"/><circle class="cls-2" cx="121.75" cy="133.25" r="10.79"/><circle class="cls-5" cx="121.75" cy="133.25" r="6.55"/><circle class="cls-2" cx="40.29" cy="133.25" r="10.79"/><circle class="cls-5" cx="40.29" cy="133.25" r="6.55"/><rect class="cls-2" x="74.6" y="116.65" width="6.86" height="1"/><rect class="cls-2" x="46.79" y="115.2" width="6.86" height="1"/><path class="cls-2" d="M21.27,114.8h-5.27v3.94h1.58c.55,0,1.08-.22,1.54-.63l2.4-2.14c.39-.35.21-1.17-.26-1.17Z"/><path class="cls-2" d="M71.55,102.69h-8.48c-4.54,0-9.03.92-13.2,2.69l-7.41,3.16c-.66.28-.7,1.2-.07,1.54l1.9,1.04c.95.52,2,.8,3.08.84l24.19.79v-10.06Z"/><path class="cls-2" d="M74.6,112.85l26.47.87-16.09-9.15c-2.17-1.23-4.63-1.88-7.13-1.88h-3.25v10.16Z"/><path class="cls-2" d="M103.67,112.7c-5.33-2.84-9.41-4.65-18.31-9.39-.42-.22,1.3-.33,1.74-.17,5.79,2.05,19.74,9.41,19.74,9.41,1.05.27-1.72.93-3.18.15Z"/><rect class="cls-2" x="141.37" y="125.66" width="2.63" height="5.63"/><path class="cls-2" d="M136.36,118.1h3.98v.99c0,2.11-1.71,3.82-3.82,3.82h-3.98v-.99c0-2.11,1.71-3.82,3.82-3.82Z"/><rect class="cls-2" x="60.91" y="122.79" width="2.87" height="2.87"/><rect class="cls-2" x="66.65" y="122.79" width="2.87" height="2.87"/><rect class="cls-2" x="72.4" y="122.79" width="2.87" height="2.87"/><rect class="cls-2" x="78.15" y="122.79" width="2.87" height="2.87"/><rect class="cls-2" x="83.9" y="122.79" width="2.87" height="2.87"/><rect class="cls-2" x="89.64" y="122.79" width="2.87" height="2.87"/><rect class="cls-2" x="95.39" y="122.79" width="2.87" height="2.87"/><rect class="cls-2" x="101.14" y="122.79" width="2.87" height="2.87"/><rect class="cls-2" x="58.03" y="125.66" width="2.87" height="2.87"/><rect class="cls-2" x="63.78" y="125.66" width="2.87" height="2.87"/><rect class="cls-2" x="69.53" y="125.66" width="2.87" height="2.87"/><rect class="cls-2" x="75.27" y="125.66" width="2.87" height="2.87"/><rect class="cls-2" x="81.02" y="125.66" width="2.87" height="2.87"/><rect class="cls-2" x="86.77" y="125.66" width="2.87" height="2.87"/><rect class="cls-2" x="92.52" y="125.66" width="2.87" height="2.87"/><rect class="cls-2" x="98.26" y="125.66" width="2.87" height="2.87"/><path class="cls-6" d="M62.7,96.06h16.59c.49,0,.89.4.89.89v4.6h-18.36v-4.6c0-.49.4-.89.89-.89Z"/><path class="cls-2" d="M65.95,97.65v2.68c0,.06-.03.09-.09.09h-.39c-.06,0-.09-.03-.09-.09v-2.68h-.75c-.06,0-.09-.03-.09-.09v-.29c0-.06.03-.09.09-.09h2.07c.06,0,.09.03.09.09v.29c0,.06-.03.09-.09.09h-.75Z"/><path class="cls-2" d="M70.33,99.64h-1.16l-.22.7c-.02.06-.05.09-.12.09h-.38c-.06,0-.09-.03-.06-.1l1.06-3.05c.02-.06.05-.08.13-.08h.37c.08,0,.11.02.13.08l1.1,3.06c.02.05,0,.09-.06.09h-.41c-.07,0-.1-.02-.12-.09l-.23-.7ZM69.32,99.19h.87l-.05-.15c-.16-.47-.29-.89-.38-1.2-.09.3-.24.76-.39,1.19l-.05.15Z"/><path class="cls-2" d="M73.3,99.42c.18-.29.32-.52.43-.68-.09-.15-.26-.43-.44-.73l-.43-.73s0-.09.05-.09h.41c.08,0,.11.01.15.08l.31.53c.1.18.22.39.29.53.06-.13.18-.35.28-.53l.3-.53c.03-.06.07-.08.15-.08h.39c.06,0,.08.04.04.09l-.57.96c-.11.18-.22.37-.32.52.08.13.23.36.38.62l.56.95c.03.05,0,.1-.05.1h-.42c-.08,0-.12-.02-.15-.08l-.39-.68c-.09-.15-.2-.35-.27-.48l-.26.47-.38.69c-.03.06-.07.08-.15.08h-.38c-.06,0-.09-.04-.05-.1l.54-.9Z"/><path class="cls-2" d="M76.95,100.42c-.06,0-.09-.03-.09-.09v-3.06c0-.06.03-.09.09-.09h.39c.06,0,.09.03.09.09v3.06c0,.06-.03.09-.09.09h-.39Z"/></g></svg>