<?xml version="1.0" encoding="utf-8"?><!--Generator: Adobe Illustrator 28.0.0, SVG Export Plug-In . SVG Version: 6.00 Build 0)--><svg version="1.1" xmlns="http://www.w3.org/2000/svg" xmlns:xlink="http://www.w3.org/1999/xlink" x="0px" y="0px" viewBox="0 0 160 160" style="enable-background:new 0 0 160 160;" xml:space="preserve"><style type="text/css">.st0{fill:#232144;}
	.st1{fill:#E6E3DA;}
	.st2{fill:#006931;}
	.st3{fill:#F7931E;}
	.st4{fill:#E73245;}</style><g id="Design"><polygon class="st0" points="18.1,80.8 79.9,16 141.7,80.8 	"/><polygon class="st1" points="29.5,144 29.5,81.2 79.9,27 130.4,81.2 130.4,144 	"/><rect x="101.9" y="108" class="st0" width="18.6" height="35.9"/><path class="st2" d="M141.9,134.7c0,0.1,0,0.3,0,0.4"/><path class="st2" d="M138.6,134.7c0,0.1,0,0.3,0,0.4"/><polygon class="st2" points="67.1,74.1 79.9,64.6 92.6,74.1 92.6,110.7 92.6,144 79.9,144 67.1,144 67.1,110.7 	"/><polygon class="st3" points="41.6,93 54.3,83.7 67.1,93 67.1,118.5 67.1,144 54.3,144 41.6,144 41.6,118.5 	"/><polygon class="st4" points="16,112.3 28.8,102.5 41.5,112.3 41.5,125.6 41.5,144 28.8,144 16,144 16,125.6 	"/></g><g id="stramien"/></svg>