<?xml version="1.0" encoding="UTF-8"?><svg xmlns="http://www.w3.org/2000/svg" version="1.1" viewBox="0 0 160 160"><defs><style>.cls-1 {
        fill: #232144;
      }

      .cls-2 {
        fill: #e6e3da;
      }

      .cls-3 {
        fill: #fff;
      }

      .cls-4 {
        fill: #ff6200;
      }</style></defs><!--Generator: Adobe Illustrator 28.6.0, SVG Export Plug-In . SVG Version: 1.2.0 Build 709)--><g><g id="cat"><path class="cls-1" d="M120.6,107.2h-18.3c-.9-5.5-6-9.7-12.3-9.7s-2.4.2-3.5.5c-4.7-6.4-12.6-10.6-21.7-10.6-12.9,0-23.6,8.6-25.6,19.8h-20.9c-1.3,0-2.3.9-2.3,2.1v.2c0,1.2,1,2.1,2.3,2.1h102.2c1.3,0,2.3-.9,2.3-2.1v-.2c0-1.2-1-2.1-2.3-2.1Z"/><polygon class="cls-1" points="101.3 105 101.3 95.9 96.5 101.1 101.3 105"/><polygon class="cls-1" points="91.4 93 91.4 100.3 86.3 99.2 91.4 93"/><ellipse class="cls-3" cx="96.7" cy="104.8" rx=".8" ry="2.1" transform="translate(-10.5 198.9) rotate(-88.6)"/><ellipse class="cls-1" cx="95.7" cy="104.8" rx=".7" ry=".5" transform="translate(-24.3 180.5) rotate(-79.8)"/><ellipse class="cls-3" cx="91.5" cy="103" rx=".9" ry="2.1" transform="translate(-44.4 126) rotate(-58)"/><ellipse class="cls-1" cx="90.5" cy="102.4" rx=".8" ry=".5" transform="translate(-45.5 89.3) rotate(-43)"/><ellipse class="cls-4" cx="136.7" cy="109.1" rx="2.9" ry="2.6"/></g><g id="dresser"><polygon class="cls-2" points="107.8 53.2 107.8 101.3 107.8 106 107.8 111.7 112.3 111.7 112.3 106 139.5 106 139.5 111.7 144 111.7 144 106 144 101.3 144 53.2 107.8 53.2"/></g><g id="_x34_04"><g><path class="cls-4" d="M34.9,68.3h7.9v-6.2c0-.4.2-.4.6-.4h1.8c.4,0,.6,0,.6.4v6.2h2.8c.4,0,.5.2.5.5v1.2c0,.3,0,.5-.5.5h-2.8v5.9c0,.4-.2.4-.6.4h-1.8c-.4,0-.6,0-.6-.4v-5.9h-10.7c-.4,0-.5-.2-.5-.5v-.5c0-.8.1-1.3.5-2l6.9-14.1c.1-.3.3-.4.7-.4h2.1c.4,0,.5.2.4.5l-7.2,14.8Z"/><path class="cls-4" d="M52.4,65.5c0-8.3,3.4-12.8,9-12.8s8.4,3.6,8.4,11.7-3.3,12.8-9,12.8-8.4-3.8-8.4-11.7ZM66.9,64.5c0-6.3-2-9.7-5.7-9.7s-6,3.5-6,10.4,1.9,9.8,5.6,9.8,6-3.7,6-10.5Z"/><path class="cls-4" d="M76.1,68.3h7.9v-6.2c0-.4.2-.4.6-.4h1.8c.4,0,.6,0,.6.4v6.2h2.8c.4,0,.5.2.5.5v1.2c0,.3,0,.5-.5.5h-2.8v5.9c0,.4-.2.4-.6.4h-1.8c-.4,0-.6,0-.6-.4v-5.9h-10.7c-.4,0-.5-.2-.5-.5v-.5c0-.8.1-1.3.5-2l6.9-14.1c.1-.3.3-.4.7-.4h2.1c.4,0,.5.2.4.5l-7.2,14.8Z"/></g></g></g></svg>