<?xml version="1.0" encoding="UTF-8"?><svg id="Design" xmlns="http://www.w3.org/2000/svg" viewBox="0 0 160 160"><defs><style>.cls-1{fill:#aacde5;}.cls-1,.cls-2,.cls-3,.cls-4,.cls-5,.cls-6,.cls-7,.cls-8{stroke-width:0px;}.cls-2{fill:#d8cbc5;}.cls-3{fill:#5a829d;}.cls-4{fill:#ff6200;}.cls-5{fill:#e6e3da;}.cls-6{fill:#cfe4f4;}.cls-7{fill:#e73245;}.cls-8{fill:#fff;}</style></defs><path class="cls-6" d="M80,15.99h0c21.42,0,38.81,17.39,38.81,38.81v22.3H41.19v-22.3c0-21.42,17.39-38.81,38.81-38.81Z"/><ellipse class="cls-1" cx="97.74" cy="33.45" rx="6.82" ry="17.21" transform="translate(11.04 89.61) rotate(-51.82)"/><rect class="cls-4" x="55.8" y="36.39" width="48.39" height="30.64" rx="2.38" ry="2.38" transform="translate(-.05 .08) rotate(-.06)"/><path class="cls-8" d="M63.08,50.05h-2.56v1.08c0,.36.21.64.47.64h2.09v-1.72h0Z"/><path class="cls-8" d="M67.77,50.05h-2.51v1.71h2.06c.25,0,.46-.29.46-.64v-1.07h0Z"/><rect class="cls-8" x="65.7" y="48.52" width="2.07" height="1.36"/><rect class="cls-8" x="60.52" y="48.52" width="2.07" height="1.36"/><rect class="cls-8" x="63.24" y="46.61" width="1.85" height=".7"/><rect class="cls-8" x="63.24" y="51.1" width="1.85" height=".67"/><path class="cls-8" d="M65.26,48.35h2.51v-1.1c0-.36-.2-.64-.46-.64h-2.05v1.74h0Z"/><path class="cls-8" d="M63.08,46.61h-2.1c-.26,0-.47.29-.47.65v1.1h2.56v-1.74Z"/><polygon class="cls-8" points="62.75 51.02 62.75 47.39 65.54 47.39 65.55 51.01 62.75 51.02"/><path class="cls-4" d="M62.6,51.1v-3.79s3.09,0,3.09,0v3.79s-3.09,0-3.09,0ZM62.78,47.47v3.46h2.73v-3.46h-2.73Z"/><path class="cls-8" d="M69.83,50.5s-.09-.02-.12-.05c-.07-.07-.07-.18,0-.25.55-.55.55-1.44,0-1.99-.07-.07-.07-.18,0-.25s.18-.07.25,0c.68.68.68,1.8,0,2.49-.03.03-.08.05-.12.05h0Z"/><path class="cls-8" d="M70.57,50.82s-.09-.02-.12-.05c-.07-.07-.07-.18,0-.25.72-.72.72-1.89,0-2.61-.07-.07-.07-.18,0-.25s.18-.07.25,0c.86.86.86,2.25,0,3.11-.03.03-.08.05-.12.05h0Z"/><path class="cls-8" d="M71.31,51.13s-.09-.02-.12-.05c-.07-.07-.07-.18,0-.25.43-.43.67-1.01.67-1.62s-.24-1.19-.67-1.62c-.07-.07-.07-.18,0-.25s.18-.07.25,0c.5.5.78,1.17.78,1.87s-.28,1.37-.78,1.87c-.03.03-.08.05-.12.05h0Z"/><path class="cls-8" d="M72.14,51.42s-.09-.02-.12-.05c-.07-.07-.07-.18,0-.25.98-.98.98-2.85,0-3.84-.07-.07-.07-.18,0-.25s.18-.07.25,0c1.11,1.11,1.11,3.22,0,4.33-.03.03-.08.05-.12.05h0Z"/><ellipse class="cls-3" cx="80" cy="72.94" rx="23.47" ry="9.33"/><rect class="cls-2" x="41.19" y="77.1" width="77.61" height="66.9"/><rect class="cls-2" x="60.27" y="87.1" width="39.47" height="17.7"/><path class="cls-5" d="M100.29,105.36h-40.58v-18.82h40.58v18.82ZM60.83,104.24h38.35v-16.59h-38.35v16.59Z"/><rect class="cls-5" x="74.15" y="79.22" width="11.7" height="33.47" transform="translate(175.95 15.95) rotate(90)"/><polygon class="cls-7" points="144 77.3 16 134.77 16 135.87 144 78.4 144 77.3"/><polygon class="cls-7" points="144 142.59 16 16 16 17.41 144 144 144 142.59"/><polygon class="cls-7" points="16 116.19 16 117.46 144 17.28 144 16.01 16 116.19"/></svg>