<svg xmlns="http://www.w3.org/2000/svg" viewBox="0 0 722 721" xml:space="preserve"><style type="text/css">.st0{fill:#FFFFFF;}
	.st1{fill:#E91A2F;}</style><g><path class="st1" d="M497.72,32.6l-274.03,0.22L29.54,226.2l0.07,275.89l194.06,190.99l274.26,0.32l194.13-190.73l0.24-276.64
		L497.72,32.6z M684.28,499.83l-1.59,1.56L494.74,686.07l-2.18,0l-265.61-0.3L37.46,499.26l-0.07-269.4L226.98,41.02l267.55-0.2
		L684.52,229.7L684.28,499.83z"/><polygon class="st1" points="231.38,51.66 48.03,234.28 48.1,494.8 231.32,675.13 490.4,675.43 673.64,495.36 673.88,234.13
		490.15,51.47 	"/></g><g><path d="M210.14,256.48v-5.76c0-12.25-5.58-13.1-26.2-13.1c-23.76,0-27.85,3.35-27.85,24.08v23.38
		c0.17,21.12,3.13,25.19,27.85,25.19c19.01,0,27.51-0.53,27.51-15.64v-5.75h23.56v6.9c0.52,31.84-20.62,30.71-51.07,31.84
		c-43.25,1.4-50.93-10.88-51.42-41.71V261.7c0-33.81,15.22-41.4,51.42-41.4c30.63,0,48.15,0.12,49.77,30.43v5.76H210.14z"/><path d="M272.02,306.77l-7.72,20h-24.4l40.79-105.64h34.71l41.59,105.64h-23.9l-8.04-20H272.02z M298.68,236.61h-0.34l-20.94,54.8
		h42.42L298.68,236.61z"/><path d="M390.05,291.83v34.94h-23.57V221.12h62.72c26.86,0.56,37.16,7.75,37.16,31.69c0,15.63-0.95,27.04-21.74,29.71v0.58
		c16.69,1.27,20.79,9.03,20.79,23.92v19.74h-23.58v-19.74c0-8.86-4.26-15.05-15.55-15.2H390.05z M421.14,274.51
		c17.4,0,21.65-2.96,21.65-18.44c0-14.91-3.12-17.6-19.99-17.6h-32.76v36.04H421.14z"/><path d="M484.86,221.12h58.62c33.89,0,48.3,10.58,48.3,39.3v24.93c0,21.95-7.18,41.4-44.36,41.4h-62.56V221.12z M547.42,309.43
		c15.87,0,20.82-12.26,20.82-24.07v-24.93c0-17.59-6.73-21.96-24.76-21.96h-35.04v70.96H547.42z"/></g><g><path d="M173.38,432.11v4.95c0,12.09,6.07,12.95,27.85,12.95c21.45,0,24.39-3.39,24.39-15.66c0-15.04-9.34-13.07-27.68-13.92
		c-26.53-1.4-47.51-0.57-47.51-31.27c0-28.98,21.32-29.86,50.79-29.86c25.05,0,45.52,0.72,45.52,28.46v3.38h-23.58v-3.38
		c0-11.41-5.42-11.85-21.95-11.85c-23.42,0-27.2,1.97-27.2,13.25c0,12.96,3.12,13.4,27.04,14.63c37.83,2.01,48.13,3.67,48.13,30.56
		c0,29.72-16.37,32.26-47.97,32.26c-27.2,0-51.43,0.71-51.43-29.55v-4.95H173.38z"/><path d="M314.53,465.77h-23.6v-88.29H254.9v-17.3h95.67v17.3h-36.03V465.77z"/><path d="M461.39,397.91v28.44c0,33.8-15.23,40.27-52.4,40.27c-37.99,0-51.93-5.63-51.93-40.27v-28.44
		c0-32.8,12.94-38.61,51.93-38.61C444.35,359.3,461.39,363.97,461.39,397.91z M380.66,397.91v28.44c0,20.97,4.77,22.94,28.33,22.94
		c21.47,0,28.83-2.53,28.83-22.94v-28.44c0.5-19.87-7.88-21.27-28.83-21.27C383.62,376.64,381.16,381.14,380.66,397.91z"/><path d="M476.92,360.18h54.37c32.9,0,43.73,6.75,43.73,36.32c0,29.85-11.63,35.05-43.73,35.05h-30.8v34.23h-23.57V360.18z
		 M531.29,414.23c16.88-0.27,20.13-2.97,20.13-17.73c0-14.94-2.42-19.17-20.13-19.01h-30.8v36.75H531.29z"/></g><g><path class="st0" d="M297.79,514.32c2.6-18.63,11.82-20.49,15.93-20.49c6.55,0,10.91,6.45,9.42,17.07
		c-1.47,10.24-6.52,14.54-12.78,19.09l-4.37,3.26c-5.76,4.29-7.53,8.75-8.03,10.96h20.5l-0.94,6.73h-25.85
		c1.94-11.86,6.39-18.17,12.05-22.66l5.63-4.38c4.5-3.5,7.73-5.83,8.77-13.31c0.66-4.55-0.47-10.31-6.02-10.31
		c-7.16,0-8.89,10.06-9.59,14.04H297.79z"/><path class="st0" d="M344.64,537.07l-1.96,13.87h-4.72l1.95-13.87h-16.49l0.98-7.01l22.37-36.23h3.94l-5.21,37.05h5.53l-0.86,6.19
		H344.64z M328.64,530.88h12.14l3.63-25.92h-0.12L328.64,530.88z"/><path class="st0" d="M362.28,552.49h-3.61l21.82-61.42h3.54L362.28,552.49z"/><path class="st0" d="M382.23,514.32c2.6-18.63,11.85-20.49,15.9-20.49c6.56,0,10.93,6.45,9.44,17.07
		c-1.43,10.24-6.5,14.54-12.8,19.09l-4.36,3.26c-5.74,4.29-7.5,8.75-8.03,10.96h20.52l-0.95,6.73h-25.84
		c1.94-11.86,6.35-18.17,12.03-22.66l5.62-4.38c4.52-3.5,7.74-5.83,8.79-13.31c0.65-4.55-0.49-10.31-6.02-10.31
		c-7.14,0-8.87,10.06-9.6,14.04H382.23z"/><path class="st0" d="M429.08,537.07l-1.95,13.87h-4.74l1.94-13.87h-16.5l1.01-7.01l22.34-36.23h3.93l-5.16,37.05h5.52l-0.88,6.19
		H429.08z M413.1,530.88h12.13l3.62-25.92h-0.11L413.1,530.88z"/></g></svg>