<svg viewBox="0 0 160 160" fill="none" xmlns="http://www.w3.org/2000/svg"><path fill-rule="evenodd" clip-rule="evenodd" d="M94.7024 100.009L78.3934 85.6792L83.1784 80.2412L99.4874 94.5706L94.7024 100.009Z" fill="#FF6200"/><path fill-rule="evenodd" clip-rule="evenodd" d="M131.038 136.926L88.0341 96.7384L95.3391 88.4365L141.131 125.313C144.543 128.061 144.976 133.097 142.082 136.386C139.212 139.648 134.212 139.891 131.038 136.926Z" fill="#FF6200"/><path fill-rule="evenodd" clip-rule="evenodd" d="M82.4447 84.088C69.2057 99.1338 46.2677 100.606 31.2107 87.3765C16.1547 74.1474 14.6817 51.2264 27.9207 36.1805C41.1597 21.1357 64.0977 19.6628 79.1537 32.892C94.2107 46.1211 95.6837 69.0421 82.4447 84.088Z" fill="white"/><path fill-rule="evenodd" clip-rule="evenodd" d="M55.2296 26.7334C54.5026 26.7334 53.7726 26.7564 53.0396 26.8034C44.1306 27.3759 35.9776 31.38 30.0826 38.08C24.1866 44.779 21.2556 53.3727 21.8276 62.2751C22.3996 71.1774 26.4076 79.3254 33.1116 85.216C39.4486 90.7839 47.3226 93.5169 55.1626 93.5179C64.4466 93.5189 73.6846 89.6867 80.2826 82.1883C92.4526 68.3585 91.0936 47.2132 77.2526 35.0523C71.0996 29.6453 63.3496 26.7334 55.2296 26.7334ZM55.1586 99.2676C45.9676 99.2676 36.7396 96.064 29.3106 89.5358C21.4506 82.6309 16.7536 73.08 16.0826 62.6438C15.4116 52.2075 18.8476 42.135 25.7586 34.2808C40.0246 18.0689 64.8306 16.477 81.0546 30.7315C97.2786 44.9869 98.8726 69.7745 84.6066 85.9874C76.8726 94.7759 66.0416 99.2676 55.1586 99.2676Z" fill="#463EC5"/><path fill-rule="evenodd" clip-rule="evenodd" d="M58.0123 34.3799C70.7303 34.3799 81.0413 44.6822 81.0413 57.3918L58.0123 34.3799Z" fill="white"/><path fill-rule="evenodd" clip-rule="evenodd" d="M83.9196 57.3917H78.1626C78.1626 46.2889 69.1236 37.2566 58.0126 37.2566V31.5039C72.2976 31.5039 83.9196 43.1173 83.9196 57.3917Z" fill="#463EC5"/></svg>