<?xml version="1.0" encoding="utf-8"?><!--Generator: Adobe Illustrator 27.8.0, SVG Export Plug-In . SVG Version: 6.00 Build 0)--><svg version="1.1" id="Ebene_1" xmlns="http://www.w3.org/2000/svg" xmlns:xlink="http://www.w3.org/1999/xlink" x="0px" y="0px" viewBox="0 0 160 160" style="enable-background:new 0 0 160 160;" xml:space="preserve"><style type="text/css">.st0{fill:#00401E;}
	.st1{fill:#006931;}
	.st2{fill:#FFFFFF;}
	.st3{fill:#232144;}
	.st4{fill:none;}
	.st5{display:none;fill-rule:evenodd;clip-rule:evenodd;fill:#232144;}</style><path class="st0" d="M114.4,72.3l8.7,10.2l18.6-15.9c2.8-2.4,3.1-6.6,0.7-9.5v0c-2.4-2.8-6.6-3.1-9.5-0.7L114.4,72.3z"/><path class="st0" d="M52.5,80.7L40.8,74L53,52.8c1.8-3.2,5.9-4.3,9.2-2.5l0,0c3.2,1.8,4.3,5.9,2.5,9.2L52.5,80.7z"/><path class="st1" d="M49.9,75.4l-11.6,6.7L26.1,61c-1.9-3.2-0.8-7.3,2.5-9.2l0,0c3.2-1.9,7.3-0.8,9.2,2.5L49.9,75.4z"/><path class="st1" d="M115.3,75.4l11.6,6.7L139.1,61c1.9-3.2,0.8-7.3-2.5-9.2l0,0c-3.2-1.9-7.3-0.8-9.2,2.5L115.3,75.4z"/><path class="st1" d="M34.1,108.5L34.1,108.5c8.9-3.2,13.6-13,10.4-21.9l-3.3-9.4L25,83c-7.1,2.5-10.7,10.2-8.2,17.3l0,0
	C19.3,107.3,27,111,34.1,108.5z"/><path class="st1" d="M83.9,115.8L83.9,115.8c-20.5,0-38.8-13-45.6-32.4l-3-8.6h97.2l-3,8.6C122.8,102.8,104.5,115.8,83.9,115.8z"/><path class="st0" d="M132.1,78.9h-96c-1.9,0-3.5-1.6-3.5-3.5v0c0-1.9,1.6-3.5,3.5-3.5h96c1.9,0,3.5,1.6,3.5,3.5v0
	C135.6,77.3,134,78.9,132.1,78.9z"/><circle class="st2" cx="22.5" cy="102" r="3.2"/><circle class="st3" cx="21.8" cy="102.9" r="1.3"/><path class="st4" d="M104.1,101.8l-6.4-19.9h23.4l0.9,15.3c0.8-1.1,1.6-2.2,2.4-3.3l-0.5-12.1h6.2l2.5-7.2H35.3l2.5,7.2h5.9
	l-0.5,11.5c0.7,1.1,1.5,2.3,2.3,3.3l0.8-14.9h23.4l-6.4,19.9H50c0.8,0.8,1.6,1.5,2.4,2.2h12.4l15.6,11.6c1.2,0.1,2.3,0.1,3.5,0.1h0
	c1,0,2.1,0,3.1-0.1l15.7-11.6h12.7c0.8-0.7,1.6-1.5,2.4-2.2H104.1z M83.6,114.8l-17.3-12.6l6.6-20.3h21.4l6.6,20.3L83.6,114.8z"/><polygon class="st0" points="72.9,81.9 66.3,102.2 83.6,114.8 100.8,102.2 94.2,81.9 "/><path class="st0" d="M97.7,81.9l6.4,19.9h13.8c1.4-1.4,2.8-3,4.1-4.6l-0.9-15.3H97.7z"/><path class="st0" d="M87,115.7c10.7-0.7,20.6-4.8,28.4-11.6l-12.7,0L87,115.7z"/><path class="st0" d="M69.8,81.9H46.4l-0.8,14.9c1.4,1.8,2.8,3.5,4.4,5h13.4L69.8,81.9z"/><path class="st0" d="M52.4,104.1c7.7,6.7,17.5,10.8,28,11.6l-15.6-11.6H52.4z"/><path class="st0" d="M37.8,81.9l0.5,1.5c1.3,3.6,2.9,7,4.9,10.1l0.5-11.5H37.8z"/><path class="st0" d="M124.3,94c2.1-3.2,3.9-6.8,5.2-10.6l0.5-1.5h-6.2L124.3,94z"/></svg>