<svg viewBox="0 0 160 160" fill="none" xmlns="http://www.w3.org/2000/svg"><g clip-path="url(#clip0_631_3102)"><path d="M70.32 73.9503H54.27V96.9603H58.31C59.58 96.9603 60.8 95.8403 61.65 93.8703L70.32 73.9503Z" fill="#7A2F37"/><path d="M82.32 68.9004L69.87 54.0304L69.72 54.1504C68.01 49.9504 63.89 47.0004 59.08 47.0004H54.01V47.2204L45.17 47.1804C42.3 47.1704 39.56 49.0904 37.61 52.4804L17.94 86.6804L16.73 144.02H50.72L43.79 86.7904L54.1 86.8304L54.14 77.8604H70.56V75.9204L71.94 77.5704C74.33 80.4304 78.59 80.8104 81.45 78.4204C84.31 76.0304 84.69 71.7704 82.3 68.9104L82.32 68.9004Z" fill="#9E3F39"/><path d="M102.96 58.6897L64.83 22.5297L67.55 22.2497C69.66 22.0397 71.76 22.6897 73.37 24.0497L101.92 48.2497L105.62 56.3697L102.96 58.6897Z" fill="#D8CBC5"/><path d="M129.15 86.0096C130.45 84.6296 131.14 82.8296 131.09 80.9396C131.04 79.0496 130.25 77.2896 128.87 75.9796L106 54.4996L102.08 58.6896L109.59 65.7196L107.26 73.1896C106.53 75.5196 106.48 77.9996 107.09 80.3596C107.49 81.8896 108.16 83.3196 109.07 84.5996C109.56 85.2896 110.12 85.9396 110.75 86.5296C115.97 91.4596 124.22 91.2296 129.16 86.0096H129.15ZM119.89 84.3496C117.94 84.3996 116.09 83.6996 114.68 82.3596C112.67 80.4596 111.91 77.5296 112.73 74.8996L114.24 70.0696L117.11 72.7596L124.93 80.1496C125.48 80.6696 125.5 81.5296 124.98 82.0696C123.64 83.4796 121.84 84.2896 119.89 84.3496Z" fill="#232144"/><path d="M40.0113 73.5251L70.6578 85.0444C72.2191 85.6312 73.9605 84.8413 74.5473 83.28L93.9725 31.6002C94.5593 30.0389 93.7694 28.2976 92.2081 27.7107L61.5616 16.1914C60.0003 15.6046 58.2589 16.3945 57.6721 17.9558L38.2469 69.6356C37.6601 71.1969 38.45 72.9382 40.0113 73.5251Z" fill="#FF6200"/><path d="M75.64 31.8197L76.78 28.7897L75.5 28.3097C75.08 28.1497 74.65 28.2697 74.53 28.5797L73.6 31.0597L75.63 31.8297L75.64 31.8197Z" fill="#F2F2F2"/><path d="M73.5499 37.3798L74.6699 34.4098L72.6399 33.6398L71.7299 36.0798C71.6199 36.3798 71.8699 36.7498 72.2899 36.9098L73.5599 37.3898L73.5499 37.3798Z" fill="#F2F2F2"/><path d="M74.6769 34.9936L73.749 37.4545L75.3584 38.0613L76.2863 35.6005L74.6769 34.9936Z" fill="#F2F2F2"/><path d="M76.9861 28.8593L76.0582 31.3202L77.6676 31.927L78.5955 29.4662L76.9861 28.8593Z" fill="#F2F2F2"/><path d="M78.796 33.2426L77.9739 35.4227L78.7973 35.7332L79.6194 33.5531L78.796 33.2426Z" fill="#F2F2F2"/><path d="M73.5269 31.2538L72.7048 33.434L73.5002 33.7339L74.3222 31.5537L73.5269 31.2538Z" fill="#F2F2F2"/><path d="M76.6799 35.1598L75.5599 38.1298L76.8699 38.6198C77.2899 38.7798 77.7199 38.6598 77.8299 38.3598L78.7399 35.9298L76.6799 35.1498V35.1598Z" fill="#F2F2F2"/><path d="M79.7099 33.3497L80.6399 30.8697C80.7499 30.5697 80.5099 30.1897 80.0899 30.0297L78.7899 29.5397L77.6499 32.5697L79.7099 33.3497Z" fill="#F2F2F2"/><path d="M74.6399 30.9998L78.9399 32.6098L77.6899 35.9298L73.3999 34.3198L74.6399 30.9998Z" fill="#F2F2F2"/><path d="M74.61 30.7897L79.1 32.4697L77.72 36.1397L73.23 34.4597L74.61 30.7897ZM78.83 32.6197L74.72 31.0797L73.5 34.3097L77.61 35.8497L78.83 32.6197Z" fill="#FF6200"/><path d="M72.0899 39.5998C72.1099 39.5498 72.1499 39.4998 72.2099 39.4798C72.3199 39.4298 72.4499 39.4798 72.4999 39.5898C72.8999 40.4798 73.9599 40.8798 74.8599 40.4798C74.9699 40.4298 75.0999 40.4798 75.1499 40.5898C75.1999 40.6998 75.1499 40.8298 75.0399 40.8798C73.9199 41.3898 72.5999 40.8798 72.0899 39.7698C72.0599 39.7098 72.0599 39.6498 72.0899 39.5998Z" fill="#F2F2F2"/><path d="M71.3899 40.3397C71.4099 40.2897 71.4499 40.2397 71.5099 40.2197C71.6199 40.1697 71.7499 40.2197 71.7999 40.3297C72.3299 41.4997 73.7199 42.0297 74.8899 41.4997C74.9999 41.4497 75.1299 41.4997 75.1799 41.6097C75.2299 41.7197 75.1799 41.8497 75.0699 41.8997C73.6699 42.5297 72.0199 41.8997 71.3899 40.5097C71.3599 40.4497 71.3599 40.3897 71.3899 40.3397Z" fill="#F2F2F2"/><path d="M70.68 41.0797C70.7 41.0297 70.74 40.9797 70.8 40.9597C70.91 40.9097 71.04 40.9597 71.09 41.0697C71.41 41.7797 71.99 42.3197 72.71 42.5897C73.43 42.8597 74.23 42.8397 74.93 42.5197C75.04 42.4697 75.17 42.5197 75.22 42.6297C75.27 42.7397 75.22 42.8697 75.11 42.9197C74.29 43.2897 73.39 43.3197 72.55 42.9997C71.71 42.6797 71.05 42.0597 70.68 41.2497C70.65 41.1897 70.65 41.1297 70.68 41.0797Z" fill="#F2F2F2"/><path d="M69.97 41.9397C69.99 41.8897 70.03 41.8397 70.09 41.8197C70.2 41.7697 70.33 41.8197 70.38 41.9297C71.11 43.5397 73.31 44.3697 74.92 43.6397C75.03 43.5897 75.16 43.6397 75.21 43.7497C75.26 43.8597 75.21 43.9897 75.1 44.0397C73.28 44.8597 70.79 43.9197 69.97 42.1097C69.94 42.0497 69.94 41.9897 69.97 41.9397Z" fill="#F2F2F2"/><path d="M57.9799 62.4102C57.9799 58.6802 54.9599 55.6602 51.2299 55.6602C47.4999 55.6602 44.4799 58.6802 44.4799 62.4102V86.7902L37.3199 86.7602L37.1799 119.83H39.1199C49.3799 119.88 57.7299 111.6 57.7699 101.34L57.7899 96.1802H57.9799V62.4202V62.4102Z" fill="#9E3F39"/><path d="M132.67 65.8096C134.39 66.5996 136.32 66.6696 138.1 65.9996C139.88 65.3396 141.29 64.0196 142.07 62.2996C143.51 59.1396 143.64 55.5996 142.43 52.3396C141.21 49.0796 138.8 46.4896 135.64 45.0496C133.42 44.0396 130.97 43.6696 128.55 43.9796C126.13 44.2996 123.85 45.2796 121.97 46.8296L115.92 51.7996L108.14 48.2296L106.37 53.7296L132.68 65.8096H132.67ZM125.6 51.2596C127.73 49.5096 130.74 49.1196 133.25 50.2596C134.42 50.7996 135.41 51.6096 136.14 52.6296C136.51 53.1496 136.82 53.7196 137.05 54.3396C137.73 56.1596 137.66 58.1396 136.85 59.9096C136.65 60.3596 136.29 60.5496 136.09 60.6196C135.89 60.6896 135.5 60.7896 135.05 60.5796L121.7 54.4496L125.6 51.2496V51.2596Z" fill="#232144"/><path d="M108.55 49.0396L60.66 27.3896L61.43 30.0196C62.03 32.0496 63.42 33.7496 65.3 34.7296L96.34 51.0996L107.41 52.3797L108.55 49.0396Z" fill="#E6E3DA"/><path d="M97.73 49.7097C98.6026 49.7097 99.31 49.0023 99.31 48.1297C99.31 47.2571 98.6026 46.5497 97.73 46.5497C96.8574 46.5497 96.15 47.2571 96.15 48.1297C96.15 49.0023 96.8574 49.7097 97.73 49.7097Z" fill="#232144"/></g><defs><clipPath id="clip0_631_3102"><rect width="160" height="160" fill="white"/></clipPath></defs></svg>