<svg viewBox="0 0 160 160" fill="none" xmlns="http://www.w3.org/2000/svg"><path d="M83.79 24.6199H67.89V20.4499C67.89 18.0599 69.83 16.1299 72.21 16.1299H79.46C81.85 16.1299 83.78 18.0699 83.78 20.4499V24.6199H83.79Z" fill="#3C73FF"/><path d="M84.31 24.6201H67.38C66.74 24.6201 66.22 25.1401 66.22 25.7801C66.22 26.4201 66.74 26.9401 67.38 26.9401H84.31C84.95 26.9401 85.47 26.4201 85.47 25.7801C85.47 25.1401 84.95 24.6201 84.31 24.6201Z" fill="#3C73FF"/><path d="M92.75 82.5997C92.75 79.7597 91.67 77.1697 89.91 75.2197C88.24 73.4597 87.21 71.0797 87.21 68.4497C87.21 65.8297 88.24 63.4497 89.91 61.6797H89.9C92.67 58.6897 94.34 54.8097 94.34 50.5697C94.34 44.7197 91.16 39.5697 86.31 36.4897C84.74 35.4897 83.78 33.7797 83.78 31.9197V26.9297H67.88V31.9197C67.88 33.7797 66.92 35.4997 65.35 36.4897C60.5 39.5697 57.32 44.7297 57.32 50.5697C57.32 54.8097 58.99 58.6797 61.76 61.6697H61.75C63.43 63.4297 64.45 65.8197 64.45 68.4397C64.45 71.0597 63.42 73.4497 61.75 75.2097H61.76C60 77.1597 58.92 79.7497 58.92 82.5897V128.29C59.09 132.56 62.59 135.96 66.9 135.96C68.87 135.96 70.68 135.25 72.07 134.06C73.08 133.19 74.39 132.66 75.83 132.66C77.26 132.66 78.57 133.18 79.57 134.04C80.97 135.23 82.78 135.95 84.76 135.95C89.07 135.95 92.58 132.54 92.74 128.27L92.73 128.26V82.5997H92.75Z" fill="#E4E1D8"/><path d="M92.73 90.2197H58.93V112.42H92.73V90.2197Z" fill="#3C73FF"/><path d="M73.44 133.7C73.44 137.37 70.9 140.35 67.77 140.35H48.62C45.5 140.35 42.96 137.37 42.96 133.7V79.9401C42.96 78.7301 43.25 77.5601 43.81 76.5401L46.24 72.8701H70.19L72.6 76.5501C73.16 77.5701 73.45 78.7401 73.45 79.9501V133.7H73.44Z" fill="#231F46"/><path d="M70.06 68.8096H46.34C45.22 68.8096 44.31 69.7196 44.31 70.8396C44.31 71.9596 45.22 72.8696 46.34 72.8696H70.06C71.18 72.8696 72.09 71.9596 72.09 70.8396C72.09 69.7196 71.18 68.8096 70.06 68.8096Z" fill="#FF6200"/><path d="M98.49 132.37V139.98C98.49 141.94 89.44 143.53 78.28 143.53C67.12 143.53 58.07 141.94 58.07 139.98V132.37H98.49Z" fill="#FB9400"/><path d="M58.08 132.371C58.28 131.101 62.28 129.991 68.16 129.391V143.051C62.13 142.441 58.06 141.291 58.06 139.981V132.371H58.08Z" fill="#F37900"/><path d="M78.28 135.92C89.4416 135.92 98.49 134.331 98.49 132.37C98.49 130.41 89.4416 128.82 78.28 128.82C67.1183 128.82 58.07 130.41 58.07 132.37C58.07 134.331 67.1183 135.92 78.28 135.92Z" fill="#FEB12B"/><path d="M60.88 132.441C60.88 130.381 71.2 129.641 78.13 129.641C85.06 129.641 95.38 130.391 95.38 132.441C95.38 134.501 85.06 135.241 78.13 135.241C71.2 135.251 60.88 134.501 60.88 132.441ZM66.17 130.911C61.48 131.611 61.42 132.411 61.42 132.441C61.42 132.471 61.47 133.271 66.17 133.971C69.37 134.451 73.62 134.711 78.14 134.711C82.66 134.711 86.92 134.451 90.11 133.971C94.8 133.271 94.86 132.471 94.86 132.441C94.86 132.411 94.81 131.611 90.11 130.911C86.91 130.431 82.66 130.171 78.14 130.171C73.61 130.171 69.36 130.441 66.17 130.911Z" fill="#FB9400"/><path d="M103.66 124.15V131.76C103.66 133.72 94.61 135.31 83.45 135.31C72.29 135.31 63.24 133.72 63.24 131.76V124.15H103.66Z" fill="#FB9400"/><path d="M63.22 124.121C63.42 122.851 67.42 121.741 73.3 121.141V134.801C67.27 134.191 63.2 133.041 63.2 131.731V124.121H63.22Z" fill="#F37900"/><path d="M83.44 127.701C94.6016 127.701 103.65 126.111 103.65 124.151C103.65 122.19 94.6016 120.601 83.44 120.601C72.2783 120.601 63.23 122.19 63.23 124.151C63.23 126.111 72.2783 127.701 83.44 127.701Z" fill="#FEB12B"/><path d="M66.05 124.231C66.05 122.171 76.37 121.431 83.3 121.431C90.23 121.431 100.55 122.181 100.55 124.231C100.55 126.291 90.23 127.031 83.3 127.031C76.37 127.031 66.05 126.281 66.05 124.231ZM71.33 122.701C66.64 123.401 66.58 124.201 66.58 124.231C66.58 124.261 66.63 125.061 71.33 125.761C74.53 126.241 78.78 126.501 83.3 126.501C87.82 126.501 92.08 126.241 95.27 125.761C99.96 125.061 100.02 124.261 100.02 124.231C100.02 124.201 99.97 123.401 95.27 122.701C92.07 122.221 87.82 121.961 83.3 121.961C78.78 121.961 74.53 122.221 71.33 122.701Z" fill="#FB9400"/><path d="M98.91 143.87C108.956 143.87 117.1 135.726 117.1 125.68C117.1 115.634 108.956 107.49 98.91 107.49C88.8639 107.49 80.72 115.634 80.72 125.68C80.72 135.726 88.8639 143.87 98.91 143.87Z" fill="#FEB12B"/><path d="M83.65 125.86C83.62 117.51 90.38 110.7 98.73 110.66C107.08 110.62 113.89 117.39 113.93 125.74C113.96 134.09 107.2 140.9 98.85 140.94C90.5 140.98 83.69 134.21 83.65 125.86ZM84.83 125.86C84.86 133.56 91.15 139.8 98.85 139.77C106.55 139.74 112.79 133.45 112.76 125.75C112.73 118.05 106.44 111.81 98.74 111.84C91.03 111.87 84.8 118.16 84.83 125.86Z" fill="#FB9400"/><path d="M101.45 127.57C101.45 127.79 101.36 127.89 101.15 127.89L97.69 127.88C98.04 129.51 98.95 130.58 100.78 130.58C101.6 130.58 102.33 130.36 102.95 130.14C103.21 130.05 103.36 130.05 103.45 130.25L103.93 131.28C104.06 131.56 104 131.71 103.78 131.82C102.86 132.3 101.68 132.6 100.39 132.59C97.57 132.58 95.78 130.78 95.25 127.86H94.04C93.83 127.86 93.74 127.77 93.74 127.54V126.64C93.74 126.42 93.83 126.32 94.04 126.32H95.09V125.8C95.09 125.56 95.09 125.31 95.11 125.07H94.16C93.95 125.07 93.86 124.98 93.86 124.75V123.85C93.86 123.63 93.95 123.53 94.16 123.53H95.32C95.93 120.69 97.71 118.74 100.65 118.75C102.09 118.76 103.1 119.11 103.84 119.66C104.06 119.83 104.1 119.98 103.99 120.2L103.46 121.15C103.33 121.37 103.14 121.47 102.92 121.33C102.17 120.92 101.71 120.71 100.83 120.7C99.22 120.69 98.15 121.66 97.7 123.53L101.27 123.54C101.48 123.54 101.57 123.63 101.57 123.86V124.76C101.57 124.98 101.48 125.08 101.27 125.08L97.51 125.07C97.49 125.28 97.49 125.5 97.49 125.71V126.33L101.15 126.34C101.36 126.34 101.45 126.43 101.45 126.66V127.57Z" fill="white"/><path d="M73.49 99.5601C68.24 101.03 62.9 99.8601 59.06 96.8401L59.05 96.8301C55.15 93.8301 49.74 92.7001 44.45 94.2701C43.92 94.4301 43.4 94.6101 42.9 94.8101V114.28C43.4 114.08 43.92 113.9 44.45 113.74C49.73 112.17 55.14 113.29 59.05 116.3L59.06 116.31C62.9 119.33 68.24 120.5 73.49 119.03V99.5601Z" fill="#FF6200"/></svg>