<svg viewBox="0 0 160 160" fill="none" xmlns="http://www.w3.org/2000/svg"><path fill-rule="evenodd" clip-rule="evenodd" d="M43 144H116V140.939H43V144Z" fill="#E6E3DA"/><path fill-rule="evenodd" clip-rule="evenodd" d="M52.305 140.939H106.694V33.953H52.305V140.939Z" fill="#E6E3DA"/><path fill-rule="evenodd" clip-rule="evenodd" d="M63.7104 33.966H95.6841V16H63.7104V33.966Z" fill="#232144"/><path d="M72.8301 18.1185H73.4055C73.5653 18.1185 73.6186 18.1612 73.6612 18.2893L76.2611 25.6112C76.3038 25.7392 76.2398 25.8033 76.1226 25.8033H75.6218C75.4513 25.8033 75.398 25.7606 75.3554 25.6325L74.7587 23.7967H71.4981L70.9121 25.6325C70.8695 25.7606 70.8268 25.8033 70.6563 25.8033H70.1875C70.0596 25.8033 70.0277 25.7286 70.0703 25.6112L72.5743 18.2893C72.617 18.1612 72.6702 18.1185 72.8301 18.1185ZM71.7325 23.0709H74.5243L73.1178 18.8977L71.7325 23.0709Z" fill="#F9EAD6"/><path d="M80.9397 18.823H79.0004V25.6325C79.0004 25.7392 78.9365 25.8033 78.8193 25.8033H78.3611C78.2439 25.8033 78.18 25.7392 78.18 25.6325V18.823H76.2407C76.1234 18.823 76.0595 18.7589 76.0595 18.6522V18.2893C76.0595 18.1826 76.1234 18.1185 76.2407 18.1185H80.9397C81.0569 18.1185 81.1209 18.1826 81.1209 18.2893V18.6522C81.1209 18.7589 81.0569 18.823 80.9397 18.823Z" fill="#F9EAD6"/><path d="M87.9823 25.6539L87.8331 22.0143C87.8011 21.2031 87.7585 20.0824 87.7265 19.474L86.8315 21.8222L85.9044 24.2236C85.8405 24.3837 85.7979 24.4264 85.6274 24.4264H85.2225C85.052 24.4264 85.0094 24.3837 84.9454 24.2236L83.9865 21.8222C83.7201 21.1497 83.3791 20.2745 83.0807 19.474C83.0594 20.2105 83.0168 21.2031 82.9742 22.0143L82.8037 25.6539C82.8037 25.7713 82.7611 25.8033 82.6545 25.8033H82.1644C82.0472 25.8033 82.0152 25.7499 82.0152 25.6539L82.3775 18.3213C82.3881 18.1826 82.4521 18.1185 82.6012 18.1185H83.134C83.2938 18.1185 83.3578 18.1719 83.4111 18.3106L84.402 20.8295C84.8709 22.0143 85.1586 22.7721 85.4356 23.5512C85.7126 22.7827 86.011 21.9929 86.4585 20.8189L87.4175 18.3106C87.4708 18.1826 87.5241 18.1185 87.6733 18.1185H88.2593C88.4085 18.1185 88.4724 18.1826 88.4831 18.3213L88.7921 25.6539C88.7921 25.7499 88.7495 25.8033 88.6429 25.8033H88.1528C88.0462 25.8033 87.9823 25.7713 87.9823 25.6539Z" fill="#F9EAD6"/><path fill-rule="evenodd" clip-rule="evenodd" d="M56.2836 94.307H102.717V39.798H56.2836V94.307Z" fill="#FBB03B"/><path fill-rule="evenodd" clip-rule="evenodd" d="M60.881 72.134H98.3692V44.417H60.881V72.134Z" fill="#232144"/><path fill-rule="evenodd" clip-rule="evenodd" d="M83.2714 80.203H96.5381V76.169H83.2714V80.203Z" fill="#E6E3DA"/><path fill-rule="evenodd" clip-rule="evenodd" d="M84.3707 78.743H95.4388V77.628H84.3707V78.743Z" fill="#232144"/><path fill-rule="evenodd" clip-rule="evenodd" d="M62.2967 77.334H65.3313V75.783H62.2967V77.334Z" fill="#232144"/><path fill-rule="evenodd" clip-rule="evenodd" d="M66.1733 77.334H69.2079V75.783H66.1733V77.334Z" fill="#232144"/><path fill-rule="evenodd" clip-rule="evenodd" d="M70.0508 77.334H73.0854V75.783H70.0508V77.334Z" fill="#232144"/><path fill-rule="evenodd" clip-rule="evenodd" d="M62.2967 79.224H65.3313V77.673H62.2967V79.224Z" fill="#232144"/><path fill-rule="evenodd" clip-rule="evenodd" d="M66.1733 79.224H69.2079V77.673H66.1733V79.224Z" fill="#232144"/><path fill-rule="evenodd" clip-rule="evenodd" d="M70.0508 79.224H73.0854V77.673H70.0508V79.224Z" fill="#232144"/><path fill-rule="evenodd" clip-rule="evenodd" d="M62.2967 81.152H65.3313V79.601H62.2967V81.152Z" fill="#232144"/><path fill-rule="evenodd" clip-rule="evenodd" d="M66.1733 81.152H69.2079V79.601H66.1733V81.152Z" fill="#232144"/><path fill-rule="evenodd" clip-rule="evenodd" d="M70.0508 81.152H73.0854V79.601H70.0508V81.152Z" fill="#232144"/><path fill-rule="evenodd" clip-rule="evenodd" d="M62.2967 83.275H65.3313V81.724H62.2967V83.275Z" fill="#232144"/><path fill-rule="evenodd" clip-rule="evenodd" d="M73.7392 77.334H76.7738V75.783H73.7392V77.334Z" fill="#E73245"/><path fill-rule="evenodd" clip-rule="evenodd" d="M66.1733 83.275H69.2079V81.724H66.1733V83.275Z" fill="#232144"/><path fill-rule="evenodd" clip-rule="evenodd" d="M73.7392 79.224H76.7738V77.673H73.7392V79.224Z" fill="#F7931E"/><path fill-rule="evenodd" clip-rule="evenodd" d="M70.0508 83.275H73.0854V81.724H70.0508V83.275Z" fill="#232144"/><path fill-rule="evenodd" clip-rule="evenodd" d="M73.7392 83.275H76.7738V81.724H73.7392V83.275Z" fill="#232144"/><path fill-rule="evenodd" clip-rule="evenodd" d="M73.7392 81.152H76.7738V79.601H73.7392V81.152Z" fill="#006931"/><path fill-rule="evenodd" clip-rule="evenodd" d="M94.497 77.6258L94.459 84.3648L86.4315 84.3198L86.4696 77.6188L94.497 77.6258Z" fill="#006931"/><path fill-rule="evenodd" clip-rule="evenodd" d="M94.471 82.2141L94.456 84.9141L86.4276 84.8681L86.4436 82.1691L94.471 82.2141Z" fill="#E6E3DA"/><path fill-rule="evenodd" clip-rule="evenodd" d="M93.9282 82.8781L94.0743 83.1041L93.0201 83.0471L93.0151 83.1341L94.2395 83.2001L94.0012 82.8301L93.9282 82.8781Z" fill="#232144"/><path fill-rule="evenodd" clip-rule="evenodd" d="M92.9316 83.3542L93.0176 83.3592L93.0516 82.7842L92.9646 82.7802L92.9316 83.3542Z" fill="#232144"/><path fill-rule="evenodd" clip-rule="evenodd" d="M94.0863 83.7131C94.1023 83.5491 93.853 83.4501 93.6147 83.4271C93.3254 83.3991 93.016 83.4721 92.999 83.6431C92.985 83.7941 93.2182 83.8851 93.4565 83.9081C93.7489 83.9371 94.0712 83.8651 94.0863 83.7131ZM93.028 83.4491C93.1632 83.3521 93.3964 83.3181 93.6227 83.3401C93.891 83.3661 94.1964 83.4811 94.1734 83.7211C94.1513 83.9421 93.7839 84.0271 93.4485 83.9951C93.1051 83.9621 92.8949 83.8201 92.9129 83.6351C92.9199 83.5571 92.9629 83.4961 93.028 83.4491Z" fill="#232144"/><path fill-rule="evenodd" clip-rule="evenodd" d="M90.6617 80.407C92.2456 80.407 93.5291 79.125 93.5291 77.543H87.7943C87.7943 79.125 89.0778 80.407 90.6617 80.407Z" fill="#E6E3DA"/></svg>