<svg viewBox="0 0 160 160" fill="none" xmlns="http://www.w3.org/2000/svg"><path fill-rule="evenodd" clip-rule="evenodd" d="M137.756 67.9071C137.399 67.9071 137.058 68.1029 136.827 68.4527C136.424 69.0662 136.345 70.1814 137.331 71.4715C138.042 72.4018 138.878 72.9454 139.738 73.0643C139.791 72.5767 139.789 72.0341 139.734 71.4375C139.461 68.5226 138.335 68.021 137.996 67.9371C137.916 67.9171 137.836 67.9071 137.756 67.9071ZM136.146 76.9085C135.283 76.9085 134.623 76.7396 134.567 76.7256L134.743 76.0601C134.768 76.0661 137.176 76.6777 138.631 75.4436C139.11 75.0369 139.439 74.4703 139.618 73.7488C138.593 73.6029 137.609 72.9694 136.784 71.8892C135.58 70.3123 135.719 68.8854 136.252 68.076C136.699 67.3955 137.432 67.0887 138.162 67.2695C138.739 67.4124 140.112 68.0999 140.419 71.3736C140.476 71.9871 140.479 72.5517 140.428 73.0673C140.643 73.0403 140.857 72.9864 141.07 72.9044C142.465 72.3698 143.424 70.823 143.302 69.3081C143.081 66.59 141.196 65.4898 140.093 65.0771L140.335 64.4326C141.591 64.9033 143.736 66.1554 143.987 69.2521C144.134 71.0598 142.986 72.9064 141.316 73.547C140.985 73.6739 140.651 73.7488 140.319 73.7738C140.116 74.7051 139.7 75.4396 139.073 75.9702C138.186 76.7217 137.054 76.9085 136.146 76.9085Z" fill="#891229"/><path fill-rule="evenodd" clip-rule="evenodd" d="M61.0096 60.0848L78.2046 42.9023C80.1336 40.9747 83.4336 42.3397 83.4336 45.0677V60.0848H61.0096Z" fill="#891229"/><path fill-rule="evenodd" clip-rule="evenodd" d="M113.604 118.39V101.354L127.107 99.2178L119.194 118.39H113.604Z" fill="#891229"/><path fill-rule="evenodd" clip-rule="evenodd" d="M80.3271 118.39V101.354H91.6931L85.9171 118.39H80.3271Z" fill="#891229"/><path fill-rule="evenodd" clip-rule="evenodd" d="M111.559 54.8376H91.789V45.6762C91.789 42.9412 88.48 41.5722 86.545 43.5058L75.181 54.8615C62.593 55.3952 52.424 65.261 51.426 77.7139L41.246 80.4119L42.937 86.7873C44.477 92.587 50.421 96.0445 56.225 94.5256C60.02 99.6459 65.734 103.258 72.305 104.304V118.39H77.894L82.564 104.616H105.582V118.39H111.171L115.973 104.227C127.624 102.145 136.467 91.9675 136.467 79.7274C136.467 65.9814 125.315 54.8376 111.559 54.8376Z" fill="#E73245"/><path fill-rule="evenodd" clip-rule="evenodd" d="M59.0724 71.5479C59.0724 70.4787 59.9394 69.6123 61.0094 69.6123C62.0794 69.6123 62.9464 70.4787 62.9464 71.5479C62.9464 72.6171 62.0794 73.4835 61.0094 73.4835C59.9394 73.4835 59.0724 72.6171 59.0724 71.5479Z" fill="#891229"/><path fill-rule="evenodd" clip-rule="evenodd" d="M93.9059 57.9235C93.9059 57.3389 94.3799 56.8643 94.9659 56.8643H105.421C106.006 56.8643 106.481 57.3389 106.481 57.9235C106.481 58.5081 106.006 58.9827 105.421 58.9827H94.9659C94.3799 58.9827 93.9059 58.5081 93.9059 57.9235Z" fill="#891229"/><path fill-rule="evenodd" clip-rule="evenodd" d="M21.1566 107.863V115.457C21.1566 117.414 30.1916 119 41.3366 119C52.4816 119 61.5166 117.414 61.5166 115.457V107.863H21.1566Z" fill="#F7931E"/><path fill-rule="evenodd" clip-rule="evenodd" d="M61.5167 107.863C61.5167 109.82 52.4817 111.406 41.3367 111.406C30.1917 111.406 21.1567 109.82 21.1567 107.863C21.1567 105.905 30.1917 104.319 41.3367 104.319C52.4817 104.319 61.5167 105.905 61.5167 107.863Z" fill="#FBB03B"/><path fill-rule="evenodd" clip-rule="evenodd" d="M41.4768 105.678C36.9598 105.678 32.7158 105.94 29.5258 106.416C24.8398 107.115 24.7868 107.907 24.7868 107.941C24.7868 107.974 24.8398 108.768 29.5258 109.466C32.7158 109.942 36.9598 110.204 41.4768 110.204C45.9938 110.204 50.2378 109.942 53.4278 109.466C58.1138 108.768 58.1668 107.974 58.1668 107.941C58.1668 107.907 58.1138 107.115 53.4278 106.416C50.2378 105.94 45.9938 105.678 41.4768 105.678ZM41.4768 110.736C34.5538 110.736 24.2538 109.992 24.2538 107.941C24.2538 105.89 34.5538 105.146 41.4768 105.146C48.3998 105.146 58.6998 105.89 58.6998 107.941C58.6998 109.992 48.3998 110.736 41.4768 110.736Z" fill="#F7931E"/><path fill-rule="evenodd" clip-rule="evenodd" d="M16 99.666V107.259C16 109.217 25.035 110.803 36.18 110.803C47.325 110.803 56.36 109.217 56.36 107.259V99.666H16Z" fill="#F7931E"/><path fill-rule="evenodd" clip-rule="evenodd" d="M56.3601 99.6655C56.3601 101.623 47.3251 103.209 36.1801 103.209C25.0351 103.209 16.0001 101.623 16.0001 99.6655C16.0001 97.7079 25.0351 96.1221 36.1801 96.1221C47.3251 96.1221 56.3601 97.7079 56.3601 99.6655Z" fill="#FBB03B"/><path fill-rule="evenodd" clip-rule="evenodd" d="M36.3202 97.4809C31.8032 97.4809 27.5592 97.7427 24.3692 98.2183C19.6832 98.9178 19.6302 99.7102 19.6302 99.7442C19.6302 99.7772 19.6832 100.571 24.3692 101.269C27.5592 101.745 31.8032 102.007 36.3202 102.007C40.8372 102.007 45.0812 101.745 48.2712 101.269C52.9572 100.571 53.0102 99.7772 53.0102 99.7442C53.0102 99.7102 52.9572 98.9178 48.2712 98.2183C45.0812 97.7427 40.8372 97.4809 36.3202 97.4809ZM36.3202 102.539C29.3972 102.539 19.0972 101.795 19.0972 99.7442C19.0972 97.6927 29.3972 96.9482 36.3202 96.9482C43.2432 96.9482 53.5432 97.6927 53.5432 99.7442C53.5432 101.795 43.2432 102.539 36.3202 102.539Z" fill="#F7931E"/></svg>