<svg viewBox="0 0 160 160" fill="none" xmlns="http://www.w3.org/2000/svg"><path fill-rule="evenodd" clip-rule="evenodd" d="M41.3244 81.6737L79.5443 59.8037L75.4697 72.2197L43.9937 83.2257L41.3244 81.6737Z" fill="#232144"/><path fill-rule="evenodd" clip-rule="evenodd" d="M42.6372 82.4372L74.9075 64.7422L77.4442 66.2022L75.4687 72.2202L43.9937 83.2262L42.6372 82.4372Z" fill="#4B7CFE"/><path fill-rule="evenodd" clip-rule="evenodd" d="M118.675 84.3637L80.3546 62.6717L93.057 59.8037L118.629 81.2667L118.675 84.3637Z" fill="#232144"/><path fill-rule="evenodd" clip-rule="evenodd" d="M118.653 82.8407L86.9566 64.1297L86.9008 61.1937L93.0567 59.8037L118.63 81.2667L118.653 82.8407Z" fill="#4B7CFE"/><path fill-rule="evenodd" clip-rule="evenodd" d="M82.5701 16L82.4445 60.173L73.746 50.445L79.9009 17.553L82.5701 16Z" fill="#232144"/><path fill-rule="evenodd" clip-rule="evenodd" d="M81.2577 16.7637L80.4862 53.6767L77.9624 55.1597L73.7462 50.4447L79.9011 17.5527L81.2577 16.7637Z" fill="#4B7CFE"/><path fill-rule="evenodd" clip-rule="evenodd" d="M78.5893 67.867L77.6085 65.208H84.1391L83.0856 67.867L87.535 139.433H74.4209L78.5893 67.867Z" fill="#232144"/><path fill-rule="evenodd" clip-rule="evenodd" d="M86.3878 60.7604C86.3878 63.8834 83.867 66.4144 80.7572 66.4144C79.591 66.4144 78.5076 66.0584 77.6085 65.4494C76.1104 64.4334 75.1256 62.7124 75.1256 60.7604C75.1256 57.6374 77.6474 55.1064 80.7572 55.1064C83.867 55.1064 86.3878 57.6374 86.3878 60.7604Z" fill="#B0C2E4"/><path fill-rule="evenodd" clip-rule="evenodd" d="M111.494 144.001C108.195 144.001 106.429 142.809 105.011 141.851C103.81 141.04 102.942 140.454 100.989 140.454C99.0382 140.454 98.172 141.04 96.9719 141.85C95.5546 142.809 93.7894 144.001 90.4912 144.001C87.193 144.001 85.4267 142.809 84.0084 141.85C82.8083 141.04 81.9421 140.454 79.9895 140.454C78.0389 140.454 77.1728 141.04 75.9737 141.85C74.5543 142.809 72.7901 144.001 69.4919 144.001C66.1937 144.001 64.4295 142.809 63.0111 141.85C61.812 141.04 60.9459 140.454 58.9963 140.454C57.0456 140.454 56.1795 141.04 54.9794 141.85C53.5611 142.809 51.7958 144.001 48.4976 144.001C45.1994 144.001 43.4352 142.809 42.0168 141.85C40.8168 141.04 39.9506 140.454 38 140.454V136.021C41.2982 136.021 43.0634 137.213 44.4818 138.172C45.6809 138.982 46.547 139.567 48.4976 139.567C50.4492 139.567 51.3154 138.982 52.5145 138.172C53.9328 137.213 55.6981 136.021 58.9963 136.021C62.2945 136.021 64.0587 137.213 65.477 138.172C66.6751 138.982 67.5423 139.567 69.4919 139.567C71.4425 139.567 72.3087 138.982 73.5078 138.172C74.9261 137.213 76.6913 136.021 79.9895 136.021C83.2887 136.021 85.054 137.213 86.4723 138.172C87.6724 138.982 88.5395 139.567 90.4912 139.567C92.4418 139.567 93.3079 138.982 94.507 138.172C95.9254 137.213 97.6906 136.021 100.989 136.021C104.289 136.021 106.055 137.213 107.474 138.171C108.675 138.982 109.542 139.567 111.494 139.567C113.447 139.567 114.314 138.982 115.515 138.171C116.934 137.213 118.7 136.021 122 136.021V140.454C120.046 140.454 119.179 141.04 117.978 141.851C116.56 142.809 114.794 144.001 111.494 144.001Z" fill="#4B7CFE"/></svg>