<svg viewBox="0 0 160 160" fill="none" xmlns="http://www.w3.org/2000/svg"><path fill-rule="evenodd" clip-rule="evenodd" d="M86.1904 82.1676C86.1924 90.3636 92.8682 97.0056 101.1 97.0026C109.331 97.0006 116.002 90.3546 116 82.1596C115.998 73.9636 109.323 67.3216 101.091 67.3236C92.8592 67.3266 86.1884 73.9716 86.1904 82.1676Z" fill="#020000"/><path fill-rule="evenodd" clip-rule="evenodd" d="M49.0401 26.7911C49.0421 32.7491 53.894 37.5781 59.8784 37.5761C65.8629 37.5741 70.7127 32.7431 70.7117 26.7851C70.7097 20.8271 65.8568 15.9981 59.8724 16.0001C53.8879 16.0021 49.0381 20.8331 49.0401 26.7911Z" fill="#020000"/><path fill-rule="evenodd" clip-rule="evenodd" d="M87.543 26.7911C87.545 32.7491 92.3968 37.5781 98.3813 37.5761C104.366 37.5741 109.216 32.7431 109.215 26.7851C109.213 20.8271 104.36 15.9981 98.3753 16.0001C92.3908 16.0021 87.541 20.8331 87.543 26.7911Z" fill="#020000"/><path fill-rule="evenodd" clip-rule="evenodd" d="M43 82.1797C43.002 90.3757 49.6778 97.0177 57.9093 97.0147C66.1408 97.0127 72.8116 90.3667 72.8096 82.1717C72.8076 73.9757 66.1328 67.3337 57.9003 67.3357C49.6688 67.3387 42.998 73.9837 43 82.1797Z" fill="#020000"/><path fill-rule="evenodd" clip-rule="evenodd" d="M63.0294 101.268V79.9932L95.9705 80.0432V101.268C95.9705 110.324 88.5962 117.666 79.5004 117.666C70.4037 117.666 63.0294 110.324 63.0294 101.268Z" fill="#E3944F"/><path fill-rule="evenodd" clip-rule="evenodd" d="M101.83 60.5336C101.569 60.5336 101.313 60.5526 101.06 60.5816L101.056 45.9116C101.053 36.2376 93.1699 28.3976 83.448 28.4006L74.9884 28.4026C65.2666 28.4056 57.3889 36.2496 57.3909 45.9236L57.3949 60.5796C57.1316 60.5476 56.8643 60.5266 56.5909 60.5266C52.9088 60.5276 49.9251 63.5006 49.9261 67.1666C49.9272 70.8326 52.9128 73.8036 56.595 73.8026C56.8673 73.8026 57.1346 73.7806 57.3989 73.7496L57.3999 76.5446C57.4029 86.2176 65.2857 94.0576 75.0075 94.0546L83.4671 94.0526C93.188 94.0496 101.067 86.2056 101.064 76.5316L101.063 73.7616C101.317 73.7906 101.573 73.8096 101.834 73.8096C105.517 73.8076 108.5 70.8356 108.499 67.1696C108.498 63.5036 105.513 60.5326 101.83 60.5336Z" fill="#F0A86B"/><path fill-rule="evenodd" clip-rule="evenodd" d="M79.7769 74.4961C79.3809 74.5551 78.9599 74.5401 78.5177 74.4501C77.763 74.2991 77.0454 73.9131 76.3842 73.3041C76.0315 72.9801 75.6827 72.8381 75.3179 72.8691C74.5994 72.9291 74.0155 73.6651 74.0095 73.6731L73.3121 73.1461C73.3442 73.1041 74.1231 72.1101 75.2365 72.0021C75.8546 71.9471 76.4405 72.1701 76.9771 72.6641C77.5198 73.1641 78.0966 73.4781 78.6905 73.5971C79.2965 73.7201 79.8362 73.6621 80.2954 73.4271C80.4914 73.3271 80.6773 73.1801 80.8642 72.9801C81.0954 72.7291 81.7375 72.1311 82.6741 72.0991C83.4238 72.0721 84.1735 72.4051 84.9021 73.0891L84.3011 73.7221C83.7494 73.2041 83.2128 72.9511 82.7063 72.9701C82.0953 72.9911 81.6672 73.3981 81.5074 73.5711C81.2521 73.8451 80.9798 74.0551 80.6974 74.2021C80.409 74.3501 80.1015 74.4481 79.7769 74.4961Z" fill="#020000"/><path fill-rule="evenodd" clip-rule="evenodd" d="M66.7966 51.2824L66.5323 51.3304C63.7768 51.8334 61.4322 53.6644 60.1971 56.2774L74.4844 53.6694C72.3941 51.6634 69.5522 50.7794 66.7966 51.2824Z" fill="#020000"/><path fill-rule="evenodd" clip-rule="evenodd" d="M91.1555 51.2754L91.4198 51.3224C94.1754 51.8244 96.5219 53.6534 97.76 56.2644L83.4697 53.6684C85.558 51.6604 88.4 50.7744 91.1555 51.2754Z" fill="#020000"/><path fill-rule="evenodd" clip-rule="evenodd" d="M84.6734 64.9783C84.6734 64.9783 86.2622 61.6443 89.276 60.6263C92.2909 59.6073 95.5901 61.2893 95.5901 61.2893C95.5901 61.2893 93.0094 64.1293 90.902 64.8163C88.7585 65.5153 84.6734 64.9783 84.6734 64.9783Z" fill="white"/><path fill-rule="evenodd" clip-rule="evenodd" d="M84.6734 64.9783C84.6734 64.9783 87.1074 57.4333 98.3879 60.2963L95.2002 61.6803C92.8376 61.2383 88.6851 60.9813 84.6734 64.9783Z" fill="#020000"/><path fill-rule="evenodd" clip-rule="evenodd" d="M73.7728 64.9814C73.7728 64.9814 72.182 61.6484 69.1672 60.6314C66.1524 59.6144 62.8541 61.2984 62.8541 61.2984C62.8541 61.2984 65.1454 63.9504 67.5442 64.8234C69.8144 65.6484 73.7728 64.9814 73.7728 64.9814Z" fill="white"/><path fill-rule="evenodd" clip-rule="evenodd" d="M73.773 64.9814C73.773 64.9814 71.335 57.4384 60.0555 60.3074L63.2231 61.6894C65.5857 61.2454 69.7582 60.9874 73.773 64.9814Z" fill="#020000"/><path fill-rule="evenodd" clip-rule="evenodd" d="M57.6529 68.9603L57.6499 56.7303C57.6479 47.0533 65.4322 39.2073 75.0364 39.2043H77.4322L77.4302 33.7873L80.5073 39.2033L83.4066 39.2023C93.0108 39.1993 100.799 47.0413 100.802 59.9683L100.805 68.9483L104.216 68.9473L104.21 45.7723C104.207 35.2863 95.6669 26.7893 85.1351 26.7913L73.3009 26.7953C62.7691 26.7983 54.2331 35.3003 54.2361 45.7863L54.2421 68.9613L57.6529 68.9603Z" fill="#020000"/><path fill-rule="evenodd" clip-rule="evenodd" d="M73.1459 80.2088C73.1459 80.2088 78.3454 89.5048 85.0735 80.2088C85.0735 80.2088 81.8758 76.6128 79.0258 78.6238C79.0258 78.6238 75.5899 76.5188 73.1459 80.2088Z" fill="#ED1E79"/><path fill-rule="evenodd" clip-rule="evenodd" d="M77.2498 80.8798C77.3021 80.8628 77.3574 80.8498 77.4116 80.8368C77.5594 80.8018 77.7081 80.7678 77.8548 80.7298C78.0126 80.6898 78.1704 80.6548 78.3231 80.5998C78.4698 80.5468 78.5995 80.4618 78.7502 80.4198C78.9592 80.3618 79.1773 80.3728 79.3833 80.4378C79.6265 80.5138 79.8546 80.6258 80.0999 80.6968C80.2787 80.7498 80.4687 80.7898 80.6536 80.8338C80.8013 80.8688 80.9651 80.8888 81.0716 81.0078C81.1631 81.1108 81.1962 81.2578 81.1591 81.3898C81.1168 81.5418 80.9842 81.6258 80.8515 81.6958C80.2807 82.0008 79.728 82.2798 79.0698 82.3378C79.0698 82.3378 78.5814 82.3948 77.1624 81.6308C77.0086 81.5478 76.9212 81.3638 76.9544 81.1918C76.9705 81.1128 77.0096 81.0378 77.0689 80.9818C77.1212 80.9318 77.1835 80.9018 77.2498 80.8798Z" fill="#020000"/><path fill-rule="evenodd" clip-rule="evenodd" d="M66.0438 63.531C65.6378 62.369 66.2549 61.1 67.4216 60.696C68.5883 60.292 69.8636 60.907 70.2696 62.068C70.6746 63.23 70.0576 64.499 68.8908 64.903C67.7241 65.307 66.4498 64.693 66.0438 63.531Z" fill="#020000"/><path fill-rule="evenodd" clip-rule="evenodd" d="M92.3114 63.5236C92.7164 62.3616 92.0983 61.0926 90.9316 60.6896C89.7649 60.2866 88.4906 60.9016 88.0856 62.0636C87.6806 63.2246 88.2977 64.4936 89.4654 64.8976C90.6321 65.3006 91.9064 64.6856 92.3114 63.5236Z" fill="#020000"/><path fill-rule="evenodd" clip-rule="evenodd" d="M61.3747 67.168H96.7286V63.7271H61.3747V67.168Z" fill="#F0A86B"/><path fill-rule="evenodd" clip-rule="evenodd" d="M100.788 123.045H66.2912L72.6655 144H94.4135L100.788 123.045Z" fill="#4B7CFE"/><path fill-rule="evenodd" clip-rule="evenodd" d="M79.2837 123.296L82.1709 144H77.8416L72.5526 123.296" fill="#3867C3"/><path fill-rule="evenodd" clip-rule="evenodd" d="M87.608 123.296L84.7258 144H89.0249L94.3391 123.296" fill="#3867C3"/><path fill-rule="evenodd" clip-rule="evenodd" d="M82.0715 99.6279H85.0079V89.0659H82.0715V99.6279Z" fill="#4B7CFE"/><path fill-rule="evenodd" clip-rule="evenodd" d="M82.9649 89.2791H83.8995V85.9751H82.9649V89.2791Z" fill="#020000"/><path fill-rule="evenodd" clip-rule="evenodd" d="M85.9021 82.1676C85.9021 85.5416 84.858 86.7136 83.5696 86.7136C82.2823 86.7136 81.2382 85.5416 81.2382 82.1676C81.2382 78.7936 83.5696 76.1436 83.5696 76.1436C83.5696 76.1436 85.9021 78.7936 85.9021 82.1676Z" fill="#FFD77B"/><path fill-rule="evenodd" clip-rule="evenodd" d="M98.9171 113.066C98.6488 113.066 98.3875 113.09 98.1292 113.123C98.3945 112.443 98.5463 111.705 98.5463 110.931V110.927C98.5463 107.578 95.8169 104.863 92.4513 104.863H91.7237C91.8282 104.419 91.8885 103.958 91.8885 103.483V103.48C91.8885 100.131 89.1601 97.4146 85.7936 97.4146H81.2854C77.9198 97.4146 75.1904 100.131 75.1904 103.48V103.483C75.1904 103.958 75.2507 104.419 75.3552 104.863H74.6276C71.2621 104.863 68.5327 107.578 68.5327 110.927V110.931C68.5327 111.705 68.6844 112.443 68.9507 113.123C68.6914 113.09 68.4301 113.066 68.1618 113.066C64.8525 113.066 62.1703 115.737 62.1703 119.031C62.1703 122.326 64.8525 124.997 68.1618 124.997C69.615 124.997 70.9465 124.482 71.9836 123.625C73.0207 124.482 74.3533 124.997 75.8054 124.997C77.2445 124.997 78.564 124.491 79.5971 123.65C80.6292 124.491 81.9496 124.997 83.3877 124.997C84.8268 124.997 86.1463 124.491 87.1794 123.65C88.2114 124.491 89.5309 124.997 90.97 124.997C92.4965 124.997 93.8854 124.424 94.9436 123.488C96.0018 124.424 97.3906 124.997 98.9171 124.997C102.226 124.997 104.909 122.326 104.909 119.031C104.909 115.737 102.226 113.066 98.9171 113.066Z" fill="#F7E5CD"/><path fill-rule="evenodd" clip-rule="evenodd" d="M74.5123 110.167L74.1596 109.924L75.1716 108.471L75.5233 108.714L74.5123 110.167Z" fill="#ED1E79"/><path fill-rule="evenodd" clip-rule="evenodd" d="M85.1491 107.857L85.2094 108.279L83.4517 108.527L83.3914 108.105L85.1491 107.857Z" fill="#F7931E"/><path fill-rule="evenodd" clip-rule="evenodd" d="M93.287 110.232L93.0277 110.572L91.6138 109.503L91.873 109.163L93.287 110.232Z" fill="#006931"/><path fill-rule="evenodd" clip-rule="evenodd" d="M68.4413 116.79L68.0554 116.604L68.8312 115.014L69.2171 115.2L68.4413 116.79Z" fill="#006931"/><path fill-rule="evenodd" clip-rule="evenodd" d="M72.2277 116.51L71.9685 116.85L70.5545 115.781L70.8138 115.441L72.2277 116.51Z" fill="#F7931E"/><path fill-rule="evenodd" clip-rule="evenodd" d="M98.5948 117.852H99.0229V116.084H98.5948V117.852Z" fill="#F7931E"/><path fill-rule="evenodd" clip-rule="evenodd" d="M80.0066 114.5L80.0669 114.922L78.3093 115.17L78.249 114.748L80.0066 114.5Z" fill="#006931"/><path fill-rule="evenodd" clip-rule="evenodd" d="M87.7357 102.792L87.383 102.549L88.395 101.096L88.7467 101.339L87.7357 102.792Z" fill="#ED1E79"/><path fill-rule="evenodd" clip-rule="evenodd" d="M92.4801 118.792L92.1274 118.549L93.1394 117.096L93.4911 117.339L92.4801 118.792Z" fill="#ED1E79"/><path fill-rule="evenodd" clip-rule="evenodd" d="M87.8455 117.297L87.6013 117.648L86.1422 116.641L86.3864 116.29L87.8455 117.297Z" fill="#7070FF"/><path fill-rule="evenodd" clip-rule="evenodd" d="M80.438 104.132L80.1938 104.483L78.7346 103.476L78.9788 103.125L80.438 104.132Z" fill="#7070FF"/></svg>