<svg viewBox="0 0 160 160" fill="none" xmlns="http://www.w3.org/2000/svg"><path fill-rule="evenodd" clip-rule="evenodd" d="M47.6524 102.346C46.1484 101.579 45.2724 99.9134 45.4204 98.1039C45.5074 97.0377 46.0284 96.1794 46.4884 95.424C46.6034 95.2352 46.7174 95.0473 46.8204 94.8605C47.9544 92.8061 46.7324 90.8168 45.0184 89.7556L46.2674 87.7402C49.4254 89.6937 50.5074 93.0929 48.8984 96.0066C48.7804 96.2214 48.6494 96.4372 48.5164 96.655C48.1624 97.2376 47.8274 97.7891 47.7864 98.2967C47.7294 98.9911 47.9994 99.8604 48.7324 100.234L47.6524 102.346Z" fill="#FF6200"/><path fill-rule="evenodd" clip-rule="evenodd" d="M69.4294 82.9114C69.4294 63.1863 85.4444 47.1973 105.199 47.1973C124.954 47.1973 140.969 63.1863 140.969 82.9114C140.969 102.636 124.954 118.626 105.199 118.626C85.4444 118.626 69.4294 102.636 69.4294 82.9114Z" fill="white"/><path fill-rule="evenodd" clip-rule="evenodd" d="M105.199 50.223C87.1474 50.223 72.4614 64.8872 72.4614 82.9106C72.4614 100.935 87.1474 115.599 105.199 115.599C123.251 115.599 137.937 100.935 137.937 82.9106C137.937 64.8872 123.251 50.223 105.199 50.223ZM105.199 121.652C83.8044 121.652 66.3984 104.273 66.3984 82.9106C66.3984 61.5489 83.8044 44.1699 105.199 44.1699C126.594 44.1699 144 61.5489 144 82.9106C144 104.273 126.594 121.652 105.199 121.652Z" fill="#232144"/><path fill-rule="evenodd" clip-rule="evenodd" d="M118.861 84.5948H103.646L98.6744 63.1941L101.968 62.4297L106.332 81.2165H118.861V84.5948Z" fill="#463EC5"/><path fill-rule="evenodd" clip-rule="evenodd" d="M104.09 58.528H106.307V53.8867H104.09V58.528Z" fill="#232144"/><path fill-rule="evenodd" clip-rule="evenodd" d="M104.023 53.8203H106.374V58.5955H104.023V53.8203ZM104.157 53.9542V58.4616H106.24V53.9542H104.157Z" fill="#232144"/><path fill-rule="evenodd" clip-rule="evenodd" d="M104.09 111.934H106.307V107.293H104.09V111.934Z" fill="#232144"/><path fill-rule="evenodd" clip-rule="evenodd" d="M104.023 107.227H106.374V112.002H104.023V107.227ZM104.157 107.36V111.868H106.24V107.36H104.157Z" fill="#232144"/><path fill-rule="evenodd" clip-rule="evenodd" d="M129.62 84.0179H134.268V81.8047H129.62V84.0179Z" fill="#232144"/><path fill-rule="evenodd" clip-rule="evenodd" d="M129.553 81.7383H134.335V84.0854H129.553V81.7383ZM129.687 81.8722V83.9515H134.201V81.8722H129.687Z" fill="#232144"/><path fill-rule="evenodd" clip-rule="evenodd" d="M76.1305 84.0179H80.7785V81.8047H76.1305V84.0179Z" fill="#232144"/><path fill-rule="evenodd" clip-rule="evenodd" d="M76.0635 81.7383H80.8455V84.0854H76.0635V81.7383ZM76.1975 81.8722V83.9515H80.7115V81.8722H76.1975Z" fill="#232144"/><path fill-rule="evenodd" clip-rule="evenodd" d="M48.3118 84.5931C47.8888 83.8287 44.1438 80.7322 40.9178 78.3031L40.7708 78.1723C40.6938 78.0913 40.6208 78.0114 40.5508 77.9305C39.3238 76.5366 39.0138 74.5941 39.7418 72.8665C40.4868 71.099 42.1358 69.9379 44.0438 69.837L104.92 65.4785L105.091 67.8436L44.1918 72.2041C42.9828 72.268 42.2338 73.0634 41.9298 73.7868C41.5508 74.6841 41.7028 75.6483 42.3348 76.3677C42.3658 76.4027 42.3968 76.4367 42.4278 76.4706C44.1868 77.7986 49.5378 81.9102 50.3888 83.444L48.3118 84.5931Z" fill="#FF6200"/><path fill-rule="evenodd" clip-rule="evenodd" d="M23.739 95.2104L23.895 55.0819C23.901 52.9426 22.164 51.207 20.021 51.209C17.89 51.212 16.006 52.9356 16 55.0639V95.2204C15.994 97.9502 17.704 98.3709 19.743 98.3679L20.098 98.3709C22.138 98.3679 23.796 96.1507 23.802 93.4269L23.739 95.2104Z" fill="#773527"/><path fill-rule="evenodd" clip-rule="evenodd" d="M31.8367 70.6136L47.3627 70.2209C49.4987 70.1999 51.2127 68.4533 51.1919 66.319C51.1707 64.1858 49.4217 62.4731 47.2857 62.4951L26.1907 62.4082L31.8367 70.6136Z" fill="#773527"/><path fill-rule="evenodd" clip-rule="evenodd" d="M25.3997 88.9585L25.5557 48.8299C25.5607 46.6906 23.8237 44.955 21.6817 44.957C19.5497 44.96 17.8217 46.6836 17.8167 48.8119L17.6607 88.9685C17.6547 91.6983 19.3647 92.1189 21.4037 92.1159L21.7587 92.1189C23.7987 92.1159 25.4567 89.8987 25.4627 87.1749L25.3997 88.9585Z" fill="#773527"/><path fill-rule="evenodd" clip-rule="evenodd" d="M28.6184 83.0014L28.7744 42.8729C28.7794 40.7336 27.0434 38.998 24.9004 39C22.7684 39.003 21.0404 40.7266 21.0354 42.8549L20.8794 83.0114C20.8734 85.7412 22.5834 86.1619 24.6224 86.1589L24.9774 86.1619C27.0174 86.1589 28.6754 83.9417 28.6814 81.2179L28.6184 83.0014Z" fill="#773527"/><path fill-rule="evenodd" clip-rule="evenodd" d="M50.0765 72.2104C48.0635 70.6456 45.1245 71.2771 43.9355 73.5313C41.4815 78.1845 37.7285 85.2998 36.2315 88.1285C33.8935 92.5459 27.8285 89.7092 29.6285 84.0588C30.5205 81.258 34.0015 69.7613 34.0015 69.7613L28.2825 63.2676L16.0005 89.2466V121.999H38.5645V105.776L44.8935 90.9192L51.2765 77.1564C52.0775 75.4297 51.5805 73.3794 50.0765 72.2104Z" fill="#773527"/><path fill-rule="evenodd" clip-rule="evenodd" d="M46.52 86.5441C42.819 86.5441 38.386 83.3947 37.854 83.007C37.325 82.6203 37.209 81.8799 37.595 81.3503C37.982 80.8208 38.724 80.7059 39.253 81.0905C40.604 82.0737 44.646 84.5388 47.072 84.1301C47.652 84.0332 48.067 83.7814 48.377 83.3377C48.753 82.8002 49.492 82.6693 50.03 83.045C50.567 83.4197 50.698 84.1591 50.323 84.6956C49.65 85.6569 48.661 86.2704 47.461 86.4702C47.155 86.5212 46.84 86.5441 46.52 86.5441Z" fill="#FF6200"/></svg>