<svg viewBox="0 0 160 160" fill="none" xmlns="http://www.w3.org/2000/svg"><path d="M143.89 144L134.92 97.6504C134.05 88.8504 126.98 81.6704 117.86 80.9904C117.49 80.9604 117.13 80.9704 116.76 80.9604V80.9404H116.15C116.06 80.9404 115.98 80.9404 115.89 80.9404H43.94C43.94 80.9404 43.92 80.9404 43.91 80.9404H42.53V80.9704C42.36 80.9704 42.2 80.9704 42.03 80.9804C32.91 81.6704 25.84 88.8404 24.97 97.6404L16 143.99L44.22 143.89V143.99H117.82V143.9L143.89 143.99V144Z" fill="#891229"/><path d="M100.218 78.5273L106.606 83.4913C112.062 87.7313 113.041 95.5972 108.808 101.046L103.844 107.434L97.4557 102.47C91.9994 98.2297 91.0198 90.3637 95.2536 84.9154L100.218 78.5273Z" fill="#5C1C13"/><path d="M61.4066 102.485L55.0186 107.449L50.0546 101.061C45.8146 95.6044 46.8082 87.7402 52.2566 83.5064L58.6446 78.5424L63.6086 84.9304C67.8486 90.3867 66.855 98.2509 61.4066 102.485Z" fill="#5C1C13"/><path d="M97.9017 54.4004L104.29 59.3644C109.746 63.6043 110.726 71.4702 106.492 76.9186L101.528 83.3066L95.1398 78.3427C89.6835 74.1027 88.7039 66.2368 92.9377 60.7884L97.9017 54.4004Z" fill="#5C1C13"/><path d="M63.7066 78.3499L57.3185 83.3139L52.3546 76.9259C48.1146 71.4696 49.1082 63.6055 54.5566 59.3717L60.9446 54.4077L65.9086 60.7957C70.1486 66.252 69.1549 74.1161 63.7066 78.3499Z" fill="#5C1C13"/><path d="M105.41 50.9596C105.41 54.0796 102.88 56.6096 99.76 56.6096C96.64 56.6096 94.11 54.0796 94.11 50.9596C94.11 47.8396 96.64 45.3096 99.76 45.3096C102.88 45.3096 105.41 47.8396 105.41 50.9596Z" fill="#FFA28F"/><path d="M67.09 50.9498C67.09 54.0698 64.56 56.5998 61.44 56.5998C58.32 56.5998 55.79 54.0698 55.79 50.9498C55.79 47.8298 58.32 45.2998 61.44 45.2998C64.56 45.2998 67.09 47.8298 67.09 50.9498Z" fill="#FFA28F"/><path d="M66.67 79.0404V60.9404L94.57 60.9804V79.0404C94.57 86.7404 88.32 92.9904 80.62 92.9904C72.92 92.9904 66.67 86.7404 66.67 79.0404Z" fill="#F5836D"/><path d="M62.13 58.3201V32.2801C62.13 24.0501 68.8 17.3701 77.04 17.3701H84.21C92.44 17.3701 99.11 24.0401 99.11 32.2801V58.3201C99.11 66.5501 92.44 73.2301 84.21 73.2301H77.04C68.81 73.2301 62.13 66.5601 62.13 58.3201Z" fill="#FFA28F"/><path d="M80.67 56.6098C80.46 56.6098 80.24 56.5898 80.01 56.5398C79.37 56.4098 78.76 56.0798 78.2 55.5598C77.9 55.2798 77.6 55.1598 77.3 55.1898C76.68 55.2398 76.2 55.8698 76.19 55.8698L75.6 55.4198C75.6 55.4198 76.28 54.5298 77.23 54.4498C77.75 54.4098 78.25 54.5898 78.7 55.0098C79.16 55.4398 79.65 55.6998 80.15 55.7998C80.66 55.8998 81.12 55.8598 81.51 55.6598C81.68 55.5798 81.83 55.4498 81.99 55.2798C82.19 55.0698 82.73 54.5598 83.52 54.5298C84.16 54.5098 84.79 54.7898 85.41 55.3698L84.9 55.9098C84.43 55.4698 83.98 55.2498 83.55 55.2698C83.04 55.2898 82.67 55.6298 82.53 55.7798C82.31 56.0198 82.09 56.1898 81.84 56.3198C81.48 56.5098 81.08 56.5998 80.65 56.5998L80.67 56.6098Z" fill="black"/><path d="M70.56 35.9098H70.33C67.96 35.8598 65.7 36.9898 64.23 38.9498L76.53 39.1998C75.14 37.1698 72.93 35.9498 70.56 35.9098Z" fill="#5C1C13"/><path d="M90.06 35.9098H90.29C92.66 35.8598 94.92 36.9898 96.39 38.9498L84.09 39.1998C85.48 37.1698 87.69 35.9498 90.06 35.9098Z" fill="#5C1C13"/><path d="M80.53 60.4202C80.53 59.4602 78.58 59.5102 78.58 59.5102H74.17C74.2 59.3502 76.9 63.6602 80.6 63.6602C84.25 63.6602 86.89 59.5102 86.89 59.5102H82.48C82.48 59.5102 80.52 59.5402 80.53 60.4202Z" fill="#5C1C13"/><path d="M84.16 26.56C92.3 26.56 98.89 33.23 98.89 41.47V53.1H101.78V32.15C101.78 23.23 94.55 16 85.63 16H75.61C66.69 16 59.46 23.23 59.46 32.15V53.1H62.35V41.47C62.35 33.24 68.94 26.56 77.08 26.56H84.17H84.16Z" fill="#5C1C13"/><path d="M58.02 114.89L63.55 87.4496C63.84 85.9896 62.89 84.5596 61.43 84.2796C59.97 83.9896 58.56 84.9396 58.27 86.3996L52.74 113.86C52.37 115.73 53.48 116.25 54.87 116.52L55.11 116.57C56.5 116.84 57.94 115.55 58.31 113.69L58.03 114.9L58.02 114.89Z" fill="#FFA28F"/><path d="M60.29 110.36L68.35 83.5597C68.78 82.1297 67.96 80.6297 66.53 80.1997C65.11 79.7797 63.61 80.5897 63.19 82.0097L53.79 108.57C53.24 110.39 55.65 111.28 57.01 111.68L57.25 111.75C58.61 112.15 60.16 111 60.7 109.18L60.3 110.36H60.29Z" fill="#FFA28F"/><path d="M62.88 108.45L74.45 82.9602C75.06 81.6002 74.45 80.0002 73.1 79.3902C71.75 78.7802 70.15 79.3902 69.54 80.7402L57.96 106.24C57.18 107.98 58.14 108.73 59.44 109.31L59.66 109.41C60.96 109.99 62.64 109.05 63.43 107.32L62.88 108.44V108.45Z" fill="#FFA28F"/><path d="M57.49 106.02L65.9 113.5L74.38 121.55C75.31 122.73 77.05 123.04 78.26 122.23L78.57 121.94C79.76 121.15 80 119.58 79.11 118.41C79.11 118.41 72.04 110.89 69.67 108.39C67.3 105.89 70.03 101.59 73.36 104.03L73.11 100.9L68.94 97.3496L57.48 105.99L57.49 106.02Z" fill="#FFA28F"/><path d="M103.55 114.19L97.55 86.8502C97.23 85.3902 98.16 83.9502 99.62 83.6402C101.07 83.3302 102.5 84.2502 102.82 85.7002L108.83 113.06C109.24 114.92 108.13 115.46 106.74 115.76L106.5 115.81C105.11 116.11 103.66 114.84 103.25 112.98L103.56 114.19H103.55Z" fill="#FFA28F"/><path d="M101.2 109.7L92.68 83.0401C92.23 81.6201 93.02 80.1001 94.44 79.6501C95.86 79.2101 97.37 79.9901 97.82 81.4001L107.69 107.79C108.27 109.6 105.88 110.53 104.53 110.96L104.29 111.04C102.93 111.47 101.37 110.34 100.79 108.53L101.21 109.7H101.2Z" fill="#FFA28F"/><path d="M98.58 107.83L86.57 82.5497C85.93 81.1997 86.51 79.5897 87.86 78.9597C89.2 78.3297 90.8 78.9097 91.44 80.2497L103.46 105.55C104.27 107.27 103.32 108.04 102.04 108.65L101.82 108.76C100.53 109.36 98.83 108.45 98.02 106.74L98.59 107.85L98.58 107.83Z" fill="#FFA28F"/><path d="M103.92 105.31L95.64 112.94L87.31 121.14C86.41 122.34 84.67 122.67 83.44 121.89L83.13 121.61C81.92 120.84 81.66 119.28 82.52 118.09C82.52 118.09 89.46 110.45 91.78 107.91C94.1 105.37 91.3 101.11 88.01 103.62L88.2 100.49L92.3 96.8701L103.91 105.31H103.92Z" fill="#FFA28F"/><path d="M82.22 104L73.84 97.5096C72.19 96.2296 69.86 96.2696 68.25 97.5996L53.54 109.77L51.9 118.07C57.13 119.36 62.17 121.97 65.58 125.54L66.77 113.65L68.82 103.65L70.29 101.98L78.98 108.3C80.17 109.19 81.86 108.95 82.75 107.76C83.64 106.57 83.4 104.88 82.21 103.99L82.22 104Z" fill="#FFA28F"/><path d="M92.56 103.14L94.78 113.1L96.07 124.07C99.76 120.91 104.78 118.69 109.82 117.71L107.94 108.99L93.02 97.0803C91.38 95.7703 89.06 95.7803 87.43 97.0803L79.16 103.72C77.99 104.63 77.78 106.33 78.69 107.5C79.6 108.67 81.3 108.88 82.47 107.97L91.05 101.5L92.55 103.14H92.56Z" fill="#FFA28F"/><path d="M94.22 45.4397C94.22 45.4397 91.37 44.0097 88.78 44.9097C86.19 45.8097 84.84 48.6997 84.84 48.6997C84.84 48.6997 86.22 48.8897 87.92 48.7397C87.59 48.3497 87.39 47.8497 87.39 47.2997C87.39 46.0597 88.39 45.0597 89.63 45.0597C90.87 45.0597 91.87 46.0597 91.87 47.2997C91.87 47.3897 91.85 47.4797 91.84 47.5697C93.46 46.6297 94.22 45.4297 94.22 45.4297V45.4397Z" fill="white"/><path d="M89.62 45.0703C88.38 45.0703 87.38 46.0703 87.38 47.3103C87.38 47.8603 87.59 48.3603 87.91 48.7503C88.72 48.6803 89.61 48.5303 90.45 48.2303C90.97 48.0503 91.42 47.8203 91.83 47.5803C91.84 47.4903 91.86 47.4003 91.86 47.3103C91.86 46.0703 90.86 45.0703 89.62 45.0703Z" fill="white"/><path d="M89.62 45.0703C88.38 45.0703 87.38 46.0703 87.38 47.3103C87.38 47.8603 87.59 48.3603 87.91 48.7503C88.72 48.6803 89.61 48.5303 90.45 48.2303C90.97 48.0503 91.42 47.8203 91.83 47.5803C91.84 47.4903 91.86 47.4003 91.86 47.3103C91.86 46.0703 90.86 45.0703 89.62 45.0703Z" fill="black"/><path d="M84.83 48.6998C85.5 44.0798 91.34 42.0998 94.94 44.2698C94.72 44.6198 94.3 45.3398 94.08 45.6898C93.29 45.2098 89.16 43.5398 85.41 48.0398C85.18 48.3098 85.15 48.4298 84.83 48.6998Z" fill="black"/><path d="M75.79 48.6997C75.79 48.6997 74.44 45.8097 71.85 44.9097C69.26 44.0097 66.41 45.4397 66.41 45.4397C66.41 45.4397 67.17 46.6297 68.79 47.5797C68.78 47.4897 68.76 47.3997 68.76 47.3097C68.76 46.0697 69.76 45.0697 71 45.0697C72.24 45.0697 73.24 46.0697 73.24 47.3097C73.24 47.8597 73.03 48.3597 72.71 48.7497C74.41 48.8997 75.79 48.7097 75.79 48.7097V48.6997Z" fill="white"/><path d="M71 45.0703C69.76 45.0703 68.76 46.0703 68.76 47.3103C68.76 47.4003 68.78 47.4903 68.79 47.5803C69.2 47.8203 69.65 48.0503 70.17 48.2303C71.01 48.5203 71.9 48.6703 72.71 48.7503C73.04 48.3603 73.24 47.8603 73.24 47.3103C73.24 46.0703 72.24 45.0703 71 45.0703Z" fill="white"/><path d="M71 45.0703C69.76 45.0703 68.76 46.0703 68.76 47.3103C68.76 47.4003 68.78 47.4903 68.79 47.5803C69.2 47.8203 69.65 48.0503 70.17 48.2303C71.01 48.5203 71.9 48.6703 72.71 48.7503C73.04 48.3603 73.24 47.8603 73.24 47.3103C73.24 46.0703 72.24 45.0703 71 45.0703Z" fill="black"/><path d="M75.79 48.6998C75.12 44.0798 69.28 42.0998 65.68 44.2698C65.9 44.6198 66.32 45.3398 66.54 45.6898C67.33 45.2098 71.46 43.5398 75.21 48.0398C75.44 48.3098 75.47 48.4298 75.79 48.6998Z" fill="black"/></svg>