<?xml version="1.0" encoding="utf-8"?><!--Generator: Adobe Illustrator 27.8.0, SVG Export Plug-In . SVG Version: 6.00 Build 0)--><svg version="1.1" id="Ebene_1" xmlns="http://www.w3.org/2000/svg" xmlns:xlink="http://www.w3.org/1999/xlink" x="0px" y="0px" viewBox="0 0 160 160" style="enable-background:new 0 0 160 160;" xml:space="preserve"><style type="text/css">.st0{fill-rule:evenodd;clip-rule:evenodd;fill:#76341E;}
	.st1{fill-rule:evenodd;clip-rule:evenodd;fill:#420F0F;}
	.st2{fill-rule:evenodd;clip-rule:evenodd;fill:#232144;}
	.st3{fill-rule:evenodd;clip-rule:evenodd;fill:#7070FF;}
	.st4{fill-rule:evenodd;clip-rule:evenodd;fill:#E6E3DA;}</style><path class="st0" d="M101.5,61.6H57.8c-2.9,0-5.3,2.4-5.3,5.3v6.3c0,2.9,2.4,5.3,5.3,5.3h0v39.9h43.8V78.6l0,0
	c2.9,0,5.3-2.4,5.3-5.3v-6.3C106.9,63.9,104.5,61.6,101.5,61.6z"/><path class="st1" d="M102.6,63.9H56.7c-1.2,0-2.2,1-2.2,2.2v8c0,1.2,1,2.2,2.2,2.2H60v40.1h39.4V76.2h3.2c1.2,0,2.2-1,2.2-2.2v-8
	C104.8,64.8,103.8,63.9,102.6,63.9z"/><rect x="43.5" y="141.1" class="st2" width="12" height="2.9"/><rect x="104.9" y="141.1" class="st2" width="12" height="2.9"/><path class="st2" d="M36.8,134.3L36.8,134.3l0-13.1h0c-2.3,0-4.2,1.9-4.2,4.2v4.7C32.6,132.4,34.5,134.3,36.8,134.3z"/><path class="st3" d="M102.5,89H57.9c-12.1,0-21.9,9.8-21.9,21.9v30.4h88.5V111C124.5,98.9,114.6,89,102.5,89z"/><path class="st2" d="M111,132.6L111,132.6c2.6,0,4.8-2.1,4.8-4.8v0c0-2.6-2.1-4.8-4.8-4.8h0c-2.6,0-4.8,2.1-4.8,4.8v0
	C106.2,130.4,108.3,132.6,111,132.6z"/><polygon class="st4" points="78.3,58.2 78.3,42.3 71.9,42.3 "/><polygon class="st4" points="80.5,58.2 80.5,42.3 86.8,42.3 "/><circle class="st4" cx="79.3" cy="38" r="8.9"/><circle class="st4" cx="69.7" cy="36.5" r="6.8"/><circle class="st4" cx="89.9" cy="37.6" r="6.5"/><circle class="st4" cx="88.2" cy="28.7" r="6.5"/><circle class="st4" cx="75.5" cy="26.2" r="10.2"/></svg>