<svg viewBox="0 0 160 160" fill="none" xmlns="http://www.w3.org/2000/svg"><path d="M70.57 87.8395C67.59 97.0295 57.72 102.05 48.53 99.0695C39.34 96.0895 34.32 86.2195 37.3 77.0295C40.28 67.8395 50.15 62.8195 59.34 65.7995C68.53 68.7795 73.55 78.6495 70.57 87.8395Z" fill="#171111"/><path d="M44.22 144L42.53 80.9404H116.76L117.82 144H44.22Z" fill="#4B7CFE"/><path d="M24.91 100.9C24.14 90.6798 31.8 81.7598 42.03 80.9898C52.25 80.2198 61.17 87.8798 61.94 98.1098C62.71 108.33 50.23 124.1 50.23 124.1C50.23 124.1 25.69 111.13 24.92 100.91" fill="#4B7CFE"/><path d="M134.97 100.89C135.74 90.6701 128.08 81.7501 117.85 80.9801C107.63 80.2101 98.71 87.8701 97.94 98.1001C97.17 108.32 109.65 124.09 109.65 124.09C109.65 124.09 134.19 111.12 134.96 100.9" fill="#4B7CFE"/><path d="M16 144L25.5 94.8896L49.45 116.07L47.67 143.89L16 144Z" fill="#4B7CFE"/><path d="M143.89 144L134.38 94.8896L110.44 116.07L112.22 143.89L143.89 144Z" fill="#4B7CFE"/><path d="M78.37 63.8395C75.39 73.0295 65.52 78.0495 56.33 75.0695C47.14 72.0895 42.12 62.2195 45.1 53.0295C48.08 43.8395 57.95 38.8195 67.14 41.7995C76.33 44.7795 81.35 54.6495 78.37 63.8395Z" fill="#171111"/><path d="M105.95 50.9897C105.95 54.1797 103.37 56.7597 100.18 56.7597C96.99 56.7597 94.41 54.1797 94.41 50.9897C94.41 47.7997 96.99 45.2197 100.18 45.2197C103.37 45.2197 105.95 47.7997 105.95 50.9897Z" fill="#5D2B1A"/><path d="M66.81 50.9702C66.81 54.1602 64.23 56.7402 61.04 56.7402C57.85 56.7402 55.27 54.1602 55.27 50.9702C55.27 47.7802 57.85 45.2002 61.04 45.2002C64.23 45.2002 66.81 47.7802 66.81 50.9702Z" fill="#5D2B1A"/><path d="M61.74 53.5498C64.61 53.5498 66.93 55.8698 66.93 58.7398V63.8698C66.93 66.7398 64.61 69.0598 61.74 69.0598C58.87 69.0598 56.55 66.7398 56.55 63.8698V58.7398C56.55 55.8698 58.87 53.5498 61.74 53.5498Z" fill="#FF6200"/><path d="M99.52 53.5498C102.39 53.5498 104.71 55.8698 104.71 58.7398V63.8698C104.71 66.7398 102.39 69.0598 99.52 69.0598C96.65 69.0598 94.33 66.7398 94.33 63.8698V58.7398C94.33 55.8698 96.65 53.5498 99.52 53.5498Z" fill="#FF6200"/><path d="M66.38 80.4099V61.9199L94.88 61.9599V80.3999C94.88 88.2699 88.5 94.6499 80.63 94.6499C72.76 94.6499 66.38 88.2699 66.38 80.3999" fill="#4B7CFE"/><path d="M61.74 59.2402V32.6402C61.74 24.2302 68.56 17.4102 76.97 17.4102H84.3C92.71 17.4102 99.53 24.2302 99.53 32.6402V59.2402C99.53 67.6502 92.71 74.4702 84.3 74.4702H76.97C68.56 74.4702 61.74 67.6502 61.74 59.2402Z" fill="#5D2B1A"/><path d="M84.9 49.4704C85.58 44.7504 91.55 42.7304 95.22 44.9504C94.99 45.3104 94.57 46.0404 94.34 46.4004C93.53 45.9104 89.31 44.2104 85.49 48.8004C85.26 49.0804 85.23 49.2004 84.9 49.4804" fill="black"/><path d="M61.96 51.8695V42.0295C61.96 33.6195 68.7 26.7995 77.01 26.7995H79.52V22.0895H81.75V26.7995H84.26C92.57 26.7995 99.31 33.6195 99.31 42.0295V51.8695H102.26V32.5195C102.26 23.4095 94.87 16.0195 85.76 16.0195H75.52C66.41 16.0195 59.02 23.4095 59.02 32.5195V51.8695H61.97H61.96Z" fill="#171111"/><path d="M96.36 28.5699C102.52 35.7499 102.16 46.1699 102.16 46.1699C102.16 46.1699 91.81 44.9499 85.65 37.7699C79.49 30.5899 79.85 20.1699 79.85 20.1699C79.85 20.1699 90.2 21.3899 96.36 28.5699Z" fill="#171111"/><path d="M80.48 57.5396C80.26 57.5396 80.04 57.5196 79.81 57.4696C79.16 57.3396 78.54 56.9996 77.97 56.4696C77.67 56.1896 77.36 56.0696 77.05 56.0896C76.42 56.1396 75.92 56.7796 75.92 56.7896L75.32 56.3296C75.32 56.3296 76.02 55.4196 76.98 55.3396C77.52 55.2896 78.02 55.4895 78.48 55.9195C78.95 56.3495 79.45 56.6296 79.96 56.7296C80.48 56.8296 80.95 56.7896 81.35 56.5796C81.52 56.4896 81.68 56.3595 81.84 56.1895C82.04 55.9695 82.6 55.4496 83.4 55.4296C84.05 55.4096 84.7 55.6996 85.33 56.2896L84.81 56.8396C84.33 56.3896 83.87 56.1695 83.43 56.1895C82.91 56.2095 82.53 56.5596 82.39 56.7096C82.17 56.9496 81.94 57.1295 81.69 57.2595C81.32 57.4495 80.91 57.5496 80.48 57.5496V57.5396Z" fill="black"/><path d="M69.68 38.7499L69.46 38.8299C67.18 39.6499 65.44 41.5499 64.76 43.9599L76.57 39.7099C74.5 38.2899 71.95 37.9299 69.68 38.7499Z" fill="#171111"/><path d="M90.18 38.7499L90.4 38.8299C92.68 39.6499 94.42 41.5499 95.1 43.9599L83.29 39.7099C85.36 38.2899 87.91 37.9299 90.18 38.7499Z" fill="#171111"/><path d="M75.62 49.4701C75.62 49.4701 74.24 46.5201 71.6 45.6001C68.96 44.6801 66.05 46.1401 66.05 46.1401C66.05 46.1401 67.11 48.5501 69.75 49.4601C72.39 50.3801 75.62 49.4601 75.62 49.4601" fill="white"/><path d="M75.62 49.47C74.94 44.75 68.97 42.74 65.31 44.95C65.53 45.31 65.96 46.04 66.19 46.4C67 45.91 71.21 44.21 75.03 48.79C75.26 49.07 75.29 49.18 75.62 49.47Z" fill="black"/><path d="M84.91 49.4701C84.91 49.4701 86.29 46.5201 88.93 45.6001C91.57 44.6801 94.48 46.1401 94.48 46.1401C94.48 46.1401 93.42 48.5501 90.78 49.4601C88.14 50.3801 84.91 49.4601 84.91 49.4601" fill="white"/><path d="M84.91 49.47C85.59 44.75 91.56 42.74 95.22 44.95C95 45.31 94.57 46.04 94.34 46.4C93.53 45.91 89.32 44.21 85.5 48.79C85.27 49.07 85.24 49.18 84.91 49.47Z" fill="black"/><path d="M72.01 46.5996C72.01 47.8596 70.99 48.8896 69.72 48.8896C68.45 48.8896 67.43 47.8696 67.43 46.5996C67.43 45.3296 68.45 44.3096 69.72 44.3096C70.99 44.3096 72.01 45.3296 72.01 46.5996Z" fill="black"/><path d="M86.7 47.1904C86.7 48.4504 87.72 49.4804 88.99 49.4804C90.26 49.4804 91.28 48.4604 91.28 47.1904C91.28 45.9204 90.26 44.9004 88.99 44.9004C87.72 44.9004 86.7 45.9204 86.7 47.1904Z" fill="black"/><path d="M83.31 59.9297H83.3C82.0132 59.9297 80.97 60.9729 80.97 62.2597V62.2697C80.97 63.5565 82.0132 64.5997 83.3 64.5997H83.31C84.5968 64.5997 85.64 63.5565 85.64 62.2697V62.2597C85.64 60.9729 84.5968 59.9297 83.31 59.9297Z" fill="black"/><path d="M75 93.5599L65.13 74.9799C64.47 73.7699 64.92 72.2499 66.14 71.5899C67.35 70.9299 68.87 71.3799 69.53 72.5999L75.46 83.8999L75.78 83.7299L68.27 69.5099C67.61 68.2999 68.06 66.7799 69.28 66.1199C70.49 65.4599 72.01 65.9099 72.67 67.1299L79.66 80.3899L79.98 80.2199L72.08 65.2699C71.42 64.0599 71.87 62.5399 73.09 61.8799C74.3 61.2199 75.82 61.6699 76.48 62.8899L84.9 78.7999L85.22 78.6299L78.05 65.0299C77.39 63.8199 77.84 62.2999 79.06 61.6399C80.27 60.9799 81.79 61.4299 82.45 62.6499L91.57 79.8899L91.65 72.3599C91.69 70.9799 92.84 69.8899 94.22 69.9299C95.6 69.9699 96.69 71.1199 96.65 72.4999L96.43 85.1399C96.34 88.3299 95.76 91.4799 94.71 94.4899L101.4 106.83L87.6 114.31L78.85 98.1699C77.38 97.0299 76.16 95.6199 75.24 93.9999L75.02 93.6099L75 93.5599Z" fill="#693725"/></svg>