<?xml version="1.0" encoding="utf-8"?><!--Generator: Adobe Illustrator 27.8.0, SVG Export Plug-In . SVG Version: 6.00 Build 0)--><svg version="1.1" id="Ebene_1" xmlns="http://www.w3.org/2000/svg" xmlns:xlink="http://www.w3.org/1999/xlink" x="0px" y="0px" viewBox="0 0 160 160" style="enable-background:new 0 0 160 160;" xml:space="preserve"><style type="text/css">.st0{display:none;fill-rule:evenodd;clip-rule:evenodd;fill:#E6E3DA;}
	.st1{display:none;fill-rule:evenodd;clip-rule:evenodd;fill:none;stroke:#232144;stroke-width:1.4173;stroke-miterlimit:10;}
	.st2{fill-rule:evenodd;clip-rule:evenodd;fill:#232144;}
	.st3{fill-rule:evenodd;clip-rule:evenodd;fill:#D8CBC5;}
	.st4{fill:#232144;}
	.st5{display:none;fill-rule:evenodd;clip-rule:evenodd;fill:#232144;}</style><rect x="127.3" y="98.3" class="st0" width="12.6" height="11"/><path class="st1" d="M109.5,102.5h12.5c2.1,0,3.9,1.7,3.9,3.9v7.8c0,2.1,1.7,3.9,3.9,3.9h0c2.1,0,3.9-1.7,3.9-3.9v-10.4"/><path class="st2" d="M104.5,144l-49.2,0c-3.6,0-6.5-2.9-6.5-6.5l0.1-114.9c0-3.6,2.9-6.5,6.5-6.5l49.2,0c3.6,0,6.5,2.9,6.5,6.5
	l-0.1,114.9C111.1,141.1,108.1,144,104.5,144z"/><path class="st3" d="M104.5,141.3l-49.1,0c-2.4,0-4.4-2-4.4-4.4l0.1-113.8c0-2.4,2-4.4,4.4-4.4l49.1,0c2.4,0,4.4,2,4.4,4.4
	l-0.1,113.8C108.9,139.4,106.9,141.3,104.5,141.3z"/><path class="st2" d="M94.7,18.7L94.7,18.7c0,2.9-2.4,5.3-5.3,5.3l-18.7,0c-2.9,0-5.3-2.4-5.3-5.3v0l-0.1-2.1l29.6,0.1L94.7,18.7z"/><rect x="72.1" y="18.7" class="st3" width="16" height="1.5"/><polygon class="st4" points="90.2,141.8 89.2,141.5 96.9,116 68.6,94.5 69.3,76.2 62.2,70.3 66.1,65.5 50.4,63.1 50.5,62.1 68,64.8 
	63.6,70.1 70.3,75.8 70.3,76 69.6,94 98,115.6 97.9,115.9 "/><polygon class="st4" points="50.4,87 49.6,86.4 52.9,82.2 58.4,83.8 60.8,80.4 62.3,80.6 63.6,79.4 69.5,75.6 79.7,63.4 88.5,64.1 
	97.9,47.9 109.5,39.2 110.1,40 98.6,48.7 89.1,65.1 80.1,64.4 70.1,76.4 64.2,80.2 62.7,81.6 61.3,81.5 58.8,85 53.3,83.3 "/><path class="st5" d="M133.9,106.9h-0.3c-1.8,0-3.2-1.4-3.2-3.2v0c0-1.8,1.4-3.2,3.2-3.2h0.3c1.8,0,3.2,1.4,3.2,3.2v0
	C137.1,105.5,135.7,106.9,133.9,106.9z"/></svg>