<?xml version="1.0" encoding="UTF-8"?><svg xmlns="http://www.w3.org/2000/svg" version="1.1" viewBox="0 0 160 160"><defs><style>.cls-1 {
        fill: #430e0d;
      }

      .cls-2 {
        fill: #fff;
      }

      .cls-3 {
        fill: #8b181d;
      }

      .cls-4 {
        fill: #fbb03b;
      }

      .cls-5 {
        fill: #a8a8a8;
      }</style></defs><!--Generator: Adobe Illustrator 28.6.0, SVG Export Plug-In . SVG Version: 1.2.0 Build 709)--><g><g id="debit_card_in_wallet"><g><path class="cls-1" d="M19.7,34.7h124.4v90.6H19.7c-2,0-3.7-1.7-3.7-3.7V38.4c0-2,1.7-3.7,3.7-3.7Z"/><rect class="cls-4" x="42" y="40.5" width="1.8" height=".4"/><rect class="cls-4" x="45.6" y="40.5" width="1.8" height=".4"/><rect class="cls-4" x="49.2" y="40.5" width="1.8" height=".4"/><rect class="cls-4" x="34.9" y="40.5" width="1.8" height=".4"/><rect class="cls-4" x="77.6" y="40.5" width="1.8" height=".4"/><rect class="cls-4" x="31.3" y="40.5" width="1.8" height=".4"/><rect class="cls-4" x="38.5" y="40.5" width="1.8" height=".4"/><rect class="cls-4" x="52.7" y="40.5" width="1.8" height=".4"/><rect class="cls-4" x="67" y="40.5" width="1.8" height=".4"/><rect class="cls-4" x="70.5" y="40.5" width="1.8" height=".4"/><rect class="cls-4" x="74.1" y="40.5" width="1.8" height=".4"/><rect class="cls-4" x="59.8" y="40.5" width="1.8" height=".4"/><rect class="cls-4" x="56.3" y="40.5" width="1.8" height=".4"/><rect class="cls-4" x="63.4" y="40.5" width="1.8" height=".4"/><rect class="cls-4" x="21.3" y="68.2" width=".4" height="1.3"/><rect class="cls-4" x="21.3" y="64.6" width=".4" height="1.8"/><rect class="cls-4" x="21.3" y="61.1" width=".4" height="1.8"/><rect class="cls-4" x="134.6" y="40.5" width="1.8" height=".4"/><polygon class="cls-4" points="21.3 41.5 21.7 41.5 21.7 40.9 22.4 40.9 22.4 40.5 21.3 40.5 21.3 41.5"/><rect class="cls-4" x="21.3" y="43.3" width=".4" height="1.8"/><rect class="cls-4" x="21.3" y="54" width=".4" height="1.8"/><rect class="cls-4" x="21.3" y="50.4" width=".4" height="1.8"/><rect class="cls-4" x="21.3" y="46.8" width=".4" height="1.8"/><rect class="cls-4" x="24.2" y="40.5" width="1.8" height=".4"/><rect class="cls-4" x="27.8" y="40.5" width="1.8" height=".4"/><rect class="cls-4" x="21.3" y="57.5" width=".4" height="1.8"/><rect class="cls-4" x="131" y="40.5" width="1.8" height=".4"/><rect class="cls-4" x="138.3" y="51" width=".4" height="1.8"/><rect class="cls-4" x="138.3" y="54.6" width=".4" height="1.8"/><rect class="cls-4" x="138.3" y="58.1" width=".4" height="1.8"/><rect class="cls-4" x="138.3" y="43.9" width=".4" height="1.8"/><polygon class="cls-4" points="138.3 42.1 138.7 42.1 138.7 40.5 138.2 40.5 138.2 40.9 138.3 40.9 138.3 42.1"/><rect class="cls-4" x="138.3" y="47.5" width=".4" height="1.8"/><rect class="cls-4" x="138.3" y="61.7" width=".4" height="1.8"/><rect class="cls-4" x="138.3" y="65.3" width=".4" height="1.8"/><rect class="cls-4" x="138.3" y="68.8" width=".4" height=".7"/><rect class="cls-4" x="127.5" y="40.5" width="1.8" height=".4"/><rect class="cls-4" x="95.4" y="40.5" width="1.8" height=".4"/><rect class="cls-4" x="102.6" y="40.5" width="1.8" height=".4"/><rect class="cls-4" x="99" y="40.5" width="1.8" height=".4"/><rect class="cls-4" x="91.9" y="40.5" width="1.8" height=".4"/><rect class="cls-4" x="81.2" y="40.5" width="1.8" height=".4"/><rect class="cls-4" x="84.8" y="40.5" width="1.8" height=".4"/><rect class="cls-4" x="88.3" y="40.5" width="1.8" height=".4"/><rect class="cls-4" x="120.4" y="40.5" width="1.8" height=".4"/><rect class="cls-4" x="113.2" y="40.5" width="1.8" height=".4"/><rect class="cls-4" x="116.8" y="40.5" width="1.8" height=".4"/><rect class="cls-4" x="123.9" y="40.5" width="1.8" height=".4"/><rect class="cls-4" x="106.1" y="40.5" width="1.8" height=".4"/><rect class="cls-4" x="109.7" y="40.5" width="1.8" height=".4"/><rect class="cls-5" x="45.2" y="25" width="69" height="109" rx="5.4" ry="5.4" transform="translate(159.1 -.2) rotate(89.9)"/><path class="cls-2" d="M41.5,71.5h-5.8v2.4c0,.8.5,1.4,1.1,1.4h4.7s0-3.9,0-3.9Z"/><path class="cls-2" d="M52.1,71.5h-5.7v3.9s4.6,0,4.6,0c.6,0,1-.6,1-1.4v-2.4Z"/><rect class="cls-2" x="47.4" y="68" width="4.7" height="3.1"/><rect class="cls-2" x="35.8" y="68" width="4.7" height="3.1"/><rect class="cls-2" x="41.9" y="63.7" width="4.2" height="1.6"/><rect class="cls-2" x="41.9" y="73.8" width="4.2" height="1.5"/><path class="cls-2" d="M46.5,67.6h5.7v-2.5c0-.8-.5-1.4-1-1.4h-4.6v3.9Z"/><path class="cls-2" d="M41.5,63.7h-4.7c-.6,0-1,.7-1,1.5v2.5h5.8v-3.9Z"/><polygon class="cls-2" points="40.8 73.6 40.8 65.5 47.1 65.5 47.1 73.6 40.8 73.6"/><path class="cls-5" d="M40.5,73.8v-8.5s7,0,7,0v8.5s-7,0-7,0ZM40.9,65.7v7.8s6.2,0,6.2,0v-7.8s-6.2,0-6.2,0Z"/><path class="cls-3" d="M19.7,69.6h124.4v55.7H19.7c-2,0-3.7-1.7-3.7-3.7v-48.3c0-2,1.7-3.7,3.7-3.7Z"/><path class="cls-4" d="M136.9,73.4h-.2v-.4h.2v.4ZM134.9,73.4h-1.8v-.4h1.8v.4ZM131.3,73.4h-1.8v-.4h1.8v.4ZM127.8,73.4h-1.8v-.4h1.8v.4ZM124.2,73.4h-1.8v-.4h1.8v.4ZM120.7,73.4h-1.8v-.4h1.8v.4ZM117.1,73.4h-1.8v-.4h1.8v.4ZM113.5,73.4h-1.8v-.4h1.8v.4ZM110,73.4h-1.8v-.4h1.8v.4ZM106.4,73.4h-1.8v-.4h1.8v.4ZM102.9,73.4h-1.8v-.4h1.8v.4ZM99.3,73.4h-1.8v-.4h1.8v.4ZM95.7,73.4h-1.8v-.4h1.8v.4ZM92.2,73.4h-1.8v-.4h1.8v.4ZM88.6,73.4h-1.8v-.4h1.8v.4ZM85.1,73.4h-1.8v-.4h1.8v.4ZM81.5,73.4h-1.8v-.4h1.8v.4ZM77.9,73.4h-1.8v-.4h1.8v.4ZM74.4,73.4h-1.8v-.4h1.8v.4ZM70.8,73.4h-1.8v-.4h1.8v.4ZM67.3,73.4h-1.8v-.4h1.8v.4ZM63.7,73.4h-1.8v-.4h1.8v.4ZM60.1,73.4h-1.8v-.4h1.8v.4ZM56.6,73.4h-1.8v-.4h1.8v.4ZM53,73.4h-1.8v-.4h1.8v.4ZM49.4,73.4h-1.8v-.4h1.8v.4ZM45.9,73.4h-1.8v-.4h1.8v.4ZM42.3,73.4h-1.8v-.4h1.8v.4ZM38.8,73.4h-1.8v-.4h1.8v.4ZM35.2,73.4h-1.8v-.4h1.8v.4ZM31.6,73.4h-1.8v-.4h1.8v.4ZM28.1,73.4h-1.8v-.4h1.8v.4ZM24.5,73.4h-1.8v-.4h1.8v.4Z"/><rect class="cls-4" x="43.9" y="119.8" width="1.8" height=".4"/><rect class="cls-4" x="47.4" y="119.8" width="1.8" height=".4"/><rect class="cls-4" x="51" y="119.8" width="1.8" height=".4"/><rect class="cls-4" x="33.2" y="119.8" width="1.8" height=".4"/><rect class="cls-4" x="29.6" y="119.8" width="1.8" height=".4"/><rect class="cls-4" x="36.8" y="119.8" width="1.8" height=".4"/><rect class="cls-4" x="54.6" y="119.8" width="1.8" height=".4"/><rect class="cls-4" x="72.4" y="119.8" width="1.8" height=".4"/><rect class="cls-4" x="75.9" y="119.8" width="1.8" height=".4"/><rect class="cls-4" x="68.8" y="119.8" width="1.8" height=".4"/><rect class="cls-4" x="58.1" y="119.8" width="1.8" height=".4"/><rect class="cls-4" x="65.2" y="119.8" width="1.8" height=".4"/><rect class="cls-4" x="61.7" y="119.8" width="1.8" height=".4"/><rect class="cls-4" x="40.3" y="119.8" width="1.8" height=".4"/><rect class="cls-4" x="21.3" y="107.4" width=".4" height="1.8"/><rect class="cls-4" x="21.3" y="110.9" width=".4" height="1.8"/><rect class="cls-4" x="21.3" y="103.8" width=".4" height="1.8"/><rect class="cls-4" x="21.3" y="100.3" width=".4" height="1.8"/><rect class="cls-4" x="21.3" y="89.6" width=".4" height="1.8"/><path class="cls-4" d="M22.6,119.2c.5.4,1,.7,1.7.9v-.4c-.4-.1-.9-.4-1.4-.8l-.3.3Z"/><path class="cls-4" d="M21.7,114.5h-.4v1.8c0,.5,0,1,.3,1.4l.4-.2c-.2-.4-.2-.8-.2-1.3v-1.8Z"/><rect class="cls-4" x="21.3" y="71.8" width=".4" height="1.8"/><rect class="cls-4" x="21.3" y="75.3" width=".4" height="1.8"/><rect class="cls-4" x="26.1" y="119.8" width="1.8" height=".4"/><rect class="cls-4" x="21.3" y="96.7" width=".4" height="1.8"/><rect class="cls-4" x="21.3" y="78.9" width=".4" height="1.8"/><rect class="cls-4" x="21.3" y="93.1" width=".4" height="1.8"/><rect class="cls-4" x="21.3" y="86" width=".4" height="1.8"/><rect class="cls-4" x="21.3" y="82.4" width=".4" height="1.8"/><rect class="cls-4" x="138.3" y="100.9" width=".4" height="1.8"/><rect class="cls-4" x="138.3" y="108" width=".4" height="1.8"/><rect class="cls-4" x="138.3" y="97.3" width=".4" height="1.8"/><rect class="cls-4" x="138.3" y="104.4" width=".4" height="1.8"/><rect class="cls-4" x="138.3" y="90.2" width=".4" height="1.8"/><rect class="cls-4" x="138.3" y="93.7" width=".4" height="1.8"/><rect class="cls-4" x="138.3" y="86.6" width=".4" height="1.8"/><rect class="cls-4" x="79.5" y="119.8" width="1.8" height=".4"/><rect class="cls-4" x="129.3" y="119.8" width="1.8" height=".4"/><rect class="cls-4" x="132.9" y="119.8" width="1.8" height=".4"/><path class="cls-4" d="M136.3,119.4l.2.4c.6-.3,1.1-.7,1.4-1.2l-.4-.3c-.3.4-.8.8-1.3,1.1Z"/><rect class="cls-4" x="138.3" y="111.5" width=".4" height="1.8"/><path class="cls-4" d="M138.3,116.3c0,.2,0,.4,0,.6h.4c0-.1,0-.4,0-.6v-1.2h-.4v1.2Z"/><rect class="cls-4" x="138.3" y="83.1" width=".4" height="1.8"/><rect class="cls-4" x="138.3" y="72.4" width=".4" height="1.8"/><rect class="cls-4" x="138.3" y="79.5" width=".4" height="1.8"/><rect class="cls-4" x="138.3" y="75.9" width=".4" height="1.8"/><rect class="cls-4" x="97.3" y="119.8" width="1.8" height=".4"/><rect class="cls-4" x="93.7" y="119.8" width="1.8" height=".4"/><rect class="cls-4" x="100.8" y="119.8" width="1.8" height=".4"/><rect class="cls-4" x="83" y="119.8" width="1.8" height=".4"/><rect class="cls-4" x="90.2" y="119.8" width="1.8" height=".4"/><rect class="cls-4" x="86.6" y="119.8" width="1.8" height=".4"/><rect class="cls-4" x="118.7" y="119.8" width="1.8" height=".4"/><rect class="cls-4" x="115.1" y="119.8" width="1.8" height=".4"/><rect class="cls-4" x="125.8" y="119.8" width="1.8" height=".4"/><rect class="cls-4" x="122.2" y="119.8" width="1.8" height=".4"/><rect class="cls-4" x="104.4" y="119.8" width="1.8" height=".4"/><rect class="cls-4" x="111.5" y="119.8" width="1.8" height=".4"/><rect class="cls-4" x="108" y="119.8" width="1.8" height=".4"/><rect class="cls-4" x="21.3" y="69.6" width=".4" height=".4"/><rect class="cls-4" x="138.3" y="69.6" width=".4" height="1"/></g></g></g></svg>