<svg viewBox="0 0 160 160" fill="none" xmlns="http://www.w3.org/2000/svg"><path fill-rule="evenodd" clip-rule="evenodd" d="M103.67 89.0141H34.9335L55.3495 72.6191H124.087L103.67 89.0141Z" fill="#232144"/><path fill-rule="evenodd" clip-rule="evenodd" d="M66.8765 95.9296H90.7201V74.8926H66.8765V95.9296Z" fill="#ABB8B9"/><path fill-rule="evenodd" clip-rule="evenodd" d="M107.734 44.675C107.734 28.838 94.8309 16 78.9134 16C62.996 16 50.0919 28.838 50.0919 44.675C50.0919 54.646 55.2102 63.426 62.9719 68.563V81.443H94.6243V68.71C102.514 63.594 107.734 54.744 107.734 44.675Z" fill="#FBB03B"/><path fill-rule="evenodd" clip-rule="evenodd" d="M66.8762 90.6006H90.7198V91.6016H66.8762V90.6006Z" fill="white"/><path fill-rule="evenodd" clip-rule="evenodd" d="M66.8754 86.7725H90.72V85.7725H66.8754V86.7725Z" fill="white"/><path fill-rule="evenodd" clip-rule="evenodd" d="M70.1243 49.0099C70.2286 51.1189 71.6786 52.9359 74.0924 53.9369C74.3621 54.0489 74.6369 54.1479 74.9147 54.2369C74.8164 53.7969 74.691 53.3559 74.5316 52.9239C74.1245 51.8249 72.9071 49.3429 70.1243 49.0099ZM87.4246 49.0099C84.6418 49.3429 83.4234 51.8249 83.0173 52.9239C82.8579 53.3559 82.7325 53.7969 82.6332 54.2369C82.912 54.1479 83.1868 54.0489 83.4565 53.9369C85.8703 52.9359 87.3203 51.1189 87.4246 49.0099ZM83.5558 81.4429C83.3051 78.6879 82.894 75.9329 82.4948 73.2249C81.7127 67.9119 80.9034 62.4189 81.2684 56.9579C81.2965 56.5219 81.3346 56.0619 81.3918 55.5859C80.5294 55.7599 79.6639 55.8659 78.8256 55.9509L78.7745 55.9559L78.7233 55.9509C77.885 55.8659 77.0196 55.7599 76.1571 55.5859C76.2133 56.0619 76.2514 56.5219 76.2805 56.9579C76.6445 62.4179 75.8362 67.9119 75.0541 73.2239C74.6549 75.9329 74.2458 78.6879 73.9961 81.4429H72.9712C73.2239 78.6599 73.6602 75.8009 74.0613 73.0789C74.8354 67.8179 75.6367 62.3779 75.2787 57.0239C75.2436 56.4929 75.1955 55.9239 75.1132 55.3399C74.6389 55.2089 74.1676 55.0519 73.7073 54.8609C70.6919 53.6099 68.9781 51.2119 69.1235 48.4479L69.1486 47.9629L69.6359 47.9739C72.2853 48.0329 74.4133 49.7109 75.4732 52.5779C75.7119 53.2249 75.8784 53.8829 75.9977 54.5289C76.9223 54.7369 77.8629 54.8569 78.7745 54.9509C79.686 54.8569 80.6266 54.7369 81.5502 54.5289C81.6695 53.8829 81.837 53.2249 82.0757 52.5779C83.1356 49.7109 85.2636 48.0329 87.913 47.9739L88.3993 47.9629L88.4244 48.4479C88.5708 51.2119 86.857 53.6099 83.8416 54.8609C83.3813 55.0519 82.91 55.2089 82.4357 55.3399C82.3535 55.9239 82.3043 56.4929 82.2692 57.0239C81.9122 62.3779 82.7125 67.8189 83.4876 73.0799C83.8887 75.8009 84.3119 78.6609 84.5656 81.4429H83.5558Z" fill="#232144"/><path fill-rule="evenodd" clip-rule="evenodd" d="M34.9332 144H103.67V89.0146H34.9332V144Z" fill="#ABB8B9"/><path fill-rule="evenodd" clip-rule="evenodd" d="M103.671 89.0141L124.087 72.6191V127.232L103.671 143.999V89.0141Z" fill="#ABB8B9"/><path fill-rule="evenodd" clip-rule="evenodd" d="M103.671 89.0137L93.9494 110.432H24L34.9335 89.0137" fill="#E6E3DA"/><path fill-rule="evenodd" clip-rule="evenodd" d="M124.087 72.6191L136 88.7081L115.783 107.214L103.671 89.0141" fill="#E6E3DA"/></svg>