<?xml version="1.0" encoding="UTF-8"?><svg id="hand_with_pen" xmlns="http://www.w3.org/2000/svg" viewBox="0 0 160 160"><defs><style>.cls-1{fill:#232144;}.cls-1,.cls-2,.cls-3,.cls-4,.cls-5{stroke-width:0px;}.cls-2{fill:#d8cbc5;}.cls-3{fill:#b0c2e4;}.cls-4{fill:#32785a;}.cls-5{fill:#8da8dc;}</style></defs><rect class="cls-1" x="117.86" y="84.59" width="4.76" height="55.78"/><polygon class="cls-1" points="120.66 111.08 118.86 110.35 133.26 74.2 135.06 74.92 120.66 111.08"/><ellipse class="cls-4" cx="121.73" cy="68.11" rx="20.8" ry="23.48"/><ellipse class="cls-4" cx="125.62" cy="46.82" rx="18.35" ry="19.09"/><ellipse class="cls-4" cx="116.53" cy="30" rx="8.25" ry="8.58"/><ellipse class="cls-4" cx="113.94" cy="85.12" rx="11.68" ry="12.15"/><rect class="cls-1" x="52.14" y="140.37" width="91.86" height="3.63"/><rect class="cls-2" x="110.69" y="107.05" width="26.87" height="39.75" transform="translate(-2.81 251.05) rotate(-90)"/><ellipse class="cls-1" cx="114.9" cy="126.93" rx="7.55" ry="7.57"/><rect class="cls-1" x="125.72" y="120.93" width="16.02" height="1.99"/><rect class="cls-1" x="125.72" y="126.01" width="16.02" height="1.99"/><rect class="cls-1" x="125.72" y="131.08" width="16.02" height="1.99"/><rect class="cls-3" x="16" y="34.89" width="79.54" height="109.11"/><rect class="cls-1" x="16" y="16" width="79.54" height="20.41"/><rect class="cls-5" x="60.51" y="95" width="27.86" height="30.02"/><rect class="cls-1" x="23.98" y="95" width="26.31" height="49"/><rect class="cls-3" x="73.47" y="93.37" width="2.22" height="33.85"/><rect class="cls-5" x="60.51" y="45.85" width="27.86" height="30.02"/><rect class="cls-3" x="73.47" y="44.21" width="2.22" height="33.85"/><rect class="cls-5" x="23.67" y="45.85" width="27.86" height="30.02"/><rect class="cls-3" x="36.64" y="44.21" width="2.22" height="33.85"/><rect class="cls-3" x="29.18" y="93.37" width="2.22" height="50.63"/></svg>