<?xml version="1.0" encoding="utf-8"?><!--Generator: Adobe Illustrator 28.1.0, SVG Export Plug-In . SVG Version: 6.00 Build 0)--><svg version="1.1" xmlns="http://www.w3.org/2000/svg" xmlns:xlink="http://www.w3.org/1999/xlink" x="0px" y="0px" viewBox="0 0 160 160" style="enable-background:new 0 0 160 160;" xml:space="preserve"><style type="text/css">.st0{fill:#5773A4;}
	.st1{fill:#D0DEF2;}
	.st2{fill:#B0C2E4;}
	.st3{fill:#E73245;}
	.st4{fill:#FBB03B;}
	.st5{fill:#006931;}
	.st6{fill:#E6E3DA;}
	.st7{fill:#738EC1;}
	.st8{fill:#232144;}
	.st9{fill:#FFA28F;}
	.st10{fill:#FFC4B8;}
	.st11{fill:#891229;}
	.st12{fill:#FAA332;}</style><g id="computer_00000021834079614054822360000008118071193727986846_"><path class="st0" d="M137.86,23.94v80.58c0,1.25-1.02,2.27-2.27,2.27H24.41c-1.25,0-2.27-1.02-2.27-2.27V23.94
		c0-1.25,1.02-2.27,2.27-2.27h111.18C136.84,21.66,137.86,22.68,137.86,23.94z"/><circle class="st1" cx="80" cy="24.14" r="1.01"/></g><g id="Screen"><rect x="26.62" y="26.32" class="st1" width="106.69" height="62.64"/><rect x="26.62" y="26.34" class="st2" width="106.69" height="6.53"/><circle class="st3" cx="29.58" cy="29.6" r="1.01"/><circle class="st4" cx="32.71" cy="29.6" r="1.01"/><circle class="st5" cx="35.84" cy="29.6" r="1.01"/><path class="st6" d="M116.45,30.68H42.4c-0.6,0-1.08-0.48-1.08-1.08v0c0-0.6,0.48-1.08,1.08-1.08h74.05c0.6,0,1.08,0.48,1.08,1.08
		v0C117.53,30.2,117.05,30.68,116.45,30.68z"/><circle class="st7" cx="116.36" cy="29.6" r="0.64"/><rect x="47.75" y="39.55" class="st2" width="64.44" height="40.53"/><path class="st1" d="M105.61,60.75H54.33c-0.49,0-0.89-0.4-0.89-0.89v-3.69c0-0.49,0.4-0.89,0.89-0.89h51.28
		c0.49,0,0.89,0.4,0.89,0.89v3.69C106.5,60.35,106.1,60.75,105.61,60.75z"/></g><g id="magnifying_glass"><polygon class="st8" points="131.23,78.19 118.06,66.01 119.51,64.45 116.28,61.46 109.7,68.57 112.93,71.56 114.34,70.03 
		127.5,82.22 	"/><polygon class="st8" points="144,101.25 118.96,78.14 126.75,69.73 144,85.69 	"/><path class="st8" d="M95.8,75.18c-8.2,0.84-16.7-1.7-23.21-7.73c-12-11.11-12.73-29.92-1.62-41.93
		c11.11-12.01,29.92-12.73,41.93-1.62c12,11.11,12.73,29.92,1.62,41.93l0,0C109.43,71.34,102.72,74.47,95.8,75.18z M90.14,20.52
		c-5.91,0.61-11.63,3.28-15.97,7.97c-9.48,10.24-8.86,26.29,1.38,35.77s26.29,8.86,35.77-1.38c9.48-10.24,8.86-26.29-1.38-35.77
		C104.39,21.97,97.13,19.8,90.14,20.52z"/></g><g id="magnified"><path class="st1" d="M109.94,27.11c-5.55-5.14-12.81-7.31-19.8-6.59c-5.91,0.61-11.63,3.28-15.97,7.97
		c-9.48,10.24-8.86,26.29,1.38,35.77c10.24,9.48,26.29,8.86,35.77-1.38C120.8,52.64,120.18,36.59,109.94,27.11z"/><path class="st2" d="M74.17,28.49c-9.48,10.24-8.86,26.29,1.38,35.77c10.24,9.48,26.29,8.86,35.77-1.38
		c9.34-10.09,8.87-25.81-0.94-35.34H75.13C74.81,27.86,74.48,28.16,74.17,28.49z"/><path class="st1" d="M117.97,45.94c0-0.51-0.41-0.92-0.92-0.92H68.43c-0.51,0-0.92,0.41-0.92,0.92v1.53
		c0.08,1.18,0.25,2.35,0.5,3.52c0.13,0.07,0.27,0.12,0.42,0.12h48.62c0.16,0,0.3-0.05,0.43-0.12c0.25-1.16,0.41-2.33,0.49-3.51
		V45.94z"/><path class="st1" d="M117.97,45.94c0-0.51-0.41-0.92-0.92-0.92H68.43c-0.51,0-0.92,0.41-0.92,0.92v1.53
		c0.08,1.18,0.25,2.35,0.5,3.52c0.13,0.07,0.27,0.12,0.42,0.12h48.62c0.16,0,0.3-0.05,0.43-0.12c0.24-1.15,0.41-2.32,0.49-3.49
		V45.94z"/><path class="st2" d="M116.4,49.3l-1.18-1.18c0.34-0.51,0.31-1.2-0.14-1.65c-0.52-0.52-1.35-0.52-1.87,0
		c-0.52,0.52-0.52,1.35,0,1.87c0.45,0.45,1.14,0.48,1.65,0.14l1.18,1.18L116.4,49.3z M113.48,48.06c-0.36-0.36-0.36-0.95,0-1.32
		c0.36-0.36,0.95-0.36,1.32,0s0.36,0.95,0,1.32S113.85,48.42,113.48,48.06z"/></g><g id="head_back"><path class="st9" d="M80,140.17c8.92,0,16.15-7.23,16.15-16.15v-20.95h-32.3v20.95C63.85,132.94,71.08,140.17,80,140.17"/><circle class="st10" cx="58.21" cy="91.5" r="6.54"/><circle class="st10" cx="101.79" cy="91.5" r="6.54"/><path class="st11" d="M143.63,144.03c0.03-0.79,0.01-0.67-0.06-1.45l-0.01-0.35l-0.02,0.02c-0.96-9.86-8.86-17.9-19.08-18.67
		c-0.24-0.02-0.47-0.01-0.71-0.02l0-0.03h-1.16c-0.11,0-0.23,0-0.34,0H36.98l0,0.03c-0.35,0.01-0.7,0-1.05,0.03
		c-9.78,0.74-17.49,8.02-19.2,17.23l-0.01-0.01l-0.02,0.21c-0.19,1.09-0.31,1.88-0.33,3.01H143.63z"/><path class="st12" d="M105.35,116.53c-0.23,0-0.46,0.02-0.68,0.03c1.33-2.44,2.08-5.23,2.08-8.2c0-3.74-1.21-7.19-3.24-10
		c0.19-1.16,0.3-2.39,0.35-3.64h0.01v-0.26c0.01-0.32,0.04-0.63,0.04-0.96l-0.04-1.72V70.36c0-10.33-8.13-18.7-18.16-18.7H74.44
		c-10.03,0-18.16,8.37-18.16,18.7v26.68h0.04l0,0.14c0.51,9.05,9.05,17.7,18.24,19.46c2.92,5.3,8.56,8.89,15.04,8.89
		c1.91,0,3.74-0.33,5.46-0.9c-0.2,0.81-0.31,1.65-0.31,2.53c0,5.86,4.75,10.62,10.62,10.62s10.62-4.75,10.62-10.62
		C115.97,121.29,111.22,116.53,105.35,116.53z"/></g></svg>