<?xml version="1.0" encoding="utf-8"?><!--Generator: Adobe Illustrator 28.0.0, SVG Export Plug-In . SVG Version: 6.00 Build 0)--><svg version="1.1" xmlns="http://www.w3.org/2000/svg" xmlns:xlink="http://www.w3.org/1999/xlink" x="0px" y="0px" viewBox="0 0 160 160" style="enable-background:new 0 0 160 160;" xml:space="preserve"><style type="text/css">.st0{fill:#006931;}
	.st1{fill:#291028;}
	.st2{fill:#FFD4A9;}
	.st3{fill:#7070FF;}
	.st4{fill:#FFBD7A;}
	.st5{fill:#231F20;}
	.st6{fill:#FFFFFF;}
	.st7{fill:#ED1E79;}</style><g id="Design"><path class="st0" d="M144,143.8l-9-46.3c-0.9-8.8-7.9-15.9-17-16.6c-0.4,0-0.7,0-1.1,0l0,0h-0.6c-0.1,0-0.2,0-0.3,0H44.2
		c0,0,0,0,0,0h-1.4l0,0c-0.2,0-0.3,0-0.5,0c-9.1,0.7-16.2,7.8-17,16.6l-9,46.3l28.2-0.1l0,0.1H118l0-0.1L144,143.8z"/><path class="st1" d="M85.9,64.8c0,7,5.7,12.7,12.7,12.7s12.7-5.7,12.7-12.7S105.7,52,98.7,52S85.9,57.7,85.9,64.8"/><path class="st1" d="M49.1,64.8c0,7,5.7,12.7,12.7,12.7s12.7-5.7,12.7-12.7S68.8,52,61.8,52S49.1,57.7,49.1,64.8"/><path class="st2" d="M104.6,50.7c0,3.1-2.5,5.7-5.7,5.7c-3.1,0-5.7-2.5-5.7-5.7c0-3.1,2.5-5.7,5.7-5.7
		C102.1,45,104.6,47.5,104.6,50.7"/><path class="st2" d="M66.4,50.7c0,3.1-2.5,5.7-5.7,5.7S55,53.8,55,50.7c0-3.1,2.5-5.7,5.7-5.7S66.4,47.5,66.4,50.7"/><path class="st3" d="M61.4,53.2L61.4,53.2c2.8,0,5.1,2.3,5.1,5.1v5.1c0,2.8-2.3,5.1-5.1,5.1h0c-2.8,0-5.1-2.3-5.1-5.1v-5.1
		C56.2,55.5,58.5,53.2,61.4,53.2"/><path class="st3" d="M98.3,53.2L98.3,53.2c2.8,0,5.1,2.3,5.1,5.1v5.1c0,2.8-2.3,5.1-5.1,5.1h0c-2.8,0-5.1-2.3-5.1-5.1v-5.1
		C93.2,55.5,95.5,53.2,98.3,53.2"/><path class="st4" d="M65.9,79.6V61.4l28.1,0v18.2c0,7.8-6.3,14.1-14.1,14.1C72.2,93.7,65.9,87.4,65.9,79.6"/><path class="st2" d="M61.4,58.7V32.5c0-8.3,6.7-15,15-15h7.2c8.3,0,15,6.7,15,15v26.2c0,8.3-6.7,15-15,15h-7.2
		C68.1,73.8,61.4,67,61.4,58.7"/><path class="st1" d="M61.6,52.3V41.8c0-8.3,6.6-15,14.8-15h2v-4.6l2.6,4.6h2.5c8.2,0,14.8,6.7,14.8,15v10.5h2.9V32.4
		c0-9-7.3-16.3-16.3-16.3H75c-9,0-16.3,7.3-16.3,16.3v19.9H61.6z"/><path class="st5" d="M80.2,57.5c-0.2,0-0.4,0-0.7-0.1c-0.6-0.1-1.2-0.5-1.8-1c-0.3-0.3-0.6-0.4-0.9-0.4c-0.6,0.1-1.1,0.7-1.1,0.7
		l-0.6-0.4c0,0,0.7-0.9,1.6-1c0.5-0.1,1,0.1,1.5,0.6c0.5,0.4,0.9,0.7,1.4,0.8c0.5,0.1,1,0.1,1.4-0.1c0.2-0.1,0.3-0.2,0.5-0.4
		c0.2-0.2,0.7-0.7,1.5-0.7c0.6,0,1.3,0.3,1.9,0.8l-0.5,0.5c-0.5-0.4-0.9-0.7-1.4-0.6c-0.5,0-0.9,0.4-1,0.5c-0.2,0.2-0.4,0.4-0.7,0.5
		C81,57.5,80.6,57.5,80.2,57.5z"/><path class="st6" d="M84.8,49.9c0,0,1.4-3.5,4-4.4c2.6-0.9,5.6,0.9,5.6,0.9s-1.3,2.7-3.8,3.6C88,50.8,84.8,49.9,84.8,49.9"/><path class="st5" d="M87.2,47.8c0,1.2,1,2.2,2.2,2.2s2.2-1,2.2-2.2c0-1.2-1-2.2-2.2-2.2S87.2,46.6,87.2,47.8"/><path class="st5" d="M84.8,49.9c0.7-5.9,7.2-7.4,10.3-4.8c-0.2,0.4-0.5,0.9-0.7,1.2C93.6,45.8,88,44,84.8,49.9
		C84.8,49.9,84.8,49.9,84.8,49.9"/><path class="st6" d="M75.9,49.6c0,0-1.4-3.5-4-4.4c-2.6-0.9-5.6,0.9-5.6,0.9s1.3,2.7,3.8,3.6C72.7,50.5,75.9,49.6,75.9,49.6"/><path class="st5" d="M73.5,47.6c0,1.2-1,2.2-2.2,2.2c-1.2,0-2.2-1-2.2-2.2s1-2.2,2.2-2.2C72.5,45.4,73.5,46.4,73.5,47.6"/><path class="st5" d="M75.9,49.6c-0.7-5.9-7.2-7.4-10.3-4.8c0.2,0.4,0.5,0.9,0.7,1.2C67.1,45.6,73.5,43.5,75.9,49.6
		C75.9,49.7,75.9,49.6,75.9,49.6"/><path class="st7" d="M80.1,63c0-1.3-2.5-1.2-2.5-1.2L71.8,61c0,0,3.4,5.6,8.3,5.6c4.8,0,8.3-5.3,8.3-5.3l-5.8,0.5
		C82.6,61.9,80.1,61.7,80.1,63"/><path class="st1" d="M82.6,39.4c4.4-5.9,10-6.3,14.4-0.3c0,0-4.2-1.2-7.6-1.2C86,37.9,82.6,39.4,82.6,39.4"/><path class="st1" d="M77.9,39.4c-4.4-5.9-10-6.3-14.4-0.3c0,0,4.2-1.2,7.6-1.2C74.5,37.9,77.9,39.4,77.9,39.4"/><path class="st2" d="M102,99c0.1-1.7-1.3-3.1-2.9-3.1c-1.7-0.1-3.1,1.3-3.1,2.9l-0.3,8.7l-8.8-6.7c-1.2-1-3-0.9-4.1,0.4v0
		c-1,1.2-0.9,3,0.3,4.1l0.1,0.1l-1.4-1.2c-1.2-1-3.1-0.8-4.1,0.4v0c-1,1.2-0.8,3,0.4,4c-1.2-0.6-2.7-0.3-3.5,0.7c-1,1.2-0.8,3,0.4,4
		l2.1,1.8c-1.2-0.8-2.9-0.6-3.8,0.6c-1,1.2-0.8,3,0.4,4l9.8,7.8l5.9,3l11.7,13l12.5-11.5l-10.7-11.7L102,99z"/><path class="st0" d="M112.8,143.8l7.2-8.1c3.7-4.1,2.9-10.6-1.7-13.6l-1-0.7c-4-2.7-9.4-1.7-12.3,2.2l-7.4,10
		c-2.3,3.1-2.3,7.1-0.4,10.2H112.8z"/></g><g id="stramien"/></svg>