<svg viewBox="0 0 160 160" fill="none" xmlns="http://www.w3.org/2000/svg"><path fill-rule="evenodd" clip-rule="evenodd" d="M78.6998 31.52C94.5618 31.52 107.42 44.378 107.42 60.24C107.42 76.102 94.5618 88.96 78.6998 88.96C62.8378 88.96 49.9798 76.102 49.9798 60.24C49.9798 44.378 62.8378 31.52 78.6998 31.52Z" fill="#F7E5CD"/><path fill-rule="evenodd" clip-rule="evenodd" d="M98.9798 89.5702C100.2 89.3602 101.13 88.3002 101.13 87.0302C101.13 85.6002 99.9698 84.4502 98.5498 84.4502H58.8498C57.4198 84.4502 56.2698 85.6102 56.2698 87.0302C56.2698 88.3102 57.1998 89.3602 58.4198 89.5702C55.5698 90.6102 53.5298 93.3402 53.5298 96.5502H103.88C103.88 93.3402 101.84 90.6102 98.9898 89.5702H98.9798Z" fill="#232144"/><path fill-rule="evenodd" clip-rule="evenodd" d="M115.08 16L117.9 23.75C119.11 27.56 121.42 29.96 124.55 31.18L131.69 34.33L124.55 37.48C121.38 38.78 119.21 41.18 117.9 44.91L115.08 52.66L112.26 44.91C110.85 41.31 109.16 39.09 105.61 37.48L98.4698 34.33L105.61 31.18C108.49 29.77 111.11 27.02 112.26 23.75L115.08 16Z" fill="#F7931E"/><path fill-rule="evenodd" clip-rule="evenodd" d="M48.2898 47.6299L49.5898 51.2199C50.2998 52.6699 51.3698 53.8699 52.6698 54.6599L55.9698 56.1199L52.6698 57.5799C51.3698 58.3699 50.2998 59.5699 49.5898 61.0199L48.2898 64.6099L46.9898 61.0199C46.2798 59.5699 45.2098 58.3699 43.9098 57.5799L40.6098 56.1199L43.9098 54.6599C45.2098 53.8699 46.2798 52.6699 46.9898 51.2199L48.2898 47.6299Z" fill="#F7931E"/><path fill-rule="evenodd" clip-rule="evenodd" d="M69.6198 18.1699L70.5498 20.7099C71.0498 21.7399 71.8098 22.5899 72.7298 23.1499L75.0698 24.1799L72.7298 25.2099C71.8098 25.7699 71.0498 26.6199 70.5498 27.6499L69.6198 30.1899L68.6898 27.6499C68.1898 26.6199 67.4298 25.7699 66.5098 25.2099L64.1698 24.1799L66.5098 23.1499C67.4298 22.5899 68.1898 21.7399 68.6898 20.7099L69.6198 18.1699Z" fill="#F7931E"/><path fill-rule="evenodd" clip-rule="evenodd" d="M35.682 100.19C35.104 100.99 34.077 102.398 33.61 102.97C32.18 104.7 30 102.39 31.09 100.89L31.79 99.93L31.745 99.937L34.773 96.086L39.877 92.337L35.682 100.19ZM29.14 83.81L16.373 102.044L16.35 102.08L16.286 117.303L16.26 117.3L16 144H37.35L34.472 123.944L38.003 111.127L46.315 95.566C47.252 93.812 46.59 91.631 44.836 90.694C44.131 90.318 43.36 90.211 42.626 90.317L47.082 87.044C48.684 85.867 49.029 83.614 47.852 82.012C47.805 81.948 47.746 81.899 47.695 81.838C48.563 80.773 48.765 79.251 48.084 77.958L48.054 77.901C47.128 76.141 44.951 75.465 43.192 76.391L29.172 83.765L29.14 83.81Z" fill="#FF976B"/><path fill-rule="evenodd" clip-rule="evenodd" d="M123.668 85.7771L119.471 77.9211L124.577 81.6711L127.687 85.6271C127.778 85.7861 127.946 86.0471 128.269 86.4901C129.359 87.9901 127.179 90.3001 125.749 88.5701C125.279 87.9941 124.244 86.5741 123.668 85.7771ZM143.999 131.98L143.346 106.56H143.349L143.03 87.6751L143.01 87.6461L143.006 87.6401L130.234 69.4011L130.218 69.3781L130.175 69.3551L116.178 61.9911C114.418 61.0651 112.242 61.7411 111.316 63.5011C110.63 64.8041 110.827 66.3341 111.689 67.4171C111.632 67.4831 111.568 67.5381 111.515 67.6091C110.338 69.2111 110.683 71.4651 112.285 72.6421L116.731 75.9071C115.995 75.7991 115.221 75.9061 114.515 76.2831C112.761 77.2201 112.099 79.4011 113.036 81.1551L121.359 96.7361L124.97 109.845L121.789 131.98H143.999Z" fill="#FF976B"/></svg>