<svg viewBox="0 0 160 160" fill="none" xmlns="http://www.w3.org/2000/svg"><path fill-rule="evenodd" clip-rule="evenodd" d="M120.562 106.096H102.305C101.446 100.047 96.2919 95.3938 90.0449 95.3938C88.8269 95.3938 87.6529 95.578 86.5409 95.9072C81.8909 88.842 73.9239 84.1794 64.8729 84.1794C51.9579 84.1794 41.2489 93.6686 39.2389 106.096H18.3249C17.0409 106.096 15.9999 107.144 15.9999 108.435V108.661C15.9999 109.952 17.0409 111 18.3249 111H120.562C121.846 111 122.886 109.952 122.886 108.661V108.435C122.886 107.144 121.846 106.096 120.562 106.096Z" fill="#797878"/><path fill-rule="evenodd" clip-rule="evenodd" d="M101.262 103.671V93.5125L96.4592 99.3275L101.262 103.671Z" fill="#797878"/><path fill-rule="evenodd" clip-rule="evenodd" d="M91.3781 90.3599V98.4166L86.2971 97.2258L91.3781 90.3599Z" fill="#797878"/><path fill-rule="evenodd" clip-rule="evenodd" d="M94.6065 103.352C94.5915 103.866 95.5205 104.31 96.6805 104.343C97.8415 104.377 98.7935 103.986 98.8075 103.472C98.8225 102.957 97.8935 102.513 96.7335 102.48C95.5735 102.447 94.6205 102.838 94.6065 103.352Z" fill="white"/><path fill-rule="evenodd" clip-rule="evenodd" d="M95.1775 103.304C95.1155 103.75 95.2965 104.144 95.5805 104.183C95.8645 104.223 96.1445 103.893 96.2065 103.448C96.2675 103.001 96.0875 102.607 95.8035 102.568C95.5195 102.528 95.2395 102.858 95.1775 103.304Z" fill="#232144"/><path fill-rule="evenodd" clip-rule="evenodd" d="M89.7122 100.128C89.4032 100.56 89.9422 101.482 90.9162 102.187C91.8892 102.894 92.9293 103.115 93.2383 102.684C93.5473 102.252 93.0082 101.33 92.0352 100.624C91.0612 99.9174 90.0212 99.696 89.7122 100.128Z" fill="white"/><path fill-rule="evenodd" clip-rule="evenodd" d="M107.805 49V99.4794V104.773V111H112.291V104.773H139.514V111H144V104.773V99.4794V49H107.805Z" fill="#BAC09A"/><path fill-rule="evenodd" clip-rule="evenodd" d="M133.791 108.12C133.791 106.53 135.072 105.24 136.653 105.24C138.233 105.24 139.514 106.53 139.514 108.12C139.514 109.71 138.233 111 136.653 111C135.072 111 133.791 109.71 133.791 108.12Z" fill="#E73245"/><path fill-rule="evenodd" clip-rule="evenodd" d="M90.1339 100.36C89.8439 100.703 89.787 101.133 90.006 101.32C90.225 101.506 90.6369 101.38 90.9259 101.036C91.2159 100.693 91.2729 100.262 91.0539 100.076C90.8359 99.8888 90.4239 100.017 90.1339 100.36Z" fill="#232144"/><path fill-rule="evenodd" clip-rule="evenodd" d="M17.6043 59.0979V62.0915C17.8383 62.1146 18.1193 62.1267 18.3773 62.1267C19.4663 62.1267 19.9573 61.5137 19.9573 60.5353C19.9573 60.0048 19.7933 59.6515 19.5363 59.4401C19.2203 59.1683 18.7513 59.0979 18.2013 59.0979H17.6043ZM16.3513 66.3805C16.1873 66.3805 16.1173 66.3101 16.1173 66.1571V58.1195C16.1173 57.9665 16.1873 57.896 16.3513 57.896H18.0253C19.3373 57.896 20.2733 58.1315 20.8363 58.7093C21.2453 59.121 21.4563 59.7219 21.4563 60.5242C21.4563 62.1388 20.4733 63.3165 18.4593 63.3165C18.1543 63.3165 17.8733 63.3165 17.6043 63.2812V66.1571C17.6043 66.3101 17.5343 66.3805 17.3703 66.3805H16.3513Z" fill="#E73245"/><path fill-rule="evenodd" clip-rule="evenodd" d="M26.0694 61.9146C25.7764 61.5018 25.3554 61.2663 24.8864 61.2663C24.0084 61.2663 23.4704 61.9971 23.4704 63.3288C23.4704 64.4008 23.8334 65.2846 24.8044 65.2846C25.1444 65.2846 25.4484 65.1205 25.6484 64.9081C25.9644 64.578 26.0694 64.0002 26.0694 63.4818V61.9146ZM26.2334 65.6027C25.8584 66.1573 25.2144 66.4986 24.5244 66.4986C22.9084 66.4986 22.0184 65.2141 22.0184 63.3872C22.0184 61.2663 23.2124 60.0403 24.6524 60.0403C25.3084 60.0403 25.9174 60.3704 26.2104 60.7711L26.2454 60.3704C26.2564 60.2054 26.3274 60.1591 26.5024 60.1591H27.2754C27.4394 60.1591 27.4974 60.2054 27.4974 60.3473C27.4974 60.6654 27.4744 61.7022 27.4744 62.5859V63.7063C27.4744 65.0964 27.6504 66.0506 27.6504 66.1925C27.6504 66.3224 27.6034 66.3808 27.4514 66.3808H26.6664C26.5264 66.3808 26.4554 66.3224 26.4094 66.2046C26.3504 66.0869 26.2684 65.804 26.2334 65.6027Z" fill="#E73245"/><path fill-rule="evenodd" clip-rule="evenodd" d="M32.5205 64.9079C32.7545 64.6723 32.8485 64.2838 32.8485 63.6466V61.9143C32.5555 61.5026 32.1345 61.266 31.6655 61.266C30.7875 61.266 30.2375 61.9737 30.2375 63.3054C30.2375 64.3774 30.6125 65.238 31.5835 65.238C31.9355 65.238 32.3095 65.1203 32.5205 64.9079ZM32.8485 66.4751V65.8037C32.4625 66.2275 31.8885 66.452 31.3025 66.452C29.6875 66.452 28.7855 65.1907 28.7855 63.3638C28.7855 61.2429 29.9915 60.041 31.4315 60.041C32.0525 60.041 32.6255 60.347 32.9425 60.7124C32.9425 60.5946 32.9655 60.4537 32.9885 60.3591C33.0245 60.2172 33.0705 60.1588 33.2695 60.1588H33.9025C34.0545 60.1588 34.1365 60.194 34.1595 60.3239C34.2415 60.7124 34.2535 62.0441 34.2535 62.9521V66.3694C34.2535 67.3831 34.0305 68.137 33.5855 68.6081C33.1175 69.1033 32.3915 69.3509 31.4085 69.3509C30.8585 69.3509 30.2605 69.2684 29.7575 69.1265C29.6165 69.0912 29.5695 69.0087 29.6055 68.8436L29.7455 68.1602C29.7805 67.9951 29.8395 67.9488 30.0145 67.984C30.4955 68.0776 30.9165 68.137 31.2915 68.137C31.9355 68.137 32.3445 67.9719 32.5325 67.7364C32.7435 67.4888 32.8485 67.0881 32.8485 66.4751Z" fill="#E73245"/><path fill-rule="evenodd" clip-rule="evenodd" d="M36.9933 62.7278H39.6273C39.6043 61.9498 39.1713 61.2552 38.3983 61.2552C37.5903 61.2552 37.1103 61.8672 36.9933 62.7278ZM35.5183 63.364C35.5183 61.3609 36.6883 60.0413 38.3983 60.0413C40.1433 60.0413 41.0443 61.384 41.0443 63.211C41.0443 63.671 40.9623 63.7888 40.7983 63.7888H36.9813C37.1103 64.7783 37.6373 65.2735 38.6793 65.2735C39.1593 65.2735 39.7443 65.1205 40.2253 64.9081C40.3773 64.8377 40.4703 64.884 40.5293 65.0259L40.7633 65.6037C40.8223 65.7687 40.8103 65.8624 40.6583 65.9449C40.0843 66.2751 39.3113 66.4985 38.4803 66.4985C36.4663 66.4985 35.5183 65.1668 35.5183 63.364Z" fill="#E73245"/><path fill-rule="evenodd" clip-rule="evenodd" d="M46.4768 60.795C46.8628 60.3591 47.5308 60.041 48.2568 60.041C48.9468 60.041 49.5088 60.2766 49.8838 60.6772C50.2818 61.113 50.4458 61.6908 50.4458 62.6098V66.1923C50.4458 66.3221 50.3878 66.3805 50.2468 66.3805H49.2398C49.0998 66.3805 49.0408 66.3221 49.0408 66.1923V63.0698C49.0408 62.2092 48.9938 61.8911 48.7718 61.6314C48.5958 61.42 48.2798 61.3254 47.8698 61.3254C47.5418 61.3254 47.1558 61.42 46.9218 61.5962C46.7108 61.7492 46.6168 61.9384 46.5938 62.2917C46.5708 62.5867 46.5708 63.0809 46.5708 63.6114V66.1923C46.5708 66.3221 46.5118 66.3805 46.3718 66.3805H45.3648C45.2238 66.3805 45.1658 66.3221 45.1658 66.1923V62.5041C45.1658 61.5137 45.1068 60.5242 45.1068 60.347C45.1068 60.2172 45.1658 60.1588 45.3058 60.1588H46.1958C46.3478 60.1588 46.4068 60.2172 46.4298 60.3349C46.4538 60.4416 46.4648 60.6178 46.4768 60.795Z" fill="#E73245"/><path fill-rule="evenodd" clip-rule="evenodd" d="M55.9486 63.2226C55.9486 62.1033 55.5856 61.2668 54.6026 61.2668C53.6656 61.2668 53.1156 61.9613 53.1156 63.3172C53.1156 64.4365 53.4786 65.273 54.4616 65.273C55.3986 65.273 55.9486 64.5775 55.9486 63.2226ZM51.6636 63.3998C51.6636 61.2306 52.7526 60.0408 54.6376 60.0408C56.4056 60.0408 57.4006 61.1843 57.4006 63.1401C57.4006 65.3082 56.3116 66.499 54.4266 66.499C52.6586 66.499 51.6636 65.3556 51.6636 63.3998Z" fill="#E73245"/><path fill-rule="evenodd" clip-rule="evenodd" d="M60.3743 60.1587H61.8143C61.9433 60.1587 62.0023 60.2181 62.0023 60.3591V61.0778C62.0023 61.2197 61.9433 61.2781 61.8143 61.2781H60.3743V64.3069C60.3743 64.6954 60.4213 64.9551 60.5613 65.1081C60.6793 65.2501 60.8783 65.3084 61.1353 65.3084C61.3583 65.3084 61.6853 65.238 61.8843 65.1786C62.0483 65.1323 62.1193 65.1675 62.1653 65.3205L62.3293 65.8983C62.3763 66.0745 62.3293 66.1449 62.1773 66.2275C61.8963 66.3694 61.3463 66.4992 60.8543 66.4992C60.2573 66.4992 59.8003 66.3573 59.4963 66.0745C59.1453 65.7443 58.9693 65.1907 58.9693 64.4015V61.2781H58.1733C58.0443 61.2781 57.9863 61.2197 57.9863 61.0778V60.3591C57.9863 60.2181 58.0443 60.1587 58.1733 60.1587H58.9693V58.521C58.9693 58.3912 59.0283 58.3318 59.1683 58.3318H60.1753C60.3163 58.3318 60.3743 58.3912 60.3743 58.521V60.1587Z" fill="#E73245"/><path fill-rule="evenodd" clip-rule="evenodd" d="M65.6312 60.359C65.6312 60.2181 65.6892 60.1587 65.8182 60.1587H66.5562V59.7349C66.5562 58.0962 67.4932 57.2366 68.9802 57.2366C69.4482 57.2366 69.8812 57.3181 70.1502 57.4369C70.2912 57.4953 70.3492 57.5778 70.3142 57.7429L70.1622 58.3559C70.1272 58.4968 70.0452 58.5321 69.8692 58.4968C69.6352 58.4495 69.3782 58.4032 69.1202 58.4032C68.3822 58.4032 67.9612 58.827 67.9612 59.7581V60.1587H69.5302C69.6592 60.1587 69.7172 60.2181 69.7172 60.359V61.0777C69.7172 61.2196 69.6592 61.278 69.5302 61.278H67.9612V66.1922C67.9612 66.322 67.9022 66.3814 67.7622 66.3814H66.7552C66.6152 66.3814 66.5562 66.322 66.5562 66.1922V61.278H65.8182C65.6892 61.278 65.6312 61.2196 65.6312 61.0777V60.359Z" fill="#E73245"/><path fill-rule="evenodd" clip-rule="evenodd" d="M74.401 63.2226C74.401 62.1033 74.038 61.2668 73.055 61.2668C72.118 61.2668 71.568 61.9613 71.568 63.3172C71.568 64.4365 71.931 65.273 72.914 65.273C73.851 65.273 74.401 64.5775 74.401 63.2226ZM70.116 63.3998C70.116 61.2306 71.205 60.0408 73.09 60.0408C74.858 60.0408 75.853 61.1843 75.853 63.1401C75.853 65.3082 74.764 66.499 72.879 66.499C71.111 66.499 70.116 65.3556 70.116 63.3998Z" fill="#E73245"/><path fill-rule="evenodd" clip-rule="evenodd" d="M79.2248 66.4989C78.5458 66.4989 77.9838 66.2634 77.6208 65.8628C77.2348 65.4269 77.0708 64.8491 77.0708 63.9301V60.3477C77.0708 60.2178 77.1288 60.1584 77.2698 60.1584H78.2768C78.4168 60.1584 78.4758 60.2178 78.4758 60.3477V63.4701C78.4758 64.3308 78.5228 64.6488 78.7218 64.9075C78.9088 65.1199 79.2128 65.2145 79.6108 65.2145C79.9388 65.2145 80.3258 65.1199 80.5598 64.9438C80.7708 64.8018 80.8528 64.6136 80.8878 64.2482C80.9108 63.9533 80.9108 63.458 80.9108 62.9286V60.3477C80.9108 60.2178 80.9698 60.1584 81.1218 60.1584H82.1168C82.2568 60.1584 82.3158 60.2178 82.3158 60.3477V64.0358C82.3158 65.0263 82.3858 66.0158 82.3858 66.1929C82.3858 66.3218 82.3278 66.3812 82.1758 66.3812H81.2738C81.1218 66.3812 81.0748 66.3339 81.0518 66.1929L81.0048 65.745C80.6298 66.1809 79.9628 66.4989 79.2248 66.4989Z" fill="#E73245"/><path fill-rule="evenodd" clip-rule="evenodd" d="M85.278 60.795C85.664 60.3591 86.332 60.041 87.058 60.041C87.748 60.041 88.31 60.2766 88.685 60.6772C89.083 61.113 89.247 61.6908 89.247 62.6098V66.1923C89.247 66.3221 89.189 66.3805 89.048 66.3805H88.041C87.901 66.3805 87.842 66.3221 87.842 66.1923V63.0698C87.842 62.2092 87.795 61.8911 87.573 61.6314C87.397 61.42 87.081 61.3254 86.671 61.3254C86.343 61.3254 85.957 61.42 85.723 61.5962C85.512 61.7492 85.418 61.9384 85.395 62.2917C85.372 62.5867 85.372 63.0809 85.372 63.6114V66.1923C85.372 66.3221 85.313 66.3805 85.173 66.3805H84.166C84.025 66.3805 83.967 66.3221 83.967 66.1923V62.5041C83.967 61.5137 83.908 60.5242 83.908 60.347C83.908 60.2172 83.967 60.1588 84.107 60.1588H84.997C85.149 60.1588 85.208 60.2172 85.231 60.3349C85.255 60.4416 85.266 60.6178 85.278 60.795Z" fill="#E73245"/><path fill-rule="evenodd" clip-rule="evenodd" d="M94.5157 61.8202C94.2117 61.4548 93.7777 61.2666 93.3447 61.2666C92.4667 61.2666 91.9167 61.9974 91.9167 63.3291C91.9167 64.4011 92.3027 65.2849 93.2747 65.2849C93.6257 65.2849 93.9887 65.1671 94.1997 64.9547C94.4337 64.7192 94.5157 64.3659 94.5157 63.6935V61.8202ZM94.6207 65.7802C94.2577 66.216 93.5677 66.4989 92.9707 66.4989C91.3547 66.4989 90.4647 65.2144 90.4647 63.3875C90.4647 61.2666 91.6707 60.0406 93.1107 60.0406C93.6607 60.0406 94.1877 60.2409 94.5157 60.559V57.5422C94.5157 57.4124 94.5747 57.354 94.7147 57.354H95.7217C95.8617 57.354 95.9207 57.4124 95.9207 57.5422V64.837C95.9207 65.1319 96.0027 65.2497 96.2837 65.2849C96.4127 65.297 96.4597 65.3443 96.4597 65.4852V66.063C96.4597 66.2039 96.4127 66.2865 96.2607 66.3338C96.1317 66.3811 95.9087 66.4163 95.6627 66.4163C95.2297 66.4163 94.8087 66.2281 94.6207 65.7802Z" fill="#E73245"/></svg>