<svg viewBox="0 0 160 160" fill="none" xmlns="http://www.w3.org/2000/svg"><path d="M89.13 73.0201C87.8 72.5001 86.58 71.8201 85.49 71.0201L86.08 70.2201C88.21 71.8001 90.91 72.8401 93.9 73.2001C99.1 73.8401 104.5 72.4101 108 69.4601C109.54 68.1701 110.65 66.6301 111.3 64.9201C111.08 64.9201 110.86 64.9401 110.63 64.9401C106.57 64.9801 105.15 63.5801 104.66 62.4001C103.9 60.5401 105.03 58.3001 106.48 56.9001C107.93 55.5001 109.61 54.9801 110.86 55.5501C111.92 56.0301 113.15 57.5001 112.95 61.7401C112.92 62.4501 112.82 63.1301 112.67 63.8001C118.77 62.9801 121.93 58.8501 123.53 55.3401C126.94 47.8901 125.86 38.3001 123.46 35.4801L124.22 34.8401C125.61 36.4801 126.52 39.7901 126.66 43.7001C126.81 48.0001 126.02 52.2801 124.43 55.7501C122.68 59.5801 119.18 64.1101 112.37 64.8401C111.69 66.8801 110.42 68.7101 108.63 70.2201C104.93 73.3401 99.24 74.8601 93.77 74.1801C92.13 73.9801 90.56 73.5801 89.12 73.0101L89.13 73.0201ZM110.39 56.4401C109.53 56.1001 108.28 56.5601 107.18 57.6201C106.01 58.7501 105.01 60.6101 105.59 62.0301C106.11 63.3101 107.86 63.9801 110.63 63.9501C110.97 63.9501 111.31 63.9301 111.63 63.9101C111.82 63.2001 111.93 62.4601 111.97 61.7001C112.11 58.8301 111.57 56.9701 110.46 56.4701C110.44 56.4701 110.42 56.4501 110.4 56.4401H110.39Z" fill="#7070FD"/><path d="M83.05 63.9999C83.8343 63.9999 84.47 63.3642 84.47 62.5799C84.47 61.7957 83.8343 61.1599 83.05 61.1599C82.2658 61.1599 81.63 61.7957 81.63 62.5799C81.63 63.3642 82.2658 63.9999 83.05 63.9999Z" fill="#EB1E79"/><path d="M34.85 52.13C35.3636 52.13 35.78 51.7136 35.78 51.2C35.78 50.6864 35.3636 50.27 34.85 50.27C34.3364 50.27 33.92 50.6864 33.92 51.2C33.92 51.7136 34.3364 52.13 34.85 52.13Z" fill="#EB1E79"/><path d="M89.9 79.1401C90.3915 79.1401 90.79 78.7416 90.79 78.2501C90.79 77.7586 90.3915 77.3601 89.9 77.3601C89.4085 77.3601 89.01 77.7586 89.01 78.2501C89.01 78.7416 89.4085 79.1401 89.9 79.1401Z" fill="#EB1E79"/><path d="M95.43 103.58C95.9326 103.58 96.34 103.173 96.34 102.67C96.34 102.167 95.9326 101.76 95.43 101.76C94.9274 101.76 94.52 102.167 94.52 102.67C94.52 103.173 94.9274 103.58 95.43 103.58Z" fill="#EB1E79"/><path d="M84.11 101.46C84.6126 101.46 85.02 101.052 85.02 100.55C85.02 100.047 84.6126 99.6399 84.11 99.6399C83.6074 99.6399 83.2 100.047 83.2 100.55C83.2 101.052 83.6074 101.46 84.11 101.46Z" fill="#A9B6B7"/><path d="M61.47 74.0199C61.713 74.0199 61.91 73.8229 61.91 73.5799C61.91 73.3369 61.713 73.1399 61.47 73.1399C61.227 73.1399 61.03 73.3369 61.03 73.5799C61.03 73.8229 61.227 74.0199 61.47 74.0199Z" fill="#EB1E79"/><path d="M63.35 37.65C63.593 37.65 63.79 37.453 63.79 37.21C63.79 36.967 63.593 36.77 63.35 36.77C63.107 36.77 62.91 36.967 62.91 37.21C62.91 37.453 63.107 37.65 63.35 37.65Z" fill="#EB1E79"/><path d="M103.36 105.35C103.603 105.35 103.8 105.153 103.8 104.91C103.8 104.667 103.603 104.47 103.36 104.47C103.117 104.47 102.92 104.667 102.92 104.91C102.92 105.153 103.117 105.35 103.36 105.35Z" fill="#EB1E79"/><path d="M114.23 48.7001C114.672 48.7001 115.03 48.3419 115.03 47.9001C115.03 47.4583 114.672 47.1001 114.23 47.1001C113.788 47.1001 113.43 47.4583 113.43 47.9001C113.43 48.3419 113.788 48.7001 114.23 48.7001Z" fill="#EB1E79"/><path d="M57.19 50.07C58.1178 50.07 58.87 49.3178 58.87 48.39C58.87 47.4621 58.1178 46.71 57.19 46.71C56.2621 46.71 55.51 47.4621 55.51 48.39C55.51 49.3178 56.2621 50.07 57.19 50.07Z" fill="#EB1E79"/><path d="M91.97 26.3999C92.2517 26.3999 92.48 26.1715 92.48 25.8899C92.48 25.6082 92.2517 25.3799 91.97 25.3799C91.6883 25.3799 91.46 25.6082 91.46 25.8899C91.46 26.1715 91.6883 26.3999 91.97 26.3999Z" fill="#F9AE3B"/><path d="M44.02 52.41C44.4121 52.41 44.73 52.0921 44.73 51.7C44.73 51.3079 44.4121 50.99 44.02 50.99C43.6279 50.99 43.31 51.3079 43.31 51.7C43.31 52.0921 43.6279 52.41 44.02 52.41Z" fill="#A9B6B7"/><path d="M48.47 44.0799C48.9339 44.0799 49.31 43.7038 49.31 43.2399C49.31 42.776 48.9339 42.3999 48.47 42.3999C48.0061 42.3999 47.63 42.776 47.63 43.2399C47.63 43.7038 48.0061 44.0799 48.47 44.0799Z" fill="#F9AE3B"/><path d="M76.6 117.63C76.8817 117.63 77.11 117.402 77.11 117.12C77.11 116.838 76.8817 116.61 76.6 116.61C76.3183 116.61 76.09 116.838 76.09 117.12C76.09 117.402 76.3183 117.63 76.6 117.63Z" fill="#F9AE3B"/><path d="M108.06 92.5799C108.375 92.5799 108.63 92.3247 108.63 92.0099C108.63 91.6951 108.375 91.4399 108.06 91.4399C107.745 91.4399 107.49 91.6951 107.49 92.0099C107.49 92.3247 107.745 92.5799 108.06 92.5799Z" fill="#F9AE3B"/><path d="M93.16 61.6201C93.6571 61.6201 94.06 61.2171 94.06 60.7201C94.06 60.223 93.6571 59.8201 93.16 59.8201C92.663 59.8201 92.26 60.223 92.26 60.7201C92.26 61.2171 92.663 61.6201 93.16 61.6201Z" fill="#006931"/><path d="M63.35 95.82C63.4936 95.82 63.61 95.7036 63.61 95.56C63.61 95.4164 63.4936 95.3 63.35 95.3C63.2064 95.3 63.09 95.4164 63.09 95.56C63.09 95.7036 63.2064 95.82 63.35 95.82Z" fill="#006931"/><path d="M52.67 22.0999C53.2665 22.0999 53.75 21.6164 53.75 21.0199C53.75 20.4235 53.2665 19.9399 52.67 19.9399C52.0735 19.9399 51.59 20.4235 51.59 21.0199C51.59 21.6164 52.0735 22.0999 52.67 22.0999Z" fill="#006931"/><path d="M42.89 38.82C43.26 38.82 43.56 38.52 43.56 38.15C43.56 37.78 43.26 37.48 42.89 37.48C42.52 37.48 42.22 37.78 42.22 38.15C42.22 38.52 42.52 38.82 42.89 38.82Z" fill="#006931"/><path d="M55.3 114.69C55.6866 114.69 56 114.377 56 113.99C56 113.603 55.6866 113.29 55.3 113.29C54.9134 113.29 54.6 113.603 54.6 113.99C54.6 114.377 54.9134 114.69 55.3 114.69Z" fill="#006931"/><path d="M127.26 25.5201C127.647 25.5201 127.96 25.2067 127.96 24.8201C127.96 24.4335 127.647 24.1201 127.26 24.1201C126.873 24.1201 126.56 24.4335 126.56 24.8201C126.56 25.2067 126.873 25.5201 127.26 25.5201Z" fill="#006931"/><path d="M91.56 109.38C92.0791 109.38 92.5 108.959 92.5 108.44C92.5 107.921 92.0791 107.5 91.56 107.5C91.0408 107.5 90.62 107.921 90.62 108.44C90.62 108.959 91.0408 109.38 91.56 109.38Z" fill="#F4E3CB"/><path d="M69.52 69.3699C70.2766 69.3699 70.89 68.7565 70.89 67.9999C70.89 67.2433 70.2766 66.6299 69.52 66.6299C68.7634 66.6299 68.15 67.2433 68.15 67.9999C68.15 68.7565 68.7634 69.3699 69.52 69.3699Z" fill="#006931"/><path d="M60.76 31.2201C61.1411 31.2201 61.45 30.9112 61.45 30.5301C61.45 30.149 61.1411 29.8401 60.76 29.8401C60.3789 29.8401 60.07 30.149 60.07 30.5301C60.07 30.9112 60.3789 31.2201 60.76 31.2201Z" fill="#B8BE98"/><path d="M89.7 95.1299C90.313 95.1299 90.81 94.6329 90.81 94.0199C90.81 93.4069 90.313 92.9099 89.7 92.9099C89.087 92.9099 88.59 93.4069 88.59 94.0199C88.59 94.6329 89.087 95.1299 89.7 95.1299Z" fill="#7070FD"/><path d="M105.27 85.2699C105.706 85.2699 106.06 84.9162 106.06 84.4799C106.06 84.0436 105.706 83.6899 105.27 83.6899C104.834 83.6899 104.48 84.0436 104.48 84.4799C104.48 84.9162 104.834 85.2699 105.27 85.2699Z" fill="#7070FD"/><path d="M98.41 56.6301C98.7027 56.6301 98.94 56.3928 98.94 56.1001C98.94 55.8074 98.7027 55.5701 98.41 55.5701C98.1173 55.5701 97.88 55.8074 97.88 56.1001C97.88 56.3928 98.1173 56.6301 98.41 56.6301Z" fill="#F9AE3B"/><path d="M108.46 28.77C108.753 28.77 108.99 28.5327 108.99 28.24C108.99 27.9473 108.753 27.71 108.46 27.71C108.167 27.71 107.93 27.9473 107.93 28.24C107.93 28.5327 108.167 28.77 108.46 28.77Z" fill="#F9AE3B"/><path d="M67.33 44.0899C67.8712 44.0899 68.31 43.6511 68.31 43.1099C68.31 42.5686 67.8712 42.1299 67.33 42.1299C66.7887 42.1299 66.35 42.5686 66.35 43.1099C66.35 43.6511 66.7887 44.0899 67.33 44.0899Z" fill="#7070FD"/><path d="M75.62 62.2901C76.1612 62.2901 76.6 61.8513 76.6 61.3101C76.6 60.7688 76.1612 60.3301 75.62 60.3301C75.0787 60.3301 74.64 60.7688 74.64 61.3101C74.64 61.8513 75.0787 62.2901 75.62 62.2901Z" fill="#3564C6"/><path d="M60.97 87.74C61.7211 87.74 62.33 87.1311 62.33 86.38C62.33 85.6289 61.7211 85.02 60.97 85.02C60.2189 85.02 59.61 85.6289 59.61 86.38C59.61 87.1311 60.2189 87.74 60.97 87.74Z" fill="#7070FD"/><path d="M113.33 26.76C114.081 26.76 114.69 26.1511 114.69 25.4C114.69 24.6489 114.081 24.04 113.33 24.04C112.579 24.04 111.97 24.6489 111.97 25.4C111.97 26.1511 112.579 26.76 113.33 26.76Z" fill="#7070FD"/><path d="M28.05 30.6701C29.0993 30.6701 29.95 29.8195 29.95 28.7701C29.95 27.7208 29.0993 26.8701 28.05 26.8701C27.0007 26.8701 26.15 27.7208 26.15 28.7701C26.15 29.8195 27.0007 30.6701 28.05 30.6701Z" fill="#7070FD"/><path d="M96.41 21.1301C97.4594 21.1301 98.31 20.2794 98.31 19.2301C98.31 18.1807 97.4594 17.3301 96.41 17.3301C95.3607 17.3301 94.51 18.1807 94.51 19.2301C94.51 20.2794 95.3607 21.1301 96.41 21.1301Z" fill="#EB1E79"/><path d="M122.34 50.0601C122.677 50.0601 122.95 49.787 122.95 49.4501C122.95 49.1132 122.677 48.8401 122.34 48.8401C122.003 48.8401 121.73 49.1132 121.73 49.4501C121.73 49.787 122.003 50.0601 122.34 50.0601Z" fill="#7070FD"/><path d="M59.61 23.3999C59.9469 23.3999 60.22 23.1268 60.22 22.7899C60.22 22.453 59.9469 22.1799 59.61 22.1799C59.2731 22.1799 59 22.453 59 22.7899C59 23.1268 59.2731 23.3999 59.61 23.3999Z" fill="#EB1E79"/><path d="M45.65 30.39C45.8212 30.39 45.96 30.2512 45.96 30.08C45.96 29.9088 45.8212 29.77 45.65 29.77C45.4788 29.77 45.34 29.9088 45.34 30.08C45.34 30.2512 45.4788 30.39 45.65 30.39Z" fill="#7070FD"/><path d="M55.87 39.35C56.3781 39.35 56.79 38.9381 56.79 38.43C56.79 37.9219 56.3781 37.51 55.87 37.51C55.3619 37.51 54.95 37.9219 54.95 38.43C54.95 38.9381 55.3619 39.35 55.87 39.35Z" fill="#232144"/><path d="M69.83 96.05C70.3381 96.05 70.75 95.6381 70.75 95.13C70.75 94.6219 70.3381 94.21 69.83 94.21C69.3219 94.21 68.91 94.6219 68.91 95.13C68.91 95.6381 69.3219 96.05 69.83 96.05Z" fill="#232144"/><path d="M47.77 92.5899C48.2284 92.5899 48.6 92.2183 48.6 91.7599C48.6 91.3015 48.2284 90.9299 47.77 90.9299C47.3116 90.9299 46.94 91.3015 46.94 91.7599C46.94 92.2183 47.3116 92.5899 47.77 92.5899Z" fill="#F4E3CB"/><path d="M114.21 38.98C114.696 38.98 115.09 38.586 115.09 38.1C115.09 37.614 114.696 37.22 114.21 37.22C113.724 37.22 113.33 37.614 113.33 38.1C113.33 38.586 113.724 38.98 114.21 38.98Z" fill="#232144"/><path d="M97.88 113.28C98.0622 113.28 98.21 113.132 98.21 112.95C98.21 112.768 98.0622 112.62 97.88 112.62C97.6977 112.62 97.55 112.768 97.55 112.95C97.55 113.132 97.6977 113.28 97.88 113.28Z" fill="#232144"/><path d="M78.97 90.94C79.1522 90.94 79.3 90.7923 79.3 90.61C79.3 90.4278 79.1522 90.28 78.97 90.28C78.7877 90.28 78.64 90.4278 78.64 90.61C78.64 90.7923 78.7877 90.94 78.97 90.94Z" fill="#006931"/><path d="M78.43 98.9401C78.673 98.9401 78.87 98.7431 78.87 98.5001C78.87 98.2571 78.673 98.0601 78.43 98.0601C78.187 98.0601 77.99 98.2571 77.99 98.5001C77.99 98.7431 78.187 98.9401 78.43 98.9401Z" fill="#232144"/><path d="M86.88 56.71C87.6974 56.71 88.36 56.0474 88.36 55.23C88.36 54.4126 87.6974 53.75 86.88 53.75C86.0626 53.75 85.4 54.4126 85.4 55.23C85.4 56.0474 86.0626 56.71 86.88 56.71Z" fill="#F4E3CB"/><path d="M30.88 37.4099C31.2279 37.4099 31.51 37.1278 31.51 36.7799C31.51 36.432 31.2279 36.1499 30.88 36.1499C30.5321 36.1499 30.25 36.432 30.25 36.7799C30.25 37.1278 30.5321 37.4099 30.88 37.4099Z" fill="#232144"/><path d="M42 45.6601C42.37 45.6601 42.67 45.3601 42.67 44.9901C42.67 44.62 42.37 44.3201 42 44.3201C41.63 44.3201 41.33 44.62 41.33 44.9901C41.33 45.3601 41.63 45.6601 42 45.6601Z" fill="#B8BE98"/><path d="M59.17 103.9C59.5124 103.9 59.79 103.622 59.79 103.28C59.79 102.937 59.5124 102.66 59.17 102.66C58.8276 102.66 58.55 102.937 58.55 103.28C58.55 103.622 58.8276 103.9 59.17 103.9Z" fill="#B8BE98"/><path d="M55.06 88.86C55.2202 88.86 55.35 88.7302 55.35 88.57C55.35 88.4099 55.2202 88.28 55.06 88.28C54.8998 88.28 54.77 88.4099 54.77 88.57C54.77 88.7302 54.8998 88.86 55.06 88.86Z" fill="#B8BE98"/><path d="M87.91 88.05C88.269 88.05 88.56 87.759 88.56 87.4C88.56 87.041 88.269 86.75 87.91 86.75C87.551 86.75 87.26 87.041 87.26 87.4C87.26 87.759 87.551 88.05 87.91 88.05Z" fill="#B8BE98"/><path d="M105.19 19.1701C105.422 19.1701 105.61 18.982 105.61 18.7501C105.61 18.5181 105.422 18.3301 105.19 18.3301C104.958 18.3301 104.77 18.5181 104.77 18.7501C104.77 18.982 104.958 19.1701 105.19 19.1701Z" fill="#B8BE98"/><path d="M78.97 49.11C79.2019 49.11 79.39 48.922 79.39 48.69C79.39 48.4581 79.2019 48.27 78.97 48.27C78.738 48.27 78.55 48.4581 78.55 48.69C78.55 48.922 78.738 49.11 78.97 49.11Z" fill="#F9AE3B"/><path d="M51.3 58.33C51.5319 58.33 51.72 58.1419 51.72 57.91C51.72 57.678 51.5319 57.49 51.3 57.49C51.068 57.49 50.88 57.678 50.88 57.91C50.88 58.1419 51.068 58.33 51.3 58.33Z" fill="#F9AE3B"/><path d="M36.47 27.4401C36.7019 27.4401 36.89 27.2521 36.89 27.0201C36.89 26.7881 36.7019 26.6001 36.47 26.6001C36.238 26.6001 36.05 26.7881 36.05 27.0201C36.05 27.2521 36.238 27.4401 36.47 27.4401Z" fill="#F9AE3B"/><path d="M84.58 46.6301C84.9279 46.6301 85.21 46.3481 85.21 46.0001C85.21 45.6522 84.9279 45.3701 84.58 45.3701C84.232 45.3701 83.95 45.6522 83.95 46.0001C83.95 46.3481 84.232 46.6301 84.58 46.6301Z" fill="#B8BE98"/><path d="M106.444 35.931L97.8588 40.7803L98.2719 41.5117L106.857 36.6624L106.444 35.931Z" fill="#EB1E79"/><path d="M67.4093 70.7731L65.875 70.4907L64.0212 80.5615L65.5555 80.8439L67.4093 70.7731Z" fill="#EB1E79"/><path d="M88.4928 66.4023L88.2422 67.7085L98.0533 69.5907L98.3039 68.2845L88.4928 66.4023Z" fill="#006931"/><path d="M49.84 98.5401C50.38 98.5701 50.65 98.6001 51.2 98.7001C53.42 97.0001 55.47 97.9901 59.28 92.6101C59.23 91.9501 59.19 91.6401 59.08 91.0601C54.4 97.0801 51.9 96.1101 49.84 98.5501V98.5401Z" fill="#006931"/><path d="M53.03 32.08C53.8695 32.08 54.55 31.3995 54.55 30.56C54.55 29.7206 53.8695 29.04 53.03 29.04C52.1905 29.04 51.51 29.7206 51.51 30.56C51.51 31.3995 52.1905 32.08 53.03 32.08Z" fill="#F4E3CB"/><path d="M54.35 67.9599C55.1895 67.9599 55.87 67.2794 55.87 66.4399C55.87 65.6005 55.1895 64.9199 54.35 64.9199C53.5105 64.9199 52.83 65.6005 52.83 66.4399C52.83 67.2794 53.5105 67.9599 54.35 67.9599Z" fill="#F4E3CB"/><path d="M78.87 71.64C79.3229 71.64 79.69 71.2729 79.69 70.82C79.69 70.3671 79.3229 70 78.87 70C78.4171 70 78.05 70.3671 78.05 70.82C78.05 71.2729 78.4171 71.64 78.87 71.64Z" fill="#F9AE3B"/><path d="M70.55 80.19C70.9421 80.19 71.26 79.8721 71.26 79.48C71.26 79.0879 70.9421 78.77 70.55 78.77C70.1579 78.77 69.84 79.0879 69.84 79.48C69.84 79.8721 70.1579 80.19 70.55 80.19Z" fill="#7070FD"/><path d="M69.19 87.7899C69.3722 87.7899 69.52 87.6421 69.52 87.4599C69.52 87.2776 69.3722 87.1299 69.19 87.1299C69.0077 87.1299 68.86 87.2776 68.86 87.4599C68.86 87.6421 69.0077 87.7899 69.19 87.7899Z" fill="#232144"/><path d="M71.66 82.7101C71.892 82.7101 72.08 82.5221 72.08 82.2901C72.08 82.0582 71.892 81.8701 71.66 81.8701C71.428 81.8701 71.24 82.0582 71.24 82.2901C71.24 82.5221 71.428 82.7101 71.66 82.7101Z" fill="#B8BE98"/><path d="M80.82 82.65C81.2729 82.65 81.64 82.2829 81.64 81.83C81.64 81.3771 81.2729 81.01 80.82 81.01C80.3671 81.01 80 81.3771 80 81.83C80 82.2829 80.3671 82.65 80.82 82.65Z" fill="#F4E3CB"/><path d="M88.81 94.3199C89.2021 94.3199 89.52 94.002 89.52 93.6099C89.52 93.2178 89.2021 92.8999 88.81 92.8999C88.4179 92.8999 88.1 93.2178 88.1 93.6099C88.1 94.002 88.4179 94.3199 88.81 94.3199Z" fill="#F9AE3B"/><path d="M63.74 48.5701C62.79 48.9201 62.6 49.2201 62.3 49.7501C65.1 53.1201 60.55 61.5601 64.52 59.5401C65.23 58.9301 65.55 58.7001 65.79 58.5401C63.07 57.8201 67.46 53.1901 63.75 48.5701H63.74Z" fill="#F9AE3B"/><path d="M98.138 79.1758L96.1311 79.7593L98.4453 87.7197L100.452 87.1363L98.138 79.1758Z" fill="#F9AE3B"/><path d="M97.9418 24.9956L97.8105 31.7144L99.7001 31.7513L99.8314 25.0326L97.9418 24.9956Z" fill="#232144"/><path d="M93.6418 45.4683L92.651 46.9351L99.1807 51.3461L100.172 49.8794L93.6418 45.4683Z" fill="#232144"/><path d="M71.1883 50.8188L70.4865 52.4763L72.144 53.1782L72.8459 51.5207L71.1883 50.8188Z" fill="#232144"/><path d="M91.74 38.7401C92.0658 38.7401 92.33 38.4759 92.33 38.1501C92.33 37.8242 92.0658 37.5601 91.74 37.5601C91.4141 37.5601 91.15 37.8242 91.15 38.1501C91.15 38.4759 91.4141 38.7401 91.74 38.7401Z" fill="#232144"/><path d="M106.58 44.9699C107.072 44.9699 107.47 44.5715 107.47 44.0799C107.47 43.5884 107.072 43.1899 106.58 43.1899C106.088 43.1899 105.69 43.5884 105.69 44.0799C105.69 44.5715 106.088 44.9699 106.58 44.9699Z" fill="#A9B6B7"/><path d="M68.71 110.22C69.2015 110.22 69.6 109.821 69.6 109.33C69.6 108.838 69.2015 108.44 68.71 108.44C68.2185 108.44 67.82 108.838 67.82 109.33C67.82 109.821 68.2185 110.22 68.71 110.22Z" fill="#232144"/><path d="M58.43 76.1599C58.916 76.1599 59.31 75.7659 59.31 75.2799C59.31 74.7939 58.916 74.3999 58.43 74.3999C57.944 74.3999 57.55 74.7939 57.55 75.2799C57.55 75.7659 57.944 76.1599 58.43 76.1599Z" fill="#232144"/><path d="M85.769 107.422L75.9321 106.748L75.8746 107.586L85.7116 108.26L85.769 107.422Z" fill="#EB1E79"/><path d="M50.79 82.1599C51.2815 82.1599 51.68 81.7614 51.68 81.2699C51.68 80.7783 51.2815 80.3799 50.79 80.3799C50.2985 80.3799 49.9 80.7783 49.9 81.2699C49.9 81.7614 50.2985 82.1599 50.79 82.1599Z" fill="#A9B6B7"/><path d="M73.24 21.8499C73.6984 21.8499 74.07 21.4783 74.07 21.0199C74.07 20.5615 73.6984 20.1899 73.24 20.1899C72.7816 20.1899 72.41 20.5615 72.41 21.0199C72.41 21.4783 72.7816 21.8499 73.24 21.8499Z" fill="#EB1E79"/><path d="M78.97 27.3901C79.4063 27.3901 79.76 27.0364 79.76 26.6001C79.76 26.1638 79.4063 25.8101 78.97 25.8101C78.5337 25.8101 78.18 26.1638 78.18 26.6001C78.18 27.0364 78.5337 27.3901 78.97 27.3901Z" fill="#7070FD"/><path d="M66.71 17.66C67.1684 17.66 67.54 17.2884 67.54 16.83C67.54 16.3716 67.1684 16 66.71 16C66.2516 16 65.88 16.3716 65.88 16.83C65.88 17.2884 66.2516 17.66 66.71 17.66Z" fill="#F4E3CB"/><path d="M65.47 29.99C65.9615 29.99 66.36 29.5915 66.36 29.1C66.36 28.6084 65.9615 28.21 65.47 28.21C64.9785 28.21 64.58 28.6084 64.58 29.1C64.58 29.5915 64.9785 29.99 65.47 29.99Z" fill="#F9AE3B"/><path d="M57.72 54.0801C58.2115 54.0801 58.61 53.6816 58.61 53.19C58.61 52.6985 58.2115 52.3 57.72 52.3C57.2285 52.3 56.83 52.6985 56.83 53.19C56.83 53.6816 57.2285 54.0801 57.72 54.0801Z" fill="#A9B6B7"/><path d="M42.89 22.03C43.3815 22.03 43.78 21.6315 43.78 21.14C43.78 20.6485 43.3815 20.25 42.89 20.25C42.3985 20.25 42 20.6485 42 21.14C42 21.6315 42.3985 22.03 42.89 22.03Z" fill="#A9B6B7"/><path d="M84.54 32.5601C85.61 35.1401 86.14 36.4301 87.21 39.0101C87.47 38.4301 87.62 38.1401 87.93 37.5301C87.44 35.7301 87.19 34.8401 86.7 33.0401C85.86 32.8401 85.42 32.7401 84.53 32.5601H84.54Z" fill="#B8BE98"/><path d="M75.26 74.8501C74.89 77.6201 74.71 79.0001 74.34 81.7701C74.86 81.4001 75.13 81.2201 75.71 80.8601C76.19 79.0601 76.42 78.1601 76.9 76.3601C76.27 75.7601 75.95 75.4601 75.26 74.8501Z" fill="#B8BE98"/><path d="M101.324 90.4445L99.6221 97.3787L101.244 97.7767L102.946 90.8425L101.324 90.4445Z" fill="#7070FD"/><path d="M71.48 36.5901C73 36.6101 74.41 37.5101 75.06 38.8901L76.25 41.4101L79.76 41.4401L77.92 37.5401C77.34 36.3201 76.44 35.3001 75.31 34.5701C74.58 34.1001 73.77 33.7701 72.93 33.5901L71.49 36.5901H71.48Z" fill="#7070FD"/><path d="M82.06 18.3201C82.06 18.3201 82.28 17.1101 82.95 16.8601C82.95 16.8601 85.32 17.3101 86.71 21.1401C88.1 24.9701 88.45 25.0901 89.32 25.0301L87.56 27.2801C87.56 27.2801 86.57 27.1401 85.86 24.7601C85.15 22.3801 84.23 18.8501 82.06 18.3201Z" fill="#006931"/><path d="M120.59 27.1499C120.59 27.1499 121.7 27.0799 122.06 27.6199C122.06 27.6199 122.17 29.7899 119.13 31.8199C116.09 33.8499 116.05 34.1999 116.29 34.9399L113.94 33.8799C113.94 33.8799 113.85 32.9799 115.78 31.8499C117.71 30.7199 120.6 29.1499 120.59 27.1399V27.1499Z" fill="#B8BE98"/><path d="M45.08 56.94L48.82 75.56L41.67 77.01L37.93 58.39C37.53 56.42 38.8 54.49 40.78 54.09C42.75 53.69 44.68 54.96 45.08 56.94Z" fill="#EEA46D"/><path d="M48.4 63.3398L52.14 70.4998C52.55 71.3098 52.61 72.2498 52.3 73.0998C50.64 77.7098 47.53 85.7598 45.16 88.9398L53.65 143.99H30.66L21.63 87.1998C20.11 85.0098 19.52 82.4198 18.95 79.8098L16.59 66.7998L43.49 65.1898" fill="#F0A86B"/><path d="M26.22 57.4699H26.17C24.13 57.8799 22.8 59.8599 23.2 61.8899L25.47 73.4299C25.87 75.4699 27.85 76.7999 29.89 76.3999H29.94C31.98 75.9899 33.31 74.0099 32.91 71.9699L30.64 60.4299C30.24 58.3899 28.26 57.0599 26.22 57.4599V57.4699Z" fill="#EEA46D"/><path d="M19.12 59.8201H19.07C17.07 60.2201 15.68 62.0901 16.05 63.9801L18.2 74.6501C18.57 76.5401 20.49 77.7501 22.49 77.3501H22.54C24.54 76.9501 25.86 75.1001 25.5 73.2101L23.41 62.5201C23.04 60.6301 21.12 59.4201 19.12 59.8201Z" fill="#EEA46D"/><path d="M33.65 56H33.6C31.56 56.41 30.23 58.39 30.63 60.43L32.9 71.97C33.3 74.01 35.27 75.34 37.32 74.94H37.37C39.41 74.53 40.74 72.55 40.34 70.52L38.07 58.98C37.67 56.94 35.69 55.61 33.65 56.01V56Z" fill="#EEA46D"/><path d="M40.56 70.33L38.33 58.74L37.66 58.87L39.89 70.46C40.25 72.31 38.95 74.32 37.15 74.68C36.34 74.84 35.55 74.68 34.85 74.22C34.08 73.7 33.52 72.85 33.34 71.87L30.97 60.43L30.3 60.57L32.66 72.01C32.66 72.01 32.68 72.1 32.69 72.15H32.68C33.02 73.94 31.72 75.77 29.84 76.15C28.96 76.33 28.07 76.15 27.33 75.65C26.58 75.15 26.07 74.38 25.9 73.48L23.57 62.13L22.9 62.27L24.54 70.29H24.51L24.97 72.71C25.33 74.57 24.34 76.07 22.47 76.45C21.61 76.62 20.73 76.45 19.99 75.95C19.23 75.44 18.72 74.66 18.54 73.75L16.72 63.84L16.05 63.96L17.88 73.88C18.09 74.97 18.71 75.91 19.62 76.52C20.28 76.96 21.04 77.19 21.83 77.19C22.1 77.19 22.38 77.16 22.66 77.11C24.13 76.81 25.17 75.88 25.56 74.62C25.87 75.26 26.34 75.82 26.95 76.22C27.85 76.82 28.92 77.04 29.98 76.82C31.66 76.48 32.95 75.16 33.32 73.62C33.63 74.09 34.02 74.49 34.48 74.8C35.31 75.36 36.31 75.56 37.29 75.36C39.47 74.92 41 72.58 40.56 70.34V70.33Z" fill="#E3944F"/><path d="M29.99 68.42V68.47C30.41 70.51 32.4 71.82 34.44 71.41L45.97 69.07C48 68.66 49.32 66.67 48.91 64.64V64.59C48.49 62.55 46.5 61.24 44.46 61.65L32.93 63.99C30.89 64.4 29.58 66.39 29.99 68.43V68.42Z" fill="#EEA46D"/><path d="M46.1 68.91C46.1 68.91 34.46 68.61 32.92 81.27L46.1 68.91Z" fill="#EEA46D"/><path d="M39.77 69.82C39.61 69.9 39.44 69.99 39.27 70.08L34.37 71.08C32.52 71.45 30.72 70.26 30.33 68.36C29.96 66.51 31.16 64.7 33 64.33L46.04 61.69L45.9 61.02L32.86 63.66C30.64 64.11 29.2 66.28 29.66 68.55C30.06 70.49 31.77 71.84 33.68 71.84C33.95 71.84 34.22 71.81 34.5 71.76L37.67 71.12C35.32 72.88 33.03 75.89 32.41 81.03L33.09 81.11C33.79 75.34 36.59 72.33 39.4 70.76L39.74 70.6L40.05 70.42C42.95 69.02 45.68 69.05 45.91 69.05L45.93 68.36C45.81 68.36 42.9 68.3 39.76 69.82H39.77Z" fill="#E3944F"/><path d="M114.92 56.94L111.18 75.56L118.33 77.01L122.07 58.39C122.47 56.42 121.2 54.49 119.22 54.09C117.25 53.69 115.32 54.96 114.92 56.94Z" fill="#EEA46D"/><path d="M111.6 63.3398L107.86 70.4998C107.45 71.3098 107.39 72.2498 107.7 73.0998C109.36 77.7098 112.47 85.7598 114.84 88.9398L106.35 143.99H129.34L138.37 87.1998C139.89 85.0098 140.48 82.4198 141.05 79.8098L143.41 66.7998L116.51 65.1898" fill="#EEA46D"/><path d="M133.78 57.4699H133.83C135.87 57.8799 137.2 59.8599 136.8 61.8899L134.53 73.4299C134.13 75.4699 132.15 76.7999 130.11 76.3999H130.06C128.02 75.9899 126.69 74.0099 127.09 71.9699L129.36 60.4299C129.76 58.3899 131.74 57.0599 133.78 57.4599V57.4699Z" fill="#EEA46D"/><path d="M140.88 59.8201H140.93C142.93 60.2201 144.32 62.0901 143.95 63.9801L141.8 74.6501C141.43 76.5401 139.51 77.7501 137.51 77.3501H137.46C135.46 76.9501 134.14 75.1001 134.5 73.2101L136.59 62.5201C136.96 60.6301 138.88 59.4201 140.88 59.8201Z" fill="#EEA46D"/><path d="M126.35 56H126.4C128.44 56.41 129.77 58.39 129.37 60.43L127.1 71.97C126.7 74.01 124.73 75.34 122.68 74.94H122.63C120.59 74.53 119.26 72.55 119.66 70.52L121.93 58.98C122.33 56.94 124.31 55.61 126.35 56.01V56Z" fill="#EEA46D"/><path d="M119.44 70.33L121.67 58.74L122.34 58.87L120.11 70.46C119.75 72.31 121.05 74.32 122.85 74.68C123.66 74.84 124.45 74.68 125.15 74.22C125.92 73.7 126.48 72.85 126.66 71.87L129.03 60.43L129.7 60.57L127.34 72.01C127.34 72.01 127.32 72.1 127.31 72.15H127.32C126.98 73.94 128.28 75.77 130.16 76.15C131.04 76.33 131.93 76.15 132.67 75.65C133.42 75.15 133.93 74.38 134.1 73.48L136.43 62.13L137.1 62.27L135.46 70.29H135.49L135.03 72.71C134.67 74.57 135.66 76.07 137.53 76.45C138.39 76.62 139.27 76.45 140.01 75.95C140.77 75.44 141.28 74.66 141.46 73.75L143.28 63.84L143.95 63.96L142.12 73.88C141.91 74.97 141.29 75.91 140.38 76.52C139.72 76.96 138.96 77.19 138.17 77.19C137.9 77.19 137.62 77.16 137.34 77.11C135.87 76.81 134.83 75.88 134.44 74.62C134.13 75.26 133.66 75.82 133.05 76.22C132.15 76.82 131.08 77.04 130.02 76.82C128.34 76.48 127.05 75.16 126.68 73.62C126.37 74.09 125.98 74.49 125.52 74.8C124.69 75.36 123.69 75.56 122.71 75.36C120.53 74.92 119 72.58 119.44 70.34V70.33Z" fill="#E3944F"/><path d="M130.01 68.42V68.47C129.59 70.51 127.6 71.82 125.56 71.41L114.03 69.07C112 68.66 110.68 66.67 111.09 64.64V64.59C111.51 62.55 113.5 61.24 115.54 61.65L127.07 63.99C129.11 64.4 130.42 66.39 130.01 68.43V68.42Z" fill="#EEA46D"/><path d="M113.9 68.91C113.9 68.91 125.54 68.61 127.08 81.27L113.9 68.91Z" fill="#EEA46D"/><path d="M120.23 69.82C120.39 69.9 120.56 69.99 120.73 70.08L125.63 71.08C127.48 71.45 129.28 70.26 129.67 68.36C130.04 66.51 128.84 64.7 127 64.33L113.96 61.69L114.1 61.02L127.14 63.66C129.36 64.11 130.8 66.28 130.34 68.55C129.94 70.49 128.23 71.84 126.32 71.84C126.05 71.84 125.78 71.81 125.5 71.76L122.33 71.12C124.68 72.88 126.97 75.89 127.59 81.03L126.91 81.11C126.21 75.34 123.41 72.33 120.6 70.76L120.26 70.6L119.95 70.42C117.05 69.02 114.32 69.05 114.09 69.05L114.07 68.36C114.19 68.36 117.1 68.3 120.24 69.82H120.23Z" fill="#E3944F"/></svg>