<svg viewBox="0 0 160 160" fill="none" xmlns="http://www.w3.org/2000/svg"><path fill-rule="evenodd" clip-rule="evenodd" d="M130.806 134.658H47.7534V107.907C47.7534 102.881 51.8459 98.8071 56.8952 98.8071H121.665C126.713 98.8071 130.806 102.881 130.806 107.907V134.658Z" fill="#F68D3D"/><path fill-rule="evenodd" clip-rule="evenodd" d="M117.536 101.138H61.0245V86.1774C61.0245 81.1515 65.117 77.0762 70.1653 77.0762H108.395C113.443 77.0762 117.536 81.1515 117.536 86.1774V101.138Z" fill="#F68D3D"/><path fill-rule="evenodd" clip-rule="evenodd" d="M92.5961 37.3859L83.5162 36.5821L83.5291 36.5782C83.5291 36.5782 80.2649 36.1832 78.8296 35.9064C76.5103 35.4579 77.3216 32.5931 79.3101 32.7023C80.5749 32.7708 87.811 33.2312 87.9276 33.2381L91.9443 33.5438L94.6583 38.2154C94.0882 37.757 93.3806 37.4553 92.5961 37.3859ZM107.158 31.1861C103.664 28.7163 95.656 23.0573 93.8689 21.7941C93.6327 21.6274 93.3576 21.5312 93.0686 21.5113L70.7324 20.005C70.2909 19.9752 69.8503 20.0784 69.4676 20.3017L53.1097 29.8525L17 48.3447V78.9527L33.7407 66.4549L63.3149 45.734C63.6139 45.5246 63.9588 45.3906 64.3206 45.342L76.618 43.6909C76.8362 43.6621 77.0575 43.6571 77.2768 43.676L91.1878 44.9084C92.7935 45.0503 94.4072 44.4242 95.3889 43.1521C96.1235 42.2014 96.1514 41.354 96.0168 40.5543L96.1036 40.7031C97.1431 42.4922 99.4236 43.2781 101.264 42.3235C103.019 41.4136 103.738 39.3714 103.071 37.6082C104.897 38.7245 107.341 38.1569 108.424 36.2011C109.373 34.4854 108.762 32.3193 107.158 31.1861Z" fill="#BF7461"/><path fill-rule="evenodd" clip-rule="evenodd" d="M91.1014 59.5988C90.7525 59.5988 90.4196 59.3984 90.2661 59.062C88.0764 54.2097 90.3788 50.064 92.41 46.4064C94.6058 42.4541 95.7171 40.1044 93.0529 37.7795C92.6732 37.448 92.6353 36.8735 92.9682 36.4945C93.3011 36.1164 93.8792 36.0807 94.2579 36.4101C98.16 39.8156 96.05 43.6141 94.0107 47.2865C92.0971 50.7318 90.1186 54.2931 91.9346 58.3158C92.1419 58.7742 91.9356 59.313 91.4751 59.5194C91.3535 59.573 91.2269 59.5988 91.1014 59.5988Z" fill="#7B446C"/><path fill-rule="evenodd" clip-rule="evenodd" d="M98.2638 60.161C98.2638 56.7128 95.4561 53.9175 91.9925 53.9175C91.4543 53.9175 90.935 53.9929 90.4367 54.1199C89.429 52.5184 87.6459 51.4507 85.6076 51.4507C83.8465 51.4507 82.2727 52.2465 81.2261 53.4968C77.6031 56.7753 77.9679 64.395 81.261 68.002C84.5531 71.609 90.1437 71.857 93.7826 68.5974C95.6285 66.9442 96.9312 65.1829 97.6399 63.5109C97.9329 62.8193 98.1243 62.1426 98.211 61.4956C98.2578 61.1413 98.2648 60.799 98.2489 60.4646C98.2529 60.3634 98.2638 60.2632 98.2638 60.161Z" fill="#E73245"/><path fill-rule="evenodd" clip-rule="evenodd" d="M63.7538 98.8362C63.7538 95.8841 66.1578 93.4907 69.123 93.4907C72.0882 93.4907 74.4913 95.8841 74.4913 98.8362" fill="#FFE3C7"/><path fill-rule="evenodd" clip-rule="evenodd" d="M71.8053 98.8362C71.8053 95.8841 74.2094 93.4907 77.1746 93.4907C80.1398 93.4907 82.5428 95.8841 82.5428 98.8362" fill="#FFE3C7"/><path fill-rule="evenodd" clip-rule="evenodd" d="M79.9607 98.8362C79.9607 95.8841 82.3647 93.4907 85.3299 93.4907C88.2951 93.4907 90.6982 95.8841 90.6982 98.8362" fill="#FFE3C7"/><path fill-rule="evenodd" clip-rule="evenodd" d="M88.0122 98.8362C88.0122 95.8841 90.4163 93.4907 93.3815 93.4907C96.3467 93.4907 98.7497 95.8841 98.7497 98.8362" fill="#FFE3C7"/><path fill-rule="evenodd" clip-rule="evenodd" d="M96.0637 98.8362C96.0637 95.8841 98.4678 93.4907 101.433 93.4907C104.398 93.4907 106.801 95.8841 106.801 98.8362" fill="#FFE3C7"/><path fill-rule="evenodd" clip-rule="evenodd" d="M104.115 98.8362C104.115 95.8841 106.519 93.4907 109.484 93.4907C112.45 93.4907 114.853 95.8841 114.853 98.8362" fill="#FFE3C7"/><path fill-rule="evenodd" clip-rule="evenodd" d="M112.167 98.8074C112.167 95.8553 114.571 93.4619 117.536 93.4619C120.501 93.4619 122.904 95.8553 122.904 98.8074" fill="#FFE3C7"/><path fill-rule="evenodd" clip-rule="evenodd" d="M55.9098 98.8074C55.9098 95.8553 58.3138 93.4619 61.279 93.4619C64.2442 93.4619 66.6473 95.8553 66.6473 98.8074" fill="#FFE3C7"/><path fill-rule="evenodd" clip-rule="evenodd" d="M52.8691 132.004C52.8691 134.816 50.5787 137.096 47.754 137.096C44.9283 137.096 42.6389 134.816 42.6389 132.004C42.6389 129.191 44.9283 126.911 47.754 126.911C50.5787 126.911 52.8691 129.191 52.8691 132.004Z" fill="#FFE3C7"/><path fill-rule="evenodd" clip-rule="evenodd" d="M62.097 132.004C62.097 134.816 59.8066 137.096 56.9819 137.096C54.1563 137.096 51.8668 134.816 51.8668 132.004C51.8668 129.191 54.1563 126.911 56.9819 126.911C59.8066 126.911 62.097 129.191 62.097 132.004Z" fill="#FFE3C7"/><path fill-rule="evenodd" clip-rule="evenodd" d="M71.3252 132.004C71.3252 134.816 69.0347 137.096 66.2101 137.096C63.3844 137.096 61.095 134.816 61.095 132.004C61.095 129.191 63.3844 126.911 66.2101 126.911C69.0347 126.911 71.3252 129.191 71.3252 132.004Z" fill="#FFE3C7"/><path fill-rule="evenodd" clip-rule="evenodd" d="M80.5531 132.004C80.5531 134.816 78.2626 137.096 75.438 137.096C72.6123 137.096 70.3229 134.816 70.3229 132.004C70.3229 129.191 72.6123 126.911 75.438 126.911C78.2626 126.911 80.5531 129.191 80.5531 132.004Z" fill="#FFE3C7"/><path fill-rule="evenodd" clip-rule="evenodd" d="M89.7811 132.004C89.7811 134.816 87.4907 137.096 84.666 137.096C81.8403 137.096 79.5509 134.816 79.5509 132.004C79.5509 129.191 81.8403 126.911 84.666 126.911C87.4907 126.911 89.7811 129.191 89.7811 132.004Z" fill="#FFE3C7"/><path fill-rule="evenodd" clip-rule="evenodd" d="M99.0092 132.004C99.0092 134.816 96.7188 137.096 93.8942 137.096C91.0685 137.096 88.7791 134.816 88.7791 132.004C88.7791 129.191 91.0685 126.911 93.8942 126.911C96.7188 126.911 99.0092 129.191 99.0092 132.004Z" fill="#FFE3C7"/><path fill-rule="evenodd" clip-rule="evenodd" d="M108.237 132.004C108.237 134.816 105.947 137.096 103.122 137.096C100.297 137.096 98.0071 134.816 98.0071 132.004C98.0071 129.191 100.297 126.911 103.122 126.911C105.947 126.911 108.237 129.191 108.237 132.004Z" fill="#FFE3C7"/><path fill-rule="evenodd" clip-rule="evenodd" d="M117.465 132.004C117.465 134.816 115.175 137.096 112.35 137.096C109.525 137.096 107.235 134.816 107.235 132.004C107.235 129.191 109.525 126.911 112.35 126.911C115.175 126.911 117.465 129.191 117.465 132.004Z" fill="#FFE3C7"/><path fill-rule="evenodd" clip-rule="evenodd" d="M126.693 132.004C126.693 134.816 124.403 137.096 121.578 137.096C118.752 137.096 116.463 134.816 116.463 132.004C116.463 129.191 118.752 126.911 121.578 126.911C124.403 126.911 126.693 129.191 126.693 132.004Z" fill="#FFE3C7"/><path fill-rule="evenodd" clip-rule="evenodd" d="M135.921 132.004C135.921 134.816 133.631 137.096 130.806 137.096C127.981 137.096 125.691 134.816 125.691 132.004C125.691 129.191 127.981 126.911 130.806 126.911C133.631 126.911 135.921 129.191 135.921 132.004Z" fill="#FFE3C7"/><path fill-rule="evenodd" clip-rule="evenodd" d="M137.704 140H40.8552C39.5555 140 38.4083 139.153 38.0326 137.913L36.5594 133.06H142L140.527 137.913C140.151 139.153 139.004 140 137.704 140Z" fill="#7B446C"/></svg>