<svg viewBox="0 0 160 160" fill="none" xmlns="http://www.w3.org/2000/svg"><path fill-rule="evenodd" clip-rule="evenodd" d="M90.8012 112.299V88.0805L53.3508 87.6455V112.299C53.3508 122.608 61.7341 130.965 72.076 130.965C82.4179 130.965 90.8012 122.608 90.8012 112.299Z" fill="#75332E"/><path fill-rule="evenodd" clip-rule="evenodd" d="M82.396 91.5146C83.1203 79.5446 100.494 70.8506 100.494 70.8506C100.494 70.8506 116.694 81.5636 115.969 93.5336C115.245 105.503 97.8713 114.198 97.8713 114.198C97.8713 114.198 81.6717 103.485 82.396 91.5146Z" fill="#200E0F"/><path fill-rule="evenodd" clip-rule="evenodd" d="M82.3656 122.287C82.3656 110.295 99.1833 100.574 99.1833 100.574C99.1833 100.574 116 110.295 116 122.287C116 134.279 99.1833 144 99.1833 144C99.1833 144 82.3656 134.279 82.3656 122.287Z" fill="#200E0F"/><path fill-rule="evenodd" clip-rule="evenodd" d="M89.4724 74.7259C89.4724 70.5529 92.8656 67.1699 97.0523 67.1699C101.238 67.1699 104.632 70.5529 104.632 74.7259C104.632 78.8989 101.238 82.2819 97.0523 82.2819C92.8656 82.2819 89.4724 78.8989 89.4724 74.7259Z" fill="#9E3F39"/><path fill-rule="evenodd" clip-rule="evenodd" d="M43 85.4053V47.1893C43 37.1363 51.1749 28.9863 61.2603 28.9863H83.7194C93.8038 28.9863 101.98 37.1363 101.98 47.1893V85.4053H43Z" fill="#200E0F"/><path fill-rule="evenodd" clip-rule="evenodd" d="M97.5467 84.3995V50.0425C97.5467 38.8935 88.4921 29.8545 77.3217 29.8545H67.6571C56.4877 29.8545 47.4322 38.8935 47.4322 50.0425V84.3995C47.4322 95.5495 56.4877 104.587 67.6571 104.587H77.3217C88.4921 104.587 97.5467 95.5495 97.5467 84.3995Z" fill="#9E3F39"/><path fill-rule="evenodd" clip-rule="evenodd" d="M61.149 19.162V16H64.3338C69.7747 16 74.1858 20.403 74.1858 25.835V28.996H71.001C65.56 28.996 61.149 24.593 61.149 19.162Z" fill="#ED1E79"/><path fill-rule="evenodd" clip-rule="evenodd" d="M83.8595 16H87.0444V19.162C87.0444 24.593 82.6333 28.996 77.1924 28.996H74.0076V25.834C74.0076 20.403 78.4186 16 83.8595 16Z" fill="#ED1E79"/><path fill-rule="evenodd" clip-rule="evenodd" d="M80.0813 72.6287C80.0813 72.6287 81.9116 68.7857 85.3829 67.6127C88.8533 66.4397 92.6512 68.3797 92.6512 68.3797C92.6512 68.3797 90.8209 72.2227 87.3495 73.3957C83.8792 74.5687 80.0813 72.6287 80.0813 72.6287Z" fill="white"/><path fill-rule="evenodd" clip-rule="evenodd" d="M90.3884 70.918C90.8873 69.487 90.1279 67.925 88.6923 67.428C87.2577 66.931 85.6898 67.688 85.1919 69.118C84.693 70.549 85.4524 72.111 86.887 72.608C88.3226 73.105 89.8895 72.349 90.3884 70.918Z" fill="black"/><path fill-rule="evenodd" clip-rule="evenodd" d="M80.8945 73.0295L79.2465 72.2955C84.4039 64.7235 90.6804 66.3385 93.0647 67.4355L92.3634 69.0085C89.904 67.8775 85.1473 66.7885 80.8945 73.0295Z" fill="black"/><path fill-rule="evenodd" clip-rule="evenodd" d="M43 97.6496V47.5836C43 37.5356 51.205 29.3906 61.3255 29.3906H73.3324C76.6244 29.3906 82.443 37.5436 73.3324 46.5886C62.8232 57.0226 47.2417 59.5166 53.951 70.0836C66.016 89.0876 51.1499 97.6496 51.1499 97.6496H43Z" fill="#200E0F"/><path fill-rule="evenodd" clip-rule="evenodd" d="M52.5672 60.9383H70.2645V55.1733H52.5672V60.9383Z" fill="#200E0F"/><path fill-rule="evenodd" clip-rule="evenodd" d="M77.3734 56.806H95.0708V51.041H77.3734V56.806Z" fill="#200E0F"/><path fill-rule="evenodd" clip-rule="evenodd" d="M72.9038 82.6278C72.7776 82.6278 72.6473 82.6238 72.5121 82.6158C71.6034 82.5588 70.852 82.0278 70.1888 81.5598C68.9416 80.6798 68.1882 80.1478 66.5682 81.7618L65.341 80.5378C67.9968 77.8908 69.9203 79.2478 71.1927 80.1478C71.7136 80.5148 72.2035 80.8618 72.6193 80.8868C73.8696 80.9588 74.3635 80.5478 74.9425 80.0678C76.1788 79.0398 77.2998 78.4578 80.4806 80.3418L79.594 81.8298C77.2237 80.4258 76.8079 80.7718 76.0545 81.3978C75.4234 81.9228 74.5748 82.6278 72.9038 82.6278Z" fill="black"/><path fill-rule="evenodd" clip-rule="evenodd" d="M74.716 91.3725C76.882 91.1765 77.0763 87.9805 79.0559 87.9805C80.8512 87.9805 80.3543 89.2085 81.9432 89.2085C83.4229 89.2085 83.5131 88.1325 85.2262 88.0565C86.765 87.9885 87.1217 91.0605 89.1093 91.4115C89.2495 91.4365 85.7161 95.1585 82.1245 95.1585C78.532 95.1585 74.3273 91.4075 74.716 91.3725Z" fill="#F15A24"/><path fill-rule="evenodd" clip-rule="evenodd" d="M66.7175 72.468C66.7175 72.468 64.8872 68.625 61.4158 67.452C57.9455 66.279 54.1476 68.219 54.1476 68.219C54.1476 68.219 55.9779 72.062 59.4492 73.235C62.9196 74.408 66.7175 72.468 66.7175 72.468Z" fill="white"/><path fill-rule="evenodd" clip-rule="evenodd" d="M59.3718 71.2432C58.8729 69.8122 59.6323 68.2502 61.0679 67.7532C62.5025 67.2562 64.0704 68.0132 64.5683 69.4432C65.0672 70.8742 64.3078 72.4362 62.8732 72.9332C61.4376 73.4302 59.8707 72.6742 59.3718 71.2432Z" fill="black"/><path fill-rule="evenodd" clip-rule="evenodd" d="M65.9536 72.8546C61.6978 66.6096 56.9101 67.7356 54.4496 68.8686L53.5379 67.4006C55.9223 66.3046 62.6205 64.2086 67.5315 72.1556L65.9536 72.8546Z" fill="black"/><path fill-rule="evenodd" clip-rule="evenodd" d="M82.165 91.878C82.1199 91.941 82.0878 91.997 82.0668 92.034C81.8745 92.39 81.8404 92.776 81.9847 92.975C82.1339 93.179 82.4946 93.162 82.72 93.126C82.9624 93.026 83.2249 92.86 83.1989 92.612C83.1678 92.33 82.8022 91.96 82.3563 91.889C82.2922 91.885 82.2281 91.88 82.165 91.878ZM82.4605 94.069C81.7582 94.069 81.3996 93.738 81.2373 93.514C80.9377 93.103 80.8967 92.505 81.1081 91.922C80.6442 91.976 80.1874 92.067 79.7165 92.16C78.2078 92.46 76.6469 92.773 74.522 91.79L74.9097 90.955C76.7611 91.81 78.1096 91.542 79.5362 91.258C80.2375 91.118 80.9558 90.975 81.7512 90.957C82.149 90.593 82.6439 90.411 83.1818 90.391C84.2288 90.113 85.1164 90.375 86.0561 90.653C87.0279 90.941 88.0307 91.237 89.3922 91L89.5515 91.906C87.9786 92.183 86.8185 91.839 85.7936 91.536C84.894 91.269 84.1837 91.057 83.3682 91.295L83.3161 91.31C83.7579 91.605 84.0665 92.049 84.1155 92.515C84.1486 92.821 84.1065 93.578 83.0135 94.001L82.9274 94.025C82.7571 94.055 82.6018 94.069 82.4605 94.069Z" fill="#200E0F"/><path fill-rule="evenodd" clip-rule="evenodd" d="M101.956 71.8969V50.5829C101.956 38.8729 92.4465 29.3809 80.715 29.3809H74.5348V50.6949C74.5348 62.4049 84.0441 71.8969 95.7755 71.8969H101.956Z" fill="#200E0F"/></svg>