<?xml version="1.0" encoding="utf-8"?><!--Generator: Adobe Illustrator 27.8.0, SVG Export Plug-In . SVG Version: 6.00 Build 0)--><svg version="1.1" id="Ebene_1" xmlns="http://www.w3.org/2000/svg" xmlns:xlink="http://www.w3.org/1999/xlink" x="0px" y="0px" viewBox="0 0 160 160" style="enable-background:new 0 0 160 160;" xml:space="preserve"><style type="text/css">.st0{fill:#FFD4C2;}
	.st1{fill:#00401E;}
	.st2{fill:#BAC09A;}
	.st3{fill:#FFC6AD;}
	.st4{fill:#FFFFFF;}
	.st5{fill:#FF6200;}
	.st6{fill:#F7E5CD;}
	.st7{fill:#76341E;}</style><path class="st0" d="M67,107.3L67,107.3c0.5,5-3.2,9.4-8.2,9.9l-20.4,1.9c-5,0.5-9.4-3.2-9.9-8.2l0,0c-0.5-5,3.2-9.4,8.2-9.9
	l25.6-4.6C67.4,95.9,66.6,102.3,67,107.3z"/><path class="st0" d="M134.2,123l-3.9,1.5c-3,1.2-6.3-0.3-7.5-3.2l-12.1-30.4c-1.2-3,0.3-6.3,3.2-7.5l0,0c3-1.2,6.3,0.3,7.5,3.2
	l13.6,34.3C135.4,121.7,135,122.7,134.2,123z"/><polygon class="st1" points="125.5,94.7 111.6,99.7 107.3,75.1 117.9,71.9 "/><circle class="st1" cx="76.7" cy="85.8" r="21.5"/><path class="st0" d="M86.7,122.4L86.7,122.4c-4.5,2.1-10,0.2-12.1-4.3l-8.7-18.5c-2.1-4.5-0.2-10,4.3-12.1l0,0
	c4.5-2.1,10-0.2,12.1,4.3l8.7,18.5C93.2,114.8,91.3,120.3,86.7,122.4z"/><path class="st0" d="M98.5,124.6l-1.7,0.3c-3.2-1.2-4.8-4.7-3.6-7.8l11.3-30.7c1.2-3.2,4.7-4.8,7.8-3.6l0,0c3.2,1.2,4.8,4.7,3.6,7.8
	l-11.3,31.2C103.8,124.2,101,125.5,98.5,124.6z"/><path class="st1" d="M106.7,92.3l-16.8,10.5L71.4,64.9l43.1-8.6l3.8,19.3c1.4,7.2-3,14.3-10.1,16.1C107.7,91.8,107.2,92,106.7,92.3z
	"/><polygon class="st1" points="112.4,102 96.8,96.7 101.6,69.7 124.1,67 "/><path class="st2" d="M36.9,101.1L24,102.3l-6.7,10.5l0,0c-0.8,1.2-1.3,2.7-1.3,4.3c0,4.4,3.6,8,8,8c3,0,5.6-1.6,6.9-4.1l8.8-2
	C39.8,119.1,47.5,106.5,36.9,101.1z"/><path class="st0" d="M92.2,118.1L92.2,118.1c-1.2,4.9-6.2,7.8-11,6.6l-19.8-5c-4.9-1.2-7.8-6.2-6.6-11l0,0c1.2-4.9,6.2-7.8,11-6.6
	l19.8,5C90.4,108.2,93.4,113.2,92.2,118.1z"/><polygon class="st0" points="104.4,116.7 107.5,122.7 101.2,122.5 103.9,116.1 "/><polygon class="st0" points="133,117.9 138.9,121.4 134,123.6 131.7,118.6 "/><polygon class="st3" points="111.8,67 121.5,75.2 124.1,68.5 "/><path class="st2" d="M67.7,121.3c0,0,12.2-8.2,4.8-17.6l-12.3-4.2l-13.7,11.1c-3.2,2.5-4.3,6.8-2.8,10.6l0,0
	c1.5,3.6,6.1,4.8,9.1,2.4l5.3-4.3L67.7,121.3z"/><path class="st0" d="M110.9,125H97.7c-0.9,0-1.6-0.7-1.6-1.6v-0.2c0-0.9,0.7-1.6,1.6-1.6h13.2c0.9,0,1.6,0.7,1.6,1.6v0.2
	C112.5,124.3,111.8,125,110.9,125z"/><path class="st0" d="M142.4,125h-14.1c-0.9,0-1.6-0.7-1.6-1.6v-0.2c0-0.9,0.7-1.6,1.6-1.6h14.1c0.9,0,1.6,0.7,1.6,1.6v0.2
	C144,124.2,143.3,125,142.4,125z"/><path class="st0" d="M120.3,30.1c-0.5,0-0.9-0.1-1.4-0.1h0c0,0-0.1,0-0.1,0c-7.7,0.1-13.9,6.3-13.9,14v13.1c0,7.7,6.3,14,14,14h0
	c7.7,0,14-6.3,14-14V44C132.9,36.7,127.3,30.8,120.3,30.1z"/><ellipse class="st0" cx="104.9" cy="54.2" rx="4.3" ry="4.3"/><ellipse class="st0" cx="133.1" cy="54.2" rx="4.3" ry="4.3"/><path d="M118.7,57.3c-0.5,0-0.9-0.3-1.2-0.5c-0.5-0.4-0.9-0.6-1.5,0.1l-0.4-0.5c1-1.1,1.7-0.6,2.3-0.2c0.3,0.2,0.6,0.4,0.9,0.4
	s0.6-0.2,0.8-0.4c0.5-0.4,1.2-0.8,2.3,0.2l-0.4,0.5c-0.8-0.7-1.1-0.5-1.6-0.1C119.5,57.1,119.2,57.3,118.7,57.3z"/><ellipse transform="matrix(0.1294 -0.9916 0.9916 0.1294 45.2909 156.5187)" class="st4" cx="111.8" cy="52.5" rx="1.7" ry="3.2"/><circle cx="112" cy="52.4" r="1.7"/><ellipse transform="matrix(0.9909 -0.1349 0.1349 0.9909 -5.9189 17.4619)" class="st4" cx="125.9" cy="52.4" rx="3.2" ry="1.7"/><circle cx="125.7" cy="52.4" r="1.7"/><path class="st5" d="M120.6,67H117c-2.7,0-4.8-2.2-4.8-4.9l0,0c0-2.7,2.2-4.8,4.9-4.8h3.6c2.7,0,4.8,2.2,4.8,4.9l0,0
	C125.5,64.9,123.3,67,120.6,67z"/><path class="st6" d="M116.8,64.3c-0.8-0.6-1.3-1.6-1.3-2.7c0-0.9,0.4-1.7,1-2.3l0.6,0.6c-0.5,0.5-0.8,1.1-0.8,1.8
	c0,1.4,1.1,2.6,2.5,2.6c0.7,0,1.3-0.2,1.8-0.7c0.5-0.5,0.8-1.1,0.8-1.8s-0.2-1.3-0.7-1.8l0.6-0.6c0.6,0.7,1,1.5,0.9,2.4
	c0,0.9-0.4,1.7-1,2.3s-1.5,0.9-2.4,0.9C118.1,65,117.4,64.7,116.8,64.3z"/><path class="st7" d="M116,34.9c0,1.6,0.9,3.1,2.8,4.4l0.5-0.8c-1.6-1.1-2.4-2.2-2.4-3.5c0-1.9,2-3.8,3.4-4.9c-0.5,0-0.9-0.1-1.4-0.1
	h0c0,0-0.1,0-0.1,0C117.5,31.2,116,32.9,116,34.9z"/></svg>