<?xml version="1.0" encoding="UTF-8"?><svg id="scanner" xmlns="http://www.w3.org/2000/svg" viewBox="0 0 75.55 128"><defs><style>.cls-1{fill:#232144;}.cls-2{fill:#e6e3da;}.cls-3{fill:#006;}.cls-4{fill:#ff6200;}.cls-5{fill:#a8a8a8;}</style></defs><rect class="cls-2" width="75.55" height="128" rx="5.77" ry="5.77"/><rect class="cls-1" x="7.37" y="20.74" width="59.6" height="45.53" rx="4.46" ry="4.46"/><rect class="cls-5" x="9.45" y="84.12" width="16.28" height="8.33" rx="4.17" ry="4.17"/><rect class="cls-5" x="29.16" y="84.12" width="16.28" height="8.33" rx="4.17" ry="4.17"/><rect class="cls-5" x="49.03" y="84.12" width="16.28" height="8.33" rx="4.17" ry="4.17"/><rect class="cls-5" x="9.45" y="94.28" width="16.28" height="8.33" rx="4.17" ry="4.17"/><rect class="cls-5" x="29.16" y="94.28" width="16.28" height="8.33" rx="4.17" ry="4.17"/><rect class="cls-5" x="49.03" y="94.28" width="16.28" height="8.33" rx="4.17" ry="4.17"/><rect class="cls-5" x="9.45" y="104.64" width="16.28" height="8.33" rx="4.17" ry="4.17"/><rect class="cls-5" x="29.16" y="104.64" width="16.28" height="8.33" rx="4.17" ry="4.17"/><rect class="cls-5" x="29.16" y="114.99" width="16.28" height="8.33" rx="4.17" ry="4.17"/><rect class="cls-5" x="49.03" y="104.64" width="16.28" height="8.33" rx="4.17" ry="4.17"/><path class="cls-3" d="M39.94,12.19v1.81c-1.02.51-1.98.77-2.94.77-2.66,0-4.26-1.56-4.26-3.54,0-2.13,1.83-3.9,4.15-3.9.58,0,1.01.1,1.47.25.33.1.53.22.73.22.18,0,.23-.3.26-.47h.25l.23,2.45h-.31c-.13-.49-.36-.88-.66-1.16-.48-.49-1.14-.74-1.89-.74-1.6,0-2.53,1.27-2.53,3.17s1.14,3.15,2.66,3.15c.45,0,.86-.1,1.36-.33v-1.87c0-.6-.1-.83-.96-.83v-.28h3.21v.28c-.8,0-.77.26-.77,1.01ZM31.1,9.2v5.44h-.42l-5.44-5.62c.03.15.03.28.03.43v3.43c0,1.05,0,1.43.96,1.43v.28h-2.56v-.28c.97,0,.97-.46.97-1.43v-3.9c0-.58,0-1.22-1.02-1.22v-.27h2.41l4.48,4.6c-.03-.13-.03-.2-.03-.38v-2.5c0-1.01.03-1.44-.94-1.44v-.27h2.55v.27c-.94,0-.99.41-.99,1.44ZM18.73,14.59v-.28c.61,0,1.05-.05,1.05-.94v-4.67c0-.92-.33-.94-1.05-.94v-.27h3.6v.27c-.74,0-1.04.02-1.04.94v4.67c0,.89.38.94,1.04.94v.28h-3.6Z"/><path class="cls-4" d="M47,14.59c-.13-.23-.15-.59-.15-.66,0-.13,0-.31.08-.43l-.28.05c-.08.1-.1.15-.1.2l.13-.05s.05.05.08.1c-.03.13-.18.13-.23.18-.08.26.15.41.18.61h.31ZM56.81,11.31c0-1.11-.46-2.24-1.28-3.04-.35-.36-.74-.53-1.05-.88-.15-.15-.27-.31-.37-.51-.13-.13-.21-.2-.36-.28.03.08.05.15.08.23h-.03c-.13,0-.26-.08-.36-.15l.1-.1s-.1-.05-.15-.05c-.41-.07-.78.15-1.18.23v.05c.25.08.3.38.44.54h.15c.05,0,.13.05.18.05,0-.05-.05-.15-.05-.15.05-.05.1-.05.15,0,.13.08.31-.05.43.15-.15,0-.31,0-.43.08,0,.03.08.07.05.12-.13-.05-.28,0-.33-.1l-.03.02c.15.18.38.32.61.4.33.05.61-.1.94-.03,1.15.56,1.97,1.88,1.97,3.19,0,1.88-1.07,2.62-1.74,2.62-.13,0-.32-.08-.4-.15.08-.26.12-.57.12-1.03,0-1.09-.43-2.26-1.02-2.86-.28-.28-.58-.51-.9-.51-.15,0-.31,0-.41.13-.13.1-.21.31-.18.43-.2.15-.54.23-.79.23-.28,0-.64-.1-.95-.36v-.38c-.07-.03-.33-.18-.2-.3.08.03.13.07.15.09-.03-.17-.03-.37-.15-.53-.05,0-.13,0-.2-.05-.08-.08-.16-.18-.16-.31.08.13.21.08.28.15-.13-.31-.08-.43-.31-.88-.05-.23-.28-.36-.43-.51-.08-.05-.1-.13-.2-.13-.1-.03-.1-.15-.1-.23.03,0,.1.05.15.07-.15-.35-.25-.73-.59-.93l-.08.05h-.41c.05-.05.15-.08.23-.13-.08-.08-.13-.1-.28-.1-.07.03-.16.1-.26.1h-.02c0-.08-.03-.18.12-.23-.15-.03-.28-.03-.46,0-.03.13-.1.2-.1.31-.08.05-.1.13-.18.2,0-.15.08-.31.1-.46-.1.03-.23.1-.28.1-.2-.1-.46-.2-.56-.2.15.1.08.28.1.41l-.1-.05c-.02-.1-.15-.18-.18-.31-.15,0-.26.05-.38.13v.03c.08,0,.18.08.23.15-.18,0-.31-.08-.49-.08,0,0,0-.03-.02-.03-.07.03-.14.1-.19.15-.18.15-.31.28-.38.51.05,0,.13,0,.15.03-.1.03-.15.15-.26.18v.37c-.08.08-.18.15-.23.31-.13.4-.15.86-.15,1.37-.03.1-.08.13-.13.15v.4s.15-.14.23-.19v.32c-.1,0-.18.13-.18.2,0,.1.03.2.03.31q0,.05.03.1c0-.05.05-.1.13-.13,0,0,.05-.05.15-.05-.08.08-.1.18-.15.28l-.08.08s-.03.05-.03.08c.1.52.26.98.46,1.48-.21.33-.43.97-.59,1.58-.13-.13-.31-.15-.46-.15-.14.03-.3.08-.4.23-.15-.08-.36-.05-.46.05-.21.18-.21.28-.21.43-.05.05-.15.18-.15.36,0,.23.03.38.15.59h3.83c-.03-.08-.08-.18-.13-.23-.08-.15-.03-.36-.03-.51.08-.15.15-.3.26-.43.02-.08,0-.08.02-.1l.18-.03c.1,0,.18-.08.31-.08.08.11.08-.08.21-.13.28-.05.54,0,.69.2,0,.03.03.03.03.05h-.13c-.14-.05-.31-.13-.49-.05,0,.05-.02.05-.02.13v.13c.1,0,.18.1.28.15.05-.08.19-.15.29-.15.13,0,.31.07.31.28v.28c.1.1.23.13.36.18-.05.1-.13.1-.2.1h-.2s-.08-.03-.08-.1c-.08.1-.13.21-.18.31h2.96c-.05-.1-.1-.18-.13-.23-.05-.15-.05-.36-.05-.51l.28-.38c.15,0,.28-.05.56-.08.05-.08,0-.11.23-.11.18,0,.31.03.36.05q.03.05,0,.1c-.05.05-.15-.05-.23-.03-.05.05.03.08.03.13.05.04-.23-.05-.23-.05,0,0-.05.15-.08.2,0,0,.1.1.15.15.05.08-.08.15-.08.23-.05-.03-.15-.1-.15-.08-.05.21,0,.38-.02.59h.28l.03-.43c.03-.26.33-.71.51-.71.1,0,.18.05.25.1.05.1.17.15.17.2,0,.05-.07.08-.19.08-.05,0-.05-.08-.12-.13l-.15.15s.18.15.18.26c0,.13-.02.18-.1.26l-.15-.31c-.08,0-.2.15-.2.23,0,.1-.05.15-.05.31h1.57c.18,0,.33-.05.51-.15h.31c.63,0,1.12-.18,1.58-.64.61-.59.97-1.56.97-2.49ZM51.32,13.62l-.26.03c.1.05.1.18.1.2,0,.08-.05.15-.1.2-.05-.05-.05-.13-.1-.2-.05,0-.08.13-.08.18,0,.23.1.41.18.56h.23c-.03-.2-.08-.38-.08-.61,0-.13.08-.28.1-.36ZM47.98,13.93c0-.1-.08-.13-.18-.13-.05,0-.17.08-.17.13,0,.1-.05.66-.05.66h.16c.07-.23.23-.54.23-.66ZM47.44,13.9s.03.05-.23-.2c-.05,0-.13.15-.13.2,0,.21.05.49.13.69h.2c0-.23.03-.49.03-.69ZM54.11,7.49c-.05-.1-.15-.16-.23-.16-.08-.1-.18-.23-.28-.23.08,0,.18-.08.31-.08.05.13.15.2.18.31l.03.16ZM53.34,6.95h-.28c-.05-.08-.13,0-.18,0s-.08,0-.18-.08c.15,0,.23-.08.36-.13.1.08.2.1.28.2ZM52.73,9.86c-.17-.05-.26-.13-.41-.13-.05,0-.28.08-.31.13-.08-.1.05-.31.15-.36.1-.05.15-.03.2,0,0,.15.17.08.27.13.05.08.07.13.1.23ZM52.71,10.23c-.14,0-.17-.02-.26-.02-.13,0-.28.05-.36.17-.05-.1-.03-.15,0-.22.08-.08.2-.18.31-.18.17,0,.31.13.31.24ZM53.29,10.8c-.21-.13-.51-.21-.68-.21-.09,0-.4.13-.5.23l-.05-.23c.15-.03.15-.15.26-.15.08,0,.18-.03.25-.03s.12-.05.14-.05c.12,0,.07.13.15.13s.13-.05.18-.05c.13,0,.23.21.26.36ZM53.37,11.36c-.18,0-.36-.05-.38-.13-.05-.05,0-.15-.13-.15-.05,0-.13.08-.13.08-.05.03-.19-.08-.19,0,0,.13-.1.18-.22.18-.05,0-.1,0-.15-.03v-.26c.33,0,.31-.1.45-.1.1,0,.17.05.25.05.13,0,.05-.05.18-.05s.18.1.26.13c0,.08.08.18.08.28ZM53.14,11.91c-.08-.02-.26-.05-.26-.13,0-.1-.05-.13-.18-.13-.1,0-.17.03-.31.08,0,0-.08-.1-.1-.2.05-.03.25-.07.34-.07.17,0,.35,0,.35.07,0,.1.15.13.15.38ZM48.72,7.93s-.05.26-.05.26l-.2.05.13-.55c.05.09.13.19.13.24ZM53.62,12.8c0,.15,0,.2-.08.33l-.15-.23c.05-.08.05-.18.13-.31.03,0,.1.18.1.2ZM53.01,12.47c-.18,0-.08-.36-.45-.36-.07,0-.12.13-.22.15,0-.02.03-.18.03-.18,0-.05.02-.15.12-.2.19,0,.14.08.29.13.08.03.13.08.23.08v.38ZM51.42,11.03c-.23-.13-.36-.36-.56-.59.2,0,.26.21.41.23.05.05.1.08.15.15v.2ZM49.25,9.15c-.15,0-.23-.08-.31-.22,0-.08-.03-.18,0-.31.05.1.05.15.1.2.1-.05.1.07.13.1.03.07.08.14.08.22ZM53.45,13.47q-.05.08-.08.15c0-.12-.15-.2-.26-.41l.1-.18c.08.05.18.13.18.26,0,0-.03.05,0,.11,0,.02.05.02.05.08ZM52.93,12.75c0,.1-.03.13-.05.26-.18-.02-.18-.23-.2-.26-.12-.15-.29-.03-.42-.03-.05-.15.03-.15.03-.26.08,0,.15-.05.23,0,.12-.05.19.08.31.08.03.05.08.18.1.2ZM51.65,11.7c0,.1-.05.18-.03.28-.05-.15-.15-.31-.21-.46,0-.03-.03-.03.03-.05.02,0,.13,0,.13.03.03.05.08.13.08.2ZM49.42,9.71c-.03.1-.13,0-.15,0h-.23c-.03-.05-.05-.08-.05-.13.1-.03.18-.08.26-.03.05.08.1.15.18.15ZM49.99,10.29c-.08.08-.28.1-.43-.03l.2-.09c.08.06.18.09.23.11ZM51.29,11.73c0,.15-.03.33-.03.51-.08,0-.08-.05-.08-.15-.03-.15-.08-.28-.13-.43-.05-.2-.18-.37-.28-.6-.03-.1-.15-.15-.26-.23.13,0,.26,0,.36.1,0,.05.03.08.1.15.18,0,.13.23.28.33-.08.07-.1.12-.15.17.08.05.15.08.18.15ZM50.3,10.98c0,.08-.05.1-.1.15,0,0-.09-.13-.09-.18,0-.1,0-.15.02-.23.07.08.17.18.17.26ZM52.68,13.29s-.05.05-.05.05c-.12-.05-.19-.08-.34-.08,0-.1-.08-.23-.13-.23-.15,0-.13.1-.26.1l.23-.23q.03-.05.08-.05c.08.05.1.08.18.08,0,.05,0,.08-.02.15.08.05.12-.03.17.05.07.03.14.05.14.15ZM50.63,11.53s-.08.1-.1.1c0,0-.13-.13-.15-.24-.03-.1.08-.28.08-.28.03,0,.05.05.08.05.03.03,0,.1.03.18.08.05.13.14.08.19ZM48.67,9.07c-.31-.17-.64-.29-1.01-.32,0,.08,0,.15-.02.18.29.14.57.27.83.5v.23c-.26-.26-.54-.51-.85-.59-.02.05-.12.1-.15.2-.18-.13-.38-.26-.59-.28-.08,0-.13-.27-.13-.27.13-.05.21-.13.26-.26h.1c.08,0,.08-.05.08-.13,0-.15-.33-.15-.49-.15-.18,0-.31,0-.41.08-.05,0-.02.08-.02.13,0,.02.08.08.08.08.05,0,.1-.05.15-.05-.03.15.02.23.18.31l-.03.25c-.31,0-.51.12-.74.22-.08-.05-.13-.13-.18-.2-.31.1-.82.51-.82.51v-.18c.23-.2.52-.31.75-.42v-.18c-.1-.05-.2,0-.31,0-.21.03-.44.13-.59.25,0-.07-.03-.17-.03-.17.28-.15.62-.28.95-.23v-.1c-.03-.05-.03-.13-.08-.13-.15-.15-.31-.38-.31-.54l.1-.05c-.05-.14-.1-.53,0-.65-.15-.08-.29-.2-.34-.31-.05-.13-.1-.2-.13-.35.08-.15.13-.2.2-.36.05,0,.12-.03.14-.08.13-.03.2-.15.36-.08.1,0,.2.05.28.08,0,.05,0,.08.05.13.15,0,.15.15.23.28.08.03.15.03.2.03.15.05.28.05.33.12.2-.12.41-.14.64-.12.03-.08.08-.18.1-.3.02.07.02,0,.08,0,.09-.08.21-.2.39-.15.1.08.28.03.38.15.08.1.13.25.2.37-.08.15,0,.35-.15.43l-.15.15c-.05,0-.05.05-.13.05.08.18.03.43-.05.6.05-.02.13-.02.13-.09.03.03,0,.07,0,.09v.07c0,.13-.08.26-.18.36-.05.15-.18.36-.34.38v.05c.37,0,.68.1,1.03.28v.17ZM49.71,10.67l-.13.05c-.28,0-.41-.08-.54-.18.1,0,.23-.13.23-.13.13.13.31.23.43.26ZM48.99,10.09c-.14,0-.32.08-.4-.08.05-.03.1-.1.15-.15l.25.23ZM51.06,12.47c0,.13-.15.28-.2.38.05-.13.05-.38,0-.38-.05-.03-.15,0-.15-.05,0-.08.03-.18.03-.23,0-.1-.08-.15-.08-.2,0-.15.18-.18.23-.28.03.1.03.2.03.33,0,.05.08.21,0,.33,0,.08.15.03.15.1ZM50.48,12.19c0,.15-.1.28-.13.43,0-.15-.03-.28-.13-.38,0-.05.07-.05.02-.13,0,0-.14-.08-.14-.18s.09-.18.14-.26c0-.03.1.05.1.2,0,.02,0,.1-.03.15-.03.08.15.08.15.15ZM48.39,10.39c-.13.03-.23-.1-.36-.15-.05-.14-.05-.29-.1-.37.1.08.33.08.28.31,0,.06.1.11.18.22ZM49.09,11.1c-.1,0-.27,0-.37-.08-.15-.08-.21-.13-.28-.2.1-.08.23-.08.28-.1.1.1.19.28.37.38ZM44.82,7.18l-.18.05.02-.13c.05-.08.08-.15.15-.23v.31ZM48.08,10.72c-.1.03-.28.08-.33-.05-.14-.23-.07-.44,0-.6.05.14.07.29.1.42.03.1.18.15.23.23ZM47.36,9.33c-.03.15-.08.38-.23.49,0-.1-.05-.15-.1-.23-.03,0,0,.08-.03.08,0,.05-.05.15-.05.26-.05.03-.15.08-.26.03v-.08c-.03-.05-.03-.15-.03-.2l-.03-.03c-.08.03-.08.08-.08.13-.03.05-.08.1-.08.18-.1,0-.15-.03-.23-.08v-.23q0-.05-.03-.05l-.13.13c-.1-.08-.13-.28-.13-.41.41-.23.92-.15,1.23-.03.05.03.1.03.15.05ZM48.67,11.38h-.08c-.28.09-.51-.08-.74-.23.13-.05.31-.08.46-.08l.08.15c.08.03.2.1.28.15ZM44.88,7.53l-.13.15c.03.24-.08.42-.08.65l-.13-.41c.03-.1.05-.2.13-.32l.2-.08ZM47.49,10.82c-.13-.08-.36-.1-.31-.26.05-.13.13-.15.18-.2.03.18.05.31.13.46ZM49.83,13.42h-.03c-.05-.08-.08-.13-.13-.13.08-.28-.08-.51-.13-.74v-.08c.08.13.28.26.26.38.03.23.03.43.03.57ZM49.25,12.47c-.13,0-.23,0-.31-.13-.03,0-.07-.08-.09-.02-.13.1-.26-.08-.41-.05-.08.08-.15.13-.28.15v-.02c0-.08.05-.15.15-.2.15.05.28-.28.44-.1.08.03.15.03.19.03.18.08.23.23.31.36ZM46.92,10.41c0,.18-.03.41-.2.49l-.05-.26c.08-.05.15-.1.26-.23ZM47.77,11.53s-.19.1-.29.1c-.15-.13-.26-.27-.41-.47l.41.08c.07.05.22.22.29.3ZM49.3,12.98c-.1-.08-.26-.08-.31-.21-.1-.02-.17-.02-.3-.02-.1.02-.23.02-.33.02-.03,0,0-.02-.05-.05-.15.05-.31.05-.46.2l.13-.31c.1,0,.18-.05.23-.05.1-.03.18-.03.26-.03v.03c.28,0,.6-.03.81.2l.02.21ZM46.39,10.82c-.15-.15-.28-.28-.28-.43.08,0,.15,0,.23.05,0,.13.05.23.05.38ZM45.9,10.09l-.08.32c-.08-.15-.15-.29-.18-.47l.26.15ZM49.55,13.5c-.03.05-.08.2-.1.3-.05-.15-.1-.38-.28-.38-.03-.1-.05-.13-.15-.21l-.2-.03c.03.1.17.1.07.23.1.08.17.08.23.2.05.08,0,.18.03.23l-.15.08c0-.13.03-.38-.14-.43-.15.05-.18-.15-.28-.21-.05,0-.05-.13-.13-.08-.13.08-.28,0-.41.08l.13-.2c.1-.08.2-.05.31-.08l.2-.02c.2,0,.37.1.58.18.1.05.15.13.15.23.05.02.15.02.15.1ZM47.54,12.32h-.05s-.2-.08-.26-.13c-.02-.08-.02-.15-.02-.15h.2l.13.28ZM45.57,10.49c-.15-.05-.33-.2-.4-.32-.05-.1-.07-.23-.07-.31.09,0,.16.08.19.13v.03c.13.15.26.27.28.47ZM46.8,11.38c-.02.14-.1.19-.23.37-.08.05-.23.08-.38.15.02-.08.1-.1.15-.18.05-.08.15-.2.18-.28.13-.07.18-.07.28-.07ZM48.67,13.85l-.08.08c-.08-.08-.03-.28-.15-.31-.13,0-.23-.12-.28-.15l.1-.05s.05-.02.1,0c.05.05.1.08.1.13.05.07.13,0,.18.07.02.08.05.18.02.23ZM46.34,11.18c-.08.15-.15.3-.31.35-.08,0-.21.05-.36,0,.08-.05.15-.07.26-.14l.2-.2h.2ZM46.85,12.34c-.1.08-.18.08-.31.05l-.15-.2h.38l.08.15ZM45,10.41c-.13.13-.26.18-.31.33,0-.08-.03-.15-.05-.2.02-.1.1-.15.13-.18.08.02.13.02.23.05ZM45.29,10.8c0,.1-.05.23-.16.36-.02.03-.1.08-.1.08,0-.15.07-.28.07-.41.07-.02.14-.08.19-.02ZM45.65,11.1l-.1.37c-.13.1-.3.05-.44.05.19-.05.34-.27.44-.42.03-.03.05,0,.1,0ZM45.77,12.39c0,.08-.03.38-.03.38-.05-.18-.18-.36-.33-.36-.08-.08-.15-.15-.17-.23-.07-.08-.14,0-.24-.08-.1,0-.23,0-.33.08v-.08l.18-.2c.18.03.39,0,.44.13.13.08.26.15.28.21v.08c.05.02.15.05.2.08ZM45.65,13.19l-.18.16c-.05-.05,0-.18-.08-.26,0-.05.05-.08.02-.1-.02-.05-.31-.15-.31-.15-.1-.08-.23-.15-.33-.26-.1-.03-.18.03-.31.05v-.05c.05-.1.05-.23.21-.23.08,0,.18,0,.23.08.1,0,.15.1.23.13.12.13.21.18.29.23,0,.08.03.13.08.15.15,0,.1.15.15.26ZM45.26,13.55l-.07.25-.17-.46c-.21-.18-.44-.21-.56-.31-.1-.02-.1.05-.15,0,0-.05,0-.13.08-.2h.15l.15.08c.08.08.26.08.26.23,0,.03-.03.05.05.15l.24.05.02.21ZM44.57,13.8c0,.2-.33.48-.33.48,0-.13.08-.28.08-.43,0,0-.1-.1-.21-.1-.08.05-.08.1-.1.18-.08.15-.23.31-.26.46-.03,0-.03-.03-.03-.03,0-.26.03-.69.18-.87.13-.15.23-.15.38-.18l.13.02-.1.15c.1.05.26.15.26.3ZM43.67,13.65c0,.1-.03.2-.07.28-.03-.1-.1-.23-.22-.23-.1.2-.13.28-.03.59-.08.08-.13.1-.23.15-.05-.1-.05-.28-.05-.38,0-.18.03-.36.08-.51.08-.08.13-.21.2-.26h.27c-.12,0-.12.11-.12.18.07.03.17.05.17.17ZM43.02,13.93s-.1-.08-.18-.08c-.07.15,0,.26,0,.43,0,.08-.03.15-.03.15-.05,0-.14-.1-.16-.2v-.41l.21-.28c.15.1.2.25.15.38ZM48.26,6.87c.05-.13.05-.35-.05-.48-.05-.1-.18-.15-.31-.25l-.18.1c-.09.05-.14.15-.14.27.16.07.34.28.42.43h.08c.08-.08.13,0,.18-.08ZM47.41,7.03c0-.08-.03-.08-.05-.08-.13,0-.13-.2-.23-.15-.05,0-.1-.05-.18,0t.05.03c.13,0,.08.18.18.2h.23ZM47.8,7.33s.05,0,0-.03l-.54-.08c-.05.08-.18.08-.18.15h-.05c.05.2.05.42.05.65.1.03.2.08.2.23.1.05.2.08.3.15.05-.02.07-.1.09-.18-.09-.13-.32-.05-.32-.28l-.15-.05c0-.15,0-.3-.03-.4l.03-.02s.02.05.08.1c.1,0,.2.03.3-.05.05-.03.05-.15.09-.15s.09,0,.12-.05ZM46.54,6.8c-.05-.05-.2.03-.28.05-.1.03-.18.1-.18.18h.28c.03-.08.13-.18.18-.23ZM45.98,6.52c-.03-.25-.31-.27-.43-.37h-.1c-.2.07-.25.28-.27.45.07.23.22.08.32.23.1-.08.36-.26.49-.3ZM47.49,8.85v-.13h-.26l-.02.03.28.1ZM46.34,7.38c0-.05-.05-.1-.13-.15h-.61c0,.1.08.15.15.15,0,.1.08.12.1.15.08.05.1.05.18,0,.08.05.1-.05.13,0,0,.15,0,.22-.03.35-.03.18-.18.15-.31.23,0,.08-.08.2,0,.28.08-.05.13-.08.26-.13,0-.08.08-.15.18-.2,0-.23.08-.45.08-.68ZM46.13,8.73c-.05-.1-.18,0-.31-.05,0,.05,0,.1.08.15.08-.08.2-.1.23-.1Z"/><rect class="cls-5" x="9.45" y="72.24" width="16.28" height="8.33" rx="4.17" ry="4.17"/><rect class="cls-5" x="49.03" y="72.24" width="16.28" height="8.33" rx="4.17" ry="4.17"/><rect class="cls-4" x="33.14" y="72.24" width="8.33" height="8.33" rx="2.38" ry="2.38"/><rect class="cls-4" x="19.74" y="30.29" width="34.86" height="3.9" rx="1.95" ry="1.95"/><rect class="cls-4" x="19.74" y="38.93" width="34.86" height="3.9" rx="1.95" ry="1.95"/><path class="cls-4" d="M28.26,49.97c.37-.15.46-.06.55.22l.4,1.26c.12.4.09.52-.28.58l-3.17.71,2.28,2.61c.15.18.18.34-.15.58l-.92.65c-.25.18-.46.22-.62-.06l-1.85-2.95-1.85,2.95c-.15.28-.37.25-.62.06l-.92-.65c-.34-.25-.31-.4-.15-.58l2.28-2.61-3.17-.71c-.37-.06-.4-.18-.28-.58l.4-1.26c.09-.28.18-.37.55-.22l2.98,1.23-.28-3.32c-.03-.28.09-.31.31-.31h1.45c.22,0,.34.03.31.31l-.25,3.32,2.98-1.23Z"/><path class="cls-4" d="M40.92,49.97c.37-.15.46-.06.55.22l.4,1.26c.12.4.09.52-.28.58l-3.17.71,2.28,2.61c.15.18.18.34-.15.58l-.92.65c-.25.18-.46.22-.62-.06l-1.85-2.95-1.85,2.95c-.15.28-.37.25-.62.06l-.92-.65c-.34-.25-.31-.4-.15-.58l2.28-2.61-3.17-.71c-.37-.06-.4-.18-.28-.58l.4-1.26c.09-.28.18-.37.55-.22l2.98,1.23-.28-3.32c-.03-.28.09-.31.31-.31h1.45c.22,0,.34.03.31.31l-.25,3.32,2.98-1.23Z"/><path class="cls-4" d="M53.58,49.97c.37-.15.46-.06.55.22l.4,1.26c.12.4.09.52-.28.58l-3.17.71,2.28,2.61c.15.18.18.34-.15.58l-.92.65c-.25.18-.46.22-.62-.06l-1.85-2.95-1.85,2.95c-.15.28-.37.25-.62.06l-.92-.65c-.34-.25-.31-.4-.15-.58l2.28-2.61-3.17-.71c-.37-.06-.4-.18-.28-.58l.4-1.26c.09-.28.18-.37.55-.22l2.98,1.23-.28-3.32c-.03-.28.09-.31.31-.31h1.45c.22,0,.34.03.31.31l-.25,3.32,2.98-1.23Z"/></svg>