<?xml version="1.0" encoding="utf-8"?><!--Generator: Adobe Illustrator 27.8.0, SVG Export Plug-In . SVG Version: 6.00 Build 0)--><svg version="1.1" xmlns="http://www.w3.org/2000/svg" xmlns:xlink="http://www.w3.org/1999/xlink" x="0px" y="0px" viewBox="0 0 160 160" style="enable-background:new 0 0 160 160;" xml:space="preserve"><style type="text/css">.st0{fill:#7070FF;}
	.st1{fill:#FFC4B8;}
	.st2{fill:#F5836D;}
	.st3{fill:#693725;}
	.st4{fill:#420F0F;}
	.st5{fill:#9E3F39;}
	.st6{fill:#7A2F37;}
	.st7{fill:#463EC5;}
	.st8{fill:#D8CBC5;}
	.st9{fill:none;stroke:#171111;stroke-width:0.7438;stroke-miterlimit:10;}
	.st10{fill:#FFFFFF;}
	.st11{fill:#8F411F;}
	.st12{fill:#E3944F;}
	.st13{fill:#F0A86B;}
	.st14{fill:#006931;}
	.st15{fill:#BAC09A;}
	.st16{fill:#FF6200;}
	.st17{fill:#232144;}
	.st18{fill:#E2F3E8;}
	.st19{fill:#FBB03B;}
	.st20{fill:#FFD4D2;}
	.st21{fill:#F99F5B;}
	.st22{fill:#BF7461;}
	.st23{fill:#A86554;}
	.st24{fill:none;stroke:#000000;stroke-width:0.5209;stroke-miterlimit:10;}
	.st25{fill:#FCE3CA;}
	.st26{fill:#8B181D;}
	.st27{fill:#FFA28F;}
	.st28{fill:none;stroke:#000000;stroke-width:0.7341;stroke-miterlimit:10;}
	.st29{fill:#BA251D;}
	.st30{fill:#9F5621;}
	.st31{fill:#E6E3DA;}
	.st32{fill:#E6E6E6;}
	.st33{fill:#FFC6AD;}
	.st34{fill:#F5B091;}
	.st35{fill:none;stroke:#000000;stroke-width:0.4422;stroke-miterlimit:10;}
	.st36{fill:#8A1229;}
	.st37{clip-path:url(#SVGID_00000110463455746176986210000007025254811880512916_);}
	.st38{clip-path:url(#SVGID_00000155852849849377132590000011464581694148650387_);}
	.st39{clip-path:url(#SVGID_00000082363291341930146850000015412638269782045576_);fill:#FFFFFF;}
	.st40{fill:#5D2B1A;}
	.st41{clip-path:url(#SVGID_00000143585819026468530550000010192271934114660492_);fill:#FFFFFF;}
	.st42{fill:#C9E8D7;}
	.st43{fill:#763427;}
	.st44{fill:none;stroke:#A86554;stroke-width:1.2912;stroke-miterlimit:10;}
	.st45{fill:#891229;}
	.st46{clip-path:url(#SVGID_00000020382797793912619950000016155076909321704083_);}</style><g id="Design"><path class="st11" d="M103.4,109.5l-3.2-4.5c6.1-4.1,7.7-12.5,3.5-18.6l-9-13.3c-4.1-6.1-10,2.7-16.1,6.8L66.1,69.8
		c5.5,11.1,8,18.5,9.1,23c1.2,4.7,3.7,9,7.4,12.1C94.6,115.1,96.7,114,103.4,109.5z"/><path class="st12" d="M73.5,87.2L66,90.3c-3.2-0.5-0.2-39.6,0.3-42.9l2.6-18.7c0.5-3.1,3.3-5.2,6.3-4.7l0.8,0.1
		c3,0.4,5.1,3.3,4.7,6.3L73.5,87.2z"/><path class="st12" d="M73.5,87.2L66,90.3c-3.2-0.5-0.2-39.6,0.3-42.9l2.6-18.7c0.5-3.1,3.3-5.2,6.3-4.7l0.8,0.1
		c3,0.4,5.1,3.3,4.7,6.3L73.5,87.2z"/><path class="st13" d="M65,39.4c-1.5,19.8-4.3,22.3-9.7,35.1c-1.7,3.9-6.3,8.8-11,15.4l-15,4.8L18,96.8l-0.7,40.6l26.9-13.7
		L68,109.2l7.5-17.1c0.3-1.6-1.8-6.3-1.9-9.3C73.1,73.3,66.6,40.7,65,39.4z"/><path class="st13" d="M51.2,111.3l3.2-4.6c-6.2-4-7.9-12.4-3.9-18.5l8.8-13.5c4-6.2,10.1,2.4,16.2,6.5l10-11.8
		C80.2,80.6,80.1,89.6,79,94c-1.1,4.7-3.6,9.1-7.2,12.3C60.1,116.7,58,115.7,51.2,111.3z"/><path class="st13" d="M78.6,79.7L62.1,79l3.3-54c0.2-3.1,2.9-5.5,6-5.3l0.8,0c3.1,0.2,5.4,2.8,5.2,5.9L78.6,79.7z"/><g><polygon class="st12" points="55.6,94.9 55,93.8 68.8,86.4 75.1,67.5 76.3,67.9 69.9,87.3 		"/></g><polygon class="st14" points="16,144 53.9,131.4 35.9,85.3 16,93 	"/><g><path class="st11" d="M88.2,37.9C90,57.6,92.9,60,98.6,72.7c1.7,3.9,6.5,11.2,8.7,14.9l23.7,11h12.1v42.7l-27-13.9L98,113
			l-11.5-5.3l-7.9-16.9c-0.3-1.6,1.6-6.4,1.7-9.3C80.7,71.9,86.5,39.2,88.2,37.9z"/><path class="st11" d="M77.1,78.2l14.8-0.5l-2.3-54.1c-0.1-3.1-2.8-5.5-5.9-5.4l-0.8,0c-3.1,0.1-5.5,2.7-5.3,5.8L77.1,78.2z"/></g><g><polygon class="st15" points="144,91.7 115.4,82.1 99.7,129.1 144,143.5 		"/></g><circle class="st15" cx="37.8" cy="123.2" r="4.2"/><path class="st11" d="M77.5,98.5L91,94.3l-8.7-34.7c-0.7-3-3.8-4.9-6.8-4.1l-0.8,0.2c-3,0.7-4.8,3.7-4.1,6.7L77.5,98.5z"/><path class="st43" d="M89,83.7l-5.8-22.9h0l-0.4-1.4c-0.7-3-3-5.1-5.5-5.2l-0.1,1.3c2,0.1,3.8,1.9,4.4,4.3l3.3,13l2.9,11.8
		l10.9,8.7l0.8-1L89,83.7z"/><polygon class="st13" points="44.6,101.1 47.3,105.5 19.6,112.1 	"/><polygon class="st11" points="102.5,114 104.6,109.5 133.7,120.5 	"/><circle class="st14" cx="120.1" cy="105.3" r="4.2"/></g><g id="stramien"/></svg>