<?xml version="1.0" encoding="UTF-8"?><svg id="hand_with_phone" data-name="hand with phone" xmlns="http://www.w3.org/2000/svg" version="1.1" viewBox="0 0 160 160"><defs><style>.cls-1 {
        fill: #f7e5cd;
      }

      .cls-1, .cls-2, .cls-3, .cls-4 {
        stroke-width: 0px;
      }

      .cls-1, .cls-3 {
        fill-rule: evenodd;
      }

      .cls-2, .cls-3 {
        fill: #232144;
      }

      .cls-4 {
        fill: #e3944f;
      }</style></defs><path class="cls-4" d="M44.4,107.29l13.8-37.01c2.1-5.5,7.1-9.3,12.9-9.8l6.8-.6-19.7,52.72-13.8-5.3Z"/><polygon class="cls-4" points="52.3 85.98 79.5 77.18 97.8 122.59 81.1 144 23 144 35.3 129.8 52.3 85.98"/><path class="cls-3" d="M94.7,134.5l-39.7-14.8c-2.9-1.1-4.4-4.3-3.3-7.2L86.4,19.66c1.1-2.9,4.3-4.4,7.2-3.3l39.7,14.8c2.9,1.1,4.4,4.3,3.3,7.2l-34.7,92.83c-1,3-4.2,4.4-7.2,3.3h0Z"/><path class="cls-1" d="M95.5,132.4l-39.6-14.8c-2-.7-3-2.9-2.2-4.9L88.1,20.76c.7-2,2.9-3,4.9-2.2l39.5,14.7c2,.7,3,2.9,2.2,4.9l-34.4,91.93c-.6,2-2.8,3-4.8,2.3h0Z"/><path class="cls-2" d="M84.5,101.29c-.2-.1-.5-.1-.6,0-1.4,1.6-3.4,4.2-1,6.1,2.4,2,4.2-.6,5.8-2.8.2-.2.1-.5-.1-.6,0,0-4.1-2.7-4.1-2.7Z"/><path class="cls-2" d="M87.2,93.98c-.7,1.8-1,3.1-1.5,4.2,0,.2,0,.4.2.5,2.1,1.1,3.9,2.6,4.6,3.1.2.1.4.1.5,0,1.4-1.6,2.8-3.3,3.7-4.8,1.3-2.3,2-6.1-.5-7.6-2.7-1.6-5.7,1.1-7,4.6Z"/><path class="cls-2" d="M96.9,75.68c-.2-.1-.5-.1-.6,0-1.4,1.6-3.4,4.2-1,6.1,2.4,2,4.2-.6,5.8-2.8.2-.2.1-.5-.1-.6,0,0-4.1-2.7-4.1-2.7Z"/><path class="cls-2" d="M99.6,68.38c-.7,1.8-1,3.1-1.5,4.2,0,.2,0,.4.2.5,2.1,1.1,3.9,2.6,4.6,3.1.2.1.4.1.5,0,1.4-1.6,2.8-3.3,3.7-4.8,1.3-2.3,2-6.1-.5-7.6-2.7-1.6-5.7,1.1-7,4.6Z"/><path class="cls-2" d="M109.3,50.07c-.2-.1-.5-.1-.6,0-1.4,1.6-3.4,4.2-1,6.1,2.4,2,4.2-.6,5.8-2.8.2-.2.1-.5-.1-.6,0,0-4.1-2.7-4.1-2.7Z"/><path class="cls-2" d="M119.1,38.17c-2.7-1.6-5.8,1.1-7,4.6-.7,1.8-1,3.1-1.5,4.2,0,.2,0,.4.2.5,2.1,1.1,3.9,2.6,4.6,3.1.2.1.4.1.5,0,1.4-1.6,2.8-3.3,3.7-4.8,1.3-2.3,2-6.1-.5-7.6Z"/><path class="cls-2" d="M72.1,111.19l-4.7-1.4c-.2,0-.5,0-.6.3-.7,2.6-1.6,5.6,1.4,6.2,2.9.6,3.7-2.5,4.1-4.6,0-.3,0-.5-.3-.5h.1Z"/><path class="cls-2" d="M75.4,96.09c-2.6-1-5.3,1.9-6.2,4.4-.7,1.7-1.1,3.8-1.5,5.9,0,.2,0,.4.3.4.8.2,3.2.7,5.3,1.7.2.1.4,0,.5-.2.6-1,1.4-2.2,2.4-3.8,1.9-3.2,2.2-7.3-.8-8.4Z"/><path class="cls-2" d="M80.7,90.58c2.9.6,3.7-2.5,4.1-4.6,0-.2,0-.4-.3-.5l-4.7-1.4c-.2,0-.5,0-.6.3-.6,2.6-1.5,5.6,1.5,6.2Z"/><path class="cls-2" d="M80.4,81.18c.8.2,3.2.7,5.3,1.7.2.1.4,0,.5-.2.6-1,1.4-2.2,2.4-3.8,2-3.2,2.2-7.3-.7-8.4-2.6-1-5.3,1.9-6.2,4.4-.7,1.7-1.1,3.8-1.5,5.9,0,.2,0,.4.2.5v-.1Z"/><path class="cls-2" d="M93,64.98c2.9.6,3.7-2.5,4.1-4.6,0-.2,0-.4-.3-.5l-4.7-1.4c-.2,0-.5,0-.6.3-.6,2.6-1.5,5.5,1.5,6.2Z"/><path class="cls-2" d="M92.7,55.57c.8.2,3.2.7,5.3,1.7.2.1.4,0,.5-.2.6-1,1.4-2.2,2.4-3.8,2-3.2,2.2-7.3-.7-8.4-2.6-1-5.3,1.9-6.2,4.4-.7,1.7-1.1,3.8-1.5,5.9,0,.2,0,.4.2.5v-.1Z"/><path class="cls-3" d="M101.5,19.86l-.6,1.7c-.9,2.4.3,5,2.7,5.9l15.1,5.6c2.4.9,5-.3,5.9-2.7l.8-1.5-23.9-9ZM118.77,29.45l-12.93-4.83.46-1.22,12.93,4.83-.46,1.22Z"/><path class="cls-4" d="M103.8,107.89l3.9-1.8c3.5-1.6,7.7-.1,9.4,3.4h0c1.6,3.5.1,7.7-3.4,9.4l-3.9,1.8c-3.5,1.6-7.7.1-9.4-3.4h0c-1.7-3.6-.1-7.8,3.4-9.4Z"/><path class="cls-4" d="M100.6,86.58c-1.6-3.6.1-7.8,3.7-9.3l16.8-7.1c3.6-1.6,7.7.1,9.3,3.7h0c1.6,3.6-.1,7.7-3.7,9.3l-16.9,7.2c-3.5,1.4-7.7-.2-9.2-3.8h0Z"/><path class="cls-4" d="M66.4,61.68l17.2-6c3.7-1.3,7.7.6,9,4.3h0c1.3,3.7-.6,7.7-4.3,9l-29.1,10.2s7.2-17.51,7.2-17.51Z"/><path class="cls-4" d="M107.9,68.78c-1.6-3.6.1-7.8,3.7-9.3l14.4-6.2c3.6-1.6,7.7.1,9.3,3.7h0c1.6,3.6-.1,7.7-3.7,9.3l-14.4,6.2c-3.6,1.5-7.7-.1-9.3-3.7h0Z"/><path class="cls-4" d="M100,94.18l14.3-6.2c3.6-1.6,7.7.1,9.3,3.7h0c1.6,3.6-.1,7.7-3.7,9.3l-14.3,6.2c-3.6,1.6-7.7-.1-9.3-3.7h0c-1.5-3.6.1-7.8,3.7-9.3Z"/></svg>