<?xml version="1.0" encoding="UTF-8"?><svg id="Design" xmlns="http://www.w3.org/2000/svg" viewBox="0 0 160 160"><defs><style>.cls-1{fill:#fbb03b;}.cls-1,.cls-2,.cls-3,.cls-4,.cls-5{stroke-width:0px;}.cls-2{fill:#e73245;}.cls-3{fill:#e67e2e;}.cls-4{fill:#f7931e;}.cls-5{fill:#891229;}</style></defs><path class="cls-4" d="M43.71,126.65v11.83c0,3.05,13.88,5.52,31.01,5.52s31.01-2.47,31.01-5.52v-11.83h-62.03Z"/><path class="cls-3" d="M105.71,126.65c-.3-1.98-6.45-3.69-15.47-4.62v21.23c9.26-.95,15.49-2.74,15.49-4.78v-11.83h-.02Z"/><ellipse class="cls-1" cx="74.72" cy="126.65" rx="31.01" ry="5.52"/><path class="cls-4" d="M74.94,131.13c-10.64,0-26.47-1.16-26.47-4.35s15.83-4.35,26.47-4.35,26.47,1.16,26.47,4.35-15.83,4.35-26.47,4.35ZM74.94,123.25c-6.94,0-13.46.41-18.37,1.15-7.2,1.09-7.28,2.32-7.28,2.38s.08,1.29,7.28,2.38c4.9.74,11.43,1.15,18.37,1.15s13.46-.41,18.37-1.15c7.2-1.09,7.28-2.32,7.28-2.38s-.08-1.29-7.28-2.38c-4.9-.74-11.42-1.15-18.37-1.15Z"/><path class="cls-4" d="M35.78,113.88v11.83c0,3.05,13.88,5.52,31.01,5.52s31.01-2.47,31.01-5.52v-11.83h-62.03Z"/><path class="cls-3" d="M97.82,113.83c-.3-1.98-6.45-3.69-15.47-4.62v21.23c9.26-.95,15.49-2.74,15.49-4.78v-11.83h-.02Z"/><ellipse class="cls-1" cx="66.8" cy="113.88" rx="31.01" ry="5.52"/><path class="cls-4" d="M67.01,118.36c-10.64,0-26.47-1.16-26.47-4.35s15.83-4.35,26.47-4.35,26.47,1.16,26.47,4.35-15.83,4.35-26.47,4.35ZM67.01,110.48c-6.94,0-13.46.41-18.37,1.15-7.2,1.09-7.28,2.32-7.28,2.38s.08,1.29,7.28,2.38c4.9.74,11.43,1.15,18.37,1.15s13.46-.41,18.37-1.15c7.2-1.09,7.28-2.32,7.28-2.38s-.08-1.29-7.28-2.38c-4.9-.74-11.42-1.15-18.37-1.15Z"/><path class="cls-4" d="M46.95,98.92v11.83c0,3.05,13.88,5.52,31.01,5.52s31.01-2.47,31.01-5.52v-11.83h-62.03Z"/><path class="cls-3" d="M108.95,98.92c-.3-1.98-6.45-3.69-15.47-4.62v21.23c9.26-.95,15.49-2.74,15.49-4.78v-11.83h-.02Z"/><ellipse class="cls-1" cx="77.96" cy="98.92" rx="31.01" ry="5.52"/><path class="cls-4" d="M78.18,103.4c-10.64,0-26.47-1.16-26.47-4.35s15.83-4.35,26.47-4.35,26.47,1.16,26.47,4.35-15.83,4.35-26.47,4.35ZM78.18,95.52c-6.94,0-13.46.41-18.37,1.15-7.2,1.09-7.28,2.32-7.28,2.38s.08,1.29,7.28,2.38c4.9.74,11.42,1.15,18.37,1.15s13.46-.41,18.37-1.15c7.2-1.09,7.28-2.32,7.28-2.38s-.08-1.29-7.28-2.38c-4.9-.74-11.43-1.15-18.37-1.15Z"/><path class="cls-5" d="M122.6,62.09c-1.01,0-2.01-.25-2.98-.75l-.28-.14.64-1.25.28.14c1.94.98,4.01.71,5.69-.74.01,0,.02-.02.04-.03-.3-.03-.61-.08-.91-.15-2.33-.34-3.28-2.1-3.18-3.69.11-1.75,1.48-3.55,3.9-3.61,1.77.09,2.98.88,3.45,2.22.34.99.24,2.22-.29,3.46,1.35-.56,2.45-1.69,3.2-3.31,1.57-3.37,1.25-8.55-2.01-11.02l-.25-.19.85-1.12.25.19c3.81,2.9,4.23,8.86,2.43,12.73-1.16,2.5-3.11,4.08-5.49,4.45-.32.41-.68.79-1.06,1.13-1.27,1.1-2.74,1.68-4.26,1.68ZM125.77,53.27c-1.55.04-2.42,1.18-2.49,2.29-.06.92.45,1.99,2.04,2.22.64.14,1.25.2,1.83.17.76-1.19,1.06-2.51.75-3.4-.34-.98-1.34-1.23-2.12-1.28Z"/><path class="cls-5" d="M43.83,32.53l20.29-15.83c2.28-1.78,5.57.08,5.22,2.95l-1.94,15.78-23.57-2.9Z"/><polygon class="cls-5" points="97.55 98.39 97.55 80.36 111.85 78.1 103.47 98.39 97.55 98.39"/><polygon class="cls-5" points="62.31 98.39 62.31 80.36 74.35 80.36 68.23 98.39 62.31 98.39"/><path class="cls-2" d="M97.63,33.54l-19.21-2.36,1.04-8.4c.35-2.87-2.95-4.74-5.23-2.96l-12.01,9.37-1.69-.21c-10.94-1.35-21.13,4.21-26.22,13.24l-6.99-1.52-1.49,6.82c-1.1,5.04,1.29,10.04,5.55,12.47,2.04,10.9,10.88,19.72,22.44,21.26v17.15h5.92l5.34-15.76,23.97,2.95v12.81h5.92l4.34-12.8c10.97-2.07,19.84-11.01,21.27-22.67h0c1.78-14.44-8.5-27.59-22.95-29.37Z"/><circle class="cls-5" cx="47.46" cy="43.28" r="2.05"/><path class="cls-5" d="M43.83,32.53l20.29-15.83c2.28-1.78,5.57.08,5.22,2.95l-1.94,15.78-23.57-2.9Z"/><polygon class="cls-5" points="97.55 98.39 97.55 80.36 111.85 78.1 103.47 98.39 97.55 98.39"/><polygon class="cls-5" points="62.31 98.39 62.31 80.36 74.35 80.36 68.23 98.39 62.31 98.39"/><path class="cls-2" d="M97.63,33.54l-19.21-2.36,1.04-8.4c.35-2.87-2.95-4.74-5.23-2.96l-12.01,9.37-1.69-.21c-10.94-1.35-21.13,4.21-26.22,13.24l-6.99-1.52-1.49,6.82c-1.1,5.04,1.29,10.04,5.55,12.47,2.04,10.9,10.88,19.72,22.44,21.26v17.15h5.92l5.34-15.76,23.97,2.95v12.81h5.92l4.34-12.8c10.97-2.07,19.84-11.01,21.27-22.67h0c1.78-14.44-8.5-27.59-22.95-29.37Z"/><circle class="cls-5" cx="47.46" cy="43.28" r="2.05"/><path class="cls-5" d="M48.48,61.58c-2.7.98-5.54.86-7.86-.37l.86-1.63c2,1.06,4.51,1.09,6.87.07,2.03-.87,3.56-2.36,3.99-3.89l1.78.5c-.59,2.08-2.47,3.99-5.04,5.09-.2.09-.4.16-.6.24"/><rect class="cls-5" x="79.24" y="37.47" width="26.09" height="2.51" transform="translate(5.81 -11.66) rotate(7.46)"/><path class="cls-4" d="M100.28,41.04c2.07-1.96,3.36-4.72,3.36-7.79,0-5.94-4.82-10.75-10.77-10.75s-10.77,4.81-10.77,10.75c0,2.06.59,3.98,1.6,5.62l16.57,2.17Z"/><path class="cls-1" d="M97.76,40.71c2.44-1.59,4.05-4.34,4.05-7.46,0-4.92-4-8.92-8.93-8.92s-8.93,3.99-8.93,8.92c0,2.29.87,4.37,2.29,5.95l11.51,1.51Z"/></svg>