<?xml version="1.0" encoding="UTF-8"?><svg id="hand_with_pen" data-name="hand with pen" xmlns="http://www.w3.org/2000/svg" version="1.1" viewBox="0 0 160 160"><defs><style>.cls-1 {
        fill: #4f4f59;
      }

      .cls-1, .cls-2, .cls-3, .cls-4, .cls-5 {
        stroke-width: 0px;
      }

      .cls-2 {
        fill: #4b7cfe;
      }

      .cls-3 {
        fill: #232144;
      }

      .cls-4 {
        fill: #4b7cfe;
      }

      .cls-5 {
        fill: #fff;
      }</style></defs><rect class="cls-3" x="84.41" y="58.27" width="14.65" height="5.72" rx="2.54" ry="2.54" transform="translate(-12.58 25.47) rotate(-14.81)"/><path class="cls-3" d="M103.72,69.07l4.86-2.2-4.92-10.83-14.82,6.73c-1.65-.06-3.16.68-4.73,1.48l-26.78,8.75,11.7,23.18c2.5,4.98,8.58,6.97,13.55,4.46l6.75-3.41c1.2-.6,2.21-1.52,2.93-2.64l10.34-16.1,2.17-3.38c.62-.96.71-2.17.23-3.21l-1.28-2.83Z"/><rect class="cls-3" x="60.85" y="70.9" width="3.34" height="20.71" transform="translate(101.63 -13.52) rotate(60)"/><path class="cls-1" d="M36.57,75.02c-11.36,0-20.57,9.21-20.57,20.57s9.21,20.57,20.57,20.57,20.57-9.21,20.57-20.57-9.21-20.57-20.57-20.57ZM36.57,106.52c-6.04,0-10.94-4.9-10.94-10.94s4.9-10.94,10.94-10.94,10.94,4.9,10.94,10.94-4.9,10.94-10.94,10.94Z"/><path class="cls-1" d="M123.43,75.02c-11.36,0-20.57,9.21-20.57,20.57s9.21,20.57,20.57,20.57,20.57-9.21,20.57-20.57-9.21-20.57-20.57-20.57ZM123.43,106.52c-6.04,0-10.94-4.9-10.94-10.94s4.9-10.94,10.94-10.94,10.94,4.9,10.94,10.94-4.9,10.94-10.94,10.94Z"/><path class="cls-3" d="M64.44,90.87c-.3-.5-3.11-3.06-3.11-3.06-2.8-2.33-5.93-2.93-8.92-1.68,0,0,0,0,0,0l-16.35,6.21c-1.49,0-2.7,1.27-2.7,2.83v.84c0,1.57,1.21,2.83,2.7,2.83h35.38v-7.05c0-.55-.45-1-1-1l-6,.07Z"/><ellipse class="cls-3" cx="123.43" cy="95.59" rx="3.88" ry="3.87"/><path class="cls-3" d="M109.09,56.28h2.48c1.91,0,3.46,1.55,3.46,3.46v2.82c0,1.89-1.53,3.43-3.43,3.43h-2.51c-.77,0-1.4-.63-1.4-1.4v-6.9c0-.77.63-1.4,1.4-1.4Z" transform="translate(222.72 122.27) rotate(180)"/><path class="cls-2" d="M131.36,77.48l1.15-2.72c-5.72-2.41-12.41-2.46-18.43.44-2.79,1.35-5.18,3.2-7.1,5.39l1.87,1.76c3.58-4.02,8.78-6.57,14.59-6.57,2.83,0,5.5.61,7.93,1.69Z"/><rect class="cls-3" x="110.8" y="49.81" width="4.61" height="45.57" transform="translate(-19.89 53.22) rotate(-24.4)"/><ellipse class="cls-3" cx="36.57" cy="95.59" rx="3.88" ry="3.87"/><rect class="cls-5" x="65.7" y="76.23" width="1" height="5.39" transform="translate(-30.69 43.94) rotate(-30.16)"/><rect class="cls-5" x="67.88" y="75.04" width="1" height="5.39" transform="translate(-29.8 44.88) rotate(-30.16)"/><rect class="cls-5" x="69.83" y="73.89" width="1" height="5.39" transform="translate(-28.95 45.7) rotate(-30.16)"/><path class="cls-4" d="M102.03,70.07c2.84-1.94-1.1-6.65-1.67-7.69-2.03-3.72-7.92-2.28-7.92-2.28l-27.75,5.64s-5.62,1.32-9.63-.11c-2.33-.83-3.32-5.34-8.94-5.71-2.28-.15-8.7-.05-10.84-.01-.45,0-.86.23-1.12.59l-.43.61c-.46.65-.29,1.54.37,1.98l26.55,17.65c.74.49,1.75.18,2.08-.64h0c.15-.38.13-.8-.05-1.16l-1.89-3.73c-.4-.8.03-1.77.9-1.99l14.91-3.89c2.35-.56,3.58-.56,5.22-.13l11.01,3.67c1.8.42,3.23-.16,5.25-.87,0,0,3.05-1.29,3.95-1.91Z"/><rect class="cls-3" x="99.82" y="44.27" width="5.98" height="2.19" transform="translate(57.45 148.18) rotate(-90)"/><path class="cls-3" d="M100.87,39.8h.84c1.21,0,2.19.98,2.19,2.19v3.47h-3.04c-.59,0-1.07-.48-1.07-1.07v-3.52c0-.59.48-1.07,1.07-1.07Z"/><path class="cls-4" d="M97.38,48.42h7.22c1.07,0,1.93.87,1.93,1.93v.4c0,1.07-.87,1.93-1.93,1.93h-7.22c-.26,0-.48-.22-.48-.48v-3.31c0-.26.22-.48.48-.48Z" transform="translate(-11.8 46.54) rotate(-24.4)"/><rect class="cls-4" x="93.51" y="51.98" width="5.98" height="2" transform="translate(-13.27 44.6) rotate(-24.4)"/></svg>