<svg viewBox="0 0 160 160" fill="none" xmlns="http://www.w3.org/2000/svg"><path fill-rule="evenodd" clip-rule="evenodd" d="M23 139.952V20.0482C23 17.8122 24.8107 16.0002 27.045 16.0002H131.955C134.188 16.0002 136 17.8122 136 20.0482V139.952C136 142.188 134.188 144 131.955 144H27.045C24.8107 144 23 142.188 23 139.952Z" fill="#E73245"/><path fill-rule="evenodd" clip-rule="evenodd" d="M31.8152 59.0204V32.4934C31.8152 31.0484 32.9853 29.8774 34.4293 29.8774H124.57C126.014 29.8774 127.185 31.0484 127.185 32.4934V59.0204C127.185 60.4654 126.014 61.6364 124.57 61.6364H34.4293C32.9853 61.6364 31.8152 60.4654 31.8152 59.0204Z" fill="#232144"/><path fill-rule="evenodd" clip-rule="evenodd" d="M101.692 24.3433C101.692 23.1473 102.66 22.1783 103.855 22.1783H124.532C125.727 22.1783 126.696 23.1473 126.696 24.3433C126.696 25.5393 125.727 26.5083 124.532 26.5083H103.855C102.66 26.5083 101.692 25.5393 101.692 24.3433Z" fill="#232144"/><path fill-rule="evenodd" clip-rule="evenodd" d="M31.8154 86.1311H50.3058V69.2841H31.8154V86.1311Z" fill="#E6E3DA"/><path fill-rule="evenodd" clip-rule="evenodd" d="M57.4415 86.1311H75.9319V69.2841H57.4415V86.1311Z" fill="#E6E3DA"/><path fill-rule="evenodd" clip-rule="evenodd" d="M83.0677 86.1311H101.558V69.2841H83.0677V86.1311Z" fill="#E6E3DA"/><path fill-rule="evenodd" clip-rule="evenodd" d="M108.694 86.1311H127.184V69.2841H108.694V86.1311Z" fill="#E6E3DA"/><path fill-rule="evenodd" clip-rule="evenodd" d="M31.8154 109.899H50.3058V93.052H31.8154V109.899Z" fill="#E6E3DA"/><path fill-rule="evenodd" clip-rule="evenodd" d="M57.4415 109.899H75.9319V93.052H57.4415V109.899Z" fill="#E6E3DA"/><path fill-rule="evenodd" clip-rule="evenodd" d="M83.0677 109.899H101.558V93.052H83.0677V109.899Z" fill="#E6E3DA"/><path fill-rule="evenodd" clip-rule="evenodd" d="M108.694 109.899H127.184V93.052H108.694V109.899Z" fill="#E6E3DA"/><path fill-rule="evenodd" clip-rule="evenodd" d="M31.8154 133.667H50.3058V116.82H31.8154V133.667Z" fill="#E6E3DA"/><path fill-rule="evenodd" clip-rule="evenodd" d="M57.4415 133.667H75.9319V116.82H57.4415V133.667Z" fill="#E6E3DA"/><path fill-rule="evenodd" clip-rule="evenodd" d="M83.0677 133.667H127.184V116.82H83.0677V133.667Z" fill="#232144"/><path fill-rule="evenodd" clip-rule="evenodd" d="M74.4212 45.3941C74.4212 45.1621 74.4701 45.0461 74.7189 44.7151L77.6318 40.8731H72.8153C72.6335 40.8731 72.6005 40.7731 72.6005 40.6081V40.0941C72.6005 39.9291 72.6335 39.8301 72.8153 39.8301H78.724C78.9558 39.8301 79.0388 39.8631 79.0388 40.0781V40.3261C79.0388 40.8401 78.9229 41.0051 78.2933 41.8331L75.96 44.9301C78.1774 45.0791 79.4355 46.4041 79.4355 48.2761C79.4355 50.3621 77.9296 51.9191 75.5134 51.9191C74.4541 51.9191 73.329 51.6041 72.5345 51.1571C72.3357 51.0411 72.3027 50.9251 72.4016 50.7101L72.5845 50.3131C72.6834 50.1141 72.7824 50.0641 72.9482 50.1471C73.7587 50.5281 74.5531 50.8101 75.5294 50.8101C76.9533 50.8101 78.1614 49.9481 78.1614 48.3581C78.1614 46.7021 77.0193 45.8911 75.3145 45.8911H74.636C74.4541 45.8911 74.4212 45.8081 74.4212 45.6421V45.3941Z" fill="white"/><path fill-rule="evenodd" clip-rule="evenodd" d="M88.6212 39.8296C88.8031 39.8296 88.836 39.9286 88.836 40.0946V40.3096C88.836 40.7076 88.7531 41.0056 88.5553 41.5026L84.5992 51.5216C84.5172 51.7206 84.4343 51.7536 84.2354 51.7536H83.474C83.2921 51.7536 83.2591 51.6376 83.3251 51.4716L87.562 40.9056H82.2329C82.051 40.9056 82.0181 40.8066 82.0181 40.6406V40.0946C82.0181 39.9286 82.051 39.8296 82.2329 39.8296H88.6212Z" fill="white"/><path fill-rule="evenodd" clip-rule="evenodd" d="M91.4354 54.188C91.2535 54.188 91.2035 54.122 91.2365 53.956L91.7161 51.803L91.4354 51.687C91.2035 51.588 91.1536 51.505 91.1536 51.273V50.23C91.1536 50.081 91.2365 49.998 91.4024 49.998H92.6595C92.8423 49.998 92.9243 50.081 92.9243 50.23V50.925C92.9243 51.489 92.8253 51.787 92.5435 52.681L92.1308 53.989C92.0809 54.138 91.9979 54.188 91.849 54.188H91.4354Z" fill="white"/><path fill-rule="evenodd" clip-rule="evenodd" d="M101.034 44.6986V44.4666C101.034 42.0156 100.174 40.7566 98.535 40.7566C97.1779 40.7566 96.1357 41.5516 96.1357 43.2576C96.1357 44.6986 96.7483 45.5926 98.2871 45.5926C99.1475 45.5926 100.323 45.1956 101.034 44.6986ZM95.3743 51.4886C95.1924 51.4056 95.1754 51.3396 95.2424 51.1246L95.4073 50.6276C95.4572 50.4786 95.5232 50.4126 95.738 50.4786C96.2516 50.6606 96.8302 50.8096 97.4757 50.8096C100.19 50.8096 100.835 47.9276 100.951 45.7586C100.273 46.2886 99.1645 46.7186 98.2202 46.7186C95.788 46.7186 94.8616 45.2946 94.8616 43.2746C94.8616 40.9886 96.4005 39.6636 98.5849 39.6636C101.183 39.6636 102.292 41.4026 102.292 44.7816C102.292 48.1926 101.382 51.9196 97.4268 51.9196C96.7643 51.9196 95.9698 51.7706 95.3743 51.4886Z" fill="white"/><path fill-rule="evenodd" clip-rule="evenodd" d="M104.527 50.8262C104.527 46.9672 109.74 45.4442 109.74 42.8602C109.74 41.4032 108.764 40.8072 107.606 40.8072C106.744 40.8072 105.901 41.0552 105.139 41.5022C104.958 41.6012 104.875 41.5682 104.809 41.4522L104.543 41.0052C104.477 40.8892 104.444 40.7402 104.643 40.6082C105.453 40.0612 106.546 39.6642 107.738 39.6642C109.425 39.6642 110.997 40.6742 110.997 42.7282C110.997 46.1892 105.934 47.3152 105.785 50.7102H111.113C111.296 50.7102 111.329 50.8102 111.329 50.9752V51.4892C111.329 51.6542 111.296 51.7532 111.113 51.7532H104.742C104.56 51.7532 104.527 51.6542 104.527 51.4892V50.8262Z" fill="white"/><path fill-rule="evenodd" clip-rule="evenodd" d="M119.968 45.5763C119.968 42.4463 119.057 40.7573 117.403 40.7573C115.748 40.7573 114.706 42.5123 114.706 45.9403C114.706 49.0703 115.566 50.8263 117.254 50.8263C118.959 50.8263 119.968 48.9713 119.968 45.5763ZM113.398 46.0563C113.398 41.8993 114.92 39.6643 117.469 39.6643C119.786 39.6643 121.259 41.4523 121.259 45.5103C121.259 49.6003 119.786 51.9193 117.188 51.9193C114.855 51.9193 113.398 50.0313 113.398 46.0563Z" fill="white"/></svg>