<svg viewBox="0 0 160 160" fill="none" xmlns="http://www.w3.org/2000/svg"><path fill-rule="evenodd" clip-rule="evenodd" d="M89.0278 16H69.9722C68.3418 16 67.0199 17.322 67.0199 18.952V23.142C67.0199 24.772 68.3418 26.093 69.9722 26.093H74.4531V34.253H84.547V26.093H89.0278C90.6582 26.093 91.9801 24.772 91.9801 23.142V18.952C91.9801 17.322 90.6582 16 89.0278 16Z" fill="#232144"/><path fill-rule="evenodd" clip-rule="evenodd" d="M51.3771 41.1062L48.1153 36.7262L50.5215 34.9352C51.3961 34.2832 51.5778 33.0452 50.9258 32.1702L49.2505 29.9212C48.5995 29.0462 47.3615 28.8642 46.4859 29.5162L36.2562 37.1322C35.3816 37.7842 35.1999 39.0222 35.8518 39.8972L37.5262 42.1462C38.1781 43.0212 39.4161 43.2032 40.2908 42.5512L42.6969 40.7602L45.9577 45.1402L51.3771 41.1062Z" fill="#232144"/><path fill-rule="evenodd" clip-rule="evenodd" d="M125.142 37.1324L114.912 29.5164C114.036 28.8644 112.798 29.0454 112.147 29.9214L110.472 32.1704C109.821 33.0454 110.002 34.2834 110.877 34.9344L113.282 36.7254L110.021 41.1064L115.44 45.1404L118.702 40.7604L121.107 42.5514C121.983 43.2024 123.22 43.0214 123.872 42.1464L125.546 39.8964C126.198 39.0214 126.017 37.7844 125.142 37.1324Z" fill="#232144"/><path fill-rule="evenodd" clip-rule="evenodd" d="M79.5 34.1688C50.0889 34.1688 26.161 58.0948 26.161 87.5038C26.161 116.913 50.0889 140.839 79.5 140.839C108.911 140.839 132.838 116.913 132.838 87.5038C132.838 58.0948 108.911 34.1688 79.5 34.1688ZM79.5 144C64.408 144 50.2196 138.124 39.5486 127.453C28.8766 116.782 23 102.595 23 87.5038C23 72.4128 28.8766 58.2258 39.5486 47.5548C50.2196 36.8838 64.408 31.0078 79.5 31.0078C94.592 31.0078 108.78 36.8838 119.451 47.5548C130.123 58.2258 136 72.4128 136 87.5038C136 102.595 130.123 116.782 119.451 127.453C108.78 138.124 94.592 144 79.5 144Z" fill="#232144"/><path fill-rule="evenodd" clip-rule="evenodd" d="M70.5132 98.7549L68.2688 96.5279L105.601 58.7949L107.845 61.0219L70.5132 98.7549Z" fill="#FF6200"/><path fill-rule="evenodd" clip-rule="evenodd" d="M76.0001 84.0044C77.933 82.0714 81.067 82.0714 83 84.0044C84.9329 85.9374 84.9329 89.0704 83 91.0034C81.067 92.9364 77.933 92.9364 76.0001 91.0034C74.0672 89.0704 74.0672 85.9374 76.0001 84.0044Z" fill="white"/><path fill-rule="evenodd" clip-rule="evenodd" d="M79.5001 83.7423C78.5356 83.7423 77.5711 84.1093 76.8373 84.8443C76.1264 85.5543 75.7351 86.4993 75.7351 87.5043C75.7351 88.5083 76.1264 89.4533 76.8373 90.1633C78.305 91.6323 80.6942 91.6323 82.1628 90.1633C82.8737 89.4533 83.2651 88.5083 83.2651 87.5043C83.2651 86.4993 82.8737 85.5543 82.1628 84.8443C81.429 84.1093 80.4645 83.7423 79.5001 83.7423ZM79.5001 93.6363C77.9296 93.6363 76.3591 93.0383 75.163 91.8433C74.0038 90.6833 73.3658 89.1433 73.3658 87.5043C73.3658 85.8643 74.0038 84.3233 75.163 83.1643C77.5552 80.7733 81.445 80.7733 83.8362 83.1643C84.9953 84.3233 85.6333 85.8643 85.6333 87.5043C85.6333 89.1433 84.9953 90.6833 83.8362 91.8433C82.6411 93.0383 81.0706 93.6363 79.5001 93.6363Z" fill="#FF6200"/><path fill-rule="evenodd" clip-rule="evenodd" d="M75.9725 47.2884V40.9414H83.0283V47.2884H75.9725Z" fill="#232144"/><path fill-rule="evenodd" clip-rule="evenodd" d="M75.9718 131.156V124.809H83.0276V131.156H75.9718Z" fill="#232144"/><path fill-rule="evenodd" clip-rule="evenodd" d="M118.262 82.5234H124.609V89.5784H118.262V82.5234Z" fill="#232144"/><path fill-rule="evenodd" clip-rule="evenodd" d="M34.3909 82.5215H40.7378V89.5765H34.3909V82.5215Z" fill="#232144"/><path fill-rule="evenodd" clip-rule="evenodd" d="M97.549 51.7026L100.754 46.2246L103.798 48.0056L100.594 53.4836L97.549 51.7026Z" fill="#232144"/><path fill-rule="evenodd" clip-rule="evenodd" d="M55.2014 124.093L58.4063 118.615L61.4505 120.396L58.2466 125.874L55.2014 124.093Z" fill="#232144"/><path fill-rule="evenodd" clip-rule="evenodd" d="M113.082 66.6106L118.714 63.6836L120.34 66.8136L114.708 69.7406L113.082 66.6106Z" fill="#232144"/><path fill-rule="evenodd" clip-rule="evenodd" d="M38.6598 105.284L44.2918 102.357L45.9182 105.487L40.2862 108.414L38.6598 105.284Z" fill="#232144"/><path fill-rule="evenodd" clip-rule="evenodd" d="M113.849 104.098L119.327 107.302L117.546 110.347L112.067 107.143L113.849 104.098Z" fill="#232144"/><path fill-rule="evenodd" clip-rule="evenodd" d="M41.4535 61.752L46.9318 64.956L45.1506 68.001L39.6724 64.797L41.4535 61.752Z" fill="#232144"/><path fill-rule="evenodd" clip-rule="evenodd" d="M98.939 119.629L101.865 125.261L98.7353 126.887L95.809 121.255L98.939 119.629Z" fill="#232144"/><path fill-rule="evenodd" clip-rule="evenodd" d="M60.264 45.2109L63.1904 50.8429L60.0604 52.4689L57.134 46.8369L60.264 45.2109Z" fill="#232144"/></svg>