<?xml version="1.0" encoding="UTF-8"?><svg xmlns="http://www.w3.org/2000/svg" viewBox="0 0 160 160"><defs><style>.cls-1{fill:#d8cbc5;}.cls-2{fill:#6f6bff;}.cls-3{fill:#d7a232;}.cls-4{fill:#f3c361;}.cls-5{fill:#f3c361;}.cls-6{fill:#e6e3da;}.cls-7{fill:#232045;}.cls-8{fill:#4537c8;}.cls-9{fill:#f99400;}.cls-10{fill:#d0def2;}.cls-11{fill:#e0b048;}</style></defs><g id="Boxes"><polygon class="cls-3" points="23.71 57.63 23.71 68.43 35.3 68.43 35.3 60.57 68.23 60.57 68.23 68.43 78.72 68.43 78.72 60.57 111.66 60.57 111.66 68.43 123.25 68.43 123.25 57.63 23.71 57.63"/><rect class="cls-4" x="39.61" y="76.36" width="59.47" height="48.81"/><rect class="cls-3" x="52.94" y="89.36" width="33.56" height="7.56" transform="translate(162.87 23.42) rotate(90)"/><rect class="cls-5" x="28.35" y="27.27" width="42.55" height="30.38"/><rect class="cls-11" x="74.68" y="27.27" width="42.55" height="30.38"/><rect class="cls-5" x="74.68" y="39.8" width="42.55" height="5.96"/><path class="cls-7" d="M144,125.18h-13.93s0,0,0,0h-5.07s0,0,0,0H19.55v-53.19h105.08s.02,0,.04,0h6.49s.02,0,.04,0h12.8v-3.56h-14.58s-3.55-.01-3.55-.01h0s-106.32.01-106.32.01V16h-3.55v124.73h3.55v-12h106.32s3.55,0,3.55,0h0s14.58,0,14.58,0v-3.56Z"/></g><g id="Bucket_with_water"><ellipse class="cls-10" cx="80.46" cy="138.63" rx="47.76" ry="5.1"/><path class="cls-2" d="M93.71,100.62h42.39l-4.23,32.43c-.27,2.11-2.07,3.68-4.19,3.68h-26.35c-2.16,0-3.98-1.63-4.2-3.78l-3.42-32.33Z"/><rect class="cls-7" x="90.53" y="95.78" width="48.76" height="5.3"/><path class="cls-7" d="M134.87,110.08c1.28,3.59,1.92,7.62.12,10.78s-5.64,3.37-8.81,2.63c-4.53-1.06-8.67-3.71-12.16-6.71-4.41-3.78-8.1-8.37-10.79-13.52-.79-1.52-3.1-.18-2.3,1.35,4.44,8.5,11.84,16.39,20.77,20.18,5.94,2.53,14.31,2.81,16.5-4.74,1.46-5.03-.41-10.58-2.65-15.14l-.67,5.16Z"/><rect class="cls-8" x="115.23" y="11.07" width="4.06" height="108.58" transform="translate(42.7 -46.27) rotate(27.12)"/><rect class="cls-9" x="136.09" y="16.1" width="4.06" height="17.08" transform="translate(26.43 -60.26) rotate(27.12)"/><path class="cls-6" d="M121.36,137.23c-1.84.4-4.61.98-7.99,1.55h-.06c-1.99.33-4.17.65-6.48.96h-.02c-4.32.54-9.04.96-13.61.99-1.41,0-2.81-.02-4.19-.1h-.11c-3.48-.17-6.54-.32-9.16-.57-1.01-.1-1.95-.21-2.83-.33-7.04-1.07-10.07-3.4-9.06-10.36,1.47-10.07,16.73-17.82,16.73-17.82l2.08,1.09,1.57.84,2.14,1.13,1.72.9,1.59.84,1.72.92,2.01,1.05c-.38,4.11-.98,14.19,9.98,15.26,6.86.69,11.49,1.74,14.01,2.43.63.17.61,1.09-.04,1.22Z"/><path class="cls-1" d="M113.31,138.78c-1.99.33-4.17.65-6.48.96h-.02c-4.26-1.05-9.56-3.19-12.52-7.65-2.73-4.13-2.94-9.41-.61-15.73.06-.15.11-.32.17-.48l1.8.69c-.1.23-.17.48-.25.71-2.01,5.6-1.85,10.23.48,13.75,4.57,6.88,16.06,7.69,17.44,7.76Z"/><path class="cls-1" d="M93.24,140.54l-.04.19c-1.41,0-2.81-.02-4.19-.1-1.57-1.05-3.25-2.7-4.24-5.2-2.03-5.24-.15-12.24,5.6-20.82.13-.21.29-.44.44-.65l1.59,1.09c-.11.15-.21.31-.31.46-5.41,7.97-7.3,14.62-5.54,19.21,1.76,4.59,6.65,5.79,6.69,5.81Z"/><path class="cls-1" d="M76.51,132.91c.13,4.07,2.45,6.46,3.23,7.15-1.01-.1-1.95-.21-2.83-.33-1.07-1.45-2.2-3.69-2.31-6.71-.25-6.21,3.82-13.06,12.06-20.38.15-.13.32-.29.48-.42l1.09,1.26.17.19c-7.99,6.94-12.1,13.59-11.89,19.23Z"/><rect class="cls-8" x="82.98" y="111.41" width="19.02" height="4.63" transform="translate(62.02 -29.66) rotate(27.12)"/></g></svg>