<?xml version="1.0" encoding="UTF-8"?><svg xmlns="http://www.w3.org/2000/svg" version="1.1" viewBox="0 0 160 160"><defs><style>.cls-1 {
        fill: #797878;
      }

      .cls-2 {
        fill: #fff;
      }

      .cls-3 {
        fill: #ff6200;
      }

      .cls-4 {
        fill: #a8a8a8;
      }

      .cls-5 {
        fill: #4f4f59;
      }</style></defs><!--Generator: Adobe Illustrator 28.6.0, SVG Export Plug-In . SVG Version: 1.2.0 Build 709)--><g><g id="Credit"><g><path class="cls-4" d="M58.6,120.9l3-2.2h.1c0,0-.1-2.5-.1-2.5l6.1-4.5,2.4.8.9-.7,17.8-13c1.5-1.1,1.9-3.3.8-4.8l-37.1-50.9c-1.1-1.5-3.3-1.9-4.8-.8l-30.2,22c-1.5,1.1-1.9,3.3-.8,4.8l37.1,50.9c1.1,1.5,3.3,1.9,4.8.8Z"/><path class="cls-2" d="M42.1,63.3l-2.2-3-1.3.9c-.4.3-.6.8-.4,1.1l1.8,2.4,2-1.5Z"/><path class="cls-2" d="M46.1,68.7l-2.1-2.9-2,1.5,1.8,2.4c.2.3.7.3,1.1,0l1.2-.9Z"/><rect class="cls-2" x="45.2" y="65.3" width="2" height="3" transform="translate(-30.5 40) rotate(-36.1)"/><rect class="cls-2" x="40.8" y="59.3" width="2" height="3" transform="translate(-27.8 36.2) rotate(-36.1)"/><rect class="cls-2" x="46.1" y="60.6" width="1" height="2.7" transform="translate(-27.5 39.3) rotate(-36.1)"/><rect class="cls-2" x="40.9" y="64.4" width="1" height="2.7" transform="translate(-30.7 37) rotate(-36.1)"/><path class="cls-2" d="M45.9,64.4l2.1,2.9,1.3-.9c.4-.3.6-.8.4-1.1l-1.7-2.4-2,1.5Z"/><path class="cls-2" d="M46.1,60.3l-1.8-2.4c-.2-.3-.7-.3-1.1,0l-1.3.9,2.2,3,2-1.5Z"/><polygon class="cls-2" points="40.7 63.7 44.9 60.6 47.3 63.9 43.1 67 40.7 63.7"/><path class="cls-3" d="M40.5,63.6l4.4-3.2,2.6,3.6-4.4,3.2-2.6-3.6ZM44.8,60.7l-4,3,2.3,3.2,4-3-2.3-3.2Z"/><path class="cls-2" d="M40.1,54.7c-.9-.1-1.7-.2-2.6-.4h-.4c-.2,0-.4,0-.5.3,0,.8-.1,1.6-.2,2.4v.3c0,.2,0,.4.3.5s.4-.1.5-.3c0-.8.1-1.6.2-2.4v-.3c-.1.1-.3.2-.4.3.9.1,1.7.2,2.6.4h.4c.2,0,.4,0,.5-.3s-.1-.4-.3-.5h0Z"/><path class="cls-2" d="M42.1,63.3l-2.2-3-1.3.9c-.4.3-.6.8-.4,1.1l1.8,2.4,2-1.5Z"/><path class="cls-2" d="M46.1,68.7l-2.1-2.9-2,1.5,1.8,2.4c.2.3.7.3,1.1,0l1.2-.9Z"/><rect class="cls-2" x="45.2" y="65.3" width="2" height="3" transform="translate(-30.5 40) rotate(-36.1)"/><rect class="cls-2" x="40.8" y="59.3" width="2" height="3" transform="translate(-27.8 36.2) rotate(-36.1)"/><rect class="cls-2" x="46.1" y="60.6" width="1" height="2.7" transform="translate(-27.5 39.3) rotate(-36.1)"/><rect class="cls-2" x="40.9" y="64.4" width="1" height="2.7" transform="translate(-30.8 37) rotate(-36.1)"/><path class="cls-2" d="M45.9,64.4l2.1,2.9,1.3-.9c.4-.3.6-.8.4-1.1l-1.7-2.4-2,1.5Z"/><path class="cls-2" d="M46.1,60.3l-1.8-2.4c-.2-.3-.7-.3-1.1,0l-1.3.9,2.2,3,2-1.5Z"/><polygon class="cls-2" points="40.7 63.7 44.9 60.6 47.3 63.9 43 67 40.7 63.7"/><path class="cls-4" d="M40.4,63.6l4.4-3.2,2.6,3.6-4.4,3.2-2.6-3.6ZM44.8,60.7l-4,3,2.3,3.2,4-3-2.3-3.2Z"/><path class="cls-2" d="M40,54.7c-.9-.1-1.7-.2-2.6-.4h-.4c-.2,0-.4,0-.5.3,0,.8-.1,1.6-.2,2.4v.3c0,.2,0,.4.3.5s.4-.1.5-.3c0-.8.1-1.6.2-2.4v-.3c-.1.1-.3.2-.4.3.9.1,1.7.2,2.6.4h.4c.2,0,.4,0,.5-.3s-.1-.4-.3-.5h0Z"/></g></g><g id="Platinum"><g><path class="cls-1" d="M61.7,107.8h3.7c0,0,.2,0,.2,0l1.4-2h7.6c0,0,1.4,2.3,1.4,2.3h1.1s22.3.5,22.3.5c1.9,0,3.5-1.5,3.6-3.4l1.4-63.8c0-1.9-1.5-3.5-3.4-3.6l-37.8-.8c-1.9,0-3.5,1.5-3.6,3.4l-1.4,63.8c0,1.9,1.5,3.5,3.4,3.6Z"/><path class="cls-2" d="M83.9,51.2v-3.7c0,0-1.5,0-1.5,0-.5,0-.9.3-1,.7v3.1c0,0,2.4,0,2.4,0Z"/><path class="cls-2" d="M83.7,58.1v-3.7c0,0-2.4,0-2.4,0v3c0,.4.3.7.9.7h1.6Z"/><rect class="cls-2" x="83.5" y="55.6" width="3" height="2" transform="translate(26.4 140.2) rotate(-88.7)"/><rect class="cls-2" x="83.6" y="48" width="3" height="2" transform="translate(34.2 133) rotate(-88.7)"/><rect class="cls-2" x="87" y="52.4" width="2.7" height="1" transform="translate(33.4 140) rotate(-88.7)"/><rect class="cls-2" x="80.5" y="52.3" width="2.7" height="1" transform="translate(27.2 133.3) rotate(-88.7)"/><path class="cls-2" d="M86.3,54.5v3.7c0,0,1.5,0,1.5,0,.5,0,.9-.3,1-.6v-3c0,0-2.5,0-2.5,0Z"/><path class="cls-2" d="M88.9,51.3v-3.1c0-.4-.3-.7-.9-.7h-1.6s0,3.7,0,3.7h2.5Z"/><polygon class="cls-2" points="82.5 50.7 87.8 50.8 87.7 54.9 82.4 54.8 82.5 50.7"/><path class="cls-3" d="M82.4,50.5h5.5c0,.1-.1,4.6-.1,4.6h-5.5c0-.1.1-4.6.1-4.6ZM87.7,50.9h-5.1c0-.1,0,3.9,0,3.9h5.1c0,.1,0-3.9,0-3.9Z"/><path class="cls-2" d="M87.5,43.1c-.6-.6-1.2-1.3-1.9-1.9l-.3-.3c-.2-.2-.4-.2-.6,0-.5.6-1.1,1.2-1.6,1.8l-.2.3c-.1.2-.2.4,0,.6s.4.2.6,0c.5-.6,1.1-1.2,1.6-1.8l.2-.3h-.6c.6.6,1.2,1.2,1.9,1.9l.3.3c.2.2.4.2.6,0s.2-.4,0-.6h0Z"/><path class="cls-2" d="M83.9,51.2v-3.7c0,0-1.5,0-1.5,0-.5,0-.9.3-1,.7v3.1c0,0,2.4,0,2.4,0Z"/><path class="cls-2" d="M83.7,58.1v-3.7c0,0-2.4,0-2.4,0v3c0,.4.3.7.9.7h1.6Z"/><rect class="cls-2" x="83.5" y="55.6" width="3" height="2" transform="translate(26.4 140.2) rotate(-88.7)"/><rect class="cls-2" x="83.6" y="48" width="3" height="2" transform="translate(34.1 133) rotate(-88.7)"/><rect class="cls-2" x="87" y="52.4" width="2.7" height="1" transform="translate(33.4 140) rotate(-88.7)"/><rect class="cls-2" x="80.5" y="52.3" width="2.7" height="1" transform="translate(27.1 133.3) rotate(-88.7)"/><path class="cls-2" d="M86.3,54.5v3.7c0,0,1.5,0,1.5,0,.5,0,.9-.3,1-.6v-3c0,0-2.5,0-2.5,0Z"/><path class="cls-2" d="M88.9,51.3v-3.1c0-.4-.3-.7-.9-.7h-1.6s0,3.7,0,3.7h2.5Z"/><polygon class="cls-2" points="82.5 50.7 87.8 50.8 87.7 54.9 82.4 54.8 82.5 50.7"/><path class="cls-1" d="M82.3,50.5h5.5c0,.1-.1,4.6-.1,4.6h-5.5c0-.1.1-4.6.1-4.6ZM87.6,50.9h-5.1c0-.1,0,3.9,0,3.9h5.1c0,.1,0-3.9,0-3.9Z"/><path class="cls-2" d="M87.5,43.1c-.6-.6-1.2-1.3-1.9-1.9l-.3-.3c-.2-.2-.4-.2-.6,0-.5.6-1.1,1.2-1.6,1.8l-.2.3c-.1.2-.2.4,0,.6s.4.2.6,0c.5-.6,1.1-1.2,1.6-1.8l.2-.3h-.6c.6.6,1.2,1.2,1.9,1.9l.3.3c.2.2.4.2.6,0s.2-.4,0-.6h0Z"/></g></g><g id="Business"><g><path class="cls-5" d="M83.1,110.3l3.5,1.2h.1c0,0,1.9-1.4,1.9-1.4l7.2,2.4.7,2.5,1.1.4,20.9,7.4c1.8.6,3.8-.3,4.4-2.1l21-59.5c.6-1.8-.3-3.8-2.1-4.4l-35.3-12.4c-1.8-.6-3.8.3-4.4,2.1l-21,59.5c-.6,1.8.3,3.8,2.1,4.4Z"/><path class="cls-2" d="M121.4,64l1.2-3.5-1.5-.5c-.5-.2-1,0-1.1.3l-1,2.9,2.3.8Z"/><path class="cls-2" d="M119.1,70.4l1.2-3.4-2.3-.8-1,2.8c-.1.3.2.8.7.9l1.5.5Z"/><rect class="cls-2" x="119.3" y="68.4" width="3" height="2" transform="translate(15.1 160.1) rotate(-70.5)"/><rect class="cls-2" x="121.8" y="61.3" width="3" height="2" transform="translate(23.4 157.8) rotate(-70.5)"/><rect class="cls-2" x="123.8" y="66.5" width="2.7" height="1" transform="translate(20.2 162.6) rotate(-70.5)"/><rect class="cls-2" x="117.7" y="64.3" width="2.7" height="1" transform="translate(18.2 155.4) rotate(-70.5)"/><path class="cls-2" d="M122.7,67.8l-1.2,3.4,1.5.5c.5.2,1,0,1.1-.3l1-2.8-2.4-.8Z"/><path class="cls-2" d="M126.1,65.7l1-2.9c.1-.4-.2-.8-.7-.9l-1.5-.5-1.2,3.5,2.4.8Z"/><polygon class="cls-2" points="120.2 63.1 125.2 64.8 123.8 68.6 118.9 66.9 120.2 63.1"/><path class="cls-3" d="M120.2,62.8l5.2,1.8-1.5,4.2-5.2-1.8,1.5-4.2ZM125.1,64.8l-4.7-1.7-1.3,3.7,4.7,1.7,1.3-3.7Z"/><path class="cls-2" d="M127.3,57.5c-.4-.8-.8-1.6-1.2-2.3l-.2-.3c0-.2-.4-.3-.6-.2-.7.4-1.4.8-2.1,1.2l-.3.2c-.2.1-.3.3-.2.6s.4.3.6.2c.7-.4,1.4-.8,2.1-1.2l.3-.2-.6-.2c.4.8.8,1.6,1.2,2.3l.2.3c0,.2.4.3.6.2s.3-.3.2-.6h0Z"/><path class="cls-2" d="M121.4,64l1.2-3.5-1.5-.5c-.5-.2-1,0-1.1.3l-1,2.9,2.3.8Z"/><path class="cls-2" d="M119.1,70.4l1.2-3.4-2.3-.8-1,2.8c-.1.3.2.8.7.9l1.5.5Z"/><rect class="cls-2" x="119.3" y="68.4" width="3" height="2" transform="translate(15.1 160.1) rotate(-70.5)"/><rect class="cls-2" x="121.8" y="61.3" width="3" height="2" transform="translate(23.4 157.8) rotate(-70.5)"/><rect class="cls-2" x="123.7" y="66.5" width="2.7" height="1" transform="translate(20.2 162.5) rotate(-70.5)"/><rect class="cls-2" x="117.7" y="64.3" width="2.7" height="1" transform="translate(18.2 155.4) rotate(-70.5)"/><path class="cls-2" d="M122.7,67.8l-1.2,3.4,1.5.5c.5.2,1,0,1.1-.3l1-2.8-2.4-.8Z"/><path class="cls-2" d="M126.1,65.6l1-2.9c.1-.4-.2-.8-.7-.9l-1.5-.5-1.2,3.5,2.4.8Z"/><polygon class="cls-2" points="120.2 63.1 125.2 64.8 123.8 68.6 118.9 66.9 120.2 63.1"/><path class="cls-5" d="M120.2,62.8l5.2,1.8-1.5,4.2-5.2-1.8,1.5-4.2ZM125.1,64.8l-4.7-1.7-1.3,3.7,4.7,1.7,1.3-3.7Z"/><path class="cls-2" d="M127.3,57.5c-.4-.8-.8-1.6-1.2-2.3l-.2-.3c0-.2-.4-.3-.6-.2-.7.4-1.4.8-2.1,1.2l-.3.2c-.2.1-.3.3-.2.6s.4.3.6.2c.7-.4,1.4-.8,2.1-1.2l.3-.2-.6-.2c.4.8.8,1.6,1.2,2.3l.2.3c0,.2.4.3.6.2s.3-.3.2-.6h0Z"/></g></g></g></svg>