<svg viewBox="0 0 160 160" fill="none" xmlns="http://www.w3.org/2000/svg"><path fill-rule="evenodd" clip-rule="evenodd" d="M118.17 62.7591C116.63 63.2235 114.997 63.4736 113.304 63.4736C104.056 63.4736 96.558 56.0248 96.558 46.8372C96.558 44.6538 96.982 42.5702 97.751 40.6609C93.44 37.6505 90.623 32.673 90.623 27.0408C90.623 26.5694 90.644 26.1021 90.683 25.6407C85.221 23.9257 79.406 23 73.373 23C41.687 23 16 48.5192 16 79.9995C16 111.481 41.687 137 73.373 137C105.06 137 130.747 111.481 130.747 79.9995C130.747 76.3334 130.399 72.748 129.733 69.2742C125.017 68.773 120.886 66.3276 118.17 62.7591Z" fill="#FAA332"/><path fill-rule="evenodd" clip-rule="evenodd" d="M47.3805 77.3728C47.3805 80.6294 44.7235 83.2691 41.4455 83.2691C38.1675 83.2691 35.5105 80.6294 35.5105 77.3728C35.5105 74.1163 38.1675 71.4766 41.4455 71.4766C44.7235 71.4766 47.3805 74.1163 47.3805 77.3728Z" fill="#891229"/><path fill-rule="evenodd" clip-rule="evenodd" d="M64.3399 112.331C64.3399 114.658 62.4409 116.544 60.0989 116.544C57.7569 116.544 55.8579 114.658 55.8579 112.331C55.8579 110.004 57.7569 108.118 60.0989 108.118C62.4409 108.118 64.3399 110.004 64.3399 112.331Z" fill="#891229"/><path fill-rule="evenodd" clip-rule="evenodd" d="M81.2963 83.6902C81.2963 86.9467 78.6393 89.5865 75.3613 89.5865C72.0833 89.5865 69.4263 86.9467 69.4263 83.6902C69.4263 80.4337 72.0833 77.7939 75.3613 77.7939C78.6393 77.7939 81.2963 80.4337 81.2963 83.6902Z" fill="#891229"/><path fill-rule="evenodd" clip-rule="evenodd" d="M106.309 99.6951C106.309 102.952 103.652 105.591 100.374 105.591C97.096 105.591 94.439 102.952 94.439 99.6951C94.439 96.4385 97.096 93.7988 100.374 93.7988C103.652 93.7988 106.309 96.4385 106.309 99.6951Z" fill="#891229"/><path fill-rule="evenodd" clip-rule="evenodd" d="M67.7299 42.4143C67.7299 45.6709 65.0729 48.3106 61.7949 48.3106C58.5169 48.3106 55.8599 45.6709 55.8599 42.4143C55.8599 39.1578 58.5169 36.5181 61.7949 36.5181C65.0729 36.5181 67.7299 39.1578 67.7299 42.4143Z" fill="#891229"/><path fill-rule="evenodd" clip-rule="evenodd" d="M144 104.429C144 106.035 142.689 107.337 141.073 107.337C139.456 107.337 138.146 106.035 138.146 104.429C138.146 102.822 139.456 101.521 141.073 101.521C142.689 101.521 144 102.822 144 104.429Z" fill="#891229"/><path fill-rule="evenodd" clip-rule="evenodd" d="M131.309 132.3C131.309 134.511 129.504 136.305 127.278 136.305C125.052 136.305 123.248 134.511 123.248 132.3C123.248 130.089 125.052 128.295 127.278 128.295C129.504 128.295 131.309 130.089 131.309 132.3Z" fill="#FAA332"/><path fill-rule="evenodd" clip-rule="evenodd" d="M119.578 130.994C119.578 132.1 118.676 132.996 117.563 132.996C116.45 132.996 115.547 132.1 115.547 130.994C115.547 129.888 116.45 128.992 117.563 128.992C118.676 128.992 119.578 129.888 119.578 130.994Z" fill="#FAA332"/><path fill-rule="evenodd" clip-rule="evenodd" d="M97.3043 51.7612C95.3953 52.1867 93.9683 53.8788 93.9683 55.9037C93.9683 58.2494 95.8823 60.1497 98.2423 60.1497C99.5523 60.1497 100.723 59.5648 101.507 58.643C99.5863 56.7487 98.1243 54.395 97.3043 51.7612Z" fill="#891229"/></svg>