<svg viewBox="0 0 160 160" fill="none" xmlns="http://www.w3.org/2000/svg"><path fill-rule="evenodd" clip-rule="evenodd" d="M132.426 78.5537C132.426 80.5125 130.832 82.0999 128.866 82.0999H125.272C123.306 82.0999 121.711 80.5125 121.711 78.5537V62.7215C121.711 60.7637 123.306 59.1753 125.272 59.1753H128.866C130.832 59.1753 132.426 60.7637 132.426 62.7215V78.5537ZM119.397 109.999H134.741V56.2461H119.397V109.999Z" fill="#232144"/><path fill-rule="evenodd" clip-rule="evenodd" d="M110.137 110H144V107.893H110.137V110Z" fill="#232144"/><path fill-rule="evenodd" clip-rule="evenodd" d="M126.253 88.8926L129.55 88.9405L127.642 93.54L131.101 92.1772L125.872 100.99L127.155 95.0455L124.196 96.2835L126.253 88.8926Z" fill="#F7931E"/><path fill-rule="evenodd" clip-rule="evenodd" d="M109.265 96.8166C106.833 96.8166 104.492 95.8841 103.076 94.2648C101.438 92.4377 100.153 89.208 98.7921 85.7886C96.4851 79.99 94.0981 73.9938 89.8251 73.9938H89.8121L89.8091 73.1043H89.8251C94.7061 73.1043 97.2051 79.386 99.6231 85.4611C100.953 88.8047 102.21 91.9635 103.746 93.6757C105.324 95.4818 108.223 96.3164 110.962 95.7563C113.234 95.2921 114.875 93.9812 115.465 92.1582C116.622 88.582 116.111 84.0255 115.617 79.6186C114.869 72.9495 114.163 66.6508 119.201 64.2188L119.591 65.0194C115.12 67.1769 115.793 73.1721 116.504 79.5198C117.009 84.0205 117.531 88.6739 116.315 92.4308C115.623 94.5683 113.738 96.0978 111.142 96.6279C110.52 96.7547 109.889 96.8166 109.265 96.8166Z" fill="#232144"/><path fill-rule="evenodd" clip-rule="evenodd" d="M22.9008 107.172V89.5846C22.9008 89.2721 23.1548 89.0195 23.4678 89.0195H32.3118C32.6248 89.0195 32.8788 89.2721 32.8788 89.5846V107.172C32.8788 108.733 31.6108 109.998 30.0468 109.998H25.7318C24.1688 109.998 22.9008 108.733 22.9008 107.172Z" fill="#232144"/><path fill-rule="evenodd" clip-rule="evenodd" d="M79.5356 107.172V89.5846C79.5356 89.2721 79.7896 89.0195 80.1026 89.0195H88.9466C89.2596 89.0195 89.5136 89.2721 89.5136 89.5846V107.172C89.5136 108.733 88.2456 109.998 86.6816 109.998H82.3666C80.8036 109.998 79.5356 108.733 79.5356 107.172Z" fill="#232144"/><path fill-rule="evenodd" clip-rule="evenodd" d="M21.1459 95.8492L21.8449 76.2192C21.9419 73.4907 22.6099 70.7931 23.8229 68.2283L30.2989 54.5326C31.5849 51.812 34.9489 50 38.7149 50H75.4459C79.2589 50 82.6539 51.857 83.9049 54.6265L89.5279 67.0732C90.7399 69.7558 91.3589 72.5752 91.3589 75.4146V95.8492C91.3589 99.7848 87.2089 102.975 82.0899 102.975H30.4149C25.2959 102.975 21.1459 99.7848 21.1459 95.8492Z" fill="#F7E5CD"/><path fill-rule="evenodd" clip-rule="evenodd" d="M74.7399 88.2813C74.1329 85.9251 71.7309 84.166 68.8589 84.166H45.1189C42.2469 84.166 39.8459 85.9251 39.2389 88.2813C39.1349 88.3502 39.0399 92.0611 39.2389 92.1939C39.8459 94.5491 42.2469 96.3092 45.1189 96.3092H68.8589C71.7309 96.3092 74.1329 94.5491 74.7399 92.1929C74.8309 92.133 74.8309 88.3412 74.7399 88.2813Z" fill="#232144"/><path fill-rule="evenodd" clip-rule="evenodd" d="M32.8781 102.975H79.5351V100.76H32.8781V102.975Z" fill="#232144"/><path fill-rule="evenodd" clip-rule="evenodd" d="M83.7838 67.6672C85.4088 67.6433 86.3818 65.8482 85.5498 64.4585L79.2658 53.9556C78.5668 52.7865 77.1898 52.0547 75.6888 52.0547H38.2888C36.7888 52.0547 35.4108 52.7865 34.7118 53.9556L28.4288 64.4585C27.5968 65.8482 28.5698 67.6433 30.1938 67.6672C30.2098 67.6672 30.2248 67.6672 30.2408 67.6672H83.7378C83.7528 67.6672 83.7688 67.6672 83.7838 67.6672Z" fill="#232144"/><path fill-rule="evenodd" clip-rule="evenodd" d="M39.7398 78.5758V77.0334C39.7398 73.8196 37.1298 71.2148 33.9108 71.2148H25.5128V73.3613C25.5128 76.2407 27.8508 78.5758 30.7358 78.5758H39.7398Z" fill="#232144"/><path fill-rule="evenodd" clip-rule="evenodd" d="M82.344 94.9C82.344 93.676 83.34 92.6836 84.569 92.6836C85.799 92.6836 86.795 93.676 86.795 94.9C86.795 96.124 85.799 97.1164 84.569 97.1164C83.34 97.1164 82.344 96.124 82.344 94.9Z" fill="#232144"/><path fill-rule="evenodd" clip-rule="evenodd" d="M27.1833 94.9C27.1833 93.676 28.1794 92.6836 29.4083 92.6836C30.6384 92.6836 31.6343 93.676 31.6343 94.9C31.6343 96.124 30.6384 97.1164 29.4083 97.1164C28.1794 97.1164 27.1833 96.124 27.1833 94.9Z" fill="#232144"/><path fill-rule="evenodd" clip-rule="evenodd" d="M74.9254 78.5758V77.0334C74.9254 73.8196 77.5354 71.2148 80.7544 71.2148H89.1524V73.3613C89.1524 76.2407 86.8144 78.5758 83.9294 78.5758H74.9254Z" fill="#232144"/><path fill-rule="evenodd" clip-rule="evenodd" d="M95.4856 62.9805H92.8426C91.9716 62.9805 91.2036 63.4148 90.7416 64.0767H88.2706V65.741H90.2836V65.9526C90.2836 67.3603 91.4296 68.5015 92.8426 68.5015H95.4856C96.8986 68.5015 98.0446 67.3603 98.0446 65.9526V65.5283C98.0446 64.1216 96.8986 62.9805 95.4856 62.9805Z" fill="#F7E5CD"/><path fill-rule="evenodd" clip-rule="evenodd" d="M25.7739 64.0767H23.3029C22.8409 63.4148 22.0729 62.9805 21.2019 62.9805H18.5589C17.1459 62.9805 15.9999 64.1216 15.9999 65.5283V65.9526C15.9999 67.3603 17.1459 68.5015 18.5589 68.5015H21.2019C22.6149 68.5015 23.7599 67.3603 23.7599 65.9526V65.741H25.7739V64.0767Z" fill="#F7E5CD"/></svg>