<?xml version="1.0" encoding="UTF-8"?><svg xmlns="http://www.w3.org/2000/svg" viewBox="0 0 160 160"><defs><style>.cls-1{fill:#e6e4d8;}.cls-2{stroke:#232144;stroke-width:.8px;}.cls-2,.cls-3,.cls-4{fill:none;stroke-miterlimit:10;}.cls-5{fill:#232144;}.cls-6{fill:#ed1e79;}.cls-7{fill:#fff;}.cls-8{fill:#7070ff;}.cls-3{stroke:#000;}.cls-9{fill:#e0d5d0;}.cls-4{stroke:#463ec5;stroke-width:1.2px;}</style></defs><g id="Bags_Behind"><rect class="cls-8" x="17.62" y="33.15" width="59" height="20.74"/><path class="cls-5" d="M68.7,45.14h-3v-12.71c0-7.31-6-13.43-13.43-13.43h-8.87c-7.31,0-13.43,6-13.43,13.43v12.71h-3v-12.71c0-8.99,7.31-16.43,16.43-16.43h8.87c8.99,0,16.43,7.31,16.43,16.43v12.71Z"/><rect class="cls-5" x="15.94" y="45.14" width="63.91" height="98.86"/><line class="cls-4" x1="62.95" y1="51.85" x2="62.95" y2="44.9"/><polygon class="cls-1" points="66.54 69.72 59.35 69.72 59.35 54.01 61.87 51.01 64.03 51.01 66.54 54.01 66.54 69.72"/><rect class="cls-1" x="67.44" y="44.98" width="1.2" height="7.04" transform="translate(-6.63 11.01) rotate(-8.82)"/><polygon class="cls-8" points="75.06 69 67.98 70.2 65.46 54.61 67.5 51.25 69.54 50.89 72.54 53.41 75.06 69"/><rect class="cls-8" x="39.36" y="92.28" width="60.24" height="51.72"/><path class="cls-8" d="M87.96,95.74h-2.11v-6.41c0-6.58-5.4-11.98-11.98-11.98h-8.69c-6.58,0-11.98,5.4-11.98,11.98v6.41h-2.11v-6.41c0-7.76,6.33-14.09,14.09-14.09h8.69c7.76,0,14.09,6.33,14.09,14.09v6.41Z"/></g><g id="Dog"><path class="cls-9" d="M65.46,125.38v-7.86c0-3.04,2.47-5.51,5.52-5.51h0c3.05,0,5.52,2.47,5.52,5.51v7.69c0,4.25,3.45,7.69,7.71,7.69h41.42v11.02h-41.59c-10.26,0-18.58-8.3-18.58-18.54Z"/><path class="cls-9" d="M124.77,137.44h15.36c1.81,0,3.28,1.47,3.28,3.28h0c0,1.81-1.47,3.28-3.28,3.28h-15.36v-6.56h0Z"/><path class="cls-9" d="M143.41,123.7c0-6.11-2.98-11.45-7.47-14.5l-1.09-10.77c-.99-9.81-9.27-17.29-19.15-17.29h0c-9.89,0-18.16,7.47-19.15,17.29l-1.09,10.82c-4.44,3.06-7.39,8.38-7.39,14.45,0,9.04,6.53,16.44,14.82,17.13,2.98,1.91,6.53,3.04,10.36,3.04h4.91c3.84,0,7.37-1.13,10.36-3.04,8.33-.65,14.9-8.06,14.9-17.13Z"/><path class="cls-1" d="M109.06,62.28l-11.4,7.6c-3.74,2.49-8.81.21-9.4-4.24l-.49-3.72c-.44-3.32,1.9-6.37,5.22-6.81l14.85-1.96,1.21,9.13Z"/><path class="cls-1" d="M121.39,62.28l11.4,7.6c3.74,2.49,8.81.21,9.4-4.24l.49-3.72c.44-3.32-1.9-6.37-5.22-6.81l-14.85-1.96-1.21,9.13Z"/><rect class="cls-9" x="101.76" y="50.89" width="27.09" height="37.37" rx="13.53" ry="13.53"/><path class="cls-7" d="M117.53,63.81s3.34-4.02,7.35-1.05c0,0-2.12,4.43-7.35,1.05Z"/><path class="cls-7" d="M113.03,63.79s-3.37-4-7.36-1.01c0,0,2.15,4.41,7.36,1.01Z"/><ellipse cx="121.26" cy="63.34" rx="1.61" ry="1.76"/><ellipse cx="109.29" cy="63.34" rx="1.61" ry="1.76"/><rect class="cls-1" x="101.76" y="68.52" width="27.09" height="19.75" rx="7.56" ry="7.56"/><ellipse cx="115.31" cy="74.06" rx="2.79" ry="2.78"/><rect class="cls-1" x="113.8" y="50.89" width="3.01" height="18.52"/><line class="cls-3" x1="115.31" y1="75.72" x2="115.31" y2="81.31"/><path class="cls-3" d="M119.1,79.66c-.82,1.23-2.22,2.05-3.81,2.05s-2.97-.8-3.78-2.01"/><path class="cls-5" d="M126.86,95.26h-2v-6.95c0-3.92-3.2-7.11-7.11-7.11h-4.88c-3.92,0-7.11,3.2-7.11,7.11v6.95h-2v-6.95c0-5.04,4.08-9.11,9.11-9.11h4.88c5.04,0,9.11,4.08,9.11,9.11v6.95Z"/><rect class="cls-6" x="100.48" y="93.02" width="29.74" height="39.49"/><line class="cls-2" x1="108.87" y1="97.49" x2="108.87" y2="92.86"/><polygon class="cls-1" points="111.27 109.4 106.56 109.4 106.56 98.85 108.24 96.85 109.59 96.85 111.27 98.85 111.27 109.4"/><rect class="cls-1" x="111.91" y="92.9" width=".8" height="4.71" transform="translate(-14.54 20.45) rotate(-9.78)"/><polygon class="cls-5" points="116.95 108.92 112.31 109.64 110.55 99.33 111.91 97.09 113.27 96.85 115.27 98.53 116.95 108.92"/></g></svg>