<?xml version="1.0" encoding="UTF-8"?><svg xmlns="http://www.w3.org/2000/svg" version="1.1" viewBox="0 0 160 160"><defs><style>.cls-1 {
        fill: #e3944f;
      }

      .cls-2 {
        fill: #e73245;
      }

      .cls-3, .cls-4 {
        fill: #f7e5cd;
      }

      .cls-3, .cls-5 {
        fill-rule: evenodd;
      }

      .cls-6 {
        fill: #fff;
      }

      .cls-5 {
        fill: #232144;
      }</style></defs><!--Generator: Adobe Illustrator 28.7.3, SVG Export Plug-In . SVG Version: 1.2.0 Build 164)--><g><g id="Ebene_1"><g><path class="cls-1" d="M43,107.3l13.8-37c2.1-5.5,7.1-9.3,12.9-9.8l6.8-.6-19.7,52.7-13.8-5.3Z"/><polygon class="cls-1" points="50.9 86 78 77.2 96.3 122.6 79.6 144 21.6 144 33.9 129.8 50.9 86"/><path class="cls-5" d="M93.2,134.5l-39.7-14.8c-2.9-1.1-4.4-4.3-3.3-7.2L84.9,19.7c1.1-2.9,4.3-4.4,7.2-3.3l39.7,14.8c2.9,1.1,4.4,4.3,3.3,7.2l-34.7,92.8c-1,3-4.2,4.4-7.2,3.3Z"/><path class="cls-3" d="M94,132.4l-39.6-14.8c-2-.7-3-2.9-2.2-4.9L86.6,20.8c.7-2,2.9-3,4.9-2.2l39.5,14.7c2,.7,3,2.9,2.2,4.9l-34.4,91.9c-.6,2-2.8,3-4.8,2.3Z"/><path class="cls-5" d="M123.1,30.4h0c-.9,2.4-3.5,3.6-5.9,2.7l-15.1-5.6c-2.4-.9-3.6-3.5-2.7-5.9h0l.6-1.7,23.9,9-.8,1.5Z"/><rect class="cls-4" x="110.352" y="19.652" width="1.3" height="13.801" transform="translate(47.25 121.221) rotate(-69.496)"/><g><g><path class="cls-6" d="M98.092,53.762l-22.887,18.965c-1.234,1.023-.899,2.998.604,3.556l27.867,10.338c1.503.558,3.046-.721,2.777-2.301l-4.98-29.303c-.269-1.58-2.147-2.277-3.382-1.255l-22.887,18.965c-1.234,1.023-.899,2.998.604,3.556l27.867,10.338c1.503.558,3.046-.721,2.777-2.301l-4.98-29.303c-.269-1.58-2.147-2.277-3.382-1.255Z"/><path class="cls-2" d="M103.274,87.705l-27.867-10.338c-1.097-.407-1.87-1.339-2.066-2.493-.098-.577-.042-1.149.151-1.671s.524-.992.975-1.366l22.887-18.964c.025-.021.049-.04.074-.06.857-.67,1.961-.864,2.993-.527.042.013.084.028.126.044h0c1.097.408,1.87,1.34,2.065,2.495l4.98,29.302c.098.577.042,1.149-.151,1.671s-.525.992-.975,1.365c-.901.748-2.095.951-3.193.543ZM75.664,74.002c-.075.201-.059.387-.043.484.027.159.138.545.591.713l27.867,10.338c.452.168.789-.052.913-.155.075-.063.208-.194.282-.395.048-.129.072-.287.04-.474l-4.981-29.303c-.081-.476-.439-.658-.59-.714h0c-.151-.056-.541-.153-.914.156l-22.887,18.964c-.145.12-.231.256-.278.385Z"/></g><path d="M90.596,76.374c-.242-.09-.327-.237-.258-.422l.592-1.596c.068-.183.228-.241.471-.151l1.789.664c.266.099.35.247.282.431l-.592,1.596c-.069.185-.228.241-.494.143l-1.789-.664ZM93.918,72.464c-.046.123-.141.156-.31.093l-1.066-.395c-.169-.063-.218-.149-.172-.272l3.359-9.948c.099-.267.234-.334.598-.199l1.161.431c.363.135.421.274.322.54l-3.891,9.751Z"/></g><path class="cls-1" d="M102.3,107.9l3.9-1.8c3.5-1.6,7.7-.1,9.4,3.4h0c1.6,3.5.1,7.7-3.4,9.4l-3.9,1.8c-3.5,1.6-7.7.1-9.4-3.4h0c-1.7-3.6-.1-7.8,3.4-9.4Z"/><path class="cls-1" d="M99.1,86.6c-1.6-3.6.1-7.8,3.7-9.3l16.8-7.1c3.6-1.6,7.7.1,9.3,3.7h0c1.6,3.6-.1,7.7-3.7,9.3l-16.9,7.2c-3.5,1.4-7.7-.2-9.2-3.8h0Z"/><path class="cls-1" d="M64.9,61.7l17.2-6c3.7-1.3,7.7.6,9,4.3h0c1.3,3.7-.6,7.7-4.3,9l-29.1,10.2,7.2-17.5Z"/><path class="cls-1" d="M106.4,68.8c-1.6-3.6.1-7.8,3.7-9.3l14.4-6.2c3.6-1.6,7.7.1,9.3,3.7h0c1.6,3.6-.1,7.7-3.7,9.3l-14.4,6.2c-3.6,1.5-7.7-.1-9.3-3.7h0Z"/><path class="cls-1" d="M98.5,94.2l14.3-6.2c3.6-1.6,7.7.1,9.3,3.7h0c1.6,3.6-.1,7.7-3.7,9.3l-14.3,6.2c-3.6,1.6-7.7-.1-9.3-3.7h0c-1.5-3.6.1-7.8,3.7-9.3Z"/><circle class="cls-2" cx="78.1" cy="114.6" r="5.8"/><g id="bpA3BY"><path class="cls-6" d="M81.146,118.606c-.109.165-.21.336-.328.493-.189.251-.467.316-.761.338-.617.046-1.159-.16-1.655-.506-.554-.388-.97-.904-1.341-1.462-.577-.866-.975-1.817-1.278-2.805-.23-.751-.358-1.526-.255-2.319.08-.614.301-1.16.751-1.607.355-.353.76-.417,1.217-.274.112.035.223.078.325.133.045.025.095.091.096.139.011.492.012.985.015,1.477.002.22-.001.441.005.661.003.114-.045.192-.14.242-.248.13-.495.259-.746.383-.142.07-.166.084-.139.243.039.228.09.454.146.679.212.863.611,1.638,1.112,2.365.004.006.008.013.012.019.174.245.187.246.461.143.231-.087.465-.164.698-.243.101-.034.189-.016.27.064.382.377.767.75,1.153,1.122.111.107.22.218.342.312.089.068.111.139.078.236-.018.052-.04.103-.061.154.008.005.016.01.023.014Z"/></g><path class="cls-1" d="M96.3,144l-17.7-18.7c-2.7-2.8-2.6-7.3.2-9.9h0c2.8-2.7,7.3-2.6,10,.2l27.1,28.4h-19.6Z"/></g></g></g></svg>