<?xml version="1.0" encoding="utf-8"?><!--Generator: Adobe Illustrator 27.8.0, SVG Export Plug-In . SVG Version: 6.00 Build 0)--><svg version="1.1" id="Ebene_1" xmlns="http://www.w3.org/2000/svg" xmlns:xlink="http://www.w3.org/1999/xlink" x="0px" y="0px" viewBox="0 0 160 160" style="enable-background:new 0 0 160 160;" xml:space="preserve"><style type="text/css">.st0{fill:#F0A86B;}
	.st1{fill:#F7E5CD;}
	.st2{fill:#891229;}
	.st3{fill:#FFCD94;}
	.st4{fill:#E3944F;}
	.st5{fill:#010101;}
	.st6{fill:#BF852E;}
	.st7{fill:#FFFFFF;}
	.st8{fill:#232144;}
	.st9{fill:#8B181D;}</style><polygon class="st0" points="140.5,144 138.5,130.5 115.8,136.2 118.1,144 "/><polygon class="st0" points="43.6,144 46,136.4 23.4,130.8 21.4,144 "/><polygon class="st1" points="119.5,141.3 119.6,139.7 143.1,133.9 141.9,129.2 119.1,134.8 "/><polygon class="st1" points="19.3,128.9 18,134 40.8,139.7 40.9,135.7 "/><polygon class="st2" points="40.8,139.7 40.6,144 40.9,139.7 "/><path class="st2" d="M142.8,129l-8.6-30.8c-1.4-4.9-4.8-11.4-12.7-13.6l-41.4-9.3l-40.5,9.4c-8,2.5-11.3,8.7-12.6,13.5l-9,30.3
	l1.3,0.4l21.6,6.8l-0.1,4l0.1,0l-0.3,4.3h79.1l-0.2-2.7l-0.4-6.5l22.8-5.6L142.8,129z"/><circle class="st3" cx="97.1" cy="59.6" r="4.5"/><circle class="st3" cx="95.8" cy="63" r="4.5"/><ellipse class="st3" cx="67.4" cy="59.7" rx="9.2" ry="9.3"/><circle class="st3" cx="74.8" cy="48.6" r="15.7"/><path class="st4" d="M92.5,85.5V65.7l-25.3-0.1v19.8c0,5.1,4.2,9.3,9.3,9.3h6.7C88.3,94.8,92.5,90.6,92.5,85.5z"/><path class="st0" d="M96.8,61.5V38.8c0-7.7-6.2-14-14-14h-6c-10.3,0-14,6.2-14,14v22.8c0,7.7,6.2,14,14,14h6
	C90.5,75.5,96.8,69.2,96.8,61.5z"/><circle class="st0" cx="63" cy="53.9" r="5.1"/><circle class="st0" cx="96.7" cy="53.9" r="5.1"/><path class="st5" d="M79.4,59.2c-0.8,0-1.4-0.4-2-0.7c-0.9-0.6-1.5-0.9-2.5,0.2L74.2,58c1.7-1.7,2.8-0.9,3.8-0.3
	c0.5,0.3,0.9,0.6,1.4,0.6s0.9-0.3,1.4-0.5c0.9-0.6,2-1.2,3.9,0.3L84,58.8c-1.3-1.1-1.9-0.7-2.7-0.2C80.8,58.9,80.2,59.2,79.4,59.2z"/><path d="M79,66.9c-3.3,0-5-2.5-5-2.5l0.8-0.5c0.1,0.1,2.1,3.1,6.4,1.7l0.3,0.9C80.6,66.7,79.7,66.9,79,66.9z"/><rect x="67.1" y="43.6" transform="matrix(0.9843 -0.1766 0.1766 0.9843 -6.8325 13.4157)" class="st6" width="9.7" height="3"/><path class="st7" d="M84.8,51.3c0.2,1,2.1,1.5,4.1,1.1c2.1-0.4,3.6-1.6,3.4-2.6s-2.1-1.5-4.1-1.1C86.1,49.1,84.6,50.3,84.8,51.3"/><path d="M86.7,50.5c0,1,0.8,1.9,1.9,1.9c1,0,1.9-0.8,1.9-1.9c0-1-0.8-1.9-1.9-1.9C87.5,48.7,86.7,49.5,86.7,50.5"/><path class="st7" d="M74.9,51.3c-0.2,1-2.1,1.5-4.1,1.1c-2.1-0.4-3.6-1.6-3.4-2.6s2.1-1.5,4.1-1.1C73.6,49.1,75.1,50.3,74.9,51.3"/><path d="M73.1,50.5c0,1-0.8,1.9-1.9,1.9c-1,0-1.9-0.8-1.9-1.9c0-1,0.8-1.9,1.9-1.9C72.2,48.7,73.1,49.5,73.1,50.5"/><circle class="st3" cx="64.8" cy="41.7" r="3.7"/><circle class="st3" cx="92.6" cy="44.3" r="5.9"/><ellipse class="st3" cx="87.2" cy="41" rx="6.7" ry="4.8"/><path class="st3" d="M62.5,56.5L62.5,56.5c-0.6,0-1.1-0.5-1.1-1.1V43.6c0-0.6,0.5-1.1,1.1-1.1l0,0c0.6,0,1.1,0.5,1.1,1.1v11.8
	C63.6,56,63.1,56.5,62.5,56.5z"/><path class="st3" d="M95.9,56.5L95.9,56.5c-0.6,0-1.1-0.5-1.1-1.1V43.6c0-0.6,0.5-1.1,1.1-1.1l0,0c0.6,0,1.1,0.5,1.1,1.1v11.8
	C96.9,56,96.5,56.5,95.9,56.5z"/><rect x="86.1" y="40.3" transform="matrix(0.1517 -0.9884 0.9884 0.1517 29.7742 124.8927)" class="st6" width="3" height="9.7"/><path class="st8" d="M70.2,16.9c-3.6,0-6.7,2.7-7,6.2c-0.1,0.9-0.1,1.3-0.2,2c0,0.3-0.1,0.6-0.1,0.9l-1,12.9c0,0.7,0.6,1.3,1.3,1.3
	c11.1-2.7,22.1-2.7,32.9,0c0.7,0,1.3-0.6,1.3-1.3L95.5,25c-0.1-0.7-0.2-1.1-0.3-2.1c-0.4-3.4-3.4-6.1-6.9-6.1L70.2,16.9z"/><path class="st9" d="M80.7,17.2h-2.2c-0.3,0-0.6-0.3-0.6-0.6l0,0c0-0.3,0.3-0.6,0.6-0.6h2.2c0.3,0,0.6,0.3,0.6,0.6l0,0
	C81.3,17,81,17.2,80.7,17.2z"/><path class="st2" d="M98.3,39.8c0-0.9-0.6-1.7-1.5-2c0,0,0,0,0,0c-11.3-4.7-22.9-4.5-34.3,0.1c-0.1,0-0.1,0.1-0.2,0.1
	c-0.8,0.3-1.4,1.1-1.4,2c0,1.2,1,2.2,2.2,2.2c0.1,0,0.1,0,0.2,0c0.1,0,0.1,0,0.2,0c0,0,0.1,0,0.1,0c0.1,0,0.2,0,0.3-0.1
	c11.8-3.7,20.5-3.4,31.4-0.1c0.1,0,0.2,0,0.3,0.1c0,0,0.1,0,0.1,0c0.1,0,0.2,0,0.2,0c0,0,0.1,0,0.1,0c0,0,0.1,0,0.1,0
	c0,0,0.1,0,0.1,0C97.4,41.8,98.3,40.9,98.3,39.8z"/></svg>