<svg viewBox="0 0 160 160" fill="none" xmlns="http://www.w3.org/2000/svg"><path fill-rule="evenodd" clip-rule="evenodd" d="M58.3224 65.3426C58.4371 65.3426 58.5457 65.3676 58.6583 65.3766C57.9111 64.6236 57.4484 63.5906 57.4484 62.4496C57.4484 60.1486 59.3201 58.2846 61.6292 58.2846C62.1894 58.2846 62.7224 58.3986 63.2102 58.5976C62.9779 58.0836 62.8461 57.5136 62.8461 56.9116C62.8461 55.8346 63.2675 54.8616 63.9404 54.1226C63.5572 53.5796 62.9256 53.2216 62.2075 53.2216C61.6936 53.2216 61.2289 53.4116 60.8619 53.7146C60.8699 53.6366 60.885 53.5606 60.885 53.4806C60.885 52.3136 59.9356 51.3676 58.7639 51.3676C57.9503 51.3676 57.2523 51.8296 56.8963 52.4996C56.5413 51.8296 55.8423 51.3676 55.0287 51.3676C53.858 51.3676 52.9086 52.3136 52.9086 53.4806C52.9086 53.6326 52.9257 53.7806 52.9569 53.9236C52.6994 53.8136 52.4168 53.7516 52.1201 53.7516C50.9485 53.7516 49.9991 54.6976 49.9991 55.8646C49.9991 56.5016 50.2877 57.0656 50.7353 57.4526C49.5887 57.4806 48.6665 58.4116 48.6665 59.5606C48.6665 60.4736 49.2508 61.2436 50.0645 61.5396C49.2508 61.8346 48.6665 62.6056 48.6665 63.5176C48.6665 64.6846 49.6159 65.6306 50.7876 65.6306C51.0058 65.6306 51.213 65.5886 51.4111 65.5276C51.3055 65.7786 51.2462 66.0546 51.2462 66.3446C51.2462 67.5116 52.1956 68.4576 53.3672 68.4576C53.7313 68.4576 54.0733 68.3636 54.372 68.2016C54.9241 66.5456 56.4739 65.3426 58.3224 65.3426Z" fill="#F7C7A1"/><path fill-rule="evenodd" clip-rule="evenodd" d="M61.2936 66.5806C61.3489 66.6366 61.3952 66.7006 61.4444 66.7626C61.4676 66.7466 61.4937 66.7336 61.5168 66.7186C61.5289 66.6806 61.541 66.6436 61.5551 66.6066C61.4656 66.6056 61.3811 66.5876 61.2936 66.5806Z" fill="#F7C7A1"/><path fill-rule="evenodd" clip-rule="evenodd" d="M110.954 61.5394C111.768 61.2444 112.352 60.4734 112.352 59.5604C112.352 58.4114 111.43 57.4814 110.283 57.4534C110.73 57.0654 111.02 56.5014 111.02 55.8644C111.02 54.6974 110.07 53.7514 108.899 53.7514C108.601 53.7514 108.319 53.8134 108.062 53.9234C108.092 53.7804 108.11 53.6324 108.11 53.4804C108.11 52.3134 107.161 51.3674 105.989 51.3674C105.176 51.3674 104.478 51.8294 104.122 52.4994C103.767 51.8294 103.068 51.3674 102.254 51.3674C101.083 51.3674 100.133 52.3134 100.133 53.4804C100.133 53.5604 100.148 53.6364 100.157 53.7144C99.79 53.4114 99.3254 53.2224 98.8104 53.2224C98.0642 53.2224 97.4115 53.6074 97.0333 54.1884C97.673 54.9204 98.0732 55.8644 98.0732 56.9114C98.0732 57.5154 97.9375 58.0844 97.7021 58.5994C98.1919 58.3984 98.727 58.2844 99.2902 58.2844C101.599 58.2844 103.471 60.1494 103.471 62.4494C103.471 63.5914 103.008 64.6244 102.261 65.3764C102.374 65.3674 102.482 65.3424 102.597 65.3424C104.414 65.3424 105.945 66.5044 106.521 68.1174C106.849 68.3264 107.232 68.4584 107.652 68.4584C108.822 68.4584 109.773 67.5124 109.773 66.3454C109.773 66.0554 109.713 65.7784 109.607 65.5274C109.806 65.5884 110.012 65.6304 110.231 65.6304C111.402 65.6304 112.352 64.6854 112.352 63.5184C112.352 62.6054 111.768 61.8344 110.954 61.5394Z" fill="#F7C7A1"/><path fill-rule="evenodd" clip-rule="evenodd" d="M61.5169 66.7183C61.5068 66.7493 61.4957 66.7803 61.4847 66.8113C61.4716 66.7953 61.4575 66.7793 61.4444 66.7623C61.3952 66.7003 61.3489 66.6363 61.2936 66.5803C61.3811 66.5873 61.4656 66.6053 61.5551 66.6063C61.541 66.6433 61.5289 66.6813 61.5169 66.7183ZM101.067 80.7373C101.176 80.8143 101.296 80.8763 101.413 80.9423C101.272 80.9713 101.141 81.0263 101.004 81.0683L101.067 80.7373ZM104.418 113.063C105.812 112.392 106.778 110.989 106.778 109.342C106.778 107.254 105.229 105.54 103.217 105.24L103.058 104.794C104.153 103.849 104.86 102.471 104.86 100.914C104.86 98.1523 102.673 95.9163 99.9313 95.7863C101.362 95.1243 102.36 93.6913 102.36 92.0163C102.36 90.8183 101.845 89.7453 101.032 88.9863C101.421 89.1053 101.826 89.1883 102.255 89.1883C104.564 89.1883 106.435 87.3233 106.435 85.0233C106.435 83.4723 105.574 82.1353 104.312 81.4183C106.218 81.0303 107.651 79.3513 107.651 77.3373C107.651 75.3423 106.241 73.6783 104.361 73.2723C105.785 72.6083 106.778 71.1773 106.778 69.5073C106.778 69.0173 106.678 68.5543 106.521 68.1173C105.945 66.5043 104.414 65.3423 102.597 65.3423C102.482 65.3423 102.374 65.3673 102.262 65.3763C103.008 64.6243 103.47 63.5913 103.47 62.4493C103.47 60.1493 101.599 58.2843 99.2907 58.2843C98.7275 58.2843 98.1914 58.3983 97.7016 58.5993C97.937 58.0843 98.0738 57.5153 98.0738 56.9113C98.0738 55.8643 97.6735 54.9203 97.0328 54.1883C96.2665 53.3113 95.1511 52.7463 93.893 52.7463C92.7646 52.7463 91.7458 53.1963 90.9935 53.9193C91.0327 53.6913 91.0639 53.4613 91.0639 53.2223C91.0639 50.9213 89.1922 49.0573 86.8831 49.0573C85.8271 49.0573 84.8737 49.4603 84.1375 50.1033C83.4355 48.7863 82.0607 47.8793 80.4596 47.8793C78.8585 47.8793 77.4837 48.7863 76.7817 50.1033C76.0455 49.4603 75.0921 49.0573 74.0361 49.0573C71.7269 49.0573 69.8553 50.9213 69.8553 53.2223C69.8553 53.4613 69.8875 53.6913 69.9257 53.9193C69.1744 53.1963 68.1546 52.7463 67.0262 52.7463C65.7992 52.7463 64.706 53.2833 63.9406 54.1223C63.2668 54.8623 62.8464 55.8343 62.8464 56.9113C62.8464 57.5143 62.9772 58.0833 63.2105 58.5973C62.7217 58.3983 62.1897 58.2843 61.6295 58.2843C59.3204 58.2843 57.4487 60.1493 57.4487 62.4493C57.4487 63.5913 57.9114 64.6243 58.6586 65.3763C58.546 65.3673 58.4373 65.3423 58.3227 65.3423C56.4742 65.3423 54.9244 66.5453 54.3722 68.2023C54.2344 68.6153 54.1419 69.0483 54.1419 69.5073C54.1419 71.1773 55.1346 72.6083 56.5597 73.2723C54.679 73.6783 53.2679 75.3423 53.2679 77.3373C53.2679 79.3513 54.7021 81.0303 56.6069 81.4183C55.3458 82.1353 54.4849 83.4723 54.4849 85.0233C54.4849 87.3233 56.3565 89.1883 58.6656 89.1883C59.2178 89.1883 59.7428 89.0753 60.2255 88.8813C59.3415 89.6453 58.7702 90.7593 58.7702 92.0163C58.7702 93.4723 59.5235 94.7503 60.66 95.4953L60.6127 96.0373C58.5419 96.7103 57.0354 98.6273 57.0354 100.914C57.0354 102.887 58.1608 104.581 59.7961 105.447L59.788 105.538C57.5332 105.6 55.7229 107.43 55.7229 109.691C55.7229 111.341 56.6934 112.753 58.0894 113.428C56.8976 114.162 56.097 115.464 56.097 116.962C56.097 117.168 56.1272 117.364 56.1554 117.561C56.438 119.488 58.0361 120.976 60.0183 121.099C60.0344 121.1 60.0495 121.105 60.0656 121.106C60.0374 121.129 60.0173 121.16 59.9902 121.183C59.1303 121.945 58.5691 123.037 58.5691 124.274C58.5691 126.212 59.9037 127.826 61.7029 128.291C61.2373 128.963 60.9617 129.775 60.9617 130.653C60.9617 132.259 61.8849 133.637 63.2226 134.332C62.6765 135.036 62.3385 135.907 62.3385 136.865C62.3385 139.014 63.9819 140.754 66.0798 140.975C66.4047 141.004 66.7305 141.03 67.0624 141.03H96.3379C96.6356 141.03 96.9272 141.006 97.2189 140.983C99.3037 140.748 100.93 139.005 100.93 136.865C100.93 135.907 100.592 135.036 100.047 134.332C101.385 133.637 102.308 132.259 102.308 130.653C102.308 129.775 102.032 128.963 101.567 128.291C103.365 127.826 104.699 126.212 104.699 124.274C104.699 122.998 104.111 121.87 103.204 121.106C105.197 121.004 106.812 119.52 107.11 117.594C107.142 117.387 107.173 117.179 107.173 116.962C107.173 115.164 106.021 113.645 104.418 113.063Z" fill="#F7E5CD"/><path fill-rule="evenodd" clip-rule="evenodd" d="M77.1198 74.1803C77.1198 77.8683 74.1188 80.8583 70.4167 80.8583C66.7157 80.8583 63.7146 77.8683 63.7146 74.1803C63.7146 70.4923 66.7157 67.5023 70.4167 67.5023C74.1188 67.5023 77.1198 70.4923 77.1198 74.1803Z" fill="#F7C7A1"/><path fill-rule="evenodd" clip-rule="evenodd" d="M74.9819 73.9707C74.9819 74.9857 74.1562 75.8087 73.1364 75.8087C72.1176 75.8087 71.2919 74.9857 71.2919 73.9707C71.2919 72.9557 72.1176 72.1327 73.1364 72.1327C74.1562 72.1327 74.9819 72.9557 74.9819 73.9707Z" fill="#232144"/><path fill-rule="evenodd" clip-rule="evenodd" d="M91.0641 73.9707C91.0641 74.9857 90.2384 75.8087 89.2186 75.8087C88.1998 75.8087 87.3741 74.9857 87.3741 73.9707C87.3741 72.9557 88.1998 72.1327 89.2186 72.1327C90.2384 72.1327 91.0641 72.9557 91.0641 73.9707Z" fill="#232144"/><path fill-rule="evenodd" clip-rule="evenodd" d="M81.9686 80.6515L83.6944 77.6735C84.0937 76.9845 83.5938 76.1235 82.7943 76.1235H79.3417C78.5421 76.1235 78.0423 76.9845 78.4415 77.6735L80.1674 80.6515C80.5676 81.3415 81.5683 81.3415 81.9686 80.6515Z" fill="#232144"/><path fill-rule="evenodd" clip-rule="evenodd" d="M80.7518 85.0233V79.9983H81.3844V85.0233H80.7518Z" fill="#232144"/><path fill-rule="evenodd" clip-rule="evenodd" d="M77.4569 83.9103C77.4568 83.9102 77.4567 83.9101 77.6607 83.6698C77.8646 83.4294 77.8646 83.4293 77.8645 83.4293L77.8645 83.4293L77.8656 83.4302L77.8718 83.4353C77.8776 83.44 77.8869 83.4475 77.8995 83.4574C77.9246 83.4773 77.9628 83.5068 78.0131 83.5438C78.1137 83.6178 78.2622 83.7215 78.4502 83.8371C78.8274 84.0689 79.3573 84.3449 79.9736 84.5279C81.1954 84.8909 82.7429 84.8903 84.1587 83.4499L84.6111 83.8896C82.9876 85.5413 81.173 85.5407 79.7925 85.1306C79.1077 84.9272 78.5263 84.6233 78.1176 84.3721C77.9126 84.2461 77.7495 84.1324 77.6368 84.0494C77.5804 84.0079 77.5365 83.974 77.5061 83.95C77.4909 83.9381 77.4791 83.9286 77.4708 83.9218L77.4611 83.9138L77.4582 83.9114L77.4573 83.9106L77.4569 83.9103ZM77.8644 83.4292L77.8645 83.4293L77.8644 83.4292Z" fill="#232144"/><path fill-rule="evenodd" clip-rule="evenodd" d="M115.682 58.9315L45.5525 59.1725L45.4991 43.7835L115.629 43.5425L115.682 58.9315Z" fill="#463EC5"/><path fill-rule="evenodd" clip-rule="evenodd" d="M82.3743 40.6054C85.8923 35.6194 89.3319 30.5794 92.7332 25.5134C95.5472 21.3214 100.203 18.9394 105.248 20.8494C110.476 22.8284 113.104 28.6544 111.118 33.8624C109.132 39.0704 104.388 40.1534 98.0575 40.1754L82.3743 40.6054ZM96.558 43.5784C105.036 43.5484 112.247 42.7324 115.061 35.3544C117.874 27.9774 114.152 19.7244 106.747 16.9214C102.374 15.2664 97.3666 15.8704 93.5127 18.5114C88.5062 21.9424 86.4203 28.1744 83.2413 33.0674C81.7548 35.3554 80.3116 37.6734 78.8463 39.9754C78.6119 40.3434 76.9394 43.6454 76.511 43.6464C76.513 43.6464 96.558 43.5784 96.558 43.5784Z" fill="#232144"/><path fill-rule="evenodd" clip-rule="evenodd" d="M63.0103 40.2958C56.6813 40.3178 51.9292 39.2668 49.9067 34.0728C47.8842 28.8788 50.472 23.0348 55.6856 21.0198C60.2475 19.2568 65.3093 21.0098 67.8578 24.9558C69.5635 27.5968 71.2672 30.2398 73.0976 32.7968L78.6965 40.6178L63.0103 40.2958ZM84.5809 43.6188L75.6743 29.8308C74.3145 27.7258 73.0634 25.5558 71.8274 23.3778C68.3788 17.2998 60.8862 14.5028 54.1599 17.1018C46.7749 19.9558 43.1101 28.2348 45.9744 35.5928C48.8387 42.9498 56.0557 43.7168 64.5339 43.6878L84.5809 43.6188Z" fill="#232144"/><path fill-rule="evenodd" clip-rule="evenodd" d="M87.0311 32.8353L74.0221 32.8803L74.1126 59.0743L87.1216 59.0293L87.0311 32.8353Z" fill="#232144"/><path fill-rule="evenodd" clip-rule="evenodd" d="M47.0845 144.001H113.798V88.7029H47.0845V144.001Z" fill="#463EC5"/><path fill-rule="evenodd" clip-rule="evenodd" d="M73.9362 144.001H86.9451V88.7029H73.9362V144.001Z" fill="#232144"/></svg>