<?xml version="1.0" encoding="UTF-8"?><svg id="Briefcase" xmlns="http://www.w3.org/2000/svg" viewBox="0 0 160 160"><defs><style>.cls-1{fill:#f9e6c9;}.cls-2{fill:#004219;}.cls-3{fill:#ffb300;}.cls-4{fill:#006c28;}.cls-5{fill:#fd9500;}</style></defs><path class="cls-2" d="M111.9,54.66h-19.37v-9.5c0-4.07-3.3-7.37-7.37-7.37h-38.16c-4.07,0-7.37,3.3-7.37,7.37v9.5h-19.37c-2.34,0-4.24,1.9-4.24,4.24v58.46c0,2.34,1.9,4.24,4.24,4.24h81.57c2.34,0,14.31-7.12,14.31-9.46v-53.23c0-2.34-1.9-4.24-4.24-4.24ZM45.93,47.73c0-1.75,1.41-3.16,3.16-3.16h33.98c1.75,0,3.16,1.41,3.16,3.16v6.93h-40.3v-6.93Z"/><rect class="cls-4" x="16.03" y="54.66" width="100.11" height="26.18" rx="2.65" ry="2.65"/><rect class="cls-3" x="61.43" y="73.92" width="9.31" height="13.03"/><path class="cls-5" d="M102.25,109.71v7.86c0,2.02,9.34,3.66,20.86,3.66s20.86-1.64,20.86-3.66v-7.86h-41.72Z"/><path class="cls-5" d="M143.96,109.71c-.2-1.31-4.34-2.45-10.4-3.07v14.1c6.23-.63,10.42-1.82,10.42-3.17v-7.86h-.01Z"/><ellipse class="cls-3" cx="123.12" cy="109.71" rx="20.86" ry="3.66"/><path class="cls-5" d="M123.26,112.69c-7.16,0-17.8-.77-17.8-2.89s10.65-2.89,17.8-2.89,17.8.77,17.8,2.89-10.65,2.89-17.8,2.89ZM123.26,107.45c-4.67,0-9.06.27-12.35.76-4.84.72-4.9,1.54-4.9,1.58s.06.86,4.9,1.58c3.3.49,7.69.76,12.35.76s9.06-.27,12.35-.76c4.84-.72,4.9-1.54,4.9-1.58s-.06-.86-4.9-1.58c-3.3-.49-7.69-.76-12.35-.76Z"/><path class="cls-5" d="M96.92,101.23v7.86c0,2.02,9.34,3.66,20.86,3.66s20.86-1.64,20.86-3.66v-7.86h-41.72Z"/><path class="cls-5" d="M138.65,101.2c-.2-1.31-4.34-2.45-10.4-3.07v14.1c6.23-.63,10.42-1.82,10.42-3.17v-7.86h-.01Z"/><ellipse class="cls-3" cx="117.79" cy="101.23" rx="20.86" ry="3.66"/><path class="cls-5" d="M117.93,104.21c-7.16,0-17.8-.77-17.8-2.89s10.65-2.89,17.8-2.89,17.8.77,17.8,2.89-10.65,2.89-17.8,2.89ZM117.93,98.97c-4.67,0-9.06.27-12.35.76-4.84.72-4.9,1.54-4.9,1.58s.06.86,4.9,1.58c3.3.49,7.69.76,12.35.76s9.06-.27,12.35-.76c4.84-.72,4.9-1.54,4.9-1.58s-.06-.86-4.9-1.58c-3.3-.49-7.69-.76-12.35-.76Z"/><circle class="cls-3" cx="101.83" cy="102.82" r="18.77"/><path class="cls-5" d="M101.89,118.56c-8.61-.03-15.59-7.07-15.56-15.68.03-8.61,7.07-15.59,15.68-15.56,8.61.03,15.59,7.07,15.56,15.68-.03,8.61-7.07,15.59-15.68,15.56ZM102.01,88.53c-7.94-.03-14.43,6.41-14.47,14.35-.03,7.94,6.41,14.43,14.35,14.47,7.94.03,14.43-6.41,14.47-14.35.03-7.94-6.41-14.43-14.35-14.47Z"/><path class="cls-1" d="M103.59,104.65c0,.23-.1.33-.31.33h-3.57c.36,1.67,1.3,2.77,3.19,2.77.85,0,1.6-.22,2.24-.45.27-.1.42-.1.52.12l.49,1.06c.13.29.08.44-.16.56-.95.5-2.16.8-3.49.79-2.91,0-4.75-1.87-5.3-4.88h-1.25c-.21,0-.31-.1-.31-.33v-.92c0-.23.1-.33.31-.33h1.08v-.54c0-.25,0-.5.02-.75h-.99c-.21,0-.31-.1-.31-.33v-.92c0-.23.1-.33.31-.33h1.19c.63-2.92,2.47-4.94,5.5-4.93,1.48,0,2.53.38,3.29.94.23.18.27.33.15.56l-.54.98c-.14.23-.33.33-.56.19-.77-.43-1.25-.64-2.16-.65-1.66,0-2.76.99-3.23,2.92h3.68c.21.01.31.11.31.34v.92c0,.23-.1.33-.31.33h-3.87c-.02.2-.02.43-.02.64v.64h3.78c.21.01.31.11.31.34v.92h0Z"/></svg>