<?xml version="1.0" encoding="UTF-8"?><svg id="Design" xmlns="http://www.w3.org/2000/svg" viewBox="0 0 160 160"><defs><style>.cls-1{fill:#ff6200;}.cls-1,.cls-2,.cls-3,.cls-4,.cls-5,.cls-6,.cls-7{stroke-width:0px;}.cls-2{fill:#e6e3da;}.cls-3{fill:#8f411f;}.cls-4{fill:#006931;}.cls-5,.cls-6{fill:#232144;}.cls-6{fill-rule:evenodd;}.cls-7{fill:#fff;}</style></defs><path class="cls-3" d="M81.21,119.03l-28.32-.96-.63-52.47c.06-3.31-2.68-6.02-6.05-5.86-3.07.14-5.43,2.78-5.49,5.86l-.93,52.04,3.09,26.38h41.84s-3.5-24.97-3.5-24.97Z"/><path class="cls-3" d="M118.66,45.83h0c-2.15-2.27-5.74-2.36-8.01-.21l-53.39,50.62,7.8,8.22,53.39-50.62c2.27-2.15,2.36-5.74.21-8.01Z"/><rect class="cls-5" x="51.09" y="16" width="52.45" height="107.17" rx="5.48" ry="5.48"/><rect class="cls-2" x="52.9" y="17.87" width="48.83" height="103.38" rx="3.73" ry="3.73"/><path class="cls-6" d="M85.18,22.36h-15.73c-2.48,0-4.49-2.01-4.49-4.49h0v-.77l24.72-.03v.79h0c0,2.48-2.01,4.49-4.49,4.49Z"/><rect class="cls-2" x="70.57" y="18.26" width="13.48" height="1.27"/><rect class="cls-3" x="99.31" y="80.84" width="12.91" height="12.06" rx="6.03" ry="6.03" transform="translate(184.42 -25.13) rotate(85.68)"/><rect class="cls-3" x="97.74" y="66.26" width="12.91" height="12.06" rx="6.03" ry="6.03" transform="translate(168.44 -37.06) rotate(85.68)"/><rect class="cls-3" x="100.35" y="95.82" width="11.33" height="10.58" rx="5.29" ry="5.29" transform="translate(198.86 -12.22) rotate(85.68)"/><path class="cls-1" d="M86.2,76.09h-17.86c-3.29,0-5.95-2.67-5.95-5.95v-17.86c0-3.29,2.67-5.95,5.95-5.95h17.86c3.29,0,5.95,2.67,5.95,5.95v17.86c0,3.29-2.67,5.95-5.95,5.95Z"/><circle class="cls-4" cx="77.3" cy="109.05" r="6.92"/><path class="cls-7" d="M78.47,113.12c-.11-.02-.22-.04-.33-.07-.45-.1-.85-.29-1.24-.54-.6-.39-1.1-.88-1.56-1.42-.47-.55-.89-1.13-1.22-1.78-.24-.48-.42-.98-.48-1.52-.06-.6.03-1.17.34-1.7.17-.28.38-.51.64-.7.12-.09.24-.19.36-.29.26-.19.54-.17.76.07.13.14.24.29.34.45.19.3.38.59.48.93.11.35.05.66-.24.9-.15.12-.29.25-.45.35-.34.22-.4.5-.29.87.1.34.3.63.51.92.27.37.56.72.91,1.03.19.17.39.32.65.39.22.06.41,0,.58-.14.17-.15.33-.3.51-.44.29-.23.6-.22.91-.05.1.06.21.12.29.19.32.27.65.53.89.88.2.29.17.56-.09.79-.26.22-.5.46-.81.62-.31.16-.64.26-1,.28-.02,0-.05,0-.07.01h-.41Z"/><path class="cls-7" d="M74.48,60.41c0-.73.24-.73.12-.97-.12-.25-1.09,0-1.33,0-.61.12-1.7.48-1.7.72-.12.37-.12,1.22-.12,1.34.12.36.12.73.24,1.09.36-.36.48-.49.73-.61.12-.12,1.45-1.09,1.57-1.21.24-.24.37-.12.49-.36Z"/><path class="cls-7" d="M72.67,53.99c-.24.36-.24.73-.24,1.09,0,.61.12,1.09.24,1.82-.49.36-.73.61-1.21.85.12.73.24,2.07.24,2.07q.24-.36.48-.61c.49-.36.73-.61,1.33-1.09.12-.24.25-.12.61-.37.12-.12.24-.24.24-.36,0-.25-.12-.49-.24-.73-.12-.24-.36-.85-.36-.97,0-.97.12-1.21.24-2.06-.48-.12-1.09-.12-1.33.36Z"/><path class="cls-7" d="M74.36,62.23c-1.21.36-2.06.61-2.31.85-.6.37-.85.61-1.45.97q0,.73.12,1.1l.12,1.46c.24-.36.97-1.09,1.33-1.58.24-.24.73-.85,1.94-1.46.12-.49.24-.85.24-1.33Z"/><path class="cls-7" d="M70.97,67.09v.61c0,.24.12,1.58.12,1.94.12.36.12.72.25,1.09.12.24.24.48.24.73,0,0,.24-.12.37-.36.36-.36.48-.73.73-1.22-.12-.85-.37-1.58-.37-1.82,0-.97.12-1.22.24-1.82-.49.24-1.09.61-1.58.85Z"/><path class="cls-7" d="M72.05,73.76s.37-.24.37-.49c.61-.73,1.34-1.33,1.45-1.45-.24-.61-.36-.73-.73-1.09-.12.12-.73.48-.85.73-.25.12-.48.24-.6.36,0,.24.12.36.24.61,0,.24.12.85.12,1.33Z"/><path class="cls-7" d="M73.51,75.82c-.11.11-.22.19-.33.26h-.47c-.22-.63-.45-1.18-.77-1.72,0,0,1.82-.73,2.3-.73.12.25.24.61.49.85-.24.24-.97.97-1.21,1.34Z"/><path class="cls-7" d="M79.7,73.4s-.12-.61-.24-.85c-.12-.24-.24-.48-.61-.73-.12,0-.36-.24-.49-.12,0,0-.12.97-.24,1.09.24.37.49.61.61.97.12.37.24.85.48,1.21.12-.49.48-.73.48-1.58Z"/><path class="cls-7" d="M76.67,71.21c-.12-.24-.49-.37-.73-.48-.24,0-.49.48-.49.97,0,.24.12,1.09.24,1.45,0,.12.24.24.48.36.36.24.73.37,1.09.61,0,0-.36-1.09-.48-1.7-.12-.36.12-.85-.12-1.22Z"/><path class="cls-7" d="M87.42,75.96c-.07-.31-.15-.65-.21-.87v-1.94c-.49.12-.61.24-.72.24-.37.24-.61.36-.61.61,0,.48.12.97.12,1.21,0,.37,0,.61.12.73.18.06.3.09.43.13.3-.02.58-.06.87-.12Z"/><path class="cls-7" d="M83.58,76.09h.92c.22-.31.43-.54.54-.87.12-.36,0-.97-.12-1.58-.48.12-1.45.25-1.45.61-.12.36,0,.73,0,.97.12.25.12.49.12.85"/><path class="cls-7" d="M82.37,74.49c-.12-.24-.36-.36-.61-.36s-.85-.37-.85-.12c-.61,0-.12.61-.12.97,0,.26.35.73.68,1.11h1.12c-.05-.19-.1-.37-.1-.51-.12-.37,0-.73-.12-1.09Z"/><path class="cls-7" d="M89.65,74.12c-.24-.24.24-1.09-.36-1.09-.24-.12-.97-.36-.97-.36-.12.36-.12,1.09,0,1.46,0,.27.33.93.6,1.31.32-.17.63-.36.91-.58-.14-.37-.18-.66-.18-.73Z"/><path class="cls-7" d="M91.35,72.18q-.25-.12-.61-.12c-.12-.12-.37-.12-.49-.12,0,0,.12.61.36,1.21.1.2.28.4.41.46.2-.28.38-.58.53-.89-.13-.24-.21-.44-.21-.55Z"/><path class="cls-7" d="M80.79,70.36c.12,0,.24.25.36.25.24-.25.49-.61.85-.73v.48c0,.37,0,.61.12.97,0,.37.36.37.85.37s.61-.85.61-.97c0,0,.12.48.85.85,0,0,.85,0,.85-.12.12-.61.24-.73.12-1.22,0,0,.73.49,1.09.97.24-.24.48-.73.48-.85.24-.48.24-1.09.24-1.58-.97-.61-2.18-.73-3.4-.73-1.09,0-2.3.12-3.52.97.12.48.25.85.49,1.33"/><path class="cls-7" d="M77.88,50.22c.12.24,1.58,1.09,2.19,1.46.48.37.97.49,1.45.73.24-.36.49-.73.73-1.58.37.24.85.24,1.21.36,0,.49,0,.97.12,1.46,0,.24.24.12.73-.12.73-.25,1.45-.36,1.82-.49.85-.48,1.34-1.46,2.06-1.46.61,0,1.7.36,1.94.6.36.12.61.24.97.24s.64-.25.91-.48c-.04-.19-.09-.37-.15-.55-.97-.62-2.01-1.22-3.06-1.64-.73.61-1.21,1.09-1.58,1.09s-.12-.73-.12-1.21c-.36,0-.6,0-.97-.12-.24.85-.37,1.94-.97,2.18-.24.12-.36.12-.48.12v-.97c0-.12.48-.97.37-1.09,0,0-1.09.24-1.34.37-.12.12-.85.49-.97.49,0,0-.36-.12-.49-.12-.36-.24-.6-.24-.97-.48-.48,1.46-.61,1.82-.61,1.58,0,0-1.7-1.09-2.31-1.82-1.58.24-1.58.49-2.91.97-.49.48-1.21,1.09-1.7,1.82-.25.48-.49.72-.73,1.21l1.21.48c.12-.12.73-.97.85-1.21.85-.48,2.31-1.33,2.79-1.82Z"/><path class="cls-7" d="M88.76,64.79c.36-.24.49-.36.61-.48.36-.49.6-.97.73-1.46.36-.73.73-.49.97-2.06-.36,0-.49.24-.85.36.12-.36.24-.73.24-1.09.12-.73.36-1.21.36-2.06.36-.12.97-.49,1.09-.97,0-.12,0-.49.12-.97,0-.73.12-1.33-.12-1.82,0-.12-.85-1.33-1.45-1.7-.85-.36-1.21-.25-1.82-.12-.72,0-1.69.73-1.69,2.06-.73,0-2.19.12-3.03.85-.73-.36-1.33-.49-1.94-.61h-1.09c-.12-.49-.36-.97-.85-1.34-.61-.36-1.33-.85-2.19-.85-.37,0-.73-.12-1.09.12-.36.24-.97.49-1.09.97-.24.61-.48,1.09-.48,1.7s.36,1.09.73,1.7c.12.24.24.24.48.36.12,0,.61.24.73.36.12.12-.12.49-.12,1.22q0,.61.12,1.09c0,.49.12.97.24,1.34-.36,0-.61-.37-.85-.12,0,.24.24.84.49,1.33.61.61,1.21,1.21,1.58,1.94,0,.12,0,.37.12.37-.85.12-1.7.12-2.55.36-.73.24-1.58.61-2.3.97,0,.49.12.85.12.85.12,0,1.22-.61,2.18-.85,1.58-.49,2.43-.37,2.43-.37.12.24.24.6.12.73-1.46.61-2.91,1.33-4.25,2.18.12.25,0,.6.24.85,1.21-.73,2.91-1.58,4.12-2.06.48-.12.48,0,.73,0,.12.12.36.61.61.61.37,0,.73-.37,1.09-.49.73-.24,1.34-.48,2.06-.6.24-.12.24-.36.24-.61q.12-.24.12-.6c0-.12-.49-.24-.73-.73-.24-.37,0-.73-.12-.73-.36.24-.85.49-.97,0-.12-.37-.12-.85.25-.97,1.21-.49,2.54-.49,3.76,0,.24,0,.36.24.36.48.12.24,0,.49-.24.73-.37.12-.73-.36-.73,0s-.24.85-.85,1.09c-.12.12,0,.49.12.85,0,.12,0,.36.12.36.48.12,1.22.24,1.58.49.48.24,1.33.97,1.46.85.36-.24.48-.61.73-.85,1.23.56,2.25.91,3.72,1.81v-.85c-.78-.43-1.84-1-2.02-1.09-.48-.12-.73-.36-1.21-.49v-.97c.68.2,1.9.31,3.23.85v-.81c-1.34-.54-2.42-.76-3.36-.76,0-.12-.24-.24,0-.37Z"/><path class="cls-1" d="M82.97,56.29c0-.24-.48-.12-.73,0-.24,0-.6.24-.97.48-.36.36-.61.49-.61.85h.61c.61,0,.73.24.97-.12.37-.48.73-.73.73-1.21Z"/><path class="cls-1" d="M85.52,56.77c.24,0,.24.49.24.73.61,0,1.22.12,1.46-.12,1.34-.61-.72-1.09-.97-1.09-.61-.12-1.82-.49-1.33,0,0,.24.37.24.61.48Z"/><path class="cls-1" d="M78.73,55.93c.24-.25.97-.73.97-.73.12,0,.12-.12.12-.24-.24-.85-.48-.85-.97-1.09-.36-.24-.61-.24-.85-.24-.49.12-1.33.36-1.58,1.09,0,.12-.12.61.25,1.09.24.49.73.85.97,1.09.36,0,.48-.61,1.09-.97Z"/><path class="cls-1" d="M88.8,63.57c.49,0-.61-.49-1.09-.85-.12,0-.24-.12-.24-.12-.25-.24-.37-.73-.85-.85,0,0-.12,0-.12-.12,0-.36-.12-1.82-.12-1.82.24.48.73.48.97.48.49,0,.85-.12,1.09-.48,0-.12.12-.36.24-.36.25-.12.49-.25.61-.49.12,0,.24-.24.24-.24-1.09-.12-3.4-.12-3.4-.12-.37.12-.73.49-.73.61,0,0,.24,1.33.24,1.45,0,.85.12.85.12,1.7.37.24.49.24.73.49.12.24.24.48.36.73.48.24,1.09.48,1.46.85.12,0,.48-.61.48-.85Z"/><path class="cls-1" d="M88.07,55.2c.85.24,1.46.73,2.06,1.46.36,0,.73-.24.85-.61.12-.61.24-1.58-.12-2.06-.24-.24-.36-.36-.97-.49-.48-.12-.97,0-1.34.36-.24.36-.61.85-.48,1.33Z"/><path class="cls-1" d="M82.25,59.2c0-.24-.24-.49-.6-.61h-1.58c-.61,0-1.09,0-1.7.12.24.49.85.97,1.09,1.22.24.24.49.49.97.49.49-.12.49,0,.73-.12,0,.24.12.6,0,.85,0,.12.12,1.09-.36,1.21-.36.12-.85.37-1.09.73-.24.37-.36.97,0,1.22.24.12.49-.25.85-.37.36-.12.36-.36.49-.73.24-.24.73-.36.85-.61v-.36c.12-1.09.12-1.33.25-2.06,0-.12.12-.85.12-.97Z"/><path class="cls-1" d="M88.07,65.75c-.36-.12-.73-.36-1.46-.24q-.12.12-.12.48c.6,0,.97.36,1.45.48,0,0,.12-.61.12-.73Z"/><path class="cls-1" d="M81.28,65.75c-.24-.12-.48-.12-.73-.12-.37,0-.85.12-.85.12,0,0,.12.49.24.73.36-.12.49-.24.73-.36,0,0,.48-.24.61-.37Z"/></svg>