<?xml version="1.0" encoding="UTF-8"?><svg xmlns="http://www.w3.org/2000/svg" viewBox="0 0 160 160"><defs><style>.cls-1{fill:#271a4d;}.cls-2{fill:#fcc24b;}.cls-3{fill:#e7e4d6;}.cls-4{fill:#e1a000;}.cls-5{fill:#e5d4ce;}.cls-6{fill:#ff9e00;}.cls-7{fill:#b37400;}</style></defs><g id="boxes"><rect class="cls-1" x="29.84" y="135.89" width="100.24" height="7.88"/><polygon class="cls-1" points="29.84 135.89 58.48 57.84 59.84 57.84 31.2 135.89 29.84 135.89"/><polygon class="cls-1" points="130.08 135.89 100.85 57.84 99.49 57.84 128.73 135.89 130.08 135.89"/><rect class="cls-4" x="81.36" y="109.41" width="32.29" height="26.49"/><rect class="cls-7" x="108.98" y="128.53" width="1.78" height="2.97" transform="translate(219.75 260.03) rotate(180)"/><polygon class="cls-7" points="109.87 133.82 111.44 131.09 108.3 131.09 109.87 133.82"/><rect class="cls-2" x="81.36" y="124.98" width="4.75" height="3.34"/><rect class="cls-7" x="46.35" y="109.41" width="32.29" height="26.49"/><rect class="cls-4" x="60.79" y="109.41" width="3.4" height="26.62"/><rect class="cls-2" x="63.06" y="81.7" width="33.89" height="27.8"/><rect class="cls-7" x="92.15" y="104.08" width="1.87" height="3.12"/><polygon class="cls-7" points="93.09 101.65 91.44 104.51 94.74 104.51 93.09 101.65"/><rect class="cls-7" x="87.69" y="104.08" width="1.87" height="3.12"/><polygon class="cls-7" points="88.62 101.65 86.98 104.51 90.27 104.51 88.62 101.65"/><rect class="cls-4" x="76.25" y="81.7" width="7.5" height="4.55"/></g><g id="plane"><path class="cls-5" d="M78.11,54.21l22.95-2.24-25.92-14.77c-3.03-1.79-4.53-2.57-7.12-2.31l-11.36,1.11,21.45,18.21Z"/><path class="cls-1" d="M21.3,16.23l-.77.12c-1.56.24-2.63,1.7-2.39,3.27l4.75,30.49,29.81-8.16h0c-11.84-3.26-21.78-11.33-27.41-22.24l-1.01-1.95c-.56-1.09-1.76-1.7-2.98-1.51Z"/><path class="cls-3" d="M26.64,61.73l-8.83-6.43c-.99-.72-1.64-1.8-1.83-3h0c-.39-2.5,1.32-4.85,3.83-5.24l93.79-14.6c7.23-1.13,14.61.67,20.51,4.99l7.44,5.44c1.13.82,1.88,2.06,2.09,3.44h0c.45,2.87-1.52,5.56-4.39,6.01l-92.15,14.35c-7.21,1.12-14.56-.66-20.46-4.95Z"/><path class="cls-5" d="M143.64,46.33h0c.45,2.87-1.52,5.56-4.39,6.01l-92.15,14.35c-5.83.91-11.77-.09-16.94-2.78l113.48-17.58Z"/><rect class="cls-1" x="52.94" y="48.62" width="4.79" height="6.49" rx="2.06" ry="2.06" transform="translate(-7.32 9.13) rotate(-8.85)"/><rect class="cls-1" x="45.4" y="49.79" width="4.79" height="6.49" rx="2.06" ry="2.06" transform="translate(-7.59 7.98) rotate(-8.85)"/><rect class="cls-1" x="37.86" y="50.97" width="4.79" height="6.49" rx="2.06" ry="2.06" transform="translate(-7.86 6.84) rotate(-8.85)"/><rect class="cls-6" x="60.49" y="47.44" width="4.79" height="6.49" rx="2.06" ry="2.06" transform="translate(-7.05 10.28) rotate(-8.85)"/><rect class="cls-1" x="68.03" y="46.27" width="4.79" height="6.49" rx="2.06" ry="2.06" transform="translate(-6.78 11.42) rotate(-8.85)"/><rect class="cls-1" x="75.58" y="45.1" width="4.79" height="6.49" rx="2.06" ry="2.06" transform="translate(-6.51 12.57) rotate(-8.85)"/><rect class="cls-1" x="83.12" y="43.92" width="4.79" height="6.49" rx="2.06" ry="2.06" transform="translate(-6.24 13.72) rotate(-8.85)"/><rect class="cls-1" x="90.66" y="42.75" width="4.79" height="6.49" rx="2.06" ry="2.06" transform="translate(-5.97 14.86) rotate(-8.85)"/><rect class="cls-1" x="98.21" y="41.57" width="4.79" height="6.49" rx="2.06" ry="2.06" transform="translate(-5.7 16.01) rotate(-8.85)"/><rect class="cls-1" x="105.75" y="40.4" width="4.79" height="6.49" rx="2.06" ry="2.06" transform="translate(-5.43 17.16) rotate(-8.85)"/><path class="cls-1" d="M140.24,41.93l-17.37,2.7c-.92.14-1.78-.49-1.92-1.41l-.48-3.08c-.14-.92.49-1.78,1.41-1.92l10.92-1.7,7.45,5.41Z"/><path class="cls-3" d="M70.57,53.6l25.45-3.55-21.42,20.76c-2.49,2.49-3.75,3.61-6.32,4.02l-13.94,1.76,16.23-22.98Z"/></g></svg>