<?xml version="1.0" encoding="UTF-8"?><svg id="boxes" xmlns="http://www.w3.org/2000/svg" viewBox="0 0 160 160"><defs><style>.cls-1{fill:#bb8900;}.cls-2{fill:#f3c361;}.cls-3{fill:#f0b93d;}.cls-4{fill:#d8a232;}.cls-5{fill:#ff0026;}</style></defs><rect class="cls-1" x="16.02" y="97.04" width="42.2" height="34.25" transform="translate(74.24 228.34) rotate(180)"/><rect class="cls-3" x="27.96" y="103.84" width="18.35" height="4.74" transform="translate(-69.08 143.35) rotate(-90)"/><rect class="cls-4" x="64.36" y="90.55" width="42.2" height="40.74" transform="translate(170.92 221.85) rotate(180)"/><rect class="cls-3" x="64.33" y="108.34" width="42.24" height="4.8"/><rect class="cls-1" x="112.69" y="59.63" width="31.29" height="71.67" transform="translate(256.67 190.92) rotate(180)"/><polygon class="cls-2" points="136.02 67.9 136.02 73.02 139.58 73.02 139.58 67.9 140.94 67.9 137.8 62.45 134.66 67.9 136.02 67.9"/><polygon class="cls-5" points="124.02 30.54 99.08 49.48 86.02 39.64 58.42 66.87 45.72 57.61 19.55 86.85 22.26 89.26 46.23 62.47 58.78 71.61 86.34 44.41 99.09 54.02 126.21 33.43 124.02 30.54"/><polygon class="cls-5" points="114.08 36.13 118.09 41.76 125.04 41.1 144.16 27.59 136.28 16 116.96 29.78 114.08 36.13"/></svg>