<svg viewBox="0 0 161 160" fill="none" xmlns="http://www.w3.org/2000/svg"><path d="M54.8933 71.0772C54.5798 71.0393 54.2607 71.0198 53.9371 71.0198C49.5534 71.0198 46 74.5998 46 79.0158C46 83.4318 49.5534 87.0118 53.9371 87.0118C54.2607 87.0118 54.5798 86.9923 54.8933 86.9544V71.0772Z" fill="#FC8E7D"/><path d="M106.874 86.9822C107.175 87.0172 107.482 87.0352 107.793 87.0352C112.177 87.0352 115.73 83.4552 115.73 79.0392C115.73 74.6232 112.177 71.0432 107.793 71.0432C107.482 71.0432 107.175 71.0612 106.874 71.0963V86.9822Z" fill="#FC8E7D"/><path fill-rule="evenodd" clip-rule="evenodd" d="M54.8933 93.7276V56.3306C54.8933 44.6216 64.3142 35.1306 75.9368 35.1306H85.8314C97.453 35.1306 106.874 44.6216 106.874 56.3306V93.7276C106.874 105.437 97.453 113.415 85.8314 113.415H75.9368C64.3142 113.415 54.8933 105.437 54.8933 93.7276Z" fill="#FC8E7D"/><path fill-rule="evenodd" clip-rule="evenodd" d="M74.2687 76.8314C74.7761 75.2724 72.7452 73.2014 69.733 72.2054C66.7208 71.2104 63.8676 71.6674 63.3591 73.2264C62.8516 74.7864 64.8826 76.8574 67.8947 77.8524C70.9079 78.8474 73.7612 78.3904 74.2687 76.8314Z" fill="white"/><path fill-rule="evenodd" clip-rule="evenodd" d="M71.8756 76.3059C72.5757 74.8229 71.9491 73.0489 70.4772 72.3439C69.0054 71.6379 67.2446 72.2689 66.5444 73.7519C65.8443 75.2359 66.47 77.0099 67.9428 77.7149C69.4146 78.4199 71.1754 77.7889 71.8756 76.3059Z" fill="black"/><path fill-rule="evenodd" clip-rule="evenodd" d="M88.3532 76.8314C87.8457 75.2724 89.8767 73.2014 92.8889 72.2054C95.901 71.2104 98.7543 71.6674 99.2618 73.2264C99.7703 74.7864 97.7393 76.8574 94.7272 77.8524C91.714 78.8474 88.8607 78.3904 88.3532 76.8314Z" fill="white"/><path fill-rule="evenodd" clip-rule="evenodd" d="M90.7463 76.3059C90.0461 74.8229 90.6728 73.0489 92.1446 72.3439C93.6164 71.6379 95.3773 72.2689 96.0774 73.7519C96.7776 75.2359 96.1519 77.0099 94.6791 77.7149C93.2073 78.4199 91.4464 77.7889 90.7463 76.3059Z" fill="black"/><path fill-rule="evenodd" clip-rule="evenodd" d="M76.7806 64.9963C77.1391 66.8943 73.825 69.1233 69.3798 69.9743C64.9335 70.8263 61.0395 69.9783 60.6809 68.0803C60.3224 66.1823 63.6365 63.9533 68.0828 63.1023C72.528 62.2503 76.4221 63.0983 76.7806 64.9963Z" fill="#E6E6E6"/><path fill-rule="evenodd" clip-rule="evenodd" d="M100.94 68.3767C100.513 70.2597 96.5896 70.9637 92.1782 69.9487C87.7667 68.9337 84.536 66.5837 84.9631 64.6997C85.3901 62.8167 89.313 62.1127 93.7245 63.1287C98.136 64.1437 101.367 66.4937 100.94 68.3767Z" fill="#E6E6E6"/><path d="M54.7183 56.0154V117.345H59.3463V56.4629H57.5306C56.5489 56.4629 55.6037 56.3059 54.7183 56.0154Z" fill="#E6E6E6"/><path fill-rule="evenodd" clip-rule="evenodd" d="M57.6306 73.4165H77.826V84.6625H57.6306V73.4165ZM59.4689 75.2675V82.8115H75.9877V75.2675H59.4689Z" fill="#ABB8B9"/><path fill-rule="evenodd" clip-rule="evenodd" d="M84.2585 73.4165H104.454V84.6625H84.2585V73.4165ZM86.0968 75.2675V82.8115H102.616V75.2675H86.0968Z" fill="#ABB8B9"/><path fill-rule="evenodd" clip-rule="evenodd" d="M85.2842 79.8449H76.8317V77.9939H85.2842V79.8449Z" fill="#ABB8B9"/><path fill-rule="evenodd" clip-rule="evenodd" d="M83.1384 144H78.9017C65.546 144 54.7179 134.261 54.7179 122.248V89.3259H107.322V122.248C107.322 134.261 96.495 144 83.1384 144Z" fill="#E6E6E6"/><path fill-rule="evenodd" clip-rule="evenodd" d="M97.199 34.2058L120.022 36.5868L93.1519 16.2378L97.199 34.2058Z" fill="#891229"/><path fill-rule="evenodd" clip-rule="evenodd" d="M107.793 34.9331C107.793 38.8851 110.973 42.0901 114.897 42.0901C118.82 42.0901 122 38.8851 122 34.9331C122 30.9811 118.82 27.7761 114.897 27.7761C110.973 27.7761 107.793 30.9811 107.793 34.9331Z" fill="#F7E5CD"/><path fill-rule="evenodd" clip-rule="evenodd" d="M103.3 56.4629H57.5306C52.5212 56.4629 48.4603 52.3739 48.4603 47.3289V47.3239C48.4603 42.2799 52.5212 38.1909 57.5306 38.1909H103.3C108.309 38.1909 112.37 42.2799 112.37 47.3239V47.3299C112.37 52.3739 108.309 56.4629 103.3 56.4629Z" fill="#F7E5CD"/><path d="M102.714 56.4629H103.3C104.753 56.4629 106.125 56.1192 107.342 55.5081V117.345H102.714V56.4629Z" fill="#E6E6E6"/><path d="M55.3566 56.199C55.3399 56.4132 55.3314 56.6297 55.3314 56.8483C55.3314 61.3773 58.9752 65.0483 63.4701 65.0483C67.9651 65.0483 71.6089 61.3773 71.6089 56.8483C71.6089 56.7191 71.6059 56.5907 71.6 56.463H57.5306C56.7812 56.463 56.0531 56.3715 55.3566 56.199Z" fill="#E6E6E6"/><path d="M66.9528 56.4629C67.956 59.8459 71.0681 62.3116 74.752 62.3116C78.4359 62.3116 81.548 59.8459 82.5512 56.4629H66.9528Z" fill="#E6E6E6"/><path d="M90.1958 56.4629C91.1868 57.7812 92.7573 58.6328 94.5251 58.6328C96.2929 58.6328 97.8635 57.7812 98.8545 56.4629H90.1958Z" fill="#E6E6E6"/><path d="M94.6441 56.463H103.3C103.795 56.463 104.28 56.4231 104.753 56.3464C105.008 56.9804 105.149 57.6735 105.149 58.3997C105.149 61.4197 102.719 63.8677 99.7213 63.8677C96.724 63.8677 94.2938 61.4197 94.2938 58.3997C94.2938 57.7178 94.4177 57.065 94.6441 56.463Z" fill="#E6E6E6"/><path fill-rule="evenodd" clip-rule="evenodd" d="M93.0489 16H69.2842L56.5006 45.756H81.166H105.831L93.0489 16Z" fill="#E73245"/><path fill-rule="evenodd" clip-rule="evenodd" d="M80.977 88.4737C79.7395 88.4737 78.7623 87.8567 77.9003 87.3127C76.4831 86.4177 75.629 85.8777 73.9208 87.5987L72.8095 86.4797C75.4035 83.8657 77.2508 85.0337 78.7355 85.9717C79.4843 86.4447 80.1904 86.8907 80.977 86.8907C81.7834 86.8907 82.4508 86.4787 83.1569 86.0437C84.5672 85.1727 86.322 84.0887 89.2309 86.5197L88.2278 87.7387C86.184 86.0307 85.3061 86.5717 83.9782 87.3927C83.1579 87.8997 82.2263 88.4737 80.977 88.4737Z" fill="#1D1D1B"/></svg>