<svg viewBox="0 0 160 160" fill="none" xmlns="http://www.w3.org/2000/svg"><path fill-rule="evenodd" clip-rule="evenodd" d="M64.2552 144H94.7438V16H64.2552V144Z" fill="#BAC09A"/><path fill-rule="evenodd" clip-rule="evenodd" d="M47.4065 102.127V56.7022C47.4065 51.1552 51.9028 46.6582 57.449 46.6582H101.551C107.097 46.6582 111.593 51.1552 111.593 56.7022V102.127C111.593 107.674 107.097 112.171 101.551 112.171H57.449C51.9028 112.171 47.4065 107.674 47.4065 102.127Z" fill="white"/><path fill-rule="evenodd" clip-rule="evenodd" d="M57.4492 49.065C53.2388 49.065 49.8133 52.491 49.8133 56.702V102.127C49.8133 106.338 53.2388 109.763 57.4492 109.763H101.551C105.761 109.763 109.187 106.338 109.187 102.127V56.702C109.187 52.491 105.761 49.065 101.551 49.065H57.4492ZM101.551 114.578H57.4492C50.5842 114.578 45 108.993 45 102.127V56.702C45 49.836 50.5842 44.25 57.4492 44.25H101.551C108.416 44.25 114 49.836 114 56.702V102.127C114 108.993 108.416 114.578 101.551 114.578Z" fill="#BAC09A"/><path fill-rule="evenodd" clip-rule="evenodd" d="M82.7761 90.498L76.964 77.752L91.4649 61.582L92.8697 62.841L79.1917 78.092L84.4919 89.715L82.7761 90.498Z" fill="#F15922"/></svg>