<svg viewBox="0 0 160 160" fill="none" xmlns="http://www.w3.org/2000/svg"><path fill-rule="evenodd" clip-rule="evenodd" d="M100.767 22.459H60.2329C58.3395 22.459 56.6925 23.759 56.2486 25.604L54.0688 34.655H106.931L104.752 25.604C104.307 23.759 102.66 22.459 100.767 22.459Z" fill="#232144"/><path fill-rule="evenodd" clip-rule="evenodd" d="M98.4823 17.514L97.2853 19.026H97.2813L96.0842 17.514L95.319 16.548C95.0976 16.268 94.6736 16.268 94.4521 16.548L93.687 17.514L92.4899 19.026H92.4859L91.2898 17.514L90.5246 16.548C90.3022 16.268 89.8782 16.268 89.6567 16.548L88.8916 17.514L87.6945 19.026H87.6915L86.4944 17.514L85.7293 16.548C85.5068 16.268 85.0838 16.268 84.8614 16.548L84.0962 17.514L82.9001 19.026H82.8961L81.699 17.514L80.9339 16.548C80.7124 16.268 80.2885 16.268 80.067 16.548L79.3019 17.514L78.1048 19.026H78.1008L76.9037 17.514L76.1385 16.548C75.9171 16.268 75.4931 16.268 75.2716 16.548L74.5065 17.514L73.3094 19.026H73.3054L72.1083 17.514L71.3432 16.548C71.1217 16.268 70.6977 16.268 70.4763 16.548L69.7111 17.514L68.514 19.026H68.51L67.3139 17.514L66.5478 16.548C66.3263 16.268 65.9023 16.268 65.6809 16.548L64.9157 17.514L63.7186 19.026H63.7156L62.5176 17.514L61.3195 16V19.026V19.028V61.943H99.6804V19.028V19.026V16L98.4823 17.514Z" fill="#F7E5CD"/><path fill-rule="evenodd" clip-rule="evenodd" d="M44 136.25V38.2002C44 33.9192 47.4616 30.4492 51.7313 30.4492H109.269C113.538 30.4492 117 33.9192 117 38.2002V136.25C117 140.53 113.538 144 109.269 144H51.7313C47.4616 144 44 140.53 44 136.25Z" fill="#463EC5"/><path fill-rule="evenodd" clip-rule="evenodd" d="M52.8099 97.5291H68.3872V89.5381H52.8099V97.5291Z" fill="#F7E5CD"/><path fill-rule="evenodd" clip-rule="evenodd" d="M72.7118 97.5291H88.289V89.5381H72.7118V97.5291Z" fill="#F7E5CD"/><path fill-rule="evenodd" clip-rule="evenodd" d="M92.6124 97.5291H108.19V89.5381H92.6124V97.5291Z" fill="#F7E5CD"/><path fill-rule="evenodd" clip-rule="evenodd" d="M52.8099 107.265H68.3872V99.2744H52.8099V107.265Z" fill="#F7E5CD"/><path fill-rule="evenodd" clip-rule="evenodd" d="M72.7118 107.265H88.289V99.2744H72.7118V107.265Z" fill="#F7E5CD"/><path fill-rule="evenodd" clip-rule="evenodd" d="M92.6124 107.265H108.19V99.2744H92.6124V107.265Z" fill="#F7E5CD"/><path fill-rule="evenodd" clip-rule="evenodd" d="M52.8099 117.198H68.3872V109.207H52.8099V117.198Z" fill="#F7E5CD"/><path fill-rule="evenodd" clip-rule="evenodd" d="M72.7118 117.198H88.289V109.207H72.7118V117.198Z" fill="#F7E5CD"/><path fill-rule="evenodd" clip-rule="evenodd" d="M92.6124 117.198H108.19V109.207H92.6124V117.198Z" fill="#F7E5CD"/><path fill-rule="evenodd" clip-rule="evenodd" d="M52.8099 128.133H68.3872V120.142H52.8099V128.133Z" fill="#E73245"/><path fill-rule="evenodd" clip-rule="evenodd" d="M72.7118 128.133H88.289V120.142H72.7118V128.133Z" fill="#FBB03B"/><path fill-rule="evenodd" clip-rule="evenodd" d="M92.6124 128.133H108.19V120.142H92.6124V128.133Z" fill="#BAC09A"/><path fill-rule="evenodd" clip-rule="evenodd" d="M49.0342 77.6617H111.966V38.9707H49.0342V77.6617Z" fill="#232144"/><path fill-rule="evenodd" clip-rule="evenodd" d="M52.8099 136.291H108.19V132.085H52.8099V136.291Z" fill="#232144"/><path fill-rule="evenodd" clip-rule="evenodd" d="M77.4145 52.9316C77.5592 52.9316 77.611 52.9976 77.611 53.1286V61.1146H79.289C79.4326 61.1146 79.4845 61.1796 79.4845 61.3116V62.1916C79.4845 62.3226 79.4326 62.3886 79.289 62.3886H74.1784C74.0337 62.3886 73.9818 62.3226 73.9818 62.1916V61.3116C73.9818 61.1796 74.0337 61.1146 74.1784 61.1146H75.9999V54.6386L74.322 55.5196C74.1654 55.5976 74.0736 55.5846 73.9948 55.4276L73.6277 54.6916C73.5489 54.5206 73.5888 54.4286 73.7454 54.3506L76.0388 53.1416C76.3531 52.9836 76.5107 52.9316 76.8778 52.9316H77.4145Z" fill="#F7E5CD"/><path fill-rule="evenodd" clip-rule="evenodd" d="M86.6555 61.0228C86.8001 61.0228 86.852 61.0888 86.852 61.2198V62.1918C86.852 62.3228 86.8001 62.3888 86.6555 62.3888H81.2964C81.1129 62.3888 81.06 62.3368 81.06 62.1788V61.5478C81.06 58.5268 85.0434 57.3058 85.0434 55.3748C85.0434 54.5478 84.4807 54.1268 83.6677 54.1268C82.9734 54.1268 82.3319 54.4158 81.7683 54.7578C81.6376 54.8368 81.5319 54.8228 81.4531 54.6918L81.047 54.0218C80.9553 53.8638 81.0081 53.7858 81.1777 53.6538C81.8331 53.1418 82.8297 52.8008 83.7595 52.8008C84.794 52.8008 85.5422 53.0768 86.0399 53.5888C86.446 54.0218 86.6814 54.6128 86.6814 55.3618C86.6814 57.7258 82.8417 59.2888 82.6851 61.0228H86.6555Z" fill="#F7E5CD"/><path fill-rule="evenodd" clip-rule="evenodd" d="M88.9904 64.6094C88.8069 64.6094 88.754 64.5304 88.7809 64.3724L89.1869 62.3764L88.8597 62.2184C88.6752 62.1274 88.6104 62.0484 88.6104 61.7854V60.7734C88.6104 60.6034 88.6892 60.5244 88.8717 60.5244H90.2484C90.4449 60.5244 90.5237 60.6034 90.5237 60.7734V61.4704C90.5237 62.0744 90.4319 62.4024 90.2484 62.9014L89.7107 64.3724C89.6329 64.5704 89.593 64.6094 89.3964 64.6094H88.9904Z" fill="#F7E5CD"/><path fill-rule="evenodd" clip-rule="evenodd" d="M96.3811 56.8458C96.3811 55.2828 95.9481 54.1138 94.8219 54.1138C93.8782 54.1138 93.3544 54.8888 93.3544 55.7948C93.3544 56.7408 93.7994 57.5418 94.9266 57.5418C95.3985 57.5418 95.988 57.3448 96.3811 57.1608V56.8458ZM94.5595 58.8298C92.725 58.8298 91.7294 57.5548 91.7294 55.9398C91.7294 54.1798 92.8826 52.8008 94.769 52.8008C97.2061 52.8008 98.0062 54.7178 98.0062 56.9508C98.0062 59.9068 96.9577 62.5198 94.2981 62.5198C93.4721 62.5198 92.713 62.3228 92.2401 61.9948C92.1094 61.9028 92.0705 61.8368 92.1753 61.6138L92.4895 60.9838C92.5554 60.8388 92.6462 60.8258 92.8038 60.9048C93.1978 61.0888 93.7734 61.2198 94.1535 61.2198C95.7386 61.2198 96.2105 60.0248 96.3292 58.2908C95.9481 58.6058 95.189 58.8298 94.5595 58.8298Z" fill="#F7E5CD"/><path fill-rule="evenodd" clip-rule="evenodd" d="M104.024 56.8458C104.024 55.2828 103.591 54.1138 102.464 54.1138C101.521 54.1138 100.997 54.8888 100.997 55.7948C100.997 56.7408 101.443 57.5418 102.569 57.5418C103.041 57.5418 103.631 57.3448 104.024 57.1608V56.8458ZM102.202 58.8298C100.367 58.8298 99.3718 57.5548 99.3718 55.9398C99.3718 54.1798 100.525 52.8008 102.411 52.8008C104.849 52.8008 105.649 54.7178 105.649 56.9508C105.649 59.9068 104.6 62.5198 101.941 62.5198C101.115 62.5198 100.355 62.3228 99.8826 61.9948C99.7519 61.9028 99.713 61.8368 99.8177 61.6138L100.132 60.9838C100.198 60.8388 100.289 60.8258 100.446 60.9048C100.84 61.0888 101.416 61.2198 101.796 61.2198C103.381 61.2198 103.853 60.0248 103.972 58.2908C103.591 58.6058 102.831 58.8298 102.202 58.8298Z" fill="#F7E5CD"/></svg>