<?xml version="1.0" encoding="UTF-8"?><svg id="Design" xmlns="http://www.w3.org/2000/svg" viewBox="0 0 160 160"><defs><style>.cls-1{fill:#000;}.cls-1,.cls-2,.cls-3,.cls-4,.cls-5,.cls-6,.cls-7,.cls-8{stroke-width:0px;}.cls-2{fill:#8da8dc;}.cls-3{fill:#d0def2;}.cls-4{fill:#232144;}.cls-5{fill:#8b181d;}.cls-6{fill:#faa332;}.cls-7{fill:#ffa28f;}.cls-8{fill:#f5836d;}</style></defs><circle class="cls-5" cx="60.65" cy="76.94" r="9.13"/><circle class="cls-5" cx="62.68" cy="60.55" r="12.49"/><path class="cls-3" d="M144,144l-8.98-46.35c-.87-8.8-7.95-15.98-17.08-16.66-.37-.03-1.7-.04-1.7-.04-.09,0-.17,0-.26,0H43.96s-.02,0-.03,0l-1.38.03c-.17,0-.33,0-.5.01-9.13.69-16.2,7.86-17.08,16.66l-8.98,46.35,28.25-.1v.1h73.66v-.09s26.09.09,26.09.09Z"/><path class="cls-8" d="M65.62,79.43v-18.76l28.95.04v18.72c0,7.99-6.48,14.46-14.48,14.46s-14.48-6.48-14.48-14.46"/><polygon class="cls-4" points="87.92 95.92 80.05 105.67 71.97 95.68 80.06 93.06 87.92 95.92"/><polygon class="cls-4" points="80.08 93.23 68.53 144 91.68 144 80.08 93.23"/><polygon class="cls-2" points="94.57 78.27 80.06 93.06 90.22 103.96 99.1 80.92 94.57 78.27"/><polygon class="cls-4" points="102.5 80.96 106.25 87.4 122.92 87.45 122.92 80.96 102.5 80.96"/><polygon class="cls-2" points="65.62 78.27 80.05 93.06 69.89 103.96 61.02 80.92 65.62 78.27"/><polygon class="cls-4" points="57.66 80.94 53.91 87.38 37.24 87.43 37.24 80.96 57.66 80.94"/><circle class="cls-5" cx="100.53" cy="62.79" r="12.49"/><circle class="cls-7" cx="99.43" cy="51.05" r="5.7"/><circle class="cls-7" cx="60.73" cy="51.05" r="5.7"/><path class="cls-7" d="M61.43,58.7v-26.3c0-8.35,6.71-15.06,15.06-15.06h7.26c8.35,0,15.06,6.71,15.06,15.06v26.3c0,8.35-6.71,15.06-15.06,15.06h-7.26c-8.35,0-15.06-6.79-15.06-15.06Z"/><circle class="cls-5" cx="100.53" cy="89.17" r="5.77"/><circle class="cls-5" cx="100.53" cy="79.14" r="9.13"/><path class="cls-5" d="M70.33,36.05h-.23c-2.42,0-4.68,1.17-6.09,3.2h0l12.41-.08h0c-1.4-1.95-3.67-3.12-6.09-3.12h0Z"/><path class="cls-5" d="M89.6,36.05h-.23c-2.42.08-4.6,1.4-6.01,3.43h0l12.41-.47h0c-1.48-1.95-3.75-3.04-6.16-2.97h0Z"/><path class="cls-4" d="M96.5,47.62v-1.86c-.01-2.92-2.29-5.29-5.1-5.28h-4.59c-2.81.02-5.08,2.39-5.08,5.31h0s0,0,0,.01v1.86c.01,2.92,2.29,5.29,5.1,5.28h4.59c2.81-.02,5.08-2.39,5.08-5.31h0s0,0,0-.01Z"/><path class="cls-4" d="M78.71,47.62v-1.86c-.01-2.92-2.31-5.29-5.14-5.28h-4.62c-2.83.02-5.12,2.39-5.11,5.31h0s0,0,0,.01v1.86c.01,2.92,2.31,5.29,5.14,5.28h4.62c2.83-.02,5.12-2.39,5.11-5.31h0s0,0,0-.01Z"/><path class="cls-4" d="M86.09,48.79h-2.16c0-2.11-1.72-3.82-3.83-3.82s-3.83,1.72-3.83,3.82h-2.16c0-3.3,2.69-5.99,5.99-5.99s5.99,2.69,5.99,5.99Z"/><path class="cls-5" d="M61.44,48.63v-6.97c0-8.3,6.72-15.02,15.01-15.02h2.07v-4.64l2.66,4.64h2.5c8.29,0,15.01,6.72,15.01,15.02v6.97h2.94v-16.35c0-8.99-7.37-16.28-16.46-16.28h-10.22c-9.09,0-16.46,7.29-16.46,16.28v16.35h2.94Z"/><path class="cls-5" d="M80.08,61.63c0-1.21-2.46-1.14-2.46-1.14h-5.56c.04-.21,3.44,5.22,8.11,5.23,4.61,0,7.94-5.23,7.94-5.23h-5.56s-2.48.04-2.46,1.14h0Z"/><path class="cls-6" d="M107.1,103.22l-6.68,2.71v8.25s-.02,4,6.68,6.45c6.7-2.45,6.68-6.45,6.68-6.45v-8.25l-6.68-2.71Z"/><polygon class="cls-4" points="101.64 43.75 90.5 43.79 90.49 41.78 101.64 41.78 101.64 43.75"/><polygon class="cls-4" points="69.62 43.75 58.5 43.79 58.49 41.78 69.62 41.78 69.62 43.75"/><path class="cls-1" d="M79.72,56.74c-.87,0-1.55-.43-2.16-.81-.99-.62-1.59-1-2.79.2l-.78-.78c1.82-1.82,3.11-1,4.15-.35.52.33,1.02.64,1.57.64s1.03-.29,1.53-.59c.99-.6,2.22-1.36,4.26.33l-.7.85c-1.43-1.19-2.05-.81-2.98-.24-.58.35-1.23.75-2.1.75"/></svg>