<svg viewBox="0 0 160 160" fill="none" xmlns="http://www.w3.org/2000/svg"><path fill-rule="evenodd" clip-rule="evenodd" d="M59.6694 144H109V103.411H59.6694V144Z" fill="#D0A349"/><path fill-rule="evenodd" clip-rule="evenodd" d="M59.6693 103.413H109L102.88 98.7402H65.7952L59.6693 103.413Z" fill="#9C7527"/><path fill-rule="evenodd" clip-rule="evenodd" d="M101.867 137.27H104.587V132.712H101.867V137.27Z" fill="#9C7527"/><path fill-rule="evenodd" clip-rule="evenodd" d="M103.227 140.817L105.626 136.639H100.829L103.227 140.817Z" fill="#9C7527"/><path fill-rule="evenodd" clip-rule="evenodd" d="M59.6694 132.403H66.9179V127.281H59.6694V132.403Z" fill="#E7B95E"/><path fill-rule="evenodd" clip-rule="evenodd" d="M50.0045 102.432H99.3351V61.8428H50.0045V102.432Z" fill="#D0A349"/><path fill-rule="evenodd" clip-rule="evenodd" d="M50 61.8429H99.3306L93.2106 57.1699H56.126L50 61.8429Z" fill="#B3892F"/><path fill-rule="evenodd" clip-rule="evenodd" d="M54.4885 73.3012H57.208V68.7432H54.4885V73.3012Z" fill="#9C7527"/><path fill-rule="evenodd" clip-rule="evenodd" d="M55.8483 65.1973L53.4497 69.3753H58.2468L55.8483 65.1973Z" fill="#9C7527"/><path fill-rule="evenodd" clip-rule="evenodd" d="M92.1136 90.3749H99.362V85.2529H92.1136V90.3749Z" fill="#E7B95E"/><path fill-rule="evenodd" clip-rule="evenodd" d="M57.8411 61.1915H107.172V20.6025H57.8411V61.1915Z" fill="#D0A349"/><path fill-rule="evenodd" clip-rule="evenodd" d="M57.8409 20.603H107.171L101.051 16H63.9668L57.8409 20.603Z" fill="#B3892F"/><path fill-rule="evenodd" clip-rule="evenodd" d="M100.197 32.9711H102.917V28.4131H100.197V32.9711Z" fill="#9C7527"/><path fill-rule="evenodd" clip-rule="evenodd" d="M101.558 24.8672L99.1593 29.0452H103.956L101.558 24.8672Z" fill="#9C7527"/><path fill-rule="evenodd" clip-rule="evenodd" d="M57.8411 45.9833H65.0896V40.8613H57.8411V45.9833Z" fill="#E7B95E"/><path fill-rule="evenodd" clip-rule="evenodd" d="M91.493 48.9226C90.6307 54.4496 85.4757 58.2256 79.9798 57.3586C74.4849 56.4906 70.7285 51.3076 71.5919 45.7806C72.4542 40.2546 77.6091 36.4776 83.1041 37.3446C88.6 38.2126 92.3553 43.3956 91.493 48.9226Z" fill="#232145"/><path fill-rule="evenodd" clip-rule="evenodd" d="M87.9464 48.9958H84.547V19.8388C84.547 18.8968 85.3086 18.1338 86.2467 18.1338C87.1858 18.1338 87.9464 18.8968 87.9464 19.8388V48.9958Z" fill="#232145"/><path fill-rule="evenodd" clip-rule="evenodd" d="M79.1502 48.9958H75.7507V19.8388C75.7507 18.8968 76.5124 18.1338 77.4505 18.1338C78.3895 18.1338 79.1502 18.8968 79.1502 19.8388V48.9958Z" fill="#232145"/><path fill-rule="evenodd" clip-rule="evenodd" d="M73.1295 42.0731C73.1783 41.7611 74.7026 31.9951 74.7026 31.9951L79.3721 39.3861L73.1295 42.0731Z" fill="#232145"/><path fill-rule="evenodd" clip-rule="evenodd" d="M91.1588 44.9198C91.2077 44.6078 92.732 34.8418 92.732 34.8418L86.0358 40.4378L91.1588 44.9198Z" fill="#232145"/><path fill-rule="evenodd" clip-rule="evenodd" d="M83.1025 46.682C83.1025 46.682 85.1332 43.17 88.5625 44.936C88.5625 44.936 87.5138 48.603 83.1025 46.682Z" fill="white"/><path fill-rule="evenodd" clip-rule="evenodd" d="M80.2612 46.2328C80.2612 46.2328 79.3989 42.2638 75.5957 42.8878C75.5957 42.8878 75.4771 46.7018 80.2612 46.2328Z" fill="white"/><path fill-rule="evenodd" clip-rule="evenodd" d="M86.6363 45.9617C86.5196 46.7077 86.087 47.2587 85.6693 47.1927C85.2516 47.1267 85.0073 46.4687 85.124 45.7227C85.2406 44.9767 85.6733 44.4257 86.091 44.4917C86.5087 44.5577 86.7529 45.2157 86.6363 45.9617Z" fill="black"/><path fill-rule="evenodd" clip-rule="evenodd" d="M78.6634 44.7029C78.5467 45.4489 78.1141 45.9999 77.6964 45.9339C77.2787 45.8679 77.0344 45.2099 77.1511 44.4639C77.2677 43.7179 77.7004 43.1669 78.1181 43.2329C78.5358 43.2989 78.78 43.9569 78.6634 44.7029Z" fill="black"/><path fill-rule="evenodd" clip-rule="evenodd" d="M83.8663 122.167V84.2109H79.8318V122.167C79.8318 123.287 80.735 124.196 81.8485 124.196C82.9631 124.196 83.8663 123.287 83.8663 122.167Z" fill="#232145"/><path fill-rule="evenodd" clip-rule="evenodd" d="M73.0346 89.3154H76.8338V101.327C76.8338 102.324 76.0283 103.132 75.0344 103.132H74.834C73.8401 103.132 73.0346 102.324 73.0346 101.327V89.3154Z" fill="#232145"/><path fill-rule="evenodd" clip-rule="evenodd" d="M86.8644 89.3154H90.6636V101.327C90.6636 102.324 89.8581 103.132 88.8642 103.132H88.6638C87.6699 103.132 86.8644 102.324 86.8644 101.327V89.3154Z" fill="#232145"/><path fill-rule="evenodd" clip-rule="evenodd" d="M90.6631 95.1143C87.5807 98.2823 76.1163 98.2823 73.0349 95.1143C65.4405 87.3083 73.987 51.4443 73.987 51.4443H89.7111C89.7111 51.4443 98.2575 87.3083 90.6631 95.1143Z" fill="#232145"/></svg>