<svg viewBox="0 0 160 160" fill="none" xmlns="http://www.w3.org/2000/svg"><g clip-path="url(#clip0_205_1926)"><path fill-rule="evenodd" clip-rule="evenodd" d="M110.491 59.0915L99.5853 57.6955C99.5853 57.6955 91.2503 64.5855 88.3543 66.7305C83.7033 70.1745 76.8843 69.9845 72.0983 66.7305C69.2973 64.8255 60.9003 58.1065 60.9003 58.1065L51.0233 57.6955L51.2293 94.7785L67.0733 94.5285C67.0733 94.5285 69.2973 89.0255 72.0983 87.1205C76.8843 83.8665 83.5693 83.8665 88.3543 87.1205C91.1553 89.0255 93.0013 94.5285 93.0013 94.5285L109.842 94.3455L110.491 59.0915Z" fill="#463EC5"/><path fill-rule="evenodd" clip-rule="evenodd" d="M19.9607 79.7493C19.9607 66.6343 30.5927 56.0023 43.7077 56.0023C56.8237 56.0023 67.4557 66.6343 67.4557 79.7493C67.4557 92.8643 56.8237 103.496 43.7077 103.496C30.5927 103.496 19.9607 92.8643 19.9607 79.7493Z" fill="#232144"/><path fill-rule="evenodd" clip-rule="evenodd" d="M43.708 59.9623C32.797 59.9623 23.921 68.8383 23.921 79.7493C23.921 90.6603 32.797 99.5363 43.708 99.5363C54.619 99.5363 63.495 90.6603 63.495 79.7493C63.495 68.8383 54.619 59.9623 43.708 59.9623ZM43.708 107.457C28.43 107.457 16 95.0273 16 79.7493C16 64.4713 28.43 52.0413 43.708 52.0413C58.986 52.0413 71.416 64.4713 71.416 79.7493C71.416 95.0273 58.986 107.457 43.708 107.457Z" fill="#7070FF"/><path fill-rule="evenodd" clip-rule="evenodd" d="M92.5452 79.7079C92.5452 66.5929 103.177 55.9609 116.292 55.9609C129.408 55.9609 140.04 66.5929 140.04 79.7079C140.04 92.8229 129.408 103.455 116.292 103.455C103.177 103.455 92.5452 92.8229 92.5452 79.7079Z" fill="#232144"/><path fill-rule="evenodd" clip-rule="evenodd" d="M116.293 59.921C105.382 59.921 96.5056 68.798 96.5056 79.708C96.5056 90.619 105.382 99.495 116.293 99.495C127.204 99.495 136.08 90.619 136.08 79.708C136.08 68.798 127.204 59.921 116.293 59.921ZM116.293 107.416C101.015 107.416 88.5846 94.986 88.5846 79.708C88.5846 64.43 101.015 52 116.293 52C131.571 52 144.001 64.43 144.001 79.708C144.001 94.986 131.571 107.416 116.293 107.416Z" fill="#7070FF"/><path fill-rule="evenodd" clip-rule="evenodd" d="M85.3218 76.7148C85.3218 79.6368 82.9528 82.0058 80.0308 82.0058C77.1098 82.0058 74.7408 79.6368 74.7408 76.7148C74.7408 73.7928 77.1098 71.4238 80.0308 71.4238C82.9528 71.4238 85.3218 73.7928 85.3218 76.7148Z" fill="#7070FF"/><path fill-rule="evenodd" clip-rule="evenodd" d="M83.0131 76.7148C83.0131 78.3618 81.6781 79.6968 80.0311 79.6968C78.3841 79.6968 77.0491 78.3618 77.0491 76.7148C77.0491 75.0678 78.3841 73.7328 80.0311 73.7328C81.6781 73.7328 83.0131 75.0678 83.0131 76.7148Z" fill="#232144"/></g><defs><clipPath id="clip0_205_1926"><rect width="128" height="56" fill="white" transform="translate(16 52)"/></clipPath></defs></svg>