<?xml version="1.0" encoding="UTF-8"?><svg xmlns="http://www.w3.org/2000/svg" version="1.1" viewBox="0 0 160 160"><defs><style>.cls-1 {
        fill: #e73245;
      }

      .cls-2 {
        fill: #bf7461;
      }

      .cls-3, .cls-4 {
        fill: #232144;
      }

      .cls-5 {
        fill: #e6e3da;
      }

      .cls-4 {
        fill-rule: evenodd;
      }</style></defs><!--Generator: Adobe Illustrator 28.6.0, SVG Export Plug-In . SVG Version: 1.2.0 Build 709)--><g><g id="hand_holding_phone"><g><polygon class="cls-2" points="82.9 143.5 81.3 120.5 42 119 41.3 143.5 82.9 143.5"/><path class="cls-2" d="M48.3,64c-2.9.1-5.2,2.6-5.2,5.5l-.5,24.9c0,2.6-.3,14.6-.3,14.6l11,.3.9-39.7c0-3.1-2.5-5.7-5.7-5.6Z"/><path class="cls-2" d="M77.4,87.8h5.4c3,0,5.4,2.4,5.4,5.4v34.6c0,3-2.4,5.4-5.4,5.4h-5.4v-45.4h0Z" transform="translate(103 -26.1) rotate(45.2)"/><polygon class="cls-2" points="42 119 42.5 94.6 61.3 81.2 90.1 110.8 70.1 132.3 42 119"/><path class="cls-2" d="M117.2,51.1h0c-2-2.2-5.4-2.3-7.6-.2l-50.9,47.9,7.4,7.8,50.9-47.9c2.2-2,2.3-5.4.2-7.6Z"/><rect class="cls-3" x="52" y="16.5" width="52.6" height="108.1" rx="5.5" ry="5.5" transform="translate(156.6 141.1) rotate(180)"/><rect class="cls-5" x="53.8" y="18.7" width="48.9" height="103.6" rx="3.7" ry="3.7" transform="translate(156.6 141.1) rotate(180)"/><path class="cls-4" d="M70.4,23.2h15.8c2.5,0,4.5-2,4.5-4.5h0s-7.2,0-7.2,0h-17.6c0,2.5,2,4.5,4.5,4.5Z"/><rect class="cls-5" x="71.6" y="20.4" width="13.5" height="1.3" transform="translate(156.6 42) rotate(180)"/><rect class="cls-1" x="76.7" y="46.8" width="3.3" height="38" transform="translate(53.1 -33.3) rotate(35.7)"/><rect class="cls-1" x="76.7" y="46.8" width="3.3" height="38" transform="translate(180.3 73.5) rotate(144.3)"/><rect class="cls-2" x="99.6" y="98.6" width="10.8" height="10.1" rx="5" ry="5" transform="translate(200.8 -8.5) rotate(85.9)"/><rect class="cls-2" x="98.6" y="85.3" width="12.3" height="11.5" rx="5.7" ry="5.7" transform="translate(188.1 -20) rotate(85.9)"/><rect class="cls-2" x="97.2" y="70.5" width="12.3" height="11.5" rx="5.7" ry="5.7" transform="translate(172 -32.3) rotate(85.9)"/></g></g></g></svg>