<svg viewBox="0 0 160 160" fill="none" xmlns="http://www.w3.org/2000/svg"><path d="M109.27 91.0797H144V76.0697L139.99 54.8097C139.81 53.8697 138.99 53.1797 138.03 53.1797H111.27C110.17 53.1797 109.27 54.0697 109.27 55.1797V91.0797Z" fill="#ABB8B9"/><path d="M104.83 47.8301H16V91.0801H104.83V47.8301Z" fill="#ED1E79"/><path d="M140.72 85.5802H144V81.4102H140.72C139.57 81.4102 138.63 82.3402 138.63 83.5002C138.63 84.6502 139.57 85.5802 140.72 85.5802Z" fill="#232144"/><path d="M127.36 56.5703H137.01C138.93 56.5703 140.58 57.9303 140.93 59.8203L144 76.0703H131.35C129.14 76.0703 127.35 74.2803 127.35 72.0703V56.5703H127.36Z" fill="#232144"/><path d="M16 97.2801V91.0801H104.83V47.8301H107.02V91.0801H108.53C111.54 87.9601 115.76 85.9601 120.44 85.9601C125.12 85.9601 129.34 87.9701 132.35 91.0801H144V97.2801H100.31V100.84C100.31 102.08 99.31 103.08 98.07 103.08H78.41C77.17 103.08 76.17 102.08 76.17 100.84V97.2801H16Z" fill="#232144"/><path d="M34.01 112.17C39.3285 112.17 43.64 107.859 43.64 102.54C43.64 97.2217 39.3285 92.9102 34.01 92.9102C28.6915 92.9102 24.38 97.2217 24.38 102.54C24.38 107.859 28.6915 112.17 34.01 112.17Z" fill="#232144"/><path d="M120.44 112.17C125.759 112.17 130.07 107.859 130.07 102.54C130.07 97.2217 125.759 92.9102 120.44 92.9102C115.122 92.9102 110.81 97.2217 110.81 102.54C110.81 107.859 115.122 112.17 120.44 112.17Z" fill="#232144"/><path d="M34.01 108.65C37.3845 108.65 40.12 105.914 40.12 102.54C40.12 99.1652 37.3845 96.4297 34.01 96.4297C30.6355 96.4297 27.9 99.1652 27.9 102.54C27.9 105.914 30.6355 108.65 34.01 108.65Z" fill="#ABB8B9"/><path d="M120.44 108.65C123.814 108.65 126.55 105.914 126.55 102.54C126.55 99.1652 123.814 96.4297 120.44 96.4297C117.066 96.4297 114.33 99.1652 114.33 102.54C114.33 105.914 117.066 108.65 120.44 108.65Z" fill="#ABB8B9"/><path d="M138.404 93.9531L144.004 93.9531L144.004 92.6631L138.404 92.6631L138.404 93.9531Z" fill="#FBB03B"/><path d="M15.9964 93.9531L21.5964 93.9531L21.5964 92.6631L15.9964 92.6631L15.9964 93.9531Z" fill="#FBB03B"/><path d="M23.07 102.54H25.68C25.68 97.9496 29.42 94.2096 34.01 94.2096C38.6 94.2096 42.34 97.9496 42.34 102.54H44.95C44.95 96.5096 40.04 91.5996 34.01 91.5996C27.98 91.5996 23.07 96.5096 23.07 102.54Z" fill="#ABB8B9"/><path d="M109.51 102.54H112.12C112.12 97.9496 115.86 94.2096 120.45 94.2096C125.04 94.2096 128.78 97.9496 128.78 102.54H131.39C131.39 96.5096 126.48 91.5996 120.45 91.5996C114.42 91.5996 109.51 96.5096 109.51 102.54Z" fill="#ABB8B9"/></svg>