<?xml version="1.0" encoding="utf-8"?><!--Generator: Adobe Illustrator 27.8.0, SVG Export Plug-In . SVG Version: 6.00 Build 0)--><svg version="1.1" xmlns="http://www.w3.org/2000/svg" xmlns:xlink="http://www.w3.org/1999/xlink" x="0px" y="0px" viewBox="0 0 160 160" style="enable-background:new 0 0 160 160;" xml:space="preserve"><style type="text/css">.st0{fill:#FFC6AD;}
	.st1{fill:#F7931E;}
	.st2{fill:#8B181D;}
	.st3{fill:#F5836D;}
	.st4{fill:#FFA28F;}
	.st5{fill:#ABB8B9;}
	.st6{fill:#FBB03B;}
	.st7{fill:#F7E5CD;}
	.st8{fill:#BAC09A;}
	.st9{fill:#463EC5;}
	.st10{fill:#693725;}
	.st11{fill:#FAA332;}
	.st12{fill:#E73245;}
	.st13{fill:#8F411F;}
	.st14{fill:#F68D3D;}
	.st15{fill:#569B7B;}
	.st16{fill:#FFFFFF;}
	.st17{fill:#AACDE5;}
	.st18{fill:#232144;}
	.st19{fill:#A86554;}
	.st20{fill:#FFBD7A;}
	.st21{fill:#E6E3DA;}
	.st22{fill:#4B7CFE;}
	.st23{fill:#D8CBC5;}
	.st24{fill:#FF6200;}
	.st25{fill:#F0A86B;}
	.st26{fill:#E3944F;}
	.st27{fill:#191C15;}
	.st28{fill:#420F0F;}
	.st29{fill:#7D441C;}
	.st30{fill:none;stroke:#000000;stroke-width:0.6944;stroke-miterlimit:10;}
	.st31{fill:#01464D;}
	.st32{fill:#7A2F37;}
	.st33{fill:#9E3F39;}
	.st34{fill:none;stroke:#ABB8B9;stroke-width:3;stroke-miterlimit:10;}
	.st35{fill:#891229;}
	.st36{fill:#7070FF;}
	.st37{fill:#32785A;}
	.st38{fill:#D3E8F3;}
	.st39{fill:#006931;}
	.st40{clip-path:url(#SVGID_00000096763453752586253800000003058315918876646057_);}
	.st41{fill:#9A4039;}
	.st42{fill:none;stroke:#232144;stroke-width:2;stroke-miterlimit:10;}
	.st43{fill:#F5B091;}
	.st44{fill:none;stroke:#000000;stroke-width:1.3429;stroke-miterlimit:10;}
	.st45{fill:#D93B34;}
	.st46{fill:#FE5E57;}
	.st47{clip-path:url(#XMLID_00000067222892462905193180000017114943967729140665_);fill:#F7931E;}
	.st48{fill:#763427;}</style><g id="stramien"/><g id="Design"><rect x="35.7" y="96.8" class="st18" width="90.3" height="47.2"/><rect x="94.4" y="110.8" class="st9" width="17.1" height="33.2"/><line class="st42" x1="98.6" y1="108.4" x2="98.6" y2="144"/><polygon class="st22" points="133,100.8 117.5,73.2 44.2,73.2 28.7,100.8 	"/><rect x="55.5" y="86.4" class="st18" width="47.8" height="3.5"/><rect x="49.6" y="115.7" class="st38" width="32.4" height="15.5"/><polygon class="st16" points="66.6,131.2 76.6,115.7 72.9,115.7 62.9,131.2 	"/><polygon class="st16" points="59.5,131.2 69.5,115.7 67.7,115.7 57.7,131.2 	"/><line class="st42" x1="72.2" y1="115.2" x2="72.2" y2="131.8"/><polygon class="st0" points="54.3,32.2 67.5,50.7 85.8,28.6 66.4,16.6 	"/><path class="st0" d="M79.9,71.8L79.9,71.8c2,1.3,4.7,0.7,6-1.4L96,54.3l-7.3-4.6L78.5,65.8C77.3,67.8,77.9,70.5,79.9,71.8"/><path class="st0" d="M89.2,75.6L89.2,75.6c2.4,0.3,4.5-1.4,4.9-3.7l2.5-18.9l-8.6-1.1l-2.5,18.9C85.1,73.1,86.8,75.3,89.2,75.6"/><polygon class="st0" points="85.8,28.6 77.9,32.1 88.6,56.4 96.5,52.8 	"/><rect x="78" y="30.4" transform="matrix(0.9174 -0.3979 0.3979 0.9174 -10.6459 36.3855)" class="st0" width="8.7" height="26.9"/><path class="st0" d="M76.1,50.9c0,0-1.3-3.5-1.8-5.1c-0.8-2.6,2.5-3.3,3.5-1.2c0.6,1.3,4,8.9,4,8.9l1.3-20.7l-15.1,8.7L76.1,50.9z"/><path class="st1" d="M66.5,65.1c-6.9,7.3-6.6,18.9,0.7,25.8c7.3,6.9,18.8,6.6,25.8-0.7c6.9-7.3,6.6-18.9-0.7-25.8
		C85,57.5,73.4,57.8,66.5,65.1"/><path class="st6" d="M69.2,67.7c-5.5,5.8-5.3,15,0.5,20.5c5.8,5.5,15,5.2,20.5-0.6c5.5-5.8,5.3-15-0.5-20.5S74.7,61.9,69.2,67.7"/><path class="st0" d="M78.3,67.7c-2.3,1-5.9,0.1-6.8-2.2L61.4,41.4l9.6-3.3l9.7,23.3C81.7,63.6,80.6,66.7,78.3,67.7L78.3,67.7z"/><polygon class="st0" points="20.9,16 57.5,36.1 70,19.1 65.9,16 	"/><rect x="49.1" y="90" class="st22" width="59.4" height="6.7"/></g></svg>