<?xml version="1.0" encoding="UTF-8"?><svg xmlns="http://www.w3.org/2000/svg" version="1.1" viewBox="0 0 160 160"><defs><style>.cls-1 {
        fill: #f7c7a1;
      }

      .cls-2 {
        fill: #f7931e;
      }

      .cls-3 {
        fill: #b0c2e4;
      }

      .cls-4 {
        fill: #fbb03b;
      }

      .cls-5 {
        fill: #ff6200;
      }

      .cls-6 {
        fill: #d0def2;
      }</style></defs><!--Generator: Adobe Illustrator 28.6.0, SVG Export Plug-In . SVG Version: 1.2.0 Build 709)--><g><g id="Paper"><polyline class="cls-6" points="48.4 15.7 119.7 15.7 119.7 137.6 27.4 137.6 27.4 36.6"/><rect class="cls-3" x="38.5" y="48.8" width="70.1" height="5.1" rx="2.6" ry="2.6"/><rect class="cls-3" x="38.5" y="74.5" width="62.2" height="5.1" rx="2.6" ry="2.6"/><rect class="cls-3" x="38.5" y="87.8" width="53.2" height="5.1" rx="2.6" ry="2.6"/><rect class="cls-3" x="38.5" y="101.1" width="45.8" height="5.1" rx="2.6" ry="2.6"/><polygon class="cls-3" points="27.4 36.6 48.4 36.6 48.4 15.7 27.4 36.6"/></g><g id="Quill"><path class="cls-5" d="M128.1,71.7l3.3-8.7c-1.9-9.3-5.2-15.7-5.2-15.7,0,0-10,9.2-15.3,23.2l.2,11.4-2.5-3.1c0,.3-.1.5-.1.8-3.3,19-.8,35.3,5.8,36.4,6.5,1.1,14.5-13.3,17.9-32.3.9-5.1.9-10,.4-14.6l-4.2,2.5Z"/><rect class="cls-1" x="78.1" y="96.3" width="78.5" height="2" transform="translate(1.2 195.9) rotate(-80)"/><path class="cls-4" d="M120.9,144.3h-16.1c-2.5,0-4.4-2.5-4.1-5.4l1.4-14.7h21.6l1.4,14.7c.3,2.9-1.7,5.4-4.1,5.4Z"/><rect class="cls-2" x="99.7" y="120.5" width="26.4" height="3.8" rx="1.9" ry="1.9"/></g></g></svg>