<svg viewBox="0 0 160 160" fill="none" xmlns="http://www.w3.org/2000/svg"><path d="M143.89 144L134.92 97.6504C134.05 88.8504 126.98 81.6704 117.86 80.9904C117.49 80.9604 117.13 80.9704 116.76 80.9604V80.9404H42.53V80.9704C42.36 80.9704 42.2 80.9704 42.03 80.9804C32.91 81.6704 25.84 88.8404 24.97 97.6404L16 143.99L44.22 143.89V143.99H117.82V143.9L143.89 143.99V144Z" fill="#7070FF"/><path d="M103.91 93.4899H68.6C61.58 93.4899 55.89 87.7999 55.89 80.7799V31.8799H103.91V93.4899Z" fill="#E6E6E6"/><path d="M61.86 57.9497V31.8897C61.86 23.6497 68.45 16.9697 76.58 16.9697H83.66C91.79 16.9697 98.38 23.6497 98.38 31.8897V57.9497C98.38 66.1897 91.79 72.8597 83.66 72.8597H76.58C68.45 72.8597 61.86 66.1797 61.86 57.9497Z" fill="#8F411F"/><path d="M59.17 49.1395V41.4995C59.17 33.2595 66.65 26.5795 75.88 26.5795H78.67V21.9695H81.14V26.5795H83.93C93.16 26.5795 100.64 33.2595 100.64 41.4995V49.1395H103.92V32.1795C103.92 23.2495 95.72 16.0195 85.6 16.0195H74.23C64.11 16.0195 55.91 23.2595 55.91 32.1795V49.1395H59.19H59.17Z" fill="#E6E6E6"/><path d="M99.33 36.8497H59.57V31.4297C59.57 24.6897 65.03 19.2197 71.78 19.2197H87.13C93.87 19.2197 99.34 24.6797 99.34 31.4297V36.8497H99.33Z" fill="#E6E6E6"/><path d="M79.7 57.4799C79.49 57.4799 79.27 57.4599 79.04 57.4099C78.4 57.2799 77.79 56.9499 77.23 56.4299C76.93 56.1499 76.64 56.0399 76.33 56.0599C75.71 56.1099 75.23 56.7399 75.22 56.7399L74.63 56.2899C74.63 56.2899 75.31 55.3999 76.26 55.3199C76.79 55.2799 77.28 55.4599 77.74 55.8799C78.2 56.3099 78.69 56.5699 79.19 56.6699C79.7 56.7699 80.16 56.7199 80.55 56.5299C80.71 56.4499 80.88 56.3199 81.03 56.1499C81.23 55.9399 81.77 55.4299 82.56 55.3999C83.19 55.3699 83.83 55.6599 84.45 56.2399L83.94 56.7799C83.47 56.3399 83.01 56.1199 82.59 56.1399C82.08 56.1599 81.71 56.4999 81.57 56.6499C81.35 56.8799 81.12 57.0599 80.88 57.1899C80.52 57.3799 80.12 57.4699 79.69 57.4699H79.7V57.4799Z" fill="black"/><path d="M88.91 40.18H89.14C91.51 40.18 93.74 41.38 95.17 43.38L82.86 43.32C84.3 41.33 86.54 40.16 88.92 40.17" fill="#171111"/><path d="M83.87 49.9399C83.87 49.9399 85.26 46.3899 87.85 45.4799C90.44 44.5799 93.48 46.3399 93.48 46.3399C93.48 46.3399 92.23 49.0299 89.63 49.9299C87.04 50.8299 83.87 49.9299 83.87 49.9299" fill="white"/><path d="M71.86 36.4203L71.64 36.3503C69.38 35.6303 66.89 36.0603 64.92 37.5303L76.65 41.2803C75.89 38.9403 74.12 37.1403 71.86 36.4203Z" fill="#171111"/><path d="M74.93 49.7201C74.93 49.7201 73.54 46.1701 70.95 45.2601C68.36 44.3601 65.32 46.1201 65.32 46.1201C65.32 46.1201 66.57 48.8101 69.17 49.7101C71.76 50.6101 74.93 49.7101 74.93 49.7101" fill="white"/><path d="M70.99 46.3103C70.99 47.5503 69.99 48.5503 68.75 48.5503C67.51 48.5503 66.51 47.5503 66.51 46.3103C66.51 45.0703 67.51 44.0703 68.75 44.0703C69.99 44.0703 70.99 45.0703 70.99 46.3103Z" fill="black"/><path d="M74.93 49.7204C74.19 43.7804 67.72 42.2604 64.63 44.9104C64.85 45.2604 65.1 45.7804 65.32 46.1304C66.11 45.6504 72.38 43.5404 74.93 49.7204Z" fill="black"/><path d="M85.71 61.9196C85.28 60.8196 83.65 61.6196 83.65 61.6196L79.83 63.1096C79.78 62.8796 88.43 69.1996 90.85 58.8096L87.03 60.2996C87.03 60.2996 85.28 60.8096 85.71 61.9196Z" fill="#E73245"/><path d="M119.38 93.4903H68.75C63.26 93.4903 58.81 89.0403 58.81 83.5503V73.2803H99.17C110.33 73.2803 119.38 82.3303 119.38 93.4903Z" fill="#E6E6E6"/><path d="M87.77 92.0698L88.09 91.3998C89.48 88.5498 89.38 85.2498 87.91 82.4898L92.2 68.9098C92.72 67.2498 91.8 65.4798 90.14 64.9598C88.48 64.4298 86.71 65.3498 86.19 67.0098L83.48 75.5798L79.85 69.9998L69.29 54.4998C68.48 53.3098 66.86 52.9998 65.67 53.8098C64.48 54.6098 64.17 56.2298 64.98 57.4198L71.69 67.2698L71.12 66.4898C70.14 65.1398 68.24 64.8598 66.91 65.8698H66.9C65.6 66.8598 65.33 68.6998 66.29 70.0198L66.89 70.8398C65.85 69.9898 64.33 69.9098 63.21 70.7598V70.7798C61.92 71.7498 61.64 73.5598 62.57 74.8798L62.88 75.3098C62.26 75.3098 61.64 75.4998 61.09 75.8898C59.83 76.7798 59.53 78.5198 60.41 79.7798L62.07 82.1398L62.03 82.1698L68.17 91.3898L82.47 122.53L99.9 112.17L87.76 92.0698H87.77Z" fill="#9F5621"/><path d="M86.25 49.2C87.49 49.2 88.49 48.2 88.49 46.96C88.49 46.38 88.27 45.86 87.91 45.46C87.89 45.46 87.87 45.46 87.85 45.48C86.36 46 85.27 47.39 84.61 48.48C85.02 48.92 85.6 49.2 86.25 49.2Z" fill="black"/><path d="M83.87 49.9401C84.61 44.0001 91.08 42.4801 94.17 45.1301C93.95 45.4801 93.7 46.0001 93.48 46.3501C92.69 45.8701 86.55 43.7001 83.87 49.9401Z" fill="black"/></svg>