<?xml version="1.0" encoding="UTF-8"?><svg id="Phone" xmlns="http://www.w3.org/2000/svg" viewBox="0 0 160 160"><defs><style>.cls-1{fill:#e6e3d9;}.cls-2{fill:#e6e4d8;}.cls-3{fill:#e73245;}.cls-4{fill:#4424cf;}.cls-5{fill:#231e47;}.cls-6{fill:none;stroke:#d9cbc4;stroke-miterlimit:10;}.cls-7{fill:#d9cbc4;}</style></defs><rect class="cls-5" x="26.2" y="16" width="62.23" height="128" rx="6.53" ry="6.53"/><rect class="cls-1" x="28.35" y="18.67" width="57.94" height="122.67" rx="4.43" ry="4.43"/><path class="cls-5" d="M42.63,18.61h29.33c0,2.94-2.39,5.33-5.33,5.33h-18.67c-2.94,0-5.33-2.39-5.33-5.33h0Z"/><rect class="cls-2" x="49.32" y="19.12" width="16" height="1.51"/><path class="cls-5" d="M65.43,90.09c.23-.28.54-.46.89-.45h0c.63,0,1.11.48,1.12,1.1v13.05s4.21,0,4.21,0v-15.36h0c0-3.88.28-7.04-1.82-9.88l-1.87-2.5-10.18,15.61c-2.34,3.6-6.75,5.17-10.83,3.95h0l-11.65,5.29c-.53.26-.85.78-.86,1.36h0c0,.83.64,1.53,1.47,1.54h16.96c1.55,0,2.99-.81,3.88-2.08l8.68-11.62Z"/><path class="cls-4" d="M73.58,90.07c.23-.28.54-.46.89-.45h0c.63,0,1.11.48,1.12,1.11l-.05,13.06h4.22l.05-15.36h0c.01-3.88.3-7.04-1.79-9.89l-1.86-2.5-10.23,15.58c-2.35,3.59-6.76,5.15-10.84,3.91h0l-11.66,5.26c-.53.26-.85.77-.86,1.36h0c-.01.83.64,1.64,1.47,1.65h16.96c1.55.01,2.99-.85,3.89-2.13l8.71-11.59Z"/><rect class="cls-5" x="39.63" y="52.28" width="35.38" height="4.25" rx="2.13" ry="2.13"/><rect class="cls-5" x="36.6" y="60.58" width="41.64" height="2.64" rx="1.32" ry="1.32"/><rect class="cls-5" x="36.6" y="122.41" width="41.64" height="1.32" rx=".66" ry=".66"/><rect class="cls-5" x="36.6" y="126.52" width="24.14" height="1.32" rx=".66" ry=".66"/><path class="cls-3" d="M101.55,81.54l-9.18,9.82,3.91,9.08,13.41.11,34.2-14.78-8.13-18.89-34.2,14.67ZM101.23,95.16c-1.06.42-2.32,0-2.85-1.16-.42-1.06,0-2.32,1.16-2.85,1.06-.42,2.32,0,2.85,1.16.42,1.16-.11,2.43-1.16,2.85Z"/><path class="cls-3" d="M75.58,91.67c-1.17.51-1.74,1.11-1.74,1.82,0,2.4,7.18,3.5,13.86,3.5s13.86-1.1,13.86-3.5-7.18-3.5-13.86-3.5c-2.88,0-5.6.2-7.92.57v1.05c2.3-.38,5.02-.59,7.92-.59,8.3,0,12.82,1.63,12.82,2.46s-4.53,2.46-12.82,2.46-12.82-1.63-12.82-2.46c0-.12.16-.37.69-.66v-1.16Z"/><line class="cls-6" x1="34.13" y1="31.25" x2="43.5" y2="31.25"/><line class="cls-6" x1="34.13" y1="34.09" x2="43.5" y2="34.09"/><rect class="cls-7" x="72.64" y="29.61" width="5.93" height="5.93"/></svg>