<svg viewBox="0 0 160 160" fill="none" xmlns="http://www.w3.org/2000/svg"><path fill-rule="evenodd" clip-rule="evenodd" d="M112.666 87.1099C112.666 112.489 92.1296 133.063 66.7966 133.063C41.4646 133.063 20.9286 112.489 20.9286 87.1099C20.9286 61.7307 41.4646 41.1572 66.7966 41.1572C92.1296 41.1572 112.666 61.7307 112.666 87.1099Z" fill="#E6E3DA"/><path fill-rule="evenodd" clip-rule="evenodd" d="M66.797 46.0957C44.223 46.0957 25.857 64.4952 25.857 87.1104C25.857 109.726 44.223 128.125 66.797 128.125C89.371 128.125 107.737 109.726 107.737 87.1104C107.737 64.4952 89.371 46.0957 66.797 46.0957ZM66.797 138C38.787 138 16 115.171 16 87.1104C16 59.0493 38.787 36.2207 66.797 36.2207C94.807 36.2207 117.594 59.0493 117.594 87.1104C117.594 115.171 94.807 138 66.797 138Z" fill="#E73245"/><path fill-rule="evenodd" clip-rule="evenodd" d="M66.797 67.5342C56.022 67.5342 47.256 76.3162 47.256 87.1108C47.256 97.9055 56.022 106.687 66.797 106.687C77.572 106.687 86.338 97.9055 86.338 87.1108C86.338 76.3162 77.572 67.5342 66.797 67.5342ZM66.797 116.562C50.587 116.562 37.399 103.35 37.399 87.1108C37.399 70.8712 50.587 57.6592 66.797 57.6592C83.007 57.6592 96.195 70.8712 96.195 87.1108C96.195 103.35 83.007 116.562 66.797 116.562Z" fill="#E73245"/><path fill-rule="evenodd" clip-rule="evenodd" d="M74.538 87.1106C74.538 91.3934 71.072 94.8657 66.797 94.8657C62.522 94.8657 59.056 91.3934 59.056 87.1106C59.056 82.8278 62.522 79.3555 66.797 79.3555C71.072 79.3555 74.538 82.8278 74.538 87.1106Z" fill="#E73245"/><path fill-rule="evenodd" clip-rule="evenodd" d="M66.7038 89.8559L64.3088 86.617L129.535 38.2139L131.929 41.4528L66.7038 89.8559Z" fill="#232144"/><path d="M125.6 44.1395L127.514 23L109.958 40.903L109.665 55.9651L125.6 44.1395Z" fill="#FF6200"/><path fill-rule="evenodd" clip-rule="evenodd" d="M110.081 55.1583L122.601 60.4259L144 49.7524L125.218 43.9248L110.081 55.1583Z" fill="#FF6200"/></svg>