<?xml version="1.0" encoding="UTF-8"?><svg id="Rollerskates" xmlns="http://www.w3.org/2000/svg" xmlns:xlink="http://www.w3.org/1999/xlink" viewBox="0 0 160 160"><defs><style>.cls-1{fill:#f9e6c9;}.cls-2{fill:#6e5fff;}.cls-3{fill:#ffa600;}.cls-4{clip-path:url(#clippath-1);}.cls-5{fill:#231e47;}.cls-6{clip-path:url(#clippath);}.cls-7{fill:#fd9500;}</style><clipPath id="clippath"><path class="cls-3" d="M81.99,86.68c-.42,1.04-4.4,11.27-1.35,18.21,3.44,7.82,12.85,8.14,17.76,8.62l.07-.1c-.43-.29-.88-.59-1.34-.89,0,0-15.22-8.05-9.43-23.69l-5.7-2.15"/></clipPath><clipPath id="clippath-1"><path class="cls-3" d="M76.1,36.19c.35,1.06,3.72,11.51.26,18.26-3.9,7.6-13.31,7.36-18.24,7.54l-.06-.1c.45-.27.91-.53,1.39-.8,0,0,15.67-7.13,10.82-23.09l5.82-1.81"/></clipPath></defs><path class="cls-5" d="M78.28,16.14c-1.14,4.73-2.28,9.46-3.42,14.18-.68,2.83-1.36,5.65-2.04,8.48-.23.94,1.22,1.34,1.45.4,1.56-6.46,3.12-12.93,4.67-19.39-.3,3.12-.6,6.25-.9,9.37-.27,2.81-.54,5.63-.81,8.44-.09.96,1.41.95,1.5,0,.69-7.16,1.37-14.33,2.06-21.49h-2.51Z"/><path class="cls-5" d="M81.23,16.14c-.04,1.68-.09,3.36-.13,5.04-.26,9.82-.52,19.64-.78,29.46-.22,8.45-.44,16.91-.67,25.36-.07,2.79-.15,5.58-.22,8.37-.03,1.31-.19,2.68-.1,3.99,0,.06,0,.12,0,.18-.03.97,1.47.97,1.5,0,.09-3.39.18-6.77.27-10.16.21-8.09.43-16.17.64-24.26.26-9.82.52-19.64.78-29.46.07-2.84.15-5.68.22-8.52h-1.5Z"/><path class="cls-5" d="M85.36,16.14c-.05,2.07-.1,4.14-.15,6.22l-.69,29.34c-.2,8.46-.4,16.92-.6,25.39-.07,2.81-.13,5.62-.2,8.43-.03,1.29-.18,2.65-.09,3.94,0,.06,0,.12,0,.18-.02.97,1.48.97,1.5,0,.08-3.36.16-6.73.24-10.09.19-8.08.38-16.16.57-24.24.23-9.78.46-19.56.69-29.34.08-3.27.16-6.55.23-9.82h-1.5Z"/><path class="cls-7" d="M87.69,88.83c-5.79,15.65,9.43,23.69,9.43,23.69,7.49,4.83,11.19,8.85,8.21,16.16l-48.67-18.35-1.37-.52,12.61-28.46,19.79,7.48Z"/><rect class="cls-5" x="53.04" y="116.54" width="20.6" height="5.25" rx="2.63" ry="2.63" transform="translate(80.95 252.97) rotate(-159.51)"/><rect class="cls-5" x="82.45" y="127.53" width="20.6" height="5.25" rx="2.63" ry="2.63" transform="translate(134.06 284.55) rotate(-159.51)"/><rect class="cls-5" x="51.45" y="119.01" width="56.8" height="3.58" rx="1.79" ry="1.79" transform="translate(112.37 261.92) rotate(-159.51)"/><circle class="cls-2" cx="90.74" cy="135.54" r="8.49"/><circle class="cls-5" cx="90.74" cy="135.54" r="3.12"/><circle class="cls-2" cx="61.33" cy="124.55" r="8.49"/><circle class="cls-5" cx="61.33" cy="124.55" r="3.12"/><path class="cls-3" d="M81.99,86.68c-.42,1.04-4.4,11.27-1.35,18.21,3.44,7.82,12.85,8.14,17.76,8.62l.07-.1c-.43-.29-.88-.59-1.34-.89,0,0-15.22-8.05-9.43-23.69l-5.7-2.15"/><g class="cls-6"><path class="cls-5" d="M93.13,92.01c-2.49-.93-4.98-1.86-7.47-2.79l-1.06-.4c-.43-.16-.93.18-1.05.59-.13.48.16.88.59,1.05,2.49.93,4.98,1.86,7.47,2.79l1.06.4c.43.16.93-.18,1.05-.59.13-.48-.16-.88-.59-1.05h0Z"/><path class="cls-5" d="M83.02,95.22c2.49.93,4.98,1.86,7.47,2.79l1.06.4c.43.16.93-.18,1.05-.59.13-.48-.16-.88-.59-1.05-2.49-.93-4.98-1.86-7.47-2.79l-1.06-.4c-.43-.16-.93.18-1.05.59-.13.48.16.88.59,1.05h0Z"/><path class="cls-5" d="M83.08,100.06c2.49.93,4.98,1.86,7.47,2.79l1.06.4c.43.16.93-.18,1.05-.59.13-.48-.16-.88-.59-1.05-2.49-.93-4.98-1.86-7.47-2.79l-1.06-.4c-.43-.16-.93.18-1.05.59-.13.48.16.88.59,1.05h0Z"/><path class="cls-5" d="M84.74,105.05c2.49.93,4.98,1.86,7.47,2.79l1.06.4c.43.16.93-.18,1.05-.59.13-.48-.16-.88-.59-1.05-2.49-.93-4.98-1.86-7.47-2.79l-1.06-.4c-.43-.16-.93.18-1.05.59-.13.48.16.88.59,1.05h0Z"/><path class="cls-5" d="M90.49,110.21c2.49.93,4.98,1.86,7.47,2.79l1.06.4c.43.16.93-.18,1.05-.59.13-.48-.16-.88-.59-1.05-2.49-.93-4.98-1.86-7.47-2.79l-1.06-.4c-.43-.16-.93.18-1.05.59-.13.48.16.88.59,1.05h0Z"/></g><ellipse class="cls-1" cx="71.7" cy="87.26" rx="2.03" ry=".58" transform="translate(-35.14 123.88) rotate(-69.51)"/><ellipse class="cls-2" cx="69.97" cy="91.89" rx="2.03" ry=".58" transform="translate(-40.6 125.27) rotate(-69.51)"/><ellipse class="cls-2" cx="73.17" cy="90.43" rx=".58" ry="2.03" transform="translate(-37.16 127.31) rotate(-69.51)"/><ellipse class="cls-1" cx="68.53" cy="88.7" rx=".58" ry="2.03" transform="translate(-38.55 121.85) rotate(-69.51)"/><ellipse class="cls-2" cx="73.01" cy="88.59" rx="2.03" ry=".58" transform="translate(-30.17 38.27) rotate(-24.51)"/><ellipse class="cls-1" cx="68.68" cy="90.57" rx="2.03" ry=".58" transform="translate(-31.38 36.65) rotate(-24.51)"/><ellipse class="cls-1" cx="69.83" cy="87.37" rx=".58" ry="2.03" transform="translate(-29.95 36.84) rotate(-24.51)"/><ellipse class="cls-2" cx="71.84" cy="91.74" rx=".58" ry="2.03" transform="translate(-31.58 38.07) rotate(-24.51)"/><circle class="cls-3" cx="70.84" cy="89.56" r=".87"/><ellipse class="cls-2" cx="74.16" cy="95.51" rx=".4" ry="1.4" transform="translate(-2.21 1.76) rotate(-1.34)"/><ellipse class="cls-2" cx="74.24" cy="98.92" rx=".4" ry="1.4" transform="translate(-2.29 1.76) rotate(-1.34)"/><ellipse class="cls-2" cx="75.91" cy="97.17" rx="1.4" ry=".4" transform="translate(-2.25 1.8) rotate(-1.34)"/><ellipse class="cls-2" cx="72.5" cy="97.25" rx="1.4" ry=".4" transform="translate(-2.25 1.72) rotate(-1.34)"/><ellipse class="cls-2" cx="75.33" cy="96.03" rx="1.4" ry=".4" transform="translate(-46.15 84.23) rotate(-46.34)"/><ellipse class="cls-2" cx="73.07" cy="98.41" rx="1.4" ry=".4" transform="translate(-48.57 83.33) rotate(-46.34)"/><ellipse class="cls-2" cx="72.99" cy="96.06" rx=".4" ry="1.4" transform="translate(-46.9 82.54) rotate(-46.34)"/><ellipse class="cls-2" cx="75.4" cy="98.34" rx=".4" ry="1.4" transform="translate(-47.8 84.99) rotate(-46.34)"/><circle class="cls-3" cx="74.2" cy="97.21" r=".6"/><path class="cls-7" d="M70.28,38c4.85,15.96-10.82,23.09-10.82,23.09-7.76,4.38-11.7,8.17-9.15,15.64l49.68-15.42,1.4-.43-10.89-29.16-20.2,6.28Z"/><rect class="cls-5" x="82.47" y="67.11" width="20.6" height="5.25" rx="2.63" ry="2.63" transform="translate(-16.39 30.31) rotate(-17.08)"/><rect class="cls-5" x="52.46" y="76.32" width="20.6" height="5.25" rx="2.63" ry="2.63" transform="translate(-20.42 21.91) rotate(-17.08)"/><rect class="cls-5" x="47.79" y="68.59" width="56.8" height="3.58" rx="1.79" ry="1.79" transform="translate(-17.31 25.47) rotate(-17.08)"/><circle class="cls-2" cx="64.45" cy="84.44" r="8.49"/><circle class="cls-5" cx="64.45" cy="84.44" r="3.12"/><circle class="cls-2" cx="94.46" cy="75.22" r="8.49"/><circle class="cls-5" cx="94.46" cy="75.22" r="3.12"/><path class="cls-3" d="M76.1,36.19c.35,1.06,3.72,11.51.26,18.26-3.9,7.6-13.31,7.36-18.24,7.54l-.06-.1c.45-.27.91-.53,1.39-.8,0,0,15.67-7.13,10.82-23.09l5.82-1.81"/><g class="cls-4"><path class="cls-5" d="M73.31,38.19c-2.53.78-5.07,1.56-7.6,2.33l-1.11.34c-1.04.32-.6,1.96.45,1.64,2.53-.78,5.07-1.56,7.6-2.33l1.11-.34c1.04-.32.6-1.96-.45-1.64h0Z"/><path class="cls-5" d="M74.15,43l-7.6,2.33-1.11.34c-1.04.32-.6,1.96.45,1.64l7.6-2.33,1.11-.34c1.04-.32.6-1.96-.45-1.64h0Z"/><path class="cls-5" d="M73.8,47.83l-7.6,2.33-1.11.34c-1.04.32-.6,1.96.45,1.64l7.6-2.33,1.11-.34c1.04-.32.6-1.96-.45-1.64h0Z"/><path class="cls-5" d="M71.85,52.71c-2.53.78-5.07,1.56-7.6,2.33l-1.11.34c-1.04.32-.6,1.96.45,1.64,2.53-.78,5.07-1.56,7.6-2.33l1.11-.34c1.04-.32.6-1.96-.45-1.64h0Z"/><path class="cls-5" d="M65.8,57.53c-2.53.78-5.07,1.56-7.6,2.33l-1.11.34c-1.04.32-.6,1.96.45,1.64,2.53-.78,5.07-1.56,7.6-2.33l1.11-.34c1.04-.32.6-1.96-.45-1.64h0Z"/></g><ellipse class="cls-2" cx="86.33" cy="37.38" rx=".58" ry="2.03" transform="translate(-7.17 27) rotate(-17.08)"/><ellipse class="cls-2" cx="87.78" cy="42.11" rx=".58" ry="2.03" transform="translate(-8.5 27.63) rotate(-17.08)"/><ellipse class="cls-2" cx="84.67" cy="40.46" rx="2.03" ry=".58" transform="translate(-8.15 26.65) rotate(-17.08)"/><ellipse class="cls-2" cx="89.4" cy="39.01" rx="2.03" ry=".58" transform="translate(-7.51 27.97) rotate(-17.08)"/><ellipse class="cls-2" cx="84.95" cy="38.63" rx=".58" ry="2.03" transform="translate(11.03 95.59) rotate(-62.08)"/><ellipse class="cls-2" cx="89.15" cy="40.87" rx=".58" ry="2.03" transform="translate(11.29 100.5) rotate(-62.08)"/><ellipse class="cls-2" cx="88.19" cy="37.61" rx="2.03" ry=".58" transform="translate(13.66 97.91) rotate(-62.08)"/><ellipse class="cls-2" cx="85.92" cy="41.85" rx="2.03" ry=".58" transform="translate(8.71 98.16) rotate(-62.08)"/><circle class="cls-3" cx="87.05" cy="39.73" r=".87"/><ellipse class="cls-2" cx="83.38" cy="45.47" rx="1.4" ry=".4" transform="translate(31.16 124.8) rotate(-85.25)"/><ellipse class="cls-2" cx="83.1" cy="48.87" rx="1.4" ry=".4" transform="translate(27.51 127.64) rotate(-85.25)"/><ellipse class="cls-2" cx="81.53" cy="47.02" rx=".4" ry="1.4" transform="translate(27.92 124.38) rotate(-85.25)"/><ellipse class="cls-2" cx="84.93" cy="47.3" rx=".4" ry="1.4" transform="translate(30.75 128.02) rotate(-85.25)"/><ellipse class="cls-2" cx="82.18" cy="45.92" rx=".4" ry="1.4" transform="translate(-10.21 63.96) rotate(-40.25)"/><ellipse class="cls-2" cx="84.3" cy="48.43" rx=".4" ry="1.4" transform="translate(-11.33 65.92) rotate(-40.25)"/><ellipse class="cls-2" cx="84.52" cy="46.09" rx="1.4" ry=".4" transform="translate(-9.77 65.51) rotate(-40.25)"/><ellipse class="cls-2" cx="81.98" cy="48.23" rx="1.4" ry=".4" transform="translate(-11.75 64.38) rotate(-40.25)"/><circle class="cls-3" cx="83.24" cy="47.16" r=".6"/></svg>