<svg viewBox="0 0 160 160" fill="none" xmlns="http://www.w3.org/2000/svg"><path d="M121.06 31.13L77.8357 16.3227C74.6642 15.2362 71.2125 16.9264 70.1261 20.0979L35.5108 121.143C34.4244 124.315 36.1146 127.766 39.286 128.853L82.5101 143.66C85.6815 144.747 89.1332 143.056 90.2197 139.885L124.835 38.8396C125.921 35.6681 124.231 32.2164 121.06 31.13Z" fill="#232144"/><path d="M120.228 33.4662L77.0792 18.6848C74.9266 17.9474 72.5838 19.0946 71.8464 21.2472L37.5746 121.29C36.8372 123.442 37.9845 125.785 40.1371 126.523L83.2854 141.304C85.438 142.041 87.7809 140.894 88.5183 138.742L122.79 38.6991C123.527 36.5465 122.38 34.2037 120.228 33.4662Z" fill="#E6E3DA"/><path d="M85.7541 21.6068L111.543 30.4412C110.655 33.0334 107.835 34.4141 105.243 33.5261L88.8295 27.9033C86.2373 27.0153 84.8566 24.1956 85.7446 21.6035L85.7541 21.6068Z" fill="#232144"/><path d="M105.545 28.8845L91.478 24.0654L91.0243 25.3899L105.092 30.209L105.545 28.8845Z" fill="#E6E3DA"/><path d="M79.4 87.8905C80.6868 87.8905 81.73 86.8473 81.73 85.5605C81.73 84.2736 80.6868 83.2305 79.4 83.2305C78.1132 83.2305 77.07 84.2736 77.07 85.5605C77.07 86.8473 78.1132 87.8905 79.4 87.8905Z" fill="#232144"/><path d="M87.68 62.9697C86.84 62.6597 85.9 63.0897 85.6 63.9397L82.91 71.2797C80.08 71.0097 77.31 72.6597 76.29 75.4497L75.43 77.7997C74.91 79.2097 73.35 79.9397 71.94 79.4197L71.71 79.3297L70.61 82.3397L79.41 85.5597L88.21 88.7797L89.31 85.7697L89.08 85.6797C87.67 85.1597 86.94 83.5997 87.46 82.1897L88.32 79.8397C89.34 77.0497 88.3 73.9997 85.96 72.3797L88.65 65.0397C88.96 64.1997 88.53 63.2597 87.68 62.9597V62.9697Z" fill="#FAA332"/><path d="M64.41 85.65C63.7 82.96 64.02 80.15 65.33 77.73C66.56 75.56 68.5 73.94 70.93 73.04L71.07 73.41C68.73 74.27 66.86 75.83 65.68 77.92C64.42 80.25 64.11 82.95 64.8 85.55L64.42 85.65H64.41Z" fill="#FAA332"/><path d="M60.58 85.9998C59.65 82.4998 60.08 78.8398 61.78 75.6898C63.38 72.8598 65.9 70.7498 69.07 69.5898L69.21 69.9598C66.13 71.0898 63.68 73.1398 62.13 75.8798C60.48 78.9398 60.07 82.4898 60.97 85.8998L60.59 85.9998H60.58Z" fill="#FAA332"/><path d="M87.84 95.6198L87.7 95.2498C90.04 94.3898 91.91 92.8298 93.09 90.7398C94.35 88.4098 94.66 85.7098 93.97 83.1098L94.35 83.0098C95.06 85.6998 94.74 88.5098 93.43 90.9298C92.2 93.0998 90.26 94.7198 87.83 95.6198H87.84Z" fill="#FAA332"/><path d="M89.7 99.0702L89.56 98.7001C92.64 97.5701 95.09 95.5202 96.64 92.7802C98.29 89.7202 98.7 86.1702 97.8 82.7602L98.18 82.6602C99.11 86.1602 98.68 89.8202 96.98 92.9702C95.38 95.8002 92.86 97.9102 89.69 99.0702H89.7Z" fill="#FAA332"/><path d="M38.12 93.2103C35.2 85.9703 35.13 78.0203 37.92 70.8303C40.6 64.3503 45.43 59.1603 51.89 55.8203L52.4 56.8103C46.17 60.0303 41.52 65.0203 38.95 71.2503C36.26 78.1703 36.33 85.8203 39.15 92.8003L38.11 93.2203L38.12 93.2103Z" fill="#FAA332"/><path d="M27.57 95.5296C23.76 86.0996 23.67 75.7496 27.31 66.3896C30.79 57.9596 37.08 51.1996 45.5 46.8496L46.01 47.8396C37.83 52.0696 31.72 58.6296 28.34 66.7996C24.81 75.8896 24.9 85.9396 28.6 95.1096L27.56 95.5296H27.57Z" fill="#FAA332"/><path d="M106.87 112.84L106.36 111.85C112.59 108.63 117.24 103.64 119.81 97.4104C122.5 90.4904 122.43 82.8404 119.61 75.8604L120.65 75.4404C123.57 82.6804 123.64 90.6304 120.85 97.8204C118.17 104.3 113.34 109.49 106.88 112.83L106.87 112.84Z" fill="#FAA332"/><path d="M113.26 121.81L112.75 120.82C120.93 116.59 127.04 110.03 130.42 101.86C133.95 92.7699 133.86 82.7199 130.16 73.5499L131.2 73.1299C135.01 82.5599 135.1 92.9099 131.46 102.27C127.98 110.7 121.69 117.46 113.27 121.81H113.26Z" fill="#FAA332"/></svg>