<?xml version="1.0" encoding="utf-8"?><!--Generator: Adobe Illustrator 27.8.0, SVG Export Plug-In . SVG Version: 6.00 Build 0)--><svg version="1.1" id="Ebene_2" xmlns="http://www.w3.org/2000/svg" xmlns:xlink="http://www.w3.org/1999/xlink" x="0px" y="0px" viewBox="0 0 160 160" style="enable-background:new 0 0 160 160;" xml:space="preserve"><style type="text/css">.st0{fill:#FFC59B;}
	.st1{fill:#FBE4CA;}
	.st2{fill:#232146;}
	.st3{fill:none;stroke:#232146;stroke-width:0.6009;stroke-miterlimit:10;}
	.st4{fill:#7070FF;}
	.st5{fill:#232144;}
	.st6{fill:#ED1E79;}
	.st7{fill:none;stroke:#232144;stroke-width:1.0016;stroke-miterlimit:10;}
	.st8{fill:#F7E5CD;}
	.st9{fill:#232144;stroke:#F7E5CD;stroke-width:1.0016;stroke-miterlimit:10;}
	.st10{fill:none;stroke:#463EC5;stroke-width:1.0016;stroke-miterlimit:10;}</style><circle class="st0" cx="96.3" cy="29.6" r="2"/><circle class="st0" cx="93.4" cy="27.3" r="2"/><circle class="st0" cx="89.9" cy="26.6" r="2"/><circle class="st0" cx="86.8" cy="28.4" r="2"/><circle class="st0" cx="84.9" cy="31.6" r="2"/><circle class="st0" cx="84.2" cy="35.3" r="2"/><circle class="st0" cx="86.1" cy="38.4" r="2"/><circle class="st0" cx="91" cy="34" r="6.8"/><circle class="st0" cx="133.9" cy="42" r="6.8"/><circle class="st0" cx="130.5" cy="36" r="2"/><circle class="st0" cx="134.1" cy="34.9" r="2"/><circle class="st0" cx="137.6" cy="35.5" r="2"/><circle class="st0" cx="139.9" cy="38.3" r="2"/><circle class="st0" cx="140.5" cy="42" r="2"/><circle class="st0" cx="139.8" cy="45.7" r="2"/><circle class="st0" cx="136.9" cy="47.9" r="2"/><polygon class="st1" points="126.4,86.6 124,71.2 132.7,48.6 87.8,43.4 88.7,63.9 84.6,78.8 85.2,110.8 113.6,116.1 "/><circle class="st1" cx="88.3" cy="72.4" r="4.9"/><circle class="st1" cx="123.5" cy="70.3" r="4"/><circle class="st1" cx="128.6" cy="64.5" r="4"/><circle class="st1" cx="131.1" cy="57.5" r="4"/><circle class="st1" cx="131.6" cy="50" r="4"/><circle class="st1" cx="129.8" cy="42.8" r="4"/><circle class="st1" cx="125.7" cy="36.6" r="4"/><circle class="st1" cx="119.8" cy="32" r="4"/><circle class="st1" cx="90.6" cy="64.2" r="4"/><circle class="st1" cx="87.8" cy="56.9" r="4"/><circle class="st1" cx="88" cy="49.5" r="4"/><circle class="st1" cx="90.2" cy="42.3" r="4"/><circle class="st1" cx="94.5" cy="36.2" r="4"/><circle class="st1" cx="100.5" cy="32" r="4"/><circle class="st1" cx="107.7" cy="29.7" r="4"/><circle class="st1" cx="114" cy="29.7" r="4"/><circle class="st1" cx="110.6" cy="50.1" r="19.7"/><circle class="st0" cx="100.7" cy="48.8" r="6.4"/><circle class="st2" cx="103.3" cy="49" r="1.8"/><circle class="st2" cx="118.3" cy="51.8" r="1.8"/><path class="st2" d="M110.4,56.8l2.1-2.5c0.5-0.6,0.2-1.5-0.6-1.6l-3.2-0.6c-0.7-0.1-1.4,0.6-1.1,1.3l1.1,3.1
	C108.9,57.3,109.9,57.4,110.4,56.8z"/><line class="st3" x1="109.6" y1="56.1" x2="108.8" y2="60.8"/><path class="st3" d="M105.8,58.9c0,0,2.9,3.5,6.3,1.2"/><rect x="17.4" y="54.4" class="st4" width="49.2" height="17.3"/><path class="st5" d="M60,64.4h-2.5V53.8c0-6.1-5-11.2-11.2-11.2h-7.4c-6.1,0-11.2,5-11.2,11.2v10.6h-2.5V53.8
	c0-7.5,6.1-13.7,13.7-13.7h7.4c7.5,0,13.7,6.1,13.7,13.7V64.4z"/><rect x="72.6" y="74.1" class="st4" width="71.4" height="61.3"/><path class="st4" d="M130.2,78.2h-2.5v-7.6c0-7.8-6.4-14.2-14.2-14.2h-10.3c-7.8,0-14.2,6.4-14.2,14.2v7.6h-2.5v-7.6
	c0-9.2,7.5-16.7,16.7-16.7h10.3c9.2,0,16.7,7.5,16.7,16.7V78.2z"/><rect x="16" y="64.4" class="st5" width="53.3" height="70.7"/><path class="st5" d="M134.9,88.5h-2.5v-8.7c0-4.9-4-8.9-8.9-8.9h-6.1c-4.9,0-8.9,4-8.9,8.9v8.7h-2.5v-8.7c0-6.3,5.1-11.4,11.4-11.4
	h6.1c6.3,0,11.4,5.1,11.4,11.4V88.5z"/><rect x="101.9" y="85.7" class="st6" width="37.2" height="49.4"/><line class="st7" x1="112.4" y1="91.3" x2="112.4" y2="85.5"/><polygon class="st8" points="115.4,106.2 109.5,106.2 109.5,93 111.6,90.5 113.3,90.5 115.4,93 "/><line class="st9" x1="117.2" y1="91.4" x2="116.2" y2="85.6"/><polygon class="st5" points="122.5,105.6 116.7,106.5 114.5,93.6 116.2,90.8 117.9,90.5 120.4,92.6 "/><line class="st10" x1="55.2" y1="70" x2="55.2" y2="64.2"/><polygon class="st8" points="58.2,84.9 52.2,84.9 52.2,71.8 54.3,69.3 56.1,69.3 58.2,71.8 "/><line class="st9" x1="59.9" y1="70.1" x2="59" y2="64.3"/><polygon class="st4" points="65.3,84.3 59.4,85.3 57.3,72.3 59,69.5 60.7,69.2 63.2,71.3 "/></svg>