<svg viewBox="0 0 160 160" fill="none" xmlns="http://www.w3.org/2000/svg"><path d="M115.76 144L115.34 105.53L135.07 102.68L141.45 144H115.76Z" fill="#A86554"/><path d="M134.21 85.4598L134.22 85.4498L134.21 85.4298V85.4099H134.2L118.8 65.3398L112.33 70.3098L112.81 70.9398L108.69 74.4799L111.63 77.8998C113.68 80.4698 116.65 83.7798 117.49 84.8398C118.8 86.4898 117.05 88.5898 115.14 86.9898C114.22 86.2198 111.68 83.4398 111.68 83.4398L114.06 89.4398L107.7 90.7098L117.16 109.91L135.54 106.82L134.21 85.4598Z" fill="#A86554"/><path d="M125.773 16.006L76.3581 23.4365L81.3797 56.8317L130.795 49.4011L125.773 16.006Z" fill="#891229"/><path d="M130.792 49.3966L81.3766 56.8271L86.3982 90.2223L135.814 82.7918L130.792 49.3966Z" fill="#891229"/><path d="M124.29 18.3544L78.4644 25.2451L83.1737 56.5636L128.999 49.6728L124.29 18.3544Z" fill="#E6E3DA"/><path d="M128.988 49.6659L83.1624 56.5566L87.8717 87.8751L133.697 80.9843L128.988 49.6659Z" fill="#D8CBC5"/><path d="M100.06 74.0903L89.15 75.7303C88.92 75.7603 88.7 75.6103 88.67 75.3803L86.36 59.9803C86.33 59.7503 86.48 59.5403 86.71 59.5003L97.62 57.8603C97.85 57.8303 98.07 57.9803 98.1 58.2103L100.41 73.6103C100.45 73.8403 100.29 74.0503 100.06 74.0903Z" fill="#E6E3DA"/><path d="M125.88 55.2689L100.989 59.0117L101.13 59.9512L126.021 56.2084L125.88 55.2689Z" fill="#222144"/><path d="M126.38 58.5687L101.489 62.3115L101.631 63.251L126.521 59.5082L126.38 58.5687Z" fill="#222144"/><path d="M126.87 61.8695L101.979 65.6123L102.121 66.5518L127.011 62.809L126.87 61.8695Z" fill="#222144"/><path d="M100.606 77.67L89.2926 79.3711L89.4339 80.3105L100.747 78.6094L100.606 77.67Z" fill="#222144"/><path d="M100.05 74.0795L89.14 75.7195C88.9 75.7595 88.68 75.5895 88.64 75.3495L88.1 71.7495L99.88 69.9795L100.42 73.5795C100.46 73.8195 100.29 74.0495 100.05 74.0795Z" fill="#463EC5"/><path d="M89.74 67.8695C90.342 67.8695 90.83 67.3814 90.83 66.7794C90.83 66.1775 90.342 65.6895 89.74 65.6895C89.138 65.6895 88.65 66.1775 88.65 66.7794C88.65 67.3814 89.138 67.8695 89.74 67.8695Z" fill="#BF7461"/><path d="M96.85 66.8001C97.452 66.8001 97.94 66.3121 97.94 65.7101C97.94 65.1081 97.452 64.6201 96.85 64.6201C96.248 64.6201 95.76 65.1081 95.76 65.7101C95.76 66.3121 96.248 66.8001 96.85 66.8001Z" fill="#BF7461"/><path d="M96.86 71.8299L96.23 67.6699L90.9 68.4899L91.52 72.6299C91.68 73.7099 92.69 74.4599 93.78 74.2999L95.19 74.0899C96.28 73.9299 97.03 72.9199 96.86 71.8299Z" fill="#BF7461"/><path d="M97.07 67.0896L96.33 62.1596C96.09 60.5696 94.6 59.4696 93.01 59.7096L91.65 59.9096C90.06 60.1496 88.96 61.6396 89.2 63.2296L89.94 68.1596C90.18 69.7496 91.67 70.8496 93.26 70.6096L94.62 70.4096C96.21 70.1696 97.31 68.6896 97.07 67.0896Z" fill="#BF7461"/><path d="M93.75 64.3397C94.29 63.4397 95.35 63.1197 96.14 63.9297L93.75 64.3397Z" fill="#572B20"/><path d="M92.45 64.4393C91.67 63.7393 90.56 63.7493 90.04 64.7493L92.45 64.4393Z" fill="#572B20"/><path d="M89.9218 65.4606L89.5361 65.5186L89.9448 68.238L90.3305 68.1801L89.9218 65.4606Z" fill="#572B20"/><path d="M96.6704 64.4606L96.2847 64.5186L96.6948 67.2479L97.0805 67.19L96.6704 64.4606Z" fill="#572B20"/><path d="M90.3 70.5394L89.95 68.2194L97.08 67.1494L97.43 69.4794C97.7 71.2894 96.46 72.9794 94.65 73.2494L94.07 73.3394C92.26 73.5894 90.57 72.3494 90.3 70.5394Z" fill="#572B20"/><path d="M94.39 65.4096C94.42 65.6296 94.62 65.7796 94.84 65.7396C95.06 65.7096 95.2 65.5096 95.17 65.2896C95.14 65.0696 94.94 64.9196 94.72 64.9596C94.5 64.9896 94.35 65.1996 94.39 65.4096Z" fill="black"/><path d="M91.79 65.7996C91.82 66.0196 91.67 66.2196 91.46 66.2496C91.24 66.2796 91.04 66.1296 91.01 65.9196C90.98 65.6996 91.13 65.4996 91.34 65.4696C91.55 65.4396 91.76 65.5896 91.79 65.7996Z" fill="black"/><path d="M93.0324 67.59C93.116 67.5362 93.1401 67.4248 93.0863 67.3412C93.0325 67.2577 92.9211 67.2335 92.8375 67.2873C92.7539 67.3411 92.7298 67.4525 92.7836 67.5361C92.8374 67.6197 92.9488 67.6438 93.0324 67.59Z" fill="black"/><path d="M94.0676 67.4299C94.1512 67.3761 94.1753 67.2647 94.1215 67.1811C94.0677 67.0975 93.9563 67.0734 93.8727 67.1272C93.7891 67.181 93.765 67.2924 93.8188 67.376C93.8726 67.4595 93.984 67.4837 94.0676 67.4299Z" fill="black"/><path d="M105.71 75.6999C104.34 73.9099 101.78 73.5799 99.99 74.9499C98.2 76.3199 97.87 78.8799 99.24 80.6699L114.14 100.08L120.61 95.1099L105.71 75.6999Z" fill="#A86554"/><path d="M44.4 144L44.81 105.53L25.09 102.68L18.71 144H44.4Z" fill="#A86554"/><path d="M43.01 109.889L52.47 90.6892L25.95 85.4092L24.63 106.799L43.01 109.889Z" fill="#A86554"/><path d="M63.02 59.6599C62.06 57.6199 59.63 56.7499 57.59 57.7099L41.38 65.3499L41.36 65.3399L41.34 65.3699L41.31 65.3799L41.32 65.3999L25.93 85.4499L32.4 90.4199L34.4 87.8099L44.18 94.2599L48.48 83.4399C48.48 83.4399 45.94 86.2199 45.02 86.9899C43.11 88.5899 41.35 86.4899 42.67 84.8399C43.51 83.7799 46.48 80.4699 48.53 77.8999C45.68 79.4499 46.78 76.1199 46.93 74.9899L46.6 71.9099L61.06 65.0899C63.11 64.1299 63.98 61.6999 63.02 59.6599Z" fill="#A86554"/><path d="M65.23 92.8996L25.72 78.2296C24.92 77.9296 24.51 77.0396 24.81 76.2396L33.97 51.5396C34.27 50.7396 35.16 50.3296 35.96 50.6296L75.47 65.2996C76.27 65.5996 76.68 66.4896 76.38 67.2896L67.22 91.9896C66.92 92.7896 66.03 93.1996 65.23 92.8996Z" fill="#D8CBC5"/><path d="M42.12 75.2796L30.06 70.7996C29.81 70.7096 29.68 70.4196 29.77 70.1696L36.08 53.1496C36.17 52.8996 36.46 52.7696 36.71 52.8596L48.77 57.3396C49.02 57.4296 49.15 57.7196 49.06 57.9696L42.75 74.9896C42.66 75.2396 42.38 75.3696 42.12 75.2796Z" fill="#E6E3DA"/><path d="M42.13 75.2697L30.05 70.7997C29.8 70.7097 29.68 70.4297 29.77 70.1897L31.26 66.1797L44.27 70.9997L42.79 74.9797C42.69 75.2297 42.39 75.3697 42.13 75.2697Z" fill="#463EC5"/><path d="M35.72 63.2793C36.4214 63.2793 36.99 62.7107 36.99 62.0093C36.99 61.3079 36.4214 60.7393 35.72 60.7393C35.0186 60.7393 34.45 61.3079 34.45 62.0093C34.45 62.7107 35.0186 63.2793 35.72 63.2793Z" fill="#BF7461"/><path d="M43.57 66.1894C44.2714 66.1894 44.84 65.6208 44.84 64.9194C44.84 64.218 44.2714 63.6494 43.57 63.6494C42.8686 63.6494 42.3 64.218 42.3 64.9194C42.3 65.6208 42.8686 66.1894 43.57 66.1894Z" fill="#BF7461"/><path d="M40.14 71.1799L41.85 66.5799L35.95 64.4199L34.25 68.9999C33.81 70.1999 34.42 71.5299 35.61 71.9699L37.17 72.5499C38.36 72.9799 39.69 72.3699 40.14 71.1799Z" fill="#BF7461"/><path d="M43.02 66.4596L45.04 61.0096C45.69 59.2496 44.8 57.2896 43.04 56.6396L41.53 56.0796C39.77 55.4296 37.81 56.3196 37.16 58.0896L35.14 63.5396C34.49 65.2996 35.38 67.2596 37.14 67.9096L38.65 68.4696C40.41 69.1196 42.36 68.2196 43.02 66.4596Z" fill="#BF7461"/><path d="M41.17 61.7796C42.23 61.1596 43.49 61.4396 43.85 62.7096L41.17 61.7796Z" fill="#572B20"/><path d="M39.8 61.1495C39.4 59.9895 38.26 59.3795 37.17 60.1095L39.8 61.1495Z" fill="#572B20"/><path d="M44.1 63.5496L43.67 63.3896L42.57 66.3496L35.54 63.7396L36.65 60.7596L36.22 60.5996L35.11 63.5796L34.16 66.1496C33.42 68.1496 34.44 70.3696 36.44 71.1096L37.08 71.3496C39.08 72.0896 41.3 71.0696 42.05 69.0696L42.98 66.5596L44.1 63.5496Z" fill="#572B20"/><path d="M41.22 63.2296C41.13 63.4696 41.25 63.7296 41.49 63.8196C41.73 63.9096 41.99 63.7896 42.08 63.5496C42.17 63.3096 42.05 63.0496 41.81 62.9596C41.58 62.8696 41.31 62.9896 41.22 63.2296Z" fill="black"/><path d="M38.35 62.1599C38.26 62.3999 38 62.5199 37.76 62.4299C37.52 62.3399 37.4 62.0799 37.49 61.8399C37.58 61.5999 37.84 61.4799 38.08 61.5699C38.32 61.6599 38.44 61.9199 38.35 62.1599Z" fill="black"/><path d="M38.63 64.48C38.7625 64.48 38.87 64.3725 38.87 64.24C38.87 64.1074 38.7625 64 38.63 64C38.4974 64 38.39 64.1074 38.39 64.24C38.39 64.3725 38.4974 64.48 38.63 64.48Z" fill="black"/><path d="M39.88 65.02C40.0125 65.02 40.12 64.9126 40.12 64.78C40.12 64.6475 40.0125 64.54 39.88 64.54C39.7474 64.54 39.64 64.6475 39.64 64.78C39.64 64.9126 39.7474 65.02 39.88 65.02Z" fill="black"/><path d="M71.9966 68.6395L55.3466 62.459L55.0265 63.3215L71.6765 69.502L71.9966 68.6395Z" fill="#222144"/><path d="M70.6267 72.3172L53.9767 66.1367L53.6565 66.9992L70.3065 73.1797L70.6267 72.3172Z" fill="#222144"/><path d="M69.2659 75.9988L52.6159 69.8184L52.2957 70.6809L68.9457 76.8613L69.2659 75.9988Z" fill="#222144"/><path d="M67.9087 79.6707L51.2587 73.4902L50.9386 74.3527L67.5886 80.5332L67.9087 79.6707Z" fill="#222144"/><path d="M57.5518 83.3954L48.7861 80.1416L48.466 81.0041L57.2316 84.2579L57.5518 83.3954Z" fill="#222144"/><path d="M60.05 74.86C58.2 73.44 55.54 73.79 54.12 75.64L41.88 91.58C40.46 93.43 40.81 96.09 42.66 97.51C44.51 98.93 47.17 98.58 48.59 96.73L60.82 80.79C62.25 78.93 61.9 76.28 60.05 74.86Z" fill="#A86554"/></svg>