<?xml version="1.0" encoding="utf-8"?><!--Generator: Adobe Illustrator 27.8.0, SVG Export Plug-In . SVG Version: 6.00 Build 0)--><svg version="1.1" id="Ebene_1" xmlns="http://www.w3.org/2000/svg" xmlns:xlink="http://www.w3.org/1999/xlink" x="0px" y="0px" viewBox="0 0 160 160" style="enable-background:new 0 0 160 160;" xml:space="preserve"><style type="text/css">.st0{fill:#463EC5;}
	.st1{fill:#7070FF;}
	.st2{fill:#B0C2E4;}
	.st3{fill:#D0DEF2;}
	.st4{fill:none;stroke:#8DA8DC;stroke-width:0.8528;stroke-miterlimit:10;}
	.st5{fill:#8DA8DC;}
	.st6{fill:#B3892F;}
	.st7{fill:#D0A349;}
	.st8{fill:#FAC96E;}
	.st9{fill:none;stroke:#A8A8A8;stroke-width:1.2138;stroke-miterlimit:10;}</style><rect x="27.7" y="117.4" class="st0" width="52.2" height="11.3"/><path class="st1" d="M80.2,118.1H28.1V94.9c0-3,2.5-5.5,5.5-5.5h41.1c3,0,5.5,2.5,5.5,5.5V118.1z"/><rect x="79.3" y="117.4" class="st0" width="52.4" height="11.3"/><path class="st1" d="M131.8,118.1h-53V94.9c0-3,2.5-5.5,5.6-5.5h41.8c3,0,5.6,2.5,5.6,5.5v23.2H131.8z"/><rect x="16.1" y="128.2" class="st2" width="128" height="11.7"/><rect x="16" y="102.1" class="st2" width="12.1" height="41.9"/><rect x="131.7" y="102.1" class="st2" width="12.3" height="41.9"/><rect x="64.9" y="22.7" class="st2" width="65.5" height="44.7"/><circle class="st3" cx="88.2" cy="39" r="10.6"/><line class="st4" x1="73.6" y1="58.7" x2="103.9" y2="32.4"/><polygon class="st5" points="96.1,55.1 114.1,37.1 120.7,61.9 "/><path class="st6" d="M70.7,118.1H51.1c-3,0-5.4-2.4-5.4-5.4v-8.4c0-3,2.4-5.4,5.4-5.4h19.6c3,0,5.4,2.4,5.4,5.4v8.4
	C76.1,115.7,73.7,118.1,70.7,118.1z"/><path class="st7" d="M53.8,118.1H36.6c-2.1,0-3.9-1.7-3.9-3.9v-4.3c0-2.1,1.7-3.9,3.9-3.9h17.2c2.1,0,3.9,1.7,3.9,3.9v4.3
	C57.7,116.4,55.9,118.1,53.8,118.1z"/><line class="st9" x1="42.4" y1="16" x2="42.4" y2="67.1"/><path class="st8" d="M50.4,74.7c0-0.2,0-0.4,0-0.6c0-4.3-3.5-7.8-7.8-7.8s-7.8,3.5-7.8,7.8c0,0.2,0,0.4,0,0.6H50.4z"/></svg>