<svg viewBox="0 0 160 160" fill="none" xmlns="http://www.w3.org/2000/svg"><path d="M75.18 31.3801C78.57 32.8201 81.52 34.8901 83.82 37.4301C88.38 32.6701 95.3 29.6401 103.04 29.6401C116.77 29.6401 127.9 39.1701 127.9 50.9401C127.9 58.6101 123.17 65.3301 116.07 69.0801V130.24H51.13V68.6201C48.22 67.0801 45.7 65.0401 43.75 62.6401L45.77 61.0701C51.34 59.1301 55.98 55.1701 56.38 48.9401C56.5 47.1001 56.27 45.3101 55.76 43.6401C56.95 44.0401 58.21 44.2901 59.52 44.3801C66.72 44.8401 72.45 40.4501 74.17 33.7401L75.18 31.3801Z" fill="#FFB00A"/><path d="M118.62 132.8H48.58V70.1101C45.8 68.4601 43.5 66.4701 41.74 64.2001L45.78 61.0601C47.36 63.0901 49.62 64.9201 52.34 66.3501L53.7 67.0701V127.67H113.52V67.5301L114.88 66.8101C121.43 63.3501 125.34 57.4101 125.34 50.9301C125.34 40.6001 115.34 32.1901 103.04 32.1901C96.26 32.1901 89.93 34.7401 85.67 39.1901L83.77 41.1701L81.93 39.1401C79.88 36.8801 77.2 35.0101 74.19 33.7301L76.19 29.0201C79.04 30.2301 81.66 31.8801 83.88 33.8701C88.98 29.5301 95.83 27.0801 103.05 27.0801C118.17 27.0801 130.47 37.7801 130.47 50.9301C130.47 58.8701 126.08 66.1001 118.64 70.5601V132.8H118.62Z" fill="#FD9300"/><path d="M122.15 70.0199C119.37 72.1799 117.59 75.5499 116.78 78.9299C116.53 79.9799 116.34 81.0499 116.26 82.1299C116.22 82.6899 116.67 83.2699 117.26 83.2899C117.85 83.3099 118.37 82.8999 118.42 82.2899C118.46 81.8499 118.5 81.3999 118.57 80.9699C118.6 80.7699 118.63 80.5799 118.67 80.3899C118.69 80.2799 118.71 80.1699 118.73 80.0599C118.74 80.0099 118.75 79.9599 118.76 79.9199C118.78 79.8399 118.77 79.8699 118.74 80.0199C118.75 79.9799 118.76 79.9499 118.76 79.9099C118.95 79.0799 119.19 78.2599 119.49 77.4599C119.64 77.0699 119.8 76.6799 119.98 76.2999C120.02 76.1999 120.07 76.1099 120.12 76.0099C120.15 75.9599 120.22 75.7499 120.26 75.7199C120.25 75.7299 120.13 75.9599 120.23 75.7799C120.25 75.7399 120.27 75.6999 120.3 75.6599C120.36 75.5599 120.41 75.4499 120.47 75.3499C120.87 74.6499 121.32 73.9799 121.82 73.3499C121.89 73.2599 121.96 73.1799 122.04 73.0899C122.07 73.0599 122.1 73.0199 122.13 72.9899C122.19 72.9199 122.33 72.8299 122.12 72.9999C122.29 72.8699 122.43 72.6699 122.58 72.5199C122.89 72.2199 123.22 71.9299 123.56 71.6599C124.01 71.3099 124.06 70.5499 123.68 70.1299C123.26 69.6899 122.63 69.6499 122.15 70.0199Z" fill="#9D5020"/><path d="M118.37 126.65C113.94 126.65 109.7 126.21 106.14 125.11C110.16 120.49 112.39 112.68 112.39 104.39C112.39 96.1502 110.17 88.8802 106.17 84.2602C109.74 83.2602 113.99 82.7002 118.32 82.7002H118.46C122.8 82.7002 127.05 83.2602 130.61 84.2602C126.61 88.8802 123.91 96.0302 123.91 104.27C123.91 112.56 126.62 120.49 130.64 125.11C127.07 126.21 122.86 126.65 118.37 126.65Z" fill="#F6E2C8"/><path d="M133.79 76.3001C133.62 76.2301 133.37 76.1501 133.03 76.0601C132.45 75.8901 131.86 75.7501 131.26 75.6401C115.13 72.0201 103.11 76.1601 103.11 76.1601L103.08 76.1801C97.56 77.9701 93.5 82.0901 92.76 87.0301C94.53 86.1401 96.58 85.6301 98.75 85.6401C102.79 85.6501 106.36 87.4401 108.58 90.1701C110.81 87.4501 114.4 85.7001 118.44 85.7101C122.48 85.7201 126.05 87.5101 128.27 90.2401C130.5 87.5201 134.09 85.7701 138.13 85.7801C140.28 85.7901 142.26 86.3401 144.01 87.2201C143.3 82.2701 139.29 78.1301 133.79 76.3001Z" fill="#006B2D"/><path d="M136.4 120.31C136.73 126.61 133.02 130.24 129.14 131.5L129.12 131.51C129.12 131.51 120.68 134.42 109.36 131.88C108.94 131.8 108.52 131.7 108.12 131.58C107.88 131.52 107.71 131.46 107.59 131.41C103.73 130.12 99.94 125.74 100.41 120.18C102.43 122.68 105.7 124.31 109.4 124.32C113.09 124.33 116.37 122.73 118.42 120.24C120.44 122.74 123.71 124.37 127.41 124.38C131.07 124.4 134.35 122.79 136.4 120.31Z" fill="#006B2D"/><path d="M97.22 80.3099C98.48 79.8699 99.75 79.4399 101.01 78.9999C101.25 78.9199 101.5 78.8299 101.74 78.7499C102.29 78.5599 102.77 78.1999 102.98 77.6399C103.21 77.0399 103.16 76.4199 102.83 75.8599C102.79 75.7999 102.75 75.7399 102.72 75.6899C102.52 75.3999 102.33 75.1099 102.13 74.8199C101.87 74.4299 101.61 74.0499 101.34 73.6599C101.16 73.3899 100.97 73.1299 100.82 72.8499C100.86 72.9399 100.91 73.0299 100.95 73.1199C100.8 72.8199 100.69 72.5099 100.62 72.1799C100.64 72.2799 100.66 72.3699 100.68 72.4699C100.62 72.1499 100.6 71.8299 100.62 71.4999C100.61 71.5999 100.61 71.6899 100.6 71.7899C100.62 71.5699 100.65 71.3399 100.7 71.1299C100.72 71.0699 100.73 71.0099 100.75 70.9499C100.8 70.7799 100.65 71.2199 100.72 71.0399C100.76 70.9399 100.8 70.8299 100.85 70.7299C100.9 70.6299 100.95 70.5299 101.01 70.4299C101.05 70.3599 101.17 70.2199 100.96 70.5099C101 70.4599 101.03 70.3999 101.07 70.3499C101.21 70.1699 101.36 69.9999 101.53 69.8499C101.46 69.9099 101.39 69.9799 101.32 70.0399C101.55 69.8399 101.79 69.6699 102.06 69.5299C101.97 69.5699 101.88 69.6199 101.79 69.6599C102.09 69.5099 102.4 69.3999 102.73 69.3299C102.63 69.3499 102.54 69.3699 102.44 69.3899C102.76 69.3299 103.08 69.3099 103.41 69.3299C103.31 69.3199 103.22 69.3199 103.12 69.3099C103.35 69.3299 103.57 69.3599 103.79 69.4199C103.85 69.4299 103.9 69.4499 103.96 69.4699C104.09 69.5099 103.71 69.3799 103.89 69.4499C104 69.4899 104.1 69.5399 104.21 69.5899C104.3 69.6399 104.39 69.6899 104.48 69.7399C104.64 69.8399 104.46 69.7099 104.41 69.6899C104.46 69.7099 104.51 69.7599 104.55 69.7899C104.73 69.9299 104.89 70.0799 105.04 70.2499C104.98 70.1799 104.91 70.1099 104.85 70.0399C105.08 70.2899 105.26 70.5699 105.42 70.8699C105.38 70.7799 105.33 70.6899 105.29 70.5999C105.44 70.9099 105.55 71.2299 105.62 71.5699C105.6 71.4699 105.58 71.3799 105.56 71.2799C105.71 72.0399 105.84 72.7999 105.98 73.5699C106.05 73.9399 106.12 74.3099 106.18 74.6799C106.24 75.0099 106.31 75.2999 106.49 75.5899C106.86 76.1599 107.52 76.4699 108.19 76.4599C108.49 76.4499 108.77 76.3399 109.05 76.2399C109.39 76.1199 109.73 75.9999 110.07 75.8899C111.03 75.5599 111.99 75.2299 112.95 74.8999C113.58 74.6799 114.2 74.4699 114.83 74.2499C115.38 74.0599 115.74 73.3999 115.52 72.8399C115.3 72.2799 114.7 71.9499 114.11 72.1499C113.41 72.3899 112.71 72.6299 112.02 72.8699C110.92 73.2499 109.83 73.6299 108.73 74.0099C108.46 74.0999 108.19 74.2199 107.91 74.2899C108.01 74.2699 108.1 74.2499 108.2 74.2299C108.12 74.2399 108.04 74.2499 107.96 74.2399C108.06 74.2499 108.15 74.2499 108.25 74.2599C108.24 74.2599 108.11 74.2399 108.11 74.2299C108.12 74.1999 108.4 74.3699 108.23 74.2599C108.14 74.1999 108.46 74.4499 108.33 74.3299C108.3 74.2999 108.26 74.2699 108.23 74.2299C108.29 74.2999 108.36 74.3699 108.42 74.4399C108.38 74.3899 108.34 74.3399 108.31 74.2799C108.35 74.3699 108.4 74.4599 108.44 74.5499C108.4 74.4699 108.38 74.3999 108.36 74.3199C108.38 74.4199 108.4 74.5099 108.42 74.6099C108.25 73.6799 108.08 72.7499 107.91 71.8199C107.81 71.2999 107.74 70.7599 107.56 70.2599C107.15 69.1299 106.33 68.1799 105.27 67.6299C104.15 67.0499 102.8 66.9699 101.6 67.3499C100.52 67.6999 99.66 68.4399 99.07 69.3899C98.09 70.9799 98.26 73.0599 99.29 74.5799C99.84 75.3899 100.4 76.2099 100.95 77.0199C100.98 77.0699 101.01 77.1099 101.04 77.1699C101 77.0799 100.95 76.9899 100.91 76.8999C100.94 76.9599 100.96 77.0199 100.98 77.0899C100.96 76.9899 100.94 76.8999 100.92 76.7999C100.94 76.8799 100.94 76.9599 100.94 77.0399C100.95 76.9399 100.95 76.8499 100.96 76.7499C100.96 76.7599 100.94 76.8899 100.94 76.8899C100.91 76.8899 101.08 76.5999 100.97 76.7799C100.91 76.8699 101.16 76.5499 101.03 76.6799C101 76.7099 100.96 76.7499 100.93 76.7899C101 76.7299 101.07 76.6599 101.14 76.5999C101.09 76.6399 101.03 76.6799 100.97 76.7099C101.06 76.6699 101.15 76.6199 101.24 76.5799C101.07 76.6599 100.89 76.7099 100.72 76.7699C100.35 76.8999 99.98 77.0199 99.61 77.1499C98.77 77.4399 97.93 77.7299 97.09 78.0199C96.9 78.0899 96.7 78.1499 96.51 78.2199C95.96 78.4099 95.6 79.0699 95.82 79.6299C96.03 80.1799 96.64 80.5099 97.22 80.3099Z" fill="#231F46"/><path d="M56.58 105.23C56.57 102.87 56.04 100.48 54.75 98.4802C53.54 96.5902 51.75 95.1902 49.67 94.3602C45.96 92.8902 41.51 93.2002 38.36 95.7702C35.39 98.2002 34.22 102.22 34.17 105.93C34.16 106.77 34.07 107.61 33.95 108.36C33.73 109.66 33.39 110.97 32.84 112.17C32.2 113.6 31.3 114.91 30.1 115.94C28.7 117.14 26.94 117.83 25.12 118.1C24.55 118.19 23.98 118.22 23.41 118.24C22.79 118.25 22.79 119.22 23.41 119.21C25.45 119.16 27.51 118.73 29.29 117.69C30.73 116.85 31.92 115.66 32.81 114.26C34.21 112.07 34.89 109.46 35.09 106.89C35.14 106.31 35.12 105.73 35.16 105.14C35.32 102.74 35.93 100.31 37.31 98.3102C39.48 95.1702 43.33 93.9502 47 94.6002C49.18 94.9802 51.25 95.9302 52.8 97.5402C54.33 99.1302 55.2 101.23 55.49 103.39C55.57 103.99 55.6 104.6 55.6 105.2C55.62 105.85 56.59 105.85 56.58 105.23Z" fill="#231F46"/><path d="M24.49 115.41H15.99V122.42H24.49V115.41Z" fill="#FF6200"/><path d="M61.44 97.4702H48.36C47.17 97.4702 46.06 98.0902 45.44 99.1102L42.11 104.55C41.78 105.09 41.61 105.71 41.61 106.34V132.76H68.16V106.33C68.16 105.7 67.99 105.09 67.66 104.55L64.38 99.1202C63.76 98.0902 62.64 97.4702 61.44 97.4702Z" fill="#F6E2C8"/><path d="M68.18 117.38H41.6V132.75H68.18V117.38Z" fill="#9D5020"/><path d="M52.49 101.43C53.88 101.43 55.27 101.43 56.66 101.43C56.86 101.43 57.06 101.43 57.26 101.43C57.53 101.43 57.79 101.08 57.78 100.66C57.77 100.24 57.55 99.8901 57.26 99.8901C55.87 99.8901 54.48 99.8901 53.09 99.8901C52.89 99.8901 52.69 99.8901 52.49 99.8901C52.22 99.8901 51.96 100.24 51.97 100.66C51.98 101.08 52.2 101.43 52.49 101.43Z" fill="#9D5020"/></svg>