<?xml version="1.0" encoding="utf-8"?><!--Generator: Adobe Illustrator 28.0.0, SVG Export Plug-In . SVG Version: 6.00 Build 0)--><svg version="1.1" xmlns="http://www.w3.org/2000/svg" xmlns:xlink="http://www.w3.org/1999/xlink" x="0px" y="0px" viewBox="0 0 160 160" style="enable-background:new 0 0 160 160;" xml:space="preserve"><style type="text/css">.st0{fill:#FFC6AD;}
	.st1{fill:#F7931E;}
	.st2{fill:#FBB03B;}
	.st3{fill:#232144;}
	.st4{fill:#D8CBC5;}
	.st5{fill:#4B7CFE;}
	.st6{fill:#463EC5;}
	.st7{fill:#E5F0FF;}
	.st8{fill:none;stroke:#232144;stroke-width:1.5424;stroke-miterlimit:10;}</style><g id="Design"><g><polygon class="st0" points="53.5,29.3 64.2,44.3 79.1,26.3 63.3,16.6 		"/><path class="st0" d="M74.3,61.5L74.3,61.5c1.6,1,3.8,0.5,4.9-1.1l8.3-13.2l-6-3.7l-8.3,13.2C72.2,58.3,72.6,60.4,74.3,61.5"/><path class="st0" d="M81.8,64.5L81.8,64.5c1.9,0.3,3.7-1.1,4-3l2-15.4l-7-0.9l-2,15.4C78.5,62.5,79.9,64.3,81.8,64.5"/><polygon class="st0" points="79.1,26.3 72.6,29.2 81.4,49 87.8,46.1 		"/><rect x="72.8" y="27.8" transform="matrix(0.9174 -0.3979 0.3979 0.9174 -9.1143 33.5559)" class="st0" width="7" height="21.9"/><path class="st0" d="M71.2,44.5c0,0-1.1-2.8-1.5-4.1c-0.6-2.1,2.1-2.7,2.8-1c0.5,1.1,3.3,7.3,3.3,7.3l1.1-16.8l-12.3,7L71.2,44.5z
			"/><path class="st1" d="M63.4,56c-5.6,6-5.4,15.3,0.6,21c5.9,5.6,15.3,5.4,21-0.6c5.6-6,5.4-15.3-0.6-21C78.4,49.8,69,50.1,63.4,56"/><path class="st2" d="M65.6,58.1c-4.5,4.7-4.3,12.2,0.4,16.7c4.7,4.5,12.2,4.3,16.7-0.5c4.5-4.7,4.3-12.2-0.4-16.7
			S70.1,53.4,65.6,58.1"/><path class="st0" d="M73,58.1c-1.9,0.8-4.8,0.1-5.6-1.8l-8.2-19.6l7.8-2.7L75,53C75.8,54.8,74.9,57.3,73,58.1L73,58.1z"/><polygon class="st0" points="26.3,16.1 56,32.4 66.3,18.6 62.9,16.1 		"/></g><rect x="102.9" y="64.9" class="st3" width="10.2" height="25"/><path class="st4" d="M67.4,112.2c0-6.1-3.1-11.4-7.7-14.6c1.4-2,2.2-4.4,2.2-7c0-6.7-5.4-12.2-12.2-12.2s-12.2,5.4-12.2,12.2
		c0,2.6,0.8,5,2.2,7c-4.7,3.2-7.7,8.6-7.7,14.6c0,9.1,6.9,16.7,15.8,17.6h3.8C60.5,128.9,67.4,121.4,67.4,112.2z"/><polygon class="st5" points="48.8,102 89.7,59.2 130.7,102 	"/><polygon class="st3" points="56.3,143.9 56.3,102.3 89.7,66.5 123.1,102.3 123.1,143.9 	"/><rect x="104.3" y="120.1" class="st6" width="12.3" height="23.8"/><rect x="67.9" y="123.6" class="st7" width="27.1" height="10.5"/><rect x="92.6" y="98.6" class="st7" width="13.8" height="14.7"/><rect x="68.2" y="98.3" class="st7" width="13.8" height="14.7"/><line class="st8" x1="107.3" y1="118.2" x2="107.3" y2="143.8"/><rect x="48.9" y="104.1" class="st4" width="1.6" height="39.9"/></g><g id="stramien"/></svg>