<?xml version="1.0" encoding="utf-8"?><!--Generator: Adobe Illustrator 28.0.0, SVG Export Plug-In . SVG Version: 6.00 Build 0)--><svg version="1.1" xmlns="http://www.w3.org/2000/svg" xmlns:xlink="http://www.w3.org/1999/xlink" x="0px" y="0px" viewBox="0 0 160 160" style="enable-background:new 0 0 160 160;" xml:space="preserve"><style type="text/css">.st0{fill:#891229;}
	.st1{fill:#E6E3DA;}
	.st2{fill:#232144;}
	.st3{fill:#E73245;}
	.st4{fill:#FFFFFF;}</style><g id="Design"><rect x="71" y="16" class="st0" width="18" height="128.1"/><rect x="22.8" y="24.3" class="st1" width="114.4" height="71.2"/><rect x="34" y="50.2" class="st2" width="92" height="17.6"/><polygon class="st3" points="137.2,24.3 108.2,24.3 22.8,73.5 22.8,95.5 56.6,95.5 137.2,49 	"/><g><path class="st4" d="M50.3,78.3c0.7,0.7,1.4,1.3,1.9,1.8c0.6,0.5,1.1,1,1.5,1.5c-0.2-0.6-0.3-1.3-0.5-2c-0.2-0.7-0.4-1.6-0.6-2.6
			l-1-4.2c-0.1-0.2,0-0.3,0.2-0.5l1.1-0.6c0.2-0.1,0.3,0,0.3,0.2l2.3,10.5c0,0.1,0,0.2,0,0.3c0,0.1-0.1,0.1-0.2,0.2l-1.2,0.7
			c-0.1,0.1-0.2,0.1-0.3,0.1c-0.1,0-0.1,0-0.2-0.1l-8.1-7.1c-0.1-0.1-0.1-0.1-0.1-0.2c0-0.1,0-0.1,0.1-0.2l1.2-0.7
			c0.2-0.1,0.4-0.1,0.5,0L50.3,78.3z"/><path class="st4" d="M60,80c-0.2,0.1-0.3,0.1-0.4-0.1l-5.2-8.8c-0.1-0.2-0.1-0.3,0.1-0.4l5-2.9c0.2-0.1,0.3-0.1,0.4,0.1l0.5,0.8
			c0.1,0.2,0.1,0.3-0.1,0.4l-3.6,2.1l1.5,2.6l3.1-1.8c0.2-0.1,0.3-0.1,0.4,0.1l0.5,0.8c0.1,0.2,0.1,0.3-0.1,0.4L59,75.2l1.6,2.7
			l3.7-2.2c0.2-0.1,0.3-0.1,0.4,0.1l0.5,0.8c0.1,0.2,0.1,0.3-0.1,0.4L60,80z"/><path class="st4" d="M67.8,70.9c-0.2-0.1-0.3-0.1-0.4-0.1c-0.1,0-0.2,0.1-0.4,0.2l-0.6,0.4l2,3.4c0.1,0.2,0.1,0.3-0.1,0.4
			l-1.1,0.7c-0.2,0.1-0.3,0.1-0.4-0.1l-5.2-8.8c-0.1-0.2-0.1-0.3,0.1-0.4l2.1-1.2c0.7-0.4,1.3-0.7,1.9-0.8c0.6-0.1,1.1-0.1,1.6,0
			c0.7,0.2,1.2,0.7,1.7,1.5c0.4,0.6,0.5,1.2,0.5,1.9c0,0.6-0.2,1.2-0.7,1.8l4.3,2.3c0.1,0.1,0.2,0.1,0.2,0.2s0,0.2-0.2,0.2L72,72.9
			c-0.1,0.1-0.2,0.1-0.3,0.1c-0.1,0-0.2,0-0.3-0.1L67.8,70.9z M63.9,67l1.8,3l0.8-0.5c0.6-0.4,1-0.8,1.1-1.2c0.1-0.5,0-0.9-0.3-1.5
			c-0.1-0.2-0.3-0.4-0.4-0.5c-0.2-0.1-0.3-0.2-0.5-0.3c-0.3-0.1-0.6-0.1-0.8,0c-0.3,0.1-0.6,0.2-0.9,0.4L63.9,67z"/><path class="st4" d="M75,71.2c-0.2,0.1-0.3,0.1-0.4-0.1l-5.2-8.8c-0.1-0.2-0.1-0.3,0.1-0.4l1.1-0.7c0.2-0.1,0.3-0.1,0.4,0.1
			l2.2,3.7l0.4-0.2c0.1-0.1,0.2-0.2,0.3-0.2c0-0.1,0.1-0.2,0.1-0.4l0.4-4.8c0-0.1,0-0.2,0.1-0.3c0-0.1,0.1-0.1,0.2-0.2l1.1-0.6
			c0.1-0.1,0.2-0.1,0.2,0s0.1,0.1,0.1,0.2l-0.5,5.9l5.8,2.7c0.1,0.1,0.2,0.1,0.2,0.2c0,0.1,0,0.1-0.1,0.2l-1.2,0.7
			c-0.1,0.1-0.2,0.1-0.3,0.1c-0.1,0-0.2,0-0.3-0.1l-4.3-2.1c-0.2-0.1-0.3-0.1-0.4-0.1c-0.1,0-0.2,0-0.4,0.1L74,66.4l2.2,3.8
			c0.1,0.2,0.1,0.3-0.1,0.4L75,71.2z"/><path class="st4" d="M86.9,57.8c0.4,0.8,0.8,1.5,0.9,2.2c0.2,0.7,0.2,1.4,0.1,2c-0.1,0.6-0.3,1.2-0.7,1.8c-0.4,0.5-0.9,1-1.6,1.4
			c-0.6,0.3-1.1,0.6-1.7,0.6c-0.6,0.1-1.2,0.1-1.7-0.1c-0.6-0.2-1.1-0.5-1.7-1c-0.5-0.5-1-1.1-1.5-1.9c-0.4-0.8-0.8-1.5-0.9-2.2
			s-0.2-1.4-0.1-2c0.1-0.6,0.3-1.2,0.7-1.8c0.4-0.5,0.9-1,1.6-1.4c0.6-0.3,1.1-0.6,1.7-0.6c0.6-0.1,1.2-0.1,1.7,0.1
			c0.6,0.2,1.1,0.5,1.7,1C85.9,56.3,86.4,57,86.9,57.8z M85.2,58.8c-0.7-1.1-1.4-1.9-2.1-2.2c-0.7-0.3-1.4-0.3-2.1,0.2
			c-0.8,0.5-1.2,1.1-1.3,1.9c-0.1,0.8,0.2,1.8,0.9,3c0.7,1.1,1.4,1.9,2.1,2.2c0.7,0.3,1.4,0.3,2.1-0.2c0.8-0.5,1.2-1.1,1.3-1.9
			C86.2,60.9,85.9,59.9,85.2,58.8z"/><path class="st4" d="M94.7,59.8c-0.6,0.4-1.3,0.6-1.9,0.7c-0.6,0.1-1.2,0-1.8-0.2c-0.6-0.2-1.1-0.6-1.6-1c-0.5-0.5-1-1.1-1.4-1.8
			c-0.4-0.7-0.7-1.4-0.9-2.1c-0.2-0.7-0.2-1.4-0.2-2c0.1-0.6,0.3-1.2,0.6-1.8c0.4-0.5,0.9-1,1.5-1.4c1-0.6,1.9-0.8,2.8-0.7
			c0.2,0,0.3,0.1,0.3,0.3l0,0.9c0,0.2-0.1,0.4-0.3,0.4c-0.4,0-0.7,0-1,0.1c-0.3,0.1-0.6,0.2-0.9,0.4c-0.7,0.4-1.2,1.1-1.3,1.9
			c-0.1,0.8,0.2,1.8,0.8,3c0.3,0.5,0.6,0.9,0.9,1.3c0.3,0.4,0.7,0.6,1.1,0.8c0.4,0.2,0.8,0.3,1.2,0.3c0.4,0,0.8-0.2,1.3-0.4
			c0.3-0.2,0.6-0.4,0.8-0.6s0.5-0.5,0.6-0.8c0.1-0.2,0.3-0.2,0.4-0.1l0.8,0.5c0.2,0.1,0.2,0.3,0.1,0.4c-0.2,0.4-0.5,0.8-0.9,1.2
			C95.5,59.2,95.1,59.5,94.7,59.8z"/><path class="st4" d="M99,57.1c-0.2,0.1-0.3,0.1-0.4-0.1l-5.2-8.8c-0.1-0.2-0.1-0.3,0.1-0.4l1.1-0.7c0.2-0.1,0.3-0.1,0.4,0.1
			l2.2,3.7l3.6-2.1l-2.2-3.7c-0.1-0.2-0.1-0.3,0.1-0.4l1.1-0.7c0.2-0.1,0.3-0.1,0.4,0.1l5.2,8.8c0.1,0.2,0.1,0.3-0.1,0.4l-1.1,0.7
			c-0.2,0.1-0.3,0.1-0.4-0.1l-2.2-3.8L98,52.2l2.2,3.8c0.1,0.2,0.1,0.3-0.1,0.4L99,57.1z"/><path class="st4" d="M106.1,42.1l4.6,7.7c0.1,0.2,0.1,0.3-0.1,0.4l-1.1,0.7c-0.2,0.1-0.3,0.1-0.4-0.1l-4.6-7.7l-2.2,1.3
			c-0.2,0.1-0.3,0.1-0.4-0.1l-0.5-0.8c-0.1-0.2-0.1-0.3,0.1-0.4l6-3.5c0.2-0.1,0.3-0.1,0.4,0.1l0.5,0.8c0.1,0.2,0.1,0.3-0.1,0.4
			L106.1,42.1z"/></g></g><g id="stramien"/></svg>