<?xml version="1.0" encoding="UTF-8"?><svg xmlns="http://www.w3.org/2000/svg" version="1.1" viewBox="0 0 160 160"><defs><style>.cls-1 {
        fill: #fff;
      }

      .cls-2 {
        fill: #ff6200;
      }

      .cls-3 {
        fill: #a8a8a8;
      }</style></defs><!--Generator: Adobe Illustrator 28.6.0, SVG Export Plug-In . SVG Version: 1.2.0 Build 709)--><g><g id="Debit"><path class="cls-2" d="M61.8,127.2c3.1-1,6.2-1,8.4-.1l28.9-9.8c2.5-.8,3.8-3.5,3-6l-27.9-82.5c-.8-2.5-3.5-3.8-6-3l-48.9,16.5c-2.5.8-3.8,3.5-3,6l27.9,82.5c.8,2.5,3.5,3.8,6,3l4.8-1.6c1.2-2.1,3.7-4,6.8-5Z"/><path class="cls-1" d="M52.3,50.9l-1.6-4.8-2,.7c-.7.2-1.1.8-.9,1.3l1.3,4,3.2-1.1Z"/><path class="cls-1" d="M55.3,59.8l-1.6-4.8-3.2,1.1,1.3,3.9c.2.5.8.7,1.5.5l2-.7Z"/><rect class="cls-1" x="54.9" y="55.2" width="2.7" height="4.1" transform="translate(-15.3 20.9) rotate(-18.6)"/><rect class="cls-1" x="51.6" y="45.4" width="2.7" height="4.1" transform="translate(-12.4 19.4) rotate(-18.6)"/><rect class="cls-1" x="58.1" y="49.2" width="1.4" height="3.7" transform="translate(-13.2 21.4) rotate(-18.6)"/><rect class="cls-1" x="49.7" y="52" width="1.3" height="3.7" transform="translate(-14.6 18.9) rotate(-18.6)"/><path class="cls-1" d="M56.9,54l1.6,4.8,2.1-.7c.7-.2,1.1-.8.9-1.3l-1.3-3.9-3.3,1.1Z"/><path class="cls-1" d="M58.8,48.7l-1.3-4c-.2-.5-.8-.7-1.5-.5l-2.1.7,1.6,4.8,3.3-1.1Z"/><polygon class="cls-1" points="50.2 50.9 57.1 48.6 58.9 53.9 52 56.2 50.2 50.9"/><path class="cls-2" d="M50,50.7l7.2-2.4,2,5.9-7.2,2.4-2-5.9ZM57,48.7l-6.6,2.2,1.7,5.2,6.6-2.2-1.7-5.2Z"/><path class="cls-1" d="M53.2,38.8c-1.1-.5-2.2-1-3.3-1.5l-.5-.2c-.3-.1-.6,0-.8.3-.4,1-.8,2.1-1.3,3.1l-.2.4c-.1.3,0,.6.3.8s.6,0,.8-.3c.4-1,.8-2.1,1.3-3.1l.2-.4-.8.3c1.1.5,2.2,1,3.3,1.5l.5.2c.3.1.6,0,.8-.3s0-.6-.3-.8h0Z"/></g><g id="Credit"><g><path class="cls-3" d="M59.4,117.7l4.8,1.7h.2c0,0,2.7-2,2.7-2l10,3.3,1,3.4,1.5.5,29.2,10.1c2.5.9,5.3-.5,6.1-3l28.7-83.4c.9-2.5-.5-5.3-3-6.1l-49.5-17c-2.5-.9-5.3.5-6.1,3l-28.7,83.4c-.9,2.5.5,5.3,3,6.1Z"/><path class="cls-1" d="M112.5,52.6l1.7-4.9-2.1-.7c-.7-.2-1.4,0-1.5.5l-1.4,4,3.3,1.1Z"/><path class="cls-1" d="M109.4,61.5l1.7-4.8-3.3-1.1-1.4,3.9c-.2.5.2,1.1.9,1.3l2,.7Z"/><rect class="cls-1" x="109.6" y="58.8" width="4.2" height="2.7" transform="translate(18.4 146.1) rotate(-70.9)"/><rect class="cls-1" x="113" y="48.9" width="4.2" height="2.7" transform="translate(30 142.6) rotate(-70.9)"/><rect class="cls-1" x="115.8" y="56" width="3.7" height="1.4" transform="translate(25.6 149.4) rotate(-70.9)"/><rect class="cls-1" x="107.2" y="53.1" width="3.7" height="1.4" transform="translate(22.7 139.3) rotate(-70.9)"/><path class="cls-1" d="M114.3,57.9l-1.7,4.8,2.1.7c.7.2,1.4,0,1.5-.5l1.3-3.9-3.3-1.2Z"/><path class="cls-1" d="M119,54.8l1.4-4c.2-.5-.2-1.1-.9-1.3l-2.1-.7-1.7,4.9,3.3,1.1Z"/><polygon class="cls-1" points="110.8 51.3 117.8 53.7 115.9 59 109 56.7 110.8 51.3"/><path class="cls-2" d="M110.8,51l7.2,2.5-2,5.9-7.2-2.5,2-5.9ZM117.6,53.7l-6.6-2.3-1.8,5.2,6.6,2.3,1.8-5.2Z"/><path class="cls-1" d="M120.6,43.4c-.6-1.1-1.1-2.2-1.7-3.3l-.2-.5c-.1-.3-.5-.4-.8-.3-1,.6-2,1.2-2.9,1.7l-.4.2c-.3.2-.4.5-.3.8s.5.4.8.3c1-.6,2-1.2,2.9-1.7l.4-.2-.8-.3c.6,1.1,1.1,2.2,1.7,3.3l.2.5c.1.3.5.4.8.3s.4-.5.3-.8h0Z"/><path class="cls-1" d="M112.4,52.6l1.7-4.9-2.1-.7c-.7-.2-1.4,0-1.5.5l-1.4,4,3.3,1.1Z"/><path class="cls-1" d="M109.3,61.5l1.7-4.8-3.3-1.1-1.4,3.9c-.2.5.2,1.1.9,1.3l2,.7Z"/><rect class="cls-1" x="109.6" y="58.7" width="4.2" height="2.7" transform="translate(18.4 146) rotate(-70.9)"/><rect class="cls-1" x="113" y="48.9" width="4.2" height="2.7" transform="translate(30 142.6) rotate(-70.9)"/><rect class="cls-1" x="115.8" y="56" width="3.7" height="1.4" transform="translate(25.6 149.4) rotate(-70.9)"/><rect class="cls-1" x="107.2" y="53.1" width="3.7" height="1.4" transform="translate(22.7 139.3) rotate(-70.9)"/><path class="cls-1" d="M114.2,57.9l-1.7,4.8,2.1.7c.7.2,1.4,0,1.5-.5l1.3-3.9-3.3-1.2Z"/><path class="cls-1" d="M119,54.8l1.4-4c.2-.5-.2-1.1-.9-1.3l-2.1-.7-1.7,4.9,3.3,1.1Z"/><polygon class="cls-1" points="110.8 51.3 117.7 53.7 115.9 59 109 56.7 110.8 51.3"/><path class="cls-3" d="M110.8,51l7.2,2.5-2,5.9-7.2-2.5,2-5.9ZM117.6,53.7l-6.6-2.3-1.8,5.2,6.6,2.3,1.8-5.2Z"/><path class="cls-1" d="M120.6,43.4c-.6-1.1-1.1-2.2-1.7-3.3l-.2-.5c-.1-.3-.5-.4-.8-.3-1,.6-2,1.2-2.9,1.7l-.4.2c-.3.2-.4.5-.3.8s.5.4.8.3c1-.6,2-1.2,2.9-1.7l.4-.2-.8-.3c.6,1.1,1.1,2.2,1.7,3.3l.2.5c.1.3.5.4.8.3s.4-.5.3-.8h0Z"/></g></g></g></svg>