<svg viewBox="0 0 160 160" fill="none" xmlns="http://www.w3.org/2000/svg"><path d="M101.21 47.0101C99.51 46.2101 97.49 46.6701 96.31 48.1301L91.34 54.6801L90.09 56.3301L84.78 63.3301C83.71 64.6301 83.53 66.9301 85.1 67.7501L85.55 67.9301V67.9501C85.55 67.9501 85.49 69.2001 86.29 69.8601C87.17 70.5801 88.19 70.7901 89.22 70.5601L90.58 73.1401C88.73 73.6201 87.57 75.4701 88 77.3401C88.43 79.2501 90.35 80.4501 92.27 80.0201L106.67 76.7901C106.67 76.7901 114.88 81.7801 121.92 79.5801L143.99 93.0001V69.2801L101.2 47.0001L101.21 47.0101Z" fill="#7D441C"/><path d="M91.35 54.6799L85.55 67.9499C85.38 67.8999 85.25 67.8199 85.11 67.7499L90.1 56.3299L91.35 54.6799Z" fill="#5D2B1A"/><path d="M89.93 68.99C89.6 69.82 89.61 70.72 89.96 71.54C90.31 72.36 90.97 72.99 91.8 73.32C92.96 73.78 94.26 73.56 95.22 72.76L98.78 55.57L99.26 55.67L95.67 72.98H95.65C95.68 73.29 95.93 74.7 97.89 74.81L105.97 75.16C106.57 75.19 107.16 74.83 107.39 74.28L108.9 69.92C109.39 68.51 108.68 66.97 107.29 66.41L107.16 66.36C106.44 66.07 105.65 66.08 104.94 66.41C104.24 66.73 103.71 67.3 103.45 68.03L102.43 70.91L101.97 70.75L102.99 67.87C103.29 67.02 103.91 66.35 104.74 65.97C105.57 65.6 106.5 65.58 107.34 65.92L107.47 65.97C109.1 66.63 109.93 68.43 109.36 70.09L107.84 74.46C107.53 75.18 106.81 75.65 106.03 75.65C106 75.65 105.97 75.65 105.95 75.65L97.86 75.3C95.97 75.19 95.39 74.02 95.22 73.37C94.17 74.1 92.82 74.26 91.61 73.78C91.23 73.63 90.89 73.41 90.58 73.15C90.12 72.77 89.74 72.3 89.5 71.73C89.34 71.35 89.26 70.96 89.22 70.57C89.17 69.98 89.23 69.38 89.46 68.82L95.65 52.72L96.1 52.89L89.91 68.99H89.93Z" fill="#5D2B1A"/><path d="M58.79 47.0101C60.49 46.2101 62.51 46.6701 63.69 48.1301L68.66 54.6801L69.91 56.3301L75.22 63.3301C76.29 64.6301 76.47 66.9301 74.9 67.7501L74.45 67.9301V67.9501C74.45 67.9501 74.51 69.2001 73.71 69.8601C72.83 70.5801 71.81 70.7901 70.78 70.5601L69.42 73.1401C71.27 73.6201 72.43 75.4701 72 77.3401C71.57 79.2501 69.65 80.4501 67.73 80.0201L53.33 76.7901C53.33 76.7901 45.12 81.7801 38.08 79.5801L16.01 93.0001V69.2801L58.8 47.0001L58.79 47.0101Z" fill="#FFBD7A"/><path d="M68.65 54.6799L74.45 67.9499C74.62 67.8999 74.75 67.8199 74.89 67.7499L69.9 56.3299L68.65 54.6799Z" fill="#E3944F"/><path d="M70.07 68.99C70.4 69.82 70.39 70.72 70.04 71.54C69.69 72.36 69.03 72.99 68.2 73.32C67.04 73.78 65.74 73.56 64.78 72.76L61.22 55.57L60.74 55.67L64.33 72.98H64.35C64.32 73.29 64.07 74.7 62.11 74.81L54.03 75.16C53.43 75.19 52.84 74.83 52.61 74.28L51.1 69.92C50.61 68.51 51.32 66.97 52.71 66.41L52.84 66.36C53.56 66.07 54.35 66.08 55.06 66.41C55.76 66.73 56.29 67.3 56.55 68.03L57.57 70.91L58.03 70.75L57.01 67.87C56.71 67.02 56.09 66.35 55.26 65.97C54.43 65.6 53.5 65.58 52.66 65.92L52.53 65.97C50.9 66.63 50.07 68.43 50.64 70.09L52.16 74.46C52.47 75.18 53.19 75.65 53.97 75.65C54 75.65 54.03 75.65 54.05 75.65L62.14 75.3C64.03 75.19 64.61 74.02 64.78 73.37C65.83 74.1 67.18 74.26 68.39 73.78C68.77 73.63 69.11 73.41 69.42 73.15C69.88 72.77 70.26 72.3 70.5 71.73C70.66 71.35 70.74 70.96 70.78 70.57C70.83 69.98 70.77 69.38 70.54 68.82L64.35 52.72L63.9 52.89L70.09 68.99H70.07Z" fill="#E3944F"/></svg>