<svg viewBox="0 0 160 160" fill="none" xmlns="http://www.w3.org/2000/svg"><path d="M134.8 21.6899H23.67C22.4163 21.6899 21.4 22.7063 21.4 23.9599V104.51C21.4 105.764 22.4163 106.78 23.67 106.78H134.8C136.054 106.78 137.07 105.764 137.07 104.51V23.9599C137.07 22.7063 136.054 21.6899 134.8 21.6899Z" fill="#232144"/><path d="M132.42 26.4299H26.06V88.8699H132.42V26.4299Z" fill="#D0DEF2"/><path d="M79.24 25.1799C79.7978 25.1799 80.25 24.7277 80.25 24.1699C80.25 23.6121 79.7978 23.1599 79.24 23.1599C78.6822 23.1599 78.23 23.6121 78.23 24.1699C78.23 24.7277 78.6822 25.1799 79.24 25.1799Z" fill="#D0DEF2"/><path d="M121.04 36.8201H37.43V82.0401H121.04V36.8201Z" fill="#E5F0FF"/><path d="M48.1 36.8201H47.67V82.0401H48.1V36.8201Z" fill="#B0C2E4"/><path d="M37.65 36.8201H37.22V82.0401H37.65V36.8201Z" fill="#B0C2E4"/><path d="M58.55 36.8201H58.12V82.0401H58.55V36.8201Z" fill="#B0C2E4"/><path d="M79.46 36.8201H79.03V82.0401H79.46V36.8201Z" fill="#B0C2E4"/><path d="M69 36.8201H68.57V82.0401H69V36.8201Z" fill="#B0C2E4"/><path d="M89.91 36.8201H89.48V82.0401H89.91V36.8201Z" fill="#B0C2E4"/><path d="M110.81 36.8201H110.38V82.0401H110.81V36.8201Z" fill="#B0C2E4"/><path d="M121.26 36.8201H120.83V82.0401H121.26V36.8201Z" fill="#B0C2E4"/><path d="M100.36 36.8201H99.93V82.0401H100.36V36.8201Z" fill="#B0C2E4"/><path d="M38.09 75.84L37.64 75.38L46.79 66.23L56.99 74.51L67.16 66.27L81.11 74.52L112.01 43.02L112.46 43.47L81.21 75.32L67.21 67.05L56.99 75.33L46.84 67.09L38.09 75.84Z" fill="#891229"/><path d="M65.71 70.8801L49.13 52.2301L37.97 56.2801L37.75 55.6801L49.32 51.4801L65.79 70.0101L79.8 59.1201L114.55 48.1001L114.74 48.7101L80.05 59.7101L65.71 70.8801Z" fill="#232144"/><path d="M122.22 28.1399C123.39 29.2199 124.13 30.7599 124.13 32.4799C124.13 35.7399 121.48 38.3899 118.22 38.3899C114.96 38.3899 112.31 35.7499 112.31 32.4799C112.31 30.7599 113.05 29.2199 114.22 28.1399H105.74V42.7499H130.63V28.1399H122.21H122.22Z" fill="#FCC393"/><path d="M112.32 32.4799C112.32 35.7399 114.96 38.3899 118.23 38.3899C121.5 38.3899 124.14 35.7499 124.14 32.4799C124.14 30.7599 123.4 29.2199 122.23 28.1399H114.24C113.07 29.2199 112.33 30.7599 112.33 32.4799H112.32Z" fill="#291028"/><path d="M125.25 39.1499C125.19 39.1499 125.13 39.1499 125.08 39.1499L111.09 39.1399C109.35 39.2699 108.05 40.7899 108.18 42.5199C108.31 44.2499 112.71 44.4299 112.71 44.4299C112.71 44.4299 113.61 45.0399 114.17 43.5999H122.58L123.87 44.4999C123.87 44.4999 128.04 44.2599 128.17 42.5199C128.3 40.7799 127 39.2699 125.26 39.1399L125.25 39.1499Z" fill="white"/><path d="M122.46 34.99C122.46 35.53 122.02 35.97 121.48 35.97C120.94 35.97 120.5 35.53 120.5 34.99C120.5 34.45 120.94 34.01 121.48 34.01C122.02 34.01 122.46 34.45 122.46 34.99Z" fill="#8F411F"/><path d="M115.84 34.99C115.84 35.53 115.4 35.97 114.86 35.97C114.32 35.97 113.88 35.53 113.88 34.99C113.88 34.45 114.32 34.01 114.86 34.01C115.4 34.01 115.84 34.45 115.84 34.99Z" fill="#8F411F"/><path d="M114.98 35.2C115.47 35.2 115.86 35.59 115.86 36.08V36.95C115.86 37.43 115.47 37.83 114.98 37.83C114.5 37.83 114.1 37.44 114.1 36.95V36.08C114.1 35.59 114.49 35.2 114.98 35.2Z" fill="#FF6200"/><path d="M121.37 35.6099C121.86 35.6099 122.25 35.9999 122.25 36.4899V37.3599C122.25 37.8399 121.86 38.2399 121.37 38.2399C120.89 38.2399 120.49 37.8499 120.49 37.3599V36.4899C120.49 35.9999 120.88 35.6099 121.37 35.6099Z" fill="#FF6200"/><path d="M115.76 40.0599V36.9299H120.58V40.0599C120.58 41.3899 119.5 42.4699 118.17 42.4699C116.84 42.4699 115.76 41.3899 115.76 40.0599Z" fill="#763427"/><path d="M114.98 36.4799V31.9799C114.98 30.5599 116.13 29.3999 117.56 29.3999H118.8C120.22 29.3999 121.38 30.5499 121.38 31.9799V36.4799C121.38 37.8999 120.23 39.0599 118.8 39.0599H117.56C116.14 39.0599 114.98 37.9099 114.98 36.4799Z" fill="#8F411F"/><path d="M118.57 37.0399C118.54 36.7699 118.13 36.8499 118.13 36.8499L117.19 36.9399C117.19 36.8899 118.72 38.8299 119.91 36.6799L118.97 36.7699C118.97 36.7699 118.55 36.7699 118.58 37.0499" fill="#420F0F"/><path d="M119.75 32.5599H119.79C120.2 32.5599 120.59 32.7699 120.83 33.1099H118.7C118.95 32.7599 119.34 32.5499 119.75 32.5599Z" fill="#291028"/><path d="M119.32 34.4999C119.32 34.7099 119.49 34.8899 119.71 34.8899C119.93 34.8899 120.1 34.7199 120.1 34.4999C120.1 34.2799 119.93 34.1099 119.71 34.1099C119.49 34.1099 119.32 34.2799 119.32 34.4999Z" fill="black"/><path d="M118.9 34.82C119.02 34.02 120.03 33.68 120.65 34.05C120.61 34.11 120.54 34.23 120.5 34.3C120.36 34.22 119.65 33.93 119 34.71C118.96 34.76 118.96 34.78 118.9 34.82Z" fill="black"/><path d="M116.43 32.5599H116.39C115.98 32.5599 115.59 32.7699 115.35 33.1099H117.48C117.23 32.7599 116.84 32.5499 116.43 32.5599Z" fill="#291028"/><path d="M116.85 34.4598C116.85 34.6698 116.68 34.8498 116.46 34.8498C116.24 34.8498 116.07 34.6798 116.07 34.4598C116.07 34.2398 116.24 34.0698 116.46 34.0698C116.68 34.0698 116.85 34.2398 116.85 34.4598Z" fill="black"/><path d="M117.34 34.82C117.22 34.02 116.21 33.68 115.59 34.05C115.63 34.11 115.7 34.23 115.74 34.3C115.88 34.22 116.59 33.93 117.24 34.71C117.28 34.76 117.28 34.78 117.34 34.82Z" fill="black"/><path d="M115.02 34.8899V33.5599C115.02 32.1399 116.16 30.9799 117.57 30.9799H117.99V30.1799H118.37V30.9799H118.79C120.2 30.9799 121.34 32.1299 121.34 33.5599V34.8899H121.84V31.9499C121.84 30.4099 120.59 29.1599 119.05 29.1599H117.32C115.78 29.1599 114.53 30.4099 114.53 31.9499V34.8899H115.03H115.02Z" fill="#291028"/><path d="M120.65 34.8298H115.63V35.4498H120.65V34.8298Z" fill="#8F411F"/><path d="M130.64 42.75H105.75V45.35H130.64V42.75Z" fill="#232144"/><path d="M117.76 36.1899C117.848 36.1899 117.92 36.1182 117.92 36.0299C117.92 35.9415 117.848 35.8699 117.76 35.8699C117.672 35.8699 117.6 35.9415 117.6 36.0299C117.6 36.1182 117.672 36.1899 117.76 36.1899Z" fill="black"/><path d="M118.68 36.1899C118.768 36.1899 118.84 36.1182 118.84 36.0299C118.84 35.9415 118.768 35.8699 118.68 35.8699C118.592 35.8699 118.52 35.9415 118.52 36.0299C118.52 36.1182 118.592 36.1899 118.68 36.1899Z" fill="black"/><path d="M128.68 37.2299L128.65 33.7199C128.65 33.4899 128.46 33.2999 128.23 33.2999C128 33.2999 127.81 33.4899 127.81 33.7199L127.84 35.8499H127.78L127.75 33.1699C127.75 32.9399 127.56 32.7499 127.33 32.7499C127.1 32.7499 126.91 32.9399 126.91 33.1699L126.94 35.6699H126.88L126.85 32.8499C126.85 32.6199 126.66 32.4299 126.43 32.4299C126.2 32.4299 126.01 32.6199 126.01 32.8499L126.04 35.8499H125.98L125.95 33.2899C125.95 33.0599 125.76 32.8699 125.53 32.8699C125.3 32.8699 125.11 33.0599 125.11 33.2899L125.14 36.5399L124.53 35.4399C124.41 35.2399 124.16 35.1699 123.96 35.2899C123.76 35.4099 123.69 35.6599 123.81 35.8599L124.85 37.6899C125.12 38.1499 125.45 38.5699 125.85 38.9199V41.2599H128.47V38.1999C128.59 37.9199 128.66 37.6099 128.67 37.2999V37.2199L128.68 37.2299Z" fill="#8F411F"/><path d="M125.56 38.3799V41.2699H126.73V38.3799H125.56Z" fill="#8F411F"/><path d="M125.13 39.8599V42.7499H128.82V39.8599H125.13Z" fill="white"/><path d="M80.95 133.24C89.87 133.24 97.09 126.01 97.09 117.1V96.16L64.8 95.22V117.1C64.8 126.02 72.03 133.24 80.94 133.24" fill="#FFA28F"/><path d="M59.17 91.1201C62.7764 91.1201 65.7 88.1965 65.7 84.5901C65.7 80.9836 62.7764 78.0601 59.17 78.0601C55.5636 78.0601 52.64 80.9836 52.64 84.5901C52.64 88.1965 55.5636 91.1201 59.17 91.1201Z" fill="#FFC4B8"/><path d="M102.72 91.1201C106.326 91.1201 109.25 88.1965 109.25 84.5901C109.25 80.9836 106.326 78.0601 102.72 78.0601C99.1136 78.0601 96.19 80.9836 96.19 84.5901C96.19 88.1965 99.1136 91.1201 102.72 91.1201Z" fill="#FFC4B8"/><path d="M144 143.93L143.86 138C143.89 137.21 143.86 136.43 143.8 135.66V135.31L143.77 135.33C142.81 125.48 134.91 117.44 124.7 116.67C124.46 116.65 124.23 116.67 123.99 116.65V116.62H122.83C122.72 116.62 122.6 116.62 122.49 116.62H37.26V116.65C36.91 116.65 36.56 116.65 36.21 116.68C26.43 117.42 18.73 124.7 17.02 133.9H17.01L16.99 134.1C16.8 135.19 16.68 136.3 16.66 137.43L16.01 143.94H144.01L144 143.93Z" fill="#891229"/><path d="M106.17 109.62C105.94 109.62 105.71 109.64 105.49 109.65C106.82 107.21 107.57 104.42 107.57 101.45C107.57 97.71 106.36 94.27 104.34 91.45C104.53 90.29 104.64 89.06 104.69 87.81H104.7V87.55C104.71 87.23 104.74 86.92 104.74 86.59L104.7 84.87V63.47C104.7 53.15 96.57 44.78 86.54 44.78H75.27C65.24 44.78 57.11 53.15 57.11 63.47V90.14H57.15V90.28C57.65 99.33 66.19 107.97 75.37 109.73C78.29 115.03 83.92 118.62 90.4 118.62C92.31 118.62 94.14 118.29 95.86 117.72C95.66 118.53 95.55 119.37 95.55 120.24C95.55 126.1 100.3 130.85 106.16 130.85C112.02 130.85 116.77 126.1 116.77 120.24C116.77 114.38 112.02 109.63 106.16 109.63L106.17 109.62Z" fill="#FAA332"/></svg>