<?xml version="1.0" encoding="UTF-8"?><svg xmlns="http://www.w3.org/2000/svg" viewBox="0 0 160 160"><defs><style>.cls-1{fill:#ef2834;}.cls-2{fill:#fdb128;}.cls-3{fill:#fff;}.cls-4{fill:#f99400;}.cls-5{fill:#8e0721;}</style></defs><g id="Coins"><circle class="cls-2" cx="106.54" cy="55.78" r="18.86"/><path class="cls-4" d="M106.6,71.59c-8.65-.03-15.66-7.1-15.63-15.75.03-8.65,7.1-15.66,15.75-15.63,8.65.03,15.66,7.1,15.63,15.75-.03,8.65-7.1,15.66-15.75,15.63ZM106.72,41.43c-7.98-.03-14.5,6.43-14.53,14.41-.03,7.98,6.43,14.5,14.41,14.53,7.98.03,14.5-6.43,14.53-14.41.03-7.98-6.43-14.5-14.41-14.53Z"/><path class="cls-3" d="M108.31,57.62c0,.23-.1.33-.31.33h-3.59c.36,1.67,1.31,2.78,3.2,2.79.85,0,1.61-.22,2.25-.45.27-.1.43-.1.52.12l.5,1.07c.13.29.08.44-.16.56-.95.5-2.17.8-3.51.8-2.93,0-4.78-1.88-5.33-4.91h-1.26c-.22,0-.31-.11-.31-.33v-.93c0-.23.1-.33.32-.33h1.09s0-.54,0-.54c0-.25,0-.5.02-.76h-.99c-.22,0-.31-.1-.31-.33v-.93c0-.23.1-.33.32-.33h1.2c.63-2.94,2.48-4.96,5.52-4.95,1.49,0,2.54.38,3.31.94.23.18.27.33.15.56l-.55.98c-.14.23-.33.33-.56.19-.77-.43-1.26-.65-2.17-.65-1.66,0-2.77.99-3.25,2.93h3.7c.22.01.31.11.31.34v.93c0,.23-.1.33-.32.33h-3.89c-.02.2-.02.43-.02.65v.64s3.8.01,3.8.01c.22,0,.31.1.31.33v.93s0,0,0,0Z"/><circle class="cls-2" cx="64.39" cy="32.39" r="16.22"/><path class="cls-4" d="M64.44,45.99c-7.44-.03-13.47-6.11-13.44-13.55.03-7.44,6.11-13.47,13.55-13.44,7.44.03,13.47,6.11,13.44,13.55-.03,7.44-6.11,13.47-13.55,13.44ZM64.54,20.04c-6.86-.03-12.47,5.54-12.5,12.4-.03,6.86,5.54,12.47,12.4,12.5,6.86.03,12.47-5.54,12.5-12.4.03-6.86-5.54-12.47-12.4-12.5Z"/><path class="cls-3" d="M65.91,33.97c0,.2-.09.28-.27.28h-3.08c.31,1.44,1.12,2.39,2.76,2.4.73,0,1.39-.19,1.93-.39.23-.08.37-.08.45.1l.43.92c.12.25.07.38-.14.48-.82.43-1.87.69-3.02.69-2.52,0-4.11-1.62-4.58-4.22h-1.08c-.19,0-.27-.09-.27-.29v-.8c0-.2.09-.28.27-.28h.93s0-.46,0-.46c0-.22,0-.43.02-.65h-.85c-.19,0-.27-.09-.27-.29v-.8c0-.2.09-.28.27-.28h1.03c.54-2.53,2.13-4.27,4.75-4.26,1.28,0,2.18.32,2.85.81.2.15.23.28.13.49l-.47.85c-.12.2-.28.28-.49.16-.67-.37-1.08-.56-1.86-.56-1.43,0-2.39.86-2.79,2.52h3.18c.19.01.27.1.27.3v.8c0,.2-.09.28-.27.28h-3.35c-.02.17-.02.37-.02.56v.55s3.27.01,3.27.01c.19,0,.27.09.27.28v.8s0,0,0,0Z"/><circle class="cls-2" cx="30.44" cy="59.52" r="14.32"/><path class="cls-4" d="M30.48,71.53c-6.57-.03-11.9-5.39-11.87-11.97.03-6.57,5.4-11.9,11.97-11.87s11.9,5.4,11.87,11.97c-.03,6.57-5.39,11.9-11.97,11.87ZM30.57,48.61c-6.06-.03-11.02,4.89-11.04,10.95-.03,6.06,4.89,11.02,10.95,11.04,6.06.03,11.02-4.89,11.04-10.95.03-6.06-4.89-11.02-10.95-11.04Z"/><path class="cls-3" d="M31.78,60.91c0,.18-.08.25-.24.25h-2.72c.28,1.27.99,2.11,2.43,2.12.65,0,1.22-.17,1.71-.35.21-.07.32-.07.4.09l.38.81c.1.22.06.34-.12.42-.72.38-1.65.61-2.67.61-2.22,0-3.63-1.43-4.05-3.73h-.96c-.16,0-.24-.08-.24-.25v-.7c0-.18.08-.25.24-.25h.82s0-.41,0-.41c0-.19,0-.38.02-.57h-.75c-.16,0-.24-.08-.24-.25v-.7c0-.18.08-.25.24-.25h.91c.48-2.23,1.88-3.77,4.19-3.76,1.13,0,1.93.29,2.51.72.17.13.2.25.12.43l-.41.75c-.11.17-.25.25-.43.15-.59-.33-.96-.49-1.65-.49-1.26,0-2.11.76-2.47,2.23h2.81c.16.01.24.09.24.26v.7c0,.18-.08.25-.24.25h-2.96c-.01.15-.01.33-.02.49v.49s2.88.01,2.88.01c.16,0,.24.08.24.25v.7s0,0,0,0Z"/><circle class="cls-2" cx="28.09" cy="97.95" r="12.1"/><path class="cls-4" d="M28.13,108.1c-5.55-.02-10.05-4.56-10.03-10.11.02-5.55,4.56-10.05,10.11-10.03s10.05,4.56,10.03,10.11c-.02,5.55-4.56,10.05-10.11,10.03ZM28.2,88.75c-5.12-.02-9.3,4.13-9.33,9.25s4.13,9.3,9.25,9.33c5.12.02,9.3-4.13,9.33-9.25.02-5.12-4.13-9.3-9.25-9.33Z"/><path class="cls-3" d="M29.23,99.14c0,.15-.06.21-.2.21h-2.3c.23,1.07.84,1.79,2.06,1.79.55,0,1.03-.14,1.44-.29.17-.06.27-.06.33.08l.32.68c.09.19.05.29-.1.36-.61.32-1.39.52-2.25.51-1.88,0-3.06-1.21-3.42-3.15h-.81c-.14,0-.2-.07-.2-.21v-.6c0-.15.06-.21.2-.21h.7s0-.35,0-.35c0-.16,0-.32.02-.48h-.64c-.14,0-.2-.06-.2-.21v-.6c0-.15.06-.21.2-.21h.77c.4-1.88,1.59-3.18,3.54-3.18.96,0,1.63.24,2.12.6.15.11.17.21.1.36l-.35.63c-.09.15-.21.21-.36.12-.5-.28-.81-.41-1.39-.42-1.07,0-1.78.64-2.08,1.88h2.37c.14,0,.2.07.2.22v.6c0,.15-.06.21-.2.21h-2.5c-.01.13-.01.28-.02.41v.41s2.44,0,2.44,0c.14,0,.2.06.2.21v.6s0,0,0,0Z"/><circle class="cls-2" cx="48.45" cy="127.1" r="10.53"/><path class="cls-4" d="M48.48,135.93c-4.83-.02-8.75-3.96-8.73-8.8.02-4.83,3.97-8.75,8.8-8.73s8.75,3.97,8.73,8.8c-.02,4.83-3.96,8.75-8.8,8.73ZM48.55,119.08c-4.46-.02-8.1,3.59-8.12,8.05-.02,4.46,3.59,8.1,8.05,8.12,4.46.02,8.1-3.59,8.12-8.05s-3.59-8.1-8.05-8.12Z"/><path class="cls-3" d="M49.44,128.13c0,.13-.06.18-.17.18h-2c.2.93.73,1.55,1.79,1.56.48,0,.9-.13,1.25-.25.15-.05.24-.05.29.07l.28.6c.07.16.04.25-.09.31-.53.28-1.21.45-1.96.45-1.63,0-2.67-1.05-2.97-2.74h-.7c-.12,0-.17-.06-.17-.19v-.52c0-.13.06-.18.18-.18h.61s0-.3,0-.3c0-.14,0-.28.01-.42h-.55c-.12,0-.17-.06-.17-.19v-.52c0-.13.06-.18.18-.18h.67c.35-1.64,1.39-2.77,3.08-2.77.83,0,1.42.21,1.85.53.13.1.15.18.09.32l-.3.55c-.08.13-.18.18-.32.11-.43-.24-.7-.36-1.21-.36-.93,0-1.55.56-1.81,1.64h2.07c.12,0,.17.06.17.19v.52c0,.13-.06.18-.18.18h-2.17c-.01.11-.01.24-.01.36v.36s2.12,0,2.12,0c.12,0,.17.06.17.18v.52s0,0,0,0Z"/><circle class="cls-2" cx="82.65" cy="129.08" r="9"/><path class="cls-4" d="M82.67,136.63c-4.13-.02-7.48-3.39-7.46-7.52.02-4.13,3.39-7.48,7.52-7.46s7.48,3.39,7.46,7.52c-.02,4.13-3.39,7.48-7.52,7.46ZM82.73,122.23c-3.81-.02-6.92,3.07-6.94,6.88s3.07,6.92,6.88,6.94c3.81.02,6.92-3.07,6.94-6.88s-3.07-6.92-6.88-6.94Z"/><path class="cls-3" d="M83.49,129.96c0,.11-.05.16-.15.16h-1.71c.17.8.62,1.33,1.53,1.33.41,0,.77-.11,1.07-.22.13-.05.2-.05.25.06l.24.51c.06.14.04.21-.08.27-.45.24-1.04.38-1.68.38-1.4,0-2.28-.9-2.54-2.34h-.6c-.1,0-.15-.05-.15-.16v-.44c0-.11.05-.16.15-.16h.52s0-.26,0-.26c0-.12,0-.24.01-.36h-.47c-.1,0-.15-.05-.15-.16v-.44c0-.11.05-.16.15-.16h.57c.3-1.4,1.18-2.37,2.64-2.36.71,0,1.21.18,1.58.45.11.08.13.16.07.27l-.26.47c-.07.11-.16.16-.27.09-.37-.21-.6-.31-1.03-.31-.79,0-1.32.47-1.55,1.4h1.77c.1,0,.15.05.15.16v.44c0,.11-.05.16-.15.16h-1.86c0,.1,0,.21-.01.31v.31s1.81,0,1.81,0c.1,0,.15.05.15.16v.44s0,0,0,0Z"/></g><g id="Wallet"><path class="cls-5" d="M66.62,58.66h74.98c1.33,0,2.41,1.08,2.41,2.41v51.54c0,1.33-1.08,2.41-2.41,2.41h-74.98c-1.27,0-2.31-1.03-2.31-2.31v-51.74c0-1.27,1.03-2.31,2.31-2.31Z"/><rect class="cls-2" x="80.53" y="62.23" width="1.11" height=".27"/><rect class="cls-2" x="82.75" y="62.23" width="1.11" height=".27"/><rect class="cls-2" x="84.96" y="62.23" width="1.11" height=".27"/><rect class="cls-2" x="76.1" y="62.23" width="1.11" height=".27"/><rect class="cls-2" x="102.69" y="62.23" width="1.11" height=".27"/><rect class="cls-2" x="73.89" y="62.23" width="1.11" height=".27"/><rect class="cls-2" x="78.32" y="62.23" width="1.11" height=".27"/><rect class="cls-2" x="87.18" y="62.23" width="1.11" height=".27"/><rect class="cls-2" x="96.04" y="62.23" width="1.11" height=".27"/><rect class="cls-2" x="98.26" y="62.23" width="1.11" height=".27"/><rect class="cls-2" x="100.47" y="62.23" width="1.11" height=".27"/><rect class="cls-2" x="91.61" y="62.23" width="1.11" height=".27"/><rect class="cls-2" x="89.39" y="62.23" width="1.11" height=".27"/><rect class="cls-2" x="93.83" y="62.23" width="1.11" height=".27"/><rect class="cls-2" x="67.62" y="79.5" width=".27" height=".84"/><rect class="cls-2" x="67.62" y="77.28" width=".27" height="1.11"/><rect class="cls-2" x="67.62" y="75.07" width=".27" height="1.11"/><rect class="cls-2" x="138.14" y="62.23" width="1.11" height=".27"/><polygon class="cls-2" points="67.62 62.88 67.89 62.88 67.89 62.5 68.35 62.5 68.35 62.23 67.62 62.23 67.62 62.88"/><rect class="cls-2" x="67.62" y="63.99" width=".27" height="1.11"/><rect class="cls-2" x="67.62" y="70.64" width=".27" height="1.11"/><rect class="cls-2" x="67.62" y="68.42" width=".27" height="1.11"/><rect class="cls-2" x="67.62" y="66.21" width=".27" height="1.11"/><rect class="cls-2" x="69.45" y="62.23" width="1.11" height=".27"/><rect class="cls-2" x="71.67" y="62.23" width="1.11" height=".27"/><rect class="cls-2" x="67.62" y="72.85" width=".27" height="1.11"/><rect class="cls-2" x="135.92" y="62.23" width="1.11" height=".27"/><rect class="cls-2" x="140.43" y="68.8" width=".27" height="1.11"/><rect class="cls-2" x="140.43" y="71.02" width=".27" height="1.11"/><rect class="cls-2" x="140.43" y="73.23" width=".27" height="1.11"/><rect class="cls-2" x="140.43" y="64.37" width=".27" height="1.11"/><polygon class="cls-2" points="140.43 63.26 140.7 63.26 140.7 62.23 140.35 62.23 140.35 62.5 140.43 62.5 140.43 63.26"/><rect class="cls-2" x="140.43" y="66.58" width=".27" height="1.11"/><rect class="cls-2" x="140.43" y="75.45" width=".27" height="1.11"/><rect class="cls-2" x="140.43" y="77.66" width=".27" height="1.11"/><rect class="cls-2" x="140.43" y="79.88" width=".27" height=".46"/><rect class="cls-2" x="133.71" y="62.23" width="1.11" height=".27"/><rect class="cls-2" x="113.77" y="62.23" width="1.11" height=".27"/><rect class="cls-2" x="118.2" y="62.23" width="1.11" height=".27"/><rect class="cls-2" x="115.98" y="62.23" width="1.11" height=".27"/><rect class="cls-2" x="111.55" y="62.23" width="1.11" height=".27"/><rect class="cls-2" x="104.9" y="62.23" width="1.11" height=".27"/><rect class="cls-2" x="107.12" y="62.23" width="1.11" height=".27"/><rect class="cls-2" x="109.33" y="62.23" width="1.11" height=".27"/><rect class="cls-2" x="129.27" y="62.23" width="1.11" height=".27"/><rect class="cls-2" x="124.84" y="62.23" width="1.11" height=".27"/><rect class="cls-2" x="127.06" y="62.23" width="1.11" height=".27"/><rect class="cls-2" x="131.49" y="62.23" width="1.11" height=".27"/><rect class="cls-2" x="120.41" y="62.23" width="1.11" height=".27"/><rect class="cls-2" x="122.63" y="62.23" width="1.11" height=".27"/><rect class="cls-2" x="81.68" y="111.58" width="1.11" height=".27"/><rect class="cls-2" x="83.9" y="111.58" width="1.11" height=".27"/><rect class="cls-2" x="86.12" y="111.58" width="1.11" height=".27"/><rect class="cls-2" x="75.04" y="111.58" width="1.11" height=".27"/><rect class="cls-2" x="72.82" y="111.58" width="1.11" height=".27"/><rect class="cls-2" x="77.25" y="111.58" width="1.11" height=".27"/><rect class="cls-2" x="88.33" y="111.58" width="1.11" height=".27"/><rect class="cls-2" x="99.41" y="111.58" width="1.11" height=".27"/><rect class="cls-2" x="101.62" y="111.58" width="1.11" height=".27"/><rect class="cls-2" x="97.19" y="111.58" width="1.11" height=".27"/><rect class="cls-2" x="90.55" y="111.58" width="1.11" height=".27"/><rect class="cls-2" x="94.98" y="111.58" width="1.11" height=".27"/><rect class="cls-2" x="92.76" y="111.58" width="1.11" height=".27"/><rect class="cls-2" x="79.47" y="111.58" width="1.11" height=".27"/><rect class="cls-2" x="67.62" y="103.87" width=".27" height="1.11"/><rect class="cls-2" x="67.62" y="106.09" width=".27" height="1.11"/><rect class="cls-2" x="67.62" y="101.65" width=".27" height="1.11"/><rect class="cls-2" x="67.62" y="99.44" width=".27" height="1.11"/><rect class="cls-2" x="67.62" y="92.79" width=".27" height="1.11"/><path class="cls-2" d="M68.44,111.24c.29.26.65.45,1.03.54l.07-.27c-.34-.08-.65-.25-.91-.48l-.18.21Z"/><path class="cls-2" d="M67.89,108.3h-.27v1.11c0,.3.05.6.16.88l.26-.1c-.1-.25-.14-.51-.14-.78v-1.11Z"/><rect class="cls-2" x="67.62" y="81.71" width=".27" height="1.11"/><rect class="cls-2" x="67.62" y="83.93" width=".27" height="1.11"/><rect class="cls-2" x="70.61" y="111.58" width="1.11" height=".27"/><rect class="cls-2" x="67.62" y="97.22" width=".27" height="1.11"/><rect class="cls-2" x="67.62" y="86.15" width=".27" height="1.11"/><rect class="cls-2" x="67.62" y="95.01" width=".27" height="1.11"/><rect class="cls-2" x="67.62" y="90.58" width=".27" height="1.11"/><rect class="cls-2" x="67.62" y="88.36" width=".27" height="1.11"/><rect class="cls-2" x="140.43" y="99.82" width=".27" height="1.11"/><rect class="cls-2" x="140.43" y="104.25" width=".27" height="1.11"/><rect class="cls-2" x="140.43" y="97.6" width=".27" height="1.11"/><rect class="cls-2" x="140.43" y="102.03" width=".27" height="1.11"/><rect class="cls-2" x="140.43" y="93.17" width=".27" height="1.11"/><rect class="cls-2" x="140.43" y="95.39" width=".27" height="1.11"/><rect class="cls-2" x="140.43" y="90.96" width=".27" height="1.11"/><rect class="cls-2" x="103.84" y="111.58" width="1.11" height=".27"/><rect class="cls-2" x="134.86" y="111.58" width="1.11" height=".27"/><rect class="cls-2" x="137.07" y="111.58" width="1.11" height=".27"/><path class="cls-2" d="M139.2,111.37l.12.25c.35-.17.66-.42.9-.74l-.22-.16c-.21.28-.49.5-.8.65Z"/><rect class="cls-2" x="140.43" y="106.46" width=".27" height="1.11"/><path class="cls-2" d="M140.43,109.41c0,.12,0,.24-.03.35l.27.04c.02-.13.03-.27.03-.4v-.73h-.27v.73Z"/><rect class="cls-2" x="140.43" y="88.74" width=".27" height="1.11"/><rect class="cls-2" x="140.43" y="82.09" width=".27" height="1.11"/><rect class="cls-2" x="140.43" y="86.52" width=".27" height="1.11"/><rect class="cls-2" x="140.43" y="84.31" width=".27" height="1.11"/><rect class="cls-2" x="114.92" y="111.58" width="1.11" height=".27"/><rect class="cls-2" x="112.7" y="111.58" width="1.11" height=".27"/><rect class="cls-2" x="117.13" y="111.58" width="1.11" height=".27"/><rect class="cls-2" x="106.06" y="111.58" width="1.11" height=".27"/><rect class="cls-2" x="110.49" y="111.58" width="1.11" height=".27"/><rect class="cls-2" x="108.27" y="111.58" width="1.11" height=".27"/><rect class="cls-2" x="128.21" y="111.58" width="1.11" height=".27"/><rect class="cls-2" x="126" y="111.58" width="1.11" height=".27"/><rect class="cls-2" x="132.64" y="111.58" width="1.11" height=".27"/><rect class="cls-2" x="130.43" y="111.58" width="1.11" height=".27"/><rect class="cls-2" x="119.35" y="111.58" width="1.11" height=".27"/><rect class="cls-2" x="123.78" y="111.58" width="1.11" height=".27"/><rect class="cls-2" x="121.56" y="111.58" width="1.11" height=".27"/><rect class="cls-2" x="67.62" y="80.33" width=".27" height=".27"/><rect class="cls-2" x="140.43" y="80.33" width=".27" height=".65"/><path class="cls-1" d="M127.78,78.19h16.4v15.78h-16.4c-4.35,0-7.89-3.54-7.89-7.89h0c0-4.35,3.54-7.89,7.89-7.89Z"/><circle class="cls-2" cx="126.38" cy="85.76" r="2.35"/></g></svg>