<?xml version="1.0" encoding="utf-8"?><!--Generator: Adobe Illustrator 28.0.0, SVG Export Plug-In . SVG Version: 6.00 Build 0)--><svg version="1.1" xmlns="http://www.w3.org/2000/svg" xmlns:xlink="http://www.w3.org/1999/xlink" x="0px" y="0px" viewBox="0 0 160 160" style="enable-background:new 0 0 160 160;" xml:space="preserve"><style type="text/css">.st0{fill:#232144;}
	.st1{fill:#DA3245;}
	.st2{fill:#C8E2FF;}
	.st3{fill:#D8E3FF;}
	.st4{fill:#EEA33B;}
	.st5{fill:#463EB8;}
	.st6{fill:#4B7CF1;}
	.st7{fill:#C3D1E5;}
	.st8{fill:#7070FF;}
	.st9{fill:#D9D6CD;}
	.st10{fill:#9EABAC;}
	.st11{fill:#F7E5CD;}
	.st12{display:none;}</style><g id="Design"><g><path class="st0" d="M31.1,116.3v9.1c0,1.4,1.2,2.6,2.6,2.6h6.8c1.4,0,2.6-1.2,2.6-2.6v-9.1H31.1z"/><path class="st0" d="M82.7,116.3v9.1c0,1.4,1.2,2.6,2.6,2.6h6.8c1.4,0,2.6-1.2,2.6-2.6v-9.1H82.7z"/><rect x="132" y="68.9" class="st2" width="3" height="59.1"/><g><rect x="123" y="43.2" class="st4" width="21" height="25.7"/><rect x="123" y="43.2" class="st0" width="21" height="6.1"/></g><g><polygon class="st0" points="102.1,43.2 102.1,43.2 96.6,43.2 97.8,48.7 102.1,48.7 102.1,61.7 109.7,61.7 109.7,43.2 			"/><polygon class="st0" points="29.1,43.2 23.6,43.2 23.6,43.2 16,43.2 16,61.7 23.6,61.7 23.6,48.7 28,48.7 			"/><path class="st1" d="M87.1,34.3l-48.5,0c-6,0-10.5,3.5-10.8,8.9v5.5l70,0v-5.6C97.6,37.7,93.1,34.3,87.1,34.3z"/><polygon class="st2" points="97.9,48.7 27.9,48.7 26.2,87.5 62.8,87.5 62.8,87.5 99.6,87.5 			"/><path class="st1" d="M26.2,87.5v26.3c0,2.7,2.2,4.9,4.9,4.9l63.5,0c2.7,0,4.9-2.2,4.9-4.9V87.5L26.2,87.5z"/><path class="st2" d="M43.1,104.6v-1.5c0-3.1-2.5-5.7-5.7-5.7h-8.7v2.1c0,2.8,2.3,5.1,5.1,5.1H43.1z"/><ellipse class="st2" cx="33" cy="113.5" rx="2" ry="2"/><path class="st2" d="M82.7,104.6v-1.5c0-3.1,2.5-5.7,5.7-5.7h8.7v2.1c0,2.8-2.3,5.1-5.1,5.1H82.7z"/><ellipse class="st2" cx="92.7" cy="113.5" rx="2" ry="2"/><path class="st0" d="M44.5,97.4l2,9.1c0.4,1.4,1.3,2.3,3.1,2.3h26.5c1.8,0,2.7-0.9,3.1-2.3l2-9.1H44.5z"/><rect x="35.6" y="43.3" class="st0" width="54.5" height="5.4"/></g></g></g><g id="stramien" class="st12"/></svg>