<svg viewBox="0 0 160 160" fill="none" xmlns="http://www.w3.org/2000/svg"><path d="M121.71 122.31C121.19 119.7 118.64 118 116.02 118.52L108.34 120.05L112.33 116.53C113.89 115.12 114 112.71 112.59 111.16C110.8 109.19 107.74 109.04 105.76 110.83L103.89 112.53C104.58 111.16 104.41 109.46 103.32 108.26C101.53 106.29 98.47 106.14 96.49 107.93L85.28 118.1L73.24 119.05C71.56 118.48 71.48 115.81 73.91 115.63C75.7 115.49 79.22 115.25 79.22 115.25L70.93 112.92L69.63 107.39L52.88 108.01L15.99 106.53V135.36L53.76 130.27L75.97 134.34L97.54 130.73L118.72 126.8C120.78 126.39 122.12 124.38 121.71 122.32V122.31Z" fill="#F0A86B"/><path d="M90.18 61.5798L102.23 55.5098L102.92 56.8598L90.87 62.9398L90.18 61.5798Z" fill="#FBB03B"/><path d="M90.18 61.5801L95.55 58.8701L96.24 60.2301L90.87 62.9401L90.18 61.5801Z" fill="#F7931E"/><path d="M81.02 92.6193C84.9964 92.6193 88.22 89.4002 88.22 85.4293C88.22 81.4583 84.9964 78.2393 81.02 78.2393C77.0435 78.2393 73.82 81.4583 73.82 85.4293C73.82 89.4002 77.0435 92.6193 81.02 92.6193Z" fill="#F7931E"/><path d="M81.02 91.3897C84.3171 91.3897 86.99 88.7213 86.99 85.4297C86.99 82.1381 84.3171 79.4697 81.02 79.4697C77.7228 79.4697 75.05 82.1381 75.05 85.4297C75.05 88.7213 77.7228 91.3897 81.02 91.3897Z" fill="#FBB03B"/><path d="M131.63 94.8901L81.02 120.93L68.11 95.9101L118.72 69.8701L131.63 94.8901Z" fill="#AACDE5"/><path d="M92.71 114.919L79.87 121.529L66.96 96.4994L79.79 89.8994L92.71 114.919Z" fill="#D5EFFF"/><path d="M82.69 95.5193L75.84 99.0393L73.81 95.0993L80.66 91.5693L82.69 95.5193Z" fill="#4B7CFE"/><path d="M84.45 115.91C84.51 115.88 84.55 115.9 84.58 115.95L84.8 116.37C84.83 116.43 84.82 116.47 84.76 116.5L82.42 117.7C82.34 117.74 82.31 117.73 82.27 117.66L82.13 117.39C81.45 116.08 82.92 114.65 82.48 113.81C82.29 113.45 81.95 113.39 81.6 113.58C81.3 113.74 81.08 114.01 80.91 114.28C80.87 114.34 80.82 114.36 80.76 114.32L80.43 114.12C80.35 114.07 80.36 114.03 80.4 113.93C80.57 113.56 80.93 113.19 81.33 112.98C81.78 112.75 82.17 112.7 82.5 112.81C82.77 112.91 83.01 113.11 83.18 113.44C83.71 114.47 82.39 116.01 82.71 116.8L84.44 115.91H84.45Z" fill="#254471"/><path d="M84.55 114.11C83.82 112.69 83.97 111.64 84.91 111.15C85.78 110.7 86.64 111.09 87.35 112.46C88.08 113.88 87.94 114.93 87 115.42C86.13 115.87 85.26 115.46 84.56 114.1L84.55 114.11ZM86.64 112.87C86.13 111.87 85.64 111.51 85.18 111.74C84.68 112 84.73 112.69 85.25 113.69C85.77 114.69 86.25 115.06 86.72 114.82C87.22 114.56 87.17 113.87 86.65 112.86L86.64 112.87Z" fill="#254471"/><path d="M114.52 82.7901C114.62 82.7401 114.68 82.7601 114.73 82.8601L115.08 83.5501C115.13 83.6401 115.12 83.7101 115.01 83.7601L111.2 85.7201C111.07 85.7901 111.01 85.7701 110.96 85.6601L110.73 85.2101C109.63 83.0701 112.01 80.7501 111.31 79.3901C111.01 78.8001 110.45 78.7101 109.88 79.0101C109.39 79.2601 109.04 79.7001 108.76 80.1501C108.7 80.2501 108.62 80.2801 108.51 80.2201L107.98 79.8901C107.86 79.8101 107.87 79.7401 107.94 79.5801C108.22 78.9801 108.8 78.3701 109.46 78.0301C110.2 77.6501 110.83 77.5701 111.37 77.7501C111.82 77.9101 112.2 78.2401 112.47 78.7701C113.33 80.4401 111.18 82.9501 111.7 84.2301L114.52 82.7801V82.7901Z" fill="#254471"/><path d="M114.68 79.8594C113.49 77.5494 113.73 75.8294 115.26 75.0494C116.68 74.3194 118.09 74.9594 119.24 77.1894C120.43 79.4894 120.2 81.2094 118.66 81.9994C117.24 82.7294 115.82 82.0694 114.68 79.8594ZM118.09 77.8394C117.25 76.2094 116.46 75.6194 115.71 76.0094C114.9 76.4294 114.97 77.5494 115.82 79.1894C116.66 80.8094 117.44 81.4194 118.21 81.0294C119.02 80.6094 118.94 79.4794 118.1 77.8394H118.09Z" fill="#254471"/><path d="M141.24 85.4297H84.31V113.58H141.24V85.4297Z" fill="#F7C7A1"/><path d="M97.45 85.4297H83.01V113.58H97.45V85.4297Z" fill="#F7E5CD"/><path d="M97.46 87.3193H89.75V91.7593H97.46V87.3193Z" fill="#4B7CFE"/><path d="M129.64 91.4298C130.33 91.4298 130.91 91.6498 131.29 92.0598C131.66 92.4498 131.89 92.9998 131.89 93.6898C131.89 95.3198 130.72 96.2198 129.1 96.2198C128.36 96.2198 127.63 96.0198 127.17 95.7398C127.07 95.6798 127.05 95.5998 127.11 95.4898L127.39 94.8898C127.44 94.7698 127.51 94.7498 127.62 94.8098C128.07 95.0298 128.57 95.1698 129.15 95.1698C130.12 95.1698 130.58 94.5298 130.58 93.7598C130.58 92.8198 130.05 92.4198 129.18 92.4198C128.69 92.4198 128.24 92.4998 127.66 92.6498C127.54 92.6798 127.47 92.6298 127.47 92.5198V88.7498C127.47 88.6498 127.51 88.5898 127.63 88.5898H131.44C131.56 88.5898 131.6 88.6398 131.6 88.7498V89.5198C131.6 89.6198 131.56 89.6798 131.44 89.6798H128.67V91.5499C128.97 91.4699 129.29 91.4298 129.64 91.4298Z" fill="#891229"/><path d="M133.08 92.4993C133.08 89.8993 134.08 88.4893 135.8 88.4893C137.39 88.4893 138.35 89.6993 138.35 92.2093C138.35 94.7193 137.36 96.2193 135.63 96.2193C134.04 96.2193 133.08 94.9893 133.08 92.4993ZM137.04 92.2693C137.04 90.4393 136.61 89.5493 135.76 89.5493C134.85 89.5493 134.4 90.5893 134.4 92.4293C134.4 94.2693 134.82 95.1593 135.68 95.1593C136.59 95.1593 137.04 94.1193 137.04 92.2793V92.2693Z" fill="#891229"/><path d="M89.2593 25.6483L81.5143 52.7119L136.247 68.3753L143.992 41.3117L89.2593 25.6483Z" fill="#F7C7A1"/><path d="M88.0263 25.3026L80.2813 52.3662L94.164 56.3391L101.909 29.2756L88.0263 25.3026Z" fill="#F7E5CD"/><path d="M93.9758 28.9677L92.7542 33.2363L100.167 35.3576L101.388 31.089L93.9758 28.9677Z" fill="#4B7CFE"/><path d="M86.89 48.9493C87.3 49.0693 87.6 49.2893 87.76 49.5993C87.91 49.8893 87.95 50.2593 87.84 50.6593C87.56 51.6193 86.72 51.9593 85.76 51.6793C85.32 51.5493 84.93 51.3193 84.71 51.0693C84.66 51.0193 84.67 50.9693 84.71 50.9093L84.98 50.6093C85.03 50.5493 85.08 50.5493 85.13 50.5993C85.36 50.8093 85.63 50.9693 85.97 51.0693C86.55 51.2393 86.93 50.9393 87.06 50.4793C87.22 49.9193 86.97 49.5993 86.46 49.4493C86.17 49.3693 85.89 49.3393 85.52 49.3293C85.45 49.3293 85.41 49.2893 85.43 49.2193L86.07 46.9893C86.09 46.9293 86.12 46.8993 86.19 46.9193L88.44 47.5593C88.51 47.5793 88.52 47.6193 88.51 47.6793L88.38 48.1393C88.36 48.1993 88.33 48.2293 88.26 48.2093L86.62 47.7393L86.3 48.8493C86.49 48.8493 86.68 48.8893 86.89 48.9493Z" fill="#891229"/><path d="M88.74 50.1593C89.18 48.6193 90.01 47.9593 91.03 48.2493C91.97 48.5193 92.33 49.3993 91.91 50.8793C91.47 52.4093 90.64 53.0793 89.62 52.7893C88.68 52.5193 88.32 51.6293 88.74 50.1593ZM91.11 50.6893C91.42 49.6093 91.32 49.0093 90.82 48.8693C90.28 48.7193 89.84 49.2493 89.53 50.3393C89.22 51.4193 89.31 52.0193 89.82 52.1693C90.36 52.3193 90.8 51.7793 91.11 50.6993V50.6893Z" fill="#891229"/><path d="M131.18 43.8498C131.84 44.0398 132.34 44.4098 132.6 44.9098C132.85 45.3798 132.91 45.9798 132.72 46.6398C132.27 48.2098 130.89 48.7498 129.34 48.2998C128.63 48.0998 127.99 47.7098 127.62 47.3098C127.54 47.2198 127.55 47.1498 127.62 47.0498L128.06 46.5498C128.14 46.4498 128.22 46.4498 128.3 46.5298C128.67 46.8598 129.12 47.1298 129.67 47.2898C130.61 47.5598 131.22 47.0698 131.44 46.3298C131.7 45.4298 131.3 44.8998 130.46 44.6598C129.99 44.5298 129.53 44.4798 128.94 44.4598C128.82 44.4598 128.77 44.3898 128.79 44.2898L129.83 40.6598C129.86 40.5598 129.91 40.5198 130.02 40.5498L133.68 41.5998C133.79 41.6298 133.82 41.6898 133.79 41.7898L133.58 42.5298C133.55 42.6298 133.5 42.6698 133.39 42.6398L130.72 41.8798L130.2 43.6798C130.51 43.6798 130.82 43.7398 131.17 43.8398L131.18 43.8498Z" fill="#891229"/><path d="M134.19 45.8199C134.91 43.3199 136.26 42.2399 137.91 42.7099C139.44 43.1499 140.03 44.5799 139.34 46.9899C138.63 49.4799 137.28 50.5699 135.62 50.0999C134.09 49.6599 133.5 48.2099 134.19 45.8199ZM138.06 46.6899C138.56 44.9299 138.4 43.9599 137.58 43.7299C136.7 43.4799 135.98 44.3499 135.48 46.1199C134.98 47.8799 135.13 48.8599 135.96 49.0899C136.84 49.3399 137.56 48.4599 138.06 46.6899Z" fill="#891229"/><path d="M100.186 69.7648L87.3599 65.5527L86.8856 66.9969L99.7117 71.2089L100.186 69.7648Z" fill="#FBB03B"/><path d="M100.184 69.7581L94.464 67.8799L93.9898 69.324L99.7093 71.2023L100.184 69.7581Z" fill="#F7931E"/><path d="M96.63 109.31C96.85 111.71 95.05 113.83 92.63 114L69.28 116.15L66.95 107.49L92.02 105.39C94.37 105.22 96.42 106.96 96.63 109.31Z" fill="#F0A86B"/></svg>