<svg viewBox="0 0 160 160" fill="none" xmlns="http://www.w3.org/2000/svg"><path fill-rule="evenodd" clip-rule="evenodd" d="M102.15 130.565H52.04C46.81 130.565 42.55 126.327 42.55 121.124C42.55 115.921 46.64 112.051 51.67 112.051H78.28C80.79 112.051 82.82 110.022 82.82 107.535V101.486H88.14V107.535C88.14 112.947 83.72 117.354 78.27 117.354H51.66C49.57 117.354 47.87 119.045 47.87 121.124C47.87 123.412 49.74 125.272 52.03 125.272H102.14V130.565H102.15Z" fill="#B9C4C5"/><path fill-rule="evenodd" clip-rule="evenodd" d="M95.11 118.814H111.63V137H95.11C94.14 137 93.35 136.214 93.35 135.249V120.565C93.35 119.6 94.14 118.814 95.11 118.814Z" fill="#B9C4C5"/><path fill-rule="evenodd" clip-rule="evenodd" d="M120.18 126.286H106.62C105.52 126.286 104.62 125.4 104.62 124.296C104.62 123.192 105.51 122.307 106.62 122.307H120.18C121.28 122.307 122.18 123.192 122.18 124.296C122.18 125.4 121.29 126.286 120.18 126.286Z" fill="#B9C4C5"/><path fill-rule="evenodd" clip-rule="evenodd" d="M120.18 133.618H106.62C105.52 133.618 104.62 132.733 104.62 131.628C104.62 130.524 105.51 129.639 106.62 129.639H120.18C121.28 129.639 122.18 130.524 122.18 131.628C122.18 132.733 121.29 133.618 120.18 133.618Z" fill="#B9C4C5"/><path fill-rule="evenodd" clip-rule="evenodd" d="M19.5 46.4824H24.84C26.773 46.4824 28.34 48.0413 28.34 49.9643V49.9742C28.34 51.8972 26.773 53.456 24.84 53.456H19.5C17.567 53.456 16 51.8972 16 49.9742V49.9643C16 48.0413 17.567 46.4824 19.5 46.4824Z" fill="#4B7CFE"/><path fill-rule="evenodd" clip-rule="evenodd" d="M25.75 52.4202H33.67V50.6992H25.75V52.4202Z" fill="#4B7CFE"/><path fill-rule="evenodd" clip-rule="evenodd" d="M140.5 53.4463H135.16C133.227 53.4463 131.66 51.8874 131.66 49.9644V49.9545C131.66 48.0315 133.227 46.4727 135.16 46.4727H140.5C142.433 46.4727 144 48.0315 144 49.9545V49.9644C144 51.8874 142.433 53.4463 140.5 53.4463Z" fill="#4B7CFE"/><path fill-rule="evenodd" clip-rule="evenodd" d="M126.33 52.4202H134.25V50.6992H126.33V52.4202Z" fill="#4B7CFE"/><path fill-rule="evenodd" clip-rule="evenodd" d="M23.16 101.059H40.23V111.494C40.23 115.772 36.74 119.244 32.44 119.244H30.96C26.66 119.244 23.17 115.772 23.17 111.494V101.059H23.16Z" fill="#232144"/><path fill-rule="evenodd" clip-rule="evenodd" d="M119.78 101.059H136.85V111.494C136.85 115.772 133.36 119.244 129.06 119.244H127.58C123.28 119.244 119.79 115.772 119.79 111.494V101.059H119.78Z" fill="#232144"/><path fill-rule="evenodd" clip-rule="evenodd" d="M110.58 24H49.43C42.4 24 36.33 28.8945 34.87 35.7288L30.25 57.356H129.77L125.15 35.7288C123.69 28.8945 117.62 24 110.59 24H110.58Z" fill="#4B7CFE"/><path fill-rule="evenodd" clip-rule="evenodd" d="M28.42 54.9688H131.57C136.33 54.9688 140.19 58.8087 140.19 63.544V103.177H19.8V63.544C19.8 58.8087 23.66 54.9688 28.42 54.9688Z" fill="#4B7CFE"/><path fill-rule="evenodd" clip-rule="evenodd" d="M108.33 27.9805H51.67C46.03 27.9805 41.14 31.8702 39.9 37.3416L35.67 56.0242H124.33L120.1 37.3416C118.86 31.8702 113.97 27.9805 108.33 27.9805Z" fill="#DCF2FF"/><path fill-rule="evenodd" clip-rule="evenodd" d="M63.89 48.2232H60.46C61.752 48.2232 62.8 47.1807 62.8 45.8954V43.5974C62.8 42.3121 61.752 41.2695 60.46 41.2695H52.17C50.878 41.2695 49.83 42.3121 49.83 43.5974V45.8954C49.83 47.1807 50.878 48.2232 52.17 48.2232H48.73C45.07 48.2232 42.09 51.1778 42.09 54.8288V56.0226H70.53V54.8288C70.53 51.1878 67.56 48.2232 63.89 48.2232Z" fill="#232144"/><path fill-rule="evenodd" clip-rule="evenodd" d="M111.26 48.2232H107.83C109.122 48.2232 110.17 47.1807 110.17 45.8954V43.5974C110.17 42.3121 109.122 41.2695 107.83 41.2695H99.54C98.248 41.2695 97.2 42.3121 97.2 43.5974V45.8954C97.2 47.1807 98.248 48.2232 99.54 48.2232H96.1C92.44 48.2232 89.46 51.1778 89.46 54.8288V56.0226H117.9V54.8288C117.9 51.1878 114.93 48.2232 111.26 48.2232Z" fill="#232144"/><path fill-rule="evenodd" clip-rule="evenodd" d="M67.3 71.7695H92.69C99.77 71.7695 105.52 77.4897 105.52 84.5329V90.8102H54.48V84.5329C54.48 77.4897 60.23 71.7695 67.31 71.7695H67.3Z" fill="#232144"/><path fill-rule="evenodd" clip-rule="evenodd" d="M23.16 63.7617H40.71C46.77 63.7617 51.69 68.6562 51.69 74.6847H34.14C28.08 74.6847 23.16 69.7903 23.16 63.7617Z" fill="white"/><path fill-rule="evenodd" clip-rule="evenodd" d="M119.29 63.7617H136.84C136.84 69.7903 131.92 74.6847 125.86 74.6847H108.31C108.31 68.6562 113.23 63.7617 119.29 63.7617Z" fill="white"/></svg>