<svg viewBox="0 0 160 160" fill="none" xmlns="http://www.w3.org/2000/svg"><path d="M18.5 49.3802L41.63 26.4902L87.2 26.5702L144 83.9502L91.9 135.52L18.44 61.3102C15.16 58.0002 15.19 52.6602 18.5 49.3802Z" fill="#420F0F"/><path d="M29.83 60.7993C32.597 60.7993 34.84 58.5562 34.84 55.7893C34.84 53.0224 32.597 50.7793 29.83 50.7793C27.0631 50.7793 24.82 53.0224 24.82 55.7893C24.82 58.5562 27.0631 60.7993 29.83 60.7993Z" fill="#F5B091"/><path d="M105.599 65.8303L100.651 33.1932C100.4 31.5332 98.8498 30.3915 97.1899 30.6431L42.1586 38.9855C40.4986 39.2371 39.3569 40.7868 39.6086 42.4468L44.5561 75.0839C44.8078 76.7439 46.3574 77.8856 48.0174 77.6339L103.049 69.2916C104.709 69.0399 105.85 67.4903 105.599 65.8303Z" fill="#FF6200"/><path d="M50.94 55.2598L47.71 55.7498L47.92 57.1098C47.99 57.5598 48.31 57.8798 48.63 57.8298L51.27 57.4298L50.94 55.2698V55.2598Z" fill="white"/><path d="M56.86 54.3691L53.69 54.8491L54.02 57.0091L56.61 56.6191C56.93 56.5691 57.13 56.1691 57.06 55.7191L56.86 54.3691Z" fill="white"/><path d="M56.562 52.4415L53.9415 52.8359L54.199 54.5467L56.8195 54.1522L56.562 52.4415Z" fill="white"/><path d="M50.0306 53.422L47.4101 53.8164L47.6676 55.5271L50.2881 55.1327L50.0306 53.422Z" fill="white"/><path d="M52.8103 50.5526L50.4864 50.9023L50.6189 51.7824L52.9427 51.4326L52.8103 50.5526Z" fill="white"/><path d="M53.6618 56.2029L51.338 56.5527L51.466 57.4032L53.7898 57.0534L53.6618 56.2029Z" fill="white"/><path d="M53.36 52.7084L56.53 52.2284L56.32 50.8384C56.25 50.3884 55.94 50.0684 55.62 50.1184L53.03 50.5084L53.36 52.7084Z" fill="white"/><path d="M50.28 50.9182L47.64 51.3182C47.32 51.3682 47.11 51.7682 47.18 52.2182L47.39 53.5982L50.62 53.1082L50.29 50.9082L50.28 50.9182Z" fill="white"/><path d="M50.71 56.5395L50.01 51.9695L53.54 51.4395L54.24 56.0095L50.71 56.5395Z" fill="white"/><path d="M50.54 56.6688L49.81 51.8888L53.71 51.2988L54.44 56.0788L50.54 56.6688ZM50.07 52.0588L50.74 56.4288L54.18 55.9088L53.51 51.5388L50.07 52.0588Z" fill="#FF6200"/><path d="M59.53 54.5583C59.47 54.5583 59.41 54.5583 59.36 54.5183C59.26 54.4483 59.24 54.3083 59.31 54.2083C59.9 53.4083 59.73 52.2883 58.93 51.6983C58.83 51.6283 58.81 51.4883 58.88 51.3883C58.95 51.2883 59.09 51.2683 59.19 51.3383C60.19 52.0683 60.4 53.4783 59.66 54.4783C59.62 54.5283 59.57 54.5583 59.51 54.5683L59.53 54.5583Z" fill="white"/><path d="M60.53 54.8093C60.47 54.8093 60.41 54.8093 60.36 54.7693C60.26 54.6993 60.24 54.5593 60.31 54.4593C61.08 53.4093 60.86 51.9393 59.81 51.1593C59.71 51.0893 59.69 50.9493 59.76 50.8493C59.83 50.7493 59.97 50.7293 60.07 50.7993C61.31 51.7193 61.58 53.4793 60.66 54.7193C60.62 54.7693 60.57 54.7993 60.51 54.8093H60.53Z" fill="white"/><path d="M61.53 55.07C61.47 55.07 61.41 55.07 61.36 55.03C61.26 54.96 61.24 54.82 61.31 54.72C61.77 54.09 61.97 53.32 61.85 52.55C61.73 51.78 61.32 51.09 60.69 50.63C60.59 50.56 60.57 50.42 60.64 50.32C60.71 50.22 60.85 50.2 60.95 50.27C61.68 50.81 62.15 51.59 62.28 52.48C62.41 53.37 62.19 54.26 61.66 54.99C61.62 55.04 61.57 55.07 61.51 55.08L61.53 55.07Z" fill="white"/><path d="M62.63 55.2692C62.57 55.2692 62.51 55.2692 62.46 55.2292C62.36 55.1592 62.34 55.0192 62.41 54.9192C63.47 53.4892 63.11 51.1392 61.68 50.0792C61.58 50.0092 61.56 49.8692 61.63 49.7692C61.7 49.6692 61.84 49.6492 61.94 49.7192C63.56 50.9092 63.96 53.5692 62.76 55.1792C62.72 55.2292 62.67 55.2592 62.61 55.2692H62.63Z" fill="white"/><path d="M135.471 84.028L92.5074 40.627L49.1064 83.5908L92.0703 126.992L135.471 84.028Z" fill="#FFD4C2"/><path d="M89.14 52.7895L88.74 52.3995L93.53 47.5895L91.82 47.3195L91.9 46.7695L94.7 47.2095L89.14 52.7895Z" fill="#88172A"/><path d="M87.6182 51.1263L87.2214 51.5215L89.8327 54.1428L90.2294 53.7476L87.6182 51.1263Z" fill="#88172A"/><path d="M91.74 55.8397C91.5 55.7697 91.28 55.6297 91.1 55.4397C90.67 54.9797 90.58 54.3197 90.83 53.5297C91.38 51.7497 93.5 49.7097 95.18 49.3297C95.9 49.1697 96.5 49.3197 96.92 49.7697C97.18 50.0497 97.44 50.5897 97.15 51.5097C96.6 53.2897 94.36 55.4797 92.72 55.8497C92.36 55.9297 92.03 55.9297 91.74 55.8497V55.8397ZM96.07 49.8797C95.85 49.8097 95.6 49.8097 95.3 49.8797C93.84 50.2097 91.85 52.1397 91.36 53.6997C91.17 54.2997 91.23 54.7497 91.51 55.0697C91.76 55.3397 92.12 55.4197 92.59 55.3097C94.04 54.9797 96.11 52.9497 96.6 51.3497C96.71 50.9797 96.79 50.4697 96.5 50.1497C96.38 50.0197 96.23 49.9297 96.06 49.8797H96.07Z" fill="#88172A"/><path d="M107.917 47.5035L144.007 83.9613L90.7845 136.648L53.308 98.79L105.131 47.4894C105.905 46.7226 107.15 46.7289 107.917 47.5035Z" fill="#9E3F39"/><path d="M91.57 132.99L91.31 132.73L92.36 131.69L92.62 131.95L91.57 132.99ZM90.27 131.96L89.23 130.91L89.49 130.65L90.53 131.7L90.27 131.96ZM93.67 130.91L93.41 130.65L94.46 129.61L94.72 129.87L93.67 130.91ZM88.19 129.86L87.15 128.81L87.41 128.55L88.45 129.6L88.19 129.86ZM95.77 128.83L95.51 128.57L96.56 127.53L96.82 127.79L95.77 128.83ZM86.11 127.76L85.07 126.71L85.33 126.45L86.37 127.5L86.11 127.76ZM97.87 126.75L97.61 126.49L98.66 125.45L98.92 125.71L97.87 126.75ZM84.03 125.66L82.99 124.61L83.25 124.35L84.29 125.4L84.03 125.66ZM99.97 124.67L99.71 124.41L100.76 123.37L101.02 123.63L99.97 124.67ZM81.96 123.56L80.92 122.51L81.18 122.25L82.22 123.3L81.96 123.56ZM102.07 122.6L101.81 122.34L102.86 121.3L103.12 121.56L102.07 122.6ZM79.88 121.46L78.84 120.41L79.1 120.15L80.14 121.2L79.88 121.46ZM104.17 120.52L103.91 120.26L104.96 119.22L105.22 119.48L104.17 120.52ZM77.8 119.36L76.76 118.31L77.02 118.05L78.06 119.1L77.8 119.36ZM106.27 118.44L106.01 118.18L107.06 117.14L107.32 117.4L106.27 118.44ZM75.72 117.26L74.68 116.21L74.94 115.95L75.98 117L75.72 117.26ZM108.37 116.36L108.11 116.1L109.16 115.06L109.42 115.32L108.37 116.36ZM73.64 115.16L72.6 114.11L72.86 113.85L73.9 114.9L73.64 115.16ZM110.47 114.28L110.21 114.02L111.26 112.98L111.52 113.24L110.47 114.28ZM71.56 113.06L70.52 112.01L70.78 111.75L71.82 112.8L71.56 113.06ZM112.57 112.2L112.31 111.94L113.36 110.9L113.62 111.16L112.57 112.2ZM69.48 110.96L68.44 109.91L68.7 109.65L69.74 110.7L69.48 110.96ZM114.67 110.12L114.41 109.86L115.46 108.82L115.72 109.08L114.67 110.12ZM67.4 108.86L66.36 107.81L66.62 107.55L67.66 108.6L67.4 108.86ZM116.77 108.04L116.51 107.78L117.56 106.74L117.82 107L116.77 108.04ZM65.32 106.76L64.28 105.71L64.54 105.45L65.58 106.5L65.32 106.76ZM118.87 105.97L118.61 105.71L119.66 104.67L119.92 104.93L118.87 105.97ZM63.24 104.66L62.2 103.61L62.46 103.35L63.5 104.4L63.24 104.66ZM120.97 103.89L120.71 103.63L121.76 102.59L122.02 102.85L120.97 103.89ZM61.16 102.56L60.12 101.51L60.38 101.25L61.42 102.3L61.16 102.56ZM123.07 101.81L122.81 101.55L123.86 100.51L124.12 100.77L123.07 101.81ZM59.09 100.46L58.05 99.4102L58.31 99.1502L59.35 100.2L59.09 100.46ZM125.17 99.7302L124.91 99.4702L125.96 98.4302L126.22 98.6902L125.17 99.7302ZM57.01 98.3602L55.97 97.3102L56.23 97.0502L57.27 98.1002L57.01 98.3602ZM127.27 97.6502L127.01 97.3902L128.06 96.3502L128.32 96.6102L127.27 97.6502ZM129.37 95.5702L129.11 95.3102L130.16 94.2702L130.42 94.5302L129.37 95.5702ZM131.47 93.4902L131.21 93.2302L132.26 92.1902L132.52 92.4502L131.47 93.4902ZM133.57 91.4102L133.31 91.1502L134.36 90.1102L134.62 90.3702L133.57 91.4102ZM135.67 89.3302L135.41 89.0702L136.46 88.0302L136.72 88.2902L135.67 89.3302ZM137.77 87.2502L137.51 86.9902L138.56 85.9502L138.82 86.2102L137.77 87.2502ZM139.87 85.1702L139.61 84.9102L139.95 84.5702L139.51 84.1202L139.77 83.8602L140.47 84.5702L139.87 85.1702ZM138.48 83.0702L137.44 82.0202L137.7 81.7602L138.74 82.8102L138.48 83.0702ZM136.4 80.9702L135.36 79.9202L135.62 79.6602L136.66 80.7102L136.4 80.9702ZM134.32 78.8702L133.28 77.8202L133.54 77.5602L134.58 78.6102L134.32 78.8702ZM132.24 76.7702L131.2 75.7202L131.46 75.4602L132.5 76.5102L132.24 76.7702ZM130.16 74.6702L129.12 73.6202L129.38 73.3602L130.42 74.4102L130.16 74.6702ZM128.08 72.5702L127.04 71.5202L127.3 71.2602L128.34 72.3102L128.08 72.5702ZM126 70.4702L124.96 69.4202L125.22 69.1602L126.26 70.2102L126 70.4702ZM123.92 68.3702L122.88 67.3202L123.14 67.0602L124.18 68.1102L123.92 68.3702ZM121.84 66.2702L120.8 65.2202L121.06 64.9602L122.1 66.0102L121.84 66.2702ZM119.76 64.1702L118.72 63.1202L118.98 62.8602L120.02 63.9102L119.76 64.1702ZM117.68 62.0702L116.64 61.0202L116.9 60.7602L117.94 61.8102L117.68 62.0702ZM115.6 59.9702L114.56 58.9202L114.82 58.6602L115.86 59.7102L115.6 59.9702ZM113.52 57.8702L112.48 56.8202L112.74 56.5602L113.78 57.6102L113.52 57.8702ZM111.44 55.7702L110.4 54.7202L110.66 54.4602L111.7 55.5102L111.44 55.7702ZM109.36 53.6702L108.32 52.6202L108.58 52.3602L109.62 53.4102L109.36 53.6702ZM107.28 51.5702L106.24 50.5202L106.5 50.2602L107.54 51.3102L107.28 51.5702ZM105.2 49.4702L104.16 48.4202L104.42 48.1602L105.46 49.2102L105.2 49.4702Z" fill="#FBB03B"/><path d="M90.68 122.27C93.4469 122.27 95.69 120.027 95.69 117.26C95.69 114.493 93.4469 112.25 90.68 112.25C87.9131 112.25 85.67 114.493 85.67 117.26C85.67 120.027 87.9131 122.27 90.68 122.27Z" fill="#F5B091"/></svg>