<svg viewBox="0 0 160 160" fill="none" xmlns="http://www.w3.org/2000/svg"><g clip-path="url(#clip0_227_2961)"><path fill-rule="evenodd" clip-rule="evenodd" d="M39.043 132.861C40.266 131.495 40.151 129.397 38.785 128.174L27.872 118.398L23.442 123.343L34.356 133.119C35.721 134.343 37.819 134.227 39.043 132.861Z" fill="#F5836D"/><path fill-rule="evenodd" clip-rule="evenodd" d="M41.0639 131.317C42.2869 129.951 42.1719 127.853 40.8059 126.63L29.8929 116.854L25.4629 121.799L36.3769 131.575C37.7419 132.799 39.8399 132.683 41.0639 131.317Z" fill="#F5836D"/><path fill-rule="evenodd" clip-rule="evenodd" d="M49.1303 110.76C47.1373 113.574 45.6713 114.591 44.1183 115.669C42.5523 116.755 40.9323 117.879 38.8213 120.859C36.7113 123.839 36.1883 125.74 35.6823 127.579C35.1813 129.401 34.7083 131.121 32.7153 133.935C30.7223 136.749 29.2563 137.766 27.7033 138.843C26.1443 139.926 24.5303 141.048 22.4323 144H23.8753C25.6063 141.721 26.9523 140.775 28.3643 139.795C29.9303 138.709 31.5503 137.585 33.6613 134.605C35.7713 131.625 36.2943 129.724 36.8003 127.886C37.3013 126.064 37.7743 124.343 39.7673 121.529C41.7603 118.715 43.2263 117.698 44.7793 116.621C46.3453 115.534 47.9653 114.41 50.0753 111.43L49.1303 110.76Z" fill="#ED1E79"/><path fill-rule="evenodd" clip-rule="evenodd" d="M35.993 129.33C35.154 127.7 33.153 127.059 31.522 127.897L23.777 131.883C22.867 131.99 21.789 132.103 21.276 132.104C19.244 132.107 19.248 129.877 20.926 129.534C21.425 129.432 22.391 129.252 23.543 129.034L28.981 128.131C30.036 128.076 31.493 127.958 31.811 127.662L31.826 127.659L31.825 127.652C31.857 127.619 31.876 127.583 31.878 127.545C31.886 127.376 31.824 127.187 31.714 126.987L31.121 123.409L31.382 123.35L29.893 116.854L16 119.975V143.457L17.214 142.728L34.56 133.801C36.19 132.961 36.831 130.96 35.993 129.33Z" fill="#F5836D"/><path fill-rule="evenodd" clip-rule="evenodd" d="M73.836 118.933L67.648 122.822L55.563 103.595L61.75 99.7061L73.836 118.933Z" fill="#F5836D"/><path fill-rule="evenodd" clip-rule="evenodd" d="M46.0062 101.453C46.2372 99.4479 48.0492 98.0099 50.0542 98.2409L66.0772 100.086L65.2412 107.347L49.2182 105.501C47.2132 105.271 45.7752 103.458 46.0062 101.453Z" fill="#F5836D"/><path fill-rule="evenodd" clip-rule="evenodd" d="M45.8013 98.6609C46.0323 96.6559 47.8443 95.2179 49.8493 95.4489L65.8723 97.2939L65.0363 104.555L49.0133 102.709C47.0083 102.479 45.5703 100.666 45.8013 98.6609Z" fill="#F5836D"/><path fill-rule="evenodd" clip-rule="evenodd" d="M76.8229 117.134L70.4299 120.676L59.4249 100.811L65.8169 97.269L76.8229 117.134Z" fill="#F5836D"/><path fill-rule="evenodd" clip-rule="evenodd" d="M57.0128 111.922C57.0128 111.922 58.8958 114.722 59.6098 115.53C61.0918 117.206 62.9258 115.574 61.9818 113.941C61.3768 112.894 59.4898 109.797 58.0178 107.251C58.2198 107.403 55.1418 103.938 55.6188 103.469C56.6278 102.48 61.3898 103.879 61.3898 103.879L72.5808 115.974L59.3888 122.083L57.0128 111.922Z" fill="#F5836D"/><path fill-rule="evenodd" clip-rule="evenodd" d="M48.6416 123.618L37.9946 112.528L82.6136 69.6895L93.2616 80.7795L48.6416 123.618Z" fill="#FBB03B"/><path fill-rule="evenodd" clip-rule="evenodd" d="M79.5422 72.6388L73.7352 78.2138L78.9402 94.5288L84.7462 88.9548L79.5422 72.6388Z" fill="#ED1E79"/><path fill-rule="evenodd" clip-rule="evenodd" d="M67.3633 84.3313L61.5563 89.9063L66.7613 106.221L72.5673 100.647L67.3633 84.3313Z" fill="#ED1E79"/><path fill-rule="evenodd" clip-rule="evenodd" d="M55.1841 96.0242L49.3771 101.599L54.5821 117.914L60.3881 112.34L55.1841 96.0242Z" fill="#ED1E79"/><path fill-rule="evenodd" clip-rule="evenodd" d="M51.1425 101.385C53.0985 100.885 55.0875 102.065 55.5885 104.02L61.0205 125.263L53.9395 127.073L48.5075 105.831C48.0075 103.876 49.1875 101.886 51.1425 101.385Z" fill="#F5836D"/><path fill-rule="evenodd" clip-rule="evenodd" d="M74.2744 144L74.7404 138.223L76.8224 117.131L52.5414 117.825L56.0814 144H74.2744Z" fill="#F5836D"/><path fill-rule="evenodd" clip-rule="evenodd" d="M80.3813 43.3451C80.5333 43.5991 80.6963 43.8541 80.8703 44.1101C82.2823 46.1841 83.6763 47.1371 84.9033 46.8641C86.2563 46.5631 87.1253 44.8581 87.3603 43.4011C87.5863 41.9941 87.2593 40.8021 86.5273 40.3661C85.5803 39.8001 83.9203 40.3621 81.8533 41.9481C81.3063 42.3681 80.8143 42.8351 80.3813 43.3451ZM88.5993 66.4571C86.1713 65.6411 83.8743 64.0761 81.9553 61.9321C78.6293 58.2161 76.8173 53.1951 77.2253 48.8291C77.4233 46.7081 78.1293 44.8231 79.2953 43.2621C76.3163 37.818 77.8793 32.879 79.8253 29.593C81.5903 26.615 84.3663 23.814 87.6433 21.706C90.6243 19.79 93.5603 18.757 95.4973 18.944L95.4103 19.84C92.0733 19.518 84.3843 23.664 80.5993 30.052C78.8163 33.063 77.3743 37.552 79.9163 42.5091C80.3343 42.0491 80.7983 41.6231 81.3063 41.2331C84.3553 38.8941 86.0793 39.0501 86.9893 39.5931C88.0553 40.2291 88.5383 41.7431 88.2483 43.5441C87.9813 45.2071 87.0373 47.0341 85.5043 47.6201C85.3733 47.6701 85.2383 47.7111 85.0983 47.7421C83.9713 47.9931 82.1943 47.6541 80.1263 44.6161C80.0113 44.4481 79.9013 44.2801 79.7963 44.1121C78.8603 45.4801 78.2903 47.1021 78.1213 48.9131C77.7353 53.0381 79.4613 57.7961 82.6263 61.3321C84.4413 63.3601 86.6063 64.8371 88.8863 65.6041L88.5993 66.4571Z" fill="#FBB03B"/><path fill-rule="evenodd" clip-rule="evenodd" d="M75.1214 87.3275C75.2194 87.5825 75.0914 87.8695 74.8354 87.9665C74.5804 88.0645 74.2944 87.9365 74.1964 87.6805C74.0994 87.4255 74.2274 87.1395 74.4824 87.0415C74.7374 86.9445 75.0234 87.0725 75.1214 87.3275Z" fill="#F7E5CD"/><path fill-rule="evenodd" clip-rule="evenodd" d="M137.4 55.5811C136.756 56.1811 135.747 56.1451 135.147 55.5011C134.547 54.8571 134.583 53.8481 135.227 53.2481C135.871 52.6481 136.88 52.6841 137.48 53.3281C138.08 53.9721 138.044 54.9811 137.4 55.5811Z" fill="#ED1E79"/><path fill-rule="evenodd" clip-rule="evenodd" d="M111.948 60.2592C111.525 60.6532 110.862 60.6302 110.468 60.2062C110.074 59.7832 110.098 59.1212 110.521 58.7272C110.944 58.3332 111.606 58.3562 112.001 58.7792C112.395 59.2022 112.371 59.8652 111.948 60.2592Z" fill="#ED1E79"/><path fill-rule="evenodd" clip-rule="evenodd" d="M132.408 23.1589C132.004 23.5349 131.372 23.5129 130.995 23.1089C130.619 22.7049 130.642 22.0729 131.046 21.6959C131.45 21.3199 132.082 21.3429 132.458 21.7459C132.834 22.1499 132.812 22.7829 132.408 23.1589Z" fill="#ED1E79"/><path fill-rule="evenodd" clip-rule="evenodd" d="M90.6752 69.6731C90.2622 70.0581 89.6142 70.0351 89.2292 69.6221C88.8442 69.2081 88.8672 68.5611 89.2802 68.1761C89.6942 67.7911 90.3412 67.8141 90.7262 68.2271C91.1112 68.6401 91.0882 69.2881 90.6752 69.6731Z" fill="#ED1E79"/><path fill-rule="evenodd" clip-rule="evenodd" d="M108.587 20.002C108.224 20.34 107.656 20.32 107.318 19.957C106.981 19.594 107.001 19.026 107.363 18.688C107.726 18.35 108.294 18.371 108.632 18.733C108.97 19.096 108.95 19.664 108.587 20.002Z" fill="#ED1E79"/><path fill-rule="evenodd" clip-rule="evenodd" d="M126.65 70.113C126.419 70.328 126.058 70.315 125.843 70.084C125.628 69.854 125.641 69.492 125.871 69.277C126.102 69.062 126.464 69.075 126.679 69.306C126.894 69.537 126.881 69.898 126.65 70.113Z" fill="#FBB03B"/><path fill-rule="evenodd" clip-rule="evenodd" d="M84.9982 36.9795C84.6212 37.3305 84.0302 37.3095 83.6792 36.9325C83.3282 36.5555 83.3492 35.9655 83.7262 35.6135C84.1032 35.2625 84.6942 35.2835 85.0452 35.6605C85.3962 36.0375 85.3752 36.6285 84.9982 36.9795Z" fill="#ED1E79"/><path fill-rule="evenodd" clip-rule="evenodd" d="M109.894 65.4882C109.569 65.7902 109.061 65.7722 108.759 65.4482C108.457 65.1232 108.475 64.6152 108.799 64.3132C109.124 64.0102 109.632 64.0282 109.934 64.3532C110.237 64.6772 110.219 65.1862 109.894 65.4882Z" fill="#ABB8B9"/><path fill-rule="evenodd" clip-rule="evenodd" d="M143.7 52.9522C143.319 53.3072 142.722 53.2862 142.367 52.9052C142.012 52.5232 142.033 51.9272 142.414 51.5722C142.795 51.2162 143.392 51.2382 143.747 51.6192C144.102 52.0002 144.081 52.5972 143.7 52.9522Z" fill="#FBB03B"/><path fill-rule="evenodd" clip-rule="evenodd" d="M137.319 17.4327C137.088 17.6477 136.727 17.6347 136.512 17.4037C136.297 17.1737 136.31 16.8117 136.54 16.5967C136.771 16.3817 137.133 16.3947 137.348 16.6257C137.563 16.8567 137.55 17.2177 137.319 17.4327Z" fill="#FBB03B"/><path fill-rule="evenodd" clip-rule="evenodd" d="M100.167 63.9573C99.7586 64.3373 99.1196 64.3143 98.7396 63.9063C98.3596 63.4983 98.3816 62.8593 98.7906 62.4793C99.1986 62.0993 99.8376 62.1223 100.218 62.5303C100.598 62.9383 100.575 63.5773 100.167 63.9573Z" fill="#006931"/><path fill-rule="evenodd" clip-rule="evenodd" d="M141.729 33.6214C141.239 34.0784 140.471 34.0514 140.014 33.5604C139.557 33.0704 139.584 32.3024 140.075 31.8454C140.565 31.3884 141.333 31.4154 141.79 31.9064C142.247 32.3964 142.219 33.1644 141.729 33.6214Z" fill="#006931"/><path fill-rule="evenodd" clip-rule="evenodd" d="M137.315 63.7716C137.012 64.0536 136.538 64.0366 136.256 63.7336C135.973 63.4306 135.99 62.9566 136.293 62.6746C136.596 62.3926 137.07 62.4096 137.353 62.7126C137.635 63.0156 137.618 63.4896 137.315 63.7716Z" fill="#006931"/><path fill-rule="evenodd" clip-rule="evenodd" d="M88.8884 62.0888C88.4594 62.4888 87.7884 62.4648 87.3884 62.0358C86.9884 61.6068 87.0124 60.9348 87.4414 60.5358C87.8704 60.1358 88.5424 60.1598 88.9414 60.5888C89.3414 61.0178 89.3174 61.6888 88.8884 62.0888Z" fill="#F7E5CD"/><path fill-rule="evenodd" clip-rule="evenodd" d="M92.2551 49.6135C91.6311 50.1945 90.6541 50.1605 90.0721 49.5365C89.4911 48.9114 89.5261 47.9344 90.1501 47.3534C90.7741 46.7714 91.7511 46.8064 92.3321 47.4304C92.9141 48.0544 92.8791 49.0324 92.2551 49.6135Z" fill="#006931"/><path fill-rule="evenodd" clip-rule="evenodd" d="M111.267 28.378C110.762 28.848 109.972 28.82 109.501 28.315C109.031 27.81 109.059 27.02 109.564 26.55C110.069 26.079 110.859 26.107 111.33 26.612C111.8 27.117 111.772 27.908 111.267 28.378Z" fill="#7070FF"/><path fill-rule="evenodd" clip-rule="evenodd" d="M141.97 45.5376C141.683 45.8056 141.233 45.7896 140.965 45.5016C140.697 45.2146 140.713 44.7646 141.001 44.4966C141.288 44.2286 141.738 44.2446 142.006 44.5326C142.273 44.8196 142.257 45.2696 141.97 45.5376Z" fill="#7070FF"/><path fill-rule="evenodd" clip-rule="evenodd" d="M98.549 68.7873C98.772 69.0273 98.759 69.4023 98.519 69.6253C98.28 69.8493 97.904 69.8353 97.681 69.5963C97.458 69.3563 97.471 68.9813 97.711 68.7573C97.95 68.5343 98.326 68.5473 98.549 68.7873Z" fill="#FBB03B"/><path fill-rule="evenodd" clip-rule="evenodd" d="M113.714 86.5328C113.067 87.1358 112.054 87.0998 111.451 86.4528C110.849 85.8058 110.885 84.7928 111.532 84.1898C112.179 83.5868 113.192 83.6228 113.794 84.2698C114.397 84.9168 114.361 85.9298 113.714 86.5328Z" fill="#ABB8B9"/><path fill-rule="evenodd" clip-rule="evenodd" d="M94.3796 62.7634C93.9346 63.1774 93.2386 63.1534 92.8246 62.7084C92.4096 62.2634 92.4346 61.5674 92.8796 61.1534C93.3246 60.7384 94.0206 60.7634 94.4346 61.2084C94.8486 61.6524 94.8246 62.3494 94.3796 62.7634Z" fill="#7070FF"/><path fill-rule="evenodd" clip-rule="evenodd" d="M106.631 54.1366C106.012 54.7136 105.042 54.6796 104.465 54.0596C103.888 53.4406 103.922 52.4706 104.542 51.8936C105.161 51.3166 106.131 51.3506 106.708 51.9706C107.285 52.5896 107.25 53.5596 106.631 54.1366Z" fill="#7070FF"/><path fill-rule="evenodd" clip-rule="evenodd" d="M141.126 25.9732C140.26 26.7793 138.905 26.7313 138.099 25.8662C137.293 25.0002 137.341 23.6452 138.207 22.8392C139.072 22.0332 140.427 22.0812 141.233 22.9462C142.04 23.8122 141.992 25.1672 141.126 25.9732Z" fill="#7070FF"/><path fill-rule="evenodd" clip-rule="evenodd" d="M122.441 76.8466C121.926 77.3256 121.121 77.2976 120.642 76.7826C120.162 76.2686 120.191 75.4626 120.706 74.9836C121.22 74.5046 122.026 74.5326 122.505 75.0476C122.984 75.5616 122.956 76.3676 122.441 76.8466Z" fill="#7070FF"/><path fill-rule="evenodd" clip-rule="evenodd" d="M132.924 44.691C132.784 44.821 132.566 44.813 132.436 44.674C132.305 44.534 132.313 44.315 132.453 44.185C132.593 44.055 132.811 44.063 132.941 44.203C133.071 44.342 133.064 44.561 132.924 44.691Z" fill="#7070FF"/><path fill-rule="evenodd" clip-rule="evenodd" d="M106.757 37.6662C106.378 38.0192 105.783 37.9982 105.43 37.6192C105.077 37.2392 105.098 36.6452 105.477 36.2922C105.857 35.9392 106.451 35.9602 106.804 36.3392C107.158 36.7192 107.136 37.3132 106.757 37.6662Z" fill="#F7E5CD"/><path fill-rule="evenodd" clip-rule="evenodd" d="M121.828 60.9353C121.426 61.3093 120.797 61.2873 120.423 60.8853C120.049 60.4833 120.071 59.8543 120.473 59.4802C120.875 59.1062 121.504 59.1282 121.878 59.5302C122.252 59.9323 122.23 60.5612 121.828 60.9353Z" fill="#232144"/><path fill-rule="evenodd" clip-rule="evenodd" d="M94.0837 32.7165C93.5017 33.2585 92.5897 33.2265 92.0477 32.6445C91.5057 32.0625 91.5377 31.1504 92.1197 30.6084C92.7027 30.0664 93.6137 30.0984 94.1557 30.6804C94.6987 31.2624 94.6657 32.1745 94.0837 32.7165Z" fill="#232144"/><path fill-rule="evenodd" clip-rule="evenodd" d="M111.449 45.8996C111.247 46.0876 110.931 46.0766 110.743 45.8746C110.555 45.6726 110.566 45.3566 110.768 45.1686C110.97 44.9806 111.286 44.9916 111.474 45.1936C111.662 45.3956 111.651 45.7116 111.449 45.8996Z" fill="#232144"/><path fill-rule="evenodd" clip-rule="evenodd" d="M130.699 66.5995C130.024 67.2285 128.966 67.1905 128.337 66.5155C127.708 65.8405 127.746 64.7835 128.421 64.1545C129.097 63.5255 130.154 63.5625 130.783 64.2375C131.412 64.9135 131.374 65.9705 130.699 66.5995Z" fill="#F7E5CD"/><path fill-rule="evenodd" clip-rule="evenodd" d="M117.683 66.4638C117.38 66.7458 116.906 66.7288 116.624 66.4258C116.343 66.1238 116.359 65.6498 116.662 65.3678C116.965 65.0858 117.439 65.1028 117.721 65.4048C118.003 65.7078 117.986 66.1818 117.683 66.4638Z" fill="#BAC09A"/><path fill-rule="evenodd" clip-rule="evenodd" d="M115.158 20.8869C114.863 21.1619 114.401 21.1449 114.127 20.8499C113.852 20.5559 113.869 20.0939 114.163 19.8189C114.458 19.5449 114.92 19.5609 115.195 19.8559C115.469 20.1509 115.453 20.6119 115.158 20.8869Z" fill="#BAC09A"/><path fill-rule="evenodd" clip-rule="evenodd" d="M101.098 32.819L100.058 21.767L100.997 21.679L102.037 32.731L101.098 32.819Z" fill="#ED1E79"/><path fill-rule="evenodd" clip-rule="evenodd" d="M141.832 39.9134L142.089 38.1784L130.689 36.4904L130.432 38.2264L141.832 39.9134Z" fill="#ED1E79"/><path fill-rule="evenodd" clip-rule="evenodd" d="M105.672 74.122L105.241 71.937L96.1738 73.727L96.6048 75.912L105.672 74.122Z" fill="#ED1E79"/><path fill-rule="evenodd" clip-rule="evenodd" d="M78.3503 61.731L77.1273 60.876L83.5693 51.661L84.7923 52.515L78.3503 61.731Z" fill="#006931"/><path fill-rule="evenodd" clip-rule="evenodd" d="M98.2012 35.991C97.9202 36.527 97.7632 36.793 97.4182 37.312C98.1402 40.378 96.1812 42.029 99.9662 48.419C100.663 48.674 100.999 48.775 101.653 48.926C97.6202 41.35 99.7572 39.224 98.2012 35.991Z" fill="#006931"/><path fill-rule="evenodd" clip-rule="evenodd" d="M123.387 40.1963C122.695 40.8413 121.61 40.8023 120.966 40.1103C120.321 39.4183 120.359 38.3333 121.051 37.6893C121.744 37.0443 122.828 37.0823 123.473 37.7753C124.118 38.4673 124.079 39.5513 123.387 40.1963Z" fill="#F7E5CD"/><path fill-rule="evenodd" clip-rule="evenodd" d="M107.799 26.3915C107.477 26.6915 106.972 26.6735 106.672 26.3515C106.372 26.0295 106.39 25.5245 106.712 25.2245C107.034 24.9245 107.539 24.9425 107.839 25.2645C108.139 25.5865 108.121 26.0915 107.799 26.3915Z" fill="#FBB03B"/><path fill-rule="evenodd" clip-rule="evenodd" d="M141.004 71.3293C140.568 70.2763 140.228 70.0763 139.616 69.7543C135.932 73.0403 127.024 68.3413 129.461 72.7263C130.171 73.5063 130.442 73.8523 130.638 74.1153C131.34 71.0273 135.956 75.6893 141.004 71.3293Z" fill="#FBB03B"/><path fill-rule="evenodd" clip-rule="evenodd" d="M124.356 25.592L122.03 25.22L123.505 16L125.831 16.372L124.356 25.592Z" fill="#FBB03B"/><path fill-rule="evenodd" clip-rule="evenodd" d="M122.447 50.1296L114.881 50.2476L114.914 52.3776L122.48 52.2586L122.447 50.1296Z" fill="#232144"/><path fill-rule="evenodd" clip-rule="evenodd" d="M128.232 50.8715L126.854 49.3925L128.333 48.0145L129.711 49.4935L128.232 50.8715Z" fill="#232144"/><path fill-rule="evenodd" clip-rule="evenodd" d="M111.421 78.4884C111.154 78.7374 110.736 78.7224 110.488 78.4554C110.239 78.1884 110.254 77.7704 110.521 77.5224C110.788 77.2734 111.206 77.2884 111.454 77.5554C111.703 77.8224 111.688 78.2394 111.421 78.4884Z" fill="#232144"/><path fill-rule="evenodd" clip-rule="evenodd" d="M82.9225 22.7158C83.1205 23.2328 82.8615 23.8118 82.3445 24.0098C81.8275 24.2068 81.2485 23.9478 81.0505 23.4308C80.8535 22.9138 81.1115 22.3348 81.6285 22.1378C82.1455 21.9398 82.7255 22.1988 82.9225 22.7158Z" fill="#ABB8B9"/><path fill-rule="evenodd" clip-rule="evenodd" d="M134.724 28.8494C131.865 30.1544 130.437 30.8064 127.577 32.1114C128.24 32.3834 128.578 32.5354 129.265 32.8684C131.266 32.2454 132.265 31.9344 134.266 31.3124C134.46 30.3584 134.551 29.8654 134.724 28.8494Z" fill="#BAC09A"/><path fill-rule="evenodd" clip-rule="evenodd" d="M119.86 30.6643L114.901 36.7693L113.473 35.6103L118.433 29.5052L119.86 30.6643Z" fill="#7070FF"/></g><defs><clipPath id="clip0_227_2961"><rect width="128" height="128" fill="white" transform="translate(16 16)"/></clipPath></defs></svg>