<?xml version="1.0" encoding="UTF-8"?><svg xmlns="http://www.w3.org/2000/svg" viewBox="0 0 160 160"><defs><style>.cls-1{fill:#f9e6c9;}.cls-2{fill:#ef2834;}.cls-3{fill:#004219;}.cls-4{fill:#f4660f;}.cls-5{fill:#006c28;}.cls-6{fill:#231e47;}.cls-7{fill:#d0a349;}.cls-8{fill:#faad70;}.cls-9{fill:#d3e8f3;}.cls-10{fill:#fd9500;}</style></defs><g id="Food"><path class="cls-9" d="M95.42,40.53v-11.32h-18.98v11.32c0,3.03-1.36,5.9-3.7,7.82h0c-2.34,1.92-3.7,4.79-3.7,7.82v50.1h33.79v-50.1c0-3.03-1.36-5.9-3.7-7.82h0c-2.34-1.92-3.7-4.79-3.7-7.82Z"/><path class="cls-6" d="M77.51,25.74h16.84c1.23,0,2.23,1,2.23,2.23v2.88h-21.29v-2.88c0-1.23,1-2.23,2.23-2.23Z"/><rect class="cls-1" x="69.04" y="58.31" width="33.79" height="47.95"/><rect class="cls-5" x="107.21" y="29.87" width="1.8" height="22.32" transform="translate(-.55 1.48) rotate(-.78)"/><rect class="cls-5" x="109.6" y="32.68" width="1.8" height="22.32" transform="translate(19.73 -32.93) rotate(18.59)"/><rect class="cls-5" x="104.91" y="32.74" width="1.8" height="22.32" transform="translate(220.27 48.66) rotate(159.85)"/><path class="cls-4" d="M109.17,118.05h0c-1.35.02-2.48-1.01-2.6-2.36l-5.17-62.61c-.24-2.86,2-5.32,4.86-5.36l3.88-.05c2.87-.04,5.16,2.36,5.01,5.22l-3.46,62.73c-.07,1.35-1.18,2.41-2.53,2.43Z"/><path class="cls-10" d="M85.73,62.85c-2.29.3-3.91,2.4-3.62,4.69l1.79,13.85c.3,2.29,2.4,3.91,4.69,3.62.87-.11,1.64-.49,2.25-1.03.85,1.3,2.39,2.09,4.04,1.88s2.93-1.36,3.43-2.84c.73.37,1.57.54,2.44.42,2.29-.3,3.91-2.4,3.62-4.69l-1.79-13.85c-.3-2.29-2.4-3.91-4.69-3.62l-12.15,1.57Z"/><polygon class="cls-5" points="93.4 61.24 97.61 61.31 94.79 62.99 96.03 67.02 92.08 65.55 88.63 67.98 88.8 63.77 85.64 62.86 89.7 61.72 89.68 53.93 91.26 53.73 93.4 61.24"/><path class="cls-8" d="M61.84,143.84h22.75c1.15-2.34,1.6-5.06,1.1-7.83l-19.8-109.39c-1.25-6.89-7.84-11.46-14.73-10.21h0c-6.89,1.25-11.46,7.84-10.21,14.73l19.8,109.39c.21,1.18.59,2.28,1.1,3.31Z"/><path class="cls-1" d="M53.47,29.92s2.58,50.12,20.08,110.94c0,0-6.25-64.8-20.08-110.94Z"/><circle class="cls-2" cx="73.33" cy="79.4" r="11.17"/><polygon class="cls-5" points="74.34 64.88 71.68 68.49 68.07 65.83 67.34 66.82 70.95 69.48 68.29 73.09 69.28 73.82 71.94 70.21 75.55 72.87 76.28 71.88 72.67 69.22 75.33 65.61 74.34 64.88"/><circle class="cls-2" cx="50.31" cy="75.82" r="11.17"/><polygon class="cls-5" points="57.21 63 53.3 65.2 51.11 61.29 50.03 61.89 52.23 65.8 48.32 67.99 48.92 69.07 52.83 66.87 55.02 70.78 56.1 70.18 53.9 66.27 57.81 64.07 57.21 63"/><rect class="cls-5" x="124.17" y="34.59" width="1.8" height="22.32" transform="translate(7.58 -16.95) rotate(7.99)"/><rect class="cls-5" x="126.1" y="37.72" width="1.8" height="22.32" transform="translate(36.67 -52.9) rotate(27.36)"/><rect class="cls-5" x="121.46" y="37.07" width="1.8" height="22.32" transform="translate(251.82 71.37) rotate(168.62)"/><path class="cls-4" d="M114.36,122.03h0c-1.34-.19-2.3-1.38-2.2-2.73l4.44-62.67c.2-2.86,2.79-4.95,5.62-4.55l3.84.54c2.84.4,4.74,3.12,4.15,5.93l-12.99,61.47c-.28,1.32-1.53,2.2-2.87,2.01Z"/><path class="cls-3" d="M100.48,62.89c-2.31,0-4.19,1.88-4.19,4.19v13.96c0,2.31,1.88,4.19,4.19,4.19.88,0,1.69-.27,2.36-.73.68,1.4,2.1,2.38,3.76,2.38s3.08-.98,3.76-2.38c.67.46,1.48.73,2.36.73,2.31,0,4.19-1.88,4.19-4.19v-13.96c0-2.31-1.88-4.19-4.19-4.19h-12.25Z"/><polygon class="cls-5" points="108.29 62.28 112.46 62.88 109.44 64.19 110.16 68.34 106.43 66.38 102.7 68.34 103.41 64.19 100.39 62.88 104.56 62.28 105.54 54.55 107.14 54.55 108.29 62.28"/></g><g id="Hand"><rect class="cls-7" x="36.27" y="81.58" width="93.18" height="62.52"/><polygon class="cls-7" points="46.58 75.22 36.27 81.58 56.88 81.58 46.58 75.22"/><polygon class="cls-7" points="61.1 75.22 50.79 81.58 71.41 81.58 61.1 75.22"/><polygon class="cls-7" points="75.62 75.22 65.32 81.58 85.93 81.58 75.62 75.22"/><polygon class="cls-7" points="90.14 75.22 79.84 81.58 100.45 81.58 90.14 75.22"/><polygon class="cls-7" points="104.67 75.22 94.36 81.58 114.97 81.58 104.67 75.22"/><polygon class="cls-7" points="119.19 75.22 108.88 81.58 129.5 81.58 119.19 75.22"/><circle class="cls-2" cx="37.4" cy="111.71" r="11.17"/><polygon class="cls-5" points="25.71 103.04 27.32 107.22 23.13 108.83 23.58 109.98 27.76 108.37 29.37 112.56 30.52 112.12 28.91 107.93 33.1 106.32 32.66 105.18 28.47 106.78 26.86 102.6 25.71 103.04"/></g></svg>