<svg viewBox="0 0 160 160" fill="none" xmlns="http://www.w3.org/2000/svg"><path fill-rule="evenodd" clip-rule="evenodd" d="M130.413 74.1411C137.252 71.8701 140.769 64.3601 138.111 57.7001C135.653 51.5371 128.776 48.3581 122.448 50.4591L92.8837 60.2771C91.8667 60.2771 91.4742 58.9711 92.3187 58.4071C98.6305 54.1901 102.757 47.2111 102.757 39.3131C102.757 26.438 91.79 16 78.2615 16C64.7339 16 53.767 26.438 53.767 39.3131C53.767 47.2111 57.8925 54.1901 64.2043 58.4071C65.0487 58.9711 64.6583 60.2771 63.6403 60.2771H63.0601L37.6819 48.5171C31.814 45.7981 24.8374 48.3211 22.1012 54.1521C19.365 59.9821 21.9034 66.9131 27.7713 69.6321L53.5794 81.5901V86.7782C53.5794 95.0062 52.1306 103.172 49.2975 110.904C47.6278 115.461 42.5569 117.811 37.9704 116.152C33.3839 114.494 28.3121 116.843 26.6433 121.4L25.3711 124.873C23.7013 129.43 26.0662 134.469 30.6527 136.128L50.7574 143.398C55.3439 145.057 60.4158 142.707 62.0845 138.15L64.855 130.589C66.9394 124.898 72.4481 121.148 78.5409 121.31C78.6156 121.312 78.6903 121.314 78.7659 121.317C84.5006 121.525 89.5149 125.228 91.4783 130.586L94.2649 138.193C95.9417 142.771 101.037 145.132 105.644 143.465L125.844 136.161C130.452 134.494 132.828 129.432 131.15 124.854L129.873 121.365C128.195 116.786 123.1 114.426 118.492 116.092C113.884 117.758 108.789 115.398 107.111 110.819C104.355 103.293 102.945 95.3462 102.945 87.3372V83.2622L130.413 74.1411Z" fill="#CA542A"/><path fill-rule="evenodd" clip-rule="evenodd" d="M80.3706 81.4729C80.3706 82.6989 79.3697 83.6929 78.1358 83.6929C76.9019 83.6929 75.9021 82.6989 75.9021 81.4729C75.9021 80.2469 76.9019 79.2529 78.1358 79.2529C79.3697 79.2529 80.3706 80.2469 80.3706 81.4729Z" fill="white"/><path fill-rule="evenodd" clip-rule="evenodd" d="M74.7278 34.5886C74.7278 35.5776 73.9206 36.3786 72.9258 36.3786C71.931 36.3786 71.1239 35.5776 71.1239 34.5886C71.1239 33.5996 71.931 32.7986 72.9258 32.7986C73.9206 32.7986 74.7278 33.5996 74.7278 34.5886Z" fill="white"/><path fill-rule="evenodd" clip-rule="evenodd" d="M85.1485 34.5886C85.1485 35.5776 84.3414 36.3786 83.3466 36.3786C82.3518 36.3786 81.5447 35.5776 81.5447 34.5886C81.5447 33.5996 82.3518 32.7986 83.3466 32.7986C84.3414 32.7986 85.1485 33.5996 85.1485 34.5886Z" fill="white"/><path fill-rule="evenodd" clip-rule="evenodd" d="M80.3706 90.0142C80.3706 91.2402 79.3697 92.2342 78.1358 92.2342C76.9019 92.2342 75.9021 91.2402 75.9021 90.0142C75.9021 88.7882 76.9019 87.7942 78.1358 87.7942C79.3697 87.7942 80.3706 88.7882 80.3706 90.0142Z" fill="white"/><path fill-rule="evenodd" clip-rule="evenodd" d="M80.3706 98.5559C80.3706 99.7819 79.3697 100.776 78.1358 100.776C76.9019 100.776 75.9021 99.7819 75.9021 98.5559C75.9021 97.3299 76.9019 96.3359 78.1358 96.3359C79.3697 96.3359 80.3706 97.3299 80.3706 98.5559Z" fill="white"/><path fill-rule="evenodd" clip-rule="evenodd" d="M78.1363 49.9672C72.0646 49.9672 67.126 45.9922 67.126 41.1052H67.9563C67.9563 45.5372 72.5227 49.1442 78.1363 49.1442C83.7499 49.1442 88.3152 45.5372 88.3152 41.1052H89.1466C89.1466 45.9922 84.2079 49.9672 78.1363 49.9672Z" fill="white"/><path fill-rule="evenodd" clip-rule="evenodd" d="M120.998 52.1629C120.461 52.7829 119.851 53.4849 120.171 54.4379C120.49 55.3919 121.403 55.5929 122.207 55.7699C123.004 55.9459 123.5 56.0889 123.667 56.5839C123.832 57.0809 123.522 57.4889 122.989 58.1019C122.452 58.7219 121.842 59.4239 122.161 60.3769C122.481 61.3299 123.394 61.5309 124.199 61.7089C124.996 61.8839 125.49 62.0269 125.657 62.5219C125.823 63.0179 125.511 63.4259 124.98 64.0399C124.442 64.6589 123.832 65.3619 124.151 66.315C124.471 67.268 125.383 67.469 126.189 67.6469C126.985 67.822 127.481 67.965 127.647 68.461C127.814 68.958 127.503 69.367 126.971 69.981C126.433 70.602 125.825 71.305 126.144 72.259C126.464 73.213 127.377 73.415 128.182 73.593C128.973 73.768 129.465 73.912 129.635 74.4L130.386 74.151C130.061 73.208 129.155 73.006 128.354 72.829C127.557 72.652 127.061 72.509 126.894 72.012C126.728 71.515 127.039 71.106 127.57 70.492C128.108 69.871 128.718 69.168 128.398 68.214C128.078 67.261 127.166 67.059 126.361 66.8819C125.564 66.7059 125.068 66.563 124.902 66.0679C124.735 65.5719 125.046 65.1639 125.579 64.5499C126.117 63.9309 126.726 63.2279 126.407 62.2759C126.088 61.3219 125.175 61.1209 124.37 60.9439C123.573 60.7679 123.078 60.6259 122.911 60.1299C122.745 59.6339 123.057 59.2259 123.588 58.6129C124.126 57.9929 124.736 57.2909 124.417 56.3379C124.097 55.3839 123.185 55.1829 122.38 55.0059C121.583 54.8299 121.087 54.6879 120.921 54.1919C120.755 53.6949 121.065 53.2869 121.598 52.6739C122.123 52.0679 122.712 51.3819 122.44 50.4619L121.682 50.7139C121.798 51.1789 121.505 51.5789 120.998 52.1629Z" fill="white"/><path fill-rule="evenodd" clip-rule="evenodd" d="M90.3155 126.332C90.5576 126.332 90.8078 126.277 91.0651 126.143C91.96 125.679 92.0125 124.755 92.0579 123.939C92.1043 123.133 92.1648 122.626 92.6279 122.385C93.095 122.148 93.546 122.386 94.2382 122.809C94.9404 123.236 95.7334 123.722 96.6303 123.258C97.5252 122.794 97.5777 121.869 97.6231 121.054C97.6675 120.248 97.729 119.741 98.1921 119.501C98.6582 119.261 99.1132 119.501 99.8043 119.923C100.508 120.351 101.305 120.836 102.197 120.371C103.093 119.907 103.145 118.983 103.191 118.167C103.237 117.361 103.298 116.854 103.762 116.613C104.223 116.375 104.681 116.61 105.377 117.034C106.08 117.462 106.875 117.945 107.773 117.481C108.669 117.016 108.721 116.092 108.768 115.276C108.803 114.657 108.852 114.218 109.08 113.936C108.897 113.748 108.722 113.55 108.555 113.344C108.066 113.845 108.016 114.572 107.979 115.232C107.932 116.039 107.871 116.546 107.407 116.787C106.94 117.028 106.485 116.789 105.79 116.366C105.087 115.939 104.29 115.454 103.396 115.919C102.5 116.384 102.448 117.308 102.402 118.123C102.356 118.93 102.295 119.437 101.832 119.677C101.367 119.918 100.912 119.677 100.219 119.255C99.5168 118.827 98.7187 118.341 97.8269 118.807C96.9309 119.27 96.8785 120.195 96.8331 121.01C96.7887 121.816 96.7271 122.323 96.2641 122.564C95.8 122.804 95.3459 122.563 94.6528 122.141C93.9516 121.712 93.1536 121.229 92.2627 121.691C91.3668 122.155 91.3153 123.08 91.2689 123.895C91.2235 124.702 91.163 125.209 90.6989 125.449C90.2358 125.688 89.7808 125.451 89.0866 125.027C88.4833 124.66 87.8103 124.253 87.0668 124.439C87.4401 124.74 87.8023 125.056 88.1443 125.394C88.3057 125.477 88.4782 125.576 88.673 125.695C89.1724 125.998 89.7192 126.332 90.3155 126.332Z" fill="white"/><path fill-rule="evenodd" clip-rule="evenodd" d="M66.4208 125.327C66.3976 124.552 66.3694 123.588 65.4916 123.108C64.6139 122.629 63.7765 123.119 63.1025 123.514C62.4043 123.923 61.9473 124.152 61.4963 123.907C61.0463 123.661 60.9999 123.155 60.9767 122.352C60.9545 121.578 60.9263 120.614 60.0485 120.134C59.1698 119.652 58.3324 120.144 57.6594 120.539C56.9612 120.948 56.5042 121.179 56.0532 120.932C55.6032 120.686 55.5558 120.18 55.5316 119.377C55.5094 118.602 55.4812 117.638 54.6024 117.157C53.7226 116.675 52.8852 117.167 52.2123 117.562C51.5131 117.972 51.0571 118.202 50.6061 117.956C50.1541 117.709 50.1067 117.203 50.0824 116.398C50.0582 115.582 50.03 114.658 49.1502 114.178C48.2714 113.698 47.4673 114.168 46.7591 114.582C46.7137 114.608 46.6774 114.626 46.634 114.651C46.1164 115.077 45.5544 115.442 44.9572 115.74C45.7633 116.064 46.5028 115.64 47.1606 115.256C47.8598 114.848 48.3179 114.618 48.7688 114.864C49.2208 115.111 49.2683 115.617 49.2925 116.422C49.3177 117.237 49.3449 118.161 50.2247 118.642C51.1035 119.12 51.9066 118.651 52.6148 118.236C53.313 117.828 53.769 117.598 54.221 117.843C54.671 118.09 54.7184 118.596 54.7426 119.4C54.7648 120.175 54.7931 121.139 55.6718 121.618C56.5506 122.098 57.388 121.607 58.061 121.213C58.7601 120.804 59.2162 120.576 59.6671 120.82C60.1171 121.066 60.1635 121.572 60.1867 122.375C60.2089 123.149 60.2372 124.113 61.1149 124.593C61.9927 125.074 62.8301 124.582 63.5041 124.188C64.2022 123.779 64.6593 123.55 65.1092 123.794C65.5602 124.04 65.6066 124.547 65.6308 125.35C65.652 126.088 65.6884 126.994 66.4511 127.494C66.5994 127.277 66.7538 127.065 66.9132 126.858C66.4955 126.605 66.444 126.109 66.4208 125.327Z" fill="white"/><path fill-rule="evenodd" clip-rule="evenodd" d="M28.1375 69.4148C27.961 69.4528 27.7804 69.4938 27.6018 69.5428C27.6593 69.5708 27.7128 69.6048 27.7713 69.6318L28.7378 70.0798C29.4148 69.9098 30.0807 69.6388 30.345 68.8548C30.6649 67.9038 30.0545 67.2018 29.5177 66.5828C28.986 65.9698 28.6743 65.5627 28.8408 65.0697C29.0062 64.5767 29.5016 64.4357 30.2976 64.2617C31.1027 64.0857 32.0158 63.8867 32.3356 62.9357C32.6555 61.9857 32.0451 61.2847 31.5083 60.6647C30.9766 60.0527 30.6649 59.6447 30.8313 59.1527C30.9968 58.6597 31.4922 58.5187 32.2882 58.3447C33.0933 58.1687 34.0054 57.9697 34.3252 57.0197C34.645 56.0687 34.0357 55.3667 33.4979 54.7477C32.9662 54.1347 32.6555 53.7277 32.8219 53.2347C32.9874 52.7397 33.4838 52.5987 34.2798 52.4237C35.0849 52.2477 35.998 52.0477 36.3178 51.0957C36.6387 50.1447 36.0293 49.4417 35.4915 48.8217C35.0759 48.3417 34.8045 47.9867 34.7813 47.6177C34.5169 47.5707 34.2526 47.5297 33.9862 47.5017C33.9489 48.2337 34.4423 48.8137 34.8922 49.3327C35.4239 49.9457 35.7347 50.3537 35.5682 50.8487C35.4017 51.3427 34.9064 51.4847 34.1103 51.6587C33.3042 51.8347 32.3921 52.0347 32.0723 52.9867C31.7515 53.9377 32.3619 54.6397 32.8996 55.2587C33.4303 55.8707 33.7421 56.2787 33.5756 56.7717C33.4101 57.2647 32.9148 57.4057 32.1187 57.5797C31.3136 57.7547 30.4005 57.9537 30.0817 58.9047C29.7619 59.8547 30.3713 60.5567 30.909 61.1757C31.4407 61.7877 31.7515 62.1957 31.586 62.6887C31.4195 63.1817 30.9242 63.3227 30.1281 63.4967C29.323 63.6717 28.411 63.8717 28.0911 64.8217C27.7713 65.7728 28.3807 66.4748 28.9184 67.0938C29.4501 67.7058 29.7609 68.1138 29.5954 68.6068C29.429 69.0998 28.9336 69.2408 28.1375 69.4148Z" fill="white"/></svg>