<?xml version="1.0" encoding="UTF-8"?><svg id="Calendar" xmlns="http://www.w3.org/2000/svg" viewBox="0 0 160 160"><defs><style>.cls-1{fill:#ff002e;}.cls-2{fill:#ef7903;}.cls-3{fill:#fff;}.cls-4{fill:#f7931e;}.cls-5{fill:#fbb03b;}.cls-6{fill:#f8e6ca;}.cls-7{fill:#231f46;}</style></defs><polygon class="cls-6" points="143.98 143.94 69.25 143.94 50.23 140.6 50.23 16.26 143.98 16.26 143.98 143.94"/><path class="cls-7" d="M71.04,37.45c0-2.42,1.16-4.26,3.51-4.26.87,0,1.57.21,2.12.62.14.1.16.19.09.33l-.34.59c-.08.13-.19.19-.33.11-.49-.29-.9-.44-1.43-.44-1.29,0-2.15,1-2.15,3,0,1.68.6,2.92,2.13,2.92.5,0,1.03-.14,1.48-.36.16-.08.25-.07.3.07l.29.62c.07.15.03.25-.09.33-.57.34-1.43.56-2.21.56-2.22,0-3.39-1.6-3.39-4.08Z"/><path class="cls-7" d="M82.25,39.44h-2.93l-.56,1.76c-.06.16-.14.21-.3.21h-.95c-.16,0-.21-.08-.16-.25l2.68-7.66c.06-.15.12-.2.32-.2h.93c.19,0,.27.06.32.2l2.76,7.68c.05.14-.02.23-.16.23h-1.04c-.17,0-.25-.06-.3-.21l-.59-1.76ZM79.7,38.33h2.18l-.12-.37c-.4-1.18-.72-2.24-.96-3.01-.23.75-.61,1.91-.97,3l-.12.38Z"/><path class="cls-7" d="M86.83,40.25h2.94c.16,0,.23.07.23.21v.73c0,.15-.07.21-.23.21h-4.15c-.16,0-.23-.07-.23-.21v-7.68c0-.15.07-.21.23-.21h.98c.16,0,.23.07.23.21v6.74Z"/><path class="cls-7" d="M91.41,41.41c-.16,0-.23-.07-.23-.21v-7.68c0-.15.07-.21.23-.21h4.36c.16,0,.23.07.23.21v.73c0,.15-.07.21-.23.21h-3.15v2.28h2.67c.16,0,.23.07.23.2v.73c0,.15-.07.21-.23.21h-2.67v2.37h3.2c.16,0,.23.07.23.21v.73c0,.15-.07.21-.23.21h-4.4Z"/><path class="cls-7" d="M100.06,37.75c-.69-1.08-1.04-1.66-1.3-2.19.04.63.06,1.76.06,2.55v3.09c0,.15-.07.21-.23.21h-.88c-.16,0-.23-.07-.23-.21v-7.68c0-.15.07-.21.23-.21h.78c.23,0,.31.06.41.2l2.19,3.46c.68,1.07.99,1.55,1.3,2.19-.03-.64-.04-1.73-.04-2.53v-3.1c0-.15.07-.21.23-.21h.88c.16,0,.23.07.23.21v7.68c0,.15-.07.21-.23.21h-.78c-.23,0-.3-.06-.4-.2l-2.21-3.46Z"/><path class="cls-7" d="M105.62,41.41c-.16,0-.23-.07-.23-.21v-7.68c0-.15.07-.21.23-.21h1.85c1.47,0,2.44.3,3.11,1,.62.64,1.02,1.67,1.02,3.02s-.37,2.49-1.17,3.24c-.68.64-1.64.84-2.89.84h-1.91ZM106.82,34.45v5.81h.69c.7,0,1.39-.13,1.85-.56.51-.47.76-1.31.76-2.35,0-.96-.2-1.69-.57-2.13-.42-.51-1.05-.77-2.01-.77h-.72Z"/><path class="cls-7" d="M117.01,39.44h-2.92l-.57,1.76c-.06.16-.14.21-.3.21h-.95c-.16,0-.21-.08-.16-.25l2.68-7.66c.06-.15.12-.2.32-.2h.93c.19,0,.27.06.32.2l2.76,7.68c.05.14-.02.23-.16.23h-1.04c-.17,0-.25-.06-.3-.21l-.59-1.76ZM114.46,38.33h2.18l-.12-.37c-.4-1.18-.72-2.24-.96-3.01-.23.75-.61,1.91-.97,3l-.12.38Z"/><path class="cls-7" d="M122.63,38.5c-.14-.25-.23-.27-.5-.27h-.54v2.97c0,.15-.07.21-.23.21h-.98c-.16,0-.23-.07-.23-.21v-7.68c0-.15.07-.21.23-.21h1.85c1.19,0,2.04.24,2.55.78.36.37.54.9.54,1.59,0,1.08-.52,1.86-1.49,2.31l1.89,3.14c.11.17.07.29-.12.29h-1.03c-.21,0-.26-.01-.37-.19l-1.57-2.73ZM121.59,34.45v2.65h.72c1.05,0,1.57-.51,1.57-1.41,0-.42-.11-.69-.3-.88-.29-.29-.78-.36-1.32-.36h-.67Z"/><circle class="cls-7" cx="54.52" cy="20.33" r="1.61"/><circle class="cls-7" cx="139.73" cy="20.33" r="1.61"/><circle class="cls-7" cx="139.73" cy="138.73" r="1.61"/><rect class="cls-3" x="54.5" y="53.2" width="85.21" height="76.35"/><rect class="cls-7" x="72.22" y="72.5" width="8.73" height="8.71"/><rect class="cls-7" x="82.47" y="72.5" width="8.73" height="8.71"/><rect class="cls-7" x="92.72" y="72.5" width="8.73" height="8.71"/><rect class="cls-7" x="102.96" y="72.5" width="8.73" height="8.71"/><rect class="cls-7" x="113.21" y="72.5" width="8.73" height="8.71"/><rect class="cls-5" x="123.46" y="72.5" width="8.73" height="8.71"/><rect class="cls-7" x="61.97" y="84.06" width="8.73" height="8.71"/><rect class="cls-7" x="72.22" y="84.06" width="8.73" height="8.71"/><rect class="cls-7" x="82.47" y="84.06" width="8.73" height="8.71"/><rect class="cls-7" x="92.72" y="84.06" width="8.73" height="8.71"/><rect class="cls-7" x="102.96" y="84.06" width="8.73" height="8.71"/><rect class="cls-7" x="113.21" y="84.06" width="8.73" height="8.71"/><rect class="cls-5" x="123.46" y="84.06" width="8.73" height="8.71"/><rect class="cls-7" x="61.97" y="95.61" width="8.73" height="8.71"/><rect class="cls-7" x="72.22" y="95.61" width="8.73" height="8.71"/><rect class="cls-7" x="82.47" y="95.61" width="8.73" height="8.71"/><rect class="cls-7" x="92.72" y="95.61" width="8.73" height="8.71"/><rect class="cls-7" x="102.96" y="95.61" width="8.73" height="8.71"/><rect class="cls-7" x="113.21" y="95.61" width="8.73" height="8.71"/><rect class="cls-5" x="123.46" y="95.61" width="8.73" height="8.71"/><rect class="cls-7" x="61.97" y="107.17" width="8.73" height="8.71"/><rect class="cls-7" x="72.22" y="107.17" width="8.73" height="8.71"/><rect class="cls-7" x="82.47" y="107.17" width="8.73" height="8.71"/><rect class="cls-7" x="92.72" y="107.17" width="8.73" height="8.71"/><rect class="cls-7" x="102.96" y="107.17" width="8.73" height="8.71"/><path class="cls-1" d="M79.69,86.22s-.09,0-.14,0c-2.58-.03-5.33-.99-7.74-2.71-2.41-1.71-4.22-3.99-5.1-6.42-.93-2.59-.71-5.04.62-6.91,1.33-1.87,3.59-2.88,6.34-2.85,2.58.03,5.33.99,7.74,2.71,2.41,1.71,4.22,3.99,5.1,6.42.93,2.59.71,5.04-.62,6.91h0c-1.31,1.84-3.51,2.85-6.21,2.85ZM73.55,69.87c-1.85,0-3.31.63-4.14,1.79-.84,1.17-.94,2.8-.3,4.58.7,1.94,2.19,3.79,4.18,5.21,1.99,1.42,4.23,2.21,6.3,2.24,1.9.02,3.4-.61,4.24-1.78h0c.84-1.17.94-2.8.3-4.58-.7-1.94-2.19-3.79-4.18-5.21-1.99-1.42-4.23-2.21-6.3-2.24-.03,0-.07,0-.1,0Z"/><circle class="cls-7" cx="54.65" cy="138.99" r="1.63"/><path class="cls-4" d="M41.38,128.33v10.72c0,2.76,12.74,5,28.46,5s28.46-2.24,28.46-5v-10.72h-56.93Z"/><path class="cls-2" d="M98.29,128.33c-.28-1.79-5.92-3.34-14.2-4.19v19.24c8.5-.86,14.22-2.48,14.22-4.33v-10.72h-.02Z"/><ellipse class="cls-5" cx="69.85" cy="128.33" rx="28.46" ry="5"/><path class="cls-4" d="M70.04,132.39c-9.77,0-24.29-1.05-24.29-3.95s14.53-3.95,24.29-3.95,24.29,1.05,24.29,3.95-14.53,3.95-24.29,3.95ZM70.04,125.25c-6.37,0-12.36.37-16.86,1.04-6.61.99-6.68,2.1-6.68,2.16s.08,1.17,6.68,2.16c4.5.67,10.49,1.04,16.86,1.04s12.36-.37,16.86-1.04c6.61-.99,6.68-2.1,6.68-2.16s-.08-1.17-6.68-2.16c-4.5-.67-10.49-1.04-16.86-1.04Z"/><path class="cls-4" d="M34.1,116.76v10.72c0,2.76,12.74,5,28.46,5s28.46-2.24,28.46-5v-10.72h-56.93Z"/><path class="cls-2" d="M91.04,116.71c-.28-1.79-5.92-3.34-14.2-4.19v19.24c8.5-.86,14.22-2.48,14.22-4.33v-10.72h-.02Z"/><ellipse class="cls-5" cx="62.57" cy="116.76" rx="28.46" ry="5"/><path class="cls-4" d="M62.77,120.82c-9.77,0-24.29-1.05-24.29-3.95s14.53-3.95,24.29-3.95,24.29,1.05,24.29,3.95-14.53,3.95-24.29,3.95ZM62.77,113.67c-6.37,0-12.36.37-16.86,1.04-6.61.99-6.68,2.1-6.68,2.16s.08,1.17,6.68,2.15c4.5.67,10.49,1.04,16.86,1.04s12.36-.37,16.86-1.04c6.61-.99,6.68-2.1,6.68-2.15s-.08-1.17-6.68-2.16c-4.5-.67-10.49-1.04-16.86-1.04Z"/><circle class="cls-5" cx="41.8" cy="118.45" r="25.61"/><path class="cls-4" d="M41.88,139.94c-11.75-.05-21.27-9.64-21.23-21.4.05-11.75,9.65-21.27,21.4-21.23,11.75.05,21.27,9.65,21.23,21.4-.05,11.75-9.64,21.27-21.4,21.23ZM42.04,98.96c-10.84-.05-19.7,8.74-19.74,19.58s8.74,19.7,19.58,19.74,19.7-8.74,19.74-19.58c.05-10.84-8.74-19.7-19.58-19.74Z"/><path class="cls-3" d="M44.2,120.95c0,.32-.14.45-.42.45l-4.87-.02c.49,2.29,1.77,3.8,4.35,3.81,1.16,0,2.19-.31,3.05-.62.37-.13.58-.13.71.16l.68,1.45c.18.4.1.6-.21.76-1.29.68-2.95,1.09-4.77,1.08-3.97-.01-6.49-2.55-7.23-6.66h-1.71c-.29,0-.42-.14-.42-.45v-1.26c0-.32.14-.45.43-.45h1.47v-.73c0-.34,0-.68.03-1.03h-1.34c-.29,0-.42-.14-.42-.45v-1.26c0-.32.14-.45.43-.45h1.63c.86-3.99,3.37-6.74,7.5-6.73,2.03,0,3.45.51,4.49,1.28.31.24.36.45.21.77l-.74,1.34c-.19.31-.45.45-.77.26-1.05-.58-1.71-.88-2.94-.88-2.26,0-3.77,1.35-4.41,3.98l5.03.02c.29,0,.42.14.42.45v1.26c0,.32-.14.45-.43.45l-5.29-.02c-.03.29-.03.6-.03.9v.87l5.16.02c.29,0,.42.14.42.45v1.26h0Z"/></svg>