<svg viewBox="0 0 160 160" fill="none" xmlns="http://www.w3.org/2000/svg"><path fill-rule="evenodd" clip-rule="evenodd" d="M67.8557 49.796H67.7647L66.3357 42.447C65.6087 38.703 62.3287 36 58.5147 36C55.7387 36 53.1627 37.444 51.7157 39.813L45.6137 49.796H44.9387C42.6257 49.796 40.4797 50.955 39.2737 52.855L17.5837 87.025H31.2137H61.7437H75.3727L67.8557 49.796Z" fill="#463EC5"/><path fill-rule="evenodd" clip-rule="evenodd" d="M121.042 52.8554C119.836 50.9554 117.689 49.7964 115.376 49.7964H114.362L108.6 40.3684C107.152 38.0004 104.577 36.5554 101.801 36.5554C97.9867 36.5554 94.7067 39.2584 93.9787 43.0034L92.6587 49.7964H92.4597L84.9417 87.0254H98.5717H129.102H142.731L121.042 52.8554Z" fill="#463EC5"/><path fill-rule="evenodd" clip-rule="evenodd" d="M20.3063 94.2703C20.3063 80.0093 31.8673 68.4473 46.1293 68.4473C60.3903 68.4473 71.9513 80.0093 71.9513 94.2703C71.9513 108.531 60.3903 120.093 46.1293 120.093C31.8673 120.093 20.3063 108.531 20.3063 94.2703Z" fill="#232144"/><path fill-rule="evenodd" clip-rule="evenodd" d="M46.129 72.7542C34.265 72.7542 24.613 82.4062 24.613 94.2702C24.613 106.134 34.265 115.787 46.129 115.787C57.993 115.787 67.645 106.134 67.645 94.2702C67.645 82.4062 57.993 72.7542 46.129 72.7542ZM46.129 124.399C29.516 124.399 16 110.884 16 94.2702C16 77.6572 29.516 64.1412 46.129 64.1412C62.742 64.1412 76.258 77.6572 76.258 94.2702C76.258 110.884 62.742 124.399 46.129 124.399Z" fill="#7070FF"/><path fill-rule="evenodd" clip-rule="evenodd" d="M88.0479 94.826C88.0479 80.565 99.6089 69.003 113.871 69.003C128.132 69.003 139.693 80.565 139.693 94.826C139.693 109.087 128.132 120.649 113.871 120.649C99.6089 120.649 88.0479 109.087 88.0479 94.826Z" fill="#232144"/><path fill-rule="evenodd" clip-rule="evenodd" d="M113.871 73.3098C102.007 73.3098 92.3546 82.9618 92.3546 94.8258C92.3546 106.69 102.007 116.343 113.871 116.343C125.735 116.343 135.387 106.69 135.387 94.8258C135.387 82.9618 125.735 73.3098 113.871 73.3098ZM113.871 124.955C97.2576 124.955 83.7416 111.44 83.7416 94.8258C83.7416 78.2128 97.2576 64.6968 113.871 64.6968C130.484 64.6968 144 78.2128 144 94.8258C144 111.44 130.484 124.955 113.871 124.955Z" fill="#7070FF"/><path fill-rule="evenodd" clip-rule="evenodd" d="M89.38 80.0405C89.38 85.2575 85.151 89.4865 79.934 89.4865C74.717 89.4865 70.487 85.2575 70.487 80.0405C70.487 74.8235 74.717 70.5945 79.934 70.5945C85.151 70.5945 89.38 74.8235 89.38 80.0405Z" fill="#7070FF"/></svg>