<svg viewBox="0 0 160 160" fill="none" xmlns="http://www.w3.org/2000/svg"><path d="M114.19 19.6104H19.48C17.558 19.6104 16 21.1684 16 23.0904V82.2703C16 84.1923 17.558 85.7504 19.48 85.7504H114.19C116.112 85.7504 117.67 84.1923 117.67 82.2703V23.0904C117.67 21.1684 116.112 19.6104 114.19 19.6104Z" fill="#D8CBC5"/><path d="M60.8 23.71H23.56C22.7758 23.71 22.14 24.3457 22.14 25.13V77.67C22.14 78.4542 22.7758 79.09 23.56 79.09H60.8C61.5842 79.09 62.22 78.4542 62.22 77.67V25.13C62.22 24.3457 61.5842 23.71 60.8 23.71Z" fill="#E6E3DA"/><path d="M30.27 55.13V38.4C30.27 33.18 34.5 28.96 39.71 28.96H44.1C49.32 28.96 53.54 33.19 53.54 38.4V55.13C53.54 60.35 49.31 64.57 44.1 64.57H39.71C34.49 64.57 30.27 60.34 30.27 55.13Z" fill="#FFC6AD"/><path d="M45.06 28.5508H38.75C33.13 28.5508 28.58 33.1008 28.58 38.7208V51.3908H30.4V44.5908C30.4 40.9308 32.48 37.7608 35.5 36.2208C35.67 38.4908 37.55 40.2908 39.87 40.2908C40.73 40.2908 41.52 40.0408 42.19 39.6108C42.55 42.1608 44.72 44.1308 47.36 44.1308C49.76 44.1308 51.75 42.5108 52.38 40.3208C53.03 41.6008 53.4 43.0508 53.4 44.5908V51.3908H55.22V38.7208C55.22 33.1008 50.67 28.5508 45.05 28.5508H45.06Z" fill="#DFA245"/><path d="M109.47 27.2002H69.57V30.1602H109.47V27.2002Z" fill="#232144"/><path d="M144 140.39L142.32 71.8404C142.32 71.4504 142.2 71.0704 142.01 70.7404L122.69 37.1404C120.75 33.7604 118.01 31.8504 115.15 31.8604L111 31.8804V31.8604H71.47C67.78 31.8604 64.57 34.7004 64.46 38.3904C64.35 42.0804 67.4 45.3304 71.19 45.3304H106.12L106.29 85.7604L115.92 81.8804L112.4 140.39H144Z" fill="#F5B091"/><path d="M106.55 40.79L102.16 47.22L95.78 42.86L73.33 75.74C71.23 78.81 72.02 83 75.09 85.1C78.16 87.2 82.35 86.41 84.45 83.34L85.09 82.4C85.33 82.62 85.58 82.84 85.86 83.03C88.93 85.13 93.12 84.34 95.22 81.27L117.67 48.39L106.55 40.79Z" fill="#F5B091"/><path d="M22.13 42.6404L22.13 76.0104C22.13 78.4571 24.1134 80.4404 26.56 80.4404H104.56C107.007 80.4404 108.99 78.4571 108.99 76.0104V42.6404C108.99 40.1938 107.007 38.2104 104.56 38.2104L26.56 38.2104C24.1134 38.2104 22.13 40.1938 22.13 42.6404Z" fill="#291028"/><path d="M23.94 42.6705L23.94 75.9705C23.94 77.6328 25.2876 78.9805 26.95 78.9805H104.17C105.832 78.9805 107.18 77.6328 107.18 75.9705V42.6705C107.18 41.0081 105.832 39.6605 104.17 39.6605L26.95 39.6605C25.2876 39.6605 23.94 41.0081 23.94 42.6705Z" fill="#E6E3DA"/><path d="M23.95 69.2803V49.3703C25.95 49.3703 27.57 50.9903 27.57 52.9903V65.6603C27.57 67.6603 25.95 69.2803 23.95 69.2803Z" fill="#291028"/><path d="M23.94 53.89V64.75H24.96V53.89H23.94Z" fill="#E6E3DA"/><path d="M88.08 42.8301H40.84C39.879 42.8301 39.1 43.6091 39.1 44.5701V74.0901C39.1 75.051 39.879 75.8301 40.84 75.8301H88.08C89.041 75.8301 89.82 75.051 89.82 74.0901V44.5701C89.82 43.6091 89.041 42.8301 88.08 42.8301Z" fill="#D8CBC5"/><path d="M42.72 44.8701H61.41C61.77 44.8701 62.06 45.1601 62.06 45.5201V69.8701C62.06 70.2501 61.75 70.5501 61.38 70.5501H42.75C42.37 70.5501 42.07 70.2401 42.07 69.8701V45.5201C42.07 45.1601 42.36 44.8701 42.72 44.8701Z" fill="#E6E3DA"/><path d="M42.07 65.6201H62.07V71.8301C62.07 72.1901 61.78 72.4801 61.42 72.4801H42.73C42.37 72.4801 42.08 72.1901 42.08 71.8301V65.6201H42.07Z" fill="#891229"/><path d="M45.42 54.7207H58.71V62.6907C58.71 63.9807 57.67 65.0207 56.38 65.0207H47.74C46.45 65.0207 45.41 63.9807 45.41 62.6907V54.7207H45.42Z" fill="#DFA245"/><path d="M59.8 58.0503C59.8 59.0303 59.01 59.8203 58.03 59.8203C57.05 59.8203 56.26 59.0303 56.26 58.0503C56.26 57.0703 57.05 56.2803 58.03 56.2803C59.01 56.2803 59.8 57.0703 59.8 58.0503Z" fill="#FFC6AD"/><path d="M47.78 58.0505C47.78 59.0305 46.98 59.8305 46 59.8305C45.02 59.8305 44.22 59.0305 44.22 58.0505C44.22 57.0705 45.02 56.2705 46 56.2705C46.98 56.2705 47.78 57.0705 47.78 58.0505Z" fill="#FFC6AD"/><path d="M47.69 67.0806V61.1406H56.45V67.0806C56.45 69.5006 54.49 71.4606 52.07 71.4606C49.65 71.4606 47.69 69.5006 47.69 67.0806Z" fill="#F5B091"/><path d="M46.26 60.5405V52.1905C46.26 49.5905 48.37 47.4805 50.97 47.4805H53.16C55.76 47.4805 57.87 49.5905 57.87 52.1905V60.5405C57.87 63.1405 55.76 65.2505 53.16 65.2505H50.97C48.37 65.2505 46.26 63.1405 46.26 60.5405Z" fill="#FFC6AD"/><path fill-rule="evenodd" clip-rule="evenodd" d="M45.42 57.96H46.33V61.49H45.42V57.96Z" fill="#DFA245"/><path fill-rule="evenodd" clip-rule="evenodd" d="M57.81 58.3604H58.71V61.8904H57.81V58.3604Z" fill="#DFA245"/><path d="M50.61 59.6406C50.61 59.6406 50.99 59.1406 51.41 59.5306C51.55 59.6606 51.73 59.7706 51.92 59.8106C52.07 59.8406 52.25 59.8406 52.42 59.7506C52.49 59.7106 52.55 59.6606 52.6 59.6106C52.7 59.5006 53.04 59.2006 53.51 59.6406" stroke="#171111" stroke-width="0.23" stroke-miterlimit="10"/><path d="M55 54.26H55.07C55.81 54.26 56.51 54.64 56.96 55.26L53.1 55.24C53.55 54.62 54.26 54.25 55 54.25" fill="#DFA245"/><path d="M48.96 54.26H48.89C48.15 54.26 47.45 54.64 47 55.26L50.86 55.24C50.41 54.62 49.7 54.25 48.96 54.25" fill="#DFA245"/><path d="M52.79 61.2502C52.7 60.8002 52.02 60.9902 52.02 60.9902L50.45 61.3002C50.45 61.3002 53.34 64.5002 54.99 60.4102L53.42 60.7202C53.42 60.7202 52.71 60.8002 52.8 61.2502" fill="#891229"/><path d="M55.99 55.8401C55.88 55.8101 55.77 55.8701 55.73 55.9701C55.07 57.7501 53.22 57.1201 53.22 57.1201C53.22 57.1201 53.46 57.2601 53.82 57.3401C54.76 57.5701 55.74 57.0701 56.12 56.1801C56.12 56.1601 56.14 56.1401 56.15 56.1201C56.2 56.0001 56.13 55.8701 56 55.8301" fill="#1D1D1B"/><path d="M50.49 57.4305C50.49 57.4305 50.52 56.2205 48.8 55.8705C48.56 55.8205 48.31 55.8205 48.07 55.8705C47.88 55.9105 47.69 55.9805 47.52 56.1305C47.52 56.1305 47.66 56.4605 47.93 56.8105L50.48 57.4405L50.49 57.4305Z" fill="#1D1D1B"/><path d="M50.49 57.4303C50.49 57.4303 49.59 55.5403 47.74 56.5103C47.74 56.5103 48.4 58.3303 50.49 57.4303Z" fill="white"/><path d="M48.46 56.8399C48.46 57.2099 48.76 57.5099 49.13 57.5099C49.5 57.5099 49.8 57.2099 49.8 56.8399C49.8 56.4699 49.5 56.1699 49.13 56.1699C48.76 56.1699 48.46 56.4699 48.46 56.8399Z" fill="#1D1D1B"/><path d="M53.64 47.2903H50.49C47.69 47.2903 45.42 49.5603 45.42 52.3603V58.6803H46.33V55.2903C46.33 53.3003 47.56 51.6203 49.28 50.9403C49.32 52.1503 50.31 53.1203 51.53 53.1203C51.97 53.1203 52.37 52.9903 52.72 52.7703C52.89 54.0703 53.99 55.0703 55.34 55.0703C56.27 55.0703 57.09 54.5903 57.56 53.8603C57.7 54.3103 57.8 54.7803 57.8 55.2803V58.6703H58.71V52.3503C58.71 49.5503 56.44 47.2803 53.64 47.2803V47.2903Z" fill="#DFA245"/><path d="M85.73 46.6104H65.82V48.0904H85.73V46.6104Z" fill="#232144"/><path d="M85.73 50.5908H65.82V52.0708H85.73V50.5908Z" fill="#232144"/><path d="M85.73 54.5703H65.82V56.0503H85.73V54.5703Z" fill="#232144"/><path d="M85.73 58.5508H65.82V60.0308H85.73V58.5508Z" fill="#232144"/><path d="M75.31 69.0908H65.82V70.5708H75.31V69.0908Z" fill="#232144"/><path d="M117.91 75.5706L111.06 77.6206L104.19 54.3006C103.14 50.7306 99.39 48.6906 95.83 49.7406C92.26 50.7906 90.22 54.5406 91.27 58.1006L102.45 95.2806C105.38 105.081 115.71 110.651 125.51 107.721L127.37 107.171L117.92 75.5706H117.91Z" fill="#F5B091"/></svg>