<?xml version="1.0" encoding="UTF-8"?><svg xmlns="http://www.w3.org/2000/svg" viewBox="0 0 126.81 124.96"><defs><style>.cls-1{fill:#5c1c13;}.cls-2{fill:#d8cbc5;}.cls-3{fill:#738ec1;}.cls-4{fill:#e6e3da;}.cls-5{fill:#8f411f;}.cls-6{fill:#006;}.cls-7{fill:#ff6200;}</style></defs><g id="desktop"><rect class="cls-3" x=".07" width="126.74" height="93.23" rx="2.49" ry="2.49"/><rect class="cls-2" x="4.98" y="5.1" width="116.86" height="68.61"/><rect class="cls-4" x="4.98" y="5.12" width="116.85" height="11.04"/><rect class="cls-2" x="53.79" y="9.45" width="57.28" height="2.37" rx="1.19" ry="1.19"/><path class="cls-6" d="M29.37,12.35v1.44c-.81.41-1.57.61-2.33.61-2.11,0-3.37-1.23-3.37-2.8,0-1.69,1.45-3.09,3.29-3.09.46,0,.8.08,1.16.2.26.08.42.17.58.17.14,0,.18-.24.2-.37h.2l.18,1.94h-.24c-.1-.38-.28-.7-.52-.92-.38-.38-.9-.59-1.5-.59-1.27,0-2,1-2,2.51s.9,2.5,2.1,2.5c.35,0,.68-.08,1.08-.26v-1.48c0-.47-.08-.66-.76-.66v-.22h2.54v.22c-.63,0-.61.2-.61.8ZM22.36,9.98v4.31h-.33l-4.31-4.45c.02.12.02.22.02.34v2.71c0,.83,0,1.13.76,1.13v.22h-2.02v-.22c.77,0,.77-.36.77-1.13v-3.09c0-.46,0-.96-.81-.96v-.21h1.91l3.55,3.64c-.02-.1-.02-.16-.02-.3v-1.98c0-.8.02-1.14-.74-1.14v-.21h2.02v.21c-.75,0-.79.32-.79,1.14ZM12.56,14.25v-.22c.49,0,.83-.04.83-.74v-3.7c0-.73-.26-.75-.83-.75v-.21h2.85v.21c-.58,0-.83.02-.83.75v3.7c0,.7.3.74.83.74v.22h-2.85Z"/><path class="cls-7" d="M34.96,14.25c-.1-.18-.12-.47-.12-.53,0-.1,0-.24.06-.34l-.22.04c-.06.08-.08.12-.08.16l.1-.04s.04.04.06.08c-.02.1-.14.1-.18.14-.06.2.12.32.14.49h.24ZM42.73,11.65c0-.88-.36-1.77-1.01-2.41-.28-.28-.59-.42-.83-.7-.12-.12-.21-.24-.3-.4-.1-.1-.16-.16-.28-.22.02.06.04.12.06.18h-.02c-.1,0-.2-.06-.28-.12l.08-.08s-.08-.04-.12-.04c-.32-.05-.62.12-.93.18v.04c.2.06.24.3.35.42h.12s.1.04.14.04c0-.04-.04-.12-.04-.12.04-.04.08-.04.12,0,.1.06.24-.04.34.12-.12,0-.24,0-.34.06,0,.02.06.06.04.1-.1-.04-.22,0-.26-.08l-.02.02c.12.14.3.26.49.32.26.04.49-.08.74-.02.91.45,1.56,1.49,1.56,2.53,0,1.49-.85,2.08-1.38,2.08-.1,0-.26-.06-.32-.12.06-.21.1-.45.1-.81,0-.86-.34-1.79-.81-2.27-.22-.22-.46-.4-.71-.4-.12,0-.24,0-.32.1-.1.08-.16.24-.14.34-.16.12-.42.18-.63.18-.22,0-.51-.08-.76-.28v-.3c-.06-.02-.26-.14-.16-.23.06.02.1.06.12.07-.02-.13-.02-.29-.12-.42-.04,0-.1,0-.16-.04-.06-.06-.12-.14-.12-.24.06.1.16.06.22.12-.1-.24-.06-.34-.24-.7-.04-.18-.22-.28-.34-.4-.06-.04-.08-.1-.15-.1-.08-.02-.08-.12-.08-.18.02,0,.08.04.12.06-.12-.28-.2-.58-.46-.74l-.06.04h-.32s.12-.06.18-.1c-.06-.06-.1-.08-.22-.08-.06.02-.13.08-.21.08h-.02c0-.06-.02-.14.1-.18-.12-.02-.22-.02-.36,0-.02.1-.08.16-.08.24-.06.04-.08.1-.14.16,0-.12.06-.24.08-.36-.08.02-.18.08-.22.08-.16-.08-.36-.16-.45-.16.12.08.06.22.08.32l-.08-.04c-.02-.08-.12-.14-.14-.24-.12,0-.2.04-.3.1v.02c.06,0,.14.06.18.12-.14,0-.24-.06-.39-.06,0,0,0-.02-.02-.02-.05.02-.11.08-.15.12-.14.12-.24.22-.3.4.04,0,.1,0,.12.02-.08.02-.12.12-.2.14v.3c-.06.06-.14.12-.18.24-.1.32-.12.68-.12,1.08-.02.08-.06.1-.1.12v.31s.12-.11.18-.15v.25c-.08,0-.14.1-.14.16,0,.08.02.16.02.24t.02.08s.04-.08.1-.1c0,0,.04-.04.12-.04-.06.06-.08.14-.12.22l-.06.06s-.02.04-.02.06c.08.41.2.78.37,1.18-.16.26-.34.77-.47,1.25-.1-.1-.24-.12-.36-.12-.11.02-.23.06-.32.18-.12-.06-.28-.04-.36.04-.17.14-.17.22-.17.34-.04.04-.12.14-.12.28,0,.18.02.3.12.47h3.04c-.02-.06-.06-.14-.1-.18-.06-.12-.02-.28-.02-.41.06-.12.12-.24.2-.34.02-.06,0-.06.02-.08l.14-.02c.08,0,.14-.06.24-.06.06.08.06-.06.16-.1.22-.04.43,0,.55.16,0,.02.02.02.02.04h-.1c-.11-.04-.25-.1-.39-.04,0,.04-.02.04-.02.1v.1c.08,0,.14.08.22.12.04-.06.15-.12.23-.12.1,0,.24.06.24.22v.22c.08.08.18.1.28.14-.04.08-.1.08-.16.08h-.16s-.06-.02-.06-.08c-.06.08-.1.16-.14.24h2.34c-.04-.08-.08-.14-.1-.18-.04-.12-.04-.28-.04-.41l.22-.3c.12,0,.22-.04.44-.06.04-.06,0-.09.18-.09.14,0,.24.02.28.04t0,.08s-.12-.04-.18-.02c-.04.04.02.06.02.1.04.04-.18-.04-.18-.04,0,0-.04.12-.06.16,0,0,.08.08.12.12.04.06-.06.12-.06.18-.04-.02-.12-.08-.12-.06-.04.16,0,.3-.02.47h.22l.02-.34c.02-.2.26-.56.41-.56.08,0,.14.04.2.08.04.08.13.12.13.16,0,.04-.06.06-.15.06-.04,0-.04-.06-.1-.1l-.12.12s.14.12.14.2c0,.1-.02.14-.08.2l-.12-.24c-.06,0-.16.12-.16.18,0,.08-.04.12-.04.24h1.24c.14,0,.26-.04.4-.12h.24c.5,0,.89-.14,1.25-.51.49-.46.77-1.23.77-1.97ZM38.38,13.48l-.2.02c.08.04.08.14.08.16,0,.06-.04.12-.08.16-.04-.04-.04-.1-.08-.16-.04,0-.06.1-.06.14,0,.18.08.32.14.45h.18c-.02-.16-.06-.3-.06-.49,0-.1.06-.22.08-.28ZM35.73,13.72c0-.08-.06-.1-.14-.1-.04,0-.13.06-.13.1,0,.08-.04.53-.04.53h.13c.06-.18.18-.42.18-.53ZM35.3,13.7s.02.04-.18-.16c-.04,0-.1.12-.1.16,0,.16.04.38.1.55h.16c0-.18.02-.38.02-.55ZM40.59,8.62c-.04-.08-.12-.12-.18-.12-.06-.08-.14-.18-.22-.18.06,0,.14-.06.24-.06.04.1.12.16.14.24l.02.12ZM39.98,8.2h-.22c-.04-.06-.1,0-.14,0s-.06,0-.14-.06c.12,0,.18-.06.28-.1.08.06.16.08.22.16ZM39.49,10.5c-.13-.04-.21-.1-.33-.1-.04,0-.22.06-.24.1-.06-.08.04-.24.12-.28.08-.04.12-.02.16,0,0,.12.14.06.21.1.04.06.06.1.08.18ZM39.48,10.8c-.11,0-.13-.02-.21-.02-.1,0-.22.04-.28.14-.04-.08-.02-.12,0-.17.06-.06.16-.14.24-.14.14,0,.25.1.25.19ZM39.94,11.24c-.16-.1-.41-.16-.54-.16-.08,0-.31.1-.4.18l-.04-.18c.12-.02.12-.12.2-.12.06,0,.14-.02.2-.02s.09-.04.11-.04c.1,0,.06.1.12.1s.1-.04.14-.04c.1,0,.18.16.2.28ZM40,11.69c-.14,0-.28-.04-.3-.1-.04-.04,0-.12-.1-.12-.04,0-.1.06-.1.06-.04.02-.15-.06-.15,0,0,.1-.08.14-.18.14-.04,0-.08,0-.12-.02v-.2c.26,0,.24-.08.35-.08.08,0,.13.04.19.04.1,0,.04-.04.14-.04s.14.08.2.1c0,.06.06.14.06.22ZM39.82,12.12c-.06-.02-.2-.04-.2-.1,0-.08-.04-.1-.14-.1-.08,0-.13.02-.25.06,0,0-.06-.08-.08-.16.04-.02.2-.06.27-.06.14,0,.28,0,.28.06,0,.08.12.1.12.3ZM36.32,8.97s-.04.2-.04.2l-.16.04.1-.44c.04.07.1.15.1.19ZM40.2,12.83c0,.12,0,.16-.06.26l-.12-.18c.04-.06.04-.14.1-.24.02,0,.08.14.08.16ZM39.72,12.57c-.14,0-.06-.28-.36-.28-.06,0-.09.1-.18.12,0-.02.02-.14.02-.14,0-.04.02-.12.1-.16.15,0,.11.06.23.1.06.02.1.06.18.06v.3ZM38.46,11.42c-.18-.1-.28-.28-.45-.47.16,0,.2.16.32.18.04.04.08.06.12.12v.16ZM36.73,9.94c-.12,0-.18-.06-.24-.17,0-.06-.02-.14,0-.24.04.08.04.12.08.16.08-.04.08.06.1.08.02.05.06.11.06.17ZM40.06,13.36q-.04.06-.06.12c0-.1-.12-.16-.2-.32l.08-.14c.06.04.14.1.14.2,0,0-.02.04,0,.09,0,.02.04.02.04.06ZM39.66,12.79c0,.08-.02.1-.04.2-.14-.02-.14-.18-.16-.2-.09-.12-.23-.02-.33-.02-.04-.12.02-.12.02-.2.06,0,.12-.04.18,0,.09-.04.15.06.25.06.02.04.06.14.08.16ZM38.64,11.96c0,.08-.04.14-.02.22-.04-.12-.12-.24-.16-.36,0-.02-.02-.02.02-.04.02,0,.1,0,.1.02.02.04.06.1.06.16ZM36.88,10.38c-.02.08-.1,0-.12,0h-.18s-.04-.06-.04-.1c.08-.02.14-.06.2-.02.04.06.08.12.14.12ZM37.32,10.84c-.06.06-.22.08-.34-.02l.16-.07c.06.05.14.07.18.09ZM38.36,11.98c0,.12-.02.26-.02.41-.06,0-.06-.04-.06-.12-.02-.12-.06-.22-.1-.34-.04-.16-.14-.29-.22-.48-.02-.08-.12-.12-.2-.18.1,0,.2,0,.28.08,0,.04.02.06.08.12.14,0,.1.18.22.26-.06.05-.08.09-.12.13.06.04.12.06.14.12ZM37.57,11.38c0,.06-.04.08-.08.12,0,0-.07-.1-.07-.14,0-.08,0-.12.02-.18.06.06.13.14.13.2ZM39.46,13.22s-.04.04-.04.04c-.09-.04-.15-.06-.27-.06,0-.08-.06-.18-.1-.18-.12,0-.1.08-.2.08l.18-.18s.02-.04.06-.04c.06.04.08.06.14.06,0,.04,0,.06-.02.12.06.04.1-.02.14.04.06.02.11.04.11.12ZM37.83,11.82s-.06.08-.08.08c0,0-.1-.1-.12-.19-.02-.08.06-.22.06-.22.02,0,.04.04.06.04.02.02,0,.08.02.14.06.04.1.11.06.15ZM36.28,9.88c-.24-.13-.51-.23-.8-.25,0,.06,0,.12-.02.14.23.11.46.21.66.4v.18c-.2-.2-.43-.4-.68-.47-.02.04-.1.08-.12.16-.14-.1-.3-.2-.47-.22-.06,0-.1-.21-.1-.21.1-.04.16-.1.2-.2h.08c.06,0,.06-.04.06-.1,0-.12-.26-.12-.38-.12-.14,0-.24,0-.33.06-.04,0-.02.06-.02.1,0,.02.06.06.06.06.04,0,.08-.04.12-.04-.02.12.02.18.14.24l-.02.2c-.24,0-.41.1-.59.18-.06-.04-.1-.1-.14-.16-.24.08-.65.4-.65.4v-.14c.18-.16.41-.24.59-.34v-.14c-.08-.04-.16,0-.24,0-.17.02-.35.1-.47.2,0-.06-.02-.14-.02-.14.22-.12.49-.22.75-.18v-.08s-.02-.1-.06-.1c-.12-.12-.24-.3-.24-.43l.08-.04c-.04-.11-.08-.42,0-.52-.12-.06-.23-.16-.27-.24-.04-.1-.08-.16-.1-.28.06-.12.1-.16.16-.28.04,0,.09-.02.11-.06.1-.02.16-.12.28-.06.08,0,.16.04.22.06,0,.04,0,.06.04.1.12,0,.12.12.18.22.06.02.12.02.16.02.12.04.22.04.26.09.16-.09.32-.11.51-.09.02-.06.06-.14.08-.24.02.06.02,0,.06,0,.07-.06.17-.16.31-.12.08.06.22.02.3.12.06.08.1.2.16.3-.06.12,0,.28-.12.34l-.12.12s-.04.04-.1.04c.06.14.02.34-.04.48.04-.02.1-.02.1-.07.02.02,0,.06,0,.07v.06c0,.1-.06.2-.14.28-.04.12-.14.28-.27.3v.04c.29,0,.54.08.82.22v.13ZM37.1,11.14l-.1.04c-.22,0-.32-.06-.42-.14.08,0,.18-.1.18-.1.1.1.24.18.34.2ZM36.53,10.69c-.11,0-.26.06-.32-.06.04-.02.08-.08.12-.12l.19.18ZM38.17,12.57c0,.1-.12.22-.16.3.04-.1.04-.3,0-.3-.04-.02-.12,0-.12-.04,0-.06.02-.14.02-.18,0-.08-.06-.12-.06-.16,0-.12.14-.14.18-.22.02.08.02.16.02.26,0,.04.06.16,0,.26,0,.06.12.02.12.08ZM37.71,12.35c0,.12-.08.22-.1.34,0-.12-.02-.22-.1-.3,0-.04.06-.04.02-.1,0,0-.11-.06-.11-.14s.07-.14.11-.2c0-.02.08.04.08.16,0,.02,0,.08-.02.12-.02.06.12.06.12.12ZM36.05,10.92c-.1.02-.18-.08-.28-.12-.04-.11-.04-.23-.08-.29.08.06.26.06.22.24,0,.05.08.09.14.17ZM36.61,11.48c-.08,0-.22,0-.3-.06-.12-.06-.16-.1-.22-.16.08-.06.18-.06.22-.08.08.08.15.22.3.3ZM33.23,8.38l-.14.04.02-.1c.04-.06.06-.12.12-.18v.24ZM35.81,11.18c-.08.02-.22.06-.26-.04-.11-.18-.06-.35,0-.48.04.11.06.23.08.33.02.08.14.12.18.18ZM35.24,10.08c-.02.12-.06.3-.18.38,0-.08-.04-.12-.08-.18-.02,0,0,.06-.02.06,0,.04-.04.12-.04.2-.04.02-.12.06-.2.02v-.06s-.02-.12-.02-.16l-.02-.02c-.06.02-.06.06-.06.1-.02.04-.06.08-.06.14-.08,0-.12-.02-.18-.06v-.18s0-.04-.02-.04l-.1.1c-.08-.06-.1-.22-.1-.32.32-.18.73-.12.97-.02.04.02.08.02.12.04ZM36.28,11.71h-.06c-.22.07-.4-.06-.59-.18.1-.04.24-.06.36-.06l.06.12c.06.02.16.08.22.12ZM33.27,8.66l-.1.12c.02.19-.06.34-.06.52l-.1-.32c.02-.08.04-.16.1-.25l.16-.06ZM35.34,11.26c-.1-.06-.28-.08-.24-.2.04-.1.1-.12.14-.16.02.14.04.24.1.36ZM37.2,13.32h-.02c-.04-.06-.06-.1-.1-.1.06-.22-.06-.4-.1-.59v-.06c.06.1.22.2.2.3.02.18.02.34.02.45ZM36.73,12.57c-.1,0-.18,0-.24-.1-.02,0-.05-.06-.07-.02-.1.08-.2-.06-.32-.04-.06.06-.12.1-.22.12v-.02c0-.06.04-.12.12-.16.12.04.22-.22.34-.08.06.02.12.02.15.02.14.06.18.18.24.28ZM34.9,10.94c0,.14-.02.32-.16.39l-.04-.2c.06-.04.12-.08.2-.18ZM35.57,11.82s-.15.08-.23.08c-.12-.1-.2-.21-.32-.37l.32.06c.06.04.17.18.23.23ZM36.77,12.97c-.08-.06-.2-.06-.24-.16-.08-.02-.13-.02-.23-.02-.08.02-.18.02-.26.02-.02,0,0-.02-.04-.04-.12.04-.24.04-.36.16l.1-.24c.08,0,.14-.04.18-.04.08-.02.14-.02.2-.02v.02c.22,0,.48-.02.64.16l.02.16ZM34.47,11.26c-.12-.12-.22-.22-.22-.34.06,0,.12,0,.18.04,0,.1.04.18.04.3ZM34.09,10.69l-.06.25c-.06-.12-.12-.23-.14-.37l.2.12ZM36.98,13.38s-.06.16-.08.24c-.04-.12-.08-.3-.22-.3-.02-.08-.04-.1-.12-.16l-.15-.02c.02.08.13.08.06.19.08.06.14.06.18.16.04.06,0,.14.02.18l-.12.06c0-.1.02-.3-.11-.34-.12.04-.14-.12-.22-.16-.04,0-.04-.1-.1-.06-.1.06-.22,0-.32.06l.1-.16c.08-.06.16-.04.24-.06l.16-.02c.16,0,.3.08.46.14.08.04.12.1.12.19.04.02.12.02.12.08ZM35.38,12.45h-.04s-.16-.06-.2-.1c-.02-.06-.02-.12-.02-.12h.16l.1.22ZM33.82,11c-.12-.04-.26-.16-.31-.25-.04-.08-.06-.18-.06-.24.07,0,.13.06.15.1v.02c.1.12.2.21.22.37ZM34.79,11.71c-.02.11-.08.15-.18.29-.06.04-.18.06-.3.12.02-.06.08-.08.12-.14.04-.06.12-.16.14-.22.1-.05.14-.05.22-.05ZM36.28,13.66l-.06.06c-.06-.06-.02-.22-.12-.24-.1,0-.18-.1-.22-.12l.08-.04s.04-.02.08,0c.04.04.08.06.08.1.04.06.1,0,.14.06.02.06.04.14.02.18ZM34.43,11.55c-.06.12-.12.23-.24.27-.06,0-.16.04-.28,0,.06-.04.12-.06.2-.11l.16-.16h.16ZM34.83,12.47c-.08.06-.14.06-.24.04l-.12-.16h.3l.06.12ZM33.37,10.94c-.1.1-.2.14-.24.26,0-.06-.02-.12-.04-.16.02-.08.08-.12.1-.14.06.02.1.02.18.04ZM33.6,11.24c0,.08-.04.18-.13.28-.02.02-.08.06-.08.06,0-.12.06-.22.06-.32.06-.02.11-.06.15-.02ZM33.88,11.48l-.08.3c-.1.08-.24.04-.35.04.15-.04.27-.21.35-.34.02-.02.04,0,.08,0ZM33.98,12.51c0,.06-.02.3-.02.3-.04-.14-.14-.28-.26-.28-.06-.06-.12-.12-.14-.18-.06-.06-.11,0-.19-.06-.08,0-.18,0-.26.06v-.06l.14-.16c.14.02.31,0,.35.1.1.06.2.12.22.16v.06s.12.04.16.06ZM33.88,13.13l-.14.12s0-.14-.06-.21c0-.04.04-.06.02-.08-.02-.04-.25-.12-.25-.12-.08-.06-.18-.12-.26-.2-.08-.02-.14.02-.24.04v-.04c.04-.08.04-.18.16-.18.06,0,.14,0,.18.06.08,0,.12.08.18.1.09.1.17.14.23.18,0,.06.02.1.06.12.12,0,.08.12.12.2ZM33.58,13.42l-.05.2-.13-.36c-.16-.14-.34-.16-.45-.25-.08-.02-.08.04-.12,0,0-.04,0-.1.06-.16h.12l.12.06c.06.06.2.06.2.18,0,.02-.02.04.04.12l.19.04.02.16ZM33.03,13.62c0,.16-.26.38-.26.38,0-.1.06-.22.06-.34,0,0-.08-.08-.16-.08-.06.04-.06.08-.08.14-.06.12-.18.24-.2.36-.02,0-.02-.02-.02-.02,0-.2.02-.55.14-.69.1-.12.18-.12.3-.14l.1.02-.08.12c.08.04.2.12.2.24ZM32.32,13.5c0,.08-.02.16-.06.22-.02-.08-.08-.18-.18-.18-.08.16-.1.22-.02.46-.06.06-.1.08-.18.12-.04-.08-.04-.22-.04-.3,0-.14.02-.28.06-.4.06-.06.1-.16.16-.21h.22c-.1,0-.1.09-.1.14.06.02.14.04.14.14ZM31.8,13.72s-.08-.06-.14-.06c-.06.12,0,.2,0,.34,0,.06-.02.12-.02.12-.04,0-.11-.08-.13-.16v-.32l.17-.22c.12.08.16.2.12.3ZM35.95,8.13c.04-.1.04-.28-.04-.38-.04-.08-.14-.12-.24-.2l-.14.08c-.07.04-.11.12-.11.22.13.06.27.22.33.34h.06c.06-.06.1,0,.14-.06ZM35.28,8.26c0-.06-.02-.06-.04-.06-.1,0-.1-.16-.18-.12-.04,0-.08-.04-.14,0t.04.02c.1,0,.06.14.14.16h.18ZM35.59,8.5s.04,0,0-.02l-.43-.06c-.04.06-.14.06-.14.12h-.04c.04.16.04.33.04.52.08.02.16.06.16.18.08.04.16.06.24.12.04-.02.06-.08.07-.14-.07-.1-.25-.04-.25-.22l-.12-.04c0-.12,0-.23-.02-.32l.02-.02s.02.04.06.08c.08,0,.16.02.24-.04.04-.02.04-.12.07-.12s.07,0,.09-.04ZM34.59,8.07s-.16.02-.22.04c-.08.02-.14.08-.14.14h.22c.02-.06.1-.14.14-.18ZM34.15,7.85c-.02-.2-.24-.22-.34-.3h-.08c-.16.06-.19.22-.21.35.06.18.17.06.25.18.08-.06.28-.2.38-.24ZM35.34,9.7v-.1h-.2l-.02.02.22.08ZM34.43,8.54s-.04-.08-.1-.12h-.49c0,.08.06.12.12.12,0,.08.06.1.08.12.06.04.08.04.14,0,.06.04.08-.04.1,0,0,.12,0,.18-.02.28-.02.14-.14.12-.24.18,0,.06-.06.16,0,.22.06-.04.1-.06.2-.1,0-.06.06-.12.14-.16,0-.18.06-.36.06-.54ZM34.27,9.6c-.04-.08-.14,0-.24-.04,0,.04,0,.08.06.12.06-.06.16-.08.18-.08Z"/><rect class="cls-7" x="13.99" y="26.79" width="16.52" height="2.77" rx="1.39" ry="1.39"/><rect class="cls-4" x="13.99" y="33.96" width="16.52" height="2.77" rx="1.39" ry="1.39"/><rect class="cls-4" x="13.99" y="41.13" width="16.52" height="2.77" rx="1.39" ry="1.39"/><rect class="cls-4" x="13.99" y="48.29" width="16.52" height="2.77" rx="1.39" ry="1.39"/><rect class="cls-4" x="53.79" y="26.79" width="57.28" height="25.28"/><rect class="cls-4" x="53.79" y="60.61" width="57.28" height="13.09"/></g><g id="woman"><path class="cls-5" d="M63.41,121.11c8.89,0,16.09-7.2,16.09-16.09v-20.88h-32.18v20.88c0,8.89,7.2,16.09,16.09,16.09"/><circle class="cls-5" cx="41.7" cy="72.62" r="6.51"/><circle class="cls-5" cx="85.11" cy="72.62" r="6.51"/><path class="cls-7" d="M126.8,124.96c.03-.79,0-.67-.06-1.44v-.35s-.03.02-.03.02c-.95-9.82-8.83-17.84-19.01-18.6-.24-.02-.47,0-.7-.02v-.03h-1.16c-.11,0-.23,0-.34,0H20.54v.03c-.35,0-.7,0-1.05.03-9.75.73-17.42,7.99-19.13,17.17h-.01s-.02.2-.02.2c-.19,1.08-.31,1.87-.33,3h126.8Z"/><path class="cls-1" d="M88.67,97.56c-.23,0-.46.02-.68.03,1.32-2.43,2.08-5.21,2.08-8.17,0-3.72-1.2-7.16-3.22-9.97.19-1.16.3-2.38.35-3.63h.01v-.26c.01-.32.04-.63.04-.95l-.04-1.72v-21.33c0-10.29-8.1-18.63-18.1-18.63h-11.23c-9.99,0-18.1,8.34-18.1,18.63v26.58h.04v.14c.5,9.02,9.01,17.64,18.16,19.39,2.91,5.28,8.53,8.86,14.98,8.86,1.9,0,3.73-.32,5.44-.9-.2.81-.31,1.65-.31,2.52,0,5.84,4.74,10.58,10.58,10.58s10.58-4.74,10.58-10.58-4.74-10.58-10.58-10.58Z"/></g></svg>