<svg viewBox="0 0 121 120" fill="none" xmlns="http://www.w3.org/2000/svg"><g clip-path="url(#clip0_7_15317)"><path d="M6.92115 85.9279C4.3184 83.0137 2.4358 79.5294 1.42474 75.7551C0.413683 71.9809 0.302373 68.0221 1.09976 64.197L11.188 26.5233C12.4101 22.8116 14.4863 19.4385 17.2495 16.6753C20.0127 13.9121 23.3858 11.8359 27.0976 10.6137L64.7712 0.525545C68.5963 -0.271846 72.5551 -0.160536 76.3294 0.850524C80.1036 1.86158 83.588 3.74418 86.5022 6.34693L114.055 33.9324C116.661 36.845 118.548 40.3281 119.565 44.102C120.582 47.8759 120.699 51.8356 119.909 55.6633L109.788 93.3039C108.569 97.0121 106.498 100.383 103.741 103.146C100.983 105.909 97.6169 107.987 93.9113 109.214L56.2045 119.335C52.3794 120.132 48.4206 120.021 44.6464 119.01C40.8721 117.999 37.3878 116.116 34.4735 113.513L6.92115 85.9279Z" fill="#FF4612"/><path d="M74.1092 43.148C70.5414 41.9256 68.2619 41.463 68.4271 39.3486C68.5593 37.6968 69.8146 36.8378 72.094 37.036C73.7458 37.1682 74.8029 37.8619 75.2984 38.8861C75.6187 39.5372 76.1115 40.0879 76.7231 40.4782C77.3348 40.8685 78.0418 41.0834 78.7671 41.0996C82.1037 41.1657 84.1518 37.3003 82.0706 34.6903C80.1876 32.3777 77.0823 30.7919 72.7217 30.4285C65.0575 29.8668 60.2344 33.2697 59.805 39.1174C59.3094 45.3615 63.5049 47.0464 69.8476 49.1938C74.2083 50.5814 75.2654 51.2422 75.1333 53.0923C75.0011 54.8433 73.4815 55.7353 71.103 55.537C69.1209 55.4049 67.9316 54.612 67.37 53.4557C67.0266 52.8194 66.5158 52.2891 65.8927 51.9222C65.2697 51.5554 64.5582 51.3659 63.8352 51.3743C63.295 51.3621 62.7579 51.4614 62.2578 51.666C61.7576 51.8706 61.3049 52.1762 60.9282 52.5637C60.9282 52.5637 59.2764 54.4138 56.072 54.4138C53.7265 54.3477 51.6453 53.0923 51.6453 49.7885L51.7113 38.82C52.3294 39.1997 53.0272 39.4308 53.7497 39.4953C54.4721 39.5597 55.1997 39.4557 55.8753 39.1915C56.5508 38.9272 57.1558 38.5099 57.6428 37.9723C58.1299 37.4347 58.4856 36.7914 58.682 36.0931C58.8785 35.3948 58.9104 34.6605 58.7751 33.9478C58.6399 33.2351 58.3412 32.5635 57.9026 31.9857C57.464 31.4079 56.8974 30.9397 56.2473 30.618C55.5972 30.2962 54.8813 30.1295 54.1559 30.1311C53.3177 30.1301 52.4951 30.3587 51.7774 30.7919V26.8274C51.7774 26.489 51.7108 26.1539 51.5813 25.8412C51.4518 25.5286 51.262 25.2445 51.0227 25.0052C50.7834 24.7659 50.4994 24.5761 50.1868 24.4466C49.8741 24.3171 49.5391 24.2505 49.2007 24.2505H45.732C45.0543 24.2504 44.4038 24.5174 43.9215 24.9935C43.4392 25.4697 43.1639 26.1167 43.1552 26.7944L42.9901 50.3501C42.7588 53.2575 40.7437 54.4138 38.4643 54.4138C36.0857 54.4138 33.9054 53.1583 33.9054 49.7885L34.0706 34.9216C34.0706 34.4747 33.8931 34.0462 33.5771 33.7302C33.2612 33.4142 32.8326 33.2367 32.3858 33.2367H27.1662C26.9422 33.2323 26.7196 33.2726 26.5114 33.3553C26.3031 33.438 26.1135 33.5615 25.9535 33.7183C25.7935 33.8752 25.6665 34.0625 25.5798 34.2691C25.493 34.4757 25.4484 34.6975 25.4484 34.9216L25.2832 51.9029C25.2172 58.973 30.8001 62.1446 38.4973 62.1446C41.7017 62.1446 43.882 60.8231 45.4347 59.039C47.3507 61.1534 50.3899 62.1446 54.0899 62.1446C57.7898 62.1446 60.5317 61.649 63.2736 60.0962C65.5087 61.3233 67.9945 62.0239 70.5414 62.1446C78.4698 62.7723 83.326 59.1712 83.7885 52.9931C84.2179 47.4428 80.0555 45.2293 74.1092 43.181V43.148ZM29.9742 29.4374C30.9034 29.4373 31.8117 29.1613 32.5838 28.6444C33.3559 28.1274 33.9572 27.3928 34.3112 26.5336C34.6653 25.6745 34.7562 24.7295 34.5725 23.8186C34.3888 22.9077 33.9388 22.0718 33.2794 21.4171C32.62 20.7623 31.7811 20.3181 30.869 20.1408C29.9569 19.9636 29.0126 20.0612 28.1561 20.4214C27.2995 20.7815 26.5692 21.3879 26.0577 22.1638C25.5463 22.9396 25.2767 23.8498 25.2832 24.7791C25.292 26.0175 25.79 27.2023 26.6688 28.075C27.5476 28.9477 28.7358 29.4374 29.9742 29.4374ZM85.1429 64.0938C77.4457 64.0938 71.6646 68.3887 70.0789 75.723C69.6494 68.8512 65.2888 64.7545 58.8469 64.7545C57.0349 64.6577 55.2296 65.0441 53.616 65.8742C52.0023 66.7043 50.6382 67.9483 49.6632 69.4789C48.6472 67.9494 47.2515 66.7099 45.6127 65.8817C43.9739 65.0536 42.1482 64.6652 40.3142 64.7545C36.5152 64.7545 24.5234 64.292 24.5234 79.7206V90.9203C24.5234 92.0375 24.9672 93.1089 25.7571 93.8988C26.547 94.6888 27.6183 95.1326 28.7354 95.1326C29.8525 95.1326 30.9238 94.6888 31.7137 93.8988C32.5036 93.1089 32.9474 92.0375 32.9474 90.9203V78.6303C32.9474 75.0623 34.9625 72.6505 38.2991 72.6505C41.3714 72.6505 43.1552 74.7649 43.1552 78.5973V90.9864C43.1552 92.1035 43.599 93.1749 44.3889 93.9649C45.1788 94.7549 46.2501 95.1987 47.3672 95.1987C48.4843 95.1987 49.5557 94.7549 50.3456 93.9649C51.1355 93.1749 51.5792 92.1035 51.5792 90.9864V77.6061C51.9096 74.5997 53.7595 72.6505 56.7657 72.6505C59.9701 72.6505 61.721 74.7649 61.721 78.5973V90.9864C61.721 92.0992 62.163 93.1664 62.9498 93.9532C63.7366 94.7401 64.8037 95.1821 65.9165 95.1821C67.0292 95.1821 68.0963 94.7401 68.8831 93.9532C69.6699 93.1664 70.1119 92.0992 70.1119 90.9864V84.3788C71.7637 91.581 77.5448 95.8759 85.3741 95.8759C89.0741 95.8759 92.5758 94.7527 95.1195 92.9025L95.3838 92.7043L95.6481 92.5061V92.4731L96.1106 92.1427C98.5552 89.8961 97.1347 85.7334 93.8311 85.3039C93.1124 85.2085 92.3812 85.312 91.7172 85.6033C91.0532 85.8945 90.4818 86.3623 90.0651 86.9558C89.0741 88.2112 87.4223 88.938 85.1759 88.938C81.2778 88.938 78.9653 86.4933 78.7671 82.727H97.0355C97.7627 82.727 98.4602 82.4381 98.9744 81.9238C99.4886 81.4096 99.7775 80.7121 99.7775 79.9849V79.2911C99.7775 69.7762 93.9963 64.0938 85.209 64.0938H85.1429ZM78.7671 76.9784C79.0314 73.047 81.4099 70.8004 85.1099 70.8004C89.008 70.8004 90.891 73.2452 91.0562 76.9454L78.7671 76.9784Z" fill="white"/></g><defs><clipPath id="clip0_7_15317"><rect width="119.851" height="119.86" fill="white" transform="translate(0.574219)"/></clipPath></defs></svg>