<svg viewBox="0 0 160 160" fill="none" xmlns="http://www.w3.org/2000/svg"><path d="M125.32 16H33.37V38.71H125.32V16Z" fill="#891229"/><path d="M125.32 38.71H33.37V100.83H125.32V38.71Z" fill="#891229"/><path d="M121.98 16H36.7V38.71H121.98V16Z" fill="#E6E3DA"/><path d="M121.98 38.71H36.7V96.97H121.98V38.71Z" fill="#D8CBC5"/><path d="M62.43 45.0303H42.33C41.9047 45.0303 41.56 45.375 41.56 45.8003V74.1503C41.56 74.5755 41.9047 74.9203 42.33 74.9203H62.43C62.8553 74.9203 63.2 74.5755 63.2 74.1503V45.8003C63.2 45.375 62.8553 45.0303 62.43 45.0303Z" fill="#E6E3DA"/><path d="M59.61 71.1903C61.5264 71.1903 63.08 69.5964 63.08 67.6303C63.08 65.6642 61.5264 64.0703 59.61 64.0703C57.6936 64.0703 56.14 65.6642 56.14 67.6303C56.14 69.5964 57.6936 71.1903 59.61 71.1903Z" fill="#222144"/><path d="M45.68 62.2696C47.4528 62.2696 48.89 60.8324 48.89 59.0596C48.89 57.2868 47.4528 55.8496 45.68 55.8496C43.9071 55.8496 42.47 57.2868 42.47 59.0596C42.47 60.8324 43.9071 62.2696 45.68 62.2696Z" fill="#222144"/><path fill-rule="evenodd" clip-rule="evenodd" d="M45.68 60.6592C43.91 60.6592 42.47 62.0992 42.47 63.8692C42.47 64.2992 42.56 64.7092 42.71 65.0792C42.07 65.7292 41.67 66.6192 41.67 67.6192C41.67 69.5892 43.22 71.1792 45.14 71.1792C47.06 71.1792 48.61 69.5892 48.61 67.6192C48.61 66.9892 48.44 66.4092 48.16 65.8892C48.61 65.3392 48.9 64.6392 48.9 63.8692C48.9 62.0992 47.46 60.6592 45.69 60.6592H45.68Z" fill="#222144"/><path d="M46.76 57.9796C48.5328 57.9796 49.97 56.5424 49.97 54.7696C49.97 52.9967 48.5328 51.5596 46.76 51.5596C44.9872 51.5596 43.55 52.9967 43.55 54.7696C43.55 56.5424 44.9872 57.9796 46.76 57.9796Z" fill="#222144"/><path d="M59.07 62.2696C60.8428 62.2696 62.28 60.8324 62.28 59.0596C62.28 57.2868 60.8428 55.8496 59.07 55.8496C57.2972 55.8496 55.86 57.2868 55.86 59.0596C55.86 60.8324 57.2972 62.2696 59.07 62.2696Z" fill="#222144"/><path fill-rule="evenodd" clip-rule="evenodd" d="M59 60.5195C57.25 60.5195 55.84 61.9395 55.84 63.6795C55.84 65.4195 57.26 66.8395 59 66.8395C60.74 66.8395 62.16 65.4195 62.16 63.6795C62.16 61.9395 60.74 60.5195 59 60.5195Z" fill="#222144"/><path fill-rule="evenodd" clip-rule="evenodd" d="M61.11 54.7196C61.11 52.9696 59.69 51.5596 57.95 51.5596C56.21 51.5596 54.79 52.9796 54.79 54.7196C54.79 56.4596 56.21 57.8796 57.95 57.8796C59.69 57.8796 61.11 56.4596 61.11 54.7196Z" fill="#222144"/><path d="M41.56 67.4902H63.2V74.1802C63.2 74.5902 62.87 74.9202 62.46 74.9202H42.29C41.89 74.9202 41.57 74.6002 41.57 74.2002V67.4902H41.56Z" fill="#891229"/><path d="M60.4 58.9598C60.4 60.0198 59.54 60.8698 58.49 60.8698C57.44 60.8698 56.58 60.0098 56.58 58.9598C56.58 57.9098 57.44 57.0498 58.49 57.0498C59.54 57.0498 60.4 57.9098 60.4 58.9598Z" fill="#F0A86B"/><path d="M47.85 58.9603C47.85 60.0203 46.99 60.8903 45.92 60.8903C44.85 60.8903 43.99 60.0303 43.99 58.9603C43.99 57.8903 44.85 57.0303 45.92 57.0303C46.99 57.0303 47.85 57.8903 47.85 58.9603Z" fill="#F0A86B"/><path d="M47.49 69.0696V62.9196L56.97 62.6396V69.0696C56.97 71.6896 54.85 73.8096 52.23 73.8096C49.61 73.8096 47.49 71.6896 47.49 69.0696Z" fill="#E3944E"/><path d="M45.95 61.9904V52.9604C45.95 50.1404 48.23 47.8604 51.05 47.8604H53.42C56.24 47.8604 58.52 50.1404 58.52 52.9604V61.9904C58.52 64.8104 56.24 67.0903 53.42 67.0903H51.05C48.23 67.0903 45.95 64.8104 45.95 61.9904Z" fill="#F0A86B"/><path d="M52.33 61.3297C52.26 61.3297 52.18 61.3297 52.11 61.3097C51.89 61.2697 51.69 61.1497 51.5 60.9797C51.4 60.8897 51.3 60.8397 51.19 60.8497C50.98 60.8697 50.82 61.0797 50.82 61.0797L50.62 60.9297C50.62 60.9297 50.85 60.6297 51.17 60.5997C51.34 60.5897 51.52 60.6497 51.67 60.7897C51.83 60.9297 51.99 61.0197 52.16 61.0597C52.34 61.0997 52.49 61.0797 52.62 61.0097C52.68 60.9797 52.73 60.9397 52.78 60.8797C52.86 60.7897 53.04 60.6297 53.3 60.6297C53.51 60.6297 53.73 60.7197 53.94 60.9197L53.77 61.0997C53.61 60.9497 53.46 60.8797 53.31 60.8797C53.14 60.8797 53.01 60.9997 52.96 61.0497C52.89 61.1297 52.81 61.1897 52.73 61.2297C52.61 61.2897 52.47 61.3297 52.33 61.3297Z" fill="black"/><path d="M55.46 55.1904H55.54C56.35 55.1904 57.1 55.6004 57.59 56.2804L53.41 56.2604C53.9 55.5804 54.66 55.1904 55.47 55.1904" fill="#222144"/><path d="M48.92 55.1904H48.84C48.03 55.1904 47.28 55.6004 46.79 56.2804L50.97 56.2604C50.48 55.5804 49.72 55.1904 48.91 55.1904" fill="#222144"/><path d="M53.07 62.7596C52.97 62.2696 52.23 62.4796 52.23 62.4796L50.53 62.8096C50.53 62.8096 53.65 66.2796 55.44 61.8496L53.74 62.1796C53.74 62.1796 52.97 62.2596 53.07 62.7496" fill="#891229"/><path d="M56.53 56.8899C56.41 56.8599 56.29 56.9199 56.25 57.0299C55.54 58.9599 53.53 58.2799 53.53 58.2799C53.53 58.2799 53.79 58.4299 54.18 58.5199C55.2 58.7699 56.25 58.2299 56.67 57.2599C56.67 57.2399 56.69 57.2199 56.7 57.1899C56.75 57.0599 56.67 56.9199 56.54 56.8799" fill="black"/><path d="M50.58 58.62C50.58 58.62 50.61 57.31 48.75 56.93C48.49 56.88 48.22 56.87 47.97 56.93C47.77 56.97 47.56 57.05 47.38 57.21C47.38 57.21 47.54 57.57 47.82 57.94L50.58 58.62Z" fill="black"/><path d="M50.58 58.6205C50.58 58.6205 49.61 56.5805 47.6 57.6305C47.6 57.6305 48.32 59.6005 50.58 58.6205Z" fill="white"/><path d="M48.38 57.98C48.38 58.38 48.71 58.71 49.11 58.71C49.51 58.71 49.84 58.38 49.84 57.98C49.84 57.58 49.51 57.25 49.11 57.25C48.71 57.25 48.38 57.58 48.38 57.98Z" fill="black"/><path d="M114.78 45.9102H68.46V47.6602H114.78V45.9102Z" fill="#232144"/><path d="M114.78 52.4805H68.46V54.2305H114.78V52.4805Z" fill="#232144"/><path d="M114.78 59.0596H68.46V60.8096H114.78V59.0596Z" fill="#232144"/><path d="M62.68 81.8799H41.62V83.6299H62.68V81.8799Z" fill="#232144"/><path d="M91.1 78.5495C93.5246 78.5495 95.49 76.5841 95.49 74.1595C95.49 71.735 93.5246 69.7695 91.1 69.7695C88.6755 69.7695 86.71 71.735 86.71 74.1595C86.71 76.5841 88.6755 78.5495 91.1 78.5495Z" fill="#FF6200"/><path d="M91.1 82.5198C86.49 82.5198 82.74 78.7698 82.74 74.1598C82.74 69.5498 86.49 65.7998 91.1 65.7998C95.71 65.7998 99.46 69.5498 99.46 74.1598C99.46 78.7698 95.71 82.5198 91.1 82.5198ZM91.1 67.3698C87.36 67.3698 84.32 70.4098 84.32 74.1498C84.32 77.8898 87.36 80.9298 91.1 80.9298C94.84 80.9298 97.88 77.8898 97.88 74.1498C97.88 70.4098 94.84 67.3698 91.1 67.3698Z" fill="#FF6200"/><path d="M91.1 86.7104C84.18 86.7104 78.55 81.0804 78.55 74.1604C78.55 67.2404 84.18 61.6104 91.1 61.6104C98.02 61.6104 103.65 67.2404 103.65 74.1604C103.65 81.0804 98.02 86.7104 91.1 86.7104ZM91.1 63.2004C85.05 63.2004 80.13 68.1203 80.13 74.1703C80.13 80.2203 85.05 85.1404 91.1 85.1404C97.15 85.1404 102.07 80.2203 102.07 74.1703C102.07 68.1203 97.15 63.2004 91.1 63.2004Z" fill="#FF6200"/><path d="M59.75 53.5704C59.65 53.4304 59.54 53.3104 59.42 53.2004V53.1404C59.42 50.1104 56.97 47.6504 53.94 47.6504H50.53C47.5 47.6504 45.04 50.1104 45.04 53.1404L45.15 55.8604C45.15 55.5804 45.19 55.3104 45.25 55.0504C45.4 55.8304 46.29 56.2904 47.02 55.8704C47.12 55.8104 47.21 55.7504 47.29 55.6704C48.35 54.6304 49.07 53.3504 49.36 51.9604C49.47 52.2704 49.61 52.5804 49.8 52.8704C50.8 54.3304 52.6 54.8404 53.82 54.0104C53.84 53.9904 53.86 53.9704 53.89 53.9504C53.95 54.0904 54.02 54.2204 54.1 54.3504C54.71 55.2404 55.8 55.5504 56.54 55.0404C56.63 54.9804 56.71 54.9104 56.78 54.8304C56.85 55.0304 56.94 55.2304 57.06 55.4204C57.54 56.1304 58.33 56.4604 59.01 56.3104C59.04 56.5204 59.06 56.7304 59.06 56.9404L59.12 56.2804C59.25 56.2404 59.38 56.1904 59.5 56.1104C60.24 55.6004 60.35 54.4704 59.74 53.5904L59.75 53.5704Z" fill="#222144"/><path fill-rule="evenodd" clip-rule="evenodd" d="M125.47 144V92.4903C125.47 88.5303 122.26 85.3203 118.3 85.3203H64.11C60.15 85.3203 56.94 88.5303 56.94 92.4903V144H125.48H125.47Z" fill="#232144"/><path d="M91.22 104.019C94.96 104.019 98 100.979 98 97.2394C98 95.8294 97.57 94.5295 96.83 93.4395H85.6C84.86 94.5195 84.43 95.8294 84.43 97.2394C84.43 100.979 87.47 104.019 91.21 104.019H91.22Z" fill="#E6E3DA"/><path d="M98.66 93.4395C99.25 94.5795 99.58 95.8694 99.58 97.2394C99.58 101.849 95.83 105.599 91.22 105.599C86.61 105.599 82.86 101.849 82.86 97.2394C82.86 95.8694 83.2 94.5795 83.78 93.4395H80.95C80.51 94.6295 80.26 95.8994 80.26 97.2394C80.26 103.279 85.18 108.199 91.23 108.199C97.28 108.199 102.2 103.279 102.2 97.2394C102.2 95.8994 101.95 94.6295 101.51 93.4395C101.51 93.4395 101.5 93.4395 101.49 93.4395H98.67H98.66Z" fill="#E6E3DA"/><path d="M100.01 88.2402H99.95C99.95 88.2402 99.99 88.2702 100.01 88.2902V88.2402Z" fill="#E6E3DA"/><path d="M82.39 88.2402V88.3402C82.39 88.3402 82.46 88.2802 82.49 88.2402H82.39Z" fill="#E6E3DA"/><path d="M91.22 105.59C95.83 105.59 99.58 101.84 99.58 97.2297C99.58 95.8597 99.24 94.5697 98.66 93.4297H96.84C97.58 94.5097 98.01 95.8197 98.01 97.2297C98.01 100.97 94.97 104.01 91.23 104.01C87.49 104.01 84.45 100.97 84.45 97.2297C84.45 95.8197 84.88 94.5197 85.62 93.4297H83.79C83.2 94.5697 82.87 95.8597 82.87 97.2297C82.87 101.84 86.62 105.59 91.23 105.59H91.22Z" fill="#FF6200"/><path d="M91.22 109.78C98.14 109.78 103.77 104.15 103.77 97.24C103.77 95.83 103.53 94.48 103.09 93.21C102.58 93.36 102.05 93.44 101.49 93.44C101.93 94.63 102.18 95.9 102.18 97.24C102.18 103.28 97.26 108.2 91.21 108.2C85.16 108.2 80.24 103.28 80.24 97.24C80.24 95.9 80.49 94.63 80.93 93.44H80.9C80.36 93.44 79.83 93.36 79.33 93.22C78.9 94.48 78.66 95.83 78.66 97.24C78.66 104.16 84.29 109.78 91.21 109.78H91.22Z" fill="#FF6200"/><path fill-rule="evenodd" clip-rule="evenodd" d="M91.22 101.62C93.64 101.62 95.61 99.6597 95.61 97.2297C95.61 95.5897 94.7 94.1797 93.38 93.4297H89.07C87.74 94.1797 86.84 95.5897 86.84 97.2297C86.84 99.6497 88.8 101.62 91.23 101.62H91.22Z" fill="#FF6200"/><path d="M123.1 144V92.6202C123.1 89.9302 120.92 87.7402 118.22 87.7402H107.34C107.26 90.3402 105.49 92.5202 103.09 93.2102C103.52 94.4802 103.77 95.8302 103.77 97.2402C103.77 104.16 98.14 109.78 91.22 109.78C84.3 109.78 78.67 104.15 78.67 97.2402C78.67 95.8302 78.91 94.4902 79.34 93.2202C76.92 92.5502 75.13 90.3602 75.05 87.7402H64.17C61.48 87.7402 59.29 89.9202 59.29 92.6202V144H123.1Z" fill="#E6E3DA"/><path d="M100.01 88.2402H82.39V89.9002H100.01V88.2402Z" fill="#E6E3DA"/></svg>