<?xml version="1.0" encoding="UTF-8"?><svg id="cv" xmlns="http://www.w3.org/2000/svg" viewBox="0 0 160 160"><defs><style>.cls-1{fill:#9b001b;}.cls-2{fill:#b76147;}.cls-3{fill:#e7e4d7;}.cls-4{fill:#ffb000;}.cls-5{fill:#241c4a;}.cls-6{fill:#dccbc3;}.cls-7{fill:#181111;}.cls-8{fill:#fff;}.cls-9{fill:#d06f52;}.cls-10{fill:#ff5200;}</style></defs><rect class="cls-6" x="37.6" y="19.94" width="90.65" height="124.06"/><rect class="cls-3" x="43.48" y="16.91" width="42.43" height="49.95"/><path class="cls-10" d="M77.91,16.91c1.28-.5,2.82.33,2.87,1.91.02.55,0,1.1,0,1.65,0,1.83.02,3.67,0,5.5-.01,1.34-1.17,2.44-2.54,2.13-1.2-.27-1.64-1.32-1.64-2.44v-2.99c0-.67-.07-1.39.01-2.06.13-1.15,1.79-1.39,2.18-.27.12.35.06.81.06,1.17v2.88c0,.55.85.55.85,0v-3.12c0-.51.02-1.01-.23-1.48-.41-.76-1.26-1.17-2.11-1.01s-1.5.87-1.6,1.72c-.04.32-.02.65-.02.97v3.76c0,1.21.1,2.35,1.15,3.17,1.39,1.07,3.49.65,4.35-.89.47-.84.38-1.81.38-2.74v-3.92c0-.97.16-2.16-.2-3.08-.79-2.05-3.48-2.47-4.95-.89-.01.01-.02.02-.03.04"/><path class="cls-4" d="M85.91,67l-2.98-15.39c-.29-2.92-2.63-5.3-5.66-5.53-.12,0-.24,0-.36,0h0s-.2,0-.2,0c-.03,0-.06,0-.09,0h-23.87s0,0,0,0h-.46,0c-.06.01-.11.01-.17.02-3.03.23-5.37,2.61-5.66,5.53l-2.98,15.39h42.43Z"/><rect class="cls-7" x="57.42" y="31.04" width="14.54" height="10.53" transform="translate(129.39 72.61) rotate(180)"/><polyline class="cls-5" points="51.52 67 51.52 46.08 78.35 46.08 78.35 67"/><path class="cls-2" d="M69.29,47.24v-5.31h-9.18v5.31c0,1.55,1.25,2.8,2.8,2.8h3.58c1.55,0,2.8-1.25,2.8-2.8Z"/><circle class="cls-9" cx="58.11" cy="36.03" r="1.94"/><circle class="cls-9" cx="71.28" cy="36.02" r="1.94"/><rect class="cls-9" x="58.34" y="24.86" width="12.71" height="19.2" rx="5.12" ry="5.12"/><path d="M64.64,38.34c.07,0,.15,0,.23-.02.22-.04.43-.16.62-.34.1-.09.2-.14.31-.13.21.02.38.23.38.23l.2-.15s-.23-.31-.56-.33c-.18-.02-.35.05-.51.19-.16.15-.33.24-.5.27-.18.04-.33.02-.47-.05-.06-.03-.11-.07-.17-.13-.07-.07-.26-.25-.53-.26-.22,0-.44.09-.65.29l.17.19c.16-.15.32-.22.46-.22.18,0,.3.13.35.18.07.08.15.14.24.18.12.06.26.1.41.1Z"/><path class="cls-7" d="M61.13,31.81l-.07.02c-.77.26-1.37.89-1.62,1.69h0l4.01-1.35h0c-.69-.49-1.54-.63-2.31-.37h0Z"/><path class="cls-7" d="M67.96,32.65h.08c.81-.04,1.6.33,2.12,1h0l-4.22.18h0c.46-.71,1.21-1.14,2.03-1.18h0Z"/><path class="cls-7" d="M63.81,27.26c-2.8,0-5.39,3.05-5.39,5.88v1.78s-.99,0-.99,0v-5.5c0-2.78,2.25-5.03,5.03-5.03h4.48c2.78,0,5.03,2.25,5.03,5.03v5.5s-.99,0-.99,0v-1.78c0-2.83-2.27-5.9-5.06-5.9l-2.1.02Z"/><polygon class="cls-4" points="69.29 46.08 64.65 50.04 68.27 52.19 71.23 46.08 69.29 46.08"/><polygon class="cls-4" points="60.11 46.08 64.75 50.04 61.13 52.19 58.17 46.08 60.11 46.08"/><path class="cls-8" d="M63.09,35.67s-.47-.98-1.35-1.28c-.89-.3-1.85.2-1.85.2,0,0,.76.84,1.38,1.04.63.21,1.83.05,1.83.05Z"/><path d="M63.09,35.67s-.72-2.23-4.03-1.38l.88.41c.69-.13,1.97-.21,3.14.97Z"/><path d="M60.85,35.24c-.12-.34.06-.72.4-.84.34-.12.72.06.84.4.12.34-.06.72-.4.84-.34.12-.72-.06-.84-.41Z"/><circle class="cls-4" cx="57.42" cy="37.6" r=".61"/><circle class="cls-4" cx="71.91" cy="37.6" r=".61"/><path class="cls-9" d="M71.94,52.07c.02-.55-.42-1.02-.97-1.04-.55-.02-1.02.42-1.04.97l-.11,2.89-2.91-2.23c-.41-.34-1.01-.28-1.35.12h0c-.34.4-.29,1.01.11,1.35l.04.03-.46-.39c-.41-.34-1.02-.28-1.35.13h0c-.33.4-.27.99.12,1.33-.39-.2-.89-.11-1.18.25-.33.4-.27,1,.13,1.33l.7.59c-.4-.26-.95-.19-1.26.19-.33.4-.27,1,.13,1.33l3.25,2.59,1.96,1,3.9,4.34,4.14-3.83-3.55-3.88-.31-7.09Z"/><path class="cls-4" d="M75.54,67l2.41-2.68c1.23-1.37.96-3.51-.58-4.53l-.33-.22c-1.33-.88-3.13-.57-4.08.72l-2.46,3.32c-.76,1.02-.77,2.36-.14,3.38h5.18Z"/><polygon class="cls-4" points="75.54 67 79.97 67 78.2 62.52 75.54 67"/><path class="cls-1" d="M66.59,39.98c-.18-.48-.86-.14-.86-.14l-1.58.61c-.02-.1,3.6,2.68,4.56-1.76l-1.58.61s-.72.21-.54.68"/><path class="cls-7" d="M58.13,32.94h0c0-3.43,2.78-6.21,6.21-6.21,0,3.43-2.78,6.21-6.21,6.21"/><path class="cls-7" d="M71.25,33.24h0c0-3.43-2.78-6.51-6.21-6.51,0,3.43,2.78,6.51,6.21,6.51"/><path class="cls-8" d="M66.03,35.67s.47-.98,1.35-1.28c.89-.3,1.85.2,1.85.2,0,0-.76.84-1.38,1.04-.63.21-1.83.05-1.83.05Z"/><path d="M66.03,35.67s.72-2.23,4.03-1.38l-.88.41c-.69-.13-1.97-.21-3.14.97Z"/><path d="M68.28,35.24c.12-.34-.06-.72-.4-.84-.34-.12-.72.06-.84.4-.12.34.06.72.4.84.34.12.72-.06.84-.41Z"/><rect class="cls-9" x="59.58" y="35.54" width="10.14" height="1.43" transform="translate(129.29 72.52) rotate(180)"/><rect class="cls-3" x="91.07" y="30.23" width="30.68" height="4.83" rx="2.41" ry="2.41"/><rect class="cls-3" x="91.07" y="38.39" width="23.95" height="4.83" rx="2.41" ry="2.41"/><rect class="cls-3" x="91.07" y="50.65" width="31.26" height="2.15" rx="1.08" ry="1.08"/><rect class="cls-3" x="43.48" y="110.31" width="53.95" height="3.44" rx="1.72" ry="1.72"/><rect class="cls-3" x="43.48" y="120.01" width="28.82" height="2.15" rx="1.08" ry="1.08"/><rect class="cls-3" x="43.48" y="125.63" width="28.82" height="2.15" rx="1.08" ry="1.08"/><rect class="cls-3" x="43.48" y="131.26" width="28.82" height="2.15" rx="1.08" ry="1.08"/><rect class="cls-3" x="82.12" y="120.01" width="28.82" height="2.15" rx="1.08" ry="1.08"/><rect class="cls-3" x="82.12" y="125.63" width="28.82" height="2.15" rx="1.08" ry="1.08"/><rect class="cls-3" x="82.12" y="131.26" width="28.82" height="2.15" rx="1.08" ry="1.08"/><rect class="cls-3" x="43.48" y="75.68" width="67.48" height="3.44" rx="1.72" ry="1.72"/><rect class="cls-3" x="50.04" y="84.86" width="35.65" height="2.15" rx="1.08" ry="1.08"/><circle class="cls-3" cx="45.97" cy="85.94" r="1.07"/><rect class="cls-3" x="50.04" y="90.48" width="35.65" height="2.15" rx="1.08" ry="1.08"/><circle class="cls-3" cx="45.97" cy="91.57" r="1.07"/><rect class="cls-3" x="50.04" y="96.1" width="35.65" height="2.15" rx="1.08" ry="1.08"/><circle class="cls-3" cx="45.97" cy="97.19" r="1.07"/></svg>