<svg viewBox="0 0 160 160" fill="none" xmlns="http://www.w3.org/2000/svg"><path fill-rule="evenodd" clip-rule="evenodd" d="M79.9909 131.276C78.3765 131.276 77.0678 129.966 77.0678 128.35V57.1291C77.0678 55.5131 78.3765 54.2031 79.9909 54.2031C81.6052 54.2031 82.9139 55.5131 82.9139 57.1291V128.35C82.9139 129.966 81.6052 131.276 79.9909 131.276Z" fill="#232144"/><path fill-rule="evenodd" clip-rule="evenodd" d="M59.2165 37.973C65.8948 20.648 79.5001 16 79.5001 16C47.1916 16 21 42.287 21 74.714C21 74.714 27.6343 68.815 38.5323 68.815C49.1207 68.815 56.2445 74.714 56.2445 74.714C56.2445 74.714 52.3804 55.708 59.2165 37.973Z" fill="#3EA464"/><path fill-rule="evenodd" clip-rule="evenodd" d="M99.7835 37.973C93.1052 20.648 79.4999 16 79.4999 16C79.4999 16 65.8946 20.648 59.2163 37.973C52.3802 55.708 56.2443 74.714 56.2443 74.714C56.2443 74.714 64.4251 68.815 79.4999 68.815C92.7476 68.815 102.756 74.714 102.756 74.714C102.756 74.714 106.62 55.708 99.7835 37.973Z" fill="#D8DD4C"/><path fill-rule="evenodd" clip-rule="evenodd" d="M79.4999 16C79.4999 16 93.1052 20.648 99.7835 37.973C106.62 55.708 102.755 74.714 102.755 74.714C102.755 74.714 109.806 68.815 120.431 68.815C130.803 68.815 138 74.714 138 74.714C138 42.287 111.808 16 79.4999 16Z" fill="#3EA464"/><path fill-rule="evenodd" clip-rule="evenodd" d="M82.9139 113.569V127.108C82.9139 132.909 87.5992 137.611 93.3784 137.611C99.1586 137.611 103.844 132.909 103.844 127.108V116.53C103.844 114.895 105.165 113.569 106.794 113.569C108.423 113.569 109.744 114.895 109.744 116.53V127.602C109.744 136.658 102.429 144 93.4054 144C84.3825 144 77.0678 136.658 77.0678 127.602V111.205" fill="#232144"/></svg>