<?xml version="1.0" encoding="utf-8"?><!--Generator: Adobe Illustrator 28.0.0, SVG Export Plug-In . SVG Version: 6.00 Build 0)--><svg version="1.1" xmlns="http://www.w3.org/2000/svg" xmlns:xlink="http://www.w3.org/1999/xlink" x="0px" y="0px" viewBox="0 0 160 160" style="enable-background:new 0 0 160 160;" xml:space="preserve"><style type="text/css">.st0{fill:#232144;}
	.st1{fill:#E6E3DA;}
	.st2{fill:#7070FF;}
	.st3{fill:#006931;}
	.st4{fill:#F7931E;}
	.st5{fill:#FBB03B;}
	.st6{fill:#5D2B1A;}
	.st7{fill:#171111;}
	.st8{fill:#693725;}
	.st9{fill:#FFFFFF;}
	.st10{fill:#1D1D1B;}
	.st11{fill:none;}
	.st12{fill:#E73245;}</style><g id="Design"><g><g><polygon class="st0" points="118.7,59.1 131.1,46.1 143.4,59.1 			"/><polygon class="st1" points="121,71.7 121,59.1 131.1,48.3 141.2,59.1 141.2,71.7 			"/><rect x="133.7" y="61.1" class="st0" width="5.5" height="10.6"/><rect x="123" y="61.1" class="st2" width="8.4" height="7.6"/><path class="st3" d="M143.5,69.9C143.5,69.9,143.5,69.9,143.5,69.9"/></g><path class="st4" d="M19.8,68.8v2.6c0,0.7,3,1.2,6.8,1.2c3.8,0,6.8-0.5,6.8-1.2v-2.6H19.8z"/><path class="st5" d="M33.4,68.8c0,0.7-3,1.2-6.8,1.2c-3.8,0-6.8-0.5-6.8-1.2c0-0.7,3-1.2,6.8-1.2C30.3,67.6,33.4,68.1,33.4,68.8"/><path class="st4" d="M26.6,69.7c-2.3,0-5.8-0.3-5.8-0.9c0-0.7,3.5-0.9,5.8-0.9c2.3,0,5.8,0.3,5.8,0.9
			C32.4,69.5,28.9,69.7,26.6,69.7 M26.6,68c-1.5,0-3,0.1-4,0.2C21,68.5,21,68.8,21,68.8c0,0,0,0.3,1.6,0.5c1.1,0.2,2.5,0.2,4,0.2
			c1.5,0,3-0.1,4-0.2c1.6-0.2,1.6-0.5,1.6-0.5c0,0,0-0.3-1.6-0.5C29.6,68.1,28.1,68,26.6,68"/><g><path class="st4" d="M18.9,65.2v2.6c0,0.7,3,1.2,6.8,1.2c3.8,0,6.8-0.5,6.8-1.2v-2.6H18.9z"/><path class="st5" d="M32.5,65.2c0,0.7-3,1.2-6.8,1.2c-3.8,0-6.8-0.5-6.8-1.2c0-0.7,3-1.2,6.8-1.2C29.4,64,32.5,64.5,32.5,65.2"/><path class="st4" d="M25.7,66.1c-2.3,0-5.8-0.3-5.8-0.9c0-0.7,3.5-0.9,5.8-0.9c2.3,0,5.8,0.3,5.8,0.9
				C31.5,65.9,28.1,66.1,25.7,66.1 M25.7,64.4c-1.5,0-3,0.1-4,0.2c-1.6,0.2-1.6,0.5-1.6,0.5s0,0.3,1.6,0.5c1.1,0.2,2.5,0.2,4,0.2
				c1.5,0,3-0.1,4-0.2c1.6-0.2,1.6-0.5,1.6-0.5s0-0.3-1.6-0.5C28.7,64.5,27.3,64.4,25.7,64.4"/></g><g><path class="st4" d="M21.1,61.6v2.6c0,0.7,3,1.2,6.8,1.2c3.8,0,6.8-0.5,6.8-1.2v-2.6H21.1z"/><path class="st5" d="M34.7,61.6c0,0.7-3,1.2-6.8,1.2c-3.8,0-6.8-0.5-6.8-1.2c0-0.7,3-1.2,6.8-1.2C31.7,60.4,34.7,60.9,34.7,61.6"/><path class="st4" d="M28,62.5c-2.3,0-5.8-0.3-5.8-0.9c0-0.7,3.5-0.9,5.8-0.9c2.3,0,5.8,0.3,5.8,0.9C33.8,62.3,30.3,62.5,28,62.5
				 M28,60.8c-1.5,0-3,0.1-4,0.2c-1.6,0.2-1.6,0.5-1.6,0.5s0,0.3,1.6,0.5c1.1,0.2,2.5,0.2,4,0.2c1.5,0,3-0.1,4-0.2
				c1.6-0.2,1.6-0.5,1.6-0.5s0-0.3-1.6-0.5C30.9,60.9,29.5,60.8,28,60.8"/></g><path class="st6" d="M98.2,91.4l10.9,19.4c1.6,2.9,5.2,4.1,8.3,2.7l0,0c3.2-1.5,4.6-5.2,3.1-8.4l-11.2-24.9L98.2,91.4z"/><path class="st7" d="M83.5,66c0.3-5.2,7.9-9.1,7.9-9.1s7.1,4.7,6.8,9.9s-7.9,9.1-7.9,9.1S83.2,71.2,83.5,66z"/><path class="st8" d="M124.1,69.7l0.3-1.5c0.2-0.9-0.4-1.7-1.3-1.9h0c-0.9-0.2-1.7,0.4-1.9,1.3l-1.4,7l-0.9,2.3l0,0l-3.2,8.6l0,0
			l0,0l-7.1,19.2c-1.5,3.7,0.5,7.9,4.3,9.2c4,1.3,8.3-1.1,9.1-5.3l6-32.7c0,0,0-0.1,0-0.1c0,0,0,0,0,0l7.6-1.5l6.6,0
			c0.7,0,1.4-0.5,1.6-1.2c0.3-1.1-0.5-2-1.6-2h-12.9L124.1,69.7z"/><path class="st7" d="M62.1,66c0.3-5.2,7.9-9.1,7.9-9.1s7.1,4.7,6.8,9.9s-7.9,9.1-7.9,9.1S61.8,71.2,62.1,66z"/><path class="st6" d="M61.8,91.4l-10.9,19.4c-1.6,2.9-5.2,4.1-8.3,2.7l0,0c-3.2-1.5-4.6-5.2-3.1-8.4l11.2-24.9L61.8,91.4z"/><path class="st8" d="M30.6,71H17.6c-0.9,0-1.6,0.7-1.6,1.6v0c0,0.9,0.7,1.6,1.6,1.6h6.6l7.6,1.5c0,0,0,0,0,0c0,0,0,0.1,0,0.1
			l6,32.7c0.8,4.1,5.1,6.6,9.1,5.3h0c3.8-1.3,5.8-5.5,4.3-9.2L41.1,76.9l0,0l-0.9-2.3l-1.4-7c-0.2-0.9-1-1.4-1.9-1.3h0
			c-0.9,0.2-1.4,1-1.3,1.9l0.4,2.1L30.6,71z"/><path class="st1" d="M103.2,75.5c-0.2,0-0.3,0-0.5,0l0,0H57.2l0,0c-0.1,0-0.3,0-0.4,0c-6.1,0.5-10.6,5.7-10.1,11.8
			c0.3,4,6.7,8.7,11,11.4l0.5,22.9h43.9l0.3-23c4.3-2.8,10.6-7.4,10.9-11.3C113.8,81.2,109.3,75.9,103.2,75.5z"/><path class="st6" d="M87.4,75.1l0-10.6l-16.3-0.1l0,10.8c0,4.5,3.7,8.1,8.2,8.1h0C83.8,83.3,87.5,79.6,87.4,75.1z"/><path class="st7" d="M83.5,79.5c0-5.2,7.3-9.5,7.3-9.5s7.3,4.2,7.4,9.5c0,5.2-7.3,9.5-7.3,9.5S83.5,84.7,83.5,79.5z"/><path class="st7" d="M62.1,79.5c0-5.2,7.3-9.5,7.3-9.5s7.3,4.2,7.4,9.5c0,5.2-7.3,9.5-7.3,9.5S62.1,84.7,62.1,79.5z"/><circle class="st8" cx="89.8" cy="58.4" r="3.3"/><circle class="st8" cx="68.7" cy="58.4" r="3.3"/><path class="st8" d="M90.2,62.9l-0.1-15c0-4.9-4-8.8-8.9-8.8l-4.2,0c-4.9,0-8.8,4-8.8,8.9l0.1,15c0,4.9,4,8.8,8.9,8.8l4.2,0
			C86.3,71.7,90.2,67.8,90.2,62.9z"/><path class="st7" d="M79.1,62.6c-0.1,0-0.3,0-0.4,0c-0.4-0.1-0.7-0.3-1.1-0.6c-0.2-0.2-0.4-0.2-0.5-0.2c-0.4,0-0.6,0.4-0.6,0.4
			l-0.3-0.3c0,0,0.4-0.5,0.9-0.6c0.3,0,0.6,0.1,0.9,0.3c0.3,0.2,0.6,0.4,0.8,0.5c0.3,0.1,0.6,0,0.8-0.1c0.1,0,0.2-0.1,0.3-0.2
			c0.1-0.1,0.4-0.4,0.9-0.4c0.4,0,0.7,0.2,1.1,0.5l-0.3,0.3c-0.3-0.3-0.5-0.4-0.8-0.4c-0.3,0-0.5,0.2-0.6,0.3
			c-0.1,0.1-0.3,0.2-0.4,0.3C79.6,62.6,79.4,62.6,79.1,62.6z"/><path class="st9" d="M76.5,58c0,0-0.8-1.7-2.3-2.2c-1.5-0.5-3.2,0.3-3.2,0.3s0.6,1.4,2.1,1.9C74.7,58.5,76.5,58,76.5,58"/><path class="st10" d="M76.5,58c-0.4-2.7-3.8-3.8-5.9-2.6c0.1,0.2,0.4,0.6,0.5,0.8c0.5-0.3,2.9-1.2,5,1.4
			C76.3,57.8,76.3,57.9,76.5,58"/><path class="st9" d="M81.8,58c0,0,0.8-1.7,2.3-2.2c1.5-0.5,3.2,0.3,3.2,0.3s-0.6,1.4-2.1,1.9C83.7,58.5,81.8,58,81.8,58"/><path class="st10" d="M81.8,58c0.4-2.7,3.8-3.8,5.9-2.6c-0.1,0.2-0.4,0.6-0.5,0.8c-0.5-0.3-2.9-1.2-5,1.4C82,57.8,82,57.9,81.8,58
			"/><path class="st10" d="M74.3,56.4c0,0.7-0.6,1.3-1.3,1.3c-0.7,0-1.3-0.6-1.3-1.3s0.6-1.3,1.3-1.3C73.7,55.1,74.3,55.7,74.3,56.4"/><path class="st11" d="M76.5,58c0,0-0.8-1.7-2.3-2.2c-1.5-0.5-3.2,0.3-3.2,0.3s0.6,1.4,2.1,1.9C74.7,58.5,76.5,58,76.5,58"/><path class="st10" d="M84.4,55.3c0.4,0.2,0.6,0.6,0.6,1.1c0,0.7-0.6,1.3-1.3,1.3c-0.6,0-1.2-0.4-1.3-1L84.4,55.3z"/><path class="st11" d="M81.8,58c0,0,0.8-1.7,2.3-2.2c1.5-0.5,3.2,0.3,3.2,0.3s-0.6,1.4-2.1,1.9C83.7,58.5,81.8,58,81.8,58"/><path class="st12" d="M78,65.7c0,0,3.1,5.1,6.4-0.5c0,0-1.8-2.8-3.6-0.3C80.7,64.9,79.4,64,78,65.7"/><path class="st7" d="M82.2,38.4h-5.8c-5.2,0-9.4,4.2-9.4,9.4v11.7h1.7v-6.3c0-4.2,2.9-7.6,6.8-8.5c1,7.2,7.1,12.7,14.6,12.7v2.1
			h1.7V47.8C91.6,42.6,87.4,38.4,82.2,38.4z"/><rect x="70.3" y="50.8" class="st7" width="6.8" height="1.6"/></g></g><g id="stramien"/></svg>