<svg viewBox="0 0 160 160" fill="none" xmlns="http://www.w3.org/2000/svg"><path fill-rule="evenodd" clip-rule="evenodd" d="M23.2332 139.952V20.0482C23.2332 17.8122 25.0452 16.0002 27.2812 16.0002H132.268C134.503 16.0002 136.316 17.8122 136.316 20.0482V139.952C136.316 142.188 134.503 144 132.268 144H27.2812C25.0452 144 23.2332 142.188 23.2332 139.952Z" fill="#BAC09A"/><path fill-rule="evenodd" clip-rule="evenodd" d="M32.0548 59.0204V32.4934C32.0548 31.0484 33.2258 29.8774 34.6708 29.8774H124.878C126.323 29.8774 127.495 31.0484 127.495 32.4934V59.0204C127.495 60.4654 126.323 61.6364 124.878 61.6364H34.6708C33.2258 61.6364 32.0548 60.4654 32.0548 59.0204Z" fill="#232144"/><path fill-rule="evenodd" clip-rule="evenodd" d="M101.983 24.3433C101.983 23.1473 102.952 22.1783 104.148 22.1783H124.84C126.036 22.1783 127.006 23.1473 127.006 24.3433C127.006 25.5393 126.036 26.5083 124.84 26.5083H104.148C102.952 26.5083 101.983 25.5393 101.983 24.3433Z" fill="#232144"/><path fill-rule="evenodd" clip-rule="evenodd" d="M32.0551 86.1309H50.5591V69.2839H32.0551V86.1309Z" fill="#E6E3DA"/><path fill-rule="evenodd" clip-rule="evenodd" d="M57.7 86.1309H76.204V69.2839H57.7V86.1309Z" fill="#E6E3DA"/><path fill-rule="evenodd" clip-rule="evenodd" d="M83.345 86.1309H101.849V69.2839H83.345V86.1309Z" fill="#E6E3DA"/><path fill-rule="evenodd" clip-rule="evenodd" d="M108.99 86.1309H127.494V69.2839H108.99V86.1309Z" fill="#E6E3DA"/><path fill-rule="evenodd" clip-rule="evenodd" d="M32.0551 109.899H50.5591V93.052H32.0551V109.899Z" fill="#E6E3DA"/><path fill-rule="evenodd" clip-rule="evenodd" d="M57.7 109.899H76.204V93.052H57.7V109.899Z" fill="#E6E3DA"/><path fill-rule="evenodd" clip-rule="evenodd" d="M83.345 109.899H101.849V93.052H83.345V109.899Z" fill="#E6E3DA"/><path fill-rule="evenodd" clip-rule="evenodd" d="M108.99 109.899H127.494V93.052H108.99V109.899Z" fill="#E6E3DA"/><path fill-rule="evenodd" clip-rule="evenodd" d="M32.0551 133.667H50.5591V116.82H32.0551V133.667Z" fill="#E6E3DA"/><path fill-rule="evenodd" clip-rule="evenodd" d="M57.7 133.667H76.204V116.82H57.7V133.667Z" fill="#E6E3DA"/><path fill-rule="evenodd" clip-rule="evenodd" d="M83.345 133.667H127.494V116.82H83.345V133.667Z" fill="#232144"/><path fill-rule="evenodd" clip-rule="evenodd" d="M74.6921 45.3941C74.6921 45.1621 74.7411 45.0461 74.9901 44.7151L77.9051 40.8731H73.0851C72.9031 40.8731 72.8701 40.7731 72.8701 40.6081V40.0941C72.8701 39.9291 72.9031 39.8301 73.0851 39.8301H78.9981C79.2301 39.8301 79.3131 39.8631 79.3131 40.0781V40.3261C79.3131 40.8401 79.1971 41.0051 78.5671 41.8331L76.2321 44.9301C78.4511 45.0791 79.7101 46.4041 79.7101 48.2761C79.7101 50.3621 78.2031 51.9191 75.7851 51.9191C74.7251 51.9191 73.5991 51.6041 72.8041 51.1571C72.6051 51.0411 72.5721 50.9251 72.6711 50.7101L72.8541 50.3131C72.9531 50.1141 73.0521 50.0641 73.2181 50.1471C74.0291 50.5281 74.8241 50.8101 75.8011 50.8101C77.2261 50.8101 78.4351 49.9481 78.4351 48.3581C78.4351 46.7021 77.2921 45.8911 75.5861 45.8911H74.9071C74.7251 45.8911 74.6921 45.8081 74.6921 45.6421V45.3941Z" fill="white"/><path fill-rule="evenodd" clip-rule="evenodd" d="M88.9025 39.8296C89.0845 39.8296 89.1176 39.9286 89.1176 40.0946V40.3096C89.1176 40.7076 89.0346 41.0056 88.8366 41.5026L84.8776 51.5216C84.7956 51.7206 84.7125 51.7536 84.5135 51.7536H83.7516C83.5696 51.7536 83.5366 51.6376 83.6026 51.4716L87.8426 40.9056H82.5096C82.3276 40.9056 82.2946 40.8066 82.2946 40.6406V40.0946C82.2946 39.9286 82.3276 39.8296 82.5096 39.8296H88.9025Z" fill="white"/><path fill-rule="evenodd" clip-rule="evenodd" d="M91.7188 54.188C91.5368 54.188 91.4868 54.122 91.5198 53.956L91.9998 51.803L91.7188 51.687C91.4868 51.588 91.4368 51.505 91.4368 51.273V50.23C91.4368 50.081 91.5198 49.998 91.6858 49.998H92.9438C93.1268 49.998 93.2088 50.081 93.2088 50.23V50.925C93.2088 51.489 93.1098 51.787 92.8278 52.681L92.4148 53.989C92.3648 54.138 92.2818 54.188 92.1328 54.188H91.7188Z" fill="white"/><path fill-rule="evenodd" clip-rule="evenodd" d="M101.325 44.6986V44.4666C101.325 42.0156 100.464 40.7566 98.8236 40.7566C97.4656 40.7566 96.4226 41.5516 96.4226 43.2576C96.4226 44.6986 97.0356 45.5926 98.5756 45.5926C99.4366 45.5926 100.613 45.1956 101.325 44.6986ZM95.6606 51.4886C95.4786 51.4056 95.4616 51.3396 95.5286 51.1246L95.6936 50.6276C95.7436 50.4786 95.8096 50.4126 96.0246 50.4786C96.5386 50.6606 97.1176 50.8096 97.7636 50.8096C100.48 50.8096 101.126 47.9276 101.242 45.7586C100.563 46.2886 99.4536 46.7186 98.5086 46.7186C96.0746 46.7186 95.1476 45.2946 95.1476 43.2746C95.1476 40.9886 96.6876 39.6636 98.8736 39.6636C101.474 39.6636 102.584 41.4026 102.584 44.7816C102.584 48.1926 101.673 51.9196 97.7146 51.9196C97.0516 51.9196 96.2566 51.7706 95.6606 51.4886Z" fill="white"/><path fill-rule="evenodd" clip-rule="evenodd" d="M104.82 50.8262C104.82 46.9672 110.037 45.4442 110.037 42.8602C110.037 41.4032 109.06 40.8072 107.901 40.8072C107.039 40.8072 106.195 41.0552 105.433 41.5022C105.251 41.6012 105.168 41.5682 105.102 41.4522L104.836 41.0052C104.77 40.8892 104.737 40.7402 104.936 40.6082C105.747 40.0612 106.841 39.6642 108.033 39.6642C109.722 39.6642 111.295 40.6742 111.295 42.7282C111.295 46.1892 106.228 47.3152 106.079 50.7102H111.411C111.594 50.7102 111.627 50.8102 111.627 50.9752V51.4892C111.627 51.6542 111.594 51.7532 111.411 51.7532H105.035C104.853 51.7532 104.82 51.6542 104.82 51.4892V50.8262Z" fill="white"/><path fill-rule="evenodd" clip-rule="evenodd" d="M120.272 45.5763C120.272 42.4463 119.361 40.7573 117.705 40.7573C116.049 40.7573 115.006 42.5123 115.006 45.9403C115.006 49.0703 115.867 50.8263 117.556 50.8263C119.262 50.8263 120.272 48.9713 120.272 45.5763ZM113.697 46.0563C113.697 41.8993 115.221 39.6643 117.771 39.6643C120.09 39.6643 121.564 41.4523 121.564 45.5103C121.564 49.6003 120.09 51.9193 117.49 51.9193C115.155 51.9193 113.697 50.0313 113.697 46.0563Z" fill="white"/></svg>