<svg viewBox="0 0 160 160" fill="none" xmlns="http://www.w3.org/2000/svg"><path d="M124.27 54.6101H35.08V144H124.27V54.6101Z" fill="#F7931E"/><path d="M126.56 53.1299H32.8V73.8299H126.56V53.1299Z" fill="#FAA332"/><path d="M88.37 38.5901H70.98V144H88.37V38.5901Z" fill="#7070FF"/><path d="M101.06 53.09C112.39 53.09 122.04 52.0299 125.83 42.1199C129.63 32.2099 124.69 21.09 114.8 17.29C108.96 15.04 102.26 15.83 97.1 19.37C90.39 23.96 87.57 32.33 83.3 38.9C81.3 41.97 79.36 45.0799 77.39 48.1699C77.08 48.66 74.82 53.0999 74.25 53.0999H101.05L101.06 53.09ZM82.11 49.0299C86.84 42.3399 91.46 35.58 96.03 28.78C99.81 23.16 106.05 19.97 112.78 22.56C119.76 25.25 123.25 33.09 120.57 40.09C117.89 47.09 111.54 48.52 103.08 48.52L82.11 49.0299Z" fill="#7070FF"/><path d="M85.05 53.09L73.21 34.5C71.4 31.66 69.74 28.74 68.1 25.8C63.52 17.61 53.52 13.81 44.51 17.28C34.62 21.08 29.69 32.2 33.48 42.11C37.28 52.02 46.92 53.08 58.25 53.08H85.05V53.09ZM56.23 48.52C47.77 48.52 41.42 47.09 38.74 40.09C36.06 33.09 39.55 25.25 46.53 22.56C52.64 20.21 59.4 22.59 62.78 27.91C65.05 31.47 67.31 35.03 69.75 38.48L77.2 49.03L56.23 48.52Z" fill="#7070FF"/></svg>