<svg viewBox="0 0 160 160" fill="none" xmlns="http://www.w3.org/2000/svg"><path fill-rule="evenodd" clip-rule="evenodd" d="M64.3178 128.323C64.3178 119.665 71.3393 112.647 79.9994 112.647C88.6605 112.647 95.682 119.665 95.682 128.323C95.682 136.981 88.6605 143.999 79.9994 143.999C71.3393 143.999 64.3178 136.981 64.3178 128.323Z" fill="#232144"/><path fill-rule="evenodd" clip-rule="evenodd" d="M95.6816 16C95.6816 24.658 88.6601 31.676 80 31.676C71.3389 31.676 64.3174 24.658 64.3174 16" fill="#232144"/><path fill-rule="evenodd" clip-rule="evenodd" d="M141.32 106.819C131.216 106.819 123.024 98.6305 123.024 88.5295V71.7385C123.024 47.9855 103.76 28.7295 79.9995 28.7295C56.24 28.7295 36.9751 47.9855 36.9751 71.7385V88.5295C36.9751 98.6305 28.7842 106.819 18.6786 106.819H17V128.323H79.9995H143V106.819H141.32Z" fill="#FF6200"/></svg>