<?xml version="1.0" encoding="UTF-8"?><svg id="character" xmlns="http://www.w3.org/2000/svg" viewBox="0 0 160 160"><defs><style>.cls-1{fill:none;stroke:#cadbf1;stroke-miterlimit:10;stroke-width:.24px;}.cls-2{fill:#db6601;}.cls-3{fill:#010101;}.cls-4{fill:#ffc4a1;}.cls-5{fill:#e0edfd;}.cls-6{fill:#c4570d;}.cls-7{fill:#020202;}.cls-8{fill:#cadbf1;}.cls-9{fill:#fff;}.cls-10{fill:#ffae80;}.cls-11{fill:#661404;}.cls-12{fill:#a9bfe4;}.cls-13{fill:#ff9000;}</style></defs><polygon class="cls-4" points="134.51 117.24 139.16 132.66 116.92 132.66 121.13 116.72 134.51 117.24"/><polygon class="cls-4" points="68.41 116.63 63.77 132.05 86 132.05 81.79 116.11 68.41 116.63"/><path class="cls-4" d="M96.77,136.69l-.86-10.09h-26.08c-3.35,0-6.06,2.71-6.06,6.06s2.71,6.06,6.06,6.06c.31,0,.62-.02.91-.07l26.03-1.96Z"/><path class="cls-4" d="M106.16,137.31l.86-10.09h26.08c3.35,0,6.06,2.71,6.06,6.06s-2.71,6.06-6.06,6.06c-.31,0-.62-.02-.91-.07l-26.03-1.96Z"/><path class="cls-13" d="M79.2,141.97l-.71-37.37s17.91-4.76,22.5-5.02h1.06c4.59.26,22.5,5.02,22.5,5.02l-.72,37.63"/><path class="cls-13" d="M85.7,106.41c-3.49-2.97-8.73-2.54-11.69.95,0,0-2.88,2.71-6.2,9.28l11.88,9.23c5.52-4.88,7.41-8.35,7.41-8.35h0c2.46-3.47,1.91-8.31-1.39-11.12Z"/><path class="cls-13" d="M117.4,106.41c3.49-2.97,8.73-2.54,11.69.95,0,0,2.88,2.71,6.2,9.28l-11.88,9.23c-5.52-4.88-7.41-8.35-7.41-8.35h0c-2.46-3.47-1.91-8.31,1.39-11.12Z"/><path class="cls-8" d="M72.59,41.48h-.01l-6.9-25.42h-1.44l6.9,25.42h-23.57l6.9-25.42h-1.44l-6.9,25.42h0s0,.04,0,.04h0v4.79c0,7.31,5.92,13.23,13.23,13.23s13.23-5.92,13.23-13.23v-4.79h0s0,0,0,0v-.04Z"/><polygon class="cls-2" points="67.43 41.48 67.43 41.48 67.43 69.5 68.54 69.5 68.54 41.48 68.54 41.48 67.43 41.48"/><path class="cls-2" d="M67.61,75.18l-1.59-2.98c-.74-1.39,0-3.24,1.56-3.49.13-.02.27-.03.41-.03s.27.01.41.03c1.56.25,2.3,2.1,1.56,3.49l-1.59,2.98c-.16.3-.6.3-.76,0Z"/><path class="cls-2" d="M71.16,64.48l-3.09-1.35c-1.45-.63-2.01-2.54-.94-3.7.09-.1.19-.19.3-.28s.22-.16.34-.23c1.38-.77,3.1.22,3.39,1.77l.6,3.32c.06.34-.28.61-.6.47Z"/><path class="cls-2" d="M64.97,54.45l3.09-1.35c1.45-.63,2.01-2.54.94-3.7-.09-.1-.19-.19-.3-.28s-.22-.16-.34-.23c-1.38-.77-3.1.22-3.39,1.77l-.6,3.32c-.06.34.28.61.6.47Z"/><path class="cls-2" d="M59.98,63.19l1.59-2.98c.74-1.39,0-3.24-1.56-3.49-.13-.02-.27-.03-.41-.03s-.27.01-.41.03c-1.56.25-2.3,2.1-1.56,3.49l1.59,2.98c.16.3.6.3.76,0Z"/><path class="cls-2" d="M56.24,52.49l3.09-1.35c1.45-.63,2.01-2.54.94-3.7-.09-.1-.19-.19-.3-.28s-.22-.16-.34-.23c-1.38-.77-3.1.22-3.39,1.77l-.6,3.32c-.06.34.28.61.6.47Z"/><rect class="cls-2" x="59.04" y="41.48" width="1.11" height="16.17"/><path class="cls-2" d="M51.12,81.3l1.59-2.98c.74-1.39,0-3.24-1.56-3.49-.13-.02-.27-.03-.41-.03s-.27.01-.41.03c-1.56.25-2.3,2.1-1.56,3.49l1.59,2.98c.16.3.6.3.76,0Z"/><path class="cls-2" d="M47.57,70.6l3.09-1.35c1.45-.63,2.01-2.54.94-3.7-.09-.1-.19-.19-.3-.28s-.22-.16-.34-.23c-1.38-.77-3.1.22-3.39,1.77l-.6,3.32c-.06.34.28.61.6.47Z"/><path class="cls-2" d="M47.57,50.56l3.09-1.35c1.45-.63,2.01-2.54.94-3.7-.09-.1-.19-.19-.3-.28s-.22-.16-.34-.23c-1.38-.77-3.1.22-3.39,1.77l-.6,3.32c-.06.34.28.61.6.47Z"/><path class="cls-2" d="M53.75,60.58l-3.09-1.35c-1.45-.63-2.01-2.54-.94-3.7.09-.1.19-.19.3-.28s.22-.16.34-.23c1.38-.77,3.1.22,3.39,1.77l.6,3.32c.06.34-.28.61-.6.47Z"/><path class="cls-2" d="M50.18,41.48s0,.02,0,.03v34.76h1.11v-4.31h0v-30.45s0-.02,0-.03h-1.11Z"/><path class="cls-2" d="M65.41,94.53l-2.63-2.11c-1.23-.99-1.27-2.98.06-3.82.11-.07.23-.14.36-.19s.26-.1.39-.13c1.53-.38,2.94,1.02,2.8,2.6l-.29,3.36c-.03.34-.43.51-.7.3Z"/><rect class="cls-8" x="16" y="136.65" width="128.13" height="7.29" transform="translate(160.13 280.59) rotate(-180)"/><rect class="cls-5" x="22.24" y="130.84" width="38.61" height="5.78" transform="translate(83.09 267.46) rotate(-180)"/><rect class="cls-5" x="19.51" y="128.16" width="38.29" height="2.68" transform="translate(77.3 259) rotate(-180)"/><rect class="cls-5" x="20.9" y="124.08" width="39.31" height="4.08" transform="translate(81.11 252.24) rotate(-180)"/><rect class="cls-5" x="21.97" y="118.99" width="38.23" height="5.09" transform="translate(82.18 243.07) rotate(-180)"/><rect class="cls-5" x="20.26" y="116.53" width="36.9" height="2.46" transform="translate(77.41 235.52) rotate(-180)"/><rect class="cls-5" x="23.47" y="112.45" width="30.23" height="4.08" transform="translate(77.17 228.97) rotate(-180)"/><rect class="cls-5" x="25.9" y="108.98" width="28.93" height="3.47" transform="translate(80.74 221.42) rotate(-180)"/><rect class="cls-5" x="24.4" y="106.41" width="27.76" height="2.57" transform="translate(76.57 215.38) rotate(-180)"/><line class="cls-1" x1="60.85" y1="130.84" x2="31.55" y2="130.84"/><line class="cls-1" x1="20.9" y1="128.16" x2="39.59" y2="128.16"/><line class="cls-1" x1="60.21" y1="124.08" x2="38.71" y2="124.08"/><line class="cls-1" x1="21.97" y1="118.99" x2="41.72" y2="118.99"/><line class="cls-1" x1="53.7" y1="116.53" x2="35.94" y2="116.53"/><line class="cls-1" x1="25.9" y1="112.45" x2="41.72" y2="112.45"/><line class="cls-1" x1="52.17" y1="108.98" x2="39.01" y2="108.98"/><path class="cls-2" d="M51.56,106.4c0-.12,0-.24-.03-.36-.22-1.37-1.84-2.02-3.06-1.37l-2.61,1.39c-.13.07-.2.2-.2.34"/><path class="cls-6" d="M70.46,136.66c-.01-.12-.08-.23-.2-.3l-2.6-1.4c-1.22-.66-2.84-.01-3.07,1.35-.02.12-.03.23-.03.36"/><path class="cls-2" d="M66.61,136.66c.04-.05.07-.11.1-.16l1.47-2.56c.15-.26-.05-.59-.35-.56l-2.95.21c-1.38.1-2.4,1.51-1.87,2.78.04.1.09.2.15.3"/><path class="cls-4" d="M94.75,86.41c0-1.69-1.37-3.07-3.07-3.07s-3.07,1.37-3.07,3.07,1.37,3.07,3.07,3.07,3.07-1.37,3.07-3.07Z"/><path class="cls-4" d="M108.81,86.41c0-1.69,1.37-3.07,3.07-3.07s3.07,1.37,3.07,3.07-1.37,3.07-3.07,3.07-3.07-1.37-3.07-3.07Z"/><path class="cls-10" d="M109.35,104.43v-11.83l-15.14-.04v11.87c0,3.08,2.5,5.57,5.57,5.57h4c3.08,0,5.57-2.5,5.57-5.57"/><path class="cls-4" d="M111.91,91.11v-13.63c0-4.61-3.74-8.35-8.34-8.35h-3.57c-4.61,0-8.34,3.74-8.34,8.35v13.63c0,4.61,3.74,8.35,8.34,8.35h3.57c4.61,0,8.34-3.74,8.34-8.35Z"/><path class="cls-7" d="M101.52,89.89c-.47,0-.85-.23-1.18-.44-.54-.34-.87-.54-1.52.11l-.42-.42c.99-.99,1.7-.55,2.27-.19.28.18.56.35.86.35s.56-.15.83-.32c.54-.33,1.21-.74,2.32.18l-.39.46c-.78-.65-1.12-.44-1.63-.13-.31.19-.67.41-1.15.41Z"/><path class="cls-11" d="M92.56,83.28s3.33-2.77,4.71-2.94c1.51-.2,2.05.45,2.27,1.49l-6.98,1.45Z"/><path class="cls-11" d="M110.62,83.24s-3.37-2.71-4.76-2.87c-1.52-.17-2.05.48-2.25,1.52l7,1.34Z"/><path class="cls-3" d="M104.35,92c1.3,0,2.35.42,2.42.45l-.28.67s-2.18-.88-3.96,0l-.32-.65c.71-.34,1.46-.46,2.14-.46Z"/><path class="cls-11" d="M112.09,72.04c0-1.74-1.42-3.15-3.16-3.15h-12.71v1.13c0,1.34.53,5.43,1.48,6.38.95.95,2.24,1.48,3.58,1.48h10.8v-5.84h0Z"/><path class="cls-11" d="M91.3,72.04c0-1.74,1.4-3.15,3.15-3.15h1.81v8.99h-4.97v-5.84h0Z"/><path class="cls-9" d="M109,84.09c.12.61-.79,1.31-2.03,1.56-1.24.25-2.34-.06-2.47-.66-.06-.28.11-.57.4-.83.36-.32.94-.59,1.63-.73.17-.03.33-.06.48-.06,1.03-.11,1.88.19,1.99.72Z"/><path class="cls-3" d="M107.12,83.87c0,.62-.51,1.13-1.13,1.13-.52,0-.98-.36-1.09-.84.36-.32.94-.59,1.63-.73.17-.03.33-.06.48-.06.07.15.11.32.11.5Z"/><path class="cls-9" d="M98.56,84.99c-.12.61-1.23.91-2.47.66-1.24-.25-2.14-.95-2.03-1.56.04-.19.18-.36.39-.47.45-.28,1.23-.36,2.08-.19.03,0,.04.01.07.01,1.21.26,2.08.95,1.96,1.54Z"/><path class="cls-3" d="M96.68,83.87c0,.62-.51,1.13-1.13,1.13s-1.14-.51-1.14-1.13c0-.08.01-.17.04-.25.45-.28,1.23-.36,2.08-.19.03,0,.04.01.07.01.06.14.08.28.08.43Z"/><path class="cls-11" d="M112.09,73.92h-.84v16.81h.84v-16.81Z"/><path class="cls-11" d="M92.13,73.92h-.84v16.81h.84v-16.81Z"/><path class="cls-12" d="M80.56,107.35h41.9c.96,0,1.75.78,1.75,1.75v27.66h-45.39v-27.66c0-.96.78-1.75,1.75-1.75Z"/></svg>