<?xml version="1.0" encoding="utf-8"?><!--Generator: Adobe Illustrator 27.8.0, SVG Export Plug-In . SVG Version: 6.00 Build 0)--><svg version="1.1" xmlns="http://www.w3.org/2000/svg" xmlns:xlink="http://www.w3.org/1999/xlink" x="0px" y="0px" viewBox="0 0 160 160" style="enable-background:new 0 0 160 160;" xml:space="preserve"><style type="text/css">.st0{fill:#FFC6AD;}
	.st1{fill:#F7931E;}
	.st2{fill:#8B181D;}
	.st3{fill:#F5836D;}
	.st4{fill:#FFA28F;}
	.st5{fill:#ABB8B9;}
	.st6{fill:#FBB03B;}
	.st7{fill:#F7E5CD;}
	.st8{fill:#BAC09A;}
	.st9{fill:#463EC5;}
	.st10{fill:#693725;}
	.st11{fill:#FAA332;}
	.st12{fill:#E73245;}
	.st13{fill:#8F411F;}
	.st14{fill:#F68D3D;}
	.st15{fill:#569B7B;}
	.st16{fill:#FFFFFF;}
	.st17{fill:#AACDE5;}
	.st18{fill:#232144;}
	.st19{fill:#A86554;}
	.st20{fill:#FFBD7A;}
	.st21{fill:#E6E3DA;}
	.st22{fill:#4B7CFE;}
	.st23{fill:#D8CBC5;}
	.st24{fill:#FF6200;}
	.st25{fill:#F0A86B;}
	.st26{fill:#E3944F;}
	.st27{fill:#191C15;}
	.st28{fill:#420F0F;}
	.st29{fill:#7D441C;}
	.st30{fill:none;stroke:#000000;stroke-width:0.6944;stroke-miterlimit:10;}
	.st31{fill:#01464D;}
	.st32{fill:#7A2F37;}
	.st33{fill:#9E3F39;}
	.st34{fill:none;stroke:#ABB8B9;stroke-width:3;stroke-miterlimit:10;}
	.st35{fill:#891229;}
	.st36{fill:#7070FF;}
	.st37{fill:#32785A;}
	.st38{fill:#D3E8F3;}
	.st39{fill:#006931;}
	.st40{clip-path:url(#SVGID_00000085230343440346981790000004128849507387098782_);}
	.st41{fill:#9A4039;}
	.st42{fill:none;stroke:#232144;stroke-width:2;stroke-miterlimit:10;}
	.st43{fill:#F5B091;}
	.st44{fill:none;stroke:#000000;stroke-width:1.3429;stroke-miterlimit:10;}
	.st45{fill:#D93B34;}
	.st46{fill:#FE5E57;}
	.st47{clip-path:url(#XMLID_00000098939243696514261670000008507374488939146898_);fill:#F7931E;}
	.st48{fill:#763427;}</style><g id="stramien"/><g id="Design"><path class="st5" d="M64.4,92.9c-12.7,4.1-19.8,17.7-15.7,30.4c4.1,12.7,17.7,19.8,30.4,15.7s19.8-17.7,15.7-30.4
		C90.8,95.9,77.2,88.8,64.4,92.9z M73.6,121.7c-3.2,1-6.6-0.7-7.6-3.9c-1-3.2,0.7-6.6,3.9-7.6c3.2-1,6.6,0.7,7.6,3.9
		C78.6,117.3,76.8,120.7,73.6,121.7z"/><polygon class="st5" points="71.4,94.1 59.5,97.9 59.9,89.3 66,87.3 	"/><polygon class="st5" points="58.6,98.5 51.2,108.5 46.5,101.3 50.3,96.1 	"/><polygon class="st5" points="50.8,109.5 50.7,122 42.7,119 42.7,112.5 	"/><polygon class="st5" points="51,123.1 58.3,133.2 50,135.5 46.2,130.2 	"/><polygon class="st5" points="59.1,133.9 71,137.8 65.6,144.5 59.5,142.5 	"/><polygon class="st5" points="72,137.9 83.9,134.1 83.5,142.7 77.4,144.6 	"/><polygon class="st5" points="84.8,133.5 92.2,123.4 96.9,130.7 93.1,135.8 	"/><polygon class="st5" points="92.6,122.4 92.7,109.9 100.7,113 100.7,119.4 	"/><polygon class="st5" points="92.4,108.9 85.1,98.8 93.5,96.5 97.2,101.7 	"/><polygon class="st5" points="84.3,98.1 72.4,94.2 77.9,87.5 84,89.5 	"/><path class="st31" d="M29.4,85.9c-6.6,2.1-10.2,9.2-8.1,15.8c2.1,6.6,9.2,10.2,15.8,8.1c6.6-2.1,10.2-9.2,8.1-15.8
		C43,87.5,36,83.8,29.4,85.9z M34.1,100.9c-1.7,0.5-3.4-0.4-3.9-2c-0.5-1.7,0.4-3.4,2-3.9c1.7-0.5,3.4,0.4,3.9,2
		C36.7,98.6,35.8,100.4,34.1,100.9z"/><polygon class="st31" points="36.5,87.8 24.6,91.6 25,83 31.2,81 	"/><polygon class="st31" points="24.4,91.4 24.4,103.9 16.3,100.8 16.3,94.4 	"/><polygon class="st31" points="24.1,104 36,107.9 30.6,114.6 24.5,112.6 	"/><polygon class="st31" points="36,108.2 43.4,98.1 48.1,105.3 44.3,110.5 	"/><polygon class="st31" points="43.7,98.1 36.4,88 44.7,85.8 48.5,91 	"/><g><path class="st31" d="M106.4,93.9c-6,3.5-8,11.2-4.6,17.2c3.5,6,11.2,8,17.2,4.6c6-3.5,8-11.2,4.6-17.2
			C120.1,92.5,112.4,90.4,106.4,93.9z M114.2,107.5c-1.5,0.9-3.4,0.4-4.3-1.1c-0.9-1.5-0.4-3.4,1.1-4.3c1.5-0.9,3.4-0.4,4.3,1.1
			C116.3,104.7,115.7,106.6,114.2,107.5z"/><polygon class="st31" points="113.8,94.2 102.9,100.4 101.5,91.9 107.1,88.7 		"/><polygon class="st31" points="102.7,100.3 105.3,112.5 96.8,111.2 95.5,104.9 		"/><polygon class="st31" points="105.1,112.7 117.6,114 113.7,121.7 107.3,121 		"/><polygon class="st31" points="117.6,114.2 122.7,102.8 128.9,108.8 126.3,114.7 		"/><polygon class="st31" points="123,102.8 113.7,94.4 121.3,90.4 126.1,94.7 		"/></g><path class="st32" d="M91.4,45.9l1.6-7.9l17.2,3.5c2.2,0.4,3.6,2.6,3.2,4.8c-0.4,2.2-2.6,3.6-4.8,3.2L91.4,45.9z"/><path class="st32" d="M97.8,43.3l1-8l17.4,2.1c2.2,0.3,3.8,2.3,3.5,4.5c-0.3,2.2-2.3,3.8-4.5,3.5L97.8,43.3z"/><path class="st33" d="M91,37.4l2-1.7l11.5,13.2c1.5,1.7,1.3,4.2-0.4,5.7c-1.7,1.5-4.2,1.3-5.7-0.4l-7.8-9.1
		C88.4,42.9,88.7,39.4,91,37.4"/><path class="st33" d="M108.6,22.2l4.9,17.5l-22.8,6L89.6,41c-0.4-1.4,0.4-3.1,2.2-4.6L108.6,22.2z"/><g><path class="st5" d="M120.9,47.3l-5,4.8l-11.6-11.9c-1.3-1.4-3.5-1.4-4.8-0.1L87,52.4l-2.5-2.6L102,32.8c1.4-1.3,3.5-1.3,4.8,0.1
			L120.9,47.3z"/></g><polyline class="st34" points="79.7,55.3 46.5,54.8 41,60.2 	"/><circle class="st31" cx="86.1" cy="55.3" r="10.1"/><path class="st12" d="M115.4,72.8L102.9,85c-2,1.9-5.1,1.9-7.1-0.1l-16-16.4c-1.9-2-1.9-5.1,0.1-7.1l12.5-12.2
		c2-1.9,5.1-1.9,7.1,0.1l16,16.4C117.5,67.7,117.4,70.9,115.4,72.8z"/><path class="st33" d="M133.4,29.9L133.4,29.9c-1.5,5.5-5.9,9.8-11.5,11.1l-21.7,5.2c-2.2,0.5-4.4-0.8-4.9-3c-0.5-2.2,0.8-4.4,3-4.9
		L133.4,29.9z"/><path class="st6" d="M45.3,71.4c0,1.9-1.5,3.5-3.5,3.5s-3.5-1.5-3.5-3.5s3.5-7.4,3.5-7.4S45.3,69.5,45.3,71.4z"/><polygon class="st33" points="132.4,15.7 108.6,22.2 112.5,36.5 143.8,30.7 143.8,15.7 	"/></g></svg>