<svg viewBox="0 0 160 160" fill="none" xmlns="http://www.w3.org/2000/svg"><path fill-rule="evenodd" clip-rule="evenodd" d="M38 135.998V24.0021C38 19.5821 41.5725 16.0001 45.9785 16.0001H114.021C118.429 16.0001 122 19.5821 122 24.0021V135.998C122 140.417 118.429 144 114.021 144H45.9785C41.5725 144 38 140.417 38 135.998Z" fill="#E73245"/><path fill-rule="evenodd" clip-rule="evenodd" d="M47.7455 51.214H115.039V24.218H47.7455V51.214Z" fill="#232144"/><path fill-rule="evenodd" clip-rule="evenodd" d="M84.8734 60.828H115.04V54.312H84.8734V60.828Z" fill="#232144"/><path fill-rule="evenodd" clip-rule="evenodd" d="M46.3536 79.9141V70.6081C46.3536 70.0931 46.7704 69.6761 47.2839 69.6761H57.4719C57.9854 69.6761 58.4022 70.0931 58.4022 70.6081V79.9141C58.4022 80.4291 57.9854 80.8471 57.4719 80.8471H47.2839C46.7704 80.8471 46.3536 80.4291 46.3536 79.9141Z" fill="#E6E3DA"/><path fill-rule="evenodd" clip-rule="evenodd" d="M64.7685 79.9141V70.6081C64.7685 70.0931 65.1852 69.6761 65.6987 69.6761H75.8868C76.4003 69.6761 76.817 70.0931 76.817 70.6081V79.9141C76.817 80.4291 76.4003 80.8471 75.8868 80.8471H65.6987C65.1852 80.8471 64.7685 80.4291 64.7685 79.9141Z" fill="#E6E3DA"/><path fill-rule="evenodd" clip-rule="evenodd" d="M83.1833 79.9141V70.6081C83.1833 70.0931 83.6001 69.6761 84.1136 69.6761H94.3016C94.8151 69.6761 95.2319 70.0931 95.2319 70.6081V79.9141C95.2319 80.4291 94.8151 80.8471 94.3016 80.8471H84.1136C83.6001 80.8471 83.1833 80.4291 83.1833 79.9141Z" fill="#E6E3DA"/><path fill-rule="evenodd" clip-rule="evenodd" d="M101.598 79.9141V70.6081C101.598 70.0931 102.015 69.6761 102.528 69.6761H112.716C113.23 69.6761 113.647 70.0931 113.647 70.6081V79.9141C113.647 80.4291 113.23 80.8471 112.716 80.8471H102.528C102.015 80.8471 101.598 80.4291 101.598 79.9141Z" fill="#E6E3DA"/><path fill-rule="evenodd" clip-rule="evenodd" d="M46.3536 97.3571V88.0511C46.3536 87.5361 46.7704 87.1191 47.2839 87.1191H57.4719C57.9854 87.1191 58.4022 87.5361 58.4022 88.0511V97.3571C58.4022 97.8721 57.9854 98.2901 57.4719 98.2901H47.2839C46.7704 98.2901 46.3536 97.8721 46.3536 97.3571Z" fill="#E6E3DA"/><path fill-rule="evenodd" clip-rule="evenodd" d="M64.7685 97.3571V88.0511C64.7685 87.5361 65.1852 87.1191 65.6987 87.1191H75.8868C76.4003 87.1191 76.817 87.5361 76.817 88.0511V97.3571C76.817 97.8721 76.4003 98.2901 75.8868 98.2901H65.6987C65.1852 98.2901 64.7685 97.8721 64.7685 97.3571Z" fill="#E6E3DA"/><path fill-rule="evenodd" clip-rule="evenodd" d="M83.1833 97.3571V88.0511C83.1833 87.5361 83.6001 87.1191 84.1136 87.1191H94.3016C94.8151 87.1191 95.2319 87.5361 95.2319 88.0511V97.3571C95.2319 97.8721 94.8151 98.2901 94.3016 98.2901H84.1136C83.6001 98.2901 83.1833 97.8721 83.1833 97.3571Z" fill="#E6E3DA"/><path fill-rule="evenodd" clip-rule="evenodd" d="M101.598 97.3571V88.0511C101.598 87.5361 102.015 87.1191 102.528 87.1191H112.716C113.23 87.1191 113.647 87.5361 113.647 88.0511V97.3571C113.647 97.8721 113.23 98.2901 112.716 98.2901H102.528C102.015 98.2901 101.598 97.8721 101.598 97.3571Z" fill="#E6E3DA"/><path fill-rule="evenodd" clip-rule="evenodd" d="M46.3536 114.8V105.494C46.3536 104.979 46.7704 104.562 47.2839 104.562H57.4719C57.9854 104.562 58.4022 104.979 58.4022 105.494V114.8C58.4022 115.315 57.9854 115.733 57.4719 115.733H47.2839C46.7704 115.733 46.3536 115.315 46.3536 114.8Z" fill="#E6E3DA"/><path fill-rule="evenodd" clip-rule="evenodd" d="M64.7685 114.8V105.494C64.7685 104.979 65.1852 104.562 65.6987 104.562H75.8868C76.4003 104.562 76.817 104.979 76.817 105.494V114.8C76.817 115.315 76.4003 115.733 75.8868 115.733H65.6987C65.1852 115.733 64.7685 115.315 64.7685 114.8Z" fill="#E6E3DA"/><path fill-rule="evenodd" clip-rule="evenodd" d="M83.1833 114.8V105.494C83.1833 104.979 83.6001 104.562 84.1136 104.562H94.3016C94.8151 104.562 95.2319 104.979 95.2319 105.494V114.8C95.2319 115.315 94.8151 115.733 94.3016 115.733H84.1136C83.6001 115.733 83.1833 115.315 83.1833 114.8Z" fill="#E6E3DA"/><path fill-rule="evenodd" clip-rule="evenodd" d="M101.598 114.8V105.494C101.598 104.979 102.015 104.562 102.528 104.562H112.716C113.23 104.562 113.647 104.979 113.647 105.494V114.8C113.647 115.315 113.23 115.733 112.716 115.733H102.528C102.015 115.733 101.598 115.315 101.598 114.8Z" fill="#E6E3DA"/><path fill-rule="evenodd" clip-rule="evenodd" d="M46.3536 132.243V122.937C46.3536 122.422 46.7704 122.005 47.2839 122.005H57.4719C57.9854 122.005 58.4022 122.422 58.4022 122.937V132.243C58.4022 132.758 57.9854 133.176 57.4719 133.176H47.2839C46.7704 133.176 46.3536 132.758 46.3536 132.243Z" fill="#E6E3DA"/><path fill-rule="evenodd" clip-rule="evenodd" d="M64.7685 132.243V122.937C64.7685 122.422 65.1852 122.005 65.6987 122.005H75.8868C76.4003 122.005 76.817 122.422 76.817 122.937V132.243C76.817 132.758 76.4003 133.176 75.8868 133.176H65.6987C65.1852 133.176 64.7685 132.758 64.7685 132.243Z" fill="#E6E3DA"/><path fill-rule="evenodd" clip-rule="evenodd" d="M83.1833 132.243V122.937C83.1833 122.422 83.6001 122.005 84.1136 122.005H94.3016C94.8151 122.005 95.2319 122.422 95.2319 122.937V132.243C95.2319 132.758 94.8151 133.176 94.3016 133.176H84.1136C83.6001 133.176 83.1833 132.758 83.1833 132.243Z" fill="#E6E3DA"/><path fill-rule="evenodd" clip-rule="evenodd" d="M101.598 132.243V122.937C101.598 122.422 102.015 122.005 102.528 122.005H112.716C113.23 122.005 113.647 122.422 113.647 122.937V132.243C113.647 132.758 113.23 133.176 112.716 133.176H102.528C102.015 133.176 101.598 132.758 101.598 132.243Z" fill="#232144"/><path fill-rule="evenodd" clip-rule="evenodd" d="M74.3038 36.9943C74.3038 36.7953 74.3467 36.6963 74.5591 36.4123L77.0517 33.1163H72.9299C72.7743 33.1163 72.7454 33.0303 72.7454 32.8883V32.4483C72.7454 32.3063 72.7743 32.2213 72.9299 32.2213H77.987C78.1854 32.2213 78.2562 32.2493 78.2562 32.4343V32.6473C78.2562 33.0873 78.1565 33.2293 77.6181 33.9403L75.6209 36.5963C77.5194 36.7243 78.5962 37.8613 78.5962 39.4663C78.5962 41.2563 77.307 42.5913 75.2391 42.5913C74.3317 42.5913 73.3686 42.3213 72.6896 41.9383C72.5191 41.8383 72.4912 41.7393 72.5759 41.5543L72.7314 41.2133C72.8162 41.0433 72.9009 41.0003 73.0435 41.0713C73.7375 41.3983 74.4175 41.6403 75.253 41.6403C76.4714 41.6403 77.5054 40.9013 77.5054 39.5373C77.5054 38.1163 76.5273 37.4203 75.0686 37.4203H74.4873C74.3317 37.4203 74.3038 37.3493 74.3038 37.2073V36.9943Z" fill="white"/><path fill-rule="evenodd" clip-rule="evenodd" d="M86.4578 32.2209C86.6133 32.2209 86.6422 32.3059 86.6422 32.4479V32.6329C86.6422 32.9739 86.5714 33.2299 86.4009 33.6559L83.0159 42.2509C82.9451 42.4209 82.8743 42.4499 82.7038 42.4499H82.0527C81.8972 42.4499 81.8683 42.3499 81.9251 42.2079L85.5514 33.1439H80.9899C80.8343 33.1439 80.8064 33.0589 80.8064 32.9169V32.4479C80.8064 32.3059 80.8343 32.2209 80.9899 32.2209H86.4578Z" fill="white"/><path fill-rule="evenodd" clip-rule="evenodd" d="M93.668 36.3976V36.1986C93.668 34.0966 92.9312 33.0166 91.5293 33.0166C90.3677 33.0166 89.4753 33.6986 89.4753 35.1616C89.4753 36.3976 89.9998 37.1646 91.3169 37.1646C92.0538 37.1646 93.0588 36.8236 93.668 36.3976ZM88.8233 42.2226C88.6677 42.1516 88.6538 42.0946 88.7106 41.9096L88.8522 41.4836C88.8941 41.3556 88.9509 41.2986 89.1353 41.3556C89.5741 41.5116 90.0696 41.6396 90.623 41.6396C92.9461 41.6396 93.4985 39.1676 93.5972 37.3066C93.0159 37.7616 92.0677 38.1306 91.2601 38.1306C89.1772 38.1306 88.3846 36.9096 88.3846 35.1756C88.3846 33.2156 89.7017 32.0786 91.5712 32.0786C93.7956 32.0786 94.7448 33.5706 94.7448 36.4686C94.7448 39.3956 93.9651 42.5916 90.5801 42.5916C90.0138 42.5916 89.3338 42.4636 88.8233 42.2226Z" fill="white"/><path fill-rule="evenodd" clip-rule="evenodd" d="M96.6573 41.654C96.6573 38.344 101.119 37.037 101.119 34.821C101.119 33.571 100.284 33.059 99.2916 33.059C98.5558 33.059 97.8329 33.272 97.1818 33.656C97.0253 33.741 96.9545 33.713 96.8976 33.613L96.6713 33.23C96.6145 33.13 96.5865 33.002 96.756 32.889C97.451 32.42 98.3853 32.079 99.4053 32.079C100.85 32.079 102.196 32.945 102.196 34.707C102.196 37.676 97.8618 38.642 97.7342 41.555H102.295C102.45 41.555 102.479 41.64 102.479 41.782V42.222C102.479 42.364 102.45 42.45 102.295 42.45H96.8418C96.6853 42.45 96.6573 42.364 96.6573 42.222V41.654Z" fill="white"/><path fill-rule="evenodd" clip-rule="evenodd" d="M109.873 37.1506C109.873 34.4656 109.095 33.0166 107.678 33.0166C106.261 33.0166 105.37 34.5226 105.37 37.4626C105.37 40.1476 106.106 41.6536 107.55 41.6536C109.01 41.6536 109.873 40.0626 109.873 37.1506ZM104.25 37.5626C104.25 33.9966 105.553 32.0786 107.735 32.0786C109.718 32.0786 110.978 33.6136 110.978 37.0936C110.978 40.6026 109.718 42.5916 107.493 42.5916C105.496 42.5916 104.25 40.9726 104.25 37.5626Z" fill="white"/></svg>