<svg viewBox="0 0 160 160" fill="none" xmlns="http://www.w3.org/2000/svg"><path fill-rule="evenodd" clip-rule="evenodd" d="M16.6125 94.5861V85.2504C16.6125 79.4998 20.7946 74.5818 26.5266 73.5926L42.1656 70.8922C44.0065 70.575 45.7676 69.907 47.3516 68.9258L60.2056 60.9634C64.3876 58.3734 69.2225 57 74.1576 57H125.189C127.661 57 130.046 57.9034 131.883 59.5379L141.06 67.6992C142.932 69.3632 144.001 71.7346 144.001 74.2232V88.4484C144.001 92.8709 140.508 96.456 136.201 96.456H18.5045C17.4595 96.456 16.6125 95.6186 16.6125 94.5861Z" fill="#F7E5CD"/><path fill-rule="evenodd" clip-rule="evenodd" d="M138.839 96.456V90.2227H144V91.7339C144 94.3418 141.854 96.456 139.207 96.456H138.839Z" fill="#232144"/><path fill-rule="evenodd" clip-rule="evenodd" d="M54.476 93.3627C54.476 87.487 49.656 82.7246 43.711 82.7246C37.765 82.7246 32.946 87.487 32.946 93.3627C32.946 99.2384 37.765 104.001 43.711 104.001C49.656 104.001 54.476 99.2384 54.476 93.3627Z" fill="#232144"/><path fill-rule="evenodd" clip-rule="evenodd" d="M50.2494 93.3623C50.2494 89.7939 47.3224 86.9004 43.7104 86.9004C40.0994 86.9004 37.1724 89.7939 37.1724 93.3623C37.1724 96.9306 40.0994 99.8242 43.7104 99.8242C47.3224 99.8242 50.2494 96.9306 50.2494 93.3623Z" fill="#F7E5CD"/><path fill-rule="evenodd" clip-rule="evenodd" d="M47.4553 93.3605C47.4553 91.3172 45.7783 89.6602 43.7103 89.6602C41.6423 89.6602 39.9663 91.3172 39.9663 93.3605C39.9663 95.4038 41.6423 97.0609 43.7103 97.0609C45.7783 97.0609 47.4553 95.4038 47.4553 93.3605Z" fill="#232144"/><path fill-rule="evenodd" clip-rule="evenodd" d="M131.994 93.3627C131.994 87.487 127.174 82.7246 121.229 82.7246C115.283 82.7246 110.464 87.487 110.464 93.3627C110.464 99.2384 115.283 104.001 121.229 104.001C127.174 104.001 131.994 99.2384 131.994 93.3627Z" fill="#232144"/><path fill-rule="evenodd" clip-rule="evenodd" d="M127.767 93.3623C127.767 89.7939 124.84 86.9004 121.228 86.9004C117.617 86.9004 114.69 89.7939 114.69 93.3623C114.69 96.9306 117.617 99.8242 121.228 99.8242C124.84 99.8242 127.767 96.9306 127.767 93.3623Z" fill="#F7E5CD"/><path fill-rule="evenodd" clip-rule="evenodd" d="M124.973 93.3605C124.973 91.3172 123.296 89.6602 121.228 89.6602C119.16 89.6602 117.484 91.3172 117.484 93.3605C117.484 95.4038 119.16 97.0609 121.228 97.0609C123.296 97.0609 124.973 95.4038 124.973 93.3605Z" fill="#232144"/><path fill-rule="evenodd" clip-rule="evenodd" d="M19.1304 82.723V80.7841C19.1304 78.0158 21.4084 75.7715 24.2184 75.7715H29.0174V77.7103C29.0174 80.4787 26.7394 82.723 23.9284 82.723H19.1304Z" fill="#232144"/><path fill-rule="evenodd" clip-rule="evenodd" d="M16 97.1681V91.25H21.159C21.617 91.25 21.989 91.6165 21.989 92.0677V96.3494C21.989 96.8016 21.617 97.1681 21.159 97.1681H16Z" fill="#232144"/><path fill-rule="evenodd" clip-rule="evenodd" d="M78.425 76.5487H85.27V75.5605H78.425V76.5487Z" fill="#232144"/><path fill-rule="evenodd" clip-rule="evenodd" d="M109.987 76.5487H116.832V75.5605H109.987V76.5487Z" fill="#232144"/><path fill-rule="evenodd" clip-rule="evenodd" d="M136.551 75.5605H144V82.1367H141.26C139.785 82.1367 138.376 81.5357 137.364 80.4767L135.334 78.3496C134.326 77.2945 135.083 75.5605 136.551 75.5605Z" fill="#232144"/><path fill-rule="evenodd" clip-rule="evenodd" d="M45.4597 70.1267C45.4597 70.1267 58.7827 61.3014 65.1687 58.3408C67.7097 57.1635 73.4307 57 73.4307 57C73.4307 57 58.3467 66.8864 53.6387 69.4341C51.6007 70.5375 45.4597 70.1267 45.4597 70.1267Z" fill="#232144"/><path fill-rule="evenodd" clip-rule="evenodd" d="M57.262 71.5444L69.683 62.0225C73.927 58.7694 79.178 57 84.588 57H121.584C123.862 57 125.709 58.7911 125.709 60.9999C125.709 66.8234 120.841 71.5444 114.835 71.5444H57.262Z" fill="#232144"/><path fill-rule="evenodd" clip-rule="evenodd" d="M128.837 57.6836C128.837 58.7841 128.955 61.6953 129.085 64.5671C129.261 68.4705 132.514 71.5463 136.468 71.5463H143.576C142.55 67.3533 131.909 58.6274 128.837 57.6836Z" fill="#232144"/><path fill-rule="evenodd" clip-rule="evenodd" d="M90.691 74.099H93.733V57H90.691V74.099Z" fill="#F7E5CD"/></svg>