<?xml version="1.0" encoding="utf-8"?><!--Generator: Adobe Illustrator 27.8.0, SVG Export Plug-In . SVG Version: 6.00 Build 0)--><svg version="1.1" id="Ebene_1" xmlns="http://www.w3.org/2000/svg" xmlns:xlink="http://www.w3.org/1999/xlink" x="0px" y="0px" viewBox="0 0 160 160" style="enable-background:new 0 0 160 160;" xml:space="preserve"><style type="text/css">.st0{fill:#171111;}
	.st1{fill:#E5F0FF;}
	.st2{fill:#FFC4B8;}
	.st3{fill:#FFA28F;}
	.st4{fill:#FFFFFF;}
	.st5{fill:#8B181D;}
	.st6{fill-rule:evenodd;clip-rule:evenodd;fill:#8B181D;}
	.st7{fill:#B0C2E4;}
	.st8{fill:none;stroke:#B0C2E4;stroke-width:0.4487;stroke-miterlimit:10;}
	.st9{fill:#F7E5CD;}
	.st10{fill:#420F0F;}
	.st11{fill:#693725;}
	.st12{fill:#5D2B1A;}
	.st13{fill:#76342F;}
	.st14{fill:#FBB03B;}</style><g id="character"/><polygon class="st0" points="83.48,62.22 86.63,58.37 86.63,58.37 109.31,58.37 112.92,62.02 "/><path class="st0" d="M68.57,117.78L67.1,66.63c0,0,8.39-2.75,16.83-4.93c5.51-1.42,11.05-2.6,14.28-2.6c7.44,0,31.7,7.67,31.7,7.67
	l-1.95,51.02L68.57,117.78L68.57,117.78z"/><polygon class="st1" points="88.05,65 92.48,126.17 93.76,130.47 98.24,131.47 97.91,112.28 107.82,69.5 107.92,64.78 "/><path class="st0" d="M139.26,87.86c3.14-2.47,3.97-6.88,1.89-10.28c-3.08-5.03-8.13-11.29-14.21-11.29
	c-6.97,0-13.01,4.66-13.53,11.57s14.22,19.15,14.22,19.15L139.26,87.86z"/><path class="st2" d="M107.22,41.96c0-2.21,1.8-4.01,4.03-4.01c2.23,0,4.03,1.8,4.03,4.01s-1.8,4.01-4.03,4.01
	S107.22,44.18,107.22,41.96"/><path class="st3" d="M107.92,64.23V48.76L88,48.7v15.53c0,4.03,3.28,7.29,7.33,7.29h5.26C104.64,71.52,107.92,68.25,107.92,64.23"/><path class="st2" d="M111.29,47.33V28.88c0-5.98-4.82-10.82-10.76-10.82H95.4c-5.95,0-10.76,4.85-10.76,10.82v18.45
	c0,5.98,4.82,10.82,10.76,10.82h5.13C106.47,58.15,111.29,53.31,111.29,47.33"/><path class="st4" d="M103.86,38.05c-0.28,0.05-0.54,0.13-0.78,0.22c0.05-0.01,0.11-0.02,0.16-0.02c0.82,0,1.48,0.67,1.48,1.48
	c0,0.55-0.3,1.02-0.74,1.28c0.15-0.02,0.31-0.04,0.46-0.07c1.62-0.32,2.8-1.23,2.64-2.03C106.92,38.11,105.47,37.73,103.86,38.05z"/><path class="st4" d="M101.76,39.73c0-0.45,0.2-0.84,0.52-1.11c-0.73,0.42-1.16,0.96-1.06,1.46c0.09,0.43,0.54,0.73,1.19,0.87
	C102.02,40.69,101.76,40.24,101.76,39.73z"/><path d="M104.72,39.73c0-0.81-0.66-1.48-1.48-1.48c-0.06,0-0.11,0.01-0.16,0.02c-0.29,0.1-0.56,0.22-0.8,0.35
	c-0.32,0.27-0.52,0.67-0.52,1.11c0,0.51,0.26,0.96,0.65,1.22c0.45,0.1,0.98,0.12,1.57,0.05C104.42,40.75,104.72,40.28,104.72,39.73z
	"/><polygon class="st5" points="111.33,47.66 111.33,37.2 110.52,37.2 107.3,47.66 "/><path d="M97.81,51.66c-1.29,0-2.47-0.49-3.26-1.36l0.61-0.55c0.68,0.75,1.73,1.14,2.89,1.08c0.99-0.06,1.86-0.45,2.28-1.02
	l0.67,0.48c-0.57,0.78-1.65,1.29-2.91,1.36C98,51.66,97.91,51.66,97.81,51.66"/><path class="st6" d="M103.24,48c0-0.44-0.18-0.87-0.49-1.18c-0.31-0.31-0.74-0.49-1.18-0.49c-2.05,0-5.51,0-7.57,0
	c-0.44,0-0.87,0.18-1.18,0.49c-0.31,0.31-0.49,0.74-0.49,1.18c0,0.75,0,1.47,0,1.47h10.92C103.24,49.47,103.24,48.75,103.24,48
	L103.24,48z"/><path d="M97.61,46.08c-0.62,0-1.11-0.31-1.55-0.58c-0.71-0.44-1.14-0.71-2,0.14l-0.56-0.56c1.3-1.3,2.23-0.72,2.98-0.25
	c0.38,0.23,0.73,0.46,1.13,0.46c0.41,0,0.74-0.2,1.1-0.42c0.71-0.43,1.59-0.97,3.06,0.24l-0.5,0.61c-1.03-0.85-1.47-0.58-2.14-0.17
	C98.71,45.8,98.24,46.08,97.61,46.08"/><path class="st6" d="M103.24,57.93c0-0.44-0.18-0.87-0.49-1.18c-0.31-0.31-0.74-0.49-1.18-0.49c-2.05,0-5.51,0-7.57,0
	c-0.44,0-0.87,0.18-1.18,0.49c-0.31,0.31-0.49,0.74-0.49,1.18c0,0.75,0,1.47,0,1.47h10.92C103.24,59.4,103.24,58.68,103.24,57.93
	L103.24,57.93z"/><polygon class="st6" points="110.48,26.34 111.56,26.34 111.56,47.66 110.48,47.66 "/><path class="st2" d="M88.71,41.96c0-2.21-1.81-4.01-4.03-4.01c-2.23,0-4.03,1.8-4.03,4.01s1.8,4.01,4.03,4.01
	C86.9,45.97,88.71,44.18,88.71,41.96"/><polygon class="st5" points="84.63,47.93 84.63,37.47 85.44,37.47 88.66,47.93 "/><polygon class="st6" points="84.4,25.94 85.48,25.94 85.48,47.93 84.4,47.93 "/><path class="st6" d="M96.13,34.21c0-0.44-0.18-0.87-0.49-1.18s-0.74-0.49-1.18-0.49c-1.6,0-4,0-5.6,0c-0.44,0-0.87,0.18-1.18,0.49
	c-0.31,0.31-0.49,0.74-0.49,1.18c0,0.75,0,1.47,0,1.47h8.95C96.13,35.68,96.13,34.96,96.13,34.21L96.13,34.21z"/><path class="st6" d="M108.55,35.15c0.09-0.43,0.01-0.88-0.23-1.25c-0.24-0.37-0.62-0.63-1.05-0.73c-1.57-0.34-3.91-0.84-5.48-1.18
	c-0.43-0.09-0.89-0.01-1.26,0.23c-0.37,0.24-0.64,0.62-0.73,1.05c-0.16,0.73-0.31,1.44-0.31,1.44l8.75,1.88
	C108.24,36.59,108.39,35.88,108.55,35.15L108.55,35.15z"/><path class="st6" d="M105.98,17.69c-5.36,0-12.78,0-13.85,0c-0.09,0-0.14,0-0.14,0c-0.29,0-1.06,0-2,0c-3.09,0-5.59,2.49-5.59,5.56
	c0,2.7,0,5.36,0,5.36s1.59,0,3.32,0c2.43,0,4.4-1.96,4.4-4.38c0-1.01,0-2.08,0-3.05c0.31,1.81,1.17,3.5,2.49,4.81
	c1.68,1.67,3.96,2.61,6.34,2.61c5.15,0,10.61,0,10.61,0s0-2.66,0-5.36C111.56,20.18,109.06,17.69,105.98,17.69z"/><path class="st4" d="M90.02,37.97c-0.87,0.09-1.51,0.43-1.61,0.94c-0.08,0.39,0.16,0.8,0.61,1.15c-0.1-0.2-0.16-0.42-0.16-0.65
	C88.86,38.71,89.36,38.11,90.02,37.97z"/><path class="st4" d="M91.63,38.05c-0.42-0.08-0.82-0.12-1.2-0.11c0.77,0.05,1.39,0.68,1.39,1.47c0,0.69-0.49,1.28-1.14,1.44
	c0.12,0.03,0.24,0.07,0.37,0.09c1.62,0.32,3.06-0.06,3.22-0.86C94.43,39.28,93.25,38.37,91.63,38.05z"/><path d="M90.02,37.97c-0.67,0.15-1.16,0.74-1.16,1.44c0,0.24,0.06,0.46,0.16,0.65c0.4,0.33,0.98,0.6,1.66,0.78
	c0.65-0.15,1.14-0.74,1.14-1.44c0-0.79-0.62-1.42-1.39-1.47"/><path class="st0" d="M139.41,109.46l0.1,34.54l-45.09-0.07v-12.87l-0.66-5.79v-13.89C95.49,112.72,139.12,107.29,139.41,109.46z"/><polygon class="st1" points="88.05,59.86 97.22,65.82 97.98,70.7 99.09,65.82 107.92,59.57 107.84,65.74 107.61,67.08 107.34,71.33 
	88.71,71.33 88.05,65 "/><path class="st7" d="M95.52,73.17h-5.83l1.35-2.89l-1.35-2.89h5.63c1.65,0,3,1.34,3,2.98l0,0C98.32,71.92,97.07,73.17,95.52,73.17z"/><path class="st7" d="M100.67,67.4h5.83l-1.35,2.89l1.35,2.89h-5.63c-1.65,0-3-1.34-3-2.98l0,0C97.87,68.64,99.12,67.4,100.67,67.4z"/><line class="st8" x1="97.98" y1="71.58" x2="97.98" y2="105"/><path class="st9" d="M54.08,64.64L41.16,35.72c0,0-2.68,0.01-4.86,1.06c0,0,0.51-20.78,15.11-20.78s10.56,0,10.56,0
	s13.62-0.24,13.62,18.49s0,29.95,0,29.95h-8.4L54.08,64.64"/><path class="st0" d="M49.17,69.07c-2.17,6.67-9.33,10.32-15.99,8.15c-6.67-2.17-10.31-9.33-8.15-16c2.17-6.67,9.33-10.32,15.99-8.15
	C47.69,55.23,51.34,62.4,49.17,69.07"/><polygon class="st10" points="30.05,118.18 28.82,64.05 82.69,64.05 83.46,118.18 "/><rect x="80.22" y="81.36" class="st11" width="14.21" height="62.56"/><path class="st9" d="M95.91,78.54c0.56-7.42-5-13.9-12.42-14.46c-7.42-0.56-13.89,5.01-14.45,12.43c-0.56,7.42,8.5,18.87,8.5,18.87
	S95.35,85.97,95.91,78.54"/><path class="st0" d="M54.83,51.63c-2.17,6.67-9.33,10.32-15.99,8.15c-6.67-2.17-10.31-9.33-8.15-16c2.17-6.67,9.33-10.32,15.99-8.15
	C53.35,37.8,57,44.96,54.83,51.63"/><path class="st12" d="M74.85,42.3c0,2.31-1.87,4.19-4.19,4.19c-2.32,0-4.19-1.88-4.19-4.19c0-2.31,1.87-4.19,4.19-4.19
	C72.98,38.11,74.85,39.99,74.85,42.3"/><path class="st12" d="M46.45,42.29c0,2.31-1.87,4.19-4.19,4.19c-2.32,0-4.19-1.88-4.19-4.19s1.87-4.19,4.19-4.19
	C44.58,38.1,46.45,39.98,46.45,42.29"/><path class="st10" d="M46.13,63.67V50.24l20.68,0.03v13.39c0,5.71-4.63,10.35-10.34,10.35C50.76,74.02,46.13,69.38,46.13,63.67"/><path class="st12" d="M42.76,48.3V28.98c0-6.11,4.95-11.06,11.05-11.06h5.32c6.1,0,11.05,4.95,11.05,11.06V48.3
	c0,6.11-4.95,11.06-11.05,11.06h-5.32C47.71,59.36,42.76,54.41,42.76,48.3"/><path d="M59.57,41.2c0.5-3.43,4.83-4.89,7.49-3.28c-0.16,0.26-0.48,0.79-0.64,1.05c-0.59-0.36-3.65-1.59-6.43,1.74
	C59.83,40.91,59.81,41,59.57,41.2"/><path class="st0" d="M42.92,42.94V35.8c0-6.11,4.89-11.06,10.92-11.06h1.82v-3.42h1.62v3.42h1.82c6.03,0,10.92,4.95,10.92,11.06
	v7.14h2.14V28.89c0-6.62-5.36-11.98-11.97-11.98h-7.43c-6.61,0-11.97,5.36-11.97,11.98v14.05H42.92z"/><path class="st0" d="M67.89,26.03c4.47,5.21,4.21,12.78,4.21,12.78s-7.51-0.89-11.99-6.1c-4.47-5.21-4.21-12.78-4.21-12.78
	S63.42,20.81,67.89,26.03"/><path d="M56.37,47.06c-0.16,0-0.32-0.02-0.49-0.05c-0.47-0.1-0.92-0.34-1.34-0.72c-0.22-0.2-0.44-0.29-0.67-0.27
	c-0.46,0.04-0.82,0.5-0.82,0.51l-0.44-0.33c0.02-0.03,0.5-0.66,1.21-0.72c0.39-0.04,0.76,0.11,1.09,0.42
	c0.34,0.32,0.7,0.51,1.07,0.59c0.38,0.08,0.72,0.04,1.01-0.11c0.12-0.06,0.24-0.16,0.36-0.28c0.15-0.16,0.55-0.53,1.14-0.56
	c0.47-0.01,0.94,0.19,1.4,0.62l-0.38,0.4c-0.35-0.33-0.68-0.48-1-0.47c-0.38,0.01-0.65,0.27-0.75,0.38c-0.16,0.17-0.33,0.3-0.51,0.4
	C56.98,47,56.69,47.06,56.37,47.06z"/><path class="st0" d="M48.78,33.37l-0.17,0.02c-1.74,0.22-3.27,1.3-4.14,2.9l9.04-1.15C52.28,33.8,50.53,33.15,48.78,33.37"/><path class="st0" d="M63.24,33.38l0.16,0.03c1.72,0.36,3.16,1.56,3.89,3.22l-8.91-1.88C59.73,33.53,61.52,33.02,63.24,33.38"/><path class="st4" d="M52.84,41.21c0,0-1-2.14-2.92-2.81c-1.92-0.67-4.03,0.39-4.03,0.39s0.77,1.75,2.69,2.41
	C50.5,41.87,52.84,41.21,52.84,41.21"/><path d="M52.84,41.2c-0.49-3.43-4.82-4.89-7.48-3.28c0.16,0.26,0.44,0.8,0.61,1.06c0.59-0.36,3.67-1.6,6.45,1.73
	C52.58,40.92,52.6,41,52.84,41.2"/><path d="M51.88,39.94c0,0.92-0.74,1.66-1.66,1.66s-1.66-0.74-1.66-1.66c0-0.92,0.74-1.66,1.66-1.66S51.88,39.02,51.88,39.94"/><path class="st4" d="M65.86,39.8c0.46-0.54,0.67-1.01,0.67-1.01s-0.85-0.42-1.96-0.56C65.3,38.39,65.84,39.03,65.86,39.8z"/><path class="st4" d="M62.54,39.84c0-0.89,0.69-1.6,1.56-1.65c-0.52-0.02-1.06,0.02-1.6,0.21c-1.92,0.67-2.92,2.81-2.92,2.81
	s2.03,0.56,3.85,0.1C62.9,41.03,62.54,40.48,62.54,39.84z"/><path d="M64.2,38.18c-0.03,0-0.07,0.01-0.1,0.01c0.16,0.01,0.32,0.02,0.48,0.04C64.45,38.2,64.33,38.18,64.2,38.18z"/><path d="M65.86,39.8c-0.02-0.77-0.56-1.41-1.28-1.57c-0.15-0.02-0.31-0.03-0.48-0.04c-0.87,0.05-1.56,0.76-1.56,1.65
	c0,0.64,0.36,1.19,0.89,1.47c0.14-0.03,0.27-0.06,0.41-0.11C64.77,40.88,65.42,40.31,65.86,39.8z"/><circle class="st9" cx="41.47" cy="44.48" r="0.99"/><circle class="st9" cx="71.48" cy="44.48" r="0.99"/><path class="st9" d="M56.13,73.76c-7.11,0-13.59-2.66-18.51-7.04h-5.19v44.13l49.34-0.7V66.72h-7.13
	C69.72,71.09,63.24,73.76,56.13,73.76z"/><path class="st2" d="M91.72,90.93c-0.46-1.02-1.66-1.47-2.68-1c-1.02,0.46-1.47,1.66-1,2.68l2.38,5.33l-7.25-1.43
	c-1.04-0.25-2.08,0.39-2.33,1.42l0,0c-0.25,1.03,0.37,2.07,1.4,2.34l0.1,0.03l-1.19-0.3c-1.04-0.25-2.09,0.4-2.33,1.45l0,0
	c-0.23,1.02,0.4,2.03,1.41,2.28c-0.89-0.02-1.7,0.59-1.91,1.5c-0.23,1.02,0.4,2.04,1.42,2.29l1.8,0.44c-0.97-0.12-1.89,0.5-2.1,1.48
	c-0.23,1.02,0.4,2.04,1.42,2.29l8.19,1.78l4.43,0.06l10.91,4.35l18.29-9.05l-24.09-5.4L91.72,90.93z"/><path class="st0" d="M144,117.78l-0.1-34.54c0-0.02-0.01-0.04-0.01-0.05c-0.03-9.07-7.42-16.42-16.54-16.42
	c-9.13,0-16.54,7.37-16.54,16.47c0,8.47,6.42,15.43,14.67,16.36v6.25L101.03,104l-4.61,18.19l35.45,6.58
	c6.23,1.16,11.98-3.63,11.98-9.97v-1.02H144z"/><path class="st13" d="M54.96,51.02c0.31-1.02-1.29-1.36-1.29-1.36l-3.54-1.08c0.1-0.19,2.68,9.12,10.2,3.11l-3.54-1.08
	C56.79,50.61,55.27,49.99,54.96,51.02L54.96,51.02z"/><path class="st9" d="M22.84,143.97c0.17,0,2.66-25.42,9.47-31.9l48.55-0.34c0,0,8.08,6.99,8.41,32.25H22.84V143.97z"/><path class="st11" d="M74.4,114.53l14.41-5.06c0.95-0.32,1.46-1.36,1.13-2.31l0,0c-0.32-0.95-1.36-1.46-2.31-1.13l-8.72,3.12
	l-0.09-0.25l11-3.9c0.95-0.32,1.46-1.36,1.13-2.31l0,0c-0.32-0.95-1.36-1.46-2.31-1.13L78.4,105.2l-0.09-0.25l11.57-4.09
	c0.95-0.32,1.46-1.36,1.13-2.31l0,0c-0.32-0.95-1.36-1.46-2.31-1.13l-12.32,4.35l-0.09-0.25l10.52-3.73
	c0.95-0.32,1.46-1.36,1.13-2.31l0,0c-0.32-0.95-1.36-1.46-2.31-1.13l-13.34,4.72l3.66-4.06c0.66-0.76,0.58-1.9-0.17-2.56l0,0
	c-0.76-0.66-1.9-0.58-2.56,0.17l-6.1,6.85c-1.52,1.74-2.76,3.71-3.68,5.84l0,0l-12.87,3.28l-22.21,4.97l-4.87,4.62l0.54,3.22
	c0.84,5,6,8.03,10.78,6.32l35.29-12.65l0,0c1.34,0.11,2.69-0.04,3.98-0.45L74.4,114.53L74.4,114.53z"/><rect x="79.24" y="104.73" transform="matrix(0.9382 -0.3461 0.3461 0.9382 -31.9983 34.1461)" class="st14" width="0.75" height="3.89"/><polygon class="st11" points="40.11,113.92 23.51,118.18 17.9,82.87 34.86,81.4 "/><path class="st9" d="M16.04,78.54c-0.56-7.42,5-13.9,12.42-14.46c7.42-0.56,13.89,5.01,14.45,12.43s-3.53,21.78-3.53,21.78
	S16.6,85.97,16.04,78.54"/><path d="M59.58,41.2c0.49-3.43,4.82-4.89,7.48-3.28c-0.16,0.26-0.43,0.79-0.6,1.05c-0.59-0.36-3.68-1.59-6.46,1.74
	C59.84,40.92,59.82,41,59.58,41.2"/><polyline class="st7" points="115.47,87.89 121.45,84.73 123.35,88.13 115.47,87.89 "/><g id="Ebene_3"/><g id="Ebene_4"/></svg>