<?xml version="1.0" encoding="UTF-8"?><svg id="sandwich" xmlns="http://www.w3.org/2000/svg" viewBox="0 0 160 160"><defs><style>.cls-1{fill:#271a4d;}.cls-2{fill:#b4c489;}.cls-3{fill:#ffc587;}.cls-4{fill:#ff0076;}.cls-5{fill:#ffae00;}.cls-6{fill:#dfcac1;}.cls-7{fill:#e7e4d6;}</style></defs><rect class="cls-7" x="117.64" y="35.9" width="1.41" height="62.35"/><circle class="cls-1" cx="118.35" cy="107.46" r="9.21"/><circle class="cls-7" cx="116.1" cy="112.58" r=".66"/><circle class="cls-7" cx="120.6" cy="112.58" r=".66"/><path class="cls-7" d="M80.45,125.55h0c-.86-.16-1.45-.98-1.32-1.85l6.73-56.68,9.57,1.82-13.09,55.51c-.21.84-1.04,1.37-1.89,1.21Z"/><path class="cls-1" d="M87.86,19.82c-6.08-1.16-12.16,3.96-13.58,11.42-1.13,5.94,1.03,11.57,5.03,14.21h0c1.02.68,2.17,1.16,3.41,1.39,5.66,1.08,11.32-3.27,13.21-9.9.14-.49.27-1,.36-1.52,1.42-7.46-2.36-14.45-8.45-15.6ZM75.91,31.73c1.19-6.29,6.07-10.64,10.88-9.73s7.76,6.75,6.57,13.04c-1.19,6.29-5.42,10.73-10.24,9.81-4.82-.92-8.4-6.84-7.2-13.13Z"/><path class="cls-4" d="M86.79,22c-4.82-.91-9.69,3.44-10.88,9.73-1.19,6.29,2.38,12.21,7.2,13.13,4.82.92,9.05-3.53,10.24-9.81,1.19-6.29-1.74-12.12-6.57-13.04ZM83.45,43.32c-3.76-.71-7.14-5.82-6.27-10.96.92-5.51,5.6-10.09,9.79-8.91,3.68,1.03,5.93,6.5,4.96,11.62-.97,5.12-4.72,8.97-8.48,8.26Z"/><path class="cls-1" d="M77.35,43.76s7.11,7.15,7.14,11.73c.02,2.82-.46,7.31-.84,10.33-.2,1.6,1.18,2.95,2.78,2.72l4.21-.61,5.31-30.99-5.32,6.37s-3.38,4.83-13.28.45Z"/><circle class="cls-4" cx="89.54" cy="73.77" r="3.72"/><path class="cls-4" d="M71.83,113.74l.33-4.73,5.77.4-.33,4.73c-.03.4-.37.7-.77.67l-4.33-.3c-.4-.03-.7-.37-.67-.77Z"/><path class="cls-6" d="M71.82,108.64l.23-3.31s1.13-.74,3.31-.59,3.2,1.04,3.2,1.04l-.23,3.31c-.03.44-.41.77-.85.74l-4.93-.34c-.43-.03-.77-.41-.74-.85Z"/><path class="cls-5" d="M72.05,105.33l4.34-62.7,6.51.45-4.34,62.7s-1.01-.89-3.2-1.04-3.31.59-3.31.59Z"/><path class="cls-3" d="M76.38,42.63l1.72-4.05s.71-.51,1.86-.43,1.78.69,1.78.69l1.15,4.25-6.51-.45Z"/><path class="cls-1" d="M78.1,38.58l2.19-5.15,1.46,5.4s-.63-.61-1.78-.69-1.86.43-1.86.43Z"/><path class="cls-4" d="M74.81,110.2l-.66-4.69,5.73-.8.66,4.69c.06.4-.22.76-.61.81l-4.3.6c-.4.06-.76-.22-.81-.61Z"/><path class="cls-6" d="M73.74,105.2l-.46-3.28s.95-.96,3.12-1.26,3.34.36,3.34.36l.46,3.28c.06.43-.24.83-.68.89l-4.89.68c-.43.06-.83-.24-.89-.68Z"/><path class="cls-5" d="M73.28,101.92l-8.69-62.24,6.46-.9,8.69,62.24s-1.18-.66-3.34-.36-3.12,1.26-3.12,1.26Z"/><path class="cls-3" d="M64.59,39.68l.85-4.32s.59-.65,1.73-.81,1.88.3,1.88.3l2,3.92-6.46.9Z"/><path class="cls-1" d="M65.44,35.35l1.08-5.49,2.54,4.99s-.74-.46-1.88-.3-1.73.81-1.73.81Z"/><path class="cls-4" d="M64.81,49.83l.67,4.69-5.73.81-.67-4.69c-.06-.39.22-.76.61-.82l4.3-.61c.39-.06.76.22.82.61Z"/><polyline class="cls-7" points="59.9 59.02 59.32 54.96 65.78 54.04 66.36 58.1"/><path class="cls-5" d="M66.36,58.1l8.83,62.22-6.46.92-8.83-62.22s1.07-.15,3.24-.46,3.22-.46,3.22-.46Z"/><path class="cls-3" d="M75.19,120.33l-.84,4.32s-.59.65-1.73.81-1.88-.3-1.88-.3l-2.01-3.92,6.46-.92Z"/><path class="cls-1" d="M74.35,124.65l-1.07,5.49-2.55-4.98s.74.46,1.88.3,1.73-.81,1.73-.81Z"/><rect class="cls-7" x="38.54" y="16.69" width="19.63" height="115.03" rx="2.88" ry="2.88" transform="translate(-13.59 10.9) rotate(-11.28)"/><line class="cls-1" x1="29.44" y1="29.24" x2="39.06" y2="27.32"/><path class="cls-1" d="M38.74,27.8l-9.22,1.84-.16-.81,9.22-1.84c.22-.04.44.1.49.32h0c.04.22-.1.44-.32.49Z"/><line class="cls-1" x1="31.11" y1="37.63" x2="40.74" y2="35.71"/><path class="cls-1" d="M40.41,36.19l-9.22,1.84-.16-.81,9.22-1.84c.22-.04.44.1.49.32h0c.04.22-.1.44-.32.49Z"/><line class="cls-1" x1="32.79" y1="46.02" x2="42.41" y2="44.1"/><path class="cls-1" d="M42.09,44.59l-9.22,1.84-.16-.81,9.22-1.84c.22-.04.44.1.49.32h0c.04.22-.1.44-.32.49Z"/><line class="cls-1" x1="34.46" y1="54.41" x2="44.09" y2="52.49"/><path class="cls-1" d="M43.76,52.98l-9.22,1.84-.16-.81,9.22-1.84c.22-.04.44.1.49.32h0c.04.22-.1.44-.32.49Z"/><line class="cls-1" x1="36.14" y1="62.8" x2="45.76" y2="60.88"/><path class="cls-1" d="M45.44,61.37l-9.22,1.84-.16-.81,9.22-1.84c.22-.04.44.1.49.32h0c.04.22-.1.44-.32.49Z"/><line class="cls-1" x1="37.81" y1="71.2" x2="47.44" y2="69.28"/><path class="cls-1" d="M47.11,69.76l-9.22,1.84-.16-.81,9.22-1.84c.22-.04.44.1.49.32h0c.04.22-.1.44-.32.49Z"/><line class="cls-1" x1="39.48" y1="79.59" x2="49.11" y2="77.67"/><path class="cls-1" d="M48.79,78.15l-9.22,1.84-.16-.81,9.22-1.84c.22-.04.44.1.49.32h0c.04.22-.1.44-.32.49Z"/><line class="cls-1" x1="41.16" y1="87.98" x2="50.78" y2="86.06"/><path class="cls-1" d="M50.46,86.54l-9.22,1.84-.16-.81,9.22-1.84c.22-.04.44.1.49.32h0c.04.22-.1.44-.32.49Z"/><line class="cls-1" x1="42.83" y1="96.37" x2="52.46" y2="94.45"/><path class="cls-1" d="M52.13,94.94l-9.22,1.84-.16-.81,9.22-1.84c.22-.04.44.1.49.32h0c.04.22-.1.44-.32.49Z"/><line class="cls-1" x1="44.51" y1="104.76" x2="54.13" y2="102.84"/><path class="cls-1" d="M53.81,103.33l-9.22,1.84-.16-.81,9.22-1.84c.22-.04.44.1.49.32h0c.04.22-.1.44-.32.49Z"/><line class="cls-1" x1="46.18" y1="113.15" x2="55.81" y2="111.23"/><path class="cls-1" d="M55.48,111.72l-9.22,1.84-.16-.81,9.22-1.84c.22-.04.44.1.49.32h0c.04.22-.1.44-.32.49Z"/><line class="cls-1" x1="47.86" y1="121.55" x2="57.48" y2="119.63"/><path class="cls-1" d="M57.16,120.11l-9.22,1.84-.16-.81,9.22-1.84c.22-.04.44.1.49.32h0c.04.22-.1.44-.32.49Z"/><path class="cls-2" d="M93.59,144.28h-52.84l-5.5-65.42c-.17-2.07,1.7-3.83,4.06-3.83h54.93c2.38,0,4.25,1.78,4.06,3.85l-4.72,65.4Z"/><path class="cls-7" d="M59.9,59.02c.22-.03,6.46-.92,6.46-.92"/><path class="cls-1" d="M97.17,35.6c-.1.52-.17,1.04-.21,1.55-.65,6.86,3.03,12.98,8.7,14.04,1.24.23,2.48.21,3.69-.05h0c4.68-1,8.75-5.46,9.86-11.4,1.4-7.46-2.4-14.44-8.48-15.58s-12.15,3.99-13.55,11.45ZM106.02,49.19c-4.82-.91-7.14-6.58-5.96-12.87,1.18-6.29,6.05-10.65,10.87-9.75s7.77,6.74,6.59,13.02-6.67,10.5-11.49,9.6Z"/><path class="cls-4" d="M100.06,36.31c-1.18,6.29,1.14,11.97,5.96,12.87s10.31-3.31,11.49-9.6-1.77-12.12-6.59-13.02-9.69,3.46-10.87,9.75ZM101.38,36.85c.96-5.13,5.05-9.39,8.85-9.01,4.34.43,7.02,6.41,5.87,11.87-1.07,5.1-6.08,8.63-9.84,7.92s-5.84-5.66-4.88-10.78Z"/><path class="cls-1" d="M111.78,50.27s-9.23,4.06-10.93,8.32c-1.05,2.62-2.23,6.97-2.98,9.92-.4,1.56-2.18,2.32-3.58,1.52l-3.7-2.1,6.36-30.79,2.63,7.87s1.38,5.73,12.2,5.26Z"/><path class="cls-1" d="M110.46,105.85c-3.63-.57-7.19.92-9.31,3.92-.23.33-.06.83.27,1.03.38.22.79.06,1.03-.27,1.7-2.4,4.71-3.69,7.62-3.23.4.06.81-.1.92-.52.1-.36-.12-.86-.52-.92h0Z"/><path class="cls-1" d="M110.62,102.77c-2.85-2.32-6.65-2.82-10.01-1.32-.37.17-.46.7-.27,1.03.22.38.66.44,1.03.27,2.68-1.2,5.91-.78,8.19,1.09.31.26.75.31,1.06,0,.26-.26.32-.8,0-1.06h0Z"/><path class="cls-1" d="M110.57,109.21c-3.41,1.32-5.73,4.38-6.07,8.02-.04.4.37.75.75.75.44,0,.71-.35.75-.75.28-2.92,2.24-5.51,4.97-6.57.38-.15.64-.5.52-.92-.1-.36-.54-.67-.92-.52h0Z"/><path class="cls-1" d="M111.9,119.17c-.11-2.21.67-4.34,2.21-5.94.67-.7-.39-1.76-1.06-1.06-1.8,1.87-2.77,4.41-2.64,7.01.02.4.33.75.75.75.39,0,.77-.34.75-.75h0Z"/><path class="cls-1" d="M126.08,107.3c2.91-.46,5.92.83,7.62,3.23.23.33.66.49,1.03.27.33-.19.5-.69.27-1.03-2.12-3-5.69-4.49-9.31-3.92-.4.06-.62.56-.52.92.12.43.52.59.92.52h0Z"/><path class="cls-1" d="M126.57,103.83c2.28-1.86,5.5-2.29,8.19-1.09.37.17.81.11,1.03-.27.19-.32.1-.86-.27-1.03-3.35-1.5-7.16-1-10.01,1.32-.31.26-.27.79,0,1.06.31.31.75.26,1.06,0h0Z"/><path class="cls-1" d="M125.17,110.66c2.73,1.06,4.69,3.65,4.97,6.57.04.4.32.75.75.75.38,0,.79-.34.75-.75-.35-3.64-2.67-6.7-6.07-8.02-.38-.15-.82.16-.92.52-.12.42.14.78.52.92h0Z"/><path class="cls-1" d="M125.73,119.17c.13-2.6-.85-5.13-2.64-7.01-.67-.7-1.73.36-1.06,1.06,1.54,1.6,2.31,3.73,2.21,5.94-.02.4.36.75.75.75.42,0,.73-.34.75-.75h0Z"/></svg>