<?xml version="1.0" encoding="utf-8"?><!--Generator: Adobe Illustrator 28.0.0, SVG Export Plug-In . SVG Version: 6.00 Build 0)--><svg version="1.1" xmlns="http://www.w3.org/2000/svg" xmlns:xlink="http://www.w3.org/1999/xlink" x="0px" y="0px" viewBox="0 0 160 160" style="enable-background:new 0 0 160 160;" xml:space="preserve"><style type="text/css">.st0{fill:#B0C2E4;}
	.st1{fill:#E5F0FF;}
	.st2{fill:#4B7CFD;}
	.st3{fill:#254471;}
	.st4{fill:#E4EFFF;}
	.st5{fill:#F7C7A1;}
	.st6{fill:#F7E5CD;}
	.st7{fill:#4B7CFE;}
	.st8{fill:#891229;}
	.st9{fill:#F7931E;}
	.st10{fill:#FBB03B;}
	.st11{fill:#FBB03B;stroke:#F7931E;stroke-width:0.9964;stroke-miterlimit:10;}
	.st12{fill:#FBB03B;stroke:#F7931E;stroke-width:0.7843;stroke-miterlimit:10;}
	.st13{clip-path:url(#XMLID_00000148628598403168564340000000313553449781285559_);fill:#E73245;}
	
		.st14{clip-path:url(#XMLID_00000148628598403168564340000000313553449781285559_);fill:#E73245;stroke:#891229;stroke-width:0.4982;stroke-miterlimit:10;stroke-dasharray:2.9891,1.9927;}
	.st15{clip-path:url(#XMLID_00000148628598403168564340000000313553449781285559_);}
	.st16{fill:#E73245;}
	.st17{fill:none;stroke:#891229;stroke-width:0.4982;stroke-miterlimit:10;stroke-dasharray:3.0453,2.0302;}
	.st18{clip-path:url(#XMLID_00000148628598403168564340000000313553449781285559_);fill:#D8CBC5;}</style><g id="Design"><g><g><rect x="31.9" y="25.1" transform="matrix(0.8481 -0.5299 0.5299 0.8481 -23.5826 34.4744)" class="st0" width="32.9" height="66.5"/><rect x="17.9" y="27.6" transform="matrix(0.8481 -0.5299 0.5299 0.8481 -13.8758 23.6963)" class="st1" width="32.9" height="16.9"/><rect x="43.8" y="28.7" transform="matrix(0.8481 -0.5299 0.5299 0.8481 -10.5549 29.6038)" class="st2" width="5.2" height="9"/><g><path class="st3" d="M22.9,42.4c0,0.1,0,0.1,0,0.2l-0.5,0.3c-0.1,0-0.1,0-0.2,0l-1.6-2.6c-0.1-0.1,0-0.1,0-0.2l0.3-0.2
					c1.5-0.9,3.3,0.7,4.2,0.1c0.4-0.3,0.4-0.7,0.2-1c-0.2-0.3-0.5-0.6-0.9-0.7c-0.1,0-0.1-0.1-0.1-0.2l0.2-0.4c0-0.1,0.1-0.1,0.2,0
					c0.4,0.2,0.9,0.5,1.2,1c0.3,0.5,0.4,0.9,0.3,1.3c-0.1,0.3-0.3,0.6-0.7,0.8c-1.1,0.7-3.1-0.7-4-0.2L22.9,42.4z"/><path class="st3" d="M25,42.4c1.6-1,2.8-0.9,3.5,0.1c0.6,1,0.2,2-1.3,3c-1.6,1-2.8,0.9-3.5-0.1C23.1,44.4,23.5,43.3,25,42.4z
					 M26.7,44.7c1.1-0.7,1.5-1.3,1.2-1.8c-0.3-0.6-1.1-0.4-2.3,0.3c-1.1,0.7-1.5,1.3-1.2,1.8C24.7,45.5,25.5,45.4,26.7,44.7z"/></g><path class="st4" d="M44.8,41.1c0.1-1.1,0.3-2.2,0.7-3.2c1.1-2.7,3.1-4.7,5.7-5.9c2.6-1.1,5.5-1.2,8.2-0.1
				c2.7,1.1,4.7,3.1,5.9,5.7c2.3,5.4-0.2,11.7-5.6,14l0,0C54.3,54,48,51.5,45.7,46C45,44.5,44.7,42.8,44.8,41.1z M65.3,42.5
				c0.1-1.5-0.1-3.1-0.8-4.6c-1-2.4-3-4.3-5.4-5.3c-2.4-1-5.1-0.9-7.5,0.1c-2.4,1-4.3,3-5.3,5.4c-1,2.4-0.9,5.1,0.1,7.5
				c2.1,5,7.9,7.3,12.9,5.2l0,0C62.9,49.4,65.1,46.1,65.3,42.5z"/><g><path class="st4" d="M54.9,43.6c-0.2,0.1-0.2,0-0.3-0.1l-1-2.4c-1,0.7-1.5,1.7-0.9,3c0.2,0.6,0.6,1,1,1.4
					c0.1,0.2,0.2,0.3,0.1,0.4l-0.6,0.6c-0.2,0.2-0.3,0.2-0.4,0.1c-0.6-0.5-1.2-1.2-1.6-2.1c-0.8-2-0.1-3.7,1.7-5l-0.4-0.8
					c-0.1-0.1,0-0.2,0.1-0.3l0.6-0.3c0.2-0.1,0.2,0,0.3,0.1l0.3,0.7l0.4-0.2c0.2-0.1,0.3-0.1,0.5-0.2l-0.3-0.7
					c-0.1-0.1,0-0.2,0.1-0.3l0.6-0.3c0.2-0.1,0.2,0,0.3,0.1l0.3,0.8c2.1-0.4,4,0.2,4.9,2.2c0.4,1,0.5,1.8,0.3,2.5
					c0,0.2-0.1,0.3-0.3,0.3L60,43c-0.2,0-0.3-0.1-0.3-0.3c0.1-0.6,0.1-1-0.2-1.6C59,40,58,39.5,56.6,39.8l1.1,2.5
					c0.1,0.1,0,0.2-0.1,0.3l-0.6,0.3c-0.2,0.1-0.2,0-0.3-0.1l-1.1-2.6c-0.1,0-0.3,0.1-0.4,0.2l-0.4,0.2l1.1,2.5
					c0.1,0.1,0,0.2-0.1,0.3L54.9,43.6z"/></g><g><path class="st3" d="M64.3,74.2c0.1,0.1,0,0.2-0.1,0.3l-0.8,0.5c-0.1,0.1-0.2,0.1-0.3-0.1l-2.6-4.2c-0.1-0.1-0.1-0.2,0-0.3
					l0.5-0.3c2.4-1.5,5.3,1.1,6.8,0.1c0.7-0.4,0.7-1.1,0.3-1.7c-0.3-0.5-0.9-0.9-1.4-1.2c-0.1-0.1-0.2-0.2-0.1-0.3l0.3-0.7
					c0.1-0.2,0.2-0.1,0.4-0.1c0.7,0.3,1.5,0.9,2,1.6c0.5,0.8,0.7,1.5,0.5,2.2c-0.1,0.5-0.5,1-1.1,1.4c-1.9,1.2-5-1.1-6.4-0.4
					L64.3,74.2z"/><path class="st3" d="M67.8,74.1c2.6-1.6,4.6-1.5,5.7,0.2c1,1.6,0.4,3.3-2.1,4.8c-2.6,1.6-4.6,1.5-5.7-0.2
					C64.7,77.4,65.3,75.7,67.8,74.1z M70.4,77.9c1.8-1.1,2.4-2.1,1.9-2.9c-0.6-0.9-1.9-0.7-3.7,0.4c-1.8,1.1-2.4,2.1-1.9,3
					C67.3,79.2,68.6,79,70.4,77.9z"/></g><rect x="25.3" y="29.2" transform="matrix(6.900764e-02 -0.9976 0.9976 6.900764e-02 1.495 92.8297)" class="st5" width="50.4" height="32.9"/><rect x="43.3" y="10.9" transform="matrix(6.909146e-02 -0.9976 0.9976 6.909146e-02 20.8673 77.0991)" class="st6" width="16.9" height="32.9"/><rect x="58.6" y="29.5" transform="matrix(6.909146e-02 -0.9976 0.9976 6.909146e-02 26.7134 92.8278)" class="st7" width="9" height="5.2"/><g><path class="st8" d="M41.4,24.6c0,0.5-0.2,0.9-0.5,1.2c-0.3,0.2-0.7,0.4-1.2,0.3c-1.2-0.1-1.8-1-1.7-2.1c0-0.5,0.2-1,0.4-1.4
					c0-0.1,0.1-0.1,0.2,0l0.4,0.2c0.1,0,0.1,0.1,0,0.2c-0.2,0.3-0.3,0.7-0.3,1.1c0,0.7,0.4,1.1,0.9,1.1c0.7,0,1-0.3,1-0.9
					c0-0.4,0-0.7-0.1-1.1c0-0.1,0-0.1,0.1-0.1l2.7,0.2c0.1,0,0.1,0,0.1,0.1L43.4,26c0,0.1,0,0.1-0.1,0.1l-0.6,0
					c-0.1,0-0.1,0-0.1-0.1l0.1-2l-1.3-0.1C41.4,24.1,41.4,24.4,41.4,24.6z"/><path class="st8" d="M40.5,27c1.9,0.1,2.8,0.9,2.7,2.1c-0.1,1.1-1,1.8-2.8,1.6c-1.9-0.1-2.8-0.9-2.7-2.1
					C37.8,27.5,38.7,26.9,40.5,27z M40.5,29.9c1.3,0.1,2-0.2,2-0.8c0-0.7-0.7-1-2-1.1c-1.3-0.1-2,0.2-2,0.8
					C38.4,29.4,39.1,29.8,40.5,29.9z"/></g></g><g><path class="st9" d="M28.7,44.6c-5.6,5.9-5.3,15.2,0.5,20.8c5.9,5.6,15.2,5.3,20.8-0.6c5.6-5.9,5.3-15.2-0.5-20.8
				C43.6,38.5,34.3,38.7,28.7,44.6"/><path class="st10" d="M30.9,46.7c-4.4,4.7-4.2,12.1,0.4,16.5s12.1,4.2,16.5-0.5c4.4-4.7,4.2-12.1-0.4-16.5S35.4,42,30.9,46.7"/></g><g><circle class="st11" cx="56.7" cy="47.9" r="10.7"/><path class="st12" d="M56.7,55.5c-4.2,0-7.6-3.4-7.6-7.6s3.4-7.6,7.6-7.6c4.2,0,7.6,3.4,7.6,7.6S60.9,55.5,56.7,55.5z"/></g><g><g><defs><path id="XMLID_00000178205783779729850590000014811987716082364551_" d="M113,142.6l-48.1-17.7c-7.2-2.6-13.1-7.9-16.3-14.9
						L26.8,63.7L68.7,44l18.7,39.8l41.3,15.3c12,4.3,18.3,17.6,13.9,29.6l0,0C138.3,140.7,125,146.9,113,142.6z"/></defs><use xlink:href="#XMLID_00000178205783779729850590000014811987716082364551_" style="overflow:visible;fill:#E6E3DA;"/><clipPath id="XMLID_00000012473203019941392070000017747578752267687313_"><use xlink:href="#XMLID_00000178205783779729850590000014811987716082364551_" style="overflow:visible;"/></clipPath><circle style="clip-path:url(#XMLID_00000012473203019941392070000017747578752267687313_);fill:#E73245;" cx="142.6" cy="128.7" r="29.6"/><path style="clip-path:url(#XMLID_00000012473203019941392070000017747578752267687313_);fill:#E73245;stroke:#891229;stroke-width:0.4982;stroke-miterlimit:10;stroke-dasharray:2.9891,1.9927;" d="
					M142.6,155.3c-10.3,0-19.7-6-24.1-15.3c-3-6.4-3.4-13.6-0.9-20.3c2.4-6.7,7.3-12,13.7-15c3.6-1.7,7.4-2.5,11.3-2.5
					c10.3,0,19.7,6,24.1,15.3c3,6.4,3.4,13.6,0.9,20.3c-2.4,6.7-7.3,12-13.7,15C150.3,154.4,146.5,155.3,142.6,155.3z"/><circle style="clip-path:url(#XMLID_00000012473203019941392070000017747578752267687313_);fill:#E73245;" cx="54" cy="116.3" r="18.3"/><g style="clip-path:url(#XMLID_00000012473203019941392070000017747578752267687313_);"><path class="st16" d="M54,131.6c-5.9,0-11.4-3.5-13.9-8.8c-3.6-7.7-0.3-16.8,7.4-20.4c2.1-1,4.3-1.5,6.5-1.5
						c5.9,0,11.4,3.5,13.9,8.8c3.6,7.7,0.3,16.8-7.4,20.4C58.5,131.1,56.3,131.6,54,131.6z"/><path class="st17" d="M54,131.6c-5.9,0-11.4-3.5-13.9-8.8c-3.6-7.7-0.3-16.8,7.4-20.4c2.1-1,4.3-1.5,6.5-1.5
						c5.9,0,11.4,3.5,13.9,8.8c3.6,7.7,0.3,16.8-7.4,20.4C58.5,131.1,56.3,131.6,54,131.6z"/></g><path style="clip-path:url(#XMLID_00000012473203019941392070000017747578752267687313_);fill:#D8CBC5;" d="M71.6,66.4
					c-2.1,3-4.3,6.8-2.9,10.2c0.2,0.4,0.4,0.8,0.8,1c0.7,0.3,1.3-0.3,2-0.6c1.9-0.7,3.8,1.3,4,3.3c0.2,2-0.7,3.9-1.2,5.9
					c-0.5,2.1-0.6,4.3-0.2,6.4c0.4,2.1,1.6,4.5,3.8,4.7c1.7,0.2,3.2-1.1,4.8-1.8c4.3-1.9,9.3,0.3,13.3,2.8c4,2.5,8.4,5.4,13.1,4.7
					c5.4-0.8,9.1-6.6,8.6-12.1s-4.4-10.1-9.3-12.7c-2-1-4.1-1.8-5.9-3.1c-4.4-3.1-6.2-8.5-8.5-13.3c-1.6-3.3-5.9-10.6-10.5-9.9
					C79.6,52.5,73.8,63.3,71.6,66.4z"/><path style="clip-path:url(#XMLID_00000012473203019941392070000017747578752267687313_);fill:#D8CBC5;" d="M53.7,58.6
					c1,1.9,1.7,4.3,0.5,6.1c-0.9,1.4-2.6,1.9-4.1,2.7c-3.4,1.7-6.1,4.8-7.2,8.4c-0.7,2.1-0.9,4.4-2,6.3c-1.8,3-5.4,4.2-8.7,5.2
					c-1,0.3-2,0.6-3,0.3c-0.7-0.2-1.3-0.7-1.9-1.2c-5.3-5-8.3-11.9-10.6-18.9c-1.3-3.9-2.3-8.4-0.2-11.9c1.9-3.2,5.7-4.6,9.2-5.7
					c5.3-1.8,10.3-4.7,15.7-2.8C46.8,48.8,51.2,53.9,53.7,58.6z"/></g></g></g></g><g id="stramien"/></svg>