<?xml version="1.0" encoding="utf-8"?><!--Generator: Adobe Illustrator 27.8.0, SVG Export Plug-In . SVG Version: 6.00 Build 0)--><svg version="1.1" xmlns="http://www.w3.org/2000/svg" xmlns:xlink="http://www.w3.org/1999/xlink" x="0px" y="0px" viewBox="0 0 160 160" style="enable-background:new 0 0 160 160;" xml:space="preserve"><style type="text/css">.st0{fill:#FFC6AD;}
	.st1{fill:#F7931E;}
	.st2{fill:#8B181D;}
	.st3{fill:#F5836D;}
	.st4{fill:#FFA28F;}
	.st5{fill:#ABB8B9;}
	.st6{fill:#FBB03B;}
	.st7{fill:#F7E5CD;}
	.st8{fill:#BAC09A;}
	.st9{fill:#463EC5;}
	.st10{fill:#693725;}
	.st11{fill:#FAA332;}
	.st12{fill:#E73245;}
	.st13{fill:#8F411F;}
	.st14{fill:#F68D3D;}
	.st15{fill:#569B7B;}
	.st16{fill:#FFFFFF;}
	.st17{fill:#AACDE5;}
	.st18{fill:#232144;}
	.st19{fill:#A86554;}
	.st20{fill:#FFBD7A;}
	.st21{fill:#E6E3DA;}
	.st22{fill:#4B7CFE;}
	.st23{fill:#D8CBC5;}
	.st24{fill:#FF6200;}
	.st25{fill:#F0A86B;}
	.st26{fill:#E3944F;}
	.st27{fill:#191C15;}
	.st28{fill:#420F0F;}
	.st29{fill:#7D441C;}
	.st30{fill:none;stroke:#000000;stroke-width:0.6944;stroke-miterlimit:10;}
	.st31{fill:#01464D;}
	.st32{fill:#7A2F37;}
	.st33{fill:#9E3F39;}
	.st34{fill:none;stroke:#ABB8B9;stroke-width:3;stroke-miterlimit:10;}
	.st35{fill:#891229;}
	.st36{fill:#7070FF;}
	.st37{fill:#32785A;}
	.st38{fill:#D3E8F3;}
	.st39{fill:#006931;}
	.st40{clip-path:url(#SVGID_00000107581695088852449810000010210066528015498163_);}
	.st41{fill:#9A4039;}
	.st42{fill:none;stroke:#232144;stroke-width:2;stroke-miterlimit:10;}
	.st43{fill:#F5B091;}
	.st44{fill:none;stroke:#000000;stroke-width:1.3429;stroke-miterlimit:10;}
	.st45{fill:#D93B34;}
	.st46{fill:#FE5E57;}
	.st47{clip-path:url(#XMLID_00000147197929019027924660000013625538091410145982_);fill:#F7931E;}
	.st48{fill:#763427;}</style><g id="stramien"/><g id="Design"><path class="st41" d="M129.8,75.4c0,0,10.6-24.7,12.1-28.3c2-4.8-4.5-8.5-7-4.1c0.6-1.2,1.2-2.5,1.8-3.5c2.5-4.5-4.5-9.3-7.6-3.7
		c-0.2,0.4-2.1,3.1-2.1,3.1s2.2-4.1,2.9-5.6c2.3-4.8-5.2-8.5-7.8-3.2c-1.5,3.1-7.4,13.9-10,18.6c-0.3-0.6-2.2-4-3.1-5.2
		c-1.7-2.3-6.3-7.2-13.5-6.3c-5.3,0.7-13,6.4-14.7,8.1c-3.4,3.2,0.3,10.9,5.2,6.4c14.6-13.5,20.5,7.1,17.8,15.4
		c-0.7,2.8-3.4,8.4-6.4,11.9c-1,1.1-5.5,5.2-8.4,7.1c-4.3,2.7-7.2,2.9-8.3,4.8c-1,1.8-1,4.7,0.5,6c2.6,2.3,7.2,0.3,9.2-0.4
		c3.3-1.2,6.3-3.3,8.9-5.6l4.7,43.5l0,0.4h40L129.8,75.4z"/><g><polygon class="st48" points="117.6,58.1 117.4,58 127.3,38 127.6,38.1 		"/></g><g><rect x="118.1" y="52.7" transform="matrix(0.4692 -0.8831 0.8831 0.4692 22.2596 142.6332)" class="st48" width="23.3" height="0.3"/></g><path class="st41" d="M71.1,86c-2.9-1.8-7.4-6-8.4-7.1c-3.1-3.5-5.4-9.3-6.1-12.1c-2.8-8.8,2.9-28.7,17.4-15.2
		c4.9,4.5,8.6-3.2,5.2-6.4c-1.7-1.6-9.4-7.4-14.7-8.1c-7.2-0.9-11.8,3.9-13.5,6.3c-0.9,1.2-2.8,4.6-3.1,5.2
		c-2.6-4.7-8.4-15.4-10-18.6c-2.6-5.4-10.1-1.7-7.8,3.2c0.7,1.5,2.9,5.6,2.9,5.6s-1.9-2.8-2.1-3.1c-3.1-5.6-10.1-0.7-7.6,3.7
		c0.6,1.1,1.2,2.3,1.8,3.5c-2.5-4.4-8.9-0.7-7,4.1c1.4,3.6,12.1,28.3,12.1,28.3l-14.1,59.3h40l0-0.4l4.7-43.5
		c2.6,2.3,5.6,4.4,8.9,5.6c2,0.8,6.5,2.7,9.2,0.4c1.5-1.3,1.5-4.2,0.5-6C78.3,88.9,75.4,88.7,71.1,86z"/><g><polygon class="st48" points="42.5,58.1 32.5,38.1 32.8,38 42.8,58 		"/></g><g><rect x="30.2" y="41.2" transform="matrix(0.8835 -0.4684 0.4684 0.8835 -21.199 20.3634)" class="st48" width="0.3" height="23.3"/></g></g></svg>