<?xml version="1.0" encoding="UTF-8"?><svg id="Ring" xmlns="http://www.w3.org/2000/svg" version="1.1" viewBox="0 0 160 160"><defs><style>.cls-1 {
        fill: #fbb032;
      }

      .cls-1, .cls-2, .cls-3 {
        stroke-width: 0px;
      }

      .cls-2 {
        fill: #e73245;
      }

      .cls-3 {
        fill: #fad9e8;
      }</style></defs><polygon class="cls-2" points="76.48 38.58 79.61 32.28 73.24 32.28 76.48 38.58"/><polygon class="cls-2" points="80.43 32.28 84.13 38.65 87.19 32.28 80.43 32.28"/><polygon class="cls-2" points="80.04 33.04 76.87 39.34 83.75 39.34 80.04 33.04"/><polygon class="cls-2" points="72.58 32.61 67.56 39.34 76.06 39.34 72.58 32.61"/><polygon class="cls-2" points="87.77 32.75 84.6 39.34 92.44 39.34 87.77 32.75"/><polygon class="cls-2" points="76.91 39.92 80.15 52.02 83.59 39.89 76.91 39.92"/><polygon class="cls-2" points="76.17 39.92 67.56 39.96 79.64 52.81 76.17 39.92"/><polygon class="cls-2" points="84.33 39.88 80.7 51.5 92.44 39.85 84.33 39.88"/><path class="cls-1" d="M84.6,26.09l.72,1.86c.39.75.97,1.37,1.69,1.78l1.81.76-1.81.76c-.71.41-1.3,1.03-1.69,1.78l-.72,1.86-.72-1.86c-.39-.75-.97-1.37-1.69-1.78l-1.81-.76,1.81-.76c.71-.41,1.3-1.03,1.69-1.78l.72-1.86Z"/><path class="cls-1" d="M77.85,20.95l.42,1.09c.23.44.57.8.99,1.04l1.06.44-1.06.44c-.42.24-.76.6-.99,1.04l-.42,1.09-.42-1.09c-.23-.44-.57-.8-.99-1.04l-1.06-.44,1.06-.44c.42-.24.76-.6.99-1.04l.42-1.09Z"/><path class="cls-1" d="M80,47.11c-14.76,0-26.72,11.97-26.72,26.72s11.97,26.72,26.72,26.72,26.72-11.97,26.72-26.72-11.97-26.72-26.72-26.72ZM80,94.5c-11.41,0-20.67-9.25-20.67-20.67s9.25-20.67,20.67-20.67,20.67,9.25,20.67,20.67-9.25,20.67-20.67,20.67Z"/><rect class="cls-2" x="29.09" y="78.66" width="102.39" height="28.79" rx="10.27" ry="10.27"/><path class="cls-3" d="M23.02,89.97h113.95v26.71c0,9.6-7.8,17.4-17.4,17.4H40.42c-9.6,0-17.4-7.8-17.4-17.4v-26.71h0Z"/></svg>