<?xml version="1.0" encoding="utf-8"?><!--Generator: Adobe Illustrator 28.0.0, SVG Export Plug-In . SVG Version: 6.00 Build 0)--><svg version="1.1" xmlns="http://www.w3.org/2000/svg" xmlns:xlink="http://www.w3.org/1999/xlink" x="0px" y="0px" viewBox="0 0 160 160" style="enable-background:new 0 0 160 160;" xml:space="preserve"><style type="text/css">.st0{fill:#8F411F;}
	.st1{fill:#9F5621;}
	.st2{fill:#E73245;}
	.st3{fill:#FFCC94;}
	.st4{fill:none;stroke:#000000;stroke-width:0.3225;stroke-miterlimit:10;}
	.st5{fill:#FFD4A9;}
	.st6{fill:#171111;}</style><g id="Design"><g><g><path class="st0" d="M113.3,104l25.6-10.5c3.8-1.6,5.8-5.8,4.5-9.7l0,0c-1.3-4.1-5.7-6.4-9.9-5.2l-32.3,9.9L113.3,104z"/><path class="st1" d="M93,62.5l-2.3,6.4l-1.8-0.6c-1-0.4-2.2,0.2-2.5,1.3l0,0c-0.4,1,0.2,2.2,1.3,2.5l8.3,2.8l2.7,1.4l0,0l10,5.2
				l0,0l0,0l22.5,11.7c4.4,2.4,9.8,0.6,12-3.9c2.3-4.7-0.1-10.4-5.1-12L98.8,64.8c0,0-0.1-0.1-0.1-0.1c0,0,0,0,0,0"/></g><polyline class="st2" points="49.8,144 48.5,87.4 109,87.4 108.1,144 		"/><path class="st2" d="M102,116.4c0,0-9-11.4-8.5-18.8c0.6-7.4,7-12.9,14.4-12.4c7.4,0.6,12.9,7,12.4,14.4
			C119.7,107.1,102,116.4,102,116.4z"/><g><path class="st0" d="M46.7,104L21.1,93.6c-3.8-1.6-5.8-5.8-4.5-9.7l0,0c1.3-4.1,5.7-6.4,9.9-5.2l32.3,9.9L46.7,104z"/><path class="st1" d="M67,62.5l2.3,6.4l1.8-0.6c1-0.4,2.2,0.2,2.5,1.3l0,0c0.4,1-0.2,2.2-1.3,2.5l-8.3,2.8l-2.7,1.4l0,0l-10,5.2
				l0,0l0,0L28.8,93.2c-4.4,2.4-9.8,0.6-12-3.9c-2.3-4.7,0.1-10.4,5.1-12l39.3-12.4c0,0,0.1-0.1,0.1-0.1c0,0,0,0,0,0"/></g><path class="st2" d="M58,116.4c0,0,9-11.4,8.5-18.8c-0.6-7.4-7-12.9-14.4-12.4c-7.4,0.6-12.9,7-12.4,14.4
			C40.3,107.1,58,116.4,58,116.4z"/><rect x="65.2" y="60.7" class="st3" width="1" height="25.1"/><rect x="65.2" y="49.4" class="st3" width="1" height="25.1"/><rect x="93.1" y="49.4" class="st3" width="1" height="25.1"/><rect x="66.5" y="67.9" class="st3" width="1" height="25.1"/><rect x="67.8" y="64.8" class="st3" width="1" height="25.1"/><rect x="93.6" y="60.7" class="st3" width="1" height="25.1"/><rect x="92.4" y="67.9" class="st3" width="1" height="25.1"/><rect x="91.1" y="64.8" class="st3" width="1" height="25.1"/><path class="st1" d="M70.4,64.5c0-2.3-1.9-4.2-4.2-4.2c-2.3,0-4.2,1.9-4.2,4.2c0,2.3,1.9,4.2,4.2,4.2
			C68.6,68.7,70.4,66.8,70.4,64.5"/><path class="st1" d="M97.6,64.5c0-2.3-1.9-4.2-4.2-4.2c-2.3,0-4.2,1.9-4.2,4.2c0,2.3,1.9,4.2,4.2,4.2
			C95.7,68.7,97.6,66.8,97.6,64.5"/><path class="st0" d="M90.8,87.7V70.9l-21.6-0.1v16.9c0,4.4,3.6,7.9,7.9,7.9h5.7C87.3,95.7,90.8,92.1,90.8,87.7"/><path class="st1" d="M93.3,70.6V51.9c0-6-4.9-10.9-10.9-10.9h-5.2c-6,0-10.9,4.9-10.9,10.9v18.6c0,6,4.9,10.9,10.9,10.9h5.2
			C88.4,81.5,93.3,76.6,93.3,70.6"/><path d="M79.9,74.1c-0.8,0-1.6-0.3-2.1-0.9l0.4-0.4c0.4,0.5,1.1,0.7,1.9,0.7c0.6,0,1.2-0.3,1.5-0.7l0.4,0.3
			c-0.4,0.5-1.1,0.8-1.9,0.9C80,74.1,79.9,74.1,79.9,74.1"/><path class="st4" d="M79.9,74.1c-0.8,0-1.6-0.3-2.1-0.9l0.4-0.4c0.4,0.5,1.1,0.7,1.9,0.7c0.6,0,1.2-0.3,1.5-0.7l0.4,0.3
			c-0.4,0.5-1.1,0.8-1.9,0.9C80,74.1,79.9,74.1,79.9,74.1z"/><path d="M79.7,68.9c-0.7,0-1.2-0.3-1.7-0.6c-0.8-0.5-1.2-0.8-2.2,0.2l-0.6-0.6c1.4-1.4,2.4-0.8,3.2-0.3c0.4,0.3,0.8,0.5,1.2,0.5
			c0.4,0,0.8-0.2,1.2-0.5c0.8-0.5,1.7-1.1,3.3,0.3l-0.5,0.7c-1.1-0.9-1.6-0.6-2.3-0.2C80.9,68.6,80.4,68.9,79.7,68.9"/><path class="st5" d="M86.9,72.1H72.6v-1.3c0-0.8,0.7-1.5,1.5-1.5h11.3c0.8,0,1.5,0.7,1.5,1.5V72.1z"/><path class="st5" d="M73.7,54.7c1.8-0.8,3.9,0.5,4.1,2.4c0,0.1,0,0.1,0,0.2H67.4L73.7,54.7z"/><path class="st5" d="M86.1,54.7c-1.8-0.8-3.9,0.5-4.1,2.4c0,0.1,0,0.1,0,0.2h10.3L86.1,54.7z"/><path class="st6" d="M84.2,62.4c0.2,0.8,1.6,1.2,3.3,0.9c1.6-0.3,2.8-1.3,2.7-2.1c-0.2-0.8-1.6-1.2-3.3-0.9
			C85.2,60.7,84,61.6,84.2,62.4"/><path class="st6" d="M75.4,62.4c-0.2,0.8-1.6,1.2-3.3,0.9c-1.6-0.3-2.8-1.3-2.7-2.1c0.2-0.8,1.6-1.2,3.3-0.9
			C74.4,60.7,75.6,61.6,75.4,62.4"/><path class="st0" d="M83.7,63.1c0.2,0.8,1.6,1.2,3.3,0.9c1.6-0.3,2.8-1.3,2.7-2.1c-0.2-0.8-1.6-1.2-3.3-0.9
			C84.7,61.4,83.5,62.3,83.7,63.1"/><path class="st0" d="M75.8,63.1c-0.2,0.8-1.6,1.2-3.3,0.9c-1.6-0.3-2.8-1.3-2.7-2.1c0.2-0.8,1.6-1.2,3.3-0.9
			C74.8,61.4,76,62.3,75.8,63.1"/><rect x="66.5" y="49" class="st3" width="1" height="5.5"/><rect x="67.9" y="47.7" class="st3" width="1" height="5.5"/><path class="st2" d="M94.4,47.4v-6.4c0-2.4-2-4.4-4.4-4.4H70.4c-2.4,0-4.4,2-4.4,4.4v6.4"/><path class="st2" d="M64.8,47.4c-0.7,0-1.2,0.6-1.2,1.2V50c0,0.7,0.6,1.2,1.2,1.2h30.5c0.7,0,1.2-0.6,1.2-1.2v-1.4
			c0-0.7-0.6-1.2-1.2-1.2H64.8z"/></g></g><g id="stramien"/></svg>