<svg viewBox="0 0 160 160" fill="none" xmlns="http://www.w3.org/2000/svg"><path fill-rule="evenodd" clip-rule="evenodd" d="M57.5906 42.9323C62.7286 39.6723 64.4156 40.4053 66.1706 40.6793L92.8986 44.8703C95.1426 45.2223 96.3626 45.5373 98.1766 47.1303L135.417 80.7163L108.229 106.618L67.3816 99.0873C67.3816 99.0873 59.7716 85.6373 71.7096 85.0643C72.1656 85.0433 72.5826 85.0103 72.9756 84.9733C73.0506 85.0223 72.8066 84.0163 72.8866 84.0613C78.5986 87.2473 86.2626 78.4733 80.1086 72.3193C77.2696 69.4803 66.8666 57.7413 66.8666 57.7413L45.8406 73.0843C42.4086 75.5883 37.6316 75.0633 34.8256 71.8723C31.7116 68.3323 32.2096 62.9023 35.9146 59.9873L57.5906 42.9323Z" fill="#E7925B"/><path fill-rule="evenodd" clip-rule="evenodd" d="M64.7783 45.0625L80.0113 64.4555L37.8823 97.0215L22.9833 78.0545L64.7783 45.0625Z" fill="#232144"/><path fill-rule="evenodd" clip-rule="evenodd" d="M107.167 56.1136C116.919 48.4536 118.615 34.3376 110.955 24.5846C103.294 14.8326 89.1782 13.1366 79.4262 20.7976C73.2862 25.6206 70.3422 33.0026 70.9142 40.2436L64.7782 45.0636L80.0112 64.4566L86.0572 59.7076C93.0042 62.0666 100.967 60.9836 107.167 56.1136Z" fill="#FBB03B"/><path fill-rule="evenodd" clip-rule="evenodd" d="M75.4169 68.0072L60.2829 48.6152L59.4839 49.2392L74.6149 68.6272L75.4169 68.0072Z" fill="white"/><path fill-rule="evenodd" clip-rule="evenodd" d="M43.5519 92.6396L28.5949 73.4746L27.7959 74.0986L42.7499 93.2596L43.5519 92.6396Z" fill="white"/><path fill-rule="evenodd" clip-rule="evenodd" d="M59.4926 80.3169L44.4846 61.0859L43.6846 61.7099L58.6906 80.9369L59.4926 80.3169Z" fill="white"/><path fill-rule="evenodd" clip-rule="evenodd" d="M67.445 74.1705L52.371 54.8555L51.572 55.4795L66.643 74.7905L67.445 74.1705Z" fill="white"/><path fill-rule="evenodd" clip-rule="evenodd" d="M51.7167 86.3288L36.7677 67.1738L35.9677 67.7978L50.9147 86.9488L51.7167 86.3288Z" fill="white"/><path fill-rule="evenodd" clip-rule="evenodd" d="M89.04 32.1282C87.064 33.8162 87.502 36.3862 87.798 37.4522C87.865 37.6942 87.943 37.9332 88.031 38.1682C88.278 37.8662 88.511 37.5462 88.72 37.2062C89.253 36.3432 90.295 34.1912 89.04 32.1282ZM92.138 43.3972C92.345 43.5382 92.559 43.6702 92.778 43.7932C94.744 44.8922 96.753 44.9022 98.244 43.8462C96.539 42.1412 94.199 42.6412 93.236 42.9542C92.856 43.0772 92.49 43.2282 92.138 43.3972ZM74.671 59.2222L74.078 58.5922C75.82 56.9492 77.507 55.1732 79.138 53.4552C82.338 50.0842 85.648 46.5992 89.559 43.9262C89.87 43.7132 90.204 43.4922 90.558 43.2762C89.981 42.7852 89.449 42.2562 88.945 41.7332L88.89 41.6642C88.503 41.0512 88.114 40.4082 87.774 39.7322C87.481 40.0242 87.187 40.2962 86.906 40.5492C83.382 43.7152 79.212 46.1052 75.179 48.4162C73.124 49.5942 70.998 50.8122 68.99 52.1162L68.519 51.3902C70.547 50.0732 72.683 48.8492 74.749 47.6652C78.743 45.3772 82.872 43.0112 86.328 39.9052C86.67 39.5982 87.032 39.2602 87.386 38.8922C87.222 38.5002 87.079 38.0982 86.964 37.6832C86.212 34.9722 86.931 32.5302 88.89 31.1512L89.233 30.9092L89.485 31.2452C90.855 33.0712 90.845 35.4092 89.456 37.6602C89.143 38.1692 88.785 38.6332 88.408 39.0592C88.758 39.7962 89.177 40.4972 89.598 41.1642C90.146 41.7322 90.728 42.3052 91.362 42.8192C91.864 42.5552 92.401 42.3162 92.969 42.1322C95.483 41.3162 97.759 41.8602 99.21 43.6242L99.476 43.9482L99.16 44.2242C97.355 45.8012 94.812 45.9212 92.356 44.5482C91.981 44.3382 91.624 44.1032 91.282 43.8522C90.84 44.1082 90.427 44.3812 90.046 44.6402C86.212 47.2612 82.935 50.7122 79.766 54.0502C78.126 55.7772 76.431 57.5622 74.671 59.2222Z" fill="#232144"/><path fill-rule="evenodd" clip-rule="evenodd" d="M22.9832 78.0547L16.0002 98.8807L37.8822 97.0217L22.9832 78.0547Z" fill="#D8CBC5"/><path fill-rule="evenodd" clip-rule="evenodd" d="M17.865 93.3203L16 98.8813L21.838 98.3793L17.865 93.3203Z" fill="#232144"/><path fill-rule="evenodd" clip-rule="evenodd" d="M63.7537 97.2359L45.0537 80.3799C41.7837 77.4339 41.5227 72.3499 44.4707 69.0809C47.4157 65.8129 52.4987 65.5499 55.7677 68.4959L74.4647 85.3509C77.7337 88.2979 77.9997 93.3819 75.0507 96.6499C72.1057 99.9179 67.0187 100.182 63.7537 97.2359Z" fill="#E7925B"/><path fill-rule="evenodd" clip-rule="evenodd" d="M144 144V87.3658L135.416 80.7168L108.228 106.62L138.702 144H144Z" fill="#E7925B"/></svg>