<?xml version="1.0" encoding="UTF-8"?><svg xmlns="http://www.w3.org/2000/svg" viewBox="0 0 160 160"><defs><style>.cls-1{fill:#232144;}.cls-2{fill:#9e3f39;}.cls-3{fill:#5773a4;}.cls-4{fill:none;stroke:#5773a4;stroke-miterlimit:10;}.cls-5{fill:#232144;}.cls-6{fill:#e6e3da;}.cls-7{fill:#fff;}.cls-8{fill:#f7931e;}.cls-9{fill:#5773a4;}.cls-10{fill:#d0def2;}.cls-11{fill:#f0a86b;}</style></defs><g id="contract"><polyline class="cls-10" points="53.66 11.42 128.43 11.42 128.43 139.35 31.57 139.35 31.57 33.39"/><rect class="cls-9" x="43.24" y="46.15" width="73.52" height="5.35" rx="2.68" ry="2.68"/><rect class="cls-9" x="43.24" y="56.84" width="58.25" height="5.35" rx="2.68" ry="2.68"/><rect class="cls-9" x="88.12" y="130.18" width="33.63" height=".94"/><polygon class="cls-3" points="31.57 33.39 53.66 33.39 53.66 11.42 31.57 33.39"/><path class="cls-4" d="M92.23,133.49s13.68-12.04,18.08-14.29c0,0-9.07,6.59-8.15,10.94s10.29-7.34,10.29-7.34c0,0-3.78,5.21-2.77,7.34s6.14-1.37,7.97-3.97"/></g><g id="hands"><path class="cls-11" d="M109.01,105.15l.97-.87-28.97-30.71-22.04,1.21-42.98-28.15v39.17l26.65,12.62,28.47,22.15.03.03,8.68,7.62c2.01,1.76,5.06,1.56,6.82-.45.94-1.07,1.31-2.44,1.16-3.75l-.05.09.32.28c2.01,1.76,5.06,1.56,6.82-.45,1.4-1.6,1.56-3.85.55-5.6l.15.13c2.01,1.76,5.06,1.56,6.82-.45h0c1.39-1.59,1.55-3.83.57-5.57,1.94,1.06,4.42.68,5.94-1.05h0c1.59-1.81,1.58-4.48.08-6.27Z"/><path class="cls-2" d="M59.48,105.07l-7.64,8.19c-1.84,1.98-4.95,2.06-6.9.17h0c-1.89-1.83-1.96-4.84-.17-6.76l7.77-8.33c1.86-1.92,4.92-1.96,6.83-.1h0c1.92,1.86,1.96,4.92.1,6.83Z"/><path class="cls-2" d="M81.14,118.69c1.85,1.79,1.96,4.72.27,6.65l-2.87,3.26c-1.84,1.98-4.95,2.06-6.9.17h0c-1.89-1.83-1.96-4.84-.17-6.76l2.68-3.05c1.82-2.07,5.01-2.2,6.99-.28h0Z"/><path class="cls-2" d="M68.41,109.95l-7.64,8.19c-1.84,1.98-4.95,2.06-6.9.17h0c-1.89-1.83-1.96-4.84-.17-6.76l7.77-8.33c1.86-1.92,4.92-1.96,6.83-.1h0c1.92,1.86,1.96,4.92.1,6.83Z"/><rect class="cls-2" x="60.25" y="112.54" width="16.38" height="9.66" rx="4.83" ry="4.83" transform="translate(-63.46 84.77) rotate(-45.87)"/><path class="cls-2" d="M131.64,62.79l-27.58,14.14-19.43-6.08-.02.1-17.61,7.84v.02s-3.95,1.76-3.95,1.76c-2.51,1.12-3.63,4.05-2.52,6.56h0c1.12,2.51,4.05,3.63,6.56,2.52l10.84-4.83v-.02s4.64-2.07,4.64-2.07l19.66,15.92,6.82,6.48,22.53-9.01.07-33.33Z"/><polygon class="cls-6" points="144 96.71 120.56 105.49 104.02 76.86 131.61 60.36 144 96.71"/><polygon class="cls-8" points="144 52.91 111.7 72.23 131.64 107.07 144 102.56 144 52.91"/><circle class="cls-8" cx="122.75" cy="100.07" r="1.96"/><polygon class="cls-5" points="32.34 93.53 46.1 66.32 54.38 71.76 41.3 97.78 32.34 93.53"/><circle class="cls-7" cx="42.95" cy="83.42" r="8.52"/><path class="cls-1" d="M38.79,91.67c-4.55-2.29-6.39-7.86-4.09-12.41s7.86-6.39,12.41-4.09,6.39,7.86,4.09,12.41-7.86,6.39-12.41,4.09ZM46.46,76.46c-3.84-1.93-8.54-.39-10.47,3.45-1.93,3.84-.39,8.54,3.45,10.47s8.54.39,10.47-3.45c1.93-3.84.39-8.54-3.45-10.47Z"/><polygon class="cls-8" points="45.73 85.12 42.55 83.51 44.82 79.01 45.29 79.25 43.26 83.28 45.97 84.64 45.73 85.12"/><rect class="cls-8" x="45.26" y="77.47" width="1.11" height=".53" transform="translate(-44.22 83.65) rotate(-63.25)"/><rect class="cls-8" x="39.53" y="88.84" width="1.11" height=".53" transform="translate(-57.53 84.79) rotate(-63.25)"/><rect class="cls-8" x="48.37" y="85.73" width=".53" height="1.11" transform="translate(-50.31 90.88) rotate(-63.25)"/><rect class="cls-8" x="37" y="80" width=".53" height="1.11" transform="translate(-51.44 77.57) rotate(-63.25)"/></g></svg>