<svg viewBox="0 0 160 160" fill="none" xmlns="http://www.w3.org/2000/svg"><path d="M39.89 144L51.13 108.52L20.39 105.45L16.12 144.02L39.89 144Z" fill="#FFA28F"/><path d="M16 107.7C16 107.7 26.05 83.4502 40.06 83.4502C49.66 83.4502 57.98 89.9002 58.7 99.4602C59.42 109.02 39.1 125.96 39.1 125.96L15.99 107.69L16 107.7Z" fill="#891229"/><path d="M120.11 144L108.87 108.52L139.61 105.45L143.88 144.02L120.11 144Z" fill="#FFA28F"/><path d="M144 107.51C144 107.51 133.95 83.2598 119.94 83.2598C110.34 83.2598 102.02 89.7098 101.3 99.2698C100.58 108.83 120.9 125.77 120.9 125.77L144.01 107.5L144 107.51Z" fill="#891229"/><path d="M39.5 144L37.47 83.7198C37.47 83.7198 69.08 73.2998 80.33 73.2998C90.59 73.2998 124.01 83.9098 124.01 83.9098L121.33 144H39.5Z" fill="#891229"/><path d="M61.68 54.5602C64.6899 54.5602 67.13 52.1201 67.13 49.1102C67.13 46.1002 64.6899 43.6602 61.68 43.6602C58.67 43.6602 56.23 46.1002 56.23 49.1102C56.23 52.1201 58.67 54.5602 61.68 54.5602Z" fill="#FFA28F"/><path d="M97.62 54.5602C100.63 54.5602 103.07 52.1201 103.07 49.1102C103.07 46.1002 100.63 43.6602 97.62 43.6602C94.61 43.6602 92.17 46.1002 92.17 49.1102C92.17 52.1201 94.61 54.5602 97.62 54.5602Z" fill="#FFA28F"/><path d="M93.12 79.4198V58.3798L66.17 58.2998V79.4098C66.17 84.8898 70.61 89.3298 76.09 89.3298H83.21C88.69 89.3298 93.13 84.8898 93.13 79.4098L93.12 79.4198Z" fill="#F5836D"/><path d="M82.66 16H76.64C68.3447 16 61.62 22.7247 61.62 31.02V56.19C61.62 64.4853 68.3447 71.21 76.64 71.21H82.66C90.9553 71.21 97.68 64.4853 97.68 56.19V31.02C97.68 22.7247 90.9553 16 82.66 16Z" fill="#FFA28F"/><path d="M79.39 54.7203C78.55 54.7203 77.88 54.3003 77.3 53.9403C76.34 53.3403 75.75 52.9703 74.59 54.1303L73.83 53.3703C75.59 51.6103 76.85 52.3903 77.86 53.0303C78.37 53.3503 78.85 53.6503 79.39 53.6503C79.93 53.6503 80.39 53.3703 80.87 53.0803C81.83 52.4903 83.02 51.7603 85 53.4003L84.32 54.2203C82.93 53.0703 82.33 53.4303 81.43 53.9903C80.87 54.3303 80.24 54.7203 79.39 54.7203Z" fill="black"/><path d="M74.801 47.554C75.1934 46.3575 73.627 44.7694 71.3023 44.0068C68.9775 43.2443 66.7748 43.5961 66.3823 44.7926C65.9898 45.989 67.5563 47.5771 69.881 48.3397C72.2058 49.1022 74.4085 48.7505 74.801 47.554Z" fill="white"/><path d="M70.9 48.4399C72.1592 48.4399 73.18 47.4191 73.18 46.1599C73.18 44.9007 72.1592 43.8799 70.9 43.8799C69.6408 43.8799 68.62 44.9007 68.62 46.1599C68.62 47.4191 69.6408 48.4399 70.9 48.4399Z" fill="black"/><path d="M89.2472 48.3223C91.572 47.5597 93.1384 45.9716 92.7459 44.7751C92.3535 43.5787 90.1507 43.2269 87.826 43.9894C85.5012 44.752 83.9348 46.3401 84.3272 47.5365C84.7197 48.733 86.9224 49.0848 89.2472 48.3223Z" fill="white"/><path d="M88.23 48.4399C89.4892 48.4399 90.51 47.4191 90.51 46.1599C90.51 44.9007 89.4892 43.8799 88.23 43.8799C86.9708 43.8799 85.95 44.9007 85.95 46.1599C85.95 47.4191 86.9708 48.4399 88.23 48.4399Z" fill="black"/><path d="M79.74 61.0401C79.68 61.0401 79.62 61.0401 79.56 61.0401C77.56 60.9501 76.27 59.2801 76.21 59.2101L77.1 58.5301C77.1 58.5301 78.14 59.8601 79.62 59.9201C80.6 59.9601 81.61 59.4401 82.59 58.3701L83.42 59.1301C82.25 60.4001 81.01 61.0501 79.74 61.0501V61.0401Z" fill="black"/><path d="M68.44 16H90.86C94.77 16 97.94 19.17 97.94 23.08V29.92H61.35V23.08C61.35 19.17 64.52 16 68.43 16H68.44Z" fill="#420F0F"/><path d="M64.09 33.8301H61.36V36.5601H64.09V33.8301Z" fill="#420F0F"/><path d="M64.09 30.5498H61.36V33.2798H64.09V30.5498Z" fill="#420F0F"/><path d="M64.09 37.1504H61.36V39.8804H64.09V37.1504Z" fill="#420F0F"/><path d="M64.09 40.4697H61.36V43.1997H64.09V40.4697Z" fill="#420F0F"/><path d="M97.95 33.7305H95.22V36.4605H97.95V33.7305Z" fill="#420F0F"/><path d="M97.95 30.4502H95.22V33.1802H97.95V30.4502Z" fill="#420F0F"/><path d="M97.95 37.04H95.22V39.77H97.95V37.04Z" fill="#420F0F"/><path d="M97.95 40.3604H95.22V43.0904H97.95V40.3604Z" fill="#420F0F"/><path d="M76.66 36.5195H65.5V39.2195H76.66V36.5195Z" fill="#420F0F"/><path d="M93.41 35.9004H82.25V38.6004H93.41V35.9004Z" fill="#420F0F"/><path d="M57.66 115.9L63.19 88.4604C63.48 87.0004 62.53 85.5704 61.07 85.2904C59.61 85.0004 58.2 85.9504 57.91 87.4104L52.38 114.87C52.01 116.74 53.12 117.26 54.51 117.53L54.75 117.58C56.14 117.85 57.58 116.56 57.95 114.7L57.67 115.91L57.66 115.9Z" fill="#FFA28F"/><path d="M59.93 111.37L67.99 84.5705C68.42 83.1405 67.6 81.6405 66.17 81.2105C64.75 80.7905 63.25 81.6005 62.83 83.0205L53.43 109.58C52.88 111.4 55.29 112.29 56.65 112.69L56.89 112.76C58.25 113.16 59.8 112.01 60.34 110.19L59.94 111.37H59.93Z" fill="#FFA28F"/><path d="M62.52 109.46L74.09 83.97C74.7 82.61 74.09 81.01 72.74 80.4C71.39 79.79 69.79 80.3999 69.18 81.7499L57.6 107.25C56.82 108.99 57.78 109.74 59.08 110.32L59.3 110.42C60.6 111 62.28 110.06 63.07 108.33L62.52 109.45V109.46Z" fill="#FFA28F"/><path d="M57.13 107.03L65.54 114.51L74.02 122.56C74.95 123.74 76.69 124.05 77.9 123.24L78.21 122.95C79.4 122.16 79.64 120.59 78.75 119.42C78.75 119.42 71.68 111.9 69.31 109.4C66.94 106.9 69.67 102.6 73 105.04L72.75 101.91L68.58 98.3604L57.12 107L57.13 107.03Z" fill="#FFA28F"/><path d="M103.19 115.2L97.19 87.8599C96.87 86.3999 97.8 84.9599 99.26 84.6499C100.71 84.3399 102.14 85.2599 102.46 86.7099L108.47 114.07C108.88 115.93 107.77 116.47 106.38 116.77L106.14 116.82C104.75 117.12 103.3 115.85 102.89 113.99L103.2 115.2H103.19Z" fill="#FFA28F"/><path d="M100.84 110.71L92.32 84.0498C91.87 82.6298 92.66 81.1098 94.08 80.6598C95.5 80.2198 97.01 80.9998 97.46 82.4098L107.33 108.8C107.91 110.61 105.52 111.54 104.17 111.97L103.93 112.05C102.57 112.48 101.01 111.35 100.43 109.54L100.85 110.71H100.84Z" fill="#FFA28F"/><path d="M98.22 108.84L86.21 83.5604C85.57 82.2104 86.15 80.6004 87.5 79.9704C88.84 79.3404 90.44 79.9204 91.08 81.2604L103.1 106.56C103.91 108.28 102.96 109.05 101.68 109.66L101.46 109.77C100.17 110.37 98.47 109.46 97.66 107.75L98.23 108.86L98.22 108.84Z" fill="#FFA28F"/><path d="M103.56 106.32L95.28 113.95L86.95 122.15C86.05 123.35 84.31 123.68 83.08 122.9L82.77 122.62C81.56 121.85 81.3 120.29 82.16 119.1C82.16 119.1 89.1 111.46 91.42 108.92C93.74 106.38 90.94 102.12 87.65 104.63L87.84 101.5L91.94 97.8799L103.55 106.32H103.56Z" fill="#FFA28F"/><path d="M81.86 105.01L73.48 98.5203C71.83 97.2403 69.5 97.2803 67.89 98.6103L53.18 110.78L42.24 144.01H63.86L66.42 114.67L68.47 104.67L69.94 103L78.63 109.32C79.82 110.21 81.51 109.97 82.4 108.78C83.29 107.59 83.05 105.9 81.86 105.01Z" fill="#FFA28F"/><path d="M92.19 104.15L94.41 114.11L96.79 144C98.02 144 117.83 144 117.83 144L107.57 110L92.65 98.0901C91.01 96.7801 88.69 96.7901 87.06 98.0901L78.79 104.73C77.62 105.64 77.41 107.34 78.32 108.51C79.23 109.68 80.93 109.89 82.1 108.98L90.68 102.51L92.18 104.15H92.19Z" fill="#FFA28F"/><path d="M94.59 47.5195H65.69V50.4695H94.59V47.5195Z" fill="#FFA28F"/></svg>