<?xml version="1.0" encoding="utf-8"?><!--Generator: Adobe Illustrator 27.8.0, SVG Export Plug-In . SVG Version: 6.00 Build 0)--><svg version="1.1" xmlns="http://www.w3.org/2000/svg" xmlns:xlink="http://www.w3.org/1999/xlink" x="0px" y="0px" viewBox="0 0 160 160" style="enable-background:new 0 0 160 160;" xml:space="preserve"><style type="text/css">.st0{fill:#F7931E;}
	.st1{fill:#FBB03B;}
	.st2{fill:#FF6200;}
	.st3{fill:#891229;}
	.st4{fill:none;stroke:#232144;stroke-width:1.0312;stroke-miterlimit:10;}
	.st5{fill:#232144;}</style><g><path class="st1" d="M109.3,136.6c-7.1-2-17.1-4-29.1-4c-12.2,0-22.2,2-29.4,4c0-5.3,0-10.6,0-15.9h58.5V136.6z"/><path class="st1" d="M25,66.6c0,0,6.4,25.5,19.9,32.6l3.8-5.8c0,0-12-7.5-20-28.5L25,66.6z"/><g><g><path class="st1" d="M25.1,129c-3.2,0-6.2-1.6-7.9-4.5c-2.6-4.4-1.1-10,3.3-12.6c13.9-8.1,25.4-30,28.6-37.7
				c2-4.7,7.4-6.9,12-4.9c4.7,2,6.9,7.3,4.9,12c-0.6,1.4-14.2,33.5-36.3,46.4C28.3,128.6,26.7,129,25.1,129z"/></g><g><path class="st1" d="M135,129c-1.6,0-3.2-0.4-4.6-1.3c-22-12.9-35.7-45.1-36.3-46.4c-2-4.7,0.2-10.1,4.9-12
				c4.7-2,10.1,0.2,12,4.9c3.3,7.7,14.7,29.5,28.6,37.7c4.4,2.6,5.8,8.2,3.3,12.6C141.2,127.3,138.1,129,135,129z"/></g></g><ellipse class="st1" cx="80" cy="97.6" rx="38.5" ry="33.3"/><path class="st2" d="M79.9,29.9c0,0-6.2-9.8-24.6-3.9S38.3,54.7,38.3,54.7l5.1-6.3c0,0-11.6,46.8,33.3,54.5c3.3,0.6,6.7,0.4,10-0.4
		c46.7-11.9,29.4-55.9,29.4-55.9l5.4,6.1c0,0,0.4-22.7-18.3-27.7S79.9,29.9,79.9,29.9z"/><path class="st1" d="M106.7,61.3c-0.3-13.8-14.4-22.2-27.3-21.9s-26.5,9.4-26.2,23.2c0,0.1,0,0.3,0,0.4c0,0.4,0,0.9,0,1.3
		c0.3,12.8,14.4,28,27.3,27.6c12.9-0.3,26.6-16.2,26.2-29c0-0.1,0-0.2,0-0.3C106.7,62.3,106.7,61.8,106.7,61.3z"/><g><circle class="st1" cx="102.1" cy="45.2" r="5.5"/><circle class="st1" cx="57.8" cy="45.2" r="5.5"/></g><g><path class="st2" d="M79.9,45.2c0,0-12.8-6.2-21.6,3.6l8.1-17.3c2.7,1.1,7.7,2.7,13.5,2.8c6.4,0.1,10.9-1.6,13.7-2.8l8.1,17.3
			C92.9,39.1,79.9,45.2,79.9,45.2z"/></g><g><path class="st3" d="M60.9,102c0,0-2.6-1.2-4.6-1c-1,0.1-1.8,1.2-1.8,1.2s-0.5-1.4-1.6-1.7c-4.3-1-9.4,1.3-11.5,6.9
			c-4.1,11.2-2.2,29.4,9,33.4c11.2,4,24.3-22,24.3-22s4.7-7.7-4.3-12.3c-3.7-1.9-4.7-0.4-4.7-0.4C65.3,105.9,66.8,104.5,60.9,102z"/><path class="st3" d="M99.1,102c0,0,2.6-1.2,4.6-1c1,0.1,1.8,1.2,1.8,1.2s0.5-1.4,1.6-1.7c4.3-1,9.4,1.3,11.5,6.9
			c4.1,11.2,2.2,29.4-9,33.4c-11.2,4-24.3-22-24.3-22s-4.7-7.7,4.3-12.3c3.7-1.9,4.7-0.4,4.7-0.4C94.7,105.9,93.2,104.5,99.1,102z"/></g><path class="st2" d="M30.7,56.2c-0.7-1.3-1.7-2.4-2.9-3.2l-6.7-5.6l1.3,4.5c0,0-0.1,0-0.1,0c-1.7-2.6-4.3-5.2-5.1-5.9
		c2.1,2.3-1,11.5-1,11.5l0,0c-0.5,1.8-0.4,3.7,0.5,5.5c1.9,3.9,6.6,5.4,10.4,3.5C31.1,64.8,32.6,60.1,30.7,56.2z"/><g><g><g><path class="st4" d="M92.5,77.9c0,0,0.3,2.9-2,3.6c-5.1,1.6-10.6-2.3-10.6-2.3l0-6.4"/><path class="st4" d="M67.6,77.9c0,0-0.3,2.9,2,3.6c5.1,1.6,10.3-2.3,10.3-2.3"/></g><ellipse transform="matrix(0.9997 -2.512722e-02 2.512722e-02 0.9997 -1.7493 2.0328)" class="st3" cx="80" cy="70.6" rx="8.9" ry="5.6"/></g><g><ellipse class="st5" cx="76" cy="61.8" rx="1.7" ry="2"/><ellipse class="st5" cx="84.1" cy="61.8" rx="1.7" ry="2"/></g></g></g></svg>