<?xml version="1.0" encoding="UTF-8"?><svg id="Parking" xmlns="http://www.w3.org/2000/svg" viewBox="0 0 160 160"><defs><style>.cls-1{fill:#e7e4d7;}.cls-2{fill:#ff5a00;}.cls-3{fill:#ffd3a8;}.cls-4{fill:#00315a;}.cls-5{fill:#396bff;}.cls-6{fill:#ffe3c1;}</style></defs><polygon class="cls-5" points="92.62 105.59 44.56 125.12 44.56 52.36 92.62 52.36 92.62 105.59"/><path class="cls-1" d="M46.96,144V51.54c0-2.99-2.42-5.41-5.41-5.41s-5.41,2.42-5.41,5.41v92.46h10.82Z"/><path class="cls-1" d="M60.08,102.7c-.58,0-.9-.32-.9-.84v-36.28c0-.53.32-.84.9-.84h7.96c5.12,0,8.54,1.05,10.7,3.11,1.95,1.9,2.9,4.64,2.9,8.12,0,4.06-1.16,7.17-3.32,9.23-2.06,1.95-5.11,2.95-9.28,2.95-1.64,0-3.95-.16-5.8-.47v14.19c0,.53-.32.84-.9.84h-2.27ZM63.25,68.1v16.3c1.95.32,3.9.42,5.53.42,2.95,0,5.22-.74,6.7-2.37,1.27-1.42,2.01-3.53,2.01-6.28s-.69-4.75-2.01-6.01c-1.48-1.48-3.8-2.06-7.01-2.06h-5.22Z"/><rect class="cls-6" x="85.98" y="54.24" width="4.05" height="11.02" rx="2.03" ry="2.03"/><rect class="cls-6" x="88.17" y="59.32" width="1.86" height="10.92" rx=".93" ry=".93"/><path class="cls-3" d="M128.09,21.77l-26.05-5.4,18.62,17.72h0s-5.44,6.23-5.44,6.23l14.64-1.13.87-13.96c.1-1.65-1.02-3.12-2.64-3.46Z"/><polygon class="cls-4" points="110.7 18.17 111.6 25.72 101.41 16 110.7 18.17"/><rect class="cls-2" x="107.87" y="48.58" width="11.09" height=".94" transform="translate(233.55 78.01) rotate(170.17)"/><polygon class="cls-2" points="138.49 38.46 143.75 34.66 137.94 35.94 138.49 38.46"/><path class="cls-6" d="M130.3,46.37l8.72-7.68c1.54-1.35.28-3.87-1.73-3.44l-41.92,8.9,21.61,5.44c4.7,1.18,9.68-.02,13.32-3.22Z"/><polygon class="cls-4" points="100.39 42.98 94.83 44.14 102.89 46.13 100.39 42.98"/><circle class="cls-4" cx="135.56" cy="37.48" r=".83"/><path class="cls-6" d="M123.23,23.35l-26.2-4.6,19.17,17.13h0s-5.24,6.39-5.24,6.39l14.6-1.58.43-13.97c.05-1.65-1.12-3.09-2.75-3.37Z"/><polygon class="cls-4" points="105.73 20.16 106.9 27.57 96.4 18.4 105.73 20.16"/><rect class="cls-2" x="107.25" y="47.18" width="11.09" height=".94" transform="translate(232.07 75.33) rotate(170.17)"/></svg>