<?xml version="1.0" encoding="utf-8"?><!--Generator: Adobe Illustrator 28.0.0, SVG Export Plug-In . SVG Version: 6.00 Build 0)--><svg version="1.1" xmlns="http://www.w3.org/2000/svg" xmlns:xlink="http://www.w3.org/1999/xlink" x="0px" y="0px" viewBox="0 0 160 160" style="enable-background:new 0 0 160 160;" xml:space="preserve"><style type="text/css">.st0{clip-path:url(#SVGID_00000091737979900456235360000012501016410945190818_);}
	.st1{fill:#D8CBC5;}
	.st2{fill:none;stroke:#232144;stroke-width:1.7965;stroke-miterlimit:10;}
	.st3{fill:#232144;}
	.st4{fill:#E73245;}
	.st5{fill:#4B7CFE;}
	.st6{fill:#B9DEE8;}
	.st7{fill:#006931;}
	.st8{fill:none;stroke:#E6E3DA;stroke-width:6.1613;stroke-miterlimit:10;}</style><g id="Design"><g><defs><rect id="SVGID_1_" x="16" y="16" width="127.9" height="127.9"/></defs><clipPath id="SVGID_00000178198789708199439310000000215669647080501407_"><use xlink:href="#SVGID_1_" style="overflow:visible;"/></clipPath><g style="clip-path:url(#SVGID_00000178198789708199439310000000215669647080501407_);"><path class="st1" d="M50.5,49.6c1.3-0.3,2.4-1.3,2.6-2.6c0.3-1.7-0.6-3.3-2.2-3.9c-1.4-0.5-2.3-1.7-2.3-3.1v-4.5
				c0-0.7,0.5-1.2,1.2-1.2s1.2,0.5,1.2,1.2v4.5c0,0.4,0.3,0.7,0.7,0.8c2.8,0.9,4.4,3.7,3.8,6.7c-0.4,2.3-2.3,4.1-4.5,4.5"/><ellipse class="st2" cx="50.5" cy="53.9" rx="3.4" ry="5.3"/><g><rect x="43.2" y="16" class="st3" width="1.2" height="11.5"/></g><g><rect x="55.1" y="16" class="st3" width="1.2" height="11.5"/></g><g><path class="st4" d="M49.8,38.9L49.8,38.9c-3.7,0-6.6-3-6.6-6.6v-8.2c0-3.7,3-6.6,6.6-6.6h0c3.7,0,6.6,3,6.6,6.6v8.2
					C56.4,35.9,53.4,38.9,49.8,38.9z"/></g><path class="st1" d="M51,51.9c-0.4,0.1-0.8,0.1-1.1,0.1c-1.3,0-2.7-0.5-3.7-1.3C44.8,49.6,44,48,44,46.2c0-0.7,0.5-1.2,1.2-1.2
				c0.7,0,1.2,0.5,1.2,1.2c0,1,0.4,2,1.2,2.6c0.8,0.7,1.8,0.9,2.8,0.7"/><circle class="st1" cx="49.9" cy="23" r="2.5"/><circle class="st1" cx="49.9" cy="33.2" r="2.5"/><g><polygon class="st3" points="36.5,99.5 36.5,64 72,64 				"/><rect x="32.2" y="53.6" class="st5" width="39.8" height="10.6"/></g><g><polygon class="st5" points="30.9,119.9 109.1,38 187.4,119.9 				"/><polygon class="st3" points="45.3,200 45.3,120.4 109.1,51.9 173,120.4 173,200 				"/><rect x="126" y="133.1" class="st5" width="34.5" height="66.8"/><rect x="57.7" y="132.9" class="st6" width="53.4" height="48.3"/></g><g><line class="st8" x1="134.9" y1="88.7" x2="134.9" y2="199.3"/><line class="st8" x1="44" y1="88.7" x2="44" y2="199.3"/><line class="st8" x1="134.2" y1="98.9" x2="43.3" y2="98.9"/><line class="st8" x1="134.2" y1="134.8" x2="43.3" y2="134.8"/><line class="st8" x1="134.1" y1="135" x2="44.7" y2="173.3"/><line class="st8" x1="134.7" y1="134.5" x2="44.7" y2="98.7"/><line class="st8" x1="45.3" y1="135.2" x2="134.7" y2="172.5"/></g></g></g></g><g id="stramien"/></svg>