<?xml version="1.0" encoding="UTF-8"?><svg id="Pills" xmlns="http://www.w3.org/2000/svg" viewBox="0 0 160 160"><defs><style>.cls-1{fill:#e6e3d9;}.cls-2{fill:#171111;}.cls-3{fill:#ff924b;}.cls-4{fill:#006c28;}.cls-5{fill:#bac294;}.cls-6{fill:#f9b188;}.cls-7{fill:#fff;}.cls-8{fill:#90120b;}.cls-9{fill:#d9cbc4;}</style></defs><path class="cls-9" d="M140.18,144l-8.23-37.3c-.91-7.99-7.38-14.47-15.69-15.1l-66.35.08c-6.73.8-12.15,5.43-14.2,11.54h-.01s-.03.14-.03.14c-.34,1.04-.77,2.14-.9,3.25l-8.19,37.38h113.6Z"/><path class="cls-3" d="M94.79,92.14v-15.94l-24.57-.09v16.03c0,6.79,5.5,22.06,12.29,22.06s12.29-15.27,12.29-22.06"/><path class="cls-6" d="M98.89,61.44s-.07,0-.1,0v-12.91c0-6.07-4.92-10.98-10.98-10.98h-10.61c-6.06,0-10.98,4.92-10.98,10.98v27.23c0,6.07,4.92,10.98,10.98,10.98h10.61c6.06,0,10.98-4.92,10.98-10.98v-4.38l.1-9.94Z"/><path class="cls-2" d="M97.38,54.3l-9.01-2.02c-1.29-.29-2.52.69-2.52,2.02h11.53Z"/><path d="M81.96,71.8c.07,0,.14,0,.21,0,.48-.03.88-.29,1.26-.55.7-.47,1.21-.8,2.19.12l.54-.51c-1.44-1.36-2.44-.69-3.18-.2-.31.2-.6.4-.86.41-.75.04-1.06-.2-1.39-.46-.67-.52-1.27-.82-3.01.16l.39.62c1.41-.79,1.68-.57,2.13-.22.34.27.81.63,1.72.63"/><path d="M67.47,54.3l9.01-2.02c1.29-.29,2.52.69,2.52,2.02h-11.53Z"/><path d="M78.39,64.62c-.59-4.1-5.77-5.85-8.95-3.92.2.31.57.95.76,1.26.7-.43,4.36-1.9,7.68,2.08.2.24.23.34.51.59"/><path d="M86.48,64.66c.59-4.1,5.77-5.85,8.95-3.92-.2.31-.57.95-.76,1.26-.7-.43-4.36-1.9-7.68,2.08-.2.24-.23.34-.51.59"/><path class="cls-7" d="M78.39,64.62s-1.2-2.56-3.49-3.36c-2.3-.8-4.82.47-4.82.47,0,0,.92,2.09,3.21,2.89,2.3.8,5.1,0,5.1,0"/><path class="cls-7" d="M86.48,64.66s1.2-2.56,3.49-3.36c2.3-.8,4.82.47,4.82.47,0,0-.92,2.09-3.21,2.89-2.3.8-5.1,0-5.1,0"/><path class="cls-8" d="M93.58,73.5s-2.85.88-4.14,1.39-1.38.97-1.38.97c0,0-.97-.05-2.21.44-.97.38-3.34,1.6-3.34,1.6,0,0,3.97,2.48,6.83,1.36s4.23-5.76,4.23-5.76"/><path class="cls-9" d="M102.18,31.17c3.32,5.18,5.24,11.31,5.24,17.89,0,8.56-3.26,16.38-8.62,22.31h0s0,0,0,0c0,0,0,0,0,0l-.17-14.86c-.09-8.72-7.26-12.53-20.54-14.91l24.1-10.44Z"/><path class="cls-1" d="M98.96,16.24c0-.06,0,0,0,0-2.29-.48-4.67-.82-7.11-.82-18.92,0-34.26,15.06-34.26,33.63,0,8.56,3.26,16.38,8.62,22.31h0s0,0,0,0c0,0,0,0,0,0l-.02-14.86c.09-10.62,10.28-15.01,29.55-16.66.14,0,.28.02.42.02,6.62,0,11.99-5.37,11.99-11.99,0-5.66-3.93-10.39-9.21-11.65Z"/><circle cx="90.65" cy="62.82" r="2.01"/><circle cx="74.42" cy="62.84" r="2.01"/><circle class="cls-4" cx="74.36" cy="61.98" r="5.93"/><circle class="cls-5" cx="74.36" cy="61.98" r="4.62"/><circle class="cls-1" cx="73.92" cy="63.19" r=".95"/><circle class="cls-1" cx="73.36" cy="60.77" r=".95"/><circle class="cls-1" cx="75.9" cy="61.62" r=".95"/><circle class="cls-4" cx="90.63" cy="61.98" r="5.93"/><circle class="cls-5" cx="90.63" cy="61.98" r="4.62"/><circle class="cls-1" cx="90.18" cy="63.19" r=".95"/><circle class="cls-1" cx="89.62" cy="60.77" r=".95"/><circle class="cls-1" cx="92.16" cy="61.62" r=".95"/><path class="cls-1" d="M82.98,128.66c15.35-15.44,26.46-30.44,21.33-37.53-3.14-4.34-9.42-.81-9.42-.81h0l-12.39,22.6-12.35-22.91s-5.91-2.82-9.49,1.11c-4.54,4.99-.77,24.33,22.32,37.53"/><path class="cls-1" d="M63.9,144.06c10.23-6.97,18.71-15.01,22.61-18.93l-1.55-1.54c-4.19,4.21-13.75,13.25-25.02,20.47h3.96Z"/></svg>