<?xml version="1.0" encoding="UTF-8"?><svg id="Shoping" xmlns="http://www.w3.org/2000/svg" viewBox="0 0 160 160"><defs><style>.cls-1{fill:#efa76b;}.cls-2{fill:#e6e3d9;}.cls-3{fill:#1d1d1b;}.cls-4{fill:#231e47;}.cls-5{fill:#d9cbc4;}.cls-6{fill:#f50077;}</style></defs><path class="cls-1" d="M74.57,49.53v-.04c-.02-1.86,1.46-3.38,3.32-3.41l10.52-.14c1.86-.02,3.38,1.46,3.41,3.32v.04c.02,1.86-1.46,3.38-3.32,3.41l-10.52.14c-1.86.02-3.38-1.46-3.41-3.32"/><path class="cls-1" d="M86.99,49.78l-24.18,3.74-.33-11.88c0-2.39.32-4.75,1.24-6.95l-.31-18.68h20.19l.35,12.72c2.67,2.33,6.91,8.78,9.23,12.49.43.69.56,1.52.35,2.31l-1.91,6.96"/><rect class="cls-6" x="45.72" y="66.01" width="60.24" height="20.15"/><path class="cls-4" d="M97.85,77.27h-3.06v-13.01c0-7.53-6.12-13.65-13.65-13.65h-9.11c-7.53,0-13.65,6.12-13.65,13.65v13.01h-3.06v-13.01c0-9.21,7.5-16.71,16.71-16.71h9.11c9.21,0,16.71,7.5,16.71,16.71v13.01Z"/><rect class="cls-4" x="44" y="77.27" width="65.19" height="66.69"/><rect class="cls-6" x="48.75" y="77.12" width="1.23" height="7.14"/><polygon class="cls-2" points="53 102.5 45.72 102.5 45.72 86.4 48.32 83.34 50.45 83.34 53 86.4 53 102.5"/><line class="cls-4" x1="55.17" y1="84.33" x2="54.01" y2="77.29"/><polygon class="cls-2" points="54.57 84.43 53.38 77.27 54.62 77.26 55.78 84.23 54.57 84.43"/><polygon class="cls-6" points="61.74 101.74 54.55 102.93 51.92 87.03 53.99 83.6 56.09 83.25 59.11 85.85 61.74 101.74"/><path class="cls-1" d="M86.99,53.25l-9.08.12c-1.61.02-2.92-1.26-2.94-2.87v-.04c-.02-1.6,1.26-2.92,2.87-2.94l9.08-.12"/><path class="cls-1" d="M90.31,45.71s-10.11,2.47-13.85-8.3"/><rect class="cls-1" x="83.92" y="40.6" width="7.91" height="5.97" transform="translate(-.56 1.14) rotate(-.74)"/><path class="cls-1" d="M88.49,56.03l-.24-22.2-6.53-1.2.25,23.48c.02,1.8,1.5,3.24,3.3,3.22,1.8-.02,3.24-1.5,3.22-3.3"/><path class="cls-1" d="M73.02,59.81h-.04c-1.86.04-3.39-1.44-3.43-3.3l-.2-10.52c-.04-1.86,1.44-3.39,3.3-3.43h.04c1.86-.04,3.39,1.44,3.43,3.3l.2,10.52c.04,1.86-1.44,3.39-3.3,3.43"/><path class="cls-1" d="M66.41,59.21h-.04c-1.86.04-3.39-1.36-3.43-3.12l-.2-9.95c-.04-1.76,1.44-3.21,3.3-3.24h.04c1.86-.03,3.39,1.36,3.43,3.12l.2,9.95c.04,1.76-1.44,3.21-3.3,3.24"/><path class="cls-1" d="M79.81,59.67h-.04c-1.86.04-3.39-1.44-3.43-3.3l-.2-10.52c-.04-1.86,1.44-3.39,3.3-3.43h.04c1.86-.04,3.39,1.44,3.43,3.3l.2,10.52c.04,1.86-1.44,3.39-3.3,3.43"/><rect class="cls-2" x="87.06" y="73.57" width="32.92" height="67.02" transform="translate(36.66 -26.01) rotate(17.36)"/><line class="cls-3" x1="93.87" y1="91.28" x2="120.41" y2="99.57"/><rect class="cls-5" x="106.76" y="81.53" width=".76" height="27.8" rx=".38" ry=".38" transform="translate(-15.91 169.21) rotate(-72.64)"/><line class="cls-3" x1="90.85" y1="100.94" x2="117.39" y2="109.24"/><rect class="cls-5" x="103.74" y="91.19" width=".76" height="27.8" rx=".38" ry=".38" transform="translate(-27.25 173.11) rotate(-72.64)"/><line class="cls-3" x1="85.79" y1="117.15" x2="112.32" y2="125.45"/><rect class="cls-5" x="98.67" y="107.4" width=".76" height="27.8" rx=".38" ry=".38" transform="translate(-46.28 179.65) rotate(-72.64)"/><line class="cls-3" x1="82.4" y1="128" x2="108.93" y2="136.29"/><rect class="cls-5" x="95.28" y="118.24" width=".76" height="27.8" rx=".38" ry=".38" transform="translate(-59.01 184.02) rotate(-72.64)"/><ellipse class="cls-5" cx="110.61" cy="83.06" rx="6.41" ry="6.16" transform="translate(-1.67 163.85) rotate(-72.64)"/><rect class="cls-4" x="88.28" y="117.68" width=".76" height="8.17" rx=".38" ry=".38" transform="translate(-54.02 170.05) rotate(-72.64)"/><rect class="cls-4" x="116.32" y="104.39" width=".76" height="2.9" rx=".38" ry=".38" transform="translate(-19.14 185.64) rotate(-72.64)"/><rect class="cls-4" x="92.98" y="102.64" width=".76" height="8.17" rx=".38" ry=".38" transform="translate(-36.36 163.98) rotate(-72.64)"/><rect class="cls-4" x="91.89" y="106.11" width=".76" height="8.17" rx=".38" ry=".38" transform="translate(-40.44 165.39) rotate(-72.64)"/><rect class="cls-4" x="90.8" y="109.6" width=".76" height="8.17" rx=".38" ry=".38" transform="translate(-44.53 166.79) rotate(-72.64)"/><rect class="cls-4" x="114.46" y="112.48" width=".76" height="1.92" rx=".38" ry=".38" transform="translate(-27.69 189.2) rotate(-72.64)"/><rect class="cls-4" x="113.38" y="115.96" width=".76" height="1.92" rx=".38" ry=".38" transform="translate(-31.77 190.6) rotate(-72.64)"/><rect class="cls-4" x="112.29" y="119.44" width=".76" height="1.92" rx=".38" ry=".38" transform="translate(-35.87 192.01) rotate(-72.64)"/><rect class="cls-4" x="108.26" y="132.31" width=".76" height="1.92" rx=".38" ry=".38" transform="translate(-50.97 197.2) rotate(-72.64)"/></svg>