<?xml version="1.0" encoding="UTF-8"?><svg xmlns="http://www.w3.org/2000/svg" version="1.1" viewBox="0 0 160 160"><defs><style>.cls-1 {
        fill: #fff;
      }

      .cls-2 {
        fill: #ff6200;
      }

      .cls-3 {
        fill: #a8a8a8;
      }</style></defs><!--Generator: Adobe Illustrator 28.6.0, SVG Export Plug-In . SVG Version: 1.2.0 Build 709)--><g><g id="Card"><g><path class="cls-3" d="M114.1,15.9h-6.7s-.3,0-.3,0l-2.4,3.7-13.8.2-2.7-3.8h-2.1s-40.4.1-40.4.1c-3.5,0-6.3,2.8-6.3,6.3l.3,115.4c0,3.5,2.8,6.3,6.3,6.3l68.4-.2c3.5,0,6.3-2.8,6.3-6.3l-.3-115.4c0-3.5-2.8-6.3-6.3-6.3Z"/><g><path class="cls-1" d="M82.3,119.2v6.8s2.9,0,2.9,0c.9,0,1.7-.6,1.7-1.2v-5.5s-4.6,0-4.6,0Z"/><path class="cls-1" d="M82.3,106.8v6.6s4.5,0,4.5,0v-5.4c0-.7-.8-1.2-1.7-1.2h-2.8Z"/><rect class="cls-1" x="78.2" y="106.8" width="3.6" height="5.5" transform="translate(-.1 .1) rotate(0)"/><rect class="cls-1" x="78.2" y="120.5" width="3.6" height="5.5" transform="translate(-.2 .1) rotate(0)"/><rect class="cls-1" x="73.2" y="113.9" width="1.8" height="4.9" transform="translate(-.2 0) rotate(0)"/><rect class="cls-1" x="85" y="113.9" width="1.8" height="4.9" transform="translate(-.2 .1) rotate(0)"/><path class="cls-1" d="M77.8,113.4v-6.6s-2.9,0-2.9,0c-.9,0-1.7.5-1.7,1.2v5.4s4.6,0,4.6,0Z"/><path class="cls-1" d="M73.2,119.2v5.5c0,.7.8,1.2,1.7,1.2h2.9s0-6.8,0-6.8h-4.6Z"/><polygon class="cls-1" points="84.8 120 75.2 120.1 75.2 112.7 84.8 112.6 84.8 120"/><path class="cls-2" d="M85,120.4h-10s0-8.2,0-8.2h10s0,8.2,0,8.2ZM75.5,120h9.2s0-7.2,0-7.2h-9.2s0,7.2,0,7.2Z"/><path class="cls-1" d="M82.3,119.2v6.8s2.9,0,2.9,0c.9,0,1.7-.6,1.7-1.2v-5.5s-4.6,0-4.6,0Z"/><path class="cls-1" d="M82.3,106.8v6.6s4.5,0,4.5,0v-5.4c0-.7-.8-1.2-1.7-1.2h-2.8Z"/><rect class="cls-1" x="78.2" y="106.8" width="3.6" height="5.5" transform="translate(-.1 .1) rotate(0)"/><rect class="cls-1" x="78.3" y="120.5" width="3.6" height="5.5" transform="translate(-.2 .1) rotate(0)"/><rect class="cls-1" x="73.2" y="113.9" width="1.8" height="4.9" transform="translate(-.2 0) rotate(0)"/><rect class="cls-1" x="85.1" y="113.9" width="1.8" height="4.9" transform="translate(-.2 .1) rotate(0)"/><path class="cls-1" d="M77.8,113.4v-6.6s-2.9,0-2.9,0c-.9,0-1.7.5-1.7,1.2v5.4s4.6,0,4.6,0Z"/><path class="cls-1" d="M73.2,119.2v5.5c0,.7.8,1.2,1.7,1.2h2.9s0-6.8,0-6.8h-4.6Z"/><polygon class="cls-1" points="84.9 120 75.3 120.1 75.3 112.7 84.8 112.6 84.9 120"/><path class="cls-3" d="M85.1,120.4h-10s0-8.2,0-8.2h10s0,8.2,0,8.2ZM75.5,120h9.2s0-7.2,0-7.2h-9.2s0,7.2,0,7.2Z"/></g><g><path class="cls-1" d="M68.3,49.6h-15.3c-2.8,0-5.1-2.3-5.1-5.1v-15.3c0-2.8,2.3-5.1,5.1-5.1h15.3c2.8,0,5.1,2.3,5.1,5.1v15.3c0,2.8-2.3,5.1-5.1,5.1"/><path class="cls-2" d="M73.4,43.1c-.7-.4-1.6-.9-1.7-.9-.4-.1-.6-.3-1-.4v-.8c.6.2,1.6.3,2.8.7v1.4ZM68.2,26.1c-.2.7-.3,1.7-.8,1.9-.2.1-.3.1-.4.1v-.8c0-.1.4-.8.3-.9,0,0-.9.2-1.1.3-.1.1-.7.4-.8.4,0,0-.3-.1-.4-.1-.3-.2-.5-.2-.8-.4-.4,1.2-.5,1.6-.5,1.4,0,0-1.5-.9-2-1.6-1.3.2-1.3.4-2.5.8-.4.4-1,.9-1.5,1.6-.2.4-.4.6-.6,1l1,.4c.1-.1.6-.8.7-1,.7-.4,2-1.1,2.4-1.6.1.2,1.3.9,1.9,1.2.4.3.8.4,1.2.6.2-.3.4-.6.6-1.4.3.2.7.2,1,.3,0,.4,0,.8.1,1.2,0,.2.2.1.6-.1.6-.2,1.2-.3,1.6-.4.7-.4,1.1-1.2,1.8-1.2s1.5.3,1.7.5c.3.1.5.2.8.2s.5-.2.8-.4c0,.4.1.7.1,1.1v11.7c-1.1-.5-2.1-.7-2.9-.7,0-.1-.2-.2,0-.3.3-.2.4-.3.5-.4.3-.4.5-.8.6-1.2.3-.6.6-.4.8-1.8-.3,0-.4.2-.7.3.1-.3.2-.6.2-.9.1-.6.3-1,.3-1.8.3-.1.8-.4.9-.8,0-.1,0-.4.1-.8,0-.6.1-1.1-.1-1.6,0-.1-.7-1.1-1.2-1.5-.7-.3-1-.2-1.6-.1-.6,0-1.4.6-1.4,1.8-.6,0-1.9.1-2.6.7-.6-.3-1.1-.4-1.7-.5h-.9c-.1-.4-.3-.8-.7-1.1-.5-.3-1.1-.7-1.9-.7s-.6-.1-.9.1c-.3.2-.8.4-.9.8-.2.5-.4.9-.4,1.5s.3.9.6,1.5c.1.2.2.2.4.3.1,0,.5.2.6.3.1.1-.1.4-.1,1s0,.5.1.9c0,.4.1.8.2,1.1-.3,0-.5-.3-.7-.1,0,.2.2.7.4,1.1.5.5,1,1,1.3,1.7,0,.1,0,.3.1.3-.7.1-1.5.1-2.2.3-.6.2-1.3.5-2,.8,0,.4.1.7.1.7.1,0,1-.5,1.9-.7,1.3-.4,2.1-.3,2.1-.3.1.2.2.5.1.6-1.2.5-2.5,1.1-3.6,1.9.1.2,0,.5.2.7,1-.6,2.5-1.3,3.5-1.8.4-.1.4,0,.6,0,.1.1.3.5.5.5.3,0,.6-.3.9-.4.6-.2,1.1-.4,1.8-.5.2-.1.2-.3.2-.5q.1-.2.1-.5c0-.1-.4-.2-.6-.6-.2-.3,0-.6-.1-.6-.3.2-.7.4-.8,0-.1-.3-.1-.7.2-.8,1-.4,2.2-.4,3.2,0,.2,0,.3.2.3.4.1.2,0,.4-.2.6-.3.1-.6-.3-.6,0s-.2.7-.7.9c-.1.1,0,.4.1.7,0,.1,0,.3.1.3.4.1,1,.2,1.3.4.4.2,1.1.8,1.2.7.3-.2.4-.5.6-.7,1.1.5,1.9.8,3.2,1.5v.7c0,.8-.2,1.5-.5,2.2-.1-.2-.2-.4-.2-.5q-.2-.1-.5-.1c-.1-.1-.3-.1-.4-.1,0,0,.1.5.3,1,0,.2.2.3.4.4-.3.4-.6.8-1,1.1-.1-.3-.2-.6-.2-.6-.2-.2.2-.9-.3-.9-.2-.1-.8-.3-.8-.3-.1.3-.1.9,0,1.2,0,.2.3.8.5,1.1-.4.2-.8.4-1.3.5,0-.3-.1-.6-.2-.7v-1.7c-.4.1-.5.2-.6.2-.3.2-.5.3-.5.5,0,.4.1.8.1,1,0,.3,0,.5.1.6.2,0,.3,0,.4.1-.1,0-.2,0-.3,0h-1.5c.2-.3.4-.5.5-.7.1-.3,0-.8-.1-1.3-.4.1-1.2.2-1.2.5-.1.3,0,.6,0,.8.1.2.1.4.1.7s0,0,0,0h-.8c0-.2,0-.3,0-.4-.1-.3,0-.6-.1-.9-.1-.2-.3-.3-.5-.3s-.7-.3-.7-.1c-.5,0-.1.5-.1.8s.3.6.6,1h-7.1c0,0,.2-.1.3-.2.2-.3.8-.9,1-1.1-.2-.2-.3-.5-.4-.7-.4,0-2,.6-2,.6.3.5.5.9.7,1.5h-3.7c-2.8,0-5.1-2.3-5.1-5.1v-15.3c0-2.8,2.3-5.1,5.1-5.1h15.3c2.3,0,4.2,1.5,4.8,3.5-.8-.5-1.7-1-2.6-1.4-.6.5-1,.9-1.4.9s-.1-.6-.1-1c-.3,0-.5,0-.8-.1M68.8,38.9c-.1-.2-.2-.4-.3-.6-.2-.2-.3-.2-.6-.4,0-.7-.1-.7-.1-1.5s-.2-1.2-.2-1.2c0-.1.3-.4.6-.5,0,0,2,0,2.9.1,0,0-.1.2-.2.2-.1.2-.3.3-.5.4-.1,0-.2.2-.2.3-.2.3-.5.4-.9.4s-.6,0-.8-.4c0,0,.1,1.2.1,1.6s.1.1.1.1c.4.1.5.5.7.7,0,0,.1.1.2.1.4.3,1.3.7.9.7,0,.2-.3.7-.4.7-.3-.3-.8-.5-1.2-.7M69.9,40.8c0,.1-.1.6-.1.6-.4-.1-.7-.4-1.2-.4q0-.3.1-.4c.6-.1.9.1,1.2.2M67.2,32.7c-.4-.4.6-.1,1.1,0,.2,0,2,.4.8.9-.2.2-.7.1-1.2.1,0-.2,0-.6-.2-.6-.2-.2-.5-.2-.5-.4M70.3,30.6c.3-.3.7-.4,1.1-.3.5.1.6.2.8.4.3.4.2,1.2.1,1.8-.1.3-.4.5-.7.5-.5-.6-1-1-1.8-1.2-.1-.4.2-.8.4-1.1M63.8,38.6c-.1.3-.1.5-.4.6-.3.1-.5.4-.7.3-.3-.2-.2-.7,0-1,.2-.3.6-.5.9-.6.4-.1.3-.9.3-1,.1-.2,0-.5,0-.7-.2.1-.2,0-.6.1-.4,0-.6-.2-.8-.4-.2-.2-.7-.6-.9-1,.5-.1.9-.1,1.5-.1h1.3c.3.1.5.3.5.5s-.1.7-.1.8c-.1.6-.1.8-.2,1.8v.3c-.1.2-.5.3-.7.5M64,40.8c-.1.1-.5.3-.5.3-.2.1-.3.2-.6.3-.1-.2-.2-.6-.2-.6,0,0,.4-.1.7-.1s.4,0,.6.1M60.9,33.2c-.2-.2-.6-.5-.8-.9-.3-.4-.2-.8-.2-.9.2-.6.9-.8,1.3-.9.2,0,.4,0,.7.2.4.2.6.2.8.9,0,.1,0,.2-.1.2,0,0-.6.4-.8.6-.5.3-.6.8-.9.8M64,33.8h-.5c0-.3.2-.4.5-.7.3-.2.6-.4.8-.4.2-.1.6-.2.6,0,0,.4-.3.6-.6,1-.2.3-.3.1-.8.1"/><path class="cls-2" d="M68.5,41c.5,0,.8.3,1.2.4,0,0,.1-.5.1-.6-.3-.1-.6-.3-1.2-.2q-.1.1-.1.4"/><path class="cls-2" d="M70.5,38.9c.4,0-.5-.4-.9-.7-.1,0-.2-.1-.2-.1-.2-.2-.3-.6-.7-.7,0,0-.1,0-.1-.1,0-.3-.1-1.6-.1-1.6.2.4.6.4.8.4.4,0,.7-.1.9-.4,0-.1.1-.3.2-.3.2-.1.4-.2.5-.4.1,0,.2-.2.2-.2-.9-.1-2.9-.1-2.9-.1-.3.1-.6.4-.6.5,0,0,.2,1.1.2,1.2,0,.7.1.7.1,1.5.3.2.4.2.6.4.1.2.2.4.3.6.4.2.9.4,1.2.7.1,0,.4-.5.4-.7"/><path class="cls-2" d="M71.6,33c.3,0,.6-.2.7-.5.1-.5.2-1.4-.1-1.8-.2-.2-.3-.3-.8-.4-.4-.1-.8,0-1.1.3-.2.3-.5.7-.4,1.1.7.2,1.2.6,1.8,1.2"/><path class="cls-2" d="M67.9,33.7c.5,0,1,.1,1.2-.1,1.1-.5-.6-.9-.8-.9-.5-.1-1.6-.4-1.1,0,0,.2.3.2.5.4.2,0,.2.4.2.6"/><path class="cls-2" d="M69.1,27.2c.3,0,.7-.4,1.4-.9.9.4,1.8.9,2.6,1.4-.7-2-2.6-3.5-4.8-3.5h-15.3c-2.8,0-5.1,2.3-5.1,5.1v15.3c0,2.8,2.3,5.1,5.1,5.1h3.7c-.2-.5-.4-1-.7-1.5,0,0,1.6-.6,2-.6.1.2.2.5.4.7-.2.2-.8.8-1,1.1,0,0-.2.2-.3.2h7.1c-.3-.3-.6-.7-.6-1s-.4-.8.1-.8c0-.2.5.1.7.1s.4.1.5.3c.1.3,0,.6.1.9,0,.1,0,.3,0,.4h.8s0,0,0,0c0-.3,0-.5-.1-.7,0-.2-.1-.5,0-.8,0-.3.8-.4,1.2-.5.1.5.2,1,.1,1.3,0,.3-.3.5-.5.7h1.5c.1,0,.2,0,.3,0-.1,0-.2,0-.4-.1-.1-.1-.1-.3-.1-.6s-.1-.6-.1-1,.2-.3.5-.5c.1,0,.2-.1.6-.2v1.7c0,.2.1.5.2.7.4,0,.9-.2,1.3-.5-.2-.3-.5-.9-.5-1.1-.1-.3-.1-.9,0-1.2,0,0,.6.2.8.3.5,0,.1.7.3.9,0,0,0,.3.2.6.4-.3.7-.7,1-1.1-.1,0-.3-.2-.4-.4-.2-.5-.3-1-.3-1,.1,0,.3,0,.4.1q.3,0,.5.1c0,0,0,.3.2.5.3-.7.5-1.4.5-2.2v-.7c-1.3-.8-2.1-1.1-3.2-1.5-.2.2-.3.5-.6.7-.1.1-.8-.5-1.2-.7-.3-.2-.9-.3-1.3-.4-.1,0-.1-.2-.1-.3-.1-.3-.2-.6-.1-.7.5-.2.7-.6.7-.9s.3.1.6,0c.2-.2.3-.4.2-.6,0-.2-.1-.4-.3-.4-1-.4-2.2-.4-3.2,0-.3.1-.3.5-.2.8.1.4.5.2.8,0,.1,0-.1.3.1.6.2.4.6.5.6.6q0,.3-.1.5c0,.2,0,.4-.2.5-.6.1-1.1.3-1.8.5-.3.1-.6.4-.9.4s-.4-.4-.5-.5c-.2,0-.2-.1-.6,0-1,.4-2.5,1.1-3.5,1.8-.2-.2-.1-.5-.2-.7,1.1-.7,2.4-1.3,3.6-1.9.1-.1,0-.4-.1-.6,0,0-.7-.1-2.1.3-.8.2-1.8.7-1.9.7,0,0-.1-.3-.1-.7.6-.3,1.3-.6,2-.8.7-.2,1.5-.2,2.2-.3-.1,0-.1-.2-.1-.3-.3-.6-.8-1.1-1.3-1.7-.2-.4-.4-.9-.4-1.1.2-.2.4.1.7.1-.1-.3-.2-.7-.2-1.1q-.1-.4-.1-.9c0-.6.2-.9.1-1-.1-.1-.5-.3-.6-.3-.2-.1-.3-.1-.4-.3-.3-.5-.6-.9-.6-1.5s.2-.9.4-1.5c.1-.4.6-.6.9-.8.3-.2.6-.1.9-.1.7,0,1.3.4,1.9.7.4.3.6.7.7,1.1h.9c.5.1,1,.2,1.7.5.7-.6,2-.7,2.6-.7,0-1.1.8-1.8,1.4-1.8.5-.1.8-.2,1.6.1.5.3,1.2,1.3,1.2,1.5.2.4.1.9.1,1.6-.1.4-.1.7-.1.8-.1.4-.6.7-.9.8,0,.7-.2,1.1-.3,1.8,0,.3-.1.6-.2.9.3-.1.4-.3.7-.3-.2,1.3-.5,1.1-.8,1.8-.1.4-.3.8-.6,1.2-.1.1-.2.2-.5.4-.2.1,0,.2,0,.3.8,0,1.7.2,2.9.7v-11.7c0-.4,0-.8-.1-1.1-.2.2-.5.4-.8.4s-.5-.1-.8-.2c-.2-.2-1.1-.5-1.7-.5s-1,.8-1.8,1.2c-.3.1-.9.2-1.6.4-.4.2-.6.3-.6.1-.1-.4-.1-.8-.1-1.2-.3-.1-.7-.1-1-.3-.2.7-.4,1-.6,1.4-.4-.2-.8-.3-1.2-.6-.5-.3-1.8-1-1.9-1.2-.4.4-1.7,1.1-2.4,1.6-.1.2-.6.9-.7,1l-1-.4c.2-.4.4-.6.6-1,.4-.6,1-1.1,1.5-1.6,1.1-.4,1.1-.6,2.5-.8.5.6,2,1.6,2,1.6,0,.2.1-.1.5-1.4.3.2.5.2.8.4.1,0,.4.1.4.1.1,0,.7-.3.8-.4.2-.1,1.1-.3,1.1-.3.1.1-.3.8-.3.9v.8c.1,0,.2,0,.4-.1.5-.2.6-1.1.8-1.9.3.1.5.1.8.1,0,.4-.2,1,.1,1M66.2,42.8c1,0,2.1.1,2.9.6,0,.4,0,.9-.2,1.3,0,.1-.2.5-.4.7-.3-.4-.9-.8-.9-.8.1.4,0,.5-.1,1,0,.1-.7.1-.7.1-.6-.3-.7-.7-.7-.7,0,.1-.1.8-.5.8s-.7,0-.7-.3c-.1-.3-.1-.5-.1-.8v-.4c-.3.1-.5.4-.7.6-.1,0-.2-.2-.3-.2-.2-.4-.3-.7-.4-1.1,1-.7,2.1-.8,3-.8M61.6,45.9c.1-.1.3.1.4.1.3.2.4.4.5.6.1.2.2.7.2.7,0,.7-.3.9-.4,1.3-.2-.3-.3-.7-.4-1-.1-.3-.3-.5-.5-.8.1-.1.2-.9.2-.9M59.5,45.1c.2.1.5.2.6.4.2.3,0,.7.1,1,.1.5.4,1.5.4,1.5-.3-.2-.6-.3-.9-.5-.2-.1-.4-.2-.4-.3-.1-.3-.2-1-.2-1.2,0-.4.2-.8.4-.8M55.5,45.1c-.1-.3-.1-.6-.2-.9,0-.3-.1-1.5-.1-1.7v-.5c.4-.2.9-.5,1.3-.7-.1.5-.2.7-.2,1.6s.2.8.3,1.6c-.2.4-.3.7-.6,1-.1.2-.3.3-.3.3,0-.2-.1-.4-.2-.6M56.5,47.2c0,.2-.3.4-.3.4,0-.4,0-.9,0-1.1-.1-.2-.2-.3-.2-.5.1-.1.3-.2.5-.3.1-.2.6-.5.7-.6.3.3.4.4.6.9-.1.1-.7.6-1.2,1.2M57.9,38.9c-1,.5-1.5,1-1.7,1.2-.3.4-.9,1-1.1,1.4v-1.2q-.2-.3-.2-.9c.5-.3.7-.5,1.2-.8.2-.2.9-.4,2-.7,0,.4-.1.7-.2,1.1M58.3,35.4c.1.2-.1.2-.1.8-.1.2-.2.1-.4.3-.1.1-1.2.9-1.3,1-.2.1-.3.2-.6.5-.1-.3-.1-.6-.2-.9,0-.1,0-.8.1-1.1,0-.2.9-.5,1.5-.6.2,0,1-.2,1.1,0M57.8,30.4c-.1.7-.2.9-.2,1.8s.2.6.3.8c.1.2.2.4.2.6s-.1.2-.2.3c-.3.2-.4.1-.5.3-.5.4-.7.6-1.1.9q-.2.2-.4.5s-.1-1.1-.2-1.8c.4-.2.6-.4,1-.7-.1-.6-.2-1-.2-1.6s0-.6.2-.9c.2-.4.7-.4,1.1-.3"/><path class="cls-2" d="M70.6,41.7c.4.1.6.3,1,.4.2,0,1.1.6,1.7.9v-1.4c-1.1-.5-2.2-.6-2.8-.7v.8Z"/><path class="cls-2" d="M65.5,32.7c0-.2-.4-.1-.6,0-.2,0-.5.2-.8.4-.3.3-.5.4-.5.7h.5c.5,0,.6.2.8-.1.3-.4.6-.6.6-1"/><path class="cls-2" d="M64.6,38.1v-.3c.1-.9.1-1.1.2-1.8,0-.1.1-.7.1-.8,0-.2-.2-.4-.5-.5h-1.3c-.5,0-.9,0-1.5.1.2.4.7.8.9,1,.2.2.4.4.8.4.4-.1.4,0,.6-.1,0,.2.1.5,0,.7,0,.1.1.9-.3,1-.3.1-.7.3-.9.6-.2.3-.3.8,0,1,.2.1.4-.2.7-.3.3-.1.3-.3.4-.6.2-.2.6-.3.7-.5"/><path class="cls-2" d="M62.8,31.6c-.2-.7-.4-.7-.8-.9-.3-.2-.5-.2-.7-.2-.4.1-1.1.3-1.3.9,0,.1-.1.5.2.9.2.4.6.7.8.9.3,0,.4-.5.9-.8.2-.2.8-.6.8-.6.1,0,.1-.1.1-.2"/><path class="cls-2" d="M62.7,40.8s.1.4.2.6c.3-.1.4-.2.6-.3,0,0,.4-.2.5-.3-.2-.1-.4-.1-.6-.1-.3,0-.7.1-.7.1"/><path class="cls-1" d="M62.3,48.7c.1-.4.4-.6.4-1.3,0,0-.1-.5-.2-.7-.1-.2-.2-.4-.5-.6-.1,0-.3-.2-.4-.1,0,0-.1.8-.2.9.2.3.4.5.5.8.1.3.2.7.4,1"/><path class="cls-1" d="M59.7,47.4c.3.2.6.3.9.5,0,0-.3-.9-.4-1.5-.1-.3.1-.7-.1-1-.1-.2-.4-.3-.6-.4-.2,0-.4.4-.4.8s.1.9.2,1.2c0,.1.2.2.4.3"/><path class="cls-1" d="M63.9,45c.2-.2.4-.5.7-.6v.4c0,.3,0,.5.1.8,0,.3.3.3.7.3s.5-.7.5-.8c0,0,.1.4.7.7,0,0,.7,0,.7-.1.1-.5.2-.6.1-1,0,0,.6.4.9.8.2-.2.4-.6.4-.7.2-.4.2-.9.2-1.3-.8-.5-1.9-.6-2.9-.6s-2,.1-3,.8c.1.4.2.7.4,1.1.1,0,.2.2.3.2"/><path class="cls-1" d="M57.2,35.4c-.5.1-1.5.4-1.5.6-.1.3-.1,1-.1,1.1.1.3.1.6.2.9.3-.3.4-.4.6-.5.1-.1,1.2-.9,1.3-1,.2-.2.3-.1.4-.3,0-.6.2-.6.1-.8-.1-.2-.9,0-1.1,0"/><path class="cls-1" d="M56.7,30.7c-.2.3-.2.6-.2.9,0,.5.1.9.2,1.6-.4.3-.6.5-1,.7.1.6.2,1.8.2,1.8q.2-.3.4-.5c.4-.3.6-.5,1.1-.9.1-.2.2-.1.5-.3.1-.1.2-.2.2-.3,0-.2-.1-.4-.2-.6-.1-.2-.3-.7-.3-.8,0-.8.1-1,.2-1.8-.4-.1-.9-.1-1.1.3"/><path class="cls-1" d="M54.9,39.3q0,.6.1.9v1.2c.3-.3.9-.9,1.2-1.4.2-.2.6-.7,1.7-1.2.1-.4.2-.7.2-1.1-1,.3-1.8.5-2,.7-.5.3-.7.5-1.2.8"/><path class="cls-1" d="M56.1,45.4c.3-.3.4-.6.6-1-.1-.7-.3-1.3-.3-1.6,0-.8.1-1,.2-1.6-.4.2-.9.5-1.3.7v.5c0,.2.1,1.3.1,1.7.1.3.1.6.2.9.1.2.2.4.2.6,0,0,.2-.1.3-.3"/><path class="cls-1" d="M56.4,45.7c-.2.1-.4.2-.5.3,0,.2.1.3.2.5,0,.2,0,.7,0,1.1,0,0,.3-.2.3-.4.5-.6,1.1-1.1,1.2-1.2-.2-.5-.3-.6-.6-.9-.1.1-.6.4-.7.6"/></g></g></g></g></svg>