<svg viewBox="0 0 160 160" fill="none" xmlns="http://www.w3.org/2000/svg"><path d="M65.43 59.7999L77.82 55.6499L94.55 70.3699L69.97 74.2899L65.43 59.7999Z" fill="#F9C59A"/><path d="M74.68 75.51L50.34 83.71L47.22 55.92L62.02 49.27L74.68 75.51Z" fill="#FFB00A"/><path d="M117.15 53.2551L112.772 61.7422L113.706 62.2235L118.083 53.7364L117.15 53.2551Z" fill="#EE2E3B"/><path d="M122.282 51.0331L116.455 62.2056L117.386 62.6911L123.213 51.5187L122.282 51.0331Z" fill="#EE2E3B"/><path d="M110.82 48.5399C110.82 48.5399 107.37 44.0599 106.95 38.4499C106.53 32.8399 117.83 19.1899 117.83 19.1899L119.01 39.8299L121.12 41.8499L110.82 48.5399Z" fill="#C8BBB6"/><path d="M133 35.1096C131.79 38.1496 125.92 52.6196 118.39 54.7496C110.63 56.9396 99.32 53.4296 99.4 48.8496C99.5 42.9596 108.23 46.3296 115.78 43.4996C131.25 37.7196 135.82 27.9896 133 35.1096Z" fill="#D7C8C2"/><path d="M115.36 44.4098C115.36 44.4098 112.46 39.5598 112.69 33.9398C112.92 28.3198 125.73 16.0698 125.73 16.0698L124.52 36.7098L126.38 38.9598L115.36 44.4098Z" fill="#D7C8C2"/><path d="M99.4 48.8296L95.02 52.8396L100.35 51.1496L99.4 48.8296Z" fill="#EE2E3B"/><path d="M100.35 51.1499L101.84 52.4599L95.01 52.8499C95.38 52.6899 100.35 51.1499 100.35 51.1499Z" fill="#EE2E3B"/><path d="M103.8 49.3198C104.358 49.3198 104.81 48.8676 104.81 48.3098C104.81 47.752 104.358 47.2998 103.8 47.2998C103.242 47.2998 102.79 47.752 102.79 48.3098C102.79 48.8676 103.242 49.3198 103.8 49.3198Z" fill="black"/><path d="M90.89 70.3001L73.79 62.8101L62.05 67.1201L73.34 80.7101L90.89 70.3001Z" fill="#6C65FF"/><path d="M43.85 51.2099C43.85 51.2099 55.25 49.4499 60.3 56.8599C67.47 67.3799 76.6 74.0599 91.55 68.7999C96.21 67.1599 99.18 69.6099 99.18 69.6099C99.18 69.6099 92.1 71.8999 96.68 79.9999C102.19 92.5499 103.5 107.25 103.5 117.69V126.29C103.5 136.01 96.63 143.92 88.18 143.92H41.54C33.09 143.92 26.22 136.01 26.22 126.29V117.69C26.22 113.6 26.38 108.89 26.88 103.92C27.73 95.5099 30.05 87.2899 33.94 79.7799C35.56 76.6499 38.7 72.1299 40.83 69.6599C45.98 63.7099 46.39 56.9299 43.85 51.2099Z" fill="#231F46"/><path d="M92.53 84.7997C91.36 81.6797 90.9 78.4696 91.06 75.3896L73.53 81.9296C73.38 85.0096 73.84 88.2196 75 91.3396C76.17 94.4596 77.91 97.1896 80.05 99.4196L97.58 92.8796C95.44 90.6496 93.69 87.9197 92.53 84.7997Z" fill="#F6E2C8"/><path d="M88.78 82.3698C88.59 81.9898 88.15 81.8198 87.77 81.9898C87.29 82.2098 86.87 82.5298 86.52 82.9498C86.37 83.1298 86.23 83.3398 86.09 83.6198C86.05 83.6898 86.02 83.7598 85.98 83.8398L85.93 83.9398C85.91 83.9698 85.9 84.0098 85.88 84.0398L85.87 84.0498L85.82 84.1298C85.77 84.2098 85.72 84.2898 85.66 84.3598C85.64 84.3898 85.61 84.4198 85.58 84.4498C85.56 84.4698 85.54 84.4898 85.52 84.5098C85.46 84.5698 85.39 84.6198 85.32 84.6698C85.31 84.6698 85.31 84.6798 85.3 84.6798L85.26 84.6998C85.22 84.7198 85.18 84.7398 85.13 84.7598C85.09 84.7798 85.05 84.7898 85.02 84.8098L84.98 84.8198C84.97 84.8198 84.96 84.8298 84.95 84.8298C84.87 84.8498 84.79 84.8598 84.72 84.8698C84.69 84.8698 84.67 84.8698 84.64 84.8798C84.63 84.8798 84.61 84.8798 84.6 84.8798H84.56C84.47 84.8798 84.38 84.8698 84.29 84.8498L84.26 84.8398C84.25 84.8398 84.23 84.8298 84.22 84.8298C84.19 84.8198 84.15 84.8098 84.12 84.7998C84.08 84.7898 84.04 84.7698 84 84.7598C83.93 84.7398 83.86 84.7098 83.79 84.6898C83.51 84.6098 83.27 84.5698 83.05 84.5498C82.54 84.5098 82.04 84.5798 81.55 84.7598C80.63 85.0998 79.88 85.8398 79.44 86.8498L79.42 86.9098C79.41 86.9398 79.39 86.9798 79.38 87.0098L79.36 87.0498C79.32 87.1098 79.28 87.1698 79.23 87.2398L79.16 87.3198C79.13 87.3498 79.1 87.3798 79.07 87.4098C79.03 87.4398 79 87.4698 78.96 87.4898L78.92 87.5098C78.91 87.5198 78.9 87.5198 78.89 87.5298C78.82 87.5698 78.74 87.6098 78.67 87.6398C78.64 87.6498 78.61 87.6598 78.57 87.6698C78.55 87.6698 78.54 87.6798 78.52 87.6798L78.48 87.6898C78.4 87.7098 78.31 87.7198 78.22 87.7198C78.22 87.7198 78.22 87.7198 78.21 87.7198H78.15C78.1 87.7198 78.05 87.7098 78 87.7098C77.8 87.6798 77.59 87.7498 77.42 87.8798C77.26 88.0098 77.16 88.1998 77.14 88.3998C77.11 88.8198 77.4 89.1798 77.81 89.2298C77.93 89.2498 78.05 89.2498 78.17 89.2498C79.06 89.2498 79.94 88.8198 80.48 88.0998C80.65 87.8798 80.76 87.6398 80.85 87.4298C80.89 87.3498 80.93 87.2698 80.97 87.1898L81 87.1298C81.03 87.0798 81.06 87.0398 81.09 86.9898C81.14 86.9198 81.19 86.8498 81.25 86.7798C81.27 86.7598 81.28 86.7398 81.3 86.7198L81.32 86.6998L81.34 86.6798C81.36 86.6598 81.38 86.6398 81.4 86.6198C81.47 86.5598 81.54 86.4998 81.61 86.4398C81.65 86.4098 81.69 86.3898 81.72 86.3598L81.8 86.3198C81.88 86.2698 81.97 86.2298 82.05 86.1998C82.09 86.1798 82.13 86.1698 82.17 86.1598L82.23 86.1398C82.31 86.1198 82.39 86.0998 82.48 86.0898C82.52 86.0798 82.57 86.0798 82.62 86.0698L82.71 86.0598C82.88 86.0598 83.05 86.0798 83.23 86.1198L83.25 86.1298H83.26C83.27 86.1298 83.27 86.1298 83.28 86.1398C83.33 86.1498 83.38 86.1698 83.43 86.1798L83.5 86.1998C83.59 86.2298 83.68 86.2598 83.78 86.2798C84.34 86.4198 84.85 86.4398 85.32 86.3098C85.89 86.1598 86.37 85.8598 86.76 85.4298C86.98 85.1898 87.14 84.9098 87.25 84.6998C87.29 84.6198 87.33 84.5398 87.37 84.4498L87.45 84.2898C87.45 84.2898 87.45 84.2798 87.46 84.2798L87.47 84.2698C87.5 84.2198 87.53 84.1698 87.56 84.1198C87.62 84.0298 87.68 83.9398 87.75 83.8598L87.81 83.7898C87.84 83.7598 87.88 83.7298 87.91 83.6998C87.98 83.6398 88.07 83.5698 88.17 83.5098L88.24 83.4698C88.29 83.4398 88.34 83.4198 88.39 83.3998C88.58 83.3098 88.73 83.1498 88.8 82.9498C88.87 82.7498 88.86 82.5398 88.78 82.3698Z" fill="#EE2E3B"/><path d="M93.27 113.48C94.44 110.35 94.9 107.14 94.75 104.05L112.33 110.61C112.49 113.7 112.02 116.91 110.85 120.04C109.68 123.17 107.93 125.9 105.79 128.14L88.21 121.58C90.35 119.34 92.1 116.61 93.27 113.48Z" fill="#F6E2C8"/><path d="M96.8 115.82C96.75 115.96 96.71 116.1 96.67 116.25C96.65 116.33 96.64 116.41 96.66 116.48C96.66 116.56 96.69 116.63 96.73 116.7C96.77 116.77 96.82 116.82 96.88 116.86C96.94 116.91 97 116.95 97.08 116.97C97.13 116.98 97.18 116.98 97.24 116.99C97.35 116.99 97.44 116.96 97.54 116.91C97.58 116.88 97.62 116.85 97.66 116.82C97.73 116.75 97.78 116.66 97.81 116.56C97.85 116.42 97.89 116.27 97.94 116.13C97.96 116.05 97.97 115.97 97.95 115.9C97.95 115.82 97.92 115.75 97.88 115.68C97.84 115.61 97.79 115.56 97.73 115.52C97.67 115.47 97.61 115.43 97.53 115.41C97.48 115.4 97.43 115.4 97.37 115.39C97.26 115.39 97.17 115.42 97.07 115.47C97.03 115.5 96.99 115.53 96.95 115.56C96.88 115.64 96.83 115.72 96.8 115.82Z" fill="#FFB00A"/><path d="M98.66 113.16C98.33 113.46 98.04 113.8 97.78 114.16C97.74 114.23 97.71 114.3 97.71 114.38C97.69 114.46 97.7 114.54 97.72 114.61C97.76 114.75 97.86 114.89 97.99 114.96C98.13 115.03 98.29 115.07 98.44 115.02C98.49 115 98.53 114.98 98.58 114.96C98.67 114.91 98.74 114.84 98.79 114.75C98.83 114.69 98.88 114.63 98.92 114.57C98.89 114.61 98.86 114.65 98.83 114.69C99.03 114.44 99.25 114.2 99.49 113.99C99.55 113.94 99.59 113.87 99.61 113.8C99.65 113.73 99.66 113.65 99.66 113.57C99.66 113.43 99.6 113.25 99.49 113.16C99.38 113.06 99.23 112.98 99.08 112.99C99.03 113 98.98 113 98.92 113.01C98.82 113.04 98.73 113.09 98.66 113.16Z" fill="#FFB00A"/><path d="M107.5 115.82C107.49 115.79 107.47 115.76 107.46 115.74C107.46 115.74 107.31 115.42 107.62 114.59C107.62 114.59 107.62 114.58 107.63 114.58C107.76 114.22 107.57 113.83 107.21 113.7C107.09 113.66 106.98 113.65 106.86 113.67C106.86 113.67 106.41 113.77 105.85 113.57C105.08 112.92 104.14 112.46 103.1 112.29C102.79 112.24 102.47 112.37 102.38 112.7C102.3 112.98 102.48 113.37 102.79 113.42C104.25 113.66 105.5 114.5 106.2 115.81C106.82 116.98 106.89 118.37 106.41 119.6C106.23 120.06 105.98 120.47 105.68 120.83C105.51 120.93 104.95 121.22 104.19 120.91C103.85 120.73 103.43 120.84 103.22 121.16C103.17 121.24 103.14 121.32 103.12 121.4C103.12 121.4 102.91 122.23 102.09 122.45C101.3 122.44 100.5 122.23 99.79 121.8C98.46 120.99 97.65 119.52 97.63 117.96C97.62 117.21 96.44 117.2 96.46 117.96C96.49 119.68 97.27 121.33 98.62 122.4C99.99 123.47 101.77 123.88 103.47 123.5C105.06 123.14 106.46 122.06 107.22 120.62C108 119.16 108.13 117.37 107.5 115.82Z" fill="#FFB00A"/></svg>