<svg viewBox="0 0 160 160" fill="none" xmlns="http://www.w3.org/2000/svg"><path d="M113.09 22.3203H96.25V133.15H113.09V22.3203Z" fill="#E5F0FF"/><path d="M117 133.15V55.4102H92.35V133.15H92.96L104.6 124.67L116 133.15H117ZM115.57 74.1202L105.7 65.7902L115.57 57.6202V74.1202ZM115.57 93.0602L106.05 85.1202L115.57 77.1802V93.0602ZM93.79 76.7602L103.81 85.1202L93.79 93.4802V76.7602ZM94.24 75.2702L104.57 66.7202L115.15 75.6602L104.92 84.1902L94.24 75.2702ZM104.93 86.0502L115.12 94.5502L104.58 103.45L94.28 94.9302L104.93 86.0502ZM104.58 64.8402L95.11 56.8502H114.23L104.58 64.8402ZM103.46 65.7702L93.79 73.7802V57.6002L103.46 65.7702ZM93.79 96.3902L103.46 104.4L93.79 112.57V96.3902ZM104.58 105.33L115.14 114.07L104.6 122.79L94.23 114.06L104.58 105.33ZM105.7 104.39L115.57 96.0602V112.56L105.7 104.39ZM93.79 130.67V115.57L103.49 123.72L93.79 130.67ZM115.57 115.59V130.93L105.73 123.74L115.57 115.59Z" fill="#232144"/><path d="M74.22 31.0801H56.58V133.15H74.22V31.0801Z" fill="#E5F0FF"/><path d="M74.22 31.0801H56.6V35.7201H74.22V31.0801Z" fill="#ED1E79"/><path d="M74.22 40.3506H56.6V44.9906H74.22V40.3506Z" fill="#ED1E79"/><path d="M113.1 22.3203H96.25V26.9403H113.1V22.3203Z" fill="#ED1E79"/><path d="M113.1 31.5703H96.25V36.1903H113.1V31.5703Z" fill="#ED1E79"/><path d="M50.97 53.8408H45.73C40.89 53.8408 36.97 57.7608 36.97 62.6008V133.151H59.73V62.6008C59.73 57.7608 55.81 53.8408 50.97 53.8408Z" fill="#B0C2E4"/><path d="M25.82 133.15H22.82V47.9705C22.82 45.2205 25.06 42.9805 27.81 42.9805H45.04C47.79 42.9805 50.03 45.2205 50.03 47.9705V51.2305H47.03V47.9705C47.03 46.8705 46.14 45.9805 45.04 45.9805H27.81C26.71 45.9805 25.82 46.8705 25.82 47.9705V133.15Z" fill="#232144"/><path d="M50.29 51.2207H46.52C45.8 51.2207 45.22 51.8007 45.22 52.5207V53.8407H51.58V52.5207C51.59 51.8007 51.01 51.2207 50.29 51.2207Z" fill="#ED1E79"/><path d="M122.33 100.911H119.33V49.0205C119.33 47.8005 118.34 46.8105 117.12 46.8105H113.09V43.8105H117.12C119.99 43.8105 122.32 46.1405 122.32 49.0105V100.911H122.33Z" fill="#232144"/><path d="M128.5 104.87H113.31C109.92 108.26 108.1 110.16 104.71 113.56V133.15H137.18V113.56C133.78 110.16 131.89 108.26 128.5 104.87Z" fill="#B0C2E4"/><path d="M125.95 100.91H115.86C114.45 100.91 113.3 102.05 113.3 103.46V104.87H128.49V103.46C128.5 102.05 127.36 100.91 125.95 100.91Z" fill="#ED1E79"/><path d="M144 133.15H16V138.43H144V133.15Z" fill="#232144"/><path d="M104.71 85.7402H50.72V133.15H104.71V85.7402Z" fill="#8DA8DC"/><path d="M66.64 90.5898H57.4V98.3398H66.64V90.5898Z" fill="#E5F0FF"/><path d="M82.34 90.5898H73.1V98.3398H82.34V90.5898Z" fill="#E5F0FF"/><path d="M98.03 90.5898H88.79V98.3398H98.03V90.5898Z" fill="#E5F0FF"/><path d="M66.64 103.95H57.4V111.7H66.64V103.95Z" fill="#E5F0FF"/><path d="M82.34 103.95H73.1V111.7H82.34V103.95Z" fill="#E5F0FF"/><path d="M98.03 103.95H88.79V111.7H98.03V103.95Z" fill="#E5F0FF"/><path d="M66.64 117.311H57.4V125.061H66.64V117.311Z" fill="#E5F0FF"/><path d="M82.34 117.311H73.1V125.061H82.34V117.311Z" fill="#E5F0FF"/><path d="M98.03 117.311H88.79V125.061H98.03V117.311Z" fill="#E5F0FF"/></svg>