<?xml version="1.0" encoding="UTF-8"?><svg xmlns="http://www.w3.org/2000/svg" viewBox="0 0 160 160"><defs><style>.cls-1{fill:none;}.cls-2{fill:#171111;}.cls-3{fill:#232144;}.cls-4{fill:#e6e3da;}.cls-5{fill:#e3944f;}.cls-6{fill:#fff;}.cls-7{fill:#b0c2e4;}.cls-8{fill:#7070ff;}.cls-9{fill:#f7931e;}.cls-10{fill:#5773a4;}.cls-11{fill:#d0def2;}.cls-12{fill:#f0a86b;}</style></defs><g id="Character"><path class="cls-2" d="M67.62,78.32c-2.59,7.97-11.15,12.33-19.12,9.74-7.97-2.59-12.33-11.15-9.74-19.12,2.59-7.97,11.15-12.33,19.12-9.74,7.97,2.59,12.33,11.15,9.74,19.12"/><polygon class="cls-4" points="44.76 127.04 43.29 72.33 107.69 72.33 108.61 127.04 44.76 127.04"/><path class="cls-4" d="M28.01,89.64c-.67-8.87,5.98-16.6,14.85-17.27,8.87-.67,16.6,5.98,17.27,14.85.67,8.87-10.16,22.55-10.16,22.55,0,0-21.29-11.25-21.96-20.12"/><path class="cls-4" d="M123.49,89.64c.67-8.87-5.98-16.6-14.85-17.27-8.87-.67-16.6,5.98-17.27,14.85-.67,8.87,10.16,22.55,10.16,22.55,0,0,21.29-11.25,21.96-20.12"/><polygon class="cls-4" points="16 144 28.52 84.44 49.29 102.8 49.29 144 16 144"/><polygon class="cls-4" points="136.32 144 122.98 84.44 102.21 102.8 104.07 144 136.32 144"/><path class="cls-2" d="M74.38,57.49c-2.59,7.97-11.15,12.33-19.12,9.74-7.97-2.59-12.33-11.15-9.74-19.12,2.59-7.97,11.15-12.33,19.12-9.74,7.97,2.59,12.33,11.15,9.74,19.12"/><path class="cls-12" d="M98.31,46.34c0,2.76-2.24,5-5,5s-5-2.24-5-5,2.24-5,5-5,5,2.24,5,5"/><path class="cls-12" d="M64.36,46.33c0,2.76-2.24,5-5,5s-5-2.24-5-5,2.24-5,5-5,5,2.24,5,5"/><path class="cls-8" d="M59.95,48.57h0c2.49,0,4.5,2.02,4.5,4.5v4.45c0,2.49-2.02,4.5-4.5,4.5h0c-2.49,0-4.5-2.02-4.5-4.5v-4.45c0-2.49,2.02-4.5,4.5-4.5"/><path class="cls-8" d="M92.73,48.57h0c2.49,0,4.5,2.02,4.5,4.5v4.45c0,2.49-2.02,4.5-4.5,4.5h0c-2.49,0-4.5-2.02-4.5-4.5v-4.45c0-2.49,2.02-4.5,4.5-4.5"/><path class="cls-4" d="M63.98,71.87v-16.04l24.73.04v16c0,6.83-5.54,12.36-12.36,12.36s-12.36-5.54-12.36-12.36"/><path class="cls-12" d="M59.95,53.51v-23.08c0-7.3,5.91-13.21,13.21-13.21h6.36c7.3,0,13.21,5.91,13.21,13.21v23.08c0,7.3-5.91,13.21-13.21,13.21h-6.36c-7.3,0-13.21-5.91-13.21-13.21"/><path d="M80.05,45.03c.59-4.1,5.77-5.85,8.96-3.92-.2.31-.57.95-.76,1.26-.7-.43-4.36-1.9-7.68,2.08-.2.24-.23.34-.51.59"/><path class="cls-2" d="M60.15,47.11v-8.54c0-7.3,5.84-13.21,13.05-13.21h2.18v-4.08h1.93v4.08h2.18c7.21,0,13.05,5.91,13.05,13.21v8.54h2.56v-16.79c0-7.91-6.41-14.31-14.31-14.31h-8.88c-7.91,0-14.31,6.41-14.31,14.31v16.79h2.56Z"/><path class="cls-2" d="M89.99,26.89c5.35,6.23,5.03,15.27,5.03,15.27,0,0-8.98-1.06-14.33-7.29-5.35-6.23-5.03-15.27-5.03-15.27,0,0,8.98,1.06,14.33,7.29"/><path d="M76.22,52.03c-.19,0-.38-.02-.58-.06-.57-.11-1.1-.41-1.6-.86-.26-.24-.53-.35-.8-.33-.55.05-.98.6-.98.6l-.52-.4s.6-.79,1.44-.86c.46-.04.9.13,1.31.5.41.38.84.61,1.28.7.45.09.86.05,1.2-.13.14-.07.29-.19.43-.34.17-.19.66-.64,1.36-.66.56-.02,1.12.23,1.67.75l-.45.48c-.41-.39-.81-.58-1.2-.57-.45.02-.78.32-.9.45-.19.21-.39.36-.61.47-.32.17-.67.25-1.05.25Z"/><path class="cls-2" d="M66.85,35.72l-.19.07c-1.98.71-3.49,2.36-4.08,4.45l10.25-3.69c-1.79-1.23-4-1.54-5.98-.83"/><path class="cls-2" d="M84.63,35.72l.19.07c1.98.71,3.49,2.36,4.08,4.45l-10.25-3.69c1.79-1.23,4-1.54,5.98-.83"/><path class="cls-6" d="M72,45.03s-1.12.32-2.52.36c-.82.01-1.73-.06-2.57-.36-.44-.16-.83-.36-1.17-.58-1.44-.94-2.04-2.31-2.04-2.31,0,0,2.52-1.27,4.81-.47s3.5,3.36,3.5,3.36Z"/><path d="M72,45.03c-.59-4.09-5.77-5.84-8.95-3.92.2.31.57.94.76,1.26.7-.43,4.36-1.9,7.67,2.08.2.24.23.34.51.59"/><path class="cls-6" d="M88.36,42.14s-.57,1.31-1.95,2.24c-.37.26-.78.48-1.27.65-.81.28-1.68.37-2.47.36-1.44-.02-2.62-.36-2.62-.36,0,0,1.19-2.56,3.48-3.36s4.81.47,4.81.47Z"/><path d="M80.06,45.03c.59-4.09,5.77-5.84,8.95-3.92-.2.31-.57.94-.76,1.26-.7-.43-4.36-1.9-7.67,2.08-.2.24-.23.34-.51.59"/><path d="M69.71,44.48c0,.32-.08.64-.23.91-.82.01-1.73-.06-2.57-.36-.44-.16-.83-.36-1.17-.58.01-1.09.9-1.97,1.99-1.97s1.99.89,1.99,1.99Z"/><path d="M86.41,44.38c-.37.26-.78.48-1.27.65-.81.28-1.68.37-2.47.36-.15-.27-.23-.59-.23-.91,0-1.1.89-1.99,1.99-1.99s1.94.84,1.98,1.89Z"/><rect x="76.64" y="54.1" width="4.05" height="4.05" rx="2.02" ry="2.02"/><path class="cls-5" d="M71.46,83.28l-8.57-16.12c-.57-1.05-.18-2.37.87-2.94h0c1.05-.57,2.37-.18,2.94.87l5.14,9.8.28-.15-6.52-12.34c-.57-1.05-.18-2.37.87-2.94h0c1.05-.57,2.37-.18,2.94.87l6.07,11.51.28-.15-6.86-12.97c-.57-1.05-.18-2.37.87-2.94h0c1.05-.57,2.37-.18,2.94.87l7.31,13.8.28-.15-6.22-11.8c-.57-1.05-.18-2.37.87-2.94h0c1.05-.57,2.37-.18,2.94.87l7.91,14.95.07-6.53c.03-1.2,1.03-2.14,2.23-2.11h0c1.2.03,2.14,1.03,2.11,2.23l-.19,10.96c-.07,2.77-.58,5.5-1.49,8.11h0l5.8,10.7-11.97,6.49-7.59-14.01h0c-1.27-.99-2.34-2.22-3.13-3.62l-.19-.34h0Z"/></g><g id="Laptop"><path class="cls-10" d="M42.47,77.91h67.53c1.52,0,2.75,1.23,2.75,2.75v45.64H39.72v-45.64c0-1.52,1.23-2.75,2.75-2.75Z"/><polygon class="cls-10" points="124.37 140.91 28.1 140.91 39.7 126.31 112.74 126.31 124.37 140.91"/><rect class="cls-3" x="42.66" y="80.97" width="67.16" height="39.43"/><polygon class="cls-11" points="36.17 133.76 40.63 127.51 111.83 127.51 116.29 133.76 36.17 133.76"/><polygon class="cls-11" points="59.93 139.72 62.61 134.6 89.92 134.6 92.56 139.72 59.93 139.72"/><path class="cls-7" d="M123.05,143.98H29.41c-.73,0-1.32-.59-1.32-1.32v-1.76h96.27v1.76c0,.73-.59,1.32-1.32,1.32Z"/><rect class="cls-1" x="42.66" y="80.97" width="67.16" height="39.43"/><circle class="cls-11" cx="76.23" cy="79.54" r=".64"/></g><g id="Coffee"><ellipse class="cls-9" cx="92.81" cy="132.43" rx="20.19" ry="4.12"/><ellipse class="cls-9" cx="106.92" cy="137.06" rx="11.23" ry="3.19"/><path class="cls-3" d="M136.46,133.83c.9-1.6,1.47-3.34,1.69-5.12l3.33-3.33c2.78-2.78,3.12-7.16.81-10.34-2.66-3.65-7.75-4.32-11.25-1.68l-1.8-2.16-20.64,20.64,6.94,5.8c4.52,3.77,10.78,4.2,15.69,1.42,0,0,3.17-1.73,5.23-5.23ZM140.99,116.33h0c1.63,2.46,1.3,5.72-.78,7.81l-1.98,1.98c-.18-2.84-1.24-5.64-3.18-7.97l-2.85-3.41c2.79-2.03,6.81-1.39,8.79,1.6Z"/><path class="cls-9" d="M96.18,125.49c2.24-2.82.98-5.46-.43-8.23-.45-1.02-.48-2.25-.31-3.29.14-1.13.82-2.19,1.45-2.95,1.32-1.45,1.47-3.48.58-5.17-.43-.88-1.13-1.62-1.81-2.38.86.55,1.65,1.22,2.3,2.07,1.35,1.75,1.25,4.51-.18,6.16-1.24,1.49-1.61,3.4-1,5.16,1.37,2.97,2.34,6.19-.62,8.63h0Z"/><path class="cls-9" d="M100.63,122.36c-.11-1.91-1.22-3.35-1.97-5.04-.55-1.24-.53-2.66-.16-3.97.56-1.9,2.51-2.79,2.87-4.77.12.62.03,1.28-.2,1.9-.45,1.14-1.34,2.01-1.58,3.17-.23,1.06-.27,2.22.12,3.26.61,1.67,1.57,3.65.93,5.45h0Z"/></g></svg>