<svg viewBox="0 0 160 160" fill="none" xmlns="http://www.w3.org/2000/svg"><path d="M111.83 51.7803H132.25C134.85 51.7803 136.96 53.8903 136.96 56.4903V103.43H107.12V56.4903C107.12 53.8903 109.23 51.7803 111.83 51.7803Z" fill="#232144"/><path d="M124.61 51.7803V103.42H136.96V56.4803C136.96 53.8803 134.85 51.7803 132.25 51.7803H124.62H124.61Z" fill="#463EC5"/><path d="M144 103.03H22.9V106.72H144V103.03Z" fill="#D8CBC5"/><path d="M129.34 59.3496H18.08C16.9312 59.3496 16 60.2809 16 61.4296V66.6096C16 67.7584 16.9312 68.6896 18.08 68.6896H129.34C130.489 68.6896 131.42 67.7584 131.42 66.6096V61.4296C131.42 60.2809 130.489 59.3496 129.34 59.3496Z" fill="#F7E5CD"/><path d="M58 67.8205H67.56L70.44 60.2305H60.87L58 67.8205Z" fill="#E73245"/><path d="M77.13 67.8205H86.69L89.57 60.2305H80L77.13 67.8205Z" fill="#E73245"/><path d="M19.69 67.8205H29.26L32.13 60.2305H22.57L19.69 67.8205Z" fill="#E73245"/><path d="M38.82 67.8205H48.39L51.26 60.2305H41.7L38.82 67.8205Z" fill="#E73245"/><path d="M96.26 67.8205H105.83L108.7 60.2305H99.13L96.26 67.8205Z" fill="#E73245"/><path d="M118.27 60.2305L115.39 67.8205H124.96L127.83 60.2305H118.27Z" fill="#E73245"/></svg>