<?xml version="1.0" encoding="UTF-8"?><svg xmlns="http://www.w3.org/2000/svg" viewBox="0 0 160 160"><defs><style>.cls-1,.cls-2{fill:#e6e3d9;}.cls-3{fill:#804828;}.cls-4{fill:#f9e6c9;}.cls-2{stroke:#fbc898;stroke-miterlimit:10;stroke-width:1.29px;}.cls-5{fill:#fbc898;}.cls-6{fill:#420f0f;}</style></defs><g id="Paper"><path class="cls-4" d="M89.65,16.38H24.64v4.85l8.87,4.85v88.44h-.07c0,5.36,3.97,9.7,8.87,9.7,4.17,0,7.67-3.15,8.62-7.39l.26-.12h47.33V26.08c0-5.36-3.97-9.7-8.87-9.7Z"/><path class="cls-5" d="M33.52,26.08c0-5.36-3.97-9.7-8.87-9.7s-8.87,4.34-8.87,9.7h17.75Z"/><path class="cls-5" d="M106.9,114.52h-55.7c0,5.36-3.97,9.7-8.87,9.7h64.11c4.9,0,8.87-4.34,8.87-9.7h-8.41Z"/><rect class="cls-5" x="41.36" y="43.37" width="49.34" height="3.93" rx="1.88" ry="1.88"/><rect class="cls-5" x="41.36" y="64.87" width="43.77" height="3.93" rx="1.88" ry="1.88"/><rect class="cls-5" x="41.36" y="75.09" width="37.45" height="3.93" rx="1.88" ry="1.88"/><rect class="cls-5" x="41.36" y="85.32" width="32.23" height="3.93" rx="1.88" ry="1.88"/></g><g id="Hand"><path class="cls-6" d="M80.42,92.13l8.52-3.81,7.09,19.84c.91,2.54-.26,5.44-2.62,6.49h0c-2.35,1.05-4.99-.15-5.9-2.69l-7.09-19.84Z"/><path class="cls-6" d="M86.79,96.93l8.23-4.52,8.52,19.13c1.09,2.44.13,5.44-2.14,6.69h0c-2.27,1.25-5,.28-6.09-2.17l-8.52-19.13Z"/><path class="cls-3" d="M88.22,85.89l2.79.82-5.61,20.73c-.72,2.65-3.26,4.22-5.67,3.5h0c-2.42-.71-3.79-3.44-3.08-6.09l3.84-14.2c.98-3.61,4.44-5.75,7.73-4.78Z"/><path class="cls-3" d="M113.39,93.35l-13.63,17.02-19.48-19.03,3.69-4.3c1.16-1.35,3.21-1.69,5.65-.92l23.77,7.24Z"/><path class="cls-1" d="M130.21,61.68l7.85-5.15c4.3-9.02,5.74-16.59,5.74-16.59,0,0-13.23,1.18-25.87,9.47l-6.9,9.64v-4.25c-.2.19-.41.38-.61.58-14.22,13.74-22.32,29.09-18.11,34.3s19.15-1.71,33.37-15.45c3.79-3.66,6.85-7.81,9.29-11.92l-4.76-.64Z"/><line class="cls-2" x1="135.34" y1="48.1" x2="75.37" y2="106.12"/><path class="cls-3" d="M144,121.74l-30.61-28.39-10.12,12.41-11.43-11.68c-1.82-1.86-4.71-1.72-6.46.31h0c-1.75,2.02-1.7,5.16.11,7.02l18.03,18.5c3.75,3.85,8.86,5.59,13.94,4.9l16.6,19.19h9.95v-22.26Z"/></g></svg>