<?xml version="1.0" encoding="utf-8"?><!--Generator: Adobe Illustrator 28.0.0, SVG Export Plug-In . SVG Version: 6.00 Build 0)--><svg version="1.1" xmlns="http://www.w3.org/2000/svg" xmlns:xlink="http://www.w3.org/1999/xlink" x="0px" y="0px" viewBox="0 0 160 160" style="enable-background:new 0 0 160 160;" xml:space="preserve"><style type="text/css">.st0{fill:#7070FF;}
	.st1{fill:#FFD4C2;}
	.st2{fill:#FFC6AD;}
	.st3{clip-path:url(#SVGID_00000018948837478678310160000000289783379877456300_);fill:#C6C6C6;}
	.st4{fill:none;stroke:#000000;stroke-width:0.465;stroke-miterlimit:10;}
	.st5{fill:#291028;}
	.st6{clip-path:url(#XMLID_00000003069275168395881400000013464394107043824035_);}
	.st7{fill:#FFFFFF;}
	.st8{fill:#7D441C;}
	.st9{fill:#A86554;}
	.st10{fill:#FF9C5E;}
	.st11{fill:#E73245;}</style><g id="Design"><g><polygon class="st0" points="88.8,83 53.8,73.5 16.1,83.8 70.3,121.5 		"/><rect x="88.3" y="101.7" class="st1" width="23.1" height="40"/><path class="st0" d="M88.1,83c0,0,18.6,2.2,24.9,9.4c6.2,7.3,5.4,18.2-1.8,24.4c-7.3,6.2-18.2,5.4-24.4-1.8
			C80.5,107.8,88.1,83,88.1,83z"/><polyline class="st0" points="16.1,144.2 16.1,83.8 92.4,83.8 97.2,144.1 		"/><path class="st1" d="M40.5,50.7c0-3.5-2.8-6.3-6.3-6.3S28,47.2,28,50.7c0,3.5,2.8,6.3,6.3,6.3S40.5,54.2,40.5,50.7"/><path class="st1" d="M67.7,50.6c0-3.5,2.8-6.3,6.3-6.3s6.3,2.8,6.3,6.3c0,3.5-2.8,6.3-6.3,6.3S67.7,54.1,67.7,50.6"/><path class="st2" d="M69.6,84.6V60.4l-31.1-0.1v24.4c0,6.3,5.1,11.4,11.4,11.4h8.2C64.5,96.1,69.6,90.9,69.6,84.6"/><path class="st1" d="M74,59.4V32.1c0-8.8-7.2-16-16.1-16h-7.7c-8.9,0-16.1,7.2-16.1,16v27.3c0,8.8,7.2,16,16.1,16h7.7
			C66.8,75.4,74,68.2,74,59.4"/><g><defs><path id="SVGID_1_" d="M50.2,16.1c-8.9,0-16.1,7.2-16.1,16v27.3c0,8.8,7.2,16,16.1,16h7.7c8.9,0,16.1-7.2,16.1-16V32.1
					c0-8.8-7.2-16-16.1-16H50.2z"/></defs><clipPath id="SVGID_00000017496186311503473060000008961050876261751937_"><use xlink:href="#SVGID_1_" style="overflow:visible;"/></clipPath><rect x="31.4" y="59.8" style="clip-path:url(#SVGID_00000017496186311503473060000008961050876261751937_);fill:#C6C6C6;" width="44.8" height="22.8"/></g><path d="M53.6,64.3c-1.2,0-2.3-0.5-3-1.3l0.6-0.5c0.6,0.7,1.6,1.1,2.7,1c0.9-0.1,1.7-0.4,2.1-1l0.6,0.4c-0.5,0.7-1.5,1.2-2.7,1.3
			C53.8,64.3,53.7,64.3,53.6,64.3"/><path class="st4" d="M53.6,64.3c-1.2,0-2.3-0.5-3-1.3l0.6-0.5c0.6,0.7,1.6,1.1,2.7,1c0.9-0.1,1.7-0.4,2.1-1l0.6,0.4
			c-0.5,0.7-1.5,1.2-2.7,1.3C53.8,64.3,53.7,64.3,53.6,64.3z"/><path d="M53.5,58.2c-1,0-1.7-0.5-2.4-0.9c-1.1-0.7-1.8-1.1-3.1,0.2l-0.9-0.9c2-2,3.5-1.1,4.7-0.4c0.6,0.4,1.1,0.7,1.8,0.7
			c0.6,0,1.2-0.3,1.7-0.7c1.1-0.7,2.5-1.5,4.8,0.4l-0.8,0.9c-1.6-1.3-2.3-0.9-3.3-0.3C55.2,57.8,54.5,58.2,53.5,58.2"/><path class="st5" d="M44,36.9c2.6-1.1,5.6,0.6,5.7,3.4c0,0.1,0,0.2,0,0.2H38.1L44,36.9z"/><path class="st5" d="M63.1,36.9c-2.6-1.1-5.6,0.6-5.7,3.4c0,0.1,0,0.2,0,0.2h11.7L63.1,36.9z"/><rect x="71.5" y="24.7" class="st5" width="2.5" height="2.7"/><rect x="34.1" y="28.5" class="st5" width="2.5" height="2.7"/><rect x="71.5" y="28.5" class="st5" width="2.5" height="2.7"/><rect x="34.1" y="32.4" class="st5" width="2.5" height="2.7"/><rect x="71.5" y="32.4" class="st5" width="2.5" height="2.7"/><rect x="34.1" y="36.2" class="st5" width="2.5" height="2.7"/><rect x="71.5" y="36.2" class="st5" width="2.5" height="2.7"/><path class="st5" d="M67.8,16.1H40.2c-3.4,0-6.1,2.9-6.1,6.4v6.8H74v-6.8C74,19,71.2,16.1,67.8,16.1"/><g><defs><path id="XMLID_00000009556996059461895100000009075345041591643307_" d="M59.7,47.5c0.2,1.2,2.4,1.8,4.8,1.3
					c2.4-0.5,4.2-1.8,3.9-3c-0.2-1.2-2.4-1.8-4.8-1.3C61.3,44.9,59.5,46.3,59.7,47.5"/></defs><use xlink:href="#XMLID_00000009556996059461895100000009075345041591643307_" style="overflow:visible;fill:#FFFFFF;"/><clipPath id="XMLID_00000114058580925179669020000003619167494069816960_"><use xlink:href="#XMLID_00000009556996059461895100000009075345041591643307_" style="overflow:visible;"/></clipPath><path style="clip-path:url(#XMLID_00000114058580925179669020000003619167494069816960_);" d="M62.7,46.8c0,1.2,1,2.2,2.2,2.2
				c1.2,0,2.2-1,2.2-2.2c0-1.2-1-2.2-2.2-2.2C63.7,44.6,62.7,45.6,62.7,46.8"/></g><path class="st7" d="M48.1,47.5c-0.2,1.2-2.4,1.8-4.8,1.3c-2.4-0.5-4.2-1.8-3.9-3c0.2-1.2,2.4-1.8,4.8-1.3
			C46.6,44.9,48.3,46.3,48.1,47.5"/><path d="M46.7,46.8c0,1.2-1,2.2-2.2,2.2c-1.2,0-2.2-1-2.2-2.2c0-1.2,1-2.2,2.2-2.2C45.7,44.6,46.7,45.6,46.7,46.8"/><rect x="34.1" y="40" class="st5" width="2.5" height="2.7"/><rect x="34.1" y="43.7" class="st5" width="2.5" height="2.7"/><rect x="71.5" y="40" class="st5" width="2.5" height="2.7"/><rect x="71.5" y="43.7" class="st5" width="2.5" height="2.7"/></g><path class="st8" d="M143.8,143.5V94.8l-21.4-0.1v31.7c0,6.6,2.6,12.6,6.8,17H143.8z"/><path class="st9" d="M123.2,75.8c0,5.5-4.4,9.9-9.9,9.9c-5.5,0-9.9-4.4-9.9-9.9c0-5.5,4.4-9.9,9.9-9.9
		C118.7,65.9,123.2,70.3,123.2,75.8"/><path class="st10" d="M93.1,98.6c0,12.2,9.9,22.1,22.1,22.1c12.2,0,22.1-9.9,22.1-22.1c0-12.2-9.9-22.1-22.1-22.1
		C103,76.5,93.1,86.4,93.1,98.6"/><path class="st10" d="M143.8,19.4c-2.3-0.6-2.9-1.2-5.4-1.2l-2.1-0.2c-14.4,0-21.9,12.1-21.9,26.5v45.7c0,14.4,7.6,26.1,22,26.1
		h0.2c2.5,0,4.9-0.4,7.1-1V19.4z"/><path class="st10" d="M143.8,16.4c-1.5-0.2-3.1-0.4-4.6-0.4h-1.1c-15.6,0-28.3,12.7-28.3,28.3v61.9h5.1V60.6
		c0-14.4,21.7-26.1,21.7-26.1c2.5,0,4.9,0.4,7.2,1V16.4z"/><path class="st11" d="M86.7,127.3L86.7,127.3C86.7,127.3,86.6,127.3,86.7,127.3c-10.3,1-18.9,7.5-23.6,16.7h24.5h27h29.2v-16.7
		H86.7z"/></g><g id="stramien"/></svg>