<?xml version="1.0" encoding="UTF-8"?><svg xmlns="http://www.w3.org/2000/svg" version="1.1" viewBox="0 0 160 160"><defs><style>.cls-1 {
        fill: #cb0166;
      }

      .cls-2 {
        fill: #bf7461;
      }

      .cls-3, .cls-4 {
        fill: #232144;
      }

      .cls-5 {
        fill: #cb0065;
      }

      .cls-6 {
        fill: #e6e3da;
      }

      .cls-7 {
        fill: #cb0066;
      }

      .cls-8 {
        fill: #a03e36;
      }

      .cls-4 {
        fill-rule: evenodd;
      }

      .cls-9 {
        fill: #fefefe;
      }</style></defs><!--Generator: Adobe Illustrator 28.6.0, SVG Export Plug-In . SVG Version: 1.2.0 Build 709)--><g><g id="Phone"><polygon class="cls-8" points="85.8 144 84.3 120.8 44.6 119.3 44 144 85.8 144"/><path class="cls-8" d="M51,63.9c-2.9.1-5.2,2.6-5.3,5.6l-.6,25.1c0,2.6-.3,14.7-.3,14.7l11,.3.9-40c0-3.2-2.5-5.8-5.8-5.6Z"/><path class="cls-2" d="M80.3,87.9h5.4c3,0,5.4,2.4,5.4,5.4v34.9c0,3-2.4,5.4-5.4,5.4h-5.4v-45.7h0Z" transform="translate(104 -28.1) rotate(45.2)"/><polygon class="cls-8" points="44.6 119.3 45.2 94.7 64.1 81.2 93.1 111.1 73 132.7 44.6 119.3"/><path class="cls-8" d="M120.4,50.9h0c-2.1-2.2-5.5-2.3-7.7-.2l-51.3,48.3,7.4,7.9,51.3-48.3c2.2-2.1,2.3-5.5.2-7.7Z"/><rect class="cls-3" x="54.8" y="16" width="53" height="109" rx="5.6" ry="5.6" transform="translate(162.5 141) rotate(180)"/><rect class="cls-6" x="56.6" y="18.3" width="49.3" height="104.4" rx="3.8" ry="3.8" transform="translate(162.5 141) rotate(180)"/><path class="cls-4" d="M73.3,22.7h15.9c2.5,0,4.5-2,4.5-4.5h0s-7.2,0-7.2,0h-17.8c0,2.5,2,4.5,4.5,4.5Z"/><rect class="cls-6" x="74.4" y="19.9" width="13.6" height="1.3" transform="translate(162.5 41.1) rotate(180)"/><rect class="cls-8" x="102.7" y="98.7" width="10.8" height="10.1" rx="5.1" ry="5.1" transform="translate(203.9 -11.5) rotate(85.9)"/><rect class="cls-8" x="101.7" y="85.3" width="12.4" height="11.5" rx="5.8" ry="5.8" transform="translate(191.1 -23) rotate(85.9)"/><rect class="cls-8" x="100.3" y="70.4" width="12.4" height="11.5" rx="5.8" ry="5.8" transform="translate(174.8 -35.5) rotate(85.9)"/></g><g id="iDeal"><path class="cls-9" d="M62.9,41.6v27.8c0,1.2,1,2.2,2.2,2.2h16.6c12.4,0,17.8-7,17.8-16.2s-5.4-16.1-17.8-16.1h-16.6c-1.2,0-2.2,1-2.2,2.2Z"/><g><path d="M65.2,55.5c0-3.8,0-7.7,0-11.5,0-1.2.7-2.1,1.9-2.3.2,0,.3,0,.5,0,4.9,0,9.7,0,14.6,0,2.2,0,4.4.3,6.5,1,2.1.7,3.9,1.7,5.4,3.4,1.3,1.5,2.2,3.2,2.7,5.1.5,1.7.6,3.4.5,5.2,0,1.6-.3,3.1-.8,4.6-1.2,3.5-3.5,5.9-6.9,7.3-1.5.6-3,.9-4.5,1.1-1.3.2-2.6.2-3.9.2-4.5,0-9,0-13.5,0-1.1,0-2-.7-2.3-1.7,0-.2,0-.5,0-.7,0-3.8,0-7.7,0-11.5Z"/><path class="cls-9" d="M65.9,55.5c0-3.8,0-7.7,0-11.5,0-1,.6-1.6,1.6-1.6,4.8,0,9.7,0,14.5,0,2.3,0,4.6.3,6.8,1.2,1.8.7,3.3,1.6,4.6,3,1.3,1.4,2.1,3.1,2.6,5,.4,1.9.5,3.8.3,5.8-.2,1.6-.5,3.1-1.2,4.5-1.2,2.5-3.1,4.2-5.7,5.3-1.4.6-2.8,1-4.3,1.2-1.3.2-2.6.2-3.9.2-4.6,0-9.2,0-13.8,0-.8,0-1.4-.4-1.6-1.1,0-.1,0-.3,0-.5,0-3.8,0-7.7,0-11.5Z"/><path class="cls-5" d="M73.9,56.1c0-3.3,0-6.6,0-10,0-.8.5-1.4,1.3-1.6,0,0,.2,0,.3,0,2.5,0,5,0,7.5,0,1.8,0,3.6.3,5.2,1,3,1.2,4.8,3.4,5.6,6.5.4,1.6.5,3.3.3,4.9-.1,1.4-.4,2.7-1,3.9-1.1,2.4-3,3.9-5.4,4.7-1.1.4-2.2.6-3.4.7-.7,0-1.3,0-2,0-2.7,0-5.5,0-8.2,0-.2,0-.2,0-.2-.2,0-3.3,0-6.7,0-10Z"/><path d="M71.6,63.3c0,1,0,2,0,3,0,.1,0,.2-.2.2-1.5,0-2.9-1.3-3.2-2.8,0-.2,0-.4,0-.6,0-.9,0-1.8,0-2.6,0-.9.6-1.6,1.5-1.7.8-.1,1.6.4,1.8,1.2,0,.2,0,.4,0,.6,0,.9,0,1.9,0,2.8Z"/><path d="M69.9,57.4c-1.2,0-2.2-1-2.2-2.3,0-1.2,1-2.2,2.2-2.2,1.3,0,2.2,1,2.2,2.3,0,1.2-1,2.2-2.2,2.2Z"/><path class="cls-9" d="M74.9,55.1c0-.7,0-1.5,0-2.2,0-.1,0-.2.2-.2.6,0,1.3,0,1.9,0,1.3,0,2.1.8,2.2,2.1,0,.5,0,1-.2,1.4-.3.9-1,1.3-1.9,1.3-.7,0-1.4,0-2.1,0-.1,0-.1,0-.1-.2,0-.8,0-1.5,0-2.3Z"/><path class="cls-9" d="M79.9,55.2c0-.8,0-1.5,0-2.3,0-.1,0-.2.2-.2,1.1,0,2.2,0,3.3,0,.1,0,.2,0,.2.2,0,.2,0,.4,0,.6,0,.1,0,.2-.2.2-.7,0-1.5,0-2.2,0-.1,0-.2,0-.2.2,0,.2,0,.5,0,.7,0,.1,0,.2.2.2.7,0,1.3,0,2,0,.1,0,.2,0,.2.2,0,.2,0,.4,0,.5,0,.1,0,.1-.1.1-.7,0-1.3,0-2,0-.1,0-.2,0-.2.2,0,.3,0,.6,0,.8,0,.1,0,.2.2.2.8,0,1.5,0,2.3,0,.2,0,.2,0,.2.2,0,.2,0,.4,0,.6,0,0,0,.1-.1.1-1.1,0-2.3,0-3.4,0-.1,0-.1,0-.1-.2,0-.8,0-1.5,0-2.3Z"/><path class="cls-9" d="M84.3,57.6c0,0,0-.1,0-.2.6-1.5,1.1-3,1.7-4.5,0-.1.1-.2.2-.2.3,0,.5,0,.8,0,0,0,.1,0,.2.1.6,1.5,1.1,3.1,1.7,4.6,0,.1,0,.1-.1.1-.3,0-.6,0-.8,0-.1,0-.1,0-.2-.1,0-.3-.2-.6-.3-.8,0-.1,0-.1-.2-.1-.5,0-1,0-1.5,0-.1,0-.2,0-.2.1,0,.3-.2.6-.3.8,0,0,0,.1-.1.1-.3,0-.6,0-1,0Z"/><path class="cls-9" d="M89.7,55.1c0-.7,0-1.5,0-2.2,0-.1,0-.2.2-.2.2,0,.5,0,.7,0,.2,0,.2,0,.2.2,0,1.2,0,2.4,0,3.6,0,.2,0,.2.2.2.7,0,1.3,0,2,0,.2,0,.2,0,.2.2,0,.2,0,.4,0,.5,0,.1,0,.2-.2.2-1,0-2.1,0-3.1,0-.1,0-.2,0-.2-.2,0-.8,0-1.5,0-2.3Z"/><path class="cls-7" d="M76,55.2c0-.5,0-.9,0-1.4,0-.1,0-.2.1-.2.3,0,.6,0,.8,0,.6,0,.9.3,1.1.9.1.4.1.9,0,1.4-.2.5-.5.8-1.1.8-.3,0-.6,0-.8,0-.1,0-.1,0-.1-.2,0-.5,0-.9,0-1.4Z"/><path class="cls-1" d="M86.6,53.9c.2.6.4,1.1.6,1.7,0,0,0,.1,0,.1-.3,0-.7,0-1,0,0,0-.1,0,0,0,.2-.5.4-1.1.6-1.7Z"/></g></g></g></svg>