<svg viewBox="0 0 160 160" fill="none" xmlns="http://www.w3.org/2000/svg"><path d="M119.8 30.2998L119.5 35.0998L122.7 31.5998L119.8 30.2998Z" fill="#E73245"/><path d="M133.3 27.1001H132.1V36.4001H133.3V27.1001Z" fill="#E73245"/><path d="M133.3 27.1001H132.1V36.4001H133.3V27.1001Z" fill="#E73245"/><path d="M135.7 27.1001H134.5V36.4001H135.7V27.1001Z" fill="#E73245"/><path d="M135.7 27.1001H134.5V36.4001H135.7V27.1001Z" fill="#E73245"/><path d="M65.9 41.3999H63.4V66.4999H65.9V41.3999Z" fill="#891229"/><path d="M113.5 41.3999H111V66.4999H113.5V41.3999Z" fill="#891229"/><path d="M131.5 61.5H45.4V125.7H131.5V61.5Z" fill="#F7E5CD"/><path d="M33.6 27.2998H25V144H33.6V27.2998Z" fill="#891229"/><path d="M142.946 45.0229V36.4229L16.0459 36.4229V45.0229L142.946 45.0229Z" fill="#891229"/><path d="M76.4 84.3999H56.2V100.4H76.4V84.3999Z" fill="#E73245"/><path d="M125.6 107.5H56.3V115.7H125.6V107.5Z" fill="#E73245"/><path d="M125.5 92.2002H90.9V100.4H125.5V92.2002Z" fill="#E73245"/><path d="M125.5 79.6001H90.9V87.8001H125.5V79.6001Z" fill="#E73245"/><path d="M66.4 72.5L53.7 86.6H79L66.4 72.5Z" fill="#891229"/><path d="M131.4 31.8C135.763 31.8 139.3 28.263 139.3 23.9C139.3 19.537 135.763 16 131.4 16C127.037 16 123.5 19.537 123.5 23.9C123.5 28.263 127.037 31.8 131.4 31.8Z" fill="#F7E5CD"/><path d="M122.4 32C125.161 32 127.4 29.7614 127.4 27C127.4 24.2386 125.161 22 122.4 22C119.639 22 117.4 24.2386 117.4 27C117.4 29.7614 119.639 32 122.4 32Z" fill="#F7E5CD"/><path d="M127.4 25.9002C129.4 30.3002 134.5 32.2002 138.9 30.2002C143.3 28.2002 145.2 23.1002 143.2 18.7002L127.4 25.9002Z" fill="#891229"/><path d="M119.8 29.1001C120.076 29.1001 120.3 28.8762 120.3 28.6001C120.3 28.324 120.076 28.1001 119.8 28.1001C119.524 28.1001 119.3 28.324 119.3 28.6001C119.3 28.8762 119.524 29.1001 119.8 29.1001Z" fill="#891229"/></svg>