<svg viewBox="0 0 160 160" fill="none" xmlns="http://www.w3.org/2000/svg"><path fill-rule="evenodd" clip-rule="evenodd" d="M101.604 41.1807H58.3959H46.1452L58.3959 144H101.604L113.855 41.1807H101.604Z" fill="#BAC09A"/><path fill-rule="evenodd" clip-rule="evenodd" d="M49.1364 67.0391H110.863L104.715 116.266H55.6603L49.1364 67.0391Z" fill="#073217"/><path fill-rule="evenodd" clip-rule="evenodd" d="M110.863 34.594V23.965H73.9013L57.9217 16V23.965H49.1366V34.594H41V45.223H119V34.594H110.863Z" fill="#006931"/><path fill-rule="evenodd" clip-rule="evenodd" d="M66.9005 62.728C65.3563 62.728 64.1035 61.483 64.1035 59.946V45.145H69.785V59.859C69.785 61.443 68.4941 62.728 66.9005 62.728Z" fill="#B93918"/><path fill-rule="evenodd" clip-rule="evenodd" d="M63.0866 58.9095C61.5091 58.9095 60.2293 57.6375 60.2293 56.0675V45.1445H65.9117V56.0995C65.9117 57.6515 64.6469 58.9095 63.0866 58.9095Z" fill="#B93918"/></svg>