<?xml version="1.0" encoding="UTF-8"?><svg id="watch" xmlns="http://www.w3.org/2000/svg" version="1.1" viewBox="0 0 160 160"><defs><style>.cls-1 {
        fill: #463ec5;
      }

      .cls-1, .cls-2, .cls-3, .cls-4 {
        stroke-width: 0px;
      }

      .cls-2 {
        fill: #232144;
      }

      .cls-3 {
        fill: #4b7cfe;
      }

      .cls-4 {
        fill: #fff;
      }</style></defs><path class="cls-3" d="M92.7,39.9c4.3,0,8.4,1.3,11.9,3.7-2.2-4.1-4.7-9.2-5.7-12.3-.4-1.4-.8-2.9-1-4.3-1-6.3-6.7-11-13.3-11h-19.9c-6.6,0-12.3,4.6-13.3,11-.2,1.5-.6,2.9-1,4.3-1,3.1-3.5,8.2-5.7,12.3,3.5-2.4,7.6-3.7,11.9-3.7h36.2-.1Z"/><path class="cls-3" d="M56.5,120.1c-4.3,0-8.4-1.3-11.9-3.7,2.2,4.1,4.7,9.2,5.7,12.3.4,1.4.8,2.9,1,4.3,1,6.3,6.7,11,13.3,11h19.9c6.6,0,12.3-4.6,13.3-11,.2-1.5.6-2.9,1-4.3,1-3.1,3.5-8.2,5.7-12.3-3.5,2.4-7.6,3.7-11.9,3.7h-36.2.1Z"/><path class="cls-2" d="M92.7,43.7h-36.2c-9.1,0-16.5,7.1-16.5,16v40.7c0,8.8,7.4,16,16.5,16h36.2c9.1,0,16.5-7.1,16.5-16h0v-40.7c0-8.8-7.4-16-16.5-16h0Z"/><path class="cls-1" d="M113.9,62.1h-.7v21h.7c3.4,0,6.1-2.6,6.1-5.9v-9.2c0-3.3-2.8-5.9-6.1-5.9Z"/><path class="cls-4" d="M80.5,79.2c-.2-.2-.7-.3-.9-.1-2.7,2-6.7,5.3-3.6,9,3.1,3.8,6.9.4,10.1-2.4.3-.2.3-.7,0-1l-5.6-5.5Z"/><path class="cls-4" d="M99.9,64c-3.7-3.4-9.5-.1-12.7,4.8-1.6,2.5-2.7,4.5-3.7,5.9-.1.2-.1.6.1.8,2.9,2.4,5.3,5.2,6.3,6.3.2.2.6.3.8.1,2.7-2,5.6-4.1,7.4-6.2,2.8-3.1,5.1-8.7,1.7-11.8l.1.1Z"/><path class="cls-4" d="M52.7,96.8c4.4,1.9,6.7-2.7,8-5.7.1-.3,0-.7-.3-.9l-7-3.7c-.3-.2-.8-.1-1,.3-1.9,3.7-4.2,8,.3,10Z"/><path class="cls-4" d="M55.4,82.2c1.3.6,4.8,2.1,7.9,4.3.2.2.6.1.8-.1l5-5c4.2-4.3,5.9-10.4,1.6-13.1-3.8-2.4-8.9,1.2-11.3,4.7-1.6,2.4-3,5.5-4.3,8.5-.2.3-.1.7.2.8l.1-.1Z"/></svg>