<svg viewBox="0 0 160 160" fill="none" xmlns="http://www.w3.org/2000/svg"><path fill-rule="evenodd" clip-rule="evenodd" d="M127.435 79.1118L40.2329 123.978L17.9849 80.8662L105.188 36L127.435 79.1118Z" fill="#AACDE5"/><path fill-rule="evenodd" clip-rule="evenodd" d="M60.367 113.619L38.247 125L16 81.8879L38.12 70.5068L60.367 113.619Z" fill="#E4EFFF"/><path fill-rule="evenodd" clip-rule="evenodd" d="M43.1169 80.1913L31.3129 86.2653L27.8069 79.4714L39.6109 73.3984L43.1169 80.1913Z" fill="#4B7CFD"/><path fill-rule="evenodd" clip-rule="evenodd" d="M46.1641 115.332C46.2721 115.276 46.3371 115.305 46.3881 115.403L46.7631 116.131C46.8141 116.229 46.8001 116.3 46.6921 116.356L42.6621 118.43C42.5241 118.501 42.4641 118.481 42.4031 118.363L42.1601 117.89C40.9921 115.628 43.5151 113.171 42.7691 111.725C42.4481 111.105 41.8621 111.009 41.2521 111.323C40.7301 111.592 40.3591 112.056 40.0671 112.53C39.9991 112.64 39.9151 112.67 39.8051 112.602L39.2411 112.258C39.1101 112.175 39.1191 112.096 39.1971 111.931C39.4921 111.294 40.1091 110.653 40.8081 110.294C41.5871 109.893 42.2551 109.811 42.8271 110.001C43.3001 110.17 43.7061 110.52 43.9961 111.083C44.9091 112.852 42.6271 115.509 43.1781 116.868L46.1641 115.332Z" fill="#254471"/><path fill-rule="evenodd" clip-rule="evenodd" d="M49.9446 110.099C49.0556 108.378 48.2206 107.749 47.4216 108.16C46.5646 108.601 46.6436 109.793 47.5376 111.525C48.4256 113.246 49.2566 113.889 50.0646 113.474C50.9216 113.033 50.8376 111.83 49.9446 110.099ZM46.3316 112.233C45.0676 109.782 45.3286 107.968 46.9436 107.136C48.4416 106.367 49.9376 107.041 51.1556 109.402C52.4146 111.841 52.1696 113.662 50.5436 114.497C49.0456 115.268 47.5396 114.574 46.3316 112.233Z" fill="#254471"/><path fill-rule="evenodd" clip-rule="evenodd" d="M97.9585 58.274C98.1355 58.1832 98.2415 58.2311 98.3235 58.3919L98.9355 59.5761C99.0175 59.7359 98.9955 59.8487 98.8185 59.9395L92.2595 63.3145C92.0345 63.4303 91.9375 63.4004 91.8375 63.2067L91.4415 62.4378C89.5405 58.7543 93.6475 54.7583 92.4325 52.4038C91.9125 51.3953 90.9575 51.2365 89.9635 51.7488C89.1135 52.1861 88.5095 52.942 88.0355 53.7148C87.9245 53.8916 87.7875 53.9425 87.6085 53.8306L86.6895 53.2705C86.4785 53.1357 86.4935 53.0069 86.6185 52.7403C87.0985 51.7028 88.1035 50.6594 89.2415 50.0742C90.5085 49.4222 91.5955 49.2874 92.5285 49.598C93.2975 49.8706 93.9575 50.4427 94.4295 51.3563C95.9175 54.239 92.2015 58.5626 93.0995 60.7743L97.9585 58.274Z" fill="#254471"/><path fill-rule="evenodd" clip-rule="evenodd" d="M104.116 49.7567C102.669 46.9538 101.309 45.9314 100.011 46.5994C98.6154 47.3173 98.7434 49.2574 100.198 52.0762C101.644 54.878 102.996 55.9255 104.311 55.2485C105.707 54.5306 105.57 52.5755 104.116 49.7567ZM98.2354 53.2285C96.1774 49.2404 96.6014 46.2868 99.2324 44.9338C101.669 43.6797 104.104 44.7771 106.087 48.6214C108.136 52.5924 107.736 55.555 105.09 56.916C102.652 58.1701 100.202 57.0388 98.2354 53.2285Z" fill="#254471"/><path fill-rule="evenodd" clip-rule="evenodd" d="M45.9009 111.314H144V62.8164H45.9009V111.314Z" fill="#F6C6A0"/><path fill-rule="evenodd" clip-rule="evenodd" d="M43.6689 111.314H68.5529V62.8164H43.6689V111.314Z" fill="#F6E4CC"/><path fill-rule="evenodd" clip-rule="evenodd" d="M55.2729 73.71H68.553V66.0684H55.2729V73.71Z" fill="#4B7CFE"/><path fill-rule="evenodd" clip-rule="evenodd" d="M53.0817 102.574C53.8127 102.574 54.4227 102.807 54.8327 103.238C55.2207 103.647 55.4647 104.235 55.4647 104.964C55.4647 106.691 54.2227 107.643 52.5047 107.643C51.7177 107.643 50.9537 107.433 50.4657 107.133C50.3547 107.067 50.3437 106.99 50.3997 106.869L50.6987 106.238C50.7537 106.116 50.8317 106.094 50.9427 106.149C51.4187 106.381 51.9507 106.525 52.5607 106.525C53.5917 106.525 54.0787 105.85 54.0787 105.031C54.0787 104.035 53.5137 103.614 52.5937 103.614C52.0727 103.614 51.5957 103.702 50.9867 103.858C50.8647 103.891 50.7867 103.835 50.7867 103.725V99.7302C50.7867 99.6194 50.8317 99.5635 50.9537 99.5635H54.9877C55.1097 99.5635 55.1547 99.6194 55.1547 99.7302V100.549C55.1547 100.66 55.1097 100.714 54.9877 100.714H52.0507V102.696C52.3727 102.608 52.7047 102.574 53.0817 102.574Z" fill="#881229"/><path fill-rule="evenodd" clip-rule="evenodd" d="M60.9039 103.459C60.9039 101.522 60.4489 100.581 59.5519 100.581C58.5869 100.581 58.1109 101.678 58.1109 103.625C58.1109 105.562 58.5539 106.514 59.4629 106.514C60.4269 106.514 60.9039 105.407 60.9039 103.459ZM56.7139 103.703C56.7139 100.947 57.7779 99.4531 59.5959 99.4531C61.2809 99.4531 62.2999 100.736 62.2999 103.393C62.2999 106.137 61.2469 107.643 59.4189 107.643C57.7339 107.643 56.7139 106.337 56.7139 103.703Z" fill="#881229"/><path fill-rule="evenodd" clip-rule="evenodd" d="M98.73 74.7835C90.804 74.7835 84.355 81.222 84.355 89.1362C84.355 97.0494 90.804 103.488 98.73 103.488C106.656 103.488 113.103 97.0494 113.103 89.1362C113.103 81.222 106.656 74.7835 98.73 74.7835ZM98.73 105.058C89.936 105.058 82.782 97.9151 82.782 89.1362C82.782 80.3552 89.936 73.2129 98.73 73.2129C107.523 73.2129 114.677 80.3552 114.677 89.1362C114.677 97.9151 107.523 105.058 98.73 105.058Z" fill="#F6E4CC"/><path fill-rule="evenodd" clip-rule="evenodd" d="M100.717 91.0201C100.717 91.2697 100.613 91.3736 100.384 91.3736H96.5293C96.9253 93.1839 97.9463 94.3701 99.9883 94.3701C100.904 94.3701 101.718 94.1205 102.405 93.8709C102.697 93.767 102.864 93.767 102.968 93.9957L103.509 95.14C103.655 95.4515 103.593 95.6183 103.343 95.7431C102.322 96.2843 101.009 96.6168 99.5713 96.6168C96.4253 96.6168 94.4243 94.6197 93.8203 91.3736H92.4653C92.2373 91.3736 92.1333 91.2697 92.1333 91.0201V90.0216C92.1333 89.772 92.2373 89.6671 92.4653 89.6671H93.6333V89.085C93.6333 88.8144 93.6333 88.5438 93.6543 88.2732H92.5903C92.3623 88.2732 92.2583 88.1694 92.2583 87.9197V86.9212C92.2583 86.6716 92.3623 86.5677 92.5903 86.5677H93.8833C94.5493 83.4045 96.5293 81.2207 99.8013 81.2207C101.404 81.2207 102.53 81.6161 103.364 82.2192C103.614 82.4059 103.655 82.5727 103.53 82.8223L102.947 83.8837C102.801 84.1334 102.593 84.2372 102.343 84.0914C101.509 83.6341 100.988 83.4045 100.008 83.4045C98.2173 83.4045 97.0293 84.4868 96.5293 86.5677H100.509C100.738 86.5677 100.842 86.6716 100.842 86.9212V87.9197C100.842 88.1694 100.738 88.2732 100.509 88.2732H96.3213C96.3003 88.5029 96.3003 88.7525 96.3003 88.9811V89.6671H100.384C100.613 89.6671 100.717 89.772 100.717 90.0216V91.0201Z" fill="#F6E4CC"/><path fill-rule="evenodd" clip-rule="evenodd" d="M124.015 73.1477C125.206 73.1477 126.198 73.5262 126.865 74.2281C127.497 74.8951 127.894 75.8497 127.894 77.0389C127.894 79.8498 125.873 81.3985 123.077 81.3985C121.795 81.3985 120.551 81.056 119.757 80.5697C119.577 80.4618 119.558 80.336 119.649 80.1373L120.136 79.1109C120.226 78.9122 120.352 78.8772 120.533 78.9671C121.309 79.3445 122.174 79.5792 123.167 79.5792C124.845 79.5792 125.638 78.4808 125.638 77.1468C125.638 75.5262 124.718 74.8412 123.221 74.8412C122.373 74.8412 121.597 74.985 120.605 75.2376C120.406 75.2916 120.28 75.2017 120.28 75.022V68.5176C120.28 68.3379 120.352 68.248 120.551 68.248H127.118C127.317 68.248 127.388 68.3379 127.388 68.5176V69.8507C127.388 70.0314 127.317 70.1213 127.118 70.1213H122.337V73.3454C122.86 73.2017 123.401 73.1477 124.015 73.1477Z" fill="#881229"/><path fill-rule="evenodd" clip-rule="evenodd" d="M136.751 74.5887C136.751 71.4364 136.011 69.9046 134.55 69.9046C132.981 69.9046 132.205 71.688 132.205 74.8593C132.205 78.0116 132.926 79.5613 134.406 79.5613C135.975 79.5613 136.751 77.7589 136.751 74.5887ZM129.931 74.9851C129.931 70.4988 131.664 68.0674 134.622 68.0674C137.364 68.0674 139.024 70.1573 139.024 74.4808C139.024 78.9482 137.31 81.3985 134.334 81.3985C131.591 81.3985 129.931 79.2727 129.931 74.9851Z" fill="#881229"/></svg>