<?xml version="1.0" encoding="UTF-8"?><svg id="machine" xmlns="http://www.w3.org/2000/svg" viewBox="0 0 160 160"><defs><style>.cls-1{fill:#006f1c;}.cls-2{fill:#241c4a;}.cls-3{fill:#aac0ec;}.cls-4{fill:#ffa200;}.cls-5{fill:#ccddf7;}.cls-6{fill:#ff0026;}.cls-7{fill:#84a4e8;}</style></defs><rect class="cls-5" x="16" y="86.95" width="14.03" height="57.08"/><path class="cls-5" d="M109.82,16.02h28.47c3.15,0,5.71,2.56,5.71,5.71v122.27h-39.89V21.73c0-3.15,2.56-5.71,5.71-5.71Z"/><path class="cls-7" d="M117.64,36.73h12.81c2.33,0,4.22,1.89,4.22,4.22v66.2h-21.25V40.95c0-2.33,1.89-4.22,4.22-4.22Z"/><rect class="cls-5" x="17.27" y="73.65" width="111.49" height="26.21" rx="13.1" ry="13.1"/><path class="cls-3" d="M115.66,101.12H30.37c-7.92,0-14.37-6.45-14.37-14.37s6.45-14.37,14.37-14.37h85.28c7.92,0,14.37,6.45,14.37,14.37s-6.45,14.37-14.37,14.37ZM30.37,74.92c-6.53,0-11.84,5.31-11.84,11.84s5.31,11.84,11.84,11.84h85.28c6.53,0,11.84-5.31,11.84-11.84s-5.31-11.84-11.84-11.84H30.37Z"/><circle class="cls-3" cx="114.63" cy="86.75" r="9.94"/><circle class="cls-3" cx="31.21" cy="86.75" r="9.94"/><circle class="cls-1" cx="116.07" cy="31.44" r="2.12"/><circle class="cls-4" cx="124.05" cy="31.44" r="2.12"/><circle class="cls-6" cx="132.55" cy="31.44" r="2.12"/><path class="cls-2" d="M48.43,72.37h13.13v4.77c0,.93.75,1.68,1.68,1.68h0c.93,0,1.68-.75,1.68-1.68v-4.77h29.38v25.64c0,.93.75,1.68,1.68,1.68h0c.93,0,1.68-.75,1.68-1.68v-25.99s0-.08,0-.12c-.25-10.87-9.13-19.6-20.05-19.6-6.83,0-12.86,3.41-16.48,8.63l-3.58-4.21v4.13c-1.67.13-3.22.75-4.55,1.74l-3.17-3.73v7.54c-.6.8-1.78,3.94-1.41,5.98"/></svg>