<?xml version="1.0" encoding="UTF-8"?><svg xmlns="http://www.w3.org/2000/svg" xmlns:xlink="http://www.w3.org/1999/xlink" version="1.1" viewBox="0 0 160 160"><defs><style>.cls-1 {
        fill: #171111;
      }

      .cls-2 {
        fill: #fdae6b;
      }

      .cls-3 {
        fill: #fda054;
      }

      .cls-4 {
        fill: #39627d;
      }

      .cls-5 {
        fill: #294f66;
      }

      .cls-6 {
        fill: #57819d;
      }

      .cls-7 {
        fill: #ff6200;
      }

      .cls-8 {
        clip-path: url(#clippath);
      }

      .cls-9 {
        fill: #fa8e32;
      }</style><clipPath id="clippath"><path class="cls-4" d="M139.1,87.2h0s-60-21.9-60-21.9h0c-2.1-.7-4.3-1.1-6.6-1.1-11.2,0-20.3,9.1-20.3,20.3s9.1,20.3,20.3,20.3h0s8,0,8,0c0,0,0,0,0,0h25.2c2.3,0,4.2-1.8,4.4-4h11.6c2.5,0,4.5-2,4.5-4.5s0-.3,0-.5h11.6c2.5,0,4.5-2,4.5-4.5h0c0-2-1.3-3.7-3.2-4.2Z"/></clipPath></defs><!--Generator: Adobe Illustrator 28.6.0, SVG Export Plug-In . SVG Version: 1.2.0 Build 709)--><g><g id="Pigeon"><g><g><path class="cls-9" d="M41.3,123.2h14.8c2,0,3.5,1.6,3.5,3.5h-21.9c0-2,1.6-3.5,3.5-3.5Z"/><rect class="cls-9" x="45.2" y="115.6" width="21.7" height="3.8" transform="translate(-66.1 72.5) rotate(-44.3)"/></g><rect class="cls-5" x="122.1" y="91.2" width="9.9" height="33.9" rx="5" ry="5" transform="translate(235.2 -18.8) rotate(90)"/><path class="cls-6" d="M47.8,33.3h0c6.8,0,12.3,5.5,12.3,12.3v14.7s-24.8,31.3-24.8,31.3l.2-46c0-6.8,5.5-12.3,12.3-12.3Z"/><circle class="cls-1" cx="55.8" cy="45.4" r="2.4"/><circle class="cls-1" cx="39.8" cy="45.4" r="2.4"/><path class="cls-5" d="M44.1,48.1c0-1.9,1.6-3.5,3.5-3.5s3.5,1.6,3.5,3.5h-7Z"/><polygon class="cls-6" points="60.1 60.3 74.9 79.4 45 71.3 60.1 60.3"/><circle class="cls-6" cx="57" cy="91.4" r="21.7"/><polygon class="cls-6" points="72.3 76.1 129.7 113.2 56 113.2 72.3 76.1"/><g><path class="cls-3" d="M46.2,123.2h14.8c2,0,3.5,1.6,3.5,3.5h-21.9c0-2,1.6-3.5,3.5-3.5Z"/><rect class="cls-3" x="50.2" y="115.6" width="21.7" height="3.8" transform="translate(-64.7 76) rotate(-44.3)"/></g><g><path class="cls-4" d="M139.1,87.2h0s-60-21.9-60-21.9h0c-2.1-.7-4.3-1.1-6.6-1.1-11.2,0-20.3,9.1-20.3,20.3s9.1,20.3,20.3,20.3h0s8,0,8,0c0,0,0,0,0,0h25.2c2.3,0,4.2-1.8,4.4-4h11.6c2.5,0,4.5-2,4.5-4.5s0-.3,0-.5h11.6c2.5,0,4.5-2,4.5-4.5h0c0-2-1.3-3.7-3.2-4.2Z"/><g class="cls-8"><rect class="cls-5" x="99.6" y="65" width="9.2" height="52.5" rx="4.6" ry="4.6" transform="translate(54.9 -38.2) rotate(28)"/><rect class="cls-5" x="84.6" y="57.3" width="9.2" height="61.1" rx="4.6" ry="4.6" transform="translate(51.6 -31.6) rotate(28)"/></g></g><rect class="cls-2" x="16.1" y="50" width="62.7" height="43.4"/><polygon class="cls-9" points="47.4 61.3 16 93.3 78.7 93.3 47.4 61.3"/><path class="cls-7" d="M52.5,76.8l26.3-26.8H16.1l26.3,26.8c2.8,2.8,7.3,2.8,10.1,0Z"/><path class="cls-4" d="M46.8,52.8l-2.8-4.8h7s-2.8,4.8-2.8,4.8c-.3.6-1.1.6-1.5,0Z"/></g></g></g></svg>