<svg viewBox="0 0 160 160" fill="none" xmlns="http://www.w3.org/2000/svg"><path d="M144 103.9C143.726 95.5 137.783 89 129.829 86.9L79.1771 75.5L30.9943 86.9C22.4914 88.4 16.0914 95.3 16.0914 104.2L16 144H144V103.9Z" fill="#7070FF"/><path d="M64.2 78.3002V58.2002H94.5V78.3002C94.5 84.8002 88.8 90.0002 81.7 90.0002H77C70 90.1002 64.2 84.8002 64.2 78.3002Z" fill="#420F0F"/><path d="M58.8 54.6004C62.1689 54.6004 64.9 52.0932 64.9 49.0004C64.9 45.9076 62.1689 43.4004 58.8 43.4004C55.4311 43.4004 52.7 45.9076 52.7 49.0004C52.7 52.0932 55.4311 54.6004 58.8 54.6004Z" fill="#693725"/><path d="M100.5 54.6004C103.869 54.6004 106.6 52.0932 106.6 49.0004C106.6 45.9076 103.869 43.4004 100.5 43.4004C97.1311 43.4004 94.4 45.9076 94.4 49.0004C94.4 52.0932 97.1311 54.6004 100.5 54.6004Z" fill="#693725"/><path d="M75.4 16H83.2C92.2 16 99.4 22.6 99.4 30.8V56.7C99.4 64.9 92.1 71.5 83.2 71.5H75.4C66.4 71.5 59.2 64.9 59.2 56.7V30.8C59.2 22.6 66.5 16 75.4 16Z" fill="#693725"/><path d="M73.0726 46.4704C73.2859 45.3303 71.4343 44.0273 68.937 43.5601C66.4397 43.0929 64.2423 43.6384 64.029 44.7785C63.8157 45.9186 65.6673 47.2215 68.1646 47.6887C70.6619 48.1559 72.8593 47.6104 73.0726 46.4704Z" fill="white"/><path d="M60.5 27.5996H58.8V57.9996H60.5V27.5996Z" fill="#C6C6C6"/><path d="M99.9 27.5996H98.2V58.3996H99.9V27.5996Z" fill="#C6C6C6"/><path d="M79.9 54.3996C79 54.3996 78.2 53.9996 77.6 53.5996C76.5 52.9996 75.9 52.5996 74.6 53.7996L73.8 52.9996C75.7 51.1996 77.1 51.9996 78.3 52.5996C78.9 52.8996 79.4 53.1996 80 53.1996C80.6 53.1996 81.1 52.8996 81.6 52.5996C82.7 51.9996 84 51.2996 86.2 52.8996L85.4 53.6996C83.9 52.4996 83.2 52.8996 82.2 53.4996C81.6 53.9996 80.9 54.3996 79.9 54.3996Z" fill="#010101"/><path d="M93.5 16H65.6C61.9 16 58.8 18.8 58.8 22.2V27.7H78.2C83.4 27.7 87.3 26.4 90.1 25C91 26.9 93 28.2 95.4 28.2H99.9V22C99.9 18.7 97.1 16 93.5 16Z" fill="#C6C6C6"/><path d="M98.2 49.0996L94.6 60.9996H90.2L86.3 56.1996V55.9996H86.2H73.3L69.3 60.9996H64.3L60.7 49.0996H59V69.6996C59 75.6996 64.3 80.4996 70.8 80.4996H88.2C94.7 80.4996 100 75.6996 100 69.6996V49.0996H98.2Z" fill="#C6C6C6"/><path d="M88.1 67.3C88.1 69.7 84.3 69.3 79.5 69.3C74.8 69.3 70.9 69.7 70.9 67.3C70.9 64.9 74.7 63 79.5 63C84.3 63 88.1 64.9 88.1 67.3Z" fill="#693725"/><path d="M67.7 47.1998C69.0255 47.1998 70.1 46.2148 70.1 44.9998C70.1 43.7848 69.0255 42.7998 67.7 42.7998C66.3745 42.7998 65.3 43.7848 65.3 44.9998C65.3 46.2148 66.3745 47.1998 67.7 47.1998Z" fill="#010101"/><path d="M96.3 40H63.4V44.4H96.3V40Z" fill="#693725"/><path d="M73.8 37.9996L66.3 39.8996C65 40.1996 63.7 39.4996 63.4 38.3996L63.3 38.0996C62.9 36.8996 63.7 35.6996 65 35.3996L72.4 33.4996C73.8 33.0996 75.2 33.8996 75.6 35.0996C76 36.2996 75.2 37.5996 73.8 37.9996Z" fill="#C6C6C6"/><path d="M77.7 66.2L85.6 65.5L85.7 66.7L77.8 67.3L77.7 66.2Z" fill="black"/><path d="M87.5 47.0003C86.8 47.0003 86.2 46.7003 85.7 46.2003C85.7 46.3003 85.7 46.3003 85.7 46.4003C85.9 47.5003 88.2 48.1003 90.6 47.6003C93.1 47.1003 94.9 45.9003 94.6 44.7003C94.4 43.8003 92.9 43.3003 91.1 43.4003C90.6 43.6003 90 43.8003 89.4 43.9003C89.6 44.2003 89.7 44.5003 89.7 44.9003C89.8 46.0003 88.8 47.0003 87.5 47.0003Z" fill="white"/><path d="M85.8 46.2004C86.2 46.7004 86.8 47.0004 87.6 47.0004C88.8 47.0004 89.9 46.1004 89.9 44.9004C89.9 44.5004 89.8 44.2004 89.6 43.9004C88.9 44.1004 88.2 44.3004 87.4 44.4004C87.3 44.4004 87.3 44.4004 87.2 44.4004C86.3 45.0004 85.8 45.6004 85.8 46.2004Z" fill="black"/><path d="M86.5 44.4998C85.2 44.4998 84.1 43.4998 84.1 42.2998V41.9998C84.1 40.7998 85.2 39.7998 86.5 39.7998H94.2C95.6 39.7998 96.8 40.8998 96.8 42.0998C96.8 43.3998 95.7 44.3998 94.2 44.3998L86.5 44.4998Z" fill="#C6C6C6"/><path d="M79.7 105.201L79 104.801L101.8 67.1006L102.5 67.5006L79.7 105.201Z" fill="#074120"/><path d="M88.6 89.8004C88.1 89.9004 87.6 89.6004 87.4 89.2004L85.2 84.0004C84.7 82.9004 85.5 81.6004 86.8 81.4004C88.1 81.1004 89.4 82.1004 89.4 83.3004V88.8004C89.4 89.3004 89.1 89.7004 88.6 89.8004Z" fill="#074120"/><path d="M84 97.4C83.5 97.5 83 97.2 82.8 96.8L80.7 91.6C80.2 90.5 81 89.2 82.3 89C83.6 88.7 84.9 89.7 84.9 90.9V96.4C84.8 96.9 84.5 97.3 84 97.4Z" fill="#074120"/><path d="M90.3 86.8008C90.5 87.3008 91 87.5008 91.5 87.4008L97.4 86.3008C98.7 86.1008 99.5 84.8008 99 83.7008C98.5 82.5008 97 82.0008 95.8 82.7008L90.7 85.6008C90.3 85.8008 90.2 86.3008 90.3 86.8008Z" fill="#074120"/><path d="M85.9 94.1006C86.1 94.6006 86.6 94.8006 87.1 94.7006L93 93.6006C94.3 93.4006 95.1 92.1006 94.6 91.0006C94.1 89.8006 92.6 89.3006 91.4 90.0006L86.3 92.9006C85.9 93.2006 85.7 93.7006 85.9 94.1006Z" fill="#074120"/><path d="M92.9 82.5006C92.4 82.6006 91.9 82.3006 91.7 81.9006L89.6 76.7006C89.1 75.6006 89.9 74.3006 91.2 74.1006C92.5 73.8006 93.8 74.8006 93.8 76.0006V81.5006C93.8 82.0006 93.4 82.4006 92.9 82.5006Z" fill="#074120"/><path d="M94.7 79.5C94.9 80 95.4 80.2 95.9 80.1L101.8 79C103.1 78.8 103.9 77.5 103.4 76.4C102.9 75.2 101.4 74.7 100.2 75.4L95.1 78.3C94.7 78.6 94.5 79.1 94.7 79.5Z" fill="#074120"/><path d="M97 75.8004C96.5 75.9004 96 75.6004 95.8 75.2004L93.7 70.0004C93.2 68.9004 94 67.6004 95.3 67.4004C96.6 67.1004 97.9 68.1004 97.9 69.3004V74.8004C97.9 75.3004 97.5 75.7004 97 75.8004Z" fill="#074120"/><path d="M98.8 72.8008C99 73.3008 99.5 73.5008 100 73.4008L105.9 72.3008C107.2 72.1008 108 70.8008 107.5 69.7008C107 68.5008 105.5 68.0008 104.3 68.7008L99.2 71.6008C98.8 71.8008 98.6 72.3008 98.8 72.8008Z" fill="#074120"/><path d="M100.7 69.6003C101.2 69.8003 101.7 69.7003 102.1 69.3003L105.8 65.0003C106.6 64.0003 106.3 62.6003 105.1 62.0003C103.9 61.4003 102.4 61.9003 102 63.1003L100.2 68.4003C100 68.9003 100.2 69.4003 100.7 69.6003Z" fill="#074120"/><path d="M70.6 101.8L69.8 102.1L53.1 61.8L53.9 61.5L70.6 101.8Z" fill="#006931"/><path d="M63.4999 85.7002C63.1999 86.1002 62.6999 86.3002 62.1999 86.2002L56.4999 84.3002C55.1999 83.9002 54.6999 82.5002 55.2999 81.5002C55.9999 80.4002 57.5999 80.1002 58.5999 80.9002L63.1999 84.5002C63.5999 84.8002 63.6999 85.3002 63.4999 85.7002Z" fill="#006931"/><path d="M66.7999 93.7998C66.4999 94.1998 65.9999 94.3998 65.4999 94.2998L59.7999 92.3998C58.4999 91.9998 57.9999 90.5998 58.5999 89.5998C59.2999 88.4998 60.8999 88.1998 61.8999 88.9998L66.4999 92.5998C66.9999 92.8998 67.0999 93.3998 66.7999 93.7998Z" fill="#006931"/><path d="M62.1 82.5004C62.6 82.7004 63.2 82.5004 63.4 82.0004L66.3 77.2004C66.9 76.1004 66.4 74.8004 65.1 74.4004C63.8 74.0004 62.4 74.7004 62.2 76.0004L61.4 81.4004C61.3 81.9004 61.6 82.3004 62.1 82.5004Z" fill="#006931"/><path d="M65.4 90.3002C65.9 90.5002 66.4999 90.3002 66.6999 89.8002L69.5999 85.0002C70.1999 83.9002 69.7 82.6002 68.4 82.2002C67.1 81.8002 65.6999 82.5002 65.4999 83.8002L64.6999 89.2002C64.5999 89.7002 64.9 90.2002 65.4 90.3002Z" fill="#006931"/><path d="M60.2999 77.9004C59.9999 78.3004 59.4999 78.5004 58.9999 78.4004L53.2999 76.5004C51.9999 76.1004 51.4999 74.7004 52.0999 73.7004C52.7999 72.6004 54.3999 72.3004 55.3999 73.1004L59.9999 76.7004C60.3999 77.0004 60.4999 77.5004 60.2999 77.9004Z" fill="#006931"/><path d="M58.8999 74.8002C59.3999 75.0002 59.9999 74.8002 60.1999 74.3002L63.0999 69.5002C63.6999 68.4002 63.1999 67.1002 61.8999 66.7002C60.5999 66.3002 59.1999 67.0002 58.9999 68.3002L58.1999 73.7002C58.0999 74.2002 58.3999 74.6002 58.8999 74.8002Z" fill="#006931"/><path d="M57.2 70.7002C56.9 71.1002 56.4 71.3002 55.9 71.2002L50.2 69.3002C48.9 68.9002 48.4 67.5002 49 66.5002C49.7 65.4002 51.3 65.1002 52.3 65.9002L56.9 69.5002C57.4 69.8002 57.5 70.3002 57.2 70.7002Z" fill="#006931"/><path d="M55.8999 67.4999C56.3999 67.6999 56.9999 67.4999 57.1999 66.9999L60.0999 62.1999C60.6999 61.0999 60.1999 59.8 58.8999 59.4C57.5999 59 56.1999 59.7999 55.9999 60.9999L55.1999 66.4C55.0999 66.9 55.3999 67.3999 55.8999 67.4999Z" fill="#006931"/><path d="M54.5 64.2C55 64 55.3 63.5 55.2 63.1L54 57.7C53.7 56.5 52.3 55.8 51.1 56.3C49.8 56.7 49.3 58.2 50 59.2L53.2 63.8C53.5 64.2 54 64.4 54.5 64.2Z" fill="#006931"/><path d="M47.5 92.5998L46.7 92.8998L30 52.5998L30.7 52.2998L47.5 92.5998Z" fill="#00401E"/><path d="M40.3 76.5C40 76.9 39.5 77.1 39 77L33.3 75.1C32 74.7 31.5 73.3 32.1 72.3C32.8 71.2 34.4 70.9 35.4 71.7L40 75.3C40.5 75.6 40.6 76.1 40.3 76.5Z" fill="#00401E"/><path d="M43.7 84.5996C43.4 84.9996 42.9 85.1996 42.4 85.0996L36.7 83.1996C35.4 82.7996 34.9 81.3996 35.5 80.3996C36.2 79.2996 37.8 78.9996 38.8 79.7996L43.4 83.3996C43.9 83.6996 44 84.1996 43.7 84.5996Z" fill="#00401E"/><path d="M39 73.3002C39.5 73.5002 40.1 73.3002 40.3 72.8002L43.2 68.0002C43.8 66.9002 43.3 65.6002 42 65.2002C40.7 64.8002 39.3 65.5002 39.1 66.8002L38.3 72.2002C38.2 72.7002 38.5 73.1002 39 73.3002Z" fill="#00401E"/><path d="M42.3 81.1996C42.8 81.3996 43.4 81.1996 43.6 80.6996L46.5 75.8996C47.1 74.7996 46.6 73.4996 45.3 73.0996C44 72.6996 42.6 73.3996 42.4 74.6996L41.6 80.0996C41.5 80.4996 41.8 80.9996 42.3 81.1996Z" fill="#00401E"/><path d="M37.1 68.7998C36.8 69.1998 36.3 69.3998 35.8 69.2998L30.1 67.3998C28.8 66.9998 28.3 65.5998 28.9 64.5998C29.6 63.4998 31.2 63.1998 32.2 63.9998L36.8 67.5998C37.3 67.7998 37.4 68.2998 37.1 68.7998Z" fill="#00401E"/><path d="M35.8 65.6C36.3 65.8 36.9 65.6 37.1 65.1L40 60.3C40.6 59.2 40.1 57.9 38.8 57.5C37.5 57.1 36.1 57.8 35.9 59.1L35.1 64.5C35 65 35.3 65.4 35.8 65.6Z" fill="#00401E"/><path d="M34.1 61.5C33.8 61.9 33.3 62.1 32.8 62L27.1 60.1C25.8 59.7 25.3 58.3 25.9 57.3C26.6 56.2 28.2 55.9 29.2 56.7L33.8 60.3C34.3 60.6 34.4 61.1 34.1 61.5Z" fill="#00401E"/><path d="M32.8 58.3002C33.3 58.5002 33.9 58.3002 34.1 57.8002L37 53.0002C37.6 51.9002 37.1 50.6002 35.8 50.2002C34.5 49.8002 33.1 50.5002 32.9 51.8002L32.1 57.2002C32 57.7002 32.3 58.2002 32.8 58.3002Z" fill="#00401E"/><path d="M31.4 54.9998C31.9 54.7998 32.2 54.2998 32.1 53.8998L30.9 48.4998C30.6 47.2998 29.2 46.5998 28 47.0998C26.7 47.4998 26.2 48.9998 26.9 49.9998L30.1 54.5998C30.4 54.9998 30.9 55.1998 31.4 54.9998Z" fill="#00401E"/><path d="M47.5 115.8C47 115.8 46.5 115.5 46.5 115L38 34.2998C37.9 33.7998 38.3 33.3998 38.9 33.2998C39.4 33.2998 39.9 33.5998 39.9 34.0998L48.4 114.8C48.4 115.3 48 115.7 47.5 115.8Z" fill="#074120"/><path d="M71.4 142.8C71.9 142.9 72.4 142.6 72.5 142.1L88.5 69.1002C88.6 68.6002 88.3 68.2002 87.7 68.1002C87.2 68.0002 86.7 68.3002 86.6 68.8002L70.6 141.8C70.5 142.3 70.9 142.8 71.4 142.8Z" fill="#074120"/><path d="M58.6 142.9C58.1 143 57.6 142.6 57.5 142.1L47.4 73.4998C47.3 72.9998 47.7 72.5998 48.2 72.4998C48.7 72.3998 49.2 72.7998 49.3 73.2998L59.5 141.9C59.5 142.3 59.2 142.8 58.6 142.9Z" fill="#074120"/><path d="M73.1 134.5C72.6 134.5 72.1 134.1 72.1 133.5V52.5996C72.1 52.0996 72.5 51.5996 73.1 51.5996C73.6 51.5996 74.1 51.9996 74.1 52.5996V133.5C74.1 134.1 73.7 134.5 73.1 134.5Z" fill="#074120"/><path d="M38.9 37L40.2 35.5L47.3 39.6C48.3 40.2 48.6 41.5 47.8 42.4C47 43.3 45.6 43.3 44.8 42.5L38.9 37Z" fill="#F7C7A1"/><path d="M38.2999 36.5998L39.5999 35.0998L33.6999 29.6998C32.7999 28.8998 31.3999 28.9998 30.6999 29.7998C29.8999 30.6998 30.1999 31.9998 31.1999 32.5998L38.2999 36.5998Z" fill="#F7C7A1"/><path d="M40.3 36.4002L38.6 35.2002L43.1 28.7002C43.8 27.8002 45.2 27.5002 46.1 28.2002C47.1 28.9002 47.1 30.2002 46.3 31.0002L40.3 36.4002Z" fill="#F7C7A1"/><path d="M39.4999 37.3001L39.2999 35.4001L47.4999 33.7001C48.6999 33.5001 49.8999 34.2001 49.9999 35.3001C50.0999 36.4001 49.1999 37.4001 47.9999 37.4001L39.4999 37.3001Z" fill="#F7C7A1"/><path d="M39.8999 35.8L37.7999 36L35.8999 28.5C35.5999 27.4 36.4999 26.3 37.6999 26.2C38.8999 26.1 39.9999 27 39.9999 28.1L39.8999 35.8Z" fill="#F7C7A1"/><path d="M39.8999 36.9002L38.1999 35.7002L32.1999 41.1002C31.2999 41.9002 31.3999 43.2002 32.3999 43.9002C33.3999 44.6002 34.7999 44.4002 35.3999 43.4002L39.8999 36.9002Z" fill="#F7C7A1"/><path d="M40.7 36L38.6 36.2V43.9C38.6 45 39.7 45.9 40.9 45.8C42.1 45.7 42.9 44.6 42.7 43.5L40.7 36Z" fill="#F7C7A1"/><path d="M39.2 36.6002L39 34.7002H30.6C29.4 34.7002 28.4 35.7002 28.6 36.8002C28.7 37.9002 29.9 38.7002 31.1 38.4002L39.2 36.6002Z" fill="#F7C7A1"/><path d="M39.1 38.3002C40.4807 38.3002 41.6 37.2704 41.6 36.0002C41.6 34.7299 40.4807 33.7002 39.1 33.7002C37.7193 33.7002 36.6 34.7299 36.6 36.0002C36.6 37.2704 37.7193 38.3002 39.1 38.3002Z" fill="#232144"/><path d="M39.0999 37.6998C40.1493 37.6998 41 36.9387 41 35.9998C41 35.0609 40.1493 34.2998 39.0999 34.2998C38.0506 34.2998 37.2 35.0609 37.2 35.9998C37.2 36.9387 38.0506 37.6998 39.0999 37.6998Z" fill="#F7931E"/><path d="M73.2 52.4006L74.1 50.6006L82.1 53.0006C83.3 53.3006 83.8 54.5006 83.3 55.6006C82.8 56.6006 81.4 57.0006 80.4 56.4006L73.2 52.4006Z" fill="#F7C7A1"/><path d="M72.5 52.1005L73.4 50.3005L66.1999 46.3005C65.1999 45.7005 63.8 46.1005 63.3 47.1005C62.8 48.1005 63.4 49.3005 64.5 49.7005L72.5 52.1005Z" fill="#F7C7A1"/><path d="M74.4 51.4001L72.5 50.6001L75.1 43.3001C75.5 42.2001 76.8 41.7001 77.9 42.2001C79 42.7001 79.4 43.9001 78.8 44.9001L74.4 51.4001Z" fill="#F7C7A1"/><path d="M73.9 52.5001L73.2 50.7001L80.7 47.2001C81.8 46.7001 83.1 47.2001 83.5 48.2001C83.9 49.2001 83.3 50.4001 82.1 50.7001L73.9 52.5001Z" fill="#F7C7A1"/><path d="M73.8 51.0001L71.8 51.7001L68 44.9001C67.4 43.9001 68 42.7001 69.1 42.3001C70.2 41.9001 71.5 42.5001 71.8 43.6001L73.8 51.0001Z" fill="#F7C7A1"/><path d="M74.1 52.0998L72.2 51.2998L67.8 57.7998C67.2 58.7998 67.6 59.9998 68.7 60.4998C69.8 60.9998 71.1 60.3998 71.5 59.3998L74.1 52.0998Z" fill="#F7C7A1"/><path d="M74.6 51L72.6 51.7L74.6 59.1C74.9 60.2 76.1 60.8 77.3 60.4C78.4 60 79 58.8 78.4 57.8L74.6 51Z" fill="#F7C7A1"/><path d="M73.4 51.9006L72.7 50.1006L64.6 51.9006C63.4 52.2006 62.7 53.3006 63.2 54.4006C63.6 55.4006 65 55.9006 66 55.4006L73.4 51.9006Z" fill="#F7C7A1"/><path d="M73.2 53.7006C74.5807 53.7006 75.7 52.6708 75.7 51.4006C75.7 50.1303 74.5807 49.1006 73.2 49.1006C71.8192 49.1006 70.7 50.1303 70.7 51.4006C70.7 52.6708 71.8192 53.7006 73.2 53.7006Z" fill="#232144"/><path d="M73.2 53.1002C74.2493 53.1002 75.1 52.3391 75.1 51.4002C75.1 50.4613 74.2493 49.7002 73.2 49.7002C72.1506 49.7002 71.3 50.4613 71.3 51.4002C71.3 52.3391 72.1506 53.1002 73.2 53.1002Z" fill="#F7931E"/><path d="M47.8 72.2006L49.1 70.6006L56.4 74.4006C57.5 75.0006 57.7 76.2006 57 77.1006C56.3 78.0006 54.9 78.1006 54 77.4006L47.8 72.2006Z" fill="#F7C7A1"/><path d="M47.2 71.8002L48.5 70.2002L42.4 65.0002C41.5 64.2002 40.1 64.4002 39.4 65.3002C38.7 66.2002 39 67.5002 40 68.0002L47.2 71.8002Z" fill="#F7C7A1"/><path d="M49.3 71.5002L47.6 70.3002L51.8 63.7002C52.4 62.7002 53.8 62.5002 54.8 63.1002C55.8 63.8002 55.9 65.1002 55.1 65.9002L49.3 71.5002Z" fill="#F7C7A1"/><path d="M48.5 72.5L48.2 70.5999L56.3 68.5999C57.5 68.2999 58.7 68.9999 58.9 70.0999C59.1 71.1999 58.2 72.1999 56.9 72.1999L48.5 72.5Z" fill="#F7C7A1"/><path d="M48.8 71.0003L46.7 71.3003L44.5 63.9003C44.2 62.8003 45 61.7003 46.2 61.6003C47.4 61.4003 48.5 62.3003 48.5 63.4003L48.8 71.0003Z" fill="#F7C7A1"/><path d="M48.8 72.1004L47.1 70.9004L41.4 76.5004C40.6 77.3004 40.7 78.6004 41.7 79.3004C42.7 80.0004 44.1 79.7004 44.7 78.7004L48.8 72.1004Z" fill="#F7C7A1"/><path d="M49.6 71.1006L47.5 71.4006L47.8 79.1006C47.8 80.2006 48.9 81.1006 50.1 80.9006C51.3 80.7006 52.1 79.6006 51.8 78.6006L49.6 71.1006Z" fill="#F7C7A1"/><path d="M48.1 71.9L47.8 70L39.4 70.2C38.2 70.2 37.3 71.2 37.4 72.3C37.6 73.4 38.8 74.1 40 73.8L48.1 71.9Z" fill="#F7C7A1"/><path d="M48 73.6C49.3807 73.6 50.5 72.5703 50.5 71.3C50.5 70.0297 49.3807 69 48 69C46.6193 69 45.5 70.0297 45.5 71.3C45.5 72.5703 46.6193 73.6 48 73.6Z" fill="#232144"/><path d="M48 73.0006C49.0493 73.0006 49.9 72.2395 49.9 71.3006C49.9 70.3617 49.0493 69.6006 48 69.6006C46.9506 69.6006 46.1 70.3617 46.1 71.3006C46.1 72.2395 46.9506 73.0006 48 73.0006Z" fill="#F7931E"/><path d="M86.5 69.1004L88.5 67.1004L82.7 59.2004C81.8 57.9004 79.6 58.4004 79.4 59.9004C79.3 60.6004 78.7 61.1004 78 61.3004C76.4 61.6004 76 63.6004 77.5 64.4004L86.5 69.1004Z" fill="#E73245"/><path d="M89.4 71.6006L91.4 69.6006L100.4 74.4006C101.8 75.2006 101.5 77.1006 99.9 77.5006C99.2 77.6006 98.6 78.2006 98.5 78.9006C98.3 80.4006 96.1 80.8006 95.2 79.6006L89.4 71.6006Z" fill="#E73245"/><path d="M89.3 67.1004L91.5 69.0004L100.1 63.7004C101.5 62.9004 101 60.9004 99.3 60.7004C98.5 60.6004 97.9 60.1004 97.8 59.4004C97.5 57.9004 95.3 57.6004 94.5 58.9004L89.3 67.1004Z" fill="#E73245"/><path d="M86.5 69.8008L88.7 71.7008L83.5 80.0008C82.7 81.3008 80.5 81.0008 80.2 79.5008C80 78.8008 79.4 78.3008 78.7 78.2008C77.1 78.0008 76.6 76.0008 77.9 75.2008L86.5 69.8008Z" fill="#E73245"/><path d="M91 67.9004L91.1 70.6004L101.3 72.4004C102.9 72.7004 104.1 71.0004 103.1 69.8004C102.6 69.2004 102.6 68.5004 103 67.9004C103.9 66.6004 102.6 65.0004 101 65.4004L91 67.9004Z" fill="#E73245"/><path d="M86.9 68.0999L87 70.7999L77 73.1999C75.4 73.5999 74.1 71.9999 75 70.6999C75.4 70.0999 75.4 69.3999 74.9 68.7999C73.9 67.5999 75.1 65.8999 76.7 66.1999L86.9 68.0999Z" fill="#E73245"/><path d="M90.6 71.1006L87.6 71.2006L85.6 80.6006C85.3 82.1006 87.1 83.2006 88.5 82.2006C89.1 81.8006 89.9 81.8006 90.6 82.1006C92 82.9006 93.8 81.7006 93.3 80.3006L90.6 71.1006Z" fill="#E73245"/><path d="M90.4 67.5004L87.4 67.6004L84.7 58.4004C84.3 56.9004 86 55.8004 87.4 56.6004C88 57.0004 88.9 56.9004 89.5 56.5004C90.8 55.6004 92.7 56.7004 92.4 58.1004L90.4 67.5004Z" fill="#E73245"/><path d="M87.6 68.7006L89.3 68.0006L88 62.2006C87.8 61.3006 86.5 61.1006 85.9 61.9006C85.7 62.3006 85.2 62.5006 84.7 62.4006C83.7 62.2006 83 63.3006 83.6 64.0006L87.6 68.7006Z" fill="#891229"/><path d="M88.7 70.7L90.4 70L94.4 74.7C95 75.4 94.3 76.5 93.3 76.3C92.8 76.2 92.4 76.4 92.1 76.8C91.6 77.6 90.2 77.4 90 76.5L88.7 70.7Z" fill="#891229"/><path d="M89.7 68.1005L90.5 69.6005L96.8 68.4005C97.8 68.2005 98 67.0005 97.1 66.5005C96.7 66.3005 96.5 65.9005 96.6 65.4005C96.8 64.5005 95.6 63.8005 94.8 64.4005L89.7 68.1005Z" fill="#891229"/><path d="M87.5 69.1006L88.3 70.6006L83.2 74.2006C82.4 74.8006 81.2 74.1006 81.4 73.2006C81.5 72.8006 81.3 72.4006 80.9 72.1006C80 71.6006 80.2 70.4006 81.2 70.2006L87.5 69.1006Z" fill="#891229"/><path d="M90.5 68.9004L89.9 70.5004L95.3 73.7004C96.2 74.2004 97.3 73.5004 97 72.6004C96.9 72.2004 97.1 71.7004 97.4 71.5004C98.2 71.0004 97.9 69.8004 96.9 69.6004L90.5 68.9004Z" fill="#891229"/><path d="M88.1 68.2001L87.5 69.8001L81.1 69.0001C80.1 68.9001 79.8 67.7001 80.6 67.1001C81 66.9001 81.2 66.4001 81 66.0001C80.7 65.1001 81.8 64.4001 82.7 64.9001L88.1 68.2001Z" fill="#891229"/><path d="M89.4 70.7006L87.7 70.1006L84.2 75.0006C83.6 75.8006 84.4 76.8006 85.4 76.6006C85.9 76.5006 86.3 76.7006 86.6 77.0006C87.2 77.8006 88.5 77.5006 88.6 76.5006L89.4 70.7006Z" fill="#891229"/><path d="M90.3 68.6006L88.6 68.0006L89.4 62.1006C89.5 61.2006 90.8 60.9006 91.4 61.6006C91.7 62.0006 92.1 62.1006 92.6 62.0006C93.6 61.8006 94.4 62.8006 93.8 63.6006L90.3 68.6006Z" fill="#891229"/><path d="M88.9 71.8C90.3359 71.8 91.5 70.7255 91.5 69.4C91.5 68.0745 90.3359 67 88.9 67C87.464 67 86.3 68.0745 86.3 69.4C86.3 70.7255 87.464 71.8 88.9 71.8Z" fill="#FBB03B"/><path d="M88.9 71.2006C90.0046 71.2006 90.9 70.3947 90.9 69.4006C90.9 68.4065 90.0046 67.6006 88.9 67.6006C87.7955 67.6006 86.9 68.4065 86.9 69.4006C86.9 70.3947 87.7955 71.2006 88.9 71.2006Z" fill="#232144"/><path d="M53 47.2996L55 45.2996L49.2 37.3996C48.3 36.0996 46.1 36.5996 45.9 38.0996C45.8 38.7996 45.2 39.2996 44.5 39.4996C42.9 39.7996 42.5 41.7996 44 42.5996L53 47.2996Z" fill="#E73245"/><path d="M55.9 49.7998L57.9 47.7998L66.9 52.5998C68.3 53.3998 68 55.2998 66.4 55.6998C65.7 55.7998 65.1 56.3998 65 57.0998C64.8 58.5998 62.6 58.9998 61.7 57.7998L55.9 49.7998Z" fill="#E73245"/><path d="M55.7 45.2996L57.9 47.1996L66.5 41.8996C67.9 41.0996 67.3999 39.0996 65.6999 38.8996C64.8999 38.7996 64.2999 38.2996 64.1999 37.5996C63.8999 36.0996 61.7 35.7996 60.9 37.0996L55.7 45.2996Z" fill="#E73245"/><path d="M52.9999 48L55.1999 49.9L49.9999 58.2C49.1999 59.5 46.9999 59.2 46.6999 57.7C46.4999 57 45.8999 56.5 45.1999 56.4C43.5999 56.2 43.0999 54.2 44.3999 53.4L52.9999 48Z" fill="#E73245"/><path d="M57.4 46.0996L57.5 48.7996L67.7 50.5996C69.3 50.8996 70.5 49.1996 69.5 47.9996C69 47.3996 69 46.6996 69.4 46.0996C70.3 44.7996 69 43.1996 67.4 43.5996L57.4 46.0996Z" fill="#E73245"/><path d="M53.4 46.1991L53.5 48.8991L43.4 51.3991C41.8 51.7991 40.5 50.1991 41.4 48.8991C41.8 48.2991 41.8 47.5991 41.3 46.9991C40.3 45.7991 41.5 44.0991 43.1 44.3991L53.4 46.1991Z" fill="#E73245"/><path d="M57 49.2998L54 49.3998L52 58.7998C51.7 60.2998 53.5 61.3998 54.9 60.3998C55.5 59.9998 56.3 59.9998 57 60.2998C58.4 61.0998 60.2 59.8998 59.7 58.4998L57 49.2998Z" fill="#E73245"/><path d="M56.9 45.6996L53.9 45.7996L51.2 36.5996C50.8 35.0996 52.5 33.9996 53.9 34.7996C54.5 35.1996 55.4 35.0996 56 34.6996C57.3 33.7996 59.2 34.8996 58.9 36.2996L56.9 45.6996Z" fill="#E73245"/><path d="M54.1 46.8998L55.8 46.1998L54.5 40.3998C54.3 39.4998 53 39.2998 52.4 40.0998C52.2 40.4998 51.7 40.6998 51.2 40.5998C50.2 40.3998 49.5 41.4998 50.1 42.1998L54.1 46.8998Z" fill="#891229"/><path d="M55.1 48.8992L56.8 48.1992L60.8 52.8992C61.4 53.5992 60.7 54.6992 59.7 54.4992C59.2 54.3992 58.8 54.5992 58.5 54.9992C58 55.7992 56.6 55.5992 56.4 54.6992L55.1 48.8992Z" fill="#891229"/><path d="M56.2 46.2997L57 47.7997L63.2999 46.5997C64.2999 46.3997 64.4999 45.1997 63.5999 44.6997C63.1999 44.4997 62.9999 44.0997 63.0999 43.5997C63.2999 42.6997 62.0999 41.9997 61.2999 42.5997L56.2 46.2997Z" fill="#891229"/><path d="M53.9 47.2998L54.7 48.7998L49.6 52.3998C48.8 52.9998 47.6 52.2998 47.8 51.3998C47.9 50.9998 47.7 50.5998 47.3 50.2998C46.4 49.7998 46.6 48.5998 47.6 48.3998L53.9 47.2998Z" fill="#891229"/><path d="M56.8999 47.0996L56.2999 48.6996L61.6999 51.8996C62.5999 52.3996 63.6999 51.6996 63.3999 50.7996C63.2999 50.3996 63.4999 49.8996 63.7999 49.6996C64.5999 49.1996 64.2999 47.9996 63.2999 47.7996L56.8999 47.0996Z" fill="#891229"/><path d="M54.6 46.3993L54 47.8993L47.6 47.1993C46.6 47.0993 46.3 45.8993 47.1 45.2993C47.5 45.0993 47.7 44.5993 47.5 44.1993C47.2 43.2993 48.3 42.5993 49.2 43.0993L54.6 46.3993Z" fill="#891229"/><path d="M55.9 48.8998L54.2 48.2998L50.7 53.1998C50.1 53.9998 50.9 54.9998 51.9 54.7998C52.4 54.6998 52.8 54.8998 53.1 55.1998C53.7 55.9998 55 55.6998 55.1 54.6998L55.9 48.8998Z" fill="#891229"/><path d="M56.6999 46.7998L54.9999 46.1998L55.7999 40.2998C55.8999 39.3998 57.1999 39.0998 57.7999 39.7998C58.0999 40.1998 58.4999 40.2998 58.9999 40.1998C59.9999 39.9998 60.7999 40.9998 60.1999 41.7998L56.6999 46.7998Z" fill="#891229"/><path d="M55.2999 49.9992C56.7359 49.9992 57.9 48.9247 57.9 47.5992C57.9 46.2737 56.7359 45.1992 55.2999 45.1992C53.864 45.1992 52.7 46.2737 52.7 47.5992C52.7 48.9247 53.864 49.9992 55.2999 49.9992Z" fill="#FBB03B"/><path d="M55.2999 49.3998C56.4045 49.3998 57.2999 48.5939 57.2999 47.5998C57.2999 46.6057 56.4045 45.7998 55.2999 45.7998C54.1954 45.7998 53.2999 46.6057 53.2999 47.5998C53.2999 48.5939 54.1954 49.3998 55.2999 49.3998Z" fill="#232144"/><path d="M67.4 47.8998C66.3 48.8998 64.5 48.8998 63.4 47.8998L60.2 44.9998C59.1 43.9998 59.1 42.2998 60.2 41.2998C61.3 40.2998 63.1 40.2998 64.2 41.2998L67.3 44.0998C68.5 45.1998 68.5 46.7998 67.4 47.8998Z" fill="#FF6200"/><path d="M67.3 47.8994C66.2 47.8994 65.3 46.9994 65.3 45.9994L65.4 43.1994C65.4 42.1994 66.4 41.3994 67.5 41.3994C68.6 41.3994 69.5 42.2994 69.5 43.2994L69.4 46.0994C69.4 47.0994 68.4 47.9994 67.3 47.8994Z" fill="#FF6200"/><path d="M67.2841 48.4982C68.692 48.0071 69.6123 46.975 69.3395 46.1928C69.0667 45.4106 67.7041 45.1745 66.2962 45.6656C64.8882 46.1566 63.968 47.1888 64.2408 47.971C64.5136 48.7532 65.8761 48.9892 67.2841 48.4982Z" fill="#074120"/><path d="M73.3999 55.2996C74.0999 56.5996 75.7999 57.0996 77.1999 56.3996L81.0999 54.5996C82.4999 53.8996 83.1 52.3996 82.3 51.0996C81.6 49.7996 79.8999 49.2996 78.4999 49.9996L74.5999 51.7996C73.1999 52.4996 72.6999 53.9996 73.3999 55.2996Z" fill="#FF6200"/><path d="M73.3999 55.4C74.4999 55.7 75.5999 55.1 75.8999 54.1L76.6999 51.4C76.9999 50.4 76.3999 49.4 75.2999 49.1C74.1999 48.8 73.0999 49.4 72.7999 50.4L71.9999 53.1C71.6999 54.1 72.3999 55.1 73.3999 55.4Z" fill="#FF6200"/><path d="M76.3639 56.3299C76.843 55.654 76.2818 54.4329 75.1104 53.6023C73.9389 52.7718 72.6009 52.6464 72.1217 53.3222C71.6425 53.998 72.2037 55.2192 73.3752 56.0497C74.5466 56.8803 75.8847 57.0057 76.3639 56.3299Z" fill="#074120"/><path d="M67.4 61.0996C66.3 62.0996 64.5 62.0996 63.4 61.0996L60.3 58.2996C59.2 57.2996 59.2 55.5996 60.3 54.5996C61.4 53.5996 63.2 53.5996 64.3 54.5996L67.4 57.3996C68.5 58.3996 68.5 60.0996 67.4 61.0996Z" fill="#FF6200"/><path d="M67.3 61.0996C66.2 61.0996 65.3 60.1996 65.3 59.1996L65.4 56.3996C65.4 55.3996 66.4 54.5996 67.5 54.5996C68.6 54.5996 69.5 55.4996 69.5 56.4996L69.4 59.2996C69.4 60.3996 68.4 61.1996 67.3 61.0996Z" fill="#FF6200"/><path d="M67.2747 61.6993C68.6826 61.2083 69.6029 60.1761 69.3301 59.3939C69.0573 58.6117 67.6947 58.3757 66.2868 58.8667C64.8788 59.3578 63.9586 60.39 64.2314 61.1722C64.5042 61.9544 65.8667 62.1904 67.2747 61.6993Z" fill="#074120"/><path d="M73.3999 68.4998C74.0999 69.7998 75.7999 70.2998 77.1999 69.5998L81.0999 67.7998C82.4999 67.0998 83.1 65.5998 82.3 64.2998C81.6 62.9998 79.8999 62.4998 78.4999 63.1998L74.5999 64.9998C73.1999 65.6998 72.6999 67.2998 73.3999 68.4998Z" fill="#FF6200"/><path d="M73.3999 68.6001C74.4999 68.9001 75.5999 68.3002 75.8999 67.3002L76.6999 64.6001C76.9999 63.6001 76.3999 62.6001 75.2999 62.3001C74.1999 62.0001 73.0999 62.6001 72.7999 63.6001L71.9999 66.3002C71.6999 67.3002 72.3999 68.3001 73.3999 68.6001Z" fill="#FF6200"/><path d="M76.3401 69.5428C76.8193 68.8669 76.2581 67.6458 75.0866 66.8152C73.9152 65.9847 72.5771 65.8593 72.0979 66.5351C71.6188 67.2109 72.18 68.4321 73.3514 69.2626C74.5229 70.0932 75.8609 70.2186 76.3401 69.5428Z" fill="#074120"/><path d="M70.4 39.3999C71.9 39.7999 73.5 39.0999 74 37.6999L75.3 33.8999C75.8 32.4999 75 31.0999 73.5 30.5999C72 30.1999 70.4 30.8999 69.9 32.2999L68.6 36.0999C68.1 37.4999 68.9 38.9999 70.4 39.3999Z" fill="#FF6200"/><path d="M70.5 39.3995C71.5 38.8995 71.8 37.7995 71.3 36.8995L69.8 34.4995C69.2 33.5995 68 33.2995 67 33.7995C66 34.2995 65.7 35.3995 66.2 36.2995L67.7 38.6995C68.2 39.5995 69.5 39.8995 70.5 39.3995Z" fill="#FF6200"/><path d="M70.7011 39.8949C72.1887 39.7909 73.3509 39.0813 73.2969 38.3099C73.243 37.5386 71.9933 36.9976 70.5057 37.1017C69.0181 37.2057 67.8559 37.9153 67.9099 38.6867C67.9638 39.458 69.2135 39.999 70.7011 39.8949Z" fill="#074120"/><path d="M70.7 101.6C70.5 101.6 70.3 101.4 70.3 101.2V39.6002C70.3 39.4002 70.5 39.2002 70.7 39.2002C70.9 39.2002 71.1 39.4002 71.1 39.6002V101.2C71.1 101.4 70.9 101.6 70.7 101.6Z" fill="#074120"/><path d="M67.7 47.4004H66.9L70.3 52.4004H71.1L67.7 47.4004Z" fill="#074120"/><path d="M67.7 60.7998H66.9L70.3 65.7998H71.1L67.7 60.7998Z" fill="#074120"/><path d="M73.6 54.5H74.4L71.1 59.5H70.3L73.6 54.5Z" fill="#074120"/><path d="M73.6 67.9004H74.4L71.1 72.9004H70.3L73.6 67.9004Z" fill="#074120"/><path d="M67.4 74.7998C66.3 75.7998 64.5 75.7998 63.4 74.7998L60.3 71.9998C59.2 70.9998 59.2 69.2998 60.3 68.2998C61.4 67.2998 63.2 67.2998 64.3 68.2998L67.4 71.0998C68.5 72.0998 68.5 73.6998 67.4 74.7998Z" fill="#FF6200"/><path d="M67.3 74.7998C66.2 74.7998 65.3 73.8998 65.3 72.8998L65.4 70.0998C65.4 69.0998 66.4 68.2998 67.5 68.2998C68.6 68.2998 69.5 69.1998 69.5 70.1998L69.4 72.9998C69.4 73.9998 68.4 74.7998 67.3 74.7998Z" fill="#FF6200"/><path d="M67.2893 75.3966C68.6973 74.9056 69.6175 73.8734 69.3447 73.0912C69.0719 72.309 67.7094 72.073 66.3014 72.564C64.8935 73.0551 63.9732 74.0872 64.246 74.8694C64.5188 75.6516 65.8814 75.8877 67.2893 75.3966Z" fill="#074120"/><path d="M73.3999 82.2C74.0999 83.5 75.7999 84 77.1999 83.3L81.0999 81.5C82.4999 80.8 83.1 79.3 82.3 78C81.6 76.7 79.8999 76.2 78.4999 76.9L74.5999 78.7C73.1999 79.3 72.6999 80.9 73.3999 82.2Z" fill="#FF6200"/><path d="M73.3999 82.3003C74.4999 82.6003 75.5999 82.0003 75.8999 81.0003L76.6999 78.3003C76.9999 77.3003 76.3999 76.3003 75.2999 76.0003C74.1999 75.7003 73.0999 76.3003 72.7999 77.3003L71.9999 80.0003C71.6999 81.0003 72.3999 82.0003 73.3999 82.3003Z" fill="#FF6200"/><path d="M76.3759 83.2244C76.855 82.5486 76.2938 81.3274 75.1224 80.4969C73.951 79.6663 72.6129 79.5409 72.1337 80.2167C71.6546 80.8926 72.2158 82.1137 73.3872 82.9443C74.5586 83.7748 75.8967 83.9002 76.3759 83.2244Z" fill="#074120"/><path d="M67.4 88C66.3 89 64.5 89 63.4 88L60.3 85.2C59.2 84.2 59.2 82.5 60.3 81.5C61.4 80.5 63.2 80.5 64.3 81.5L67.4 84.3C68.5 85.3 68.5 87 67.4 88Z" fill="#FF6200"/><path d="M67.3 88C66.2 88 65.3 87.1 65.3 86.1L65.4 83.3C65.4 82.3 66.4 81.5 67.5 81.5C68.6 81.5 69.5 82.4 69.5 83.4L69.4 86.2C69.4 87.3 68.4 88.1 67.3 88Z" fill="#FF6200"/><path d="M67.2799 88.5978C68.6879 88.1067 69.6081 87.0746 69.3353 86.2924C69.0625 85.5102 67.7 85.2741 66.292 85.7652C64.8841 86.2562 63.9638 87.2884 64.2366 88.0706C64.5094 88.8528 65.872 89.0888 67.2799 88.5978Z" fill="#074120"/><path d="M73.4 95.3992C74.1 96.6992 75.8 97.1992 77.2 96.4992L81.1 94.6992C82.5 93.9992 83.1 92.4992 82.3 91.1992C81.6 89.8992 79.9 89.3992 78.5 90.0992L74.6 91.8992C73.2 92.5992 72.7 94.0992 73.4 95.3992Z" fill="#FF6200"/><path d="M73.4 95.4996C74.5 95.7996 75.6 95.1996 75.9 94.1996L76.7 91.4996C77 90.4996 76.4 89.4996 75.3 89.1996C74.2 88.8996 73.1 89.4996 72.8 90.4996L72 93.1996C71.7 94.1996 72.4 95.1996 73.4 95.4996Z" fill="#FF6200"/><path d="M76.3521 96.4363C76.8312 95.7605 76.27 94.5393 75.0986 93.7088C73.9271 92.8782 72.5891 92.7528 72.1099 93.4286C71.6307 94.1045 72.1919 95.3256 73.3634 96.1562C74.5348 96.9867 75.8729 97.1122 76.3521 96.4363Z" fill="#074120"/><path d="M67.7 74.2998H66.9L70.3 79.2998H71.1L67.7 74.2998Z" fill="#074120"/><path d="M67.7 87.7002H66.9L70.3 92.7002H71.1L67.7 87.7002Z" fill="#074120"/><path d="M73.6 81.4004H74.4L71.1 86.4004H70.3L73.6 81.4004Z" fill="#074120"/><path d="M73.6 94.7998H74.4L71.1 99.7998H70.3L73.6 94.7998Z" fill="#074120"/><path d="M63.7 87.6994L65 85.2994L57 79.1994C55.7 78.1994 53.8 79.1994 54.1 80.6994C54.2 81.3994 53.8 82.0994 53.2 82.3994C51.7 83.0994 52 85.0994 53.6 85.4994L63.7 87.6994Z" fill="#E73245"/><path d="M67.3 89.2994L68.6 86.8994L78.7 89.0994C80.3 89.4994 80.6 91.3994 79.1 92.1994C78.4 92.4994 78.1 93.1994 78.2 93.8994C78.4 95.3994 76.5 96.3994 75.3 95.3994L67.3 89.2994Z" fill="#E73245"/><path d="M65.7 85.0997L68.4 86.2997L75.1 78.9997C76.2 77.7997 75.1 76.0997 73.4 76.2997C72.6 76.3997 71.9 76.0997 71.5 75.4997C70.7 74.1997 68.5 74.3997 68.1 75.8997L65.7 85.0997Z" fill="#E73245"/><path d="M63.9 88.2998L66.6 89.4998L64.1 98.7998C63.7 100.3 61.5 100.5 60.7 99.1998C60.3 98.5998 59.6 98.2998 58.8 98.3998C57.2 98.5998 56.1 96.8998 57.1 95.6998L63.9 88.2998Z" fill="#E73245"/><path d="M67.6 85.4002L68.5 88.0002L78.9 87.1002C80.6 87.0002 81.1 85.0002 79.8 84.1002C79.2 83.7002 78.9 83.0002 79.1 82.3002C79.6 80.8002 77.8 79.6002 76.4 80.4002L67.6 85.4002Z" fill="#E73245"/><path d="M63.8 86.5996L64.7 89.1996L55.8 94.1996C54.4 94.9996 52.6 93.7996 53.1 92.2996C53.3 91.5996 53.1 90.8996 52.4 90.4996C51.1 89.5996 51.7 87.6996 53.3 87.4996L63.8 86.5996Z" fill="#E73245"/><path d="M68.2 88.5996L65.4 89.4996L66.4 98.9996C66.6 100.5 68.7 101.1 69.7 99.7996C70.2 99.1996 70.9 98.9996 71.7 99.1996C73.3 99.5996 74.6 97.9996 73.8 96.6996L68.2 88.5996Z" fill="#E73245"/><path d="M66.9 85.0999L64.1 85.9999L58.7 77.8999C57.8 76.5999 59.2 74.9999 60.8 75.3999C61.5 75.5999 62.3 75.3999 62.8 74.7999C63.8 73.5999 65.9 74.0999 66.1 75.5999L66.9 85.0999Z" fill="#E73245"/><path d="M64.6 86.9997L66 85.8997L63 80.6997C62.5 79.8997 61.2 79.9997 60.9 80.8997C60.8 81.2997 60.4 81.5997 59.9 81.6997C58.9 81.7997 58.5 82.9997 59.4 83.5997L64.6 86.9997Z" fill="#891229"/><path d="M66.3 88.6996L67.7 87.5996L72.9 90.9996C73.7 91.4996 73.4 92.6996 72.4 92.8996C71.9 92.8996 71.5 93.2996 71.4 93.6996C71.2 94.5996 69.8 94.7996 69.3 93.8996L66.3 88.6996Z" fill="#891229"/><path d="M66.5 85.8996L67.7 87.1996L73.4 84.3996C74.3 83.9996 74.1 82.6996 73.1 82.4996C72.6 82.3996 72.3 81.9996 72.3 81.5996C72.2 80.6996 70.9 80.3996 70.3 81.0996L66.5 85.8996Z" fill="#891229"/><path d="M64.6 87.3994L65.8 88.6994L62 93.4994C61.4 94.2994 60.1 93.8994 60 92.9994C59.9 92.5994 59.6 92.1994 59.2 92.0994C58.2 91.8994 58 90.5994 58.9 90.1994L64.6 87.3994Z" fill="#891229"/><path d="M67.4 86.4995L67.3 88.1995L73.5 89.8995C74.5 90.1995 75.3 89.1995 74.8 88.3995C74.6 87.9995 74.6 87.5995 74.9 87.1995C75.5 86.4995 74.9 85.3995 73.8 85.4995L67.4 86.4995Z" fill="#891229"/><path d="M65 86.4L64.9 88.1L58.5 89.1C57.5 89.3 56.8 88.2 57.4 87.4C57.7 87.1 57.7 86.6 57.5 86.2C57 85.4 57.8 84.4 58.8 84.7L65 86.4Z" fill="#891229"/><path d="M67 88.4994L65.2 88.3994L63.3 93.9994C63 94.8994 64.1 95.6994 65 95.1994C65.4 94.9994 65.9 94.9994 66.3 95.2994C67.1 95.8994 68.3 95.2994 68.1 94.2994L67 88.4994Z" fill="#891229"/><path d="M67.1 86.1999L65.3 86.0999L64.3 80.2999C64.1 79.3999 65.3 78.6999 66.1 79.2999C66.5 79.5999 67 79.5999 67.4 79.3999C68.3 78.8999 69.3 79.6999 69.1 80.5999L67.1 86.1999Z" fill="#891229"/><path d="M66.1 89.8C67.5359 89.8 68.7 88.7255 68.7 87.4C68.7 86.0745 67.5359 85 66.1 85C64.6641 85 63.5 86.0745 63.5 87.4C63.5 88.7255 64.6641 89.8 66.1 89.8Z" fill="#FBB03B"/><path d="M66.1 89.1996C67.2045 89.1996 68.1 88.3937 68.1 87.3996C68.1 86.4055 67.2045 85.5996 66.1 85.5996C64.9954 85.5996 64.1 86.4055 64.1 87.3996C64.1 88.3937 64.9954 89.1996 66.1 89.1996Z" fill="#232144"/><path d="M52.7 144L36.4 89.2998H95.9L79.6 144H52.7Z" fill="#F7E5CD"/><path d="M63.7 113.5V113.4C60.4 111.6 52.5 109.7 48 108.7C47.2 108.5 46.3 108.7 45.6 109.1L39.7 112.6C39.6 112.7 39.5 112.7 39.4 112.8L39.2 112.9C38.4 113.5 37.9 114.3 37.8 115.2L35.3 115.9C33.4 116.4 32.4 118.3 32.9 120C33.5 121.7 35.3 122.6 37.1 122.2L36.1 122.5C34.2 123 33.2 124.9 33.7 126.6C34.3 128.3 36.3 129.3 38.2 128.8C36.3 129.3 35.3 131.2 35.8 132.9C36.4 134.6 38.4 135.6 40.3 135.1L41.7 134.7V134.8C40.2 135.5 39.4 137.1 39.9 138.6L40 138.8C40.5 140.4 42.3 141.3 44.1 141L44.3 140.9H44.4L51.2 139H51.3L57.7 137.2C60.1 136.5 62.3 135.3 64.3 133.8L63.7 113.5Z" fill="#693725"/><path d="M61.7 110L62.7 138.7L79.6 144H119.7L115.6 124.2L61.7 110Z" fill="#7070FF"/></svg>