<?xml version="1.0" encoding="utf-8"?><!--Generator: Adobe Illustrator 27.8.0, SVG Export Plug-In . SVG Version: 6.00 Build 0)--><svg version="1.1" xmlns="http://www.w3.org/2000/svg" xmlns:xlink="http://www.w3.org/1999/xlink" x="0px" y="0px" viewBox="0 0 160 160" style="enable-background:new 0 0 160 160;" xml:space="preserve"><style type="text/css">.st0{fill:#FFC6AD;}
	.st1{fill:#F7931E;}
	.st2{fill:#8B181D;}
	.st3{fill:#F5836D;}
	.st4{fill:#FFA28F;}
	.st5{fill:#ABB8B9;}
	.st6{fill:#FBB03B;}
	.st7{fill:#F7E5CD;}
	.st8{fill:#BAC09A;}
	.st9{fill:#463EC5;}
	.st10{fill:#693725;}
	.st11{fill:#FAA332;}
	.st12{fill:#E73245;}
	.st13{fill:#8F411F;}
	.st14{fill:#F68D3D;}
	.st15{fill:#569B7B;}
	.st16{fill:#FFFFFF;}
	.st17{fill:#AACDE5;}
	.st18{fill:#232144;}
	.st19{fill:#A86554;}
	.st20{fill:#FFBD7A;}
	.st21{fill:#E6E3DA;}
	.st22{fill:#4B7CFE;}
	.st23{fill:#D8CBC5;}
	.st24{fill:#FF6200;}
	.st25{fill:#F0A86B;}
	.st26{fill:#E3944F;}
	.st27{fill:#191C15;}
	.st28{fill:#420F0F;}
	.st29{fill:#7D441C;}
	.st30{fill:none;stroke:#000000;stroke-width:0.6944;stroke-miterlimit:10;}
	.st31{fill:#01464D;}
	.st32{fill:#7A2F37;}
	.st33{fill:#9E3F39;}
	.st34{fill:none;stroke:#ABB8B9;stroke-width:3;stroke-miterlimit:10;}
	.st35{fill:#891229;}
	.st36{fill:#7070FF;}
	.st37{fill:#32785A;}
	.st38{fill:#D3E8F3;}
	.st39{fill:#006931;}
	.st40{clip-path:url(#SVGID_00000032632013766043368670000016113880125715284615_);}
	.st41{fill:#9A4039;}
	.st42{fill:none;stroke:#232144;stroke-width:2;stroke-miterlimit:10;}
	.st43{fill:#F5B091;}
	.st44{fill:none;stroke:#000000;stroke-width:1.3429;stroke-miterlimit:10;}
	.st45{fill:#D93B34;}
	.st46{fill:#FE5E57;}
	.st47{clip-path:url(#XMLID_00000121959544543931568670000015777250613890016681_);fill:#F7931E;}
	.st48{fill:#763427;}</style><g id="stramien"/><g id="Design"><path class="st18" d="M28.7,133.3c0-1.7-0.9-3.2-2.2-4.1c0.4-0.6,0.6-1.2,0.6-1.9c0-1.9-1.5-3.4-3.4-3.4c-1.9,0-3.4,1.5-3.4,3.4
		c0,0.7,0.2,1.4,0.6,1.9c-1.3,0.9-2.2,2.4-2.2,4.1c0,2.5,1.9,4.6,4.4,4.9v3.9h1.1v-3.9C26.8,138,28.7,135.9,28.7,133.3z"/><rect x="70.8" y="27.8" class="st23" width="54.1" height="114.7"/><rect x="45.1" y="27.8" class="st21" width="25.7" height="114.7"/><rect x="15.8" y="141.7" class="st23" width="128.8" height="2.4"/><g><rect x="47.8" y="39.2" class="st18" width="19.9" height="5.8"/></g><g><rect x="47.8" y="54.2" class="st18" width="19.9" height="5.8"/></g><g><rect x="47.8" y="69.2" class="st18" width="19.9" height="5.8"/></g><g><rect x="47.8" y="84.2" class="st18" width="19.9" height="5.8"/></g><g><rect x="47.8" y="99.2" class="st18" width="19.9" height="5.8"/></g><g><rect x="47.8" y="114.2" class="st18" width="19.9" height="5.8"/></g><g><rect x="47.8" y="129.2" class="st18" width="19.9" height="5.8"/></g><rect x="80.2" y="31.8" class="st18" width="44.6" height="11.6"/><rect x="80.2" y="50.4" class="st18" width="44.6" height="11.6"/><rect x="80.2" y="68.9" class="st18" width="44.6" height="11.6"/><rect x="80.2" y="87.4" class="st18" width="44.6" height="11.6"/><rect x="80.2" y="105.9" class="st18" width="44.6" height="11.6"/><rect x="80.2" y="124.5" class="st18" width="44.6" height="11.6"/><rect x="56.1" y="16" class="st21" width="14.8" height="12.9"/><rect x="70.9" y="16" class="st23" width="44.5" height="12.9"/><rect x="58.9" y="21.5" class="st18" width="53.4" height="3.7"/></g></svg>