<?xml version="1.0" encoding="UTF-8"?><svg xmlns="http://www.w3.org/2000/svg" viewBox="0 0 160 160"><defs><style>.cls-1{fill:#f9e6c9;}.cls-2{fill:#6e5fff;}.cls-3{fill:#fbc898;}.cls-4{fill:#231e47;}</style></defs><g id="router"><rect class="cls-4" x="36.09" y="115.81" width="14.95" height="7.72"/><rect class="cls-4" x="108.92" y="115.81" width="14.95" height="7.72" transform="translate(232.79 239.33) rotate(-180)"/><rect class="cls-2" x="32.49" y="101.33" width="94.98" height="18.43" rx="2.63" ry="2.63"/><rect class="cls-1" x="68.42" y="107.6" width="27.08" height="7.79"/><circle class="cls-4" cx="73.32" cy="111.54" r="2.25"/><circle class="cls-4" cx="90.56" cy="111.47" r="2.28"/><circle class="cls-4" cx="81.93" cy="111.54" r="2.25"/><circle class="cls-4" cx="37.85" cy="109.43" r="3.9"/><rect class="cls-1" x="49.37" y="107.69" width="9.64" height="7.6"/><rect class="cls-4" x="50.72" y="109.04" width="6.95" height="4.91" rx=".93" ry=".93"/><path class="cls-4" d="M41.6,108.38l-7.49,2.08L16.04,36.32c-.2-.81.28-1.62,1.08-1.84h0c.8-.22,1.63.23,1.88,1.02l22.6,72.87Z"/><circle class="cls-4" cx="122.11" cy="109.43" r="3.9"/><path class="cls-4" d="M118.36,108.38l7.49,2.08,18.07-74.13c.2-.81-.28-1.62-1.08-1.84h0c-.8-.22-1.63.23-1.88,1.02l-22.6,72.87Z"/><circle class="cls-1" cx="107.48" cy="111.49" r="3.96"/><circle class="cls-4" cx="107.48" cy="111.49" r="2.28"/></g><g id="wifi"><g id="aSlRYo"><path class="cls-3" d="M80.71,43.52c10.34.18,19.95,3.99,28.01,11.66,1.53,1.46,1.54,3.04.93,4.15-1.03,1.88-3.48,2.22-5.04.7-2.15-2.1-4.49-3.96-7.11-5.45-6.34-3.64-13.15-5.18-20.43-4.56-8.4.71-15.61,4.07-21.64,9.96-.98.95-2.11,1.27-3.4.82-1.24-.44-1.94-1.36-2.08-2.67-.12-1.06.29-1.94,1.05-2.68,3.62-3.58,7.76-6.39,12.41-8.44,5.27-2.32,10.8-3.43,17.3-3.48Z"/><path class="cls-3" d="M80.63,54.49c7.64.14,14.71,3.01,20.59,8.74,1.34,1.3,1.39,3.28.15,4.55-1.27,1.3-3.18,1.33-4.54,0-3.37-3.27-7.29-5.53-11.91-6.42-8.29-1.61-15.54.52-21.69,6.33-1.4,1.32-3.2,1.43-4.5.24-1.36-1.23-1.4-3.3-.06-4.64,3.57-3.55,7.77-6.07,12.6-7.53,2.87-.86,5.8-1.25,9.35-1.28Z"/><path class="cls-3" d="M79.3,65.47c5.93.08,10.45,1.91,14.21,5.59,1.13,1.11,1.3,2.8.45,4.04-1.16,1.69-3.4,1.9-4.91.44-1.92-1.86-4.18-3.09-6.83-3.52-4.31-.7-8.07.47-11.24,3.47-.64.61-1.36.99-2.26,1-1.32.02-2.45-.65-2.96-1.84-.54-1.25-.4-2.46.55-3.44,2.64-2.71,5.83-4.49,9.53-5.27,1.35-.29,2.74-.38,3.45-.47Z"/><path class="cls-3" d="M80,77.9c3.32.01,5.98,2.71,5.96,6.03-.02,3.26-2.73,5.95-6.01,5.94-3.3,0-5.99-2.73-5.97-6.04.02-3.27,2.73-5.94,6.01-5.93Z"/></g></g></svg>