<svg viewBox="0 0 160 160" fill="none" xmlns="http://www.w3.org/2000/svg"><path d="M39.64 102.32L33.32 104.08L18.62 51.5901L24.93 49.8301L39.64 102.32Z" fill="#FAA332"/><path d="M28.81 102.96L22.5 101.18L37.37 48.7402L43.68 50.5202L28.81 102.96Z" fill="#FAA332"/><path d="M46.57 102.96L40.26 101.18L55.12 48.7402L61.43 50.5202L46.57 102.96Z" fill="#FAA332"/><path d="M52.94 118.42L46.63 116.64L61.49 64.2002L67.8 65.9802L52.94 118.42Z" fill="#FAA332"/><path d="M25.17 64.0601H18.61V118.56H25.17V64.0601Z" fill="#FBB03B"/><path d="M32.41 56.29H25.85V110.79H32.41V56.29Z" fill="#FBB03B"/><path d="M39.65 64.0601H33.09V118.56H39.65V64.0601Z" fill="#FBB03B"/><path d="M46.89 58.7402H40.33V113.24H46.89V58.7402Z" fill="#FBB03B"/><path d="M54.1201 55.9004H47.5601V110.4H54.1201V55.9004Z" fill="#FBB03B"/><path d="M61.3601 61.5303H54.8V116.03H61.3601V61.5303Z" fill="#FBB03B"/><path d="M66.56 83.1104H16V125.84H66.56V83.1104Z" fill="#ABB8B9"/><path d="M128.19 44.6396H85.2001L86.9501 125.84H126.44L128.19 44.6396Z" fill="#E73245"/><path d="M87.38 28.2698V32.2898H105.24V41.6198H109.27V30.9898C109.27 29.4798 108.05 28.2598 106.54 28.2598H87.38V28.2698Z" fill="#E73245"/><path d="M127.71 44.2999V40.8799H85.68V44.2999C84.21 44.8199 83.15 46.2199 83.15 47.8699V50.4499H130.24V47.8699C130.24 46.2199 129.18 44.8299 127.71 44.2999Z" fill="#F7E5CD"/><path d="M50.21 115.68H138.98V123.6C138.98 125.56 137.39 127.16 135.42 127.16H53.77C51.81 127.16 50.21 125.57 50.21 123.6V115.68Z" fill="#E67E2E"/><path d="M138.28 105.93H50.91C49.1482 105.93 47.72 107.358 47.72 109.12V113.23C47.72 114.991 49.1482 116.42 50.91 116.42H138.28C140.042 116.42 141.47 114.991 141.47 113.23V109.12C141.47 107.358 140.042 105.93 138.28 105.93Z" fill="#891229"/><path d="M134.03 95.1699H98.79V95.2399H55.17C52.86 95.2399 50.98 97.1199 50.98 99.4299C50.98 101.74 52.86 103.62 55.17 103.62H99.61V103.55H134.03C136.34 103.55 138.22 101.67 138.22 99.3599C138.22 97.0499 136.34 95.1699 134.03 95.1699Z" fill="#E73245"/><path d="M144 99.2598L45.2 99.2598C45.2 94.6398 48.95 90.8798 53.58 90.8798L135.62 90.8798C140.24 90.8798 144 94.6298 144 99.2598Z" fill="#3EA464"/><path d="M135.85 103.53H53.34C52.03 103.53 50.98 104.59 50.98 105.89L94.22 114.47L138.22 105.89C138.22 104.59 137.16 103.53 135.86 103.53H135.85Z" fill="#F7E5CD"/><path d="M138.99 91.6899L50.22 91.6899C50.22 78.2099 61.17 67.2599 74.65 67.2599H114.56C128.04 67.2599 138.99 78.2099 138.99 91.6899Z" fill="#E67E2E"/><path d="M65.22 73.6196C65.09 73.4196 65.14 73.1496 65.34 73.0196L67.68 71.4796C67.88 71.3496 68.15 71.3996 68.28 71.5996C68.41 71.7996 68.36 72.0696 68.16 72.1996L65.82 73.7396C65.62 73.8696 65.35 73.8196 65.22 73.6196Z" fill="#F7E5CD"/><path d="M111.56 73.0596C111.43 72.8596 111.48 72.5896 111.68 72.4596L114.02 70.9196C114.22 70.7896 114.49 70.8396 114.62 71.0396C114.75 71.2396 114.7 71.5096 114.5 71.6396L112.16 73.1796C111.96 73.3096 111.69 73.2596 111.56 73.0596Z" fill="#F7E5CD"/><path d="M86.72 82.8896C86.59 82.6896 86.64 82.4196 86.84 82.2896L89.18 80.7496C89.38 80.6196 89.65 80.6696 89.78 80.8696C89.91 81.0696 89.86 81.3396 89.66 81.4696L87.32 83.0096C87.12 83.1396 86.85 83.0896 86.72 82.8896Z" fill="#F7E5CD"/><path d="M80.3371 77.2716C80.3827 77.0329 80.2283 76.8029 79.9923 76.7579C79.7564 76.7128 79.5281 76.8698 79.4825 77.1085L78.9593 79.8489C78.9137 80.0876 79.068 80.3177 79.304 80.3627C79.54 80.4078 79.7682 80.2508 79.8138 80.0121L80.3371 77.2716Z" fill="#F7E5CD"/><path d="M119.86 69.3097C120.06 69.1797 120.33 69.2297 120.46 69.4297L122 71.7697C122.13 71.9697 122.08 72.2397 121.88 72.3697C121.68 72.4997 121.41 72.4497 121.28 72.2497L119.74 69.9097C119.61 69.7097 119.66 69.4397 119.86 69.3097Z" fill="#F7E5CD"/><path d="M76.57 68.9098C76.77 68.7798 77.0399 68.8298 77.1699 69.0298L78.71 71.3698C78.84 71.5698 78.7899 71.8398 78.5899 71.9698C78.3899 72.0998 78.1199 72.0498 77.9899 71.8498L76.4499 69.5098C76.3199 69.3098 76.37 69.0398 76.57 68.9098Z" fill="#F7E5CD"/><path d="M94.82 75.3698C95.02 75.2398 95.2899 75.2897 95.4199 75.4897L96.96 77.8297C97.09 78.0297 97.0399 78.2997 96.8399 78.4297C96.6399 78.5597 96.3699 78.5097 96.2399 78.3097L94.6999 75.9697C94.5699 75.7697 94.62 75.4998 94.82 75.3698Z" fill="#F7E5CD"/><path d="M103.345 72.8009C103.361 73.0434 103.568 73.2276 103.808 73.2123C104.047 73.197 104.229 72.988 104.214 72.7455L104.036 69.9611C104.021 69.7186 103.814 69.5344 103.574 69.5497C103.334 69.565 103.152 69.774 103.168 70.0165L103.345 72.8009Z" fill="#F7E5CD"/><path d="M60.2616 79.9815C60.2771 80.224 60.484 80.4082 60.7237 80.3929C60.9635 80.3776 61.1453 80.1686 61.1298 79.9261L60.9522 77.1418C60.9367 76.8993 60.7298 76.7151 60.4901 76.7304C60.2503 76.7457 60.0685 76.9547 60.084 77.1972L60.2616 79.9815Z" fill="#F7E5CD"/><path d="M85.9709 75.4595C85.9864 75.702 86.1933 75.8862 86.4331 75.871C86.6728 75.8557 86.8546 75.6467 86.8392 75.4042L86.6616 72.6198C86.6461 72.3773 86.4392 72.1931 86.1994 72.2084C85.9597 72.2237 85.7779 72.4327 85.7933 72.6752L85.9709 75.4595Z" fill="#F7E5CD"/><path d="M116.96 82.2867C116.975 82.5292 117.182 82.7134 117.422 82.6981C117.661 82.6828 117.843 82.4738 117.828 82.2313L117.65 79.447C117.635 79.2044 117.428 79.0203 117.188 79.0355C116.948 79.0508 116.767 79.2598 116.782 79.5023L116.96 82.2867Z" fill="#F7E5CD"/><path d="M71.04 78.5899C71.27 78.6699 71.38 78.9299 71.3 79.1499L70.32 81.7699C70.24 81.9999 69.98 82.1099 69.76 82.0299C69.53 81.9499 69.42 81.6899 69.5 81.4699L70.48 78.8499C70.56 78.6199 70.82 78.5099 71.04 78.5899Z" fill="#F7E5CD"/><path d="M91.6799 71.8496C91.5499 71.6496 91.5999 71.3796 91.7999 71.2496L94.1399 69.7096C94.3399 69.5796 94.6099 69.6296 94.7399 69.8296C94.8699 70.0296 94.8199 70.2996 94.6199 70.4296L92.2799 71.9696C92.0799 72.0996 91.8099 72.0496 91.6799 71.8496Z" fill="#F7E5CD"/><path d="M106.13 80.2999C105.9 80.2299 105.77 79.9799 105.85 79.7499L106.71 77.0899C106.78 76.8599 107.03 76.7399 107.26 76.8099C107.49 76.8799 107.62 77.1299 107.54 77.3599L106.68 80.0199C106.61 80.2499 106.36 80.3699 106.13 80.2999Z" fill="#F7E5CD"/><path d="M125.65 77.9097C125.52 77.7097 125.57 77.4397 125.77 77.3097L128.11 75.7697C128.31 75.6397 128.58 75.6897 128.71 75.8897C128.84 76.0897 128.79 76.3597 128.59 76.4897L126.25 78.0297C126.05 78.1597 125.78 78.1097 125.65 77.9097Z" fill="#F7E5CD"/></svg>