<?xml version="1.0" encoding="utf-8"?><!--Generator: Adobe Illustrator 28.0.0, SVG Export Plug-In . SVG Version: 6.00 Build 0)--><svg version="1.1" xmlns="http://www.w3.org/2000/svg" xmlns:xlink="http://www.w3.org/1999/xlink" x="0px" y="0px" viewBox="0 0 160 160" style="enable-background:new 0 0 160 160;" xml:space="preserve"><style type="text/css">.st0{fill:#B0C2E4;}
	.st1{fill:#E5F0FF;}
	.st2{fill:#4B7CFD;}
	.st3{fill:#254471;}
	.st4{fill:#E4EFFF;}
	.st5{fill:#F7C7A1;}
	.st6{fill:#F7E5CD;}
	.st7{fill:#4B7CFE;}
	.st8{fill:#891229;}
	.st9{fill:#232144;}
	.st10{fill:#B9DEE8;}
	.st11{fill:#006931;}
	.st12{fill:none;stroke:#E6E3DA;stroke-width:4.1842;stroke-miterlimit:10;}</style><g id="Design"><g><rect x="50.7" y="40.9" transform="matrix(0.7091 -0.7051 0.7051 0.7091 -16.4859 82.6985)" class="st0" width="82.5" height="40.8"/><rect x="104.7" y="17.9" transform="matrix(0.7091 -0.7051 0.7051 0.7091 6.5048 92.3367)" class="st1" width="20.9" height="40.8"/><rect x="116.3" y="48.8" transform="matrix(0.7091 -0.7051 0.7051 0.7091 -1.1951 101.075)" class="st2" width="11.2" height="6.4"/><g><path class="st3" d="M104.3,26.1c-0.1,0.1-0.1,0.1-0.2,0l-0.5-0.5c-0.1-0.1-0.1-0.1,0-0.2l2.7-2.7c0.1-0.1,0.1-0.1,0.2,0l0.3,0.3
				c1.5,1.5,0.1,4.1,1.1,5.1c0.4,0.4,0.9,0.3,1.3-0.1c0.4-0.3,0.5-0.8,0.6-1.3c0-0.1,0.1-0.2,0.2-0.1l0.5,0.1c0.1,0,0.1,0.1,0.1,0.3
				c-0.1,0.6-0.4,1.3-0.9,1.7c-0.5,0.5-1,0.8-1.5,0.7c-0.4,0-0.8-0.2-1.2-0.6c-1.2-1.2,0-3.9-0.8-4.9L104.3,26.1z"/><path class="st3" d="M104.9,28.7c1.6,1.6,1.9,3.2,0.8,4.2c-1,1-2.4,0.8-4-0.7c-1.6-1.6-1.9-3.2-0.8-4.2
				C102,26.9,103.4,27.1,104.9,28.7z M102.6,31.3c1.1,1.2,2,1.4,2.5,0.9c0.6-0.6,0.2-1.5-0.9-2.7c-1.1-1.2-2-1.5-2.5-0.9
				C101.1,29.2,101.4,30.1,102.6,31.3z"/></g><path class="st4" d="M111.9,52.3c1.3-0.2,2.7-0.2,4.1,0c3.5,0.5,6.6,2.4,8.7,5.3c2.1,2.9,2.9,6.4,2.4,9.9
			c-0.5,3.5-2.4,6.6-5.3,8.7c-5.9,4.3-14.2,3-18.6-2.9l0,0c-4.3-5.9-3-14.2,2.9-18.6C107.9,53.4,109.9,52.6,111.9,52.3z M115.9,77.5
			c1.9-0.3,3.7-1,5.3-2.2c2.6-1.9,4.4-4.8,4.9-8c0.5-3.2-0.3-6.5-2.2-9.1c-1.9-2.6-4.8-4.4-8-4.9c-3.2-0.5-6.5,0.3-9.1,2.2
			c-5.4,4-6.6,11.6-2.7,17.1l0,0C106.9,76.5,111.5,78.2,115.9,77.5z"/><g><path class="st4" d="M111.5,65c-0.1-0.2-0.1-0.3,0.1-0.4l2.6-1.9c-1.2-1-2.5-1.3-3.8-0.3c-0.6,0.5-1.1,1-1.4,1.5
				c-0.1,0.2-0.3,0.3-0.4,0.2l-0.9-0.5c-0.3-0.1-0.3-0.3-0.2-0.5c0.4-0.9,1.2-1.8,2.1-2.5c2.1-1.6,4.5-1.2,6.5,0.7l0.9-0.7
				c0.2-0.1,0.3-0.1,0.4,0.1l0.5,0.7c0.1,0.2,0.1,0.3-0.1,0.4l-0.8,0.6l0.3,0.4c0.1,0.2,0.3,0.4,0.4,0.6l0.7-0.5
				c0.2-0.1,0.3-0.1,0.4,0.1l0.5,0.7c0.1,0.2,0.1,0.3-0.1,0.4l-0.9,0.6c1.1,2.5,0.9,5-1.4,6.6c-1.1,0.8-2.1,1.1-2.9,1.1
				c-0.3,0-0.4-0.1-0.4-0.3l-0.1-1c0-0.2,0.1-0.4,0.3-0.4c0.8-0.1,1.3-0.2,1.9-0.7c1.2-0.9,1.5-2.2,0.8-3.9l-2.7,2
				c-0.2,0.1-0.3,0.1-0.4-0.1l-0.5-0.7c-0.1-0.2-0.1-0.3,0.1-0.4l2.8-2.1c-0.1-0.2-0.2-0.3-0.3-0.5l-0.3-0.5l-2.8,2
				c-0.2,0.1-0.3,0.1-0.4-0.1L111.5,65z"/></g><g><path class="st3" d="M77.4,85.4c-0.1,0.1-0.2,0.1-0.3,0l-0.8-0.8c-0.1-0.1-0.1-0.2,0-0.3l4.4-4.4c0.2-0.2,0.2-0.2,0.4,0l0.5,0.5
				c2.5,2.5,0.2,6.7,1.8,8.3c0.7,0.7,1.5,0.6,2.1-0.1c0.6-0.6,0.9-1.3,1-2.1c0-0.2,0.1-0.2,0.3-0.2l0.9,0.2c0.2,0.1,0.2,0.2,0.2,0.4
				c-0.1,1-0.7,2-1.4,2.8c-0.9,0.8-1.7,1.2-2.5,1.2c-0.7,0-1.4-0.3-2-0.9c-1.9-1.9,0-6.4-1.3-7.9L77.4,85.4z"/><path class="st3" d="M78.5,89.5c2.7,2.7,3.1,5.2,1.3,6.9c-1.6,1.6-3.9,1.4-6.4-1.2c-2.7-2.7-3.1-5.1-1.3-6.9
				C73.7,86.6,75.9,86.9,78.5,89.5z M74.6,93.8c1.9,1.9,3.2,2.4,4.1,1.5c0.9-0.9,0.3-2.5-1.5-4.3c-1.9-1.9-3.2-2.4-4.1-1.5
				C72.1,90.3,72.7,91.9,74.6,93.8z"/></g><rect x="61.1" y="41.2" transform="matrix(0.988 -0.1544 0.1544 0.988 -8.3122 16.2148)" class="st5" width="78.3" height="40.9"/><rect x="120" y="36.5" transform="matrix(0.988 -0.1544 0.1544 0.988 -7.2208 20.8201)" class="st6" width="20.9" height="40.9"/><rect x="122.3" y="68.7" transform="matrix(0.988 -0.1544 0.1544 0.988 -9.5752 20.5997)" class="st7" width="11.2" height="6.4"/><g><path class="st8" d="M131,43.7c-0.6,0.1-1.1,0-1.5-0.3c-0.4-0.3-0.7-0.7-0.7-1.4c-0.2-1.4,0.7-2.4,2.1-2.6c0.7-0.1,1.3,0,1.8,0.2
				c0.1,0,0.1,0.1,0.1,0.2l-0.2,0.6c0,0.1-0.1,0.1-0.2,0.1c-0.4-0.1-0.9-0.2-1.4-0.1c-0.9,0.1-1.2,0.8-1.1,1.4
				c0.1,0.8,0.7,1.1,1.4,1c0.4-0.1,0.8-0.2,1.3-0.4c0.1,0,0.2,0,0.2,0.1l0.5,3.3c0,0.1,0,0.1-0.1,0.2l-3.4,0.5c-0.1,0-0.1,0-0.2-0.1
				l-0.1-0.7c0-0.1,0-0.1,0.1-0.2l2.4-0.4l-0.3-1.6C131.5,43.5,131.3,43.6,131,43.7z"/><path class="st8" d="M127.8,43.2c0.4,2.3-0.3,3.7-1.8,3.9c-1.4,0.2-2.4-0.7-2.8-2.9c-0.4-2.3,0.3-3.7,1.8-3.9
				C126.4,40,127.5,41,127.8,43.2z M124.3,43.9c0.3,1.6,0.8,2.3,1.5,2.2c0.8-0.1,1.1-1.1,0.8-2.7c-0.3-1.6-0.7-2.3-1.5-2.2
				C124.3,41.3,124.1,42.3,124.3,43.9z"/></g></g><g><polygon class="st7" points="16.2,89.9 69.3,34.2 122.5,89.9 		"/><polygon class="st9" points="26,144.2 26,90.2 69.3,43.7 112.7,90.2 112.7,144.2 		"/><rect x="80.8" y="98.8" class="st7" width="23.4" height="45.4"/><rect x="34.4" y="98.7" class="st10" width="36.2" height="32.8"/><path class="st11" d="M122.6,136.2c0,0.1,0,0.2,0,0.3"/></g><g><line class="st12" x1="86.8" y1="69.1" x2="86.8" y2="144.2"/><line class="st12" x1="25.1" y1="69.1" x2="25.1" y2="144.2"/><line class="st12" x1="86.4" y1="76" x2="24.6" y2="76"/><line class="st12" x1="86.4" y1="100.4" x2="24.6" y2="100.4"/><line class="st12" x1="86.4" y1="126.2" x2="24.6" y2="126.2"/><line class="st12" x1="86.3" y1="100.5" x2="25.6" y2="126.6"/><line class="st12" x1="86.7" y1="100.2" x2="25.6" y2="75.9"/><line class="st12" x1="26" y1="100.6" x2="86.7" y2="126"/></g></g><g id="stramien"/></svg>