<svg viewBox="0 0 160 160" fill="none" xmlns="http://www.w3.org/2000/svg"><path fill-rule="evenodd" clip-rule="evenodd" d="M24.6748 112.153C42.4318 142.708 81.5968 153.083 112.153 135.326C142.708 117.568 153.083 78.4026 135.325 47.8476C117.568 17.2926 78.4028 6.91757 47.8478 24.6746C17.2918 42.4326 6.91779 81.5976 24.6748 112.153Z" fill="#FF6200"/><path d="M119.725 29.8135C121.607 33.1249 123.837 38.1367 124.546 44.1642C125.155 49.3416 125.057 53.9034 124.953 58.7316L124.953 58.7472C124.828 64.5142 124.699 70.4762 125.701 78.2412C127.312 90.7263 135.273 103.96 137.678 107.726C138.209 106.619 138.707 105.498 139.173 104.365C136.155 99.3444 130.035 88.1397 128.708 77.8542C127.736 70.3197 127.862 64.4757 127.984 58.8256L127.984 58.8132C128.091 53.8702 128.192 49.2022 127.558 43.8102C127.171 40.5227 126.381 37.5324 125.433 34.9178C123.623 33.0908 121.716 31.3882 119.725 29.8135Z" fill="#9D2136"/><path d="M98.1007 141.392C100.876 140.571 103.622 139.553 106.318 138.333C113.261 130.685 122.569 113.782 116.753 80.7702C113.437 61.9522 105.838 36.6622 88.4641 23.0452C83.7248 19.33 79.281 17.273 75.7838 16.1357C72.8161 16.3294 69.8477 16.7316 66.9006 17.3482C68.418 17.4624 77.8098 18.4648 86.7931 25.5892C103.277 38.6602 110.56 63.0982 113.767 81.2962C116.133 94.7292 117.26 113.883 109.19 128.853C104.695 137.191 98.8612 140.931 98.1007 141.392Z" fill="#9D2136"/><path d="M26 45.594C27.2265 45.1858 30.7756 44.5964 40.5194 45.5579C61.1744 47.5969 75.7684 56.3939 75.9134 56.4819L76.0874 56.5739C76.2924 56.6659 96.6874 65.9869 99.4044 85.3979C101.518 100.494 90.1224 116.332 71.0474 124.811C59.4462 129.967 49.1497 131.087 41.1656 130.68C42.6347 131.804 44.1473 132.859 45.6983 133.844C53.2317 133.643 62.2618 132.033 72.2784 127.581C92.6024 118.549 104.711 101.428 102.407 84.9779C99.5204 64.3519 79.1674 54.6459 77.4114 53.8449C76.0544 53.0279 61.6004 44.5919 40.8174 42.5399C34.9519 41.9611 31.0194 41.8933 28.3594 42.122C27.533 43.2558 26.7464 44.4139 26 45.594Z" fill="#9D2136"/><path d="M17.1814 93.2761C25.8916 95.5572 34.1017 96.7241 43.31 96.7241C56.089 96.7241 70.792 94.4761 91.427 89.8341C126.909 81.8528 139.189 75.7273 143.436 72.4723C143.28 71.3074 143.091 70.144 142.869 68.9834C141.889 70.1639 134.528 77.0304 90.762 86.8761C55.0561 94.9072 37.4623 95.6801 16.628 89.989C16.7833 91.0866 16.9677 92.1826 17.1814 93.2761Z" fill="#9D2136"/></svg>