<svg viewBox="0 0 160 160" fill="none" xmlns="http://www.w3.org/2000/svg"><path fill-rule="evenodd" clip-rule="evenodd" d="M143.999 144V123.925C142.109 123.075 140.03 122.463 137.734 122.169C137.73 122.168 80.0778 105.283 63.8592 105.283C54.2126 105.283 33.7195 110.183 16.9659 114.672V144H143.999Z" fill="#ABB7B8"/><path fill-rule="evenodd" clip-rule="evenodd" d="M20.4905 89.3773L20.2225 81.1503H21.1167L21.206 80.5173L22.0099 80.6073L22.4575 79.8843H23.3517L23.5304 79.0703L30.2691 80.4523L29.5644 83.2633L26.7598 84.7103L25.6532 86.9923L22.8257 87.5123L20.4905 89.3773Z" fill="#FFA28F"/><path fill-rule="evenodd" clip-rule="evenodd" d="M23.7295 79.097L23.5292 80.0714H22.5419L22.0841 80.826L21.3516 80.7187L21.2916 81.3253L20.2234 81.3373L20.2212 81.1334L21.1081 81.1234L21.1712 80.4861L21.981 80.6047L22.4283 79.8674H23.3644L23.5313 79.0557L23.7295 79.097Z" fill="#3867C3"/><path fill-rule="evenodd" clip-rule="evenodd" d="M20.3787 87.8526L21.9875 86.2596L24.6701 85.7166L25.4749 83.7166L28.2568 82.4616L28.7937 79.9866L31.1736 79.8516L31.5428 83.4116L29.8665 85.1066L26.0446 87.6156L23.7987 89.3786L20.8144 90.5646L19.809 89.4456L20.3787 87.8526Z" fill="#4E74B9"/><path fill-rule="evenodd" clip-rule="evenodd" d="M16.9659 67.1191L23.3364 68.2571L23.1906 68.9601L23.662 69.1341L23.4615 69.7521L23.9438 70.2221L23.7979 70.9251L24.3944 71.1991L22.1048 73.3931L20.1805 75.2581L19.5274 72.8151L18.1658 71.3081L18.5687 68.7991L16.9659 67.1191Z" fill="#FFA28F"/><path fill-rule="evenodd" clip-rule="evenodd" d="M23.1929 68.2266L23.3506 68.2581L23.2128 68.9581L23.6927 69.1117L23.4686 69.7292L23.9621 70.2018L23.8085 70.9376L24.4058 71.2022L24.3411 71.3505L23.6243 71.033L23.7863 70.2569L23.2814 69.7734L23.4841 69.2149L23.0271 69.0686L23.1929 68.2266Z" fill="#3867C3"/><path fill-rule="evenodd" clip-rule="evenodd" d="M18.1576 67.2813L19.5738 68.5953L19.0964 71.0063L20.5037 71.9673L21.0119 74.3613L22.8271 75.1883L22.5412 77.0833L19.7435 76.7893L18.7144 75.1933L17.4113 71.7763L16.4238 69.7203L16 67.1793L17.0252 66.5723L18.1576 67.2813Z" fill="#4E74B9"/><path fill-rule="evenodd" clip-rule="evenodd" d="M28.4472 73.1949L29.9666 72.3809L30.0559 73.1949H28.4472Z" fill="#4E74B9"/><path fill-rule="evenodd" clip-rule="evenodd" d="M28.2048 75.8105L30.2333 76.9426L29.3917 77.6445L28.2048 75.8105Z" fill="#4E74B9"/><path fill-rule="evenodd" clip-rule="evenodd" d="M28.2048 87.8799L30.2333 89.0119L29.3917 89.7139L28.2048 87.8799Z" fill="#4E74B9"/><path fill-rule="evenodd" clip-rule="evenodd" d="M23.8354 94.65L24.6542 92.459L25.4611 93.2L23.8354 94.65Z" fill="#4E74B9"/><path fill-rule="evenodd" clip-rule="evenodd" d="M45.2496 66.5718C45.2496 61.9578 41.5488 58.2168 36.9845 58.2168C32.4202 58.2168 28.7194 61.9578 28.7194 66.5718C28.7194 71.1858 32.4202 74.9268 36.9845 74.9268C41.5488 74.9268 45.2496 71.1858 45.2496 66.5718Z" fill="#FFA38F"/><path fill-rule="evenodd" clip-rule="evenodd" d="M83.1886 66.5718C83.1886 61.9578 86.8894 58.2168 91.4537 58.2168C96.019 58.2168 99.7188 61.9578 99.7188 66.5718C99.7188 71.1858 96.019 74.9268 91.4537 74.9268C86.8894 74.9268 83.1886 71.1858 83.1886 66.5718Z" fill="#FFA38F"/><path fill-rule="evenodd" clip-rule="evenodd" d="M84.6376 112.963V80.7332L43.8013 80.6152V112.963C43.8013 121.353 50.5281 128.154 58.827 128.154H69.611C77.9098 128.154 84.6376 121.353 84.6376 112.963Z" fill="#F5836D"/><path fill-rule="evenodd" clip-rule="evenodd" d="M91.5425 77.7593V39.3283C91.5425 26.8743 81.6626 16.7773 69.4744 16.7773H58.9643C46.777 16.7773 36.8962 26.8743 36.8962 39.3283V77.7593C36.8962 90.2133 46.777 100.309 58.9643 100.309H69.4744C81.6626 100.309 91.5425 90.2133 91.5425 77.7593Z" fill="#FFA28F"/><path fill-rule="evenodd" clip-rule="evenodd" d="M36.4626 79.0053H38.6817V33.1973H36.4626V79.0053Z" fill="#8B181D"/><path fill-rule="evenodd" clip-rule="evenodd" d="M92.1468 27.579C92.1468 21.184 87.0188 16 80.6929 16H52.0181V20.162C52.0181 25.089 53.9534 29.816 57.4002 33.3C60.8469 36.784 65.5224 38.742 70.3963 38.742H92.1468V27.579Z" fill="#8B181D"/><path fill-rule="evenodd" clip-rule="evenodd" d="M64.2823 86.7836C61.6354 86.7836 59.2277 85.7716 57.6061 83.9586L58.8645 82.8076C60.2619 84.3686 62.4175 85.1896 64.7805 85.0536C66.811 84.9386 68.6014 84.1226 69.4539 82.9246L70.8325 83.9256C69.6703 85.5596 67.4432 86.6216 64.8768 86.7666C64.6773 86.7776 64.4788 86.7836 64.2823 86.7836Z" fill="#1C1C1C"/><path fill-rule="evenodd" clip-rule="evenodd" d="M60.5473 50.597C60.5473 49.676 60.1851 48.793 59.542 48.142C58.8979 47.491 58.0235 47.125 57.1134 47.125H45.6268C44.7158 47.125 43.8424 47.491 43.1983 48.142C42.5542 48.793 42.1929 49.676 42.1929 50.597V53.663H60.5473V50.597Z" fill="#8A1229"/><path fill-rule="evenodd" clip-rule="evenodd" d="M86.2462 50.6146C86.2462 49.6936 85.885 48.8106 85.2409 48.1596C84.5968 47.5086 83.7224 47.1426 82.8123 47.1426H71.3257C70.4147 47.1426 69.5413 47.5086 68.8972 48.1596C68.2531 48.8106 67.8918 49.6936 67.8918 50.6146V53.6806H86.2462V50.6146Z" fill="#8A1229"/><path fill-rule="evenodd" clip-rule="evenodd" d="M75.4099 79.1615C75.4099 78.2415 75.0487 77.3575 74.4046 76.7065C73.7605 76.0555 72.8861 75.6895 71.9761 75.6895H56.4631C55.552 75.6895 54.6787 76.0555 54.0346 76.7065C53.3905 77.3575 53.0292 78.2415 53.0292 79.1615V82.2285H75.4099V79.1615Z" fill="#8A1229"/><path fill-rule="evenodd" clip-rule="evenodd" d="M64.175 75.0515C62.8988 75.0515 61.8914 74.4135 61.0032 73.8505C59.5413 72.9235 58.66 72.3655 56.8984 74.1455L55.7531 72.9885C58.4278 70.2845 60.3323 71.4915 61.8636 72.4625C62.6358 72.9515 63.3642 73.4135 64.175 73.4135C65.0067 73.4135 65.6955 72.9875 66.4229 72.5365C67.8769 71.6355 69.6861 70.5145 72.6853 73.0295L71.6512 74.2905C69.5442 72.5235 68.6391 73.0835 67.2695 73.9325C66.4229 74.4575 65.4632 75.0515 64.175 75.0515Z" fill="#1C1C1C"/><path fill-rule="evenodd" clip-rule="evenodd" d="M75.4099 99.8411C75.4099 98.9201 75.0487 98.0371 74.4046 97.3861C73.7605 96.7351 72.8861 96.3691 71.9761 96.3691H56.4631C55.552 96.3691 54.6787 96.7351 54.0346 97.3861C53.3905 98.0371 53.0292 98.9201 53.0292 99.8411V102.907H75.4099V99.8411Z" fill="#8A1229"/><path fill-rule="evenodd" clip-rule="evenodd" d="M36.4627 27.579C36.4627 21.184 41.5907 16 47.9166 16H52.2963V29.622C52.2963 34.659 48.257 38.742 43.2739 38.742H36.4627V27.579Z" fill="#8B181D"/><path fill-rule="evenodd" clip-rule="evenodd" d="M71.2488 62.4852C71.5753 64.1132 74.4941 64.8972 77.7692 64.2382C81.0423 63.5792 83.4331 61.7252 83.1066 60.0982C82.7801 58.4702 79.8613 57.6852 76.5872 58.3452C73.3121 59.0042 70.9223 60.8572 71.2488 62.4852Z" fill="white"/><path fill-rule="evenodd" clip-rule="evenodd" d="M57.1899 62.4852C56.8633 64.1132 53.9445 64.8972 50.6705 64.2382C47.3964 63.5792 45.0056 61.7252 45.3321 60.0982C45.6586 58.4702 48.5774 57.6852 51.8515 58.3452C55.1266 59.0042 57.5164 60.8572 57.1899 62.4852Z" fill="white"/><path fill-rule="evenodd" clip-rule="evenodd" d="M52.8716 60.1251C52.8716 61.7851 51.5288 63.1311 49.8724 63.1311C48.217 63.1311 46.8743 61.7851 46.8743 60.1251C46.8743 58.4651 48.217 57.1191 49.8724 57.1191C51.5288 57.1191 52.8716 58.4651 52.8716 60.1251Z" fill="black"/><path fill-rule="evenodd" clip-rule="evenodd" d="M73.008 60.2033C73.008 61.8633 74.3507 63.2093 76.0071 63.2093C77.6626 63.2093 79.0053 61.8633 79.0053 60.2033C79.0053 58.5433 77.6626 57.1973 76.0071 57.1973C74.3507 57.1973 73.008 58.5433 73.008 60.2033Z" fill="black"/><path fill-rule="evenodd" clip-rule="evenodd" d="M44.263 54.835C43.1365 54.835 42.2235 55.758 42.2235 56.897C42.2235 58.036 43.1365 58.96 44.263 58.96H84.1763C85.3028 58.96 86.2158 58.036 86.2158 56.897C86.2158 55.758 85.3028 54.835 84.1763 54.835H44.263Z" fill="#FFA28F"/><path fill-rule="evenodd" clip-rule="evenodd" d="M43.4992 63.5C42.3728 63.5 41.4597 64.423 41.4597 65.562C41.4597 66.701 42.3728 67.625 43.4992 67.625H84.94C86.0664 67.625 86.9795 66.701 86.9795 65.562C86.9795 64.423 86.0664 63.5 84.94 63.5H43.4992Z" fill="#FFA28F"/><path fill-rule="evenodd" clip-rule="evenodd" d="M91.6661 78.4523V56.6533H90.0087L83.4009 78.4523H91.6661Z" fill="#8A1229"/><path fill-rule="evenodd" clip-rule="evenodd" d="M36.9272 79.006V57.207H38.5846L45.1923 79.006H36.9272Z" fill="#8A1229"/><path fill-rule="evenodd" clip-rule="evenodd" d="M89.9278 78.4485H92.1469V34.0205H89.9278V78.4485Z" fill="#8A1229"/><path fill-rule="evenodd" clip-rule="evenodd" d="M130.712 85.8479L116.12 85.9399L111.359 75.5659L111.593 57.4209H130.712V85.8479Z" fill="#FFA28F"/><path fill-rule="evenodd" clip-rule="evenodd" d="M122.918 74.4585L117.541 78.6115L104.78 61.7145L110.158 57.5615L122.918 74.4585Z" fill="#FFA28F"/><path fill-rule="evenodd" clip-rule="evenodd" d="M130.239 43.6514C128.371 43.6514 126.856 45.1774 126.856 47.0604V60.1324H133.623V47.0604C133.623 45.1774 132.108 43.6514 130.239 43.6514Z" fill="#FFA28F"/><path fill-rule="evenodd" clip-rule="evenodd" d="M122.602 37.8369C120.734 37.8369 119.219 39.3629 119.219 41.2459V58.5609H125.986V41.2459C125.986 39.3629 124.471 37.8369 122.602 37.8369Z" fill="#FFA28F"/><path fill-rule="evenodd" clip-rule="evenodd" d="M114.965 33.9717C113.097 33.9717 111.582 35.4977 111.582 37.3807V59.0397H118.349V37.3807C118.349 35.4977 116.834 33.9717 114.965 33.9717Z" fill="#FFA28F"/><path fill-rule="evenodd" clip-rule="evenodd" d="M130.239 55.2236C132.108 55.2236 133.623 56.7496 133.623 58.6326V79.9866H126.856V58.6326C126.856 56.7496 128.371 55.2236 130.239 55.2236Z" fill="#FFA28F"/><path fill-rule="evenodd" clip-rule="evenodd" d="M95.5817 70.2082L108.9 70.2282L108.912 62.5112L95.5926 62.4922L95.5817 70.2082Z" fill="#4E74B9"/><path fill-rule="evenodd" clip-rule="evenodd" d="M98.2382 65.8135L108.765 65.8295L108.763 67.1615L98.2362 67.1455L98.2382 65.8135Z" fill="black"/><path fill-rule="evenodd" clip-rule="evenodd" d="M108.573 70.2609L143.954 70.4479L143.999 62.7319L108.617 62.5459L108.573 70.2609Z" fill="#4E74B9"/><path fill-rule="evenodd" clip-rule="evenodd" d="M108.606 65.8613L141.005 65.9413L141.002 67.2733L108.602 67.1933L108.606 65.8613Z" fill="black"/><path fill-rule="evenodd" clip-rule="evenodd" d="M117.597 94.6228L111.823 78.1668L133.622 75.5098L133.612 93.0578L117.597 94.6228Z" fill="#FFA28F"/><path fill-rule="evenodd" clip-rule="evenodd" d="M110.911 67.6768L123.056 83.9598L117.591 87.9958L105.51 71.7968C104.373 70.2718 104.691 68.1008 106.216 66.9738C107.708 65.8718 109.799 66.1848 110.911 67.6768Z" fill="#FFA28F"/><path fill-rule="evenodd" clip-rule="evenodd" d="M108.059 66.9654C106.19 66.9654 104.676 65.4394 104.676 63.5564V62.6564C104.676 62.1694 105.068 61.7754 105.55 61.7754H110.568C111.05 61.7754 111.442 62.1694 111.442 62.6564V63.5564C111.442 65.4394 109.928 66.9654 108.059 66.9654Z" fill="#FFA28F"/><path fill-rule="evenodd" clip-rule="evenodd" d="M108.059 56.7988C109.928 56.7988 111.442 58.3248 111.442 60.2078V62.7238C111.442 63.0438 111.185 63.3028 110.868 63.3028H105.25C104.933 63.3028 104.676 63.0438 104.676 62.7238V60.2078C104.676 58.3248 106.19 56.7988 108.059 56.7988Z" fill="#FFA28F"/><path fill-rule="evenodd" clip-rule="evenodd" d="M115.12 144L113.445 81.5723L133.462 89.5923L144 144H115.12Z" fill="#FFA28F"/><path fill-rule="evenodd" clip-rule="evenodd" d="M92.147 64.6862V67.8982L95.5908 70.2092L95.6017 62.4932L92.147 64.6862Z" fill="#DADCDA"/></svg>