<svg viewBox="0 0 160 160" fill="none" xmlns="http://www.w3.org/2000/svg"><path fill-rule="evenodd" clip-rule="evenodd" d="M92.6752 104.431V104.407C91.9736 103.896 91.5154 103.069 91.5154 102.133C91.5154 101.197 91.9736 100.371 92.6752 99.8589V99.8349C99.3777 94.5389 113.174 81.8359 113.174 67.0049H65.0281C65.0281 81.7339 78.6336 94.3629 85.3859 99.7239C86.2024 100.216 86.7494 101.109 86.7494 102.133C86.7494 103.157 86.2014 104.051 85.3859 104.543C78.6336 109.904 65.0281 122.532 65.0281 137.261H113.174C113.174 122.43 99.3777 109.727 92.6752 104.431Z" fill="#E6E3DA"/><path fill-rule="evenodd" clip-rule="evenodd" d="M71.3838 79.98C72.7692 84.074 82.6667 97.685 88.8511 97.685C94.3438 97.685 108.106 81.684 107.5 78.879C106.369 73.636 95.0215 82.811 89.5079 82.811C84.8696 82.811 78.0124 78.253 73.6656 77.967C72.6385 77.9 70.775 78.181 71.3838 79.98Z" fill="#FAA332"/><path fill-rule="evenodd" clip-rule="evenodd" d="M63.0598 144H115.143V137.261H63.0598V144Z" fill="#232144"/><path fill-rule="evenodd" clip-rule="evenodd" d="M85.6765 131.355L74.5005 137.261H105.478L94.3014 131.355C91.6034 129.929 88.3755 129.929 85.6765 131.355Z" fill="#FAA332"/><path fill-rule="evenodd" clip-rule="evenodd" d="M88.4761 104.164H89.8375V99.9014H88.4761V104.164Z" fill="#FAA332"/><path fill-rule="evenodd" clip-rule="evenodd" d="M88.4761 111.589H89.8375V108.861H88.4761V111.589Z" fill="#FAA332"/><path fill-rule="evenodd" clip-rule="evenodd" d="M89.1569 125.232H90.5183V124.209H89.1569V125.232Z" fill="#FAA332"/><path fill-rule="evenodd" clip-rule="evenodd" d="M58.1305 25.071L105.153 25.2541C107.661 25.26 109.695 23.224 109.692 20.713C109.689 18.214 107.67 16.006 105.175 16H58.1196C54.9196 15.992 54.4265 17.997 54.4305 20.387L54.4275 20.803C54.4315 23.194 57.0286 25.138 60.2206 25.145L58.1305 25.071Z" fill="#773527"/><path fill-rule="evenodd" clip-rule="evenodd" d="M65.4581 27.0183L112.481 27.2013C114.988 27.2073 117.022 25.1713 117.019 22.6603C117.016 20.1613 114.997 18.1353 112.503 18.1293L65.4471 17.9473C62.2471 17.9393 61.754 19.9443 61.758 22.3343L61.755 22.7503C61.759 25.1413 64.3561 27.0853 67.5481 27.0923L65.4581 27.0183Z" fill="#773527"/><path fill-rule="evenodd" clip-rule="evenodd" d="M72.4387 30.7908L119.462 30.9738C121.969 30.9798 124.003 28.9438 124 26.4328C123.997 23.9338 121.978 21.9078 119.483 21.9018L72.4277 21.7198C69.2277 21.7118 68.7346 23.7168 68.7386 26.1068L68.7356 26.5228C68.7396 28.9138 71.3367 30.8578 74.5287 30.8648L72.4387 30.7908Z" fill="#773527"/><path fill-rule="evenodd" clip-rule="evenodd" d="M86.6613 35.3025L90.2615 53.1465C90.7196 55.6085 93.0832 57.2325 95.5416 56.7745C97.999 56.3155 99.621 53.9485 99.1628 51.4865L95.5626 30.3975L86.6613 35.3025Z" fill="#773527"/><path fill-rule="evenodd" clip-rule="evenodd" d="M88.7566 56.7845H90.118V52.5215H88.7566V56.7845Z" fill="#FAA332"/><path fill-rule="evenodd" clip-rule="evenodd" d="M88.7566 64.2094H90.118V61.4814H88.7566V64.2094Z" fill="#FAA332"/><path fill-rule="evenodd" clip-rule="evenodd" d="M71.1984 31.975C74.1489 32.915 85.3339 36.308 87.5647 36.984C87.8063 37.057 88.0678 37 88.2584 36.833L94.7263 31.134C95.1216 30.786 95.0317 30.146 94.5556 29.921L65.2675 16.071C65.1697 16.024 65.0629 16 64.9551 16H25V42.45H45.6004C45.6962 42.47 45.79 42.489 45.8858 42.509L63.1595 49.869L82.4004 58.798H82.4034C83.157 59.117 84.0124 59.244 84.9077 59.116C86.909 58.83 88.5399 57.204 88.8343 55.2C89.1378 53.133 88.0897 51.275 86.4438 50.379C86.4438 50.379 71.5418 42.422 66.4283 39.715C61.253 36.975 64.5768 29.865 71.1984 31.975Z" fill="#773527"/></svg>