<?xml version="1.0" encoding="UTF-8"?><svg id="Design" xmlns="http://www.w3.org/2000/svg" viewBox="0 0 160 160"><defs><style>.cls-1{fill:#abb8b9;}.cls-1,.cls-2,.cls-3,.cls-4,.cls-5,.cls-6,.cls-7,.cls-8{stroke-width:0px;}.cls-2{fill:#fbb03b;}.cls-3{fill:#3867c3;}.cls-4{fill:#e73245;}.cls-5{fill:#e67e2e;}.cls-6{fill:#fff;}.cls-7{fill:#f7931e;}.cls-8{fill:#891229;}</style></defs><circle class="cls-6" cx="80.31" cy="67.31" r="38.9"/><path class="cls-3" d="M37.23,67.31c0-23.75,19.33-43.08,43.08-43.08,23.75,0,43.08,19.33,43.08,43.08s-19.33,43.08-43.08,43.08-43.08-19.33-43.08-43.08ZM45.59,67.31c0,19.15,15.58,34.72,34.72,34.72,19.14,0,34.72-15.58,34.72-34.72,0-19.14-15.58-34.72-34.72-34.72s-34.72,15.58-34.72,34.72Z"/><path class="cls-3" d="M55.2,67.31c0-13.85,11.26-25.11,25.11-25.11,13.85,0,25.11,11.26,25.11,25.11s-11.26,25.11-25.11,25.11c-13.85,0-25.11-11.26-25.11-25.11ZM63.91,67.31c0,9.04,7.35,16.39,16.39,16.39,9.04,0,16.4-7.35,16.4-16.39,0-9.04-7.35-16.39-16.4-16.39s-16.39,7.35-16.39,16.39Z"/><circle class="cls-3" cx="80.31" cy="67.31" r="6.57"/><rect class="cls-1" x="49.92" y="3.18" width="2.87" height="79.29" transform="translate(117.24 31.44) rotate(130.38)"/><path class="cls-4" d="M44.98,39.28l-20.55-17.48h0c-3.17,3.73-1.64,9.47,2.96,11.13l17.59,6.35Z"/><path class="cls-8" d="M46.84,37.1l-20.55-17.48h0c3.17-3.73,9.08-3.14,11.46,1.13l9.09,16.34Z"/><path class="cls-7" d="M16,130.48v9.22c0,2.38,12.04,4.3,26.9,4.3s26.9-1.93,26.9-4.3v-9.22H16Z"/><path class="cls-5" d="M69.81,130.44c-.26-1.54-5.59-2.88-13.42-3.6v16.55c8.03-.74,13.44-2.13,13.44-3.72v-9.22h-.02Z"/><ellipse class="cls-2" cx="42.9" cy="130.48" rx="26.9" ry="4.3"/><path class="cls-7" d="M43.09,133.97c-9.23,0-22.96-.9-22.96-3.39s13.73-3.39,22.96-3.39,22.96.9,22.96,3.39-13.73,3.39-22.96,3.39ZM43.09,127.83c-6.02,0-11.68.32-15.93.9-6.25.85-6.32,1.81-6.32,1.85s.07,1,6.32,1.85c4.25.58,9.91.9,15.93.9s11.68-.32,15.93-.9c6.25-.85,6.32-1.81,6.32-1.85s-.07-1-6.32-1.85c-4.25-.58-9.91-.9-15.93-.9Z"/><path class="cls-7" d="M22.87,118.34v9.22c0,2.38,12.04,4.3,26.9,4.3s26.9-1.93,26.9-4.3v-9.22H22.87Z"/><path class="cls-5" d="M76.66,118.34c-.26-1.54-5.59-2.88-13.42-3.6v16.55c8.03-.74,13.44-2.13,13.44-3.72v-9.22h-.02Z"/><ellipse class="cls-2" cx="49.78" cy="118.34" rx="26.9" ry="4.3"/><path class="cls-7" d="M49.96,121.83c-9.23,0-22.96-.9-22.96-3.39s13.73-3.39,22.96-3.39,22.96.9,22.96,3.39-13.73,3.39-22.96,3.39ZM49.96,115.69c-6.02,0-11.68.32-15.93.9-6.25.85-6.32,1.81-6.32,1.85s.07,1,6.32,1.85c4.25.58,9.91.9,15.93.9s11.68-.32,15.93-.9c6.25-.85,6.32-1.81,6.32-1.85s-.07-1-6.32-1.85c-4.25-.58-9.91-.9-15.93-.9Z"/><path class="cls-7" d="M16,108.39v9.22c0,2.38,12.04,4.3,26.9,4.3s26.9-1.93,26.9-4.3v-9.22H16Z"/><path class="cls-5" d="M69.81,108.35c-.26-1.54-5.59-2.88-13.42-3.6v16.55c8.03-.74,13.44-2.13,13.44-3.72v-9.22h-.02Z"/><ellipse class="cls-2" cx="42.9" cy="108.39" rx="26.9" ry="4.3"/><path class="cls-7" d="M43.09,111.88c-9.23,0-22.96-.9-22.96-3.39s13.73-3.39,22.96-3.39,22.96.9,22.96,3.39-13.73,3.39-22.96,3.39ZM43.09,105.74c-6.02,0-11.68.32-15.93.9-6.25.85-6.32,1.81-6.32,1.85s.07,1,6.32,1.85c4.25.58,9.91.9,15.93.9s11.68-.32,15.93-.9c6.25-.85,6.32-1.81,6.32-1.85s-.07-1-6.32-1.85c-4.25-.58-9.91-.9-15.93-.9Z"/><path class="cls-7" d="M22.87,96.64v9.22c0,2.38,12.04,4.3,26.9,4.3s26.9-1.93,26.9-4.3v-9.22H22.87Z"/><path class="cls-5" d="M76.66,96.64c-.26-1.54-5.59-2.88-13.42-3.6v16.55c8.03-.74,13.44-2.13,13.44-3.72v-9.22h-.02Z"/><ellipse class="cls-2" cx="49.78" cy="96.64" rx="26.9" ry="4.3"/><path class="cls-7" d="M49.96,100.13c-9.23,0-22.96-.9-22.96-3.39s13.73-3.39,22.96-3.39,22.96.9,22.96,3.39-13.73,3.39-22.96,3.39ZM49.96,93.99c-6.02,0-11.68.32-15.93.9-6.25.85-6.32,1.81-6.32,1.85s.07,1,6.32,1.85c4.25.58,9.91.9,15.93.9s11.68-.32,15.93-.9c6.25-.85,6.32-1.81,6.32-1.85s-.07-1-6.32-1.85c-4.25-.58-9.91-.9-15.93-.9Z"/><path class="cls-8" d="M134.15,113.88c-.84,0-1.67-.21-2.48-.62l-.24-.12.53-1.04.24.12c1.61.82,3.33.59,4.72-.62.01,0,.02-.02.03-.03-.25-.03-.51-.07-.76-.13-1.93-.28-2.72-1.74-2.64-3.06.09-1.45,1.23-2.95,3.24-2.99,1.47.07,2.47.73,2.86,1.84.28.82.2,1.85-.24,2.87,1.12-.47,2.03-1.41,2.65-2.75,1.3-2.8,1.03-7.09-1.67-9.14l-.21-.16.71-.93.21.16c3.16,2.4,3.51,7.35,2.02,10.56-.96,2.08-2.58,3.38-4.55,3.69-.26.34-.56.66-.88.94-1.05.91-2.27,1.39-3.54,1.39ZM136.78,106.56c-1.28.04-2.01.98-2.07,1.9-.05.76.37,1.65,1.69,1.84.53.12,1.04.17,1.51.14.63-.99.88-2.09.63-2.82-.28-.81-1.11-1.02-1.76-1.06Z"/><path class="cls-8" d="M68.8,89.35l16.84-13.13c1.89-1.47,4.62.07,4.33,2.45l-1.61,13.09-19.55-2.4Z"/><polygon class="cls-8" points="113.37 144 113.37 129.04 125.23 127.16 118.28 144 113.37 144"/><polygon class="cls-8" points="84.13 144 84.13 129.04 94.12 129.04 89.04 144 84.13 144"/><path class="cls-4" d="M113.44,90.2l-15.94-1.96.86-6.97c.29-2.38-2.44-3.93-4.34-2.45l-9.97,7.77-1.4-.17c-9.08-1.12-17.54,3.49-21.76,10.99l-5.8-1.26-1.24,5.66c-.91,4.19,1.07,8.33,4.61,10.34,1.7,9.04,9.03,16.36,18.62,17.64v14.23h4.91l4.43-13.07,19.89,2.45v10.63h4.91l3.6-10.62c9.1-1.72,16.46-9.13,17.65-18.81h0c1.48-11.98-7.05-22.89-19.04-24.37Z"/><circle class="cls-8" cx="71.81" cy="98.28" r="1.7"/><path class="cls-8" d="M68.8,89.35l16.84-13.13c1.89-1.47,4.62.07,4.33,2.45l-1.61,13.09-19.55-2.4Z"/><polygon class="cls-8" points="113.37 144 113.37 129.04 125.23 127.16 118.28 144 113.37 144"/><polygon class="cls-8" points="84.13 144 84.13 129.04 94.12 129.04 89.04 144 84.13 144"/><path class="cls-4" d="M113.44,90.2l-15.94-1.96.86-6.97c.29-2.38-2.44-3.93-4.34-2.45l-9.97,7.77-1.4-.17c-9.08-1.12-17.54,3.49-21.76,10.99l-5.8-1.26-1.24,5.66c-.91,4.19,1.07,8.33,4.61,10.34,1.7,9.04,9.03,16.36,18.62,17.64v14.23h4.91l4.43-13.07,19.89,2.45v10.63h4.91l3.6-10.62c9.1-1.72,16.46-9.13,17.65-18.81h0c1.48-11.98-7.05-22.89-19.04-24.37Z"/><circle class="cls-8" cx="71.81" cy="98.28" r="1.7"/><path class="cls-8" d="M72.66,113.45c-2.24.82-4.59.71-6.52-.31l.72-1.35c1.66.88,3.74.9,5.7.06,1.69-.72,2.95-1.96,3.31-3.23l1.47.41c-.49,1.73-2.05,3.31-4.18,4.22-.17.07-.33.14-.5.2"/><rect class="cls-8" x="98.17" y="93.45" width="21.65" height="2.08" transform="translate(13.2 -13.36) rotate(7.46)"/><path class="cls-7" d="M115.63,96.41c1.71-1.63,2.79-3.92,2.79-6.46,0-4.93-4-8.92-8.93-8.92s-8.93,3.99-8.93,8.92c0,1.71.49,3.31,1.33,4.66l13.75,1.8Z"/><path class="cls-2" d="M113.54,96.14c2.02-1.32,3.36-3.6,3.36-6.19,0-4.09-3.32-7.4-7.41-7.4s-7.41,3.31-7.41,7.4c0,1.9.72,3.63,1.9,4.94l9.55,1.25Z"/></svg>