<svg viewBox="0 0 160 160" fill="none" xmlns="http://www.w3.org/2000/svg"><path fill-rule="evenodd" clip-rule="evenodd" d="M117.494 70.479C116.658 70.479 115.831 70.5202 115.015 70.5956V49.2347C115.015 46.7864 114.513 44.4548 113.609 42.3393V33.5758L112.513 32.9655L113.609 31.6574V24.6936L105.568 33.6763C103.187 32.4446 100.486 31.7489 97.6238 31.7489C94.7288 31.7489 92.0008 32.4607 89.5998 33.7186L81.7518 24.6343V42.0789C80.7758 44.2638 80.2328 46.6849 80.2328 49.2347V123.78H115.015V123.663C115.831 123.74 116.658 123.78 117.494 123.78C132.133 123.78 144 111.848 144 97.1295C144 82.4107 132.133 70.479 117.494 70.479Z" fill="#232144"/><path fill-rule="evenodd" clip-rule="evenodd" d="M95.0009 47.6362C95.0009 47.6362 92.2159 48.3752 89.8439 47.1707C87.4709 45.9651 86.4099 43.2725 86.4099 43.2725C86.4099 43.2725 89.1949 42.5335 91.5679 43.739C93.9399 44.9436 95.0009 47.6362 95.0009 47.6362Z" fill="white"/><path fill-rule="evenodd" clip-rule="evenodd" d="M92.583 45.4201C92.583 46.4838 91.725 47.3455 90.668 47.3455C89.61 47.3455 88.752 46.4838 88.752 45.4201C88.752 44.3563 89.61 43.4946 90.668 43.4946C91.725 43.4946 92.583 44.3563 92.583 45.4201Z" fill="#BAC09A"/><path fill-rule="evenodd" clip-rule="evenodd" d="M90.6918 43.5034C90.6918 43.5034 91.4488 44.3611 91.4488 45.4198C91.4488 46.4786 90.6918 47.3372 90.6918 47.3372C90.6918 47.3372 89.9348 46.4786 89.9348 45.4198C89.9348 44.3611 90.6918 43.5034 90.6918 43.5034Z" fill="#232144"/><path fill-rule="evenodd" clip-rule="evenodd" d="M100.175 47.6362C100.175 47.6362 102.96 48.3752 105.332 47.1707C107.705 45.9651 108.766 43.2725 108.766 43.2725C108.766 43.2725 105.981 42.5335 103.608 43.739C101.236 44.9436 100.175 47.6362 100.175 47.6362Z" fill="white"/><path fill-rule="evenodd" clip-rule="evenodd" d="M102.571 45.447C102.571 46.5078 103.426 47.3684 104.482 47.3684C105.537 47.3684 106.392 46.5078 106.392 45.447C106.392 44.3863 105.537 43.5266 104.482 43.5266C103.426 43.5266 102.571 44.3863 102.571 45.447Z" fill="#BAC09A"/><path fill-rule="evenodd" clip-rule="evenodd" d="M104.478 43.5244C104.478 43.5244 103.718 44.3851 103.718 45.4468C103.718 46.5086 104.478 47.3693 104.478 47.3693C104.478 47.3693 105.238 46.5086 105.238 45.4468C105.238 44.3851 104.478 43.5244 104.478 43.5244Z" fill="#232144"/><path fill-rule="evenodd" clip-rule="evenodd" d="M133.408 124.634H18.5634C17.1474 124.634 16.0004 123.48 16.0004 122.056C16.0004 120.634 17.1474 119.479 18.5634 119.479H133.408C134.824 119.479 135.972 120.634 135.972 122.056C135.972 123.48 134.824 124.634 133.408 124.634Z" fill="#463EC5"/><path fill-rule="evenodd" clip-rule="evenodd" d="M124.479 120.51H27.408V58.3499C27.408 56.1429 29.187 54.3542 31.381 54.3542H120.506C122.7 54.3542 124.479 56.1429 124.479 58.3499V120.51Z" fill="#463EC5"/><path fill-rule="evenodd" clip-rule="evenodd" d="M29.8 119.479H122.086V58.5908H29.8V119.479Z" fill="#F7E5CD"/><path fill-rule="evenodd" clip-rule="evenodd" d="M48.5958 92.4541H57.3248V84.8609C57.3248 84.4125 57.5688 84.33 57.9748 84.33H59.9238C60.3298 84.33 60.5728 84.4125 60.5728 84.8609V92.4541H63.7398C64.1868 92.4541 64.2678 92.6994 64.2678 93.1076V94.5766C64.2678 94.9848 64.1868 95.2301 63.7398 95.2301H60.5728V102.497C60.5728 102.945 60.3298 103.027 59.9238 103.027H57.9748C57.5688 103.027 57.3248 102.945 57.3248 102.497V95.2301H45.4288C44.9818 95.2301 44.9008 94.9848 44.9008 94.5766V94.0055C44.9008 92.985 45.0638 92.4541 45.4698 91.5562L53.1428 74.1659C53.3058 73.7989 53.4678 73.635 53.8738 73.635H56.2288C56.6348 73.635 56.7968 73.8391 56.6348 74.2071L48.5958 92.4541Z" fill="#E73245"/><path fill-rule="evenodd" clip-rule="evenodd" d="M84.1617 87.8009C84.1617 80.085 81.9277 75.9214 77.8687 75.9214C73.8077 75.9214 71.2507 80.2489 71.2507 88.6987C71.2507 96.4136 73.3617 100.741 77.5027 100.741C81.6847 100.741 84.1617 96.1692 84.1617 87.8009ZM68.0427 88.9843C68.0427 78.7377 71.7777 73.2268 78.0307 73.2268C83.7147 73.2268 87.3277 77.6357 87.3277 87.638C87.3277 97.7207 83.7147 103.436 77.3407 103.436C71.6157 103.436 68.0427 98.7814 68.0427 88.9843Z" fill="#E73245"/><path fill-rule="evenodd" clip-rule="evenodd" d="M94.3108 92.4541H103.04V84.8609C103.04 84.4125 103.284 84.33 103.69 84.33H105.638C106.045 84.33 106.288 84.4125 106.288 84.8609V92.4541H109.455C109.902 92.4541 109.983 92.6994 109.983 93.1076V94.5766C109.983 94.9848 109.902 95.2301 109.455 95.2301H106.288V102.497C106.288 102.945 106.045 103.027 105.638 103.027H103.69C103.284 103.027 103.04 102.945 103.04 102.497V95.2301H91.1438C90.6978 95.2301 90.6158 94.9848 90.6158 94.5766V94.0055C90.6158 92.985 90.7788 92.4541 91.1838 91.5562L98.8578 74.1659C99.0198 73.7989 99.1828 73.635 99.5888 73.635H101.944C102.35 73.635 102.513 73.8391 102.35 74.2071L94.3108 92.4541Z" fill="#E73245"/><path fill-rule="evenodd" clip-rule="evenodd" d="M77.9633 69.5696C76.0113 69.5696 74.4283 67.978 74.4283 66.0154V54.0263C74.4283 52.863 75.3653 51.9209 76.5223 51.9209H79.4044C80.5614 51.9209 81.4983 52.863 81.4983 54.0263V66.0154C81.4983 67.978 79.9153 69.5696 77.9633 69.5696Z" fill="#232144"/><path fill-rule="evenodd" clip-rule="evenodd" d="M94.9639 119.479C84.4469 119.479 75.8689 110.96 75.8217 100.376C75.7839 91.5558 81.6819 84.0762 89.7339 81.7737C90.3919 81.5857 91.7849 81.4288 93.2159 81.3082C95.5539 81.1121 97.5609 82.9652 97.5709 85.324C97.5799 87.3872 96.0429 89.1286 94.0039 89.3609C92.5119 89.5318 90.9829 89.7651 90.3559 90.0516C86.4689 91.8272 83.7669 95.7767 83.7869 100.34C83.8139 106.521 88.8239 111.531 94.9649 111.531C94.9809 111.531 94.9969 111.531 95.0139 111.53L131.151 111.371L131.186 119.479L95.0489 119.539C95.0209 119.539 94.9919 119.479 94.9639 119.479Z" fill="#232144"/></svg>