<?xml version="1.0" encoding="UTF-8"?><svg id="Design" xmlns="http://www.w3.org/2000/svg" viewBox="0 0 160 160"><defs><style>.cls-1{fill:#7a2f37;}.cls-1,.cls-2,.cls-3,.cls-4,.cls-5,.cls-6,.cls-7,.cls-8,.cls-9{stroke-width:0px;}.cls-2{fill:#000;}.cls-3{fill:#8da8dc;}.cls-4{fill:#9e3f39;}.cls-5{fill:#d0def2;}.cls-6{fill:#232144;}.cls-7{fill:#420f0f;}.cls-8{fill:#c6c6c6;}.cls-9{fill:#faa332;}</style></defs><polygon class="cls-5" points="42.21 144 40.91 95.63 117.75 95.63 116.25 144 42.21 144"/><path class="cls-5" d="M23.74,115.46c-.77-10.16,6.89-19.01,17.12-19.78,10.22-.77,19.14,6.85,19.91,17,.77,10.16-11.71,25.81-11.71,25.81,0,0-24.54-12.88-25.31-23.04"/><path class="cls-5" d="M136.26,115.46c.77-10.16-6.89-19.01-17.12-19.78-10.22-.77-19.14,6.85-19.91,17-.77,10.16,11.71,25.81,11.71,25.81,0,0,24.54-12.88,25.31-23.04"/><polygon class="cls-5" points="24.66 107.88 16 144 45.34 144 39.14 107.79 24.66 107.88"/><polyline class="cls-5" points="144 144 114.66 144 120.86 108.11 135.86 110.05 144 144"/><path class="cls-1" d="M65.63,94.11v-18.8l28.93.04v18.76c0,8-6.48,14.49-14.46,14.49s-14.46-6.49-14.46-14.49"/><polygon class="cls-6" points="87.91 110.64 80.05 120.41 74.6 113.63 80.06 107.77 87.91 110.64"/><polygon class="cls-3" points="94.56 92.96 80.06 107.78 90.21 118.69 99.08 95.61 94.56 92.96"/><polygon class="cls-6" points="102.48 95.65 106.23 102.1 122.88 102.15 122.88 95.65 102.48 95.65"/><polygon class="cls-3" points="65.63 92.95 80.05 107.77 69.9 118.69 61.03 95.61 65.63 92.95"/><polygon class="cls-6" points="57.68 95.63 53.93 102.09 37.28 102.13 37.28 95.65 57.68 95.63"/><polygon class="cls-6" points="88.29 144 80.08 107.94 71.83 144 88.29 144"/><path class="cls-8" d="M110.82,48.58c0,8.99-7.5,16.27-16.75,16.27s-16.75-7.28-16.75-16.27,7.5-16.27,16.75-16.27,16.75,7.28,16.75,16.27"/><path class="cls-8" d="M105,32.27c0,8.99-7.5,16.27-16.75,16.27s-16.75-7.28-16.75-16.27,7.5-16.27,16.75-16.27,16.75,7.28,16.75,16.27"/><path class="cls-8" d="M81.33,51.54c0,8.99-7.5,16.27-16.75,16.27s-16.75-7.28-16.75-16.27,7.5-16.27,16.75-16.27,16.75,7.28,16.75,16.27"/><path class="cls-8" d="M75.32,32.27c0,4.91-4.1,8.89-9.15,8.89s-9.15-3.98-9.15-8.89,4.1-8.89,9.15-8.89,9.15,3.98,9.15,8.89"/><path class="cls-4" d="M61.47,73.46v-26.25c0-8.3,6.71-15.03,14.99-15.03h7.22c8.28,0,14.99,6.73,14.99,15.03v26.25c0,8.3-6.71,15.03-14.99,15.03h-7.22c-8.28,0-14.99-6.73-14.99-15.03"/><path class="cls-4" d="M105.69,65.24c0,3.14-2.62,5.68-5.84,5.68s-5.84-2.54-5.84-5.68,2.62-5.68,5.84-5.68,5.84,2.54,5.84,5.68"/><ellipse class="cls-3" cx="100.89" cy="70.71" rx="2.99" ry="2.9"/><path class="cls-4" d="M66.05,65.22c0,3.14-2.62,5.68-5.84,5.68s-5.84-2.54-5.84-5.68,2.62-5.68,5.84-5.68,5.84,2.54,5.84,5.68"/><ellipse class="cls-3" cx="58.99" cy="70.71" rx="2.99" ry="2.9"/><path class="cls-8" d="M61.53,65.9v-9.87c0-8.17,6.61-14.66,14.92-14.66h7.24c8.31,0,14.98,6.62,14.98,14.79v9.87h2.95l.06-19.11c0-8.85-7.39-16.03-16.5-16.03h-10.24c-9.11,0-16.5,7.18-16.5,16.03l.13,18.98h2.95Z"/><path class="cls-2" d="M90.03,50.19l.22.08c2.29.84,4.02,2.74,4.67,5.12l-11.89-4.36c2.11-1.37,4.7-1.68,6.99-.83"/><path class="cls-2" d="M70.4,49.89l-.23.05c-2.39.51-4.39,2.13-5.4,4.4l12.42-2.62c-1.88-1.65-4.4-2.33-6.79-1.82"/><rect class="cls-4" x="68.61" y="37.9" width="3.28" height="9.23" transform="translate(-11.82 39.78) rotate(-29.27)"/><path class="cls-6" d="M96.05,56.22l.02,6.85c0,2.8-2.25,5.07-5.05,5.08h-4.56c-2.79.01-5.06-2.25-5.07-5.05v-1.78c-.01-2.8,2.25-5.07,5.04-5.08l9.62-.02Z"/><polygon class="cls-6" points="101.69 58.17 88.48 58.21 88.48 56.22 101.69 56.22 101.69 58.17"/><path class="cls-6" d="M70.26,54.86h6.86v9.61c0,2.79-2.27,5.06-5.06,5.06h-1.8c-2.79,0-5.06-2.27-5.06-5.06v-4.55c0-2.79,2.27-5.06,5.06-5.06Z" transform="translate(8.8 133.22) rotate(-89.87)"/><rect class="cls-6" x="64.07" y="50.71" width="1.96" height="13.03" transform="translate(7.62 122.09) rotate(-89.82)"/><path class="cls-7" d="M75.02,76.77s5.38,8.95,11.22-.92c0,0-3.1-4.93-6.4-.56,0,0-2.4-1.63-4.82,1.48"/><path class="cls-6" d="M85.82,64.25h-2.13c0-2.08-1.69-3.77-3.76-3.77s-3.76,1.69-3.76,3.77h-2.13c0-3.25,2.64-5.9,5.88-5.9s5.88,2.65,5.88,5.9Z"/><path class="cls-9" d="M107.07,117.96l-6.68,2.72v8.27s-.02,4,6.68,6.46c6.7-2.46,6.68-6.46,6.68-6.46v-8.27l-6.68-2.72Z"/><path class="cls-2" d="M80.06,71.39c-.87,0-1.55-.43-2.15-.81-.99-.62-1.59-1-2.79.2l-.78-.78c1.82-1.82,3.11-1.01,4.15-.35.52.33,1.02.64,1.57.64s1.03-.29,1.53-.59c.99-.61,2.22-1.36,4.25.33l-.7.85c-1.43-1.19-2.05-.81-2.98-.24-.57.35-1.23.75-2.1.75"/><path class="cls-2" d="M79.86,71.39c-.87,0-1.55-.43-2.15-.81-.99-.62-1.59-1-2.79.2l-.78-.78c1.82-1.82,3.11-1.01,4.15-.35.52.33,1.02.64,1.57.64s1.03-.29,1.53-.59c.99-.61,2.22-1.36,4.25.33l-.7.85c-1.43-1.19-2.05-.81-2.98-.24-.57.35-1.23.75-2.1.75"/></svg>