<?xml version="1.0" encoding="UTF-8"?><svg xmlns="http://www.w3.org/2000/svg" version="1.1" viewBox="0 0 160 160"><defs><style>.cls-1 {
        fill: #fff;
      }

      .cls-2 {
        fill: #ff6200;
      }

      .cls-3 {
        fill: #a8a8a8;
      }</style></defs><!--Generator: Adobe Illustrator 28.6.0, SVG Export Plug-In . SVG Version: 1.2.0 Build 709)--><g><g id="Debit"><g><g><path class="cls-2" d="M56.1,33.4c-3.1,1.1-6.1,1-8.4.2l-28.6,9.8c-2.5.8-3.8,3.5-2.9,6l28,81.6c.8,2.5,3.5,3.8,6,2.9l48.4-16.6c2.5-.8,3.8-3.5,2.9-6l-28-81.6c-.8-2.5-3.5-3.8-6-2.9l-4.7,1.6c-1.2,2.1-3.6,4-6.7,5Z"/><path class="cls-1" d="M65.9,108.9l1.6,4.8,2-.7c.7-.2,1.1-.8.9-1.3l-1.3-3.9-3.2,1.1Z"/><path class="cls-1" d="M62.9,100.1l1.6,4.7,3.2-1.1-1.3-3.8c-.2-.5-.8-.7-1.5-.4l-2,.7Z"/><rect class="cls-1" x="60.6" y="100.5" width="2.7" height="4.1" transform="translate(-29.9 25.6) rotate(-18.9)"/><rect class="cls-1" x="63.9" y="110.2" width="2.7" height="4.1" transform="translate(-32.9 27.2) rotate(-18.9)"/><rect class="cls-1" x="58.7" y="107" width="1.4" height="3.6" transform="translate(-32.1 25.1) rotate(-18.9)"/><rect class="cls-1" x="67.1" y="104.1" width="1.3" height="3.6" transform="translate(-30.7 27.7) rotate(-18.9)"/><path class="cls-1" d="M61.3,105.9l-1.6-4.7-2.1.7c-.7.2-1.1.8-.9,1.3l1.3,3.8,3.3-1.1Z"/><path class="cls-1" d="M59.5,111.1l1.3,3.9c.2.5.8.7,1.5.5l2-.7-1.6-4.8-3.3,1.1Z"/><polygon class="cls-1" points="67.9 108.9 61.1 111.2 59.3 106 66.1 103.6 67.9 108.9"/><path class="cls-2" d="M68.2,109.1l-7.1,2.4-2-5.8,7.1-2.4,2,5.8ZM61.3,111.1l6.5-2.2-1.8-5.1-6.5,2.2,1.8,5.1Z"/></g><path class="cls-1" d="M36.8,43.3l-10.6,3.9c-2.2.8-3.4,3.3-2.5,5.5l3.9,10.6c.8,2.2,3.3,3.4,5.5,2.5l10.6-3.9c2.2-.8,3.4-3.3,2.5-5.5l-3.9-10.6c-.8-2.2-3.3-3.4-5.5-2.5ZM43.9,55.3c-.3,0-.5,0-.8,0l-.2-.6c.4,0,1.2-.2,2.1-.2l.4,1c-.6,0-1.3-.2-1.4-.2ZM45.7,56.5c.2.6.3,1.1.2,1.7-.1-.1-.2-.2-.2-.3q-.2,0-.4,0c-.1,0-.2,0-.3,0,0,0,.2.3.5.6.1,0,.3.2.3.2,0,.4-.2.7-.4,1-.2-.2-.2-.3-.3-.4-.2,0,0-.7-.5-.6-.2,0-.7,0-.7,0,0,.2.2.7.3.9,0,.2.4.5.6.6-.2.2-.5.5-.8.6-.1-.2-.2-.4-.3-.5l-.4-1.1c-.3.2-.3.3-.4.3-.2.2-.3.3-.2.5.1.3.3.5.3.7,0,.2.1.4.2.4.1,0,.2,0,.3,0,0,0-.1,0-.2,0l-1,.4c0-.2.1-.4.1-.6,0-.2-.2-.6-.4-.9-.3.2-.8.5-.7.7,0,.2.2.4.2.6.1.1.2.3.3.5s0,0,0,0l-.6.2c0-.1-.1-.2-.2-.3-.2-.2-.2-.4-.3-.6-.1-.1-.3-.1-.4,0s-.6,0-.5.1c-.4.1,0,.4.1.6s.4.4.6.5l-4.9,1.8c0,0,0-.1.1-.2,0-.3.3-.9.4-1.1-.2,0-.3-.3-.5-.4-.3.1-1.2.9-1.2.9.3.2.6.5.8.8l-2.6,1c-1.9.7-4.1-.3-4.8-2.2l-3.9-10.6c-.7-1.9.3-4.1,2.2-4.8l10.6-3.9c1.6-.6,3.3,0,4.2,1.2-.7-.2-1.5-.3-2.2-.3-.3.5-.5.9-.7,1s-.2-.4-.3-.7c-.2,0-.4.1-.6.1,0,.6.2,1.2,0,1.5-.1.1-.2.2-.3.2l-.2-.6c0,0,0-.7,0-.7,0,0-.6.4-.7.5,0,0-.4.5-.5.5,0,0-.2,0-.3,0-.3,0-.4,0-.7,0,0,1,0,1.2,0,1.1,0,0-1.2-.3-1.8-.6-.9.5-.8.6-1.5,1.2-.2.4-.5.9-.6,1.4,0,.3-.1.5-.2.9h.8c0,0,.2-.7.2-.9.4-.5,1.1-1.3,1.3-1.7.1.1,1.2.3,1.6.4.4.1.7,0,1,.1,0-.3.1-.5,0-1.1.3,0,.6,0,.8,0,.1.3.2.6.4.8,0,.1.2,0,.4-.2.4-.3.8-.5,1-.7.4-.5.5-1.2.9-1.3s1.1-.2,1.3,0c.2,0,.4,0,.6,0s.3-.3.4-.5c.1.2.3.5.4.7l3,8.1c-.9,0-1.6,0-2.1.3,0,0-.2,0,0-.2.2-.2.2-.3.3-.4.1-.4.1-.7.1-1,0-.5.3-.4.1-1.4-.2,0-.2.2-.4.4,0-.2,0-.5,0-.7,0-.5,0-.8-.2-1.3.2-.2.5-.5.4-.8,0,0-.1-.3-.1-.6-.2-.4-.2-.8-.5-1,0,0-.8-.6-1.2-.7-.6,0-.8.1-1.1.3-.4.2-.8.8-.6,1.6-.4.2-1.3.6-1.6,1.2-.5,0-.9,0-1.3,0l-.6.2c-.2-.3-.4-.5-.8-.6-.4,0-1-.2-1.5,0s-.5,0-.6.3c-.2.2-.5.5-.4.8,0,.4,0,.8,0,1.1s.5.6.8.8c.1.1.2,0,.4.1,0,0,.4,0,.5,0,0,0,0,.3.2.7s.1.4.3.6c.1.3.3.5.4.7-.2,0-.4,0-.5.1,0,.1.3.4.6.7.5.2,1,.5,1.4.8,0,0,0,.2.2.2-.5.3-1,.4-1.4.8-.4.3-.8.7-1.1,1.1.1.3.3.5.3.5,0,0,.6-.6,1.1-1,.8-.6,1.4-.7,1.4-.7.1.1.3.3.2.4-.7.7-1.4,1.4-2,2.2.1.1.1.4.3.4.6-.7,1.4-1.6,2-2.1.3-.2.3-.1.4-.2,0,0,.3.3.5.2.2,0,.4-.4.5-.5.4-.3.7-.6,1.1-.8.1-.1,0-.3,0-.4q0-.2,0-.4c0,0-.3,0-.6-.3-.2-.2-.2-.4-.2-.4-.2.2-.4.5-.6.2-.2-.2-.3-.5,0-.6.6-.6,1.4-.8,2.2-.8.1,0,.3,0,.3.2.1.1.1.3,0,.5-.2.2-.5,0-.4.2s0,.6-.3.8c0,0,.1.3.3.5,0,0,0,.2.1.2.3,0,.8-.1,1,0,.3,0,1,.3,1,.2.2-.2.2-.5.2-.7.8,0,1.5,0,2.6.3l.2.5ZM41.1,53.8c-.1-.1-.3-.2-.4-.3-.2,0-.3,0-.5-.1-.2-.5-.3-.5-.4-1s-.5-.8-.5-.8c0,0,.1-.4.3-.5,0,0,1.4-.5,2-.7,0,0,0,.2,0,.2,0,.2-.1.3-.3.4,0,0,0,.2,0,.3,0,.3-.3.4-.5.5s-.4.2-.7,0c0,0,.4.8.5,1s0,0,0,0c.3,0,.5.2.7.3,0,0,0,0,.2,0,.4.1,1.1.2.8.3,0,.1,0,.6,0,.6-.3-.1-.7-.1-1-.2ZM42.3,54.8c0,0,0,.5,0,.5-.3,0-.6,0-1,0q0-.2,0-.3c.4-.2.7-.2.9-.2ZM38.4,49.9c-.4-.2.4-.2.8-.3.1,0,1.5-.2.8.4,0,.2-.5.3-.8.4,0-.1-.2-.4-.3-.4-.2,0-.4,0-.5-.2ZM40,47.7c.1-.3.4-.5.7-.5.4,0,.5,0,.7,0,.3.2.5.8.5,1.2,0,.2-.2.5-.4.5-.5-.3-1-.5-1.5-.4-.2-.3,0-.6,0-.9ZM37.6,54.9c0,.2,0,.4-.1.5-.2.2-.3.4-.4.4-.3,0-.3-.4-.3-.7,0-.3.3-.5.5-.7.3-.2,0-.7,0-.8,0-.2-.1-.4-.2-.5-.1.1-.1,0-.4.2-.3.1-.5,0-.7,0-.2,0-.7-.2-.9-.5.3-.2.6-.3,1-.4l.9-.3c.2,0,.4,0,.5.2s.1.5.1.6c0,.5.1.6.3,1.3v.2c0,.2-.2.3-.3.5ZM38.3,56.3c0,0-.3.3-.3.3-.1.1-.2.2-.4.4-.1-.1-.3-.4-.3-.4,0,0,.3-.2.5-.3s.3-.1.5,0ZM34.2,51.9c-.2,0-.6-.2-.8-.4-.3-.2-.4-.5-.4-.6,0-.5.4-.8.7-1,.1,0,.3-.1.6,0,.3,0,.5,0,.8.4,0,0,0,.1,0,.2,0,0-.3.4-.4.6-.3.3-.2.7-.4.8ZM36.5,51.5h-.4c0,0,0-.2.2-.5.2-.2.3-.4.5-.5.1-.1.4-.3.4-.2.1.3,0,.5-.2.9,0,.3-.2.2-.5.3ZM32.8,57.9c-.1.4-.4,1-.4,1.2l-.4-.8q-.2-.2-.3-.6c.3-.3.4-.5.6-.9,0-.2.5-.5,1.2-1,.1.3.1.5.1.8-.6.6-.7,1.1-.8,1.3ZM33.8,61.8c0-.1-.2-.3-.3-.4-.2-.2-.2-.4-.4-.6,0-.2-.4-1-.5-1.1v-.4c.1-.3.4-.6.6-.8,0,.4,0,.6.3,1.1s.4.5.6,1c0,.3,0,.6-.2.9,0,.2-.1.3-.1.3ZM30.8,53.7c.2-.2.3-.4.5-.8-.2-.4-.4-.7-.5-1s-.2-.4,0-.7c0-.3.4-.5.7-.5.1.5,0,.7.3,1.3s.3.4.4.5c.1.1.2.2.3.4s0,.2,0,.3c-.2.2-.3.2-.3.4-.3.4-.3.6-.5.9q0,.2-.2.5s-.4-.8-.6-1.2ZM32,56.6c-.2-.2-.2-.4-.4-.6,0,0-.2-.6-.2-.8,0-.1.5-.6.8-.8.1,0,.7-.4.8-.3.1.1,0,.2.1.6,0,.2-.1.1-.2.3,0,0-.6,1-.7,1.1-.1.1-.2.2-.3.5ZM38.7,60.7c.1.1.3.4.3.4.2.5,0,.7,0,1-.2-.2-.4-.4-.6-.6-.2-.2-.3-.3-.6-.4,0,0,0-.7,0-.7,0,0,.2,0,.3,0,.3,0,.4.2.5.3ZM40.3,57.1c.7-.3,1.5-.5,2.2-.3.1.3.2.6.2,1,0,0,0,.4,0,.6-.3-.2-.9-.3-.9-.3.2.3.1.4.2.7,0,0-.5.3-.5.3-.5,0-.7-.3-.7-.3,0,0,.1.6-.1.7s-.5.2-.6,0c-.2-.2-.2-.3-.3-.5v-.3c-.3.2-.4.4-.4.6,0,0-.2,0-.3,0-.2-.2-.4-.4-.6-.7.5-.8,1.2-1.1,1.9-1.3ZM37.1,61.3c.2.3.7.9.7.9-.3,0-.5,0-.8-.1-.2,0-.3,0-.4-.1-.2-.2-.4-.7-.5-.8-.1-.3,0-.6,0-.7.2,0,.4,0,.5.1.2.2.2.5.3.7ZM34.6,61c.3.1.4.2.7.5,0,0-.3.6-.5,1.2,0,.1-.1.4-.1.4-.1-.3-.3-.6-.4-.8-.1-.1-.2-.2-.3-.3,0,0,.2-.2.3-.3,0-.2.3-.5.3-.6Z"/></g></g><g id="Credit"><path class="cls-3" d="M140.5,39.8l-4.8-1.3h-.2c0,0-2.5,2.1-2.5,2.1l-10-2.6-1.2-3.3-1.5-.4-29.2-7.8c-2.5-.7-5.1.8-5.8,3.3l-22.2,83.2c-.7,2.5.8,5.1,3.3,5.8l49.4,13.2c2.5.7,5.1-.8,5.8-3.3l22.2-83.2c.7-2.5-.8-5.1-3.3-5.8Z"/><g><path class="cls-1" d="M97.5,108.1l-1.3,4.9,2.1.5c.7.2,1.3,0,1.5-.6l1.1-4-3.3-.9Z"/><path class="cls-1" d="M99.9,99.1l-1.3,4.8,3.3.9,1-3.9c.1-.5-.3-1-1-1.2l-2-.5Z"/><rect class="cls-1" x="95.7" y="99.4" width="4.1" height="2.7" transform="translate(-24.8 169) rotate(-75)"/><rect class="cls-1" x="93.1" y="109.2" width="4.1" height="2.7" transform="translate(-36.3 173.8) rotate(-75)"/><rect class="cls-1" x="90.4" y="103.8" width="3.6" height="1.4" transform="translate(-32.6 166.4) rotate(-75)"/><rect class="cls-1" x="98.9" y="106.1" width="3.6" height="1.3" transform="translate(-28.5 176.3) rotate(-75)"/><path class="cls-1" d="M95.4,103.1l1.3-4.8-2.1-.6c-.7-.2-1.3,0-1.5.5l-1,3.9,3.3.9Z"/><path class="cls-1" d="M91,106.3l-1.1,4c-.1.5.3,1,1,1.2l2.1.6,1.3-4.9-3.3-.9Z"/><polygon class="cls-1" points="99.2 109.2 92.3 107.4 93.7 102 100.6 103.9 99.2 109.2"/><path class="cls-2" d="M99.3,109.5l-7.2-1.9,1.6-5.9,7.2,1.9-1.6,5.9ZM92.4,107.3l6.6,1.8,1.4-5.2-6.6-1.8-1.4,5.2Z"/><path class="cls-1" d="M97.5,108.1l-1.3,4.9,2.1.5c.7.2,1.3,0,1.5-.6l1.1-4-3.3-.9Z"/><path class="cls-1" d="M99.9,99.2l-1.3,4.8,3.3.9,1-3.9c.1-.5-.3-1-1-1.2l-2-.5Z"/><rect class="cls-1" x="95.7" y="99.4" width="4.1" height="2.7" transform="translate(-24.8 169) rotate(-75)"/><rect class="cls-1" x="93.1" y="109.2" width="4.1" height="2.7" transform="translate(-36.3 173.8) rotate(-75)"/><rect class="cls-1" x="90.4" y="103.8" width="3.6" height="1.4" transform="translate(-32.6 166.4) rotate(-75)"/><rect class="cls-1" x="98.9" y="106.1" width="3.6" height="1.3" transform="translate(-28.5 176.4) rotate(-75)"/><path class="cls-1" d="M95.4,103.1l1.3-4.8-2.1-.6c-.7-.2-1.3,0-1.5.5l-1,3.9,3.3.9Z"/><path class="cls-1" d="M91,106.3l-1.1,4c-.1.5.3,1,1,1.2l2.1.6,1.3-4.9-3.3-.9Z"/><polygon class="cls-1" points="99.2 109.2 92.3 107.4 93.7 102 100.6 103.9 99.2 109.2"/><path class="cls-3" d="M99.3,109.5l-7.2-1.9,1.6-5.9,7.2,1.9-1.6,5.9ZM92.5,107.4l6.6,1.8,1.4-5.2-6.6-1.8-1.4,5.2Z"/></g><path class="cls-1" d="M100.9,55.2l-11-3c-2-.5-3.2-2.6-2.7-4.7l3-11c.5-2,2.6-3.2,4.7-2.7l11,3c2,.5,3.2,2.6,2.7,4.7l-3,11c-.5,2-2.6,3.2-4.7,2.7"/><path class="cls-2" d="M105.9,51.5c-.4-.4-1-.9-1.1-1-.3-.2-.4-.3-.7-.5l.2-.6c.4.2,1.1.5,1.9,1.1l-.3,1ZM105.5,38.2c-.3.5-.5,1.1-1,1.2-.2,0-.2,0-.3,0l.2-.6c0,0,.5-.5.4-.6,0,0-.7,0-.9,0,0,0-.6.2-.7.1,0,0-.2-.1-.3-.2-.2-.2-.3-.2-.5-.5-.5.8-.7,1-.6.9,0,0-.9-1-1.1-1.5-1-.1-1.1,0-2,.1-.4.2-.9.5-1.3.8-.2.3-.4.4-.7.6l.7.5c0,0,.6-.5.7-.6.6-.2,1.6-.4,2-.7,0,.2.8.9,1.1,1.3.2.3.5.5.8.7.2-.2.4-.4.7-.9.2.2.5.3.7.4,0,.3-.2.6-.2.9,0,.2.1.1.5,0,.5,0,1,0,1.2,0,.6-.2,1.1-.7,1.5-.6s1,.5,1.1.7c.2.1.3.2.6.3s.4,0,.6-.1c0,.3,0,.6-.1.8l-2.3,8.4c-.7-.6-1.4-.9-1.9-1,0,0-.1-.2,0-.2.3,0,.4-.1.5-.2.3-.2.5-.5.7-.8.3-.4.5-.2.9-1.1-.2,0-.3,0-.6,0,.1-.2.3-.4.3-.6.2-.4.4-.7.6-1.2.2,0,.7-.1.8-.4,0,0,0-.3.2-.6.1-.4.3-.8.2-1.1,0,0-.3-1-.6-1.3-.5-.4-.7-.4-1.1-.4-.4-.1-1.2.2-1.4,1-.5-.1-1.4-.3-2,0-.4-.3-.7-.5-1.1-.7l-.7-.2c0-.3,0-.7-.3-1-.3-.3-.7-.7-1.2-.9s-.4-.2-.7-.1c-.3,0-.7.1-.8.4-.3.3-.5.6-.6,1s0,.7.2,1.2c0,.2.1.2.2.3,0,0,.3.2.4.3,0,0-.2.3-.3.7s-.1.4-.1.7c0,.3,0,.6,0,.9-.2,0-.3-.3-.5-.2,0,.1,0,.6,0,.9.3.5.5,1,.6,1.5,0,0,0,.2,0,.2-.5,0-1.1-.2-1.6-.2-.5,0-1.1.1-1.6.2,0,.3,0,.5,0,.5,0,0,.9-.2,1.5-.2,1.1,0,1.6.2,1.6.2,0,.2,0,.4,0,.5-1,.1-2,.3-3,.6,0,.2-.1.4,0,.6.9-.2,2.1-.5,2.9-.6.3,0,.3,0,.4.1,0,0,.1.4.3.5.2,0,.5-.1.8-.1.5,0,.9,0,1.4,0,.2,0,.2-.2.3-.3q.1-.1.2-.4c0,0-.3-.2-.3-.6,0-.3.1-.5,0-.5-.3,0-.6.2-.6-.2,0-.2,0-.5.3-.6.8,0,1.7.1,2.3.6.1,0,.2.2.1.4,0,.2,0,.3-.3.4-.2,0-.4-.3-.4-.1s-.3.5-.7.5c0,0,0,.3,0,.5,0,0,0,.2,0,.2.3.2.7.4.9.6.3.2.7.8.8.8.3,0,.4-.3.6-.4.7.5,1.2.9,2,1.7v.5c-.3.6-.6,1.1-.9,1.5,0-.2,0-.3,0-.4q-.1-.1-.4-.2c0,0-.2-.1-.3-.2,0,0,0,.4,0,.8,0,.1.1.3.2.4-.3.2-.6.4-.9.6,0-.3,0-.4,0-.5-.1-.2.3-.6,0-.7-.1-.1-.5-.4-.5-.4-.1.2-.3.7-.2.9,0,.2,0,.6.2.9-.3,0-.7,0-1,0,0-.2,0-.4,0-.6l.3-1.2c-.3,0-.4,0-.5,0-.3,0-.4.1-.5.3,0,.3,0,.6-.1.8,0,.2-.1.4,0,.5,0,0,.2.1.2.2,0,0-.1,0-.2,0l-1-.3c.2-.2.4-.3.5-.4.1-.2.2-.6.2-1-.3,0-.9,0-1,.1-.1.2-.1.4-.2.6,0,.2,0,.3,0,.5s0,0,0,0l-.6-.2c0-.1,0-.2,0-.3,0-.2.1-.4.1-.7,0-.2-.2-.3-.3-.3s-.5-.4-.5-.2c-.4-.1-.2.4-.2.6s0,.5.2.8l-5.1-1.4c0,0,.2,0,.2-.1.2-.2.8-.5,1-.6-.1-.2-.1-.4-.2-.6-.3,0-1.5,0-1.5,0,.1.4.2.8.2,1.2l-2.7-.7c-2-.5-3.2-2.6-2.7-4.7l3-11c.5-2,2.6-3.2,4.7-2.7l11,3c1.6.4,2.7,1.9,2.8,3.5-.5-.5-1-1.1-1.6-1.5-.5.3-.9.5-1.2.4s0-.5.1-.8c-.2,0-.4-.1-.6-.2M103.4,47.6c0-.2,0-.3-.1-.5-.1-.2-.2-.2-.4-.4.1-.5,0-.5.2-1.1s0-.9,0-.9c0,0,.3-.2.5-.3,0,0,1.4.4,2.1.6,0,0-.1.1-.2.1-.1.1-.3.2-.5.2,0,0-.2.1-.2.2-.2.2-.5.2-.8.1s-.4-.1-.5-.5c0,0-.2.9-.2,1.1s0,0,0,0c.3.2.3.5.4.7,0,0,0,0,.1.1.2.3.8.8.5.7,0,.2-.4.5-.4.4-.2-.3-.5-.5-.8-.8M103.8,49.2c0,0-.2.4-.2.4-.3-.2-.4-.4-.8-.5q0-.2.2-.3c.5,0,.7.3.9.4M103.4,42.8c-.2-.4.5,0,.8.2.2,0,1.3.7.4.8-.2.1-.5,0-.9-.2,0-.2.1-.5,0-.5-.1-.2-.3-.2-.3-.4M106.1,41.9c.3-.2.6-.2.9,0,.4.2.4.3.5.5.1.4,0,.9-.3,1.3-.1.2-.4.3-.6.2-.3-.5-.5-.9-1-1.2,0-.3.3-.6.5-.7M99.9,46.4c-.1.2-.2.4-.4.4-.2,0-.5.2-.6,0-.2-.2,0-.6.2-.7.2-.2.6-.3.8-.3.3,0,.4-.6.4-.7.1-.1.1-.4.1-.5-.2,0-.1,0-.5,0-.3,0-.4-.3-.5-.5-.1-.2-.4-.6-.5-.9.4,0,.7.1,1.1.2l1,.3c.2.1.3.3.3.5s-.2.5-.2.6c-.2.4-.2.6-.5,1.2v.2c-.2.1-.5.1-.7.2M99.6,48.1c0,0-.4.1-.4.1-.2,0-.3,0-.5.1,0-.2,0-.5,0-.5,0,0,.3,0,.5,0s.3,0,.4.2M98.9,42c-.1-.2-.3-.5-.4-.8-.1-.4,0-.6,0-.7.3-.4.8-.4,1.2-.4.1,0,.3,0,.5.3.3.2.4.3.4.8,0,0,0,.1-.1.1,0,0-.5.2-.7.3-.4.1-.6.5-.8.4M101,43h-.4c0-.3.2-.4.5-.5.3,0,.5-.2.7-.1.2,0,.5,0,.4.1,0,.3-.3.4-.7.6-.2.2-.2,0-.6,0"/><path class="cls-2" d="M102.8,49.1c.4.1.5.4.8.5,0,0,.2-.4.2-.4-.2-.1-.4-.3-.9-.4q0,0-.2.3"/><path class="cls-2" d="M104.6,48c.3,0-.3-.4-.5-.7,0,0-.1-.1-.1-.1-.1-.2-.1-.5-.4-.7,0,0,0,0,0,0,0-.2.2-1.1.2-1.1,0,.3.4.4.5.5.3,0,.5,0,.8-.1,0,0,.1-.2.2-.2.2,0,.3,0,.5-.2,0,0,.2-.1.2-.1-.7-.3-2.1-.6-2.1-.6-.2,0-.5.2-.5.3,0,0,0,.9,0,.9-.1.5,0,.5-.2,1.1.2.2.3.2.4.4,0,.2,0,.3.1.5.3.2.6.5.8.8,0,0,.4-.3.4-.4"/><path class="cls-2" d="M106.6,43.9c.2,0,.5,0,.6-.2.2-.4.4-.9.3-1.3-.1-.2-.2-.3-.5-.5-.3-.2-.6-.2-.9,0-.2.2-.5.4-.5.7.5.3.8.7,1,1.2"/><path class="cls-2" d="M103.8,43.7c.4.1.7.3.9.2.9-.2-.3-.8-.4-.8-.4-.2-1-.6-.8-.2,0,.2.2.2.3.4.1,0,0,.3,0,.5"/><path class="cls-2" d="M105.9,39.2c.2,0,.6-.2,1.2-.4.6.4,1.1,1,1.6,1.5,0-1.6-1.2-3-2.8-3.5l-11-3c-2-.5-4.1.7-4.7,2.7l-3,11c-.5,2,.7,4.1,2.7,4.7l2.7.7c0-.4,0-.8-.2-1.2,0,0,1.2-.1,1.5,0,0,.2,0,.4.2.6-.2.1-.8.4-1,.6,0,0-.2,0-.2.1l5.1,1.4c-.1-.3-.3-.6-.2-.8s-.1-.7.2-.6c0-.1.4.2.5.2s.3.2.3.3c0,.2-.1.4-.1.7,0,0,0,.2,0,.3l.6.2s0,0,0,0c0-.2.1-.4,0-.5,0-.1,0-.4.2-.6,0-.2.7-.1,1-.1,0,.4,0,.8-.2,1-.1.2-.3.3-.5.4l1,.3c0,0,.1,0,.2,0,0,0-.1,0-.2-.2,0,0,0-.2,0-.5s0-.5.1-.8.2-.2.5-.3c0,0,.2,0,.5,0l-.3,1.2c0,.1,0,.4,0,.6.3,0,.7,0,1,0-.1-.3-.2-.7-.2-.9,0-.2.1-.7.2-.9,0,0,.4.3.5.4.4.1,0,.5,0,.7,0,0,0,.2,0,.5.3-.1.7-.3.9-.6,0,0-.1-.2-.2-.4,0-.4,0-.8,0-.8,0,0,.2,0,.3.2q.2,0,.4.2c0,0,0,.2,0,.4.4-.4.6-.9.8-1.5v-.5c-.6-.8-1.2-1.2-1.8-1.7-.2.1-.3.3-.6.4,0,0-.5-.5-.8-.8-.2-.2-.6-.4-.9-.6,0,0,0-.2,0-.2,0-.2,0-.5,0-.5.4,0,.6-.3.7-.5s.2.1.4.1c.2-.1.3-.2.3-.4,0-.1,0-.3-.1-.4-.7-.5-1.5-.7-2.3-.6-.2,0-.3.3-.3.6,0,.3.3.3.6.2,0,0-.1.2,0,.5,0,.3.3.5.3.6q0,.2-.2.4c0,.2,0,.3-.3.3-.5,0-.9,0-1.4,0-.2,0-.5.2-.8.1s-.2-.4-.3-.5c-.2,0-.1-.1-.4-.1-.8,0-2,.3-2.9.6-.1-.2,0-.4,0-.6,1-.3,2-.5,3-.6,0,0,0-.3,0-.5,0,0-.5-.2-1.6-.2-.6,0-1.4.2-1.5.2,0,0,0-.2,0-.5.5-.1,1.1-.2,1.6-.2.6,0,1.1.1,1.6.2,0,0,0-.2,0-.2-.1-.5-.4-1-.6-1.5,0-.3-.1-.8,0-.9.2-.1.3.2.5.2,0-.2,0-.6,0-.9q0-.3.1-.7c.1-.4.3-.6.3-.7,0,0-.3-.3-.4-.3-.1-.1-.2-.1-.2-.3-.1-.4-.3-.8-.2-1.2s.3-.6.6-1c.2-.3.6-.3.8-.4.3,0,.5,0,.7.1.5.1.9.6,1.2.9.2.3.3.6.3,1l.7.2c.4.2.7.4,1.1.7.6-.3,1.6-.1,2,0,.2-.8.9-1.1,1.4-1,.4,0,.6,0,1.1.4.3.3.6,1.2.6,1.3,0,.3-.1.7-.2,1.1-.2.3-.2.5-.2.6-.2.3-.6.4-.8.4-.1.5-.4.8-.6,1.2,0,.2-.2.4-.3.6.2,0,.4-.1.6,0-.4.9-.6.7-.9,1.1-.2.3-.4.5-.7.8,0,0-.2.1-.5.2-.2,0,0,.1,0,.2.6.2,1.2.5,1.9,1l2.3-8.4c0-.3.1-.6.1-.8-.2,0-.4.2-.6.1s-.4-.2-.6-.3c-.1-.2-.7-.6-1.1-.7s-.9.4-1.5.6c-.2,0-.7,0-1.2,0-.3,0-.5.1-.5,0,0-.3,0-.6.2-.9-.2-.1-.5-.2-.7-.4-.3.5-.5.7-.7.9-.3-.2-.5-.4-.8-.7-.3-.3-1.1-1.1-1.1-1.3-.4.2-1.4.5-2,.7-.1.1-.6.6-.7.6l-.7-.5c.2-.3.4-.4.7-.6.4-.4,1-.6,1.3-.8.9,0,.9-.2,2-.1.3.5,1.1,1.5,1.1,1.5,0,.1,0,0,.6-.9.2.2.3.3.5.5,0,0,.3.2.3.2,0,0,.6,0,.7-.1.2,0,.9,0,.9,0,0,0-.4.5-.4.6l-.2.6c0,0,.1,0,.3,0,.4,0,.7-.7,1-1.2.2.1.4.2.6.2,0,.3-.3.7-.1.8M100.8,49.9c.8.2,1.5.5,2,1,0,.3-.2.7-.4.9,0,0-.3.3-.4.4-.1-.4-.5-.8-.5-.8,0,.3-.1.4-.3.7,0,0-.5,0-.5,0-.4-.3-.4-.7-.4-.7,0,0-.2.6-.5.5s-.5-.1-.5-.4c0-.2,0-.4,0-.6v-.3c-.2,0-.4.2-.6.3,0,0-.1-.2-.2-.2,0-.3,0-.6,0-.9.9-.3,1.7-.2,2.3,0M96.8,51.2c0,0,.2.1.3.2.2.2.2.4.3.6,0,.2,0,.6,0,.6-.1.5-.4.6-.6.9,0-.3,0-.6,0-.8,0-.2-.1-.4-.2-.7,0,0,.3-.6.3-.6M95.5,50.2c.1.1.3.3.4.4,0,.3-.1.5-.1.8,0,.4,0,1.1,0,1.1-.2-.2-.4-.3-.6-.6-.1-.1-.3-.2-.2-.3,0-.2,0-.8,0-.9,0-.3.3-.6.5-.5M92.7,49.5c0-.2,0-.5,0-.7,0-.2.2-1.1.2-1.2v-.4c.4,0,.9-.2,1.2-.3-.2.4-.3.5-.5,1.1s0,.6,0,1.2c-.2.3-.4.5-.7.6-.1.1-.3.2-.3.2,0-.2,0-.3,0-.5M92.9,51.2c0,.1-.3.2-.3.2,0-.3.1-.7.1-.8,0-.2,0-.3,0-.4,0,0,.3,0,.4-.1.1-.1.6-.3.6-.3.2.3.2.4.3.8,0,0-.6.3-1.1.7M95.6,45.5c-.9.2-1.2.5-1.4.6-.3.2-.9.6-1.1.8l.2-.9q0-.2.1-.7c.4-.1.6-.2,1.1-.4.2-.1.8-.1,1.6-.1,0,.3-.2.5-.4.8M96.6,43.1c0,.2-.1.1-.2.6-.1.1-.2,0-.4.1,0,0-1.1.4-1.2.5-.2,0-.3,0-.5.3,0-.2,0-.5,0-.7,0,0,.2-.6.3-.8,0-.1.8-.2,1.2-.2.1,0,.8,0,.8.2M97.1,39.4c-.2.5-.3.6-.5,1.2s0,.5,0,.7c0,.2,0,.3,0,.5s-.1.1-.2.2c-.3,0-.3,0-.4.1-.5.2-.6.3-1,.5q-.2.1-.4.3s.1-.8.2-1.3c.3,0,.5-.2.9-.3,0-.5,0-.8.2-1.2s.1-.4.3-.6c.2-.3.6-.2.9,0"/><path class="cls-2" d="M104.2,50c.3.2.4.3.7.5,0,0,.7.6,1.1,1l.3-1c-.7-.6-1.5-.8-1.9-1.1l-.2.6Z"/><path class="cls-2" d="M102.2,42.5c0-.1-.3-.2-.4-.1-.1,0-.4,0-.7.1-.3.2-.5.2-.5.4h.4c.4.2.4.4.6.2.3-.2.6-.3.7-.6"/><path class="cls-2" d="M100.5,46.2v-.2c.3-.7.4-.8.6-1.2,0,0,.2-.5.2-.6,0-.2,0-.3-.3-.5l-1-.3c-.4-.1-.7-.2-1.1-.2,0,.3.4.7.5.9.1.2.2.4.5.5.3,0,.3,0,.5,0,0,.1,0,.4-.1.5,0,0-.1.7-.4.7-.2,0-.6,0-.8.3-.2.2-.4.5-.2.7.1.1.3,0,.6,0,.2,0,.3-.2.4-.4.2-.1.5-.1.6-.2"/><path class="cls-2" d="M100.5,41.2c0-.6-.2-.6-.4-.8-.2-.2-.3-.2-.5-.3-.3,0-.9,0-1.2.4,0,0-.2.4,0,.7,0,.3.3.6.4.8.2,0,.4-.3.8-.4.2-.1.7-.3.7-.3,0,0,0,0,.1-.1"/><path class="cls-2" d="M98.6,47.8s0,.3,0,.5c.2,0,.3,0,.5-.1,0,0,.3,0,.4-.1-.1-.1-.3-.2-.4-.2-.2,0-.5,0-.5,0"/><path class="cls-1" d="M96.8,53.4c.2-.3.4-.4.6-.9,0,0,0-.4,0-.6,0-.2,0-.3-.3-.6,0,0-.2-.2-.3-.2,0,0-.2.6-.3.6,0,.3.2.5.2.7,0,.2,0,.6,0,.8"/><path class="cls-1" d="M95.2,52c.2.2.4.3.6.6,0,0,0-.7,0-1.1,0-.2.2-.5.1-.8,0-.2-.2-.3-.4-.4-.2,0-.4.2-.5.5s-.1.7,0,.9c0,0,.1.2.2.3"/><path class="cls-1" d="M98.7,51c.2-.1.4-.3.6-.3v.3c-.1.2-.2.4-.2.6,0,.2.2.3.5.4s.5-.4.5-.5c0,0,0,.3.4.7,0,0,.5.1.5,0,.2-.4.3-.4.3-.7,0,0,.4.4.5.8.2-.1.4-.4.4-.4.2-.3.3-.6.4-.9-.5-.5-1.2-.8-2-1s-1.4-.3-2.3,0c0,.3,0,.6,0,.9,0,0,.1.2.2.2"/><path class="cls-1" d="M95.7,42.8c-.4,0-1.1,0-1.2.2-.1.2-.3.7-.3.8,0,.2,0,.5,0,.7.3-.2.4-.2.5-.3,0,0,1.1-.4,1.2-.5.2-.1.2,0,.4-.1.1-.4.3-.4.2-.6,0-.2-.7-.2-.8-.2"/><path class="cls-1" d="M96.3,39.4c-.2.2-.3.4-.3.6-.1.4-.1.7-.2,1.2-.4.1-.5.3-.9.3,0,.5-.2,1.3-.2,1.3q.2-.2.4-.3c.4-.1.5-.3,1-.5.1-.1.2,0,.4-.1,0,0,.2-.1.2-.2,0-.2,0-.3,0-.5,0-.2,0-.6,0-.7.2-.6.3-.7.5-1.2-.3-.2-.7-.3-.9,0"/><path class="cls-1" d="M93.3,45.2q-.1.5-.1.7l-.2.9c.2-.2.8-.5,1.1-.8.2-.1.6-.4,1.4-.6.2-.3.3-.5.4-.8-.8,0-1.4,0-1.6.1-.4.1-.6.2-1.1.4"/><path class="cls-1" d="M93,49.8c.3-.2.4-.4.7-.6,0-.5,0-1,0-1.2.2-.6.3-.7.5-1.1-.3,0-.8.2-1.1.3v.4c-.1.1-.3,1-.3,1.2,0,.2,0,.5,0,.7,0,.2,0,.3,0,.5,0,0,.2,0,.3-.2"/><path class="cls-1" d="M93.1,50.1c-.2,0-.3,0-.4.1,0,.2,0,.2,0,.4,0,.1,0,.5-.1.8,0,0,.3,0,.3-.2.5-.3,1-.6,1.1-.7,0-.4-.1-.5-.3-.8,0,0-.5.2-.6.3"/></g></g></svg>