<?xml version="1.0" encoding="UTF-8"?><svg id="Charity" xmlns="http://www.w3.org/2000/svg" viewBox="0 0 160 160"><defs><style>.cls-1{fill:#ef2834;}.cls-2{fill:#f3a95f;}.cls-3{fill:#cfddf5;}.cls-4{fill:#8e0721;}</style></defs><path class="cls-2" d="M40.8,54.7l19.76-27.57c1.05-1.47.71-3.52-.77-4.56h0c-1.47-1.04-3.61-.78-4.65.69l-19.66,27.66c-1.34,1.88-.37,3,1.03,4l.24.18c1.41,1,3.63.28,4.97-1.59l-.92,1.2Z"/><path class="cls-2" d="M58.55,41.81l10.88,7.33c1.48,1.03,3.52.67,4.55-.81h0c1.03-1.48.66-3.52-.82-4.55l-14.48-10.38-.13,8.41Z"/><path class="cls-2" d="M45.14,51.3l19.76-27.57c1.05-1.47.71-3.52-.77-4.56h0c-1.47-1.04-3.5-.7-4.55.76l-19.77,27.59c-1.34,1.88-.37,3,1.03,4l.24.18c1.41,1,3.63.28,4.97-1.59l-.92,1.2Z"/><path class="cls-2" d="M50.27,48.77l19.76-27.57c1.05-1.47.71-3.52-.77-4.56h0c-1.47-1.04-3.5-.7-4.55.76l-19.77,27.59c-1.34,1.88-.37,3,1.03,4l.24.18c1.41,1,3.63.28,4.97-1.59l-.92,1.2Z"/><path class="cls-1" d="M105.87,44.87c-1.41-3.3-4.42-5.88-8.55-6.2-.34-.03-.68-.04-1.03-.04,0,0,0,0,0,0,0,0,0,0,0,0-4.65.02-8.69,2.57-10.85,6.32-.17.3-.33.6-.48.91-.15-.31-.31-.61-.49-.9-2.19-3.74-6.25-6.25-10.9-6.23h0c-.35,0-.69.02-1.03.05-4.12.35-7.12,2.96-8.5,6.27-.81,1.95-1.06,4.15-.65,6.28.37,1.9,1.27,3.75,2.78,5.32l.91.94,6,6.25,6,6.25,6,6.25,5.95-6.3,5.95-6.3,5.95-6.3.9-.95c1.49-1.58,2.38-3.43,2.73-5.34.4-2.13.13-4.33-.7-6.27Z"/><path class="cls-2" d="M70.33,51.83h0c-.62-2.06-2.95-3.07-4.87-2.09-3.97,2.01-10.03,5.07-12.45,6.29-3.77,1.9-6.56-3.02-2.55-6.03,1.99-1.49,10.01-7.71,10.01-7.71l-.76-7.27-21.6,12.13-10.6,14.96v33.18l18.46-25.96,11.63-7.14,11.13-6.36c1.4-.8,2.06-2.45,1.6-3.99Z"/><path class="cls-3" d="M65.41,86.14c-.95.73-1.8,1.58-2.48,2.58l-1.45,2.06c-.72,1.02-1.1,2.23-1.1,3.47v45.17c0,2.46,1.99,4.45,4.45,4.45h42.1c2.46,0,4.45-1.99,4.45-4.45v-44.91c0-1.41-.43-2.79-1.23-3.95l-1.31-1.9c-.64-.93-1.44-1.73-2.32-2.43l-41.11-.09Z"/><rect class="cls-3" x="60.38" y="82.18" width="51.01" height="4.21" rx="2.1" ry="2.1"/><path class="cls-4" d="M82.7,116.74c-2.14-.85-4.69-.64-6.7,1.11-.17.14-.33.29-.48.45,0,0,0,0,0,0,0,0,0,0,0,0-2.1,2.14-2.76,5.13-2.01,7.82.06.21.12.42.2.63-.21-.07-.42-.13-.63-.19-2.7-.69-5.68.03-7.78,2.17h0c-.16.16-.3.32-.44.49-1.7,2.04-1.87,4.59-.97,6.72.53,1.25,1.42,2.36,2.58,3.13,1.04.69,2.29,1.11,3.69,1.13h.84s5.57.1,5.57.1l5.57.08,5.57.08-.19-5.57-.19-5.57-.19-5.57-.03-.84c-.05-1.4-.5-2.64-1.21-3.66-.8-1.15-1.92-2.02-3.18-2.52Z"/><path class="cls-4" d="M107.49,130.29c-.03-1.56-.83-3.09-2.43-3.88-.13-.07-.27-.13-.41-.18,0,0,0,0,0,0,0,0,0,0,0,0-1.88-.75-3.92-.38-5.39.78-.12.09-.23.19-.34.29,0-.15-.03-.3-.05-.44-.27-1.86-1.5-3.53-3.38-4.28h0c-.14-.06-.28-.11-.42-.15-1.72-.53-3.35.03-4.44,1.14-.64.65-1.1,1.5-1.28,2.42-.16.83-.1,1.72.25,2.59l.21.53,1.4,3.49,1.4,3.49,1.4,3.49,3.42-1.57,3.42-1.57,3.42-1.57.52-.24c.86-.39,1.51-1,1.97-1.71.51-.79.75-1.72.74-2.64Z"/><path class="cls-4" d="M106.44,105.25c-.28-2.13-1.6-4.09-3.93-4.94-.19-.07-.39-.13-.59-.19,0,0,0,0,0,0,0,0,0,0,0,0-2.68-.73-5.41.08-7.25,1.9-.15.14-.29.29-.42.45-.04-.2-.08-.4-.13-.6-.66-2.5-2.59-4.6-5.27-5.33h0c-.2-.05-.4-.1-.6-.14-2.43-.46-4.57.56-5.89,2.25-.78.99-1.28,2.22-1.38,3.51-.09,1.15.13,2.36.75,3.5l.37.69,2.45,4.56,2.45,4.56,2.45,4.56,4.43-2.67,4.43-2.67,4.43-2.67.67-.4c1.11-.67,1.92-1.6,2.43-2.63.57-1.16.77-2.47.6-3.72Z"/></svg>