<?xml version="1.0" encoding="UTF-8"?><svg xmlns="http://www.w3.org/2000/svg" version="1.1" viewBox="0 0 160 160"><defs><style>.cls-1 {
        fill: #faa332;
      }

      .cls-2 {
        fill: #fff;
      }

      .cls-3 {
        fill: #8f411f;
      }

      .cls-4 {
        fill: #ff6200;
      }

      .cls-5 {
        fill: #a8a8a8;
      }</style></defs><!--Generator: Adobe Illustrator 28.6.0, SVG Export Plug-In . SVG Version: 1.2.0 Build 709)--><g><g id="credit_card"><g><path class="cls-3" d="M61.7,109.9l13.6-17.4,13.3-15.9c1.7-2,1.7-4.9.2-7-2.1-2.8-6.2-3-8.6-.4-4.9,5.3-12.4,13.3-15.4,16.5-4.7,5-11.6-.9-7.3-7.7,1.8-2.8,8.2-13,10.2-16.3l19.4,1.3c2.9.2,5.5-1.9,5.7-4.8.2-2.9-1.9-5.5-4.8-5.7l-24.2-2.3,7.3-26.8c.8-2.8-.9-5.7-3.7-6.5h0c-2.8-.8-5.7.9-6.5,3.7l-.8,2.9c-2.5-.2-4.9,1.4-5.6,3.9l-1.2,4.2c-1.7.7-3.1,2.2-3.6,4l-12.2,45-16.9,62.5h45l-4.1-33.2Z"/><g><path class="cls-5" d="M83.7,111h5s.2,0,.2,0l1.8-2.8h10.3c0-.1,2,2.7,2,2.7h1.5s30,0,30,0c2.6,0,4.7-2.1,4.7-4.7l-.2-85.6c0-2.6-2.1-4.7-4.7-4.7h-50.7c-2.6.1-4.7,2.2-4.7,4.8l.2,85.6c0,2.6,2.1,4.7,4.7,4.7Z"/><g><path class="cls-2" d="M107.3,34.5v-5s-2.1,0-2.1,0c-.7,0-1.3.4-1.3.9v4.1s3.4,0,3.4,0Z"/><path class="cls-2" d="M107.3,43.7v-4.9s-3.4,0-3.4,0v4c0,.5.6.9,1.3.9h2.1Z"/><rect class="cls-2" x="107.7" y="39.6" width="2.7" height="4.1" transform="translate(0 .1) rotate(0)"/><rect class="cls-2" x="107.6" y="29.4" width="2.7" height="4.1" transform="translate(0 .1) rotate(0)"/><rect class="cls-2" x="112.7" y="34.8" width="1.4" height="3.6" transform="translate(0 .2) rotate(0)"/><rect class="cls-2" x="103.9" y="34.8" width="1.3" height="3.6" transform="translate(0 .1) rotate(0)"/><path class="cls-2" d="M110.6,38.7v4.9s2.2,0,2.2,0c.7,0,1.3-.4,1.3-.9v-4s-3.4,0-3.4,0Z"/><path class="cls-2" d="M114.1,34.4v-4.1c0-.5-.6-.9-1.3-.9h-2.1s0,5,0,5h3.4Z"/><polygon class="cls-2" points="105.4 33.8 112.5 33.8 112.5 39.3 105.4 39.3 105.4 33.8"/><path class="cls-4" d="M105.3,33.5h7.4s0,6,0,6h-7.4s0-6,0-6ZM112.4,33.9h-6.8s0,5.4,0,5.4h6.8s0-5.4,0-5.4Z"/><path class="cls-2" d="M107.3,34.5v-5s-2.1,0-2.1,0c-.7,0-1.3.4-1.3.9v4.1s3.4,0,3.4,0Z"/><path class="cls-2" d="M107.3,43.7v-4.9s-3.4,0-3.4,0v4c0,.5.6.9,1.3.9h2.1Z"/><rect class="cls-2" x="107.6" y="39.6" width="2.7" height="4.1" transform="translate(0 .1) rotate(0)"/><rect class="cls-2" x="107.6" y="29.4" width="2.7" height="4.1" transform="translate(0 .1) rotate(0)"/><rect class="cls-2" x="112.7" y="34.8" width="1.4" height="3.6" transform="translate(0 .2) rotate(0)"/><rect class="cls-2" x="103.9" y="34.8" width="1.3" height="3.6" transform="translate(0 .1) rotate(0)"/><path class="cls-2" d="M110.6,38.7v4.9s2.2,0,2.2,0c.7,0,1.3-.4,1.3-.9v-4s-3.4,0-3.4,0Z"/><path class="cls-2" d="M114,34.4v-4.1c0-.5-.6-.9-1.3-.9h-2.1s0,5,0,5h3.4Z"/><polygon class="cls-2" points="105.4 33.8 112.5 33.8 112.5 39.3 105.4 39.3 105.4 33.8"/><path class="cls-5" d="M105.2,33.5h7.4s0,6,0,6h-7.4s0-6,0-6ZM112.3,33.9h-6.8s0,5.4,0,5.4h6.8s0-5.4,0-5.4Z"/></g></g><path class="cls-1" d="M123.5,90.4l2.2,6.2c1.2,2.5,3.1,4.6,5.3,5.9l5.7,2.5-5.7,2.5c-2.2,1.4-4.1,3.4-5.3,5.9l-2.2,6.2-2.2-6.2c-1.2-2.5-3.1-4.6-5.3-5.9l-5.7-2.5,5.7-2.5c2.2-1.4,4.1-3.4,5.3-5.9l2.2-6.2Z"/><path class="cls-1" d="M132.9,114.2l1.1,2.9c.6,1.2,1.4,2.2,2.5,2.8l2.7,1.2-2.7,1.2c-1.1.6-1.9,1.6-2.5,2.8l-1.1,2.9-1.1-2.9c-.6-1.2-1.4-2.2-2.5-2.8l-2.7-1.2,2.7-1.2c1.1-.6,1.9-1.6,2.5-2.8l1.1-2.9Z"/><path class="cls-3" d="M75.4,92.6l13.3-15.9c1.7-2,1.7-4.9.2-7-2.1-2.8-6.2-3-8.6-.4-4.9,5.3-12.4,13.3-15.4,16.5"/></g></g></g></svg>