<svg viewBox="0 0 160 160" fill="none" xmlns="http://www.w3.org/2000/svg"><path d="M40.32 144H60.51L84.08 128.41L86.5 100.06L84.49 97.1504L35.58 136.23C36.38 139.41 38.09 142.05 40.32 144Z" fill="#FFA28F"/><path d="M16.23 66.9396L20.54 47.9295L30.12 55.0695L30.77 49.2195C30.82 47.7695 32.04 46.6395 33.48 46.6995C34.92 46.7495 36.05 47.9695 36 49.4195L34.75 63.3095L35.14 80.2395L30.77 86.2895L20.55 75.5895L16.24 66.9495" fill="#FFA28F"/><path fill-rule="evenodd" clip-rule="evenodd" d="M136.98 41.0799C138.69 31.8099 132.57 22.8999 123.32 21.1899C114.45 19.5499 103.83 17.5899 96.18 16.1699C93.45 15.6699 90.64 16.2699 88.36 17.8499C86.08 19.4299 84.51 21.8499 84.01 24.5799C83.43 27.7299 84.12 30.9799 85.94 33.6199C87.75 36.2599 90.54 38.0699 93.68 38.6499C109.62 41.5999 136 46.4699 136 46.4699L136.99 41.0699L136.98 41.0799Z" fill="#420F0F"/><path d="M102.11 97.7398C102.3 95.9898 92.59 93.7098 92.59 93.7098C87.34 101.3 75.7 123.86 74.55 133.02L73.3 144H132.48L131.99 107.47C130.56 96.5598 120.82 88.8898 110.13 89.7998C107.19 90.0498 101.86 99.5798 102.11 96.6298C102.11 96.5498 102.11 97.8198 102.11 97.7398Z" fill="#4B7CFE"/><path d="M114.48 144L111.11 126.13L130.31 115.29L138 109.26L139.45 144H114.48Z" fill="#FFC4B8"/><path d="M105.01 105.31C104.99 105.14 104.96 104.98 104.95 104.81C104.34 95.7701 111.15 87.9501 120.16 87.3301C129.01 86.7301 136.67 93.2901 137.54 102.08H137.56L141.94 133.52L108.16 133.49L105 105.31H105.02H105.01Z" fill="#4B7CFE"/><path d="M79.42 109.2C79.4 109.03 79.37 108.87 79.36 108.7C78.75 99.6597 85.56 91.8397 94.57 91.2197C103.42 90.6197 111.08 97.1797 111.95 105.97H111.97L116.35 113.65L82.57 113.62L79.41 109.2H79.43H79.42Z" fill="#4B7CFE"/><path fill-rule="evenodd" clip-rule="evenodd" d="M135.38 37.2797L89.08 28.7197C89.08 28.7197 82.81 62.8397 81.37 70.6497C80.51 75.2997 83.58 79.7697 88.23 80.6297C101.58 83.0997 126.12 87.6297 126.12 87.6297L131.02 60.9697L135.38 37.2797Z" fill="#FFC4B8"/><path fill-rule="evenodd" clip-rule="evenodd" d="M87.59 62.0696L90.89 44.8896C90.89 44.8896 84.26 50.4596 80.12 53.9396C79.4 54.5496 79.03 55.4696 79.14 56.4096C79.25 57.3496 79.82 58.1596 80.66 58.5896C83.74 60.1396 87.58 62.0696 87.58 62.0696H87.59Z" fill="#FFC4B8"/><path d="M30.11 55.0597L20.54 47.9297L16.23 66.9397L20.54 75.5797" fill="#FFC4B8"/><path d="M88.38 42.7295C88.25 43.1295 88.31 43.5595 88.52 43.9195C88.74 44.2795 89.09 44.5295 89.51 44.5995L98.61 46.2795L93.66 42.2395C91.06 40.7395 88.95 40.9395 88.39 42.7195L88.38 42.7295Z" fill="#420F0F"/><path d="M82.54 64.2995C82.68 63.5495 83.4 63.0495 84.15 63.1895L90.78 64.4095C90.78 64.1995 86.67 68.5495 82.17 68.1195C82.08 68.1195 81.99 68.0995 81.89 68.0895C81.81 68.0795 82.54 64.2995 82.54 64.2995Z" fill="#FF6200"/><path d="M84.03 96.1104L67.46 110.08L76.76 126.61L94.48 125.31L84.03 96.1104Z" fill="#4B7CFE"/><path d="M22.08 76.3799L34.9 77.9099L52.8 124.67L35.58 136.23L22.08 76.3799Z" fill="#FFA28F"/><path d="M21.41 78.1201C22.29 78.3301 23.18 77.7801 23.39 76.8901L32.54 38.1101C32.74 37.2501 32.21 36.4001 31.36 36.2001L30.19 35.9201C29.34 35.7201 28.48 36.2501 28.28 37.1101L19.13 75.8901C18.92 76.7801 19.47 77.6701 20.36 77.8801L21.41 78.1301V78.1201Z" fill="#232144"/><path d="M20.17 46.5297L20.15 46.5597C19.33 47.7897 19.66 49.4397 20.88 50.2597L27.8 54.8997C29.02 55.7197 30.68 55.3897 31.49 54.1697L31.51 54.1397C32.33 52.9097 32 51.2597 30.78 50.4397L23.86 45.7997C22.64 44.9797 20.98 45.3097 20.17 46.5297Z" fill="#FFC4B8"/><path d="M19.08 52.5698L19.06 52.5998C18.24 53.8298 18.57 55.4798 19.79 56.2998L26.71 60.9398C27.93 61.7598 29.59 61.4298 30.4 60.2098L30.42 60.1798C31.24 58.9498 30.91 57.2998 29.69 56.4798L22.77 51.8398C21.55 51.0198 19.89 51.3498 19.08 52.5698Z" fill="#FFC4B8"/><path d="M17.58 58.5003L17.56 58.5303C16.7 59.8203 17.04 61.5703 18.33 62.4303L25.63 67.3203C26.92 68.1803 28.66 67.8403 29.52 66.5503L29.54 66.5203C30.4 65.2303 30.06 63.4803 28.77 62.6203L21.47 57.7303C20.18 56.8703 18.44 57.2103 17.58 58.5003Z" fill="#FFC4B8"/><path d="M17.2 68.4997L24.11 73.1297C25.35 73.9597 27.02 73.6297 27.85 72.3797C28.67 71.1497 28.35 69.4897 27.13 68.6497L20.27 63.9497C19.01 63.0797 17.28 63.4497 16.47 64.7497L16.42 64.8197C15.65 66.0597 16 67.6897 17.21 68.4997H17.2Z" fill="#FFC4B8"/><path d="M34.02 40.9002L38.34 35.9102L37.14 42.4102L43.73 42.6702L37.9 45.7802L41.8 51.1102L35.75 48.4902L34.02 54.8702L32.3 48.4902L26.24 51.1102L30.14 45.7802L24.32 42.6702L30.91 42.4102L29.71 35.9102L34.02 40.9002Z" fill="#F7E5CD"/><path d="M105.54 102H116.43C122.35 102 127.16 97.1898 127.16 91.2498V67.5498H94.81V91.2498C94.81 97.1898 99.61 102 105.54 102Z" fill="#FFC4B8"/><path fill-rule="evenodd" clip-rule="evenodd" d="M127.49 21.9204C118.62 20.2804 108 18.3204 100.35 16.9004C97.62 16.4004 94.81 17.0004 92.53 18.5804C90.25 20.1604 88.68 22.5804 88.18 25.3104C87.6 28.4604 88.29 31.7104 90.11 34.3504C91.92 36.9904 94.71 38.8004 97.85 39.3804C101.43 40.0404 105.54 40.8004 109.75 41.5804L101.31 87.4904C99.06 99.7104 107.12 111.44 119.32 113.7L141.42 115.23V39.6904C141.92 31.2104 136.06 23.5004 127.52 21.9204H127.49Z" fill="#420F0F"/><path d="M119.93 60.3C119.3 63.73 116.02 65.99 112.6 65.36C112.56 65.36 114.84 52.95 114.88 52.96C118.3 53.59 120.56 56.88 119.93 60.31" fill="#FFC4B8"/><path d="M90.12 48.1201C90.8 48.7101 91.15 49.8001 90.93 50.9601C90.76 51.9101 90.24 52.6801 89.61 53.1001C91.08 53.2001 93.48 52.8101 95.86 50.1001C95.86 50.1001 92.94 48.6101 90.12 48.1201Z" fill="white"/><path d="M90.93 50.96C91.14 49.8 90.79 48.7 90.12 48.12C89.67 48.04 89.23 47.98 88.8 47.96C88.8 47.96 87.15 49.92 88.16 52.8C88.16 52.8 88.72 53.04 89.61 53.09C90.25 52.67 90.76 51.9 90.93 50.95V50.96Z" fill="black"/><path d="M88.07 47.8996L88.21 47.1696C88.21 47.1696 92.84 46.7496 96.91 49.3496L95.53 50.5496C95.53 50.5496 92.54 48.5896 88.07 47.9096" fill="black"/><path d="M97.2993 52.4091L87.1216 50.5283L86.3365 54.7764L96.5142 56.6572L97.2993 52.4091Z" fill="#FFC4B8"/></svg>