<svg viewBox="0 0 160 160" fill="none" xmlns="http://www.w3.org/2000/svg"><path fill-rule="evenodd" clip-rule="evenodd" d="M109.418 54.2665V49.8571C109.418 48.279 110.707 47 112.296 47H115.769C117.359 47 118.647 48.279 118.647 49.8571V54.2665H109.418Z" fill="#232144"/><path fill-rule="evenodd" clip-rule="evenodd" d="M123.019 54.2665V49.8571C123.019 48.279 124.308 47 125.897 47H129.37C130.96 47 132.248 48.279 132.248 49.8571V54.2665H123.019Z" fill="#232144"/><path fill-rule="evenodd" clip-rule="evenodd" d="M136.49 50.3984H23.51C19.362 50.3984 16 53.7346 16 57.8508V101.752C16 105.867 19.362 109.205 23.51 109.205H28.669V113.558H48.47V109.205H111.027V114H130.829V109.205H136.49C140.637 109.205 144 105.867 144 101.752V57.8508C144 53.7346 140.637 50.3984 136.49 50.3984Z" fill="#FF6200"/><path fill-rule="evenodd" clip-rule="evenodd" d="M137.129 104.794H22.8695C21.2975 104.794 20.0225 103.527 20.0225 101.965V57.6398C20.0225 56.0766 21.2975 54.8105 22.8695 54.8105H137.129C138.701 54.8105 139.976 56.0766 139.976 57.6398V101.965C139.976 103.527 138.701 104.794 137.129 104.794Z" fill="#F7E5CD"/><path fill-rule="evenodd" clip-rule="evenodd" d="M36.5248 61.4863V65.8242H41.8678V98.1192H46.2398V61.4863H36.5248Z" fill="#232144"/><path fill-rule="evenodd" clip-rule="evenodd" d="M52.5547 61.4863V65.8242H57.8977V98.1192H62.2697V61.4863H52.5547Z" fill="#232144"/><path fill-rule="evenodd" clip-rule="evenodd" d="M87.0428 93.7813H95.3008V65.8242H87.0428V93.7813ZM82.6718 98.1192H99.6728V61.4863H82.6718V98.1192Z" fill="#232144"/><path fill-rule="evenodd" clip-rule="evenodd" d="M110.845 93.7813H119.103V65.8242H110.845V93.7813ZM106.474 98.1192H123.475V61.4863H106.474V98.1192Z" fill="#232144"/><path fill-rule="evenodd" clip-rule="evenodd" d="M69.6748 81.0112H75.2658V75.4629H69.6748V81.0112Z" fill="#232144"/><path fill-rule="evenodd" clip-rule="evenodd" d="M69.6748 98.1186H75.2658V92.5703H69.6748V98.1186Z" fill="#232144"/></svg>