<?xml version="1.0" encoding="UTF-8"?><svg id="Ebene_1" xmlns="http://www.w3.org/2000/svg" viewBox="0 0 160 160"><defs><style>.cls-1,.cls-2,.cls-3,.cls-4,.cls-5,.cls-6,.cls-7{stroke-width:0px;}.cls-2{fill:#f5836d;}.cls-3{fill:#8b181d;}.cls-4{fill:#7070ff;}.cls-5{fill:#ffa28f;}.cls-6{fill:#fff;}.cls-7{fill:#ffe798;}</style></defs><polygon class="cls-5" points="135.9 144 131.2 90.1 109.7 94.2 118.1 144 135.9 144"/><polygon class="cls-5" points="33.4 90.7 26.8 144 44.7 144 56.9 94.6 33.4 90.7"/><path class="cls-4" d="m50.6,110.4v33.6h63v-33.6c6.1-4.3,18-11.6,18.4-16.9.7-9.4-6.1-17.7-15.2-18.4H47.4c-9.1.7-15.9,8.9-15.2,18.4.4,5.5,12.1,12.6,18.4,16.9Z"/><path class="cls-2" d="m94,75.4v-18.6l-25.5-.1v18.7c0,7.5,5.7,13.6,12.8,13.6h0c7,0,12.7-6.1,12.7-13.6Z"/><path class="cls-5" d="m62.7,53.7v-18.1c0-10.1,8.2-18.3,18.3-18.3h.3c10.1,0,18.3,8.2,18.3,18.3v18.2c0,10.1-8.2,18.3-18.3,18.3h-.3c-10.1-.1-18.3-8.3-18.3-18.4Z"/><path class="cls-3" d="m70.2,38.6h-.2c-2.2.5-4.1,1.8-5.1,3.5h0l11.4-2.8h0c-1.6-1-3.9-1.2-6.1-.7h0Z"/><path class="cls-3" d="m90.5,39.2h.2c2.3,0,4.4.8,5.8,2.2h-11.8c1.4-1.4,3.5-2.2,5.8-2.2h0Z"/><path class="cls-6" d="m75.3,48.5c.8-.1,1.1-1,.7-1.7-.7-.9-1.8-2-3.2-2.6-1.6-.6-3.3-.3-4.4.1-.7.2-1,1.1-.5,1.6.6.8,1.6,1.7,3,2.2,1.5.6,3.2.6,4.4.4Z"/><circle class="cls-1" cx="71.9" cy="46.15" r="2.2"/><path class="cls-1" d="m76.2,47.3c-1.5-3.6-5.3-4.4-8.7-2.9.2.4.1.1.3.5.5-.3,2.5-.9,4.6-.3,2.4.5,3.5,2.4,3.8,2.7Z"/><path class="cls-6" d="m87.6,48.5c-.8-.1-1.1-1-.7-1.7.7-.9,1.8-2,3.2-2.6,1.6-.6,3.3-.3,4.4.1.7.2,1,1.1.5,1.6-.6.8-1.6,1.7-3,2.2-1.5.6-3.2.6-4.4.4Z"/><circle class="cls-1" cx="90.99" cy="46.15" r="2.2"/><path class="cls-1" d="m86.7,47.3c1.5-3.6,5.3-4.4,8.7-2.9-.2.4-.1.1-.3.5-.5-.3-2.5-.9-4.6-.3-2.4.5-3.5,2.4-3.8,2.7Z"/><path class="cls-1" d="m81.2,54.1c-.6,0-1.1-.3-1.6-.7-.7-.5-1.2-.8-2,.2l-.6-.7c1.3-1.5,2.3-.8,3-.3.4.3.7.5,1.2.5.4,0,.8-.2,1.1-.5.7-.5,1.6-1.1,3.1.3l-.5.7c-1-1-1.5-.7-2.2-.2-.4.3-.9.7-1.5.7Z"/><path class="cls-3" d="m86.2,16h-10c-8.9,0-16.1,7.2-16.1,16.2v12.3h2.9v-2.9c0-3.9,3.9-6.1,8.1-7.4,5.4-1.6,9.1-6.5,9.1-12.2h2.2c0,5.6,3.7,10.6,9.1,12.2,4.1,1.2,8.1,3.4,8.1,7.4v2.9h2.9v-12.3c-.1-9-7.4-16.2-16.3-16.2Z"/><path class="cls-1" d="m79.4,62.3h0c-2.7-.7-4.4-3-4.5-3.1l.7-.5s1.7,2.2,4,2.8h0c2.4.6,4.4-.7,4.4-.7l.5.7c-.1.1-2.3,1.5-5.1.8Z"/><path class="cls-3" d="m110.3,67.8h0c-4,0-7.3-3.3-7.3-7.3V23.1h0c4,0,7.3,3.3,7.3,7.3v37.4Z"/><circle class="cls-3" cx="103.1" cy="26.7" r="3.6"/><path class="cls-3" d="m52,68.8h0c4,0,7.3-3.3,7.3-7.3V23.1h0c-4,0-7.3,3.3-7.3,7.3v38.4Z"/><circle class="cls-3" cx="59.2" cy="26.7" r="3.6"/><circle class="cls-5" cx="100.4" cy="49.4" r="5.6"/><circle class="cls-5" cx="62.1" cy="49.4" r="5.6"/><rect class="cls-3" x="60.1" y="42.9" width="2.9" height="6.6"/><rect class="cls-3" x="99.5" y="42.9" width="2.9" height="6.6"/><path class="cls-7" d="m72.62,34.58c-.38,0-.88-.11-1.52-.45-.9-.47-1.87-1.28-2.74-2.27-1.72-1.95-2.85-4.46-1.7-5.47h0c1.15-1.01,3.49.44,5.21,2.39.87.99,1.54,2.06,1.9,3.01.56,1.5.12,2.19-.2,2.46-.17.15-.47.33-.95.33Zm-5.26-7.39h0c-.34.29.09,2.02,1.8,3.97.79.9,1.65,1.62,2.44,2.03.67.35,1.13.39,1.26.27.14-.12.16-.57-.1-1.29-.31-.83-.91-1.78-1.7-2.68-1.71-1.94-3.37-2.59-3.7-2.29Z"/><circle class="cls-7" cx="61.4" cy="52.6" r="1.2"/><circle class="cls-7" cx="101.6" cy="52.6" r="1.2"/></svg>