<svg viewBox="0 0 160 160" fill="none" xmlns="http://www.w3.org/2000/svg"><path fill-rule="evenodd" clip-rule="evenodd" d="M35.9696 91.7309H31.1136V76.0599C31.1136 25.2869 54.7588 18.4409 77.8892 18.4409H81.163C105.673 18.4409 128.353 25.6989 128.353 78.3499V91.2589H123.497V78.3499C123.497 27.5699 102.584 23.3209 81.163 23.3209H77.8892C43.0988 23.3209 35.9696 44.4039 35.9696 76.0599V91.7309Z" fill="#232144"/><path fill-rule="evenodd" clip-rule="evenodd" d="M120.062 58.559C116.752 39.554 100.393 25.761 81.1626 25.761H77.8887C58.6706 25.761 42.3113 39.547 38.9946 58.54L29.4304 56.853C33.5661 33.182 53.9454 16 77.8887 16H81.1626C105.121 16 125.503 33.192 129.626 56.877L120.062 58.559Z" fill="#ED1E79"/><path fill-rule="evenodd" clip-rule="evenodd" d="M100.787 139.234V135.574C110.861 135.574 122.126 127.445 122.126 116.564H125.768C125.768 129.54 112.579 139.234 100.787 139.234Z" fill="#232144"/><path fill-rule="evenodd" clip-rule="evenodd" d="M46.0027 117.36H31.1557C27.7561 117.36 25 114.597 25 111.189V79.9805C25 76.5725 27.7561 73.8105 31.1557 73.8105H46.0027V117.36Z" fill="#ED1E79"/><path fill-rule="evenodd" clip-rule="evenodd" d="M44.0234 120.421H52.635V70.749H44.0234V120.421Z" fill="#9D2136"/><path fill-rule="evenodd" clip-rule="evenodd" d="M112.997 117.36H127.844C131.244 117.36 134 114.597 134 111.189V79.9805C134 76.5725 131.244 73.8105 127.844 73.8105H112.997V117.36Z" fill="#ED1E79"/><path fill-rule="evenodd" clip-rule="evenodd" d="M106.808 120.421H115.42V70.749H106.808V120.421Z" fill="#9D2136"/><path fill-rule="evenodd" clip-rule="evenodd" d="M104.894 137.136C104.894 140.927 101.837 144 98.0654 144C94.2938 144 91.2365 140.927 91.2365 137.136C91.2365 133.345 94.2938 130.272 98.0654 130.272C101.837 130.272 104.894 133.345 104.894 137.136Z" fill="#BA251D"/></svg>