<svg viewBox="0 0 160 160" fill="none" xmlns="http://www.w3.org/2000/svg"><path d="M35.461 16.1812L35.4511 16.183C29.3159 17.2957 25.2444 23.1713 26.3571 29.3065L44.0371 126.786C45.1498 132.921 51.0254 136.993 57.1606 135.88L57.1705 135.878C63.3057 134.766 67.3772 128.89 66.2644 122.755L48.5845 25.2751C47.4718 19.1399 41.5962 15.0684 35.461 16.1812Z" fill="#FAAD70"/><path d="M37.53 28.2197C37.53 28.2197 39.83 72.8797 55.42 127.08C55.42 127.08 49.85 69.3397 37.53 28.2197Z" fill="#F7E5CD"/><path d="M76.2 32.3901H74.6V52.2801H76.2V32.3901Z" fill="#006931"/><path d="M81.5461 35.7532L80.0273 35.2192L73.4304 53.9834L74.9493 54.5174L81.5461 35.7532Z" fill="#006931"/><path d="M75.8536 54.5101L77.3725 53.9761L70.7757 35.2119L69.2568 35.7459L75.8536 54.5101Z" fill="#006931"/><path d="M75.4 110.97C74.2 110.97 73.2 110.04 73.12 108.84L69.28 52.99C69.1 50.44 71.12 48.27 73.68 48.27H77.14C79.69 48.27 81.71 50.44 81.54 52.99L77.7 108.84C77.62 110.04 76.62 110.97 75.42 110.97H75.4Z" fill="#F26625"/><path d="M88.34 51.48H86.74V71.37H88.34V51.48Z" fill="#006931"/><path d="M93.6874 54.8392L92.1686 54.3052L85.5717 73.0693L87.0906 73.6033L93.6874 54.8392Z" fill="#006931"/><path d="M87.9893 73.597L89.5081 73.063L82.9113 54.2988L81.3924 54.8328L87.9893 73.597Z" fill="#006931"/><path d="M87.54 129.22C86.34 129.22 85.34 128.29 85.26 127.09L81.42 71.24C81.24 68.69 83.26 66.52 85.82 66.52H89.28C91.83 66.52 93.85 68.69 93.68 71.24L89.84 127.09C89.76 128.29 88.76 129.22 87.56 129.22H87.54Z" fill="#F26625"/><path d="M63.92 42.8403H62.32V62.7303H63.92V42.8403Z" fill="#006931"/><path d="M69.2592 46.1858L67.7403 45.6519L61.1434 64.416L62.6623 64.95L69.2592 46.1858Z" fill="#006931"/><path d="M63.5659 64.9681L65.0848 64.4341L58.4879 45.6699L56.9691 46.2039L63.5659 64.9681Z" fill="#006931"/><path d="M63.12 122.25C61.92 122.25 60.92 121.32 60.84 120.12L57 64.2703C56.82 61.7203 58.84 59.5503 61.4 59.5503H64.86C67.41 59.5503 69.43 61.7203 69.26 64.2703L65.42 120.12C65.34 121.32 64.34 122.25 63.14 122.25H63.12Z" fill="#F26625"/><path d="M97 23.9399H92.37V104.38H97V23.9399Z" fill="#BAC09A"/><path d="M97 23.9399H92.37V59.4599H97V23.9399Z" fill="#006931"/><path d="M101.63 28.3398H97V108.78H101.63V28.3398Z" fill="#BAC09A"/><path d="M106.26 26.1699H101.63V106.61H106.26V26.1699Z" fill="#BAC09A"/><path d="M101.79 28.3198H96.88V63.8698H101.79V28.3198Z" fill="#006931"/><path d="M106.26 26.1699H101.63V61.6899H106.26V26.1699Z" fill="#006931"/><path d="M124.24 51.7897V41.6997H107.33V51.7897C107.33 54.4897 106.12 57.0497 104.03 58.7597C101.94 60.4697 100.73 63.0297 100.73 65.7297V110.37H130.84V65.7297C130.84 63.0297 129.63 60.4697 127.54 58.7597C125.45 57.0497 124.24 54.4897 124.24 51.7897Z" fill="#D3E8F3"/><path d="M108.28 38.6099H123.29C124.39 38.6099 125.27 39.4999 125.27 40.5899V43.1599H106.3V40.5899C106.3 39.4899 107.19 38.6099 108.28 38.6099Z" fill="#232144"/><path d="M130.84 67.6299H100.73V110.36H130.84V67.6299Z" fill="#F7E5CD"/><path d="M131.36 85.25H32.62V144H131.36V85.25Z" fill="#D0A349"/><path d="M48.2 55.71V108.14H56.71V64.23H107.27V108.14H115.78V55.71H48.2Z" fill="#D0A349"/></svg>