<?xml version="1.0" encoding="utf-8"?><!--Generator: Adobe Illustrator 27.8.0, SVG Export Plug-In . SVG Version: 6.00 Build 0)--><svg version="1.1" xmlns="http://www.w3.org/2000/svg" xmlns:xlink="http://www.w3.org/1999/xlink" x="0px" y="0px" viewBox="0 0 160 160" style="enable-background:new 0 0 160 160;" xml:space="preserve"><style type="text/css">.st0{fill:#FFC6AD;}
	.st1{fill:#F7931E;}
	.st2{fill:#8B181D;}
	.st3{fill:#F5836D;}
	.st4{fill:#FFA28F;}
	.st5{fill:#ABB8B9;}
	.st6{fill:#FBB03B;}
	.st7{fill:#F7E5CD;}
	.st8{fill:#BAC09A;}
	.st9{fill:#463EC5;}
	.st10{fill:#693725;}
	.st11{fill:#FAA332;}
	.st12{fill:#E73245;}
	.st13{fill:#8F411F;}
	.st14{fill:#F68D3D;}
	.st15{fill:#569B7B;}
	.st16{fill:#FFFFFF;}
	.st17{fill:#AACDE5;}
	.st18{fill:#232144;}
	.st19{fill:#A86554;}
	.st20{fill:#FFBD7A;}
	.st21{fill:#E6E3DA;}
	.st22{fill:#4B7CFE;}
	.st23{fill:#D8CBC5;}
	.st24{fill:#FF6200;}
	.st25{fill:#F0A86B;}
	.st26{fill:#E3944F;}
	.st27{fill:#191C15;}
	.st28{fill:#420F0F;}
	.st29{fill:#7D441C;}
	.st30{fill:none;stroke:#000000;stroke-width:0.6944;stroke-miterlimit:10;}
	.st31{fill:#01464D;}
	.st32{fill:#7A2F37;}
	.st33{fill:#9E3F39;}
	.st34{fill:none;stroke:#ABB8B9;stroke-width:3;stroke-miterlimit:10;}
	.st35{fill:#891229;}
	.st36{fill:#7070FF;}
	.st37{fill:#32785A;}
	.st38{fill:#D3E8F3;}
	.st39{fill:#006931;}
	.st40{clip-path:url(#SVGID_00000009581452983134457320000012609029098626067362_);}
	.st41{fill:#9A4039;}
	.st42{fill:none;stroke:#232144;stroke-width:2;stroke-miterlimit:10;}
	.st43{fill:#F5B091;}
	.st44{fill:none;stroke:#000000;stroke-width:1.3429;stroke-miterlimit:10;}
	.st45{fill:#D93B34;}
	.st46{fill:#FE5E57;}
	.st47{clip-path:url(#XMLID_00000177466206265262816670000009792090677376015523_);fill:#F7931E;}
	.st48{fill:#763427;}</style><g id="stramien"/><g id="Design"><path class="st11" d="M19,29.9c0.8-1,0.9-2.3,0.3-3.5c-0.7-1.2-2-1.8-3.3-1.6l-0.1-0.2l15.3-8.3c0.6-0.3,1.3-0.1,1.7,0.4l66.2,79.8
		l-34.9,19.2l-4-7.3c1.5-0.8,2.1-2.8,1.3-4.3c-0.6-1.2-1.9-1.8-3.1-1.6c-0.2,0-0.4-0.2-0.2-0.4c0.8-1,0.9-2.3,0.3-3.5
		c-0.6-1.2-1.9-1.8-3.1-1.6c-0.2,0-0.4-0.2-0.2-0.4c0.8-1,0.9-2.3,0.3-3.5c-0.6-1.2-1.9-1.8-3.1-1.6c-0.2,0-0.4-0.2-0.2-0.4
		c0.8-1,0.9-2.3,0.3-3.5c-0.6-1.2-1.9-1.8-3.1-1.6c-0.2,0-0.4-0.2-0.2-0.4c0.8-1,0.9-2.3,0.3-3.5c-0.6-1.2-1.9-1.8-3.1-1.6
		c-0.2,0-0.4-0.2-0.2-0.4c0.8-1,0.9-2.3,0.3-3.5c-0.6-1.2-1.9-1.8-3.1-1.6c-0.2,0-0.4-0.2-0.2-0.4c0.8-1,0.9-2.3,0.3-3.5
		c-0.6-1.2-1.9-1.8-3.1-1.6c-0.2,0-0.4-0.2-0.2-0.4c0.8-1,0.9-2.3,0.3-3.5c-0.6-1.2-1.9-1.8-3.1-1.6c-0.2,0-0.4-0.2-0.2-0.4
		c0.8-1,0.9-2.3,0.3-3.5c-0.6-1.2-1.9-1.8-3.1-1.6c-0.2,0-0.4-0.2-0.2-0.4c0.8-1,0.9-2.3,0.3-3.5c-0.6-1.2-1.9-1.8-3.1-1.6
		c-0.2,0-0.4-0.2-0.2-0.4c0.8-1,0.9-2.3,0.3-3.5c-0.6-1.2-1.9-1.8-3.1-1.6c-0.2,0-0.4-0.2-0.2-0.4c0.8-1,0.9-2.3,0.3-3.5
		c-0.6-1.2-1.9-1.8-3.1-1.6c-0.2,0-0.4-0.2-0.2-0.4c0.8-1,0.9-2.3,0.3-3.5c-0.6-1.2-1.9-1.8-3.1-1.6c-0.2,0-0.4-0.2-0.2-0.4
		c0.8-1,0.9-2.3,0.3-3.5c-0.6-1.2-1.9-1.8-3.1-1.6C18.9,30.4,18.8,30.1,19,29.9z"/><path class="st12" d="M140.1,67.2H20c-2.1,0-3.7-1.7-3.7-3.7v0c0-2.1,1.7-3.7,3.7-3.7h120.1c2.1,0,3.7,1.7,3.7,3.7v0
		C143.9,65.5,142.2,67.2,140.1,67.2z"/><path class="st13" d="M76.3,115.8l-4,3.4c-0.8,0.7-1.9,0.6-2.6-0.2L30.5,72.8l6.8-5.8l39.2,46.2C77.1,114,77,115.2,76.3,115.8z"/><g><path class="st5" d="M126.4,112.8l-5.9-3.6l8.7-14.1c1-1.6,0.5-3.7-1.1-4.7l-14.9-9.2l1.9-3l20.8,12.9c1.6,1,2.1,3.1,1.1,4.7
			L126.4,112.8z"/></g><g><polygon class="st5" points="107.1,75.1 99.7,43.4 93.6,39.7 95.2,37.1 102.3,41.5 110.1,74.4 		"/></g><circle class="st31" cx="110.2" cy="80.9" r="10.1"/><path class="st12" d="M100.3,113.7l-14.9-9.2c-2.3-1.5-3.1-4.5-1.6-6.9l12.1-19.5c1.5-2.3,4.5-3.1,6.9-1.6l14.9,9.2
		c2.3,1.5,3.1,4.5,1.6,6.9l-12.1,19.5C105.8,114.4,102.7,115.1,100.3,113.7z"/><path class="st35" d="M133.4,144.3H27.1c-3.9,0-7.1-3.2-7.1-7.1V96.1c0-3.9,3.2-7.1,7.1-7.1h106.4c3.9,0,7.1,3.2,7.1,7.1v41.1
		C140.5,141.1,137.4,144.3,133.4,144.3z"/><rect x="20" y="55.5" class="st35" width="8.3" height="68.6"/><rect x="132.2" y="55.5" class="st35" width="8.3" height="68.6"/><path class="st21" d="M58.1,63.7c-5,2.2-10.4,2.2-15.1,0.5L23.2,80.9c-0.9,0.7-1,2-0.2,2.8l6,7.1c0.7,0.9,2,1,2.8,0.2L62.6,65
		l-2.2-2.6C59.7,62.9,58.9,63.3,58.1,63.7z"/></g></svg>