<svg viewBox="0 0 160 160" fill="none" xmlns="http://www.w3.org/2000/svg"><path fill-rule="evenodd" clip-rule="evenodd" d="M119.105 86.461H108.46V52.814C108.46 38.378 96.6974 26.631 82.2377 26.631H75.7359C62.3924 26.631 51.5401 37.47 51.5401 50.795V86.461H40.8954V50.795C40.8954 31.609 56.5245 16 75.7359 16H82.2377C102.566 16 119.105 32.512 119.105 52.814V86.461Z" fill="#F7931E"/><path fill-rule="evenodd" clip-rule="evenodd" d="M127.041 144.001H32.9587C27.4589 144.001 23 139.555 23 134.071V78.8577C23 73.3737 27.4589 68.9277 32.9587 68.9277H127.041C132.541 68.9277 137 73.3737 137 78.8577V134.071C137 139.555 132.541 144.001 127.041 144.001Z" fill="#FBB03B"/><path fill-rule="evenodd" clip-rule="evenodd" d="M88.585 99.2023C88.585 94.4353 84.7409 90.5713 80.0002 90.5713C75.2586 90.5713 71.4155 94.4353 71.4155 99.2023C71.4155 101.883 72.631 104.278 74.5385 105.862V122.356H85.4791V105.847C87.3765 104.264 88.585 101.875 88.585 99.2023Z" fill="#232144"/></svg>