<?xml version="1.0" encoding="utf-8"?><!--Generator: Adobe Illustrator 27.8.0, SVG Export Plug-In . SVG Version: 6.00 Build 0)--><svg version="1.1" xmlns="http://www.w3.org/2000/svg" xmlns:xlink="http://www.w3.org/1999/xlink" x="0px" y="0px" viewBox="0 0 160 160" style="enable-background:new 0 0 160 160;" xml:space="preserve"><style type="text/css">.st0{fill:#7070FF;}
	.st1{fill:#FFC4B8;}
	.st2{fill:#F5836D;}
	.st3{fill:#693725;}
	.st4{fill:#420F0F;}
	.st5{fill:#9E3F39;}
	.st6{fill:#7A2F37;}
	.st7{fill:#463EC5;}
	.st8{fill:#D8CBC5;}
	.st9{fill:none;stroke:#171111;stroke-width:0.7438;stroke-miterlimit:10;}
	.st10{fill:#FFFFFF;}
	.st11{fill:#8F411F;}
	.st12{fill:#E3944F;}
	.st13{fill:#F0A86B;}
	.st14{fill:#006931;}
	.st15{fill:#BAC09A;}
	.st16{fill:#FF6200;}
	.st17{fill:#232144;}
	.st18{fill:#E2F3E8;}
	.st19{fill:#FBB03B;}
	.st20{fill:#FFD4D2;}
	.st21{fill:#F99F5B;}
	.st22{fill:#BF7461;}
	.st23{fill:#A86554;}
	.st24{fill:none;stroke:#000000;stroke-width:0.5209;stroke-miterlimit:10;}
	.st25{fill:#FCE3CA;}
	.st26{fill:#8B181D;}
	.st27{fill:#FFA28F;}
	.st28{fill:none;stroke:#000000;stroke-width:0.7341;stroke-miterlimit:10;}
	.st29{fill:#BA251D;}
	.st30{fill:#9F5621;}
	.st31{fill:#E6E3DA;}
	.st32{fill:#E6E6E6;}
	.st33{fill:#FFC6AD;}
	.st34{fill:#F5B091;}
	.st35{fill:none;stroke:#000000;stroke-width:0.4422;stroke-miterlimit:10;}
	.st36{fill:#8A1229;}
	.st37{clip-path:url(#SVGID_00000078749687390563673140000011577146266066167730_);}
	.st38{clip-path:url(#SVGID_00000118395011905897318730000007829420559397144507_);}
	.st39{clip-path:url(#SVGID_00000109723754427327080380000009984369699768017298_);fill:#FFFFFF;}
	.st40{fill:#5D2B1A;}
	.st41{clip-path:url(#SVGID_00000074422573770829169700000006719939502310682537_);fill:#FFFFFF;}
	.st42{fill:#C9E8D7;}
	.st43{fill:#763427;}
	.st44{fill:none;stroke:#A86554;stroke-width:1.2912;stroke-miterlimit:10;}
	.st45{fill:#891229;}
	.st46{clip-path:url(#SVGID_00000029729053405785102500000003336128440244990339_);}</style><g id="Design"><polygon class="st1" points="43.4,144 49.3,109.4 24.2,96.7 18.1,144 	"/><path class="st1" d="M141,144c0-0.8,0-1.6-0.2-2.4L134.6,91l-24.9,10l6.4,43H141z"/><path class="st16" d="M109.6,73.9c0,11.1-9,20.1-20.1,20.1s-20.1-9-20.1-20.1c0-11.1,9-20.1,20.1-20.1S109.6,62.8,109.6,73.9"/><polygon class="st17" points="114.8,144 117.8,80.6 42.4,80.6 44.6,144 	"/><polygon class="st17" points="116,144 119.1,80.5 41.1,80.5 43.4,144 	"/><path class="st0" d="M61.7,80.5v3c0,10.5,8.5,18.9,18.9,18.9s18.9-8.5,18.9-18.9v-3L61.7,80.5z"/><path class="st17" d="M138.5,101.4c0.8-10.7-7.8-20.1-18.9-20.9c-11.1-0.8-20.4,7.3-21.3,18c-0.8,10.7,12.7,27.2,12.7,27.2
		S137.7,112.2,138.5,101.4"/><path class="st17" d="M21.8,101.4C21,90.7,29.3,81.3,40.4,80.5c11.1-0.8,20.7,7.2,21.6,17.9c0.8,10.7-12.7,27.2-12.7,27.2
		S22.7,112.1,21.8,101.4"/><path class="st16" d="M84.6,30.1c0,7.7-6.2,13.9-13.9,13.9s-13.9-6.2-13.9-13.9c0-7.7,6.2-13.9,13.9-13.9S84.6,22.4,84.6,30.1"/><path class="st16" d="M103.2,30.1c0,7.7-6.2,13.9-13.9,13.9s-13.9-6.2-13.9-13.9c0-7.7,6.2-13.9,13.9-13.9S103.2,22.4,103.2,30.1"/><path class="st16" d="M81.7,45.8c0,7.7-6.2,13.9-13.9,13.9S54,53.4,54,45.8c0-7.7,6.2-13.9,13.9-13.9S81.7,38.1,81.7,45.8"/><path class="st16" d="M106.2,45.8c0,7.7-6.2,13.9-13.9,13.9s-13.9-6.2-13.9-13.9c0-7.7,6.2-13.9,13.9-13.9S106.2,38.1,106.2,45.8"/><path class="st1" d="M105.2,53.5c0,3.1-2.5,5.6-5.6,5.6c-3.1,0-5.6-2.5-5.6-5.6c0-3.1,2.5-5.6,5.6-5.6
		C102.7,47.9,105.2,50.4,105.2,53.5"/><path class="st1" d="M67.2,53.4c0,3.1-2.5,5.6-5.6,5.6c-3.1,0-5.6-2.5-5.6-5.6c0-3.1,2.5-5.6,5.6-5.6
		C64.7,47.8,67.2,50.3,67.2,53.4"/><path class="st17" d="M62.3,54.7h-5v15h10.1v-10C67.3,56.9,65.1,54.7,62.3,54.7"/><path class="st17" d="M98.9,57h5v15H93.9V62C93.9,59.3,96.2,57,98.9,57"/><path class="st27" d="M66.8,82.5V64.6l27.6,0v17.9c0,7.6-6.2,13.8-13.8,13.8S66.8,90.1,66.8,82.5"/><path class="st1" d="M62.3,62V36.2c0-8.2,6.6-14.8,14.8-14.8h7.1c8.2,0,14.8,6.6,14.8,14.8V62c0,8.2-6.6,14.8-14.8,14.8h-7.1
		C68.9,76.7,62.3,70.1,62.3,62"/><path class="st28" d="M75.8,59.3c0,0,1.2-1.6,2.5-0.4c0.5,0.4,1,0.8,1.6,0.9c0.5,0.1,1.1,0.1,1.6-0.2c0.2-0.1,0.4-0.3,0.6-0.5
		c0.3-0.3,1.4-1.3,2.9,0.1"/><path class="st29" d="M81.1,65.9c0-1.6-2.4-1.4-2.4-1.4h-5.4c0.1-0.3,7.7,11.6,15.7,0h-5.4C83.5,64.6,81.1,64.3,81.1,65.9"/><path class="st29" d="M89.6,41.9l0.2,0c2.4,0,4.6,1.2,6,3.2l-12.2-0.1C85,43.1,87.2,41.9,89.6,41.9"/><path class="st10" d="M84.8,52.5c0,0,1.3-2.9,3.9-3.8c2.6-0.9,5.4,0.5,5.4,0.5s-1,2.3-3.6,3.2C87.9,53.4,84.8,52.5,84.8,52.5"/><path d="M84.8,52.5c0.7-4.6,6.5-6.5,10-4.4c-0.2,0.3-0.6,1.1-0.9,1.4c-0.8-0.5-4.9-2.1-8.6,2.3C85.1,52.1,85.1,52.2,84.8,52.5"/><path class="st29" d="M70.5,41.9l-0.2,0c-2.4,0-4.6,1.2-6,3.2l12.2-0.1C75.1,43.1,72.8,41.9,70.5,41.9"/><path class="st16" d="M62.5,52.9v-7.6c0-8.2,6.5-14.8,14.6-14.8h2.4v-4.6h2.2v4.6h2.4c8.1,0,14.6,6.6,14.6,14.8v7.6h2.9V36.1
		c0-8.8-7.2-16-16-16h-9.9c-8.8,0-16,7.2-16,16v16.8H62.5z"/><path d="M90.5,52.5c0.4-0.1,0.8-0.3,1.1-0.6c-0.1-1.1-1-2-2.2-2c-1.2,0-2.2,1-2.2,2.2c0,0.3,0.1,0.5,0.1,0.7
		C88.3,52.9,89.4,52.9,90.5,52.5z"/><path class="st10" d="M75.8,52.5c0,0-1.3-2.9-3.9-3.8c-2.6-0.9-5.4,0.5-5.4,0.5s1,2.3,3.6,3.2C72.7,53.3,75.8,52.5,75.8,52.5"/><path d="M70.8,49.7c-1.1,0-2.1,0.8-2.2,1.9c0.4,0.3,0.9,0.6,1.5,0.8c0.9,0.3,1.9,0.4,2.7,0.4c0.1-0.3,0.2-0.6,0.2-0.9
		C73,50.7,72,49.7,70.8,49.7z"/><path d="M75.8,52.5c-0.7-4.6-6.5-6.5-10-4.4c0.2,0.3,0.6,1.1,0.9,1.4c0.8-0.5,4.9-2.1,8.6,2.3C75.5,52.1,75.5,52.2,75.8,52.5"/><rect x="65.5" y="52.6" class="st1" width="29" height="3"/></g><g id="stramien"/></svg>