<?xml version="1.0" encoding="UTF-8"?><svg id="Design" xmlns="http://www.w3.org/2000/svg" viewBox="0 0 160 160"><defs><style>.cls-1 {
        fill: #7070ff;
      }

      .cls-1, .cls-2, .cls-3 {
        stroke-width: 0px;
      }

      .cls-2 {
        fill: #232144;
      }

      .cls-3 {
        fill: #c3d1e5;
      }</style></defs><g><circle class="cls-2" cx="126.31" cy="105.31" r="15.89"/><circle class="cls-3" cx="126.31" cy="105.31" r="10.75"/></g><path class="cls-1" d="m121.11,84.46c1.73-.54,3.57-.83,5.48-.83,8.06,0,14.91,5.17,17.41,12.37h-20.08s-7.24,10.64-7.24,10.64c-1.65,2.46-2.96,3.55-7.31,3.55h-2.8c6.99-20.37,14.54-25.74,14.54-25.74"/><path class="cls-1" d="m126.59,83.63c-.47,0-.93.02-1.38.05-.25,1.65-.86,3.25-1.84,4.69l-15.59,21.82h1.59c4.35,0,5.66-1.09,7.31-3.55l7.24-10.64h20.08c-2.51-7.21-9.36-12.38-17.41-12.38Z"/><path class="cls-2" d="m123.55,75.8l-15.84-25.71-9.57-.86,8.66,24.16c2.39,7.49,1.53,10.21-1.33,14.51l-11.78,13.97h-19.41v-25.32H30.23c-15.35,9.2-14.12,33.64-14.12,33.64h91.67l15.59-21.82c2.56-3.78,2.63-8.72.18-12.57Z"/><path class="cls-1" d="m114.03,53.33c-11.04,0-19.98-3.25-19.98-7.26s8.95-7.26,19.98-7.26"/><path class="cls-3" d="m114.03,38.81h.86c.81,0,1.47.66,1.47,1.47v11.6c0,.81-.66,1.47-1.47,1.47h-.86v-14.53h0Z"/><path class="cls-2" d="m99.54,47.64h-11.48c-.87,0-1.57-.7-1.57-1.57s.7-1.57,1.57-1.57h11.48c.87,0,1.57.7,1.57,1.57s-.7,1.57-1.57,1.57Z"/><path class="cls-1" d="m33.47,67.94h37.56c1.8,0,3.27,1.46,3.27,3.27v5.35H30.2v-5.35c0-1.8,1.46-3.27,3.27-3.27Z"/><g><circle class="cls-2" cx="45.12" cy="105.45" r="15.74"/><circle class="cls-3" cx="45.12" cy="105.45" r="9.76"/></g><path class="cls-1" d="m24.56,110.27c0-11.36,9.21-20.56,20.56-20.56s20.56,9.21,20.56,20.56"/><ellipse class="cls-3" cx="121.08" cy="81.59" rx="1.39" ry="3.23"/></svg>