<svg viewBox="0 0 160 160" fill="none" xmlns="http://www.w3.org/2000/svg"><path fill-rule="evenodd" clip-rule="evenodd" d="M90.159 31H76.077L73.469 39.1277H76.077H90.159H92.767L90.159 31Z" fill="#F7931E"/><path fill-rule="evenodd" clip-rule="evenodd" d="M87.847 32.3345H78.389L76.637 37.793H78.389H87.847H89.599L87.847 32.3345Z" fill="#232144"/><path fill-rule="evenodd" clip-rule="evenodd" d="M126.458 55.9787H128.541V49.6361H126.458V55.9787ZM129.616 59.4126H125.382C124.086 59.4126 123.032 58.3551 123.032 57.0561V48.5576C123.032 47.2586 124.086 46.2021 125.382 46.2021H129.616C130.912 46.2021 131.967 47.2586 131.967 48.5576V57.0561C131.967 58.3551 130.912 59.4126 129.616 59.4126Z" fill="#232144"/><path fill-rule="evenodd" clip-rule="evenodd" d="M36.1831 55.9787H39.3751V49.6361H36.1831V55.9787ZM40.4511 59.4126H35.1071C33.8111 59.4126 32.7561 58.3551 32.7561 57.0561V48.5576C32.7561 47.2586 33.8111 46.2021 35.1071 46.2021H40.4511C41.7471 46.2021 42.8011 47.2586 42.8011 48.5576V57.0561C42.8011 58.3551 41.7471 59.4126 40.4511 59.4126Z" fill="#232144"/><path fill-rule="evenodd" clip-rule="evenodd" d="M47.3231 38.3768H62.3961V35.0923H47.3231V38.3768Z" fill="#F7931E"/><path fill-rule="evenodd" clip-rule="evenodd" d="M114.822 38.3768H118.099V35.0923H114.822V38.3768Z" fill="#F7931E"/><path fill-rule="evenodd" clip-rule="evenodd" d="M102.371 38.3768H110.89V35.0923H102.371V38.3768Z" fill="#F7931E"/><path fill-rule="evenodd" clip-rule="evenodd" d="M121.348 92.8953H44.0748C41.1638 92.8953 38.8038 90.5298 38.8038 87.6121V43.0034C38.8038 40.0857 41.1638 37.7202 44.0748 37.7202H121.348C124.259 37.7202 126.619 40.0857 126.619 43.0034V87.6121C126.619 90.5298 124.259 92.8953 121.348 92.8953Z" fill="#F7E5CD"/><path fill-rule="evenodd" clip-rule="evenodd" d="M38.8041 52.1709H126.618V46.2593H38.8041V52.1709Z" fill="#F7931E"/><path fill-rule="evenodd" clip-rule="evenodd" d="M106.94 65.3807C106.94 78.7725 96.1092 89.6295 82.7472 89.6295C69.3862 89.6295 58.5552 78.7725 58.5552 65.3807C58.5552 51.9888 69.3862 41.1318 82.7472 41.1318C96.1092 41.1318 106.94 51.9888 106.94 65.3807Z" fill="#232144"/><path fill-rule="evenodd" clip-rule="evenodd" d="M103.382 65.3809C103.382 76.8032 94.1434 86.0635 82.7474 86.0635C71.3514 86.0635 62.1124 76.8032 62.1124 65.3809C62.1124 53.9586 71.3514 44.6982 82.7474 44.6982C94.1434 44.6982 103.382 53.9586 103.382 65.3809Z" fill="#F7931E"/><path fill-rule="evenodd" clip-rule="evenodd" d="M100.647 65.3334C100.647 75.2422 92.6333 83.2747 82.7473 83.2747C72.8623 83.2747 64.8483 75.2422 64.8483 65.3334C64.8483 55.4246 72.8623 47.3921 82.7473 47.3921C92.6333 47.3921 100.647 55.4246 100.647 65.3334Z" fill="#232144"/><path fill-rule="evenodd" clip-rule="evenodd" d="M108.03 113.285C111.069 121.875 118.653 125.122 122.414 126.23C128.098 127.907 133.823 127.637 137.349 125.53C139.358 124.33 140.625 122.553 141.113 120.25C141.615 117.891 141.166 115.787 139.782 113.996C137.556 111.117 132.927 109.19 127.702 108.967C120.454 108.654 114.893 110.393 108.03 113.285ZM129.737 130C126.87 130 124.026 129.516 121.655 128.817C118.338 127.839 109.207 124.299 105.566 114.345C104.517 114.804 103.434 115.284 102.306 115.784C100.112 116.757 97.8438 117.765 95.3078 118.842C94.3198 119.263 93.2738 119.726 92.1718 120.214C80.3018 125.469 62.3658 133.411 40.2778 123.224C29.3828 118.199 21.7478 110.022 18.2008 99.5768C14.3838 88.34 15.5818 74.9902 21.4058 63.8656C27.0198 53.1429 34.6338 51.7838 38.6718 51.9341L38.8098 51.9381L38.8068 54.6343C38.7518 54.6343 38.6738 54.6323 38.5738 54.6283C35.1738 54.497 28.7168 55.7038 23.7878 65.1195C18.2998 75.6006 17.1638 88.1565 20.7468 98.7078C24.0508 108.435 31.1938 116.066 41.4018 120.775C62.3898 130.455 79.6568 122.808 91.0848 117.748C92.1998 117.255 93.2578 116.785 94.2558 116.36C96.7738 115.29 99.0328 114.289 101.217 113.319C102.453 112.771 103.638 112.246 104.783 111.746C104.243 109.505 103.968 106.988 104.053 104.16C104.482 89.7211 114.726 85.7209 123.763 82.1908C131.566 79.1438 138.305 76.5117 138.452 67.967C138.532 63.3644 137.397 59.8343 135.081 57.4719C132.094 54.4248 127.875 54.0961 126.2 54.0961V51.4009C128.215 51.4009 133.299 51.8078 137 55.5815C139.84 58.4792 141.234 62.6618 141.141 68.0141C140.963 78.367 132.716 81.5884 124.74 84.7026C115.678 88.2427 107.118 91.5854 106.741 104.241C106.67 106.623 106.874 108.759 107.29 110.671C114.34 107.713 120.118 105.945 127.816 106.273C133.902 106.533 139.169 108.802 141.908 112.344C143.773 114.757 144.408 117.685 143.745 120.812C143.093 123.879 141.405 126.245 138.726 127.846C136.118 129.405 132.914 130 129.737 130Z" fill="#463EC5"/></svg>