<?xml version="1.0" encoding="UTF-8"?><svg xmlns="http://www.w3.org/2000/svg" viewBox="0 0 160 160"><defs><style>.cls-1{fill:#007e54;}.cls-2{fill:#ffc583;}.cls-3{stroke-width:2.51px;}.cls-3,.cls-4,.cls-5,.cls-6{fill:none;stroke-miterlimit:10;}.cls-3,.cls-6{stroke:#448e6c;}.cls-4{stroke:#ffc583;stroke-width:.61px;}.cls-7{fill:#ac0005;}.cls-5{stroke:#ffe6bf;stroke-width:.47px;}.cls-8{fill:#e0cac1;}.cls-6{stroke-width:1.26px;}.cls-9{fill:red;}.cls-10{fill:#27184e;}.cls-11{fill:#448e6c;}.cls-12{fill:#ffe6bf;}</style></defs><g id="fruit"><line class="cls-6" x1="81.08" y1="29.52" x2="81.41" y2="27.68"/><line class="cls-6" x1="64.34" y1="25.01" x2="67.31" y2="22.04"/><path class="cls-1" d="M81.03,25.76s-1.01-1.81,2.36-5.15c3.37-3.34,7.66-3.8,7.66-3.8,0,0-.89,8.77-5.98,11.13,0,0-3.2.04-4.04-2.17Z"/><path class="cls-1" d="M29.74,48.08s-.55,1.88-5.31,2.05-8.17-2.22-8.17-2.22c0,0,6.8-5.47,12.11-3.88,0,0,2.33,2,1.37,4.05Z"/><circle class="cls-12" cx="61.36" cy="34.77" r="10.65"/><path class="cls-4" d="M56.96,32.92c0-4.19,3.44-8.05,7.39-8.86"/><circle class="cls-2" cx="78.8" cy="37.08" r="8.18"/><path class="cls-5" d="M82.29,38.2c2.09-2.44,1.87-6.45-.03-8.89"/><path class="cls-3" d="M58.16,17.35c.2.13,36.5,14.68,36.5,14.68"/><path class="cls-11" d="M83.96,25.81s-.36-2.42,4.74-4.69c5.1-2.27,10.01-.99,10.01-.99,0,0-4.64,9.28-11.21,9.75,0,0-3.54-1.29-3.54-4.08Z"/><path class="cls-11" d="M34.96,48.81s.94,2.69-4.56,6.91c-5.5,4.21-11.54,4.25-11.54,4.25,0,0,3.44-12.2,11.06-14.79,0,0,4.44.4,5.03,3.63Z"/><path class="cls-11" d="M30.23,68.43c1.05-2.02,2.1-4.04,3.15-6.06l-.89.11c2.79,2.7,5.57,5.4,8.36,8.1l1.2,1.16c.52.51,1.32-.29.8-.8-2.79-2.7-5.57-5.4-8.36-8.1-.4-.39-.8-.78-1.2-1.16-.25-.24-.72-.22-.89.11-1.05,2.02-2.1,4.04-3.15,6.06-.34.65.64,1.22.98.57h0Z"/><path class="cls-11" d="M33.45,62.09v-15.85l-.97.4c2.29,2.86,4.58,5.71,6.88,8.57.46.57,1.25-.24.8-.8-2.29-2.86-4.58-5.71-6.88-8.57-.32-.4-.97-.05-.97.4v15.85c0,.73,1.13.73,1.13,0h0Z"/><path class="cls-11" d="M48.26,32.89c-.18.13-.42.16-.62.04-2.94-1.63-3.35-4.6-3.72-7.21-.39-2.83-.72-4.44-2.95-4.61-.32-.02-.55-.3-.53-.62.02-.32.3-.55.62-.53,3.26.25,3.63,2.97,4,5.6.34,2.47.69,5.01,3.13,6.37.28.15.38.5.22.78-.04.07-.09.13-.16.18Z"/><path class="cls-9" d="M52.08,30.47c-1.31-1.75-3.78-2.1-5.53-.79-.27.2-.5.44-.71.69-1.11-.43-2.42-.3-3.44.47-.89.66-1.38,1.66-1.43,2.69h0c-.58,3.03,2.49,6.75,5.51,7.33,3.03.58,5.94-1.4,6.54-4.42.3-1.53.29-2.92.02-4.03-.11-.46-.27-.88-.48-1.24-.11-.2-.24-.37-.37-.54-.04-.05-.07-.11-.11-.16Z"/><path class="cls-9" d="M45.59,52.63c-1.83-1.19-4.27-.66-5.46,1.17-.18.28-.32.58-.43.89-1.19-.02-2.37.56-3.07,1.63-.6.93-.72,2.04-.41,3.02h0c.5,3.04,4.67,5.47,7.71,4.97,3.04-.5,5.09-3.37,4.6-6.41-.25-1.54-.73-2.84-1.38-3.79-.27-.39-.56-.73-.87-.99-.17-.15-.35-.27-.53-.37-.05-.04-.1-.08-.16-.11Z"/><path class="cls-9" d="M47.05,67.69c-1.99-.89-4.32,0-5.21,2-.14.31-.23.63-.28.95-1.18.17-2.26.92-2.78,2.09-.45,1.01-.39,2.12.06,3.05h0c.96,2.93,5.46,4.68,8.39,3.71,2.93-.96,4.5-4.11,3.55-7.05-.48-1.49-1.16-2.69-1.95-3.53-.32-.35-.67-.63-1.02-.85-.19-.12-.39-.21-.59-.29-.06-.03-.11-.06-.17-.09Z"/><path class="cls-9" d="M34.01,72.58c.38-2.15-1.04-4.2-3.19-4.58-.33-.06-.66-.07-.99-.05-.45-1.11-1.43-1.97-2.69-2.2-1.09-.2-2.16.13-2.94.79h0c-2.61,1.64-3.23,6.42-1.6,9.03,1.64,2.61,5.07,3.39,7.69,1.76,1.33-.82,2.33-1.78,2.96-2.74.26-.4.45-.8.58-1.19.07-.22.11-.43.14-.64.01-.06.03-.12.04-.19Z"/><rect class="cls-8" x="61.81" y="50.87" width="7.22" height="14.6"/><path class="cls-8" d="M65.42,64.76h0c4.63,0,8.4,3.76,8.4,8.4v47.9h-16.79v-47.9c0-4.63,3.76-8.4,8.4-8.4Z"/><path class="cls-8" d="M107.51,38.89c0,7.76-18.84,14.04-42.09,14.04s-42.09-6.29-42.09-14.04"/></g><g id="lobster"><rect class="cls-8" x="45.03" y="104.88" width="87.38" height="39.12"/><path class="cls-7" d="M131.86,105.82s-9.83,1.65-20.7,7.42c-.92.49-1.34,1.59-.96,2.55,1.05,2.62,3.76,7.73,9.96,11.62"/><path class="cls-7" d="M131.29,129.31c3.41-.78,7.81-2.56,12.06-6.55.7-.65.84-1.72.34-2.53-1.62-2.65-5.96-8.72-15.03-15.65"/><path class="cls-9" d="M128.09,87.35s7.98,8.19,5.94,17.39l-12.36.16,6.42-17.78"/><path class="cls-9" d="M54.58,113.27c-2.86-3.16-9.13-2.14-14,2.27-4.34,3.93-6.11,9.23-4.42,12.57,0,0,12.96-9.34,16.2-11.91,3.23-2.57,2.22-2.93,2.22-2.93Z"/><path class="cls-7" d="M118.33,79.47s5.78,1.79,9.76,7.88c0,0,.15,11.46-6.41,17.55l-7.73.34,4.39-25.76Z"/><path class="cls-9" d="M106.44,77.23s3.4-.9,8.77,0c1.79.3,3.19,1.72,3.54,3.5,1.01,5.11,2.05,16.02-4.8,24.49l-6.75.12-.76-28.12Z"/><path class="cls-7" d="M91.82,78.32s5.05-2.18,9.99-3.09c2.12-.39,4.21.78,4.95,2.81,1.64,4.49,3.69,13.67.44,27.31l-8.67.43-6.71-27.46Z"/><path class="cls-9" d="M74.83,81.89s6.72-3.39,12.58-5c1.61-.44,3.32.07,4.42,1.33,3.48,3.97,10.32,13.9,7,27.55,0,0-13.22,1.68-19.84.6l-4.17-24.47Z"/><path class="cls-7" d="M77.98,106.83c6.68-1.2,11.54-7.45,10.36-14.14,0-.05-.02-.1-.03-.15-.94-5-4.57-8.82-9.1-10.25-3.07-.97-6.41-.45-9.26,1.06-5.14,2.73-16.41,9.02-25.42,16.03-2.32,1.81-1.37,5.52,1.53,6,7.81,1.29,20.05,3.01,26.02,2.3,2.41-.29,4.34-.58,5.89-.86Z"/><path class="cls-9" d="M71.72,100.1c-1.69.88-3.32,2.13-4.05,3.95-.6,1.5-.65,3.28-.72,4.88-.1,2.34-.05,4.71.13,7.05.1,1.27,2.09,1.28,1.99,0-.16-2.08-.21-4.18-.16-6.26.04-1.43.09-2.89.41-4.29.4-1.76,1.88-2.81,3.4-3.6,1.14-.59.13-2.31-1-1.72h0Z"/><path class="cls-9" d="M77.64,100.06c-1.69.88-3.32,2.13-4.05,3.95-.6,1.5-.65,3.28-.72,4.88-.1,2.34-.05,4.71.13,7.05.1,1.27,2.09,1.28,1.99,0-.16-2.08-.21-4.18-.16-6.26.04-1.43.09-2.89.41-4.29.4-1.76,1.88-2.81,3.4-3.6,1.14-.59.13-2.31-1-1.72h0Z"/><path class="cls-9" d="M83.57,100.02c-1.69.88-3.32,2.13-4.05,3.95-.6,1.5-.65,3.28-.72,4.88-.1,2.34-.05,4.71.13,7.05.1,1.27,2.09,1.28,1.99,0-.16-2.08-.21-4.18-.16-6.26.04-1.43.09-2.89.41-4.29.4-1.76,1.88-2.81,3.4-3.6,1.14-.59.13-2.31-1-1.72h0Z"/><path class="cls-9" d="M52.07,112.13l8.79,4.57,4.01-9.73c.96-2.37-.14-5.07-2.49-6.1h0c-2.35-1.03-5.09.01-6.17,2.34l-4.15,8.92Z"/><path class="cls-7" d="M31.86,138.75c.45.9,1.04,1.73,1.76,2.45,5.05,4.99,14.98,3.11,22.18-4.18,7.2-7.29,8.95-17.25,3.91-22.23-.01-.01-.03-.03-.04-.04-3.66-3.57-10.04-1.39-10.89,3.65-.1.6-.21,1.27-.2,2,.09,6.9-16.71,18.35-16.71,18.35Z"/><circle class="cls-10" cx="53.45" cy="97.81" r="2.02"/><path class="cls-7" d="M37.6,93.25c-1.4,2.73-.58,6.1,2.01,7.79,2.43,1.58,5.73,1.09,7.65-1.06.59-.66-.38-1.65-.98-.98-1.49,1.67-3.94,2.1-5.87.91s-2.69-3.87-1.62-5.96c.41-.79-.79-1.49-1.2-.7h0Z"/><path class="cls-7" d="M35.23,101.95c.42,2.92,3.03,5.15,5.99,5.08s5.43-2.43,5.77-5.4c.04-.37-.35-.69-.69-.69-.41,0-.65.32-.69.69-.26,2.27-2.25,4.02-4.53,4.02s-4.19-1.79-4.51-4.07c-.05-.37-.52-.57-.85-.48-.4.11-.54.48-.48.85h0Z"/><path class="cls-9" d="M115.78,125.5c2.59,1.8,8.63,5.05,17.38,4.03.95-.11,1.7-.88,1.78-1.83.27-3.09.41-10.55-2.75-21.52l-3.81-.92s-7.3,6.79-13.21,17.58c-.5.91-.25,2.07.6,2.66Z"/><path class="cls-9" d="M134.04,104.74s-.9,3.19-2.89,5.12h-3.86s.14-5.26-5.61-4.96l12.36-.16Z"/></g></svg>