<?xml version="1.0" encoding="utf-8"?><!--Generator: Adobe Illustrator 27.8.0, SVG Export Plug-In . SVG Version: 6.00 Build 0)--><svg version="1.1" id="Ebene_1" xmlns="http://www.w3.org/2000/svg" xmlns:xlink="http://www.w3.org/1999/xlink" x="0px" y="0px" viewBox="0 0 160 160" style="enable-background:new 0 0 160 160;" xml:space="preserve"><style type="text/css">.st0{fill:#F7E5CD;}
	.st1{fill:#00401E;}
	.st2{fill:#891229;}
	.st3{fill:#E73245;}</style><rect x="34" y="51.4" transform="matrix(0.9734 -0.2291 0.2291 0.9734 -16.3944 9.9869)" class="st1" width="1.7" height="48.4"/><path class="st2" d="M33.2,52.8c0,0,6.7-12.8-9-20.5c0,0-9.8,12.4,2.7,22.3L33.2,52.8z"/><path class="st3" d="M33,59.6c0,0-9.8,4.7-12.9-6.8c0,0-1.4-4.1-4-14.7C16.1,38.2,29,39.6,33,59.6z"/><path class="st3" d="M30.4,60.4c0,0,9.8-0.9,7.8-12.5c0,0-0.6-4.5-4-14.7C34.1,33.3,23.6,41.1,30.4,60.4z"/><rect x="43.3" y="41.8" transform="matrix(1 -2.059686e-03 2.059686e-03 1 -0.1358 9.105363e-02)" class="st1" width="1.7" height="48.4"/><path class="st3" d="M47.8,43.4c0,0,9.4-10.9-4.1-22c0,0-12.3,9.8-2.4,22.3L47.8,43.4z"/><path class="st2" d="M46,50c0,0-10.6,2.3-11.1-9.5c0,0-0.5-4.3-0.6-15.2C34.4,25.3,46.6,29.6,46,50z"/><path class="st2" d="M43.2,50.1c0,0,9.7,1.3,10.4-10.4c0,0,0.5-4.5-0.6-15.2C53.1,24.6,41,29.8,43.2,50.1z"/><rect x="46.9" y="142.2" transform="matrix(1 -1.955030e-03 1.955030e-03 1 -0.2797 0.1558)" class="st1" width="65.3" height="2"/><path class="st2" d="M143.3,144.3c0,0-10.6-16-25.9-5.3l-7.6,5.3H143.3z"/><path class="st3" d="M109.5,144.1c0,0-1.9-12.6,12-12.2c0,0,5.1-0.2,17.9,0.5C139.3,132.4,133.3,146.4,109.5,144.1z"/><path class="st0" d="M72.4,71.2l3.9-4.7l-25-1.1l4.5,8.8l-1.6,8.5l7.4,4.5l-0.3,8.1l5.8-1.2C65.2,86.2,67,77.7,72.4,71.2z"/><path class="st0" d="M67,93.9l-5.7,1.4v-8.1l-7.6-4.2l1.2-8.6L50,65.9H24.6l3.7,4.9c6.6,8.7,6.9,20.4,1.4,29.7
	c-2.4,4.1-3.7,8.7-3.7,13.4v0c0,11.1,4.4,21.8,12.3,29.7l0.7,0.7h21.5l0.7-0.7c7.9-7.9,12.3-18.6,12.3-29.7v0
	c0-4.8-1.4-9.6-3.9-13.7C68.5,98.1,67.6,96,67,93.9z"/></svg>