<svg viewBox="0 0 160 161" fill="none" xmlns="http://www.w3.org/2000/svg"><path fill-rule="evenodd" clip-rule="evenodd" d="M18.804 80.5001C18.804 62.4256 33.618 47.7734 51.892 47.7734C70.166 47.7734 84.98 62.4256 84.98 80.5001C84.98 98.5745 70.166 113.227 51.892 113.227C33.618 113.227 18.804 98.5745 18.804 80.5001Z" fill="white"/><path fill-rule="evenodd" clip-rule="evenodd" d="M51.8918 50.5467C35.1938 50.5467 21.6078 63.9834 21.6078 80.5C21.6078 97.0156 35.1938 110.452 51.8918 110.452C68.5898 110.452 82.1758 97.0156 82.1758 80.5C82.1758 63.9834 68.5898 50.5467 51.8918 50.5467ZM51.8918 116C32.1008 116 15.9998 100.075 15.9998 80.5C15.9998 60.9252 32.1008 45 51.8918 45C71.6828 45 87.7838 60.9252 87.7838 80.5C87.7838 100.075 71.6828 116 51.8918 116Z" fill="#232144"/><path fill-rule="evenodd" clip-rule="evenodd" d="M64.5297 82.205H50.1987L47.3067 62.3255L50.7317 61.8379L53.1967 78.7828H64.5297V82.205Z" fill="#FF6200"/><path fill-rule="evenodd" clip-rule="evenodd" d="M50.309 58.1554H53.474V53.9023H50.309V58.1554Z" fill="#232144"/><path fill-rule="evenodd" clip-rule="evenodd" d="M50.309 107.095H53.474V102.842H50.309V107.095Z" fill="#232144"/><path fill-rule="evenodd" clip-rule="evenodd" d="M74.481 82.0099H78.781V78.9883H74.481V82.0099Z" fill="#232144"/><path fill-rule="evenodd" clip-rule="evenodd" d="M25.002 82.0099H29.302V78.9883H25.002V82.0099Z" fill="#232144"/><path fill-rule="evenodd" clip-rule="evenodd" d="M56.2664 62.8188L94.0214 63.2223L93.8864 73.5889L56.1304 73.1853C53.2374 73.1477 50.9224 70.7997 50.9594 67.9363C50.9974 65.0739 53.3734 62.7822 56.2664 62.8188Z" fill="#E3944F"/><path fill-rule="evenodd" clip-rule="evenodd" d="M97.6544 67.1734L91.6474 105.63L110.755 106.158C114.594 106.153 118.391 105.645 121.935 104.187H144V72.008H131.528C127.782 67.7609 117.411 61.0124 111.443 57.3212C110.335 56.6338 108.996 56.435 107.732 56.7653L96.5364 59.8067L97.6544 67.1734Z" fill="#E3944F"/><path fill-rule="evenodd" clip-rule="evenodd" d="M81.5364 89.3907L81.5344 89.4589C81.4774 92.4162 83.8504 94.8543 86.8374 94.9117L103.748 95.2371C106.735 95.2945 109.202 92.9454 109.261 89.994L109.262 89.9257C109.319 86.9684 106.946 84.5303 103.959 84.472L87.0484 84.1475C84.0624 84.0892 81.5944 86.4383 81.5364 89.3907Z" fill="#E3944F"/><path fill-rule="evenodd" clip-rule="evenodd" d="M82.4924 100.014L82.4914 100.082C82.4364 103.039 84.6824 105.477 87.5084 105.535L103.512 105.86C106.338 105.918 108.674 103.568 108.729 100.617L108.73 100.549C108.785 97.5914 106.539 95.1534 103.712 95.095L87.7084 94.7706C84.8824 94.7122 82.5474 97.0613 82.4924 100.014Z" fill="#E3944F"/><path fill-rule="evenodd" clip-rule="evenodd" d="M81.7479 78.711L81.7469 78.7793C81.6889 81.7316 84.0629 84.1747 87.0489 84.232L103.961 84.5525C106.947 84.6099 109.415 82.2657 109.473 79.3084L109.474 79.2402C109.533 76.2887 107.159 73.8447 104.172 73.7874L87.2609 73.462C84.2749 73.4046 81.8059 75.7537 81.7479 78.711Z" fill="#E3944F"/><path fill-rule="evenodd" clip-rule="evenodd" d="M98.069 86.9266H98.139C101.126 86.9632 103.578 84.5983 103.617 81.6469L103.836 64.9147C103.874 61.9632 101.485 59.54 98.498 59.4985H98.428C95.442 59.4619 92.989 61.8208 92.95 64.7782L92.731 81.5045C92.692 84.4618 95.083 86.8851 98.069 86.9266Z" fill="#E3944F"/></svg>