<?xml version="1.0" encoding="UTF-8"?><svg id="Puzzle" xmlns="http://www.w3.org/2000/svg" viewBox="0 0 160 160"><defs><style>.cls-1{fill:#fff;}.cls-2{fill:#7d441c;}.cls-3{fill:#ff6000;}</style></defs><path class="cls-2" d="M33.21,75.6h15.01c2.43,0,4.4,1.97,4.4,4.4v4.4h-23.81v-4.4c0-2.43,1.97-4.4,4.4-4.4Z" transform="translate(48.11 -9.46) rotate(31.7)"/><path class="cls-2" d="M29.94,78.42h15.01c2.43,0,4.4,1.97,4.4,4.4v4.4h-23.81v-4.4c0-2.43,1.97-4.4,4.4-4.4Z" transform="translate(52.16 -6.87) rotate(33.65)"/><path class="cls-3" d="M144,86.38v-35.33c0-3.18-2.58-5.77-5.77-5.77h-49.04v20.56c0,3.33,2.54,6.26,5.87,6.39,1.07.04,2.08-.19,2.97-.63v.02c1.7-.77,3.66-1.06,5.73-.63,3.85.8,6.82,4.1,7.23,8.01.58,5.53-3.74,10.2-9.16,10.2-1.49,0-2.89-.36-4.13-.99-1.04-.44-2.22-.62-3.47-.4-2.97.53-5.04,3.26-5.04,6.28v20.62h49.04c3.18,0,5.77-2.58,5.77-5.77v-4.66c-1.89-1.3-3.25-4.81-3.25-8.96s1.36-7.66,3.25-8.96Z"/><path class="cls-3" d="M85.38,70.99c-2.07-.43-4.03-.14-5.73.63v-.02c-.89.44-1.9.68-2.97.63-3.33-.13-5.87-3.06-5.87-6.39v-20.56s-49.04,0-49.04,0c-3.18,0-5.77,2.58-5.77,5.77v57.9c0,3.18,2.58,5.77,5.77,5.77h49.04v-20.62c0-3.02,2.07-5.74,5.04-6.28,1.25-.22,2.43-.04,3.47.4,1.24.63,2.64.99,4.13.99,5.41,0,9.74-4.67,9.16-10.2-.41-3.91-3.38-7.21-7.23-8.01Z"/><path class="cls-1" d="M32.52,69.59h-5.79s0,2.42,0,2.42c0,.8.47,1.45,1.05,1.46h4.74s0-3.88,0-3.88Z"/><path class="cls-1" d="M43.15,69.61h-5.69s0,3.87,0,3.87h4.66c.57,0,1.04-.65,1.04-1.45v-2.42Z"/><rect class="cls-1" x="39.27" y="65.34" width="3.07" height="4.7" transform="translate(-26.98 108.32) rotate(-89.86)"/><rect class="cls-1" x="27.55" y="65.31" width="3.07" height="4.7" transform="translate(-38.64 96.57) rotate(-89.86)"/><rect class="cls-1" x="34.21" y="60.52" width="1.58" height="4.18" transform="translate(-27.69 97.46) rotate(-89.86)"/><rect class="cls-1" x="34.22" y="70.63" width="1.52" height="4.18" transform="translate(-37.83 107.52) rotate(-89.86)"/><path class="cls-1" d="M37.47,65.76h5.68s0-2.49,0-2.49c0-.8-.46-1.45-1.03-1.46h-4.65s0,3.94,0,3.94Z"/><path class="cls-1" d="M32.54,61.8h-4.74c-.58,0-1.06.65-1.06,1.45v2.48s5.79.01,5.79.01v-3.94Z"/><polygon class="cls-1" points="31.78 71.77 31.78 63.56 38.12 63.58 38.12 71.79 31.78 71.77"/><path class="cls-3" d="M31.44,71.96v-8.58s7.01.01,7.01.01v8.58s-7.01-.01-7.01-.01ZM31.86,63.75v7.84s6.18.01,6.18.01v-7.84s-6.18-.01-6.18-.01Z"/></svg>