<svg viewBox="0 0 160 160" fill="none" xmlns="http://www.w3.org/2000/svg"><path d="M76.59 81.5L99.51 79.26L73.63 64.52C70.6 62.73 69.11 61.96 66.52 62.21L55.18 63.32L76.59 81.5Z" fill="#D8CBC5"/><path d="M21.63 43.4504L20.86 43.5704C19.3 43.8104 18.24 45.2704 18.48 46.8304L23.22 77.2804L52.99 69.1304C41.16 65.8704 31.24 57.8204 25.62 46.9204L24.62 44.9704C24.04 43.8704 22.84 43.2604 21.63 43.4504Z" fill="#232144"/><path d="M26.97 88.8803L18.16 82.4604C17.18 81.7404 16.52 80.6604 16.33 79.4604C15.94 76.9604 17.65 74.6204 20.15 74.2304L113.82 59.6504C121.04 58.5304 128.41 60.3203 134.3 64.6303L141.73 70.0603C142.85 70.8803 143.61 72.1203 143.82 73.4903C144.27 76.3603 142.3 79.0403 139.44 79.4903L47.4 93.8304C40.2 94.9504 32.85 93.1703 26.97 88.8803Z" fill="#E6E3DA"/><path d="M143.81 73.5C144.26 76.37 142.29 79.05 139.43 79.5L47.4 93.83C41.57 94.74 35.65 93.74 30.48 91.06L143.81 73.5Z" fill="#D8CBC5"/><path d="M70.91 95.3601L69.58 86.8001L69.74 86.7301C76.45 83.8401 84.52 82.5801 91.79 83.3001L91.96 83.3201L93.29 91.8801L92.98 92.0101C86.24 94.8801 78.17 96.1001 70.91 95.3601Z" fill="#232144"/><path d="M56.45 82.18L55.8 82.28C54.68 82.46 53.62 81.69 53.45 80.56L53.09 78.23C52.91 77.11 53.68 76.05 54.81 75.88L55.46 75.78C56.58 75.6 57.64 76.37 57.81 77.5L58.17 79.83C58.34 80.95 57.57 82.01 56.45 82.18Z" fill="#232144"/><path d="M48.91 83.3499L48.26 83.4499C47.14 83.6299 46.08 82.8599 45.91 81.7299L45.55 79.3999C45.37 78.2799 46.14 77.2199 47.27 77.0499L47.92 76.9499C49.04 76.7699 50.1 77.5399 50.27 78.6699L50.63 80.9999C50.81 82.1299 50.04 83.1799 48.91 83.3499Z" fill="#232144"/><path d="M41.38 84.5296L40.73 84.6296C39.61 84.8096 38.55 84.0396 38.38 82.9096L38.02 80.5796C37.84 79.4596 38.61 78.3996 39.74 78.2296L40.39 78.1296C41.51 77.9496 42.57 78.7196 42.74 79.8496L43.1 82.1796C43.27 83.2996 42.51 84.3496 41.38 84.5296Z" fill="#232144"/><path d="M63.98 81.0101L63.33 81.1101C62.21 81.2901 61.15 80.5201 60.98 79.3901L60.62 77.0601C60.44 75.9401 61.21 74.8801 62.34 74.7101L62.99 74.6101C64.11 74.4301 65.17 75.2001 65.34 76.3301L65.7 78.6601C65.88 79.7801 65.11 80.8301 63.98 81.0101Z" fill="#FAA332"/><path d="M71.52 79.8402L70.87 79.9402C69.75 80.1202 68.69 79.3502 68.52 78.2202L68.16 75.8902C67.98 74.7702 68.75 73.7102 69.88 73.5402L70.53 73.4402C71.65 73.2602 72.71 74.0302 72.88 75.1602L73.24 77.4902C73.41 78.6102 72.64 79.6602 71.52 79.8402Z" fill="#232144"/><path d="M79.05 78.6605L78.4 78.7605C77.28 78.9405 76.22 78.1705 76.05 77.0405L75.69 74.7105C75.51 73.5905 76.28 72.5305 77.41 72.3605L78.06 72.2605C79.18 72.0805 80.24 72.8505 80.41 73.9805L80.77 76.3105C80.94 77.4405 80.17 78.4905 79.05 78.6605Z" fill="#232144"/><path d="M86.58 77.4906L85.93 77.5906C84.81 77.7706 83.75 77.0006 83.58 75.8706L83.22 73.5406C83.04 72.4206 83.81 71.3606 84.94 71.1906L85.59 71.0906C86.71 70.9106 87.77 71.6806 87.94 72.8106L88.3 75.1406C88.48 76.2606 87.71 77.3206 86.58 77.4906Z" fill="#232144"/><path d="M94.12 76.3206L93.47 76.4206C92.35 76.6006 91.29 75.8306 91.12 74.7006L90.76 72.3706C90.58 71.2506 91.35 70.1906 92.48 70.0206L93.13 69.9206C94.25 69.7406 95.31 70.5106 95.48 71.6406L95.84 73.9706C96.01 75.0906 95.24 76.1406 94.12 76.3206Z" fill="#232144"/><path d="M101.65 75.1409L101 75.2409C99.88 75.4209 98.82 74.6509 98.65 73.5209L98.29 71.191C98.11 70.071 98.88 69.0109 100.01 68.8409L100.66 68.7409C101.78 68.5609 102.84 69.3309 103.01 70.4609L103.37 72.791C103.55 73.921 102.78 74.9709 101.65 75.1409Z" fill="#232144"/><path d="M109.19 73.9691L108.54 74.0691C107.42 74.2491 106.36 73.4791 106.19 72.3491L105.83 70.0191C105.65 68.8991 106.42 67.8391 107.55 67.6691L108.2 67.5691C109.32 67.3891 110.38 68.1591 110.55 69.2891L110.91 71.6191C111.08 72.7391 110.31 73.7991 109.19 73.9691Z" fill="#232144"/><path d="M140.41 69.1109L123.06 71.8109C122.14 71.9509 121.28 71.3209 121.14 70.4109L120.66 67.3309C120.52 66.4109 121.15 65.5509 122.06 65.4109L132.97 63.7109L140.41 69.1109Z" fill="#232144"/><path d="M70.84 80.7607L93.59 77.2207L72.2 97.9507C69.71 100.441 68.46 101.561 65.89 101.961L54.63 103.711L70.84 80.7607Z" fill="#E6E3DA"/></svg>