<?xml version="1.0" encoding="UTF-8"?><svg id="Transfer" xmlns="http://www.w3.org/2000/svg" viewBox="0 0 160 160"><defs><style>.cls-1{fill:#e6e4d8;}.cls-2{fill:#ffb300;}.cls-3{fill-rule:evenodd;}.cls-3,.cls-4{fill:#231e47;}.cls-5{fill:#fdb128;}.cls-6{fill:#f17900;}.cls-7{fill:#e3944f;}.cls-8{fill:#f99400;}.cls-9{fill:#804500;}.cls-10{fill:#f0a86b;}.cls-11{fill:#ac654d;}.cls-12{fill:#fd9500;}</style></defs><path class="cls-11" d="M129.67,80.74c-1.31-2.27-3.14-3.56-5.07-3.55l-6.11.02.11,26.57h-2.48s.04,9.73.04,9.73c.02,5.88,4.12,10.77,9.59,12.06l-1.28,18.42h19.52v-40.32l-14.33-22.94Z"/><path class="cls-10" d="M16,103.68l25.39.1.11-26.57-6.11-.02c-1.92,0-3.76,1.28-5.07,3.55l-14.33,22.94Z"/><path class="cls-7" d="M52.26,95.14h-10.76v15.43s2.71,0,2.71,0c.85,0,1.67-.75,2.24-2.08l5.81-13.36Z"/><polygon class="cls-10" points="16 103.68 16 144 35.52 144 34.43 103.36 16 103.68"/><rect class="cls-4" x="33.12" y="41.15" width="30.14" height="62.01" rx="3.16" ry="3.16"/><rect class="cls-1" x="34.16" y="42.44" width="28.06" height="59.42" rx="2.15" ry="2.15"/><path class="cls-3" d="M52.71,44.98h-9.04c-1.43,0-2.58-1.16-2.58-2.58h0s4.11,0,4.11,0h10.1c0,1.43-1.16,2.58-2.58,2.58Z"/><rect class="cls-1" x="44.31" y="43.37" width="7.75" height=".73"/><path class="cls-10" d="M30.07,103.76h13.76v22.18h-1.3c-6.88,0-12.46-5.58-12.46-12.46v-9.72h0Z" transform="translate(73.43 229.86) rotate(-179.77)"/><path class="cls-10" d="M25.86,91.93h27.17v4.53c0,2.5-2.03,4.53-4.53,4.53h-18.12c-2.5,0-4.53-2.03-4.53-4.53v-4.53h0Z" transform="translate(135.91 57.02) rotate(90)"/><circle class="cls-8" cx="48.19" cy="73.02" r="9.68"/><path class="cls-6" d="M54.97,66.12l-13.69,13.69c1.76,1.79,4.2,2.9,6.91,2.9,5.35,0,9.68-4.34,9.68-9.69,0-2.71-1.11-5.15-2.9-6.91Z"/><circle class="cls-5" cx="48.25" cy="73.09" r="7.75"/><circle class="cls-8" cx="57.87" cy="46.13" r="9.68"/><path class="cls-6" d="M64.65,39.22l-13.69,13.69c1.76,1.79,4.2,2.9,6.91,2.9,5.35,0,9.68-4.34,9.68-9.69,0-2.71-1.11-5.15-2.9-6.91Z"/><circle class="cls-5" cx="57.93" cy="46.2" r="7.75"/><circle class="cls-8" cx="80.97" cy="29.45" r="9.68"/><path class="cls-6" d="M87.75,22.54l-13.69,13.69c1.76,1.79,4.2,2.9,6.91,2.9,5.35,0,9.68-4.34,9.68-9.69,0-2.71-1.11-5.15-2.9-6.91Z"/><circle class="cls-5" cx="81.03" cy="29.51" r="7.75"/><path class="cls-9" d="M107.74,95.14h10.76v15.43s-2.71,0-2.71,0c-.85,0-1.67-.75-2.24-2.08l-5.81-13.36Z"/><rect class="cls-4" x="96.64" y="41.15" width="30.14" height="62.01" rx="3.16" ry="3.16" transform="translate(223.43 144.31) rotate(180)"/><rect class="cls-1" x="97.68" y="42.44" width="28.06" height="59.42" rx="2.15" ry="2.15" transform="translate(223.43 144.31) rotate(180)"/><path class="cls-3" d="M107.19,44.98h9.04c1.43,0,2.58-1.16,2.58-2.58h0s-4.11,0-4.11,0h-10.1c0,1.43,1.16,2.58,2.58,2.58Z"/><rect class="cls-1" x="107.84" y="43.37" width="7.75" height=".73" transform="translate(223.43 87.47) rotate(180)"/><path class="cls-11" d="M101.49,93.63h27.17v4.53c0,2.5-2.03,4.53-4.53,4.53h-18.12c-2.5,0-4.53-2.03-4.53-4.53v-4.53h0Z" transform="translate(72.86 243.4) rotate(-114.25)"/><circle class="cls-8" cx="102.6" cy="46.13" r="9.68"/><path class="cls-6" d="M109.39,39.22l-13.69,13.69c1.76,1.79,4.2,2.9,6.91,2.9,5.35,0,9.68-4.34,9.68-9.69,0-2.71-1.11-5.15-2.9-6.91Z"/><circle class="cls-5" cx="102.67" cy="46.2" r="7.75"/><path class="cls-12" d="M102.74,76.3v3.69c0,.95,4.39,1.72,9.8,1.72s9.8-.77,9.8-1.72v-3.69h-19.6Z"/><ellipse class="cls-2" cx="112.55" cy="76.3" rx="9.8" ry="1.72"/><path class="cls-12" d="M112.61,77.7c-3.36,0-8.37-.36-8.37-1.36s5-1.36,8.37-1.36,8.37.36,8.37,1.36-5,1.36-8.37,1.36ZM112.61,75.24c-2.19,0-4.26.13-5.81.36-2.28.34-2.3.72-2.3.74s.03.4,2.3.74c1.55.23,3.61.36,5.81.36s4.26-.13,5.81-.36c2.28-.34,2.3-.72,2.3-.74s-.03-.4-2.3-.74c-1.55-.23-3.61-.36-5.81-.36Z"/><path class="cls-12" d="M100.24,72.04v3.69c0,.95,4.39,1.72,9.8,1.72s9.8-.77,9.8-1.72v-3.69h-19.6Z"/><path class="cls-12" d="M119.85,72.02c-.1-.62-2.04-1.15-4.89-1.44v6.63c2.93-.3,4.9-.85,4.9-1.49v-3.69h0Z"/><ellipse class="cls-2" cx="110.04" cy="72.04" rx="9.8" ry="1.72"/><path class="cls-12" d="M110.11,73.44c-3.36,0-8.37-.36-8.37-1.36s5-1.36,8.37-1.36,8.37.36,8.37,1.36-5,1.36-8.37,1.36ZM110.11,70.98c-2.19,0-4.26.13-5.81.36-2.28.34-2.3.72-2.3.74s.03.4,2.3.74c1.55.23,3.61.36,5.81.36s4.26-.13,5.81-.36c2.28-.34,2.3-.72,2.3-.74s-.03-.4-2.3-.74c-1.55-.23-3.61-.36-5.81-.36Z"/><path class="cls-12" d="M102.53,67.84v3.69c0,.95,4.39,1.72,9.8,1.72s9.8-.77,9.8-1.72v-3.69h-19.6Z"/><path class="cls-12" d="M122.14,67.82c-.1-.62-2.04-1.15-4.89-1.44v6.63c2.93-.3,4.9-.85,4.9-1.49v-3.69h0Z"/><ellipse class="cls-2" cx="112.34" cy="67.84" rx="9.8" ry="1.72"/><path class="cls-12" d="M112.4,69.24c-3.36,0-8.37-.36-8.37-1.36s5-1.36,8.37-1.36,8.37.36,8.37,1.36-5,1.36-8.37,1.36ZM112.4,66.78c-2.19,0-4.26.13-5.81.36-2.28.34-2.3.72-2.3.74s.03.4,2.3.74c1.55.23,3.61.36,5.81.36s4.26-.13,5.81-.36c2.28-.34,2.3-.72,2.3-.74s-.03-.4-2.3-.74c-1.55-.23-3.61-.36-5.81-.36Z"/></svg>