<?xml version="1.0" encoding="UTF-8"?><svg id="Building" xmlns="http://www.w3.org/2000/svg" viewBox="0 0 160 160"><defs><style>.cls-1{fill:#d8cbc5;}.cls-2{fill:#e6e3da;}.cls-3{fill:#4878ff;}.cls-4{fill:#232045;}</style></defs><circle class="cls-4" cx="114.46" cy="75.58" r="4.13"/><circle class="cls-4" cx="107.34" cy="75.1" r="5.54"/><path class="cls-4" d="M134.27,60.36c0-3.14-1.59-5.91-4-7.56.72-1.02,1.14-2.27,1.14-3.61,0-3.47-2.81-6.28-6.28-6.28s-6.28,2.81-6.28,6.28c0,1.34.42,2.59,1.14,3.61-2.41,1.65-4,4.42-4,7.56,0,4.72,3.58,8.6,8.17,9.09v7.2h1.95v-7.2c4.59-.49,8.17-4.37,8.17-9.09Z"/><rect class="cls-1" x="16.08" y="88.78" width="55.43" height="27.13"/><rect class="cls-2" x="16" y="51.39" width="79.24" height="24.41"/><rect class="cls-2" x="16.18" y="75.8" width="127.89" height="12.98"/><rect class="cls-4" x="16.08" y="88.78" width="4.12" height="32.81"/><rect class="cls-2" x="71.5" y="88.78" width="72.57" height="32.81"/><rect class="cls-3" x="16.08" y="61.54" width="79.17" height="14.26"/><rect class="cls-4" x="56.41" y="59.83" width="1.59" height="15.97"/><rect class="cls-4" x="34.47" y="59.83" width="1.59" height="15.97"/><rect class="cls-4" x="76.64" y="59.83" width="1.59" height="15.97"/><rect class="cls-4" x="16.08" y="59.83" width="79.17" height="1.71"/><rect class="cls-4" x="16.08" y="75.8" width="128" height="1.71"/><rect class="cls-1" x="22.15" y="44.93" width="66.67" height="6.46"/><rect class="cls-3" x="71.5" y="88.78" width="72.57" height="11.58"/><rect class="cls-4" x="71.5" y="88.78" width="72.57" height="1.71"/><rect class="cls-4" x="71.5" y="100.36" width="72.57" height="1.71"/><rect class="cls-4" x="71.47" y="88.95" width="4.6" height="12.27"/><rect class="cls-4" x="139.47" y="88.95" width="4.6" height="12.27"/><rect class="cls-4" x="90.4" y="89.22" width="1.59" height="12.27"/><rect class="cls-4" x="106.99" y="89.64" width="1.59" height="12.27"/><rect class="cls-4" x="123.59" y="89.22" width="1.59" height="12.27"/><rect class="cls-4" x="24.64" y="91.76" width="38.29" height="24.16"/><rect class="cls-1" x="42.77" y="90.86" width="2.04" height="25.06"/><rect class="cls-4" x="105.49" y="88.95" width="4.6" height="12.27"/></svg>