<svg viewBox="0 0 160 160" fill="none" xmlns="http://www.w3.org/2000/svg"><path fill-rule="evenodd" clip-rule="evenodd" d="M88.0319 58.6758L88.1447 87.2908C92.41 87.2668 101 87.2908 101 87.2908L88.0319 58.6758Z" fill="#E73245"/><path fill-rule="evenodd" clip-rule="evenodd" d="M73.3025 103.273H85.6976V99.127H73.3025V103.273Z" fill="#232144"/><path fill-rule="evenodd" clip-rule="evenodd" d="M72.7126 98.5652H86.33V96.4922H72.7126V98.5652Z" fill="#232144"/><path fill-rule="evenodd" clip-rule="evenodd" d="M70.9682 58.6758L70.8553 87.2908C66.59 87.2668 58 87.2908 58 87.2908L70.9682 58.6758Z" fill="#E73245"/><path fill-rule="evenodd" clip-rule="evenodd" d="M87.2687 89.363V33.623H87.2301C87.2548 33.374 87.2687 33.12 87.2687 32.856C87.2687 23.547 79.5001 16 79.5001 16C79.5001 16 71.7314 23.547 71.7314 32.856C71.7314 33.12 71.7453 33.374 71.769 33.623H71.7314V89.363C69.5186 89.994 67.8966 92.047 67.8966 94.484V96.066H91.1025V94.484C91.1025 92.047 89.4805 89.994 87.2687 89.363Z" fill="#232144"/><path fill-rule="evenodd" clip-rule="evenodd" d="M82.7547 39.4224C82.7547 41.2524 81.2871 42.7354 79.4761 42.7354C77.665 42.7354 76.1964 41.2524 76.1964 39.4224C76.1964 37.5924 77.665 36.1094 79.4761 36.1094C81.2871 36.1094 82.7547 37.5924 82.7547 39.4224Z" fill="white"/><path fill-rule="evenodd" clip-rule="evenodd" d="M77.5431 144H81.2067V105.406H77.5431V144Z" fill="#FBB03B"/><path fill-rule="evenodd" clip-rule="evenodd" d="M76.0509 144H68.7236L76.0509 105.406V144Z" fill="#FBB03B"/><path fill-rule="evenodd" clip-rule="evenodd" d="M82.9865 144H90.3137L82.9865 105.406V144Z" fill="#FBB03B"/></svg>