<svg viewBox="0 0 160 160" fill="none" xmlns="http://www.w3.org/2000/svg"><path d="M105.27 16H55.7301C52.1126 16 49.1801 18.9325 49.1801 22.55V137.44C49.1801 141.057 52.1126 143.99 55.7301 143.99H105.27C108.888 143.99 111.82 141.057 111.82 137.44V22.55C111.82 18.9325 108.888 16 105.27 16Z" fill="#232144"/><path d="M105.2 18.2305H55.8C53.3368 18.2305 51.34 20.2273 51.34 22.6905V137.24C51.34 139.704 53.3368 141.7 55.8 141.7H105.2C107.663 141.7 109.66 139.704 109.66 137.24V22.6905C109.66 20.2273 107.663 18.2305 105.2 18.2305Z" fill="#4B7CFE"/><path d="M65.74 18.2305H95.26C95.26 21.1905 92.85 23.6005 89.89 23.6005H71.1C68.14 23.6005 65.73 21.1905 65.73 18.2305H65.74Z" fill="#232144"/><path d="M88.55 18.6904H72.45V20.2104H88.55V18.6904Z" fill="#E6E3DA"/><path d="M98.8601 67.1504H62.1501C61.4045 67.1504 60.8 67.7548 60.8 68.5004V91.4404C60.8 92.186 61.4045 92.7904 62.1501 92.7904H98.8601C99.6056 92.7904 100.21 92.186 100.21 91.4404V68.5004C100.21 67.7548 99.6056 67.1504 98.8601 67.1504Z" fill="#D8CBC5"/><path d="M78.1701 68.7402H63.7301C63.4263 68.7402 63.1801 68.9865 63.1801 69.2902V89.6602C63.1801 89.964 63.4263 90.2102 63.7301 90.2102H78.1701C78.4738 90.2102 78.7201 89.964 78.7201 89.6602V69.2902C78.7201 68.9865 78.4738 68.7402 78.1701 68.7402Z" fill="#E6E3DA"/><path fill-rule="evenodd" clip-rule="evenodd" d="M65.75 73.6396C66.91 73.6396 67.86 74.5796 67.86 75.7496C67.86 76.9196 66.92 77.8596 65.75 77.8596C64.58 77.8596 63.64 76.9196 63.64 75.7496C63.64 74.5796 64.58 73.6396 65.75 73.6396ZM73.83 75.7496C73.83 76.9096 74.77 77.8596 75.94 77.8596C77.11 77.8596 78.05 76.9196 78.05 75.7496C78.05 74.5796 77.11 73.6396 75.94 73.6396C74.77 73.6396 73.83 74.5796 73.83 75.7496Z" fill="#291028"/><path d="M63.1801 84.8596H78.7201V89.6496C78.7201 89.9496 78.4801 90.1896 78.1801 90.1896H63.6901C63.4101 90.1896 63.1801 89.9596 63.1801 89.6796V84.8496V84.8596Z" fill="#4B7CFE"/><path fill-rule="evenodd" clip-rule="evenodd" d="M75.3 79.2197H76.01V81.9597H75.3V79.2197Z" fill="#291028"/><path d="M76.89 78.9696C76.89 79.7296 76.28 80.3396 75.52 80.3396C74.76 80.3396 74.15 79.7296 74.15 78.9696C74.15 78.2096 74.76 77.5996 75.52 77.5996C76.28 77.5996 76.89 78.2096 76.89 78.9696Z" fill="#F5836D"/><path d="M67.55 78.9796C67.55 79.7396 66.93 80.3596 66.17 80.3596C65.41 80.3596 64.79 79.7396 64.79 78.9796C64.79 78.2196 65.41 77.5996 66.17 77.5996C66.93 77.5996 67.55 78.2196 67.55 78.9796Z" fill="#F5836D"/><path d="M67.4399 85.9901V81.5701L74.2499 81.3701V85.9801C74.2499 87.8601 72.7299 89.3801 70.8499 89.3801C68.9699 89.3801 67.4499 87.8601 67.4499 85.9801" fill="#FE5E57"/><path d="M66.33 80.9098V74.4198C66.33 72.3998 67.97 70.7598 69.99 70.7598H71.69C73.71 70.7598 75.35 72.3998 75.35 74.4198V80.9098C75.35 82.9298 73.71 84.5698 71.69 84.5698H69.99C67.97 84.5698 66.33 82.9298 66.33 80.9098Z" fill="#F5836D"/><path d="M66.3801 79.4604V76.8204C66.3801 74.8104 67.9901 73.1804 69.9801 73.1804H71.7101C73.7001 73.1804 75.3101 74.8104 75.3101 76.8204V79.4604H76.0101V74.5504C76.0101 72.3704 74.2501 70.6104 72.0701 70.6104H69.6201C67.4401 70.6104 65.6801 72.3704 65.6801 74.5504V79.4604H66.3901H66.3801Z" fill="#291028"/><path fill-rule="evenodd" clip-rule="evenodd" d="M65.6801 78.9102H66.3801V81.6502H65.6801V78.9102Z" fill="#291028"/><path fill-rule="evenodd" clip-rule="evenodd" d="M75.3 79.2197H76.01V81.9597H75.3V79.2197Z" fill="#291028"/><path d="M70.9101 80.4397C70.8601 80.4397 70.8101 80.4397 70.7501 80.4197C70.5901 80.3897 70.4501 80.3097 70.3101 80.1797C70.2401 80.1097 70.16 80.0797 70.09 80.0897C69.94 80.0997 69.8201 80.2597 69.8201 80.2597L69.6801 80.1497C69.6801 80.1497 69.8501 79.9297 70.0801 79.9097C70.2001 79.8997 70.3301 79.9397 70.4401 80.0497C70.5501 80.1497 70.6701 80.2197 70.7901 80.2397C70.9201 80.2597 71.0301 80.2497 71.1201 80.1997C71.1601 80.1797 71.2001 80.1497 71.2401 80.1097C71.3001 80.0397 71.4301 79.9297 71.6201 79.9297C71.7701 79.9297 71.9301 79.9897 72.0801 80.1397L71.9601 80.2697C71.8501 80.1597 71.7401 80.1197 71.6301 80.1097C71.5101 80.1097 71.4201 80.1897 71.3801 80.2397C71.3301 80.2997 71.2701 80.3397 71.2101 80.3697C71.1201 80.4197 71.0201 80.4397 70.9201 80.4397H70.9101Z" fill="black"/><path d="M73.1599 76.0303H73.2199C73.7999 76.0303 74.3399 76.3203 74.6899 76.8103H71.6899C72.0399 76.3103 72.5899 76.0303 73.1699 76.0303" fill="#291028"/><path d="M68.4601 76.0303H68.4001C67.8201 76.0303 67.2801 76.3203 66.9301 76.8103H69.9301C69.5801 76.3103 69.0301 76.0303 68.4501 76.0303" fill="#291028"/><path d="M71.44 81.4596C71.37 81.1096 70.84 81.2596 70.84 81.2596L69.62 81.4996C69.62 81.4996 71.86 83.9896 73.14 80.8096L71.92 81.0496C71.92 81.0496 71.37 81.1096 71.44 81.4596Z" fill="#891229"/><path d="M73.93 77.2502C73.85 77.2302 73.76 77.2702 73.73 77.3502C73.22 78.7302 71.78 78.2502 71.78 78.2502C71.78 78.2502 71.97 78.3602 72.24 78.4202C72.97 78.6002 73.73 78.2102 74.03 77.5202C74.03 77.5002 74.04 77.4902 74.05 77.4702C74.09 77.3802 74.03 77.2702 73.93 77.2502Z" fill="black"/><path d="M69.66 78.49C69.66 78.49 69.68 77.55 68.35 77.28C68.16 77.24 67.97 77.24 67.79 77.28C67.64 77.31 67.5 77.36 67.36 77.48C67.36 77.48 67.47 77.74 67.68 78.01L69.66 78.5V78.49Z" fill="black"/><path d="M69.66 78.4897C69.66 78.4897 68.96 77.0197 67.52 77.7797C67.52 77.7797 68.04 79.1997 69.66 78.4897Z" fill="white"/><path d="M68.0699 78.0298C68.0699 78.3198 68.2999 78.5498 68.5899 78.5498C68.8799 78.5498 69.1099 78.3198 69.1099 78.0298C69.1099 77.7398 68.8799 77.5098 68.5899 77.5098C68.2999 77.5098 68.0699 77.7398 68.0699 78.0298Z" fill="black"/><path d="M75.38 73.04H66.35V75.75H75.38V73.04Z" fill="#291028"/><path d="M97.0301 70.0898H81.5601V71.2398H97.0301V70.0898Z" fill="#232144"/><path d="M97.0301 73.1797H81.5601V74.3297H97.0301V73.1797Z" fill="#232144"/><path d="M97.0301 76.2695H81.5601V77.4195H97.0301V76.2695Z" fill="#232144"/><path d="M97.0301 79.3604H81.5601V80.5104H97.0301V79.3604Z" fill="#232144"/><path d="M88.9301 87.5498H81.5601V88.6998H88.9301V87.5498Z" fill="#232144"/><path d="M64.82 63.0498H57.62V64.1798H64.82V63.0498Z" fill="#FF6200"/><path d="M58.75 70.2498V63.0498H57.62V70.2498H58.75Z" fill="#FF6200"/><path d="M57.61 89.6799V96.8799H58.74V89.6799H57.61Z" fill="#FF6200"/><path d="M64.82 95.75H57.62V96.88H64.82V95.75Z" fill="#FF6200"/><path d="M96.19 64.1797H103.39V63.0497H96.19V64.1797Z" fill="#FF6200"/><path d="M103.39 70.2498V63.0498H102.26V70.2498H103.39Z" fill="#FF6200"/><path d="M102.25 89.6799V96.8799H103.38V89.6799H102.25Z" fill="#FF6200"/><path d="M96.19 96.8799H103.39V95.7499H96.19V96.8799Z" fill="#FF6200"/></svg>