<svg viewBox="0 0 160 160" fill="none" xmlns="http://www.w3.org/2000/svg"><path fill-rule="evenodd" clip-rule="evenodd" d="M120.461 27.3585C123.61 27.2865 126.102 24.6735 126.018 21.5295C125.935 18.4015 123.334 15.9305 120.201 16.0015L61.0839 17.2635L61.4929 28.7035L120.461 27.3585Z" fill="#EEA46D"/><path fill-rule="evenodd" clip-rule="evenodd" d="M70.5596 31.4552L129.642 30.5112C132.792 30.4562 135.297 27.8572 135.23 24.7122C135.164 21.5842 132.577 19.0992 129.443 19.1532L70.3196 20.0982L70.5596 31.4552Z" fill="#EEA46D"/><path fill-rule="evenodd" clip-rule="evenodd" d="M79.365 36.3519L138.441 35.0939C141.59 35.0229 144.082 32.4099 143.998 29.2659C143.916 26.1379 141.315 23.6659 138.182 23.7379L79.064 24.9969L79.365 36.3519Z" fill="#EEA46D"/><path fill-rule="evenodd" clip-rule="evenodd" d="M99.9512 38.2606L97.5222 60.9286C97.1412 64.0416 99.3602 66.8736 102.479 67.2556C105.597 67.6366 108.434 65.4226 108.816 62.3096L112.47 35.7676L99.9512 38.2606Z" fill="#EEA46D"/><path fill-rule="evenodd" clip-rule="evenodd" d="M95.9961 94.0334C91.0251 91.3544 87.5531 83.8754 87.5531 75.8464C87.5531 70.8824 88.8611 66.2014 91.2361 62.6664C93.6971 59.0024 97.0111 56.9844 100.568 56.9844C104.125 56.9844 107.439 59.0024 109.9 62.6664C112.275 66.2014 113.583 70.8824 113.583 75.8464C113.583 82.3094 111.311 88.6774 107.796 92.0694L106.343 90.5694C109.471 87.5514 111.492 81.7724 111.492 75.8464C111.492 66.5964 106.592 59.0714 100.568 59.0714C94.5441 59.0714 89.6431 66.5964 89.6431 75.8464C89.6431 83.1424 92.6641 89.8664 96.9891 92.1974L95.9961 94.0334Z" fill="#463EC5"/><path fill-rule="evenodd" clip-rule="evenodd" d="M105.947 89.4375C107.033 88.5065 108.67 88.6315 109.602 89.7155C110.534 90.8005 110.409 92.4335 109.323 93.3645C108.237 94.2955 106.601 94.1705 105.668 93.0865C104.736 92.0025 104.861 90.3685 105.947 89.4375ZM102.953 85.9545C97.7221 90.4375 97.1221 98.3035 101.611 103.527C104.854 107.299 109.867 108.658 114.372 107.432L117.054 110.552L118.258 109.521L136.192 130.382L140.602 130.218L141.544 125.795L138.712 122.501L136.274 122.659L136.8 120.277L136.428 119.845L132.755 119.398L132.87 115.706L132.179 114.902L128.792 115.66L129.735 112.06L129.372 111.638L125.693 111.184L125.802 107.484L123.61 104.935L124.814 103.903L122.268 100.942C124.421 96.5975 123.914 91.2045 120.552 87.2945C116.063 82.0725 108.183 81.4725 102.953 85.9545Z" fill="#ABB8B9"/><path fill-rule="evenodd" clip-rule="evenodd" d="M96.0089 90.5216C97.4409 90.5216 98.601 91.6806 98.601 93.1096C98.601 94.5386 97.4409 95.6966 96.0089 95.6966C94.5769 95.6966 93.417 94.5386 93.417 93.1096C93.417 91.6806 94.5769 90.5216 96.0089 90.5216ZM96.0089 85.9316C89.1159 85.9316 83.528 91.5106 83.528 98.3926C83.528 103.365 86.445 107.655 90.663 109.655V113.766H92.25V141.258L95.7029 144.001L99.303 141.258V136.916L97.349 135.451L99.303 133.985V133.416L96.807 130.689L99.303 127.961V126.902L96.239 125.275L99.302 123.156V122.6L96.807 119.863L99.302 117.127V113.766H100.889V109.865C105.357 107.968 108.49 103.546 108.49 98.3926C108.49 91.5106 102.902 85.9316 96.0089 85.9316Z" fill="#FF6200"/><path fill-rule="evenodd" clip-rule="evenodd" d="M100.568 95.2174C98.993 95.2174 97.454 94.8184 95.996 94.0324L96.989 92.1964C98.139 92.8164 99.343 93.1304 100.568 93.1304C102.609 93.1304 104.606 92.2444 106.343 90.5684L107.796 92.0684C105.661 94.1284 103.162 95.2174 100.568 95.2174Z" fill="#463EC5"/><path fill-rule="evenodd" clip-rule="evenodd" d="M77.6561 37.0207C81.7801 38.3307 102.974 44.1627 102.974 44.1627L112.536 35.7677L70.4831 17.2227L16.0001 17.3227V62.3007L45.6771 50.1387L67.5541 59.4277L89.9381 69.8067C92.5851 71.5457 96.2761 70.9857 98.1691 68.5587L98.5861 67.7767C100.442 65.3987 99.8671 62.1067 97.2981 60.3687C97.2981 60.3687 78.0871 50.1027 71.6631 46.7127C65.1581 43.2817 69.3351 34.3787 77.6561 37.0207Z" fill="#EEA46D"/></svg>