<?xml version="1.0" encoding="utf-8"?><!--Generator: Adobe Illustrator 27.8.0, SVG Export Plug-In . SVG Version: 6.00 Build 0)--><svg version="1.1" xmlns="http://www.w3.org/2000/svg" xmlns:xlink="http://www.w3.org/1999/xlink" x="0px" y="0px" viewBox="0 0 160 160" style="enable-background:new 0 0 160 160;" xml:space="preserve"><style type="text/css">.st0{fill:#FFC6AD;}
	.st1{fill:#F7931E;}
	.st2{fill:#8B181D;}
	.st3{fill:#F5836D;}
	.st4{fill:#FFA28F;}
	.st5{fill:#ABB8B9;}
	.st6{fill:#FBB03B;}
	.st7{fill:#F7E5CD;}
	.st8{fill:#BAC09A;}
	.st9{fill:#463EC5;}
	.st10{fill:#693725;}
	.st11{fill:#FAA332;}
	.st12{fill:#E73245;}
	.st13{fill:#8F411F;}
	.st14{fill:#F68D3D;}
	.st15{fill:#569B7B;}
	.st16{fill:#FFFFFF;}
	.st17{fill:#AACDE5;}
	.st18{fill:#232144;}
	.st19{fill:#A86554;}
	.st20{fill:#FFBD7A;}
	.st21{fill:#E6E3DA;}
	.st22{fill:#4B7CFE;}
	.st23{fill:#D8CBC5;}
	.st24{fill:#FF6200;}
	.st25{fill:#F0A86B;}
	.st26{fill:#E3944F;}
	.st27{fill:#191C15;}
	.st28{fill:#420F0F;}
	.st29{fill:#7D441C;}
	.st30{fill:none;stroke:#000000;stroke-width:0.6944;stroke-miterlimit:10;}
	.st31{fill:#01464D;}
	.st32{fill:#7A2F37;}
	.st33{fill:#9E3F39;}
	.st34{fill:none;stroke:#ABB8B9;stroke-width:3;stroke-miterlimit:10;}
	.st35{fill:#891229;}
	.st36{fill:#7070FF;}
	.st37{fill:#32785A;}
	.st38{fill:#D3E8F3;}
	.st39{fill:#006931;}
	.st40{clip-path:url(#SVGID_00000098928888944591529630000015371231082995933858_);}
	.st41{fill:#9A4039;}
	.st42{fill:none;stroke:#232144;stroke-width:2;stroke-miterlimit:10;}
	.st43{fill:#F5B091;}
	.st44{fill:none;stroke:#000000;stroke-width:1.3429;stroke-miterlimit:10;}
	.st45{fill:#D93B34;}
	.st46{fill:#FE5E57;}
	.st47{clip-path:url(#XMLID_00000013176795983815733340000012976815153157432214_);fill:#F7931E;}
	.st48{fill:#763427;}</style><g id="stramien"/><g id="Design"><polygon class="st13" points="69.3,119 27.8,117.6 30.9,144 72.8,144 	"/><path class="st13" d="M34.3,59.7c-3.1,0.1-5.4,2.8-5.5,5.9l-0.5,26.2c0,2.7-0.3,15.3-0.3,15.3l11.5,0.3l0.7-41.8
		C40.4,62.3,37.6,59.6,34.3,59.7z"/><polygon class="st13" points="27.8,117.7 28.4,91.9 48,77.8 78.5,108.8 57.5,131.5 	"/><path class="st13" d="M106.7,45.8L106.7,45.8c-2.2-2.3-5.7-2.4-8-0.2L45.3,96.2l7.8,8.2l53.4-50.6
		C108.8,51.7,108.9,48.1,106.7,45.8z"/><g><path class="st18" d="M43.6,123.2l44.4,0c2.4,0,4.3-1.7,4.3-3.9l-0.1-99.4c0-2.1-1.9-3.9-4.3-3.9l-44.4,0c-2.4,0-4.3,1.7-4.3,3.9
			l0.1,99.4C39.3,121.5,41.3,123.2,43.6,123.2z"/><path class="st21" d="M43,114.9l45.7,0c0.9,0,1.7-0.7,1.7-1.5l-0.1-86.9c0-0.8-0.8-1.5-1.7-1.5l-45.7,0c-0.9,0-1.7,0.7-1.7,1.5
			l0.1,86.9C41.3,114.3,42.1,114.9,43,114.9z"/><g><path class="st21" d="M60.4,22.3c0,0.5,0.4,0.9,1,0.9l12,0c0.5,0,1-0.4,1-0.9l0,0c0-0.5-0.4-0.9-1-0.9l-12,0
				C60.8,21.4,60.4,21.8,60.4,22.3L60.4,22.3z"/></g></g><path class="st21" d="M73.6,120.7l-14,0c-0.9,0-1.6-0.7-1.6-1.6l0,0c0-0.9,0.7-1.6,1.6-1.6l14,0c0.9,0,1.6,0.7,1.6,1.6v0
		C75.2,120,74.5,120.7,73.6,120.7z"/><path class="st13" d="M93.3,80.4L93.3,80.4c3.3-0.3,6.2,2.2,6.5,5.6l0.1,0.9c0.3,3.3-2.2,6.2-5.6,6.5h0c-3.3,0.3-6.2-2.2-6.5-5.6
		l-0.1-0.9C87.5,83.6,90,80.7,93.3,80.4z"/><path class="st13" d="M91.8,65.9L91.8,65.9c3.3-0.3,6.2,2.2,6.5,5.6l0.1,0.9c0.3,3.3-2.2,6.2-5.6,6.5h0c-3.3,0.3-6.2-2.2-6.5-5.6
		l-0.1-0.9C86,69,88.4,66.1,91.8,65.9z"/><path class="st13" d="M93.6,95.5L93.6,95.5c2.9-0.2,5.5,2,5.7,4.9l0.1,0.7c0.2,2.9-2,5.5-4.9,5.7h0c-2.9,0.2-5.5-2-5.7-4.9
		l-0.1-0.7C88.5,98.2,90.7,95.7,93.6,95.5z"/><g><circle class="st24" cx="57.1" cy="62.2" r="1.4"/><circle class="st24" cx="61.6" cy="62.3" r="1.4"/><circle class="st24" cx="66.1" cy="62.3" r="1.4"/><circle class="st24" cx="70.6" cy="62.3" r="1.4"/><circle class="st24" cx="75.1" cy="62.3" r="1.4"/></g><circle class="st23" cx="54.9" cy="73.9" r="2.9"/><circle class="st23" cx="66.1" cy="73.9" r="2.9"/><circle class="st23" cx="77.3" cy="73.9" r="2.9"/><circle class="st23" cx="54.9" cy="83.5" r="2.9"/><circle class="st23" cx="66.1" cy="83.5" r="2.9"/><circle class="st23" cx="77.3" cy="83.5" r="2.9"/><circle class="st23" cx="54.9" cy="93.2" r="2.9"/><circle class="st23" cx="66.1" cy="93.2" r="2.9"/><circle class="st23" cx="77.3" cy="93.2" r="2.9"/><circle class="st23" cx="66.1" cy="102.9" r="2.9"/><path class="st23" d="M56.4,103.6h-3.2c-0.5,0-0.9-0.4-0.9-0.9l0,0c0-0.5,0.4-0.9,0.9-0.9h3.2c0.5,0,0.9,0.4,0.9,0.9l0,0
		C57.3,103.2,56.9,103.6,56.4,103.6z"/><path class="st23" d="M78.9,103.6h-3.2c-0.5,0-0.9-0.4-0.9-0.9l0,0c0-0.5,0.4-0.9,0.9-0.9h3.2c0.5,0,0.9,0.4,0.9,0.9l0,0
		C79.8,103.2,79.4,103.6,78.9,103.6z"/><path class="st24" d="M73,50.9H61.7c-1,0-1.8-0.8-1.8-1.8V37.9c0-1,0.8-1.8,1.8-1.8H73c1,0,1.8,0.8,1.8,1.8v11.3
		C74.8,50.1,74,50.9,73,50.9z"/><circle class="st21" cx="44.5" cy="21.4" r="1.8"/><circle class="st21" cx="57.8" cy="22.3" r="0.9"/></g></svg>