<?xml version="1.0" encoding="UTF-8"?><svg id="Food" xmlns="http://www.w3.org/2000/svg" viewBox="0 0 160 160"><defs><style>.cls-1{fill:#006f1c;}.cls-2{fill:#9b001b;}.cls-3{fill:#ffc4a1;}.cls-4{fill:#e7e4d7;}.cls-5{fill:#ffb000;}.cls-6{fill:#ffd3a8;}.cls-7{fill:#f07;}.cls-8{fill:#fff;}.cls-9{fill:#5d281d;}.cls-10{fill:#ffad80;}.cls-11{fill:red;}.cls-12{fill:#ff9550;}</style></defs><path class="cls-7" d="M51.07,143.81h27.15l.12-9.47.9-3.33v-.02s.06-.03.06-.03l.9,3.33.12,9.51h27.15l-.42-5.4c-.07-.95-.18-1.89-.33-2.81,0,0,0,0,0,0,0-11.32-8.54-41.95-8.54-41.95l-38.38.11s-8.1,29.67-8.1,42.6c0,0,0,0,0,0-.09.69-.16,1.39-.22,2.09l-.42,5.35Z"/><polygon class="cls-4" points="60.17 94.91 58.28 56.08 99.54 55.22 98.93 95.08 60.17 94.91"/><polygon class="cls-10" points="95.63 74.53 101.46 87.86 114.64 88.66 107.56 61.3 95.63 74.53"/><polygon class="cls-10" points="59.86 76.09 61.03 90.23 49.99 91.86 50.27 71.56 59.86 76.09"/><polygon class="cls-4" points="88.6 81.88 113.02 81.53 108.22 62.96 90.37 64.76 88.6 81.88"/><polygon class="cls-4" points="60.72 95.49 59.85 55.8 98.95 55.8 98.38 95.49 60.72 95.49"/><path class="cls-4" d="M51.12,65.97c-.39-5.21,3.51-9.75,8.71-10.14,5.2-.39,9.74,3.51,10.13,8.72.39,5.21-5.96,13.24-5.96,13.24,0,0-12.49-6.61-12.88-11.81Z"/><path class="cls-4" d="M108.36,65.39c.39-5.21-3.51-9.75-8.71-10.14-5.2-.39-9.74,3.51-10.13,8.72-.39,5.21,5.96,13.24,5.96,13.24,0,0,12.49-6.61,12.88-11.81Z"/><path class="cls-10" d="M72.49,56.42v-9.11s14.03.02,14.03.02v9.09c0,3.88-3.14,7.02-7.01,7.02h0c-3.87,0-7.01-3.14-7.01-7.02Z"/><polygon class="cls-4" points="69.29 81.71 47.85 81.71 51.27 63.43 69 65.16 69.29 81.71"/><path class="cls-12" d="M136.35,58.5l-90.91,83.01c-3.78,3.45-9.72,3.3-13.27-.34l-1.4-1.43,104.78-95.68,1.21,1.24c3.66,3.74,3.47,9.66-.42,13.21Z"/><polygon class="cls-6" points="30.7 139.66 135.48 43.98 137.15 45.7 32.37 141.37 30.7 139.66"/><path class="cls-7" d="M29.02,137.9l104.77-95.67c.89-.82,2.3-.78,3.14.08l.42.43L29.34,141.38l-.42-.43c-.84-.86-.8-2.22.1-3.04Z"/><path class="cls-12" d="M23.8,116.69L113.37,34.9c3.96-3.61,10.19-3.45,13.91.36l1.92,1.96L25.08,132.29l-1.72-1.76c-3.83-3.92-3.64-10.12.44-13.84Z"/><polygon class="cls-6" points="23.86 131.04 127.98 35.97 129.17 37.2 25.06 132.26 23.86 131.04"/><path class="cls-11" d="M47.87,116.81l-15.44,14.1c-.3.28-.78.26-1.07-.03l-.98-1c-.29-.29-.27-.75.03-1.03l15.44-14.1c.3-.28.78-.26,1.07.03l.98,1c.29.29.27.75-.03,1.03Z"/><path class="cls-5" d="M133.77,42.21L28.99,137.88l-.32-.33c-.92-.94-.87-2.42.1-3.31l101.25-92.45c.97-.89,2.5-.85,3.42.09l.32.33Z"/><path class="cls-1" d="M133.43,38.67L25.82,136.93l-.4-.41c-1.29-1.33-1.23-3.42.15-4.68l102.62-93.71c1.38-1.26,3.54-1.2,4.84.13l.4.41Z"/><path class="cls-5" d="M28.99,137.88l9.23-4.2c.79-.31,1.48-.82,1.99-1.49l13.62-16.99-15.82,12.25-9.02,10.43Z"/><path class="cls-5" d="M53.83,115.2l25.32-18.63c.39-.27.74-.6,1.03-.97l15.49-18.6-18.24,14.74-23.61,23.47Z"/><path class="cls-5" d="M95.67,76.99l22.14-15.68c.48-.32.89-.71,1.23-1.17l14.41-18.26-35.33,30.68-2.44,4.43Z"/><path class="cls-3" d="M102.14,68.95h0c-.32-.7-1.15-1-1.85-.68l-1.22.56c.7-.32,1-1.15.68-1.85h0c-.32-.7-1.15-1-1.85-.68l-9.32,4.33,1.51-2.5c.42-.69.19-1.6-.5-2.02h0c-.69-.42-1.6-.2-2.02.5l-5.37,8.91-27.92,7.87c-3.5.99-5.43,4.73-4.22,8.16h0c1.22,3.46,5.13,5.14,8.48,3.65l26.89-11.94,7.71-3.25h0s7.04-2.93,7.04-2.93c.71-.29,1.05-1.11.76-1.82h0c-.19-.46-.59-.76-1.04-.84l1.05-.49c.7-.32,1-1.15.68-1.85h0c-.23-.49-.7-.78-1.2-.8l1.04-.48c.7-.32,1-1.15.68-1.85Z"/><path class="cls-3" d="M60.18,104.38h0c-.18-.75.28-1.5,1.03-1.69l1.3-.32c-.75.18-1.5-.28-1.68-1.03h0c-.18-.75.28-1.5,1.03-1.69l9.99-2.42-2.74-1.02c-.76-.28-1.15-1.13-.86-1.89h0c.28-.76,1.13-1.15,1.89-.87l9.75,3.63,26.74-11.23c3.35-1.41,7.2.31,8.38,3.75h0c1.2,3.47-.81,7.22-4.36,8.14l-28.48,7.4-8.06,2.26v-.02s-7.32,2.11-7.32,2.11c-.74.21-1.51-.21-1.73-.95h0c-.14-.47,0-.96.29-1.31l-1.13.27c-.75.18-1.5-.28-1.68-1.03h0c-.13-.52.06-1.04.44-1.37l-1.12.27c-.75.18-1.5-.28-1.68-1.03Z"/><path class="cls-9" d="M78.11,16c-4.43.02-8,3.64-7.98,8.07,0,.37.03.73.08,1.08-.14,0-.29-.01-.44-.01-3.72.02-6.72,3.06-6.7,6.78,0,.95.21,1.86.57,2.68-3.25,2.56-4.92,6.85-3.94,11.15h0s0,0,0,0c3.96-.9,6.93-3.83,8.08-7.44.65.21,1.34.31,2.06.31,3.71-.02,6.7-3.03,6.7-6.73.53.11,1.08.16,1.64.16,4.43-.02,8-3.64,7.98-8.07-.02-4.43-3.64-8-8.07-7.98Z"/><circle class="cls-3" cx="89.08" cy="39.5" r="2.81" transform="translate(49.47 128.53) rotate(-89.93)"/><circle class="cls-3" cx="69.99" cy="39.47" r="2.81" transform="translate(30.44 109.41) rotate(-89.93)"/><path class="cls-7" d="M90.52,42.03c0-.7-.89-1.27-1.99-1.27s-1.99.57-1.99,1.27v3.5s3.98,0,3.98,0v-3.5Z"/><path class="cls-7" d="M68.4,42.03c0-.7.89-1.27,1.99-1.27s1.99.57,1.99,1.27v3.5s-3.98,0-3.98,0v-3.5Z"/><polyline class="cls-10" points="72.57 57.25 72.58 48.23 86.48 47.84 86.47 57.27"/><rect class="cls-3" x="70.33" y="24.55" width="18.42" height="27.83" rx="7.43" ry="7.43" transform="translate(.05 -.09) rotate(.07)"/><path d="M79.5,44.1c-.11,0-.21-.01-.33-.03-.32-.07-.62-.23-.9-.49-.15-.14-.29-.2-.45-.19-.31.03-.55.34-.55.34l-.29-.23s.34-.45.81-.49c.26-.02.51.07.73.28.23.21.47.35.72.4.26.05.48.03.68-.07.08-.04.16-.11.24-.19.1-.11.37-.36.76-.38.32-.01.63.13.94.43l-.25.27c-.23-.22-.46-.33-.67-.32-.25,0-.44.18-.51.26-.11.12-.22.21-.34.27-.18.09-.38.14-.59.14Z"/><path class="cls-2" d="M79.55,46.82c0-.79-1.21-.68-1.21-.68h-2.73c.03-.16,3.85,5.86,7.87,0h-2.73s-1.21-.11-1.21.68h0Z"/><path class="cls-9" d="M74.8,34.85h-.11c-1.18,0-2.29.59-3,1.59h0l6.13-.02h0c-.72-.99-1.83-1.57-3.01-1.57h0Z"/><path class="cls-9" d="M84.3,34.75h-.11c-1.18.05-2.27.68-2.94,1.7h0l6.12-.23h0c-.75-.97-1.89-1.51-3.07-1.46h0Z"/><path class="cls-8" d="M77.08,40.16s-.67-1.44-1.96-1.89-2.71.26-2.71.26c0,0,.51,1.18,1.8,1.63s2.87,0,2.87,0Z"/><circle cx="74.56" cy="39.17" r="1.12" transform="translate(35.3 113.68) rotate(-89.93)"/><path d="M77.08,40.16c-.33-2.3-3.24-3.29-5.03-2.21.11.18.32.53.43.71.4-.24,2.45-1.07,4.32,1.17.11.14.13.19.29.33Z"/><path class="cls-8" d="M81.62,40.19s.67-1.44,1.96-1.89,2.71.27,2.71.27c0,0-.52,1.17-1.81,1.62s-2.87,0-2.87,0Z"/><circle cx="83.96" cy="39.25" r="1.12" transform="translate(44.61 123.17) rotate(-89.93)"/><path d="M81.62,40.19c.34-2.3,3.25-3.28,5.04-2.2-.11.18-.32.53-.43.71-.4-.24-2.45-1.07-4.32,1.16-.11.14-.13.19-.29.33Z"/><path class="cls-9" d="M70.44,39.87v-3.33c0-4.1,3.3-7.42,7.35-7.42h1.22s1.09,0,1.09,0h1.22c4.05,0,7.33,3.33,7.33,7.44v3.33s1.44,0,1.44,0v-7.96c.01-4.44-3.58-8.05-8.03-8.06h-4.99c-4.44-.01-8.05,3.59-8.06,8.03v7.96s1.43,0,1.43,0Z"/><rect class="cls-3" x="71.83" y="39.78" width="15.51" height="1.62" transform="translate(.05 -.09) rotate(.07)"/><rect class="cls-3" x="74.68" y="27.1" width=".67" height="4.18" transform="translate(.03 -.09) rotate(.07)"/></svg>