<?xml version="1.0" encoding="UTF-8"?><svg id="Design" xmlns="http://www.w3.org/2000/svg" xmlns:xlink="http://www.w3.org/1999/xlink" viewBox="0 0 160 160"><defs><style>.cls-1 {
        clip-path: url(#clippath);
      }

      .cls-2, .cls-3 {
        fill: #fff;
      }

      .cls-4, .cls-5, .cls-6, .cls-7, .cls-8, .cls-3, .cls-9, .cls-10 {
        stroke-width: 0px;
      }

      .cls-5 {
        fill: #463ec3;
      }

      .cls-6 {
        fill: #7070fd;
      }

      .cls-7 {
        fill: #1d1d1c;
      }

      .cls-8 {
        fill: #a9b6b7;
      }

      .cls-9 {
        fill: #e4e1d8;
      }

      .cls-10 {
        fill: #fbb03b;
      }</style><clipPath id="clippath"><path class="cls-3" d="m88.25,43.54c-2.27,1.32-5.18.54-6.5-1.73-1.32-2.27-.54-5.18,1.73-6.5,2.27-1.32,5.18-.54,6.5,1.73,1.32,2.27.54,5.18-1.73,6.5"/></clipPath></defs><path class="cls-9" d="m107.22,34.6c-7.14-20.71-26.45-18.6-26.45-18.6h-14.4l-32.41,12.18-17.97,9.09v106.73h23.04l53.13-66.1,36.57-6.5c8.91-1.67,11.52-8.2,12.35-14.71l2.91-22.08h-36.78Z"/><g><path class="cls-2" d="m88.25,43.54c-2.27,1.32-5.18.54-6.5-1.73-1.32-2.27-.54-5.18,1.73-6.5,2.27-1.32,5.18-.54,6.5,1.73,1.32,2.27.54,5.18-1.73,6.5"/><g class="cls-1"><path class="cls-4" d="m90.51,47.52c-2.27,1.32-5.18.54-6.5-1.73-1.32-2.27-.54-5.18,1.73-6.5,2.27-1.32,5.18-.54,6.5,1.73,1.32,2.27.54,5.18-1.73,6.5"/></g></g><path class="cls-8" d="m66.38,16h-34.29s-16.09,41.04-16.09,41.04c3.62.73,9.46.8,13.33.54,23.32-1.57,38.63-18.26,37.05-41.58Z"/><path class="cls-5" d="m84.8,76.04c-.8-.54-1.56-1.18-2.29-1.89-5,4.11-9.96,13.77-9.96,35.88l.04,33.98h2.94s-.04-33.98-.04-33.98c0-17.55,3.39-29.57,9.31-33.98Z"/><path class="cls-7" d="m92.17,77.9c-14.02-4.62-15.79-12.22-15.81-12.29l-2.25.44c.07.36,1.85,8.66,16.52,13.77l1.54-1.91Z"/><polygon class="cls-6" points="16 112.07 46.26 135.02 39.04 144 16 144 16 112.07"/><path class="cls-5" d="m101.28,76.28l-3.68.66c4.48,3.4,7.88,10.03,10.16,19.86l2.86-.66c-2.3-9.92-5.63-16.12-9.34-19.85Z"/><path class="cls-10" d="m113,134.24c.34,1.45-.57,2.9-2.02,3.24s-2.9-.57-3.24-2.02l-2.59-11.16,5.26-1.22,2.59,11.16Z"/><path class="cls-10" d="m127.26,130.93c.34,1.45-.57,2.9-2.02,3.24-1.45.34-2.9-.57-3.24-2.02l-2.59-11.16,5.26-1.22,2.59,11.16Z"/><path class="cls-6" d="m111.53,91.63h0c8.11,0,14.69,6.58,14.69,14.69v13.65h-29.37v-13.65c0-8.11,6.58-14.69,14.69-14.69Z" transform="translate(-21.02 27.94) rotate(-13.06)"/><path class="cls-5" d="m100.26,125.44c-1.66.39-3.33-.65-3.71-2.31s.65-3.33,2.31-3.71l29.31-6.8c1.66-.39,3.33.65,3.71,2.31s-.65,3.33-2.31,3.71l-29.31,6.8Z"/><polygon class="cls-4" points="133.11 34.6 142.55 45.58 144 34.6 133.11 34.6"/></svg>