<?xml version="1.0" encoding="UTF-8"?><svg xmlns="http://www.w3.org/2000/svg" xmlns:xlink="http://www.w3.org/1999/xlink" viewBox="0 0 160 160"><defs><style>.cls-1{fill:none;}.cls-2{fill:#feb200;}.cls-3,.cls-4{fill:#ec2b3b;}.cls-5{fill:#bac196;}.cls-6{fill:#6e65ff;}.cls-7{fill:#f9ae3b;}.cls-8{fill:#fb9400;}.cls-9{fill:#452fcc;}.cls-10{fill:#006b2c;}.cls-4{stroke:#fff;stroke-miterlimit:10;stroke-width:2.79px;}.cls-11{fill:#eb1e79;}.cls-12{fill:#f8e6ca;}.cls-13{fill:#231f46;}.cls-14{fill:#7070fd;}.cls-15{clip-path:url(#clippath);}.cls-16{fill:#f4e3cb;}</style><clipPath id="clippath"><circle class="cls-1" cx="80" cy="90.76" r="47.98"/></clipPath></defs><g id="Confetti"><path class="cls-7" d="M20.7,118.18c.31-.81.71-1.56,1.2-2.22l.49.36c-.95,1.3-1.56,2.95-1.77,4.76-.36,3.16.54,6.43,2.35,8.54.79.92,1.73,1.59,2.78,1.98,0-.13-.01-.27-.01-.4-.05-2.46.79-3.34,1.51-3.64,1.12-.47,2.49.2,3.35,1.07.86.87,1.18,1.89.84,2.65-.29.65-1.17,1.4-3.74,1.31-.43-.02-.85-.07-1.25-.16.53,3.7,3.06,5.59,5.2,6.55,4.55,2.03,10.36,1.31,12.06-.16l.39.46c-.99.85-2.99,1.43-5.37,1.53-2.61.12-5.21-.34-7.33-1.28-2.34-1.04-5.11-3.14-5.59-7.27-1.24-.4-2.36-1.16-3.29-2.24-1.92-2.23-2.87-5.68-2.49-9,.11-1,.34-1.95.68-2.83ZM30.89,130.99c.2-.52-.09-1.28-.74-1.94-.69-.71-1.83-1.3-2.69-.94-.78.33-1.17,1.39-1.14,3.07,0,.21.01.41.03.61.43.11.88.18,1.35.19,1.74.07,2.87-.27,3.17-.95,0-.01.01-.03.02-.04Z"/><circle class="cls-16" cx="26.33" cy="22.37" r="2.19"/><circle class="cls-10" cx="135.27" cy="59.88" r="1.9"/><rect class="cls-11" x="76.73" y="17.98" width="1.56" height="10.24" transform="translate(11.98 70.5) rotate(-52.47)"/><path class="cls-7" d="M121.67,38.92c1.18.67,1.65.61,2.47.47,1.07-5.81,13.72-8.38,8.2-10.74-1.24-.22-1.75-.34-2.13-.45,1.6,3.43-6.97,2.89-8.53,10.71Z"/><path class="cls-10" d="M38.63,114.86c-1.59-3-2.38-4.5-3.97-7.49-1.58-.02-2.39-.02-4.06,0,2.93,4.16,4.39,6.24,7.32,10.4.24-1.14.38-1.72.7-2.91Z"/><rect class="cls-14" x="23.75" y="38.22" width="10.68" height="2.5" transform="translate(77.57 46.8) rotate(135)"/><circle class="cls-7" cx="124.13" cy="138.73" r="1.57" transform="translate(-62 142.27) rotate(-49.27)"/><rect class="cls-11" x="130.28" y="121.73" width="9.98" height="2.33" transform="translate(-46.22 101.34) rotate(-35.48)"/><circle class="cls-10" cx="24.78" cy="57.97" r="1.54" transform="translate(-4.17 1.96) rotate(-4.19)"/><circle class="cls-16" cx="22.51" cy="99.06" r="1.66" transform="translate(-78.81 106.39) rotate(-81.33)"/><circle class="cls-13" cx="109.21" cy="21.45" r="1.61"/><circle class="cls-5" cx="52.97" cy="24.56" r="1.75"/></g><g id="Lottery"><circle class="cls-13" cx="80" cy="90.76" r="53.47"/><g class="cls-15"><polygon class="cls-8" points="98.64 46.48 80 90.76 124.45 72.65 119.99 57.51 109.14 48.41 98.64 46.48"/><polygon class="cls-9" points="124.45 72.65 80 90.76 124.1 109.31 129.53 103.89 130.05 81.49 124.45 72.65"/><polygon class="cls-2" points="124.1 109.31 80 90.76 98.06 135.22 102.66 135.92 122.7 117.1 124.1 109.31"/><polygon class="cls-6" points="98.06 135.22 80 90.76 61.27 134.95 63.99 138.89 90.68 141.08 98.06 135.22"/><polygon class="cls-8" points="61.27 134.95 80 90.76 35.45 108.86 36.33 117.88 51.66 133.79 61.27 134.95"/><polygon class="cls-9" points="35.45 108.86 80 90.76 35.74 72.05 30.24 78.35 31.49 102.48 35.45 108.86"/><polygon class="cls-2" points="35.74 72.05 80 90.76 61.85 46.23 49.75 48.29 36.11 64.64 35.74 72.05"/></g><path class="cls-3" d="M101.9,38.9c-6.68-3-14.09-4.67-21.9-4.67s-14.7,1.56-21.19,4.36l21.19,52.17,21.9-51.86Z"/><circle class="cls-13" cx="80" cy="90.76" r="5.88"/><polygon class="cls-4" points="80 37.18 92.79 15.04 67.21 15.04 80 37.18"/><path class="cls-12" d="M83.83,57.8c0,.3-.13.43-.41.43h-4.7c.48,2.21,1.73,3.66,4.22,3.66,1.12,0,2.11-.3,2.95-.61.36-.13.56-.13.69.15l.66,1.4c.18.38.1.59-.2.74-1.25.66-2.85,1.07-4.6,1.07-3.84,0-6.28-2.44-7.01-6.4h-1.65c-.28,0-.41-.13-.41-.43v-1.22c0-.31.13-.43.41-.43h1.42v-.71c0-.33,0-.66.02-.99h-1.3c-.28,0-.41-.13-.41-.43v-1.22c0-.3.13-.43.41-.43h1.57c.81-3.86,3.23-6.53,7.22-6.53,1.96,0,3.33.48,4.34,1.22.31.23.36.43.2.74l-.71,1.3c-.18.31-.43.43-.74.25-1.02-.56-1.65-.84-2.85-.84-2.19,0-3.63,1.32-4.24,3.86h4.85c.28,0,.41.13.41.43v1.22c0,.3-.13.43-.41.43h-5.11c-.02.28-.02.59-.02.86v.84h4.98c.28,0,.41.13.41.43v1.22Z"/></g></svg>