<svg viewBox="0 0 160 160" fill="none" xmlns="http://www.w3.org/2000/svg"><path fill-rule="evenodd" clip-rule="evenodd" d="M102.202 97.3052L85.5516 81.957L87.3746 79.9954L83.2896 76.2295L74.9656 85.1832L79.0516 88.949L80.8356 87.0292L97.4856 102.378L102.202 97.3052Z" fill="#463EC5"/><path fill-rule="evenodd" clip-rule="evenodd" d="M134.149 141L86.684 97.246L96.535 86.6504L144 130.404L134.149 141Z" fill="#FAA332"/><path fill-rule="evenodd" clip-rule="evenodd" d="M79.0381 79.8826C65.9901 93.9175 43.9861 94.7619 29.8921 81.7695C15.7971 68.7771 14.9491 46.867 27.9971 32.8331C41.0451 18.7982 63.0491 17.9538 77.1431 30.9461C91.2381 43.9385 92.0861 65.8477 79.0381 79.8826Z" fill="#F7E5CD"/><path fill-rule="evenodd" clip-rule="evenodd" d="M50.2231 24.6584C42.7491 25.4241 35.5141 28.7897 30.0211 34.6984C18.0271 47.5991 18.8091 67.8116 31.7651 79.7544C44.7211 91.6973 65.0201 90.9186 77.0141 78.0179C89.0081 65.1171 88.2261 44.9047 75.2701 32.9608C68.2481 26.4885 59.0681 23.7523 50.2231 24.6584ZM57.3801 93.5175C47.0101 94.58 36.2511 91.3737 28.0181 83.7842C12.8311 69.7841 11.9131 46.0906 25.9741 30.9674C40.0341 15.8441 63.8291 14.931 79.0171 28.9311C94.2041 42.9321 95.1221 66.6247 81.0621 81.7479C74.6231 88.6733 66.1401 92.6194 57.3801 93.5175Z" fill="#463EC5"/><path fill-rule="evenodd" clip-rule="evenodd" d="M76.6086 42.0381C75.6676 45.9534 66.8596 47.21 56.9356 44.8441C47.0116 42.4792 39.7296 37.388 40.6706 33.4728C41.6126 29.5586 50.4196 28.3019 60.3436 30.6668C70.2676 33.0317 77.5496 38.1229 76.6086 42.0381Z" fill="white"/></svg>