<svg viewBox="0 0 160 160" fill="none" xmlns="http://www.w3.org/2000/svg"><path fill-rule="evenodd" clip-rule="evenodd" d="M124.6 144V25.6C124.6 20.3 120.3 16 115 16H42.64C37.34 16 33.04 20.3 33.04 25.6V144H124.61H124.6Z" fill="#232144"/><path fill-rule="evenodd" clip-rule="evenodd" d="M120.94 144V26.4399C120.94 22.8399 118.06 19.9199 114.5 19.9199H43.14C39.58 19.9199 36.7 22.8399 36.7 26.4399V144H120.94Z" fill="#E6E3DA"/><path d="M57.34 19.8301H100.5C100.5 24.1601 96.98 27.6801 92.65 27.6801H65.18C60.85 27.6801 57.33 24.1601 57.33 19.8301H57.34Z" fill="#232144"/><path d="M90.59 19.9199H67.05V22.1399H90.59V19.9199Z" fill="#E6E3DA"/><path d="M97.82 68.7695H59.83C56.0966 68.7695 53.07 71.7961 53.07 75.5295V113.52C53.07 117.253 56.0966 120.28 59.83 120.28H97.82C101.553 120.28 104.58 117.253 104.58 113.52V75.5295C104.58 71.7961 101.553 68.7695 97.82 68.7695Z" fill="#FF6200"/><path d="M92.76 76.4898C97.0236 76.4898 100.48 73.0334 100.48 68.7698C100.48 64.5062 97.0236 61.0498 92.76 61.0498C88.4964 61.0498 85.04 64.5062 85.04 68.7698C85.04 73.0334 88.4964 76.4898 92.76 76.4898Z" fill="#F7C7A1"/><path d="M92.41 71.2002H93.07C93.3 71.2002 93.44 71.0602 93.44 70.8402L93.59 63.6502C93.59 63.3202 93.42 63.1602 93.08 63.1602H92.36C92.02 63.1602 91.85 63.3302 91.85 63.6602L92.03 70.8402C92.03 71.0602 92.18 71.2002 92.4 71.2002H92.41Z" fill="#FF6200"/><path d="M93.3 72.3398H92.19C91.92 72.3398 91.74 72.5098 91.74 72.7698V73.9398C91.74 74.1998 91.92 74.3699 92.19 74.3699H93.3C93.58 74.3699 93.76 74.1998 93.76 73.9398V72.7698C93.76 72.5098 93.58 72.3398 93.3 72.3398Z" fill="#FF6200"/><path d="M93.83 94.3104C93.83 94.3104 93.76 94.3204 93.72 94.3204C93.61 87.1704 87.79 81.4004 80.61 81.4004C75.35 81.4004 70.82 84.5104 68.73 88.9804C68.05 88.8204 67.34 88.7304 66.61 88.7304C61.39 88.7304 57.16 92.9604 57.16 98.1804C57.16 103.4 61.39 107.63 66.61 107.63H93.73C93.73 107.63 93.8 107.63 93.83 107.63C97.51 107.63 100.5 104.65 100.5 100.96C100.5 97.2704 97.52 94.2904 93.83 94.2904V94.3104Z" fill="#F7E5CD"/><path d="M79.52 99.1102L73.53 93.1202L74.48 92.1602L79.52 97.2102L84.56 92.1602L85.51 93.1202L79.52 99.1102Z" fill="#FF6200"/><path d="M80.2 87.1201H78.85V98.1501H80.2V87.1201Z" fill="#FF6200"/><path d="M83.11 101.25H75.92V102.6H83.11V101.25Z" fill="#FF6200"/></svg>