<?xml version="1.0" encoding="UTF-8"?><svg xmlns="http://www.w3.org/2000/svg" viewBox="0 0 127.8355 98.5536"><defs><style>.cls-1{fill:#738ec1;}.cls-2{fill:#232144;}.cls-3{fill:#e6e3da;}.cls-4{fill:#fff;}.cls-5{fill:#e5f0ff;}.cls-6{fill:#006;}.cls-7{fill:#5773a4;}.cls-8{fill:#ff6200;}.cls-9{fill:#d0def2;}.cls-10{fill:#8da8dc;}</style></defs><g id="Laptop"><path class="cls-2" d="M30.3422,0h79.6573c2.1628,0,3.9187,1.7559,3.9187,3.9187v53.9179H26.4236V3.9187c0-2.1628,1.7559-3.9187,3.9187-3.9187Z"/><polygon class="cls-7" points="127.8355 75.2768 12.5064 75.2768 26.4092 57.8366 113.9039 57.8366 127.8355 75.2768"/><rect class="cls-9" x="29.9463" y="3.6506" width="80.4492" height="47.1149"/><polygon class="cls-1" points="22.1819 66.7378 27.525 59.2627 112.8168 59.2627 118.1599 66.7378 22.1819 66.7378"/><polygon class="cls-1" points="50.6401 73.8507 53.8538 67.733 86.5658 67.733 89.7325 73.8507 50.6401 73.8507"/><path class="cls-10" d="M126.258,78.9484H14.0839c-.8712,0-1.5775-.7045-1.5775-1.5736v-2.098h115.3291v2.098c0,.8691-.7063,1.5736-1.5775,1.5736Z"/><path class="cls-6" d="M77.1573,30.2302v2.5452c-1.4313.7184-2.7769,1.0776-4.1221,1.0776-3.7313,0-5.9739-2.187-5.9739-4.9678,0-2.9969,2.5662-5.471,5.8303-5.471.8075,0,1.4177.1442,2.0572.3553.4586.1436.7414.308,1.0284.308.252,0,.3219-.4187.358-.6633h.3558l.3236,3.4432h-.4313c-.1763-.6813-.4991-1.2403-.9297-1.6321-.6698-.6818-1.5958-1.0409-2.654-1.0409-2.2427,0-3.5513,1.7764-3.5513,4.4499,0,2.6366,1.5968,4.429,3.7296,4.429.6281,0,1.2026-.1435,1.9056-.4669v-2.6185c0-.8416-.1346-1.1652-1.3486-1.1652v-.3939h4.5052v.3939c-1.1184,0-1.0827.3591-1.0827,1.4175ZM64.7491,26.0325v7.642h-.5913l-7.6423-7.8937c.0359.2158.0359.3952.0359.6101v4.8083c0,1.4689,0,2.0067,1.3452,2.0067v.3947h-3.5873v-.3947c1.3596,0,1.3596-.6457,1.3596-2.0067v-5.4818c0-.8145,0-1.7083-1.4313-1.7083v-.3773h3.384l6.2849,6.454c-.0358-.179-.0358-.2862-.0358-.5378v-3.5156c0-1.4172.0358-2.0234-1.3131-2.0234v-.3773h3.5866v.3773c-1.3243,0-1.395.5713-1.395,2.0234ZM47.3822,33.6007v-.3947c.862,0,1.4723-.0716,1.4723-1.3194v-6.5538c0-1.2917-.467-1.3237-1.4723-1.3237v-.3773h5.0528v.3773c-1.0351,0-1.4653.032-1.4653,1.3237v6.5538c0,1.2477.5392,1.3194,1.4653,1.3194v.3947h-5.0528Z"/><path class="cls-4" d="M99.0445,24.7229c-.4982-.5026-1.0444-.7437-1.4763-1.2383-.2148-.2139-.3798-.4291-.5233-.7162-.1805-.1797-.2888-.287-.5035-.3943,0,0-.2195-.0854-.406-.1071-.1865-.0217-.3383-.0173-.3383-.0173l-.0279.0167c-.4708.0142-.9177.2322-1.386.3223v.0724c.1478.0443.246.144.3242.2608.1111.1658.1822.3663.2986.4923l.1716.2446.1683.1782.0405.0012c.1946.1631.4167.3036.6523.3821.4669.0723.8621-.1428,1.3146-.0359,1.6196.7911,2.7692,2.6376,2.7692,4.4849,0,2.6373-1.5076,3.6778-2.4457,3.6778-.1797,0-.454-.1101-.5602-.2083.1063-.3669.1714-.7953.1714-1.4426,0-1.5244-.602-3.1755-1.4278-4.0178-.3951-.395-.8201-.7176-1.2614-.7176-.2156,0-.432,0-.5744.1791-.1794.1435-.2882.4305-.2516.61-.2871.2155-.7525.3226-1.1113.3226-.3956,0-.8965-.1432-1.3387-.5021v-.5378c-.1037-.0358-.4612-.2516-.2829-.4154.1081.0369.1792.1004.2156.1296-.0364-.2341-.0364-.5214-.2156-.7371-.0724,0-.1783,0-.286-.0718-.1079-.1065-.2177-.2501-.2177-.4298.1097.1797.2878.1074.3954.2149-.1777-.4302-.1075-.6096-.4299-1.2383-.0723-.3212-.395-.5009-.6096-.7162-.1077-.0717-.1429-.1797-.2746-.1797-.142-.0352-.142-.2146-.142-.3184.0356,0,.142.0668.2128.1038-.2128-.4877-.3569-1.022-.8223-1.3098l-.1094.071h-.5737c.0709-.071.2148-.1071.3232-.1785-.1085-.108-.1788-.1442-.3919-.1442-.0985.0362-.23.1442-.3676.1442h-.0344c0-.108-.0372-.2515.172-.3229-.2092-.0366-.389-.0366-.6405,0-.0359.1787-.1426.2867-.1426.4304-.1068.071-.1442.1791-.2521.2877,0-.2167.108-.4314.1453-.6467-.1453.0355-.3239.1434-.3958.1434-.2871-.1434-.6462-.2856-.7901-.2856.2156.1422.1094.3937.1439.5722l-.1439-.071c-.0344-.1437-.2153-.2517-.2493-.4304-.2164,0-.3607.0715-.5396.1787v.0362c.1069,0,.2515.108.3232.2155-.2508,0-.4307-.1075-.6823-.1075,0,0,0-.0362-.0328-.0362-.0969.0362-.195.1437-.2602.2147-.2518.2167-.4306.3951-.5381.7148.0718,0,.1794,0,.216.0363-.1442.0356-.216.215-.3594.2515v.5232c-.1078.1072-.2509.2147-.3227.4299-.1794.5679-.216,1.2017-.216,1.9187-.0352.1442-.1063.1801-.1786.2157v.5555s.2153-.2003.3228-.2682v.4482c-.1442,0-.2504.1791-.2504.287,0,.1432.0359.2871.0359.4306q0,.0715.0352.1436c0-.0721.0718-.1436.1794-.1791,0,0,.0718-.0725.215-.0725-.1064.108-.1431.2516-.215.395l-.1075.1071s-.0366.0721-.0366.1083c.1442.735.3591,1.3809.647,2.0837-.2878.4626-.6104,1.36-.8256,2.2205-.1794-.1785-.431-.214-.6466-.214-.2013.0355-.4151.1074-.5604.3226-.2153-.1086-.5005-.0726-.6393.0724-.2974.2567-.2974.3981-.2974.6072-.0726.0739-.2171.2521-.2171.5023,0,.3234.0359.5387.2171.8253h5.3795l2.0504-.0013s-.0005.0009-.0007.0013h4.1545c-.0009-.0018-.0013-.0023-.0023-.0041l.3593-.0002c.0007.0013.0013.0031.002.0043h.324c-.0002-.0016-.0005-.003-.0007-.0045l.2164-.0002c-.0002.0016.0001.0031,0,.0047h.3934l.0003-.0049h.2159c0,.0021-.0007.0027-.0007.0049h2.1971c.2498,0,.465-.0707.7155-.215h.4285c.8855,0,1.5724-.2513,2.2196-.8965.8611-.8232,1.363-2.1866,1.363-3.4964,0-1.5613-.6448-3.1393-1.7953-4.27ZM86.0242,33.2786c-.0006-.0012-.0005-.0027-.0012-.004l.0064.0115c-.0018-.002-.0034-.0057-.0052-.0075Z"/><path class="cls-8" d="M87.0648,33.6007c-.1797-.3221-.2157-.8253-.2157-.9324,0-.179,0-.4313.1079-.6041l-.3947.0746c-.1076.1344-.1435.2083-.1435.2772l.1797-.0689c.0359,0,.0718.0689.107.1422-.0352.179-.2508.179-.3227.2508-.1072.3588.2156.5741.2516.8606h.4302ZM100.8398,28.9928c0-1.5613-.6448-3.1393-1.7953-4.2699-.4982-.5026-1.0444-.7437-1.4763-1.2383-.2147-.2139-.3798-.4291-.5232-.7162-.1805-.1797-.2888-.287-.5035-.3943.0366.1073.0729.2146.1094.3226h-.0365c-.1797,0-.3599-.108-.5013-.2153l.1414-.1442c-.0363-.0669-.1414-.0669-.2157-.0669-.5737-.0969-1.0984.2111-1.6557.3183v.0725c.3577.1073.4243.5382.6229.7531h.2072c.0718,0,.1801.0704.2519.0704,0-.0704-.0718-.2139-.0718-.2139.0718-.0714.1442-.0714.2149,0,.179.108.4306-.0714.61.2139-.2146,0-.431,0-.61.1108,0,.0365.109.1003.0726.1741-.1785-.0739-.3958,0-.4676-.1376l-.0355.0269c.2157.2543.5396.4545.8612.5615.4669.0724.8621-.1428,1.3146-.0359,1.6196.7911,2.7691,2.6376,2.7691,4.4848,0,2.6373-1.5076,3.6778-2.4457,3.6778-.1797,0-.454-.1101-.5602-.2083.1063-.3669.1715-.7952.1715-1.4426,0-1.5244-.602-3.1755-1.4278-4.0178-.3951-.395-.8201-.7176-1.2614-.7176-.2157,0-.4321,0-.5744.1791-.1794.1435-.2882.4305-.2516.6099-.2871.2156-.7525.3226-1.1113.3226-.3956,0-.8965-.1432-1.3387-.502v-.5379c-.1037-.0358-.4612-.2517-.2829-.4154.1081.0369.1792.1004.2156.1296-.0365-.2341-.0365-.5214-.2156-.737-.0724,0-.1783,0-.286-.0718-.1079-.1065-.2177-.2501-.2177-.4298.1098.1798.2879.1074.3954.2149-.1777-.4302-.1076-.6096-.4298-1.2383-.0724-.3212-.395-.5009-.6096-.7162-.1077-.0717-.1429-.1797-.2746-.1797-.142-.0352-.142-.2146-.142-.3183.0355,0,.142.0669.2127.1038-.2127-.4877-.3569-1.022-.8223-1.3098l-.1094.0711h-.5737c.0709-.0711.2147-.1071.3232-.1786-.1085-.108-.1788-.1442-.3919-.1442-.0985.0362-.23.1442-.3676.1442h-.0344c0-.108-.0372-.2515.172-.3229-.2092-.0366-.389-.0366-.6405,0-.0359.1787-.1425.2867-.1425.4304-.1068.0711-.1442.1791-.2521.2878,0-.2167.1079-.4314.1453-.6467-.1453.0355-.3239.1435-.3958.1435-.2871-.1435-.6462-.2856-.7901-.2856.2156.1422.1094.3937.1438.5722l-.1438-.0711c-.0345-.1436-.2153-.2517-.2494-.4304-.2164,0-.3606.0715-.5396.1787v.0362c.107,0,.2516.108.3232.2155-.2508,0-.4308-.1075-.6823-.1075,0,0,0-.0362-.0328-.0362-.0969.0362-.195.1436-.2602.2147-.2518.2167-.4306.395-.5382.7147.0718,0,.1794,0,.216.0363-.1442.0355-.216.2149-.3595.2515v.5232c-.1077.1073-.2508.2146-.3227.4298-.1794.5679-.216,1.2018-.216,1.9187-.0352.1442-.1063.1801-.1786.2157v.5555s.2153-.2003.3228-.2682v.4482c-.1442,0-.2505.1791-.2505.287,0,.1432.0359.2871.0359.4306q0,.0715.0352.1436c0-.0721.0718-.1436.1794-.1791,0,0,.0718-.0725.2149-.0725-.1065.108-.1431.2516-.2149.395l-.1076.107s-.0366.0721-.0366.1083c.1442.735.3591,1.3809.647,2.0838-.2878.4626-.6103,1.3601-.8256,2.2205-.1794-.1785-.431-.214-.6466-.214-.2013.0355-.4151.1074-.5604.3227-.2153-.1087-.5006-.0726-.6393.0724-.2974.2567-.2974.3982-.2974.6072-.0726.0739-.2171.2521-.2171.5022,0,.3234.0359.5387.2171.8253h5.3795c-.0366-.1068-.1083-.2497-.1801-.3221-.1063-.2153-.0352-.5032-.0352-.7183.107-.2133.2153-.4216.3591-.6028.0348-.1087,0-.1087.0348-.1435l.2516-.0422c.1427,0,.2505-.1059.4302-.1059.1083.1481.1083-.1087.2888-.181.3932-.0718.7608,0,.9739.2869,0,.0422.0354.0422.0354.077h-.1797c-.2008-.077-.4363-.1829-.6877-.077,0,.077-.0346.077-.0346.1856v.1812c.1414,0,.2516.1344.3906.2083.0657-.1101.263-.2083.4026-.2083.1797,0,.4313.0982.4313.3866v.3945c.1442.1435.3228.179.5022.2501-.0709.1442-.1794.1442-.2873.1442h-.2856c-.0367-.0355-.1083-.0355-.1083-.1442-.1085.1442-.1788.2884-.2523.4308h4.1544c-.07-.1424-.1424-.2497-.1783-.3221-.0718-.2153-.0718-.5032-.0718-.7183l.395-.5317c.2142,0,.3947-.0711.7886-.1059.0729-.1086,0-.1508.3234-.1508.2507,0,.4308.0422.5015.077q.0363.0739,0,.1442c-.0707.0711-.2142-.0704-.3217-.0355-.0722.0711.0365.1066.0365.1812.0711.0621-.3232-.0746-.3232-.0746,0,0-.0726.209-.1077.2829,0,0,.1429.1422.2147.2133.0709.1079-.107.2151-.107.3232-.0726-.0355-.2164-.1435-.2164-.1081-.0724.2879,0,.5387-.0348.8253h.3934l.0357-.6092c.0366-.3595.4669-.9984.7188-.9984.1438,0,.2507.0711.3525.1457.0654.1344.2326.2083.2326.2772,0,.0733-.0996.1094-.2665.1094-.0679,0-.0679-.1094-.1748-.1783l-.2157.2133s.2501.2151.2501.3595c0,.179-.0344.2501-.1431.3588l-.2153-.4306c-.1081,0-.2864.2153-.2864.3219,0,.1442-.0726.2158-.0726.4308h2.1971c.2497,0,.465-.0707.7155-.2149h.4286c.8855,0,1.5724-.2514,2.2196-.8965.8612-.8232,1.363-2.1866,1.363-3.4964ZM93.1267,32.2369l-.3591.0363c.1453.0739.1453.2521.1453.2871,0,.1079-.0731.2151-.1453.2877-.0711-.0726-.0711-.1797-.1427-.2877-.0715,0-.1074.1797-.1074.2514,0,.3227.1442.574.2501.789h.324c-.0359-.2866-.109-.5374-.109-.8606,0-.1797.109-.393.1442-.5032ZM88.4337,32.6682c0-.1429-.1063-.179-.2507-.179-.0687,0-.2328.1072-.2328.179,0,.1435-.0659.9324-.0659.9324h.23c.1044-.3221.3194-.7527.3194-.9324ZM87.6751,32.632c-.0374,0,.0372.0725-.3216-.2849-.0735,0-.1805.2133-.1805.2849,0,.2878.0707.6822.1805.9687h.2842c0-.3221.0374-.6809.0374-.9687ZM97.045,23.6319c-.0718-.1473-.2164-.2177-.324-.2177-.1066-.1436-.2505-.3233-.3948-.3233.1085,0,.2519-.1073.43-.1073.0724.1798.217.287.2521.4306l.0366.2177ZM95.9671,22.8757h-.3939c-.0707-.1074-.1797,0-.2514,0-.0726,0-.1085,0-.2473-.1074.2107,0,.319-.1073.4987-.1797.1442.108.2871.1442.3939.2871ZM95.1067,26.9654c-.2337-.071-.3658-.1787-.5807-.1787-.0709,0-.3951.1077-.4298.1787-.1076-.1435.0707-.4305.2153-.5023.1436-.0721.2146-.0362.2875,0,0,.2153.242.1073.374.1798.0672.107.1015.1791.1337.3226ZM95.0744,27.4851c-.2015,0-.2335-.0289-.3687-.0289-.1797,0-.3943.0645-.5026.2436-.0722-.1428-.0363-.2146,0-.3038.1083-.1066.2871-.2515.4302-.2515.2396,0,.4411.1797.4411.3406ZM95.8962,28.2756c-.2879-.1787-.7184-.2888-.9556-.2888-.133,0-.5573.1804-.7006.3232l-.0731-.3232c.2164-.0363.2164-.216.3591-.216.1074,0,.2477-.0358.347-.0358.1,0,.1672-.0683.2015-.0683.1748,0,.1033.1777.2107.1777.1083,0,.1801-.0736.2525-.0736.1798,0,.3227.2895.3586.5048ZM96.0037,29.0639c-.2512,0-.5013-.0711-.5385-.1787-.0718-.0725,0-.2159-.1801-.2159-.0718,0-.1785.1079-.1785.1079-.0665.0355-.2658-.1079-.2658,0,0,.179-.1352.2508-.3149.2508-.0709,0-.1427,0-.2146-.0352v-.3585c.4622,0,.4295-.1442.6291-.1442.1339,0,.2372.0715.3446.0715.1801,0,.0731-.0715.2525-.0715.1798,0,.2497.1442.3586.1791,0,.1079.1075.2521.1075.3947ZM95.6809,29.8345c-.1077-.0348-.3591-.0711-.3591-.1785,0-.1435-.0726-.1797-.2473-.1797-.1339,0-.2335.0363-.4411.1074,0,0-.1074-.1435-.1431-.2836.072-.0355.3507-.1037.4827-.1037.2403,0,.4923,0,.4923.1037,0,.1402.2157.1763.2157.5345ZM89.4757,24.2565c0,.0362-.0726.3589-.0726.3589l-.2866.0724.1786-.7747c.0731.1282.1805.2714.1805.3435ZM96.3628,31.0912c0,.2153,0,.2871-.1083.4661l-.2157-.3232c.0742-.1066.0742-.2501.1794-.4298.0363,0,.1446.2501.1446.2869ZM95.5024,30.6245c-.2532,0-.109-.5024-.6295-.5024-.0993,0-.1672.1805-.3107.2153,0-.0348.0366-.2516.0366-.2516,0-.0716.0344-.2151.1748-.2862.2665,0,.1993.1072.4041.1783.1074.0363.1805.1079.3247.1079v.5387ZM93.2696,28.5978c-.3216-.179-.5021-.5009-.789-.827.2869,0,.3591.2895.575.3261.0711.0704.144.1063.214.2132v.2878ZM90.2152,25.9608c-.2153,0-.3228-.1073-.4306-.3067,0-.1079-.0352-.2487,0-.4287.0711.1438.0711.2159.1436.2873.1427-.0714.1427.1045.1786.1414.037.0926.1083.1994.1083.3067ZM96.1131,32.0286q-.0742.1101-.1094.2083c0-.1727-.2164-.2794-.3595-.5709l.1431-.2529c.1089.0718.2516.1805.2516.3587,0,0-.0352.077,0,.1508,0,.0348.0742.0348.0742.1059ZM95.3934,31.0196c0,.1427-.0352.1797-.0716.3587-.2473-.0348-.2473-.324-.2816-.3587-.1672-.2153-.4068-.0355-.5851-.0355-.0718-.2153.0352-.2153.0352-.3595.1087,0,.2155-.0725.3173,0,.1654-.0725.2669.1079.4416.1079.0359.0718.109.2516.1442.2871ZM93.5935,29.5481c0,.1442-.0718.2516-.0352.3951-.0726-.216-.2164-.4306-.2888-.6431,0-.0355-.0359-.0355.0376-.0711.0348,0,.1786,0,.1786.0355.0359.0683.1077.1757.1077.2836ZM90.466,26.7498c-.0365.1446-.1797,0-.2138,0h-.324c-.0359-.0715-.0726-.107-.0726-.1795.1442-.0355.2512-.1073.3595-.0355.0711.1079.1429.2149.2508.2149ZM91.2557,27.557c-.1076.1097-.3939.1428-.6096-.0363l.2857-.1247c.1083.0891.2523.1247.3239.161ZM93.0915,29.5836c0,.216-.0359.4674-.0359.719-.1076,0-.1076-.0724-.1076-.2168-.0352-.2151-.1083-.3936-.1805-.6096-.0711-.2799-.2501-.5201-.3924-.8419-.0366-.1442-.2168-.2156-.3606-.3243.179,0,.3606,0,.503.1443,0,.0714.0359.1073.1442.2149.2512,0,.1781.3236.3939.467-.1076.0926-.1427.1637-.2158.2321.1083.0718.2158.1079.2517.2153ZM91.6905,28.5257c0,.1087-.0683.1436-.1359.2157,0,0-.1313-.1797-.1313-.2512,0-.1449,0-.2146.0332-.3229.0982.1084.2341.2516.2341.3585ZM95.0402,31.7719c0,.0136-.0672.077-.0672.077-.1654-.077-.2672-.1125-.4827-.1125,0-.1427-.107-.3232-.1788-.3232-.2153,0-.1805.1442-.3588.1442l.3223-.3232q.0365-.0718.1083-.0718c.107.0718.1427.1087.2501.1087,0,.0725,0,.1074-.0344.214.1068.0724.1748-.0355.242.0724.0996.0363.1993.0718.1993.2146ZM92.1583,29.3c0,.0683-.1079.1402-.1438.1402,0,0-.1801-.1757-.2136-.34-.0357-.144.1059-.3954.1059-.3954.0359,0,.0726.0724.1077.0724.0359.0355,0,.1442.0359.2508.1079.0722.1797.2009.1079.272ZM89.4032,25.8535c-.4306-.2364-.8969-.4123-1.4209-.4482,0,.1073,0,.2118-.032.2487.4125.1994.8065.3785,1.1663.7008v.3236c-.3599-.3585-.7538-.7176-1.1995-.8249-.0328.0717-.1704.1432-.2048.2864-.2516-.1791-.5392-.359-.8273-.3932-.1077,0-.1794-.3776-.1794-.3776.1794-.0718.2888-.1794.3591-.3595h.1431c.1081,0,.1081-.0718.1081-.1784,0-.2159-.4669-.2159-.6814-.2159-.2516,0-.4302,0-.5762.1076-.0693,0-.0341.1084-.0341.1801,0,.0348.107.1066.107.1066.0731,0,.1446-.0718.217-.0718-.0366.216.0348.324.2505.4313l-.0363.3484c-.4311,0-.7179.1708-1.0398.315-.109-.0717-.1798-.179-.2514-.2858-.4317.1416-1.1555.7164-1.1555.7164v-.2508c.317-.287.7238-.4314,1.0466-.5951v-.248c-.1427-.0718-.2862,0-.4291,0-.3006.0362-.6175.177-.8321.3484,0-.1004-.0359-.2404-.0359-.2404.3956-.2152.868-.3949,1.3334-.3232v-.1442c-.0363-.0718-.0363-.1784-.1066-.1784-.2159-.2159-.4315-.5386-.4315-.7538l.1446-.0683c-.0718-.2034-.1446-.7385,0-.9182-.2087-.1073-.4055-.287-.4724-.4298-.0718-.1797-.1442-.287-.1812-.4877.1094-.2153.1812-.287.2812-.4995.0657,0,.1637-.0352.195-.1073.1774-.0362.2844-.2146.4989-.1066.1446,0,.2869.0704.396.1066,0,.0721,0,.1073.0707.1791.2153,0,.2153.2124.3247.3922.1063.0355.2133.0355.2864.0355.2146.0662.3943.0662.4661.1637.2866-.1637.5733-.1993.8965-.1637.0352-.108.1081-.2515.1453-.4277.0344.1044.0344,0,.1063,0,.1317-.107.2958-.2857.5442-.2153.1435.1083.3939.0362.5374.2153.1079.1407.1797.3556.2873.5246-.1076.2111,0,.4981-.2149.6055l-.2158.2152c-.0715,0-.0715.0725-.1788.0725.1074.2508.0367.6061-.0716.8458.0716-.0299.179-.0299.179-.132.0366.0358,0,.102,0,.132v.1042c0,.1794-.1074.3591-.2516.502-.0709.2159-.2507.503-.4834.5385v.0715c.5194,0,.9499.1438,1.4529.3918v.2364ZM90.8618,28.0968l-.1805.0704c-.395,0-.5744-.1069-.753-.2515.1427,0,.324-.1808.324-.1808.1773.1808.4291.3253.6096.3619ZM89.8557,27.2894c-.202,0-.4525.1066-.5604-.1087.0731-.0362.1442-.1436.216-.2153l.3444.324ZM92.7675,30.6245c0,.1798-.2142.3951-.2869.5378.0727-.1783.0727-.5378,0-.5378-.0722-.0355-.2146,0-.2146-.0725,0-.1079.0357-.2494.0357-.3217,0-.1444-.1083-.216-.1083-.2871,0-.216.2523-.2508.324-.3951.0359.1442.0359.2864.0359.4661,0,.0716.1083.2884,0,.4667,0,.1081.2142.0363.2142.1436ZM91.9426,30.2302c0,.2138-.1418.3943-.1775.6102,0-.2159-.037-.3963-.1773-.5378,0-.0724.1028-.0724.0344-.1805,0,0-.1989-.1079-.1989-.2514,0-.1437.1313-.2516.1989-.3582,0-.0363.1429.0711.1429.2871,0,.0348,0,.1435-.037.2146-.0376.1079.2146.1079.2146.216ZM89.0081,27.6998c-.1786.0352-.3228-.1428-.5019-.2146-.0725-.1958-.0725-.4127-.1435-.5197.1435.107.4667.107.3939.4306,0,.0891.1435.161.2514.3038ZM89.9999,28.7048c-.1442,0-.3822,0-.5241-.107-.2168-.1076-.2882-.179-.3958-.2878.1435-.1069.3232-.1069.3958-.1428.142.1428.2737.3944.5241.5376ZM84.0087,23.1993l-.249.0714.0344-.1797c.0711-.1073.107-.2152.2146-.3226v.431ZM88.5779,28.1672c-.1442.0359-.3948.1084-.4635-.0704-.1972-.3261-.0985-.6117,0-.8437.0687.203.1044.4135.1396.5912.037.1425.2523.216.3239.3229ZM87.567,26.2123c-.0365.2146-.1063.5376-.3232.6821,0-.1446-.0707-.216-.1425-.324-.0365,0,0,.108-.0365.108,0,.0715-.0704.216-.0704.3588-.0731.0353-.2171.1074-.3599.0353v-.107c-.0359-.071-.0359-.2156-.0359-.287l-.0363-.0355c-.1076.0355-.1076.107-.1076.1791-.0359.0725-.1066.1435-.1066.2505-.1438,0-.217-.0353-.324-.107v-.3226q0-.0725-.0352-.0725l-.1805.1795c-.1435-.107-.1794-.395-.1794-.5738.5752-.3226,1.2921-.2153,1.7243-.0362.0707.0362.1418.0362.2135.0724ZM89.4032,29.1002h-.1079c-.395.1287-.7173-.1074-1.0413-.323.1797-.0724.4313-.1079.6462-.1079l.1079.2159c.1085.0362.2871.1428.395.215ZM84.0811,23.6956l-.1799.2174c.0357.3435-.107.5949-.107.9182l-.1801-.5748c.0359-.1432.0718-.2773.1801-.4507l.2869-.1101ZM87.7468,28.31c-.1797-.1069-.503-.1428-.4308-.3595.0716-.1797.1794-.2156.251-.2839.0352.2491.0707.4302.1797.6434ZM91.0401,31.9575h-.0357c-.0725-.1087-.1085-.1856-.1801-.1856.1076-.3936-.107-.7175-.1781-1.0394v-.1079c.1079.1798.3939.3595.3582.5378.0357.3227.0357.6096.0357.7952ZM90.2152,30.6245c-.1801,0-.3228,0-.4306-.1805-.0352,0-.0961-.1066-.131-.0348-.1779.1427-.3584-.1066-.5737-.0718-.1074.1066-.2138.1797-.3947.2146v-.0348c0-.1079.0715-.2146.2149-.2869.2164.0724.395-.3958.6111-.1444.1065.0363.2068.0363.2733.0363.2505.1081.3223.3219.4306.5024ZM86.9571,27.735c0,.2518-.0357.5751-.2866.6838l-.0718-.3585c.107-.0735.2146-.1446.3584-.3253ZM88.1475,29.3c-.0667.0683-.2632.1402-.4007.1402-.2162-.1757-.3591-.3763-.5737-.663l.5737.108c.1046.071.3028.3111.4007.4148ZM90.2862,31.3435c-.1424-.1094-.358-.1094-.4306-.2891-.1376-.0348-.2379-.0348-.4162-.0348-.1442.0348-.3228.0348-.4669.0348-.0372,0,0-.0348-.0724-.0703-.2149.0703-.4306.0703-.6462.2869l.1797-.4306c.1442,0,.2516-.0716.323-.0716.1435-.0363.2514-.0363.3599-.0363v.0363c.3947,0,.8468-.0363,1.1356.2856l.0341.2891ZM86.2044,28.31c-.2153-.2132-.3958-.3943-.3958-.6102.1094,0,.2156,0,.3227.071,0,.1797.0731.3261.0731.5392ZM85.5226,27.2894l-.109.4456c-.1066-.2143-.2149-.4107-.2512-.6625l.3602.217ZM90.6461,32.0642c-.0365.0746-.1098.2829-.1442.4251-.0724-.216-.1438-.5317-.395-.5317-.0359-.1435-.0718-.1856-.2146-.2915l-.2746-.0368c.0359.1427.2379.1427.1004.3284.1376.1066.2453.1066.317.2794.0718.1101,0,.2523.0359.3234l-.2153.1079c0-.179.0367-.5295-.202-.6041-.2142.0746-.2505-.2153-.3947-.2923-.0715,0-.0715-.1783-.179-.1059-.1797.1059-.3947,0-.5737.1059l.179-.2869c.1442-.1066.2873-.0718.4313-.1066l.2866-.0348c.2853,0,.5251.1414.812.2501.1429.0724.2144.1783.2144.3291.0724.0348.2166.0348.2166.1414ZM87.8186,30.4092h-.0718c-.0344,0-.286-.1066-.3591-.179-.0341-.1081-.0341-.216-.0341-.216h.2842l.1809.395ZM85.0563,27.8443c-.2168-.0736-.4599-.2874-.5578-.4483-.0657-.1428-.0989-.3236-.0989-.4306.1313,0,.2282.107.261.1791v.0362c.179.2153.3591.3763.3958.6636ZM86.7773,29.1002c-.0344.1998-.1427.2682-.3225.519-.1066.0731-.3236.1079-.5369.2153.0345-.1074.1403-.1422.2133-.2508.0731-.1074.217-.2836.2518-.3873.1794-.0961.2516-.0961.3943-.0961ZM89.4032,32.5603l-.1079.1079c-.1077-.1079-.0363-.3951-.2153-.4313-.1797,0-.3232-.1727-.3947-.2083l.1442-.0711s.0707-.0348.1431,0c.0715.0711.144.1066.144.1812.0709.0982.1786,0,.2517.0982.0348.1101.0711.2523.0348.3234ZM86.1313,28.8127c-.107.2153-.2133.4162-.4297.4873-.1083,0-.288.0683-.503,0,.1083-.0711.2149-.1037.3606-.1998l.2853-.2875h.2867ZM86.8491,30.4441c-.1435.1079-.2505.1079-.4302.0731l-.2146-.2869h.5385l.1063.2138ZM84.2609,27.735c-.1797.1808-.3597.2518-.4315.4681,0-.1063-.0352-.2163-.0696-.2874.0344-.1449.1414-.216.1772-.2491.1085.0331.1788.0331.3239.0683ZM84.6605,28.2756c0,.1432-.0641.3222-.2278.5016-.0332.0355-.1359.108-.1359.108,0-.2159.1028-.395.1028-.5752.0989-.0344.1969-.1069.261-.0344ZM85.1624,28.7048l-.1427.5241c-.1801.1394-.4232.0711-.6201.0711.261-.0711.4766-.3786.6201-.5952.0366-.0355.0724,0,.1427,0ZM85.3428,30.5172c0,.1074-.0359.5372-.0359.5372-.0716-.2501-.2507-.5024-.4674-.5024-.1063-.1079-.2118-.2146-.2431-.3217-.098-.1081-.1969,0-.3356-.1081-.1451,0-.3239,0-.4667.1081v-.1081l.2512-.2877c.2514.0363.551,0,.6151.1797.179.1079.3591.216.3958.2884v.1066c.0703.0348.2149.0716.2866.1079ZM85.1624,31.6292l-.2503.2197c-.0726-.077,0-.2553-.107-.3639,0-.0718.0711-.1066.0344-.1414-.0344-.0725-.44-.216-.44-.216-.1387-.1079-.3184-.2173-.4626-.3587-.1427-.0363-.251.0355-.4306.0716v-.0716c.0718-.1442.0718-.3247.2878-.3247.107,0,.2512,0,.3216.1079.1451,0,.217.1442.317.1805.1637.1777.3006.2516.4068.3219,0,.1079.0366.1798.1077.2166.2151,0,.1448.214.2151.3582ZM84.6277,32.1388l-.0969.3505-.2341-.6403c-.288-.2553-.6109-.2915-.7904-.4357-.1431-.0348-.1431.0718-.2149,0,0-.0696,0-.179.1085-.2857h.2142l.2153.1066c.1076.1094.3591.1094.3591.3232,0,.0363-.037.0718.0724.2146l.3356.077.0313.2899ZM83.65,32.4892c0,.2862-.4661.6807-.4661.6807,0-.1785.1076-.3945.1076-.6096,0,0-.1442-.1444-.288-.1444-.1066.0733-.1066.1444-.1424.2523-.1081.2153-.3234.4306-.3586.6459-.0359,0-.0359-.0355-.0359-.0355,0-.3588.0359-.9691.2505-1.2144.1797-.2153.324-.2153.5379-.2501l.1801.0348-.1436.2153c.1436.0746.3586.209.3586.4251ZM82.393,32.2732c0,.1427-.0352.2871-.1052.3951-.0368-.1429-.1383-.3212-.3111-.3212-.1418.2849-.1786.393-.0359.8229-.1059.1087-.1794.1442-.3216.2158-.0731-.1435-.0731-.3943-.0731-.5378,0-.2516.0366-.5009.1083-.7092.107-.1101.1805-.2899.2864-.3669h.381c-.1724,0-.1724.1508-.1724.2567.1015.0355.2435.0726.2435.2446ZM81.4759,32.6682c-.0366,0-.1446-.1079-.2516-.1079-.102.2151,0,.3595,0,.6096,0,.1087-.0365.2158-.0365.2158-.0656,0-.1945-.1435-.2269-.2869v-.5735l.3-.3866c.2149.1344.2853.3505.2149.5295ZM88.8295,22.7683c.0707-.1797.0707-.4981-.0727-.6671-.0715-.1432-.2505-.2149-.4293-.3556l-.2466.1407c-.1306.0717-.1965.2149-.1965.3839.23.1038.4785.3908.5853.6055h.1083c.1074-.1074.1788,0,.2516-.1074ZM87.6378,22.9836c0-.1079-.0356-.1079-.0707-.1079-.1794,0-.1794-.2871-.3232-.2146-.0707,0-.1425-.0725-.2494,0q0,.0355.0704.0355c.179,0,.1083.2505.2512.287h.3218ZM88.1831,23.4142s.0709,0,0-.0355l-.7588-.108c-.0707.108-.2512.108-.2512.2139h-.0718c.0718.2849.0718.5929.0718.9155.1429.0362.2877.1079.2877.3228.1414.0725.286.1084.4236.2149.0659-.0348.098-.1424.1315-.2501-.1315-.1798-.4488-.0724-.4488-.3951l-.2135-.0724c0-.2112,0-.4146-.0376-.5615l.0376-.0269c0,.0269.0341.0637.1072.1376.1414,0,.286.0363.4236-.0739.0659-.0368.0659-.211.1315-.211.065,0,.1317,0,.1672-.0704ZM86.4189,22.6611c-.0707-.0725-.2877.0355-.3947.0717-.1429.0355-.2501.1429-.2501.2508h.3936c.0366-.1079.1805-.2508.2512-.3226ZM85.6292,22.2703c-.0359-.3483-.4306-.3839-.6096-.5246h-.1435c-.2797.1044-.3453.3922-.3777.6284.098.3226.3066.1073.4488.3226.1448-.108.5033-.3595.682-.4264ZM87.7468,25.5461v-.177h-.3591l-.0341.0362.3932.1408ZM86.1313,23.4846c0-.0704-.0729-.1421-.1788-.2139h-.8604c0,.1436.1066.2139.2149.2139,0,.1473.1066.1742.1436.211.1087.0739.1427.0739.251,0,.107.0739.1429-.0637.1797,0,0,.2174,0,.3135-.0368.4888-.0359.2519-.2512.2157-.431.3236,0,.1074-.1066.2874,0,.3951.109-.0717.1798-.1076.3606-.1801,0-.1076.1072-.2149.2501-.2867,0-.3229.107-.6305.107-.9517ZM85.8445,25.3691c-.0704-.1438-.2512,0-.431-.0718,0,.0718,0,.1439.109.2153.1066-.1073.286-.1435.3219-.1435Z"/></g><g id="desktop"><rect class="cls-2" x="-9.869" y="31.7542" width="64.0967" height="44.3554" rx="3.9848" ry="3.9848" transform="translate(76.1125 31.7557) rotate(90.0033)"/><rect class="cls-5" x="-8.1502" y="33.2493" width="60.659" height="41.3653" rx="2.4273" ry="2.4273" transform="translate(76.1125 31.7557) rotate(90.0033)"/><rect class="cls-4" x="7.9786" y="39.6104" width="28.6819" height="28.6727" rx="5.9891" ry="5.9891"/><path class="cls-8" d="M34.003,56.9277c-.1184.1153-.2373.2306-.5856.4661-.2344.1166,0,.2331,0,.352.9003,0,1.9421.2086,3.2313.7328v-13.1313c0-.436-.0502-.8598-.1423-1.2678-.2593.2216-.5341.4617-.8713.4617-.3471,0-.5826-.1153-.9329-.2318-.2331-.233-1.2848-.5826-1.8706-.5826-.6986,0-1.1659.936-1.9846,1.402-.3521.1166-1.0507.2306-1.7529.4674-.4692.233-.701.3496-.701.1153-.1166-.4661-.1166-.9347-.1166-1.4021-.3508-.1166-.8174-.1166-1.1695-.3508-.2313.8181-.4667,1.1702-.6985,1.5198-.4668-.2331-.9342-.3497-1.4008-.7017-.5876-.3508-1.9884-1.1677-2.1049-1.4033-.4668.4698-1.8682,1.2892-2.687,1.7553-.119.2306-.7009,1.0513-.8188,1.1665l-1.167-.4661c.2343-.4698.466-.7004.7028-1.1664.4642-.7041,1.164-1.2892,1.6326-1.7554,1.2868-.4661,1.2868-.7003,2.8035-.9346.5857.7003,2.2208,1.754,2.2208,1.754,0,.2318.1165-.1177.5832-1.5197.3519.2342.5838.2342.934.466.1191,0,.4686.119.4686.119.1178,0,.8176-.3508.934-.4674.235-.1176,1.2868-.3519,1.2868-.3519.1141.1165-.3526.9346-.3526,1.0512v.9347c.1164,0,.2337,0,.4667-.1153.5844-.2343.7047-1.2868.9365-2.1037.3532.1177.582.1177.9328.1177,0,.4673-.2293,1.1665.1165,1.1665.3514,0,.8201-.4674,1.5211-1.0512,1.0036.4033,2.0102.9784,2.9427,1.5782-.754-2.2863-2.9059-3.9371-5.4447-3.9371H13.7155c-3.1665,0-5.7334,2.5669-5.7334,5.7334v17.2c0,3.1665,2.5669,5.7334,5.7334,5.7334h4.2102c-.2129-.6088-.4326-1.1326-.7457-1.6553,0,0,1.7528-.7029,2.217-.7029.1179.2367.2344.5851.4686.8169-.2343.2344-.9328.9372-1.1696,1.2868-.1044.105-.2095.1862-.3145.2545h7.9766c-.3129-.3659-.6519-.8204-.6519-1.0727,0-.3508-.4686-.9348.1177-.9348,0-.2342.5846.1179.8163.1179.2355,0,.4667.1165.5858.3482.1177.3534,0,.7004.1177,1.0525,0,.137.053.3091.0971.4888h.9519c.0002-.0072.0003-.0143.0003-.0215,0-.3508,0-.5826-.1166-.8194,0-.2318-.1165-.5826,0-.9322,0-.3484.9366-.4686,1.4009-.5851.1189.5851.2331,1.1702.1189,1.5173-.108.3196-.3104.5421-.5193.8409h1.6384c.1149,0,.2287-.0044.3418-.011-.1253-.0412-.2398-.0701-.4102-.1257-.1166-.1177-.1166-.352-.1166-.7041,0-.2318-.1153-.7004-.1153-1.1665,0-.2342.2319-.3507.5851-.5839.1128,0,.2287-.1189.6961-.2342v1.8669c.0534.211.1297.5392.1976.8368.5055-.1056.9859-.2788,1.4329-.5079-.2587-.3652-.5748-1.0034-.5748-1.2597-.1204-.3521-.1204-1.0525,0-1.4033,0,0,.6972.2355.9327.3508.5846,0,.1184.8206.3514,1.0525,0,.0691.0408.3438.1714.7021.4407-.3391.8305-.7407,1.1565-1.1917-.1229-.062-.2972-.2537-.3962-.4463-.2317-.5839-.349-1.1665-.349-1.1665.1172,0,.349,0,.4693.1166q.3471,0,.5832.1153c0,.099.0828.3004.2049.5267.3668-.7556.5726-1.6037.5726-2.4999v-.8396c-1.4184-.8687-2.4022-1.2055-3.5841-1.7441-.233.2344-.3482.5864-.6991.8182-.1177.1153-.9365-.5839-1.4033-.8182-.347-.2317-1.0517-.3483-1.5184-.4673-.1141,0-.1141-.2318-.1141-.3483-.1166-.3508-.2356-.7029-.1166-.8194.5832-.2331.8162-.7016.8162-1.05,0-.3508.3484.1153.7011,0,.2317-.2355.3508-.4673.2317-.7028,0-.2318-.1152-.465-.347-.465-1.1714-.4697-2.4551-.4697-3.6222,0-.3527.1141-.3527.5802-.2362.9323.1189.4674.587.2355.9366,0,.114,0-.1178.3508.114.7028.2349.4674.7022.5827.7022.6992q0,.3521-.1165.5827c0,.2368,0,.4686-.2331.5876-.701.1166-1.2843.3483-1.9871.5827-.349.1166-.6986.4686-1.0513.4686-.2331,0-.4674-.4686-.5826-.5851-.2362,0-.2362-.1178-.7023,0-1.1658.4686-2.8022,1.2843-3.9711,1.9871-.2343-.2367-.1177-.5826-.2343-.8193,1.2855-.8195,2.6869-1.5174,4.0914-2.1012.114-.1203,0-.4673-.119-.7029,0,0-.8188-.1165-2.3373.3521-.9305.2306-1.9847.8181-2.1037.8181,0,0-.116-.3508-.116-.8181.7011-.3521,1.5186-.7017,2.2197-.936.82-.2342,1.6363-.2342,2.4563-.3508-.119,0-.119-.2318-.119-.3521-.3502-.6979-.9328-1.2817-1.5173-1.8669-.2343-.4698-.4692-1.0513-.4692-1.2831.2349-.2367.4692.1153.8186.1153-.1177-.352-.2317-.8181-.2317-1.2867q-.1177-.4674-.1177-1.0512c0-.7004.2317-1.05.1177-1.1703-.1177-.1153-.5869-.3459-.7035-.3459-.2342-.119-.3495-.119-.4661-.3508-.3513-.5851-.6986-1.0512-.6986-1.6364,0-.5839.2294-1.0524.4637-1.6351.1171-.4673.701-.7016,1.0525-.9359.352-.233.698-.1153,1.0506-.1153.82,0,1.5173.4661,2.1049.8157.4667.3507.6986.8181.8163,1.2867h1.0518c.5833.1153,1.1665.2343,1.8689.5839.8155-.7004,2.2176-.8181,2.9211-.8181,0-1.2843.934-1.9859,1.6313-1.9859.5876-.1191.9389-.2331,1.7555.1177.5826.3496,1.4001,1.5173,1.4001,1.6338.2375.4686.1178,1.0524.1178,1.7541-.1178.466-.1178.8169-.1178.9347-.1128.4661-.6992.817-1.0493.9334,0,.8182-.2356,1.2855-.3508,1.9847,0,.352-.1166.7029-.2338,1.0512.349-.1165.4693-.3483.8164-.3483-.2318,1.5174-.5826,1.2818-.9329,1.9859-.1189.466-.3508.9347-.6992,1.402Z"/><path class="cls-8" d="M36.6488,60.8928c-.7492-.4159-1.772-.9587-1.9465-1.0457-.4662-.1153-.6992-.3508-1.1671-.4674v-.9347c.653.1884,1.8304.3008,3.1136.8169v1.6309Z"/><path class="cls-8" d="M30.847,41.7397c-.2318.8169-.352,1.8693-.9365,2.1036-.2331.1153-.3503.1153-.4667.1153v-.9346c0-.1166.4667-.9348.3526-1.0512,0,0-1.0517.2343-1.2868.352-.1165.1166-.8162.4674-.934.4674,0,0-.3495-.119-.4686-.119-.3502-.2318-.5821-.2318-.934-.4661-.4668,1.402-.5833,1.7516-.5833,1.5198,0,0-1.6351-1.0537-2.2208-1.7541-1.5167.2343-1.5167.4686-2.8036.9347-.4685.4661-1.1683,1.0512-1.6325,1.7553-.2368.4661-.4686.6967-.7029,1.1665l1.167.4661c.1179-.1153.6998-.936.8188-1.1665.8187-.4661,2.2201-1.2855,2.6869-1.7553.1166.2355,1.5174,1.0524,2.1049,1.4033.4666.352.934.4686,1.4007.7017.2318-.3497.4673-.7017.6986-1.5199.3521.2343.8187.2343,1.1696.3508,0,.4674,0,.936.1166,1.402,0,.2344.2318.1178.701-.1152.7023-.2368,1.4008-.3508,1.7528-.4674.8188-.4661,1.2861-1.402,1.9847-1.402.5857,0,1.6375.3495,1.8706.5826.3502.1166.5857.2318.9328.2318.3372,0,.612-.2402.8713-.4617.0921.408.1423.8319.1423,1.2677v13.1313c-1.2892-.5241-2.331-.7327-3.2314-.7327,0-.119-.2343-.2355,0-.352.3484-.2355.4673-.3508.5857-.4661.3483-.4673.5802-.936.6992-1.4021.3502-.7041.7011-.4686.9328-1.9858-.3471,0-.4674.2318-.8164.3483.1172-.3483.2338-.6991.2338-1.0512.1152-.6992.3508-1.1665.3508-1.9847.3501-.1166.9365-.4674,1.0493-.9334,0-.1178,0-.4687.1177-.9348,0-.7016.1197-1.2854-.1177-1.7541,0-.1165-.8176-1.2842-1.4001-1.6337-.8165-.3508-1.1679-.2368-1.7554-.1177-.6973,0-1.6313.7016-1.6313,1.9858-.7035,0-2.1056.1177-2.9211.8181-.7023-.3496-1.2855-.4686-1.8689-.5839h-1.0517c-.1178-.4687-.3497-.936-.8163-1.2868-.5876-.3496-1.2849-.8156-2.1049-.8156-.3526,0-.6986-.1177-1.0506.1152-.3515.2344-.9354.4687-1.0525.936-.2344.5826-.4637,1.0512-.4637,1.6351,0,.585.3472,1.0512.6986,1.6364.1166.2318.2319.2318.4661.3508.1166,0,.5858.2306.7035.3459.114.1203-.1177.4698-.1177,1.1702q0,.5839.1177,1.0512c0,.4686.114.9346.2318,1.2867-.3495,0-.5838-.3521-.8187-.1153,0,.2318.235.8132.4692,1.2831.5844.5851,1.167,1.169,1.5173,1.8669,0,.1203,0,.3521.119.3521-.82.1165-1.6363.1165-2.4563.3508-.7012.2343-1.5185.5839-2.2196.936,0,.4674.116.8181.116.8181.119,0,1.1732-.5876,2.1037-.8181,1.5185-.4686,2.3373-.3521,2.3373-.3521.119.2355.233.5827.119.7029-1.4045.5839-2.8059,1.2817-4.0915,2.1011.1166.2367,0,.5826.2344.8194,1.1689-.7029,2.8053-1.5185,3.9711-1.9872.4661-.1177.4661,0,.7023,0,.1153.1166.3496.5851.5827.5851.3526,0,.7023-.3519,1.0512-.4685.7028-.2344,1.2861-.4661,1.9871-.5827.233-.119.233-.3508.233-.5876q.1165-.2306.1165-.5827c0-.1165-.4673-.2318-.7022-.6991-.2318-.352,0-.7029-.114-.7029-.3496.2355-.8176.4674-.9365,0-.1166-.3521-.1166-.8181.2361-.9322,1.1671-.4698,2.4508-.4698,3.6222,0,.2318,0,.347.2331.347.4649.1191.2355,0,.4674-.2318.7029-.3527.1153-.7011-.3508-.7011,0,0,.3483-.233.8169-.8163,1.05-.119.1165,0,.4686.1166.8194,0,.1166,0,.3483.114.3483.4667.119,1.1714.2355,1.5185.4673.4668.2344,1.2855.9335,1.4033.8181.3509-.2318.4661-.5838.6991-.8181,1.1819.5386,2.1657.8754,3.5841,1.7441v.8396c0,.8963-.2059,1.7443-.5726,2.4999-.122-.2264-.2049-.4277-.2049-.5267q-.2361-.1153-.5833-.1153c-.1203-.1166-.352-.1166-.4692-.1166,0,0,.1172.5827.349,1.1666.0989.1927.2733.3843.3962.4462-.326.4511-.7157.8527-1.1566,1.1918-.1305-.3583-.1712-.6331-.1712-.7021-.233-.2319.2331-1.0526-.3514-1.0526-.2355-.1153-.9328-.3508-.9328-.3508-.1203.3508-.1203,1.0512,0,1.4033,0,.2564.3161.8944.5749,1.2597-.447.2292-.9274.4024-1.4328.508-.0679-.2976-.1442-.6258-.1976-.8368v-1.8669c-.4673.1152-.5833.2342-.696.2342-.3534.233-.5851.3496-.5851.5839,0,.4661.1153.9347.1153,1.1665,0,.3521,0,.5863.1165.704.1705.0557.285.0845.4103.1258-.1132.0067-.227.011-.3418.011h-1.6384c.2089-.2988.4113-.5213.5193-.8408.1141-.347,0-.9322-.119-1.5174-.4643.1166-1.4008.2368-1.4008.5851-.1165.3496,0,.7004,0,.9322.1166.2367.1166.4686.1166.8194,0,.0071,0,.0142-.0003.0214h-.9519c-.0442-.1796-.0971-.3517-.0971-.4887-.1177-.3521,0-.6991-.1177-1.0525-.1191-.2318-.3503-.3482-.5858-.3482-.2318,0-.8163-.3522-.8163-.1179-.5863,0-.1178.5839-.1178.9347,0,.2523.339.7068.6519,1.0726h-7.9766c.105-.0683.2101-.1494.3145-.2545.2368-.3496.9353-1.0523,1.1696-1.2867-.2344-.2318-.3508-.5801-.4687-.817-.4642,0-2.217.7029-2.217.7029.3131.5227.5328,1.0464.7457,1.6552h-4.2102c-3.1665,0-5.7334-2.5669-5.7334-5.7333v-17.2c0-3.1664,2.5669-5.7333,5.7334-5.7333h17.2c2.5388,0,4.6907,1.6508,5.4447,3.9371-.9325-.5999-1.9391-1.175-2.9428-1.5783-.7009.5839-1.1696,1.0512-1.521,1.0512-.3459,0-.1166-.6992-.1166-1.1665-.3508,0-.5795,0-.9328-.1177"/><path class="cls-8" d="M31.5505,56.2249c-.1214-.2331-.2374-.4674-.3502-.6992-.2381-.2342-.3534-.2342-.7054-.4686,0-.8169-.1171-.8169-.1171-1.6363,0-.1153-.2307-1.4008-.2307-1.4008,0-.1166.3478-.4698.6998-.5851,0,0,2.2177,0,3.2715.1153,0,0-.1154.2355-.2338.2355-.1189.2343-.3495.352-.5876.4711-.114,0-.2324.2306-.2324.3496-.233.347-.5813.4661-1.0493.4661-.2355,0-.7023,0-.934-.4661,0,0,.119,1.402.119,1.7478,0,.1203.1128.1203.1128.1203.4667.1166.5833.5826.82.817,0,0,.1147.1177.2324.1177.4661.3483,1.5191.8157,1.0518.8157,0,.2355-.3527.8181-.4655.8181-.3521-.3521-.9365-.5826-1.4014-.8181"/><path class="cls-8" d="M32.7164,58.3285c0,.1165-.1166.6991-.1166.6991-.4667-.1154-.82-.4661-1.3995-.4661q0-.3484.1128-.4661c.7023-.1177,1.0524.1177,1.4033.2331"/><path class="cls-8" d="M29.6774,49.2159c-.4643-.4686.7004-.1177,1.2849,0,.2381,0,2.2208.4661.9341,1.0537-.2306.2306-.815.1153-1.4014.1153,0-.2343,0-.7029-.2325-.7029-.233-.2318-.585-.2318-.585-.4661"/><path class="cls-8" d="M33.1831,46.8804c.3521-.3508.82-.4686,1.2861-.3508.5833.1177.6986.233.9342.4686.3501.4661.2318,1.4008.1165,1.9859-.1165.3497-.4673.5827-.8176.5827-.5839-.6992-1.1671-1.1677-1.9858-1.402-.1166-.4661.2355-.9348.4666-1.2843"/><path class="cls-8" d="M25.9418,55.8766c-.1177.3483-.1177.5839-.4674.6991-.3526.1153-.5857.4674-.82.3521-.3514-.2368-.2342-.817,0-1.1702.2343-.3483.7023-.5839,1.0518-.7004.4668-.1166.3496-1.0487.3496-1.169.1172-.233,0-.5826,0-.8156-.2318.1165-.2318,0-.6991.1165-.468,0-.7023-.2355-.9365-.4674-.2312-.2342-.8164-.7016-1.0512-1.1714.5857-.1153,1.0512-.1153,1.6388-.1153h1.5172c.3508.1153.5821.3508.5821.5851,0,.1177-.114.817-.114.9334-.1172.7017-.1172.9347-.2361,1.9871v.3509c-.1166.2342-.5839.3495-.8151.5851"/><path class="cls-8" d="M26.173,58.3285c-.1172.1165-.5833.352-.5833.352-.2331.1166-.352.2318-.7011.3471-.119-.2306-.2343-.6991-.2343-.6991,0,0,.4674-.1154.82-.1154.2318,0,.4674,0,.6986.1154"/><path class="cls-8" d="M22.671,49.801c-.235-.2343-.7035-.5851-.9341-1.0537-.3539-.4649-.2361-.9334-.2361-1.0487.2361-.7004,1.0495-.936,1.5186-1.0512.2342,0,.4679,0,.8175.233.4661.2331.7023.2331.9328,1.0525,0,.1153,0,.2318-.1153.2318,0,0-.6997.4661-.9316.7028-.587.3484-.7034.9335-1.0518.9335"/><path class="cls-8" d="M26.173,50.5002h-.5833c0-.3496.2343-.4673.5833-.8181.3519-.2318.7028-.4661.934-.4661.2368-.1177.7004-.2318.7004,0,0,.4661-.3483.7029-.7004,1.169-.2312.3508-.3502.1153-.934.1153"/><path class="cls-8" d="M31.2003,58.5615c.5795,0,.9328.3508,1.3995.4661,0,0,.1166-.5827.1166-.6991-.3509-.1153-.7011-.3508-1.4033-.2331q-.1128.1178-.1128.4661"/><path class="cls-8" d="M33.4174,56.2249c.4673,0-.5857-.4673-1.0518-.8157-.1177,0-.2324-.1177-.2324-.1177-.2368-.2343-.3533-.7004-.82-.817,0,0-.1128,0-.1128-.1203,0-.3459-.119-1.7479-.119-1.7479.2318.4661.6986.4661.9341.4661.468,0,.8163-.119,1.0493-.4661,0-.119.1184-.3496.2324-.3496.238-.1191.4686-.2368.5876-.471.1183,0,.2337-.2356.2337-.2356-1.0537-.1152-3.2714-.1152-3.2714-.1152-.3521.1152-.6998.4686-.6998.585,0,0,.2306,1.2855.2306,1.4008,0,.8194.1171.8194.1171,1.6364.3521.2343.4674.2343.7054.4686.1128.2318.2287.466.3502.6991.4649.2355,1.0493.4661,1.4014.8181.1128,0,.4655-.5826.4655-.8181"/><path class="cls-8" d="M34.7023,49.5668c.3502,0,.7011-.2331.8175-.5827.1153-.585.2337-1.5197-.1165-1.9859-.2356-.2355-.3508-.3509-.9342-.4687-.4661-.1177-.934,0-1.286.3508-.2312.3496-.5833.8182-.4666,1.2843.8186.2344,1.4019.7029,1.9858,1.4021"/><path class="cls-8" d="M30.4949,50.3849c.5864,0,1.1709.1153,1.4014-.1153,1.2867-.5876-.696-1.0537-.9341-1.0537-.5844-.1177-1.749-.4687-1.2848,0,0,.2343.352.2343.585.4661.2324,0,.2324.4686.2324.7029"/><path class="cls-8" d="M28.6249,60.5499c1.1715,0,2.3374.1166,3.2715.6992,0,.4673,0,1.0511-.2306,1.5173,0,.1202-.2367.5876-.4655.8193-.3533-.4661-1.0532-.9347-1.0532-.9347.1154.4686,0,.5827-.1177,1.1703,0,.1153-.8163.1153-.8163.1153-.7035-.3509-.82-.817-.82-.817,0,.1141-.1166.9348-.5857.9348-.4636,0-.8144,0-.8144-.352-.1172-.3484-.1172-.5828-.1172-.936v-.4662c-.3508.1191-.585.4662-.82.703-.114,0-.2318-.2368-.3495-.2368-.2319-.4662-.3497-.8144-.4686-1.2806,1.1708-.8194,2.3379-.936,3.3872-.936"/><path class="cls-8" d="M23.3689,64.0544c.1183-.1177.3539.1152.4679.1152.3521.2356.4661.4661.5833.7018.1189.2318.2342.8181.2342.8181,0,.8182-.3514,1.05-.4655,1.5186-.2343-.3508-.3521-.8169-.4661-1.169-.119-.3497-.3539-.5839-.5869-.936.1177-.1153.233-1.0487.233-1.0487"/><path class="cls-8" d="M21.0346,63.1196c.2319.1141.5828.2344.7023.4661.2306.3509,0,.8195.1154,1.1702.1152.5827.466,1.6352.466,1.6352-.3508-.2319-.7009-.3521-1.0517-.5865-.2319-.1153-.4668-.2342-.4668-.3495-.1164-.3521-.2343-1.1665-.2343-1.4008,0-.4687.2343-.9348.4692-.9348"/><path class="cls-8" d="M16.5961,63.1196c-.1177-.3532-.1177-.7003-.2373-1.0512,0-.352-.1154-1.6388-.1154-1.8706v-.5827c.4681-.2355,1.0488-.5876,1.5186-.8181-.1153.5827-.233.8181-.233,1.7528,0,.2318.233.936.352,1.7503-.2343.4662-.352.8194-.701,1.1703-.1178.2318-.3522.3508-.3522.3508,0-.2356-.1164-.4674-.2318-.7018"/><path class="cls-8" d="M17.6468,65.5705c0,.2342-.3545.4686-.3545.4686,0-.4686-.1122-1.0512-.1122-1.2831-.1178-.2355-.2331-.3508-.2331-.5864.1153-.1152.3453-.2329.5821-.3482.1177-.2356.701-.5876.8175-.7018.3495.3509.4686.4661.7003,1.05-.114.1191-.8169.7018-1.4001,1.4009"/><path class="cls-8" d="M19.2819,56.2249c-1.1703.5864-1.6351,1.169-1.8695,1.4021-.3502.4685-1.0536,1.1702-1.2842,1.521l-.119-1.4021q-.1153-.352-.1153-1.0549c.5844-.347.8175-.5802,1.3983-.9334.2368-.2318,1.0544-.4661,2.2227-.817,0,.4686-.1179.817-.2331,1.2843"/><path class="cls-8" d="M19.748,52.2568c.1177.2306-.1166.2306-.1166.9322-.1165.2318-.2344.1166-.4686.3508-.116.1153-1.4008,1.0512-1.5161,1.1665-.2344.1153-.3545.2343-.6998.5851-.1191-.3508-.1191-.7004-.2355-1.0512,0-.1166,0-.9347.1164-1.2867,0-.2318,1.0532-.5839,1.6364-.6967.2318,0,1.1671-.2368,1.2837,0"/><path class="cls-8" d="M19.1629,46.6474c-.116.817-.23,1.0512-.23,1.9835,0,.1165.23.7029.349.936.1152.2342.2331.466.2331.7028,0,.1154-.1179.2306-.2331.3459-.349.2368-.4667.1203-.5858.3545-.5845.4649-.815.7005-1.2837,1.05q-.2323.2368-.4654.5864s-.1191-1.2855-.2355-1.9909c.4686-.2305.7009-.4649,1.1696-.8144-.119-.7028-.2343-1.1702-.2343-1.7527,0-.3497,0-.7018.2343-1.05.2305-.4686.815-.4686,1.2818-.3509"/><path class="cls-8" d="M33.5352,59.3797c.4679.1165.7009.352,1.1671.4673.1745.0871,1.1973.6299,1.9465,1.0458v-1.6309c-1.2833-.5161-2.4606-.6284-3.1136-.8169v.9347Z"/><path class="cls-8" d="M27.8074,49.2159c0-.2318-.4635-.1177-.7004,0-.2312,0-.582.2343-.934.4661-.349.3508-.5833.4686-.5833.8181h.5833c.5839,0,.7029.2355.934-.1153.3522-.4661.7004-.7029.7004-1.169"/><path class="cls-8" d="M26.7569,55.2914v-.3508c.1189-1.0524.1189-1.2855.2361-1.9871,0-.1166.114-.8157.114-.9334,0-.2343-.2313-.4699-.5821-.5851h-1.5172c-.5876,0-1.0531,0-1.6389.1152.2349.4699.82.9372,1.0512,1.1715.2343.2318.4686.4673.9365.4673.4674-.1165.4674,0,.6991-.1165,0,.233.1172.5826,0,.8157,0,.1202.1172,1.0524-.3496,1.169-.3496.1166-.8175.352-1.0518.7004-.2343.3533-.3514.9334,0,1.1702.2343.1153.4674-.2368.82-.3521.3497-.1153.3497-.3508.4674-.6991.2313-.2355.6986-.3508.8151-.5851"/><path class="cls-8" d="M24.7697,47.9329c-.2306-.8194-.4667-.8194-.9328-1.0525-.3496-.233-.5833-.233-.8175-.233-.4691.1153-1.2824.3508-1.5185,1.0512,0,.1152-.1177.5839.2361,1.0487.2306.4686.6991.8194.9341,1.0537.3483,0,.4649-.5851,1.0518-.9335.2318-.2366.9316-.7029.9316-.7029.1153,0,.1153-.1165.1153-.2318"/><path class="cls-8" d="M24.6544,58.3285s.1153.4686.2343.6991c.3491-.1153.468-.2306.7011-.347,0,0,.466-.2356.5833-.3521-.2313-.1153-.4668-.1153-.6986-.1153-.3526,0-.82.1153-.82.1153"/><path class="cls-4" d="M23.3689,64.0545c.1184-.1178.3539.1151.4679.1151.3521.2356.4662.4662.5833.7017.1189.2318.2342.8181.2342.8181,0,.8182-.3513,1.05-.4655,1.5186-.2342-.3508-.3521-.8169-.4661-1.169-.119-.3497-.3539-.5839-.5869-.936.1177-.1153.233-1.0486.233-1.0486Z"/><path class="cls-4" d="M28.6249,60.5499c1.1715,0,2.3373.1166,3.2715.6992,0,.4673,0,1.0512-.2306,1.5173,0,.1202-.2367.5876-.4655.8193-.3532-.466-1.0532-.9346-1.0532-.9346.1154.4686,0,.5827-.1177,1.1702,0,.1153-.8162.1153-.8162.1153-.7035-.3509-.82-.817-.82-.817,0,.1141-.1166.9348-.5858.9348-.4635,0-.8144,0-.8144-.3521-.1172-.3484-.1172-.5827-.1172-.936v-.4661c-.3508.1191-.585.4661-.82.7029-.114,0-.2317-.2368-.3495-.2368-.2319-.4661-.3496-.8144-.4686-1.2806,1.1709-.8194,2.3379-.936,3.3872-.936Z"/><path class="cls-4" d="M21.0347,63.1196c.2319.1141.5827.2343.7023.466.2305.3509,0,.8196.1153,1.1703.1152.5826.4661,1.6351.4661,1.6351-.3508-.2318-.7009-.3521-1.0518-.5864-.2319-.1153-.4668-.2343-.4668-.3495-.1164-.3521-.2343-1.1666-.2343-1.4008,0-.4687.2343-.9348.4692-.9348Z"/><path class="cls-4" d="M17.6467,48.0482c0-.3496,0-.7017.2343-1.05.2306-.4687.8151-.4687,1.2818-.3509-.1159.817-.2299,1.0513-.2299,1.9836,0,.1164.2299.7028.349.9359.1152.2342.2331.466.2331.7029,0,.1153-.1178.2306-.2331.3459-.349.2367-.4668.1203-.5858.3545-.5846.4649-.8151.7004-1.2837,1.05q-.2324.2367-.4655.5863s-.119-1.2854-.2355-1.9908c.4685-.2306.7009-.4649,1.1695-.8145-.119-.7028-.2343-1.1701-.2343-1.7527Z"/><path class="cls-4" d="M16.5962,63.1196c-.1177-.3532-.1177-.7003-.2374-1.0512,0-.352-.1153-1.6388-.1153-1.8706v-.5827c.468-.2355,1.0488-.5876,1.5185-.8181-.1153.5827-.233.8181-.233,1.7528,0,.2318.233.936.352,1.7503-.2343.4662-.352.8194-.701,1.1703-.1177.2318-.3521.3508-.3521.3508,0-.2356-.1165-.4674-.2317-.7018Z"/><path class="cls-4" d="M17.6467,65.5704c0,.2343-.3545.4686-.3545.4686,0-.4686-.1122-1.0512-.1122-1.283-.1178-.2355-.2331-.3507-.2331-.5864.1153-.1152.3453-.2329.5821-.3482.1177-.2356.701-.5877.8176-.7018.3496.3509.4686.4661.7003,1.05-.114.119-.8168.7017-1.4001,1.4008Z"/><path class="cls-4" d="M19.2818,56.2248c-1.1703.5864-1.6351,1.169-1.8694,1.4021-.3502.4686-1.0537,1.1702-1.2843,1.521l-.119-1.402q-.1153-.3521-.1153-1.055c.5846-.347.8176-.5801,1.3983-.9334.2368-.2318,1.0544-.4661,2.2227-.817,0,.4686-.1179.817-.2331,1.2843Z"/><path class="cls-4" d="M19.6314,53.1889c-.1165.2318-.2344.1166-.4686.3508-.116.1153-1.4008,1.0512-1.5161,1.1665-.2343.1153-.3546.2343-.6998.5851-.119-.3508-.119-.7004-.2355-1.0513,0-.1165,0-.9347.1165-1.2867,0-.2318,1.0531-.5839,1.6363-.6967.2317,0,1.1671-.2368,1.2837,0,.1177.2306-.1166.2306-.1166.9322Z"/></g><g id="phone"><rect class="cls-2" x="34.3158" y="45.3774" width="26.0242" height="53.1763" rx="2.7203" ry="2.7203"/><rect class="cls-5" x="35.2132" y="46.3052" width="24.2294" height="51.295" rx="1.8525" ry="1.8525"/><path class="cls-2" d="M41.1949,46.3052h12.2662c0,1.2309-.9993,2.2302-2.2302,2.2302h-7.8058c-1.2309,0-2.2302-.9993-2.2302-2.2302h0Z"/><rect class="cls-3" x="43.9826" y="46.4963" width="6.6906" height=".63"/><rect class="cls-4" x="38.2725" y="62.9631" width="18" height="18" rx="3.7592" ry="3.7592"/><path class="cls-8" d="M54.6047,73.8345c-.0743.0724-.1489.1447-.3675.2926-.1471.0732,0,.1463,0,.221.565,0,1.2188.1309,2.0279.46v-8.2435c0-.2737-.0315-.5397-.0893-.7959-.1628.1391-.3352.2899-.5468.2899-.2178,0-.3656-.0724-.5854-.1455-.1463-.1463-.8063-.3657-1.174-.3657-.4384,0-.7317.5876-1.2455.8801-.221.0732-.6594.1448-1.1001.2934-.2945.1463-.4399.2195-.4399.0724-.0732-.2926-.0732-.5868-.0732-.8802-.2202-.0732-.513-.0732-.734-.2202-.1451.5136-.2929.7346-.4383.9541-.293-.1463-.5863-.2195-.8791-.4405-.3687-.2202-1.2478-.7331-1.321-.8809-.293.2949-1.1724.8093-1.6863,1.1019-.0747.1448-.4399.6599-.5139.7323l-.7324-.2926c.147-.2949.2925-.4397.4411-.7323.2913-.442.7305-.8093,1.0246-1.102.8075-.2926.8075-.4396,1.7594-.5867.3676.4396,1.3937,1.1011,1.3937,1.1011,0,.1455.0731-.0739.366-.954.2209.147.3664.147.5862.2926.0747,0,.2941.0747.2941.0747.074,0,.5131-.2202.5862-.2934.1475-.0739.8075-.2209.8075-.2209.0716.0731-.2213.5867-.2213.6599v.5868c.073,0,.1466,0,.2929-.0724.3668-.1471.4422-.8078.5877-1.3206.2217.0739.3652.0739.5854.0739,0,.2934-.1439.7323.0731.7323.2206,0,.5147-.2934.9546-.6599.6298.2532,1.2615.6142,1.8468.9908-.4732-1.4353-1.8236-2.4716-3.4169-2.4716h-10.7942c-1.9872,0-3.5981,1.6114-3.5981,3.5993v10.7977c0,1.9878,1.6109,3.5993,3.5981,3.5993h2.6422c-.1336-.3822-.2715-.711-.468-1.0392,0,0,1.1-.4412,1.3914-.4412.074.1486.1471.3673.2941.5128-.147.1471-.5854.5884-.734.8078-.0655.0659-.1314.1169-.1973.1598h5.0059c-.1964-.2297-.4091-.515-.4091-.6734,0-.2202-.2941-.5868.0739-.5868,0-.147.3668.074.5123.074.1478,0,.2929.0731.3676.2186.0739.2218,0,.4397.0739.6607,0,.086.0333.1941.0609.3069h.5974c.0001-.0045.0002-.009.0002-.0135,0-.2202,0-.3657-.0732-.5144,0-.1455-.0731-.3657,0-.5852,0-.2187.5878-.2941.8792-.3673.0746.3673.1463.7346.0746.9525-.0677.2006-.1948.3403-.3259.5279h1.0282c.0721,0,.1435-.0028.2145-.0069-.0786-.0259-.1505-.044-.2574-.0789-.0732-.0739-.0732-.221-.0732-.442,0-.1455-.0723-.4397-.0723-.7323,0-.147.1455-.2202.3672-.3665.0708,0,.1436-.0746.4368-.147v1.172c.0335.1325.0814.3385.124.5253.3172-.0663.6187-.175.8992-.3189-.1624-.2293-.3607-.6299-.3607-.7908-.0755-.221-.0755-.6607,0-.881,0,0,.4375.1478.5853.2202.3668,0,.0743.5151.2205.6607,0,.0434.0256.2158.1076.4408.2766-.2129.5212-.465.7258-.7481-.0771-.0389-.1865-.1592-.2486-.2802-.1454-.3665-.219-.7323-.219-.7323.0736,0,.219,0,.2945.0732q.2178,0,.366.0724c0,.0622.052.1886.1286.3307.2302-.4743.3594-1.0067.3594-1.5694v-.5271c-.8902-.5453-1.5076-.7568-2.2493-1.0949-.1462.1471-.2185.3681-.4387.5137-.0739.0724-.5877-.3665-.8807-.5137-.2178-.1455-.66-.2187-.9529-.2934-.0716,0-.0716-.1455-.0716-.2187-.0732-.2202-.1479-.4413-.0732-.5144.366-.1463.5123-.4404.5123-.6592,0-.2202.2186.0724.44,0,.1454-.1479.2202-.2934.1454-.4412,0-.1455-.0723-.2919-.2178-.2919-.7351-.2949-1.5408-.2949-2.2732,0-.2213.0716-.2213.3643-.1482.5852.0746.2934.3684.1479.5878,0,.0715,0-.074.2202.0715.4412.1474.2934.4407.3658.4407.4389q0,.221-.0731.3658c0,.1487,0,.2942-.1463.3689-.4399.0732-.806.2187-1.247.3658-.219.0732-.4384.2942-.6597.2942-.1463,0-.2933-.2942-.3656-.3673-.1482,0-.1482-.074-.4407,0-.7316.2941-1.7586.8062-2.4922,1.2475-.147-.1486-.0738-.3657-.147-.5143.8067-.5145,1.6862-.9526,2.5676-1.3191.0716-.0755,0-.2934-.0747-.4413,0,0-.5138-.0731-1.4668.221-.5839.1447-1.2455.5136-1.3202.5136,0,0-.0728-.2202-.0728-.5136.44-.221.953-.4405,1.393-.5876.5146-.147,1.0269-.147,1.5415-.2202-.0747,0-.0747-.1455-.0747-.221-.2198-.4381-.5854-.8046-.9522-1.172-.147-.295-.2944-.6599-.2944-.8055.1474-.1486.2944.0724.5138.0724-.0739-.221-.1454-.5136-.1454-.8078q-.0739-.2934-.0739-.6599c0-.4397.1454-.6592.0739-.7347-.0739-.0724-.3683-.2171-.4415-.2171-.147-.0747-.2193-.0747-.2925-.2202-.2205-.3673-.4384-.6599-.4384-1.0273,0-.3665.144-.6607.291-1.0265.0735-.2934.4399-.4404.6605-.5875.2209-.1463.438-.0724.6593-.0724.5146,0,.9522.2926,1.321.5121.2929.2202.4384.5136.5123.8078h.6601c.3661.0724.7321.1471,1.1729.3665.5118-.4397,1.3917-.5136,1.8332-.5136,0-.8062.5862-1.2467,1.0238-1.2467.3687-.0747.5893-.1463,1.1017.0739.3656.2195.8787.9525.8787,1.0257.1491.2942.074.6607.074,1.1012-.074.2926-.074.5128-.074.5868-.0708.2926-.4388.5129-.6585.586,0,.5137-.1479.807-.2201,1.2459,0,.221-.0732.4412-.1467.6599.219-.0731.2945-.2187.5124-.2187-.1455.9526-.3656.8047-.5854,1.2467-.0746.2926-.2202.5868-.4388.8801Z"/><path class="cls-8" d="M56.2651,76.3236c-.4702-.2611-1.112-.6019-1.2216-.6565-.2926-.0724-.4388-.2202-.7325-.2934v-.5868c.4098.1183,1.1487.1888,1.954.5128v1.0238Z"/><path class="cls-8" d="M52.6241,64.2998c-.1454.5128-.2209,1.1735-.5877,1.3206-.1463.0724-.2199.0724-.2929.0724v-.5867c0-.0732.2929-.5868.2213-.6599,0,0-.66.1471-.8076.221-.0731.0732-.5122.2934-.5862.2934,0,0-.2193-.0747-.2941-.0747-.2198-.1455-.3653-.1455-.5862-.2926-.2929.8801-.366,1.0996-.366.9541,0,0-1.0261-.6615-1.3937-1.1012-.9518.1471-.9518.2942-1.7594.5868-.294.2926-.7332.6599-1.0245,1.1019-.1486.2926-.2941.4374-.4411.7323l.7324.2926c.074-.0724.4392-.5876.5139-.7323.5138-.2926,1.3933-.807,1.6862-1.1019.0731.1478.9523.6607,1.321.8809.2928.221.5862.2942.8791.4405.1455-.2195.2933-.4405.4384-.9542.221.1471.5138.1471.734.2202,0,.2934,0,.5876.0731.8801,0,.1471.1454.074.4399-.0723.4407-.1487.8791-.2202,1.1-.2934.5139-.2926.8071-.8801,1.2455-.8801.3676,0,1.0277.2194,1.174.3657.2198.0732.3676.1455.5854.1455.2116,0,.3841-.1508.5468-.2899.0578.2561.0893.5222.0893.7959v8.2435c-.8091-.329-1.4629-.46-2.028-.46,0-.0747-.147-.1478,0-.221.2186-.1479.2933-.2202.3676-.2926.2186-.2934.3641-.5876.4388-.8802.2198-.442.44-.2942.5854-1.2467-.2178,0-.2933.1455-.5123.2187.0736-.2187.1467-.4389.1467-.6599.0723-.439.2202-.7323.2202-1.2459.2197-.0732.5877-.2934.6585-.586,0-.074,0-.2942.0739-.5868,0-.4404.0751-.807-.0739-1.1012,0-.0731-.5131-.8062-.8787-1.0256-.5124-.2202-.7329-.1487-1.1017-.0739-.4376,0-1.0238.4404-1.0238,1.2467-.4415,0-1.3214.0739-1.8332.5136-.4408-.2195-.8068-.2942-1.1729-.3665h-.66c-.0739-.2942-.2194-.5876-.5123-.8078-.3687-.2195-.8064-.512-1.321-.512-.2213,0-.4384-.0739-.6593.0723-.2206.1471-.587.2942-.6605.5876-.1471.3657-.291.6599-.291,1.0265,0,.3673.2179.6599.4384,1.0273.0732.1455.1455.1455.2925.2202.0731,0,.3676.1447.4415.2171.0716.0755-.0739.2949-.0739.7346q0,.3665.0739.6599c0,.2942.0716.5867.1454.8078-.2193,0-.3664-.221-.5138-.0724,0,.1455.1475.5105.2945.8055.3668.3673.7324.7339.9522,1.172,0,.0755,0,.221.0747.221-.5146.0731-1.0269.0731-1.5415.2202-.44.1471-.953.3665-1.393.5876,0,.2934.0728.5136.0728.5136.0747,0,.7363-.3689,1.3202-.5136.953-.2942,1.4668-.221,1.4668-.221.0747.1479.1462.3658.0747.4413-.8814.3665-1.7609.8046-2.5677,1.319.0732.1486,0,.3657.1471.5144.7336-.4412,1.7605-.9533,2.4922-1.2475.2925-.0739.2925,0,.4407,0,.0724.0732.2194.3673.3657.3673.2213,0,.4407-.2209.6597-.2941.441-.1471.8071-.2926,1.2471-.3658.1462-.0747.1462-.2202.1462-.3689q.0731-.1447.0731-.3658c0-.0731-.2933-.1455-.4407-.4389-.1455-.221,0-.4412-.0716-.4412-.2194.1479-.5131.2934-.5878,0-.0731-.221-.0731-.5136.1482-.5852.7325-.2949,1.5381-.2949,2.2732,0,.1454,0,.2178.1463.2178.2918.0747.1479,0,.2934-.1454.4413-.2213.0724-.44-.2202-.44,0,0,.2187-.1462.5128-.5123.6591-.0747.0731,0,.2942.0732.5144,0,.0732,0,.2187.0716.2187.2929.0747.7352.1479.9529.2934.2929.1471.8068.586.8806.5136.2202-.1455.2925-.3665.4388-.5136.7417.3381,1.3591.5496,2.2493,1.0949v.5271c0,.5626-.1292,1.095-.3594,1.5694-.0766-.1421-.1286-.2685-.1286-.3307q-.1482-.0724-.366-.0724c-.0755-.0732-.2209-.0732-.2945-.0732,0,0,.0736.3658.219.7324.0621.1209.1715.2412.2486.2801-.2046.2832-.4492.5353-.7258.7482-.0819-.225-.1075-.3974-.1075-.4408-.1462-.1456.1463-.6608-.2205-.6608-.1478-.0724-.5854-.2202-.5854-.2202-.0755.2202-.0755.6599,0,.881,0,.1609.1984.5615.3608.7908-.2805.1439-.582.2526-.8992.3189-.0426-.1868-.0905-.3929-.124-.5253v-1.172c-.2933.0723-.366.147-.4368.147-.2218.1463-.3672.2195-.3672.3665,0,.2926.0724.5868.0724.7323,0,.221,0,.3681.0731.442.107.035.1789.0531.2575.079-.071.0042-.1424.0069-.2145.0069h-1.0282c.1311-.1875.2581-.3273.3259-.5278.0716-.2179,0-.5852-.0747-.9526-.2914.0732-.8791.1487-.8791.3673-.0731.2195,0,.4397,0,.5852.0731.1486.0731.2942.0731.5144,0,.0044,0,.0089-.0002.0134h-.5974c-.0277-.1127-.0609-.2208-.0609-.3068-.0739-.221,0-.4389-.0739-.6607-.0747-.1455-.2199-.2186-.3676-.2186-.1455,0-.5123-.2211-.5123-.074-.3679,0-.0739.3665-.0739.5868,0,.1584.2127.4437.4091.6734h-5.0059c.0659-.0429.1319-.0938.1974-.1598.1486-.2195.587-.6606.734-.8078-.1471-.1455-.2201-.3642-.2941-.5129-.2913,0-1.3913.4413-1.3913.4413.1965.3281.3344.6569.468,1.0391h-2.6422c-1.9872,0-3.5981-1.6114-3.5981-3.5992v-10.7977c0-1.9878,1.6109-3.5992,3.5981-3.5992h10.7942c1.5933,0,2.9438,1.0363,3.4169,2.4716-.5852-.3766-1.2169-.7376-1.8468-.9908-.4399.3665-.734.6599-.9545.6599-.2171,0-.0731-.439-.0731-.7323-.2201,0-.3637,0-.5854-.0739"/><path class="cls-8" d="M53.0656,73.3932c-.0762-.1463-.149-.2934-.2198-.439-.1494-.147-.2218-.147-.4427-.2942,0-.5128-.0735-.5128-.0735-1.0272,0-.0724-.1448-.8794-.1448-.8794,0-.0732.2183-.2949.4392-.3673,0,0,1.3918,0,2.0531.0724,0,0-.0724.1479-.1467.1479-.0746.1471-.2193.221-.3687.2957-.0716,0-.1459.1447-.1459.2195-.1462.2179-.3648.2926-.6585.2926-.1478,0-.4407,0-.5862-.2926,0,0,.0747.8801.0747,1.0972,0,.0755.0708.0755.0708.0755.2929.0732.366.3657.5146.5129,0,0,.072.0739.1459.0739.2925.2187.9534.5121.6601.5121,0,.1479-.2213.5136-.2921.5136-.221-.221-.5878-.3657-.8795-.5136"/><path class="cls-8" d="M53.7973,74.7139c0,.0731-.0732.4389-.0732.4389-.2929-.0724-.5146-.2926-.8783-.2926q0-.2187.0708-.2926c.4407-.0739.6605.0739.8807.1463"/><path class="cls-8" d="M51.8901,68.9932c-.2914-.2942.4396-.0739.8063,0,.1494,0,1.3937.2926.5862.6615-.1447.1447-.5115.0724-.8795.0724,0-.1471,0-.4412-.1459-.4412-.1462-.1455-.3672-.1455-.3672-.2926"/><path class="cls-8" d="M54.0901,67.527c.221-.2202.5146-.2942.8071-.2202.3661.0739.4384.1463.5863.2942.2197.2926.1454.8794.0731,1.2467-.0731.2195-.2933.3658-.5131.3658-.3664-.439-.7325-.7331-1.2463-.8801-.0732-.2926.1478-.5868.2928-.8063"/><path class="cls-8" d="M49.5457,73.1746c-.0739.2187-.0739.3665-.2933.4389-.2213.0724-.3676.2934-.5146.221-.2205-.1487-.147-.5129,0-.7346.147-.2187.4407-.3665.6601-.4397.2929-.0732.2194-.6584.2194-.7339.0736-.1463,0-.3657,0-.512-.1454.0731-.1454,0-.4388.0731-.2937,0-.4407-.1479-.5877-.2934-.1451-.147-.5123-.4404-.6597-.7354.3676-.0724.6597-.0724,1.0285-.0724h.9522c.2202.0724.3653.2202.3653.3673,0,.0739-.0716.5129-.0716.586-.0736.4405-.0736.5868-.1482,1.2475v.2203c-.0731.147-.3664.2194-.5115.3673"/><path class="cls-8" d="M49.6908,74.7139c-.0736.0731-.366.221-.366.221-.1463.0732-.2209.1455-.44.2179-.0747-.1447-.147-.4389-.147-.4389,0,0,.2933-.0724.5146-.0724.1455,0,.2933,0,.4384.0724"/><path class="cls-8" d="M47.493,69.3605c-.1475-.1471-.4415-.3673-.5862-.6615-.2221-.2918-.1482-.586-.1482-.6584.1482-.4397.6586-.5876.9531-.6599.147,0,.2936,0,.513.1463.2925.1463.4407.1463.5854.6607,0,.0724,0,.1455-.0724.1455,0,0-.4391.2926-.5846.4412-.3684.2187-.4415.586-.6601.586"/><path class="cls-8" d="M49.6908,69.7994h-.366c0-.2195.147-.2934.366-.5136.2209-.1455.441-.2926.5862-.2926.1486-.0739.4396-.1455.4396,0,0,.2926-.2186.4413-.4396.7339-.1451.2202-.2198.0724-.5862.0724"/><path class="cls-8" d="M52.8458,74.8601c.3637,0,.5854.2202.8783.2926,0,0,.0732-.3658.0732-.4389-.2202-.0724-.44-.2202-.8807-.1463q-.0708.074-.0708.2926"/><path class="cls-8" d="M54.2372,73.3932c.2933,0-.3676-.2934-.6601-.5121-.0739,0-.1459-.0739-.1459-.0739-.1486-.1471-.2217-.4397-.5146-.5129,0,0-.0708,0-.0708-.0755,0-.2171-.0747-1.0973-.0747-1.0973.1455.2926.4384.2926.5862.2926.2937,0,.5123-.0747.6585-.2926,0-.0747.0743-.2195.1459-.2195.1494-.0748.2941-.1487.3687-.2957.0743,0,.1467-.1479.1467-.1479-.6613-.0723-2.053-.0723-2.053-.0723-.221.0723-.4392.2942-.4392.3673,0,0,.1447.807.1447.8794,0,.5144.0735.5144.0735,1.0273.221.1471.2933.1471.4427.2942.0708.1455.1435.2926.2198.4389.2917.1479.6585.2926.8795.5136.0708,0,.2921-.3657.2921-.5136"/><path class="cls-8" d="M55.0435,69.2135c.2198,0,.44-.1463.5131-.3658.0724-.3673.1467-.954-.0731-1.2467-.1479-.1479-.2202-.2203-.5863-.2942-.2925-.0739-.5862,0-.8071.2202-.1451.2195-.366.5137-.2928.8062.5138.1471.8798.4412,1.2462.8802"/><path class="cls-8" d="M52.4031,69.7271c.368,0,.7348.0724.8795-.0724.8075-.3689-.4368-.6615-.5862-.6615-.3668-.0739-1.0976-.2942-.8063,0,0,.1471.2209.1471.3672.2926.1459,0,.1459.2942.1459.4412"/><path class="cls-8" d="M51.2296,76.1084c.7352,0,1.4669.0732,2.0531.439,0,.2934,0,.6598-.1447.9525,0,.0754-.1486.3689-.2921.5143-.2217-.2926-.6609-.5868-.6609-.5868.0724.2942,0,.3658-.0739.7347,0,.0724-.5123.0724-.5123.0724-.4415-.2203-.5146-.5129-.5146-.5129,0,.0716-.0731.5868-.3676.5868-.2909,0-.5111,0-.5111-.221-.0736-.2187-.0736-.3658-.0736-.5876v-.2927c-.2202.0748-.3672.2927-.5146.4413-.0716,0-.1454-.1487-.2193-.1487-.1455-.2927-.2194-.5113-.2941-.8039.7348-.5144,1.4672-.5876,2.1257-.5876"/><path class="cls-8" d="M47.9311,78.3084c.0743-.0739.2221.0723.2936.0723.221.1479.2925.2926.3661.4405.0746.1455.147.5136.147.5136,0,.5137-.2205.6591-.2921.9534-.147-.2202-.221-.5128-.2925-.7339-.0747-.2195-.2221-.3665-.3683-.5876.0739-.0724.1462-.6584.1462-.6584"/><path class="cls-8" d="M46.4661,77.7216c.1455.0716.3657.1471.4407.2926.1447.2203,0,.5145.0724.7346.0723.3658.2925,1.0265.2925,1.0265-.2202-.1456-.4399-.221-.66-.3682-.1455-.0724-.2929-.147-.2929-.2194-.073-.221-.147-.7323-.147-.8794,0-.2942.147-.5868.2944-.5868"/><path class="cls-8" d="M43.6806,77.7216c-.0739-.2217-.0739-.4396-.1489-.6599,0-.221-.0724-1.0288-.0724-1.1743v-.3658c.2937-.1478.6582-.3689.9531-.5136-.0724.3658-.1462.5136-.1462,1.1004,0,.1455.1462.5876.2209,1.0988-.147.2927-.2209.5144-.4399.7347-.0739.1455-.221.2202-.221.2202,0-.1479-.073-.2934-.1454-.4405"/><path class="cls-8" d="M44.34,79.2602c0,.147-.2225.2942-.2225.2942,0-.2942-.0704-.6599-.0704-.8055-.0739-.1478-.1463-.2202-.1463-.3681.0724-.0723.2167-.1462.3653-.2186.0739-.1479.4399-.3689.5131-.4405.2193.2203.2941.2926.4395.6591-.0716.0748-.5126.4405-.8787.8794"/><path class="cls-8" d="M45.3661,73.3932c-.7345.3681-1.0261.7339-1.1732.8802-.2198.2941-.6612.7346-.8059.9548l-.0747-.8802q-.0724-.221-.0724-.6622c.3668-.2179.5131-.3643.8775-.586.1486-.1455.6617-.2926,1.3949-.5129,0,.2942-.074.5129-.1463.8062"/><path class="cls-8" d="M45.6586,70.9022c.0739.1447-.0731.1447-.0731.5852-.0731.1455-.1471.0732-.2941.2202-.0728.0724-.8791.6599-.9515.7323-.1471.0724-.2225.1471-.4392.3673-.0747-.2202-.0747-.4397-.1478-.6599,0-.0732,0-.5868.073-.8078,0-.1455.6609-.3666,1.027-.4374.1454,0,.7325-.1487.8056,0"/><path class="cls-8" d="M45.2914,67.3807c-.0728.5129-.1443.6599-.1443,1.2452,0,.0731.1443.4412.219.5876.0723.147.1463.2926.1463.4412,0,.0724-.074.1447-.1463.2171-.219.1487-.2929.0755-.3676.2226-.3668.2919-.5115.4398-.8056.6591q-.1458.1487-.2921.3681s-.0747-.807-.1478-1.2498c.2941-.1447.4399-.2918.734-.5113-.0747-.4412-.147-.7346-.147-1.1003,0-.2195,0-.4405.147-.6592.1447-.2942.5115-.2942.8044-.2203"/><path class="cls-8" d="M54.3111,75.3738c.2936.0731.4399.221.7325.2934.1095.0547.7514.3954,1.2216.6565v-1.0238c-.8053-.324-1.5442-.3945-1.954-.5128v.5868Z"/><path class="cls-8" d="M50.7165,68.9932c0-.1455-.2909-.0739-.4396,0-.1451,0-.3652.1471-.5862.2926-.219.2202-.366.2942-.366.5136h.366c.3665,0,.4411.1479.5862-.0724.221-.2926.4396-.4412.4396-.7339"/><path class="cls-8" d="M50.0572,72.8072v-.2202c.0746-.6607.0746-.807.1482-1.2475,0-.0732.0716-.5121.0716-.586,0-.1471-.1451-.295-.3653-.3673h-.9522c-.3688,0-.6609,0-1.0285.0723.1474.295.5146.5884.6597.7354.147.1455.2941.2934.5878.2934.2933-.0731.2933,0,.4388-.0731,0,.1463.0736.3657,0,.5121,0,.0754.0736.6607-.2194.7339-.2194.0732-.5131.221-.6601.4397-.147.2218-.2205.586,0,.7346.147.0724.2933-.1487.5146-.221.2194-.0724.2194-.2202.2933-.4389.1451-.1479.4384-.2202.5115-.3673"/><path class="cls-8" d="M48.8101,68.1878c-.1447-.5144-.2929-.5144-.5854-.6607-.2194-.1463-.366-.1463-.5131-.1463-.2944.0724-.8048.2202-.953.6599,0,.0723-.0739.3665.1482.6584.1447.2942.4388.5144.5862.6615.2186,0,.2917-.3673.6601-.586.1455-.1486.5846-.4412.5846-.4412.0724,0,.0724-.0731.0724-.1455"/><path class="cls-8" d="M48.7378,74.7138s.0724.2942.147.4389c.2191-.0724.2937-.1447.44-.2179,0,0,.2925-.1479.366-.221-.1451-.0724-.2929-.0724-.4384-.0724-.2213,0-.5146.0724-.5146.0724"/><path class="cls-4" d="M47.931,78.3084c.0743-.074.2221.0723.2937.0723.221.1479.2926.2927.3661.4405.0746.1455.147.5136.147.5136,0,.5137-.2205.6592-.2921.9534-.147-.2202-.221-.5128-.2925-.7339-.0747-.2195-.2221-.3665-.3683-.5876.0739-.0724.1462-.6583.1462-.6583Z"/><path class="cls-4" d="M51.2296,76.1084c.7352,0,1.4668.0732,2.0531.439,0,.2934,0,.6599-.1447.9525,0,.0755-.1486.3689-.2921.5144-.2217-.2926-.6609-.5867-.6609-.5867.0724.2942,0,.3658-.0739.7346,0,.0724-.5123.0724-.5123.0724-.4415-.2203-.5146-.5129-.5146-.5129,0,.0716-.0732.5868-.3676.5868-.2909,0-.5111,0-.5111-.221-.0736-.2187-.0736-.3658-.0736-.5876v-.2926c-.2202.0748-.3672.2926-.5146.4413-.0716,0-.1454-.1487-.2193-.1487-.1455-.2926-.2194-.5113-.2941-.8039.7348-.5144,1.4672-.5876,2.1257-.5876Z"/><path class="cls-4" d="M46.4661,77.7216c.1455.0716.3657.1471.4407.2926.1446.2203,0,.5145.0723.7347.0723.3657.2925,1.0265.2925,1.0265-.2202-.1455-.4399-.221-.6601-.3681-.1455-.0724-.293-.1471-.293-.2194-.073-.221-.147-.7324-.147-.8794,0-.2943.147-.5868.2945-.5868Z"/><path class="cls-4" d="M44.34,68.2601c0-.2195,0-.4405.147-.6592.1447-.2942.5116-.2942.8044-.2203-.0728.5129-.1443.66-.1443,1.2452,0,.0731.1443.4412.219.5875.0723.147.1463.2926.1463.4412,0,.0724-.074.1447-.1463.2171-.219.1486-.2929.0755-.3676.2226-.3668.2918-.5116.4397-.8056.6592q-.1458.1486-.2921.3681s-.0747-.807-.1478-1.2498c.294-.1448.4399-.2918.7339-.5113-.0747-.4412-.147-.7345-.147-1.1003Z"/><path class="cls-4" d="M43.6807,77.7216c-.0739-.2217-.0739-.4396-.149-.6599,0-.221-.0723-1.0288-.0723-1.1743v-.3658c.2937-.1478.6582-.3689.953-.5136-.0723.3658-.1462.5136-.1462,1.1004,0,.1455.1462.5876.2209,1.0988-.147.2927-.2209.5144-.4399.7347-.0739.1455-.221.2202-.221.2202,0-.1479-.0731-.2934-.1454-.4405Z"/><path class="cls-4" d="M44.34,79.2601c0,.1471-.2225.2942-.2225.2942,0-.2942-.0704-.6599-.0704-.8054-.0739-.1478-.1463-.2202-.1463-.3681.0724-.0723.2167-.1462.3653-.2186.0739-.1479.4399-.3689.5131-.4405.2194.2203.2941.2926.4395.6592-.0716.0747-.5126.4405-.8787.8794Z"/><path class="cls-4" d="M45.3661,73.3932c-.7345.3681-1.0261.7339-1.1732.8802-.2198.2942-.6613.7346-.806.9548l-.0747-.8801q-.0724-.221-.0724-.6623c.3668-.2179.5131-.3642.8776-.586.1486-.1455.6617-.2926,1.3949-.5129,0,.2942-.074.5129-.1463.8062Z"/><path class="cls-4" d="M45.5855,71.4874c-.0731.1455-.1471.0732-.2941.2202-.0728.0724-.8791.6599-.9514.7323-.147.0724-.2225.1471-.4392.3673-.0747-.2202-.0747-.4397-.1478-.6599,0-.0732,0-.5868.0731-.8078,0-.1455.6609-.3666,1.0269-.4374.1454,0,.7325-.1487.8056,0,.0738.1448-.0732.1448-.0732.5852Z"/></g></svg>