<?xml version="1.0" encoding="utf-8"?><!--Generator: Adobe Illustrator 28.0.0, SVG Export Plug-In . SVG Version: 6.00 Build 0)--><svg version="1.1" xmlns="http://www.w3.org/2000/svg" xmlns:xlink="http://www.w3.org/1999/xlink" x="0px" y="0px" viewBox="0 0 160 160" style="enable-background:new 0 0 160 160;" xml:space="preserve"><style type="text/css">.st0{fill:#D8CBC5;}
	.st1{fill:#E6E3DA;}
	.st2{fill:#232144;}
	.st3{fill:#E73245;}
	.st4{fill:#FFFFFF;}</style><g id="Design"><g><rect x="39.2" y="21.4" class="st0" width="5" height="27.4"/></g><g><rect x="128" y="21.4" class="st0" width="5" height="27.4"/></g><g><rect x="29.6" y="43.3" class="st1" width="114.1" height="71"/></g><g><rect x="40.8" y="69.1" class="st2" width="91.7" height="17.5"/></g><g><polygon class="st3" points="143.7,43.3 114.7,43.3 29.6,92.4 29.6,114.3 63.3,114.3 143.7,67.9 		"/></g><g><path class="st4" d="M59.4,94.7c0.7,0.7,1.4,1.3,1.9,1.8c0.6,0.5,1.1,1,1.5,1.5c-0.2-0.6-0.3-1.3-0.5-2c-0.2-0.7-0.4-1.6-0.6-2.6
			l-1-4.2c-0.1-0.2,0-0.3,0.2-0.5l1.1-0.6c0.2-0.1,0.3,0,0.3,0.2l2.3,10.5c0,0.1,0,0.2,0,0.3c0,0.1-0.1,0.1-0.2,0.2l-1.2,0.7
			c-0.1,0.1-0.2,0.1-0.3,0.1c-0.1,0-0.1,0-0.2-0.1l-8.1-7.1c-0.1-0.1-0.1-0.1-0.1-0.2c0-0.1,0-0.1,0.1-0.2l1.2-0.7
			c0.2-0.1,0.4-0.1,0.5,0L59.4,94.7z"/><path class="st4" d="M69.1,96.4c-0.2,0.1-0.3,0.1-0.4-0.1l-5.2-8.8c-0.1-0.2-0.1-0.3,0.1-0.4l5-2.9c0.2-0.1,0.3-0.1,0.4,0.1
			l0.5,0.8c0.1,0.2,0.1,0.3-0.1,0.4l-3.6,2.1l1.5,2.6l3.1-1.8c0.2-0.1,0.3-0.1,0.4,0.1l0.5,0.8c0.1,0.2,0.1,0.3-0.1,0.4l-3.1,1.8
			l1.6,2.7l3.7-2.2c0.2-0.1,0.3-0.1,0.4,0.1l0.5,0.8c0.1,0.2,0.1,0.3-0.1,0.4L69.1,96.4z"/><path class="st4" d="M76.9,87.3c-0.2-0.1-0.3-0.1-0.4-0.1c-0.1,0-0.2,0.1-0.4,0.2l-0.6,0.4l2,3.4c0.1,0.2,0.1,0.3-0.1,0.4
			l-1.1,0.7c-0.2,0.1-0.3,0.1-0.4-0.1l-5.2-8.8c-0.1-0.2-0.1-0.3,0.1-0.4l2.1-1.2c0.7-0.4,1.3-0.7,1.9-0.8c0.6-0.1,1.1-0.1,1.6,0
			c0.7,0.2,1.2,0.7,1.7,1.5c0.4,0.6,0.5,1.2,0.5,1.9c0,0.6-0.2,1.2-0.7,1.8l4.3,2.3c0.1,0.1,0.2,0.1,0.2,0.2s0,0.2-0.2,0.2l-1.2,0.7
			c-0.1,0.1-0.2,0.1-0.3,0.1c-0.1,0-0.2,0-0.3-0.1L76.9,87.3z M73,83.4l1.8,3l0.8-0.5c0.6-0.4,1-0.8,1.1-1.2s0-0.9-0.3-1.5
			c-0.1-0.2-0.3-0.4-0.4-0.5c-0.2-0.1-0.3-0.2-0.5-0.3c-0.3-0.1-0.6-0.1-0.8,0s-0.6,0.2-0.9,0.4L73,83.4z"/><path class="st4" d="M84.1,87.6c-0.2,0.1-0.3,0.1-0.4-0.1l-5.2-8.8c-0.1-0.2-0.1-0.3,0.1-0.4l1.1-0.7c0.2-0.1,0.3-0.1,0.4,0.1
			l2.2,3.7l0.4-0.2c0.1-0.1,0.2-0.2,0.3-0.2c0-0.1,0.1-0.2,0.1-0.4l0.4-4.8c0-0.1,0-0.2,0.1-0.3c0-0.1,0.1-0.1,0.2-0.2l1.1-0.6
			c0.1-0.1,0.2-0.1,0.2,0c0.1,0,0.1,0.1,0.1,0.2l-0.5,5.9l5.8,2.7c0.1,0.1,0.2,0.1,0.2,0.2s0,0.1-0.1,0.2l-1.2,0.7
			c-0.1,0.1-0.2,0.1-0.3,0.1c-0.1,0-0.2,0-0.3-0.1l-4.3-2.1c-0.2-0.1-0.3-0.1-0.4-0.1c-0.1,0-0.2,0-0.4,0.1l-0.3,0.2l2.2,3.8
			c0.1,0.2,0.1,0.3-0.1,0.4L84.1,87.6z"/><path class="st4" d="M95.9,74.2c0.4,0.8,0.8,1.5,0.9,2.2c0.2,0.7,0.2,1.4,0.1,2c-0.1,0.6-0.3,1.2-0.7,1.8c-0.4,0.5-0.9,1-1.6,1.4
			c-0.6,0.3-1.1,0.5-1.7,0.6c-0.6,0.1-1.2,0.1-1.7-0.1s-1.1-0.5-1.7-1c-0.5-0.5-1-1.1-1.5-1.9c-0.4-0.8-0.8-1.5-0.9-2.2
			c-0.2-0.7-0.2-1.4-0.1-2c0.1-0.6,0.3-1.2,0.7-1.8c0.4-0.5,0.9-1,1.6-1.4c0.6-0.3,1.1-0.6,1.7-0.6c0.6-0.1,1.2-0.1,1.7,0.1
			c0.6,0.2,1.1,0.5,1.7,1C95,72.7,95.5,73.4,95.9,74.2z M94.3,75.2c-0.7-1.1-1.4-1.9-2.1-2.2s-1.4-0.3-2.1,0.2
			c-0.8,0.5-1.2,1.1-1.3,1.9c-0.1,0.8,0.2,1.8,0.9,3c0.7,1.1,1.4,1.9,2.1,2.2c0.7,0.3,1.4,0.3,2.1-0.2c0.8-0.5,1.2-1.1,1.3-1.9
			C95.3,77.3,94.9,76.3,94.3,75.2z"/><path class="st4" d="M103.8,76.2c-0.6,0.4-1.3,0.6-1.9,0.7c-0.6,0.1-1.2,0-1.8-0.2s-1.1-0.6-1.6-1c-0.5-0.5-1-1.1-1.4-1.8
			c-0.4-0.7-0.7-1.4-0.9-2.1c-0.2-0.7-0.2-1.4-0.2-2c0.1-0.6,0.3-1.2,0.6-1.8c0.4-0.5,0.9-1,1.5-1.4c1-0.6,1.9-0.8,2.8-0.7
			c0.2,0,0.3,0.1,0.3,0.3l0,0.9c0,0.2-0.1,0.3-0.3,0.3c-0.4,0-0.7,0-1,0.1c-0.3,0.1-0.6,0.2-0.9,0.4c-0.7,0.4-1.2,1.1-1.3,1.9
			c-0.1,0.8,0.2,1.8,0.8,3c0.3,0.5,0.6,0.9,0.9,1.3c0.3,0.4,0.7,0.6,1.1,0.8c0.4,0.2,0.8,0.3,1.2,0.3c0.4,0,0.8-0.2,1.3-0.4
			c0.3-0.2,0.6-0.4,0.8-0.6c0.2-0.2,0.5-0.5,0.6-0.8c0.1-0.2,0.3-0.2,0.4-0.1l0.8,0.5c0.2,0.1,0.2,0.3,0.1,0.4
			c-0.2,0.4-0.5,0.8-0.9,1.2S104.2,75.9,103.8,76.2z"/><path class="st4" d="M108,73.5c-0.2,0.1-0.3,0.1-0.4-0.1l-5.2-8.8c-0.1-0.2-0.1-0.3,0.1-0.4l1.1-0.7c0.2-0.1,0.3-0.1,0.4,0.1
			l2.2,3.7l3.6-2.1l-2.2-3.7c-0.1-0.2-0.1-0.3,0.1-0.4l1.1-0.7c0.2-0.1,0.3-0.1,0.4,0.1l5.2,8.8c0.1,0.2,0.1,0.3-0.1,0.4l-1.1,0.7
			c-0.2,0.1-0.3,0.1-0.4-0.1l-2.2-3.8l-3.6,2.1l2.2,3.8c0.1,0.2,0.1,0.3-0.1,0.4L108,73.5z"/><path class="st4" d="M115.2,58.5l4.6,7.7c0.1,0.2,0.1,0.3-0.1,0.4l-1.1,0.7c-0.2,0.1-0.3,0.1-0.4-0.1l-4.6-7.7l-2.2,1.3
			c-0.2,0.1-0.3,0.1-0.4-0.1l-0.5-0.8c-0.1-0.2-0.1-0.3,0.1-0.4l6-3.5c0.2-0.1,0.3-0.1,0.4,0.1l0.5,0.8c0.1,0.2,0.1,0.3-0.1,0.4
			L115.2,58.5z"/></g><g><polygon class="st0" points="23.9,144 15.9,144 16.2,16.1 143.8,16.1 143.8,24.1 24.2,24.1 		"/></g></g><g id="stramien"/></svg>