<svg viewBox="0 0 160 160" fill="none" xmlns="http://www.w3.org/2000/svg"><path d="M133.2 26.1999H114.1C114.5 24.6999 115.3 23.2999 116.3 22.1999C116.9 21.4999 117.3 20.5999 117.3 19.5999C117.3 17.5999 115.8 15.8999 113.8 15.8999H46.1C45.1 15.8999 44.3 16.2999 43.7 16.9999C43.1 17.6999 42.7 18.5999 42.7 19.5999C42.7 20.5999 43.1 21.5999 43.8 22.1999C44.9 23.2999 45.6 24.6999 46 26.1999H26.8C25.3 26.1999 24 27.4999 24 29.0999V41.4999C24 61.6999 39.5 78.0999 58.6 78.0999H62.3C63.6 79.5999 65 80.9999 66.4 82.1999C70.6 85.6999 73.1 90.9999 73.1 96.5999C73.1 102.3 70.2 107.6 65.5 110.4L62.8 112C62.4 112.3 62.1 112.7 62.1 113.3V119.8H98.1V113.3C98.1 112.8 97.8 112.3 97.4 112L94.7 110.4C90 107.6 87.1 102.3 87.1 96.5999C87.1 90.8999 89.6 85.6999 93.8 82.0999C95.2 80.8999 96.6 79.5999 97.9 77.9999H101.6C120.7 77.9999 136.2 61.5999 136.2 41.3999V29.1999C136 27.5999 134.8 26.1999 133.2 26.1999ZM58 72.2999C42.2 71.9999 29.5 58.2999 29.5 41.5999V32.0999H46.4C47.6 48.1999 51.9 62.2999 58 72.2999ZM130.5 41.5999C130.5 58.3999 117.8 71.9999 102 72.2999C108.2 62.2999 112.5 48.0999 113.6 31.9999H130.5V41.5999Z" fill="#FAA332"/><path d="M104.1 119.4H55.9V144H104.1V119.4Z" fill="#242143"/><path d="M96.7 124.5H63.4V139H96.7V124.5Z" fill="#E6E3DA"/></svg>