<svg viewBox="0 0 160 160" fill="none" xmlns="http://www.w3.org/2000/svg"><path d="M131.17 34.8193H99.15C97.65 34.8193 96.35 35.8393 96 37.2993L94.28 44.4293H136.04L134.32 37.2993C133.97 35.8493 132.67 34.8193 131.17 34.8193Z" fill="#232144"/><path d="M129.37 30.9197L128.42 32.1097L127.47 30.9197L126.87 30.1597C126.69 29.9397 126.36 29.9397 126.19 30.1597L125.59 30.9197L124.64 32.1097L123.69 30.9197L123.09 30.1597C122.91 29.9397 122.58 29.9397 122.4 30.1597L121.8 30.9197L120.85 32.1097L119.9 30.9197L119.3 30.1597C119.12 29.9397 118.79 29.9397 118.62 30.1597L118.02 30.9197L117.07 32.1097L116.12 30.9197L115.52 30.1597C115.34 29.9397 115.01 29.9397 114.84 30.1597L114.24 30.9197L113.29 32.1097L112.34 30.9197L111.74 30.1597C111.56 29.9397 111.23 29.9397 111.06 30.1597L110.46 30.9197L109.51 32.1097L108.56 30.9197L107.96 30.1597C107.78 29.9397 107.45 29.9397 107.27 30.1597L106.67 30.9197L105.72 32.1097L104.77 30.9197L104.17 30.1597C104 29.9397 103.66 29.9397 103.49 30.1597L102.89 30.9197L101.94 32.1097L100.99 30.9197L100.04 29.7297V32.1097V65.9297H130.35V32.1097V29.7197L129.4 30.9097L129.37 30.9197Z" fill="#F7E5CD"/><path d="M137.89 41.1094H92.44C89.0655 41.1094 86.33 43.8449 86.33 47.2194V124.489C86.33 127.864 89.0655 130.599 92.44 130.599H137.89C141.264 130.599 144 127.864 144 124.489V47.2194C144 43.8449 141.264 41.1094 137.89 41.1094Z" fill="#463EC5"/><path d="M105.6 87.6797H93.29V93.9797H105.6V87.6797Z" fill="#F7E5CD"/><path d="M121.32 87.6797H109.01V93.9797H121.32V87.6797Z" fill="#F7E5CD"/><path d="M137.04 87.6797H124.73V93.9797H137.04V87.6797Z" fill="#F7E5CD"/><path d="M105.6 95.3594H93.29V101.659H105.6V95.3594Z" fill="#F7E5CD"/><path d="M121.32 95.3594H109.01V101.659H121.32V95.3594Z" fill="#F7E5CD"/><path d="M137.04 95.3594H124.73V101.659H137.04V95.3594Z" fill="#F7E5CD"/><path d="M105.6 103.189H93.29V109.489H105.6V103.189Z" fill="#F7E5CD"/><path d="M121.32 103.189H109.01V109.489H121.32V103.189Z" fill="#F7E5CD"/><path d="M137.04 103.189H124.73V109.489H137.04V103.189Z" fill="#F7E5CD"/><path d="M105.6 111.8H93.29V118.1H105.6V111.8Z" fill="#E73245"/><path d="M121.32 111.8H109.01V118.1H121.32V111.8Z" fill="#FBB03B"/><path d="M137.04 111.8H124.73V118.1H137.04V111.8Z" fill="#BAC09A"/><path d="M140.02 47.8301H90.3V78.3201H140.02V47.8301Z" fill="#232144"/><path d="M137.04 121.22H93.29V124.53H137.04V121.22Z" fill="#232144"/><path d="M112.73 59.5098C112.84 59.5098 112.88 59.5598 112.88 59.6698V65.9598H114.2C114.31 65.9598 114.36 66.0098 114.36 66.1198V66.8098C114.36 66.9098 114.32 66.9698 114.2 66.9698H110.16C110.05 66.9698 110 66.9198 110 66.8098V66.1198C110 66.0198 110.04 65.9598 110.16 65.9598H111.6V60.8598L110.28 61.5498C110.16 61.6098 110.08 61.5998 110.02 61.4798L109.73 60.8998C109.67 60.7698 109.7 60.6898 109.82 60.6298L111.63 59.6798C111.88 59.5598 112 59.5098 112.29 59.5098H112.71H112.73Z" fill="#F7E5CD"/><path d="M120.03 65.8899C120.14 65.8899 120.19 65.9399 120.19 66.0499V66.8199C120.19 66.9199 120.15 66.9799 120.03 66.9799H115.8C115.66 66.9799 115.61 66.9399 115.61 66.8099V66.3099C115.61 63.9299 118.76 62.9699 118.76 61.4399C118.76 60.7899 118.32 60.4599 117.67 60.4599C117.12 60.4599 116.61 60.6899 116.17 60.9599C116.07 61.0199 115.98 61.0099 115.92 60.9099L115.6 60.3799C115.53 60.2599 115.57 60.1899 115.7 60.0899C116.22 59.6899 117 59.4199 117.74 59.4199C118.56 59.4199 119.15 59.6399 119.54 60.0399C119.86 60.3799 120.05 60.8499 120.05 61.4399C120.05 63.2999 117.02 64.5399 116.89 65.8999H120.03V65.8899Z" fill="#F7E5CD"/><path d="M121.87 68.7093C121.72 68.7093 121.68 68.6493 121.7 68.5193L122.02 66.9493L121.76 66.8293C121.61 66.7593 121.56 66.6993 121.56 66.4893V65.6893C121.56 65.5593 121.62 65.4893 121.77 65.4893H122.86C123.02 65.4893 123.08 65.5493 123.08 65.6893V66.2393C123.08 66.7193 123.01 66.9693 122.86 67.3693L122.44 68.5293C122.38 68.6893 122.35 68.7193 122.19 68.7193H121.87V68.7093Z" fill="#F7E5CD"/><path d="M126.27 64.1602C124.82 64.1602 124.03 63.1602 124.03 61.8802C124.03 60.4902 124.94 59.4102 126.43 59.4102C128.36 59.4102 128.99 60.9202 128.99 62.6802C128.99 65.0102 128.16 67.0702 126.06 67.0702C125.41 67.0702 124.81 66.9102 124.44 66.6602C124.34 66.5902 124.31 66.5402 124.39 66.3602L124.64 65.8602C124.69 65.7502 124.76 65.7402 124.89 65.8002C125.2 65.9402 125.66 66.0502 125.96 66.0502C127.21 66.0502 127.58 65.1102 127.68 63.7402C127.38 63.9902 126.78 64.1602 126.28 64.1602H126.27ZM127.71 62.6002C127.71 61.3702 127.37 60.4502 126.48 60.4502C125.73 60.4502 125.32 61.0602 125.32 61.7802C125.32 62.5002 125.67 63.1602 126.56 63.1602C126.93 63.1602 127.4 63.0002 127.71 62.8602V62.6102V62.6002Z" fill="#F7E5CD"/><path d="M132.31 64.1602C130.86 64.1602 130.07 63.1602 130.07 61.8802C130.07 60.4902 130.98 59.4102 132.47 59.4102C134.4 59.4102 135.03 60.9202 135.03 62.6802C135.03 65.0102 134.2 67.0702 132.1 67.0702C131.45 67.0702 130.85 66.9102 130.48 66.6602C130.38 66.5902 130.35 66.5402 130.43 66.3602L130.68 65.8602C130.73 65.7502 130.8 65.7402 130.93 65.8002C131.24 65.9402 131.7 66.0502 132 66.0502C133.25 66.0502 133.62 65.1102 133.72 63.7402C133.42 63.9902 132.82 64.1602 132.32 64.1602H132.31ZM133.75 62.6002C133.75 61.3702 133.41 60.4502 132.52 60.4502C131.77 60.4502 131.36 61.0602 131.36 61.7802C131.36 62.5002 131.71 63.1602 132.6 63.1602C132.97 63.1602 133.44 63.0002 133.75 62.8602V62.6102V62.6002Z" fill="#F7E5CD"/><path d="M64.71 93.8198L81.59 78.5898H42.88V82.4298C42.88 83.6398 43.95 84.7898 45.82 85.5998L64.72 93.8198H64.71Z" fill="#7A2F37"/><path d="M91.52 85.1204L84.73 74.6104L62.42 94.2803C59.44 96.7703 58.87 100.99 61.14 103.71C63.41 106.42 67.67 106.6 70.65 104.11L91.52 85.1204Z" fill="#9E3F39"/><path d="M52.63 44.1396L52.49 78.4596L90.07 78.6096L90.11 69.9697C90.12 67.2497 88.3 64.6496 85.09 62.7996L52.64 44.1396H52.63Z" fill="#9E3F39"/><path d="M52.63 44.1399L16 43.3799V74.5999L53.1 68.5999L52.63 44.1399Z" fill="#9E3F39"/><path d="M106.7 53.19C106.7 51.71 105.49 50.5 104.01 50.5L54.78 50.55C53.3 50.55 52.09 51.76 52.09 53.24V62.63L52.11 71.01V82.45C52.12 83.93 53.33 85.14 54.81 85.14L104.04 85.09C105.52 85.09 106.73 83.88 106.73 82.4L106.7 53.2V53.19Z" fill="#FF6200"/><path d="M60.32 65.9502H57.43V67.1702C57.43 67.5702 57.67 67.8902 57.96 67.8902H60.32V65.9502Z" fill="#F2F2F2"/><path d="M65.61 65.9502H62.78V67.8902H65.1C65.38 67.8902 65.62 67.5602 65.62 67.1602V65.9502H65.61Z" fill="#F2F2F2"/><path d="M65.61 64.2305H63.27V65.7605H65.61V64.2305Z" fill="#F2F2F2"/><path d="M59.77 64.2305H57.43V65.7605H59.77V64.2305Z" fill="#F2F2F2"/><path d="M62.58 62.0703H60.5V62.8603H62.58V62.0703Z" fill="#F2F2F2"/><path d="M62.58 67.1299H60.5V67.8899H62.58V67.1299Z" fill="#F2F2F2"/><path d="M62.78 64.0296H65.61V62.7796C65.61 62.3796 65.38 62.0596 65.09 62.0596H62.77V64.0296H62.78Z" fill="#F2F2F2"/><path d="M60.32 62.0703H57.96C57.67 62.0703 57.43 62.4003 57.43 62.8003V64.0403H60.32V62.0703Z" fill="#F2F2F2"/><path d="M59.95 67.0402L59.94 62.9502H63.1L63.11 67.0402H59.95Z" fill="#F2F2F2"/><path d="M59.78 67.1303V62.8604H63.26V67.1303H59.78ZM59.98 63.0404V66.9503H63.07V63.0404H59.98Z" fill="#FF6200"/><path d="M67.93 66.47C67.88 66.47 67.83 66.45 67.79 66.41C67.71 66.33 67.71 66.21 67.79 66.13C68.41 65.51 68.41 64.5 67.79 63.88C67.71 63.8 67.71 63.68 67.79 63.6C67.87 63.52 67.99 63.52 68.07 63.6C68.84 64.37 68.84 65.63 68.07 66.41C68.03 66.45 67.98 66.47 67.93 66.47Z" fill="#F2F2F2"/><path d="M68.77 66.8204C68.72 66.8204 68.67 66.8004 68.63 66.7604C68.55 66.6804 68.55 66.5604 68.63 66.4804C69.44 65.6704 69.44 64.3404 68.63 63.5304C68.55 63.4504 68.55 63.3304 68.63 63.2504C68.71 63.1704 68.83 63.1704 68.91 63.2504C69.88 64.2204 69.88 65.7904 68.91 66.7604C68.87 66.8004 68.82 66.8204 68.77 66.8204Z" fill="#F2F2F2"/><path d="M69.61 67.1701C69.56 67.1701 69.51 67.1501 69.47 67.1101C69.39 67.0301 69.39 66.9101 69.47 66.8301C69.96 66.3401 70.23 65.6901 70.23 65.0001C70.23 64.3101 69.96 63.6601 69.47 63.1701C69.39 63.0901 69.39 62.9701 69.47 62.8901C69.55 62.8101 69.67 62.8101 69.75 62.8901C70.31 63.4501 70.62 64.2001 70.62 65.0001C70.62 65.8001 70.31 66.5501 69.75 67.1101C69.71 67.1501 69.66 67.1701 69.61 67.1701Z" fill="#F2F2F2"/><path d="M70.54 67.4905C70.49 67.4905 70.44 67.4705 70.4 67.4305C70.32 67.3505 70.32 67.2305 70.4 67.1505C71.51 66.0405 71.51 63.9405 70.4 62.8205C70.32 62.7405 70.32 62.6205 70.4 62.5405C70.48 62.4605 70.6 62.4605 70.68 62.5405C71.94 63.8005 71.94 66.1705 70.68 67.4305C70.64 67.4705 70.59 67.4905 70.54 67.4905Z" fill="#F2F2F2"/><path d="M75.66 69.2903H52.11V62.6403L21.18 62.5303V64.3703C21.13 74.1003 28.99 82.0303 38.73 82.0703L43.63 82.1003H75.67C79.21 82.1003 82.08 79.2303 82.08 75.6903C82.08 72.1503 79.21 69.2803 75.67 69.2803L75.66 69.2903Z" fill="#9E3F39"/></svg>