<svg viewBox="0 0 161 160" fill="none" xmlns="http://www.w3.org/2000/svg"><path fill-rule="evenodd" clip-rule="evenodd" d="M53.0873 72.9227C43.2881 67.2107 40 54.6567 40 54.6567C40 54.6567 52.5994 51.3627 62.3985 57.0727C72.1977 62.7847 75.4868 75.3387 75.4868 75.3387C75.4868 75.3387 62.8865 78.6347 53.0873 72.9227Z" fill="#006931"/><path fill-rule="evenodd" clip-rule="evenodd" d="M104.873 82.8735C99.2513 89.0855 89.6298 89.5745 89.6298 89.5745C89.6298 89.5745 89.1248 79.9925 94.7463 73.7815C100.368 67.5695 109.988 67.0815 109.988 67.0815C109.988 67.0815 110.494 76.6615 104.873 82.8735Z" fill="#006931"/><path fill-rule="evenodd" clip-rule="evenodd" d="M69.4174 46.024C69.5208 29.396 83.1593 16 83.1593 16C83.1593 16 96.6292 29.564 96.5257 46.192C96.4223 62.819 82.7848 76.215 82.7848 76.215C82.7848 76.215 69.313 62.652 69.4174 46.024Z" fill="#006931"/><path fill-rule="evenodd" clip-rule="evenodd" d="M75.022 126.492C75.022 126.492 75.0149 96.1294 75.022 83.1554C75.033 69.2794 62.3563 66.8774 61.8172 66.7814L62.1736 64.7524C62.3232 64.7784 77.1033 67.5234 77.0912 83.1564C77.0832 96.1294 77.0912 126.491 77.0912 126.491L75.022 126.492Z" fill="#B9BF99"/><path fill-rule="evenodd" clip-rule="evenodd" d="M91.2197 125.969L89.1504 125.968C89.1504 125.968 89.1545 102.725 89.1504 92.7928C89.1424 80.6248 100.654 78.4868 100.771 78.4658L101.125 80.4958C100.723 80.5678 91.2127 82.3808 91.2197 92.7918C91.2237 102.725 91.2197 125.969 91.2197 125.969Z" fill="#B9BF99"/><path fill-rule="evenodd" clip-rule="evenodd" d="M81.7707 126.492H83.84V39.8174H81.7707V126.492Z" fill="#B9BF99"/><path fill-rule="evenodd" clip-rule="evenodd" d="M105.945 98.0562H59.6677V128.709C59.6677 137.155 66.5402 144.001 75.0201 144.001H90.5923C99.0702 144.001 105.945 137.155 105.945 128.709V98.0562Z" fill="#E63245"/><path fill-rule="evenodd" clip-rule="evenodd" d="M62.9294 98.1271C62.8792 98.1271 62.83 98.1241 62.7838 98.1201H61.1091C60.5669 98.1201 60.1282 97.6831 60.1282 97.1431C60.1282 96.6041 60.5669 96.1671 61.1091 96.1671H62.5268C62.5087 95.9711 62.4515 95.6531 62.2949 95.1711C61.8189 93.7061 62.1543 92.3591 63.1934 91.5661C64.2286 90.7751 65.7808 90.7201 66.8832 91.4341C68.0167 92.1681 68.4695 93.5381 68.094 95.0981C67.9474 95.7071 67.9615 96.0241 67.9876 96.1671L70.3079 96.1601L70.339 96.0721C70.5147 95.5621 71.0729 95.2911 71.585 95.4671C72.097 95.6431 72.3691 96.1992 72.1924 96.7081L71.7075 98.1092L67.8812 98.1201C67.4796 98.1431 66.9304 97.9971 66.5227 97.5291C65.9786 96.9071 65.8691 95.9631 66.1864 94.6421C66.3129 94.1171 66.3511 93.4191 65.8139 93.0711C65.3993 92.8011 64.7707 92.8221 64.3862 93.1161C63.9234 93.4691 64.0077 94.1012 64.1603 94.5691C64.4625 95.4981 64.7798 96.8281 64.0499 97.6361C63.7195 98.0021 63.2858 98.1271 62.9294 98.1271Z" fill="#00401E"/></svg>