<?xml version="1.0" encoding="UTF-8"?><svg id="Taxes" xmlns="http://www.w3.org/2000/svg" xmlns:xlink="http://www.w3.org/1999/xlink" viewBox="0 0 160 160"><defs><style>.cls-1{fill:#e6e3d9;}.cls-2{fill:#797878;}.cls-3{fill:#797878;}.cls-4{fill:#416fff;}.cls-5{fill:#c6c6c6;}.cls-6{fill:#57819d;}.cls-7{fill:#231e47;}.cls-8{fill:#a8a8a8;}.cls-9{clip-path:url(#clippath);}</style><clipPath id="clippath"><path class="cls-3" d="M138.71,101.94l.09-.03-64.61-23.5v.03c-2.24-.77-4.63-1.21-7.12-1.21-12.06,0-21.84,9.78-21.84,21.84s9.77,21.84,21.83,21.84h0s8.59,0,8.59,0c.02,0,.05,0,.07,0h27.08c2.48,0,4.49-1.88,4.75-4.3h12.5c2.65,0,4.8-2.15,4.8-4.8,0-.17-.03-.34-.05-.5h12.5c2.65,0,4.8-2.15,4.8-4.8h0c0-2.16-1.43-3.96-3.39-4.57Z"/></clipPath></defs><path class="cls-2" d="M33.42,140.72h15.93c2.1,0,3.81,1.71,3.81,3.81h-23.55c0-2.1,1.71-3.81,3.81-3.81Z"/><rect class="cls-2" x="37.66" y="132.51" width="23.36" height="4.04" transform="translate(-79.92 72.68) rotate(-44.29)"/><rect class="cls-8" x="120.4" y="106.31" width="10.7" height="36.52" rx="5.35" ry="5.35" transform="translate(250.32 -1.18) rotate(90)"/><path class="cls-5" d="M40.44,43.92h0c7.33,0,13.27,5.94,13.27,13.27v15.8s-26.75,33.66-26.75,33.66l.2-49.46c0-7.33,5.94-13.27,13.27-13.27Z"/><circle class="cls-7" cx="49.04" cy="56.95" r="2.53"/><circle class="cls-7" cx="31.84" cy="56.95" r="2.53"/><path class="cls-2" d="M36.44,59.84c0-2.08,1.69-3.77,3.77-3.77s3.77,1.69,3.77,3.77h-7.53Z"/><polygon class="cls-6" points="53.71 72.99 69.62 93.53 37.47 84.89 53.71 72.99"/><circle class="cls-5" cx="50.36" cy="106.55" r="23.4"/><polygon class="cls-5" points="66.88 90 128.61 129.92 49.33 129.92 66.88 90"/><path class="cls-8" d="M38.8,140.72h15.93c2.1,0,3.81,1.71,3.81,3.81h-23.55c0-2.1,1.71-3.81,3.81-3.81Z"/><rect class="cls-8" x="43.03" y="132.51" width="23.36" height="4.04" transform="translate(-78.39 76.43) rotate(-44.29)"/><path class="cls-3" d="M138.71,101.94l.09-.03-64.61-23.5v.03c-2.24-.77-4.63-1.21-7.12-1.21-12.06,0-21.84,9.78-21.84,21.84s9.77,21.84,21.83,21.84h0s8.59,0,8.59,0c.02,0,.05,0,.07,0h27.08c2.48,0,4.49-1.88,4.75-4.3h12.5c2.65,0,4.8-2.15,4.8-4.8,0-.17-.03-.34-.05-.5h12.5c2.65,0,4.8-2.15,4.8-4.8h0c0-2.16-1.43-3.96-3.39-4.57Z"/><g class="cls-9"><rect class="cls-8" x="96.26" y="78.03" width="9.89" height="56.48" rx="4.94" ry="4.94" transform="translate(61.65 -35.05) rotate(27.96)"/><rect class="cls-8" x="80.09" y="69.77" width="9.89" height="65.8" rx="4.94" ry="4.94" transform="translate(58.07 -27.89) rotate(27.96)"/></g><rect class="cls-4" x="15.98" y="61.9" width="67.52" height="46.75"/><rect class="cls-1" x="20.06" y="86.61" width="33.13" height="17.14"/><rect class="cls-7" x="47.95" y="61.9" width="3.58" height="7.45"/><path class="cls-8" d="M39.42,64.99l-2.98-5.16h7.54s-2.98,5.16-2.98,5.16c-.35.61-1.22.61-1.57,0Z"/></svg>