<?xml version="1.0" encoding="UTF-8"?><svg xmlns="http://www.w3.org/2000/svg" viewBox="0 0 160 160"><defs><style>.cls-1{fill:#e6e3d9;}.cls-2{fill:#004219;}.cls-3{fill:none;stroke:#006c28;stroke-miterlimit:10;stroke-width:2px;}.cls-4{fill:#006c28;}.cls-5{fill:#020204;}.cls-6{fill:#fff;}.cls-7{fill:#181111;}.cls-8{fill:#c47459;}.cls-9{fill:#5e1b0c;}.cls-10{fill:#ac654d;}</style></defs><g id="Plants"><path class="cls-3" d="M144.11,16.2c-9.17,9.87-34.28,16.95-63.82,16.95s-54.88-7.15-63.94-17.09"/><path class="cls-4" d="M20.3,22.48h0c4.55,0,8.24,3.69,8.24,8.24h0c-4.55,0-8.24-3.69-8.24-8.24h0Z" transform="translate(12.45 -7.47) rotate(23.19)"/><path class="cls-4" d="M43.71,22.68h0c4.55,0,8.24,3.69,8.24,8.24h0c-4.55,0-8.24-3.69-8.24-8.24h0Z" transform="translate(.7 54.82) rotate(-60)"/><path class="cls-4" d="M83.42,25.62h0c4.55,0,8.24,3.69,8.24,8.24h0c-4.55,0-8.24-3.69-8.24-8.24h0Z" transform="translate(33.85 105) rotate(-73.26)"/><path class="cls-4" d="M123.37,19.23h0c4.55,0,8.24,3.69,8.24,8.24h0c-4.55,0-8.24-3.69-8.24-8.24h0Z" transform="translate(92.74 148.22) rotate(-84.83)"/><path class="cls-4" d="M62.95,32.1h0c4.55,0,8.24,3.69,8.24,8.24h0c-4.55,0-8.24-3.69-8.24-8.24h0Z" transform="translate(-4.38 9.66) rotate(-7.98)"/><path class="cls-4" d="M103.34,29.94h0c4.55,0,8.24,3.69,8.24,8.24h0c-4.55,0-8.24-3.69-8.24-8.24h0Z" transform="translate(-4.11 50.2) rotate(-25.82)"/></g><g id="Yoga"><path class="cls-8" d="M63.21,92.35l-14.86,10.54c-2.22,1.58-5.28,1.18-7.03-.91h0c-1.84-2.19-1.57-5.46.61-7.32l16.91-14.51,4.38,12.2Z"/><path class="cls-8" d="M49.35,94.35l-16.06-21.38-5.15,5.51,11.98,22.6c1.78,2.96,5.75,3.68,8.46,1.54h0c2.57-2.03,2.92-5.8.77-8.27Z"/><path class="cls-8" d="M97.16,92.35l14.86,10.54c2.22,1.58,5.28,1.18,7.03-.91h0c1.84-2.19,1.57-5.46-.61-7.32l-16.91-14.51-4.38,12.2Z"/><path class="cls-8" d="M111.02,94.35l16.06-21.38,5.15,5.51-11.98,22.6c-1.78,2.96-5.75,3.68-8.46,1.54h0c-2.57-2.03-2.92-5.8-.77-8.27Z"/><polygon class="cls-1" points="62.18 114.44 61.55 76.73 98.54 76.73 98 114.44 62.18 114.44"/><path class="cls-1" d="M52.75,86.39c-.37-4.95,3.34-9.26,8.28-9.63,4.95-.37,9.26,3.34,9.63,8.28.37,4.95-5.67,12.58-5.67,12.58,0,0-11.88-6.28-12.25-11.23Z"/><path class="cls-1" d="M107.2,86.39c.37-4.95-3.34-9.26-8.28-9.63-4.95-.37-9.26,3.34-9.63,8.28-.37,4.95,5.67,12.58,5.67,12.58,0,0,11.88-6.28,12.25-11.23Z"/><path class="cls-1" d="M62.41,109.87s-6.1,9.36-7.48,24.46h50.08c-1.46-14.77-7.44-24.46-7.44-24.46h-35.15Z"/><path class="cls-10" d="M85.82,76.42l-.03-8.65-13.34-.11.03,8.81c.01,3.68,3.01,6.66,6.69,6.64h0c3.68-.01,6.66-3.01,6.64-6.69Z"/><path class="cls-8" d="M69.91,130.23l49.88-16.1s.04-.01.06-.02c.17-.04.33-.09.49-.14,4.7-1.48,9.77,1.07,11.42,5.8,1.66,4.78-.55,10.31-5.25,12.01-.05.02-.1.03-.15.04-2.12.4-47.33,6.67-54.91,8.06l-1.53-9.66Z"/><polygon class="cls-2" points="86.91 137.53 85.05 125.34 81.91 126.35 83.76 138.06 86.91 137.53"/><path class="cls-4" d="M83.76,138.06l-1.84-11.71-14.61,4.72c-1.17-1.37-3.22-1.66-4.74-.61l-12.37,9c1.22.4,2.1,1.54,2.1,2.9,0,.46-.1.89-.28,1.28l10.41-1.94,21.33-3.64Z"/><path class="cls-2" d="M50.2,139.46l-1.27.92c-1.16.84-1.07,2.6.17,3.31.41.24.89.32,1.35.23l1.55-.29c.18-.39.28-.82.28-1.28,0-1.35-.88-2.5-2.1-2.9Z"/><path class="cls-8" d="M87.7,130.23l-49.88-16.1s-.04-.01-.06-.02c-.17-.04-.33-.09-.49-.14-4.7-1.48-9.77,1.07-11.42,5.8-1.66,4.78.55,10.31,5.25,12.01.05.02.1.03.15.04,2.12.4,47.33,6.67,54.91,8.06l1.53-9.66Z"/><path class="cls-4" d="M105.3,142.36c0-1.35.88-2.5,2.1-2.9l-9.77-7.1c-.1.26-.23.51-.4.75-1.2,1.75-3.58,2.2-5.33,1-1.05-.72-1.63-1.87-1.67-3.05l-14.55-4.7-1.84,11.71,21.33,3.64,10.41,1.94c-.18-.39-.28-.82-.28-1.28Z"/><path class="cls-2" d="M91.9,134.11c1.75,1.2,4.14.75,5.33-1,.16-.24.29-.49.4-.75l-2.6-1.89c-1.52-1.05-3.56-.76-4.74.61l-.06-.02c.04,1.18.61,2.33,1.67,3.05Z"/><polygon class="cls-2" points="72.55 125.34 70.69 137.53 73.85 138.06 75.69 126.35 72.55 125.34"/><path class="cls-2" d="M105.3,142.36c0,.46.1.89.28,1.28l1.55.29c.46.09.94,0,1.35-.23,1.24-.72,1.33-2.47.17-3.31l-1.27-.92c-1.22.4-2.1,1.54-2.1,2.9Z"/><path class="cls-8" d="M36.56,77.69l-6.32,4.55-4.14-5.93s-7.25-1.65-8.26-1.9c-1.21-.28-1.07-2.12.23-1.95.02,0-.09-.03-.95-.15-1.23-.16-1.07-2.27.46-2.06.11.02,0,0,0,0,0,0-.29-.06-.69-.15-1.27-.24-.9-2.24.51-1.96,1.07.21,6.9,1.14,6.9,1.14,0,0,.4-.05.25-.62-.17-.68-.28-2.48.84-3.82.83-.99,3.12-1.51,3.67-1.65,1.09-.28,1.99,1.4.43,1.81-5.55,1.43-.43,6.64,1.71,3.53.66-.96.2-2.09-.83-3.2-.63-.66.06-1.7.95-1.39.6.21,1.37.8,1.78,1.4,1.16,1.7,1.28,3.55.89,4.95-.41,1.51-.65,2.11-.65,2.11l3.22,5.28Z"/><path class="cls-8" d="M127.02,72.41s-.24-.6-.65-2.11c-.39-1.4-.27-3.25.89-4.95.41-.61,1.18-1.2,1.78-1.4.89-.31,1.58.73.95,1.39-1.02,1.12-1.48,2.24-.83,3.2,2.14,3.11,7.26-2.1,1.71-3.53-1.56-.41-.67-2.09.43-1.81.55.14,2.84.66,3.67,1.65,1.13,1.34,1.02,3.14.84,3.82-.15.57.25.62.25.62,0,0,5.83-.94,6.9-1.14,1.42-.28,1.79,1.72.51,1.96-.4.08-.69.15-.69.15,0,0-.11.02,0,0,1.52-.2,1.69,1.91.46,2.06-.86.12-.97.15-.95.15,1.3-.17,1.44,1.67.23,1.95-1.01.25-8.26,1.9-8.26,1.9l-4.14,5.93-6.32-4.55,3.22-5.28Z"/><path class="cls-9" d="M82.11,67.96h2.19c5.46,0,9.9,4.43,9.9,9.9v2.19h-2.19c-5.46,0-9.9-4.43-9.9-9.9v-2.19h0Z" transform="translate(78.15 -40.66) rotate(45)"/><path class="cls-9" d="M82.11,81.34h2.19c5.46,0,9.9,4.43,9.9,9.9v2.19h-2.19c-5.46,0-9.9-4.43-9.9-9.9v-2.19h0Z" transform="translate(87.6 -36.74) rotate(45)"/><circle class="cls-8" cx="88.23" cy="62.77" r="2.7"/><circle class="cls-8" cx="70.68" cy="62.77" r="2.7"/><path class="cls-8" d="M88.14,54.17c-.01-3.85-3.05-6.99-6.85-7.17-.13,0-.25,0-.38,0h-.36s-3.07.01-3.07.01c-3.98.02-7.19,3.25-7.18,7.23v1.71s.05,10.57.05,10.57c0,1.75.63,3.34,1.67,4.59,1.33,1.59,3.33,2.6,5.56,2.59h3.43c3.98-.03,7.19-3.27,7.18-7.25l-.05-12.28Z"/><path class="cls-9" d="M72.14,58.56h0c0-.81.65-1.46,1.45-1.46h3.39c.8,0,1.45.64,1.46,1.45h0s-6.3.01-6.3.01Z"/><path class="cls-7" d="M79.53,65.62c-.1,0-.2-.01-.31-.03-.31-.06-.59-.22-.86-.47-.14-.13-.28-.19-.43-.18-.29.03-.52.32-.53.33l-.28-.21s.32-.42.78-.46c.25-.02.49.07.7.27.22.2.45.33.69.38.25.05.46.03.65-.07.08-.04.16-.1.23-.18.09-.1.35-.34.73-.36.31-.01.6.12.9.4l-.24.26c-.22-.21-.44-.31-.64-.3-.24,0-.42.17-.48.24-.1.11-.21.2-.33.25-.17.09-.36.13-.57.13Z"/><path class="cls-9" d="M81.62,68.38c-.24-.65-1.2-.2-1.2-.2l-2.25.83c-.02-.13,4.95,3.66,6.49-2.38l-2.25.83s-1.03.28-.79.93"/><path class="cls-5" d="M85.74,60.31h0c-.16-.07-.34,0-.42.15-1.3,2.58-3.99,1.31-3.99,1.31,0,0,.34.25.87.44,1.38.51,2.94-.08,3.68-1.36.02-.03.03-.06.05-.09.09-.17,0-.39-.18-.46h0Z"/><path class="cls-9" d="M81.62,46.44h-4.77c-4.25,0-7.69,3.44-7.69,7.69v9.58h1.38v-5.15c0-3.92,3.14-7.1,7.02-7.1h1.96v2.98c.03,4.18,3.43,7.56,7.61,7.54h.82s0,1.73,0,1.73h1.38v-9.58c0-4.25-3.44-7.69-7.69-7.69Z"/><line class="cls-3" x1="99.63" y1="16.02" x2="99.63" y2="86.94"/><path class="cls-4" d="M92.39,75.09h0c4.55,0,8.24,3.69,8.24,8.24h0c-4.55,0-8.24-3.69-8.24-8.24h0Z" transform="translate(150.09 -33.56) rotate(76.04)"/><path class="cls-4" d="M98.75,58.76h0c4.55,0,8.24,3.69,8.24,8.24h0c-4.55,0-8.24-3.69-8.24-8.24h0Z" transform="translate(17.61 -22.37) rotate(13.56)"/><path class="cls-4" d="M91.95,43.31h0c4.55,0,8.24,3.69,8.24,8.24h0c-4.55,0-8.24-3.69-8.24-8.24h0Z" transform="translate(113.88 -58.22) rotate(73.29)"/><path d="M77.78,62.22c-.33-2.28-3.21-3.25-4.98-2.18.11.17.32.53.42.7.39-.24,2.42-1.06,4.27,1.16.11.13.13.19.28.33"/><path class="cls-6" d="M77.78,62.22s-.66-1.42-1.94-1.87c-1.28-.44-2.68.26-2.68.26,0,0,.51,1.16,1.79,1.61,1.28.44,2.84,0,2.84,0"/><path d="M77.41,61.6c-.32-.44-.85-1-1.56-1.25-.05-.02-.1-.03-.15-.04-.24.2-.4.5-.4.84,0,.61.49,1.1,1.1,1.1.45,0,.83-.27,1.01-.65"/></g></svg>