<?xml version="1.0" encoding="UTF-8"?><svg xmlns="http://www.w3.org/2000/svg" viewBox="0 0 160 160"><defs><style>.cls-1{fill:#e7e4d7;}.cls-2{fill:#241c4a;}.cls-3{fill:#ffae00;}.cls-4{fill:#396bff;}</style></defs><g id="envelop"><rect class="cls-4" x="16.07" y="35.74" width="127.86" height="88.53"/><rect class="cls-1" x="23.8" y="82.53" width="62.73" height="32.46"/><rect class="cls-2" x="76.61" y="35.74" width="6.79" height="14.1"/></g><g id="rocket"><path class="cls-1" d="M129.33,62.62l.12,31.26h0c4.71-.03,14.19,0,14.19,0l-14.32-31.26Z"/><rect class="cls-2" x="113.07" y="106.82" width="13.68" height="4.53"/><rect class="cls-2" x="112.42" y="103.94" width="15.03" height="2.26"/><path class="cls-1" d="M110.5,62.62l-.12,31.26h0c-4.71-.03-14.19,0-14.19,0l14.32-31.26Z"/><path class="cls-2" d="M128.49,96.15v-60.9h-.04c.03-.27.04-.55.04-.84,0-10.17-8.58-18.42-8.58-18.42,0,0-8.58,8.25-8.58,18.42,0,.29.02.57.04.84h-.04v60.9c-2.44.69-4.23,2.93-4.23,5.6v1.73h25.62v-1.73c0-2.66-1.79-4.91-4.23-5.6Z"/><circle class="cls-1" cx="119.89" cy="41.59" r="3.62"/><rect class="cls-3" x="117.75" y="113.68" width="4.04" height="30.37"/><polygon class="cls-3" points="116.11 144.05 116.11 113.68 110.28 144.05 116.11 144.05"/><polygon class="cls-3" points="129.59 144.05 123.76 113.68 123.76 144.05 129.59 144.05"/></g></svg>