<svg viewBox="0 0 160 160" fill="none" xmlns="http://www.w3.org/2000/svg"><path d="M143.04 144L139.61 112.98L108.87 116.06L117.72 144H143.04Z" fill="#693725"/><path d="M144 115.05C144 115.05 133.95 90.7998 119.94 90.7998C110.34 90.7998 102.02 97.2498 101.3 106.81C100.58 116.37 120.9 133.31 120.9 133.31L144.01 115.04L144 115.05Z" fill="#FF6200"/><path d="M42.28 144L51.13 116.06L20.39 112.98L16.96 144H42.28Z" fill="#693725"/><path d="M121.66 144L124 91.4498C124 91.4498 90.58 80.8398 80.32 80.8398C69.06 80.8398 37.46 91.2598 37.46 91.2598L39.24 144H121.66Z" fill="#FF6200"/><path d="M65.76 29.0904C65.76 24.0204 69.87 19.9004 74.95 19.9004C80.03 19.9004 84.14 24.0104 84.14 29.0904C84.14 34.1704 80.03 38.2804 74.95 38.2804C69.87 38.2804 65.76 34.1704 65.76 29.0904Z" fill="#FFCC94"/><path d="M72.62 22.62C72.62 18.96 75.58 16 79.24 16C82.9 16 85.86 18.96 85.86 22.62C85.86 26.28 82.9 29.24 79.24 29.24C75.58 29.24 72.62 26.28 72.62 22.62Z" fill="#FFCC94"/><path d="M67.67 59.7701C67.65 56.6701 65.13 54.2501 62.05 54.3601C59.29 54.4301 56.96 56.7501 56.86 59.5601C56.74 62.6401 59.21 65.1801 62.27 65.1801C65.33 65.1801 67.68 62.7601 67.68 59.7701" fill="#693725"/><path d="M92.51 59.7701C92.53 56.6701 95.05 54.2501 98.13 54.3601C100.89 54.4301 103.22 56.7501 103.32 59.5601C103.44 62.6401 100.97 65.1801 97.91 65.1801C94.85 65.1801 92.5 62.7601 92.5 59.7701" fill="#693725"/><path d="M93.46 89.4097V72.5097C93.46 70.3197 91.68 68.5197 89.49 68.4997L70.7 68.2797C68.51 68.2497 66.73 70.0097 66.73 72.1997V89.4097C66.73 94.8397 71.13 99.2497 76.57 99.2497H83.63C89.06 99.2497 93.47 94.8497 93.47 89.4097" fill="#5D2B1A"/><path d="M97.75 66.1596V41.5396C97.75 33.5596 91.28 27.0996 83.31 27.0996H76.43C68.45 27.0996 61.99 33.5696 61.99 41.5396V66.1596C61.99 74.1396 68.46 80.5996 76.43 80.5996H83.31C91.29 80.5996 97.75 74.1296 97.75 66.1596Z" fill="#693725"/><path d="M80.07 65.27C79.26 65.27 78.78 64.89 78.36 64.56C77.89 64.2 77.45 63.85 76.45 63.85V62.83C77.8 62.83 78.46 63.34 78.99 63.75C79.37 64.05 79.62 64.24 80.08 64.24C80.67 64.24 81.02 63.98 81.47 63.65C81.99 63.27 82.64 62.79 83.74 62.79V63.81C82.98 63.81 82.56 64.12 82.07 64.47C81.57 64.84 81 65.25 80.08 65.25" fill="black"/><path d="M79.9 69.5603C78.53 69.5603 77.22 69.3403 76.02 68.9103L76.4 67.8503C78.58 68.6403 81.21 68.6203 83.81 67.8203L84.15 68.9003C82.72 69.3403 81.28 69.5603 79.9 69.5603Z" fill="#2B2B2A"/><path d="M79.24 29.0904C79.24 24.0204 83.35 19.9004 88.43 19.9004C93.51 19.9004 97.62 24.0104 97.62 29.0904C97.62 34.1704 93.51 38.2804 88.43 38.2804C83.35 38.2804 79.24 34.1704 79.24 29.0904Z" fill="#FFCC94"/><path d="M75.7877 44.0776L64.4548 48.8066L65.7179 51.8337L77.0508 47.1046L75.7877 44.0776Z" fill="#171111"/><path d="M82.9626 41.4868L81.7921 44.7959L93.2749 48.8577L94.4454 45.5486L82.9626 41.4868Z" fill="#171111"/><path d="M65.84 82.6402V75.4902C65.84 70.6102 69.85 66.6602 74.8 66.6602H85.05C90 66.6602 94.01 70.6202 94.01 75.4902V82.6402C94.01 87.5202 90 91.4702 85.05 91.4702H74.8C69.85 91.4702 65.84 87.5102 65.84 82.6402Z" fill="#171111"/><path d="M77.62 107.82L64.45 89.2902C63.58 88.0802 63.85 86.3902 65.06 85.5202C66.27 84.6402 67.96 84.9202 68.83 86.1302L76.75 97.4102L77.07 97.1802L67.04 82.9902C66.17 81.7802 66.44 80.0902 67.65 79.2202C68.86 78.3502 70.55 78.6202 71.42 79.8302L80.76 93.0702L81.08 92.8402L70.53 77.9302C69.66 76.7202 69.93 75.0302 71.14 74.1602C72.35 73.2902 74.04 73.5602 74.91 74.7702L86.15 90.6402L86.47 90.4102L76.89 76.8402C76.02 75.6302 76.29 73.9402 77.5 73.0702C78.71 72.2002 80.4 72.4702 81.27 73.6802L93.44 90.8802L92.48 82.8002C92.33 81.3202 93.41 79.9902 94.89 79.8302C96.38 79.6802 97.7 80.7602 97.86 82.2402L99.39 95.8102C99.74 99.2402 99.56 102.7 98.85 106.07L107.73 118.35L88.71 119.39L82.36 112.21C80.63 111.19 79.12 109.85 77.91 108.25L77.62 107.86V107.82Z" fill="#693725"/><path d="M88.92 61.9699C85.96 61.9699 83.55 59.5599 83.55 56.5999C83.55 56.4599 83.55 56.3299 83.57 56.1899C83.57 56.1899 83.57 56.1699 83.57 56.1499C83.8 53.3999 86.11 51.2199 88.92 51.2199C91.88 51.2199 94.29 53.6299 94.29 56.5899C94.29 59.5499 91.88 61.9599 88.92 61.9599M70.81 61.9599C67.85 61.9599 65.44 59.5499 65.44 56.5899C65.44 53.6299 67.85 51.2199 70.81 51.2199C73.59 51.2199 75.89 53.3499 76.16 56.0699C76.18 56.2399 76.19 56.4099 76.19 56.5899C76.19 59.5499 73.78 61.9599 70.82 61.9599M88.93 49.4199C85.81 49.4199 83.15 51.4199 82.17 54.2099C81.52 53.8299 80.68 53.6299 79.73 53.6499C78.89 53.6699 78.16 53.8599 77.57 54.1699C76.58 51.3999 73.93 49.4199 70.83 49.4199C66.88 49.4199 63.67 52.6299 63.67 56.5799C63.67 60.5299 66.88 63.7399 70.83 63.7399C74.78 63.7399 77.99 60.5299 77.99 56.5799C77.99 56.4399 77.99 56.2999 77.98 56.1699C78.13 55.7899 78.9 55.4599 79.77 55.4399C80.61 55.4199 81.55 55.6799 81.77 56.2999C81.77 56.3899 81.77 56.4899 81.77 56.5899C81.77 60.5399 84.98 63.7499 88.94 63.7499C92.9 63.7499 96.1 60.5399 96.1 56.5899C96.1 52.6399 92.89 49.4299 88.94 49.4299" fill="white"/><path d="M125.15 144L98.21 104.25L81.89 111.57L96.92 144H125.15Z" fill="#693725"/><path d="M16 115.24C16 115.24 26.05 90.9902 40.06 90.9902C49.66 90.9902 57.98 97.4402 58.7 107C59.42 116.56 39.1 133.5 39.1 133.5L15.99 115.23L16 115.24Z" fill="#FF6200"/><path d="M71.93 54.5999C72.08 54.8799 72.18 55.1899 72.18 55.5399C72.18 56.6299 71.29 57.5199 70.19 57.5199C69.09 57.5199 68.2 56.6299 68.2 55.5399C68.2 55.0999 68.35 54.6999 68.59 54.3799C67.66 54.5599 67 54.9799 66.88 55.5799C66.66 56.6499 68.25 57.8799 70.42 58.3099C72.59 58.7399 74.53 58.2299 74.75 57.1499C74.94 56.1999 73.73 55.1399 71.94 54.6099L71.93 54.5999Z" fill="white"/><path d="M70.18 57.5099C71.28 57.5099 72.17 56.6199 72.17 55.5299C72.17 55.1899 72.08 54.8699 71.92 54.5899C71.68 54.5199 71.44 54.4599 71.18 54.3999C70.22 54.2099 69.31 54.2099 68.57 54.3599C68.33 54.6899 68.18 55.0899 68.18 55.5199C68.18 56.6099 69.07 57.4999 70.17 57.4999L70.18 57.5099Z" fill="black"/><path d="M89.64 54.2899C90.03 54.6499 90.28 55.1699 90.28 55.7399C90.28 56.8299 89.39 57.7199 88.29 57.7199C87.19 57.7199 86.3 56.8299 86.3 55.7399C86.3 55.6099 86.31 55.4799 86.34 55.3499C85.52 55.8799 85.05 56.5399 85.18 57.1399C85.4 58.2099 87.33 58.7299 89.51 58.2999C91.68 57.8699 93.27 56.6399 93.05 55.5699C92.86 54.6499 91.42 54.1499 89.64 54.2899Z" fill="white"/><path d="M88.29 57.72C89.39 57.72 90.28 56.83 90.28 55.74C90.28 55.16 90.03 54.65 89.64 54.29C89.34 54.31 89.04 54.35 88.72 54.41C87.78 54.6 86.96 54.94 86.34 55.35C86.31 55.48 86.3 55.61 86.3 55.74C86.3 56.83 87.19 57.72 88.29 57.72Z" fill="black"/></svg>