<svg viewBox="0 0 160 160" fill="none" xmlns="http://www.w3.org/2000/svg"><path d="M95.58 103.06C95.55 98.7499 94.55 94.5099 92.65 90.6499C87.75 80.6999 83.63 68.5199 80.96 55.1099C78.83 44.3799 77.86 34.0299 77.93 24.6499H61.32L61.29 24.7599C61.35 34.1099 60.39 44.4199 58.26 55.1099C55.61 68.4699 51.51 80.5999 46.64 90.5299C44.75 94.3799 43.75 98.5999 43.73 102.89L43.46 144H95.82L95.58 103.06Z" fill="#69B591"/><path d="M79.6199 16.2798H59.6599V24.8298H79.6199V16.2798Z" fill="#519B7A"/><path d="M100.39 55.1497L89.54 55.1796L89.58 68.2297C89.59 71.7197 88.03 75.0296 85.34 77.2496C82.65 79.4696 81.09 82.7796 81.1 86.2696L81.26 144H116.81L116.64 86.1696C116.63 82.6796 115.05 79.3797 112.35 77.1796C109.64 74.9796 108.07 71.6797 108.06 68.1897L108.02 55.1396L97.01 55.1696" fill="#FEB12B"/><path d="M109.25 55.2098H88.5701V51.6798C88.5701 50.3798 89.6201 49.3198 90.9301 49.3198H106.9C108.2 49.3198 109.26 50.3698 109.26 51.6798V55.2098H109.25Z" fill="#232045"/><path d="M111.92 96.3101H85.98V129.28H111.92V96.3101Z" fill="#232045"/></svg>