<svg viewBox="0 0 160 160" fill="none" xmlns="http://www.w3.org/2000/svg"><path d="M94.95 90.8602L105.35 109.31C106.91 112.07 110.32 113.17 113.2 111.84C116.22 110.44 117.55 106.88 116.19 103.84L105.6 80.2002L94.95 90.8602Z" fill="#5D2B1A"/><path d="M80.97 66.7101C81.25 61.7401 88.43 58.1001 88.43 58.1001C88.43 58.1001 95.15 62.5201 94.87 67.4901C94.59 72.4601 87.41 76.1001 87.41 76.1001C87.41 76.1001 80.69 71.6801 80.97 66.7101Z" fill="#171111"/><path d="M119.55 70.2498L119.83 68.8598C120 68.0298 119.46 67.2198 118.63 67.0498C117.8 66.8798 116.99 67.4198 116.82 68.2498L115.47 74.8498L114.66 77.0398H114.65L111.65 85.1598L104.92 103.41C103.54 106.96 105.41 110.95 109.02 112.15C112.83 113.42 116.88 111.06 117.67 107.13L123.37 76.0798C123.37 76.0798 123.4 76.0098 123.42 75.9698C123.42 75.9698 123.42 75.9498 123.42 75.9398L130.6 74.4898H136.83C137.54 74.4898 138.21 74.0398 138.38 73.3498C138.63 72.3298 137.87 71.4198 136.9 71.4198H124.6L119.54 70.2398L119.55 70.2498Z" fill="#693725"/><path d="M60.63 66.7101C60.91 61.7401 68.09 58.1001 68.09 58.1001C68.09 58.1001 74.81 62.5201 74.53 67.4901C74.25 72.4601 67.07 76.1001 67.07 76.1001C67.07 76.1001 60.35 71.6801 60.63 66.7101Z" fill="#171111"/><path d="M60.41 90.8602L50.01 109.31C48.45 112.07 45.04 113.17 42.16 111.84C39.14 110.44 37.81 106.88 39.17 103.84L49.76 80.2002L60.41 90.8602Z" fill="#5D2B1A"/><path d="M30.75 71.4298H18.45C17.6 71.4298 16.92 72.1198 16.92 72.9598C16.92 73.8098 17.61 74.4898 18.45 74.4898H24.75L31.93 75.9398C31.93 75.9398 31.93 75.9598 31.93 75.9698C31.94 76.0098 31.96 76.0398 31.98 76.0698L37.68 107.12C38.46 111.05 42.52 113.41 46.33 112.14C49.95 110.93 51.82 106.95 50.43 103.4L40.7 77.0298H40.69L39.88 74.8398L38.53 68.2298C38.36 67.3998 37.55 66.8598 36.72 67.0298C35.89 67.1998 35.35 68.0098 35.52 68.8398L35.93 70.8598L30.74 71.4098L30.75 71.4298Z" fill="#693725"/><path d="M142.4 65.3999H118.45C117.566 65.3999 116.85 66.1162 116.85 66.9999V67.5799C116.85 68.4636 117.566 69.1799 118.45 69.1799H142.4C143.284 69.1799 144 68.4636 144 67.5799V66.9999C144 66.1162 143.284 65.3999 142.4 65.3999Z" fill="#BA5D27"/><path d="M99.7 75.7199C99.55 75.7099 99.41 75.7199 99.26 75.7099V75.6899H56.03V75.7099C55.91 75.7099 55.79 75.7099 55.66 75.7099C49.91 76.1399 45.6 81.1599 46.03 86.9099C46.32 90.6899 52.39 95.1499 56.51 97.7499L56.99 119.52H98.64L98.95 97.6899C103.07 95.0799 109.05 90.6699 109.33 86.9099C109.76 81.1599 105.45 76.1399 99.7 75.7099V75.7199Z" fill="#E6E3DA"/><path d="M119.18 68.6099H141.19V69.5599C141.19 71.1399 139.91 72.4199 138.33 72.4199H121.96C120.43 72.4199 119.18 71.1799 119.18 69.6399V68.6099Z" fill="#F99F5B"/><path d="M141.19 66.27H119.18V65.32C119.18 63.74 120.46 62.46 122.04 62.46H138.41C139.94 62.46 141.19 63.7 141.19 65.24V66.27Z" fill="#F99F5B"/><path d="M119.18 66.2598H141.19V65.4498H119.18V66.2598Z" fill="#FED4B0"/><path d="M119.18 69.3901H141.19V68.5801H119.18V69.3901Z" fill="#FED4B0"/><path d="M84.73 75.3299L84.69 65.2699L69.19 65.1499L69.23 75.3899C69.25 79.6699 72.73 83.1299 77.01 83.1099C81.29 83.0899 84.75 79.6099 84.73 75.3299Z" fill="#5D2B1A"/><path d="M81 79.4902C80.98 74.5102 87.93 70.4502 87.93 70.4502C87.93 70.4502 94.91 74.4602 94.93 79.4402C94.95 84.4202 88 88.4802 88 88.4802C88 88.4802 81.02 84.4702 81 79.4902Z" fill="#171111"/><path d="M60.67 79.4902C60.65 74.5102 67.6 70.4502 67.6 70.4502C67.6 70.4502 74.58 74.4602 74.6 79.4402C74.62 84.4202 67.67 88.4802 67.67 88.4802C67.67 88.4802 60.69 84.4702 60.67 79.4902Z" fill="#171111"/><path d="M87.02 62.5998C88.7542 62.5998 90.16 61.194 90.16 59.4598C90.16 57.7256 88.7542 56.3198 87.02 56.3198C85.2858 56.3198 83.88 57.7256 83.88 59.4598C83.88 61.194 85.2858 62.5998 87.02 62.5998Z" fill="#693725"/><path d="M66.9 62.5998C68.6342 62.5998 70.04 61.194 70.04 59.4598C70.04 57.7256 68.6342 56.3198 66.9 56.3198C65.1658 56.3198 63.76 57.7256 63.76 59.4598C63.76 61.194 65.1658 62.5998 66.9 62.5998Z" fill="#693725"/><path d="M78.8973 41.1166L74.9174 41.1319C70.2893 41.1497 66.5518 44.9159 66.5696 49.544L66.6244 63.8139C66.6422 68.442 70.4084 72.1794 75.0365 72.1617L79.0165 72.1464C83.6446 72.1286 87.382 68.3624 87.3643 63.7343L87.3095 49.4644C87.2917 44.8363 83.5255 41.0988 78.8973 41.1166Z" fill="#693725"/><path d="M17.13 69.75H37.13V71.54C37.13 71.98 36.77 72.34 36.33 72.34H17.93C17.49 72.34 17.13 71.98 17.13 71.54V69.75Z" fill="#F99F5B"/><path d="M36.98 67.54H17.29C16.8924 67.54 16.57 67.8624 16.57 68.26V69.19C16.57 69.5877 16.8924 69.91 17.29 69.91H36.98C37.3777 69.91 37.7 69.5877 37.7 69.19V68.26C37.7 67.8624 37.3777 67.54 36.98 67.54Z" fill="#891229"/><path d="M26.18 65.0898H18.25C17.7253 65.0898 17.3 65.5129 17.3 66.0349C17.3 66.5568 17.7253 66.9799 18.25 66.9799H26.18C26.7047 66.9799 27.13 66.5568 27.13 66.0349C27.13 65.5129 26.7047 65.0898 26.18 65.0898Z" fill="#E73245"/><path d="M36.01 65.0898H28.08C27.5553 65.0898 27.13 65.5129 27.13 66.0349C27.13 66.5568 27.5553 66.9799 28.08 66.9799H36.01C36.5347 66.9799 36.96 66.5568 36.96 66.0349C36.96 65.5129 36.5347 65.0898 36.01 65.0898Z" fill="#E73245"/><path d="M38.27 66.04H16C16 65 16.85 64.15 17.89 64.15H36.37C37.41 64.15 38.26 65 38.26 66.04H38.27Z" fill="#3EA464"/><path d="M36.43 67H17.84C17.55 67 17.31 67.24 17.31 67.53L27.05 69.47L36.97 67.53C36.97 67.24 36.73 67 36.44 67H36.43Z" fill="#FED4B0"/><path d="M37.14 64.3198H17.14C17.14 61.2698 19.61 58.7998 22.66 58.7998H31.63C34.68 58.7998 37.15 61.2698 37.15 64.3198H37.14Z" fill="#F99F5B"/><path d="M21.1762 59.9252C21.2223 59.8948 21.2351 59.8328 21.2048 59.7867C21.1744 59.7405 21.1124 59.7277 21.0663 59.7581L20.5399 60.1042C20.4937 60.1346 20.4809 60.1966 20.5113 60.2427C20.5416 60.2889 20.6036 60.3017 20.6498 60.2713L21.1762 59.9252Z" fill="#F7E5CD"/><path d="M31.6211 59.7968C31.6673 59.7664 31.6801 59.7044 31.6497 59.6583C31.6194 59.6121 31.5574 59.5993 31.5113 59.6297L30.9849 59.9758C30.9387 60.0062 30.9259 60.0682 30.9563 60.1143C30.9866 60.1605 31.0486 60.1733 31.0948 60.1429L31.6211 59.7968Z" fill="#F7E5CD"/><path d="M26.0193 62.0175C26.0654 61.9871 26.0783 61.9251 26.0479 61.879C26.0176 61.8328 25.9556 61.82 25.9094 61.8504L25.383 62.1965C25.3369 62.2269 25.3241 62.2889 25.3544 62.335C25.3848 62.3812 25.4468 62.394 25.4929 62.3636L26.0193 62.0175Z" fill="#F7E5CD"/><path d="M23.9245 61.0699C23.9348 61.0157 23.8993 60.9633 23.845 60.9529C23.7908 60.9425 23.7384 60.9781 23.728 61.0323L23.6095 61.6511C23.5992 61.7053 23.6347 61.7577 23.6889 61.7681C23.7432 61.7785 23.7956 61.7429 23.806 61.6887L23.9245 61.0699Z" fill="#F7E5CD"/><path d="M33.1395 59.9385C33.1699 59.9846 33.2319 59.9974 33.278 59.9671C33.3242 59.9367 33.337 59.8747 33.3066 59.8286L32.9605 59.3022C32.9301 59.256 32.8681 59.2432 32.822 59.2736C32.7758 59.3039 32.763 59.3659 32.7934 59.4121L33.1395 59.9385Z" fill="#F7E5CD"/><path d="M23.3853 59.8462C23.4156 59.8923 23.4776 59.9051 23.5238 59.8748C23.5699 59.8444 23.5827 59.7824 23.5524 59.7363L23.2062 59.2099C23.1759 59.1638 23.1139 59.1509 23.0677 59.1813C23.0216 59.2116 23.0088 59.2736 23.0391 59.3198L23.3853 59.8462Z" fill="#F7E5CD"/><path d="M27.4991 61.3047C27.5294 61.3508 27.5914 61.3636 27.6376 61.3333C27.6837 61.3029 27.6965 61.2409 27.6662 61.1948L27.32 60.6684C27.2897 60.6222 27.2277 60.6094 27.1815 60.6398C27.1354 60.6701 27.1226 60.7321 27.1529 60.7783L27.4991 61.3047Z" fill="#F7E5CD"/><path d="M29.1066 60.0604C29.1101 60.1155 29.1577 60.1574 29.2128 60.1538C29.2679 60.1503 29.3097 60.1028 29.3062 60.0477L29.266 59.419C29.2625 59.3638 29.2149 59.322 29.1598 59.3255C29.1047 59.3291 29.0629 59.3766 29.0664 59.4317L29.1066 60.0604Z" fill="#F7E5CD"/><path d="M19.3934 61.684C19.3969 61.7391 19.4445 61.7809 19.4996 61.7774C19.5547 61.7739 19.5965 61.7263 19.593 61.6712L19.5528 61.0425C19.5492 60.9874 19.5017 60.9455 19.4466 60.9491C19.3915 60.9526 19.3496 61.0001 19.3532 61.0553L19.3934 61.684Z" fill="#F7E5CD"/><path d="M25.1803 60.662C25.1839 60.7171 25.2314 60.7589 25.2865 60.7554C25.3416 60.7519 25.3834 60.7043 25.3799 60.6492L25.3397 60.0205C25.3362 59.9654 25.2886 59.9236 25.2335 59.9271C25.1784 59.9306 25.1366 59.9782 25.1401 60.0333L25.1803 60.662Z" fill="#F7E5CD"/><path d="M32.1656 62.1908C32.1692 62.2459 32.2167 62.2877 32.2718 62.2842C32.3269 62.2807 32.3687 62.2332 32.3652 62.178L32.325 61.5493C32.3215 61.4942 32.2739 61.4524 32.2188 61.4559C32.1637 61.4594 32.1219 61.507 32.1254 61.5621L32.1656 62.1908Z" fill="#F7E5CD"/><path d="M21.476 62.0135C21.4567 62.0653 21.4829 62.1229 21.5347 62.1422C21.5864 62.1616 21.644 62.1353 21.6634 62.0836L21.884 61.4935C21.9033 61.4417 21.8771 61.3841 21.8253 61.3648C21.7736 61.3454 21.716 61.3717 21.6967 61.4234L21.476 62.0135Z" fill="#F7E5CD"/><path d="M27.1451 59.5253C27.1913 59.4949 27.2041 59.4329 27.1738 59.3868C27.1434 59.3406 27.0814 59.3278 27.0353 59.3582L26.5089 59.7043C26.4627 59.7347 26.4499 59.7967 26.4803 59.8428C26.5106 59.889 26.5726 59.9018 26.6188 59.8714L27.1451 59.5253Z" fill="#F7E5CD"/><path d="M30.0557 61.0867C30.0726 61.0341 30.0438 60.9778 29.9912 60.9608C29.9386 60.9439 29.8823 60.9728 29.8653 61.0254L29.6721 61.625C29.6552 61.6776 29.6841 61.7339 29.7366 61.7508C29.7892 61.7678 29.8455 61.7389 29.8625 61.6863L30.0557 61.0867Z" fill="#F7E5CD"/><path d="M34.7994 60.8978C34.8455 60.8675 34.8583 60.8055 34.828 60.7593C34.7976 60.7132 34.7356 60.7004 34.6895 60.7307L34.1631 61.0769C34.1169 61.1072 34.1041 61.1692 34.1345 61.2154C34.1648 61.2615 34.2268 61.2743 34.273 61.244L34.7994 60.8978Z" fill="#F7E5CD"/><path d="M76.85 63.5C76.73 63.5 76.61 63.49 76.49 63.46C76.14 63.39 75.8 63.21 75.49 62.92C75.32 62.77 75.15 62.7 74.99 62.72C74.65 62.75 74.38 63.09 74.38 63.1L74.05 62.85C74.05 62.85 74.43 62.36 74.95 62.31C75.24 62.28 75.51 62.39 75.76 62.62C76.01 62.86 76.29 63 76.56 63.06C76.85 63.12 77.1 63.09 77.31 62.98C77.4 62.93 77.49 62.86 77.58 62.77C77.69 62.65 77.99 62.37 78.43 62.36C78.78 62.36 79.13 62.5 79.47 62.83L79.19 63.13C78.93 62.89 78.69 62.76 78.44 62.78C78.16 62.78 77.95 62.98 77.88 63.06C77.76 63.19 77.63 63.29 77.5 63.36C77.3 63.46 77.08 63.51 76.84 63.51L76.85 63.5Z" fill="#171111"/><path d="M74.36 59.1301C74.36 59.1301 73.61 57.5301 72.18 57.0301C70.75 56.5301 69.17 57.3201 69.17 57.3201C69.17 57.3201 69.74 58.6201 71.17 59.1201C72.6 59.6201 74.35 59.1201 74.35 59.1201" fill="white"/><path d="M74.36 59.1299C73.99 56.5699 70.76 55.4799 68.77 56.6799C68.89 56.8699 69.12 57.2699 69.25 57.4599C69.69 57.1899 71.97 56.2699 74.04 58.7599C74.17 58.9099 74.18 58.9699 74.36 59.1299Z" fill="#1D1D1B"/><path d="M79.39 59.1301C79.39 59.1301 80.14 57.5301 81.57 57.0301C83 56.5301 84.58 57.3201 84.58 57.3201C84.58 57.3201 84.01 58.6201 82.58 59.1201C81.15 59.6201 79.4 59.1201 79.4 59.1201" fill="white"/><path d="M79.39 59.1299C79.76 56.5699 82.99 55.4799 84.98 56.6799C84.86 56.8699 84.63 57.2699 84.5 57.4599C84.06 57.1899 81.78 56.2699 79.71 58.7599C79.58 58.9099 79.57 58.9699 79.39 59.1299Z" fill="#1D1D1B"/><path d="M72.23 57.5701C72.23 58.2501 71.68 58.8101 70.99 58.8101C70.3 58.8101 69.75 58.2501 69.75 57.5701C69.75 56.8901 70.3 56.3301 70.99 56.3301C71.68 56.3301 72.23 56.8901 72.23 57.5701Z" fill="#1D1D1B"/><path d="M81.89 56.52C82.24 56.74 82.47 57.13 82.47 57.57C82.47 58.25 81.92 58.81 81.23 58.81C80.63 58.81 80.13 58.39 80.02 57.82L81.89 56.52Z" fill="#1D1D1B"/><path d="M75.76 66.43C75.76 66.43 78.66 71.25 81.82 65.94C81.82 65.94 80.15 63.28 78.37 65.64C78.37 65.64 77.07 64.76 75.77 66.43" fill="#E73245"/><path d="M79.74 40.48H74.19C69.25 40.48 65.25 44.48 65.25 49.42V60.56H66.85V54.58C66.85 50.63 69.6 47.33 73.27 46.52C74.22 53.32 80.04 58.54 87.09 58.55V60.57H88.69V49.43C88.69 44.49 84.69 40.49 79.75 40.49L79.74 40.48Z" fill="#171111"/><path d="M74.91 52.3101H68.46V53.7901H74.91V52.3101Z" fill="#171111"/><path d="M138.28 68.2401C137.53 68.2401 137.14 67.9201 136.8 67.6401C136.49 67.3801 136.22 67.1601 135.66 67.1601C135.1 67.1601 134.83 67.3801 134.52 67.6401C134.18 67.9201 133.79 68.2401 133.04 68.2401C132.29 68.2401 131.9 67.9201 131.56 67.6401C131.25 67.3801 130.98 67.1601 130.42 67.1601C129.86 67.1601 129.59 67.3801 129.28 67.6401C128.94 67.9201 128.55 68.2401 127.8 68.2401C127.05 68.2401 126.66 67.9201 126.32 67.6401C126.01 67.3801 125.74 67.1601 125.18 67.1601C124.62 67.1601 124.35 67.3801 124.04 67.6401C123.7 67.9201 123.31 68.2401 122.56 68.2401C121.81 68.2401 121.42 67.9201 121.08 67.6401C120.77 67.3801 120.5 67.1601 119.94 67.1601V66.6201C120.69 66.6201 121.08 66.9401 121.42 67.2201C121.73 67.4801 122 67.7001 122.56 67.7001C123.12 67.7001 123.39 67.4801 123.7 67.2201C124.04 66.9401 124.43 66.6201 125.18 66.6201C125.93 66.6201 126.32 66.9401 126.66 67.2201C126.97 67.4801 127.24 67.7001 127.8 67.7001C128.36 67.7001 128.63 67.4801 128.94 67.2201C129.28 66.9401 129.67 66.6201 130.42 66.6201C131.17 66.6201 131.56 66.9401 131.9 67.2201C132.21 67.4801 132.48 67.7001 133.04 67.7001C133.6 67.7001 133.87 67.4801 134.18 67.2201C134.52 66.9401 134.91 66.6201 135.66 66.6201C136.41 66.6201 136.8 66.9401 137.14 67.2201C137.45 67.4801 137.72 67.7001 138.28 67.7001C138.84 67.7001 139.11 67.4801 139.42 67.2201C139.76 66.9401 140.15 66.6201 140.9 66.6201V67.1601C140.34 67.1601 140.07 67.3801 139.76 67.6401C139.42 67.9201 139.03 68.2401 138.28 68.2401Z" fill="#F7931E"/><path d="M138.28 68.2401C137.53 68.2401 137.14 67.9201 136.8 67.6401C136.49 67.3801 136.22 67.1601 135.66 67.1601C135.1 67.1601 134.83 67.3801 134.52 67.6401C134.18 67.9201 133.79 68.2401 133.04 68.2401C132.29 68.2401 131.9 67.9201 131.56 67.6401C131.25 67.3801 130.98 67.1601 130.42 67.1601V66.6201C131.17 66.6201 131.56 66.9401 131.9 67.2201C132.21 67.4801 132.48 67.7001 133.04 67.7001C133.6 67.7001 133.87 67.4801 134.18 67.2201C134.52 66.9401 134.91 66.6201 135.66 66.6201C136.41 66.6201 136.8 66.9401 137.14 67.2201C137.45 67.4801 137.72 67.7001 138.28 67.7001C138.84 67.7001 139.11 67.4801 139.42 67.2201C139.76 66.9401 140.15 66.6201 140.9 66.6201V67.1601C140.34 67.1601 140.07 67.3801 139.76 67.6401C139.42 67.9201 139.03 68.2401 138.28 68.2401Z" fill="#F7E5CD"/><path d="M18.4 73.8301C18.08 73.8301 17.82 73.5701 17.82 73.2501V69.9301H18.98V73.2501C18.98 73.5701 18.72 73.8301 18.4 73.8301Z" fill="#E73245"/><path d="M20.02 71.7702V69.9302H18.86V71.7702C18.86 72.0902 19.12 72.3502 19.44 72.3502C19.76 72.3502 20.02 72.0902 20.02 71.7702Z" fill="#E73245"/><path d="M18.98 77.6298C18.98 77.3095 18.7203 77.0498 18.4 77.0498C18.0797 77.0498 17.82 77.3095 17.82 77.6298V78.8798C17.82 79.2001 18.0797 79.4598 18.4 79.4598C18.7203 79.4598 18.98 79.2001 18.98 78.8798V77.6298Z" fill="#E73245"/></svg>