<svg viewBox="0 0 161 161" fill="none" xmlns="http://www.w3.org/2000/svg"><path fill-rule="evenodd" clip-rule="evenodd" d="M128.554 101.468H31.4458V41.3677C31.4458 38.9554 33.3938 37 35.7958 37H124.205C126.607 37 128.554 38.9554 128.554 41.3677V101.468Z" fill="#254471"/><path fill-rule="evenodd" clip-rule="evenodd" d="M144 120.908H16L31.43 101.468H128.538L144 120.908Z" fill="#738EC1"/><path fill-rule="evenodd" clip-rule="evenodd" d="M35.356 93.5862H124.644V41.0698H35.356V93.5862Z" fill="#D0DEF2"/><path fill-rule="evenodd" clip-rule="evenodd" d="M26.7386 111.39L32.6686 103.058H127.332L133.262 111.39H26.7386Z" fill="#B0C2E4"/><path fill-rule="evenodd" clip-rule="evenodd" d="M58.3232 119.318L61.8902 112.499H98.1962L101.71 119.318H58.3232Z" fill="#B0C2E4"/><path fill-rule="evenodd" clip-rule="evenodd" d="M142.249 125H17.7512C16.7842 125 16.0002 124.214 16.0002 123.246V120.907H144V123.246C144 124.214 143.216 125 142.249 125Z" fill="#8DA8DC"/><path fill-rule="evenodd" clip-rule="evenodd" d="M124.644 41.0693V93.6239H35.356L124.644 41.0693Z" fill="#E6F0FF"/></svg>