<?xml version="1.0" encoding="UTF-8"?><svg id="Man" xmlns="http://www.w3.org/2000/svg" viewBox="0 0 160 160"><defs><style>.cls-1{fill:#e6e3d9;}.cls-2{fill:#feb200;}.cls-3{fill:#ec2b3b;}.cls-4{stroke:#4573ff;stroke-width:1.37px;}.cls-4,.cls-5{fill:none;stroke-miterlimit:10;}.cls-6{fill:#ffc6a9;}.cls-7{fill:#fff;}.cls-8{fill:#3261c9;}.cls-5{stroke:#ab654f;stroke-width:.34px;}.cls-9{fill:#231f46;}.cls-10{fill:#4573ff;}.cls-11{fill:#5d1c10;}.cls-12{fill:#c2745c;}.cls-13{fill:#ab654f;}</style></defs><path class="cls-6" d="M83.99,80.33l-4.85-.43.66-13.54c.07-1.39,1.25-2.46,2.64-2.4h0c1.39.07,2.46,1.25,2.4,2.64l-.85,13.72Z"/><path class="cls-11" d="M89.78,29.33h-20.94c-3.27,0-5.93,1.58-5.93,3.52v22.29h32.66v-22.37c0-1.9-2.59-3.44-5.79-3.44"/><path class="cls-8" d="M46.72,79.89l-2.68.56c-5.06,2.52-11.44,9.4-13.72,18.76-3.35,13.79-3.81,24.19-3.81,24.19l24.11,1.95,9.18-31.52-13.09-13.95Z"/><path class="cls-8" d="M114.41,80.45s14.18,5.92,16.05,19.57c1.78,13.02.95,22.82.95,22.82l-21.25,2.52-9.18-30.55,13.44-14.36Z"/><rect class="cls-10" x="25.73" y="116.95" width="30.13" height="8.4"/><path class="cls-8" d="M115.76,144l-1.35-63.55s-20.18-7.14-35.19-8.04c0,0-22.33,2.68-35.19,8.04l-.63,63.55h72.35Z"/><path class="cls-13" d="M68.21,78.28v-16.36s22.55,0,22.55,0v16.35c0,5.27-4.27,9.54-9.54,9.54h-3.47c-5.27,0-9.54-4.27-9.54-9.54Z"/><path class="cls-12" d="M69.37,51.94c-.02-2.51-2.05-4.47-4.55-4.37-2.24.05-4.12,1.93-4.2,4.2-.09,2.49,1.9,4.54,4.37,4.54s4.38-1.96,4.38-4.37"/><path class="cls-12" d="M89.47,51.94c.02-2.51,2.05-4.47,4.55-4.37,2.24.05,4.12,1.93,4.2,4.2.09,2.49-1.9,4.54-4.37,4.54s-4.38-1.96-4.38-4.37"/><path class="cls-12" d="M93.71,57.11v-19.9c0-6.45-5.23-11.68-11.69-11.68h-5.57c-6.45,0-11.69,5.23-11.69,11.68v19.9c0,6.45,5.23,11.68,11.69,11.68h5.57c6.45,0,11.69-5.23,11.69-11.68"/><rect class="cls-11" x="67.32" y="40.16" width="9.2" height="2.65"/><rect class="cls-11" x="82.01" y="42.95" width="9.2" height="2.65"/><path d="M79.21,56.56c-.67,0-1.21-.33-1.68-.63-.77-.48-1.24-.77-2.17.15l-.61-.6c1.41-1.41,2.42-.78,3.23-.27.41.26.79.5,1.22.5s.8-.22,1.19-.46c.77-.47,1.72-1.05,3.31.26l-.55.66c-1.11-.92-1.59-.63-2.31-.19-.45.27-.95.58-1.64.58"/><path class="cls-7" d="M75.09,50.04c-.17.87-1.74,1.29-3.49.94-1.75-.35-3.03-1.34-2.86-2.21.17-.87,1.74-1.29,3.49-.94,1.75.35,3.03,1.34,2.86,2.21"/><path d="M73.52,49.4c0,.89-.72,1.6-1.61,1.6s-1.61-.72-1.61-1.6c0-.89.72-1.6,1.61-1.6s1.61.72,1.61,1.6"/><path class="cls-7" d="M83.43,50.04c.17.87,1.74,1.29,3.49.94,1.75-.35,3.03-1.34,2.86-2.21-.17-.87-1.74-1.29-3.49-.94-1.75.35-3.03,1.34-2.86,2.21"/><path d="M85,49.4c0,.89.72,1.6,1.61,1.6s1.61-.72,1.61-1.6c0-.89-.72-1.6-1.61-1.6s-1.61.72-1.61,1.6"/><polygon class="cls-8" points="72.52 87.4 79.21 74.69 85.25 87.24 81.47 89.47 72.52 87.4"/><polygon class="cls-10" points="65.41 74.62 68.21 69.64 79.21 74.69 71.32 93.84 65.41 74.62"/><polygon class="cls-10" points="93.59 74.62 90.79 69.64 79.21 74.69 87.68 93.84 93.59 74.62"/><path class="cls-4" d="M79.21,95.71c-.02,15.66-.02,31.56,0,47.56"/><circle class="cls-10" cx="85.29" cy="108.48" r="1.88"/><circle class="cls-10" cx="85.29" cy="132.71" r="1.88"/><rect class="cls-2" x="51.08" y="105.22" width="15.97" height="3.05"/><path class="cls-2" d="M109,106.62c0,1.77-.72,3.46-2,4.68l-2.64,2.52c-.78.91-2.19.91-2.98,0l-2.64-2.52c-1.28-1.22-2-2.91-2-4.68v-4.31c0-.8.51-1.51,1.27-1.77l4.26-1.45c.39-.13.82-.13,1.21,0l4.26,1.45c.76.26,1.27.97,1.27,1.77v4.31Z"/><path class="cls-11" d="M69.42,28.39c-2.66,0-4.82,2.16-4.82,4.82v4.25h13.84c3.69,0,6.51-1.01,8.45-2.12.64,1.47,2.1,2.49,3.8,2.49h3.19v-4.79c0-2.55-2.05-4.62-4.59-4.65h-19.87Z"/><path class="cls-8" d="M95.7,33.5h-32.83l-4.05-8.96c-.74-1.64.17-3.55,1.91-4l16.68-4.35c.98-.25,2-.25,2.98,0l16.86,4.39c1.68.44,2.6,2.24,1.97,3.85l-3.51,9.06Z"/><polygon class="cls-1" points="61 29.35 62.87 33.5 95.7 33.5 97.31 29.35 61 29.35"/><path class="cls-2" d="M81.83,23c0,.82-.34,1.6-.93,2.17l-1.22,1.17c-.36.42-1.02.42-1.38,0l-1.22-1.17c-.59-.57-.93-1.35-.93-2.17v-2c0-.37.24-.7.59-.82l1.98-.67c.18-.06.38-.06.56,0l1.98.67c.35.12.59.45.59.82v2Z"/><path class="cls-12" d="M121.69,132.72c7.03,0,12.86-5.46,13.31-12.48l.49-7.55,1.03-20.25c.09-1.81-1.3-3.36-3.11-3.45l-.47-.02c-1.1-.06-2.09.44-2.73,1.23l.03-2.87c.02-1.82-1.44-3.3-3.26-3.32h-.46c-1.24-.02-2.32.67-2.89,1.68l.03-2.95c.02-1.82-1.44-3.3-3.26-3.32h-.47c-1.82-.02-3.3,1.44-3.32,3.25v1.31c-.61-.76-1.52-1.27-2.57-1.28h-.47c-1.82-.02-3.3,1.44-3.32,3.25l-.24,25.44-3.75-6.27c-.98-1.64-3.11-2.18-4.75-1.19l-.42.25c-1.64.98-2.18,3.11-1.19,4.75l10.34,17.28c2.41,4.03,6.76,6.49,11.45,6.49h0Z"/><path class="cls-12" d="M73.04,90.04l-26.63,42.33c-2.96,5.09-9.58,6.67-14.52,3.46-5.2-3.38-6.26-10.56-2.25-15.29l33.71-35.72,9.7,5.23Z"/><ellipse cx="79.15" cy="60.63" rx="2.5" ry="1.47"/><rect class="cls-3" x="77.08" y="60.52" width="4.14" height="5.88"/><ellipse class="cls-3" cx="79.15" cy="65.19" rx="3.38" ry="2.99"/><path class="cls-12" d="M73.26,63.1h0c1.39,0,2.52,1.13,2.52,2.52v13.55h-5.04v-13.55c0-1.39,1.13-2.52,2.52-2.52Z" transform="translate(50.39 -28.38) rotate(32.9)"/><path class="cls-12" d="M66.78,76.51l-3.43,8.3,9.7,5.23,10.65-9.11.76-16.7c.06-1.35-1.03-2.47-2.37-2.45h0c-1.17.02-2.14.89-2.29,2.04l-1.41,10.98-6.38,1.18-5.21.53Z"/><path class="cls-5" d="M72.16,68.06l1.98-2.92c.76-1.17,2.32-1.5,3.49-.75h0c1.17.76,1.5,2.32.75,3.49l-.65,1"/><path class="cls-5" d="M84.24,68.69l.2-4.45c.06-1.35-1.03-2.47-2.37-2.45h0c-1.17.02-2.14.89-2.29,2.04l-.65,5.05"/><path class="cls-9" d="M88.33,53.65h-3.42c-1.83,0-3.37-1.35-3.62-3.17l-.34-2.52c-.2-1.49.96-2.82,2.47-2.82h6.35c1.49,0,2.65,1.3,2.48,2.78l-.29,2.5c-.22,1.84-1.77,3.22-3.62,3.22Z"/><path class="cls-9" d="M73.65,53.65h-3.42c-1.83,0-3.37-1.35-3.62-3.17l-.34-2.52c-.2-1.49.96-2.82,2.47-2.82h6.35c1.49,0,2.65,1.3,2.48,2.78l-.29,2.5c-.22,1.84-1.77,3.22-3.62,3.22Z"/><rect class="cls-9" x="70.47" y="45.15" width="17.13" height=".91"/><rect class="cls-9" x="77.06" y="48.72" width="4.49" height=".68"/></svg>