<svg viewBox="0 0 160 160" fill="none" xmlns="http://www.w3.org/2000/svg"><path d="M137.73 77.8105L143.85 61.9705C144.26 60.9305 143.76 59.7605 142.73 59.3405C141.7 58.9305 140.53 59.4305 140.12 60.4705L136.46 70.1005L136.19 69.9905L140.84 57.8705C141.25 56.8305 140.75 55.6605 139.72 55.2405C138.69 54.8305 137.52 55.3305 137.11 56.3705L132.78 67.6705L132.51 67.5605L137.41 54.8205C137.82 53.7805 137.32 52.6105 136.29 52.1905C135.26 51.7805 134.09 52.2805 133.68 53.3205L128.46 66.8805L128.19 66.7705L132.63 55.1805C133.04 54.1405 132.54 52.9705 131.51 52.5505C130.48 52.1405 129.31 52.6405 128.9 53.6805L123.25 68.3705L122.48 62.3305C122.32 61.2305 121.3 60.4605 120.2 60.6205C119.1 60.7805 118.34 61.8105 118.5 62.9105L119.86 73.0305C120.23 75.5805 120.99 78.0505 122.11 80.3705L117.94 90.9005L129.64 95.6005L135.1 81.8205C136.16 80.7705 137.01 79.5205 137.59 78.1405L137.73 77.8005V77.8105Z" fill="#FFD4C2"/><path d="M123.25 68.3804L123.78 70.6904C123.78 70.6904 131.36 70.5004 129.7 77.6804" fill="#FFD4C2"/><path d="M130.01 77.7601L129.39 77.6201C129.85 75.6401 129.62 74.0601 128.71 72.9401C127.09 70.9601 123.83 71.0101 123.8 71.0101H123.54L122.95 68.4501L123.57 68.3101L124.05 70.3701C124.91 70.4001 127.66 70.6301 129.21 72.5301C130.25 73.8101 130.53 75.5701 130.02 77.7601H130.01Z" fill="#F5B091"/><path d="M34.89 91.0601H104.13L101.09 144H35.99L34.89 91.0601Z" fill="#D8CBC5"/><path d="M38.68 128.62L37.34 66.7305H97.97L97.1 128.62H38.68Z" fill="#D8CBC5"/><path d="M51.86 80.3701C51.25 72.2501 44.22 66.1601 36.15 66.7701C28.88 67.3201 23.27 73.1201 22.67 80.2001L16 118.88L17.3 119.22L26.33 121.57L39.58 125.02L45.64 96.7101C48.48 92.3301 52.24 85.4801 51.86 80.3701Z" fill="#D8CBC5"/><path d="M48.81 66.7305H43.31V105.18H48.81V66.7305Z" fill="#891229"/><path d="M74.79 96.9204H43.36C43.42 101.51 39.74 105.27 35.18 105.27L34 144H103.84V128.71L74.79 96.9204Z" fill="#891229"/><path d="M48.82 111.53H79.41C85.3 111.53 90.09 116.31 90.09 122.21V133.9C90.09 138.37 86.46 141.99 82 141.99H56.91C52.44 141.99 48.82 138.36 48.82 133.9V111.53Z" fill="#E73245"/><path d="M74.79 96.9204V128.71H103.84L74.79 96.9204Z" fill="#232144"/><path d="M122.81 78.1201L113.12 96.6201L112.72 93.3901L100.38 116.81L101.97 124.45L103.14 124.22C103.95 125.46 105.12 126.49 106.6 127.11C111.92 129.33 118 126.69 120.05 121.28L133.11 86.8101L122.81 78.1201Z" fill="#FFD4C2"/><path d="M112.07 80.2401C112.01 79.5201 111.92 78.8201 111.76 78.1301V78.1101C110.34 72.0101 105.13 67.2701 98.6 66.7701C90.53 66.1601 83.5 72.2501 82.89 80.3701C82.28 88.4901 92.13 101.01 92.13 101.01C92.13 101.01 93.43 100.32 95.37 99.1501L95.66 125.77L100.39 116.81L112.73 93.3901L113.75 91.4601L112.08 80.2301L112.07 80.2401Z" fill="#D8CBC5"/><path d="M51.94 31.4702H86.3V54.9102C86.3 56.9702 84.63 58.6502 82.56 58.6502H55.67C53.61 58.6502 51.93 56.9802 51.93 54.9102V31.4702H51.94Z" fill="#797878"/><path d="M84.75 49.0604C87.2739 49.0604 89.32 47.0009 89.32 44.4604C89.32 41.9198 87.2739 39.8604 84.75 39.8604C82.2261 39.8604 80.18 41.9198 80.18 44.4604C80.18 47.0009 82.2261 49.0604 84.75 49.0604Z" fill="#FFD4C2"/><path d="M53.76 49.0403C56.2839 49.0403 58.33 46.9808 58.33 44.4403C58.33 41.8998 56.2839 39.8403 53.76 39.8403C51.2361 39.8403 49.19 41.8998 49.19 44.4403C49.19 46.9808 51.2361 49.0403 53.76 49.0403Z" fill="#FFD4C2"/><path d="M57.98 65.9603V51.2303L80.54 50.5703V65.9603C80.54 72.2303 75.49 77.3103 69.26 77.3103C63.03 77.3103 57.98 72.2303 57.98 65.9603Z" fill="#FFC6AD"/><path d="M72.04 16.6602C78.76 16.6602 84.21 22.1502 84.21 28.9102V50.7802C84.21 57.5502 78.76 63.0302 72.04 63.0302H66.48C59.76 63.0302 54.31 57.5402 54.31 50.7802V28.9102C54.31 22.1402 59.76 16.6602 66.48 16.6602" fill="#FFD4C2"/><path d="M69.1 49.1504C68.51 49.1504 67.91 48.8704 67.29 48.3004C66.44 47.5204 65.56 48.3704 65.46 48.4704L65.03 48.0504C65.5 47.5704 66.66 46.9104 67.69 47.8604C68.92 48.9904 69.73 48.5104 70.29 47.9704C70.93 47.3504 72.02 47.0504 73.12 48.1004L72.71 48.5404C71.77 47.6504 71.05 48.0704 70.71 48.4104C70.19 48.9104 69.65 49.1604 69.1 49.1604V49.1504Z" fill="black"/><path d="M67.89 53.4202H63.39C63.42 53.2502 65.86 57.0602 69.53 57.0702C71.86 57.0702 73.02 55.7002 75.14 53.4302H70.68C70.2 53.4302 69.75 53.7202 69.5 54.1902L69.32 54.5402L68.99 54.0402C68.73 53.6502 68.32 53.4102 67.89 53.4102V53.4202Z" fill="#E73245"/><path d="M65.29 43.2103C65.29 43.2103 64.2 40.8603 62.1 40.1203C60 39.3803 57.7 40.5503 57.7 40.5503C57.7 40.5503 58.57 42.3203 60.66 43.0603C62.76 43.7903 65.28 43.2103 65.28 43.2103H65.29Z" fill="white"/><path d="M61.32 43.2503C62.3196 43.2503 63.13 42.431 63.13 41.4203C63.13 40.4096 62.3196 39.5903 61.32 39.5903C60.3204 39.5903 59.51 40.4096 59.51 41.4203C59.51 42.431 60.3204 43.2503 61.32 43.2503Z" fill="black"/><path d="M65.29 43.2101C64.3 39.7701 60.25 38.2101 57.34 39.9801C57.52 40.2701 57.63 40.4801 57.81 40.7601C58.45 40.3701 61.79 39.0101 64.82 42.6701C65 42.8901 65.03 42.9901 65.29 43.2101Z" fill="black"/><path d="M63.55 37.9502H56.54V37.8402C56.54 36.4302 57.69 35.2802 59.1 35.2802H66.11V35.3902C66.11 36.8002 64.96 37.9502 63.55 37.9502Z" fill="#797878"/><path d="M73.38 43.2101C73.38 43.2101 74.47 40.8601 76.57 40.1201C78.67 39.3901 80.97 40.5501 80.97 40.5501C80.97 40.5501 80.1 42.3201 78.01 43.0601C75.91 43.7901 73.39 43.2101 73.39 43.2101H73.38Z" fill="white"/><path d="M77.35 43.2503C78.3496 43.2503 79.16 42.431 79.16 41.4203C79.16 40.4096 78.3496 39.5903 77.35 39.5903C76.3504 39.5903 75.54 40.4096 75.54 41.4203C75.54 42.431 76.3504 43.2503 77.35 43.2503Z" fill="black"/><path d="M73.38 43.2101C74.37 39.7701 78.42 38.2101 81.33 39.9801C81.15 40.2701 81.04 40.4801 80.86 40.7601C80.22 40.3701 76.88 39.0101 73.85 42.6701C73.67 42.8901 73.64 42.9901 73.38 43.2101Z" fill="black"/><path d="M72.56 35.2803H79.57C80.98 35.2803 82.13 36.4303 82.13 37.8403V37.9503H75.12C73.71 37.9503 72.56 36.8003 72.56 35.3903V35.2803Z" fill="#797878"/><path d="M88.08 85.2401L84.17 84.0901L84.2 84.0701L79.82 82.4901C76.73 81.3701 73.28 82.3801 71.26 84.9801L64.72 91.9801L20.7 118.02C19.96 118.46 19.3 118.99 18.73 119.59L17.3 119.22L16.55 123.36C16.34 124.07 16.19 124.8 16.15 125.54V125.58C16.13 125.97 16.13 126.37 16.15 126.77C16.71 134.15 25.19 137.96 31.03 133.44L70.31 103.05L80.32 99.0501C81.8 98.6701 83.12 97.8001 84.07 96.5801L86.76 93.1201C87.33 92.3901 87.39 91.4301 86.99 90.6601C87.06 90.5201 87.12 90.3801 87.17 90.2201C87.23 90.0201 87.25 89.8201 87.25 89.6201C88.2 89.6501 89.11 89.0701 89.44 88.1201C89.85 86.9401 89.24 85.6501 88.06 85.2301L88.08 85.2401Z" fill="#FFD4C2"/><path d="M73.19 16.6401H65.05C57.81 16.6401 51.94 23.9001 51.94 31.1901V45.0401H54.29V38.8001C54.29 34.5601 56.43 30.8401 59.66 28.6601L56.92 23.8701L58.23 23.1101L62.03 29.7401L61.88 29.8301C63.44 32.5201 66.3 34.2101 69.43 34.2101H83.08C83.65 35.6301 83.97 37.1701 83.97 38.8001V45.0401H86.32V31.1901C86.32 23.9001 80.45 16.6401 73.21 16.6401H73.19Z" fill="#797878"/><path d="M87.67 33.7702V29.0802C87.67 21.9702 82 16.1802 74.97 16.0102V15.9902H63.6C56.43 15.9902 50.59 21.8602 50.59 29.0702V33.7602C48.04 34.1202 46.06 36.2902 46.06 38.9402V45.0102C46.06 47.9102 48.41 50.2602 51.31 50.2602H54.29V33.6802H53.33V29.0602C53.33 23.3602 57.93 18.7302 63.58 18.7302H74.65C80.3 18.7302 84.89 23.3702 84.89 29.0602V33.6802H83.93V50.2602H84.67V53.1702C84.67 53.4502 84.45 53.6802 84.17 53.6802H76.13C75.72 52.6702 74.74 51.9502 73.58 51.9502H72.23C70.71 51.9502 69.48 53.1802 69.48 54.7002V54.7202C69.48 56.2402 70.71 57.4702 72.23 57.4702H73.58C74.74 57.4702 75.73 56.7502 76.13 55.7402H84.17C85.58 55.7402 86.73 54.5902 86.73 53.1702V50.2602H86.91C89.81 50.2602 92.16 47.9102 92.16 45.0102V38.9402C92.16 36.2902 90.19 34.1202 87.63 33.7602L87.67 33.7702Z" fill="#232144"/><path d="M83.23 123.8L79.56 125.34L64.18 88.3898L67.85 86.8398L83.23 123.8Z" fill="#ABB8B9"/><path d="M74.89 85.7899L70.43 89.3299L60.01 93.7199L58.25 89.4799L68.66 85.0899L74.3 84.3799L74.89 85.7899Z" fill="#232144"/><path d="M68.85 98.8698C68.66 96.8698 67.14 95.3198 65.26 95.0098L65.67 99.3498L63.48 99.5598L63.07 95.2198C61.28 95.8798 60.08 97.6898 60.27 99.6998C60.43 101.43 61.59 102.82 63.11 103.36H63.08L64.45 117.79L68.16 117.43L66.79 103.01H66.76C68.15 102.18 69.02 100.6 68.86 98.8698H68.85Z" fill="#D8CBC5"/><path d="M88.91 101.06L93.78 127.92L89.38 128.73L84.51 101.86L88.91 101.06Z" fill="#8DA8DC"/><path d="M85.91 97.0498L88.91 101.06L84.51 101.87L85.91 97.0498Z" fill="white"/><path d="M85.91 97.0498L87.59 99.2998L85.13 99.7598L85.91 97.0498Z" fill="#8DA8DC"/><path d="M87.4655 102.9L86.6586 103.046L90.922 126.553L91.7288 126.407L87.4655 102.9Z" fill="black"/><path d="M96.42 97.3L92.88 124.37L88.45 123.78L91.99 96.71L96.42 97.3Z" fill="#222043"/><path d="M94.79 92.5601L96.42 97.3001L91.99 96.7201L94.79 92.5601Z" fill="white"/><path d="M94.79 92.5601L95.7 95.2301L93.22 94.9001L94.79 92.5601Z" fill="#222043"/><path d="M93.6863 98.5115L90.5667 122.207L91.3797 122.314L94.4993 98.6185L93.6863 98.5115Z" fill="#8DA8DC"/><path d="M64.15 134.79H97.58C98.64 134.79 99.49 133.26 99.49 131.37V110.29C99.49 108.4 98.63 106.87 97.58 106.87H64.15C63.09 106.87 62.24 108.4 62.24 110.29V131.37C62.24 133.26 63.1 134.79 64.15 134.79Z" fill="#232144"/><path d="M83.8 90.7398C83.8 89.1161 82.4859 87.7998 80.865 87.7998C79.244 87.7998 77.93 89.1161 77.93 90.7398V108.14C77.93 109.764 79.244 111.08 80.865 111.08C82.4859 111.08 83.8 109.764 83.8 108.14V90.7398Z" fill="#232144"/></svg>