<?xml version="1.0" encoding="UTF-8"?><svg xmlns="http://www.w3.org/2000/svg" version="1.1" viewBox="0 0 160 160"><defs><style>.cls-1 {
        fill: #738ec1;
      }

      .cls-2 {
        fill: #232144;
      }

      .cls-3 {
        fill: #5773a4;
      }

      .cls-4 {
        fill: #ff6200;
      }

      .cls-5 {
        fill: #d0def2;
      }

      .cls-6 {
        fill: #8da8dc;
      }</style></defs><!--Generator: Adobe Illustrator 28.6.0, SVG Export Plug-In . SVG Version: 1.2.0 Build 709)--><g><g id="laptop"><g><path class="cls-2" d="M35.6,36h88.9c2.4,0,4.4,2,4.4,4.4v60.2H31.2v-60.2c0-2.4,2-4.4,4.4-4.4Z"/><polygon class="cls-3" points="144.3 120 15.7 120 31.2 100.5 128.8 100.5 144.3 120"/><polygon class="cls-1" points="26.4 110.4 32.4 102.1 127.6 102.1 133.6 110.4 26.4 110.4"/><polygon class="cls-1" points="58.2 118.4 61.8 111.5 98.3 111.5 101.8 118.4 58.2 118.4"/><path class="cls-6" d="M142.6,124H17.4c-1,0-1.8-.8-1.8-1.8v-2.3h128.7v2.3c0,1-.8,1.8-1.8,1.8Z"/><polygon class="cls-5" points="35.1 40 35.1 92.6 35.2 92.6 35.1 92.6 124.9 92.6 124.9 92.6 124.9 40 35.1 40"/><rect class="cls-4" x="49.1" y="50.8" width="61.8" height="4.6" rx="2.3" ry="2.3"/><rect class="cls-4" x="49.1" y="61.7" width="61.8" height="4.6" rx="2.3" ry="2.3"/><g><path class="cls-4" d="M60.2,74.8c.3-.1.4,0,.5.2l.4,1.2c.1.4,0,.5-.3.5l-2.9.6,2.1,2.4c.1.2.2.3-.1.5l-.8.6c-.2.2-.4.2-.6,0l-1.7-2.7-1.7,2.7c-.1.3-.3.2-.6,0l-.8-.6c-.3-.2-.3-.4-.1-.5l2.1-2.4-2.9-.6c-.3,0-.4-.2-.3-.5l.4-1.2c0-.3.2-.3.5-.2l2.7,1.1-.3-3c0-.3,0-.3.3-.3h1.3c.2,0,.3,0,.3.3l-.2,3,2.7-1.1Z"/><path class="cls-4" d="M71.8,74.8c.3-.1.4,0,.5.2l.4,1.2c.1.4,0,.5-.3.5l-2.9.6,2.1,2.4c.1.2.2.3-.1.5l-.8.6c-.2.2-.4.2-.6,0l-1.7-2.7-1.7,2.7c-.1.3-.3.2-.6,0l-.8-.6c-.3-.2-.3-.4-.1-.5l2.1-2.4-2.9-.6c-.3,0-.4-.2-.3-.5l.4-1.2c0-.3.2-.3.5-.2l2.7,1.1-.3-3c0-.3,0-.3.3-.3h1.3c.2,0,.3,0,.3.3l-.2,3,2.7-1.1Z"/><path class="cls-4" d="M83.4,74.8c.3-.1.4,0,.5.2l.4,1.2c.1.4,0,.5-.3.5l-2.9.6,2.1,2.4c.1.2.2.3-.1.5l-.8.6c-.2.2-.4.2-.6,0l-1.7-2.7-1.7,2.7c-.1.3-.3.2-.6,0l-.8-.6c-.3-.2-.3-.4-.1-.5l2.1-2.4-2.9-.6c-.3,0-.4-.2-.3-.5l.4-1.2c0-.3.2-.3.5-.2l2.7,1.1-.3-3c0-.3,0-.3.3-.3h1.3c.2,0,.3,0,.3.3l-.2,3,2.7-1.1Z"/><path class="cls-4" d="M95,74.8c.3-.1.4,0,.5.2l.4,1.2c.1.4,0,.5-.3.5l-2.9.6,2.1,2.4c.1.2.2.3-.1.5l-.8.6c-.2.2-.4.2-.6,0l-1.7-2.7-1.7,2.7c-.1.3-.3.2-.6,0l-.8-.6c-.3-.2-.3-.4-.1-.5l2.1-2.4-2.9-.6c-.3,0-.4-.2-.3-.5l.4-1.2c0-.3.2-.3.5-.2l2.7,1.1-.3-3c0-.3,0-.3.3-.3h1.3c.2,0,.3,0,.3.3l-.2,3,2.7-1.1Z"/><path class="cls-4" d="M106.6,74.8c.3-.1.4,0,.5.2l.4,1.2c.1.4,0,.5-.3.5l-2.9.6,2.1,2.4c.1.2.2.3-.1.5l-.8.6c-.2.2-.4.2-.6,0l-1.7-2.7-1.7,2.7c-.1.3-.3.2-.6,0l-.8-.6c-.3-.2-.3-.4-.1-.5l2.1-2.4-2.9-.6c-.3,0-.4-.2-.3-.5l.4-1.2c0-.3.2-.3.5-.2l2.7,1.1-.3-3c0-.3,0-.3.3-.3h1.3c.2,0,.3,0,.3.3l-.2,3,2.7-1.1Z"/></g></g></g></g></svg>