<?xml version="1.0" encoding="utf-8"?><!--Generator: Adobe Illustrator 27.8.0, SVG Export Plug-In . SVG Version: 6.00 Build 0)--><svg version="1.1" id="Ebene_1" xmlns="http://www.w3.org/2000/svg" xmlns:xlink="http://www.w3.org/1999/xlink" x="0px" y="0px" viewBox="0 0 160 160" style="enable-background:new 0 0 160 160;" xml:space="preserve"><style type="text/css">.st0{fill:#5D2B1A;}
	.st1{fill:#713A22;}
	.st2{fill:#7D4831;}
	.st3{fill:#FFFFFF;}
	.st4{fill:#010101;}
	.st5{fill:#FFCD94;}
	.st6{fill:#F9EAD6;}
	.st7{fill:#F7931E;}
	.st8{fill:#FBB03B;}
	.st9{fill:#3867C3;}
	.st10{fill:#232144;}
	.st11{fill:#4B7CFE;}
	.st12{fill-rule:evenodd;clip-rule:evenodd;fill:#232144;}
	.st13{fill-rule:evenodd;clip-rule:evenodd;fill:#4B7CFE;}
	.st14{fill:#BF852E;}</style><path class="st0" d="M73.7,88l-9.5,16.9c-1.4,2.5-4.5,3.5-7.2,2.3l0,0c-2.8-1.3-4-4.5-2.7-7.3L64,78.2L73.7,88z"/><path class="st1" d="M105.3,88l9.5,16.9c1.4,2.5,4.5,3.5,7.2,2.3l0,0c2.8-1.3,4-4.5,2.7-7.3L115,78.2L105.3,88z"/><polygon class="st1" points="111.2,75.9 95.8,72.4 95.8,64 81.7,64 81.7,72.5 66.9,75.7 66.9,90.5 111.3,90.5 "/><path class="st2" d="M98.6,56.4c-0.2,0-0.3,0-0.5,0v-6.4c0-4.2-3.4-7.5-7.5-7.5h-3.6c-4.2,0-7.5,3.4-7.5,7.5v6.4c-0.1,0-0.1,0-0.2,0
	c-1.6,0-2.9,1.3-2.9,2.9c0,1.6,1.3,2.9,2.9,2.9c0.1,0,0.1,0,0.2,0v1.1c0,4.2,3.4,7.5,7.5,7.5h3.6c4.2,0,7.5-3.4,7.5-7.5v-1.1
	c0.2,0,0.3,0,0.5,0c1.6,0,2.9-1.3,2.9-2.9C101.4,57.7,100.2,56.4,98.6,56.4z"/><path class="st3" d="M95.8,57.2c-0.1-0.3-0.3-0.5-0.7-0.6c-0.3-0.1-0.6-0.1-1-0.1c-0.2,0-0.4,0-0.6,0.1c-1.2,0.2-2,0.9-1.9,1.5
	c0.1,0.6,1.2,0.9,2.3,0.6c0.2,0,0.3-0.1,0.4-0.1c0.4-0.1,0.8-0.4,1.1-0.6C95.8,57.7,95.9,57.4,95.8,57.2z"/><path class="st4" d="M95.5,56.9c-0.1-0.1-0.2-0.3-0.3-0.3c-0.3-0.1-0.6-0.1-1-0.1c-0.1,0-0.1,0-0.2,0.1c-0.5,0.3-0.7,1-0.4,1.5
	c0.2,0.3,0.5,0.5,0.8,0.5c0.4-0.1,0.8-0.4,1.1-0.6C95.6,57.6,95.7,57.2,95.5,56.9z"/><path class="st3" d="M85.6,57.4c-0.3-0.3-0.8-0.6-1.3-0.7c-0.1,0-0.2-0.1-0.3-0.1c-1.2-0.2-2.2,0-2.3,0.6c-0.1,0.6,0.7,1.3,1.9,1.5
	c0.3,0.1,0.6,0.1,0.8,0.1c0.2,0,0.3,0,0.5,0c0.5-0.1,0.9-0.3,1-0.7C85.9,57.8,85.8,57.6,85.6,57.4z"/><path class="st5" d="M87.2,55.5v-1.3c0-0.6-0.5-1.1-1.1-1.1h-3.7c-0.6,0-1.1,0.5-1.1,1.1v1.3c0,0,0,0,0,0H87.2z"/><path class="st5" d="M96.5,53.1v-1.3c0-0.6-0.5-1.1-1.1-1.1h-3.7c-0.6,0-1.1,0.5-1.1,1.1v1.3c0,0,0,0,0,0H96.5z"/><path class="st4" d="M89,62.1c-0.4,0-0.8-0.2-1.1-0.4c-0.5-0.3-0.8-0.5-1.4,0.1l-0.4-0.4c0.9-0.9,1.6-0.5,2.1-0.2
	c0.3,0.2,0.5,0.3,0.8,0.3c0.3,0,0.5-0.1,0.8-0.3c0.5-0.3,1.1-0.7,2.1,0.2l-0.4,0.4c-0.7-0.6-1-0.4-1.5-0.1
	C89.8,61.9,89.4,62.1,89,62.1z"/><rect x="86.3" y="87" class="st6" width="4.9" height="30.5"/><path class="st7" d="M124.9,102.7l0.4-6.9c0,0-5.2-18.3-12.5-19.6v0l-16.7-3.7l-4.9,8.2v36.8h21.6v-10.6L124.9,102.7z"/><path class="st7" d="M53.2,99.7c0,0,4.1-22.5,11.6-23.5l16.7-3.7l4.8,8.2v36.8H64.8v-10.6l-9.4-1.3L53.2,99.7z"/><polygon class="st8" points="96.1,72.5 91.2,80.7 98.7,87.4 99.6,73.2 "/><polygon class="st8" points="81.5,72.5 86.3,80.7 78.9,87.4 78.1,73.2 "/><path class="st2" d="M126.8,66.5l-14.1,34.4c-1.3,2.8,0.4,6.8,3.9,8.1c3.7,1.4,7.8-0.7,8.8-4.6l7.6-31.5L126.8,66.5z"/><path class="st2" d="M46.5,69.2H34.6c-0.8,0-1.5,0.7-1.5,1.5l0,0c0,0.8,0.7,1.5,1.5,1.5h6.1l6.9,1.4c0,0,0,0,0,0c0,0,0,0.1,0,0.1
	l5.5,30c0.8,3.8,4.7,6.1,8.4,4.9h0c3.5-1.2,5.3-5,4-8.5l-9.4-25.5l0,0l-0.8-2.1L54,66.1c-0.2-0.8-0.9-1.3-1.7-1.2h0
	c-0.8,0.2-1.3,0.9-1.2,1.7l0.4,2L46.5,69.2z"/><path class="st9" d="M50.2,68.7H17.7v-20c0-0.8,0.7-1.5,1.5-1.5h29.6c0.8,0,1.5,0.7,1.5,1.5V68.7z"/><rect x="19.1" y="48.5" class="st10" width="29.7" height="18.7"/><rect x="16.2" y="67.9" class="st11" width="35.6" height="1.6"/><path class="st2" d="M126.1,68.4l2.7-7.2c0.4-1.1,1.4-1.8,2.5-1.9l1.3-0.1l-3.8,10.3L126.1,68.4z"/><polygon class="st2" points="124.9,71.5 127.6,64.2 132.9,62.5 136.7,72 130.5,75.6 "/><path class="st12" d="M135.9,73.7l-7.8-2.9c-0.6-0.2-0.9-0.8-0.6-1.4l6.8-18.1c0.2-0.6,0.8-0.9,1.4-0.6l7.8,2.9
	c0.6,0.2,0.9,0.8,0.6,1.4l-6.8,18.1C137.1,73.6,136.5,73.9,135.9,73.7z"/><path class="st12" d="M136,73.3l-7.7-2.9c-0.4-0.1-0.6-0.6-0.4-1l6.7-18c0.1-0.4,0.6-0.6,1-0.4l7.7,2.9c0.4,0.1,0.6,0.6,0.4,1
	l-6.7,18C136.9,73.2,136.4,73.4,136,73.3z"/><path class="st12" d="M140.6,53.9l-2.9-1.1c-0.5-0.2-0.7-0.7-0.5-1.2v0l1.3,0.5l3.3,1.2v0C141.6,53.8,141,54.1,140.6,53.9z"/><rect x="138" y="52.5" transform="matrix(0.9367 0.3503 -0.3503 0.9367 27.2534 -45.4819)" class="st13" width="2.7" height="0.3"/><path class="st2" d="M137.7,68.5l0.8-0.4c0.7-0.3,1.5,0,1.8,0.7l0,0c0.3,0.7,0,1.5-0.7,1.8l-0.8,0.4c-0.7,0.3-1.5,0-1.8-0.7l0,0
	C136.7,69.6,137,68.8,137.7,68.5z"/><path class="st2" d="M137,64.3c-0.3-0.7,0-1.5,0.7-1.8l3.3-1.4c0.7-0.3,1.5,0,1.8,0.7l0,0c0.3,0.7,0,1.5-0.7,1.8l-3.3,1.4
	C138.1,65.4,137.3,65,137,64.3L137,64.3z"/><path class="st2" d="M130.3,59.5l3.4-1.2c0.7-0.3,1.5,0.1,1.8,0.8v0c0.3,0.7-0.1,1.5-0.8,1.8l-3.4,1.2l-2.7,3.6L130.3,59.5z"/><path class="st2" d="M138.5,60.9c-0.3-0.7,0-1.5,0.7-1.8l2.8-1.2c0.7-0.3,1.5,0,1.8,0.7v0c0.3,0.7,0,1.5-0.7,1.8l-2.8,1.2
	C139.6,61.9,138.8,61.6,138.5,60.9L138.5,60.9z"/><path class="st2" d="M136.9,65.8l2.8-1.2c0.7-0.3,1.5,0,1.8,0.7v0c0.3,0.7,0,1.5-0.7,1.8l-2.8,1.2c-0.7,0.3-1.5,0-1.8-0.7v0
	C135.9,66.9,136.2,66.1,136.9,65.8z"/><rect x="79.2" y="47.6" class="st14" width="1.3" height="8.9"/><rect x="97" y="47.6" class="st14" width="1.3" height="8.9"/><polygon points="90.6,65.3 90.5,64.9 92.9,64.1 93,64.6 "/><path class="st5" d="M82.3,42.5c-1.7,0-3.1,1.4-3.1,3.1v2.8h9c2.4,0,4.3-0.7,5.5-1.4c0.4,1,1.4,1.6,2.5,1.6h2.1v-3.1
	c0-1.7-1.3-3-3-3c0,0,0,0,0,0h0H82.3z"/><circle class="st10" cx="34" cy="47.9" r="0.4"/><path class="st3" d="M83.6,57.1c0.2-0.2,0.4-0.4,0.6-0.5c-0.1,0-0.2-0.1-0.3-0.1c-1.2-0.2-2.2,0-2.3,0.6c-0.1,0.6,0.7,1.3,1.9,1.5
	c0.3,0.1,0.6,0.1,0.8,0.1c-0.1,0-0.3-0.1-0.4-0.1C83.4,58.3,83.3,57.6,83.6,57.1z"/><path class="st3" d="M85.6,57.4c0.1,0.3,0.1,0.6-0.1,0.9c-0.1,0.2-0.4,0.4-0.6,0.5c0.5-0.1,0.9-0.3,1-0.7
	C85.9,57.8,85.8,57.6,85.6,57.4z"/><path class="st4" d="M85.5,58.3c0.2-0.3,0.2-0.6,0.1-0.9c-0.3-0.3-0.8-0.6-1.3-0.7c-0.3,0.1-0.5,0.2-0.6,0.5
	c-0.3,0.5-0.2,1.2,0.4,1.5c0.1,0.1,0.3,0.1,0.4,0.1c0.2,0,0.3,0,0.5,0C85.1,58.6,85.3,58.5,85.5,58.3z"/></svg>