<?xml version="1.0" encoding="UTF-8"?><svg xmlns="http://www.w3.org/2000/svg" viewBox="0 0 160 160"><defs><style>.cls-1{fill:#ff8a00;}.cls-2{fill:#feb200;}.cls-3{fill:#afc1e7;}.cls-4{fill:#fff;}.cls-5{fill:#fb9400;}.cls-6{fill:#ff6100;}</style></defs><g id="Scale"><path class="cls-5" d="M49.65,80.91v4.09c0,1.05-4.87,1.91-10.87,1.91s-10.87-.85-10.87-1.91v-4.09h21.73,0Z"/><ellipse class="cls-2" cx="38.78" cy="80.91" rx="10.87" ry="1.91"/><path class="cls-5" d="M29.43,80.95c0-1.1,5.55-1.51,9.27-1.51s9.27.4,9.27,1.51-5.55,1.51-9.27,1.51-9.27-.4-9.27-1.51ZM32.27,80.13c-2.52.38-2.55.8-2.55.82s.03.45,2.55.82c1.72.26,4,.4,6.44.4s4.72-.14,6.44-.4c2.52-.38,2.55-.8,2.55-.82s-.03-.45-2.55-.82c-1.72-.26-4-.4-6.44-.4s-4.72.14-6.44.4Z"/><path class="cls-5" d="M51.84,75.98v4.09c0,1.05-4.87,1.91-10.87,1.91s-10.87-.85-10.87-1.91v-4.09h21.73,0Z"/><ellipse class="cls-2" cx="40.97" cy="75.98" rx="10.87" ry="1.91"/><path class="cls-5" d="M31.62,76.03c0-1.1,5.55-1.51,9.27-1.51s9.27.4,9.27,1.51-5.55,1.51-9.27,1.51-9.27-.4-9.27-1.51ZM34.46,75.2c-2.52.38-2.55.8-2.55.82s.03.45,2.55.82c1.72.26,4,.4,6.44.4s4.72-.14,6.44-.4c2.52-.38,2.55-.8,2.55-.82s-.03-.45-2.55-.82c-1.72-.26-4-.4-6.44-.4s-4.72.14-6.44.4Z"/><path class="cls-3" d="M64.84,84.1c0,13.48-10.93,24.41-24.41,24.41s-24.41-10.93-24.41-24.41h48.81Z"/><path class="cls-3" d="M64.72,83.7c-2.51-6.66-5.01-13.32-7.52-19.98-3.98-10.57-7.96-21.14-11.93-31.71-.92-2.46-1.85-4.91-2.77-7.37-.72-1.91-3.16-1.9-3.88,0-2.53,6.65-5.06,13.3-7.59,19.95-4.01,10.55-8.03,21.11-12.04,31.66-.93,2.45-1.87,4.91-2.8,7.36s2.97,3.47,3.88,1.07c2.53-6.65,5.06-13.3,7.59-19.95,4.01-10.55,8.03-21.11,12.04-31.66.93-2.45,1.87-4.91,2.8-7.36h-3.88c2.51,6.66,5.01,13.32,7.52,19.98,3.98,10.57,7.96,21.14,11.93,31.71.92,2.46,1.85,4.91,2.77,7.37s4.8,1.36,3.88-1.07h0Z"/><path class="cls-3" d="M143.74,99.45c-2.51-6.66-5.01-13.32-7.52-19.98-3.98-10.57-7.96-21.14-11.93-31.71-.92-2.46-1.85-4.91-2.77-7.37-.72-1.91-3.16-1.9-3.88,0-2.53,6.65-5.06,13.3-7.59,19.95-4.01,10.55-8.03,21.11-12.04,31.66-.93,2.45-1.87,4.91-2.8,7.36-.92,2.42,2.97,3.47,3.88,1.07,2.53-6.65,5.06-13.3,7.59-19.95l12.04-31.66c.93-2.45,1.87-4.91,2.8-7.36h-3.88c2.51,6.66,5.01,13.32,7.52,19.98,3.98,10.57,7.96,21.14,11.93,31.71.92,2.46,1.85,4.91,2.77,7.37s4.8,1.36,3.88-1.07h0Z"/><path class="cls-3" d="M82.62,140.47v-74.55c0-9.93,0-19.86,0-29.79,0-4.8.22-9.64,0-14.44,0-.07,0-.14,0-.21,0-2.83-5.23-2.83-5.23,0v104.34c0,4.8-.22,9.64,0,14.44,0,.07,0,.14,0,.21,0,2.83,5.23,2.83,5.23,0h0Z"/><path class="cls-3" d="M60.92,135.15h38.32c4.5,0,8.16,3.66,8.16,8.16h-54.64c0-4.5,3.66-8.16,8.16-8.16Z"/><path class="cls-1" d="M143.08,99.14v4.09c0,1.05-4.87,1.91-10.87,1.91s-10.87-.85-10.87-1.91v-4.09h21.73,0Z"/><ellipse class="cls-2" cx="132.21" cy="99.14" rx="10.87" ry="1.91"/><path class="cls-1" d="M122.86,99.18c0-1.1,5.55-1.51,9.27-1.51s9.27.4,9.27,1.51-5.55,1.51-9.27,1.51-9.27-.4-9.27-1.51ZM125.7,98.36c-2.52.38-2.55.8-2.55.82s.03.45,2.55.82c1.72.26,4,.4,6.44.4s4.72-.14,6.44-.4c2.52-.38,2.55-.8,2.55-.82s-.03-.45-2.55-.82c-1.72-.26-4-.4-6.44-.4s-4.72.14-6.44.4Z"/><path class="cls-5" d="M140.75,94.23v4.09c0,1.05-4.87,1.91-10.87,1.91s-10.87-.85-10.87-1.91v-4.09h21.73,0Z"/><ellipse class="cls-2" cx="129.89" cy="94.23" rx="10.87" ry="1.91"/><path class="cls-5" d="M120.54,94.27c0-1.1,5.55-1.51,9.27-1.51s9.27.4,9.27,1.51-5.55,1.51-9.27,1.51-9.27-.4-9.27-1.51ZM123.38,93.45c-2.52.38-2.55.8-2.55.82s.03.45,2.55.82c1.72.26,4,.4,6.44.4s4.72-.14,6.44-.4c2.52-.38,2.55-.8,2.55-.82s-.03-.45-2.55-.82c-1.72-.26-4-.4-6.44-.4s-4.72.14-6.44.4Z"/><path class="cls-5" d="M142.94,89.31v4.09c0,1.05-4.87,1.91-10.87,1.91s-10.87-.85-10.87-1.91v-4.09h21.73,0Z"/><ellipse class="cls-2" cx="132.07" cy="89.31" rx="10.87" ry="1.91"/><path class="cls-5" d="M122.72,89.35c0-1.1,5.55-1.51,9.27-1.51s9.27.4,9.27,1.51-5.55,1.51-9.27,1.51-9.27-.4-9.27-1.51ZM125.56,88.53c-2.52.38-2.55.8-2.55.82s.03.45,2.55.82c1.72.26,4,.4,6.44.4s4.72-.14,6.44-.4c2.52-.38,2.55-.8,2.55-.82s-.03-.45-2.55-.82c-1.72-.26-4-.4-6.44-.4s-4.72.14-6.44.4Z"/><path class="cls-5" d="M117.83,95.96v4.09c0,1.05-4.87,1.91-10.87,1.91s-10.87-.85-10.87-1.91v-4.09h21.73,0Z"/><ellipse class="cls-2" cx="106.97" cy="95.96" rx="10.87" ry="1.91"/><path class="cls-5" d="M97.62,96c0-1.1,5.55-1.51,9.27-1.51s9.27.4,9.27,1.51-5.55,1.51-9.27,1.51-9.27-.4-9.27-1.51ZM100.45,95.18c-2.52.38-2.55.8-2.55.82s.03.45,2.55.82c1.72.26,4,.4,6.44.4s4.72-.14,6.44-.4c2.52-.38,2.55-.8,2.55-.82s-.03-.45-2.55-.82c-1.72-.26-4-.4-6.44-.4s-4.72.14-6.44.4Z"/><path class="cls-5" d="M116.44,91.02v4.09c0,1.05-4.87,1.91-10.87,1.91s-10.87-.85-10.87-1.91v-4.09h21.73,0Z"/><ellipse class="cls-2" cx="105.58" cy="91.02" rx="10.87" ry="1.91"/><path class="cls-5" d="M96.23,91.06c0-1.1,5.55-1.51,9.27-1.51s9.27.4,9.27,1.51-5.55,1.51-9.27,1.51-9.27-.4-9.27-1.51ZM99.07,90.24c-2.52.38-2.55.8-2.55.82s.03.45,2.55.82c1.72.26,4,.4,6.44.4s4.72-.14,6.44-.4c2.52-.38,2.55-.8,2.55-.82s-.03-.45-2.55-.82c-1.72-.26-4-.4-6.44-.4s-4.72.14-6.44.4Z"/><path class="cls-5" d="M119.22,86.6v4.09c0,1.05-4.87,1.91-10.87,1.91s-10.87-.85-10.87-1.91v-4.09h21.73,0Z"/><ellipse class="cls-2" cx="108.35" cy="86.6" rx="10.87" ry="1.91"/><path class="cls-5" d="M99,86.65c0-1.1,5.55-1.51,9.27-1.51s9.27.4,9.27,1.51-5.55,1.51-9.27,1.51-9.27-.4-9.27-1.51ZM101.84,85.83c-2.52.38-2.55.8-2.55.82s.03.45,2.55.82c1.72.26,4,.4,6.44.4s4.72-.14,6.44-.4c2.52-.38,2.55-.8,2.55-.82s-.03-.45-2.55-.82c-1.72-.26-4-.4-6.44-.4s-4.72.14-6.44.4Z"/><path class="cls-5" d="M118.08,81.58v4.09c0,1.05-4.87,1.91-10.87,1.91s-10.87-.85-10.87-1.91v-4.09h21.73,0Z"/><ellipse class="cls-2" cx="107.21" cy="81.58" rx="10.87" ry="1.91"/><path class="cls-5" d="M97.86,81.62c0-1.1,5.55-1.51,9.27-1.51s9.27.4,9.27,1.51-5.55,1.51-9.27,1.51-9.27-.4-9.27-1.51h0ZM100.7,80.8c-2.52.38-2.55.8-2.55.82s.03.45,2.55.82c1.72.26,4,.4,6.44.4s4.72-.14,6.44-.4c2.52-.38,2.55-.8,2.55-.82s-.03-.45-2.55-.82c-1.72-.26-4-.4-6.44-.4s-4.72.14-6.44.4Z"/><path class="cls-3" d="M143.85,99.86c0,13.48-10.93,24.41-24.41,24.41s-24.41-10.93-24.41-24.41h48.81Z"/><rect class="cls-3" x="77.38" y="-33.61" width="5.24" height="130.84" rx="2.62" ry="2.62" transform="translate(128.31 -39.45) rotate(102.45)"/></g><g id="Card"><path class="cls-6" d="M104.19,38.57c0-1.74.55-3.28,1.38-4.25l.02-16.16c0-1.39-1.12-2.52-2.51-2.52l-46.12-.06c-1.39,0-2.52,1.12-2.52,2.51l-.04,27.35c0,1.39,1.12,2.52,2.51,2.52l46.12.06c1.39,0,2.52-1.12,2.52-2.51v-2.68c-.83-.97-1.37-2.52-1.37-4.27Z"/><path class="cls-4" d="M62.12,27.99h-2.7s0,1.13,0,1.13c0,.37.22.68.49.68h2.21s0-1.81,0-1.81Z"/><path class="cls-4" d="M67.08,28h-2.66s0,1.81,0,1.81h2.17c.27,0,.48-.3.48-.68v-1.13Z"/><rect class="cls-4" x="65.27" y="26.01" width="1.43" height="2.19" transform="translate(38.72 93.02) rotate(-89.86)"/><rect class="cls-4" x="59.8" y="25.99" width="1.43" height="2.19" transform="translate(33.27 87.54) rotate(-89.86)"/><rect class="cls-4" x="62.91" y="23.76" width=".74" height="1.95" transform="translate(38.39 87.95) rotate(-89.86)"/><rect class="cls-4" x="62.91" y="28.48" width=".71" height="1.95" transform="translate(33.65 92.65) rotate(-89.86)"/><path class="cls-4" d="M64.43,26.2h2.65s0-1.16,0-1.16c0-.37-.22-.68-.48-.68h-2.17s0,1.84,0,1.84Z"/><path class="cls-4" d="M62.13,24.36h-2.22c-.27,0-.49.3-.49.68v1.16s2.7,0,2.7,0v-1.84Z"/><polygon class="cls-4" points="61.77 29.01 61.77 25.18 64.73 25.19 64.73 29.02 61.77 29.01"/><path class="cls-6" d="M61.61,29.1v-4s3.27,0,3.27,0v4s-3.27,0-3.27,0ZM61.81,25.27v3.66s2.88,0,2.88,0v-3.66s-2.88,0-2.88,0Z"/><path class="cls-4" d="M69.25,28.49s-.09-.02-.13-.05c-.07-.07-.07-.19,0-.26.58-.58.58-1.52,0-2.1-.07-.07-.07-.19,0-.26.07-.07.19-.07.26,0,.72.73.72,1.91,0,2.63-.04.04-.08.05-.13.05Z"/><path class="cls-4" d="M70.03,28.82s-.09-.02-.13-.05c-.07-.07-.07-.19,0-.26.76-.76.77-2,0-2.76-.07-.07-.07-.19,0-.26.07-.07.19-.07.26,0,.9.91.9,2.38,0,3.29-.04.04-.08.05-.13.05Z"/><path class="cls-4" d="M70.82,29.16s-.09-.02-.13-.05c-.07-.07-.07-.19,0-.26.46-.46.71-1.07.71-1.71s-.25-1.26-.71-1.72c-.07-.07-.07-.19,0-.26.07-.07.19-.07.26,0,.53.53.82,1.23.81,1.98s-.29,1.45-.82,1.98c-.04.04-.08.05-.13.05Z"/><path class="cls-4" d="M71.69,29.46s-.09-.02-.13-.05c-.07-.07-.07-.19,0-.26,1.04-1.04,1.05-3.01.01-4.05-.07-.07-.07-.19,0-.26.07-.07.19-.07.26,0,1.17,1.18,1.17,3.4-.01,4.58-.04.04-.08.05-.13.05Z"/></g></svg>