<svg viewBox="0 0 160 160" fill="none" xmlns="http://www.w3.org/2000/svg"><path d="M39.89 143.98L51.13 108.297L20.39 105.209L16.12 144L39.89 143.98Z" fill="#FFA28F"/><path d="M16 107.472C16 107.472 26.05 83.083 40.06 83.083C49.66 83.083 57.98 89.57 58.7 99.1848C59.42 108.8 39.1 125.837 39.1 125.837L15.99 107.462L16 107.472Z" fill="#E73245"/><path d="M39.56 143.98L37.53 83.3538C37.53 83.3538 72.15 72.874 83.41 72.874C93.67 72.874 133 84 133 84L127.25 143.98H39.56Z" fill="#E73245"/><path d="M74.9 16H91.73C97.93 16 102.97 21.0689 102.97 27.3045V51.6533H63.67V27.3045C63.67 21.0689 68.71 16 74.91 16H74.9Z" fill="#8B181D"/><path d="M64.86 51.9443C67.9528 51.9443 70.46 49.4272 70.46 46.3223C70.46 43.2173 67.9528 40.7002 64.86 40.7002C61.7672 40.7002 59.26 43.2173 59.26 46.3223C59.26 49.4272 61.7672 51.9443 64.86 51.9443Z" fill="#FFA28F"/><path d="M101.76 51.9443C104.853 51.9443 107.36 49.4272 107.36 46.3223C107.36 43.2173 104.853 40.7002 101.76 40.7002C98.6672 40.7002 96.16 43.2173 96.16 46.3223C96.16 49.4272 98.6672 51.9443 101.76 51.9443Z" fill="#FFA28F"/><path d="M97.14 82.6004V60.9066L69.48 60.8262V82.6004C69.48 88.2425 74.04 92.8287 79.66 92.8287H86.96C92.58 92.8287 97.14 88.2526 97.14 82.6004Z" fill="#F5836D"/><path d="M86.59 17.8604H80.03C71.6187 17.8604 64.8 24.7182 64.8 33.1777V58.1702C64.8 66.6298 71.6187 73.4876 80.03 73.4876H86.59C95.0013 73.4876 101.82 66.6298 101.82 58.1702V33.1777C101.82 24.7182 95.0013 17.8604 86.59 17.8604Z" fill="#FFA28F"/><path d="M82.82 51.0699C81.96 51.0699 81.27 50.6374 80.67 50.2653C79.68 49.6417 79.08 49.2696 77.89 50.4664L77.11 49.682C78.92 47.8616 80.21 48.6762 81.25 49.3299C81.77 49.6618 82.27 49.9736 82.82 49.9736C83.37 49.9736 83.85 49.682 84.34 49.3802C85.33 48.7768 86.55 48.0225 88.58 49.7121L87.88 50.5569C86.45 49.3702 85.84 49.7423 84.91 50.3156C84.34 50.6676 83.69 51.0699 82.81 51.0699H82.82Z" fill="#010101"/><path d="M70.42 31.9805H78.72V34.525C78.72 34.525 78.72 34.535 78.71 34.535H70.41C69.71 34.535 69.15 33.9618 69.15 33.2678C69.15 32.5638 69.72 31.9805 70.43 31.9805H70.42Z" fill="#8B181D"/><path d="M88.62 31.9805H96.92V34.525C96.92 34.525 96.92 34.535 96.91 34.535H88.61C87.91 34.535 87.35 33.9618 87.35 33.2678C87.35 32.5638 87.92 31.9805 88.63 31.9805H88.62Z" fill="#8B181D"/><path d="M76.64 54.46H92.14V58.8953H76.64C75.45 58.8953 74.49 57.9297 74.49 56.7329V56.6223C74.49 55.4255 75.45 54.46 76.64 54.46Z" fill="#8B181D"/><path d="M66.8 24.4375V48.6657H63.66V27.5955C63.66 25.8556 65.06 24.4476 66.79 24.4476L66.8 24.4375Z" fill="#8B181D"/><path d="M100.15 24.4375C101.68 24.4375 102.93 25.6947 102.93 27.2334V48.6657H99.79V24.7996C99.79 24.5984 99.95 24.4375 100.15 24.4375Z" fill="#8B181D"/><path d="M81.4599 32.5234L81.9799 33.4185L82.4899 34.3136H81.4599H80.4299L80.9499 33.4185L81.4599 32.5234Z" fill="#8B181D"/><path d="M83.28 32.5234L83.79 33.4185L84.31 34.3136H83.28H82.25L82.76 33.4185L83.28 32.5234Z" fill="#8B181D"/><path d="M85.17 32.5234L85.68 33.4185L86.2 34.3136H85.17H84.14L84.66 33.4185L85.17 32.5234Z" fill="#8B181D"/><path d="M68.8 63.6318H97.83V78.8989C97.83 84.3601 93.43 88.7853 88 88.7853H78.63C73.2 88.7853 68.8 84.3601 68.8 78.8989V63.6318Z" fill="#8B181D"/><path d="M91.38 59.7188H88.13V60.7647H91.38V59.7188Z" fill="black"/><path d="M96.6999 41.7867C96.3299 40.6502 94.45 40.2278 92.31 40.7005C92.38 40.8111 92.46 40.9117 92.51 41.0424C93.09 42.2694 92.57 43.7378 91.35 44.3211C90.13 44.9044 88.6699 44.3815 88.0899 43.1545C88.0899 43.1444 88.09 43.1343 88.08 43.1243C87.67 43.6875 87.49 44.2608 87.66 44.7737C88.08 46.061 90.45 46.4432 92.94 45.6185C95.44 44.7938 97.1199 43.0841 96.6999 41.7967V41.7867Z" fill="white"/><path d="M91.35 44.3111C92.57 43.7278 93.09 42.2594 92.51 41.0324C92.45 40.9117 92.38 40.8011 92.31 40.6904C92.02 40.7508 91.72 40.8312 91.42 40.9318C89.91 41.4246 88.71 42.2493 88.08 43.1042C88.08 43.1143 88.08 43.1243 88.09 43.1344C88.67 44.3614 90.13 44.8843 91.35 44.301V44.3111Z" fill="black"/><path d="M74.74 40.9422C74.55 40.8818 74.36 40.8315 74.17 40.7812C74.43 41.4048 74.45 42.1289 74.14 42.7927C73.56 44.0197 72.1 44.5427 70.88 43.9594C70 43.537 69.49 42.6519 69.49 41.7266C69.49 41.7468 69.47 41.7568 69.46 41.7769C69.04 43.0643 70.72 44.774 73.22 45.5987C75.72 46.4234 78.08 46.0412 78.5 44.7539C78.92 43.4666 77.24 41.7568 74.74 40.9321V40.9422Z" fill="white"/><path d="M70.88 43.9698C72.1 44.5531 73.56 44.0301 74.14 42.8031C74.45 42.1393 74.44 41.4152 74.17 40.7916C71.93 40.2083 69.92 40.5905 69.49 41.737C69.49 42.6623 70 43.5473 70.88 43.9698Z" fill="black"/><path d="M97.83 43.9492H67.88V47.1475H97.83V43.9492Z" fill="#FFA28F"/><path d="M113.61 93.0601L101.04 118.36L85.03 93.8301L85.21 93.4501C86.56 90.6801 86.5 87.4701 85.12 84.7601L90.03 69.2201C90.55 67.5701 89.64 65.8101 87.99 65.2901C86.34 64.7701 84.58 65.6801 84.06 67.3301L80.72 77.8901L77 72.1801L66.48 56.7701C65.68 55.5901 64.06 55.2801 62.88 56.0801C61.69 56.8801 61.39 58.4901 62.19 59.6701L68.72 69.2401L68.32 68.6901C67.34 67.3501 65.45 67.0701 64.13 68.0801C62.84 69.0601 62.57 70.8901 63.52 72.2001L64.15 73.0601C63.11 72.1801 61.57 72.0901 60.44 72.9501C59.16 73.9201 58.88 75.7201 59.81 77.0301L60.03 77.3401C59.55 77.3801 59.08 77.5301 58.66 77.8201L58.34 78.0501C57.09 78.9301 56.78 80.6601 57.67 81.9101L59.33 84.2601L59.29 84.2901L65.41 93.4601L65.37 93.4801L85.19 133.26L90.3 144.02H113.04L114.62 141.63L134.25 113.86L113.63 93.0801L113.61 93.0601Z" fill="#FFA28F"/><path d="M144 99.3699C144 90.4199 136.74 83.1699 127.78 83.1699C126.37 83.1699 125.01 83.3699 123.7 83.7099C122.77 83.5399 121.82 83.5599 120.84 83.8399C111.61 86.4699 102.71 111.36 102.71 111.36L127.71 126.61L140.67 109.23C140.67 109.23 140.67 109.21 140.66 109.2C142.75 106.47 144.01 103.07 144.01 99.3599L144 99.3699Z" fill="#E73245"/></svg>