<svg viewBox="0 0 160 160" fill="none" xmlns="http://www.w3.org/2000/svg"><path fill-rule="evenodd" clip-rule="evenodd" d="M137.548 72.958C136.246 72.779 134.981 71.9594 133.905 70.557C132.412 68.6135 132.532 66.9335 133.142 66.0095C133.491 65.4823 134.007 65.1869 134.548 65.1869C134.668 65.1869 134.79 65.2018 134.911 65.2317C135.424 65.358 137.128 66.1139 137.542 70.5072C137.626 71.4054 137.628 72.223 137.548 72.958ZM138.451 59.9521L138.085 60.9229C139.756 61.5456 142.608 63.2016 142.943 67.2976C143.128 69.5802 141.676 71.9107 139.564 72.7173C139.243 72.8397 138.919 72.9212 138.593 72.963C138.67 72.1862 138.665 71.3348 138.579 70.4108C138.114 65.4764 136.036 64.4419 135.163 64.2261C134.057 63.9536 132.948 64.4161 132.272 65.4406C131.465 66.661 131.253 68.8114 133.077 71.1866C134.326 72.8138 135.814 73.7687 137.367 73.9895C137.096 75.0766 136.597 75.93 135.872 76.5427C133.669 78.4027 130.025 77.4807 129.987 77.4717L129.721 78.4733C129.805 78.4952 130.804 78.7498 132.111 78.7498C133.485 78.7498 135.198 78.4683 136.542 77.3354C137.49 76.5367 138.12 75.4287 138.428 74.0263C138.93 73.9885 139.435 73.8761 139.937 73.6841C142.465 72.7193 144.203 69.9373 143.981 67.214C143.6 62.5482 140.353 60.6613 138.451 59.9521Z" fill="#891229"/><path fill-rule="evenodd" clip-rule="evenodd" d="M94.8348 134L100.295 108.527H112.509L107.049 134H94.8348Z" fill="#891229"/><path fill-rule="evenodd" clip-rule="evenodd" d="M83.6615 46.6099L64.9305 27.9793C62.8275 25.8876 59.2335 27.3686 59.2335 30.3257V46.6099H83.6615Z" fill="#891229"/><path fill-rule="evenodd" clip-rule="evenodd" d="M54.4432 134L59.9032 108.527H72.1172L66.6572 134H54.4432Z" fill="#891229"/><path fill-rule="evenodd" clip-rule="evenodd" d="M16 75.7276V66.3223H29.396V89.0517C21.998 89.0517 16 83.0859 16 75.7276Z" fill="#ED1E79"/><path fill-rule="evenodd" clip-rule="evenodd" d="M130.272 79.5831C130.272 56.5632 106.606 37.9028 77.4116 37.9028C72.7936 37.9028 68.3146 38.3703 64.0456 39.2475L52.7306 27.9942C50.6236 25.8975 47.0196 27.3825 47.0196 30.3475V45.4789C33.4316 53.0223 24.5526 65.4841 24.5526 79.5831C24.5526 93.6155 33.3466 106.029 46.8266 113.582L42.4496 134H54.6636L58.0146 118.368C64.0206 120.237 70.5636 121.263 77.4116 121.263C80.2256 121.263 82.9866 121.088 85.6806 120.755L82.8416 134H95.0556L98.5276 117.802C117.211 111.375 130.272 96.6829 130.272 79.5831Z" fill="#ED1E79"/><path fill-rule="evenodd" clip-rule="evenodd" d="M68.9957 42.7505C68.9957 41.4286 70.0727 40.3574 71.4017 40.3574H85.8957C87.2247 40.3574 88.3017 41.4286 88.3017 42.7505C88.3017 44.0724 87.2247 45.1436 85.8957 45.1436H71.4017C70.0727 45.1436 68.9957 44.0724 68.9957 42.7505Z" fill="#891229"/><path fill-rule="evenodd" clip-rule="evenodd" d="M39.8883 63.5686C39.8883 62.0488 41.1273 60.8164 42.6553 60.8164C44.1843 60.8164 45.4233 62.0488 45.4233 63.5686C45.4233 65.0884 44.1843 66.3207 42.6553 66.3207C41.1273 66.3207 39.8883 65.0884 39.8883 63.5686Z" fill="#891229"/><path fill-rule="evenodd" clip-rule="evenodd" d="M39.3345 56.0011L48.3645 56.2587C48.3645 56.2587 46.4435 53.7174 44.1935 53.7174C41.0055 53.5006 39.3345 56.0011 39.3345 56.0011Z" fill="#891229"/></svg>