<?xml version="1.0" encoding="UTF-8"?><svg xmlns="http://www.w3.org/2000/svg" viewBox="0 0 160 160"><defs><style>.cls-1{fill:#271a4d;}.cls-2{fill:#4873ad;}.cls-3{fill:#e0efff;}.cls-4{fill:#ff0076;}.cls-5{fill:#ffa234;}.cls-6{fill:#dfcac1;}.cls-7{fill:#a6c0f0;}.cls-8{fill:#ff8d00;}.cls-9{fill:#7ea5eb;}.cls-10{fill:#c8ddfa;}</style></defs><g id="chart"><path class="cls-10" d="M144.01,123.74s0-.07.01-.11V16.41H16.48v127.72h127.52v-20.39Z"/><rect class="cls-3" x="19.39" y="18.87" width="121.76" height="122.82"/><rect class="cls-7" x="30.53" y="106.87" width="24.18" height="26.88"/><rect class="cls-9" x="54.71" y="85.26" width="24.18" height="48.49"/><rect class="cls-2" x="78.89" y="63.5" width="24.18" height="70.25"/><polygon class="cls-10" points="113.46 134.73 29.54 134.73 29.54 39.19 31.51 39.19 31.51 132.76 113.46 132.76 113.46 134.73"/><polygon class="cls-4" points="108.55 23.73 92.21 43.45 79.97 38.04 63.05 64.87 51.2 59.86 35.8 88.02 38.4 89.45 52.52 63.64 64.21 68.58 81.11 41.79 93.06 47.07 110.83 25.62 108.55 23.73"/></g><g id="hand"><path class="cls-8" d="M108.59,91.2c-1.61.43-2.94,1.69-3.39,3.42l-2.83,10.99c-.46,1.77.61,3.57,2.38,4.03l.12.03c1.21.31,2.44-.1,3.23-.96l-1.72,6.66c-.44,1.69.58,3.42,2.28,3.86l.38.1c1.7.44,3.42-.58,3.86-2.28l2.34-9.09.53,1.34-3.33,12.91c-.44,1.69.58,3.42,2.28,3.86l.38.1c1.7.44,3.42-.58,3.86-2.28l1.96-7.62"/><path class="cls-5" d="M144.01,127.94l-2.22-4.97-9.36-21.61-20.81-10.14c-.43-.11-1.2.21-2.36.65l-.81.3.79,1.09,21.06,43.55,2.08,7.33h11.62v-16.2Z"/><rect class="cls-6" x="97.14" y="36.04" width="4.97" height="62.21" rx="2.49" ry="2.49" transform="translate(-16.87 37.79) rotate(-19.84)"/><path class="cls-1" d="M110.37,90.93h9.4v35.68c0,1.04-.85,1.89-1.89,1.89h-5.61c-1.04,0-1.89-.85-1.89-1.89v-35.68h0Z" transform="translate(-30.4 45.56) rotate(-19.84)"/><path class="cls-5" d="M129.15,120.43l-9.09-10.73c.34.97-.82,1.38-1.18.74h0s-6.6-9.08-6.6-9.08c-1.23-1.69-3.45-2.18-4.95-1.08h0c-1.5,1.09-1.73,3.34-.51,5.04l14.18,19.62c3.14,4.34,6.14,4.03,11.02,3.63l-4.83-6.65,1.95-1.48Z"/></g></svg>