<?xml version="1.0" encoding="UTF-8"?><svg xmlns="http://www.w3.org/2000/svg" viewBox="0 0 160 160"><defs><style>.cls-1{fill:#e6e3d9;}.cls-2{fill:#224274;}.cls-3{fill:#fdb128;}.cls-4{fill:#aacde5;}.cls-5{fill:#f99400;}.cls-6{fill:#d9cbc4;}.cls-7{fill:#e4efff;}.cls-8{fill:#ac654d;}</style></defs><g id="Jar"><path class="cls-1" d="M114.1,76.01l-4.62-5.52h0v-8.59h-50.41v8.59l-4.58,5.54c-2.33,2.82-3.6,6.36-3.6,10.01v51.82c0,3.7,3,6.7,6.7,6.7h53.49c3.7,0,6.7-3,6.7-6.7v-51.77c0-3.69-1.3-7.26-3.66-10.09Z"/><path class="cls-6" d="M59.05,65.28h50.41c.96,0,.96-1.49,0-1.49h-50.41c-.96,0-.96,1.49,0,1.49h0Z"/><path class="cls-6" d="M59.05,68.39h50.41c.96,0,.96-1.49,0-1.49h-50.41c-.96,0-.96,1.49,0,1.49h0Z"/></g><g id="Money"><rect class="cls-4" x="56.9" y="84.15" width="23.34" height="47.14" transform="translate(-11.09 7.92) rotate(-6.12)"/><rect class="cls-7" x="54.91" y="83.19" width="23.34" height="11.96" transform="translate(-9.12 7.6) rotate(-6.12)"/><path class="cls-2" d="M57.31,89.69c0,.06-.02.08-.07.09l-.39.04c-.05,0-.08-.01-.09-.07l-.23-2.17c0-.07.01-.1.07-.1l.25-.03c1.22-.13,1.88,1.43,2.66,1.34.33-.04.48-.28.44-.61-.03-.28-.17-.53-.34-.74-.04-.05-.04-.09.01-.13l.25-.19c.06-.04.09-.03.15.04.23.24.42.63.46,1.01.04.42-.03.73-.22.96-.16.18-.39.3-.69.34-.95.1-1.75-1.38-2.46-1.37l.17,1.6Z"/><path class="cls-2" d="M58.67,90.3c1.32-.14,2.09.29,2.18,1.16.09.8-.48,1.36-1.75,1.49-1.31.14-2.09-.29-2.18-1.16-.09-.81.49-1.36,1.75-1.49ZM59,92.29c.93-.1,1.35-.36,1.31-.79-.05-.46-.6-.63-1.53-.53-.93.1-1.36.36-1.31.79.05.46.6.63,1.54.53Z"/><path class="cls-2" d="M73.94,122.81c.01.09-.03.13-.12.14l-.64.07c-.09,0-.13-.02-.14-.12l-.38-3.53c-.01-.12.02-.16.12-.17l.41-.04c1.98-.21,3.07,2.32,4.33,2.19.54-.06.78-.46.72-.99-.05-.46-.28-.86-.55-1.21-.06-.08-.06-.15.02-.21l.41-.31c.1-.07.15-.04.25.06.38.4.68,1.03.74,1.64.07.68-.06,1.19-.36,1.56-.26.3-.63.49-1.12.55-1.55.17-2.85-2.25-4-2.23l.28,2.61Z"/><path class="cls-2" d="M76.16,123.81c2.15-.23,3.4.47,3.55,1.89.14,1.31-.77,2.21-2.84,2.43-2.14.23-3.4-.46-3.55-1.89-.14-1.31.79-2.21,2.84-2.43ZM76.7,127.05c1.51-.16,2.2-.59,2.13-1.29-.08-.75-.97-1.03-2.49-.87-1.51.16-2.21.59-2.14,1.29.08.75.98,1.03,2.5.87Z"/><ellipse class="cls-5" cx="62.6" cy="131.72" rx="7.13" ry="7.12"/><ellipse class="cls-3" cx="62.6" cy="131.72" rx="5.91" ry="5.91"/><ellipse class="cls-5" cx="75.65" cy="123.59" rx="7.13" ry="7.12"/><ellipse class="cls-3" cx="75.65" cy="123.59" rx="5.91" ry="5.91"/><ellipse class="cls-5" cx="106.37" cy="111.64" rx="7.13" ry="7.12"/><ellipse class="cls-3" cx="106.37" cy="111.64" rx="5.91" ry="5.91"/><ellipse class="cls-5" cx="93.35" cy="130.29" rx="7.13" ry="7.12"/><ellipse class="cls-3" cx="93.35" cy="130.29" rx="5.91" ry="5.91"/><rect class="cls-3" x="71.5" y="133.67" width="15.69" height="2.01" transform="translate(36.63 -15.69) rotate(14.65)"/><rect class="cls-5" x="80.06" y="134.77" width="6.99" height="2.01" transform="translate(37.05 -16.72) rotate(14.65)"/><rect class="cls-3" x="97.08" y="128.59" width="15.69" height="2.01" transform="translate(192.38 -12.38) rotate(70.63)"/><rect class="cls-5" x="102.87" y="132.69" width="6.99" height="2.01" transform="translate(197.21 -11) rotate(70.63)"/><rect class="cls-3" x="82.89" y="117.76" width="15.69" height="2.01" transform="translate(234.32 160.22) rotate(143.48)"/><rect class="cls-5" x="83.74" y="120.35" width="6.99" height="2.01" transform="translate(229.56 166.96) rotate(143.48)"/></g><g id="Label"><path class="cls-8" d="M112.3,24.19l-42.25.23c-2.25,0-4.08-1.82-4.08-4.07h0c0-2.24,1.81-4.23,4.05-4.24l42.28-.07c2.87-.01,3.32,1.79,3.32,3.93v.37c0,2.15-2.33,3.89-5.2,3.9l1.88-.07Z"/><path class="cls-8" d="M86.42,32.95l-.39,16.33c-.02,2.25-1.86,4.05-4.1,4.04h0c-2.25-.02-4.05-1.86-4.03-4.1l-.13-22.19,8.65,5.93Z"/><path class="cls-8" d="M105.72,26.15l-42.25.23c-2.25,0-4.08-1.82-4.08-4.07h0c0-2.24,1.81-4.06,4.05-4.07l42.28-.23c2.87-.01,3.32,1.79,3.32,3.93v.37c0,2.15-2.33,3.89-5.2,3.9l1.88-.07Z"/><path class="cls-8" d="M99.45,29.54l-42.25.23c-2.25,0-4.08-1.82-4.08-4.07h0c0-2.24,1.81-4.06,4.05-4.07l42.28-.23c2.87-.01,3.32,1.79,3.32,3.93v.37c0,2.15-2.33,3.89-5.2,3.9l1.88-.07Z"/><rect class="cls-6" x="61.29" y="93.64" width="46.06" height="19.17" transform="translate(-16.7 16.28) rotate(-10.04)"/><ellipse class="cls-5" cx="87.3" cy="52.19" rx="7.13" ry="7.12"/><ellipse class="cls-3" cx="87.3" cy="52.19" rx="5.91" ry="5.91"/><path class="cls-8" d="M88.13,52.13h0c-1.65-2.11-.99-5.21,1.38-6.46,4.9-2.59,12.38-6.55,15.36-8.13,4.65-2.47,1.65-8.84-4.3-6.94-2.95.94-15.05,4.62-15.05,4.62l-6.85-6.01,27.88-13.22h37.44v23.91l-20.55.06-15.63,6.68-14.48,6.74c-1.82.85-3.98.33-5.21-1.25Z"/></g></svg>