<svg viewBox="0 0 160 160" fill="none" xmlns="http://www.w3.org/2000/svg"><path fill-rule="evenodd" clip-rule="evenodd" d="M33 144H127V16H33V144Z" fill="#F7E5CD"/><path fill-rule="evenodd" clip-rule="evenodd" d="M53.8637 37.2407C53.8637 34.8127 55.0307 32.9727 57.3847 32.9727C58.2567 32.9727 58.9587 33.1867 59.5137 33.5937C59.6497 33.6957 59.6727 33.7857 59.6047 33.9207L59.2647 34.5087C59.1857 34.6437 59.0717 34.6997 58.9357 34.6207C58.4487 34.3277 58.0307 34.1807 57.4987 34.1807C56.2077 34.1807 55.3467 35.1857 55.3467 37.1837C55.3467 38.8667 55.9467 40.1087 57.4867 40.1087C57.9857 40.1087 58.5177 39.9727 58.9697 39.7477C59.1287 39.6687 59.2187 39.6797 59.2757 39.8157L59.5707 40.4357C59.6377 40.5827 59.6047 40.6847 59.4797 40.7637C58.9137 41.1027 58.0417 41.3277 57.2607 41.3277C55.0307 41.3277 53.8637 39.7247 53.8637 37.2407Z" fill="#232144"/><path fill-rule="evenodd" clip-rule="evenodd" d="M62.5462 38.1216H64.7325L64.6075 37.7486C64.2115 36.5636 63.8824 35.5016 63.6454 34.7336C63.4183 35.4906 63.0333 36.6536 62.6712 37.7376L62.5462 38.1216ZM65.1056 39.2396H62.1721L61.607 41.0006C61.55 41.1586 61.471 41.2156 61.301 41.2156H60.3498C60.1908 41.2156 60.1338 41.1366 60.1908 40.9666L62.8752 33.2886C62.9313 33.1426 62.9993 33.0856 63.1923 33.0856H64.1204C64.3135 33.0856 64.3925 33.1426 64.4375 33.2886L67.1999 40.9896C67.2459 41.1246 67.1779 41.2156 67.0419 41.2156H66.0007C65.8307 41.2156 65.7507 41.1586 65.6947 41.0006L65.1056 39.2396Z" fill="#232144"/><path fill-rule="evenodd" clip-rule="evenodd" d="M69.699 40.0522H72.643C72.801 40.0522 72.869 40.1202 72.869 40.2662V41.0012C72.869 41.1472 72.801 41.2152 72.643 41.2152H68.488C68.329 41.2152 68.261 41.1472 68.261 41.0012V33.3002C68.261 33.1532 68.329 33.0852 68.488 33.0852H69.472C69.631 33.0852 69.699 33.1532 69.699 33.3002V40.0522Z" fill="#232144"/><path fill-rule="evenodd" clip-rule="evenodd" d="M74.2942 41.2153C74.1352 41.2153 74.0672 41.1473 74.0672 41.0013V33.2993C74.0672 33.1533 74.1352 33.0853 74.2942 33.0853H78.6642C78.8232 33.0853 78.8912 33.1533 78.8912 33.2993V34.0343C78.8912 34.1803 78.8232 34.2483 78.6642 34.2483H75.5052V36.5293H78.1772C78.3362 36.5293 78.4042 36.5973 78.4042 36.7323V37.4663C78.4042 37.6133 78.3362 37.6813 78.1772 37.6813H75.5052V40.0523H78.7102C78.8682 40.0523 78.9362 40.1203 78.9362 40.2663V41.0013C78.9362 41.1473 78.8682 41.2153 78.7102 41.2153H74.2942Z" fill="#232144"/><path fill-rule="evenodd" clip-rule="evenodd" d="M82.9646 37.5454C82.2746 36.4614 81.9226 35.8854 81.6626 35.3554C81.7076 35.9874 81.7196 37.1164 81.7196 37.9064V41.0014C81.7196 41.1474 81.6516 41.2155 81.4926 41.2155H80.6096C80.4506 41.2155 80.3826 41.1474 80.3826 41.0014V33.2994C80.3826 33.1534 80.4506 33.0854 80.6096 33.0854H81.3906C81.6166 33.0854 81.6966 33.1424 81.7986 33.2884L83.9946 36.7555C84.6746 37.8285 84.9906 38.3134 85.2966 38.9454C85.2636 38.3024 85.2516 37.2074 85.2516 36.4054V33.2994C85.2516 33.1534 85.3196 33.0854 85.4786 33.0854H86.3606C86.5196 33.0854 86.5876 33.1534 86.5876 33.2994V41.0014C86.5876 41.1474 86.5196 41.2155 86.3606 41.2155H85.5796C85.3536 41.2155 85.2746 41.1585 85.1836 41.0125L82.9646 37.5454Z" fill="#232144"/><path fill-rule="evenodd" clip-rule="evenodd" d="M89.7442 34.2373V40.0633H90.4342C91.1372 40.0633 91.8272 39.9283 92.2912 39.4993C92.8012 39.0253 93.0502 38.1893 93.0502 37.1393C93.0502 36.1793 92.8462 35.4453 92.4832 35.0053C92.0642 34.4973 91.4312 34.2373 90.4692 34.2373H89.7442ZM88.5322 41.2153C88.3742 41.2153 88.3062 41.1473 88.3062 41.0013V33.3003C88.3062 33.1533 88.3742 33.0853 88.5322 33.0853H90.3892C91.8612 33.0853 92.8352 33.3903 93.5032 34.0903C94.1252 34.7343 94.5212 35.7613 94.5212 37.1163C94.5212 38.4833 94.1472 39.6123 93.3442 40.3683C92.6652 41.0123 91.7022 41.2153 90.4452 41.2153H88.5322Z" fill="#232144"/><path fill-rule="evenodd" clip-rule="evenodd" d="M97.396 38.1216H99.5823L99.4573 37.7486C99.0603 36.5636 98.7322 35.5016 98.4952 34.7336C98.2681 35.4906 97.8831 36.6536 97.521 37.7376L97.396 38.1216ZM99.9554 39.2396H97.0229L96.4568 41.0006C96.3998 41.1586 96.3208 41.2156 96.1508 41.2156H95.1996C95.0416 41.2156 94.9846 41.1366 95.0416 40.9666L97.724 33.2886C97.7811 33.1426 97.8491 33.0856 98.0421 33.0856H98.9702C99.1633 33.0856 99.2423 33.1426 99.2873 33.2886L102.05 40.9896C102.096 41.1246 102.028 41.2156 101.892 41.2156H100.85C100.68 41.2156 100.601 41.1586 100.543 41.0006L99.9554 39.2396Z" fill="#232144"/><path fill-rule="evenodd" clip-rule="evenodd" d="M104.549 34.2373V36.8903H105.274C106.326 36.8903 106.847 36.3833 106.847 35.4793C106.847 35.0613 106.734 34.7903 106.541 34.5983C106.247 34.3043 105.76 34.2373 105.217 34.2373H104.549ZM105.59 38.2913C105.454 38.0423 105.363 38.0203 105.092 38.0203H104.549V41.0013C104.549 41.1473 104.481 41.2153 104.322 41.2153H103.337C103.179 41.2153 103.111 41.1473 103.111 41.0013V33.3003C103.111 33.1533 103.179 33.0853 103.337 33.0853H105.194C106.383 33.0853 107.243 33.3223 107.753 33.8643C108.115 34.2373 108.296 34.7683 108.296 35.4563C108.296 36.5403 107.776 37.3203 106.802 37.7713L108.693 40.9223C108.806 41.0913 108.76 41.2153 108.568 41.2153H107.537C107.322 41.2153 107.278 41.2043 107.164 41.0233L105.59 38.2913Z" fill="#232144"/><path fill-rule="evenodd" clip-rule="evenodd" d="M38.9213 20.0831C38.9213 20.9751 38.1973 21.6971 37.3043 21.6971C36.4113 21.6971 35.6873 20.9751 35.6873 20.0831C35.6873 19.1911 36.4113 18.4691 37.3043 18.4691C38.1973 18.4691 38.9213 19.1911 38.9213 20.0831Z" fill="#232144"/><path fill-rule="evenodd" clip-rule="evenodd" d="M124.359 20.0831C124.359 20.9751 123.635 21.6971 122.742 21.6971C121.849 21.6971 121.125 20.9751 121.125 20.0831C121.125 19.1911 121.849 18.4691 122.742 18.4691C123.635 18.4691 124.359 19.1911 124.359 20.0831Z" fill="#232144"/><path fill-rule="evenodd" clip-rule="evenodd" d="M38.9213 138.777C38.9213 139.669 38.1973 140.391 37.3043 140.391C36.4113 140.391 35.6873 139.669 35.6873 138.777C35.6873 137.885 36.4113 137.163 37.3043 137.163C38.1973 137.163 38.9213 137.885 38.9213 138.777Z" fill="#232144"/><path fill-rule="evenodd" clip-rule="evenodd" d="M124.359 138.777C124.359 139.669 123.635 140.391 122.742 140.391C121.849 140.391 121.125 139.669 121.125 138.777C121.125 137.885 121.849 137.163 122.742 137.163C123.635 137.163 124.359 137.885 124.359 138.777Z" fill="#232144"/><path fill-rule="evenodd" clip-rule="evenodd" d="M37.2806 129.567H122.718V53.033H37.2806V129.567Z" fill="white"/><path fill-rule="evenodd" clip-rule="evenodd" d="M55.0484 81.115H63.8018V72.379H55.0484V81.115Z" fill="#232144"/><path fill-rule="evenodd" clip-rule="evenodd" d="M65.3232 81.115H74.0765V72.379H65.3232V81.115Z" fill="#232144"/><path fill-rule="evenodd" clip-rule="evenodd" d="M75.5987 81.115H84.3521V72.379H75.5987V81.115Z" fill="#232144"/><path fill-rule="evenodd" clip-rule="evenodd" d="M85.8744 81.115H94.6278V72.379H85.8744V81.115Z" fill="#232144"/><path fill-rule="evenodd" clip-rule="evenodd" d="M96.149 81.115H104.902V72.379H96.149V81.115Z" fill="#232144"/><path fill-rule="evenodd" clip-rule="evenodd" d="M106.425 81.115H115.178V72.379H106.425V81.115Z" fill="#F7931E"/><path fill-rule="evenodd" clip-rule="evenodd" d="M44.7729 92.699H53.5263V83.963H44.7729V92.699Z" fill="#232144"/><path fill-rule="evenodd" clip-rule="evenodd" d="M55.0484 92.699H63.8018V83.963H55.0484V92.699Z" fill="#232144"/><path fill-rule="evenodd" clip-rule="evenodd" d="M65.3232 92.699H74.0765V83.963H65.3232V92.699Z" fill="#232144"/><path fill-rule="evenodd" clip-rule="evenodd" d="M75.5987 92.699H84.3521V83.963H75.5987V92.699Z" fill="#232144"/><path fill-rule="evenodd" clip-rule="evenodd" d="M85.8744 92.699H94.6278V83.963H85.8744V92.699Z" fill="#232144"/><path fill-rule="evenodd" clip-rule="evenodd" d="M96.149 92.699H104.902V83.963H96.149V92.699Z" fill="#232144"/><path fill-rule="evenodd" clip-rule="evenodd" d="M106.425 92.699H115.178V83.963H106.425V92.699Z" fill="#F7931E"/><path fill-rule="evenodd" clip-rule="evenodd" d="M44.7729 104.284H53.5263V95.548H44.7729V104.284Z" fill="#232144"/><path fill-rule="evenodd" clip-rule="evenodd" d="M55.0484 104.284H63.8018V95.548H55.0484V104.284Z" fill="#232144"/><path fill-rule="evenodd" clip-rule="evenodd" d="M65.3232 104.284H74.0765V95.548H65.3232V104.284Z" fill="#232144"/><path fill-rule="evenodd" clip-rule="evenodd" d="M75.5987 104.284H84.3521V95.548H75.5987V104.284Z" fill="#232144"/><path fill-rule="evenodd" clip-rule="evenodd" d="M85.8744 104.284H94.6278V95.548H85.8744V104.284Z" fill="#232144"/><path fill-rule="evenodd" clip-rule="evenodd" d="M96.149 104.284H104.902V95.548H96.149V104.284Z" fill="#232144"/><path fill-rule="evenodd" clip-rule="evenodd" d="M106.425 104.284H115.178V95.548H106.425V104.284Z" fill="#F7931E"/><path fill-rule="evenodd" clip-rule="evenodd" d="M44.7729 115.869H53.5263V107.133H44.7729V115.869Z" fill="#232144"/><path fill-rule="evenodd" clip-rule="evenodd" d="M55.0484 115.869H63.8018V107.133H55.0484V115.869Z" fill="#232144"/><path fill-rule="evenodd" clip-rule="evenodd" d="M65.3232 115.869H74.0765V107.133H65.3232V115.869Z" fill="#232144"/><path fill-rule="evenodd" clip-rule="evenodd" d="M75.5987 115.869H84.3521V107.133H75.5987V115.869Z" fill="#232144"/><path fill-rule="evenodd" clip-rule="evenodd" d="M85.8744 115.869H94.6278V107.133H85.8744V115.869Z" fill="#232144"/><path fill-rule="evenodd" clip-rule="evenodd" d="M56.3809 91.8536C54.5276 91.8536 53.0574 92.4866 52.2333 93.6436C51.3931 94.8206 51.2861 96.4526 51.9312 98.2376C52.6353 100.186 54.1236 102.04 56.1219 103.46C58.1202 104.88 60.3636 105.676 62.4379 105.702C64.3432 105.724 65.8494 105.09 66.6886 103.913C67.5287 102.736 67.6357 101.104 66.9906 99.3186C66.2875 97.3706 64.7983 95.5166 62.8 94.0966C60.8016 92.6766 58.5583 91.8806 56.4839 91.8546C56.4489 91.8536 56.4149 91.8536 56.3809 91.8536ZM62.5429 108.245C62.4979 108.245 62.4519 108.245 62.4059 108.244C59.8185 108.212 57.062 107.248 54.6447 105.531C52.2273 103.814 50.413 101.53 49.5348 99.0996C48.5977 96.5076 48.8197 94.0456 50.1579 92.1686C51.4961 90.2916 53.7525 89.2776 56.5159 89.3116C59.1034 89.3446 61.8608 90.3076 64.2772 92.0256C66.6946 93.7426 68.5089 96.0256 69.387 98.4566C70.3242 101.049 70.1031 103.511 68.7639 105.388C67.4477 107.233 65.2423 108.245 62.5429 108.245Z" fill="#E73245"/><path fill-rule="evenodd" clip-rule="evenodd" d="M47.496 62.8325C47.313 62.8325 47.258 62.8005 47.21 62.6745L46.718 61.4785C46.488 60.9235 46.203 60.1715 46.044 59.7045C46.044 60.2505 46.044 61.1935 46.012 62.0005L45.956 63.6005C45.949 63.7275 45.909 63.7745 45.79 63.7745H45.203C45.06 63.7745 45.013 63.7275 45.02 63.5925L45.258 58.2475C45.267 58.1205 45.314 58.0735 45.449 58.0735H46.092C46.242 58.0735 46.298 58.1045 46.346 58.2235L47.075 60.0205C47.377 60.7575 47.591 61.3195 47.734 61.7315C47.885 61.3115 48.131 60.6465 48.369 60.0525L49.106 58.2235C49.154 58.1045 49.225 58.0735 49.352 58.0735H49.979C50.114 58.0735 50.162 58.1205 50.17 58.2475L50.4 63.5925C50.408 63.7275 50.352 63.7745 50.218 63.7745H49.614C49.479 63.7745 49.432 63.7195 49.432 63.6005L49.376 61.5335C49.352 60.7335 49.345 60.2035 49.345 59.6725C49.186 60.1555 48.924 60.8685 48.686 61.4705L48.194 62.6745C48.146 62.8005 48.091 62.8325 47.909 62.8325H47.496Z" fill="#232144"/><path fill-rule="evenodd" clip-rule="evenodd" d="M52.7529 61.605H54.2839L54.1969 61.344C53.9189 60.512 53.6889 59.768 53.5229 59.229C53.3639 59.76 53.0939 60.576 52.8399 61.336L52.7529 61.605ZM54.5459 62.389H52.4909L52.0939 63.625C52.0549 63.735 51.9989 63.775 51.8799 63.775H51.2129C51.1029 63.775 51.0629 63.719 51.1029 63.601L52.9829 58.215C53.0229 58.113 53.0699 58.073 53.2049 58.073H53.8559C53.9899 58.073 54.0459 58.113 54.0779 58.215L56.0139 63.617C56.0449 63.711 55.9979 63.775 55.9029 63.775H55.1729C55.0539 63.775 54.9979 63.735 54.9589 63.625L54.5459 62.389Z" fill="#232144"/><path fill-rule="evenodd" clip-rule="evenodd" d="M57.5109 63.7749C57.3999 63.7749 57.3519 63.7279 57.3519 63.6249V61.5579L55.7019 58.2319C55.6549 58.1359 55.7019 58.0729 55.8049 58.0729H56.4949C56.6539 58.0729 56.7249 58.1129 56.7729 58.2239L57.2569 59.2689C57.4479 59.6809 57.7889 60.3699 57.8999 60.6469C58.0189 60.3539 58.2889 59.7599 58.5109 59.2689L58.9949 58.2149C59.0509 58.1049 59.1059 58.0729 59.2569 58.0729H59.9229C60.0259 58.0729 60.0739 58.1359 60.0259 58.2319L58.3599 61.5579V63.6249C58.3599 63.7279 58.3119 63.7749 58.2009 63.7749H57.5109Z" fill="#232144"/></svg>