<svg viewBox="0 0 160 160" fill="none" xmlns="http://www.w3.org/2000/svg"><path fill-rule="evenodd" clip-rule="evenodd" d="M79.5 46.8223C61.5877 46.8223 47.0154 61.3193 47.0154 79.1373C47.0154 96.9563 61.5877 111.452 79.5 111.452C97.4123 111.452 111.985 96.9563 111.985 79.1373C111.985 61.3193 97.4123 46.8223 79.5 46.8223Z" fill="#F2F2F2"/><path fill-rule="evenodd" clip-rule="evenodd" d="M78.7358 80.3499L68.0901 62.2759L69.988 61.1699L79.8481 77.9109L92.0958 75.5879L92.5076 77.7379L78.7358 80.3499Z" fill="#FF6200"/><path fill-rule="evenodd" clip-rule="evenodd" d="M78.4006 55.0333H80.6003V50.4453H78.4006V55.0333Z" fill="#F15A24"/><path fill-rule="evenodd" clip-rule="evenodd" d="M78.4006 107.83H80.6003V103.242H78.4006V107.83Z" fill="#F15A24"/><path fill-rule="evenodd" clip-rule="evenodd" d="M103.731 80.231H108.344V78.043H103.731V80.231Z" fill="#FF6200"/><path fill-rule="evenodd" clip-rule="evenodd" d="M50.6562 80.231H55.2684V78.043H50.6562V80.231Z" fill="#F15A24"/><path fill-rule="evenodd" clip-rule="evenodd" d="M79.5 111.453C61.5877 111.453 47.0154 96.956 47.0154 79.138C47.0154 61.319 61.5877 46.823 79.5 46.823C97.4123 46.823 111.985 61.319 111.985 79.138C111.985 96.956 97.4123 111.453 79.5 111.453ZM94.7399 144V114.302C108.41 108.417 118 94.873 118 79.138C118 63.403 108.41 49.859 94.7399 43.974V16H64.2601V43.974C64.2601 43.974 64.2601 43.973 64.2611 43.973C50.5913 49.859 41 63.403 41 79.138C41 94.873 50.5913 108.417 64.2611 114.302L64.2601 144H94.7399Z" fill="#232144"/></svg>