<?xml version="1.0" encoding="UTF-8"?><svg id="Heart" xmlns="http://www.w3.org/2000/svg" viewBox="0 0 160 160"><defs><style>.cls-1{fill:#ef2834;}.cls-2{fill:#231e47;}.cls-3{fill:#d9cbc4;}</style></defs><polygon class="cls-1" points="144.16 97.73 118.3 97.73 110.5 87.34 108.64 95.36 104.33 68.03 100 98.07 98.06 87.16 90.13 97.73 25.42 97.73 25.42 100.61 91.57 100.61 96.38 94.19 100.29 116.21 104.45 87.3 108.1 110.42 111.91 94.01 116.86 100.61 144.16 100.61 144.16 97.73"/><path class="cls-3" d="M70.04,70.1h0c-3.88,0-7.3-2.01-9.15-5.38l-.08-.15c-.22-.4-.43-.78-.66-1.11l-21.17-30.5-.06-.13c-1.44-3.25-1.15-6.98.79-9.96,1.94-2.98,5.22-4.77,8.78-4.77v3.09c-2.51,0-4.83,1.26-6.2,3.36-1.34,2.07-1.57,4.63-.61,6.9l21,30.25c.32.47.58.93.83,1.39l.08.15c1.3,2.37,3.71,3.78,6.45,3.78,2.74,0,5.15-1.41,6.45-3.78l.08-.14c.25-.46.51-.93.84-1.4l21-30.25c.96-2.26.73-4.83-.61-6.9-1.37-2.1-3.68-3.36-6.2-3.36v-3.09c3.56,0,6.84,1.78,8.78,4.77,1.94,2.98,2.24,6.71.79,9.96l-.14.25-21.09,30.38c-.23.34-.44.72-.67,1.12l-.08.14c-1.85,3.37-5.28,5.38-9.16,5.38Z"/><path class="cls-2" d="M55.81,50.62l-4.12,3.08,8.41,11.5c2.86,3.46,5.8,5.91,10.06,5.91s7.46-2.18,10.06-5.91l8.55-11.48-4.09-3.12-8.97,12.12c-1.43,1.91-3.19,3.25-5.55,3.25s-3.74-1.34-5.55-3.25l-8.79-12.1Z"/><path class="cls-2" d="M54.29,18.39l-3.66-2.12c-.95-.55-2.13.14-2.13,1.23v4.23c0,1.09,1.18,1.78,2.13,1.23l3.66-2.12c.95-.55.95-1.91,0-2.46Z"/><path class="cls-2" d="M85.76,20.85l3.66,2.12c.95.55,2.13-.14,2.13-1.23v-4.23c0-1.09-1.18-1.78-2.13-1.23l-3.66,2.12c-.95.55-.95,1.91,0,2.46Z"/><path class="cls-2" d="M90.1,143.92c-12.2,0-22.13-9.93-22.13-22.13v-52.89h5.18v52.89c0,9.34,7.6,16.95,16.95,16.95,5.64,0,10.89-2.79,14.05-7.47l4.29,2.9c-4.13,6.11-10.98,9.76-18.35,9.76Z"/><circle class="cls-3" cx="110.9" cy="128.84" r="11.36"/><circle class="cls-2" cx="110.9" cy="128.84" r="7.71"/><path class="cls-1" d="M53.67,77.95c-.38-.03-.76-.05-1.14-.05-5.55,0-10.33,3.25-12.56,7.95-2.22-4.71-6.99-7.98-12.54-7.98-.38,0-.76.01-1.14.04-.47.04-.93.1-1.37.19-2.81.56-5.07,2.12-6.62,4.2-3.23,4.32-3.41,10.88.85,15.39l20.78,21.96,20.82-21.92c6.66-7.01,2.54-19-7.09-19.8Z"/></svg>