<?xml version="1.0" encoding="UTF-8"?><svg xmlns="http://www.w3.org/2000/svg" version="1.1" viewBox="0 0 160 160"><defs><style>.cls-1 {
        fill: #fff;
      }

      .cls-2 {
        fill: #ff6200;
      }

      .cls-3 {
        fill: #a8a8a8;
      }</style></defs><!--Generator: Adobe Illustrator 28.6.0, SVG Export Plug-In . SVG Version: 1.2.0 Build 709)--><g><g id="debit"><g><path class="cls-2" d="M115.8,71.5c0-3.5,1.1-6.6,2.8-8.5V30.6c0-2.8-2.2-5-5-5.1H21.1c-2.8-.1-5,2.1-5.1,4.9v54.8c0,2.8,2.2,5,5,5.1h92.4c2.8.1,5-2.1,5.1-4.9v-5.4c-1.7-1.9-2.7-5-2.7-8.5Z"/><path class="cls-1" d="M31.5,50.3h-5.4s0,2.3,0,2.3c0,.8.4,1.4,1,1.4h4.4s0-3.6,0-3.6Z"/><path class="cls-1" d="M41.4,50.3h-5.3s0,3.6,0,3.6h4.4c.5,0,1-.6,1-1.4v-2.3Z"/><rect class="cls-1" x="37.8" y="46.3" width="2.9" height="4.4" transform="translate(-9.4 87.6) rotate(-89.9)"/><rect class="cls-1" x="26.8" y="46.3" width="2.9" height="4.4" transform="translate(-20.3 76.6) rotate(-89.9)"/><rect class="cls-1" x="33" y="41.8" width="1.5" height="3.9" transform="translate(-10.1 77.4) rotate(-89.9)"/><rect class="cls-1" x="33" y="51.3" width="1.4" height="3.9" transform="translate(-19.5 86.8) rotate(-89.9)"/><path class="cls-1" d="M36.1,46.7h5.3s0-2.3,0-2.3c0-.8-.4-1.4-1-1.4h-4.3s0,3.7,0,3.7Z"/><path class="cls-1" d="M31.5,43h-4.4c-.5,0-1,.6-1,1.4v2.3s5.4,0,5.4,0v-3.7Z"/><polygon class="cls-1" points="30.8 52.3 30.8 44.7 36.7 44.7 36.7 52.3 30.8 52.3"/><path class="cls-2" d="M30.5,52.5v-8s6.6,0,6.6,0v8s-6.6,0-6.6,0ZM30.8,44.8v7.3s5.8,0,5.8,0v-7.3s-5.8,0-5.8,0Z"/></g></g><g id="credit"><g><path class="cls-3" d="M140.6,122.1l-.2-12.6,3.5-2.5h0c0,.1,0,0,0,0v-32.4c0-2.8-2.2-5-5-5.1H46.5c-2.8-.1-5,2.1-5.1,4.9v54.8c0,2.8,2.2,5,5,5.1h92.4c2.8.1,5-2.1,5.1-4.9v-5.2s-3.3-2.2-3.3-2.2Z"/><path class="cls-1" d="M56.9,94.4h-5.4s0,2.3,0,2.3c0,.8.4,1.4,1,1.4h4.4s0-3.6,0-3.6Z"/><path class="cls-1" d="M66.8,94.4h-5.3s0,3.6,0,3.6h4.4c.5,0,1-.6,1-1.4v-2.3Z"/><rect class="cls-1" x="63.2" y="90.4" width="2.9" height="4.4" transform="translate(-28.2 157) rotate(-89.9)"/><rect class="cls-1" x="52.2" y="90.4" width="2.9" height="4.4" transform="translate(-39.1 146) rotate(-89.9)"/><rect class="cls-1" x="58.4" y="85.9" width="1.5" height="3.9" transform="translate(-28.9 146.9) rotate(-89.9)"/><rect class="cls-1" x="58.4" y="95.4" width="1.4" height="3.9" transform="translate(-38.3 156.3) rotate(-89.9)"/><path class="cls-1" d="M61.5,90.8h5.3s0-2.3,0-2.3c0-.8-.4-1.4-1-1.4h-4.3s0,3.7,0,3.7Z"/><path class="cls-1" d="M56.9,87.1h-4.4c-.5,0-1,.6-1,1.4v2.3s5.4,0,5.4,0v-3.7Z"/><polygon class="cls-1" points="56.2 96.5 56.2 88.8 62.1 88.8 62.1 96.5 56.2 96.5"/><path class="cls-3" d="M55.9,96.6v-8s6.6,0,6.6,0v8s-6.6,0-6.6,0ZM56.2,89v7.3s5.8,0,5.8,0v-7.3s-5.8,0-5.8,0Z"/></g></g></g></svg>