<?xml version="1.0" encoding="UTF-8"?><svg id="Design" xmlns="http://www.w3.org/2000/svg" viewBox="0 0 160 160"><defs><style>.cls-1 {
        fill: #232144;
      }

      .cls-1, .cls-2, .cls-3 {
        stroke-width: 0px;
      }

      .cls-2 {
        fill: #9eabac;
      }

      .cls-3 {
        fill: #eea33b;
      }</style></defs><path class="cls-1" d="m112.15,50.48c-4.57,0-8.28,1.78-8.28,3.97,0,.61.29,1.18.8,1.69l-2.74,2.63,1.04,1.09,2.93-2.81c1.52.84,3.75,1.37,6.25,1.37v-7.95Z"/><path class="cls-2" d="m41.52,120.42c-13.42,0-24.34-10.89-24.34-24.28s10.92-24.28,24.34-24.28,24.34,10.89,24.34,24.28-10.92,24.28-24.34,24.28Zm0-44.4c-11.12,0-20.17,9.03-20.17,20.12s9.05,20.12,20.17,20.12,20.17-9.03,20.17-20.12-9.05-20.12-20.17-20.12Z"/><path class="cls-1" d="m64.8,89.15c-2.62-9.43-12.1-17.3-23.28-17.3-3.59,0-4.36-.8-7.09.55l7.37,16.7,23,.05Z"/><path class="cls-2" d="m119.66,120.42c-13.42,0-24.34-10.89-24.34-24.28s10.92-24.28,24.34-24.28,24.34,10.89,24.34,24.28-10.92,24.28-24.34,24.28Zm0-44.4c-11.12,0-20.17,9.03-20.17,20.12s9.05,20.12,20.17,20.12,20.17-9.03,20.17-20.12-9.05-20.12-20.17-20.12Z"/><path class="cls-1" d="m119.66,72.49c-13.07,0-23.7,10.61-23.7,23.64h-1.82c0-14.03,11.45-25.45,25.52-25.45"/><ellipse class="cls-3" cx="41.68" cy="96.13" rx="3.64" ry="3.63"/><rect class="cls-3" x="65.13" y="60.12" width="3.01" height="40.85" transform="translate(-29.16 38.7) rotate(-26.8)"/><polygon class="cls-3" points="118.42 96.81 91.91 43.57 89.34 44.24 88.57 41.33 93.52 40.03 121.11 95.46 118.42 96.81"/><rect class="cls-3" x="71.39" y="79.9" width="39.74" height="3.01" transform="translate(-30.94 86.13) rotate(-43.95)"/><path class="cls-3" d="m67.53,85.61v-3.01c16.13,0,29.24-13.14,29.24-29.27l3.02.02c0,17.79-14.47,32.26-32.26,32.26Z"/><circle class="cls-1" cx="119.78" cy="96.13" r="3.52"/><path class="cls-1" d="m67.03,96.13h-1.82c0-13.03-10.63-23.64-23.7-23.64s-23.7,10.6-23.7,23.64h-1.82c0-14.03,11.45-25.45,25.52-25.45s25.52,11.42,25.52,25.45Z"/><path class="cls-3" d="m77.58,89.98c-1.51,0-35.9,2.52-35.9,2.52l-.45,7.24s34.83,3.03,36.35,3.03c3.53,0,6.39-2.86,6.39-6.39s-2.86-6.39-6.39-6.39"/><path class="cls-1" d="m80.58,96.37c0,1.94-1.57,3.52-3.52,3.52s-3.52-1.57-3.52-3.52,1.57-3.52,3.52-3.52,3.52,1.57,3.52,3.52"/><polygon class="cls-2" points="74.31 109.85 72.54 109.37 76.18 95.64 77.95 96.13 74.31 109.85"/><rect class="cls-1" x="70.19" y="108.72" width="8.69" height="1.93" rx=".97" ry=".97"/><path class="cls-1" d="m88.57,41.33l-10.53,2.8c-.8.21-1.28,1.04-1.07,1.84.18.67.79,1.12,1.46,1.12.13,0,.26-.02.39-.05l7.81-2.08s0,0,0,0l2.72-.72-.78-2.91Z"/><polygon class="cls-3" points="41.48 97.99 28.8 69.33 30.45 68.6 41.82 94.27 59.91 67.59 61.41 68.61 41.48 97.99"/><rect class="cls-3" x="54.04" y="67.56" width="1.81" height="6.47" transform="translate(-34.62 67.67) rotate(-50.19)"/><polyline class="cls-1" points="53.01 67.74 53.01 69.67 23.79 69.71 23.79 67.77"/><path class="cls-1" d="m65.21,61.21l-13.78,3.69c-1.31.35-2.65-.42-3-1.73l-.52-1.95c-.38-1.43.59-2.88,2.07-3.06l14.31-1.74c1.21-.15,2.34.62,2.66,1.79h0c.35,1.3-.43,2.64-1.73,2.99Z"/></svg>