<?xml version="1.0" encoding="UTF-8"?><svg xmlns="http://www.w3.org/2000/svg" version="1.1" viewBox="0 0 160 160"><defs><style>.cls-1 {
        fill: #430e0d;
      }

      .cls-2 {
        fill: #49070a;
      }

      .cls-3 {
        fill: #a83630;
      }

      .cls-4 {
        fill: #fc5400;
      }

      .cls-5 {
        fill: #020204;
      }

      .cls-6 {
        fill: #fff;
      }

      .cls-7 {
        fill: #a03e36;
      }

      .cls-8 {
        fill: #181111;
      }

      .cls-9 {
        fill: #852734;
      }

      .cls-10 {
        fill: #ff6200;
      }

      .cls-11 {
        fill: #a8a8a8;
      }</style></defs><!--Generator: Adobe Illustrator 28.6.0, SVG Export Plug-In . SVG Version: 1.2.0 Build 709)--><g><g id="woman_with_card"><g><polygon class="cls-7" points="31.4 116.8 27.6 130.6 15.8 130.6 18.5 116.3 31.4 116.8"/><g><path class="cls-4" d="M80.9,96.3c-.4,5.5-13.7,12.6-13.7,12.6,0,0-6.8-8.5-6.3-14.1.4-5.6,5.2-9.7,10.8-9.3s9.7,5.2,9.3,10.8"/><polygon class="cls-4" points="70.2 130.6 70.8 85.5 29.2 85.5 32.3 130.6 70.2 130.6"/><path class="cls-4" d="M19.9,96.3c-.4-5.6,3.7-10.4,9.3-10.8,5.5-.4,10.3,3.7,10.8,9.3.4,5.6-6.3,14.1-6.3,14.1,0,0-13.3-7.1-13.7-12.6"/><polygon class="cls-4" points="31.5 116.8 17.2 116.7 19.9 95 39.9 103.8 31.5 116.8"/></g><rect class="cls-4" x="42.1" y="84" width="19.6" height="5.6"/><polygon class="cls-4" points="80.6 93.1 83.4 106.8 72.2 121.4 69.4 113.6 65.5 100.5 80.6 93.1"/><g><path class="cls-7" d="M83.5,122.3l15.7-27.1-3.7-7.3-22.4,28.2c-2.2,3.3-1,7.7,2.5,9.2,2.9,1.2,6.4,0,7.9-3"/><path class="cls-7" d="M105.4,80.4h0c-.6-.5-1.4-.5-2,0l-8,7.4,2,1.9,8-7.4c.5-.6.5-1.4,0-2Z"/><path class="cls-7" d="M107.9,85.5h6.2c.8,0,1.4.6,1.4,1.4v1.4h-9v-1.4c0-.8.6-1.4,1.4-1.4Z"/><polygon class="cls-7" points="94.7 96.7 106.5 96.7 102 85.6 95.4 87.9 94.7 96.7"/><path class="cls-7" d="M102.7,91.2h1.5s1.8,0,1.8,0h1.5c.8,0,1.4.6,1.4,1.4h0c0,.8-.6,1.4-1.4,1.4h-1.5s-1.8,0-1.8,0h-1.5c-.8,0-1.4-.6-1.4-1.4h0c0-.8.6-1.4,1.4-1.4Z"/><path class="cls-7" d="M102,94h1.5s1.8,0,1.8,0h1.5c.8,0,1.4.6,1.4,1.4h0c0,.8-.6,1.4-1.4,1.4h-1.5s-1.8,0-1.8,0h-1.5c-.8,0-1.4-.6-1.4-1.4h0c0-.8.6-1.4,1.4-1.4Z"/><path class="cls-7" d="M102.7,88.3h1.5s1.8,0,1.8,0h1.5c.8,0,1.4.6,1.4,1.4h0c0,.8-.6,1.4-1.4,1.4h-1.5s-1.8,0-1.8,0h-1.5c-.8,0-1.4-.6-1.4-1.4h0c0-.8.6-1.4,1.4-1.4Z"/><path class="cls-7" d="M102.2,85.5h1.5s1.8,0,1.8,0h1.5c.8,0,1.4.6,1.4,1.4h0c0,.8-.6,1.4-1.4,1.4h-1.5s-1.8,0-1.8,0h-1.5c-.8,0-1.4-.6-1.4-1.4h0c0-.8.6-1.4,1.4-1.4Z"/><path class="cls-7" d="M107.3,91.2h-1.5s-1.8,0-1.8,0h-1.5c-.8,0-1.4-.6-1.4-1.4h0c0-.8.6-1.4,1.4-1.4h1.5s1.8,0,1.8,0h1.5"/><path class="cls-9" d="M107.3,91h0s-4.7,0-4.7,0c-.7,0-1.2-.6-1.2-1.3s.6-1.3,1.2-1.3h4.7v-.3h-4.7c-.9,0-1.5.7-1.5,1.6s.4,1.2.9,1.4c-.5.3-.9.8-.9,1.4s.3,1,.7,1.3c-.7,0-1.3.7-1.3,1.4s.7,1.5,1.5,1.5h4.7v-.3h-4.7c-.7,0-1.2-.5-1.2-1.1s.6-1.1,1.2-1.1h5.1v-.3h0s-4.4,0-4.4,0c-.7,0-1.2-.6-1.2-1.3s.5-1.3,1.2-1.3h4.7s0,0,0,0v-.3h0Z"/></g><circle class="cls-1" cx="51.8" cy="56.4" r="8.9"/><circle class="cls-3" cx="61.6" cy="73" r="2.9"/><circle class="cls-3" cx="42" cy="73" r="2.9"/><rect class="cls-7" x="42.3" y="56.4" width="19" height="28.6" rx="7.6" ry="7.6"/><path class="cls-8" d="M51.7,76.3c-.1,0-.2,0-.3,0-.3,0-.6-.2-.9-.5-.2-.1-.3-.2-.5-.2-.3,0-.6.3-.6.4l-.3-.2s.3-.5.8-.5c.3,0,.5,0,.8.3.2.2.5.4.7.4.3,0,.5,0,.7,0,0,0,.2-.1.2-.2.1-.1.4-.4.8-.4.3,0,.7.1,1,.4l-.3.3c-.2-.2-.5-.3-.7-.3-.3,0-.5.2-.5.3-.1.1-.2.2-.4.3-.2,0-.4.1-.6.1Z"/><rect class="cls-2" x="44.1" y="66.9" width="6.3" height="1.2" transform="translate(-1.6 1.2) rotate(-1.4)"/><rect class="cls-2" x="53.3" y="64.9" width="6.3" height="1.2"/><path class="cls-2" d="M62.6,73.6h-1.5v-5.7c-.2-4-3.5-7.3-7.5-7.3h-1.3v-2.4h-1.1v2.4h-1.3c-4,0-7.4,3.2-7.5,7.3v5.7h-1.5v-10.1c0-4.6,3.7-8.3,8.3-8.3h5.1c4.6,0,8.3,3.7,8.3,8.3v10.1Z"/><path class="cls-6" d="M53.9,72.2s.7-1.5,2-1.9,2.8.3,2.8.3c0,0-.5,1.2-1.9,1.7-1.3.5-3,0-3,0Z"/><path class="cls-5" d="M58.4,71.1c0-.3-.2-.6-.4-.8-.4,0-.8-.2-1.3-.2-.4.2-.6.6-.6,1s.3.9.8,1.1c0,0,0,0,0,0,.7-.3,1.2-.7,1.5-1.1Z"/><path class="cls-5" d="M53.9,72.2c.3-2.4,3.3-3.4,5.2-2.3-.1.2-.3.5-.4.7-.4-.2-2.5-1.1-4.4,1.2-.1.1-.1.2-.3.3Z"/><path class="cls-2" d="M49.6,79.3c.2-.7,1.3-.4,1.3-.4l2.6.6c0-.2-4.9,4.6-7.4-1.7l2.6.6s1.2.2,1,.9h0Z"/><path d="M49.6,71.6h0c-.1-.2-.4-.2-.5,0-2.8,2-5-.8-5-.8,0,0,.2.5.7,1,1.2,1.3,3.2,1.6,4.7.6,0,0,0,0,.1,0,.2-.1.2-.4,0-.6"/><g><path class="cls-11" d="M144.1,69.8v-3.6s0-.1,0-.1l-2-1.3v-7.4s2-1.4,2-1.4v-1.1s.1-21.7.1-21.7c0-1.9-1.5-3.4-3.4-3.4l-62-.3c-1.9,0-3.4,1.5-3.4,3.4l-.2,36.7c0,1.9,1.5,3.4,3.4,3.4l62,.3c1.9,0,3.4-1.5,3.4-3.4Z"/><path class="cls-6" d="M88.8,49.2h-3.6s0,1.5,0,1.5c0,.5.3.9.7.9h3s0-2.4,0-2.4Z"/><path class="cls-6" d="M95.4,49.3h-3.6s0,2.4,0,2.4h2.9c.4,0,.7-.4.7-.9v-1.5Z"/><rect class="cls-6" x="93" y="46.6" width="1.9" height="2.9" transform="translate(45.3 141.7) rotate(-89.7)"/><rect class="cls-6" x="85.6" y="46.5" width="1.9" height="2.9" transform="translate(38.1 134.3) rotate(-89.7)"/><rect class="cls-6" x="89.8" y="43.5" width="1" height="2.6" transform="translate(44.9 134.9) rotate(-89.7)"/><rect class="cls-6" x="89.8" y="49.9" width="1" height="2.6" transform="translate(38.5 141.2) rotate(-89.7)"/><path class="cls-6" d="M91.9,46.8h3.6s0-1.5,0-1.5c0-.5-.3-.9-.6-.9h-2.9s0,2.5,0,2.5Z"/><path class="cls-6" d="M88.8,44.3h-3c-.4,0-.7.4-.7.9v1.6s3.6,0,3.6,0v-2.5Z"/><polygon class="cls-6" points="88.3 50.6 88.3 45.4 92.3 45.5 92.3 50.6 88.3 50.6"/><path class="cls-10" d="M88.1,50.7v-5.4s4.4,0,4.4,0v5.4s-4.4,0-4.4,0ZM88.4,45.6v4.9s3.9,0,3.9,0v-4.9s-3.9,0-3.9,0Z"/><path class="cls-6" d="M88.8,49.2h-3.6s0,1.5,0,1.5c0,.5.3.9.7.9h3s0-2.4,0-2.4Z"/><path class="cls-6" d="M95.4,49.3h-3.6s0,2.4,0,2.4h2.9c.4,0,.7-.4.7-.9v-1.5Z"/><rect class="cls-6" x="93" y="46.6" width="1.9" height="2.9" transform="translate(45.3 141.7) rotate(-89.7)"/><rect class="cls-6" x="85.6" y="46.5" width="1.9" height="2.9" transform="translate(38.1 134.3) rotate(-89.7)"/><rect class="cls-6" x="89.8" y="43.6" width="1" height="2.6" transform="translate(44.9 134.9) rotate(-89.7)"/><rect class="cls-6" x="89.8" y="49.9" width="1" height="2.6" transform="translate(38.5 141.2) rotate(-89.7)"/><path class="cls-6" d="M91.9,46.9h3.6s0-1.5,0-1.5c0-.5-.3-.9-.6-.9h-2.9s0,2.5,0,2.5Z"/><path class="cls-6" d="M88.8,44.4h-3c-.4,0-.7.4-.7.9v1.6s3.6,0,3.6,0v-2.5Z"/><polygon class="cls-6" points="88.3 50.6 88.3 45.5 92.3 45.5 92.3 50.6 88.3 50.6"/><path class="cls-11" d="M88.1,50.7v-5.4s4.4,0,4.4,0v5.4s-4.4,0-4.4,0ZM88.4,45.6v4.9s3.9,0,3.9,0v-4.9s-3.9,0-3.9,0Z"/></g></g></g></g></svg>