<svg viewBox="0 0 160 160" fill="none" xmlns="http://www.w3.org/2000/svg"><path fill-rule="evenodd" clip-rule="evenodd" d="M85.4905 83.5128V83.4768C84.413 82.6948 83.7094 81.4308 83.7094 79.9998C83.7094 78.5698 84.413 77.3058 85.4905 76.5238V76.4878C95.7852 68.3918 116.977 48.9728 116.977 26.3018H43.0233C43.0233 48.8168 63.9225 68.1218 74.2942 76.3168C75.5476 77.0688 76.3892 78.4348 76.3892 79.9998C76.3892 81.5658 75.5476 82.9318 74.2932 83.6838C63.9215 91.8788 43.0233 111.184 43.0233 133.699H116.977C116.977 111.027 95.7852 91.6088 85.4905 83.5128Z" fill="#F7E5CD"/><path fill-rule="evenodd" clip-rule="evenodd" d="M52.7869 46.1367C54.9148 52.3947 70.117 73.2007 79.6171 73.2007C88.0538 73.2007 108.028 49.2927 107.097 45.0047C105.36 36.9887 89.0943 50.4647 80.6256 50.4647C73.5013 50.4647 62.9687 43.4967 56.2921 43.0607C54.7139 42.9567 51.8514 43.3857 52.7869 46.1367Z" fill="#FAA332"/><path fill-rule="evenodd" clip-rule="evenodd" d="M40 26.302H120V16H40V26.302Z" fill="#FF6200"/><path fill-rule="evenodd" clip-rule="evenodd" d="M40 144H120V133.698H40V144Z" fill="#FF6200"/><path fill-rule="evenodd" clip-rule="evenodd" d="M74.7697 124.655L57.5735 133.699H105.155L87.9599 124.655C83.831 122.484 78.8986 122.484 74.7697 124.655Z" fill="#FAA332"/><path fill-rule="evenodd" clip-rule="evenodd" d="M79.041 83.1059H81.1329V76.5889H79.041V83.1059Z" fill="#FAA332"/><path fill-rule="evenodd" clip-rule="evenodd" d="M79.041 94.4571H81.1329V90.2861H79.041V94.4571Z" fill="#FAA332"/><path fill-rule="evenodd" clip-rule="evenodd" d="M80.0865 115.31H82.1784V113.746H80.0865V115.31Z" fill="#FAA332"/></svg>