<svg viewBox="0 0 160 160" fill="none" xmlns="http://www.w3.org/2000/svg"><path d="M143.89 144L134.92 97.6504C134.05 88.8504 126.98 81.6704 117.86 80.9904C117.49 80.9604 117.13 80.9704 116.76 80.9604V80.9404H42.53V80.9704C42.36 80.9704 42.2 80.9704 42.03 80.9804C32.91 81.6704 25.84 88.8404 24.97 97.6404L16 143.99L44.22 143.89V143.99H117.82V143.9L143.89 143.99V144Z" fill="#232144"/><path d="M99.79 35.9502H59.73V81.0202H99.79V35.9502Z" fill="#191C15"/><path d="M104.57 50.4596C104.57 53.5796 102.04 56.1096 98.92 56.1096C95.8 56.1096 93.27 53.5796 93.27 50.4596C93.27 47.3396 95.8 44.8096 98.92 44.8096C102.04 44.8096 104.57 47.3396 104.57 50.4596Z" fill="#FFA28F"/><path d="M66.21 50.44C66.21 53.56 63.68 56.09 60.56 56.09C57.44 56.09 54.91 53.56 54.91 50.44C54.91 47.32 57.44 44.79 60.56 44.79C63.68 44.79 66.21 47.32 66.21 50.44Z" fill="#FFA28F"/><path d="M65.78 78.58V60.46L93.72 60.5V78.58C93.72 86.29 87.47 92.55 79.75 92.55C72.03 92.55 65.78 86.3 65.78 78.58Z" fill="#F5836D"/><path d="M61.24 57.8298V31.7598C61.24 23.5198 67.92 16.8398 76.16 16.8398H83.34C91.58 16.8398 98.26 23.5198 98.26 31.7598V57.8298C98.26 66.0698 91.58 72.7498 83.34 72.7498H76.16C67.92 72.7498 61.24 66.0698 61.24 57.8298Z" fill="#FFA28F"/><path d="M78.73 18.9602H72.11C65.3 18.9602 59.78 25.3902 59.78 33.3302V45.0102L72.49 36.1102C76.41 33.3702 78.74 28.8902 78.74 24.1102V18.9502L78.73 18.9602Z" fill="#191C15"/><path d="M80.8 18.8H87.42C94.23 18.8 99.75 25.23 99.75 33.17V44.85L87.04 35.95C83.12 33.21 80.79 28.73 80.79 23.95V18.79L80.8 18.8Z" fill="#191C15"/><path d="M62.46 47.33V40.1C62.46 32.31 68.7 25.99 76.4 25.99H78.21L78.72 21.63H80.78L81.52 25.99H83.1C90.8 25.99 97.04 32.31 97.04 40.1V47.33H99.77V31.29C99.77 22.85 92.93 16 84.48 16H74.99C66.55 16 59.7 22.84 59.7 31.29V47.33H62.46Z" fill="#191C15"/><path d="M80.2 57.1596C79.99 57.1596 79.77 57.1396 79.54 57.0896C78.9 56.9596 78.29 56.6296 77.73 56.1096C77.43 55.8296 77.13 55.7096 76.83 55.7396C76.21 55.7896 75.73 56.4196 75.72 56.4196L75.13 55.9696C75.13 55.9696 75.81 55.0796 76.76 54.9996C77.29 54.9596 77.78 55.1396 78.24 55.5596C78.7 55.9896 79.19 56.2496 79.69 56.3496C80.2 56.4496 80.66 56.4096 81.05 56.2096C81.22 56.1196 81.37 55.9996 81.53 55.8296C81.73 55.6196 82.27 55.1096 83.06 55.0796C83.73 55.0596 84.33 55.3396 84.95 55.9196L84.44 56.4596C83.97 56.0196 83.52 55.8096 83.09 55.8196C82.58 55.8396 82.21 56.1796 82.07 56.3296C81.85 56.5596 81.62 56.7396 81.38 56.8696C81.02 57.0596 80.62 57.1496 80.19 57.1496H80.2V57.1596Z" fill="black"/><path d="M87.41 37.8399L87.63 37.7799C89.91 37.1099 92.39 37.6099 94.33 39.1199L82.51 42.5999C83.32 40.2799 85.14 38.5199 87.41 37.8499" fill="#191C15"/><path d="M84.45 49.2897C84.45 49.2897 85.8 46.3997 88.4 45.4897C90.99 44.5897 93.85 46.0197 93.85 46.0197C93.85 46.0197 92.48 47.9697 89.89 48.8697C87.3 49.7697 84.46 49.2797 84.46 49.2797" fill="white"/><path d="M86.9 46.7803C86.9 48.0203 87.91 49.0303 89.15 49.0303C90.39 49.0303 91.39 48.0203 91.39 46.7803C91.39 45.5403 90.39 44.5303 89.15 44.5303C87.91 44.5303 86.9 45.5403 86.9 46.7803Z" fill="black"/><path d="M84.45 49.2897C85.12 44.6597 90.97 42.6797 94.57 44.8597C94.35 45.2097 93.93 45.9297 93.71 46.2797C92.91 45.7997 88.78 44.1297 85.03 48.6297C84.8 48.8997 84.77 49.0197 84.45 49.2897Z" fill="black"/><path d="M72.57 39.7702L72.36 39.6902C70.13 38.8702 67.62 39.2102 65.59 40.5902L77.16 44.8302C76.5 42.4602 74.81 40.5802 72.58 39.7702" fill="#191C15"/><path d="M75.42 49.2399C75.42 49.2399 74.07 46.3499 71.47 45.4399C68.88 44.5399 66.02 45.9699 66.02 45.9699C66.02 45.9699 67.19 47.8499 69.79 48.7599C72.38 49.6599 75.42 49.2399 75.42 49.2399Z" fill="white"/><path d="M72.99 46.7803C72.99 48.0203 71.98 49.0303 70.74 49.0303C69.5 49.0303 68.5 48.0203 68.5 46.7803C68.5 45.5403 69.5 44.5303 70.74 44.5303C71.98 44.5303 72.99 45.5403 72.99 46.7803Z" fill="black"/><path d="M75.43 49.2399C74.76 44.6099 68.91 42.6299 65.31 44.8099C65.53 45.1599 65.95 45.8799 66.17 46.2299C66.97 45.7499 71.1 44.0799 74.85 48.5799C75.08 48.8499 75.11 48.9699 75.43 49.2399Z" fill="black"/><path d="M75.43 62.2904C75.43 62.2904 80.68 71.0104 86.38 61.4004C86.38 61.4004 83.36 56.5904 80.14 60.8504C80.14 60.8504 77.79 59.2604 75.43 62.2904Z" fill="#891229"/><path d="M72.94 106.39L79.26 110.26" stroke="#F5836D" stroke-width="0.6" stroke-miterlimit="10"/><path d="M106.45 120.14L89.09 109.49L79.22 103.44L79.19 103.49L73.73 100.1C72.37 99.27 70.59 99.68 69.75 101.02C68.89 102.39 69.32 104.2 70.72 105.04L76.06 108.27L76.04 108.3L68.2 103.54C66.86 102.73 65.11 103.14 64.28 104.47C63.42 105.82 63.85 107.62 65.22 108.45L72.89 113.1C72.89 113.1 72.87 113.1 72.87 113.09L64.7 108.13C63.36 107.32 61.61 107.73 60.77 109.07H60.78C59.92 110.44 60.34 112.24 61.71 113.07L63.65 114.25L63.13 113.94C61.77 113.13 60 113.58 59.18 114.94C58.36 116.31 58.79 118.08 60.15 118.91L73.78 127.25L63.68 131.06C62.12 131.65 61.33 133.4 61.92 134.96H61.93C62.42 136.28 63.53 137.47 65.65 136.89L66.52 136.6L84.41 129.73C84.41 129.73 84.47 129.7 84.5 129.68C84.91 129.53 85.31 129.37 85.7 129.16L85.82 129.1L95.16 136.68L106.46 120.13L106.45 120.14Z" fill="#FFA28F"/><path d="M82.26 105.29L73.76 100.12L73.45 100.63L81.95 105.81C83.18 106.53 83.64 108.07 82.98 109.26C82.67 109.82 82.16 110.22 81.54 110.39C80.88 110.58 80.17 110.49 79.56 110.15L70.72 104.67L70.4 105.18L79.1 110.57C80.34 111.29 80.76 112.81 80.06 114.05C79.36 115.28 77.78 115.73 76.54 115.04V115.06C76.47 115.02 76.43 114.98 76.37 114.94L66.5 108.88L66.19 109.39L76.06 115.45C77.29 116.16 77.73 117.74 77.03 118.98C76.33 120.22 74.75 120.66 73.52 119.98L65.78 115.23L63.79 114.01L63.48 114.52L73.04 120.38C74.28 121.09 74.73 122.51 74.11 123.71C73.45 124.88 71.79 125.27 70.5 124.56L61.27 118.9L60.96 119.41L70.21 125.08C70.76 125.38 71.35 125.53 71.92 125.53C73 125.53 74.03 125.02 74.59 124.1C75.19 123.04 75.07 121.81 74.41 120.86C74.53 120.87 74.65 120.9 74.77 120.9C75.89 120.9 76.98 120.32 77.56 119.28C78.18 118.19 78.07 116.89 77.41 115.91C77.54 115.93 77.67 115.96 77.8 115.96C78.92 115.96 80.01 115.38 80.59 114.34C81.2 113.25 81.11 111.99 80.45 111.03C80.58 111.05 80.71 111.08 80.84 111.08C81.13 111.08 81.41 111.04 81.69 110.96C82.47 110.74 83.11 110.24 83.49 109.54C84.31 108.07 83.75 106.16 82.24 105.28H82.26V105.29Z" fill="#F5836D"/><path d="M97.21 118.17L90.69 128.8C88.09 133.04 89.39 138.59 93.6 141.24C97.6 143.75 102.85 142.78 105.68 139.01L113.25 128.94C116.58 124.51 115.19 118.14 110.32 115.5L109.28 114.94C105.04 112.64 99.74 114.06 97.22 118.18H97.21V118.17Z" fill="#232144"/></svg>