<svg viewBox="0 0 160 160" fill="none" xmlns="http://www.w3.org/2000/svg"><path fill-rule="evenodd" clip-rule="evenodd" d="M19.336 142.998H140.61V67.5059H19.336V142.998Z" fill="#232144"/><path fill-rule="evenodd" clip-rule="evenodd" d="M30.096 122.55H79.628V90.2119H30.096V122.55Z" fill="#D3E8F3"/><path fill-rule="evenodd" clip-rule="evenodd" d="M60.5361 90.2119H57.7321L36.7721 122.55H39.5751L60.5361 90.2119Z" fill="white"/><path fill-rule="evenodd" clip-rule="evenodd" d="M71.4216 90.2119H65.7426L44.7816 122.55H50.4606L71.4216 90.2119Z" fill="white"/><path fill-rule="evenodd" clip-rule="evenodd" d="M63.678 139.086H65.673V88.5156H63.678V139.086Z" fill="#232144"/><path fill-rule="evenodd" clip-rule="evenodd" d="M96.424 143H124.967V90.2119H96.424V143Z" fill="#463EC5"/><path fill-rule="evenodd" clip-rule="evenodd" d="M144 68.125L125.032 17H34.968L16 68.125H144Z" fill="#7070FF"/><path fill-rule="evenodd" clip-rule="evenodd" d="M115.316 61.1849L108.393 23.7939H52.7065L46.4775 61.1849H115.316Z" fill="#232144"/><path fill-rule="evenodd" clip-rule="evenodd" d="M47.4583 60.3567H114.318L107.701 24.6233H53.4113L47.4583 60.3567ZM116.315 62.0142H45.4973L52.0023 22.9658H109.085L116.315 62.0142Z" fill="#E6E3DA"/><path fill-rule="evenodd" clip-rule="evenodd" d="M50.928 36.457H110.695V36.043H50.928V36.457Z" fill="#E6E3DA"/><path fill-rule="evenodd" clip-rule="evenodd" d="M48.541 48.9326H112.948V48.5186H48.541V48.9326Z" fill="#E6E3DA"/><path fill-rule="evenodd" clip-rule="evenodd" d="M81.8913 36.2294C81.8913 36.7768 81.4463 37.2204 80.8973 37.2204C80.3483 37.2204 79.9023 36.7768 79.9023 36.2294C79.9023 35.6819 80.3483 35.2383 80.8973 35.2383C81.4463 35.2383 81.8913 35.6819 81.8913 36.2294Z" fill="#E6E3DA"/><path fill-rule="evenodd" clip-rule="evenodd" d="M61.7953 61.0386L61.3833 60.9857L66.2263 23.7666L66.6393 23.8196L61.7953 61.0386Z" fill="#E6E3DA"/><path fill-rule="evenodd" clip-rule="evenodd" d="M65.838 36.2294C65.838 36.7768 65.393 37.2204 64.844 37.2204C64.295 37.2204 63.849 36.7768 63.849 36.2294C63.849 35.6819 64.295 35.2383 64.844 35.2383C65.393 35.2383 65.838 35.6819 65.838 36.2294Z" fill="#E6E3DA"/><path fill-rule="evenodd" clip-rule="evenodd" d="M64.1698 48.7342C64.1698 49.2817 63.7248 49.7253 63.1758 49.7253C62.6268 49.7253 62.1808 49.2817 62.1808 48.7342C62.1808 48.1867 62.6268 47.7432 63.1758 47.7432C63.7248 47.7432 64.1698 48.1867 64.1698 48.7342Z" fill="#E6E3DA"/><path fill-rule="evenodd" clip-rule="evenodd" d="M99.9979 61.0376L95.3729 23.8185L95.7859 23.7676L100.411 60.9866L99.9979 61.0376Z" fill="#E6E3DA"/><path fill-rule="evenodd" clip-rule="evenodd" d="M96.1213 36.2294C96.1213 36.7768 96.5663 37.2204 97.1153 37.2204C97.6643 37.2204 98.1103 36.7768 98.1103 36.2294C98.1103 35.6819 97.6643 35.2383 97.1153 35.2383C96.5663 35.2383 96.1213 35.6819 96.1213 36.2294Z" fill="#E6E3DA"/><path fill-rule="evenodd" clip-rule="evenodd" d="M97.7021 48.742C97.7021 49.2895 98.1471 49.7331 98.6961 49.7331C99.2451 49.7331 99.6911 49.2895 99.6911 48.742C99.6911 48.1946 99.2451 47.751 98.6961 47.751C98.1471 47.751 97.7021 48.1946 97.7021 48.742Z" fill="#E6E3DA"/><path fill-rule="evenodd" clip-rule="evenodd" d="M81.8913 48.7088C81.8913 49.2563 81.4463 49.6999 80.8973 49.6999C80.3483 49.6999 79.9023 49.2563 79.9023 48.7088C79.9023 48.1614 80.3483 47.7178 80.8973 47.7178C81.4463 47.7178 81.8913 48.1614 81.8913 48.7088Z" fill="#E6E3DA"/><path fill-rule="evenodd" clip-rule="evenodd" d="M80.689 60.9574H81.105V24.3418H80.689V60.9574Z" fill="#E6E3DA"/><path fill-rule="evenodd" clip-rule="evenodd" d="M102.273 143H104.268V89.2314H102.273V143Z" fill="#232144"/></svg>