<svg viewBox="0 0 160 160" fill="none" xmlns="http://www.w3.org/2000/svg"><path fill-rule="evenodd" clip-rule="evenodd" d="M26.0326 141.591L78.0479 141.662C80.8311 141.666 83.0905 139.632 83.0935 137.119L83.2507 20.627C83.2537 18.114 81.0003 16.074 78.2181 16.07L26.2028 16C23.4197 15.996 21.1613 18.03 21.1572 20.542L21 137.035C20.996 139.547 23.2494 141.587 26.0326 141.591Z" fill="#232144"/><path fill-rule="evenodd" clip-rule="evenodd" d="M45.8258 22.3875C45.8288 22.9435 46.3306 23.3935 46.9455 23.3905L60.9806 23.3295C61.5976 23.3275 62.0953 22.8735 62.0933 22.3175C62.0913 21.7605 61.5886 21.3115 60.9726 21.3145L46.9375 21.3755C46.3206 21.3775 45.8228 21.8315 45.8258 22.3875Z" fill="#463EC5"/><path fill-rule="evenodd" clip-rule="evenodd" d="M42.5869 21.6627C41.8198 22.7447 42.9695 23.9597 43.981 23.1337C44.7482 22.0517 43.5975 20.8377 42.5869 21.6627Z" fill="#463EC5"/><path fill-rule="evenodd" clip-rule="evenodd" d="M82.4334 47.0928H122.05H133.283L122.05 141.738H82.4334L71.2015 47.0928H82.4334Z" fill="#B9C4C5"/><path fill-rule="evenodd" clip-rule="evenodd" d="M130.54 70.8955H73.9437L79.5812 116.21H124.558L130.54 70.8955Z" fill="#463EC5"/><path fill-rule="evenodd" clip-rule="evenodd" d="M130.54 41.0296V31.2456H122.485V23.9146L107.834 31.2456H73.9436V41.0296H66.4834V50.8136H138V41.0296H130.54Z" fill="#463EC5"/><path fill-rule="evenodd" clip-rule="evenodd" d="M70.411 111.595C66.5112 111.595 63.3504 108.431 63.3504 104.528C63.3504 100.626 66.5112 97.4616 70.411 97.4616C74.3109 97.4616 77.4717 100.626 77.4717 104.528C77.4717 108.431 74.3109 111.595 70.411 111.595ZM70.411 65.0566C48.6293 65.0566 30.9717 82.7286 30.9717 104.528C30.9717 126.328 48.6293 144 70.411 144C92.1928 144 109.85 126.328 109.85 104.528C109.85 82.7286 92.1928 65.0566 70.411 65.0566Z" fill="#F7E5CD"/><path fill-rule="evenodd" clip-rule="evenodd" d="M70.411 111.595C66.5111 111.595 63.3503 108.431 63.3503 104.528C63.3503 100.626 66.5111 97.4617 70.411 97.4617C74.3108 97.4617 77.4716 100.626 77.4716 104.528C77.4716 108.431 74.3108 111.595 70.411 111.595ZM100.217 97.4377C98.8458 91.6887 101.172 83.5737 97.1202 79.2727C93.1923 75.1047 85.054 76.9107 79.1742 75.1537C73.2933 73.3967 67.4766 67.4207 61.9082 68.7517C56.1635 70.1247 53.6638 78.1887 49.3673 82.2437C45.203 86.1747 36.9626 88.1247 35.208 94.0097C33.4523 99.8937 39.2751 106.046 40.6051 111.619C41.9762 117.368 39.6497 125.483 43.7018 129.783C47.6297 133.951 55.7679 132.146 61.6478 133.903C67.5276 135.66 73.3454 141.635 78.9138 140.305C84.6584 138.932 87.1582 130.868 91.4546 126.812C95.6189 122.881 103.859 120.932 105.614 115.047C107.37 109.162 101.547 103.011 100.217 97.4377Z" fill="#ED1E79"/><path fill-rule="evenodd" clip-rule="evenodd" d="M58.2131 86.8977L57.7374 86.5677L59.1035 84.5938L59.5792 84.9237L58.2131 86.8977Z" fill="white"/><path fill-rule="evenodd" clip-rule="evenodd" d="M72.5859 83.7593L72.667 84.3333L70.2915 84.6693L70.2103 84.0953L72.5859 83.7593Z" fill="#F7931E"/><path fill-rule="evenodd" clip-rule="evenodd" d="M83.5823 86.9852L83.2318 87.4472L81.3209 85.9952L81.6714 85.5332L83.5823 86.9852Z" fill="#006931"/><path fill-rule="evenodd" clip-rule="evenodd" d="M50.0095 95.8935L49.4888 95.6405L50.5363 93.4805L51.0571 93.7335L50.0095 95.8935Z" fill="#006931"/><path fill-rule="evenodd" clip-rule="evenodd" d="M55.126 95.513L54.7755 95.975L52.8646 94.523L53.2152 94.061L55.126 95.513Z" fill="#F7931E"/><path fill-rule="evenodd" clip-rule="evenodd" d="M90.7544 97.3365H91.3324V94.9355H90.7544V97.3365Z" fill="#F7931E"/><path fill-rule="evenodd" clip-rule="evenodd" d="M65.6373 92.7832L65.7184 93.3572L63.3428 93.6932L63.2617 93.1192L65.6373 92.7832Z" fill="#006931"/><path fill-rule="evenodd" clip-rule="evenodd" d="M76.0812 78.9222L75.6055 78.5922L76.9715 76.6182L77.4472 76.9482L76.0812 78.9222Z" fill="white"/><path fill-rule="evenodd" clip-rule="evenodd" d="M76.2296 96.5814L75.9001 97.0574L73.9281 95.6904L74.2576 95.2144L76.2296 96.5814Z" fill="#7070FF"/><path fill-rule="evenodd" clip-rule="evenodd" d="M66.2202 78.699L65.8907 79.175L63.9187 77.808L64.2482 77.332L66.2202 78.699Z" fill="#7070FF"/><path fill-rule="evenodd" clip-rule="evenodd" d="M72.6387 121.738L73.0002 122.191L71.1274 123.69L70.7659 123.238L72.6387 121.738Z" fill="white"/><path fill-rule="evenodd" clip-rule="evenodd" d="M57.9695 120.63L58.0556 120.057L60.4282 120.415L60.3421 120.988L57.9695 120.63Z" fill="#F7931E"/><path fill-rule="evenodd" clip-rule="evenodd" d="M48.3549 114.39L48.8226 114.048L50.2387 115.986L49.771 116.328L48.3549 114.39Z" fill="#006931"/><path fill-rule="evenodd" clip-rule="evenodd" d="M83.0708 115.467L83.4974 115.859L81.876 117.628L81.4493 117.236L83.0708 115.467Z" fill="#006931"/><path fill-rule="evenodd" clip-rule="evenodd" d="M43.8865 102.253L44.4413 102.419L43.7553 104.719L43.2004 104.554L43.8865 102.253Z" fill="#F7931E"/><path fill-rule="evenodd" clip-rule="evenodd" d="M67.2072 113.973L67.2933 113.4L69.6659 113.758L69.5797 114.331L67.2072 113.973Z" fill="#006931"/><path fill-rule="evenodd" clip-rule="evenodd" d="M52.6538 126.221L53.0154 126.674L51.1426 128.173L50.781 127.721L52.6538 126.221Z" fill="white"/><path fill-rule="evenodd" clip-rule="evenodd" d="M52.7229 103.562L53.0845 104.015L51.2116 105.514L50.8501 105.062L52.7229 103.562Z" fill="white"/><path fill-rule="evenodd" clip-rule="evenodd" d="M58.1434 107.3L58.5951 106.938L60.0944 108.813L59.6417 109.175L58.1434 107.3Z" fill="#7070FF"/><path fill-rule="evenodd" clip-rule="evenodd" d="M62.6227 127.302L63.0744 126.94L64.5736 128.815L64.1209 129.177L62.6227 127.302Z" fill="#7070FF"/><path fill-rule="evenodd" clip-rule="evenodd" d="M88.2314 99.9975L88.5609 99.5215L90.5329 100.888L90.2034 101.364L88.2314 99.9975Z" fill="white"/><path fill-rule="evenodd" clip-rule="evenodd" d="M91.3673 114.382L90.7944 114.463L90.4579 112.086L91.0317 112.005L91.3673 114.382Z" fill="#F7931E"/><path fill-rule="evenodd" clip-rule="evenodd" d="M88.1435 125.388L87.6818 125.038L89.1329 123.125L89.5936 123.476L88.1435 125.388Z" fill="#006931"/><path fill-rule="evenodd" clip-rule="evenodd" d="M79.2432 91.7871L79.4965 91.2661L81.6538 92.3141L81.4014 92.8361L79.2432 91.7871Z" fill="#7070FF"/><path fill-rule="evenodd" clip-rule="evenodd" d="M92.6847 82.2866L92.9381 81.7656L95.0953 82.8136L94.8429 83.3356L92.6847 82.2866Z" fill="#006931"/><path fill-rule="evenodd" clip-rule="evenodd" d="M79.6231 96.9075L79.1614 96.5575L80.6126 94.6445L81.0733 94.9955L79.6231 96.9075Z" fill="#F7931E"/><path fill-rule="evenodd" clip-rule="evenodd" d="M77.8009 133.146H80.1995V132.566H77.8009V133.146Z" fill="#F7931E"/><path fill-rule="evenodd" clip-rule="evenodd" d="M82.3505 107.428L81.7777 107.509L81.4412 105.132L82.015 105.051L82.3505 107.428Z" fill="#006931"/><path fill-rule="evenodd" clip-rule="evenodd" d="M98.2407 117.88L98.5702 117.404L100.542 118.771L100.213 119.247L98.2407 117.88Z" fill="white"/><path fill-rule="evenodd" clip-rule="evenodd" d="M76.5262 124.296L76.8557 123.82L78.8277 125.187L78.4982 125.663L76.5262 124.296Z" fill="white"/><path fill-rule="evenodd" clip-rule="evenodd" d="M78.5557 118.029L78.08 117.699L79.446 115.725L79.9217 116.055L78.5557 118.029Z" fill="#7070FF"/><path fill-rule="evenodd" clip-rule="evenodd" d="M96.4235 108.011L95.9478 107.681L97.3138 105.707L97.7895 106.037L96.4235 108.011Z" fill="#7070FF"/></svg>