<?xml version="1.0" encoding="UTF-8"?><svg id="Joystick" xmlns="http://www.w3.org/2000/svg" viewBox="0 0 160 160"><defs><style>.cls-1{fill:#8c0b24;}.cls-2{fill:#ec2b3b;}.cls-3{fill:#f7b18b;}.cls-4{fill:#231f46;}</style></defs><path class="cls-3" d="M40.89,22.77l14.82-6.31c1.96-.84,4.23.05,5.08,2.01h0c.86,1.96-.04,4.25-2.01,5.1l-18.03,7.75.14-8.55Z"/><path class="cls-4" d="M78.34,57.56c-.15,3.29-.89,6.62-1.92,9.98-2,6.52-5.55,12.87-11.18,16.92-4.67,3.35-10.41,4.79-15.99,5.72-1.71.29-.98,2.89.72,2.6,5.31-.89,10.82-2.26,15.42-5.18,3.37-2.13,6.18-4.99,8.44-8.27,3.58-5.2,5.71-11.41,6.72-17.61.22-1.38.43-2.77.49-4.17.08-1.74-2.62-1.73-2.7,0h0Z"/><path class="cls-3" d="M111.98,53.49c.99-.75.63-11.51.23-14.79-.36-2.92-3.24-8.56-3.24-8.56l8.5-7.2,15.43,26.17-2.68,36.68-19.24,10.07h0c-8.14-7.95-11.64-19.52-9.27-30.65l.98-4.61-10.04-17.72c-.94-1.66-.61-3.74.79-5.03h0c1.88-1.73,4.86-1.34,6.23.82,2.83,4.44,7.07,11.29,8.87,13.93.93,1.37,2.44,1.64,3.43.89"/><path class="cls-3" d="M117.46,22.93l-14.82-6.31c-1.96-.84-4.23.05-5.08,2.01h0c-.86,1.96.04,4.25,2.01,5.1l18.03,7.75-.14-8.55Z"/><polygon class="cls-3" points="135.23 107.5 136.26 111.97 136.59 113.42 136.89 114.68 137.21 116.09 144 144 116.45 144 114.03 122.68 113.72 119.98 113.28 116.15 112.97 113.37 112.41 108.42 112.1 105.74 111.18 97.68 110.88 95.16 111.58 94.99 118.43 85.32 130.21 85.78 133.15 98.52 133.77 101.2 134.61 104.82 135.23 107.5"/><path class="cls-3" d="M46.38,53.33c-.99-.75-1.47-2.54-.34-5.28s7.48-24,7.48-24l-12.62-1.27-15.43,26.17,2.68,36.68,19.24,10.07h0c8.14-7.95,11.64-19.52,9.27-30.65l-.98-4.61,10.04-17.72c.94-1.66.61-3.74-.79-5.03h0c-1.88-1.73-4.86-1.34-6.23.82-2.83,4.44-7.07,11.29-8.87,13.93-.93,1.37-2.44,1.64-3.43.89"/><path class="cls-4" d="M53.08,22.57h6.47c1.22,0,2.21.99,2.21,2.21v3.2h-10.89v-3.2c0-1.22.99-2.21,2.21-2.21Z"/><path class="cls-4" d="M99.38,22.57h6.47c1.22,0,2.21.99,2.21,2.21v3.2h-10.89v-3.2c0-1.22.99-2.21,2.21-2.21Z"/><rect class="cls-4" x="77.62" y="50.68" width="3.66" height="8.45"/><path class="cls-2" d="M115.61,41.03c-1.16-17.66-14.98-15.68-18.12-15.1-2.92.54-8.4,2.49-17.6,2.57-.11,0-.22,0-.33,0-.39,0-.79,0-1.2-.01-8.88-.15-14.12-2.03-16.97-2.56-3.14-.58-16.96-2.56-18.12,15.1-1.12,16.98,2.82,24.6,3.12,25.16.96,2.47,3.36,4.23,6.17,4.23,2.48,0,4.65-1.37,5.78-3.39h.01s7.61-14.92,21.08-14.95c13.47.03,21.08,14.95,21.08,14.95h.01c1.13,2.02,3.29,3.39,5.78,3.39,2.81,0,5.21-1.76,6.17-4.23.3-.56,4.24-8.18,3.12-25.16Z"/><ellipse class="cls-1" cx="79.45" cy="36.17" rx="6.56" ry="2.79"/><circle class="cls-4" cx="102.52" cy="33.16" r="3.19"/><circle class="cls-4" cx="102.52" cy="45.68" r="3.19"/><circle class="cls-4" cx="96.25" cy="39.42" r="3.19"/><circle class="cls-4" cx="108.78" cy="39.42" r="3.19"/><rect class="cls-4" x="53.9" y="29.96" width="4.85" height="6.46" rx="1.15" ry="1.15"/><rect class="cls-4" x="47.68" y="36.18" width="4.85" height="6.48" rx="1.15" ry="1.15" transform="translate(10.69 89.53) rotate(-90)"/><rect class="cls-4" x="53.9" y="42.4" width="4.85" height="6.48" rx="1.15" ry="1.15"/><rect class="cls-4" x="60.12" y="36.18" width="4.85" height="6.47" rx="1.15" ry="1.15" transform="translate(23.13 101.97) rotate(-90)"/><rect class="cls-4" x="73.06" y="46.89" width="4.63" height="1.51"/><rect class="cls-4" x="81.2" y="46.89" width="4.63" height="1.51"/><polygon class="cls-3" points="46.63 102.21 46.26 105.55 45.94 108.28 44.59 120.21 44.28 122.93 41.88 144 16 144 16.03 138.06 20.34 119.38 20.99 116.56 22.57 109.75 23.18 107.07 23.76 104.55 24.45 101.62 25.91 95.29 26.6 92.28 28.14 85.62 39.93 85.16 47.37 95.69 46.94 99.52 46.63 102.21"/><path class="cls-3" d="M28.14,85.62l19.24,10.07h0c8.14-7.95,11.64-19.52,9.27-30.65l-.98-4.61,10.04-17.72c.94-1.66.61-3.74-.79-5.03h0c-1.88-1.73-4.86-1.34-6.23.82-2.83,4.44-7.07,11.29-8.87,13.93-.93,1.37-2.57,4.07-4.37,3.66,0,0-1.98-.4-2.1-2.78"/><path class="cls-4" d="M80.21,142.48c.99-2.76,2.48-5.41,4.28-7.7,2.18-2.78,4.87-5.17,7.94-6.93,3.38-1.94,6.99-2.82,10.83-3.34,3.6-.5,7.19-1.11,10.76-1.83,3.49-.69,6.97-1.49,10.4-2.39,3.29-.86,6.58-1.82,9.77-3,1-.37,2.03-.76,3.02-1.2,1.37-.58,2.68-1.26,3.88-2.11,1.52-1.08,3.14-2.74,2.44-4.77-.04-.14-.11-.28-.18-.41h0c-.42-.87-1.18-1.55-2.09-2.09-1.84-1.1-4.29-1.62-5.9-1.95-.28-.05-.54-.04-.76.05l.62,2.68c1.61.35,3.25.82,4.68,1.66.03,0,.05.03.08.05.42.25.37.22.73.55.04.04.08.07.12.11,0,0,0,0,0,.02,0,0,.02,0,.02.02,0,0,.02,0,.02.02,0,0,0,.02,0,.03.05.06.08.11.1.13,0,0,0,0,0,.05,0,.02,0,.03.02.04,0,0,0,.03,0,.04s0,0,.02,0c0,.02-.02.06-.04.12h0v.03s-.04.07-.08.14c-.03.05-.06.11-.1.16,0,.02-.02.04-.03.04,0,0,0,0,0,0h0c-.61.72-1.09,1.02-1.91,1.51-.73.44-1.49.83-2.26,1.19-1.58.74-3.23,1.33-4.88,1.89-2.01.68-4.04,1.31-6.09,1.86h0c-1.3.36-2.61.69-3.92,1.02-2.65.66-5.3,1.26-7.97,1.79-4.1.84-8.21,1.52-12.35,2.08-7.44.99-14.13,4.95-18.78,10.81-2.02,2.54-3.97,5.75-5.14,9.06l2.76.56Z"/><path class="cls-4" d="M112.41,108.42c-3.45.66-6.87,1.44-10.26,2.31h0c-1.71.44-3.4.9-5.1,1.38h0c-5.23,1.49-10.4,3.14-15.55,4.86-3.7,1.23-7.36,2.45-11.17,3.29-3.78.83-7.61,1.42-11.47,1.85-4.82.54-9.69.82-14.55.82-2.48,0-4.94-.07-7.41-.23-5.04-.31-10.57-.68-15.27-2.68-.43-.18-.85-.4-1.26-.64-1.62-.97-3.02-2.4-3.59-4.19-1.18-3.67,2.31-6.49,5.08-8.14.5-.3.98-.24,1.35.02l-.61,2.68c-1.39.86-3.08,2.06-3.32,3.67-.19,1.27.84,2.39,1.75,3.13.03.03.04.04.07.06,1.37,1.13,3.05,1.51,4.84,1.94,5.44,1.3,11.14,1.58,16.7,1.65.66,0,1.31,0,1.98,0,6.5,0,13.02-.47,19.44-1.5,3.46-.56,6.89-1.28,10.26-2.24,3.84-1.09,7.6-2.49,11.4-3.72,2.17-.7,4.35-1.39,6.53-2.04,1.61-.48,3.22-.95,4.84-1.4,4.93-1.39,9.91-2.6,14.94-3.56.04,0,.07,0,.1,0l.31,2.68Z"/><path class="cls-4" d="M143.35,108.81c-.03.05-.05.12-.08.17-1.31,2.61-3.71,4.45-6.38,5.7-1.62.77-3.35,1.31-4.99,1.67-2.08.47-4.18.72-6.28.82-4.11.18-8.26-.26-12.34-1.02-2.96-.54-5.88-1.24-8.74-1.98-2.51-.65-5.01-1.34-7.51-2.06h0c-1.6-.46-3.2-.94-4.81-1.4-6.26-1.85-12.5-3.76-18.81-5.42-8.65-2.27-17.51-3.88-26.47-3.07-.11,0-.22,0-.31,0l.31-2.69c9.59-.87,19.11.99,28.33,3.47,7.3,1.96,14.52,4.23,21.79,6.32,1.69.5,3.38.97,5.08,1.42h0c.9.25,1.8.5,2.7.73,2.66.69,5.36,1.37,8.12,1.91,5.96,1.16,12.07,1.7,18,.42,1.83-.4,3.64-.96,5.29-1.83.51-.26,1.01-.56,1.49-.88.84-.57,1.56-1.19,2.16-1.93.41-.5.77-1.04,1.07-1.65.04-.1.07-.13.07-.13,0,0,0,0,0,0,0-.03.02-.07.04-.15.04-.14.09-.29.13-.42,0-.03.02-.05.02-.08.04-.13.06-.25.09-.38,0-.05.02-.07.03-.09v-.09c0-.17,0-.34.02-.51,0-.04,0-.14,0-.21h0v-.02c-.03-.09-.1-.44-.14-.58v-.02c-.03-.05-.05-.1-.08-.15-.04-.08-.09-.15-.14-.23-.03,0-.27-.27-.32-.31-.24-.21-.54-.36-.81-.52-1.89-1.11-4.01-1.79-6.1-2.41l-.62-2.68c.25-.13.56-.15.91-.05,2.53.75,5.22,1.58,7.47,3,1.04.64,1.86,1.43,2.28,2.58.57,1.56.23,3.29-.46,4.76Z"/><path class="cls-4" d="M110.98,95.85l.21,1.83c-9.74-.4-19.54.4-28.99,2.83-4.62,1.19-9.08,2.88-13.69,4.12-4.28,1.15-8.64,2.07-13.04,2.71-3.15.46-6.34.79-9.52.95-3.98.18-7.97.07-11.92-.48-3.31-.46-7.34-1.22-10.26-3.25-.67-.47-1.29-1.01-1.82-1.62-1.05-1.22-1.68-2.73-1.52-4.35.32-3.28,2.74-5.34,5.73-6.25.15-.05.31-.06.44-.06l-.69,3.02c-1.16.5-2.14,1.28-2.57,2.57-.21.59-.23.72-.23,1.15,0,.53-.04.38.09.77.16.53.44,1.03.85,1.45.14.14.28.28.41.4.47.42.94.73,1.58,1.09,4.14,2.3,9.38,2.75,14.02,2.91,2.07.07,4.14.04,6.21-.06,5.27-.24,10.51-1.01,15.66-2.12,8.57-1.84,16.7-5.19,25.32-6.81,8.02-1.5,16.2-2,24.35-1.63l-.6.86Z"/><path class="cls-3" d="M130.29,85.86l-19.24,10.07h0c-8.14-7.95-11.64-19.52-9.27-30.65l.98-4.61-10.04-17.72c-.94-1.66-.61-3.74.79-5.03h0c1.88-1.73,4.86-1.34,6.23.82,2.83,4.44,7.07,11.29,8.87,13.93.93,1.37,1.69,3.04,4.51,2.95,0,0,2.56-.15,2.54-4.3"/><path class="cls-4" d="M80.21,142.48c-.15.76-.9,1.26-1.66,1.1s-1.26-.9-1.1-1.66l2.76.56Z"/></svg>