<svg viewBox="0 0 160 160" fill="none" xmlns="http://www.w3.org/2000/svg"><path d="M39.89 143.98L51.13 108.51L20.39 105.44L16.12 144L39.89 143.98Z" fill="#FFC4B8"/><path d="M16 107.69C16 107.69 26.05 83.4502 40.06 83.4502C49.66 83.4502 57.98 89.9002 58.7 99.4602C59.42 109.02 39.1 125.96 39.1 125.96L15.99 107.7L16 107.69Z" fill="#4B7CFE"/><path d="M120.11 143.98L108.87 108.51L139.61 105.44L143.88 144L120.11 143.98Z" fill="#FFC4B8"/><path d="M144 107.5C144 107.5 133.95 83.2598 119.94 83.2598C110.34 83.2598 102.02 89.7098 101.3 99.2698C100.58 108.83 120.9 125.77 120.9 125.77L144.01 107.51L144 107.5Z" fill="#4B7CFE"/><path d="M39.5 143.98L37.47 83.71C37.47 83.71 69.08 73.29 80.33 73.29C90.59 73.29 124.01 83.9 124.01 83.9L121.33 143.98H39.5Z" fill="#4B7CFE"/><path d="M67.25 49.59C67.25 46.53 64.76 44.04 61.69 44.04C58.62 44.04 56.13 46.52 56.13 49.59C56.13 52.66 58.62 55.14 61.69 55.14C64.76 55.14 67.25 52.66 67.25 49.59Z" fill="#FFC4B8"/><path d="M92.75 49.59C92.75 46.53 95.24 44.04 98.31 44.04C101.38 44.04 103.87 46.52 103.87 49.59C103.87 52.66 101.38 55.14 98.31 55.14C95.24 55.14 92.75 52.66 92.75 49.59Z" fill="#FFC4B8"/><path d="M93.72 80.4002V58.9902L66.27 58.9102V80.3902C66.27 85.9602 70.79 90.4802 76.37 90.4802H83.62C89.2 90.4802 93.72 85.9602 93.72 80.3902" fill="#FFA28F"/><path d="M98.36 57.0195V31.4995C98.36 23.2295 91.72 16.5195 83.53 16.5195H76.47C68.28 16.5195 61.64 23.2295 61.64 31.4995V57.0195C61.64 65.2895 68.28 71.9995 76.47 71.9995H83.53C91.72 71.9995 98.36 65.2895 98.36 57.0195Z" fill="#FFC4B8"/><path d="M84.49 46.9897C84.71 48.0997 86.7 48.6297 88.93 48.1797C91.16 47.7297 92.79 46.4697 92.57 45.3697C92.35 44.2597 90.36 43.7297 88.13 44.1797C85.9 44.6297 84.27 45.8897 84.49 46.9897Z" fill="white"/><path d="M86.49 46.1699C86.49 47.2999 87.4 48.2099 88.53 48.2099C89.66 48.2099 90.57 47.2999 90.57 46.1699C90.57 45.0399 89.65 44.1299 88.53 44.1299C87.41 44.1299 86.49 45.0399 86.49 46.1699Z" fill="black"/><path d="M98.42 57.48V43H97.3L92.86 57.48H98.42Z" fill="#8B181D"/><path d="M61.63 57.8401V43.3701H62.74L67.18 57.8401H61.63Z" fill="#8B181D"/><path fill-rule="evenodd" clip-rule="evenodd" d="M61.3101 27.4199H62.8101V57.8399H61.3101V27.4199Z" fill="#8B181D"/><path d="M79.79 63.0101C78.01 63.0101 76.39 62.3401 75.3 61.1301L76.15 60.3701C77.09 61.4101 78.54 61.9501 80.13 61.8601C81.49 61.7801 82.7 61.2401 83.27 60.4501L84.2 61.1101C83.42 62.2001 81.92 62.9001 80.2 63.0001C80.07 63.0001 79.93 63.0101 79.8 63.0101" fill="black"/><path fill-rule="evenodd" clip-rule="evenodd" d="M77.48 36.9096C77.48 36.2996 77.24 35.7096 76.8 35.2796C76.37 34.8496 75.78 34.5996 75.17 34.5996H67.45C66.84 34.5996 66.25 34.8396 65.82 35.2796C65.39 35.7096 65.14 36.2996 65.14 36.9096V38.9496H77.48V36.9096Z" fill="#8B181D"/><path fill-rule="evenodd" clip-rule="evenodd" d="M94.75 36.9096C94.75 36.2996 94.51 35.7096 94.07 35.2796C93.64 34.8496 93.05 34.5996 92.44 34.5996H84.72C84.11 34.5996 83.52 34.8396 83.09 35.2796C82.66 35.7096 82.41 36.2996 82.41 36.9096V38.9496H94.75V36.9096Z" fill="#8B181D"/><path fill-rule="evenodd" clip-rule="evenodd" d="M87.27 57.9496C87.27 57.3396 87.03 56.7496 86.59 56.3196C86.16 55.8896 85.57 55.6396 84.96 55.6396H74.53C73.92 55.6396 73.33 55.8796 72.9 56.3196C72.47 56.7496 72.22 57.3396 72.22 57.9496V59.9897H87.26V57.9496H87.27Z" fill="#8B181D"/><path d="M79.52 55.2901C78.66 55.2901 77.98 54.8701 77.39 54.4901C76.41 53.8701 75.82 53.5001 74.63 54.6901L73.86 53.9201C75.66 52.1201 76.94 52.9301 77.97 53.5701C78.49 53.9001 78.98 54.2001 79.52 54.2001C80.06 54.2001 80.54 53.9201 81.03 53.6201C82.01 53.0201 83.22 52.2801 85.24 53.9501L84.54 54.7901C83.12 53.6201 82.52 53.9901 81.6 54.5501C81.03 54.9001 80.39 55.2901 79.52 55.2901Z" fill="black"/><path fill-rule="evenodd" clip-rule="evenodd" d="M87.27 71.6801C87.27 71.0701 87.03 70.4801 86.59 70.0501C86.16 69.6201 85.57 69.3701 84.96 69.3701H74.53C73.92 69.3701 73.33 69.6101 72.9 70.0501C72.47 70.4801 72.22 71.0701 72.22 71.6801V73.7201H87.26V71.6801H87.27Z" fill="#8B181D"/><path fill-rule="evenodd" clip-rule="evenodd" d="M97.25 27.9697H98.74V57.4697H97.25V27.9697Z" fill="#8B181D"/><path fill-rule="evenodd" clip-rule="evenodd" d="M91.0401 16H69.0101C64.7601 16 61.3101 19.44 61.3101 23.69V31.1H65.8901C69.2401 31.1 71.9501 28.39 71.9501 25.04V20.83C72.3801 23.33 73.5601 25.67 75.3801 27.49C77.7001 29.8 80.8401 31.1 84.1101 31.1H98.7301V23.69C98.7301 19.44 95.2801 16 91.0301 16H91.0401Z" fill="#8B181D"/><path d="M74.91 46.9897C74.69 48.0997 72.7 48.6297 70.47 48.1797C68.24 47.7297 66.61 46.4697 66.83 45.3697C67.05 44.2597 69.0399 43.7297 71.2699 44.1797C73.4999 44.6297 75.13 45.8897 74.91 46.9897Z" fill="white"/><path d="M72.91 46.1699C72.91 47.2999 72 48.2099 70.87 48.2099C69.74 48.2099 68.83 47.2999 68.83 46.1699C68.83 45.0399 69.75 44.1299 70.87 44.1299C71.99 44.1299 72.91 45.0399 72.91 46.1699Z" fill="black"/><path d="M102.08 99.4202C102.13 97.7502 100.82 96.3502 99.15 96.3002C97.48 96.2502 96.08 97.5602 96.03 99.2302L95.69 107.94L86.91 101.21C85.69 100.19 83.87 100.36 82.84 101.57C81.82 102.79 81.97 104.6 83.17 105.63L83.29 105.73L81.9 104.56C80.67 103.53 78.83 103.71 77.82 104.96C76.84 106.17 77.01 107.95 78.2 108.96C77.02 108.35 75.53 108.62 74.65 109.7C73.66 110.92 73.84 112.7 75.04 113.71L77.16 115.48C75.94 114.68 74.3 114.9 73.36 116.06C72.37 117.28 72.55 119.06 73.75 120.07L83.55 127.88L89.45 130.91L101.2 143.98H131.72L102.99 120.77L102.06 99.4202H102.08Z" fill="#FFC4B8"/></svg>