<?xml version="1.0" encoding="utf-8"?><!--Generator: Adobe Illustrator 28.0.0, SVG Export Plug-In . SVG Version: 6.00 Build 0)--><svg version="1.1" xmlns="http://www.w3.org/2000/svg" xmlns:xlink="http://www.w3.org/1999/xlink" x="0px" y="0px" viewBox="0 0 160 160" style="enable-background:new 0 0 160 160;" xml:space="preserve"><style type="text/css">.st0{fill:#463EC5;}
	.st1{fill:#891229;}
	.st2{fill:#B0C2E4;}
	.st3{fill:#E5F0FF;}
	.st4{fill:#4B7CFD;}
	.st5{fill:#254471;}
	.st6{fill:#E4EFFF;}
	.st7{fill:#F7C7A1;}
	.st8{fill:#F7E5CD;}
	.st9{fill:#4B7CFE;}
	.st10{clip-path:url(#XMLID_00000134955105692239312970000013531596145232441763_);fill:#463EC5;}</style><g id="Design"><g><path class="st0" d="M55.3,68.6L48,66.3c-6.7-2.1-13.9-2.2-20.7-0.3l-6.7,1.8c-3.1,0.8-3.3,5.1-0.4,6.1l5.7,2
			c7.1,2.5,15,2.7,22.3,0.6l6.7-1.9C58.1,73.8,58.3,69.5,55.3,68.6z"/><rect x="22.2" y="111.4" class="st1" width="5.7" height="15.8"/><rect x="16" y="105.4" class="st1" width="128" height="6.4"/><rect x="54.2" y="95.2" transform="matrix(3.635133e-03 -1 1 3.635133e-03 -31.975 190.2755)" class="st2" width="50.6" height="32.1"/><rect x="71.2" y="113.7" transform="matrix(2.837083e-03 -1 1 2.837083e-03 -50.5656 208.8203)" class="st3" width="16.4" height="32.1"/><rect x="63.7" y="123.4" transform="matrix(2.825085e-03 -1 1 2.825085e-03 -58.0128 193.6236)" class="st4" width="8.8" height="5.1"/><g><path class="st5" d="M92.2,130.5c0-0.1,0-0.1,0.1-0.1l0.5,0c0.1,0,0.1,0,0.1,0.1l0,3c0,0.1,0,0.1-0.1,0.1l-0.4,0
				c-1.7,0-2.4-2.2-3.4-2.2c-0.5,0-0.7,0.3-0.7,0.8c0,0.4,0.2,0.7,0.3,1.1c0,0.1,0,0.1,0,0.2l-0.4,0.2c-0.1,0.1-0.1,0-0.2-0.1
				c-0.3-0.4-0.5-0.9-0.5-1.4c0-0.6,0.2-1,0.4-1.3c0.2-0.2,0.6-0.4,1-0.4c1.3,0,2.2,2.2,3.1,2.2L92.2,130.5z"/><path class="st5" d="M90.4,129.4c-1.8,0-2.8-0.7-2.8-1.9c0-1.1,0.9-1.8,2.6-1.8c1.8,0,2.8,0.7,2.8,1.9
				C93,128.8,92.2,129.4,90.4,129.4z M90.3,126.7c-1.3,0-1.9,0.3-1.9,0.9c0,0.6,0.7,1,2,1c1.3,0,1.9-0.3,1.9-0.9
				C92.3,127,91.6,126.7,90.3,126.7z"/></g><path class="st6" d="M73.4,120.2c-0.6,0.9-1.4,1.6-2.3,2.3c-2.2,1.6-5,2.3-7.8,1.9c-2.8-0.4-5.2-1.9-6.8-4.2
			c-1.6-2.2-2.3-5-1.9-7.8c0.9-5.7,6.2-9.6,11.9-8.7l0,0c5.7,0.9,9.6,6.2,8.7,11.9C75.1,117.3,74.4,118.9,73.4,120.2z M57.3,108.4
			c-0.9,1.2-1.5,2.6-1.7,4.2c-0.4,2.5,0.2,5.1,1.7,7.1c1.5,2.1,3.7,3.4,6.3,3.8c2.5,0.4,5.1-0.2,7.1-1.7c2.1-1.5,3.4-3.7,3.8-6.3
			c0.8-5.2-2.8-10.1-8-11l0,0C62.8,104,59.3,105.6,57.3,108.4z"/><g><path class="st6" d="M66.6,112.9c0.2,0,0.2,0.1,0.2,0.3l-0.4,2.5c1.2-0.1,2.1-0.6,2.3-2c0.1-0.6,0-1.2-0.1-1.6
				c0-0.2,0-0.3,0.1-0.4l0.8-0.2c0.2-0.1,0.3,0,0.4,0.2c0.2,0.7,0.3,1.6,0.2,2.6c-0.3,2.1-1.8,3.2-4,3.2l-0.1,0.9
				c0,0.2-0.1,0.2-0.3,0.2l-0.7-0.1c-0.2,0-0.2-0.1-0.2-0.3l0.1-0.8l-0.4-0.1c-0.2,0-0.4-0.1-0.5-0.1l-0.1,0.7
				c0,0.1-0.1,0.2-0.3,0.2l-0.7-0.1c-0.2,0-0.2-0.1-0.2-0.3l0.1-0.8c-2-0.8-3.2-2.3-2.9-4.4c0.2-1,0.5-1.7,1-2.2
				c0.1-0.1,0.3-0.2,0.4,0l0.6,0.5c0.1,0.1,0.2,0.3,0.1,0.4c-0.4,0.5-0.6,0.8-0.7,1.5c-0.2,1.2,0.4,2.1,1.7,2.6l0.4-2.6
				c0-0.1,0.1-0.2,0.3-0.2l0.7,0.1c0.2,0,0.2,0.1,0.2,0.3l-0.4,2.7c0.1,0,0.3,0.1,0.5,0.1l0.4,0.1l0.4-2.7c0-0.1,0.1-0.2,0.3-0.2
				L66.6,112.9z"/></g><rect x="46.3" y="97" transform="matrix(0.5894 -0.8078 0.8078 0.5894 -62.0294 104.1239)" class="st7" width="50.2" height="32.1"/><rect x="52.4" y="111.9" transform="matrix(0.5895 -0.8078 0.8078 0.5895 -78.4561 101.4605)" class="st8" width="16.4" height="32.1"/><rect x="49.3" y="115.6" transform="matrix(0.5895 -0.8078 0.8078 0.5895 -73.3815 91.8554)" class="st9" width="8.8" height="5.1"/><g><path class="st1" d="M67.7,135.6c0.3-0.4,0.6-0.6,1-0.7c0.4,0,0.8,0.1,1.2,0.3c0.9,0.7,0.9,1.7,0.3,2.6c-0.3,0.4-0.7,0.7-1.1,0.9
				c-0.1,0-0.1,0-0.2-0.1l-0.2-0.4c0-0.1,0-0.1,0-0.2c0.3-0.2,0.6-0.4,0.8-0.7c0.4-0.6,0.2-1.1-0.2-1.4c-0.5-0.4-1-0.3-1.3,0.2
				c-0.2,0.3-0.3,0.6-0.5,1c0,0.1-0.1,0.1-0.1,0.1l-2.1-1.6c-0.1,0-0.1-0.1,0-0.2l1.6-2.2c0-0.1,0.1-0.1,0.2,0l0.4,0.3
				c0.1,0,0.1,0.1,0,0.2l-1.1,1.6l1.1,0.8C67.4,135.9,67.5,135.8,67.7,135.6z"/><path class="st1" d="M69.7,134.1c-1.5-1.1-1.9-2.2-1.1-3.2c0.7-0.9,1.7-0.9,3.2,0.1c1.5,1.1,1.9,2.2,1.1,3.2
				C72.2,135,71.1,135.1,69.7,134.1z M71.2,131.7c-1-0.8-1.7-0.9-2.1-0.4c-0.4,0.5,0,1.2,1.1,2c1,0.8,1.7,0.9,2.1,0.4
				C72.6,133.2,72.2,132.5,71.2,131.7z"/></g><rect x="133.1" y="111.4" class="st1" width="5.7" height="15.8"/><g><defs><path id="XMLID_00000127766639129970331010000003956833507010968457_" d="M139.1,105.2H26c-2.5,0-4.5-2-4.5-4.5V82.2
					c0-2.5,2-4.5,4.5-4.5h113.1c2.5,0,4.5,2,4.5,4.5v18.4C143.7,103.2,141.6,105.2,139.1,105.2z"/></defs><use xlink:href="#XMLID_00000127766639129970331010000003956833507010968457_" style="overflow:visible;fill:#E6E3DA;"/><clipPath id="XMLID_00000174573204090997547340000016788422937148944538_"><use xlink:href="#XMLID_00000127766639129970331010000003956833507010968457_" style="overflow:visible;"/></clipPath><rect x="54.8" y="74.9" style="clip-path:url(#XMLID_00000174573204090997547340000016788422937148944538_);fill:#463EC5;" width="94.2" height="45.2"/></g><path class="st1" d="M18.9,108.8L18.9,108.8c-1.6,0-2.8-1.3-2.8-2.8V40.7c0-1.6,1.3-2.8,2.8-2.8h0c1.6,0,2.8,1.3,2.8,2.8v65.3
			C21.7,107.5,20.4,108.8,18.9,108.8z"/></g></g><g id="stramien"/></svg>