<?xml version="1.0" encoding="UTF-8"?><svg id="Geldmaat" xmlns="http://www.w3.org/2000/svg" viewBox="0 0 160 160"><defs><style>.cls-1 {
        fill: #232144;
      }

      .cls-2 {
        fill: #e73245;
      }

      .cls-3 {
        fill: #006931;
      }

      .cls-4 {
        fill: #f7e5cd;
      }

      .cls-5 {
        fill: #f7931e;
      }

      .cls-6 {
        fill: #fbb03b;
      }

      .cls-7 {
        fill: #fbb03b;
      }</style></defs><path class="cls-1" d="M60.57,15.9h39.17c6.62,0,11.99,5.37,11.99,11.99v112.59h-63.15V27.89c0-6.62,5.37-11.99,11.99-11.99Z"/><path class="cls-6" d="M60.69,20.03h38.93c4.54,0,8.23,3.69,8.23,8.23v51.79c0,2.55-2.07,4.62-4.62,4.62h-46.15c-2.55,0-4.62-2.07-4.62-4.62V28.26c0-4.54,3.69-8.23,8.23-8.23Z"/><rect class="cls-1" x="55.93" y="35.78" width="36.35" height="27.14"/><g><rect class="cls-1" x="55.93" y="65.67" width="5.05" height="2.58"/><rect class="cls-1" x="62.39" y="65.67" width="5.05" height="2.58"/><rect class="cls-1" x="68.85" y="65.67" width="5.05" height="2.58"/><rect class="cls-1" x="55.93" y="68.82" width="5.05" height="2.58"/><rect class="cls-1" x="62.39" y="68.82" width="5.05" height="2.58"/><rect class="cls-1" x="68.85" y="68.82" width="5.05" height="2.58"/><rect class="cls-1" x="55.93" y="72.04" width="5.05" height="2.58"/><rect class="cls-1" x="62.39" y="72.04" width="5.05" height="2.58"/><rect class="cls-1" x="68.85" y="72.04" width="5.05" height="2.58"/><rect class="cls-1" x="55.93" y="75.58" width="5.05" height="2.58"/><rect class="cls-2" x="74.99" y="65.67" width="5.05" height="2.58"/><rect class="cls-1" x="62.39" y="75.58" width="5.05" height="2.58"/><rect class="cls-5" x="74.99" y="68.82" width="5.05" height="2.58"/><rect class="cls-1" x="68.85" y="75.58" width="5.05" height="2.58"/><rect class="cls-1" x="74.99" y="75.58" width="5.05" height="2.58"/><rect class="cls-3" x="74.99" y="72.04" width="5.05" height="2.58"/></g><rect class="cls-7" x="36.89" y="140.48" width="86.21" height="3.62"/><g><rect class="cls-4" x="84.55" y="65.63" width="20.57" height="5.12"/><rect class="cls-1" x="86.47" y="67.19" width="16.75" height="2.01"/></g><rect class="cls-4" x="94.84" y="35.78" width="10.29" height="2.96"/><circle class="cls-3" cx="99.98" cy="49.35" r="4.48"/><rect class="cls-1" x="96.58" y="49.09" width="6.81" height=".52"/><path class="cls-1" d="M104.13,36.85h-8.29v.31h3.02c.08.56.54,1,1.12,1s1.04-.44,1.12-1h3.02v-.31Z"/><path class="cls-1" d="M91.46,25.99c.34-.29.72-.36,1.14-.26.46.1.8.49.81.96.01.59,0,1.19,0,1.78,0,.19-.16.34-.35.34-.19,0-.33-.15-.33-.35,0-.56,0-1.12,0-1.68,0-.13-.02-.26-.13-.35-.18-.15-.38-.14-.58-.06-.17.07-.23.22-.23.4,0,.55,0,1.1,0,1.65,0,.15-.04.27-.17.35-.21.12-.47,0-.51-.24,0-.04,0-.09,0-.13,0-.54,0-1.07,0-1.61,0-.18-.05-.34-.23-.41-.2-.08-.41-.08-.59.08-.09.09-.11.2-.11.33,0,.53,0,1.06,0,1.59,0,.03,0,.06,0,.1,0,.2-.15.35-.34.35-.19,0-.34-.14-.35-.34,0-.27,0-.53,0-.8,0-.31,0-.62,0-.93,0-.59.42-.99,1.01-1.04.39-.03.54.02.95.29M79.87,28.82c-.03.35-.21.54-.57.55-.31.01-.61-.08-.89-.21-.18-.08-.37-.03-.45.14-.08.18-.02.36.16.45.45.21.91.3,1.4.23.36-.06.67-.21.86-.54.12-.2.16-.43.17-.66.01-.65.02-1.31,0-1.96,0-.38-.19-.7-.53-.9-.45-.27-.94-.28-1.43-.11-.42.15-.67.47-.75.91-.06.37-.04.73.05,1.1.06.21.17.4.35.54.33.25.71.34,1.12.29.17-.02.33-.05.5-.08,0,.09,0,.18,0,.27M79.89,27.82s-.03.09-.05.09c-.28.07-.57.14-.86.08-.28-.06-.44-.23-.46-.55-.02-.2-.01-.39,0-.59.03-.3.22-.48.52-.52.15-.02.31,0,.46.03.24.06.37.23.38.51,0,.16,0,.32,0,.48h0c0,.16,0,.31,0,.47M88.05,25.8c-.38-.14-.77-.14-1.16-.02-.42.13-.7.41-.78.85-.08.41-.08.82,0,1.23.07.39.29.68.67.84.38.15.76.17,1.15.06.59-.16.94-.68.91-1.21-.01-.24,0-.49,0-.73,0-.65,0-1.3,0-1.95,0-.24-.21-.4-.44-.34-.15.04-.24.16-.25.33,0,.28,0,.56,0,.84v.12s-.07-.02-.09-.03M88.14,27.64c-.03.33-.21.5-.53.53-.13.01-.26,0-.39,0-.24-.03-.39-.18-.44-.4-.07-.34-.07-.69,0-1.03.05-.22.21-.35.44-.39.3-.05.59.02.87.11.02,0,.05.06.05.09,0,.17,0,.35,0,.52h0c0,.19.02.38,0,.57M82.02,27.55c.52,0,1.04,0,1.56,0,.24,0,.38-.14.38-.38,0-.17-.02-.34-.05-.5-.08-.4-.29-.7-.68-.85-.34-.14-.69-.15-1.04-.08-.55.11-.88.46-.96,1-.06.36-.05.71,0,1.07.08.5.36.81.84.94.56.16,1.09.03,1.59-.22.14-.07.2-.24.14-.38-.06-.16-.22-.24-.38-.19-.08.02-.15.05-.22.08-.25.1-.51.17-.79.14-.34-.03-.56-.28-.52-.63h.14M81.95,27.01c-.07,0-.09-.03-.08-.09.02-.37.22-.57.59-.59.2,0,.4,0,.57.11.18.13.22.32.22.52,0,.01-.05.04-.07.04-.21,0-.41,0-.62,0h0c-.2,0-.41,0-.61,0M96.78,26.9c-.01-.49-.25-.84-.68-1.06-.31-.16-.66-.18-1-.13-.61.1-.98.45-1.04,1.06-.03.34-.02.69.01,1.03.01.17.09.35.17.5.18.32.5.45.85.5.34.04.67,0,.99-.12.03,0,.07,0,.09.01.12.11.25.15.4.08.15-.07.21-.2.21-.36,0-.26,0-.52,0-.78,0-.25,0-.49,0-.74M96.1,27.98c0,.06-.01.09-.08.11-.26.06-.51.1-.78.09-.27-.02-.44-.14-.49-.4-.07-.35-.07-.7,0-1.04.05-.24.21-.37.45-.39.1,0,.19-.01.29,0,.39.03.59.25.6.64,0,.17,0,.33,0,.5h0c0,.17,0,.34,0,.51M100.08,26.89c-.01-.49-.25-.84-.68-1.05-.32-.16-.67-.18-1.02-.12-.53.08-.9.41-.99.92-.07.41-.06.82,0,1.23.04.25.14.48.34.66.2.17.43.25.69.28.33.04.65,0,.96-.11.04-.01.08-.03.12.01.11.12.24.15.39.09.15-.06.21-.18.2-.34,0-.27,0-.53,0-.8,0-.25,0-.5,0-.76M99.4,27.99s0,.08-.06.09c-.3.08-.6.13-.91.08-.17-.03-.29-.13-.34-.3-.02-.07-.05-.14-.05-.21-.02-.33-.06-.67.05-1,.06-.18.19-.28.38-.3.14-.01.29-.02.43,0,.3.04.48.23.49.54,0,.19,0,.37,0,.56h0c0,.18,0,.37,0,.55M100.7,27.48c0,.21.03.42.1.62.09.26.26.46.51.57.46.21.93.17,1.4.01.06-.02.12-.08.15-.14.06-.11.05-.23-.03-.33-.08-.1-.19-.14-.32-.1-.21.05-.42.08-.63.06-.23-.02-.39-.13-.45-.36-.03-.12-.05-.25-.05-.37,0-.32,0-.65,0-.98,0-.07.02-.09.09-.09.22,0,.44,0,.66,0,.11,0,.21-.02.28-.11.08-.1.1-.21.04-.33-.06-.12-.15-.19-.29-.19-.23,0-.46,0-.7,0-.07,0-.1-.02-.09-.09,0-.19,0-.38,0-.57,0-.21-.15-.35-.35-.35-.19,0-.33.14-.33.35,0,.42,0,.85,0,1.27,0,.37,0,.74,0,1.11M99.77,30.5c.16-.14.19-.36.06-.5-.13-.15-.34-.16-.51-.02-.49.43-1.06.7-1.72.78-.66.08-1.28-.03-1.87-.33-.24-.13-.46-.29-.67-.46-.15-.13-.37-.1-.49.05-.12.15-.09.36.06.48.05.04.09.09.14.12.73.57,1.55.85,2.51.85.91-.02,1.75-.33,2.48-.96M84.57,27.73c0,.46.2.81.59,1.04.12.08.27.06.38-.03.17-.15.16-.38-.05-.53-.16-.11-.23-.26-.23-.45,0-.61,0-1.21,0-1.82,0-.36,0-.72,0-1.08,0-.16-.09-.28-.23-.32-.24-.08-.45.08-.45.34,0,.49,0,.98,0,1.47,0,.46,0,.92,0,1.38"/></svg>