<?xml version="1.0" encoding="UTF-8"?><svg id="phone_and_tablet" xmlns="http://www.w3.org/2000/svg" viewBox="0 0 128 110.09"><defs><style>.cls-1,.cls-2{fill:#232144;}.cls-3{fill:#7d4831;}.cls-4{fill:#e6e3da;}.cls-5{fill:#fff;}.cls-6{fill:#713a22;}.cls-2{fill-rule:evenodd;}.cls-7{fill:#ff6200;}</style></defs><path class="cls-3" d="M112.51,41.95c-1.2-2.08-.52,6.92-2.28,6.93l-5.59.02"/><polyline class="cls-3" points="111.29 93.21 110.12 110.09 128 110.09 126.63 73.36 112.51 41.95"/><path class="cls-3" d="M0,73.15l23.26.09.1-24.34-5.59-.02c-1.76,0-3.45,1.17-4.64,3.25L0,73.15Z"/><path class="cls-6" d="M33.21,65.33h-9.86v14.14s2.48,0,2.48,0c.78,0,1.53-.69,2.05-1.9l5.32-12.24Z"/><polygon class="cls-3" points="0 73.15 0 110.09 17.88 110.09 16.88 72.85 0 73.15"/><rect class="cls-1" x="15.68" y="15.87" width="27.61" height="56.8" rx="2.9" ry="2.9"/><rect class="cls-4" x="16.63" y="17.05" width="25.71" height="54.44" rx="1.97" ry="1.97"/><path class="cls-2" d="M33.63,19.38h-8.28c-1.31,0-2.37-1.06-2.37-2.37h0s3.76,0,3.76,0h9.25c0,1.31-1.06,2.37-2.37,2.37Z"/><rect class="cls-4" x="25.94" y="17.9" width="7.1" height=".67"/><path class="cls-3" d="M12.89,73.23h12.6v20.32h-1.19c-6.3,0-11.41-5.11-11.41-11.41v-8.91h0Z" transform="translate(38.04 166.85) rotate(-179.77)"/><path class="cls-3" d="M9.03,62.39h24.89v4.15c0,2.29-1.86,4.15-4.15,4.15H13.18c-2.29,0-4.15-1.86-4.15-4.15v-4.15h0Z" transform="translate(88.02 45.06) rotate(90)"/><rect class="cls-1" x="42.07" y="12.92" width="83.9" height="58.06" rx="5.22" ry="5.22" transform="translate(125.98 -42.07) rotate(90)"/><rect class="cls-4" x="44.32" y="14.88" width="79.4" height="54.15" rx="3.18" ry="3.18" transform="translate(125.98 -42.07) rotate(90)"/><path class="cls-3" d="M96.84,73.02h24.89v4.15c0,2.29-1.86,4.15-4.15,4.15h-16.6c-2.29,0-4.15-1.86-4.15-4.15v-4.15h0Z" transform="translate(116.35 210.77) rotate(-128.25)"/><path class="cls-3" d="M107.37,78.01h10.88v15.69h-2.8c-4.46,0-8.08-3.62-8.08-8.08v-7.61h0Z"/><path class="cls-5" d="M34.3,49.97h-9.62c-1.76,0-3.21-1.44-3.21-3.21v-9.62c0-1.76,1.44-3.21,3.21-3.21h9.62c1.76,0,3.21,1.44,3.21,3.21v9.62c0,1.76-1.44,3.21-3.21,3.21"/><path class="cls-7" d="M37.5,45.84c-.42-.23-.99-.54-1.09-.58-.26-.06-.39-.2-.65-.26v-.52c.37.11,1.02.17,1.74.46v.91ZM34.26,35.13c-.13.46-.2,1.05-.52,1.18-.13.06-.2.06-.26.06v-.52c0-.07.26-.52.2-.59,0,0-.59.13-.72.2-.07.07-.46.26-.52.26,0,0-.2-.07-.26-.07-.2-.13-.33-.13-.52-.26-.26.78-.33.98-.33.85,0,0-.91-.59-1.24-.98-.85.13-.85.26-1.57.52-.26.26-.65.59-.91.98-.13.26-.26.39-.39.65l.65.26c.07-.06.39-.52.46-.65.46-.26,1.24-.72,1.5-.98.07.13.85.59,1.18.78.26.2.52.26.78.39.13-.2.26-.39.39-.85.2.13.46.13.65.2,0,.26,0,.52.07.78,0,.13.13.07.39-.06.39-.13.78-.2.98-.26.46-.26.72-.78,1.11-.78.33,0,.92.2,1.05.33.2.07.33.13.52.13s.34-.13.49-.26c.05.23.08.47.08.71v7.34c-.72-.29-1.3-.41-1.81-.41,0-.07-.13-.13,0-.2.19-.13.26-.2.33-.26.19-.26.32-.52.39-.78.2-.39.39-.26.52-1.11-.19,0-.26.13-.46.19.07-.19.13-.39.13-.59.06-.39.2-.65.2-1.11.2-.07.52-.26.59-.52,0-.07,0-.26.07-.52,0-.39.07-.72-.07-.98,0-.07-.46-.72-.78-.91-.46-.2-.65-.13-.98-.07-.39,0-.91.39-.91,1.11-.39,0-1.18.07-1.63.46-.39-.2-.72-.26-1.05-.33h-.59c-.07-.26-.2-.52-.46-.72-.33-.2-.72-.46-1.18-.46-.2,0-.39-.07-.59.06-.2.13-.52.26-.59.52-.13.33-.26.59-.26.91s.19.59.39.92c.07.13.13.13.26.2.07,0,.33.13.39.19.06.07-.07.26-.07.65q0,.33.07.59c0,.26.06.52.13.72-.2,0-.33-.2-.46-.06,0,.13.13.45.26.72.33.33.65.65.85,1.04,0,.07,0,.2.07.2-.46.07-.92.07-1.37.2-.39.13-.85.33-1.24.52,0,.26.06.46.06.46.07,0,.66-.33,1.18-.46.85-.26,1.31-.2,1.31-.2.07.13.13.33.07.39-.79.33-1.57.72-2.29,1.18.07.13,0,.33.13.46.65-.39,1.57-.85,2.22-1.11.26-.07.26,0,.39,0,.06.07.2.33.33.33.2,0,.39-.2.59-.26.39-.13.72-.26,1.11-.33.13-.07.13-.2.13-.33q.07-.13.07-.33c0-.07-.26-.13-.39-.39-.13-.2,0-.39-.06-.39-.2.13-.46.26-.52,0-.07-.2-.07-.46.13-.52.65-.26,1.37-.26,2.03,0,.13,0,.19.13.19.26.07.13,0,.26-.13.39-.2.06-.39-.2-.39,0s-.13.46-.46.59c-.07.07,0,.26.07.46,0,.07,0,.19.06.19.26.07.66.13.85.26.26.13.72.52.78.46.2-.13.26-.33.39-.46.66.3,1.21.49,2,.98v.47c0,.5-.12.98-.32,1.4-.07-.13-.11-.24-.11-.29q-.13-.06-.33-.06c-.07-.07-.2-.07-.26-.07,0,0,.07.33.2.65.06.11.15.21.22.25-.18.25-.4.48-.65.67-.07-.2-.1-.35-.1-.39-.13-.13.13-.59-.2-.59-.13-.06-.52-.2-.52-.2-.07.2-.07.59,0,.78,0,.14.18.5.32.7-.25.13-.52.23-.8.28-.04-.17-.08-.35-.11-.47v-1.04c-.26.06-.33.13-.39.13-.2.13-.33.2-.33.33,0,.26.06.52.06.65,0,.2,0,.33.07.39.1.03.16.05.23.07-.06,0-.13,0-.19,0h-.92c.12-.17.23-.29.29-.47.06-.19,0-.52-.07-.85-.26.07-.78.13-.78.33-.07.2,0,.39,0,.52.07.13.07.26.07.46,0,0,0,0,0,.01h-.53c-.02-.1-.05-.2-.05-.27-.07-.2,0-.39-.07-.59-.07-.13-.2-.19-.33-.19s-.46-.2-.46-.07c-.33,0-.07.33-.07.52,0,.14.19.4.36.6h-4.46c.06-.04.12-.08.18-.14.13-.2.52-.59.65-.72-.13-.13-.2-.32-.26-.46-.26,0-1.24.39-1.24.39.18.29.3.59.42.93h-2.35c-1.77,0-3.21-1.44-3.21-3.21v-9.62c0-1.77,1.44-3.21,3.21-3.21h9.62c1.42,0,2.62.92,3.05,2.2-.52-.34-1.08-.66-1.65-.88-.39.33-.65.59-.85.59s-.07-.39-.07-.65c-.2,0-.32,0-.52-.07M34.65,43.23c-.07-.13-.13-.26-.2-.39-.13-.13-.2-.13-.39-.26,0-.46-.07-.46-.07-.92,0-.06-.13-.78-.13-.78,0-.07.19-.26.39-.33,0,0,1.24,0,1.83.06,0,0-.06.13-.13.13-.07.13-.2.2-.33.26-.06,0-.13.13-.13.2-.13.19-.33.26-.59.26-.13,0-.39,0-.52-.26,0,0,.07.78.07.98,0,.07.06.07.06.07.26.07.33.33.46.46,0,0,.06.07.13.07.26.19.85.46.59.46,0,.13-.2.46-.26.46-.2-.2-.52-.33-.78-.46M35.3,44.4c0,.07-.07.39-.07.39-.26-.06-.46-.26-.78-.26q0-.19.06-.26c.39-.07.59.07.78.13M33.6,39.31c-.26-.26.39-.07.72,0,.13,0,1.24.26.52.59-.13.13-.46.06-.78.06,0-.13,0-.39-.13-.39-.13-.13-.33-.13-.33-.26M35.56,38c.2-.2.46-.26.72-.2.33.07.39.13.52.26.2.26.13.78.07,1.11-.07.2-.26.33-.46.33-.33-.39-.65-.65-1.11-.78-.07-.26.13-.52.26-.72M31.51,43.03c-.07.19-.07.33-.26.39-.2.06-.33.26-.46.2-.2-.13-.13-.46,0-.65.13-.19.39-.33.59-.39.26-.07.2-.59.2-.65.07-.13,0-.33,0-.46-.13.07-.13,0-.39.07-.26,0-.39-.13-.52-.26-.13-.13-.46-.39-.59-.66.33-.06.59-.06.92-.06h.85c.2.06.33.2.33.33,0,.07-.06.46-.06.52-.07.39-.07.52-.13,1.11v.2c-.07.13-.33.2-.46.33M31.64,44.4c-.07.07-.33.2-.33.2-.13.07-.2.13-.39.19-.07-.13-.13-.39-.13-.39,0,0,.26-.06.46-.06.13,0,.26,0,.39.06M29.68,39.63c-.13-.13-.39-.33-.52-.59-.2-.26-.13-.52-.13-.59.13-.39.59-.52.85-.59.13,0,.26,0,.46.13.26.13.39.13.52.59,0,.06,0,.13-.06.13,0,0-.39.26-.52.39-.33.19-.39.52-.59.52M31.64,40.03h-.33c0-.2.13-.26.33-.46.2-.13.39-.26.52-.26.13-.07.39-.13.39,0,0,.26-.19.39-.39.65-.13.2-.2.06-.52.06"/><path class="cls-7" d="M34.46,44.53c.32,0,.52.2.78.26,0,0,.07-.33.07-.39-.2-.06-.39-.2-.78-.13q-.06.07-.06.26"/><path class="cls-7" d="M35.7,43.23c.26,0-.33-.26-.59-.46-.07,0-.13-.07-.13-.07-.13-.13-.2-.39-.46-.46,0,0-.06,0-.06-.07,0-.19-.07-.98-.07-.98.13.26.39.26.52.26.26,0,.46-.07.59-.26,0-.07.07-.2.13-.2.13-.07.26-.13.33-.26.07,0,.13-.13.13-.13-.59-.06-1.83-.06-1.83-.06-.2.06-.39.26-.39.33,0,0,.13.72.13.78,0,.46.07.46.07.92.2.13.26.13.39.26.06.13.13.26.2.39.26.13.59.26.78.46.06,0,.26-.33.26-.46"/><path class="cls-7" d="M36.41,39.5c.2,0,.39-.13.46-.33.06-.33.13-.85-.07-1.11-.13-.13-.2-.2-.52-.26-.26-.07-.52,0-.72.2-.13.2-.33.46-.26.72.46.13.78.39,1.11.78"/><path class="cls-7" d="M34.06,39.96c.33,0,.65.06.78-.06.72-.33-.39-.59-.52-.59-.33-.07-.98-.26-.72,0,0,.13.2.13.33.26.13,0,.13.26.13.39"/><path class="cls-7" d="M34.84,35.84c.2,0,.46-.26.85-.59.56.23,1.12.55,1.65.88-.42-1.28-1.63-2.2-3.05-2.2h-9.62c-1.77,0-3.21,1.44-3.21,3.21v9.62c0,1.77,1.44,3.21,3.21,3.21h2.35c-.12-.34-.24-.63-.42-.93,0,0,.98-.39,1.24-.39.07.13.13.33.26.46-.13.13-.52.52-.65.72-.06.06-.12.1-.18.14h4.46c-.18-.2-.36-.46-.36-.6,0-.2-.26-.52.07-.52,0-.13.33.07.46.07s.26.07.33.19c.07.2,0,.39.07.59,0,.08.03.17.05.27h.53s0,0,0-.01c0-.2,0-.33-.07-.46,0-.13-.07-.33,0-.52,0-.19.52-.26.78-.33.07.33.13.65.07.85-.06.18-.17.3-.29.47h.92c.06,0,.13,0,.19,0-.07-.02-.13-.04-.23-.07-.07-.07-.07-.2-.07-.39,0-.13-.06-.39-.06-.65,0-.13.13-.2.33-.33.06,0,.13-.07.39-.13v1.04c.03.12.07.3.11.47.28-.06.55-.16.8-.28-.14-.2-.32-.56-.32-.7-.07-.2-.07-.59,0-.78,0,0,.39.13.52.2.33,0,.07.46.2.59,0,.04.02.19.1.39.25-.19.46-.41.65-.67-.07-.03-.17-.14-.22-.25-.13-.33-.2-.65-.2-.65.07,0,.2,0,.26.07q.19,0,.33.06c0,.06.05.17.11.29.21-.42.32-.9.32-1.4v-.47c-.79-.49-1.34-.67-2-.98-.13.13-.19.33-.39.46-.07.06-.52-.33-.78-.46-.19-.13-.59-.19-.85-.26-.06,0-.06-.13-.06-.19-.07-.2-.13-.39-.07-.46.33-.13.46-.39.46-.59s.19.06.39,0c.13-.13.2-.26.13-.39,0-.13-.06-.26-.19-.26-.66-.26-1.37-.26-2.03,0-.2.06-.2.32-.13.52.07.26.33.13.52,0,.06,0-.07.2.06.39.13.26.39.33.39.39q0,.2-.07.33c0,.13,0,.26-.13.33-.39.07-.72.19-1.11.33-.2.07-.39.26-.59.26-.13,0-.26-.26-.33-.33-.13,0-.13-.07-.39,0-.65.26-1.57.72-2.22,1.11-.13-.13-.07-.33-.13-.46.72-.46,1.5-.85,2.29-1.18.06-.07,0-.26-.07-.39,0,0-.46-.07-1.31.2-.52.13-1.11.46-1.18.46,0,0-.06-.2-.06-.46.39-.2.85-.39,1.24-.52.46-.13.92-.13,1.37-.2-.07,0-.07-.13-.07-.2-.2-.39-.52-.72-.85-1.04-.13-.26-.26-.59-.26-.72.13-.13.26.06.46.06-.07-.2-.13-.46-.13-.72q-.07-.26-.07-.59c0-.39.13-.59.07-.65-.07-.06-.33-.19-.39-.19-.13-.07-.2-.07-.26-.2-.2-.33-.39-.59-.39-.92s.13-.59.26-.91c.07-.26.39-.39.59-.52.2-.13.39-.06.59-.06.46,0,.85.26,1.18.46.26.2.39.46.46.72h.59c.33.06.65.13,1.05.33.46-.39,1.24-.46,1.63-.46,0-.72.52-1.11.91-1.11.33-.07.53-.13.98.07.33.2.78.85.78.91.13.26.07.59.07.98-.07.26-.07.46-.07.52-.06.26-.39.46-.59.52,0,.46-.13.72-.2,1.11,0,.2-.07.39-.13.59.2-.07.26-.19.46-.19-.13.85-.33.72-.52,1.11-.07.26-.2.52-.39.78-.07.06-.13.13-.33.26-.13.07,0,.13,0,.2.5,0,1.09.12,1.81.41v-7.34c0-.24-.03-.48-.08-.71-.15.12-.3.26-.49.26s-.33-.06-.52-.13c-.13-.13-.72-.33-1.05-.33-.39,0-.65.52-1.11.78-.2.07-.59.13-.98.26-.26.13-.39.2-.39.06-.07-.26-.07-.52-.07-.78-.2-.07-.46-.07-.65-.2-.13.46-.26.65-.39.85-.26-.13-.52-.2-.78-.39-.33-.2-1.11-.65-1.18-.78-.26.26-1.04.72-1.5.98-.07.13-.39.59-.46.65l-.65-.26c.13-.26.26-.39.39-.65.26-.39.65-.72.91-.98.72-.26.72-.39,1.57-.52.33.39,1.24.98,1.24.98,0,.13.07-.07.33-.85.2.13.33.13.52.26.07,0,.26.07.26.07.07,0,.46-.2.52-.26.13-.07.72-.2.72-.2.06.07-.2.52-.2.59v.52c.07,0,.13,0,.26-.06.33-.13.39-.72.52-1.18.2.07.33.07.52.07,0,.26-.13.65.07.65M33.01,45.65c.66,0,1.31.07,1.83.39,0,.26,0,.59-.13.85,0,.07-.13.33-.26.46-.2-.26-.59-.52-.59-.52.06.26,0,.33-.07.65,0,.06-.46.06-.46.06-.39-.2-.46-.46-.46-.46,0,.06-.07.52-.33.52s-.46,0-.46-.2c-.07-.19-.07-.33-.07-.52v-.26c-.2.07-.33.26-.46.39-.06,0-.13-.13-.2-.13-.13-.26-.2-.46-.26-.72.65-.46,1.31-.52,1.89-.52M30.07,47.61c.07-.07.2.06.26.06.2.13.26.26.33.39.07.13.13.46.13.46,0,.46-.2.59-.26.85-.13-.2-.2-.46-.26-.65-.07-.2-.2-.33-.33-.52.07-.06.13-.59.13-.59M28.77,47.08c.13.06.33.13.39.26.13.2,0,.46.06.65.06.33.26.91.26.91-.2-.13-.39-.2-.59-.33-.13-.06-.26-.13-.26-.2-.07-.2-.13-.65-.13-.78,0-.26.13-.52.26-.52M26.29,47.08c-.07-.2-.07-.39-.13-.59,0-.2-.06-.92-.06-1.05v-.33c.26-.13.59-.33.85-.46-.06.33-.13.46-.13.98,0,.13.13.52.2.98-.13.26-.2.46-.39.65-.07.13-.2.2-.2.2,0-.13-.07-.26-.13-.39M26.87,48.45c0,.13-.2.26-.2.26,0-.26-.06-.59-.06-.72-.07-.13-.13-.2-.13-.33.06-.06.19-.13.33-.19.07-.13.39-.33.46-.39.2.2.26.26.39.59-.06.07-.46.39-.78.78M27.79,43.23c-.65.33-.91.65-1.05.78-.2.26-.59.65-.72.85l-.07-.78q-.06-.2-.06-.59c.33-.19.46-.32.78-.52.13-.13.59-.26,1.24-.46,0,.26-.07.46-.13.72M28.05,41.01c.07.13-.07.13-.07.52-.07.13-.13.07-.26.2-.06.06-.78.59-.85.65-.13.06-.2.13-.39.33-.07-.2-.07-.39-.13-.59,0-.07,0-.52.07-.72,0-.13.59-.33.92-.39.13,0,.65-.13.72,0M27.72,37.87c-.06.46-.13.59-.13,1.11,0,.07.13.39.2.52.06.13.13.26.13.39,0,.06-.07.13-.13.19-.2.13-.26.07-.33.2-.33.26-.46.39-.72.59q-.13.13-.26.33s-.07-.72-.13-1.11c.26-.13.39-.26.65-.46-.07-.39-.13-.65-.13-.98,0-.2,0-.39.13-.59.13-.26.46-.26.72-.2"/><path class="cls-7" d="M35.76,44.99c.26.07.39.2.65.26.1.05.67.35,1.09.58v-.91c-.72-.29-1.38-.35-1.74-.46v.52Z"/><path class="cls-7" d="M32.56,39.31c0-.13-.26-.07-.39,0-.13,0-.33.13-.52.26-.2.2-.33.26-.33.46h.33c.33,0,.39.13.52-.06.2-.26.39-.39.39-.65"/><path class="cls-7" d="M31.97,42.71v-.2c.07-.59.07-.72.13-1.11,0-.07.06-.46.06-.52,0-.13-.13-.26-.33-.33h-.85c-.33,0-.59,0-.92.06.13.26.46.52.59.66.13.13.26.26.52.26.26-.07.26,0,.39-.07,0,.13.07.33,0,.46,0,.07.07.59-.2.65-.2.07-.46.2-.59.39-.13.2-.2.52,0,.65.13.06.26-.13.46-.2.2-.06.2-.2.26-.39.13-.13.39-.2.46-.33"/><path class="cls-7" d="M30.86,38.59c-.13-.46-.26-.46-.52-.59-.2-.13-.33-.13-.46-.13-.26.06-.72.2-.85.59,0,.06-.07.33.13.59.13.26.39.46.52.59.19,0,.26-.33.59-.52.13-.13.52-.39.52-.39.06,0,.06-.07.06-.13"/><path class="cls-7" d="M30.79,44.4s.06.26.13.39c.2-.06.26-.13.39-.19,0,0,.26-.13.33-.2-.13-.06-.26-.06-.39-.06-.2,0-.46.06-.46.06"/><path class="cls-5" d="M30.53,49.37c.06-.26.26-.39.26-.85,0,0-.06-.33-.13-.46-.07-.13-.13-.26-.33-.39-.06,0-.2-.13-.26-.06,0,0-.06.52-.13.59.13.2.26.33.33.52.06.2.13.46.26.65"/><path class="cls-5" d="M28.9,48.59c.2.13.39.2.59.33,0,0-.2-.59-.26-.91-.06-.2.06-.46-.06-.65-.07-.13-.26-.2-.39-.26-.13,0-.26.26-.26.52,0,.13.07.59.13.78,0,.06.13.13.26.2"/><path class="cls-5" d="M31.58,47.02c.13-.13.26-.33.46-.39v.26c0,.2,0,.33.07.52,0,.2.2.2.46.2s.33-.46.33-.52c0,0,.07.26.46.46,0,0,.46,0,.46-.06.07-.33.13-.39.07-.65,0,0,.39.26.59.52.13-.13.26-.39.26-.46.13-.26.13-.59.13-.85-.52-.33-1.17-.39-1.83-.39-.59,0-1.24.07-1.89.52.07.26.13.46.26.72.07,0,.13.13.2.13"/><path class="cls-5" d="M27.33,41.01c-.33.06-.92.26-.92.39-.07.2-.07.65-.07.72.07.2.07.39.13.59.19-.2.26-.26.39-.33.06-.06.78-.59.85-.65.13-.13.2-.07.26-.2,0-.39.13-.39.07-.52-.07-.13-.59,0-.72,0"/><path class="cls-5" d="M27.01,38.07c-.13.19-.13.39-.13.59,0,.33.06.59.13.98-.26.2-.39.33-.65.46.07.39.13,1.11.13,1.11q.13-.2.26-.33c.26-.2.39-.33.72-.59.07-.13.13-.07.33-.2.06-.06.13-.13.13-.19,0-.13-.07-.26-.13-.39-.07-.13-.2-.46-.2-.52,0-.52.06-.65.13-1.11-.26-.07-.59-.07-.72.2"/><path class="cls-5" d="M25.89,43.49q0,.39.06.59l.07.78c.13-.2.52-.59.72-.85.13-.13.39-.46,1.05-.78.06-.26.13-.46.13-.72-.65.2-1.11.33-1.24.46-.32.2-.46.33-.78.52"/><path class="cls-5" d="M26.61,47.28c.2-.2.26-.39.39-.65-.07-.46-.2-.85-.2-.98,0-.52.07-.65.13-.98-.26.13-.59.33-.85.46v.33c0,.13.06.85.06,1.05.07.2.07.39.13.59.06.13.13.26.13.39,0,0,.13-.07.2-.2"/><path class="cls-5" d="M26.81,47.48c-.13.06-.26.13-.33.19,0,.13.06.2.13.33,0,.13.06.46.06.72,0,0,.2-.13.2-.26.33-.39.72-.72.78-.78-.13-.33-.2-.39-.39-.59-.07.06-.39.26-.46.39"/><path class="cls-5" d="M92.38,55.88h-16.72c-3.06,0-5.57-2.51-5.57-5.57v-16.72c0-3.06,2.51-5.57,5.57-5.57h16.72c3.06,0,5.57,2.51,5.57,5.57v16.72c0,3.06-2.51,5.57-5.57,5.57"/><path class="cls-7" d="M97.95,48.7c-.73-.4-1.72-.93-1.89-1.02-.45-.11-.68-.34-1.13-.45v-.91c.63.18,1.78.29,3.03.79v1.59ZM92.32,30.09c-.23.79-.34,1.82-.91,2.04-.23.11-.34.11-.45.11v-.91c0-.11.45-.91.34-1.02,0,0-1.02.23-1.25.34-.11.11-.79.45-.91.45,0,0-.34-.12-.46-.12-.34-.23-.57-.23-.91-.45-.45,1.36-.57,1.7-.57,1.48,0,0-1.59-1.02-2.16-1.7-1.47.23-1.47.46-2.72.91-.46.45-1.14,1.02-1.59,1.71-.23.45-.46.68-.68,1.13l1.13.45c.11-.11.68-.91.8-1.13.8-.45,2.16-1.25,2.61-1.71.11.23,1.47,1.02,2.05,1.36.45.34.91.46,1.36.68.23-.34.45-.68.68-1.48.34.23.8.23,1.14.34,0,.45,0,.91.11,1.36,0,.23.23.11.68-.11.68-.23,1.36-.34,1.7-.45.8-.45,1.25-1.36,1.93-1.36.57,0,1.59.34,1.82.57.34.11.57.23.91.23s.59-.23.85-.45c.09.4.14.81.14,1.23v12.76c-1.25-.51-2.27-.71-3.14-.71,0-.12-.23-.23,0-.34.34-.23.45-.34.57-.45.34-.45.56-.91.68-1.36.34-.68.68-.46.91-1.93-.34,0-.45.23-.79.34.11-.34.23-.68.23-1.02.11-.68.34-1.13.34-1.93.34-.11.91-.45,1.02-.91,0-.11,0-.46.11-.91,0-.68.12-1.25-.11-1.7,0-.11-.79-1.25-1.36-1.59-.79-.34-1.14-.23-1.71-.11-.68,0-1.59.68-1.59,1.93-.68,0-2.05.11-2.84.8-.68-.34-1.25-.46-1.82-.57h-1.02c-.11-.46-.34-.91-.79-1.25-.57-.34-1.25-.79-2.05-.79-.34,0-.68-.11-1.02.11-.34.23-.91.46-1.02.91-.23.57-.45,1.02-.45,1.59s.34,1.02.68,1.59c.11.23.23.23.45.34.11,0,.57.22.68.34.11.12-.11.46-.11,1.14q0,.57.11,1.02c0,.46.11.91.23,1.25-.34,0-.57-.34-.8-.11,0,.23.23.79.46,1.25.57.57,1.13,1.14,1.47,1.81,0,.12,0,.34.12.34-.8.11-1.59.11-2.39.34-.68.23-1.48.57-2.16.91,0,.45.11.8.11.8.12,0,1.14-.57,2.04-.8,1.48-.46,2.27-.34,2.27-.34.12.23.23.57.12.68-1.37.57-2.73,1.25-3.98,2.04.11.23,0,.57.23.8,1.14-.68,2.73-1.48,3.86-1.93.45-.11.45,0,.68,0,.11.11.34.57.57.57.34,0,.68-.34,1.02-.46.68-.23,1.25-.45,1.93-.57.23-.12.23-.34.23-.57q.11-.22.11-.57c0-.11-.45-.23-.68-.68-.23-.34,0-.68-.11-.68-.34.23-.79.45-.91,0-.11-.34-.11-.8.23-.91,1.13-.46,2.38-.46,3.52,0,.23,0,.34.23.34.45.12.23,0,.45-.23.68-.34.11-.68-.34-.68,0s-.23.79-.79,1.02c-.12.11,0,.46.11.8,0,.11,0,.34.11.34.45.12,1.14.23,1.48.45.45.23,1.25.91,1.36.8.34-.23.45-.57.68-.8,1.15.52,2.1.85,3.48,1.7v.82c0,.87-.2,1.7-.56,2.43-.12-.22-.2-.42-.2-.51q-.23-.11-.57-.11c-.12-.11-.34-.11-.46-.11,0,0,.11.57.34,1.13.1.19.27.37.39.43-.32.44-.7.83-1.12,1.16-.13-.35-.17-.62-.17-.68-.23-.23.23-1.02-.34-1.02-.23-.11-.91-.34-.91-.34-.12.34-.12,1.02,0,1.36,0,.25.31.87.56,1.22-.43.22-.9.39-1.39.49-.07-.29-.14-.61-.19-.81v-1.81c-.45.11-.57.23-.68.23-.34.23-.57.34-.57.57,0,.45.11.91.11,1.13,0,.34,0,.57.11.68.17.05.28.08.4.12-.11,0-.22.01-.33.01h-1.59c.2-.29.4-.51.5-.82.11-.34,0-.91-.12-1.47-.45.11-1.36.23-1.36.57-.11.34,0,.68,0,.91.11.23.11.46.11.8,0,0,0,.01,0,.02h-.93c-.04-.17-.09-.34-.09-.47-.11-.34,0-.68-.11-1.02-.12-.23-.34-.34-.57-.34s-.79-.34-.79-.11c-.57,0-.11.57-.11.91,0,.25.33.69.63,1.04h-7.75c.1-.07.2-.15.31-.25.23-.34.91-1.02,1.14-1.25-.23-.23-.34-.56-.46-.79-.45,0-2.15.68-2.15.68.3.51.52,1.02.72,1.61h-4.09c-3.08,0-5.57-2.49-5.57-5.57v-16.72c0-3.08,2.49-5.57,5.57-5.57h16.72c2.47,0,4.56,1.6,5.29,3.83-.91-.58-1.88-1.14-2.86-1.53-.68.57-1.14,1.02-1.48,1.02s-.11-.68-.11-1.13c-.34,0-.56,0-.91-.11M93,44.17c-.12-.23-.23-.45-.34-.68-.23-.23-.34-.23-.69-.46,0-.79-.11-.79-.11-1.59,0-.11-.22-1.36-.22-1.36,0-.11.34-.46.68-.57,0,0,2.16,0,3.18.11,0,0-.11.23-.23.23-.12.23-.34.34-.57.46-.11,0-.23.22-.23.34-.23.34-.57.45-1.02.45-.23,0-.68,0-.91-.45,0,0,.12,1.36.12,1.7,0,.12.11.12.11.12.45.11.57.57.8.79,0,0,.11.11.23.11.45.34,1.48.79,1.02.79,0,.23-.34.8-.45.8-.34-.34-.91-.57-1.36-.8M94.13,46.21c0,.11-.11.68-.11.68-.45-.11-.8-.45-1.36-.45q0-.34.11-.45c.68-.11,1.02.11,1.36.23M91.18,37.35c-.45-.46.68-.11,1.25,0,.23,0,2.16.45.91,1.02-.22.22-.79.11-1.36.11,0-.23,0-.68-.23-.68-.23-.23-.57-.23-.57-.45M94.59,35.09c.34-.34.8-.46,1.25-.34.57.11.68.23.91.46.34.45.23,1.36.11,1.93-.11.34-.45.57-.79.57-.57-.68-1.13-1.13-1.93-1.36-.11-.45.23-.91.45-1.25M87.55,43.83c-.11.34-.11.57-.45.68-.34.11-.57.45-.8.34-.34-.23-.23-.79,0-1.14.23-.34.68-.57,1.02-.68.45-.11.34-1.02.34-1.14.11-.23,0-.57,0-.79-.23.11-.23,0-.68.11-.45,0-.68-.23-.91-.45-.22-.23-.79-.68-1.02-1.14.57-.11,1.02-.11,1.59-.11h1.47c.34.11.57.34.57.57,0,.11-.11.79-.11.91-.11.68-.11.91-.23,1.93v.34c-.11.23-.57.34-.79.57M87.77,46.21c-.11.11-.57.34-.57.34-.23.11-.34.23-.68.34-.12-.22-.23-.68-.23-.68,0,0,.45-.11.8-.11.23,0,.45,0,.68.11M84.37,37.92c-.23-.23-.68-.57-.91-1.02-.34-.45-.23-.91-.23-1.02.23-.68,1.02-.91,1.48-1.02.23,0,.45,0,.79.23.45.23.68.23.91,1.02,0,.11,0,.23-.11.23,0,0-.68.45-.91.68-.57.34-.68.91-1.02.91M87.77,38.6h-.57c0-.34.23-.45.57-.8.34-.23.68-.45.91-.45.23-.11.68-.23.68,0,0,.45-.34.68-.68,1.14-.22.34-.34.11-.91.11"/><path class="cls-7" d="M92.66,46.44c.56,0,.91.34,1.36.45,0,0,.11-.57.11-.68-.34-.11-.68-.34-1.36-.23q-.11.11-.11.45"/><path class="cls-7" d="M94.81,44.17c.45,0-.57-.45-1.02-.79-.11,0-.23-.11-.23-.11-.23-.23-.34-.68-.8-.79,0,0-.11,0-.11-.12,0-.34-.12-1.7-.12-1.7.23.45.68.45.91.45.45,0,.79-.12,1.02-.45,0-.12.12-.34.23-.34.23-.12.46-.23.57-.46.11,0,.23-.23.23-.23-1.02-.11-3.18-.11-3.18-.11-.34.11-.68.46-.68.57,0,0,.22,1.25.22,1.36,0,.8.11.8.11,1.59.34.23.45.23.69.46.11.23.22.45.34.68.45.23,1.02.45,1.36.8.11,0,.45-.57.45-.8"/><path class="cls-7" d="M96.06,37.7c.34,0,.68-.23.79-.57.11-.57.23-1.48-.11-1.93-.23-.23-.34-.34-.91-.46-.45-.11-.91,0-1.25.34-.22.34-.57.8-.45,1.25.8.23,1.36.68,1.93,1.36"/><path class="cls-7" d="M91.97,38.49c.57,0,1.14.11,1.36-.11,1.25-.57-.68-1.02-.91-1.02-.57-.11-1.7-.46-1.25,0,0,.23.34.23.57.45.23,0,.23.46.23.68"/><path class="cls-7" d="M93.34,31.34c.34,0,.8-.45,1.48-1.02.98.39,1.95.95,2.86,1.53-.73-2.22-2.82-3.83-5.29-3.83h-16.72c-3.08,0-5.57,2.49-5.57,5.57v16.72c0,3.08,2.49,5.57,5.57,5.57h4.09c-.21-.59-.42-1.1-.72-1.61,0,0,1.7-.68,2.15-.68.11.23.23.57.46.79-.23.23-.91.91-1.14,1.25-.1.1-.2.18-.31.25h7.75c-.3-.36-.63-.8-.63-1.04,0-.34-.46-.91.11-.91,0-.23.57.11.79.11s.45.11.57.34c.11.34,0,.68.11,1.02,0,.13.05.3.09.48h.93s0-.01,0-.02c0-.34,0-.57-.11-.8,0-.23-.11-.57,0-.91,0-.34.91-.46,1.36-.57.12.57.23,1.14.12,1.47-.1.31-.3.53-.5.82h1.59c.11,0,.22,0,.33-.01-.12-.04-.23-.07-.4-.12-.11-.11-.11-.34-.11-.68,0-.23-.11-.68-.11-1.13,0-.23.23-.34.57-.57.11,0,.22-.12.68-.23v1.81c.05.21.13.52.19.81.49-.1.96-.27,1.39-.49-.25-.35-.56-.98-.56-1.22-.12-.34-.12-1.02,0-1.36,0,0,.68.23.91.34.57,0,.12.8.34,1.02,0,.07.04.33.17.68.43-.33.81-.72,1.12-1.16-.12-.06-.29-.25-.39-.43-.23-.57-.34-1.13-.34-1.13.11,0,.34,0,.46.11q.34,0,.57.11c0,.1.08.29.2.51.36-.73.56-1.56.56-2.43v-.82c-1.38-.84-2.33-1.17-3.48-1.7-.23.23-.34.57-.68.8-.11.11-.91-.57-1.36-.8-.34-.23-1.02-.34-1.48-.45-.11,0-.11-.23-.11-.34-.11-.34-.23-.68-.11-.8.57-.23.79-.68.79-1.02s.34.11.68,0c.23-.23.34-.45.23-.68,0-.23-.11-.45-.34-.45-1.14-.46-2.39-.46-3.52,0-.34.11-.34.56-.23.91.12.45.57.23.91,0,.11,0-.11.34.11.68.23.45.68.57.68.68q0,.34-.11.57c0,.23,0,.46-.23.57-.68.11-1.25.34-1.93.57-.34.11-.68.46-1.02.46-.23,0-.45-.46-.57-.57-.23,0-.23-.11-.68,0-1.13.46-2.72,1.25-3.86,1.93-.23-.23-.11-.57-.23-.8,1.25-.8,2.61-1.47,3.98-2.04.11-.12,0-.45-.12-.68,0,0-.8-.11-2.27.34-.9.22-1.93.8-2.04.8,0,0-.11-.34-.11-.8.68-.34,1.48-.68,2.16-.91.8-.23,1.59-.23,2.39-.34-.12,0-.12-.23-.12-.34-.34-.68-.91-1.25-1.47-1.81-.23-.46-.46-1.02-.46-1.25.23-.23.46.11.8.11-.11-.34-.23-.8-.23-1.25q-.11-.45-.11-1.02c0-.68.23-1.02.11-1.14-.11-.11-.57-.34-.68-.34-.23-.12-.34-.12-.45-.34-.34-.57-.68-1.02-.68-1.59s.22-1.02.45-1.59c.11-.45.68-.68,1.02-.91.34-.23.68-.11,1.02-.11.8,0,1.47.45,2.05.79.45.34.68.8.79,1.25h1.02c.57.11,1.13.23,1.82.57.79-.68,2.16-.8,2.84-.8,0-1.25.91-1.93,1.59-1.93.57-.12.91-.23,1.71.11.57.34,1.36,1.47,1.36,1.59.23.46.11,1.02.11,1.7-.11.45-.11.79-.11.91-.11.45-.68.79-1.02.91,0,.8-.23,1.25-.34,1.93,0,.34-.11.68-.23,1.02.34-.11.46-.34.79-.34-.23,1.47-.57,1.25-.91,1.93-.12.45-.34.91-.68,1.36-.12.11-.23.22-.57.45-.23.11,0,.23,0,.34.88,0,1.89.2,3.14.71v-12.76c0-.42-.05-.84-.14-1.23-.25.22-.52.45-.85.45s-.57-.11-.91-.23c-.23-.23-1.25-.57-1.82-.57-.68,0-1.13.91-1.93,1.36-.34.11-1.02.22-1.7.45-.46.23-.68.34-.68.11-.11-.45-.11-.91-.11-1.36-.34-.11-.79-.11-1.14-.34-.22.8-.45,1.14-.68,1.48-.45-.23-.91-.34-1.36-.68-.57-.34-1.93-1.13-2.05-1.36-.45.46-1.82,1.25-2.61,1.71-.12.22-.68,1.02-.8,1.13l-1.13-.45c.23-.46.45-.68.68-1.13.45-.68,1.13-1.25,1.59-1.71,1.25-.45,1.25-.68,2.72-.91.57.68,2.16,1.7,2.16,1.7,0,.23.11-.11.57-1.48.34.23.57.23.91.45.12,0,.46.12.46.12.11,0,.79-.34.91-.45.23-.11,1.25-.34,1.25-.34.11.11-.34.91-.34,1.02v.91c.11,0,.23,0,.45-.11.57-.23.68-1.25.91-2.04.34.11.57.11.91.11,0,.45-.22,1.13.11,1.13M90.16,48.37c1.14,0,2.27.11,3.18.68,0,.45,0,1.02-.22,1.47,0,.12-.23.57-.45.8-.34-.45-1.02-.91-1.02-.91.11.46,0,.57-.11,1.14,0,.11-.79.11-.79.11-.68-.34-.8-.79-.8-.79,0,.11-.11.91-.57.91s-.79,0-.79-.34c-.11-.34-.11-.57-.11-.91v-.45c-.34.12-.57.45-.8.68-.11,0-.23-.23-.34-.23-.23-.45-.34-.79-.46-1.24,1.14-.8,2.27-.91,3.29-.91M85.05,51.78c.11-.11.34.11.45.11.34.23.45.45.57.68.12.23.23.8.23.8,0,.8-.34,1.02-.45,1.48-.23-.34-.34-.79-.45-1.14-.12-.34-.34-.57-.57-.91.11-.11.23-1.02.23-1.02M82.78,50.87c.23.11.57.23.68.45.22.34,0,.8.11,1.14.11.57.45,1.59.45,1.59-.34-.23-.68-.34-1.02-.57-.23-.11-.45-.23-.45-.34-.11-.34-.23-1.13-.23-1.36,0-.46.23-.91.46-.91M78.46,50.87c-.11-.34-.11-.68-.23-1.02,0-.34-.11-1.59-.11-1.82v-.57c.45-.23,1.02-.57,1.48-.8-.11.57-.23.8-.23,1.7,0,.23.23.91.34,1.7-.23.45-.34.8-.68,1.14-.11.23-.34.34-.34.34,0-.23-.11-.45-.23-.68M79.49,53.25c0,.23-.34.46-.34.46,0-.46-.11-1.02-.11-1.25-.11-.23-.23-.34-.23-.57.11-.11.34-.23.57-.34.11-.23.68-.57.79-.68.34.34.46.45.68,1.02-.11.12-.79.68-1.36,1.36M81.07,44.17c-1.14.57-1.59,1.14-1.82,1.36-.34.46-1.02,1.14-1.25,1.48l-.12-1.36q-.11-.34-.11-1.03c.57-.34.79-.56,1.36-.91.23-.23,1.02-.45,2.16-.79,0,.46-.11.79-.23,1.25M81.53,40.31c.11.22-.11.22-.11.91-.11.23-.23.11-.46.34-.11.11-1.36,1.02-1.47,1.13-.23.11-.34.23-.68.57-.12-.34-.12-.68-.23-1.02,0-.11,0-.91.11-1.25,0-.23,1.02-.57,1.59-.68.23,0,1.13-.23,1.25,0M80.96,34.86c-.11.79-.22,1.02-.22,1.93,0,.11.22.68.34.91.11.23.23.45.23.68,0,.11-.11.22-.23.34-.34.23-.45.12-.57.34-.57.45-.79.68-1.25,1.02q-.23.23-.45.57s-.12-1.25-.23-1.94c.46-.22.68-.45,1.14-.79-.12-.68-.23-1.14-.23-1.7,0-.34,0-.68.23-1.02.22-.46.79-.46,1.25-.34"/><path class="cls-7" d="M94.93,47.23c.45.11.68.34,1.13.45.17.08,1.16.61,1.89,1.02v-1.59c-1.25-.5-2.39-.61-3.03-.79v.91Z"/><path class="cls-7" d="M89.36,37.36c0-.23-.45-.11-.68,0-.22,0-.57.23-.91.45-.34.34-.57.46-.57.8h.57c.57,0,.68.23.91-.11.34-.45.68-.68.68-1.14"/><path class="cls-7" d="M88.34,43.26v-.34c.12-1.02.12-1.25.23-1.93,0-.11.11-.79.11-.91,0-.23-.22-.46-.57-.57h-1.47c-.57,0-1.02,0-1.59.11.23.46.8.91,1.02,1.14.23.23.46.45.91.45.45-.11.45,0,.68-.11,0,.23.11.57,0,.79,0,.12.11,1.02-.34,1.14-.34.11-.79.34-1.02.68-.23.34-.34.91,0,1.14.23.11.45-.23.8-.34.34-.11.34-.34.45-.68.22-.23.68-.34.79-.57"/><path class="cls-7" d="M86.41,36.11c-.22-.8-.45-.8-.91-1.02-.34-.23-.57-.23-.79-.23-.46.11-1.25.34-1.48,1.02,0,.11-.11.57.23,1.02.22.46.68.8.91,1.02.34,0,.45-.57,1.02-.91.23-.23.91-.68.91-.68.11,0,.11-.11.11-.23"/><path class="cls-7" d="M86.3,46.21s.11.46.23.68c.34-.11.45-.22.68-.34,0,0,.45-.23.57-.34-.22-.11-.45-.11-.68-.11-.34,0-.8.11-.8.11"/><path class="cls-5" d="M85.84,54.84c.11-.46.45-.68.45-1.48,0,0-.11-.57-.23-.8-.11-.23-.22-.45-.57-.68-.11,0-.34-.23-.45-.11,0,0-.11.91-.23,1.02.23.34.45.57.57.91.11.34.23.8.45,1.14"/><path class="cls-5" d="M83,53.48c.34.23.68.34,1.02.57,0,0-.34-1.02-.45-1.59-.11-.34.11-.8-.11-1.14-.12-.23-.46-.34-.68-.45-.23,0-.46.45-.46.91,0,.23.11,1.02.23,1.36,0,.11.23.23.45.34"/><path class="cls-5" d="M87.66,50.76c.23-.23.46-.57.8-.68v.45c0,.34,0,.57.11.91,0,.34.34.34.79.34s.57-.8.57-.91c0,0,.11.45.8.79,0,0,.79,0,.79-.11.11-.57.23-.68.11-1.14,0,0,.68.46,1.02.91.22-.23.45-.68.45-.8.22-.45.22-1.02.22-1.47-.91-.57-2.04-.68-3.18-.68-1.02,0-2.15.11-3.29.91.12.45.23.79.46,1.24.11,0,.23.23.34.23"/><path class="cls-5" d="M80.28,40.31c-.57.11-1.59.45-1.59.68-.11.34-.11,1.14-.11,1.25.11.34.11.68.23,1.02.34-.34.45-.46.68-.57.11-.11,1.36-1.02,1.47-1.13.23-.23.34-.12.46-.34,0-.68.23-.68.11-.91-.11-.23-1.02,0-1.25,0"/><path class="cls-5" d="M79.71,35.2c-.23.34-.23.68-.23,1.02,0,.57.11,1.02.23,1.7-.46.34-.68.57-1.14.79.11.69.23,1.93.23,1.93q.23-.34.45-.57c.46-.34.68-.57,1.25-1.02.12-.23.23-.11.57-.34.11-.11.23-.22.23-.34,0-.23-.11-.46-.23-.68-.12-.23-.34-.8-.34-.91,0-.91.11-1.13.22-1.93-.45-.11-1.02-.11-1.25.34"/><path class="cls-5" d="M77.78,44.62q0,.68.11,1.03l.12,1.36c.22-.34.91-1.02,1.25-1.48.23-.23.68-.79,1.82-1.36.11-.45.23-.79.23-1.25-1.14.34-1.93.57-2.16.79-.56.34-.79.57-1.36.91"/><path class="cls-5" d="M79.03,51.21c.34-.34.45-.68.68-1.14-.12-.79-.34-1.48-.34-1.7,0-.91.11-1.14.23-1.7-.46.22-1.02.57-1.48.8v.57c0,.23.11,1.48.11,1.82.12.34.12.68.23,1.02.11.23.23.45.23.68,0,0,.23-.12.34-.34"/><path class="cls-5" d="M79.37,51.55c-.23.11-.45.23-.57.34,0,.23.11.34.23.57,0,.23.11.79.11,1.25,0,0,.34-.23.34-.46.57-.68,1.25-1.25,1.36-1.36-.23-.57-.34-.68-.68-1.02-.11.11-.68.45-.79.68"/></svg>