<svg viewBox="0 0 160 160" fill="none" xmlns="http://www.w3.org/2000/svg"><path fill-rule="evenodd" clip-rule="evenodd" d="M19 40.518H141V16H19V40.518Z" fill="#FBB03B"/><path fill-rule="evenodd" clip-rule="evenodd" d="M19.049 144H140.951V40.453H19.049V144Z" fill="#F7E5CD"/><path fill-rule="evenodd" clip-rule="evenodd" d="M32.7133 27.1698C32.7133 29.2538 31.029 30.9438 28.9508 30.9438C26.8727 30.9438 25.1884 29.2538 25.1884 27.1698C25.1884 25.0858 26.8727 23.3958 28.9508 23.3958C31.029 23.3958 32.7133 25.0858 32.7133 27.1698Z" fill="#232144"/><path fill-rule="evenodd" clip-rule="evenodd" d="M134.75 28.3774C134.75 30.4614 133.066 32.1514 130.988 32.1514C128.91 32.1514 127.226 30.4614 127.226 28.3774C127.226 26.2934 128.91 24.6034 130.988 24.6034C133.066 24.6034 134.75 26.2934 134.75 28.3774Z" fill="#232144"/><path fill-rule="evenodd" clip-rule="evenodd" d="M71.8312 30.9917C71.5201 30.9917 71.4254 30.9377 71.3436 30.7207L70.504 28.6697C70.1111 27.7187 69.6244 26.4287 69.3532 25.6277C69.3532 26.5647 69.3532 28.1807 69.2984 29.5657L69.2046 32.3087C69.1907 32.5267 69.1229 32.6077 68.9204 32.6077H67.9172C67.6739 32.6077 67.5932 32.5267 67.6061 32.2957L68.012 23.1287C68.0259 22.9117 68.1077 22.8297 68.3381 22.8297H69.434C69.6913 22.8297 69.787 22.8847 69.8678 23.0877L71.1133 26.1707C71.6278 27.4337 71.9938 28.3977 72.2381 29.1037C72.4954 28.3847 72.9142 27.2437 73.3211 26.2247L74.5805 23.0877C74.6613 22.8847 74.7829 22.8297 75.0003 22.8297H76.0693C76.2997 22.8297 76.3814 22.9117 76.3954 23.1287L76.7883 32.2957C76.8013 32.5267 76.7065 32.6077 76.4762 32.6077H75.4471C75.2167 32.6077 75.135 32.5127 75.135 32.3087L75.0412 28.7647C75.0003 27.3927 74.9874 26.4837 74.9874 25.5737C74.7161 26.4017 74.2684 27.6237 73.8625 28.6567L73.0229 30.7207C72.9421 30.9377 72.8474 30.9917 72.5353 30.9917H71.8312Z" fill="#232144"/><path fill-rule="evenodd" clip-rule="evenodd" d="M80.8118 28.8867H83.4255L83.2759 28.4387C82.8032 27.0127 82.4094 25.7367 82.1252 24.8127C81.8539 25.7227 81.3932 27.1217 80.9604 28.4257L80.8118 28.8867ZM83.8722 30.2317H80.3651L79.688 32.3497C79.6202 32.5397 79.5245 32.6077 79.322 32.6077H78.1842C77.9948 32.6077 77.927 32.5127 77.9948 32.3087L81.2047 23.0747C81.2716 22.8977 81.3533 22.8297 81.5837 22.8297H82.6936C82.9249 22.8297 83.0186 22.8977 83.0735 23.0747L86.3782 32.3367C86.4311 32.4987 86.3503 32.6077 86.1877 32.6077H84.9422C84.7388 32.6077 84.6441 32.5397 84.5763 32.3497L83.8722 30.2317Z" fill="#232144"/><path fill-rule="evenodd" clip-rule="evenodd" d="M88.9379 32.608C88.7494 32.608 88.6676 32.526 88.6676 32.35V28.806L85.8506 23.102C85.7688 22.939 85.8506 22.83 86.0271 22.83H87.2048C87.476 22.83 87.5976 22.898 87.6784 23.088L88.5041 24.881C88.8302 25.587 89.4125 26.769 89.602 27.244C89.8044 26.741 90.2651 25.723 90.6451 24.881L91.4708 23.075C91.5655 22.884 91.6602 22.83 91.9175 22.83H93.0553C93.2318 22.83 93.3126 22.939 93.2318 23.102L90.3868 28.806V32.35C90.3868 32.526 90.306 32.608 90.1166 32.608H88.9379Z" fill="#232144"/><path fill-rule="evenodd" clip-rule="evenodd" d="M64.3839 128.486C64.3839 128.651 64.3081 128.727 64.1306 128.727H63.0307C62.8532 128.727 62.7784 128.651 62.7784 128.486V119.839C62.7784 119.673 62.8532 119.597 63.0307 119.597H67.7973C67.9748 119.597 68.0506 119.673 68.0506 119.839V120.663C68.0506 120.828 67.9748 120.904 67.7973 120.904H64.3839V123.465H67.2538C67.4313 123.465 67.5071 123.541 67.5071 123.693V124.517C67.5071 124.682 67.4313 124.758 67.2538 124.758H64.3839V128.486Z" fill="#232144"/><path fill-rule="evenodd" clip-rule="evenodd" d="M69.1492 128.727C68.9977 128.727 68.9349 128.664 68.9349 128.524V124.555C68.9349 123.49 68.871 122.425 68.871 122.235C68.871 122.095 68.9349 122.032 69.0864 122.032H70.0597C70.2242 122.032 70.2741 122.095 70.3 122.222C70.3509 122.54 70.3888 123.11 70.4007 123.464C70.8315 122.552 71.4508 121.917 72.2605 121.917C72.5258 121.917 72.6265 121.981 72.6265 122.184V123.046C72.6265 123.211 72.5637 123.275 72.4111 123.288C71.7669 123.351 71.1726 123.731 70.8565 124.251C70.5403 124.771 70.4516 125.303 70.4516 126.661V128.524C70.4516 128.664 70.3888 128.727 70.2372 128.727H69.1492Z" fill="#232144"/><path fill-rule="evenodd" clip-rule="evenodd" d="M73.9785 128.728C73.827 128.728 73.7642 128.665 73.7642 128.525V122.236C73.7642 122.096 73.827 122.033 73.9785 122.033H75.0665C75.2181 122.033 75.2809 122.096 75.2809 122.236V128.525C75.2809 128.665 75.2181 128.728 75.0665 128.728H73.9785ZM73.8768 120.778C73.7263 120.778 73.6495 120.702 73.6495 120.562V119.282C73.6495 119.142 73.7263 119.066 73.8768 119.066H75.1542C75.3188 119.066 75.3946 119.142 75.3946 119.282V120.562C75.3946 120.702 75.3188 120.778 75.1542 120.778H73.8768Z" fill="#232144"/><path fill-rule="evenodd" clip-rule="evenodd" d="M81.0714 123.82C80.7423 123.427 80.2746 123.224 79.8069 123.224C78.8586 123.224 78.2643 124.01 78.2643 125.443C78.2643 126.597 78.6821 127.548 79.7311 127.548C80.1101 127.548 80.502 127.422 80.7303 127.193C80.9826 126.939 81.0714 126.559 81.0714 125.837V123.82ZM81.185 128.081C80.7931 128.549 80.0472 128.854 79.4021 128.854C77.657 128.854 76.6967 127.472 76.6967 125.507C76.6967 123.224 77.999 121.905 79.5546 121.905C80.148 121.905 80.7174 122.121 81.0714 122.464V119.217C81.0714 119.078 81.1342 119.014 81.2868 119.014H82.3737C82.5253 119.014 82.5881 119.078 82.5881 119.217V127.066C82.5881 127.383 82.6768 127.509 82.981 127.548C83.1196 127.56 83.1695 127.611 83.1695 127.763V128.384C83.1695 128.537 83.1196 128.626 82.9561 128.676C82.8165 128.727 82.5761 128.765 82.3099 128.765C81.8422 128.765 81.3875 128.562 81.185 128.081Z" fill="#232144"/><path fill-rule="evenodd" clip-rule="evenodd" d="M88.4793 123.922C88.1632 123.478 87.7084 123.225 87.2029 123.225C86.2545 123.225 85.6722 124.011 85.6722 125.443C85.6722 126.598 86.0641 127.548 87.1141 127.548C87.4801 127.548 87.8092 127.371 88.0246 127.143C88.3656 126.787 88.4793 126.166 88.4793 125.609V123.922ZM88.6568 127.891C88.2509 128.486 87.5559 128.855 86.81 128.855C85.0649 128.855 84.1036 127.473 84.1036 125.507C84.1036 123.225 85.3939 121.905 86.9496 121.905C87.6576 121.905 88.3147 122.261 88.6308 122.692L88.6687 122.261C88.6817 122.083 88.7575 122.032 88.947 122.032H89.7816C89.9581 122.032 90.0219 122.083 90.0219 122.235C90.0219 122.578 89.996 123.693 89.996 124.645V125.85C89.996 127.346 90.1865 128.372 90.1865 128.525C90.1865 128.664 90.1356 128.728 89.9711 128.728H89.1235C88.9719 128.728 88.8961 128.664 88.8462 128.537C88.7834 128.41 88.6947 128.107 88.6568 127.891Z" fill="#232144"/><path fill-rule="evenodd" clip-rule="evenodd" d="M97.3791 128.715C97.3791 129.806 97.1387 130.617 96.6581 131.124C96.1535 131.656 95.3677 131.923 94.3067 131.923C93.7124 131.923 93.0672 131.834 92.5237 131.682C92.3721 131.644 92.3213 131.556 92.3592 131.378L92.5107 130.643C92.5486 130.465 92.6125 130.414 92.8019 130.452C93.3205 130.554 93.7752 130.617 94.1801 130.617C94.8751 130.617 95.3189 130.44 95.5203 130.186C95.7477 129.92 95.8623 129.488 95.8623 128.829V128.145C95.4445 128.563 94.8242 128.855 94.0285 128.855C93.2945 128.855 92.6753 128.575 92.3083 128.157C91.8666 127.688 91.714 127.003 91.714 126.09V122.236C91.714 122.096 91.7778 122.032 91.9294 122.032H93.0163C93.1679 122.032 93.2317 122.096 93.2317 122.236V125.583C93.2317 126.509 93.2826 126.876 93.497 127.13C93.7004 127.371 94.0404 127.473 94.4333 127.473C94.7993 127.473 95.2301 127.371 95.4694 127.194C95.7098 127.028 95.7855 126.813 95.8234 126.509C95.8623 126.179 95.8623 125.774 95.8623 125.088V122.236C95.8623 122.096 95.9251 122.032 96.0897 122.032H97.1637C97.3162 122.032 97.3791 122.096 97.3791 122.236V128.715Z" fill="#232144"/><path fill-rule="evenodd" clip-rule="evenodd" d="M69.3722 60.5649C69.8947 60.5649 70.0852 60.8029 70.0852 61.2799V90.2809H76.1711C76.6946 90.2809 76.8851 90.5199 76.8851 90.9969V94.1919C76.8851 94.6699 76.6946 94.9079 76.1711 94.9079H57.6272C57.1037 94.9079 56.9142 94.6699 56.9142 94.1919V90.9969C56.9142 90.5199 57.1037 90.2809 57.6272 90.2809H64.2366V66.7659L58.1508 69.9609C57.5794 70.2479 57.2463 70.1999 56.9611 69.6279L55.6298 66.9569C55.3446 66.3359 55.4872 66.0019 56.0576 65.7159L64.3792 61.3279C65.52 60.7559 66.0904 60.5649 67.4227 60.5649H69.3722Z" fill="#232144"/><path fill-rule="evenodd" clip-rule="evenodd" d="M103.334 89.859C103.857 89.859 104.047 90.097 104.047 90.575V94.104C104.047 94.582 103.857 94.82 103.334 94.82H83.8857C83.2206 94.82 83.0301 94.63 83.0301 94.056V91.767C83.0301 80.796 97.4855 76.36 97.4855 69.349C97.4855 66.344 95.4402 64.817 92.4925 64.817C89.9726 64.817 87.6432 65.867 85.5979 67.107C85.1222 67.393 84.7413 67.345 84.4561 66.868L82.9823 64.436C82.6502 63.863 82.8397 63.577 83.4579 63.1C85.8352 61.24 89.4491 60 92.8256 60C96.582 60 99.2914 61.002 101.099 62.861C102.573 64.436 103.429 66.582 103.429 69.301C103.429 77.887 89.4969 83.563 88.9265 89.859H103.334Z" fill="#232144"/></svg>