<svg viewBox="0 0 160 160" fill="none" xmlns="http://www.w3.org/2000/svg"><path fill-rule="evenodd" clip-rule="evenodd" d="M57.8959 137.047C57.8929 140.338 55.2149 143.003 51.9129 143C48.6119 142.998 45.9379 140.327 45.9409 137.037C45.9429 133.746 48.6219 131.081 51.9229 131.083C55.2249 131.086 57.8989 133.756 57.8959 137.047Z" fill="#01464D"/><path fill-rule="evenodd" clip-rule="evenodd" d="M45.3793 106.966L23.4233 85.0443C21.8863 83.5086 21.8883 81.0228 23.4283 79.4901L53.7493 49.3193L78.4883 74.0209L45.3793 106.966Z" fill="#FFD4D2"/><path fill-rule="evenodd" clip-rule="evenodd" d="M78.4887 74.0204L53.7487 49.3189L84.0707 19.1481C85.6097 17.6155 88.1047 17.6175 89.6417 19.1531L111.598 41.0751L78.4887 74.0204Z" fill="#FFD4D2"/><path fill-rule="evenodd" clip-rule="evenodd" d="M48.1945 115.06L33.5645 100.453C31.9605 98.8514 31.9625 96.2557 33.5695 94.6571L39.1205 89.1339C40.7275 87.5343 43.3315 87.5363 44.9355 89.1389L62.8035 106.978L54.6755 115.066C52.8845 116.848 49.9825 116.846 48.1945 115.06Z" fill="#FF6200"/><path fill-rule="evenodd" clip-rule="evenodd" d="M61.6588 119.638L55.8848 113.873L63.7778 106.019L69.5518 111.785L61.6588 119.638Z" fill="#FFD4D2"/><path fill-rule="evenodd" clip-rule="evenodd" d="M116.721 64.8091L110.966 59.0631L118.859 51.21L124.614 56.956L116.721 64.8091Z" fill="#FFD4D2"/><path fill-rule="evenodd" clip-rule="evenodd" d="M111.089 58.9328L93.2215 41.0933C91.6165 39.4907 91.6185 36.896 93.2255 35.2964L98.7765 29.7732C100.384 28.1735 102.988 28.1765 104.592 29.7782L119.222 44.3855C121.01 46.1709 121.008 49.0634 119.217 50.8458L111.089 58.9328Z" fill="#FF6200"/><path fill-rule="evenodd" clip-rule="evenodd" d="M54.9994 114.744L44.8284 104.588L107.657 42.0703L117.828 52.2255L54.9994 114.744Z" fill="#FF6200"/><path fill-rule="evenodd" clip-rule="evenodd" d="M77.3561 72.2468L76.7111 72.8883L53.4261 49.6395L54.0711 48.998L77.3561 72.2468Z" fill="#FF6200"/><path fill-rule="evenodd" clip-rule="evenodd" d="M86.942 82.9318L76.824 72.7776L77.182 72.4209L87.301 82.5741L86.942 82.9318Z" fill="#FABDA4"/><path fill-rule="evenodd" clip-rule="evenodd" d="M18.135 93.1328L54.294 129.211L52.159 131.334L16 95.255L18.135 93.1328Z" fill="#01464D"/><path fill-rule="evenodd" clip-rule="evenodd" d="M130.477 51.0342L50.9867 130.185L53.0947 132.292L130.451 55.2645L141.867 66.6086L144 64.4885L130.477 51.0342Z" fill="#01464D"/><path fill-rule="evenodd" clip-rule="evenodd" d="M55.2994 137.045C55.2974 138.906 53.7824 140.414 51.9154 140.412C50.0484 140.411 48.5354 138.9 48.5374 137.039C48.5384 135.178 50.0534 133.67 51.9214 133.672C53.7884 133.674 55.3014 135.184 55.2994 137.045Z" fill="#ABB8B9"/></svg>