<?xml version="1.0" encoding="utf-8"?><!--Generator: Adobe Illustrator 28.0.0, SVG Export Plug-In . SVG Version: 6.00 Build 0)--><svg version="1.1" xmlns="http://www.w3.org/2000/svg" xmlns:xlink="http://www.w3.org/1999/xlink" x="0px" y="0px" viewBox="0 0 160 160" style="enable-background:new 0 0 160 160;" xml:space="preserve"><style type="text/css">.st0{fill:#32785A;}
	.st1{fill:#232144;}
	.st2{fill:#BEDEF5;}
	.st3{fill:#006931;}
	.st4{fill:none;stroke:#FFFFFF;stroke-width:5.6119;stroke-miterlimit:10;}
	.st5{fill:none;stroke:#FFFFFF;stroke-width:3.9961;stroke-miterlimit:10;}
	.st6{fill:#FBB03B;}</style><g id="Design"><g><path class="st0" d="M42.9,120.1c0-4.6-2.3-8.7-5.9-11.1c1.1-1.5,1.7-3.3,1.7-5.3c0-5.1-4.1-9.2-9.2-9.2s-9.2,4.1-9.2,9.2
			c0,2,0.6,3.8,1.7,5.3c-3.5,2.4-5.9,6.5-5.9,11.1c0,6.9,5.3,12.6,12,13.4V144h2.9v-10.6C37.7,132.7,42.9,127,42.9,120.1z"/><polygon class="st1" points="37.9,89.8 90.9,34.3 143.9,89.8 		"/><g><defs><polygon id="XMLID_00000129891444740137606680000014014232898449217714_" points="47.6,144 47.6,90.1 90.9,43.7 134.1,90.1 
					134.1,144 				"/></defs><use xlink:href="#XMLID_00000129891444740137606680000014014232898449217714_" style="overflow:visible;fill:#E6E3DA;"/><clipPath id="XMLID_00000106847485453536301780000018130617695619948931_"><use xlink:href="#XMLID_00000129891444740137606680000014014232898449217714_" style="overflow:visible;"/></clipPath></g><rect x="109.7" y="113.2" class="st1" width="15.9" height="30.8"/><rect x="62.7" y="113.5" class="st2" width="40" height="21.7"/><path class="st3" d="M144,136.1c0,0.1,0,0.2,0,0.3"/><line class="st4" x1="65.5" y1="126.5" x2="65.5" y2="143.9"/><line class="st4" x1="53.4" y1="126.5" x2="53.4" y2="143.9"/><line class="st5" x1="79.7" y1="133.2" x2="53" y2="133.6"/><line class="st4" x1="78.1" y1="126.5" x2="78.1" y2="143.9"/><polygon class="st6" points="65.2,84.3 55.3,66.9 37.5,57.5 55,47.6 64.3,29.8 74.2,47.3 92,56.6 74.6,66.6 		"/></g></g><g id="stramien"/></svg>