<svg viewBox="0 0 160 160" fill="none" xmlns="http://www.w3.org/2000/svg"><path d="M81.48 114.34L66.25 106.12L79.95 98.7201L65.98 89.7001L76.32 83.0201L65.76 74.8701L71.77 70.2301L70.5 68.5801L64.06 73.5501L57.62 68.5801L56.35 70.2301L62.36 74.8701L51.8 83.0201L62.14 89.7001L48.17 98.7201L61.87 106.12L46.64 114.34L47.63 116.17L64.06 107.3L80.49 116.17L81.48 114.34ZM55.4 82.8701L64.06 76.1901L72.72 82.8701L64.06 88.4601L55.4 82.8701ZM52.25 98.5601L64.05 90.9401L75.85 98.5601L64.05 104.93L52.25 98.5601Z" fill="#232144"/><path d="M46.71 120.17L60.69 60.9H67.43L81.41 120.17H86.4L71.27 56.04H56.85L41.73 120.17H46.71Z" fill="#463EC5"/><path d="M106.48 59.4502H104.02V104H106.48V59.4502Z" fill="#232144"/><path d="M44.55 95.51L44.53 95.57L21.5 85.49C22.72 82.7 25.24 80.82 27.82 80.76L28.17 80.75C34.24 80.62 39.81 83.11 43.78 87.71C45.45 89.65 45.76 92.75 44.55 95.51Z" fill="#463EC5"/><path d="M29.88 95.3496L20.25 99.6696C18.11 100.63 16.73 102.76 16.73 105.11C16.73 108.4 19.4 111.07 22.69 111.07H33.25C37.79 111.07 41.47 107.39 41.47 102.85C41.45 96.8896 35.31 92.9096 29.88 95.3496Z" fill="#463EC5"/><path d="M35.78 86.5901V52.0801H33.32V86.5901H31.87V103.25H37.23V86.5901H35.78Z" fill="#232144"/><path d="M94.0752 36.0602L23.6192 52.1475L25.6938 61.2335L96.1498 45.1462L94.0752 36.0602Z" fill="#463EC5"/><path d="M107.4 108.41V104H103.09V108.41H102.09V144H108.41V108.41H107.4Z" fill="#F7931E"/><path d="M64.06 61.5398C67.1638 61.5398 69.68 59.0236 69.68 55.9198C69.68 52.816 67.1638 50.2998 64.06 50.2998C60.9562 50.2998 58.44 52.816 58.44 55.9198C58.44 59.0236 60.9562 61.5398 64.06 61.5398Z" fill="#E6E3DA"/><path d="M105.495 61.2884C109.544 60.5883 111.074 49.8912 108.914 37.3959C106.753 24.9005 101.719 15.3387 97.6698 16.0389C93.6208 16.739 92.0901 27.4361 94.2508 39.9314C96.4116 52.4267 101.446 61.9886 105.495 61.2884Z" fill="#F7931E"/><path d="M35.08 120.17V110.85H21.78V120.17V120.78V127.61H143.28V120.17H35.08Z" fill="#232144"/></svg>