<?xml version="1.0" encoding="UTF-8"?><svg id="Pension" xmlns="http://www.w3.org/2000/svg" viewBox="0 0 160 160"><defs><style>.cls-1,.cls-2{fill:#e6e3d9;}.cls-3{fill:#ef2834;}.cls-4{fill:#f9e6d0;}.cls-5{fill:#ff924b;}.cls-6{fill:#e6e6e6;}.cls-6,.cls-2{fill-rule:evenodd;}.cls-7{fill:#cfddf5;}.cls-8{fill:#fbc898;}.cls-9{fill:#f9b188;}.cls-10{fill:#fff;}.cls-11{fill:#231e47;}.cls-12{stroke:#1d1d1b;stroke-width:.66px;}.cls-12,.cls-13{fill:none;stroke-miterlimit:10;}.cls-14{fill:#c47459;}.cls-13{stroke:#231e47;stroke-width:.5px;}.cls-15{fill:#ac654d;}</style></defs><polygon class="cls-9" points="54.25 69.73 57.5 59.48 48.62 58.59 47.38 69.73 54.25 69.73"/><path class="cls-8" d="M49.2,60.03s2.81-6.78,6.73-6.78c2.68,0,5.01,1.8,5.21,4.47s-5.48,7.41-5.48,7.41l-6.46-5.11Z"/><polygon class="cls-5" points="77.44 69.73 74.19 59.48 83.07 58.59 84.31 69.73 77.44 69.73"/><path class="cls-8" d="M84.98,59.98s-2.81-6.78-6.73-6.78c-2.68,0-5.01,1.8-5.21,4.47-.2,2.67,5.48,7.41,5.48,7.41l6.46-5.11Z"/><path class="cls-8" d="M55.77,70.18l-.57-16.85s8.84-2.91,11.98-2.91c2.87,0,12.21,2.97,12.21,2.97l-.75,16.8h-22.88Z"/><path class="cls-14" d="M63.52,43.79c0-.86-.7-1.55-1.55-1.55s-1.55.69-1.55,1.55.7,1.55,1.55,1.55,1.55-.69,1.55-1.55"/><path class="cls-14" d="M70.65,43.79c0-.86.7-1.55,1.55-1.55s1.55.69,1.55,1.55-.7,1.55-1.55,1.55-1.55-.69-1.55-1.55"/><path class="cls-15" d="M70.93,52.4v-5.98l-7.67-.02v6.01c0,1.56,1.26,2.82,2.82,2.82h2.03c1.56,0,2.82-1.26,2.82-2.82"/><path class="cls-14" d="M72.22,45.87v-7.14c0-2.31-1.86-4.19-4.15-4.19h-1.97c-2.29,0-4.15,1.87-4.15,4.19v7.14c0,2.31,1.86,4.19,4.15,4.19h1.97c2.29,0,4.15-1.87,4.15-4.19"/><path class="cls-10" d="M68.34,43.06c.06.31.62.46,1.24.33.62-.13,1.08-.48,1.02-.79-.06-.31-.62-.46-1.24-.33-.62.13-1.08.48-1.02.79"/><path d="M68.9,42.84c0,.32.26.57.57.57s.57-.26.57-.57-.26-.57-.57-.57-.57.26-.57.57"/><path d="M69.08,47.49c-.44.23-.93.28-1.35.13l.11-.3c.37.13.8.08,1.18-.15.33-.2.55-.49.59-.76l.32.04c-.05.37-.33.74-.74.99-.03.02-.06.04-.1.06"/><path class="cls-2" d="M66.38,40.25c0-.17-.07-.33-.19-.46-.12-.12-.29-.19-.46-.19h-2.16c-.17,0-.34.07-.46.19-.12.12-.19.28-.19.46v.57h3.45v-.57h0Z"/><path class="cls-2" d="M71.21,40.25c0-.17-.07-.33-.19-.46-.12-.12-.29-.19-.46-.19h-2.16c-.17,0-.34.07-.46.19-.12.12-.19.28-.19.46v.57h3.45v-.57h0Z"/><path d="M66.95,45.38c-.24,0-.43-.12-.6-.22-.27-.17-.44-.28-.77.05l-.22-.21c.5-.5.86-.28,1.15-.1.15.09.28.18.43.18s.29-.08.42-.16c.27-.17.61-.38,1.18.09l-.19.23c-.4-.33-.57-.22-.82-.07-.16.1-.34.21-.58.21"/><path class="cls-10" d="M65.67,43.06c-.06.31-.62.46-1.24.33-.62-.13-1.08-.48-1.02-.79.06-.31.62-.46,1.24-.33.62.13,1.08.48,1.02.79"/><path d="M65.11,42.84c0,.32-.26.57-.57.57s-.57-.26-.57-.57.26-.57.57-.57.57.26.57.57"/><path class="cls-8" d="M102,60.94l5.16,6.04s-8.57,6.47-6.96,11.81c0,0-1.29-.8-2.97.4l3.18,2.07,8.96,1.82,2.9-9.03-2.4-3.9-7.87-9.21Z"/><path class="cls-4" d="M114.98,46.11s.22-1.01-.97-1.52-4.93-1.71-4.93-1.71c0,0,.12-1.82-2.01-2.09s-4.34-.02-4.34-.02c0,0-4.21,1.69-4.43,2.7s.11,1.2.11,1.2c0,0-.52.41-1.22,1.01l-1.76,1.61c-1.7,1.83-4.01,4.85-5.48,8.31-.91,2.13-.73,2.9-.73,2.9l-12.55,11.61s-1.41-.56-2.2.65l3.28,2.14,11.36-6.75,1.69-2.45-4.65,4.95-4.95,4.59s-1.37-.73-2.23.45l3.47,2.26,12.28-4.91s2.02-.64,2.71-1.7.01,3.38-1.56,5.11c0,0-4.6-.54-5.71,3.89,0,0-2.04.16-2.56.97l9,5.87s2.81.36,5.96-1.48c1.8-1.05,7.69-4.49,5.45-12.89-.54-2.04-1.56-4.33-3.53-6.81l-1.7-8.3,1.2-3.3,1.1-1.69,6.71-.84c.93-.12,1.73-.7,2.13-1.54l1.07-2.23Z"/><path class="cls-8" d="M100.8,47.07c.88.57,1.21.53,1.39.42.79-.47.91-4.72.92-5.2h-.25c-.04,1.76-.3,4.68-.8,4.98-.46.28-2.45-1.34-3.72-2.57l-.18.18s.79.77,1.66,1.47c.38.31.7.54.97.71Z"/><circle cx="106.88" cy="43.72" r=".6" transform="translate(11.86 109.34) rotate(-56.88)"/><circle cx="113.98" cy="45.92" r="1.16" transform="translate(13.25 116.29) rotate(-56.88)"/><path class="cls-8" d="M89.74,72.27l12.25-11.33-.1,6.83-1.34,1.43h0l-9.76,5.79-3.2-2.09c.77-1.19,2.15-.63,2.15-.63Z"/><path class="cls-4" d="M114.04,48.02l-.05.09c-.18.37-.56.59-.97.57l-4.7-.29,2.35-3.2,3.37,2.82Z"/><path class="cls-3" d="M111.95,48.15h.08c.44,0,.8.36.8.8v2.38c0,.11-.09.19-.19.19h-1.28c-.11,0-.19-.09-.19-.19v-2.38c0-.44.36-.8.8-.8Z" transform="translate(204.57 130.17) rotate(-163.04)"/><path class="cls-12" d="M113.71,48.7c-.05-.03-.16-.07-.19-.07,0,0-.72-.17-.82-.2-.52-.17-1.94-.96-1.94-.96"/><path class="cls-11" d="M128.01,92.06l-96.83.68,7.3-25.9c1.69-6,7.3-10.17,13.71-10.19l53.6-.16c6.21-.02,11.72,3.86,13.62,9.6l8.61,25.97Z"/><path class="cls-4" d="M58.42,91.29h-24.11l9.78-17.63c2.33-4.2,6.74-6.83,11.55-6.87h1.19c.88-.02,1.59.69,1.59,1.57v22.92Z"/><path class="cls-4" d="M101.05,90.76h24.11s-9.78-17.63-9.78-17.63c-2.33-4.2-6.74-6.83-11.55-6.87h-1.44c-.74-.02-1.34.58-1.34,1.32v23.17Z"/><rect class="cls-4" x="62.02" y="66.26" width="35.43" height="24.78" rx="3.45" ry="3.45"/><path class="cls-11" d="M27.56,92.41h105.1v8.18c0,14.06-11.41,25.47-25.47,25.47h-54.15c-14.06,0-25.47-11.41-25.47-25.47v-8.18h0Z"/><polygon class="cls-11" points="131.1 93 27.82 93.12 80.31 79.83 131.1 93"/><polygon class="cls-8" points="81.96 84.28 26.36 98.74 25.4 92.53 80.71 78.5 81.96 84.28"/><circle class="cls-8" cx="25.81" cy="95.65" r="3.15"/><polygon class="cls-8" points="79.46 84.26 135.05 98.72 136.01 92.5 80.71 78.48 79.46 84.26"/><circle class="cls-8" cx="135.61" cy="95.62" r="3.15"/><path class="cls-7" d="M144,112.94c-12.8,0-12.8-6-25.6-6s-12.8,6-25.6,6-12.8-6-25.6-6-12.8,6-25.6,6-12.8-6-25.6-6v37.63h128v-31.63Z"/><path class="cls-6" d="M71.91,38.62c.48,0,.42,0,.42,0v-2.07c0-1.19-.96-2.15-2.15-2.15h-6.16c-1.19,0-2.15.96-2.15,2.15v2.07h.64l1.64-2.79,6.91.16.86,2.62Z"/><polygon class="cls-2" points="61.72 37.75 62.44 37.75 62.44 43.59 61.72 43.59 61.72 37.75 61.72 37.75"/><circle class="cls-1" cx="62.92" cy="37.05" r="1.99"/><circle class="cls-1" cx="65.58" cy="36.62" r="1.52"/><circle class="cls-1" cx="68.94" cy="35.97" r="2.17"/><circle class="cls-1" cx="71.61" cy="37.3" r="1.5"/><circle class="cls-1" cx="70.75" cy="35.6" r="2.06"/><circle class="cls-1" cx="66.96" cy="35.21" r="1.41"/><circle class="cls-1" cx="64.75" cy="35.35" r="1.7"/><circle class="cls-1" cx="63.1" cy="35.45" r="1.37"/><circle class="cls-1" cx="67.51" cy="37.37" r="1.31"/><polygon class="cls-2" points="71.76 37.75 72.48 37.75 72.48 43.59 71.76 43.59 71.76 37.75 71.76 37.75"/><ellipse class="cls-11" cx="69.49" cy="42.85" rx="2.04" ry="1.37"/><ellipse class="cls-11" cx="64.66" cy="42.85" rx="2.04" ry="1.37"/><line class="cls-13" x1="66.38" y1="42.84" x2="67.95" y2="42.84"/></svg>