<?xml version="1.0" encoding="utf-8"?><!--Generator: Adobe Illustrator 27.8.0, SVG Export Plug-In . SVG Version: 6.00 Build 0)--><svg version="1.1" xmlns="http://www.w3.org/2000/svg" xmlns:xlink="http://www.w3.org/1999/xlink" x="0px" y="0px" viewBox="0 0 160 160" style="enable-background:new 0 0 160 160;" xml:space="preserve"><style type="text/css">.st0{fill:#FFC6AD;}
	.st1{fill:#F7931E;}
	.st2{fill:#8B181D;}
	.st3{fill:#F5836D;}
	.st4{fill:#FFA28F;}
	.st5{fill:#ABB8B9;}
	.st6{fill:#FBB03B;}
	.st7{fill:#F7E5CD;}
	.st8{fill:#BAC09A;}
	.st9{fill:#463EC5;}
	.st10{fill:#693725;}
	.st11{fill:#FAA332;}
	.st12{fill:#E73245;}
	.st13{fill:#8F411F;}
	.st14{fill:#F68D3D;}
	.st15{fill:#569B7B;}
	.st16{fill:#FFFFFF;}
	.st17{fill:#AACDE5;}
	.st18{fill:#232144;}
	.st19{fill:#A86554;}
	.st20{fill:#FFBD7A;}
	.st21{fill:#E6E3DA;}
	.st22{fill:#4B7CFE;}
	.st23{fill:#D8CBC5;}
	.st24{fill:#FF6200;}
	.st25{fill:#F0A86B;}
	.st26{fill:#E3944F;}
	.st27{fill:#191C15;}
	.st28{fill:#420F0F;}
	.st29{fill:#7D441C;}
	.st30{fill:none;stroke:#000000;stroke-width:0.6944;stroke-miterlimit:10;}
	.st31{fill:#01464D;}
	.st32{fill:#7A2F37;}
	.st33{fill:#9E3F39;}
	.st34{fill:none;stroke:#ABB8B9;stroke-width:3;stroke-miterlimit:10;}
	.st35{fill:#891229;}
	.st36{fill:#7070FF;}
	.st37{fill:#32785A;}
	.st38{fill:#D3E8F3;}
	.st39{fill:#006931;}
	.st40{clip-path:url(#SVGID_00000048501164815924196520000009431655920365279879_);}
	.st41{fill:#9A4039;}
	.st42{fill:none;stroke:#232144;stroke-width:2;stroke-miterlimit:10;}
	.st43{fill:#F5B091;}
	.st44{fill:none;stroke:#000000;stroke-width:1.3429;stroke-miterlimit:10;}
	.st45{fill:#D93B34;}
	.st46{fill:#FE5E57;}
	.st47{clip-path:url(#XMLID_00000012450239693474116210000012521508908877685400_);fill:#F7931E;}
	.st48{fill:#763427;}</style><g id="stramien"/><g id="Design"><g><path class="st25" d="M31.9,47.6c-2.5,0.1-4.4,2.2-4.4,4.7L27,73.5c0,2.2,0.3,12.6,0.3,12.6h8.8l0.6-33.7
			C36.8,49.7,34.6,47.5,31.9,47.6z"/><path class="st25" d="M74.2,87.6L59.5,57.7L27.2,70.7L27,93.5l1.3,15.8l-12.1,35.1l44.4,0c0,0,1.4-20.4,6.5-27.3
			c3.1-4.1,5.9-14.9,5.9-14.9L74.2,87.6z"/></g><g><g><path class="st18" d="M75,112.6l-35.8-0.1c-1.9,0-3.5-1.4-3.5-3.1l0.2-80c0-1.7,1.6-3.1,3.5-3.1l35.8,0.1c1.9,0,3.5,1.4,3.5,3.1
				l-0.2,80C78.5,111.2,76.9,112.6,75,112.6z"/><path class="st21" d="M75.5,105.9l-36.8-0.1c-0.7,0-1.3-0.5-1.3-1.2l0.1-70c0-0.7,0.6-1.2,1.4-1.2l36.8,0.1
				c0.7,0,1.3,0.5,1.3,1.2l-0.1,70C76.9,105.4,76.3,105.9,75.5,105.9z"/><g><path class="st21" d="M61.8,30.3c0,0.4-0.3,0.7-0.8,0.7l-9.6,0c-0.4,0-0.8-0.3-0.8-0.7l0,0c0-0.4,0.3-0.7,0.8-0.7l9.6,0
					C61.5,29.6,61.8,29.9,61.8,30.3L61.8,30.3z"/><circle class="st21" cx="74.2" cy="30" r="1.4"/></g></g><path class="st21" d="M63.5,110.5l-11.2,0c-0.7,0-1.3-0.6-1.3-1.3v0c0-0.7,0.6-1.3,1.3-1.3l11.2,0c0.7,0,1.3,0.6,1.3,1.3l0,0
			C64.8,110,64.2,110.5,63.5,110.5z"/></g><path class="st25" d="M78.4,77.9h0.4c2.6,0,4.7,2.1,4.7,4.7l0,1.1c0,2.6-2.1,4.7-4.7,4.7h-0.4c-2.6,0-4.7-2.1-4.7-4.7v-1.1
		C73.7,80,75.8,77.9,78.4,77.9z"/><path class="st25" d="M78.2,66.9L78.2,66.9c2.7-0.2,5,1.8,5.2,4.5l0.1,0.7c0.2,2.7-1.8,5-4.5,5.2h0c-2.7,0.2-5-1.8-5.2-4.5
		l-0.1-0.7C73.5,69.4,75.5,67.1,78.2,66.9z"/><path class="st25" d="M78.2,55.8L78.2,55.8c2.7-0.2,5,1.8,5.2,4.5l0.1,0.7c0.2,2.7-1.8,5-4.5,5.2h0c-2.7,0.2-5-1.8-5.2-4.5L73.7,61
		C73.5,58.4,75.5,56,78.2,55.8z"/><path class="st25" d="M78.2,89L78.2,89c2.3-0.2,4.4,1.6,4.6,3.9l0,0.6c0.2,2.3-1.6,4.4-3.9,4.6h0c-2.3,0.2-4.4-1.6-4.6-3.9l0-0.6
		C74.1,91.2,75.9,89.1,78.2,89z"/><g><g><path class="st25" d="M86.6,63.9l8.7,40.5l10.2-2.2l-8.7-40.5c-0.7-3.1-3.5-5.1-6.3-4.5C87.6,57.7,85.9,60.8,86.6,63.9"/><path class="st25" d="M118.1,85.4L118.1,85.4c3-0.7,5.9,1.2,6.5,4.1l3.7,16.5c0.7,2.9-1.2,5.8-4.1,6.4l-0.1,0
				c-2.9,0.7-5.8-1.2-6.4-4.1L114,91.8C113.4,88.9,115.2,86,118.1,85.4"/><path class="st25" d="M129.3,87.9L129.3,87.9c2.9-0.7,5.8,1,6.4,3.7l3.5,15.4c0.6,2.7-1.2,5.4-4.1,6.1l-0.1,0
				c-2.9,0.6-5.7-1-6.3-3.7L125.2,94C124.6,91.3,126.4,88.5,129.3,87.9"/><path class="st25" d="M107.1,86.1L107.1,86.1c3-0.7,5.9,1.2,6.5,4.1l3.7,16.5c0.7,2.9-1.2,5.8-4.1,6.4l-0.1,0
				c-2.9,0.7-5.8-1.2-6.4-4.1L103,92.6C102.4,89.7,104.2,86.8,107.1,86.1"/><path class="st25" d="M119,102L119,102c0.6,3-1.2,5.9-4.1,6.5l-16.5,3.6c-2.9,0.6-5.8-1.2-6.4-4.1l0-0.1
				c-0.6-2.9,1.2-5.8,4.1-6.4l16.5-3.6C115.5,97.2,118.3,99.1,119,102"/><rect x="93.6" y="110.8" transform="matrix(0.9769 -0.2136 0.2136 0.9769 -22.3936 24.0263)" class="st25" width="12.7" height="9.6"/><path class="st25" d="M96.1,101.5l16.5-3.6c2.9-0.6,5.8,1.2,6.4,4.1l0,0.1c0.6,2.9-1.2,5.8-4.1,6.4l-16.5,3.6"/><path class="st25" d="M95.5,113.1c0,0,15.1-7.1,24.4,8.6"/></g><path class="st25" d="M140.5,122.4l2.8,22h-6.4l-26.7-0.1l-0.7-6.4c-4.9-2.8-11.9-11.2-16.7-16.3c-0.9-0.9-1.3-2.2-1.3-3.5
			l0.1-10.7l8-1L135.8,93l4.5,18.2C141,114.9,141.3,118.6,140.5,122.4z"/></g></g></svg>