<?xml version="1.0" encoding="UTF-8"?><svg xmlns="http://www.w3.org/2000/svg" viewBox="0 0 160 160"><defs><style>.cls-1{fill:#e7e4d7;}.cls-2{fill:#241c4a;}.cls-3{fill:#ff8f00;}.cls-4{fill:#ffae00;}.cls-5{fill:#396bff;}</style></defs><g id="envelop"><rect class="cls-3" x="25.94" y="35.29" width="31.1" height="5.86" rx="1.5" ry="1.5" transform="translate(82.97 76.43) rotate(-180)"/><rect class="cls-3" x="25.94" y="41.72" width="31.1" height="5.86" rx="1.5" ry="1.5" transform="translate(82.97 89.29) rotate(-180)"/><rect class="cls-3" x="25.94" y="48.15" width="31.1" height="5.86" rx="1.5" ry="1.5" transform="translate(82.97 102.15) rotate(-180)"/><rect class="cls-3" x="25.94" y="16" width="31.1" height="5.86" rx="1.5" ry="1.5" transform="translate(82.97 37.86) rotate(-180)"/><rect class="cls-3" x="25.94" y="22.43" width="31.1" height="5.86" rx="1.5" ry="1.5" transform="translate(82.97 50.72) rotate(-180)"/><rect class="cls-3" x="25.94" y="28.86" width="31.1" height="5.86" rx="1.5" ry="1.5" transform="translate(82.97 63.58) rotate(-180)"/><rect class="cls-3" x="25.94" y="54.57" width="31.1" height="5.86" rx="1.5" ry="1.5" transform="translate(82.97 115.01) rotate(-180)"/><rect class="cls-3" x="25.94" y="61" width="31.1" height="5.86" rx="1.5" ry="1.5" transform="translate(82.97 127.87) rotate(-180)"/><rect class="cls-3" x="59.15" y="48.43" width="31.1" height="5.86" rx="1.5" ry="1.5" transform="translate(149.41 102.72) rotate(-180)"/><rect class="cls-3" x="59.15" y="54.86" width="31.1" height="5.86" rx="1.5" ry="1.5" transform="translate(149.41 115.58) rotate(-180)"/><rect class="cls-3" x="59.15" y="61.29" width="31.1" height="5.86" rx="1.5" ry="1.5" transform="translate(149.41 128.44) rotate(-180)"/><rect class="cls-3" x="59.15" y="29.14" width="31.1" height="5.86" rx="1.5" ry="1.5" transform="translate(149.41 64.15) rotate(-180)"/><rect class="cls-3" x="59.15" y="35.57" width="31.1" height="5.86" rx="1.5" ry="1.5" transform="translate(149.41 77) rotate(-180)"/><rect class="cls-3" x="59.15" y="42" width="31.1" height="5.86" rx="1.5" ry="1.5" transform="translate(149.41 89.86) rotate(-180)"/><rect class="cls-3" x="59.15" y="67.72" width="31.1" height="5.86" rx="1.5" ry="1.5" transform="translate(149.41 141.29) rotate(-180)"/><rect class="cls-3" x="59.15" y="74.15" width="31.1" height="5.86" rx="1.5" ry="1.5" transform="translate(149.41 154.15) rotate(-180)"/></g><g id="rocket"><rect class="cls-5" x="17.05" y="56.1" width="126.95" height="87.9"/><rect class="cls-1" x="24.72" y="102.57" width="62.28" height="32.23"/><rect class="cls-2" x="77.15" y="56.1" width="6.74" height="14"/><rect class="cls-3" x="107.13" y="112.38" width="31.1" height="5.86" rx="1.5" ry="1.5" transform="translate(245.35 230.61) rotate(-180)"/><rect class="cls-3" x="107.13" y="118.82" width="31.1" height="5.86" rx="1.5" ry="1.5" transform="translate(245.35 243.5) rotate(-180)"/><rect class="cls-3" x="107.13" y="125.26" width="31.1" height="5.86" rx="1.5" ry="1.5" transform="translate(245.35 256.38) rotate(-180)"/><rect class="cls-3" x="107.13" y="131.7" width="31.1" height="5.86" rx="1.5" ry="1.5" transform="translate(245.35 269.26) rotate(-180)"/><rect class="cls-3" x="107.13" y="138.14" width="31.1" height="5.86" rx="1.5" ry="1.5" transform="translate(245.35 282.14) rotate(-180)"/><ellipse class="cls-4" cx="97.66" cy="128.19" rx="15.55" ry="15.57"/><path class="cls-3" d="M84.62,128.29c0-7.14,5.81-12.95,12.94-12.95s12.94,5.81,12.94,12.95c0,7.14-5.81,12.95-12.94,12.95s-12.94-5.81-12.94-12.95ZM85.62,128.29c0,6.59,5.36,11.95,11.94,11.95,6.58,0,11.94-5.36,11.94-11.95,0-6.59-5.36-11.95-11.94-11.95-6.58,0-11.94,5.36-11.94,11.95Z"/><rect class="cls-3" x="107.13" y="105.87" width="31.1" height="5.86" rx="1.5" ry="1.5" transform="translate(245.35 217.61) rotate(-180)"/><rect class="cls-3" x="107.13" y="86.59" width="31.1" height="5.86" rx="1.5" ry="1.5" transform="translate(245.35 179.03) rotate(-180)"/><rect class="cls-3" x="107.13" y="93.02" width="31.1" height="5.86" rx="1.5" ry="1.5" transform="translate(245.35 191.89) rotate(-180)"/><rect class="cls-3" x="107.13" y="99.44" width="31.1" height="5.86" rx="1.5" ry="1.5" transform="translate(245.35 204.75) rotate(-180)"/></g></svg>