<?xml version="1.0" encoding="UTF-8"?><svg xmlns="http://www.w3.org/2000/svg" version="1.1" viewBox="0 0 160 160"><defs><style>.cls-1 {
        fill: #9e3f39;
      }

      .cls-2 {
        fill: #891229;
      }

      .cls-3 {
        fill: #ffbd7a;
      }

      .cls-4, .cls-5 {
        fill: #232144;
      }

      .cls-6 {
        fill: #1d1d1b;
      }

      .cls-7 {
        fill: #fca55f;
      }

      .cls-8, .cls-9 {
        fill: #e6e3da;
      }

      .cls-10 {
        fill: #fff;
      }

      .cls-9, .cls-5 {
        fill-rule: evenodd;
      }

      .cls-11 {
        fill: #7070ff;
      }

      .cls-12 {
        fill: #ff6200;
      }</style></defs><!--Generator: Adobe Illustrator 28.6.0, SVG Export Plug-In . SVG Version: 1.2.0 Build 709)--><g><g id="phone"><path class="cls-5" d="M128.4,144V26.2c0-5.6-4.5-10.2-10.2-10.2H41.8c-5.6,0-10.2,4.5-10.2,10.2v117.8h96.8Z"/><path class="cls-9" d="M125.1,144V27c0-3.8-3.1-6.9-6.9-6.9H41.8c-3.8,0-6.9,3.1-6.9,6.9v117h90.1Z"/><path class="cls-5" d="M65.5,28.3h29c4.6,0,8.3-3.7,8.3-8.3h0s-13.2,0-13.2,0h-32.4c0,4.6,3.7,8.3,8.3,8.3Z"/><rect class="cls-8" x="67.6" y="23.1" width="24.9" height="2.3" transform="translate(160 48.6) rotate(180)"/></g><g id="woman"><g><path class="cls-4" d="M119.8,144l-5.4-27.9c-.5-5.5-5-10-10.7-10.4-.2,0-.5,0-.7,0h0s-.4,0-.4,0c0,0-.1,0-.2,0h-45s0,0,0,0h-.9,0c-.1,0-.2,0-.3,0-5.7.4-10.1,4.9-10.7,10.4l-5.4,27.9h79.5Z"/><path class="cls-3" d="M75.9,129.9l6.1,4.9,3.7,1.9,6.6,7.3h1.7l6.9-6.4-6.7-7.3-.6-13.4c0-1-.8-1.9-1.8-2-1,0-1.9.8-2,1.8l-.2,5.4-5.5-4.2c-.8-.6-1.9-.5-2.5.2h0c-.6.8-.5,1.9.2,2.5h0c0,0-.9-.7-.9-.7-.8-.6-1.9-.5-2.5.2h0c-.6.8-.5,1.9.2,2.5-.7-.4-1.7-.2-2.2.5-.6.8-.5,1.9.2,2.5l1.3,1.1c-.8-.5-1.8-.4-2.4.4-.6.8-.5,1.9.2,2.5Z"/><path class="cls-4" d="M101.4,144l3.5-4c2.3-2.6,1.8-6.6-1.1-8.5l-.6-.4c-2.5-1.7-5.9-1.1-7.7,1.4l-4.6,6.3c-1.2,1.6-1.4,3.5-.8,5.3h11.3Z"/><path class="cls-12" d="M73.2,103c-3.2,6.8-11.6,9.5-11.6,9.5,0,0-3.3-8.3-.1-15,3.2-6.8,11.6-9.5,11.6-9.5,0,0,3.3,8.3.1,15"/><path class="cls-12" d="M86.8,103.3c3.2,6.8,11.6,9.5,11.6,9.5,0,0,3.3-8.3.1-15-3.2-6.8-11.6-9.5-11.6-9.5,0,0-3.3,8.3-.1,15"/><path class="cls-1" d="M95.6,86.8c0,2-1.6,3.6-3.6,3.6s-3.6-1.6-3.6-3.6,1.6-3.6,3.6-3.6,3.6,1.6,3.6,3.6"/><path class="cls-1" d="M71.5,86.7c0,2-1.6,3.6-3.6,3.6s-3.6-1.6-3.6-3.6,1.6-3.6,3.6-3.6,3.6,1.6,3.6,3.6"/><path class="cls-7" d="M71.2,104.8v-11.4h17.5v11.4c0,4.8-3.9,8.8-8.8,8.8s-8.8-3.9-8.8-8.8"/><path class="cls-3" d="M68.3,91.8v-16.4c0-5.2,4.2-9.4,9.4-9.4h4.5c5.2,0,9.4,4.2,9.4,9.4v16.4c0,5.2-4.2,9.4-9.4,9.4h-4.5c-5.2,0-9.4-4.2-9.4-9.4"/><path class="cls-6" d="M80.1,90.7c-.1,0-.3,0-.4,0-.4,0-.8-.3-1.1-.6-.2-.2-.4-.2-.6-.2-.4,0-.7.4-.7.4l-.4-.3s.4-.6,1-.6c.3,0,.6,0,.9.4.3.3.6.4.9.5.3,0,.6,0,.9,0,.1,0,.2-.1.3-.2.1-.1.5-.5,1-.5.4,0,.8.2,1.2.5l-.3.3c-.3-.3-.6-.4-.9-.4-.3,0-.6.2-.6.3-.1.1-.3.3-.4.3-.2.1-.5.2-.7.2Z"/><path class="cls-2" d="M81.3,94.1c-.2-1-1.6-.6-1.6-.6l-3.3.6c0-.2,6,6.5,9.5-1.8l-3.3.6s-1.5.1-1.3,1.1"/><path class="cls-6" d="M86.1,79.1h.1c1.5,0,2.9.8,3.8,2h-7.7c.9-1.3,2.3-2,3.8-2"/><path class="cls-6" d="M74,79.1h-.1c-1.5,0-2.9.8-3.8,2h7.7c-.9-1.3-2.3-2-3.8-2"/><path class="cls-10" d="M77.2,85.7s-.8-1.8-2.5-2.4-3.4.3-3.4.3c0,0,.7,1.5,2.3,2,1.6.6,3.6,0,3.6,0"/><path class="cls-6" d="M75.4,84.4c0,.8-.6,1.4-1.4,1.4s-1.4-.6-1.4-1.4.6-1.4,1.4-1.4,1.4.6,1.4,1.4"/><path class="cls-6" d="M77.2,85.7c-.4-2.9-4.1-4.2-6.4-2.8.1.2.4.7.5.9.5-.3,3.1-1.4,5.5,1.5.1.2.2.2.4.4"/><path class="cls-12" d="M68.5,87.4v-6.2c0-5.2,4.1-9.4,9.3-9.4l1.6-1.1v-1.8h1.4v1.8s1.5,1.1,1.5,1.1c5.1,0,9.3,4.2,9.3,9.4v6.2h1.8v-12.1c0-5.6-4.5-10.2-10.2-10.2h-6.3c-5.6,0-10.2,4.6-10.2,10.2v12.1h1.8Z"/><path class="cls-12" d="M67.6,82.4h0c0-6.5,5.2-11.7,11.7-11.7,0,6.5-5.2,11.7-11.7,11.7"/><path class="cls-12" d="M92.4,82.9h0c0-6.5-5.2-12.3-11.7-12.3,0,6.5,5.2,12.3,11.7,12.3"/><path class="cls-11" d="M93.3,79.5v-2.1c0-5.4-4.7-9.8-10.4-9.8h-5.9c-5.7,0-10.4,4.4-10.4,9.8v1.9c-2.3.5-4,2-4,3.7v3.8c0,1.7,1.7,3.2,4,3.7v.6c0,4.4,3.5,7.9,7.9,7.9h.5c.3.6.9,1,1.7,1h1.5c1,0,1.9-.8,1.9-1.9s-.8-1.9-1.9-1.9h-1.5c-.7,0-1.3.4-1.7,1h-.5c-3.4,0-6.2-2.8-6.2-6.2v-2.6h0v-9.3h0s0,0,0,0v-1.8c0-4.4,3.8-8,8.6-8h5.9c4.7,0,8.6,3.6,8.6,8v10h0v3.2h0c3.2,0,5.8-1.7,5.8-3.8v-3.7c0-1.7-1.7-3.1-4-3.6Z"/><path class="cls-6" d="M82.6,84.3h0c.2-.2.4-.2.7,0,3.4,2.5,6.1-1,6.1-1,0,0-.3.6-.8,1.2-1.5,1.6-3.9,1.9-5.7.7,0,0,0,0-.1,0-.2-.2-.3-.5,0-.7h0Z"/></g></g></g></svg>