<?xml version="1.0" encoding="UTF-8"?><svg xmlns="http://www.w3.org/2000/svg" viewBox="0 0 88.96 128.47"><defs><style>.cls-1{fill:#d8cbc5;}.cls-2{fill:#9e3f39;}.cls-3{fill:#232144;}.cls-4{fill:#e6e3da;}.cls-5{fill:#fff;}.cls-6{fill:#7070ff;}.cls-7{fill:#ff6200;}</style></defs><g id="phone"><rect class="cls-3" width="46.58" height="95.24" rx="4.87" ry="4.87"/><rect class="cls-4" x="1.61" y="1.63" width="43.37" height="92" rx="3.32" ry="3.32"/><path class="cls-3" d="M12.31,1.45h21.95c0,2.21-1.79,4-4,4h-13.96c-2.21,0-4-1.79-4-4h0Z"/><rect class="cls-4" x="17.3" y="1.97" width="11.97" height="1.13"/><path class="cls-5" d="M26.24,23.94h-5.9c-1.08,0-1.97-.89-1.97-1.97v-5.9c0-1.08.89-1.97,1.97-1.97h5.9c1.08,0,1.97.89,1.97,1.97v5.9c0,1.08-.89,1.97-1.97,1.97"/><path class="cls-7" d="M28.21,21.41c-.26-.14-.61-.33-.67-.36-.16-.04-.24-.12-.4-.16v-.32c.22.06.63.1,1.07.28v.56ZM26.22,14.83c-.08.28-.12.64-.32.72-.08.04-.12.04-.16.04v-.32s.16-.32.12-.36c0,0-.36.08-.44.12-.04.04-.28.16-.32.16,0,0-.12-.04-.16-.04-.12-.08-.2-.08-.32-.16-.16.48-.2.6-.2.52,0,0-.56-.36-.76-.6-.52.08-.52.16-.96.32-.16.16-.4.36-.56.6-.08.16-.16.24-.24.4l.4.16s.24-.32.28-.4c.28-.16.76-.44.92-.6.04.08.52.36.72.48.16.12.32.16.48.24.08-.12.16-.24.24-.52.12.08.28.08.4.12,0,.16,0,.32.04.48,0,.08.08.04.24-.04.24-.08.48-.12.6-.16.28-.16.44-.48.68-.48.2,0,.56.12.64.2.12.04.2.08.32.08s.21-.08.3-.16c.03.14.05.29.05.44v4.51c-.44-.18-.8-.25-1.11-.25,0-.04-.08-.08,0-.12.12-.08.16-.12.2-.16.12-.16.2-.32.24-.48.12-.24.24-.16.32-.68-.12,0-.16.08-.28.12.04-.12.08-.24.08-.36.04-.24.12-.4.12-.68.12-.04.32-.16.36-.32,0-.04,0-.16.04-.32,0-.24.04-.44-.04-.6,0-.04-.28-.44-.48-.56-.28-.12-.4-.08-.6-.04-.24,0-.56.24-.56.68-.24,0-.72.04-1,.28-.24-.12-.44-.16-.64-.2h-.36c-.04-.16-.12-.32-.28-.44-.2-.12-.44-.28-.72-.28-.12,0-.24-.04-.36.04-.12.08-.32.16-.36.32-.08.2-.16.36-.16.56s.12.36.24.56c.04.08.08.08.16.12.04,0,.2.08.24.12.04.04-.04.16-.04.4q0,.2.04.36c0,.16.04.32.08.44-.12,0-.2-.12-.28-.04,0,.08.08.28.16.44.2.2.4.4.52.64,0,.04,0,.12.04.12-.28.04-.56.04-.84.12-.24.08-.52.2-.76.32,0,.16.04.28.04.28.04,0,.4-.2.72-.28.52-.16.8-.12.8-.12.04.08.08.2.04.24-.48.2-.96.44-1.4.72.04.08,0,.2.08.28.4-.24.96-.52,1.36-.68.16-.04.16,0,.24,0,.04.04.12.2.2.2.12,0,.24-.12.36-.16.24-.08.44-.16.68-.2.08-.04.08-.12.08-.2q.04-.08.04-.2s-.16-.08-.24-.24c-.08-.12,0-.24-.04-.24-.12.08-.28.16-.32,0-.04-.12-.04-.28.08-.32.4-.16.84-.16,1.24,0,.08,0,.12.08.12.16.04.08,0,.16-.08.24-.12.04-.24-.12-.24,0s-.08.28-.28.36c-.04.04,0,.16.04.28,0,.04,0,.12.04.12.16.04.4.08.52.16.16.08.44.32.48.28.12-.08.16-.2.24-.28.41.18.74.3,1.23.6v.29c0,.31-.07.6-.2.86-.04-.08-.07-.15-.07-.18q-.08-.04-.2-.04s-.12-.04-.16-.04c0,0,.04.2.12.4.03.07.09.13.14.15-.11.15-.25.29-.4.41-.04-.12-.06-.22-.06-.24-.08-.08.08-.36-.12-.36-.08-.04-.32-.12-.32-.12-.04.12-.04.36,0,.48,0,.09.11.31.2.43-.15.08-.32.14-.49.17-.02-.1-.05-.21-.07-.29v-.64c-.16.04-.2.08-.24.08-.12.08-.2.12-.2.2,0,.16.04.32.04.4,0,.12,0,.2.04.24.06.02.1.03.14.04-.04,0-.08,0-.12,0h-.56c.07-.1.14-.18.18-.29.04-.12,0-.32-.04-.52-.16.04-.48.08-.48.2-.04.12,0,.24,0,.32.04.08.04.16.04.28,0,0,0,0,0,0h-.33c-.02-.06-.03-.12-.03-.17-.04-.12,0-.24-.04-.36-.04-.08-.12-.12-.2-.12s-.28-.12-.28-.04c-.2,0-.04.2-.04.32,0,.09.12.24.22.37h-2.74s.07-.05.11-.09c.08-.12.32-.36.4-.44-.08-.08-.12-.2-.16-.28-.16,0-.76.24-.76.24.11.18.18.36.26.57h-1.44c-1.09,0-1.97-.88-1.97-1.97v-5.9c0-1.09.88-1.97,1.97-1.97h5.9c.87,0,1.61.57,1.87,1.35-.32-.21-.67-.4-1.01-.54-.24.2-.4.36-.52.36s-.04-.24-.04-.4c-.12,0-.2,0-.32-.04M26.46,19.81c-.04-.08-.08-.16-.12-.24-.08-.08-.12-.08-.24-.16,0-.28-.04-.28-.04-.56,0-.04-.08-.48-.08-.48,0-.04.12-.16.24-.2,0,0,.76,0,1.12.04,0,0-.04.08-.08.08-.04.08-.12.12-.2.16-.04,0-.08.08-.08.12-.08.12-.2.16-.36.16-.08,0-.24,0-.32-.16,0,0,.04.48.04.6,0,.04.04.04.04.04.16.04.2.2.28.28,0,0,.04.04.08.04.16.12.52.28.36.28,0,.08-.12.28-.16.28-.12-.12-.32-.2-.48-.28M26.86,20.53s-.04.24-.04.24c-.16-.04-.28-.16-.48-.16q0-.12.04-.16c.24-.04.36.04.48.08M25.82,17.4c-.16-.16.24-.04.44,0,.08,0,.76.16.32.36-.08.08-.28.04-.48.04,0-.08,0-.24-.08-.24-.08-.08-.2-.08-.2-.16M27.02,16.6c.12-.12.28-.16.44-.12.2.04.24.08.32.16.12.16.08.48.04.68-.04.12-.16.2-.28.2-.2-.24-.4-.4-.68-.48-.04-.16.08-.32.16-.44M24.53,19.69c-.04.12-.04.2-.16.24-.12.04-.2.16-.28.12-.12-.08-.08-.28,0-.4.08-.12.24-.2.36-.24.16-.04.12-.36.12-.4.04-.08,0-.2,0-.28-.08.04-.08,0-.24.04-.16,0-.24-.08-.32-.16-.08-.08-.28-.24-.36-.4.2-.04.36-.04.56-.04h.52c.12.04.2.12.2.2,0,.04-.04.28-.04.32-.04.24-.04.32-.08.68v.12c-.04.08-.2.12-.28.2M24.61,20.53s-.2.12-.2.12c-.08.04-.12.08-.24.12-.04-.08-.08-.24-.08-.24,0,0,.16-.04.28-.04.08,0,.16,0,.24.04M23.41,17.6c-.08-.08-.24-.2-.32-.36-.12-.16-.08-.32-.08-.36.08-.24.36-.32.52-.36.08,0,.16,0,.28.08.16.08.24.08.32.36,0,.04,0,.08-.04.08,0,0-.24.16-.32.24-.2.12-.24.32-.36.32M24.61,17.84h-.2c0-.12.08-.16.2-.28.12-.08.24-.16.32-.16.08-.04.24-.08.24,0,0,.16-.12.24-.24.4-.08.12-.12.04-.32.04"/><path class="cls-7" d="M26.34,20.61c.2,0,.32.12.48.16,0,0,.04-.2.04-.24-.12-.04-.24-.12-.48-.08t-.04.16"/><path class="cls-7" d="M27.1,19.81c.16,0-.2-.16-.36-.28-.04,0-.08-.04-.08-.04-.08-.08-.12-.24-.28-.28,0,0-.04,0-.04-.04,0-.12-.04-.6-.04-.6.08.16.24.16.32.16.16,0,.28-.04.36-.16,0-.04.04-.12.08-.12.08-.04.16-.08.2-.16.04,0,.08-.08.08-.08-.36-.04-1.12-.04-1.12-.04-.12.04-.24.16-.24.2,0,0,.08.44.08.48,0,.28.04.28.04.56.12.08.16.08.24.16.04.08.08.16.12.24.16.08.36.16.48.28.04,0,.16-.2.16-.28"/><path class="cls-7" d="M27.54,17.52c.12,0,.24-.08.28-.2.04-.2.08-.52-.04-.68-.08-.08-.12-.12-.32-.16-.16-.04-.32,0-.44.12-.08.12-.2.28-.16.44.28.08.48.24.68.48"/><path class="cls-7" d="M26.1,17.8c.2,0,.4.04.48-.04.44-.2-.24-.36-.32-.36-.2-.04-.6-.16-.44,0,0,.08.12.08.2.16.08,0,.08.16.08.24"/><path class="cls-7" d="M26.58,15.27c.12,0,.28-.16.52-.36.34.14.69.34,1.01.54-.26-.78-1-1.35-1.87-1.35h-5.9c-1.09,0-1.97.88-1.97,1.97v5.9c0,1.09.88,1.97,1.97,1.97h1.44c-.07-.21-.15-.39-.26-.57,0,0,.6-.24.76-.24.04.08.08.2.16.28-.08.08-.32.32-.4.44-.04.04-.07.06-.11.09h2.74c-.11-.13-.22-.28-.22-.37,0-.12-.16-.32.04-.32,0-.08.2.04.28.04s.16.04.2.12c.04.12,0,.24.04.36,0,.05.02.11.03.17h.33s0,0,0,0c0-.12,0-.2-.04-.28,0-.08-.04-.2,0-.32,0-.12.32-.16.48-.2.04.2.08.4.04.52-.04.11-.11.19-.18.29h.56s.08,0,.12,0c-.04-.01-.08-.02-.14-.04-.04-.04-.04-.12-.04-.24,0-.08-.04-.24-.04-.4,0-.08.08-.12.2-.2.04,0,.08-.04.24-.08v.64c.02.07.04.19.07.29.17-.04.34-.1.49-.17-.09-.13-.2-.34-.2-.43-.04-.12-.04-.36,0-.48,0,0,.24.08.32.12.2,0,.04.28.12.36,0,.02.01.12.06.24.15-.12.29-.25.4-.41-.04-.02-.1-.09-.14-.15-.08-.2-.12-.4-.12-.4.04,0,.12,0,.16.04q.12,0,.2.04s.03.1.07.18c.13-.26.2-.55.2-.86v-.29c-.49-.3-.82-.41-1.23-.6-.08.08-.12.2-.24.28-.04.04-.32-.2-.48-.28-.12-.08-.36-.12-.52-.16-.04,0-.04-.08-.04-.12-.04-.12-.08-.24-.04-.28.2-.08.28-.24.28-.36s.12.04.24,0c.08-.08.12-.16.08-.24,0-.08-.04-.16-.12-.16-.4-.16-.84-.16-1.24,0-.12.04-.12.2-.08.32.04.16.2.08.32,0,.04,0-.04.12.04.24.08.16.24.2.24.24q0,.12-.04.2c0,.08,0,.16-.08.2-.24.04-.44.12-.68.2-.12.04-.24.16-.36.16-.08,0-.16-.16-.2-.2-.08,0-.08-.04-.24,0-.4.16-.96.44-1.36.68-.08-.08-.04-.2-.08-.28.44-.28.92-.52,1.4-.72.04-.04,0-.16-.04-.24,0,0-.28-.04-.8.12-.32.08-.68.28-.72.28,0,0-.04-.12-.04-.28.24-.12.52-.24.76-.32.28-.08.56-.08.84-.12-.04,0-.04-.08-.04-.12-.12-.24-.32-.44-.52-.64-.08-.16-.16-.36-.16-.44.08-.08.16.04.28.04-.04-.12-.08-.28-.08-.44q-.04-.16-.04-.36c0-.24.08-.36.04-.4-.04-.04-.2-.12-.24-.12-.08-.04-.12-.04-.16-.12-.12-.2-.24-.36-.24-.56s.08-.36.16-.56c.04-.16.24-.24.36-.32.12-.08.24-.04.36-.04.28,0,.52.16.72.28.16.12.24.28.28.44h.36c.2.04.4.08.64.2.28-.24.76-.28,1-.28,0-.44.32-.68.56-.68.2-.04.32-.08.6.04.2.12.48.52.48.56.08.16.04.36.04.6-.04.16-.04.28-.04.32-.04.16-.24.28-.36.32,0,.28-.08.44-.12.68,0,.12-.04.24-.08.36.12-.04.16-.12.28-.12-.08.52-.2.44-.32.68-.04.16-.12.32-.24.48-.04.04-.08.08-.2.16-.08.04,0,.08,0,.12.31,0,.67.07,1.11.25v-4.51c0-.15-.02-.3-.05-.44-.09.08-.18.16-.3.16s-.2-.04-.32-.08c-.08-.08-.44-.2-.64-.2-.24,0-.4.32-.68.48-.12.04-.36.08-.6.16-.16.08-.24.12-.24.04-.04-.16-.04-.32-.04-.48-.12-.04-.28-.04-.4-.12-.08.28-.16.4-.24.52-.16-.08-.32-.12-.48-.24-.2-.12-.68-.4-.72-.48-.16.16-.64.44-.92.6-.04.08-.24.36-.28.4l-.4-.16c.08-.16.16-.24.24-.4.16-.24.4-.44.56-.6.44-.16.44-.24.96-.32.2.24.76.6.76.6,0,.08.04-.04.2-.52.12.08.2.08.32.16.04,0,.16.04.16.04.04,0,.28-.12.32-.16.08-.04.44-.12.44-.12.04.04-.12.32-.12.36v.32s.08,0,.16-.04c.2-.08.24-.44.32-.72.12.04.2.04.32.04,0,.16-.08.4.04.4M25.45,21.29c.4,0,.8.04,1.12.24,0,.16,0,.36-.08.52,0,.04-.08.2-.16.28-.12-.16-.36-.32-.36-.32.04.16,0,.2-.04.4,0,.04-.28.04-.28.04-.24-.12-.28-.28-.28-.28,0,.04-.04.32-.2.32s-.28,0-.28-.12c-.04-.12-.04-.2-.04-.32v-.16c-.12.04-.2.16-.28.24-.04,0-.08-.08-.12-.08-.08-.16-.12-.28-.16-.44.4-.28.8-.32,1.16-.32M23.65,22.49s.12.04.16.04c.12.08.16.16.2.24.04.08.08.28.08.28,0,.28-.12.36-.16.52-.08-.12-.12-.28-.16-.4-.04-.12-.12-.2-.2-.32.04-.04.08-.36.08-.36M22.85,22.17c.08.04.2.08.24.16.08.12,0,.28.04.4.04.2.16.56.16.56-.12-.08-.24-.12-.36-.2-.08-.04-.16-.08-.16-.12-.04-.12-.08-.4-.08-.48,0-.16.08-.32.16-.32M21.33,22.17c-.04-.12-.04-.24-.08-.36,0-.12-.04-.56-.04-.64v-.2c.16-.08.36-.2.52-.28-.04.2-.08.28-.08.6,0,.08.08.32.12.6-.08.16-.12.28-.24.4-.04.08-.12.12-.12.12,0-.08-.04-.16-.08-.24M21.69,23.01c0,.08-.12.16-.12.16,0-.16-.04-.36-.04-.44-.04-.08-.08-.12-.08-.2.04-.04.12-.08.2-.12.04-.08.24-.2.28-.24.12.12.16.16.24.36-.04.04-.28.24-.48.48M22.25,19.81c-.4.2-.56.4-.64.48-.12.16-.36.4-.44.52l-.04-.48q-.04-.12-.04-.36c.2-.12.28-.2.48-.32.08-.08.36-.16.76-.28,0,.16-.04.28-.08.44M22.41,18.44c.04.08-.04.08-.04.32-.04.08-.08.04-.16.12-.04.04-.48.36-.52.4-.08.04-.12.08-.24.2-.04-.12-.04-.24-.08-.36,0-.04,0-.32.04-.44,0-.08.36-.2.56-.24.08,0,.4-.08.44,0M22.21,16.52c-.04.28-.08.36-.08.68,0,.04.08.24.12.32.04.08.08.16.08.24,0,.04-.04.08-.08.12-.12.08-.16.04-.2.12-.2.16-.28.24-.44.36q-.08.08-.16.2s-.04-.44-.08-.68c.16-.08.24-.16.4-.28-.04-.24-.08-.4-.08-.6,0-.12,0-.24.08-.36.08-.16.28-.16.44-.12"/><path class="cls-7" d="M27.14,20.89c.16.04.24.12.4.16.06.03.41.22.67.36v-.56c-.44-.18-.84-.22-1.07-.28v.32Z"/><path class="cls-7" d="M25.17,17.4c0-.08-.16-.04-.24,0-.08,0-.2.08-.32.16-.12.12-.2.16-.2.28h.2c.2,0,.24.08.32-.04.12-.16.24-.24.24-.4"/><path class="cls-7" d="M24.81,19.48v-.12c.04-.36.04-.44.08-.68,0-.04.04-.28.04-.32,0-.08-.08-.16-.2-.2h-.52c-.2,0-.36,0-.56.04.08.16.28.32.36.4.08.08.16.16.32.16.16-.04.16,0,.24-.04,0,.08.04.2,0,.28,0,.04.04.36-.12.4-.12.04-.28.12-.36.24-.08.12-.12.32,0,.4.08.04.16-.08.28-.12.12-.04.12-.12.16-.24.08-.08.24-.12.28-.2"/><path class="cls-7" d="M24.13,16.96c-.08-.28-.16-.28-.32-.36-.12-.08-.2-.08-.28-.08-.16.04-.44.12-.52.36,0,.04-.04.2.08.36.08.16.24.28.32.36.12,0,.16-.2.36-.32.08-.08.32-.24.32-.24.04,0,.04-.04.04-.08"/><path class="cls-7" d="M24.09,20.53s.04.16.08.24c.12-.04.16-.08.24-.12,0,0,.16-.08.2-.12-.08-.04-.16-.04-.24-.04-.12,0-.28.04-.28.04"/><path class="cls-5" d="M23.93,23.57c.04-.16.16-.24.16-.52,0,0-.04-.2-.08-.28-.04-.08-.08-.16-.2-.24-.04,0-.12-.08-.16-.04,0,0-.04.32-.08.36.08.12.16.2.2.32.04.12.08.28.16.4"/><path class="cls-5" d="M22.93,23.09c.12.08.24.12.36.2,0,0-.12-.36-.16-.56-.04-.12.04-.28-.04-.4-.04-.08-.16-.12-.24-.16-.08,0-.16.16-.16.32,0,.08.04.36.08.48,0,.04.08.08.16.12"/><path class="cls-5" d="M24.57,22.13c.08-.08.16-.2.28-.24v.16c0,.12,0,.2.04.32,0,.12.12.12.28.12s.2-.28.2-.32c0,0,.04.16.28.28,0,0,.28,0,.28-.04.04-.2.08-.24.04-.4,0,0,.24.16.36.32.08-.08.16-.24.16-.28.08-.16.08-.36.08-.52-.32-.2-.72-.24-1.12-.24-.36,0-.76.04-1.16.32.04.16.08.28.16.44.04,0,.08.08.12.08"/><path class="cls-5" d="M21.97,18.44c-.2.04-.56.16-.56.24-.04.12-.04.4-.04.44.04.12.04.24.08.36.12-.12.16-.16.24-.2.04-.04.48-.36.52-.4.08-.08.12-.04.16-.12,0-.24.08-.24.04-.32-.04-.08-.36,0-.44,0"/><path class="cls-5" d="M21.77,16.64c-.08.12-.08.24-.08.36,0,.2.04.36.08.6-.16.12-.24.2-.4.28.04.24.08.68.08.68q.08-.12.16-.2c.16-.12.24-.2.44-.36.04-.08.08-.04.2-.12.04-.04.08-.08.08-.12,0-.08-.04-.16-.08-.24-.04-.08-.12-.28-.12-.32,0-.32.04-.4.08-.68-.16-.04-.36-.04-.44.12"/><path class="cls-5" d="M21.09,19.97q0,.24.04.36l.04.48c.08-.12.32-.36.44-.52.08-.08.24-.28.64-.48.04-.16.08-.28.08-.44-.4.12-.68.2-.76.28-.2.12-.28.2-.48.32"/><path class="cls-5" d="M21.53,22.29c.12-.12.16-.24.24-.4-.04-.28-.12-.52-.12-.6,0-.32.04-.4.08-.6-.16.08-.36.2-.52.28v.2c0,.08.04.52.04.64.04.12.04.24.08.36.04.08.08.16.08.24,0,0,.08-.04.12-.12"/><path class="cls-5" d="M21.65,22.41c-.08.04-.16.08-.2.12,0,.08.04.12.08.2,0,.08.04.28.04.44,0,0,.12-.08.12-.16.2-.24.44-.44.48-.48-.08-.2-.12-.24-.24-.36-.04.04-.24.16-.28.24"/><circle class="cls-7" cx="10.88" cy="32.19" r="1.22"/><circle class="cls-7" cx="17.09" cy="32.19" r="1.22"/><circle class="cls-7" cx="23.29" cy="32.19" r="1.22"/><circle class="cls-7" cx="29.49" cy="32.19" r="1.22"/><circle class="cls-7" cx="35.7" cy="32.19" r="1.22"/><rect class="cls-1" x="7.05" y="41.7" width="6.63" height="6.63" rx="1.36" ry="1.36"/><rect class="cls-1" x="19.97" y="41.7" width="6.63" height="6.63" rx="1.36" ry="1.36"/><rect class="cls-1" x="32.9" y="41.7" width="6.63" height="6.63" rx="1.36" ry="1.36"/><rect class="cls-1" x="7.05" y="50.69" width="6.63" height="6.63" rx="1.36" ry="1.36"/><rect class="cls-1" x="19.97" y="50.69" width="6.63" height="6.63" rx="1.36" ry="1.36"/><rect class="cls-1" x="32.9" y="50.69" width="6.63" height="6.63" rx="1.36" ry="1.36"/><rect class="cls-1" x="7.05" y="59.69" width="6.63" height="6.63" rx="1.36" ry="1.36"/><rect class="cls-1" x="19.97" y="59.69" width="6.63" height="6.63" rx="1.36" ry="1.36"/><rect class="cls-1" x="32.9" y="59.69" width="6.63" height="6.63" rx="1.36" ry="1.36"/><rect class="cls-6" x="7.05" y="68.69" width="6.63" height="6.63" rx="1.36" ry="1.36"/><rect class="cls-6" x="19.97" y="68.69" width="6.63" height="6.63" rx="1.36" ry="1.36"/><rect class="cls-6" x="32.9" y="68.69" width="6.63" height="6.63" rx="1.36" ry="1.36"/><path class="cls-1" d="M36.77,88.97H10.83c-.32,0-.71.06-1.02,0-1.52-.31-1.31-2.92-1.15-4,.28-1.93,2.4-1.43,3.73-1.43h23.3c.9,0,.96-.12,1.65.57s.52.38.57,1.02c.03.37,0,.75,0,1.12,0,.88.3,2.55-1.15,2.71-.43.05-.44.74,0,.69,1.7-.2,1.84-1.5,1.84-2.92,0-1.22.33-3.02-1.01-3.69-1.12-.56-3.05-.2-4.23-.2H14.89c-1.66,0-3.35-.09-5.01,0-1.14.06-1.86.8-1.91,1.93s-.3,2.81.18,3.82c.7,1.46,2.92,1.05,4.24,1.05h24.38c.44,0,.44-.69,0-.69Z"/></g><g id="hand"><path class="cls-2" d="M81.1,81.93c-4.01,0-7.31,3-7.8,6.87v-2.66c0-4.34-3.52-7.86-7.86-7.86-4.01,0-7.31,3-7.8,6.87v-.79c0-4.34-3.52-7.86-7.86-7.86-4.01,0-7.31,3-7.8,6.87v-31.45c0-4.34-3.52-7.86-7.86-7.86s-7.86,3.52-7.86,7.86v76.56h62.71v-38.68c0-4.34-3.52-7.86-7.86-7.86Z"/></g></svg>