<?xml version="1.0" encoding="utf-8"?><!--Generator: Adobe Illustrator 27.8.0, SVG Export Plug-In . SVG Version: 6.00 Build 0)--><svg version="1.1" xmlns="http://www.w3.org/2000/svg" xmlns:xlink="http://www.w3.org/1999/xlink" x="0px" y="0px" viewBox="0 0 160 160" style="enable-background:new 0 0 160 160;" xml:space="preserve"><style type="text/css">.st0{fill:#FFC6AD;}
	.st1{fill:#F7931E;}
	.st2{fill:#8B181D;}
	.st3{fill:#F5836D;}
	.st4{fill:#FFA28F;}
	.st5{fill:#ABB8B9;}
	.st6{fill:#FBB03B;}
	.st7{fill:#F7E5CD;}
	.st8{fill:#BAC09A;}
	.st9{fill:#463EC5;}
	.st10{fill:#693725;}
	.st11{fill:#FAA332;}
	.st12{fill:#E73245;}
	.st13{fill:#8F411F;}
	.st14{fill:#F68D3D;}
	.st15{fill:#569B7B;}
	.st16{fill:#FFFFFF;}
	.st17{fill:#AACDE5;}
	.st18{fill:#232144;}
	.st19{fill:#A86554;}
	.st20{fill:#FFBD7A;}
	.st21{fill:#E6E3DA;}
	.st22{fill:#4B7CFE;}
	.st23{fill:#D8CBC5;}
	.st24{fill:#FF6200;}
	.st25{fill:#F0A86B;}
	.st26{fill:#E3944F;}
	.st27{fill:#191C15;}
	.st28{fill:#420F0F;}
	.st29{fill:#7D441C;}
	.st30{fill:none;stroke:#000000;stroke-width:0.6944;stroke-miterlimit:10;}
	.st31{fill:#01464D;}
	.st32{fill:#7A2F37;}
	.st33{fill:#9E3F39;}
	.st34{fill:none;stroke:#ABB8B9;stroke-width:3;stroke-miterlimit:10;}
	.st35{fill:#891229;}
	.st36{fill:#7070FF;}
	.st37{fill:#32785A;}
	.st38{fill:#D3E8F3;}
	.st39{fill:#006931;}
	.st40{clip-path:url(#SVGID_00000132810206594101177260000013167096061276260009_);}
	.st41{fill:#9A4039;}
	.st42{fill:none;stroke:#232144;stroke-width:2;stroke-miterlimit:10;}
	.st43{fill:#F5B091;}
	.st44{fill:none;stroke:#000000;stroke-width:1.3429;stroke-miterlimit:10;}
	.st45{fill:#D93B34;}
	.st46{fill:#FE5E57;}
	.st47{clip-path:url(#XMLID_00000056418876399150552340000000393058636025910161_);fill:#F7931E;}
	.st48{fill:#763427;}</style><g id="stramien"/><g id="Design"><polygon class="st13" points="85,119.1 43.6,117.6 47.3,144.1 86.9,144.1 	"/><path class="st13" d="M50,59.8c-3.1,0.1-5.4,2.8-5.5,5.9L44,91.8c0,2.7-0.3,15.3-0.3,15.3l11.5,0.3L56,65.6
		C56.1,62.3,53.4,59.6,50,59.8z"/><path class="st13" d="M65.6,121.4l29.8-29.7c2.2-2.2,5.8-2.2,8,0l0,0c2.2,2.2,2.2,5.8,0,8l-29.8,29.7L65.6,121.4z"/><polygon class="st13" points="43.6,117.7 44.1,92 63.8,77.8 94.2,108.8 73.2,131.5 	"/><path class="st13" d="M122.4,45.9L122.4,45.9c-2.2-2.3-5.7-2.4-8-0.2L61,96.3l7.8,8.2l53.4-50.6C124.5,51.7,124.6,48.1,122.4,45.9z
		"/><g><path class="st18" d="M59.8,123.2l44.4,0c2.4,0,4.3-1.7,4.3-3.9l-0.1-99.4c0-2.1-1.9-3.9-4.3-3.9l-44.4,0c-2.4,0-4.3,1.7-4.3,3.9
			l0.1,99.4C55.5,121.5,57.4,123.2,59.8,123.2z"/><path class="st21" d="M59.2,115l45.7,0c0.9,0,1.7-0.7,1.7-1.5l-0.1-86.9c0-0.8-0.8-1.5-1.7-1.5l-45.7,0c-0.9,0-1.7,0.7-1.7,1.5
			l0.1,86.9C57.5,114.3,58.3,115,59.2,115z"/><g><path class="st21" d="M76.6,22.3c0,0.5,0.4,0.9,1,0.9l12,0c0.5,0,1-0.4,1-0.9l0,0c0-0.5-0.4-0.9-1-0.9l-12,0
				C77,21.4,76.6,21.8,76.6,22.3L76.6,22.3z"/><path class="st21" d="M73.8,21.7c-0.7,0.9,0.3,2,1.2,1.3C75.7,22,74.7,21,73.8,21.7z"/><path class="st21" d="M59.7,20.8c-1.4,1.9,0.7,4,2.4,2.6C63.5,21.5,61.5,19.4,59.7,20.8z"/></g></g><path class="st21" d="M89.4,120.7l-14,0c-0.9,0-1.6-0.7-1.6-1.6l0,0c0-0.9,0.7-1.6,1.6-1.6l14,0c0.9,0,1.6,0.7,1.6,1.6v0
		C91,120,90.3,120.7,89.4,120.7z"/><rect x="60.7" y="33" class="st23" width="15.6" height="2.2"/><rect x="91.2" y="33" class="st23" width="9.6" height="2.2"/><g><g><circle class="st24" cx="69.1" cy="46.4" r="3.4"/><circle class="st24" cx="81.5" cy="46.5" r="3.4"/><circle class="st24" cx="93.9" cy="46.6" r="3.4"/></g><rect x="67.3" y="58" class="st23" width="15.6" height="2.2"/><rect x="95.3" y="58" class="st23" width="6" height="2.2"/><circle class="st23" cx="62.9" cy="59.1" r="2"/><rect x="67.3" y="65.4" class="st23" width="17.5" height="2.2"/><rect x="95.3" y="65.4" class="st23" width="6" height="2.2"/><circle class="st23" cx="62.9" cy="66.5" r="2"/><rect x="67.3" y="72.7" class="st23" width="15.6" height="2.2"/><rect x="95.3" y="72.7" class="st23" width="6" height="2.2"/><circle class="st23" cx="62.9" cy="73.8" r="2"/><rect x="67.3" y="80.1" class="st23" width="19.6" height="2.2"/><rect x="95.3" y="80.1" class="st23" width="6" height="2.2"/><circle class="st23" cx="62.9" cy="81.2" r="2"/><rect x="67.3" y="87.5" class="st23" width="15.6" height="2.2"/><rect x="95.3" y="87.5" class="st23" width="6" height="2.2"/><circle class="st23" cx="62.9" cy="88.6" r="2"/><rect x="67.3" y="94.9" class="st23" width="9.8" height="2.2"/><rect x="95.3" y="94.9" class="st23" width="6" height="2.2"/><circle class="st23" cx="62.9" cy="96" r="2"/><rect x="67.3" y="102.2" class="st23" width="19.6" height="2.2"/><rect x="95.3" y="102.2" class="st23" width="6" height="2.2"/><circle class="st23" cx="62.9" cy="103.3" r="2"/></g><path class="st13" d="M109.4,93.9L109.4,93.9c2.9-0.2,5.5,2,5.7,4.9l0.1,0.7c0.2,2.9-2,5.5-4.9,5.7h0c-2.9,0.2-5.5-2-5.7-4.9
		l-0.1-0.7C104.3,96.7,106.5,94.2,109.4,93.9z"/><path class="st13" d="M109.3,80.6L109.3,80.6c3.3-0.3,6.2,2.2,6.5,5.6l0.1,0.9c0.3,3.3-2.2,6.2-5.6,6.5h0c-3.3,0.3-6.2-2.2-6.5-5.6
		l-0.1-0.9C103.5,83.7,106,80.9,109.3,80.6z"/><path class="st13" d="M109.3,67.1L109.3,67.1c3.3-0.3,6.2,2.2,6.5,5.6l0.1,0.9c0.3,3.3-2.2,6.2-5.6,6.5h0c-3.3,0.3-6.2-2.2-6.5-5.6
		l-0.1-0.9C103.5,70.2,106,67.3,109.3,67.1z"/></g></svg>