<svg viewBox="0 0 160 160" fill="none" xmlns="http://www.w3.org/2000/svg"><path fill-rule="evenodd" clip-rule="evenodd" d="M107.956 144.001H52.0437C49.2586 144.001 47 141.723 47 138.914V36.3028C47 33.4928 49.2586 31.2158 52.0437 31.2158H107.956C110.741 31.2158 113 33.4928 113 36.3028V138.914C113 141.723 110.741 144.001 107.956 144.001Z" fill="#232144"/><path fill-rule="evenodd" clip-rule="evenodd" d="M101.613 91.6775H57.3307C55.1802 91.6775 53.4371 89.9195 53.4371 87.7505V55.4895C53.4371 53.3215 55.1802 51.5635 57.3307 51.5635H101.613C103.764 51.5635 105.507 53.3215 105.507 55.4895V87.7505C105.507 89.9195 103.764 91.6775 101.613 91.6775Z" fill="#7070FF"/><path fill-rule="evenodd" clip-rule="evenodd" d="M54.3032 101.668C54.3032 99.6401 55.9332 97.9971 57.943 97.9971H64.8893C66.9 97.9971 68.529 99.6401 68.529 101.668C68.529 103.696 66.9 105.339 64.8893 105.339H57.943C55.9332 105.339 54.3032 103.696 54.3032 101.668Z" fill="#7070FF"/><path fill-rule="evenodd" clip-rule="evenodd" d="M72.4778 101.668C72.4778 99.6401 74.1078 97.9971 76.1175 97.9971H83.0638C85.0746 97.9971 86.7036 99.6401 86.7036 101.668C86.7036 103.696 85.0746 105.339 83.0638 105.339H76.1175C74.1078 105.339 72.4778 103.696 72.4778 101.668Z" fill="#7070FF"/><path fill-rule="evenodd" clip-rule="evenodd" d="M90.6523 101.668C90.6523 99.6401 92.2823 97.9971 94.2921 97.9971H101.238C103.249 97.9971 104.878 99.6401 104.878 101.668C104.878 103.696 103.249 105.339 101.238 105.339H94.2921C92.2823 105.339 90.6523 103.696 90.6523 101.668Z" fill="#7070FF"/><path fill-rule="evenodd" clip-rule="evenodd" d="M54.3032 110.615C54.3032 108.587 55.9332 106.944 57.943 106.944H64.8893C66.9 106.944 68.529 108.587 68.529 110.615C68.529 112.643 66.9 114.286 64.8893 114.286H57.943C55.9332 114.286 54.3032 112.643 54.3032 110.615Z" fill="#7070FF"/><path fill-rule="evenodd" clip-rule="evenodd" d="M72.4778 110.615C72.4778 108.587 74.1078 106.944 76.1175 106.944H83.0638C85.0746 106.944 86.7036 108.587 86.7036 110.615C86.7036 112.643 85.0746 114.286 83.0638 114.286H76.1175C74.1078 114.286 72.4778 112.643 72.4778 110.615Z" fill="#7070FF"/><path fill-rule="evenodd" clip-rule="evenodd" d="M90.6523 110.615C90.6523 108.587 92.2823 106.944 94.2921 106.944H101.238C103.249 106.944 104.878 108.587 104.878 110.615C104.878 112.643 103.249 114.286 101.238 114.286H94.2921C92.2823 114.286 90.6523 112.643 90.6523 110.615Z" fill="#7070FF"/><path fill-rule="evenodd" clip-rule="evenodd" d="M54.3032 119.742C54.3032 117.714 55.9332 116.071 57.943 116.071H64.8893C66.9 116.071 68.529 117.714 68.529 119.742C68.529 121.77 66.9 123.413 64.8893 123.413H57.943C55.9332 123.413 54.3032 121.77 54.3032 119.742Z" fill="#7070FF"/><path fill-rule="evenodd" clip-rule="evenodd" d="M72.4778 119.742C72.4778 117.714 74.1078 116.071 76.1175 116.071H83.0638C85.0746 116.071 86.7036 117.714 86.7036 119.742C86.7036 121.77 85.0746 123.413 83.0638 123.413H76.1175C74.1078 123.413 72.4778 121.77 72.4778 119.742Z" fill="#7070FF"/><path fill-rule="evenodd" clip-rule="evenodd" d="M90.6523 119.742C90.6523 117.714 92.2823 116.071 94.2921 116.071H101.238C103.249 116.071 104.878 117.714 104.878 119.742C104.878 121.77 103.249 123.413 101.238 123.413H94.2921C92.2823 123.413 90.6523 121.77 90.6523 119.742Z" fill="#7070FF"/><path fill-rule="evenodd" clip-rule="evenodd" d="M54.3032 129.789C54.3032 127.761 55.9332 126.118 57.943 126.118H64.8893C66.9 126.118 68.529 127.761 68.529 129.789C68.529 131.817 66.9 133.46 64.8893 133.46H57.943C55.9332 133.46 54.3032 131.817 54.3032 129.789Z" fill="#E73245"/><path fill-rule="evenodd" clip-rule="evenodd" d="M72.4778 129.789C72.4778 127.761 74.1078 126.118 76.1175 126.118H83.0638C85.0746 126.118 86.7036 127.761 86.7036 129.789C86.7036 131.817 85.0746 133.46 83.0638 133.46H76.1175C74.1078 133.46 72.4778 131.817 72.4778 129.789Z" fill="#FBB03B"/><path fill-rule="evenodd" clip-rule="evenodd" d="M90.6523 129.789C90.6523 127.761 92.2823 126.118 94.2921 126.118H101.238C103.249 126.118 104.878 127.761 104.878 129.789C104.878 131.817 103.249 133.46 101.238 133.46H94.2921C92.2823 133.46 90.6523 131.817 90.6523 129.789Z" fill="#BAC09A"/><path fill-rule="evenodd" clip-rule="evenodd" d="M103.681 44.8776H55.2622C54.2539 44.8776 53.4369 44.0536 53.4369 43.0366V42.3586C53.4369 41.3416 54.2539 40.5176 55.2622 40.5176H103.681C104.69 40.5176 105.507 41.3416 105.507 42.3586V43.0366C105.507 44.0536 104.69 44.8776 103.681 44.8776Z" fill="#7070FF"/><path fill-rule="evenodd" clip-rule="evenodd" d="M99.0748 17.616L97.8047 19.229H97.8008L96.5317 17.616L95.7196 16.585C95.4846 16.286 95.0345 16.286 94.7995 16.585L93.9875 17.616L92.7184 19.229H92.7144L91.4454 17.616L90.6333 16.585C90.3983 16.286 89.9482 16.286 89.7132 16.585L88.9012 17.616L87.6321 19.229H87.6281L86.3581 17.616L85.546 16.585C85.3111 16.286 84.8619 16.286 84.6269 16.585L83.8149 17.616L82.5458 19.229H82.5418L81.2718 17.616L80.4597 16.585C80.2247 16.286 79.7756 16.286 79.5406 16.585L78.7286 17.616L77.4585 19.229H77.4545L76.1854 17.616L75.3734 16.585C75.1384 16.286 74.6883 16.286 74.4533 16.585L73.6413 17.616L72.3722 19.229H72.3682L71.0991 17.616L70.2871 16.585C70.0521 16.286 69.602 16.286 69.367 16.585L68.555 17.616L67.2859 19.229H67.2819L66.0118 17.616L65.1998 16.585C64.9658 16.286 64.5157 16.286 64.2807 16.585L63.4687 17.616L62.1996 19.229H62.1956L60.9255 17.616L59.6545 16V19.229V19.232V44.877H100.346V19.232V19.229V16L99.0748 17.616Z" fill="#F7E5CD"/><path fill-rule="evenodd" clip-rule="evenodd" d="M73.0703 65.8096C73.2091 65.8096 73.2597 65.8736 73.2597 66.0006V73.7566H74.8788C75.0176 73.7566 75.0682 73.8206 75.0682 73.9476V74.8026C75.0682 74.9306 75.0176 74.9936 74.8788 74.9936H69.9462C69.8073 74.9936 69.7568 74.9306 69.7568 74.8026V73.9476C69.7568 73.8206 69.8073 73.7566 69.9462 73.7566H71.7041V67.4676L70.085 68.3226C69.9333 68.3986 69.845 68.3866 69.7687 68.2326L69.4147 67.5186C69.3394 67.3526 69.3771 67.2636 69.5287 67.1866L71.7427 66.0136C72.0451 65.8606 72.1978 65.8096 72.5518 65.8096H73.0703Z" fill="#F7E5CD"/><path fill-rule="evenodd" clip-rule="evenodd" d="M81.9868 73.6667C82.1266 73.6667 82.1761 73.7307 82.1761 73.8577V74.8017C82.1761 74.9297 82.1266 74.9937 81.9868 74.9937H76.8132C76.6367 74.9937 76.5862 74.9417 76.5862 74.7897V74.1767C76.5862 71.2427 80.4311 70.0567 80.4311 68.1817C80.4311 67.3777 79.8868 66.9697 79.1025 66.9697C78.4323 66.9697 77.8126 67.2507 77.2693 67.5817C77.1424 67.6587 77.0413 67.6457 76.9659 67.5177L76.5733 66.8677C76.485 66.7147 76.5356 66.6377 76.7002 66.5107C77.3318 66.0127 78.2935 65.6807 79.1918 65.6807C80.1902 65.6807 80.912 65.9487 81.3929 66.4467C81.7845 66.8677 82.0125 67.4417 82.0125 68.1687C82.0125 70.4647 78.3064 71.9827 78.1547 73.6667H81.9868Z" fill="#F7E5CD"/><path fill-rule="evenodd" clip-rule="evenodd" d="M84.2384 77.1496C84.061 77.1496 84.0104 77.0726 84.0362 76.9196L84.4278 74.9806L84.1125 74.8276C83.9351 74.7386 83.8716 74.6626 83.8716 74.4066V73.4246C83.8716 73.2586 83.947 73.1826 84.1244 73.1826H85.452C85.6424 73.1826 85.7177 73.2586 85.7177 73.4246V74.1006C85.7177 74.6876 85.6295 75.0066 85.452 75.4916L84.9345 76.9196C84.8581 77.1116 84.8204 77.1496 84.6301 77.1496H84.2384Z" fill="#F7E5CD"/><path fill-rule="evenodd" clip-rule="evenodd" d="M91.3709 69.6106C91.3709 68.0926 90.9535 66.9576 89.8659 66.9576C88.9557 66.9576 88.449 67.7096 88.449 68.5906C88.449 69.5086 88.8803 70.2866 89.967 70.2866C90.4231 70.2866 90.9912 70.0956 91.3709 69.9166V69.6106ZM89.613 71.5366C87.8422 71.5366 86.8815 70.2996 86.8815 68.7306C86.8815 67.0216 87.9949 65.6816 89.8153 65.6816C92.1681 65.6816 92.9395 67.5446 92.9395 69.7126C92.9395 72.5826 91.9281 75.1216 89.3602 75.1216C88.5631 75.1216 87.8294 74.9306 87.3753 74.6106C87.2474 74.5216 87.2097 74.4576 87.3108 74.2406L87.6152 73.6286C87.6777 73.4886 87.7669 73.4756 87.9186 73.5526C88.2983 73.7306 88.8546 73.8586 89.2204 73.8586C90.7513 73.8586 91.2063 72.6976 91.3204 71.0136C90.9535 71.3196 90.2198 71.5366 89.613 71.5366Z" fill="#F7E5CD"/><path fill-rule="evenodd" clip-rule="evenodd" d="M98.7451 69.6106C98.7451 68.0926 98.3277 66.9576 97.24 66.9576C96.3298 66.9576 95.8232 67.7096 95.8232 68.5906C95.8232 69.5086 96.2545 70.2866 97.3411 70.2866C97.7972 70.2866 98.3653 70.0956 98.7451 69.9166V69.6106ZM96.9872 71.5366C95.2164 71.5366 94.2556 70.2996 94.2556 68.7306C94.2556 67.0216 95.3691 65.6816 97.1894 65.6816C99.5422 65.6816 100.314 67.5446 100.314 69.7126C100.314 72.5826 99.3023 75.1216 96.7344 75.1216C95.9372 75.1216 95.2035 74.9306 94.7494 74.6106C94.6215 74.5216 94.5838 74.4576 94.685 74.2406L94.9893 73.6286C95.0518 73.4886 95.141 73.4756 95.2927 73.5526C95.6725 73.7306 96.2287 73.8586 96.5946 73.8586C98.1254 73.8586 98.5805 72.6976 98.6945 71.0136C98.3277 71.3196 97.594 71.5366 96.9872 71.5366Z" fill="#F7E5CD"/></svg>