<svg viewBox="0 0 160 160" fill="none" xmlns="http://www.w3.org/2000/svg"><path fill-rule="evenodd" clip-rule="evenodd" d="M95.4283 92.3834L84.6491 98.6144L81.1346 92.5204L92.2673 86.1064L95.4283 92.3834Z" fill="#7A2F37"/><path fill-rule="evenodd" clip-rule="evenodd" d="M77.3938 80.5103L77.195 65.8043L82.0958 65.7383L82.2945 80.4443L77.3938 80.5103Z" fill="#FF6200"/><path fill-rule="evenodd" clip-rule="evenodd" d="M75.3292 115.542L76.0123 75.6733L83.4947 75.5723L85.7378 115.337C85.9046 118.301 83.5716 120.806 80.6074 120.846C77.6682 120.886 75.2793 118.485 75.3292 115.542Z" fill="#FF6200"/><path fill-rule="evenodd" clip-rule="evenodd" d="M79.8318 67.1165C66.2722 67.2995 55.1325 56.4425 54.9487 42.8665C54.766 29.2895 65.6091 18.1345 79.1687 17.9515C92.7273 17.7685 103.868 28.6255 104.051 42.2015C104.235 55.7785 93.3914 66.9335 79.8318 67.1165Z" fill="white"/><path fill-rule="evenodd" clip-rule="evenodd" d="M96.296 27.3824C95.9664 27.0174 95.6238 26.6604 95.2683 26.3144C90.9408 22.0974 85.2322 19.8194 79.1949 19.9014C73.1567 19.9824 67.5119 22.4144 63.3003 26.7464C59.0887 31.0794 56.8146 36.7944 56.8955 42.8404C56.9734 48.5534 59.1706 53.7524 62.725 57.6924C66.9346 62.3584 73.0478 65.2594 79.8051 65.1674C92.2691 64.9994 102.272 54.7084 102.105 42.2284C102.03 36.6804 99.9783 31.4624 96.296 27.3824ZM59.8357 60.3034C55.6671 55.6844 53.0924 49.5914 53.0025 42.8924C52.9066 35.8064 55.5732 29.1064 60.5099 24.0274C65.4475 18.9484 72.0641 16.0984 79.142 16.0024C93.7532 15.8054 105.801 27.5464 105.998 42.1764C106.195 56.8054 94.4683 68.8684 79.8581 69.0664C71.9372 69.1734 64.7694 65.7714 59.8357 60.3034Z" fill="#463EC5"/><path fill-rule="evenodd" clip-rule="evenodd" d="M93.7176 32.2549C99.4842 38.6459 98.9858 48.5079 92.603 54.2819L93.7176 32.2549Z" fill="white"/><path fill-rule="evenodd" clip-rule="evenodd" d="M93.9079 55.7283L91.2972 52.8353C96.8731 47.7913 97.3105 39.1443 92.273 33.5613L95.1623 30.9473C101.64 38.1263 101.077 49.2423 93.9079 55.7283Z" fill="#463EC5"/><path fill-rule="evenodd" clip-rule="evenodd" d="M103.334 105.88C102.846 105.438 102.265 105.172 101.663 105.055L103.409 103.368C104.791 102.032 104.83 99.8274 103.496 98.4424C102.667 97.5824 101.502 97.2434 100.408 97.4294L101.913 95.9744C103.296 94.6384 103.335 92.4324 102.001 91.0484C100.666 89.6634 98.4633 89.6244 97.0811 90.9604L96.4369 91.5834C97.7253 90.2394 97.7412 88.1104 96.4379 86.7584C95.1036 85.3744 92.9005 85.3354 91.5182 86.6714L78.1054 99.6324L75.8413 101.439V89.2684C71.6857 92.5044 69.2638 97.4874 69.2837 102.758L69.3387 117.002V126.244H69.3347L67.6788 144H90.115L88.4242 128.049L93.2979 122.173L103.579 110.801C104.868 109.374 104.758 107.171 103.334 105.88Z" fill="#9E3F39"/></svg>