<?xml version="1.0" encoding="utf-8"?><!--Generator: Adobe Illustrator 27.8.0, SVG Export Plug-In . SVG Version: 6.00 Build 0)--><svg version="1.1" id="Ebene_1" xmlns="http://www.w3.org/2000/svg" xmlns:xlink="http://www.w3.org/1999/xlink" x="0px" y="0px" viewBox="0 0 160 160" style="enable-background:new 0 0 160 160;" xml:space="preserve"><style type="text/css">.st0{fill:#FFBD7A;}
	.st1{fill:#01464D;}
	.st2{fill:#FF6200;}
	.st3{fill:#FFD77B;}
	.st4{fill:#F0A86B;}
	.st5{fill:#FFFFFF;}
	.st6{fill:#8B181D;}
	.st7{fill:#171111;}
	.st8{fill:#191C15;}</style><polygon class="st0" points="138.4,143.9 139,101.8 105.7,111.1 109.7,143.9 "/><polygon class="st0" points="51.3,143.9 55.8,118 21.5,99.4 20.9,143.9 "/><circle class="st0" cx="40.1" cy="100.3" r="18.8"/><circle class="st0" cx="120.2" cy="100.3" r="18.8"/><rect x="40.1" y="81.5" class="st1" width="79.5" height="62.4"/><path class="st2" d="M109.3,72.6L109.3,72.6c-4.8,0-8.6-3.9-8.6-8.6V20l0,0c4.8,0,8.6,3.9,8.6,8.6V72.6z"/><circle class="st2" cx="100.8" cy="25.4" r="5.4"/><path class="st3" d="M78.6,134.5c-4.6,0-15.8-47.5-17-52.9l0.5,0C67,102.6,75.4,134,78.6,134c3.2,0,11.8-31.3,16.9-52.5l0.5,0
	C94.7,86.9,83.2,134.5,78.6,134.5z"/><ellipse class="st3" cx="78.6" cy="137.2" rx="3.3" ry="3.1"/><path class="st3" d="M78.6,112.1c-4.8,0-9.2-5.2-12.9-15.4c-2.8-7.5-4.1-15.2-4.2-15.3l0.5,0c0.1,0.3,5.5,30.2,16.5,30.2
	c10.7,0,16.8-29.8,16.9-30.1l0.5,0C95.8,82.8,89.7,112.1,78.6,112.1z"/><rect x="58.9" y="43.3" class="st2" width="39.7" height="12.1"/><path class="st4" d="M92.7,86.9V68.7l-28-0.1v18.3c0,7.7,6.3,14,14,14C86.5,100.9,92.7,94.6,92.7,86.9z"/><path class="st0" d="M97.4,46.9L97.4,46.9l-0.1-14.7c0-6.9-5.6-12.5-12.5-12.5H72.7c-6.9,0-12.5,5.6-12.5,12.5v14.7h-0.1
	c-3.1,0-5.7,2.5-5.7,5.7c0,3.1,2.5,5.7,5.7,5.7h0.1v5c0,6.9,5.6,12.5,12.5,12.5h12.1c6.9,0,12.5-5.6,12.5-12.5v-5h0.1
	c3.1,0,5.7-2.5,5.7-5.7C103.1,49.5,100.5,46.9,97.4,46.9z"/><path class="st5" d="M83.5,50.4c0,0,1.4-2.9,4-3.8c2.6-0.9,5.5,0.6,5.5,0.6s-2.3,2.5-4.1,3.1C87.1,50.9,83.5,50.4,83.5,50.4z"/><path d="M90.2,49.2c0.4-1-0.2-2.1-1.2-2.5s-2.1,0.2-2.5,1.2s0.2,2.1,1.2,2.5C88.7,50.7,89.8,50.2,90.2,49.2z"/><path d="M83.5,50.4c0,0,2.1-6.6,12-4.1l-2.6,1.2C90.8,47.1,87,46.9,83.5,50.4z"/><path class="st5" d="M73.9,50.4c0,0-1.4-2.9-4-3.8c-2.6-0.9-5.5,0.6-5.5,0.6s2,2.3,4.1,3.1C70.5,51,73.9,50.4,73.9,50.4z"/><path d="M67.3,49.2c-0.4-1,0.2-2.1,1.2-2.5s2.1,0.2,2.5,1.2s-0.2,2.1-1.2,2.5C68.8,50.7,67.7,50.2,67.3,49.2z"/><path d="M73.9,50.4c0,0-2.1-6.6-12-4.1l2.6,1.2C66.6,47.1,70.4,46.9,73.9,50.4z"/><path d="M78.7,58.7c0.1,0,0.2,0,0.2,0c0.6,0,1-0.3,1.4-0.6c0.8-0.5,1.4-0.9,2.5,0.1l0.6-0.6c-1.6-1.5-2.8-0.8-3.6-0.2
	c-0.3,0.2-0.7,0.5-1,0.5c-0.9,0-1.2-0.2-1.6-0.5c-0.8-0.6-1.5-0.9-3.4,0.2l0.4,0.7c1.6-0.9,1.9-0.7,2.4-0.3
	C77.1,58.3,77.6,58.7,78.7,58.7z"/><path class="st6" d="M95.6,43.2l-10-3.3c-1.4-0.5-2.9,0.5-3.1,2L95.6,43.2z"/><path class="st6" d="M61.9,43.4l9.9-3.5c1.4-0.5,2.9,0.4,3.1,1.9L61.9,43.4z"/><path class="st6" d="M79.8,64.4c-0.4-1.6-2.6-0.8-2.6-0.8l-5.1,1.2c0-0.3,10,10,14.8-3.5l-5.1,1.2C81.7,62.5,79.4,62.8,79.8,64.4
	L79.8,64.4z"/><rect x="62.9" y="28.9" class="st2" width="2.1" height="49.6"/><rect x="92.3" y="29.2" class="st2" width="2.1" height="49.6"/><path class="st2" d="M61.6,53.2V40.1c0-7.8,6.2-14.1,13.9-14.1h1.9v-4.4l2.5,4.4h2.3c7.7,0,13.9,6.3,13.9,14.1v13.1h2.7V31.3
	c0-8.4-6.8-15.2-15.2-15.2h-9.5c-8.4,0-15.2,6.8-15.2,15.2v21.9C58.9,53.2,61.6,53.2,61.6,53.2z"/><rect x="96.5" y="21.4" transform="matrix(0.949 -0.3153 0.3153 0.949 -3.3665 32.2276)" class="st7" width="2.8" height="10.3"/><path class="st8" d="M30.8,105.8l3.4-3.6c1-1.3,0.2-3.4-1.5-3.4c0,0,0,0-0.1,0c-0.7,0-1.4,0.3-1.8,0.8c-0.4-0.5-1.1-0.8-1.8-0.8
	c-0.1,0-0.3,0-0.4,0c-1.5,0.3-2,2.2-1.1,3.4L30.8,105.8z"/></svg>