<svg viewBox="0 0 160 160" fill="none" xmlns="http://www.w3.org/2000/svg"><g clip-path="url(#clip0_205_1913)"><path fill-rule="evenodd" clip-rule="evenodd" d="M71.5978 81.276C71.5977 81.276 71.5978 81.2759 71.5978 81.276L60.94 88.5238L52.6876 76.389L63.3456 69.141C72.9077 62.6387 85.7547 62.6386 95.3168 69.1408L105.975 76.389L97.7226 88.5238L87.0648 81.276C87.0648 81.2759 87.0649 81.276 87.0648 81.276C82.483 78.1604 76.1796 78.1604 71.5978 81.276Z" fill="#463EC5"/><path fill-rule="evenodd" clip-rule="evenodd" d="M19.9607 79.7492C19.9607 66.6342 30.5927 56.0022 43.7077 56.0022C56.8237 56.0022 67.4557 66.6342 67.4557 79.7492C67.4557 92.8642 56.8237 103.496 43.7077 103.496C30.5927 103.496 19.9607 92.8642 19.9607 79.7492Z" fill="#232144"/><path fill-rule="evenodd" clip-rule="evenodd" d="M43.708 59.9623C32.797 59.9623 23.921 68.8393 23.921 79.7493C23.921 90.6603 32.797 99.5363 43.708 99.5363C54.619 99.5363 63.495 90.6603 63.495 79.7493C63.495 68.8393 54.619 59.9623 43.708 59.9623ZM43.708 107.457C28.43 107.457 16 95.0273 16 79.7493C16 64.4713 28.43 52.0413 43.708 52.0413C58.986 52.0413 71.416 64.4713 71.416 79.7493C71.416 95.0273 58.986 107.457 43.708 107.457Z" fill="#7070FF"/><path fill-rule="evenodd" clip-rule="evenodd" d="M92.5452 79.7079C92.5452 66.5929 103.177 55.9609 116.292 55.9609C129.408 55.9609 140.04 66.5929 140.04 79.7079C140.04 92.8229 129.408 103.455 116.292 103.455C103.177 103.455 92.5452 92.8229 92.5452 79.7079Z" fill="#232144"/><path fill-rule="evenodd" clip-rule="evenodd" d="M116.293 59.921C105.382 59.921 96.5056 68.797 96.5056 79.708C96.5056 90.619 105.382 99.495 116.293 99.495C127.204 99.495 136.08 90.619 136.08 79.708C136.08 68.797 127.204 59.921 116.293 59.921ZM116.293 107.416C101.015 107.416 88.5846 94.986 88.5846 79.708C88.5846 64.43 101.015 52 116.293 52C131.571 52 144.001 64.43 144.001 79.708C144.001 94.986 131.571 107.416 116.293 107.416Z" fill="#7070FF"/><path fill-rule="evenodd" clip-rule="evenodd" d="M84.9103 71.3648C84.9103 74.2868 82.5413 76.6558 79.6193 76.6558C76.6983 76.6558 74.3293 74.2868 74.3293 71.3648C74.3293 68.4428 76.6983 66.0738 79.6193 66.0738C82.5413 66.0738 84.9103 68.4428 84.9103 71.3648Z" fill="#7070FF"/><path fill-rule="evenodd" clip-rule="evenodd" d="M82.6016 71.3648C82.6016 73.0118 81.2666 74.3468 79.6196 74.3468C77.9726 74.3468 76.6376 73.0118 76.6376 71.3648C76.6376 69.7178 77.9726 68.3828 79.6196 68.3828C81.2666 68.3828 82.6016 69.7178 82.6016 71.3648Z" fill="#232144"/></g><defs><clipPath id="clip0_205_1913"><rect width="128" height="56" fill="white" transform="translate(16 52)"/></clipPath></defs></svg>