<?xml version="1.0" encoding="utf-8"?><!--Generator: Adobe Illustrator 27.8.0, SVG Export Plug-In . SVG Version: 6.00 Build 0)--><svg version="1.1" xmlns="http://www.w3.org/2000/svg" xmlns:xlink="http://www.w3.org/1999/xlink" x="0px" y="0px" viewBox="0 0 160 160" style="enable-background:new 0 0 160 160;" xml:space="preserve"><style type="text/css">.st0{fill:#7070FF;}
	.st1{fill:#FFC4B8;}
	.st2{fill:#F5836D;}
	.st3{fill:#693725;}
	.st4{fill:#420F0F;}
	.st5{fill:#9E3F39;}
	.st6{fill:#7A2F37;}
	.st7{fill:#463EC5;}
	.st8{fill:#D8CBC5;}
	.st9{fill:none;stroke:#171111;stroke-width:0.7438;stroke-miterlimit:10;}
	.st10{fill:#FFFFFF;}
	.st11{fill:#8F411F;}
	.st12{fill:#E3944F;}
	.st13{fill:#F0A86B;}
	.st14{fill:#006931;}
	.st15{fill:#BAC09A;}
	.st16{fill:#FF6200;}
	.st17{fill:#232144;}
	.st18{fill:#E2F3E8;}
	.st19{fill:#FBB03B;}
	.st20{fill:#FFD4D2;}
	.st21{fill:#F99F5B;}
	.st22{fill:#BF7461;}
	.st23{fill:#A86554;}
	.st24{fill:none;stroke:#000000;stroke-width:0.5209;stroke-miterlimit:10;}
	.st25{fill:#FCE3CA;}
	.st26{fill:#8B181D;}
	.st27{fill:#FFA28F;}
	.st28{fill:none;stroke:#000000;stroke-width:0.7341;stroke-miterlimit:10;}
	.st29{fill:#BA251D;}
	.st30{fill:#9F5621;}
	.st31{fill:#E6E3DA;}
	.st32{fill:#E6E6E6;}
	.st33{fill:#FFC6AD;}
	.st34{fill:#F5B091;}
	.st35{fill:none;stroke:#000000;stroke-width:0.4422;stroke-miterlimit:10;}
	.st36{fill:#8A1229;}
	.st37{clip-path:url(#SVGID_00000181044994161627087830000000879201011268393105_);}
	.st38{clip-path:url(#SVGID_00000052816745292576374100000004960651712901788038_);}
	.st39{clip-path:url(#SVGID_00000131357746467032699490000008259812357607545511_);fill:#FFFFFF;}
	.st40{fill:#5D2B1A;}
	.st41{clip-path:url(#SVGID_00000165934854826167567460000004538502305965550474_);fill:#FFFFFF;}
	.st42{fill:#C9E8D7;}
	.st43{fill:#763427;}
	.st44{fill:none;stroke:#A86554;stroke-width:1.2912;stroke-miterlimit:10;}
	.st45{fill:#891229;}
	.st46{clip-path:url(#SVGID_00000110434192300252803940000011139059283072943750_);}</style><g id="Design"><rect x="16.2" y="27" class="st19" width="50" height="50"/><rect x="93.6" y="27" class="st20" width="50" height="50"/><g><path class="st17" d="M45.6,48.7c-0.1,0-0.2,0-0.4-0.1c-3.7-1.5-7.3-2.7-10.5-1.6c-0.3,0.1-0.6,0.2-0.9,0.4
			c-0.6,0.3-1.3,0.5-2,0.6c-1.3,0.2-2.5,0-3.8-0.2c-1.9-0.4-3.7-0.8-5.6-1.2c-0.5-0.1-0.9-0.7-0.7-1.2c0.1-0.5,0.7-0.9,1.2-0.7
			c1.8,0.4,3.7,0.9,5.5,1.2c1.1,0.2,2.1,0.4,3,0.2c0.5-0.1,1-0.3,1.6-0.5c0.3-0.1,0.7-0.3,1-0.4c3.9-1.3,7.8,0,11.9,1.7
			c0.5,0.2,0.8,0.8,0.6,1.3C46.4,48.5,46,48.7,45.6,48.7z"/></g><path class="st30" d="M72.7,44.9c1.2,0.1,2.3,0.6,3.3,1.3l18.4,13c1,0.7,1.6,1.1,2.7,2.2c1.1,1,1.5,2.8,1.8,4.3l4.7,23.8
		c0.4,2-0.3,3.9-1,5.8l0,0l-16.1,41.1l-30.2-14.9L50,84.8c0,0,9-10.6,13.2-0.7c0.2,0.4,0.3,0.7,0.5,1c0,0.1,0.8-0.4,0.7-0.4
		c-0.4,2.3,0.4,5.3,3.4,4.6c1.5-0.3,2.7-1.6,2.9-3.1c0.3-1.5,0.4-2.5,0.7-3.5c0.7-3.4,3-12.8,3-12.8l11.4,1.3c0,0,0,0,0,0l-18.4-13
		c-3.3-2.4-4.1-7-1.8-10.4C67.3,45.7,70,44.6,72.7,44.9"/><rect x="56.9" y="45.8" transform="matrix(0.4905 -0.8715 0.8715 0.4905 -18.1032 85.5448)" class="st31" width="14.3" height="25"/><polygon class="st32" points="40.7,45.1 56.7,45.9 49.7,58.4 	"/><rect x="92.8" y="49.1" transform="matrix(0.4865 -0.8737 0.8737 0.4865 -17.0059 127.4571)" class="st31" width="14.3" height="58.2"/><g><rect x="84.5" y="35.3" transform="matrix(0.4817 -0.8763 0.8763 0.4817 -17.2213 114.5013)" class="st17" width="7.4" height="73.1"/></g><polygon class="st30" points="85.2,144 88,132.5 57.1,119.7 37.5,144.1 	"/><path class="st30" d="M50.5,81.2l8.5-20.9c1.5-3.7,5.7-5.4,9.3-4c3.7,1.5,5.4,5.7,4,9.3l-8.5,20.9c-1.5,3.7-5.7,5.4-9.3,4
		C50.8,89,49,84.8,50.5,81.2"/></g><g id="stramien"/></svg>