<?xml version="1.0" encoding="utf-8"?><!--Generator: Adobe Illustrator 27.8.0, SVG Export Plug-In . SVG Version: 6.00 Build 0)--><svg version="1.1" id="Ebene_1" xmlns="http://www.w3.org/2000/svg" xmlns:xlink="http://www.w3.org/1999/xlink" x="0px" y="0px" viewBox="0 0 160 160" style="enable-background:new 0 0 160 160;" xml:space="preserve"><style type="text/css">.st0{fill:#4B7CFE;}
	.st1{fill:#FBB03B;}
	.st2{fill:#F7E5CD;}
	.st3{fill:#ED1E79;}</style><path class="st0" d="M16,107.7c9.1,0,9.3,3.8,18.4,3.8c9.1,0,9.1-3.8,18.3-3.8c9.1,0,9.1,3.8,18.3,3.8c9.1,0,9.1-3.8,18.3-3.8
	c9.1,0,9.1,3.8,18.3,3.8c9.1,0,9.1-3.8,18.3-3.8s9.1,3.8,18.3,3.8V134H16V107.7z"/><circle class="st1" cx="34.1" cy="34.1" r="18.1"/><rect x="16" y="123.4" class="st2" width="128" height="20.6"/><polygon class="st3" points="102.3,48.6 99.1,46.3 58.1,133.7 62.4,133.7 "/><path class="st3" d="M119.6,16l24.4,86.1l-16.4-16.7c-2.9-2.9-6.8-4.5-10.9-4.4l-4.5,0.1c-5.9,0.1-11.3-3.3-13.8-8.7l0,0
	c-2.6-5.7-7.8-9.4-14.4-8.9L81.6,64c-5.7,0.5-11.1-2.4-14-7.3L66,54c-2-3.5-5.5-6.1-9.4-7l-23.1-5.3L119.6,16z"/><polygon class="st2" points="61.6,49.2 119.6,16 33.5,41.7 "/><polygon class="st2" points="144,102.1 119.6,16 123.2,82.3 "/><path class="st2" d="M81.6,64l38-48L98.5,72.5C98.5,72.5,93.3,60.8,81.6,64z"/></svg>