<svg viewBox="0 0 159 160" fill="none" xmlns="http://www.w3.org/2000/svg"><path fill-rule="evenodd" clip-rule="evenodd" d="M101.561 49.2235H59.5306L60.8996 37.6006C61.2106 34.9611 63.0736 33 65.2716 33H95.8196C98.0176 33 99.8806 34.9611 100.192 37.6006L101.561 49.2235Z" fill="#232144"/><path fill-rule="evenodd" clip-rule="evenodd" d="M128.672 48.7465H113.388V41.1328C113.388 40.0668 114.253 39.2036 115.319 39.2036H126.741C127.808 39.2036 128.672 40.0668 128.672 41.1328V48.7465Z" fill="#232144"/><path fill-rule="evenodd" clip-rule="evenodd" d="M94.1435 46.9814H66.9475L67.8335 39.4605C68.0345 37.7522 69.2405 36.4844 70.6625 36.4844H90.4285C91.8505 36.4844 93.0565 37.7522 93.2575 39.4605L94.1435 46.9814Z" fill="#463EC5"/><path fill-rule="evenodd" clip-rule="evenodd" d="M51.2989 56.3808H28.3739V44.9596C28.3739 43.3612 29.6699 42.0664 31.2699 42.0664H48.4029C50.0019 42.0664 51.2989 43.3612 51.2989 44.9596V56.3808Z" fill="#232144"/><path fill-rule="evenodd" clip-rule="evenodd" d="M135.318 127H22.683C18.44 127 15 123.563 15 119.325V54.5131C15 50.2741 18.44 46.8374 22.683 46.8374H135.318C139.561 46.8374 143 50.2741 143 54.5131V119.325C143 123.563 139.561 127 135.318 127Z" fill="#FBB03B"/><path fill-rule="evenodd" clip-rule="evenodd" d="M115.909 86.707C115.909 106.164 100.121 121.937 80.6452 121.937C61.1702 121.937 45.3822 106.164 45.3822 86.707C45.3822 67.2495 61.1702 51.4766 80.6452 51.4766C100.121 51.4766 115.909 67.2495 115.909 86.707Z" fill="#232144"/><path fill-rule="evenodd" clip-rule="evenodd" d="M110.723 86.7071C110.723 103.303 97.2574 116.756 80.6454 116.756C64.0344 116.756 50.5674 103.303 50.5674 86.7071C50.5674 70.1109 64.0344 56.6577 80.6454 56.6577C97.2574 56.6577 110.723 70.1109 110.723 86.7071Z" fill="#463EC5"/><path fill-rule="evenodd" clip-rule="evenodd" d="M105.004 86.7069C105.004 100.147 94.0977 111.042 80.6457 111.042C67.1927 111.042 56.2877 100.147 56.2877 86.7069C56.2877 73.2667 67.1927 62.3721 80.6457 62.3721C94.0977 62.3721 105.004 73.2667 105.004 86.7069Z" fill="#232144"/><path fill-rule="evenodd" clip-rule="evenodd" d="M42.7019 67.3554C42.7019 70.7812 39.9219 73.5585 36.4929 73.5585C33.0639 73.5585 30.2839 70.7812 30.2839 67.3554C30.2839 63.9297 33.0639 61.1523 36.4929 61.1523C39.9219 61.1523 42.7019 63.9297 42.7019 67.3554Z" fill="#232144"/></svg>