<?xml version="1.0" encoding="UTF-8"?><svg id="hand_with_pen" xmlns="http://www.w3.org/2000/svg" viewBox="0 0 160 160"><defs><style>.cls-1,.cls-2,.cls-3,.cls-4,.cls-5,.cls-6,.cls-7,.cls-8,.cls-9,.cls-10,.cls-11,.cls-12,.cls-13,.cls-14{stroke-width:0px;}.cls-2{fill:#f7e5cd;}.cls-3{fill:#7b446c;}.cls-4{fill:#8b181d;}.cls-5{fill:#d0a349;}.cls-6{fill:#c6c6c6;}.cls-7{fill:#bf852e;}.cls-8{fill:#bf7461;}.cls-9{fill:#a86554;}.cls-10{fill:#ff976b;}.cls-11{fill:#663059;}.cls-12{fill:#fff;}.cls-13{fill:#ffc6ad;}.cls-14{fill:#f5b091;}</style></defs><ellipse class="cls-4" cx="42.64" cy="43.84" rx="7.03" ry="6.99"/><ellipse class="cls-4" cx="71.62" cy="50.83" rx="7.03" ry="6.99"/><path class="cls-9" d="m46.35,61.84v-13.46l20.8.03v13.43c0,5.73-4.66,10.38-10.4,10.38s-10.4-4.65-10.4-10.38"/><path class="cls-9" d="m86.8,62.23H28.88v.03h-.3c-7.46.56-13.06,7.05-12.49,14.5l12.8,10.8v1.73h2.04l8.63,7.29s.9-3.16,1.8-7.29h45.44v-27.06Z"/><path class="cls-6" d="m48.51,66.21c0-1.08-.88-1.95-1.96-1.95-.26,0-.51.05-.74.15.45-.36.74-.9.74-1.52,0-1.08-.88-1.95-1.96-1.95s-1.96.87-1.96,1.95.88,1.95,1.96,1.95c.26,0,.51-.05.74-.15-.45.36-.74.9-.74,1.52,0,1.08.88,1.95,1.96,1.95s1.96-.87,1.96-1.95Z"/><ellipse class="cls-11" cx="56.75" cy="70.03" rx="1.96" ry="1.95"/><path class="cls-6" d="m69.29,60.56c-1.08,0-1.96.87-1.96,1.95,0,.62.29,1.16.74,1.52-.23-.09-.48-.15-.74-.15-1.08,0-1.96.87-1.96,1.95s.88,1.95,1.96,1.95,1.96-.87,1.96-1.95c0-.62-.29-1.16-.74-1.52.23.09.48.15.74.15,1.08,0,1.96-.87,1.96-1.95s-.88-1.95-1.96-1.95Z"/><path class="cls-6" d="m64.3,66.33c-1.08,0-1.96.87-1.96,1.95,0,.13,0,.26.04.38-.32-.65-.98-1.1-1.76-1.1-1.08,0-1.96.87-1.96,1.95s.88,1.95,1.96,1.95,1.96-.87,1.96-1.95c0-.13,0-.26-.04-.38.32.65.98,1.1,1.76,1.1,1.08,0,1.96-.87,1.96-1.95s-.88-1.95-1.96-1.95Z"/><path class="cls-8" d="m77.09,45.23c-.41,2.28-2.6,3.8-4.89,3.39s-3.81-2.6-3.4-4.88,2.6-3.8,4.89-3.39,3.81,2.6,3.4,4.88"/><path class="cls-8" d="m48.97,40.15c-.41,2.28-2.6,3.8-4.89,3.39s-3.81-2.6-3.4-4.88,2.6-3.8,4.89-3.39,3.81,2.6,3.4,4.88"/><path class="cls-8" d="m44.32,45.55l3.44-19.06c1.09-6.03,6.86-10.03,12.9-8.94l5.26.95c6.04,1.09,10.06,6.86,8.97,12.88l-3.44,19.06c-1.09,6.03-6.86,10.03-12.91,8.94l-5.26-.95c-6.04-1.09-10.06-6.86-8.97-12.88"/><path class="cls-1" d="m62.16,41.42c1.1-3.3,5.65-3.97,8-1.9-.21.23-.61.7-.82.92-.52-.46-3.33-2.22-6.67.57-.2.17-.24.25-.51.41"/><path class="cls-4" d="m45.35,40.14l1.28-7.05c1.1-6.02,6.82-10.03,12.79-8.94l1.8.33h0l1.6.29h0l1.8.33c5.97,1.09,9.92,6.85,8.82,12.88l-1.28,7.05,2.12.39,2.52-13.86c1.19-6.53-3.15-12.79-9.7-13.98l-7.35-1.34c-6.54-1.19-12.81,3.13-14,9.66l-2.52,13.86,2.12.39h0Z"/><path class="cls-1" d="m57.95,46.63c-.16-.03-.31-.07-.47-.14-.45-.18-.85-.5-1.2-.95-.18-.24-.38-.37-.61-.39-.46-.04-.9.35-.9.35l-.37-.41s.62-.56,1.32-.5c.39.03.73.24,1.01.61s.6.63.96.77.7.17,1.02.07c.13-.04.27-.11.4-.21.17-.13.64-.43,1.22-.35.47.07.9.36,1.27.87l-.44.33c-.28-.38-.59-.6-.91-.65-.38-.05-.69.15-.81.24-.19.14-.38.24-.57.3-.29.09-.6.1-.91.05h0Z"/><path class="cls-4" d="m54.04,29.48l-.17-.03c-1.73-.34-3.54.19-4.87,1.43l8.99,1.79c-.76-1.66-2.22-2.84-3.96-3.19"/><path class="cls-4" d="m68.32,32.16l.15.07c1.59.78,2.69,2.3,2.99,4.1l-8.22-4.05c1.61-.86,3.49-.9,5.08-.12"/><path class="cls-12" d="m55.5,40.22s-.61-2.29-2.39-3.29-4.06-.33-4.06-.33c0,0,.45,1.86,2.23,2.86s4.22.76,4.22.76"/><path class="cls-1" d="m55.5,40.22c.12-3.47-3.91-5.69-6.83-4.57.12.29.33.86.44,1.15.65-.25,3.89-.92,6.05,2.86.13.23.14.32.34.56"/><path class="cls-1" d="m54.81,38.75c-.16.91-1.03,1.51-1.94,1.34s-1.51-1.03-1.35-1.94,1.03-1.51,1.94-1.34,1.51,1.03,1.35,1.94"/><path class="cls-12" d="m65.34,40.6c.16-.87.96-1.45,1.83-1.35-.5-.11-1.05-.17-1.61-.08-2.02.32-3.39,2.25-3.39,2.25,0,0,1.91.92,3.8.79-.48-.37-.75-.98-.63-1.61Z"/><path class="cls-12" d="m68.63,41.16c.55-.45.85-.88.85-.88,0,0-.76-.57-1.83-.91.68.3,1.1,1.02.98,1.78h0Z"/><path class="cls-1" d="m67.28,39.26h-.11c.16.04.33.08.48.12-.12-.05-.24-.09-.37-.12Z"/><path class="cls-1" d="m68.63,41.16c.12-.76-.3-1.49-.98-1.78-.15-.05-.31-.09-.48-.12-.87-.1-1.67.48-1.83,1.35-.11.63.15,1.24.63,1.61.14,0,.28,0,.42-.03.98-.15,1.72-.6,2.24-1.03h0Z"/><path class="cls-2" d="m107.79,64.67l19.12-.28-5.83-30.03s-3.77-20.46-18.27-18.18c-14.5,2.28-10.49,1.65-10.49,1.65,0,0-11.56,1.42-10.63,20.4l.26,30.3,12.78-2.01,13.06-1.85"/><polygon class="cls-14" points="126.24 108.05 131.14 64.18 76.97 64.18 76.19 109.07 126.24 108.05"/><path class="cls-7" d="m105,51.93c3.2,6.25,10.88,8.75,17.17,5.56,6.28-3.18,8.78-10.83,5.59-17.09-3.2-6.25-10.88-8.75-17.17-5.56-6.28,3.18-8.78,10.83-5.59,17.09"/><path class="cls-13" d="m83.66,45.83c.36,2.29,2.52,3.85,4.82,3.49s3.86-2.51,3.5-4.79-2.52-3.85-4.82-3.49-3.86,2.51-3.5,4.79"/><path class="cls-13" d="m111.87,41.39c.36,2.29,2.52,3.85,4.82,3.49s3.86-2.51,3.5-4.79-2.52-3.85-4.82-3.49-3.86,2.51-3.5,4.79"/><path class="cls-14" d="m113.73,63.65v-13.43l-20.8.03v13.4c0,5.72,4.66,10.35,10.4,10.35s10.4-4.64,10.4-10.35"/><path class="cls-13" d="m116.47,46.75l-3.03-19.09c-.96-6.03-6.65-10.16-12.71-9.2l-5.28.83c-6.06.95-10.2,6.62-9.24,12.65l3.03,19.09c.96,6.03,6.65,10.15,12.71,9.2l5.28-.83c6.06-.95,10.2-6.61,9.24-12.65"/><path class="cls-1" d="m98.66,42.36c-1.03-3.31-5.56-4.08-7.96-2.08.2.23.6.71.8.94.53-.44,3.37-2.14,6.66.72.2.17.23.25.5.42"/><path class="cls-7" d="m115.47,41.48l-1.12-7.06c-.96-6.03-6.59-10.16-12.58-9.22l-1.81.28-.54-3.38-1.6.25.54,3.38-1.81.28c-5.99.94-10.07,6.59-9.12,12.63l1.12,7.06-2.13.33-2.2-13.89c-1.04-6.54,3.45-12.68,10.02-13.71l7.38-1.16c6.57-1.03,12.74,3.43,13.77,9.97l2.2,13.89-2.13.33v.02Z"/><path class="cls-1" d="m102.76,47.65c.16-.02.31-.07.47-.13.46-.17.86-.48,1.22-.92.19-.24.39-.36.62-.38.46-.03.89.37.89.37l.38-.4s-.6-.57-1.31-.52c-.39.02-.73.22-1.02.58-.29.36-.62.62-.98.75-.37.13-.71.15-1.02.05-.13-.04-.26-.12-.4-.22-.17-.13-.63-.44-1.21-.37-.47.06-.9.34-1.29.83l.44.34c.29-.38.6-.58.92-.63.38-.05.69.16.81.26.19.14.38.25.57.31.29.09.59.12.91.07h0Z"/><path class="cls-7" d="m108,32.96l.17-.03c1.75-.27,3.52.34,4.8,1.65l-9.06,1.38c.83-1.62,2.34-2.73,4.09-3"/><path class="cls-7" d="m94.02,35.15l-.17.03c-1.74.28-3.25,1.41-4.06,3.04l9.04-1.46c-1.29-1.29-3.07-1.88-4.82-1.6"/><path class="cls-12" d="m106.1,39.91v-.16c-.52.82-.75,1.56-.75,1.56,0,0,.94.11,2.08-.03-.67-.13-1.22-.66-1.33-1.37Z"/><path class="cls-12" d="m107.97,38.01c.71.09,1.32.64,1.43,1.38.1.64-.18,1.25-.68,1.61.29-.09.59-.21.86-.35,1.8-.96,2.29-2.8,2.29-2.8,0,0-2.13-.66-3.9.17h0Z"/><path class="cls-1" d="m107.8,38.08s.11-.04.16-.07c-.16-.02-.31-.03-.48,0-.86.13-1.45.9-1.4,1.74.39-.61.94-1.26,1.71-1.67h.01Z"/><path class="cls-1" d="m109.4,39.39c-.12-.74-.72-1.29-1.43-1.38-.05.03-.11.04-.16.07-.77.41-1.32,1.06-1.71,1.67v.16c.11.71.66,1.24,1.33,1.37.42-.05.86-.14,1.29-.28.5-.35.78-.96.68-1.61Z"/><path class="cls-12" d="m93.22,40.2c-1.07.31-1.85.86-1.85.86,0,0,.28.43.83.89-.1-.76.33-1.48,1.02-1.76h0Z"/><path class="cls-12" d="m98.65,42.36s-1.33-1.96-3.34-2.32c-.56-.1-1.11-.06-1.61.04.87-.08,1.66.52,1.8,1.39.1.64-.18,1.24-.67,1.59,1.89.17,3.82-.7,3.82-.7Z"/><path class="cls-1" d="m93.59,40.09c-.13.02-.25.06-.37.11.15-.04.32-.08.48-.11h-.11Z"/><path class="cls-1" d="m95.5,41.47c-.14-.87-.93-1.47-1.8-1.39-.16.03-.33.07-.48.11-.69.28-1.12.99-1.02,1.76.51.43,1.25.9,2.22,1.07.14.02.28.03.42.04.49-.36.77-.96.67-1.59h0Z"/><circle class="cls-3" cx="117.06" cy="42.88" r=".99"/><circle class="cls-3" cx="87.81" cy="47.48" r=".99"/><path class="cls-2" d="m103.87,84.01c6.91,0,13.21-1.97,18-5.2h5.04v32.59l-47.98-.52v-32.07h6.93c4.79,3.23,11.09,5.2,18,5.2h0Z"/><path class="cls-10" d="m103.92,51.34c-.23-1.04,1.4-1.26,1.4-1.26l3.63-.8c-.08-.2-3.4,8.89-10.47,2.31l3.63-.8s1.57-.49,1.81.55h0Z"/><path class="cls-4" d="m57.16,50.5c.2-1.05,1.79-.6,1.79-.6l3.65.69c0-.21-6.62,6.84-10.53-1.99l3.65.69s1.64.17,1.44,1.22h0Z"/><polygon class="cls-13" points="115.12 101.87 132.95 109.4 143.85 78.19 127.61 73.84 115.12 101.87"/><path class="cls-2" d="m143.96,77.71c.56-7.43-5.03-13.9-12.49-14.46-7.46-.56-13.97,5.01-14.53,12.44s3.45,13.33,3.45,13.33c0,0,23.02-3.87,23.58-11.3"/><polygon class="cls-11" points="35.21 84.32 74.58 84.32 73.34 120.03 70.68 143.95 25.49 143.99 35.21 84.32"/><path class="cls-2" d="m136.26,143.99c-.17,0-2.67-27.1-9.52-33.59l-48.83-.34s-8.12,8.66-8.46,33.93h66.81Z"/><path class="cls-8" d="m128.56,129.49l.04.09c.42,1.04,1.61,1.54,2.66,1.11l3.84-1.56c1.04-.42,1.54-1.61,1.12-2.64l-.04-.09c-.42-1.04-1.61-1.54-2.66-1.11l-3.84,1.56c-1.04.42-1.54,1.61-1.12,2.64Z"/><path class="cls-8" d="m125.88,126.14v.02c.44,1.06,1.66,1.56,2.72,1.13l6.02-2.44c1.06-.43,1.57-1.64,1.14-2.69v-.02c-.44-1.06-1.66-1.56-2.72-1.13l-6.02,2.44c-1.06.43-1.57,1.64-1.14,2.69Z"/><path class="cls-8" d="m124.3,122.29v.02c.44,1.06,1.66,1.56,2.72,1.13l6.02-2.44c1.06-.43,1.57-1.64,1.14-2.69v-.02c-.44-1.06-1.66-1.56-2.72-1.13l-6.02,2.44c-1.06.43-1.57,1.64-1.14,2.69Z"/><path class="cls-8" d="m123.43,118.17v.02c.44,1.06,1.66,1.56,2.72,1.13l4.64-1.88c1.06-.43,1.57-1.64,1.14-2.69v-.02c-.44-1.06-1.66-1.56-2.72-1.13l-4.64,1.88c-1.06.43-1.57,1.64-1.14,2.69Z"/><polygon class="cls-13" points="93.8 144 78.72 144 63.63 76.76 82.92 84.24 93.8 144"/><path class="cls-2" d="m66.94,86.89c-5.76-4.76-6.55-13.26-1.77-18.99,4.78-5.73,13.33-6.51,19.09-1.75,5.76,4.76,7.7,19.24,7.7,19.24,0,0-19.26,6.26-25.02,1.5"/><path class="cls-13" d="m89.41,71.26l-6.8-7.2c-.7-.72-1.86-.75-2.58-.05-.73.7-.75,1.85-.05,2.57l6.74,7.13.52.55.79.83-.19.18-6.36-6.77c-.7-.72-1.86-.75-2.58-.05-.73.7-.75,1.85-.05,2.57l10.55,11.1.23.23c.96.95,2.1,1.71,3.35,2.22l25.73,27.41c.69.74,1.49,1.31,2.34,1.73,1.67.92,3.66,1.29,5.68.9,3.21-.62,5.64-2.98,6.49-5.91v-.04c.35-1.22.43-2.53.17-3.86-.73-3.76-3.89-6.44-7.55-6.75l-12.41-10.31-10-8.81c.16-2.31-.04-4.63-.6-6.88l-2.3-8.89c-.24-.97-1.23-1.57-2.21-1.33-.98.24-1.58,1.23-1.34,2.2l1.4,5.29-9.76-10.31c-.7-.72-1.86-.75-2.58-.05s-.75,1.85-.05,2.57l7.69,8.14-.19.18-9.01-9.51c-.7-.72-1.86-.75-2.58-.05-.73.7-.75,1.85-.05,2.57l8.46,8.94-.19.18-.18-.19-.52-.55v.02Z"/><polygon class="cls-5" points="89.92 71.75 87.32 74.35 86.99 74.03 89.6 71.43 89.92 71.75"/><path class="cls-6" d="m53.26,67.94c-.77,0-1.44.45-1.76,1.1.02-.12.04-.25.04-.38,0-1.08-.88-1.95-1.96-1.95s-1.96.87-1.96,1.95.88,1.95,1.96,1.95c.77,0,1.44-.45,1.76-1.1-.02.12-.04.25-.04.38,0,1.08.88,1.95,1.96,1.95s1.96-.87,1.96-1.95-.88-1.95-1.96-1.95Z"/><polygon class="cls-9" points="29.56 127.18 52.78 143.99 72.21 143.99 42.14 115.86 29.56 127.18"/><ellipse class="cls-9" cx="34.75" cy="120.31" rx="8.64" ry="8.6"/><path class="cls-1" d="m62.17,41.42c1.1-3.29,5.64-3.96,7.99-1.9-.21.23-.61.7-.82.92-.52-.46-3.32-2.22-6.66.57-.2.17-.24.25-.51.41"/><path class="cls-9" d="m35.37,84.24l-.66-.19c1.67-3.72,2.81-8.39,7.83-8.62,7.32-.33-5.94-13.2-13.27-13.2s-13.27,5.91-13.27,13.2c0,1.18.17,2.32.46,3.41h-.02l9.84,43.43,18.53,5.95-9.46-43.98h.02Z"/><path class="cls-1" d="m98.65,42.36c-1.03-3.31-5.56-4.08-7.95-2.07.2.23.6.71.8.94.53-.44,3.37-2.14,6.65.72.2.17.23.25.5.42"/><path class="cls-1" d="m105.35,41.32c-.05-3.46,4.03-5.58,6.92-4.41-.12.28-.35.86-.47,1.14-.64-.26-3.87-1-6.1,2.72-.14.23-.14.31-.35.55"/></svg>