<svg viewBox="0 0 160 160" fill="none" xmlns="http://www.w3.org/2000/svg"><path d="M39.89 143.98L51.13 108.51L20.39 105.44L16.12 144L39.89 143.98Z" fill="#FFA28F"/><path d="M16 107.69C16 107.69 26.05 83.4502 40.06 83.4502C49.66 83.4502 57.98 89.9002 58.7 99.4602C59.42 109.02 39.1 125.96 39.1 125.96L15.99 107.7L16 107.69Z" fill="#232144"/><path d="M120.11 143.98L108.87 108.51L139.61 105.44L143.88 144L120.11 143.98Z" fill="#FFA28F"/><path d="M144 107.5C144 107.5 133.95 83.2598 119.94 83.2598C110.34 83.2598 102.02 89.7098 101.3 99.2698C100.58 108.83 120.9 125.77 120.9 125.77L144.01 107.51L144 107.5Z" fill="#232144"/><path d="M39.5 143.98L37.47 83.71C37.47 83.71 69.08 73.29 80.33 73.29C90.59 73.29 124.01 83.9 124.01 83.9L121.33 143.98H39.5Z" fill="#232144"/><path d="M96.48 108.44L84.13 100.14L84.1 100.19L78.64 96.8002C77.28 95.9702 75.5 96.3802 74.66 97.7202C73.8 99.0902 74.23 100.9 75.63 101.74L80.97 104.97L80.95 105L73.11 100.24C71.77 99.4302 70.02 99.8402 69.19 101.17C68.33 102.52 68.76 104.32 70.13 105.15L77.8 109.8C77.8 109.8 77.78 109.8 77.78 109.79L69.61 104.83C68.27 104.02 66.52 104.43 65.68 105.77H65.69C64.83 107.14 65.25 108.94 66.62 109.77L68.56 110.95L68.04 110.64C66.68 109.83 64.91 110.28 64.09 111.64C63.27 113.01 63.7 114.78 65.06 115.61L78.69 123.95L68.59 127.76C67.03 128.35 66.24 130.1 66.83 131.66H66.84C67.33 132.98 68.36 134.08 70.48 133.5L71.43 133.3L89.71 129.09C89.71 129.09 89.77 129.06 89.8 129.04C90.21 128.89 87.74 129.61 88.13 129.4L91.12 128.46L106.43 143.98H135.69L96.49 108.44H96.48Z" fill="#FFA28F"/><path d="M65.86 78.5696V58.3896H93.68V78.5696C93.68 85.0696 88.41 90.3396 81.9 90.3396H77.63C71.13 90.3396 65.85 85.0696 65.85 78.5696H65.86Z" fill="#F5836D"/><path d="M60.89 54.76C63.9994 54.76 66.52 52.2394 66.52 49.13C66.52 46.0206 63.9994 43.5 60.89 43.5C57.7806 43.5 55.26 46.0206 55.26 49.13C55.26 52.2394 57.7806 54.76 60.89 54.76Z" fill="#FFA28F"/><path d="M99.11 54.76C102.219 54.76 104.74 52.2394 104.74 49.13C104.74 46.0206 102.219 43.5 99.11 43.5C96.0006 43.5 93.48 46.0206 93.48 49.13C93.48 52.2394 96.0006 54.76 99.11 54.76Z" fill="#FFA28F"/><path d="M76.12 16.0996H83.28C91.48 16.0996 98.14 22.7596 98.14 30.9596V56.9196C98.14 65.1196 91.48 71.7796 83.28 71.7796H76.12C67.92 71.7796 61.26 65.1196 61.26 56.9196V30.9596C61.26 22.7596 67.92 16.0996 76.12 16.0996Z" fill="#FFA28F"/><path d="M90.0448 47.9018C92.3229 47.4097 93.9674 46.0742 93.7178 44.919C93.4683 43.7637 91.4192 43.2262 89.1411 43.7183C86.863 44.2104 85.2186 45.5459 85.4681 46.7011C85.7177 47.8564 87.7667 48.3939 90.0448 47.9018Z" fill="white"/><path d="M74.0053 46.6992C74.2549 45.5439 72.6104 44.2085 70.3323 43.7164C68.0542 43.2242 66.0052 43.7618 65.7556 44.917C65.5061 46.0723 67.1505 47.4077 69.4286 47.8999C71.7067 48.392 73.7558 47.8544 74.0053 46.6992Z" fill="white"/><path d="M62.44 27.7695H60.92V50.5095H62.44V27.7695Z" fill="#DFA245"/><path d="M98.58 27.7695H97.06V50.9495H98.58V27.7695Z" fill="#DFA245"/><path d="M60.92 27.7696V22.2996C60.92 18.8696 63.7 16.0996 67.12 16.0996H92.69C92.69 16.0996 94.32 20.8196 93.04 22.3296C91.5 24.1496 86.63 27.7596 78.73 27.7596H60.92V27.7696Z" fill="#DFA245"/><path d="M80.25 54.5695C79.4 54.5695 78.73 54.1495 78.13 53.7695C77.15 53.1595 76.57 52.7895 75.38 53.9595L74.61 53.1895C76.4 51.3995 77.67 52.1995 78.7 52.8395C79.21 53.1595 79.7 53.4695 80.24 53.4695C80.78 53.4695 81.26 53.1895 81.74 52.8895C82.71 52.2995 83.92 51.5495 85.92 53.2195L85.23 54.0495C83.82 52.8895 83.22 53.2495 82.3 53.8195C81.74 54.1695 81.1 54.5595 80.23 54.5595L80.25 54.5695Z" fill="black"/><path d="M89.15 16.0996H92.61C95.91 16.0996 98.59 18.7796 98.59 22.0796V28.2396H94.48C91.54 28.2396 89.15 25.8496 89.15 22.9096V16.0996Z" fill="#DFA245"/><path d="M79.86 59.7803C81.66 59.7803 83.29 60.4603 84.38 61.6703L83.53 62.4403C82.59 61.3903 81.12 60.8503 79.52 60.9403C78.14 61.0203 76.94 61.5603 76.36 62.3703L75.43 61.7003C76.22 60.6003 77.72 59.8903 79.46 59.8003H79.86" fill="black"/><path d="M89.58 49.13C90.7785 49.13 91.75 48.1585 91.75 46.96C91.75 45.7616 90.7785 44.79 89.58 44.79C88.3815 44.79 87.41 45.7616 87.41 46.96C87.41 48.1585 88.3815 49.13 89.58 49.13Z" fill="black"/><path d="M69.86 49.13C71.0585 49.13 72.03 48.1585 72.03 46.96C72.03 45.7616 71.0585 44.79 69.86 44.79C68.6615 44.79 67.69 45.7616 67.69 46.96C67.69 48.1585 68.6615 49.13 69.86 49.13Z" fill="black"/><path d="M93.87 47.1797H66.06V50.9497H93.87V47.1797Z" fill="#FFA28F"/><path d="M68.98 37.4698L77.16 42.1998L74.81 46.2798C74.81 46.2798 74.81 46.2998 74.78 46.2798L66.6 41.5498C65.56 40.9498 65.21 39.6198 65.8 38.5798L65.97 38.2798C66.57 37.2298 67.91 36.8698 68.97 37.4698H68.98Z" fill="#DFA245"/><path d="M83.89 40.9503L92.6 37.2803L94.43 41.6203C94.43 41.6203 94.43 41.6403 94.43 41.6503L85.72 45.3203C84.61 45.7903 83.33 45.2603 82.88 44.1603L82.74 43.8403C82.26 42.7203 82.79 41.4403 83.9 40.9703V40.9503H83.89Z" fill="#DFA245"/><path d="M77.87 103.1L84.19 106.97" stroke="#F5836D" stroke-width="0.6" stroke-miterlimit="10"/><path d="M87.19 102.01L78.69 96.8398L78.38 97.3498L86.88 102.53C88.11 103.25 88.57 104.79 87.91 105.98C87.6 106.54 87.09 106.94 86.47 107.11C85.81 107.3 85.1 107.21 84.49 106.87L75.65 101.39L75.33 101.9L84.03 107.29C85.27 108.01 85.69 109.53 84.99 110.77C84.29 112 82.71 112.45 81.47 111.76V111.78C81.4 111.74 81.36 111.7 81.3 111.66L71.43 105.6L71.12 106.11L80.99 112.17C82.22 112.88 82.66 114.46 81.96 115.7C81.26 116.94 79.68 117.38 78.45 116.7L70.71 111.95L68.72 110.73L68.41 111.24L77.97 117.1C79.21 117.81 79.66 119.23 79.04 120.43C78.38 121.6 76.72 121.99 75.43 121.28L66.2 115.62L65.89 116.13L75.14 121.8C75.69 122.1 76.28 122.25 76.85 122.25C77.93 122.25 78.96 121.74 79.52 120.82C80.12 119.76 80 118.53 79.34 117.58C79.46 117.59 79.58 117.62 79.7 117.62C80.82 117.62 81.91 117.04 82.49 116C83.11 114.91 83 113.61 82.34 112.63C82.47 112.65 82.6 112.68 82.73 112.68C83.85 112.68 84.94 112.1 85.52 111.06C86.13 109.97 86.04 108.71 85.38 107.75C85.51 107.77 85.64 107.8 85.77 107.8C86.06 107.8 86.34 107.76 86.62 107.68C87.4 107.46 88.04 106.96 88.42 106.26C89.24 104.79 88.68 102.88 87.17 102H87.19V102.01Z" fill="#F5836D"/></svg>