<svg viewBox="0 0 160 160" fill="none" xmlns="http://www.w3.org/2000/svg"><path fill-rule="evenodd" clip-rule="evenodd" d="M56.3356 95.0137V111.546C56.3356 115.807 75.9596 119.262 100.169 119.262C124.377 119.262 144.001 115.807 144.001 111.546V95.0137H56.3356Z" fill="#F7931E"/><path fill-rule="evenodd" clip-rule="evenodd" d="M143.967 95.0143C143.537 92.2508 134.856 89.8519 122.106 88.5498V118.225C135.191 116.891 143.998 114.401 143.998 111.547V95.0143H143.967Z" fill="#EF7903"/><path fill-rule="evenodd" clip-rule="evenodd" d="M144.001 95.0133C144.001 99.2742 124.376 102.729 100.168 102.729C75.9597 102.729 56.3357 99.2742 56.3357 95.0133C56.3357 90.7524 75.9597 87.2979 100.168 87.2979C124.376 87.2979 144.001 90.7524 144.001 95.0133Z" fill="#FBB03B"/><path fill-rule="evenodd" clip-rule="evenodd" d="M100.473 90.2566C90.6626 90.2566 81.4436 90.8275 74.5136 91.8632C64.3366 93.3846 64.2196 95.1104 64.2196 95.1835C64.2196 95.2566 64.3366 96.9824 74.5136 98.5039C81.4436 99.5396 90.6626 100.11 100.473 100.11C110.283 100.11 119.502 99.5396 126.431 98.5039C136.608 96.9824 136.725 95.2566 136.725 95.1835C136.725 95.1104 136.608 93.3846 126.431 91.8632C119.502 90.8275 110.283 90.2566 100.473 90.2566ZM100.473 101.27C85.4346 101.27 63.0616 99.6487 63.0616 95.1835C63.0616 90.7183 85.4346 89.0967 100.473 89.0967C115.511 89.0967 137.883 90.7183 137.883 95.1835C137.883 99.6487 115.511 101.27 100.473 101.27Z" fill="#F7931E"/><path fill-rule="evenodd" clip-rule="evenodd" d="M45.1351 77.166V93.6987C45.1351 97.9596 64.7591 101.414 88.9681 101.414C113.176 101.414 132.8 97.9596 132.8 93.6987V77.166H45.1351Z" fill="#F7931E"/><path fill-rule="evenodd" clip-rule="evenodd" d="M132.814 77.1002C132.384 74.3367 123.703 71.9378 110.953 70.6357V100.311C124.038 98.9766 132.845 96.4865 132.845 93.6329V77.1002H132.814Z" fill="#EF7903"/><path fill-rule="evenodd" clip-rule="evenodd" d="M132.8 77.1657C132.8 81.4266 113.175 84.8811 88.9674 84.8811C64.7594 84.8811 45.1354 81.4266 45.1354 77.1657C45.1354 72.9048 64.7594 69.4502 88.9674 69.4502C113.175 69.4502 132.8 72.9048 132.8 77.1657Z" fill="#FBB03B"/><path fill-rule="evenodd" clip-rule="evenodd" d="M89.2722 72.4099C79.4622 72.4099 70.2432 72.9798 63.3132 74.0165C53.1362 75.5379 53.0192 77.2637 53.0192 77.3368C53.0192 77.41 53.1362 79.1357 63.3132 80.6572C70.2432 81.6929 79.4622 82.2638 89.2722 82.2638C99.0822 82.2638 108.301 81.6929 115.23 80.6572C125.407 79.1357 125.524 77.41 125.524 77.3368C125.524 77.2637 125.407 75.5379 115.23 74.0165C108.301 72.9798 99.0822 72.4099 89.2722 72.4099ZM89.2722 83.4227C74.2342 83.4227 51.8612 81.8021 51.8612 77.3368C51.8612 72.8716 74.2342 71.25 89.2722 71.25C104.31 71.25 126.682 72.8716 126.682 77.3368C126.682 81.8021 104.31 83.4227 89.2722 83.4227Z" fill="#F7931E"/><path fill-rule="evenodd" clip-rule="evenodd" d="M94.872 80.6588C94.7836 102.474 77.0576 120.086 55.2776 120C33.4986 119.911 15.9136 102.157 16.0003 80.3412C16.0886 58.527 33.8156 40.9135 55.5946 41.0003C77.3746 41.0888 94.9596 58.8435 94.872 80.6588Z" fill="#FBB03B"/><path fill-rule="evenodd" clip-rule="evenodd" d="M55.8117 50.4302C39.1177 50.3634 25.4807 63.9123 25.4134 80.6343C25.3467 97.3554 38.8737 111.013 55.5687 111.081C72.2627 111.149 85.8987 97.5988 85.9659 80.8777C86.0327 64.1567 72.5057 50.4976 55.8117 50.4302ZM55.5577 113.63C37.4607 113.557 22.7967 98.7506 22.8694 80.6233C22.9417 62.497 37.7247 47.8093 55.8217 47.8821C73.9187 47.9555 88.5827 62.7614 88.5109 80.8877C88.4377 99.014 73.6557 113.702 55.5577 113.63Z" fill="#F7931E"/><path fill-rule="evenodd" clip-rule="evenodd" d="M59.1421 84.3604C59.1401 84.8472 58.9371 85.0496 58.4911 85.0475L50.9951 85.0175C51.7511 88.5512 53.7271 90.873 57.6981 90.888C59.4811 90.896 61.0631 90.4152 62.4021 89.9335C62.9701 89.7331 63.2941 89.7341 63.4951 90.1818L64.5391 92.4185C64.8201 93.0275 64.6981 93.352 64.2101 93.5934C62.2211 94.6401 59.6661 95.2801 56.8701 95.2682C50.7521 95.244 46.8781 91.3327 45.7281 84.9965L43.0941 84.9854C42.6481 84.9834 42.4471 84.7801 42.4491 84.2933L42.4561 82.3452C42.4581 81.8584 42.6621 81.6561 43.1081 81.6581L45.3761 81.6671L45.3811 80.5312C45.3831 80.0034 45.3851 79.4755 45.4281 78.9477L43.3621 78.9397C42.9161 78.9377 42.7141 78.7343 42.7161 78.2466L42.7241 76.2994C42.7261 75.8116 42.9291 75.6103 43.3751 75.6123L45.8871 75.6223C47.2081 69.4583 51.0751 65.2125 57.4361 65.2374C60.5561 65.2505 62.7411 66.0308 64.3571 67.2137C64.8411 67.5813 64.9211 67.9058 64.6761 68.3926L63.5331 70.457C63.2481 70.9427 62.8421 71.1451 62.3571 70.8586C60.7401 69.9592 59.7281 69.5084 57.8241 69.5004C54.3401 69.4864 52.0221 71.5878 51.0331 75.6433L58.7721 75.6734C59.2171 75.6754 59.4191 75.8797 59.4171 76.3665L59.4091 78.3147C59.4071 78.8015 59.2041 79.0038 58.7591 79.0018L50.6141 78.9687C50.5721 79.4154 50.5701 79.9022 50.5681 80.349L50.5631 81.6881L58.5051 81.7202C58.9501 81.7212 59.1521 81.9255 59.1501 82.4123L59.1421 84.3604Z" fill="white"/></svg>