<?xml version="1.0" encoding="UTF-8"?><svg id="House" xmlns="http://www.w3.org/2000/svg" viewBox="0 0 160 160"><defs><style>.cls-1{fill:#e6e3d9;}.cls-2{fill:#8c0b24;}.cls-3{fill:#feb200;}.cls-4{fill:#ec2b3b;}.cls-5{fill:#fea500;}.cls-6{fill:#fb9400;}.cls-7{fill:#006b2c;}.cls-8{fill:#d9cbc4;}.cls-9{fill:#231f46;}.cls-10{fill:#f20077;}</style></defs><polygon class="cls-1" points="134.21 89.56 80.39 38.18 26.57 89.47 26.57 132.95 134.21 132.95 134.21 89.56"/><path class="cls-9" d="M80.39,98.09h0c5.89,0,10.67,4.78,10.67,10.67v24.18h-21.34v-24.18c0-5.89,4.78-10.67,10.67-10.67Z"/><rect class="cls-9" x="35.3" y="98.09" width="24.01" height="20.59"/><rect class="cls-9" x="100.63" y="98.09" width="24.01" height="20.59"/><rect class="cls-9" x="73.82" y="66.46" width="13.14" height="11.27"/><path class="cls-6" d="M38.71,109.34s-2.14-2.31.71-4.85c0,0,2.78,2.04.71,4.85h-1.42Z"/><path class="cls-5" d="M39.15,110.77s2.33.42,2.33-2.17c0,0,.06-.95,0-3.33,0,0-2.64,1.05-2.33,5.5Z"/><path class="cls-3" d="M39.75,110.78s-2.11.36-2.36-2.18c0,0-.14-.97,0-3.33,0,0,2.67,1.05,2.36,5.5Z"/><rect class="cls-7" x="34.62" y="115.47" width="9.69" height=".34" transform="translate(-76.63 153.74) rotate(-89.32)"/><path class="cls-2" d="M46.6,109.34s-2.14-2.31.71-4.85c0,0,2.78,2.04.71,4.85h-1.42Z"/><path class="cls-4" d="M47.03,110.77s2.33.42,2.33-2.17c0,0,.06-.95,0-3.33,0,0-2.64,1.05-2.33,5.5Z"/><path class="cls-10" d="M47.64,110.78s-2.11.36-2.36-2.18c0,0-.14-.97,0-3.33,0,0,2.67,1.05,2.36,5.5Z"/><rect class="cls-7" x="42.51" y="115.47" width="9.69" height=".34" transform="translate(-68.84 161.62) rotate(-89.32)"/><path class="cls-6" d="M54.49,109.34s-2.14-2.31.71-4.85c0,0,2.78,2.04.71,4.85h-1.42Z"/><path class="cls-5" d="M54.92,110.77s2.33.42,2.33-2.17c0,0,.06-.95,0-3.33,0,0-2.64,1.05-2.33,5.5Z"/><path class="cls-3" d="M55.53,110.78s-2.11.36-2.36-2.18c0,0-.14-.97,0-3.33,0,0,2.67,1.05,2.36,5.5Z"/><rect class="cls-7" x="50.4" y="115.47" width="9.69" height=".34" transform="translate(-61.04 169.51) rotate(-89.32)"/><path class="cls-6" d="M104.04,109.34s-2.14-2.31.71-4.85c0,0,2.78,2.04.71,4.85h-1.42Z"/><path class="cls-5" d="M104.48,110.77s2.33.42,2.33-2.17c0,0,.06-.95,0-3.33,0,0-2.64,1.05-2.33,5.5Z"/><path class="cls-3" d="M105.08,110.78s-2.11.36-2.36-2.18c0,0-.14-.97,0-3.33,0,0,2.67,1.05,2.36,5.5Z"/><rect class="cls-7" x="99.95" y="115.47" width="9.69" height=".34" transform="translate(-12.07 219.07) rotate(-89.32)"/><path class="cls-2" d="M111.93,109.34s-2.14-2.31.71-4.85c0,0,2.78,2.04.71,4.85h-1.42Z"/><path class="cls-4" d="M112.37,110.77s2.33.42,2.33-2.17c0,0,.06-.95,0-3.33,0,0-2.64,1.05-2.33,5.5Z"/><path class="cls-10" d="M112.97,110.78s-2.11.36-2.36-2.18c0,0-.14-.97,0-3.33,0,0,2.67,1.05,2.36,5.5Z"/><rect class="cls-7" x="107.84" y="115.47" width="9.69" height=".34" transform="translate(-4.28 226.95) rotate(-89.32)"/><path class="cls-6" d="M119.82,109.34s-2.14-2.31.71-4.85c0,0,2.78,2.04.71,4.85h-1.42Z"/><path class="cls-5" d="M120.26,110.77s2.33.42,2.33-2.17c0,0,.06-.95,0-3.33,0,0-2.64,1.05-2.33,5.5Z"/><path class="cls-3" d="M120.86,110.78s-2.11.36-2.36-2.18c0,0-.14-.97,0-3.33,0,0,2.67,1.05,2.36,5.5Z"/><rect class="cls-7" x="115.73" y="115.47" width="9.69" height=".34" transform="translate(3.52 234.84) rotate(-89.32)"/><rect class="cls-8" x="32.54" y="118.17" width="29.53" height="4.62"/><rect class="cls-8" x="97.87" y="118.17" width="29.53" height="4.62"/><polygon class="cls-4" points="144.19 96.23 144.34 96.08 80.39 27.46 16.44 96.08 16.6 96.23 26.46 96.23 80.39 38.35 134.33 96.23 144.19 96.23"/></svg>