<svg viewBox="0 0 160 160" fill="none" xmlns="http://www.w3.org/2000/svg"><path d="M143.3 119.32L135.14 105.7C103.79 128.59 57.36 129.75 24.19 105.8L16.69 118.28C15.49 119.94 15.9 122.27 17.6 123.41C56.23 149.42 105.73 148.06 142.42 123.13C144.11 121.98 144.51 120.98 143.31 119.33L143.3 119.32Z" fill="#FAAD70"/><path d="M82.68 18.1302C82.04 17.2402 81.08 16.7802 80.11 16.7002C81.09 16.7902 82.05 17.2602 82.69 18.1302H82.68Z" fill="#FAAD70"/><path d="M135.14 105.69L82.69 18.1501C82.69 18.1501 82.69 18.1501 82.68 18.1401L135.14 105.7V105.69Z" fill="#FFE3C7"/><path d="M80.1 16.7002C78.9 16.5902 77.66 17.0402 76.89 18.1102L24.18 105.79C24.18 105.79 24.18 105.79 24.19 105.79L76.92 18.1402C77.7 17.0702 78.92 16.6002 80.1 16.7002Z" fill="#FFE3C7"/><path d="M135.14 105.7L82.68 18.1301C82.04 17.2601 81.08 16.7901 80.1 16.7001C78.92 16.6001 77.69 17.0701 76.92 18.1401L24.19 105.79C57.36 129.74 103.79 128.58 135.14 105.69V105.7Z" fill="#FFE3C7"/><path d="M73.7761 53.8457C73.6751 60.655 68.0637 66.1023 61.2544 66.0013C61.3554 59.192 66.9569 53.7445 73.7661 53.8456L73.7761 53.8457Z" fill="#006931"/><path d="M70.1619 72.3525L70.1717 72.3541C77.091 73.4141 81.8454 79.8887 80.7853 86.808L80.7755 86.8065C73.8562 85.7464 69.1018 79.2718 70.1619 72.3525Z" fill="#006931"/><path d="M108.864 107.171C107.97 100.229 112.878 93.8696 119.82 92.9753C120.725 99.9167 115.817 106.276 108.874 107.17L108.864 107.171Z" fill="#006931"/><path d="M79.34 62.9C86.7793 62.9 92.81 56.8737 92.81 49.44C92.81 42.0062 86.7793 35.98 79.34 35.98C71.9007 35.98 65.87 42.0062 65.87 49.44C65.87 56.8737 71.9007 62.9 79.34 62.9Z" fill="#891229"/><path d="M79.34 61.2699C85.8735 61.2699 91.17 55.9734 91.17 49.4399C91.17 42.9063 85.8735 37.6099 79.34 37.6099C72.8065 37.6099 67.51 42.9063 67.51 49.4399C67.51 55.9734 72.8065 61.2699 79.34 61.2699Z" fill="#E73245"/><path d="M75.43 40.9701C75.24 40.9101 75.05 40.8701 74.86 40.8701C74.53 40.8701 74.2 40.9701 73.91 41.1601C72.91 41.8301 72.04 42.6601 71.33 43.6401C70.62 44.6201 70.1 45.7101 69.78 46.8701C69.64 47.3901 69.75 47.9401 70.08 48.3701C70.41 48.8001 70.91 49.0501 71.46 49.0501H76.43C76.99 49.0401 77.5 48.7801 77.82 48.3201C78.15 47.8701 78.23 47.3001 78.06 46.7801L76.52 42.0701C76.35 41.5501 75.96 41.1501 75.44 40.9701H75.43Z" fill="#891229"/><path d="M77.66 40.25C77.35 40.7 77.27 41.25 77.44 41.77L78.98 46.48C79.15 47.01 79.56 47.41 80.09 47.58C80.62 47.75 81.18 47.66 81.64 47.33L85.65 44.41C86.09 44.09 86.35 43.59 86.36 43.05C86.37 42.51 86.13 42 85.7 41.66C85.58 41.57 85.47 41.48 85.35 41.4C83.62 40.15 81.6 39.5 79.49 39.5C79.33 39.5 79.16 39.5 79 39.51C78.46 39.54 77.97 39.81 77.66 40.26V40.25Z" fill="#891229"/><path d="M81.5 49.5198C81.5 50.0798 81.76 50.5898 82.21 50.9098L86.23 53.8198C86.67 54.1398 87.22 54.2298 87.74 54.0698C88.27 53.9098 88.68 53.5198 88.87 52.9998C89.7 50.7398 89.7 48.2498 88.84 45.9898C88.65 45.4798 88.24 45.0998 87.72 44.9398C87.2 44.7798 86.64 44.8798 86.2 45.1998L82.19 48.1198C81.74 48.4498 81.48 48.9598 81.48 49.5198H81.5Z" fill="#891229"/><path d="M78.99 52.5699L77.47 57.2899C77.3 57.8099 77.39 58.3599 77.7 58.8099C78.01 59.2599 78.51 59.5299 79.05 59.5499C81.47 59.6499 83.84 58.8799 85.72 57.3799C86.15 57.0299 86.4 56.5199 86.38 55.9699C86.37 55.4299 86.11 54.9299 85.67 54.6199L81.65 51.7099C81.35 51.4899 81 51.3799 80.64 51.3799C80.46 51.3799 80.28 51.4099 80.1 51.4699C79.57 51.6399 79.17 52.0499 79 52.5799L78.99 52.5699Z" fill="#891229"/><path d="M76.42 50.02H71.45C70.9 50.03 70.4 50.28 70.07 50.72C69.74 51.15 69.64 51.7 69.78 52.22C70.39 54.43 71.7 56.31 73.57 57.66C73.69 57.75 73.81 57.83 73.93 57.91C74.39 58.21 74.94 58.28 75.46 58.1C75.98 57.92 76.37 57.52 76.53 57L78.05 52.28C78.22 51.75 78.13 51.19 77.8 50.74C77.47 50.29 76.96 50.03 76.41 50.03L76.42 50.02Z" fill="#891229"/><path d="M59.7 114.39C67.1393 114.39 73.17 108.364 73.17 100.93C73.17 93.4965 67.1393 87.4702 59.7 87.4702C52.2607 87.4702 46.23 93.4965 46.23 100.93C46.23 108.364 52.2607 114.39 59.7 114.39Z" fill="#891229"/><path d="M59.7 112.76C66.2335 112.76 71.53 107.464 71.53 100.93C71.53 94.3966 66.2335 89.1001 59.7 89.1001C53.1665 89.1001 47.87 94.3966 47.87 100.93C47.87 107.464 53.1665 112.76 59.7 112.76Z" fill="#E73245"/><path d="M55.79 92.4599C55.6 92.3899 55.41 92.3599 55.22 92.3599C54.89 92.3599 54.56 92.4599 54.27 92.6499C53.27 93.3099 52.4 94.1499 51.69 95.1299C50.98 96.1099 50.46 97.1999 50.14 98.3599C50 98.8799 50.1 99.4299 50.43 99.8599C50.76 100.29 51.26 100.54 51.81 100.54H56.78C57.34 100.53 57.85 100.27 58.17 99.8099C58.5 99.3599 58.58 98.7899 58.41 98.2599L56.87 93.5499C56.7 93.0299 56.31 92.6299 55.79 92.4499V92.4599Z" fill="#891229"/><path d="M58.02 91.7402C57.71 92.1902 57.63 92.7402 57.8 93.2602L59.34 97.9702C59.51 98.5002 59.92 98.9002 60.45 99.0702C60.98 99.2402 61.55 99.1502 62 98.8202L66.01 95.9002C66.45 95.5802 66.71 95.0802 66.72 94.5402C66.73 93.9902 66.49 93.4902 66.06 93.1502C65.95 93.0602 65.83 92.9702 65.71 92.8902C63.98 91.6402 61.96 90.9902 59.85 90.9902C59.69 90.9902 59.52 90.9902 59.36 91.0002C58.82 91.0302 58.33 91.3002 58.02 91.7502V91.7402Z" fill="#891229"/><path d="M61.86 101.01C61.86 101.57 62.12 102.08 62.57 102.4L66.59 105.31C67.03 105.63 67.58 105.72 68.1 105.56C68.63 105.4 69.04 105.01 69.23 104.49C70.06 102.24 70.06 99.75 69.2 97.48C69.01 96.97 68.6 96.59 68.08 96.43C67.56 96.27 67 96.37 66.56 96.69L62.55 99.61C62.1 99.94 61.84 100.45 61.84 101.01H61.86Z" fill="#891229"/><path d="M59.35 104.06L57.83 108.78C57.66 109.3 57.75 109.85 58.06 110.3C58.37 110.75 58.87 111.02 59.41 111.04C61.82 111.14 64.2 110.37 66.08 108.87C66.51 108.52 66.76 108.01 66.74 107.46C66.73 106.92 66.47 106.42 66.03 106.11L62.01 103.2C61.71 102.98 61.36 102.87 61 102.87C60.82 102.87 60.64 102.9 60.46 102.96C59.93 103.13 59.53 103.54 59.36 104.07L59.35 104.06Z" fill="#891229"/><path d="M56.78 101.51H51.82C51.28 101.52 50.77 101.77 50.44 102.21C50.11 102.64 50.01 103.19 50.15 103.71C50.76 105.92 52.07 107.8 53.94 109.15C54.06 109.24 54.18 109.32 54.3 109.4C54.76 109.7 55.31 109.77 55.83 109.59C56.35 109.41 56.74 109.01 56.9 108.49L58.42 103.77C58.59 103.24 58.5 102.68 58.17 102.23C57.84 101.78 57.33 101.52 56.77 101.52L56.78 101.51Z" fill="#891229"/><path d="M102.05 111.03C108.843 111.03 114.35 105.528 114.35 98.7402C114.35 91.9526 108.843 86.4502 102.05 86.4502C95.2569 86.4502 89.75 91.9526 89.75 98.7402C89.75 105.528 95.2569 111.03 102.05 111.03Z" fill="#891229"/><path d="M102.05 109.53C108.015 109.53 112.85 104.699 112.85 98.7402C112.85 92.781 108.015 87.9502 102.05 87.9502C96.0853 87.9502 91.25 92.781 91.25 98.7402C91.25 104.699 96.0853 109.53 102.05 109.53Z" fill="#E73245"/><path d="M98.48 91.0099C98.31 90.9499 98.13 90.9199 97.96 90.9199C97.66 90.9199 97.36 91.0099 97.1 91.1799C96.18 91.7899 95.39 92.5499 94.74 93.4499C94.09 94.3499 93.62 95.3399 93.33 96.3999C93.2 96.8799 93.3 97.3799 93.6 97.7699C93.9 98.1599 94.36 98.3899 94.85 98.3899H99.39C99.9 98.3799 100.36 98.1399 100.66 97.7299C100.96 97.3199 101.04 96.7999 100.88 96.3199L99.47 92.0199C99.32 91.5499 98.96 91.1799 98.49 91.0199L98.48 91.0099Z" fill="#891229"/><path d="M100.51 90.3499C100.23 90.7599 100.15 91.2699 100.31 91.7399L101.72 96.0399C101.88 96.5199 102.25 96.8899 102.73 97.0499C103.22 97.2099 103.73 97.1199 104.14 96.8199L107.8 94.1499C108.2 93.8599 108.44 93.3999 108.45 92.8999C108.46 92.3999 108.24 91.9399 107.85 91.6299C107.75 91.5499 107.64 91.4699 107.53 91.3899C105.95 90.2499 104.11 89.6499 102.18 89.6499C102.03 89.6499 101.88 89.6499 101.73 89.6599C101.24 89.6799 100.79 89.9299 100.51 90.3399V90.3499Z" fill="#891229"/><path d="M104.02 98.8198C104.02 99.3298 104.26 99.7898 104.67 100.09L108.34 102.74C108.74 103.03 109.25 103.11 109.72 102.97C110.2 102.82 110.58 102.47 110.76 101.99C111.52 99.9298 111.51 97.6598 110.74 95.5898C110.57 95.1198 110.19 94.7798 109.71 94.6298C109.23 94.4898 108.73 94.5698 108.33 94.8698L104.67 97.5398C104.26 97.8398 104.02 98.3098 104.02 98.8198Z" fill="#891229"/><path d="M101.73 101.6L100.34 105.91C100.19 106.38 100.26 106.89 100.55 107.3C100.84 107.71 101.28 107.95 101.78 107.97C103.99 108.05 106.15 107.35 107.87 105.99C108.27 105.67 108.49 105.2 108.47 104.7C108.46 104.21 108.22 103.76 107.82 103.47L104.15 100.82C103.88 100.62 103.56 100.52 103.23 100.52C103.06 100.52 102.9 100.55 102.73 100.6C102.25 100.76 101.88 101.13 101.72 101.61L101.73 101.6Z" fill="#891229"/><path d="M93.59 99.91C93.29 100.31 93.2 100.8 93.33 101.28C93.89 103.3 95.09 105.01 96.79 106.24C96.9 106.32 97.01 106.39 97.12 106.47C97.54 106.74 98.04 106.81 98.52 106.64C98.99 106.47 99.35 106.11 99.5 105.64L100.89 101.33C101.05 100.85 100.96 100.33 100.66 99.92C100.36 99.51 99.9 99.27 99.39 99.27H94.86C94.36 99.28 93.9 99.51 93.6 99.91H93.59Z" fill="#891229"/><path d="M99.18 64.6002C96.9 62.9602 93.72 63.4702 92.08 65.7402C90.44 68.0102 90.95 71.1902 93.22 72.8402C95.5 74.4802 98.68 73.9702 100.32 71.7002C101.97 69.4302 101.45 66.2502 99.18 64.6002ZM94.61 70.9202C93.39 70.0402 93.12 68.3402 94 67.1302C94.88 65.9202 96.58 65.6402 97.8 66.5202C99.02 67.4002 99.29 69.1002 98.41 70.3102C97.53 71.5202 95.83 71.8002 94.61 70.9202Z" fill="#232144"/><path d="M43.69 96.21C41.92 94.93 39.44 95.33 38.16 97.1C36.88 98.87 37.28 101.34 39.05 102.62C40.82 103.9 43.3 103.5 44.58 101.73C45.86 99.96 45.46 97.49 43.69 96.21ZM40.09 101.19C39.11 100.48 38.89 99.11 39.6 98.14C40.31 97.17 41.68 96.94 42.66 97.65C43.64 98.36 43.86 99.73 43.15 100.7C42.44 101.67 41.07 101.9 40.09 101.19Z" fill="#232144"/><path d="M96.33 105.22C94.56 103.94 92.08 104.34 90.8 106.11C89.52 107.88 89.92 110.35 91.69 111.63C93.46 112.91 95.94 112.51 97.22 110.74C98.5 108.97 98.1 106.5 96.33 105.22ZM92.73 110.2C91.75 109.49 91.53 108.12 92.24 107.15C92.95 106.18 94.32 105.95 95.3 106.66C96.28 107.37 96.5 108.74 95.79 109.71C95.08 110.68 93.71 110.91 92.73 110.2Z" fill="#232144"/></svg>