<?xml version="1.0" encoding="UTF-8"?><svg id="Design" xmlns="http://www.w3.org/2000/svg" viewBox="0 0 160 160"><defs><style>.cls-1{fill:#000;}.cls-1,.cls-2,.cls-3,.cls-4,.cls-5,.cls-6,.cls-7,.cls-8,.cls-9,.cls-10{stroke-width:0px;}.cls-2{fill:#8da8dc;}.cls-3{fill:#ca542a;}.cls-4{fill:#d0def2;}.cls-5{fill:#232144;}.cls-6{fill:#e3944f;}.cls-7{fill:#f0a86b;}.cls-8{fill:#faa332;}.cls-9{fill:#e73245;}.cls-10{fill:#f0a86b;}</style></defs><path class="cls-4" d="M144,144l-8.98-46.35c-.87-8.8-7.95-15.97-17.08-16.66-.37-.03-1.7-.04-1.7-.04-.09,0-.17,0-.26,0H43.96s-.02,0-.03,0l-1.38.03c-.17,0-.33,0-.5.01-9.13.69-16.2,7.86-17.08,16.66l-8.98,46.35,28.25-.1v.1h73.66v-.09s26.09.09,26.09.09Z"/><path class="cls-6" d="M65.62,79.43v-18.76l28.95.04v18.72c0,7.99-6.48,14.46-14.48,14.46s-14.48-6.48-14.48-14.46"/><polygon class="cls-5" points="87.92 95.92 80.05 105.68 71.97 95.68 80.06 93.06 87.92 95.92"/><polygon class="cls-5" points="80.08 93.23 68.53 144 91.68 144 80.08 93.23"/><polygon class="cls-2" points="94.57 78.28 80.06 93.06 90.22 103.96 99.1 80.93 94.57 78.28"/><polygon class="cls-5" points="102.5 80.96 106.25 87.41 122.92 87.45 122.92 80.96 102.5 80.96"/><polygon class="cls-2" points="65.62 78.28 80.05 93.06 69.89 103.96 61.02 80.93 65.62 78.28"/><polygon class="cls-5" points="57.66 80.95 53.91 87.39 37.24 87.44 37.24 80.96 57.66 80.95"/><path class="cls-8" d="M107.1,103.23l-6.68,2.71v8.25s-.02,4,6.68,6.45c6.7-2.45,6.68-6.45,6.68-6.45v-8.25l-6.68-2.71Z"/><circle class="cls-10" cx="99.18" cy="50.49" r="5.65" transform="translate(47.14 148.86) rotate(-89.1)"/><path class="cls-2" d="M98.82,52.9c-3.88-.08-7.1,2.96-7.18,6.79-.08,3.83,3,7,6.88,7.08,3.88.08,7.1-2.96,7.18-6.79.08-3.83-3-7-6.88-7.08M98.57,64.96c-2.87-.06-5.14-2.4-5.08-5.23.06-2.83,2.43-5.07,5.3-5.01,2.87.06,5.14,2.4,5.08,5.23-.06,2.83-2.43,5.07-5.3,5.01"/><circle class="cls-10" cx="60.84" cy="50.38" r="5.65" transform="translate(9.51 110.43) rotate(-89.1)"/><path class="cls-2" d="M61.1,52.86c-3.88.06-6.98,3.22-6.92,7.05.06,3.83,3.26,6.88,7.15,6.82,3.88-.06,6.98-3.22,6.92-7.05-.06-3.83-3.26-6.88-7.15-6.82M61.3,64.92c-2.87.05-5.23-2.21-5.28-5.04-.05-2.83,2.24-5.16,5.11-5.2,2.87-.05,5.23,2.21,5.28,5.04.05,2.83-2.24,5.16-5.11,5.2"/><path class="cls-10" d="M76.69,18.14l7.16.02c8.24.02,14.91,6.71,14.89,14.94l-.06,26.09c-.02,8.24-6.72,14.9-14.96,14.88l-7.16-.02c-8.24-.02-14.91-6.71-14.89-14.94l.06-26.09c.02-8.24,6.72-14.9,14.96-14.88Z"/><path class="cls-3" d="M61.7,49.47l.02-7.73c.02-8.33,6.71-15.07,14.94-15.05h2.48s2.21.01,2.21.01h2.48c8.23.02,14.89,6.79,14.87,15.12l-.02,7.73h2.92s.04-17.15.04-17.15c.02-9.03-7.28-16.36-16.31-16.38l-10.14-.02c-9.03-.02-16.36,7.28-16.38,16.31l-.04,17.16h2.92Z"/><rect class="cls-7" x="88.17" y="25.74" width="7.52" height="3.06" transform="translate(32.53 102.55) rotate(-68.25)"/><path class="cls-3" d="M82.96,24.98l-12.32-.03c-6.33-.01-11.46,5.1-11.48,11.42v1.45s12.32.03,12.32.03c6.33.01,11.46-5.1,11.48-11.42v-1.45Z"/><path class="cls-9" d="M84.87,61.87c-.47-1.21-2.26-.33-2.26-.33l-4.19,1.63c-.05-.25,9.4,6.7,12.09-4.69l-4.19,1.63s-1.92.56-1.45,1.77h0Z"/><polygon class="cls-5" points="101.63 43.59 88.39 43.6 88.39 41.67 101.63 41.7 101.63 43.59"/><polygon class="cls-5" points="58.79 43.51 72.32 43.58 72.33 41.63 58.8 41.6 58.79 43.51"/><path class="cls-5" d="M85.8,49.39h-2.02c0-1.97-1.59-3.57-3.56-3.57s-3.57,1.59-3.57,3.55h-2.02c0-3.08,2.52-5.57,5.59-5.57s5.57,2.51,5.57,5.59Z"/><path class="cls-5" d="M95.94,41.68v6.65c0,2.72-2.21,4.92-4.93,4.92h-4.44c-2.72,0-4.93-2.2-4.93-4.92v-1.73c0-2.72,2.21-4.92,4.93-4.92h9.37Z"/><path class="cls-5" d="M70.81,40.29h6.65v9.37c0,2.72-2.21,4.92-4.92,4.92h-1.73c-2.72,0-4.92-2.21-4.92-4.92v-4.45c0-2.72,2.21-4.92,4.92-4.92Z" transform="translate(23.92 118.9) rotate(-89.75)"/><path class="cls-1" d="M89.05,37.43h.21c2.17.02,4.2,1.1,5.49,2.93h0l-11.23-.08h0c1.32-1.82,3.36-2.88,5.53-2.86h0Z"/><path class="cls-1" d="M71.97,34.07l-.2-.06c-2.06-.67-4.33-.27-6.13,1.06h0l10.68,3.45h0c-.69-2.14-2.3-3.78-4.36-4.45h0Z"/><path class="cls-1" d="M80.19,57.37c-.85,0-1.53-.42-2.12-.79-.98-.61-1.57-.98-2.74.2l-.77-.77c1.79-1.79,3.06-.99,4.08-.35.52.32,1,.63,1.54.63s1.02-.28,1.5-.58c.97-.6,2.18-1.34,4.19.33l-.69.83c-1.41-1.17-2.01-.8-2.93-.24-.57.35-1.21.74-2.07.74"/></svg>