<?xml version="1.0" encoding="utf-8"?><!--Generator: Adobe Illustrator 27.8.0, SVG Export Plug-In . SVG Version: 6.00 Build 0)--><svg version="1.1" xmlns="http://www.w3.org/2000/svg" xmlns:xlink="http://www.w3.org/1999/xlink" x="0px" y="0px" viewBox="0 0 160 160" style="enable-background:new 0 0 160 160;" xml:space="preserve"><style type="text/css">.st0{fill:#DBCBC4;}
	.st1{fill:#E6E3D9;}
	.st2{fill:#D7A232;}
	.st3{fill:#E0B048;}
	.st4{fill:#F3C361;}
	.st5{fill:#C89920;}
	.st6{fill:#EFB84A;}
	.st7{fill:#FFC85C;}
	.st8{fill:#427AFF;}</style><g id="Boxen"><path class="st0" d="M90.41,65.37h5.36c0.73,0,1.32-0.59,1.32-1.32v-11.9h0.01l-2.52-9.26h-2.97l-2.52,9.26h0.01v11.9
		C89.09,64.78,89.68,65.37,90.41,65.37z"/><rect x="91.29" y="42.32" class="st1" width="3.6" height="1.2"/><path class="st0" d="M99.34,65.37h5.36c0.73,0,1.32-0.59,1.32-1.32v-11.9h0.01l-2.52-9.26h-2.97l-2.52,9.26h0.01v11.9
		C98.02,64.78,98.61,65.37,99.34,65.37z"/><rect x="100.21" y="42.32" class="st1" width="3.6" height="1.2"/><polygon class="st2" points="20.43,96.32 20.43,102.52 27.07,102.52 27.07,98.01 45.97,98.01 45.97,102.52 51.99,102.52 
		51.99,98.01 70.89,98.01 70.89,102.52 77.53,102.52 77.53,96.32 	"/><polygon class="st2" points="82.82,31.21 82.82,37.4 89.47,37.4 89.47,32.89 108.37,32.89 108.37,37.4 114.39,37.4 114.39,32.89 
		133.28,32.89 133.28,37.4 139.93,37.4 139.93,31.21 	"/><rect x="29.55" y="107.07" class="st3" width="34.12" height="28.01"/><rect x="37.2" y="114.53" transform="matrix(-1.836970e-16 1 -1 -1.836970e-16 163.5198 69.8724)" class="st4" width="19.26" height="4.34"/><rect x="112.79" y="49.17" class="st5" width="29.18" height="20.8"/><polygon class="st4" points="140.14,65.06 138.6,62.38 137.06,65.06 137.72,65.06 137.72,67.57 139.47,67.57 139.47,65.06 	"/><polygon class="st4" points="134.69,62.38 133.15,65.06 133.82,65.06 133.82,67.57 135.57,67.57 135.57,65.06 136.24,65.06 	"/><rect x="23.08" y="78.9" class="st4" width="24.41" height="17.43"/><rect x="49.67" y="78.9" class="st6" width="24.41" height="17.43"/><path class="st1" d="M85.97,69.96h5.36c0.73,0,1.32-0.59,1.32-1.32v-11.9h0.01l-2.52-9.26h-2.97l-2.52,9.26h0.01v11.9
		C84.65,69.37,85.24,69.96,85.97,69.96z"/><rect x="86.84" y="46.91" class="st0" width="3.6" height="1.2"/><path class="st1" d="M94.89,69.96h5.36c0.73,0,1.32-0.59,1.32-1.32v-11.9h0.01l-2.52-9.26h-2.97l-2.52,9.26h0.01v11.9
		C93.58,69.37,94.17,69.96,94.89,69.96z"/><rect x="95.77" y="46.91" class="st0" width="3.6" height="1.2"/><path class="st1" d="M103.82,69.96h5.36c0.73,0,1.32-0.59,1.32-1.32v-11.9h0.01l-2.52-9.26h-2.97l-2.52,9.26h0.01v11.9
		C102.5,69.37,103.09,69.96,103.82,69.96z"/><rect x="104.7" y="46.91" class="st0" width="3.6" height="1.2"/><rect x="23.08" y="86.09" class="st3" width="24.41" height="3.42"/><rect x="21.09" y="19.97" class="st4" width="24.41" height="17.43"/><rect x="21.09" y="27.16" class="st3" width="24.41" height="3.42"/><rect x="58.3" y="80.92" transform="matrix(-1.836970e-16 1 -1 -1.836970e-16 144.6681 20.5954)" class="st2" width="7.46" height="3.41"/><rect x="50.95" y="19.97" class="st6" width="24.41" height="17.43"/><rect x="59.59" y="21.99" transform="matrix(-1.836970e-16 1 -1 -1.836970e-16 87.0227 -39.6198)" class="st2" width="7.46" height="3.41"/><rect x="95.95" y="74.54" class="st3" width="34.12" height="27.98"/><rect x="103.37" y="82.01" transform="matrix(-1.836970e-16 1 -1 -1.836970e-16 197.1914 -28.8328)" class="st4" width="19.29" height="4.34"/><path class="st1" d="M21.16,69.97h6.36c0.86,0,1.56-0.7,1.56-1.57V54.27h0.01l-3-11h-3.52l-3,11h0.01v14.13
		C19.6,69.27,20.3,69.97,21.16,69.97z"/><rect x="22.21" y="42.59" class="st0" width="4.28" height="1.43"/><path class="st1" d="M31.39,69.97h6.36c0.86,0,1.56-0.7,1.56-1.57V54.27h0.01l-3-11h-3.52l-3,11h0.01v14.13
		C29.82,69.27,30.52,69.97,31.39,69.97z"/><rect x="32.43" y="42.59" class="st0" width="4.28" height="1.43"/><path class="st1" d="M41.86,69.97h6.36c0.86,0,1.56-0.7,1.56-1.57V54.27h0.01l-3-11h-3.52l-3,11h0.01v14.13
		C40.3,69.27,41,69.97,41.86,69.97z"/><rect x="42.9" y="42.59" class="st0" width="4.28" height="1.43"/><path class="st1" d="M50.59,62.02v6.38c0,0.87,0.7,1.57,1.56,1.57h14.1v0.01l10.98-3v-3.53l-10.98-3v0.01h-14.1
		C51.29,60.45,50.59,61.15,50.59,62.02z"/><rect x="75.05" y="64.49" transform="matrix(-1.836970e-16 1 -1 -1.836970e-16 142.4003 -11.9894)" class="st0" width="4.29" height="1.42"/><rect x="83.79" y="108.09" transform="matrix(-1 -1.224647e-16 1.224647e-16 -1 205.371 243.1661)" class="st2" width="37.8" height="26.98"/><polygon class="st4" points="89.23,114.46 89.23,111.2 86.96,111.2 86.96,114.46 86.09,114.46 88.09,117.93 90.09,114.46 	"/><rect x="115.54" y="125.27" transform="matrix(-1 -1.224647e-16 1.224647e-16 -1 237.121 254.796)" class="st7" width="6.05" height="4.26"/><path class="st0" d="M130.26,135.08h6.36c0.86,0,1.56-0.7,1.56-1.57v-14.13h0.01l-3-11h-3.52l-3,11h0.01v14.13
		C128.7,134.37,129.4,135.08,130.26,135.08z"/><rect x="131.3" y="107.7" class="st1" width="4.28" height="1.43"/><path class="st1" d="M50.59,51.26v6.38c0,0.87,0.7,1.57,1.56,1.57h14.1v0.01l10.98-3v-3.53l-10.98-3v0.01h-14.1
		C51.29,49.7,50.59,50.4,50.59,51.26z"/><rect x="75.05" y="53.74" transform="matrix(-1.836970e-16 1 -1 -1.836970e-16 131.6474 -22.7423)" class="st0" width="4.29" height="1.42"/><rect x="83.63" y="54.78" class="st3" width="27.71" height="15.19"/><rect x="82.82" y="16" class="st4" width="27.71" height="15.21"/><rect x="112.22" y="16" class="st4" width="27.71" height="15.21"/></g><g id="Regal"><path class="st8" d="M141.96,16v21.4H81.07V16h-2.04v21.4h-61V16H16v128h2.04v-6.88h61V144h2.04v-6.88h60.89V144H144V16H141.96z
		 M79.04,135.08h-61v-30.52h61V135.08z M79.04,102.52h-61V72h61V102.52z M79.04,69.96h-61V39.44h61V69.96z M81.07,39.44h60.89v30.52
		H81.07V39.44z M81.07,72h60.89v30.52H81.07V72z M81.07,135.08v-30.52h60.89v30.52H81.07z"/></g></svg>