<svg viewBox="0 0 160 160" fill="none" xmlns="http://www.w3.org/2000/svg"><path fill-rule="evenodd" clip-rule="evenodd" d="M140.416 95.2228H16.9266C16.4146 95.2228 15.9996 94.8086 15.9996 94.2976V90.8012C15.9996 90.2902 16.4146 89.876 16.9266 89.876H140.416C140.928 89.876 141.343 90.2902 141.343 90.8012V94.2976C141.343 94.8086 140.928 95.2228 140.416 95.2228Z" fill="#D8CBC5"/><path fill-rule="evenodd" clip-rule="evenodd" d="M129.335 90.9458H27.918V24.6745C27.918 23.382 28.968 22.334 30.263 22.334H126.99C128.285 22.334 129.335 23.382 129.335 24.6745V90.9458Z" fill="#D8CBC5"/><path fill-rule="evenodd" clip-rule="evenodd" d="M30.418 89.8758H126.835V26.7266H30.418V89.8758Z" fill="#E6E3DA"/><path fill-rule="evenodd" clip-rule="evenodd" d="M50.0559 61.8481H59.1759V53.973C59.1759 53.5069 59.4309 53.423 59.8549 53.423H61.8909C62.3149 53.423 62.5699 53.5069 62.5699 53.973V61.8481H65.8779C66.3449 61.8481 66.4299 62.1026 66.4299 62.5258V64.0499C66.4299 64.4731 66.3449 64.7276 65.8779 64.7276H62.5699V72.2633C62.5699 72.7294 62.3149 72.8143 61.8909 72.8143H59.8549C59.4309 72.8143 59.1759 72.7294 59.1759 72.2633V64.7276H46.7469C46.2809 64.7276 46.1959 64.4731 46.1959 64.0499V63.457C46.1959 62.399 46.3649 61.8481 46.7899 60.9168L54.8069 42.88C54.9759 42.4988 55.1459 42.3301 55.5699 42.3301H58.0309C58.4549 42.3301 58.6249 42.5417 58.4549 42.923L50.0559 61.8481Z" fill="#E73245"/><path fill-rule="evenodd" clip-rule="evenodd" d="M87.2141 57.0216C87.2141 49.0188 84.88 44.7009 80.639 44.7009C76.397 44.7009 73.725 49.1884 73.725 57.9528C73.725 65.9546 75.93 70.4431 80.257 70.4431C84.627 70.4431 87.2141 65.7011 87.2141 57.0216ZM70.373 58.2493C70.373 47.6224 74.276 41.9062 80.809 41.9062C86.747 41.9062 90.523 46.4786 90.523 56.8519C90.523 67.3101 86.747 73.2368 80.087 73.2368C74.106 73.2368 70.373 68.411 70.373 58.2493Z" fill="#E73245"/><path fill-rule="evenodd" clip-rule="evenodd" d="M97.8172 61.8481H106.937V53.973C106.937 53.5069 107.192 53.423 107.616 53.423H109.652C110.076 53.423 110.331 53.5069 110.331 53.973V61.8481H113.64C114.106 61.8481 114.191 62.1026 114.191 62.5258V64.0499C114.191 64.4731 114.106 64.7276 113.64 64.7276H110.331V72.2633C110.331 72.7294 110.076 72.8143 109.652 72.8143H107.616C107.192 72.8143 106.937 72.7294 106.937 72.2633V64.7276H94.5082C94.0422 64.7276 93.9572 64.4731 93.9572 64.0499V63.457C93.9572 62.399 94.1262 61.8481 94.5512 60.9168L102.569 42.88C102.738 42.4988 102.908 42.3301 103.332 42.3301H105.792C106.216 42.3301 106.386 42.5417 106.216 42.923L97.8172 61.8481Z" fill="#E73245"/><path fill-rule="evenodd" clip-rule="evenodd" d="M143.989 90.1049C143.517 69.2874 126.463 52.5571 105.494 52.5571C92.3857 52.5571 80.8087 59.0957 73.8547 69.0818L66.9868 61.0071V68.9211C63.7887 69.1626 60.8097 70.3494 58.2477 72.2478L52.1628 65.0933V79.537C51.3638 81.091 50.7238 82.7708 50.2658 84.5454H23.7238C21.9398 84.5454 20.4948 85.9877 20.4948 87.7683C20.4948 89.548 21.9398 90.9912 23.7238 90.9912H49.4567H66.9868H74.6698V100.138C74.6698 101.917 76.1148 103.361 77.8988 103.361C79.6818 103.361 81.1278 101.917 81.1278 100.138V90.9912H86.9447H137.542V140.111C137.542 141.892 138.988 143.334 140.771 143.334C142.555 143.334 144 141.892 144 140.111V90.9912V90.3275C144 90.2516 143.994 90.1788 143.989 90.1049Z" fill="#232144"/><path fill-rule="evenodd" clip-rule="evenodd" d="M61.8847 79.9342C61.8847 79.9342 60.5537 80.9004 59.0417 80.7526C57.5307 80.6059 56.4117 79.4012 56.4117 79.4012C56.4117 79.4012 57.7427 78.435 59.2537 78.5827C60.7657 78.7295 61.8847 79.9342 61.8847 79.9342Z" fill="white"/><path fill-rule="evenodd" clip-rule="evenodd" d="M59.2822 78.2944C59.2822 78.2944 59.7692 78.9622 59.6952 79.7207C59.6202 80.4793 59.0142 81.0412 59.0142 81.0412C59.0142 81.0412 58.5272 80.3735 58.6012 79.6149C58.6752 78.8564 59.2822 78.2944 59.2822 78.2944Z" fill="#232144"/><path fill-rule="evenodd" clip-rule="evenodd" d="M68.9862 75.1632C68.9862 75.1632 68.7642 76.7911 67.6122 77.7782C66.4602 78.7663 64.8142 78.7394 64.8142 78.7394C64.8142 78.7394 65.0362 77.1115 66.1882 76.1243C67.3402 75.1362 68.9862 75.1632 68.9862 75.1632Z" fill="white"/><path fill-rule="evenodd" clip-rule="evenodd" d="M65.9994 75.9043C65.9994 75.9043 66.8194 76.0161 67.3174 76.594C67.8144 77.1719 67.8014 77.9983 67.8014 77.9983C67.8014 77.9983 66.9814 77.8865 66.4834 77.3086C65.9864 76.7297 65.9994 75.9043 65.9994 75.9043Z" fill="#232144"/></svg>