<svg viewBox="0 0 160 160" fill="none" xmlns="http://www.w3.org/2000/svg"><path fill-rule="evenodd" clip-rule="evenodd" d="M88.1136 25.6357H71.886V34.4387H75.6299V48.1217H84.3697V34.4387H88.1136V25.6357Z" fill="#232144"/><path fill-rule="evenodd" clip-rule="evenodd" d="M80.0005 139.066C55.1306 139.066 34.8983 118.687 34.8983 93.6386C34.8983 68.5906 55.1306 48.2116 80.0005 48.2116C104.869 48.2116 125.102 68.5906 125.102 93.6386C125.102 118.687 104.869 139.066 80.0005 139.066ZM112.476 55.3786L116.724 49.0606L103.289 39.8936L98.5857 46.8866C92.8375 44.5606 86.5648 43.2766 80.0005 43.2766C73.2481 43.2766 66.8062 44.6346 60.9246 47.0896L56.085 39.8936L42.6499 49.0606L47.1303 55.7216C36.6379 64.9606 30 78.5326 30 93.6386C30 121.408 52.4297 144 80.0005 144C107.57 144 130 121.408 130 93.6386C130 78.3436 123.195 64.6216 112.476 55.3786Z" fill="#232144"/><path fill-rule="evenodd" clip-rule="evenodd" d="M79.9998 55.1478C58.9276 55.1478 41.7844 72.4148 41.7844 93.6388C41.7844 114.863 58.9276 132.13 79.9998 132.13C101.072 132.13 118.214 114.863 118.214 93.6388C118.214 72.4148 101.072 55.1478 79.9998 55.1478ZM79.9998 133.771C58.03 133.771 40.1553 115.768 40.1553 93.6388C40.1553 71.5098 58.03 53.5068 79.9998 53.5068C101.97 53.5068 119.844 71.5098 119.844 93.6388C119.844 115.768 101.97 133.771 79.9998 133.771Z" fill="#232144"/><path fill-rule="evenodd" clip-rule="evenodd" d="M79.9999 17.641C73.1201 17.641 67.5231 22.448 67.5231 28.357C67.5231 34.266 73.1201 39.073 79.9999 39.073C86.8797 39.073 92.4766 34.266 92.4766 28.357C92.4766 22.448 86.8797 17.641 79.9999 17.641ZM79.9999 40.714C72.2215 40.714 65.894 35.171 65.894 28.357C65.894 21.543 72.2215 16 79.9999 16C87.7783 16 94.1057 21.543 94.1057 28.357C94.1057 35.171 87.7783 40.714 79.9999 40.714Z" fill="#232144"/><path fill-rule="evenodd" clip-rule="evenodd" d="M74.8714 93.6387C74.8714 90.7857 77.1673 88.4727 79.9996 88.4727C82.8319 88.4727 85.1279 90.7857 85.1279 93.6387C85.1279 96.4917 82.8319 98.8047 79.9996 98.8047C77.1673 98.8047 74.8714 96.4917 74.8714 93.6387Z" fill="#FF6200"/><path fill-rule="evenodd" clip-rule="evenodd" d="M99.4392 98.0997L79.2278 94.9437L63.7983 67.1627L65.6305 66.1357L80.5603 93.0187L99.7606 96.0167L99.4392 98.0997Z" fill="#FF6200"/></svg>