<svg viewBox="0 0 160 160" fill="none" xmlns="http://www.w3.org/2000/svg"><path fill-rule="evenodd" clip-rule="evenodd" d="M144 96.2627V85.7647C144 79.2999 139.797 73.7702 134.038 72.6572L118.324 69.6211C116.474 69.2635 114.704 68.5132 113.113 67.4102L100.197 58.4568C95.9963 55.5445 91.1373 54 86.1793 54H34.9023C32.4183 54 30.0223 55.016 28.1763 56.8543L18.9553 66.0305C17.0743 67.9018 16.0003 70.5682 16.0003 73.3666V89.3623C16.0003 94.3346 19.5093 98.3647 23.8373 98.3647H142.099C143.149 98.3647 144 97.4236 144 96.2627Z" fill="#F7E5CD"/><path fill-rule="evenodd" clip-rule="evenodd" d="M144 95.0395V90.8105H143.998C142.119 90.8105 140.595 92.3331 140.595 94.2103V95.0395H144Z" fill="#232144"/><path fill-rule="evenodd" clip-rule="evenodd" d="M106.361 95.0378C106.361 88.4311 111.726 83.0762 118.345 83.0762C124.964 83.0762 130.329 88.4311 130.329 95.0378C130.329 101.644 124.964 106.999 118.345 106.999C111.726 106.999 106.361 101.644 106.361 95.0378Z" fill="#232144"/><path fill-rule="evenodd" clip-rule="evenodd" d="M111.066 95.0385C111.066 91.0263 114.325 87.7734 118.345 87.7734C122.365 87.7734 125.624 91.0263 125.624 95.0385C125.624 99.0507 122.365 102.304 118.345 102.304C114.325 102.304 111.066 99.0507 111.066 95.0385Z" fill="#F7E5CD"/><path fill-rule="evenodd" clip-rule="evenodd" d="M114.154 95.0395C114.154 92.7287 116.031 90.8555 118.346 90.8555C120.661 90.8555 122.538 92.7287 122.538 95.0395C122.538 97.3503 120.661 99.2235 118.346 99.2235C116.031 99.2235 114.154 97.3503 114.154 95.0395Z" fill="#232144"/><path fill-rule="evenodd" clip-rule="evenodd" d="M29.9737 95.0378C29.9737 88.4311 35.3387 83.0762 41.9577 83.0762C48.5767 83.0762 53.9417 88.4311 53.9417 95.0378C53.9417 101.644 48.5767 106.999 41.9577 106.999C35.3387 106.999 29.9737 101.644 29.9737 95.0378Z" fill="#232144"/><path fill-rule="evenodd" clip-rule="evenodd" d="M34.6788 95.0385C34.6788 91.0263 37.9378 87.7734 41.9578 87.7734C45.9778 87.7734 49.2368 91.0263 49.2368 95.0385C49.2368 99.0507 45.9778 102.304 41.9578 102.304C37.9378 102.304 34.6788 99.0507 34.6788 95.0385Z" fill="#F7E5CD"/><path fill-rule="evenodd" clip-rule="evenodd" d="M37.7659 95.0395C37.7659 92.7287 39.6429 90.8555 41.9579 90.8555C44.2729 90.8555 46.1499 92.7287 46.1499 95.0395C46.1499 97.3503 44.2729 99.2235 41.9579 99.2235C39.6429 99.2235 37.7659 97.3503 37.7659 95.0395Z" fill="#232144"/><path fill-rule="evenodd" clip-rule="evenodd" d="M140.696 82.4748V80.3058C140.696 77.1868 138.165 74.6582 135.043 74.6582H129.69V76.8271C129.69 79.9462 132.221 82.4748 135.343 82.4748H140.696Z" fill="#232144"/><path fill-rule="evenodd" clip-rule="evenodd" d="M80.3763 75.982H87.9963V74.8711H80.3763V75.982Z" fill="#232144"/><path fill-rule="evenodd" clip-rule="evenodd" d="M45.2423 75.982H52.8623V74.8711H45.2423V75.982Z" fill="#232144"/><path fill-rule="evenodd" clip-rule="evenodd" d="M25.782 74.8711H16V82.2651H17.302C20.478 82.2651 23.353 80.3908 24.63 77.4886L25.782 74.8711Z" fill="#232144"/><path fill-rule="evenodd" clip-rule="evenodd" d="M111.689 69.9828L89.1356 55.6814C87.4076 54.5854 85.3716 54 83.2876 54H53.1156C45.3606 54 38.3636 58.6016 35.3676 65.6709L33.3836 70.3544L111.689 69.9828Z" fill="#232144"/><path fill-rule="evenodd" clip-rule="evenodd" d="M34.4075 54H39.0945L29.2795 65.1744C26.1555 68.4802 21.8045 70.3544 17.2515 70.3544L16.4145 70.3534C16.8075 69.0487 17.6555 67.2943 18.7755 66.1764C21.9235 63.0344 25.5165 59.3469 28.5635 56.3747C30.1265 54.8512 32.2235 54 34.4075 54Z" fill="#232144"/><path fill-rule="evenodd" clip-rule="evenodd" d="M71.9133 72.2656H75.2993V54H71.9133V72.2656Z" fill="#F7E5CD"/></svg>