<svg viewBox="0 0 160 160" fill="none" xmlns="http://www.w3.org/2000/svg"><path fill-rule="evenodd" clip-rule="evenodd" d="M64.2599 144H94.7397V16H64.2599V144Z" fill="#E73245"/><path fill-rule="evenodd" clip-rule="evenodd" d="M44.0072 79.1371C44.0072 59.6371 59.8977 43.8301 79.5 43.8301C99.1023 43.8301 114.993 59.6371 114.993 79.1371C114.993 98.6371 99.1023 114.444 79.5 114.444C59.8977 114.444 44.0072 98.6371 44.0072 79.1371Z" fill="white"/><path fill-rule="evenodd" clip-rule="evenodd" d="M79.5 46.8238C61.5877 46.8238 47.0154 61.3208 47.0154 79.1388C47.0154 96.9578 61.5877 111.454 79.5 111.454C97.4123 111.454 111.985 96.9578 111.985 79.1388C111.985 61.3208 97.4123 46.8238 79.5 46.8238ZM79.5 117.439C58.2707 117.439 41 100.258 41 79.1388C41 58.0208 58.2707 40.8398 79.5 40.8398C100.729 40.8398 118 58.0208 118 79.1388C118 100.258 100.729 117.439 79.5 117.439Z" fill="#232144"/><path fill-rule="evenodd" clip-rule="evenodd" d="M78.7358 80.3499L68.0901 62.2759L69.988 61.1699L79.8481 77.9109L92.0958 75.5879L92.5075 77.7379L78.7358 80.3499Z" fill="#FF6200"/><path fill-rule="evenodd" clip-rule="evenodd" d="M78.4005 55.0333H80.6002V50.4453H78.4005V55.0333Z" fill="#F15A24"/><path fill-rule="evenodd" clip-rule="evenodd" d="M78.4005 107.83H80.6002V103.242H78.4005V107.83Z" fill="#F15A24"/><path fill-rule="evenodd" clip-rule="evenodd" d="M103.731 80.231H108.344V78.043H103.731V80.231Z" fill="#FF6200"/><path fill-rule="evenodd" clip-rule="evenodd" d="M50.6561 80.231H55.2683V78.043H50.6561V80.231Z" fill="#F15A24"/></svg>