<svg viewBox="0 0 160 160" fill="none" xmlns="http://www.w3.org/2000/svg"><path fill-rule="evenodd" clip-rule="evenodd" d="M70.7635 53.3963C71.6475 53.3963 72.3635 54.1143 72.3635 55.0003C72.3635 55.8863 71.6475 56.6043 70.7635 56.6043C69.8796 56.6043 69.1635 55.8863 69.1635 55.0003C69.1635 54.1143 69.8796 53.3963 70.7635 53.3963ZM70.7635 47.2253C71.6475 47.2253 72.3635 47.9433 72.3635 48.8293C72.3635 49.7153 71.6475 50.4333 70.7635 50.4333C69.8796 50.4333 69.1635 49.7153 69.1635 48.8293C69.1635 47.9433 69.8796 47.2253 70.7635 47.2253ZM33.7185 32.3523C34.9195 35.6593 38.5675 37.3643 41.8675 36.1613C45.1665 34.9573 48.8155 36.6623 50.0155 39.9703C51.9905 45.4073 52.9995 51.1483 52.9995 56.9343V57.3763H88.3475V57.3383C88.3475 51.3933 89.3845 45.4953 91.4135 39.9083C92.6085 36.6163 96.2395 34.9193 99.5235 36.1173C102.809 37.3153 106.44 35.6183 107.635 32.3263L108.546 29.8173C109.742 26.5252 108.048 22.8852 104.764 21.6862L90.3675 16.4342C87.0835 15.2362 83.4525 16.9332 82.2575 20.2252L80.2735 25.6872C78.7815 29.7993 74.8365 32.5083 70.4735 32.3913C70.4205 32.3893 70.3665 32.3883 70.3125 32.3863C66.2065 32.2363 62.6155 29.5613 61.2105 25.6902L59.2145 20.1942C58.0135 16.8872 54.3655 15.1822 51.0665 16.3862L36.6035 21.6622C33.3035 22.8662 31.6025 26.5232 32.8035 29.8313L33.7185 32.3523Z" fill="#CA542A"/><path d="M103.53 122.83H115.132C129.341 122.83 141.437 112.487 143.643 98.4495C146.396 80.9385 132.858 65.1074 115.132 65.1074H114.487V71.5574H115.032C129.195 71.5574 139.807 84.5325 136.997 98.4145C134.882 108.866 125.695 116.38 115.032 116.38H108.233C106.859 118.673 105.283 120.831 103.53 122.83Z" fill="#F7E5CD"/><path fill-rule="evenodd" clip-rule="evenodd" d="M70.3102 137.884C45.9122 137.884 26.1332 118.105 26.1332 93.7068V59.3837C26.1332 58.2757 27.0322 57.3767 28.1402 57.3767H112.48C113.588 57.3767 114.487 58.2757 114.487 59.3837V93.7068C114.487 118.105 94.7082 137.884 70.3102 137.884Z" fill="#F7E5CD"/><path fill-rule="evenodd" clip-rule="evenodd" d="M16 144H124.212V137.005H16V144Z" fill="#F7E5CD"/><path fill-rule="evenodd" clip-rule="evenodd" d="M62.0428 28.7632C61.8698 28.7632 61.6908 28.8032 61.5058 28.9002C60.8648 29.2352 60.8278 29.9032 60.7948 30.4922C60.7618 31.0742 60.7188 31.4402 60.3868 31.6142C60.0528 31.7852 59.7298 31.6142 59.2338 31.3082C58.7318 31.0002 58.1628 30.6492 57.5218 30.9842C56.8798 31.3192 56.8428 31.9872 56.8108 32.5762C56.7778 33.1582 56.7348 33.5242 56.4028 33.6982C56.0688 33.8712 55.7438 33.6982 55.2478 33.3932C54.7448 33.0842 54.1738 32.7342 53.5348 33.0692C52.8938 33.4052 52.8558 34.0722 52.8238 34.6612C52.7908 35.2442 52.7468 35.6102 52.4138 35.7842C52.0838 35.9562 51.7558 35.7862 51.2588 35.4802C50.7548 35.1712 50.1858 34.8222 49.5428 35.1572C48.9018 35.4932 48.8638 36.1612 48.8308 36.7502C48.8048 37.1972 48.7698 37.5152 48.6068 37.7182C48.7378 37.8542 48.8628 37.9972 48.9828 38.1462C49.3328 37.7842 49.3688 37.2592 49.3958 36.7822C49.4288 36.1992 49.4728 35.8332 49.8048 35.6582C50.1388 35.4842 50.4648 35.6572 50.9618 35.9622C51.4658 36.2712 52.0368 36.6222 52.6768 36.2852C53.3178 35.9502 53.3558 35.2822 53.3888 34.6932C53.4208 34.1112 53.4648 33.7442 53.7968 33.5712C54.1298 33.3972 54.4548 33.5712 54.9508 33.8752C55.4548 34.1852 56.0258 34.5362 56.6648 34.1992C57.3058 33.8652 57.3428 33.1972 57.3758 32.6082C57.4078 32.0252 57.4518 31.6592 57.7838 31.4852C58.1158 31.3122 58.4408 31.4862 58.9368 31.7902C59.4388 32.1002 60.0108 32.4502 60.6488 32.1152C61.2898 31.7802 61.3268 31.1132 61.3598 30.5232C61.3928 29.9412 61.4358 29.5752 61.7678 29.4012C62.0998 29.2282 62.4258 29.4002 62.9228 29.7062C63.3548 29.9712 63.8368 30.2652 64.3688 30.1312C64.1018 29.9132 63.8418 29.6852 63.5978 29.4412C63.4818 29.3802 63.3578 29.3092 63.2188 29.2242C62.8608 29.0042 62.4698 28.7632 62.0428 28.7632Z" fill="white"/><path fill-rule="evenodd" clip-rule="evenodd" d="M79.1524 29.4898C79.1684 30.0498 79.1894 30.7458 79.8184 31.0928C80.4464 31.4388 81.0464 31.0848 81.5284 30.7998C82.0284 30.5038 82.3554 30.3388 82.6784 30.5158C83.0004 30.6938 83.0344 31.0588 83.0504 31.6388C83.0664 32.1988 83.0864 32.8948 83.7154 33.2418C84.3444 33.5898 84.9444 33.2338 85.4264 32.9488C85.9264 32.6528 86.2534 32.4868 86.5754 32.6648C86.8984 32.8418 86.9324 33.2078 86.9494 33.7878C86.9654 34.3478 86.9854 35.0448 87.6154 35.3918C88.2444 35.7408 88.8444 35.3848 89.3264 35.0988C89.8264 34.8038 90.1534 34.6368 90.4764 34.8148C90.7994 34.9928 90.8344 35.3588 90.8514 35.9398C90.8694 36.5298 90.8894 37.1968 91.5184 37.5438C92.1484 37.8908 92.7234 37.5518 93.2314 37.2528C93.2634 37.2338 93.2894 37.2208 93.3204 37.2028C93.6914 36.8948 94.0934 36.6308 94.5214 36.4158C93.9434 36.1818 93.4144 36.4878 92.9434 36.7658C92.4424 37.0598 92.1144 37.2268 91.7924 37.0488C91.4684 36.8708 91.4344 36.5048 91.4174 35.9238C91.3994 35.3338 91.3794 34.6668 90.7494 34.3198C90.1204 33.9738 89.5454 34.3128 89.0384 34.6118C88.5384 34.9078 88.2114 35.0738 87.8884 34.8958C87.5654 34.7188 87.5324 34.3528 87.5144 33.7718C87.4984 33.2118 87.4784 32.5158 86.8494 32.1688C86.2204 31.8228 85.6204 32.1768 85.1384 32.4618C84.6384 32.7568 84.3114 32.9218 83.9884 32.7458C83.6664 32.5678 83.6334 32.2028 83.6164 31.6228C83.6004 31.0638 83.5804 30.3668 82.9514 30.0208C82.3234 29.6728 81.7234 30.0278 81.2414 30.3128C80.7404 30.6078 80.4134 30.7738 80.0914 30.5968C79.7684 30.4198 79.7354 30.0538 79.7184 29.4738C79.7024 28.9398 79.6774 28.2858 79.1304 27.9248C79.0244 28.0808 78.9144 28.2338 78.8004 28.3838C79.0984 28.5668 79.1364 28.9248 79.1524 29.4898Z" fill="white"/></svg>