<?xml version="1.0" encoding="UTF-8"?><svg id="Design" xmlns="http://www.w3.org/2000/svg" viewBox="0 0 160 160"><defs><style>.cls-1{fill:#ff6200;}.cls-1,.cls-2,.cls-3,.cls-4,.cls-5,.cls-6,.cls-7{stroke-width:0px;}.cls-2{fill:#e6e3da;}.cls-3{fill:#8f411f;}.cls-4{fill:#006931;}.cls-5,.cls-6{fill:#232144;}.cls-6{fill-rule:evenodd;}.cls-7{fill:#fff;}</style></defs><path class="cls-3" d="M81.21,119.03l-28.32-.96-.63-52.47c.06-3.31-2.68-6.02-6.05-5.86-3.07.14-5.43,2.78-5.49,5.86l-.93,52.04,3.09,26.38h41.84s-3.5-24.97-3.5-24.97Z"/><path class="cls-3" d="M118.66,45.83h0c-2.15-2.27-5.74-2.36-8.01-.21l-53.39,50.62,7.8,8.22,53.39-50.62c2.27-2.15,2.36-5.74.21-8.01Z"/><rect class="cls-5" x="51.09" y="16" width="52.45" height="107.17" rx="5.48" ry="5.48"/><rect class="cls-2" x="52.88" y="17.87" width="48.83" height="103.38" rx="3.73" ry="3.73"/><path class="cls-6" d="M85.18,22.36h-15.73c-2.48,0-4.49-2.01-4.49-4.49h0v-.77l24.72-.03v.79h0c0,2.48-2.01,4.49-4.49,4.49Z"/><rect class="cls-2" x="70.57" y="18.26" width="13.48" height="1.27"/><rect class="cls-3" x="99.31" y="80.84" width="12.91" height="12.06" rx="6.03" ry="6.03" transform="translate(184.42 -25.13) rotate(85.68)"/><rect class="cls-3" x="97.74" y="66.26" width="12.91" height="12.06" rx="6.03" ry="6.03" transform="translate(168.44 -37.06) rotate(85.68)"/><rect class="cls-3" x="100.35" y="95.82" width="11.33" height="10.58" rx="5.29" ry="5.29" transform="translate(198.86 -12.22) rotate(85.68)"/><circle class="cls-4" cx="77.3" cy="109.05" r="6.92"/><path class="cls-7" d="M78.47,113.12c-.11-.02-.22-.04-.33-.07-.45-.1-.85-.29-1.24-.54-.6-.39-1.1-.88-1.56-1.42-.47-.55-.89-1.13-1.22-1.78-.24-.48-.42-.98-.48-1.52-.06-.6.03-1.17.34-1.7.17-.28.38-.51.64-.7.12-.09.24-.19.36-.29.26-.19.54-.17.76.07.13.14.24.29.34.45.19.3.38.59.48.93.11.35.05.66-.24.9-.15.12-.29.25-.45.35-.34.22-.4.5-.29.87.1.34.3.63.51.92.27.37.56.72.91,1.03.19.17.39.32.65.39.22.06.41,0,.58-.14.17-.15.33-.3.51-.44.29-.23.6-.22.91-.05.1.06.21.12.29.19.32.27.65.53.89.88.2.29.17.56-.09.79-.26.22-.5.46-.81.62-.31.16-.64.26-1,.28-.02,0-.05,0-.07.01h-.41Z"/><path class="cls-1" d="M86.22,76.09h-17.86c-3.29,0-5.95-2.67-5.95-5.95v-17.86c0-3.29,2.67-5.95,5.95-5.95h17.86c3.29,0,5.95,2.67,5.95,5.95v17.86c0,3.29-2.67,5.95-5.95,5.95Z"/></svg>