<svg viewBox="0 0 61 61" fill="none" xmlns="http://www.w3.org/2000/svg"><path d="M43.9043 21.6057H17.6464C15.4844 21.6057 13.7317 23.3583 13.7317 25.5203V53.8324C13.7317 55.9944 15.4844 57.7471 17.6464 57.7471H43.9043C46.0663 57.7471 47.819 55.9944 47.819 53.8324V25.5203C47.819 23.3583 46.0663 21.6057 43.9043 21.6057Z" fill="#E4E5E6"/><path d="M43.9041 26.7074H17.663C17.4817 26.7074 17.3347 26.8544 17.3347 27.0357V34.1327C17.3347 34.314 17.4817 34.461 17.663 34.461H43.9041C44.0854 34.461 44.2324 34.314 44.2324 34.1327V27.0357C44.2324 26.8544 44.0854 26.7074 43.9041 26.7074Z" fill="#828487"/><path d="M24.819 36.7341H18.0925C17.9205 36.7341 17.781 36.8735 17.781 37.0456V40.1857C17.781 40.3578 17.9205 40.4972 18.0925 40.4972H24.819C24.9911 40.4972 25.1305 40.3578 25.1305 40.1857V37.0456C25.1305 36.8735 24.9911 36.7341 24.819 36.7341Z" fill="#BABCBE"/><path d="M34.2057 36.7341H27.4792C27.3072 36.7341 27.1677 36.8735 27.1677 37.0456V40.1857C27.1677 40.3578 27.3072 40.4972 27.4792 40.4972H34.2057C34.3778 40.4972 34.5172 40.3578 34.5172 40.1857V37.0456C34.5172 36.8735 34.3778 36.7341 34.2057 36.7341Z" fill="#BABCBE"/><path d="M43.5927 36.7341H36.8662C36.6941 36.7341 36.5547 36.8735 36.5547 37.0456V40.1857C36.5547 40.3578 36.6941 40.4972 36.8662 40.4972H43.5927C43.7647 40.4972 43.9042 40.3578 43.9042 40.1857V37.0456C43.9042 36.8735 43.7647 36.7341 43.5927 36.7341Z" fill="#BABCBE"/><path d="M24.819 41.3138H18.0925C17.9205 41.3138 17.781 41.4533 17.781 41.6253V44.7655C17.781 44.9375 17.9205 45.077 18.0925 45.077H24.819C24.9911 45.077 25.1305 44.9375 25.1305 44.7655V41.6253C25.1305 41.4533 24.9911 41.3138 24.819 41.3138Z" fill="#BABCBE"/><path d="M34.2057 41.3138H27.4792C27.3072 41.3138 27.1677 41.4533 27.1677 41.6253V44.7655C27.1677 44.9375 27.3072 45.077 27.4792 45.077H34.2057C34.3778 45.077 34.5172 44.9375 34.5172 44.7655V41.6253C34.5172 41.4533 34.3778 41.3138 34.2057 41.3138Z" fill="#BABCBE"/><path d="M43.5927 41.3138H36.8662C36.6941 41.3138 36.5547 41.4533 36.5547 41.6253V44.7655C36.5547 44.9375 36.6941 45.077 36.8662 45.077H43.5927C43.7647 45.077 43.9042 44.9375 43.9042 44.7655V41.6253C43.9042 41.4533 43.7647 41.3138 43.5927 41.3138Z" fill="#BABCBE"/><path d="M24.819 45.9862H18.0925C17.9205 45.9862 17.781 46.1257 17.781 46.2977V49.4379C17.781 49.6099 17.9205 49.7494 18.0925 49.7494H24.819C24.9911 49.7494 25.1305 49.6099 25.1305 49.4379V46.2977C25.1305 46.1257 24.9911 45.9862 24.819 45.9862Z" fill="#BABCBE"/><path d="M34.2057 45.9862H27.4792C27.3072 45.9862 27.1677 46.1257 27.1677 46.2977V49.4379C27.1677 49.6099 27.3072 49.7494 27.4792 49.7494H34.2057C34.3778 49.7494 34.5172 49.6099 34.5172 49.4379V46.2977C34.5172 46.1257 34.3778 45.9862 34.2057 45.9862Z" fill="#BABCBE"/><path d="M43.5927 45.9862H36.8662C36.6941 45.9862 36.5547 46.1257 36.5547 46.2977V49.4379C36.5547 49.6099 36.6941 49.7494 36.8662 49.7494H43.5927C43.7647 49.7494 43.9042 49.6099 43.9042 49.4379V46.2977C43.9042 46.1257 43.7647 45.9862 43.5927 45.9862Z" fill="#BABCBE"/><path d="M24.819 51.13H18.0925C17.9205 51.13 17.781 51.2695 17.781 51.4415V54.5817C17.781 54.7537 17.9205 54.8932 18.0925 54.8932H24.819C24.9911 54.8932 25.1305 54.7537 25.1305 54.5817V51.4415C25.1305 51.2695 24.9911 51.13 24.819 51.13Z" fill="#E73245"/><path d="M34.2057 51.13H27.4792C27.3072 51.13 27.1677 51.2695 27.1677 51.4415V54.5817C27.1677 54.7537 27.3072 54.8932 27.4792 54.8932H34.2057C34.3778 54.8932 34.5172 54.7537 34.5172 54.5817V51.4415C34.5172 51.2695 34.3778 51.13 34.2057 51.13Z" fill="#FBB03B"/><path d="M43.5927 51.13H36.8662C36.6941 51.13 36.5547 51.2695 36.5547 51.4415V54.5817C36.5547 54.7537 36.6941 54.8932 36.8662 54.8932H43.5927C43.7647 54.8932 43.9042 54.7537 43.9042 54.5817V51.4415C43.9042 51.2695 43.7647 51.13 43.5927 51.13Z" fill="#7CC24D"/><path d="M17.3011 21.6225H44.2662V24.3586C44.2662 24.5101 44.1483 24.628 43.9968 24.628H17.5621C17.4106 24.628 17.2927 24.5101 17.2927 24.3586V21.6225H17.3011Z" fill="#AAACAE"/><path d="M21.3 4.01059H40.2589C41.5301 4.01059 42.5572 5.03767 42.5572 6.30889V24.628H19.0017V6.30889C19.0017 5.03767 20.0288 4.01059 21.3 4.01059Z" fill="#FF6200"/><path d="M20.3656 29.6708L21.6284 30.3443L21.3759 28.9384H22.7565L22.5124 30.3443L23.7668 29.6708L24.1961 30.9841L22.7734 31.1861L23.8089 32.1711L22.6976 32.9793L22.0662 31.6913L21.4517 32.9793L20.3404 32.1711L21.3675 31.1777L19.9531 30.9841L20.3741 29.6708H20.3656Z" fill="white"/><path d="M26.1493 29.6708L27.4121 30.3443L27.1596 28.9384H28.5402L28.2961 30.3443L29.5505 29.6708L29.9798 30.9841L28.5571 31.1861L29.5926 32.1711L28.4813 32.9793L27.8499 31.6913L27.2353 32.9793L26.1241 32.1711L27.1512 31.1777L25.7368 30.9841L26.1578 29.6708H26.1493Z" fill="white"/><path d="M32.0087 29.6708L33.2715 30.3443L33.0189 28.9384H34.3996L34.1555 30.3443L35.4099 29.6708L35.8392 30.9841L34.4165 31.1861L35.452 32.1711L34.3407 32.9793L33.7093 31.6913L33.0947 32.9793L31.9835 32.1711L33.0105 31.1777L31.5962 30.9841L32.0171 29.6708H32.0087Z" fill="white"/><path d="M37.7924 29.6708L39.0552 30.3443L38.8026 28.9384H40.1833L39.9392 30.3443L41.1935 29.6708L41.6229 30.9841L40.2001 31.1861L41.2356 32.1711L40.1244 32.9793L39.493 31.6913L38.8784 32.9793L37.7671 32.1711L38.7942 31.1777L37.3799 30.9841L37.8008 29.6708H37.7924Z" fill="white"/><path d="M24.2212 8.40515C24.2212 8.43041 24.2127 8.45567 24.1875 8.4725C24.1454 8.5146 24.0865 8.5146 24.0444 8.4725C23.7329 8.16101 23.2193 8.16101 22.9078 8.4725C22.8657 8.5146 22.8068 8.5146 22.7647 8.4725C22.7226 8.43041 22.7226 8.37148 22.7647 8.32939C23.152 7.94213 23.7918 7.94213 24.1875 8.32939C24.2043 8.34622 24.2212 8.37148 24.2212 8.39673V8.40515Z" fill="white"/><path d="M24.398 7.98422C24.398 8.00947 24.3896 8.03473 24.3643 8.05157C24.3222 8.09366 24.2633 8.09366 24.2212 8.05157C23.8087 7.63905 23.1436 7.63905 22.7311 8.05157C22.689 8.09366 22.6301 8.09366 22.588 8.05157C22.5459 8.00947 22.5459 7.95054 22.588 7.90845C23.0763 7.42017 23.876 7.42017 24.3643 7.90845C24.3811 7.92529 24.398 7.95054 24.398 7.9758V7.98422Z" fill="white"/><path d="M24.5749 7.55486C24.5749 7.58011 24.5665 7.60537 24.5413 7.62221C24.4992 7.6643 24.4402 7.6643 24.3981 7.62221C24.154 7.37806 23.8257 7.23495 23.4721 7.23495C23.1185 7.23495 22.7902 7.36965 22.546 7.62221C22.5039 7.6643 22.445 7.6643 22.4029 7.62221C22.3608 7.58011 22.3608 7.52118 22.4029 7.47909C22.6891 7.19285 23.068 7.0329 23.4721 7.0329C23.8762 7.0329 24.255 7.19285 24.5413 7.47909C24.5581 7.49593 24.5749 7.52118 24.5749 7.54644V7.55486Z" fill="white"/><path d="M24.7432 7.08341C24.7432 7.10866 24.7348 7.13392 24.7095 7.15076C24.6675 7.19285 24.6085 7.19285 24.5664 7.15076C24.0024 6.5867 22.9416 6.5867 22.3776 7.15076C22.3355 7.19285 22.2765 7.19285 22.2345 7.15076C22.1924 7.10866 22.1924 7.04973 22.2345 7.00764C22.8659 6.37624 24.0697 6.37624 24.7095 7.00764C24.7264 7.02448 24.7432 7.04973 24.7432 7.07499V7.08341Z" fill="white"/><path d="M39.9557 6.69617H38.2888V22.2371H39.9557V6.69617Z" fill="#D9591E"/><path d="M37.5734 6.69617H35.9065V15.519H37.5734V6.69617Z" fill="#D9591E"/><path d="M24.0361 15.5021H24.4992C24.6254 15.7631 24.6928 16.0072 24.6928 16.2514C24.6928 16.9249 24.2971 17.329 23.792 17.329C23.2869 17.329 22.7986 16.866 22.7986 16.2766C22.7986 15.6873 22.8238 16.0157 22.8659 15.9062C22.8912 15.822 22.9249 15.7715 22.9249 15.721C22.9249 15.6705 22.8491 15.6621 22.7986 15.6537V15.5863L23.4216 15.5274V15.6032C23.2953 15.6368 23.1943 15.6958 23.1269 15.7715C23.0006 15.8978 22.9417 16.0578 22.9417 16.2514C22.9417 16.6555 23.2616 16.8912 23.7499 16.8912C24.2382 16.8912 24.5581 16.605 24.5581 16.2177C24.5581 15.8305 24.5328 15.9988 24.4739 15.8726H23.994C23.8425 15.8726 23.7836 15.8978 23.7836 16.1167H23.7162V15.3001H23.7836C23.7836 15.5021 23.8509 15.5021 24.0446 15.5021H24.0361ZM23.27 17.7415H24.6507V17.8509L23.2195 19.2316C23.2616 19.2316 23.2869 19.2316 23.329 19.2316H24.1961C24.4655 19.2316 24.5665 19.2316 24.5665 18.9875H24.6339V19.6357H24.5665C24.5665 19.3916 24.4486 19.3916 24.1961 19.3916H23.2027C23.0511 19.3916 22.8912 19.3916 22.8912 19.6525H22.8238V19.038L23.994 17.9015C23.9604 17.9015 23.9435 17.9015 23.9014 17.9015H23.2616C23.0006 17.9015 22.8912 17.9015 22.8912 18.1372H22.8238V17.4889H22.8912C22.8912 17.7247 22.9922 17.7415 23.2616 17.7415H23.27ZM24.6423 20.8901H24.5749C24.5749 20.7386 24.5581 20.6291 24.3392 20.6291H23.1522C22.9164 20.6291 22.9164 20.7133 22.9164 20.8901H22.8491V19.9725H22.9164C22.9164 20.1577 22.9164 20.2334 23.1522 20.2334H24.3392C24.5665 20.2334 24.5749 20.1408 24.5749 19.9725H24.6423V20.8901Z" fill="white"/><path d="M24.6086 11.8063C24.6086 11.7895 24.5917 11.8063 24.5833 11.8063C24.5833 11.8063 24.5328 11.84 24.5076 11.8568C24.5076 11.8568 24.5244 11.8568 24.5412 11.8737C24.5665 11.8905 24.5833 11.8905 24.6002 11.8905C24.617 11.8737 24.6002 11.8652 24.6002 11.84C24.6002 11.8147 24.6002 11.8147 24.6002 11.8063H24.6086ZM23.8088 11.2002C23.792 11.217 23.792 11.2338 23.792 11.2423C23.7751 11.2423 23.7499 11.2423 23.7246 11.2423C23.7246 11.2254 23.7246 11.2002 23.7246 11.2002C23.6909 11.2002 23.6488 11.2002 23.632 11.217C23.632 11.2338 23.6152 11.2507 23.6152 11.2675C23.5983 11.2675 23.5731 11.2675 23.5647 11.2844C23.5647 11.2675 23.5647 11.2507 23.5647 11.2423C23.5647 11.2423 23.5057 11.2591 23.4889 11.2591C23.4889 11.2759 23.4889 11.2928 23.4889 11.3012C23.4721 11.3012 23.4636 11.318 23.4468 11.318C23.4468 11.3012 23.4468 11.2928 23.43 11.2844C23.3963 11.2844 23.3879 11.3012 23.3626 11.3096V11.3517C23.3458 11.3517 23.3374 11.3685 23.3205 11.3685C23.3205 11.3685 23.3037 11.3517 23.3037 11.3433C23.2868 11.3433 23.27 11.3601 23.2616 11.377C23.2616 11.3938 23.2616 11.4022 23.2616 11.4191C23.2616 11.4191 23.2363 11.4443 23.2363 11.4359C23.2195 11.4359 23.2195 11.4191 23.2111 11.4106C23.1858 11.4275 23.169 11.4359 23.1521 11.4527C23.1521 11.4696 23.1521 11.478 23.1521 11.4948C23.1521 11.4948 23.1353 11.4948 23.1269 11.5117C23.1269 11.5285 23.0932 11.5117 23.0932 11.5117C23.0764 11.5285 23.0511 11.5453 23.0259 11.5706C23.0259 11.5874 23.0427 11.5958 23.0427 11.6043C23.0427 11.6043 23.0174 11.6295 23.009 11.6295C22.9922 11.6295 22.9922 11.6043 22.9922 11.6043C22.9922 11.6043 22.9417 11.6548 22.9248 11.6884C22.9248 11.7053 22.9248 11.7053 22.9248 11.7221C22.908 11.739 22.8912 11.7642 22.8912 11.7642L22.8743 11.7474C22.8575 11.7811 22.8491 11.7895 22.8322 11.8147C22.8154 11.84 22.7986 11.8568 22.7817 11.8652C22.7144 11.9073 22.6134 11.9578 22.5965 12.101C22.6218 12.0841 22.647 12.0673 22.6723 12.0505V12.1178C22.6554 12.1346 22.6554 12.1346 22.6386 12.1431C22.6134 12.1431 22.6049 12.1599 22.5965 12.1683C22.5797 12.1936 22.647 12.3283 22.6723 12.4293C22.6975 12.404 22.7144 12.3788 22.7312 12.3704C22.7649 12.3451 22.8238 12.303 22.8659 12.2609C22.8659 12.2609 22.8491 12.2441 22.8491 12.2357C22.8322 12.1515 22.8154 12.1515 22.8154 12.1515C22.8154 12.1515 22.7649 12.2188 22.7649 12.1683C22.7649 12.1683 22.7649 12.1346 22.7649 12.1262C22.7649 12.0925 22.748 12.0589 22.7649 12.0336C22.7817 12.0084 22.807 11.9915 22.8322 11.9747C22.8322 11.9915 22.8322 11.9999 22.8322 12.0168C22.8322 12.0589 22.8322 12.0925 22.8322 12.1262C22.8322 12.1262 22.8743 12.0757 22.8912 12.0589V12.1094C22.8912 12.1262 22.908 12.1515 22.908 12.1515C22.908 12.1683 22.908 12.1936 22.908 12.202C22.9248 12.1767 22.9669 12.0673 22.9669 12.0084C22.9669 11.9494 22.9669 11.9242 22.9417 11.8821C22.9417 11.8821 22.9248 11.8652 22.9417 11.8568C22.9417 11.8316 22.9585 11.8147 22.9669 11.8063C23.0764 11.6464 23.3121 11.4611 23.4384 11.4022C23.5562 11.3433 23.6909 11.3096 23.8172 11.3096C23.9856 11.3096 24.1456 11.3685 24.2971 11.478C24.3813 11.5453 24.4486 11.6632 24.4655 11.7895C24.5076 11.7474 24.5833 11.7305 24.6423 11.7137C24.6423 11.7137 24.6423 11.6716 24.6254 11.6464C24.5833 11.6464 24.5244 11.68 24.5076 11.68C24.5076 11.68 24.4823 11.6379 24.4823 11.6043C24.4991 11.6043 24.5328 11.579 24.5749 11.5538C24.5581 11.5285 24.5496 11.5117 24.5328 11.4948C24.4991 11.4948 24.4655 11.5117 24.4234 11.5201C24.4065 11.478 24.3981 11.4527 24.3981 11.4527C24.4149 11.4359 24.4402 11.4106 24.457 11.4022C24.457 11.4022 24.4234 11.3685 24.3897 11.3601C24.3729 11.377 24.3476 11.3938 24.3223 11.4022L24.2634 11.3517C24.2634 11.3517 24.2887 11.318 24.3055 11.3096C24.2802 11.2928 24.255 11.2759 24.2213 11.2675C24.1876 11.2928 24.1876 11.3096 24.1708 11.3096C24.154 11.2928 24.1287 11.2928 24.1119 11.2844C24.1119 11.2675 24.1287 11.2507 24.1371 11.2423C24.1119 11.2254 24.0698 11.217 24.0445 11.217C24.0277 11.2338 24.0277 11.2507 24.0109 11.2591C23.9772 11.2591 23.9519 11.2423 23.9519 11.2423C23.9519 11.2423 23.9519 11.2086 23.9519 11.2002C23.9098 11.2002 23.8762 11.2002 23.8509 11.2002H23.8088ZM22.647 13.2122C22.6302 13.2122 22.6134 13.2122 22.5965 13.2122C22.5544 13.2291 22.5039 13.2459 22.4534 13.2543H22.4366C22.4197 13.2796 22.4197 13.3048 22.4029 13.3385C22.4029 13.3385 22.445 13.3385 22.4534 13.3217C22.4871 13.3048 22.5376 13.288 22.5628 13.288C22.5881 13.288 22.6049 13.288 22.6218 13.2712C22.6386 13.2375 22.647 13.2038 22.647 13.2038V13.2122ZM22.8912 13.0691C22.8491 13.0691 22.807 13.086 22.7817 13.1028C22.7817 13.1028 22.7649 13.1028 22.7649 13.1196C22.748 13.1365 22.7228 13.1617 22.7228 13.1617C22.706 13.1786 22.6807 13.187 22.6639 13.2038C22.6639 13.2206 22.6807 13.2375 22.6891 13.2459C22.706 13.2459 22.7144 13.2796 22.7228 13.2627C22.7396 13.2627 22.7396 13.2459 22.7396 13.2291C22.7565 13.2122 22.7565 13.2038 22.7733 13.187C22.7986 13.1701 22.8322 13.1533 22.8575 13.1196C22.8575 13.1028 22.8575 13.1028 22.8575 13.0944C22.8575 13.086 22.8743 13.0607 22.8827 13.0523L22.8912 13.0691ZM23.0595 13.0018C23.0595 12.9849 23.0427 13.0018 23.0343 13.0018C22.9922 13.027 22.9164 13.0439 22.9164 13.0523C22.9164 13.0691 22.9164 13.086 22.8996 13.1112C22.8827 13.128 22.8659 13.1617 22.8575 13.1786C22.8575 13.1786 22.8575 13.1954 22.8407 13.2207V13.2543C22.8575 13.2543 22.8827 13.2291 22.8912 13.2207C22.8912 13.2207 22.9164 13.2207 22.9333 13.2207C22.9333 13.2038 22.9333 13.187 22.9501 13.1786C22.9501 13.1786 22.9501 13.1365 22.9669 13.1196C22.9669 13.1028 23.0259 13.0607 23.0343 13.0523C23.0511 13.0354 23.0595 13.0102 23.0511 13.0018H23.0595ZM24.1624 12.0168C24.1624 12.0168 24.1119 12.0168 24.1119 12.0336C24.1119 12.0336 24.0866 12.0505 24.0782 12.0505C24.095 12.0505 24.1119 12.0505 24.1203 12.0505C24.1287 12.0505 24.1456 12.0757 24.154 12.0673C24.154 12.0505 24.2045 12.0336 24.2213 12.0252C24.2466 12.0084 24.1792 12.0084 24.1624 12.0252V12.0168ZM22.3776 13.3469C22.3355 13.3974 22.2934 13.4648 22.2682 13.5237C22.3019 13.5658 22.3271 13.5911 22.3271 13.6079C22.3271 13.6247 22.285 13.6079 22.2598 13.6079C22.2598 13.6247 22.2598 13.6416 22.2598 13.6584C22.3019 13.6753 22.3608 13.6753 22.386 13.7089C22.386 13.7258 22.386 13.7258 22.386 13.7342H22.3271C22.3271 13.7342 22.2766 13.7089 22.2682 13.7174C22.2682 13.7174 22.285 13.7763 22.285 13.7847L22.3103 13.8268C22.3103 13.8268 22.3103 13.8436 22.3103 13.8521C22.2934 13.8689 22.2934 13.8857 22.285 13.9026C22.3608 13.9278 22.386 13.9362 22.3776 13.9362C22.3776 13.9362 22.3103 14.0204 22.2766 14.0541C22.2934 14.1383 22.3019 14.1383 22.3271 14.2141C22.3524 14.2309 22.3945 14.273 22.4281 14.2982C22.445 14.3151 22.4618 14.3235 22.4871 14.3403L22.5123 14.273C22.5123 14.273 22.4618 14.2309 22.445 14.2309C22.4281 14.1888 22.3776 14.1046 22.3524 14.0794C22.3692 14.0794 22.4197 14.0036 22.4366 13.9699C22.4534 13.9447 22.4534 13.9194 22.4702 13.8941C22.4534 13.8773 22.4366 13.8689 22.3945 13.8521C22.4113 13.8352 22.4113 13.81 22.4113 13.7931C22.4366 13.7931 22.4534 13.7931 22.4787 13.7931C22.4955 13.7931 22.4787 13.7763 22.4787 13.751C22.4618 13.7089 22.4618 13.6753 22.4534 13.6584C22.4366 13.6163 22.386 13.5911 22.386 13.549C22.386 13.5069 22.4029 13.4564 22.4197 13.448C22.4197 13.4311 22.4366 13.4143 22.4366 13.3974C22.4366 13.3806 22.4113 13.3553 22.3945 13.3385L22.3776 13.3469ZM23.4889 12.5219C23.4721 12.5219 23.4468 12.5219 23.43 12.5472C23.4468 12.5977 23.4552 12.665 23.4552 12.7071C23.4552 12.7492 23.4384 12.8334 23.4047 12.926C23.4215 12.926 23.4468 12.926 23.4468 12.926C23.4805 12.8839 23.4636 12.8839 23.4889 12.8502C23.4889 12.8334 23.5226 12.8334 23.5647 12.825C23.5899 12.825 23.5983 12.8081 23.632 12.7913C23.6152 12.7745 23.632 12.7492 23.632 12.7492C23.5983 12.7492 23.5647 12.766 23.5647 12.766C23.5478 12.766 23.5142 12.7913 23.4973 12.7997C23.4973 12.7997 23.5226 12.7745 23.5226 12.7492C23.5226 12.7239 23.5226 12.7239 23.5226 12.7071C23.5226 12.7071 23.5394 12.6903 23.5478 12.6903C23.5647 12.6734 23.5815 12.6734 23.5983 12.6734C23.5983 12.6566 23.5983 12.6566 23.5983 12.6482C23.5983 12.6229 23.5983 12.6061 23.5983 12.6061C23.5815 12.6061 23.5731 12.6229 23.5562 12.6229C23.5394 12.6229 23.5141 12.6398 23.5141 12.6398L23.4973 12.5303L23.4889 12.5219ZM23.3963 12.9344C23.3963 12.9344 23.3205 12.9513 23.2363 12.9597C23.1606 12.9765 23.1353 12.9765 23.1016 12.9933C23.1016 13.0102 23.1016 13.0102 23.1016 13.027C23.1016 13.0439 23.1185 13.0607 23.1185 13.0607C23.169 13.0439 23.2363 13.027 23.3037 13.0186C23.3205 13.0186 23.3458 13.0186 23.3626 13.0186L23.3963 12.9344ZM24.1203 11.8568C23.8088 11.8568 23.531 11.9663 23.3795 12.1094C23.2953 12.1852 23.2532 12.2862 23.2532 12.3704C23.2532 12.4545 23.3037 12.5051 23.3626 12.5051C23.5899 12.5051 23.733 12.4125 23.8677 12.3535C23.9014 12.3367 23.9182 12.3367 23.9519 12.3367C24.0361 12.3367 24.1876 12.3956 24.2634 12.4377C24.2634 12.4377 24.2466 12.4798 24.2466 12.5051C24.2466 12.564 24.2887 12.5892 24.3308 12.5977C24.3308 12.6145 24.3308 12.6313 24.3308 12.6482C24.3308 12.7239 24.3897 12.7829 24.4655 12.7829C24.5412 12.7829 24.5917 12.766 24.6423 12.7408V12.6734C24.6254 12.6734 24.5328 12.6987 24.5076 12.7071C24.4655 12.7071 24.4402 12.7071 24.4234 12.6819C24.3813 12.6566 24.3981 12.5892 24.3981 12.5892C24.4318 12.6061 24.4823 12.6313 24.5328 12.6313C24.5581 12.6313 24.6086 12.6145 24.6423 12.5977V12.5472C24.6002 12.5472 24.5749 12.5472 24.5412 12.5472H24.4907C24.4739 12.5472 24.516 12.5135 24.516 12.5135C24.516 12.5135 24.4823 12.4882 24.457 12.4882C24.4318 12.4882 24.4402 12.5303 24.4234 12.5303C24.4065 12.5303 24.356 12.5135 24.356 12.5135C24.3308 12.4714 24.3392 12.4461 24.3392 12.4293C24.3392 12.4125 24.3392 12.404 24.3392 12.3788C24.3392 12.3535 24.2971 12.3535 24.2803 12.3535C24.2803 12.3535 24.2971 12.3367 24.2971 12.3283C24.3139 12.3114 24.3139 12.303 24.3139 12.2862C24.3139 12.2525 24.3308 12.2272 24.356 12.202C24.3308 12.202 24.2971 12.202 24.2887 12.2188C24.2887 12.2188 24.2634 12.2525 24.2466 12.2862C24.2297 12.303 24.2297 12.3199 24.2213 12.3283C24.2213 12.3283 24.2045 12.3283 24.1961 12.3283C24.1876 12.3283 24.1624 12.3283 24.1624 12.3114C24.1624 12.2946 24.1624 12.2946 24.1792 12.2693C24.1961 12.2357 24.2129 12.2104 24.2213 12.1936C24.2045 12.1683 24.2045 12.1683 24.1624 12.1683C24.1287 12.1936 24.1203 12.1683 24.095 12.2104C24.095 12.2272 24.0782 12.303 24.0782 12.303C24.0614 12.303 24.0361 12.2862 24.0361 12.2862C24.0361 12.2693 24.0361 12.2609 24.0361 12.2525C24.0614 12.2104 24.0614 12.1852 24.0782 12.1515C24.0614 12.1515 24.0445 12.1515 24.0361 12.1515C24.0193 12.1683 23.994 12.1852 23.994 12.1936C23.994 12.2188 23.9772 12.2357 23.9772 12.2525C23.9603 12.2525 23.9351 12.2525 23.9098 12.2693C23.893 12.2693 23.9098 12.2525 23.9098 12.2441C23.9098 12.2188 23.9435 12.1178 23.9435 12.1178C23.9182 12.1178 23.9014 12.1178 23.893 12.1346C23.8762 12.1346 23.8677 12.1515 23.8509 12.1852C23.8341 12.2272 23.8509 12.2693 23.8256 12.3114C23.8004 12.3367 23.792 12.3451 23.7667 12.3535C23.7667 12.3367 23.7499 12.303 23.7499 12.2778C23.7499 12.2525 23.7499 12.2272 23.7499 12.1852C23.7499 12.1683 23.792 12.1346 23.792 12.1178C23.792 12.1178 23.7415 12.1346 23.7246 12.1431C23.7246 12.1599 23.6825 12.1852 23.6825 12.202C23.6573 12.2693 23.6657 12.2778 23.6825 12.3283C23.6825 12.3451 23.6825 12.3704 23.6825 12.3788C23.6657 12.3788 23.6404 12.3619 23.632 12.3788C23.632 12.3788 23.6152 12.404 23.6068 12.404C23.6068 12.404 23.5899 12.3114 23.6068 12.2609C23.6068 12.2441 23.6404 12.2104 23.6404 12.1936C23.6404 12.1936 23.5983 12.1767 23.5562 12.1936C23.5562 12.2272 23.5562 12.2609 23.5562 12.2862C23.5562 12.3114 23.5562 12.3367 23.5562 12.3535C23.5562 12.3704 23.5562 12.3872 23.5562 12.404C23.5394 12.4209 23.5142 12.4209 23.4973 12.4209C23.4973 12.4209 23.4973 12.2609 23.4973 12.2441C23.4973 12.2441 23.4805 12.2609 23.4721 12.2778C23.43 12.303 23.4215 12.3199 23.4215 12.3451C23.4215 12.3704 23.4384 12.4125 23.4384 12.4377C23.3879 12.4377 23.3458 12.4125 23.3458 12.3704C23.3458 12.303 23.3795 12.2188 23.4468 12.1515C23.6068 11.9999 23.9267 11.9158 24.1371 11.9158C24.3476 11.9158 24.3392 11.9158 24.415 11.9326C24.415 11.9158 24.415 11.9073 24.415 11.8905C24.3476 11.8737 24.2382 11.8484 24.1371 11.8484L24.1203 11.8568ZM23.0764 13.2543C23.0343 13.2543 22.9922 13.2712 22.9501 13.288C22.9248 13.288 22.908 13.3048 22.8912 13.3217C22.8912 13.3217 22.908 13.3385 22.9164 13.3385C22.9333 13.3553 22.9501 13.3722 22.9669 13.3553C22.9922 13.3553 23.0259 13.3553 23.0427 13.3301C23.0595 13.3133 23.0595 13.288 23.068 13.2627L23.0764 13.2543ZM23.7078 12.5472C23.6909 12.5472 23.6825 12.564 23.6657 12.5808C23.6657 12.5808 23.632 12.665 23.632 12.6734C23.632 12.6903 23.6657 12.6398 23.6825 12.6313C23.7078 12.6061 23.7583 12.5472 23.7583 12.5472H23.7078ZM23.2953 13.1028C23.2784 13.1028 23.27 13.1028 23.2532 13.1196C23.2195 13.1196 23.2027 13.1365 23.1858 13.1449C23.169 13.1449 23.1521 13.1449 23.1437 13.1449V13.1617C23.1437 13.1786 23.1437 13.2038 23.1437 13.2038C23.1606 13.2038 23.1942 13.2038 23.2111 13.2038C23.2279 13.2038 23.2784 13.187 23.2784 13.1786C23.2953 13.1786 23.2953 13.1617 23.2953 13.1533C23.2953 13.1365 23.3121 13.1196 23.3121 13.1112L23.2953 13.1028ZM24.3055 12.042C24.3055 12.042 24.2887 12.0589 24.2887 12.0673C24.2887 12.0673 24.255 12.0673 24.2466 12.0841C24.2466 12.101 24.2297 12.101 24.2297 12.1094C24.2297 12.1094 24.2466 12.1094 24.255 12.1094C24.2718 12.1094 24.2718 12.1262 24.2887 12.1094C24.3055 12.1094 24.3055 12.0925 24.3139 12.0841C24.3139 12.0841 24.3644 12.0589 24.3729 12.0505C24.3729 12.0505 24.3308 12.0505 24.3055 12.0336V12.042ZM23.893 12.4966C23.8762 12.4966 23.8341 12.4966 23.8256 12.5135C23.8256 12.5303 23.8088 12.5472 23.8088 12.5556C23.8088 12.564 23.7751 12.5724 23.7835 12.5892C23.8004 12.5892 23.8593 12.5724 23.8762 12.564C23.8762 12.564 23.9182 12.5387 23.9688 12.5387C23.9519 12.5135 23.9182 12.5051 23.9014 12.4966H23.893ZM23.5731 12.926C23.5731 12.926 23.531 12.9933 23.5057 13.0102C23.5057 13.0214 23.5113 13.0354 23.5226 13.0523C23.5226 13.0691 23.5226 13.0691 23.5394 13.0775C23.5562 13.0607 23.5562 13.0523 23.5731 13.0354C23.5731 13.0354 23.5731 13.0186 23.5731 13.0018V12.9597C23.5731 12.9428 23.5731 12.9344 23.5731 12.9344V12.926ZM23.4636 13.0691C23.4468 13.0523 23.4468 13.086 23.4384 13.086C23.4215 13.086 23.3963 13.1028 23.3963 13.1112C23.3795 13.1112 23.371 13.128 23.3626 13.128C23.3626 13.128 23.3626 13.1617 23.3626 13.1701C23.3626 13.1786 23.3626 13.187 23.3626 13.1954C23.3795 13.1786 23.4215 13.1701 23.4215 13.1701C23.4384 13.1701 23.4384 13.1701 23.4468 13.1533C23.4468 13.1196 23.4468 13.0944 23.4636 13.0607V13.0691ZM23.9267 12.6061C23.9098 12.6061 23.893 12.6061 23.8846 12.6229C23.8677 12.6229 23.8425 12.6398 23.8256 12.6398C23.8088 12.6398 23.7751 12.6734 23.7583 12.6819C23.7415 12.6987 23.7162 12.6987 23.6994 12.6987C23.6994 12.6987 23.6994 12.7576 23.6994 12.766C23.7499 12.7324 23.8004 12.6987 23.8509 12.6819C23.8677 12.6819 24.0529 12.6145 24.0529 12.6145C24.0529 12.5977 23.9519 12.6145 23.9435 12.6145C23.9267 12.6145 23.9267 12.6145 23.9182 12.5977L23.9267 12.6061ZM23.7078 12.8586C23.6489 12.8586 23.6489 12.8755 23.6236 12.9007C23.6236 12.9007 23.6657 12.9176 23.6909 12.9428C23.7078 12.9092 23.7415 12.9007 23.7415 12.9007C23.7162 12.8755 23.7246 12.8755 23.7078 12.8586ZM24.6002 11.9578C24.6002 11.9578 24.5833 11.9578 24.5749 11.9747V12.0084C24.5749 12.0252 24.5749 12.0252 24.5749 12.0336C24.5917 12.0505 24.6254 12.0505 24.6423 12.0673V11.9915C24.6254 11.9747 24.6254 11.9663 24.6002 11.9663V11.9578ZM23.8677 12.7745H23.8509C23.8509 12.7745 23.8256 12.7913 23.8172 12.7913C23.8004 12.7913 23.7835 12.8081 23.7751 12.825C23.7751 12.825 23.8004 12.825 23.8172 12.8418C23.8341 12.8418 23.8172 12.8418 23.8509 12.8586C23.8677 12.8418 23.8846 12.8418 23.9014 12.825L23.9267 12.8081C23.9267 12.8081 23.8846 12.7829 23.8677 12.7829V12.7745ZM23.1942 13.288C23.1437 13.3806 23.1269 13.4648 23.1269 13.5237C23.1269 13.5237 23.1101 13.5406 23.1101 13.5237C23.0932 13.5069 23.0932 13.4985 23.0848 13.49C23.068 13.4732 23.0427 13.4564 23.009 13.448C22.9669 13.4311 22.9838 13.4059 22.8996 13.3974C22.8996 13.4143 22.9164 13.4227 22.9164 13.4395C22.8996 13.4395 22.8743 13.4227 22.8575 13.4227C22.8238 13.4227 22.7986 13.4059 22.7565 13.4059C22.7565 13.389 22.7312 13.3638 22.706 13.3553C22.706 13.3553 22.6807 13.3553 22.6554 13.3553C22.6218 13.3553 22.5881 13.3553 22.5628 13.3553C22.5628 13.3553 22.4955 13.3974 22.4702 13.4227C22.4534 13.4648 22.4534 13.49 22.4702 13.5153C22.4702 13.5574 22.5123 13.6079 22.5797 13.6079C22.5797 13.65 22.5797 13.7258 22.6218 13.7679C22.6049 13.8015 22.5965 13.8352 22.5881 13.8605V13.9194C22.5628 13.9194 22.5376 13.9362 22.5207 13.9615C22.5039 13.9952 22.4787 14.0288 22.4787 14.0709C22.4787 14.113 22.4787 14.113 22.4787 14.1299C22.4955 14.1467 22.5039 14.1804 22.5292 14.1888C22.5628 14.2056 22.5881 14.2141 22.6218 14.2141C22.6554 14.2141 22.6723 14.1972 22.706 14.172C22.7228 14.172 22.7228 14.1551 22.7228 14.1467C22.7228 14.1467 22.7396 14.113 22.7396 14.1046C22.7396 14.1046 22.7649 14.1046 22.807 14.1046C22.8491 14.1046 22.8407 14.1046 22.8575 14.1046C22.8827 14.1046 22.908 14.1046 22.9248 14.0878C22.9248 14.1046 22.908 14.1214 22.9248 14.1299C22.9417 14.1299 22.9669 14.113 22.9922 14.1046C23.0343 14.0709 23.0595 14.0373 23.0932 14.0204H23.1101C23.1101 14.0625 23.1101 14.113 23.1269 14.1551C23.1437 14.1972 23.1606 14.2393 23.1774 14.2814C23.2027 14.2814 23.2195 14.2814 23.2195 14.2814C23.2195 14.2814 23.1858 14.2141 23.1774 14.1635C23.1521 14.0794 23.1606 14.0373 23.1606 14.0373C23.1774 14.0373 23.1942 14.0204 23.2027 14.0373C23.2363 14.113 23.27 14.1888 23.3121 14.2646C23.3289 14.2646 23.3458 14.2646 23.3542 14.2477C23.3121 14.1804 23.2784 14.0962 23.2532 14.0288C23.2532 14.0036 23.2532 14.0036 23.2532 13.9952C23.2532 13.9952 23.2784 13.9783 23.2784 13.9615C23.2784 13.9447 23.2616 13.9194 23.2616 13.9026C23.2448 13.8605 23.2363 13.8352 23.2279 13.7931C23.2279 13.7931 23.2111 13.7931 23.1942 13.7931C23.183 13.7931 23.1718 13.7931 23.1606 13.7931C23.1606 13.7931 23.1437 13.81 23.1185 13.8268C23.1016 13.8436 23.0764 13.8268 23.0764 13.8268C23.0932 13.8436 23.1016 13.8689 23.0764 13.8773C23.0595 13.8773 23.0343 13.8773 23.0343 13.8605C23.0006 13.7931 23.0006 13.7342 23.0343 13.6668C23.0343 13.65 23.0511 13.65 23.0595 13.65C23.0595 13.65 23.0764 13.65 23.0932 13.6668C23.0932 13.6837 23.0764 13.7089 23.0932 13.7089C23.1101 13.7089 23.1353 13.7258 23.1521 13.751C23.1521 13.751 23.1774 13.751 23.1942 13.751H23.2111C23.2111 13.7258 23.2279 13.6837 23.2363 13.6668C23.2532 13.6416 23.2784 13.5995 23.2784 13.5995C23.2784 13.5827 23.2532 13.5658 23.2363 13.5574C23.27 13.49 23.2784 13.4311 23.3374 13.3469C23.3374 13.3301 23.3121 13.3301 23.2953 13.3301C23.2784 13.3638 23.2279 13.4564 23.2279 13.4648C23.2279 13.49 23.2111 13.5069 23.2027 13.5321H23.1521C23.169 13.49 23.169 13.3974 23.2195 13.3133C23.2027 13.3133 23.1858 13.2964 23.1774 13.2964L23.1942 13.288ZM23.5141 13.1449C23.4973 13.1701 23.4889 13.1954 23.4805 13.2207C23.4636 13.2459 23.4552 13.2627 23.4384 13.288C23.4384 13.3048 23.4384 13.3048 23.4384 13.3133C23.4384 13.3301 23.4552 13.3301 23.4552 13.3469C23.4805 13.3301 23.4973 13.3048 23.5141 13.288C23.531 13.288 23.531 13.2627 23.531 13.2459V13.1786C23.531 13.1617 23.531 13.1533 23.5141 13.1365V13.1449ZM23.6825 13.0354C23.6825 13.0186 23.6488 13.0186 23.6488 13.0354C23.632 13.0775 23.6236 13.1196 23.5815 13.1449C23.5815 13.1449 23.5983 13.187 23.6152 13.1954C23.6152 13.1954 23.6488 13.1786 23.6825 13.1533C23.6994 13.1365 23.6825 13.0944 23.6825 13.0607V13.027V13.0354ZM24.6086 12.1262H24.5665V12.1599C24.5665 12.1767 24.5833 12.202 24.6002 12.202C24.617 12.202 24.6338 12.2188 24.6423 12.2272C24.6423 12.2272 24.6423 12.2104 24.6423 12.202V12.1346C24.6423 12.1346 24.617 12.1346 24.6002 12.1178L24.6086 12.1262ZM24.0361 12.7155C24.0193 12.7155 24.0024 12.7324 23.994 12.7324C23.994 12.7324 23.9772 12.7324 23.9519 12.7324C23.9519 12.7324 23.9856 12.7745 23.994 12.7745C24.0277 12.7492 24.0445 12.7576 24.0698 12.7576C24.0866 12.7576 24.0866 12.7408 24.1119 12.7324L24.1708 12.7492C24.1203 12.7071 24.0614 12.7071 24.0445 12.7071L24.0361 12.7155ZM24.4655 12.2357C24.3981 12.2778 24.3729 12.3451 24.3729 12.3872C24.3729 12.4293 24.4149 12.4545 24.5328 12.4798C24.5749 12.4798 24.6086 12.4966 24.6338 12.4798V12.4209C24.617 12.404 24.5917 12.404 24.5665 12.3956C24.5496 12.3956 24.5496 12.3788 24.5496 12.3704C24.5496 12.3535 24.5917 12.3367 24.6002 12.3283C24.5833 12.3283 24.5581 12.3114 24.5412 12.3114C24.5244 12.3114 24.5244 12.3283 24.5244 12.3367C24.5076 12.3535 24.4991 12.3619 24.4991 12.3872C24.4739 12.3872 24.4402 12.3535 24.4402 12.3535C24.4402 12.3114 24.4907 12.2693 24.4907 12.2693C24.4907 12.2525 24.4655 12.2441 24.4486 12.2272L24.4655 12.2357ZM24.0698 12.8334C24.0698 12.8334 24.0109 12.8502 23.9772 12.8502C23.9603 12.8502 23.9435 12.8671 23.9351 12.8839C23.9519 12.8839 23.9688 12.9092 23.994 12.9092C23.994 12.9092 24.0277 12.8755 24.0445 12.8671C24.0614 12.8671 24.1119 12.8671 24.1203 12.8671C24.1035 12.8502 24.1035 12.8334 24.0782 12.8334H24.0698ZM23.5731 13.3553H23.5562C23.5394 13.3722 23.4889 13.3974 23.4805 13.3974V13.4311C23.4805 13.4311 23.4805 13.448 23.4805 13.4564C23.4805 13.4564 23.5057 13.4564 23.5394 13.4395C23.5562 13.4395 23.5647 13.4227 23.5647 13.4143C23.5647 13.3974 23.5815 13.3806 23.5815 13.3638L23.5731 13.3553ZM23.7583 13.1533C23.7415 13.1701 23.733 13.1786 23.7162 13.1954C23.7162 13.2207 23.6994 13.2375 23.6741 13.2459C23.6573 13.2459 23.6404 13.2627 23.632 13.2712C23.632 13.288 23.632 13.288 23.6488 13.3048C23.6657 13.3217 23.6657 13.3469 23.6909 13.3553C23.7078 13.3553 23.7078 13.3385 23.7246 13.3301C23.7246 13.3301 23.7415 13.3133 23.7583 13.288C23.7835 13.2459 23.792 13.2291 23.792 13.2291C23.792 13.187 23.7667 13.1533 23.7667 13.1533H23.7583ZM22.7228 14.2814C22.706 14.2814 22.6975 14.2814 22.6807 14.2982C22.6639 14.2982 22.6386 14.3151 22.6386 14.3151C22.5881 14.3151 22.5713 14.3151 22.5292 14.2982C22.5292 14.3235 22.5292 14.3572 22.546 14.3656C22.5628 14.3824 22.5881 14.3824 22.6049 14.3824C22.6386 14.3824 22.6554 14.3824 22.6975 14.3656C22.7144 14.3908 22.7312 14.4077 22.7396 14.4329C22.7817 14.4329 22.8491 14.4161 22.8491 14.4161C22.8378 14.4049 22.8266 14.3965 22.8154 14.3908C22.7986 14.3656 22.7817 14.3488 22.7565 14.3235C22.7396 14.3235 22.7565 14.3067 22.7396 14.2898L22.7228 14.273V14.2814ZM23.6825 13.4564C23.6404 13.4816 23.5983 13.49 23.5899 13.49C23.5731 13.5069 23.531 13.4732 23.531 13.5069C23.531 13.5237 23.5141 13.5574 23.5141 13.5574C23.531 13.5574 23.5731 13.5574 23.5899 13.5574C23.6068 13.5574 23.6741 13.5237 23.6825 13.5153V13.4732V13.4564ZM23.3121 13.6163C23.2784 13.6668 23.2784 13.7342 23.2784 13.7931C23.2784 13.8521 23.2784 13.911 23.3205 13.9699C23.3458 13.9699 23.3626 13.9531 23.3879 13.9447L23.4047 13.9278C23.3879 13.911 23.371 13.9026 23.3626 13.8857C23.3458 13.8857 23.3626 13.8857 23.3879 13.8857C23.4131 13.8857 23.4215 13.8857 23.4384 13.8857C23.4552 13.8857 23.4552 13.8689 23.4552 13.8436C23.4552 13.8184 23.4131 13.8184 23.4047 13.8184C23.4047 13.8184 23.43 13.8184 23.4468 13.7763V13.7342C23.4131 13.7342 23.4047 13.7174 23.3795 13.7342C23.3795 13.7342 23.4047 13.6921 23.43 13.6753C23.4131 13.6584 23.3879 13.65 23.3879 13.65C23.3626 13.6332 23.3289 13.6332 23.3037 13.6332L23.3121 13.6163ZM23.8593 13.288C23.8425 13.3133 23.8256 13.3217 23.8172 13.3301C23.8004 13.3469 23.8004 13.3638 23.7751 13.389V13.4648C23.8088 13.448 23.8256 13.448 23.8593 13.3974C23.8762 13.3806 23.8762 13.3301 23.8593 13.2796V13.288ZM24.3055 12.9933C24.3055 12.9933 24.2297 13.0102 24.1287 13.0102C24.0277 13.0102 24.0866 13.027 24.0866 13.0439C24.0866 13.0439 24.0698 13.0607 24.0698 13.0775H24.095C24.1203 13.0775 24.1203 13.0775 24.1371 13.0775C24.154 13.0775 24.2382 13.0607 24.2634 13.0607C24.2634 13.027 24.2971 13.027 24.3055 13.0102V12.9933ZM22.8322 14.273C22.8154 14.273 22.8322 14.3319 22.8322 14.3403C22.8322 14.374 22.8575 14.4329 22.8659 14.4329C22.8827 14.4329 22.9333 14.4329 22.9333 14.4329C22.9501 14.4329 22.9754 14.4329 22.9922 14.4161C22.9754 14.3993 22.9669 14.3908 22.9585 14.374C22.9585 14.374 22.8996 14.2982 22.8912 14.2898C22.8743 14.273 22.8912 14.273 22.8743 14.2646C22.8407 14.2646 22.8407 14.2477 22.8322 14.2646V14.273ZM23.7246 13.5995C23.7246 13.5995 23.6741 13.5995 23.6404 13.6163H23.5394C23.5394 13.6416 23.5562 13.65 23.5562 13.6584C23.5731 13.6753 23.5731 13.6921 23.5899 13.6921C23.6152 13.6921 23.6404 13.6921 23.6573 13.6921C23.6825 13.6921 23.6994 13.6921 23.6994 13.6921C23.6994 13.6753 23.6994 13.6668 23.7162 13.6416L23.733 13.6247L23.7246 13.5995ZM23.6488 13.7258C23.632 13.7258 23.5983 13.7258 23.5647 13.7258C23.5647 13.751 23.5815 13.8015 23.5983 13.8015H23.6488C23.6657 13.8015 23.6825 13.8015 23.6994 13.8015C23.7162 13.8015 23.7162 13.8015 23.7415 13.8015C23.7246 13.8015 23.7162 13.7594 23.7078 13.7594C23.6909 13.7426 23.6741 13.7342 23.6488 13.7258ZM23.9098 13.4816C23.9098 13.4985 23.8677 13.5321 23.8425 13.549C23.8256 13.5658 23.8088 13.549 23.8004 13.5742C23.8004 13.5911 23.8004 13.5995 23.8004 13.6079C23.8004 13.6247 23.8004 13.6416 23.8004 13.6584C23.8172 13.6584 23.8256 13.6584 23.8341 13.6416C23.8593 13.6163 23.8677 13.6163 23.9014 13.5995C23.9182 13.5995 23.9182 13.5574 23.9182 13.5321C23.9182 13.5069 23.9014 13.49 23.9014 13.49L23.9098 13.4816ZM22.9669 14.2814C22.9838 14.3488 23.0006 14.3908 23.0174 14.4077C23.0343 14.4414 23.0511 14.4498 23.068 14.475C23.0904 14.475 23.1072 14.475 23.1185 14.475H23.1942C23.1774 14.4582 23.1353 14.4245 23.1101 14.4077C23.0932 14.3908 23.068 14.3656 23.0427 14.3067C23.0174 14.3067 22.9922 14.2898 22.9669 14.2898V14.2814ZM23.733 13.8605C23.7162 13.8436 23.6909 13.8605 23.6657 13.8605C23.6404 13.8605 23.6236 13.8605 23.5983 13.8605C23.5815 13.8605 23.5815 13.8773 23.5815 13.8941C23.5815 13.911 23.5647 13.9362 23.5815 13.9362C23.5815 13.9699 23.6152 13.9362 23.632 13.9362C23.6488 13.9362 23.7246 13.8689 23.7246 13.8689C23.7246 13.8521 23.7246 13.8521 23.7415 13.8436L23.733 13.8605ZM23.5478 14.0036C23.5478 14.0036 23.5141 14.0036 23.5057 14.0204C23.4889 14.0204 23.4889 14.0204 23.4721 14.0457C23.4721 14.0457 23.4552 14.0625 23.4721 14.0709C23.4721 14.0709 23.5142 14.0709 23.5226 14.0878C23.5394 14.0709 23.5562 14.0625 23.5731 14.0541C23.5899 14.0541 23.6152 14.0373 23.6404 14.0288C23.6152 14.0288 23.5983 14.012 23.5562 14.012L23.5478 14.0036ZM23.5899 14.1299C23.5899 14.1299 23.531 14.1467 23.4973 14.1551C23.4805 14.1551 23.4552 14.1551 23.4384 14.1551C23.4215 14.1551 23.4215 14.1804 23.4131 14.1972C23.4131 14.2141 23.4384 14.2309 23.4636 14.2309C23.4889 14.2309 23.5142 14.2309 23.531 14.2141C23.531 14.2141 23.5478 14.1972 23.5478 14.1888C23.5647 14.172 23.5647 14.1467 23.5815 14.1299H23.5899ZM24.1119 13.5911C24.0866 13.5911 24.0529 13.6079 24.0277 13.6079C24.0277 13.6079 24.0109 13.6247 24.0109 13.65C24.0109 13.6753 24.0109 13.6753 24.0109 13.6921C24.0277 13.6921 24.0445 13.6921 24.0614 13.6753C24.0866 13.6584 24.1035 13.6332 24.1119 13.6079V13.5911ZM23.371 14.374C23.3289 14.374 23.2868 14.3908 23.2784 14.3908C23.2279 14.3908 23.2111 14.3908 23.1858 14.374C23.2027 14.3993 23.2195 14.4329 23.2279 14.4498H23.2616C23.2784 14.4498 23.3374 14.4498 23.3542 14.4498C23.371 14.4498 23.3963 14.4498 23.4131 14.4498C23.43 14.4498 23.4384 14.4329 23.4552 14.4329C23.4552 14.4329 23.4552 14.4161 23.4384 14.4161C23.4215 14.3993 23.3963 14.3908 23.371 14.374ZM23.8172 13.7679C23.8172 13.7847 23.8172 13.81 23.8341 13.81C23.8341 13.81 23.8341 13.8352 23.8509 13.8521C23.8677 13.8521 23.893 13.8521 23.9182 13.8521C23.9351 13.8689 23.9435 13.8941 23.9772 13.8941C23.9772 13.8941 23.9772 13.8689 23.9772 13.8605C23.9772 13.8436 23.9603 13.8352 23.9519 13.8268C23.9519 13.81 23.9351 13.8015 23.9267 13.7847C23.9267 13.7679 23.8256 13.7594 23.8256 13.7594L23.8172 13.7679ZM24.5496 13.1028C24.5496 13.1196 24.5328 13.1617 24.5749 13.1617C24.6002 13.1786 24.6254 13.1786 24.6423 13.1786V13.1112C24.617 13.0944 24.5917 13.086 24.5496 13.0944V13.1028ZM24.3897 13.0354C24.3308 13.0523 24.3055 13.0775 24.2887 13.1112C24.2887 13.128 24.2213 13.2375 24.2213 13.2627C24.2213 13.3048 24.2213 13.3638 24.2466 13.3974C24.2297 13.3974 24.1961 13.4143 24.1792 13.3974C24.1624 13.3974 24.1624 13.3301 24.1624 13.3133C24.1624 13.2459 24.1792 13.2038 24.1792 13.187C24.1961 13.1701 24.1961 13.1533 24.1961 13.1449C24.1792 13.1449 24.154 13.1449 24.1456 13.1617C24.1287 13.187 24.1287 13.2038 24.1203 13.2291C24.1035 13.2627 24.1035 13.2712 24.1035 13.3217C24.1035 13.3385 24.1035 13.3385 24.1035 13.3806C24.1035 13.3806 24.0866 13.3806 24.0866 13.3638C24.0698 13.3469 24.0529 13.3385 24.0445 13.3217V13.2207C24.0445 13.1954 24.0614 13.1786 24.0698 13.1533C24.0698 13.1365 24.0361 13.1533 24.0193 13.1533C24.0193 13.1533 24.0024 13.1701 24.0024 13.1786C24.0024 13.1954 23.9856 13.2206 23.9772 13.2459C23.9772 13.2627 23.9603 13.3048 23.9603 13.3385C23.9772 13.3722 23.9603 13.3722 23.9772 13.389C24.0193 13.4227 24.0698 13.4395 24.1203 13.4564C24.1371 13.4564 24.2129 13.49 24.2213 13.49C24.2297 13.49 24.2382 13.49 24.2382 13.49C24.2382 13.5153 24.2129 13.6332 24.2382 13.6668C24.255 13.6837 24.2634 13.6921 24.3055 13.7089C24.2802 13.7342 24.2718 13.751 24.2718 13.7763C24.2718 13.8015 24.2971 13.8436 24.3223 13.8605C24.3223 13.8605 24.4234 13.9026 24.516 13.9026C24.6086 13.9026 24.5833 13.8773 24.617 13.8521V13.7847C24.5917 13.7847 24.5581 13.8015 24.5244 13.81C24.4991 13.81 24.4402 13.81 24.3897 13.7931C24.3897 13.7931 24.3729 13.7763 24.3729 13.7594C24.356 13.7426 24.3729 13.7426 24.3729 13.7174C24.3981 13.7426 24.4234 13.7426 24.4655 13.751C24.4823 13.751 24.5749 13.7258 24.6254 13.7005V13.65C24.6254 13.65 24.4991 13.6668 24.4907 13.65C24.4655 13.65 24.4486 13.65 24.4234 13.6332C24.4234 13.6163 24.4234 13.6079 24.4402 13.5911C24.457 13.5742 24.4655 13.5742 24.4823 13.5742H24.6254V13.5153C24.5665 13.5153 24.5749 13.5153 24.5412 13.4985C24.5244 13.4985 24.5076 13.4985 24.4907 13.4985C24.4739 13.4985 24.4655 13.4985 24.457 13.4816C24.4402 13.4648 24.4402 13.448 24.457 13.4227C24.4739 13.4227 24.4991 13.4227 24.516 13.4227C24.5412 13.4227 24.5749 13.4395 24.6086 13.448C24.6086 13.448 24.6254 13.448 24.6338 13.4648V13.389C24.6338 13.389 24.6086 13.3722 24.5749 13.3722C24.5917 13.3553 24.5749 13.3301 24.5749 13.3217C24.5749 13.3048 24.5496 13.288 24.5328 13.2796C24.516 13.3048 24.516 13.3553 24.4991 13.3553C24.457 13.3722 24.4486 13.3553 24.4234 13.3553C24.3813 13.3553 24.3729 13.3974 24.3644 13.4311C24.3644 13.448 24.3644 13.4732 24.3644 13.4816C24.3644 13.4985 24.3897 13.5069 24.3897 13.5237C24.3897 13.5237 24.3729 13.5574 24.3644 13.5742L24.3476 13.6163C24.3308 13.6163 24.3223 13.5995 24.3139 13.5995L24.2887 13.5742C24.2887 13.5574 24.2887 13.5406 24.3055 13.5237C24.3055 13.49 24.3223 13.4648 24.3223 13.4564C24.3223 13.448 24.3223 13.4311 24.3223 13.4311C24.3223 13.4143 24.3055 13.4143 24.3055 13.3974C24.2887 13.3553 24.2803 13.3553 24.2803 13.3133C24.2803 13.2712 24.3392 13.2543 24.356 13.2375C24.3729 13.2375 24.4234 13.187 24.4823 13.1617C24.4823 13.1449 24.4655 13.1449 24.4655 13.1365C24.4486 13.1365 24.3981 13.1365 24.3981 13.1533C24.3392 13.1701 24.3308 13.2038 24.3223 13.2038C24.3223 13.187 24.3223 13.1617 24.3223 13.1533C24.3223 13.1533 24.3392 13.128 24.3476 13.1112C24.3476 13.1112 24.3644 13.0944 24.3644 13.086C24.3897 13.086 24.4065 13.086 24.4318 13.0691H24.4486C24.4065 13.0523 24.4065 13.027 24.3729 13.0186L24.3897 13.0354ZM23.792 13.911C23.792 13.911 23.792 13.9278 23.792 13.9447C23.792 13.9615 23.792 13.9699 23.792 13.9868C23.8088 14.0036 23.8341 14.0036 23.8593 14.012C23.8762 14.012 23.893 14.0288 23.9014 14.0288C23.9014 14.0288 23.8846 13.9783 23.8846 13.9615C23.8677 13.9447 23.8677 13.9278 23.8425 13.9194C23.8256 13.9194 23.8172 13.9026 23.792 13.9194V13.911ZM23.4721 14.3067C23.4384 14.3235 23.43 14.3235 23.4131 14.3488C23.4131 14.3488 23.4384 14.3908 23.4552 14.3908C23.4552 14.4077 23.4721 14.4161 23.4721 14.4245C23.4889 14.4245 23.4889 14.4245 23.4973 14.4077C23.5142 14.4077 23.5394 14.4077 23.5647 14.4077C23.5647 14.4077 23.5478 14.3908 23.5394 14.3908C23.4973 14.3572 23.4721 14.3235 23.4721 14.3151V14.3067ZM24.1708 13.751C24.1708 13.751 24.154 13.751 24.1371 13.7679C24.1035 13.7847 24.0866 13.7679 24.0445 13.7847V13.8268C24.0445 13.8436 24.0445 13.8436 24.0445 13.8605C24.0698 13.8605 24.0866 13.8605 24.1119 13.8352C24.154 13.8184 24.154 13.7594 24.154 13.7594L24.1708 13.751ZM23.8172 14.0541H23.7751C23.7583 14.0541 23.733 14.0541 23.7162 14.0541C23.7162 14.0541 23.7162 14.0709 23.7162 14.0794V14.1215C23.7162 14.1215 23.7667 14.1383 23.8088 14.1383C23.8256 14.1383 23.8425 14.1551 23.8509 14.1551C23.8762 14.172 23.8846 14.172 23.9182 14.1888C23.9182 14.172 23.9182 14.1467 23.9182 14.1383C23.9182 14.1215 23.9014 14.1046 23.9014 14.0962C23.9014 14.0962 23.8509 14.0709 23.8341 14.0625L23.8172 14.0541ZM23.6068 14.2646C23.5899 14.2814 23.5731 14.2814 23.5647 14.2898C23.5647 14.3151 23.6068 14.4161 23.6068 14.4161C23.6404 14.3993 23.6741 14.3824 23.7078 14.374C23.7078 14.3572 23.7078 14.3488 23.6909 14.3319C23.6657 14.3151 23.6236 14.2814 23.6152 14.2646H23.6068ZM23.7078 14.2393C23.7078 14.2561 23.7078 14.2814 23.7078 14.2982C23.7078 14.3151 23.7078 14.3656 23.7078 14.3656C23.7246 14.3656 23.733 14.3656 23.7499 14.3488C23.7667 14.3488 23.7751 14.3319 23.8088 14.3319C23.8425 14.3319 23.8509 14.3319 23.8762 14.3319C23.8762 14.3319 23.8341 14.2477 23.8172 14.2477C23.8004 14.2477 23.7835 14.2477 23.7667 14.2477C23.7499 14.2477 23.7246 14.2477 23.6994 14.2477L23.7078 14.2393ZM24.0614 14.0204C24.0361 14.0878 24.0109 14.0794 23.994 14.1046C23.9688 14.1383 23.9435 14.1888 23.9182 14.2646C23.9182 14.2814 23.9182 14.3319 23.9182 14.3488C24.0109 14.3993 24.095 14.4161 24.1792 14.4498C24.1961 14.4498 24.2382 14.4666 24.2382 14.4666C24.2213 14.5003 24.2045 14.534 24.2045 14.5592C24.2045 14.6097 24.2213 14.6434 24.2718 14.6602C24.2718 14.6771 24.255 14.7023 24.255 14.736C24.255 14.7781 24.2887 14.8202 24.3223 14.837C24.356 14.8539 24.3729 14.8623 24.3981 14.8539C24.4149 14.896 24.4402 14.9128 24.4655 14.9212C24.516 14.9381 24.6002 14.8876 24.617 14.8707V14.8034C24.5581 14.8202 24.5328 14.8455 24.4823 14.8202C24.4486 14.8034 24.4402 14.7613 24.4318 14.7529C24.4065 14.7529 24.3897 14.7865 24.3644 14.7781C24.3308 14.7613 24.3308 14.7276 24.3392 14.6855C24.3813 14.6855 24.4318 14.7023 24.4823 14.7023C24.5328 14.7023 24.6254 14.6771 24.6254 14.6771V14.6182C24.6086 14.6182 24.5833 14.6182 24.5665 14.6182C24.5496 14.6182 24.5328 14.6182 24.5244 14.6182C24.4991 14.6182 24.4739 14.6182 24.457 14.6182C24.4234 14.5508 24.4739 14.5761 24.4823 14.5592C24.4823 14.5592 24.4234 14.534 24.3981 14.5592V14.6013C24.3981 14.6013 24.3729 14.6013 24.356 14.5845C24.3308 14.5676 24.3308 14.5676 24.3055 14.5508C24.3055 14.5508 24.3055 14.5255 24.3055 14.5003C24.3055 14.5003 24.3223 14.4582 24.3223 14.4414C24.3392 14.4414 24.3729 14.475 24.3897 14.4835C24.4655 14.5087 24.5496 14.5087 24.6338 14.5003V14.4329C24.5917 14.4329 24.5412 14.4329 24.4991 14.4329C24.4402 14.4161 24.4318 14.4077 24.4318 14.3993C24.4318 14.3824 24.4486 14.374 24.457 14.3656C24.5244 14.3488 24.5749 14.3908 24.6338 14.3908V14.3403C24.6338 14.3403 24.6338 14.3235 24.6086 14.3151C24.5665 14.2982 24.5328 14.273 24.4991 14.273C24.4655 14.273 24.4402 14.273 24.4065 14.2982C24.3813 14.3151 24.3644 14.3403 24.3308 14.3824C24.3055 14.3993 24.2718 14.3824 24.2718 14.3824C24.2718 14.3824 24.2718 14.3572 24.2718 14.3403C24.2887 14.2898 24.2887 14.273 24.2971 14.2477C24.2971 14.2309 24.3223 14.2056 24.3392 14.1888C24.3392 14.1635 24.3813 14.1467 24.4318 14.1215C24.4318 14.1215 24.3476 14.1046 24.3308 14.1046C24.2971 14.1299 24.2718 14.1551 24.255 14.1972C24.2297 14.2309 24.2129 14.2982 24.1961 14.3319C24.1961 14.3319 24.1792 14.3151 24.1624 14.3151C24.1624 14.273 24.1624 14.2309 24.1624 14.2141C24.1792 14.1467 24.2213 14.0709 24.2466 14.0373C24.2466 14.0373 24.2213 14.0204 24.2045 14.0204C24.2045 14.0204 24.1456 14.113 24.1287 14.1046C24.1119 14.1299 24.095 14.1467 24.0866 14.1804C24.0866 14.2141 24.0698 14.2898 24.0698 14.2898C24.0698 14.2898 24.0445 14.273 24.0277 14.2477V14.1972C24.0277 14.1804 24.0445 14.1046 24.0698 14.0709C24.095 14.012 24.1119 13.9783 24.1203 13.9783C24.1035 13.9783 24.0782 13.9615 24.0698 13.9615L24.0614 14.0204ZM24.5749 14.1635C24.5581 14.1635 24.5328 14.1888 24.5244 14.2225C24.5244 14.2646 24.5917 14.2477 24.617 14.2646C24.617 14.2646 24.6338 14.2814 24.6423 14.2646V14.172C24.6423 14.172 24.5833 14.172 24.5749 14.172V14.1635ZM22.7817 11.8905L22.7228 11.9578L22.6891 11.9831L22.6723 11.9158L22.7817 11.8821V11.8905ZM22.6723 12.1515V12.1852L22.6975 12.2272L22.6554 12.2862L22.6302 12.2188L22.6723 12.1515ZM22.647 13.4143C22.6639 13.4143 22.6807 13.4395 22.6807 13.4564C22.647 13.49 22.6218 13.5237 22.6134 13.5742C22.5881 13.5742 22.5628 13.5574 22.546 13.5406C22.5292 13.5237 22.5207 13.4985 22.5292 13.4732C22.5292 13.4395 22.546 13.4311 22.5544 13.4227C22.5797 13.4059 22.6302 13.4059 22.6554 13.4227L22.647 13.4143ZM22.7228 13.6163C22.7396 13.6332 22.7228 13.6584 22.7228 13.6921C22.706 13.6921 22.6807 13.6921 22.6807 13.7089C22.6639 13.7258 22.6639 13.7426 22.6554 13.7426C22.6386 13.7679 22.6554 13.7005 22.6554 13.6753C22.6554 13.6584 22.6807 13.549 22.7144 13.6247L22.7228 13.6163ZM22.7901 13.49C22.7901 13.49 22.807 13.49 22.807 13.5069C22.8238 13.5069 22.8238 13.5237 22.8322 13.5406L22.8491 13.5574C22.8659 13.5742 22.8659 13.5995 22.8659 13.6163C22.8659 13.6332 22.8659 13.6584 22.8491 13.6668C22.8491 13.6668 22.9164 13.6668 22.9417 13.6668C22.9417 13.6416 22.9754 13.6332 22.9838 13.6247C22.9838 13.6247 22.9838 13.6247 22.9838 13.6079C23.009 13.5742 23.0343 13.5153 23.0343 13.5406C23.0511 13.5406 23.0764 13.5574 23.0764 13.5658C23.0595 13.5911 23.0511 13.6163 23.0343 13.6416C23.0174 13.6416 23.009 13.6584 22.9922 13.6584C22.9754 13.6753 22.9754 13.6753 22.9669 13.7005C22.9248 13.7005 22.9248 13.7005 22.8743 13.7005C22.8238 13.7005 22.807 13.7174 22.807 13.7174C22.807 13.7174 22.7817 13.7005 22.7733 13.6753C22.7733 13.6753 22.7733 13.549 22.7733 13.4985L22.7901 13.49ZM22.6639 13.8352C22.6891 13.8352 22.706 13.8521 22.7312 13.8773C22.7481 13.8941 22.7312 13.8941 22.7312 13.9278V13.9615C22.7144 13.9615 22.706 13.9447 22.6891 13.9278C22.6723 13.911 22.6639 13.8857 22.6639 13.8773C22.6639 13.8605 22.647 13.8352 22.6639 13.8352ZM22.5965 14.0036H22.6134C22.6134 14.0036 22.6386 14.0373 22.6554 14.0457C22.6723 14.0794 22.6975 14.0878 22.6975 14.1046C22.6807 14.1215 22.6639 14.1467 22.647 14.1551C22.6218 14.172 22.5965 14.172 22.5881 14.172C22.546 14.1551 22.5376 14.113 22.5292 14.0878C22.5292 14.0709 22.5292 14.0625 22.546 14.0457C22.5628 14.0204 22.5628 14.012 22.6049 14.0036H22.5965ZM23.1606 13.5742H23.2027C23.2027 13.5995 23.1774 13.6163 23.1774 13.6416C23.1662 13.6416 23.1578 13.6416 23.1521 13.6416C23.1521 13.5995 23.1521 13.5911 23.169 13.5742H23.1606ZM22.8154 13.8689H22.8575C22.8996 13.8689 22.908 13.8689 22.9669 13.8857H22.9838C23.0006 13.8857 23.0006 13.9194 23.0259 13.9278C23.0427 13.9278 23.0595 13.9278 23.068 13.9531C23.068 13.9699 23.0848 13.9868 23.0848 13.9952C23.0848 14.012 23.0427 14.012 23.0259 13.9952C23.0006 13.9783 22.9838 13.9531 22.9838 13.9362C22.9838 13.911 22.9248 13.9194 22.9164 13.9194C22.8996 13.9194 22.8827 13.9194 22.8743 13.9194C22.8743 13.9362 22.8743 13.9362 22.8743 13.9615C22.8743 13.9868 22.8575 14.0036 22.8575 14.012C22.8407 14.012 22.8154 14.0541 22.7901 14.0625C22.7901 14.0288 22.7901 14.012 22.7901 13.9783V13.8941C22.7901 13.8773 22.807 13.8605 22.8238 13.8605L22.8154 13.8689ZM23.1606 13.9194L23.1774 13.9531C23.1774 13.9699 23.1942 13.9699 23.1942 13.9952C23.1774 13.9952 23.1521 14.012 23.1521 14.012C23.1521 14.012 23.1521 13.9868 23.1521 13.9699C23.1521 13.9531 23.1521 13.9447 23.1521 13.9278L23.1606 13.9194Z" fill="white"/></svg>