<svg viewBox="0 0 160 160" fill="none" xmlns="http://www.w3.org/2000/svg"><path d="M82.47 16H45.76C43.0814 16 40.91 18.1714 40.91 20.85V106.04C40.91 108.719 43.0814 110.89 45.76 110.89H82.47C85.1486 110.89 87.32 108.719 87.32 106.04V20.85C87.32 18.1714 85.1486 16 82.47 16Z" fill="#232144"/><path d="M82.41 17.6201H45.82C43.9919 17.6201 42.51 19.1021 42.51 20.9301V105.97C42.51 107.798 43.9919 109.28 45.82 109.28H82.41C84.2381 109.28 85.72 107.798 85.72 105.97V20.9301C85.72 19.1021 84.2381 17.6201 82.41 17.6201Z" fill="#E6E3DA"/><path d="M53.17 17.4404H75.04C75.04 19.6404 73.26 21.4304 71.06 21.4304H57.15C54.95 21.4304 53.17 19.6504 53.17 17.4504V17.4404Z" fill="#232144"/><path d="M70.08 17.96H58.15V19.09H70.08V17.96Z" fill="#E6E3DA"/><path d="M70.51 69.0897L72.91 69.3097C72.86 69.8097 72.8 70.3197 72.72 70.8297C72.29 73.5197 71.39 76.0897 70.03 78.4797L67.94 77.2797C69.15 75.1397 69.96 72.8397 70.34 70.4397C70.41 69.9797 70.47 69.5297 70.51 69.0797V69.0897ZM72.79 63.9097L70.4 64.2497C68.8 53.0797 56.97 57.1097 58.17 64.2497C58.54 66.4497 59.4 71.5897 54.26 74.4997L53.07 72.3997C56.74 70.3197 56.15 66.7797 55.79 64.6597C54.06 54.2797 70.74 49.5997 72.79 63.9097ZM64.34 47.7197C74.18 47.7197 82.23 56.9497 79.79 67.2997L77.53 66.7697C79.88 56.8097 71.56 50.0497 64.34 50.0497C62.53 50.0497 60.77 50.3997 59.12 51.0897L58.22 48.9397C60.16 48.1297 62.22 47.7197 64.34 47.7197ZM53.12 52.3797L54.76 54.0197C51.28 57.5097 50.37 62.0097 50.95 65.7097L48.65 66.0697C48.14 62.7797 48.43 57.0597 53.12 52.3797Z" fill="#FF6200"/><path d="M111.02 97.6199C107.03 97.6199 103.74 100.61 103.25 104.47V101.81C103.25 97.4799 99.74 93.9699 95.41 93.9699C91.42 93.9699 88.13 96.9599 87.64 100.82V100.04C87.64 95.7099 84.13 92.1999 79.8 92.1999C75.81 92.1999 72.52 95.1899 72.03 99.0499V67.7199C72.03 63.3899 68.52 59.8799 64.19 59.8799C59.86 59.8799 56.35 63.3899 56.35 67.7199V144H118.83V105.46C118.83 101.13 115.32 97.6199 110.99 97.6199H111.02Z" fill="#9E3F39"/></svg>