<?xml version="1.0" encoding="UTF-8"?><svg xmlns="http://www.w3.org/2000/svg" version="1.1" viewBox="0 0 160 160"><defs><style>.cls-1 {
        fill: #797878;
      }

      .cls-2 {
        fill: #fff;
      }

      .cls-3 {
        fill: #ff6200;
      }</style></defs><!--Generator: Adobe Illustrator 28.6.0, SVG Export Plug-In . SVG Version: 1.2.0 Build 709)--><g><g id="Card"><g><path class="cls-1" d="M114.1,15.9h-6.7s-.3,0-.3,0l-2.4,3.7-13.8.2-2.7-3.8h-2.1s-40.4.1-40.4.1c-3.5,0-6.3,2.8-6.3,6.3l.3,115.4c0,3.5,2.8,6.3,6.3,6.3l68.4-.2c3.5,0,6.3-2.8,6.3-6.3l-.3-115.4c0-3.5-2.8-6.3-6.3-6.3Z"/><g><path class="cls-2" d="M82.3,119.2v6.8s2.9,0,2.9,0c.9,0,1.7-.6,1.7-1.2v-5.5s-4.6,0-4.6,0Z"/><path class="cls-2" d="M82.3,106.8v6.6s4.5,0,4.5,0v-5.4c0-.7-.8-1.2-1.7-1.2h-2.8Z"/><rect class="cls-2" x="78.2" y="106.8" width="3.6" height="5.5" transform="translate(-.1 .1) rotate(0)"/><rect class="cls-2" x="78.2" y="120.5" width="3.6" height="5.5" transform="translate(-.2 .1) rotate(0)"/><rect class="cls-2" x="73.2" y="113.9" width="1.8" height="4.9" transform="translate(-.2 0) rotate(0)"/><rect class="cls-2" x="85" y="113.9" width="1.8" height="4.9" transform="translate(-.2 .1) rotate(0)"/><path class="cls-2" d="M77.8,113.4v-6.6s-2.9,0-2.9,0c-.9,0-1.7.5-1.7,1.2v5.4s4.6,0,4.6,0Z"/><path class="cls-2" d="M73.2,119.2v5.5c0,.7.8,1.2,1.7,1.2h2.9s0-6.8,0-6.8h-4.6Z"/><polygon class="cls-2" points="84.8 120 75.2 120.1 75.2 112.7 84.8 112.6 84.8 120"/><path class="cls-3" d="M85,120.4h-10s0-8.2,0-8.2h10s0,8.2,0,8.2ZM75.5,120h9.2s0-7.2,0-7.2h-9.2s0,7.2,0,7.2Z"/><path class="cls-2" d="M82.3,119.2v6.8s2.9,0,2.9,0c.9,0,1.7-.6,1.7-1.2v-5.5s-4.6,0-4.6,0Z"/><path class="cls-2" d="M82.3,106.8v6.6s4.5,0,4.5,0v-5.4c0-.7-.8-1.2-1.7-1.2h-2.8Z"/><rect class="cls-2" x="78.2" y="106.8" width="3.6" height="5.5" transform="translate(-.1 .1) rotate(0)"/><rect class="cls-2" x="78.3" y="120.5" width="3.6" height="5.5" transform="translate(-.2 .1) rotate(0)"/><rect class="cls-2" x="73.2" y="113.9" width="1.8" height="4.9" transform="translate(-.2 0) rotate(0)"/><rect class="cls-2" x="85.1" y="113.9" width="1.8" height="4.9" transform="translate(-.2 .1) rotate(0)"/><path class="cls-2" d="M77.8,113.4v-6.6s-2.9,0-2.9,0c-.9,0-1.7.5-1.7,1.2v5.4s4.6,0,4.6,0Z"/><path class="cls-2" d="M73.2,119.2v5.5c0,.7.8,1.2,1.7,1.2h2.9s0-6.8,0-6.8h-4.6Z"/><polygon class="cls-2" points="84.9 120 75.3 120.1 75.3 112.7 84.8 112.6 84.9 120"/><path class="cls-1" d="M85.1,120.4h-10s0-8.2,0-8.2h10s0,8.2,0,8.2ZM75.5,120h9.2s0-7.2,0-7.2h-9.2s0,7.2,0,7.2Z"/></g><path class="cls-2" d="M69,24.8h-15.1c-3.2,0-5.7,2.6-5.7,5.7v15.1c0,3.2,2.6,5.7,5.7,5.7h15.1c3.2,0,5.7-2.6,5.7-5.7v-15.1c0-3.2-2.6-5.7-5.7-5.7ZM72.4,43.3c-.4-.1-.6-.3-1-.4v-.8c.6.2,1.6.3,2.7.7v1.4c-.7-.4-1.6-.8-1.7-.9ZM74.1,45.6c0,.8-.2,1.5-.5,2.2-.1-.2-.2-.4-.2-.5q-.2-.1-.5-.1c-.1-.1-.3-.1-.4-.1,0,0,.1.5.3,1,0,.2.2.3.3.4-.3.4-.6.7-1,1-.1-.3-.2-.6-.2-.6-.2-.2.2-.9-.3-.9-.2-.1-.8-.3-.8-.3-.1.3-.1.9,0,1.2,0,.2.3.8.5,1.1-.4.2-.8.4-1.3.4,0-.3-.1-.5-.2-.7v-1.6c-.4.1-.5.2-.6.2-.3.2-.5.3-.5.5,0,.4.1.8.1,1,0,.3,0,.5.1.6.1,0,.3,0,.4.1,0,0-.2,0-.3,0h-1.4c.2-.3.4-.5.5-.7.1-.3,0-.8-.1-1.3-.4.1-1.2.2-1.2.5-.1.3,0,.6,0,.8.1.2.1.4.1.7s0,0,0,0h-.8c0-.2,0-.3,0-.4-.1-.3,0-.6-.1-.9-.1-.2-.3-.3-.5-.3s-.7-.3-.7-.1c-.5,0-.1.5-.1.8s.3.6.6.9h-7c0,0,.2-.1.3-.2.2-.3.8-.9,1-1.1-.2-.2-.3-.5-.4-.7-.4,0-1.9.6-1.9.6.3.5.5.9.7,1.5h-3.7c-2.8,0-5-2.3-5-5v-15.1c0-2.8,2.3-5,5-5h15.1c2.2,0,4.1,1.5,4.8,3.5-.8-.5-1.7-1-2.6-1.4-.6.5-1,.9-1.3.9s-.1-.6-.1-1c-.3,0-.5,0-.8-.1-.2.7-.3,1.6-.8,1.8-.2.1-.3.1-.4.1v-.8c0-.1.4-.8.3-.9,0,0-.9.2-1.1.3-.1.1-.7.4-.8.4,0,0-.3-.1-.4-.1-.3-.2-.5-.2-.8-.4-.4,1.2-.5,1.5-.5,1.3,0,0-1.4-.9-2-1.5-1.3.2-1.3.4-2.5.8-.4.4-1,.9-1.4,1.5-.2.4-.4.6-.6,1l1,.4c.1-.1.6-.8.7-1,.7-.4,2-1.1,2.4-1.5.1.2,1.3.9,1.8,1.2.4.3.8.4,1.2.6.2-.3.4-.6.6-1.3.3.2.7.2,1,.3,0,.4,0,.8.1,1.2,0,.2.2.1.6-.1.6-.2,1.2-.3,1.5-.4.7-.4,1.1-1.2,1.7-1.2s1.4.3,1.6.5c.3.1.5.2.8.2s.5-.2.8-.4c0,.4.1.7.1,1.1v11.5c-1.1-.5-2-.6-2.8-.6,0-.1-.2-.2,0-.3.3-.2.4-.3.5-.4.3-.4.5-.8.6-1.2.3-.6.6-.4.8-1.7-.3,0-.4.2-.7.3.1-.3.2-.6.2-.9.1-.6.3-1,.3-1.7.3-.1.8-.4.9-.8,0-.1,0-.4.1-.8,0-.6.1-1.1-.1-1.5,0-.1-.7-1.1-1.2-1.4-.7-.3-1-.2-1.5-.1-.6,0-1.4.6-1.4,1.7-.6,0-1.8.1-2.6.7-.6-.3-1.1-.4-1.6-.5h-.9c-.1-.4-.3-.8-.7-1.1-.5-.3-1.1-.7-1.8-.7s-.6-.1-.9.1c-.3.2-.8.4-.9.8-.2.5-.4.9-.4,1.4s.3.9.6,1.4c.1.2.2.2.4.3.1,0,.5.2.6.3.1.1-.1.4-.1,1s0,.5.1.9c0,.4.1.8.2,1.1-.3,0-.5-.3-.7-.1,0,.2.2.7.4,1.1.5.5,1,1,1.3,1.6,0,.1,0,.3.1.3-.7.1-1.4.1-2.2.3-.6.2-1.3.5-1.9.8,0,.4.1.7.1.7.1,0,1-.5,1.8-.7,1.3-.4,2.1-.3,2.1-.3.1.2.2.5.1.6-1.2.5-2.5,1.1-3.6,1.8.1.2,0,.5.2.7,1-.6,2.5-1.3,3.5-1.7.4-.1.4,0,.6,0,.1.1.3.5.5.5.3,0,.6-.3.9-.4.6-.2,1.1-.4,1.7-.5.2-.1.2-.3.2-.5q.1-.2.1-.5c0-.1-.4-.2-.6-.6-.2-.3,0-.6-.1-.6-.3.2-.7.4-.8,0-.1-.3-.1-.7.2-.8,1-.4,2.2-.4,3.2,0,.2,0,.3.2.3.4.1.2,0,.4-.2.6-.3.1-.6-.3-.6,0s-.2.7-.7.9c-.1.1,0,.4.1.7,0,.1,0,.3.1.3.4.1,1,.2,1.3.4.4.2,1.1.8,1.2.7.3-.2.4-.5.6-.7,1,.5,1.9.8,3.1,1.5v.7ZM69.6,40.1c-.1-.2-.2-.4-.3-.6-.2-.2-.3-.2-.6-.4,0-.7-.1-.7-.1-1.4s-.2-1.2-.2-1.2c0-.1.3-.4.6-.5,0,0,1.9,0,2.9.1,0,0-.1.2-.2.2-.1.2-.3.3-.5.4-.1,0-.2.2-.2.3-.2.3-.5.4-.9.4s-.6,0-.8-.4c0,0,.1,1.2.1,1.5s0,.1,0,.1c.4.1.5.5.7.7,0,0,.1.1.2.1.4.3,1.3.7.9.7,0,.2-.3.7-.4.7-.3-.3-.8-.5-1.2-.7ZM70.6,41.9c0,.1-.1.6-.1.6-.4-.1-.7-.4-1.2-.4q0-.3,0-.4c.6-.1.9.1,1.2.2ZM67.9,33.9c-.4-.4.6-.1,1.1,0,.2,0,2,.4.8.9-.2.2-.7.1-1.2.1,0-.2,0-.6-.2-.6-.2-.2-.5-.2-.5-.4ZM71,31.9c.3-.3.7-.4,1.1-.3.5.1.6.2.8.4.3.4.2,1.2.1,1.7-.1.3-.4.5-.7.5-.5-.6-1-1-1.7-1.2-.1-.4.2-.8.4-1.1ZM64.7,39.8c-.1.3-.1.5-.4.6-.3.1-.5.4-.7.3-.3-.2-.2-.7,0-1,.2-.3.6-.5.9-.6.4-.1.3-.9.3-1,.1-.2,0-.5,0-.7-.2.1-.2,0-.6.1-.4,0-.6-.2-.8-.4-.2-.2-.7-.6-.9-1,.5-.1.9-.1,1.4-.1h1.3c.3.1.5.3.5.5s-.1.7-.1.8c-.1.6-.1.8-.2,1.7v.3c-.1.2-.5.3-.7.5ZM64.9,41.9c-.1.1-.5.3-.5.3-.2.1-.3.2-.6.3-.1-.2-.2-.6-.2-.6,0,0,.4-.1.7-.1s.4,0,.6.1ZM61.8,34.4c-.2-.2-.6-.5-.8-.9-.3-.4-.2-.8-.2-.9.2-.6.9-.8,1.3-.9.2,0,.4,0,.7.2.4.2.6.2.8.9,0,.1,0,.2-.1.2,0,0-.6.4-.8.6-.5.3-.6.8-.9.8ZM64.9,35.1h-.5c0-.3.2-.4.5-.7.3-.2.6-.4.8-.4.2-.1.6-.2.6,0,0,.4-.3.6-.6,1-.2.3-.3.1-.8.1ZM57.2,41.3c-.3.4-.9,1-1.1,1.3v-1.2q-.2-.3-.2-.9c.5-.3.7-.5,1.2-.8.2-.2.9-.4,2-.7,0,.4-.1.7-.2,1.1-1,.5-1.4,1-1.6,1.2ZM56.7,46.8c0-.2-.1-.4-.2-.6-.1-.3-.1-.6-.2-.9,0-.3-.1-1.4-.1-1.6v-.5c.4-.2.9-.5,1.3-.7-.1.5-.2.7-.2,1.5s.2.8.3,1.5c-.2.4-.3.7-.6,1-.1.2-.3.3-.3.3ZM56.6,35.2c.4-.2.6-.4,1-.7-.1-.6-.2-1-.2-1.5s0-.6.2-.9c.2-.4.7-.4,1.1-.3-.1.7-.2.9-.2,1.7s.2.6.3.8c.1.2.2.4.2.6s-.1.2-.2.3c-.3.2-.4.1-.5.3-.5.4-.7.6-1.1.9q-.2.2-.4.5s-.1-1.1-.2-1.7ZM56.8,39.3c-.1-.3-.1-.6-.2-.9,0-.1,0-.8.1-1.1,0-.2.9-.5,1.4-.6.2,0,1-.2,1.1,0,.1.2-.1.2-.1.8-.1.2-.2.1-.4.3-.1.1-1.2.9-1.3,1-.2.1-.3.2-.6.5ZM63.3,47.7c.1.2.2.7.2.7,0,.7-.3.9-.4,1.3-.2-.3-.3-.7-.4-1-.1-.3-.3-.5-.5-.8.1-.1.2-.9.2-.9.1-.1.3.1.4.1.3.2.4.4.5.6ZM67,43.9c1,0,2.1.1,2.9.6,0,.4,0,.9-.2,1.3,0,.1-.2.5-.4.7-.3-.4-.9-.8-.9-.8.1.4,0,.5-.1,1,0,.1-.7.1-.7.1-.6-.3-.7-.7-.7-.7,0,.1-.1.8-.5.8s-.7,0-.7-.3c-.1-.3-.1-.5-.1-.8v-.4c-.3.1-.5.4-.7.6-.1,0-.2-.2-.3-.2-.2-.4-.3-.7-.4-1.1,1-.7,2.1-.8,3-.8ZM61.1,47.6c.1.5.4,1.4.4,1.4-.3-.2-.6-.3-.9-.5-.2-.1-.4-.2-.4-.3-.1-.3-.2-1-.2-1.2,0-.4.2-.8.4-.8.2.1.5.2.6.4.2.3,0,.7.1,1ZM58,46.1c.3.3.4.4.6.9-.1.1-.7.6-1.2,1.2,0,.2-.3.4-.3.4,0-.4,0-.9,0-1.1-.1-.2-.2-.3-.2-.5.1-.1.3-.2.5-.3.1-.2.6-.5.7-.6Z"/></g></g></g></svg>