<svg viewBox="0 0 160 160" fill="none" xmlns="http://www.w3.org/2000/svg"><path fill-rule="evenodd" clip-rule="evenodd" d="M39.018 132.746C35.956 132.739 33.471 135.221 33.475 138.282C33.479 141.328 36.626 143.992 39.672 143.999H88.492L88.37 132.861L39.018 132.746Z" fill="#8F411F"/><path fill-rule="evenodd" clip-rule="evenodd" d="M61.604 120.497L57.207 98.7445C56.648 95.7425 53.761 93.7635 50.758 94.3215C47.756 94.8805 45.776 97.7675 46.335 100.768L50.733 126.477L61.604 120.497Z" fill="#8F411F"/><path fill-rule="evenodd" clip-rule="evenodd" d="M30.0686 130.374C27.0066 130.367 24.5216 132.849 24.5256 135.91C24.5296 138.956 26.9956 141.426 30.0416 141.433L87.5146 141.656L87.4036 130.507L30.0686 130.374Z" fill="#8F411F"/><path fill-rule="evenodd" clip-rule="evenodd" d="M21.5429 125.774C18.4809 125.767 15.9959 128.249 15.9999 131.31C16.0039 134.356 18.4699 136.826 21.5159 136.833L78.9889 137.056L78.6049 125.907L21.5429 125.774Z" fill="#8F411F"/><path fill-rule="evenodd" clip-rule="evenodd" d="M63.5322 95.3334C61.2932 98.2094 62.1972 102.41 65.4222 104.108C72.0822 107.615 82.2662 112.978 86.3152 115.118C92.6372 118.459 88.5772 127.126 80.4892 124.554C76.4812 123.279 60.0262 118.304 60.0262 118.304L50.7322 126.477L88.4922 143.999H144V98.5424L111.572 111.783L90.3082 102.74L70.6102 93.6184C68.1392 92.4734 65.2052 93.1844 63.5322 95.3334Z" fill="#8F411F"/><path fill-rule="evenodd" clip-rule="evenodd" d="M26.0171 62.1349L39.6081 42.6289H77.4411L90.4431 62.1349H26.0171Z" fill="#ED1E79"/><path fill-rule="evenodd" clip-rule="evenodd" d="M58.1685 40.585L68.8985 60.1867L77.1408 41.9552L78.8284 42.7181L69.0567 64.3326L58.2946 44.6723L49.0804 64.2875L38.6688 42.7395L40.3364 41.9338L49.0568 59.9818L58.1685 40.585Z" fill="white"/><path fill-rule="evenodd" clip-rule="evenodd" d="M26.0171 63.802L58.2321 101.295L90.4431 63.512L26.0171 63.802Z" fill="#ED1E79"/><path fill-rule="evenodd" clip-rule="evenodd" d="M58.6288 97.0551L68.2008 61.0576L69.9906 61.5335L58.5846 104.428L48.171 63.2878L49.9664 62.8334L58.6288 97.0551Z" fill="white"/><path fill-rule="evenodd" clip-rule="evenodd" d="M38.501 32.9225L33.27 23.6425L39.055 20.3855L44.288 29.6595L38.501 32.9225Z" fill="#FBB03B"/><path fill-rule="evenodd" clip-rule="evenodd" d="M55.7358 26.659L55.7208 16.007L62.3678 16L62.3808 26.643L55.7358 26.659Z" fill="#FBB03B"/><path fill-rule="evenodd" clip-rule="evenodd" d="M73.8851 30.0046L79.3171 20.8486L85.0291 24.2426L79.6061 33.3926L73.8851 30.0046Z" fill="#FBB03B"/></svg>