<?xml version="1.0" encoding="UTF-8"?><svg id="Feet" xmlns="http://www.w3.org/2000/svg" viewBox="0 0 160 160"><defs><style>.cls-1{fill:#232144;}.cls-2{fill:#6e65ff;}</style></defs><path class="cls-1" d="M55.52,129.98c-.18-.22-.6-.39-.82-.21-2.63,1.61-6.61,4.24-4.19,7.99,2.41,3.88,6.11,1.12,9.35-1.18.34-.17.39-.6.12-.94l-4.45-5.69v.03Z"/><path class="cls-1" d="M62.56,121.05c-1.72,2.13-2.88,3.91-3.96,5.18-.13.21-.17.52.01.73,2.36,2.49,4.27,5.35,4.97,6.5.18.22.48.38.74.18,2.63-1.61,5.44-3.29,7.33-4.99,2.93-2.62,5.53-7.61,2.8-10.8-3-3.53-8.45-1.07-11.89,3.2h0Z"/><path class="cls-1" d="M84.39,100.04c-.18-.22-.6-.39-.82-.21-2.63,1.61-6.61,4.24-4.19,7.99,2.41,3.88,6.11,1.12,9.35-1.18.34-.17.39-.6.12-.94l-4.45-5.69v.03Z"/><path class="cls-1" d="M103.45,87.89c-3-3.53-8.54-1.07-11.89,3.2-1.72,2.13-2.88,3.91-3.96,5.18-.13.21-.17.52.01.73,2.36,2.49,4.27,5.35,4.97,6.5.18.22.48.38.74.18,2.63-1.61,5.44-3.29,7.33-4.99,2.84-2.65,5.53-7.61,2.8-10.8h0Z"/><path class="cls-1" d="M26.07,143.27c3.78,2.23,6.35-1.82,7.81-4.51.13-.31.07-.61-.22-.87l-5.87-4.16c-.3-.26-.74-.18-.99.21-2.06,3.26-4.72,7.09-.72,9.32h0Z"/><path class="cls-1" d="M30.02,129.96c1.09.65,4.04,2.48,6.66,4.77.18.22.52.17.73-.01,1.29-1.13,2.92-2.4,5.03-4.19,4.21-3.53,6.44-9.12,2.86-12.05-3.21-2.58-8.18.23-10.63,3.23-1.72,2.04-3.3,4.82-4.76,7.52-.26.3-.2.6.14.74h-.03Z"/><path class="cls-1" d="M54.95,113.3c3.78,2.23,6.35-1.82,7.81-4.51.13-.31.07-.61-.22-.87l-5.87-4.16c-.3-.26-.74-.18-.99.21-2.06,3.26-4.59,7-.72,9.32h0Z"/><path class="cls-1" d="M58.89,99.99c1.09.65,4.04,2.48,6.66,4.77.18.22.52.17.73-.01,1.29-1.13,2.92-2.4,5.03-4.19,4.21-3.53,6.44-9.12,2.86-12.05-3.21-2.58-8.18.23-10.63,3.23-1.72,2.04-3.3,4.82-4.76,7.52-.26.3-.2.6.14.74h-.03Z"/><path class="cls-1" d="M113.64,67.44c-.18-.22-.6-.39-.82-.21-2.63,1.61-6.61,4.24-4.19,7.99,2.41,3.88,6.11,1.12,9.35-1.18.34-.17.39-.6.12-.94l-4.45-5.69v.03Z"/><path class="cls-1" d="M132.7,55.3c-3-3.53-8.54-1.07-11.89,3.2-1.72,2.13-2.88,3.91-3.96,5.18-.13.21-.17.52.01.73,2.36,2.49,4.27,5.35,4.97,6.5.18.22.48.38.74.18,2.63-1.61,5.44-3.29,7.33-4.99,2.84-2.65,5.53-7.61,2.8-10.8h0Z"/><path class="cls-1" d="M84.2,80.71c3.78,2.23,6.35-1.82,7.81-4.51.13-.31.07-.61-.22-.87l-5.87-4.16c-.3-.26-.74-.18-.99.21-2.06,3.26-4.59,7-.72,9.32h0Z"/><path class="cls-1" d="M88.14,67.4c1.09.65,4.04,2.48,6.66,4.77.18.22.52.17.73-.01,1.29-1.13,2.92-2.4,5.03-4.19,4.21-3.53,6.44-9.12,2.86-12.05-3.21-2.58-8.18.23-10.63,3.23-1.72,2.04-3.3,4.82-4.76,7.52-.26.3-.2.6.14.74h-.03Z"/><path class="cls-2" d="M86.89,30.11c.18-.22.6-.39.82-.21,2.63,1.61,6.61,4.24,4.19,7.99-2.41,3.88-6.11,1.12-9.35-1.18-.34-.17-.39-.6-.12-.94l4.45-5.69v.03Z"/><path class="cls-2" d="M67.83,17.97c3-3.53,8.54-1.07,11.89,3.2,1.72,2.13,2.88,3.91,3.96,5.18.13.21.17.52-.01.73-2.36,2.49-4.27,5.35-4.97,6.5-.18.22-.48.38-.74.18-2.63-1.61-5.44-3.29-7.33-4.99-2.84-2.65-5.53-7.61-2.8-10.8h0Z"/><path class="cls-2" d="M116.33,43.38c-3.78,2.23-6.35-1.82-7.81-4.51-.13-.31-.07-.61.22-.87l5.87-4.16c.3-.26.74-.18.99.21,2.06,3.26,4.59,7,.72,9.32h0Z"/><path class="cls-2" d="M112.39,30.07c-1.09.65-4.04,2.48-6.66,4.77-.18.22-.52.17-.73-.01-1.29-1.13-2.92-2.4-5.03-4.19-4.21-3.53-6.44-9.12-2.86-12.05,3.21-2.58,8.18.23,10.63,3.23,1.72,2.04,3.3,4.82,4.76,7.52.26.3.2.6-.14.74h.03Z"/></svg>