<?xml version="1.0" encoding="UTF-8"?><svg xmlns="http://www.w3.org/2000/svg" version="1.1" viewBox="0 0 160 160"><defs><style>.cls-1 {
        fill: #797878;
      }

      .cls-2 {
        fill: #fff;
      }

      .cls-3 {
        fill: #ff6200;
      }

      .cls-4 {
        fill: #a8a8a8;
      }

      .cls-5 {
        fill: #4f4f59;
      }</style></defs><!--Generator: Adobe Illustrator 28.6.0, SVG Export Plug-In . SVG Version: 1.2.0 Build 709)--><g><g id="Debit"><path class="cls-3" d="M45.3,108.2c1.7-.7,3.4-.9,4.7-.5l15.5-6.8c1.3-.6,1.9-2.1,1.4-3.5l-19.5-44.3c-.6-1.3-2.1-1.9-3.5-1.4l-26.3,11.6c-1.3.6-1.9,2.1-1.4,3.5l19.5,44.3c.6,1.3,2.1,1.9,3.5,1.4l2.6-1.1c.6-1.2,1.8-2.4,3.5-3.1Z"/><g><path class="cls-2" d="M36.4,66.4l-1.1-2.6-1.1.5c-.4.2-.6.5-.4.8l.9,2.1,1.7-.8Z"/><path class="cls-2" d="M38.5,71.2l-1.1-2.5-1.7.8.9,2.1c.1.3.5.3.9.2l1.1-.5Z"/><rect class="cls-2" x="38.1" y="68.6" width="1.5" height="2.3" transform="translate(-24.9 21.7) rotate(-23.9)"/><rect class="cls-2" x="35.8" y="63.4" width="1.5" height="2.3" transform="translate(-23 20.3) rotate(-23.9)"/><rect class="cls-2" x="39.6" y="65.1" width=".8" height="2" transform="translate(-23.4 21.8) rotate(-23.9)"/><rect class="cls-2" x="35.1" y="67.1" width=".7" height="2" transform="translate(-24.6 20.2) rotate(-23.9)"/><path class="cls-2" d="M39.1,67.9l1.1,2.5,1.1-.5c.4-.2.6-.5.4-.8l-.9-2.1-1.8.8Z"/><path class="cls-2" d="M39.9,64.9l-.9-2.1c-.1-.3-.5-.3-.9-.2l-1.1.5,1.1,2.6,1.8-.8Z"/><polygon class="cls-2" points="35.2 66.5 38.9 64.9 40.2 67.7 36.5 69.4 35.2 66.5"/><path class="cls-3" d="M35.1,66.4l3.8-1.7,1.4,3.1-3.8,1.7-1.4-3.1ZM38.9,65l-3.5,1.6,1.2,2.8,3.5-1.6-1.2-2.8Z"/><path class="cls-2" d="M36.2,59.7c-.6-.2-1.3-.5-1.9-.7h-.3c-.2-.2-.4,0-.4,0-.2.6-.4,1.2-.5,1.8v.3c-.1.2,0,.4.1.4s.4,0,.4-.2c.2-.6.4-1.2.5-1.8v-.3c0,0-.2.1-.3.2.6.2,1.3.5,1.9.7h.3c.2.2.4,0,.4,0s0-.3-.2-.4h0Z"/><path class="cls-2" d="M36.4,66.4l-1.1-2.6-1.1.5c-.4.2-.6.5-.4.8l.9,2.1,1.7-.8Z"/><path class="cls-2" d="M38.5,71.2l-1.1-2.5-1.7.8.9,2.1c.1.3.5.3.9.2l1.1-.5Z"/><rect class="cls-2" x="38.1" y="68.6" width="1.5" height="2.3" transform="translate(-24.9 21.7) rotate(-23.9)"/><rect class="cls-2" x="35.8" y="63.4" width="1.5" height="2.3" transform="translate(-23 20.3) rotate(-23.9)"/><rect class="cls-2" x="39.6" y="65.1" width=".8" height="2" transform="translate(-23.4 21.8) rotate(-23.9)"/><rect class="cls-2" x="35.1" y="67.1" width=".7" height="2" transform="translate(-24.6 20.2) rotate(-23.9)"/><path class="cls-2" d="M39.1,67.9l1.1,2.5,1.1-.5c.4-.2.6-.5.4-.8l-.9-2.1-1.8.8Z"/><path class="cls-2" d="M39.9,64.9l-.9-2.1c-.1-.3-.5-.3-.9-.2l-1.1.5,1.1,2.6,1.8-.8Z"/><polygon class="cls-2" points="35.2 66.5 38.9 64.9 40.2 67.8 36.5 69.4 35.2 66.5"/><path class="cls-3" d="M35.1,66.4l3.8-1.7,1.4,3.1-3.8,1.7-1.4-3.1ZM38.8,65l-3.5,1.6,1.2,2.8,3.5-1.6-1.2-2.8Z"/><path class="cls-2" d="M36.2,59.7c-.6-.2-1.3-.5-1.9-.7h-.3c-.2-.2-.4,0-.4,0-.2.6-.4,1.2-.5,1.8v.3c-.1.2,0,.4.1.4s.4,0,.4-.2c.2-.6.4-1.2.5-1.8v-.3c0,0-.2.1-.3.2.6.2,1.3.5,1.9.7h.3c.2.2.4,0,.4,0s0-.3-.2-.4h0Z"/></g></g><g id="Credit"><g><path class="cls-4" d="M55,105.5l2.8-.3h.1s.9-1.7.9-1.7l5.9-.6,1.3,1.5h.9c0,0,17.2-1.7,17.2-1.7,1.5-.1,2.6-1.4,2.4-2.9l-4.6-49.1c-.1-1.5-1.4-2.6-2.9-2.4l-29.1,2.7c-1.5.1-2.6,1.4-2.4,2.9l4.6,49.1c.1,1.5,1.4,2.6,2.9,2.4Z"/><path class="cls-2" d="M67,60.1l-.3-2.9h-1.2c-.4.1-.7.4-.7.7l.2,2.4,1.9-.2Z"/><path class="cls-2" d="M67.5,65.4l-.3-2.8-1.9.2.2,2.3c0,.3.4.5.8.4h1.2Z"/><rect class="cls-2" x="67.6" y="63" width="1.5" height="2.3" transform="translate(-5.6 6.6) rotate(-5.3)"/><rect class="cls-2" x="67.1" y="57.2" width="1.5" height="2.3" transform="translate(-5.1 6.5) rotate(-5.3)"/><rect class="cls-2" x="70.2" y="60" width=".8" height="2.1" transform="translate(-5.3 6.7) rotate(-5.3)"/><rect class="cls-2" x="65.2" y="60.4" width=".8" height="2.1" transform="translate(-5.4 6.3) rotate(-5.3)"/><path class="cls-2" d="M69.2,62.4l.3,2.8h1.2c.4-.2.7-.4.7-.7l-.2-2.3-2,.2Z"/><path class="cls-2" d="M70.9,59.8l-.2-2.4c0-.3-.4-.5-.8-.5h-1.2c0,.1.3,3,.3,3l2-.2Z"/><polygon class="cls-2" points="65.9 59.9 70 59.5 70.3 62.6 66.2 63 65.9 59.9"/><path class="cls-3" d="M65.8,59.7l4.3-.4.3,3.5-4.3.4-.3-3.5ZM69.9,59.5l-3.9.4.3,3.1,3.9-.4-.3-3.1Z"/><path class="cls-2" d="M69.1,53.6c-.5-.4-1.1-.9-1.6-1.3l-.2-.2c-.1-.1-.4,0-.5,0-.4.5-.7,1-1.1,1.6l-.2.2c0,.1,0,.3,0,.5s.3,0,.5,0c.4-.5.7-1,1.1-1.6l.2-.2h-.5c.5.5,1.1.9,1.6,1.3l.2.2c.1.1.3,0,.5,0s0-.3,0-.5h0Z"/><path class="cls-2" d="M67,60.1l-.3-2.9h-1.2c-.4.1-.7.4-.7.7l.2,2.4,1.9-.2Z"/><path class="cls-2" d="M67.5,65.4l-.3-2.8-1.9.2.2,2.3c0,.3.4.5.8.4h1.2Z"/><rect class="cls-2" x="67.6" y="63" width="1.5" height="2.3" transform="translate(-5.6 6.6) rotate(-5.3)"/><rect class="cls-2" x="67" y="57.2" width="1.5" height="2.3" transform="translate(-5.1 6.5) rotate(-5.3)"/><rect class="cls-2" x="70.2" y="60" width=".8" height="2.1" transform="translate(-5.3 6.7) rotate(-5.3)"/><rect class="cls-2" x="65.2" y="60.4" width=".8" height="2.1" transform="translate(-5.4 6.3) rotate(-5.3)"/><path class="cls-2" d="M69.2,62.4l.3,2.8h1.2c.4-.2.7-.4.7-.7l-.2-2.3-2,.2Z"/><path class="cls-2" d="M70.9,59.8l-.2-2.4c0-.3-.4-.5-.8-.5h-1.2c0,.1.3,3,.3,3l2-.2Z"/><polygon class="cls-2" points="65.9 59.9 70 59.5 70.3 62.6 66.2 63 65.9 59.9"/><path class="cls-4" d="M65.8,59.7l4.3-.4.3,3.5-4.3.4-.3-3.5ZM69.9,59.5l-3.9.4.3,3.1,3.9-.4-.3-3.1Z"/><path class="cls-2" d="M69.1,53.6c-.5-.4-1.1-.9-1.6-1.3l-.2-.2c-.1-.1-.4,0-.5,0-.4.5-.7,1-1.1,1.6l-.2.2c0,.1,0,.3,0,.5s.3,0,.5,0c.4-.5.7-1,1.1-1.6l.2-.2h-.5c.5.5,1.1.9,1.6,1.3l.2.2c.1.1.3,0,.5,0s0-.3,0-.5h0Z"/></g></g><g id="Platinum"><g><path class="cls-1" d="M76.5,101.4l2.8.3h.1s1.2-1.4,1.2-1.4l5.8.5,1,1.7h.9c0,0,16.9,1.8,16.9,1.8,1.5.1,2.8-.9,2.9-2.4l4.9-48.2c.1-1.5-.9-2.8-2.4-2.9l-28.6-2.9c-1.5-.1-2.8.9-2.9,2.4l-4.9,48.2c-.1,1.5.9,2.8,2.4,2.9Z"/><path class="cls-2" d="M96.7,59.9l.3-2.8h-1.2c-.4-.2-.7,0-.8.3l-.2,2.3,1.9.2Z"/><path class="cls-2" d="M96.1,65.1l.3-2.8-1.9-.2-.2,2.3c0,.3.3.5.7.6h1.2Z"/><rect class="cls-2" x="96" y="63.3" width="2.3" height="1.5" transform="translate(23.6 154.2) rotate(-84.1)"/><rect class="cls-2" x="96.6" y="57.6" width="2.3" height="1.5" transform="translate(29.8 149.6) rotate(-84.1)"/><rect class="cls-2" x="98.9" y="61.1" width="2" height=".8" transform="translate(28.6 154.6) rotate(-84.1)"/><rect class="cls-2" x="94" y="60.6" width="2" height=".7" transform="translate(24.7 149.2) rotate(-84.1)"/><path class="cls-2" d="M98.3,62.5l-.3,2.8h1.2c.4.2.7,0,.8-.3l.2-2.3-1.9-.2Z"/><path class="cls-2" d="M100.5,60.3l.2-2.3c0-.3-.3-.5-.7-.6h-1.2c0-.1-.3,2.7-.3,2.7l1.9.2Z"/><polygon class="cls-2" points="95.6 59.4 99.6 59.8 99.3 62.9 95.3 62.5 95.6 59.4"/><path class="cls-3" d="M95.6,59.2l4.2.4-.3,3.4-4.2-.4.3-3.4ZM99.5,59.9l-3.8-.4-.3,3,3.8.4.3-3Z"/><path class="cls-2" d="M99.9,54c-.4-.5-.9-1-1.3-1.5l-.2-.2c-.1-.1-.3-.2-.4,0-.5.4-.9.9-1.4,1.3l-.2.2c-.1.1-.2.3,0,.4s.3.2.4,0c.5-.4.9-.9,1.4-1.3l.2-.2h-.4c.4.5.9,1,1.3,1.5l.2.2c.1.1.3.2.4,0s.2-.3,0-.4h0Z"/><path class="cls-2" d="M96.7,59.9l.3-2.8h-1.2c-.4-.2-.7,0-.8.3l-.2,2.3,1.9.2Z"/><path class="cls-2" d="M96.1,65.1l.3-2.8-1.9-.2-.2,2.3c0,.3.3.5.7.6h1.2Z"/><rect class="cls-2" x="96" y="63.3" width="2.3" height="1.5" transform="translate(23.6 154.2) rotate(-84.1)"/><rect class="cls-2" x="96.6" y="57.6" width="2.3" height="1.5" transform="translate(29.8 149.6) rotate(-84.1)"/><rect class="cls-2" x="98.9" y="61.1" width="2" height=".8" transform="translate(28.6 154.6) rotate(-84.1)"/><rect class="cls-2" x="94" y="60.6" width="2" height=".7" transform="translate(24.7 149.2) rotate(-84.1)"/><path class="cls-2" d="M98.3,62.5l-.3,2.8h1.2c.4.2.7,0,.8-.3l.2-2.3-1.9-.2Z"/><path class="cls-2" d="M100.5,60.3l.2-2.3c0-.3-.3-.5-.7-.6h-1.2c0-.1-.3,2.7-.3,2.7l1.9.2Z"/><polygon class="cls-2" points="95.6 59.4 99.6 59.8 99.3 62.9 95.3 62.5 95.6 59.4"/><path class="cls-1" d="M95.5,59.2l4.2.4-.3,3.4-4.2-.4.3-3.4ZM99.5,59.9l-3.8-.4-.3,3,3.8.4.3-3Z"/><path class="cls-2" d="M99.9,54c-.4-.5-.9-1-1.3-1.5l-.2-.2c-.1-.1-.3-.2-.4,0-.5.4-.9.9-1.4,1.3l-.2.2c-.1.1-.2.3,0,.4s.3.2.4,0c.5-.4.9-.9,1.4-1.3l.2-.2h-.4c.4.5.9,1,1.3,1.5l.2.2c.1.1.3.2.4,0s.2-.3,0-.4h0Z"/></g></g><g id="Business"><g><path class="cls-5" d="M94.8,101l2.6,1.1h.1s1.6-1,1.6-1l5.3,2.2.4,1.9.8.3,15.5,6.7c1.3.6,2.9,0,3.5-1.4l19.2-44.3c.6-1.3,0-2.9-1.4-3.5l-26.3-11.4c-1.3-.6-2.9,0-3.5,1.4l-19.2,44.3c-.6,1.3,0,2.9,1.4,3.5Z"/><path class="cls-2" d="M126.5,67.7l1.1-2.6-1.1-.5c-.4-.2-.7,0-.9.2l-.9,2.1,1.7.8Z"/><path class="cls-2" d="M124.5,72.5l1.1-2.6-1.7-.8-.9,2.1c-.1.3,0,.6.5.7l1.1.5Z"/><rect class="cls-2" x="124.6" y="71" width="2.3" height="1.5" transform="translate(9.8 158.6) rotate(-66.5)"/><rect class="cls-2" x="126.9" y="65.8" width="2.3" height="1.5" transform="translate(16 157.5) rotate(-66.5)"/><rect class="cls-2" x="128.2" y="69.8" width="2" height=".8" transform="translate(13.4 160.7) rotate(-66.5)"/><rect class="cls-2" x="123.6" y="67.8" width="2" height=".7" transform="translate(12.4 155.4) rotate(-66.5)"/><path class="cls-2" d="M127.3,70.7l-1.1,2.5,1.1.5c.4.2.7,0,.9-.2l.9-2.1-1.8-.8Z"/><path class="cls-2" d="M130,69.2l.9-2.1c.1-.3,0-.6-.4-.8l-1.1-.5-1.1,2.6,1.8.8Z"/><polygon class="cls-2" points="125.7 67 129.4 68.5 128.1 71.4 124.5 69.8 125.7 67"/><path class="cls-3" d="M125.7,66.8l3.8,1.7-1.4,3.1-3.8-1.7,1.4-3.1ZM129.3,68.5l-3.5-1.5-1.2,2.8,3.5,1.5,1.2-2.8Z"/><path class="cls-2" d="M131.4,63.1c-.3-.6-.5-1.2-.8-1.9v-.3c-.2-.1-.4-.2-.5-.2-.6.3-1.1.5-1.7.8h-.2c-.1.2-.2.4-.2.5s.3.3.4.2c.6-.3,1.1-.5,1.7-.8h.2c-.1-.2-.3-.2-.4-.3.3.6.5,1.2.8,1.9v.3c.2.2.4.2.5.2s.2-.2.2-.4h0Z"/><path class="cls-2" d="M126.5,67.7l1.1-2.6-1.1-.5c-.4-.2-.7,0-.9.2l-.9,2.1,1.7.8Z"/><path class="cls-2" d="M124.5,72.5l1.1-2.6-1.7-.8-.9,2.1c-.1.3,0,.6.5.7l1.1.5Z"/><rect class="cls-2" x="124.6" y="71" width="2.3" height="1.5" transform="translate(9.8 158.6) rotate(-66.5)"/><rect class="cls-2" x="126.9" y="65.8" width="2.3" height="1.5" transform="translate(16 157.5) rotate(-66.5)"/><rect class="cls-2" x="128.2" y="69.8" width="2" height=".8" transform="translate(13.4 160.7) rotate(-66.5)"/><rect class="cls-2" x="123.6" y="67.8" width="2" height=".7" transform="translate(12.4 155.4) rotate(-66.5)"/><path class="cls-2" d="M127.3,70.7l-1.1,2.5,1.1.5c.4.2.7,0,.9-.2l.9-2.1-1.8-.8Z"/><path class="cls-2" d="M130,69.2l.9-2.1c.1-.3,0-.6-.4-.8l-1.1-.5-1.1,2.6,1.8.8Z"/><polygon class="cls-2" points="125.7 66.9 129.4 68.5 128.1 71.4 124.5 69.8 125.7 66.9"/><path class="cls-5" d="M125.7,66.8l3.8,1.7-1.4,3.1-3.8-1.7,1.4-3.1ZM129.3,68.5l-3.5-1.5-1.2,2.8,3.5,1.5,1.2-2.8Z"/><path class="cls-2" d="M131.4,63.1c-.3-.6-.5-1.2-.8-1.9v-.3c-.2-.1-.4-.2-.5-.2-.6.3-1.1.5-1.7.8h-.2c-.1.2-.2.4-.2.5s.3.3.4.2c.6-.3,1.1-.5,1.7-.8h.2c-.1-.2-.3-.2-.4-.3.3.6.5,1.2.8,1.9v.3c.2.2.4.2.5.2s.2-.2.2-.4h0Z"/></g></g></g></svg>