<svg viewBox="0 0 160 160" fill="none" xmlns="http://www.w3.org/2000/svg"><path d="M101.673 57.024L56.9591 24.6562L29.7573 62.2341L74.4716 94.6018L101.673 57.024Z" fill="#F5B091"/><path d="M95.768 52.7494L56.9589 24.6562L48.2747 36.653L87.0838 64.7461L95.768 52.7494Z" fill="#FFD4C2"/><path d="M90.95 65.7402C98.0137 65.7402 103.74 60.0139 103.74 52.9502C103.74 45.8864 98.0137 40.1602 90.95 40.1602C83.8863 40.1602 78.16 45.8864 78.16 52.9502C78.16 60.0139 83.8863 65.7402 90.95 65.7402Z" fill="#FBB03B"/><path d="M90.95 63.6315C85.06 63.6315 80.27 58.8415 80.27 52.9515C80.27 47.0615 85.06 42.2715 90.95 42.2715C96.84 42.2715 101.63 47.0615 101.63 52.9515C101.63 58.8415 96.84 63.6315 90.95 63.6315ZM90.95 43.2415C85.6 43.2415 81.25 47.5915 81.25 52.9415C81.25 58.2915 85.6 62.6415 90.95 62.6415C96.3 62.6415 100.65 58.2915 100.65 52.9415C100.65 47.5915 96.3 43.2415 90.95 43.2415Z" fill="#F7931E"/><path d="M60.01 37.2608L53.51 32.0508L53.36 35.0808L53.96 35.1108L54.05 33.2608L59.63 37.7208L58.49 39.1308L58.96 39.5108L61.44 36.4308L60.98 36.0508L60.01 37.2608Z" fill="#8B181D"/><path d="M61.12 30.7709C59.37 29.2509 56.98 28.2509 55.97 29.4009C54.88 30.6509 56.12 32.5209 57.52 33.7409C58.7 34.7709 60.14 35.5109 61.28 35.5109C61.84 35.5109 62.32 35.3309 62.67 34.9309C63.51 33.9609 62.9 32.3309 61.12 30.7709ZM62.22 34.5409C61.44 35.4309 59.42 34.6109 57.91 33.2909C56.67 32.2109 55.67 30.6509 56.42 29.8009C57.11 29.0109 59.2 29.9009 60.72 31.2209C61.96 32.3009 62.9 33.7509 62.22 34.5409Z" fill="#8B181D"/><path d="M120.49 54.3288H105.56V50.3487C105.56 49.3087 106.4 48.4688 107.44 48.4688H118.61C119.65 48.4688 120.49 49.3087 120.49 50.3487V54.3288ZM106.93 52.9587H119.12V50.3487C119.12 50.0687 118.89 49.8387 118.61 49.8387H107.44C107.16 49.8387 106.93 50.0687 106.93 50.3487V52.9587Z" fill="#E63346"/><path d="M114.88 52.1901C113.57 52.1901 112.59 51.7401 112.08 50.9001C111 49.1201 112.62 46.2201 115.78 44.3201C117.22 43.4501 118.75 42.9201 120.11 42.8301C121.63 42.7301 122.77 43.1801 123.33 44.1001C124.41 45.8801 122.79 48.7801 119.63 50.6801C118.19 51.5501 116.66 52.0801 115.3 52.1701C115.16 52.1701 115.02 52.1801 114.88 52.1801V52.1901ZM113.25 50.2001C113.53 50.6601 114.24 50.8801 115.2 50.8101C116.34 50.7301 117.66 50.2701 118.91 49.5101C121.53 47.9201 122.72 45.7601 122.15 44.8101C121.87 44.3501 121.16 44.1301 120.2 44.2001C119.06 44.2801 117.74 44.7401 116.49 45.5001C113.87 47.0901 112.68 49.2501 113.25 50.2001Z" fill="#E63346"/><path d="M120.63 48.1793L118.33 44.6193L139.57 27.0293L144 32.9193L120.63 48.1793Z" fill="#8B181D"/><path d="M19.29 52.9492H129.72V133.359H19.29C17.47 133.359 16 131.879 16 130.069V56.2392C16 54.4192 17.48 52.9492 19.29 52.9492Z" fill="#420F0F"/><path d="M40.72 58.0391H39.14V58.4291H40.72V58.0391Z" fill="#FBB03B"/><path d="M43.89 58.0391H42.31V58.4291H43.89V58.0391Z" fill="#FBB03B"/><path d="M47.05 58.0391H45.47V58.4291H47.05V58.0391Z" fill="#FBB03B"/><path d="M34.4 58.0391H32.82V58.4291H34.4V58.0391Z" fill="#FBB03B"/><path d="M72.34 58.0391H70.76V58.4291H72.34V58.0391Z" fill="#FBB03B"/><path d="M31.24 58.0391H29.66V58.4291H31.24V58.0391Z" fill="#FBB03B"/><path d="M37.56 58.0391H35.98V58.4291H37.56V58.0391Z" fill="#FBB03B"/><path d="M50.21 58.0391H48.63V58.4291H50.21V58.0391Z" fill="#FBB03B"/><path d="M62.86 58.0391H61.28V58.4291H62.86V58.0391Z" fill="#FBB03B"/><path d="M66.02 58.0391H64.44V58.4291H66.02V58.0391Z" fill="#FBB03B"/><path d="M69.18 58.0391H67.6V58.4291H69.18V58.0391Z" fill="#FBB03B"/><path d="M56.53 58.0391H54.95V58.4291H56.53V58.0391Z" fill="#FBB03B"/><path d="M53.37 58.0391H51.79V58.4291H53.37V58.0391Z" fill="#FBB03B"/><path d="M59.69 58.0391H58.11V58.4291H59.69V58.0391Z" fill="#FBB03B"/><path d="M21.11 82.6895H20.72V83.8794H21.11V82.6895Z" fill="#FBB03B"/><path d="M21.11 79.5293H20.72V81.1093H21.11V79.5293Z" fill="#FBB03B"/><path d="M21.11 76.3594H20.72V77.9394H21.11V76.3594Z" fill="#FBB03B"/><path d="M122.92 58.0391H121.34V58.4291H122.92V58.0391Z" fill="#FBB03B"/><path d="M20.72 58.9791H21.11V58.4291H21.76V58.0391H20.72V58.9791Z" fill="#FBB03B"/><path d="M21.11 60.5586H20.72V62.1386H21.11V60.5586Z" fill="#FBB03B"/><path d="M21.11 70.0391H20.72V71.6191H21.11V70.0391Z" fill="#FBB03B"/><path d="M21.11 66.8789H20.72V68.4589H21.11V66.8789Z" fill="#FBB03B"/><path d="M21.11 63.7188H20.72V65.2988H21.11V63.7188Z" fill="#FBB03B"/><path d="M24.92 58.0391H23.34V58.4291H24.92V58.0391Z" fill="#FBB03B"/><path d="M28.08 58.0391H26.5V58.4291H28.08V58.0391Z" fill="#FBB03B"/><path d="M21.11 73.1992H20.72V74.7792H21.11V73.1992Z" fill="#FBB03B"/><path d="M119.76 58.0391H118.18V58.4291H119.76V58.0391Z" fill="#FBB03B"/><path d="M125 67.4199H124.61V68.9999H125V67.4199Z" fill="#FBB03B"/><path d="M125 70.5801H124.61V72.1601H125V70.5801Z" fill="#FBB03B"/><path d="M125 73.7402H124.61V75.3202H125V73.7402Z" fill="#FBB03B"/><path d="M125 61.0996H124.61V62.6796H125V61.0996Z" fill="#FBB03B"/><path d="M124.61 59.5191H125.01V58.0391H124.51V58.4291H124.61V59.5191Z" fill="#FBB03B"/><path d="M125 64.2598H124.61V65.8398H125V64.2598Z" fill="#FBB03B"/><path d="M125 76.8984H124.61V78.4784H125V76.8984Z" fill="#FBB03B"/><path d="M125 80.0684H124.61V81.6484H125V80.0684Z" fill="#FBB03B"/><path d="M125 83.2285H124.61V83.8785H125V83.2285Z" fill="#FBB03B"/><path d="M116.6 58.0391H115.02V58.4291H116.6V58.0391Z" fill="#FBB03B"/><path d="M88.15 58.0391H86.57V58.4291H88.15V58.0391Z" fill="#FBB03B"/><path d="M94.47 58.0391H92.89V58.4291H94.47V58.0391Z" fill="#FBB03B"/><path d="M91.31 58.0391H89.73V58.4291H91.31V58.0391Z" fill="#FBB03B"/><path d="M84.99 58.0391H83.41V58.4291H84.99V58.0391Z" fill="#FBB03B"/><path d="M75.5 58.0391H73.92V58.4291H75.5V58.0391Z" fill="#FBB03B"/><path d="M78.66 58.0391H77.08V58.4291H78.66V58.0391Z" fill="#FBB03B"/><path d="M81.82 58.0391H80.24V58.4291H81.82V58.0391Z" fill="#FBB03B"/><path d="M110.28 58.0391H108.7V58.4291H110.28V58.0391Z" fill="#FBB03B"/><path d="M103.96 58.0391H102.38V58.4291H103.96V58.0391Z" fill="#FBB03B"/><path d="M107.12 58.0391H105.54V58.4291H107.12V58.0391Z" fill="#FBB03B"/><path d="M113.44 58.0391H111.86V58.4291H113.44V58.0391Z" fill="#FBB03B"/><path d="M97.63 58.0391H96.05V58.4291H97.63V58.0391Z" fill="#FBB03B"/><path d="M100.79 58.0391H99.21V58.4291H100.79V58.0391Z" fill="#FBB03B"/><path d="M120.963 118.537L120.909 66.7873C120.906 64.1585 118.773 62.0296 116.144 62.0323L28.894 62.1237C26.2651 62.1264 24.1362 64.2598 24.139 66.8887L24.1932 118.639C24.1959 121.268 26.3293 123.396 28.9581 123.394L116.208 123.302C118.837 123.3 120.966 121.166 120.963 118.537Z" fill="#FF6200"/><path d="M38.72 85.5803H33.6V87.7303C33.6 88.4403 34.02 89.0103 34.53 89.0103H38.71V85.5703L38.72 85.5803Z" fill="white"/><path d="M48.1 85.5801H43.08V89.0101H47.19C47.69 89.0101 48.1 88.4301 48.1 87.7201V85.5801Z" fill="white"/><path d="M48.1 82.5312H43.95V85.2412H48.1V82.5312Z" fill="white"/><path d="M37.75 82.5312H33.6V85.2412H37.75V82.5312Z" fill="white"/><path d="M42.74 78.7109H39.05V80.1109H42.74V78.7109Z" fill="white"/><path d="M42.74 87.6719H39.05V89.0219H42.74V87.6719Z" fill="white"/><path d="M43.08 82.1912H48.1V79.9812C48.1 79.2712 47.69 78.7012 47.18 78.7012H43.08V82.1912Z" fill="white"/><path d="M38.72 78.7109H34.53C34.02 78.7109 33.6 79.2909 33.6 80.0009V82.1909H38.72V78.7109Z" fill="white"/><path d="M38.06 87.5217L38.05 80.2617H43.64L43.66 87.5117L38.06 87.5217Z" fill="white"/><path d="M37.77 87.6813L37.75 80.1113H43.94L43.96 87.6813H37.77ZM38.12 80.4313V87.3613H43.59V80.4313H38.12Z" fill="#FF6200"/><path d="M52.2 86.5014C52.11 86.5014 52.02 86.4714 51.95 86.4014C51.81 86.2614 51.81 86.0414 51.95 85.9014C53.05 84.8014 53.05 83.0214 51.95 81.9214C51.81 81.7814 51.81 81.5614 51.95 81.4214C52.09 81.2814 52.31 81.2814 52.45 81.4214C53.82 82.7914 53.82 85.0214 52.45 86.3914C52.38 86.4614 52.29 86.4914 52.2 86.4914V86.5014Z" fill="white"/><path d="M53.69 87.1203C53.6 87.1203 53.51 87.0903 53.44 87.0203C53.3 86.8803 53.3 86.6603 53.44 86.5203C54.88 85.0803 54.88 82.7403 53.44 81.3003C53.3 81.1603 53.3 80.9403 53.44 80.8003C53.58 80.6603 53.8 80.6603 53.94 80.8003C55.65 82.5103 55.65 85.3003 53.94 87.0203C53.87 87.0903 53.78 87.1203 53.69 87.1203Z" fill="white"/><path d="M55.18 87.7514C55.09 87.7514 55 87.7214 54.93 87.6514C54.79 87.5114 54.79 87.2914 54.93 87.1514C55.8 86.2814 56.27 85.1314 56.27 83.9114C56.27 82.6914 55.79 81.5314 54.93 80.6714C54.79 80.5314 54.79 80.3114 54.93 80.1714C55.07 80.0314 55.29 80.0314 55.43 80.1714C56.43 81.1714 56.98 82.5014 56.98 83.9114C56.98 85.3214 56.43 86.6514 55.43 87.6514C55.36 87.7214 55.27 87.7514 55.18 87.7514Z" fill="white"/><path d="M56.83 88.3203C56.74 88.3203 56.65 88.2903 56.58 88.2203C56.44 88.0803 56.44 87.8603 56.58 87.7203C58.55 85.7503 58.55 82.0203 56.58 80.0503C56.44 79.9103 56.44 79.6903 56.58 79.5503C56.72 79.4103 56.94 79.4103 57.08 79.5503C59.31 81.7803 59.31 85.9803 57.08 88.2103C57.01 88.2803 56.92 88.3103 56.83 88.3103V88.3203Z" fill="white"/><path d="M75.7186 103.762L30.9487 103.809L30.9543 109.209L75.7243 109.162L75.7186 103.762Z" fill="white"/><path d="M19.29 83.8809H129.72V133.371H19.29C17.47 133.371 16 131.891 16 130.081V87.1809C16 85.3609 17.48 83.8909 19.29 83.8909V83.8809Z" fill="#8B181D"/><path d="M123.4 87.3314H123.19V86.9414H123.4V87.3314ZM121.61 87.3314H120.03V86.9414H121.61V87.3314ZM118.45 87.3314H116.87V86.9414H118.45V87.3314ZM115.29 87.3314H113.71V86.9414H115.29V87.3314ZM112.13 87.3314H110.55V86.9414H112.13V87.3314ZM108.97 87.3314H107.39V86.9414H108.97V87.3314ZM105.81 87.3314H104.23V86.9414H105.81V87.3314ZM102.65 87.3314H101.07V86.9414H102.65V87.3314ZM99.49 87.3314H97.91V86.9414H99.49V87.3314ZM96.33 87.3314H94.75V86.9414H96.33V87.3314ZM93.17 87.3314H91.59V86.9414H93.17V87.3314ZM90.01 87.3314H88.43V86.9414H90.01V87.3314ZM86.85 87.3314H85.27V86.9414H86.85V87.3314ZM83.69 87.3314H82.11V86.9414H83.69V87.3314ZM80.53 87.3314H78.95V86.9414H80.53V87.3314ZM77.37 87.3314H75.79V86.9414H77.37V87.3314ZM74.21 87.3314H72.63V86.9414H74.21V87.3314ZM71.05 87.3314H69.47V86.9414H71.05V87.3314ZM67.89 87.3314H66.31V86.9414H67.89V87.3314ZM64.73 87.3314H63.15V86.9414H64.73V87.3314ZM61.57 87.3314H59.99V86.9414H61.57V87.3314ZM58.41 87.3314H56.83V86.9414H58.41V87.3314ZM55.25 87.3314H53.67V86.9414H55.25V87.3314ZM52.09 87.3314H50.51V86.9414H52.09V87.3314ZM48.93 87.3314H47.35V86.9414H48.93V87.3314ZM45.77 87.3314H44.19V86.9414H45.77V87.3314ZM42.61 87.3314H41.03V86.9414H42.61V87.3314ZM39.45 87.3314H37.87V86.9414H39.45V87.3314ZM36.29 87.3314H34.71V86.9414H36.29V87.3314ZM33.13 87.3314H31.55V86.9414H33.13V87.3314ZM29.97 87.3314H28.39V86.9414H29.97V87.3314ZM26.81 87.3314H25.23V86.9414H26.81V87.3314ZM23.65 87.3314H22.07V86.9414H23.65V87.3314Z" fill="#FBB03B"/><path d="M42.37 128.461H40.79V128.851H42.37V128.461Z" fill="#FBB03B"/><path d="M45.53 128.461H43.95V128.851H45.53V128.461Z" fill="#FBB03B"/><path d="M48.69 128.461H47.11V128.851H48.69V128.461Z" fill="#FBB03B"/><path d="M32.88 128.461H31.3V128.851H32.88V128.461Z" fill="#FBB03B"/><path d="M29.72 128.461H28.14V128.851H29.72V128.461Z" fill="#FBB03B"/><path d="M36.05 128.461H34.47V128.851H36.05V128.461Z" fill="#FBB03B"/><path d="M51.85 128.461H50.27V128.851H51.85V128.461Z" fill="#FBB03B"/><path d="M67.66 128.461H66.08V128.851H67.66V128.461Z" fill="#FBB03B"/><path d="M70.82 128.461H69.24V128.851H70.82V128.461Z" fill="#FBB03B"/><path d="M64.5 128.461H62.92V128.851H64.5V128.461Z" fill="#FBB03B"/><path d="M55.02 128.461H53.44V128.851H55.02V128.461Z" fill="#FBB03B"/><path d="M61.34 128.461H59.76V128.851H61.34V128.461Z" fill="#FBB03B"/><path d="M58.18 128.461H56.6V128.851H58.18V128.461Z" fill="#FBB03B"/><path d="M39.21 128.461H37.63V128.851H39.21V128.461Z" fill="#FBB03B"/><path d="M21.11 117.461H20.72V119.041H21.11V117.461Z" fill="#FBB03B"/><path d="M21.11 120.631H20.72V122.211H21.11V120.631Z" fill="#FBB03B"/><path d="M21.11 114.301H20.72V115.881H21.11V114.301Z" fill="#FBB03B"/><path d="M21.11 111.141H20.72V112.721H21.11V111.141Z" fill="#FBB03B"/><path d="M21.11 101.66H20.72V103.24H21.11V101.66Z" fill="#FBB03B"/><path d="M21.89 127.982C22.31 128.352 22.82 128.622 23.36 128.752L23.45 128.372C22.97 128.252 22.52 128.012 22.15 127.682L21.89 127.972V127.982Z" fill="#FBB03B"/><path d="M21.11 123.791H20.72V125.371C20.72 125.801 20.8 126.221 20.95 126.621L21.32 126.481C21.18 126.131 21.11 125.751 21.11 125.371V123.791Z" fill="#FBB03B"/><path d="M21.11 85.8516H20.72V87.4316H21.11V85.8516Z" fill="#FBB03B"/><path d="M21.11 89.0117H20.72V90.5917H21.11V89.0117Z" fill="#FBB03B"/><path d="M26.56 128.461H24.98V128.851H26.56V128.461Z" fill="#FBB03B"/><path d="M21.11 107.98H20.72V109.56H21.11V107.98Z" fill="#FBB03B"/><path d="M21.11 92.1699H20.72V93.7499H21.11V92.1699Z" fill="#FBB03B"/><path d="M21.11 104.82H20.72V106.4H21.11V104.82Z" fill="#FBB03B"/><path d="M21.11 98.5H20.72V100.08H21.11V98.5Z" fill="#FBB03B"/><path d="M21.11 95.3301H20.72V96.9101H21.11V95.3301Z" fill="#FBB03B"/><path d="M125 111.682H124.61V113.262H125V111.682Z" fill="#FBB03B"/><path d="M125 118H124.61V119.58H125V118Z" fill="#FBB03B"/><path d="M125 108.521H124.61V110.101H125V108.521Z" fill="#FBB03B"/><path d="M125 114.842H124.61V116.422H125V114.842Z" fill="#FBB03B"/><path d="M125 102.201H124.61V103.781H125V102.201Z" fill="#FBB03B"/><path d="M125 105.361H124.61V106.941H125V105.361Z" fill="#FBB03B"/><path d="M125 99.041H124.61V100.621H125V99.041Z" fill="#FBB03B"/><path d="M73.98 128.461H72.4V128.851H73.98V128.461Z" fill="#FBB03B"/><path d="M118.25 128.461H116.67V128.851H118.25V128.461Z" fill="#FBB03B"/><path d="M121.41 128.461H119.83V128.851H121.41V128.461Z" fill="#FBB03B"/><path d="M122.86 128.161L123.03 128.511C123.53 128.271 123.98 127.911 124.31 127.461L124 127.221C123.7 127.621 123.31 127.941 122.86 128.151V128.161Z" fill="#FBB03B"/><path d="M125 121.17H124.61V122.75H125V121.17Z" fill="#FBB03B"/><path d="M124.61 125.37C124.61 125.54 124.6 125.71 124.57 125.88L124.96 125.94C124.99 125.75 125.01 125.56 125.01 125.37V124.33H124.62V125.37H124.61Z" fill="#FBB03B"/><path d="M125 95.8711H124.61V97.4511H125V95.8711Z" fill="#FBB03B"/><path d="M125 86.3906H124.61V87.9706H125V86.3906Z" fill="#FBB03B"/><path d="M125 92.7109H124.61V94.2909H125V92.7109Z" fill="#FBB03B"/><path d="M125 89.5508H124.61V91.1308H125V89.5508Z" fill="#FBB03B"/><path d="M89.79 128.461H88.21V128.851H89.79V128.461Z" fill="#FBB03B"/><path d="M86.63 128.461H85.05V128.851H86.63V128.461Z" fill="#FBB03B"/><path d="M92.95 128.461H91.37V128.851H92.95V128.461Z" fill="#FBB03B"/><path d="M77.15 128.461H75.57V128.851H77.15V128.461Z" fill="#FBB03B"/><path d="M83.47 128.461H81.89V128.851H83.47V128.461Z" fill="#FBB03B"/><path d="M80.31 128.461H78.73V128.851H80.31V128.461Z" fill="#FBB03B"/><path d="M108.76 128.461H107.18V128.851H108.76V128.461Z" fill="#FBB03B"/><path d="M105.6 128.461H104.02V128.851H105.6V128.461Z" fill="#FBB03B"/><path d="M115.09 128.461H113.51V128.851H115.09V128.461Z" fill="#FBB03B"/><path d="M111.92 128.461H110.34V128.851H111.92V128.461Z" fill="#FBB03B"/><path d="M96.12 128.461H94.54V128.851H96.12V128.461Z" fill="#FBB03B"/><path d="M102.44 128.461H100.86V128.851H102.44V128.461Z" fill="#FBB03B"/><path d="M99.28 128.461H97.7V128.851H99.28V128.461Z" fill="#FBB03B"/><path d="M21.11 83.8809H20.72V84.2709H21.11V83.8809Z" fill="#FBB03B"/><path d="M125 83.8809H124.61V84.8109H125V83.8809Z" fill="#FBB03B"/></svg>