<?xml version="1.0" encoding="UTF-8"?><svg id="Fuel" xmlns="http://www.w3.org/2000/svg" viewBox="0 0 160 160"><defs><style>.cls-1{fill:#241c4a;}.cls-2{fill:#ff0026;}.cls-3{fill:#7458ff;}</style></defs><rect class="cls-1" x="76.37" y="42.03" width="7.15" height="13.73"/><rect class="cls-2" x="20.15" y="73.14" width="7.15" height="13.73" transform="translate(-56.75 57.91) rotate(-58.13)"/><rect class="cls-1" x="54.7" y="46.51" width="3.8" height="10.3" transform="translate(-14.45 22.94) rotate(-20.37)"/><rect class="cls-1" x="35.26" y="58.26" width="3.8" height="10.3" transform="translate(-32.86 41.06) rotate(-41.92)"/><rect class="cls-1" x="132.71" y="73.14" width="7.15" height="13.73" transform="translate(140.29 237.99) rotate(-121.87)"/><rect class="cls-1" x="101.5" y="46.51" width="3.8" height="10.3" transform="translate(182.34 136.09) rotate(-159.63)"/><rect class="cls-1" x="120.94" y="58.26" width="3.8" height="10.3" transform="translate(171.87 192.67) rotate(-138.08)"/><path class="cls-3" d="M89.17,75.34c-.82,1.52-1.02,3.45-.72,5.13s1.19,2.97,1.72,4.48c.44,1.25.81,2.62.72,3.95-.05.8-.42,1.73-1.38,1.61s-1.68-1.16-2.05-1.97c-.98-2.13-.36-4.32,0-6.5.14-.9.33-1.93.04-2.82-.26-.83-.96-1.2-1.79-1.22-.37-.01-.37.56,0,.57,2.08.06,1.26,3,1.04,4.27-.4,2.2-.72,4.4.47,6.45.45.78,1.16,1.57,2.07,1.77.76.16,1.52-.17,1.88-.87.47-.9.36-2.05.2-3.02-.25-1.5-.79-2.96-1.44-4.34-.41-.87-.79-1.71-.93-2.66-.12-.77-.11-1.57.01-2.34s.32-1.52.67-2.18c.17-.32-.32-.61-.49-.29h0Z"/><path class="cls-1" d="M71.25,91.96h15.86c1.57,0,2.84,1.27,2.84,2.84h-21.54c0-1.57,1.27-2.84,2.84-2.84Z"/><path class="cls-1" d="M74.34,67.08h9.67c.93,0,1.68.75,1.68,1.68v24.25h-13.03v-24.25c0-.93.75-1.68,1.68-1.68Z"/><rect class="cls-3" x="74.5" y="68.76" width="9.36" height="8.41"/><path class="cls-3" d="M86.57,70.14s3.25,2.61,3.13,5.37h-1.01c-.86,0-1.56-.7-1.56-1.56v-2.31l-.97-1.02s-.28-.28-.06-.5.46.02.46.02Z"/><circle class="cls-1" cx="79.95" cy="112.86" r="4.27"/><polygon class="cls-2" points="85.29 120.11 26.32 72.72 88.48 115.84 85.29 120.11 85.29 120.11"/></svg>