<?xml version="1.0" encoding="UTF-8"?><svg id="character" xmlns="http://www.w3.org/2000/svg" viewBox="0 0 160 160"><defs><style>.cls-1{fill:#9b001b;}.cls-2{fill:#b76147;}.cls-3{fill:#33052c;}.cls-4{fill:#ffd4a9;}.cls-5{fill:#ff0079;}.cls-6{fill:#ff8f00;}.cls-7{fill:#fff;}.cls-8{fill:#ffae00;}.cls-9{fill:#d06f52;}</style></defs><path class="cls-5" d="M44.55,144l7.56-30.06h-9.06c-3.71.28-6.67,2.96-7.48,6.4h0s-5.1,23.65-5.1,23.65h14.08Z"/><polygon class="cls-5" points="69.11 144 80.58 141.34 81 113.94 43.1 113.94 43.8 144 69.11 144"/><polygon class="cls-5" points="80.53 144 80.58 141.34 43.67 141.34 43.74 144 80.53 144"/><path class="cls-9" d="M86.66,55.98l1.76.67-.52-2.36,10.33,2.36-1.03,5.21c-.2.92-.58,1.8-1.12,2.57l-1.81,9.13-7.83-1.55,1.43-6.96h-.05c-.83-1.13-1.93-3.98-2.51-5.61-.11-.3-.09-.63.06-.92l1.29-2.54Z"/><path class="cls-4" d="M95.57,56.29l-.5,2.54c-.14.73.33,1.43,1.05,1.57s1.43-.33,1.57-1.05l.5-2.54c.14-.73-.33-1.43-1.05-1.57-.72-.14-1.43.33-1.57,1.05Z"/><path class="cls-4" d="M93.09,55.01l-.8,4.06c-.14.73.33,1.43,1.05,1.57.72.14,1.43-.33,1.57-1.05l.8-4.06c.14-.73-.33-1.43-1.05-1.57-.72-.14-1.43.33-1.57,1.05Z"/><path class="cls-4" d="M90.45,54.48l-.8,4.06c-.14.73.33,1.43,1.05,1.57.72.14,1.43-.33,1.57-1.05l.8-4.06c.14-.73-.33-1.43-1.05-1.57-.72-.14-1.43.33-1.57,1.05Z"/><path class="cls-4" d="M87.73,54.43l-.62,3.12c-.14.73.33,1.43,1.05,1.57.72.14,1.43-.33,1.57-1.05l.62-3.12c.14-.73-.33-1.43-1.05-1.57-.73-.14-1.43.33-1.57,1.05Z"/><path class="cls-5" d="M65.26,121.2s13.52-36.13,15.56-48.53c1.37-8.31,10.42-6.89,15.38-2.73,13.08,10.93-11.98,34.14-15.55,59.84"/><path class="cls-5" d="M85.17,65.29l-.79,4.48,12.89,2.29.79-4.48-12.89-2.29Z"/><path class="cls-2" d="M68.48,116.96v-7.98l-12.29-.05v8.02c0,3.39,2.75,6.15,6.15,6.15s6.15-2.75,6.15-6.15h0Z"/><path class="cls-4" d="M87.51,55.32l3.98-1.19c.7-.21,1.44.19,1.65.89v.02c.21.7-.18,1.44-.89,1.65l-3.98,1.19"/><circle class="cls-8" cx="101.48" cy="40.25" r="23.68"/><path class="cls-6" d="M113.15,56.32c-8.84,6.32-21.17,4.26-27.49-4.58-6.32-8.84-4.26-21.17,4.58-27.49,8.84-6.32,21.17-4.26,27.49,4.58,6.32,8.84,4.26,21.17-4.58,27.49ZM91.13,25.49c-8.15,5.82-10.05,17.2-4.23,25.36,5.82,8.15,17.2,10.05,25.36,4.23s10.05-17.2,4.23-25.36c-5.82-8.15-17.2-10.05-25.36-4.23Z"/><path class="cls-7" d="M104.64,40.82c.17.24.14.41-.07.56l-3.66,2.62c1.61,1.45,3.38,1.89,5.32.5.87-.62,1.48-1.41,1.96-2.11.21-.3.36-.41.62-.26l1.29.72c.35.2.4.4.25.69-.6,1.21-1.62,2.41-2.99,3.39-2.99,2.14-6.25,1.59-9.03-1.09l-1.28.92c-.22.15-.39.12-.56-.11l-.68-.95c-.17-.24-.14-.41.08-.57l1.11-.8-.4-.55c-.19-.26-.37-.51-.53-.79l-1.01.73c-.22.15-.39.13-.56-.11l-.68-.95c-.17-.24-.14-.41.08-.57l1.22-.88c-1.51-3.45-1.12-6.88,1.99-9.1,1.52-1.09,2.86-1.48,4.06-1.47.36.01.51.14.57.46l.17,1.4c.03.34-.09.58-.43.61-1.11.13-1.75.27-2.68.93-1.7,1.22-2.1,3.05-1.16,5.37l3.78-2.7c.22-.16.39-.13.56.11l.68.95c.17.24.14.41-.08.57l-3.98,2.84c.14.23.31.47.46.69l.47.65,3.88-2.77c.22-.16.39-.13.56.11l.68.95h0Z"/><path class="cls-9" d="M87.36,54.78l-1.96,3.64c-.35.65-.11,1.46.55,1.81.65.35,1.46.11,1.81-.54l1.96-3.64c.35-.65.11-1.46-.55-1.81-.65-.35-1.46-.11-1.81.54Z"/><path class="cls-3" d="M70.04,90.1l4.83,6.76h-.02c.74,1.12,1.17,2.47,1.18,3.92.01,4-3.22,7.26-7.22,7.28-2.85.01-5.32-1.64-6.51-4.03-1.17,2.4-3.63,4.07-6.48,4.08-4,.01-7.26-3.22-7.27-7.22,0-1.45.42-2.79,1.15-3.93l.03-.04c.07-.11.15-.22.23-.33l4.52-6.43,15.57-.06h0Z"/><path class="cls-9" d="M68.32,102.33c0-1.39,1.12-2.52,2.51-2.53,1.39,0,2.52,1.12,2.53,2.51,0,1.39-1.12,2.53-2.51,2.53-1.39,0-2.52-1.12-2.53-2.51Z"/><path class="cls-9" d="M51.24,102.39c0-1.39,1.12-2.52,2.51-2.53,1.39,0,2.52,1.12,2.53,2.51,0,1.39-1.12,2.53-2.51,2.53-1.39,0-2.52-1.12-2.53-2.51Z"/><path class="cls-9" d="M60.79,112.55h3.06c3.71-.02,6.7-3.04,6.69-6.75l-.04-11.99c-.01-3.71-3.03-6.71-6.74-6.69h-3.06c-3.71.02-6.7,3.04-6.69,6.75l.04,11.99c.01,3.71,3.03,6.7,6.74,6.69Z"/><path d="M63.2,104.52c.19-.18.58-.42,1.11.07l.23-.24c-.61-.57-1.21-.41-1.56-.07-.31.3-.76.56-1.44-.05-.57-.52-1.21-.16-1.47.11l.24.23s.53-.53,1.01-.09c.34.31.68.46,1,.46.31,0,.6-.14.89-.42Z"/><path class="cls-1" d="M64.54,106.96l.25.16v-.2c.03-.27.18-.49.4-.59l2.06-.92c-.52,1.48-.77,2.34-1.85,2.82-1.7.75-3.6-.5-3.58-.41l2.08-.93c.2-.09.44-.06.63.07Z"/><path class="cls-7" d="M57.93,101.62c-1.16-.4-1.64-1.37-1.64-1.37,0,0,1.27-.65,2.43-.25,1.16.4,1.76,1.69,1.76,1.69,0,0-1.39.33-2.55-.07Z"/><path d="M57.29,100.71c0-.55.44-1,1-1.01.55,0,1,.44,1.01,1,0,.55-.44,1-1,1.01-.55,0-1-.44-1.01-1Z"/><path d="M60.22,101.39c-1.68-2-3.51-1.25-3.87-1.03-.1-.16-.16-.28-.26-.43,1.6-.97,3.83-.13,4.39,1.76-.14-.12-.15-.17-.25-.3Z"/><path class="cls-7" d="M66.92,101.58c1.15-.41,1.63-1.38,1.63-1.38,0,0-1.27-.63-2.43-.23-1.15.41-1.75,1.7-1.75,1.7,0,0,1.39.32,2.55-.09Z"/><path d="M65.57,100.68c0-.55.44-1,1-1.01.55,0,1,.44,1.01,1,0,.55-.44,1-1,1.01-.55,0-1-.44-1.01-1Z"/><path d="M64.62,101.38c1.67-2.01,3.51-1.27,3.86-1.06.1-.16.16-.27.26-.43-1.6-.96-3.83-.1-4.37,1.79.14-.12.16-.18.26-.3Z"/><path class="cls-3" d="M55.81,97.58c0-.78.63-1.41,1.4-1.42h3.87s0,.04,0,.04c0,.78-.62,1.41-1.4,1.42h-3.87s0-.04,0-.04Z"/><path class="cls-3" d="M69.05,98.72c0-.78-.64-1.41-1.41-1.4l-3.87.02v.06c0,.78.64,1.41,1.41,1.4l3.87-.02v-.06Z"/><path class="cls-3" d="M71.77,102.66h-1.29s-.01-3.42-.01-3.42c0-.99-.23-1.93-.61-2.77l-5.38.02c-2.03,0-3.92-1-5.06-2.66l-1.83-3.15-.72.42,1.2,2.06c-2.33,1.03-3.97,3.39-3.96,6.13v3.42s-1.28,0-1.28,0l-.03-7.59c-.01-4,3.21-7.99,7.2-8.01l4.49-.02c3.99-.01,7.24,3.96,7.26,7.95l.03,7.6Z"/><rect class="cls-9" x="56.09" y="101.49" width="12.45" height="1.23"/></svg>