<?xml version="1.0" encoding="UTF-8"?><svg id="Drinks" xmlns="http://www.w3.org/2000/svg" viewBox="0 0 160 160"><defs><style>.cls-1{fill:#9b001b;}.cls-2{fill:#f3aa91;}.cls-3{fill:#e7e4d7;}.cls-4{fill:#201e41;}.cls-5{fill:#dccbc3;}</style></defs><path class="cls-3" d="M102.31,57.47c-.44-2.1-1.36-4.08-2.68-5.78-3.4-4.37-6.63-9.92-9.28-16.21-2.12-5.03-3.63-10-4.53-14.59l-8.13,1.67v.05c.97,4.57,1.53,9.71,1.56,15.15.04,6.8-.74,13.14-2.13,18.49-.54,2.07-.6,4.24-.19,6.34l3.99,20.13,25.61-5.25-4.22-20Z"/><rect class="cls-5" x="76.37" y="17.59" width="9.96" height="4.27" transform="translate(-2.3 16.74) rotate(-11.58)"/><path class="cls-1" d="M79.25,37.76c.04,6.8-.74,13.14-2.13,18.49-.54,2.07-.6,4.24-.19,6.34l3.99,20.13,25.61-5.25-4.22-20c-.44-2.1-1.36-4.08-2.68-5.78-3.4-4.37-6.63-9.92-9.28-16.21"/><rect class="cls-5" x="82.36" y="57.43" width="16.4" height="14.39" transform="translate(-11.13 19.5) rotate(-11.58)"/><path class="cls-2" d="M110.88,93.77l-1.32-11.48c-.17-1.44-1.22-2.46-2.36-2.27h0c-1.13.19-1.92,1.51-1.75,2.95l.4,3.51-7.05.3-16.62-1.52c-1.15-.1-2.13.99-2.19,2.44h0c-.06,1.45.81,2.71,1.96,2.82l8.51.78,9.59,3.36s0,.03,0,.05"/><polygon class="cls-2" points="144.05 94.26 109.91 89.1 100.05 94.66 144.05 115.49 144.05 94.26"/><path class="cls-4" d="M119.76,78.15l-59.51,12.81c-2.3.49-4.48-1.47-4.87-4.38h0s67.83-14.6,67.83-14.6h0c.39,2.91-1.16,5.68-3.45,6.17Z"/><rect class="cls-3" x="57.49" y="102.72" width="12.66" height="1.48" transform="translate(61.07 224.99) rotate(-147.03)"/><rect class="cls-3" x="51.18" y="108.84" width="16.88" height="2.19" transform="translate(-65.05 100.13) rotate(-57.03)"/><path class="cls-3" d="M43.1,114.66h14.04v12.81c0,3.87-3.15,7.02-7.02,7.02h0c-3.87,0-7.02-3.15-7.02-7.02v-12.81h0Z" transform="translate(24.38 256.37) rotate(-147.03)"/><rect class="cls-3" x="61.73" y="79.65" width="12.66" height="1.48" transform="translate(-34.65 57.05) rotate(-36.95)"/><rect class="cls-3" x="54.98" y="73.13" width="16.88" height="2.19" transform="translate(84.62 -21.08) rotate(53.05)"/><path class="cls-3" d="M45.91,50.36h14.04v12.81c0,3.87-3.15,7.02-7.02,7.02h0c-3.87,0-7.02-3.15-7.02-7.02v-12.81h0Z" transform="translate(-25.6 43.92) rotate(-36.95)"/></svg>