<svg viewBox="0 0 160 160" fill="none" xmlns="http://www.w3.org/2000/svg"><path fill-rule="evenodd" clip-rule="evenodd" d="M74.7483 106.541C77.0953 107.217 79.5583 105.867 80.2433 103.524C80.5763 102.388 80.4453 101.19 79.8753 100.151C79.3053 99.1123 78.3643 98.3573 77.2263 98.0258L43.9483 91.6712L42.5843 96.2284L74.7483 106.541ZM75.9793 108.542C75.3983 108.542 74.8093 108.461 74.2243 108.291L74.2013 108.284L40.3203 97.42L42.6693 89.5684L77.6543 96.2524C79.3463 96.7411 80.6733 97.8075 81.4783 99.2735C82.2833 100.741 82.4673 102.432 81.9983 104.036C81.1993 106.767 78.6923 108.542 75.9793 108.542Z" fill="#232144"/><path fill-rule="evenodd" clip-rule="evenodd" d="M75.9921 105.03L52.9261 51.3844L55.6481 50.2168L76.6941 99.1622L107.945 57.5417L110.315 59.3182L75.9921 105.03Z" fill="#232144"/><path fill-rule="evenodd" clip-rule="evenodd" d="M118.31 73.2299C107.11 73.2299 97.9977 82.3302 97.9977 93.5184C97.9977 104.705 107.11 113.805 118.31 113.805C129.51 113.805 138.622 104.705 138.622 93.5184C138.622 82.3302 129.51 73.2299 118.31 73.2299ZM118.31 118C104.795 118 93.7987 107.017 93.7987 93.5184C93.7987 80.0181 104.795 69.0352 118.31 69.0352C131.825 69.0352 142.82 80.0181 142.82 93.5184C142.82 107.017 131.825 118 118.31 118Z" fill="#FF6200"/><path fill-rule="evenodd" clip-rule="evenodd" d="M144 93.5202H142.172C142.172 80.3774 131.467 69.6849 118.31 69.6849C105.152 69.6849 94.4471 80.3774 94.4471 93.5202H92.6191C92.6191 79.371 104.143 67.8594 118.31 67.8594C132.475 67.8594 144 79.371 144 93.5202Z" fill="#2F2E56"/><path fill-rule="evenodd" clip-rule="evenodd" d="M41.6912 73.2299C30.4912 73.2299 21.3792 82.3302 21.3792 93.5184C21.3792 104.705 30.4912 113.805 41.6912 113.805C52.8912 113.805 62.0032 104.705 62.0032 93.5184C62.0032 82.3302 52.8912 73.2299 41.6912 73.2299ZM41.6912 118C28.1762 118 17.1812 107.017 17.1812 93.5184C17.1812 80.0181 28.1762 69.0352 41.6912 69.0352C55.2062 69.0352 66.2011 80.0181 66.2011 93.5184C66.2011 107.017 55.2062 118 41.6912 118Z" fill="#FF6200"/><path fill-rule="evenodd" clip-rule="evenodd" d="M67.382 93.5183H65.554C65.554 80.3754 54.849 69.6839 41.691 69.6839C28.533 69.6839 17.828 80.3754 17.828 93.5183H16C16 79.369 27.525 67.8574 41.691 67.8574C55.857 67.8574 67.382 79.369 67.382 93.5183Z" fill="#2F2E56"/><path fill-rule="evenodd" clip-rule="evenodd" d="M116.926 93.6985L107.153 55.4175L105.864 45.7694L108.802 45.3789L110.078 54.9409L119.796 92.9655L116.926 93.6985Z" fill="#232144"/><path fill-rule="evenodd" clip-rule="evenodd" d="M43.059 94.4683L40.401 93.1605L57.347 58.8159L108.476 53.75L108.767 56.695L59.277 61.5987L43.059 94.4683Z" fill="#232144"/><path fill-rule="evenodd" clip-rule="evenodd" d="M73.682 115.363L71.92 114.875L79.084 88.9863L80.846 89.474L73.682 115.363Z" fill="#232144"/><path fill-rule="evenodd" clip-rule="evenodd" d="M45.7998 93.5176C45.7998 95.7837 43.9598 97.6212 41.6908 97.6212C39.4218 97.6212 37.5828 95.7837 37.5828 93.5176C37.5828 91.2516 39.4218 89.4141 41.6908 89.4141C43.9598 89.4141 45.7998 91.2516 45.7998 93.5176Z" fill="#232144"/><path fill-rule="evenodd" clip-rule="evenodd" d="M122.526 93.5176C122.526 95.7837 120.686 97.6212 118.417 97.6212C116.148 97.6212 114.309 95.7837 114.309 93.5176C114.309 91.2516 116.148 89.4141 118.417 89.4141C120.686 89.4141 122.526 91.2516 122.526 93.5176Z" fill="#232144"/><path fill-rule="evenodd" clip-rule="evenodd" d="M61.2633 52.6664H46.8953C45.5343 52.6664 44.4303 51.5639 44.4303 50.2041V48.1663C44.4303 46.6683 45.7573 45.5177 47.2423 45.728L61.6103 47.7658C62.8253 47.939 63.7283 48.9774 63.7283 50.2041C63.7283 51.5639 62.6253 52.6664 61.2633 52.6664Z" fill="#4B7CFE"/><path fill-rule="evenodd" clip-rule="evenodd" d="M112.185 45.511L101.043 49.5385L100.16 47.1022L111.302 43.0737C111.943 42.8424 112.65 43.1738 112.882 43.8137L112.925 43.9329C113.157 44.5727 112.826 45.2797 112.185 45.511Z" fill="#4B7CFE"/><path fill-rule="evenodd" clip-rule="evenodd" d="M101.477 52.704C100.762 52.704 100.182 52.1232 100.182 51.4073V47.1074H102.772V51.4073C102.772 52.1232 102.192 52.704 101.477 52.704Z" fill="#4B7CFE"/><path fill-rule="evenodd" clip-rule="evenodd" d="M82.1154 90.3574H74.3834C73.8504 90.3574 73.4194 89.9258 73.4194 89.392C73.4194 88.8593 73.8504 88.4277 74.3834 88.4277H82.1154C82.6474 88.4277 83.0784 88.8593 83.0784 89.392C83.0784 89.9258 82.6474 90.3574 82.1154 90.3574Z" fill="#4B7CFE"/><path fill-rule="evenodd" clip-rule="evenodd" d="M78.2771 116.166H70.5451C70.0121 116.166 69.5811 115.734 69.5811 115.202C69.5811 114.668 70.0121 114.236 70.5451 114.236H78.2771C78.8091 114.236 79.2401 114.668 79.2401 115.202C79.2401 115.734 78.8091 116.166 78.2771 116.166Z" fill="#4B7CFE"/></svg>