<?xml version="1.0" encoding="utf-8"?><!--Generator: Adobe Illustrator 27.8.0, SVG Export Plug-In . SVG Version: 6.00 Build 0)--><svg version="1.1" id="Ebene_1" xmlns="http://www.w3.org/2000/svg" xmlns:xlink="http://www.w3.org/1999/xlink" x="0px" y="0px" viewBox="0 0 160 160" style="enable-background:new 0 0 160 160;" xml:space="preserve"><style type="text/css">.st0{fill:#763427;}
	.st1{fill:#BEDEF5;}
	.st2{fill:#AACDE5;}
	.st3{fill:#BF7461;}
	.st4{fill:#A86554;}
	.st5{fill:#FAA332;}</style><path class="st0" d="M128.1,98.1l-12.5,1.3l-27.3,4.1l0,0c-1,0.3-2.1,0.2-3.2-0.1c-2.5-0.8-4.2-3.2-4.2-5.7c0-2.7,1.7-4.8,4-5.6
	c0,0,0,0,0,0c0,0,22.3-5.7,29.3-8.1L128.1,98.1z"/><polygon class="st1" points="77.9,80.8 76.4,78.6 82.3,78.6 80.7,80.8 "/><polygon class="st2" points="77.9,76.4 76.4,78.6 82.3,78.6 80.7,76.4 "/><polygon class="st3" points="88.8,98.5 54.3,98.5 49.1,88.2 90.8,88.2 "/><path class="st3" d="M101.1,93.9c-0.3-3.3-3.3-5.7-6.6-5.8h-3.3v0H42.7v-1h48.2c-0.8-2.5-3.2-4.3-5.9-4.3h-5.1c-1.1-1.8-3.1-3-5.3-3
	H26.1h-9.6H16v44.4l7.6,3.2l20.4,8.7c1.1,0.5,2.3,0.6,3.6,0.4c2.7-0.4,4.9-2.5,5.4-5.2c0.6-3-0.9-5.8-3.3-7c0,0-14.3-7.3-21.5-11.1
	c-7.3-3.8-2.6-13.8,6.7-10.9l46.6,13c2.9,0.7,5.9-1,6.8-3.9c1-3.2-0.9-6.6-4.2-7.4l-13.3-3.3l23.9,0.1
	C98.5,100.9,101.5,97.7,101.1,93.9z"/><path class="st4" d="M90.9,87.1H42.7v1h48.5v0h0"/><polygon class="st4" points="70.9,100.7 44.4,92.8 44.7,91.8 74.4,100.7 "/><path class="st0" d="M144,59.5l-6.3-4.4L95.6,25.4c-1.6-1.1-3.7-1.3-5.5-0.6l-3.8-2.6c-2.3-1.6-5.5-1.3-7.4,0.6L76.3,21
	c-2.6-1.8-6.2-1.2-8.1,1.4c-1.9,2.6-1.2,6.3,1.4,8.1l25,17.5L75.7,66.9c-2.3,2.2-2.3,5.9-0.1,8.2c2.2,2.3,5.9,2.3,8.2,0.1l15.5-14.6
	c0,0,13.6,8.8,16.5,11.1c6.2,5,5,10.1-2,12.4l14.3,14l15.9,3.8V59.5z M142.8,100.8c-1-0.7-2-1.4-2-1.3L142.8,100.8z"/><rect x="39.8" y="82.9" class="st4" width="33.8" height="1"/><path class="st5" d="M73.2,88.1c0.5-3,3-5.3,6.2-5.3c0.1,0,0.1,0,0.2,0l0,0l5.6,0c-1.5-1.4-3.5-2.3-5.7-2.3c-4.4,0-8.1,3.2-8.5,7.6
	H73.2z"/></svg>