<svg viewBox="0 0 160 160" fill="none" xmlns="http://www.w3.org/2000/svg"><path fill-rule="evenodd" clip-rule="evenodd" d="M22.9937 118.215V93.1886C22.9937 92.4895 23.5587 91.9219 24.2557 91.9219H37.6177C38.3147 91.9219 38.8797 92.4895 38.8797 93.1886V118.215C38.8797 120.856 36.7447 122.999 34.1107 122.999H27.7637C25.1297 122.999 22.9937 120.856 22.9937 118.215Z" fill="#232144"/><path fill-rule="evenodd" clip-rule="evenodd" d="M121.766 118.215V93.1886C121.766 92.4895 122.331 91.9219 123.028 91.9219H136.39C137.087 91.9219 137.652 92.4895 137.652 93.1886V118.215C137.652 120.856 135.517 122.999 132.883 122.999H126.536C123.902 122.999 121.766 120.856 121.766 118.215Z" fill="#232144"/><path fill-rule="evenodd" clip-rule="evenodd" d="M129.68 65.7969H80.5352H80.1112H30.9662L24.7312 77.5723C22.8222 81.1768 21.8242 85.1936 21.8242 89.2715V103.144C21.8242 109.025 26.5922 113.792 32.4742 113.792H80.1112H80.5352H128.171C134.053 113.792 138.822 109.025 138.822 103.144V89.2715C138.822 85.1936 137.824 81.1768 135.915 77.5723L129.68 65.7969Z" fill="#F7E5CD"/><path fill-rule="evenodd" clip-rule="evenodd" d="M141.248 56.7812H133.111C131.591 56.7812 130.358 58.0128 130.358 59.5333V60.2343H127.041V63.6874H130.358V64.3885C130.358 65.9079 131.591 67.1395 133.111 67.1395H141.248C142.768 67.1395 144 65.9079 144 64.3885V59.5333C144 58.0128 142.768 56.7812 141.248 56.7812Z" fill="#F7E5CD"/><path fill-rule="evenodd" clip-rule="evenodd" d="M32.959 60.2324H29.642V59.5313C29.642 58.0109 28.41 56.7793 26.89 56.7793H18.752C17.232 56.7793 16 58.0109 16 59.5313V64.3865C16 65.906 17.232 67.1386 18.752 67.1386H26.89C28.41 67.1386 29.642 65.906 29.642 64.3865V63.6855H32.959V60.2324Z" fill="#F7E5CD"/><path fill-rule="evenodd" clip-rule="evenodd" d="M30.7075 66.3498L34.6505 53.1001C37.4935 43.5481 46.2755 37 56.2425 37H103.176C112.725 37 121.237 43.0186 124.417 52.0209L129.872 66.1572L30.7075 66.3498Z" fill="#F7E5CD"/><path fill-rule="evenodd" clip-rule="evenodd" d="M121.766 107.288C121.766 105.477 123.235 104.008 125.047 104.008C126.859 104.008 128.328 105.477 128.328 107.288C128.328 109.1 126.859 110.569 125.047 110.569C123.235 110.569 121.766 109.1 121.766 107.288Z" fill="#232144"/><path fill-rule="evenodd" clip-rule="evenodd" d="M31.6117 107.288C31.6117 105.477 33.0807 104.008 34.8927 104.008C36.7047 104.008 38.1737 105.477 38.1737 107.288C38.1737 109.1 36.7047 110.569 34.8927 110.569C33.0807 110.569 31.6117 109.1 31.6117 107.288Z" fill="#232144"/><path fill-rule="evenodd" clip-rule="evenodd" d="M130.917 80.2537C130.917 80.2537 122.363 79.4534 118.139 81.5004C112.777 84.098 106.384 91.8416 105.429 93.0221L105.36 93.0562H105.401C105.34 93.1324 105.307 93.1735 105.307 93.1735L105.668 93.0562H119.495C130.464 93.0562 130.917 88.3905 130.917 80.2537Z" fill="#232144"/><path fill-rule="evenodd" clip-rule="evenodd" d="M121.342 52.0209C118.399 43.0186 110.525 37 101.691 37H58.2735C49.0525 37 40.9285 43.5491 38.2985 53.1001L34.6505 66.3498H126.026L121.342 52.0209Z" fill="#232144"/><path fill-rule="evenodd" clip-rule="evenodd" d="M54.5986 93.0562H54.6396L54.5706 93.0221C53.6156 91.8416 47.2236 84.098 41.8616 81.5004C37.6366 79.4534 29.0836 80.2537 29.0836 80.2537H29.0826C29.0826 88.3905 29.5356 93.0562 40.5056 93.0562H54.3316L54.6926 93.1735C54.6926 93.1735 54.6596 93.1324 54.5986 93.0562Z" fill="#232144"/><path fill-rule="evenodd" clip-rule="evenodd" d="M55.2141 104.004L57.7331 98.9675C58.8221 96.7891 61.0501 95.4121 63.4871 95.4121H96.4591C98.8751 95.4121 101.088 96.7671 102.188 98.9184L104.775 103.984C105.677 105.748 104.395 107.842 102.413 107.842H57.5871C55.6151 107.842 54.3321 105.767 55.2141 104.004Z" fill="#232144"/></svg>