<svg viewBox="0 0 160 160" fill="none" xmlns="http://www.w3.org/2000/svg"><path d="M143.99 113.356L143.918 44.966C143.914 41.4866 141.091 38.669 137.611 38.6726L22.2814 38.7934C18.802 38.797 15.9844 41.6206 15.988 45.1L16.0597 113.49C16.0633 116.969 18.8869 119.787 22.3662 119.783L137.696 119.663C141.176 119.659 143.993 116.835 143.99 113.356Z" fill="#FF6200"/><path d="M35.26 74.85H28.5V77.7C28.5 78.64 29.05 79.4 29.73 79.4H35.26V74.86V74.85Z" fill="white"/><path d="M47.66 74.85H41.02V79.38H46.46C47.13 79.38 47.67 78.62 47.67 77.68V74.85H47.66Z" fill="white"/><path d="M47.66 70.8199H42.18V74.41H47.66V70.8199Z" fill="white"/><path d="M33.97 70.8199H28.49V74.41H33.97V70.8199Z" fill="white"/><path d="M40.57 65.77H35.69V67.61H40.57V65.77Z" fill="white"/><path d="M40.57 77.62H35.69V79.4H40.57V77.62Z" fill="white"/><path d="M41.02 70.37H47.66V67.45C47.66 66.51 47.12 65.75 46.45 65.75H41.02V70.36V70.37Z" fill="white"/><path d="M35.26 65.76H29.72C29.04 65.76 28.49 66.53 28.49 67.47V70.37H35.26V65.76Z" fill="white"/><path d="M34.39 77.41L34.38 67.8199H41.77L41.79 77.3999L34.39 77.41Z" fill="white"/><path d="M34 77.62L33.98 67.61H42.16L42.18 77.62H34ZM34.46 68.03L34.48 77.19H41.69L41.67 68.03H34.46Z" fill="#FF6200"/><path d="M53.09 76.06C52.97 76.06 52.85 76.01 52.76 75.92C52.58 75.74 52.58 75.44 52.76 75.26C54.21 73.81 54.21 71.45 52.76 70C52.58 69.82 52.58 69.52 52.76 69.34C52.94 69.16 53.23 69.16 53.42 69.34C55.23 71.15 55.23 74.1 53.42 75.91C53.33 76 53.21 76.05 53.09 76.05V76.06Z" fill="white"/><path d="M55.06 76.89C54.94 76.89 54.82 76.84 54.73 76.75C54.55 76.57 54.55 76.27 54.73 76.09C56.63 74.19 56.63 71.09 54.73 69.18C54.55 69 54.55 68.7 54.73 68.52C54.91 68.34 55.2 68.34 55.39 68.52C57.66 70.79 57.66 74.47 55.39 76.74C55.3 76.83 55.18 76.88 55.06 76.88V76.89Z" fill="white"/><path d="M57.02 77.72C56.9 77.72 56.78 77.67 56.69 77.58C56.51 77.4 56.51 77.1 56.69 76.92C57.84 75.77 58.47 74.25 58.47 72.63C58.47 71.01 57.84 69.49 56.69 68.34C56.51 68.16 56.51 67.86 56.69 67.68C56.87 67.5 57.16 67.5 57.35 67.68C58.67 69 59.4 70.76 59.4 72.63C59.4 74.5 58.67 76.25 57.35 77.58C57.26 77.67 57.14 77.72 57.02 77.72Z" fill="white"/><path d="M59.21 78.47C59.09 78.47 58.97 78.42 58.88 78.33C58.7 78.15 58.7 77.85 58.88 77.67C61.48 75.07 61.48 70.14 58.88 67.53C58.7 67.35 58.7 67.05 58.88 66.87C59.06 66.69 59.35 66.69 59.54 66.87C62.48 69.81 62.48 75.38 59.54 78.32C59.45 78.41 59.33 78.46 59.21 78.46V78.47Z" fill="white"/></svg>