<svg viewBox="0 0 160 160" fill="none" xmlns="http://www.w3.org/2000/svg"><path fill-rule="evenodd" clip-rule="evenodd" d="M113.538 97.9462L114.742 96.8693L78.832 58.7343L51.516 60.2319L16.627 36.0864L17.692 83.1682L31.277 89.5885L66.573 117.1L66.609 117.137L77.37 126.594C79.857 128.778 83.442 128.425 85.264 126.599C86.279 125.582 87.459 123.366 87.262 121.388L87.2 121.505L87.599 121.855C90.085 124.041 93.87 123.793 96.051 121.301C97.787 119.319 97.98 116.516 96.734 114.351L96.92 114.514C99.407 116.7 103.191 116.452 105.373 113.961C107.099 111.989 107.298 109.206 106.075 107.046C108.482 108.363 111.559 107.888 113.442 105.737C115.414 103.486 115.395 100.176 113.538 97.9462Z" fill="#F5836D"/><path fill-rule="evenodd" clip-rule="evenodd" d="M52.0998 97.8689L42.6338 108.038C40.3468 110.495 36.4918 110.591 34.0848 108.252C31.7438 105.978 31.6508 102.245 33.8748 99.8554L43.5018 89.5132C45.8048 87.135 49.5968 87.0779 51.9708 89.3849C54.3458 91.692 54.4028 95.4907 52.0998 97.8689Z" fill="#9E3F39"/><path fill-rule="evenodd" clip-rule="evenodd" d="M78.9545 114.782C81.2435 117.007 81.3885 120.638 79.2845 123.039L75.7325 127.092C73.4455 129.549 69.5905 129.646 67.1835 127.307C64.8425 125.032 64.7495 121.299 66.9735 118.91L70.2935 115.126C72.5515 112.553 76.4995 112.397 78.9545 114.782Z" fill="#9E3F39"/><path fill-rule="evenodd" clip-rule="evenodd" d="M63.1759 103.918L53.7099 114.087C51.4229 116.544 47.5679 116.64 45.1609 114.301C42.8199 112.027 42.7269 108.293 44.9509 105.904L54.5779 95.562C56.8809 93.1838 60.6729 93.1267 63.0469 95.4338C65.4219 97.7408 65.4789 101.54 63.1759 103.918Z" fill="#9E3F39"/><path fill-rule="evenodd" clip-rule="evenodd" d="M70.4077 114.327L64.6107 120.314C62.3077 122.692 58.5157 122.749 56.1417 120.442C53.7677 118.135 53.7097 114.336 56.0127 111.958L61.8097 105.972C64.1127 103.593 67.9047 103.536 70.2787 105.843C72.6537 108.15 72.7107 111.949 70.4077 114.327Z" fill="#9E3F39"/><path fill-rule="evenodd" clip-rule="evenodd" d="M61.4158 65.2337L61.4268 65.2588L56.5148 67.4486C53.4078 68.8341 52.0108 72.4785 53.3928 75.59C54.7758 78.7024 58.4138 80.1019 61.5208 78.7175L74.9628 72.7239L74.9508 72.6989L80.3038 70.3127C80.2278 72.1679 80.3708 78.9228 85.8588 84.8863C92.2928 91.8786 105.085 89.8941 105.085 89.8941L113.538 97.9463L144 86.8998V44.3921L107.363 62.9187L83.2718 55.3724" fill="#9E3F39"/><path fill-rule="evenodd" clip-rule="evenodd" d="M16 86.5439L28.674 94.1914L50.238 56.2266L16 32V86.5439Z" fill="#FCE3CA"/><path fill-rule="evenodd" clip-rule="evenodd" d="M135.588 91.03L125.266 52.5323L144 43.1929V87.8324L135.588 91.03Z" fill="#232144"/><path fill-rule="evenodd" clip-rule="evenodd" d="M120.816 99.1606L109.481 60.0679C108.631 57.1357 110.315 54.0673 113.242 53.2158C116.17 52.3633 119.233 54.0503 120.083 56.9834L131.418 96.0762C132.268 99.0083 130.584 102.077 127.657 102.928C124.729 103.781 121.666 102.094 120.816 99.1606Z" fill="#F7931E"/></svg>