<svg viewBox="0 0 160 160" fill="none" xmlns="http://www.w3.org/2000/svg"><path d="M66.2988 22.1517L66.1029 75.6113L92.5427 75.7082L92.7386 22.2486L66.2988 22.1517Z" fill="#B0C2E4"/><path d="M66.3162 20.9337L66.2665 34.4937L92.7063 34.5906L92.756 21.0307L66.3162 20.9337Z" fill="#E5F0FF"/><path d="M86.7888 27.3264L86.7622 34.5664L90.9322 34.5817L90.9587 27.3417L86.7888 27.3264Z" fill="#4B7CFD"/><path d="M68.97 27.1701C68.97 27.2401 68.94 27.2601 68.88 27.2601H68.43C68.37 27.2601 68.34 27.2301 68.34 27.1701V24.7001C68.34 24.6201 68.37 24.5901 68.45 24.5901H68.74C70.13 24.5901 70.68 26.4301 71.56 26.4401C71.94 26.4401 72.13 26.1801 72.13 25.8101C72.13 25.4901 72 25.1901 71.84 24.9301C71.8 24.8701 71.81 24.8201 71.87 24.7901L72.18 24.6001C72.25 24.5601 72.29 24.5801 72.35 24.6601C72.58 24.9601 72.74 25.4201 72.74 25.8501C72.74 26.3301 72.61 26.6701 72.38 26.9001C72.18 27.0901 71.91 27.1901 71.57 27.1901C70.49 27.1901 69.77 25.4101 68.98 25.3401V27.1701H68.97Z" fill="#254471"/><path d="M70.42 28.0298C71.92 28.0298 72.73 28.6198 72.73 29.6098C72.73 30.5298 72.03 31.0798 70.58 31.0798C69.13 31.0798 68.27 30.4998 68.27 29.4998C68.27 28.5798 68.99 28.0298 70.42 28.0298ZM70.54 30.3098C71.59 30.3098 72.11 30.0698 72.11 29.5798C72.11 29.0498 71.52 28.7898 70.46 28.7898C69.4 28.7898 68.89 29.0298 68.89 29.5198C68.89 30.0498 69.49 30.3098 70.55 30.3098H70.54Z" fill="#254471"/><path d="M56.11 60.1402L87.64 16.9902L108.98 32.6102L77.45 75.7702L56.11 60.1402Z" fill="#F7C7A1"/><path d="M80.36 26.95L88.35 16L109.7 31.63L101.7 42.58L80.36 26.95Z" fill="#F7E5CD"/><path d="M96.91 39.07L101.17 33.23L104.54 35.69L100.27 41.53L96.91 39.07Z" fill="#4B7CFE"/><path d="M89.19 22.9902C88.95 23.3102 88.66 23.5102 88.33 23.5502C88.02 23.5902 87.69 23.5102 87.37 23.2702C86.61 22.7102 86.59 21.8602 87.14 21.1002C87.39 20.7502 87.73 20.4802 88.02 20.3702C88.08 20.3402 88.12 20.3702 88.16 20.4302L88.34 20.7702C88.38 20.8302 88.36 20.8702 88.3 20.9102C88.04 21.0502 87.81 21.2302 87.61 21.5002C87.28 21.9502 87.42 22.3902 87.78 22.6502C88.22 22.9702 88.59 22.8602 88.88 22.4502C89.05 22.2202 89.16 21.9802 89.29 21.6602C89.31 21.6002 89.36 21.5802 89.41 21.6102L91.17 22.9002C91.17 22.9002 91.23 22.9702 91.19 23.0302L89.89 24.8102C89.89 24.8102 89.81 24.8702 89.76 24.8302L89.4 24.5702C89.4 24.5702 89.34 24.5002 89.38 24.4402L90.32 23.1502L89.45 22.5102C89.39 22.6802 89.29 22.8402 89.17 23.0002H89.19V22.9902Z" fill="#891229"/><path d="M87.53 24.2199C88.74 25.1099 89.06 26.0599 88.47 26.8599C87.93 27.5999 87.04 27.6399 85.87 26.7799C84.66 25.8999 84.34 24.9499 84.93 24.1399C85.47 23.3999 86.37 23.3699 87.53 24.2199ZM86.29 26.1399C87.14 26.7599 87.7 26.8699 87.99 26.4699C88.3 26.0499 87.97 25.4799 87.11 24.8599C86.26 24.2399 85.7 24.1199 85.4 24.5199C85.09 24.9399 85.42 25.5099 86.28 26.1399H86.29Z" fill="#891229"/><path d="M125.21 87.73H35.21V144H125.21V87.73Z" fill="#232144"/><path d="M79.96 104.65H43.2V128.75H79.96V104.65Z" fill="#D3E8F3"/><path d="M65.79 104.65H63.7L48.15 128.76H50.23L65.79 104.65Z" fill="white"/><path d="M73.86 104.65H69.65L54.09 128.76H58.31L73.86 104.65Z" fill="white"/><path d="M68.86 103.39V141.08" stroke="#232144" stroke-width="1.48" stroke-miterlimit="10"/><path d="M113.6 104.65H92.42V144H113.6V104.65Z" fill="#463EC5"/><path d="M97.5 103.92V144" stroke="#232144" stroke-width="1.48" stroke-miterlimit="10"/><path d="M125.21 87.73H35.21V144H125.21V87.73Z" fill="#232144"/><path d="M79.96 104.65H43.2V128.75H79.96V104.65Z" fill="#D3E8F3"/><path d="M65.79 104.65H63.7L48.15 128.76H50.23L65.79 104.65Z" fill="white"/><path d="M73.86 104.65H69.65L54.09 128.76H58.31L73.86 104.65Z" fill="white"/><path d="M68.86 103.39V141.08" stroke="#232144" stroke-width="1.48" stroke-miterlimit="10"/><path d="M113.6 104.65H92.42V144H113.6V104.65Z" fill="#463EC5"/><path d="M127.72 88.1901L113.65 50.0801H46.81L32.74 88.1901H127.72Z" fill="#4B7CFE"/><path d="M97.5 103.92V144" stroke="#232144" stroke-width="1.48" stroke-miterlimit="10"/><path d="M104.64 81.7198L99.86 55.8398H60.7L56.4 81.7198H104.64Z" fill="#232144"/><path d="M106.08 82.9201H54.99L59.68 54.6401H100.86L106.08 82.9201ZM56.4 81.7201H104.64L99.87 55.8401H60.7L56.4 81.7201Z" fill="#E5F0FF"/><path d="M102.02 64.1099H58.9V64.4099H102.02V64.1099Z" fill="#E5F0FF"/><path d="M103.65 73.1499H57.18V73.4499H103.65V73.1499Z" fill="#E5F0FF"/><path d="M80.32 64.9698C80.7177 64.9698 81.04 64.6474 81.04 64.2498C81.04 63.8521 80.7177 63.5298 80.32 63.5298C79.9224 63.5298 79.6 63.8521 79.6 64.2498C79.6 64.6474 79.9224 64.9698 80.32 64.9698Z" fill="#E5F0FF"/><path d="M70.3081 55.2233L68.0518 82.1489L68.3507 82.174L70.607 55.2483L70.3081 55.2233Z" fill="#E5F0FF"/><path d="M69.76 64.9698C70.1577 64.9698 70.48 64.6474 70.48 64.2498C70.48 63.8521 70.1577 63.5298 69.76 63.5298C69.3624 63.5298 69.04 63.8521 69.04 64.2498C69.04 64.6474 69.3624 64.9698 69.76 64.9698Z" fill="#E5F0FF"/><path d="M68.94 74.0298C69.3376 74.0298 69.66 73.7075 69.66 73.3098C69.66 72.9122 69.3376 72.5898 68.94 72.5898C68.5424 72.5898 68.22 72.9122 68.22 73.3098C68.22 73.7075 68.5424 74.0298 68.94 74.0298Z" fill="#E5F0FF"/><path d="M90.2791 55.2252L89.9805 55.2539L92.5741 82.2396L92.8728 82.2108L90.2791 55.2252Z" fill="#E5F0FF"/><path d="M90.98 64.9698C91.3777 64.9698 91.7 64.6474 91.7 64.2498C91.7 63.8521 91.3777 63.5298 90.98 63.5298C90.5824 63.5298 90.26 63.8521 90.26 64.2498C90.26 64.6474 90.5824 64.9698 90.98 64.9698Z" fill="#E5F0FF"/><path d="M91.83 74.0298C92.2276 74.0298 92.55 73.7075 92.55 73.3098C92.55 72.9122 92.2276 72.5898 91.83 72.5898C91.4323 72.5898 91.11 72.9122 91.11 73.3098C91.11 73.7075 91.4323 74.0298 91.83 74.0298Z" fill="#E5F0FF"/><path d="M80.34 74.0098C80.7376 74.0098 81.06 73.6875 81.06 73.2898C81.06 72.8922 80.7376 72.5698 80.34 72.5698C79.9423 72.5698 79.62 72.8922 79.62 73.2898C79.62 73.6875 79.9423 74.0098 80.34 74.0098Z" fill="#E5F0FF"/><path d="M80.48 55.6401H80.18V82.1601H80.48V55.6401Z" fill="#E5F0FF"/></svg>