<?xml version="1.0" encoding="UTF-8"?><svg id="Yellow" xmlns="http://www.w3.org/2000/svg" viewBox="0 0 160 160"><defs><style>.cls-1{fill:#feb200;}.cls-2{fill:#7d2d35;}.cls-3{fill:#c2745c;}.cls-4{fill:#ab654f;}</style></defs><path class="cls-2" d="M47.37,57.48h36v6.77c0,3.73-3.03,6.77-6.77,6.77h-22.47c-3.73,0-6.77-3.03-6.77-6.77v-6.77h0Z" transform="translate(151.79 33.73) rotate(116.04)"/><path class="cls-4" d="M68.64,56.64l12.59,4.96-10.72,27.19c-1.37,3.48-5.3,5.18-8.78,3.81h0c-3.48-1.37-5.18-5.3-3.81-8.78l10.72-27.19ZM68.71,43.82l-17.94,8.88c-3.35,1.66-4.72,5.72-3.06,9.06h0c1.66,3.35,5.72,4.72,9.06,3.06l26.2-12.97-1.91-3.86c-2.26-4.56-7.79-6.43-12.35-4.17Z"/><path class="cls-3" d="M98.32,82.89l-30.36.61-.12-39.3,7.91.11c2.49.04,4.84,2.01,6.47,5.43l16.1,33.15Z"/><rect class="cls-1" x="52.9" y="15.63" width="41.95" height="65.41" rx="4.93" ry="4.93"/><path class="cls-3" d="M70.91,116.56l-2.13,27.21h31.27l-1.73-60.87-22.32.24.44-23.54c.07-3.74-2.91-6.83-6.65-6.9h0c-3.73-.07-6.82,2.9-6.9,6.63l-.77,37.19c-.16,7.73,3.12,15.03,8.78,20.04Z"/></svg>