<svg viewBox="0 0 160 160" fill="none" xmlns="http://www.w3.org/2000/svg"><path fill-rule="evenodd" clip-rule="evenodd" d="M22.291 39.124L137.623 39C141.101 38.996 143.923 41.813 143.927 45.291L144 113.691C144.004 117.169 141.188 119.991 137.71 119.995L22.378 120.119C18.9 120.123 16.077 117.306 16.074 113.828L16 45.428C15.997 41.95 18.813 39.128 22.291 39.124Z" fill="#FF6200"/><path fill-rule="evenodd" clip-rule="evenodd" d="M66.8214 102.195C67.9254 102.195 68.5544 101.26 68.5544 99.5646C68.5544 97.9786 67.9564 97.0436 66.9064 97.0436C65.8944 97.0436 65.1744 97.9626 65.1744 99.6336C65.1894 101.283 65.8484 102.195 66.8214 102.195ZM66.8604 101.673C66.2474 101.673 65.8484 100.938 65.8484 99.6416C65.8484 98.2846 66.2774 97.5646 66.8674 97.5646C67.5654 97.5646 67.8794 98.3696 67.8794 99.5956C67.8794 100.869 67.5504 101.673 66.8604 101.673Z" fill="white"/><path fill-rule="evenodd" clip-rule="evenodd" d="M70.7533 102.195C71.8573 102.195 72.4863 101.26 72.4863 99.5646C72.4863 97.9786 71.8883 97.0436 70.8373 97.0436C69.8263 97.0436 69.1053 97.9626 69.1053 99.6336C69.1203 101.283 69.7803 102.195 70.7533 102.195ZM70.7913 101.673C70.1783 101.673 69.7803 100.938 69.7803 99.6416C69.7803 98.2846 70.2093 97.5646 70.7993 97.5646C71.4973 97.5646 71.8113 98.3696 71.8113 99.5956C71.8113 100.869 71.4813 101.673 70.7913 101.673Z" fill="white"/><path fill-rule="evenodd" clip-rule="evenodd" d="M76.4175 99.5646C76.4175 101.26 75.7885 102.195 74.6845 102.195C73.7115 102.195 73.0525 101.283 73.0375 99.6336C73.0375 97.9626 73.7575 97.0436 74.7695 97.0436C75.8195 97.0436 76.4175 97.9786 76.4175 99.5646ZM73.7115 99.6416C73.7115 100.938 74.1105 101.673 74.7235 101.673C75.4135 101.673 75.7425 100.869 75.7425 99.5956C75.7425 98.3696 75.4285 97.5646 74.7305 97.5646C74.1405 97.5646 73.7115 98.2846 73.7115 99.6416Z" fill="white"/><path fill-rule="evenodd" clip-rule="evenodd" d="M78.6164 102.195C79.7204 102.195 80.3494 101.26 80.3494 99.5646C80.3494 97.9786 79.7514 97.0436 78.7004 97.0436C77.6894 97.0436 76.9684 97.9626 76.9684 99.6336C76.9834 101.283 77.6434 102.195 78.6164 102.195ZM78.6544 101.673C78.0414 101.673 77.6434 100.938 77.6434 99.6416C77.6434 98.2846 78.0724 97.5646 78.6624 97.5646C79.3604 97.5646 79.6744 98.3696 79.6744 99.5956C79.6744 100.869 79.3444 101.673 78.6544 101.673Z" fill="white"/><path fill-rule="evenodd" clip-rule="evenodd" d="M85.9052 99.5646C85.9052 101.26 85.2761 102.195 84.1721 102.195C83.1992 102.195 82.5401 101.283 82.5251 99.6336C82.5251 97.9626 83.2451 97.0436 84.2571 97.0436C85.3072 97.0436 85.9052 97.9786 85.9052 99.5646ZM83.1992 99.6416C83.1992 100.938 83.5982 101.673 84.2112 101.673C84.9012 101.673 85.2301 100.869 85.2301 99.5956C85.2301 98.3696 84.9161 97.5646 84.2181 97.5646C83.6282 97.5646 83.1992 98.2846 83.1992 99.6416Z" fill="white"/><path fill-rule="evenodd" clip-rule="evenodd" d="M88.1041 102.195C89.2081 102.195 89.8371 101.26 89.8371 99.5646C89.8371 97.9786 89.2391 97.0436 88.1881 97.0436C87.1771 97.0436 86.4561 97.9626 86.4561 99.6336C86.4711 101.283 87.1311 102.195 88.1041 102.195ZM88.1421 101.673C87.5291 101.673 87.1311 100.938 87.1311 99.6416C87.1311 98.2846 87.5601 97.5646 88.1501 97.5646C88.8481 97.5646 89.1621 98.3696 89.1621 99.5956C89.1621 100.869 88.8321 101.673 88.1421 101.673Z" fill="white"/><path fill-rule="evenodd" clip-rule="evenodd" d="M93.7683 99.5646C93.7683 101.26 93.1393 102.195 92.0353 102.195C91.0623 102.195 90.4033 101.283 90.3883 99.6336C90.3883 97.9626 91.1083 97.0436 92.1203 97.0436C93.1703 97.0436 93.7683 97.9786 93.7683 99.5646ZM91.0623 99.6416C91.0623 100.938 91.4613 101.673 92.0743 101.673C92.7643 101.673 93.0933 100.869 93.0933 99.5956C93.0933 98.3696 92.7793 97.5646 92.0813 97.5646C91.4913 97.5646 91.0623 98.2846 91.0623 99.6416Z" fill="white"/><path fill-rule="evenodd" clip-rule="evenodd" d="M95.9672 102.195C97.0712 102.195 97.7002 101.26 97.7002 99.5646C97.7002 97.9786 97.1022 97.0436 96.0512 97.0436C95.0402 97.0436 94.3192 97.9626 94.3192 99.6336C94.3342 101.283 94.9942 102.195 95.9672 102.195ZM96.0052 101.673C95.3922 101.673 94.9942 100.938 94.9942 99.6416C94.9942 98.2846 95.4232 97.5646 96.0132 97.5646C96.7112 97.5646 97.0252 98.3696 97.0252 99.5956C97.0252 100.869 96.6952 101.673 96.0052 101.673Z" fill="white"/><path fill-rule="evenodd" clip-rule="evenodd" d="M103.256 99.5646C103.256 101.26 102.627 102.195 101.523 102.195C100.55 102.195 99.891 101.283 99.876 99.6336C99.876 97.9626 100.596 97.0436 101.608 97.0436C102.658 97.0436 103.256 97.9786 103.256 99.5646ZM100.55 99.6416C100.55 100.938 100.949 101.673 101.562 101.673C102.252 101.673 102.581 100.869 102.581 99.5956C102.581 98.3696 102.267 97.5646 101.569 97.5646C100.979 97.5646 100.55 98.2846 100.55 99.6416Z" fill="white"/><path fill-rule="evenodd" clip-rule="evenodd" d="M105.455 102.195C106.559 102.195 107.188 101.26 107.188 99.5646C107.188 97.9786 106.59 97.0436 105.539 97.0436C104.528 97.0436 103.807 97.9626 103.807 99.6336C103.822 101.283 104.482 102.195 105.455 102.195ZM105.493 101.673C104.88 101.673 104.482 100.938 104.482 99.6416C104.482 98.2846 104.911 97.5646 105.501 97.5646C106.199 97.5646 106.513 98.3696 106.513 99.5956C106.513 100.869 106.183 101.673 105.493 101.673Z" fill="white"/><path fill-rule="evenodd" clip-rule="evenodd" d="M111.119 99.5646C111.119 101.26 110.49 102.195 109.386 102.195C108.413 102.195 107.754 101.283 107.739 99.6336C107.739 97.9626 108.459 97.0436 109.471 97.0436C110.521 97.0436 111.119 97.9786 111.119 99.5646ZM108.413 99.6416C108.413 100.938 108.812 101.673 109.425 101.673C110.115 101.673 110.444 100.869 110.444 99.5956C110.444 98.3696 110.13 97.5646 109.432 97.5646C108.842 97.5646 108.413 98.2846 108.413 99.6416Z" fill="white"/><path fill-rule="evenodd" clip-rule="evenodd" d="M113.318 102.195C114.422 102.195 115.051 101.26 115.051 99.5646C115.051 97.9786 114.453 97.0436 113.402 97.0436C112.391 97.0436 111.67 97.9626 111.67 99.6336C111.685 101.283 112.345 102.195 113.318 102.195ZM113.356 101.673C112.743 101.673 112.345 100.938 112.345 99.6416C112.345 98.2846 112.774 97.5646 113.364 97.5646C114.062 97.5646 114.376 98.3696 114.376 99.5956C114.376 100.869 114.046 101.673 113.356 101.673Z" fill="white"/><path fill-rule="evenodd" clip-rule="evenodd" d="M120.607 99.5646C120.607 101.26 119.978 102.195 118.874 102.195C117.901 102.195 117.241 101.283 117.226 99.6336C117.226 97.9626 117.947 97.0436 118.958 97.0436C120.009 97.0436 120.607 97.9786 120.607 99.5646ZM117.901 99.6416C117.901 100.938 118.299 101.673 118.912 101.673C119.602 101.673 119.932 100.869 119.932 99.5956C119.932 98.3696 119.618 97.5646 118.92 97.5646C118.33 97.5646 117.901 98.2846 117.901 99.6416Z" fill="white"/><path fill-rule="evenodd" clip-rule="evenodd" d="M122.806 102.195C123.91 102.195 124.539 101.26 124.539 99.5646C124.539 97.9786 123.941 97.0436 122.891 97.0436C121.879 97.0436 121.159 97.9626 121.159 99.6336C121.174 101.283 121.833 102.195 122.806 102.195ZM122.845 101.673C122.232 101.673 121.833 100.938 121.833 99.6416C121.833 98.2846 122.262 97.5646 122.852 97.5646C123.55 97.5646 123.864 98.3696 123.864 99.5956C123.864 100.869 123.535 101.673 122.845 101.673Z" fill="white"/><path fill-rule="evenodd" clip-rule="evenodd" d="M128.47 99.5646C128.47 101.26 127.841 102.195 126.737 102.195C125.764 102.195 125.104 101.283 125.089 99.6336C125.089 97.9626 125.81 97.0436 126.821 97.0436C127.872 97.0436 128.47 97.9786 128.47 99.5646ZM125.764 99.6416C125.764 100.938 126.162 101.673 126.775 101.673C127.465 101.673 127.795 100.869 127.795 99.5956C127.795 98.3696 127.481 97.5646 126.783 97.5646C126.193 97.5646 125.764 98.2846 125.764 99.6416Z" fill="white"/><path fill-rule="evenodd" clip-rule="evenodd" d="M130.669 102.195C131.773 102.195 132.402 101.26 132.402 99.5646C132.402 97.9786 131.804 97.0436 130.754 97.0436C129.742 97.0436 129.022 97.9626 129.022 99.6336C129.037 101.283 129.696 102.195 130.669 102.195ZM130.708 101.673C130.095 101.673 129.696 100.938 129.696 99.6416C129.696 98.2846 130.125 97.5646 130.715 97.5646C131.413 97.5646 131.727 98.3696 131.727 99.5956C131.727 100.869 131.398 101.673 130.708 101.673Z" fill="white"/><path d="M42.0751 59.8563H49.641L49.638 56.9383C49.637 56.0003 48.876 55.2413 47.938 55.2423L40.312 55.2503V57.621L39.8078 57.6215V55.2507L32.1688 55.2587C31.2308 55.2597 30.4708 56.0207 30.4718 56.9587L30.4748 59.8567H38.0401L38.0405 60.306H30.4758L30.4798 63.891H38.0443L38.0447 64.3408H30.48L30.483 67.1868C30.484 68.1248 31.245 68.8838 32.183 68.8828L39.808 68.8748V67.2065L40.3125 67.206V68.8748L47.9525 68.8668C48.8905 68.8658 49.6495 68.1038 49.6485 67.1668L49.6455 64.3408H42.0797L42.0793 63.8912H49.6453L49.6413 60.3062H42.0755L42.0751 59.8563Z" fill="white"/><path fill-rule="evenodd" clip-rule="evenodd" d="M38.2516 57.837L38.2616 66.994L41.8686 66.99L41.8586 57.833L38.2516 57.837ZM37.8336 67.422L37.8226 57.409L42.2866 57.405L42.2976 67.418L37.8336 67.422Z" fill="#F46001"/><path d="M62.5333 67.8121C62.6213 67.9001 62.7373 67.9441 62.8533 67.9441C62.9693 67.9441 63.0853 67.9001 63.1733 67.8121C66.0443 64.9411 66.0443 59.5121 63.1733 56.6411C62.9963 56.4641 62.7103 56.4641 62.5333 56.6411C62.3563 56.8181 62.3563 57.1041 62.5333 57.2811C65.0753 59.8231 65.0753 64.6291 62.5333 67.1711C62.3563 67.3481 62.3563 67.6351 62.5333 67.8121Z" fill="white"/><path d="M60.7197 67.2136C60.6037 67.2136 60.4877 67.1696 60.3997 67.0816C60.2227 66.9046 60.2227 66.6176 60.3997 66.4406C61.5177 65.3226 62.1337 63.8366 62.1337 62.2556C62.1337 60.6736 61.5177 59.1876 60.3997 58.0696C60.2227 57.8926 60.2227 57.6056 60.3997 57.4286C60.5767 57.2526 60.8627 57.2526 61.0397 57.4286C62.3287 58.7186 63.0387 60.4316 63.0387 62.2556C63.0387 64.0786 62.3287 65.7916 61.0397 67.0816C60.9517 67.1696 60.8357 67.2136 60.7197 67.2136Z" fill="white"/><path d="M58.4809 66.2652C58.5689 66.3532 58.6849 66.3972 58.8009 66.3972C58.9169 66.3972 59.0329 66.3532 59.1209 66.2652C61.3319 64.0542 61.3319 60.4562 59.1209 58.2462C58.9439 58.0692 58.6579 58.0692 58.4809 58.2462C58.3039 58.4222 58.3039 58.7092 58.4809 58.8862C60.3389 60.7442 60.3389 63.7662 58.4809 65.6242C58.3039 65.8012 58.3039 66.0882 58.4809 66.2652Z" fill="white"/><path d="M56.5591 65.463C56.6471 65.551 56.7631 65.595 56.8791 65.595C56.9951 65.595 57.1111 65.551 57.1991 65.463C58.9681 63.694 58.9681 60.816 57.1991 59.048C57.0221 58.871 56.7361 58.871 56.5591 59.048C56.3821 59.225 56.3821 59.511 56.5591 59.688C57.9741 61.104 57.9741 63.407 56.5591 64.822C56.3821 64.999 56.3821 65.286 56.5591 65.463Z" fill="white"/></svg>