<?xml version="1.0" encoding="utf-8"?><!--Generator: Adobe Illustrator 28.0.0, SVG Export Plug-In . SVG Version: 6.00 Build 0)--><svg version="1.1" xmlns="http://www.w3.org/2000/svg" xmlns:xlink="http://www.w3.org/1999/xlink" x="0px" y="0px" viewBox="0 0 160 160" style="enable-background:new 0 0 160 160;" xml:space="preserve"><style type="text/css">.st0{fill:#AACDE5;}
	.st1{fill:#232144;}
	.st2{fill:#E6E3DA;}
	.st3{fill:#D8CBC5;}
	.st4{fill:#006931;}
	.st5{fill:#FBB03B;}
	.st6{fill:#693725;}</style><g id="Design"><g><path class="st0" d="M40.5,86.9V53.3c0-20.6,16.7-37.4,37.4-37.4s37.4,16.7,37.4,37.4v33.6H40.5z"/><g><polygon class="st1" points="49.7,55.2 77.1,26.5 104.5,55.2 			"/><polygon class="st2" points="54.7,83.2 54.7,55.4 77.1,31.4 99.5,55.4 99.5,83.2 			"/><rect x="83" y="59.8" class="st1" width="12.1" height="23.4"/><rect x="59.1" y="59.7" class="st3" width="18.7" height="16.9"/><path class="st4" d="M104.6,79.1c0,0.1,0,0.1,0,0.2"/></g><polygon class="st5" points="107.6,41.2 103.2,33.4 95.3,29.3 103.1,24.8 107.2,16.9 111.7,24.7 119.6,28.9 111.8,33.3 		"/><polygon class="st5" points="16,82.6 24.1,90.8 76.3,90.8 83.7,90.8 135.9,90.8 144,82.6 		"/><path class="st6" d="M57.3,144l6.3-34.2c0.1-0.2,0.1-0.3,0.2-0.4c0,0,0-0.1,0-0.1l29.5-6l25.6,0c2.9,0,5.7-1.9,6.4-4.7
			c1-4.2-2.1-7.9-6.1-7.9H68.6l-20.8-4.8l1.2-5.7c0.7-3.4-1.5-6.7-4.9-7.4c-3.4-0.7-6.7,1.5-7.4,4.9l-5.6,27.1l-3.3,9l0,0L16.6,144
			H57.3z"/></g></g><g id="stramien"/></svg>