<?xml version="1.0" encoding="UTF-8"?><svg xmlns="http://www.w3.org/2000/svg" version="1.1" viewBox="0 0 160 160"><defs><style>.cls-1, .cls-2 {
        fill: #232144;
      }

      .cls-3 {
        fill: #e6e3da;
      }

      .cls-4 {
        fill: #8f411f;
      }

      .cls-2 {
        fill-rule: evenodd;
      }

      .cls-5 {
        fill: #ff6200;
      }</style></defs><!--Generator: Adobe Illustrator 28.6.0, SVG Export Plug-In . SVG Version: 1.2.0 Build 709)--><g><g id="hand_holding_phone"><g><polygon class="cls-4" points="82.9 144 81.3 120.8 41.7 119.3 41 144 82.9 144"/><path class="cls-4" d="M48,63.9c-2.9.1-5.2,2.6-5.3,5.6l-.6,25.1c0,2.6-.3,14.7-.3,14.7l11,.3.9-40c0-3.2-2.5-5.8-5.8-5.6Z"/><path class="cls-4" d="M77.4,87.9h5.4c3,0,5.4,2.4,5.4,5.4v34.9c0,3-2.4,5.4-5.4,5.4h-5.4v-45.7h0Z" transform="translate(103.1 -26) rotate(45.2)"/><polygon class="cls-4" points="41.7 119.3 42.3 94.7 61.2 81.2 90.2 111.1 70 132.7 41.7 119.3"/><path class="cls-4" d="M117.5,50.9h0c-2.1-2.2-5.5-2.3-7.7-.2l-51.3,48.3,7.4,7.9,51.3-48.3c2.2-2.1,2.3-5.5.2-7.7Z"/><rect class="cls-1" x="51.8" y="16" width="53" height="109" rx="5.6" ry="5.6" transform="translate(156.6 141) rotate(180)"/><rect class="cls-3" x="53.6" y="18.3" width="49.3" height="104.4" rx="3.8" ry="3.8" transform="translate(156.6 141) rotate(180)"/><path class="cls-2" d="M70.4,22.7h15.9c2.5,0,4.5-2,4.5-4.5h0s-7.2,0-7.2,0h-17.8c0,2.5,2,4.5,4.5,4.5Z"/><rect class="cls-3" x="71.5" y="19.9" width="13.6" height="1.3" transform="translate(156.6 41.1) rotate(180)"/><rect class="cls-4" x="99.7" y="98.7" width="10.8" height="10.1" rx="5.1" ry="5.1" transform="translate(201.2 -8.5) rotate(85.9)"/><rect class="cls-4" x="98.8" y="85.3" width="12.4" height="11.5" rx="5.8" ry="5.8" transform="translate(188.4 -20.1) rotate(85.9)"/><rect class="cls-4" x="97.3" y="70.4" width="12.4" height="11.5" rx="5.8" ry="5.8" transform="translate(172.1 -32.5) rotate(85.9)"/><g><rect class="cls-5" x="60.9" y="54" width="34.9" height="5" rx="2.5" ry="2.5"/><rect class="cls-5" x="60.9" y="65.9" width="34.9" height="5" rx="2.5" ry="2.5"/><g><path class="cls-5" d="M69.4,80.3c.4-.2.5,0,.6.2l.4,1.3c.1.4,0,.5-.3.6l-3.2.7,2.3,2.6c.2.2.2.3-.2.6l-.9.6c-.2.2-.5.2-.6,0l-1.8-3-1.8,3c-.2.3-.4.2-.6,0l-.9-.6c-.3-.2-.3-.4-.2-.6l2.3-2.6-3.2-.7c-.4,0-.4-.2-.3-.6l.4-1.3c0-.3.2-.4.6-.2l3,1.2-.3-3.3c0-.3,0-.3.3-.3h1.4c.2,0,.3,0,.3.3l-.2,3.3,3-1.2Z"/><path class="cls-5" d="M82.1,80.3c.4-.2.5,0,.6.2l.4,1.3c.1.4,0,.5-.3.6l-3.2.7,2.3,2.6c.2.2.2.3-.2.6l-.9.6c-.2.2-.5.2-.6,0l-1.8-3-1.8,3c-.2.3-.4.2-.6,0l-.9-.6c-.3-.2-.3-.4-.2-.6l2.3-2.6-3.2-.7c-.4,0-.4-.2-.3-.6l.4-1.3c0-.3.2-.4.6-.2l3,1.2-.3-3.3c0-.3,0-.3.3-.3h1.4c.2,0,.3,0,.3.3l-.2,3.3,3-1.2Z"/><path class="cls-5" d="M94.7,80.3c.4-.2.5,0,.6.2l.4,1.3c.1.4,0,.5-.3.6l-3.2.7,2.3,2.6c.2.2.2.3-.2.6l-.9.6c-.2.2-.5.2-.6,0l-1.8-3-1.8,3c-.2.3-.4.2-.6,0l-.9-.6c-.3-.2-.3-.4-.2-.6l2.3-2.6-3.2-.7c-.4,0-.4-.2-.3-.6l.4-1.3c0-.3.2-.4.6-.2l3,1.2-.3-3.3c0-.3,0-.3.3-.3h1.4c.2,0,.3,0,.3.3l-.2,3.3,3-1.2Z"/></g></g></g></g></g></svg>