<svg viewBox="0 0 160 160" fill="none" xmlns="http://www.w3.org/2000/svg"><path d="M95.23 43.3398H42.3V143.96H95.23V43.3398Z" fill="#ABBDE3"/><path d="M91.6299 24.5195H45.7999L42.2999 43.3295H95.2399L91.6299 24.5195Z" fill="#CBDBF1"/><path d="M86.49 16H50.94C48.1 16 45.8 18.3 45.8 21.14V24.52H91.63V21.14C91.63 18.3 89.33 16 86.49 16Z" fill="#ABBDE3"/><path d="M76.9 36.1297C76.9 38.9797 73.26 41.2897 68.77 41.2897C64.28 41.2897 60.64 38.9797 60.64 36.1297V31.7197H76.9V36.1297Z" fill="#ABBDE3"/><path d="M68.77 36.8796C73.2601 36.8796 76.9 34.5694 76.9 31.7196C76.9 28.8698 73.2601 26.5596 68.77 26.5596C64.2799 26.5596 60.64 28.8698 60.64 31.7196C60.64 34.5694 64.2799 36.8796 68.77 36.8796Z" fill="#E0EDFF"/><path d="M95.31 84.0195H42.23V103.26H95.31V84.0195Z" fill="#86A3DD"/><path d="M74.64 144H99.93L106.86 90.0195H67.72L74.64 144Z" fill="#F6E2C8"/><path d="M106.86 90.0202C106.86 79.2102 98.1 70.4502 87.29 70.4502C76.48 70.4502 67.72 79.2102 67.72 90.0202H106.86Z" fill="#F6E2C8"/><path d="M89.23 136.87H85.55V60.3396C85.55 58.7196 86.87 57.3896 88.5 57.3896H106.1V61.0696H89.23V136.87Z" fill="#231F46"/><path d="M107.84 93.2897H66.75C65.28 93.2897 64.09 92.0997 64.09 90.6297C64.09 89.1597 65.28 87.9697 66.75 87.9697H107.84C109.31 87.9697 110.5 89.1597 110.5 90.6297C110.5 92.0997 109.31 93.2897 107.84 93.2897Z" fill="#FF6200"/><path d="M116.25 140.6V115.86C112.96 114.37 110.43 111.51 109.36 108.02H105.95H97.4199L98.9399 111.4V140.6L97.3199 144H105.66H109.24H117.77L116.25 140.6Z" fill="#EE2E3B"/><path d="M109.28 119.949C109.17 118.919 109.14 117.909 109.18 116.939H105.99L105.98 116.979C106.02 117.939 105.99 118.929 105.88 119.949C105.69 121.769 105.27 123.459 104.68 124.959C104.56 125.249 104.49 125.569 104.47 125.879C104.43 126.449 104.41 127.019 104.41 127.579V135.649H110.78V127.579C110.78 127.039 110.76 126.499 110.72 125.959C110.7 125.639 110.63 125.319 110.51 125.029C109.91 123.519 109.47 121.799 109.28 119.949Z" fill="#FFB02B"/><path d="M108.87 115.869H106.31C106.02 115.869 105.78 116.109 105.78 116.399V116.929H109.4V116.399C109.4 116.109 109.17 115.869 108.87 115.869Z" fill="#FFB02B"/></svg>