<svg viewBox="0 0 160 160" fill="none" xmlns="http://www.w3.org/2000/svg"><path fill-rule="evenodd" clip-rule="evenodd" d="M119.153 53.595H108.359C108.359 38.853 96.4322 26.856 81.7703 26.856H75.1768C61.6473 26.856 50.6434 37.925 50.6434 51.533V87.957H39.8495V51.533C39.8495 31.94 55.6976 16 75.1768 16H81.7703C102.382 16 119.153 32.863 119.153 53.595Z" fill="#F7931E"/><path fill-rule="evenodd" clip-rule="evenodd" d="M37 101.252C37 77.6429 56.0284 58.5039 79.5 58.5039C102.973 58.5039 122 77.6429 122 101.252C122 124.861 102.973 144 79.5 144C56.0284 144 37 124.861 37 101.252Z" fill="#FBB03B"/><path fill-rule="evenodd" clip-rule="evenodd" d="M79.4984 67.5979C61.0522 67.5979 46.042 82.6949 46.042 101.254C46.042 119.808 61.0522 134.906 79.4984 134.906C97.9497 134.906 112.96 119.808 112.96 101.254C112.96 82.6949 97.9497 67.5979 79.4984 67.5979ZM79.4984 140.334C58.0748 140.334 40.6455 122.803 40.6455 101.254C40.6455 79.7059 58.0748 62.1699 79.4984 62.1699C100.922 62.1699 118.356 79.7059 118.356 101.254C118.356 122.803 100.922 140.334 79.4984 140.334Z" fill="#F7931E"/><path fill-rule="evenodd" clip-rule="evenodd" d="M89.6831 96.8689C89.6831 91.2119 85.1235 86.627 79.5002 86.627C73.8758 86.627 69.3173 91.2119 69.3173 96.8689C69.3173 100.237 70.9333 103.225 73.429 105.092V115.878H85.5713V105.092C88.0661 103.225 89.6831 100.237 89.6831 96.8689Z" fill="#232144"/></svg>