<svg viewBox="0 0 160 160" fill="none" xmlns="http://www.w3.org/2000/svg"><path d="M143.97 103.95C143.66 95.6095 137.71 88.7195 129.81 86.9895C129.63 86.9295 129.45 86.8495 129.27 86.7995V86.7595C129.27 86.7595 89.77 75.5195 79.16 75.5195C67.77 75.5195 33.28 85.8295 31.75 86.2895C31.5 86.3395 31.24 86.4095 30.99 86.4895C22.52 87.9895 16.09 95.3695 16.09 104.26C16.09 104.38 16.11 104.49 16.11 104.61C16.11 104.61 16.1 104.63 16.09 104.64L16.01 116.42V144H144.01V104C144.01 104 143.99 103.96 143.98 103.95H143.97Z" fill="#BAC09A"/><path d="M61.09 55.6305C64.238 55.6305 66.79 53.0785 66.79 49.9305C66.79 46.7824 64.238 44.2305 61.09 44.2305C57.942 44.2305 55.39 46.7824 55.39 49.9305C55.39 53.0785 57.942 55.6305 61.09 55.6305Z" fill="#8F411F"/><path d="M98.62 55.6305C101.768 55.6305 104.32 53.0785 104.32 49.9305C104.32 46.7824 101.768 44.2305 98.62 44.2305C95.472 44.2305 92.92 46.7824 92.92 49.9305C92.92 53.0785 95.472 55.6305 98.62 55.6305Z" fill="#8F411F"/><path d="M93.92 81.5296V59.5596L65.78 59.6696V81.5296C65.78 87.2496 70.42 91.8796 76.13 91.8796H83.56C89.28 91.8796 93.91 87.2396 93.91 81.5296H93.92Z" fill="#8F411F"/><path d="M83.45 15.9697H76.26C67.8487 15.9697 61.03 22.7884 61.03 31.1997V57.2397C61.03 65.651 67.8487 72.4697 76.26 72.4697H83.45C91.8613 72.4697 98.68 65.651 98.68 57.2397V31.1997C98.68 22.7884 91.8613 15.9697 83.45 15.9697Z" fill="#8F411F"/><path d="M83.65 42.5104C87.13 38.2704 92.87 37.4804 96.33 42.2304L83.65 42.5104Z" fill="#C6C6C6"/><path d="M75.94 41.9803C74.09 36.8203 68.94 34.1503 64.09 37.4703L75.94 41.9803Z" fill="#C6C6C6"/><path d="M96.64 43.3405V57.4805H63.07V43.2305H61.02V69.7505C61.02 79.3005 68.76 87.0505 78.32 87.0505H81.39C90.94 87.0505 98.69 79.3105 98.69 69.7505V43.3405H96.64Z" fill="#C6C6C6"/><path d="M79.8 56.5C78.92 56.5 78.23 56.07 77.61 55.68C76.6 55.05 76 54.67 74.78 55.88L73.99 55.09C75.83 53.25 77.15 54.07 78.2 54.73C78.73 55.06 79.23 55.38 79.79 55.38C80.35 55.38 80.84 55.09 81.34 54.78C82.34 54.17 83.59 53.4 85.66 55.12L84.95 55.98C83.5 54.78 82.87 55.16 81.93 55.74C81.35 56.1 80.69 56.5 79.8 56.5Z" fill="black"/><path d="M84.82 47.2896C85.04 48.4096 87.06 48.9496 89.31 48.4896C91.57 48.0396 93.21 46.7596 92.99 45.6396C92.77 44.5196 90.75 43.9796 88.5 44.4396C86.24 44.8896 84.6 46.1696 84.82 47.2896Z" fill="white"/><path d="M74.42 47.2896C74.2 48.4096 72.18 48.9496 69.93 48.4896C67.67 48.0396 66.03 46.7596 66.25 45.6396C66.47 44.5196 68.49 43.9796 70.74 44.4396C73 44.8896 74.64 46.1696 74.42 47.2896Z" fill="white"/><path d="M87.03 90.6404L87.35 89.9704C88.7 87.1904 88.64 83.9504 87.26 81.2304L92.2 65.5904C92.72 63.9304 91.8 62.1704 90.15 61.6404C88.5 61.1104 86.73 62.0404 86.2 63.6904L82.85 74.3004L79.12 68.5604L68.56 53.0604C67.75 51.8704 66.13 51.5604 64.94 52.3704C63.75 53.1804 63.44 54.8004 64.25 55.9804L70.81 65.6004L70.41 65.0504C69.43 63.7004 67.53 63.4204 66.2 64.4304C64.9 65.4104 64.63 67.2604 65.59 68.5704L66.22 69.4304C65.18 68.5504 63.63 68.4604 62.49 69.3204C61.21 70.2904 60.92 72.1104 61.85 73.4204L62.07 73.7304C61.59 73.7704 61.11 73.9204 60.69 74.2204L60.37 74.4504C59.11 75.3404 58.81 77.0704 59.69 78.3304L61.35 80.6904L61.31 80.7204L67.45 89.9404L81.75 121.08L99.18 110.72L87.03 90.6104V90.6404Z" fill="#693725"/><path d="M68.85 47.1496C69.99 47.1496 70.92 46.2296 70.92 45.0796C70.92 44.8596 70.88 44.6596 70.81 44.4596C70.79 44.4596 70.77 44.4496 70.74 44.4396C69.09 44.1096 67.59 44.3096 66.8 44.8796C66.8 44.9496 66.78 45.0096 66.78 45.0796C66.78 46.2196 67.71 47.1496 68.85 47.1496Z" fill="black"/><path d="M86.43 47.8896C87.57 47.8896 88.5 46.9696 88.5 45.8196C88.5 45.3396 88.33 44.9096 88.06 44.5596C86.16 45.0496 84.81 46.1096 84.82 47.0996C85.2 47.5796 85.78 47.8896 86.43 47.8896Z" fill="black"/></svg>