<svg viewBox="0 0 160 160" fill="none" xmlns="http://www.w3.org/2000/svg"><path d="M143.71 144C135.31 133.98 109.92 126.7 79.9 126.7C49.88 126.7 24.49 133.98 16.09 144H143.71Z" fill="#00401E"/><path d="M97 132.77V108.76H95.12V134.88H96.91H97H100.15V132.77H97Z" fill="#F7931E"/><path d="M103.56 132.77V108.76H101.68V134.88H102.75H103.56H105.99V132.77H103.56Z" fill="#F7931E"/><path d="M126.42 35.2697C129.38 28.1797 126.04 20.0397 118.95 17.0797C111.86 14.1197 103.72 17.4597 100.76 24.5497L126.42 35.2797V35.2697Z" fill="#E73245"/><path d="M127.74 33.7604C126.63 26.1604 119.56 20.9004 111.96 22.0204C104.36 23.1404 99.11 30.2004 100.22 37.8004L127.74 33.7604Z" fill="#E73245"/><path d="M62.43 79.9004C63.86 67.0804 54.63 55.5204 41.8 54.0904C28.98 52.6604 17.42 61.8904 15.99 74.7204L62.42 79.9004H62.43Z" fill="#E73245"/><path d="M63.41 78.5098C57.32 67.1298 43.17 62.8498 31.79 68.9298C20.41 75.0098 16.13 89.1798 22.21 100.55L63.4 78.4998L63.41 78.5098Z" fill="#E73245"/><path d="M143.71 42.6101L135.13 45.5501L133.43 40.5801L143.62 41.7901C144.07 41.8401 144.13 42.4701 143.71 42.6101Z" fill="#F7931E"/><path d="M141.18 35.23L132.6 38.17L134.3 43.14L141.61 35.94C141.93 35.62 141.61 35.09 141.18 35.24V35.23Z" fill="#F7931E"/><path d="M61.01 80.4904C68.87 70.2604 66.94 55.5904 56.71 47.7304C46.48 39.8704 31.81 41.8004 23.96 52.0304L61.01 80.4904Z" fill="#E73245"/><path d="M42.5515 70.3257L131.434 57.042L132.921 66.9915C136.587 91.5191 119.655 114.413 95.1175 118.08C70.5899 121.746 47.6957 104.814 44.0286 80.2766L42.5416 70.3271L42.5515 70.3257Z" fill="#E6E3DA"/><path d="M115.692 28.6858C124.292 26.5574 133.011 31.8169 135.139 40.4175L138.418 53.6678C140.547 62.2683 135.287 70.9871 126.687 73.1155L115.106 75.9814L106.977 43.1324C105.396 36.7451 109.295 30.2689 115.692 28.6858Z" fill="#E6E3DA"/><path d="M140.7 73.1296C138.5 73.6796 136.27 72.3296 135.72 70.1296L133.68 61.9096C133.35 60.5896 134.16 59.2596 135.48 58.9296C136.45 58.6896 137.47 59.0596 138.06 59.8696L143.04 66.7196C144.75 69.0796 143.53 72.4296 140.7 73.1296Z" fill="#E73245"/><path d="M121.67 37.8801C121.5 37.3001 121.61 36.6901 121.97 36.1501C122.31 35.6301 122.85 35.2501 123.49 35.0701C124.12 34.8901 124.78 34.9301 125.35 35.1801C125.94 35.4501 126.35 35.9101 126.52 36.4901L125.74 36.7101C125.64 36.3701 125.39 36.0801 125.02 35.9201C124.63 35.7401 124.17 35.7201 123.72 35.8501C123.27 35.9801 122.89 36.2501 122.66 36.6001C122.44 36.9301 122.37 37.3101 122.47 37.6501L121.69 37.8701L121.67 37.8801Z" fill="#222144"/></svg>