<svg viewBox="0 0 160 160" fill="none" xmlns="http://www.w3.org/2000/svg"><path fill-rule="evenodd" clip-rule="evenodd" d="M22.291 40.1238L137.623 40C141.101 39.996 143.923 42.8089 143.927 46.2818L144 114.581C144.004 118.054 141.188 120.872 137.71 120.876L22.378 121C18.9 121.004 16.077 118.191 16.074 114.718L16 46.4186C15.997 42.9457 18.813 40.1278 22.291 40.1238Z" fill="#FF6200"/><path fill-rule="evenodd" clip-rule="evenodd" d="M24.825 103.173L24.817 96.0638L83.828 95.9999L83.836 103.11L24.825 103.173Z" fill="white"/><path d="M126.316 105.226C126.404 105.315 126.52 105.359 126.636 105.359C126.752 105.359 126.868 105.315 126.956 105.226C129.829 102.358 129.829 96.9344 126.956 94.0657C126.779 93.8889 126.493 93.8889 126.316 94.0657C126.139 94.2424 126.139 94.529 126.316 94.7057C128.859 97.245 128.859 102.047 126.316 104.587C126.139 104.764 126.139 105.051 126.316 105.226Z" fill="white"/><path d="M124.501 104.629C124.385 104.629 124.269 104.585 124.181 104.496C124.004 104.321 124.004 104.034 124.181 103.857C125.299 102.74 125.916 101.255 125.916 99.6755C125.916 98.0948 125.299 96.61 124.181 95.4926C124.004 95.3159 124.004 95.0293 124.181 94.8536C124.358 94.6768 124.644 94.6768 124.821 94.8536C126.111 96.1417 126.822 97.8532 126.822 99.6755C126.822 101.497 126.111 103.209 124.821 104.496C124.733 104.585 124.617 104.629 124.501 104.629Z" fill="white"/><path d="M122.261 103.681C122.349 103.769 122.465 103.813 122.581 103.813C122.697 103.813 122.813 103.769 122.901 103.681C125.113 101.472 125.113 97.8781 122.901 95.6694C122.724 95.4926 122.438 95.4926 122.261 95.6694C122.084 95.8461 122.084 96.1317 122.261 96.3084C124.12 98.1647 124.12 101.185 122.261 103.042C122.084 103.218 122.084 103.505 122.261 103.681Z" fill="white"/><path d="M120.338 102.879C120.426 102.968 120.542 103.012 120.658 103.012C120.774 103.012 120.89 102.968 120.978 102.879C122.748 101.113 122.748 98.2371 120.978 96.4707C120.801 96.294 120.515 96.294 120.338 96.4707C120.161 96.6474 120.161 96.934 120.338 97.1098C121.754 98.5247 121.754 100.825 120.338 102.24C120.161 102.417 120.161 102.704 120.338 102.879Z" fill="white"/><path fill-rule="evenodd" clip-rule="evenodd" d="M26.8478 84.4923C28.0098 84.4923 28.6718 83.5088 28.6718 81.7274C28.6718 80.0588 28.0428 79.0763 26.9368 79.0763C25.8708 79.0763 25.1118 80.0429 25.1118 81.8003C25.1288 83.5327 25.8228 84.4923 26.8478 84.4923ZM26.8878 83.9441C26.2418 83.9441 25.8228 83.1703 25.8228 81.8083C25.8228 80.3814 26.2748 79.6245 26.8968 79.6245C27.6308 79.6245 27.9618 80.4702 27.9618 81.7603C27.9618 83.0984 27.6148 83.9441 26.8878 83.9441Z" fill="white"/><path fill-rule="evenodd" clip-rule="evenodd" d="M30.9872 84.4923C32.1492 84.4923 32.8122 83.5088 32.8122 81.7274C32.8122 80.0588 32.1822 79.0763 31.0762 79.0763C30.0102 79.0763 29.2522 80.0429 29.2522 81.8003C29.2682 83.5327 29.9622 84.4923 30.9872 84.4923ZM31.0282 83.9441C30.3822 83.9441 29.9622 83.1703 29.9622 81.8083C29.9622 80.3814 30.4142 79.6245 31.0362 79.6245C31.7712 79.6245 32.1012 80.4702 32.1012 81.7603C32.1012 83.0984 31.7542 83.9441 31.0282 83.9441Z" fill="white"/><path fill-rule="evenodd" clip-rule="evenodd" d="M36.9517 81.7274C36.9517 83.5088 36.2887 84.4923 35.1267 84.4923C34.1017 84.4923 33.4077 83.5327 33.3917 81.8003C33.3917 80.0429 34.1497 79.0763 35.2157 79.0763C36.3217 79.0763 36.9517 80.0588 36.9517 81.7274ZM34.1017 81.8083C34.1017 83.1703 34.5217 83.9441 35.1677 83.9441C35.8937 83.9441 36.2407 83.0984 36.2407 81.7603C36.2407 80.4702 35.9107 79.6245 35.1757 79.6245C34.5537 79.6245 34.1017 80.3814 34.1017 81.8083Z" fill="white"/><path fill-rule="evenodd" clip-rule="evenodd" d="M39.2668 84.4923C40.4288 84.4923 41.0908 83.5088 41.0908 81.7274C41.0908 80.0588 40.4618 79.0763 39.3558 79.0763C38.2898 79.0763 37.5308 80.0429 37.5308 81.8003C37.5478 83.5327 38.2418 84.4923 39.2668 84.4923ZM39.3068 83.9441C38.6608 83.9441 38.2418 83.1703 38.2418 81.8083C38.2418 80.3814 38.6938 79.6245 39.3158 79.6245C40.0498 79.6245 40.3808 80.4702 40.3808 81.7603C40.3808 83.0984 40.0338 83.9441 39.3068 83.9441Z" fill="white"/><path fill-rule="evenodd" clip-rule="evenodd" d="M46.9418 81.7274C46.9418 83.5088 46.2788 84.4923 45.1168 84.4923C44.0918 84.4923 43.3978 83.5327 43.3818 81.8003C43.3818 80.0429 44.1398 79.0763 45.2058 79.0763C46.3118 79.0763 46.9418 80.0588 46.9418 81.7274ZM44.0918 81.8083C44.0918 83.1703 44.5118 83.9441 45.1578 83.9441C45.8838 83.9441 46.2308 83.0984 46.2308 81.7603C46.2308 80.4702 45.9008 79.6245 45.1658 79.6245C44.5438 79.6245 44.0918 80.3814 44.0918 81.8083Z" fill="white"/><path fill-rule="evenodd" clip-rule="evenodd" d="M49.2562 84.4923C50.4182 84.4923 51.0812 83.5088 51.0812 81.7274C51.0812 80.0588 50.4512 79.0763 49.3452 79.0763C48.2792 79.0763 47.5212 80.0429 47.5212 81.8003C47.5372 83.5327 48.2312 84.4923 49.2562 84.4923ZM49.2972 83.9441C48.6512 83.9441 48.2312 83.1703 48.2312 81.8083C48.2312 80.3814 48.6832 79.6245 49.3052 79.6245C50.0402 79.6245 50.3702 80.4702 50.3702 81.7603C50.3702 83.0984 50.0232 83.9441 49.2972 83.9441Z" fill="white"/><path fill-rule="evenodd" clip-rule="evenodd" d="M55.2203 81.7274C55.2203 83.5088 54.5583 84.4923 53.3963 84.4923C52.3713 84.4923 51.6773 83.5327 51.6603 81.8003C51.6603 80.0429 52.4193 79.0763 53.4853 79.0763C54.5913 79.0763 55.2203 80.0588 55.2203 81.7274ZM52.3713 81.8083C52.3713 83.1703 52.7903 83.9441 53.4363 83.9441C54.1633 83.9441 54.5103 83.0984 54.5103 81.7603C54.5103 80.4702 54.1793 79.6245 53.4453 79.6245C52.8233 79.6245 52.3713 80.3814 52.3713 81.8083Z" fill="white"/><path fill-rule="evenodd" clip-rule="evenodd" d="M57.5358 84.4923C58.6978 84.4923 59.3598 83.5088 59.3598 81.7274C59.3598 80.0588 58.7308 79.0763 57.6248 79.0763C56.5588 79.0763 55.7998 80.0429 55.7998 81.8003C55.8168 83.5327 56.5108 84.4923 57.5358 84.4923ZM57.5758 83.9441C56.9298 83.9441 56.5108 83.1703 56.5108 81.8083C56.5108 80.3814 56.9628 79.6245 57.5848 79.6245C58.3188 79.6245 58.6498 80.4702 58.6498 81.7603C58.6498 83.0984 58.3028 83.9441 57.5758 83.9441Z" fill="white"/><path fill-rule="evenodd" clip-rule="evenodd" d="M65.2108 81.7274C65.2108 83.5088 64.5478 84.4923 63.3858 84.4923C62.3608 84.4923 61.6668 83.5327 61.6508 81.8003C61.6508 80.0429 62.4088 79.0763 63.4748 79.0763C64.5808 79.0763 65.2108 80.0588 65.2108 81.7274ZM62.3608 81.8083C62.3608 83.1703 62.7808 83.9441 63.4268 83.9441C64.1528 83.9441 64.4998 83.0984 64.4998 81.7603C64.4998 80.4702 64.1698 79.6245 63.4348 79.6245C62.8128 79.6245 62.3608 80.3814 62.3608 81.8083Z" fill="white"/><path fill-rule="evenodd" clip-rule="evenodd" d="M67.5258 84.4923C68.6878 84.4923 69.3498 83.5088 69.3498 81.7274C69.3498 80.0588 68.7208 79.0763 67.6148 79.0763C66.5488 79.0763 65.7898 80.0429 65.7898 81.8003C65.8068 83.5327 66.5008 84.4923 67.5258 84.4923ZM67.5658 83.9441C66.9198 83.9441 66.5008 83.1703 66.5008 81.8083C66.5008 80.3814 66.9528 79.6245 67.5748 79.6245C68.3088 79.6245 68.6398 80.4702 68.6398 81.7603C68.6398 83.0984 68.2928 83.9441 67.5658 83.9441Z" fill="white"/><path fill-rule="evenodd" clip-rule="evenodd" d="M73.4893 81.7274C73.4893 83.5088 72.8273 84.4923 71.6653 84.4923C70.6403 84.4923 69.9463 83.5327 69.9293 81.8003C69.9293 80.0429 70.6883 79.0763 71.7543 79.0763C72.8603 79.0763 73.4893 80.0588 73.4893 81.7274ZM70.6403 81.8083C70.6403 83.1703 71.0593 83.9441 71.7053 83.9441C72.4323 83.9441 72.7793 83.0984 72.7793 81.7603C72.7793 80.4702 72.4483 79.6245 71.7143 79.6245C71.0923 79.6245 70.6403 80.3814 70.6403 81.8083Z" fill="white"/><path fill-rule="evenodd" clip-rule="evenodd" d="M75.8048 84.4923C76.9668 84.4923 77.6298 83.5088 77.6298 81.7274C77.6298 80.0588 76.9998 79.0763 75.8938 79.0763C74.8278 79.0763 74.0698 80.0429 74.0698 81.8003C74.0858 83.5327 74.7798 84.4923 75.8048 84.4923ZM75.8458 83.9441C75.1998 83.9441 74.7798 83.1703 74.7798 81.8083C74.7798 80.3814 75.2318 79.6245 75.8538 79.6245C76.5888 79.6245 76.9188 80.4702 76.9188 81.7603C76.9188 83.0984 76.5718 83.9441 75.8458 83.9441Z" fill="white"/><path fill-rule="evenodd" clip-rule="evenodd" d="M83.4794 81.7274C83.4794 83.5088 82.8174 84.4923 81.6554 84.4923C80.6304 84.4923 79.9364 83.5327 79.9194 81.8003C79.9194 80.0429 80.6784 79.0763 81.7444 79.0763C82.8504 79.0763 83.4794 80.0588 83.4794 81.7274ZM80.6304 81.8083C80.6304 83.1703 81.0494 83.9441 81.6954 83.9441C82.4224 83.9441 82.7694 83.0984 82.7694 81.7603C82.7694 80.4702 82.4384 79.6245 81.7044 79.6245C81.0824 79.6245 80.6304 80.3814 80.6304 81.8083Z" fill="white"/><path fill-rule="evenodd" clip-rule="evenodd" d="M85.7948 84.4923C86.9568 84.4923 87.6198 83.5088 87.6198 81.7274C87.6198 80.0588 86.9898 79.0763 85.8838 79.0763C84.8178 79.0763 84.0598 80.0429 84.0598 81.8003C84.0758 83.5327 84.7698 84.4923 85.7948 84.4923ZM85.8358 83.9441C85.1898 83.9441 84.7698 83.1703 84.7698 81.8083C84.7698 80.3814 85.2218 79.6245 85.8438 79.6245C86.5788 79.6245 86.9088 80.4702 86.9088 81.7603C86.9088 83.0984 86.5618 83.9441 85.8358 83.9441Z" fill="white"/><path fill-rule="evenodd" clip-rule="evenodd" d="M91.7593 81.7274C91.7593 83.5088 91.0963 84.4923 89.9343 84.4923C88.9093 84.4923 88.2153 83.5327 88.1993 81.8003C88.1993 80.0429 88.9573 79.0763 90.0233 79.0763C91.1293 79.0763 91.7593 80.0588 91.7593 81.7274ZM88.9093 81.8083C88.9093 83.1703 89.3293 83.9441 89.9753 83.9441C90.7013 83.9441 91.0483 83.0984 91.0483 81.7603C91.0483 80.4702 90.7183 79.6245 89.9833 79.6245C89.3613 79.6245 88.9093 80.3814 88.9093 81.8083Z" fill="white"/><path fill-rule="evenodd" clip-rule="evenodd" d="M94.0744 84.4923C95.2364 84.4923 95.8984 83.5088 95.8984 81.7274C95.8984 80.0588 95.2694 79.0763 94.1634 79.0763C93.0974 79.0763 92.3384 80.0429 92.3384 81.8003C92.3554 83.5327 93.0494 84.4923 94.0744 84.4923ZM94.1144 83.9441C93.4684 83.9441 93.0494 83.1703 93.0494 81.8083C93.0494 80.3814 93.5014 79.6245 94.1234 79.6245C94.8574 79.6245 95.1884 80.4702 95.1884 81.7603C95.1884 83.0984 94.8414 83.9441 94.1144 83.9441Z" fill="white"/><path d="M40.7133 57.5876H50.7664L50.7614 53.7163C50.7604 52.4721 49.7494 51.4636 48.5034 51.4656L38.3704 51.4766V54.3119L37.7004 54.3127V51.4769L27.5494 51.4879C26.3034 51.4889 25.2944 52.4984 25.2954 53.7436L25.2994 57.5879H35.3513L35.3519 58.1843H25.3004L25.3054 62.9414H35.3572L35.3578 63.5376H25.3066L25.3106 67.314C25.3116 68.5582 26.3226 69.5657 27.5686 69.5647L37.7006 69.5537V67.03L38.3708 67.0292L38.3712 69.5527L48.5222 69.5417C49.7682 69.5407 50.7772 68.5312 50.7762 67.2871L50.7722 63.5376H40.7198L40.7192 62.9409H50.7716L50.7666 58.1839H40.7139L40.7133 57.5876Z" fill="white"/><path fill-rule="evenodd" clip-rule="evenodd" d="M35.6326 54.5988L35.6456 66.7479L40.4386 66.7429L40.4256 54.5938L35.6326 54.5988ZM35.0776 67.3171L35.0636 54.0316L40.9936 54.0256L41.0086 67.3101L35.0776 67.3171Z" fill="#FF6200"/></svg>