<svg viewBox="0 0 160 160" fill="none" xmlns="http://www.w3.org/2000/svg"><path fill-rule="evenodd" clip-rule="evenodd" d="M95.1431 34.1898L118.018 36.569L91.087 16.2385L95.1431 34.1898Z" fill="#891229"/><path fill-rule="evenodd" clip-rule="evenodd" d="M105.761 34.9166C105.761 38.8653 108.948 42.0673 112.881 42.0673C116.813 42.0673 120 38.8653 120 34.9166C120 30.9678 116.813 27.7659 112.881 27.7659C108.948 27.7659 105.761 30.9678 105.761 34.9166Z" fill="#F7E5CD"/><path fill-rule="evenodd" clip-rule="evenodd" d="M108.604 122.413C112.777 122.413 116.017 118.759 115.535 114.596L108.604 54.6396V122.413Z" fill="#171111"/><path fill-rule="evenodd" clip-rule="evenodd" d="M48.9774 122.413H108.604V54.6396H48.9774V122.413Z" fill="#171111"/><path fill-rule="evenodd" clip-rule="evenodd" d="M48.9783 122.413C44.8057 122.413 41.5658 118.759 42.0476 114.596L48.9783 54.6396V122.413Z" fill="#171111"/><path fill-rule="evenodd" clip-rule="evenodd" d="M59.1394 123.816V98.2097L98.4434 98.2707V123.816C98.4434 134.717 89.6444 143.553 78.7909 143.553C67.9374 143.553 59.1394 134.717 59.1394 123.816Z" fill="#F5B091"/><path fill-rule="evenodd" clip-rule="evenodd" d="M52.7423 94.5005V57.6563C52.7423 46.0101 62.1425 36.5691 73.7385 36.5691H83.8435C95.4395 36.5691 104.84 46.0101 104.84 57.6563V94.5005C104.84 106.147 95.4395 115.588 83.8435 115.588H73.7385C62.1425 115.588 52.7423 106.147 52.7423 94.5005Z" fill="#F5B091"/><path d="M52.7423 74.574C52.4281 74.5361 52.1083 74.5166 51.7839 74.5166C47.3904 74.5166 43.829 78.0934 43.829 82.506C43.829 86.9186 47.3904 90.4955 51.7839 90.4955C52.1083 90.4955 52.4281 90.476 52.7423 90.4381V74.574Z" fill="#F5B091"/><path d="M104.84 90.4657C105.142 90.5007 105.449 90.5187 105.761 90.5187C110.155 90.5187 113.716 86.9418 113.716 82.5292C113.716 78.1166 110.155 74.5398 105.761 74.5398C105.449 74.5398 105.142 74.5578 104.84 74.5928V90.4657Z" fill="#F5B091"/><path d="M101.102 106.514C102.19 107.185 103.471 107.572 104.841 107.572C108.792 107.572 111.997 104.354 111.997 100.384V93.2751C111.997 89.3054 108.791 86.0874 104.84 86.0874L104.84 94.5005C104.84 98.9648 103.459 103.105 101.102 106.514Z" fill="#E73245"/><path d="M52.7423 86.0874V94.5005C52.7423 98.9652 54.1238 103.106 56.4808 106.515C55.3929 107.185 54.1129 107.572 52.743 107.572C48.7914 107.572 45.5853 104.354 45.5853 100.384V93.2751C45.5853 89.3054 48.7907 86.0874 52.7423 86.0874C52.7424 86.0874 52.7422 86.0874 52.7423 86.0874Z" fill="#E73245"/><path fill-rule="evenodd" clip-rule="evenodd" d="M78.6954 92.0914C78.3968 92.0914 78.0882 92.0594 77.7697 91.9944C76.8709 91.8114 76.0139 91.3464 75.2245 90.6134C74.8045 90.2224 74.3884 90.0514 73.9535 90.0894C73.0825 90.1644 72.3987 91.0464 72.3917 91.0564L71.5606 90.4214C71.5994 90.3704 72.5221 89.1644 73.8559 89.0454C74.5955 88.9734 75.2922 89.2474 75.9332 89.8434C76.5802 90.4444 77.268 90.8224 77.9777 90.9664C78.7023 91.1144 79.3463 91.0464 79.8928 90.7624C80.1227 90.6434 80.3517 90.4614 80.5716 90.2254C80.8474 89.9214 81.6178 89.2054 82.7306 89.1644C83.6085 89.1234 84.5183 89.5324 85.3892 90.3574L84.6715 91.1194C84.0146 90.4964 83.3995 90.1834 82.7684 90.2124C82.0498 90.2394 81.5282 90.7284 81.3381 90.9364C81.0335 91.2654 80.709 91.5184 80.3716 91.6944C79.86 91.9594 79.2996 92.0914 78.6954 92.0914Z" fill="#171111"/><path fill-rule="evenodd" clip-rule="evenodd" d="M91.6599 66.0507L91.9804 66.0517C95.3228 66.0676 98.4632 67.7431 100.464 70.5792L83.1326 70.4972C85.1651 67.6811 88.3174 66.0347 91.6599 66.0507Z" fill="#E6E6E6"/><path fill-rule="evenodd" clip-rule="evenodd" d="M84.6812 80.9647C84.6812 80.9647 86.5823 76.874 90.2313 75.6004C93.8813 74.3278 97.8976 76.3532 97.8976 76.3532C97.8976 76.3532 96.4374 79.6891 92.7884 80.9627C89.1384 82.2363 84.6812 80.9647 84.6812 80.9647Z" fill="white"/><path fill-rule="evenodd" clip-rule="evenodd" d="M88.1306 78.2919C88.1306 80.0443 89.545 81.4649 91.2899 81.4649C93.0338 81.4649 94.4482 80.0443 94.4482 78.2919C94.4482 76.5394 93.0338 75.1189 91.2899 75.1189C89.545 75.1189 88.1306 76.5394 88.1306 78.2919Z" fill="black"/><path fill-rule="evenodd" clip-rule="evenodd" d="M84.6808 80.9625C85.6224 74.4226 93.8551 71.6285 98.9155 74.7005C98.6049 75.1984 98.0137 76.21 97.7021 76.7079C96.5834 76.0291 90.7724 73.6709 85.493 80.0258C85.1725 80.4117 85.1317 80.5736 84.6808 80.9625Z" fill="black"/><path fill-rule="evenodd" clip-rule="evenodd" d="M64.5452 66.0507L64.2247 66.0517C60.8823 66.0676 57.7419 67.7431 55.7412 70.5792L73.0725 70.4972C71.04 67.6811 67.8876 66.0347 64.5452 66.0507Z" fill="#E6E6E6"/><path fill-rule="evenodd" clip-rule="evenodd" d="M71.9827 80.9017C71.9827 80.9017 70.0816 76.811 66.4326 75.5374C62.7826 74.2648 58.7663 76.2902 58.7663 76.2902C58.7663 76.2902 60.2265 79.6261 63.8755 80.8997C67.5255 82.1733 71.9827 80.9017 71.9827 80.9017Z" fill="white"/><path fill-rule="evenodd" clip-rule="evenodd" d="M68.0244 78.0011C68.0244 79.7535 66.61 81.1741 64.8651 81.1741C63.1212 81.1741 61.7068 79.7535 61.7068 78.0011C61.7068 76.2487 63.1212 74.8281 64.8651 74.8281C66.61 74.8281 68.0244 76.2487 68.0244 78.0011Z" fill="black"/><path fill-rule="evenodd" clip-rule="evenodd" d="M71.9831 80.8998C71.0415 74.3599 62.8088 71.5658 57.7484 74.6378C58.059 75.1356 58.6502 76.1473 58.9618 76.6451C60.0806 75.9663 65.8915 73.6081 71.1709 79.9631C71.4914 80.3489 71.5322 80.5109 71.9831 80.8998Z" fill="black"/><path fill-rule="evenodd" clip-rule="evenodd" d="M101.26 56.427H55.3831C50.3635 56.427 46.2944 52.3404 46.2944 47.299C46.2944 42.2576 50.3635 38.1709 55.3831 38.1709H101.26C106.28 38.1709 110.349 42.2576 110.349 47.299C110.349 52.3404 106.28 56.427 101.26 56.427Z" fill="#F7E5CD"/><path d="M53.0478 70.6577V84.2303H48.9778V57.4849C48.9778 56.3082 49.0663 55.1524 49.2371 54.0236C50.8551 55.516 53.0132 56.427 55.3832 56.427H58.4852C55.1082 60.1777 53.0478 65.1732 53.0478 70.6577Z" fill="#171111"/><path d="M99.0971 56.427C102.474 60.1777 104.534 65.1732 104.534 70.6577V84.2303H108.604V57.4849C108.604 56.0169 108.466 54.5814 108.203 53.1904C106.536 55.1701 104.044 56.427 101.261 56.427H99.0971Z" fill="#171111"/><path fill-rule="evenodd" clip-rule="evenodd" d="M104.84 94.4102L101.488 96.3615L100.828 95.043L104.84 93.0166V94.4102Z" fill="#171111"/><path fill-rule="evenodd" clip-rule="evenodd" d="M55.7511 93.5455L52.7402 92.023L52.7422 90.3755L56.4121 92.2289L55.7511 93.5455Z" fill="#171111"/><path fill-rule="evenodd" clip-rule="evenodd" d="M80.0378 144H76.2962C64.5011 144 54.9387 134.396 54.9387 122.55V91.7747L101.395 94.5568V122.55C101.395 134.396 91.8338 144 80.0378 144Z" fill="#E6E6E6"/><path fill-rule="evenodd" clip-rule="evenodd" d="M90.9836 16H67.1655L54.3532 45.7305H79.0741H103.795L90.9836 16Z" fill="#E73245"/></svg>