<svg viewBox="0 0 160 160" fill="none" xmlns="http://www.w3.org/2000/svg"><path d="M36.05 35.7298C48.57 34.5898 49.7 16.0498 61.14 16.0498C71.52 16.0498 68.65 23.1798 77.83 23.1798C86.39 23.1798 86.91 16.9398 96.81 16.4998C105.71 16.0998 107.77 33.9198 119.26 35.9598C120.07 36.0998 99.64 57.6898 78.87 57.6898C58.1 57.6898 33.78 35.9298 36.04 35.7298" fill="#E73245"/><path d="M79.12 38.6597C78.86 39.0297 78.67 39.3497 78.55 39.5597C77.44 41.6197 77.24 43.8697 78.07 45.0197C78.93 46.2097 81.02 46.1097 82.32 45.8997C83.72 45.3197 85.24 44.3497 85.09 42.9197C84.91 41.2797 82.8 39.1397 80.22 38.7297C79.85 38.6997 79.48 38.6797 79.11 38.6597M80.82 51.3697C76.76 51.3697 74.69 49.4497 73.75 48.1497C72.02 45.7597 71.78 42.2897 73 38.9097C70.31 39.2197 67.67 39.7497 64.95 40.2897C56.23 42.0297 47.2 43.8397 34.91 38.1397L37.16 33.2997C47.87 38.2597 55.66 36.6997 63.91 35.0597C67.96 34.2497 72.12 33.4197 76.72 33.3097C79.02 31.1997 81.88 30.1397 84.99 30.0297C91.04 28.4197 96.18 29.9397 101.61 31.5497C107.23 33.2197 113.03 34.9297 120.9 33.5597L121.82 38.8097C112.72 40.4197 106.01 38.4197 100.09 36.6597C94.89 35.1097 90.78 33.8797 86.06 35.2597L85.76 35.3497C88.31 37.0597 90.1 39.6397 90.38 42.3397C90.57 44.1197 90.32 48.5097 84 50.9597L83.51 51.0997C82.53 51.2797 81.63 51.3597 80.81 51.3597" fill="#891229"/><path d="M123.27 88.2796L122.53 65.9896L122.47 61.1096C122.4 57.8096 119.5 55.1796 115.98 55.2396H115.9C112.49 55.2996 109.77 57.8796 109.67 61.0496V60.3196C109.59 56.8296 106.69 54.0496 103.17 54.1196H103.09C99.87 54.1796 97.26 56.6196 96.9 59.7096C96.42 56.6296 93.71 54.2996 90.49 54.3596H90.41C87.39 54.4196 84.9 56.5596 84.31 59.3696L83.93 24.4196C83.89 21.0396 81.11 18.3296 77.73 18.3796C74.35 18.4196 71.64 21.1996 71.68 24.5796L72.15 67.8996C70.46 68.5596 69.13 69.9296 68.51 71.6396H68.5L68.47 71.7696C68.39 71.9996 68.33 72.2296 68.28 72.4596L64.91 84.7296C64.52 86.2096 64.76 87.7696 65.57 89.0696C69.93 96.0496 77.91 108.17 82.93 112.55L83.59 143.99L121.54 143.74L120.96 101.33C122.68 97.1896 123.28 92.7496 123.29 88.2596L123.27 88.2796Z" fill="#FFD4C2"/></svg>