<svg viewBox="0 0 160 160" fill="none" xmlns="http://www.w3.org/2000/svg"><path fill-rule="evenodd" clip-rule="evenodd" d="M79.9795 16C99.6765 16 116.528 28.576 123.416 46.377L123.343 46.388C94.5485 50.737 65.2645 50.82 36.4435 46.634C43.2675 28.698 60.1875 16 79.9795 16Z" fill="#D0DEF2"/><path fill-rule="evenodd" clip-rule="evenodd" d="M144 144L122.596 56.759H37.4295L16.0005 144H144Z" fill="#F7E5CD"/><path fill-rule="evenodd" clip-rule="evenodd" d="M143.935 65.6169L123.492 68.9379C94.671 73.1239 65.387 73.0409 36.592 68.6909L36.519 68.6799" fill="#232144"/><path fill-rule="evenodd" clip-rule="evenodd" d="M143.935 65.6171C143.935 65.6171 79.28 80.1211 16 65.6171C17.958 62.4741 23.722 56.1411 23.722 56.1411C23.722 56.1411 79.93 67.8831 136.221 56.1411C141.131 60.8791 143.935 65.6171 143.935 65.6171Z" fill="#463EC5"/><path fill-rule="evenodd" clip-rule="evenodd" d="M17.0914 64.0432C17.0564 64.0902 17.0224 64.1332 16.9864 64.1802L16.9564 64.2242C16.9994 64.1652 17.0474 64.1032 17.0914 64.0432Z" fill="#232144"/><path fill-rule="evenodd" clip-rule="evenodd" d="M18.0391 62.8026C20.0691 60.2256 22.6421 57.3406 23.4591 56.4326C21.7031 58.2676 19.9321 60.3546 18.0391 62.8026Z" fill="#232144"/><path fill-rule="evenodd" clip-rule="evenodd" d="M32.6299 62.5321C32.6299 63.7481 31.6389 64.7341 30.4169 64.7341C29.1949 64.7341 28.2039 63.7481 28.2039 62.5321C28.2039 61.3161 29.1949 60.3301 30.4169 60.3301C31.6389 60.3301 32.6299 61.3161 32.6299 62.5321Z" fill="white"/><path fill-rule="evenodd" clip-rule="evenodd" d="M45.0252 64.3802C45.0252 65.5962 44.0342 66.5822 42.8122 66.5822C41.5902 66.5822 40.5992 65.5962 40.5992 64.3802C40.5992 63.1642 41.5902 62.1782 42.8122 62.1782C44.0342 62.1782 45.0252 63.1642 45.0252 64.3802Z" fill="white"/><path fill-rule="evenodd" clip-rule="evenodd" d="M57.4205 65.5726C57.4205 66.7886 56.4295 67.7746 55.2075 67.7746C53.9855 67.7746 52.9945 66.7886 52.9945 65.5726C52.9945 64.3566 53.9855 63.3706 55.2075 63.3706C56.4295 63.3706 57.4205 64.3566 57.4205 65.5726Z" fill="white"/><path fill-rule="evenodd" clip-rule="evenodd" d="M69.8158 66.235C69.8158 67.451 68.8248 68.437 67.6028 68.437C66.3808 68.437 65.3898 67.451 65.3898 66.235C65.3898 65.019 66.3808 64.033 67.6028 64.033C68.8248 64.033 69.8158 65.019 69.8158 66.235Z" fill="white"/><path fill-rule="evenodd" clip-rule="evenodd" d="M82.2112 66.6324C82.2112 67.8484 81.2202 68.8344 79.9982 68.8344C78.7762 68.8344 77.7852 67.8484 77.7852 66.6324C77.7852 65.4164 78.7762 64.4304 79.9982 64.4304C81.2202 64.4304 82.2112 65.4164 82.2112 66.6324Z" fill="white"/><path fill-rule="evenodd" clip-rule="evenodd" d="M94.6064 66.235C94.6064 67.451 93.6154 68.437 92.3934 68.437C91.1714 68.437 90.1804 67.451 90.1804 66.235C90.1804 65.019 91.1714 64.033 92.3934 64.033C93.6154 64.033 94.6064 65.019 94.6064 66.235Z" fill="white"/><path fill-rule="evenodd" clip-rule="evenodd" d="M107.002 65.5726C107.002 66.7886 106.011 67.7746 104.789 67.7746C103.567 67.7746 102.576 66.7886 102.576 65.5726C102.576 64.3566 103.567 63.3706 104.789 63.3706C106.011 63.3706 107.002 64.3566 107.002 65.5726Z" fill="white"/><path fill-rule="evenodd" clip-rule="evenodd" d="M119.397 64.3802C119.397 65.5962 118.406 66.5822 117.184 66.5822C115.962 66.5822 114.971 65.5962 114.971 64.3802C114.971 63.1642 115.962 62.1782 117.184 62.1782C118.406 62.1782 119.397 63.1642 119.397 64.3802Z" fill="white"/><path fill-rule="evenodd" clip-rule="evenodd" d="M123.416 46.3767L123.343 46.3877C121.465 46.6717 119.582 46.9357 117.699 47.1827C117.212 47.2467 116.724 47.3007 116.238 47.3627C114.82 47.5417 113.402 47.7167 111.983 47.8747C111.491 47.9297 110.996 47.9767 110.504 48.0297C109.072 48.1817 107.64 48.3297 106.206 48.4607C105.773 48.5007 105.34 48.5347 104.906 48.5727C103.395 48.7047 101.882 48.8287 100.369 48.9377C100.021 48.9627 99.6705 48.9837 99.3215 49.0077C97.7055 49.1187 96.0885 49.2167 94.4715 49.3017C94.2195 49.3147 93.9665 49.3257 93.7145 49.3387C91.9875 49.4237 90.2615 49.4947 88.5335 49.5497C88.3745 49.5547 88.2155 49.5597 88.0565 49.5637C86.2255 49.6197 84.3945 49.6577 82.5635 49.6797C82.4925 49.6807 82.4215 49.6817 82.3495 49.6827C68.4035 49.8367 54.4485 49.0107 40.5885 47.1977C39.2065 47.0197 37.8245 46.8347 36.4435 46.6337C31.4515 49.3537 27.6115 52.1467 23.7345 56.1437C24.2865 56.2587 80.2085 67.8247 136.221 56.1417C137.086 56.9767 137.882 57.8097 138.613 58.6187C134.293 53.7087 129.137 49.4937 123.416 46.3767Z" fill="#232144"/><path fill-rule="evenodd" clip-rule="evenodd" d="M131.792 62.5321C131.792 63.7481 130.801 64.7341 129.579 64.7341C128.357 64.7341 127.366 63.7481 127.366 62.5321C127.366 61.3161 128.357 60.3301 129.579 60.3301C130.801 60.3301 131.792 61.3161 131.792 62.5321Z" fill="white"/><path fill-rule="evenodd" clip-rule="evenodd" d="M86.6754 22.7762C86.6754 22.7762 102.232 28.2482 108.4 39.8592C108.4 39.8592 105.182 22.5092 86.6754 22.7762Z" fill="#E6F0FF"/><path fill-rule="evenodd" clip-rule="evenodd" d="M48.9714 100.527V102.901C49.0654 102.913 49.1654 102.921 49.2724 102.924C49.3784 102.928 49.4844 102.929 49.5914 102.929C50.0294 102.929 50.3504 102.817 50.5544 102.592C50.7574 102.368 50.8594 102.06 50.8594 101.667C50.8594 101.455 50.8294 101.279 50.7694 101.139C50.7104 100.999 50.6274 100.885 50.5214 100.798C50.3954 100.692 50.2404 100.62 50.0564 100.583C49.8714 100.546 49.6694 100.527 49.4504 100.527H48.9714ZM47.9664 106.303C47.8414 106.303 47.7784 106.244 47.7784 106.125V99.7512C47.7784 99.6332 47.8414 99.5742 47.9664 99.5742H49.3094C49.8414 99.5742 50.2944 99.6242 50.6664 99.7232C51.0394 99.8232 51.3384 99.9882 51.5634 100.219C51.8954 100.549 52.0614 101.029 52.0614 101.658C52.0614 101.976 52.0114 102.27 51.9114 102.541C51.8104 102.812 51.6624 103.046 51.4644 103.242C51.2674 103.438 51.0174 103.593 50.7134 103.705C50.4094 103.817 50.0574 103.873 49.6574 103.873C49.5314 103.873 49.4124 103.871 49.3004 103.868C49.1874 103.865 49.0774 103.857 48.9714 103.845V106.125C48.9714 106.244 48.9084 106.303 48.7834 106.303H47.9664Z" fill="#232144"/><path fill-rule="evenodd" clip-rule="evenodd" d="M55.7616 102.761C55.6426 102.599 55.5016 102.473 55.3386 102.383C55.1766 102.292 55.0006 102.247 54.8126 102.247C54.4566 102.247 54.1776 102.387 53.9776 102.668C53.7766 102.948 53.6766 103.353 53.6766 103.883C53.6766 104.094 53.6956 104.295 53.7326 104.485C53.7706 104.676 53.8316 104.841 53.9156 104.981C54.0006 105.121 54.1116 105.232 54.2496 105.313C54.3876 105.393 54.5536 105.434 54.7476 105.434C54.8846 105.434 55.0116 105.406 55.1276 105.35C55.2436 105.294 55.3416 105.222 55.4236 105.135C55.5486 105.004 55.6366 104.834 55.6866 104.626C55.7366 104.417 55.7616 104.21 55.7616 104.004V102.761ZM56.0336 106.163C56.0086 106.113 55.9826 106.041 55.9536 105.948C55.9256 105.855 55.9056 105.767 55.8936 105.686C55.7426 105.905 55.5466 106.077 55.3056 106.205C55.0646 106.333 54.8036 106.397 54.5216 106.397C54.1966 106.397 53.9086 106.336 53.6576 106.214C53.4076 106.093 53.1976 105.923 53.0286 105.705C52.8596 105.487 52.7316 105.227 52.6436 104.925C52.5556 104.623 52.5126 104.291 52.5126 103.929C52.5126 103.512 52.5686 103.138 52.6816 102.808C52.7936 102.478 52.9456 102.199 53.1366 101.971C53.3276 101.744 53.5516 101.571 53.8086 101.453C54.0646 101.334 54.3376 101.275 54.6256 101.275C54.8886 101.275 55.1326 101.331 55.3576 101.443C55.5836 101.555 55.7556 101.693 55.8746 101.854L55.9026 101.537C55.9086 101.468 55.9276 101.423 55.9586 101.401C55.9896 101.379 56.0396 101.368 56.1086 101.368H56.7286C56.8476 101.368 56.9076 101.418 56.9076 101.518C56.9076 101.58 56.9056 101.675 56.9026 101.803C56.8996 101.931 56.8976 102.076 56.8976 102.238C56.8976 102.4 56.8966 102.573 56.8936 102.756C56.8896 102.94 56.8886 103.119 56.8886 103.294V104.182C56.8886 104.456 56.8966 104.708 56.9116 104.939C56.9276 105.169 56.9436 105.37 56.9586 105.541C56.9746 105.713 56.9906 105.851 57.0056 105.957C57.0216 106.063 57.0296 106.129 57.0296 106.154C57.0296 106.253 56.9766 106.303 56.8696 106.303H56.2406C56.1406 106.303 56.0716 106.256 56.0336 106.163Z" fill="#232144"/><path fill-rule="evenodd" clip-rule="evenodd" d="M60.1848 105.397C60.3288 105.397 60.4678 105.375 60.6028 105.332C60.7368 105.288 60.8488 105.223 60.9358 105.135C61.0298 105.042 61.0968 104.916 61.1378 104.757C61.1788 104.598 61.1988 104.391 61.1988 104.135V102.761C61.0798 102.6 60.9388 102.473 60.7768 102.383C60.6138 102.293 60.4388 102.247 60.2508 102.247C59.8938 102.247 59.6138 102.384 59.4098 102.659C59.2068 102.933 59.1048 103.335 59.1048 103.864C59.1048 104.076 59.1248 104.275 59.1658 104.462C59.2068 104.649 59.2688 104.811 59.3538 104.948C59.4378 105.085 59.5488 105.195 59.6868 105.276C59.8248 105.357 59.9908 105.397 60.1848 105.397ZM60.9458 107.378C61.1148 107.185 61.1988 106.852 61.1988 106.378V105.846C61.0428 106.014 60.8568 106.142 60.6408 106.229C60.4238 106.316 60.1968 106.36 59.9598 106.36C59.6338 106.36 59.3458 106.3 59.0958 106.182C58.8448 106.064 58.6338 105.897 58.4618 105.682C58.2888 105.467 58.1598 105.209 58.0718 104.906C57.9838 104.604 57.9398 104.272 57.9398 103.911C57.9398 103.494 57.9968 103.121 58.1088 102.794C58.2218 102.467 58.3758 102.191 58.5698 101.967C58.7638 101.743 58.9888 101.571 59.2458 101.453C59.5028 101.335 59.7748 101.275 60.0628 101.275C60.3128 101.275 60.5468 101.328 60.7628 101.434C60.9788 101.54 61.1488 101.665 61.2738 101.808C61.2738 101.758 61.2778 101.709 61.2838 101.659C61.2898 101.609 61.2988 101.565 61.3118 101.528C61.3238 101.472 61.3448 101.431 61.3728 101.406C61.4008 101.381 61.4558 101.369 61.5368 101.369H62.0448C62.1628 101.369 62.2318 101.413 62.2508 101.5C62.2698 101.574 62.2838 101.693 62.2928 101.855C62.3028 102.017 62.3088 102.196 62.3118 102.392C62.3148 102.589 62.3178 102.791 62.3218 103C62.3248 103.209 62.3258 103.403 62.3258 103.584V106.294C62.3258 107.104 62.1478 107.696 61.7908 108.07C61.4148 108.463 60.8328 108.659 60.0438 108.659C59.8248 108.659 59.5998 108.643 59.3678 108.612C59.1358 108.581 58.9198 108.537 58.7198 108.481C58.6128 108.456 58.5728 108.381 58.5978 108.257L58.7108 107.715C58.7228 107.646 58.7448 107.603 58.7758 107.584C58.8078 107.565 58.8578 107.562 58.9268 107.575C59.1208 107.612 59.3018 107.642 59.4708 107.663C59.6398 107.685 59.7998 107.696 59.9498 107.696C60.2128 107.696 60.4258 107.667 60.5888 107.607C60.7518 107.548 60.8708 107.472 60.9458 107.378Z" fill="#232144"/><path fill-rule="evenodd" clip-rule="evenodd" d="M65.6506 102.238C65.3246 102.238 65.0686 102.347 64.8806 102.565C64.6926 102.783 64.5736 103.064 64.5236 103.406H66.6366C66.6306 103.25 66.6056 103.102 66.5616 102.962C66.5176 102.822 66.4536 102.699 66.3686 102.593C66.2846 102.487 66.1826 102.402 66.0636 102.336C65.9446 102.271 65.8066 102.238 65.6506 102.238ZM65.7166 106.397C65.3096 106.397 64.9576 106.335 64.6596 106.21C64.3626 106.085 64.1166 105.913 63.9226 105.691C63.7286 105.47 63.5826 105.207 63.4856 104.902C63.3886 104.596 63.3406 104.266 63.3406 103.911C63.3406 103.512 63.3966 103.151 63.5096 102.827C63.6216 102.503 63.7806 102.226 63.9836 101.995C64.1866 101.764 64.4296 101.587 64.7116 101.462C64.9936 101.338 65.3066 101.275 65.6506 101.275C66.0016 101.275 66.3076 101.338 66.5706 101.462C66.8336 101.587 67.0546 101.761 67.2336 101.986C67.4116 102.21 67.5466 102.476 67.6366 102.785C67.7276 103.093 67.7736 103.428 67.7736 103.789C67.7736 103.97 67.7576 104.092 67.7256 104.154C67.6946 104.216 67.6446 104.247 67.5756 104.247H64.5146C64.5646 104.64 64.6986 104.934 64.9186 105.131C65.1376 105.327 65.4566 105.425 65.8756 105.425C66.0696 105.425 66.2766 105.399 66.4956 105.346C66.7146 105.293 66.9216 105.223 67.1156 105.135C67.2286 105.085 67.3096 105.117 67.3596 105.229L67.5476 105.687C67.5726 105.755 67.5806 105.81 67.5716 105.85C67.5616 105.891 67.5256 105.927 67.4636 105.958C67.2316 106.089 66.9666 106.195 66.6696 106.275C66.3726 106.356 66.0546 106.397 65.7166 106.397Z" fill="#232144"/><path fill-rule="evenodd" clip-rule="evenodd" d="M72.0929 101.509C72.1049 101.553 72.1129 101.607 72.1169 101.673C72.1199 101.738 72.1239 101.805 72.1309 101.874C72.2869 101.699 72.4909 101.556 72.7409 101.444C72.9909 101.331 73.2639 101.275 73.5579 101.275C73.8399 101.275 74.0899 101.319 74.3089 101.406C74.5289 101.493 74.7129 101.618 74.8639 101.78C75.0259 101.955 75.1419 102.162 75.2109 102.402C75.2799 102.641 75.3139 102.945 75.3139 103.313V106.154C75.3139 106.254 75.2609 106.304 75.1549 106.304H74.3469C74.2399 106.304 74.1869 106.254 74.1869 106.154V103.677C74.1869 103.509 74.1839 103.364 74.1779 103.243C74.1719 103.121 74.1609 103.017 74.1449 102.93C74.1289 102.842 74.1079 102.768 74.0789 102.705C74.0509 102.643 74.0149 102.587 73.9709 102.537C73.8339 102.375 73.5919 102.294 73.2479 102.294C73.1169 102.294 72.9799 102.313 72.8399 102.35C72.6989 102.388 72.5809 102.441 72.4869 102.509C72.3999 102.571 72.3369 102.643 72.2999 102.724C72.2619 102.805 72.2369 102.917 72.2249 103.06C72.2119 103.179 72.2059 103.33 72.2059 103.514V104.107V106.154C72.2059 106.254 72.1529 106.304 72.0459 106.304H71.2379C71.1319 106.304 71.0789 106.254 71.0789 106.154V103.229C71.0789 103.036 71.0759 102.844 71.0689 102.654C71.0629 102.464 71.0579 102.291 71.0549 102.135C71.0519 101.98 71.0469 101.847 71.0409 101.738C71.0349 101.629 71.0319 101.556 71.0319 101.518C71.0319 101.419 71.0849 101.369 71.1909 101.369H71.9049C72.0119 101.369 72.0739 101.416 72.0929 101.509Z" fill="#232144"/><path fill-rule="evenodd" clip-rule="evenodd" d="M78.5353 105.425C78.9113 105.425 79.2033 105.289 79.4133 105.018C79.6233 104.747 79.7283 104.341 79.7283 103.799C79.7283 103.574 79.7093 103.369 79.6713 103.182C79.6343 102.995 79.5713 102.831 79.4843 102.691C79.3963 102.551 79.2833 102.442 79.1453 102.364C79.0083 102.286 78.8423 102.247 78.6483 102.247C78.2723 102.247 77.9793 102.383 77.7703 102.654C77.5603 102.925 77.4553 103.331 77.4553 103.874C77.4553 104.098 77.4743 104.303 77.5113 104.49C77.5493 104.677 77.6113 104.841 77.6993 104.981C77.7873 105.121 77.8983 105.23 78.0333 105.308C78.1673 105.386 78.3353 105.425 78.5353 105.425ZM78.5073 106.397C77.7933 106.397 77.2453 106.182 76.8633 105.752C76.4813 105.322 76.2903 104.718 76.2903 103.939C76.2903 103.073 76.4983 102.412 76.9153 101.958C77.3313 101.503 77.9183 101.275 78.6763 101.275C79.3903 101.275 79.9373 101.49 80.3193 101.92C80.7013 102.35 80.8923 102.955 80.8923 103.733C80.8923 104.599 80.6843 105.26 80.2683 105.715C79.8513 106.17 79.2643 106.397 78.5073 106.397Z" fill="#232144"/><path fill-rule="evenodd" clip-rule="evenodd" d="M83.2779 101.368H84.4329C84.5329 101.368 84.5829 101.421 84.5829 101.527V102.097C84.5829 102.203 84.5329 102.256 84.4329 102.256H83.2779V104.658C83.2779 104.814 83.2889 104.943 83.3109 105.046C83.3329 105.149 83.3719 105.231 83.4279 105.293C83.5159 105.399 83.6689 105.452 83.8879 105.452C83.9759 105.452 84.0779 105.441 84.1939 105.42C84.3089 105.398 84.4079 105.374 84.4899 105.349C84.6079 105.318 84.6839 105.356 84.7149 105.462L84.8459 105.92C84.8649 105.988 84.8649 106.041 84.8459 106.078C84.8279 106.116 84.7869 106.15 84.7239 106.181C84.6119 106.237 84.4569 106.287 84.2589 106.331C84.0619 106.374 83.8629 106.396 83.6629 106.396C83.1809 106.396 82.8179 106.284 82.5739 106.06C82.2919 105.798 82.1509 105.356 82.1509 104.733V102.256H81.5119C81.4119 102.256 81.3619 102.203 81.3619 102.097V101.527C81.3619 101.421 81.4119 101.368 81.5119 101.368H82.1509V100.069C82.1509 99.9694 82.2039 99.9194 82.3109 99.9194H83.1179C83.2249 99.9194 83.2779 99.9694 83.2779 100.069V101.368Z" fill="#232144"/><path fill-rule="evenodd" clip-rule="evenodd" d="M87.4946 101.527C87.4946 101.421 87.5446 101.368 87.6446 101.368H88.2366V101.032C88.2366 100.377 88.4106 99.8843 88.7576 99.5503C89.1056 99.2173 89.5796 99.0503 90.1806 99.0503C90.3686 99.0503 90.5456 99.0643 90.7116 99.0923C90.8766 99.1203 91.0136 99.1593 91.1196 99.2093C91.2326 99.2533 91.2766 99.3343 91.2516 99.4523L91.1286 99.9383C91.1036 100.038 91.0256 100.075 90.8946 100.05C90.8006 100.032 90.7036 100.014 90.6026 99.9993C90.5026 99.9833 90.3996 99.9763 90.2936 99.9763C89.9926 99.9763 89.7626 100.061 89.6026 100.232C89.4436 100.404 89.3636 100.676 89.3636 101.05V101.368H90.6216C90.7216 101.368 90.7726 101.421 90.7726 101.527V102.097C90.7726 102.203 90.7216 102.256 90.6216 102.256H89.3636V106.153C89.3636 106.253 89.3106 106.303 89.2036 106.303H88.3966C88.2896 106.303 88.2366 106.253 88.2366 106.153V102.256H87.6446C87.5446 102.256 87.4946 102.203 87.4946 102.097V101.527Z" fill="#232144"/><path fill-rule="evenodd" clip-rule="evenodd" d="M93.3362 105.425C93.7122 105.425 94.0042 105.289 94.2142 105.018C94.4242 104.747 94.5292 104.341 94.5292 103.799C94.5292 103.574 94.5102 103.369 94.4722 103.182C94.4352 102.995 94.3722 102.831 94.2852 102.691C94.1972 102.551 94.0842 102.442 93.9462 102.364C93.8092 102.286 93.6432 102.247 93.4492 102.247C93.0732 102.247 92.7802 102.383 92.5712 102.654C92.3612 102.925 92.2562 103.331 92.2562 103.874C92.2562 104.098 92.2752 104.303 92.3122 104.49C92.3502 104.677 92.4122 104.841 92.5002 104.981C92.5882 105.121 92.6992 105.23 92.8342 105.308C92.9682 105.386 93.1362 105.425 93.3362 105.425ZM93.3082 106.397C92.5942 106.397 92.0462 106.182 91.6642 105.752C91.2822 105.322 91.0912 104.718 91.0912 103.939C91.0912 103.073 91.2992 102.412 91.7162 101.958C92.1322 101.503 92.7192 101.275 93.4772 101.275C94.1912 101.275 94.7382 101.49 95.1202 101.92C95.5022 102.35 95.6932 102.955 95.6932 103.733C95.6932 104.599 95.4852 105.26 95.0692 105.715C94.6522 106.17 94.0652 106.397 93.3082 106.397Z" fill="#232144"/><path fill-rule="evenodd" clip-rule="evenodd" d="M99.2247 106.228C98.9737 106.34 98.6987 106.396 98.3987 106.396C98.1227 106.396 97.8757 106.353 97.6567 106.265C97.4367 106.178 97.2557 106.054 97.1117 105.892C96.9547 105.717 96.8427 105.51 96.7737 105.27C96.7047 105.03 96.6707 104.726 96.6707 104.359V101.518C96.6707 101.418 96.7237 101.368 96.8297 101.368H97.6377C97.7437 101.368 97.7977 101.418 97.7977 101.518V103.994C97.7977 104.163 97.8007 104.307 97.8067 104.429C97.8127 104.55 97.8217 104.655 97.8347 104.742C97.8477 104.829 97.8677 104.904 97.8957 104.966C97.9237 105.029 97.9567 105.085 97.9947 105.134C98.1387 105.297 98.3767 105.378 98.7087 105.378C98.8397 105.378 98.9757 105.359 99.1167 105.321C99.2577 105.284 99.3747 105.231 99.4687 105.162C99.5567 105.106 99.6187 105.036 99.6567 104.952C99.6947 104.868 99.7197 104.755 99.7317 104.611C99.7447 104.493 99.7507 104.342 99.7507 104.158V103.564V101.518C99.7507 101.418 99.8067 101.368 99.9197 101.368H100.718C100.825 101.368 100.878 101.418 100.878 101.518V104.443C100.878 104.642 100.881 104.835 100.887 105.022C100.893 105.209 100.9 105.381 100.906 105.536C100.912 105.692 100.918 105.825 100.925 105.934C100.931 106.043 100.934 106.116 100.934 106.153C100.934 106.253 100.878 106.303 100.765 106.303H100.042C99.9787 106.303 99.9367 106.292 99.9146 106.27C99.8926 106.248 99.8757 106.209 99.8637 106.153L99.8257 105.798C99.6757 105.973 99.4747 106.116 99.2247 106.228Z" fill="#232144"/><path fill-rule="evenodd" clip-rule="evenodd" d="M103.216 101.509C103.228 101.553 103.236 101.607 103.24 101.673C103.243 101.738 103.247 101.805 103.254 101.874C103.41 101.699 103.614 101.556 103.864 101.444C104.114 101.331 104.387 101.275 104.681 101.275C104.963 101.275 105.213 101.319 105.432 101.406C105.652 101.493 105.836 101.618 105.987 101.78C106.149 101.955 106.265 102.162 106.334 102.402C106.403 102.641 106.437 102.945 106.437 103.313V106.154C106.437 106.254 106.384 106.304 106.278 106.304H105.47C105.363 106.304 105.31 106.254 105.31 106.154V103.677C105.31 103.509 105.307 103.364 105.301 103.243C105.295 103.121 105.284 103.017 105.268 102.93C105.252 102.842 105.231 102.768 105.202 102.705C105.174 102.643 105.138 102.587 105.094 102.537C104.957 102.375 104.715 102.294 104.371 102.294C104.24 102.294 104.103 102.313 103.963 102.35C103.822 102.388 103.704 102.441 103.61 102.509C103.523 102.571 103.46 102.643 103.423 102.724C103.385 102.805 103.36 102.917 103.348 103.06C103.335 103.179 103.329 103.33 103.329 103.514V104.107V106.154C103.329 106.254 103.276 106.304 103.169 106.304H102.361C102.255 106.304 102.202 106.254 102.202 106.154V103.229C102.202 103.036 102.199 102.844 102.192 102.654C102.186 102.464 102.181 102.291 102.178 102.135C102.175 101.98 102.17 101.847 102.164 101.738C102.158 101.629 102.155 101.556 102.155 101.518C102.155 101.419 102.208 101.369 102.314 101.369H103.028C103.135 101.369 103.197 101.416 103.216 101.509Z" fill="#232144"/><path fill-rule="evenodd" clip-rule="evenodd" d="M110.663 102.686C110.538 102.543 110.394 102.434 110.231 102.359C110.068 102.284 109.899 102.247 109.724 102.247C109.367 102.247 109.087 102.387 108.883 102.667C108.68 102.948 108.578 103.353 108.578 103.882C108.578 104.094 108.598 104.295 108.639 104.485C108.68 104.675 108.744 104.84 108.832 104.98C108.919 105.121 109.032 105.231 109.17 105.312C109.307 105.393 109.473 105.434 109.667 105.434C109.811 105.434 109.949 105.412 110.081 105.368C110.212 105.325 110.322 105.259 110.409 105.172C110.503 105.079 110.569 104.956 110.607 104.803C110.644 104.65 110.663 104.44 110.663 104.172V102.686ZM111.583 106.331C111.408 106.331 111.244 106.292 111.09 106.214C110.937 106.136 110.823 106.007 110.747 105.826C110.603 106.001 110.406 106.139 110.156 106.242C109.905 106.345 109.661 106.396 109.423 106.396C109.098 106.396 108.81 106.336 108.559 106.214C108.309 106.093 108.099 105.923 107.93 105.705C107.761 105.487 107.633 105.227 107.545 104.924C107.457 104.622 107.414 104.29 107.414 103.929C107.414 103.512 107.47 103.138 107.583 102.808C107.695 102.477 107.849 102.198 108.043 101.971C108.237 101.744 108.462 101.571 108.719 101.452C108.976 101.334 109.248 101.275 109.536 101.275C109.755 101.275 109.965 101.312 110.165 101.387C110.366 101.462 110.532 101.561 110.663 101.686V99.2933C110.663 99.1943 110.716 99.1443 110.823 99.1443H111.63C111.737 99.1443 111.79 99.1943 111.79 99.2933V105.079C111.79 105.197 111.81 105.283 111.851 105.336C111.892 105.389 111.968 105.421 112.081 105.434C112.175 105.44 112.222 105.493 112.222 105.593V106.051C112.222 106.163 112.169 106.234 112.062 106.266C111.943 106.309 111.784 106.331 111.583 106.331Z" fill="#232144"/></svg>