<svg viewBox="0 0 160 160" fill="none" xmlns="http://www.w3.org/2000/svg"><path d="M78.31 41.1897H30.86C30.26 41.1897 29.77 41.6797 29.77 42.2797V54.7197C29.77 55.3197 30.26 55.8097 30.86 55.8097H78.32V41.1797L78.31 41.1897Z" fill="#2F2E56"/><path d="M75.8699 42.7695H32.1999C31.852 42.7695 31.5699 43.0516 31.5699 43.3995V53.5995C31.5699 53.9475 31.852 54.2295 32.1999 54.2295H75.8699C76.2179 54.2295 76.4999 53.9475 76.4999 53.5995V43.3995C76.4999 43.0516 76.2179 42.7695 75.8699 42.7695Z" fill="#E6E3DA"/><path d="M71.83 46.2397H41.42V44.4297L36.25 48.4997L41.42 52.5697V50.7597H71.83V46.2397Z" fill="#2F2E56"/><path d="M81.6899 26.4905H129.15C129.75 26.4905 130.24 26.9805 130.24 27.5805V40.0205C130.24 40.6205 129.75 41.1105 129.15 41.1105H81.6899V26.4805V26.4905Z" fill="#2F2E56"/><path d="M127.8 28.0801H84.13C83.7821 28.0801 83.5 28.3621 83.5 28.7101V38.9101C83.5 39.258 83.7821 39.5401 84.13 39.5401H127.8C128.148 39.5401 128.43 39.258 128.43 38.9101V28.7101C128.43 28.3621 128.148 28.0801 127.8 28.0801Z" fill="#E6E3DA"/><path d="M123.72 33.8005L118.55 29.7305V31.5405H88.14V36.0705H118.55V37.8805L123.72 33.8005Z" fill="#2F2E56"/><path d="M81.6801 16H78.3101V144H81.6801V16Z" fill="#ABB8B9"/></svg>