<svg viewBox="0 0 160 160" fill="none" xmlns="http://www.w3.org/2000/svg"><path fill-rule="evenodd" clip-rule="evenodd" d="M88.6265 38.3215C88.6265 50.6493 78.7073 60.6431 66.4714 60.6431C54.2345 60.6431 44.3162 50.6493 44.3162 38.3215C44.3162 25.9938 54.2345 16 66.4714 16C78.7073 16 88.6265 25.9938 88.6265 38.3215Z" fill="#FF9C5E"/><path fill-rule="evenodd" clip-rule="evenodd" d="M109.448 45.5789C109.448 57.9066 99.5291 67.9004 87.2932 67.9004C75.0564 67.9004 65.1381 57.9066 65.1381 45.5789C65.1381 33.2511 75.0564 23.2573 87.2932 23.2573C99.5291 23.2573 109.448 33.2511 109.448 45.5789Z" fill="#FF9C5E"/><path fill-rule="evenodd" clip-rule="evenodd" d="M111.898 37.9472C111.803 33.8189 107.786 30.5257 102.874 30.5748C97.9618 30.6248 94.0113 33.9991 93.9984 38.1284L111.898 37.9472Z" fill="#4B7CFE"/><path fill-rule="evenodd" clip-rule="evenodd" d="M116.418 40.2344C115.903 44.8924 111.738 48.2487 107.115 47.73C102.492 47.2114 99.1606 43.015 99.6754 38.357C100.19 33.6991 104.355 30.3428 108.979 30.8615C113.602 31.3801 116.933 35.5765 116.418 40.2344Z" fill="#232144"/><path fill-rule="evenodd" clip-rule="evenodd" d="M118.49 30.8039L124.384 30.4805L119.799 34.1832L118.49 30.8039Z" fill="#FF6200"/><path fill-rule="evenodd" clip-rule="evenodd" d="M120.142 34.3326C119.812 37.3205 117.144 39.4722 114.183 39.1398C111.222 38.8074 109.088 36.1159 109.418 33.1291C109.747 30.1413 112.416 27.9895 115.376 28.322C118.338 28.6544 120.472 31.3448 120.142 34.3326Z" fill="#232144"/><path fill-rule="evenodd" clip-rule="evenodd" d="M129.693 60.5371C129.693 72.8809 119.774 82.8877 107.538 82.8877C95.3009 82.8877 85.3816 72.8809 85.3816 60.5371C85.3816 48.1933 95.3009 38.1865 107.538 38.1865C119.774 38.1865 129.693 48.1933 129.693 60.5371Z" fill="#FF9C5E"/><path fill-rule="evenodd" clip-rule="evenodd" d="M72.3103 63.9468C72.3103 76.2906 62.391 86.2974 50.1552 86.2974C37.9183 86.2974 28 76.2906 28 63.9468C28 51.603 37.9183 41.5962 50.1552 41.5962C62.391 41.5962 72.3103 51.603 72.3103 63.9468Z" fill="#FF9C5E"/><path fill-rule="evenodd" clip-rule="evenodd" d="M78.6679 99.3999C78.6679 111.744 68.7486 121.75 56.5127 121.75C44.2758 121.75 34.3575 111.744 34.3575 99.3999C34.3575 87.0561 44.2758 77.0493 56.5127 77.0493C68.7486 77.0493 78.6679 87.0561 78.6679 99.3999Z" fill="#FF9C5E"/><path fill-rule="evenodd" clip-rule="evenodd" d="M132 93.2529C132 105.597 122.081 115.604 109.845 115.604C97.608 115.604 87.6897 105.597 87.6897 93.2529C87.6897 80.9091 97.608 70.9023 109.845 70.9023C122.081 70.9023 132 80.9091 132 93.2529Z" fill="#FF9C5E"/><path fill-rule="evenodd" clip-rule="evenodd" d="M74.5217 121.87C74.5217 127.408 70.0714 131.897 64.5815 131.897C59.0917 131.897 54.6414 127.408 54.6414 121.87C54.6414 116.332 59.0917 111.842 64.5815 111.842C70.0714 111.842 74.5217 116.332 74.5217 121.87Z" fill="#FF9C5E"/><path fill-rule="evenodd" clip-rule="evenodd" d="M111.374 120.061C111.374 125.599 106.923 130.089 101.434 130.089C95.9437 130.089 91.4934 125.599 91.4934 120.061C91.4934 114.523 95.9437 110.033 101.434 110.033C106.923 110.033 111.374 114.523 111.374 120.061Z" fill="#FF9C5E"/><path fill-rule="evenodd" clip-rule="evenodd" d="M117.015 84.5817C117.015 88.8892 113.553 92.3807 109.284 92.3807C105.014 92.3807 101.554 88.8892 101.554 84.5817C101.554 80.2742 105.014 76.7827 109.284 76.7827C113.553 76.7827 117.015 80.2742 117.015 84.5817Z" fill="#9E3F39"/><path fill-rule="evenodd" clip-rule="evenodd" d="M64.5587 84.5587C64.5587 88.8662 61.0972 92.3577 56.8278 92.3577C52.5584 92.3577 49.0979 88.8662 49.0979 84.5587C49.0979 80.2512 52.5584 76.7598 56.8278 76.7598C61.0972 76.7598 64.5587 80.2512 64.5587 84.5587Z" fill="#9E3F39"/><path fill-rule="evenodd" clip-rule="evenodd" d="M57.7589 88.0547H57.7599C61.6 88.0547 64.7147 91.1957 64.7147 95.0717V102.011C64.7147 105.885 61.6 109.027 57.7599 109.027H57.7589C53.9188 109.027 50.8042 105.885 50.8042 102.011V95.0717C50.8042 91.1957 53.9188 88.0547 57.7589 88.0547Z" fill="#FF6200"/><path fill-rule="evenodd" clip-rule="evenodd" d="M108.388 88.0547H108.389C112.229 88.0547 115.344 91.1957 115.344 95.0717V102.011C115.344 105.885 112.229 109.027 108.389 109.027H108.388C104.548 109.027 101.434 105.885 101.434 102.011V95.0717C101.434 91.1957 104.548 88.0547 108.388 88.0547Z" fill="#FF6200"/><path fill-rule="evenodd" clip-rule="evenodd" d="M63.976 124.734V99.7393L102.172 99.7973V124.734C102.172 135.375 93.6215 144 83.0741 144C72.5268 144 63.976 135.375 63.976 124.734Z" fill="#763427"/><path fill-rule="evenodd" clip-rule="evenodd" d="M57.7593 96.1182V60.1532C57.7593 48.7846 66.8944 39.5688 78.1643 39.5688H87.9842C99.2531 39.5688 108.388 48.7846 108.388 60.1532V96.1182C108.388 107.487 99.2531 116.702 87.9842 116.702H78.1643C66.8944 116.702 57.7593 107.487 57.7593 96.1182Z" fill="#9E3F39"/><path fill-rule="evenodd" clip-rule="evenodd" d="M82.9608 93.9675C82.6606 93.9675 82.3526 93.9295 82.0375 93.8534C81.1391 93.6341 80.2884 93.0814 79.5063 92.2103C79.0938 91.7527 78.6953 91.5424 78.2819 91.5845C77.4232 91.6586 76.7216 92.7389 76.7146 92.75L75.8759 92.2143C75.9146 92.1532 76.8389 90.7043 78.1974 90.5862C78.9259 90.5241 79.6176 90.8435 80.2427 91.5384C80.8887 92.2583 81.5714 92.7089 82.2711 92.8791C82.9737 93.0513 83.6028 92.9722 84.1375 92.6408C84.369 92.4956 84.5996 92.2774 84.8222 91.989C85.0975 91.6275 85.8667 90.7734 86.9947 90.7324C87.8832 90.6973 88.7796 91.1759 89.6372 92.1502L88.8939 92.815C88.2429 92.0761 87.6595 91.6966 87.0305 91.7337C86.3248 91.7587 85.8001 92.3494 85.6083 92.6018C85.3102 92.9873 84.9921 93.2846 84.6582 93.4919C84.1504 93.8083 83.574 93.9675 82.9608 93.9675Z" fill="#1D1D1B"/><path fill-rule="evenodd" clip-rule="evenodd" d="M83.1235 101.304C83.1235 99.122 79.8072 99.4133 79.8072 99.4133H72.3108C72.3833 98.9868 82.8999 115.645 93.9372 99.4133H86.4399C86.4399 99.4133 83.1235 99.122 83.1235 101.304Z" fill="#D93B34"/><path fill-rule="evenodd" clip-rule="evenodd" d="M95.5799 68.3473L95.892 68.3483C99.1398 68.3633 102.191 69.9994 104.136 72.7669L87.2925 72.6878C89.2682 69.9383 92.3321 68.3313 95.5799 68.3473Z" fill="#1D1D1B"/><path fill-rule="evenodd" clip-rule="evenodd" d="M88.7979 82.9051C88.7979 82.9051 90.6454 78.912 94.1923 77.6694C97.7382 76.4268 101.642 78.4043 101.642 78.4043C101.642 78.4043 100.223 81.6605 96.6768 82.9031C93.1299 84.1456 88.7979 82.9051 88.7979 82.9051Z" fill="white"/><path fill-rule="evenodd" clip-rule="evenodd" d="M92.1504 80.2962C92.1504 82.0064 93.5248 83.3931 95.2203 83.3931C96.9157 83.3931 98.2902 82.0064 98.2902 80.2962C98.2902 78.586 96.9157 77.1992 95.2203 77.1992C93.5248 77.1992 92.1504 78.586 92.1504 80.2962Z" fill="#1D1D1B"/><path fill-rule="evenodd" clip-rule="evenodd" d="M88.7974 82.9035C89.7127 76.5193 97.7129 73.7918 102.631 76.7907C102.329 77.2773 101.754 78.2646 101.453 78.7502C100.364 78.0873 94.7175 75.7854 89.5865 81.9893C89.2754 82.3658 89.2356 82.524 88.7974 82.9035Z" fill="#1D1D1B"/><path fill-rule="evenodd" clip-rule="evenodd" d="M69.2295 68.3473L68.9174 68.3483C65.6696 68.3633 62.6176 69.9994 60.6737 72.7669L77.5169 72.6878C75.5412 69.9383 72.4773 68.3313 69.2295 68.3473Z" fill="#1D1D1B"/><path fill-rule="evenodd" clip-rule="evenodd" d="M76.4574 82.844C76.4574 82.844 74.6099 78.8509 71.0629 77.6083C67.517 76.3657 63.6133 78.3433 63.6133 78.3433C63.6133 78.3433 65.0325 81.5994 68.5784 82.842C72.1253 84.0846 76.4574 82.844 76.4574 82.844Z" fill="white"/><path fill-rule="evenodd" clip-rule="evenodd" d="M72.6106 80.0125C72.6106 81.7227 71.2362 83.1094 69.5407 83.1094C67.8453 83.1094 66.4708 81.7227 66.4708 80.0125C66.4708 78.3023 67.8453 76.9155 69.5407 76.9155C71.2362 76.9155 72.6106 78.3023 72.6106 80.0125Z" fill="#1D1D1B"/><path fill-rule="evenodd" clip-rule="evenodd" d="M76.4578 82.8415C75.5425 76.4573 67.5423 73.7298 62.6239 76.7287C62.926 77.2153 63.5014 78.2026 63.8036 78.6882C64.8908 78.0253 70.5377 75.7234 75.6687 81.9273C75.9798 82.3038 76.0196 82.462 76.4578 82.8415Z" fill="#1D1D1B"/><path fill-rule="evenodd" clip-rule="evenodd" d="M58.0561 84.3754V72.8437C58.0561 61.4751 67.0849 52.2594 78.2216 52.2594H81.5827V45.8952H84.5652V52.2594H87.9263C99.063 52.2594 108.092 61.4751 108.092 72.8437V84.3754H112.047V59.9852C112.047 47.6665 102.147 37.6787 89.9348 37.6787H76.2131C64.0011 37.6787 54.1007 47.6665 54.1007 59.9852V84.3754H58.0561Z" fill="#FF9C5E"/><path fill-rule="evenodd" clip-rule="evenodd" d="M93.0219 63.9468H72.5662C65.7347 63.9468 60.1962 58.3596 60.1962 51.4678V45.4531H105.393V51.4678C105.393 58.3596 99.8544 63.9468 93.0219 63.9468Z" fill="#FF9C5E"/><path fill-rule="evenodd" clip-rule="evenodd" d="M103.104 48.8656C106.619 50.9923 111.528 49.3281 114.111 45.1128C116.693 40.8974 115.972 35.7237 112.515 33.5039L103.104 48.8656Z" fill="#4B7CFE"/></svg>