<svg viewBox="0 0 160 160" fill="none" xmlns="http://www.w3.org/2000/svg"><path d="M96.8 77.6997H18.2V126.9H96.8V77.6997Z" fill="#232144"/><path d="M57.2 92.3999H25.1V113.5H57.2V92.3999Z" fill="#D3E8F3"/><path d="M44.9 92.3999H43.1L29.5 113.5H31.3L44.9 92.3999Z" fill="white"/><path d="M51.9 92.3999H48.3L34.7 113.5H38.3L51.9 92.3999Z" fill="white"/><path d="M96.8 77.6997H18.2V126.9H96.8V77.6997Z" fill="#232144"/><path d="M57.2 92.3999H25.1V113.5H57.2V92.3999Z" fill="#D3E8F3"/><path d="M44.9 92.3999H43.1L29.5 113.5H31.3L44.9 92.3999Z" fill="white"/><path d="M51.9 92.3999H48.3L34.7 113.5H38.3L51.9 92.3999Z" fill="white"/><path d="M48.2 91.2998H46.9V124.2H48.2V91.2998Z" fill="#232144"/><path d="M99 78.0998L86.7 44.7998H28.3L16 78.0998H99Z" fill="#4B7CFE"/><path d="M71.9 92.3999H68.1V126.8H71.9V92.3999Z" fill="#463EC5"/><path d="M86.6 92.3999H73.2V126.8H86.6V92.3999Z" fill="#463EC5"/><path d="M77.3 60.4C77.3 59.7 78.1 58.9 79.1 58.7C78.6 58 77.8 57.5 76.9 57.5C75.5 57.5 74.3 58.7 74.3 60.1C74.3 61.5 75.5 62.7 76.9 62.7C77.6 62.7 78.2 62.4 78.7 62C77.8 61.5 77.3 61 77.3 60.4Z" fill="white"/><path d="M78.3 60.3997C78.3 60.5997 78.6 60.7997 79.2 61.0997C79.3 60.7997 79.4 60.3997 79.4 60.0997C79.4 59.8997 79.4 59.7997 79.4 59.6997C78.9 59.6997 78.3 59.8997 78.3 60.3997Z" fill="white"/><path d="M100.9 58.3998L91.5 57.7998L91.9 58.7998L100.8 59.3998C102.6 59.8998 103 60.3998 103 60.4998C103 61.1998 98.7 62.5998 90.7 62.5998C84.9 62.5998 81 61.8998 79.3 61.1998C79.2 61.4998 79 61.7998 78.7 61.9998C81.3 63.1998 87.1 63.5998 90.6 63.5998C95.2 63.5998 103.9 62.9998 103.9 60.4998C103.9 59.5998 103 58.8998 100.9 58.3998Z" fill="#E73245"/><path d="M79.2 61.0997C78.6 60.8997 78.3 60.5997 78.3 60.3997C78.3 59.8997 78.9 59.6997 79.4 59.5997C79.3 59.2997 79.2 58.9997 79.1 58.6997C78.1 58.7997 77.3 59.6997 77.3 60.3997C77.3 60.9997 77.8 61.4997 78.7 61.8997C78.9 61.5997 79.1 61.3997 79.2 61.0997Z" fill="#E73245"/><path d="M103.9 49.1998L95.2 58.4998L98.9 67.0998L111.6 67.1998L144 53.1998L136.3 35.2998L103.9 49.1998ZM103.6 62.0998C102.6 62.4998 101.4 62.0998 100.9 60.9998C100.5 59.9998 100.9 58.7998 102 58.2998C103 57.8998 104.2 58.2998 104.7 59.3998C105.1 60.4998 104.6 61.6998 103.6 62.0998Z" fill="#E73245"/></svg>