<svg viewBox="0 0 160 160" fill="none" xmlns="http://www.w3.org/2000/svg"><path d="M35.11 31.9004H124.89C126.91 31.9004 128.55 33.5404 128.55 35.5604V96.2504H31.45V35.5604C31.45 33.5404 33.09 31.9004 35.11 31.9004Z" fill="#254471"/><path d="M144 115.66H16L31.43 96.25H128.54L144 115.66Z" fill="#738EC1"/><path d="M124.65 35.96H35.36V88.38H124.65V35.96Z" fill="#D0DEF2"/><path d="M26.74 106.151L32.67 97.8408H127.33L133.26 106.151H26.74Z" fill="#B0C2E4"/><path d="M58.3199 114.071L61.8899 107.261H98.1999L101.71 114.071H58.3199Z" fill="#B0C2E4"/><path d="M142.25 119.74H17.75C16.78 119.74 16 118.96 16 117.99V115.66H144V117.99C144 118.96 143.22 119.74 142.25 119.74Z" fill="#8DA8DC"/><path d="M80 34.91C80.4695 34.91 80.85 34.5294 80.85 34.06C80.85 33.5905 80.4695 33.21 80 33.21C79.5306 33.21 79.15 33.5905 79.15 34.06C79.15 34.5294 79.5306 34.91 80 34.91Z" fill="#D0DEF2"/><path d="M118.16 60.1193C118.243 60.1193 118.31 60.0522 118.31 59.9693C118.31 59.8865 118.243 59.8193 118.16 59.8193C118.077 59.8193 118.01 59.8865 118.01 59.9693C118.01 60.0522 118.077 60.1193 118.16 60.1193Z" fill="#E5F0FF"/><path d="M105 66.0996L106 67.5396C106 67.5396 111.19 65.3196 112.01 70.7196" stroke="#F5B091" stroke-width="0.35" stroke-miterlimit="10"/><path d="M80.17 69.0598C80.17 74.9798 75.37 79.7798 69.45 79.7798C63.53 79.7798 58.74 74.9798 58.74 69.0598C58.74 63.1398 63.53 58.3398 69.45 58.3398C75.37 58.3398 80.17 63.1398 80.17 69.0598Z" fill="#8B181D"/><path d="M116.24 88.3799C116.14 87.7499 116.04 87.1099 115.95 86.4599C115.91 86.1899 115.83 85.9699 115.73 85.7599C115.26 80.3299 110.93 75.8799 105.32 75.4599C105.11 75.4399 104.91 75.4499 104.7 75.4399V75.4199H54.51V75.4499C54.51 75.4499 54.49 75.4499 54.48 75.4499C48.56 75.8999 44.06 80.8199 44.02 86.6499C43.94 87.2299 43.85 87.7999 43.76 88.3699H116.25L116.24 88.3799Z" fill="#FF6200"/><path d="M117.5 56.0001C117.5 55.1701 116.83 54.5001 116 54.5001C115.17 54.5001 114.5 55.1701 114.5 56.0001L114.61 63.6301H114.39L114.28 54.0101C114.28 53.1801 113.61 52.5101 112.78 52.5101C111.95 52.5101 111.28 53.1801 111.28 54.0101L111.39 62.9801H111.17L111.06 52.8701C111.06 52.0401 110.39 51.3701 109.56 51.3701C108.73 51.3701 108.06 52.0401 108.06 52.8701L108.17 63.6301H107.95L107.84 54.4301C107.84 53.6001 107.17 52.9301 106.34 52.9301C105.51 52.9301 104.84 53.6001 104.84 54.4301L104.96 66.0901L102.77 62.1501C102.36 61.4301 101.44 61.1901 100.73 61.6001C100.01 62.0101 99.77 62.9301 100.18 63.6401L103.9 70.2201C104.6 71.4301 105.43 72.5401 106.38 73.5601V83.0501H110.59L116.86 83.0401V72.0601C117.31 71.0401 117.55 69.9501 117.57 68.8401V68.5701L117.47 55.9901L117.5 56.0001Z" fill="#FFC6AD"/><path d="M104.86 78.0098V88.3798H118.12V78.0098H104.86Z" fill="#FF6200"/><path d="M95.29 60.5498C95.29 62.4798 93.72 64.0498 91.79 64.0498C89.86 64.0498 88.29 62.4798 88.29 60.5498C88.29 58.6198 89.86 57.0498 91.79 57.0498C93.72 57.0498 95.29 58.6198 95.29 60.5498Z" fill="#FFC6AD"/><path d="M71.53 60.54C71.53 62.47 69.96 64.04 68.03 64.04C66.1 64.04 64.53 62.47 64.53 60.54C64.53 58.61 66.1 57.04 68.03 57.04C69.96 57.04 71.53 58.61 71.53 60.54Z" fill="#FFC6AD"/><path d="M68.45 61.2998C70.19 61.2998 71.6 62.7098 71.6 64.4498V67.5698C71.6 69.3098 70.19 70.7198 68.45 70.7198C66.71 70.7198 65.3 69.3098 65.3 67.5698V64.4498C65.3 62.7098 66.71 61.2998 68.45 61.2998Z" fill="#FF6200"/><path d="M91.39 62.7695C93.13 62.7695 94.54 64.1795 94.54 65.9195V69.0395C94.54 70.7795 93.13 72.1895 91.39 72.1895C89.65 72.1895 88.24 70.7795 88.24 69.0395V65.9195C88.24 64.1795 89.65 62.7695 91.39 62.7695Z" fill="#FF6200"/><path d="M71.27 78.7298V67.5098L88.57 67.5398V78.7398C88.57 83.5198 84.7 87.3898 79.92 87.3898C75.14 87.3898 71.27 83.5198 71.27 78.7398" fill="#F5B091"/><path d="M68.45 65.8793V49.7293C68.45 44.6293 72.59 40.4893 77.69 40.4893H82.14C87.24 40.4893 91.38 44.6293 91.38 49.7293V65.8793C91.38 70.9793 87.24 75.1193 82.14 75.1193H77.69C72.59 75.1193 68.45 70.9793 68.45 65.8793Z" fill="#FFC6AD"/><path d="M79.88 64.8201C79.75 64.8201 79.61 64.8101 79.47 64.7801C79.07 64.7001 78.7 64.5001 78.35 64.1701C78.17 64.0001 77.98 63.9301 77.79 63.9401C77.41 63.9701 77.11 64.3601 77.1 64.3601L76.73 64.0801C76.73 64.0801 77.15 63.5301 77.74 63.4801C78.07 63.4501 78.37 63.5701 78.65 63.8301C78.93 64.0901 79.24 64.2601 79.55 64.3201C79.87 64.3901 80.15 64.3501 80.39 64.2301C80.49 64.1801 80.59 64.1001 80.69 63.9901C80.81 63.8601 81.15 63.5401 81.64 63.5301C82.03 63.5101 82.43 63.6901 82.81 64.0501L82.5 64.3801C82.22 64.1201 81.95 63.9801 81.69 63.9801C81.69 63.9801 81.67 63.9801 81.66 63.9801C81.34 63.9901 81.12 64.2101 81.03 64.3001C80.89 64.4501 80.75 64.5501 80.6 64.6301C80.38 64.7501 80.13 64.8001 79.86 64.8001L79.88 64.8201Z" fill="black"/><path d="M81.33 67.9001C81.24 66.9201 79.75 67.2001 79.75 67.2001L76.37 67.5301C76.38 67.3401 81.85 74.3201 86.12 66.5801L82.74 66.9101C82.74 66.9101 81.23 66.9301 81.33 67.9001Z" fill="#E73245"/><path d="M85.5801 51.8099H85.7201C87.1901 51.8099 88.5701 52.5499 89.4501 53.7899L81.8201 53.7499C82.7101 52.5199 84.1001 51.7899 85.5701 51.7999" fill="#8B181D"/><path d="M82.51 59.95C82.51 59.95 83.35 58.16 84.95 57.6C86.55 57.04 88.32 57.93 88.32 57.93C88.32 57.93 87.68 59.39 86.07 59.95C84.46 60.51 82.5 59.95 82.5 59.95" fill="white"/><path d="M84.03 58.7796C84.03 59.5496 84.65 60.1696 85.42 60.1696C86.19 60.1696 86.81 59.5496 86.81 58.7796C86.81 58.0096 86.19 57.3896 85.42 57.3896C84.65 57.3896 84.03 58.0096 84.03 58.7796Z" fill="black"/><path d="M82.51 59.95C82.92 57.08 86.55 55.86 88.78 57.21C88.64 57.43 88.38 57.87 88.25 58.09C87.76 57.79 85.2 56.76 82.88 59.54C82.74 59.71 82.72 59.78 82.52 59.95" fill="black"/><path d="M73.65 51.8099H73.51C72.04 51.8099 70.66 52.5499 69.78 53.7899L77.41 53.7499C76.52 52.5199 75.13 51.7899 73.66 51.7999" fill="#8B181D"/><path d="M76.92 59.9198C76.92 59.9198 76.08 58.1298 74.48 57.5698C72.88 57.0098 71.11 57.8998 71.11 57.8998C71.11 57.8998 71.75 59.3598 73.36 59.9198C74.97 60.4798 76.93 59.9198 76.93 59.9198" fill="white"/><path d="M75.18 58.6498C75.18 59.4198 74.56 60.0398 73.79 60.0398C73.02 60.0398 72.4 59.4198 72.4 58.6498C72.4 57.8798 73.02 57.2598 73.79 57.2598C74.56 57.2598 75.18 57.8798 75.18 58.6498Z" fill="black"/><path d="M76.92 59.9197C76.51 57.0497 72.88 55.8297 70.65 57.1797C70.79 57.3997 71.05 57.8397 71.18 58.0597C71.67 57.7597 74.23 56.7297 76.55 59.5097C76.69 59.6797 76.71 59.7497 76.91 59.9197" fill="black"/><path d="M83.03 39.6396H76.81C71.28 39.6396 66.79 44.1196 66.79 49.6596V60.1996H68.58V55.4396C68.58 50.3396 72.67 46.1996 77.71 46.1996H79.23V43.3396H80.58V46.1996C80.58 46.1996 80.58 46.2297 80.58 46.2397C80.58 48.7297 82.59 50.7397 85.08 50.7397C86.53 50.7397 87.81 50.0396 88.63 48.9796C90.24 50.6496 91.24 52.9196 91.24 55.4396V60.1996H93.03V49.6596C93.03 44.1296 88.55 39.6396 83.01 39.6396H83.03Z" fill="#8B181D"/><path d="M88.79 59.9492H70.8V62.1692H88.79V59.9492Z" fill="#FFC6AD"/></svg>